<?xml version="1.0" encoding="utf-8"?>
<!-- Generator: Adobe Illustrator 15.0.0, SVG Export Plug-In . SVG Version: 6.00 Build 0)  -->
<!DOCTYPE svg PUBLIC "-//W3C//DTD SVG 1.1//EN" "http://www.w3.org/Graphics/SVG/1.1/DTD/svg11.dtd">
<svg version="1.1" id="Layer_1" xmlns="http://www.w3.org/2000/svg" xmlns:xlink="http://www.w3.org/1999/xlink" x="0px" y="0px"
	 width="170.08px" height="170.08px" viewBox="0 0 170.08 170.08" enable-background="new 0 0 170.08 170.08" xml:space="preserve">
<polygon fill="#A7A9AC" points="110.538,91.207 128.205,146.873 124.872,148.54 106.872,91.54 "/>
<polygon fill="#A7A9AC" points="75.205,93.541 71.822,131.483 68.489,133.15 71.539,93.874 "/>
<polygon fill="#A7A9AC" points="68.205,94.54 50.539,162.873 47.206,164.54 64.539,94.873 "/>
<polygon fill="#A7A9AC" points="112.205,8.207 53.205,8.874 58.872,95.54 116.872,91.54 "/>
<polygon fill="#FFFEF4" points="112.206,86.371 62.539,90.873 58.205,15.54 110.205,14.874 "/>
<path fill="none" stroke="#000000" stroke-width="1.5" stroke-linecap="round" stroke-linejoin="round" stroke-miterlimit="10" d="
	M54.539,9.207c0.015,5.405,1.444,11.17,1.667,16.742c0.321,7.984-0.333,17.604,0.333,25.591c0.651,7.818,0.314,17.202,1,25
	c0.397,4.516,0.271,8.15,0.667,12.667c0.264,3.021-0.614,3.587,0.667,6.333c4.667,0.334,11.854-2.127,16.275-1.933
	c6.058,0.267,12.974,0.25,18.391-0.4c8.334-1,14.333-0.667,22-2.667c-0.031-4.584,0.052-13.845,0-18.667
	c-0.072-6.807-0.595-15.193-0.666-22c-0.074-7.079-0.932-12.244-1-19.333c-0.039-4.05-0.515-7.245-0.667-11.333
	c-0.091-2.443-0.667-6.576-0.667-9c0-1.333-5.721-0.287-9,0c-6.863,0.601-12.827-1.205-19.666-0.333c-9.503,1.21-19,0-27.974,0.701
	c-0.005,0.616,0.333,0.819,0.64,1.299"/>
<path fill="none" stroke="#000000" stroke-linecap="round" stroke-linejoin="round" stroke-miterlimit="10" d="M57.872,16.54
	c0.013,4.815,1.287,7.335,1.486,12.298c0.286,7.112-0.296,15.68,0.296,22.794c0.581,6.964,0.28,15.322,0.891,22.268
	c0.354,4.022,0.242,7.259,0.593,11.283c0.235,2.691-0.546,3.195,0.594,5.641c4.157,0.298,10.558-1.895,14.497-1.721
	c5.396,0.237,11.556,0.223,16.381-0.357c7.423-0.891,12.767-0.594,19.596-2.375c-0.028-4.083,0.046-12.333,0-16.627
	c-0.064-6.063-0.53-13.532-0.594-19.596c-0.065-6.305-0.829-10.906-0.891-17.221c-0.034-3.607-0.458-6.453-0.594-10.095
	c-0.081-2.176-0.594-5.857-0.594-8.016c0-1.188-5.096-0.255-8.017,0C95.404,15.352,90.092,13.744,84,14.52
	c-8.465,1.078-16.924,0-24.917,0.624c-0.004,0.549,0.296,0.73,0.57,1.158"/>
<path fill="none" stroke="#000000" stroke-width="1.5" stroke-linecap="round" stroke-linejoin="round" stroke-miterlimit="10" d="
	M109.815,92.202c5.691,6.534,6.24,18.932,8.405,27.033c1.672,6.261,3.312,12.617,5.263,18.732
	c0.744,2.332,4.887,11.495,1.387,12.297c-2.458-10.192-6.468-18.205-8.117-28.577c-1.018-6.399-2.925-12.812-4.88-18.913
	c-1.168-3.645-3.001-6.567-5.001-10.234"/>
<path fill="none" stroke="#000000" stroke-width="1.5" stroke-linecap="round" stroke-linejoin="round" stroke-miterlimit="10" d="
	M63.205,96.207c0.47,5.389-1.39,11.272-2.982,16.334c-2.186,6.944-3.908,13.77-5.426,20.907
	c-2.202,10.353-5.238,20.948-6.874,31.043c3.855,1.018,3.376-3.564,3.949-6.283c0.613-2.912,1.705-5.771,2.323-8.668
	c1.201-5.62,1.875-11.167,3.417-16.74c1.574-5.686,3.589-11.563,4.926-17.26c0.791-3.371,1.254-6.361,2.414-9.665
	c1.044-2.976,0.997-6.36,1.929-9.343c0.146-0.468,0.746-1.801,0.657-1.658"/>
<path fill="none" stroke="#000000" stroke-width="1.5" stroke-linecap="round" stroke-linejoin="round" stroke-miterlimit="10" d="
	M75.205,95.199c0,12.39-1.021,24.688-3.383,36.284c-0.627,0.187-1.94,0.187-2.567-0.001c0.95-6.275,1.753-12.38,2.284-17.608
	c0.631-6.221,0.142-13.3,1.333-19.334c0.079,0.547,0.08,1.22,0,1.667"/>
<path fill="none" stroke="#000000" stroke-width="1.5" stroke-linecap="round" stroke-linejoin="round" stroke-miterlimit="10" d="
	M53.872,11.207c0.012,0.152,0.155,3.976,0.659,4.667c1.418,1.945,2.378,0.667,4.909,0.009c5.468-1.42,12.124-0.847,17.766-1.009
	c6.632-0.19,12.661-0.957,19.258-0.649c3.332,0.156,6.692-0.188,10.024-0.034c2.111,0.098,4.305,0.838,6.358-0.066
	c-1.581-0.872-0.862-2.98-2.049-3.849c-1.415-1.035-4.86-0.062-6.665-0.067c-6.295-0.017-12.614,0.047-18.837,0.341
	c-10.912,0.515-21.712,2.221-32.662,1.968c0.42,0.212,0.816,0.488,1.239,0.691"/>
</svg>
