<?xml version="1.0" encoding="utf-8"?>
<!-- Generator: Adobe Illustrator 25.2.1, SVG Export Plug-In . SVG Version: 6.00 Build 0)  -->
<svg version="1.1" id="Layer_1" xmlns="http://www.w3.org/2000/svg" xmlns:xlink="http://www.w3.org/1999/xlink" x="0px" y="0px"
	 width="1000px" height="1000px" viewBox="0 0 1000 1000" enable-background="new 0 0 1000 1000" xml:space="preserve">
<path fill="#C2B59B" stroke="#000000" stroke-width="3" stroke-miterlimit="10" d="M938.9,538.8c-31.1-44.2-50.6-66.1-81.1-119.4
	c-19.8,3.6-770.4-0.2-790.3-1.9c9.8,25.9,20.3,52.2,30.3,78.2c6,15.8,16.9,45.3,23,61c2.1,3.7,4.1,7.3,5.7,11.2
	C145,574.2,919.2,538.1,938.9,538.8z"/>
<path fill="none" stroke="#000000" stroke-width="3" stroke-miterlimit="10" d="M68.3,417.5c-1.9,3.2-8.4,14-8.4,14
	c2.1,3.6,57.4,146.6,59,150.5c18.4,6.3,792.6-29.9,812.3-29.2l8.4-14"/>
<path fill="none" stroke="#000000" stroke-width="3" stroke-miterlimit="10" d="M127.5,567.2c-3.1,3.6-5.8,9.7-8.6,14.3"/>
<path fill="none" stroke="#000000" stroke-width="3" stroke-miterlimit="10" d="M97.4,418.5c3.5,10.1,3.5,19.2,6.9,27.8"/>
<path fill="none" stroke="#000000" stroke-width="3" stroke-miterlimit="10" d="M151.9,418c0.6,8,4.2,19.5,7.5,26.8"/>
<path fill="none" stroke="#000000" stroke-width="3" stroke-miterlimit="10" d="M205.8,418.4c5.3,7.1,7.5,15.9,10.4,24.3"/>
<path fill="none" stroke="#000000" stroke-width="3" stroke-miterlimit="10" d="M260.7,419.5c4.4,6.6,6.8,15.2,10,22.7"/>
<path fill="none" stroke="#000000" stroke-width="3" stroke-miterlimit="10" d="M314.3,419.8c3.1,7.7,3.8,13.2,6.1,20.4"/>
<path fill="none" stroke="#000000" stroke-width="3" stroke-miterlimit="10" d="M366.3,420.7c3.1,7.6,6.2,12.8,7.5,20.9"/>
<path fill="none" stroke="#000000" stroke-width="3" stroke-miterlimit="10" d="M422.4,420.7c2.1,7.2,7,15.8,10.5,21.8"/>
<path fill="none" stroke="#000000" stroke-width="3" stroke-miterlimit="10" d="M468.3,420.7c3,5.4,4.3,11.8,8.4,16.1"/>
<path fill="none" stroke="#000000" stroke-width="3" stroke-miterlimit="10" d="M516.3,421.8c3.2,6.5,6.3,13.4,8.6,20.4"/>
<path fill="none" stroke="#000000" stroke-width="3" stroke-miterlimit="10" d="M554.9,420c3.5,5.9,5.8,12.8,9.8,18.4"/>
<path fill="none" stroke="#000000" stroke-width="3" stroke-miterlimit="10" d="M595.9,421c4,6,8.5,12.2,11.4,18"/>
<path fill="none" stroke="#000000" stroke-width="3" stroke-miterlimit="10" d="M643.5,420.5c5.8,2.1,9.5,12,13.1,17.6"/>
<path fill="none" stroke="#000000" stroke-width="3" stroke-miterlimit="10" d="M685.3,421c5.2,6.5,8.3,12.6,14.3,19.3"/>
<path fill="none" stroke="#000000" stroke-width="3" stroke-miterlimit="10" d="M739.7,419.9c6.2,6.6,12,14.1,18.2,20.6"/>
<path fill="none" stroke="#000000" stroke-width="3" stroke-miterlimit="10" d="M790.9,420.2c2.6,7.8,6.6,13.5,11.8,19.6"/>
<path fill="none" stroke="#000000" stroke-width="3" stroke-miterlimit="10" d="M827.6,428.4c-12.3-8.8-6.8,24.3,2.6,7.1"/>
<path fill="none" stroke="#000000" stroke-width="3" stroke-miterlimit="10" d="M838.5,440.4c-1.3-3.8-1.5-7.7-0.8-11.7
	c1.7,1.8,4.9,2.3,6.7,3.9c0.6-2.3,3.1-5,3.4-7.3c2.5,3.3,3.9,8.2,6.4,12"/>
<path fill="none" stroke="#000000" stroke-width="3" stroke-miterlimit="10" d="M129.4,418.4c-0.6,2,0.4,7.8,1.2,11.8"/>
<path fill="none" stroke="#000000" stroke-width="3" stroke-miterlimit="10" d="M182.4,419.7c3.3,6.1,3.3,6.6,4.4,11.1"/>
<path fill="none" stroke="#000000" stroke-width="3" stroke-miterlimit="10" d="M237.2,419.3c0.7,5.2,0.8,6.5,1.7,10.4"/>
<path fill="none" stroke="#000000" stroke-width="3" stroke-miterlimit="10" d="M291.1,419.7c0.1,0.2,3.2,7.1,4.1,9.4"/>
<path fill="none" stroke="#000000" stroke-width="3" stroke-miterlimit="10" d="M340.3,418.8c0.6,4.3,1.9,8.1,3.9,12"/>
<path fill="none" stroke="#000000" stroke-width="3" stroke-miterlimit="10" d="M395,420.2c1.9,3,2.9,6.6,3.7,10.1"/>
<path fill="none" stroke="#000000" stroke-width="3" stroke-miterlimit="10" d="M448.3,420.7c2.6,3.3,4.5,7,6.5,11.3"/>
<path fill="none" stroke="#000000" stroke-width="3" stroke-miterlimit="10" d="M495.5,421.8c0.9,2.6,2.4,5,4.3,6.7"/>
<path fill="none" stroke="#000000" stroke-width="3" stroke-miterlimit="10" d="M536.7,420.2c1.7,2.9,2.7,5.6,3.1,8.8"/>
<path fill="none" stroke="#000000" stroke-width="3" stroke-miterlimit="10" d="M576.7,420.6c1.8,4.1,3.4,8,5.5,11.6"/>
<path fill="none" stroke="#000000" stroke-width="3" stroke-miterlimit="10" d="M622.7,420.4c4.5,1.8,7,5.7,9.4,9.8"/>
<path fill="none" stroke="#000000" stroke-width="3" stroke-miterlimit="10" d="M668.6,420.3c1.7,2.6,3.6,6.1,4.7,8.4"/>
<path fill="none" stroke="#000000" stroke-width="3" stroke-miterlimit="10" d="M717.8,419.3c0.2,1.5,2.8,7.1,5.1,10"/>
<path fill="none" stroke="#000000" stroke-width="3" stroke-miterlimit="10" d="M767.8,421.6c2.9,2.2,5.1,5.7,5.7,9"/>
<path fill="none" stroke="#000000" stroke-width="2" stroke-miterlimit="10" d="M106.9,467.4c1.1-3,3.8-6.4,5.6-9
	c3.8,4,5.5,11.5,6,17.3"/>
<path fill="none" stroke="#000000" stroke-width="2" stroke-miterlimit="10" d="M157.6,457.3c11.3-9,9.9,17.6-0.6,15
	c3.6-7.7,11.6-0.7,17.9-0.1"/>
<path fill="none" stroke="#000000" stroke-width="2" stroke-miterlimit="10" d="M213.1,454.8c2.2-2.8,4.9-3.9,8.8-3.2
	c0.7,4.4-0.2,6.6-4.7,8.2c14.8-5.1,10,12.9-0.3,7"/>
<path fill="none" stroke="#000000" stroke-width="2" stroke-miterlimit="10" d="M269,449.5c0.9,9.2,7.6,12,14.5,5.9"/>
<path fill="none" stroke="#000000" stroke-width="2" stroke-miterlimit="10" d="M275.4,450.6c1.7,6.2,3,13.9,4.9,19.6"/>
<path fill="none" stroke="#000000" stroke-width="2" stroke-miterlimit="10" d="M325.4,449.5c-2.8,0.2-6-0.1-7.6,0.4
	c0,0-1,2.9-1,4.1c3.4,0.4,8.2,1.2,8.6,3.9c0.3,2.4-3.1,6.8-8.6,6.2"/>
<path fill="none" stroke="#000000" stroke-width="2" stroke-miterlimit="10" d="M379.1,449c-7.3,3.3-10.9,15.2,0.1,17.9
	c6.9-7.9-4.7-10.6-5.4-3.9"/>
<path fill="none" stroke="#000000" stroke-width="2" stroke-miterlimit="10" d="M427.1,450.1c15.6-1.3,11.4,1.1,16.5,14.1"/>
<path fill="none" stroke="#000000" stroke-width="2" stroke-miterlimit="10" d="M434.4,458.7c1.6-3.7,8.9-5.6,13.9-6.9"/>
<path fill="none" stroke="#000000" stroke-width="2" stroke-miterlimit="10" d="M485,446c-0.3-3.5-7.4-1.6-5.9,3.2
	c3.3,1.7,9.7,1.8,9.7,6.3c0.8,4.5-1.6,6.8-4.1,6.8C475.7,458.4,485.8,450.8,485,446"/>
<path fill="none" stroke="#000000" stroke-width="2" stroke-miterlimit="10" d="M532.3,456.2c-3.5,0.8-7.4,2.4-8-3.5
	c9.2-10.5,10.2,9.1,3.4,14.8"/>
<path fill="none" stroke="#000000" stroke-width="2" stroke-miterlimit="10" d="M558.3,454.6c0.4-1.6,0.4-1.6,1.8-3.5
	c2.3,3.2,4.4,9.6,6,13.2"/>
<path fill="none" stroke="#000000" stroke-width="2" stroke-miterlimit="10" d="M574.3,450.5c-8.8-4.2-6.5,9.3-2.3,12.6
	C576.1,466.3,585.3,458.2,574.3,450.5"/>
<path fill="none" stroke="#000000" stroke-width="2" stroke-miterlimit="10" d="M604.2,451.2c1.2-0.8,2.7-1.8,3.8-2.5
	c1.7,5.4,3.7,11.1,5.7,16.2"/>
<path fill="none" stroke="#000000" stroke-width="2" stroke-miterlimit="10" d="M613.7,449.4c0,0,2.3-2.2,3.3-3.4
	c2,5.3,4.2,9.9,6.2,15.4"/>
<path fill="none" stroke="#000000" stroke-width="2" stroke-miterlimit="10" d="M649.4,450.6l2.9-3.4c1.3,3.9,2.9,10.8,5.5,15.3"/>
<path fill="none" stroke="#000000" stroke-width="2" stroke-miterlimit="10" d="M659,448.2c4-10.3,8.7,6.2,4.9,12.9
	c3.1,0.4,6.5,0.2,9.4-0.9"/>
<path fill="none" stroke="#000000" stroke-width="2" stroke-miterlimit="10" d="M693.5,450.6c1.2-1.6,2.4-2.9,4.5-3.4
	c1.7,4.7,3.4,9.9,6.2,14.1"/>
<path fill="none" stroke="#000000" stroke-width="2" stroke-miterlimit="10" d="M705.4,448.2c1.7-1.8,2.3-3.4,5.8-2.2
	c1.3,3.5,0.1,4.4-1.8,7c16.2-4,5,18.1,0.8,4.7"/>
<path fill="none" stroke="#000000" stroke-width="2" stroke-miterlimit="10" d="M753,450.6c1.6-0.4,1.5-1.9,3.4-1
	c1.7,4.9,2.5,9.5,5,14.1"/>
<path fill="none" stroke="#000000" stroke-width="2" stroke-miterlimit="10" d="M766.1,445.8c-0.7,2.6,0,6.7,0.2,9.3
	c3.6,0.5,7.4-0.2,10.6-2.2"/>
<path fill="none" stroke="#000000" stroke-width="2" stroke-miterlimit="10" d="M769.7,447c1.4,6.1,2.7,13.1,6,19"/>
<path fill="none" stroke="#000000" stroke-width="2" stroke-miterlimit="10" d="M794.7,451.8c1.3-0.9,2.2-1.8,3.6-2.3
	c2.5,4.8,3.7,9.7,6,14.2"/>
<path fill="none" stroke="#000000" stroke-width="2" stroke-miterlimit="10" d="M814.6,446.3c-3,1.2-7.8,2.1-7.8,2.1
	c-1.7,1.3-0.2,1.5,0,4.4c7.4-1.3,10.6,2.2,10.5,5.3c0,3.1-3.2,5.9-8.3,3.2"/>
</svg>
