<?xml version="1.0" encoding="utf-8"?>
<!-- Generator: Adobe Illustrator 23.1.1, SVG Export Plug-In . SVG Version: 6.00 Build 0)  -->
<svg version="1.1" id="Layer_1" xmlns="http://www.w3.org/2000/svg" xmlns:xlink="http://www.w3.org/1999/xlink" x="0px" y="0px"
	 width="1000px" height="1000px" viewBox="0 0 1000 1000" enable-background="new 0 0 1000 1000" xml:space="preserve">
<g id="vs-highlight">
	<path fill="#5DBFD9" d="M220.7,61.3c2-0.2,4.2,2.6,5,5c1.6,5-2.7,9.4-1,11c1,0.9,3.5,0.3,5-1c2.4-2.1,0.8-5,3-8c1.5-2,2.6-1.3,7-4
		c3.4-2.1,5.5-4.4,7-6c3.5-3.8,5.4-5.8,5-8c-0.7-3.5-6.9-3.7-7-6c-0.1-2.6,7.4-6.5,12-4c2,1.1,2.9,3.2,4,6c1,2.4,2.2,5.4,1,8
		c-0.8,1.9-2.4,2.4-5,4c0,0-2.8,1.7-9,7c-6.6,5.6-9.3,13-10,15c-1.2,3.3-1.5,7.6-2,16c-0.4,6.2-1.1,17.8,0,18c0.8,0.1,1.3-6.1,5-14
		c1.3-2.8,4.9-10.3,12-16c9.9-8.1,22.4-9.4,23-8c0.6,1.5-12.3,4.5-21,17c-6.1,8.8-7.2,17.9-7,18s1.4-6.9,7-12c5-4.6,11.5-5.9,12-5
		s-4.6,3.1-8,9c-2.5,4.3-3,8.7-3,12c2.7-5.4,5.7-7.3,8-8c2.2-0.7,3.3-0.2,7-1c3.6-0.8,6.2-2.1,8-3c5.5-2.8,7.4-5.4,11-8
		c4-2.9,4.5-1.8,20-7c11.1-3.7,13.7-5.3,18-4c3.9,1.2,6.5,4,8,6c0.7,2.7,1.3,5.3,2,8c-2.8,0.1-7,0.3-12,1c-7.2,1-17.5,2.4-29,8
		c-5.2,2.5-8.9,4.3-13,8c-6.3,5.6-9.2,11.7-11,11c-1.9-0.7,0.9-7.5-3-12c-0.5-0.5-2.3-2.9-5-3c-4.4-0.2-8.6,5.9-9,11
		c-0.2,2.3,0.4,4.6,1,7c0.5,1.8,1,3.2,2,6c1.3,3.6,1.7,4.2,2,6c0.4,2.4,0.1,4.4,0,5c-0.6,3.9-2.8,6.7-4,8c-0.6,1.3-1.4,3.5-1,6
		c0.4,2.8,2,4.8,3,6c2.2,2.6,4.2,3.4,4,4c-0.3,0.6-2.8-0.4-7,0c-1.8,0.2-2.9,0.3-4,1c-1.9,1.2-2.5,3.2-3,5c-0.9,3.1-2,7.1-3,12
		c1.1,1.9,2.7,4.7,5,8c4.8,7,8.5,10.3,8,11c-0.6,0.7-5.3-1.8-9-5c-3.2-2.8-8.8-8.9-11-21c8.5-12.2,8.7-18,7-21c-0.6-1.1-1.6-2.2-3-5
		c-1.8-3.7-1.8-5.4-3-9c-0.9-2.8-1.4-3.1-5-10c-2.6-4.9-4.6-9.1-5-10c-1.7-3.7-4.1-11.9,1-28c-2.1-0.6-5.6-2-9-5
		c-0.9-0.8-4.2-3.7-6-8C211.4,75.2,216.4,61.6,220.7,61.3z"/>
	<path fill="#5DBFD9" d="M305.7,117.3c0,0.2,1.1,0.2,3,1c1.1,0.4,1.3,0.7,2,1c1.4,0.6,1.9,0.4,7,1c0.7,0.1,1.9,0.2,3,1
		c0.4,0.3,0.8,0.5,1,1c0.7,1.5-0.6,3.4-1,4s-1,1.3-2,2c-0.8,0.6-2.5,1.6-6,2c-3.7,0.4-5.9-0.3-6,0s3.7,2.5,8,2c1.6-0.2,2.8-0.7,4,0
		c1.4,0.8,1.9,2.5,2,3c0.2,0.7,0.5,1.9,0,3c-0.6,1.1-1.4,0.9-2,2c-0.6,1.2-0.1,2.7,0,3c0.6,1.8,2.2,2.6,3,3c2.9,1.5,5.9,0.9,10,0
		c3.6-0.8,6.1-1.8,6-2c-0.1-0.3-4.9,1.6-10,0c-0.6-0.2-3-1-3-2c0-0.5,0.6-0.7,2-2c1-0.9,1.6-1.4,2-2c1-1.4,0.4-3.3,0-5
		c-1.4-6.2,0.7-7-1-11c-0.5-1.1-1.5-3.5-4-5c-1-0.6-2.3-1.1-8-1C310.6,116.4,305.7,116.8,305.7,117.3z"/>
	<path fill="#5DBFD9" d="M320.7,145.3c-1.5,0.3-2.7,1.5-5,4c-1.1,1.2-1.7,1.9-6,8c-1.8,2.5-2.6,3.7-3,5c-0.8,2.7-0.2,5.1,0,6
		c0.3,1.3,0.6,1.7,3,6c2.3,4.2,2.7,5.1,3,5c0.6-0.2-0.4-5.4-1-8c-0.7-2.9-1-3.4-1-5c0.1-2.9,1.4-5.1,2-6c2-3.2,3.4-2.3,6-6
		c0.9-1.3,1.5-2.5,3-3c1.3-0.4,2.5-0.1,3,0c2.2,0.6,2.4,1.8,4,2c2,0.2,3-1.5,4-1c1.3,0.7,0.5,3.9,1,4c0.6,0.1,1.5-4.3,2-7
		c0.2-1.3,0.2-1.7,0-2c-0.9-1.3-3.8,0.6-8,0C323.9,146.8,323.3,144.8,320.7,145.3z"/>
	<path fill="#5DBFD9" d="M305.7,193.3c0.2-0.9-2.8-1.6-5-5c-1.2-1.9-1.3-3.4-2-7c-0.7-4-2.4-12.1-3-12c-0.5,0-1.5,5,0,10
		c0.6,2,1.5,3.7,1,6c-0.1,0.5-0.6,2.6-2,3c-0.6,0.2-1.8,0.2-5-3c-4-4.1-3.5-5.5-7-9c-2.4-2.4-3.5-2.6-5-5c-0.9-1.5-0.9-2.2-2-5
		c-1.2-3.1-3.4-8.2-4-8c-0.1,0-0.3,0.4,1,9c0.6,4.2,0.8,5.1,1,6c0.8,3.6,1.8,6.3,2,7c2,5.5,3,5.2,4,9c1.1,4-0.2,4.2,1,8
		c1.3,4.4,3.1,4.9,3,8s-1.8,5.7-2,6c-1.3,1.9-2.2,2.1-3,4c-0.9,2.2-0.2,3.5-1,4c-1,0.6-2.8-1-6-3s-8.4-4.8-9-4c-0.4,0.5,1.3,2.6,4,6
		c4.4,5.4,6.5,7,6,8c-0.6,1.2-3.8-0.5-9,0c-0.8,0.1-6.7,0.7-12,5c-3,2.4-5.7,6-5,7c0.9,1.2,5.9-3.5,12-2c3.3,0.8,3.5,2.6,7,3
		c2.6,0.3,3.2-0.6,8-1c3.1-0.3,4.6-0.4,6,0c3.5,0.9,4.6,3.8,8,8c5,6.1,9.8,9.2,10,9c0.3-0.3-11.2-8.5-10-17c0.3-2.5,1.9-5.6,4-6
		c0.9-0.2,1.7,0.1,6,3c4.8,3.2,4.7,3.5,6,4c4,1.4,9.3,0.3,10-2c0.5-1.7-1.9-2.6-3-7c-0.8-3,0-3.9-1-5c-1.6-1.8-3.9-0.3-8-2
		c-1.6-0.7-3.2-1.4-4-3c-0.4-0.8-0.6-1.9,1-7c1.5-4.8,1.9-4.5,2-6c0.3-4.6-3.3-8.3-4-9c-2.6-2.7-5.2-3.3-5-4
		C292.1,192.7,305.2,195.2,305.7,193.3z"/>
	<path fill="#5DBFD9" d="M207.7,226.3c15.9,6.8,28.8,12.7,38,17c13.5,6.3,11.7,5.8,21,10c9.7,4.4,17.9,7.8,29,14
		c4.8,2.7,12.5,6.9,12,8c-0.2,0.5-2.3,0.2-20-5c-9.8-2.9-12-3.6-20-6c-9.7-2.8-14.8-4.3-22-6c-7.4-1.7-11.1-2.6-15-3
		c-14.4-1.6-24.2,1.4-25-1c-0.5-1.5,3.1-2.6,5-7c1.7-3.9,1-8,0-11"/>
	<path fill="#5DBFD9" d="M200.7,269.3c1.1-0.6,2.9-1.4,5-2c8-2.4,14.4-0.4,25,2c16,3.7,21,3.7,21,5c0,2.1-13,4.3-22,5
		c-2.5,0.2-9.1,0.6-18,2c-5.6,0.9-8.5,1.6-10,4c-2.1,3.2,0.7,5.8-1,10c-2.4,5.9-10.4,6.9-10,9c0.2,1,2.2,1.6,7,2c10.3,0.9,16,0,16,0
		c12.3-2,31.3-5.1,32-3c0.5,1.6-9.1,7.5-20,11c-11.6,3.7-20.1,3.2-21,7c-0.4,1.8,1.2,3,4,7c4.5,6.4,5.7,10.5,8,15
		c2.9,5.7,9.4,15.6,25,34c-1.7,1-3.3,2-5,3c-7.4-3.8-12.1-8-15-11c-3.3-3.4-5.8-6.9-18-27c-5-8.1-6.9-11.4-8-11
		c-1.6,0.6-0.5,8.5,1,14c0.5,1.7,1.3,4.4,3,8c3,6.5,6.3,10.7,8,13c3.1,4.2,7.2,10.7,11,20c-6.3,1.3-12.7,2.7-19,4
		c-0.6-2.4-1.6-5.8-3-10c-1.9-6-3.4-9.6-5-14c0,0-2.4-6.6-6-18c-5-15.8-7.8-37.8-9-48c2.9-2.2,5.9-4.8,9-8
		C193.5,284.2,198,275.7,200.7,269.3z"/>
	<path fill="#5DBFD9" d="M199.7,268.3c-6-3.8-10.3-7.5-13-10c-7.7-7.2-12-13.7-22-19c-1.3-0.7-5.4-2.8-6-2c-0.8,1,5.3,5.7,13,16
		c1.9,2.6,3.3,4.7,6,9c1.9,3,3.1,5.1,4,8c0.7,2.3,0.9,4.2,1,5c0.1,1.3,0.3,3.4,0,5c-0.5,2.6-2.2,3.4-9,9c-4.3,3.5-5.3,4.6-8,6
		c-2.8,1.5-4.2,2.2-6,2c-5-0.5-6.9-7.6-9-7c-1.5,0.4-1.7,4.2-2,8c-0.2,2.2,0,2.9,0,7c0,7.2-0.4,8.2-1,9c-2,2.8-5.8,3-6,3
		c-3.4,0.1-5.9-2.1-7-3c-2.5-2-9-3.7-22-7c-11.5-2.9-17.2-4.4-23-4c-5.6,0.4-10,1.8-13,3c-1.4,1.8-2.9,4.3-2,6c1.4,2.6,7.5,0.8,16,1
		c4.3,0.1,10.5,1.7,23,5c5.4,1.4,12.6,3.4,21,6c0,1.5-0.3,3.8-2,5c-0.8,0.6-2.5,1.4-9-1c-5.9-2.1-7.3-3.8-13-6c-2.2-0.8-8.3-3.2-9-2
		c-0.7,1.1,3.4,5.3,8,8c5,2.9,9.1,3.1,9,4c-0.1,1-4.8,1.3-10,2c-8,1.1-7.2,1.7-19,4c-15.7,3-20.5,2.5-22,6c-1,2.5,0.1,6,2,7
		c2.4,1.2,5.1-1.8,11-4c3.9-1.4,5.3-1.1,12-2c9.5-1.3,21.4-2.9,32-6c1.5-0.4,5.7-1.7,7,0c1.1,1.3-0.3,3.9,0,4c0.4,0.1,3-3.3,2-6
		s-5.1-3-5-4c0.1-0.9,3.5-0.1,6-2c2.6-2,1.6-4.9,4-8c1.8-2.3,3.4-2.1,7-4c6.6-3.5,6.5-7.2,13-12c4.3-3.1,8-4.2,10-5
		C175.4,299.7,185.4,291.8,199.7,268.3z"/>
	<path fill="#5DBFD9" d="M77.7,358.3c0.7-0.7,4.1,1.5,11,6c9.3,6,10.7,7.8,16,10c2.8,1.2,5.2,1.8,10,3c1,0.3,5.9,1.5,14,3
		c6.8,1.3,9,1.5,9,2c0,1-7.2,3.1-15,3c-3.1-0.1-5.2-0.5-7,1c-2.7,2.2-2.1,6.6-2,7c0.5,3.3,2.9,6.3,4,6c1.3-0.4,0-5,2-6
		c1.3-0.7,3.4,0.8,5,2c2.6,1.9,4,3.8,5,5c4.7,5.6,11.2,7.5,11,8c-0.2,0.4-4.8-2.7-8-1c-2.1,1.1-2,3.5-4,4s-4.2-1.3-5-2
		c-2.7-2.3-2.2-4.4-4-5c-2.5-0.9-4.6,2.8-7,2c-1.9-0.6-2.4-3.6-3-6c-2.1-8.9-6.6-15.2-8-17c-3.9-5.1-6.1-3.1-13-9
		C81.3,368,76.5,359.5,77.7,358.3z"/>
	<path fill="#5DBFD9" d="M159.7,398.3c4.8,6.2,9.4,10.8,13,14c5.5,4.9,9.3,7.1,11,8c3.1,1.7,5.9,3.2,10,4c4.9,0.9,8.9,0.3,11,0
		c4.1-0.6,3.9-1.3,8-2c2-0.3,6.7-1.1,12,0c3.5,0.7,3.9,1.6,8,3c9.1,3.2,16,2.2,16,3s-6.9,1.7-13,2c-2.9,0.1-5.3,0.1-7,0
		c2.6,3.2,6.6,7.5,12,12c1.7,1.4,6.5,5.2,17,11c13.5,7.5,20.2,9.3,20,10c-0.4,1.4-28.7-3.2-58-18c-9.3-4.7-16.8-9.4-22-13
		c-1.8-0.1-4.6-0.3-8-1c-6.4-1.3-12.7-3.6-27-12c-5-3-11.5-7-19-12c3-1.6,6-3.3,9-5C155.1,401,157.4,399.6,159.7,398.3z"/>
	<path fill="#5DBFD9" d="M316.7,305.3c-2-2.6-7.1,1-17,0c-7.7-0.8-12.6-3.9-13-3c-0.5,1,6.6,4.4,14,13c0.5,0.6,3.4,4,6,9
		c1.2,2.4,4.6,8.7,3,10c-0.7,0.6-1.9,0-6-2c-9-4.4-10.7-5.4-11-5c-0.6,0.7,4.9,5.4,13,15c4.7,5.6,3.8,5.1,8,10c3.7,4.3,5,5.3,6,8
		c1.9,5.1,0.3,10,0,11c-2.1,6.3-6,5.5-8,12c-1.1,3.4-0.7,5.8-3,8c-1.9,1.8-4,2.1-4,3c0.1,1.1,3.2,1.3,7,3c4.8,2.2,7.8,5.5,9,7
		c1.6,1.9,4,4.7,5,9c0.4,1.6,1.9,8-2,13c-2.9,3.7-7.2,4.6-9,5c-2.6,0.5-3.1,0.1-9,0c-8.7-0.1-8.7,0.9-11,0c-2.7-1.1-4.8-4.4-9-11
		c-2.6-4-3.3-5.9-6-9c-1.9-2.3-3.7-3.9-5-5c-2.1,0.5-5.2,1-9,1c-9.4,0-15.4-3.2-16-2c-0.5,1.1,3.4,4.9,8,7c5,2.3,7.8,1.2,10,4
		c0.7,0.8,2.1,3.1,4,3c0.5,0,0.9-0.2,1,0c0.5,0.6-2.7,4.2-3,4s1.7-4.9,4-5c1.2,0,2.1,1.1,6,7c3.7,5.6,3.5,5.4,4,6
		c4.5,5.6,9.4,7.1,9,8c-0.4,1-6.4,0-12-2c-1.7-0.6-5.9-2.2-12-6c-7.5-4.7-12.5-9.3-14-8c-0.1,0.1-0.4,1.1-1,3c-0.4,1.4-0.6,2.1-1,3
		c-0.4,1.1-0.9,1.9-1,2c-1.9,3-13.6-0.1-14,1c-0.3,0.7,4.1,3.8,15,8c6.6,2.6,15.9,6.1,29,8c5.2,0.8,15.1,1.9,27,1
		c7.2-0.5,12.1-1.6,14-2c1.3-0.3,6.4-1.5,13-4c7.3-2.8,11-4.2,13-7c3.9-5.4,2.8-12.8,2-13c-0.4-0.1-0.7,2.2-3,5c-1.1,1.3-3,3.6-6,4
		c-2.1,0.3-4.4-0.6-6-2c-4-3.6-0.4-8.4-4-16c-1.6-3.3-2.6-3.2-5-8c-0.4-0.9-2-4.1-3-8c-0.4-1.7-1.5-6.4,0-21c1-9.8,1.7-10,1-13
		c-1.5-6-5.6-9.3-4-12c0.8-1.4,2.7-2,4-2c2.8-0.1,4.6,2.4,5,2c0.7-0.6-3.9-6.6-8-15c-2.6-5.3-2.5-6.5-2-7c1.1-1,4,2,8,3
		c7.5,1.9,15.8-3.6,20-8c8.3-8.7,9.1-22.1,7-23c-1.2-0.5-2.9,3.3-11,11c-8.4,8-12.4,9.4-15,10c-4.4,1-8,0.2-9,0
		c-2.7-0.6-4.1-0.9-5-2C311.4,317.3,319.4,308.8,316.7,305.3z"/>
	<path fill="#5DBFD9" d="M317.7,201.3c2.6,2.1,3.8,4.7,6,10c1.8,4.4,3.5,8.4,4,14c0.2,2.6,0.2,4.6,0,8c-0.1,3-0.3,6.6-1,10
		c-1.7,8-6.2,14.3-7,14c-0.6-0.3,1.4-4.6,2-13c0.2-2.4,0.3-4.8,0-8c-0.2-1.6-0.8-6.1-3-11c-1.9-4.2-4.3-6.9-9-12
		c-12-12.8-15.8-15.4-15-17c1.2-2.2,10.5,0.4,16,2C315.2,199.6,316.6,200.5,317.7,201.3z"/>
	<path fill="#5DBFD9" d="M344.7,244.3c0.5-1.1,0.3-0.4,8-14c5.1-9,5.8-10.4,8-12c4.3-3.2,9.1-3.2,18-3c10.6,0.2,20.1,2.1,20,3
		c-0.1,0.7-6,0.2-17,2c-4.9,0.8-6.6,1.4-8,2c-4.8,2.1-7.7,5.3-10,8c-2.5,2.9-4.4,6.3-8,13c-5.7,10.6-5.4,11.6-5,12
		c0.7,0.7,2.3,0.4,13-5c9.3-4.7,13.9-7,18-10c5-3.6,4.2-3.9,11-9c4.6-3.4,8.5-5.9,13-8c3.3-1.6,8.6-3.7,9-3c0.4,0.8-5.7,3.6-12,10
		c-6.8,6.9-4.7,8.5-11,15c-6.6,6.8-11.4,7.6-15,15c-1.8,3.8-1.6,5.7-1,7c0.9,1.9,3,2.7,8,4c6.9,1.8,10.4,2.7,14,3
		c6.9,0.6,12.4,1,18-2c2-1.1,5-2.8,6-6c0.8-2.8-0.5-4.7-2-9c0,0-2.7-7.6-3-17c-0.2-5.2,0.5-12.8,2-13c1.7-0.2,2.6,8.8,8,24
		c4.6,12.8,9,20.5,7,22c-1,0.8-2.4-1-6-2c-6.8-1.8-10.7,2-21,4c-1.2,0.2-5.5,0.5-14,1c-11.5,0.7-13.6,0.6-19,1
		c-5.1,0.4-12.3,1.2-21,3C339.5,258.7,343.4,247.4,344.7,244.3z"/>
	<path fill="#5DBFD9" d="M428.7,220.3c-2.3,2.7,2.4,8.2,6,20c1.9,6.3,1.2,6.8,3,12c2.4,6.8,5.6,11.8,8,15c6.6,1,8.5,0,9-1
		c1-2-2.9-4.6-8-12c-3.6-5.3-5.7-9.9-8-15c-3.1-6.9-4.7-10.4-5-13c-0.4-3-0.3-6.4-2-7C430.8,219,429.4,219.4,428.7,220.3z"/>
	<path fill="#5DBFD9" d="M436.7,211.3c-1.1,3.5,0.9,6.7,5,14c5,8.9,3.9,7.7,6,11c5.5,8.7,8.9,11.2,10,12c2.8,1.9,6.5,3.7,7,3
		c0.3-0.4-0.3-1.4-6-8c-6.1-7.1-8.4-9.4-10-14c-0.8-2.3-0.2-1.8-1-4c-2.5-7-6.8-8.1-8-14c-0.3-1.3-0.4-2.9-1-3
		C438,208.2,437.1,210.1,436.7,211.3z"/>
	<path fill="#5DBFD9" d="M506.7,185.3c-1.9-1.1-3.9,1.2-10,3c-3.7,1.1-9.9,3-16,1c-3.4-1.1-5.7-3.1-10-7c-4.6-4.1-6.7-7.2-7-7
		c-0.5,0.4,4.7,8.1,8,13c3.7,5.4,4.5,6.3,6,7c1,0.5,2.2,0.8,11,1c5.1,0.1,6.4,0,7,1c0.9,1.4-0.7,3.7-3,8c-0.3,0.5,3.5-6.5-6,13
		c-5.8,11.8-6.3,12.7-6,13c1.3,1,11.8-8.9,20-21c3.2-4.8,5.5-9,7-12C509.5,189,508.2,186.2,506.7,185.3z"/>
	<path fill="#5DBFD9" d="M485.7,153.3c0.3-0.3,1.8,1.6,6,3c2.6,0.9,4.7,1.6,7,1c3-0.7,3.1-2.8,8-6c2.2-1.4,4.1-2.6,5-2
		c1,0.7,0.4,3.5-1,9c-1,4.2-1.8,5.8-1,8c0.5,1.5,1.4,2.3,1,3c-0.7,1.1-4.2,0.2-5,0C495.6,166.7,485,154.1,485.7,153.3z"/>
	<path fill="#5DBFD9" d="M516.7,107.3c-0.6,0.1-0.5,0.2-1.3,0.4c-0.6,0.1-2.6,0.5-4.7-0.4c-1.3-0.5-1.2-1-2-1c-1.1,0-1.5,0.9-3,2
		c-1.6,1.1-2.1,0.6-5,2c-1.1,0.5-3.1,1.5-3,2c0.1,0.6,2.8-0.3,6,1c0.9,0.4,2.1,0.8,3,2c0.7,1,0.9,2,1,5c0.2,4,0.2,6.1,0,7
		c-0.9,3.6-3.3,5.7-3,6s2.1-2.8,5-3c1.6-0.1,2.1,0.7,5,1c0.1,0,1.6,0.1,3,0c4.4-0.4,8.3-3.3,8-4c-0.2-0.6-3.6,1.6-6,0
		c-2.3-1.6-1.9-5.5-4-6c-0.9-0.2-1.3,0.4-2,0s-1-1.5-1-4c0-4.1,0-6.1,1-7c2.4-2.2,7.6,0.9,8,0C522,109.6,519.3,107,516.7,107.3z"/>
	<path fill="#5DBFD9" d="M177.3,547.2c-2.5-3.2-7.7-7.4-11.9-7.7c-0.4,0-0.8-0.1-1.1-0.2c-1,0.3-1.6,0.6-1.6,0.9
		c-0.1,0.8,3.6,0.9,6,4c2.1,2.8,2,6.3,2,8c-0.1,5.4-2.7,8.5-2,9c0.8,0.5,3.5-4,9-8c0.5-0.4,1.1-0.7,1.6-1.1
		C179,550.4,178.5,548.7,177.3,547.2z"/>
	<path fill="#5DBFD9" d="M234.7,451.3c-9.2-4.4-14.5-8.3-18-6c-3.7,2.4-0.9,8.6-4,20c-2,7.6-3.7,6.5-8,17c-3.3,8.2-2,8.2-8,28
		c-3.4,11.3-3.4,9.8-4,13c-0.7,3.5-1,6.9-2.6,10.5c0.1,0.6,0.2,1.1,0.3,1.6c1.4-0.4,2.8-0.8,4.3-1.1c0-0.3,0-0.7,0-1.1
		c12.8-11.5,20.4-22.2,25-30c3.1-5.2,7-12.9,16-28c2.5-4.2,4.6-7.7,6-10c1.6,0.3,4,0.7,7,1c4.2,0.4,6.3,0.2,14,0c4-0.1,7.7-0.1,15,0
		c2.6,0,4.5,0.1,5.8,0.1c-8.2-1.6-15.2-3.7-19.8-5.1C248.6,456.7,241.1,454.3,234.7,451.3z"/>
	<path fill="#5DBFD9" d="M346.7,481.3c-0.2-1.7-1-2.5-2-4c-1.9-2.9-2.3-5.6-3-10c-1.1-6.9,0.4-10.4-1-11s-3.6,2.7-6,5
		c-1,1-2.1,1.8-3.3,2.5c0.6,0,1,0.1,1.3,0.5c0.9,1.1-1.6,3.4-1,7c0.3,1.9,1.4,3,3,5c6.4,7.8,7,11.3,9,11
		C345.5,487,347,483.8,346.7,481.3z"/>
	<path fill="#5DBFD9" d="M325.3,465.7c-1,0.4-2.4,1.1-3.6,1.6c-2.5,0.5-5.2,0.7-8,1c-9.4,1-18.8,0.1-27.2-1.3
		c0.1,0.1,0.2,0.2,0.2,0.3c0.6,1.8-5.8,3.8-12,11c-1.9,2.1-1.9,2.7-8,13s-8.4,13.7-8,14c0.9,0.6,16.4-15.6,23-23c0,0,2.5-2.8,10-7
		c1.5-0.9,3-1.6,4-1c0.9,0.5,1.1,1.9,1,7c-0.1,3.9-0.2,7,0,7c0.4,0.1-0.2-12.8,6-16c2.9-1.5,6.7-0.5,9,1c1.2,0.8,2.5,2.1,5,9
		c2.4,6.6,2.7,9.3,5,15c2.1,5.1,3.2,7.7,5,8c2.7,0.5,3.8-3.4,11-7c1.8-0.9,3-1.3,3-2c-0.1-1.4-6.1-0.4-11-4c-1.3-0.9-1.4-1.4-6-9
		c-4.6-7.5-5.2-8.4-5-10c0.5-3.2,3.8-5.4,6-6.7c-0.9,0.2-1.9,0.5-2.9,0.6C322.8,466.8,324,466.2,325.3,465.7z"/>
	<path fill="#5DBFD9" d="M325.3,465.7c0.8-0.3,1.4-0.5,1.4-0.4c0.1,0.2-0.8,0.6-2,1.3c2.4-0.6,4.6-1.5,6.7-2.8
		C329.9,463.8,327.5,464.7,325.3,465.7z"/>
	<path fill="#5DBFD9" d="M299.7,530.3c1.4-8.5,1.9-15.5,2-20c4.2,4.8,8.5,7,11,8c2.7,1.1,5.2,1.6,7,2c2.8,0.6,5.8,1.2,9,1
		c6.8-0.4,10-4.1,11-3c1.1,1.2-1.7,7.4-7,10c-2.3,1.1-3.3,0.7-10,1c-11.9,0.6-14.7,2.2-16,3c-3.4,2.3-4.7,5.2-5,6
		c-0.9,2.4-1.8,6.7,0,8c1.9,1.4,4.6-1.8,10-2c2.7-0.1,4.6,0.7,8,2c4.5,1.8,6.3,3.3,17,10c5.1,3.2,7,4.3,10,5c4.1,0.9,6.8,0.3,7,1
		c0.3,1.1-5.9,5-13,5c-6.5,0-11.9-3.3-18-7c-4.8-2.9-4.7-3.7-8-5c-6.9-2.8-14.6-2.6-15-1c-0.3,1.1,2.9,2.9,5,4
		c5.6,3.1,10.1,3.3,10,4s-4.9,1.6-10,1c-3.5-0.4-5.4-1.2-7,0c-0.5,0.4-0.5,0.6-2,4c-1.5,3.3-1.9,3.8-2,5c-0.1,1.9,0.6,3.3,1,4
		c2.3,4.4,8,6.3,10,7c6.2,2.2,11.9,5.5,18,8c7,2.8,21.4,8.9,21,10c-0.1,0.4-2.2-0.1-19-4c-16.2-3.8-16.9-3.9-19-5
		c-5.8-3-8.6-6.2-12-5c-2.5,0.9-4.5,3.9-4,6c0.6,2.1,3.6,2.3,9,5c2.3,1.1,3,1.7,8,5c16.9,11.1,30.6,18.8,30,20s-15.8-4.9-27-10
		c-13.8-6.3-19.8-10.4-21-9c-0.7,0.8,0.3,3.2,15,20c16.4,18.7,24.8,28.3,35,36c5.8,4.4,10.4,7.2,10,8c-0.7,1.2-12.7-3.4-23-9
		c-8.7-4.8-13.1-7.1-18-12c-3.9-3.9-14.5-15.6-22-21c-0.6-0.5-2.1-1.5-3-1c-1.3,0.8,0.1,4.7,1,10c1.5,8.9-0.6,10.3,1,17
		c1.3,5.3,2.6,4.4,5,11c2.2,6.1,1.5,7.9,4,20c2.2,10.5,3.3,12.2,5,13c2.1,1,3.5-0.1,11-1c6.2-0.8,9.3-1.2,10,0
		c1.6,2.8-10,12.4-12,14c-9.2,7.6-12.4,7.5-19,14s-11,14.1-10,15c0.8,0.7,4.4-3.2,13-8c6.5-3.6,7.6-3.1,15-7c8.2-4.4,11.5-7.5,12-7
		c0.8,0.9-7.4,10.6-18,19c-4.7,3.7-5.8,4-12,9c-7.9,6.4-10.9,9.9-13,13c-3.1,4.5-6.3,10.9-5,12c0.8,0.6,2.5-0.9,8-4
		c4-2.3,6.8-3.6,12-6c6.7-3.1,12.5-5.8,13-5c0.7,1.1-8,6.6-19,18c-12.7,13.2-13.2,18.3-13,21c0.3,4.3,2.4,5.8,2,11
		c-0.4,4.5-2.2,6-5,12c-2.9,6.2-6.6,14-5,22c1,5,2.8,4.3,5,11c2.3,7.2,0.7,9.6,2,19c1,6.7,3.6,17.9,7,18c1.8,0.1,2.6-2.9,9-8
		c2.4-1.9,3.2-2.3,4-2c2.2,0.7,0.9,6,4,10c0.8,1.1,2.1,2.2,7,4c10.1,3.8,16.9,3.6,17,5c0.1,1.3-5.9,1.8-13,7c-1.2,0.9-5.7,4.1-5,6
		c0.4,1,2.1,0.8,5,2c2.8,1.1,2.9,2.1,6,4c5.4,3.4,7.4,2.1,10,5c2.1,2.3,1.2,3.6,3,6c0.9,1.1,3.2,3.7,13,5c6,0.8,11.2,1.5,18,0
		c12.3-2.7,18.3-10.3,21-8c1.4,1.2,0.9,4.1,0,6c-1.4,2.9-4.7,4.5-13,6c-13.2,2.5-23.9,2.2-28,2c-5.5-0.2-10-0.7-13-1
		c-3.1-2.5-7.8-5.6-14-8c-4.6-1.7-8.7-2.6-12-3c-6.9-7.1-13.2-11.9-18-15c-9.1-6-17.1-9.2-18-16c-0.3-2.4,0.4-4.6,1-6
		c-1.8-4.7-3.4-9.7-5-15c-4.5-15.3-6.8-29.5-8-42c0.9-2.3,2.3-5.7,4-10c5-12.3,6.4-15.1,8-20c1.7-5.3,2.3-8.5,4-18
		c3.4-18.5,5.1-27.7,7-36c3.2-13.7,4.5-15.2,8-31c1.9-8.4,3.2-15.4,4-20c-3.7-19.3-7.3-38.7-11-58c0.7-6.1,1.8-15.1,4-26
		c3.2-16,7-28.3,10-38C293.9,550.2,297.1,545.6,299.7,530.3z"/>
	<path fill="#5DBFD9" d="M177.7,750.3c6.4-4,11.5-7.5,15-10c7.6-5.4,11.6-8.8,19-12c4.4-1.9,7.4-2.6,9-3c4.5-1,5.3-0.4,12-1
		c6.3-0.6,7.6-1.3,15-2c5.7-0.5,8.8-0.8,9,0c0.5,1.5-10.2,6-15,8c-7.4,3.1-8.3,2.9-16,6c-8.2,3.3-13.1,5.2-19,9
		c-5.6,3.6-5.2,4.4-12,9c-7,4.7-15.1,10.2-18,8C175.8,761.6,174.4,759.4,177.7,750.3z"/>
	<path fill="#5DBFD9" d="M174.7,775.3c3.9,0.1,9.8-0.3,16-3c6-2.6,6.8-5,16-11c5.7-3.7,9.4-5.5,17-9c5.2-2.5,9.5-4.2,15-4
		c1.3,0,6.6,0.2,7,2s-4,4-13,9c-7.4,4.1-14.6,8.7-22,13c-11.9,7-14.7,8.8-15,12c-0.3,2.8,1.8,5.5,6,11c1.1,1.4,3.1,3.9,10,11
		c6,6.1,7.4,7.3,7,8c-0.9,1.6-9.5-0.7-16-4c-3.5-1.8-7-4-7-4c-5.7-3.6-7.3-5.6-9-5c-1.9,0.6-2.6,3.8-3,9c-1.3,16.9,3.6,19.6,3,34
		c-0.2,4.1-0.8,8.8,2,11c1.7,1.3,3.6,0.8,6,1c5.7,0.4,8.7,3.6,14,7c9.3,6,20,8.7,28,9c6,0.2,11.6-0.9,12-1c2.9-0.6,5.2-1.4,7-2
		c1.3,5.3,2.7,10.7,4,16c-6,5.9-11.7,8.1-15,9c-3.7,1-7.4,1-15,1c-8.2,0-12.3,0-16-1c-7.7-2.1-10.8-5.8-14-4c-2.8,1.5-3,5.8-3,6
		c-0.1,3.5,2.1,5,5,10c4,7,2.4,9.1,5,11c4.2,3,11.6-0.4,19-4c13.3-6.4,21-14.1,22-13c0.6,0.7-1.7,4.1-5,9c-1.4,2.1-2.1,3.1-3,4
		c-3,3-4.8,2.4-8,5c-1.1,0.9-5.4,4.3-5,8c0.2,2,1.8,3.4,4,5c7.2,5.1,14.5,6.9,15,7c8.4,2,16.6,4.9,25,7c17.8,4.6,20.1,5.3,20,6
		c-0.2,1.4-10.2,1.6-18,1c-6-0.4-14.6-1.6-25-5c-8.4-2.7-9.3-4.1-18-7c-8.2-2.8-15.3-4.2-20-5c-1-6-2-12-3-18c-6-1.3-12-2.7-18-4
		c-0.2-4.4-0.5-10.2-1-17c-0.8-10.2-2.2-24.3-5-41c-2.9-17.5-4.1-18.7-6-30C174.8,813.7,173.1,796.8,174.7,775.3z"/>
	<path fill="#5DBFD9" d="M171.7,569.3c0.1,0,0.5,0.4,3,7c5.4,14.3,5.8,17.4,8,18c5,1.3,10.9-13.1,14-12c4.2,1.5-1.6,29.3-2,31
		c-3.4,15.9-6.8,22.1-6,35c0.4,6.8,1.4,6.4,2,13c2,22.5-8.2,43.6-11,43c-1.2-0.2-1.2-7.2-1-21c0.1-13.3,0.8-22.7,1-27
		c0.4-8.1,1.6-30.4-2-55C175.2,584,170.9,569.5,171.7,569.3z"/>
	<path fill="#5DBFD9" d="M777.9,321.3c-1.6,0.3-0.3,5.9-4,9c-2.1,1.7-4.7,1.9-6,2c-5,0.3-7.4-2.5-10-1c-0.9,0.5-2.2,1.8-2,3
		c0.4,2.8,8.4,2.1,11,7c0.6,1.2,0.2,1.3,1,3c1.9,3.9,5.3,5.1,5,6c-0.4,1-4.6-1.1-8,1c-2.2,1.4-1.9,3.3-4,4c-2,0.7-4.6-0.4-6-2
		c-1.3-1.5-0.8-2.7-2-7c-0.8-3-1.6-5.8-3-6c-1.5-0.2-2.9,2.7-3,3c-1.2,2.5-0.2,3.7-1,6c-0.9,2.6-3.6,5.2-6,5c-2.8-0.3-4.9-4.7-6-7
		c-1.2-2.6-1.4-4.4-3-5s-2.6,0.7-4,0c-1.5-0.7-2.4-3.1-2-5c0.7-3.4,4.9-3.1,9-8c1.2-1.4,4-4.7,3-7c-1.2-2.8-7.6-3.2-12-1
		c-2.1,1.1-5.2,3.5-5,6c0.1,1.4,1.1,1.7,1,3c-0.3,2.5-4.7,3.9-5,4c-3,0.9-4-0.2-6,1c-1.5,0.9-2.3,2.4-3,4c-1.6,3.4-0.7,4.7-2,6
		c-1.9,1.8-5.8,1.1-8,0c-0.4-0.2-4.5-2.2-5-6c-0.4-2.8,1.5-3.5,2-7c0.6-4.6-1.8-9.8-4-10c-2-0.1-4,3.9-5,6c-0.6,1.2-1.5,3.2-2,6
		c-0.5,2.9,0,4.2-1,5s-2.1,0-5,0c-3.6,0.1-3.9,1.4-6,1c-3.2-0.7-5.2-4.4-6-6c-1-2-1.7-3.2-2-5c-0.3-1.4-0.2-2.4-1-3s-2.2-0.4-3,0
		c-1.6,0.7-2.1,2.3-3,4c-1.5,2.8-2.1,2.2-5,6c-3,4-4.6,6.1-4,8c0.6,2,3,3.3,6,5c0.9,0.5,1.6,0.8,2,1c1.2,0.5,3.1,1.3,6,2
		c3.4,0.8,5.1,1.2,6,1c4.1-1,3.8-6.7,8-8c2.3-0.7,4.7,0.4,6,1c2.5,1.2,3,2.5,6,5c1,0.8,3.2,2.7,6,4c5.9,2.8,8.5,0.3,12,3
		c3,2.4,3.2,6.1,5,6c1.1-0.1,1.2-1.6,3-3c2.1-1.6,5.5-2.1,8-1c3.4,1.5,4.6,5.5,5,7c0.9,3.2,0.2,5,2,7c0.9,1.1,2,1.5,3,2
		c3.9,1.7,8.4,1.1,9,1c1-0.2,2.3-0.5,4,0c0.8,0.2,1.5,0.4,2,1c1.1,1.4-0.3,3.1,0,6c0.3,2.5,1.6,2.7,2,5c0.5,2.8-1,5.3-2,7
		c-2.8,4.6-5.8,5.2-10,9c-5.4,4.8-8.8,11.2-8,12c0.9,0.8,6.3-4.5,15-10c8.1-5.1,15.6-8.2,21-10c-2-5-4-10-6-15c0.2-4.8,1-6.8,2-7
		s1.7,1.2,4,3c0.7,0.5,6.2,4.7,9,3c1.4-0.9,1.7-2.9,2-5c0.5-3.5-0.7-4.3,0-6c1.4-3.3,6.6-1.9,8-5c1.1-2.3-0.7-5.5-2-8
		c-1.6-2.9-2.6-3-3-5c-0.6-2.6,0.8-3.4,1-7c0.2-3.8-1.2-3.9-1-7c0.3-4.9,4-5.7,4-10C782,324.6,779.3,321.1,777.9,321.3z"/>
	<path fill="#5DBFD9" d="M685.9,378.3c-0.3,0.2-0.8,0-3-1c-2-0.9-2.5-1.2-3-1c-0.7,0.3-0.9,1.3-1,2c-0.2,1-0.3,3.2,1,6
		c-0.4,0.4-1.7,1.3-3,1c-0.5-0.1-0.8-0.4-2-2c-2.5-3.3-2.8-4.1-3-5c-0.2-1-0.3-1.5,0-2c0.7-1.5,2.9-0.8,7-2c2.3-0.7,2.8-1.3,4-1
		c1.5,0.4,2.6,1.7,3,3C686,376.5,686.5,377.9,685.9,378.3z"/>
	<path fill="#5DBFD9" d="M678.9,397.3c0.7-0.6,2.2,0.7,3,0s0.1-2.8,0-3c-0.5-1.3-1.2-1.7-1-2c0.3-0.5,3.7-0.1,5,2
		c1.1,1.7-0.1,2.9,1,5c1.1,2,3.2,2.7,3,3s-2.1-0.8-5-1c-2.8-0.1-3.8,0.8-5,0C678.6,400.4,678.2,397.9,678.9,397.3z"/>
	<path fill="#5DBFD9" d="M707.9,418.3c-0.3-0.5,5.3-3.5,10-9c4.8-5.7,6.2-11.3,7-11c0.7,0.3-0.3,5.3-1,8c-1,4-1.7,4.4-2,7
		c-0.4,4.1,0.8,6.6,0,7c-1,0.5-2.5-3.2-6-4C712,415.3,708.2,418.7,707.9,418.3z"/>
	<path fill="#5DBFD9" d="M723.9,439.3c0.8,1.8-0.3,4-6,12c-4.8,6.7-5.9,7.9-8,11c-2,3-2.9,5-7,14c-7.7,17-9.4,21.2-10,21
		c-0.5-0.2,0-3.2,2-12c4.4-19.2,9.4-36.4,11-42c-0.2-3.1-0.3-4,0-5c0.3-1.1,0.9-1.7,2-3c5-5.8,5.5-7.2,8-8c0.6-0.2,2.4-0.7,3,0
		c1,1.2-2.8,4.2-2,7C717.8,437.2,722.7,436.4,723.9,439.3z"/>
	<path fill="#5DBFD9" d="M777.9,415.3L777.9,415.3c-6.8,2.4-12.2,5-16,7c-6.1,3.2-10.3,5.5-15,10c-2.2,2.1-6.1,5.9-9,12
		c-3.1,6.5-3.7,12.2-4,16c-0.4,4-0.2,6.8,0,9c0.2,2.8,0.7,8.9,2,9c1.8,0.2,3.7-10.2,5-10c0.5,0.1,0.6,1.7,1,8c0.4,6.7,0.6,7.9,1,8
		c0.3,0.1,1-0.5,4-9c3-8.4,3.4-10.9,6-14c2-2.3,5-4.7,6-4c1.2,0.8-1.6,5.5-5,16c-2.5,7.8-1.6,7.2-4,14c-2.9,8.3-4.2,9.2-4,13
		c0.1,1.2,0.4,4.1,1,10c0.3,2.7,0.4,3.8,0,4c-1.1,0.4-4.7-5.5-7-10c-1.7-3.3-4.4-9.4-7-21c-1.7-7.5-2.8-12.9-3-20
		c-0.1-3.1-0.4-16,4-26c9.4-21.4,38.5-26.5,42-27"/>
	<path fill="#5DBFD9" d="M792.9,426.3c-0.5,0.9,3,2.3,9,8c0.8,0.8,2.7,2.5,4,2c0.6-0.2,0.6-0.7,1-1c2.1-1.6,11.6,7.7,14,10
		c0,0,6.1,5.8,15,13c8.4,6.8,21.6,15.4,24,13c1-1-1-3.1-3-11c-2-8-0.9-9.6-3-12c-1.3-1.4-2.4-1.7-15-4c-7.9-1.4-11.1-2-15-4
		c-2.7-1.4-4.7-2.9-6-4c3.5,1,8.7,2.3,15,3c2.4,0.3,11.7,1.3,12,0c0.3-1.1-5.7-3.7-11-5c-1.9-0.4-1.3-0.2-6-1c-7-1.3-7.7-1.8-11-2
		c-4.4-0.2-6.9,0.5-7,0s2.7-1.7,9-4c11.7-4.3,15.1-5.3,15-6c0-0.2-0.4-0.5-12,0c-8.1,0.4-10.3,0.6-13,2c-2.9,1.5-4.9,3.5-6,5
		C795.3,425.7,793.3,425.7,792.9,426.3z"/>
	<path fill="#5DBFD9" d="M764.9,442.3c3,0.4,5.4,1.6,10,4c3.7,1.9,6.2,3.7,8,5c2.8,2,4.3,3.1,6,5c2.5,2.8,3.7,5.4,4,6
		c0.6,1.3,1.8,4.2,2,8c0,0.7,0.4,6.6-1,7c-1.2,0.3-2.6-3.3-6-9c-3.8-6.4-9.1-13.5-10-13c-0.7,0.4,1,4.6,3,10c1.4,3.6,2,5.4,3,7
		c1.2,2,1.7,2.2,6,8c2,2.7,2.6,3.6,3,5c0.3,1,0.4,2.1,0,6c-0.6,5.4-0.9,8.1-2,11c-1.3,3.5-2.7,5.1-2,6c1,1.2,4.6,0.1,5,0
		c1.9-0.6,2.3-1.3,3-1c1.7,0.7,1.1,5.8,1,7c-0.4,4-1.5,7-3,11c-3.3,8.6-4.1,9.2-5,13c-1,4.1-1,7.4-1,10c0,4,0.1,13,5,22
		c1.7,3.2,2.5,3.4,7,11c3.9,6.6,4.1,7.7,4,9c-0.4,3.4-3.4,6.8-4,11c-0.1,0.5-0.1,1.2,0,2c0.3,2.1,1.6,3.5,2,4
		c1.8,2.1,8.6,10.9,18,23c1.4,2.5,1.8,4.6,2,6c0.7,5.5-2.1,7.4-2,14c0.1,3.4,0.9,5.6,0,6c-1,0.5-2.9-1.8-4-3c-8.2-9.5-13-17.4-14-17
		c-0.9,0.4,3.1,6.2,2,14c-0.3,2-1,4.7,0,8c0.4,1.4,1.1,2.7,2,4c3.8,5.5,10.5,9.2,12,10c11,6,16.5,9,24,9c4.1,0,7-0.9,11-2
		c13.1-3.8,13.6-9,24-11c6.2-1.2,9.3,0,13-3c0.3-0.2,5.4-4.5,4-9c-0.5-1.8-2.1-3.5-4-4c-2.3-0.6-3.4,1-7,2c-0.3,0.1-7.9,2-12-2
		c-1.3-1.3-2.7-3.6-2-5c0.8-1.5,3.3-0.2,10-1c2.9-0.4,4.7-0.9,7,0c1.1,0.4,2,1.1,3,2c3.9,3.7,8,10.8,6,13c-1,1.1-3,0.4-6,0
		c-3.6-0.5-8.1,0.3-17,2c-15.3,2.8-23,5-23,5c-2.4,0.7-4.3,1.3-7,1c-6.5-0.6-10.8-5.6-12-7c-4.2-4.9-5.2-10.3-7-21
		c-0.9-5.4-1.3-10-2-19c-0.2-2.9-0.7-9.2-1-15c-0.3-6.5-1.2-26.5,2-49c0.6-4,1.6-10.7,2-20c0.2-6.3,0-11,0-12
		c-0.5-10.5-1.9-12.5-3-22c-1.8-15.7,1.1-20.8-2-38c-0.4-2.1-0.8-3.9-1-5c2,0.5,4.7,1.6,7,4c2.1,2.2,2.6,4.3,4,8c0.5,1.4,3,8.2,6,13
		c3.4,5.6,8.7,10.8,10,10c0.9-0.5-0.8-3.5-7-20c-2.8-7.5-3.5-9.6-6-12c-2.4-2.3-4.6-3.1-9-7c-2.2-2-3.9-3.8-5-5c-0.7-1.2-1.6-3-3-5
		c-2-2.9-7.1-10.4-16-15c-10.7-5.5-21.2-3.9-27-3c-8.5,1.3-14,4.3-17,6c-7.3,4.1-9.3,7.5-10,9c-1.9,4-2.1,8.6-1,9
		c1.3,0.5,2.9-5.6,9-9C758.5,441.8,763.2,442.1,764.9,442.3z"/>
	<path fill="#5DBFD9" d="M768.9,453.3L768.9,453.3c0.2,2.5,0.5,6,1,10c0.3,2.9,1,8.2,2,14s2,11.2,4,17c1.7,5,4.9,12.2,11,20
		c1-3,2-6,3-9c-2-2-4.9-5.3-7-10c-2.4-5.2-1.3-6.7-4-17c-2.5-9.5-3.5-8.8-4-14c-0.3-2.7-0.2-5.6-2-9c-1.2-2.3-2.8-4-4-5"/>
	<path fill="#5DBFD9" d="M764.9,464.3c0.4-1.4,0.8-3,1-3c0.5,0.1-2.1,14-5,34c-4.2,28.6-3.3,29.5-6,36c-1.2,3-4.4,9.9-7,20
		c-1,3.8-1.6,6.9-2,9c2.9-3.4,6.3-7.4,10-12c2.1-2.6,4.1-5.2,6-9c1-2,1.6-3.8,2-5c1.8-9.5,3.3-20.2,4-32c1-15.8,0.3-30-1-42"/>
	<path fill="#5DBFD9" d="M736.4,620.8c1.3,1.2,3.1,2.8,5,5c2.1,2.5,2.6,3.5,4,4c3.2,1.1,6.2-1.9,7-1c0.7,0.8-1.2,3.5-3.5,7.5
		c-0.3,0.5-5.9,10.3-5,11s8.2-8,9-9c3.5-4.1,1.9-2.9,6-8c2.8-3.5,4.3-5,4-7c-0.2-1.5-1.2-2.4-3-4c-1.7-1.5-5.1-4.5-10-5
		c-3.5-0.3-3.5,1-8,1c-5.3,0-8.5-1.9-9-1c-0.2,0.4,0.1,1.4,3,4"/>
	<path fill="#5DBFD9" d="M786.9,561.3c-1.1-0.3-4.3,6.2-6,11c-3.6,10-3.1,18-4,18c-0.6,0-0.7-3.6-2-10c-0.5-2.4-0.7-2.8-4-15
		c-2.2-8.1-2.7-10-3-10c-0.7,0.1,0.9,13.7,1,27c0,2.1,0,5.2-1,9c-1.2,4.4-2.2,4.5-3,8c-0.9,3.9-0.2,6.9,1,13c0.8,3.9,1.8,9,3,9
		c1.1,0,1.3-5,3-11c2.2-7.5,5.2-11,8-16C788.3,579.4,788.7,561.8,786.9,561.3z"/>
	<path fill="#5DBFD9" d="M684.9,567.3c1.2-0.2,1.8,4.6,6,10c3,3.8,6.2,5.9,8,7c1.5,0.9,4.8,2.9,13,5c9.9,2.5,16,2.5,16,3
		s-6.7,0.3-20,0c-8.3-0.2-13.4-0.4-17-4c-1.3-1.3-2.6-3.2-3-3c-0.5,0.3,0.7,3.7,2,6c1,1.8,3.9,5.9,13,9c13.5,4.6,29.1,2.8,35,2
		c-0.2,1.2-0.8,2.7-2,4c-2.9,3.1-7.8,2.6-14,2c-20.5-2-19.3-1.4-21-2c-8.8-2.8-15-7.9-19-12c-0.6-3.8,0.2-6.4,1-8
		c1.3-2.5,2.7-2.9,3-5c0.4-2.5-1.4-3.3-2-7C683.4,571.1,684,567.5,684.9,567.3z"/>
	<path fill="#5DBFD9" d="M729.9,466.3c-2-0.1-4.2,12.6-5,17c-1.5,8.3-1.8,15-2,21c-0.3,6.8-0.4,10.2,0,15c0.6,7.2,1.7,8.4,2,15
		c0.4,8.3-1,12.7,0,13c1.2,0.3,4.3-5.2,6-11c2-7,1.1-11.9,2-12c1.1-0.1,3.1,7.7,4,13c0.7,3.9,0.9,6.9,1,9c0.2,3.8,0.4,6,0,9
		c-0.5,3.9-1.3,4.4-2,8c-0.8,4.1-0.5,7.2,0,12c0.2,2.1,1.3,13,3,13c0.7,0,1.4-1.7,3-10c3.7-19.6,5.6-29.5,3-38c-0.3-1-1.5-4.8-2-10
		c-0.3-3.7-0.1-6.1,0-7c0.5-4.1,1.6-6.2,2-8c1.4-6-4.3-11.3-8-17C727.4,483.4,732.3,466.4,729.9,466.3z"/>
	<path fill="#5DBFD9" d="M918.9,559.3c1.1,2.7-0.3,3.3,1,7c0.4,1.1,1.7,4.6,5,7c3.1,2.2,6,2.1,6,3c0,0.7-1.7,1-7,3
		c-3.2,1.2-4,1.6-4,2c0.1,1,5.1,0,8,3c1.1,1.2,2,3.1,2,5c0,2.4-1.4,3.1-1,5c0.5,2.4,3.3,3.1,3,4s-3.4,1.4-5,0c-2.1-1.9,0.2-5.5-2-8
		c-1.1-1.3-2-0.7-5-2c-5.2-2.2-6.5-5.6-8-5c-1.2,0.5-1.4,3.3-1,9c0.6,8.3,1.6,10.2,2,15c0.5,5.4,0.3,15.2-2,25c-0.3,1.3-1.5,6.2,0,7
		c1.1,0.6,2.8-1.6,5-1c1.7,0.5,1.7,2.2,3,3c3.9,2.4,13-7,14-6c0.6,0.6-2.1,4.3-4,7c-4,5.6-7,10.1-9,13c-1.9,0.7-6.4,1.9-11,0
		c-1.2-0.5-2.9-1.2-4-3c-1.7-2.8-0.5-6.4,0-8c0.2-0.6,0.1-7.1,0-20c0-4-0.4-10.1-1-22c-0.4-6.9-1.1-20.5,0-33c0.5-6,1.3-9.8,4-13
		c1.8-2.1,4.5-4.1,4-5c-0.3-0.5-1.8-0.5-2,0C909.5,552.4,916.7,553.9,918.9,559.3z"/>
	<path fill="#5DBFD9" d="M802.9,636.3c-1.8-4.5-4.4-8.2-7-12c-1.9-2.7-3.4-4.5-8-10c-3.2-3.8-6.9-8.1-11-13c-5.7,6.4-7.5,12-8,16
		c-0.3,2.2-0.1,3.1,0,13c0,6.4,0,8.6,0,11c0.1,9.5,1.6,19,3,25c3,12.4,6.3,12.3,12,27c6.7,17.4,6.8,30.1,8,30c1.5-0.2,0.6-21.1,0-31
		c-0.4-6.5-0.6-9.8-1-13c-0.8-6.9-2-13.6-2-23c0-6,0.5-6.9,1-7c1.6-0.4,4.7,7.6,6,11c5.4,13.8,5.8,22.1,7,22c1.6-0.1,1.8-14.8,2-28
		C805.1,645.3,804.9,641.2,802.9,636.3z"/>
	<path fill="#5DBFD9" d="M702.9,607.3c0,4,0,10.3,0,18c0,17.9,0.1,22,0,29c-0.1,11.7-0.6,22-1,28c-0.8,12.8-2.8,31.5-8,55
		c-6.2-0.1-13.3-0.6-21-2c-4.7-0.8-9.1-1.9-13-3c7-24.4,11.9-42.5,15-54c7.1-26.2,5.8-23,8-30c0.7-2.3,2.1-7.8,5-19
		c0.8-3.2,1.8-6.9,2-12c0.2-3.7,0.3-7.1-1-11c-1.4-4.3-3.6-6.5-3-7c0.7-0.7,4.3,3.1,11,6C699.4,606.4,701.5,607,702.9,607.3z"/>
	<path fill="#5DBFD9" d="M786.9,744.3c-3,4.7-8.5,2.4-19,8c-7.5,4-9,5-9,5c-3.4,2.2-4.3,3.1-6,3c-3.6-0.2-4.8-4.3-8-4
		c-1.9,0.2-3.4,1.8-4,3c-1,1.8-0.4,3.6,0,6c1.3,7-0.2,7.6,1,12c1.3,4.7,4,7.7,5,9c6.7,8.5,3,23,4,58c0.2,9.1,0.8,19.4-1,34
		c-0.4,2.9-0.7,5.3-1,7c-1,1-2.5,2.7-4,5c-3.7,5.5-4.2,9-7,14c-2.4,4.2-4.9,6.9-7,9c-2.6,2.7-5.3,4.8-25,15c-10.5,5.4-11.8,5.9-14,6
		c-4.7,0.3-8.2-1.2-13,1c-3.2,1.5-4.6,3.4-5,4c-1.7,2.4-1.9,4.8-2,6c-4.3-2-8.7-4-13-6c-0.5-2.7-0.6-5.7,1-7s3.9-0.3,8,0
		c2.7,0.2,5.1-0.2,10-1c8.4-1.3,15-4,20-6c3.8-1.5,10.2-4.2,18-9c7.8-4.9,12.7-7.9,17-14c3.3-4.7,5.1-9.4,6-12c1.9-5.3,2.6-9.5,3-12
		c2.3-15,2.9-30.7,3-32c0.7-19.4,1.1-29.3,0-38c-0.7-5.3-1.5-11.7-4-20c-3.2-10.5-6.2-14.6-10-26c-2.7-7.9-4.2-14.6-5-19
		c6.7,0.4,14.1,0.5,22,0c15.6-1,29.1-3.8,40-7C788.7,740.4,787.9,742.9,786.9,744.3z"/>
	<path fill="#5DBFD9" d="M783.9,756.3c-1.1,0-1.8,7-2,9c-0.6,6.4-0.1,11.3,0,12c1,8.5,1.5,12.8,5,25c4.8,16.5,2.4,31.1-2,58
		c-1.5,9.5-3.3,16.5-7,24c-3,6.2-6.5,10.9-9,14c-1.2,1-2.8,2.6-4,5c-1.1,2.2-0.9,3.2-2,4c-1.7,1.2-3.9,0-8-1c-5.5-1.4-10.9-1.5-11-1
		c0,0.1,0.2,0.5,7,3c6.1,2.3,7.4,2.6,10,4c2.3,1.3,6.4,3.9,6,5c-0.4,1-4.6,0.3-6,0c-3.6-0.7-6-1.7-9-3c-4.4-1.8-10.7-4.5-11-4
		s5.2,3.9,9,6c5.3,2.9,7.9,3.7,9,4c0.6,0.2,3.4,0.9,7,1c7.4,0.2,13.5-2.3,17-4c-1,1.6-2.9,4.2-6,6c-4,2.3-7.8,2.2-13,2
		c-4.7-0.2-9.6-0.3-15-3c-4.5-2.2-7.2-5.1-9-4c-0.9,0.6-1.3,1.9-1,3c0.5,2.1,3.6,2.7,8,4c10.4,3.1,9.2,4.7,14,5
		c6.4,0.5,9.8-2.3,12,0c0.6,0.7,1.1,2.4,2,6c0.8,3,1.1,4.4,1,5c-0.7,3.1-6.9,4.1-20,6c-18.5,2.7-21.4,2.9-24,3
		c-3.1,0.2-10.5,0.5-17,0c-7.4-0.6-21.2-3-38-14c-0.6,0.5-4.9,5-4,11c0.1,0.8,0.6,3.7,3,6c2.6,2.5,6.1,2.8,8,3
		c13.1,1.2,4.1,2.3,20,3c8.8,0.4,14.8,0.7,25,0c22.3-1.5,43.8-6.3,55-9c2-3.7,2.7-6.9,3-9c0.5-4-0.1-7.4-1-13c-0.4-2.4-0.6-3.7-1-5
		c-0.8-2.8-2.6-7.3-7-12c0.8-2.5,1.9-6.3,3-11c1-4.4,1.1-5.8,2-10c1.2-5.8,2.1-8,4-15c0,0,2.1-7.8,4-16c2.7-11.8,3.1-22.8,4-45
		c0.5-12.7,0.3-15,0-17c-1.3-9.3-3.8-11.2-7-24C785.4,763,785.1,756.3,783.9,756.3z"/>
	<path fill="#5DBFD9" d="M267.7,124.3c-1.6-2.4-1-4.7-2-5c-0.9-0.2-2.4,1.4-3,3c-0.8,2-0.2,4,1,8c1.1,3.8,1.6,3.5,2,6
		c0.2,1.3,0.3,2.2,1,3c1,1.1,3,1.7,4,1c1.4-1.1,0.1-4.8,0-5c-0.9-2.3-2.2-2.8-2-4c0.3-1.6,2.9-1.7,3-3S269.4,126.8,267.7,124.3z"/>
	<path fill="#5DBFD9" d="M331.7,164.3c-0.2,0.7-1.3,4.2-4,5c-1.9,0.6-3.1-0.7-4,0c-1.7,1.3,0.9,6.5,0,7c-0.7,0.4-3.3-2.8-5-6
		c-1.7-3.1-2.7-5-2-7c0.8-2.3,3.4-3.1,6-4c1.7-0.6,7.1-2.4,9,0C332.8,160.7,332.1,163,331.7,164.3z"/>
</g>
<g id="vs-outline">
	<path fill="none" stroke="#000000" stroke-width="6" stroke-linecap="round" stroke-linejoin="round" stroke-miterlimit="10" d="
		M336.2,92.8c0.5-1.1,2-4.6,1-9c-0.7-3.4-2.7-5.6-5-8c-7.4-7.6-14.7-12.3-16.5-13.5c-8.1-5.2-12.2-7.9-16-9c-8.5-2.5-16-1.6-21-1
		c-6.6,0.8-11.5,2.5-13,3c-4.5,1.6-12.5,4.5-20,12c-1.3,1.3-7.2,7.4-11,17c-0.7,1.8-1.8,6.5-4,16c-2.9,12.6-3,13.7-3,15
		c0,8.9,3.8,15.9,5,18c4.3,7.8,7.8,7.8,9,14c0.7,3.8-0.5,7.4,2,10c1.3,1.3,2.9,1.8,4,2c-1,2.3-2.3,5.3-4,9c-3,6.6-3.8,7.9-5,9
		c-2.3,2.1-4.4,2.5-11,4c-16.3,3.6-14.4,3.4-18,4c-4.2,0.7-9.6,1.5-16,2"/>
	<path fill="none" stroke="#000000" stroke-width="6" stroke-linecap="round" stroke-linejoin="round" stroke-miterlimit="10" d="
		M336.7,94.3c1,2.2,2.2,5.2,3,9c0.8,3.7,0.9,6.6,1,9c0.1,2.6,0.2,7.2-1,13c-0.6,2.9-1.4,5.3-2,7c0.7,1.7,1.4,3.7,2,6
		c0.5,2.2,0.8,4.3,1,6c-1.3,1-2.7,2-4,3c-0.3,2.8-0.7,5.2-1,7c-0.9,4.7-1.6,6.2-2,7c-1.2,2.2-2,2-3,4c-1.1,2.3-1,4.4-1,6
		c0.1,4.8,2.1,6.2,1,8c-1.1,1.9-3.5,0.9-5,3c-1.3,1.8-0.2,3.5-1,6c-1,3.2-3.9,4.8-6,6c-5.2,2.9-10.5,2.4-15,2c-4.4-0.4-10.4-1-16-5
		c-5.4-3.8-8.5-8.3-10-11"/>
	<path fill="none" stroke="#000000" stroke-width="5" stroke-linecap="round" stroke-linejoin="round" stroke-miterlimit="10" d="
		M336.7,92.3c-5.9-0.7-15.7-1-26.5,2.5c-3.6,1.2-9.7,3.2-16,8c-3.1,2.3-2.7,2.7-7,6c-2.8,2.2-6.3,4.5-13,9c-1.3,0.8-2.3,1.5-3,2
		c0.1-4-2.1-7.3-5-8c-3.4-0.8-6.3,2.3-7,3c-2.5,2.6-2.8,5.9-3,8c-0.3,3.5,0.5,6.3,1,8c1.1,3.5,1.8,3.3,3,7c1.3,4.2,0.6,5.4,2,7
		c0.9,1.1,2.8,2.2,7,2"/>
	<path fill="none" stroke="#000000" stroke-width="5" stroke-linecap="round" stroke-linejoin="round" stroke-miterlimit="10" d="
		M262.2,146.8c-0.4,1.4-1.6,5-5,8c-3.6,3.2-7.6,3.8-9,4"/>
	<path fill="none" stroke="#000000" stroke-width="6" stroke-linecap="round" stroke-linejoin="round" stroke-miterlimit="10" d="
		M263.7,53.3c0.2-2.5,0.1-7.3-3-10c-2.4-2.1-5-1.4-13-1c-14.5,0.7-17.3-1.1-21,2c-2.6,2.1-3.6,5-5,9c-1.9,5.3-0.9,7.2-3,14
		c-1.6,5.2-2.3,4.6-3,8c-0.4,2.2-2.1,10.3,3,16c3.8,4.3,9.2,4.9,11,5"/>
	<path fill="none" stroke="#000000" stroke-width="5" stroke-linecap="round" stroke-linejoin="round" stroke-miterlimit="10" d="
		M307.7,125.3c2.9,0.2,4.8-0.4,6-1c1.8-0.9,3-2.2,5.5-2.5c0.8-0.1,1.6-0.1,2,0"/>
	<path fill="none" stroke="#000000" stroke-width="5" stroke-linecap="round" stroke-linejoin="round" stroke-miterlimit="10" d="
		M315.2,125.8c0.2,0.1,1.5,0.6,3,0c1.4-0.6,1.9-1.7,2-2"/>
	<path fill="none" stroke="#000000" stroke-width="5" stroke-linecap="round" stroke-linejoin="round" stroke-miterlimit="10" d="
		M309.2,115.8c5-0.1,6.1-0.3,9,0c1.3,0.1,3,0.4,5,1c2.1,0.7,3.2,1,4,2c1.2,1.4,1.1,3.1,1,6c-0.1,3-0.2,5.6-2,7c-1,0.8-2,0.9-3,1
		c-7.5,0.8-13.5-0.3-17-1c-3.2-0.7-4.2-1.1-5-2c-1.1-1.3-1.1-3.2-1-7c0.1-3.4,0.1-5.1,1-6C302.1,115.8,303.1,115.9,309.2,115.8z"/>
	<path fill="none" stroke="#000000" stroke-width="5" stroke-linecap="round" stroke-linejoin="round" stroke-miterlimit="10" d="
		M338.2,134.8c2.1,0.9,4.6-0.8,5-1c1.7-1.1,2.5-2.8,3-4c0.6-1.3,0.7-2.3,1-4c0.5-3.3,0.8-4.9,0-6c-0.2-0.3-0.7-0.8-5-2
		c-1.6-0.4-3-0.8-4-1c-2.7,2.5-3,3-3,3c-0.6,1-0.7,2.1,0,6C336.2,131.3,336.7,134.1,338.2,134.8z"/>
	<path fill="none" stroke="#000000" stroke-width="5" stroke-linecap="round" stroke-linejoin="round" stroke-miterlimit="10" d="
		M322.2,145.8c0.5,0.3,1.2,0.7,2,1c0.4,0.2,2.4,0.9,5,1s4.7-0.5,6-1"/>
	<path fill="none" stroke="#000000" stroke-width="6" stroke-linecap="round" stroke-linejoin="round" stroke-miterlimit="10" d="
		M314.2,164.8c3.5-1.5,6.1-2.9,8-4c1.8-1,3-1.8,5-2c2.1-0.2,3.8,0.4,5,1"/>
	<path fill="none" stroke="#000000" stroke-width="5" stroke-linecap="round" stroke-linejoin="round" stroke-miterlimit="10" d="
		M316.2,165.8c-0.1,1.4,0,4.4,2,7c1.2,1.5,2.6,2.3,4,3c2.4,1.3,4.6,1.8,6,2"/>
	<path fill="none" stroke="#000000" stroke-width="6" stroke-linecap="round" stroke-linejoin="round" stroke-miterlimit="10" d="
		M312.2,196.8c6.6,2.8,15.8,6.4,25.5,9.5c4.4,1.4,7.7,2.3,11,3c5.4,1.2,8.1,1.8,12,2c5.2,0.3,7.1-0.4,11,1c1.7,0.6,2.1,1,5,2
		c3.6,1.3,6.3,1.9,7,2c2.1,0.4,3.4,0.6,8,1c5.3,0.5,8,0.7,11,1c8.7,0.8,8.3,0.8,11,1c3.7,0.3,9.2,0.4,16,0c9.6-13.7,17.6-25,24-34
		c3.7-5.2,6.2-8.6,9-14c3.2-6.1,3.9-9,7-14c3.5-5.6,7.3-9.6,10-12c3-6.5,5.4-11.6,7-15c4-8.4,4.6-9.4,5-12c0.5-3,0.4-5.8,2-10
		c1.3-3.4,2.5-4.5,3-5c2-1.8,3.5-1.5,6-3c1.9-1.2,2.9-2.4,5-5c8.2-10.3,7.2-8.9,8-10c7.1-9.6,10.6-14.4,11-15c3.3-5,5.2-8.4,7-8
		c1.1,0.2,1.8,1.9,2,3c0.4,2.1-0.7,3.7-2,6c0,0-3,5.5-5,13c-0.6,2.2-0.9,4-1,5c2,1.7,3,3.3,3,5c0,1.8-1.1,2.3-1,4c0.2,2,1.8,2.3,3,5
		c0.9,2,0.3,2.4,1,5c0.8,3,1.9,3.4,3,6c1.7,3.9,1.2,7.7,1,9c-0.1,0.8-0.8,5-4,9c-3.3,4.1-5,2.7-11,8c-0.5,0.5-0.3,0.3-7,7
		c-1.7,1.7-3.1,3.1-4,4c-1,2.3-2.2,6.2-2,11c0.1,2.4,0.5,4.4,1,6c1,0.7,5.6,3.8,7,10c1.1,4.8-0.4,8.7-1,10c-3-0.3-6-0.7-9-1
		c0,3.7,0,7.3,0,11c-2.7,5.7-5.7,10-8,13c-5.9,7.7-8.9,8.5-14,16c-3.3,4.9-5.6,9.8-7,13c-2.3,5.1-3.5,8.7-7,14c-2.4,3.6-4,5.1-5,6
		c-1.2,1.1-4.3,3.7-9,5c-5.3,1.5-7.3-0.3-11,2c-1.5,0.9-1.6,1.4-4,3c-2.5,1.6-4.1,2.6-6,3c-4.4,0.8-5.5-2.9-11-3c-1.9,0-1.8,0.4-8,2
		c0,0-4.5,1.2-9,2c-4.3,0.8-11.4,0.9-15,1c-12.7,0.3-23,1.9-30,3c-4.7,0.7-8.5,1.5-11,2"/>
	<path fill="none" stroke="#000000" stroke-width="6" stroke-linecap="round" stroke-linejoin="round" stroke-miterlimit="10" d="
		M193.7,187.3c-3.8,1.9-9,4.5-15,8c-7.2,4.2-16.2,9.4-25,17c-3.3,2.9-9.6,10.2-22,25c-9.8,11.6-14.7,17.4-18,22
		c-6,8.3-6.9,10.7-12,16c-5,5.2-6.6,5.4-14,13c0,0-4.1,4.1-10,12c-0.8,1-1.4,1.8-2,3c-2,3.7-1.7,5.8-3,9c-1.3,3.3-2.2,2.6-4,6
		c-2.6,4.9-0.9,6.9-3,15c-1.3,5.1-2.3,5.5-2,8c0.2,1.3,0.7,3.4,5,9c2.2,2.8,3.4,4,6,7c5.6,6.3,5.3,6.9,10,12c3.2,3.6,5.1,5.6,8,8
		c5.9,4.8,6.9,3.7,10,7c4.5,4.8,6.3,11.5,7,14c1.2,4.4,1.3,7.5,3,8c2,0.6,3.3-3.1,6-3c4.2,0.2,5.7,9.1,9,9c0.9,0,2.4-0.8,4-5
		c1.4,0.4,3.5,1,6,1c8.1,0.1,14.1-4.8,19-9c7.5-6.4,12.2-13.9,15-20c-5.6-6.2-10.6-10.9-14-14c-7.6-6.9-11.5-10.3-14-12
		c-5.8-3.9-10.8-6-11-10c-0.1-2.6,1.9-4,1-6c-1.3-3.1-7.1-3.1-7-4s5.5,0,8-3c1.6-1.9,0.5-3.6,2-6c1.7-2.7,4.8-3.3,7-4
		c6.4-2.1,7.5-6.4,14-12c8-6.9,9.7-3.3,21-11c11-7.5,16-15.3,17-17c2.6-4.3,4.1-8.3,5-11"/>
	<path fill="none" stroke="#000000" stroke-width="6" stroke-linecap="round" stroke-linejoin="round" stroke-miterlimit="10" d="
		M176.7,300.3c0.3,4,0.9,9.9,2,17c0.9,5.7,1.4,7.2,5,23c4.1,18,4.2,19.3,6,23c3.3,6.7,5.7,7.8,8,14c2.6,7,2.5,13.5,2,18"/>
	<path fill="none" stroke="#000000" stroke-width="6" stroke-linecap="round" stroke-linejoin="round" stroke-miterlimit="10" d="
		M172.7,384.3c2.6,2.3,6.9,5.6,13,8c5.6,2.2,10.6,2.8,14,3"/>
	<path fill="none" stroke="#000000" stroke-width="5" stroke-linecap="round" stroke-linejoin="round" stroke-miterlimit="10" d="
		M197.7,395.3c1-1.7,2.7-4,5.5-5.5s4.3-0.9,10-2c2.9-0.5,5.6-1.4,11-3c2.9-0.9,5.5-1.7,9-3c3.3-1.3,3.1-1.4,5-2
		c3.4-1.1,5.9-1.4,11-2c7.3-0.8,9.5-0.4,11,0c1.3,0.4,4.9,1.3,5,3c0.1,1.8-3.8,3.5-5,4c-3.4,1.4-5.1,1-10,2c-0.3,0.1-3.5,0.7-7,2
		c-2.5,0.9-6.1,2.4-10,5c6,0,11,0.5,15,1c1.5,0.2,4.7,0.8,11,2c4.8,0.9,7.2,1.4,10,3c0.7,0.4,5.5,3.1,5,5c-0.3,1.3-2.8,1.7-5,2
		c-3.9,0.6-7,0.2-8,0c-6-0.9-9-1.4-12-2c-4.1-0.8-10-1.4-18,0c11.4,1.5,18.5,4,23,6c2.7,1.2,4.7,2.4,9,4c6.6,2.4,9.8,2.5,10,4
		c0.2,1.8-4,4.3-8,5c-2.5,0.4-4.3,0.1-9-1c-6.6-1.5-11-2.6-13-3c-3.2-0.7-8-1.6-14-2"/>
	<path fill="none" stroke="#000000" stroke-width="5" stroke-linecap="round" stroke-linejoin="round" stroke-miterlimit="10" d="
		M144.2,408.8c7,3.9,14.9,8.4,25,14c3.7,2.1,8.8,4.9,16,7c4.6,1.4,8.2,2.4,13,2c4.7-0.4,5.1-1.7,12-3c2.4-0.5,6.7-1.2,12-1
		c1.8,0.1,5.5,0.7,13,2c4.5,0.8,7.2,1.3,11,1c2.9-0.2,6.5-0.5,7-2c0.4-1.1-0.7-3.5-10-9"/>
	<path fill="none" stroke="#000000" stroke-width="6" stroke-linecap="round" stroke-linejoin="round" stroke-miterlimit="10" d="
		M340.7,236.3c1.3,5.2,3.3,13.2,6,23c5.9,21.2,7.6,23.8,8,32c0.3,6.2,0.8,17.9-5,30c-3,6.2-6.8,10.9-8,20c-0.2,1.7-0.1,4.8,0,11
		c0.2,7.6,0.4,11.3,1,23c0.6,12.8,0.6,13.6,1,17c0.9,7.4,1.3,11.1,3,16c2.5,7.3,4.7,8.4,5,14s-1.5,9.9-2,11c-0.6,1.3-1.7,3.8-4,6
		c-3.6,3.5-7.9,4-13,5c-9.3,1.9-11,3.6-17,5c-9.9,2.3-21.7,1.4-40-3c-13.4-3.2-31.7-8.6-53-18"/>
	<path fill="none" stroke="#000000" stroke-width="5" stroke-linecap="round" stroke-linejoin="round" stroke-miterlimit="10" d="
		M334.2,121.8c-0.7-1.2-2.1-1.5-3-1c-0.7,0.4-1,1.2-1,2"/>
	<path fill="none" stroke="#000000" stroke-width="5" stroke-linecap="round" stroke-linejoin="round" stroke-miterlimit="10" d="
		M301.2,116.8c-10-0.7-20-1.3-30-2"/>
	<path fill="none" stroke="#000000" stroke-width="6" stroke-linecap="round" stroke-linejoin="round" stroke-miterlimit="10" d="
		M198.2,431.8c7.1,5.4,16.8,11.6,29,17c5.2,2.3,6.8,2.3,33,10c18.6,5.5,18.5,5.6,22.5,6.5c16.2,3.7,25.9,5.9,37,3
		c4.9-1.3,13.2-4.4,22-13c0.7-4.7,1.3-9.3,2-14"/>
	<path fill="none" stroke="#000000" stroke-width="6" stroke-linecap="round" stroke-linejoin="round" stroke-miterlimit="10" d="
		M343.7,455.3c1.4,1,3.6,3,5,6c1.9,4.3,1.1,8.4,0,14c-0.5,2.5-1.3,5.9-3,10c1.8,3.7,3.6,8.4,5,14c1.9,7.8,0.2,9.5,2,17
		c2.3,9.5,5.4,9.9,5,16c-0.3,5.2-2.6,6.6-2,12c0.4,3.4,1.5,4.3,3,9c1.4,4.6,1.7,8.2,2,12c0.9,10.3,2.4,20.6,3,31
		c0,0.8,1.4,15.9,4,46c1.1,12.1,2.7,30,5,52c-0.4,10.8-2.8,18.7-5,24c-1.6,3.8-2.6,5.1-7,14c0,0-4,8.1-8,17c-6.6,14.8-6.2,29.6-9,48
		c-3,20.1-6,18.7-13,48c-2.9,11.9-6.5,29.3-9,51c2.4,2.2,5.8,5,10,8c5.4,3.8,8.1,5.8,12,7c5.2,1.6,5.8,0,13,1c4.5,0.6,12.7,1.9,18,8
		c1.3,1.5,3.7,4.3,3,7c-0.3,1.4-1.6,3.4-10,6c-8.9,2.7-16,3-16,3c-7.6,0.3-17.7,0.5-30,0c1.7,1.6,4.7,4.8,4,8c-0.7,3-4.5,5.1-13,7
		c-19.4,4.3-36.3,1.8-41,1c-5.4-0.9-15.7-2.6-28-7c-5.2-1.9-11.8-4.6-22-7c-4.2-1-7.6-1.6-10-2c-1.3-6.3-2.7-12.7-4-19
		c-6.3-1.3-12.7-2.7-19-4c-0.6-12.3-1.8-31.5-5-55c-4.7-34.7-8.4-39.4-9-62c-0.5-20.1,2.3-18.3,4-60c0.7-16.2,0.1-13.7,1-43
		c0.9-28.9,1.5-32.7,1-46c-0.4-10.5-1.2-19.6-3-38c-2.2-22.9-3.3-26.7-4-29c-2.8-8.9-5.4-11.8-5-19c0.3-5.9,2.4-10.1,0-15
		c-1.7-3.3-3.8-3.6-6-6c-3.7-4.1-4.5-10.8,1-36c2.1-9.5,3.3-14.9,6-24c4.1-13.8,8.4-18.6,11-31c1.5-7.2,1.9-13.2,2-17"/>
	<path fill="none" stroke="#000000" stroke-width="6" stroke-linecap="round" stroke-linejoin="round" stroke-miterlimit="10" d="
		M300.7,532.3c-5.8,17.7-10.5,32.7-14,44c-6.7,21.5-7.8,25.9-9,32c-1.6,8.7-2.4,18.8-4,39c-1.3,16.8-0.8,14.5-2,29
		c-1.8,22.1-2.6,22.4-2,29c0.5,5.3,1.5,9.7,0,16c-1.4,6-4,9.6-6,13c-3.8,6.4-4.4,10.8-8,28c-8.4,40.3-8.7,35.8-9,42
		c-0.8,17.7,2.9,33.1,5,42c1.1,4.7,2.7,10.3,6,24c1.7,7.1,3.1,13,4,17c-3.6,4.2-8.2,8.7-14,13c-15,11.2-30.4,15.3-40,17"/>
	<path fill="none" stroke="#000000" stroke-width="6" stroke-linecap="round" stroke-linejoin="round" stroke-miterlimit="10" d="
		M274.7,631.3c1,10.9,2.3,22.2,4,34c1.5,10.4,3.2,20.4,5,30c-0.3,5.8-1.2,14.6-4,25c-2.1,7.7-3.8,11.2-6,18c-3.2,10-2.6,12.4-6,32
		c-5.3,30.5-9.6,40.8-12,46c-2.6,5.6-5.2,10-7,13"/>
	<path fill="none" stroke="#000000" stroke-width="6" stroke-linecap="round" stroke-linejoin="round" stroke-miterlimit="10" d="
		M264.7,886.3c2.9,2.8,6.5,5.6,11,8c19.4,10.3,40,4.1,46,2"/>
	<path fill="none" stroke="#000000" stroke-width="6" stroke-linecap="round" stroke-linejoin="round" stroke-miterlimit="10" d="
		M226.7,912.3c3.4,3.6,8.7,8.4,16,13c6.5,4,11.2,7,18,8c5.9,0.9,11.3-0.4,22-3c7.2-1.8,13-3.6,17-5c-6.6-3.2-15.2-8.3-24-16
		c-7.6-6.7-13.1-13.5-17-19"/>
	<path fill="none" stroke="#000000" stroke-width="6" stroke-linecap="round" stroke-linejoin="round" stroke-miterlimit="10" d="
		M275.7,909.3c4.6,0,10,0.4,16,2c9.2,2.5,11.3,5.5,20,7c7,1.2,12.6,0.5,16,0c8.4-1.2,14.9-3.9,19-6"/>
	<path fill="none" stroke="#000000" stroke-width="6" stroke-linecap="round" stroke-linejoin="round" stroke-miterlimit="10" d="
		M321.7,936.3c-2.1-2.5-6.6-7.3-14-10c-4.4-1.6-8.3-2-11-2"/>
	<path fill="none" stroke="#000000" stroke-width="5" stroke-linecap="round" stroke-linejoin="round" stroke-miterlimit="10" d="
		M237.7,178.3c0.5,2.7,1.4,6.1,3,10c1.3,3,3.5,8.1,8,13c5.4,5.8,7.6,4.2,12,10c2.7,3.5,2.8,5.2,6,8c3.2,2.7,5.3,2.9,6,5
		c1.2,3.5-5.1,7.2-4,9c0.4,0.6,1.3,0.6,5.5,0.5c7.2-0.2,7.9-0.4,9,0c3.1,1.1,4.1,4.3,6,8c4,7.9,6.7,7.1,12,15c1.7,2.6,4.2,9.1,9,22
		c5.2,14,5.7,15.7,6,18c1.1,7.4-0.6,8.4-1,20c-0.5,13.2-0.8,21.1,3,30c3.1,7.2,6.3,9,7,16c0.4,4.4-0.7,5-2,14s-2.2,15.8,0,23
		c1.8,5.7,4,6.8,6,11c2.9,6.1,4,16.3-5,34"/>
	<path fill="none" stroke="#000000" stroke-width="5" stroke-linecap="round" stroke-linejoin="round" stroke-miterlimit="10" d="
		M216.2,184.8c5.6,8.4,8.4,15.7,10,21c2.3,7.7,1.8,10.7,5,17c3.3,6.4,9.8,15.1,15,14c2.3-0.5,2.8-2.5,5-5c3-3.3,8.6-6.8,20-7"/>
	<path fill="none" stroke="#000000" stroke-width="5" stroke-linecap="round" stroke-linejoin="round" stroke-miterlimit="10" d="
		M290.2,194.8c1.2,1.9,3.9,6.8,3,13c-0.6,4.3-2.7,7.5-3,8c-2.1,3.1-3.6,3.4-5,6c-0.9,1.8-1.8,4.6-1,9"/>
	<path fill="none" stroke="#000000" stroke-width="5" stroke-linecap="round" stroke-linejoin="round" stroke-miterlimit="10" d="
		M296.2,197.8c4.3,5.8,7.6,10.1,10,13c1.8,2.2,3.4,4,4,7c0.4,2,0.3,4,0,8c-0.3,4.1-0.7,5.3,0,7c0.9,2.1,2.6,3.3,4,4"/>
	<path fill="none" stroke="#000000" stroke-width="5" stroke-linecap="round" stroke-linejoin="round" stroke-miterlimit="10" d="
		M284.2,231.8c2.6-3,5.2-4.8,7-6c3.2-2.1,5.4-3.4,8-3c1.7,0.3,3.2,1.5,6,4c2.2,1.9,3.9,3.7,5,5"/>
	<path fill="none" stroke="#000000" stroke-width="5" stroke-linecap="round" stroke-linejoin="round" stroke-miterlimit="10" d="
		M481.7,146.3c0.9,3.5,2.8,8.5,7,13c3.3,3.5,6.6,5.2,10,7c3.2,1.7,7.9,3.7,14,5"/>
	<path fill="none" stroke="#000000" stroke-width="5" stroke-linecap="round" stroke-linejoin="round" stroke-miterlimit="10" d="
		M503.2,101.8c1.5-0.5,3.5-1.2,6-2c2.7-0.9,3.7-1.2,5-1c1.8,0.2,2.1,1.1,4,2c4.4,2.1,7.3,0,9,2c1.1,1.3,1,3.7,0,5
		c-0.8,1.1-2,1.4-6,2c-2.1,0.3-4.8,0.7-8,1c-0.3,1.8-0.7,3.8-1,6c-0.5,3.4-0.6,4.4,0,5c1.2,1.2,3.7-0.4,5,1c0.8,0.9,0.1,1.9,1,3
		c1,1.1,2.8,1.2,4,1c1.8-0.3,2.2-1.4,4-2c1.6-0.5,3-0.3,4,0"/>
	<path fill="none" stroke="#000000" stroke-width="5" stroke-linecap="round" stroke-linejoin="round" stroke-miterlimit="10" d="
		M516.2,121.8c0.4-0.5,1.1-1.3,2-2c1.7-1.3,2.9-1.2,5-2c3.7-1.4,3.8-2.8,6-3c1.1-0.1,2.8,0.2,5,2"/>
	<path fill="none" stroke="#000000" stroke-width="5" stroke-linecap="round" stroke-linejoin="round" stroke-miterlimit="10" d="
		M527.2,89.8c-0.8-0.8-1.5-1-2-1c-2.5-0.2-5.4,3.8-7,10"/>
	<path fill="none" stroke="#000000" stroke-width="6" stroke-linecap="round" stroke-linejoin="round" stroke-miterlimit="10" d="
		M656.4,344.8c-0.7,1.7-2.3,2.8-4,3c-2.1,0.2-4.3-1.2-5-3c-1.5-3.9,5-7.9,3.5-11.5c-0.9-2-3.2-1.3-5-4c-1.6-2.5-1.7-6.3,0-8
		c1.1-1,2.2-0.5,4-1c4.9-1.2,8-7.5,9-12c1.3-5.8-1.2-7.7,1-11c1.7-2.4,5-4.2,8-4c3.3,0.2,5.3,2.6,6,2c0.7-0.7-2-3.2-2-7
		c0-3.6,2.4-6.4,3-7c4-4.5,9.2-3.3,10-6c0.8-2.8-4.3-4.6-4-8c0.5-4.5,10.4-9,15-6c2.4,1.6,1.4,3.9,4,8c4.2,6.5,12.2,9,13,8
		c0.7-0.8-3.7-3.6-3-7c0.6-2.9,4.6-4.6,7-5s6.6-0.4,8,2c1.1,1.8-0.6,3.2,0,6c0.9,4.6,6.8,8.2,9,7c1.9-1.1,0.3-5.3,2-6
		c1.5-0.6,3.2,2.6,8,6c5.4,3.9,8.7,3.8,9,6c0.4,2.9-5.3,4.4-5,8c0.2,2.1,2.4,4.2,4,4c2-0.3,1.6-3.9,4-5c3.5-1.6,9.1,4,10,5
		c1.9,1.9,6.2,6.3,5,10c-1.1,3.5-6.1,3.7-6,6s5.4,3.8,6,4c4.4,1.2,6-0.4,8,1c3.2,2.2,2.3,8.9,2,11c-0.9,6.6-4,8.2-3,13
		c0.4,2,1.2,2.9,1,5c-0.3,3.2-2.4,4-2,6c0.4,2.2,3.1,1.9,5,5c0.2,0.2,2.3,3.8,1,6c-1.4,2.2-4.9,0.5-7,3c-1.4,1.7-1.2,4.2-1,6
		c0.4,4.3,2.6,6.1,2,7c-0.6,1-4.2,0.7-17-5c-0.7,0.8-1.8,2.2-2,4c-0.3,2.3,0.8,4.1,2,6c1.5,2.4,3.4,5.5,6,10"/>
	<path fill="none" stroke="#000000" stroke-width="6" stroke-linecap="round" stroke-linejoin="round" stroke-miterlimit="10" d="
		M654.9,347.3c0.1,1.5,0.4,3.6,1,6c0.3,1,0.7,2.7,2,6c1.8,4.6,2.7,6.9,4,9c2.3,3.5,5,6,5,6c1.5,1.4,2.7,2.1,4,4c0.8,1.1,1.6,2.3,2,4
		c0.1,0.7,0.3,1.9-1,7c-1,3.9-1.5,4.7-1,6c0.5,1.2,1.6,2,3,3c1.5,1.1,3,1.7,4,2c0.2,1.7,0.7,3.1,1,4c0.6,1.6,1.3,2.8,2,4
		c0.9,1.6,1.4,2.4,2,3c1.8,1.9,3,1.3,5,3c1.7,1.5,1.3,2.2,3,4c1.7,1.7,3.6,2.4,5,3c1.5,0.6,5,1.9,9,1c1.8-0.4,2-0.9,8-4
		c1.7-0.9,3.1-1.6,4-2c2,2.3,4,4.7,6,7"/>
	<path fill="none" stroke="#000000" stroke-width="5" stroke-linecap="round" stroke-linejoin="round" stroke-miterlimit="10" d="
		M656.9,344.3c-0.2,1.1-0.4,4.2,1.5,6.5c3.2,3.8,10.3,3.1,13,0c1.6-1.8,1-3.8,3-5c1.7-1,3.9-0.4,5,0c0.4,0.1,3.4,1.1,5,4
		c0.8,1.5,0.4,1.9,1,3c0.5,0.9,1.7,2.2,10,3c5.3,0.5,8,0.8,10,0c3.1-1.3,4.1-3.3,6-3c2,0.3,3.2,2.9,4,5"/>
	<path fill="none" stroke="#000000" stroke-width="5" stroke-linecap="round" stroke-linejoin="round" stroke-miterlimit="10" d="
		M711.4,367.8c0.1-0.9,0.4-3.1,2-5c0.5-0.6,2.8-3.4,6-3c3,0.4,4.6,3.2,5,4c1.1,2,1.1,4,1,8c0,2.5-0.4,4.4-1,8c-0.5,2.9-0.9,4.2-2,5
		c-0.9,0.6-1.9,0.8-3,1c-1.7,0.3-3.1,0.1-4,0"/>
	<path fill="none" stroke="#000000" stroke-width="5" stroke-linecap="round" stroke-linejoin="round" stroke-miterlimit="10" d="
		M726.4,373.8c0.4,0.8,1.6,2.7,4,4c0.4,0.2,2.9,1.5,6,1c0.8-0.1,1.5-0.4,3-1c3.8-1.5,4.3-2.3,5-2c1.9,0.8-0.9,7,2,10
		c1.7,1.8,4.9,1.8,7,1c3.1-1.2,5.2-4.4,5-8"/>
	<path fill="none" stroke="#000000" stroke-width="4" stroke-linecap="round" stroke-linejoin="round" stroke-miterlimit="10" d="
		M669.4,375.8c1.8-0.8,4.1-1.6,7-2c3.7-0.6,6.8-0.3,9,0"/>
	<path fill="none" stroke="#000000" stroke-width="4" stroke-linecap="round" stroke-linejoin="round" stroke-miterlimit="10" d="
		M687.9,382.3c-0.6,0.3-1.2,0.7-2,1c-2.3,0.9-4.5,1.1-6,1"/>
	<path fill="none" stroke="#000000" stroke-width="4" stroke-linecap="round" stroke-linejoin="round" stroke-miterlimit="10" d="
		M678.9,400.3c0.2,0.2,1.3,1.2,3,1c1.1-0.2,1.8-0.8,2-1s0.8-0.9,1-2"/>
	<path fill="none" stroke="#000000" stroke-width="5" stroke-linecap="round" stroke-linejoin="round" stroke-miterlimit="10" d="
		M682.9,409.3c1.8-0.1,3.8-0.1,6,0c1.6,0.1,3.1,0.3,4.5,0.5"/>
	<path fill="none" stroke="#000000" stroke-width="6" stroke-linecap="round" stroke-linejoin="round" stroke-miterlimit="10" d="
		M772.4,395.8L772.4,395.8c-3.4,0.7-8.3,1.8-14,4c-7.2,2.7-19.5,8.5-31,20c-3.3,3.3-7.7,8.2-12,15c4.8,2.5,9.7,5,14.5,7.5
		c3.7-5.2,9.2-11.8,17-18c11.7-9.4,23.4-13.8,31-16c-1.7-4.3-3.3-8.7-5-13"/>
	<path fill="none" stroke="#000000" stroke-width="6" stroke-linecap="round" stroke-linejoin="round" stroke-miterlimit="10" d="
		M719.9,425.3c-2.4,1.2-5.1,2.8-8,5c-4.8,3.8-8,7.9-10,11c1.4-0.4,4.4-1,8,0c3.7,1,6,3,7,4c0-3,0-6,0-9"/>
	<path fill="none" stroke="#000000" stroke-width="6" stroke-linecap="round" stroke-linejoin="round" stroke-miterlimit="10" d="
		M705.9,442.3c-3.7,9.4-6.2,17.6-8,24c-4.9,17.7-6.6,31.3-8,43c-0.7,6.1-1,9.5-1,13c-0.1,9.1,1.2,9.8,1,18c-0.2,8.8-0.4,13.3-3,18
		c-1,1.8-2.4,3.7-3,7c-0.5,2.8-0.3,5.5,0,8c0.4,4.1,1,4,1,6c0.1,5.9-4.1,7.8-4,12c0.1,2.2,1.3,5.3,7,9c4.6,2.5,11,5.3,19,7
		c12.3,2.6,22.7,1.3,29,0"/>
	<path fill="none" stroke="#000000" stroke-width="6" stroke-linecap="round" stroke-linejoin="round" stroke-miterlimit="10" d="
		M774.9,409.3c2.1,3.4,4.4,5.6,6,7c2.2,1.9,4.3,3,8,5c2.4,1.3,4.5,2.3,6,3c1.9-1.2,4.6-3,8-5c6.7-3.9,10.1-5.9,14-7
		c3.1-0.9,8.6-1.8,16,0c0.5,2.3,0.9,5,1,8c0,1,0,2,0,3c-2.2,0-4.9,0.2-8,1c-6.3,1.6-10.6,4.9-13,7c5.6-0.1,11.3-0.1,17,0
		c12,0.1,23.7,0.5,35,1c1.5,2.6,3.2,5.2,5,8c0,0,2.5,3.8,5,7c2.6,3.4,5.7,6.9,21,22c2.2,2.1,3.6,3.6,5,6c3.2,5.6,3,11.2,3,13
		c-0.1,8.3,2.1,26.5,6,53c-0.5,2.4-0.7,5.9,1,9c1.3,2.2,3.1,3.4,4,4c8.6,5.6,17.1,11.1,20,18c0.4,1,0.3,1,1,10
		c1.4,17.2,1.8,15.5,2,22c0,0,0.4,12.6-2,25c-0.4,2.2-1,4.5-2,7c-0.8,2-1.7,3.8-3,6c-3.8,6.3-8.9,12.5-11,15c-1.7-0.4-3.7-0.8-6-1
		c-4.5-0.3-8.3,0.3-11,1c-3.3,3-6.7,6-10,9c-3.6,0.3-8.9,1-15,3c-6.6,2.2-7.6,3.6-16,7c-8.9,3.5-14.2,5.6-21,5
		c-2.3-0.2-5.4-0.8-12-4c-6.2-3-15.2-8.2-25-17c0,18.6,0.9,37.9,3,58c0.3,3,0.6,6,1,9c-5.9,3.6-15.1,8.4-27,12
		c-21.2,6.3-39.3,5.2-55,4c-9.1-0.7-17.5-2.1-34-5c-19.3-3.4-35.1-6.6-46-9c2.3-7.8,5.4-19.5,8-34c2.7-15.2,3.5-26.1,4-31
		c1.6-15.5,6.7-38,23-68"/>
	<path fill="none" stroke="#000000" stroke-width="5" stroke-linecap="round" stroke-linejoin="round" stroke-miterlimit="10" d="
		M805.9,436.3c-3.4-2.3-10.6-6.4-20.5-7.5c-11.2-1.2-19.6,2-22,3c-4.7,2-13.3,5.5-18,14c-2.8,5.1-2.9,12.7-3,28c0,1.4,0,1.2,0,14
		c0,10.8,0,10.6,0,11c0.6,13.8,3.3,14.6,2,22c-0.5,2.6-1.4,5.6-1,10c0.2,2.1,0.5,2.7,1,6c0,0,0.8,5,1,10c0.1,1.7,0.1,5.1-1,14
		c-0.7,5.8-1.3,8.5-2,13c-2.3,14.8-1.3,16.4-3,24c-1,4.4-2.9,10.7-7,18c0.7,1.3,1.3,2.7,2,4c-1.7,9.6-4.1,17-6,22
		c-2,5.3-3.6,8.3-4,9c-2,3.7-4.2,7.7-8,12c-3.1,3.4-5.1,4.7-6,8c-0.1,0.3,0,0.2-1,5c-0.8,3.7-0.8,4-1,5c-0.1,0.8-0.8,4.3-1,7
		c-0.2,2.5-0.2,6.2,1,11c0.1,0.7,0.7,3.1,3,5c2.5,2.1,5.3,2,6,2c0.2,0.5,1.1,2.2,3,3c2.3,0.9,5.1,0.1,7-2c0.5,0.6,1.5,1.6,3,2
		c2.4,0.6,5.2-0.6,7-3c-0.7-1.1-1.4-2.5-2-4c-1.7-4.3-2-8.2-2-11"/>
	<path fill="none" stroke="#000000" stroke-width="5" stroke-linecap="round" stroke-linejoin="round" stroke-miterlimit="10" d="
		M737.4,701.8c1.7-0.2,3-0.1,4,0c2,0.2,3.1,0.6,4,0c0.6-0.4,1.1-1.2,1-2c-0.2-1.4-2.1-1.4-3-3c-0.6-1.1-0.3-2.1,0-4
		c0.9-4.9,0.1-3.3,1-8c1-5.3,1.5-4.7,2-8c0.4-2.9,0.1-4,0-10c0-2.1-0.1-5.2,0-9c5.3-10,10.7-20,16-30c2-1,4-2,6-3c0-1.9,0.2-4.7,1-8
		c1.5-6.1,4.1-9.9,6-13c2.6-4.3,5.4-12.9,11-30c1.9-5.8,2.6-8.4,3-12c0.7-6.5-0.4-11-1-15c-1.8-11.3-0.9-20.5,0-29
		c0.4-3.7,1.6-16,5-25c0.4-0.9,1.6-4.3,3-9c1-3.4,1.6-6.2,2-8c0.2-3.1,0-7.1-2-11c-1.5-3-3.2-4.2-6-8c-1.7-2.3-3.9-5.6-6-10"/>
	<path fill="none" stroke="#000000" stroke-width="5" stroke-linecap="round" stroke-linejoin="round" stroke-miterlimit="10" d="
		M743.4,454.8c2.4-2.9,6.2-6.8,12-10c8.2-4.5,15.5-4.9,17-5c3.2-0.1,6.3-0.3,10,1c5.2,1.8,4.8,3.9,13,9c4.3,2.7,6.3,3.2,8,6
		c0.8,1.3,1.2,3.2,2,7c1.3,6.1,1,6.6,2,11c1.2,5.3,1.9,5.9,2,9c0.1,2.9-0.5,5.3-1,7c-0.7,2.2-2.5,7.9-8,11c-1.3,0.7-4,2-8,2"/>
	<path fill="none" stroke="#000000" stroke-width="5" stroke-linecap="round" stroke-linejoin="round" stroke-miterlimit="10" d="
		M808.4,489.8c-2.6,9.3-3.6,16.8-4,22c-0.5,6.5-0.2,9.6-2,15c-2.3,7-4.6,7.1-6,13c-1.2,5-0.4,9,1,17c0.7,3.9,1.6,8.8,4,15
		c1.9,4.8,3.2,6.7,4,11c0.5,2.9,1.1,6.1,0,10c-1.4,4.8-4.4,7.7-6,9c-5-7.7-10-15.3-15-23"/>
	<path fill="none" stroke="#000000" stroke-width="5" stroke-linecap="round" stroke-linejoin="round" stroke-miterlimit="10" d="
		M822.4,629.8c-7.7-9.3-15.3-18.7-23-28"/>
	<path fill="none" stroke="#000000" stroke-width="5" stroke-linecap="round" stroke-linejoin="round" stroke-miterlimit="10" d="
		M822.4,671.8c-0.3-4-0.7-8-1-12c-9.6-13.5-19.6-27.2-30-41c-4.3-5.7-8.7-11.4-13-17"/>
	<path fill="none" stroke="#000000" stroke-width="5" stroke-linecap="round" stroke-linejoin="round" stroke-miterlimit="10" d="
		M800.4,630.8c0.7,3.5,1.4,7.2,2,11c1,6.3,1.6,12.4,2,18"/>
	<path fill="none" stroke="#000000" stroke-width="4" stroke-linecap="round" stroke-linejoin="round" stroke-miterlimit="10" d="
		M821.4,661.8c0.3-4.4,0.8-11.8,1-21c0.5-22.3-1.2-32.5-1-55c0.1-9.8,0.6-17.6,1-25c1.4-24.8,2.9-29.7,1.5-41.5
		c-0.4-3.1-1.2-8.8-2-18c-0.3-3.1-0.7-7.4-1-13c-0.9-16-0.2-21.4-2-26c-0.3-0.8-1.1-2.6-1-5c0.1-2.5,1.1-3.2,1-5
		c-0.1-2.5-2.1-4.2-4-6c-2.3-2.2-5.4-5.4-9-10c3.4-3.3,5-5,5-5s-1.8,1.6-5.2,5c1.7,1.6,4.1,4.2,6,8c1.1,2.2,2.3,5.4,3,16
		c0.6,9.2,0.9,13.8,0,18c-0.7,3.4-2.5,8.9-7,15"/>
	<path fill="none" stroke="#000000" stroke-width="5" stroke-linecap="round" stroke-linejoin="round" stroke-miterlimit="10" d="
		M734.4,440.8c-1,2.7-2.2,6.4-3,11c-2.2,12-0.4,21.5,1,29c1.5,8,4.8,19.8,12,33"/>
	<path fill="none" stroke="#000000" stroke-width="4" stroke-linecap="round" stroke-linejoin="round" stroke-miterlimit="10" d="
		M885.4,460.8c4.8,24.9,6.2,45.2,6.5,59.5c0.6,24.6-1.9,30.4,0,54c1,12.6,1,25.4,2,38c0.3,3.7,0.7,7.6,0,13c-0.1,0.7-1.2,9.1-3,15
		c-0.1,0.4-0.7,2.3-1,5c-0.2,2-0.3,3,0,4c0.9,2.7,3.6,2.8,5,5c0.9,1.4,1.4,4-1,9"/>
	<path fill="none" stroke="#000000" stroke-width="4" stroke-linecap="round" stroke-linejoin="round" stroke-miterlimit="10" d="
		M910.9,550.3c-1.2,2.3-2.7,5.3-4,9c-1,2.7-2.3,7.3-3,13c-0.7,6-0.3,10.5,0,14c1.2,15.7-0.3,13.7,1,34c0.6,10,1.2,13.2,1,21
		c-0.1,5.9-0.6,10.7-1,14"/>
	<path fill="none" stroke="#000000" stroke-width="4" stroke-linecap="round" stroke-linejoin="round" stroke-miterlimit="10" d="
		M891.9,567.3c-8,1.6-16.7,3-26,4c-16.3,1.7-31.1,1.8-44,1"/>
	<path fill="none" stroke="#000000" stroke-width="4" stroke-linecap="round" stroke-linejoin="round" stroke-miterlimit="10" d="
		M724.9,694.3c0.3,1.9,0.6,3.9,1,6c0.3,1.7,0.7,3.4,1,5"/>
	<path fill="none" stroke="#000000" stroke-width="4" stroke-linecap="round" stroke-linejoin="round" stroke-miterlimit="10" d="
		M715.9,691.3c0.3,4.7,0.7,9.3,1,14"/>
	<path fill="none" stroke="#000000" stroke-width="6" stroke-linecap="round" stroke-linejoin="round" stroke-miterlimit="10" d="
		M786.9,737.3c0.1,6.7,0.1,12.2,0,16c-0.1,6.9-0.4,9.7,0,14c0.5,6,1.8,9.7,3,14c0,0,3.8,13.8,5,29c0.6,7.7,0.1,13.5-1,25
		c-0.7,7.6-2.9,31.4-8,44c-0.6,1.6-2.8,6.6-4,13c-0.2,0.9-0.6,3.1-1,6c-0.8,5.6-0.4,5.2-1,8c-0.9,4.1-1.8,5.3-1,7
		c0.6,1.4,1.5,1.4,3,3c0.8,0.9,1.7,2.1,3,6c0.7,2.2,2.2,6.9,3,14c0.5,4.3,0.3,5.7,0,7c-0.1,0.6-0.9,3.7-3,6c-3.3,3.6-8.4,3.8-12,4
		c-9.4,0.6,4.5,0.8-26,4c-10.5,1.1-15.8,1.7-22,2c-11.5,0.6-17.7,1-26,0c-7.1-0.8-25.1-2.9-27-11c-0.3-1.2-0.2-2.3,0-3
		c-1.7-0.3-4.2-0.8-7-2c-3.4-1.4-5.3-2.2-6-4c-0.6-1.5,0.3-1.9,1-7c0.5-3.3,0.3-4,1-5c1.5-1.9,4.5-2,6-2c0,0,4.3-0.1,16-2
		c6.4-1,4.7-2.3,17-6c5.9-1.8,7.9-2,12-4c1.4-0.7,5-2.6,9-6c2-1.7,6.5-5.6,10-12c4.4-8,5-15.8,5-20c-0.9-17.3-1.5-32.2-2-44
		c-0.9-23.3-1.4-35-1-38c0.2-1.9,0.9-7.1,0-14c-0.7-5-1.8-8-3-12c-1.4-4.8-3.1-11.8-4-21"/>
	<path fill="none" stroke="#000000" stroke-width="5" stroke-linecap="round" stroke-linejoin="round" stroke-miterlimit="10" d="
		M735.9,745.3c1.6,8.2,2.8,14.9,3.5,19.5c1.2,7.6,1.4,10,3,14c2.2,5.7,4.1,6.8,6,12c2,5.6,2,10.2,2,14c0.1,22.9,1.8,4,1,35
		c-0.3,12.1-0.9,27.3-2,45c-4.2,6-6.6,11.2-8,15c-1,2.7-1.7,5.2-4,8c-1.7,2-3.1,2.9-8,6c-9.6,6.1-6.1,3.9-11,7c-8.1,5-9.9,6-12,7
		c-2,0.9-4.1,2-7,3c-5,1.8-10,2.7-17,4c-4.8,0.9-5.8,0.9-7,2c-3.2,2.7-3.3,7.7-3,11"/>
	<path fill="none" stroke="#000000" stroke-width="5" stroke-linecap="round" stroke-linejoin="round" stroke-miterlimit="10" d="
		M781.4,896.8c-2.8,1-6.5,1.9-11,2c-11.5,0.2-19.9-5.6-23-8"/>
	<path fill="none" stroke="#000000" stroke-width="5" stroke-linecap="round" stroke-linejoin="round" stroke-miterlimit="10" d="
		M749.4,882.8c-0.5,0.4-2.7,2.2-6,2c-3.6-0.2-5.6-2.6-6-3"/>
	<path fill="none" stroke="#000000" stroke-width="5" stroke-linecap="round" stroke-linejoin="round" stroke-miterlimit="10" d="
		M768.4,624.8c-2-2.2-5.6-5.5-11-8c-6.3-2.8-11.8-3-14-3c-4.8,0-8.6,1.1-11,2"/>
	<path fill="none" stroke="#000000" stroke-width="5" stroke-linecap="round" stroke-linejoin="round" stroke-miterlimit="10" d="
		M764.4,622.8c-0.7,1.3-1.3,2.7-2,4"/>
	<path fill="none" stroke="#000000" stroke-width="5" stroke-linecap="round" stroke-linejoin="round" stroke-miterlimit="10" d="
		M736.4,614.8c-1,3.7-2,7.3-3,11"/>
	<path fill="none" stroke="#000000" stroke-width="6" stroke-linecap="round" stroke-linejoin="round" stroke-miterlimit="10" d="
		M724.7,917.3c1.4,0.4,3.1,1,5,2c2.9,1.6,4.8,3.6,6,5"/>
	<path fill="none" stroke="#000000" stroke-width="6" stroke-linecap="round" stroke-linejoin="round" stroke-miterlimit="10" d="
		M712.7,925.3c1.2,0.1,2.5,0.4,4,1c4.6,1.8,7,5.4,8,7"/>
	<path fill="none" stroke="#000000" stroke-width="6" stroke-linecap="round" stroke-linejoin="round" stroke-miterlimit="10" d="
		M702.7,931.3c1.5,0.5,3.7,1.4,6,3c2.4,1.7,4,3.6,5,5"/>
	<path fill="none" stroke="#000000" stroke-width="6" stroke-linecap="round" stroke-linejoin="round" stroke-miterlimit="10" d="
		M692.7,922.3c0.5,1,1.4,2.6,3,4c1.1,1,2.2,1.6,3,2"/>
	<path fill="none" stroke="#000000" stroke-width="6" stroke-linecap="round" stroke-linejoin="round" stroke-miterlimit="10" d="
		M703.7,917.3c1.3,2,2.7,4,4,6"/>
	<path fill="none" stroke="#000000" stroke-width="6" stroke-linecap="round" stroke-linejoin="round" stroke-miterlimit="10" d="
		M713.7,912.3c1.3,2.3,2.7,4.7,4,7"/>
</g>
<g id="vs-h-reveal">
	
		<path fill="none" stroke="#000000" stroke-width="83" stroke-linecap="round" stroke-linejoin="round" stroke-miterlimit="10" stroke-opacity="0" d="
		M254.2,40.1c-10.9-3-22.6-2.7-33.3,0.9c16.7,24.3,66.4-5.6,81.1,20c-28.3,5.5-57.8,5-85.9-1.5c-4.2,4.3-1.7,12.2,3.4,15.5
		c5.1,3.3,11.5,3.3,17.6,3.2c21.3-0.4,42.6-0.7,63.8-1.1c7.2-0.1,14.7-0.1,21,3.4c6.2,3.5,10.3,12,6.6,18.1
		C287,99.9,245.3,96,204.7,86.8c-0.2,5.8-0.5,11.7-0.7,17.5C315.7,106,425.8,65.7,537.1,75c-112.8,30.2-229.1,47.2-345.8,50.5
		c-0.6,10.2,12.2,15.2,22.4,16.5c102.6,13.2,204.5-26.3,307.8-30.8c7.2-0.3,17.6,3.4,15.1,10.2c-1.3,3.6-5.6,4.8-9.3,5.6
		c-90.4,18.3-182.8,27-275,25.9c-6.5-0.1-15.3,2.2-14.7,8.6c0.5,5.4,7.4,7.1,12.8,7.4c87.3,5.2,175.2,1.6,261.8-10.9
		c3.3,14.5-16.2,22.4-31,23.8c-75.1,7.1-150.9,6.3-225.8-2.4c-5.7-0.7-11.8-1.3-17,1.2s-8.6,9.6-5.3,14.3
		c69.5,5.1,139.3,6.1,208.9,2.8c19.6-0.9,44.9,1.6,50.3,20.5c-113.6,1.2-227.1-28.8-340-15.8c-9.7,1.1-22.1,5.6-21.7,15.4
		c0.5,9.8,13.2,13.1,23.1,13.5c115.6,5.3,231.5,3.4,346.9-5.7c-3.5,5.4-10.6,6.9-17,7.9c-114.1,17.4-230.7,5.7-345.8,15.2
		c-14.4,1.2-33.5,9.2-29.6,23.1c106.3,3.9,212.9-2.6,318-19.3c13.3-2.1,29-3.6,38.2,6.2c-21.7,7.8-45.1,9.4-68.1,9.9
		c-109.7,2.7-223-14.8-326.6,21.2c-4.5,5.7-1.4,14.7,4.6,18.8c6,4.1,13.6,4.6,20.9,4.8c86.4,2.2,172.8-22.8,258.6-11.9
		c3.2,9.8-11,15.4-21.3,15.9c-93.7,4.5-187.4,9.1-281.1,13.6c-3.4,12.2,14.3,18.2,26.9,18.1c72.8-0.4,145.7-0.8,218.5-1.2
		c20.8-0.1,44.1,0.8,58.4,15.9c-71.8,10.4-144.8,12.8-217.1,7.2c-8.1-0.6-16.8-1.2-23.7,3.1c-6.9,4.3-9.6,15.7-2.9,20.3
		c2.9,2,6.6,2.2,10.1,2.3c55.7,1.8,111.5-0.9,166.8-8c11.4-1.5,23.2-3.1,34.3-0.2c11.1,3,21.6,11.9,22.4,23.4c-60,0-120.1,0-180.1,0
		c-7.2,0-17.3,3.2-15.7,10.2c1.1,5.1,7.7,6.5,13,6.7c61,3,122.1,3.5,183.1,1.4c-3.9,13.5-21.9,15.5-35.9,14.9
		c-41-1.8-82-3.7-123-5.5c-11.7-0.5-26.9,1.3-29.8,12.7c-1.9,7.7,3.8,15.6,11,19s15.4,3.2,23.4,3c50.4-1.4,100.7-2.7,151.1-4.1
		c2.6-0.1,5.4-0.1,7.4,1.6c6.1,4.9-2.9,13.7-10.5,15.7c-68.4,17.6-147.2-8-208,28.1c61,4.6,122.3,5.9,183.5,3.9
		c9.2-0.3,18.9-0.6,27.1,3.5c8.3,4.1,14.4,14.2,10.8,22.7c-57.1,0.5-114.2,1-171.2,1.5c-9,0.1-20.3,1.8-22.8,10.4
		c-3.6,12.6,14.9,18.8,28,18.5c43.1-0.8,86.1-1.6,129.2-2.4c21.5-0.4,49.3,3.9,53.7,24.9c-51.3,4.7-102.9,5.3-154.3,2
		c-11.8-0.8-28.4,2.6-27.5,14.4c0.7,9.6,13,13,22.6,13.7c33.3,2.4,66.8,2.8,100.2,1.2c19.6-0.9,45.9,2.4,48.8,21.8
		c-68.6,15-139.2-14.6-209.3-10.7c-3.7,6.1-0.3,14.4,5.5,18.6c5.8,4.1,13.2,5.1,20.2,5.8c66.9,7.2,134.5,7.8,201.6,1.7
		c5.9,6-5.5,13.5-13.8,14.1c-41.1,2.9-82.4,3.1-123.5,0.7c-26.6-1.6-60.2-0.3-70.7,24.3c57.6,2.6,115.2,5.2,172.7,7.8
		c9.6,0.4,20.7,1.8,25.7,10c-25,16.7-57.8,13.2-87.9,12.5c-33.4-0.8-66.9,2.7-99.4,10.4c-7.2,1.7-15.8,5-16.9,12.4
		c-1.7,11,13.9,15.3,25.1,15c54.6-1.5,109.2-3,163.8-4.6c-44.4,32.6-107.5,14.2-160.7,28.6c-2.5,0.7-5,1.5-6.8,3.3
		c-4.4,4.4-2,12.5,3.2,16s11.8,3.6,18,3.6c39.1,0,78.1-0.1,117.2-0.1c11.5,0,27.6,6.3,23.4,16.9c-43.8,1.4-87.6,2.7-131.4,4.1
		c-9.3,0.3-18.9,0.7-27.3,4.7s-15.2,12.9-13.9,22.1c50.5,1.4,101,2.8,151.5,4.1c7.1,0.2,17.1,4.4,14.2,11
		c-50.3,2.8-100.5,5.6-150.8,8.4c-7.7,0.4-18.3,5.7-14.5,12.4c64.4,15.1,135.5-8.9,196.5,16.7c-51.7,2-103.4,4-155.1,6
		c32.4,13.9,68.5,19,103.4,14.6c-2.1-2.8-4.2-5.7-6.3-8.5"/>
	
		<path fill="none" stroke="#000000" stroke-width="83" stroke-linecap="round" stroke-linejoin="round" stroke-miterlimit="10" stroke-opacity="0" d="
		M723.8,263.5c-13.5-1.2-27.1-0.3-40.3,2.6c-2.4,3.9,0.2,9.3,4.3,11.4s8.9,1.8,13.4,1.5c20.2-1.4,40.4-2.9,60.6-4.3
		c2.9,3.6,1.2,9.4-2.4,12.3c-3.6,2.9-8.4,3.7-13,4.3c-23.6,3.1-47.5,3.5-71.3,1.4c-7.8-0.7-16-1.6-23,1.9c-6.9,3.6-11,13.6-5.8,19.4
		c27.4-3.1,54.9-5.8,82.4-8.1c11.7-1,23.8-1.9,35,1.6s21.5,12.5,23,24.1c-47.3,14.1-98.1-18.5-146.4-8.4c-3.7,3.8-1.4,10.8,3.2,13.5
		c4.6,2.8,10.2,2.6,15.6,2.3c40.6-2.1,81.2-4.1,121.8-6.2c2.3,5.5-3.9,10.6-9.4,12.8c-35.8,14.4-76.9,2.3-114.6,10.6
		c-4.8,1.1-10.4,3.6-10.6,8.4c-0.3,6.3,8.3,8.4,14.6,8.4c25.6-0.1,51.2-0.3,76.8-0.4c17-0.1,34.9,0.1,49.6,8.7
		c-6,9.4-19.3,10.1-30.5,9.8c-33.8-0.7-67.6,0.4-101.3,3.1c-5.1,0.4-11.4,1.9-12.5,6.8c-1.6,7.1,8.5,10.4,15.8,10.4
		c43.6,0,87.2-0.1,130.8-0.1c-36.5,6-73,12.1-109.6,18.1c-0.1,3.7-0.2,7.4-0.3,11.2c60.1,14.3,122.8,2.8,184.5-0.5
		c8-0.4,19.1,2.6,17.9,10.5c-48.7,17-102.2,7.8-153.6,11.5c-23.6,1.7-48.4,6.8-65.5,23.1c76.2-0.1,152.5-0.2,228.7-0.4
		c7.7,0,18.3,2.9,17.5,10.6c-0.6,6-8,8.3-13.9,9c-30.5,3.7-61.3,1-92,1.3c-32.1,0.4-64.2,4.2-95.5,11.3
		c-17.1,3.9-34.9,9.4-46.6,22.4c70.7-0.7,141.4-1.3,212.1-2c15-0.1,32.6,1.1,40.8,13.7c-11.2,5.1-23.9,5.1-36.1,5
		c-44-0.3-88.1-0.5-132.1-0.8c-26.3-0.2-53.6-0.1-77.7,10.4c0.2,3.2,0.4,6.4,0.5,9.6c73.8-0.1,147.7-0.2,221.5-0.3
		c12.7,0,28.1,1.5,33.7,13c-6.2,5.6-15.3,6.2-23.6,6.4c-79,2.2-158,4.4-237,6.7c8.8,9.1,22.8,10.1,35.4,10.4
		c69.8,1.5,139.6-2.5,209-9.8c10-1,23.1-0.2,26,9.4c1.9,6.3-2.6,13.2-8.4,16.3c-5.9,3.1-12.8,3.3-19.4,3.5
		c-75.8,1.8-151.6,2.1-227.4,0.9c-2.3,0-4.9,0-6.5,1.7c-4.1,4.3,3.5,9.9,9.3,11c66.1,11.8,133.7,15.2,200.7,9.9
		c15.6-1.2,31.4-2.9,46.6,0.6c-1.2,6.3-9.4,8-15.8,8.2c-86.8,2.8-173.7,5.5-260.5,8.3c-5.2,5-2.4,14.6,3.6,18.6
		c6,4.1,13.8,4.2,21,4.2c44.2,0,88.4-0.1,132.6-0.1c-19.6,22.1-53.2,23.2-82.8,22.5c-16.6-0.4-33.3-0.7-49.9-1.1
		c-2.5-0.1-5.5,0.2-6.8,2.3c-1.3,2.2,2.4,5.3,3.5,3.1c-10.7-0.6-21.5-1.2-32.2-1.8c1.7,6,9.4,7.4,15.6,7.7
		c42,2.2,83.9,4.4,125.9,6.7c11.1,0.6,24.2,2.4,29.3,12.2c-23.9,4-47.7,7.9-71.6,11.9c-4.2,0.7-9.7,3.7-7.9,7.5
		c22.3,0.6,44.2,10.2,59.7,26.2c-24.5,6.4-50.2,8.3-75.4,5.3c17.5,20.4,53.2,8.2,75.4,23.3c-19.8,8.4-40.9,13.6-62.3,15.4
		c15.8,7,32.1,12.6,48.9,16.9c-20.7,0.2-41.4,0.3-62.1,0.5c28.9,11.3,58.3,21,88.2,29.2c-40.5,3.1-81,6.1-121.5,9.2
		c29,8.6,58.6,15.7,88.4,21c-37.6,0.4-75.2,0.8-112.9,1.3c45.4,12.7,92.5,19.2,139.6,19.2c-40,0.6-80,1.1-120.1,1.7
		c-13.4,0.2-28.1,0.8-38.2,9.7c36.8,9.5,75.6,11.2,113.2,5"/>
</g>
</svg>
