<?xml version="1.0" encoding="utf-8"?>
<!-- Generator: Adobe Illustrator 23.0.3, SVG Export Plug-In . SVG Version: 6.00 Build 0)  -->
<svg version="1.1" id="Layer_1" xmlns="http://www.w3.org/2000/svg" xmlns:xlink="http://www.w3.org/1999/xlink" x="0px" y="0px"
	 width="1000px" height="1000px" viewBox="0 0 1000 1000" enable-background="new 0 0 1000 1000" xml:space="preserve">
<g id="vs-colour">
	<path fill="#704020" d="M390.9,788.8c-24.6,16.2-49.2,32.5-73.9,48.7c-0.7,44.9-1.3,89.9-2,134.8c110.3,0,220.7,0,331,0
		c-0.3-45.4-0.7-90.9-1-136.3c-23-16.2-46-32.3-69-48.5c-16.2,11.2-30.7,16.6-40,19.5c-44.1,13.5-84,2.1-109-5
		C411.1,797.5,398.6,792.3,390.9,788.8z"/>
</g>
<g id="vs-secondary">
	<path fill="#E2B77D" d="M376,871c71.7,0,143.3,0,215,0c-0.3,23-0.7,46-1,69c-71.7,0-143.3,0-215,0C375.3,917,375.7,894,376,871z"/>
</g>
<g id="vs-primary">
	<path fill="#FF9D00" d="M267.3,123.6c9.9-17.4,35.8-18.8,76.9-20.4c179.2-7.3,132-4.2,188.8-5.7c49.5-1.3,78.2-3.5,117.5,10
		c20.9,7.2,37,16.1,47.7,22.8c0.1,6.7,0.1,16.4-0.5,28c-0.3,5.9-1.7,32.8-5.7,48.8c-6.6,26.6-25.5,43.6-44.1,59.9
		c-45.8,40.2-99.4,59.7-132.8,69c-0.2,6.9-0.4,13.9-0.6,20.8c3,0.3,13.5,1.6,22.3,10.4c8.7,8.7,9.9,19.1,10.1,21.9
		c2,19.6-13,33.5-16.7,37c-5.2,4.8-10.3,7.7-14,9.4c-2.2,43.1-4.3,86.2-6.5,129.2c15.4,2.2,26.5,11,27.8,21.1
		c1.1,8.3-4.7,15.4-6.4,17.3c-11.7,13.3-30.2,8.1-32.9,16.2c-1.5,4.6,4,7.3,13.1,21.8c8.3,13.2,5.4,13.8,15.6,32.5
		c8.3,15.2,12.2,18.5,10.8,24.6c-2,9-12.3,10.7-11.7,16.8c0.5,5.7,9.4,6.2,20.1,15.3c8.7,7.4,13.1,15.6,15,19.3
		c7.5,14.3,7.9,28.6,7.2,37.3c-8.2,5.6-20.8,12.9-37.4,17.9c-24.2,7.3-44.1,5.7-64.3,3.9c-16.5-1.5-40.1-5.2-67.3-15.2
		c-0.1-7.5,0.8-24.8,11.6-42.6c13.1-21.5,32.4-30.3,39-33c-6.9-6.5-14.5-15.9-14.1-26.9c0.4-10.8,8.4-16.7,16.1-28.1
		c6.5-9.6,13.6-24.2,16-46c-5.5-1.4-15.6-4.8-24.4-13.7c-4.9-5-10.7-10.9-9.6-17.3c1.5-8.8,14.5-8.5,22-20c4.3-6.6,4.1-12.9,4-25
		c-0.5-50.4,1.6-35.4,0-62c-0.7-12-1.9-27.6-4-46c-5.5-3.6-14.5-10.5-21.1-22.2c-6.4-11.4-13.3-32.4-4.9-40.8c5.8-5.8,14.4-1,22-9
		c4.4-4.6,5.5-10.5,6-13c1.6-8.4-0.8-15.2-2-18c-12.7-0.1-30.8-1.7-51.3-8.2c-41.5-13.2-66.5-38.4-77.6-49.8
		c-29.7-30.6-40.8-61.3-51.1-89.9C265.3,152.2,259.9,136.7,267.3,123.6z"/>
</g>
<g id="vs-shade">
	<g>
		<path opacity="0.4" enable-background="new    " d="M553.3,314.1c16.1-1,27-2.8,27-2.8C580.4,311.3,569.2,311,553.3,314.1z"/>
		<path opacity="0.4" enable-background="new    " d="M687,123.7c-3.7-9-38,3.6-98.5,7.5c-65.8,4.2-81,3.7-91.5,3
			c-31.9-2-56.8-3.5-88.5-13.5c-34.6-10.9-42.8-21-64.3-17.5c-16.3,2.7-19.7,9.8-51.2,19c-24.7,7.2-28.4,4.5-32.9,9.7
			c-17.4,20.3,21.5,82.2,44.2,111.7c17.9,23.3,41.2,52.9,83.9,72c28.1,12.6,53.6,15.7,69.8,16.5c6,7.1,7.9,16.5,4.5,24
			c-4.6,10.3-18.5,15.9-31.5,10.5c-1.7,5.1-5.5,18.7-0.6,34.7c6.8,22.4,25.5,32.4,29.1,34.3c-0.5,27.4,1.3,49.2,3,64.5
			c3.1,27.1,7,41.1-1.5,55.5c-2.4,4.1-7.1,10.3-13.5,22.5c-8.2,15.4-8,19.2-7.4,21.5c2.4,10.1,14.7,8.4,20.9,19
			c8.9,15.3-4.3,40.6-9,49.5c-8.7,16.6-17.4,22.4-15,31.5c2.5,9.1,12.7,9.3,13.5,16.5c0.9,9.1-15,13.6-31.5,30
			c-3.1,3.1-23.9,23.7-23.4,38.9c-6,4-13.9,9.8-25.4,17.4c-29.3,19.5-40.7,23.4-39.8,26.2c1.2,3.5,20.4,2.8,103.6-17.6
			c-0.6-2.6-1.2-5-1.9-7.2c1.4,0.3,2.8,0.5,4.2,0.8c9.5,1.9,29.1,5.2,59.3,5.7c20.6,0.3,31.1,0.4,40.4-3.3c21-8.4,35.3-28,32.3-32.4
			c-4.1-6-38.7,21.7-86.2,16.4c-19.1-2.1-24.7-7.8-27-12c-6.7-12.3,4.7-30.1,7.5-34.5c3-4.6,8.8-13.8,19.9-18.5
			c13-5.6,18.8,1.1,32-3.6c15.3-5.5,25.4-20.6,23.1-24.2c-2-3.1-12.7,4.4-33.1,4.4c-9.1,0-21.1,0-27-7.5c-4.6-5.8-3.2-13.4-1.5-24
			c1.8-11.6,4.2-28.8,6.2-51.1c3.1,1,11.3,3.2,20.8,0.1c14.9-5,20.3-19.1,21-21c-6.1,2.5-21.5,7.7-37.5,1.5
			c-5.2-2-14.4-5.6-16.5-13.5c-2.1-8.2,4-18.7,15.6-25.3c0.8-43.6,1.6-87.1,2.3-130.7c-2-1.4-13.6-9.6-12.3-18.9
			c0.6-4.8,4.5-8.3,13.8-14.1c23.6-14.7,37.4-16.4,37.5-21c0.1-8-41.2-9.1-43.5-22.5c-1.6-9.3,16.5-19.7,23.6-23.8
			c16.2-9.3,32.8-14.2,46.1-16.7c-10.4,0.7-22.8,1-35.9,0.3c-9.6-0.5-17.1-1.4-20.3-1.8c-8.7-1.1-26.7-3.6-46.5-10.5
			c-24.8-8.7-40.5-14.2-51-30c-1.8-2.8-14.7-22.7-7.5-42c4.9-13.1,16.7-19.9,31.5-27c37-17.8,62.7-30.2,109.5-36
			c11-1.4,33.3-2.9,78-6c21.8-1.5,45.4-3,64.4-19.9C679.6,137.5,689.2,128.9,687,123.7z"/>
		<path opacity="0.4" enable-background="new    " d="M341,939c0-33.9,0-67.7,0-101.6c-8.8,0.5-17.7,1.1-26.5,1.6
			c0.2,44.4,0.3,88.9,0.5,133.3c195,5.9,292.6,5.9,293,0C608.3,966.7,519.4,955.5,341,939z"/>
	</g>
	<path opacity="0.2" fill="#FFFFFF" enable-background="new    " d="M515.5,573.5c-21-1.4,0.5,20,13.5,20S530.5,574.5,515.5,573.5z"
		/>
	<path opacity="0.2" fill="#FFFFFF" enable-background="new    " d="M527.5,714.5c1,11.5-20.5,37-6,44.5s43.5,26.5,43.5,4
		S527.5,714.5,527.5,714.5z"/>
</g>
<g id="vs-outline">
	<path fill="none" stroke="#000000" stroke-width="18" stroke-linecap="round" stroke-linejoin="round" stroke-miterlimit="10" d="
		M702,124.6c-1.5-12.4-60.9-18.7-100.4-23c-41.3-4.4-73.2-4.5-135.3-4.3c-82.1,0.2-105.7,3.2-122.1,5.9c-10.3,1.7-84.8,14-84.1,28.7
		c0.5,10.8,41.5,18.1,68.7,22.9c29.7,5.3,63.1,8.7,144,8.6c63.9-0.1,96.6-0.2,130.9-5.7C638,152.1,703.7,137.8,702,124.6z"/>
	<path fill="none" stroke="#000000" stroke-width="18" stroke-linecap="round" stroke-linejoin="round" stroke-miterlimit="10" d="
		M259.5,131.8c2.5,19.1,8.5,47,23.6,77.5c12.8,25.9,27,43.3,33,50.3c11.8,13.8,32,36.8,66.1,53.2c32.3,15.5,60.8,17.3,81.9,18.7
		c28.5,1.8,50.3-1.4,56.3-2.3c22-3.5,78.4-13.1,124.7-59.5c18.8-18.8,28.8-36.5,31.6-41.7c21.8-40,22.5-78.6,21.5-97.8"/>
	<path fill="none" stroke="#000000" stroke-width="18" stroke-linecap="round" stroke-linejoin="round" stroke-miterlimit="10" d="
		M460.8,337.6c0.3,8,0.6,16,1,23.9"/>
	<path fill="none" stroke="#000000" stroke-width="18" stroke-linecap="round" stroke-linejoin="round" stroke-miterlimit="10" d="
		M515.3,330.4c-0.3,7.2-0.5,14.4-0.8,21.6"/>
	<path fill="none" stroke="#000000" stroke-width="18" stroke-linecap="round" stroke-linejoin="round" stroke-miterlimit="10" d="
		M461.8,361.6c-1.5,0.1-24.9,2.1-25.9,9.6c-0.7,5.3,10.2,10.8,13.4,12.5c10.2,5.2,16.7,4.4,45.8,5.3c18.3,0.6,24,1.2,31.4-3
		c1.7-0.9,12.1-6.9,11.7-14.4c-0.4-6.9-9.9-13.8-23.8-14.7"/>
	<path fill="none" stroke="#000000" stroke-width="18" stroke-linecap="round" stroke-linejoin="round" stroke-miterlimit="10" d="
		M431.1,369.2c-2.3,12.1-1.1,21.9,0,27.8c1.4,7.1,3.2,16.3,10.5,24.9c5.4,6.3,11.5,9.7,15.3,11.5c1.9,42.5,3.8,84.9,5.7,127.4"/>
	<path fill="none" stroke="#000000" stroke-width="18" stroke-linecap="round" stroke-linejoin="round" stroke-miterlimit="10" d="
		M541.3,364.4c1.7,3.3,9.5,19.6,3.2,39.3c-6.9,21.6-25.4,30.4-28.4,31.7c-2.2,43.1-4.3,86.2-6.5,129.2"/>
	<path fill="none" stroke="#000000" stroke-width="18" stroke-linecap="round" stroke-linejoin="round" stroke-miterlimit="10" d="
		M435.6,587.6c1.1-11.1,17.6-17.6,26.2-21c2.5-1,11.4-4.3,23.9-4.8c7-0.3,22.5-0.6,37.4,8.6c6.5,4,13,8.1,14.4,15.3
		c2.1,11.5-10.7,21.8-13.4,23.9c-9,7.2-18.5,8.6-25.9,9.6c-6.5,0.9-25.2,3.4-43.1-7.7C449.8,608.3,434.5,598.9,435.6,587.6z"/>
	<path fill="none" stroke="#000000" stroke-width="18" stroke-linecap="round" stroke-linejoin="round" stroke-miterlimit="10" d="
		M467.5,622.1c-1.1,3.8-2.6,9.1-4.8,15.3c-4.8,13.9-7.7,22.2-13.4,31.6c-8.1,13.3-13.2,14.4-13.4,22c-0.3,8.7,6.2,15.5,9.6,19.2
		c9.8,10.4,22.1,13,28.7,14.4c7,1.4,33.7,6.8,51.7-9.6c1.6-1.4,15.3-14.2,12.5-26.8c-1.5-6.6-5.8-6.3-13.4-17.2
		c-3.3-4.8-6.4-12.2-12.5-26.8c-3.3-7.9-5.9-14.5-7.7-19.2"/>
	<path fill="none" stroke="#000000" stroke-width="18" stroke-linecap="round" stroke-linejoin="round" stroke-miterlimit="10" d="
		M449.3,718.9c-9.8,5-26.2,15-39.3,33.5c-7.9,11.2-18.3,25.9-13.4,37.4c4.2,9.8,21.7,12.4,56.5,17.2c26.4,3.7,41.2,5.6,61.3,1.9
		c16-2.9,28.2-8.1,33.5-10.5c10.9-5,19.5-10.6,25.9-15.3c-2.3-11.3-8.6-33.6-27.8-52.7c-6.9-6.9-14-11.8-20.1-15.3"/>
	<path fill="none" stroke="#000000" stroke-width="18" stroke-linecap="round" stroke-linejoin="round" stroke-miterlimit="10" d="
		M395.6,785.7c-26.2,17.3-52.4,34.5-78.6,51.8c111-0.5,222-1,333-1.5c-24.7-16.2-49.3-32.3-74-48.5"/>
	<path fill="none" stroke="#000000" stroke-width="18" stroke-linecap="round" stroke-linejoin="round" stroke-miterlimit="10" d="
		M650,836c0,45.4,0,90.9,0,136.3c-111.7,0-223.3,0-335,0c-0.2-44.4-0.3-88.9-0.5-133.3"/>
	<path fill="none" stroke="#000000" stroke-width="10" stroke-linecap="round" stroke-linejoin="round" stroke-miterlimit="10" d="
		M374.3,870.5c72.2,0,144.4,0,216.7,0c0,22.5,0,44.9,0,67.4c-72.5,0-145,0-217.4,0C373.8,915.4,374,892.9,374.3,870.5z"/>
</g>
<g id="vs-reveal">
	
		<path fill="none" stroke="#000000" stroke-width="86" stroke-linecap="round" stroke-linejoin="round" stroke-miterlimit="10" stroke-opacity="0" d="
		M477,102.3c-50.1-3.1-100.3-4.4-150.5-3.8c-8.2,0.1-16.6,0.3-23.9,3.9s-13.1,11.7-11.4,19.6c20.2,4.8,41.4,2.5,62.1,0.4
		c76.7-7.7,153.8-11.5,230.9-11.4c20.1,0,40.6,0.4,59.3,7.7c2.7,1.1,5.7,2.5,6.9,5.1c3.5,7.3-7.5,12.7-15.6,13.3
		c-105,7.7-210.2-8.4-315.5-8c-20.3,0.1-41.8,1.1-58.6,12.4c-2,1.3-4,2.9-4.7,5.2c-2.5,7.3,8.2,11.3,15.9,11.5
		c131.4,2.1,262.9-6.5,392.9-25.7c7.8-1.2,15.9-2.3,23.5-0.1s14.5,8.7,14.5,16.6c-0.1,7-5.4,12.9-11.1,17
		c-24.6,17.8-57.6,16.6-87.9,14.6c-114.5-7.6-229-15.2-343.4-22.8c-14.4-1-33.6,1.5-36.2,15.7c-2.6,14.1,14.1,23.3,28,26.7
		c38.6,9.5,78.7,10.4,118.4,10.9c85,1,170-0.2,254.9-3.6c12.5-0.5,29.4,2.5,30.3,15c0.7,9.9-9.9,16.4-19.2,19.8
		c-97.5,35.9-207.2-4.6-309.6,13.3c-10.8,1.9-24.4,8.4-22.3,19.2c95.2,15.4,192.4-0.7,288.8,2.7c6.8,0.2,14,0.7,19.8,4.4
		c5.8,3.7,9.3,11.7,5.8,17.6c-3.2,5.3-10.2,6.5-16.4,7.1c-76.5,6.9-153.5-1.7-230.3-1.8c-2.8,0-5.9,0.1-7.9,2.2
		c-5,5.2,3.7,12.4,10.7,13.9c58.1,13,118.8,1.1,178,7.8c7,0.8,15.4,3.1,17,10c1.3,5.6-2.9,10.9-7.3,14.6
		c-21.7,18.2-52.8,19.7-81.1,17c-28.2-2.6-57.1-8.4-84.6-1.5c42.9,25.8,97.4,10.2,147.5,11.7c4.4,0.1,10,1.3,10.8,5.7
		c0.6,3.3-2.1,6.3-4.7,8.4c-26.1,21.2-62.5,24.7-96,21.9c-8.6-0.7-20.9,1.4-20.3,10c0.4,7.3,9.9,9.5,17.2,9.8
		c16.3,0.6,32.6,1.1,49,1.7c12,0.4,28.1,5.2,26.8,17.2c-0.9,8.3-10.3,12.5-18.4,14.7c-26,7.1-52.9,10.5-79.8,10
		c-3.6,5.7,5.5,10.8,12.2,11.6c27.7,3.1,55.3,6.3,83,9.4c-24.1,22.4-55.1,37.3-87.7,42.1c23.1,21.2,69.5,0.9,86.8,27
		c-29.2,12-60.2,19.6-91.6,22.6c35.9,17.1,83.7-3.8,115.8,19.7c-6.7,11.4-21.4,14.7-34.5,16.9c-25.4,4.2-50.8,8.5-76.2,12.7
		c24.4,26.1,74.2,3.3,100.9,27.1c-28,16.1-59.7,24.2-91,32.2c25.4,2,50.8,3.9,76.2,5.9c8.4,0.6,19.8,8.7,13.5,14.3
		c-40,3.6-80,7.2-120,10.8c61.6,21.1,133-3,192.7,22.9c-75,19.1-153.4,25.1-230.5,17.6c68.7,15.7,140,19.2,210,11.8
		c8.3-0.9,20.1,0.9,20.1,9.3c0,7.9-10.6,10.3-18.4,10.2c-70.7-0.9-141.4-1.8-212-2.7c-19-0.2-40.5,0.6-53.2,14.7
		c102,12,209.1-11.8,305.7,22.8c-97.5,43.1-218.6-12.4-314.5,34c110.5,11.5,227.3-17.5,330.5,23.7c-4.8,18.4-28.3,23.2-47.2,24.2
		c-61.2,3.3-122.6,3.7-183.9,1.3c-35-1.4-72.2-3.2-102.5,14.4c68.4,12.3,138.6,14.5,207.6,6.4c34.7-4.1,75-9,99.9,15.5
		c-98.1,5.3-196.5,6-294.7,2.1c2.9,7.4,5.8,14.7,8.7,22.1"/>
</g>
</svg>
