<?xml version="1.0" encoding="utf-8"?>
<!-- Generator: Adobe Illustrator 21.0.0, SVG Export Plug-In . SVG Version: 6.00 Build 0)  -->
<svg version="1.1" xmlns="http://www.w3.org/2000/svg" xmlns:xlink="http://www.w3.org/1999/xlink" x="0px" y="0px" width="1000px"
	 height="1000px" viewBox="0 0 1000 1000" enable-background="new 0 0 1000 1000" xml:space="preserve">
<g id="vs-highlight">
	<path fill="#27A8CB" d="M386.1,204.6c10.2,5.5,23.1,12.5,39,16.5c21,5.3,30.8,1.1,34.5,7.5c4.1,7.1-4.6,17.6-10.5,28.5
		c-11.6,21.4-9.2,47.3-4.5,99c3.1,34.3,8.6,56.9,15,82.5c4.2,17,8.8,32.5,19.5,49.5c8.4,13.5,15.8,24.8,30,30
		c18.7,6.8,36.9-1.5,43.5-4.5c10.5-4.8,17.6-11,28.5-22.5c31-32.6,44.2-56.2,46.7-54.9c1.6,0.9-2.5,11.7-28.3,70.9
		c-12.9,29.7-16.5,37.5-23.6,48.9c-14.4,23.2-22.9,36.8-39.8,44.6c-11.8,5.4-21.5,5.1-24,12c-2.8,7.6,5.3,17.6,12.9,25.1
		c-13.1,8-21.4,16.7-26.4,22.9c-5.9,7.3-10.7,15.6-16.5,25.5c-3.2,5.5-5.7,10.2-7.5,13.5c8.2,1.8,20.3,4.9,34.5,10.5
		c14.7,5.8,17.4,8.7,27,12c27.1,9.4,51,2.5,51.1,3.4c0.1,1.1-34.9,16.1-78,10.8c-10-1.2-23.2-3.9-31.6,3.8c-5.5,5-8.6,14-6,21
		c2.3,6.1,8.1,8.8,15,12c27.3,12.8,40.9,19.2,40.5,21.1c-0.7,3-36.3-2.8-69-10.7c-28.4-6.9-34.4-10.4-39.1-15.8
		c-15.6-17.8-8.2-46.7-5.9-54.6c15.5-6.3,24.5-14.5,30-21c0.5-0.6,0.3-0.3,15-21c9.1-12.8,10.6-14.8,13.5-18c8.5-9.3,10.7-8.4,15-15
		c3.2-4.9,4.7-10.3,7.5-21c3.1-11.6,4.6-17.5,4.5-21c-0.5-14.8-15.5-23.7-26.6-33.7c-10.9-9.8-18.8-26.2-34.5-58.9
		c-21.1-44-28.3-86.1-45.4-159.3c-21-89.5-38.5-146.9-27.8-151.4C367.2,191.5,369,195.4,386.1,204.6z"/>
	<path fill="#27A8CB" d="M400.7,168.9c10.5,5.6,26.5,13.1,46.9,19.2c34.5,10.2,61.2,10.2,105.5,10c38.1-0.1,57.2-0.1,76-7
		c17.8-6.5,32-15.9,35.8-11.6c3.3,3.8-2.7,16.8-11.8,25.1c-6.2,5.7-14,9.5-48,15c-16.1,2.6-24.1,3.9-34.5,4.7
		c-21.9,1.7-37.1,0.6-72-2c-23.5-1.8-64.8-5.1-112.5-17.7c-9.5-2.5-21.1-5.9-21.8-11.9C363.3,183.6,387.4,173.8,400.7,168.9z"/>
</g>
<g id="vs-outline">
	<path fill="none" stroke="#000000" stroke-width="18" stroke-linecap="round" stroke-linejoin="round" stroke-miterlimit="10" d="
		M668.1,185.1c-1.1-12.9-41.8-19.6-69-24c-28.4-4.6-50.3-4.7-93-4.5c-56.5,0.2-72.7,3.3-84,6.2c-7.1,1.8-58.3,14.6-57.8,29.9
		c0.4,11.3,28.6,18.9,47.3,23.9c20.4,5.5,43.3,9.1,99,9c44-0.1,66.4-0.2,90-6C624,213.8,669.2,199,668.1,185.1z"/>
	<path fill="none" stroke="#000000" stroke-width="18" stroke-linecap="round" stroke-linejoin="round" stroke-miterlimit="10" d="
		M364.3,192.7c4.6,26.7,11.7,68.4,20.3,119.9c10.8,65.2,11.7,72.7,16.5,91.5c18.2,70.3,45.6,117.9,54,132
		c12.7,21.3,31.1,48.2,57,76.5"/>
	<path fill="none" stroke="#000000" stroke-width="18" stroke-linecap="round" stroke-linejoin="round" stroke-miterlimit="10" d="
		M668.1,185.1c-0.6,26.4-2.4,61.8-7.5,103.5c-2.5,20.5-5.5,45-12,75c-17.4,80.7-47,141.2-63,171c-11.2,20.9-27.3,48-49.5,78"/>
	<path fill="none" stroke="#000000" stroke-width="18" stroke-linecap="round" stroke-linejoin="round" stroke-miterlimit="10" d="
		M548.3,613c-17.3,0.4-34.7,0.9-52,1.3c-0.6,0.9-4.7,7.6-2,14c1.7,4.1,5.4,6,8,7.3c4.7,2.3,7.8,2.1,22.7,2c12.9-0.1,15.2,0.1,18.7-2
		c1.5-0.9,6.9-4.1,8-10.7C552.7,618.7,549,613.9,548.3,613z"/>
	<path fill="none" stroke="#000000" stroke-width="18" stroke-linecap="round" stroke-linejoin="round" stroke-miterlimit="10" d="
		M493.7,637c-7,2.9-12.1,6.2-15.3,8.7c-12.9,9.8-20.1,22.7-22.7,27.3c-4.2,7.7-4,9.8-8,14c-3.5,3.6-7.7,6-16,10.7
		c-9.9,5.5-11.7,5.6-12,7.3c-1.2,6,19.3,16.5,39.3,22.7c26.7,8.2,48.1,7.4,78.7,6c31.7-1.5,51.1-5.8,69.3-14.7
		c2.7-1.3,22.9-11.2,21.3-18c-0.2-1-1-2.4-17.3-9.3c-10.6-4.5-11.7-4.5-14-6.7c-3-2.9-2.7-4.4-8.7-16c-3.2-6.3-4.9-9.5-6.7-12
		c-1-1.4-5.9-7.9-14.7-13.3c-7.6-4.7-14.7-6.5-19.3-7.3"/>
	<path fill="none" stroke="#000000" stroke-width="18" stroke-linecap="round" stroke-linejoin="round" stroke-miterlimit="10" d="
		M416.3,703.7c-1.1,14.6-1.1,30.9,0.7,48.7c0.5,5.3,1.2,10.4,2,15.3c15.4,7.8,38.5,17.6,68,22.7c13.1,2.3,36.6,6.1,66.7,2
		c31.9-4.4,56.8-15.8,73.3-25.3c0.4-22,0.9-44,1.3-66"/>
	<path fill="none" stroke="#000000" stroke-width="18" stroke-linecap="round" stroke-linejoin="round" stroke-miterlimit="10" d="
		M370.3,266.3c-4-1.8-9.7-5-14.7-10.7c-7.9-9.1-5.9-15.3-14-29.3c-4.8-8.4-10.1-17.4-20-20c-6.7-1.8-12.5,0.1-14,0.7
		c0,0-9.1,3.3-15.3,14.7c-9.9,18-2.8,65.3,27.3,128.7c9.1,19,17.4,36.4,32.7,58c23.9,33.8,49.8,56.9,68.7,71.3"/>
	<path fill="none" stroke="#000000" stroke-width="18" stroke-linecap="round" stroke-linejoin="round" stroke-miterlimit="10" d="
		M367.5,211.3c-5.5-6.3-14.8-15.5-28.5-23c-11.3-6.2-22.9-12.5-36.7-10.7c-24.5,3.2-37.6,29.7-38.7,32c-10.1,21.3-4.5,42.4,4,74
		c3.9,14.4,9.7,28.7,21.3,56.7c16.5,39.8,24.7,59.7,32,70c21,29.8,51.3,55.3,51.3,55.3c13.3,11.2,30.5,23.6,28.7,38
		c-0.9,7.3-6.2,10.8-4.7,18c1.8,8.6,11.9,15.9,20.7,15.3c11.3-0.7,22.7-14.8,20.5-33.6"/>
	<path fill="none" stroke="#000000" stroke-width="18" stroke-linecap="round" stroke-linejoin="round" stroke-miterlimit="10" d="
		M618.9,473.2c18.9-14.5,44.8-37.5,68.7-71.3c15.2-21.6,23.6-39,32.7-58c30.2-63.4,37.2-110.7,27.3-128.7
		c-6.2-11.4-15.3-14.7-15.3-14.7c-3-1-8.2-2.2-14-0.7c-3.8,1-7.2,3-13.2,9.1c-11,11.2-11.5,16.2-19.3,23.3c-3.3,3-8.6,7.1-17,10.3"
		/>
	<path fill="none" stroke="#000000" stroke-width="18" stroke-linecap="round" stroke-linejoin="round" stroke-miterlimit="10" d="
		M672.3,204.9c5.5-6.3,14.8-15.5,28.5-23c11.3-6.2,22.9-12.5,36.7-10.7c24.5,3.2,37.6,29.7,38.7,32c10.1,21.3,4.5,42.4-4,74
		c-5.7,21.4-12.3,36.3-21.3,56.7c-9.8,22-18.9,42.5-35.2,67.1c-10.4,15.7-25.9,36.4-48.1,58.2c-13.3,11.2-30.5,23.6-28.7,38
		c0.9,7.3,6.2,10.8,4.7,18c-1.8,8.6-11.9,15.9-20.7,15.3c-11.3-0.7-22.7-14.8-20.5-33.6"/>
</g>
<g id="vs-h-reveal">
	
		<path opacity="0" fill="none" stroke="#000000" stroke-width="83" stroke-linecap="round" stroke-linejoin="round" stroke-miterlimit="10" d="
		M411.6,170.4c-12,1.5-23.3,7.7-30.9,17c22,0.9,43.9,1.9,65.9,2.8c6.7,0.3,15.5,2.5,15.7,9.3c-19.6-1-39.2-1.9-58.8-2.9
		c-6.1-0.3-12.4-0.5-18,1.9c-5.6,2.4-10.1,8.4-8.8,14.3c91.6-10.1,183.3-20.3,274.9-30.4c-3.7,16.1-25,19.1-41.6,19.1
		c-65.1-0.3-130.2,5.3-194.2,16.6c-3.9,0.7-8.9,3.3-7.5,7c76.4,9,152.9-17.7,229.8-16.2c-28.2,20.5-65.8,20.8-100.7,20.3
		c-29.9-0.4-59.8-0.8-89.7-1.2c-25-0.3-52,0-71.8,15.3c26.8,3.7,53.9,4.7,80.9,3c0.5,7.7-7.7,12.7-14.9,15.5
		c-22.7,8.7-47.1,12.9-71.5,12.3c1.2,6.4,9.5,7.9,15.9,8c23.9,0.3,47.9,0.6,71.8,0.9c-0.8,8.1-10.4,11.8-18.3,13.8
		c-22.9,5.6-45.8,11.2-68.7,16.7c29.6-1.8,59.2-3.5,88.8-5.3c-22.6,10.1-45.3,20.2-67.9,30.3c22.2-0.3,44.3,1,66.3,3.8
		c-29.3,14.1-58.9,27.6-88.8,40.6c32-7.3,64.4-14.6,97.2-13.5c-24.6,13-49.3,26-73.9,39c21.7,2,42.8,9.7,60.7,22.1
		c-12.9,7.1-25.7,14.3-38.6,21.4c23.2-6.5,47.4-9.5,71.4-8.9c-22.1,10.3-44.4,19.9-67,28.8c24.1,0.8,48.4-0.7,72.2-4.4
		c-17.5,10.1-35.5,19.5-53.9,27.9c21.5-1.7,43-3.4,64.4-5.1c-21.8,8.1-43.6,16.3-65.3,24.4c67.5-0.2,135-13.1,197.8-37.8
		c1.4,8.4-8.1,14.1-16.2,16.9c-44.7,15.4-92.7,20-136.9,36.6c-4.7,1.8-10.1,7-6.6,10.5c46.9-6.8,93.6-14.6,140.2-23.2
		c2.7,4.9-2.7,10.4-7.7,13c-44.2,23.2-100.8,9.2-145.6,31.3c22.8,8.1,47.7,0.6,71.5-3.8c19-3.5,38.3-5,57.6-4.4
		c-14.2,18-38.9,23.9-61.8,25.6c-22.9,1.7-46.6,0.5-68,8.8c23.7,18.4,59.4-2.2,87.8,7.4c-28.5,9.9-58,16.8-87.9,20.7
		c26.3,2.4,52.7,4.9,79,7.3c-28.3,6.1-56.6,12.2-84.8,18.3c18,2.2,36,4.3,54,6.5c-30.3,10.5-61.1,19.9-92.1,28.2
		c11.9,7.8,27.6,3.2,41.2-0.7c13.7-3.9,30.9-5.7,39.8,5.4c-27.6,4.2-54.8,11.5-80.8,21.7c39.9-4.8,80.1-7.2,120.3-7.1
		c-40.2,9.6-80.8,17.5-121.7,23.6c45.7,1.1,91.4,2.1,137.1,3.2c-46.4,28.7-113.7,4.1-157.1,37.1c45.2,1.3,90.4,2.7,135.6,4
		c-29.7,7-59.3,14.1-89,21.1c23.8,1,47.6,2.1,71.4,3.1c-2.7,5.6-7.1,10.4-12.5,13.7c17.9,13.1,44.9,11.7,61.4-3.2"/>
</g>
</svg>
