<?xml version="1.0" encoding="utf-8"?>
<!-- Generator: Adobe Illustrator 21.1.0, SVG Export Plug-In . SVG Version: 6.00 Build 0)  -->
<svg version="1.1" xmlns="http://www.w3.org/2000/svg" xmlns:xlink="http://www.w3.org/1999/xlink" x="0px" y="0px" width="1000px"
	 height="1000px" viewBox="0 0 1000 1000" enable-background="new 0 0 1000 1000" xml:space="preserve">
<g id="vs-skin">
	<path fill="#C27C5E" d="M618,240.8c-3.5-0.9-4.3-6.4-6.6-6c-2.4,0.4-3.8,6.5-3.9,11c-0.2,5.8,1.8,6.9,2.4,14.7
		c0.1,1.7,0.4,5.5-0.2,9.9c-0.8,5.6-2.8,9.3-5.2,14.1c0,0-5.9,11.7-12.5,26.3c-4.5,9.8-4.9,11.9-5,14c-0.5,7.5,2.6,13.2,5.2,18.1
		c3.2,6.1,10.8,22.2,14.6,32.7c4.4,12.3,5.1,22.5,5.5,28.3c1,15.8-2.4,18.9-6,44.9c-1.8,13.1-2.4,25-3.7,48.7
		c-0.6,11.4-1.1,20.4-1.3,32.3c-0.2,17.8,0.4,34.1,1.5,48.7c30.7-22.2,61.3-44.4,92-66.7c-2.3-3.8-4.6-8.4-6.7-13.7
		c-4-10.5-5.3-19.9-5.7-27c-2.6,6.8-5.9,14.4-10.3,22.3c-3.1,5.6-6.2,10.6-9.3,15c-3.7-22.6-6.9-46.4-9.3-71.3
		c-1.2-12.5-2.2-24.8-3-36.8c3.6-14,6.6-24.8,8.7-32c2.2-7.7,4.2-14.4,5.3-24.2c0.6-5.3,0.6-9.1,0.6-13.7c0-9.8,0-22.2,0-36.8
		c1.5,3.6,4.2,8.6,8.7,13.7c4.1,4.5,7.9,7,15.5,11.9c6.3,4.1,11,6.5,20.4,11.2c3.1,1.6,9.7,4.9,18.5,8c6.2,2.2,8.5,2.5,10.8,2.3
		c7.1-0.8,11.8-6.5,13.7-9.2c4.6,9.4,9.2,18.8,13.7,28.2c6.2-7.8,13.2-17.9,19.6-30.5c5.4-10.7,9.1-20.6,11.6-29.2
		c-2.7-7.9-9.1-26.3-11-31.9c-5.4-15.5-8.1-23.4-12.8-30.1c-6.3-9-13.1-14.4-17.6-17.8c-2.2-1.7-12.3-9.3-28.9-15.5
		c-30.4-11.3-65.3-11.2-77-10.9c-1.5,5-4.2,12.4-8.7,20.9C639.5,218.2,626.2,242.9,618,240.8z"/>
	<path fill="#C27C5E" d="M853,598.7c-10.5,4.3-21.7,8.5-33.7,12.3c-27.8,9-53.8,14.6-77,18.1c-4.2-0.6-10.3-1.8-17.5-4.3
		c-5.1-1.8-8.3-3.3-12.2-5.1c-5.7-2.5-13.9-5.9-24.7-9.2c-13.9-0.8-28.3-1.8-43.1-3.1c-12.5-1.1-24.6-2.4-36.4-3.9
		c0.2,0.8,1.1,4.3-0.8,7c-1.7,2.4-4.6,2.7-7.5,3.1c-2.3,0.3-6.4,0.4-11.5-1.5c0.7,3.5,2.4,8.8,6.3,14c8.4,11.1,20.7,13.5,24,14
		c2.6,13.9,9.6,25,18.4,28.2c4,1.5,7.6,1.6,7.6,1.6c6.2,0.2,9.3-2.4,16-4.2c3.9-1.1,4.3-0.5,13.5-1.4c6.9-0.7,12.8-1.6,24.5-3.6
		c5.7-1,12.9-2.2,21.3-3.9c15.4,2.8,31.8,5.2,49,7c46.2,4.6,88,3.4,123.7-0.3c2.4,0.8,7.8,2.1,13.3-0.2c3.2-1.3,5.7-3.5,8.9-7.7
		c7.5-9.9,10.7-19.6,11.4-21.7c2.2-6.8,4.8-18,4.1-32.4c-2.5-3.2-5.7-6.6-10.1-9.5c-3.8-2.5-7.1-3.7-13.8-6.1
		c-7.2-2.6-10.7-3.8-13.6-4c-7-0.3-12.5,2.5-18.3,5.3c-5,2.5-6.1,3.9-13,7.3C858.2,596.5,855.1,597.9,853,598.7z"/>
	<path fill="#C27C5E" d="M587.3,827.6c-3.6-2.2-12.6,6.9-13.7,8c-2.7,2.7-8.1,8.3-10.3,17.4c-1.3,5.4-0.8,9.6-0.3,14.7
		c0.7,7.2,1.1,10.8,3.3,12.8c3.5,3.2,7.7,0.7,23.4-0.5c8.8-0.7,18.2-0.7,20-0.7c10.3,0,15,0.6,15.3-0.7c0.4-1.4-5.5-3.2-14.7-9
		c-6.9-4.4-11.4-7.2-15.3-12.7c-4.8-6.6-6.1-13.5-6.3-14.7C587.1,833.7,589.6,829,587.3,827.6z"/>
	<path fill="#C27C5E" d="M269.3,746.7c5.2,4.9,11.7,12.3,17.2,22.5c9.2,17.2,10.5,33.5,10.5,42.3c-17.2,6.2-34.4,12.3-51.5,18.5
		c-7.4,1.6-18.4,3-31.1,0.4c-30.1-6-46.8-28.8-50.9-34.9c6.5-2.3,16-5.8,27.5-10.2c21.8-8.3,33-12.6,45-18.7
		C244.3,762.5,256,756.1,269.3,746.7z"/>
</g>
<g id="vs-hair">
	<path d="M650.5,147.6c-8.9,3.7-22.6,11-33.1,25.1c-4.8,6.4-11.3,17.3-16.3,51.2c-2.5,17-4.8,40.5-3.6,69.1
		c4.7-8.1,9.4-16.2,14.1-24.2c-2-3-6.2-10.4-5.8-19.4c0.1-1.4,0.3-5.5,2.7-10c0.9-1.7,2.8-5.3,4.7-5.1c2.1,0.2,1.8,5,5,6.5
		c2.8,1.3,6.3-0.8,7.3-1.4c4-2.4,5.4-6.1,7.6-10.7c4.9-10.2,5.8-7.8,10.7-18.3c1.9-4,4.3-9.5,6.3-16.6c11.2-1.2,28.6-1.9,49.1,2.2
		c16.9,3.4,40.2,8,59.6,26.4c11.9,11.2,17.1,22.7,27.6,45.7c9.1,20,14.5,37.6,17.8,50.3c3-5.1,6.6-12.6,7.6-22.1
		c1.2-10.5-1.3-19-0.1-19.3c1.2-0.3,3.3,8.2,10.1,20.3c3.6,6.4,5.4,9.6,8.6,12.5c4.7,4.3,8.2,4.4,23,9.1c15.9,5,19.9,7.3,21.4,5.5
		c1.6-2-1.5-6.6-8.7-19c-4.1-7.2-7.8-14.7-12-21.9c-3.5-5.9-15.5-26.3-24.3-44.2c-14.4-29.6-10.5-33.7-23.1-52
		c-9.7-14.1-19.5-22.7-23-25.7c-9.4-7.9-17.1-11.9-32.4-19.9c-23.6-12.2-36.6-15.6-40.5-16.5c-14.8-3.6-22.5-2.9-28.7-0.9
		c-1.5,0.5-7.6,2.5-14,7.6c-6.9,5.5-10.7,11.6-12.6,15.4"/>
	<path d="M669.6,302.3c0,0,3.8,5.3,8.2,9.5c4.5,4.3,8.9,6.4,12.7,8.2c20.3,9.5,41.7,18.9,44.6,20.2c-3.8,4.4-7.7,9.9-11,16.5
		c-2,3.9-4.4,8.7-6,15.3c-2.5,10.4,0.3,11.8-2.7,19.3c-2.1,5.4-4,5.7-7.1,13.3c-0.6,1.3-2.4,5.8-3.3,10.7c-1.7,8.7,0.3,13.3,1.1,22
		c0.7,8-0.8,5.9-2.3,27.6c-0.6,9-0.7,14.7-2,25.4c-1.6,14.1-3,16.9-4.6,17.2c-2.9,0.5-6.4-6.5-7.4-8.4c-7.6-15.2-4-30.5-6.1-30.9
		c-2.1-0.4-5.1,14.8-8.3,14.6c-2-0.2-2.7-6.2-6.3-25.2c-1.8-9.3-2.7-14-3.7-17.7c-0.7-2.6-1.6-5.7-7.8-22.5
		c-5.6-15.3-6.4-16.8-6.4-20.7c0-3.3,0.5-4.1,4.8-18.5c3.6-12,5.4-18.1,6.4-22.8c0.7-3.4,2-10.9,2.4-20.5c0.2-4.3,0-8.9-0.3-18.1
		c-0.5-14.9-1.1-21,0.3-21.3C665.7,295.5,666.4,297.7,669.6,302.3z"/>
</g>
<g id="vs-primary">
	<path fill="#FCD2D9" d="M745.8,338.5c-6.3,4-8.7,2.1-13.4,5.1c-3,1.9-5.2,6.3-9.6,15.1c-6,11.9-5.8,16.1-5.7,17.7
		c0.3,3,1.1,3.9,0.7,6.3c-0.8,5.4-6,9-10.3,11.3c-0.5,4.7-1.1,10.5-1.5,17.3c-0.2,3.8-0.6,10.7-0.7,19.3c-0.2,17.1,0.9,16,0.2,22.7
		c-1.2,12.2-4.7,14.3-7,26c-1.2,6.2-2.1,15.4,0,27.3c8.7-6.4,17.5-12.8,26.2-19.1c50.7,29.3,101.3,58.7,152,88
		c-10,13.1-11.6,16.7-10.9,17.3c1,0.9,5.7-4.9,15.7-8.4c3.5-1.2,10.7-3.7,18.7-1.6c3.5,0.9,2.4,1.5,8.4,3.7
		c7.6,2.8,10.5,2.3,15.1,5.6c2.9,2.1,4.3,4.1,5,5c1.2,1.9,1.9,3.9,2.4,6.3c1.4,7.3-0.5,14.9-1,16.7c-6.2,24.7-5.2,27.1-9.8,32.3
		c-3.5,3.9-7.1,6-9.5,7.4c-6.7,3.8-13.3,5.1-23.1,5.8c-14.8,1.1-20.4-0.4-35-0.3c-11.8,0-18.6,1-26,1.6c-14.5,1.2-35.9,1.3-66.2-3.8
		c-12.9-2.2-25.7-4.3-38.6-6.5c-10.8,3-21.6,6-32.4,9c20.6,11.2,37.9,18.7,50,23.4c19.7,7.7,18.8,5.7,34.2,12.4
		c26,11.4,32.7,19,46.5,18.1c3.7-0.3,9.3-1.2,14.8,1.9c4.2,2.4,5,5.2,11.3,10.3c0,0,4.1,3.3,9,6c4.2,2.3,12.2,5.9,24.2,6.6
		c5.8,2.1,14.7,5.7,24.7,11.8c14.9,9.1,19.5,15.9,30.7,18.6c5.7,1.4,14.5,2,26.7-2.8c-1-4.1-2.1-10.6-1-18.2
		c1.2-8.2,3.7-10.4,6.3-20.6c2.7-10.6,2.7-19.2,2.6-22.4c-0.1-5.7-1-14.5-4.8-24.7c2.8-5.4,5.5-10.8,8.3-16.2c-6.3-9-8.6-17-9.6-22
		c-1.5-7.5-1-13.5,0-24.5c1-12.1,2.2-12,2.9-21.9c1-13.6-1.2-13.2-0.6-28.3c0.5-12.1,2.1-15.7,0.8-25.3c-0.8-6-2.2-10.4-3.3-14
		c-5.2-16.3-10.1-30.8-14-42.3c-0.1-12.1,0.3-25.4,1.5-39.5c1.1-13.2,2.8-25.5,4.7-36.9c-1.7-5.9-4.4-13.9-8.9-23
		c-3.4-6.8-6.9-13.8-13.3-21.3c-6.2-7.2-9.3-8.1-20-17.4c-14.3-12.5-11.4-13.1-19.1-18.7c-12.7-9.2-20.8-7.3-48.3-17.6
		c-7.5-2.8-13.5-5.4-17-7c-9.5-19.9-13.1-23.5-14.7-23c-1.8,0.6-0.6,6.5-3,18c-1,5.1-2.8,13.5-5.3,13.7c-3.6,0.2-5.7-16.1-9.3-16
		c-2.2,0.1-2.8,6.1-6.3,17c-3.6,11.3-7.7,19.9-12.7,27c-4.2,6-7.5,10.8-11.3,10.3c-4.8-0.5-9.2-8.8-10.3-15.7
		c-0.7-4.3,0-7.4-1.6-8.1C752.3,332.5,750.4,335.5,745.8,338.5z"/>
</g>
<g id="vs-secondary">
	<path fill="#27A8CB" d="M583.7,606.7c-14.8-11.5-29.5-23.1-44.3-34.6c-6.6-1.9-16.5-3.6-28.2-1.7c-11.2,1.8-18.9,6.2-25.9,10.1
		c-9.1,5.1-14.9,10.1-23.1,17.2c-12.2,10.5-13.6,13.9-24.7,23.3c-9.3,7.9-16.7,12.8-20.9,15.6c-17.2,11.6-68.8,48.9-149.6,107.9
		c1.9,3.2,4.8,7.8,8.7,13.2c8.8,12.3,10.3,11.5,13.6,17.2c8.5,14.3,1.1,22.7,10.7,37.3c2.5,3.8,5.3,7.9,10.3,9.5
		c5.6,1.7,10.4-1,21.7-7.1c2.1-1.1,19.7-10.6,30.4-15.9c7.8-3.8,7.7-3.4,23.5-10.6c0.7-0.3,16.9-7.7,27.7-13.1
		c18.2-9,33.3-19,63.5-39c10.3-6.8,17.1-11.6,22.4-20.5c4.5-7.8,6.7-16.8,8.5-16.5c2,0.4-0.6,12.1,4,14.5c3.8,2,7.7-4.9,15-4.2
		c7.9,0.8,13,9.9,13.8,11.1c2.4,4.2,1.5,5.6,4.4,11.5c0.3,0.6,2.8,5.8,7.2,10.7c6.8,7.7,9.5,5.2,20.7,14.3
		c7.8,6.4,9.2,9.7,14.9,10.9c2.3,0.4,5.1,0.5,6.3,2.4c1.2,2.1-0.4,4.6-1.4,7.8c-0.6,2-1,4.5,0.9,15.4c2.7,15.2,4.1,14.2,4.3,19.5
		c0.3,12.2-7.4,13.6-7.4,25.3c0.1,6.8,2.7,16.5,9.7,22c4.2,3.3,8.1,3.6,16.2,9.7c1.1,0.8,2.7,2.1,5.1,3.6c4,2.5,7.6,4.1,10,5
		c7.2-0.9,18.3-3.1,30.3-9.3c14.1-7.3,23.1-16.7,28-22.7c2,6,5.1,9.3,7,11c4.9,4.4,10.8,5.6,21,7.6c8.6,1.7,7.7,0.5,11.5,1.8
		c9.4,3.2,10.7,9,19.4,13.3c1.8,0.9,4.2,1.9,15.8,3.5c19.9,2.8,35.7,3.2,39.3,3.2c4.8,0.1,12.2,0,27-0.1c16.2-0.1,32.4-0.7,48.6-0.6
		c19.8,0.1,24.1,0.8,33-1.6c12.6-3.4,20.9-9.3,23.3-11.1c12-8.9,17.7-19.5,19.3-22.7c1.7-3.4,5.3-11.2,6.9-28
		c1.1-11.3,1.5-28.7-3.3-50.3c-3.6,0.7-8.9,1.4-15.2,0.9c-4.9-0.4-11.2-1.6-24-7.7c-13.8-6.5-14.4-8.8-31.7-17.3
		c-9-4.4-13.8-6.3-19.7-7.3c-7.2-1.3-8.1,0-13-1.7c-7.5-2.6-7.8-6.4-18-13c-3.9-2.5-8.2-5.3-14.3-7c-8.3-2.3-11.3-0.3-19.3-1.7
		c-7.6-1.3-10.8-4.2-19.3-8.7c-12.5-6.6-20.1-8.2-29.7-11.7c-12.1-4.4-32-13.7-66-35c-15.2-0.7-24.6,1.8-30.3,4.3
		c-2.3,1-7.8,3.6-15,3c0,0-4.5-0.4-8.7-2.3c-8.5-4-14.4-14.8-15.7-27.7c-3.7-0.5-8.6-1.8-13.7-4.7c-8.3-4.7-12.7-11.2-15.3-15.3
		C586.8,615,584.8,610.3,583.7,606.7z"/>
</g>
<g id="vs-colour">
	<path fill="#FF5648" d="M492.5,516c7.2,7.5,42.2,34.1,94,72.3c46-33.6,92-67.2,138-100.8c50.2,29.1,100.5,58.2,150.7,87.2
		c-9.2,9.4-18.3,18.7-27.5,28.1c-23.9,6.4-47.8,12.8-71.7,19.2c-13.1,6.1-24.2,6.7-30.3,6.5c-9.8-0.3-18.1-2.9-22.4-4.2
		c-4.4-1.4-9.2-3.4-18.7-7.3c-10.1-4.2-10.8-4.8-14.2-5.7c-9.3-2.6-16.9-2-20-1.9c-8.9,0.5-25.8-0.3-60.5-6.4
		c-1.4,1.2-3.3,3.2-4,5.9c-0.9,3.6,0.7,5.8-0.5,6.9c-2,1.8-8.7-2.5-10.7-3.8c-2.4-1.5-3.6-2.3-5.8-4.5
		c-3.8-3.8-32.6-26.4-116.4-90.4c2.3-2.8,5.9-6.2,10.4-6.3C487.9,511,491.5,514.9,492.5,516z"/>
	<path fill="#FF5648" d="M685.9,664.6c5.3-1.5,12.3-3.4,20.8-5.6c6-1.6,9.1-2.4,13.6-2.2c3.1,0.1,3.7,0.6,11.8,2.1
		c7.8,1.4,8.6,1.3,14.3,2.4c3.7,0.7,9,1.9,15.6,3.8c-8.3,7.7-16.5,15.4-24.8,23.2C720.1,680.3,703,672.5,685.9,664.6z"/>
	<path fill="#F4ECCE" d="M514,529.7c1.9-3,22.6,5.7,62,26.3c9.3,6.5,18.7,13,28,19.5c-6.3,4.6-12.7,9.2-19,13.9
		C535.4,553.1,511.8,533.2,514,529.7z"/>
	<path fill="#FFFFFF" d="M700,316.8c-1.7-2,0.5-6.8,2.1-9.3c1.9-2.9,4.4-4.3,9-6.5c10.9-5.1,16.8-7.9,18.3-6.1
		c1.7,2.1-3.2,9.3-8.1,13.8C713.8,315.6,702.6,319.7,700,316.8z"/>
	<path fill="#FFDB80" d="M585.7,818.7c-1.7-3.2-14.5,6.1-30,1.3c-7.9-2.4-9.4-6.3-20.6-9.4c-5.4-1.5-9.4-1.8-15.7-2.3
		c-10.7-0.8-19.6-1.4-30.5,0.4c-8.5,1.4-20.9,3.5-32.2,12.9c-5.7,4.7-13.4,11.1-13.6,21c-0.2,8.1,5.1,14.1,8.8,18.2
		c7.9,8.9,17.6,13.6,26.4,16.5c31.8,10.4,75.4,5.7,84.8,4.6c-2.6-5.2-6.5-15-3.7-25.7c1.3-4.9,3.6-8.1,7.7-14
		C577.9,826.8,587.1,821.3,585.7,818.7z"/>
	<path fill="#FFDB80" d="M154.4,800.9c-8.9,5.2-20.4,11.7-35.4,17.4c-7.2,2.7-14.9,5.6-25.8,7.6c-14.1,2.5-28.2,2.5-29.6,2.5
		c-13.4-0.1-17.1-1.7-23.6,1.3c-5.1,2.4-12.6,7.9-12.7,14.8c-0.1,6.7,6.7,11.4,14.7,16.9c13.6,9.2,18.3,6.8,40.9,17.2
		c9.9,4.6,13,6.9,19.9,7.3c7.8,0.5,11.3-1.9,21.2-3.4c8.7-1.3,15-0.8,24.7,0c20.9,1.7,23.8,6.3,46.4,9c10.2,1.2,16.9,2,26.1,0.7
		c12.5-1.8,22.2-6.4,28.3-10c0.7-7.4,1.2-15.4,1.3-24c0.1-10-0.3-19.2-1-27.7c-5.6,1.2-13.7,2.3-23.3,1.7
		c-20.5-1.3-34.5-9.6-37.3-11.3c-13.9-8.4-21.9-19.2-25.8-25.5C161.4,796.8,158.3,798.7,154.4,800.9z"/>
</g>
<g id="vs-shade">
	<path opacity="0.4" d="M626.3,277.3c-3.4,7.2-7.2,6.2-10.8,13.8c-3.2,6.9-0.7,9.1-4,14.8c-4.4,7.7-12.4,9.9-11.8,11
		c0.5,1,7.6-0.8,14-3.7c4.1-1.8,6.5-3.5,7-3c0.6,0.7-3.3,3.9-6.3,9c-4.7,7.8-5.4,16.6-4.3,17c1.2,0.4,6.9-8.1,10.3-16.3
		c0.1-0.3,1.9-4.7,6-8.7c2.1-2.1,3.4-2.6,4.3-2.3c1.7,0.5,1.4,2.9,3.3,4.3c2.2,1.5,5.8,0.9,8-0.7c3.4-2.4,3.8-6.9,4-10.3
		c0.1-1.8,0.3-4.7-1-8c-0.9-2.1-1.9-3.1-1.5-3.6c0.7-0.8,4.9,0.9,7.8,3.9c3.2,3.3,4,7.3,4.3,9c2.9,15.4,3,28.9,4.3,29
		c0.8,0.1,1.4-5.6,4.5-17c2.8-10.5,4.6-14.2,2.6-18.8c-1.1-2.5-2.9-4.2-5.8-6.8c-3.9-3.5-5.9-4-9.8-6.6c-8-5.4-13.1-12.7-15.1-15.5
		c-3.7-5.2-4.7-8.3-6.1-8C628.1,260.5,630.5,268.6,626.3,277.3z"/>
	<path opacity="0.4" d="M649.7,194.7c1.1-0.3,2.9-0.6,5-1c16.9-3,27-0.3,46.7,1.7c24.9,2.5,24.9,0,38,3.3c13.6,3.5,21.9,8.3,22.7,7
		c0.8-1.5-8.8-10.7-22-15.7c-5.5-2.1-6.9-1.6-40.7-3c-12.2-0.5-24.6-4.8-36.7-2.7c-1.3,0.2-6.2,1.2-7.7-1c-0.8-1.2-0.2-2.8,0.3-4.3
		c1.8-5.4-0.1-3.1,2.3-12.7c1.7-6.8,3.8-12.2,5-15.3c5.8-14.8,10.9-21.4,9.8-22.3c-0.9-0.7-4.1,4-14.4,12.3
		c-1.6,1.3-3.5,2.8-5.3,5.5c-2.5,3.9-2.9,7.7-3.1,9.2c-0.8,7-2.3,19.4-4.3,26.7c-0.6,2-4.4,15-15.7,24c-6.5,5.2-9.7,4.5-15.7,10.7
		c-7.3,7.5-9.3,15.5-9.7,15.3c-0.4-0.2,3-12.9,12-27c7.9-12.4,14.9-17.7,14.3-18.3c-0.9-0.9-17.1,8.1-25.7,25.3
		c-3.4,6.9-4.6,12.9-5.7,22.7c-2.5,22.2-4.8,62.3,0.3,63c3.1,0.4,8.2-13.5,9.7-24.7c1.1-9,0.3-16,0.3-16c-1.1-9.4-3.9-13.5-1.3-17.7
		c2-3.2,6.5-5.2,9-4c3,1.4,1.8,6.5,4,7.3c3.4,1.2,10.3-9.4,13-13.7c2.7-4.2,6.4-10.6,10.2-19.8C646.9,203.5,648.6,198.4,649.7,194.7
		z"/>
	<path opacity="0.4" d="M684.7,251.7c-3-2.4-3.6-6-3.7-6.8c-0.2-1.5,0.1-2.8,0.7-5.3c0.6-2.5,1-4.7,2.2-6.7c2.6-4.5,7.2-5.9,7-6.2
		c-0.2-0.4-9.9,2-15.5,7c-0.5,0.4-1.6,1.5-2.3,1.2c-1.1-0.5-0.4-4.3,0-6.2c0.6-2.8,1.2-5.8,3.2-9.2c3.6-6.1,8.9-8.2,8.7-8.5
		c-0.3-0.5-12.2,2.9-15.2,11.5c-1.6,4.6,0.9,6.5-1.5,11.8c-1.7,3.8-4.3,6.2-3.3,9c0.3,1,1,1.6,1.8,2.3c6.9,6.4,6.3,8.9,10.7,10.8
		c2.7,1.2,5.1,1.3,7.3,1.3c1.5,0,4.9,0,8.3-1.2c9-3.1,13.8-12.8,13-13.5c-0.1-0.1-0.4,0-9.8,6.3c-3.7,2.5-6.4,4.3-9.2,3.5
		C686,252.7,685.3,252.2,684.7,251.7z"/>
	<path opacity="0.4" d="M642.8,273.5c1,0.3,1.6-1.2,3.7-2.7c3-2.1,6.4-2.2,8.5-2.2c2.5,0,4.4,0,5.8,1.3c1.3,1.2,1.7,3.1,1.8,4
		c0.3,1.6,0,1.9,0.2,3.7c0.1,1.4,0.7,4.6,1.7,4.7c1.4,0.2,4.9-5.9,3.3-11.2c-1-3.5-3.8-7.1-7.3-7.8c-2.3-0.5-2.5,0.7-8.5,1.3
		c-3.3,0.3-4.4,0.1-6.3,1c-1,0.4-3.7,1.7-4.2,4.2C641.2,271.3,641.8,273.2,642.8,273.5z"/>
	<path opacity="0.4" d="M689.3,292L689.3,292c0.6-3.9,2.6-7,5.5-7.8c1.4-0.4,3.7-0.5,4.7,0.8c1.3,1.8-0.9,4.9-1.3,5.7
		c-1.3,2-3,3-4.1,3.5"/>
	<path opacity="0.4" d="M702.3,279.2c-0.5-1.6-1.6-3.5-0.8-4.2c0.6-0.6,1.9,0.2,4.2,1c1.1,0.4,3.5,0.9,8.3,2
		c5.7,1.3,7.7,1.3,7.7,1.8c0,0.8-4.4,1.8-7.7,2.2c-2.5,0.3-3.5,0.1-4.7,1c-1.6,1.2-1.8,2.9-2.5,4.7c-2.1,5.1-7.9,8.1-8.8,7.3
		C696.8,294,704.6,286.4,702.3,279.2z"/>
	<path opacity="0.4" d="M753.2,222.2c-1.6,1.5,7.8,12.9,18.7,33.7c1.1,2.1,3.2,6.1,4.3,11.7c0.3,1.3,1.4,7.1,0.3,16
		c-0.9,7-2.3,18.6-10.3,28.5c-2.7,3.3-6.5,6.9-9.9,13.7c-1.8,3.5-3,7.1-1.6,9c0.7,1,1.5,0.6,2.8,1.4c3.1,2,2.3,5.7,5.3,12.3
		c1.4,3.1,2.4,5.1,4.2,5.5c2.4,0.5,4.9-2.2,6.9-4.6c6.6-8,10.1-16.1,11.8-20.3c4.5-10.8,6.7-16.2,7.5-22.2c0.8-6.3,0.4-11-0.2-16.2
		c-1.5-14.3-5.8-24.9-9.5-33.7c-3.8-9-5.7-13.6-10-19.2C765.5,227.6,754.6,220.8,753.2,222.2z"/>
	<path opacity="0.4" d="M804.7,312c3-0.4,4.2-22.1,0.7-45.7c-0.7-4.7-3.6-22.8-12-44.3c-2.3-5.9-5.3-13.5-10.7-23
		c-6.9-12.3-12.7-18.7-12-19.3c0.9-0.8,11.3,7.8,20,20.3c8.5,12.2,10.9,21.4,12.3,21c1.8-0.5,0.3-14.9-4.7-29.7
		c-6.8-20.1-16.9-31.5-16.4-31.9c0.7-0.5,19.3,17.9,30.7,47.9c3.8,10,1.6,7.5,8,27.7c3.9,12.1,3.7,10.1,20,51.7
		c3.8,9.8,5.7,14.7,10.3,20.7c8.1,10.5,17,14.4,16.1,16.2c-1.1,2.2-14.4-1.6-24.7-6.2c-5.9-2.6-10.6-5.4-13.7-7.3
		c-1.7,2.7-4.2,6.9-7.1,12c-5.8,10.2-9.4,17.7-10.9,20.7c-10.2,20.4-16.3,20.8-27.7,41.9c-10.3,19-12.3,31.8-16.7,31.3
		c-3.1-0.3-5.7-7-5-12.4c0.5-4.1,2.9-5.9,7.3-12.6c0.9-1.3,2.9-5,7-12.3c7.1-12.9,7.8-15.6,16-31.3c6.9-13.3,9.5-17.3,8.7-18
		c-2.3-1.8-24.3,24.5-26.7,22.7c-1.6-1.2,9.8-12.2,17.3-33.7c2.2-6.1,4.2-13.6,7.3-13.6C801.5,304.7,802.9,312.2,804.7,312z"/>
	<path opacity="0.4" d="M738.7,340.6c-9.3,2.6-13.8,16.9-16.3,24.7c-2.4,7.5-3.6,11.2-2,14.3c1.1,2.1,2.5,2.7,15.4,11.1
		c3.7,2.4,5.5,3.6,6.6,5.9c1.6,3.5,0.2,6.1-0.3,10.7c-0.6,5.7,2.2,13,7.9,27.5c2.8,7.2,3.4,7.7,4,7.7c3.8,0,7.2-20.3,6.4-34.8
		c-0.3-5.3-0.5-9.1-2.7-13.4c-2.1-4.2-4.3-5.5-5-9.3c-0.5-2.9,0.2-5.7,2.6-10.7c2.2-4.5,5.7-10.9,11.4-18
		c-8.9-21.3-13.1-25.5-15.3-25c-2,0.5-2.5,4.9-7.7,7.7C741.6,340.1,740.1,340.2,738.7,340.6z"/>
	<path opacity="0.4" d="M660.3,360.9c-3.2,17.8-3.9,19.5-4.3,25.1c-0.3,3.8-0.8,10.1,0.3,18c1.7,12,6.3,22.7,7.7,22.3
		c0.8-0.2-0.1-4.5-0.3-15.3c-0.3-10.5,0.3-18.2,0.7-23c0.5-6.9,1.6-21.3,3.3-21.3c0.6,0,1.3,1.4,5,25.3c1.8,11.4,2.6,17.1,3.3,23
		c2.1,18.2,0.8,17.2,2.7,27.3c1.8,9.7,3.4,12.8,4.7,23.7c0.9,7.4,0.3,7.7,1,13c2,15.1,8.6,28.6,10.4,28.2c1.7-0.4-2.1-12.8-3.4-37.2
		c-0.9-17.1,0.6-18-0.3-34.3c-1.4-25-5.8-39.6-4.3-40c1.4-0.4,7.8,14.1,11,31.3c4.1,21.9,1.2,37.8,2.7,38c1.3,0.1,5.4-12.6,5.7-27.7
		c0.3-15-3.5-18.1-0.3-27.3c2.7-8,6.6-8.9,9.7-18.7c2.3-7.4,1.8-12.5,2.1-16.9c0.5-8.5,4.3-20.5,19.1-35.3
		c-10.9-4.2-22.5-9.1-34.5-14.8c-11-5.3-17.5-6.2-24.2-12.5c-6.8-6.4-9.4-12.9-11.5-12.1c-2.2,0.8,0.7,8.7,0,23
		c-0.3,5.2-1.5,12.4-4,27C661.6,354.1,660.9,357.7,660.3,360.9z"/>
	<path opacity="0.4" d="M656.7,359.3c-2.5-1.1-8.1,6.5-8.7,7.3c-4.3,5.9-5.7,11.7-6,13c-4.5,19.2-1.7,37.3-1.7,37.3
		c3.3,21.2,5.4,42.5,8.3,63.7c3.1,23,4.1,33.5-0.2,46.5c-3,9.1-7.5,16-10.8,20.5c9.5-3.7,16-7.8,20.3-11c8.1-6,9.9-9.7,17-13
		c1.1-0.5,3.1-1.4,4.8-3.5c2.5-3.3,2.4-7.4,2.2-10.5c-0.4-6.7-1.4-22.3-4.3-22.3c-1.6,0-2,4.8-6.3,13.7c-2.5,5.2-5.2,9.1-7,11.7
		c-3.3-23.2-6.6-41.8-9-54.7c-6.5-34.4-10.1-44.4-5.3-57.7c0.2-0.6,3.8-10.6,6.3-24.3C657.6,369,659.1,360.4,656.7,359.3z"/>
	<path opacity="0.4" d="M716.3,378.7c0.7,0,1.3,14.1,4.7,19.7c1.4,2.2,3,4.7,3,4.7c1,1.5,1.5,2.2,2.3,3.3c2.7,3.9,4.1,5.8,4.3,6.7
		c1.4,4.9-9.3,8.4-14.7,17.7c-3.2,5.6-1.3,7.8-2.3,26c-1.1,18.3-3.7,27.5-2,28c1.1,0.3,4.3-5.9,10.7-18.3
		c9.4-18.4,12.6-24.7,13.7-24.3c1.7,0.6-4.3,17.3-3.3,31.3c0.9,12.5,1.3,14.3,1.3,14.3c0.6,2.5,1.5,5.2,0.7,5.7
		c-1.2,0.7-3.8-4.1-7.9-4.6c-3.7-0.4-6.5,2.9-10.8,7.2c-8.1,8.1-15,15-17.7,14c-2.8-1-1.1-9.9,3-36.7c3.3-21.7,3.8-25.9,4-31.3
		c0.4-13.4-1.6-24.5-3.3-31.7c3.7-2.9,8.2-7.4,11-14C716.7,387.6,715.7,378.7,716.3,378.7z"/>
	<path opacity="0.4" d="M811,347c-5,12.2-7.1,24.9-11.3,50.3c-1.3,7.5-2.3,15-4.3,30c-3,21.7-4.4,32.5-3.7,32.7
		c1.4,0.3,8.7-22.5,13.3-47.7c2.6-14.4,2.8-21,6.7-38c1-4.4,6.4-28,8.3-27.7c2.4,0.4-0.8,36.9-4,61c-0.6,4.8-1.4,11.7-3,25.7
		c-1.5,13.5-2.8,25.5-1.7,25.7c1.2,0.2,3.9-13.9,6.3-13.7c2,0.2,0.7,10.1,5.3,25.3c1.4,4.6,2.2,6,3,10.3c0.5,2.6,0.7,5.1,1,16.3
		c0.3,10.9,0,10.5,0.3,11.7c2.2,9,8.7,11,7.7,15.7c-0.2,0.9-0.9,2.7-9.3,7.3c-5.9,3.2-11.1,5.4-14.7,6.7c15.3,8.8,30.7,17.6,46,26.3
		c-2.5-4.2-2.9-7.5-2.7-9.8c0.2-3.2,1.5-4.1,1.7-8.6c0.2-3.8-0.5-5,0.5-6.2c1.5-1.7,4.3-0.7,8.2-0.6c3,0.1,6.2-0.8,12.7-2.7
		c12.6-3.6,12-5.6,16.7-5.8c7.4-0.2,8.8,4.9,19,9c13.1,5.4,26.1,3.2,26.3,1.8c0.2-1.2-9.8-0.6-17.3-8c-5.8-5.7-4.4-10.5-10.3-14.3
		c-5.5-3.5-11.9-2.9-14.7-2.7c-2.8,0.3-3.7,0.8-17.3,5.3c-6.9,2.3-8.7,2.8-10.7,2c-3.7-1.6-4.7-6.3-6-11.7
		c-4.9-19.4-7-15.7-9.3-29.3c-0.5-3.1-2-12.5-1.3-26c1.5-28.5,11.3-47.3,9.7-48c-1.2-0.5-7.8,9.6-12,23c-6.1,19.2-3.7,33.6-5,33.7
		c-1.5,0.1-8.2-19.5-3.7-41.7c2.1-10.2,5.3-14.4,5.3-25.7c0.1-11.5-3.2-23-5.7-23c-2.5,0-4.5,11.7-6.7,24c-2,11.2-2.1,16.9-3.3,17
		c-1.5,0.1-4-8.7-4.3-18c-0.4-10.6,2.3-14.4,7.7-37.3c3.2-13.7,1-7.1,4-20.7c2.4-10.8,4.3-17.4,0.7-22.3c-1.7-2.2-3.9-3.4-5.7-4
		c-1.8-1.9-4.4-3.9-6.7-3.3c-3.4,0.9-4.2,6.9-5.7,12.7C818.4,334.2,815.8,335.3,811,347z"/>
	<path opacity="0.4" d="M900.7,342c-1.4,1.1,4.2,11,7.3,16c2,3.2,3.3,4.8,11.3,15.7c6.7,9.1,7.9,10.7,7.7,11
		c-0.8,0.7-12.9-11.2-13.7-12c-10.9-10.8-15.3-16.8-16-16.3C896,357.2,908,377.2,915,389c2.7,4.5,4.9,9.2,7.7,13.7
		c2.3,3.8,3.5,5.5,4.3,8.7c0.9,3.6,0.2,4.8,0.3,11c0.2,7.9,1.5,11.7,0.7,12c-1.3,0.5-5.3-7.8-7-11.3c-11.5-23.9-15.2-36.6-16.3-36.3
		c-1.5,0.4-3.3,26.6,11,48.3c4.6,7,11,13.8,14,26c1,4.2,2,10.4,2.7,15c1,6.6,1.7,11.1,2,17c0.4,7.3-0.2,8,0,17.7
		c0.2,7.9,0.3,11.9,1,16c2.2,12.3,8.3,21.6,9.1,21.3c0.5-0.2-0.7-3.8-2.1-13.3c-0.9-6.3-0.8-7.9,0-8.3c1.8-1.1,6.5,3.7,8,5.3
		c10.7,11.2,13.6,23.6,14.6,23.3c1.1-0.3-1.3-15.3-6.6-35c-3.2-11.7-4.6-14.7-6-23.3c-1.4-8.7-1.5-15.2-1.7-24
		c-0.1-6.5-0.2-17.5,1.2-32c2.2-22,5.1-24.3,2.1-31.3c-3.6-8.4-8.8-7.6-15.3-19.7c-4.6-8.5-2.5-9.9-7.2-17.6
		c-1.1-1.8-2.9-4.5-16.2-17.4C902.2,341.9,901.1,341.7,900.7,342z"/>
	<path opacity="0.4" d="M947.3,559.7c-1.2-0.5-2,2.3-5,3.3c-3.2,1.2-5.8-0.6-13-3.3c-3.8-1.4-6.2-2.3-9-3c-7-1.7-13-0.9-22,0.3
		c-3.1,0.4-5.7,0.8-9.3,1.7c-6.1,1.5-15.6,4.8-15.3,6.7c0.1,0.4,0.6,1.2,17,2c7.9,0.4,15.7,0.7,15.7,0.7c13.1,0.5,14.7,0.5,17.3,2
		c0.3,0.2,6.6,4,8.3,11c0.4,1.6,0,1.4,0.7,7.7c0.7,6.6,1.2,8.1,0.3,8.7c-1.5,1.1-4.5-2.9-11.5-6.4c-1.4-0.7-2.4-1.2-14.6-5
		c-8.4-2.6-12.7-3.9-13.6-4c-4.2,0-6.9,1.3-19.3,8.7c-15.4,9.1-16.6,10.1-16.3,10.7c0.7,1.8,15.3-6,35.7-4.3
		c7.8,0.6,16.8,2.7,23.7,9c1.1,1,2.6,2.4,4,4.7c1.8,2.9,3.8,7.6,3,21.3c-0.6,9.6-2,15.9-0.7,16.3c1.4,0.5,3.2-5.7,7.3-6.3
		c4.1-0.6,7.9,4.7,9.7,7c11.8,15.2,30.7,24.8,32.7,23c1.6-1.5-6.8-13.5-11-19c-2.3-3-3.7-4.5-12-14.7c-6.5-7.9-7.6-9.5-8-12.3
		c-0.8-6,2.8-11.5,5.3-15.3c2.8-4.2,4.1-4.4,7.3-8.7c1.9-2.5,5.7-8,8-15.7c3.2-10.6,1.7-19.6,1-23.7c-0.2-1-1-8-2-8
		c-1.4,0,0.9,14.6-6.7,24c-1.6,2-3.6,3.6-6.7,8c-2.9,4.1-3.6,6.2-4.7,6c-1.7-0.3-3.4-6.8-1.7-12.7c1.6-5.4,4.6-6,6-12
		C948.8,564.5,948.8,560.2,947.3,559.7z"/>
	<path opacity="0.4" d="M616.7,572c32.8,11.6,72.1,22.7,117,30.3c30.8,5.2,59.4,7.9,85.2,9.1c-21.9,3.8-39,8.5-50.9,12.2
		c-10.2,3.2-17.1,5.8-27.6,5.4c-14.4-0.6-27.4-6.8-30.7-8.3c-10.2-4.9-14-9.2-24.3-11c-6.7-1.2-11.9-0.5-14-0.3
		c-10.3,1-28.2,0.5-61.3-6.3c0.2,1.9,0.7,6.8,1,11.9c0.1,1.1,0.1,2.7-0.4,4.6c-0.5,1.9-1.2,2.4-1.6,3.7c-1.5,4.2,2.5,7.6,1.3,9
		c-1.4,1.7-9.3-0.5-14.3-6c-1.8-1.9-1.5-2.4-6-8.7c-2.1-3-2.9-3.9-5-6.7c-2-2.7-4.8-6.6-8.1-11.6C590.1,590.2,603.4,581.1,616.7,572
		z"/>
	<path opacity="0.4" d="M898.7,659.3c0-0.9-5.7-0.7-15.3-4c-7.5-2.6-9.1-4.6-13.7-6.3c-9.2-3.6-15.8-0.8-33,2
		c-9.8,1.6-16.6,2.1-28.3,3c-21,1.6-37.7,0.3-50.3-0.7c-25.4-2-22.5-4.3-38.7-4.3c-3.9,0-16.1,0.1-40.3,0.3c-6.9,0.1-9.3,0.1-13-0.7
		c-10.6-2.2-15.1-7.4-20.3-5c-3.1,1.4-3.6,4.2-7.7,5c-3.3,0.6-6.1-0.7-6.3,0c-0.3,0.7,2.9,2,6.3,5.7c2,2.2,3.8,4,3.7,6.3
		c-0.1,2.6-2.4,3.2-2.3,5.3c0.1,2.6,3.5,5,6.7,5.7c3.7,0.8,5.2-1.3,11.7-3.7c8.8-3.3,8.8-0.6,19.7-4c2.7-0.8,5.6-1.9,8.6-0.7
		c2.6,1,4,3.2,4.3,3.7c2.5,3.6,13.3,10.2,42.9,22.5c9.6-8.2,19.2-16.4,28.7-24.5c17.4,1.1,42.2,2,72,1
		C870.8,664.8,898.7,661.3,898.7,659.3z"/>
	<path opacity="0.4" d="M967.1,680.9c-1.4-2-3.8-5-7.4-7.6c-3.5-2.6-5.3-2.8-9-5c-7.7-4.6-7.1-7.9-11.3-9.7c-6.6-2.7-11.9,3.7-23,7
		c-8.5,2.5-13.1,1-26.7,0c-5.9-0.4-3.4,0-44.3,0.7c-42.4,0.7-49.6,0.4-49.7,1.6c-0.2,2,16.9,7,35,7.1c6.9,0,12.9-0.7,13,0
		c0.1,0.9-9.6,2.1-24,7c-11,3.8-11.4,5.2-17.7,6c-3.2,0.4-11.6,1.5-20.7-2c-4.6-1.7-4-2.6-11.3-6c-8-3.7-12-5.6-16.1-4.8
		c-3.9,0.8-6.8,3.7-12.7,9.5c-1.6,1.6-2.3,2.5-2.2,3.6c0.2,3.1,6.8,4.8,11.7,6.3c17.5,5.4,15.2,9.3,27.2,11.8
		c10.3,2.2,19,0.7,28.5-0.8c13.8-2.3,12.8-4.8,21-4.7c10.7,0.2,15.4,4.6,26,2.6c4.2-0.8,10.1-2.8,10-4.6c-0.2-3.8-26.9-3.6-27-6
		c-0.1-2.2,22.6-4.4,42.3-6.3c9.6-0.9-0.2,0.1,35-2c9.1-0.6,16.3-1,25.3,2c2,0.7,7.2,2.6,13,6.7c11.5,8.1,19.1,20.6,17.3,22.3
		c-1.2,1.2-5.5-3.3-16-8c-14.5-6.5-30.4-8.5-31.3-6c-0.1,0.2-0.1,0.6,2.7,3.7c4.5,5,8.6,8.2,10,9.3c5.9,4.6,8.8,7,11.3,7.7
		c4.5,1.2,6.5-0.1,8,1.7c2.4,2.8-0.1,8.9-1.7,12.7c-2.5,6-4.2,6-4.7,10c-0.4,3.7,1,5.1,0,9c-0.4,1.7-1.2,4.6-3.3,6
		c-4.5,2.8-12.5-2.6-17-5.7c-5.9-4-6.7-6-11.3-9.7c-3.2-2.6-6.6-4.6-23.3-11c-16-6.1-24-9.1-24.7-8c-1.7,2.9,23.1,20.4,27.3,23.3
		c0,0,14.3,10,36,19.7c4.4,1.9,10.4,4.4,18.3,4.1c5-0.2,9-1.5,11.7-2.6c-0.9-3.9-1.7-9.7-1.1-16.5c0.6-7.7,2.5-10.5,4.3-17.4
		c3.3-12.7,0.4-16.8,1.5-41.6C966.3,689.6,966.8,684.1,967.1,680.9z"/>
	<path opacity="0.4" d="M960.7,799.7c-1.7-0.3-6.6,13-9.3,26c-1.7,8-2,13.2-4.3,13.7c-1.9,0.4-3.7-2.7-8.7-9.7
		c-1.4-2-11.9-16.6-13-16c-0.9,0.5,2.4,12.5,9.7,23.3c1.5,2.3,3.9,5.5,4,10c0.1,3.2-1,5.7-2.3,9c-2,4.8-3.7,8.7-6.3,9
		c-0.9,0.1-2.6-0.2-7.2-6.2c-5.9-7.7-7.8-13.1-8.8-12.8c-1.7,0.5,0.8,16.5,1,18c0.9,5.8,1.6,8.4,0,10c-2,2-6.9,1.4-9.7-1
		c-4.2-3.6-3.1-10.6-4.3-10.7c-1.3-0.1-0.9,8.3-6,11.7c-2.3,1.5-5.7,2.1-8,0.7c-2.9-1.8-3.2-6.1-3.3-11.3c-0.3-8.2,1.6-9.8,1.3-16
		c-0.4-7.6-3.7-14.9-5.3-14.7c-2,0.2-2.7,11.5-2.7,18c0.1,10.7,2.1,16.1-1.7,20.3c-0.5,0.5-2.6,2.8-5.7,3c-4,0.2-7.5-3.3-9-6.3
		c-1.1-2.3-1.6-5.1,0.7-14.6c2.8-11.7,5.7-16.7,4.6-17.4c-1.3-0.8-7.5,4.9-11.3,12c-1.7,3.2-3.3,7.3-5,11.7c-2.2,5.6-2.8,8-5.3,9.7
		c-1.9,1.2-3.6,1.3-7.7,1.3c-9,0.1-11.2-0.1-14.3,0c-8.6,0.3-10.8,2.5-22.7,3c-4.2,0.2-6.1,0-7-1.3c-1.7-2.5,1.3-7.1,4.7-12.7
		c9.8-16,14.7-24,13.3-25.3c-1.5-1.5-11.4,4.8-19,11.7c-6.6,6-7.1,8.5-15.3,15.3c-4.6,3.9-9.3,7.1-15.7,8c-0.7,0.1-6.9,0.9-7.7-1
		c-0.8-2.1,5.4-5.5,11.3-10.7c13.2-11.7,19.7-28.4,17.7-30c-1.1-0.9-5.3,2.6-6.7,3.7c-5.7,4.7-5.5,8.1-10,13.3
		c-2.9,3.4-6.9,5.7-15,10.3c-5.7,3.3-11.1,6.4-12,5.3c-1.1-1.3,6-7.3,12.3-19.7c3.5-6.7,5.7-11.3,3.7-14.7c-2.3-3.8-9.1-5-13.3-2.7
		c-1.8,1-3.7,5.1-7.3,13.3c-3.2,7.1-3.7,8.4-5.3,10.3c-2.9,3.5-7.9,7.7-10.7,6.3c-1.9-1-0.8-3.7-3-6c-3.7-3.8-10.7-0.3-12-2.7
		c-1.5-2.7,7.6-7.4,8.7-16.3c0.7-5.7-2.1-11.3-4-11.3c-2.5,0-2.3,9.1-8,11.3c-2.4,0.9-3.1-0.4-9.7-0.7c-6.8-0.3-9.2,0.9-10-0.3
		c-1.8-2.8,8.9-11.6,7.7-13.3c-0.5-0.7-2.9-0.2-9.7,3.3c-1.7,0.9-3.3,1.8-5,2.7c-0.7-2.5-1.6-6.3-2.3-11c-1.4-9-0.8-13.6-1.7-13.7
		c-1.2-0.2-4.9,9-4.3,19.3c0.3,5.9,1.8,9.7,1,10c-0.5,0.2-1.8-0.9-9.7-14.7c-6-10.4-7.5-13.6-8.3-13.3c-1.3,0.4-0.8,8.6,2,16
		c1.2,3.3,2.8,6,2.3,6.3c-0.8,0.5-4.8-7.4-13.3-10.7c-1.6-0.6-5.4-2.1-6.7-0.7c-1.9,2.2,2.9,10.2,6.3,14.7c3.7,4.9,5.6,5.5,5.7,8
		c0,3.3-3.2,4.1-8.3,10.7c-4.7,6-3.8,7.6-7,10c-5.8,4.2-13.6,2.6-15,2.3c-7.7-1.6-15.1-7.5-18.3-10c-2.4-1.9-4.2-3.5-5-3
		c-1.7,1.1,3.9,8.5,2,17.7c-0.3,1.4-1.4,6.7-5.3,8.7c-1.2,0.6-1.7,0.4-5.7,0.7c-2.1,0.2-7.6,0.6-13,2c-2.6,0.7-3.2,1-5.3,1.7
		c-6.2,1.8-11.5,1.8-16,1.7c-26.8-0.7-40.2-1-55.7-4c-21.2-4.1-32.1-6.4-34.7-14c-1.1-3.4-0.3-6.8-2.7-21c-1-6.2-1.5-7.4-2.2-7.5
		c-2.3-0.3-8.2,11.3-6.7,21.7c2,14.2,17.3,22.3,24.6,26.2c8.3,4.4,20,8.8,56.7,10c35.8,1.2,31.6-2.8,62.7-1.3
		c25.5,1.2,34.8,4.2,48-2.3c9.2-4.5,11.6-9.4,25-14.3c6.3-2.3,12.5-3.8,19.3-9.3c4.2-3.4,7-7.1,8.7-9.7c2.6,3.7,6.5,8,12,11.7
		c7.6,5.1,14.8,6.7,18,7.3c5.2,1.1,5.8,0.4,9.5,1.3c9.3,2.3,14.8,8.9,17.2,11.3c9.5,9.7,26.1,9.9,59.3,10.3
		c20.8,0.3,16.7-1.7,45-1.9c6.1,0,21.9,0,42.7-0.9c9.4-0.4,16.6-0.9,25.6-3.5c7.1-2.1,14.8-4.4,22.3-11c7.9-6.9,11.4-14.8,13.7-20.3
		c4.1-9.7,4.6-17.5,5.7-33C961.4,812,962.2,799.9,960.7,799.7z"/>
	<path opacity="0.4" d="M779.7,709c-3.6,1.1-2.5,7.4-7.3,11c-2.6,2-5.7,2.2-8,2.3c-4.2,0.3-7.3-0.8-9.7-1.7
		c-12.3-4.5-18.4-6.7-23.3-11c-3.2-2.8-1.6-2.3-11-13.3c-3.3-3.9-7-8.2-12-13.3c-6.6-6.8-10-10.2-15.3-13.3
		c-3.8-2.3-7.7-4.5-13.1-5.4c-6.5-1-8.6,1.1-22.3,3.7c-9.5,1.8-14.4,2.6-18.7,1c-5.3-1.9-8.2-5.8-12.5-11.5
		c-8.4-11.2-10.1-20.2-11.5-19.8c-1.8,0.4-0.3,16.1,3.3,31c2.1,8.5,3.8,15.6,7.7,25c3,7.2,5.3,11.3,4.3,12c-1.5,1.1-9.6-6.2-15.7-14
		c-7.4-9.5-7.9-14.9-16.3-36.3c-8.4-21.3-9-19-16-38c-4.7-12.8-6.9-20.4-8.3-20.1c-1.9,0.3-1.1,13.8,0,23.1c2,17.4,5,21.5,14.3,57.3
		c5.8,22.5,5.2,22.9,7.7,28c0.7,1.4,3.6,7.1,4.7,15c0.5,3.7,0.9,6.6-0.3,10c-2,5.6-6.8,8.3-10.3,10.3c-4.3,2.5-8.8,5-12.3,3.3
		c-4.6-2.2-3.5-9.8-7.3-10.7c-3.1-0.7-5.2,3.9-8.3,3.3c-4.1-0.7-5.6-9.7-6-12c-2.5-15.1-3.7-22.6-3.3-39c0.7-28.2-8.8-50.2-10-50
		c-1,0.1,1.2,14.5-0.7,36.7c0,0-0.7,7.7-5.7,22c-1.8,5-3.5,8.9-7.3,10.7c-2.8,1.3-6.9,1.6-8.3-0.3c-1.8-2.5,2.7-7.1,6-15.3
		c2.3-5.7,2.8-11,3.7-21.7c0.7-8,1.7-26.4-0.3-26.7c-1.9-0.3-7.7,14.6-9,30.7c-0.4,4.9-0.5,10.9-1.9,11.1c-2,0.3-4.2-12-6.8-11.8
		c-1.3,0.1-2.1,3.5-3.7,10c-1.7,7.3-1.8,10.6-2.7,10.7c-1.1,0.1-2.7-5.4-3.3-10.7c-1.2-10.1,1.4-18.1,3-23c7.2-22.4,10.8-33.6,10-34
		c-1.4-0.7-14.1,15.6-19.3,37.3c-2.5,10.5-3.9,16-3.7,24c0.2,8,1.9,13.7-1.3,21.3c-0.8,2-3.5,8.4-8,8.7c-0.1,0-2.7,0.1-4.3-1.7
		c-2.8-3-0.2-8,0.7-15.7c0.9-7.8-0.1-17.2-2.3-17.7c-3.3-0.6-10.1,18.5-11.3,22c-0.9,2.6-2.5,7.4-5.3,14.3c-1.5,3.7-2.2,5.5-2.7,6.3
		c-4.2,7.8-12.9,10.2-20.3,13.3c0,0-8.1,5.1-24.3,15.3c-31.7,20-33.7,22.4-43.3,25.3c-9.3,2.8-19.8,4.3-22.3,4.7
		c-15,2.1-25.2,1.6-25.3,3.3c0,0.4,0.5,1.3,16,6.7c8.7,3,12.1,4,12,5c-0.2,1.9-11.5-1.5-20.7,5c-2.7,1.9-5,4.6-8.7,4.3
		c-1.7-0.1-3.1-0.8-5.7-2.7c-4.4-3.2-6.6-4.8-9.7-8.7c-8.9-11.3-14.8-27.9-17-27.3c-2,0.5,3.1,13.3-3.3,24.3
		c-2.7,4.6-6.4,7.1-13.3,11.7c-9.8,6.4-18.5,9.8-22.7,11.3c-9.7,3.6-24.3,8.2-43.7,11.3c4.9,1.8,10.4,3.6,16.3,5.2
		c4.4,1.2,8.7,2.1,12.7,2.8c1.1,7.5,2.2,17,2.3,26.3c0,1.8,0,4.4-1.7,6.3c-2.9,3.4-8.9,2.4-14.3,1.7c-11.9-1.6-24.1-1.7-36-3.3
		c-10.8-1.4-16.2-2.2-18-2.3c-17.8-1.6-23.2,0.7-37.7,0.3c-8.6-0.2-19.1-2.4-40-6.7C65.5,851.8,58,848.7,54,847
		c-9.4-4.1-16.6-8.7-21.5-12.2c-2.3,2-7.6,7.1-6.9,12.8c0.4,3.3,2.9,6.7,16.4,13.8c9.5,5,16.7,7.7,23.4,10.4
		C96,883.7,99,885.6,106.7,885c2-0.2,1.4-0.3,17.5-2.4c9.2-1.2,13.7-1.8,15.5-1.9c11.5-0.8,18.6,2.8,29.1,6
		c18.5,5.6,33.5,5.6,46.9,5.7c16.7,0.1,28,0,34.1-7.8c3.9-5,4-10.9,4.2-18.2c0.4-19.5-8.7-27.6-4-35.7c1.9-3.2,4.5-4.1,15.7-8
		c6.7-2.4,18.2-6.4,33.7-12c0.5,1.5,2.3,5.9,7,8.7c4.9,2.9,9.8,2.3,11.8,2c5.2-0.8,7.9-3.4,12.5-6.4c8.1-5.3,8.8-3.2,20-9
		c12.3-6.3,12.3-9.2,22.3-13.7c8.4-3.8,15.2-4.7,18.3-5.3c11.1-2.1,28-9.3,53-31.7c4.8-3.2,12.5-8.1,22-14
		c12.8-7.9,16-9.6,20.3-13.3c5.4-4.7,12.7-12.6,18.3-26.3c-0.1,1.7-0.1,8.1,4,11c2.4,1.7,5.2,1.5,10.7,1c9.1-0.8,10.5-2.9,14-1.7
		c3.7,1.4,5.5,5,8.3,11c3.5,7.3,2.6,9.6,4.9,14.1c2.4,4.8,4.6,4.5,16.3,13.3c12,9,14.8,13.1,24.7,17.5c2.6,1.2,4.8,2,6.3,2.4
		c-0.1-3.6,0.1-9.1,2.5-15c2.9-7.3,7.2-10.5,16.3-21c9-10.3,8.3-11.1,11.7-14.3c11-10.5,27.9-10.8,44.3-9.7
		c32.9,2.3,37.5,8.6,73.5,14.4c26,4.3,48.9,5.1,73.5,13.7c3.4,1.2,11.8,4.2,21.7,10.2c9.5,5.7,17.2,10.3,22.7,18.3
		c11.1,16.4,5.2,36,8,36.3c2.1,0.2,6.6-10.2,5.7-21.3c-0.8-8.5-4.4-13.6-3-14.7c1.3-0.9,5.6,2.2,16,13c16.2,16.7,23.8,27.6,24.7,27
		c1-0.6-3.6-15.1-15-26.3c-0.9-0.8-7.6-7.4-14.3-17.3c-2.2-3.2-3.3-5.2-2.7-6c1.4-1.7,9.6,3.6,18.7,8c16,7.7,33.7,11.9,34.7,10
		c0.7-1.6-8.7-8.6-50.7-31.7c-3.7,0.4-9.2,0.7-15.7-0.7c-1.7-0.4-5.1-1.2-8.7-2.7c-10.8-4.6-11.9-11.1-19.7-16
		c-8.7-5.5-9.9,1.1-27-4.3c-15.1-4.8-22.7-7.1-26.3-9.7C783.9,709.9,781.8,708.4,779.7,709z"/>
</g>
<g id="vs-outline">
	<path fill="none" stroke="#000000" stroke-width="11" stroke-linecap="round" stroke-linejoin="round" stroke-miterlimit="10" d="
		M658,143.7c1.7-3,9-14.7,24-19.3c8.3-2.6,15.3-1.5,23-0.3c8.2,1.3,17.6,5.3,36,13.3c23.5,10.2,27,11.8,33,16
		c8.6,6,14.6,12,17.7,15.3c1.3,1.4,7.3,7.9,13.7,18c7.1,11.3,10.3,20.2,13.3,28c7.1,17.8,13.9,30.3,24.3,49.7
		c1.5,2.8,1.7,3.1,22.3,38.7c1.1,1.9,12.2,21.1,13.3,23"/>
	<path fill="none" stroke="#000000" stroke-width="11" stroke-linecap="round" stroke-linejoin="round" stroke-miterlimit="10" d="
		M652.8,146.5c-10.5,5-26,14.4-37.8,31.8c-11,16.3-13.9,32.5-15.8,42.8c-1.6,8.9-2,18.6-2.8,38c-0.5,13.1-0.5,24.7-0.5,27.5
		c0,4.8,0.1,8.9,0.1,12"/>
	<path fill="none" stroke="#000000" stroke-width="8" stroke-linecap="round" stroke-linejoin="round" stroke-miterlimit="10" d="
		M663.5,240.8c0.9-1.8,2.1-4.6,3-8.3c1.1-4.2,0.7-5.4,1.8-8.8c0.8-2.7,1.9-6.3,5-9.4c3.8-3.9,8.8-4.9,11.8-5.5
		c3-0.6,5.5-0.6,7.2-0.5"/>
	<path fill="none" stroke="#000000" stroke-width="9" stroke-linecap="round" stroke-linejoin="round" stroke-miterlimit="10" d="
		M648.8,197.3c-1.8,6.6-5,15.5-10.7,25c-5.6,9.3-11.8,16.1-16.7,20.8c0.4,0.1,3.8,0.7,5.4,4c1.5,3,0.4,5.8,0.3,6.3
		c3.4,2.4,5.5,4.8,6.8,6.5c4.8,6.4,3.7,10.8,9,16.8c2,2.2,4.1,3.8,5.8,5c3.9,2.9,5.9,3.4,9.8,6.3c1.3,0.9,3.6,2.7,5.8,5
		c4.1,4.4,5,8.4,6.5,11.5c2.3,4.8,8.2,8.4,20,15.8c5.1,3.1,10.1,5.8,20.3,11c5.4,2.8,12.1,6.2,21.3,8.5c4.9,1.2,7.3,1.4,9.8,0.8
		c5.4-1.4,8.5-5.7,11.8-10.5c7.4-10.9,11.1-16.3,14.3-23c7.2-15,10.9-22.5,12.3-33c1.4-10.4,0.2-19.3-1.3-25.5"/>
	<path fill="none" stroke="#000000" stroke-width="9" stroke-linecap="round" stroke-linejoin="round" stroke-miterlimit="10" d="
		M650,193.8c23.7-2.2,42.8,0.7,55.3,3.5c12.4,2.8,23.9,5.3,37.3,13.3c21.1,12.7,31.7,30,35.5,36.5c4.6,7.8,4.6,10.7,13.8,37.3
		c5.3,15.4,9.9,27.8,12.9,35.8c1.8-4.3,4-10.7,5.1-18.8c1.8-14.5-1.4-25.1,0.3-25.5c1.5-0.4,5.3,8,11.7,21.7c2.6,5.7,3.6,8,6.3,10.7
		c2.2,2.1,4.5,3.4,14.3,7c7.1,2.6,12.4,4.4,16.3,5.7c4,1.3,9.8,3.4,17,6"/>
	<path fill="none" stroke="#000000" stroke-width="8" stroke-linecap="round" stroke-linejoin="round" stroke-miterlimit="10" d="
		M655.9,261.8c-0.5,1.2-1.3,2.8-2.9,3.8c-3.8,2.4-8.3-0.4-11,2.1c-0.7,0.7-1.5,1.9-1.6,4.2"/>
	<path fill="none" stroke="#000000" stroke-width="8" stroke-linecap="round" stroke-linejoin="round" stroke-miterlimit="10" d="
		M686.3,251c2.7-1.5,6.1-3.8,9.5-7c4.3-4,7-8.2,8.8-11.3"/>
	<path fill="none" stroke="#000000" stroke-width="8" stroke-linecap="round" stroke-linejoin="round" stroke-miterlimit="10" d="
		M664,265.8c1.9,1.2,4.6,3.2,6.5,6.5c1.4,2.4,1.5,3.9,2.5,7.8c2.4,9.3,3.5,13.9,7.3,16c0.3,0.2,3.8,2.1,7.3,1
		c1.1-0.3,1.3-0.7,3.8-1.8c3-1.3,3.3-1,4.8-1.8c3.4-1.8,5-5.1,5.5-6c1.2-2.5,1.4-4.9,1.4-6.2"/>
	<path fill="none" stroke="#000000" stroke-width="8" stroke-linecap="round" stroke-linejoin="round" stroke-miterlimit="10" d="
		M667.8,276c-0.4,1.5-1.2,3.6-2.8,5.8c-2.3,3.3-5.1,5.1-6.8,6"/>
	<path fill="none" stroke="#000000" stroke-width="9" stroke-linecap="round" stroke-linejoin="round" stroke-miterlimit="10" d="
		M734.3,290c-8.4,4.2-14.9,7.2-20.3,9.5c0,0-4.7,2-10.5,6.8c-1.3,1.1-2.7,2.4-3.5,4.5c-0.9,2.5-0.4,4.8,0,6"/>
	<path fill="none" stroke="#000000" stroke-width="8" stroke-linecap="round" stroke-linejoin="round" stroke-miterlimit="10" d="
		M703.3,317.5c5.4,0.1,9.1-1.5,11-2.5c5.2-2.8,7.8-7.2,11.5-13.3c2.4-3.9,3.9-7.4,4.9-9.7"/>
	<path fill="none" stroke="#000000" stroke-width="9" stroke-linecap="round" stroke-linejoin="round" stroke-miterlimit="10" d="
		M754,333.3c1.8,4.3,3.8,8.7,6,13.2c1.7,3.5,3.3,6.8,5,10"/>
	<path fill="none" stroke="#000000" stroke-width="9" stroke-linecap="round" stroke-linejoin="round" stroke-miterlimit="10" d="
		M618,240.8c-0.3-1-2.2-6.4-5-6.5c-3-0.2-6,5.6-6.5,10.5c-0.4,3.3,0.5,5,1.8,11c1,4.7,1.5,8.5,1.8,11c-0.8,2.9-1.8,6.7-3.3,11
		c-1.6,4.9-2.8,8.6-5,13.3c-1.3,2.8-3.2,6.3-5.8,10.3"/>
	<path fill="none" stroke="#000000" stroke-width="8" stroke-linecap="round" stroke-linejoin="round" stroke-miterlimit="10" d="
		M611.5,268.8c1.3,0.5,2.9,1.4,4.3,3c2.6,3.3,2.1,7.7,1,13.5c-1,5.4-2.6,12.5-5.3,20.8"/>
	<path fill="none" stroke="#000000" stroke-width="8" stroke-linecap="round" stroke-linejoin="round" stroke-miterlimit="10" d="
		M615.3,267c2.8-4.5,5.7-9,8.5-13.5"/>
	<path fill="none" stroke="#000000" stroke-width="8" stroke-linecap="round" stroke-linejoin="round" stroke-miterlimit="10" d="
		M614.3,260"/>
	<path fill="none" stroke="#000000" stroke-width="8" stroke-linecap="round" stroke-linejoin="round" stroke-miterlimit="10" d="
		M619.3,241.8c-2.2,7.9-4.3,15.8-6.5,23.8"/>
	<path fill="none" stroke="#000000" stroke-width="8" stroke-linecap="round" stroke-linejoin="round" stroke-miterlimit="10" d="
		M633.3,261c-2,8-0.8,13.2,0.8,16.5c1.4,3,2.6,3.6,6.5,10.8c2.2,4,3.2,6.5,3.8,9.5c0.5,2.8,0.4,5.1,0.3,6.8"/>
	<path fill="none" stroke="#000000" stroke-width="8" stroke-linecap="round" stroke-linejoin="round" stroke-miterlimit="10" d="
		M630.3,260c0.1,7.5-0.6,17-3.9,27.3c-1,3-2,5.9-3.1,8.5"/>
	<path fill="none" stroke="#000000" stroke-width="9" stroke-linecap="round" stroke-linejoin="round" stroke-miterlimit="10" d="
		M665,297c-0.3,6.1-0.5,11.5-0.5,16c0,6.8,0.1,12.1,0.3,15.3c0.3,7.4,0.7,7.3,0.5,10.3c-0.4,5.2-1.5,6.3-3.5,14.3
		c-1.3,5.5-0.7,5.6-2.5,14c-1.9,9.1-4.5,15.1-5.8,18.3c-5.2,13.9-3.7,29.1-0.8,57.4c1.4,13.9,2.1,12.9,4,31.1
		c1.5,14.5,1.4,18.2,3.3,27.5c0.7,3.4,1.7,7.9,2.5,14.5c0.7,5.9,0.9,10.8,1,14"/>
	<path fill="none" stroke="#000000" stroke-width="11" stroke-linecap="round" stroke-linejoin="round" stroke-miterlimit="10" d="
		M596,301.3c-3,3.1-8.2,9.4-9,18.3c-0.6,6.8,1.4,13.2,2,15c0.3,0.9,1.4,3.7,3.5,9.3c1.7,4.5,2.6,6.8,3,7.8c2.8,6.8,4.4,9.3,7.8,16.3
		c0,0,2.8,5.9,5.8,13.3c6,15.1,2.1,34,1,39.3c-4.7,23.5-4.6,47.7-7,71.5c-1.9,18.6-3.1,45.4,0.7,78.9"/>
	<path fill="none" stroke="#000000" stroke-width="9" stroke-linecap="round" stroke-linejoin="round" stroke-miterlimit="10" d="
		M654.5,382.3c-1.4,14.6,0.5,25.7,2.5,33.2c3.1,11.9,5.9,12.2,8.7,25.2c2.3,10.9,1.5,16,4.7,29.3c1.5,6.3,3.2,11.4,4.3,14.7
		c3.2-9.3,6.9-19.1,8.7-18.7c1.3,0.3,0.6,6.2,1,13c0.4,7.5,2.1,17.8,8,30c1.9-1.4,3.8-2.9,5.7-4.3c0-4.9,0.2-12.5,1.7-21.7
		c1.6-9.7,3.1-12.1,4.7-22c1.5-9.7,1.6-17.3,1.7-23.7c0.2-18.7-2.4-19.1-0.3-27.3c2.5-9.9,6.2-9.4,9-21.7c1.1-4.9,1.3-8.3,3.3-16.3
		c1.2-4.9,2.5-8.8,3.3-11.3c4.6-6.8,9.2-13.6,13.7-20.5"/>
	<path fill="none" stroke="#000000" stroke-width="9" stroke-linecap="round" stroke-linejoin="round" stroke-miterlimit="10" d="
		M796.3,302.7c-2.9,12.7-7.1,22-10.3,28c-13.6,25.4-37.7,45.8-33.7,54.7c0.1,0.3,0.5,0.8,2,3.3c2.8,4.8,5,8.5,5.2,8.8
		c3.2,5.7,2.7,20.7,2.1,29.1"/>
	<path fill="none" stroke="#000000" stroke-width="9" stroke-linecap="round" stroke-linejoin="round" stroke-miterlimit="10" d="
		M771.3,401c-1.8,6.5-3.7,11.7-5,15c-4.8,12.3-7.7,14.8-13.3,28.7c-0.8,2-2.4,6.1-5,11.7c-1.6,3.6-3.1,6.5-4,8.3"/>
	<path fill="none" stroke="#000000" stroke-width="9" stroke-linecap="round" stroke-linejoin="round" stroke-miterlimit="10" d="
		M769.2,408.1c7.7-21,17.2-35.3,24.8-44.7c7.4-9.2,14.5-15.6,21.7-28.7c6.1-11.1,9.1-21.3,10.8-28.4"/>
	<path fill="none" stroke="#000000" stroke-width="9" stroke-linecap="round" stroke-linejoin="round" stroke-miterlimit="10" d="
		M717,376.4c0.8,1.9,3.4,7.4,9.5,11.1c5.3,3.2,10.4,3.4,12.6,3.4c0.9,6.4,2.2,13.4,3.9,20.7c2.6,10.8,5.7,20.4,9,28.7"/>
	<path fill="none" stroke="#000000" stroke-width="9" stroke-linecap="round" stroke-linejoin="round" stroke-miterlimit="10" d="
		M744,464.7c-1.6,6.1-2.9,12.8-4,20c-0.5,3.4-0.9,6.8-1.2,10"/>
	<path fill="none" stroke="#000000" stroke-width="11" stroke-linecap="round" stroke-linejoin="round" stroke-miterlimit="10" d="
		M878.7,326c13.7,6.1,21.6,13,26.3,18.3c1.9,2.1,4.5,5.4,9.3,10.3c6.4,6.6,9.2,8.5,12.7,12c5.1,5.2,7.9,10.7,13.3,21.3
		c8.1,16,12.1,24,13,32.3c0.4,3.8-0.5,11.9-2.3,28c-0.8,6.9-2.1,11.4-2.3,19.3c-0.2,6.9,0.4,12.2,0.8,15.8c0.7,6.2,2,13.3,6.5,29
		c5.1,17.6,5.3,15.1,7,22.5c1.3,5.9,1.8,10.4,2.5,38c0.5,18.6,0.7,27.9,0.5,30.5c-1.3,16.4-4.4,20.8-3.5,35.5c0.5,8.5,0.9,13.8,4,20
		c3.3,6.6,6.8,8.4,6.5,13c-0.4,6.1-6.8,6.9-8.5,14c-1.3,5.2,1.5,7.4,3.5,16c2.3,9.8,1.2,17.8,0.5,23c-1.8,13.3-6,12.7-8,25
		c-0.8,4.9,0,12.9,1.5,29c1.4,15,1.9,14.9,2,21c0.2,11.6-1.3,20.4-2.5,27c-2.5,13.9-3.7,20.8-7.5,28c-2,3.8-10.7,19.4-28.5,26.5
		c-6.9,2.8-12.8,3.3-15.5,3.5c-32.2,2.5-126.2,2-132,2c-9.3-1.9-16.9-4.1-22.5-6c-7.1-2.4-10.7-3.6-14.5-6c-5.6-3.5-6.3-5.8-11.5-8
		c-5-2.1-6.7-1.1-13-2.5c-3.5-0.8-12.1-2.6-18.5-8.5c-7.6-6.9-4.8-12.7-12-17.5c-4.3-2.8-6.8-1.8-15-4c-8.1-2.2-14.2-5.6-18-8"/>
	<path fill="none" stroke="#000000" stroke-width="9" stroke-linecap="round" stroke-linejoin="round" stroke-miterlimit="10" d="
		M665.2,510.3c1.4-2.9,2.8-6,4.1-9.3c2.6-6.5,4.5-12.6,6-18.1"/>
	<path fill="none" stroke="#000000" stroke-width="11" stroke-linecap="round" stroke-linejoin="round" stroke-miterlimit="10" d="
		M691.4,845.3c-5.5,7.1-11,11.5-14.9,14.2c-3.4,2.4-2.4,1.1-17.5,9.5c-4.7,2.6-8.2,4.6-13.5,7c-3.5,1.6-6.5,2.7-8.5,3.5
		c-5.1,0.4-12.5,1-21.5,1.5c-6.5,0.4-24.2,1.2-60,1c-13.1-0.1-30-0.3-50-1c-13.9-1-24.7-4-32-6.5c-10-3.4-15.5-5.4-20.5-11
		c-0.8-0.9-11.3-13-7.5-27c2.3-8.5,8.7-13.1,14-17c9.2-6.7,17.9-8.5,30.5-11c11.5-2.3,20.9-4.2,33-2c4.5,0.8,2.3,0.9,20.5,7
		c19.6,6.5,26.8,8,35,7.5c5.1-0.3,9.3-1.2,12-2"/>
	<path fill="none" stroke="#000000" stroke-width="11" stroke-linecap="round" stroke-linejoin="round" stroke-miterlimit="10" d="
		M588.5,837.5c4.8-6.6,10.2-16.4,9.5-28c-0.5-8.3-3.7-10.5-5-20c-1.9-13.9,2.8-25.3,6-33c7.4-18,19.3-28.2,22-30.5
		c3.9-3.3,13.7-11.3,28.5-15c6.9-1.7,15-2.5,47,3.5c10.7,2,24.1,4.6,43,9.5c24.3,6.3,32.3,9.9,50.5,12.5c10.9,1.5,20,1.9,26,2"/>
	<path fill="none" stroke="#000000" stroke-width="11" stroke-linecap="round" stroke-linejoin="round" stroke-miterlimit="10" d="
		M588.5,837.5c0.3,3.5,1.2,8.9,4.5,14.5c3.6,6,8.1,9.2,14.5,13.5c4.9,3.3,12,7.5,21.5,11"/>
	<path fill="none" stroke="#000000" stroke-width="11" stroke-linecap="round" stroke-linejoin="round" stroke-miterlimit="10" d="
		M588.5,830c-1,0.1-18,2.2-25.5,17.5c-5.5,11.1-3.7,24.7,4.5,34.5"/>
	<path fill="none" stroke="#000000" stroke-width="9" stroke-linecap="round" stroke-linejoin="round" stroke-miterlimit="10" d="
		M828.5,403c-0.6,7.9-0.8,17.2,0,27.5c1,12.5,2.5,11.4,4.5,28.5c1.8,15,1,18.4,4.5,24.5c2.9,5,5.6,6.5,8,13
		c1.7,4.6,0.8,5.2,2.5,13.5c1,4.8,1.6,6,5,18c1.6,5.4,2.8,9.8,3.5,12.5c-1.2,3-3.2,9.1-2,16.5c0.5,3.3,1.5,6,2.5,8"/>
	<path fill="none" stroke="#000000" stroke-width="9" stroke-linecap="round" stroke-linejoin="round" stroke-miterlimit="10" d="
		M848,600.5c9.5-8.3,19-16.7,28.5-25c-50.7-29.3-101.3-58.7-152-88c-46.3,33.8-92.7,67.7-139,101.5c-31-24.3-62-48.7-93-73
		c27.8,13.3,55.7,26.7,83.5,40c8.8,6,17.7,12,26.5,18"/>
	<path fill="none" stroke="#000000" stroke-width="9" stroke-linecap="round" stroke-linejoin="round" stroke-miterlimit="10" d="
		M949.2,480.5c-0.5,7.6-2.2,13.2-3.7,17c-2.2,5.7-4.5,8.7-5,15c-0.2,2-0.1,4.2,0,8.5c0.1,2.3,0.2,5.5,0.5,9.5
		c0.5,6.1,0.7,9.1,1.5,11c1.9,4.7,4.3,4.3,6.5,8.5c3.3,6.2,1.4,13.3,0.5,17c-1.9,7.3-4.7,8-5.5,15c-0.4,3.5,0.3,3.4,0,9
		c-0.4,6.9-0.7,10.9-3.5,13c-0.7,0.6-3.3,2.2-8.5,1c-0.7,8.5-2.3,19.6-6,31c-1.5,4.8-3.6,10-7.5,15.5c-1.8,2.5-3.8,5.2-7,7.5
		c-6.7,4.7-14.3,4.5-17,4.5c-22.3-0.3-44.7,3.3-67,2.5c-52.3-1.8-61.9-1.7-82.5-5c-9.9-1.6-18-3.3-23.5-4.5c-13.1,3.1-24,4.9-31.5,6
		c-21.1,3.1-19.2,0.9-28,3.5c-7.8,2.3-15.8,6-23,3c-3.5-1.4-6.5-4-6.5-4c-2.4-2.1-4.1-4.3-6-7.5c-2.1-3.5-5.1-9.3-7.5-17.5
		c-4.4-0.7-10.4-2.3-16.5-6c-2.3-1.4-5.8-3.6-9-7.5c-5-6-6.5-12.6-7-16.5c5.8,1.5,11.7,3,17.5,4.5c1.9,1.8,4.9,4.4,9,6.5
		c3.9,2,7.2,2.7,13.5,4c5.2,1.1,12.5,2.2,21.5,2.5c3.3,0.1,6,0.1,8,0"/>
	<path fill="none" stroke="#000000" stroke-width="9" stroke-linecap="round" stroke-linejoin="round" stroke-miterlimit="10" d="
		M610.6,619.6c-2-5-5.1-13.9-2.1-16.1c1.3-1,3-0.2,10,1c3.3,0.6,6.7,1,10,1.5c5.5,0.9,7.6,0.8,18.5,1.5c17.2,1.1,15.4,1.5,26,2
		c10.7,0.5,11.3,0,15,1c6.7,1.8,7.4,4,17,8c4.5,1.8,8.1,2.9,15.5,5c7,2,10.5,3,14.5,3.5c7.2,0.9,12.8,0.1,16.5-0.5
		c34.2-5.4,62-13.5,62-13.5c16.9-4.9,32-9.5,45-13.5c2.1-1.8,5.3-4.3,9.5-7c8.6-5.5,19.9-12.6,31-10c3.9,0.9,3.1,1.9,12,5
		c7.3,2.6,9.4,2.4,12.5,4.5c2.8,1.9,6.3,5.4,8.5,13"/>
	<path fill="none" stroke="#000000" stroke-width="9" stroke-linecap="round" stroke-linejoin="round" stroke-miterlimit="10" d="
		M856.5,540.5c10.9-0.2,19-2.4,24.5-4.5c7-2.6,9.7-4.9,15-4.5c7.3,0.6,7.3,5.2,17,9c8.1,3.1,10.9,1,23,4.5c4.6,1.3,8.2,2.8,10.4,3.8
		"/>
	<path fill="none" stroke="#000000" stroke-width="9" stroke-linecap="round" stroke-linejoin="round" stroke-miterlimit="10" d="
		M766.1,663.5c-10.5,9-21.1,18-31.6,27c-17-9-34-18.1-51-27.1"/>
	<path fill="none" stroke="#000000" stroke-width="9" stroke-linecap="round" stroke-linejoin="round" stroke-miterlimit="10" d="
		M587,607c-38.8-29.3-77.7-58.7-116.5-88c3-2.5,6-5,9-7.5c5.3,2,10.6,3.9,15.8,5.9"/>
	<path fill="none" stroke="#000000" stroke-width="9" stroke-linecap="round" stroke-linejoin="round" stroke-miterlimit="10" d="
		M577,596c5.9-4.6,11.8-9.1,17.6-13.7"/>
	<path fill="none" stroke="#000000" stroke-width="11" stroke-linecap="round" stroke-linejoin="round" stroke-miterlimit="10" d="
		M541.8,572.9c-4.8-1.7-12.8-3.8-22.8-3.4c-3.6,0.1-11.8,0.8-22,5c-23.9,9.9-46.8,34.4-59.5,46.5c-13.6,12.9-12.9,9-57.5,40
		c-57.7,40.2-59.2,47-113,83.5c-19.5,13.2-43.5,28.7-77.5,42c-10.7,4.2-19.7,7.1-26,9c-7.6,4.8-18.6,11.2-32.5,17.5
		c-12.6,5.8-19.9,9.1-30.5,11.5c-15.4,3.5-31.8,3.8-39.5,4c-14.1,0.3-20-0.7-26,4c-5.1,4.1-9.3,11.6-7.5,18c0.9,3,3.1,5.8,21,14
		c15.8,7.2,27.6,11.3,29.5,12c13.2,4.5,19.8,6.8,25,7.5c16.1,2.2,18.5-3.2,37-2.5c5.4,0.2,14.6,2.1,33,6c19,4,21.6,5.2,31,6
		c16.5,1.4,25.8-0.9,28-1.5c8.6-2.2,15.2-5.8,19.5-8.5c0.5-5,0.9-10.4,1-16c0.3-14.5-1-27.4-3-38.5c10.9-4.6,22.4-9.2,34.5-13.5
		c5.4-1.9,10.7-3.8,16-5.5c1.3,3.2,4.9,10.6,11.5,12c4.3,0.9,8.1-1.2,9.5-2c12.9-7.2,27.4-11.5,39.5-20c23.1-16.3,24.1-7.3,60-28
		c22.6-13,21.4-16.1,42-27c1.8-1,12.3-6.5,24-16c8.9-7.3,11.6-11.3,13-13.5c5.5-9.1,6-18.2,7.5-18c1.8,0.2-0.4,13.4,5,16
		c2.9,1.4,5-1.9,11-2.5c7.2-0.8,16.3,2.7,19.5,9c2.6,5-0.8,7.4,2,13.5c1.3,2.8,3,4.7,10.5,10.5c6.1,4.8,9.2,7.2,13.5,10
		c5.9,3.9,14.5,9.8,25.2,18.4"/>
	<path fill="none" stroke="#000000" stroke-width="11" stroke-linecap="round" stroke-linejoin="round" stroke-miterlimit="10" d="
		M267,744.5c5.6,5.3,12.4,12.9,18.5,23c10,16.7,13.3,32.6,14.5,42.5"/>
	<path fill="none" stroke="#000000" stroke-width="11" stroke-linecap="round" stroke-linejoin="round" stroke-miterlimit="10" d="
		M163.5,795.5c3.8,5.9,10.9,15.5,23,23.5c6.7,4.4,18.9,11,35.5,12.5c11.8,1.1,21.5-0.8,27.5-2.5"/>
	<path fill="none" stroke="#000000" stroke-width="11" stroke-linecap="round" stroke-linejoin="round" stroke-miterlimit="10" d="
		M731.7,689c9.6,3.2,23.9,8.3,41.3,15.5c16.3,6.7,14.6,6.7,21.5,9c26.5,8.8,36.8,3.9,48,14.5c4.6,4.3,6,8.1,12.5,11.5
		c7,3.6,12.3,2.9,18.5,3.5c7.5,0.8,8.6,2.7,38.5,19c18.2,9.9,22.9,12,30,12.5c8.1,0.6,14.9-1.1,19.3-2.6"/>
</g>
<g id="vs-reveal">
	
		<path opacity="0" fill="none" stroke="#000000" stroke-width="82" stroke-linecap="round" stroke-linejoin="round" stroke-miterlimit="10" d="
		M722,118.5c-21.2,1.1-42.3,4.8-62.5,11.1c27.8,1.5,55.5,3,83.3,4.5c7.7,0.4,18.3,6.9,13.2,12.7c-38.5,1-77,2-115.5,3
		c-10.9,0.3-25,3.2-26.6,14c53,0.2,106,0.3,158.9,0.5c14.1,0,29.9,0.8,39.7,11c-32.9,21.5-74.5,23.3-113.8,24.4
		c-37.8,1.1-75.7,2.1-113.5,3.2c-5.9,9.4,9.9,17,21,17c67.7,0,135.4,0.1,203.1,0.1c11.3,0,27.1,5.7,23.7,16.4
		c-68.8-0.6-137.6-1.1-206.5-1.7c-8.7-0.1-17.8,0-25.6,4c-7.7,4-13.4,13.5-10.2,21.6c86.6,0.6,173.3,1.2,259.9,1.8
		c4.5,0,9.4,0.2,13,2.9c3.6,2.7,4.6,9.1,0.8,11.5c-83.8,1.4-167.7,2.8-251.5,4.3c-7.5,0.1-15.3,0.4-21.7,4.3
		c-6.3,3.9-10.2,13-5.9,19.1c83,0.7,166,1.4,249,2.1c13.1,0.1,29,1.9,34.5,13.8c-90.5-4.3-181.3-1.7-271.4,7.5
		c-3.5,0.4-7.5,1-9.4,3.9c-4.8,7.2,7.5,13.3,16.1,13.3c102.2,0.4,204.5,0.8,306.7,1.2C827,359.5,741.5,361,656.5,358.7
		c-9.4-0.3-19.2-0.5-27.7,3.6s-14.9,14-11.8,22.9c78-2.5,156-4.9,234-7.4c24.8-0.8,50.2-1.5,73.7,6.6c-91.8,27.2-193-3.7-285.2,22.3
		c-10.7,3-23.8,12.3-18.7,22.3c95.6-3.6,191.1-7.1,286.7-10.7c9-0.3,18.5-0.6,26.6,3.4s14.2,13.7,10.9,22.1
		c-107.5,1.7-215,3.4-322.5,5.2c-15.1,0.2-36.1,7.7-32,22.2c112.3,12.1,225.3-23.2,337.9-14c9.5,0.8,21.9,5,21.2,14.5
		c-0.6,8.9-12.1,11.9-20.9,12.5c-113.4,7.9-227.1,10.7-340.8,8.4c-3.5,6.2,0.6,14.5,6.7,18.1c6.1,3.6,13.6,3.9,20.7,4
		c121.4,1.7,242.9-6.5,363-24.4c4,12-4.3,25.3-15.3,31.3c-11.1,6-24.2,6.6-36.8,7c-148,4.6-296.3,4-444.3-2
		c-1.5,6.3,6.5,10.4,12.8,11.9c133.9,32.5,274.6,36.2,410,10.9c12.9-2.4,26.4-5.1,39.1-1.9c12.8,3.2,24.6,14.3,23.9,27.5
		c-141,11.5-283,11.5-424,0c-15.2-1.2-32.4-2-43.6,8.4c139.8,3.8,279.7,7.7,419.5,11.5c17.5,0.5,38.8,3.6,45,19.9
		c-169.2,0.1-338.4,0.3-507.6,0.4c-14.2,0-33.8,6-31.2,19.9c166.5,18.7,335.1,2,502.4,13.3c15.7,1.1,35.1,5.4,38.6,20.8
		c-100.1,7.5-200.9,6.8-300.9-2.1c-100.4-9-201.4-26.2-301.3-13.3c-4.5,9.4,9.3,16.6,19.7,18c174.7,22.9,351.3,31.3,527.4,24.9
		c17.7-0.6,37.1-0.9,50.8,10.2c-8.6,11-24.7,11.6-38.7,11.2c-211.1-6.1-422.1-12.2-633.2-18.3c1.6,8.4,3.2,16.8,4.7,25.2
		c212.1,8.2,424,20.1,636,32c9.2,0.5,21.2,3.8,21.2,13c-226.7,3.7-453.8,7.5-680.1-6.6c-35.2-2.2-73.1-4.1-102.9,14.7
		c246.5,40.3,498.7,12.8,748.1,25.9c15.7,0.8,32.9,2.5,44,13.5c-281.5,11-563.6,5.6-844.5-16c-3.5,6.9,6.9,12.2,14.6,12.9
		c256.3,24.9,514.4,18.6,771.9,21.4c14.3,0.2,32.2,3,36.1,16.7c-62.3,1-124.6,1.9-186.9,2.9c-176.6,2.8-354.1,5.5-528.7-21.2
		c-51.1-7.8-102.5-18.1-154-13.2c0,8,9.5,11.9,17.3,13.6c99.6,21.6,202.7,18.1,304.6,18.1c160.2-0.1,320.4,8.8,479.6,26.4
		c-85,9-170.7,3.9-256.1,3.3c-194.3-1.4-393.4,19.9-579.5-36c-8.2,6.3,4.1,17.6,14.1,20c68.5,16.6,138.6,27,209,30.9"/>
</g>
</svg>
