<?xml version="1.0" encoding="utf-8"?>
<!-- Generator: Adobe Illustrator 22.1.0, SVG Export Plug-In . SVG Version: 6.00 Build 0)  -->
<svg version="1.1" id="Layer_1" xmlns="http://www.w3.org/2000/svg" xmlns:xlink="http://www.w3.org/1999/xlink" x="0px" y="0px"
	 width="1000px" height="1000px" viewBox="0 0 1000 1000" enable-background="new 0 0 1000 1000" xml:space="preserve">
<g id="vs-secondary">
	<path fill="#4A4A51" d="M701,401l-3,114l-18,351c0,0-26.9,71-194,71c-159,0-196-72-196-72l-12-319l-4-157c0,0-3.6-141.9,0-189
		c9-117,19-124,19-124s42.8-30.1,185-27c186,4,206,30,206,30s18,48,16.9,127.2C700.3,254.9,701,401,701,401z"/>
</g>
<g id="vs-primary">
	<path fill="#5679E8" d="M490,472c-17.5,1.6-52-10-52-47c0-34,25-52,49-52c18.6,0,49,10,50,52C537.4,441.6,523,469,490,472z"/>
	<path fill="#5679E8" d="M354,415c0,0-49.5-7.1-43-30c6-21,53,1,53,1L354,415z"/>
	<path fill="#5679E8" d="M417,426c0,0-49,0-44-25c4.3-21.4,48-8,48-8L417,426z"/>
	<path fill="#5679E8" d="M553.9,395c0,0,44.1-16,47.6,7.2c3.2,21.6-41.2,24.4-41.2,24.4L553.9,395z"/>
	<path fill="#5679E8" d="M612.9,386c0,0,47.1-23,51.6,4.2c3.5,21.6-45.2,26.4-45.2,26.4L612.9,386z"/>
	<path fill="#5679E8" d="M526.9,654H583l-1.4,24.9c0,0-2.6,11.1-24.6,12.3c-23,1.2-29.1-12.7-29.1-12.7L526.9,654z"/>
	<path fill="#5679E8" d="M596.9,654H653l-1.4,24.9c0,0-5.6,11.5-26.6,12.3c-23,0.8-26.1-10.7-26.1-10.7L596.9,654z"/>
</g>
<g id="vs-colour">
	<path fill="#9997A5" d="M661,338c0,0-99,15-173,16c-80.3,1.1-177-16-177-16s-13-141-2-153c4.8-5.2,48.9-12,179-12
		c150,0,169,10.1,174,12C678,191,661,338,661,338z"/>
	<path fill="#D4D3E5" d="M644,322c0,0-77,8-161,9c-73,0.9-155-9-155-9V197h319L644,322z"/>
	<path fill="#BFBDC6" d="M341.8,500.5h-12c-8.7,0-15.8-7.1-15.8-15.8V472h43.5v12.8C357.5,493.4,350.4,500.5,341.8,500.5z"/>
	<path fill="#BFBDC6" d="M402.8,500.5h-12c-8.7,0-15.8-7.1-15.8-15.8V472h43.5v12.8C418.5,493.4,411.4,500.5,402.8,500.5z"/>
	<path fill="#BFBDC6" d="M584.8,500.5h-12c-8.7,0-15.8-7.1-15.8-15.8V472h43.5v12.8C600.5,493.4,593.4,500.5,584.8,500.5z"/>
	<path fill="#BFBDC6" d="M642.8,500.5h-12c-8.7,0-15.8-7.1-15.8-15.8V472h43.5v12.8C658.5,493.4,651.4,500.5,642.8,500.5z"/>
	<path fill="#BFBDC6" d="M341.8,543.5h-12c-8.7,0-15.8-7.1-15.8-15.8V515h43.5v12.8C357.5,536.4,350.4,543.5,341.8,543.5z"/>
	<path fill="#BFBDC6" d="M401.8,543.5h-12c-8.7,0-15.8-7.1-15.8-15.8V515h43.5v12.8C417.5,536.4,410.4,543.5,401.8,543.5z"/>
	<path fill="#BFBDC6" d="M461.8,543.5h-12c-8.7,0-15.8-7.1-15.8-15.8V515h43.5v12.8C477.5,536.4,470.4,543.5,461.8,543.5z"/>
	<path fill="#BFBDC6" d="M521.8,543.5h-12c-8.7,0-15.8-7.1-15.8-15.8V515h43.5v12.8C537.5,536.4,530.4,543.5,521.8,543.5z"/>
	<path fill="#BFBDC6" d="M582.8,543.5h-12c-8.7,0-15.8-7.1-15.8-15.8V515h43.5v12.8C598.5,536.4,591.4,543.5,582.8,543.5z"/>
	<path fill="#BFBDC6" d="M642.8,543.5h-12c-8.7,0-15.8-7.1-15.8-15.8V515h43.5v12.8C658.5,536.4,651.4,543.5,642.8,543.5z"/>
	<path fill="#BFBDC6" d="M341.8,582.5h-12c-8.7,0-15.8-7.1-15.8-15.8V554h43.5v12.8C357.5,575.4,350.4,582.5,341.8,582.5z"/>
	<path fill="#BFBDC6" d="M401.8,582.5h-12c-8.7,0-15.8-7.1-15.8-15.8V554h43.5v12.8C417.5,575.4,410.4,582.5,401.8,582.5z"/>
	<path fill="#BFBDC6" d="M461.8,582.5h-12c-8.7,0-15.8-7.1-15.8-15.8V554h43.5v12.8C477.5,575.4,470.4,582.5,461.8,582.5z"/>
	<path fill="#BFBDC6" d="M521.8,582.5h-12c-8.7,0-15.8-7.1-15.8-15.8V554h43.5v12.8C537.5,575.4,530.4,582.5,521.8,582.5z"/>
	<path fill="#BFBDC6" d="M582.8,582.5h-12c-8.7,0-15.8-7.1-15.8-15.8V554h43.5v12.8C598.5,575.4,591.4,582.5,582.8,582.5z"/>
	<path fill="#BFBDC6" d="M642.8,582.5h-12c-8.7,0-15.8-7.1-15.8-15.8V554h43.5v12.8C658.5,575.4,651.4,582.5,642.8,582.5z"/>
	<path fill="#BFBDC6" d="M341.8,621.5h-12c-8.7,0-15.8-7.1-15.8-15.8V593h43.5v12.8C357.5,614.4,350.4,621.5,341.8,621.5z"/>
	<path fill="#BFBDC6" d="M401.8,621.5h-12c-8.7,0-15.8-7.1-15.8-15.8V593h43.5v12.8C417.5,614.4,410.4,621.5,401.8,621.5z"/>
	<path fill="#BFBDC6" d="M461.8,621.5h-12c-8.7,0-15.8-7.1-15.8-15.8V593h43.5v12.8C477.5,614.4,470.4,621.5,461.8,621.5z"/>
	<path fill="#BFBDC6" d="M521.8,621.5h-12c-8.7,0-15.8-7.1-15.8-15.8V593h43.5v12.8C537.5,614.4,530.4,621.5,521.8,621.5z"/>
	<path fill="#BFBDC6" d="M582.8,621.5h-12c-8.7,0-15.8-7.1-15.8-15.8V593h43.5v12.8C598.5,614.4,591.4,621.5,582.8,621.5z"/>
	<path fill="#BFBDC6" d="M642.8,621.5h-12c-8.7,0-15.8-7.1-15.8-15.8V593h43.5v12.8C658.5,614.4,651.4,621.5,642.8,621.5z"/>
	<path fill="#9997A5" d="M318.9,654H375l-1.4,24.9c0,0-2.6,11.1-24.6,12.3c-23,1.2-29.1-12.7-29.1-12.7L318.9,654z"/>
	<path fill="#9997A5" d="M388.9,654H445l-1.4,24.9c0,0-2.6,11.1-24.6,12.3c-23,1.2-29.1-12.7-29.1-12.7L388.9,654z"/>
	<path fill="#9997A5" d="M458.9,654H515l-1.4,24.9c0,0-2.6,11.1-24.6,12.3c-23,1.2-29.1-12.7-29.1-12.7L458.9,654z"/>
	<path fill="#9997A5" d="M318.9,715H375l-1.4,24.9c0,0-2.6,11.1-24.6,12.3c-23,1.2-29.1-12.7-29.1-12.7L318.9,715z"/>
	<path fill="#9997A5" d="M388.9,715H445l-1.4,24.9c0,0-2.6,11.1-24.6,12.3c-23,1.2-29.1-12.7-29.1-12.7L388.9,715z"/>
	<path fill="#9997A5" d="M458.9,715H515l-1.4,24.9c0,0-2.6,11.1-24.6,12.3c-23,1.2-29.1-12.7-29.1-12.7L458.9,715z"/>
	<path fill="#9997A5" d="M527.9,715H584l-1.4,24.9c0,0-2.6,11.1-24.6,12.3c-23,1.2-29.1-12.7-29.1-12.7L527.9,715z"/>
	<path fill="#9997A5" d="M597.9,715H654l-1.4,24.9c0,0-2.6,11.1-24.6,12.3c-23,1.2-29.1-12.7-29.1-12.7L597.9,715z"/>
	<path fill="#9997A5" d="M318.9,776H375l-1.4,24.9c0,0-2.6,11.1-24.6,12.3c-23,1.2-29.1-12.7-29.1-12.7L318.9,776z"/>
	<path fill="#9997A5" d="M388.9,776H445l-1.4,24.9c0,0-2.6,11.1-24.6,12.3c-23,1.2-29.1-12.7-29.1-12.7L388.9,776z"/>
	<path fill="#9997A5" d="M458.9,776H515l-1.4,24.9c0,0-2.6,11.1-24.6,12.3c-23,1.2-29.1-12.7-29.1-12.7L458.9,776z"/>
	<path fill="#9997A5" d="M527.9,776H584l-1.4,24.9c0,0-2.6,11.1-24.6,12.3c-23,1.2-29.1-12.7-29.1-12.7L527.9,776z"/>
	<path fill="#9997A5" d="M597.9,776H654l-1.4,24.9c0,0-2.6,11.1-24.6,12.3c-23,1.2-29.1-12.7-29.1-12.7L597.9,776z"/>
	<path fill="#9997A5" d="M320.9,837H377l-1.4,24.9c0,0-2.6,11.1-24.6,12.3c-23,1.2-29.1-12.7-29.1-12.7L320.9,837z"/>
	<path fill="#9997A5" d="M389.9,836H446l-1.4,24.9c0,0-2.6,11.1-24.6,12.3c-23,1.2-29.1-12.7-29.1-12.7L389.9,836z"/>
	<path fill="#9997A5" d="M458.9,836H515l-1.4,24.9c0,0-2.6,11.1-24.6,12.3c-23,1.2-29.1-12.7-29.1-12.7L458.9,836z"/>
	<path fill="#9997A5" d="M526.9,836H583l-1.4,24.9c0,0-2.6,11.1-24.6,12.3c-23,1.2-29.1-12.7-29.1-12.7L526.9,836z"/>
	<path fill="#9997A5" d="M594.9,836H651l-1.4,24.9c0,0-2.6,11.1-24.6,12.3c-23,1.2-29.1-12.7-29.1-12.7L594.9,836z"/>
	<path opacity="0.4" fill="#FFFFFF" enable-background="new    " d="M316,893l-28-26c0,0-10-293.3-10-302l-4-172l23,146l4,59
		C304,622,288,856,316,893z"/>
	<path opacity="0.4" fill="#FFFFFF" enable-background="new    " d="M656,893l24-26c0,0,15-293.3,16-302l3-172l-23,146l-5,59
		C668,622,684,856,656,893z"/>
	<polygon opacity="0.4" fill="#FFFFFF" enable-background="new    " points="394,198 416.5,197 339,323 332,322 	"/>
	<polygon opacity="0.4" fill="#FFFFFF" enable-background="new    " points="433,197 466.5,197 374,326 355,324 	"/>
</g>
<g id="vs-outline">
	<path fill="none" stroke="#000000" stroke-width="8" stroke-linecap="round" stroke-linejoin="round" stroke-miterlimit="10" d="
		M290.4,80.5C316.9,31,652.9,47,681.9,78c45.1,48.2-2.5,784.5-2.5,784.5s-15.4,73.4-194.5,74c-156,0.5-195.5-72-195.5-72
		S251.3,153.4,290.4,80.5z"/>
	<path fill="none" stroke="#000000" stroke-width="6" stroke-linecap="round" stroke-linejoin="round" stroke-miterlimit="10" d="
		M309.5,185c13-15,335-16,352,0c16.8,15.8,0,153.5,0,153.5s-93,14.5-167,14.5c-114.1,0-184-14.5-184-14.5S299.3,196.8,309.5,185z"/>
	<path fill="none" stroke="#000000" stroke-width="4" stroke-linecap="round" stroke-linejoin="round" stroke-miterlimit="10" d="
		M327.1,197h320l-3,125.5c0,0-77,7.5-162,7.5c-93,0-154-7.5-154-7.5L327.1,197z"/>
	<path fill="none" stroke="#000000" stroke-width="4" stroke-linecap="round" stroke-linejoin="round" stroke-miterlimit="10" d="
		M298,73c1.1-7.2-17,191-4.4,306.2c2.2,20.5,10,39,29.7,45.1L427,455c0,0,9,33,62,33c49,0,56-30,56-30l99.1-23.7
		c17.5-3.7,31.4-16.5,34.4-44.8C689,290,679,78,679,78"/>
	<path fill="none" stroke="#000000" stroke-width="5" stroke-linecap="round" stroke-linejoin="round" stroke-miterlimit="10" d="
		M273,365c0,0,11.2,89.2,24.5,180.5c9,62-3.6,235,6.5,312.5c1.2,9.1,12.8,35.3,12.8,35.3"/>
	<path fill="none" stroke="#000000" stroke-width="5" stroke-linecap="round" stroke-linejoin="round" stroke-miterlimit="10" d="
		M700.8,365c0,0-12.2,89.2-25.5,180.5c-9,62,1.6,235-8.5,312.5c-1.2,9.1-9.8,35.3-9.8,35.3"/>
	
		<ellipse transform="matrix(0.1602 -0.9871 0.9871 0.1602 -7.9692 835.6333)" fill="none" stroke="#000000" stroke-width="6" stroke-linecap="round" stroke-linejoin="round" stroke-miterlimit="10" cx="487.1" cy="422.5" rx="49.5" ry="49.5"/>
	<path fill="none" stroke="#000000" stroke-width="6" stroke-linecap="round" stroke-linejoin="round" stroke-miterlimit="10" d="
		M364,386l-11,29c0,0-47.6-6.7-42-28C317,364,364,386,364,386z"/>
	<path fill="none" stroke="#000000" stroke-width="6" stroke-linecap="round" stroke-linejoin="round" stroke-miterlimit="10" d="
		M420.3,392.6L417,425c0,0-44,3-44.3-21.7C372.3,379.6,420.3,392.6,420.3,392.6z"/>
	<path fill="none" stroke="#000000" stroke-width="6" stroke-linecap="round" stroke-linejoin="round" stroke-miterlimit="10" d="
		M554,396c0,0,42-19,47,7c4.3,22.2-41,23-41,23L554,396z"/>
	<path fill="none" stroke="#000000" stroke-width="6" stroke-linecap="round" stroke-linejoin="round" stroke-miterlimit="10" d="
		M612,385c0,0,47-21,52,5c4.3,22.2-46,26-46,26L612,385z"/>
	<path fill="none" stroke="#000000" stroke-width="4" stroke-linecap="round" stroke-linejoin="round" stroke-miterlimit="10" d="
		M354.4,494c-7.6,8.7-30.9,8.7-37.6,0c-3.8-4.9-2.6-22-2.6-22H357C357,472,358.4,489.4,354.4,494z"/>
	<path fill="none" stroke="#000000" stroke-width="4" stroke-linecap="round" stroke-linejoin="round" stroke-miterlimit="10" d="
		M415,494c-7.6,8.7-30.9,8.7-37.6,0c-3.8-4.9-2.6-22-2.6-22h42.9C417.6,472,419,489.4,415,494z"/>
	<path fill="none" stroke="#000000" stroke-width="4" stroke-linecap="round" stroke-linejoin="round" stroke-miterlimit="10" d="
		M597.4,494c-7.6,8.7-30.9,8.6-37.6,0c-3.8-4.9-2.6-22-2.6-22h42.9C600,472,601.4,489.4,597.4,494z"/>
	<path fill="none" stroke="#000000" stroke-width="4" stroke-linecap="round" stroke-linejoin="round" stroke-miterlimit="10" d="
		M655.4,494c-7.6,8.7-30.9,8.6-37.6,0c-3.8-4.9-2.6-22-2.6-22h42.9C658,472,659.4,489.4,655.4,494z"/>
	<path fill="none" stroke="#000000" stroke-width="4" stroke-linecap="round" stroke-linejoin="round" stroke-miterlimit="10" d="
		M354.4,537c-7.6,8.7-30.9,8.7-37.6,0c-3.8-4.9-2.6-22-2.6-22H357C357,515,358.4,532.4,354.4,537z"/>
	<path fill="none" stroke="#000000" stroke-width="4" stroke-linecap="round" stroke-linejoin="round" stroke-miterlimit="10" d="
		M414.6,537c-7.6,8.7-30.9,8.7-37.6,0c-3.8-4.9-2.6-22-2.6-22h42.9C417.2,515,418.6,532.4,414.6,537z"/>
	<path fill="none" stroke="#000000" stroke-width="4" stroke-linecap="round" stroke-linejoin="round" stroke-miterlimit="10" d="
		M474.8,537c-7.6,8.7-30.9,8.7-37.6,0c-3.8-4.9-2.6-22-2.6-22h42.9C477.4,515,478.8,532.4,474.8,537z"/>
	<path fill="none" stroke="#000000" stroke-width="4" stroke-linecap="round" stroke-linejoin="round" stroke-miterlimit="10" d="
		M535,537c-7.6,8.7-30.9,8.7-37.6,0c-3.8-4.9-2.6-22-2.6-22h42.9C537.6,515,539,532.4,535,537z"/>
	<path fill="none" stroke="#000000" stroke-width="4" stroke-linecap="round" stroke-linejoin="round" stroke-miterlimit="10" d="
		M595.2,537c-7.6,8.7-30.9,8.7-37.6,0c-3.8-4.9-2.6-22-2.6-22h42.9C597.8,515,599.2,532.4,595.2,537z"/>
	<path fill="none" stroke="#000000" stroke-width="4" stroke-linecap="round" stroke-linejoin="round" stroke-miterlimit="10" d="
		M655.4,537c-7.6,8.7-30.9,8.7-37.6,0c-3.8-4.9-2.6-22-2.6-22H658C658,515,659.4,532.4,655.4,537z"/>
	<path fill="none" stroke="#000000" stroke-width="4" stroke-linecap="round" stroke-linejoin="round" stroke-miterlimit="10" d="
		M354.4,576c-7.6,8.7-30.9,8.7-37.6,0c-3.8-4.9-2.6-22-2.6-22H357C357,554,358.4,571.4,354.4,576z"/>
	<path fill="none" stroke="#000000" stroke-width="4" stroke-linecap="round" stroke-linejoin="round" stroke-miterlimit="10" d="
		M414.6,576c-7.6,8.7-30.9,8.7-37.6,0c-3.8-4.9-2.6-22-2.6-22h42.9C417.2,554,418.6,571.4,414.6,576z"/>
	<path fill="none" stroke="#000000" stroke-width="4" stroke-linecap="round" stroke-linejoin="round" stroke-miterlimit="10" d="
		M474.8,576c-7.6,8.7-30.9,8.7-37.6,0c-3.8-4.9-2.6-22-2.6-22h42.9C477.4,554,478.8,571.4,474.8,576z"/>
	<path fill="none" stroke="#000000" stroke-width="4" stroke-linecap="round" stroke-linejoin="round" stroke-miterlimit="10" d="
		M535,576c-7.6,8.7-30.9,8.7-37.6,0c-3.8-4.9-2.6-22-2.6-22h42.9C537.6,554,539,571.4,535,576z"/>
	<path fill="none" stroke="#000000" stroke-width="4" stroke-linecap="round" stroke-linejoin="round" stroke-miterlimit="10" d="
		M595.2,576c-7.6,8.7-30.9,8.7-37.6,0c-3.8-4.9-2.6-22-2.6-22h42.9C597.8,554,599.2,571.4,595.2,576z"/>
	<path fill="none" stroke="#000000" stroke-width="4" stroke-linecap="round" stroke-linejoin="round" stroke-miterlimit="10" d="
		M655.4,576c-7.6,8.7-30.9,8.7-37.6,0c-3.8-4.9-2.6-22-2.6-22H658C658,554,659.4,571.4,655.4,576z"/>
	<path fill="none" stroke="#000000" stroke-width="4" stroke-linecap="round" stroke-linejoin="round" stroke-miterlimit="10" d="
		M354.4,615c-7.6,8.7-30.9,8.7-37.6,0c-3.8-4.9-2.6-22-2.6-22H357C357,593,358.4,610.4,354.4,615z"/>
	<path fill="none" stroke="#000000" stroke-width="4" stroke-linecap="round" stroke-linejoin="round" stroke-miterlimit="10" d="
		M414.6,615c-7.6,8.7-30.9,8.7-37.6,0c-3.8-4.9-2.6-22-2.6-22h42.9C417.2,593,418.6,610.4,414.6,615z"/>
	<path fill="none" stroke="#000000" stroke-width="4" stroke-linecap="round" stroke-linejoin="round" stroke-miterlimit="10" d="
		M474.8,615c-7.6,8.7-30.9,8.7-37.6,0c-3.8-4.9-2.6-22-2.6-22h42.9C477.4,593,478.8,610.4,474.8,615z"/>
	<path fill="none" stroke="#000000" stroke-width="4" stroke-linecap="round" stroke-linejoin="round" stroke-miterlimit="10" d="
		M535,615c-7.6,8.7-30.9,8.7-37.6,0c-3.8-4.9-2.6-22-2.6-22h42.9C537.6,593,539,610.4,535,615z"/>
	<path fill="none" stroke="#000000" stroke-width="4" stroke-linecap="round" stroke-linejoin="round" stroke-miterlimit="10" d="
		M595.2,615c-7.6,8.7-30.9,8.7-37.6,0c-3.8-4.9-2.6-22-2.6-22h42.9C597.8,593,599.2,610.4,595.2,615z"/>
	<path fill="none" stroke="#000000" stroke-width="4" stroke-linecap="round" stroke-linejoin="round" stroke-miterlimit="10" d="
		M655.4,615c-7.6,8.7-30.9,8.7-37.6,0c-3.8-4.9-2.6-22-2.6-22H658C658,593,659.4,610.4,655.4,615z"/>
	<path fill="none" stroke="#000000" stroke-width="6" stroke-linecap="round" stroke-linejoin="round" stroke-miterlimit="10" d="
		M371.5,682.7c-9.8,11.2-40.2,11.2-48.9,0c-4.9-6.3-3.4-28.6-3.4-28.6h55.7C374.9,654.2,376.7,676.8,371.5,682.7z"/>
	<path fill="none" stroke="#000000" stroke-width="6" stroke-linecap="round" stroke-linejoin="round" stroke-miterlimit="10" d="
		M440.9,682.7c-9.8,11.2-40.2,11.2-48.9,0c-4.9-6.3-3.4-28.6-3.4-28.6h55.7C444.3,654.2,446.1,676.8,440.9,682.7z"/>
	<path fill="none" stroke="#000000" stroke-width="6" stroke-linecap="round" stroke-linejoin="round" stroke-miterlimit="10" d="
		M510.4,682.7c-9.8,11.2-40.2,11.2-48.9,0c-4.9-6.3-3.4-28.6-3.4-28.6h55.7C513.8,654.2,515.6,676.8,510.4,682.7z"/>
	<path fill="none" stroke="#000000" stroke-width="6" stroke-linecap="round" stroke-linejoin="round" stroke-miterlimit="10" d="
		M579.8,682.7c-9.8,11.2-40.2,11.2-48.9,0c-4.9-6.3-3.4-28.6-3.4-28.6h55.7C583.2,654.2,585.1,676.8,579.8,682.7z"/>
	<path fill="none" stroke="#000000" stroke-width="6" stroke-linecap="round" stroke-linejoin="round" stroke-miterlimit="10" d="
		M649.3,682.7c-9.8,11.2-40.2,11.2-48.9,0c-4.9-6.3-3.4-28.6-3.4-28.6h55.7C652.7,654.2,654.5,676.8,649.3,682.7z"/>
	<path fill="none" stroke="#000000" stroke-width="6" stroke-linecap="round" stroke-linejoin="round" stroke-miterlimit="10" d="
		M371.5,743.6c-9.8,11.2-40.2,11.2-48.9,0c-4.9-6.3-3.4-28.6-3.4-28.6h55.7C374.9,715.1,376.7,737.7,371.5,743.6z"/>
	<path fill="none" stroke="#000000" stroke-width="6" stroke-linecap="round" stroke-linejoin="round" stroke-miterlimit="10" d="
		M440.9,743.6c-9.8,11.2-40.2,11.2-48.9,0c-4.9-6.3-3.4-28.6-3.4-28.6h55.7C444.3,715.1,446.1,737.7,440.9,743.6z"/>
	<path fill="none" stroke="#000000" stroke-width="6" stroke-linecap="round" stroke-linejoin="round" stroke-miterlimit="10" d="
		M510.4,743.6c-9.8,11.2-40.2,11.2-48.9,0c-4.9-6.3-3.4-28.6-3.4-28.6h55.7C513.8,715.1,515.6,737.7,510.4,743.6z"/>
	<path fill="none" stroke="#000000" stroke-width="6" stroke-linecap="round" stroke-linejoin="round" stroke-miterlimit="10" d="
		M579.8,743.6c-9.8,11.2-40.2,11.2-48.9,0c-4.9-6.3-3.4-28.6-3.4-28.6h55.7C583.2,715.1,585.1,737.7,579.8,743.6z"/>
	<path fill="none" stroke="#000000" stroke-width="6" stroke-linecap="round" stroke-linejoin="round" stroke-miterlimit="10" d="
		M649.3,743.6c-9.8,11.2-40.2,11.2-48.9,0c-4.9-6.3-3.4-28.6-3.4-28.6h55.7C652.7,715.1,654.5,737.7,649.3,743.6z"/>
	<path fill="none" stroke="#000000" stroke-width="6" stroke-linecap="round" stroke-linejoin="round" stroke-miterlimit="10" d="
		M371.5,804.5c-9.8,11.2-40.2,11.2-48.9,0c-4.9-6.3-3.4-28.6-3.4-28.6h55.7C374.9,776,376.7,798.6,371.5,804.5z"/>
	<path fill="none" stroke="#000000" stroke-width="6" stroke-linecap="round" stroke-linejoin="round" stroke-miterlimit="10" d="
		M440.9,804.5c-9.8,11.2-40.2,11.2-48.9,0c-4.9-6.3-3.4-28.6-3.4-28.6h55.7C444.3,776,446.1,798.6,440.9,804.5z"/>
	<path fill="none" stroke="#000000" stroke-width="6" stroke-linecap="round" stroke-linejoin="round" stroke-miterlimit="10" d="
		M510.4,804.5c-9.8,11.2-40.2,11.2-48.9,0c-4.9-6.3-3.4-28.6-3.4-28.6h55.7C513.8,776,515.6,798.6,510.4,804.5z"/>
	<path fill="none" stroke="#000000" stroke-width="6" stroke-linecap="round" stroke-linejoin="round" stroke-miterlimit="10" d="
		M579.8,804.5c-9.8,11.2-40.2,11.2-48.9,0c-4.9-6.3-3.4-28.6-3.4-28.6h55.7C583.2,776,585.1,798.6,579.8,804.5z"/>
	<path fill="none" stroke="#000000" stroke-width="6" stroke-linecap="round" stroke-linejoin="round" stroke-miterlimit="10" d="
		M649.3,804.5c-9.8,11.2-40.2,11.2-48.9,0c-4.9-6.3-3.4-28.6-3.4-28.6h55.7C652.7,776,654.5,798.6,649.3,804.5z"/>
	<path fill="none" stroke="#000000" stroke-width="6" stroke-linecap="round" stroke-linejoin="round" stroke-miterlimit="10" d="
		M373.4,865.4c-9.8,11.2-40.2,11.2-48.9,0c-4.9-6.3-3.4-28.6-3.4-28.6h55.7C376.8,836.9,378.6,859.5,373.4,865.4z"/>
	<path fill="none" stroke="#000000" stroke-width="6" stroke-linecap="round" stroke-linejoin="round" stroke-miterlimit="10" d="
		M441.9,865.4c-9.8,11.2-40.2,11.2-48.9,0c-4.9-6.3-3.4-28.6-3.4-28.6h55.7C445.3,836.9,447.1,859.5,441.9,865.4z"/>
	<path fill="none" stroke="#000000" stroke-width="6" stroke-linecap="round" stroke-linejoin="round" stroke-miterlimit="10" d="
		M510.4,865.4c-9.8,11.2-40.2,11.2-48.9,0c-4.9-6.3-3.4-28.6-3.4-28.6h55.7C513.8,836.9,515.6,859.5,510.4,865.4z"/>
	<path fill="none" stroke="#000000" stroke-width="6" stroke-linecap="round" stroke-linejoin="round" stroke-miterlimit="10" d="
		M578.9,865.4c-9.8,11.2-40.2,11.2-48.9,0c-4.9-6.3-3.4-28.6-3.4-28.6h55.7C582.3,836.9,584.1,859.5,578.9,865.4z"/>
	<path fill="none" stroke="#000000" stroke-width="6" stroke-linecap="round" stroke-linejoin="round" stroke-miterlimit="10" d="
		M647.4,865.4c-9.8,11.2-40.2,11.2-48.9,0c-4.9-6.3-3.4-28.6-3.4-28.6h55.7C650.8,836.9,652.6,859.5,647.4,865.4z"/>
	<path fill="none" stroke="#000000" stroke-width="4" stroke-linecap="round" stroke-linejoin="round" stroke-miterlimit="10" d="
		M540.9,664.4l0.4,10c0,0,6,1.1,6.3-4.8C548,664.1,540.9,664.4,540.9,664.4z"/>
	
		<polyline fill="none" stroke="#000000" stroke-width="4" stroke-linecap="round" stroke-linejoin="round" stroke-miterlimit="10" points="
		557.7,664.6 552.5,664.6 552.8,674.7 558.1,674.8 	"/>
	
		<line fill="none" stroke="#000000" stroke-width="4" stroke-linecap="round" stroke-linejoin="round" stroke-miterlimit="10" x1="552.7" y1="669.6" x2="557.6" y2="669.7"/>
	
		<polyline fill="none" stroke="#000000" stroke-width="4" stroke-linecap="round" stroke-linejoin="round" stroke-miterlimit="10" points="
		564.1,664.8 564.3,674.8 569.7,674.9 	"/>
	
		<polyline fill="none" stroke="#000000" stroke-width="4" stroke-linecap="round" stroke-linejoin="round" stroke-miterlimit="10" points="
		614.6,675.8 619.2,664.6 624.4,675.7 	"/>
	
		<line fill="none" stroke="#000000" stroke-width="4" stroke-linecap="round" stroke-linejoin="round" stroke-miterlimit="10" x1="615.6" y1="673.5" x2="622.4" y2="673.6"/>
	<path fill="none" stroke="#000000" stroke-width="4" stroke-linecap="round" stroke-linejoin="round" stroke-miterlimit="10" d="
		M635.6,666.1c-0.1-0.8-1.8-1.3-2.8-1.4c-1.9-0.2-3.8,1.1-4,3.6c-0.3,5.1,0.5,6.6,3.6,7.1c2.4,0.4,3.5-2.2,3.5-2.2"/>
	
		<line fill="none" stroke="#000000" stroke-width="4" stroke-linecap="round" stroke-linejoin="round" stroke-miterlimit="10" x1="546.5" y1="724.2" x2="561.1" y2="738.9"/>
	
		<line fill="none" stroke="#000000" stroke-width="4" stroke-linecap="round" stroke-linejoin="round" stroke-miterlimit="10" x1="561.2" y1="724.4" x2="546.4" y2="738.7"/>
	
		<line fill="none" stroke="#000000" stroke-width="4" stroke-linecap="round" stroke-linejoin="round" stroke-miterlimit="10" x1="553.8" y1="785" x2="554.1" y2="801.6"/>
	
		<line fill="none" stroke="#000000" stroke-width="4" stroke-linecap="round" stroke-linejoin="round" stroke-miterlimit="10" x1="562.2" y1="793.3" x2="545.6" y2="793.3"/>
	
		<circle fill="none" stroke="#000000" stroke-width="4" stroke-linecap="round" stroke-linejoin="round" stroke-miterlimit="10" cx="624.5" cy="725.6" r="1.9"/>
	
		<line fill="none" stroke="#000000" stroke-width="4" stroke-linecap="round" stroke-linejoin="round" stroke-miterlimit="10" x1="633.2" y1="733.3" x2="616.6" y2="733.3"/>
	
		<circle fill="none" stroke="#000000" stroke-width="4" stroke-linecap="round" stroke-linejoin="round" stroke-miterlimit="10" cx="624.5" cy="740.7" r="1.9"/>
	
		<line fill="none" stroke="#000000" stroke-width="4" stroke-linecap="round" stroke-linejoin="round" stroke-miterlimit="10" x1="631.2" y1="793.3" x2="614.6" y2="793.3"/>
	
		<line fill="none" stroke="#000000" stroke-width="4" stroke-linecap="round" stroke-linejoin="round" stroke-miterlimit="10" x1="631.2" y1="850.3" x2="614.6" y2="850.3"/>
	
		<line fill="none" stroke="#000000" stroke-width="4" stroke-linecap="round" stroke-linejoin="round" stroke-miterlimit="10" x1="631.2" y1="859.3" x2="614.6" y2="859.3"/>
	
		<polyline fill="none" stroke="#000000" stroke-width="4" stroke-linecap="round" stroke-linejoin="round" stroke-miterlimit="10" points="
		536.2,859.8 541.2,846.8 546.6,860.1 	"/>
	
		<line fill="none" stroke="#000000" stroke-width="4" stroke-linecap="round" stroke-linejoin="round" stroke-miterlimit="10" x1="537.6" y1="857.1" x2="545.6" y2="857.7"/>
	<path fill="none" stroke="#000000" stroke-width="4" stroke-linecap="round" stroke-linejoin="round" stroke-miterlimit="10" d="
		M552.3,859.7l-0.3-10l1,2.3c0,0,2-3.7,5.1-2.3c2.3,1,1.3,9.7,1.3,9.7"/>
	<path fill="none" stroke="#000000" stroke-width="4" stroke-linecap="round" stroke-linejoin="round" stroke-miterlimit="10" d="
		M570.8,850.5c-0.2-1.7-5.2-2.7-5.2,1.3c0,4.8,5.7,1.6,5.7,5.4c-0.1,4.5-5.5,3.6-6,1.3"/>
	
		<line fill="none" stroke="#000000" stroke-width="4" stroke-linecap="round" stroke-linejoin="round" stroke-miterlimit="10" x1="468.5" y1="850.4" x2="478.2" y2="860.3"/>
	
		<line fill="none" stroke="#000000" stroke-width="4" stroke-linecap="round" stroke-linejoin="round" stroke-miterlimit="10" x1="478.4" y1="850.6" x2="468.3" y2="860.1"/>
	
		<polyline fill="none" stroke="#000000" stroke-width="4" stroke-linecap="round" stroke-linejoin="round" stroke-miterlimit="10" points="
		483.2,853.7 489.3,847.4 488.7,861.2 	"/>
	<path fill="none" stroke="#000000" stroke-width="4" stroke-linecap="round" stroke-linejoin="round" stroke-miterlimit="10" d="
		M498.6,847.3c1.6-0.1,3.6,0.3,3.7,5.4c0.1,7.1-1.7,8.4-3.8,8.7c-2.6,0.3-3.8-2.3-3.6-7.9C495.1,848,497,847.5,498.6,847.3z"/>
	
		<circle fill="none" stroke="#000000" stroke-width="4" stroke-linecap="round" stroke-linejoin="round" stroke-miterlimit="10" cx="415.8" cy="854.5" r="2.2"/>
	<path fill="none" stroke="#000000" stroke-width="4" stroke-linecap="round" stroke-linejoin="round" stroke-miterlimit="10" d="
		M347.2,846.2c1.8-0.1,4.2,0.4,4.3,6.3c0.2,8.4-1.9,9.9-4.4,10.3c-3,0.4-4.5-2.8-4.3-9.2C343,846.9,345.2,846.3,347.2,846.2z"/>
	
		<polyline fill="none" stroke="#000000" stroke-width="4" stroke-linecap="round" stroke-linejoin="round" stroke-miterlimit="10" points="
		340.5,791.7 348,784.3 347.3,800.5 	"/>
	<path fill="none" stroke="#000000" stroke-width="4" stroke-linecap="round" stroke-linejoin="round" stroke-miterlimit="10" d="
		M411.3,788.6c0.2-2.2,3.1-6,7.5-2.8c6.5,4.7-8.4,14.5-8.4,14.5h12.3"/>
	<path fill="none" stroke="#000000" stroke-width="4" stroke-linecap="round" stroke-linejoin="round" stroke-miterlimit="10" d="
		M481.4,786.9c-0.1-1.8,5.1-4.5,6.6,0.2c1.5,4.2-4.8,6-4.8,6s6-1.4,7,2.5c1.4,5.1-6.6,7.5-10.7,3.5"/>
	
		<polyline fill="none" stroke="#000000" stroke-width="4" stroke-linecap="round" stroke-linejoin="round" stroke-miterlimit="10" points="
		340.6,724.9 339.2,733.7 347.6,733.1 	"/>
	
		<line fill="none" stroke="#000000" stroke-width="4" stroke-linecap="round" stroke-linejoin="round" stroke-miterlimit="10" x1="349" y1="725.8" x2="348.9" y2="741.4"/>
	<path fill="none" stroke="#000000" stroke-width="4" stroke-linecap="round" stroke-linejoin="round" stroke-miterlimit="10" d="
		M419.9,725.2l-7.9-0.3l-0.3,7.4c0,0,7.4-2.5,8.3,3c1.2,7.5-5.9,8.6-8.1,5.6"/>
	<path fill="none" stroke="#000000" stroke-width="4" stroke-linecap="round" stroke-linejoin="round" stroke-miterlimit="10" d="
		M490,727.3c0,0-0.4-3.7-5.3-3.4c-6.5,0.5-8.1,16.4-0.4,17.5c4.4,0.6,7.2-3.5,5.8-6.4c-2.3-5.3-10.5-3-10.8,0.9"/>
	
		<polyline fill="none" stroke="#000000" stroke-width="4" stroke-linecap="round" stroke-linejoin="round" stroke-miterlimit="10" points="
		341.3,664 350.4,664.4 345.3,679.5 	"/>
	
		<line fill="none" stroke="#000000" stroke-width="4" stroke-linecap="round" stroke-linejoin="round" stroke-miterlimit="10" x1="342.5" y1="672.3" x2="351.5" y2="672.7"/>
	<path fill="none" stroke="#000000" stroke-width="4" stroke-linecap="round" stroke-linejoin="round" stroke-miterlimit="10" d="
		M415.1,663.6c3.1,0.3,3.7,1.7,3.7,3.7c0,2.9-8.3,4.9-8.5,8.8c-0.1,1.8-0.2,4.9,5.3,5.1c3.7,0.1,5.5-2.4,4.5-5.2
		c-1.8-4.9-8.3-3.2-8.9-7.9C410.8,666.4,412.1,663.3,415.1,663.6z"/>
	<path fill="none" stroke="#000000" stroke-width="4" stroke-linecap="round" stroke-linejoin="round" stroke-miterlimit="10" d="
		M489.8,668.3c-2.6,6.9-9,4.5-9.5-0.5c-0.4-4.5,5-6.3,7.4-4.1c3.1,2.9,3.3,12.5,0.9,15.1c-3.4,3.5-6.8,1.5-7.6-0.4"/>
</g>
<g id="vs-reveal">
	
		<path fill="none" stroke="#BF00C2" stroke-width="160" stroke-linecap="round" stroke-linejoin="round" stroke-miterlimit="10" stroke-opacity="0" d="
		M289,95c0,0,401.8-38.7,410,64c8.8,110.3-427-5-427,85c0,96,415.2-3.1,429,106c13.9,109.5-414.9-15.2-427,94
		c-11.9,107.9,411.3-8.2,425,100c13.7,108.3-409.7-11-425,97c-14.9,104.8,397.1-3.3,409,102c11.3,100.7-391.3-4.8-396,97
		c-4.4,94.4,378,46,378,46"/>
</g>
</svg>
