<?xml version="1.0" encoding="utf-8"?>
<!-- Generator: Adobe Illustrator 27.7.0, SVG Export Plug-In . SVG Version: 6.00 Build 0)  -->
<svg isCommex="true" version="1.1" id="Layer_1" xmlns="http://www.w3.org/2000/svg" xmlns:xlink="http://www.w3.org/1999/xlink" x="0px" y="0px"
	 width="962.5px" height="1126px" viewBox="0 0 962.5 1126" enable-background="new 0 0 962.5 1126" xml:space="preserve">
<g id="vs-primary">
	<path fill="#E6074D" d="M513.5,64.7l-4-0.3c-203.3-15.3-328-24-342.1-24h-0.3c-16.9,0.2-26.1,9.3-27.1,27.2
		c-0.2,4.1-28.3,547.3-28.9,568.8c-0.5,18.8,5.5,22.9,11.5,24.3c4.6,1.1,17.1,1.5,35.9,1.9l2,0.1c13.1,0.3,29.4,0.8,48.9,1.6
		c41.4,1.8,102,5.4,126.1,6.9l1.1,0.1l0.2-0.7c2.3-7.3,6.8-14.9,13.4-22.7l0.2-0.2l1.3-15.5l-0.2-0.3c-5.6-9.5-15.2-27.5-16.1-41.8
		V590c-0.5-22,15.1-87.6,22-101.9c7.6-15.7,18-20.2,44.5-19c1.7,0.1,3.7,0.1,5.8,0.2h0.6c22.4,0.8,68.9,2.6,107,14.8l1.2,0.4
		l0.1-1.3c3-37.3,13.1-165.1,20.5-260.2c3.7-47.1,8.1-105.4,8.6-115.2C547.4,83.5,542.3,66.9,513.5,64.7z"/>
</g>
<g id="vs-skin">
	<path fill="#D3A37F" d="M688.2,946.8c6.1-35.5,8.7-91.3,7.7-165.7c-0.8-60.2-5.3-89.1-7.8-96.7c-1.4-4.1-19.5-35.2-46.2-72.2
		c-23.4-32.4-58.6-76.4-93.6-102.2c-36.2-27.9-108.8-30.6-139.9-31.7c-2.5-0.1-4.7-0.2-6.6-0.3c-26-1.1-30.7,3.1-36,13.9
		c-6.3,12.9-21.5,77.6-21.1,97.7c1,14.8,13.2,35.3,18.5,43.5l0.6,1l0.9-0.8c8.8-7.8,19.6-15.8,32.1-23.8l0.1-0.1
		c13.4-8.1,28.7-16.5,45.3-24.7l3.4-1.7l-13.7-0.7c-1.9-0.1-3.4-1.7-3.3-3.7c0-0.9,0.5-1.8,1.1-2.4c0.7-0.6,1.6-1,2.5-0.9l23.2,1.2
		l13.9-18.7c1.2-1.5,3.4-1.9,4.9-0.7c0.7,0.6,1.2,1.4,1.4,2.3c0.1,0.9-0.1,1.8-0.7,2.6l-8.2,11l3.5-1.6c9.8-4.4,16.7-7.2,19.3-8.3
		l0.1-0.1c1.1-0.4,2.3-0.4,3.4,0c1.1,0.5,2,1.4,2.4,2.5s0.4,2.3,0,3.4c-0.5,1.1-1.4,2-2.5,2.4c-2,0.8-48.9,19.8-91.5,45.6
		c-18.1,11.6-32.3,23-42.1,33.9c-10.4,11.7-13.8,20.5-14.9,25.9c-1.7,8.9,6.3,47.9,14.6,66.1l1.2,2.5l0.7-2.7
		c1.7-6.5,4.3-11.9,7.8-16.2c31.8-40.1,117.7-90.1,143.2-104.4l0.7-0.4l-2.6-7.7c-0.3-0.9-0.2-1.8,0.2-2.7s1.1-1.5,2-1.8
		c0.9-0.3,1.8-0.2,2.7,0.2c0.8,0.4,1.5,1.1,1.8,2l2.1,6.4l1.2-0.7c0.1-0.1,0.3-0.1,0.4-0.2c2.2-1.2,4.9-0.4,6.1,1.8
		c0.6,1.1,0.7,2.3,0.4,3.4c-0.3,1.2-1.1,2.1-2.2,2.7c-1.1,0.6-112.9,61.3-149,106.8c-6.4,8-10.9,25.5-5.8,45.3
		c3.4,13,14.1,37,47,51.9l1.2,0.6l0.2-1.3c0.3-2.1,0.8-4.2,1.4-6.1c0,0,0-0.1,0.1-0.2c9.5-24.6,103.5-103.6,132-127.2l0.7-0.5
		l-3.1-5.2c-1-1.7-0.4-3.8,1.2-4.8c1.7-1,3.8-0.4,4.8,1.2l2.5,4.2l0.9-0.7c1.9-1.4,4.6-1.1,6.2,0.8c0.8,0.9,1.1,2.1,1,3.3
		s-0.7,2.3-1.6,3l-1,0.9c-0.8,0.7-1.6,1.3-2.5,2c-5,4.1-122.6,101.2-132.6,126.1c-0.9,2.9-1.4,6.3-1.3,10.2
		c0.2,7.9,2.5,17.1,6.5,25.9l0.1,0.1c0.2,0.3,0.4,0.7,0.5,1.1l0.1,0.2c5.6,11.5,13.3,20.4,21.7,25.3c9.1,5.2,23.5,7.6,39.4,6.6
		c18.8-1.2,35.9-6.7,45.7-14.8l0.1-0.1c7.9-9.3,10.6-22.9,11.4-32.7l0.2-2.6l-1.9,1.8c-14.3,13.4-27.4,21.8-38.9,24.9
		c-0.4,0.1-0.8,0.2-1.2,0.2c-2,0-3.8-1.4-4.3-3.3c-0.6-2.4,0.8-4.9,3.2-5.5c12.4-3.3,27.1-13.8,43.5-31.2
		c12.4-13.1,21.2-25.3,21.3-25.5c1.4-2,4.2-2.6,6.2-1.2c2.1,1.4,2.6,4.2,1.2,6.3c-0.1,0.1-8,11.3-19.9,24.2l-0.3,0.3v0.4
		c0.2,3.3,1.3,32.8-14.2,50.4c-0.1,0.2-0.3,0.3-0.5,0.5c-10.3,8.7-27.2,14.8-46.4,16.7l-0.8,0.1l-0.1,0.8
		c-0.9,8.5-2.4,38.2,17.6,63.6c0.7,0.9,1.1,2.1,0.9,3.3s-0.7,2.3-1.7,3c-0.8,0.6-1.8,1-2.8,1c-1.4,0-2.7-0.6-3.5-1.7
		c-21-26.6-20.8-56.7-19.7-68.4l0.1-1.1h-1.1c-0.5,0-0.9,0-1.4,0c-14.8,0-27.9-2.8-36.9-7.9c-3.1-1.8-6.2-4.1-9.1-6.8l-3-2.8
		l1.4,3.8c5.7,16,14.1,31.1,24.9,44.7c13.2,16.6,24,27.4,32.6,36.1c10.9,10.9,18.7,18.8,23.4,30.3c8,19.7,26.3,100,26.5,100.8
		c0.2,0.9,0.1,1.9-0.2,2.8l-0.6,1.4h140.5l-0.4-1.3c-3.5-10.8-14.8-48.1-14.8-73.1c0-17.3,3-29.5,6.8-45
		C682.2,976.4,685.2,964.1,688.2,946.8z"/>
</g>
<path fill="none" stroke="#000000" stroke-width="11" stroke-linecap="round" stroke-linejoin="round" stroke-miterlimit="10" d="
	M692.6,1106c0,0-15.3-45.8-15.3-73.9c0-28.1,7.9-41.4,15.3-84.5s8.6-108.3,7.8-166.5s-5-88.9-8-98c-3.1-9.2-74.3-127.1-141.3-176.6
	c-40.2-31-122.9-31.8-149-32.9c-26-1.1-33.7,3.1-40.2,16.5s-22.1,78.4-21.6,99.8c1.3,20.2,21.5,49.3,21.5,49.3"/>
<path fill="none" stroke="#000000" stroke-width="11" stroke-linecap="round" stroke-linejoin="round" stroke-miterlimit="10" d="
	M491.4,567.4c0,0-48,19.1-92.2,46c-46.2,29.5-56.8,51.5-59,62.8s8.9,63.3,19.4,76.6"/>
<path fill="none" stroke="#000000" stroke-width="11" stroke-linecap="round" stroke-linejoin="round" stroke-miterlimit="10" d="
	M522.8,621.6c0,0-113.4,61.3-150.4,108c-16.6,20.7-15.3,80.9,48,106.2"/>
<path fill="none" stroke="#000000" stroke-width="11" stroke-linecap="round" stroke-linejoin="round" stroke-miterlimit="10" d="
	M561.8,693c0,0-127,103.9-137.5,131c-6.4,19.4,7.7,55.7,29.6,68.2c22,12.5,69.7,8.7,90.6-8.9c15.1-17.1,13-47.5,13-47.5"/>
<path fill="none" stroke="#000000" stroke-width="11" stroke-linecap="round" stroke-linejoin="round" stroke-miterlimit="10" d="
	M578.5,808.4c-0.5,0.8-36,50-67.4,58.5"/>
<path fill="none" stroke="#000000" stroke-width="11" stroke-linecap="round" stroke-linejoin="round" stroke-miterlimit="10" d="
	M430.1,864.3c0,0,2.4,36.1,32.3,73.6s47.5,46,55.4,65.4c7.9,19.4,26.3,100.1,26.3,100.1"/>
<path fill="none" stroke="#000000" stroke-width="11" stroke-linecap="round" stroke-linejoin="round" stroke-miterlimit="10" d="
	M496.1,901c0,0-7.1,37.7,18.2,69.7"/>
<polyline fill="none" stroke="#000000" stroke-width="9" stroke-linecap="round" stroke-linejoin="round" stroke-miterlimit="10" points="
	432.2,578.9 457.2,580.2 472.3,560 "/>
<line fill="none" stroke="#000000" stroke-width="9" stroke-linecap="round" stroke-linejoin="round" stroke-miterlimit="10" x1="513.6" y1="613.1" x2="516.5" y2="621.6"/>
<line fill="none" stroke="#000000" stroke-width="9" stroke-linecap="round" stroke-linejoin="round" stroke-miterlimit="10" x1="552.7" y1="687.7" x2="557.8" y2="696.3"/>
<polyline fill="none" stroke="#000000" stroke-width="9" stroke-linecap="round" stroke-linejoin="round" stroke-miterlimit="10" points="
	355.8,629.6 354.1,649.1 360.1,638.3 "/>
<path fill="none" stroke="#000000" stroke-width="8" stroke-linecap="round" stroke-linejoin="round" stroke-miterlimit="10" d="
	M337.2,674.4c0,0-77.2-4.9-127.8-7c-50.6-2.2-79.1-1.7-87.4-3.7s-14.3-8.3-13.8-27.3S136.1,84,137.1,67.5s9.2-29.9,30.1-30.1
	c20.9-0.2,316,22,346.6,24.3c30.6,2.3,36.8,20.5,35.4,46.3s-29.5,380.3-29.5,380.3"/>
<path fill="none" stroke="#000000" stroke-width="46" stroke-linecap="round" stroke-linejoin="round" stroke-miterlimit="10" stroke-opacity="0" d="
	M389.1,493.4L377.6,508v25.8l36-40.3l22.2,3.8l-67.1,50.3l-8.6,31.7l101.2-79.7l22.5,1.6L369.9,601l10,14.8l124.9-104.2l15.7,5.4
	L367.4,668l0.5,25l3.1,34.5l18.4-54.6l152.9-145l31.4,32.2L407.9,701.8l-21.8,53.4l2.6,18.8l82.5-99.5l123.3-101.9l15.8,19.4
	L470.5,730.6l-71.7,63.8l19.9,12.5l208.1-187.7l20.2,28.3l-208.9,181l7.7,18l213.3-175.3l9.2,21.7L459.1,870l3.8,26l214.8-180.8
	l2.8,36l-211,172l22.8,23l190.5-164.3v44.4L511.1,966.4l11.7,36.1L684.7,860v36l-150.1,128.3l1.9,28.3l157-124l-18.4,57.8
	l-127.1,100l9.6,12.6c0,0,116.5-84.6,116.2-83.5c-0.2,1.1-0.8,23.2-0.8,23.2s-77.2,62.5-76,62.5s34.1,0,34.1,0l36-28l5.4,12.3
	l-14.6,13l32-1.2"/>
<path fill="none" stroke="#000000" stroke-width="46" stroke-linecap="round" stroke-linejoin="round" stroke-miterlimit="10" stroke-opacity="0" d="
	M173.1,55.8c-2.3,1.5-11.9,11.5-11.9,12.6s-4.2,35.2-4.2,35.2l44.8-47.9h35.6L157,124.6l-1.5,29.9l105.7-90.4l41.7-1.9L155.5,173.6
	l-3.8,41.6L335.1,64.1l42.1,3.4L151.6,240.7l-3.8,30.9L414,69.8l28.7,5L149.3,294.2l0.8,25.7l329-246.3l31.4,1.9L143.9,338
	l-2.3,36.8L530.3,84.9l-3.4,38.7L141.6,399v38.7l385.1-289.5l-4,47.9l-384.2,265l-1.9,29.5l383.6-268.1l-6,35.2L138.5,510.8l-3,32.2
	l378.1-261.7l-4.7,41.7L135.5,560v36.1l370.3-251.2l0.4,34.5L129.7,613.1v28.6l377.6-237.8l-7.3,32.2L153.8,641.8h44.8l304.5-183.1
	l-2.2,26L220.1,646l54,5.4l68-45l9.6,12.3l-52.5,30.6h44.4"/>
</svg>
