<?xml version="1.0" encoding="utf-8"?>
<!-- Generator: Adobe Illustrator 24.0.3, SVG Export Plug-In . SVG Version: 6.00 Build 0)  -->
<svg version="1.1" id="Layer_1" xmlns="http://www.w3.org/2000/svg" xmlns:xlink="http://www.w3.org/1999/xlink" x="0px" y="0px"
	 width="1000px" height="1000px" viewBox="0 0 1000 1000" enable-background="new 0 0 1000 1000" xml:space="preserve">
<g id="vs-primary">
	<path fill="#D862E8" d="M481,177c-0.9-3.6,5-6,11-15c3.3-4.9,4.6-8.8,7-16c2.6-7.7,6-20.2,7-37c12.2,1.5,23,2.8,32,4
		c26.1,3.4,47.1,6.5,61,12c2.2,0.9,8.6,3.5,16,7c5.2,2.4,7.8,3.7,10,5c6.1,3.8,7.2,6,12,8c1.7,0.7,3.7,1.3,10,2
		c4.9,0.5,11.7,1.1,20,1c-1,2.3-3,6.3-7,10c-1.4,1.3-6.9,6-15,7c-8,1-13.4-2.1-14-1c-0.4,0.8,2,3.4,14,11c-0.9,5.2-2.1,12.8-3,22
		c-0.4,3.9-1.8,19.2-1,41c0.2,5.6,1.1,24.3,8,34c1,1.4,3.1,4.3,7,6c1.2,0.5,4,1.6,10,1c2.9-0.3,9.1-1,16-5c9.8-5.7,14.1-14,19-21
		c5.2-7.4,13.9-17.4,29-27c3.3,6.5,7.9,15.7,13,27c1.6,3.5,9.6,21.5,14,34c4.6,13.2,10.5,35.6,10,68c-6.6-1.6-16.3-3.2-28-2
		c-17.5,1.7-30.3,8.7-37,13c-0.4-6.4-1.1-13-2-20c-0.6-4.5-1.3-8.8-2-13c-3.9,1.8-9.5,4.8-15,10c-4.9,4.6-6.6,7.9-13,16
		c-6.6,8.3-9.8,12.4-13,15c-13,10.6-29.7,10.1-35,10c-5.2-0.1-13.4-1-23-5c-5.5,2.1-11.5,4.2-18,6c-4.2,1.2-8.2,2.2-12,3
		c-2.2,3.1-5.4,7-10,11c-2.5,2.2-10.5,8.9-23,13c-12.6,4.2-23,3.6-31,3c-15.7-1.1-27.1-5.7-30-7c-14.9-6.4-24.2-15.2-27-18
		c-10.7-10.7-15.5-21.6-20-32c-11-25.7-20.2-47.8-28-67c5.7,0.3,11.3,0.7,17,1c-0.2-3.5,0.2-7.9,3-10c2.2-1.7,4.9-1.1,8-1
		c0,0,6.4,0.1,17-5c9.8-4.7,14.2-15.1,16-19c5.2-11.2,18.4-30.1,53-64c-3.3-2.4-8-5.4-14-8C488.8,180.2,481.9,180.7,481,177z"/>
</g>
<g id="vs-secondary">
	<path fill="#D4D3E5" d="M399,293c5.5,17.4,11.3,31.5,16,42c7.5,16.7,13.4,29.4,25,44c5.2,6.5,9.6,12,17,18c6,4.9,28.1,22.2,58,20
		c1.9-0.1,8.1-0.7,16-3c18.6-5.5,30.8-16.5,37-23c-1.9,5.9-4.3,14.9-5,26c-0.4,5.7-0.1,9.8,0,13c0,0,0.4,12-2,39
		c-1.6,17.7-8.9,61.8-26,119c-1.3,5.9-3.8,9.2-6,11c-3.8,3.2-6.4,2.3-11,6c-1.5,1.3-5.7,4.6-7,10c-0.8,3.6,0.5,4,0,11
		c-0.3,4.5-1,5.8,0,7c1.7,2,4.8-0.4,10,1c3.9,1.1,4.2,2.9,9,5c3.2,1.4,6.1,1.8,8,2c1.6,5.7,3.2,14.1,2,24c-1.2,10.3-4.9,17.2-7,22
		c-4.4,9.8-8.8,24.9-8,47c-2.9,2.9-7.5,6.9-14,10c-14.6,7.1-28.4,5.1-36,4c-13.1-1.9-23.3-6.9-30-11c0.8-9.1,2.4-20,6-32
		c2.1-7.1,4.5-13.4,7-19c-5.4-0.5-9.4,0.3-12,1c-1.9,0.5-6.7,2.1-21,14c-3,2.5-5.4,4.6-7,6c-2.5-0.7-6.1-1.9-10-4c0,0-8.5-4.5-16-13
		c-8.1-9.1-16.5-27.6-20-52c5.6-3.4,11.6-6.7,18-10c10.8-5.6,21.3-10.2,31-14c2.1-6.4,4.2-16.1,2-27c-2.5-12.3-8.5-16.3-21-35
		c-8.5-12.7-13.5-22.6-23-41c-6.2-12.1-11.6-22.6-16-34c-4-10.3-14.1-37.2-13-73c0.5-15.3,1.7-44.9,20-76
		C379.7,311.5,390.9,300.1,399,293z"/>
</g>
<g id="vs-skin">
	<path fill="#D8AF87" d="M824,131c-2.4-1.4-5.6,4.3-17,9c-8.3,3.4-15.1,3.9-17,4c-8.8,0.5-16.4-1.6-22-4c-5.6,8.3-11.6,12.6-16,15
		c-7.8,4.2-12.2,3.4-21,9c-3.8,2.4-8.3,5.4-12,11c-0.9,1.4-8.4,13.1-4,22c2.2,4.5,6.5,6.2,6,7c-0.6,1-7.3-0.5-12-5
		c-1.5-1.4-4.2-4.5-6-13c-1.1-5.1-2.2-13.8,0-25c-3.2,3-8.2,7.2-15,11c-6.9,3.9-14.1,7.9-24,8c-3.7,0-10.8-0.5-19-5
		c-1.5,11.5-2.4,21.1-3,28c-0.9,10.8-2.7,35.5,3,59c1.2,5,3.2,11.8,9,15c4.1,2.3,8.8,2.1,12,2c1.2,0,6.9-0.3,13-3
		c12.4-5.4,19.7-17.6,30-30c4.6-5.5,11.8-13.4,22-22c7.6,4.9,13.2,9.6,17,13c4.7,4.3,7.2,7.2,11,7c4.8-0.2,8.6-5.1,10-7
		c3.4-4.5,2.3-6.5,6-11c2.3-2.7,4.7-4.4,7-6c4.9-3.4,6.5-3.1,9-6c2.6-3,1.8-4.5,4-6c3.7-2.5,7.2,0.9,10-1c3.3-2.3,0.1-8.3,2-20
		c0.8-5,2.2-8.8,3-11c2.7-7.2,5.6-10.9,8-15C825,149.1,827.7,133.1,824,131z"/>
	<path fill="#D8AF87" d="M703,367c7.2-3.9,18.4-8.8,33-11c12.2-1.8,22.6-1.1,30,0c4.8,22.4,8.6,52.2,6,87c-1.4,18.8-4.4,35.6-8,50
		c-11.6,15.5-28.2,34.6-51,53c-28.6,23.1-56.4,36.8-77,45c-7.9,10-15.6,16.8-21,21c-9.3,7.3-8.5,4.4-36,21c-7.7,4.6-16.5,7.1-24,12
		c-2.5,1.6-6.5,4.4-9,3c-3.2-1.8-0.5-8.3-4-11c-2.8-2.1-6,0.8-14,1c-4.3,0.1-11.7,0.3-15-4c-1.9-2.5-1.3-7.3,0-17c0.6-4.6,0.9-7,2-9
		c1.7-3.3,4.5-5.8,11-9c12.4-6.2,20.9-6.6,21-9c0.1-2.7-10.4-3.1-11-7c-0.7-4.6,13-10.2,22-14c9.5-4,14.5-6,22-7
		c5.7-0.7,16.2-1.3,29,3c9-8.3,16.6-15.1,22-20c23.3-21,22.1-19.2,43-38c11-9.8,11.7-10.6,15-13c9-6.3,14.3-7.7,18-14
		c3.1-5.2,3.1-10.5,3-14C709.7,451.7,707.3,415.3,703,367"/>
	<path fill="#D8AF87" d="M372,638c-0.2,7,0.5,20.5,8,35c10.9,21.1,28.9,30.2,35,33c-1.2,1.9-3.2,4.8-6,8c-10.6,11.8-23.5,16-29,18
		c-32,11.5-56.8,35.9-65,44c-9.5,9.3-16,18.2-20,24c-3.8-0.1-10.3-0.7-16-5c-7.6-5.7-9.6-14.5-12-25c-1.3-5.6-2.5-13.8-2-24
		c2.9-1.9,7.2-4.9,12-9c12.3-10.5,18.7-20.5,24-28c0,0,11.1-15.7,31-37C340.5,662.9,353.4,650.6,372,638z"/>
	<path fill="#D8AF87" d="M445,737c4.3,2,10.4,4.5,18,7c9.6,3.1,17.9,5.8,26,6c4.8,0.1,19.3-0.5,36-16c0.9,6,1.9,15,2,26
		c0.1,9.8-0.7,17.9-5,46c-5.2,34-6.8,39.2-6,51c0.8,12.9,3.7,23.3,6,30c-2,3.2-5.7,8.1-12,11c-11,5-25.2,1.9-36-8
		c-0.6-5.4-1.6-12.6-3-21c-1.5-8.8-3.8-20.4-8-37c-5.4-21.3-7.9-26-11-38C448.5,780.8,444.9,761.7,445,737z"/>
	<path fill="#D8AF87" d="M504,108c5,5.7,2.6,15.3,0,25c-2.8,10.4-8.7,26.6-23,44c-4.9-0.9-9.9-1.9-15-3c-22.5-4.9-43.2-11.1-62-18
		c-6.5,3-16.5,7.3-29,11c-24.7,7.4-43.7,8.2-53,9c-19.4,1.7-47.6,7.6-84,27c-3.2,6.5-5.5,12-7,16c-1.6,4.2-2.2,6.2-4,7
		c-4.7,2.1-12.6-6.3-15-9c-2.5,0.2-6.2,0.9-10,3c-4.7,2.7-5.4,5.3-9,6c-3.9,0.8-7.4-1.6-11-4c-2.3-1.6-7.8-5.3-10-12
		c-1.3-4.1,0.2-4.3-1-10c-1.4-6.4-4.5-11.6-6-14c-3.4-5.6-5.5-6.6-5-9c0.7-3.3,5.2-5.3,8-6c3.3-0.8,6-0.2,7,0c7.9,1.6,15.4-2,22-4
		c6.8-2.1,17.7-4,35-3c20.9-11.3,37.7-20.6,49-27c20.2-11.4,22.5-13,30-16c4-1.6,19.4-5.4,50-13c9.7-2.4,19.5-4.1,29-7
		c4.9-1.5,8.1-2.6,13-3c9.9-0.8,17,2.3,22,4c10,3.4,23,3.3,49,3C493.6,104.8,499.8,103.2,504,108z"/>
</g>
<g id="vs-hair">
	<path fill="#9B5C31" d="M673,110c3.5-3.1,7.2-6.5,10-12c3.8-7.4,1.8-10.8,4-18c3.4-11,12.6-17.4,15-19c11.6-8,24.5-7,38-6
		c10.8,0.8,19.4,3.1,25,5c5.1-1.1,14.4-2.3,25,1c16.6,5.1,25,17.6,30,25c5.6,8.3,14.1,21,10,33c-2,5.7-6.6,10.6-8,12
		c0,0-4.8,4.8-12,8c-16.4,7.3-38.8,1.8-42,1c-2.2,2.9-5.8,7-11,11c-8.2,6.2-12.1,5.5-21,11c-6.2,3.8-15.1,9.3-19,19
		c-4.2,10.4-0.4,20.2-3,21c-2.5,0.7-6.8-7.6-7-8c-2.5-4.8-6.6-15.3-3-32c-3,2.1-7.5,5-13,8c-0.6,0.3-11.1,6.1-17,8
		c-14.5,4.7-31-4-39-9c5.7-1.5,10.4-2.9,14-4c6.8-2.1,9-3.1,11-5c3.2-3,4.4-6.7,5-9c-2.9-1.1-7.4-2.5-13-3c-8.9-0.8-11.9,1.4-17-1
		c-4.3-2-3.3-4.1-10-10c-2-1.8-7-6.2-14-9c-9.3-3.8-15.8-2.3-16-4c-0.3-2.3,11.8-6.2,20-8c6.9-1.5,10.3-2.3,15-2
		c7.5,0.5,10,2.9,21,4c4.1,0.4,6.3,0.6,9,0C665.4,116.8,668.9,113.7,673,110z"/>
</g>
<g id="vs-colour">
	<path fill="#4A4A51" d="M174,171c-0.5-5.9-0.7-14.8,2-25c7.2-27.7,29-41.9,34-45c22.1-13.6,44.1-11.7,51-11
		c30.1,3.1,48.9,21.6,54,27c-6.2,3.3-15.6,8.4-27,15c-9.9,5.7-14.2,8.4-22,13c-8.1,4.7-19.9,11.4-35,19c-6.7-0.5-14.4-0.7-23,0
		C194.4,165.1,182.9,168,174,171z"/>
	<path fill="#4A4A51" d="M240,199c9.8-4.2,20.8-8.3,33-12c16-4.8,30.8-8,44-10c-3.1,5.5-8.4,13.4-17,21c-5.5,4.9-14.8,11.7-28,16
		c-15.9,5.2-29.7,4.1-37,3C236.7,211,238.3,205,240,199z"/>
	<path fill="#9997A5" d="M267,748c2.8,2,0,7.7,0,18c0,4.2,0.1,13.1,4,20c5.9,10.3,18.7,13.1,24,14c-8.3,15.7-16.7,31.3-25,47
		c4.5,5.4,7.3,10.4,9,14c3.7,7.7,3.3,10.7,3,12c-0.8,4-3.5,6.6-5,8c-1.2,1.2-4.5,4.4-9,5c-5.3,0.7-9.7-2.5-13-5
		c-12.3-9.5-23.8-22.8-29-29c0.9-4.4,2-11,3-19c1.4-11.2,2.1-16.9,1-23c-1.6-9-5.3-12-9-20c-3.4-7.3-6.6-18.5-5-35
		c5.7-4.2,10.7-5.5,14-6c10.3-1.4,14.5,4,25,2C262,749.6,264.7,746.3,267,748z"/>
	<path fill="#9997A5" d="M475,892c4.1-1.8,7.4,4.6,19,7c3.5,0.7,8.1,1.7,13,0c8.8-3.1,12.2-12.7,13-15c5.9,8.3,11.9,16.6,18,25
		c13,17.8,26,35.2,39,52c0.4,1.1,2.5,7.5-1,13c-1.9,3-4.6,4.3-6,5c-4.6,2.2-8,1.3-17,1c-10.4-0.4-9.7,0.7-16,0
		c-6.6-0.7-11.3-2.4-16-4c-8.2-2.9-15.7-5.5-23-12c-3.3-3-5.6-6-10-12c-6.4-8.7-6.5-10.9-12-17c-4.4-4.8-5.7-4.9-7-8
		c-1.6-3.8-0.8-6.8,1-16C473.2,894.7,473,892.9,475,892z"/>
</g>
<g id="vs-shade">
	<path opacity="0.4" enable-background="new    " d="M787.7,65c-8-2-15.2-1.8-20.3-1c-5.3-3.5-17.3-10.2-33.3-9.9
		C711,54.4,696,68.9,692.4,72.3c-3.7,3.6-6.8,7.4-9.3,11.2c0.2,0.7,0.3,1.4,0.5,2.2c2.7,2.5,3.9,5.6,4.7,8.8
		c0.2-0.3,0.3-0.6,0.5-0.9c3.6-6.2,7.1-12.1,13.8-18.2c3.5-3.2,8.6-7.7,16.6-10.7c4.3-1.6,15.1-5.5,27-0.9
		c9.3,3.6,14.4,10.6,16.5,13.8c7.4-1.3,17.5-2,28.8,0.8c20.8,5.2,31.4,18.9,32.7,17.6C825.7,94.3,812.1,71.2,787.7,65z"/>
	<path opacity="0.4" enable-background="new    " d="M779.2,143.8c0.2-0.3-3.9-3.1-7.4-5.7c-6.6-5-14-11.6-17.8-16.3
		c-3.3-4.1-9.3-12.9-10.2-29.2c-0.8,3.5-1.9,10-0.3,17.8c1.9,9.2,6.6,15.5,9,18.3c-3.3-1.1-7.7-2.9-12-6.4
		c-10.2-8.1-12.4-18.7-14.1-18.1c-1.8,0.5-1.5,12.5,4.1,23.5c4.1,8.1,10,13.4,14,16.5c-0.8,1.6-2.3,4.3-4.9,6.9
		c-4.3,4.4-7.7,5-20.7,12c-3.8,2-6.3,3.5-9,6c-2.1,1.9-4.5,4.2-6,8c-0.4,1.1-1.8,4.7-1,9c1.5,8.4,10.6,14.5,13,13
		c2.2-1.4-2.7-7.8,0-17c1.6-5.4,4.9-8.8,6-10c3.8-3.9,7.3-4.8,13-7.4c0,0,13.8-5.8,25.7-15.2c4.7-3.7,8.2-7.1,10.7-9.6
		C775.1,141.9,779,144.1,779.2,143.8z"/>
	<path opacity="0.4" enable-background="new    " d="M798.4,163.5L798.4,163.5c0.2,0.1,2.7,1.7,2.7,4.1c0,1.6-1,2.7-1.6,3.4
		c-1.2,1.4-2.7,2.1-4.1,2.7c-3.3,1.4-4.5,0.8-5,1.8c-0.7,1.3,0.9,3.4,2.7,5.8c0.4,0.5,0.9,1.1,1.7,1.6c1.3,0.8,2.6,0.8,2.6,0.8
		s-3.2-0.2-6.8-1.5c-6.1-2.2-8.8-6.2-9.5-5.6c-0.6,0.5,0.6,4.5,3.6,6.6c1.6,1.1,3.3,1.5,7.7,4c0.5,0.3,1.3,0.7,1.7,1.6
		c0.6,1.3,0.2,3.1-0.7,4.2c-0.9,1.1-1.6,0.8-3.3,1.8c-0.9,0.5-3.6,2-4.1,4.4c-0.6,2.8,2.2,5.4,2.7,5.8c3.1,2.8,7.5,2.8,7.7,2.3
		c0.2-0.6-3.9-1.4-5.2-4.9c-0.2-0.6-0.8-2.2-0.1-3.4s2.1-1,4.1-2.7c0.8-0.7,1.3-1.4,1.6-1.7c1.4-1.9,1.6-3.5,2.3-6
		c0.9-3.2,2.1-5.5,2.3-6c0.9-1.8,2-3.9,4-6c2.1-2.2,3-2.2,3.3-3.5c0.4-2.1-1.4-4.3-2.7-5.8c-1-1.1-1.9-1.9-2.6-2.5"/>
	<path opacity="0.4" enable-background="new    " d="M790.7,213.6c0-0.8-0.7-1.7-3.5-3.3c-6-3.3-9.8-2.9-10.3-4.7
		c-0.6-2.1,3.7-4.4,3.2-5.2c-0.7-1.1-9.7,1.4-10,5.4c-0.1,1,0.5,1.8,0.9,2.5c1.8,2.8,4.3,2.6,8.6,4.8c4.7,2.4,5.5,4.5,7.7,4
		C789.1,216.7,790.8,215,790.7,213.6z"/>
	<path opacity="0.4" enable-background="new    " d="M741.2,226.1c0.7-1.2-4.7-4.3-9.6-10.7c-3.5-4.5-5.2-8.7-7.2-13.3
		c-4.1-9.9-4.8-16.8-5.6-16.7s-0.2,7-0.3,17.8c-0.1,11.4-0.2,17.1-1.8,22.9c-3.6,12.8-11.9,20-11.2,20.6c0.8,0.7,10.4-6.5,18.1-15.8
		c1.6-1.9,3.4-4.2,6.6-5.3C735.6,223.9,740.6,227.3,741.2,226.1z"/>
	<path opacity="0.4" enable-background="new    " d="M623,135c0.8-1.9,8.7,1,26,2c8.6,0.5,12.3,0.1,16-1c6.2-1.8,10.7-5.1,13-7
		c3.4-2.9,4.7-5,9-11c7.1-9.9,12.7-17.6,14-17c1.1,0.6-2,7-7,23c-3.8,12.1-3.9,14.7-7,20c-1.2,2.1-5.2,8.6-12,14
		c-16.3,12.9-37.9,10.8-38,10c-0.1-0.5,7.6-0.6,17-6c6.8-3.9,14.2-10.3,13-13c-0.8-1.8-5-0.3-15-1c-5.1-0.4-11.4-0.9-18-4
		C628.4,141.4,622.3,136.8,623,135z"/>
	<path opacity="0.4" enable-background="new    " d="M701,180c-1.3-6.9-0.8-12.9,0-17c-4.4,3.8-10.4,8.1-18,12
		c-5.5,2.8-10.6,4.7-15,6c-0.3,2-0.6,5.2-1,9c-1,10.6-1,18.4-1,21c-0.2,20.6-7,39.7-6,40c0.9,0.2,6-12.7,10-27
		c0.6-2.2,6.2-16.1,13-34c0.5-1.4,1.9-5,5-6c2.1-0.6,4.1,0.2,6,1c5.8,2.5,8,6.6,9,6C704.1,190.4,702.1,185.5,701,180z"/>
	<path opacity="0.4" enable-background="new    " d="M486,172c4.3-1.5,7.7,2.5,15,6c10,4.7,11.7,1,28,6c11,3.4,15.3,6.6,17,8
		c2.3,1.8,6.3,5.2,9,11c3.2,6.9,2.6,13.3,2,19c-1.2,11.1-5.6,20.3-7,20c-1.3-0.3,1.9-8.9-3-16c-1.7-2.5-3.8-3.9-7-6
		c-1.8-1.2-6.4-4-14-6c-9.3-2.5-14.8-3.9-18-1c-3.3,3.1-2.2,9.4-1,16c1.4,7.7,4.1,13.4,6,17c8.1,15.5,17,22.9,16,24
		c-1,1-10.7-4.1-19-13c-7.3-7.9-8.7-13.4-14-14c-5-0.6-9.4,3.6-12,6c-4.3,4.1-5.6,7.9-9,15c-6.4,13.2-7.7,11.6-10,18
		c-4.8,13.5-0.9,26.6,1,33c4.7,15.8,13.3,24,12,25c-1.4,1.1-14.2-6.9-21-21c-5.2-10.8-3.4-17.9-11-24c-3.7-3-8.2-4.6-12-6
		c-5.9-2.2-9.9-3.6-12-2c-1.4,1.1-3,4.6,3,20c5.1,13.1,12,25.3,25,43c9,12.3,13.7,18.6,21,25c4.7,4.1,12,10.3,23,15
		c13.4,5.7,24.9,5.9,34,6c17.4,0.2,32.4-3.6,44-8c-2.1,2.2-5.4,5.2-10,8c-12.8,7.9-25.7,8-33,8c-31.1-0.1-54.9-17.4-65-25
		c-11.2-8.4-18.2-16.2-25-24c-11.3-12.8-26.3-32.7-39-61c2.3-1.7,5.5-3.5,9-3c3.2,0.4,3.9,2.3,6,2c4.3-0.6,3.3-9,9-13
		c4.5-3.1,8,0.2,16-2c5.8-1.6,9.5-4.8,13-8c9.9-8.9,14.1-19.7,15-22c4.2-10.5,14.7-27.3,43-55c-2.6-2.7-7.6-7.1-15-10
		c-6.6-2.6-12.4-3-16-3C480.9,177,482.7,173.2,486,172z"/>
	<path opacity="0.4" enable-background="new    " d="M727,355c0.1-2.3-4.1-2.4-7-7s-0.6-7.4-3-12c-3.3-6.2-11.2-7.8-12-8
		c-9.8-1.8-17.3,5.5-20,8c-6.5,6.2-8.5,13.7-8,14c0.6,0.4,5.4-10.1,15-13c2.5-0.8,4-0.6,5,0c2.5,1.4,2.7,5.3,3,11
		c1,17,1.9,18.4,3,19c1.7,0.9,3.1-0.7,12-5C723.6,357.8,726.9,357.1,727,355z"/>
	<path opacity="0.4" enable-background="new    " d="M746,266c-1,0.6-2.9-2.5-9-7c-3.4-2.5-6.2-4-8-5c-4.9-2.6-7.4-4-10-4
		c-4.1,0-6.4,2.5-11,6c-8.7,6.5-18.3,10.9-19,10s7-7.2,21-21c13.9-13.6,19.8-20.6,23-19c2.4,1.2-0.1,5.6,3,14c2.3,6.3,4.9,7.1,8,15
		C745.5,259,747.4,265.2,746,266z"/>
	<path opacity="0.4" enable-background="new    " d="M665,366c-1-2.2-18.8,10.8-44,7c-10.9-1.7-20.3-6-31-11
		c-11.8-5.5-13.6-7.9-27-14c-16.7-7.6-17.8-5.7-25-10c-20.9-12.7-24.8-37.8-27-37c-2,0.7-2.4,21.9,11,36c9.1,9.5,16.4,7.4,39,23
		c8,5.5,12,8.3,14,10c8,6.8,10.1,10.9,16,12c4.6,0.8,5.5-1.2,12-1c7.5,0.2,12.5,3,15,4C635.1,392,666.3,368.9,665,366z"/>
	<path opacity="0.4" enable-background="new    " d="M492,162c-31.9,1.8-50.7-4.6-62-11c-5.3-3-19.1-11.7-30-7
		c-2.5,1.1-3.1,2.1-10,6c-0.5,0.3-9,5.1-16,8c-9.9,4.1-18.2,5-28,6c-15.9,1.7-17.9-0.5-30,2c-3.5,0.7-8.7,2.5-19,6
		c-13.4,4.5-20,6.8-28,10c-11.5,4.6-32.7,13.9-32,16c0.5,1.5,11.6,0,21-3c4-1.3,8.2-3,15-4c5.1-0.7,8.1-0.6,11,1
		c1.1,0.6,3.5,2.1,5,5c2.4,4.5,0.5,8.1,2,9c2.8,1.7,11.7-8.5,13-10c3.7-4.3,8.5-10.5,13-19c5.4-0.9,13.8-2.3,24-4
		c18.5-3,22.9-3.5,30-5c7.9-1.7,19.4-4.6,33-10c13.8,4.1,28.1,8.2,43,12c11.2,2.9,22.2,5.6,33,8C484,172.7,488,167.3,492,162z"/>
	<path opacity="0.4" enable-background="new    " d="M174,203c3.7-6.2,19-2.3,19-1c0,1.1-10,1-11,5c-0.3,1.1,0.4,1.2,1,5
		c0.4,2.9,0.2,3.9,1,5s2.1,1.7,4,2c7.3,1.2,13.1-3.2,14-2s-2.9,7.9-9,9c-4.6,0.8-8.4-2-11-4c-4.7-3.5-6.6-7.9-7-9
		C173.9,210.2,172.2,206,174,203z"/>
	<path opacity="0.4" enable-background="new    " d="M176,158c11-3,19.8-3.3,26-3c4.7,0.3,8.7,1,15,0c3.8-0.6,9.4-1.4,15-5
		c8-5.1,7.9-10.5,13-12c3.3-0.9,8.8-0.2,18,9c-7.8,5.3-14.8,8.8-20,11c-6,2.6-11.5,4.9-19,6c-8.7,1.3-9.7-0.6-18,0
		c-17.3,1.3-25.8,10.6-30,7C174.5,169.7,173.3,166.6,176,158z"/>
	<path opacity="0.4" enable-background="new    " d="M705,387c1-0.2,7.7,19.4,10,37c0.6,4.3,0.9,8.4,3,14c1.9,4.9,3.7,7.1,6,14
		c1,3,1.7,5.1,2,8c0.1,1,0.8,7.1-1,12c-4.1,11.5-21.4,16.3-23,14c-1-1.4,4.7-4.7,8-13c3.6-9.1,1.8-17.6,1-22
		C705.9,424.4,703.7,387.3,705,387z"/>
	<path opacity="0.4" enable-background="new    " d="M567,396c-5.6-3.4-21.7,10.8-23,12c-3.6,3.2-5.1,5.3-9,7
		c-5.7,2.5-10.9,1.6-16,1c-18.3-2.3-15.6-0.4-27-2c-6.7-0.9-24.4-3.4-38-16c-4.3-4-2.6-3.8-14-19c-10.1-13.4-15.1-20.1-22-26
		c-13.4-11.4-29-16.6-30-15c-0.9,1.5,11.8,7,25,23c9.5,11.6,9.6,16.8,22,31c6.4,7.3,12.3,12.7,12,13c-0.4,0.4-9.3-8.8-22-17
		c-17-11-35.2-16.6-36-15c-0.5,1,7.5,4.8,34,22c2.7,1.8,10.1,6.8,25,17c11.2,7.7,14.4,9.9,18,14c7.9,9,10.6,18.5,12,23
		c5.8,19.1,5.7,7.3,28,63c17.6,44,24.2,67.5,26,67c1.6-0.5-2.2-19.8-8-49c-1.4-7.2-2.8-14.3-5-24c-7.3-33.1-11-49.6-13.5-53.5
		c-1-1.6-3.4-5-2.5-8.5c1.5-5.8,10.6-8.1,14-9c2.3-0.6,5.3-1.1,17-1c13.4,0.2,17.8,1,18,0c0.3-1.4-7.8-5.6-17-7s-16,0.4-16,0
		c-0.1-0.6,16.1-7.4,35-6c2.6,0.2,5.2,0.5,8-1C570.1,415.5,571.8,398.9,567,396z"/>
	<path opacity="0.4" enable-background="new    " d="M384,515c1.7-1,26.2,34.9,40,56c17.5,26.8,18.5,31.1,29,44
		c1.7,2.1,7.7,9.4,14,20c5.6,9.5,9,15.2,10,22c1.9,13.1-6.2,22.4-12,33c-11.5,21.2-10.7,42.4-10,61c1,27.4,11.1,54.2,22,83
		c4.7,12.3,8.5,20.4,7,32c-1.3,10.1-5.9,16.8-2,24c2.2,4,6.7,7.9,12,9c6.6,1.4,11.2-2.2,13,0c1.6,1.9,0.2,7-3,9
		c-4.1,2.6-8.1-1.9-14,0c-4.5,1.4-8.1,5.8-9,10c-1.1,4.9,1.7,8.8,11,21c11.4,14.8,17.1,22.2,20,24c7.7,4.6,15.1,5.5,28,7
		c8,0.9,12.1,1.4,17,0c9.5-2.6,13.4-8.9,17-7c2.9,1.5,3.9,7.3,2,11c-2,3.8-6.7,4.7-14,6c-8.6,1.5-15.5,1.2-18,1
		c-14.4-0.9-24.8-5.1-27-6c-5.6-2.3-12.3-5-19-11c-7.4-6.6-8.3-11.1-19-25c-4.1-5.3-7.7-9.4-10-12c0.3-4.5,0.8-11.5,2-20
		c1.7-12.2,3-15.6,3-23c0-6.3-1-9.3-4-22c-4.9-20.9-3.8-19.3-7-32c-4.8-18.9-7.7-24.1-11-36c-4.7-16.9-13.1-46.7-4-77
		c3.9-12.9,9.6-21.4,13-42c2.1-12.4,1.6-19,1-23c-1.9-13.3-7.8-22.5-14-32c-15.5-23.5-28.3-41.1-29-42
		C396.2,546.8,382.5,515.9,384,515z"/>
	<path opacity="0.4" enable-background="new    " d="M425,591c0.3,2.8,1,13.4-3,21c-0.6,1.2-1.8,3.3-4,5c-3.3,2.6-6.9,2.9-8,3
		c-3.8,0.4-10.2,4-23,11c-10.9,6-30.7,17.6-30,19c0.5,1,12.7-4.1,37-11c8.8-2.5,14.6-4,20-1c7.1,3.9,8.8,12.7,9,14
		c1.9,10.9-5,20.3-13,31c-8.8,11.6-17.4,18.9-20,21c-21.7,17.9-31.8,20.5-46,31c-29.6,22-42.3,53-41,54c0.9,0.7,9.1-13,28-28
		c10.9-8.6,20.6-13.9,39-24c15.5-8.5,20.4-10.2,32-18c9.2-6.2,13.9-9.4,20-15c7.7-7,9.8-10.7,16-14c7.7-4.1,15.6-4.4,21-4
		c1.5-5.5,2.9-13,3-22c0,0,0.1-12.2-3-24C452,613.5,429.9,595,425,591"/>
	<path opacity="0.4" enable-background="new    " d="M227,755c-2.2,14.1,0.9,22.8,4,28c4.1,6.8,7.6,6.8,11,14c4.1,8.8,3,18,2,26
		c-1.4,11.3-4.1,12.7-3,20c0.9,6.2,3.6,10.5,7,16c2.9,4.7,6.8,10.9,14,16c6.6,4.7,12.3,5.8,12,8c-0.2,1.7-3.6,2.7-6,3
		c-4.8,0.5-8.6-2-13-5c-12-8.3-17.9-12.5-23-19c-4.2-5.5-6.5-8.4-7-13c-0.6-5.5,2-7.2,4-16c0.6-2.7,2.2-10.2,1-19
		c-0.6-4.3-2.4-8.9-6-18c-4.6-11.7-5.2-11.4-7-17c-2.2-7.1-6.2-19.8-1-24C216.9,754.2,219.8,752.5,227,755z"/>
</g>
<g id="vs-outline">
	<path fill="none" stroke="#000000" stroke-width="9" stroke-linecap="round" stroke-linejoin="round" stroke-miterlimit="10" d="
		M823.2,134.1c0,9.1-1.9,15.6-3.5,19.7c-1.5,3.8-3.6,7.7-5.5,11.3c-2.2,4-4.1,7.3-5.6,9.6c-0.5,4.9-0.8,10-1.1,15.4
		c-0.2,5-0.3,9.9-0.3,14.5c-0.4,0.8-1.2,1.8-2.4,2.7c-1.5,0.9-2.9,1-5.9,1.1c-1.3,0-3.3,0.1-6.8,0.3c-1,3.6-2.7,5.3-4,6.1
		c-1.1,0.7-1.8,0.7-3.3,1.8c-0.7,0.5-2.2,1.6-3.3,3.5c-0.9,1.6-0.6,1.9-1.6,3.5c-0.6,0.9-1.2,2-2.4,2.7c-1.7,1-2.8,0.2-4.2,1
		s-1.7,2.4-2.4,4.4c-0.9,2.7-2.2,6.7-4.8,8.7c-4.3,3.4-11.2,0.8-11.9,0.5c-2.4-1-3.6-1.9-9.7-7.3c-9.5-8.4-11.4-10-14-9.6
		c-1.8,0.2-2.5,1.2-6.6,5.4c-2.9,2.9-6.9,7-12.3,11.6"/>
	<path fill="none" stroke="#000000" stroke-width="9" stroke-linecap="round" stroke-linejoin="round" stroke-miterlimit="10" d="
		M823.2,132.4c2.2-2.2,5.8-6.6,7.1-13.1c0.3-1.4,1.3-6.9-2.3-17.4c-1.6-4.7-5-14.4-14-24c-4.5-4.8-14.1-14.9-30-18
		c-8-1.6-14.8-0.8-19,0c-6.3-2.2-15.8-4.8-27.5-4.9c-12.2-0.2-32.5-0.4-43.8,12c-12.3,13.6-3.7,31.1-19.7,45c-2.1,1.9-5.2,4.5-10,6
		c-10.7,3.4-15-3.4-31-4c-3.8-0.1-14.4-0.1-26,5c-3.9,1.7-6.9,3.6-9,5"/>
	<path fill="none" stroke="#000000" stroke-width="7" stroke-linecap="round" stroke-linejoin="round" stroke-miterlimit="10" d="
		M806.9,171.4c-0.7-1.3-1.8-3.2-3.6-5c-4.4-4.4-9.7-5.3-11.3-5.5c-5.1-0.8-9.1,0.5-11,1.3"/>
	<path fill="none" stroke="#000000" stroke-width="6" stroke-linecap="round" stroke-linejoin="round" stroke-miterlimit="10" d="
		M802,176.7c-1.2-0.4-3-0.9-5.2-1.5c-4.6-1.3-7-1.9-9.5-2.2c-2-0.2-4.9-0.3-8.5,0.3c1.4,1.6,3.4,3.7,6.2,5.7c3,2.1,5.8,3.2,7.8,3.9"
		/>
	<path fill="none" stroke="#000000" stroke-width="4" stroke-linecap="round" stroke-linejoin="round" stroke-miterlimit="10" d="
		M796.3,178.2c-0.7,0.7-1.8,1.5-3.3,1.8c-0.5,0.1-1,0.2-1.7,0.1c-1.6-0.3-2.9-1.8-2.7-2.4c0.2-0.5,1.3-0.8,5.1-0.2"/>
	<path fill="none" stroke="#000000" stroke-width="7" stroke-linecap="round" stroke-linejoin="round" stroke-miterlimit="10" d="
		M784.9,216.6c-3.8-2.8-7.2-4.5-9.6-5.6c-2.6-1.2-5-2-6.1-2.3c-2-0.7-3.8-1.1-5.2-1.5"/>
	<path fill="none" stroke="#000000" stroke-width="7" stroke-linecap="round" stroke-linejoin="round" stroke-miterlimit="10" d="
		M776.7,223.7c-1.4-0.5-3.4-1.4-5.2-3.2c-4.3-4.1-4.6-9.5-4.7-10.9"/>
	<path fill="none" stroke="#000000" stroke-width="7" stroke-linecap="round" stroke-linejoin="round" stroke-miterlimit="10" d="
		M823.9,130.7c-2.7,2.1-6.6,4.8-11.6,7.3c-2.1,1.1-9.2,4.5-16.8,5.8c-12,2-21.9-1.9-30.9-5.6c-7.1-2.9-18.3-8.4-29.7-19.2"/>
	<path fill="none" stroke="#000000" stroke-width="7" stroke-linecap="round" stroke-linejoin="round" stroke-miterlimit="10" d="
		M767.3,140.7c-6.4,8-12.7,12.5-17.3,15.2c-10.2,5.9-16.8,5.5-25.6,13.7c-4.2,3.9-6.5,7.5-8,11c-1.4,3.3-3.5,8.2-2,14
		c1.5,5.5,5.4,8.8,7,10c-2.6-0.5-9.3-2.1-14-8c-3.6-4.4-4.3-9-5-14c-0.7-4.6-1.2-12.8,2-23c-3.4,3.9-8.6,8.9-16,13
		c-4.5,2.5-12.2,6.7-23,7c-2.9,0.1-10.9,0.1-20-4c-9.7-4.3-16.8-11.6-16-13c0.7-1.2,6.8,3.9,16,3c7.4-0.7,12.7-4.9,15-7
		c4-3.7,6-7.7,7-10c-9.7,0.2-17.5-0.9-23-2c-7.2-1.4-10.8-2.2-15-5c-6.3-4.2-5.2-7.2-11-10c-5.2-2.5-7.9-1-15-4
		c-3.2-1.4-5.5-2.9-7-4"/>
	<path fill="none" stroke="#000000" stroke-width="7" stroke-linecap="round" stroke-linejoin="round" stroke-miterlimit="10" d="
		M779.1,199.8c-2.5,0.4-5.8,1.3-9.2,2.9c-6.3,3-10.2,7.2-12.4,9.9"/>
	<path fill="none" stroke="#000000" stroke-width="9" stroke-linecap="round" stroke-linejoin="round" stroke-miterlimit="10" d="
		M593.5,121.5c-17.2-2.4-31.3-4.5-41-6c-31.9-4.9-42.9-7-64-9c-8.9-0.8-15.5-1.5-25-2c-21.8-1.2-24.1,0-35-2
		c-13.6-2.5-14.7-5.3-24-5c-8.2,0.2-12.2,2.6-23,6c-12.3,3.9-15.7,3.6-31,7c-16,3.6-33.3,7.5-52,16c-10,4.5-9.1,5.2-42,24
		c-10.5,6-19.2,10.8-25,14c-4.2-0.3-10.1-0.4-17,0c-8.9,0.5-15.5,1.8-22,3c-5.6,1.1-12.7,2.6-21,5c-2.5-1.9-5.6-2.3-8-1
		c-3.3,1.8-4,6.3-3,9c1,2.8,3.4,2.6,5,6c1.1,2.3,0.2,2.9,1,6c1.3,4.8,3.7,4.6,5,9c1.3,4.3-0.7,5.6,1,9c1,1.9,1.7,1.6,5,5
		c3.9,4,3.5,5.1,6,7c0.7,0.5,4.4,3.4,9,3c3.8-0.3,5-2.5,10-5c3.6-1.8,7.1-2.6,10-3c0.8,1.5,2.4,3.9,5,6c1.8,1.4,3.6,2.8,6,3
		c3.9,0.3,7-2.8,8-4c2.4-2.8,2.3-5.2,4-12c1-3.9,2-7.2,3-10c16.3-6.3,30.3-10.9,41-14c18-5.3,36.4-10.7,61-14
		c13.8-1.8,19.9-1.7,33-5c13.4-3.3,24-7.7,31-11c17.2,6.7,31.7,10.6,42,13c17.6,4.1,30.2,5.2,48,13c8.3,3.6,14.7,7.3,19,10"/>
	<path fill="none" stroke="#000000" stroke-width="9" stroke-linecap="round" stroke-linejoin="round" stroke-miterlimit="10" d="
		M513.5,192.5c-13.7,13.5-23.5,25.5-30,34c-8.8,11.6-13.2,17.4-17,23c-10.7,16-16.6,28.2-26,29c-0.9,0.1-4.7,0.3-10,1
		c-7.4,1-8.9,1.8-10,3c-2.6,2.9-0.7,6.2-3,8c-2.6,2.1-6.5-0.9-11-1c-3.9-0.1-9.7,1.9-17,12"/>
	<path fill="none" stroke="#000000" stroke-width="9" stroke-linecap="round" stroke-linejoin="round" stroke-miterlimit="10" d="
		M315.5,117.5c-5.3-5.6-14.5-13.9-28-20c-7.8-3.5-34.2-13.9-64-3c-7.2,2.6-25.4,9.6-38,29c-13.5,20.7-11.7,41.8-11,48"/>
	<path fill="none" stroke="#000000" stroke-width="9" stroke-linecap="round" stroke-linejoin="round" stroke-miterlimit="10" d="
		M235.5,217.5c4.9,0.6,11.8,1,20,0c18.3-2.1,31.1-9.6,35-12c14.7-9.1,23-20.6,27-27"/>
	<path fill="none" stroke="#000000" stroke-width="7" stroke-linecap="round" stroke-linejoin="round" stroke-miterlimit="10" d="
		M227.5,160.5c0.3-2.3,1.1-6.6,4-11c1.1-1.6,4.6-6.8,11-9c11.1-3.9,21.4,4.5,22,5"/>
	<path fill="none" stroke="#000000" stroke-width="9" stroke-linecap="round" stroke-linejoin="round" stroke-miterlimit="10" d="
		M728.5,225.5c5.6,9.1,12.5,21.6,19,37c5.9,13.9,10.9,25.6,14,42c2.2,11.4,0.6,10.3,5,49c0.7,5.9,1.3,11,2,19c0.9,10,1.5,19.2,2,29
		c1.3,27.1,2,40.6,1,53c-0.8,9.4-2.5,22.8-7,39c-12.2,15.9-29.5,35.3-53,54c-32.2,25.6-63.2,39.7-69.8,41.8
		c-0.5,0.2-2.6,0.8-5.2,2.2c-5.8,3.1-8.9,7.4-11,10c0,0-3.4,4.3-14,14c-4.7,4.3-10.8,7.9-23,15c-18.5,10.8-13.4,5.9-27,14
		c-6.1,3.6-11,6.9-14,5c-1.9-1.3-2.7-4.5-2-7c0.9-3,3.9-4.4,5-5c5-2.5,12.5-7.6,24-17c-8.6,5.2-16.2,9.2-22,12
		c-13.9,6.8-19.2,8-24,6c-2.9-1.3-4.9-3.4-6-5c-0.9,0.5-3.7,1.8-7,1c-0.7-0.2-5.7-1.4-6-5c-0.2-2.4,1.8-5.1,5-6
		c-0.9-0.6-3.5-2.7-4-6c-0.5-3.4,1.5-6.1,3-8c4-5.2,9.4-7.3,11-8c5.8-2.4,14-6.5,25-14c-2.2-0.1-12.5-0.9-13-4c-0.3-1.7,2.7-3.6,8-7
		c3.7-2.3,6.6-3.8,11-6c11.6-5.8,11.1-5.7,12-6c6.6-2.5,12.2-2.8,17-3c5.1-0.2,12.4-0.1,21,2c17-10.9,29.7-20.9,38-28
		c30.6-26,32-36.5,49-44c3.2-1.4,11.6-4.7,16-13c1.8-3.4,2.6-7,3-13c0.8-13-1.1-23.1-2-28c-1.8-10.3,0.2-3.4-4-46
		c-1.2-12-1.8-18.6-3-28c-1.4-11.5-2.9-21.1-4-28c-2.6,0.5-6.7,1.5-11,4c-8.7,5-10.5,11.4-19,22c-6.5,8.1-11.1,13.8-19,18
		c-10.1,5.3-20,5.1-26,5c-10.6-0.2-19-2.9-24-5c-4.8,1.1-9.8,2.4-15,4c-5.3,1.6-10.3,3.3-15,5c-1.5,3.4-3.5,8.5-5,15
		c-3.9,16.5-1.5,28.2-1,41c0.3,8.6-1.4,19.7-5,42c-6.1,38.4-15.7,74.9-22,97"/>
	<path fill="none" stroke="#000000" stroke-width="9" stroke-linecap="round" stroke-linejoin="round" stroke-miterlimit="10" d="
		M389.5,301.5c-7.1,7.8-16.9,20.1-25,37c-2.6,5.5-14.8,31.8-15,69c-0.1,23.7,4.7,41.2,8,53c7.6,27,19.4,47,43,87
		c15.7,26.5,23.5,39.8,30,48c9,11.3,19.5,22.5,28,42c4.2,9.7,6,17.1,6,25c-0.1,13.3-5.5,22.9-8,28c-17,34.2-9.6,76.8-7,92
		c2.7,15.5,7.7,30.3,13,46c3,8.9,8.9,25.4,11,44c0.5,4.8,1,11.6,0,20c-0.8,6.3-2.2,7.4-4,17c-2.4,12.7-1.3,16.5,0,19
		c1.6,3,2.7,2.7,7,7c6.9,7,6.9,11,13,19c0.9,1.2,5.2,6.7,12,12c1.8,1.4,10.9,8.3,25,12c8.4,2.2,14.6,2.1,27,2
		c15.2-0.2,18.3-2.2,20-4c5.4-5.5,4.1-14.2,4-15c-0.9-5.4-3.8-8-12-17c-5.8-6.3-12.2-13.4-18-21c-4.2-5.4-3.5-5.3-13-19
		c-9.2-13.4-10.1-13.9-12-17c-6.3-10.5-7.2-22-6-41c2.9-47.3,12.6-49.9,11-81c-0.8-14.6-3.3-21.6-2-39c0.5-6.9,1.4-19,6-34
		c3.2-10.4,5.2-12.8,7-21c2.6-12.3,1.4-23,0-30"/>
	<path fill="none" stroke="#000000" stroke-width="9" stroke-linecap="round" stroke-linejoin="round" stroke-miterlimit="10" d="
		M471.5,428.5c5.1,10.2,11.7,23.7,19,40c16.2,36.2,26.4,64.6,30,75c4.3,12.3,9.6,28.2,15,47"/>
	<path fill="none" stroke="#000000" stroke-width="9" stroke-linecap="round" stroke-linejoin="round" stroke-miterlimit="10" d="
		M424.5,587.5c0.1,4.5-0.1,10-1,16c-0.8,4.9-1.8,9.3-3,13c-16.7,5.4-39.4,14.9-62,32c-5.6,4.3-18,13.8-31,29c-1.4,1.7-1.1,1.3-16,21
		c-10.9,14.3-17.8,23.4-28,34c-9.2,9.5-13.2,12.2-18,14c-7.8,2.9-17,3-20,3c-7.2,0.1-9.5-1-15,0c-6.2,1.1-11,3.8-14,6
		c-0.6,3.1-1.3,7.6-1,13c0.2,2.8,0.7,9,6,22c5.8,14.4,7.6,12.9,9,20c1.9,9.4,0,18.1-1,23c-2.1,9.9-4.4,10.8-4,16
		c0.6,7.5,6,12.6,13,19c5.8,5.3,23.6,21.5,34,16c3.8-2,6.8-7,8-9c2-3.3,3.2-5.3,3-8c-0.3-3.6-3.1-5-7-10c-1.7-2.2-4-5.4-6-10
		c2.3-4.6,5.8-11.5,10-20c7.2-14.6,8.3-17.3,11-22c7.3-13,15.1-21.7,19-26c12.3-13.6,24-21.4,34-28c5.1-3.3,18.4-10.6,45-25
		c16.3-8.8,20.2-10.8,26-16c8.9-7.9,11.3-13.4,20-19c8.8-5.6,17.7-7.4,24-8"/>
	<path fill="none" stroke="#000000" stroke-width="7" stroke-linecap="round" stroke-linejoin="round" stroke-miterlimit="10" d="
		M399.5,293.5c3.2,9.6,8.3,23.7,16,40c15.8,33.4,25,52.8,46,67c6.4,4.4,30.6,20.8,62,15c25.4-4.6,40.9-21.1,46-27"/>
	<path fill="none" stroke="#000000" stroke-width="7" stroke-linecap="round" stroke-linejoin="round" stroke-miterlimit="10" d="
		M712.5,242.5c-3.7,3.5-9.3,9-16,16c-10.9,11.4-13.5,15.2-20,18c-1.7,0.7-13.1,5.6-22,1c-4.5-2.3-10.9-8.4-13-39
		c-1-15.3-1-36.9,4-63"/>
	<path fill="none" stroke="#000000" stroke-width="7" stroke-linecap="round" stroke-linejoin="round" stroke-miterlimit="10" d="
		M504.5,108.5c0.6,3.1,1.2,7.6,1,13c-0.1,3.1-0.6,11.5-6,25c-3.1,7.7-8.5,18.9-18,31"/>
	<path fill="none" stroke="#000000" stroke-width="7" stroke-linecap="round" stroke-linejoin="round" stroke-miterlimit="10" d="
		M702.5,366.5c4.7-2.1,11.5-5,20-8c8-2.8,12.1-4.2,17-5c5.6-0.8,14.9-1.3,27,3"/>
	<path fill="none" stroke="#000000" stroke-width="7" stroke-linecap="round" stroke-linejoin="round" stroke-miterlimit="10" d="
		M445.5,737.5c4.2,2.1,10.3,4.8,18,7c13.9,4,33.1,9.6,48,0c3.5-2.2,9.7-7.2,14-18"/>
	<path fill="none" stroke="#000000" stroke-width="7" stroke-linecap="round" stroke-linejoin="round" stroke-miterlimit="10" d="
		M372.5,638.5c-0.2,5.9,0.2,15.3,4,26c5.3,15.1,14.3,24.5,18,28c8.9,8.4,18.1,12.8,24,15"/>
	<path fill="none" stroke="#000000" stroke-width="7" stroke-linecap="round" stroke-linejoin="round" stroke-miterlimit="10" d="
		M267.5,745.5c-1.1,10.5-0.6,19,0,25c1.1,10.5,3,14.2,4,16c1.2,2.2,5.5,9.3,14,12c2.4,0.8,4.6,1,6,1"/>
	<path fill="none" stroke="#000000" stroke-width="7" stroke-linecap="round" stroke-linejoin="round" stroke-miterlimit="10" d="
		M475.5,892.5c2.4,1.2,5.8,2.6,10,4c9.5,3.1,15.8,5.2,22,3c8.2-2.9,11.8-11.7,13-15"/>
	<path fill="none" stroke="#000000" stroke-width="7" stroke-linecap="round" stroke-linejoin="round" stroke-miterlimit="10" d="
		M514.5,623.5c5.2-3.7,10.9-7.4,17-11c10.2-6.1,20-11,29-15"/>
	<path fill="none" stroke="#000000" stroke-width="7" stroke-linecap="round" stroke-linejoin="round" stroke-miterlimit="10" d="
		M521.5,632.5c5.9-3.7,11.3-6.7,16-9c4.9-2.4,8.8-4.1,11-5c6.3-2.6,12.1-4.5,17-6"/>
</g>
<g id="vs-reveal">
	
		<path fill="none" stroke="#000000" stroke-width="76" stroke-linecap="round" stroke-linejoin="round" stroke-miterlimit="10" stroke-opacity="0" d="
		M807.7,79.4C757.6,73,707,70.5,656.5,71.8c-0.7,5.2-1.5,10.3-2.2,15.5c49.6,2.7,99.3,2.9,148.9,0.5c7.1-0.3,14.8-0.5,20.5,3.6
		c5.7,4.2,7.1,14.5,0.7,17.7c-2.4,1.2-5.2,1.1-7.8,0.9c-55.4-3.1-110.7-6.2-166.1-9.4c-3.5,3.8-1.3,10.5,3.1,13.3
		c4.4,2.8,9.9,2.8,15.1,2.8c43.8-0.4,87.6-0.8,131.4-1.2c8.2-0.1,16.8-0.1,24.1,3.6s12.8,12.4,10.1,20.1
		c-142.5,10.3-286.3,2.6-426.9-23c-72.1-13.1-147.3-30.8-217.2-8.8c0,7.5,0,15,0,22.5c205.1,19.1,413-2.9,617.1,24.6
		c14.7,2,31.6,5.8,38.2,19.1c-220.3,15.5-441.2-23.3-662-15.8c-13.6,0.5-32.1,7.4-28.5,20.5c30.8,6.1,62.5,6,93.9,5.9
		c131.2-0.5,262.5-1.1,393.7-1.6c53.1-0.2,110.9,1.1,152.2,34.5c-142.1-11.6-284-25.6-425.6-42c-76.3-8.9-154.4-18.3-229.4-1.3
		c-5.7,9.9,8.7,19.1,19.9,21.1c35.7,6.4,72.2,6.4,108.5,6.5c164.7,0.3,329.5,0.5,494.2,0.8c24.8,0,55,3.4,65.1,26
		c-121.3-1.4-242.5-2.8-363.8-4.2c-7.4-0.1-15.3,0-21.5,3.9c-6.2,4-9.5,13.5-4.5,18.9c105.6-6.4,211.8-3.2,316.9,9.3
		c15.3,1.8,34.5,7.6,36,22.9c-129.7,0.3-259.5,0.6-389.2,0.9c-7.6,0-15.7,0.2-22,4.4c-6.3,4.2-9.4,14.1-4,19.5
		c65.8-0.4,131.7-0.9,197.5-1.3c87.1-0.6,176.5-0.7,257.8,30.4c-106.3,10.7-214,8.7-319.8-5.8c-59.9-8.2-122.8-20.2-179.4,1.3
		c-0.2,7.8-0.4,15.7-0.6,23.5c117.2,3.5,234.5,2.8,351.6-1.9c16.6-0.7,33.4-1.4,49.4,2.9s31.3,14.5,37.4,29.9
		c-149.6,15.7-299.7-41.1-449.3-25.7c-5.1,8.5,0.6,20.3,9.3,25.1c8.7,4.9,19.2,4.8,29.2,4.5c147.9-3.2,295.9-1,443.6,6.6
		c11.5,0.6,26.9,5.5,25.5,16.9c-37.7,11.6-77.7,11.7-117.1,11.7c-119.8,0-239.5,0-359.3,0c-3.7,0-7.5,0-11,1.4
		c-12.7,5-11.5,25.2-1,33.8c10.5,8.6,25.3,9,39,8.9c97.8-0.4,195.6-0.8,293.4-1.3c33.8-0.1,71.7,1.4,94.9,25.9
		c-113.2,12.2-227.1-5.9-340.8-12.6c-16.5-1-34.8-1.1-47.3,9.6c-2.9,2.5-5.5,5.8-6.1,9.6c-2.1,12.8,15.8,18,28.7,17.9
		c87.1-0.3,174.1-0.6,261.2-0.9c24.8-0.1,53,1.3,69.2,20c-107.8,23.6-219.8,10.7-329.4-2.3c-5.5,7.3-1.6,18.5,5.7,23.9
		c7.3,5.4,16.9,6.5,25.9,7.4c66.2,6.3,132.8,7.9,199.2,4.8c23.1-1.1,48.8-2,66.5,12.9c-30.5,9.3-63,8.8-94.8,8.2
		c-65.4-1.2-130.8-2.4-196.2-3.6c-9.6-0.2-19.6-0.3-28.2,3.9c-8.6,4.1-15.4,13.9-12.8,23.1c58.8-0.4,117.5-0.7,176.3-1.1
		c11.1-0.1,22.7,0,32.6,4.8s17.7,16.2,14.8,26.9c-49.6,5.6-99.8,6.2-149.5,1.6c-24.7-2.3-50-5.7-73.9,0.9c-3,0.8-6.2,2.1-7.5,4.9
		c-2.5,5.6,4.6,10.4,10.3,12.4c23.1,7.6,47.2,12.1,71.4,13.3c13.9,0.7,28,0.3,41.4,4s26.3,12.6,30.6,25.8
		c-30.7,6.8-62.3-3.5-93.1-10c-41-8.8-83.4-11.1-125.1-6.8c0.1,5.4,0.2,10.8,0.3,16.2c59.2,12.6,119.9,17.6,180.4,15
		c25-1.1,56.2,0.1,66.3,23c-85.2,34.4-181.7-29-271.9-11.9c-13.1,2.5-29.1,13.5-22.9,25.3c79.2,8.1,158.8,12.5,238.4,13.3
		c27.8,0.3,62.8,5.1,70.9,31.7c-96.7,24.4-197.2-31.9-296.4-21.6c-22.8,2.4-47.1,9.5-60.6,28.1c89,8.7,178.5,13.1,267.9,13.1
		c16.5,0,33.4,0,48.7,6.2c15.2,6.2,28.5,20.4,28.3,36.8c-49,1.5-95.7-17.9-142.9-31.2c-60.3-16.9-123.3-24-185.8-20.7
		c-6,6.1-3.3,17,3.2,22.5s15.3,7.1,23.8,8.5C357.7,862,472,880.6,586.4,899.1c9.6,1.6,22.4,8.4,18.2,17.2
		c-63.5,11.2-129.8,5.6-190.5-16.1c-39.2-14-76.5-34.8-117.7-40.7c-14.3-2-31.7-0.7-38.7,11.9c-6.5,11.6,0.6,27.1,11.7,34.4
		c11.1,7.3,25,8.6,38.3,9.7c97,8.1,194,16.2,291,24.3c11.3,0.9,24.7,3.2,29.5,13.5c-51,6.7-102.8,6.8-153.7,0.2
		c-3.4-0.4-7.1-0.8-10,0.9c-5.4,3.3-4.1,12.2,0.8,16.2s11.7,4.4,18.1,4.7c40.4,1.7,80.9,3.4,121.3,5.1c-36,8.1-74.3,5.8-109.1-6.7"
		/>
</g>
</svg>
