<?xml version="1.0" encoding="utf-8"?>
<!-- Generator: Adobe Illustrator 25.2.1, SVG Export Plug-In . SVG Version: 6.00 Build 0)  -->
<svg version="1.1" id="Layer_1" xmlns="http://www.w3.org/2000/svg" xmlns:xlink="http://www.w3.org/1999/xlink" x="0px" y="0px"
	 width="1000px" height="1000px" viewBox="0 0 1000 1000" enable-background="new 0 0 1000 1000" xml:space="preserve">
<g id="Layer_2_1_">
	<path fill="#A70023" d="M429.5,95.9l173.1-3.7l9.8,32.1L742.3,185l116.3,216.3l-146,58.1c0,0-6.1,127.5-6.1,200.4
		S723.8,849,723.8,849s-53.2,38.4-194.3,34.7c-141-3.7-199.1-19.9-199.1-38.4s5-234.9,5-234.9l-9.8-129.9l-157.1-63.1l100.2-225.1
		l143.4-61.8L429.5,95.9z"/>
	<path fill="#026F51" d="M357.7,163.3c-74.2,42.7-26,154-26,154l-27.8,33.4c0,0-29.7-59.4-77.9-64.9l42.7-93.3L357.7,163.3z"/>
	<path fill="#026F51" d="M630.5,142.9c31.5,11.1,94.6,64.9,63.1,168.8l26,48.2c0,0,22.3-53.8,76.1-68.6L742.3,185L630.5,142.9z"/>
</g>
<g id="Layer_1_1_">
	<g id="Layer_5">
	</g>
	<g id="Shade">
		<path opacity="0.3" enable-background="new    " d="M313.2,374.8l-1.5-2.6c-0.2-9.5-0.4-17.8-0.4-17.8s-21.7-16.7-24.1-9.3
			c-1.9,5.6,14.8,19.9,14.8,20.4c-1.9,3-16.7-7.4-16.7,1.9c0,4.8,6.3,13,9.3,20.4c10.6,26.5-7.1,59.2-27.8,64.9l57.5,20.4
			L313.2,374.8z"/>
		<path opacity="0.3" enable-background="new    " d="M292.8,215.2c0,0-37.1,20.4-39,27.8c-1.9,7.4,18.6-46.4,18.6-46.4L292.8,215.2
			z"/>
		<polygon opacity="0.3" enable-background="new    " points="469,94.6 485.7,115 424.5,122.4 426.4,98.3 		"/>
		<path opacity="0.3" enable-background="new    " d="M719.5,348.8c0,11.1,26,85.3,90.9,68.6l-96.5,46.4L719.5,348.8z"/>
		<path opacity="0.3" enable-background="new    " d="M333.6,473.1c26,283.9,77.9,410,198.5,406.3c0,0-205.9,0-202.2-44.5
			L333.6,473.1z"/>
		<path opacity="0.5" fill="#FFFFFF" enable-background="new    " d="M838.3,402.6L725.1,200.4c0,0-137.3-53.8-139.1-79.8l-7.4-20.4
			h26l3.7,18.6l129.9,68.6L858.7,397L838.3,402.6z"/>
		<path opacity="0.5" fill="#FFFFFF" enable-background="new    " d="M708.4,410c-24.1,18.6-37.1,289.4-9.3,447.1l18.6-13
			c0,0-22.3-196.7-14.8-341.4C710.2,358.1,708.4,410,708.4,410z"/>
	</g>
	<g id="Draw">
		
			<path fill="none" stroke="#000000" stroke-width="22.264" stroke-linecap="round" stroke-linejoin="round" stroke-miterlimit="10" d="
			M326.2,482.4L170.3,423c0,0,85.3-218.9,96.5-228.2c18.6-15.4,150.3-55.7,152.1-76.1s9.3-22.3,9.3-22.3s120.6-7.4,170.7,0
			c7.8,1.1,11.1,26,14.8,27.8c39.9,20,105.8,48.2,126.2,64.9c12.2,10,120.6,211.5,120.6,211.5l-150.3,63.1"/>
		
			<path fill="none" stroke="#000000" stroke-width="22.264" stroke-linecap="round" stroke-linejoin="round" stroke-miterlimit="10" d="
			M715.8,350.6c-5.6,74.2-24.1,237.5,0,489.8c0,0,24.1,42.7-194.8,42.7c-185.5,0-189.2-37.1-189.2-37.1s16.7-374.8-24.1-493.5"/>
		
			<path fill="none" stroke="#000000" stroke-width="11.132" stroke-linecap="round" stroke-linejoin="round" stroke-miterlimit="10" d="
			M339.2,818.2c3.7,9.3,50.1,33.4,154,33.4"/>
		
			<path fill="none" stroke="#000000" stroke-width="11.132" stroke-linecap="round" stroke-linejoin="round" stroke-miterlimit="10" d="
			M708.4,812.6c0,14.8-35.3,26-53.8,26"/>
		
			<path fill="none" stroke="#000000" stroke-width="11.132" stroke-linecap="round" stroke-linejoin="round" stroke-miterlimit="10" d="
			M294.6,367.3c22.3,9.3,34.7,88.5,34.7,88.5"/>
		
			<line fill="none" stroke="#000000" stroke-width="11.132" stroke-linecap="round" stroke-linejoin="round" stroke-miterlimit="10" x1="213" y1="410" x2="324.3" y2="450.3"/>
		
			<line fill="none" stroke="#000000" stroke-width="11.132" stroke-linecap="round" stroke-linejoin="round" stroke-miterlimit="10" x1="185.2" y1="400.7" x2="194.5" y2="404.5"/>
		
			<path fill="none" stroke="#000000" stroke-width="11.132" stroke-linecap="round" stroke-linejoin="round" stroke-miterlimit="10" d="
			M266.8,194.8c13,1.9,29.7,24.1,29.7,24.1"/>
		
			<path fill="none" stroke="#000000" stroke-width="11.132" stroke-linecap="round" stroke-linejoin="round" stroke-miterlimit="10" d="
			M420.8,124.3c13-9.3,176.3-14.8,189.2,3.7"/>
		
			<path fill="none" stroke="#000000" stroke-width="11.132" stroke-linecap="round" stroke-linejoin="round" stroke-miterlimit="10" d="
			M741.8,189.2c-9.3,3.7-13,11.1-13,11.1"/>
		
			<line fill="none" stroke="#000000" stroke-width="11.132" stroke-linecap="round" stroke-linejoin="round" stroke-miterlimit="10" x1="819.1" y1="388.1" x2="842.9" y2="378.5"/>
		
			<line fill="none" stroke="#000000" stroke-width="11.132" stroke-linecap="round" stroke-linejoin="round" stroke-miterlimit="10" x1="713.9" y1="430.4" x2="786.7" y2="401.1"/>
		
			<path fill="none" stroke="#000000" stroke-width="11.132" stroke-linecap="round" stroke-linejoin="round" stroke-miterlimit="10" d="
			M728.8,361.8c0,0-14.8,16.7-13.9,56.6"/>
	</g>
	<g id="Scribble">
		
			<path fill="none" stroke="#EF1B71" stroke-width="74.2132" stroke-linecap="round" stroke-linejoin="round" stroke-miterlimit="10" stroke-opacity="0" d="
			M195.4,407.2c0,0,102.2,65.1,99.3,34.3c-4.6-49.2-98.9-71.4-83.5-100.2c10.4-19.7,84,56,76.1,35.3
			c-33.4-87.2-68.6-68.6-35.3-105.8c13.4-14.8,35.3,59.4,35.3,59.4s18.6-39-16.7-89.1"/>
		
			<path fill="none" stroke="#EF1B71" stroke-width="74.2132" stroke-linecap="round" stroke-linejoin="round" stroke-miterlimit="10" stroke-opacity="0" d="
			M302.1,202.2c0,0,128-59.4,135.4-83.5h152.1c0,0,40.8,76.1,113.2,68.6l-321-7.4c0,0-69.4,47.9-61.2,68.6
			c20.4,51.9,85.3-40.8,146.6-39s-154,94.6-141,180c8.7,56.8,181.8-168.8,239.3-167c57.5,1.9-222.6,228.2-222.6,274.6
			s265.3-272.7,328.4-272.7s-322.8,278.3-321,363.6c1.9,85.3,336.2-363.6,334-283.9"/>
		
			<path fill="none" stroke="#EF1B71" stroke-width="74.2132" stroke-linecap="round" stroke-linejoin="round" stroke-miterlimit="10" stroke-opacity="0" d="
			M738.1,211.5c-22.3,42.7-7.4,228.2-7.4,228.2l100.2-48.2l-64.9-115l7.4,94.6"/>
		
			<path fill="none" stroke="#EF1B71" stroke-width="74.2132" stroke-linecap="round" stroke-linejoin="round" stroke-miterlimit="10" stroke-opacity="0" d="
			M680.7,325.2c-35.6,120.4-333.8,236-328.6,348.2c5.6,118.7,330.2-380.3,332.1-259.7c1.9,120.6-332.7,269.2-326.5,348.8
			c1.9,24.1,346.9-308,348.8-226.4s-352,275.3-341.4,293.1c31.5,53.8,334-224.5,334-161.4s-297,190.2-243,196.7
			C563.7,877.6,688,716.1,688,753.3s-118.7,111.9-90.9,111.3c81.6-1.9,89.1-3.7,92.8-79.8"/>
	</g>
</g>
</svg>
