<?xml version="1.0" encoding="utf-8"?>
<!-- Generator: Adobe Illustrator 25.2.1, SVG Export Plug-In . SVG Version: 6.00 Build 0)  -->
<svg version="1.1" id="Layer_1" xmlns="http://www.w3.org/2000/svg" xmlns:xlink="http://www.w3.org/1999/xlink" x="0px" y="0px"
	 width="1000px" height="1000px" viewBox="0 0 1000 1000" enable-background="new 0 0 1000 1000" xml:space="preserve">
<g id="Layer_4">
	<polyline fill="#FFFFFF" points="693.3,414.2 811.6,366.2 833.9,403.9 696.7,462.2 695,410.7 	"/>
	<path fill="#FCDC00" d="M196.1,424.5l92.6-212.6l138.9-58.3v-30.9L587,121l17.1,32.6c0,0,111.4,48,118.3,58.3
		c6.9,10.3,111.4,192,111.4,192l-137.2,58.3c0,0-8.6,198.9-3.4,264c5.1,65.1,8.6,99.4,8.6,99.4s-63.4,34.3-183.4,29.1
		c-120-5.1-173.2-30.9-173.2-30.9l6.9-221.2l-10.3-120L196.1,424.5z"/>
	<path fill="#009530" d="M417.3,154.4c22.3-2.6,48-11.1,99.4-12.9c51.4-1.7,103.7,13.7,103.7,13.7s12.9,22.3-105.4,24
		C405.3,180.8,410.4,163,410.4,163L417.3,154.4z"/>
	<path fill="#009530" d="M329.8,361c24,0,37.2,41,42.9,90.9c12,106.3,9.3,409.4,7.4,388.7L345.3,824l10.8-159.4l-12.5-214.3
		L329.8,361z"/>
	<path fill="#009530" d="M695,357.6c-30.9-1.7-30.9,46.3-36,94.3c-4.6,42.7-8.1,246.9,11.5,384l31.4-10.3c0,0-17.1-58.3-15.4-274.3
		C686.8,502.8,695,357.6,695,357.6z"/>
</g>
<g id="Shade">
	<path opacity="0.3" enable-background="new    " d="M328.1,383.3l-1.4-2.4c-0.2-8.7-0.3-16.5-0.3-16.5s-20.1-15.4-22.3-8.6
		c-1.7,5.1,13.7,18.3,13.7,18.9c-1.7,2.7-15.4-6.9-15.4,1.7c0,4.5,5.8,12,8.6,18.9c9.8,24.5-6.5,54.7-25.7,60l53.1,18.9L328.1,383.3
		z"/>
	<path opacity="0.3" enable-background="new    " d="M309.3,235.9c0,0-34.3,18.9-36,25.7c-1.7,6.9,17.1-42.9,17.1-42.9L309.3,235.9z
		"/>
	<polygon opacity="0.3" enable-background="new    " points="472.1,124.4 487.6,143.3 431,150.1 432.7,127.9 	"/>
	<path opacity="0.3" enable-background="new    " d="M703.6,359.3c0,10.3,24,78.9,84,63.4l-89.2,42.9L703.6,359.3z"/>
	<path opacity="0.3" enable-background="new    " d="M347,474.2c24,262.3,72,378.9,183.4,375.5c0,0-190.3,0-186.9-41.1L347,474.2z"
		/>
	<path opacity="0.5" fill="#FFFFFF" enable-background="new    " d="M813.3,409L708.7,222.2c0,0-126.9-49.7-128.6-73.7l-6.9-18.9h24
		l3.4,17.1l120,63.4L832,403.8L813.3,409z"/>
	<path opacity="0.5" fill="#FFFFFF" enable-background="new    " d="M693.3,415.9C671,433,659,683.3,684.7,829.1l17.1-12
		c0,0-20.6-181.7-13.7-315.5C695,367.9,693.3,415.9,693.3,415.9z"/>
</g>
<g id="Draw">
	
		<path fill="none" stroke="#000000" stroke-width="20.5733" stroke-linecap="round" stroke-linejoin="round" stroke-miterlimit="10" d="
		M340.1,482.7l-144-54.9c0,0,78.9-202.3,89.2-210.9c17.1-14.2,138.9-51.4,140.6-70.3s8.6-20.6,8.6-20.6s111.4-6.9,157.7,0
		c7.2,1,10.3,24,13.7,25.7c36.9,18.5,97.7,44.6,116.6,60c11.3,9.3,111.4,195.4,111.4,195.4L695,465.6"/>
	
		<path fill="none" stroke="#000000" stroke-width="20.5733" stroke-linecap="round" stroke-linejoin="round" stroke-miterlimit="10" d="
		M700.2,361c-5.1,68.6-22.3,219.4,0,452.6c0,0,22.3,39.4-180,39.4c-171.4,0-174.9-34.3-174.9-34.3s15.4-346.3-22.3-456"/>
	
		<path fill="none" stroke="#000000" stroke-width="10.2866" stroke-linecap="round" stroke-linejoin="round" stroke-miterlimit="10" d="
		M352.1,793.1c3.4,8.6,46.3,30.9,142.3,30.9"/>
	
		<path fill="none" stroke="#000000" stroke-width="10.2866" stroke-linecap="round" stroke-linejoin="round" stroke-miterlimit="10" d="
		M693.3,787.9c0,13.7-32.6,24-49.7,24"/>
	
		<path fill="none" stroke="#000000" stroke-width="10.2866" stroke-linecap="round" stroke-linejoin="round" stroke-miterlimit="10" d="
		M311,376.5c20.6,8.6,32.1,81.8,32.1,81.8"/>
	
		<line fill="none" stroke="#000000" stroke-width="10.2866" stroke-linecap="round" stroke-linejoin="round" stroke-miterlimit="10" x1="235.5" y1="415.9" x2="338.4" y2="453.1"/>
	
		<line fill="none" stroke="#000000" stroke-width="10.2866" stroke-linecap="round" stroke-linejoin="round" stroke-miterlimit="10" x1="209.8" y1="407.3" x2="218.4" y2="410.7"/>
	
		<path fill="none" stroke="#000000" stroke-width="10.2866" stroke-linecap="round" stroke-linejoin="round" stroke-miterlimit="10" d="
		M285.3,217c12,1.7,27.4,22.3,27.4,22.3"/>
	
		<path fill="none" stroke="#000000" stroke-width="10.2866" stroke-linecap="round" stroke-linejoin="round" stroke-miterlimit="10" d="
		M427.6,151.9c12-8.6,162.9-13.7,174.9,3.4"/>
	
		<path fill="none" stroke="#000000" stroke-width="10.2866" stroke-linecap="round" stroke-linejoin="round" stroke-miterlimit="10" d="
		M724.2,211.9c-8.6,3.4-12,10.3-12,10.3"/>
	
		<line fill="none" stroke="#000000" stroke-width="10.2866" stroke-linecap="round" stroke-linejoin="round" stroke-miterlimit="10" x1="795.7" y1="395.7" x2="817.6" y2="386.7"/>
	
		<line fill="none" stroke="#000000" stroke-width="10.2866" stroke-linecap="round" stroke-linejoin="round" stroke-miterlimit="10" x1="698.4" y1="434.7" x2="765.7" y2="407.7"/>
	
		<path fill="none" stroke="#000000" stroke-width="10.2866" stroke-linecap="round" stroke-linejoin="round" stroke-miterlimit="10" d="
		M712.2,371.3c0,0-13.7,15.4-12.9,52.3"/>
</g>
<g id="Scribble">
	
		<path fill="none" stroke="#EF1B71" stroke-width="68.5777" stroke-linecap="round" stroke-linejoin="round" stroke-miterlimit="10" stroke-opacity="0" d="
		M219.3,413.3c0,0,94.5,60.2,91.7,31.7c-4.3-45.4-91.4-66-77.1-92.6c9.6-18.2,77.7,51.8,70.3,32.6c-30.9-80.6-63.4-63.4-32.6-97.7
		c12.3-13.7,32.6,54.9,32.6,54.9s17.1-36-15.4-82.3"/>
	
		<path fill="none" stroke="#EF1B71" stroke-width="68.5777" stroke-linecap="round" stroke-linejoin="round" stroke-miterlimit="10" stroke-opacity="0" d="
		M317.8,223.9c0,0,118.3-54.9,125.2-77.1h140.6c0,0,37.7,70.3,104.6,63.4l-296.6-6.9c0,0-64.1,44.2-56.6,63.4
		c18.9,48,78.9-37.7,135.4-36c56.6,1.7-142.3,87.4-130.3,166.3c8.1,52.5,168-156,221.2-154.3c53.1,1.7-205.7,210.9-205.7,253.7
		c0,42.9,245.2-252,303.5-252s-298.3,257.2-296.6,336c1.7,78.9,310.7-336,308.6-262.3"/>
	
		<path fill="none" stroke="#EF1B71" stroke-width="68.5777" stroke-linecap="round" stroke-linejoin="round" stroke-miterlimit="10" stroke-opacity="0" d="
		M720.7,232.4c-20.6,39.4-6.9,210.9-6.9,210.9l92.6-44.6l-60-106.3l6.9,87.4"/>
	
		<path fill="none" stroke="#EF1B71" stroke-width="68.5777" stroke-linecap="round" stroke-linejoin="round" stroke-miterlimit="10" stroke-opacity="0" d="
		M667.8,337.5c-32.9,111.3-308.4,218.1-303.6,321.8c5.1,109.7,305.2-351.5,306.9-240c1.7,111.4-307.4,248.8-301.7,322.3
		C371,763.9,689.9,457,691.6,532.5S366.4,786.9,376.1,803.3c29.1,49.7,308.6-207.4,308.6-149.2S410.2,829.9,460.1,835.9
		c99.4,12,214.3-137.2,214.3-102.9s-109.7,103.4-84,102.9c75.4-1.7,82.3-3.4,85.7-73.7"/>
</g>
</svg>
