<?xml version="1.0" encoding="utf-8"?>
<!-- Generator: Adobe Illustrator 23.0.3, SVG Export Plug-In . SVG Version: 6.00 Build 0)  -->
<svg version="1.1" id="Layer_1" xmlns="http://www.w3.org/2000/svg" xmlns:xlink="http://www.w3.org/1999/xlink" x="0px" y="0px"
	 width="800px" height="800px" viewBox="0 0 800 800" enable-background="new 0 0 800 800" xml:space="preserve">
<g>
	<path fill="#5C775B" d="M753.3,559.1c-0.1-0.5-0.3-0.9-0.5-1.4c-0.2-5.9-0.9-11.7-1.7-17.5c0-2.2,0-4.4,0-6.6
		c1.1-1.1,1.8-2.6,1.8-4.6c-0.2-5.3-0.5-10.7-0.9-16c0.9-1,1.6-2.4,1.5-4c-0.1-11.2-0.6-22.5-0.6-33.7c0-2.3-0.9-3.9-2.2-5
		c-0.1-0.9-0.2-1.8-0.3-2.7c-0.4-19.2,0.3-38.4,0.7-57.6c0.2-11.8-2.7-23.4-4.1-35.1c0.3-4.2,0.6-8.5,1-12.7
		c2.5-27.8,3.2-55.4,4.2-83.3c1-29.2,4.1-58.2,1.3-87.4c-0.1-1.2-0.6-2.3-1.2-3.2c0.3-5.8-0.9-10.4-3.2-14c-0.3-3.4-3-6.8-7.1-6.7
		c-14.1-8.5-39.7-6.5-59.1-6.4c-0.2-0.1-0.4-0.1-0.6-0.2c-0.9-2.1-2.8-3.6-5.7-3.5c-4.8,0.2-9.1,0.9-13.6,2.7
		c-1.2,0.5-2.2,1.4-3,2.4c-1.9,0.2-3.9,0.4-5.9,0.5c-9.1,0.4-18.2-0.4-27.3-1.1c-19.9-1.5-40-1.2-60-2.1
		c-40.8-1.8-81.7,5.7-122.3,1.9c-1.3-0.1-2.4,0.1-3.3,0.5c-48.3-2.7-96.6-6.6-145-5.6c-49,0.9-97.9,5-147,5.1
		c-3.7-1-7.8-1.5-12.1-1.3c-1.7-0.5-3.6-0.4-5.2,0.5c-13,1.9-25.7,9-28,20.6c-0.6,3.1,0.5,5.6,2.9,7.1c-0.7,4-0.9,8,0.6,11.2
		c-2.3,57.4,2.1,207,5,316.7c-3.8,10-2.9,24.2-3.4,32.6c-1.1,21,1.3,42.2,5.6,63c0.1,6.7,0.2,12.5,0.2,17.3c0,12.4,9.4,18.7,19,19
		c7.2,3.7,121.6,3.7,248.5,2.6c2,0,3.9,0.1,5.9,0.1c61,1.6,121.9,1.9,182.9,1c29.6-0.4,59.2-1,88.8-1.9c20.5-0.6,41.9,1.6,62.1-1.9
		c3-0.5,5.7-1.4,8.2-2.5c2.9-0.1,3.6-0.1,1.9-0.1c-0.1,0-0.2-0.2-0.3-0.6C758.8,631.4,758.8,584.6,753.3,559.1z"/>
	<path fill="#4C634A" d="M752.4,185.3c-0.6-2.4-1.5-4.6-2.6-6.6c0.5-0.1,0.9-0.2,1.4-0.3c8.1-2.3,4.7-15-3.5-12.6
		c-3.3,1-7.1,0.6-10.8,0c-3.3-2-6.9-3.6-10.6-5c-2.5-0.9-4.5-0.3-5.9,1.1c-2.1-1.2-4.7-0.8-6.7,0.5c-1.9-0.2-3.8-0.4-5.7-0.6
		c-13.2-1.3-26.4-1.8-39.6-2.1c-26.4-0.6-52.9,0.5-79.3,1.2c-54,1.4-107.9-1.4-161.7-5.1c-26.4-1.8-52.8-2-79.3-2.1
		c-26.3-0.2-52.4-2-78.7-2.6c-50.3-1.1-103.8-2.5-153.1,9.1c-1.4,0.3-2.4,1-3.2,1.8c0,0,0,0,0,0c-4.7-7-16.1-0.4-11.3,6.6
		c8.8,12.9,27.7,11.3,41.3,10c8.1-0.8,16.2-2.1,24.2-3.3c11-1.7,22.3-1.4,33.5-1.8c60.6-2,121.1-4.6,181.7-2.2
		c60.4,2.4,120.8,9.7,181.3,10.7c28.1,0.5,56-3.6,84.1-3.9c22.3-0.2,52,0.5,72.2,13c0.6,0.8,1.3,1.7,2,2.5c3,7,5.5,14.1,7.3,21.6
		c4.4,18.7,2.1,39,1.1,58c-1.1,20.2-2.6,40.3-2.8,60.5c-0.2,20.5,0.4,40.9-0.7,61.4c-2.2,41.5-2.6,83-3.6,124.6
		c-0.5,20.5-1.2,41,0.9,61.4c2,18.8,6.2,37.3,10.1,55.7c1.5,7.1,11.1,5.5,12.6-0.4c3.4-1.3,6.3-5.3,4.4-9.7
		c-7.4-17.2-4.2-37.3-3.6-55.4c0.8-22,0.6-44.2,0.7-66.3c0.2-45.2-1.1-90.4-1.7-135.6c-0.6-44.9,0.6-88.9,5-133.6
		c0.9-9,2.2-18.4,2.6-27.8c1.4-2.2,1.7-5.1,0-7.7C754.3,195.3,753.7,190.2,752.4,185.3z"/>
	<path fill="#9B7B50" d="M764.3,194.9c0-0.4-0.1-0.9-0.2-1.3c1.4-10.6,2.5-22.8-3.9-28.8c-0.6-3.5-3.6-6.6-8-5.3
		c-0.2,0-0.3,0.1-0.5,0.1c-0.8-2.6-3.3-4.2-6.2-4.5c-0.6-0.1-1.1-0.1-1.7-0.2c-2.7-1.4-5.5-2.2-8.6-2.6c-1.2-0.1-2.4,0.2-3.4,0.9
		c-2.3-0.6-4.5-1.2-6.9-1.7c-10.2-2.3-20.7-2.8-31-3.3c-23.1-1.2-46.1-0.1-69.1-0.1c-2.2,0-3.9,0.9-4.9,2.3c-2.1-1.4-4.7-1.6-7,0.4
		c-0.1,0-0.2,0.1-0.4,0.1c-1.4,0.2-2.8,0.2-4.2,0.2c-4.3,0.1-8.5-0.1-12.8-0.3c-7.7-0.4-15.4-1-23.1-1.5c-26.4-1.7-53.5,0.3-80,0.3
		c-1.4,0-2.5,0.4-3.5,1c-0.2,0-0.5-0.1-0.7,0c-29.7,1.1-59.5,0.7-89.2-0.6c-14.9-0.6-29.8-1.4-44.6-2.3c-13-0.8-26.2-2.3-39.3-0.9
		c-0.6,0.1-1.1,0.2-1.6,0.3c-0.8-0.4-1.8-0.5-2.9-0.4c-0.4-0.2-0.8-0.4-1.3-0.6c-11.3-3.9-23.4-1.4-35-0.2c-1,0.1-2,0.4-2.7,0.8
		c-15.5-1.9-31.2-2.2-46.9-2.2c-2.2,0-3.8,0.9-4.8,2.2c-1.3-0.8-2.9-1.1-4.9-0.5c-8,2.3-16,0.2-24.1-0.5c-9-0.8-18.3,1.2-27.3,2
		c-10.2,0.9-20.5-0.1-30.7,0.3c-10.1,0.4-20.2,1.9-29.4,6.4c-10.1,5-13.6,14.5-15.3,25c-0.2,1.4,0,2.6,0.4,3.7
		c-2.1,10-0.3,20.9,0.8,30.8c2,17.7,2.7,35.6,2.8,53.4c0,0.7,0.1,1.2,0.3,1.8c0.2,6.4,1,12.9,0.2,19.3c-0.3,2.1,0.4,3.7,1.6,4.7
		c0,1.7,0.1,3.4,0.1,4.8c0,6.2,0,12.5,0.1,18.7c0.1,11.6-0.3,23.5,1,35c0.1,0.6,0.2,1.2,0.4,1.7c-0.8,14.5-0.7,29.1,0,43.6
		c0,0.4,0.1,0.7,0.2,1c-0.4,0.4-0.8,0.8-1.1,1.3c-0.6,0.9-0.9,1.9-1.1,3c-0.5,2.1,0,3.9,1.1,5.3c3.3,19.3,0.3,39.1,2.3,58.5
		c-1,1-1.7,2.5-1.7,4.4c-0.1,20-1.4,39.9-1.9,59.9c0,1.4,0.3,2.6,0.9,3.6c0.4,15,0.5,30.1,0.5,45.1c0,0.1,0,0.1,0,0.2
		c0,2.6,0,5.2,0.2,7.8c0.6,10,4.1,19.6,5.5,29.4c1.1,7.4,2.3,14.2,4.6,20.3c-2.6,4.9,0,11,4.4,14.7c4.6,3.8,11,7.3,17.2,7.2
		c0.7,1.2,2,2.2,3.8,2.6c4.2,0.9,8.3,0.8,12.4,0.6c0.4,0.1,0.8,0.2,1.2,0.3c0.8,0.2,1.7,0.3,2.5,0.2c1.2,0.2,2.4,0.5,3.6,0.8
		c2.1,0.5,4.2,0,5.8-1.2c1,0.2,2.1,0.2,3.3-0.2c13-4.2,26.6-2.4,40-3.4c7.3-0.5,13.9-1.5,21.2-0.3c6.5,1.1,12.3,1.6,18.8,0.4
		c0.5-0.1,1-0.3,1.4-0.4c0.5,0.1,1,0.2,1.5,0.2h3.3c1.1,0,2.2-0.3,3.2-0.9c9.8,2.7,19.6,1.9,29.6,1.7c10-0.2,19.4,4.1,29.4,2.9
		c2.5-0.3,4.2-1.7,5.2-3.4c0.6,0.4,1.2,0.7,1.9,0.9c12.5,3.3,25.3,1.7,38.1,2.3c14.9,0.7,29.6,1.1,44.5,1.2
		c15.6,0.1,31.3,1.7,46.9,2.3c15.1,0.6,29.5-2.4,44.5-2.8c1.3,0,2.3-0.4,3.2-0.9c0.9,0.6,2,0.9,3.3,0.9c1.3,0,2.3-0.3,3.2-0.8
		c0.5,0.2,1,0.3,1.5,0.3c14.9,1.6,29.9-0.2,44.9,0.5c2.2,0.1,3.8-0.7,4.9-2c0.9,0.4,1.9,0.7,3.1,0.6c14.2-0.5,28.4-0.5,42.6-0.7
		c13.9-0.2,27.7-1.7,41.6-1.7c13.2,0,26.3,0.3,39.4-1.2c6.3-0.8,12.7-1,19-1.4c1.1,1.3,2.7,2.2,4.8,2.3c8.2,0.2,16.2-1.9,24.3-1.8
		c5.4,0.1,10.4-0.2,15.3-1.3c0,0,0-0.1,0-0.1c2.6-4,5.8-7.7,9.7-10.4c-0.1-0.3-0.3-0.5-0.5-0.8c1.4-0.9,2.7-1.9,4-3
		c1.6-1.4,2.1-3.6,1.8-5.6c2.6-1.2,4.3-3.8,3.2-7.3c-0.9-2.6,1.8-7.6,2.7-10.1c1.2-3.6,1.5-7.2,2-10.9c1.2-10.3,1.5-20.8-0.9-30.9
		c-0.1-0.6-0.4-1.1-0.6-1.6c0-6.8,0.6-13.7,0.4-20.5c-0.1-3.6-0.7-7.3-1.2-10.8c0.1-0.8,0.2-1.7,0-2.6c-0.1-0.6-0.2-1.3-0.3-1.9
		c0-1.8,0.2-3.6,0.3-5.5c0.1-0.5,0.2-1.1,0.2-1.7v-2.3c0-1.7-0.5-3-1.4-4c0.1-5.3,0.4-10.7,0.5-16.1c0-1.8-0.3-3.9-0.7-6.2
		c1.5-1,2.5-2.7,2.5-5.1c-0.1-17-1.3-34-2.3-51c-0.1-1.2-0.4-2.3-1-3.1c0.3-4.4,0.7-8.9,0.9-13.2c0.2-4.9-2.8-13.9-0.4-18.2
		c1.8-3.1,0.7-6.1-1.4-8c-0.4-7.7-0.8-15.4-0.7-23.1c1.8-1,3-2.8,2.9-5.5c-0.4-8.4-0.9-16.8-1.2-25.2c0.7-1,1.2-2.3,1.2-3.8
		c-0.1-18.1-1.3-36.2-1.4-54.3c0-1.1-0.3-2.1-0.7-2.9c0.3-7.3,0-14.5,0.2-21.8c0.3-0.7,0.4-1.5,0.4-2.4c0-2,0-4.1,0.1-6.1
		c0.2-1.4,0.4-2.9,0.6-4.3c0.2-1.1,0.1-2.1-0.2-3.1c1.1-13.4,3.3-26.8,3.2-40.3c0-0.4-0.1-0.8-0.1-1.1
		C764.6,204.9,764.4,200.2,764.3,194.9z M751.3,189c-0.5,6-1.7,12.1-1.5,18.1c0,0.3,0.1,0.6,0.1,0.9c-0.4,0.8-0.6,1.7-0.6,2.8
		c0.2,18-3.9,35.8-3.7,53.8c0,0,0,0,0,0.1c-0.2,10.2,0.5,20.4-1.2,30.5c-0.3,2.1,0.2,3.9,1.3,5.3c0.3,11.9,0.8,23.7,1.1,35.6
		c-0.8,1-1.3,2.3-1.2,3.9c0.1,8.9,0.5,17.9,1,26.8c-1,1-1.8,2.4-1.9,4.1c-1.6,14.8,0.3,29.6,0.5,44.5c0,1.1,0.3,2.1,0.7,2.9
		c0.2,2.8,0.6,5.6,0.7,8.3c0.5,11.8-1.9,23.1-0.2,35c0.2,1.3,0.7,2.3,1.3,3.1c0.2,4.3,0.5,8.6,0.7,12.9c-0.1,0.2-0.3,0.4-0.4,0.6
		c-4.7,7.9-2,16.9-1,25.4c1.6,13.4-1.3,26.6,1.3,40c0.1,0.4,0.2,0.7,0.3,1c0.2,4.1,0.4,8.1,0.5,12.2c0.2,10.5-0.8,20.7,0.6,31.3
		c0.2,1.3,0.7,2.3,1.4,3.1c0.1,6.1-0.5,12.2-1.2,18.3c-0.8,7-6,13.8-4.1,20.9c-0.5,0.3-1,0.6-1.4,0.9c-3.7,3.2-8.5,4.9-13,6.7
		c-2.3,1-4.2,2.7-4.7,5c-1.5,0-2.9-0.1-4.4-0.1c-0.3,0-0.7,0-1,0c-1.4-2-3.8-3.3-6.8-2.6c-12.4,2.7-25,2.4-37.6,3.6
		c-13.2,1.2-26.2,1.3-39.4,1.2c-13.9-0.1-27.7,1.4-41.6,1.7c-14.2,0.3-28.4,0.2-42.6,0.7c-2.2,0.1-3.8,1-4.8,2.3
		c-0.9-0.5-1.9-0.9-3.1-0.9c-15-0.7-30,1.2-44.9-0.5c-1.4-0.1-2.5,0.1-3.4,0.6c-0.4-0.1-0.8-0.1-1.2-0.1c-1.2,0-2.3,0.3-3.2,0.8
		c-0.9-0.5-2-0.8-3.4-0.8c-13.7,0.4-27.1,3.1-40.9,2.9c-15.6-0.2-31.2-1.8-46.8-2.3c-13.9-0.4-27.8,0.3-41.7-0.7
		c-13.5-1-27.9,1-41-2.4c-3.2-0.8-5.7,0.6-7,2.8c-1-0.6-2.1-0.8-3.6-0.7c-8.1,1-15.7-1.8-23.7-2.6c-11.1-1-22.1,1.4-33-1.9
		c-1.1-0.3-2.2-0.4-3.1-0.2c-1.1-1.3-2.6-2.2-4.7-2.4c-7.4-0.5-14.7-0.8-22,0c-2,0.2-3.8,1.1-5,2.4c0,0,0,0-0.1,0
		c-7.8-1-16.1,1.1-24,1.3c-12.3,0.3-24.3-0.3-36.2,3.5c-0.8-0.4-1.6-0.6-2.7-0.6c-2.7-0.1-5.5,0.2-8.3,0.4c-2.5-0.7-4.9-1.5-7.3-2.5
		c-2-0.8-4.2-0.1-5.8,1.3c-1-1.1-2.3-1.9-4.2-1.9c0,0-0.1-0.1-0.1-0.1c-12.3-8.3-12.9-21.6-14.8-35.1c-1.3-9-4.3-17.5-4.9-26.6
		c-0.1-1.1-0.1-2.1-0.1-3.2c0.1-0.5,0.1-1,0.1-1.5c0-1.8,0-3.5,0-5.3c0.3-5.6,0.9-11.2,0.9-16.7c0-1.5-0.4-2.7-1-3.7
		c-0.1-6.6-0.2-13.1-0.4-19.7c0-1.3-0.4-2.4-0.9-3.2c0,0,0,0,0,0c0.5-19.2,1.7-38.5,1.8-57.7c1.3-1,2.2-2.7,1.9-5
		c-2.6-21.9,1-44.1-3.3-65.8c1.2-1,2-2.7,1.9-4.8c-0.9-17.2-0.8-34.3,0.5-51.5c0.1-1.2-0.1-2.2-0.5-3c0.8-1.3,1.1-2.9,0.7-4.8
		c-1.6-7.7-2-15.4-1.6-23.2c1.7-1,3-2.8,2.8-5.5c-0.4-6.2-0.4-12.5-0.5-18.7c0-0.4,0-0.8,0-1.1c0-2.6-0.1-5.1-0.1-7.7
		c-0.1-4.4,0.7-14.8-2.4-20.2c-0.4-11.3-1-22.6,0.5-33.8c0.5-4-2.2-6.9-5.3-7.9c0-0.4-0.1-0.9-0.1-1.3c-1-11.8-4.6-25.2-0.2-36.6
		c0.8-2.1,0.5-3.8-0.4-5.2c1.9-6.4,5.4-10.3,13.4-12.8c8.9-2.8,18.7-2.7,27.9-2.7c10.2,0,20.1,0,30.3-1.1c8.5-1,16.5-1.2,25,0.1
		c6.8,1,12.9,1,19.5-0.9c1.4-0.4,2.4-1.1,3.1-1.9c0.9,0.5,1.9,0.8,3.1,0.8c16,0,31.9,0.6,47.7,2.3c13.5,1.5,26.8,4.3,40-0.2
		c0.7,0.2,1.6,0.3,2.5,0.2c13-1.4,26.2,0.1,39.3,0.9c14.9,0.9,29.8,1.7,44.6,2.3c29.7,1.3,59.5,1.7,89.2,0.6c1.3-0.1,2.4-0.4,3.3-1
		c0.3,0,0.6,0.1,0.9,0.1c27.9,0,56.4-2,84.2,0c8.8,0.6,17.7,1.3,26.6,1.5c5.3,0.1,14.4,1.1,18.3-3.4c0.1-0.1,0.1-0.2,0.2-0.3
		c0.9,0.5,1.9,0.8,3.1,0.8c23.1,0,46-0.9,69.1,0.1c11.4,0.5,22.5,1.5,33.6,4.3c7.5,1.9,14.1,6.7,21.5,7.3c0.5,0.5,1,0.9,1.7,1.3
		c0.1,0.2,0.2,0.5,0.3,1c0.4,1.2,0.4,2.5,0.4,3.8C751.8,182.3,751.5,185.6,751.3,189z"/>
	<path fill="#536E51" d="M136.5,183.3v0.8c0,0.3,0.5,0.3,0.5,0v-0.8C137,183,136.5,183,136.5,183.3z"/>
	<path fill="#536E51" d="M137.4,181.2c-0.1-0.3-0.5-0.2-0.5,0.1c0.9,4.1,1.9,8.1,2.8,12.2c0.1,0.3,0.5,0.2,0.5-0.1
		C139.3,189.4,138.4,185.3,137.4,181.2z"/>
	<path fill="#536E51" d="M132.9,169.9c-3.9,2.6-6.1,6.9-8.5,10.8c-0.2,0.3,0.2,0.5,0.4,0.2c2.4-3.8,4.5-8.1,8.3-10.7
		C133.4,170.1,133.1,169.7,132.9,169.9z"/>
	<path fill="#536E51" d="M114.1,205.5c-0.1,0.1-0.7,0.6-0.7,0.6c0-0.2,0.1-0.4,0.1-0.6c0.1-0.6,0.4-1.1,0.5-1.6
		c0.1-0.3-0.4-0.4-0.5-0.1c-0.2,0.6-0.9,1.9-0.6,2.5c0.3,0.8,1.2-0.2,1.5-0.4C114.7,205.6,114.3,205.3,114.1,205.5z"/>
	<path fill="#536E51" d="M124.9,178.8c-2.4,1.3-4.2,3.2-6,5.2c-0.1,0.1-0.9,0.7-1.6,1.3c1.4-2.3,2.7-4.6,3.7-7
		c0.1-0.2-0.2-0.5-0.4-0.3c-2.4,2.9-5,5.6-5.7,9.5c0,0.2,0.1,0.3,0.3,0.3c-1.5,2.4-3,4.7-4.5,7.1c-0.2,0.3,0.3,0.5,0.4,0.2
		c1.6-2.7,3.4-5.4,5.1-8.1c3.1-2.4,5.4-5.8,8.9-7.7C125.4,179,125.2,178.6,124.9,178.8z M115.6,186.5c0.4-2.2,2-4.2,3.4-5.9
		c0.6-0.7,1.8-2.9,0.6-0.5c-0.9,1.8-1.9,3.5-2.9,5.3c-0.1,0.2-0.3,0.5-0.4,0.7C115.9,186.3,115.6,186.5,115.6,186.5z"/>
	<path fill="#536E51" d="M117.9,167.6c-0.4,0.4-0.6,1-0.9,1.4c-0.2,0.2,0.1,0.6,0.3,0.3c0.4-0.4,0.6-1,0.9-1.4
		C118.4,167.7,118.1,167.3,117.9,167.6z"/>
	<path fill="#536E51" d="M113.6,177.4c-0.5,1.1-1.8,3.6-0.4,4.5c0.3,0.2,0.5-0.2,0.2-0.4c-1.1-0.7,0.2-3.1,0.6-3.9
		C114.2,177.4,113.8,177.2,113.6,177.4z"/>
	<path fill="#536E51" d="M119.3,199.4c-1.7,0.8-3.8,0.9-5.3-0.4c-0.2-0.2-0.6,0.1-0.3,0.3c1.7,1.5,4,1.4,5.9,0.5
		C119.8,199.6,119.6,199.2,119.3,199.4z"/>
	<path fill="#536E51" d="M118.4,279.4c-2.9,1-5.2,2.9-7.6,4.7c-0.2,0.2,0.1,0.5,0.3,0.3c2.1-1.7,4.3-3.4,6.9-4.4
		c0.3-0.1-0.2,3.2-0.4,3.7c-0.3,1.3-0.8,2.6-1.3,3.8c-0.1,0.3,0.3,0.4,0.5,0.1c1-2.6,1.8-5.2,1.9-8
		C118.7,279.4,118.6,279.3,118.4,279.4z"/>
	<path fill="#536E51" d="M133.2,392.9c-3.3-7.1-6.5-14.2-9.5-21.4c-1.1-3.2-2.1-6.5-3-9.8c-0.1-0.3-0.5-0.2-0.4,0.1
		c0.4,1.5,0.8,3,1.2,4.5c-0.9-2.3-1.9-4.5-2.8-6.8c0.1,0,0.2-0.2,0.1-0.3c-0.1-0.1-0.2-0.2-0.2-0.3c0.1,0,0.1,0,0.2-0.1
		c3.7-4.4,6.8-9.3,9.4-14.4c0.1-0.2,0-0.3-0.2-0.4c-1.7-0.1-3.3-0.1-4.9,0.1c-1,0.1-3.2,0.7-4.7,0.7c1.1-2.6,2.3-5.1,3.2-7.7
		c1.8-1.9,3.7-3.8,5.4-5.8c0.2-0.2-0.1-0.6-0.3-0.3c-1.6,1.8-3.2,3.5-4.8,5.2c0.7-2.1,1.3-4.3,1.6-6.5c0-0.2-0.2-0.4-0.4-0.2
		c-1.8,1.5-8.2,8.5-6.7,2.4c1-4.1,4.4-7.8,7.9-10c0.3-0.2,0-0.6-0.2-0.4c-3.2,2-6.2,5.3-7.6,8.9c0-1.7-0.1-3.4,1.2-4.7
		c0.2-0.2-0.1-0.5-0.3-0.3c-1.4,1.4-1.3,3.3-1.3,5.2c0,0.2,0.2,0.2,0.3,0.2c-0.5,1.4-0.8,2.9-0.8,4.5c0,0.2,0.2,0.3,0.4,0.2
		c2.2-0.9,3.8-2.3,5.5-3.9c1.5-1.3,1.5-1,1.2,0.8c-0.3,1.6-0.8,3.1-1.4,4.7c-2.2,2.4-4.2,4.9-5.8,7.8c-0.1,0.2,0,0.3,0.2,0.4
		c0.7,0.1,1.4,0.1,2.1,0.1c-1.7,3.8-3.4,7.5-4.6,11.5c-0.1,0.3,0.4,0.4,0.5,0.1c1.1-4,2.9-7.8,4.6-11.6c0.6,0,1.2-0.1,1.9-0.1
		c0.6-0.1,8-1.4,7.1,0.5c-2.4,4.6-5.3,9-8.6,12.9c0,0.1-0.1,0.1-0.1,0.2l0,0c-0.3-0.6-0.5-1.3-0.8-1.9c-0.1-0.3-0.5-0.2-0.5,0.1
		c0.2,0.8,0.5,1.5,1,2.1c0.3,1.2,1.6,4.2,1.7,4.6c1.1,2.8,2.3,5.5,3.4,8.3c0.1,0.3,0.2,0.5,0.3,0.8c1.5,4.1,3.2,8.1,5,12
		c-0.1-0.1-0.2-0.1-0.3,0c-4,4.8-7.8,9.9-7.6,16.4c0,0.2,0.1,0.3,0.3,0.2c3.1-0.7,5.4-2.3,8-4c2.5-1.6,2.7-0.6,1.9,1.7
		c-0.8,2.4-2.2,4.7-3.6,6.9c-3.3,5.3-7.4,10.1-10.3,15.7c-1.3-4.4-2.7-8.9-4.1-13.3c0.5,1.6,2.6,6.5,4,9.1c0.1,0.2,0.4,0.1,0.4-0.1
		c-0.2-8.2-3.4-16.1-2.5-24.3c0-0.3-0.4-0.3-0.5,0c-0.6,5.6,0.5,10.8,1.6,16.3c0.2,1.2,1.8,9,0,5.4c-1.3-2.7-2.2-5.5-3.7-8.1
		c-0.1-0.2-0.5-0.1-0.4,0.2c1.7,5.1,3.3,10.3,4.8,15.4c-0.6,1.2-1.2,2.5-1.7,3.8c-0.1,0.3,0.3,0.4,0.5,0.1c0.4-1.1,0.9-2.2,1.4-3.3
		c1,3.2,1.9,6.5,2.8,9.8c-1.7,5.4-2.4,11.3-2.8,17.1c-0.8,1.6-1.5,3.2-1.9,5c0,0.2,0.1,0.3,0.3,0.3c0.5-0.1,0.9-0.2,1.3-0.3
		c0,0.7-0.1,1.4-0.1,2.1c-0.5,10.1-0.3,20.3,0,30.5c0.2,6.2,0.7,12.5,0.4,18.7c0,0.3,0.5,0.3,0.5,0c0.8-14.1-0.8-28.4-0.6-42.5
		c0.1-2.9,0.1-5.9,0.3-8.9c2.3-0.7,4.3-1.9,6.4-3.2c1.5-1,3-2.1,4.6-3.1c2.5-1.7,2.9-1.7,1.1,0.9c-3.6,5.2-8,10.2-7.3,17
		c0,0.3,0.5,0.3,0.5,0c-0.9-7.9,5.5-13.7,9.3-19.8c0.1-0.2-0.1-0.4-0.3-0.3c-1,0.5-1.9,1-2.8,1.5c0,0,0,0,0,0
		c1.2-3.9,1.8-7.9,2.5-11.9c0-0.2-0.1-0.4-0.3-0.3c-2.7,1.4-5.1,3.1-7.7,4.6c-0.2,0.1-0.5,0.3-0.7,0.4c-0.2-0.8-0.4-1.6-0.7-2.4
		c0.4-0.5,0.9-1.1,1.3-1.6c0.2-0.2-0.2-0.5-0.4-0.2c-0.3,0.5-0.7,0.9-1.1,1.4c-0.4-1.6-0.9-3.2-1.4-4.8c1.3-4.5,3.6-9.4,8.2-8.7
		c0.3,0,0.4-0.4,0.1-0.5c-4.7-0.7-7,4-8.3,7.8c-0.1,0.2-0.1,0.5-0.2,0.7c-0.9-3.2-1.8-6.4-2.7-9.6c4.7-9.1,13-16.4,15.1-26.6
		c0-0.2-0.1-0.4-0.3-0.3c-3.5,1.4-6.3,4.1-10,5.3c-2.7,1,1.3-8.5,1.4-8.8c1.3-2.5,3.2-4.6,5-6.7c0,0,0-0.1,0-0.1
		c1.3,2.7,2.6,5.5,4,8.2C132.9,393.4,133.3,393.1,133.2,392.9z M117.9,344.9c-1.1-0.1-1.7-0.7-0.7-2.3c1-1.6,2.3-3.1,3.6-4.6
		c0,0,0,0.1,0,0.1C119.8,340.4,118.9,342.6,117.9,344.9z M117,454.1c-0.6,0.1-1-0.1-0.9-0.7c0.2-1,0.6-1.9,1.1-2.9
		C117.1,451.7,117,452.9,117,454.1z M122.2,440.4c-0.1,0-0.2,0.1-0.3,0.1c-1.9,1-1.8,0.1-1-1.3c0.2-0.4,0.4-0.7,0.7-1
		C121.8,438.9,122,439.7,122.2,440.4z M121.4,437.7c-0.9,1.1-1.6,2.3-1.7,3.9c0,0.1,0.2,0.3,0.3,0.2c0.8-0.3,1.6-0.6,2.3-1
		c0.6,2.2,1.2,4.3,1.8,6.5c0.1,0.3,0.5,0.2,0.4-0.1c-0.6-2.2-1.2-4.4-1.8-6.5c2.5-1.3,4.8-2.9,7.1-4.3c1.4-0.8,0.8,0.3,0.7,1.3
		c-0.2,1.1-0.4,2.1-0.6,3.2c-0.4,2.1-0.9,4.3-1.6,6.3c-0.1,0.2,0.1,0.3,0.2,0.3c-2.5,1.5-4.9,3.3-7.4,4.9c-0.3,0.2-2.4,1.4-3.8,1.7
		c0.1-1.5,0.2-3.1,0.3-4.6c1.1-1.8,2.4-3.6,3.6-5.1c0.2-0.2-0.1-0.6-0.3-0.3c-1.2,1.5-2.3,3-3.2,4.6c0.3-3.8,0.8-7.7,1.5-11.5
		c0.2-1,0.5-2.4,0.8-3.8C120.6,434.8,121,436.3,121.4,437.7z"/>
	<path fill="#536E51" d="M137.2,498.2c-1.6,1.6-2.8,4.3-0.6,6c0.2,0.2,0.5-0.2,0.2-0.4c-2-1.5-0.6-3.9,0.7-5.2
		C137.7,498.4,137.4,498,137.2,498.2z"/>
	<path fill="#536E51" d="M134.7,509.5c-0.5,0.9-1.1,1.7-1.8,2.4c-0.2,0.2,0.1,0.5,0.3,0.3c0.8-0.8,1.4-1.6,1.9-2.5
		C135.2,509.5,134.8,509.3,134.7,509.5z"/>
	<path fill="#536E51" d="M142.3,432.7c-0.8,0.1-0.8,0.8-0.8,1.5c0,0.3,0.5,0.3,0.5,0c0-0.3-0.1-1,0.5-1
		C142.7,433.1,142.6,432.6,142.3,432.7z"/>
	<path fill="#536E51" d="M150.9,436.6v1.3c0,0.3,0.5,0.3,0.5,0v-1.3C151.3,436.3,150.9,436.3,150.9,436.6z"/>
	<path fill="#536E51" d="M143.7,476.4c-0.4-0.2-0.4-0.5,0.1-0.9c0.2-0.2-0.1-0.6-0.3-0.3c-0.4,0.5-0.9,1.5,0.1,1.6
		C143.8,476.8,144,476.4,143.7,476.4z"/>
	<path fill="#536E51" d="M127.4,493.2c-0.7,0-0.9,0.2-0.9,0.9c0,0.3,0.5,0.3,0.5,0c0-0.3,0.1-0.4,0.4-0.4
		C127.7,493.7,127.7,493.2,127.4,493.2z"/>
	<path fill="#536E51" d="M134.7,469.5c-0.7,0.8-0.7,1.7-0.7,2.7c0,0.3,0.5,0.3,0.5,0c0-0.8,0-1.7,0.6-2.3
		C135.2,469.7,134.9,469.3,134.7,469.5z"/>
	<path fill="#536E51" d="M148.4,448.4c-0.1,0.5-0.7,0.4-1,0.5c-0.3,0-0.3,0.5,0,0.5c0.6,0,1.4,0,1.5-0.8
		C148.9,448.3,148.4,448.1,148.4,448.4z"/>
	<path fill="#536E51" d="M123.2,488.9c-0.6-0.7-0.6-1.5-0.6-2.3c0-0.3-0.5-0.3-0.5,0c0,1,0,1.9,0.7,2.7
		C123.1,489.4,123.4,489.1,123.2,488.9z"/>
	<path fill="#536E51" d="M118.9,503.4c0-0.3-0.5-0.3-0.5,0c0.1,0.7,0.5,1.2,0.6,1.9c0,0.3,0.5,0.3,0.5,0
		C119.4,504.6,119,504.1,118.9,503.4z"/>
	<path fill="#536E51" d="M123.9,513.4c0-0.3-0.5-0.3-0.5,0c0,3.2,0.6,6.3,1.3,9.4c0.1,0.3,0.5,0.2,0.5-0.1
		C124.5,519.6,123.9,516.5,123.9,513.4z"/>
	<path fill="#536E51" d="M125.9,558.3v4.4c0,0.3,0.5,0.3,0.5,0v-4.4C126.4,558,125.9,558,125.9,558.3z"/>
	<path fill="#536E51" d="M119.5,570.2c0-0.3-0.5-0.3-0.5,0c0.1,0.5,0.6,0.8,0.6,1.2c0,0.3,0.5,0.3,0.5,0
		C120.1,570.9,119.6,570.6,119.5,570.2z"/>
	<path fill="#536E51" d="M117.6,573.2c-1.6-2.1-1.3-6.2-1.4-8.7c-0.2-3.3-0.4-6.6-0.4-9.9c0-0.3-0.5-0.3-0.5,0
		c0,3.9,0.2,7.8,0.5,11.7c0.2,2.1,0.1,5.4,1.4,7.2C117.4,573.6,117.8,573.4,117.6,573.2z"/>
	<path fill="#536E51" d="M121.3,551.3c-0.2-0.2-0.5,0.1-0.3,0.3c0.3,0.3,0.5,0.7,0.6,1.1c0,0.3,0.5,0.3,0.5,0
		C121.9,552.1,121.7,551.7,121.3,551.3z"/>
	<path fill="#536E51" d="M722.3,209.2c2-5.3,4.2-10.5,6.2-15.8c0.1-0.3-0.3-0.4-0.5-0.1c-3.3,9-7.3,17.7-10,26.8
		c-0.1,0.2,0.2,0.4,0.4,0.2c1.6-1.3,2.8-2.6,3.8-4.4c0.1-0.3-0.3-0.5-0.4-0.2c-0.8,1.4-3.7,5.7-2.4,1.4
		C720.3,214.4,721.3,211.8,722.3,209.2z"/>
	<path fill="#536E51" d="M723.6,258.8c-0.6,2.4-1.4,4.6-2.5,6.8c-0.1,0.3,0.3,0.5,0.4,0.2c1.1-2.2,1.9-4.5,2.5-6.9
		C724.2,258.6,723.7,258.5,723.6,258.8z"/>
	<path fill="#536E51" d="M724.2,281.9c-1.1,2.8-1.9,5.7-2.5,8.7c-0.1,0.3,0.4,0.4,0.5,0.1c0.6-3,1.4-5.9,2.5-8.7
		C724.8,281.7,724.4,281.6,724.2,281.9z"/>
	<path fill="#536E51" d="M723.5,325.7c0.1-0.3-0.4-0.4-0.5-0.1c-3.5,14.4-10.1,30.8-5.6,45.7c0.1,0.3,0.5,0.2,0.5-0.1
		C713.3,356.3,720,340,723.5,325.7z"/>
	<path fill="#536E51" d="M721,391.1c0-0.3-0.5-0.3-0.5,0c0.5,11.3-1.7,22.4-1.9,33.7c0,0.3,0.5,0.3,0.5,0
		C719.2,413.5,721.4,402.4,721,391.1z"/>
	<path fill="#536E51" d="M712.4,495.9c-0.1,0.8-0.8,1.7-1.2,2.4c-0.2,0.3,0.2,0.5,0.4,0.2c0.5-0.8,1.2-1.7,1.3-2.6
		C712.9,495.6,712.4,495.6,712.4,495.9z"/>
	<path fill="#536E51" d="M710.3,551.3c1.7-14.3,3.4-28.6,5.1-42.9c0-0.3-0.4-0.3-0.5,0c-1,8.2-1.9,16.4-2.9,24.6
		c-0.5,4.1-1,8.2-1.5,12.3c-0.3,2.2-0.5,4.4-0.8,6.7c-0.4,1.3-0.4,2.5-0.5,3.8c0,0.3,0.4,0.3,0.5,0c0.2-1.3,0.3-2.5,0.4-3.8
		c0.1-0.2,0.1-0.4,0.2-0.5C710.4,551.4,710.3,551.3,710.3,551.3z"/>
	<path fill="#536E51" d="M716.5,600.6c-1-1,0.4-1.5-1.4-1.9c-0.1,0-0.2,0-0.3,0.1c-1,1.6-2.1,2.2-3.2,2.1
		c1.4-17.7,1.9-35.5-0.1-53.1c0-0.3-0.5-0.3-0.5,0c2,17.7,1.5,35.4,0.1,53.1c-2.7-0.7-5.1-5.3-6.1-6.9c-1.6-2.5-3.2-5.1-5-7.5
		c-1.9-2.5-4.1-4-7-5c-4.9-1.6-11-1.6-15.2-4.9c-2.3-1.8-3.2-4.9-4-7.6c-0.6-2.1-1-4.4-1.2-6.5c-0.2-1.7,1-4.3,2.3-2.1
		c0.2,0.3,0.6,0,0.4-0.2c-0.5-0.8-0.8-1.7-1.2-2.5c-0.1-0.2-0.3-0.1-0.4,0c-3.1,4.8-0.9,14,2.8,18.2c4.2,4.7,11.7,4.6,17.3,6.4
		c7.2,2.4,9.6,11.1,14,16.5c1,1.2,2.1,2.4,3.4,2.8c-0.2,2.9-0.5,5.8-0.7,8.7c0,0.3,0.4,0.3,0.5,0c0.3-2.9,0.5-5.7,0.7-8.6
		c0.4,0,0.8,0,1.3-0.1c0.5-0.1,1.3-1,1.6-1.3c1-1.6,1.3,0.5,1.6,0.8C716.4,601.1,716.7,600.8,716.5,600.6z"/>
	<path fill="#536E51" d="M716,615.7c0-0.3-0.5-0.3-0.5,0c0,3.9,0.2,7.8-0.1,11.6c-0.1,2.4-0.6,4.6-1.3,6.9c-0.1,0.7-0.1,0.3,0-1.1
		c0.1-1.4,0.2-2.9,0.6-4.3c0.1-0.3-0.4-0.4-0.5-0.1c-0.5,2.3-0.6,4.6-0.6,6.9c0,0.3,0.4,0.3,0.5,0.1
		C716.4,629.3,716,622.5,716,615.7z"/>
	<path fill="#536E51" d="M677,627.3c-3.2,1.3-6.4,2.4-9.9,2.5c-0.3,0-0.3,0.5,0,0.5c3.6-0.1,6.8-1.2,10-2.5
		C677.4,627.7,677.3,627.2,677,627.3z"/>
	<path fill="#536E51" d="M151.1,185.6c-0.5,0-1.2-0.1-1.4-0.7c-0.2-0.5,0.1-1.1,0.3-1.5c0.1-0.3-0.3-0.5-0.4-0.2
		c-0.7,1.5-0.4,2.8,1.4,2.8C151.4,186.1,151.4,185.6,151.1,185.6z"/>
	<path fill="#536E51" d="M184.2,187.5c-0.9-0.1-1.6-0.6-2.5-0.6c-0.3,0-0.3,0.4,0,0.5c0.9,0.1,1.6,0.6,2.5,0.6
		C184.5,188,184.5,187.5,184.2,187.5z"/>
	<path fill="#536E51" d="M204.6,188.8c-1.3,0.6-2.8,0.6-4.2,0.6c-0.3,0-0.3,0.5,0,0.5c1.5,0,3.1,0,4.5-0.7
		C205.1,189,204.9,188.6,204.6,188.8z"/>
	<path fill="#536E51" d="M229.3,185c-0.5-0.5-0.7-0.7-1.4-0.7c-0.3,0-0.3,0.5,0,0.5c0.5,0,0.7,0.2,1.1,0.6
		C229.1,185.6,229.5,185.3,229.3,185z"/>
	<path fill="#536E51" d="M252.8,184.4h-3.1c-0.3,0-0.3,0.5,0,0.5h3.1C253.1,184.8,253.1,184.4,252.8,184.4z"/>
	<path fill="#536E51" d="M268.4,187.5c-2.1,0-4.2-0.6-6.2-1.2c-0.3-0.1-0.4,0.4-0.1,0.5c2,0.7,4.1,1.2,6.3,1.3
		C268.7,187.9,268.7,187.5,268.4,187.5z"/>
	<path fill="#536E51" d="M260.8,192.5c-3.3,1.4-6.4,3.2-9.4,5c-0.3,0.2,0,0.6,0.2,0.4c3-1.8,6-3.6,9.3-5
		C261.2,192.8,261.1,192.4,260.8,192.5z"/>
	<path fill="#536E51" d="M294.2,193.8c-0.3-0.5-1.8-0.4-2.2-0.3c-1,0.1-2,0.5-3,0.9c-0.3,0.1-0.2,0.5,0.1,0.4
		c1.5-0.5,2.9-1.1,4.5-0.7c0.7,0.1,0.5,1.6,0.3,2c-0.1,0.5-0.5,1-0.7,1.5c-0.1,0.3,0.3,0.5,0.4,0.2
		C294.2,196.6,295,195.2,294.2,193.8z"/>
	<path fill="#536E51" d="M337,183.7c-7.5,2.5-14.9,5.1-21.9,8.8c-0.3,0.1,0,0.5,0.2,0.4c6.9-3.7,14.3-6.2,21.8-8.7
		C337.4,184.1,337.2,183.6,337,183.7z"/>
	<path fill="#536E51" d="M349.3,184.5c-0.6,1.8-1.7,3.5-3.1,4.9c-0.2,0.2,0.1,0.5,0.3,0.3c1.4-1.5,2.5-3.2,3.2-5.1
		C349.8,184.4,349.4,184.2,349.3,184.5z"/>
	<path fill="#536E51" d="M423.7,187.5c-13.3,1.2-25,10.7-38.5,10.6c-7.2,0-4.6-7-5.8-11.6c-0.9-3.7-6.4-0.6-8.2,0.3
		c-0.3,0.1,0,0.5,0.2,0.4c3.1-1.6,7.5-3.7,7.8,1.4c0.1,1.9-0.1,3.9,0.3,5.8c0.6,3.7,4.1,4.2,7.3,4.1c12.9-0.5,24.2-9.4,37-10.6
		C424,187.9,424.1,187.4,423.7,187.5z"/>
	<path fill="#536E51" d="M422.9,199.5c-0.6,1.7-1.3,3.3-1.9,5c-0.1,0.3,0.4,0.4,0.5,0.1c0.6-1.7,1.3-3.3,1.9-5
		C423.4,199.3,423,199.2,422.9,199.5z"/>
	<path fill="#536E51" d="M482.8,189.5c-1.4,3.4-3.6,6.6-6.2,9.3c-0.2,0.2,0.1,0.5,0.3,0.3c2.7-2.7,4.8-5.9,6.3-9.5
		C483.4,189.4,482.9,189.2,482.8,189.5z"/>
	<path fill="#536E51" d="M508.5,193.1c-4.3,1.2-8.4,2.7-12.5,4.4c-0.3,0.1,0,0.5,0.2,0.4c4.1-1.7,8.2-3.1,12.4-4.3
		C509,193.5,508.8,193,508.5,193.1z"/>
	<path fill="#536E51" d="M547.2,208.7c-2.7,1-5.5,1.9-8.3,2.6c-1.7,0.4-3.4,0.6-5.2,0.6c-0.7,0-1.1-0.2-1.3-0.5c1.1-1,2.1-2,3.2-3
		c0.2-0.2-0.1-0.5-0.3-0.3c-1,0.9-2,1.9-3,2.8c0-0.8,0.5-1.8,0.9-2.5c0.2-0.3-0.3-0.5-0.4-0.2c-0.7,1.3-1.5,2.2-1.3,3.5
		c-11.4,10.7-21.9,22.3-32.3,33.9c-0.2,0.2,0.1,0.6,0.3,0.3c10.4-11.5,20.8-23,32.1-33.7c0,0,0.1,0,0.1,0.1
		c5.4,0.5,10.6-1.3,15.7-3.1C547.6,209,547.5,208.6,547.2,208.7z"/>
	<path fill="#536E51" d="M605.8,216.8c-5.3,3.8-12.6,6.4-15.7,12.6c-0.1,0.1,0,0.3,0.1,0.3c0.8,0.4,1.7,0.2,2.5,0.6
		c0.3,0.1,0.5-0.3,0.2-0.4c-0.9-0.4-2.5-0.3-1.7-1.7c1.2-2.1,3.4-3.7,5.3-5c3.1-2.2,6.4-3.8,9.5-6
		C606.3,217.1,606.1,216.6,605.8,216.8z"/>
	<path fill="#536E51" d="M628.9,229.9c-6.2,3.7-12.1,7.8-17.5,12.5c-0.2,0.2,0.1,0.5,0.3,0.3c5.4-4.7,11.3-8.7,17.4-12.4
		C629.4,230.2,629.2,229.8,628.9,229.9z"/>
	<path fill="#536E51" d="M662.9,237.6c-0.1-0.3-0.6-0.2-0.5,0.1c0.6,1.4-0.6,2.9-1.8,3.5c-0.3,0.1,0,0.6,0.2,0.4
		C662.3,240.8,663.6,239.1,662.9,237.6z"/>
	<path fill="#536E51" d="M635.2,256.7c-2.1,0.6-4.4,2.2-4.5,4.6c0,0.3,0.5,0.3,0.5,0c0.1-2.2,2.3-3.6,4.2-4.1
		C635.6,257.1,635.5,256.7,635.2,256.7z"/>
	<path fill="#536E51" d="M653.2,266.1c-5.7,3.1-11.7,6.2-15.1,11.9c-0.2,0.3,0.3,0.5,0.4,0.2c3.4-5.7,9.3-8.7,14.9-11.8
		C653.7,266.4,653.5,266,653.2,266.1z"/>
	<path fill="#536E51" d="M670.8,278.7c-3.1-2.8-9-1.3-12.6-0.7c-0.3,0.1-0.2,0.5,0.1,0.5c3-0.5,15.4-2.6,11.8,4.1
		c-2.5,4.7-8.2,8.1-12.5,11c-7.4,5-16.2,9.8-20.2,18.2c-0.1,0.1,0,0.2,0.1,0.3c1.5,1.1,2.6,1.3,4.5,1.3c0.3,0,0.3-0.5,0-0.5
		c-7.1-0.1-0.9-6.2,1.3-8.3c2.7-2.7,5.9-4.9,9.1-7c5.6-3.8,11.5-7.3,16.2-12.3C669.9,283.9,672.8,280.5,670.8,278.7z"/>
	<path fill="#536E51" d="M659.3,312.3c-1.7-1.1-4.3-0.5-6,0c-0.3,0.1-0.2,0.5,0.1,0.5c1.6-0.4,3.2-0.8,4.8-0.4
		c2.1,0.5,2.1,2.7,1.7,4.4c-0.1,0.3,0.4,0.4,0.5,0.1C660.8,315.2,660.9,313.4,659.3,312.3z"/>
	<path fill="#536E51" d="M645.1,362.9c-5.5,4.4-10.5,9.3-13.8,15.6c-0.1,0.3,0.3,0.5,0.4,0.2c3.3-6.3,8.2-11.2,13.7-15.5
		C645.6,363,645.3,362.7,645.1,362.9z"/>
	<path fill="#536E51" d="M664.5,394c-8.6,1.3-16.5,5.4-25.2,6.3c-2.6,0.3-5.1,0.4-3.3-2.8c1.1-2,3.2-3.7,5-5
		c2.7-2.1,5.8-3.7,8.6-5.5c0.3-0.2,0-0.6-0.2-0.4c-5.5,3.6-13.2,6.9-15.1,13.9c0,0.2,0.1,0.3,0.2,0.3c5.5,0.5,10.6-0.8,15.8-2.4
		c2.6-0.8,5.2-1.7,7.9-2.5c1.6-0.5,3.1-0.8,4.7-1.1c2.2-0.4-0.7,2.1-1.1,2.5c-5.2,5.2-14.1,6-17.6,13.1c-0.1,0.1,0,0.3,0.1,0.3
		c3.5,0.6,6.8,0.5,10.1-0.6c0.3-0.1,0.2-0.5-0.1-0.4c-1.9,0.6-3.7,0.9-5.7,1c-1.3,0.1-2.5-0.2-3.6-0.9c0.5-0.8,1-1.6,1.7-2.3
		c1.9-2,4.6-3.4,7-4.6c4.1-2.2,8.4-4.3,10.8-8.5C664.9,394.1,664.7,394,664.5,394z"/>
	<path fill="#536E51" d="M651.4,416.5c-1,0.5-1.9,1.2-3,1.2c-0.3,0-0.3,0.5,0,0.5c1.2-0.1,2.2-0.7,3.2-1.3
		C651.9,416.7,651.6,416.3,651.4,416.5z"/>
	<path fill="#536E51" d="M541,479.5c-0.3,0-0.3,0.5,0,0.5C541.3,479.9,541.3,479.5,541,479.5z"/>
	<path fill="#536E51" d="M347.8,602.4c-17.8-12.2-35.3-24.9-51.4-39.2c5.2-5.7,10.5-11.2,15.9-16.6c0.2-0.2-0.1-0.5-0.3-0.3
		c-5.4,5.4-10.7,11-15.9,16.6c-12.2-10.8-23.6-22.4-33.7-35.4c-0.2-0.2-0.5,0.1-0.3,0.3c10.1,12.9,21.5,24.6,33.7,35.4
		c-7.4,8.2-14.6,16.6-21.3,25.5c-0.2,0.2,0.2,0.5,0.4,0.2c6.7-8.8,13.8-17.3,21.2-25.4c16.1,14.3,33.7,27,51.5,39.2
		C347.8,603,348,602.6,347.8,602.4z"/>
	<path fill="#536E51" d="M220.8,567.5c-12.1,14.6-24.2,29.2-35.2,44.7c-3.8-2.5-7.6-5.1-11.3-7.8c5.1-6.9,10.4-13.7,15.6-20.4
		c0.2-0.2-0.1-0.6-0.3-0.3c-5.3,6.8-10.5,13.6-15.7,20.5c-5-3.5-9.9-7.1-14.8-10.8c6-6.9,12.4-13.5,18.3-20.6
		c0.2-0.2-0.1-0.6-0.3-0.3c-5.9,7-12.3,13.6-18.3,20.6c-3.2-2.4-6.3-4.9-9.4-7.5c-0.2-0.2-0.6,0.1-0.3,0.3c3.1,2.6,6.2,5.1,9.4,7.5
		c-0.4,0.5-0.9,1-1.3,1.5c-0.2,0.2,0.1,0.6,0.3,0.3c0.4-0.5,0.9-1,1.4-1.6c4.9,3.7,9.8,7.3,14.8,10.8c-3.5,4.7-6.9,9.4-10.3,14.1
		c-0.2,0.2,0.2,0.5,0.4,0.2c3.3-4.8,6.8-9.4,10.3-14.1c3.8,2.6,7.5,5.2,11.3,7.8c-0.3,0.4-0.5,0.7-0.8,1.1c-0.2,0.2,0.2,0.5,0.4,0.2
		c0.3-0.4,0.5-0.7,0.8-1.1c0.3,0.2,0.5,0.4,0.8,0.5c0.3,0.2,0.5-0.2,0.2-0.4c-0.3-0.2-0.5-0.3-0.8-0.5c10.9-15.5,23-30.1,35.1-44.7
		C221.3,567.6,221,567.3,220.8,567.5z"/>
	<path fill="#536E51" d="M611.5,573.7c-0.3,0-0.3,0.5,0,0.5C611.8,574.1,611.8,573.7,611.5,573.7z"/>
	<path fill="#536E51" d="M717.8,506.5c0-0.1-0.2-0.2-0.3-0.1c-33.9,17.2-59.2,46.8-89.8,68.6c-0.2,0.2,0,0.6,0.2,0.4
		c15.7-11.2,30-24.2,44.6-36.7c7.9-6.7,16-13.3,24.5-19.3c4.1-2.9,8.4-5.7,12.8-8.3c2.2-1.3,4.4-2.5,6.6-3.6
		c1.4-0.7-0.2,3.7-0.3,4.1c0,0.3,0.4,0.4,0.5,0.1C717,509.3,718.6,508.8,717.8,506.5z"/>
	<path fill="#536E51" d="M403,542.5c-3.4,2.3-6.5,5.1-10,7.5c-0.2,0.2,0,0.6,0.2,0.4c3.4-2.3,6.5-5.1,10-7.5
		C403.5,542.7,403.3,542.3,403,542.5z"/>
	<path fill="#536E51" d="M336.9,562.5c-3.7,3.7-6.9,8.2-11.2,11.2c-0.2,0.2,0,0.6,0.2,0.4c4.4-3.1,7.6-7.5,11.3-11.3
		C337.4,562.6,337.1,562.3,336.9,562.5z"/>
	<path fill="#536E51" d="M676.6,609.9c-11-5.8-21.8-12-32.4-18.5c0.8-1.2,1.7-2.5,2.5-3.7c0.2-0.2-0.2-0.5-0.4-0.2
		c-0.9,1.2-1.7,2.4-2.5,3.7c-3.5-2.1-7-4.3-10.5-6.5c13.9-15.3,26.9-31.4,42.1-45.5c0.2-0.2-0.1-0.5-0.3-0.3
		c-15.2,14.1-28.3,30.3-42.2,45.6c-10-6.3-19.8-12.9-29.5-19.6c7.9-9.9,15.5-19.9,22.1-30.7c0.2-0.3-0.2-0.5-0.4-0.2
		c-6.6,10.7-14.2,20.8-22.1,30.7c-2.2-1.5-4.4-3.1-6.6-4.7c7.5-8.6,15.2-17.2,22.8-25.7c0.2-0.2-0.1-0.6-0.3-0.3
		c-7.6,8.6-15.3,17.1-22.9,25.8c-9.4-6.7-18.7-13.5-27.8-20.6c8.7-12.2,17.6-24.4,26.7-36.3c6.8,5.4,13.6,10.9,20.2,16.4
		c0.2,0.2,0.6-0.1,0.3-0.3c-6.7-5.6-13.5-11.1-20.3-16.5c7.7-10,15.7-19.8,24-29.4c0.2-0.2-0.1-0.6-0.3-0.3
		c-8.4,9.5-16.3,19.4-24.1,29.4c-3.1-2.4-6.1-4.9-9.2-7.3c2-2.3,4.1-4.5,6.1-6.8c0.2-0.2-0.1-0.6-0.3-0.3c-2.1,2.3-4.1,4.6-6.1,6.9
		c-10.5-8.3-20.9-16.6-30.9-25.4c3.4-4.1,6.8-8.1,10.3-12.1c7.4-8.5,15.3-16.4,23.3-24.2c25,19.7,51.7,37.5,77.1,56.5
		c0.2,0.2,0.5-0.2,0.2-0.4c-25.4-19-52-36.8-77-56.4c5.7-5.6,11.4-11.1,17.2-16.7c13.1-12.8,26.4-26.8,33.7-43.9
		c0.1-0.3-0.3-0.5-0.4-0.2c-7.7,18-21.9,32.4-35.8,45.8c-5.1,4.9-10.1,9.8-15.1,14.7c-15.4-12.1-30.1-25-43.6-39.3
		c-0.2-0.2-0.5,0.1-0.3,0.3c13.5,14.4,28.2,27.2,43.6,39.3c-8.8,8.6-17.4,17.4-25.5,26.8c-2.7,3.1-5.4,6.3-8.1,9.5
		c-3.7-3.2-7.3-6.5-10.9-9.8c-0.2-0.2-0.6,0.1-0.3,0.3c3.6,3.4,7.2,6.6,10.9,9.9c-3.1,3.8-6.3,7.6-9.3,11.5
		c-5.2-3.4-10.3-7-15.4-10.6c10.2-14.6,20.7-29,31.5-43.1c0.2-0.2-0.1-0.6-0.3-0.3c-10.9,14.1-21.4,28.5-31.6,43.2
		c-4.2-3.1-8.4-6.2-12.6-9.4c13-17.4,27.3-33.7,44.5-47.2c0.2-0.2-0.1-0.5-0.3-0.3c-17.2,13.5-31.5,29.8-44.5,47.2
		c-8.5-6.7-16.8-13.7-24.8-21c13.7-15.1,28.2-29.6,43.4-43.3c0.2-0.2-0.1-0.5-0.3-0.3c-15.3,13.7-29.7,28.2-43.4,43.3
		c-0.3-0.3-0.6-0.6-0.9-0.8c13.9-17,28.8-33.2,44.3-48.8c6.5,6.1,13.2,12.1,20.1,17.8c0.2,0.2,0.6-0.1,0.3-0.3
		c-6.8-5.8-13.5-11.7-20-17.9c13.9-14,28.2-27.4,42.5-40.5c0.2-0.2-0.1-0.5-0.3-0.3c-14.4,13-28.6,26.5-42.5,40.5
		c-10.1-9.5-19.7-19.5-28.8-29.9c9.2-10.5,18.8-20.6,28.7-30.4c0.3-0.3,0.6-0.5,0.8-0.8c5.6,8.2,11.4,16.2,17.4,24.1
		c0.2,0.2,0.6,0,0.4-0.2c-6-7.9-11.9-16-17.5-24.2c8.7-8.6,17.5-16.9,26.6-25.1c11.6,19.5,25,38,39.2,55.8c0.2,0.2,0.5-0.1,0.3-0.3
		c-14.3-17.8-27.7-36.3-39.2-55.8c26.1-23.7,53.6-45.9,81-68c0.2-0.2-0.1-0.5-0.3-0.3c-27.4,22.1-54.8,44.4-80.9,68
		c-4.2-7.1-8.1-14.3-11.8-21.7c28.9-28.3,58.4-56,89.3-82.2c0.2-0.2-0.1-0.5-0.3-0.3c-30.8,26.1-60.3,53.8-89.1,82
		c-4-8.2-7.7-16.6-10.9-25.2c-0.1-0.3-0.6-0.2-0.5,0.1c3.3,8.7,7,17.1,11,25.4c-9.3,9-18.5,18.2-27.6,27.3
		c-5.8-9.4-11.2-19-16.1-28.7c28.8-32.9,58.6-65.3,96.1-88.1c0.3-0.2,0-0.6-0.2-0.4c-37.5,22.7-67.3,55.1-96.1,88
		c-10.1-20-18.3-40.9-24-62.9c-0.1-0.3-0.5-0.2-0.5,0.1c5.7,22.1,13.9,43.1,24.1,63.2c-10.7,12.2-21.3,24.5-32.1,36.4
		c-0.2,0.2,0.1,0.6,0.3,0.3c10.8-11.9,21.3-24.1,32-36.3c5,9.8,10.4,19.3,16.1,28.7c-7,7-14,14-21,21c-0.2,0.2,0.1,0.5,0.3,0.3
		c7-7,14-14,21-20.9c4.1,6.6,8.4,13.1,12.8,19.5c-0.7,0.7-1.3,1.3-2,1.9c-9.5,9.4-18.7,19.2-27.6,29.3
		c-10.2-11.8-19.8-24.2-28.4-37.2c-2.1-3.1-4.1-6.3-6-9.5c0.5-0.6,1.1-1.1,1.6-1.7c0.2-0.2-0.1-0.5-0.3-0.3c-0.5,0.5-1,1.1-1.6,1.6
		c-9.1-14.9-17-30.5-23.6-46.7c7.9-7.1,16-14.1,24.3-20.9c0.2-0.2-0.1-0.5-0.3-0.3c-8.2,6.8-16.2,13.7-24.1,20.7
		c-1.7-4.1-3.3-8.3-4.8-12.4c11.7-12.8,23.8-25.2,36.8-36.7c0.2-0.2-0.1-0.5-0.3-0.3c-12.9,11.5-24.9,23.8-36.6,36.5
		c-4.3-11.7-8-23.7-11-35.8c-0.1-0.3-0.5-0.2-0.5,0.1c3.1,12.2,6.8,24.2,11.2,36c-7.3,8-14.5,16.1-21.7,24.3
		c-0.2,0.2,0.1,0.6,0.3,0.3c7.1-8.1,14.3-16.2,21.6-24.1c1.5,4.2,3.1,8.3,4.8,12.4c-15,13.4-29.5,27.4-43.5,41.9
		c-4.8-11.8-9.4-23.7-14-35.6c-0.2-0.5-0.4-1.1-0.6-1.6c-0.1-0.3-0.6-0.2-0.5,0.1c4.9,12.5,9.7,25,14.7,37.4
		c-7.8,8-15.4,16.1-22.9,24.3c-11.3-12.8-22.5-25.8-32.9-39.4c16.1-16.6,32.8-32.6,50.4-47.6c-11.6,13.2-22.8,26.7-34.8,39.3
		c-0.2,0.2,0.1,0.5,0.3,0.3c12.8-13.4,24.6-27.8,36.9-41.7c4.3-3.6,8.6-7.2,13-10.7c0.2-0.2-0.1-0.5-0.3-0.3
		c-3.5,2.8-7,5.7-10.5,8.6c12.8-14.3,26.3-28,41.9-39.4c0.2-0.2,0-0.6-0.2-0.4c-16.6,12-30.7,26.7-44.2,41.9
		c-18.5,15.6-36,32.2-52.8,49.6c-5.7-7.4-11.1-15-16.2-22.8c-0.2-0.3-0.6,0-0.4,0.2c5.1,7.9,10.6,15.5,16.3,22.9
		c-9.8,10.2-19.5,20.6-28.9,31.2c-9.6-10.2-18.8-20.7-27.2-31.8c4.2-4.8,8.3-9.7,12.5-14.5c18.4-21.2,37.5-41.8,58.8-60.1
		c0.2-0.2-0.1-0.5-0.3-0.3c-21.3,18.3-40.4,38.9-58.8,60.1c-4.2,4.8-8.3,9.6-12.5,14.4c-1.1-1.5-2.3-3-3.4-4.6
		c2.1-2.4,4.2-4.8,6.4-7.2c0.2-0.2-0.1-0.6-0.3-0.3c-2.1,2.4-4.2,4.8-6.3,7.2c-1.6-2.2-3.2-4.5-4.7-6.7c20.8-19.6,41.1-39.8,61.3-60
		c0.2-0.2-0.1-0.5-0.3-0.3c-20.2,20.2-40.4,40.4-61.2,59.9c-2.9-4.3-5.8-8.6-8.5-13c12-11.5,24.6-22.5,37.6-32.9
		c0.2-0.2-0.1-0.5-0.3-0.3c-13,10.4-25.5,21.4-37.5,32.9c-3.8-6.3-7.4-12.7-10.8-19.4c9.2-12.5,18.4-25,29.9-35.6
		c0.2-0.2-0.1-0.5-0.3-0.3c-11.4,10.5-20.6,23-29.8,35.5c-2.3-4.7-4.6-9.4-6.6-14.2c-0.1-0.3-0.5,0-0.4,0.2
		c2.1,4.9,4.4,9.7,6.7,14.4c-1.6,2.2-3.2,4.4-4.9,6.6c-0.2,0.2,0.2,0.5,0.4,0.2c1.6-2.1,3.1-4.2,4.7-6.3c3.3,6.6,6.9,13,10.7,19.3
		c-7.2,6.9-14.3,14-21.1,21.3c-3.1-3.9-6.2-7.8-9.2-11.8c-6.7-9.1-12.5-18.6-18.1-28.3c10.8-12.6,21.9-24.9,33.5-36.8
		c0.1,0.3,0.2,0.6,0.4,0.9c0.2,0.3,0.6,0,0.4-0.2c-0.2-0.3-0.3-0.7-0.4-1c2.2-2.3,4.4-4.5,6.6-6.8c0.2-0.2-0.1-0.5-0.3-0.3
		c-2.1,2.2-4.2,4.4-6.4,6.5c-0.3-3.1,2.8-6.8,4.4-9.1c1.6-2.4,3.7-4.9,4.2-7.8c0.1-0.3-0.4-0.4-0.5-0.1c-0.8,4.2-4.4,7.8-6.6,11.3
		c-1.1,1.8-2.3,4-2,6.1c-11.6,11.9-22.8,24.3-33.6,36.9c-1.5-2.6-3-5.2-4.5-7.8c-5.9-10.4-12.6-21.9-14.3-34.1
		c5-6.2,9.9-12.6,14.6-19.1c0.1-0.2-0.1-0.4-0.3-0.3c-1.9,1.1-3.5,2.2-5,3.8c-0.2,0.2,0.1,0.5,0.3,0.3c1.1-1.1,2.2-2,3.6-3
		c-0.7,0.5-2.3,3.5-2.9,4.4c-2.7,3.7-5.5,7.2-8.3,10.8c-0.7,0.8-1.3,1.6-2,2.5c-0.2-1.8-0.3-3.7-0.3-5.5c0-0.3-0.5-0.3-0.5,0
		c0,2,0.1,4,0.4,6c-4.2,5.3-8.6,10.4-12.9,15.6c-9.4,11.2-18.8,22.4-27.4,34.3c-6.2-9.6-11.8-19.6-16.4-30
		c7.3-7.9,15.4-15.1,24.3-21.3c0.2-0.2,0-0.6-0.2-0.4c-8.9,6.2-17,13.3-24.3,21.2c-4.2-9.5-7.8-19.5-10.3-29.8
		c-0.1-0.3-0.5-0.2-0.5,0.1c2.6,10.4,6.1,20.4,10.4,30.1c-15.3,16.5-27.4,36-37.8,55.9c-0.1,0.3,0.3,0.5,0.4,0.2
		c10.4-19.8,22.4-39.2,37.6-55.6c4.7,10.4,10.3,20.4,16.5,30.1c-0.7,1-1.4,1.9-2.1,2.9c-0.2,0.2,0.2,0.5,0.4,0.2
		c0.6-0.9,1.3-1.8,2-2.7c1.9,3,4,5.9,6,8.8c-10.8,15.6-20,32.2-29.6,48.5c-0.2,0.3,0.3,0.5,0.4,0.2c9.6-16.3,18.8-32.9,29.5-48.4
		c6,8.4,12.5,16.6,19.2,24.4c-4.4,5.8-8.7,11.6-13,17.5c-0.2,0.2,0.2,0.5,0.4,0.2c4.2-5.8,8.5-11.6,12.9-17.3c0.6,0.7,1.1,1.3,1.7,2
		c3.6,6.6,7.4,13,11.5,19.3c-8.2,10.5-16.4,21-24,32c-0.2,0.2,0.2,0.5,0.4,0.2c7.5-10.9,15.7-21.4,23.8-31.8
		c3.8,5.9,7.8,11.7,11.9,17.4c-0.8,0.9-1.5,1.9-2.3,2.8c-9.2,11.4-18,23.1-26.5,35.1c-7.7-11-14.9-22.4-21.3-34.3
		c-0.1-0.3-0.5,0-0.4,0.2c6.4,12,13.6,23.4,21.4,34.5c-11.9,16.9-23,34.3-33,52.4c-1-1.4-2-2.7-3-4.1c-0.2-0.2-0.6,0-0.4,0.2
		c1,1.5,2.1,2.9,3.1,4.3c-4.8,8.7-9.5,17.6-13.8,26.6c-0.1,0.3,0.3,0.5,0.4,0.2c4.3-9,8.9-17.8,13.7-26.4
		c5.8,7.9,11.9,15.5,18.3,22.8c-7.6,12.3-15.1,24.6-22.4,37.1c-0.2,0.3,0.3,0.5,0.4,0.2c7.3-12.4,14.7-24.7,22.3-36.9
		c1,1.2,2,2.3,3.1,3.5c-5.6,10.3-10.9,20.7-15.7,31.4c-0.5,1-0.9,2-1.3,3c-0.1,0.3,0.3,0.5,0.4,0.2c5.2-11.7,10.8-23.1,17-34.3
		c4.6,5.1,9.5,10.1,14.4,15c-9.1,14.4-17.7,29.1-25.7,44c-1.9-2.3-3.8-4.5-5.6-6.9c-0.2-0.2-0.5,0.1-0.3,0.3c1.9,2.4,3.8,4.7,5.7,7
		c-7.2,13.4-13.9,26.9-20.1,40.7c0-0.3-0.1-0.7-0.2-1.1c0-0.1-0.2-0.2-0.3-0.2c-2.1,0.5-3.9,1.4-5.8,2.6c-1.1,0.7-2.1,1.4-3.2,2.1
		c-1.8,1.1-0.7-0.1-0.2-0.9c2.6-4.5,6-8.7,10-12.1c0.2-0.2-0.1-0.5-0.3-0.3c-4.6,3.9-8.5,9-11.3,14.4c-0.1,0.2,0.1,0.4,0.3,0.3
		c2-1.1,3.8-2.3,5.7-3.5c1-0.6,2.1-1.2,3.2-1.6c1.3-0.5,1.5,0.6,1.5,1.6c0,0,0,0,0,0.1c0,0.1,0,0.2,0,0.2c0,0.2,0,0.4,0,0.5
		c0,0.3,0.4,0.3,0.5,0c0-0.3,0.1-0.6,0.1-0.8c6.4-14.1,13.2-27.9,20.5-41.6c2.3,2.8,4.8,5.4,7.2,8.1c-1.5,2-3.1,4.1-4.6,6.1
		c-0.2,0.2,0.2,0.5,0.4,0.2c1.5-2,3-4,4.5-6c3.5,3.8,7.1,7.5,10.8,11c-7.7,13-15,26.2-21.9,39.6c-0.1,0.3,0.3,0.5,0.4,0.2
		c6.9-13.4,14.2-26.6,21.9-39.6c7.2,6.9,14.7,13.5,22.5,19.7c-3.4,6.1-6.7,12.2-9.9,18.4c-0.1,0.3,0.3,0.5,0.4,0.2
		c3.2-6.2,6.5-12.3,9.9-18.3c11.2,9,23,17.3,35.1,25.2c-5.1,5.1-10.2,10.2-15.3,15.3c-0.2,0.2,0.1,0.5,0.3,0.3
		c5.1-5.1,10.3-10.3,15.4-15.4c7,4.6,14.2,9,21.4,13.4c-2.4,2.6-4.8,5.3-7.2,8c-0.2,0.2,0.1,0.6,0.3,0.3c2.4-2.7,4.8-5.4,7.2-8
		c4.5,2.7,9.1,5.4,13.7,8.1c0.3,0.2,0.5-0.3,0.2-0.4c-4.5-2.6-9.1-5.3-13.6-8c5.7-6.1,11.5-11.9,17.4-17.8c0.2-0.2-0.1-0.5-0.3-0.3
		c-5.9,5.9-11.8,11.8-17.5,17.9c-7.2-4.3-14.3-8.8-21.4-13.3c0.6-0.6,1.2-1.2,1.7-1.7c0.2-0.2-0.1-0.5-0.3-0.3l-1.8,1.8
		c-12.1-7.9-23.9-16.2-35.2-25.2c8.8-15.8,18.2-31.3,28.1-46.4c4.2,3.1,8.4,6.1,12.6,9.1c0.2,0.2,0.5-0.2,0.2-0.4
		c-4.3-2.9-8.5-6-12.6-9.1c0.6-0.9,1.1-1.8,1.7-2.6c14.4,12.8,29.8,24.6,46.2,35.2c0.3,0.2,0.5-0.2,0.2-0.4
		c-16.4-10.6-31.8-22.4-46.2-35.2c5.5-8.3,11.3-16.5,17.1-24.7c13,11.2,26.8,21.5,40.7,31.6c0.2,0.2,0.5-0.2,0.2-0.4
		c-13.9-10-27.7-20.3-40.7-31.5c11.2-15.5,23.1-30.6,35.4-45.2c0.7,0.9,1.5,1.8,2.2,2.7c1.4,1.6,2.8,3.2,4.2,4.8
		c-2.6,3.4-5.2,6.8-7.8,10.1c-0.2,0.2,0.2,0.5,0.4,0.2c2.5-3.4,5.1-6.7,7.7-10c14.3,16,29.9,30.6,46.5,44.1c-3,4.4-6,8.9-8.9,13.4
		c-0.2,0.3,0.2,0.5,0.4,0.2c2.9-4.5,5.9-8.9,8.9-13.3c21,17,43.5,32.3,66.7,46.1c3.4,2,6.8,4,10.2,6c-11.2,12.6-21.8,25.7-32.1,39.2
		c-8.8-6.6-17.2-13.6-25.3-21.1c-0.2-0.2-0.6,0.1-0.3,0.3c8.1,7.6,16.5,14.6,25.3,21.2c-3.7,4.9-7.4,9.8-11,14.7
		c-0.2,0.2,0.2,0.5,0.4,0.2c3.6-4.9,7.3-9.8,11-14.7c7,5.2,14.1,10.1,21.4,14.8c-2.2,2-4.4,3.9-6.6,5.9c-0.2,0.2,0.1,0.5,0.3,0.3
		c2.2-2,4.4-4,6.6-5.9c6.9,4.4,13.9,8.5,21,12.5c-3.1,3.5-6.2,7.1-9.2,10.6c-0.2,0.2,0.1,0.6,0.3,0.3c3.1-3.6,6.2-7.2,9.3-10.7
		c13.7,7.6,27.8,14.4,42.2,20.7c0.3,0.1,0.5-0.3,0.2-0.4c-14.4-6.3-28.4-13.2-42.1-20.7c21.8-24.8,45.2-48.8,72.6-67
		c0.1,0.1,0.2,0.2,0.3,0.2c1,0.9,2.1,1.8,3.1,2.7c-8.6,12.7-16.8,25.6-24.9,38.6c-0.2,0.3,0.2,0.5,0.4,0.2c8-13,16.3-25.9,24.9-38.5
		c8.8,7.6,18.3,14.5,27.3,21.8c-1.7,2.2-3.4,4.4-5,6.6c-2.4-2.1-4.9-4.3-7.3-6.4c-0.2-0.2-0.6,0.1-0.3,0.3c2.4,2.2,4.9,4.3,7.3,6.5
		c-11.4,15.3-21.9,31.3-31.1,48.1c-0.1,0.3,0.3,0.5,0.4,0.2c9.2-16.8,19.7-32.7,31-48.1c4.5,4,9.1,7.9,13.7,11.8
		c-7,10-14.1,19.9-21.4,29.7c-0.2,0.2,0.2,0.5,0.4,0.2c7.3-9.8,14.3-19.7,21.4-29.7c3.9,3.3,7.9,6.6,11.9,9.8
		c0.2,0.2,0.6-0.1,0.3-0.3c-4.1-3.2-8.1-6.5-12-9.8c1.7-2.5,3.5-4.9,5.2-7.4c8.4,6.7,16.9,13.2,25.5,19.6c-4,5.3-7.9,10.8-11.6,16.4
		c-0.2,0.3,0.2,0.5,0.4,0.2c3.7-5.6,7.6-11,11.6-16.4c2.3,1.7,4.6,3.3,6.9,5c-8.8,11.4-17,23.2-23.5,36.2
		c-8.9-2.4-17.8-4.6-26.8-6.6c-0.3-0.1-0.4,0.4-0.1,0.5c8.9,2,17.8,4.2,26.7,6.6c-0.9,1.9-1.8,3.8-2.6,5.7c-0.1,0.3,0.3,0.5,0.4,0.2
		c0.9-2,1.8-3.9,2.7-5.8c5.3,1.4,10.6,2.9,15.9,4.5c0.3,0.1,0.4-0.4,0.1-0.5c-5.3-1.6-10.5-3-15.8-4.5c6.4-12.9,14.6-24.7,23.4-36.1
		c12.5,9.1,25.3,17.8,38.3,26.1c0.3,0.2,0.5-0.2,0.2-0.4c-13-8.3-25.7-17.1-38.2-26.1c6.8-8.8,13.9-17.4,20.9-26.1
		c9.7,6.7,19.5,13.3,29.5,19.6c-0.8,0.9-1.6,1.8-2.4,2.7c-0.2,0.2,0.1,0.6,0.3,0.3c0.8-0.9,1.7-1.9,2.5-2.8c3.5,2.2,7,4.4,10.6,6.6
		c-8.7,12.8-16.7,26-24.7,39.2c-11.9-2.8-23.7-5.8-35.6-8.5c-0.3-0.1-0.4,0.4-0.1,0.5c11.9,2.7,23.6,5.7,35.5,8.4
		c-2.8,4.6-5.5,9.2-8.3,13.8c0.1,0.1,0.2,0.2,0.4,0.3c2.8-4.7,5.6-9.3,8.4-14c0.5,0.1,1,0.2,1.5,0.3c0.3,0.1,0.4-0.4,0.1-0.5
		c-0.5-0.1-0.9-0.2-1.4-0.3c7.9-13.2,15.9-26.4,24.6-39.1c10.6,6.5,21.4,12.6,32.4,18.5C676.6,610.4,676.8,610,676.6,609.9z
		 M522,307c9.2-9.1,18.3-18.2,27.6-27.3c3.6,7.4,7.6,14.6,11.8,21.7c-9,8.2-17.9,16.5-26.6,25.1C530.3,320.1,526,313.6,522,307z
		 M585.3,495.1c3.1,2.4,6.1,4.9,9.2,7.3c-9.2,11.9-18,24-26.7,36.3c-4.1-3.2-8.2-6.3-12.3-9.6c7.7-9.1,15.5-18,23.4-26.9
		c2.3,1.3,4.6,2.6,6.9,3.8c0.3,0.1,0.5-0.3,0.2-0.4c-2.3-1.2-4.5-2.5-6.8-3.8C581.3,499.6,583.3,497.4,585.3,495.1z M554.1,469.4
		c10.1,8.8,20.5,17.1,30.9,25.4c-2,2.3-4.1,4.5-6.1,6.8c-11.6-6.5-23-13.4-34.1-20.8C547.8,477,550.9,473.2,554.1,469.4z
		 M544.5,481.3c10.5,6.9,21.2,13.5,32.1,19.7c0.6,0.4,1.3,0.7,1.9,1.1c-7.9,8.9-15.7,17.8-23.4,26.9c-9.8-7.7-19.4-15.5-29-23.5
		C532.1,497.2,538.2,489.2,544.5,481.3z M528.7,470.4c5,3.6,10.2,7.2,15.3,10.6c-6.3,7.9-12.3,15.9-18.3,24.1
		c-4.4-3.7-8.7-7.3-13.1-11C518,486.1,523.3,478.2,528.7,470.4z M515.8,460.7c4.1,3.2,8.3,6.3,12.6,9.4c-5.4,7.8-10.7,15.7-16,23.6
		c-1.4-1.2-2.8-2.4-4.2-3.6c-0.2-0.2-0.6,0.1-0.3,0.3c1.4,1.2,2.9,2.4,4.3,3.6c-5.9,8.9-11.6,17.9-17.3,26.9
		c-4.2-4.6-7.9-9.8-10.2-15.5C494.8,490.5,504.9,475.2,515.8,460.7z M490.2,439c-4.7,5.1-9.3,10.4-13.8,15.6
		c4.2-5.6,8.5-11.1,12.9-16.4C489.6,438.5,489.9,438.7,490.2,439z M533.6,388.7c-15.4,15.6-30.4,31.8-44.3,48.8
		c-7.3-6.8-14.3-13.9-21-21.3c-1.2-1.4-2.4-2.7-3.6-4.1c11.8-18.8,25.4-36.4,40-53.2C513.9,369.3,523.5,379.2,533.6,388.7z
		 M476,321.1c8.6,13.1,18.2,25.6,28.5,37.4c-14.7,16.7-28.2,34.4-40,53.2c-14.2-16.4-26.7-34.2-37.3-53.1
		c13.7-16.2,28-31.9,42.9-46.9C471.9,314.8,473.9,318,476,321.1z M446.1,264.6c6.7,16.1,14.6,31.7,23.6,46.7
		c-14.9,15.1-29.2,30.7-42.9,46.9c-1.1-2-2.3-4.1-3.4-6.2c-7.9-14.8-14.6-30.1-20.9-45.5C416.6,292,431.1,278,446.1,264.6z
		 M383.7,336.4c0.2,0.2,0.5-0.1,0.3-0.3c-1.5-1.7-3-3.4-4.5-5.1c7.5-8.2,15-16.2,22.8-24.2c5.6,13.8,11.6,27.5,18.4,40.8
		c1.9,3.7,3.9,7.4,5.9,11c-7.3,8.6-14.4,17.3-21.4,26.1c-0.2,0.2,0.1,0.6,0.3,0.3c6.9-8.8,14-17.5,21.3-26
		c10.4,18.5,22.6,35.9,36.4,52c0.3,0.4,0.6,0.7,1,1.1c-6.4,10.3-12.3,20.9-17.5,31.9c-0.1,0.3,0.3,0.5,0.4,0.2
		c5.2-11,11-21.5,17.4-31.8c7.7,8.9,15.9,17.4,24.5,25.4c-6.1,7.4-11.9,15-17.5,22.7c-4.2,5-8.3,10.1-12.4,15.2
		c-25.6-16.4-49.7-35-71.3-56.4c6-6.3,12.1-12.5,18.1-18.9c7-7.6,14.7-17.4,25.3-19.6c0.3-0.1,0.2-0.5-0.1-0.5
		c-9.5,2-16.7,10.2-23,16.9c-6.8,7.3-13.9,14.4-20.7,21.6c-2.3-2.2-4.5-4.4-6.7-6.7c-12.8-13.3-24.4-27.6-35-42.7
		c10.9-13,22.1-25.8,33.5-38.3C380.7,333,382.2,334.7,383.7,336.4z M460.1,476.4c-0.2-0.1-0.4-0.3-0.6-0.4c2.6-3.2,5.2-6.5,7.8-9.6
		c-2.4,3.4-4.8,6.8-7.1,10.3C460.2,476.5,460.2,476.4,460.1,476.4z M441.7,505.1c-2.1,2.1-4.1,4.2-6.1,6.3c-0.7-0.3-1.3-0.7-2-1
		c8.3-11.6,16.8-23,25.6-34.1c0.2,0.1,0.4,0.3,0.7,0.4c0.1,0.1,0.2,0,0.2,0c-7.8,11.7-15,23.7-21.5,36.1c-0.8-0.4-1.7-0.8-2.5-1.2
		c2-2.1,4-4.1,6-6.2C442.2,505.2,441.9,504.9,441.7,505.1z M435.2,511.7c-3.5,3.7-7,7.3-10.4,11.1c2.8-4,5.6-8,8.5-12
		C433.9,511.1,434.6,511.4,435.2,511.7z M316.5,322.7c-5,5.7-10,11.4-14.9,17.1c-10.1-9.3-20-18.9-29.4-28.8
		c5.7-6.7,11.4-13.4,17.1-20.1C297.7,302,306.8,312.5,316.5,322.7z M289,290.5c-5.8,6.7-11.5,13.4-17.2,20.1
		c-1.3-1.4-2.6-2.7-3.8-4.1c5.8-6.9,11.6-13.8,17.6-20.6C286.7,287.4,287.8,289,289,290.5z M194.4,452.5
		c-4.7-5.8-9.2-11.7-13.5-17.8c8.1-13.9,16.8-27.5,26-40.7c5.2,6.2,10.5,12.3,15.9,18.3C212.9,425.3,203.4,438.7,194.4,452.5z
		 M194.5,453.3c6.1,7.5,12.4,14.7,19,21.7c-1.1,1.7-2.3,3.4-3.4,5c-7.1-6.1-14-12.4-20.7-19C191.1,458.4,192.8,455.9,194.5,453.3z
		 M220.1,320.6c-4.8-4.8-9.6-9.7-14.3-14.6c2.1-2.7,4.2-5.4,6.3-8.1c2.8,7.3,5.8,14.5,9,21.6C220.7,319.9,220.4,320.3,220.1,320.6z
		 M221.2,320c0.5,1.1,1,2.2,1.5,3.3c-0.8-0.7-1.5-1.5-2.3-2.3C220.7,320.6,220.9,320.3,221.2,320z M220.1,321.3
		c0.9,0.9,1.7,1.7,2.6,2.6c0.1,0.1,0.2,0.1,0.3,0c3.7,8,7.7,15.9,12,23.7c-0.7,0.9-1.4,1.9-2.1,2.8c-6.1-7.5-12.1-15.2-17.7-23
		C216.7,325.4,218.4,323.3,220.1,321.3z M235.2,348.1c0.8,1.4,1.5,2.8,2.3,4.2c-0.5,0.7-1.1,1.3-1.6,2c-0.9-1.1-1.8-2.3-2.8-3.4
		C233.8,349.9,234.5,349,235.2,348.1z M232.8,351.2c0.9,1.1,1.8,2.3,2.8,3.4c-9.9,12.6-19.5,25.4-28.7,38.5
		c-0.7-0.9-1.4-1.7-2.1-2.6C213.9,377.3,223.2,364.1,232.8,351.2z M206.6,393.6c-9.2,13.2-17.9,26.8-26,40.7
		c-0.8-1.1-1.6-2.3-2.3-3.4c8.5-13.4,17.3-26.7,26.2-39.9C205.2,391.8,205.9,392.7,206.6,393.6z M207.2,393.6
		c9.1-13.1,18.8-26,28.7-38.5c2.4,3,4.9,5.9,7.4,8.8c0.2,0.2,0.5-0.1,0.3-0.3c-2.5-2.9-5-5.9-7.4-8.9c0.5-0.6,1-1.3,1.5-1.9
		c4.5,8,9.3,15.9,14.3,23.7c-10,11.5-19.6,23.3-28.9,35.5C217.7,405.9,212.4,399.8,207.2,393.6z M235.5,347.6
		c10.4-13.8,21.1-27.4,32.1-40.7c1.3,1.4,2.5,2.7,3.8,4.1c-8,9.5-16,19-23.9,28.7c-3.3,4-6.6,8.1-9.8,12.2
		C237,350.4,236.3,349,235.5,347.6z M271.8,265.4c2.7,4.4,5.6,8.7,8.5,13c-5.2,4.9-10.5,9.8-15.8,14.6c-0.2,0.2,0.1,0.5,0.3,0.3
		c5.3-4.8,10.5-9.7,15.7-14.5c1.6,2.3,3.1,4.5,4.7,6.8c-6,6.8-11.9,13.7-17.6,20.7c-5.8-6.3-11.5-12.8-16.9-19.5
		C257.6,279.4,264.6,272.3,271.8,265.4z M267.3,306.6c-11,13.3-21.7,26.8-32,40.6c-2.8-5.1-5.4-10.2-8-15.3c-2-4.1-3.9-8.2-5.8-12.3
		c9.3-11.1,18.9-22,28.8-32.5C255.7,293.8,261.4,300.3,267.3,306.6z M187.7,284.5c0.5,1,1,2,1.6,2.9c-0.1,0.1-0.1,0.1-0.2,0.2
		c-6.8-7.9-13.2-16-19.2-24.5c3.2-4.6,6.5-9.2,10.1-13.6c0.2-0.2-0.1-0.6-0.3-0.3c-3.5,4.4-6.9,8.9-10.1,13.5
		c-2.1-2.9-4.1-5.9-6-8.8c12.5-17.3,26.8-33.1,40.2-49.7c1.6,10.6,7,20.7,12.1,30c2.2,4,4.4,7.9,6.7,11.9
		c-11.4,13.3-22.3,27-32.9,40.9c-0.5-0.9-1-1.8-1.5-2.8C188,284,187.6,284.3,187.7,284.5z M189.8,287.5c10.6-14,21.6-27.6,32.9-40.9
		c5.3,9.2,10.9,18.2,17.1,26.8c3.3,4.5,6.7,9,10.2,13.3c-9.9,10.5-19.5,21.3-28.7,32.4c-3.2-7.1-6.2-14.4-9-21.7
		c3-3.9,5.9-7.8,8.8-11.7c0.2-0.2-0.2-0.5-0.4-0.2c-2.8,3.8-5.7,7.6-8.6,11.4c-1-2.5-1.9-5.1-2.8-7.6c-0.1-0.3-0.6-0.2-0.5,0.1
		c0.9,2.7,1.9,5.3,2.9,7.9c-2.1,2.8-4.3,5.5-6.4,8.3c-4.8-5.1-9.6-10.3-14.2-15.6C190.7,289.3,190.3,288.4,189.8,287.5z
		 M192.3,292.1c4.2,4.8,8.5,9.4,12.8,14c-0.8,1.1-1.7,2.2-2.5,3.2C199,303.6,195.5,297.9,192.3,292.1z M202.9,309.7
		c0.9-1.1,1.7-2.2,2.6-3.3c4.7,5,9.5,9.8,14.3,14.6c-1.7,2-3.3,4.1-5,6.1C210.7,321.4,206.7,315.6,202.9,309.7z M213.5,329.3
		c0.4-0.5,0.8-1,1.2-1.5c5.7,7.8,11.6,15.5,17.8,23c-9.6,12.9-18.9,26-28,39.3c-6.4-7.9-12.6-16-18.5-24.3
		C194.8,353.4,204,341.2,213.5,329.3z M171,441.5c-6.4-7.3-12.5-15-18.3-22.9c10-18,21.1-35.5,33-52.4c5.9,8.3,12.1,16.4,18.5,24.3
		c-9,13.1-17.7,26.4-26.2,39.8c-2.3-3.3-4.6-6.7-6.7-10.1c-0.2-0.3-0.6,0-0.4,0.2c2.2,3.5,4.5,6.9,6.9,10.3
		C175.5,434.4,173.3,437.9,171,441.5z M174.4,445.3c-1-1.1-2-2.3-3-3.5c2.2-3.5,4.4-7.1,6.7-10.6c0.8,1.1,1.6,2.3,2.4,3.4
		C178.3,438.2,176.3,441.7,174.4,445.3z M174.7,445.7c1.9-3.6,3.9-7.1,6-10.6c4.3,6.1,8.8,12,13.5,17.8c-1.7,2.6-3.4,5.2-5,7.8
		C184.2,455.8,179.4,450.8,174.7,445.7z M181.8,525c-3.7-3.6-7.3-7.2-10.8-11c4.9-6.3,10-12.4,15.2-18.5c0.2-0.2-0.1-0.6-0.3-0.3
		c-5.2,6.1-10.3,12.2-15.2,18.5c-2.5-2.7-4.9-5.4-7.3-8.1c8-15,16.6-29.7,25.8-44.1c6.7,6.6,13.6,12.9,20.7,18.9
		C200.2,495,190.8,509.9,181.8,525z M204.7,545c-7.8-6.2-15.3-12.8-22.5-19.7c8.9-15.1,18.3-30,28.1-44.6
		c7.3,6.2,14.8,12.2,22.5,17.9C222.9,513.7,213.5,529.2,204.7,545z M233,498.2c-7.7-5.7-15.2-11.7-22.5-17.9c1.1-1.7,2.2-3.3,3.3-5
		c6.7,7,13.7,13.8,20.9,20.2C234.2,496.4,233.6,497.3,233,498.2z M235,495.1c-7.2-6.5-14.2-13.2-20.9-20.2
		c5.5-8.2,11.1-16.4,16.8-24.5c6.7,7,13.9,13.7,21.2,20C246.3,478.6,240.6,486.8,235,495.1z M252.4,470.1
		c-7.4-6.4-14.5-13-21.2-20.1c7-9.9,14-19.7,21.2-29.5c0.2-0.2-0.2-0.5-0.4-0.2c-7.1,9.7-14.1,19.5-21.1,29.4
		c-1.8-1.9-3.6-3.8-5.4-5.7c-0.2-0.2-0.5,0.1-0.3,0.3c1.8,2,3.6,3.9,5.4,5.8c-5.7,8.1-11.3,16.2-16.8,24.5c-6.6-7-13-14.2-19-21.7
		c9-13.8,18.5-27.2,28.4-40.3c4.4,4.8,8.8,9.6,13.2,14.2c0.2,0.2,0.5-0.1,0.3-0.3c-4.5-4.7-8.9-9.5-13.3-14.3
		c9.2-12.1,18.9-23.9,28.8-35.4c10.8,16.8,22.8,32.8,35.6,48C275.5,439.5,263.7,454.6,252.4,470.1z M288.2,424.5
		c-12.9-15.2-24.9-31.2-35.6-48c11.5-13.2,23.5-26,36-38.2c0.2-0.2-0.1-0.5-0.3-0.3c-12.4,12.2-24.4,25-35.9,38.2
		c-5-7.8-9.7-15.7-14.2-23.8c3.3-4.1,6.6-8.2,9.9-12.3c7.9-9.6,15.8-19.2,23.9-28.7c9.5,9.9,19.4,19.5,29.5,28.8
		c-1.9,2.2-3.7,4.3-5.6,6.5c-0.2,0.2,0.1,0.6,0.3,0.3c1.9-2.2,3.7-4.3,5.6-6.5c0.3,0.3,0.6,0.6,1,0.9c0.2,0.2,0.6-0.1,0.3-0.3
		c-0.3-0.3-0.7-0.6-1-0.9c4.9-5.7,9.9-11.4,14.9-17.1c8.4,8.9,17.2,17.5,26.3,25.8c0.2,0.2,0.6-0.1,0.3-0.3
		c-9.1-8.3-17.9-16.9-26.3-25.8c9.4-10.6,19-21,28.8-31.1c10.4,13.6,21.6,26.5,32.9,39.4c-11.4,12.5-22.5,25.3-33.4,38.2
		c-0.7-1-1.3-1.9-2-2.9c3.7-3.6,7.5-7.1,11.2-10.6c0.2-0.2-0.1-0.5-0.3-0.3c-3.8,3.5-7.5,7-11.2,10.6c-8.3-12.2-15.9-24.9-22.8-38
		c-0.1-0.3-0.5,0-0.4,0.2c6.9,13.1,14.5,25.8,22.9,38C323.6,384.7,305.4,404.2,288.2,424.5z M295,432.2c-2.2-2.4-4.4-4.9-6.5-7.4
		c17.2-20.3,35.4-39.8,54.6-58.2c0.7,1,1.4,1.9,2,2.9C327.9,390,311.3,411,295,432.2z M341.8,476.7c-5.9-4.8-11.7-9.6-17.3-14.7
		c-10.2-9.2-19.9-19.1-29.2-29.4c16.3-21.2,32.9-42.2,50.1-62.6c10.3,14.7,21.6,28.6,33.9,41.6c2.5,2.7,5.1,5.2,7.7,7.8
		c-1.9,2-3.8,4.1-5.7,6.2C367,441.7,353.9,458.9,341.8,476.7z M342.1,477c11.8-17.3,24.6-34,38.4-49.8c2.2-2.5,4.5-5,6.8-7.4
		c21.6,21.4,45.8,40,71.4,56.4c-8.8,11.1-17.4,22.5-25.6,34.1c-13.3-6.3-26.7-12.3-39.8-18.9c-0.3-0.1-0.5,0.3-0.2,0.4
		c13.1,6.5,26.5,12.6,39.8,18.8c-3.5,4.9-7,9.9-10.5,14.9c-1.1,1.2-2.1,2.4-3.2,3.6C392.3,513.6,366.3,496.5,342.1,477z
		 M408.7,583.8c-7.3-4.7-14.5-9.6-21.5-14.8c10.2-13.4,20.9-26.5,32.1-39.2c0,0,0.1,0.1,0.1,0.1c-2.6,3.8-5.2,7.7-7.7,11.5
		c-0.2,0.3,0.2,0.5,0.4,0.2c2.5-3.9,5.1-7.7,7.7-11.5c9.6,5.5,19.2,10.8,28.9,15.9C435.5,558.7,422.3,571.4,408.7,583.8z M430,596.4
		c-7.1-3.9-14.1-8.1-20.9-12.4c13.6-12.3,26.8-25.1,40.1-37.8c1.5,0.8,2.9,1.6,4.4,2.3c0.3,0.1,0.5-0.3,0.2-0.4
		c-1.4-0.7-2.8-1.5-4.3-2.3c4.5-4.3,9.1-8.7,13.7-13c0.2-0.2-0.1-0.5-0.3-0.3c-4.6,4.3-9.2,8.7-13.8,13.1c-9.8-5.2-19.4-10.5-29-16
		c0.9-1.3,1.8-2.5,2.6-3.8c4.2-4.7,8.6-9.3,12.9-13.9c0.9,0.4,1.7,0.8,2.6,1.3c-1.8,3.5-3.7,7.1-5.4,10.6c-0.1,0.3,0.3,0.5,0.4,0.2
		c1.7-3.6,3.6-7.1,5.4-10.7c2.2,1.1,4.5,2.2,6.7,3.3c0.3,0.1,0.5-0.3,0.2-0.4c-2.2-1.1-4.5-2.2-6.8-3.3
		c9.6-18.2,20.6-35.5,32.8-52.1c6.1-7.3,12.4-14.5,18.8-21.6c8,7.4,16.3,14.4,24.8,21.1c-10.8,14.5-20.8,29.6-31,44.6
		c-0.4-1.1-0.8-2.3-1.2-3.5c-0.1-0.3-0.5-0.2-0.5,0.1c0.4,1.3,0.8,2.6,1.3,3.9c-6.9,10.1-13.9,20.1-21.2,29.7
		c-0.2,0.2,0.2,0.5,0.4,0.2c7.3-9.5,14.2-19.4,21-29.4c2.4,5.7,6.1,10.8,10.3,15.4c-5.2,8.3-10.4,16.6-15.5,25
		c-0.2,0.3,0.2,0.5,0.4,0.2c5.1-8.3,10.2-16.6,15.4-24.9c2.5,2.7,5.2,5.2,7.8,7.7C475.2,547.6,451.8,571.7,430,596.4z M503.1,529.1
		c-2.8-2.4-5.5-5-8-7.8c5.7-9,11.5-18,17.4-26.9c4.3,3.7,8.7,7.4,13.1,11c-4.2,5.8-8.3,11.6-12.4,17.4
		C509.7,524.9,506.4,527,503.1,529.1z M506.7,532.3c-1.1-0.9-2.2-1.9-3.3-2.8c3-2,6-3.9,9.1-5.7
		C510.6,526.6,508.6,529.4,506.7,532.3z M507.1,532.6c2.1-3.1,4.2-6.3,6.4-9.4c4.7-2.8,9.6-5.4,14.6-7.7c0.3-0.1,0-0.5-0.2-0.4
		c-4.7,2.2-9.2,4.7-13.7,7.2c3.9-5.6,7.8-11.1,11.8-16.5c9.5,8,19.2,15.8,28.9,23.5c-7,8.3-13.8,16.7-20.4,25.2
		C525.3,547.2,516,540.1,507.1,532.6z M543.2,573.6c-4.6-3.9-9.2-7.8-13.7-11.8c1.7-2.2,3.3-4.5,5-6.7c4.6,3.8,9.2,7.5,13.8,11.1
		C546.7,568.7,544.9,571.2,543.2,573.6z M548.7,565.9c-3.7-3-7.5-5.9-11.2-9c-0.9-0.7-1.8-1.4-2.7-2.1c6.6-8.6,13.4-17,20.4-25.2
		c4.1,3.2,8.2,6.4,12.3,9.6C561.2,548,554.9,556.9,548.7,565.9z M574.6,585.7c-8.6-6.4-17.1-12.9-25.6-19.6
		c6.3-8.9,12.5-17.9,18.9-26.8c9.2,7,18.4,13.9,27.8,20.5C588.4,568.3,581.3,576.8,574.6,585.7z M581.8,591c-2.3-1.7-4.6-3.3-6.9-5
		c6.7-8.8,13.8-17.4,21.1-25.8c2.2,1.6,4.4,3.1,6.6,4.7C595.8,573.6,588.6,582.2,581.8,591z"/>
	<path fill="#536E51" d="M608,395.3c-13.4-11-26.4-22.7-38.7-34.9c-0.2-0.2-0.5,0.1-0.3,0.3c12.3,12.3,25.2,23.9,38.7,34.9
		C607.9,395.8,608.2,395.5,608,395.3z"/>
	<path fill="#536E51" d="M675.4,244.5c0-0.3-0.5-0.3-0.5,0c2.6,29.8,8.8,59.2,13.7,88.7c0.1,0.3,0.5,0.2,0.5-0.1
		C684.2,303.6,678,274.3,675.4,244.5z"/>
	<path fill="#536E51" d="M687.9,202.1c0-0.3-0.5-0.3-0.5,0c2.6,28.6,8.6,56.7,13.7,84.9c0.1,0.3,0.5,0.2,0.5-0.1
		C696.5,258.7,690.5,230.6,687.9,202.1z"/>
	<path fill="#536E51" d="M137.2,264.3c-7.6,11.4-14.9,22.9-18.7,36.2c-0.1,0.3,0.4,0.4,0.4,0.1c3.8-13.3,11.1-24.7,18.7-36.1
		C137.7,264.3,137.3,264.1,137.2,264.3z"/>
	<path fill="#536E51" d="M157.1,266.8c-8.7,12.5-17.5,25-26.2,37.4c-0.2,0.2,0.2,0.5,0.4,0.2c8.7-12.5,17.5-25,26.2-37.4
		C157.7,266.8,157.3,266.6,157.1,266.8z"/>
	<path fill="#536E51" d="M301.9,199.4c-3.9,5.2-7.9,10.3-12.4,14.9c-0.2,0.2,0.1,0.5,0.3,0.3c4.6-4.7,8.6-9.8,12.5-15
		C302.5,199.4,302.1,199.2,301.9,199.4z"/>
	<path fill="#536E51" d="M332.2,587.4c-10.4-7.8-20.8-15.9-31.2-23.7c-0.2-0.2-0.5,0.2-0.2,0.4c10.4,7.8,20.8,15.9,31.2,23.7
		C332.2,588,332.4,587.6,332.2,587.4z"/>
	<path fill="#536E51" d="M350.9,632.4c-4-1.8-7.8-3.8-11.6-5.8c1.7,0.8,3.4,1.7,5.2,2.5c0.3,0.1,0.5-0.3,0.2-0.4
		c-5.2-2.4-10.2-5-15.2-7.8c-3.3-2-6.5-4-9.7-6c-0.2-0.1-0.4,0.1-0.3,0.2c-7.5-4.4-14.9-9.1-22.1-14c-0.3-0.2-0.5,0.2-0.2,0.4
		c10.5,7,21.2,13.7,32.2,19.7c7,4.2,14,8.1,21.5,11.5C350.9,632.9,351.1,632.5,350.9,632.4z"/>
	<path fill="#536E51" d="M342.1,542.5c-8.3-4.2-16.4-8.8-25-12.5c-0.3-0.1-0.5,0.3-0.2,0.4c8.5,3.7,16.6,8.3,25,12.5
		C342.2,543,342.4,542.6,342.1,542.5z"/>
	<path fill="#536E51" d="M409.5,533.8c-14.8-6.2-29.3-12.8-43.6-19.9c-0.3-0.1-0.5,0.3-0.2,0.4c14.4,7.2,28.9,13.8,43.7,20
		C409.6,534.3,409.7,533.9,409.5,533.8z"/>
	<path fill="#536E51" d="M401.3,642c-4-2.5-7.9-5.1-11.7-8c-0.2-0.2-0.5,0.2-0.2,0.4c3.8,2.8,7.7,5.4,11.7,8
		C401.3,642.6,401.5,642.2,401.3,642z"/>
	<path fill="#536E51" d="M441,644.3c-13.2-5.3-25.3-12.7-37.4-20.1c-0.3-0.2-0.5,0.2-0.2,0.4c12.1,7.4,24.3,14.8,37.5,20.1
		C441.1,644.9,441.2,644.4,441,644.3z"/>
	<path fill="#536E51" d="M481.7,638.7c-10.1-3.9-19.7-8.9-29-14.5c-0.3-0.2-0.5,0.3-0.2,0.4c9.3,5.6,18.9,10.6,29.1,14.5
		C481.8,639.3,482,638.8,481.7,638.7z"/>
	<path fill="#536E51" d="M505.1,638.3c-14.5-4.7-28.5-10.8-42.1-17.8c-0.3-0.1-0.5,0.3-0.2,0.4c13.6,7,27.6,13.1,42.2,17.8
		C505.2,638.8,505.4,638.3,505.1,638.3z"/>
	<path fill="#536E51" d="M536.9,638.3c-21.5-5.7-43.3-11.7-62.2-23.8c-0.3-0.2-0.5,0.2-0.2,0.4c19,12.1,40.8,18.1,62.3,23.9
		C537.1,638.8,537.2,638.3,536.9,638.3z"/>
	<path fill="#536E51" d="M546.7,634.5c-18.8-5.7-37.5-11.8-55.6-19.6c-0.3-0.1-0.5,0.3-0.2,0.4c18.1,7.8,36.9,14,55.7,19.7
		C546.9,635,547,634.6,546.7,634.5z"/>
	<path fill="#536E51" d="M603.8,630.8c-12-3.2-24-6.1-36-8.9c-0.3-0.1-0.4,0.4-0.1,0.5c12.1,2.8,24.1,5.7,36,8.9
		C604,631.3,604.1,630.8,603.8,630.8z"/>
</g>
<g>
	<path fill="none" stroke="#000000" stroke-width="6.5511" stroke-miterlimit="10" d="M108.7,169.6c-11.2,7.5-0.8,56.4,1.2,100.1
		c2.3,51.2-2.5,102.1-1.2,153.2c1,41.2-0.3,80.5,0.6,121.7c0.5,20.8-3,69,8,87.7c13.7,23.2,50.9,10.3,76.2,9.6
		c55.5-1.4,105.7,5.4,161.3,5.6c102.7,0.3,206.7,4.5,308.9-5.3c20.4-2,68.2,5.8,79.9-13.3c7.7-12.6,3.4-113.8,2.8-143.3
		c-2.1-94.7-6.6-189.5,3.3-283.9c3.7-35.6,1.3-34.2-34.5-37.1c-67.7-5.4-126.8-0.6-203.5-0.6c-123.1,0-227.7-8.3-341.9-5.6
		C147.1,158.9,120.5,160.9,108.7,169.6"/>
	<path fill="none" stroke="#000000" stroke-width="6.5511" stroke-miterlimit="10" d="M434.4,149c104.2,2.5,190.3-1.3,243.9-1.9
		c21.9-0.3,67.6-0.4,83.6,18.1c8.8,10.1,1.2,28.7,1.2,41.2c0,21.8-1.7,38.2-2.5,60.1c-3.7,99.7,0.6,209.7,2.5,314.3
		c0.5,30,2.6,69.3-36.3,74.7c-46,6.4-93.9,1.8-140.3,4.7c-119.2,7.3-241.9,0.5-361.2-2.6c-28.4-0.7-54.8,5.9-83.2,4.4
		c-26.1-1.4-37.2-8-42.2-34.8c-9.8-51.7-4-104.5-5-157.4c-1.2-64.3-1.6-118.5-1.9-175.9c-0.2-36.4-15.6-128.5,9.4-139.8
		C127.4,142.8,348.3,144,434.4,149"/>
	<path fill="none" stroke="#F1F2F2" stroke-width="4.4948" stroke-miterlimit="10" d="M296.8,428.9c-30.3-4.6-85.6-86.8-49.2-107.8
		c24.8-14.3,59.7,12.7,77.6-18.7c14.4-25.3-8-55.8,2.3-81"/>
	<path fill="none" stroke="#F1F2F2" stroke-width="4.4948" stroke-miterlimit="10" d="M307.3,233.3c0.4-4.5,18-30.7,25.5-32.2
		c3.7-0.8,7.9,26.2,12,32.2"/>
	<path fill="none" stroke="#F1F2F2" stroke-width="4.4948" stroke-miterlimit="10" d="M282.6,453.6c14.9,13.9,35.3,21.4,50.9,33.7"
		/>
	<path fill="none" stroke="#F1F2F2" stroke-width="4.4948" stroke-miterlimit="10" d="M314.8,451.3c-13.2,13.3-18.9,32.6-31.5,46.4"
		/>
	<path fill="none" stroke="#F1F2F2" stroke-width="4.4948" stroke-miterlimit="10" d="M408.4,446.8c-36.7-22.5-36.8,42.8-4.7,35.1
		c30.2-7.2,22.2-52.3-3.6-41.9"/>
	<path fill="none" stroke="#F1F2F2" stroke-width="4.4948" stroke-miterlimit="10" d="M437.6,446.1c12.5,12.5,27,29.2,40.5,38.2"/>
	<path fill="none" stroke="#F1F2F2" stroke-width="4.4948" stroke-miterlimit="10" d="M468.4,447.6c-8.9,12.1-17.3,25.6-27,37.5"/>
	<path fill="none" stroke="#F1F2F2" stroke-width="4.4948" stroke-miterlimit="10" d="M494.6,446.8c6.5,16.9,31,31.1,46.4,41.9"/>
	<path fill="none" stroke="#F1F2F2" stroke-width="4.4948" stroke-miterlimit="10" d="M526,455.1c-8.8,10.7-16.4,23.2-21.7,36"/>
	<path fill="none" stroke="#F1F2F2" stroke-width="4.4948" stroke-miterlimit="10" d="M388.5,363.3c23.8-0.9,118.8,0.5,141.3-9.4"/>
	<path fill="none" stroke="#F1F2F2" stroke-width="4.4948" stroke-miterlimit="10" d="M337.3,356.9c12.2,5.9,23.3,6.2,36.6,6.1"/>
	<path fill="none" stroke="#F1F2F2" stroke-width="4.4948" stroke-miterlimit="10" d="M478.1,299.3c3.9,12.4,7.1,27.3,12.7,39"/>
	<path fill="none" stroke="#F1F2F2" stroke-width="4.4948" stroke-miterlimit="10" d="M490.1,336.7c2.5-7.1,13-14.6,21-18.7"/>
	<path fill="none" stroke="#F1F2F2" stroke-width="4.4948" stroke-miterlimit="10" d="M489.3,331.5c0.1-28.9,6.8-52.2,39.9-58.5
		c54.7-10.4,91.9,64.2,101,106.6c13,60.7-2.8,125.9-59.2,159.2c-21.5,12.7-55.2,24.6-78.6,10.5c-16.3-9.9-21.1-21.6-25.6-40.3"/>
	<path fill="none" stroke="#F1F2F2" stroke-width="4.4948" stroke-miterlimit="10" d="M168.7,483.5c-0.3,22.8,2.2,58.1,2.2,80.9"/>
	<path fill="none" stroke="#F1F2F2" stroke-width="4.4948" stroke-miterlimit="10" d="M156,497c0.6-9.5,3.2-21.8,8.2-29.3
		c9.5,6.9,12.2,22.1,21,30"/>
	<path fill="none" stroke="#F1F2F2" stroke-width="4.4948" stroke-miterlimit="10" d="M171.7,558.5c-19.8-7.7-27.3,30.9-5.3,32.1
		c23.2,1.3,26.5-36.2,0.8-38.1"/>
	<path fill="none" stroke="#F1F2F2" stroke-width="4.1468" stroke-miterlimit="10" d="M668.4,535.8c-0.2,9.2-0.5,18.3-0.6,27.5"/>
	<path fill="none" stroke="#F1F2F2" stroke-width="4.1468" stroke-miterlimit="10" d="M669.3,508.4c-0.2,6.3-0.4,12.5-0.6,18.8"/>
	<path fill="none" stroke="#F1F2F2" stroke-width="4.1468" stroke-miterlimit="10" d="M670.5,470.8c-0.3,9.2-0.6,18.3-0.9,27.5"/>
	<path fill="none" stroke="#F1F2F2" stroke-width="4.1468" stroke-miterlimit="10" d="M671.5,431.7c-0.2,9.6-0.4,19.3-0.7,28.9"/>
	<path fill="none" stroke="#F1F2F2" stroke-width="4.1468" stroke-miterlimit="10" d="M671.9,407.1c0,4.8-0.1,9.6-0.2,14.5"/>
	<path fill="none" stroke="#F1F2F2" stroke-width="4.1468" stroke-miterlimit="10" d="M671.7,376.8c0.1,6.7,0.1,13.5,0.1,20.2"/>
	<path fill="none" stroke="#F1F2F2" stroke-width="4.1468" stroke-miterlimit="10" d="M670.9,346.4c0.3,6.7,0.5,13.5,0.7,20.2"/>
	<path fill="none" stroke="#F1F2F2" stroke-width="4.1468" stroke-miterlimit="10" d="M669.1,316.2c0.5,7.2,1,14.4,1.4,21.6"/>
	<path fill="none" stroke="#F1F2F2" stroke-width="4.1468" stroke-miterlimit="10" d="M667.2,278.6c0.5,9.6,1,19.3,1.5,28.9"/>
	<path fill="none" stroke="#F1F2F2" stroke-width="4.1468" stroke-miterlimit="10" d="M665.5,245.4c0.4,7.2,0.8,14.4,1.1,21.6"/>
	<path fill="none" stroke="#F1F2F2" stroke-width="4.1468" stroke-miterlimit="10" d="M664.4,213.6c0.7,9,0.3,14.2,0.5,20.6"/>
	<path fill="none" stroke="#F1F2F2" stroke-width="4.1468" stroke-miterlimit="10" d="M667.1,583.3c-25.2-3.7-11.1,46.1,9.7,27
		c11.2-10.4,0.3-21.9-9.7-26.3"/>
	<path fill="none" stroke="#F1F2F2" stroke-width="4.1468" stroke-miterlimit="10" d="M654,220.5c2.5-7.5,4.6-16.4,8.1-22.8
		c5.9,8.8,12.6,15.1,14.7,25.5"/>
	<path fill="none" stroke="#F1F2F2" stroke-width="4.5354" stroke-miterlimit="10" d="M124.3,208.8c9.4,14.6,18,30.4,25.7,46.1"/>
	<path fill="none" stroke="#F1F2F2" stroke-width="4.5354" stroke-miterlimit="10" d="M145.4,202.8c9,16,17,32.7,26.5,48.4"/>
	<path fill="none" stroke="#F1F2F2" stroke-width="4.5354" stroke-miterlimit="10" d="M160.6,199c3.2,17,16.6,31.3,24.9,46.1"/>
	<path fill="none" stroke="#F1F2F2" stroke-width="4.5354" stroke-miterlimit="10" d="M176.4,196c5.7,14.3,15.2,26.7,22.7,40.1"/>
	<path fill="none" stroke="#F1F2F2" stroke-width="4.5354" stroke-miterlimit="10" d="M187,198.3c-24.6,12.8-41.4,37-61.2,55.2"/>
	<path fill="none" stroke="#F1F2F2" stroke-width="4.5354" stroke-miterlimit="10" d="M211.1,202c4,8.9,8.6,17.6,12.9,26.5"/>
	<path fill="none" stroke="#F1F2F2" stroke-width="4.5354" stroke-miterlimit="10" d="M227.8,191.4c5.5,9.7,10.3,20.5,14.4,31"/>
	<path fill="none" stroke="#F1F2F2" stroke-width="4.4948" stroke-miterlimit="10" d="M402.4,425.1c-0.4-4.1,1-19.4-1.5-27
		c-2.5-7.6-10.7-11.1-14.6-19.7c-7.2-16.1-20.2-55.7,12.9-43.6c-2.2-20.3-1-41.5-1.3-62.4"/>
	<path fill="none" stroke="#F1F2F2" stroke-width="4.4948" stroke-miterlimit="10" d="M380.7,276.8c0.2-1.6,12.7-9.7,17.2-15.7
		c6.7,6,11.6,8.8,15.4,16.9"/>
	<path fill="none" stroke="#F1F2F2" stroke-width="4.4948" stroke-miterlimit="10" d="M205.1,596c-4.8-2-9.3-4.8-13.2-8.3"/>
	<path fill="none" stroke="#F1F2F2" stroke-width="4.4948" stroke-miterlimit="10" d="M231.4,600.7c-5.7,0.1-11.4-0.5-17-1.7"/>
	<path fill="none" stroke="#F1F2F2" stroke-width="4.4948" stroke-miterlimit="10" d="M259.5,596c-5.9,1.8-12,3.2-18.2,3.9"/>
	<path fill="none" stroke="#F1F2F2" stroke-width="4.4948" stroke-miterlimit="10" d="M281.9,586c-3.9,2.4-8.1,4.6-12.3,6.4"/>
	<path fill="none" stroke="#F1F2F2" stroke-width="4.4948" stroke-miterlimit="10" d="M298.7,572.1c-2.7,2.9-5.5,5.6-8.6,8.1"/>
	<path fill="none" stroke="#F1F2F2" stroke-width="4.4948" stroke-miterlimit="10" d="M311.8,551.7c-1.8,4.3-4,8.4-6.6,12.2"/>
	<path fill="none" stroke="#F1F2F2" stroke-width="4.4948" stroke-miterlimit="10" d="M317.1,531.3c-0.4,3.7-1.1,7.4-2,10.9"/>
	<path fill="none" stroke="#F1F2F2" stroke-width="4.4948" stroke-miterlimit="10" d="M316.3,510.5c0.7,3.7,1,7.4,1.1,11.1"/>
	<path fill="none" stroke="#F1F2F2" stroke-width="4.4948" stroke-miterlimit="10" d="M311,493.3c1.1,2.5,2.1,5.1,3,7.8"/>
	<path fill="none" stroke="#F1F2F2" stroke-width="4.4948" stroke-miterlimit="10" d="M285.2,346.2c15.4-18.1,42.9,19.5,28.1,36.8
		c-32.6,38.3-63.6-55.5-13.1-34.9"/>
</g>
<g id="Layer_3">
	
		<path fill="none" stroke="#66BC46" stroke-width="140" stroke-linecap="round" stroke-linejoin="round" stroke-miterlimit="10" stroke-opacity="0" d="
		M79.1,256.1c159-114,228-142.5,288-127.5c19,75-293,193-288,300c6,102,484.5-404,490.5-276c62.1,78.2-511,370.5-465,460.5
		c-5,127,640.5-540,652.5-450c114,179-475,369-486,483c-44.7,177.3,495-332.5,489-214.5c57,117-42,171-256.5,238.5"/>
</g>
</svg>
