<?xml version="1.0" encoding="utf-8"?>
<!-- Generator: Adobe Illustrator 23.0.3, SVG Export Plug-In . SVG Version: 6.00 Build 0)  -->
<svg version="1.1" id="Layer_1" xmlns="http://www.w3.org/2000/svg" xmlns:xlink="http://www.w3.org/1999/xlink" x="0px" y="0px"
	 width="800px" height="800px" viewBox="0 0 800 800" enable-background="new 0 0 800 800" xml:space="preserve">
<g>
	<path fill="#B63535" d="M345,430.1c-0.3-0.1-0.7-0.1-1,0c-1.2-1.5-2.4-3-4.1-3.8c-1.7-0.8-3.7-0.6-4.9,0.8c-0.1,0-0.1-0.1-0.2-0.1
		c-4.9-2-10.2-3.5-14.1-7.3c-2.4-2.3-5.7-0.6-6.5,1.8c-0.7-0.1-1.4-0.3-2-0.4c-0.8-2.7-3.9-2.7-5.9-1.2c-0.9-0.2-1.9-0.4-2.8-0.6
		c-0.9-0.2-1.6-0.1-2.3,0.1c-1.7-0.3-3.4-0.4-5.1-0.5c-0.6-7.4-2-14.6-3.4-21.9c-2.2-11.3-2.8-22.9-3.7-34.4
		c-1.3-16.4-5.1-33-6.2-49.5c1.1-0.5,1.8-1.6,1.6-3.3c-0.9-7.3-2-14.6-3-21.9c-0.6-4.5-1.7-9.5-2.3-14.4c0.5-0.4,0.8-1,0.9-1.7
		c0.4-2.5,0.6-5.1-0.3-7.5c-0.2-0.6-0.5-1.1-0.9-1.5c-0.7-3.4-6.2-3.3-7.4,0.2c-0.1,0-0.1,0-0.2,0c-9.2,1-18.1,3.1-26.9,5.5
		c-0.6-0.1-1.2-0.1-1.8,0.1c-16.4,4.9-33.3,8-50,12c-2,0.5-4,1-6,1.6c-13.2,2.3-26.1,5.3-38.4,10.9c-0.4,0.2-0.7,0.4-1,0.6
		c-9.6,2.5-19.1,5.2-28.8,7.6c-1-0.6-2.4-0.8-3.8-0.1c-1.4,0.7-2.9,1.4-4.4,2c-12.7,2.7-25.6,4.4-37.9,8.9c-2.9,1.1-3.3,4.1-2,6
		c0.2,0.6,0.5,1.1,0.9,1.5c1.6,8.1,1.7,16.6,3,24.8c1,6.1,2,12.2,3.3,18.3c1.2,8.1,2.8,16.2,3.9,24.3c0.4,8.4,2.4,16.5,4.3,24.6
		c0.4,4.3,0.9,8.6,1.6,12.9c0,0.2,0.1,0.4,0.1,0.5c1.4,12.2,3.6,24.3,5.2,36.5c0,0.3,0.1,0.5,0.2,0.8c-1.5,10.8,3.4,21.6,5.1,32.1
		c0,0,0,0,0,0c-3.1,1.6-2.5,7.3,1.8,7.3c19.4-0.1,39-7.3,57.8-11.8c21.3-5.1,43.6-7.7,64.4-14.8c1.8-0.6,2.6-2,2.7-3.5
		c0.8,0.2,1.6,0.3,2.4,0.4c1.3,0.2,2.3-0.3,2.9-1.1c3.2,0.5,6.2,1.2,9.7,0.9c5.5-0.5,10.9-0.7,16.4,0.6c0.4,1,1.2,1.8,2.6,2
		c6.8,1.1,13.5,1.9,20.4,1c1.1-0.2,1.9-0.7,2.3-1.4c0.1,0,0.2-0.1,0.3-0.1c0.3,0,0.6-0.1,0.9-0.1c0.4-0.1,0.8-0.2,1.1-0.4
		c0.6-0.2,1.2-0.4,1.8-0.6c0.1,0,0.2-0.1,0.3-0.2c5,0.3,9.8,0.7,14.6-0.2c3.9-0.1,7.9-1.2,11.5-2.5c1.8-0.6,2.6-2.1,2.6-3.6
		c1-0.3,2.1-0.7,3.2-1.1c3.7-0.1,7.1-1.5,10.3-3.4c0.2,0,0.4,0,0.6-0.1c5.9-1.6,11.8-4.2,15.5-9.2c0.5-0.7,0.7-1.4,0.7-2
		c0,0,0,0,0-0.1c0.5-0.3,0.9-0.8,1.2-1.4c0-0.1,0.1-0.2,0.1-0.3c1.5-1.7,2.7-3.7,3.5-5.8c0.3-0.9,0.3-1.7,0-2.4
		c0.5-0.6,0.8-1.4,0.8-2.5c0-1.3-0.1-2.8,0.2-4.1C351.6,430.9,347.5,428.8,345,430.1z M162.8,481.2c-18.2,4.2-37.5,11.4-56.4,12.9
		c0-0.3,0-0.7,0-1c-0.2-0.9-0.3-1.8-0.5-2.7c0.2-0.6,0.3-1.3,0.2-2.1c-1.6-10.7-3.8-21.3-3.7-32.2c0-2.3-1.6-3.5-3.3-3.7
		c-1.1-7.3-2.2-14.5-3.2-21.8c0.5-0.6,0.8-1.5,0.7-2.6c-0.6-5.6-1.8-11-3.1-16.5c-0.8-7.8-1.2-15.7-2-23.5c-0.2-1.6-1.1-2.7-2.2-3.2
		c0-0.3,0-0.6,0-1c0-1-0.3-1.8-0.8-2.4c-0.3-1.7-0.5-3.3-0.8-5c0.6-0.8,0.8-1.8,0.4-3.1c-1.1-4.1-2.1-8.2-3-12.4
		c-1-6.7-1.7-13.4-1.7-20.1c0-1.8-1-3-2.3-3.5c-0.6-5.1-0.9-10.1-1.6-15.2c3.3-0.1,6.8-1.9,9.8-3c10.8-4.3,22.8-5.3,33.8-9.4
		c1.1-0.4,1.8-1.1,2.2-1.9c2.3-0.6,4.6-1.2,6.9-1.8c0.4,0.2,0.7,0.3,1.2,0.3c6.2,0.8,11.6-1.1,17.5-3c7.5-2.5,15.1-4.5,22.9-6.1
		c16.3-3.5,32.3-8.3,48.4-12.6c0.4-0.1,0.7-0.2,1-0.4c6.1-1.2,12.2-2.6,18.2-4.1c9.9-2.4,20.2-5.9,30.2-7.7
		c0.5,4.4,1.5,8.8,2.1,13.1c0.6,4.5,1.2,9,1.8,13.5c-0.3,0.5-0.5,1.1-0.5,1.8c-0.6,19.4,4.6,38.8,6.2,58.1c0.8,10,1.3,20.1,2.6,30.1
		c1.4,9.9,3.9,19.7,4.8,29.7c-4.6-0.2-9.2-1-13.8-0.9c-0.6-0.4-1.4-0.7-2.4-0.6c-6.3,0.7-12.6-0.5-19,0c-0.1,0-0.3,0-0.4,0
		c0.5-0.6,0.7-1.4,0.7-2.3c-0.3-11.8-3.7-23.1-5.2-34.8c0-0.1,0-0.1,0-0.2c0.5-0.8,0.7-1.7,0.6-2.8c-1.3-8.1-5.7-16.8-4.7-25.1
		c0-0.1,0-0.2,0-0.3c0.2-0.5,0.3-1,0.3-1.6c0.1-2.1-1.8-3.9-3.9-3.9c-1,0-1.9,0.4-2.6,1c-6.8,1.8-13.7,1.5-20.6,3.6
		c-9.5,2.9-19.9,4-29.6,6.1c-9.2,2-25,2.5-32.1,9.4c-2.1,2.1-1,4.9,0.9,6c-1.7,6.5,3.3,20,4.2,24.3c1.9,8.9,3.5,18.2,5.9,27
		c-0.6,0.8-0.9,1.9-0.5,3.2c1.5,4.8,2,9.9,2.9,14.8c0.6,3.3,5.7,3.7,7.1,0.9c0.2,0,0.4,0.1,0.6,0.1c1.4,0.3,2.6,0.1,4-0.1
		c2.4-0.4,4.7-1.7,7-2.6c0.4,0.2,0.9,0.3,1.5,0.3c0.7,0,1.4-0.2,2-0.6c-0.8,2-2,3.9-3,5.9c-1.2,2.3-0.6,5.2,1.7,6.6
		c0.1,0.1,0.3,0.1,0.4,0.2c-1.2,1.8-1.2,4.6,0.6,6.2c2.8,2.5,5.7,5,9,6.9c1.1,0.6,2.3,0.8,3.4,0.5c0.8,1.7,2.6,2.9,4.5,2.3
		c1-0.3,1.8-0.5,2.8-0.5c0.4,0,0.8-0.1,1.2-0.2c1.4,0.4,3.1,1,4.2,1.5C198.9,474.7,180.6,477.2,162.8,481.2z M173,404.1
		c-3-11.3-4.6-22.7-4.7-34.4c0-0.2,0-0.4-0.1-0.6c2.4-0.5,4.9-0.8,6.8-1.2c7.2-1.4,14.3-3.1,21.5-4.7c7.6-1.6,15.3-2.8,22.9-4.6
		c5.4-1.3,10.9-1.7,16.3-2.7c0.2,0.3,0.4,0.5,0.6,0.7c0.4,7.1,3.5,14.4,4.8,21.3c-0.4,0.6-0.6,1.4-0.5,2.4c1.5,11.6,4.9,23,5.2,34.8
		c0,1.4,0.7,2.4,1.5,3c-4.7,0.7-9.3,1.7-13.8,3c-1.5,0.4-2.3,1.4-2.6,2.6c-0.8-1.3-2.2-2.2-4.2-1.6c-9.5,2.9-16.7,2.4-22.2,8.3
		c-1.8-0.4-3.7,0.2-4.8,2.3c-0.3,0.6-0.7,1.2-1.1,1.8c-0.2-0.1-0.3-0.1-0.5-0.2c-0.9-0.2-1.8-0.2-2.6,0c-0.1-2-1.8-3.5-3.8-3.6
		c-0.8,0-1.7,0.1-2.5,0.2c-1.3-0.6-2.8-0.5-4.1,0.8c-0.3,0.3-0.6,0.6-0.9,0.8c-0.1,0-0.2,0.1-0.3,0.1c-0.8,0.3-1.5,0.8-2,1.4
		c-0.9,0.4-1.8,0.6-2.7,0.5c-0.5-0.1-0.9-0.3-1.2-0.6c-1.4-9-4.8-17.5-5.5-26.6C173.1,406.6,173.4,405.5,173,404.1z M244.4,461.5
		c-2,0-3.2,1.3-3.6,2.9c-5.2,0.2-9.9-0.9-15.1-1.2c-1-0.1-1.9,0.2-2.5,0.7c-5.3-1.8-10.9-5.3-16.1-3.5c-0.3-1.2-1.1-2.4-2.2-3
		c-2.7-1.6-4.6-3.2-7.1-5.4c-0.4-0.4-0.9-0.7-1.4-0.9c0-0.1,0.1-0.1,0.1-0.2c0.2-0.1,0.4-0.3,0.6-0.4c3-2.5,5.9-5.5,8.2-8.8
		c0.2-0.1,0.4-0.2,0.6-0.3c13.7-7.3,28.3-8.7,43.5-10.4c1.2-0.1,2.1-0.7,2.7-1.5c3.9-0.4,7.7-0.8,11.6-1.1c0.6,0.7,1.5,1.1,2.8,0.9
		c3.9-0.4,7.9-0.8,11.8-1.1c1.7,0.1,3.5,0.3,5.2,0.7c1.5,0.3,2.8-0.3,3.6-1.2c0.6,0,1.3,0,1.9,0c0.1,6.9,1.5,13.7,1.8,20.7
		c0.1,1.8,0.2,3.5,0.4,5.2c-3.7,1.6-8,1.8-11.9,3c-1.1,0.3-1.8,1-2.2,1.8C266.5,460.4,255.5,461.4,244.4,461.5z M294.2,463.7
		c-1.5,0-2.9,0.9-3.6,2c-1.7-0.1-3.5-0.2-5.2-0.3c-0.9,0-1.6,0.2-2.1,0.5c-1.3,0.4-2.5,0.8-3.7,1c-2.2,0.3-4.4,0.2-6.6,0
		c7-1.1,13.9-2.6,20.7-4.5c0.1,0.2,0.2,0.5,0.3,0.7C294,463.4,294.1,463.5,294.2,463.7C294.2,463.7,294.2,463.7,294.2,463.7z
		 M337.9,445.1c-2.9,2-5.9,3.9-8.2,6.6c-0.1,0.1-0.2,0.3-0.3,0.4c-1.6,0.7-2.9,1.6-4,2.9c-2.3,1.4-4.7,2.6-7.3,2.9
		c-0.4-0.1-0.8-0.1-1.3,0c-0.4,0-0.7,0-1.1,0c-1.5-0.2-2.6,0.4-3.2,1.4c-0.3,0.1-0.6,0.2-0.9,0.3c-0.2,0-0.3,0-0.5,0
		c-3.3,0.6-6.5,0.7-9.7,1.3c0-0.3,0.1-0.5,0.1-0.8c0-3.4-0.7-6.9-0.1-10.3c0.3-1.9-0.4-3.8-2.2-4.6c-0.1-1.4,0-2.8,0.2-4.1
		c0.3-1.7-0.4-3.1-1.5-3.9c-0.4-3-0.7-5.9-0.9-8.9c0.1-0.2,0.1-0.5,0.2-0.8c1.6,0.1,3.3,0.2,4.9,0.3c0.8,0.1,1.5-0.1,2.1-0.4
		c1.2,0.3,2.5,0.6,3.7,0.9c2.5,1.7,5.9,2.4,8.7,2.9c6.7,1.2,12.9,4.7,19.5,5.4c0.6,0.4,1.2,0.9,1.8,1.3
		C338,440.5,337.9,442.8,337.9,445.1C337.9,445.1,337.9,445.1,337.9,445.1z"/>
	<path fill="#E5E5E5" d="M286.4,409c-0.5-3.9-1.1-7.8-1.8-11.7c0-7.3-1.1-14.4-2.4-21.6c0-0.3,0-0.5,0-0.9
		c-0.8-7.5-2.1-14.8-3.2-22.2c0-1.1-0.1-2.1-0.1-3.2c0-0.7-0.1-1.3-0.4-1.8c0.3-0.6,0.5-1.3,0.4-2.1c-1.7-14.4-4.1-28.8-5.8-43.2
		c-0.1-0.9-0.4-1.6-0.9-2.2c-0.5-7.4-1-14.9-1-22.3c0-4.6-6.6-5-7.6-1c-0.6-0.2-1.3-0.3-2.1-0.1c-17.6,3.7-34.8,9.2-52.8,10.8
		c-1.6,0.1-2.7,1.1-3.3,2.3c-6.1,0.7-12.7,4.3-18.4,5.5c-11.5,2.3-23.1,3.8-34.5,6.5c-23.4,5.5-46.6,14.1-70.2,18.4
		c-4.3,0.8-3.2,6.6,0.4,7.4c0.2,7,1.7,13.7,3.3,20.5c0.3,9.5,2.2,19,4.3,28.2c-1.1,9.7,2.1,18.9,3.3,28.5c0.2,1.3,0.9,2.3,1.8,2.9
		c-0.9,13.3,3.1,27.4,5.2,40.5c1.6,9.6,3.2,19.1,4.2,28.8c0.4,4.1,0.4,8.3,1.8,12.3c0.9,2.6,4.3,4,6.5,1.7c0.1-0.1,0.2-0.2,0.3-0.3
		c0.1-0.1,0.2-0.2,0.2-0.3c3.7,1.5,7.8,0.4,11.2-2.1c8.3,0.4,16.5-3.6,24.6-6.3c0.6-0.1,1.1-0.3,1.7-0.4c0.2,0.1,0.3,0.1,0.5,0.1
		c8.2,1.6,14.9-3.4,22.7-4.8c0.5-0.1,1-0.3,1.4-0.5c4.1-0.3,8-1.6,12.2-2.7c0.4-0.1,0.7-0.3,1-0.4c4.2-0.1,8.4-0.1,12.5-0.4
		c4.7-0.4,4.9-7.4,0.7-7.7c-0.5-0.6-1.1-1-1.9-1.2c-0.6-0.1-1.4-0.2-2.4-0.3c-0.7-1.5-2.2-2.4-4.2-1.6c-0.7,0.2-1.3,0.2-1.9,0.1
		c-0.9-0.5-1.5-1.1-1.7-1.9c-0.5-1.8-1.8-2.6-3.2-2.7c0,0,0-0.1-0.1-0.1c-1-1.6-3.6-6.4-1.9-8.2c3.3-3.7-2.2-9.2-5.5-5.5
		c-0.7,0.8-1.2,1.6-1.6,2.6c-1.9,0.3-3.9,0.6-5.8,0.9c-0.3,0-0.6,0-0.9,0.1c-0.9-2.8-1.8-5.6-2.7-8.4c0.2-0.6,0.3-1.3,0.1-2.1
		c-2.7-10.8-5.6-21.5-7.4-32.5c-0.1-1-0.3-2-0.4-3c-0.2-1.1-0.3-2.3-0.4-3.4c-0.1-0.7-0.3-1.3-0.6-1.8c-2.6-10.6-6.8-21.2-5.8-32
		c0-0.1,0-0.2,0-0.3c6.4-2.1,13.5-1.8,20-3.4c9.4-2.3,18.4-5,28-6.7c14.6-2.7,29.3-5.1,43.8-8.1c0.2,1.5,0.4,3,0.7,4.6
		c-1.2,6.8,0.4,13.7,2,20.4c2.3,9.6,4.7,19.1,7.1,28.7c0.5,2.5,0.8,5.1,0.5,7.7c-0.2,0.2-0.5,0.4-0.7,0.6c-2,1.9-1.5,8.9,1.4,9.4
		c7.2,1.3,14.7-0.7,22-0.6c1.5,0,2.5-0.6,3.1-1.5c0.7,0.3,2.2-0.8,2.5,0.1c2.6,10.1,0.2-0.1,0.2-0.1
		C286.6,413.7,287.3,411.3,286.4,409z"/>
	<path fill="#E5E5E5" d="M244.4,412.3c-0.4-1.6-0.6-3.1-0.9-4.7c-0.1-1.4-0.3-2.8-0.6-4.2c-0.5-3.8-1-7.6-1.9-11.4
		c-0.2-1-0.8-1.7-1.4-2.1c-0.2-0.7-0.4-1.3-0.6-2c0-0.4,0-0.7-0.1-1.1c0-0.8-0.3-1.5-0.6-2.1c-0.9-5-1.1-10.1-1.3-15.2
		c0.3-0.6,0.5-1.2,0.4-1.8l-0.4-3.3c0.4-0.6,0.6-1.3,0.6-2c0-1.3-0.6-2.3-1.5-2.9c-0.6-1.2-1.8-2.1-3.4-2.1c-0.9,0-1.8,0.4-2.5,1
		c-3,0-6,0.7-8.6,2.4c-0.1,0.1-0.2,0.2-0.3,0.3c-2.3,0.1-4.5,0.2-6.7,0.6c-3,0.5-6,1.1-9,1.9c-2.5-0.3-4.9,0.6-7.3,1.6
		c-3.7,0.7-7.4,1.4-11.1,2.3c-3.6,0.9-8.5,1.5-12,3.1c-0.6-1.7-2.2-2.9-4.4-2.2c-5.1,1.6-3.7,5.5-2.7,9.6c0.9,3.7,2,7.3,3,11
		c-0.4,0.6-0.7,1.4-0.7,2.3c0.4,13.3,4.4,25.9,6.7,39c0.4,2.1,2.9,3.1,4.8,2.7c11.9-2.8,23.6-6.5,35.4-9.8
		c6.6-1.9,15.3-2.9,21.8-6.1C241.7,417.8,245.2,415.8,244.4,412.3z"/>
	<path fill="#B5B5B6" d="M89.5,469c-2.6-12.1-3.2-24.8-4.9-37c-3.5-25.2-8.7-50.6-11-75.9c-0.1-1.6-1.1-2.7-2.3-3.3
		c-0.9-5.3-1.5-10.6-1.6-16.1c0-1-0.4-1.8-0.9-2.4c-0.5-2.4-1.3-4.8-1.9-7.2c1.2-1.4,1.5-3.4-0.3-5c-0.3-0.3-0.7-0.6-1-0.9
		c-0.2-1.8-0.3-3.7,0-5.5c0.5-3-2.1-4.9-4.4-4.8c0-0.3-0.1-0.5-0.1-0.8c-0.3-3.9-5-5.2-7.2-2c-0.9,1.4-1.3,2.5-1.3,3.6
		c-0.8,1-1.3,2.3-0.8,3.5c0.1,0.3,0.3,0.6,0.4,0.9c0,0,0,0,0,0c0,0.1,0.1,0.1,0.1,0.2c0.3,0.7,0.7,1.4,1,2.1c-0.2,3.5,0.6,7.4,1,10
		c0.3,2.5,0.8,5.1,1.3,7.6c0.1,0.7,0.1,1.4,0.2,2.2c0.5,4.6,1.1,9.3,1.8,13.9c-1,14.7,2.7,30.8,5.9,45.1c0.3,3.3,1.4,6.8,2.1,9.7
		c1,4,1.7,8,2.4,12c0.9,11.9,1.2,24,4.9,35.4c0.1,7.9,1.9,15.9,3.1,23.8c0.3,2.1,0.5,4.1,0.8,6.2c0.1,1.2,0.7,2.1,1.5,2.8
		c-0.4,0.9-0.4,2,0.1,3.1c-1.8,1.3-2.6,3.9-0.5,5.8c0.2,0.2,0.4,0.4,0.6,0.6c0.7,0.6,1.6,1.1,2.6,1.2c0.3,0.1,0.6,0.3,0.9,0.4
		c1,0.9,2.2,1.2,3.2,1.1c0.2,0.2,0.4,0.4,0.6,0.6c-0.1,0.3-0.1,0.6-0.1,1c0,2.1,1.8,3.9,3.9,3.9H90c0.1,0,0.2,0,0.2,0
		c0.1,0,0.2,0,0.2,0c1.1,0,1.9-0.4,2.5-0.9c2.2,0.1,4.6-1.1,4.3-3.7C96.1,489.2,91.7,479.4,89.5,469z"/>
	<path fill="#FFFFFF" d="M271.1,257.7C271.1,257.7,271.1,257.7,271.1,257.7c-0.7-1-1.5-1.5-2.3-1.7c0,0,0,0,0-0.1
		c-7.1-2.1-14.5,0.6-21.1,3c-10.3,3.7-21.2,5.4-31.9,7.8c-11,2.5-21.8,5.9-32.7,8.6c-1.4,0.3-2.7,0.7-4.1,1.1
		c-1.1-0.2-2.3,0.1-3.2,0.9c-0.1,0-0.1,0-0.2,0c-0.4-0.1-0.7-0.1-1.2,0c-8.6,1.1-17,3.3-25.5,5.6c-0.8,0.1-1.5,0.1-2.3,0.2
		c-1.3,0-2.2,0.5-2.8,1.3c-7.3,2.1-14.7,4.1-22,5.5c-21,3.9-40.3,12.2-61.7,14.5c-4.9,0.5-5,8.3,0,7.7c18.7-2,35.6-7.9,53.6-12.5
		c10.4-2.6,21-4.2,31.5-6.8c3.3-0.8,6.6-1.8,9.9-2.9c5.9-1,11.6-2.7,17.5-4.4c1.7-0.5,3.4-0.9,5.2-1.3c0.9,0.1,1.7-0.2,2.5-0.6
		c8.1-2,16.3-3.7,24.3-6c11.3-3.1,22.8-5.4,34.2-7.9c8.4-1.9,19.4-8.9,28.1-6.3C269.9,264.4,273,260.6,271.1,257.7z"/>
	<path fill="#FFFFFF" d="M347.9,435.5c-0.1-1.4-0.3-2.8-0.6-4.3c-0.3-1.1-1.9-0.7-1.9,0.3c-2.4-2.4-5.7-3.9-8.3-6.1
		c-0.6-0.5-1.3-0.2-1.5,0.3c-1.6-0.7-3.2-1.3-4.8-1.8c-0.6-0.2-0.9,0.8-0.3,0.9c1.9,0.5,3.7,1.2,5.4,2.1c0.2,0.2,0.4,0.3,0.7,0.5
		c-2.3-0.7-4.6-1.6-6.9-2.5c-0.5-0.2-0.9,0.1-1.1,0.5c-1.7-0.3-3.4-0.6-5.1-1.1c-0.1-0.3-0.4-0.6-0.8-0.7c-0.8-0.1-1.7-0.2-2.5-0.3
		c-1.9-0.6-3.7-1.3-5.4-2.2c-0.6-0.3-1.1,0-1.3,0.4c0,0-0.1,0-0.1,0c-1.3-0.2-2.7-0.3-4.1-0.3c-0.5-0.2-1-0.4-1.4-0.6
		c-0.6-0.3-1.2,0.1-1.4,0.6c-3.2-0.1-6.4-0.3-8.8-2.4c-0.9-0.7-2.1,0.4-1.5,1.2c-1-0.2-2.1-0.3-3.1-0.5c-1.6-0.4-3-0.8-4-1.4
		c-0.7-0.3-1.2,0.1-1.4,0.6c-2.9-0.2-6.5-0.2-8.7-1.1c-1.1-0.5-2.1,1.2-1,1.7c2.5,1.1,5.4,0.7,8.1,1c2.8,0.4,5.6,0.9,8.4,1.3
		c7.6,1.5,19,2.4,29.3,4.6c1,0.3,2.1,0.5,3.2,0.7c8.6,2.1,15.9,5.2,18.7,10.5c0.1,0.8,0.2,1.7,0.3,2.5c0,0.1,0,0.2,0,0.4
		c-0.5,2.5-1.4,4.9-2.7,7.1c-1.8,2.5-3.9,4.9-6.2,7.1c-3.1,2.6-6.6,4.9-9.8,7.3c-0.2,0.1-0.3,0.3-0.3,0.4c-4.1,2.4-8.5,4.2-13,5
		c-1.2,0.2-0.7,2.1,0.5,1.9c7.5-1.4,14.8-5.4,21-10.6c0.2,0.1,0.5,0.1,0.7-0.1c2.6-2,4.9-4.3,6.8-7c0.4-0.5,0.8-1,1.2-1.5
		c0.1,0.3,0.4,0.5,0.8,0.6c0,0,0,0,0,0.1c-0.4,1.2,1.5,1.7,1.9,0.5c0.3-1,0.6-1.9,0.8-2.9c0.1-0.1,0.1-0.2,0.2-0.3
		c0.4-1.1,0.6-2.2,0.8-3.2c0.3-0.1,0.5-0.3,0.6-0.6C349.8,441.4,349.1,438.3,347.9,435.5z"/>
	<path fill="#FFFFFF" d="M285.2,340.3c-1.3-12.5-2.3-25-3.8-37.4c-1.6-12.6-3.9-25.1-4-37.8c0.3-0.1,0.6-0.2,1-0.3
		c1.2-0.4,0.7-2.2-0.5-1.9c-0.2,0-0.3,0.1-0.5,0.1c-0.1-1.2-1.9-1.1-1.9,0.1c0,0.2,0,0.3,0,0.5c-17.2,4.8-34.9,7.5-52.5,10.9
		c-1.2,0.2-0.7,2.1,0.5,1.9c17.4-3.4,34.9-6,52-10.8c0.1,10.2,1.5,20.2,3,30.3c2.2,14.7,3.2,29.6,4.8,44.3
		c2.6,24.8,6.3,49.5,9.6,74.2c0.2,1.2,2,0.7,1.9-0.5C291.4,389.5,287.8,365,285.2,340.3z"/>
	<path fill="#FFFFFF" d="M231.4,463.9c-4.3-0.6-9.7-1-15-2c0-0.4-0.2-0.8-0.7-0.9c-4.2-0.9-14-3.9-19-8.4c-0.9-1.1-1.7-2.4-2.3-3.9
		c0.4-0.2,0.7-0.5,0.4-1.1c-0.3-0.7-0.7-1.9-0.7-2.9c0.3-0.7,0.8-1.4,1.4-2.2c0,0,0,0,0,0c1.1-0.2,0.8-1.7-0.2-1.9
		c-0.3-0.1-0.6-0.1-0.9,0.2c-1.4,0.5-2,1.7-2.2,3.1c-1.7,3.6-0.2,6.9,2.8,9.7c7.8,9.9,24.8,10.7,36.2,12.1
		C232.7,466,232.7,464,231.4,463.9z"/>
	<path fill="#FFFFFF" d="M254.1,414.3c-2.9-11.2-4.1-23-6.2-34.5c-1.9-10.6-5.1-22.2-4.9-33c0-1.2-1.9-1.2-1.9,0
		c-0.2,10,2.7,20.3,4.3,30.1c2.2,12.5,3.6,25.6,6.8,37.9C252.6,416,254.4,415.5,254.1,414.3z"/>
	<path fill="#FFFFFF" d="M106.6,490.6c-1.7-5.4-3-10.9-3.9-16.4c0.8,0.2,1.9-0.2,1.8-1.3c-1.6-23.7-6.8-47-11.6-70.3
		c-2.5-12.1-2.9-24.5-5-36.7c-2.6-14.9-5.2-29.9-7-44.9c-0.2-1.8-3.1-1.9-2.9,0c3.1,25.1,7.3,50.1,10.8,75.1
		c0.5,3.7,1.1,7.4,1.8,11.1c1.7,15.3,5.6,30.1,6.8,45.5c1,13,2.6,26.1,6.6,38.6C104.4,493.1,107.2,492.4,106.6,490.6z"/>
	<path fill="#FFFFFF" d="M271.4,283.4c0.3-0.2,0.5-0.6,0.5-1.1c0-1.4-0.4-2.8-0.5-4.3c0-0.7,0-1.3,0-2c0-1.9-2.9-1.9-2.9,0
		c0,0.6,0,1.3,0,1.9c0,0,0,0,0,0c0,0,0,0.1,0,0.1c-0.3,46,13.9,90.8,15,136.7c0,1.9,3,1.9,2.9,0
		C285.2,370.7,272.1,327.6,271.4,283.4z"/>
	<path fill="#FFFFFF" d="M303.5,461c-4.7-9.2-4.2-20.2-6.1-30.1c-0.1-0.3-0.2-0.5-0.4-0.7c0-0.3-0.1-0.5-0.1-0.8
		c-0.3-1.8-3.1-1.1-2.8,0.8c1.5,10.7,2.5,21.5,5.3,31.9c0.3,1,1.3,1.2,2,0.8C302.5,463.7,304.3,462.4,303.5,461z"/>
	<path fill="#9A2F2E" d="M339.2,436c-16.1-13.3-41.5-11-61-11.8c-15-0.6-29.9,0.3-44.7,2.8c-5.4,0.9-10.5,2.8-15.4,5
		c-0.2,0.1-0.4,0.1-0.5,0.2c-0.2-0.1-0.5-0.1-0.7,0.1c-1,0.5-2,1-3,1.6c-0.9,0.5-1.8,1.1-2.7,1.6c-2.9,1.6-5.8,3.2-8.7,4.8
		c-0.2-0.6-1.1-1-1.6-0.4c-0.8,0.9-1.6,1.7-2.3,2.6c-0.7,0.4-1.4,0.7-2.1,1.1c-0.8,0.4-0.5,1.4,0.1,1.7c-0.1,0.1-0.1,0.2-0.2,0.3
		c-0.5,0.9,0.5,1.8,1.3,1.3c4.9-2.6,9.1-6.1,13.7-9.2c0.2-0.1,0.3-0.2,0.5-0.3c3.6-1.9,7.3-3.7,11.2-5.2c1.3-0.5,2.7-0.9,4.1-1.3
		c0.3-0.1,0.4-0.2,0.5-0.4c1.5-0.5,3-0.9,4.6-1.3c14.2-3.3,30.2-3.8,44.7-3.1c9.9,0.5,19.7,0.4,29.6,1.3c10.7,1,22.6,2.9,31.2,10
		C338.8,438.2,340.2,436.8,339.2,436z"/>
	<path fill="#9A2F2E" d="M293.3,428.1c-0.3,0-0.5,0.2-0.7,0.4c-0.5-0.2-1.2-0.1-1.4,0.5c-0.4,0-0.8,0.2-1,0.7
		c-0.3,0.8-0.5,1.5-1,2.1c-0.7,0.8,0.2,2,1,1.6c-0.2,0.6-0.5,1.1-0.6,1.7c-0.4,1.2,1.5,1.7,1.9,0.5c0.1-0.3,0.2-0.5,0.3-0.8
		c0.2-0.2,0.4-0.4,0.4-0.8c0-0.2,0-0.3,0-0.5c0.6-1.4,1.3-2.8,2.3-4C295.1,428.8,294.1,427.6,293.3,428.1z"/>
	<path fill="#A37631" d="M660.4,271.9c0.1-1.1,0.1-2.1,0.1-3.2c0.1-4-3-7.1-6.6-8.2c-0.1-0.4-0.1-0.7-0.1-1.1
		c-0.7-3.9-3.5-5.8-6.7-6.1c-0.4-1.4-0.8-2.7-1.3-4.1c-2.2-5.6-7.2-7.4-12.6-5.1c-1.1,0.5-2,1-3,1.6c-2.3-3.2-5.2-5.4-8.7-6.1
		c-15-2.9-19.5,11.1-19,25c-2.9,0.3-5.5,2.2-6.5,5.9c-3.9,2.1-6.7,5.5-6.2,9.7c-1.2,2.6-2,5.5-2.3,8.9c0,0.4,0,0.8,0,1.2
		c-8.5,7.4-17.8,12.3-25.5,21c-8.5,9.6-15,20.9-21.2,32.1c-0.4,0.7-0.7,1.4-0.9,2.1c-4.9,5.3-8.5,11.7-11.2,18.7
		c-1.8-0.7-3.8-0.9-5.5-0.4c-0.5,0.1-1,0.3-1.5,0.6c-2-3.9-7.2-3.1-9.2,0.3c-0.6,0.2-1.3,0.6-1.8,1c0.4-2.1,0.8-4.2,1.1-6.3
		c4.7-2,8.2-6.4,7.9-13.2c-0.6-13-4.9-26.2-13.1-36.4c1.1-0.7,2-1.8,2.8-3.3c7.1-14.9,18.8-26.6,33.7-33.4c1.9,2.2,4.8,3.5,8.4,2.5
		c5.7-1.6,9-5.6,11-10.9c0.6-1.6,0.8-3.3,1.1-4.9c0.1-0.8,0.3-1.6,0.4-2.4c0.2-0.9,1.3-3.3,0.1-0.8c2.1-4.2,1.1-9.3-3.1-11.8
		c-3.9-2.3-9.6-1.1-11.8,3.1c-1.2,2.4-1.7,4.7-2.2,7.2c-1.6-0.6-3.4-0.7-5.6,0.1c-20.4,8.2-37.4,22.5-47,42.6
		c-0.2,0.4-0.3,0.8-0.4,1.2c-3.6-1.5-7.2-1.7-10.4-0.7c-16.4-10.3-41.2,11.3-51.9,26.6c-10.3,14.7-5.8,32.6,1.7,47.4
		c4.2,8.4,8.4,17.5,15.2,24.1c3.3,3.2,7.4,4.8,11.7,6.3c2.4,0.4,4.7,0.6,7.1,0.8c1-0.1,2-0.2,3-0.3c0.5,0,0.9-0.1,1.3-0.1
		c1.7,1.1,3.6,1.7,5.6,1.8c1.5,6.1,3.3,12.1,5.4,18c3.1,15.2,6.1,30.7,19.7,39.7c1.9,1.3,3.9,1,5.5-0.1c1.9,3.1,4,6.1,6.3,9
		c2.9,3.7,8.5,0.8,9.1-3.2c3.4,2.5,9.6-0.4,8.5-5.8c-0.9-4.3-1.6-8.6-2.2-12.9c1.5,4.6,3.1,9.2,5,13.6c1.2,5,3.1,9.7,6.4,13.7
		c0.1,0.1,0.1,0.3,0.2,0.4c1.3-2.7,2.8-5.3,4.4-7.9c-1.9,1-4.7,0.6-5.5-2.1c-1.3-4-1-8.8,0.7-12.8c-0.6-1.1-0.6-2.6,0-3.7
		c1.8-3.3,5.9-5.3,9.5-3.8c0.4,0.1,0.7,0.3,0.9,0.5c-2.6-14.1-3.3-28.5-4.2-42.8c-0.1-1.5-0.5-2.8-1.2-3.9
		c0.4-5.8,1.7-11.4,4.8-15.9c2.3-3.3,1.8-6.5-0.1-8.9c6.1-17.5,13.5-34.2,27.7-46.9c1.9-1.7,2.7-3.6,2.7-5.5
		c5.2-5.8,10.8-11.3,16.3-16.8c1,1.7,2.2,3.2,3.7,4.5c3.2,2.9,9.1,3.8,12.2,0c0.8-1,1.6-2.2,2.4-3.5c2.6,1.6,5.3,2.8,8,3.5
		c7.2,1.9,14.3,0.1,17.3-5c1.4,0.7,2.9,1,4.4,1c6.9,3.9,15.3-3.8,12.5-10.4c0.1-5.1,0.8-10.2,1.4-15.3
		C662,278.7,662,274.9,660.4,271.9z"/>
	<path fill="#A37631" d="M549.4,454.2c-0.1,0.2-0.2,0.4-0.3,0.6c-2.1,3-2.9,6.9-1.8,10.4c0.1,0.4,0.2,0.7,0.2,1
		c2.2-3.6,4.3-7.3,6.6-10.8c-0.5-1.2-0.9-2.3-1.3-3.5C552.3,453.3,551.1,454.5,549.4,454.2z"/>
	<path fill="#A37631" d="M647,464.9c-1.6-1.5-4-2-6.1-0.9c-2.8-1.7-7.4-0.9-8.5,2.8c-3.4-1.3-7.9,0.4-7.4,4.7
		c1.2,10,0.6,19.9,0.7,29.9c-1.7,5.5-3.5,11-5,16.6c-1.7,3.4-2.8,7.1-3.5,10.4c-0.2,0.8-0.2,1.5,0,2.2c-0.8,0.3-1.5,0.8-2.2,1.6
		c-3.6,4.3-6.3,8.5-8.2,13.8c-0.4,1.2-0.4,2.2,0,3.2c0.2,4,4.8,6.8,8,4.7c1.5,0.8,3.4,0.9,5.2,0c0.3-0.2,0.6-0.4,0.9-0.5
		c1.6,1.1,3.6,1.4,5.6,0.2c3.9-2.4,7.4-5.8,10.5-9.6c4.9-4.1,7.6-11.1,8.5-17.3c0-0.2,0-0.3,0-0.5c1.1-3.4,2.2-6.8,3.2-10.2
		c0.4-1.3,0.3-2.4-0.1-3.4c1.1-5,1.8-10,2.5-15.1c0.2-0.4,0.3-0.8,0.5-1.2c0.6-1.4,0.5-2.6,0.1-3.6c0.9-7.8,1.6-15.5,2.6-23.3
		C655,464.7,650.4,463.5,647,464.9z"/>
	<path fill="#A37631" d="M728.3,488.8c-0.6-4-5.4-6.7-8.4-4.2c-2.5-1-5.6-0.5-6.8,2.1c-0.2,0.5-0.4,1-0.6,1.5
		c-0.1,0-0.1,0.1-0.2,0.1c-1.6-3.9-7.2-6-9.6-1.2c-5.4,10.8-9,22.6-10.8,34.6c-5.4,5-9.8,12.7-13.2,17
		c-11.5,14.8-31.4,20.5-49.1,20.3c-3.1,0-5.1,2.5-5.4,5.4c-0.5,5.1-3.4,8.6-6.1,12.7c-1.8,2.6-0.2,7.4,3.2,7.9
		c19.1,2.6,42.5-1.6,59.3-11.2c4.8-2.7,9.2-6.9,12.8-11.5c1.3-0.3,2.6-1,3.4-2.4c1.1-1.9,2.2-3.8,3.2-5.8c2.8-3.9,4.9-8.2,6.9-12.5
		c1.6,0.4,3.3,0.1,4.8-1.4c5.8-5.6,7.9-13.4,9.8-21.1c2.3-9.1,5.4-17.9,7-27.2C728.9,490.8,728.7,489.7,728.3,488.8z"/>
	<path fill="#7F5B29" d="M614,297.1c-7.1-6.1-24.4,8.8-29.9,12.8c-13.7,10-22.6,24.5-28.3,40.2c-0.6,1.2-1.1,2.5-1.7,3.7
		c-2.5,6.1-4.6,12.3-6.3,18.7c-0.5,0.1-0.9,0.4-1.3,1c-0.1,0.2-0.2,0.3-0.3,0.5c-0.8-0.2-1.7,0-2.3,1c-0.3,0.5-0.6,1-0.9,1.6
		c-0.1,0.1-0.1,0.1-0.2,0.1c-1.5,1.6-2.5,3.5-3.1,5.6c-0.2,0.8,0.1,1.5,0.7,2.1c0.1,0.9,0.7,1.6,1.4,1.9c0,1.3,1.3,2,2.5,1.9
		c-0.7,4.4-1.3,8.9-1.6,13.4c-0.9,13.8-0.6,33.1,7.3,45.1c0.1,0.1,0.2,0.2,0.3,0.4c0,0,0,0,0.1,0c0.4,0.1,0.7,0.3,1,0.6
		c1.6,0.4,3.6-1.3,2.4-3.1c-7.6-11.6-7-29.4-6.7-42.9c0.2-6.4,1.1-12.9,2.5-19.3c0.1-0.1,0.1-0.2,0.2-0.2c1.2,0.2,2.5-0.5,2.5-2V377
		c0-0.8-0.4-1.4-1-1.8c0,0,0-0.1,0-0.1c1,0.2,2-0.2,2.3-1.5c1.3-6.3,2.8-12.3,4.8-18c0.9,1.2,3.2,1.3,3.8-0.6
		c5-16.5,16-31.4,29.5-42c0.3-0.3,0.5-0.5,0.6-0.8c6.1-4.3,12.6-8,19.7-11c0.4-0.2,0.6-0.4,0.8-0.6
		C614.4,300.2,615.5,298.4,614,297.1z"/>
	<path fill="#7F5B29" d="M625,249.5c-5.7,7.1-16.2,12.5-16.7,22.6c-0.1,2.1,3,3,4,1.1c2.1-4.2,5.5-7.3,8.6-10.7
		c0.9-1,0.6-2.3-0.1-3.1c2.7-2.4,5.4-4.6,7.3-7C629.7,250.4,626.7,247.3,625,249.5z"/>
	<path fill="#7F5B29" d="M647.6,254.5c-6.4,4.8-13.5,8.1-19.3,13c-3.2,2.5-5.9,5.5-7.6,9.3c-1.1,2.5,2.4,4.7,3.7,2.2
		c1.6-3.1,3.7-5.6,6.1-7.7c0.7-0.5,1.4-1.1,2.1-1.6c0.3-0.2,0.6-0.5,0.7-0.8c5.2-3.9,11.2-6.7,16.5-10.7
		C651.9,256.6,649.8,252.8,647.6,254.5z"/>
	<path fill="#7F5B29" d="M658.1,269c-10.1,1.7-25.2,8.5-29.6,18.5c-1.1,2.5,2.6,4.7,3.7,2.2c3.9-9,17.9-15.1,27-16.6
		C662,272.7,660.8,268.5,658.1,269z"/>
	<path fill="#7F5B29" d="M647.2,292.5c-2.6,0-5.2,0.2-7.8,0.2c-2.5,0-6.8,0.4-8.9-1.4c-2.1-1.8-5.2,1.2-3,3c5,4.2,13.8,2.5,19.8,2.4
		C650,296.8,650,292.5,647.2,292.5z"/>
	<path fill="#7F5B29" d="M559.1,250.4c-0.3-1.8-0.3-3.7-0.3-5.5c0-2.6-3.4-2.7-4.2-0.6c-0.8,2.1-1.7,4.4-2.5,6.9
		c-1.2-0.3-2.6,0.2-2.6,1.9c0,1,0.1,1.9,0.2,2.9c0,3.1-0.3,6.2-0.3,9.3c-8.8,2.6-16.5,6.5-24,12.3c-9.4,7.3-14.2,15-19.7,25.3
		c-1.3,2.5,2.2,4.5,3.7,2.2c0.4-0.6,0.7-1.1,1.1-1.7c1.2,0.4,2.9-0.3,3.1-1.9c0.9-7.4,9.5-13,14.7-17.5c6.4-5.6,14-9.7,21.9-13
		c0.5,1.4,1.2,2.8,2.3,4.1c0.1,0.2,0.3,0.2,0.4,0.3c0.1,0,0.1,0.1,0.2,0.1c0.1,0,0.1,0.1,0.2,0.1c1.4,0.7,3.4,0.2,3.2-1.7
		c-0.2-2-0.5-4-0.8-6c1.8-0.9,1.2-3.7-0.7-4c-0.3-1.6-0.6-3.2-0.8-4.9c0.4-2.1,1-4.1,1.6-6.1C557.3,253.5,559.4,252.4,559.1,250.4z"
		/>
	<path fill="#7F5B29" d="M593.3,267.6c-1.4,5.5-1.8,11.1-3.6,16.5c-0.9,2.6,3.3,3.8,4.1,1.1c1.8-5.4,2.2-11,3.6-16.5
		C598.1,266.1,593.9,264.9,593.3,267.6z"/>
	<path fill="#7F5B29" d="M522.9,359.9c0-0.3,0.1-0.5,0.1-0.8c0.2-2.6-3.4-2.7-4.2-0.6c-0.4,0.9-0.7,1.9-0.9,2.8
		c-0.4-0.1-0.9,0-1.3,0.2c-4.5,2.3-6.7,8.6-8.1,13.1c-0.1,0.3-0.1,0.5-0.1,0.7c-2.6,3.2-4.6,6.9-5.5,10.6c-2.5,2.9-5.1,5.7-7.8,8.3
		c-0.4,0.2-0.7,0.4-1.1,0.6c-0.6,0.3-0.9,0.8-1,1.3c-3.3,2.9-6.8,5.5-10.8,7.6c-0.9-0.3-1.9-0.1-2.5,0.8c-0.4,0.5-0.7,1-1.1,1.4
		c-1.4,1.9,1.2,3.7,2.9,2.9c0.8-0.4,1.6-0.8,2.4-1.2c0.6,0.3,1.2,0.3,1.9-0.2c0.5-0.4,1-0.7,1.5-1.1c-0.3,1,1,1.9,1.8,1.1
		c1.8-2.2,3.8-4.2,5.7-6.4c1.9-1.3,3.7-2.7,5.5-4.1c-1,1.6-2.1,3.3-3.2,4.9c-0.7,1,0.9,2.2,1.7,1.3c3.2-3.3,5.8-7.2,8.4-11
		c0.3-0.4,0.2-0.8,0-1.1c0.4-0.3,0.8-0.7,1.2-1c0.4-0.1,0.8-0.4,1.1-0.9c0-0.1,0.1-0.1,0.1-0.2c1.7-1.6,3.3-3.3,4.7-5.1
		c-0.4,1-0.8,2.1-1.1,3.1c-0.2,0.1-0.4,0.2-0.6,0.3c-1.2,0.9-2.1,1.9-2.9,3c-0.4,0.4-0.8,0.8-1.1,1.2c-0.4,0.6-0.6,1.2-0.6,1.9
		c-2.7,6.8-1.3,15.8-1.1,22.7c0.4,10,1.2,21.1,6,30.2c0.9,3.2,2.1,6.2,3.9,9c1.1,1.8,4,1.1,4-1.1c0-0.6-0.1-1.2-0.1-1.8
		c0.4-0.7,0.5-1.6-0.1-2.4c-0.3-6.6-1-13.2-1.5-19.8c-0.7-8.2,0.7-16.1-1.6-24.2c-0.4-1.3-1.6-1.7-2.6-1.4c0.1-7.6,1-15.1,4.5-22
		c0.9-1.8-0.7-3.3-2.2-3.2c0.1-0.6,0-1.1-0.3-1.5c0.5-1.1,0.9-2.2,1.3-3.3c0.8-1.5,1.6-3.1,2.4-4.6c0.3-0.4,0.7-0.8,1-1.3
		c0.4-0.5,0.5-1,0.5-1.6c0.8-1.4,1.5-2.9,2.4-4.2C525.4,361.6,524.2,360.2,522.9,359.9z"/>
	<path fill="#7F5B29" d="M508.1,336.8c-0.4-2.9-2.6-4.7-5.5-4.6c-0.9,0-1.5,0.5-1.8,1.1c-0.4,0.2-0.7,0.5-1,0.8
		c-1.1,1.4-1.4,3.1-1,4.8c0.6,2.9,3.9,5,6.6,3.5C507.3,341.5,508.3,338.9,508.1,336.8z"/>
	<g>
		<path fill="#7F5B29" d="M460.7,371.4C460.9,371.4,460.6,371.3,460.7,371.4L460.7,371.4z"/>
		<path fill="#7F5B29" d="M460.7,371.4L460.7,371.4C460.7,371.4,460.7,371.4,460.7,371.4C460.7,371.4,460.7,371.4,460.7,371.4
			C460.7,371.4,460.7,371.4,460.7,371.4z"/>
		<path fill="#7F5B29" d="M464.3,372c-0.6-1.1-1.9-1.3-2.9-0.8c-0.2,0.1-0.3,0.1-0.5,0.1c0,0-0.1,0-0.1,0c0,0,0,0,0,0c0,0,0,0,0,0
			c0,0,0,0,0,0c0,0,0,0,0,0c0,0,0,0,0,0c0,0,0,0,0,0c0,0-0.1-0.1-0.1-0.1c0,0,0-0.1-0.1-0.2c0-0.1-0.1-0.1-0.1-0.1
			c0,0,0-0.1-0.1-0.2c0-0.1-0.2-0.8-0.2-0.6c-0.1-0.7,0-1.1,0.1-1.6c0.6-2.7-3.5-3.8-4.1-1.1c-0.5,2-0.3,4.3,0.9,6.1
			c1.6,2.3,4.2,2.5,6.6,1.4C464.6,374.5,464.9,372.9,464.3,372z"/>
	</g>
	<path fill="#7F5B29" d="M451.6,358.9c-0.7-2.7-4.8-1.5-4.1,1.1c0.6,2.4,0.2,5.9-2.9,3.4c-1.7-1.4-2.3-3.4-2.8-5.4
		c-0.6-2.3-1.4-5.6-0.4-7.9c1.1-2.5-2.6-4.7-3.7-2.2c-1.7,3.8-0.9,8,0.1,11.9c0.8,3.1,2.4,5.9,5.2,7.7c2.1,1.3,5,1.4,7-0.2
		C452.6,365.4,452.3,361.7,451.6,358.9z"/>
	<path fill="#7F5B29" d="M466.7,353.2c-0.5-2.7-4.6-1.6-4.1,1.1c0.2,1.3,0.5,3,0,4.3c-0.2-0.1-0.4-0.3-0.6-0.4
		c-1.2-1.2-1.8-3-2.3-4.6c-0.8-2.5-1-5.2-0.5-7.8c0.5-2.7-3.6-3.9-4.1-1.1c-0.8,4.1-0.3,8,1.1,11.9c0.8,2.3,2.2,4.8,4.5,6
		c1.9,1,4.2,0.5,5.4-1.3C467.5,358.8,467.1,355.8,466.7,353.2z"/>
	<path fill="#7F5B29" d="M662.6,557.3c-0.1-0.4-0.3-0.7-0.6-1v-1c0-1.4-1-2.1-2.1-2.1c-1.1,0-2.2,0.7-2.2,2.1c0,1.2-0.3,2.4-0.4,3.6
		c0,1.3,0.9,2,1.9,2c0,0,0,0,0.1,0c1,0.4,2.2-0.1,2.8-1c0.2-0.3,0.3-0.6,0.3-0.9c0-0.2,0.1-0.3,0.1-0.4
		C662.6,558.3,662.7,557.8,662.6,557.3z"/>
	<path fill="#7F5B29" d="M710.6,536.7c-0.5,0.8-1.1,1.6-1.6,2.4c-0.2,0.1-0.4,0.2-0.6,0.4c-1.6,1.9-3,4-4.2,6.1
		c-7.8,10.2-16.4,18.8-28.5,25c-14.3,7.3-32,10-48.1,6.9c0.7-2.3,1.2-4.7,1.5-6.9c0.5-2.7,0.9-5.8,0.1-8.5c0-0.5,0-0.9,0-1.4
		c0-1.8-1.8-2.4-3.1-1.9c-0.7,0.1-1.3,0.7-1.6,1.3c0-0.1,0-0.1,0-0.2c-0.1-2.5-3.4-2.8-4.2-0.6c-1.5,4-2.2,8.3-3.7,12.4
		c-0.6,1.1-1.2,2.3-1.7,3.4c-0.7,0.5-1.1,1.4-1,2.3c-0.3,0.9-0.6,1.8-0.8,2.7c-0.5,2,1.5,3.1,3.2,2.4c0.8-0.3,1.5-0.8,2.2-1.3
		c0.2,0.1,0.4,0.2,0.6,0.3c0,0,0,0,0,0.1c-1.8,2.1,1.2,5.1,3,3.1c0.9,0.3,1.9,0.1,2.5-0.8c0,0,0,0,0,0c9,2.8,19.6,2.3,29.6,0.6
		c0.4,0.2,0.8,0.2,1.3,0.1c4.8-1.2,10.1-2.3,15.2-3.9c1.3-0.4,2.6-0.7,3.8-1.1c0.5-0.1,0.8-0.4,1-0.7c4.2-1.8,8.1-4.2,11-7.7
		c0.6-0.7,0.6-1.6,0.3-2.3c2.1-1.5,4.1-3,6-4.7c0.7,1,2.2,1.6,3.4,0.5c4.9-4.4,7.5-10.3,10.7-15.8c2.5-3.2,4.9-6.6,7.2-10
		C715.8,536.6,712.1,534.4,710.6,536.7z M624.9,565.4c-0.1,0.1-0.2,0.2-0.2,0.3c-1,2.1-1.9,4.2-2.9,6.2c-0.2,0-0.3,0.1-0.4,0.1
		c1.6-3.2,3.1-6.4,3.4-10.1c0.1,0.2,0.2,0.4,0.3,0.5c0,0,0,0.1,0,0.1C625,563.6,624.9,564.5,624.9,565.4z"/>
	<path fill="#7F5B29" d="M651.5,493c-5.4,11.1-10,22.5-16.3,33.1c-6.1,10.4-17.2,14.7-28.3,17.4c-1.9,0.5-2,3-0.5,3.9
		c1,0.7,2.2,1.3,3.4,2c0.3,0.5,0.8,0.8,1.5,0.8c0.8,0.4,1.6,0.8,2.4,1.1c0,1.9,0.8,3.9,3,3.9c1.9,0,3.6-0.7,5.1-1.7
		c2.9,0.2,5.6-0.5,7.9-2.5c0.5-0.5,0.7-1,0.7-1.5c0.3-0.2,0.7-0.4,1-0.6c1.4-0.9,1.1-2.6,0.3-3.5c2.6-2.6,5-5.4,6.9-8.7
		c0.2-0.3,0.2-0.6,0.3-0.9c4.2-9.7,10.6-18.5,12.8-29c0.6-1.7,1.3-3.3,1.9-5c0.1-0.3,0.2-0.6,0.1-0.9c0.2-0.4,0.5-0.7,0.7-1.1
		c0.7-1,0.4-1.9-0.3-2.5c0.3-0.7,0.7-1.4,1-2.1C656.4,492.7,652.7,490.6,651.5,493z"/>
	<path fill="#7F5B29" d="M725.8,482.7c-5.9,1.9-12.7,3.5-18.9,2.5c-2.7-0.4-3.9,3.7-1.1,4.1c7,1.1,14.5-0.4,21.2-2.5
		C729.6,486,728.5,481.9,725.8,482.7z"/>
	<path fill="#7F5B29" d="M653.3,463.1c-0.4-0.3-1-0.5-1.6-0.4c-9.8,1.4-20.2,1.1-27.8,8.4c-0.1,0.1-0.1,0.1-0.1,0.2
		c-1.6,1.3-0.5,4.5,1.9,3.7c9.5-3,18.8-6.3,28.6-7.9C656.9,466.8,655.9,462.8,653.3,463.1z"/>
	<path fill="#7F5B29" d="M497.1,370.4c-0.8-2.6-5-1.5-4.1,1.1c0.5,1.5,0.4,3,0.1,4.4c-0.7,0-1.3,0.2-1.7,1.1
		c-1.7,4-8.5,8.7-12.8,8.3c0-0.1-0.1-0.2-0.1-0.3c-0.3-1.5-1.7-1.8-2.8-1.3c-0.6-1-0.9-2.5-0.7-4.5c0.3-2.8-4-2.7-4.3,0
		c-0.5,5.6,1.5,8.6,4.7,9.8c2.7,4.3,8.9,2.9,13,0.1C494.2,385.1,499.4,377.6,497.1,370.4z"/>
	<path fill="#7F5B29" d="M538.7,378.1v0.8c0,1.4,2.1,1.4,2.1,0v-0.8C540.9,376.7,538.7,376.7,538.7,378.1z"/>
	<path fill="#F8E7D4" d="M520.2,340.1c-0.5-1.7-1-3.5-1.6-5.2c0-0.2,0-0.5,0-0.7c-0.7-3.1-1.7-6-2.8-8.9c0.3,0.5,0.6,0.9,0.9,1.4
		c0.6,1.1,2.3,0.3,1.9-0.9c1-0.7,1.5-2.2,0.5-3.3c-3-3.4-6.2-6.6-9.7-9.5c0-0.4-0.2-0.9-0.5-1.3c-8.7-9.4-18.8-15.8-31.6-17.7
		c-2.2-0.3-4,2.8-1.7,3.9c-2.9,0.3-5.8,1.2-8.7,1.8c-1.7,0.1-3.4,0.2-5.2,0.1c-0.5,0-0.8,0.2-0.9,0.6c-1.3,0-2.6-0.2-3.9-0.5
		c-2.7-0.8-3.8,3.4-1.1,4.1c3.6,1,6.9,0.6,10.5,0c9.9-1.7,16.8-2.3,26.1,2.3c0.2,0.1,0.3,0.2,0.5,0.3c1.6,0.9,3.1,1.9,4.6,2.9
		c10.1,7.5,15.3,19.9,18.6,31.8C516.8,343.9,521,342.8,520.2,340.1z"/>
	<path fill="#F8E7D4" d="M546.5,250.9c-0.6,0.6-1.3,1.1-1.9,1.6c-0.4,0-0.8,0-1.2,0.2c-6,2.7-11.8,5.8-17.4,9.3c-2.2,1-4.4,2-6.3,3
		c-8.6,4.6-13.1,12.5-20.7,18.2c-1.5,1.1-1,3.1,0.1,3.8c-1.5,2.1-2.9,4.3-4.1,6.6c-1.3,2.4,2.4,4.6,3.7,2.2
		c7.3-13.2,18.3-23.2,30.9-30.9c7-3.1,14.6-5.8,20-10.9C551.6,252,548.5,249,546.5,250.9z"/>
	<path fill="#F8E7D4" d="M587,286c-0.6,0.7-1.2,1.4-1.8,2c-11.7,8-20.5,19-29.4,29.8c-4.2,5-8.5,9.8-12.1,15.3
		c-4.1,6.4-6.4,13.7-10.8,19.9c-0.9,1.3-0.1,2.5,1.1,3c-0.6,1-1.2,2.1-1.8,3.1c-1.4,2.4,2.3,4.6,3.7,2.2
		c6.9-12.2,14.2-24.1,22.3-35.6c8.9-12.7,19.8-23,29.9-34.5c0,0,0,0,0.1,0c0.4-0.3,0.6-0.6,0.8-0.9c0.4-0.4,0.7-0.8,1.1-1.2
		C591.8,286.9,588.8,283.9,587,286z"/>
	<path fill="#F8E7D4" d="M621.5,248.5c-1.6,5.1-8.8,8.8-13,11.6c-4.1,2.8-8.6,5.3-12.2,8.7c-1,1,0.5,2.5,1.5,1.5
		c4.7-4.4,10.7-7.6,15.9-11.2c3.6-2.5,8.4-5.6,9.8-10C624,247.8,621.9,247.2,621.5,248.5z"/>
	<path fill="#F8E7D4" d="M643.5,252.6c-7.7,5.5-16.3,9.6-25.2,12.8c-1.3,0.5-0.7,2.5,0.6,2.1c9-3.2,17.9-7.4,25.7-13
		C645.7,253.6,644.6,251.8,643.5,252.6z"/>
	<path fill="#F8E7D4" d="M655.3,262.3c-0.1,0-0.1,0-0.2,0c-1.1,0-1.8,0.7-2,1.6c-8.5,5.6-19.4,7.1-28.6,11.1
		c-2.5,1.1-0.3,4.8,2.2,3.7c9.9-4.2,21.1-5.8,30-12c0.3-0.1,0.5-0.2,0.8-0.3c0.3-0.2,0.5-0.4,0.5-0.6c0.1-0.1,0.2-0.1,0.3-0.2
		C660.4,263.7,657.4,260.7,655.3,262.3z"/>
	<path fill="#F8E7D4" d="M628.2,503.3c1.1-6.7,1.4-13.6,0.5-20.4c-0.1-2.2-0.2-4.4-0.6-6.6c-0.1-0.7-0.5-1.1-0.9-1.4
		c-0.1-0.3-0.1-0.5-0.2-0.8c-0.7-2.7-4.8-1.5-4.1,1.1c0.7,2.8,1.3,5.6,1.6,8.4c0.3,10.1-2.1,20.5-4,30.2c-0.3,1.7-0.7,3.3-1.1,5
		c-3.1,7.8-7.5,15.2-12.7,21.6c-0.6,0.8-0.6,1.6-0.3,2.3c-0.5,0.5-1,1.1-1.5,1.6c-1.9,2,1.1,5,3,3c0.1-0.2,0.3-0.3,0.4-0.5
		c0.6,0.1,1.2,0,1.7-0.6c4-4.2,6.9-8.9,9.2-13.9C624.5,523.6,627.8,513.7,628.2,503.3z"/>
	<path fill="#F8E7D4" d="M700.6,491.3c-1.6,13.6-5.5,26.6-13,38.1c-4,6.2-16.1,25.2-25.5,22.1c-2.6-0.9-3.8,3.3-1.1,4.1
		c10.1,3.4,20.1-10.2,25.2-16.9c10.7-14.2,16.6-29.7,18.7-47.4C705.2,488.5,700.9,488.5,700.6,491.3z"/>
	<path fill="#F8E7D4" d="M654,554.6c-5.7,6.7-16.3,5.3-23.7,2.7c-2.6-0.9-3.7,3.2-1.1,4.1c8.8,3.2,21.2,4.1,27.9-3.8
		C658.8,555.5,655.7,552.4,654,554.6z"/>
	<path fill="#F8E7D4" d="M524.1,363.1c-1.2,0-2-0.6-2.8-1.5c-0.7-0.9-2.3-0.8-3,0c-0.9,0.9-0.7,2.1,0,3c1.4,1.8,3.5,2.7,5.8,2.8
		C526.8,367.4,526.8,363.1,524.1,363.1z"/>
	<path fill="#F8E7D4" d="M646.5,291.3c-3.6,0.8-7.8,1.1-10.3-2.1c-1.7-2.2-4.7,0.9-3,3c3.5,4.4,9.4,4.4,14.4,3.2
		C650.3,294.9,649.2,290.7,646.5,291.3z"/>
	<path fill="#EB953F" d="M674.9,267c1-1.8,1.1-3.6,0.8-5.5c-0.1-1.1-0.1-2.2-0.1-3.3c0-3.2-2.2-6-5.1-7.1c-0.2-4-0.8-8.1-1.7-12
		c-0.8-3.1-3.2-5.4-6.1-6.5c-0.4-1.6-1.3-3.2-2.9-4.6c-0.1,0-0.1-0.1-0.2-0.1c0.2-2.7-0.8-5.5-2.7-7.7c-3.8-4.4-8.6-7.6-12.9-11.5
		c-3.4-3.1-8.3-3.7-12.1-1.3c-0.9-0.7-1.9-1.3-2.8-2c-2.7-2.1-6.5-1.7-9.4-0.1c-1.7-1-3.4-1.7-5.4-2.3c-3.9-1.1-8,0.8-10.5,3.9
		c-0.5,0-1,0.1-1.5,0.3c-2.1-0.6-4.5-0.2-7,1.4c-5.6,3.9-10.9,6.4-15.9,11.3c-5.9,5.7-10.7,12.3-14.1,19.8
		c-2.8,6.2-3.6,12.6-3.5,19.3c-2.1,1.6-3.5,4-3.2,7.4c0.3,3.4,1,6.5,2.1,9.4c1.1,4.3,2.1,8.5,4.2,12.7c3.2,6.4,13.4,6.2,16.7,0
		c4.3-3.4,5.8-9.2,6.4-15c1.6-2.5,3.4-4.9,5.1-7.4c1.4-0.5,2.7-1.2,3.9-2.2c2.9-2.6,5.9-6.6,8.4-8.4c3.7-2.7,7.6-5.2,10.6-8.8
		c0.3-0.4,0.6-0.7,0.8-1.1c3.4-0.2,6.1-1.4,8.9-3.1c0.4,0.9,0.7,1.9,1,2.8c1.5,4.1,5.3,7.1,9.4,7.2c2.7,0.4,5.4-0.4,7.5-2.9
		c0.8-0.9,1.4-1.8,1.8-2.6c0,0,0.1,0,0.1-0.1c0.2-0.2,0.4-0.4,0.6-0.6c0.9,5.9,4.7,11.1,9.7,14.5c1.5,1,3.1,1.4,4.7,1.4
		c0.1,1,0.2,2,0.4,3c0.2,1.3,0.9,2.4,1.8,3.3c-1.5,1.4-2.5,3.3-2.5,5.5v0.2c-1.2,1.4-2,3.2-2.1,5.2c0,0,0,0,0,0.1
		c-0.1,0-0.2,0-0.4,0c-1.2,0.1-2.4,0.2-3.5,0.3c-0.9,0.1-1.8,0.4-2.6,0.7c-1.2-1.1-2.8-1.8-4.9-1.8c-9.7,0-9.7,15,0,15
		c1.1,0,2-0.2,2.9-0.6c0.2,0.2,0.5,0.4,0.8,0.5c-0.3,1.4-0.6,2.7-0.9,4.1c-0.1,0.4-0.1,0.7-0.1,1.1c-1.1,0.6-2.1,1.5-2.8,2.5
		c-2.4-0.1-4.7,0.9-6.3,3.5c-1.4,2.4-6.8,2.9-11.2,2.3c-0.1-0.1-0.2-0.2-0.4-0.3l0-0.1c-3.5-2.4-6.8-3.4-11-3.9
		c-2.7-0.4-4.9,1.1-6.1,3.2l-0.3,0.1c-1.2-0.4-2.6-0.5-4.2-0.1c-3.9,1-5.8,2.9-7,6.7c-2,6,4,10,9.2,9.3c1.9-0.3,3.6-0.8,5.3-1.3
		c0.7-0.2,2.6-0.6,3.8-1c11.1,4.9,27.3,3.4,34.1-6.3c0.1,0,0.1,0,0.2,0c3.9,0,7.2-3.1,7.5-7c1.9-0.9,3.4-2.5,3.7-4.6
		c0.5-2.9,1.5-5.9,1.5-8.9c0.2-0.1,0.4-0.2,0.6-0.3c5-2.7,6.6-7.7,7.1-13c1.3-1.4,2.2-3.2,2.2-5.2v-0.4c0-2-0.8-3.8-2.1-5.2
		C674,268.2,674.5,267.6,674.9,267z"/>
	<path fill="#CC7F38" d="M584.3,281.6c-7.7-1.7-15.2-6.2-20.3-12.1c-3.4-4-8.9,1.2-6.6,5.3c-0.5,1.3-0.3,2.8,1.3,4
		c1.9,1.5,3.9,3,5.9,4.4c-0.4,1.3-0.3,2.8,0.9,4.2c2.4,2.8,4.8,5.1,8.6,5.4c3.1,0.3,6-2.3,9.1-2.7
		C587.6,289.5,589.4,282.7,584.3,281.6z"/>
	<path fill="#CC7F38" d="M676.1,266.7c-1.4-0.1-2.8,0.4-3.9,1.8c-0.8,1.1-1.8,2.1-2.7,3.1c-1.4-1.6-2.7-3.3-3.8-5.1
		c-0.9-2.1-1.9-4-3.3-5.5c-0.3-0.5-0.6-1.1-0.9-1.6c-0.3-0.6-1-0.6-1.5-0.3c-1.3-0.8-2.9-1.1-4.6-1c-1.1-4.8-3.7-9.9-8.6-11.6
		c-4.5-1.5-8.7-0.2-12.3,2.4c-1.3-3-3.9-5-6.8-6.6c0,0-0.1-0.1-0.1-0.1c-0.1-0.1-0.2-0.1-0.2-0.1c-0.2-0.1-0.3-0.2-0.5-0.3
		c-1.2-0.6-2.3,1.2-1.1,1.9c0.3,0.1,0.5,0.3,0.8,0.4c2.3,1.7,4.5,3.5,6.1,5.8c0,0.1,0.1,0.2,0.1,0.3c0,0,0,0,0,0
		c-0.8,0.6-0.2,1.6,0.6,1.8c0.1,0.2,0.3,0.4,0.5,0.4c0.1,0.3,0.3,0.7,0.3,1c0.3,1.3,2.4,0.8,2.1-0.6c-0.2-0.7-0.5-1.4-0.8-2.1
		c3.3-2.4,7.3-3.7,11.3-1.9c0.7,0.3,1.3,0.7,1.9,1.2c-0.3,0.3-0.4,0.7-0.1,1.2c1.8,2.3,3.4,4.7,4.6,7.4c0,0,0,0,0,0
		c-1.3,0.4-0.8,2.5,0.6,2.1c0.1,0,0.1,0,0.2,0c0.1,0.2,0.2,0.5,0.3,0.7c0.4,1.3,2.5,0.8,2.1-0.6c-0.1-0.2-0.1-0.3-0.2-0.5
		c1.8,0,3.3,0.7,4.5,1.8c0.9,1.6,1.9,3.3,2.9,4.9c0.1,3,0.8,5.8,1.8,8.6c-2.1,1.7-4.4,3.3-6.7,4.7c-4.9,1.4-10.3,1.5-15.1,1.5
		c-4.7,0-6,7.6-1.1,8.4c2.4,0.4,4.8,0.6,7.2,1.1c0.7,0.1,1.5,0.4,2.4,0.7c0,0.3,0,0.6,0,0.9c-0.4,1.5-1,2.9-1.7,4.3
		c-0.9,1.9-0.4,3.8,0.7,5c-0.5,0.5-1.1,0.9-1.7,1.3c-1.5-0.7-3.3-0.7-4.8,0.7c-2.3,2.1-4.9,3.5-7.6,4.4c-0.1,0-0.1,0-0.2,0
		c-0.4,0-0.7-0.1-1.1-0.1c-0.2-1.4-1.2-2.6-3.1-2.9c-4.1-0.7-8-1.1-12-0.8c-6.6-0.9-12.2,1.7-18.2,4.5c-2.2,1-2.6,4-1.5,5.9
		c3.7,7.1,11.2,5.8,17.7,4.1c0.9-0.2,1.6-0.7,2.1-1.2c0.7,0.5,1.5,0.9,2.5,1c5.7,0.7,11.5,0.2,16.9-1.9c0.8-0.3,1.4-0.8,1.8-1.3
		c2-0.8,3.9-1.9,5.8-3.2c1.1,0.5,2.4,0.6,3.8-0.2c10.2-5.9,16.6-16.8,19.2-28.1c0.6-0.3,1.1-0.5,1.6-0.9c1.4-1,2.3-2.6,2.1-4.3
		c0.8-0.8,1.5-1.6,2.3-2.4c0.1-0.5,0.2-0.9,0.3-1.4C676.4,272.5,676.1,269.6,676.1,266.7z"/>
	<path fill="#AF6C34" d="M662.3,277.5c-0.3-0.1-0.6-0.2-0.9,0.1c-0.5,0.4-1.1,0.8-1.6,1.2c-2.7,1.4-5.6,3.1-8.7,2.7
		c-0.7-0.1-1.2,0.4-1.3,0.9c-3.4,0.9-6.6,3.2-10,4.1c-1.3,0.3-0.8,2.4,0.6,2.1c0.5-0.1,0.9-0.3,1.3-0.4c0.1,0.1,0.3,0.1,0.5,0.1
		c4.6-0.4,9.2-2.1,13.4-4.4c0.1,0,0.2,0,0.4-0.1c3.6-0.5,7.1-2.1,8.4-5.7C664.9,276.8,662.8,276.3,662.3,277.5z"/>
	<path fill="#AF6C34" d="M653.3,293.3c-0.3-1.4-2.3-0.8-2.1,0.6c0.1,0.5,0.1,1,0.1,1.5c-0.4,0-0.8,0.2-0.9,0.8
		c-0.9,5.4-4.8,9.1-9.6,10.6c1-0.6,2-1.2,3-1.9c1.1-0.8,0-2.7-1.1-1.9c-2.8,2.1-6.1,3.9-9.5,4.4c-0.1-0.6-0.6-1.1-1.3-0.9
		c-0.5,0.1-1.1,0.3-1.6,0.4c-0.3-0.1-0.6,0-0.8,0.1c-0.4,0.1-0.8,0.1-1.2,0.2c-1-0.3-2-0.7-3-1.3c-1-0.6-1.8,0.5-1.5,1.3
		c-2.5-0.2-5-0.8-7.3-1.8c1.9-0.6,3.9-1.1,6-1.5c1.4-0.2,0.8-2.3-0.6-2.1c-2.5,0.4-4.8,1.1-7.1,1.9c-0.3-0.2-0.6-0.2-0.9,0
		c-2.9-0.5-6.3,2.1-8.9,4.3c-0.4,0-0.8,0.2-1,0.7c0,0.1,0,0.1-0.1,0.2c-0.5,0.4-0.9,0.8-1.3,1.1c-0.6-0.7-1.7-0.2-1.8,0.7
		c0,0,0,0,0,0c-0.9-0.8-2.2,0.3-1.8,1.1c-0.1,0.3-0.1,0.6,0.1,0.9c0.1,0.1,0.2,0.3,0.3,0.4c-0.3,0.3-0.6,0.5-0.9,0.8
		c-0.5,0.5-0.4,1.1,0,1.5c0,0.9,1.4,1.5,2,0.5c0.2-0.3,0.4-0.5,0.6-0.7c0.8,0.9,1.6,1.7,2.5,2.4c0.1,0.3,0.2,0.6,0.3,0.9
		c0.2,0.6,0.8,0.8,1.2,0.7c0.3,0.3,0.5,0.6,0.8,0.9c0.5,0.4,1,0.3,1.4,0c2,1.1,4.2,1.8,6.6,2c5,1.8,10.5,2.1,14.9,0.4
		c1.3-0.5,0.7-2.6-0.6-2.1c0,0-0.1,0-0.1,0c-0.1-0.4-0.3-0.7-0.8-0.7c-6.8-1.1-14.1-2.3-20.5-5.3c-0.2-0.6-0.2-1.3,0-2.1
		c0.7-3.1,4-4.4,6.6-5.9c5.9,4,13.9,3.9,20.9,3.9c0.5,0,0.7-0.3,0.9-0.6c5.5,0.1,11-2.2,14.3-6.4c0.4,0.3,0.9,0.3,1.3-0.1
		C653.2,300.4,654,297,653.3,293.3z M616.7,320.7c-0.1-0.4-0.5-0.6-1-0.6c-0.4,0-0.8,0-1.2,0c-0.4-0.1-0.8-0.3-1.2-0.5
		c0.2-0.1,0.3-0.2,0.4-0.4c3.5,0.9,7,1.6,10.6,2.2C621.9,321.7,619.2,321.4,616.7,320.7z"/>
	<path fill="#EFDACB" d="M676.2,258c-12.8-29.8-36.7-58.4-71.6-56.4c-4.1,0.2-4.2,6.7,0,6.4c37.5-2.1,60.9,34.6,70.7,66
		c0.3,0.9,0.8,1.5,1.5,1.9C676.1,270,675.8,263.9,676.2,258z"/>
	<path fill="#7D7DB7" d="M591,513.7c-1.5-0.4-3.1-0.3-4.5,0.1c-0.8-0.5-1.6-1-0.4,0c-1.8-1.5-3.9-2.4-6-2.6c1.6-2.5,1.7-5.7-0.7-9
		c-5.8-7.6-10.5-15.7-14.7-24.3c-3-6.1-8.6-15.7-9.1-22.7c-0.5-8.2-9.2-11-14.7-8.3c-1.1-2.6-2.2-5.2-3.3-7.8
		c-1.2-4.4-2.1-8.9-3.1-13.4c0.3-0.6,0.4-1.3,0.2-2.1c-3.9-14.3-6.7-28.7-5.6-43.5c0.1-0.7-0.1-1.3-0.4-1.8
		c0.5-4.6,1.4-9.1,2.8-13.5c1.2-4-5-5.7-6.2-1.7c-0.3,1.1-0.6,2.1-0.9,3.2c-0.8,0.3-1.5,1-1.6,2.2c-0.6,3.9-1,7.9-1.2,11.8
		c-0.2,0.4-0.3,0.8-0.4,1.2c-0.1,1.3-0.2,2.6-0.3,3.9c-0.8,0.3-1.5,1-1.8,2.1c-3,12.3-0.5,24.8-0.3,37.2c0.1,7.8,0,17.7,4.1,24.9
		c-0.9,1-1.7,2.1-2.1,3.5c-0.5,1.4-2.2,2.6-3.2,3.6c-1,1.3-1.4,1.7-1.2,1c1.5-1-0.9,0-1.3,0.1c-2.3,0.5-5.3,1-7.9,2.5
		c-1.1-1.4-2.5-2.6-4.2-3.3c-0.7-0.3-1.5-0.5-2.2-0.6c-0.7-0.9-1.3-1.9-2-2.8c-1-1.4-2.3-2.5-3.6-3.3c0,0,0,0,0-0.1
		c-0.6-1.9-1.7-3.3-2.9-4.4c-4.4-11-8.9-22-12.6-33.3c-0.2-0.7-0.6-1.1-1-1.5c-0.1-0.6-0.2-1.3-0.3-1.9c-0.1-1-0.6-1.7-1.2-2.2
		c-0.8-3-6-2.6-6.4,1.1c-0.6,6.8,1.5,13.2,3,19.8c1.3,6.2,3.1,12.2,5,18.3c-2.3,2.1-3.5,5.3-2.2,9.2c1.6,4.8,3.7,9.2,6,13.4
		c-0.4,2.2-0.1,4.2,0.7,5.9c-1.4,2.7-1.6,5.8,0.3,8.8c2.3,3.6,4.4,7.1,6.5,10.6c2.4,8.7,5.9,17.1,9,25.6c5,13.6,10.8,27.7,21.8,37.7
		c4.1,3.8,12.6,4.1,15.2-2c1-2.3,7.2-3.4,9.4-4.4c0.9-0.4,1.6-0.9,2.3-1.4c1.7,0.7,3.8,0.9,6.2,0.3c7.7-2.1,14.9-5.4,22.4-7.9
		c2.3,0.9,4.9,0.9,7.2,0c4,0,8.2-0.3,11.9-1.8c3.6-1.5,6.4-4.3,7-7.9c2.1-1.9,3.4-4.7,3.3-7.6c0.1-0.3,0.3-0.6,0.4-0.9
		C609.6,514,597.8,508.9,591,513.7z"/>
	<path fill="#68689B" d="M503.6,528.9c-0.2-1-0.5-1.9-0.7-2.9c0-0.1-0.1-0.2-0.1-0.2c-1.7-7.7-0.9-16.5-2.3-24.5
		c-1-11-3.2-21.6-9.9-30.7c-0.2-0.3-0.5-0.4-0.8-0.4c-1.9-4.9-3.6-9.9-5.4-14.8c-0.6-3-1.2-6-1.8-8.9c-0.9-6.7-2.5-13.3-3.7-20
		c-0.1-0.4-0.3-0.6-0.6-0.7c-0.3-1.6-0.6-3.1-0.8-4.7c0-0.2-0.1-0.4-0.3-0.5c-0.3-2.1-0.7-4.2-1.2-6.2c0-1,0.1-2,0.2-3
		c0.5-0.1,0.9-0.6,0.9-1.2c0.6-0.2,1-0.8,0.6-1.5c-0.7-1.3-0.2-1.7-1.7-2.3c-0.5-0.2-1.2,0.2-1.3,0.8c-0.1,0.4-0.1,0.7-0.2,1.1
		c-0.1,0-0.1-0.1-0.2-0.2c0-0.1,0-0.1-0.1-0.2c-0.3-0.8-1.1-0.9-1.7-0.6c-0.6,0-1.1,0.3-1.1,1c0,0.5-0.3,0.9-0.3,1.3
		c-0.1,0.7,0.5,1.4,1.1,1.4c0.3,8.3,0.5,16.7,1.7,25c0.2,1.2,2.1,0.9,2.1-0.3c0-0.9,0-1.9,0-2.8c0.4,1.2,0.8,2.5,1.2,3.7
		c0.4,3,0.9,6,1.4,9c-0.4,0.2-0.6,0.6-0.5,1.2c0.3,1.2,0.6,2.5,1,3.7c0.1,3.1,1,6.1,2.2,9.1c0.2,1,0.4,2,0.7,3
		c-0.5-0.9-2.1-0.8-2,0.4c0,0.1,0,0.3,0,0.4c-0.6,0-1.1,0.3-1.1,1c0.6,13.7,4.6,27.4,10.9,39.6c0.5,0.9,1.5,0.6,1.9-0.1
		c0.2,1,0.5,2,0.7,2.9c0.3,5.1,1.2,10.2,3.5,14.8c0.4,0.8,1.7,0.6,2-0.3c0.1-0.4,0.2-0.8,0.2-1.2c0,0.4,0.1,0.8,0.2,1.2
		c0.1,0.8,0.9,1.1,1.5,0.9c0.2,3.1,0.5,6.1,1,9c0.2,1.4,2.3,0.8,2.1-0.6c0-0.2,0-0.3-0.1-0.5C503.3,530.1,503.8,529.6,503.6,528.9z"
		/>
	<path fill="#68689B" d="M585.7,513.5c-0.7,0.2-1.5,0.1-2.3-0.2c-0.1-0.1-0.2-0.2-0.2-0.3c0.3-0.5,0.3-1.1-0.3-1.5
		c0,0-0.1,0-0.1-0.1c-0.5-0.4-1.2-0.1-1.5,0.4c-0.1,0.2-0.2,0.3-0.3,0.5c-2.4-1.4-4.8-3.5-6.4-4.4c0,0,0,0,0,0
		c-1.3-3.5-2.8-6.9-3.8-10.4c-0.4-1.3-2.5-0.8-2.1,0.6c1,3.4,2.3,6.7,3.6,10.1c-0.4-0.1-0.8,0.2-1,0.6c0,0,0,0,0,0
		c0.2-0.3,0.3-0.7,0-1.1c-3.1-5.1-4-11.1-6.4-16.5c-0.6-1.3-2.4-0.2-1.9,1.1c2.2,5,3.2,10.5,5.8,15.4c-0.6,0.3-0.9,1-0.3,1.7
		c0.2,0.2,0.3,0.3,0.4,0.5c-0.3-0.1-0.6-0.2-0.8-0.3c-0.5-0.4-1-0.9-1.6-1.3c0.2-0.2,0.3-0.5,0.2-0.9c-2.5-6.7-3.3-13.8-6.1-20.4
		c-0.5-1.3-2.6-0.7-2.1,0.6c2.7,6.4,3.6,13.4,5.9,20c-0.3,0.1-0.5,0.3-0.6,0.6c-0.4-0.2-0.8-0.1-1.1,0.2c-0.3-0.2-0.5-0.5-0.8-0.7
		c-0.4-0.5-0.9-0.9-1.3-1.4c-0.2-0.2-0.4-0.2-0.6-0.3c-0.2-0.1-0.3-0.3-0.5-0.4c-0.7-0.6-1.4-0.2-1.7,0.3c-0.5-0.5-1-0.9-1.5-1.4
		c-0.2-0.2-0.4-0.2-0.6-0.3c-0.3-0.3-0.5-0.5-0.8-0.8c-0.8-0.9-2.4,0.3-1.7,1.3c0.1,0.1,0.1,0.1,0.2,0.2c0,0,0,0,0,0
		c0,0,0.1,0.1,0.1,0.1c2,2.6,4.2,5,6.4,7.4c0.5,0.6,1.2,0.4,1.5-0.1c0.3,0.2,0.5,0.4,0.8,0.6c0.4,0.4,0.9,0.8,1.3,1.3
		c0.2,0.2,0.5,0.3,0.8,0.3c0.6,0.4,1.2,0.9,1.9,1.3c0.6,0.4,1.1,0.1,1.4-0.3c0,0,0,0,0,0c1.1,0.9,2.3,1.7,3.6,2.5
		c0.9,0.5,2.1-0.5,1.5-1.5c-0.3-0.4-0.6-0.8-0.9-1.2c1,0.6,2.1,1.1,3.3,1.6c0,0,0,0,0.1,0l0,0c0,0,0.1,0,0.1,0.1
		c0.2,0.1,0.4,0.2,0.6,0.3c0.6,0.3,1.2,0,1.5-0.5c0.2,0.1,0.4,0.1,0.6,0.2c0.6,0.2,1-0.1,1.2-0.5c0.3-0.2,0.5-0.5,0.5-0.8
		c0.1,0,0.1,0.1,0.2,0.1c0.2,0.1,0.5,0.1,0.7,0.1c0,0,0.1,0,0.1,0c0.4,0.2,0.8,0.4,1.2,0.6c0.1,0.1,0.2,0.1,0.3,0.2
		c0.2,0.2,0.5,0.3,0.8,0.3c0,0,0,0,0,0c0.2,0.1,0.4,0.1,0.6,0c0.5,0.1,1,0.3,1.5,0.3c1,0.2,1.6-0.9,1.3-1.6
		C587.5,514.8,586.9,513.2,585.7,513.5z"/>
	<path fill="#68689B" d="M541.3,552.5c-0.1-2-0.3-4-0.6-6c0-1.3-0.1-2.7-0.1-4c0-0.5-0.3-0.9-0.7-1c-0.1-0.3-0.1-0.6-0.1-0.9
		c-0.2-2-0.4-4-0.6-6c-0.1-1.4-2.2-1.4-2.2,0c0,0.3,0,0.5,0,0.8c-0.5,0-0.9,0.2-1.1,0.7c-0.6-0.1-1.1,0.3-1.1,1v6.1
		c-0.1,1.1-0.2,2.1-0.4,3.2c-0.1,0.1-0.2,0.3-0.3,0.4c-0.8,2.1-1.2,4.1-1.4,6.2c-0.5,1-0.9,2-1.2,3.1c-0.6,0.1-1.2,0.6-1,1.3
		l0.4,1.8c0.2,1,1.5,1,2,0.3c0.8-1.3,1.3-2.5,1.7-3.8c0.1-0.1,0.2-0.2,0.2-0.4c0.1-0.3,0.1-0.6,0.2-0.9c0.3,0.5,1,0.6,1.5,0.4
		c-0.2,0.6-0.4,1.1-0.6,1.7c-0.3,1.2,1.4,1.8,1.9,0.9c0.5,0.6,1.6,0.6,1.9-0.3c0.4-1.3,0.7-2.4,0.9-3.7
		C541,553.3,541.3,552.9,541.3,552.5z"/>
	<path fill="#68689B" d="M567.9,544.4c-1.1-0.7-2.1-1-3-0.9c-0.9-0.7-1.9-1.3-2.8-2c-0.2-1.1-0.3-2.2-0.6-3.3
		c-0.3-1.2-2.1-0.9-2.1,0.3c0,0.2,0,0.4-0.1,0.6c-0.1-0.1-0.2-0.2-0.2-0.3c-0.2-1.7-0.4-3.3-0.4-5c0-1.2-1.9-1.5-2.1-0.3
		c0,0.1,0,0.2,0,0.3c0,0,0,0,0,0c0,0,0,0,0,0c0,0.3-0.1,0.7-0.1,1c-0.3-0.5-0.8-0.7-1.2-0.6c-0.1-0.4-0.1-0.7-0.2-1.1
		c-0.2-1-1.8-1-2.1,0c0,0,0,0-0.1,0c-0.1-0.7-0.3-1.4-0.4-2.1c-0.2-1.2-2.1-0.9-2.1,0.3c0.1,3.3,0.7,6.4,1.3,9.6
		c0,0.6,0.1,1.2,0.1,1.9c0,0.4,0.2,0.7,0.5,0.9c0.2,0.4,0.7,0.6,1.1,0.5c0.1,0.8,0.1,1.6,0.1,2.4c-0.1,0.6-0.3,1.2-0.3,1.9
		c0,0.7,0.5,1.1,1.1,1c0.5,0.6,1.6,0.6,1.8-0.4c0.1-1,0.3-1.9,0.4-2.9c0.3-0.1,0.5-0.3,0.7-0.7c0.3-0.9,0.5-1.7,0.6-2.6
		c0.2,0.6,0.4,1.2,0.6,1.8c0.4,0.9,1.5,0.6,1.9-0.1c0.1,1,0.3,2,0.5,3.1c0.2,0.9,1.5,1,2,0.3c0.4-0.8,0.9-1.7,1.6-2.1
		c0.2,0.1,0.3,0.2,0.5,0.4c0.5,0.4,1,0.2,1.3-0.3c0.2,0.1,0.3,0.1,0.5,0.3C568,547,569.1,545.2,567.9,544.4z"/>
	<path fill="#68689B" d="M528,372.4c-1.1,4-2.5,7.9-3.6,11.8c-0.4,1.3,1.7,1.9,2.1,0.6c1.1-4,2.5-7.9,3.6-11.8
		C530.5,371.7,528.4,371.1,528,372.4z"/>
	<path fill="#68689B" d="M528.4,381.4c-1.1,3-2.1,6-3.2,9c-0.5,1.3,1.6,1.9,2.1,0.6c1.1-3,2.1-6,3.2-9
		C531,380.7,528.9,380.1,528.4,381.4z"/>
	<path fill="#68689B" d="M530,391.2c0.3-1.3,0.7-2.6,1.2-3.8c0.5-1.3-1.5-1.8-2.1-0.6c-1.3,3.2-1.5,6.7-3.1,9.8
		c-0.6,1.1,0.9,2.1,1.6,1.4c-0.4,1.3-0.7,2.6-1,3.9c-0.3,1.3,1.8,1.9,2.1,0.6c0.8-3.4,1.8-6.7,2.9-10
		C531.9,391.3,530.7,390.8,530,391.2z"/>
	<path fill="#68689B" d="M530.2,397.9c-0.8,2.7-1.5,5.5-2.1,8.2c-0.3,1.3,1.7,1.9,2.1,0.6c0.7-2.8,1.4-5.5,2.1-8.2
		C532.6,397.1,530.6,396.5,530.2,397.9z"/>
	<path fill="#68689B" d="M530.9,404c-0.7,3.6-1.8,7.1-2.5,10.7c-0.3,1.4,1.8,1.9,2.1,0.6c0.7-3.6,1.8-7.1,2.5-10.7
		C533.3,403.2,531.2,402.6,530.9,404z"/>
	<path fill="#68689B" d="M531.6,410.4c-0.7,3.8-1.4,7.6-2.1,11.5c-0.2,1.4,1.8,1.9,2.1,0.6c0.7-3.8,1.4-7.6,2.1-11.5
		C533.9,409.6,531.9,409,531.6,410.4z"/>
	<path fill="#68689B" d="M533.1,418.6c-1,3.3-1.4,6.7-2.2,10c-0.3,1.4,1.8,1.9,2.1,0.6c0.7-3.4,1.1-6.8,2.1-10
		C535.5,417.9,533.5,417.3,533.1,418.6z"/>
	<path fill="#68689B" d="M525.1,448.5c0.7,0.3,1.7-0.3,1.5-1.3c-0.9-3.3-2-6.5-3.2-9.7c0.7,0.7,2.2,0.1,1.8-1
		c-1.2-3.1-2.5-6.2-3.4-9.4c0.7,0.1,1.5-0.4,1.2-1.3c-0.5-1.5-0.9-2.9-1.4-4.4c0.7,0.1,1.5-0.4,1.4-1.3c-0.7-4.3-2.8-8.6-3-13
		c0.3,1.4,0.6,2.8,0.9,4.3c0.3,1.4,2.4,0.8,2.1-0.6c-0.5-2.5-1.1-4.9-1.5-7.4c0.6,0.3,1.6,0,1.6-0.9c-0.1-6.5-1-12.9-1.1-19.3
		c0-1.4-2.2-1.4-2.1,0c0,3.9,0.4,7.8,0.7,11.6c-0.2-1.2-2.1-1.2-2.1,0.2c0,2.8,0.4,5.6,0.9,8.3c-0.5-0.1-1.1,0.1-1.2,0.7
		c-0.4,2.2-0.2,4.4,0.3,6.5c-0.4,0.1-0.7,0.4-0.7,1c0.1,3.5,0.8,6.8,1.8,10.1c-0.4,0.1-0.8,0.4-0.7,1c0.4,4.4,1.9,8.4,3.5,12.4
		c-0.8-0.5-2,0-1.7,1.1c0.3,0.9,0.7,1.9,1,2.8c-0.7-0.5-1.9,0.1-1.7,1.2c0.2,0.9,0.4,1.9,0.7,2.8c0,0,0,0.1,0,0.2
		c0,3.5,0.7,6.9,1.1,10.4c0.1,1.4,2.3,1.4,2.1,0c-0.1-1.2-0.3-2.4-0.5-3.6c0.3,0.7,0.6,1.3,1,2c0.6,1.2,2.5,0.2,1.9-1.1
		C525.7,449.9,525.4,449.2,525.1,448.5z"/>
	<path fill="#68689B" d="M538,473.4c-0.1-1.4-2.3-1.4-2.2,0c0.4,3.8,0.7,7.6,1.5,11.4c0.3,1.4,2.3,0.8,2.1-0.6
		C538.7,480.6,538.4,477,538,473.4z"/>
	<path fill="#68689B" d="M541.2,475.2c-0.3-1.4-2.4-0.8-2.1,0.6c0.7,3.3,1.4,6.7,1.8,10.1c0.1,1.4,2.3,1.4,2.1,0
		C542.7,482.3,542,478.7,541.2,475.2z"/>
	<path fill="#68689B" d="M544.4,477.7c-0.3-1.3-2.4-0.8-2.1,0.6c1,4.3,1.7,8.6,1.8,13c0,1.4,2.2,1.4,2.1,0
		C546.2,486.7,545.5,482.2,544.4,477.7z"/>
	<path fill="#68689B" d="M550.5,483.1c-0.3-0.9-1.3-0.9-1.8-0.4c-0.2-1.1-0.4-2.1-0.7-3.2c-0.3-1.4-2.4-0.8-2.1,0.6
		c1,4.5,1.7,9.1,2.1,13.7c0.1,1.4,2.3,1.4,2.1,0c-0.2-1.9-0.4-3.8-0.7-5.7c0.6,2.6,1.1,5.2,1.4,7.9c0.1,1.4,2.3,1.4,2.1,0
		C552.7,491.6,551.7,487.3,550.5,483.1z"/>
	<path fill="#68689B" d="M558,500.6c-1.4-5.3-2.8-10.7-3.9-16.1c-0.3-1.4-2.3-0.8-2.1,0.6c1.1,5.4,2.5,10.8,3.9,16.1
		C556.3,502.5,558.4,502,558,500.6z"/>
	<path fill="#68689B" d="M562.3,501.7c-1.8-5.2-3.3-10.5-5-15.8c-0.4-1.3-2.5-0.8-2.1,0.6c1.7,5.2,3.2,10.6,5,15.8
		C560.7,503.6,562.8,503,562.3,501.7z"/>
	<path fill="#68689B" d="M519.8,544.3c-4.8-1-7.6-5.8-10.8-9.1c-1-1-2.5,0.5-1.5,1.5c3.5,3.6,6.5,8.6,11.8,9.7
		C520.6,546.6,521.1,544.6,519.8,544.3z"/>
	<path fill="#68689B" d="M520.8,540.1c-3.6-2.3-6.8-5-9.7-8.2c-0.9-1-2.5,0.5-1.5,1.5c3,3.3,6.4,6.1,10.2,8.5
		C520.9,542.7,522,540.9,520.8,540.1z"/>
	<path fill="#68689B" d="M522.5,535.7c-4.8-1.5-9-5-12.1-8.9c-0.9-1.1-2.4,0.5-1.5,1.5c3.4,4.2,7.9,7.7,13.1,9.4
		C523.2,538.2,523.8,536.1,522.5,535.7z"/>
	<path fill="#68689B" d="M524.6,531.2c-5.2-2.6-9.6-6.2-13.7-10.3c-1-1-2.5,0.5-1.5,1.5c4.2,4.2,8.8,8,14.2,10.6
		C524.8,533.7,525.8,531.9,524.6,531.2z"/>
	<path fill="#68689B" d="M527,528.6c-5.4-3.8-11.2-7.2-15.4-12.5c-0.9-1.1-2.4,0.4-1.5,1.5c4.3,5.4,10.2,8.9,15.8,12.8
		C527.1,531.2,528.1,529.3,527,528.6z"/>
	<path fill="#68689B" d="M533.5,525.2c-9.3-3.4-15.8-11.9-22.4-19.1c-0.9-1-2.4,0.5-1.5,1.5c6.8,7.5,13.5,16,23.3,19.6
		C534.2,527.8,534.8,525.7,533.5,525.2z"/>
	<path fill="#68689B" d="M540.3,525c-0.1-0.2-0.1-0.4-0.2-0.6c-0.3-0.9-1.2-0.9-1.8-0.5c-1.6-0.7-4-2.7-5-3.3
		c-2.8-1.7-5.3-3.7-7.9-5.7c-2.2-1.6-9.4-5.2-9.4-8.2c0-1.4-2.1-1.4-2.1,0c0,3.8,6.1,6.9,8.7,8.8c3.2,2.3,6.4,4.7,9.7,6.9
		c1.7,1.1,4.9,3.8,7,3.9C540,526.4,540.5,525.6,540.3,525z"/>
	<path fill="#68689B" d="M539.9,519.7c-10.1-5.4-17.2-14.9-26.1-21.9c-0.9-0.7-2.3,0.2-1.7,1.3c0.9,1.7,2.1,3.2,3.2,4.8
		c0.6,0.8,1.8,0.4,2-0.3c6.9,6.3,13.1,13.4,21.5,17.8C540,522.2,541.1,520.3,539.9,519.7z"/>
	<path fill="#68689B" d="M542.6,517C542.6,517,542.5,517,542.6,517c-0.1-0.1-0.1-0.1-0.2-0.1c-0.2-0.3-0.4-0.5-0.7-0.5
		c-7.1-5.4-13.9-11.2-20.4-17.4c-1-1-2.5,0.6-1.5,1.5c3.4,3.2,6.9,6.4,10.4,9.4c2,1.7,4,3.4,6.1,5c0.1,0.1,3.2,2.4,4.3,3
		c0,0,0,0,0,0c0.2,0.4,0.4,0.6,0.7,0.9c0.7,0.7,1.7,0.1,1.8-0.8c0-0.1,0-0.1,0-0.2C543.2,517.5,542.9,517.2,542.6,517z"/>
	<path fill="#68689B" d="M546.8,509.9c-3.2-2.7-6.7-5.1-9.9-7.8c-1-0.8-2.5,0.5-1.6,1.4c-0.9-0.8-1.9-1.6-2.7-2.5
		c-0.9-1-2.5,0.5-1.5,1.5c3.2,3.5,7.6,5.6,10.9,9c0,0,0,0,0,0c-5.2-4.1-10.5-8-15.3-12.6c-1-1-2.5,0.5-1.5,1.5
		c5.6,5.4,12,9.9,18,14.8c0.9,0.8,2.1-0.2,1.8-1.1c0.7-0.1,1.2-0.8,0.7-1.5c-0.7-1-1.6-1.9-2.5-2.8c0.7,0.5,1.4,1.1,2.1,1.7
		C546.4,512.3,547.9,510.8,546.8,509.9z"/>
	<path fill="#68689B" d="M510.6,463c-3-1.8-5.8-4-7.9-6.9c-0.8-1.1-2.7,0-1.9,1.1c0.2,0.2,0.4,0.4,0.5,0.6c-0.3,0-0.6,0.2-0.7,0.4
		c-0.1-0.2-0.3-0.4-0.5-0.7c0-0.4-0.2-0.8-0.6-0.9c0-0.1-0.1-0.3-0.3-0.4c-0.4-0.4-0.8-0.7-1.3-1c-0.4-0.2-0.7-0.2-1,0
		c-0.3-1-0.5-2-0.6-3.1c-0.1-1.4-2.3-1.4-2.1,0c0.4,4.3,2.2,8.2,3.9,12.1c0.3,0.8,1.1,0.7,1.6,0.2c1.7,2.7,3.7,5.2,6.3,7.2
		c1.1,0.8,2.2-1,1.1-1.9c-1.9-1.5-3.5-3.3-4.9-5.3c0.3-0.1,0.5-0.3,0.7-0.5c1.5,2.1,3.4,3.9,5.8,5c1.2,0.6,2.3-1.3,1.1-1.9
		c-3.2-1.5-5.4-4.1-6.8-7.3c1.9,2,4.1,3.7,6.5,5.1C510.7,465.6,511.8,463.7,510.6,463z"/>
	<path fill="#D3D1E9" d="M541.2,448.7c-1-2.6-1.9-5.2-2.7-7.8c0.6,1,2.4,0.5,2-0.8c-2.6-6.5-4.8-13-6.7-19.6
		c-1.1-6.4-2-12.8-2.8-19.2c-0.9-6.9-2.1-13.9-2.3-20.9c-0.1-4.3,0.3-8.7,0-13.1c0.3-1,0.7-1.9,1.3-2.7c0.8-1.2-1.1-2.2-1.9-1.1
		c-0.5,0.7-0.8,1.4-1.2,2.2c-0.3,0.2-0.5,0.4-0.4,0.9c0,0,0,0.1,0,0.1c-2.8,7.7-0.1,18.5,0.4,26c0.6,9.6,2.3,18.8,4.7,27.9
		c1.7,9.8,3.9,19.4,7.5,28.6C539.6,450.6,541.7,450,541.2,448.7z"/>
	<path fill="#D3D1E9" d="M509.3,459.1C499,457,493,447.7,488.4,439c0-0.3,0.1-0.7,0.1-1c0.1-0.3-0.5-0.5-0.5-0.1c0,0.1,0,0.2,0,0.3
		c-0.5-1-1.1-2.1-1.7-3.2c0-0.2,0-0.4,0.1-0.5c0.1-0.3-0.3-0.4-0.5-0.2c-0.2-0.4-0.4-0.8-0.6-1.2v-0.4c0-0.2-0.2-0.3-0.3-0.2
		c-0.1-0.2-0.2-0.5-0.4-0.7c0-0.1,0-0.1,0-0.2c0-0.1-0.1-0.2-0.2-0.2c-0.1-0.2-0.2-0.3-0.3-0.5c0.5,0.7,0.9,1.4,1.4,2
		c0.8,1.1,2.7,0,1.9-1.1c-5.1-6.7-7.9-14.8-8.1-23.2c0.5-0.2,0.8-0.6,0.7-1.2c-0.1-0.9-0.3-1.7-0.7-2.5c-0.4-1-1.7-1-2,0
		c-0.3,0.1-0.6,0.3-0.7,0.7c-1.3,6.5,0.4,13.3,3,19.8c0,0,0,0,0,0.1c-0.1,0.2,0,0.3,0.2,0.4c-0.1,0.4-0.2,0.8-0.2,1.2
		c0,0.3,0.5,0.3,0.5,0c0-0.1,0-0.2,0.1-0.3c0.1,0.2,0.1,0.3,0.2,0.5c-0.1,0.4-0.2,0.7-0.4,1.1c-0.1,0.3,0.3,0.6,0.5,0.3
		c0.1-0.2,0.2-0.4,0.2-0.7c0.1,0.3,0.3,0.6,0.4,0.9c0,0.5-0.1,0.9-0.1,1.4c0,0.3,0.3,0.3,0.5,0.2c0,0.8-0.1,1.6-0.1,2.3
		c0,0.3,0.5,0.3,0.5,0c0-0.6,0.1-1.3,0.1-1.9c0.1,0.2,0.2,0.5,0.4,0.7c-0.1,0.9,0,1.8,0.1,2.7c0.1,0.3,0.6,0.2,0.5-0.1
		c0-0.3,0-0.6-0.1-0.8c0.1,0.2,0.2,0.4,0.3,0.6v1.7c0,0.3,0.5,0.3,0.5,0v-0.7c0.2,0.4,0.4,0.7,0.7,1.1c0,0.6-0.1,1.1-0.1,1.7
		c-0.1,0.3,0.5,0.5,0.5,0.1c0.1-0.4,0.1-0.7,0.1-1.1c0,0,0,0,0.1,0.1v1.3c0,0.3,0.5,0.3,0.5,0v-0.3c0.1,0.2,0.2,0.4,0.3,0.6
		c0,0.7,0.1,1.5,0.2,2.2c0.1,0.3,0.6,0.2,0.5-0.1c0-0.3-0.1-0.5-0.1-0.8c0,0,0,0.1,0,0.1c0.1,0.2,0.2,0.3,0.2,0.5v1.4
		c0,0.4,0.5,0.4,0.5,0v-0.3c0.2,0.4,0.5,0.9,0.7,1.3c0,0.5,0.1,1.1,0.2,1.6c0.1,0.3,0.6,0.2,0.5-0.1c0-0.1,0-0.1,0-0.2
		c0.1,0.1,0.1,0.2,0.2,0.4v2.4c0,0.3,0.5,0.3,0.5,0V445c4.5,7.5,10.7,14.4,19.5,16.2C510.1,461.4,510.7,459.3,509.3,459.1z"/>
	<path fill="#D3D1E9" d="M543.3,473.9c-0.6-1-1-2.1-1.4-3.2c-0.1-0.3-0.6-0.2-0.5,0.1c0.4,1.1,0.8,2.3,1.5,3.3
		C543,474.5,543.5,474.2,543.3,473.9z"/>
	<path fill="#D3D1E9" d="M546.5,478.9c-1.1-2.7-2.1-5.4-2.8-8.2c-0.1-0.3-0.6-0.2-0.5,0.1c0,0,0,0,0,0.1c0,0,0,0,0,0c0,0,0,0,0,0.1
		c0.1,0.5,0.2,0.9,0.3,1.4c0,0.1,0.1,0.1,0.1,0.2c0.7,2.3,1.5,4.5,2.4,6.7C546.2,479.5,546.6,479.3,546.5,478.9z"/>
	<path fill="#D3D1E9" d="M565.1,488.9c0.1-0.1,0.1-0.3-0.1-0.4l-0.1-0.1c0-0.1-0.1-0.2-0.1-0.3c0,0,0-0.1,0-0.1c0,0,0-0.1,0-0.1
		c0,0,0,0,0,0c0,0,0-0.1-0.1-0.1c-0.1-0.1-0.2-0.2-0.3-0.3c-0.8-1.5-1.8-2.9-2.7-4.4c-0.3-0.9-0.7-1.8-0.9-2.7
		c-0.1-0.2-0.3-0.2-0.4-0.1c-1.1-3.7-2.6-7.2-4.1-10.7c-0.9-2.9-1.8-5.7-2.7-8.6c-0.6-2.5-1.2-5-1.9-7.5c-0.4-2.1-0.7-4.2-1-6.4
		c0-0.3-0.6-0.2-0.5,0.1c0,0.3,0.1,0.5,0.1,0.8c-0.1,0-0.1,0.1-0.1,0.2c0,0.2,0.1,0.4,0.1,0.5c0,0-0.1,0.1-0.1,0.2
		c0,2.4,0.2,4.8,0.5,7.3c-0.1,0.1-0.2,0.1-0.1,0.3c0.2,1.2,0.4,2.3,0.7,3.5c0.5,2.7,1.1,5.4,2,8c0.4,1.3,0.8,2.6,1.3,3.9
		c0,0.1,0.1,0.1,0.2,0.1c0.6,1.5,1.3,3,2.1,4.4c0.3,0.9,0.6,1.8,0.8,2.7c-0.1,0-0.3,0.1-0.3,0.3c0.1,0.6,0.2,1.2,0.4,1.8
		c-0.2-0.1-0.3-0.2-0.5-0.3c0-0.1-0.1-0.1-0.1-0.2c0-0.1-0.1-0.2-0.2-0.2c-0.1-0.3-0.1-0.6-0.2-0.9c-0.1-0.3-0.6-0.2-0.5,0.1
		c0,0.2,0.1,0.4,0.1,0.6l0,0c-0.1-0.5-0.2-1-0.3-1.5c-0.1-0.3-0.6-0.2-0.5,0.1c0.1,0.3,0.1,0.6,0.2,0.9c-0.3-0.2-0.6-0.4-0.9-0.5
		c-0.1-0.1-0.2,0-0.3,0.1c-0.1-0.1-0.4-0.1-0.4,0.1c-0.1-0.4-0.1-0.7-0.2-1.1c-0.1-0.3-0.6-0.2-0.5,0.1l0.4,2.2
		c-0.1,0-0.1,0.1-0.1,0.2c0,0.2,0,0.4,0,0.6c-0.1-0.1-0.2-0.1-0.3-0.2c-0.1-1.3-0.3-2.7-0.3-4c0-0.3-0.5-0.3-0.5,0
		c0,0.6,0.1,1.3,0.1,1.9c-0.1,0-0.1,0.1-0.1,0.2c0,0.1,0,0.3,0,0.4c-0.2-0.4-0.4-0.8-0.6-1.2c0-0.1,0-0.2,0-0.3
		c0-0.2-0.1-0.3-0.3-0.3c-0.2-0.3-0.3-0.6-0.5-1c-0.1-0.3-0.6,0-0.5,0.3c0.1,0.2,0.2,0.5,0.4,0.7c-0.2-0.1-0.4,0-0.4,0.2
		c0,0.2,0,0.3,0,0.5c-0.3-0.3-0.7-0.6-1-1c-0.1-0.2-0.3-0.1-0.4,0.1c-0.5-1.3-1-2.6-1.3-3.9c-0.1-0.3-0.6-0.2-0.5,0.1
		c0.3,1.3,0.8,2.5,1.2,3.7c-0.3-0.2-0.5-0.5-0.8-0.7c-0.2-0.2-0.4,0-0.4,0.1c-0.7-1.6-1.4-3.2-2-4.7c-0.1-0.3-0.6,0-0.5,0.3
		c1.1,2.7,2.2,5.4,3.6,7.9c0.2,0.3,0.6,0,0.5-0.3c-0.5-0.9-1-1.9-1.4-2.8c0.5,0.5,1,0.9,1.5,1.4c0.6,1.4,1.3,2.8,1.9,4.2
		c0.2,0.3,0.6,0,0.5-0.3c0.2,0.1,0.5-0.1,0.4-0.4c-0.1-0.2-0.2-0.5-0.2-0.7c0-0.2,0.1-0.4,0.1-0.6c0.3,0.3,0.7,0.6,1,0.9
		c0,0.3,0.1,0.6,0.1,0.9c0,0.3,0.5,0.3,0.5,0c0-0.1,0-0.3,0-0.4c0,0,0,0,0,0c0.1,0.1,0.2,0.3,0.2,0.4c0.1,0.7,0.1,1.5,0.3,2.2
		c0.1,0.3,0.6,0.2,0.5-0.1c-0.1-0.2-0.1-0.5-0.1-0.7c0.1,0.2,0.2,0.4,0.3,0.6c0.2,0.3,0.6,0,0.5-0.3c0.1,0.4,0.2,0.9,0.2,1.3
		c0.1,0.3,0.6,0.2,0.5-0.1c0-0.2-0.1-0.4-0.1-0.6c0.1,0.4,0.2,0.7,0.3,1.1c0.1,0.3,0.6,0.2,0.5-0.1c-0.2-0.7-0.4-1.5-0.6-2.2
		c0.2,0.1,0.4,0.3,0.7,0.5c0,0,0,0.1,0.1,0.1c0,0.1,0.1,0.3,0.1,0.4c0,0.1,0.1,0.1,0.2,0.2c0.2,0.3,0.4,0.6,0.5,1
		c0.1,0.1,0.2,0.1,0.3,0.1c0,0.1,0.1,0.2,0.1,0.2c0.1,0.3,0.6,0,0.5-0.3c-0.1-0.3-0.2-0.6-0.4-0.9c0.1,0.1,0.2,0.1,0.4,0.2
		c0.2,0.1,0.3,0,0.4-0.2c0.8,1.1,1.6,2.2,2.4,3.3c0.2,0.3,0.7,0,0.5-0.3c-0.6-0.8-1.2-1.7-1.8-2.5c0,0,0,0,0,0
		c-0.1-0.2-0.2-0.4-0.2-0.6c0.3,0.2,0.5,0.4,0.8,0.6c0.1,0.3,0.3,0.6,0.4,1c0.2,0.3,0.6,0,0.5-0.3c0,0,0-0.1,0-0.1
		c0.5,0.3,1,0.7,1.5,1c0.4,0.7,0.9,1.5,1.3,2.2c0.2,0.3,0.7,0,0.5-0.3c-0.3-0.4-0.5-0.8-0.7-1.2c0.1,0.1,0.3,0.2,0.4,0.3
		c0.2,0.4,0.4,0.7,0.5,1.1c0.1,0.3,0.6,0.2,0.5-0.1C565.4,489.5,565.2,489.2,565.1,488.9z M552.9,464.6c0-0.1,0.1-0.1,0.1-0.2
		c0-0.2-0.1-0.5-0.1-0.7c0.1,0.2,0.1,0.4,0.2,0.6c0.3,0.9,0.5,1.7,0.7,2.6c0.1,0.5,0.7,2.7,0.8,3.5
		C554,468.4,553.4,466.5,552.9,464.6z"/>
	<path fill="#D3D1E9" d="M564.4,515.5c-1.4-2.1-3.1-3.9-5.1-5.4c-0.3-0.2-0.7,0.2-0.4,0.4c1.9,1.5,3.6,3.3,5,5.3
		C564.1,516,564.6,515.8,564.4,515.5z"/>
	<path fill="#D3D1E9" d="M567.2,516.8c-1.4-1.4-2.4-3-3.5-4.6c-0.2-0.3-0.7,0-0.5,0.3c1.2,1.6,2.2,3.3,3.6,4.7
		C567.1,517.5,567.5,517.1,567.2,516.8z"/>
	<path fill="#D3D1E9" d="M570.1,517.9c-1.1-1.4-2.5-2.5-3.6-3.9c-0.2-0.3-0.6,0.1-0.4,0.4c1.1,1.4,2.5,2.5,3.6,3.9
		C569.9,518.6,570.3,518.2,570.1,517.9z"/>
	<path fill="#D3D1E9" d="M573.6,519c-1.6-1-3.1-2-4.2-3.5c-0.2-0.3-0.6,0.1-0.4,0.4c1.2,1.5,2.7,2.6,4.4,3.6
		C573.6,519.6,573.9,519.1,573.6,519z"/>
	<path fill="#D3D1E9" d="M575.8,519c-1.1-0.7-2.1-1.4-3.2-2.1c-0.3-0.2-0.6,0.3-0.3,0.5c1.1,0.7,2.1,1.4,3.2,2.1
		C575.8,519.6,576,519.1,575.8,519z"/>
	<path fill="#D3D1E9" d="M579,519.7c-1.3-0.7-2.5-1.4-3.5-2.5c-0.2-0.2-0.6,0.1-0.4,0.4c1.1,1.1,2.3,1.9,3.6,2.6
		C579,520.3,579.3,519.8,579,519.7z"/>
	<path fill="#D3D1E9" d="M581.1,519.3c-1.4-0.7-2.7-1.7-3.9-2.8c-0.2-0.2-0.6,0.1-0.4,0.4c1.2,1.2,2.5,2.1,4,2.9
		C581.2,519.9,581.4,519.5,581.1,519.3z"/>
	<path fill="#D3D1E9" d="M591.1,516.4c-0.5-0.1-0.9-0.2-1.4-0.3c0,0-0.1,0-0.1,0c-0.2,0-0.4-0.1-0.6-0.1c0.3,0,0.7-0.1,1-0.1
		c0.3,0,0.3-0.5,0-0.5c-1.4,0.1-2.6,0.1-3.9-0.3c-0.2-0.1-0.3,0.1-0.3,0.2c-0.3-0.1-0.5-0.1-0.8-0.2c-2.6-2.1-5-4.4-7-7.1
		c-0.2-0.3-0.7,0-0.5,0.3c1.9,2.6,4.1,4.8,6.6,6.8c-0.2,0.1-0.2,0.3,0,0.5c0.7,0.5,1.4,1,2.2,1.4c-0.7,0.1-1.4,0.1-2.1,0.1
		c-0.5-0.3-1.1-0.6-1.6-0.9c-0.3-0.2-0.6,0.3-0.3,0.5c0.2,0.2,0.5,0.3,0.7,0.4c-0.8,0-1.6,0-2.4,0c-0.4-0.3-0.9-0.6-1.3-0.9
		c-0.3-0.2-0.6,0.3-0.3,0.5c0.2,0.2,0.5,0.3,0.7,0.5c-0.3,0-0.7,0.1-1,0.1c-0.3,0-0.3,0.5,0,0.5c0.8,0.1,1.6,0.3,2.5,0.3
		c0.7,0.5,1.4,0.9,2.1,1.4c0.3,0.2,0.6-0.3,0.3-0.5c-0.4-0.3-0.9-0.6-1.3-0.9c0.9,0.1,1.9,0.1,2.8,0.1c0.4,0.2,0.7,0.4,1.1,0.5
		c0.3,0.2,0.6-0.3,0.3-0.5c-0.1,0-0.2-0.1-0.3-0.1c1.1-0.1,2.2-0.2,3.3-0.3c0.2,0.1,0.5,0.2,0.7,0.2c0.3,0.1,0.4-0.3,0.2-0.4
		c0.2-0.2,0-0.5-0.2-0.4c-0.2,0-0.4,0.1-0.6,0.1c-0.3-0.1-0.6-0.2-0.8-0.3c0.2-0.1,0.5-0.2,0.7-0.3c0.5,0.1,1,0.2,1.4,0.3
		C591.3,517,591.4,516.5,591.1,516.4z"/>
	<path fill="#D3D1E9" d="M539.9,531.3c-0.4,2-1.1,3.9-1.8,5.7c-0.1,0.3,0.4,0.5,0.5,0.1c0.7-1.9,1.4-3.8,1.8-5.7
		C540.5,531.1,540,531,539.9,531.3z"/>
	<path fill="#D3D1E9" d="M607,523c-0.5-1.1-1.1-2.1-1.8-3.1c-0.1-0.2-0.1-0.3-0.2-0.4c-0.3-0.4-0.5-0.8-0.8-1.2
		c-0.1-0.2-0.4-0.1-0.5,0c-0.4-0.7-0.9-1.5-1.3-2.2c-0.2-0.3-0.6,0-0.5,0.3c0.5,1.1,0.8,1.7,0.9,2.1c-0.2-0.2-0.3-0.5-0.5-0.7
		c-0.1-0.4-0.2-0.6-0.4-0.7c-0.2-0.3-0.4-0.6-0.6-0.9c-0.2-0.3-0.6,0-0.5,0.3c0,0,0,0,0,0c-0.1,0-0.1-0.1-0.2-0.1h0
		c-0.2-0.2-0.4-0.4-0.5-0.6c-0.1-0.1-0.3-0.1-0.4,0c0,0-0.1-0.1-0.1-0.1c-0.2-0.3-0.4-0.6-0.6-0.9c-0.2-0.3-0.6,0-0.5,0.3
		c0.1,0.2,0.2,0.3,0.3,0.5c0,0,0,0,0,0c-0.2-0.3-0.3-0.5-0.5-0.8c-0.1-0.2-0.3-0.1-0.4,0c-0.1-0.1-0.2-0.2-0.3-0.4
		c-0.2-0.3-0.7,0-0.5,0.3c0.3,0.5,0.6,1,0.9,1.5c-0.3-0.4-0.5-0.8-0.9-1.1c-0.2-0.2-0.6,0.1-0.4,0.3c0.4,0.5,0.8,1,1.2,1.4
		c0,0,0,0,0,0c0.1,0.1,0.1,0.2,0.2,0.3c-0.6-0.6-1.1-1.2-1.6-2c-0.2-0.3-0.6,0-0.5,0.3c0.2,0.4,0.4,0.8,0.6,1.1
		c-0.3-0.3-0.6-0.7-0.8-1c-0.2-0.3-0.6-0.1-0.5,0.2c-0.2-0.2-0.4-0.4-0.6-0.7c-0.1-0.1-0.3-0.1-0.4,0c-0.1-0.1-0.2-0.1-0.3,0
		c0.1-0.2,0-0.4-0.2-0.4c-0.5,0-1-0.1-1.5-0.2c-0.4-0.2-0.7-0.4-0.9-0.6c-0.5-0.5-1.1-1-1.8-1.4c-0.3-0.2-0.6,0.2-0.3,0.4
		c0.5,0.4,1,0.8,1.5,1.2c-0.9-0.2-1.8-0.6-2.7-0.9c-0.3-0.1-0.4,0.3-0.3,0.4c0.8,0.8,1.6,1.3,2.6,1.6c0.5,0.6,1,1.2,1.3,1.9
		c0.1,0.3,0.6,0.1,0.5-0.2c0-0.1,0-0.1-0.1-0.2c0.2,0.3,0.5,0.6,0.7,0.8c0.2,0.2,0.5-0.1,0.4-0.3c-0.1-0.1-0.1-0.2-0.2-0.3l0,0
		c0.2-0.1,0.2-0.2,0.2-0.4c-0.8-1.5,0.1,0.3,0.7,0.7c0.2,0.1,0.5-0.1,0.4-0.3c0.3,0.3,0.7,0.7,1,1c0.2,0.2,0.6-0.1,0.4-0.3
		c0,0,0,0,0,0c0.1,0.1,0.3,0,0.4-0.1c0.2,0.2,0.4,0.5,0.6,0.7c0.1,0.2,0.4,0.1,0.5,0c0.2,0.3,0.4,0.5,0.6,0.8c0.2,0.3,0.6,0,0.5-0.3
		c-0.2-0.4-0.4-0.8-0.6-1.1c0.5,0.5,1.1,1,1.6,1.5c0.2,0.2,0.6-0.1,0.4-0.3c0,0,0,0,0,0c0.1,0,0.1,0,0.2,0c0.1,0.2,0.3,0.4,0.4,0.6
		c0.2,0.2,0.5,0.1,0.5-0.1c0.2,0.3,0.4,0.5,0.6,0.8c0.1,0.1,0.2,0.1,0.3,0.1c0.2,0.2,0.3,0.4,0.4,0.6c0.2,0.3,0.6,0.1,0.5-0.3
		c0,0,0,0,0,0c0.3,0.5,0.6,0.9,1,1.4c0.2,0.3,0.6,0,0.5-0.3c-0.1-0.3-0.3-0.6-0.5-1c0.3,0.3,0.5,0.6,0.8,0.9
		c0.2,0.3,0.6-0.1,0.4-0.4c-0.5-0.6-1-1.2-1.5-1.8c0-0.2-0.1-0.5-0.1-0.7c0.4,0.7,0.9,1.3,1.3,1.9c0,0.1,0.1,0.1,0.1,0.2
		c0.3,0.4,0.5,0.7,0.8,1.1c0.1,0.1,0.3,0.1,0.4,0.1c0.2,0.4,0.5,0.9,0.7,1.4C606.7,523.6,607.2,523.3,607,523z"/>
	<path fill="#D3D1E9" d="M549,550.2c-0.4-0.4-0.7-0.7-1.1-1.1c0-0.1,0.1-0.2,0-0.3c-0.4-0.8-0.7-1.7-1.1-2.5c-0.1-0.3-0.6,0-0.5,0.3
		c0.2,0.4,0.4,0.8,0.5,1.3c0,0-0.1-0.1-0.1-0.1c-0.1-0.2-0.4-0.1-0.5,0.1c-0.1-0.1-0.2-0.2-0.3-0.3c-0.2-0.7-0.3-1.4-0.3-2.1
		c0-0.3-0.5-0.3-0.5,0c0,0.5,0.1,0.9,0.2,1.4c-0.1-0.1-0.3-0.3-0.4-0.4c-0.1-0.1-0.3-0.1-0.4-0.1c-0.1-0.1-0.2-0.2-0.3-0.3V545
		c0-0.2-0.1-0.3-0.3-0.3c-0.1,0-0.3,0.1-0.3,0.3c0,0.1,0,0.2-0.1,0.3c-0.6-0.6-1.1-1.2-1.6-1.9c-0.1-0.2-0.3-0.1-0.4,0
		c-0.1-0.1-0.1-0.1-0.2,0c0-0.1,0-0.2-0.1-0.3c0,0,0-0.1,0-0.1c0-0.1,0-0.2-0.1-0.2c-0.1-0.4-0.1-0.7-0.2-1.1
		c0.1-0.3,0.2-0.6,0.3-0.8c0.1-0.3-0.3-0.4-0.5-0.2c-0.1-0.5-0.2-0.9-0.3-1.4c0-0.1-0.1-0.2-0.2-0.2c0.2-0.6,0.4-1.2,0.5-1.8
		c0.1-0.3-0.4-0.5-0.5-0.1c-0.2,0.7-0.4,1.3-0.6,2c-0.1-0.3-0.2-0.6-0.3-0.9c0-0.1,0-0.1-0.1-0.1c0.5-1.2,0.9-2.4,1.2-3.7
		c0.1-0.3-0.4-0.5-0.5-0.1c-0.4,1.9-1.1,3.6-1.8,5.4c-0.1,0.3,0.4,0.5,0.5,0.1c0.1-0.3,0.2-0.6,0.4-1c0.1,0.4,0.3,0.8,0.4,1.2
		c-0.2,0.7-0.4,1.4-0.6,2.2c-0.1,0.3,0.4,0.5,0.5,0.1c0.1-0.5,0.3-1,0.4-1.4c0,0.1,0.1,0.3,0.1,0.4c-0.2,1-0.3,2.1-0.3,3.1
		c-0.1,0.6-0.3,1.2-0.4,1.8c-0.1,0.3,0.4,0.5,0.5,0.1c0,0,0-0.1,0-0.1c0,0.2,0.1,0.3,0.1,0.5c-0.1,0.4-0.2,0.8-0.3,1.3
		c-0.1,0.3,0.4,0.5,0.5,0.1c0-0.1,0-0.1,0-0.2c0,0.1,0.1,0.3,0.1,0.4c0,0.1-0.1,0.3-0.2,0.4c0,0,0,0,0,0c-0.1-0.3-0.6-0.2-0.5,0.1
		c0.1,0.2,0.1,0.4,0.2,0.6c0,0.1-0.1,0.1-0.1,0.2c-0.2-0.2-0.5,0.1-0.4,0.3c0,0.1,0.1,0.1,0.1,0.2c-0.4,0.8-0.8,1.6-1.2,2.4
		c0,0,0,0.1,0,0.1c-0.1,0.2-0.2,0.3-0.3,0.5c-0.2,0.3,0.3,0.5,0.5,0.3c0.2-0.3,0.4-0.6,0.6-0.9c-0.1,0.3,0.4,0.4,0.5,0.1
		c0.2-0.4,0.3-0.9,0.5-1.3c0.1,0.3,0.3,0.7,0.4,1c0.1,0.2,0.3,0.2,0.4,0c0.2,0.2,0.5,0.1,0.4-0.2c-0.1-0.4-0.2-0.8-0.3-1.2
		c0.1,0.1,0.3,0.1,0.3-0.1c0.1-0.4,0.2-0.9,0.4-1.3c0.1,0.2,0.1,0.4,0.2,0.6c0.1,0.3,0.6,0.2,0.5-0.1c-0.1-0.1-0.1-0.3-0.1-0.4
		c0,0,0,0,0.1-0.1c0.1,0.1,0.3,0.2,0.4,0c0,0,0-0.1,0.1-0.1c0.2,0.6,0.4,1.2,0.5,1.8c0.1,0.3,0.6,0.2,0.5-0.1c0,0,0,0,0,0
		c0.1,0.1,0.3,0,0.4-0.2c0,0,0,0.1,0.1,0.1c0.1,0.1,0.1,0.2,0.2,0.3c0,0,0,0,0.1,0c0.2,0.3,0.5,0.7,0.7,1c0.2,0.3,0.6,0,0.5-0.3
		c-0.3-0.5-0.6-1-0.9-1.5c0,0,0-0.1-0.1-0.1c0.2,0.2,0.4,0.4,0.6,0.5c0.2,0.1,0.3,0,0.4-0.1c0.1,0.1,0.2,0.3,0.3,0.4
		c0.2,0.3,0.6,0,0.5-0.3c-0.4-0.8-1-1.4-1.4-2.1c-0.2-0.3-0.6,0-0.5,0.3c0.2,0.4,0.5,0.7,0.7,1c-0.4-0.4-0.8-0.8-1.1-1.3
		c0.1,0,0.2-0.1,0.2-0.2v-1.4c0.5,0.9,1,1.6,1.7,2.3c0,0,0,0.1,0.1,0.1c0.4,0.4,0.9,0.8,1.4,1.1c0.3,0.2,0.6-0.3,0.3-0.5
		c-0.5-0.3-0.9-0.6-1.3-1c0-0.2-0.1-0.4-0.1-0.6c0.6,0.6,1.2,1.2,1.9,1.7c0,0,0,0,0,0c0.1,0.1,0.2,0.2,0.3,0.3
		C548.8,550.8,549.2,550.4,549,550.2z M542.6,546.1c0-0.1,0-0.3,0-0.4c0-0.2-0.1-0.3-0.3-0.2c-0.1-0.5-0.2-1-0.3-1.5
		c0.5,0.7,1.1,1.3,1.7,2c0,0.1-0.1,0.2-0.1,0.3c0,0,0,0,0,0c-0.2-0.3-0.6,0.1-0.4,0.4c0.1,0.1,0.1,0.2,0.2,0.3
		c0,0.1-0.1,0.2-0.1,0.3C543,546.9,542.8,546.5,542.6,546.1z"/>
	<path fill="#D3D1E9" d="M548,546.3c-0.1-0.3-0.6-0.2-0.5,0.1c0.3,1,0.7,1.9,1.1,2.9c0.1,0.3,0.6,0.2,0.5-0.1
		C548.7,548.2,548.3,547.3,548,546.3z"/>
	<path fill="#D3D1E9" d="M550.8,549.1c-0.7-0.7-1.4-1.4-1.7-2.4c-0.1-0.3-0.6-0.2-0.5,0.1c0.4,1.1,1.1,1.8,1.9,2.6
		C550.6,549.7,551,549.3,550.8,549.1z"/>
	<path fill="#D71F27" d="M487.9,379.7c0.1,0,0.1,0,0.2,0.1c0.3,0.1,0.6-0.3,0.3-0.5c-0.3-0.1-0.6-0.3-0.9-0.4
		c-0.2-0.3-0.4-0.7-0.5-1c0.1-0.1,0.1-0.1,0.1-0.3c-0.1-0.2-0.2-0.3-0.3-0.3c-0.3-0.7-0.5-1.4-0.5-2.1c-0.1-1-1.7-1-1.6,0
		c0,0.2,0,0.3,0.1,0.5c0,0,0,0-0.1,0c-0.3-0.2-0.5-0.5-0.8-0.7c-0.2-0.2-0.5,0.2-0.4,0.4c0,0,0,0,0,0c0,0-0.1,0-0.1,0
		c-0.2-0.3-0.3-0.6-0.5-1c-0.1-0.3-0.6-0.1-0.5,0.2c0.1,0.4,0.2,0.8,0.4,1.1c-0.2-0.1-0.5,0.1-0.3,0.4c0.1,0.2,0.2,0.4,0.2,0.6
		c-0.1,0.1-0.1,0.2-0.1,0.4c0,0.3,0,0.5,0,0.8c-0.1,0.1-0.2,0.2-0.3,0.3c-0.1-0.1-0.1-0.1-0.2-0.2c-0.2-0.2-0.5,0-0.4,0.3
		c0.8,2.4,2.1,4.6,4,6.2c0.2,0.1,0.5,0.1,0.5-0.2c0-0.3,0-0.6-0.1-0.9c0.2,0.2,0.5,0,0.4-0.3c0,0,0,0,0-0.1c0.1,0,0.2,0.1,0.3,0
		c0.2-0.2,0.3-0.4,0.4-0.6c0.3,0.5,0.6,1.1,0.8,1.7c0.3,0.8,1.6,0.8,1.6-0.2C489.4,382.4,488.7,381,487.9,379.7z M483.3,380.7
		c0.1,0,0.2,0,0.3,0c0,0,0.1,0,0.1,0c0.1,0.1,0.2,0.2,0.3,0.4c0.1,0.1,0.2,0.1,0.3,0.1c0,0.2,0,0.3,0.1,0.5v0c0,0,0,0,0,0.1
		c0.1,0.3,0.5,0.2,0.5-0.1v0c0.1,0.1,0.2,0.3,0.2,0.4c0.1,0.5,0.2,0.9,0.2,1.4C484.6,382.6,483.9,381.7,483.3,380.7z"/>
	<path fill="#4F4F4F" d="M492.1,373.2c-0.1,0-0.1-0.1-0.1-0.1c0-0.3-0.1-0.6-0.3-0.9c-0.4-0.6-0.7-1.2-1-1.7c0.4-0.4,0.6-1,0.5-1.8
		c-0.5-2.5-1.7-4.2-4.2-4.9c-1.3-0.4-2.1,0.5-2.3,1.6c-0.4,0-0.8,0-1.2,0.1c-0.4-0.4-0.7-0.8-1.1-1.1c-1.7-1.7-4.2,0.8-2.7,2.6
		c-4.2,2.9-6.5,9.3-3.5,14.7c0.4,0.6,1.1,0.9,1.8,0.9c1.1,0.9,3.4-0.1,3-2c-0.2-1.3-0.4-2.7-0.6-4c0.3-1.1,0.8-2.1,1.3-3.1
		c0.1,0,0.1,0,0.2-0.1c-0.3,0.2,0,0.2,0.4,0.2c0.1,0,0.1,0.1,0.2,0.1c1.4,0.7,2.7,0.8,4.1,0.7c0.1,0.4,0.2,0.7,0.4,1.1
		c0.2,0.5,0.7,0.6,1.1,0.5c0.3,0.2,0.7,0.1,1-0.2c0.1,0.1,0.1,0.1,0.2,0.2C491.3,377.4,494,374.7,492.1,373.2z"/>
	<path fill="#3A3939" d="M494.5,372.1c-3.8-7-12.2-10.2-18.7-4.7c-1.9,1.6,0.8,4.2,2.7,2.7c4.7-4,10.3-0.8,12.8,3.9
		C492.4,376.2,495.7,374.3,494.5,372.1z"/>
	<path fill="#DCDBDB" d="M619.3,558c-0.6-0.1-1.3,0-1.9,0.2c-1.4-1.3-2.8-2.6-4.2-3.8c-2.1-2.3-4.6-4.2-6.9-6.3
		c-1-0.9-2.1-1.9-3.1-2.8c-0.6-0.5-1.2-0.7-1.8-0.7c-0.5-0.5-1-0.9-1.4-1.4c-0.8-0.8-1.9-1-2.9-0.7c-1-0.4-2-0.2-2.7,0.5
		c-2-0.7-4.1,1-4.1,2.8c-0.4-0.2-0.8-0.3-1.3-0.2c-2.2,0.3-4.4,0.7-6.6,1.1c-0.4-0.2-0.8-0.4-1.2-0.4c-4.5-0.5-8,0.3-11.9,2.6
		c0,0-0.1,0-0.1,0.1c-1.2-0.5-2.4-1.1-3.7-1.4c-1.6-0.5-3.1,0.6-3.6,1.9c-0.1,0-0.2-0.1-0.4-0.1c-1.9-0.7-3.6,1-3.7,2.8
		c-1.2-0.3-2.3,0.3-3,1.2c-0.5,0-1,0.2-1.4,0.4c-0.6-0.5-1.2-1-1.8-1.5c-2.4-1.9-5.2,0-5,2.4c-0.3-0.2-0.7-0.5-1-0.7
		c-1.8-1.2-4.6,0.4-4.4,2.6c0.4,4.8,2.5,7.3,5.4,8.5c5.8,6.3,17.2,11,26.8,10.6c2,0.3,4.1,0.5,6,0.6c0.3,0.1,0.5,0.2,0.8,0.3
		c1.1,0.5,2.1,0.3,2.9-0.2c3.3,1.4,6.7,2.6,10.3,3.3c1.7,0.4,3-0.6,3.5-1.9c2.1,1.5,4.2,2.9,6.6,4.1c1.2,0.6,2.6,0.3,3.5-0.5
		c0.6,0.4,1.2,0.6,1.9,0.6c0.9,0.7,2.3,0.9,3.3,0.3c0.6,1.9,3.1,3.2,4.9,1.4c5.8-6.1,4.8-14.9,6.8-22.4
		C624.7,558.2,621.2,556.6,619.3,558z"/>
	<path fill="#BCBCBC" d="M581.8,569.6c-2-1.1-3.9-2.4-5.8-3.8c-1.4-1.8-3-3.5-4.7-5.1c-0.6-0.5-1.2-0.8-1.8-0.9
		c-0.7-0.2-1.5-0.2-2.2,0.1c-0.2-0.1-0.4-0.3-0.6-0.4c-1-0.6-1.9-0.5-2.7-0.1c-1.2-0.6-2.5-1-3.8-1.2c-0.3-0.3-0.8-0.6-1.4-0.8
		c-1.3-0.3-2.4,0-3.2,0.8c-0.5,0.4-0.8,1-0.9,1.7c0,0,0,0,0,0.1c-0.7,1-0.9,2.5,0.1,3.8c0.7,0.9,1.5,1.8,2.3,2.7
		c0.2,0.3,0.4,0.7,0.7,1c1.1,1.8,2.4,3.5,3.8,4.9c0.9,0.9,2,1.1,2.9,0.7c0,0,0,0,0,0c2.8,2.2,5.9,3.8,9.2,4.1
		c0.9,0.1,1.6-0.2,2.1-0.7c0.2,0.2,0.3,0.4,0.5,0.6c1.9,2.3,5,0.2,5-2.3C583.3,574,584.2,571,581.8,569.6z"/>
	<path fill="#BCBCBC" d="M624,557.8c-0.3-1.1-1-1.8-1.8-2c-0.8-2.3-4.8-2.8-5.7,0.2c-2.1,7.2-4.5,14.4-10.1,19.6
		c-9.3-4.4-15.3-14.9-24.6-19.6c-3.4-1.7-6.4,3.4-3,5.1c11.8,5.9,17.9,18.6,30.8,21.6c-0.7,1.7,0.1,4.2,2.6,4.6
		C624.7,589,625.8,565.6,624,557.8z M618.7,567.7c-0.2,4.2-0.9,8.8-2.6,11.5c-0.4-0.9-1.3-1.6-2.5-1.7c-0.2,0-0.5-0.1-0.7-0.1
		C615.3,574.5,617.2,571.2,618.7,567.7z"/>
	<path fill="#BCBCBC" d="M598.8,535.3c-9.8,6.8-20.2,7.9-31.5,10.8c-6.6,1.7-16.5,10.2-23.2,7.5c-3.5-1.4-5.1,4.3-1.6,5.7
		c6.6,2.6,15.6-3.1,21.5-5.6c12.6-5.5,26-5.2,37.7-13.3C604.9,538.2,602,533.1,598.8,535.3z"/>
	<path fill="#FFFFFF" d="M625.8,561.1c-0.2-1.5-1.3-2.4-2.4-2.7c-0.3-0.2-0.6-0.4-1.1-0.5c-0.3-0.5-0.8-0.9-1.5-1.1
		c-8.4-2.8-13.7-10.1-20.2-15.7c-0.5-0.4-1-0.6-1.5-0.7c-2.4-1.4-5.4,2.3-3.4,4.9c6.6,8.4,13.6,15.9,24.3,18.2
		c0.1,5.8-1.8,12.3-4.7,16.9c-2.1,3.2,3.1,6.2,5.1,3C624.3,577.3,626.6,568.3,625.8,561.1z"/>
	<path fill="#895121" d="M675,262.6c-6-11.9-13.9-23.2-24.6-31.4c-4.9-3.8-10.9-5.5-16.1-8.8c-2.5-1.6-4.1-3.7-5.2-6
		c6.7-1.4,13.3-1.8,19.5-1c1.4,0.2,1.9-1.9,0.6-2.1c-6.6-0.9-13.7-0.5-20.8,1.1c-0.8-2.7-1-5.6-1-8.6c0-1.4-2.1-1.4-2.1,0
		c0,3.1,0.1,6.2,0.9,9.2c-6.7,1.7-13.4,4.3-19.8,7.7c-4.1-4-8.7-7.4-14.3-10.3c-1.2-0.6-2.3,1.2-1.1,1.9c5.2,2.7,9.6,5.9,13.4,9.5
		c-9.9,5.7-18.8,13.3-25.4,22.1c0-0.4-0.2-0.8-0.7-1c-6.7-2.4-11.5,4.6-17.8,4.6c-1.4,0-1.4,2.1,0,2.1c6,0,11.2-6.9,17.3-4.7
		c0.2,0.1,0.3,0.1,0.5,0.1c-10,13.9-14.1,30.7-7.3,47.5c0.5,1.3,2.6,0.7,2.1-0.6c-6.7-16.5-2.4-32.9,7.6-46.5c0,0.2,0.1,0.4,0.3,0.6
		c9.1,8.1,2.5,23.8,5.8,34.3c0.4,1.3,2.5,0.8,2.1-0.6c-3.5-11,3.4-26.5-6.4-35.2c-0.3-0.3-0.7-0.3-1-0.2
		c6.4-8.4,15.1-15.7,24.6-21.1c5.5,5.7,9.9,12.5,13.7,20.1c0.6,1.2,2.5,0.2,1.9-1.1c-3.8-7.6-8.2-14.4-13.6-20.1
		c6.1-3.2,12.5-5.7,18.9-7.3c0.4,1,0.9,1.9,1.5,2.8c3,4.4,8.6,6.8,13.3,8.9c14.5,6.5,24.5,21.3,31.5,35.1
		C673.8,264.9,675.7,263.8,675,262.6z"/>
	<path fill="#895121" d="M651.9,314.1c-1.1-3-2.2-5.9-3.2-9c-0.4-1.3-2.5-0.7-2.1,0.6c1,3,2.1,6,3.2,9
		C650.3,315.9,652.3,315.4,651.9,314.1z"/>
	<path fill="#895121" d="M641.5,285.4c-1.4,0-1.4,2.1,0,2.1S642.9,285.4,641.5,285.4z"/>
	<path fill="#E5E5E5" d="M289,433.3c-0.4-2.9-2.2-5.4-5.4-5.4c-0.8,0-1.6,0.2-2.3,0.6c-0.1,0-0.2-0.1-0.3-0.1
		c-13.4-1.4-26.2-0.2-39.5,1.4c-5.5,0.7-11.4,1.1-16.5,3.4c-5.8,2.6-10.7,6.8-16.9,8.3c-1.7,0.4-2.8,1.4-3.3,2.5
		c-2.3,0-4.8,1.5-5.2,3.8c-0.3,0.5-0.5,1.1-0.6,1.7c-0.5,3.2,1.4,7.1,5.2,6.8c3-0.2,5.7,0.6,8.4,1.4c17.8,13.8,38.1,0.1,57.5-2.3
		c1.1,0.8,2.6,1.1,4.3,0.6c3.8-1,7.5-2.8,11.5-2.5c2.9,0.2,5.4-2.6,5.4-5.4C291.1,443.3,289.7,438.4,289,433.3z"/>
</g>
<g>
	
		<path fill="none" stroke="#000000" stroke-width="7.6632" stroke-linecap="round" stroke-linejoin="round" stroke-miterlimit="10" d="
		M467.1,297.2c-39.4,12.5-58.7,43.9-31.5,83c13.1,18.8,25.5,35.8,50.8,18.9c17.8-11.9,34.2-43.5,32.5-64.2
		C516,300.4,488.6,291.8,467.1,297.2"/>
	
		<path fill="none" stroke="#000000" stroke-width="7.6632" stroke-linecap="round" stroke-linejoin="round" stroke-miterlimit="10" d="
		M441.3,347.7c-1.6,0.5,0.3,15,5.2,14.9C449.9,362.2,444,347.4,441.3,347.7"/>
	
		<path fill="none" stroke="#000000" stroke-width="7.6632" stroke-linecap="round" stroke-linejoin="round" stroke-miterlimit="10" d="
		M458.5,343.4c-1.1,4,1.1,15,5.1,14C466.3,356.3,462.3,343.6,458.5,343.4"/>
	
		<path fill="none" stroke="#000000" stroke-width="7.6632" stroke-linecap="round" stroke-linejoin="round" stroke-miterlimit="10" d="
		M482.2,361.6c-6.7,0.4-14.4,22.1,0,22.6C496.1,384.7,499.4,361.4,482.2,361.6"/>
	
		<path fill="none" stroke="#000000" stroke-width="7.6632" stroke-linecap="round" stroke-linejoin="round" stroke-miterlimit="10" d="
		M467.1,407.8c11.9,45.7,8.4,52.7,20.9,91.8c15,46.7,32.7,61,41,62.5c3,0.5,10.4-7.9,13.6-9.1c5.2-2.1,14.4-2.8,20.6-5
		c17.5-6.3,50-1.1,43.5-32.8"/>
	
		<path fill="none" stroke="#000000" stroke-width="7.6632" stroke-linecap="round" stroke-linejoin="round" stroke-miterlimit="10" d="
		M606.8,515.3c-10.7-7.5-19,1.9-27.8-8.8c-13.9-17-20.8-39.9-24.7-61.4c-5.9-32.4-8.3-58.5,7.4-88.1c9.8-18.5,29.4-47.9,50.1-55.1"
		/>
	
		<path fill="none" stroke="#000000" stroke-width="7.6632" stroke-linecap="round" stroke-linejoin="round" stroke-miterlimit="10" d="
		M613.2,301.1c13.1,2,34.6,9.7,36.4-8.5c-4.7-0.5-13.5-2.5-15.6-3"/>
	
		<path fill="none" stroke="#000000" stroke-width="7.6632" stroke-linecap="round" stroke-linejoin="round" stroke-miterlimit="10" d="
		M633.3,289.7c6.2-8.2,18.9-12.3,28-13.9c0-1.9-2.1-11.6-3-13.5c-10,3-27.4,8.8-33.8,17.2"/>
	
		<path fill="none" stroke="#000000" stroke-width="7.6632" stroke-linecap="round" stroke-linejoin="round" stroke-miterlimit="10" d="
		M639.7,268.9c4-2.2,7.7-6,10.7-9.5c-0.7-2.7-3.7-7.2-5.8-9c-11,4.1-24.8,12.7-32.1,22.1"/>
	
		<path fill="none" stroke="#000000" stroke-width="7.6632" stroke-linecap="round" stroke-linejoin="round" stroke-miterlimit="10" d="
		M625.4,260.3c1.1-6.6,8-8.7,0.7-14.3c-11.4,1.3-31,19.5-38.7,37.2"/>
	
		<path fill="none" stroke="#000000" stroke-width="4.297" stroke-linecap="round" stroke-linejoin="round" stroke-miterlimit="10" d="
		M525.1,363.8c-8.7,26.3-10.5,30.3-3.8,88.9"/>
	
		<path fill="none" stroke="#000000" stroke-width="7.6632" stroke-linecap="round" stroke-linejoin="round" stroke-miterlimit="10" d="
		M590.3,285.4c-28.4,18.1-48.9,47.3-61,78.4"/>
	
		<path fill="none" stroke="#000000" stroke-width="4.297" stroke-linecap="round" stroke-linejoin="round" stroke-miterlimit="10" d="
		M477.9,404.2c4.8,15.4,18.6,73.5,43.6,49.1"/>
	
		<path fill="none" stroke="#000000" stroke-width="7.6632" stroke-linecap="round" stroke-linejoin="round" stroke-miterlimit="10" d="
		M594.6,313.3c17.9,17.9,51.8,8,64.3-3.6c19.4-18.1,20.9-60.9,4.5-81.6c-22.7-28.7-60.7-34-87.4-8.6c-18.6,17.7-27.9,53-2.9,78.1"/>
	
		<path fill="none" stroke="#000000" stroke-width="7.6632" stroke-linecap="round" stroke-linejoin="round" stroke-miterlimit="10" d="
		M558.8,241c-4.8,0.2-9.1,5.7-12.9,10"/>
	
		<path fill="none" stroke="#000000" stroke-width="7.6632" stroke-linecap="round" stroke-linejoin="round" stroke-miterlimit="10" d="
		M550.2,251.7c-18,2.3-52.6,24-54.4,44.4"/>
	
		<path fill="none" stroke="#000000" stroke-width="7.6632" stroke-linecap="round" stroke-linejoin="round" stroke-miterlimit="10" d="
		M557.4,273.2c-20.5,0.1-36.7,20.3-47.3,35.1"/>
	
		<path fill="none" stroke="#000000" stroke-width="7.6632" stroke-linecap="round" stroke-linejoin="round" stroke-miterlimit="10" d="
		M516.5,353.4c-0.4,3.1,2.8,8.6,12.1,9.3"/>
	
		<path fill="none" stroke="#000000" stroke-width="7.6632" stroke-linecap="round" stroke-linejoin="round" stroke-miterlimit="10" d="
		M600.3,539.4c11.3,18.8,41.5,25.1,60.1,14c28.8-17.3,34.4-45.3,44.4-73c6.6,7.4,15.8,1.3,25.1,1.2c0.6,18.9-17.1,71.3-45.1,93.1
		c-15.7,12.2-38.1,12.1-58.2,10.9c-17.7-1.1-34.4-1.6-52.6-27.4"/>
	
		<path fill="none" stroke="#000000" stroke-width="7.6632" stroke-linecap="round" stroke-linejoin="round" stroke-miterlimit="10" d="
		M626.8,556.8c24.6-28,29.4-57.5,28.5-93.7c-8.7-2.7-25.1,1.6-32.1,5.6"/>
	
		<path fill="none" stroke="#000000" stroke-width="7.6632" stroke-linecap="round" stroke-linejoin="round" stroke-miterlimit="10" d="
		M623.3,468.7c0.9,25.7,2.1,53.9-15.9,73.4"/>
	
		<path fill="none" stroke="#000000" stroke-width="4.297" stroke-linecap="round" stroke-linejoin="round" stroke-miterlimit="10" d="
		M524.4,367c-3.7,8.9-8.8,19.4-17.2,25.1"/>
	
		<path fill="none" stroke="#000000" stroke-width="4.297" stroke-linecap="round" stroke-linejoin="round" stroke-miterlimit="10" d="
		M500.8,334.1c4.2-5.7,9.6,5.6,2.1,5.7"/>
	
		<path fill="none" stroke="#000000" stroke-width="4.297" stroke-linecap="round" stroke-linejoin="round" stroke-miterlimit="10" d="
		M482.9,379.9c-0.6-2.5-2.4-3.9,1.4-5.8c1.9,0.9,2.8,2.4,4.3,3.7"/>
	
		<path fill="none" stroke="#000000" stroke-width="4.297" stroke-linecap="round" stroke-linejoin="round" stroke-miterlimit="10" d="
		M526.9,563.4c0,0.2,0,0.5,0,0.7"/>
	
		<path fill="none" stroke="#000000" stroke-width="4.297" stroke-linecap="round" stroke-linejoin="round" stroke-miterlimit="10" d="
		M524.8,560.5c1,0.9,2,2.3,2.9,3.6"/>
	
		<path fill="none" stroke="#000000" stroke-width="4.297" stroke-linecap="round" stroke-linejoin="round" stroke-miterlimit="10" d="
		M528.7,367.7c0.7,17.9,6.5,54.4,11.5,80.2c5.8-3.6,4.8-2,11.5-1.4"/>
	
		<path fill="none" stroke="#000000" stroke-width="4.297" stroke-linecap="round" stroke-linejoin="round" stroke-miterlimit="10" d="
		M632.6,288.2c-1,2.2-2.1,2.1-3.6,6.8"/>
	
		<path fill="none" stroke="#000000" stroke-width="6.8981" stroke-linecap="round" stroke-linejoin="round" stroke-miterlimit="10" d="
		M267.9,416.3c-26.1-0.5-81.7,11.1-81.7,29.5c0,28.5,61.3,29.6,83.2,29c35.8-1,82.4-12.1,81.7-37.2
		C350.6,420.6,297.4,415.3,267.9,416.3"/>
	
		<path fill="none" stroke="#000000" stroke-width="3.868" stroke-linecap="round" stroke-linejoin="round" stroke-miterlimit="10" d="
		M195.9,442.4c-6.8,26.6,74.9,24.1,91.9,22.2c13.3-1.5,55.3-10,51.7-29.5"/>
	
		<path fill="none" stroke="#000000" stroke-width="3.868" stroke-linecap="round" stroke-linejoin="round" stroke-miterlimit="10" d="
		M338.5,440.4c-4.3-9.9-39.2-12.6-64.8-12.6c-55.1,0-68.2,14.5-76.4,21.8"/>
	
		<path fill="none" stroke="#000000" stroke-width="6.8981" stroke-linecap="round" stroke-linejoin="round" stroke-miterlimit="10" d="
		M297,415.8c-4.4-26.1-14.3-129.3-17.6-155"/>
	
		<path fill="none" stroke="#000000" stroke-width="6.8981" stroke-linecap="round" stroke-linejoin="round" stroke-miterlimit="10" d="
		M278.8,260.1c-34.5,7.1-187.4,45.9-211.1,52.7"/>
	
		<path fill="none" stroke="#000000" stroke-width="6.8981" stroke-linecap="round" stroke-linejoin="round" stroke-miterlimit="10" d="
		M67.8,312.8c5.7,31.6,23,152.1,28.3,193.2"/>
	
		<path fill="none" stroke="#000000" stroke-width="3.868" stroke-linecap="round" stroke-linejoin="round" stroke-miterlimit="10" d="
		M280,258.6c-8-1.2-11.1-2.7-16.7-3.6"/>
	
		<path fill="none" stroke="#000000" stroke-width="3.868" stroke-linecap="round" stroke-linejoin="round" stroke-miterlimit="10" d="
		M263.4,255C225.2,265.6,76.5,299.7,50.9,308c4.9,3,9.9,2.7,17.4,4.8"/>
	
		<path fill="none" stroke="#000000" stroke-width="3.868" stroke-linecap="round" stroke-linejoin="round" stroke-miterlimit="10" d="
		M50.9,308C52.6,324.6,78,496.4,78,496.4s10.3,7.4,18.5,10.8"/>
	
		<path fill="none" stroke="#000000" stroke-width="3.868" stroke-linecap="round" stroke-linejoin="round" stroke-miterlimit="10" d="
		M254.4,414.3c-2.4-20.5-8.2-49.6-10.6-69.1c-10.9,2.2-86.1,18.6-89.2,19.5c4.3,21,13.7,78.1,15.4,80.1c1.4,1.7,15.1-2.9,18.5-4.1"
		/>
	
		<path fill="none" stroke="#000000" stroke-width="3.868" stroke-linecap="round" stroke-linejoin="round" stroke-miterlimit="10" d="
		M245.2,416.3c-2.9-18.6-6.3-44.5-8.7-60.4c-14.2,3.4-55.9,11.1-70.1,15c2,13.1,10.5,59.9,12.1,61.9c2.1,2.6,21.3-4.8,24.9-5.1"/>
	
		<path fill="none" stroke="#000000" stroke-width="3.868" stroke-linecap="round" stroke-linejoin="round" stroke-miterlimit="10" d="
		M348.9,447.9c-4.4,5.6-8,56-8,67c0,9.7,0.2,26,1,35.5c0,0.2,0,0.3,0,0.5"/>
	
		<path fill="none" stroke="#000000" stroke-width="3.868" stroke-linecap="round" stroke-linejoin="round" stroke-miterlimit="10" d="
		M341.9,550.7c-3.1,15.5-45.7,21.3-68.4,23.5c-18.4,1.8-70.4-0.8-74.2-18.9"/>
	
		<path fill="none" stroke="#000000" stroke-width="3.868" stroke-linecap="round" stroke-linejoin="round" stroke-miterlimit="10" d="
		M190.6,456.9c3.5,16,8.9,42,10,58.7c0.6,8.9,0.4,29.8-1.3,39.7"/>
	
		<path fill="none" stroke="#000000" stroke-width="3.868" stroke-linecap="round" stroke-linejoin="round" stroke-miterlimit="10" d="
		M341.7,550.7c-0.2-7.7-24.7-13.8-71.3-12.8c-33.4,0.7-67.2,8-70.3,17.9"/>
	
		<path fill="none" stroke="#000000" stroke-width="3.868" stroke-linecap="round" stroke-linejoin="round" stroke-miterlimit="10" d="
		M227.1,472.8c1.2,20.1-1,84,2.4,97.9"/>
	
		<path fill="none" stroke="#000000" stroke-width="3.868" stroke-linecap="round" stroke-linejoin="round" stroke-miterlimit="10" d="
		M269.2,477.2c-2.6,29,3.1,67.6-2.7,96.2"/>
	
		<path fill="none" stroke="#000000" stroke-width="3.868" stroke-linecap="round" stroke-linejoin="round" stroke-miterlimit="10" d="
		M307.4,471.1c-1.1,18.5,1.9,47.2,2.2,65.7c0.1,6.9-0.1,13.9-0.2,20.8c-0.1,3.2,0.9,7.6-0.3,10.5"/>
	
		<path fill="none" stroke="#000000" stroke-width="3.868" stroke-linecap="round" stroke-linejoin="round" stroke-miterlimit="10" d="
		M319.2,431.2c0.5,9.4,0.5,13.8,1.2,24.7"/>
	
		<path fill="none" stroke="#000000" stroke-width="3.868" stroke-linecap="round" stroke-linejoin="round" stroke-miterlimit="10" d="
		M319.9,467.5c0,23.7-0.1,47.5-0.2,71.1"/>
	
		<path fill="none" stroke="#000000" stroke-width="3.868" stroke-linecap="round" stroke-linejoin="round" stroke-miterlimit="10" d="
		M280.8,428.8c1.1,11.7-0.3,23.8,0.7,35.3"/>
	
		<path fill="none" stroke="#000000" stroke-width="3.868" stroke-linecap="round" stroke-linejoin="round" stroke-miterlimit="10" d="
		M282.7,474.8c1.9,16,1.2,53.2,1,63.1"/>
	
		<path fill="none" stroke="#000000" stroke-width="3.868" stroke-linecap="round" stroke-linejoin="round" stroke-miterlimit="10" d="
		M248.4,429.3c-1.1,10.8-0.8,24.7,1,35.5"/>
	
		<path fill="none" stroke="#000000" stroke-width="3.868" stroke-linecap="round" stroke-linejoin="round" stroke-miterlimit="10" d="
		M249.6,474.3c-0.1,11.1,0.8,22.2,1,33.4c0.2,9.8-0.9,19.8,0,29.5"/>
	
		<path fill="none" stroke="#000000" stroke-width="3.868" stroke-linecap="round" stroke-linejoin="round" stroke-miterlimit="10" d="
		M208.2,441.9c0.3,5.8,1.1,11.7,1,17.4"/>
	
		<path fill="none" stroke="#000000" stroke-width="3.868" stroke-linecap="round" stroke-linejoin="round" stroke-miterlimit="10" d="
		M209.7,469.4c-0.9,5,0.7,11.2,0.7,16.4c0,8.2-0.4,16.5-0.2,24.6c0.2,11.8,1.2,23.6,1.9,35.3"/>
	
		<path fill="none" stroke="#000000" stroke-width="3.868" stroke-linecap="round" stroke-linejoin="round" stroke-miterlimit="10" d="
		M341.1,508.6c-3.1,15.5-43.7,21.3-66.4,23.5c-18.4,1.8-70.4-0.8-74.2-18.9"/>
	
		<path fill="none" stroke="#000000" stroke-width="3.868" stroke-linecap="round" stroke-linejoin="round" stroke-miterlimit="10" d="
		M340.8,507.6c-0.2-7.7-22.6-12.8-69.2-11.8c-33.4,0.7-67.2,8-70.3,17.9"/>
	
		<path fill="none" stroke="#000000" stroke-width="3.868" stroke-linecap="round" stroke-linejoin="round" stroke-miterlimit="10" d="
		M342.4,481.5c-3.1,15.5-48.2,20.6-70.8,22.8c-18.4,1.8-70.4-0.8-74.2-18.9"/>
	
		<path fill="none" stroke="#000000" stroke-width="3.868" stroke-linecap="round" stroke-linejoin="round" stroke-miterlimit="10" d="
		M230.7,472.6c-9.1,1.5-28.7,2.6-32.6,13.3"/>
	
		<path fill="none" stroke="#000000" stroke-width="3.868" stroke-linecap="round" stroke-linejoin="round" stroke-miterlimit="10" d="
		M342.4,481.5c-1-10.6-28.3-12.2-35.1-12.8"/>
	
		<path fill="none" stroke="#000000" stroke-width="6.8981" stroke-linecap="round" stroke-linejoin="round" stroke-miterlimit="10" d="
		M98.1,506c29.3-6.8,117.4-26.7,145.1-31.3"/>
	
		<path fill="none" stroke="#000000" stroke-width="6.8981" stroke-linecap="round" stroke-linejoin="round" stroke-miterlimit="10" d="
		M298.9,430.6c1.6,12.6,2.6,18.7,3.5,29.3"/>
	
		<path fill="none" stroke="#000000" stroke-width="7.6632" stroke-linecap="round" stroke-linejoin="round" stroke-miterlimit="10" d="
		M537,557.7c6.9,13.1,38,24.1,52.1,18.3"/>
	
		<path fill="none" stroke="#000000" stroke-width="7.6632" stroke-linecap="round" stroke-linejoin="round" stroke-miterlimit="10" d="
		M557.9,558.8c7.2,3.5,20.3-3.7,27.9-4.8"/>
	
		<path fill="none" stroke="#000000" stroke-width="4.297" stroke-linecap="round" stroke-linejoin="round" stroke-miterlimit="10" d="
		M530.2,475.1c-5.8,3.1-14.9,3.7-21.5,5.1c5.1,5.5,7,14.9,10.8,21.7c5.2-3.8,18-8.7,23.6-3.1c4.1,4.2,2.3,12.4-1.4,16
		c-7.2,7-22-2.4-13.6-7.2"/>
	
		<path fill="none" stroke="#000000" stroke-width="4.297" stroke-linecap="round" stroke-linejoin="round" stroke-miterlimit="10" d="
		M459.1,365.9c-1.9,3.8-0.6,6.1,3.8,5.9"/>
	
		<path fill="none" stroke="#000000" stroke-width="3.868" stroke-linecap="round" stroke-linejoin="round" stroke-miterlimit="10" d="
		M270.8,273.6c1.8,16.6,14.8,130.5,16.1,140.2"/>
	
		<path fill="none" stroke="#000000" stroke-width="3.868" stroke-linecap="round" stroke-linejoin="round" stroke-miterlimit="10" d="
		M270.2,273.3c-13.9,3.5-167,42.2-190.2,47.7"/>
	
		<path fill="none" stroke="#000000" stroke-width="3.868" stroke-linecap="round" stroke-linejoin="round" stroke-miterlimit="10" d="
		M80,321c5.9,36.4,23.9,149.9,26.8,171.8c27.4-4.5,86.1-19,106.7-23.2"/>
	
		<path fill="none" stroke="#000000" stroke-width="3.868" stroke-linecap="round" stroke-linejoin="round" stroke-miterlimit="10" d="
		M288.9,429.6c1.3,9,1.9,12.6,2.6,22.2"/>
	
		<path fill="none" stroke="#000000" stroke-width="3.868" stroke-linecap="round" stroke-linejoin="round" stroke-miterlimit="10" d="
		M291.2,453.8c-22.2,4.2-37.1,7.1-57.4,10.3"/>
	
		<path fill="none" stroke="#000000" stroke-width="4.297" stroke-linecap="round" stroke-linejoin="round" stroke-miterlimit="10" d="
		M621.1,556.1c-1.5,8.5-2.8,24.4-11.5,28.6"/>
	
		<path fill="none" stroke="#000000" stroke-width="4.297" stroke-linecap="round" stroke-linejoin="round" stroke-miterlimit="10" d="
		M625.8,560c-0.9,7.7-2.4,17.1-7.5,23.3"/>
</g>
<g id="Layer_3">
	
		<path fill="none" stroke="#66BC46" stroke-width="103.5586" stroke-linecap="round" stroke-linejoin="round" stroke-miterlimit="10" stroke-opacity="0" d="
		M223.1,233.6c-93.9,104.9-215.2,146.8-162,183c18,121.5,258-212,312-151.5c31.1,77.8-313.6,212.3-264,265.5
		c62.1,78.2,451.5-330,538.5-292.5c53.2,40.4-127.4,63.3-243,253.5c85.3-66.6,176.3-128.8,249-99c-7.5,142.5-73.8-13.6-163.5,154.5
		c28.2,0.5,168,48,210.5-55.8"/>
</g>
</svg>
