<?xml version="1.0" encoding="utf-8"?>
<!-- Generator: Adobe Illustrator 24.0.0, SVG Export Plug-In . SVG Version: 6.00 Build 0)  -->
<svg version="1.1" id="Layer_1" xmlns="http://www.w3.org/2000/svg" xmlns:xlink="http://www.w3.org/1999/xlink" x="0px" y="0px"
	 width="1000px" height="1000px" viewBox="0 0 1000 1000" enable-background="new 0 0 1000 1000" xml:space="preserve">
<g id="vs-skin">
	<path fill="#925131" d="M450.3,131.9c5.2,0,12.5,0.1,19.9,4.5c4.4,2.6,7.3,5.9,9,8.1c1.5,8.9,1.9,16.5,1.8,22.6
		c0,2.5-0.2,7.4-0.9,13.6c-0.6,5.2-1.5,12.8-4.5,21.7c-2,6.1-5.7,14.9-12.7,24.4c0.7,0.5,1.8,1.4,2.7,2.7c4.5,6.4,1,15.6,0,18.1
		c-2.4,6.2-6.3,10.2-9,12.7c-14.2,12.8-35.7,18.8-43.4,20.8c-6.2-4.2-11.1-8-14.5-10.8c-7.7-6.5-12.6-10.8-16.3-18.1
		c-1.4-2.9-3.3-6.6-3.6-11.8c-0.2-2.4-0.6-9.8,4.5-16.3c5.2-6.7,12.7-7.9,14.5-8.1c0.4-3.5,0.5-7.8,0-12.7
		c-0.5-5.3-1.6-9.9-2.7-13.6c-2.1-2.6-3.5-5.2-4.5-7.2c-1.6-3.3-4.6-9.7-2.7-16.3c0.5-1.8,1.3-4.6,3.6-5.4c2.2-0.8,5,0.3,7.2,2.7
		c1.4-3.4,3.8-8.5,8.1-13.6C422.3,131.9,445.7,131.9,450.3,131.9z"/>
	<path fill="#925131" d="M250.6,266.6c1.3,0.9-2.4,5.8-3.6,17.2c-0.5,5.2-0.8,7.9,0,10.8c1.9,6.8,6.6,8.4,10.8,17.2
		c1.4,3,2.3,5.6,2.7,7.2c-1.4,3-2.9,6-4.5,9c-6.7,12.4-14.4,22.5-21.7,30.7c-7.5,16.9-15.1,33.7-22.6,50.6c-1,6.2-0.5,11.1,0,14.5
		c0.5,2.5,0.8,3.3,2.7,11.8c1.2,5.2,1.7,7.7,1.8,9c0.3,5.1-1.5,6.5-3.6,13.6c-3.2,10.8-1.6,16.2-6.3,21.7c-1.8,2.1-3.3,2.8-4.5,2.7
		c-2.4-0.1-4-2.8-4.5-3.6c-4.8-7.9,0.9-19.5,0-19.9c-0.8-0.3-5.1,7.4-7.2,17.2c-1.1,4.9-2,8.8-0.9,13.6c0.1,0.4,0.6,2.6,1.8,7.2
		c1.4,5.6,1.8,7.1,0.9,8.1c-0.9,1-2,0.2-6.3,0.9c-2.8,0.5-3.1,1-4.5,0.9c-3-0.2-5.2-2.4-6.3-3.6c-3.8-4.1-2.6-6.8-5.4-11.8
		c-2.9-5.2-5.1-3.8-10.8-10.8c-3-3.6-5.2-6.4-6.3-10.8c-1.4-5.9,0.3-10.8,0.9-12.7c1.6-4.6,3.7-6.2,8.1-11.8
		c2.2-2.7,8.7-10.9,12.7-19.9c2.8-6.3,3.1-10,4.5-16.3c3.2-13.5,7.2-18,13.6-32.5c8.5-19.4,5-19.7,15.4-47.9
		c5.6-15.2,8.5-23,14.5-32.5C233.3,277.6,248.4,265,250.6,266.6z"/>
	<path fill="#925131" d="M589.5,376c3-0.5,6.2,3.5,16.3,21.7c7.3,13.1,10.4,19.8,17.2,31.6c8,14.1,11.1,18.2,14.5,21.7
		c4.2,4.4,9.1,9.8,17.2,13.6c4.7,2.2,11.6,3.3,25.3,5.4c12.6,2,17.2,2.2,20.8,6.3c2.6,3,3.5,6.6,4.5,10.8c1.5,6.3,1.4,11.8,0.9,15.4
		c1.5,1.2,3.7,3.3,5.4,6.3c0.4,0.6,3.3,5.9,1.8,7.2c-1.4,1.3-4.5-2.3-8.1-0.9c-2.3,0.8-2.2,2.6-4.5,3.6c-2.6,1.1-5.5-0.1-7.2-0.9
		c-7.4-3.3-14.1-8-17.2-9.9c-6.4-4-5.8-1.6-25.3-9.9c-4.7-2-8.3-3.7-11.8-7.2c-3-3.2-3.4-5.2-6.3-9c-4.1-5.5-8.3-8.3-11.8-10.8
		c-10.6-7.7-19.7-17.1-29.8-25.3c-9.9-8.1-23.8-21.7-39.8-45.2c0.6-1.1,1.7-2.6,3.6-3.6c3.6-1.9,6.9,0.3,11.8,0
		c4.6-0.2,8-2.4,9.9-3.6C586.2,387.2,585,376.7,589.5,376z"/>
	<path fill="#925131" d="M367.2,620c-0.2-14.4,6.9-26.6,7.2-27.1c2.8-4.6,11.3-18.8,28.9-23.5c14.8-4,27,1.1,30.7,2.7
		c11.4,5,17.9,13.1,22.6,19c5,6.2,8,12.1,9.9,16.3c13.9,14.8,19.3,27.7,21.7,37.1c1.1,4.5,3.3,15,9,16.3c2.1,0.5,2.9-0.6,9.9-1.8
		c5.2-0.9,7.9-1.4,9.9-0.9c5.2,1.1,6,4.4,11.8,5.4c2.2,0.4,3.8,0.2,5.4,0c7.6-0.9,13.8-4.5,18.1-7.2c5.5-3.5,12.8-8.8,20.8-16.3
		c2.2,26.9,5.5,48.5,8.1,63.3c5.2,29.5,9.6,42.6,13.6,70.5c3.3,22.7,4.2,41.3,4.5,53.3c-4,0-7.3,0.5-9.9,0.9c-3,0.5-4.5,0.8-6.3,1.8
		c-1.4,0.7-3.3,2-7.2,7.2c-1.8,2.4-4.1,5.7-6.3,9.9c-3,0-6.1,0-9,0c-9-17.2-18.1-34.3-27.1-51.5c-4-4.4-10.1-10.8-18.1-18.1
		c-11.6-10.5-14.1-10.8-23.5-19c-7.7-6.7-23.3-20.4-34.3-41.6c-3.9-7.4-2.7-7.1-9-20.8c-6.6-14.1-12.8-25.2-17.2-32.5
		c-3.4-1.4-8-3.3-13.6-5.4c-5.9-2.2-8.8-3.3-12.7-4.5c-10.8-3.3-11.5-2.2-15.4-4.5c-5.2-3.2-3.7-5.2-10.8-10.8c-4.9-3.8-6.9-4-9-7.2
		C368.5,628.7,367.3,625.6,367.2,620z"/>
</g>
<g id="vs-hair">
	<path d="M394.3,217.8c-2.8,2.5-4.8,1-12.7,2.7c-9.4,2.1-11.7,5.5-18.1,4.5c-2.2-0.4-4.7-0.7-6.3-2.7c-3.2-3.8,0.3-9-2.7-11.8
		c-2.4-2.1-5.5,0-8.1-2.7c-1.4-1.5-1.7-3.5-1.8-4.5c-0.3-2.8,0.7-5.2,3.6-9.9c4.4-7.4,4.8-6.6,6.3-9.9c3-6.3,2.1-10,4.5-10.8
		c3-1.1,6,4.1,9,2.7c2.4-1,2.7-5.1,2.7-5.4c0.2-2.5-0.8-4.5-1.8-6.3c-1.8-3.3-3.1-3.4-3.6-5.4c-0.5-1.5-0.2-3.3,2.7-8.1
		c5-8.1,8.9-10.4,8.1-12.7c-0.8-2.1-4.5-0.7-7.2-3.6c-2.7-2.9-2.7-8.1-0.9-11.8c0.4-0.7,2.6-5,6.3-5.4c2.8-0.4,4.4,1.7,5.4,0.9
		s-0.3-3.3-1.8-9.9c-0.8-3.4-1.2-5.2-0.9-6.3c1.2-4.4,7.1-6.5,9-7.2c1.9-0.7,3.4-1.2,5.4-0.9c3.5,0.5,4.7,3.3,6.3,2.7
		c1.7-0.6,2.5-4.2,1.8-7.2c-0.8-3.4-3.3-3.6-3.6-6.3c-0.5-3.1,2.2-7.1,5.4-8.1c3.6-1.3,5.3,2,11.8,1.8c1.9,0,4.7-0.1,7.2-1.8
		c3.6-2.4,2.7-5.4,5.4-8.1c4.7-4.6,14-2.3,19-0.9c2.9,0.7,11.1,2.9,11.8,7.2c0.3,1.8-1.1,2.4-0.9,5.4c0,0.5,0.3,3.9,2.7,6.3
		c1.6,1.6,2.4,1.1,4.5,2.7c2.2,1.7,2.2,3,4.5,6.3c3.2,4.4,4,3.5,5.4,6.3c2.2,4.3,0.4,7,2.7,9c1.8,1.6,3.3,0.3,5.4,1.8
		c2.3,1.5,1.9,3.8,3.6,9.9c1.8,6.4,2.9,6.3,3.6,10.8c0.6,4.3,0.2,7.7,0,9c-1.1,6.5-4.1,12.9-5.4,12.7c-0.4-0.1-0.5-0.5-0.9-2.7
		c-0.6-3.8-1-5.7-0.9-9c0-1.6,0.2-9.9-3.6-15.4c-1.9-2.8-4.3-4-9-6.3c-5.1-2.5-11.2-5.5-19.9-6.3c-3.6-0.4-15.2-1.3-27.1,5.4
		c-13.6,7.7-19,20.5-21.7,27.1c-3,7.2-4.1,13.6-4.5,18.1c-3.1-3-4.6-3.1-5.4-2.7c-2.1,0.8-2,5.4-1.8,14.5c0.2,7.8,0.9,9.5,1.8,10.8
		c2.2,3.2,4.1,2.4,6.3,5.4c2.6,3.5,2.3,7.9,1.8,13.6C397.4,211.5,397.1,215.3,394.3,217.8z"/>
</g>
<g id="vs-primary">
	<path fill="#EF439A" d="M469.3,231.4c0,3-0.4,7.1-1.8,11.8c-1.1,3.3-2.4,6.1-3.6,8.1c2.6,2.3,5.3,4.6,8.1,7.2
		c4.6,4.3,4.9,7.4,8.1,8.1c1,0.2,3.3-0.2,8.1-0.9s4.7-0.9,5.4-0.9c2.2,0,7.1,1.5,13.6,18.1c5.8,14.7,7.1,27,7.2,28
		c1,9.5,1.4,24.3-2.7,42.5c2.5,6.3,5.2,11.2,7.2,14.5c5.8,9.6,10.4,13.5,18.1,25.3c2.4,3.8,4.2,7,5.4,9c1.5-1,4-2.4,7.2-3.6
		c7-2.5,11.1-1.5,17.2-2.7c0.5-0.1,9.4-1.9,15.4-7.2c10-8.9,8.5-24.9,8.1-28c-3.6-4.3-8.9-11.1-14.5-19.9
		c-3.3-5.3-8.1-13.5-21.7-43.4c-9.8-21.5-12.2-28.3-20.8-35.3c-5.1-4.1-9.2-6-16.3-9C506.4,248.3,490.3,241.1,469.3,231.4z"/>
	<path fill="#EF439A" d="M380.7,223.2c0.9,1.3-1.1,3.2-1.8,8.1c-0.5,2.9-0.3,5.4,0,7.2c-3.2,1.5-8.1,3.9-14.5,6.3
		c-8.4,3.3-11.9,3.9-24.4,8.1c-15,5.2-17.4,6.8-19,8.1c-7.6,6.3-10.3,14.6-10.8,16.3c-1.4,4.6-1.5,9.1-1.8,18.1
		c-0.1,2.4,0,3.4,0,9.9c0,6.5,0,11.8,0,15.4c-8-0.2-14.6,0.4-19,0.9c-11.4,1.4-19.4,4.1-23.5,0c-0.5-0.5-1.9-2.2-4.5-5.4
		c-1.9-2.3-3.2-3.9-3.6-4.5c-6.3-8-9.5-9.3-11.8-13.6c-2.6-5-1.8-10.1-0.9-15.4c2-11.8,8.9-19.9,12.7-23.5
		c4.1-2.4,10.1-6.1,17.2-10.8c10.5-7.1,9.7-7.4,15.4-10.8c10.8-6.5,11.2-3.8,29.8-11.8c3-1.3,6.7-2.9,10.8-1.8
		c3.4,0.9,3.9,2.8,7.2,3.6c4.2,1,6-1.4,11.8-2.7c7.3-1.7,7.9,1.1,17.2,0C375.1,224.1,379.5,221.4,380.7,223.2z"/>
	<path fill="#EF439A" d="M329.2,564c6.6-3.5,16.7-8.3,29.8-11.8c3.9-1,14.3-3.5,46.1-4.5c21.9-0.6,40-0.2,46.1,0
		c16.1,0.5,25.2,0.6,43.4,0.9c10.5,0.2,14.4,0.2,19.9-0.9c13.9-2.7,24.3-9.9,30.7-15.4c2.8,7.2,5.5,14.8,8.1,22.6
		c10,30.3,16.2,58.9,19.9,85c-2.6,2.3-6.7,5.7-11.8,9.9c-7,5.9-11.1,9.2-17.2,11.8c-2.4,1-5.1,1.8-8.1,1.8c-3.3,0-5.4-0.9-8.1-1.8
		c-4-1.4-10-3.3-16.3-3.6c-3.1-0.1-8.2,0.2-14.5,2.7c-5.2-9.8-9.1-17.9-11.8-23.5c-6.3-13.7-6.6-16.2-10.8-20.8
		c-5.4-5.9-9.5-6.6-13.6-13.6c-2.8-4.8-2-6.3-4.5-11.8c-4.3-9.2-11.4-14.6-13.6-16.3c-3.2-2.4-13.5-9.4-28-9
		c-14.3,0.4-24,7.7-28,10.8c-18.9,14.7-21.3,37.6-21.7,42.5c-3.9-4.2-7.1-7.7-9-9.9c-10.3-11.8-9.5-12-13.6-15.4
		c-2.9-2.4-5.2-3.8-7.2-7.2c-1.4-2.4-1.9-4.5-2.7-8.1C332.1,575.1,330.9,570.2,329.2,564z"/>
</g>
<g id="vs-secondary">
	<path fill="#D4D3E5" d="M378.9,240.4c-0.5-0.2-1.1,0.1-1.7,0.4c-1.9,0.8-1.8,0.4-6.4,1.4c-9.5,2.3-19,5.4-19,5.4
		c-12.4,4.1-18.6,6.1-26.2,10.8c-5.8,3.5-8.9,7.6-10.8,9.9c-3.8,4.3-5,7-5.4,8.1c-0.5,1.1-1.7,4.4-1.8,9c-0.1,4.8,1.2,5.9,1.8,11.8
		c0.3,2.9,0.1,4,0,9.9c-0.1,3.6-0.2,8.9,0,15.4c1.3,1.8,2.9,4.6,4.5,8.1c0.5,1.3,2.7,6.1,4.5,14.5c1.3,5.9,1.7,10.4,1.8,11.8
		c4.1,43.7,0.8,1.5,4.5,46.1c1.3,15.5,1.4,18.2,2.7,23.5c2.1,9,5.1,16.1,7.2,20.8c-0.5,12.8-1.3,23.3-1.8,30.7
		c-2.3,28.3-4.2,33.5-2.7,41.6c0.6,3.2,2,7.8,0,12.7c-0.8,2-2.1,3.7-2.7,7.2c-0.5,2.8-0.4,4.9,0,6.3c0.4,1.8,0.7,1.6,0.9,2.7
		c0.6,3.9-3.3,5.9-3.6,9.9c-0.1,1.2,0.2,3.1,1.8,5.4c3.8-1.4,9-3.3,15.4-5.4c16.4-5.3,30.5-8.5,38-9.9c28.7-5.4,30.5,2.3,71.4-0.9
		c15.2-1.2,24.9-3,38,0c3.1,0.7,7.3,1.9,13.6,1.8c8.8-0.1,15.4-2.8,21.7-5.4c5.6-2.4,13.4-6.2,21.7-12.7
		c-3.1-11.9-7.8-19.1-11.8-23.5c-3.3-3.6-8.8-8.4-8.1-14.5c0.3-2.4,1.4-5,0-6.3c-1.4-1.4-3.4,0.3-5.4-0.9c-2.7-1.6-0.7-5.6-3.6-9.9
		c-1.8-2.7-3.2-1.9-6.3-5.4c-3-3.3-2.1-4.4-4.5-7.2c-4.3-4.9-9.8-4.5-9.9-7.2c-0.1-1.9,2.7-2.3,3.6-5.4c0.6-2.2-0.1-4.2-1.8-8.1
		c-4.1-9.3-4.8-9.3-5.4-11.8c-0.7-3.1,0.1-4.4,3.6-15.4c0,0,3.1-9.4,6.3-20.8c1.8-6.3,2.7-9.5,3.6-13.6c2.2-9.8,1.8-13,3.6-23.5
		c1.7-9.7,2.4-9.2,3.6-16.3c2.6-15.3,0.9-27.7,0-34.3c-1.9-13.5-5.4-22.1-7.2-26.2c-1.3-2.8-7.9-17.1-13.6-16.3
		c-2.2,0.4-3.3,2.8-6.3,2.7c-2.6,0-4.5-1.9-5.4-2.7c-3-2.8-8.2-6.5-18.1-11.8c-3,2.7-6.2,5.4-9.9,8.1c-14.8,10.8-29.9,16.2-41.6,19
		c-6.9-5.3-12.7-10.3-17.2-14.5c-12.9-11.8-14.6-15.5-14.5-19C379.9,245.1,380.4,241,378.9,240.4z"/>
</g>
<g id="vs-colour">
	<path fill="#A862F4" d="M396.1,160.9c0.5-5.2,2.4-14.8,9-24.4c11.5-16.5,28.8-20.4,34.3-21.7c7.5-1.7,18.3-4.2,28,1.8
		c4.6,2.8,7.4,6.5,9,9c4.4,11.5,3.9,14.6,2.7,15.4c-1.8,1.2-5.1-3.2-12.7-6.3c-8.7-3.6-16.7-3.1-20.8-2.7c-8.3,0.7-14.2,3.3-19,5.4
		c-5.2,2.3-11.7,5.2-18.1,11.8c-5.2,5.3-8.3,10.8-9.9,14.5C397.9,162.7,397,161.8,396.1,160.9z"/>
	<path fill="#4A4A51" d="M583.2,829.7c-2.4,2-3.9,3.9-6.3,7.2c-1.6,2.3-2.8,4.1-5.4,7.2c-1.8,2.3-2.9,3.3-4.5,3.6
		c-2.1,0.5-4-0.5-4.5-0.9c-2.1-1.2-2.4-2.5-5.4-6.3c-1.9-2.4-2.9-3.5-3.6-3.6c-1.6-0.1-2.8,2.1-8.1,12.7c-3,6-3.5,7.1-3.6,9
		c-0.2,4.6,2.3,8.1,3.6,9.9c10.7,14.9,16.1,22.3,16.3,22.6c8.8,11.5,13.6,22.8,15.4,27.1c5.3,12.7,4.4,16.6,9.9,21.7
		c3.4,3.1,8.6,4.8,19,8.1c8.4,2.7,14.4,3.8,20.8,3.6c8.9-0.2,11-2.5,11.8-3.6c2.1-2.9,1.2-6.8,0.9-8.1c-1.1-5-4-5.9-7.2-10.8
		c-4.5-6.9-1.2-8.5-6.3-20.8c-2-4.8-3.4-6.8-2.7-9.9c0.8-3.4,3.3-3.7,5.4-8.1c2.5-5.2,2-10.3,1.8-11.8c-0.7-5.2-3.3-6.1-5.4-11.8
		c-2.5-6.4-0.2-7.4-1.8-15.4c0,0-2.8-13.5-13.6-21.7c-3.9-3-6.2-2.9-7.2-2.7c-2.1,0.4-2.4,1.6-4.5,1.8c-3.2,0.3-4.1-2.5-7.2-2.7
		C587.9,825.9,585.9,827.6,583.2,829.7z"/>
	<path fill="#FFFFFF" d="M701.6,751.1c-18.6,17.3-20.5,39.7-20.8,44.3c-1.9,31.2,19.3,51.2,22.6,54.2c2.1,1.9,22.2,19.8,51.5,18.1
		c5.2-0.3,18.2-1.3,31.6-9.9c13.9-9,20.1-21.2,22.6-26.2c7-14,7.2-26.6,7.2-30.7c0-6.2-1-28.8-19-47c-15.1-15.3-33.1-18.2-38.9-19
		C750.8,733.6,723.3,731,701.6,751.1z"/>
	<path fill="#FF5648" d="M696.2,753.8c1.2,3.9,2.4,7.9,3.6,11.8c10.2,0.3,20.5,0.6,30.7,0.9c5.2-7.9,10.2-15.6,15.4-23.5
		c-2.4-2.1-4.8-4.2-7.2-6.3c-5,0.1-12,0.9-19.9,3.6C708,744,700.5,749.9,696.2,753.8z"/>
	<path fill="#FF5648" d="M778.5,758.3c-5.4,7-10.8,13.8-16.3,20.8c4.5,11.1,9,22.3,13.6,33.4c9.7-0.3,19.3-0.6,28.9-0.9
		c0.6-11.8,1.2-23.5,1.8-35.3C797.2,770.3,787.8,764.4,778.5,758.3z"/>
	<path fill="#FF5648" d="M749.5,847.8c6.6-3,13.3-6.1,19.9-9c9,3.6,18.1,7.2,27.1,10.8c-3.2,3.5-9.7,9.7-19.9,13.6
		c-11.9,4.5-22.4,3.5-27.1,2.7C749.5,859.8,749.5,853.9,749.5,847.8z"/>
	<path fill="#FF5648" d="M702.5,801.7c5.4,8.4,10.8,16.9,16.3,25.3c-4.5,8.1-9,16.3-13.6,24.4c-4.3-3.3-11.1-9.4-16.3-19
		c-8.3-15.5-7.1-30.5-6.3-36.2C689.2,798.1,695.9,799.9,702.5,801.7z"/>
</g>
<g id="vs-shade">
	<path opacity="0.4" enable-background="new    " d="M470.2,97.6c-1.2,0.5,1.4,6.2-0.9,8.1c-1.6,1.3-4.9,0.2-5.4,0
		c-2.2-0.7-2.2-1.6-3.6-1.8c-2.2-0.3-3.1,1.9-6.3,3.6c-1.2,0.6-3.2,1-7.2,1.8c-5.9,1.2-6.6,0.9-9,1.8c-3.4,1.4-6.7,3.8-6.3,4.5
		c0.6,1.4,14.2-5.1,26.2-1.8c1.8,0.5,6.7,1.8,8.1,5.4c0.1,0.2,0.4,1.4,0.9,3.6c1.1,4.6,1.2,5.1,0.9,5.4c-1,1.6-5.8,0-9.9-0.9
		c0,0-11.4-2.4-23.5,0.9c-7.2,2-13.1,5.8-15.4,7.2c-6.4,4.2-10.1,8.3-11.8,7.2c-1.9-1.3,1.2-7.6,0-8.1c-1.4-0.6-7.6,7.1-9.9,17.2
		c-1,4.3-1.8,11,0,11.8c1.1,0.5,2.7-1.4,4.5-3.6c7.8-9.2,10.8-14.1,13.6-17.2c4.4-4.9,9.5-6.5,17.2-9c20.8-6.8,39-0.3,42.5,3.6
		c1.7,2,2.7,3.6,2.7,3.6c1.9,3.3,2,5.4,2.7,5.4c0.8,0,2.1-3.1,1.8-6.3c-0.2-2.2-0.8-2.9-3.6-9c-1.9-4.2-2.4-5.8-1.8-7.2
		c0.5-1.1,1.1-1,2.7-2.7c1.5-1.5,4-4.1,3.6-6.3c-0.3-2.3-3-1.9-5.4-5.4c-1.5-2.2-0.9-2.9-2.7-6.3C473.4,100.4,471.1,97.2,470.2,97.6
		z"/>
	<path opacity="0.4" enable-background="new    " d="M422.3,73.2c1.3,0,2.4,3.6,2.7,6.3c0.7,5.1-1.1,6.4,0,9c1.7,4.5,8.4,5,8.1,6.3
		c-0.2,1.1-4.4,0.1-10.8,1.8c-4.2,1.1-6.5,2.6-7.2,1.8c-0.7-0.9,1.5-2.8,2.7-7.2c0.5-2,1.4-5.4,0-8.1c-2.1-4.2-8.3-4.8-8.1-5.4
		c0.2-0.6,6.6,2,9.9-0.9C421.3,75.3,421.3,73.2,422.3,73.2z"/>
	<path opacity="0.4" enable-background="new    " d="M404.2,101.2c3.2,0.6,4.9,2.8,6.3,4.5c1,1.2,2.4,2.9,2.7,5.4
		c0.4,2.5-0.7,3.3,0,4.5c1.4,2.5,6.7,1.2,7.2,2.7c0.4,1.2-2.4,2.8-5.4,5.4c-3.4,3-5.8,6-7.2,8.1c-2-0.1-4.8-0.2-8.1,0
		c-6.1,0.4-9.6,0.5-10.8,2.7c-1.3,2.1,0.9,4,0,6.3c-0.7,2-3.6,4.2-13.6,4.5c1.7-3.3,3.6-7.8,1.8-9.9c-2.1-2.5-7.6-0.3-8.1-1.8
		c-0.6-1.6,5.2-6.7,9-5.4c1.9,0.6,1.9,2.4,3.6,2.7c2.1,0.5,3.3-1.8,8.1-5.4c4-2.9,4.7-2.5,6.3-4.5c0.6-0.8,3.7-4.6,2.7-8.1
		c-0.9-3.3-4.6-3.8-4.5-6.3c0.1-1.6,1.5-2.7,2.7-3.6C397.6,102.6,400.5,100.5,404.2,101.2z"/>
	<path opacity="0.4" enable-background="new    " d="M395.2,153.6c-2-1-4.2,4.2-10.8,6.3c-1.4,0.5-6,1.7-10.8,0
		c-3.6-1.3-6.1-3.8-6.3-3.6c-0.3,0.3,7,4.6,6.3,9c-0.2,1.3-0.9,2.4-1.8,3.6c-0.8,1.2-1.9,2.8-3.6,3.6c-3.3,1.6-7-0.6-7.2,0
		c-0.4,0.8,5.2,2.8,9,8.1c2.3,3.2,3,6.2,3.6,9c0.9,3.7,1.8,7.6,0,9c-1.9,1.5-4.7-1.4-7.2,0c-3.4,1.9-2.9,10.1-0.9,15.4
		c0.9,2.4,2.2,5.5,5.4,7.2c2.7,1.4,5.5,1.1,6.3,0.9c2.9-0.5,4.7-2.1,5.4-2.7c-1.4,3.2-3.2,8.1-3.6,14.5c-0.2,2.6-0.5,6.9,0.9,11.8
		c1.5,5.3,3.9,7.4,14.5,19.9c7.5,8.9,9.2,11.3,9.9,10.8c1.6-0.9-4.3-15.4-7.2-21.7c-3.7-8.3-5.2-9.9-6.3-15.4
		c-0.8-3.9-2.2-11.5,1.8-17.2c1.8-2.5,2.7-1.8,4.5-4.5c1.4-2,2.1-4.1,2.7-15.4c0.5-8.9,0.2-10.4-0.9-11.8c-2-2.4-4.3-1.7-6.3-4.5
		c-2.3-3.3-1.9-7.8-0.9-8.1c1-0.4,2.5,3.1,3.6,2.7c0.8-0.3,0.3-2.2,0.9-5.4c0.6-3.3,1.6-3.7,1.8-6.3c0.2-1.8-0.3-2.5-0.9-5.4
		C395.5,156.6,396.6,154.3,395.2,153.6z"/>
	<path opacity="0.4" enable-background="new    " d="M442.2,162.7c2.5,0.7,3.4,4.5,3.6,5.4c0.5,2.2,0.3,4,0,5.4
		c-0.3,2-0.5,3.7-1.8,5.4c-1.3,1.7-2.9,2.5-5.4,3.6c-3.4,1.5-7.1,2.3-7.2,1.8c-0.2-0.5,3.6-1.2,5.4-4.5c1.1-2,0.3-2.9,1.8-6.3
		c0.6-1.4,1-1.8,0.9-2.7c-0.3-2.1-2.9-3.3-3.6-3.6c-5-2.3-9.8-0.2-9.9-0.9c-0.2-0.6,3.7-3.4,8.1-3.6c1.9-0.1,3.1,0.3,6.3,0
		C441.3,162.6,441.7,162.5,442.2,162.7z"/>
	<path opacity="0.4" enable-background="new    " d="M473.8,165.4c-3.3,0.1-5.6,1.6-7.2,2.7c-1.4,0.9-3.3,2.2-4.5,4.5
		c-0.3,0.5-0.7,1.4-0.9,2.7c-0.2,1.7,0.1,4.5,1.8,5.4c0.4,0.2,1,0.4,2.7,0c4-0.9,6.1-3,6.3-2.7c0.4,0.4-1.8,4.7-5.4,5.4
		c-1.5,0.4-2.9-0.1-4.5,0.9c-0.9,0.5-1.4,1.4-1.8,1.8c-1.7,2.4-1.4,4.4-1.8,4.5c-0.8,0.1-3.5-5.4-2.7-11.8c0.5-3.4,1.7-5.8,3.6-9
		c2.2-3.9,3.5-6.1,6.3-7.2c2.7-1,5.4-0.3,6.3,0c2.4,0.7,4.7,2.3,4.5,2.7C476.5,165.6,475.4,165.4,473.8,165.4z"/>
	<path opacity="0.4" enable-background="new    " d="M439.5,192.5c0.4,0.8,0.6,1.4,0.9,1.8c1.1,1.5,3.3,1.7,4.5,1.8
		c2.3,0.2,3.4-0.5,3.6,0c0.3,0.5-1.1,2-2.7,2.7c-1.6,0.7-3.2,0.5-5.4,0c-1.4-0.3-2.2-0.4-2.7-0.9c-1.6-1.4-1-4.2-0.9-4.5
		c0.4-1.4,1.3-2.8,1.8-2.7C438.9,190.8,439,191.2,439.5,192.5z"/>
	<path opacity="0.4" enable-background="new    " d="M457.6,220.5c-0.9,2.9-4.5,4.2-5.4,4.5c-2.2,0.8-2.3,0-7.2,0.9
		c-2.4,0.5-2.3,0.5-4.5,0.9c-1.9,0.3-3,0.3-4.5,0.9c-0.3,0.1-2.8,1.1-2.7,1.8c0.1,0.7,3.2,0.8,5.4,0.9c2.8,0.1,3.3-0.2,5.4,0
		c1.7,0.2,5.1,0.5,5.4,1.8c0.2,0.6-0.5,1.3-0.9,1.8c-1.9,2.1-4.2,1.5-7.2,3.6c-1,0.7-1.9,1.4-1.8,1.8c0.3,1.2,6.4,1.1,11.8-0.9
		c2-0.7,5.5-2.1,8.1-5.4c1.5-2,1-2.4,3.6-7.2c2.6-4.9,3.5-5.2,3.6-7.2c0.2-3.3-2-6.2-2.7-7.2c-1-1.4-2-2.2-2.7-2.7
		c-1.3-1-2.9-2.3-3.6-1.8c-0.5,0.4-0.2,1.4,0,4.5c0.1,1.5,0,1.2,0,4.5C457.6,220,457.8,220,457.6,220.5z"/>
	<path opacity="0.4" enable-background="new    " d="M409.7,228.6c-0.7,0.9,2.4,5.4,6.3,8.1c2.2,1.5,4.4,2.4,8.1,5.4
		c2.2,1.8,2.5,2.4,2.7,2.7c1.3,2.6,0,5.6-1.8,9.9c-1,2.4-1.4,2.6-1.8,2.7c-2.1,0.4-4.1-5.8-5.4-5.4c-1,0.3-0.9,3.8-0.9,9
		c-0.1,11.7-1,14.1,0.9,15.4c2.6,1.7,7.6-0.7,9.9-1.8c1.4-0.6,2.1-1,2.7-1.8c1.6-2.1,0.5-4.2,0.9-9c0.3-3.1,1.1-6.3,1.8-6.3
		c0.9,0,0.7,4.8,2.7,5.4c0.6,0.2,2.1,0.1,6.3-5.4c3.3-4.2,4.3-6.8,6.3-9.9c5-8,9.8-10.7,9-11.8c-0.8-1.3-6.7,3.3-14.5,4.5
		C426,242.9,411.1,226.8,409.7,228.6z"/>
	<path opacity="0.4" enable-background="new    " d="M364.5,225.9c-5.8,0.5-8,5.2-14.5,10.8c-5.5,4.9-5.4,2.9-17.2,10.8
		c-8.7,5.9-16.4,11.1-15.4,13.6c1,2.4,10.5,1.1,15.4,0c10.3-2.3,9.7-5.3,24.4-10.8c5.7-2.2,10.4-3.4,15.4-8.1c2.2-2,3.6-4,4.5-5.4
		c4.6-10.1,4.5-12.9,3.6-13.6c-1.2-0.8-3.5,1.8-9,2.7C368.1,226.6,367,225.8,364.5,225.9z"/>
	<path opacity="0.4" enable-background="new    " d="M350,228.6c0.2,0.5-5.7,2.8-9.9,4.5c-13.5,5.4-14.7,6.1-16.3,7.2
		c-6.5,4.5-8.9,9.7-9.9,9c-1-0.5-0.2-5.4,2.7-9c3.2-4,5.9-2.8,9.9-7.2c3.2-3.4,3.1-5.8,5.4-6.3c2.4-0.5,3.3,1.6,7.2,2.7
		C344.9,231.1,349.8,228.2,350,228.6z"/>
	<path opacity="0.4" enable-background="new    " d="M309.3,306.4c-3-8-9.6-10.4-21.7-19c-16.3-11.6-23.5-20.8-24.4-19.9
		c-1.2,1.1,11,16.2,19.9,26.2c8.7,9.9,15.8,16.7,15.4,17.2c-0.4,0.5-6.3-5.3-17.2-12.7c-12.1-8.1-19.4-10.8-22.6-11.8
		c-4.8-1.5-8.9-2.3-11.8-2.7c-0.5,2.5-1,6.4,0,10.8c0.7,3.1,1.7,4.7,8.1,14.5c6.6,9.9,8,11.8,10.8,12.7c2.8,0.8,3.6-0.4,9-0.9
		c7.1-0.6,9.9,1,18.1,1.8c3.8,0.4,9.3,0.7,16.3,0C310.6,318.5,311.6,312.4,309.3,306.4z"/>
	<path opacity="0.4" enable-background="new    " d="M310.2,279.3c4.2-5.2,12.1-4.9,19.9-4.5c10.7,0.5,18.6,3.6,20.8,4.5
		c8.9,3.8,8.7,6.2,19,10.8c9.3,4.2,15.5,4.9,15.4,6.3c-0.2,1.4-6.1,2.4-11.8,1.8c-7.1-0.7-9.9-3.5-18.1-7.2
		c-10.9-5.1-21.3-7.1-21.7-6.3c-0.2,0.5,3.9,2.1,9.9,6.3c6.5,4.5,12.3,10,11.8,10.8c-0.6,1-9.5-6.3-24.4-9.9
		c-8.2-2-15.9-2.4-16.3-0.9c-0.5,1.5,7.8,4.9,7.2,6.3c-0.5,1.4-7.5-1.3-9.9,1.8c-1.4,1.8-0.5,4.4-0.9,4.5c-0.7,0.2-4.1-6.5-3.6-14.5
		C307.7,285.8,307.9,282.2,310.2,279.3z"/>
	<path opacity="0.4" enable-background="new    " d="M369,306.4c9.5-1.6,12.4,1,28,1.8c9.8,0.5,14.7,0.7,20.8-0.9
		c8.5-2.3,17.2-6.3,17.2-6.3c1.5-0.7,3.4-1.6,6.3-2.7c5.2-1.9,11.5-3.4,11.8-2.7c0.3,0.7-5.1,2.2-10.8,7.2
		c-5.8,5.1-5.6,8.1-9.9,11.8c-5.3,4.5-11.8,5-18.1,5.4c-8.9,0.6-9.6-1.6-30.7-4.5c-7.6-1-11.4-1.5-16.3-1.8
		c-8.8-0.5-13.4,0.1-13.6-0.9C353.4,311.4,360.7,307.7,369,306.4z"/>
	<path opacity="0.4" enable-background="new    " d="M526.3,260.3c-2.6-0.6-8-1.2-25.3,8.1c-2.4,1.3-6.6,3.6-21.7,13.6
		c-15.5,10.2-16.5,11.3-16.3,11.8c1,2.1,27.5-8.1,29.8-9c6.9-2.6,13.9-4.8,20.8-7.2c8-2.8,11.3-4.2,12.7-2.7c2,2.1-3.1,7.1-6.3,19
		c-2.5,9.4-0.8,11.3-3.6,15.4c-3.6,5.3-9.1,5.9-19.9,9c-16.9,5.1-30.1,11.7-29.8,12.7c0.2,0.7,7.3-1,22.6-2.7c9.9-1.2,12.2-1,12.7,0
		c0.8,2-6,7-11.8,9.9c-8.9,4.6-17.3,5.3-17.2,6.3c0.2,1.1,10.8-1.4,17.2,4.5c1.4,1.4,2.3,2.8,2.7,3.6c2.7,4.9,2.1,9.7,1.8,13.6
		c-1,14.1,2.5,19.5,0,20.8c-2.4,1.3-5.8-3.7-16.3-10.8c-6.9-4.7-17.4-10.8-19-9c-1,1.2,2.5,4.8,8.1,14.5c0.8,1.4,8.7,15.2,7.2,16.3
		c-1.1,0.8-6-5.9-16.3-14.5c-7-5.8-17-12.9-18.1-11.8c-1.1,1.1,7.1,8.3,18.1,24.4c7.6,11.1,7.6,13.3,13.6,19.9
		c8,8.8,16,13.6,15.4,14.5c-0.5,0.7-5.2-1.5-9-3.6c-11.8-6.6-17.2-14.3-18.1-13.6c-1,0.7,3.5,10.8,11.8,19.9
		c7.3,8.1,10.4,7.6,15.4,15.4c2.4,3.7,3.7,7.1,6.3,7.2c2.7,0.2,5.8-3.1,6.3-6.3c0.5-3.4-2-5.2-4.5-9.9c-0.3-0.5-5.2-10.1-3.6-19
		c1-5.7,3.9-6.5,8.1-13.6c4-6.7,5.1-12.2,7.2-22.6c3.9-18.7,2.4-30.5,4.5-30.7c1.6-0.2,2.4,6.1,8.1,16.3c3.7,6.6,4,5.1,9.9,14.5
		c5.9,9.3,7.3,13.5,11.8,14.5c1.3,0.3,1.3,0,7.2-0.9c9.4-1.4,10.1-0.8,14.5-1.8c6.7-1.5,11.3-4.5,12.7-5.4
		c6.1-4.1,10.8-9.9,9.9-10.8c-0.7-0.9-4.9,3.4-11.8,4.5c-10.2,1.6-19.2-5.1-20.8-6.3c-9.2-6.9-6.5-12.5-16.3-19
		c-4.6-3.1-8.9-4.2-9-7.2c-0.1-2,1.8-3,5.4-6.3c0.5-0.5,7-6.6,10.8-13.6c3.2-5.7,4.7-12.1,3.6-12.7c-1-0.5-3.3,4.2-9,9
		c-6.4,5.4-14.5,8.5-15.4,7.2c-0.9-1.3,6.7-6.1,13.6-16.3c8.9-13.3,11.5-28.2,9.9-28.9c-1.3-0.5-6.1,7.6-8.1,10.8
		c-4.2,7.1-5.3,10.8-9.9,15.4c-1.8,1.8-5.6,5.4-7.2,4.5c-1.1-0.6-0.9-3,4.5-22.6c4-14.5,6.1-21.7,7.2-23.5c1.4-2.2,3.3-4.5,2.7-7.2
		C535.4,263.5,529.9,261.1,526.3,260.3z"/>
	<path opacity="0.4" enable-background="new    " d="M318.4,329c1.5-0.6,2.9,2.8,8.1,5.4c5.6,2.8,10.8,2.2,10.8,2.7
		c0,0.5-3.5,1.1-7.2,0.9c-3.3-0.2-4.6-0.8-5.4,0c-1.2,1.2,0.1,4.3,0.9,6.3c3.4,8.9,1,10.1,3.6,17.2c3.3,8.7,9.6,13.8,12.7,16.3
		c8.9,7.2,17.5,8.6,17.2,9.9c-0.3,1.2-7.1,1-13.6-0.9c-8.8-2.5-13.6-7.2-14.5-6.3c-1.1,1.2,5.4,8.9,6.3,9.9
		c8.4,9.9,13.6,16.2,23.5,23.5c15.4,11.5,30.1,16.9,50.6,24.4c11.4,4.2,26.3,9.6,47,13.6c14.6,2.8,27.4,4,37.1,4.5
		c4.8,3.6,9.7,7.2,14.5,10.8c0,1.8,0,3.6,0,5.4c-5.4,0.2-13.3,0.1-22.6-0.9c-9.5-1.1-24.9-3.6-62.4-19
		c-23.1-9.5-34.8-14.3-48.8-22.6c-16.2-9.6-32.1-19-43.4-32.5c-1.3-1.5-5.6-6.8-6.3-6.3c-0.8,0.5,3,8,6.3,13.6
		c2.3,3.8,8.5,13.5,23.5,28c8.6,8.3,13.9,12.2,13.6,12.7c-0.5,0.6-11.9-6.7-22.6-15.4c-9.3-7.6-16.2-14.7-20.8-19.9
		c-2.8-12.1-4-22-4.5-28.9c-0.6-8.3-0.4-12.7-1.8-22.6c-0.4-2.3-1-7-1.8-13.6C316.8,332.2,317.1,329.5,318.4,329z"/>
	<path opacity="0.4" enable-background="new    " d="M402.4,460c18.2,8,31.2,13.8,47.9,18.1c12.1,3.1,19.8,5.1,30.7,4.5
		c13.5-0.7,24.1-4.9,30.7-8.1c0.5,0.2,4,1.2,4.5,3.6c0.5,2.3-1.7,4.4-2.7,5.4c-8.8,8.5-37.1,5.4-37.1,5.4
		c-12.7-1.4-22.6-2.4-37.1-7.2c-31.1-10.3-54-27.9-53.3-28.9C386.4,452.4,389.7,454.4,402.4,460z"/>
	<path opacity="0.4" enable-background="new    " d="M519.9,484.4c-3.4-1.4-8.4,3.4-10.8,5.4c-4.4,3.6-11.7,4.5-26.2,6.3
		c-12.2,1.5-29.5,3.6-49.7-1.8c-10.1-2.7-16.8-6.2-17.2-5.4c-0.5,1,9.9,7.8,21.7,12.7c9.7,4,17.9,5.7,25.3,7.2
		c16.9,3.4,28,3.6,28,5.4c0,0.5-1.2,1.2-7.2,2.7c-12.5,3.3-21.7,4.5-21.7,4.5c-13.6,1.9-20.4,2.9-21.7,2.7
		c-13.7-1.9-21.5-12.1-22.6-10.8c-1,1.1,4.2,10,13.6,14.5c8,3.7,15.3,2.5,15.4,3.6s-7,2.7-16.3,3.6c-13.3,1.3-22.7,0-31.6-0.9
		c-28.3-2.9-43-4.2-57.8,2.7c-5.9,2.7-10.1,6-12.7,8.1c-0.5,2.3-0.6,5,0.9,6.3c2.9,2.5,10-1.5,14.5-3.6c5.2-2.4,14.9-3.4,34.3-5.4
		c29.1-3,29.2,0,61.5-2.7c11.9-1,17.1-1.9,26.2-0.9c11.3,1.2,14.5,3.6,27.1,4.5c6.1,0.5,13.6,1,22.6-0.9c6-1.3,16.6-4.3,28-13.6
		c-1.2-3-2.4-6.1-3.6-9c-1.4,1.2-3.6,2.9-6.3,4.5c-5.4,3.3-10.8,5-17.2,6.3c-13.5,2.8-27,2.9-27.1,1.8c-0.1-0.7,6.8-1.1,18.1-5.4
		c5.7-2.2,8.6-3.9,14.5-7.2c5.2-3.1,8.3-5.3,9.9-9c0.5-1.2,1.4-3.1,0.9-5.4c-0.5-3.1-2.5-3.2-3.6-6.3c-1.3-3.7,0.8-5.6-0.9-8.1
		c-0.6-0.8-0.8-0.6-3.6-2.7C521.1,485.5,520.9,484.9,519.9,484.4z"/>
	<path opacity="0.4" enable-background="new    " d="M350.9,451c10.7,9.8,16.6,15.2,22.6,19.9c20.8,16.5,39.3,22.5,38.9,23.5
		c-0.4,0.9-13.8-3.1-28-9.9c-23.4-11.4-39.6-26.6-49.7-38c-5.7-10.1-6.2-12.9-5.4-13.6C330.7,431.8,337.2,438.5,350.9,451z"/>
	<path opacity="0.4" enable-background="new    " d="M344.6,597.4c0.3,0.5,0.5,0.9,0.9,0.9c1.2-0.1,0.8-6.6,1.8-11.8
		c1.4-7.2,5.4-12.1,8.1-15.4c11.3-13.6,29.3-14.4,28.9-16.3c-0.3-1.4-9.5-1.6-18.1,1.8c-4.3,1.7-7.3,4-11.8,7.2
		c-7.9,5.9-11.5,10.2-11.8,9.9c-0.4-0.4,5.5-9.9,16.3-17.2c7.6-5.2,13.7-6.5,13.6-7.2c-0.4-1-12.8,1.4-24.4,6.3
		c-6.4,2.7-4.9,3-12.7,6.3c-4.5,2-6.6,2.5-7.2,4.5c-0.7,2.2,1.3,3.5,4.5,9.9c2.5,4.9,2.2,5.6,4.5,9.9c2,3.6,4,6.4,5.4,8.1"/>
	<path opacity="0.4" enable-background="new    " d="M384.4,579.4c-3.3,7.2-7.1,17.7-8.1,28.9c-0.4,3.8-0.3,7.1,0.9,10.8
		c1.8,5.4,5.2,8.8,8.1,11.8c6.9,6.8,14.3,9.8,17.2,10.8c10.6,3.9,12.9,0.8,19,4.5c9.5,5.9,12.3,19,10.8,19.9
		c-1.1,0.6-3.5-5.2-10.8-8.1c-5.6-2.3-7.3-0.2-15.4-1.8c-4.9-1-11.2-2.4-16.3-7.2c-3.4-3.3-3.9-6.1-9-9.9c-1.5-1.2-2.7-1.9-4.5-3.6
		c-1.3-1.3-3.7-3.8-5.4-7.2c-2.7-5.3-2.7-10.4-2.7-13.6c0.1-8.7,3.3-15.4,5.4-19"/>
	<path opacity="0.4" enable-background="new    " d="M418.7,547.7c-0.6,0.2-2.7,0.8-2.7,1.8c-0.1,1.4,4.1,2.6,7.2,3.6
		c0,0,6.8,2.3,16.3,7.2c10.8,5.7,16.9,15.5,16.3,16.3c-0.5,0.5-5.3-4.6-15.4-9.9c-8.5-4.5-16.1-6.7-16.3-6.3c-0.2,0.4,7,2.7,15.4,9
		c4.7,3.5,9.1,6.9,12.7,12.7c3.3,5.2,2.5,7.3,7.2,15.4c2.1,3.6,4.1,6.4,5.4,8.1c4.2,5.5,7.6,8.5,9.9,10.8
		c6.8,6.9,9.9,14.2,14.5,25.3c2.1,5,4.4,11.7,6.3,19.9c6,5,13.2,11.6,20.8,19.9c1.6,1.8,9.3,10.2,18.1,22.6
		c5.9,8.2,10.5,16.4,19.9,32.5c6.6,11.4,7.5,13.6,8.1,15.4c2.7,7.2,3.1,12.3,5.4,12.7c2,0.3,3.9-3,6.3-7.2
		c3.1-5.3,6.1-10.6,6.3-18.1c0.1-3.5,0.3-10.4-3.6-12.7c-3.3-2-6,1.4-10.8,0c-2.4-0.7-3.8-2.2-9.9-10.8c-6.1-8.6-9.1-12.9-9.9-15.4
		c-2.1-6.2,0-7-1.8-15.4c-2.3-10.4-6.2-12.7-4.5-16.3c1.8-3.6,6.5-2.1,17.2-6.3c6.1-2.4,12.2-5,15.4-10.8c2.9-5.3,2.5-12.1,0.9-12.7
		c-1.3-0.5-2.5,3.3-7.2,8.1c-5,5.1-6.8,4.1-18.1,11.8c-5.5,3.7-6.2,4.8-8.1,4.5c-3.4-0.5-4.5-4.2-10.8-14.5c-6-9.6-8-10.9-7.2-13.6
		c1.1-3.9,6.3-4.2,16.3-8.1c10.6-4.2,23.4-11.5,22.6-14.5c-0.5-1.7-5.3-1.7-13.6-1.8c-9.3-0.1-11.5,0.9-19.9,0.9
		c-8.5,0-13-0.1-18.1-2.7c-5.2-2.7-11.1-8.3-9.9-11.8c1.1-3.3,7.4-1.5,16.3-5.4c9.9-4.3,16.5-12.6,15.4-14.5
		c-1.3-2.2-11.8,5.7-23.5,1.8c-5.2-1.7-9.6-5.3-9-7.2c0.9-3.1,15-0.5,16.3-4.5c0.9-2.7-4.8-6-3.6-9c0.7-1.8,3.3-2.4,4.5-2.7
		c4.1-1.1,9.5-4.5,15.4-14.5c-1.6,1-4.1,2.4-7.2,3.6c-11.7,4.8-21.8,4-30.7,3.6c-27.8-1.3-23,2-36.2,0
		C456.7,548.6,429.2,544.4,418.7,547.7z"/>
	<path opacity="0.4" enable-background="new    " d="M570.6,765.6L570.6,765.6c0,0,1.7,0.3,2.7,0.9c1.4,0.9,0.6,2.2,1.8,3.6
		c1.3,1.6,3.7,2.1,5.4,1.8c1.4-0.2,2.4-0.8,3.6-1.8c5.5-4.2,7.1-6.7,8.1-6.3s0.3,4.2,0,7.2c-0.5,7.2,1.9,11.9,3.6,17.2
		c4.8,14.4,4.2,32,1.8,32.5c-1.1,0.3-2.2-3.1-7.2-12.7c-10-19.1-15-28.7-16.3-30.7C574.2,777.3,574.2,777.3,570.6,765.6z"/>
	<path opacity="0.4" enable-background="new    " d="M615.8,845.1c-3.3,1.4-3.5,8.3-2.7,12.7c0.8,4.5,2.4,5,5.4,11.8
		c2.8,6.4,4.4,10.2,3.6,14.5c-0.6,3.4-3.4,6.2-9,11.8c-6.8,6.7-10.2,10.1-14.5,10.8c-7.7,1.4-14.2-3.6-15.4-4.5
		c-7.1-5.6-7.8-13.8-9-13.6c-1.3,0.4-0.8,9.4,2.7,18.1c1.9,4.7,3.8,9.4,8.1,10.8c1.1,0.4,3.3,0.9,11.8-2.7c2.3-1,8.4-3.7,19-10.8
		c7.5-5.1,9.3-7.1,10.8-9c1.5-2.1,3.9-5.2,4.5-9.9c0.8-6-1.7-10.8-3.6-14.5c-3.4-6.7-6-6.8-6.3-10.8c-0.5-5.1,3.3-7.4,1.8-10.8
		C621.8,846,618.1,844.2,615.8,845.1z"/>
	<path opacity="0.4" enable-background="new    " d="M423.2,568.5c-0.2,0.5,8.3,2.2,14.5,9.9c4.9,6.1,3.2,9.6,8.1,15.4
		c5.2,6.1,13.6,9.9,15.4,8.1c2.1-2.1-4.5-13.3-12.7-20.8C437.2,570.6,423.5,568,423.2,568.5z"/>
	<path opacity="0.4" enable-background="new    " d="M546.2,846.9c1.6,0.3-0.1,6.3,3.6,14.5c1.8,4,3.7,5.7,8.1,10.8
		c7.1,8.4,10.8,12.6,12.7,16.3c6.2,12.1,2.6,21.6,9.9,26.2c1.5,1,2.6,1.1,4.5,2.7c4.2,3.6,4.7,8,6.3,11.8c3,7,9.5,10.4,15.4,13.6
		c11.2,6,21.6,5,21.7,7.2c0,1.4-3.7,2.4-4.5,2.7c-2.2,0.6-7.8,1.8-19.9-3.6c-7.1-3.3-12.4-5.6-17.2-10.8c-3.2-3.4-4-5.9-9-18.1
		c-10.5-25.7-11.8-27.7-13.6-29.8c-4.8-6.1-13.6-14.6-14.5-15.4c-5.5-5.2-7.9-7-9-10.8C538.3,855.9,544.1,846.5,546.2,846.9z"/>
	<path opacity="0.4" enable-background="new    " d="M246.1,302.8c-4.9,0.7-6.1,10.5-12.7,28.9c-3.3,9-6.3,16-12.7,29.8
		c-8.9,19.4-15.8,31.5-19,47c-1.3,6.1-1.4,10.4-0.9,14.5c0.8,6.4,2.6,7.6,4.5,16.3c1.4,6.7,1.7,12.3,1.8,15.4
		c0.4,9.9-0.9,14.2,0,14.5c1.4,0.4,6.1-9.9,7.2-20.8c0.5-4.6,0.2-7.6,0-9c-0.7-5.7-2.6-8.9-3.6-11.8c-0.6-1.9-2.2-7.3,1.8-20.8
		c6-20,19.2-41,23.5-47.9c5.2-8.4,13.7-22.1,24.4-39.8C253.3,304.7,248.8,302.3,246.1,302.8z"/>
	<path opacity="0.4" enable-background="new    " d="M165.6,452.8c-1.3-0.8-6.5,3.3-9,9c-0.3,0.6-4,9,0,16.3c0.5,1,0.5,0.7,3.6,4.5
		c3.7,4.5,6.1,7.5,8.1,10.8c4.8,7.6,4.1,10.8,7.2,11.8c2.7,0.8,4.1-1.2,8.1,0c2.9,0.8,3.7,2.3,5.4,1.8c2.1-0.5,3.3-3.3,3.6-5.4
		c0.8-4.5-2.3-6.3-3.6-11.8c-1.8-7.4,1.5-13.4,0.9-13.6c-0.5-0.2-4,5.5-4.5,12.7c-0.2,2.6,0,5.2-0.9,5.4c-1.3,0.4-3-4.7-5.4-4.5
		c-1.6,0.1-1.8,2.4-3.6,2.7c-2,0.3-4.3-2.3-5.4-4.5c-1.6-3.4,0-5.2-1.8-8.1c-1.3-2.1-2.4-1.5-3.6-3.6c-1.2-2.1-1.2-4.2-0.9-8.1
		c0.1-1.1,0.2-2.6,0.9-7.2C165.8,454.2,166.2,453.2,165.6,452.8z"/>
	<path opacity="0.4" enable-background="new    " d="M584.1,389.5c-0.7,2-1.7,5.1-1.8,9c-0.1,1.4,0,4.2,0.9,8.1
		c3.6,14.8,12.7,27.1,12.7,27.1c12.6,17.1,15.6,11.8,25.3,26.2c2.6,3.9,11.1,17.4,19,21.7c3.3,1.8,6.3,2.7,6.3,2.7
		c5.2,1.6,6.1,0.5,9,1.8c4.4,2,3.5,4.9,9,8.1c1.9,1.2,5.1,3,8.1,1.8c0.3-0.1,3-1.2,3.6-3.6c0.8-3.2-2.7-5.4-1.8-7.2
		c0.5-0.9,1.8-1.1,8.1-0.9c6,0.2,8.9,0.3,9.9,0.9c3.6,2.2,1.7,5.2,6.3,9.9c2.6,2.7,5,3.5,5.4,6.3c0.1,0.4,0.4,2.5-0.9,3.6
		c-1.9,1.5-5.7-0.9-6.3,0c-0.6,1,3.9,3.7,3.6,7.2c-0.2,2-1.9,3.8-3.6,4.5c-2.7,1.2-5.7-0.2-13.6-4.5c-9.7-5.3-9.2-5.6-12.7-7.2
		c-7.1-3.3-7.9-2-16.3-5.4c-5.2-2.1-10.5-4.3-15.4-9c-4.1-3.9-6-7.8-7.2-9.9c-4.1-7.3-10.9-13.4-24.4-25.3
		c-18.9-16.6-21.4-15.6-32.5-26.2c-6.3-6.1-15-15.4-23.5-28.9c3.7-1.5,7.7-3.1,11.8-4.5C570.7,393.2,577.6,391.3,584.1,389.5"/>
	<path opacity="0.4" enable-background="new    " d="M794.7,752.9c-2.8,1,3.2,13.3,0.9,35.3c-1.3,11.8-2.8,26.9-13.6,38.9
		c-14.6,16.1-36.9,16.2-44.3,16.3c-28.4,0.2-47.9-16.6-53.3-21.7c2.2,6,6.8,16,16.3,25.3c15.3,14.9,33.1,18,39.8,19
		c7.6,1.2,23,3.5,39.8-4.5c18.2-8.8,26.1-24.2,28.9-29.8c7.1-14.4,7.3-27.3,7.2-30.7C816.1,774,798.7,751.5,794.7,752.9z"/>
	<path opacity="0.4" enable-background="new    " d="M477.5,742.1c0.8-1.2,19.8,10.4,36.2,21.7c15.8,10.9,23.7,16.5,28,22.6
		c9.3,13.3,14.9,21.2,17.2,31.6c0.5,2.3,1.8,9,6.3,10.8c2.1,0.8,4.2,0.4,6.3,0c4.8-0.9,5.6-2.9,9.9-3.6c3.2-0.5,7-0.2,7.2,0.9
		c0.4,1.4-6.1,1.7-9.9,7.2c-2,2.8-2.1,5.2-5.4,9c-1.1,1.3-2.1,2.2-2.7,2.7c-2.4,1.1-5.9,2.2-9,0.9c-6.1-2.4-4.9-11-10.8-25.3
		c-4.5-10.9-10.4-18.5-13.6-22.6c-2.4-3-5.6-7.1-10.8-11.8c-6.6-5.8-8.9-5.8-15.4-10.8c-6.9-5.4-6.8-7.3-16.3-17.2
		C483.8,747.1,476.9,742.8,477.5,742.1z"/>
</g>
<g id="vs-outline">
	
		<path fill="none" stroke="#000000" stroke-width="7.2311" stroke-linecap="round" stroke-linejoin="round" stroke-miterlimit="10" d="
		M476.6,124.7c0.3,0.5,0.6,1.2,0.9,1.8c2.5,5.3,3.9,10.6,4.5,15.4c-0.7,0.2-1.5,0.3-2.3,0.5c0.5,4.4,0.7,8.1,0.9,10.8
		c0.6,10.6,0.3,14.7,0,17.2c-0.3,2.4-0.6,4.2-0.9,5.4c0.4,2.4,0.8,6.1,0.5,10.4c-0.6,7.5-3.2,13.1-6.3,19.9c-2.4,5.1-3,5.3-8.1,15.4
		c-2,3.8-3.5,7-4.5,9c2.3-1.1,4.1-1.2,5.4-0.9c2.6,0.5,3.6,2.1,8.1,5.4c1.8,1.4,3.3,2.5,5.4,3.6c3.6,2,5.4,2,9.9,3.6
		c4.1,1.4,4.1,1.9,9.9,4.5c5.1,2.2,7.1,2.7,11.8,4.5c3.9,1.4,9.5,3.8,16.3,7.2"/>
	
		<path fill="none" stroke="#000000" stroke-width="5.4233" stroke-linecap="round" stroke-linejoin="round" stroke-miterlimit="10" d="
		M480.2,142.8c-6.8-5.3-13.1-7.9-17.2-9c-20-6-37,2.6-40.7,4.5c-3.3,1.6-9,4.6-14.5,10.8c-4.4,5.1-6.9,10.2-8.1,13.6"/>
	
		<path fill="none" stroke="#000000" stroke-width="5.4233" stroke-linecap="round" stroke-linejoin="round" stroke-miterlimit="10" d="
		M482,141.9c-0.5-3.9-1.4-8.6-3.6-13.6c-0.5-1.3-1.2-2.5-1.8-3.6c-3.7-3.3-10.7-8.6-20.8-10.8c-17.7-4-31.8,4.2-35.3,6.3
		c-8.1,5.1-12.7,11.4-15.4,15.4c-6.3,9.1-8.9,18.1-9.9,23.5"/>
	
		<path fill="none" stroke="#000000" stroke-width="7.2311" stroke-linecap="round" stroke-linejoin="round" stroke-miterlimit="10" d="
		M388.9,183.5c-0.4-3.9-0.6-7.8-0.8-11.8c-0.2-2.4-1-6.1-0.1-8.6c0.3-0.6,0.5-1.1,1.1-1.4c1.8-1.3,5.2-0.2,8.9,2.8"/>
	
		<path fill="none" stroke="#000000" stroke-width="7.2311" stroke-linecap="round" stroke-linejoin="round" stroke-miterlimit="10" d="
		M483.8,160c0-1.8-0.9-5.4,0.9-6.3c7.2-2.7,5.4-9,5.4-15.4c0-0.9,0.9-0.9,0.9-1.8c0-6.3-3.6-10.8-6.3-16.3c-0.9-2.7-1.8-5.4-1.8-8.1
		c-0.9-2.7-5.4-0.9-7.2-2.7c-1.8-2.7,0-6.3-1.8-9c-2.7-2.7-6.3-4.5-8.1-7.2c-0.9-5.4-3.6-9-9.9-9c-0.9,0.9-1.8-1.8-0.9-3.6
		c0.9-2.7,2.7-5.4,1.8-8.1c-6.3-8.1-17.2-8.1-27.1-7.2c-2.7,0.9-6.3,1.8-7.2,7.2c0,4.5-6.3,4.5-10.8,3.6c-5.4-2.7-11.8-2.7-15.4,1.8
		s2.7,7.2,5.4,10.8c0.9,2.7,0,6.3-3.6,7.2c-2.7,0.9-3.6-2.7-6.3-2.7c-5.4-0.9-9,2.7-13.6,5.4c-1.8,0.9-2.7,2.7-1.8,5.4
		c0.9,4.5,4.5,7.2,6.3,11.8c0,0.9-0.9,1.8-0.9,1.8c-2.7,0.9-6.3-1.8-9-0.9c-5.4,2.7-6.3,9-5.4,14.5c0.9,3.6,4.5,4.5,8.1,4.5l0.9,1.8
		c-0.3,1.1-0.8,2.7-1.8,4.5c-3.2,6-6.6,6.3-8.1,10.8c-0.3,0.7-1.6,5.2,0.9,9c2,2.9,5.1,3.7,6.1,4"/>
	
		<path fill="none" stroke="#000000" stroke-width="7.2311" stroke-linecap="round" stroke-linejoin="round" stroke-miterlimit="10" d="
		M389.8,185.3c0,0.5,0.2,1.7,0.9,2.7c1.2,1.5,3.3,2.3,5.4,1.8c1.2,4.1,2.4,10,1.8,17.2c-0.3,3.9-1,7.2-1.8,9.9
		c-2.8,0.2-6.1,0.7-9.9,1.8c-5.3,1.5-6.3,3-10.8,4.5c-4.2,1.4-8,1.5-15.4,1.8c-8.9,0.4-10.3-0.7-14.5,0.9c-3.3,1.3-4.3,2.6-7.2,2.7
		c-4,0.1-5.5-2.4-9-3.6c-3.8-1.3-7.1-0.2-16.3,3.6c-9.9,4.2-15.2,5.6-20.8,9c-4.7,2.9-8.3,5.9-10.8,8.1c-8.7,4-15.5,8.2-20.8,11.8
		c-9.4,6.4-15.9,12.6-19.9,16.3c-3,2.8-5.4,5.3-7.2,7.2c-9.7,14.1-15.9,26.5-19.9,35.3c-3.5,7.8-2.5,6.9-17.2,45.2
		c-5.8,15.2-8.7,22.9-9,23.5c0,0-3.7,7.8-6.3,16.3c-0.5,1.5-1.2,4-1.8,7.2c-0.5,2.9-0.8,5.3-0.9,7.2c-0.8,1.6-2.2,4.1-3.6,7.2
		c-3,6.2-3.2,7.8-5.4,11.8c-0.9,1.5-2.6,4.6-5.4,8.1c-2.5,3.2-3.1,3.2-5.4,6.3c-0.2,0.3-0.1,0.2-4.5,7.2c-1,1.6-1.4,2.4-1.8,3.6
		c-0.5,1.7-0.1,2.4,0,5.4c0.2,4.3-0.5,4.6,0,7.2c0.2,0.9,0.5,2.7,1.8,4.5c0.7,1.1,2.1,3.1,4.5,3.6c1.1,0.3,2.1,0.1,2.7,0
		c-0.1,0.3-0.3,2.1,0.9,3.6c1.4,1.7,3.3,1.8,3.6,1.8c1,4.2,2.4,7.6,3.6,9.9c1.6,3.3,3.3,5.2,6.3,9c2.3,2.8,3.3,3.7,4.5,3.6
		c2.1-0.2,3.3-3,3.6-3.6c0.4,0.4,1.6,1.7,3.6,1.8c2.5,0.2,4.8-1.6,5.4-3.6c0.4-1.2,0-1.9-0.9-4.5c-1.1-3.3-2.3-6.5-2.7-9
		c-0.4-2.1-0.3-3.8,0-7.2c0.4-4.9,0.7-10,3.6-15.4c0.8-1.5,1.1-1.7,2.7-4.5c1.6-3,2.9-5.5,3.6-7.2c0,3.6,0,7.2,0,10.8
		c-1.4,3.4-1.8,6.3-1.8,8.1c-0.1,3-0.1,5.7,1.8,7.2c1.8,1.4,4.8,1.4,6.3,0c1-0.8,0.8-1.7,1.8-5.4c0.7-2.5,0.9-2.5,1.8-5.4
		c0.8-2.6,1.2-4.3,1.8-7.2c1.4-6.6,2.2-9.9,2.7-11.8c2-7.2,3.1-7.9,2.7-10.8c-0.4-3.2-1.8-4-3.6-8.1c0,0-1.9-4.3-2.7-11.8
		c-0.9-8.1,3-16.8,9-29.8c14.8-32.1,16.5-34.6,19-38c4.5-6,7.3-8.2,12.7-16.3c5.2-8,8.7-15,10.8-19.9"/>
	
		<path fill="none" stroke="#000000" stroke-width="5.4233" stroke-linecap="round" stroke-linejoin="round" stroke-miterlimit="10" d="
		M398.8,207c0.1,2.4,0.5,7.3,3.6,12.7c2.4,3.9,5.1,6.1,9,9c5,3.8,9,5.7,16.3,9c7.1,3.3,9,3.5,9.9,3.6c5.5,0.5,9.9-1.4,12.7-2.7
		c5.6-2.5,9.5-6.3,11.8-9"/>
	
		<path fill="none" stroke="#000000" stroke-width="5.4233" stroke-linecap="round" stroke-linejoin="round" stroke-miterlimit="10" d="
		M460.3,166.3c1.3-0.7,3.1-1.7,5.4-2.7c3-1.3,4.5-1.9,6.3-1.8c1,0,3.5,0.3,6.3,2.7"/>
	
		<path fill="none" stroke="#000000" stroke-width="5.4233" stroke-linecap="round" stroke-linejoin="round" stroke-miterlimit="10" d="
		M444,164.5c-4.3-2-8.1-3.1-10.8-3.6c-2.1-0.5-4.2-0.9-7.2-0.9c-3,0-5.5,0.5-7.2,0.9"/>
	
		<path fill="none" stroke="#000000" stroke-width="5.4233" stroke-linecap="round" stroke-linejoin="round" stroke-miterlimit="10" d="
		M459.4,175.3c1.7,0.5,4.2,1,7.2,0.9c2.2-0.1,4-0.5,5.4-0.9"/>
	
		<path fill="none" stroke="#000000" stroke-width="5.4233" stroke-linecap="round" stroke-linejoin="round" stroke-miterlimit="10" d="
		M463,177.1c0.6,1.4,1.4,1.7,1.8,1.8c0.9,0.2,1.5-0.3,4.5-1.8c0.8-0.4,1.4-0.7,1.8-0.9"/>
	
		<path fill="none" stroke="#000000" stroke-width="5.4233" stroke-linecap="round" stroke-linejoin="round" stroke-miterlimit="10" d="
		M439.5,174.4c-2.1,0.2-4.5,0.2-7.2,0c-3.9-0.3-7.2-1-9.9-1.8"/>
	
		<path fill="none" stroke="#000000" stroke-width="5.4233" stroke-linecap="round" stroke-linejoin="round" stroke-miterlimit="10" d="
		M437.7,176.2c-0.4,0.7-1.2,2.2-2.7,2.7c-1.1,0.4-2.3-0.1-4.5-0.9c-3.9-1.4-5.8-3.2-6.3-3.6c-0.4-0.4-0.7-0.7-0.9-0.9"/>
	
		<path fill="none" stroke="#000000" stroke-width="5.4233" stroke-linecap="round" stroke-linejoin="round" stroke-miterlimit="10" d="
		M459.4,167.2c-0.6,1-1.3,2.3-1.8,3.6c-1,2.4-1.5,4.5-1.8,6.3c-0.5,3.1-1,5.9,0,9c0.5,1.7,0.9,1.7,1.8,4.5c0.9,2.7,1.4,4.1,0.9,5.4
		c-0.6,1.9-2.6,3.4-4.5,3.6c-1.8,0.2-2.2-0.9-4.5-0.9c-2.2,0-2.6,0.9-4.5,0.9c-1.1,0-2.6-0.4-4.5-1.8"/>
	
		<path fill="none" stroke="#000000" stroke-width="5.4233" stroke-linecap="round" stroke-linejoin="round" stroke-miterlimit="10" d="
		M431.4,215.1c1.2-0.5,5.3-2.2,9-2.7c2.2-0.3,3.3-0.1,3.6,0c1.4,0.4,1.6,0.8,2.7,0.9c1.7,0.2,2-0.8,3.6-0.9c2.1-0.1,3.9,1.4,5.4,2.7
		c0.8,0.7,1.4,1.4,1.8,1.8"/>
	
		<path fill="none" stroke="#000000" stroke-width="5.4233" stroke-linecap="round" stroke-linejoin="round" stroke-miterlimit="10" d="
		M432.3,217.8c0.3,0.9,0.8,2.3,1.8,3.6c2.5,3.3,6.1,4.2,7.2,4.5c2.7,0.6,5,0.4,6.3,0c1.3-0.3,3.4-0.8,5.4-2.7
		c1.7-1.6,2.4-3.5,2.7-4.5"/>
	
		<path fill="none" stroke="#000000" stroke-width="3.6155" stroke-linecap="round" stroke-linejoin="round" stroke-miterlimit="10" d="
		M431.4,216.9c3.2,0.8,7.1,1.5,11.8,1.8c5.3,0.3,10-0.3,13.6-0.9"/>
	
		<path fill="none" stroke="#000000" stroke-width="7.2311" stroke-linecap="round" stroke-linejoin="round" stroke-miterlimit="10" d="
		M373.5,166.3c-0.6,3.4-1.8,7.1-4.5,8.1c-3.5,1.3-6.8-3.1-9.9-1.8c-2.2,0.9-1.3,3.5-3.6,9c-1.6,3.9-3.7,6.6-6.3,9.9
		c-4.2,5.5-6.1,6.1-6.3,9c-0.2,2.6,1.2,5.9,3.6,7.2c3.3,1.8,6.6-0.8,8.1,0.9c1.2,1.4-0.5,3.4,0,7.2c0.4,2.8,1.7,5,2.7,6.3"/>
	
		<path fill="none" stroke="#000000" stroke-width="5.4233" stroke-linecap="round" stroke-linejoin="round" stroke-miterlimit="10" d="
		M164.7,460.9c-1.2,1.2-2.4,2.4-3.6,3.6c0,4.5,0,9,0,13.6"/>
	
		<path fill="none" stroke="#000000" stroke-width="5.4233" stroke-linecap="round" stroke-linejoin="round" stroke-miterlimit="10" d="
		M170.1,467.3c-0.9,7.2-1.8,14.5-2.7,21.7"/>
	
		<path fill="none" stroke="#000000" stroke-width="5.4233" stroke-linecap="round" stroke-linejoin="round" stroke-miterlimit="10" d="
		M179.2,469.1c-0.9,7.2-1.8,14.5-2.7,21.7c0.5,1.4,1.1,3,1.8,4.5c1.4,3.2,3,5.9,4.5,8.1"/>
	
		<path fill="none" stroke="#000000" stroke-width="7.2311" stroke-linecap="round" stroke-linejoin="round" stroke-miterlimit="10" d="
		M252.4,265.7c-3.3,5.8-5.2,10.8-6.3,14.5c-2,6.2-3.2,10-1.8,14.5c0.5,1.9,2.2,4,5.4,8.1c6.1,7.9,6.9,7.1,10.8,12.7
		c2.7,3.9,3.2,5.4,5.4,6.3c2.7,1.1,4.7-0.2,9-0.9c2.4-0.5,3.6-0.4,11.8,0c3.3,0.2,12.8,0.5,21.7,0.9c2.1,1.4,4.8,3.7,6.3,7.2
		c1.6,3.7,0.5,5.1,1.8,10.8c1.4,5.5,2.9,5.9,3.6,10.8c0.2,1,0.2,1.7,0,8.1c-0.4,10.2-0.5,12.5,0,16.3c0.5,3.2,1.3,5.7,1.8,7.2
		c0.5,3.3,1.1,6.5,1.8,9.9c0.5,2.8,1.2,5.5,1.8,8.1c0.2,5.8,0.7,12.1,1.8,19c1.7,10.8,4.4,20.2,7.2,28c-1.2,10.2-2.1,18.8-2.7,25.3
		c-1.4,13.8-2.7,28.3-2.7,40.7c0,9.5,0,14.3,0,14.5c0.5,3.4,1.4,6.1,0,9c-1.1,2.4-2.9,3.3-2.7,5.4c0.2,2.1,2.2,2.4,2.7,4.5
		c0.6,2.6-1.7,4.2-2.7,7.2c-0.8,2.3-0.9,5.7,1.8,10.8c0.4,2,0.9,4.8,1.8,8.1c1.6,6.1,2.4,9,4.5,11.8c2.6,3.4,4.1,2.6,6.3,6.3
		c1.4,2.4,1.5,3.7,3.6,6.3c1.1,1.4,1.7,1.9,3.6,3.6c0,0,1.7,1.6,6.3,6.3c3.2,3.3,7.6,7.8,11.8,13.6c5.6,7.8,5.6,10.7,10.8,15.4
		c2.4,2.2,4.7,3.6,6.3,4.5"/>
	
		<path fill="none" stroke="#000000" stroke-width="7.2311" stroke-linecap="round" stroke-linejoin="round" stroke-miterlimit="10" d="
		M526.3,257.6c2.7,2.4,6.2,5.6,9.9,9.9c1.4,1.6,5.9,7,10.8,15.4c2.4,4.2,4.1,7.7,7.2,14.5c6.7,14.4,9.7,20.8,11.8,25.3
		c8.5,18.1,10.7,21.6,12.7,24.4c4.7,6.7,9.4,11.5,12.7,14.5c0.4,3.4,0.9,14.3-6.3,23.5c-1.2,1.5-4.4,5.5-9.9,8.1
		c-7.7,3.6-12.6,1.4-22.6,4.5c-4.5,1.4-7.9,3.3-9.9,4.5c-1.2-2.2-2.9-5.3-5.4-9c-4.2-6.2-7.2-8.9-10.8-13.6c-5.2-6.8-8-12.9-9-15.4
		c-2.3-5.1-3.7-9.5-4.5-12.7c-3.3,10.7-4.2,18.3-4.5,23.5c-0.1,1.7-0.2,4.8-0.9,9c-0.6,3.5-1.4,6.5-3.6,12.7
		c-3.8,10.8-7.2,18.8-8.1,20.8c-2,4.6-3.9,8.6-5.4,11.8c2.4,4.1,4.7,7.1,6.3,9c3.1,3.7,4.9,5.1,5.4,8.1c0.1,0.3,0.8,4.9-1.8,7.2
		c-2.4,2.2-6.1,1-6.3,1.8c-0.1,0.6,2.4,1.3,6.3,3.6c2.7,1.6,2.6,2,5.4,3.6c3,1.7,3.8,1.6,4.5,2.7c0.8,1.2,1.4,3.3,0,7.2
		c1.1,0.1,4.5,0.6,7.2,3.6c2,2.2,2.5,4.5,2.7,5.4c0.5,2.4,0.3,4.3,0,5.4c4.7-0.9,6.5,0,7.2,0.9c1.1,1.4,0.1,3.1,0.9,6.3
		c0.5,2.3,1.5,3.6,2.7,5.4c2.3,3.5,4.1,7.3,6.3,10.8c2.4,3.9,5.7,10.1,9,20.8c8.6,25.7,16.5,53.7,22.6,84.1
		c1.7,8.2,3.2,16.5,4.5,24.4c2.4,13.8,0.8,16.6,2.7,31.6c0.9,6.9,2.1,13.4,4.5,26.2c1.7,8.9,3.1,15.7,4.5,22.6
		c4.2,20,5.1,22.8,7.2,34.3c0.8,4.4,2.3,12.2,3.6,22.6c1.4,11,1.4,14.2,2.7,23.5c0.8,6.1,2.2,15.2,4.5,26.2"/>
	
		<path fill="none" stroke="#000000" stroke-width="7.2311" stroke-linecap="round" stroke-linejoin="round" stroke-miterlimit="10" d="
		M589.5,376c5.9,5.9,9.9,11.3,12.7,15.4c7.9,11.7,7.9,17,17.2,32.5c0.1,0.2,3.7,5.6,10.8,16.3c6.6,9.9,9.9,14.8,15.4,19
		c4.1,3.2,7.7,4.8,9,5.4c1.6,0.7,4.5,1.9,13.6,3.6c10.3,2,13.2,1.7,20.8,3.6c4,1,7.1,2,9,2.7c1.4,0.5,5,2.4,7.2,6.3
		c1.2,2.1,1.6,4.1,1.8,5.4c0.9,2.6,1.8,6.3,1.8,10.8c0,3.3-0.4,6-0.9,8.1c1.1,0.5,4.2,2.5,5.4,6.3c0.4,1,1,3.3,0,4.5
		c-1.4,1.5-5.4,0.9-9.9-1.8c0.1,1.2,0,2.6-0.9,3.6c-2,2.2-6.4,0.8-9,0c-1.6-0.5-4-1.4-9-4.5c-6.1-3.8-6.6-5-10.8-7.2
		c-2.5-1.4-4.7-2.1-9-3.6c-8.3-2.9-9.1-2.4-14.5-4.5c-4.7-1.9-8.5-3.5-11.8-7.2c-2.6-3-3.9-6.1-4.5-8.1c-3.1-3.3-7.8-8-13.6-13.6
		c-18.2-17.4-28.3-23.9-39.8-34.3c-8.4-7.7-19.5-19.3-30.7-36.2"/>
	
		<path fill="none" stroke="#000000" stroke-width="5.4233" stroke-linecap="round" stroke-linejoin="round" stroke-miterlimit="10" d="
		M642.9,487.2c1.4-0.5,4.1-1.2,7.2-0.9c0.8,0.1,3.3,0.4,6.3,1.8c3.4,1.7,3.3,3,7.2,5.4c3.1,1.9,5.5,3.4,8.1,2.7
		c2.4-0.7,4.6-3.2,4.5-5.4c-0.1-1.8-1.5-2.4-2.7-5.4c-0.7-1.8-0.9-3.4-0.9-4.5"/>
	
		<path fill="none" stroke="#000000" stroke-width="5.4233" stroke-linecap="round" stroke-linejoin="round" stroke-miterlimit="10" d="
		M674.5,481.7c2.2,1,4.9,2,8.1,2.7c3.9,0.8,7.3,1,9.9,0.9c0.8,1.2,2.2,3.1,3.6,5.4c2.5,4.1,3,5.3,4.5,6.3c1.1,0.7,3.5,1.6,8.1,0"/>
	
		<path fill="none" stroke="#000000" stroke-width="5.4233" stroke-linecap="round" stroke-linejoin="round" stroke-miterlimit="10" d="
		M707.1,500.7c-2.7-0.9-5.8-2.1-9-3.6c-3.1-1.4-5.8-3-8.1-4.5c-1.8,0.6-3.6,1.2-5.4,1.8c3,1.8,6.2,3.6,9.9,5.4
		c4.9,2.4,9.4,4.1,13.6,5.4"/>
	
		<path fill="none" stroke="#000000" stroke-width="5.4233" stroke-linecap="round" stroke-linejoin="round" stroke-miterlimit="10" d="
		M680.8,500.7c7.5,4.5,15.1,9,22.6,13.6"/>
	
		<path fill="none" stroke="#000000" stroke-width="7.2311" stroke-linecap="round" stroke-linejoin="round" stroke-miterlimit="10" d="
		M383.5,640.8c7.9,9.3,15.4,12.9,20.8,14.5c8.9,2.4,15.1,0.4,22.6,5.4c4.3,2.9,6.6,6.5,9,10.8c8.9,15.7,13.9,29.6,15.4,33.4
		c6.7,17.5,17.5,28.4,35.3,46.1c4.5,4.5,2.3,1.8,29.8,27.1c10.7,9.8,17,15.6,22.6,25.3c2.4,4.2,6.1,11.4,8.1,15.4
		c5.6,10.9,4.9,10.4,8.1,16.3c1.4,2.4,2.9,5.1,4.5,9c1.5,3.8,2.4,6.8,2.7,8.1c2.6,9.8,4.7,12.5,7.2,20.8c3.7,12,1.2,12.1,4.5,23.5
		c3.3,11.4,5.7,19.6,11.8,21.7c1.6,0.5,4,0.9,25.3-11.8c11.6-6.9,14.2-8.9,16.3-12.7c0.6-1.2,5-8.9,2.7-17.2c-2.1-7.7-8-9-8.1-16.3
		c-0.1-3.9,1.6-5.1,0.9-9c-0.6-3.1-2-4.1-5.4-9c-6.5-9.3-6.5-12.6-10.8-14.5c-2.5-1.2-5.2-1.2-7.2-0.9c-2.3-3.7-5.9-9.7-9.9-17.2
		c-14.1-25.9-15.9-36.2-30.7-64.2c-5.2-9.8-9.9-17.9-12.7-22.6c-7.4-12.7-11.2-19.1-16.3-26.2c-4.8-6.7-12.3-17-24.4-28
		c-5.2-4.8-4.9-3.8-7.2-6.3c-7.9-8.5-7.3-14.9-15.4-31.6c-2.5-5.4-4.5-9.5-8.1-14.5c-4.8-6.7-9.9-11.5-13.6-14.5"/>
	
		<path fill="none" stroke="#000000" stroke-width="5.4233" stroke-linecap="round" stroke-linejoin="round" stroke-miterlimit="10" d="
		M367.2,620.9c0-5.2,0.6-18.9,9.9-32.5c3.4-5.1,10.2-15.3,23.5-19.9c17.5-6.1,33.2,2.1,36.2,3.6c17.7,9.3,23.3,26.3,24.4,29.8
		c2.1,1.4,5.1,3.8,8.1,7.2c3.9,4.3,5.3,7.6,6.3,7.2c1.4-0.5,0-7.3-0.9-11.8c-1.1-5.6-1.7-8.8-3.6-12.7c-2.2-4.5-3.5-4.9-5.4-9
		c-2-4.2-2.5-8.2-2.7-10.8"/>
	
		<path fill="none" stroke="#000000" stroke-width="5.4233" stroke-linecap="round" stroke-linejoin="round" stroke-miterlimit="10" d="
		M498.3,662.5c3.7-2.4,9.5-5.2,16.3-4.5c6.8,0.6,8,4.2,14.5,5.4c9.5,1.9,18-3.4,27.1-9c4.3-2.7,10.8-7.2,17.2-14.5"/>
	
		<path fill="none" stroke="#000000" stroke-width="7.2311" stroke-linecap="round" stroke-linejoin="round" stroke-miterlimit="10" d="
		M553.4,837c-2.3,1.7-5.4,4.6-8.1,9c-1.3,2.1-5.4,8.9-4.5,16.3c0.9,7.8,6.8,9.4,17.2,21.7c2.9,3.4,8.8,10.8,13.6,19.9
		c8.1,15.5,4.2,19.1,10.8,28.9c10.2,15.3,27.7,18.6,29.8,19c10.1,1.7,25.3,0.6,28-6.3c1.7-4.3-2.6-8.4-8.1-19
		c-5.5-10.5-8.3-20.2-9.9-27.1"/>
	
		<path fill="none" stroke="#000000" stroke-width="5.4233" stroke-linecap="round" stroke-linejoin="round" stroke-miterlimit="10" d="
		M561.5,848.7c2.7-0.6,5.4-1.2,8.1-1.8c1.7-2.9,3.3-5.3,4.5-7.2c3.3-5,4.2-6.1,5.4-7.2c1.4-1.3,2.7-2,5.4-3.6c3.3-2,5.1-3,6.3-2.7
		c2.7,0.5,2.9,4,5.4,4.5c1.4,0.3,3.3-0.2,6.3-3.6"/>
	
		<path fill="none" stroke="#000000" stroke-width="5.4233" stroke-linecap="round" stroke-linejoin="round" stroke-miterlimit="10" d="
		M328.3,564.9c17.3-8.9,32.5-13.2,44.3-15.4c11-2.1,28.9-2,64.2-1.8c15.6,0.1,31.4-0.6,47,0c15,0.5,23.7,1.4,35.3-1.8
		c12.4-3.4,21.5-9.8,27.1-14.5"/>
	
		<path fill="none" stroke="#000000" stroke-width="5.4233" stroke-linecap="round" stroke-linejoin="round" stroke-miterlimit="10" d="
		M386.2,220.5c-1.7,1.4-4.6,4.4-6.3,9c-2.1,5.5-1.3,10.3-0.9,12.7c1.5,9.2,7.3,15.2,15.4,23.5c4.1,4.2,10,9.7,18.1,15.4
		c14.5-4,25.4-9.4,32.5-13.6c14.4-8.3,17.7-13.8,19-16.3c4.4-8.5,3.5-17.3,2.7-21.7"/>
	
		<path fill="none" stroke="#000000" stroke-width="5.4233" stroke-linecap="round" stroke-linejoin="round" stroke-miterlimit="10" d="
		M308.4,321.7c1.6-9.2,1.4-16.6,0.9-21.7c-0.9-8.6-2.7-11.8-1.8-18.1c1.4-8.9,6.9-14.9,9-17.2c8.4-8.9,16.9-8.9,40.7-17.2
		c8.4-2.9,15.1-5.6,19-7.2"/>
	
		<path fill="none" stroke="#000000" stroke-width="5.4233" stroke-linecap="round" stroke-linejoin="round" stroke-miterlimit="10" d="
		M464.8,254c1.9,1,4.9,2.7,8.1,5.4c5.5,4.6,6.4,7.5,9.9,8.1c4.2,0.7,5.8-3.1,9.9-2.7c1.8,0.2,4.9,1.3,10.8,11.8
		c4.1,7.2,7.9,13.8,9.9,24.4c0.9,4.7,1.4,9.7,0.9,21.7c-0.4,9.1-1.3,21.8-3.6,37.1"/>
	
		<path fill="none" stroke="#000000" stroke-width="7.2311" stroke-linecap="round" stroke-linejoin="round" stroke-miterlimit="10" d="
		M745.9,733.9c-4.6,0.1-31.2,1.1-49.7,22.6c-18.3,21.4-19.6,52.4-7.2,75c13.1,23.9,37.3,30.8,43.4,32.5c7,2,22.5,6.2,40.7,0
		c20.1-6.9,30.5-22.2,34.3-28.9c1-1.6,16.5-29.7,3.6-59.7c-6.4-14.8-16.7-23-20.8-26.2C772.3,735.4,753,734,745.9,733.9z"/>
	
		<path fill="none" stroke="#000000" stroke-width="7.2311" stroke-linecap="round" stroke-linejoin="round" stroke-miterlimit="10" d="
		M778.5,756.5c-6.1,7.9-12,15.6-18.1,23.5c5.2,11.1,10.2,22.3,15.4,33.4c9.3-0.3,18.7-0.6,28-0.9c0.6-12,1.2-24.1,1.8-36.2
		C796.5,769.8,787.5,763.1,778.5,756.5z"/>
	
		<path fill="none" stroke="#000000" stroke-width="7.2311" stroke-linecap="round" stroke-linejoin="round" stroke-miterlimit="10" d="
		M680.8,795.4c7.9,2.1,15.6,4.2,23.5,6.3c4.8,8.4,9.7,16.9,14.5,25.3c-3.9,8.1-7.9,16.3-11.8,24.4"/>
	
		<path fill="none" stroke="#000000" stroke-width="7.2311" stroke-linecap="round" stroke-linejoin="round" stroke-miterlimit="10" d="
		M749.5,866.8c0-6.3,0-12.7,0-19c6.6-3.3,13.3-6.6,19.9-9.9c9,3.6,18.1,7.2,27.1,10.8"/>
	
		<path fill="none" stroke="#000000" stroke-width="7.2311" stroke-linecap="round" stroke-linejoin="round" stroke-miterlimit="10" d="
		M698,757.4c0.9,3,1.8,6.1,2.7,9c10.2-0.3,20.5-0.6,30.7-0.9c4.8-7.2,9.7-14.5,14.5-21.7c-3-3-6.1-6.1-9-9"/>
</g>
<g id="vs-reveal">
	
		<path fill="none" stroke="#000000" stroke-width="71.4069" stroke-linecap="round" stroke-linejoin="round" stroke-miterlimit="10" stroke-opacity="0" d="
		M461.6,77.2c-18.3-1.1-36.7-2.3-55-3.3c-6.9-0.5-14.9-0.3-18.9,5.3c-4.5,6.4,0.1,16,7.2,19.3c7.1,3.3,15.4,2.4,23.1,1.2
		c30.2-4.5,65.4-8.3,87.1,13c-39.3,1.3-78.6-0.7-117.6-6c-5,5.9,4.3,13.4,11.8,14.7c18.3,3.2,37.1,0.3,55.7,0.9
		c18.6,0.6,38.7,5.9,49.7,20.9c-50,3-100.2,1.9-150.1-3.2c-4.1,6.1,0.1,15,6.5,18.5c6.4,3.5,14.3,3.3,21.6,3.1
		c26.8-0.9,53.6-0.7,80.4,0.6c10.8,0.5,25.9,7.3,21.5,17.3c-2.7,6.3-11.3,7-18.3,6.6c-37.1-1.9-74.1-3.8-111.3-5.7
		c-10.8-0.5-25.9,3.3-24.4,13.9c25.6,12.6,55.8,8.3,84.2,6.5c28.5-1.7,60.7,1,79.4,22.5c-67.2-0.3-134.4-0.5-201.7-0.8
		c-8,0-16.5,0.1-23.2,4.4c-6.8,4.3-10.3,14.6-5.1,20.5c81.5,0.3,163.1,0.5,244.6,0.7c8,0,16.3,0.1,23.3,3.8s12.3,12.1,9.6,19.6
		c-108.7,0.4-217.5,0.6-326.2,1c-8.7,0-17.6,0.1-25.4,4c-7.8,3.8-13.9,12.5-11.8,20.9c3,12.3,19.2,14.9,31.8,15
		c103.6,0.6,207.2,0.7,310.8,0.3c22.8-0.1,49.6,1.9,61.7,21.2c-123.6,19-249.1,25.6-374,19.8c-8.7-0.4-17.7-0.8-25.6,3
		c-7.9,3.7-13.7,13.1-10.5,21.2c128.6,0.2,257.2,0.4,385.9,0.5c26.3,0,55,0.9,75.2,17.8c-36.4,17.6-78.7,16.5-119.1,14.9
		c-97.1-3.7-194.2-7.4-291.2-11.1c-11.2-0.5-23.1-0.7-32.8,4.9s-15.6,19.3-9,28.4c127,0.3,254.1,0.5,381.1,0.7
		c27.2,0.1,54.6,0.1,81.1,6.2c17.8,4.1,35.8,11.5,47.3,25.7c-73.3,13.8-148.5,1.4-222.8-5.3c-92.8-8.3-186.3-7.4-279.5-6.5
		c-13.8,0.2-28.3,0.4-40.6,6.6c-12.3,6.2-22,20.2-18.4,33.6c186.7,0.5,373.3,0.8,560,1.3c14.5,0,34.2,5.5,32.6,19.9
		c-178.2,7.9-356.9,4.2-534.6-10.8c-2.9,7.2,2.1,15.7,8.9,19.5s15.1,3.9,23,3.9c91.6,0.7,183.2,1.4,274.8,2.2
		c24.9,0.2,52.6,1.4,70.5,18.8c-100.3,0.7-200.8,2.8-301.1,6.2c0.4,11.8,9.1,22,19.7,27.1c10.6,5.2,22.7,6.1,34.4,6.2
		c75,1.2,149.3-23.8,224.1-17.7c15.5,1.3,33.5,5.7,39.9,20c-64.1,0.1-128.2,0.2-192.3,0.3c-14.6,0-34.7,6.4-31.6,20.6
		c46.6,0.7,93.3,1.4,139.9,2.1c11.4,0.2,22.9,0.4,33.7,3.5c14.1,4.1,26.7,13.3,34.6,25.7c-66.1-6.7-132.1-13.4-198.2-20.1
		c-3.4,10.1,3.5,21.4,12.8,26.6c9.3,5.2,20.4,5.7,31.1,6.1c42.6,1.8,85.2,3.6,127.8,5.3c15,0.6,35,6.3,34.1,21.3
		c-49.1,1.6-98.2,3.3-147.2,5c-7,0.3-15.8,1.9-17.2,8.8c-1.9,9.3,11.6,13.1,21.2,12.7c35.7-1.8,71.4-3.5,107.1-5.3
		c9.2-0.5,18.9-0.8,27.4,2.9c8.5,3.8,15.3,13,13,22.1c-45.2,9.9-96.7-8.9-136.4,14.9c-2.7,1.6-5.4,3.5-6.9,6.3
		c-3.3,6.3,1.7,14.5,8.2,17.3c6.6,2.8,14.1,1.9,21.2,1.2c47.1-4.5,95.4,2.7,139,21.1c2.3,0.9,4.6,2,5.9,4.1
		c4.9,7.5-8.2,13.5-17.1,13.1c-14.2-0.5-28.3-1.2-42.5-1.7c-8-0.4-19.4,3.5-17,11.1c22.6,1.3,45.3,1.4,68,0.6
		c3.6,7.1,7.2,14,10.9,21.1c-25.8,2-51.3,6.8-76,14.3c14,7.8,31.2,4.2,47.2,3.3s35.3,3.2,40.9,18.1c-18.3,1.7-36.6,3.4-54.9,5.2
		c-7.1,0.6-16.6,4.5-14.7,11.5c21.9-1.1,43.9,2.1,64.5,9.2c7.7,2.7,16.6,11.5,10.8,17.3c-1.9,1.8-4.6,2.3-7.1,2.7
		c-10.7,1.6-21.2,3.3-31.9,4.9c0.1,4.8,0.2,9.6,0.2,14.5c14.8,2.7,29.3,7.1,43.1,12.9c-5.7,1.2-11.4,2.3-17.2,3.4"/>
	
		<path fill="none" stroke="#000000" stroke-width="71.4069" stroke-linecap="round" stroke-linejoin="round" stroke-miterlimit="10" stroke-opacity="0" d="
		M701.6,748.5c19.2-0.5,38.3-1.1,57.5-1.6c6.9-0.2,13.9-0.4,20.4,1.8c6.5,2.2,12.5,7.2,13.8,14c-26.2,2-52.6,2.9-78.9,1.5
		c-8.2-0.5-16.9-0.9-24,3.2c-7.1,4.2-10.8,14.9-4.9,20.7c39.5-2.2,79.3-0.5,118.5,5.2c4.8,0.6,9.7,1.4,13.7,3.9
		c4.1,2.4,7.4,7,7.1,11.8c-0.8,9.2-12.7,12.1-22.1,12.6c-16.7,0.8-33.5,1.5-50.1-0.8c-17.9-2.5-35.3-8.8-53.3-9.5
		c-6.5-0.3-13.4,0.4-19,3.6c-5.6,3.3-9.8,9.9-8.4,16.4c2.2,10.5,15.8,13.3,26.5,12.7c31.5-1.7,62.5-14,93.7-9.5
		c14.2,2.1,30,10.2,31.5,24.5c-11.8,7.7-27,7.3-40.9,5c-13.8-2.4-27.7-6.5-41.7-5.2c-0.5,4.1-4.2,7.6-8.3,7.7"/>
</g>
</svg>
