<?xml version="1.0" encoding="utf-8"?>
<!-- Generator: Adobe Illustrator 24.0.0, SVG Export Plug-In . SVG Version: 6.00 Build 0)  -->
<svg version="1.1" id="Layer_1" xmlns="http://www.w3.org/2000/svg" xmlns:xlink="http://www.w3.org/1999/xlink" x="0px" y="0px"
	 width="1000px" height="1000px" viewBox="0 0 1000 1000" enable-background="new 0 0 1000 1000" xml:space="preserve">
<g id="vs-highlight">
	<path fill="#5DBFD9" d="M248.5,175.1c1.5-3,0.5-3.8,1.9-9.4c1.5-6.3,4-10.2,4.7-11.3c1.3-2.1,2.2-3.4,3.8-4.7
		c3.2-2.6,5.7-2.5,12.3-4.7c3.5-1.1,8.7-2.9,8.5-3.8c-0.2-1.1-9.9-2.1-18.9,1.9c-8.9,4-13.3,11.1-15.1,14.2
		c-6,10.1-7.6,23.2-4.7,24.5C242.7,182.5,246.6,178.8,248.5,175.1z"/>
	<path fill="#5DBFD9" d="M261.7,168.5c0.4-2.6,1.2-6.9,3.8-11.3c1.8-3.1,4.1-7.3,8.5-9.4c4.2-2.1,8.8-1,17.9,0.9
		c5.5,1.2,9.3,3,17,6.6c2.7,1.2,4.3,2.2,4.7,3.8c0.8,3.6-5.2,7.8-7.6,9.4c-6,4.2-12.7,5.8-13.2,4.7c-0.5-0.9,4-3,3.8-6.6
		c-0.1-1.8-1.2-3.1-1.9-3.8c-1.1-1.2-3.4-3-12.3-3.8c-2.8-0.2-6.7-0.4-11.3,0"/>
	<path fill="#5DBFD9" d="M325.9,172.2c-0.6-1.2,1.2-2.6,2.8-6.6c1.7-4.2,0.8-5.3,1.9-6.6c2.6-3.1,10.1,1.1,21.7,3.8
		c9.1,2.1,8.1,0.3,25.5,2.8c12.7,1.9,12.7,2.7,18.9,2.8c7.9,0.2,9-1.3,21.7-2.8c12.9-1.5,21.8-1.1,25.5-0.9
		c11.2,0.7,16.8,1,20.8,4.7c5,4.7,5.4,11.6,5.7,20.8c0.3,6.8-0.3,17.4-4.7,30.2c-2.6-0.8-6.5-2.5-10.4-5.7
		c-5.4-4.3-8.1-9.4-9.4-12.3c-4.2-1.1-10.4-2.5-17.9-3.8c-8.5-1.4-14.9-1.8-16-1.9c-9.3-0.8-30.7-6.1-79.3-23.6
		C327.7,173.7,326.2,173,325.9,172.2z"/>
	<path fill="#5DBFD9" d="M476.9,221.3c-0.1-1.5,5.7-2,13.2-6.6c4.2-2.5,7-5.2,8.5-6.6c4.4-4.2,8.3-9.5,7.6-10.4
		c-0.6-0.6-3.2,1.7-9.4,3.8c-3.7,1.2-5.5,1.8-6.6,0.9c-2.2-1.7-0.6-8,1.9-12.3c2.2-3.8,3.6-3.7,6.6-8.5c2.4-3.9,3.2-6.8,3.8-6.6
		c1.2,0.3-2.4,12.4,0.9,14.2c1.4,0.8,3.6-0.7,6.6-2.8c12-8.5,18-12.7,19.8-15.1c6.1-8,7.4-16.3,8.5-16c1.3,0.4-1.3,11.4,0.9,12.3
		c2,0.8,5.9-7.3,7.6-6.6c1.3,0.6,0.2,7.2-1.9,13.2c-2.6,7.6-4.4,7.7-8.5,17c-2.7,6.2-5.4,14.3-5.7,15.1c-2.1,6.2-2.2,7.5-3.8,9.4
		c-5,6-13.1,4.7-13.2,6.6c-0.1,2,9.5,6.1,17,2.8c4.3-1.9,5.8-5.4,7.6-4.7c2.1,0.8,1.3,5.5,1.9,14.2c0.8,12.7,3.3,17.2,0.9,18.9
		c-1.4,1-2.9-0.2-14.2-3.8c-5.2-1.6-7.8-2.5-10.4-2.8c-7.3-1-8.2,1.1-12.3,0c-8.5-2.4-10.4-13.1-14.2-12.3c-1.8,0.5-3,3.3-2.8,5.7
		c0.3,4.1,5,6.5,12.3,10.4c23,12.2,22.2,12.1,25.5,13.2c11.1,3.7,17.5,5.8,23.6,2.8c2-0.9,5.4-5,12.3-13.2
		c5.2-6.2,7.8-9.8,13.2-12.3c1.9-0.8,4.4-1.7,7.6-1.9c0.8,0,8.8-0.5,10.4,2.8c2.2,4.4-8.6,13.6-10.4,15.1
		c-9.7,8.3-13.4,5.5-24.5,14.2c-1.6,1.3-4,3.2-7.6,3.8c-5.1,0.8-9.4-1.7-11.3-2.8c-11.9-6.8-25.2-10.7-37.8-16
		c-10.8-4.6-15.1-5.9-17.9-3.8c-2.5,1.9-3.4,6.1-1.9,8.5c1.9,2.9,6.7,1.1,15.1,1.9c9.4,0.8,16.3,4.1,23.6,7.6
		c6.1,2.9,14.7,7.9,14.2,9.4c-0.5,1.1-5.9-0.1-14.2-1.9c-8.3-1.9-12.8-3.3-21.7-5.7c-15.6-4.2-19.9-4.7-24.5-2.8
		c-4.2,1.7-8.1,5.2-7.6,6.6c0.6,1.4,5.4,0.2,13.2,0c0,0,10.1-0.3,19.8,1.9c10.1,2.3,9.5,4.8,21.7,8.5c11.4,3.5,12.5,1.4,19.8,4.7
		c7.5,3.4,5.4,5,17.9,13.2c10.5,6.9,15.8,10.3,20.8,11.3c2.7,0.6,5.9,0.8,6.6,2.8c0.8,2.3-2.3,6.2-5.7,7.6
		c-6,2.4-12.2-3.8-23.6-11.3c-3.6-2.4-11.8-6.6-28.3-15.1c-5.7-2.9-17.7-9.1-34-14.2c-1.7-0.6-8.2-2.5-8.5-1.9
		c-0.4,0.9,13.4,5.1,27.4,16c7.4,5.8,5.9,6.5,19.8,19.8c11.2,10.8,17,16.2,23.6,18.9c8.8,3.5,18.6,4.3,23.6,4.7
		c9.4,0.8,14.9-0.1,15.1,0.9c0.3,1.4-9,5.4-18.9,5.7c-3.6,0.1-12.1-0.2-25.5-7.6c-9.8-5.4-10.5-8-31.2-25.5
		c-11.8-10-18.1-14.5-25.5-18.9c-3.3-1.9-9.8-5.7-18.9-8.5c-0.9-0.3-7.8-2.5-17-2.8c-9-0.4-10.1,1.3-10.4,1.9
		c-0.8,1.9,0.8,4.9,2.8,6.6c4.6,4.1,11.5,2.3,17,1.9c8.9-0.6,16.3,3.8,31.2,12.3c12.5,7.2,23,13.2,31.2,25.5
		c5.2,7.8,8.1,16.4,17.9,22.7c2.6,1.7,6.7,3.8,8.5,4.7c6.5,3.3,12,6.1,17,7.6c13.5,3.7,24.6-2.9,25.5-0.9c0.7,1.5-6.1,4.4-15.1,12.3
		c-4.8,4.2-10.8,9.3-15.1,17c-6.7,11.9-5.6,22.7-7.6,22.7c-2.1,0-4.1-12.1-4.7-17.9s-0.4-8.1-1.9-12.3c-1.2-3.3-2.8-5.9-6.6-10.4
		c-9.3-11.2-12.5-11.3-18.9-19.8c-5.1-6.6-4-7.6-8.5-12.3c-5-5.1-7.5-5.2-12.3-10.4c-5.2-5.7-8.5-12.5-7.6-13.2
		c0.8-0.7,5.8,3.6,12.3,9.4c4.5,4.1,6.3,5.9,6.6,5.7c0.6-0.5-3.8-7.7-9.4-14.2c-9.5-10.9-19.5-16-21.7-17c-2.9-1.4-8.8-4.2-17-5.7
		c-12.9-2.2-23.8,0.6-30.2,2.8c-1.1-0.3-9.1-2.6-11.3-9.4c-1.2-3.8-0.1-7.2,0.9-10.4c1.5-4.7,4.5-8.1,10.4-15.1
		c2.2-2.5,2.8-3.2,3.8-3.8c3.4-2.3,5.5-1.4,11.3-2.8c4.5-1.1,7.7-1.9,10.4-4.7c1.9-2,2.9-4.6,3.8-6.6c1.4-3.3,0.8-3.7,1.9-5.7
		c2.3-4.5,5.3-3.6,7.6-7.6s0.2-6.4,2.8-9.4c2.4-2.7,5.7-2.6,5.7-3.8C488.2,224,477,223.5,476.9,221.3z"/>
	<path fill="#5DBFD9" d="M560.9,282.7c0.8,0.1,10.8,1.2,18.9-3.8c6.1-3.8,9.4-9.8,12.3-15.1c4.2-7.6,4.2-12.1,6.6-12.3
		c3.2-0.3,6.4,7.6,7.6,12.3c0.7,2.7,1.9,7.7,0,13.2c-2.2,6.3-6,5.8-8.5,12.3c-2.5,6.3,0.1,9.7-2.8,12.3c-1.8,1.6-3.7,1.1-11.3,0.9
		c-12.4-0.3-11.4,0.8-14.2,0c-7.7-2.4-6.8-8.4-16-13.2c-6.5-3.4-12.3-3.1-12.3-4.7c0-1.3,4.2-2.5,6.6-2.8
		C553.4,280.8,556.7,282.2,560.9,282.7z"/>
	<path fill="#5DBFD9" d="M672.3,77.8c2,0.2,6.6,0.8,11.3,3.8c1.9,1.2,4.7,3,6.6,6.6c1.5,2.8,1.8,5.6,1.9,6.6c0.4,4.2-0.8,4.9,0,6.6
		c1.5,3.1,6.1,1.7,9.4,4.7c1.1,1,2.2,2.6,2.8,10.4c0.7,8.7,1.1,14.3-0.9,21.7c-1.1,3.9-2.9,7.4-6.6,14.2c-2.8,5.3-7.5,13.9-9.4,13.2
		c-0.9-0.3-0.9-2.5-0.9-3.8c-0.1-7.5,3.6-11.8,6.6-18.9c2.6-6.3,3.4-11.6,3.8-14.2c1.1-8.5,0.1-14.8-0.9-18.9
		c-1-4.1-1.7-6.3-3.8-8.5c-2-2.1-3.5-2.2-10.4-5.7c-5.7-2.8-7.7-4.3-7.6-4.7c0.2-0.5,3.6,1.2,4.7,0c0.8-0.9,0-3.3-0.9-4.7
		c-0.7-0.9-2.5-3.5-8.5-4.7c-7.1-1.5-12.2,0.5-12.3,0C657,81,663.9,77.2,672.3,77.8z"/>
	<path fill="#5DBFD9" d="M645.9,75.9c-0.6-0.7-7.6,4.1-12.3,7.6c-5.2,3.8-6.2,5.1-9.4,6.6c-4.1,2-7.8,2.6-10.4,2.8
		c3.7,1,8.2,1.8,13.2,0.9c3.1-0.6,3.3-1.1,13.2-4.7c8.9-3.2,11.1-3.6,13.2-3.8c5.1-0.4,8.3,0.7,8.5,0c0.2-0.8-4.2-3.5-9.4-3.8
		c-6.2-0.4-10.6,3-11.3,1.9C640.2,82.2,646.5,76.6,645.9,75.9z"/>
	<path fill="#5DBFD9" d="M652.5,93.9c-0.5-0.9-4,0-7.6,0.9c-5.5,1.4-9.4,3.6-11.3,4.7c-3.1,1.9-5.7,3.9-6.6,4.7
		c-3.4,2.8-3.6,3.8-5.7,4.7c-2.9,1.4-3.9,0.1-8.5,0.9c-6.1,1-9.7,4.2-10.4,4.7c-2.4,2.1-4.3,5-3.8,5.7c0.5,0.7,2.7-1.1,7.6-2.8
		c2.5-0.8,6.4-2.2,11.3-1.9c3.4,0.2,3.5,0.9,5.7,0.9c5-0.1,7.8-4.2,13.2-9.4C645.7,98.2,653.2,95.2,652.5,93.9z"/>
	<path fill="#5DBFD9" d="M615.7,122.2c-0.7-1.6-4.2-2.6-6.6-0.9c-1.5,1-2.3,3.1-1.9,4.7c0.3,1.3,1,1.4,1.9,2.8
		c2.2,3.5,0.4,6.7,1.9,7.6c1.4,0.8,4.4-0.9,4.7-2.8c0.1-0.9-0.5-1.1-0.9-2.8c-0.5-2-0.2-3.8,0-4.7
		C615.2,123.4,616.1,123,615.7,122.2z"/>
	<path fill="#5DBFD9" d="M603.4,138.2c-1.5,0.4-0.8,3.9-2.8,8.5c-2,4.5-4.3,4.9-4.7,8.5c-0.2,1.9,0.2,4.9,1.9,5.7
		c2.6,1.2,7.4-3.7,9.4-6.6c1.3-1.9,4.2-5.9,2.8-9.4c-0.5-1.2-1.3-2.2-2.8-3.8C605.4,139.1,604.4,138.1,603.4,138.2z"/>
	<path fill="#5DBFD9" d="M666.7,183.6c1.8,1,1.3,2.5,4.7,5.7c1.3,1.3,2.3,2.2,3.8,2.8c3.4,1.5,6.4,0.3,6.6,0.9
		c0.3,0.8-4.1,1.6-5.7,4.7c-2.4,4.4,2,11.2,1.9,11.3c-0.1,0.1-1.7-7.7-7.6-12.3c-1.6-1.3-2.4-1.3-5.7-3.8c-3.9-2.8-4.5-4.1-5.7-3.8
		c-2.8,0.8-2.8,9.5-2.8,10.4c0,4.2,0.9,3.6,0.9,7.6c0,6.2-2.1,9.3,0,13.2c0.6,1.1,1.1,1.5,0.9,1.9c-0.7,1.2-8.4-0.8-14.2-5.7
		c-2.8-2.4-4.2-3.6-4.7-5.7c-0.9-4.1,2.8-6,11.3-18.9c1.6-2.4,2.5-4.1,4.7-5.7C658,184.3,663.3,181.7,666.7,183.6z"/>
	<path fill="#5DBFD9" d="M656.3,136.4c0,1.2-1.5,2.1-2.8,2.8c-5.7,3.2-9.4,4.7-9.4,4.7c-4.3,1.8-5.7,2.3-7.6,3.8
		c-0.5,0.4-3.3,2.7-2.8,3.8c0.5,1,4.4,0.5,7.6-0.9c3.6-1.7,3.9-3.5,6.6-3.8c2.3-0.2,3.4,0.9,4.7,0c1.2-0.8,0.6-2,1.9-3.8
		c1.3-1.7,2.4-1.1,3.8-2.8c1.3-1.6,0.6-2.5,1.9-4.7c0.6-0.8,1.6-1.9,3.8-3.8c3-2.7,3.6-2.8,3.8-3.8c0.5-1.9-1.1-3.7-2.8-5.7
		c-0.8-1-5-5.9-7.6-4.7c-1.6,0.7-1,3-2.8,3.8c-1.4,0.6-2.3-0.6-4.7-0.9c-2.9-0.4-6.4,0.6-6.6,1.9c-0.2,1,1.8,2.3,5.7,4.7
		c2.2,1.4,2.9,1.6,3.8,2.8c0.9,1.3,0.7,1.9,1.9,3.8C655.5,135.2,656.3,135.5,656.3,136.4z"/>
	<path fill="#5DBFD9" d="M691.2,138.2c-0.7,0.8-4-2.1-8.5-0.9c-2.7,0.7-4.3,2.5-4.7,2.8c-1.3,1.5-1.2,2.4-2.8,6.6
		c-2,5.4-2.6,5.3-2.8,7.6c-0.1,1.7,0.2,3.3,0.9,6.6c0.8,3.7,1.3,4.2,0.9,5.7c-0.5,2.2-2.2,3.5-3.8,4.7c-2.5,1.9-6,3.6-6.6,2.8
		c-0.5-0.7,1.4-2.3,3.8-6.6c2.2-4,3.3-6.1,2.8-8.5c-0.8-4.3-6.2-6.2-5.7-7.6c0.5-1,3.3,0.5,5.7-0.9c3.1-1.9,3.5-7.5,3.8-12.3
		c0.3-4.1-0.2-5.3,0.9-6.6c2-2.3,6.2-1.7,8.5-0.9C688.7,132.3,692,137.3,691.2,138.2z"/>
	<path fill="#5DBFD9" d="M655.3,186.4c-0.3-0.9-3.1-0.8-7.6-0.9c-3.9-0.2-9.2-0.5-13.2-1.9c-4.9-1.7-7.7-5.2-11.3-9.4
		c-2.6-3.1-6.8-8.1-8.5-16c-1.8-7.9-0.1-14.6,0.9-17.9c-1.6,0.7-3.1,1.2-4.7,1.9c-1.3,5.9-1.2,10.9-0.9,14.2
		c0.3,3.5,0.9,10.2,4.7,17c1.6,2.8,2.8,4.2,3.8,7.6c0.6,2.3,1.6,5.9,0,9.4c-1.4,3-3.5,3.3-3.8,5.7c-0.3,2.5,1.8,4.5,2.8,5.7
		c6,6.2,17.4,6.6,20.8,6.6c3.5-10.7,8.4-15.5,12.3-17.9C652.4,189,655.6,187.4,655.3,186.4z"/>
	<path fill="#5DBFD9" d="M619.5,314.8c9.4-12.7,13.6-11,18.9-20.8c3.6-6.7,4.9-13.5,6.6-22.7c0.7-3.3,1.5-7.9,1.9-14.2
		c0.8-13-1.3-18.9,0.9-19.8c2.3-1,7.6,3.8,9.4,9.4c1.2,4,0.4,7.3-0.9,12.3c-1.8,6.8-3.6,7.6-6.6,16c-2.5,6.8-1.5,6.8-3.8,12.3
		c-3.1,7.6-6.5,11.5-5.7,12.3c0.8,0.8,4.7-2.2,6.6-3.8c3.5-2.9,5.6-5.9,8.5-10.4c5.2-7.8,7.3-11.4,7.6-11.3
		c0.5,0.3-6.5,10.9-10.4,26.4c-1.6,6.4-0.9,7-2.8,13.2c-2.4,7.8-4.4,10.9-2.8,14.2c1.7,3.5,5.6,3,6.6,6.6c0.8,2.6-1,3.7-0.9,7.6
		c0.1,2.5,1.1,7.1,3.8,8.5c5.5,2.9,15.5-8.1,17-6.6c1.1,1.1-4.1,8.6-6.6,12.3c-4.9,7.1-6.6,7.9-6.6,10.4
		c-0.1,6.3,10.7,11.1,15.1,13.2c3.3,1.5,13.1,5.7,34,6.6c7.8,0.4,15.6-0.1,31.2-0.9c0,0,9.8-0.6,20.8-1.9c2.2-0.3,4.2-0.6,6.6-0.9
		c5.7-0.9,6.9-1.5,9.4-1.9c7.6-1.1,8.4,2,17.9,1.9c6.5-0.1,8-1.6,11.3,0c2.9,1.4,3,3.3,6.6,7.6c5.8,7,11.7,9.8,11.3,10.4
		c-0.4,0.6-5.9-2-9.4-3.8c-5.5-2.8-7.6-4.7-9.4-3.8c-0.8,0.4-0.9,1.1-1.9,4.7c-2,7.9-1.9,8.9-2.8,9.4c-2.5,1.5-7.4-1.9-11.3-4.7
		c-3.2-2.3-2.6-2.5-4.7-3.8c-5.3-3.3-8.8-1.7-17.9-3.8c-6.1-1.4-5.4-2.4-9.4-2.8c-7.6-0.9-13.5,1.8-16,2.8
		c-7.3,2.9-16.5,2.3-34.9,0.9c-19.2-1.4-35.5-5.8-48.1-10.4c-2.5,0.3-6.3,0.4-9.4-1.9c-2.7-2-3.4-4.5-5.7-10.4
		c-1.2-3.1-3-7.6-5.7-13.2c-2.5,0.4-6.5,0.5-9.4-1.9c-1.1-0.9-2.5-2.5-4.7-11.3c-2.2-8.7-2-11.7-3.8-12.3c-0.9-0.3-2.6-0.1-8.5,6.6
		c-7.6,8.7-10.8,15.4-11.3,15.1c-0.7-0.3,3.1-11,9.4-23.6C613,324.9,615.3,320.3,619.5,314.8z"/>
	<path fill="#5DBFD9" d="M815.8,387.5c0.1,0.5,0.6,1.4,9.4,3.8c6.3,1.6,7.2,1.4,7.6,0.9c0.8-1.1-0.8-3.7-2.8-6.6
		c-2.5-3.7-4.9-5.9-5.7-6.6c-3.4-3-7.2-5.2-7.6-4.7c-0.3,0.4,2.5,1.9,2.8,4.7C820.1,382.8,815.1,384.9,815.8,387.5z"/>
	<path fill="#5DBFD9" d="M556.2,433.7c2.4-1.1,1.5-7.6,0-20.8c-1.3-10.9-1.9-16.3-3.8-19.8c-3.9-7.4-8.6-8-20.8-17.9
		c-4.4-3.6-8.6-7.7-17-16c-13.6-13.5-20-21.6-24.5-26.4c-9.1-9.5-24.9-20.5-54.8-25.5c4.6,3.4,6.6,6.8,7.6,9.4
		c1.3,3.9,0.7,6.4,2.8,8.5c1.8,1.7,4.2,1.8,8.5,1.9c13.7,0.2,13.3-0.5,16,0c7.7,1.4,12.8,7.5,16,11.3c4.5,5.4,6.4,10.5,7.6,13.2
		c2.7,6.8,9.3,16.8,22.7,36.8c8.2,12.4,14.3,20.6,20.8,28.3C545.5,426.6,552.9,435.3,556.2,433.7z"/>
	<path fill="#5DBFD9" d="M494.8,376.1c-1.5-7.8-2.8-12.8-1.9-13.2c1.3-0.5,4.9,7.6,14.2,24.5c16.7,30.7,15.3,23.6,21.7,36.8
		c1.9,4,3.9,8.3,8.5,12.3c5.3,4.5,10.7,5.8,10.4,7.6c-0.3,1.5-4.4,2.3-7.6,1.9c-6.6-0.8-9.6-8.3-11.3-7.6c-1.2,0.6-0.9,4.3,0,7.6
		c1.1,3.8,3.7,8.5,11.3,14.2c9.3,7,18.8,9.6,28.3,12.3c5,1.4,9.3,2.3,12.3,2.8c5.5,5.6,6.2,7.7,5.7,8.5c-0.8,1-3.9,0-17-4.7
		c-10.4-3.7-14.2-5.1-18.9-6.6c-5.6-1.8-10.2-3-13.2-3.8c-12.3,0.1-15,1-15.1,1.9c-0.2,1.9,11.1,2.9,28.3,10.4
		c15.3,6.7,14.3,9.4,23.6,11.3c4.2,0.8,9.7,1.3,13.2,5.7c1.5,1.8,1.3,2.7,3.8,7.6c3.8,7.5,6.3,9.6,5.7,10.4
		c-1.1,1.4-10.4-5.9-24.5-13.2c-19.8-10.4-20.5-6-32.1-14.2c-5.2-3.7-10.1-8-17.9-8.5c-4.4-0.3-10,0.8-10.4,2.8
		c-0.4,2.2,4.9,4.8,8.5,6.6c14.6,7.3,22,10.9,34,15.1c20.6,7.4,38.5,18.9,37.8,20.8c-0.8,2-22.2-4.6-35.9-9.4
		c-15.4-5.5-27.7-11-35.9-15.1c-5.7-2.4-12.1-4.5-13.2-2.8c-0.8,1.3,1.6,4.3,1.9,4.7c5.5,6.6,16,6.1,16,6.6
		c-0.1,0.7-18.3-1.3-18.9,0.9c-0.4,1.7,9.4,5.9,18.9,8.5c9.3,2.5,13,1.9,22.7,3.8c5.3,1,12.7,2.9,21.7,6.6
		c11.1,2.9,13.3,4.6,13.2,5.7c-0.2,2.4-12.5,4.5-22.7,4.7c-8.3,0.2-12.3-0.9-15.1,1.9c-3.4,3.4-2.4,9.5-1.9,12.3
		c1.7,10.1,7.7,12,16,26.4c3.6,6.2,2.5,6,7.6,15.1c6.7,12.1,10.7,16.3,12.3,17.9c4.3,4.4,8.1,8.3,14.2,9.4c2.5,0.5,5.5,0.3,11.3,0
		c5.9-0.4,6.3-0.8,10.4-0.9c8.1-0.4,13.5-0.6,17,2.8c4.3,4.3,2.9,11.8,2.8,12.3c-1.1,5.6-5,8.1-12.3,15.1
		c-4.6,4.4-8.7,9.6-13.2,14.2c-14.3,14.3-32.4,40.8-48.1,60.4c-20.2,25.3-40.5,44.5-61.4,64.2c-18.2,17.2-32.3,28.5-35.9,39.6
		c-0.6,1.9-2.5,8.9-7.6,10.4c-2.6,0.8-4.6-0.4-10.4,0.9c-2.3,0.5-3.5,1-4.7,1.9c-0.6,0.4-2.6,2-3.8,4.7c-1.7,4.2,0.6,6.3-0.9,8.5
		c-0.6,0.8-1.8,1.7-10.4,1.9c-9,0.2-9.3-0.8-13.2,0c-5.8,1.1-6.4,3.3-10.4,2.8c-4.1-0.5-7-3.2-8.5-4.7c-2.5-2.5-3.6-4.7-5.7-9.4
		c-3.2-7.1-3.7-11.4-3.8-13.2c-0.4-4.8,0.7-6.2,0.9-6.6c2.3-3.1,7.8-3.8,9.4-1.9c2,2.4-3.4,6.6-1.9,12.3c1.3,5,7.6,9.4,12.3,8.5
		c3.9-0.8,4.6-5.2,11.3-7.6c1.8-0.7,3-0.8,3.8-0.9c10.5-1.9,22.7-14.2,22.7-14.2c18.4-18.5,39.6-34,58.5-51.9
		c40.3-38,53.4-44.7,58.5-63.3c0.3-1.2,1.8-11.8,4.7-33c1.5-10.7,2.2-16.1-0.9-20.8c-5.7-8.5-18.4-8.5-19.8-8.5
		c-4.4,0.1-9,1.2-17,5.7c-17.7,9.8-26.7,21.3-27.4,20.8c-0.8-0.7,8.7-15.6,25.5-29.3c9.7-7.9,19-12.9,25.5-16
		c-0.8-4-3.3-14-12.3-20.8c-2.3-1.7-4.5-2.9-6.6-3.8c-4.9,1.3-9.9,2.5-15.1,3.8c-7.7,1.8-15.4,3.4-22.7,4.7
		c-2.2-0.8-5.9-2.5-9.4-5.7c-7-6.3-8.9-14.7-9.4-17c-2.2-8.4-10.7-26.5-39.6-69.9c6.7-5.4,12.4-10.6,17-15.1
		c7.3-7.2,12-12.8,17-18.9c5.7-6.8,8.5-10.3,10.4-14.2c2.6-5.5,2.2-7.4,5.7-14.2c2.9-5.8,4.2-6.2,6.6-11.3c2.8-5.9,4-10.8,4.7-14.2
		C501.3,410.6,496.7,386.2,494.8,376.1z"/>
	<path fill="#5DBFD9" d="M493,438.4c-1.7-2.5-5.7,0-15.1-1.9c-7-1.4-11.4-4.1-12.3-2.8c-1,1.5,4.9,5.5,3.8,9.4
		c-0.8,2.6-4.5,4-6.6,4.7c-4.6,1.6-6.5,0.2-8.5,1.9c-2.3,2-1.6,5.4-1.9,9.4c-0.4,4.8-2.5,8.6-6.6,16c-9.2,16.5-16,15.7-22.7,30.2
		c-2.4,5.1-2.4,7.2-5.7,13.2c-2.5,4.6-4.7,7.6-6.6,13.2c-1.4,4.2-2.3,7-0.9,9.4c2.4,4.2,9.7,3.8,10.4,3.8c1.5-2.7,3.9-7,6.6-12.3
		c3.2-6.2,4.7-9.5,5.7-11.3c4-7.6,8.2-10.1,24.5-24.5c11.4-10.1,17.2-15.3,19.8-19.8c4.2-7.3,2.5-8.7,8.5-20.8
		C490.7,445.7,494.8,441.2,493,438.4z"/>
	<path fill="#5DBFD9" d="M429.7,562.1c-3.6-5.6-10.2-7.4-17.9-9.4c-11-2.9-20.6-2-26.4-0.9c-7.7,1.4-20.6,5.2-51,31.2
		c-13.8,11.8-26.7,22.8-41.5,40.6c-18.2,21.9-27.4,32.9-33,47.2c-3.5,8.9-5.9,18.2-15.1,24.5c-7.3,4.9-11.9,3.3-19.8,9.4
		c-2.5,1.9-13.9,10.7-12.3,20.8c1.3,8.5,11.1,12.9,17.9,16c3.7,1.7,10.8,4.8,19.8,3.8c4-0.5,8.1-1.7,15.1-5.7
		c13.2-7.6,29.7-20.9,27.4-25.5c-1.9-3.7-13.9,2.8-19.8-2.8s-1.4-19.4,0.9-26.4c3.9-11.3,10.8-24.8,37.8-52.9
		c27.8-28.9,34.1-28.6,36.8-27.4c5.6,2.5,7.8,13.7,9.4,21.7c2.1,10.4,0.5,14.2,3.8,17c6.2,5.4,19.7-1,23.6-2.8
		c9.4-4.4,15-10.6,20.8-17c9.4-10.5,14.4-20.3,16-23.6C428.8,586.4,435.9,571.8,429.7,562.1z"/>
	<path fill="#5DBFD9" d="M232.4,311c9.3-0.2,2.6,52.6,40.6,96.3c6.4,7.5,27.1,30.6,61.4,38.7c17.4,4.2,32.2,2.9,39.6,1.9
		c5.8-0.8,30.5-4.6,48.1-18.9c36.5-29.5,27-90.8,31.2-90.6c3.7,0.1,14,49.2-9.4,92.5c-8.2,15.1-17.8,24.6-21.7,28.3
		c-23.1,21.6-49.1,26.6-58.5,28.3c-26,4.7-46.4-0.4-51.9-1.9c-28.7-7.7-46.2-24.5-53.8-32.1c-7.4-7.2-31.4-31.6-37.8-70.8
		C214.5,347.6,224.7,311.1,232.4,311z"/>
	<path fill="#5DBFD9" d="M375.4,841.1c-8.8,2.3-14.2,17-14.2,28.3c0,4.8,0,14.1,6.1,19.4c5.1,4.4,9.9,2.1,22.7,3.8
		c7.5,1,20,2.6,30.2,10.4c9.8,7.4,7.3,12.7,17.9,21.7c6.4,5.5,12.6,7.8,24.5,12.3c9.1,3.4,21.8,7.5,37.8,10.4c-14.2,0-28.3,0-42.5,0
		c-9.3-0.8-15.7-3.4-19.8-5.7c-1.6-0.8-5.9-4.1-14.2-10.4c-9.5-7.2-11.2-8.7-15.1-10.4c-2.7-1.2-6.2-2.1-13.2-3.8
		c-13.1-3.2-14.1-2.5-20.8-4.7c-4.2-1.4-9.8-3.3-16-7.6c-2.7-1.9-6.8-4.6-10.4-9.4c-1.7-2.2-8.7-11.4-7.6-23.6
		c0.7-7.1,3.8-11.8,8.5-18.9c5.6-8.4,6.6-5.8,15.1-17c2.6-3.5,4.6-6.4,8.5-7.6c0.8-0.2,6.5-1.8,9.4,1.9c1.9,2.5,1.8,6.3,0,8.5
		C380.7,840.9,378,840.4,375.4,841.1z"/>
</g>
<g id="vs-outline">
	
		<path fill="none" stroke="#000000" stroke-width="7.5523" stroke-linecap="round" stroke-linejoin="round" stroke-miterlimit="10" d="
		M584.5,160c-0.7-1.1-1.5-2.9-0.9-4.7c0.9-3,5-2.4,8.5-5.7c1.3-1.3,1.3-2,4.7-12.3c2.5-7.7,2.7-7.9,2.8-9.4
		c0.2-5.4-2.4-6.1-2.8-12.3c-0.2-2.4-0.7-8.3,2.8-12.3c2.7-3,5.1-1.9,9.4-4.7c4.4-2.9,3.9-5.4,8.5-11.3c5.1-6.5,11-10.1,16-13.2
		c4.9-3,7.4-4.5,11.3-5.7c8.6-2.5,16-0.7,22.7,0.9c3.8,0.9,9.1,2.5,15.1,5.7c3.8,1.4,10.1,4.3,16,10.4c1.9,1.9,6.6,6.8,9.4,14.2
		c3.1,8.1,1.4,12.8,0.9,26.4c-0.7,19.4,2.5,19.9,0.9,31.2c-0.9,7-3.6,16.9-11.3,28.3c2.3-7.8,2.4-13.9,1.9-17.9
		c-0.2-2.1-0.8-4.9-0.9-9.4c-0.2-4-0.1-7.3,0-9.4c0,1,0,9.3-6.6,14.2c-2.8,2.1-5.9,2.6-7.6,2.8c-1,2-2.8,4.8-5.7,7.6
		c-2,1.9-3.8,3.1-7.6,5.7c-3.2,2.1-5.8,3.9-9.4,5.7c-2.3,1.1-5.5,2.5-9.4,3.8c-4.3,4.6-7.4,9-9.4,12.3c-3.6,5.9-5,9.7-5.7,12.3
		c-0.8,3-1.4,5.1-0.9,7.6c0.8,4.3,4,7,6.6,9.4c0,0,3.2,3,12.3,15.1c5.1,6.8,5.3,14.5,6.6,29.3c0.8,8.8,0,8.3,0.9,17.9
		c0.5,4.8,1.3,13.2,3.8,23.6c1.9,8.1,3.3,10.9,5.7,21.7c0.8,4,1.5,7.3,1.9,9.4c5,0.4,12.6,1.1,21.7,2.8c8.3,1.5,17.6,4.2,35.9,9.4
		c14.1,4.1,20.6,6,30.2,6.6c6.9,0.4,13.2,0,13.2,0c6.4-0.4,9.2-1.1,16-1.9c3.8-0.4,9.3-0.8,16-0.9c4.4,1.9,8.8,3.8,13.2,5.7
		c4.2,2.6,7.3,5.4,9.4,7.6c0.6,0.6,2.3,2.5,5.7,6.6c3.6,4.3,5.2,6.2,4.7,8.5c-0.1,0.4-0.3,1.3-0.9,1.9c-1.9,1.6-6.4,0.1-11.3-3.8
		c1.8,0.9,5.5,3.2,7.6,7.6c1.3,2.6,2.5,7.3,0.9,8.5c-1.7,1.2-6.1-1-8.5-2.8c-1.4-1-2.5-2.2-2.8-1.9c-0.8,0.5,2.4,4.6,0.9,6.6
		c-0.9,1.4-3.8,1.4-5.7,0.9c-4.2-1-5.2-4.6-9.4-8.5c-1.8-1.7-4.8-4-9.4-5.7c0.5,2.7,1.4,5.9,2.8,9.4c0.8,2.2,1.9,4.1,2.8,5.7
		c1.2,4.8,0.7,6.1,0,6.6c-2.3,1.4-9.7-5.3-14.2-10.4c-3.3-3.8-3.9-5.2-6.6-6.6c-1.8-0.9-4.4-1.2-9.4-1.9c-5.4-0.7-5.9-0.5-8.5-0.9
		c-2.5-0.5-6.1-1.4-10.4-3.8c-19.2,4.2-47.3,7.3-79.3,0c-9.1-2.1-17.2-4.7-24.5-7.6c-1.7,0.3-4.2,0.3-6.6-0.9
		c-3.2-1.7-4.3-4.9-7.6-13.2c-0.9-2.5-2.5-6.7-4.7-12.3c-3.8,0.7-7.6,1.2-11.3,1.9c-0.2-4.2-1.1-10.5-4.7-17
		c-1.2-2.2-2.5-4.1-3.8-5.7"/>
	
		<path fill="none" stroke="#000000" stroke-width="5.6642" stroke-linecap="round" stroke-linejoin="round" stroke-miterlimit="10" d="
		M685.5,98.6c-1.6-1-3.8-2.4-6.6-3.8c-2.7-1.4-5.9-3-8.5-3.8c-6.8-2-13.2,0.8-16,1.9c-7.6,3.1-12.8,8.8-17,13.2c0,0-5,5.3-11.3,9.4
		c-1.2,0.8-2.7,1.7-4.7,1.9c-1.9,0.2-3.6-0.2-6.6-0.9c-2.8-0.7-2.8-0.9-3.8-0.9c-2.6,0-5.2,1.8-6.6,3.8c-0.9,1.3-1.1,2.5,0,13.2
		c0.7,6.3,1,8.5,2.8,9.4c1.2,0.7,2.7,0.4,3.8,0"/>
	
		<path fill="none" stroke="#000000" stroke-width="5.6642" stroke-linecap="round" stroke-linejoin="round" stroke-miterlimit="10" d="
		M609.1,143c0,2.5-0.5,5.9-1.9,9.4c-0.9,2.4-2.3,5.7-5.7,8.5c-3.2,2.6-6.6,3.5-8.5,3.8"/>
	
		<path fill="none" stroke="#000000" stroke-width="5.6642" stroke-linecap="round" stroke-linejoin="round" stroke-miterlimit="10" d="
		M685.5,98.6c0.9,0,4.4,0.1,7.6,2.8c2.9,2.5,3.6,5.7,3.8,6.6c0,9.3-0.5,14.6-0.9,17.9c-0.2,1.6-0.6,3.2-0.9,6.6
		c-0.6,4.5-0.5,5-0.9,6.6c-0.9,2.8-1.8,2.6-3.8,6.6c-1.9,3.7-2.6,6.7-2.8,7.6c-0.7,2.9-0.4,3.7-0.9,6.6c-0.4,2.1-1.1,5-2.8,8.5"/>
	
		<path fill="none" stroke="#000000" stroke-width="5.6642" stroke-linecap="round" stroke-linejoin="round" stroke-miterlimit="10" d="
		M644.9,114.6c3.5-0.2,6.4-0.1,8.5,0c2.5,0.2,3.6,0.4,4.7,0.9c1.8,0.9,2.2,2.2,3.8,3.8c1.1,1.1,2.8,2.5,5.7,3.8"/>
	
		<path fill="none" stroke="#000000" stroke-width="5.6642" stroke-linecap="round" stroke-linejoin="round" stroke-miterlimit="10" d="
		M678,130.7c0.8,0,7-0.4,10.4,0.9c1,0.4,1.9,0.9,1.9,0.9c1.4,0.9,2.4,2.1,2.8,2.8"/>
	
		<path fill="none" stroke="#000000" stroke-width="5.6642" stroke-linecap="round" stroke-linejoin="round" stroke-miterlimit="10" d="
		M675.2,131.6c-0.5,4-0.8,7.3-0.9,9.4c-0.3,4.1-0.3,6.2-1.9,8.5c-0.5,0.8-1.8,2.5-3.8,2.8c-1.1,0.2-2-0.2-3.8-0.9
		c-2.1-0.8-2.1-1.3-3.8-1.9c-1.8-0.6-2.1-0.3-3.8-0.9c-1.3-0.5-2.3-0.9-2.8-1.9c-0.8-1.5-0.2-3.3,0-3.8"/>
	
		<path fill="none" stroke="#000000" stroke-width="5.6642" stroke-linecap="round" stroke-linejoin="round" stroke-miterlimit="10" d="
		M659.1,129.7c-2.2-0.4-5.2-1.1-8.5-2.8c-2.4-1.2-4.2-2.5-5.7-3.8"/>
	
		<path fill="none" stroke="#000000" stroke-width="5.6642" stroke-linecap="round" stroke-linejoin="round" stroke-miterlimit="10" d="
		M647.8,125c0.2,0.6,0.5,1.2,0.9,1.9c0.4,0.5,2.3,3.3,5.7,3.8c0.8,0.1,1.4,0.1,1.9,0"/>
	
		<path fill="none" stroke="#000000" stroke-width="5.6642" stroke-linecap="round" stroke-linejoin="round" stroke-miterlimit="10" d="
		M676.1,138.2c0.8,1,2,2.5,3.8,3.8c3,2.1,5.9,2.6,7.6,2.8"/>
	
		<path fill="none" stroke="#000000" stroke-width="5.6642" stroke-linecap="round" stroke-linejoin="round" stroke-miterlimit="10" d="
		M640.2,154.3c4.7,0.9,8.5,2,11.3,2.8c4.5,1.4,6.3,2.2,7.6,2.8c3,1.6,5.2,3.4,6.6,4.7"/>
	
		<path fill="none" stroke="#000000" stroke-width="7.5523" stroke-linecap="round" stroke-linejoin="round" stroke-miterlimit="10" d="
		M675.2,178.8c0.1,1.1,0.7,5.9,4.7,9.4c2.1,1.8,4.3,2.5,5.7,2.8c-0.5,0.8-1.3,2-2.8,2.8c-3.8,2.2-8,0.2-8.5,0
		c1.4,2.3,3.3,6.1,3.8,11.3c0.4,4.5-0.7,7.9-1.9,12.3c-0.9,3.3-2.6,8-5.7,13.2c0.3-3.1,0.4-8.7-1.9-15.1c-2.6-7.4-7.1-12-9.4-14.2
		c-0.8,1.8-2.5,5.9-1.9,11.3c0.5,5.1,2.6,8.8,3.8,10.4c-2.5-0.5-5.9-1.2-9.4-2.8c-5.2-2.3-9-5.3-11.3-7.6"/>
	
		<path fill="none" stroke="#000000" stroke-width="5.6642" stroke-linecap="round" stroke-linejoin="round" stroke-miterlimit="10" d="
		M592.1,165.6c0.9,3.6,2.6,8.6,5.7,14.2c2.6,4.8,7.4,13.2,17,19.8c9.2,6.3,18.4,8,23.6,8.5"/>
	
		<path fill="none" stroke="#000000" stroke-width="7.5523" stroke-linecap="round" stroke-linejoin="round" stroke-miterlimit="10" d="
		M594,166.6c-4.7-3.1-11-7.2-18.9-11.3c-8.2-4.3-12.4-6.6-18.9-8.5c-4.2-1.2-12.4-3.6-22.7-2.8c-5.3,0.4-4.3,1-17,2.8
		c-4.9,0.7-6.3,0.8-15.1,1.9c-7.6,0.9-12.6,1.7-14.2,1.9c-7.2,0.9-18.5,1.6-36.8,0c-4.4-1.2-11.3-2.9-19.8-3.8
		c-10.9-1.1-18.3-0.5-25.5,0c0,0-26.5,1.6-55.7-0.9c-11.2-1-20.3-2.4-29.3-3.8c-12.2-1.9-18.9-3.3-24.5-4.7c-4.3-1-7.8-2.1-10.4-2.8
		c-4.3,0.1-10.3,0.7-17,2.8c-5.1,1.6-9.2,3.8-12.3,5.7c-4.1,4-7.2,7.6-9.4,10.4c-3.7,4.7-5.6,7.1-6.6,10.4c-1.5,5-0.8,9.3,0,13.2
		c0.5,2.5,1.2,6.4,2.8,6.6c1.6,0.2,3.5-3.2,3.8-3.8c1.4-2.6,0.8-3.9,1.9-4.7c1.9-1.4,4.4,1.7,7.6,0.9c3.4-0.8,3-5.3,7.6-10.4
		c0.9-1,4.6-5.2,10.4-6.6c1.3-0.3,1.9-0.3,13.2,0.9c6.3,0.8,9.5,1.1,10.4,2.8c1.2,2.3-0.8,5.4-0.9,5.7c-1.6,2.5-3.9,2.8-8.5,4.7
		c-6.3,2.6-10.5,4.3-11.3,7.6c-0.7,2.5,0.8,5.7,2.8,6.6c2,0.8,3.7-0.7,7.6-1.9c4.4-1.4,6.1-0.5,11.3-0.9c5.2-0.5,8.9-1.8,14.2-3.8
		c4.7-1.8,11-4.6,17.9-9.4c18.3,6.6,33.9,11.6,45.3,15.1c33.3,10.3,43.7,11.7,48.1,12.3c18.6,2.2,34.1,0.7,44.4-0.9"/>
	
		<path fill="none" stroke="#000000" stroke-width="7.5523" stroke-linecap="round" stroke-linejoin="round" stroke-miterlimit="10" d="
		M442.9,201.5c6.9,4.2,10.9,8.9,13.2,12.3c2.9,4.2,4.3,8,8.5,9.4c1.2,0.5,1.1,0.1,8.5,0c7.3-0.1,9.8,0.2,12.3,0.9
		c0.9,0.3,4.7,1,4.7,1.9c-0.1,1.1-6.3,0.3-8.5,3.8c-0.8,1.4-0.9,3.3-0.9,5.7c-0.1,3.1,0.7,3.7,0,4.7c-1.1,2-4,0.6-6.6,2.8
		c-2.2,1.9-2.7,4.8-2.8,5.7c-0.4,2.5,0.5,3,0,4.7c-0.6,2.1-2.3,2.8-6.6,5.7c-6.7,4.3-5.9,4.6-8.5,5.7c-4.7,1.9-5.7,0.1-9.4,1.9
		c-3.8,1.8-6,4.9-8.5,8.5c-2.3,3.3-2.7,5.1-5.7,8.5c-1.5,1.7-2.8,3-3.8,3.8"/>
	
		<path fill="none" stroke="#000000" stroke-width="5.6642" stroke-linecap="round" stroke-linejoin="round" stroke-miterlimit="10" d="
		M452.4,152.4c4.2,4.4,9.3,11,13.2,19.8c9.3,21.8,4.1,42.2,1.9,49.1"/>
	
		<path fill="none" stroke="#000000" stroke-width="5.6642" stroke-linecap="round" stroke-linejoin="round" stroke-miterlimit="10" d="
		M777.1,380.9c3.8,1.2,7,1.7,9.4,1.9c1.6,0.1,4.5,0.1,10.4,0c7.6-0.1,8.1-0.1,9.4,0c6.2,0.7,7.7,4,10.4,2.8c2.5-1.1,4-5.1,2.8-7.6
		c-0.8-1.8-2.6-2.2-6.6-3.8c-2.5-0.9-6-2.5-10.4-4.7"/>
	
		<path fill="none" stroke="#000000" stroke-width="5.6642" stroke-linecap="round" stroke-linejoin="round" stroke-miterlimit="10" d="
		M818.6,382.7c3.5,2.2,6.9,4.4,10.4,6.6"/>
	
		<path fill="none" stroke="#000000" stroke-width="5.6642" stroke-linecap="round" stroke-linejoin="round" stroke-miterlimit="10" d="
		M808.3,386.5c5.9,4.7,12,9.4,17.9,14.2"/>
	
		<path fill="none" stroke="#000000" stroke-width="7.5523" stroke-linecap="round" stroke-linejoin="round" stroke-miterlimit="10" d="
		M643.1,296.8c-7.6,11-13.7,20.1-17.9,26.4c-14.6,21.8-22,32.8-22.7,34c-7.3,12.7-8.2,16.5-14.2,20.8c-4.4,3.2-9.4,4.9-15.1,11.3
		c-1.7,1.9-4,4.4-5.7,8.5c-0.9,2.2-1.3,3.9-2.8,12.3c-1.7,9.6-1.6,9.3-1.9,10.4c-0.9,3.5-2.9,8.6-7.6,14.2
		c6.9,7.8,11.3,14.8,14.2,19.8c4.5,8,3.2,8.2,7.6,15.1c5.1,8.1,9.1,11.3,10.4,18.9c0.4,2.3,0.3,3,0.9,6.6c0.6,2.9,1.4,7.3,3.8,12.3
		c1.4,3,3.7,7.9,8.5,12.3c3.9,3.5,5.6,3.2,8.5,5.7c3.1,2.6,6.7,7.6,7.6,17.9c5.7,16,10.7,28.4,14.2,36.8c3.8,9.1,7.1,16.3,8.5,27.4
		c0.8,5.9,1.5,12.8-0.9,20.8c-2.2,7.1-5.8,11-12.3,18.9c-6.7,8.1-12.8,16.7-19.8,24.5c-23.1,25.7-24.3,33.3-50,62.3
		c-18,20.2-35.8,37.1-41.5,42.5c-15.5,14.5-24.4,21.4-36.8,35.9c-11.1,12.8-18.9,24.5-23.6,32.1c0.6,2.4,1.4,7,0,12.3
		c-0.8,2.8-1.9,5-2.8,6.6c5.8,9.9,11,17.8,15.1,23.6c6,8.7,9.3,13.1,14.2,17.9c8.1,7.8,17,13.2,17,13.2c2.3,1.4,6.3,3.7,12.3,7.6
		c7.7,5,9.3,6.5,9.4,8.5c0.6,5.1-7.5,9.8-8.5,10.4c-7,4.1-12.6,3.1-29.3,2.8c-22.2-0.4-22.5,1-29.3-0.9c-7-2.1-11.9-5.1-21.7-11.3
		c-11.8-7.5-11.7-9.3-18.9-13.2c-11.1-6.1-14.3-3.2-31.2-8.5c-14.7-4.6-25.3-7.9-32.1-17.9c-7.3-10.8-5.9-22.8-5.7-24.5
		c0.4-3.1,1-4.4,17.9-29.3c5.9-8.7,9.8-14.3,15.1-14.2c3.2,0.1,4.4,2.1,6.6,2.8c11.9,4.2,36.7-35.4,48.1-53.8
		c14.1-22.7,28.5-45.2,42.5-68c18.4-30.1,23.3-38.3,34-49.1c16.1-16.2,32.9-25.8,44.4-31.2c-0.9-3-2.5-6.6-4.7-10.4
		c-3.7-6.2-8-10.5-11.3-13.2c-11-0.2-19.6,1.3-25.5,2.8c-10.1,2.5-16,5.9-21.7,2.8c-1.7-0.9-3.4-2.5-7.6-10.4
		c-5.1-9.7-8-17.7-8.5-18.9c-3.7-9.9-5.9-10.4-20.8-34c-3.3-5.3-8.3-13.4-14.2-23.6"/>
	
		<path fill="none" stroke="#000000" stroke-width="7.5523" stroke-linecap="round" stroke-linejoin="round" stroke-miterlimit="10" d="
		M442.9,307.2c5.3,0.8,13.1,2.5,21.7,6.6c13.1,6.2,21.5,14.7,31.2,24.5c3.6,3.7,2.5,2.9,21.7,23.6c4.8,5.2,6.9,7.5,10.4,10.4
		c9.8,8.3,16.5,10.1,20.8,13.2c6.7,5,12.2,17.2,6.6,49.1"/>
	
		<path fill="none" stroke="#000000" stroke-width="5.6642" stroke-linecap="round" stroke-linejoin="round" stroke-miterlimit="10" d="
		M616.6,543.2c-5.7-2-27.2-9.2-47.2-10.4c-3.5-0.2-12.1-0.6-22.7,0c-5,0.3-9.2,0.7-12.3,0.9c-7,4.8-17.3,13.2-26.4,26.4
		c-5.9,8.7-14.3,20.6-16,37.8c-0.6,5.4-0.3,10,0,13.2"/>
	
		<path fill="none" stroke="#000000" stroke-width="5.6642" stroke-linecap="round" stroke-linejoin="round" stroke-miterlimit="10" d="
		M497.7,577.2c6.4,3.6,13.5,8,20.8,13.2c7.6,5.5,14.2,10.9,19.8,16"/>
	
		<path fill="none" stroke="#000000" stroke-width="8.4963" stroke-linecap="round" stroke-linejoin="round" stroke-miterlimit="10" d="
		M351.3,256.2c28.4,3.5,47.7,15.3,51.9,17.9c9.8,6.1,36.3,25,49.1,61.4c4.4,12.6,12.7,43.2,0,78.4c-2.9,7.9-15.2,39.2-49.1,59.5
		c-38.7,23.2-77.8,15.3-88.3,12.7c-50.2-12.1-73.8-52.6-79.3-62.3c-6.6-11.8-23.3-42.7-15.1-82.1c1.4-6.9,8.6-37.8,36.8-61.4
		C294.4,249.4,338.9,254.7,351.3,256.2z"/>
	
		<path fill="none" stroke="#000000" stroke-width="7.5523" stroke-linecap="round" stroke-linejoin="round" stroke-miterlimit="10" d="
		M498.1,373.8c0.6,8.4,1.3,21.2,1.4,35.4c0,2.5,0,10.3-1.9,19.8c-0.8,3.8-1.6,6.6-2.8,9.4c-2.4,5.3-5.1,8.4-6.6,10.4
		c-5.9,7.6-5.5,13.8-8.5,21.7c-2.4,6.1-9.8,13.3-24.5,27.4c-15.4,14.6-19.9,17.2-25.5,26.4c-4.2,7.1-6.4,13.6-7.6,17.9"/>
	
		<path fill="none" stroke="#000000" stroke-width="7.5523" stroke-linecap="round" stroke-linejoin="round" stroke-miterlimit="10" d="
		M318.3,489.4c-2.8,4.4-6.5,10.5-10.4,17.9c-3.5,6.8-12,24.2-17.9,48.1c-4.5,18.4-6.2,35.2-6.6,49.1"/>
	
		<path fill="none" stroke="#000000" stroke-width="7.5523" stroke-linecap="round" stroke-linejoin="round" stroke-miterlimit="10" d="
		M216.4,696.2c15-29.4,34-51,34-51c47.5-54,52.4-58.6,57.6-63.3c12.3-10.9,27.3-22.8,47.2-33c6.4-3.3,25.3-12.5,43.4-10.4
		c6.1,0.8,11.8,2.6,12.3,2.8c5.6,2,14.3,5,18.9,11.3c6.1,8.5,2.8,20.3,0,30.2c-4.9,17.4-14.5,28.6-21.7,36.8
		c-6.4,7.3-15,17.1-29.3,24.5c-12.6,6.6-14.6,3.7-27.4,10.4c-12.3,6.5-20.1,14.3-29.3,23.6c-5.3,5.4-5.5,6.1-23.6,28.3
		c-17.1,20.9-21.7,26.1-30.2,31.2c-12.8,7.7-21.5,7.6-23.6,7.6c-10.8-0.4-18.4-5.9-20.8-7.6c-3-2.2-9.6-7.1-12.3-15.1
		C208.3,712.7,212.9,703,216.4,696.2z"/>
	
		<path fill="none" stroke="#000000" stroke-width="5.6642" stroke-linecap="round" stroke-linejoin="round" stroke-miterlimit="10" d="
		M459,375.2c3.5-0.7,7.7-0.8,12.3,0c18.6,3.6,27.2,22.8,28.3,25.5"/>
	
		<path fill="none" stroke="#000000" stroke-width="5.6642" stroke-linecap="round" stroke-linejoin="round" stroke-miterlimit="10" d="
		M382.5,830.2c-0.5,2.9-0.9,8.1,0.9,14.2c1.8,5.7,4.7,9.3,5.7,10.4c2.6,3,4.9,5.7,8.5,6.6c4.7,1.2,6.2-2,15.1-2.8
		c2.4-0.2,4.7-0.2,9.4,0c9.4,0.3,10.6,1.2,12.3,0c4.2-2.9,0.7-10.4,4.7-14.2c1.9-1.8,5.9-3.1,15.1,0"/>
	
		<path fill="none" stroke="#000000" stroke-width="5.6642" stroke-linecap="round" stroke-linejoin="round" stroke-miterlimit="10" d="
		M634.6,358.2c4.9,0.4,9.1,0.3,12.3,0c7.3-0.6,14.2-1.1,20.8-5.7c3.6-2.5,6-5.4,7.6-7.6"/>
	
		<path fill="none" stroke="#000000" stroke-width="5.6642" stroke-linecap="round" stroke-linejoin="round" stroke-miterlimit="10" d="
		M373.1,283.6c-9.7,8.2-19.5,16.3-29.3,24.5c7.3,16.3,14.4,32.8,21.7,49.1c16.7-1.9,33.3-3.8,50-5.7c0.7-15.8,1.2-31.4,1.9-47.2
		C402.6,297.5,387.9,290.5,373.1,283.6z"/>
	
		<path fill="none" stroke="#000000" stroke-width="5.6642" stroke-linecap="round" stroke-linejoin="round" stroke-miterlimit="10" d="
		M268.3,286.5c4.4,9.2,8.8,18.2,13.2,27.4c-7.8,15.4-15.8,30.9-23.6,46.3c-9.7,0.3-19.5,0.7-29.3,0.9c-2.1-5.8-4.2-13.9-3.8-23.6
		c0.2-4.4,0.5-11,3.8-18.9c3.5-8.1,8.4-13.1,11.3-16C250,292.6,261.4,288.3,268.3,286.5z"/>
	
		<path fill="none" stroke="#000000" stroke-width="5.6642" stroke-linecap="round" stroke-linejoin="round" stroke-miterlimit="10" d="
		M281.5,413c18.6,0.3,37.1,0.7,55.7,0.9c9.4,15.4,18.9,30.9,28.3,46.3c-11,8.2-22,16.3-33,24.5c-9.2-1.2-21.1-3.9-34-9.4
		c-8.2-3.6-15.1-7.6-20.8-11.3C278.9,446.9,280.3,430,281.5,413z"/>
	
		<path fill="none" stroke="#000000" stroke-width="5.6642" stroke-linecap="round" stroke-linejoin="round" stroke-miterlimit="10" d="
		M452.4,392.2c-4.4,1.2-8.8,2.5-13.2,3.8c-8.5,17-17,34-25.5,51c2.5,3.5,5,6.9,7.6,10.4"/>
</g>
<g id="vs-h-reveal">
	
		<path fill="none" stroke="#000000" stroke-width="84.0191" stroke-linecap="round" stroke-linejoin="round" stroke-miterlimit="10" stroke-opacity="0" d="
		M698.3,82c-25.2-7.1-51.5-10.2-77.6-9.1c0,3.7,0.1,7.4,0.1,11c21.1,0.7,42.2,1.4,63.3,2.1c10.8,0.4,25.8,7,21.2,16.7
		c-35.7-0.3-71.3-0.6-107-0.8c-4.6,0-11.2,4.2-7.7,7.3c37,3.8,74,7.5,111.1,11.2c10.9,1.1,25.6,9.8,19.2,18.6
		c-43-1.6-85.7-6.2-128-13.8c-5.9,6.8,6.3,14.5,15.3,15.4c24.6,2.2,49.3,4.3,74,6.4c13.4,1.1,31.3,8.4,27.8,21.3
		c-27.2,5.6-55.3,1.1-82.7-2.9c-118.1-17.7-237.1-30-356.5-36.6c-5.4-0.3-11-0.5-15.8,2.1c-4.7,2.6-7.6,9.2-4.6,13.6
		c150.9,11.8,301.6,24.5,452.4,38c5.3,3.3-2.7,10.2-9,10.8c-157.6,16-316.1-9.3-472.4-34.4c-4.2,8,1.1,18.3,8.9,22.8
		c7.7,4.5,17.3,4.8,26.2,5c141.9,3.5,283.5,19.5,422.6,48c-67.3,19.7-138.5-6.1-208.5-10.7c-6.5-0.4-13.5-0.6-19,3
		c-5.5,3.6-7.9,12.2-3.2,16.6c73-1.1,146.1,3.9,218.4,14.9c6.3,0.9,14.5,7.1,10,11.5c-74.7-0.4-149.3-0.8-223.9-1.1
		c-5.4,0-11,0-15.7,2.7c-4.6,2.7-7.5,9.3-4.4,13.7c60.3,0,120.6-0.1,181-0.1c20.5,0,46.7,4.3,50.9,24.4
		c-138,7.6-275.7-20.9-413.9-22.5c-8.6-0.1-17.7,0.1-24.8,4.9s-10.3,16.1-4.2,22.1c28.8,8.6,59.4,8.6,89.4,8.5
		c103.6-0.3,207.2-0.7,310.8-0.9c24.9-0.1,54.2,2.1,67.6,23.1c-89.3,22.6-183,3.9-275-2.6c-65.1-4.6-130.5-3.2-195.8-1.7
		c-5,8.7,0.6,20.3,9.2,25.4s19.2,5.4,29.1,5.6c178.5,2.6,357.2,5.3,535.5-3.8c16.5-0.8,38,1.7,41.9,17.8c-29.2,6.1-59.3,4.1-89,2.3
		c-172.8-10.7-346-12.8-519-6.5c-0.5,4.2-0.8,8.6-1.3,12.8c196,0.3,392,0.6,587.9,0.9c5.9,0,12.2,0.1,17.1,3.4
		c4.9,3.3,7.2,11,2.9,15.1c-2.8,2.7-7.3,2.8-11.1,2.7c-16.5-0.5-33.1-0.8-49.7-1.3c-183.1-4.6-366.4-7.3-549.5-7.7
		c-5.9,9.2,0.2,22.2,9.6,27.6s21,5.3,31.9,5c99.9-2.3,199.9-2.3,299.7-0.2c11,0.2,26.4,6,23,16.5c-98.7,6.8-197.9,8.8-296.9,5.9
		c-0.2,5.7-0.3,11.3-0.5,17.1c57.6,0.1,115.2,0.3,172.8,0.4c46.4,0.1,93.6,0.3,138.6,11.5c-11.5,15.8-34.2,17-53.6,16.8
		c-68.2-0.7-136.4-1.3-204.6-2c-9.7-0.1-19.9-0.1-28.6,4.2s-15.4,14.5-12.4,23.8c101.9,0.5,203.7,0.8,305.6,1.3
		c11.6,0.1,27.2,3.7,27.3,15.3c0.1,11.5-15,15.6-26.4,16c-82.2,3.4-164.6,3.6-247,0.5c-23.9-0.8-49.1-1.8-70.4,9.1
		c-4,2-7.9,4.7-9.6,8.8c-2.6,6.5,1.9,14.2,8.1,17.5c6.2,3.3,13.6,3.4,20.7,3.3c101.6-0.3,203.2-0.5,304.8-0.8c9.1,0,18.5,0,26.7,3.9
		c8.2,3.9,14.8,12.7,13.1,21.6c-129.8,0.2-259.7,0.5-389.5,0.7c-3.5,0-7.4,0.2-9.7,2.6c-3.5,3.6-1.5,10,2.5,12.8s9.3,3.1,14.3,3.2
		c90,2.4,181.3-4.8,269,15.8c14.1,3.3,27.9,7.3,41.5,12c14.2,4.8,28.4,10.7,39,21.1c-57.4,9.2-116.4,7.9-173.3-3.7
		c-64.5-13.1-131-39.3-193.8-19.4c-11.5,3.6-24.7,13.2-21,24.6c107.6-0.7,215.3,14.5,318.6,44.9c-10.7,12-29,12.3-44.9,10.8
		c-88.1-8.6-172.1-46.9-260.5-47.8c-15-0.1-34.4,4.7-35.6,19.6c-1.4,16.1,19.4,23.5,35.4,25.3c75.6,8.6,151.7,12.8,227.7,12.7
		c10.6,0,21.4,0,31.2,3.8c9.8,3.8,18.6,12.3,19.4,22.8c-41.9,4.8-84.6,2.8-125.8-5.9c-10.8,10.6,4.2,29.3,19.2,30.2
		s29.5-6.9,44.7-6.5c15.1,0.4,31.2,17.4,21.8,29.2c-3,3.8-7.7,5.6-12.3,7.1c-31.3,10.3-66,10.1-97.2-0.4c-12.7-4.2-25.6-10.3-38.9-9
		c-13.3,1.3-26.7,14.3-22.4,27c4.3,12.6,20.8,14.9,34.1,15.1c46.5,0.5,93.1,1,139.6,1.5c0.8,6.1,1.4,12.3,2.2,18.4
		c-36.6-2.5-73.3-4.9-109.9-7.4c-4.8-0.3-10.4-0.3-13.4,3.4c-5.2,6.5,2.9,15.5,10.8,18.3c18.4,6.7,38.6,3.3,58.2,2.3
		c19.5-1,41.4,1.5,54.2,16.2c-15.1,9.1-32.9,13.4-50.5,12.5c19.7,18.2,52.3,20.5,74.3,5.2"/>
</g>
</svg>
