<?xml version="1.0" encoding="utf-8"?>
<!-- Generator: Adobe Illustrator 15.0.0, SVG Export Plug-In . SVG Version: 6.00 Build 0)  -->
<!DOCTYPE svg PUBLIC "-//W3C//DTD SVG 1.1//EN" "http://www.w3.org/Graphics/SVG/1.1/DTD/svg11.dtd">
<svg version="1.1" id="Layer_1" xmlns="http://www.w3.org/2000/svg" xmlns:xlink="http://www.w3.org/1999/xlink" x="0px" y="0px"
	 width="86.949px" height="93.715px" viewBox="0 0 86.949 93.715" enable-background="new 0 0 86.949 93.715" xml:space="preserve">
<path fill="none" stroke="#FFFFFF" stroke-width="11" stroke-opacity="0" stroke-linecap="round" stroke-linejoin="round" stroke-miterlimit="10" d="
	M58.475,74.857c-2.086-5.809-7.178-10.549-9.486-16.625c-2.67-7.029-2.859-13.2-1.9-20.75c0.89-7.003,2.281-12.393-5.127-15.111
	c-3.704-1.359-13.182-2.695-12.41-8.25c0.294,0.422,0.603,0.834,0.924,1.236"/>
<path fill="none" stroke="#FFFFFF" stroke-width="11" stroke-opacity="0" stroke-linecap="round" stroke-linejoin="round" stroke-miterlimit="10" d="
	M24.475,79.857c5.277,3.51,11.536-5.838,13.875-9.609c2.598-4.188,7.435-8.444,9.125-12.891"/>
<path d="M28.023,3.357c-0.151-2.116-7,16-0.5,20s16.5,0,18,11.5s1,25-3,29.5s-15,5-19,9s-8.5,13.5-3.5,13.5s18,1,19-2.5
	s8.5-20.5,8.5-20.5s7,9.5,8.5,15.5s5,13,5,7.5s2.5-16.5-0.5-22.5s-7-5-8.5-16.5s1.5-31-0.5-32S28.523,10.357,28.023,3.357z"/>
</svg>
