<?xml version="1.0" encoding="utf-8"?>
<!-- Generator: Adobe Illustrator 15.0.0, SVG Export Plug-In . SVG Version: 6.00 Build 0)  -->
<!DOCTYPE svg PUBLIC "-//W3C//DTD SVG 1.1//EN" "http://www.w3.org/Graphics/SVG/1.1/DTD/svg11.dtd">
<svg version="1.1" id="Layer_1" xmlns="http://www.w3.org/2000/svg" xmlns:xlink="http://www.w3.org/1999/xlink" x="0px" y="0px"
	 width="86.949px" height="93.715px" viewBox="0 0 86.949 93.715" enable-background="new 0 0 86.949 93.715" xml:space="preserve">
<path fill="none" stroke="#FFFFFF" stroke-width="11" stroke-opacity="0" stroke-linecap="round" stroke-linejoin="round" stroke-miterlimit="10" d="
	M50.975,13.857c0.334-0.074,0.061-0.845,0.881-0.446c1.89,3.852,9.62,8.016,13.968,7.446c-6.993-0.936-9.325,7.909-12.376,12.875
	c-4.279,6.965-6.984,12.533-9.536,19.861c0.062-0.466,0.25-0.877,0.563-1.236"/>
<path fill="none" stroke="#FFFFFF" stroke-width="11" stroke-opacity="0" stroke-linecap="round" stroke-linejoin="round" stroke-miterlimit="10" d="
	M14.975,15.857c3.759,3.018,10.201,0.121,12.524,4.002c1.482,2.475,0.34,10.296,0.99,13.488c0.843,4.142,0.987,10.347,3.585,13.91
	c2.385,3.271,7.472,4.798,10.277,7.736c4.677,4.899,14.186,14.567,13.623,21.863c-0.748,9.706-27.598,6.5-35.597,6.5
	c-0.738,0,1.488,0,1.097,0"/>
<path fill="#0C0E22" d="M12.308,6.691c0,0-4,13.333,0.667,16.667s14,0.667,14,8.667s-1.999,19.334,4.667,22
	S58.308,72.69,50.975,72.69s-35.334-2.667-36.667,2s-1.333,13.334-1.333,13.334l48,0.666c0,0,7.334-14.667,2.667-20
	s-16.668-9.999-15.334-18.666s11.334-20.667,11.334-20.667s8-0.667,7.333-6s2-7.333-4-9.333S47.642,5.357,47.642,5.357
	s-2.666,2.001-2,6.667s0.666,4.666,0.666,4.666s2,7.334,4,8.667s5.334,1.333,5.334,1.333l-13.334,24c0,0-11.333-2.666-11.333-15.333
	s2.667-17.999-2-21.333S13.641,13.357,12.308,6.691z"/>
</svg>
