<?xml version="1.0" encoding="utf-8"?>
<!-- Generator: Adobe Illustrator 25.0.1, SVG Export Plug-In . SVG Version: 6.00 Build 0)  -->
<svg version="1.1" id="Layer_1" xmlns="http://www.w3.org/2000/svg" xmlns:xlink="http://www.w3.org/1999/xlink" x="0px" y="0px"
	 width="1000px" height="1000px" viewBox="0 0 1000 1000" enable-background="new 0 0 1000 1000" xml:space="preserve">
<g id="vs-primary">
	<path fill="#5EBED9" d="M594.5,318.2c0,0,7.6-118.3-109.8-118.3c-128.1,0-124.2,118.3-124.2,118.3v283c0,0-3.4,103.9,117.3,103.9
		C595,705.1,595,595.3,595,595.3L594.5,318.2z M477.8,634.3c-63.2,0-59.5-38.5-59.5-38.5l-1.2-273.3c0,0-3.6-51.8,60.7-51.8
		s59.3,51.8,59.3,51.8l0.1,268.6C537.1,591.1,541,634.3,477.8,634.3z"/>
</g>
<g id="vs-secondary">
	<path fill="#5F5F5F" d="M522.1,288.4c0,0-37.4-33.7-83.6-4.3s0,0,0,0s-26.3,10.6-21.4,76.2c4.8,65.6,0,0,0,0l1.7,226
		c0,0,4.8,42.2,38.6,39.2c0,0-17.7-6.3-12.4-64.6l0.3-229.1C445.2,331.9,441.9,288.9,522.1,288.4z"/>
	<path fill="#5F5F5F" d="M582.4,256.5c0,0,11.2,21.7,9.5,69l0.2,270.9c0,0,0.7,61.2-40.7,83.3c0,0-21,40.5-134.9,17.5
		c0,0,24,32.7,101.7,25.9c0,0,63.1,6.8,88.4-67.9c0,0,10.1,22.8,10.1-116.3s0,0,0,0l-1.9-232.8C614.8,306.1,608.4,266.3,582.4,256.5
		"/>
</g>
<g id="vs-outline">
	<path fill="none" stroke="#221F1F" stroke-width="10" stroke-linecap="round" stroke-linejoin="round" stroke-miterlimit="10" d="
		M360.5,318.2c0,0-1.4-42.5,25.1-76.5c10.2-13.1,24.6-25,44.7-32.7c7.7-2.9,16.3-5.3,25.9-6.8c8.7-1.4,18.2-2.2,28.5-2.2
		c5.4,0,10.5,0.2,15.4,0.7c8,0.8,15.4,2.2,22.1,4.1c26,7.4,42.7,22.4,53.4,39.2c21.5,33.7,19,74.3,19,74.3l0.2,97.7l0.2,80l0.2,99.4
		c0,0,0,41.2-27,73.1c-13,15.3-32.1,28.5-60.5,34c-4.7,0.9-9.6,1.6-14.7,2c-4.8,0.4-9.8,0.6-15.1,0.6c-7.3,0-14.1-0.4-20.5-1.1
		c-8-0.9-15.4-2.3-22.2-4.2c-21.6-5.9-37-16.3-47.9-28.1c-28-30.4-26.7-70.5-26.7-70.5l0-97.2l0-107L360.5,318.2z"/>
	<path fill="none" stroke="#221F1F" stroke-width="10" stroke-linecap="round" stroke-linejoin="round" stroke-miterlimit="10" d="
		M417.1,336.4c0,0-2.4-42.3,31.2-58.2c3.9-1.8,8.2-3.3,13.1-4.3s10.3-1.6,16.4-1.6c3.6,0,6.9,0.2,10.1,0.6c3.9,0.5,7.4,1.2,10.7,2.1
		c42.3,12.2,38.5,61.4,38.5,61.4l0,57.6l0,92l0,90.3c0,0,2.6,39-31.9,52.6c-4.6,1.8-9.8,3.2-15.8,4c-3.6,0.5-7.5,0.7-11.7,0.7
		c-5.7,0-10.9-0.4-15.5-1.2c-5-0.8-9.5-2.1-13.5-3.7c-33-13.2-30.5-48.2-30.5-48.2L418,513l-0.5-92L417.1,336.4z"/>
	<path fill="none" stroke="#221F1F" stroke-width="10" stroke-linecap="round" stroke-linejoin="round" stroke-miterlimit="10" d="
		M525,292.9c0,0-81.9-14.4-81.9,47v117.3V526v73.3c0,0,1.4,34.3,34.7,34.3"/>
	<path fill="none" stroke="#221F1F" stroke-width="10" stroke-linecap="round" stroke-linejoin="round" stroke-miterlimit="10" d="
		M568.7,234.5c0,0,48,30.8,48,92.2v137v151.9c0,0-0.4,54.3-36.8,86.2c-4.7,4.1-10,7.8-15.9,11c-3.7,2-7.7,3.8-12,5.3
		c-7.9,2.9-15.9,5-23.9,6.5C471.4,735,415.7,712.1,389.3,674"/>
	<path fill="none" stroke="#221F1F" stroke-width="3" stroke-linecap="round" stroke-linejoin="round" stroke-miterlimit="10" d="
		M566.7,677.7c0.9,9.2,5.1,22.9,8.8,31.4"/>
	<path fill="none" stroke="#221F1F" stroke-width="3" stroke-linecap="round" stroke-linejoin="round" stroke-miterlimit="10" d="
		M570.9,663c7.2,9.6,12.6,30.8,14.5,36.9"/>
	<path fill="none" stroke="#221F1F" stroke-width="3" stroke-linecap="round" stroke-linejoin="round" stroke-miterlimit="10" d="
		M577.3,650.6c10.9,21.9,13.6,18.6,15.7,39.7"/>
	<path fill="none" stroke="#221F1F" stroke-width="3" stroke-linecap="round" stroke-linejoin="round" stroke-miterlimit="10" d="
		M584.4,637.6c5,11.3,12.6,28,16.7,39.4"/>
	<path fill="none" stroke="#221F1F" stroke-width="3" stroke-linecap="round" stroke-linejoin="round" stroke-miterlimit="10" d="
		M590.8,619.3c2.6,10.7,10.9,30.1,16.6,40.4"/>
	<path fill="none" stroke="#221F1F" stroke-width="3" stroke-linecap="round" stroke-linejoin="round" stroke-miterlimit="10" d="
		M596.3,606.8c3,11.2,10.9,28.2,17.2,39.1"/>
	<path fill="none" stroke="#221F1F" stroke-width="3" stroke-linecap="round" stroke-linejoin="round" stroke-miterlimit="10" d="
		M591.6,586.8c10.3,13.3,20,26.5,26.7,40.1"/>
	<path fill="none" stroke="#221F1F" stroke-width="3" stroke-linecap="round" stroke-linejoin="round" stroke-miterlimit="10" d="
		M594.5,575.4c8.5,10.7,17.8,22.7,25.7,33.8"/>
	<path fill="none" stroke="#221F1F" stroke-width="3" stroke-linecap="round" stroke-linejoin="round" stroke-miterlimit="10" d="
		M606.4,576.1c4.3,4.5,8.3,9.4,11.9,14.6"/>
	<path fill="none" stroke="#221F1F" stroke-width="3" stroke-linecap="round" stroke-linejoin="round" stroke-miterlimit="10" d="
		M605.1,360.7c4.2,6.8,8.3,13.6,12.5,20.4"/>
	<path fill="none" stroke="#221F1F" stroke-width="3" stroke-linecap="round" stroke-linejoin="round" stroke-miterlimit="10" d="
		M597.3,333.2c7.2,10.7,14.4,21.6,21.6,32.4"/>
	<path fill="none" stroke="#221F1F" stroke-width="3" stroke-linecap="round" stroke-linejoin="round" stroke-miterlimit="10" d="
		M597.6,317.6c7.3,7.2,13.4,15.5,17.8,24.5"/>
	<path fill="none" stroke="#221F1F" stroke-width="3" stroke-linecap="round" stroke-linejoin="round" stroke-miterlimit="10" d="
		M595,298c5.2,9.5,16.1,23.1,24.3,31.4"/>
</g>
<g id="vs-reveal">
	
		<path fill="none" stroke="#00FF7F" stroke-width="55" stroke-linecap="round" stroke-linejoin="round" stroke-miterlimit="10" stroke-opacity="0" d="
		M339,222.5c42.4-33.3,216.9-19.6,266.5,10.9c18.9,22.3-225.2,15.2-250.4,33c-13.8,3.9-30,16.3-5.8,20.4c7.7,9.5,348.8-15,269.2,23
		c-54.7,17.7-219.8,12.8-271.9,36.5c-3.5,15.7,102.3,5.8,149.6,6.8c63.1,1.1,112.4-6.3,148.3,10.7c4.5,4.6-1.3,8.3-14.1,11.3
		c-58.5,16.1-234.7,9.4-294,36c-4.4,4.5,1.6,6.9,14.7,8c51.3,4.1,208-11.5,264.1,0.3c108.9,34.1-260.5,33.6-265.2,43
		c-18.3,3.3-24.3,11,2,13.3c69.4,9.6,231.3-7.3,289.2,20.2c5.3,5.4-1.7,9.3-16.6,12.4c-53.3,11.4-217.4,10.8-271.4,25
		c-16.1,3.9-24.7,12.4,0.3,15.7c56.5,8.3,231.7-0.1,289.8,9.3c114,24.3-287.1,29-290.9,42.8c-23.1,5.7-31.3,17.3,3.7,20.5
		c66.3,9.9,229.8-8.5,289.5,10.7c4.3,4.3-6.6,7.7-26.5,10.6c-29.7,4.3-79.5,7.4-129.5,10.7c-64.3,6.5-116.4,3.1-157.5,20.4
		c-4.7,4.8,5.9,7.3,25.6,8.6c56.8,4.2,200-3.2,260.7,11.6c17.6,3.7,36.2,17.5,6.2,21c-56.2,7.7-242.3-11.8-280.2,26.7"/>
</g>
</svg>
