<?xml version="1.0" encoding="utf-8"?>
<!-- Generator: Adobe Illustrator 22.1.0, SVG Export Plug-In . SVG Version: 6.00 Build 0)  -->
<svg version="1.1" id="Layer_1" xmlns="http://www.w3.org/2000/svg" xmlns:xlink="http://www.w3.org/1999/xlink" x="0px" y="0px"
	 width="2142px" height="1218px" viewBox="0 0 2142 1218" enable-background="new 0 0 2142 1218" xml:space="preserve">
<g id="vs-highlight">
	<g>
		<path fill="#5DBFD9" d="M422,509c0.1,0,0.1,0,0.2,0l44.5-1c2,0,3.9-0.8,5.3-2l-1,27.7c-0.2,5,3.7,9.1,8.7,9.3c0.1,0,0.2,0,0.3,0
			c4.8,0,8.8-3.8,9-8.7l1.5-40.8c1.1,0.3,2.3,0.5,3.5,0.5c0.2,0,0.4,0,0.7,0l66.5-3c4.3-0.2,8.3-2.3,10.9-5.7
			c2.6-3.4,3.5-7.9,2.5-12.1l-4-17c-1.6-6.7-7.7-11.4-14.6-11.2l-60.5,2c-1.2,0-2.3,0.2-3.4,0.5l1.9-52.1c1.6,0.6,3.3,1,5,1.1
			l48,1.5c0.2,0,0.3,0,0.5,0c4.1,0,8.1-1.8,10.8-4.9c2.9-3.2,4.1-7.5,3.5-11.8l-3.5-23c-1.1-7.1-7.2-12.3-14.3-12.3h-48.2l1.2-33.2
			c0-0.3,0-0.6,0-0.9c6-0.7,10.6-5.9,10.5-12.1l-0.5-35.5c0-2.1-0.6-4.1-1.6-5.8l12.5-11.8c3.4-3.2,3.6-8.6,0.3-12
			c-3.2-3.4-8.6-3.6-12-0.3l-19,18c-1.8,1.7-2.7,4-2.6,6.4c-1,1.8-1.5,3.8-1.5,6l0.5,35.5c0,1.5,0.3,2.8,0.8,4.1
			c-3,1.4-5.2,4.3-5.3,7.9l-6.5,181.3c-1.6-1.6-3.8-2.5-6.1-2.5l-44.5,1c-4.7,0.1-8.4,4-8.3,8.7C413.6,505.3,417.4,509,422,509z"/>
		<path fill="#5DBFD9" d="M955.3,605.6c-1.9-3.1-5.9-4-8.9-2.2c-5.3,3.2-11.2,6-16.5,8.5c-10.7,5.1-16.1,7.6-15.4,13.8
			c0.2,1.6,1.2,5.5,7.1,6.9c6,1.4,11.2-1.8,15.8-4.5c6.7-4,9.9-5.4,14.1-2.6c11.2,7.3,27.9,11.9,34.4,12.7c0.3,0,0.6,0.1,0.8,0.1
			c3.2,0,6-2.4,6.4-5.7c0.5-3.6-2-6.8-5.6-7.3c-4.5-0.6-19.6-4.6-29-10.7c-1.2-0.8-2.3-1.4-3.5-1.9
			C956.5,610.6,956.6,607.9,955.3,605.6z"/>
		<path fill="#5DBFD9" d="M641.8,616.9c-0.9-3.5-4.4-5.6-7.9-4.7c-5.4,1.4-23,6.6-21.5,16.1c0.4,2.5,2.7,6.6,9.1,6.2
			c4.5-0.3,8.2-1.3,11.1-2c2.2-0.5,4.9-1.2,5.4-0.9c11.3,8.8,16,10.8,21.8,10.8c1.2,0,2.4-0.1,3.8-0.2c1.8-0.2,3.7-0.3,6.4-0.2
			c3.6,0.1,6.6-2.6,6.8-6.2c0.1-3.6-2.6-6.6-6.2-6.8c-3.5-0.1-6.1,0.1-8.1,0.3c-4.4,0.4-5.7,0.5-16.5-7.9c-1.3-1-2.7-1.7-4-2.1
			C642.1,618.5,642,617.7,641.8,616.9z"/>
		<path fill="#5DBFD9" d="M580,713c0-3.2-2.3-5.9-5.4-6.4c-21.7-3.7-35.1,3.3-46.5,12.3c-3.5,1.9-7,4.2-10.6,7
			c-1.4,1.1-2.2,2.6-2.4,4.2c-6.2,5.4-12.9,10.7-21.3,14.5c-3.3,1.5-4.7,5.4-3.2,8.6c1.5,3.3,5.4,4.7,8.6,3.2
			c11.9-5.5,20.6-13.2,28.3-20c2.7-2.4,5.3-4.7,7.9-6.8c15.3-7.8,24-1.5,26.6,1c9.7,9.4,22.2,17.4,32.4,23.1
			c5.2,3.4,11.4,6.5,18.8,9.3c0.8,0.3,1.5,0.4,2.3,0.4c2.6,0,5-1.5,6-4.1c1.3-3.3-0.2-7-3.5-8.4c-0.1-0.1-7.6-3.3-17.2-8.6
			C580.7,729.2,580,713.7,580,713z"/>
		<path fill="#5DBFD9" d="M357.3,880.5c-35.8-1.3-63.4-11-79.8-27.9c-12.1-12.5-14-24.9-14-25c-0.4-3.2-3-5.6-6.2-5.7
			c-46.2-1.4-60.3,25.2-65.7,35.3c-0.6,1.1-1.1,2.1-1.5,2.7c-1.9,3-1.1,7,2,9s7,1.1,9-2c0.7-1,1.3-2.2,2-3.6c1.7-3.2,4.1-7.6,7.9-12
			c0.7-0.2,1.5-0.5,2.1-0.9c6.3-4,15.1-4.9,24.7-2.5c13.2,3.3,25.6,12.4,31.6,23.2c6.4,11.5,23,18.4,50.7,21.2
			c10.2,1,19.9,1.3,26.9,1.3c6.1,0,10.1-0.2,10.4-0.2c3.5-0.2,6.2-3.1,6.2-6.5S360.7,880.6,357.3,880.5z"/>
		<path fill="#5DBFD9" d="M1124.7,571.7c28.8-0.8,50.2-0.8,55,0.6c12.2,5.7,18.8,6,20,6v-17c0,0,0.1,0,0.3,0c0,0-4.4-0.3-13.3-4.5
			c-3.1-1.5-9-4.3-88.1-1.2c-12.2,0.5-24.3,1-35.1,1.5c-9-2.7-25.3-7.5-30-8.9c-7.6-2.3-22.2,2.8-33.7,7.7
			c-7.1,0.3-41.5,1.3-145.4,1.9c-48.5,0.3-69.2-2.2-77.9-4.2c0.8-2.6,0.4-5.4-1.3-7.7c-2.4-3.2-6.7-4.3-10.4-2.7
			c-4.9,2.3-8.2,5.8-9.2,9.8c-1.1,1.4-2.3,2.9-3.5,4.5c-12.2,2.9-76,0.6-134.1-3.6l-4.5-4.2c-2.6-2.4-6.3-3-9.5-1.5l-14,6.8
			l-47.8-2.6c-0.3,0-0.5,0-0.8,0c-1.2,0-124.7,4.7-135.7,4.7c-10.8,0-58.5-5.3-65.5-6.7c-3.3-1.5-6.9-0.5-13.2,1.1
			c-8.8,2.3-23.4,6.1-40.4,5.6c-4.7-0.1-8.6,3.6-8.7,8.3s3.6,8.6,8.3,8.7c19.4,0.5,36.2-3.8,45.1-6.2c1.6-0.4,3.5-0.9,4.6-1.1
			c3.6,0.9,11.4,2,31.1,4.1c14.5,1.6,32.3,3.2,38.8,3.2c11.1,0,126.9-4.4,135.9-4.7l49.6,2.7c1.4,0.1,2.9-0.2,4.1-0.8l10.7-5.2
			l2.4,2.3c1.4,1.3,3.3,2.1,5.2,2.3c0.3,0,34.9,2.5,69.7,4c20.5,0.9,37.2,1.2,49.5,1.1c23.1-0.3,28.4-2.2,31.6-6.5
			c0.3-0.5,0.7-0.9,1-1.4c4.3,1.7,9.6,2.8,15,3.6c15.6,2.3,40.5,3.4,73.9,3.2c119.5-0.7,146.6-2,147.7-2c1-0.1,2.1-0.3,3-0.7
			c3.2-1.4,6.5-2.7,9.7-3.9c0.3,4.5,4,8.1,8.6,8l43.7-0.7c1.9,0,3.7-0.7,5.2-1.9c2.1-0.1,4.2-0.2,6.2-0.3c0.2,3.5,3.2,6.3,6.7,6.1
			c12.4-0.5,48.1,1.9,52.2,18c-1.5,2.7-11,11.6-39.8,24.2c-26.2,11.5-57.3,20.9-85.2,26c-38.6,7-84.6,24.7-116.3,38.3
			c-38.5,16.5-77.8,36.2-107.8,54c-25.9,15.4-44.5,41.2-64.2,68.5c-23.5,32.6-47.9,66.3-86.7,84.2c-22.7,10.5-61.2,15.3-102.1,20.5
			c-54.9,6.9-117.1,14.8-162.2,38.2c-3.2,1.7-4.4,5.6-2.8,8.8c1.2,2.2,3.4,3.5,5.8,3.5c1,0,2-0.2,3-0.7c43.1-22.4,104-30,157.9-36.8
			c43.6-5.5,81.3-10.3,105.9-21.5c41.9-19.3,67.2-54.4,91.8-88.4c18.9-26.2,36.7-50.9,60.3-64.9c51-30.3,153-78.5,219.8-90.7
			c55.9-10.2,120.7-37.1,133.2-55.3c2.2-3.2,3-6.4,2.4-9.4C1147.9,582.8,1136.5,575.6,1124.7,571.7z"/>
		<path fill="#5DBFD9" d="M1452.2,834.5l-290.7,36c-3.6,0.4-6.1,3.7-5.7,7.2c0.4,3.3,3.2,5.7,6.4,5.7c0.3,0,0.5,0,0.8,0l290.7-36
			c3.6-0.4,6.1-3.7,5.7-7.2C1459,836.6,1455.8,834.1,1452.2,834.5z"/>
		<path fill="#5DBFD9" d="M1531.8,509.8l-71.3-0.6l-40.1-40.8c-1.3-1.3-3.1-2-5-1.9s-3.6,1-4.7,2.4l-11,13.6l-3.9-6.2
			c-1.2-2-3.5-3.2-5.8-3.1s-4.5,1.5-5.5,3.6l-26.6,52.6c-1.6,3.2-0.3,7.1,2.9,8.7c0.9,0.5,1.9,0.7,2.9,0.7c2.4,0,4.7-1.3,5.8-3.6
			l21.4-42.3l2.6,4.2c1.1,1.8,3,2.9,5.1,3.1c2.1,0.1,4.1-0.8,5.5-2.4l12.1-15l36.9,37.5c1.2,1.2,2.9,1.9,4.6,1.9l74,0.6
			c0,0,0,0,0.1,0c3.6,0,6.5-2.9,6.5-6.4C1538.2,512.8,1535.4,509.8,1531.8,509.8z"/>
		<path fill="#5DBFD9" d="M1388.3,535.5c0.5,0,1-0.1,1.5-0.2l36.7-8.7c3.5-0.8,5.7-4.3,4.8-7.8c-0.8-3.5-4.3-5.7-7.8-4.8l-36.7,8.7
			c-3.5,0.8-5.7,4.3-4.8,7.8C1382.7,533.5,1385.4,535.5,1388.3,535.5z"/>
		<path fill="#5DBFD9" d="M1659.7,464.6l-89,18c-3.5,0.7-5.8,4.1-5.1,7.7c0.6,3.1,3.3,5.2,6.4,5.2c0.4,0,0.9,0,1.3-0.1l89-18
			c3.5-0.7,5.8-4.1,5.1-7.7S1663.2,463.9,1659.7,464.6z"/>
		<path fill="#5DBFD9" d="M1631.4,357.2c-2.6-2.4-6.5-2.3-9,0.2l-23.5,23.5l-12.4-11.7c-2.6-2.5-6.7-2.3-9.2,0.3
			c-2.5,2.6-2.3,6.7,0.3,9.2l17,16c2.6,2.4,6.6,2.3,9.1-0.1l23.6-23.6l69.4,63.8c1.2,1.1,2.8,1.7,4.4,1.7c1.8,0,3.5-0.7,4.8-2.1
			c2.4-2.6,2.3-6.8-0.4-9.2L1631.4,357.2z"/>
		<path fill="#5DBFD9" d="M2040.8,419.6l-293,7.9c-3.6,0.1-6.4,3.1-6.3,6.7c0.1,3.5,3,6.3,6.5,6.3c0.1,0,0.1,0,0.2,0l293-7.9
			c3.6-0.1,6.4-3.1,6.3-6.7S2044.4,419.5,2040.8,419.6z"/>
	</g>
</g>
<g id="vs-outline">
	
		<path id="XMLID_135_" fill="none" stroke="#000000" stroke-width="13" stroke-linecap="round" stroke-linejoin="round" stroke-miterlimit="10" d="
		M273.6,570c6-22.5,39-52.5,58.5-49.5s151.5,31.5,168,16.5c16.5-15,142.5-22.5,160.5-10.5s120.4-24,139.9-13.5s72,25.5,72,25.5
		s133.3-41.2,148.6-34.9c68,28,121.5,9,169.5-4.5c48-13.5,147,1.5,147,1.5"/>
	
		<polyline id="XMLID_134_" fill="none" stroke="#000000" stroke-width="11" stroke-linecap="round" stroke-linejoin="round" stroke-miterlimit="10" points="
		418,532.9 417,489.4 467,489.9 	"/>
	
		<polyline id="XMLID_133_" fill="none" stroke="#000000" stroke-width="11" stroke-linecap="round" stroke-linejoin="round" stroke-miterlimit="10" points="
		467,537.9 479,306.4 547.5,305.9 578,515.4 	"/>
	
		<line id="XMLID_132_" fill="none" stroke="#000000" stroke-width="11" stroke-linecap="round" stroke-linejoin="round" stroke-miterlimit="10" x1="535" y1="302.9" x2="534.5" y2="264.4"/>
	
		<polygon id="XMLID_131_" fill="none" stroke="#000000" stroke-width="11" stroke-linecap="round" stroke-linejoin="round" stroke-miterlimit="10" points="
		542.7,260.9 509.7,232.4 480.7,260.7 	"/>
	
		<line id="XMLID_130_" fill="none" stroke="#000000" stroke-width="11" stroke-linecap="round" stroke-linejoin="round" stroke-miterlimit="10" x1="488" y1="264.4" x2="489" y2="302.9"/>
	
		<line id="XMLID_129_" fill="none" stroke="#000000" stroke-width="6" stroke-linecap="round" stroke-linejoin="round" stroke-miterlimit="10" x1="492.3" y1="277.8" x2="533.5" y2="277.3"/>
	
		<line id="XMLID_128_" fill="none" stroke="#000000" stroke-width="6" stroke-linecap="round" stroke-linejoin="round" stroke-miterlimit="10" x1="492.6" y1="292.1" x2="532.8" y2="291.9"/>
	
		<line id="XMLID_127_" fill="none" stroke="#000000" stroke-width="6" stroke-linecap="round" stroke-linejoin="round" stroke-miterlimit="10" x1="500.1" y1="263.8" x2="500.5" y2="303.3"/>
	
		<line id="XMLID_126_" fill="none" stroke="#000000" stroke-width="6" stroke-linecap="round" stroke-linejoin="round" stroke-miterlimit="10" x1="522" y1="263.9" x2="522.3" y2="303.6"/>
	
		<line id="XMLID_125_" fill="none" stroke="#000000" stroke-width="6" stroke-linecap="round" stroke-linejoin="round" stroke-miterlimit="10" x1="482" y1="347.9" x2="552" y2="346.4"/>
	
		<line id="XMLID_124_" fill="none" stroke="#000000" stroke-width="6" stroke-linecap="round" stroke-linejoin="round" stroke-miterlimit="10" x1="559.5" y1="394.9" x2="478" y2="396.4"/>
	
		<line id="XMLID_123_" fill="none" stroke="#000000" stroke-width="6" stroke-linecap="round" stroke-linejoin="round" stroke-miterlimit="10" x1="474.5" y1="444.9" x2="569" y2="444.9"/>
	
		<line id="XMLID_122_" fill="none" stroke="#000000" stroke-width="6" stroke-linecap="round" stroke-linejoin="round" stroke-miterlimit="10" x1="573" y1="491.4" x2="473" y2="495.4"/>
	
		<polyline id="XMLID_121_" fill="none" stroke="#000000" stroke-width="11" stroke-linecap="round" stroke-linejoin="round" stroke-miterlimit="10" points="
		467,465.9 426.7,466.9 407.2,486.9 	"/>
	
		<line id="XMLID_120_" fill="none" stroke="#000000" stroke-width="6" stroke-linecap="round" stroke-linejoin="round" stroke-miterlimit="10" x1="433.5" y1="534.4" x2="432.7" y2="505.9"/>
	
		<line id="XMLID_119_" fill="none" stroke="#000000" stroke-width="6" stroke-linecap="round" stroke-linejoin="round" stroke-miterlimit="10" x1="429.2" y1="502.4" x2="454.2" y2="503.2"/>
	
		<line id="XMLID_118_" fill="none" stroke="#000000" stroke-width="6" stroke-linecap="round" stroke-linejoin="round" stroke-miterlimit="10" x1="450.5" y1="505.2" x2="450.5" y2="534.4"/>
	
		<path id="XMLID_117_" fill="none" stroke="#000000" stroke-width="13" stroke-linecap="round" stroke-linejoin="round" stroke-miterlimit="10" d="
		M148.5,571.5l1045,3"/>
	
		<path id="XMLID_116_" fill="none" stroke="#000000" stroke-width="13" stroke-linecap="round" stroke-linejoin="round" stroke-miterlimit="10" d="
		M351.5,996c78-93,288-30,366-148.5c73.7-112,150-145.5,291-184.5c104.1-28.8,96.5-36,135.5-51c19.4-7.5,14-39.5-49-37.5"/>
	
		<polygon id="XMLID_115_" fill="none" stroke="#000000" stroke-width="13" stroke-linecap="round" stroke-linejoin="round" stroke-miterlimit="10" points="
		1704.5,868.5 1698.5,418.5 1597.9,320.9 1538,470.5 1530.5,765 	"/>
	
		<polyline id="XMLID_114_" fill="none" stroke="#000000" stroke-width="13" stroke-linecap="round" stroke-linejoin="round" stroke-miterlimit="10" points="
		1749.9,418.9 2043.3,420 2053.8,850.5 1704.5,868.5 	"/>
	
		<path id="XMLID_113_" fill="none" stroke="#000000" stroke-width="13" stroke-linecap="round" stroke-linejoin="round" stroke-miterlimit="10" d="
		M1538,470.5c-45,69-40.5,20.3-36,12c28.9-53.6,94.5-206.5,94.5-206.5l137.4,128.9c37.5,42-2.5,67.6-35.4,13.6"/>
	
		<polyline id="XMLID_112_" fill="none" stroke="#000000" stroke-width="13" stroke-linecap="round" stroke-linejoin="round" stroke-miterlimit="10" points="
		1618.9,292.9 1933.8,299.9 2043.3,420 	"/>
	
		<path id="XMLID_111_" fill="none" stroke="#000000" stroke-width="13" stroke-linecap="round" stroke-linejoin="round" stroke-miterlimit="10" d="
		M1910.8,296.9l24-30c0,0,106.3,103.7,135,137c25,29,16,71-23,22"/>
	
		<polyline id="XMLID_110_" fill="none" stroke="#000000" stroke-width="13" stroke-linecap="round" stroke-linejoin="round" stroke-miterlimit="10" points="
		1449.9,500.9 1447.9,710.9 1357.9,657.9 1363.9,523.9 	"/>
	
		<path id="XMLID_109_" fill="none" stroke="#000000" stroke-width="13" stroke-linecap="round" stroke-linejoin="round" stroke-miterlimit="10" d="
		M1395.9,444.9l-44,93c0,0-23,7-14-14s59-109,59-109s73,74,77,81s-8,19-19,7S1395.9,444.9,1395.9,444.9z"/>
	
		<line id="XMLID_108_" fill="none" stroke="#000000" stroke-width="13" stroke-linecap="round" stroke-linejoin="round" stroke-miterlimit="10" x1="1410.9" y1="426.9" x2="1521.9" y2="426.9"/>
	
		<line id="XMLID_107_" fill="none" stroke="#000000" stroke-width="13" stroke-linecap="round" stroke-linejoin="round" stroke-miterlimit="10" x1="1468.9" y1="507.9" x2="1532.9" y2="505.9"/>
	
		<line id="XMLID_106_" fill="none" stroke="#000000" stroke-width="13" stroke-linecap="round" stroke-linejoin="round" stroke-miterlimit="10" x1="1447.9" y1="710.9" x2="1526.9" y2="711.9"/>
	
		<polyline id="XMLID_105_" fill="none" stroke="#000000" stroke-width="8" stroke-linecap="round" stroke-linejoin="round" stroke-miterlimit="10" points="
		1379,669.5 1382.5,522.5 1429.5,512 1428.5,695 	"/>
	
		<path id="XMLID_104_" fill="none" stroke="#000000" stroke-width="8" stroke-linecap="round" stroke-linejoin="round" stroke-miterlimit="10" d="
		M1387.5,469.5c6,3,13.5,19,13.5,19l12-22"/>
	
		<line id="XMLID_103_" fill="none" stroke="#000000" stroke-width="8" stroke-linecap="round" stroke-linejoin="round" stroke-miterlimit="10" x1="1414.5" y1="593" x2="1414.5" y2="612"/>
	
		<polyline id="XMLID_102_" fill="none" stroke="#000000" stroke-width="8" stroke-linecap="round" stroke-linejoin="round" stroke-miterlimit="10" points="
		1585,360 1602,385 1624,354 	"/>
	
		<polyline id="XMLID_101_" fill="none" stroke="#000000" stroke-width="8" stroke-linecap="round" stroke-linejoin="round" stroke-miterlimit="10" points="
		1568,782 1568,484 1667,460 1666,841 	"/>
	
		<line id="XMLID_100_" fill="none" stroke="#000000" stroke-width="8" stroke-linecap="round" stroke-linejoin="round" stroke-miterlimit="10" x1="1650" y1="631" x2="1650" y2="651"/>
	
		<polyline id="XMLID_99_" fill="none" stroke="#000000" stroke-width="8" stroke-linecap="round" stroke-linejoin="round" stroke-miterlimit="10" points="
		1592,349 1601,358 1611,341 	"/>
	
		<path id="XMLID_98_" fill="none" stroke="#000000" stroke-width="8" stroke-linecap="round" stroke-linejoin="round" stroke-miterlimit="10" d="
		M1012,630c-46.5,5-57.5-25.5-57.5-25.5S937,597,905,611s-59,7-59,7"/>
	
		<path id="XMLID_97_" fill="none" stroke="#000000" stroke-width="6" stroke-linecap="round" stroke-linejoin="round" stroke-miterlimit="10" d="
		M954.5,604.5c-19,1-39.5,13.5-47.5,25.5"/>
	
		<path id="XMLID_96_" fill="none" stroke="#000000" stroke-width="8" stroke-linecap="round" stroke-linejoin="round" stroke-miterlimit="10" d="
		M698,768c-54,3-122-26-115-61c0,0-14-25-59-10s-81,44-148,36"/>
	
		<path id="XMLID_95_" fill="none" stroke="#000000" stroke-width="6" stroke-linecap="round" stroke-linejoin="round" stroke-miterlimit="10" d="
		M583,707c-4-1-36-14-61,15c-11.2,12.9-45,34-61,34"/>
	
		<path id="XMLID_94_" fill="none" stroke="#000000" stroke-width="8" stroke-linecap="round" stroke-linejoin="round" stroke-miterlimit="10" d="
		M563,630c18,0,47-19,75-17c0,0,14,24,37,20"/>
	
		<path id="XMLID_93_" fill="none" stroke="#000000" stroke-width="6" stroke-linecap="round" stroke-linejoin="round" stroke-miterlimit="10" d="
		M638,613c-29,2-15,19-39,19"/>
	
		<path id="XMLID_92_" fill="none" stroke="#000000" stroke-width="8" stroke-linecap="round" stroke-linejoin="round" stroke-miterlimit="10" d="
		M386,886c-102-3-126-46-121-62c0,0-56-30-119,17c-35.2,26.2-105,21-105,21"/>
	
		<path id="XMLID_91_" fill="none" stroke="#000000" stroke-width="6" stroke-linecap="round" stroke-linejoin="round" stroke-miterlimit="10" d="
		M265,824c-45-5-67,10-74,42"/>
	
		<path id="XMLID_90_" fill="none" stroke="#000000" stroke-width="10" stroke-linecap="round" stroke-linejoin="round" stroke-miterlimit="10" d="
		M1161.1,577.6c12,6,52.5,16.5,55.5,40.5s-55.8,38.4-66,96c-13.5,76.5-138,93-181.5,178.5C950,930,837.1,996,837.1,996"/>
	
		<polygon id="XMLID_89_" fill="none" stroke="#000000" stroke-width="10" stroke-linecap="round" stroke-linejoin="round" stroke-miterlimit="10" points="
		1386,773 1176,800 1157,872 1460,833 	"/>
	
		<path id="XMLID_88_" fill="none" stroke="#000000" stroke-width="6" stroke-linecap="round" stroke-linejoin="round" stroke-miterlimit="10" d="
		M1317.3,785.7c7.3,4-1.7,17.3,2.3,31s11,20,14.7,28.3"/>
	
		<path id="XMLID_87_" fill="none" stroke="#000000" stroke-width="6" stroke-linecap="round" stroke-linejoin="round" stroke-miterlimit="10" d="
		M1321.7,797.3c33.3-6.7,47.7,31,9,36.7"/>
	
		<path id="XMLID_86_" fill="none" stroke="#000000" stroke-width="6" stroke-linecap="round" stroke-linejoin="round" stroke-miterlimit="10" d="
		M1243.3,793.7c-4.3,14,15.3,43,10,63"/>
	
		<polyline id="XMLID_85_" fill="none" stroke="#000000" stroke-width="6" stroke-linecap="round" stroke-linejoin="round" stroke-miterlimit="10" points="
		1248.3,817 1255.5,808 1265.3,842.3 1254.3,837.8 	"/>
	
		<polyline id="XMLID_84_" fill="none" stroke="#000000" stroke-width="6" stroke-linecap="round" stroke-linejoin="round" stroke-miterlimit="10" points="
		1262,825 1296,815.8 1276,838.8 1271,823.8 	"/>
	
		<path id="XMLID_83_" fill="none" stroke="#000000" stroke-width="4" stroke-linecap="round" stroke-linejoin="round" stroke-miterlimit="10" d="
		M1231.8,796c16,44.5,2,50.8,11,62.3"/>
	
		<line id="XMLID_82_" fill="none" stroke="#000000" stroke-width="6" stroke-linecap="round" stroke-linejoin="round" stroke-miterlimit="10" x1="1344" y1="790" x2="1345" y2="783.7"/>
	
		<line id="XMLID_81_" fill="none" stroke="#000000" stroke-width="6" stroke-linecap="round" stroke-linejoin="round" stroke-miterlimit="10" x1="1357" y1="798.3" x2="1379" y2="784.7"/>
	
		<line id="XMLID_80_" fill="none" stroke="#000000" stroke-width="6" stroke-linecap="round" stroke-linejoin="round" stroke-miterlimit="10" x1="1363.3" y1="810" x2="1404" y2="803"/>
	
		<line id="XMLID_79_" fill="none" stroke="#000000" stroke-width="6" stroke-linecap="round" stroke-linejoin="round" stroke-miterlimit="10" x1="1365.7" y1="820.7" x2="1416.3" y2="824.3"/>
	
		<line id="XMLID_78_" fill="none" stroke="#000000" stroke-width="6" stroke-linecap="round" stroke-linejoin="round" stroke-miterlimit="10" x1="1357" y1="831" x2="1369" y2="836"/>
</g>
<g id="vs-h-reveal">
	
		<line id="XMLID_23_" fill="none" stroke="#5DBFD9" stroke-width="18" stroke-linecap="round" stroke-linejoin="round" stroke-miterlimit="10" stroke-opacity="0" x1="488" y1="312.5" x2="480" y2="534"/>
	
		<polyline id="XMLID_22_" fill="none" stroke="#5DBFD9" stroke-width="29" stroke-linecap="round" stroke-linejoin="round" stroke-miterlimit="10" stroke-opacity="0" points="
		492,360.5 544,360.5 547.5,383.5 499.5,382 	"/>
	
		<polyline id="XMLID_21_" fill="none" stroke="#5DBFD9" stroke-width="29" stroke-linecap="round" stroke-linejoin="round" stroke-miterlimit="10" stroke-opacity="0" points="
		496,461.5 556.5,459.5 560.5,476.5 494,479.5 	"/>
	
		<line id="XMLID_20_" fill="none" stroke="#5DBFD9" stroke-width="24" stroke-linecap="round" stroke-linejoin="round" stroke-miterlimit="10" stroke-opacity="0" x1="495" y1="264.5" x2="495.5" y2="300"/>
	
		<line id="XMLID_19_" fill="none" stroke="#5DBFD9" stroke-width="17" stroke-linecap="round" stroke-linejoin="round" stroke-miterlimit="10" stroke-opacity="0" x1="512" y1="240.5" x2="493" y2="258.5"/>
	
		<line id="XMLID_18_" fill="none" stroke="#5DBFD9" stroke-width="17" stroke-linecap="round" stroke-linejoin="round" stroke-miterlimit="10" stroke-opacity="0" x1="466.5" y1="499.5" x2="422" y2="500.5"/>
	
		<path id="XMLID_17_" fill="none" stroke="#5DBFD9" stroke-width="17" stroke-linecap="round" stroke-linejoin="round" stroke-miterlimit="10" stroke-opacity="0" d="
		M286.3,565.7c27.3,0.7,48.7-8.7,50.7-7.3c2,1.3,57.3,7.3,68.7,7.3c11.3,0,136-4.7,136-4.7l50,2.7l16-7.7l6.7,6.3
		c0,0,137.3,10,143.3,2s10.7-13.3,10.7-13.3s-34.7,16,86,15.3s147.3-2,147.3-2s22.7-10,29.3-8s36,10.7,36,10.7l-43.7,0.7
		c0,0,148.3-8.7,159.7-3.3c11.3,5.3,16.7,5.3,16.7,5.3"/>
	
		<path id="XMLID_16_" fill="none" stroke="#5DBFD9" stroke-width="13" stroke-linecap="round" stroke-linejoin="round" stroke-miterlimit="10" stroke-opacity="0" d="
		M949.7,609c-15.3,9.3-35.3,15.3-26.7,17.3s18.7-15,32-6.3c10.3,6.7,26.3,11,31.7,11.7"/>
	
		<path id="XMLID_15_" fill="none" stroke="#5DBFD9" stroke-width="13" stroke-linecap="round" stroke-linejoin="round" stroke-miterlimit="10" stroke-opacity="0" d="
		M635.5,618.5c-13.8,3.5-20.4,9.9-14.5,9.5c10.5-0.8,16.2-5.2,21-1.5c17,13.3,15.8,8.5,28.3,9"/>
	
		<path id="XMLID_14_" fill="none" stroke="#5DBFD9" stroke-width="13" stroke-linecap="round" stroke-linejoin="round" stroke-miterlimit="10" stroke-opacity="0" d="
		M496.5,750.5c30.5-14,38.5-44,77-37.5c0,0,0,28,42,44c0,0-30.5-13-49-31c-12.7-12.3-31-6-45,5"/>
	
		<path id="XMLID_13_" fill="none" stroke="#5DBFD9" stroke-width="13" stroke-linecap="round" stroke-linejoin="round" stroke-miterlimit="10" stroke-opacity="0" d="
		M195.5,863.5c4.5-7,14-36.5,61.5-35c0,0,7,55,100,58.5c0,0-69.5,3.5-82-19s-46-35.5-65.5-23c0,0,16-17,41-9.5"/>
	
		<path id="XMLID_12_" fill="none" stroke="#5DBFD9" stroke-width="13" stroke-linecap="round" stroke-linejoin="round" stroke-miterlimit="10" stroke-opacity="0" d="
		M376.1,957.1c78-40.5,209.7-33.5,264-58.5c72.9-33.6,96-120,151.5-153s156-79.5,222-91.5s132.8-44.5,130.4-57.1c-5-26-59-24-59-24"
		/>
	
		<line id="XMLID_11_" fill="none" stroke="#5DBFD9" stroke-width="13" stroke-linecap="round" stroke-linejoin="round" stroke-miterlimit="10" stroke-opacity="0" x1="1162.3" y1="877" x2="1453" y2="841"/>
	
		<polyline id="XMLID_10_" fill="none" stroke="#5DBFD9" stroke-width="13" stroke-linecap="round" stroke-linejoin="round" stroke-miterlimit="10" stroke-opacity="0" points="
		1363.7,532.3 1390.3,479.7 1399,493.7 1415.7,473 1457.7,515.7 1531.7,516.3 	"/>
	
		<line id="XMLID_9_" fill="none" stroke="#5DBFD9" stroke-width="13" stroke-linecap="round" stroke-linejoin="round" stroke-miterlimit="10" stroke-opacity="0" x1="1388.3" y1="529" x2="1425" y2="520.3"/>
	
		<line id="XMLID_8_" fill="none" stroke="#5DBFD9" stroke-width="13" stroke-linecap="round" stroke-linejoin="round" stroke-miterlimit="10" stroke-opacity="0" x1="1572" y1="489" x2="1661" y2="471"/>
	
		<polyline id="XMLID_7_" fill="none" stroke="#5DBFD9" stroke-width="13" stroke-linecap="round" stroke-linejoin="round" stroke-miterlimit="10" stroke-opacity="0" points="
		1582,374 1599,390 1627,362 1701,430 	"/>
	
		<line id="XMLID_5_" fill="none" stroke="#5DBFD9" stroke-width="13" stroke-linecap="round" stroke-linejoin="round" stroke-miterlimit="10" stroke-opacity="0" x1="1748" y1="434" x2="2041" y2="426.1"/>
</g>
</svg>
