<?xml version="1.0" encoding="utf-8"?>
<!-- Generator: Adobe Illustrator 22.1.0, SVG Export Plug-In . SVG Version: 6.00 Build 0)  -->
<svg version="1.1" id="Layer_1" xmlns="http://www.w3.org/2000/svg" xmlns:xlink="http://www.w3.org/1999/xlink" x="0px" y="0px"
	 width="1920px" height="1080px" viewBox="0 0 1920 1080" enable-background="new 0 0 1920 1080" xml:space="preserve">
<g id="vs-primary">
	<polygon fill="#9997A5" points="97.7,220.8 523.8,259.8 1264.8,268.8 1546.9,217.8 1804.9,220.8 1819.9,778.8 145.7,898.9 	"/>
</g>
<g id="vs-secondary">
	<polygon fill="#FF5648" points="1215,588 1330,582 1427,687 1494,725 1752,721 1810,748 1848,781 1844,804 1438,805 1375,786 
		1325,733 1204,600 	"/>
	<polygon fill="#FF5648" points="401,576 673,594 678,615 603,679 555,682 544,652 260,636 	"/>
</g>
<g id="vs-colour">
	<polygon fill="#D4D3E5" points="145.7,898.9 1343.1,914 1314.6,875 1217.5,719.6 1214.1,629 741.7,631 	"/>
	<polygon fill="#3ACE95" points="1447,481.3 1460.7,485.7 1465.3,511.3 1471,521.3 1469.7,562 1452.3,564.3 1440,550.7 1442,518.3 
		1448,507.7 	"/>
	<polygon fill="#3ACE95" points="1505.3,498.7 1517.3,497 1523.3,525 1530.3,538 1526.7,592.3 1507.7,596.7 1499.3,583 1499.7,527 
		1509,516 	"/>
	<path fill="#3ACE95" d="M1564,543.7l12.7,5.7l3.7,16.3l6,13.3l0.3,40.3c0,0-10.3,9.7-16.3,9.7s-12.7-14-12.7-14l-1.7-39l8-9.7
		V543.7z"/>
	<polygon fill="#3ACE95" points="1638.7,557.3 1657.3,560.7 1657.7,582 1670.3,596.3 1667.3,665.3 1640.7,667 1632,653 
		1630.7,590.7 1640.7,576.3 	"/>
	<polygon fill="#FF5648" points="239,321 406.5,324 410,452 241,490 	"/>
	<polygon fill="#3ACE95" points="240,341 260.5,356.5 284,323.5 239,321 	"/>
	<polygon fill="#3ACE95" points="305.5,390 335,344.5 373.5,371 346,423.5 	"/>
	<polygon fill="#3ACE95" points="315.5,325.5 335,344.5 347.5,327 401.5,328.5 377,373 407,392.5 405,418 379,452.5 410,445 
		406.5,324 	"/>
	<polygon fill="#3ACE95" points="261,361.5 302,393 268.5,441 315.5,472.5 346,423.5 379,452.5 241,490 265.5,447 262.5,437 
		237.5,424 239.5,388.5 	"/>
	<polygon fill="#FF9D00" points="161,663 203,639 544,652 559,707 601,708 608,791 528,903 145.7,898.9 136,659 	"/>
	<polygon fill="#FF9D00" points="507,476 535,460 742,467 743,626 662,707 559,702 555,682 596,682 678,615 676,582 496,578 	"/>
	<polygon fill="#FFCE00" points="161,663 509,670 529,649 203,639 	"/>
	<polygon fill="#FFCE00" points="507,476 707,484 730,464 535,460 	"/>
	<polygon fill="#FFCE00" points="496,578 507,476 711,476 708,578 673,594 646,586 	"/>
	<polygon fill="#9B5C31" points="1220.1,617.1 1217.1,726.6 1350.6,929.1 1400.1,966.6 1472.1,975.6 1836.5,968.1 1830,802.6 
		1409.1,803 1375,786 	"/>
	<polygon fill="#4A4A51" points="1374.6,596.1 1604.1,726.6 1664.1,714.6 1373.1,555.6 	"/>
	<polyline opacity="0.4" enable-background="new    " points="988,375 1109,387 1121.3,620 1133.3,617.3 1127.3,372.7 979.3,367.3 	
		"/>
	<path fill="#5DBFD9" d="M1049,402c49,0,62.5,78.5,9.5,80S1007.5,402,1049,402z"/>
	<polygon fill="#5DBFD9" points="1031.3,412.3 1083,479 1093.3,467.3 1035.7,408 	"/>
	<polygon fill="#5DBFD9" points="1029.7,473.3 1080,416 1077,411.3 1018.7,463.7 	"/>
	<polygon opacity="0.4" fill="#FFFFFF" enable-background="new    " points="523.8,259.8 1264.8,268.8 1274,364 1408,404 1397,537 
		1355.1,558.5 1353.6,608 1340.1,597.5 1325.1,585.5 1209.6,590 1214.1,629 747.6,630.5 740.5,468.5 530,456 	"/>
	<polygon opacity="0.4" enable-background="new    " points="235.3,332 382,344 405.3,474.7 410,452 406.5,324 239,321 	"/>
	<polygon opacity="0.4" fill="#FFFFFF" enable-background="new    " points="270,325 399,454 359,462 229,332 232,354 347.5,469.5 
		332,475 235,378 229,316 	"/>
	<polygon opacity="0.4" enable-background="new    " points="658,634 674,710 611.3,801.3 601,708 565.3,737.3 550.7,659.3 
		591.3,655.3 596,682 	"/>
	<polygon opacity="0.4" fill="#FFFFFF" enable-background="new    " points="1041.3,407.7 1093.5,459.8 1086.7,474 1028.2,415.5 	
		"/>
	<polygon opacity="0.4" fill="#FFFFFF" enable-background="new    " points="1020.7,426.7 1071.3,477.3 1064.3,479.7 1018.5,433.8 	
		"/>
	<polygon opacity="0.4" fill="#FFFFFF" enable-background="new    " points="390.7,586.7 623.3,600.7 588,648.7 602,648.7 
		658,598.7 668,628 680.7,610.7 676,582 401,576 382.7,586 	"/>
	<polygon opacity="0.4" fill="#FFFFFF" enable-background="new    " points="508,489.3 704,496.7 734.7,493.3 738,468 707,484 
		507,476 	"/>
	<path opacity="0.4" enable-background="new    " d="M1222,626c0,0,113,156,131,173s48,37,108,34s366-7,366-7l5-24l16-21
		c0,0-381,7-399,7s-57.7-10.3-78.3-26c-15.4-11.7-159.7-167-159.7-167L1222,626z"/>
	<path opacity="0.4" fill="#FFFFFF" enable-background="new    " d="M1433.3,963.3l1.3-156.7c0,0-10.8-4-11.1-8
		c-0.5-6,0.3-14.9,7.1-21.3c11.3-10.7,35,1.7,21.7,4.3c-12.2,2.4-13.5,4-14.3,19c-0.1,1.4,13.6,4.1,13.6,5.7l1.7,163.7L1433.3,963.3
		z"/>
	<path fill="#FF5648" d="M1442,518.3c0,0,10,7.7,17.3,7.7s10-1,10-1l-1.3,15l-13.7,1.7l-12.3-2.3V518.3z"/>
	<polygon fill="#BFBDC6" points="1499.7,539.7 1515.7,540 1527,539 1528,566.3 1515.3,566.3 1502,563 	"/>
	<path fill="#FFCE00" d="M1557,583.3c0,0,7,5.3,15.3,5.3s14.7-3.3,14.7-3.3l-1.7,16l-13.7,3l-12.3-1.3L1557,583.3z"/>
	<polygon fill="#27A8CB" points="1633.3,595.3 1656.7,600.7 1669.7,599.7 1666,615 1650.7,615.3 1632,612.7 	"/>
	<path opacity="0.4" fill="#FFFFFF" enable-background="new    " d="M1451.3,494.3c0,0,0.3,21,5,21s5.3,22.3,4.7,45l13.3-5.3
		l-2.7-42.3l-11.3-8.7v-21.3l-11-0.7L1451.3,494.3z"/>
	<path opacity="0.4" fill="#FFFFFF" enable-background="new    " d="M1508.3,500.7c0,0-0.3,25.3,4.7,25.7c5,0.3,6.7,14.3,6.7,14.3
		l-3,49.7l10.3-2.3l4-61.7l-12.7-10.7v-15.3v-5.7l-6-0.3L1508.3,500.7z"/>
	<path opacity="0.4" fill="#FFFFFF" enable-background="new    " d="M1567,548.3l-2.3,10.3l13.3-0.3c0,0-7.3,18.3-2.7,21.7
		c4.7,3.3,4,0.7,4,0.7l-1,42.7l5.7-1.3l4.7-44.3l-9.3-10l-0.7-21L1567,548.3z"/>
	<path opacity="0.4" fill="#FFFFFF" enable-background="new    " d="M1648.7,561.3c-6,11.7,0.7,24,0.7,24l9.3,9.3v72.7l8.7-2l1.3-77
		l-8.7-8.3l-1-16.7l-1.3-5.3L1648.7,561.3z"/>
</g>
<g id="vs-outline">
	
		<path id="XMLID_5_" fill="none" stroke="#000000" stroke-width="18" stroke-linecap="round" stroke-linejoin="round" stroke-miterlimit="10" d="
		M1834.5,970.6l-363.9,3.6c0,0-83.6,3.8-117-43.5c-33.6-47.8-136.1-211.1-136.1-211.1L1216,608l133.1,152.6
		c0,0,28.9,44.4,113.9,43.4c72-0.8,367-1.4,367-1.4L1834.5,970.6z"/>
	
		<path id="XMLID_8_" fill="none" stroke="#000000" stroke-width="18" stroke-linecap="round" stroke-linejoin="round" stroke-miterlimit="10" d="
		M1216,608c-9-10-9-23.5,6-22.5c6,0.4,92-2.5,92-2.5c13.5,0,16,6,16,6s74,75.8,86,87c30.7,28.7,69,50,137,48s209,0,209,0
		s67.7,36.3,79,47.7c11.3,11.3,11,34.3-11,30.9"/>
	
		<polygon id="XMLID_6_" fill="none" stroke="#000000" stroke-width="18" stroke-linecap="round" stroke-linejoin="round" stroke-miterlimit="10" points="
		1806,218 1810.5,429.1 1533.1,424.6 1269.1,366.1 1267.6,265.6 1539.1,220.6 	"/>
	
		<line id="XMLID_10_" fill="none" stroke="#000000" stroke-width="18" stroke-linecap="round" stroke-linejoin="round" stroke-miterlimit="10" x1="1532" y1="224" x2="1538" y2="419"/>
	
		<line id="XMLID_51_" fill="none" stroke="#000000" stroke-width="18" stroke-linecap="round" stroke-linejoin="round" stroke-miterlimit="10" x1="741.7" y1="631" x2="1210.6" y2="627.1"/>
	
		<polyline id="XMLID_50_" fill="none" stroke="#000000" stroke-width="18" stroke-linecap="round" stroke-linejoin="round" stroke-miterlimit="10" points="
		1267.6,265.6 525.1,258.1 531.3,462.3 	"/>
	
		<line id="XMLID_13_" fill="none" stroke="#000000" stroke-width="18" stroke-linecap="round" stroke-linejoin="round" stroke-miterlimit="10" x1="525.1" y1="258.1" x2="98.7" y2="215.8"/>
	
		<polyline id="XMLID_15_" fill="none" stroke="#000000" stroke-width="18" stroke-linecap="round" stroke-linejoin="round" stroke-miterlimit="10" points="
		1137,623 1130,368 981,366 984,619 	"/>
	
		<path id="XMLID_11_" fill="none" stroke="#000000" stroke-width="18" stroke-linecap="round" stroke-linejoin="round" stroke-miterlimit="10" d="
		M1054,400.5c54.3-0.4,57.5,88,3.5,88S990,401,1054,400.5z"/>
	
		<polygon id="XMLID_17_" fill="none" stroke="#000000" stroke-width="10" stroke-linecap="round" stroke-linejoin="round" stroke-miterlimit="10" points="
		1117.7,563.3 1090,565 1089.3,506.3 1116,507.3 	"/>
	
		<line id="XMLID_18_" fill="none" stroke="#000000" stroke-width="10" stroke-linecap="round" stroke-linejoin="round" stroke-miterlimit="10" x1="1079.3" y1="417.3" x2="1031" y2="474.7"/>
	
		<line id="XMLID_19_" fill="none" stroke="#000000" stroke-width="10" stroke-linecap="round" stroke-linejoin="round" stroke-miterlimit="10" x1="1030.3" y1="415.7" x2="1082" y2="476"/>
	
		<line id="XMLID_20_" fill="none" stroke="#000000" stroke-width="6.6171" stroke-linecap="round" stroke-linejoin="round" stroke-miterlimit="10" x1="1025" y1="343.6" x2="1024.9" y2="314.2"/>
	
		<line id="XMLID_21_" fill="none" stroke="#000000" stroke-width="6.6171" stroke-linecap="round" stroke-linejoin="round" stroke-miterlimit="10" x1="1034.1" y1="313.5" x2="1034.1" y2="343.5"/>
	
		<polyline id="XMLID_22_" fill="none" stroke="#000000" stroke-width="6.6171" stroke-linecap="round" stroke-linejoin="round" stroke-miterlimit="10" points="
		1016.3,321.8 1024,311.4 1035,311.3 1042.9,321.8 	"/>
	
		<polyline id="XMLID_16_" fill="none" stroke="#000000" stroke-width="6.6171" stroke-linecap="round" stroke-linejoin="round" stroke-miterlimit="10" points="
		1031.3,328.8 1027.3,328.7 1030,315.4 	"/>
	
		<path id="XMLID_23_" fill="none" stroke="#000000" stroke-width="6.6171" stroke-linecap="round" stroke-linejoin="round" stroke-miterlimit="10" d="
		M1029,296.9c4.2,0.1,4.7,6.3,0.4,6.8C1025.2,304.3,1025.2,296.8,1029,296.9z"/>
	
		<path id="XMLID_24_" fill="none" stroke="#000000" stroke-width="6.6171" stroke-linecap="round" stroke-linejoin="round" stroke-miterlimit="10" d="
		M1066.3,297.3c5.3-0.7,4.2,6.1,0.8,5.9C1063.3,303,1062.3,297.8,1066.3,297.3z"/>
	
		<polygon id="XMLID_25_" fill="none" stroke="#000000" stroke-width="6.6171" stroke-linecap="round" stroke-linejoin="round" stroke-miterlimit="10" points="
		1064.8,310.8 1071.4,310.8 1078.8,331.8 1059.7,331.9 	"/>
	
		<polyline id="XMLID_26_" fill="none" stroke="#000000" stroke-width="6.6171" stroke-linecap="round" stroke-linejoin="round" stroke-miterlimit="10" points="
		1065.7,343.5 1065,329 1067.7,315 1073.2,330.7 1073.7,344.2 	"/>
	
		<line id="XMLID_28_" fill="none" stroke="#000000" stroke-width="6.6171" stroke-linecap="round" stroke-linejoin="round" stroke-miterlimit="10" x1="1067" y1="327.8" x2="1071.8" y2="328.4"/>
	
		<path id="XMLID_27_" fill="none" stroke="#000000" stroke-width="18" stroke-linecap="round" stroke-linejoin="round" stroke-miterlimit="10" d="
		M1358,616.5c-5.5-25.5-18-61.5,2.5-63.5s15.5,51,6,67.5"/>
	
		<polyline id="XMLID_29_" fill="none" stroke="#000000" stroke-width="15" stroke-linecap="round" stroke-linejoin="round" stroke-miterlimit="10" points="
		1744,722 1397,542 1363,546 1683,721 	"/>
	
		<line id="XMLID_30_" fill="none" stroke="#000000" stroke-width="18" stroke-linecap="round" stroke-linejoin="round" stroke-miterlimit="10" x1="1398" y1="400" x2="1397" y2="537"/>
	
		<polygon id="XMLID_46_" fill="none" stroke="#000000" stroke-width="18" stroke-linecap="round" stroke-linejoin="round" stroke-miterlimit="10" points="
		150.1,903.1 139.6,661.6 516.1,666.1 545.7,645 560.8,744 604.3,703 607.6,793.6 525,907 	"/>
	
		<polyline id="XMLID_47_" fill="none" stroke="#000000" stroke-width="18" stroke-linecap="round" stroke-linejoin="round" stroke-miterlimit="10" points="
		545.7,645 202,638 139.6,661.6 	"/>
	
		<line id="XMLID_48_" fill="none" stroke="#000000" stroke-width="11" stroke-linecap="round" stroke-linejoin="round" stroke-miterlimit="10" x1="516.1" y1="666.1" x2="525" y2="907"/>
	
		<polyline id="XMLID_49_" fill="none" stroke="#000000" stroke-width="18" stroke-linecap="round" stroke-linejoin="round" stroke-miterlimit="10" points="
		558.3,679 599,679 678,610 676,585 595,653 553,654 	"/>
	
		<polyline id="XMLID_14_" fill="none" stroke="#000000" stroke-width="18" stroke-linecap="round" stroke-linejoin="round" stroke-miterlimit="10" points="
		259,634 398,580 676,585 	"/>
	
		<line id="XMLID_52_" fill="none" stroke="#000000" stroke-width="8" stroke-linecap="round" stroke-linejoin="round" stroke-miterlimit="10" x1="595" y1="653" x2="596.3" y2="674.3"/>
	
		<line id="XMLID_53_" fill="none" stroke="#000000" stroke-width="18" stroke-linecap="round" stroke-linejoin="round" stroke-miterlimit="10" x1="604.3" y1="703" x2="557" y2="703"/>
	
		<polyline id="XMLID_54_" fill="none" stroke="#000000" stroke-width="18" stroke-linecap="round" stroke-linejoin="round" stroke-miterlimit="10" points="
		660.3,630.3 665,706.3 602.3,707 	"/>
	
		<polyline id="XMLID_55_" fill="none" stroke="#000000" stroke-width="18" stroke-linecap="round" stroke-linejoin="round" stroke-miterlimit="10" points="
		671,701 745,626.3 741,467 531.5,461.5 505,475.5 498.3,577 	"/>
	
		<polyline id="XMLID_56_" fill="none" stroke="#000000" stroke-width="18" stroke-linecap="round" stroke-linejoin="round" stroke-miterlimit="10" points="
		740.5,468.5 708.7,486.3 709.7,579 681.7,596.3 	"/>
	
		<line id="XMLID_57_" fill="none" stroke="#000000" stroke-width="8" stroke-linecap="round" stroke-linejoin="round" stroke-miterlimit="10" x1="707.5" y1="484.5" x2="504.5" y2="480.5"/>
	
		<polygon id="XMLID_12_" fill="none" stroke="#000000" stroke-width="18" stroke-linecap="round" stroke-linejoin="round" stroke-miterlimit="10" points="
		409,323 411,475 239,530 233,320 	"/>
	
		<line id="XMLID_59_" fill="none" stroke="#000000" stroke-width="18" stroke-linecap="round" stroke-linejoin="round" stroke-miterlimit="10" x1="238.5" y1="496" x2="405" y2="451.5"/>
	
		<line id="XMLID_60_" fill="none" stroke="#000000" stroke-width="9" stroke-linecap="round" stroke-linejoin="round" stroke-miterlimit="10" x1="283.5" y1="326" x2="235" y2="397"/>
	
		<line id="XMLID_61_" fill="none" stroke="#000000" stroke-width="9" stroke-linecap="round" stroke-linejoin="round" stroke-miterlimit="10" x1="239.5" y1="488.5" x2="345.5" y2="326.5"/>
	
		<line id="XMLID_62_" fill="none" stroke="#000000" stroke-width="9" stroke-linecap="round" stroke-linejoin="round" stroke-miterlimit="10" x1="398.5" y1="336" x2="316" y2="470.5"/>
	
		<line id="XMLID_63_" fill="none" stroke="#000000" stroke-width="9" stroke-linecap="round" stroke-linejoin="round" stroke-miterlimit="10" x1="376.5" y1="454.5" x2="405.5" y2="409.5"/>
	
		<line id="XMLID_64_" fill="none" stroke="#000000" stroke-width="9" stroke-linecap="round" stroke-linejoin="round" stroke-miterlimit="10" x1="238.5" y1="419.5" x2="316" y2="474"/>
	
		<line id="XMLID_65_" fill="none" stroke="#000000" stroke-width="9" stroke-linecap="round" stroke-linejoin="round" stroke-miterlimit="10" x1="237" y1="340.5" x2="386" y2="455.5"/>
	
		<line id="XMLID_66_" fill="none" stroke="#000000" stroke-width="9" stroke-linecap="round" stroke-linejoin="round" stroke-miterlimit="10" x1="306" y1="322" x2="409.5" y2="395.5"/>
	
		<line id="XMLID_67_" fill="none" stroke="#000000" stroke-width="10.1085" stroke-linecap="round" stroke-linejoin="round" stroke-miterlimit="10" x1="1810.5" y1="429.1" x2="1815" y2="749"/>
	
		<path id="XMLID_31_" fill="none" stroke="#000000" stroke-width="10.1085" stroke-linecap="round" stroke-linejoin="round" stroke-miterlimit="10" d="
		M1441.5,554.4c0,0-1.3-23.9-1.3-33s8.4-9.4,8.1-18.2s-1.7-20.9-1.7-20.9l14.8,1c0,0-0.9,12,0.1,19.4s11.7,10.6,11,17
		s-1,38.4-1,38.4s-5.3,7.2-16.8,5.9s-14.2-10.9-14.2-10.9"/>
	
		<path id="XMLID_32_" fill="none" stroke="#000000" stroke-width="5" stroke-linecap="round" stroke-linejoin="round" stroke-miterlimit="10" d="
		M1442.3,520.3c-0.3,3,23,8.3,27.8,3"/>
	
		<path id="XMLID_33_" fill="none" stroke="#000000" stroke-width="5" stroke-linecap="round" stroke-linejoin="round" stroke-miterlimit="10" d="
		M1469,539c-3.8,3.8-19,3.8-25.5,0"/>
	
		<path id="XMLID_35_" fill="none" stroke="#000000" stroke-width="10.1085" stroke-linecap="round" stroke-linejoin="round" stroke-miterlimit="10" d="
		M1499.5,584.4c0,0-1.1-40.7-1.1-49.8s8.4-9.4,8.1-18.2s-1.7-20.9-1.7-20.9l14.9-2.1c0,0-1,15.1,0,22.5c1,7.4,11,8.2,11,17
		c0,6.4-1.2,55.1-1.2,55.1s-5.3,7.2-16.8,5.9s-14.2-10.9-14.2-10.9"/>
	
		<path id="XMLID_34_" fill="none" stroke="#000000" stroke-width="5" stroke-linecap="round" stroke-linejoin="round" stroke-miterlimit="10" d="
		M1500,538c-0.3,3,23.8,4.2,28.5-1"/>
	
		<path id="XMLID_9_" fill="none" stroke="#000000" stroke-width="5" stroke-linecap="round" stroke-linejoin="round" stroke-miterlimit="10" d="
		M1526.5,565.3c-3.8,3.8-19.3,0.3-25.8-3.5"/>
	
		<path id="XMLID_38_" fill="none" stroke="#000000" stroke-width="10.1085" stroke-linecap="round" stroke-linejoin="round" stroke-miterlimit="10" d="
		M1557.2,616.8c0,0-1.3-23.9-1.3-33s8.4-9.4,8.1-18.2s0.8-20.8,0.8-20.8l14.8,1c0,0-1,12.6,0,20s9.4,9.9,8.7,16.3
		c-0.7,6.4-1,38.4-1,38.4s-5.3,7.2-16.8,5.9s-14.2-10.9-14.2-10.9"/>
	
		<path id="XMLID_37_" fill="none" stroke="#000000" stroke-width="5" stroke-linecap="round" stroke-linejoin="round" stroke-miterlimit="10" d="
		M1558,584.8c-0.3,3,22.9,6.1,27.7,0.8"/>
	
		<path id="XMLID_36_" fill="none" stroke="#000000" stroke-width="5" stroke-linecap="round" stroke-linejoin="round" stroke-miterlimit="10" d="
		M1584.7,601.3c-3.8,3.8-19,3.8-25.5,0"/>
	
		<path id="XMLID_41_" fill="none" stroke="#000000" stroke-width="10.1085" stroke-linecap="round" stroke-linejoin="round" stroke-miterlimit="10" d="
		M1632,658c0,0-2.3-54.4-2.3-63.5s8.4-9.4,8.1-18.2s-1.7-20.9-1.7-20.9l22.3,3.2c0,0-0.9,12,0.1,19.4s11.7,10.6,11,17s0,68.9,0,68.9
		s-5.3,7.2-16.8,5.9s-21.7-13.1-21.7-13.1"/>
	
		<path id="XMLID_40_" fill="none" stroke="#000000" stroke-width="5" stroke-linecap="round" stroke-linejoin="round" stroke-miterlimit="10" d="
		M1631.7,593.3c-0.3,3,30.5,10.5,35.3,5.2"/>
	
		<path id="XMLID_39_" fill="none" stroke="#000000" stroke-width="5" stroke-linecap="round" stroke-linejoin="round" stroke-miterlimit="10" d="
		M1666,614.3c-3.8,3.8-26.5,1.5-33-2.2"/>
	
		<path id="XMLID_42_" fill="none" stroke="#000000" stroke-width="6.1706" stroke-linecap="round" stroke-linejoin="round" stroke-miterlimit="10" d="
		M1712.2,624.3c39.1,1,28.6,14-0.2,14.6C1686.7,639.5,1678.9,623.5,1712.2,624.3z"/>
	
		<polyline id="XMLID_43_" fill="none" stroke="#000000" stroke-width="6.1706" stroke-linecap="round" stroke-linejoin="round" stroke-miterlimit="10" points="
		1691.2,633.2 1713.2,658.1 1736.7,633.2 	"/>
	
		<line id="XMLID_45_" fill="none" stroke="#000000" stroke-width="6.1706" stroke-linecap="round" stroke-linejoin="round" stroke-miterlimit="10" x1="1713.2" y1="658.1" x2="1713.6" y2="684.2"/>
	
		<path id="XMLID_44_" fill="none" stroke="#000000" stroke-width="6.1706" stroke-linecap="round" stroke-linejoin="round" stroke-miterlimit="10" d="
		M1713.6,678.4c17.3,0.2,26.1,14.4,2.1,14.4S1695.1,678.2,1713.6,678.4z"/>
	
		<path id="XMLID_70_" fill="none" stroke="#000000" stroke-width="6.1706" stroke-linecap="round" stroke-linejoin="round" stroke-miterlimit="10" d="
		M1415.6,701.6c39.1,1,28.6,14-0.2,14.6C1390.1,716.7,1382.2,700.7,1415.6,701.6z"/>
	
		<polyline id="XMLID_69_" fill="none" stroke="#000000" stroke-width="6.1706" stroke-linecap="round" stroke-linejoin="round" stroke-miterlimit="10" points="
		1394.6,710.4 1416.6,735.3 1440,710.4 	"/>
	
		<line id="XMLID_68_" fill="none" stroke="#000000" stroke-width="6.1706" stroke-linecap="round" stroke-linejoin="round" stroke-miterlimit="10" x1="1416.6" y1="735.3" x2="1417" y2="761.4"/>
	
		<path id="XMLID_58_" fill="none" stroke="#000000" stroke-width="6.1706" stroke-linecap="round" stroke-linejoin="round" stroke-miterlimit="10" d="
		M1417,755.7c17.3,0.2,26.1,14.4,2.1,14.4S1398.5,755.5,1417,755.7z"/>
</g>
<g id="vs-reveal">
	
		<path fill="none" stroke="#FFFFFF" stroke-width="76" stroke-linecap="round" stroke-linejoin="round" stroke-miterlimit="10" stroke-opacity="0" d="
		M119.1,239.1c0,22.5,67.5-7.5,102-7.5s-103.5,15-103.5,72s154.5-76.5,186-69s-189,115.5-187.5,153s216-148.5,270-135
		c54,13.5-264,190.5-264,231s313.5-226.5,337.5-223.5s-343.5,249-343.5,301.5c0,27,393-324,423-310.5c30,13.5-438.7,358.2-430.5,426
		c7.5,61.5,475.5-423,531-423s-519,466.5-517.5,523.5c0.8,30,544.5-528,616.5-520.5c72,7.5-591,544.5-591,592.5s663-594,705-592.5
		c42,1.5-754.5,649.5-651,652.5c30,0.9,696-660,747-658.5s-724.5,649.5-649.5,660c120.5,16.9,667.5-643.5,742.5-643.5
		s-690,648-582,652.5s664.9-701.1,721.5-694.5c90,10.5-643.5,697.5-576,708s631.5-696,675-685.5c43.5,10.5-590.8,680.2-532.5,685.5
		c117,10.5,583.5-693,627-682.5c43.5,10.5-518.6,667.5-474,673.5c90,12,506.9-715.5,607.5-715.5c94.5,0-528.9,717-478.5,724.5
		c91.5,13.5,541.5-718.5,589.5-718.5c84,0-549,706.5-457.5,735s520.5-778.5,576-759s-506.7,714.2-438,745.5
		c66,30,481.5-735,511.5-706.5s-465,724.5-420,744c85.1,36.9,408-621,427.5-597s-371.8,607.7-312,603c76.5-6,313.5-544.5,325.5-456
		c2.9,21.4-246,466.5-204,466.5s186-358.5,204-292.5c10.2,37.3-143.2,266.2-99,274.5c120,22.5,97.5-186,97.5-186"/>
</g>
</svg>
