<?xml version="1.0" encoding="utf-8"?>
<!-- Generator: Adobe Illustrator 22.1.0, SVG Export Plug-In . SVG Version: 6.00 Build 0)  -->
<svg version="1.1" xmlns="http://www.w3.org/2000/svg" xmlns:xlink="http://www.w3.org/1999/xlink" x="0px" y="0px" width="1901px"
	 height="841.9px" viewBox="0 0 1901 841.9" enable-background="new 0 0 1901 841.9" xml:space="preserve">
<g id="vs-highlight">
	<g>
		<path fill="#5DBFD9" d="M208.1,360.6c1.9,0,3.8-0.6,5.4-2c13-10.9,18.7-43,19.6-67.2c0.2-4.7-3.5-8.6-8.2-8.8
			c-4.7-0.2-8.6,3.5-8.8,8.2c-1,27.8-7.8,50-13.4,54.8c-3.6,3-4.1,8.4-1.1,12C203.2,359.6,205.6,360.6,208.1,360.6z"/>
		<path fill="#5DBFD9" d="M217.7,436.7c-4.4,5.4-7.4,13.2-10.2,22.7c-1.3,4.5,1.2,9.2,5.7,10.6c4.5,1.3,9.2-1.2,10.6-5.7
			c4.5-15.3,7.7-17.8,8.9-18.2c0.3-0.1,3.1-0.8,11.1,5.3c11.2,8.5,31.7,16,53.4,19.6c7.6,1.3,15.1,2,22.5,2.3c0,0.1,0,0.2,0,0.2
			c2,14.8,8.1,60,5.7,69.5c-4.4,16.5-8.8,21.4-9.4,22c-3.6,2.5-4.6,7.4-2.3,11.3c1.6,2.7,4.4,4.1,7.3,4.1c1.5,0,3-0.4,4.3-1.2
			c2.9-1.7,10.3-8.3,16.6-31.9c2.7-10.4,0-37.2-5-74.3c10.9-0.8,21.2-2.7,30.3-5.8c28.1-9.7,48-25.5,58.3-39.2
			c4.3,11.1,10.7,22.3,20.6,31c10.7,9.5,23.9,14.6,39.2,15.4c-2.5,23.6-8.9,77.1-26.7,97.2c-3.1,3.5-2.8,8.9,0.7,12
			c1.6,1.4,3.6,2.1,5.6,2.1c2.4,0,4.7-1,6.4-2.9c22.2-25,28.2-81.9,31.2-109.5c3.8-1.3,6.2-5,5.7-9.1c-0.4-2.9-2.1-5.2-4.5-6.5
			c-0.5-1.6-1.5-3-3-4.1c-3.8-2.8-9.1-2-11.9,1.8c-0.5,0.6-0.8,1.2-1.1,2c-12.1-0.3-22.3-4-30.4-11.1
			c-18.6-16.3-22.2-46.3-22.9-56.9c0.5-0.1,1.1-0.3,1.6-0.6c1.5-0.7,2.7-1.3,9.9-9.9c4.2-5.1,8.9-11,13.2-16.8
			c19.7-26.5,19.7-33.3,19.7-36.2c0-4.7-3.8-8.5-8.5-8.5c-4.6,0-8.4,3.7-8.5,8.3c-1.5,8.1-28.4,43-34.4,48.6
			c-1.1,0.8-1.9,1.8-2.5,2.9c-4.3,0.4-7.6,4.1-7.6,8.5c0,0,0,0,0,0c0,0.1,0,14.8-0.7,23.6c-0.6,4.9-16.4,28.6-55,41.9
			c-8.9,3.1-18.8,4.7-28.8,5.2c-1.5-1.4-3.6-2.3-5.8-2.3c-2.3,0-4.4,0.9-5.9,2.4c-27.7-0.9-54.8-9.4-66.9-18.6
			c-5.3-4-12.8-8.9-20.9-8.8c8.5-23.2,25.5-41.4,50.7-54c24-12,48.6-15.4,58-16.3c4.7-0.4,8.1-4.6,7.6-9.3s-4.6-8.1-9.3-7.6
			c-10.4,1-37.4,4.8-64,18c-31,15.5-51.5,38.5-60.8,68.4C214.5,431.2,215.4,434.5,217.7,436.7z"/>
		<path fill="#5DBFD9" d="M176.1,434.2c0-0.6,0-1.2-0.1-1.8l8-41.8c0.8-4.3-1.7-8.5-5.9-9.7c-13.2-4-33.1-32.8-42.5-49.9
			c-2.3-4.1-7.4-5.6-11.5-3.4c-4.1,2.3-5.6,7.4-3.4,11.5c2.5,4.5,22.1,39.5,43,53.4c0,0.1-0.1,0.1-0.1,0.2
			c-9.6,27.4-19.9,29.9-37,34.1l-2,0.5c-1.5,0.4-2.8,1.1-3.8,2.1c-2.1-1.1-4.1-2.6-5.9-4.6c-9.5-10.4-1.1-39.6,6.4-55.6
			c1.7-3.6,0.7-7.8-2.4-10.3c-14.1-11.2-48.6-47-39.7-76.9c1.3-4.5-1.2-9.2-5.7-10.6c-4.5-1.3-9.2,1.2-10.6,5.7
			c-11.7,39.3,26.2,78,40.4,90.8c-5.9,14.6-17.8,50.1-1,68.4c7.9,8.6,18.5,13.1,30.8,13.1c3.1,0,6.3-0.3,9.6-0.8
			c6.4-1.1,12-3.1,15.8-4.6c-1.7,31.8-6.9,125.6-10.7,149.9c-4.3,28.2-15.8,51.2-15.9,51.5c-2.1,4.2-0.4,9.3,3.8,11.4
			c1.2,0.6,2.5,0.9,3.8,0.9c3.1,0,6.1-1.7,7.6-4.7c0.5-1,12.8-25.6,17.5-56.5C169.3,566.3,175.8,439.6,176.1,434.2z"/>
		<path fill="#5DBFD9" d="M264.8,188.2c26.2-3.9,45.6,5.6,57.3,14.2c14.5,10.8,22.6,24.1,24.6,30.5c0.8,2.8,3,5,5.8,5.8
			c2.8,0.8,5.7,0.2,7.8-1.8c1.6-1.3,25.4-18.9,72.4,7c1.2,2.8,3.9,4.8,7.1,5.1c0.2,0,0.4,0,0.7,0c0.3,0,0.5,0,0.8,0
			c0.3,0.2,0.6,0.4,1,0.6c1.4,0.9,3,1.3,4.6,1.3c2.8,0,5.6-1.4,7.2-3.9c2.5-4,1.4-9.2-2.6-11.7c-0.6-0.4-1.2-0.7-1.8-1.1
			c3.6-34.9,13.8-74.4,18.5-89c1.4-4.5-1-9.3-5.5-10.7c-4.5-1.4-9.3,1-10.7,5.5c-4.6,14.2-14.1,50.9-18.4,85.3
			c-36.9-18-62.1-12.5-74.8-6.8c-5.2-9.5-14.3-20.6-26.5-29.7c-14.3-10.6-38-22.2-70-17.4c-4.6,0.7-7.8,5-7.1,9.7
			C255.9,185.7,260.2,188.9,264.8,188.2z"/>
		<path fill="#5DBFD9" d="M600,717.7l-6.2-1.1c1.1-2.5,1-5.4-0.3-7.8l-6-10.5c-1.3-2.3-3.6-3.8-6.1-4.2l-96.6-14.1
			c10.5-5.7,27.6-13.5,37.3-15c3.3-0.5,5.5-3.6,5-6.9c-0.5-3.3-3.6-5.5-6.9-5c-14.9,2.4-46.5,17.6-52.9,24.3l-12.3-1.8
			c-1.1-0.2-2.2-0.1-3.3,0.2l-40,10c-3.9,1-6.6,4.5-6.4,8.6c0,0.5,0.1,1,0.2,1.6c-30.5,7.8-77.1,17.5-119.5,26.3
			c-80.2,16.7-102.7,21.8-108.2,26.2c-1.6,1.3-3.8,2.4-5.8,3.3c-3.4,1.6-9.6,4.6-8.8,11.5c0.8,6.9,8,9,12.7,10.3
			c4.6,1.3,11.6,3,24.1,5.7c34.8,7.7,150.2,12.5,218.2,12.5c23,0,40.6-0.6,47.8-1.8c34.9-5.9,86.9-30.8,108.6-58.4
			c0.3-0.4,0.5-0.7,0.7-1.1l22.1,3.8c0.5,0.1,1,0.1,1.5,0.1c4.1,0,7.6-2.9,8.4-7.1C607.7,722.9,604.6,718.5,600,717.7z M462.9,773.4
			c-26,4.3-214.8-0.8-259.5-10.6c-2.7-0.6-6.7-1.5-10.9-2.4c15.1-4.5,58.1-13.5,96.7-21.5c54.7-11.4,116.2-24.1,143.1-32.9
			l123.2,21.3C535.5,747.4,494.7,768,462.9,773.4z"/>
		<path fill="#5DBFD9" d="M714.8,631.6c-41.5-2.1-84.9-2.3-103.1-0.5c-3.3,0.3-5.7,3.3-5.4,6.6c0.3,3.3,3.3,5.7,6.6,5.4
			c17.4-1.7,59.3-1.5,99.8,0.5c43,2.1,65.4,5.2,75.2,7.5c-6.7,3.1-21.5,8.5-54.1,16.9c-27.5,7.1-54.1,12.7-54.4,12.8
			c-3.2,0.7-5.3,3.9-4.6,7.1c0.6,2.8,3.1,4.8,5.9,4.8c0.4,0,0.8,0,1.3-0.1c0.3-0.1,29.8-6.4,59.1-14c17.3-4.5,31.1-8.6,41-12.2
			c16.4-5.9,22.4-10,22.6-15.9c0.1-2.2-0.8-4.4-2.6-6C799.7,642.1,792.7,635.5,714.8,631.6z"/>
		<path fill="#5DBFD9" d="M541.1,472.6c7.8,0,17.3-0.4,26.9-1.7c2.6,8.7,9.2,17,18.6,23.3c14.5,9.7,32.6,13,49.9,9.2
			c17.3-3.9,30-9.3,39-16.6c5.7-4.7,9.9-10.1,12.5-16.3c1.9,24.1,1.6,52.1-4.4,60.2c-2.8,3.8-2,9.1,1.8,11.9
			c1.5,1.1,3.3,1.7,5.1,1.7c2.6,0,5.2-1.2,6.8-3.4c14.3-19.3,7.4-77.8,5.9-89.4c-0.5-3.8-3.5-6.8-7.4-7.3l-12-1.5
			c-2.5-0.3-5,0.5-6.9,2.2c-1.8,1.7-2.8,4.2-2.7,6.7c0.7,11.9-3.4,26.7-41.4,35.2c-12.5,2.8-26.2,0.3-36.7-6.7
			c-5.4-3.6-9.4-8.1-11.2-12.4c18.3-4.9,34.3-14.2,38-31.8c6-28.4-1.4-111.4-13.7-153.2c-1.3-4.5-6.1-7.1-10.6-5.8
			c-4.5,1.3-7.1,6-5.8,10.6c12.4,42,18.4,120.9,13.3,144.8c-1.7,8.1-9.7,14.3-23.7,18.3c-14,4.1-30.3,4.9-41.5,4.9
			c-4.7,0-8.5,3.8-8.5,8.5S536.4,472.6,541.1,472.6z"/>
		<path fill="#5DBFD9" d="M687.6,438.1c8.6,3.2,17.5,4.8,26.3,4.8c7.5,0,15-1.1,22.2-3.4c18.7-5.9,35.9-19,51.2-39.1
			c2.8-3.7,2.1-9.1-1.6-11.9c-3.7-2.8-9.1-2.1-11.9,1.6c-11.1,14.6-32.1,35.9-59.9,35.9c-6.4,0-13.2-1.1-20.4-3.8
			c-22-8.1-35.9-26.8-35.4-35.5c0.3-4.7-3.3-8.7-8-9c-4.7-0.3-8.7,3.3-9,8C640,404.4,661.4,428.4,687.6,438.1z"/>
		<path fill="#5DBFD9" d="M850.2,472.2c-12.8,2.1-24.1-1.3-31.8-9.6c-8.9-9.6-11.9-24.9-8-40.8c0.7-2.7-1-5.4-3.7-6.1
			c-2.7-0.7-5.4,1-6.1,3.7c-4.7,19.2-0.8,37.9,10.4,50c8.1,8.8,19.2,13.4,31.7,13.4c2.9,0,6-0.3,9.1-0.8c2.7-0.5,4.6-3,4.1-5.8
			C855.5,473.5,853,471.7,850.2,472.2z"/>
		<path fill="#5DBFD9" d="M779.8,608.1l-47-1.7c-0.8,0-1.6,0.1-2.3,0.5l-13.2,6.2c-2.1,1-3.2,3.2-2.8,5.5s2.4,3.9,4.7,4l40.7,1.8
			c0.1,0,0.1,0,0.2,0c0.5,0,1-0.1,1.5-0.2l19.5-6.3c2.3-0.7,3.7-3,3.4-5.4C784.2,610,782.2,608.2,779.8,608.1z"/>
		<path fill="#5DBFD9" d="M1076.3,344.3l0.8,32.5c0.1,3.8,3.2,6.8,7,6.8c0.1,0,0.1,0,0.2,0c3.9-0.1,6.9-3.3,6.8-7.2l-1-39.5
			c0-1.9-0.8-3.6-2.2-4.9s-3.1-1.9-5-1.9l-29.4,0.8c0-0.2,0.1-0.5,0.1-0.7l4-54.5h75.5c3.9,0,7-3.1,7-7s-3.1-7-7-7h-82
			c-3.7,0-6.7,2.8-7,6.5l-4.5,61c-0.1,0.7,0,1.4,0.2,2.1l-14.5,0.4c0.1-0.4,0.2-0.9,0.3-1.4l9-104.5c0.2-1.9-0.5-3.9-1.8-5.3
			c-1.3-1.4-3.2-2.3-5.1-2.3l-71.5-0.5c-3.9,0-7,3.1-7,7c0,3.9,3.1,7,7,7l63.9,0.4l-8.4,97c-0.1,1,0.1,2,0.4,2.9l-65.1,1.7
			c-1.1,0-2.1,0.3-3,0.8l0.1-34.7c0-2.7-2.1-4.9-4.7-5l-119.5-6.5c-1.3-0.1-2.7,0.4-3.6,1.3s-1.6,2.2-1.6,3.5l-2.7,80.7
			c-0.1,2.8,2.1,5.1,4.8,5.2c2.8,0.1,5.1-2.1,5.2-4.8l2.5-75.6l109.7,6l-0.5,114.2c0,2.8,2.2,5,5,5c0,0,0,0,0,0c2.8,0,5-2.2,5-5
			l0.3-71.8c1,0.5,2.2,0.8,3.4,0.8L1076.3,344.3z"/>
		<path fill="#5DBFD9" d="M718.8,316.7c17-2.3,30.3,4.7,38.5,10.9c11.5,8.7,17.3,19.2,18.8,25.6c1,4.1,4.7,6.9,8.7,6.9
			c0.7,0,1.4-0.1,2.1-0.2c4.8-1.2,7.8-6,6.7-10.8c-5.8-24.5-38-55.4-77.2-50.1c-4.9,0.7-8.4,5.2-7.7,10.1
			C709.3,313.9,713.8,317.4,718.8,316.7z"/>
		<path fill="#5DBFD9" d="M1178.2,446.5l-19.5-56.5c-1.2-3.4-4.9-5.2-8.3-4c-3.4,1.2-5.2,4.9-4,8.3l18.1,52.3l-29,24.7l-72.4,5.3
			c-3.6,0.3-6.3,3.4-6,7c0.3,3.4,3.1,6,6.5,6c0.2,0,0.3,0,0.5,0l74.5-5.5c1.4-0.1,2.7-0.6,3.7-1.5l34-29
			C1178.3,451.8,1179.1,449,1178.2,446.5z"/>
		<path fill="#5DBFD9" d="M1205.5,569.3l-40.3-9c-4.8-1.1-9.7,2-10.7,6.8c-1.1,4.9,2,9.7,6.8,10.7l40.3,9c0.7,0.1,1.3,0.2,2,0.2
			c4.1,0,7.8-2.8,8.8-7C1213.4,575.2,1210.4,570.4,1205.5,569.3z"/>
		<path fill="#5DBFD9" d="M1157.3,493.7c1.2,3.8,4.7,6.4,8.6,6.4c0.1,0,0.3,0,0.4,0l36.4-1.7c4.3-0.2,7.8-3.4,8.5-7.6l5.3-33.3
			c0.8-4.9-2.6-9.5-7.5-10.3c-4.9-0.8-9.5,2.6-10.3,7.5l-1,6.4l-36.5,22.4C1157.7,485.6,1156.1,489.8,1157.3,493.7z"/>
		<path fill="#5DBFD9" d="M1346,434.5c13.3,26.2,46.9,32.3,54.4,33.4c-0.3,8.8-0.9,17.6-1.9,26.2c-0.3,2.5,1.5,4.7,4,5
			c0.2,0,0.3,0,0.5,0c2.3,0,4.2-1.7,4.5-4c3.8-34.3,1.9-66.5-0.4-87.4c-2.9-26-7.9-49.6-13.8-64.7c-0.9-2.3-3.5-3.4-5.8-2.5
			c-2.3,0.9-3.5,3.5-2.5,5.8c8.9,22.5,15.8,65.1,15.8,108.5c-7.8-1.3-31.4-6.7-41.8-23.8c14.2-5.4,23.5-14.6,26.9-27.1
			c4.8-17.5,4-32.6-2.5-45c-6.2-11.8-17.5-20.6-32.8-25.4c-3.4-1.1-7.1,0.8-8.2,4.2c-1.1,3.4,0.8,7.1,4.2,8.2
			c25.2,7.9,34.4,26.8,26.7,54.6c-7.4,26.8-54.7,22.8-55.1,22.8c-2-0.2-4,0.6-5.4,2.1c-1.4,1.5-2,3.6-1.6,5.6
			c2,10.3-0.2,20.6-29.4,26.4c-3.5,0.7-5.8,4.1-5.1,7.6c0.6,3.1,3.3,5.2,6.4,5.2c0.4,0,0.9,0,1.3-0.1c10.3-2.1,39.9-8,40.3-33.6
			C1330.1,436.4,1337.9,436,1346,434.5z"/>
		<path fill="#5DBFD9" d="M1548.1,390.3c-6.9-18-16.4-28.9-21.9-34.2c6.9-13.8,24.1-53.4,3.5-74.5c-2.5-2.6-6.6-2.6-9.2-0.1
			s-2.6,6.6-0.1,9.2c14.8,15.1-0.8,51.1-8,63.7c-1.7,2.9-0.8,6.6,1.8,8.5c0.1,0.1,13.1,9.7,21.7,32.1c7.7,20.1,1.2,25.6-19,38.7
			c-17.2,11.2-53.5,10.6-69.8-6.1c-0.9-1-2.1-1.6-3.3-1.8c4-17.4,9.9-31.6,13.1-39.3l0.7-1.7c1-2.3-0.1-4.9-2.4-5.9
			c-2.3-0.9-4.9,0.1-5.9,2.4l-0.7,1.7c-6.4,15.5-23.5,56.6-16.1,98.9c0.4,2.2,2.3,3.7,4.4,3.7c0.3,0,0.5,0,0.8-0.1
			c2.4-0.4,4.1-2.8,3.6-5.2c-2.5-13.9-2-27.8-0.2-40.6c11.8,9.9,28.8,14.5,45.1,14.5c5.2,0,10.3-0.5,15.2-1.3
			c5.5,7.2,18.7,23.5,31.8,30.2l2,68.8c0.1,3.5,3,6.3,6.5,6.3c0.1,0,0.1,0,0.2,0c3.6-0.1,6.4-3.1,6.3-6.7l-1.9-65.8
			c2.8-0.9,4.8-3.6,4.6-6.6c-0.2-3.6-3.3-6.3-6.9-6.1c-5.8,0.4-18.6-11.2-29-24c3.2-1.3,6.3-2.8,8.9-4.6
			C1542.6,432.5,1560.1,421.2,1548.1,390.3z"/>
		<path fill="#5DBFD9" d="M1715.9,439.2c-2.7-2.4-6.8-2.1-9.2,0.5c-21.1,23.8-44.7,27.5-62.2,25.8c-0.8-2.8-3.5-4.8-6.5-4.6
			c-2,0.1-3.8,1.1-4.9,2.6c-4.9-1.2-9.8-2.9-14.5-4.9c-0.4-2.7-2.5-5-5.4-5.4c-1.5-0.2-2.9,0-4.1,0.7c-1.9-1.1-3.8-2.3-5.7-3.5
			c-10-6.6-16.1-13.5-17.7-17.4c-1.4-3.3-5.2-4.8-8.5-3.4c-3.3,1.4-4.8,5.2-3.4,8.5c3.8,8.9,15.3,19.6,30.3,27.8
			c-2.2,6.7-5.6,11.7-10.3,14.8c-9.2,6.1-20.7,3.6-21,3.5c-3.5-0.8-7,1.3-7.8,4.8c-0.9,3.5,1.3,7,4.8,7.9c0.3,0.1,4,0.9,9.2,0.9
			c6.1,0,14.3-1.2,21.9-6.2c6.9-4.5,11.9-11.3,15.1-20.1c5.3,2.1,10.8,3.9,16.4,5.2l2.6,59.7c0.2,3.5,3,6.2,6.5,6.2
			c0.1,0,0.2,0,0.3,0c3.6-0.2,6.4-3.2,6.2-6.8l-2.5-57.2c2.2,0.2,4.5,0.3,6.9,0.3c19.3,0,43-6.5,64.3-30.5
			C1718.8,445.7,1718.6,441.6,1715.9,439.2z"/>
		<path fill="#5DBFD9" d="M1276.4,650.7l-10.6-4.3c-0.6-1.5-2.1-2.5-3.9-2.5l-44.2,2.2c-1.9,0.1-3.4,1.5-3.7,3.3
			c-0.3,1.8,0.7,3.7,2.4,4.4l14.7,6.3c0.5,0.2,1,0.3,1.6,0.3c0.1,0,0.1,0,0.2,0l42.3-2c1.9-0.1,3.4-1.5,3.8-3.3
			C1279.1,653.2,1278.1,651.4,1276.4,650.7z"/>
		<path fill="#5DBFD9" d="M1521.1,639.7l-37.8-7c-2.2-0.4-4.3,1-4.7,3.2c-0.1,0.6-0.1,1.3,0.1,1.9l-104,2.7c-0.6,0-1.1,0.2-1.6,0.4
			l-20.8-4.3c-2.2-0.5-4.3,0.9-4.7,3.1c-0.4,2.2,0.9,4.3,3.1,4.7l44.3,9.2c0.3,0.1,0.5,0.1,0.8,0.1c1.9,0,3.5-1.3,3.9-3.2
			c0.2-0.9,0-1.9-0.4-2.6l104-2.7c0.5,0,1-0.1,1.4-0.3l14.8,2.7c0.2,0,0.5,0.1,0.7,0.1c1.9,0,3.6-1.3,3.9-3.3
			C1524.7,642.2,1523.3,640.1,1521.1,639.7z"/>
		<path fill="#5DBFD9" d="M1386.3,704.8C1386.3,704.8,1386.3,704.8,1386.3,704.8c-1.2,0-2.2,0.5-2.9,1.2c-0.5-1.6-1.9-2.8-3.7-2.9
			c-2.2-0.1-4.1,1.6-4.2,3.8l-1.7,36c-0.1,1.6,0.8,3,2.2,3.7l7.7,4c0.6,0.3,1.2,0.5,1.8,0.5c0.7,0,1.4-0.2,2-0.6
			c1.2-0.7,1.9-2,2-3.4l0.7-38.3C1390.3,706.7,1388.6,704.8,1386.3,704.8z"/>
		<path fill="#5DBFD9" d="M1371.6,775.1c-8.3,0.6-42.7-11.4-47-16.4c-1.5-1.7-4-1.8-5.6-0.3c-1.7,1.5-1.8,4-0.3,5.6
			c4.2,4.7,19.1,10.3,25.3,12.5c9.4,3.3,21.2,6.6,27.3,6.6c0.3,0,0.6,0,0.9,0c2.2-0.1,3.9-2,3.7-4.2
			C1375.7,776.6,1373.8,775,1371.6,775.1z"/>
		<path fill="#5DBFD9" d="M1446,683c-0.2-1.4-1.5-2.3-2.9-2.1c-1.4,0.2-2.3,1.5-2.1,2.9l1.3,8c0.2,1.2,1.3,2.1,2.5,2.1
			c0.1,0,0.3,0,0.4,0c1.4-0.2,2.3-1.5,2.1-2.9L1446,683z"/>
	</g>
</g>
<g id="vs-outline">
	
		<path id="XMLID_9_" fill="none" stroke="#000000" stroke-width="9.8836" stroke-linecap="round" stroke-linejoin="round" stroke-miterlimit="10" d="
		M599.1,721.4c-4.4,2.2-20.7,6.3-39.8,20.9c-74.4,56.4-143.8,61.6-346.1,35.6c-198.7-25.6,179-55.1,252-105"/>
	
		<path id="XMLID_4_" fill="none" stroke="#000000" stroke-width="9.8836" stroke-linecap="round" stroke-linejoin="round" stroke-miterlimit="10" d="
		M596.1,633c45.7-5.4,95-5.5,140.8-1.7c147.2,12.3,40,35.4-54.6,62.3"/>
	
		<path id="XMLID_6_" fill="none" stroke="#000000" stroke-width="9.8836" stroke-linecap="round" stroke-linejoin="round" stroke-miterlimit="10" d="
		M397.6,692.3c0,0,51.4-41.2,107.5-36.7c66.3,5.4,103.4,79.7,103.4,79.5l26.4,2.1c0,0-42.8-96.4-128.5-100.1
		c-72.4-3.1-132.6,53.3-132.6,53.3L397.6,692.3z"/>
	
		<path id="XMLID_5_" fill="none" stroke="#000000" stroke-width="9.8836" stroke-linecap="round" stroke-linejoin="round" stroke-miterlimit="10" d="
		M634.8,737.2l56.6-24.2c0,0-62.5-118.1-197.8-76.1"/>
	
		<path id="XMLID_7_" fill="none" stroke="#000000" stroke-width="9.8836" stroke-linecap="round" stroke-linejoin="round" stroke-miterlimit="10" d="
		M397.6,692.3l58.9-14.8c0,0,20.9-21.8,62.6-19.4"/>
	
		<line id="XMLID_10_" fill="none" stroke="#000000" stroke-width="6.1772" stroke-linecap="round" stroke-linejoin="round" stroke-miterlimit="10" x1="663.4" y1="680.4" x2="614.9" y2="698"/>
	
		<line id="XMLID_11_" fill="none" stroke="#000000" stroke-width="6.1772" stroke-linecap="round" stroke-linejoin="round" stroke-miterlimit="10" x1="631.6" y1="651.1" x2="581.3" y2="665.3"/>
	
		<line id="XMLID_12_" fill="none" stroke="#000000" stroke-width="6.1772" stroke-linecap="round" stroke-linejoin="round" stroke-miterlimit="10" x1="587.1" y1="633.5" x2="547.3" y2="646.2"/>
	
		<line id="XMLID_13_" fill="none" stroke="#000000" stroke-width="6.1772" stroke-linecap="round" stroke-linejoin="round" stroke-miterlimit="10" x1="538.6" y1="628.6" x2="509" y2="636.9"/>
	
		<path id="XMLID_14_" fill="none" stroke="#000000" stroke-width="10.2503" stroke-linecap="round" stroke-linejoin="round" stroke-miterlimit="10" d="
		M235.9,675c-15-5.5-31.4-98.4-31.4-133.9s-0.1-149.3,62.5-174.9c41.7-17.1,76.2-24.6,78.9-16.4"/>
	
		<path id="XMLID_8_" fill="none" stroke="#000000" stroke-width="10.2503" stroke-linecap="round" stroke-linejoin="round" stroke-miterlimit="10" d="
		M352.1,332.6c-25.3-13-78.6,6.2-92.3,3.4c-13.7-2.7-17.1-36.9-3.4-51.3"/>
	
		<path id="XMLID_15_" fill="none" stroke="#000000" stroke-width="10.2503" stroke-linecap="round" stroke-linejoin="round" stroke-miterlimit="10" d="
		M229.8,284.1c8.2,13.7-2.7,73.1-20.5,73.1s-64.2-21.2-61.5-50.6"/>
	
		<path id="XMLID_17_" fill="none" stroke="#000000" stroke-width="10.2503" stroke-linecap="round" stroke-linejoin="round" stroke-miterlimit="10" d="
		M130.7,323.1c1.4,8.2,39,59.5,55.4,60.8"/>
	
		<path id="XMLID_16_" fill="none" stroke="#000000" stroke-width="10.2503" stroke-linecap="round" stroke-linejoin="round" stroke-miterlimit="10" d="
		M190.8,370.9c-8.2,10.3-20.5,103.2-23.9,162c-2.3,38.9-6.2,98.4-26,126.4"/>
	
		<path id="XMLID_19_" fill="none" stroke="#000000" stroke-width="10.2503" stroke-linecap="round" stroke-linejoin="round" stroke-miterlimit="10" d="
		M256.6,438.3c38,35.5,180.7,4.2,156.2-49.8c0,0,114-88.6,28.7-135.1s-85.3-7.6-85.3-7.6s-41.3-77.7-104.6-59.9
		s-63.3,45.6-63.3,45.6s-62.5-65.9-108.1,11.8s24.5,122.4,24.5,122.4s-39.7,82.7,42.2,81.9"/>
	
		<polyline id="XMLID_20_" fill="none" stroke="#000000" stroke-width="7" stroke-linecap="round" stroke-linejoin="round" stroke-miterlimit="10" points="
		704.9,598.9 728.9,590.4 731.4,565.9 785.4,566.4 780.6,595.6 765.1,601.4 704.9,599.1 	"/>
	
		<line id="XMLID_21_" fill="none" stroke="#000000" stroke-width="4" stroke-linecap="round" stroke-linejoin="round" stroke-miterlimit="10" x1="728.9" y1="590.7" x2="754.5" y2="591.1"/>
	
		<line id="XMLID_22_" fill="none" stroke="#000000" stroke-width="7" stroke-linecap="round" stroke-linejoin="round" stroke-miterlimit="10" x1="780.4" y1="596.5" x2="783.4" y2="611.5"/>
	
		<line id="XMLID_23_" fill="none" stroke="#000000" stroke-width="7" stroke-linecap="round" stroke-linejoin="round" stroke-miterlimit="10" x1="716.5" y1="600.5" x2="714.9" y2="618"/>
	
		<line id="XMLID_24_" fill="none" stroke="#000000" stroke-width="7" stroke-linecap="round" stroke-linejoin="round" stroke-miterlimit="10" x1="759.7" y1="602.4" x2="758.5" y2="621.2"/>
	
		<line id="XMLID_25_" fill="none" stroke="#000000" stroke-width="7" stroke-linecap="round" stroke-linejoin="round" stroke-miterlimit="10" x1="730.4" y1="601.5" x2="730.9" y2="610.2"/>
	
		<path id="XMLID_18_" fill="none" stroke="#000000" stroke-width="9.8836" stroke-linecap="round" stroke-linejoin="round" stroke-miterlimit="10" d="
		M461.6,589.4c22.7-9.3,50-108,44.7-149.3s-28.7-20.7-28.7-20.7"/>
	
		<path id="XMLID_26_" fill="none" stroke="#000000" stroke-width="9.8836" stroke-linecap="round" stroke-linejoin="round" stroke-miterlimit="10" d="
		M556.3,407.4c-13.3-8.7-21.3,4-20.7,39.3c0.6,29.9-8.7,140.7,27.3,142"/>
	
		<path id="XMLID_29_" fill="none" stroke="#000000" stroke-width="9.8836" stroke-linecap="round" stroke-linejoin="round" stroke-miterlimit="10" d="
		M436.6,366.1c-1.3,25.6-0.8,44.5,1.7,51c7.3,19.4,35.3,44.7,68,36.7"/>
	
		<path id="XMLID_28_" fill="none" stroke="#000000" stroke-width="9.8836" stroke-linecap="round" stroke-linejoin="round" stroke-miterlimit="10" d="
		M539.6,453.1c38.7-1.3,75.3-6.3,72.7-51.7c-2.7-45.3-54-319-103.3-319c-26.3,0-47.9,86-60.6,171.1"/>
	
		<path id="XMLID_30_" fill="none" stroke="#000000" stroke-width="9.8836" stroke-linecap="round" stroke-linejoin="round" stroke-miterlimit="10" d="
		M389.1,579.6c-10-15-20-55.5-20-114.5"/>
	
		<path id="XMLID_31_" fill="none" stroke="#000000" stroke-width="9.8836" stroke-linecap="round" stroke-linejoin="round" stroke-miterlimit="10" d="
		M339.1,472.1c1.5,38,16.5,81.5-16,110"/>
	
		<path id="XMLID_27_" fill="none" stroke="#000000" stroke-width="9.8836" stroke-linecap="round" stroke-linejoin="round" stroke-miterlimit="10" d="
		M251.1,160.1c7.5-58,100.8-23.7,100.8-23.7s41.7-84.8,103.7-11.3"/>
	
		<polyline id="XMLID_35_" fill="none" stroke="#000000" stroke-width="9.8836" stroke-linecap="round" stroke-linejoin="round" stroke-miterlimit="10" points="
		1158.3,497.8 1155.1,577.6 1210.9,591.1 1211.6,494.8 1292.9,496.1 1294.9,589.8 1213.4,591.6 	"/>
	
		<line id="XMLID_34_" fill="none" stroke="#000000" stroke-width="7" stroke-linecap="round" stroke-linejoin="round" stroke-miterlimit="10" x1="1292.9" y1="567.1" x2="1213.6" y2="569.1"/>
	
		<polyline id="XMLID_32_" fill="none" stroke="#000000" stroke-width="9.8836" stroke-linecap="round" stroke-linejoin="round" stroke-miterlimit="10" points="
		1295.6,496.1 1310.9,494.1 1215.6,441.8 1142.3,499.1 1211.6,494.8 	"/>
	
		<path id="XMLID_36_" fill="none" stroke="#000000" stroke-width="5" stroke-linecap="round" stroke-linejoin="round" stroke-miterlimit="10" d="
		M1215.6,445.1c0,16.7-4,31-4,31"/>
	
		<line id="XMLID_37_" fill="none" stroke="#000000" stroke-width="7" stroke-linecap="round" stroke-linejoin="round" stroke-miterlimit="10" x1="1212.4" y1="569.6" x2="1157.1" y2="557.4"/>
	
		<polyline id="XMLID_33_" fill="none" stroke="#000000" stroke-width="7" stroke-linecap="round" stroke-linejoin="round" stroke-miterlimit="10" points="
		1292.3,566.1 1234.9,554.1 1234.3,499.8 	"/>
	
		<line id="XMLID_39_" fill="none" stroke="#000000" stroke-width="7" stroke-linecap="round" stroke-linejoin="round" stroke-miterlimit="10" x1="1157.3" y1="555.4" x2="1233.6" y2="554.1"/>
	
		<path id="XMLID_38_" fill="none" stroke="#000000" stroke-width="7" stroke-linecap="round" stroke-linejoin="round" stroke-miterlimit="10" d="
		M1290.9,497.1"/>
	
		<polyline id="XMLID_40_" fill="none" stroke="#000000" stroke-width="7" stroke-linecap="round" stroke-linejoin="round" stroke-miterlimit="10" points="
		1291.4,499.9 1236.6,499.9 1160.9,502.1 	"/>
	
		<polyline id="XMLID_41_" fill="none" stroke="#000000" stroke-width="10" stroke-linecap="round" stroke-linejoin="round" stroke-miterlimit="10" points="
		1395.8,649.7 1377.6,520.7 1350.8,639.4 	"/>
	
		<polyline id="XMLID_42_" fill="none" stroke="#000000" stroke-width="10" stroke-linecap="round" stroke-linejoin="round" stroke-miterlimit="10" points="
		1377.6,520.7 1500.3,519.6 1520.8,643.4 	"/>
	
		<line id="XMLID_44_" fill="none" stroke="#000000" stroke-width="10" stroke-linecap="round" stroke-linejoin="round" stroke-miterlimit="10" x1="1482" y1="634.9" x2="1500.3" y2="519.6"/>
	
		<polyline id="XMLID_45_" fill="none" stroke="#000000" stroke-width="7" stroke-linecap="round" stroke-linejoin="round" stroke-miterlimit="10" points="
		1400.4,522.2 1401.3,608.9 1427.8,607.8 1427.8,521 	"/>
	
		<polyline id="XMLID_46_" fill="none" stroke="#000000" stroke-width="7" stroke-linecap="round" stroke-linejoin="round" stroke-miterlimit="10" points="
		1444.1,522.7 1445.5,606.1 1470.6,606.3 1470.9,521.9 	"/>
	
		<path id="XMLID_43_" fill="none" stroke="#000000" stroke-width="11.2797" stroke-linecap="round" stroke-linejoin="round" stroke-miterlimit="10" d="
		M1691.4,564.3c0,0-39.9,80.3-60.9,89.4c-20.9,9.1-36.5,7.6-36.5,7.6l-40.7-8.4c0,0,36.3-4.7,45.7-11.4
		c29.7-21.3,58.6-77.2,58.6-77.2L1691.4,564.3L1691.4,564.3z"/>
	
		<line id="XMLID_48_" fill="none" stroke="#000000" stroke-width="11.2797" stroke-linecap="round" stroke-linejoin="round" stroke-miterlimit="10" x1="1691.8" y1="565.1" x2="1719.6" y2="564.3"/>
	
		<path id="XMLID_47_" fill="none" stroke="#000000" stroke-width="6.8475" stroke-linecap="round" stroke-linejoin="round" stroke-miterlimit="10" d="
		M1694.1,567c0,0-3.4-31.9,19.8-33.5c23.7-1.6,51.7,89.5,51.7,122.9"/>
	
		<path id="XMLID_51_" fill="none" stroke="#000000" stroke-width="6.8475" stroke-linecap="round" stroke-linejoin="round" stroke-miterlimit="10" d="
		M1664.8,560.9c0-20.2,4.9-29.3,18.3-29.7s47.2,88.8,47.2,121.4"/>
	
		<polyline id="XMLID_53_" fill="none" stroke="#000000" stroke-width="7.9888" stroke-linecap="round" stroke-linejoin="round" stroke-miterlimit="10" points="
		1693.1,571.2 1695.7,671.7 1608.1,682.6 1608.9,663.6 	"/>
	
		<polyline id="XMLID_52_" fill="none" stroke="#000000" stroke-width="7.9888" stroke-linecap="round" stroke-linejoin="round" stroke-miterlimit="10" points="
		1659.2,618.3 1658.6,663.1 1574.3,673.5 1574.3,659.8 	"/>
	
		<line id="XMLID_50_" fill="none" stroke="#000000" stroke-width="7.9888" stroke-linecap="round" stroke-linejoin="round" stroke-miterlimit="10" x1="1721.5" y1="567.3" x2="1744.1" y2="662.3"/>
	
		<line id="XMLID_54_" fill="none" stroke="#000000" stroke-width="7.9888" stroke-linecap="round" stroke-linejoin="round" stroke-miterlimit="10" x1="1697.7" y1="567.5" x2="1713.3" y2="656"/>
	
		<line id="XMLID_55_" fill="none" stroke="#000000" stroke-width="7.9888" stroke-linecap="round" stroke-linejoin="round" stroke-miterlimit="10" x1="1714.8" y1="643.6" x2="1738" y2="645.7"/>
	
		<line id="XMLID_56_" fill="none" stroke="#000000" stroke-width="7.9888" stroke-linecap="round" stroke-linejoin="round" stroke-miterlimit="10" x1="1708" y1="626.5" x2="1732.9" y2="627.6"/>
	
		<line id="XMLID_57_" fill="none" stroke="#000000" stroke-width="7.9888" stroke-linecap="round" stroke-linejoin="round" stroke-miterlimit="10" x1="1705.7" y1="608.8" x2="1728.9" y2="609.4"/>
	
		<line id="XMLID_58_" fill="none" stroke="#000000" stroke-width="7.9888" stroke-linecap="round" stroke-linejoin="round" stroke-miterlimit="10" x1="1704.9" y1="594.2" x2="1725.5" y2="594.4"/>
	
		<line id="XMLID_59_" fill="none" stroke="#000000" stroke-width="7.9888" stroke-linecap="round" stroke-linejoin="round" stroke-miterlimit="10" x1="1701.1" y1="580.5" x2="1720.7" y2="579.3"/>
	
		<path id="XMLID_68_" fill="none" stroke="#000000" stroke-width="9.1301" stroke-linecap="round" stroke-linejoin="round" stroke-miterlimit="10" d="
		M1437.7,679.5c-84.2-1.2-94.1,28.5,4.9,31.2c93.9,2.6,103.5-25.1,13.7-30.5"/>
	
		<path id="XMLID_60_" fill="none" stroke="#000000" stroke-width="9.1301" stroke-linecap="round" stroke-linejoin="round" stroke-miterlimit="10" d="
		M1444.5,668.9c12.9-0.6,14.5,14.1,2.7,14.1C1435.4,683,1436.2,669.3,1444.5,668.9z"/>
	
		<path id="XMLID_61_" fill="none" stroke="#000000" stroke-width="9.1301" stroke-linecap="round" stroke-linejoin="round" stroke-miterlimit="10" d="
		M1518.7,698.5l1.8,45.9c0,0-9.7,12.6-71,13.4c-63.1,0.9-79-16.3-79-16.3l1.1-47.1"/>
	
		<path id="XMLID_62_" fill="none" stroke="#000000" stroke-width="9.1301" stroke-linecap="round" stroke-linejoin="round" stroke-miterlimit="10" d="
		M1369.2,723.3c-49.5-0.4-101.2,56.8,78.3,53.6c179.5-3.1,112.1-51.1,74.8-53.1"/>
	
		<path id="XMLID_64_" fill="none" stroke="#000000" stroke-width="4.565" stroke-linecap="round" stroke-linejoin="round" stroke-miterlimit="10" d="
		M1320.1,748l0.4,14.5c0,0,11.6,26.9,132.6,23.4c86.4-2.5,105.5-13.1,113.6-20.2l0.8-16.5"/>
	
		<polyline id="XMLID_63_" fill="none" stroke="#000000" stroke-width="4.565" stroke-linecap="round" stroke-linejoin="round" stroke-miterlimit="10" points="
		1376.7,708.2 1337.8,712.1 1336.1,754.1 	"/>
	
		<polyline id="XMLID_65_" fill="none" stroke="#000000" stroke-width="4.565" stroke-linecap="round" stroke-linejoin="round" stroke-miterlimit="10" points="
		1426.1,717.9 1419.8,722.7 1419.2,769.9 	"/>
	
		<polyline id="XMLID_66_" fill="none" stroke="#000000" stroke-width="4.565" stroke-linecap="round" stroke-linejoin="round" stroke-miterlimit="10" points="
		1498.5,715.8 1530.2,718.6 1530.2,760.4 	"/>
	
		<polyline id="XMLID_67_" fill="none" stroke="#000000" stroke-width="4.565" stroke-linecap="round" stroke-linejoin="round" stroke-miterlimit="10" points="
		1516.1,692.6 1526.5,691.2 1526.8,724.3 	"/>
	
		<path id="XMLID_69_" fill="none" stroke="#000000" stroke-width="3.4238" stroke-linecap="round" stroke-linejoin="round" stroke-miterlimit="10" d="
		M1371.3,730.9c0.2,20.4,147.4,27.7,147.8,0.1"/>
	
		<path id="XMLID_49_" fill="none" stroke="#000000" stroke-width="4.565" stroke-linecap="round" stroke-linejoin="round" stroke-miterlimit="10" d="
		M1441.7,686.6l-0.1,4.8c0,0,1.8,1.3,5.6,1.4c3.8,0,4.8-1.1,4.8-1.1l-0.7-5.3"/>
	
		<polyline id="XMLID_75_" fill="none" stroke="#000000" stroke-width="6.9157" stroke-linecap="round" stroke-linejoin="round" stroke-miterlimit="10" points="
		1286.7,635.5 1263,627.1 1260.6,602.9 1207.2,603.3 1211.9,632.2 1227.2,637.9 1286.7,635.7 	"/>
	
		<line id="XMLID_74_" fill="none" stroke="#000000" stroke-width="3.9518" stroke-linecap="round" stroke-linejoin="round" stroke-miterlimit="10" x1="1263" y1="627.4" x2="1237.7" y2="627.8"/>
	
		<line id="XMLID_73_" fill="none" stroke="#000000" stroke-width="6.9157" stroke-linecap="round" stroke-linejoin="round" stroke-miterlimit="10" x1="1212.1" y1="633.1" x2="1209.2" y2="648"/>
	
		<line id="XMLID_72_" fill="none" stroke="#000000" stroke-width="6.9157" stroke-linecap="round" stroke-linejoin="round" stroke-miterlimit="10" x1="1275.2" y1="637.1" x2="1276.9" y2="654.4"/>
	
		<line id="XMLID_71_" fill="none" stroke="#000000" stroke-width="6.9157" stroke-linecap="round" stroke-linejoin="round" stroke-miterlimit="10" x1="1232.6" y1="638.9" x2="1233.7" y2="657.5"/>
	
		<line id="XMLID_70_" fill="none" stroke="#000000" stroke-width="6.9157" stroke-linecap="round" stroke-linejoin="round" stroke-miterlimit="10" x1="1261.5" y1="638.1" x2="1261.1" y2="646.6"/>
	
		<path id="XMLID_76_" fill="none" stroke="#000000" stroke-width="9.8836" stroke-linecap="round" stroke-linejoin="round" stroke-miterlimit="10" d="
		M723.6,316.1c57,0,106,115-5,126S633.6,316.1,723.6,316.1z"/>
	
		<path id="XMLID_78_" fill="none" stroke="#000000" stroke-width="9.8836" stroke-linecap="round" stroke-linejoin="round" stroke-miterlimit="10" d="
		M718.9,445.8c-2,28,5.3,96.7,20.7,98.7"/>
	
		<path id="XMLID_79_" fill="none" stroke="#000000" stroke-width="9.8836" stroke-linecap="round" stroke-linejoin="round" stroke-miterlimit="10" d="
		M702.9,446.4c1.3,20.7,6.7,99.3-14,99.3"/>
	
		<path id="XMLID_80_" fill="none" stroke="#000000" stroke-width="9.8836" stroke-linecap="round" stroke-linejoin="round" stroke-miterlimit="10" d="
		M585.6,469.1c5,22,87,32,87-13"/>
	
		<path id="XMLID_81_" fill="none" stroke="#000000" stroke-width="9.8836" stroke-linecap="round" stroke-linejoin="round" stroke-miterlimit="10" d="
		M605.6,276.1c44-15,98-5,92,30"/>
	
		<line id="XMLID_82_" fill="none" stroke="#000000" stroke-width="9.8836" stroke-linecap="round" stroke-linejoin="round" stroke-miterlimit="10" x1="856.6" y1="522.1" x2="854.6" y2="441.1"/>
	
		<path id="XMLID_77_" fill="none" stroke="#000000" stroke-width="9.8836" stroke-linecap="round" stroke-linejoin="round" stroke-miterlimit="10" d="
		M855.6,367.1c56.2,3.2,67,103-2,105S803.6,364.1,855.6,367.1z"/>
	
		<polyline id="XMLID_84_" fill="none" stroke="#000000" stroke-width="9.8836" stroke-linecap="round" stroke-linejoin="round" stroke-miterlimit="10" points="
		824.6,349.1 824.6,301.1 933.6,305.1 932.6,361.1 	"/>
	
		<polyline id="XMLID_85_" fill="none" stroke="#000000" stroke-width="9.8836" stroke-linecap="round" stroke-linejoin="round" stroke-miterlimit="10" points="
		896.6,290.1 901.6,230.1 1017.6,235.1 1012.6,325.1 	"/>
	
		<polyline id="XMLID_83_" fill="none" stroke="#000000" stroke-width="9.8836" stroke-linecap="round" stroke-linejoin="round" stroke-miterlimit="10" points="
		982.6,345.1 1073.6,344.1 1075.6,383.1 	"/>
	
		<polyline id="XMLID_87_" fill="none" stroke="#000000" stroke-width="9.8836" stroke-linecap="round" stroke-linejoin="round" stroke-miterlimit="10" points="
		1056.6,323.1 1061.6,277.1 1166.6,278.1 1165.6,359.1 	"/>
	
		<polyline id="XMLID_86_" fill="none" stroke="#000000" stroke-width="9.8836" stroke-linecap="round" stroke-linejoin="round" stroke-miterlimit="10" points="
		837.6,255.1 731.6,254.1 731.6,294.1 	"/>
	
		<polyline id="XMLID_89_" fill="none" stroke="#000000" stroke-width="9.8836" stroke-linecap="round" stroke-linejoin="round" stroke-miterlimit="10" points="
		994.6,217.1 995.6,174.1 1124.6,173.1 1124.6,255.1 	"/>
	
		<polyline id="XMLID_88_" fill="none" stroke="#000000" stroke-width="9.8836" stroke-linecap="round" stroke-linejoin="round" stroke-miterlimit="10" points="
		1132.6,471.1 1060.6,474.1 1117.6,327.1 1164.6,444.1 	"/>
	
		<line id="XMLID_91_" fill="none" stroke="#000000" stroke-width="9.8836" stroke-linecap="round" stroke-linejoin="round" stroke-miterlimit="10" x1="1110.6" y1="456.1" x2="1109.6" y2="499.1"/>
	
		<path id="XMLID_92_" fill="none" stroke="#000000" stroke-width="10" stroke-linecap="round" stroke-linejoin="round" stroke-miterlimit="10" d="
		M1202.6,418.1c-36-34-9-144,35-100c0,0,30-83,79-30s18,55,18,55s56,20,37,54s-65,23-65,23s9,34-21,31"/>
	
		<path id="XMLID_95_" fill="none" stroke="#000000" stroke-width="12" stroke-linecap="round" stroke-linejoin="round" stroke-miterlimit="10" d="
		M1391.2,451.2c-7.7-2.4-16.2-7.4-25.6-16.1"/>
	
		<path id="XMLID_90_" fill="none" stroke="#000000" stroke-width="10" stroke-linecap="round" stroke-linejoin="round" stroke-miterlimit="10" d="
		M1337.6,280.1c4-37,31-58,66-58s53,48,53,48s60-13,67,33s-16,55-16,55s47,35,25,62c-23.5,28.9-60.4,18.2-79.2,10"/>
	
		<path id="XMLID_94_" fill="none" stroke="#000000" stroke-width="8" stroke-linecap="round" stroke-linejoin="round" stroke-miterlimit="10" d="
		M1450.3,379.1c-14,17.3-25.3,64.7-14.7,114.7"/>
	
		<path id="XMLID_96_" fill="none" stroke="#000000" stroke-width="8" stroke-linecap="round" stroke-linejoin="round" stroke-miterlimit="10" d="
		M1388.6,335.1c22.3,17.7,27,134.7,19.7,164.7"/>
	
		<path id="XMLID_97_" fill="none" stroke="#000000" stroke-width="8" stroke-linecap="round" stroke-linejoin="round" stroke-miterlimit="10" d="
		M1419.6,351.1c-2.3,9.3-2.3,35,18.7,20"/>
	
		<path id="XMLID_98_" fill="none" stroke="#000000" stroke-width="10" stroke-linecap="round" stroke-linejoin="round" stroke-miterlimit="10" d="
		M1651.6,461.1c109.3,2.6,74.2-151.1,1-145C1592.6,321.1,1526.6,458.1,1651.6,461.1z"/>
	
		<line id="XMLID_99_" fill="none" stroke="#000000" stroke-width="8" stroke-linecap="round" stroke-linejoin="round" stroke-miterlimit="10" x1="1638.6" y1="413.1" x2="1652.6" y2="430.1"/>
	
		<polyline id="XMLID_93_" fill="none" stroke="#000000" stroke-width="8" stroke-linecap="round" stroke-linejoin="round" stroke-miterlimit="10" points="
		1675.6,395.1 1644.6,446.1 1647.6,544.1 	"/>
	
		<path id="XMLID_100_" fill="none" stroke="#000000" stroke-width="10" stroke-linecap="round" stroke-linejoin="round" stroke-miterlimit="10" d="
		M1530.9,279.1c9.3-34.7,5.7-92.7,48.3-96c42.7-3.3,36.3,133.3,36.3,133.3"/>
	
		<path id="XMLID_105_" fill="none" stroke="#000000" stroke-width="10" stroke-linecap="round" stroke-linejoin="round" stroke-miterlimit="10" d="
		M1571.8,482.6c13.5,2.8,25.6,0.3,30.4-12.8"/>
	
		<path id="XMLID_101_" fill="none" stroke="#000000" stroke-width="10" stroke-linecap="round" stroke-linejoin="round" stroke-miterlimit="10" d="
		M1519.6,448.4c0.5,5.4,12,15.8,26.3,23.9"/>
	
		<line id="XMLID_103_" fill="none" stroke="#000000" stroke-width="8" stroke-linecap="round" stroke-linejoin="round" stroke-miterlimit="10" x1="1547.6" y1="449.8" x2="1549.3" y2="558.4"/>
	
		<line id="XMLID_104_" fill="none" stroke="#000000" stroke-width="8" stroke-linecap="round" stroke-linejoin="round" stroke-miterlimit="10" x1="1570.3" y1="461.4" x2="1561.3" y2="565.1"/>
	
		<polyline id="XMLID_106_" fill="none" stroke="#000000" stroke-width="7" stroke-linecap="round" stroke-linejoin="round" stroke-miterlimit="10" points="
		755.9,290.8 754.6,280.6 776.3,281.9 776.9,312.1 	"/>
	
		<polyline id="XMLID_107_" fill="none" stroke="#000000" stroke-width="7" stroke-linecap="round" stroke-linejoin="round" stroke-miterlimit="10" points="
		826.8,286.3 804.4,283.9 803.6,315.8 810.9,316.1 	"/>
	
		<polyline id="XMLID_109_" fill="none" stroke="#000000" stroke-width="7" stroke-linecap="round" stroke-linejoin="round" stroke-miterlimit="10" points="
		843.6,349.1 844.6,322.4 867.6,322.1 865.9,345.8 	"/>
	
		<polygon id="XMLID_108_" fill="none" stroke="#000000" stroke-width="7" stroke-linecap="round" stroke-linejoin="round" stroke-miterlimit="10" points="
		888.9,346.8 889.3,323.1 908.3,324.1 907.6,349.1 	"/>
	
		<polygon id="XMLID_102_" fill="none" stroke="#000000" stroke-width="7" stroke-linecap="round" stroke-linejoin="round" stroke-miterlimit="10" points="
		922.3,255.1 946.9,256.1 946.6,281.4 919.3,281.8 	"/>
	
		<polygon id="XMLID_110_" fill="none" stroke="#000000" stroke-width="7" stroke-linecap="round" stroke-linejoin="round" stroke-miterlimit="10" points="
		970.3,259.1 994.9,259.4 993.9,283.4 967.9,282.1 	"/>
	
		<polyline id="XMLID_113_" fill="none" stroke="#000000" stroke-width="7" stroke-linecap="round" stroke-linejoin="round" stroke-miterlimit="10" points="
		969.6,330.1 971.3,304.8 992.9,305.1 993.3,330.4 	"/>
	
		<polygon id="XMLID_111_" fill="none" stroke="#000000" stroke-width="7" stroke-linecap="round" stroke-linejoin="round" stroke-miterlimit="10" points="
		1054.3,362.4 1029.3,364.1 1031.9,390.1 1055.3,389.8 	"/>
	
		<polyline id="XMLID_112_" fill="none" stroke="#000000" stroke-width="7" stroke-linecap="round" stroke-linejoin="round" stroke-miterlimit="10" points="
		1007.9,366.1 983.6,366.1 985.3,393.4 1009.6,393.1 1008.3,366.1 	"/>
	
		<polyline id="XMLID_116_" fill="none" stroke="#000000" stroke-width="7" stroke-linecap="round" stroke-linejoin="round" stroke-miterlimit="10" points="
		1102.6,307.8 1101.9,298.4 1078.3,298.8 1077.9,325.1 1099.6,324.8 	"/>
	
		<polyline id="XMLID_115_" fill="none" stroke="#000000" stroke-width="7" stroke-linecap="round" stroke-linejoin="round" stroke-miterlimit="10" points="
		1126.6,298.8 1147.6,298.1 1146.6,329.1 1131.3,326.4 	"/>
	
		<polygon id="XMLID_114_" fill="none" stroke="#000000" stroke-width="7" stroke-linecap="round" stroke-linejoin="round" stroke-miterlimit="10" points="
		1016.3,195.1 1048.9,195.1 1048.9,214.4 1015.9,214.1 	"/>
	
		<polygon id="XMLID_117_" fill="none" stroke="#000000" stroke-width="7" stroke-linecap="round" stroke-linejoin="round" stroke-miterlimit="10" points="
		1074.3,195.4 1106.3,194.4 1107.6,217.1 1073.9,215.4 	"/>
	
		<polyline id="XMLID_119_" fill="none" stroke="#000000" stroke-width="7" stroke-linecap="round" stroke-linejoin="round" stroke-miterlimit="10" points="
		1036.9,236.8 1047.9,235.4 1047.3,259.1 1036.6,258.1 	"/>
	
		<polygon id="XMLID_118_" fill="none" stroke="#000000" stroke-width="7" stroke-linecap="round" stroke-linejoin="round" stroke-miterlimit="10" points="
		1072.9,235.1 1106.9,237.1 1106.9,261.4 1073.3,260.4 	"/>
	
		<line id="XMLID_121_" fill="none" stroke="#000000" stroke-width="7" stroke-linecap="round" stroke-linejoin="round" stroke-miterlimit="10" x1="1039.9" y1="285.8" x2="1040.3" y2="300.8"/>
	
		<polyline id="XMLID_120_" fill="none" stroke="#000000" stroke-width="7" stroke-linecap="round" stroke-linejoin="round" stroke-miterlimit="10" points="
		1064.1,171.1 1063.6,153.6 1078.6,141.6 	"/>
	
		<line id="XMLID_123_" fill="none" stroke="#000000" stroke-width="7" stroke-linecap="round" stroke-linejoin="round" stroke-miterlimit="10" x1="1059.6" y1="142.1" x2="1070.6" y2="157.1"/>
	
		<line id="XMLID_124_" fill="none" stroke="#000000" stroke-width="7" stroke-linecap="round" stroke-linejoin="round" stroke-miterlimit="10" x1="1069.1" y1="139.6" x2="1077.6" y2="151.1"/>
	
		<polyline id="XMLID_122_" fill="none" stroke="#000000" stroke-width="7" stroke-linecap="round" stroke-linejoin="round" stroke-miterlimit="10" points="
		815.4,254.8 819.1,237.1 777.4,220.4 	"/>
	
		<line id="XMLID_126_" fill="none" stroke="#000000" stroke-width="7" stroke-linecap="round" stroke-linejoin="round" stroke-miterlimit="10" x1="784.4" y1="217.9" x2="780.1" y2="227.4"/>
	
		<line id="XMLID_127_" fill="none" stroke="#000000" stroke-width="7" stroke-linecap="round" stroke-linejoin="round" stroke-miterlimit="10" x1="795.4" y1="218.6" x2="787.9" y2="235.6"/>
	
		<line id="XMLID_128_" fill="none" stroke="#000000" stroke-width="7" stroke-linecap="round" stroke-linejoin="round" stroke-miterlimit="10" x1="810.4" y1="222.1" x2="802.6" y2="243.9"/>
</g>
<g id="vs-h-reveal" opacity="0">
	
		<path id="XMLID_2_" fill="none" stroke="#5DBFD9" stroke-width="17" stroke-linecap="round" stroke-linejoin="round" stroke-miterlimit="10" d="
		M71.1,279.6c-12.5,42,42.5,86,42.5,86s-22,46.5-5,65c19.3,21,51,3.5,51,3.5"/>
	
		<path id="XMLID_3_" fill="none" stroke="#5DBFD9" stroke-width="17" stroke-linecap="round" stroke-linejoin="round" stroke-miterlimit="10" d="
		M128.1,335.1c0,0,26,47.5,47.5,54l-8,42"/>
	
		<path id="XMLID_125_" fill="none" stroke="#5DBFD9" stroke-width="17" stroke-linecap="round" stroke-linejoin="round" stroke-miterlimit="10" d="
		M126.6,435.6c18.5-4.5,33.5-7,45-40"/>
	
		<path id="XMLID_130_" fill="none" stroke="#5DBFD9" stroke-width="17" stroke-linecap="round" stroke-linejoin="round" stroke-miterlimit="10" d="
		M224.6,291.1c-1,27.5-7.5,53.5-16.5,61"/>
	
		<path id="XMLID_131_" fill="none" stroke="#5DBFD9" stroke-width="17" stroke-linecap="round" stroke-linejoin="round" stroke-miterlimit="10" d="
		M341.1,350.1c-26,2.5-97.5,16.5-117.5,80.5"/>
	
		<path id="XMLID_1_" fill="none" stroke="#5DBFD9" stroke-width="17" stroke-linecap="round" stroke-linejoin="round" stroke-miterlimit="10" d="
		M167.6,433.8c0,0-6.7,131.3-11.3,161.3s-16.7,54-16.7,54"/>
	
		<path id="XMLID_132_" fill="none" stroke="#5DBFD9" stroke-width="17" stroke-linecap="round" stroke-linejoin="round" stroke-miterlimit="10" d="
		M215.6,461.8c6.7-22.7,14-32,33.3-17.3c19.4,14.6,74.7,28.6,115.4,14.6s60-40,60.7-49.3s0.7-24.3,0.7-24.3s0,89,74,79.7"/>
	
		<path id="XMLID_129_" fill="none" stroke="#5DBFD9" stroke-width="17" stroke-linecap="round" stroke-linejoin="round" stroke-miterlimit="10" d="
		M326.9,462.4c0,3.3,10.4,68.4,6.7,82.7c-6,22.7-12.7,26.7-12.7,26.7"/>
	
		<path id="XMLID_134_" fill="none" stroke="#5DBFD9" stroke-width="17" stroke-linecap="round" stroke-linejoin="round" stroke-miterlimit="10" d="
		M495.6,460.4c-2,2.7-4.7,87.3-30.7,116.7"/>
	
		<path id="XMLID_135_" fill="none" stroke="#5DBFD9" stroke-width="17" stroke-linecap="round" stroke-linejoin="round" stroke-miterlimit="10" d="
		M432.3,381.1c2.7-1.3,38-44.7,38-55.3"/>
	
		<path id="XMLID_136_" fill="none" stroke="#5DBFD9" stroke-width="17" stroke-linecap="round" stroke-linejoin="round" stroke-miterlimit="10" d="
		M263.6,179.8c53.3-8,86,33.3,91.3,50.7c0,0,31.3-26.7,92,12"/>
	
		<path id="XMLID_137_" fill="none" stroke="#5DBFD9" stroke-width="17" stroke-linecap="round" stroke-linejoin="round" stroke-miterlimit="10" d="
		M460.1,142.6c-4.5,14-16.5,59.5-19.5,98"/>
	
		<polyline id="XMLID_138_" fill="none" stroke="#5DBFD9" stroke-width="17" stroke-linecap="round" stroke-linejoin="round" stroke-miterlimit="10" points="
		598.6,726.1 413.6,694.1 453.6,684.1 580.1,702.6 586.1,713.1 456.1,687.1 	"/>
	
		<path id="XMLID_133_" fill="none" stroke="#5DBFD9" stroke-width="17" stroke-linecap="round" stroke-linejoin="round" stroke-miterlimit="10" d="
		M435.6,695.8c-40.7,16-242.7,51.3-252.7,59.3s-26.7,6,18.7,16s236.3,15.1,262.7,10.7c35.3-6,84-30.7,103.3-55.3"/>
	
		<path id="XMLID_140_" fill="none" stroke="#5DBFD9" stroke-width="12" stroke-linecap="round" stroke-linejoin="round" stroke-miterlimit="10" d="
		M471.3,681.8c3.3-4.3,34.7-20.3,49.7-22.7"/>
	
		<path id="XMLID_139_" fill="none" stroke="#5DBFD9" stroke-width="12" stroke-linecap="round" stroke-linejoin="round" stroke-miterlimit="10" d="
		M612.3,637.1c37.7-3.7,186.8,1.5,186.3,13s-118,36.5-118,36.5"/>
	
		<path id="XMLID_141_" fill="none" stroke="#5DBFD9" stroke-width="17" stroke-linecap="round" stroke-linejoin="round" stroke-miterlimit="10" d="
		M541.1,464.1c24.5,0,68-4,73.5-30s-1-106.5-13.5-149"/>
	
		<path id="XMLID_143_" fill="none" stroke="#5DBFD9" stroke-width="17" stroke-linecap="round" stroke-linejoin="round" stroke-miterlimit="10" d="
		M575.6,466.1c3,17.5,30,35.5,59,29s49.5-18.5,48-44l12,1.5c0,0,8.7,65.7-4.3,83.2"/>
	
		<path id="XMLID_144_" fill="none" stroke="#5DBFD9" stroke-width="17" stroke-linecap="round" stroke-linejoin="round" stroke-miterlimit="10" d="
		M649.6,386.1c-1.5,27,70.5,88.5,131,9"/>
	
		<path id="XMLID_145_" fill="none" stroke="#5DBFD9" stroke-width="10" stroke-linecap="round" stroke-linejoin="round" stroke-miterlimit="10" d="
		M805.6,420.6c-8.4,34.1,12.5,62,45.5,56.5"/>
	
		<polygon id="XMLID_142_" fill="none" stroke="#5DBFD9" stroke-width="10" stroke-linecap="round" stroke-linejoin="round" stroke-miterlimit="10" points="
		732.6,611.4 779.6,613.1 760.1,619.4 719.4,617.6 	"/>
	
		<polyline id="XMLID_147_" fill="none" stroke="#5DBFD9" stroke-width="10" stroke-linecap="round" stroke-linejoin="round" stroke-miterlimit="10" points="
		816.9,373.8 819.6,293.1 939.1,299.6 938.6,418.6 	"/>
	
		<polyline id="XMLID_146_" fill="none" stroke="#5DBFD9" stroke-width="14" stroke-linecap="round" stroke-linejoin="round" stroke-miterlimit="10" points="
		947.1,340.6 1083.1,337.1 1084.1,376.6 	"/>
	
		<polyline id="XMLID_148_" fill="none" stroke="#5DBFD9" stroke-width="14" stroke-linecap="round" stroke-linejoin="round" stroke-miterlimit="10" points="
		956.1,224.6 1027.6,225.1 1018.6,329.6 	"/>
	
		<polyline id="XMLID_149_" fill="none" stroke="#5DBFD9" stroke-width="14" stroke-linecap="round" stroke-linejoin="round" stroke-miterlimit="10" points="
		1133.1,268.6 1051.1,268.6 1046.6,329.6 	"/>
	
		<path id="XMLID_151_" fill="none" stroke="#5DBFD9" stroke-width="18" stroke-linecap="round" stroke-linejoin="round" stroke-miterlimit="10" d="
		M717.6,307.8c35.3-4.7,62.7,24,67.3,43.3"/>
	
		<polyline id="XMLID_152_" fill="none" stroke="#5DBFD9" stroke-width="13" stroke-linecap="round" stroke-linejoin="round" stroke-miterlimit="10" points="
		1063.6,483.1 1138.1,477.6 1172.1,448.6 1152.6,392.1 	"/>
	
		<line id="XMLID_153_" fill="none" stroke="#5DBFD9" stroke-width="18" stroke-linecap="round" stroke-linejoin="round" stroke-miterlimit="10" x1="1163.3" y1="569.1" x2="1203.6" y2="578.1"/>
	
		<polyline id="XMLID_154_" fill="none" stroke="#5DBFD9" stroke-width="18" stroke-linecap="round" stroke-linejoin="round" stroke-miterlimit="10" points="
		1207.6,456.1 1202.3,489.4 1165.9,491.1 1203.9,467.8 	"/>
	
		<path id="XMLID_150_" fill="none" stroke="#5DBFD9" stroke-width="13" stroke-linecap="round" stroke-linejoin="round" stroke-miterlimit="10" d="
		M1283.1,463.6c22.5-4.5,38.5-13,34.5-34c0,0,53,5,62-27.5s-4-54-31-62.5"/>
	
		<path id="XMLID_156_" fill="none" stroke="#5DBFD9" stroke-width="9" stroke-linecap="round" stroke-linejoin="round" stroke-miterlimit="10" d="
		M1389.1,344.6c11,28,20.5,91.5,14,150"/>
	
		<path id="XMLID_157_" fill="none" stroke="#5DBFD9" stroke-width="9" stroke-linecap="round" stroke-linejoin="round" stroke-miterlimit="10" d="
		M1453.6,383.1c-6,14.5-24,55.5-16.5,98"/>
	
		<path id="XMLID_158_" fill="none" stroke="#5DBFD9" stroke-width="13" stroke-linecap="round" stroke-linejoin="round" stroke-miterlimit="10" d="
		M1351.6,431.1c13,26.5,51,30.5,51,30.5"/>
	
		<path id="XMLID_155_" fill="none" stroke="#5DBFD9" stroke-width="13" stroke-linecap="round" stroke-linejoin="round" stroke-miterlimit="10" d="
		M1442.6,432.1c19,19.5,58.7,19.6,78,7c20.3-13.2,31.1-21.6,21.5-46.5c-9.5-24.7-24-35-24-35s28.5-49.5,7-71.5"/>
	
		<path id="XMLID_160_" fill="none" stroke="#5DBFD9" stroke-width="13" stroke-linecap="round" stroke-linejoin="round" stroke-miterlimit="10" d="
		M1505.1,446.6c0,0,24.5,34,39.5,33"/>
	
		<path id="XMLID_161_" fill="none" stroke="#5DBFD9" stroke-width="13" stroke-linecap="round" stroke-linejoin="round" stroke-miterlimit="10" d="
		M1571.1,490.6c0,0,34.5,8.5,41-31"/>
	
		<path id="XMLID_162_" fill="none" stroke="#5DBFD9" stroke-width="13" stroke-linecap="round" stroke-linejoin="round" stroke-miterlimit="10" d="
		M1579.6,435.6c8.5,20,80,67,132,8.5"/>
	
		<line id="XMLID_163_" fill="none" stroke="#5DBFD9" stroke-width="13" stroke-linecap="round" stroke-linejoin="round" stroke-miterlimit="10" x1="1539.9" y1="481.4" x2="1541.9" y2="551.8"/>
	
		<line id="XMLID_164_" fill="none" stroke="#5DBFD9" stroke-width="13" stroke-linecap="round" stroke-linejoin="round" stroke-miterlimit="10" x1="1638.3" y1="467.4" x2="1641.3" y2="536.1"/>
	
		<polyline id="XMLID_159_" fill="none" stroke="#5DBFD9" stroke-width="8" stroke-linecap="round" stroke-linejoin="round" stroke-miterlimit="10" points="
		1262.1,647.9 1217.9,650.1 1232.6,656.4 1274.9,654.4 1261.4,648.9 	"/>
	
		<line id="XMLID_166_" fill="none" stroke="#5DBFD9" stroke-width="8" stroke-linecap="round" stroke-linejoin="round" stroke-miterlimit="10" x1="1395.9" y1="649.6" x2="1351.6" y2="640.4"/>
	
		<line id="XMLID_167_" fill="none" stroke="#5DBFD9" stroke-width="8" stroke-linecap="round" stroke-linejoin="round" stroke-miterlimit="10" x1="1374.9" y1="644.4" x2="1503.3" y2="641.1"/>
	
		<line id="XMLID_168_" fill="none" stroke="#5DBFD9" stroke-width="8" stroke-linecap="round" stroke-linejoin="round" stroke-miterlimit="10" x1="1520.4" y1="643.6" x2="1482.6" y2="636.6"/>
	
		<polyline id="XMLID_169_" fill="none" stroke="#5DBFD9" stroke-width="8" stroke-linecap="round" stroke-linejoin="round" stroke-miterlimit="10" points="
		1379.6,707.1 1377.9,743.1 1385.6,747.1 1386.3,708.8 	"/>
	
		<path id="XMLID_170_" fill="none" stroke="#5DBFD9" stroke-width="8" stroke-linecap="round" stroke-linejoin="round" stroke-miterlimit="10" d="
		M1321.6,761.4c5.3,6,41,18.3,50.3,17.7"/>
	
		<line id="XMLID_171_" fill="none" stroke="#5DBFD9" stroke-width="5" stroke-linecap="round" stroke-linejoin="round" stroke-miterlimit="10" x1="1444.9" y1="691.4" x2="1443.6" y2="683.4"/>
</g>
</svg>
