<?xml version="1.0" encoding="utf-8"?>
<!-- Generator: Adobe Illustrator 25.2.1, SVG Export Plug-In . SVG Version: 6.00 Build 0)  -->
<svg version="1.1" id="Layer_1" xmlns="http://www.w3.org/2000/svg" xmlns:xlink="http://www.w3.org/1999/xlink" x="0px" y="0px"
	 width="1000px" height="1000px" viewBox="0 0 1000 1000" enable-background="new 0 0 1000 1000" xml:space="preserve">
<g id="vs-colour">
	<path fill="#E2B77D" d="M98.6,706c4,13.2,15.6,22.6,29.2,24.6c6.9,1,15.3,3.2,22.4,7.5c14.8,9.1,29.2,20.2,66.6,19.2
		c37.4-0.9,47.4-5.5,76.9,1.5c21.6,5.1,118.3-10.1,133.8-12.5c60-9.3,96.4-20,156.9-9.7c124.4,21.2,205.6,7.8,237.8,1.5
		c42.4-8.3,157-38.1-76.1-219.5c-148.3-115.4-377.2-19-468.1-21.8c-91-2.7-38.8,75.2-100.6,102.9S93.2,661.6,97.3,700
		C97.6,702.1,98,704.1,98.6,706z"/>
	<path fill="#C48051" d="M561.8,628.8l-8.2-2.7l-11.4-0.7l-24.4,8c0,0-4.2,1-6.5,10.5s-4.3,7.6-2.8,10.7c1.5,3.1,8,13,9.3,13.6
		c1.3,0.5,13.3,5.8,13.3,5.8l26.6,11.5l50,31c0,0,21.5,17.3,154.7,12.2s112.4-65.8,112.4-65.8l-6.5-15c0,0,1.5-12.9-10.8-11.4
		C845.3,638,561.8,628.8,561.8,628.8z"/>
	<path fill="#BDD100" d="M644.5,307l-14.7,40.1l-7.7,18.1l-7.5,5.8l-10.2,6.9l3.1,4.3l7,3.9l6.9,0.4l-9.6,7.1l-16.7,7l-18,16
		c0,0,26.5,15,26.6,15.7c0.1,0.7-0.5,2.6-0.8,3.2c-0.3,0.5-8.3,5.3-8.9,5.3c-0.6,0-12.3-1.5-12.3-1.5s2.5,8.7-0.4,10.7
		c-2.9,2-14,5.8-14,5.8l9.9,10.8c0,0,27.3,19.8,28.9,20.8c1.6,1,5.2,1.9,5.2,1.9l-5.4,7.4l1.5,5.1l9.3,3.5h31.7l-4.8-4.5l25.6-18.6
		c0,0-32.8-1.3-34.7-1.4c-2-0.2-12.3-9.8-11.7-11.5c0.7-1.6-1.4-0.6,0.7-1.6c2.1-1.1,42.7-3.9,42.7-3.9s7.5-4.7,9.2-4.1
		c1.8,0.6,15.8-4.2,15.7-5.2c-0.1-1,11.2-7.7,11.2-7.7l9.6-16.2c0,0-12.9-7-13.2-7.6c-0.2-0.6,1-8,1-8l-6-5.5l-10-12.1l-8.5-9.8
		l12.5-7.9c0,0-14.2-10-14.5-10.4c-0.2-0.4-3-4.9-3-4.9l-16.9-41.2L644.5,307z"/>
	<path fill="#BDD100" d="M313.4,375.1l6.5-8.3l22.2-67.3l7.8,19.7l19.9,40.2l7.8,7.2l9.8,4.6l-3.9,10.6l-5,4.9l8.9,5.8l19.9,7.5
		l16.3,15.1c0,0-8,3.7-7.5,5.8c0.5,2,1.7,5.5,1.5,5.8c-0.2,0.3-3.5,0.7-3.8,1.9c-0.4,1.3-1.6,3.1-1.4,3.6c0.2,0.5,0.9,7.9,0.9,7.9
		s15.3,12.8,15.7,12.7s-31.3,9.8-30.5,10.7c0.8,0.9,0.8,3.1,0.8,4.5s8.9,1.6,9.6,1.6c0.7,0-0.4,2.1,0.7,4.7c1.1,2.6,6.2,8.2,7.7,9.4
		c1.4,1.2,1.9,3.5,2.5,3.8c0.6,0.3,1,4,1,4l-21.5,10.6c0,0-3.5,4.3-4.1,4.4c-0.6,0.1-7.8-0.9-7.8-0.9l-31.6-59.7l24.8-22l-34-20.3
		l-30.6-21.8L313.4,375.1z"/>
	<path fill="#53BC53" d="M870.9,668.6c0,0,12.9-13,2.1-32.1c0,0-14.8-14.4-22.2-16.6c0,0,1-16.4-11.8-25.5c-12.9-9.2-17-9.5-17-9.5
		s-4.2-17.9-22-19.9l-3,6.7c0,0,2.4,43.6,8.9,60.8c6.5,17.2,9.3,23.5,9.3,23.5s3.8-6.2,13.4-6.1c9.5,0.1,14.1,4.7,14.1,4.7l3.3,11
		c0,0,2.9,0.1,4.8-6.7c1.9-6.7,14.8-12.4,16.8-7.6C869.7,656.2,870.9,668.6,870.9,668.6z"/>
	<path fill="#53BC53" d="M754.7,548.7c0,0-10.6-2.8-19,3.5l-6.2,5.7c0,0-3.6-3.6-4-4.8c-0.4-1.3-2.5-6.5-2.5-6.5s-6.9,6.9-8.1,9.3
		c-1.2,2.4-2.2,10.1-2.2,10.1l2.8,2.5l-2.7,3.5l-12.1,6.8l-2.6-5.6l-1.2-3.9c0,0,3.1-1.3,3.3-6c0.2-4.7-2.1-10.8-3-12.1
		c-0.9-1.3-2.1,1.6-2.9,3.5c-0.8,1.9-1.2,4.7-4.9,6.6s-5,4.1-5.3,5.2c-0.3,1-16.5,1.8-24.1,9.4c-7.6,7.6-10.4,7.7-9.8,10.9
		c0.5,3.2-2.1,3.8-2.1,3.8s-33-6.1-49.8,12.4c-16.7,18.5-12.1,21.5-12.1,21.5s-24.8,4.1-33,12.7c-8.2,8.5-9,20.5-5.1,25.9
		c3.9,5.3,9.4,10.5,9.4,10.5s0.5-6.3,10.5-7.7s21,2.1,21.7,2.9c0.7,0.8,13.7,3.2,28.2,2c14.5-1.2,15.8-1.3,18.8,1.3
		c3.1,2.6,8,6.1,16.5,6.6c8.5,0.5,13.4,0.5,13.4,0.5s3.1,7.8,19.3,9.2c16.3,1.4,22-0.8,22-0.8s9.3,8.5,27.8,5.3
		c18.5-3.3,27-14.9,26.8-27.9c-0.2-13-7.8-27.3-7.8-27.3l-3.6-2.6c0,0,3.1-11.1,5.1-27.2C758.3,591.7,754.7,548.7,754.7,548.7z"/>
	<path fill="#53BC53" d="M622.5,571.1c0,0-1.9-5-7.8-3.7c-6,1.3-11.8,8.2-10.4,8.5s10.8,0.4,13.4,0
		C620.3,575.5,622.4,572.2,622.5,571.1z"/>
	<path fill="#53BC53" d="M550.7,597.2c0,0-1.2,3.8-2,7.3c-0.8,3.5-0.5,8,4.8,8.2s6-6.1,4.7-8.1C556.8,602.7,550.7,597.2,550.7,597.2
		z"/>
	<path fill="#53BC53" d="M256.4,649.9c0,0-15.2-3.8-17.4-3.6c-2.1,0.3,0,7-1.3,7.8c-1.3,0.8-17.2-7.8-25.1-7.8s-32.2,9.9-34.7,14.2
		c-2.6,4.4-9.3,6.8-8.7,12.5c0.6,5.7,6.1,14.2,6.1,14.2s-17,6.1-19.3,5.7c-2.2-0.3-31.1-2.5-37.8,2.3c-6.6,4.8-8.8,21.5-8.3,22.1
		c0.4,0.6,3.7,1.1,3.7,1.1l5.1-7c0,0,7.3-7.9,9.3-6.4s2.1,3.9,1.8,5.5c-0.3,1.5-2.4,5.3-1.4,5.5c0.9,0.3,12.9-2.5,14.9-2.7
		c2-0.3,19.9,3.6,31,6.8c11.1,3.2,11.5-2.7,11.5-2.7s1-9.1,7.3-8.2s10,2.7,8.4,5.6c-1.5,3-3.4,9.2,11.9,10.8
		c15.3,1.7,17.9-7.9,23.5-6.1c5.6,1.7,5.6,1.7,5.6,1.7s6-5.5,9.8-26.4C256,674.1,256.4,649.9,256.4,649.9z"/>
	<path fill="#BDD100" d="M528.5,553c0,0,2.1,8.6,13.2,12.5s25.4-3.4,25.4-3.4s10.7,3.9,14.3,1.2c3.6-2.7,6.2-0.1,6.2-0.1
		s1.6,2.3,3.7,0.4c2.1-1.9,2-3.3,3.9-2.6s6.2,1.4,9-2.7c2.7-4.2,6-2.1,6.8-6.4c0.8-4.3-1.3-9-1.7-9.9c-0.4-0.9-4.3-3.8-3.7-4.4
		c0.7-0.7,1.9-1.4,1.2-3.9c-0.8-2.6-1.4-2.6-2.2-2.8c-0.9-0.2-3.2,3.5-4.4,1.9s-0.9-7.3-1.6-7c-0.7,0.3-5.5,4.7-6.1,4.1
		c-0.6-0.6-5.8-5.5-6.3-7.2c-0.5-1.7-1.9-6.6-3.7-6.6c-1.8,0-15.4,1-19,5c-3.6,4-6.5,9.8-6.5,9.8l-13.2-0.8l-8-4.4
		c0,0-11-2.2-11.1-1.1C524.6,525.6,528.5,553,528.5,553z"/>
	<path fill="#704020" d="M795.5,531.3c0,0-0.6,38.9,1.5,52.2c2.1,13.4,20.6,80.5,20.6,80.5l4.3,7.8c0,0-9.3,19-39.7,23.9
		c-30.5,4.9-27.2-11.9-27.2-11.9s13-16.6,6-35.8c-7-19.2-10.8-10-6.2-25.8c4.6-15.9,2.6-46,1.5-57.4c-1.2-11.3-1.6-32-1.6-32
		L795.5,531.3z"/>
	<path fill="#704020" d="M632.9,505.6c0,0-1.9,29.6-0.1,31.5c1.8,1.8,3.8,5.2,10.6,4.2c6.8-0.9,12.2-1,13.9-2.1
		c1.7-1.1,2.2-7.2,1.9-8.7s-1.2-19.7-1.2-19.7s-3.6-4.8-8.5-5.1C644.4,505.3,632.9,505.6,632.9,505.6z"/>
	<path fill="#704020" d="M497.1,520.5c0,0-4.5,40.4-5.1,41.6c-0.6,1.3,1.4,7,5.1,6.6c3.7-0.4,7.8,1,14.8,1.3s20.3-2.9,20.4-5.4
		c0.1-2.5-7.1-16.1-7.8-21.8c-0.7-5.8,4.2-18.6,0.1-18.2C520.5,525,497.1,520.5,497.1,520.5z"/>
	<path fill="#704020" d="M256.8,598.5l16.1-2.5l2.2-13.5l2.9-6.2l9.6,19.1l14.2,3.1c0,0,2.6,64.5,3.5,77.4s2.9,28.4,2.9,28.4
		l8.7,17.3c0,0,2.5,7-6.4,4.3c-8.8-2.7-8.5,10.6-39.9,12.1s-18.5-9.5-27.3-12c-8.8-2.5-1.6-1.9,4.5-14.8c6.1-13,8.4-61.3,8.4-61.3
		L256.8,598.5z"/>
	<path fill="#C48051" d="M303.5,613.9c0,0,3.3,78,4.1,84.2s7.3,26.4,9.8,27.9c2.5,1.5,44.6-0.3,48.1-1.3c3.5-1,24.9-6.2,25.6-7
		c0.7-0.7,7.1-7,6.4-8.2c-0.7-1.2-15.8-13.1-15.8-13.1l8.1-11.3c0,0-6.5-13.3-6.8-13.5c-0.3-0.2-12.8-7.9-14.7-8.4
		s-14.3-4.2-16.5-4.6c-2.2-0.4-7-1.6-8.6-2.7s-5.4-3.4-5.4-3.4l-15.2-8.2c0,0-0.3-11.7-0.1-11.8c0.2-0.1,11.9-6.6,11.1-6.9
		c-0.8-0.3-28.7-11.8-28.7-11.8L303.5,613.9z"/>
	<path fill="#C48051" d="M391.4,506.1c0,0,2.4,11.4,2.6,11.8c0.3,0.4,9.2,11.6,9.2,11.6l13.8,2.4l32.8,5.6l12.2-0.3l8,0.3l4.7,1.8
		l2.1,3.7l2.9,2.2l5.4,2.4l2.1-1.2l4.5-1.2l1.7-23.2l-37.8-10.6l-5-8c0,0-12.2,4.2-13.6,3.7c-1.4-0.4-13.3-15.1-14.8-15.4
		c-1.5-0.3-20.9,6.2-23,10.3C397.2,506.1,391.4,506.1,391.4,506.1z"/>
	<path fill="#C48051" d="M546.6,527.6l14-11c0,0,0.8-7.6,2.6-7.5c1.9,0.1,10.2,6.9,10.2,6.9s-6.2,0.3-9.4,3.6
		c-3.2,3.2-7.1,7.8-6.2,9.5c0.8,1.7-7.4,2.6-8.9,1.3C547.3,529,546.6,527.6,546.6,527.6z"/>
	<path fill="#C48051" d="M584.9,520c0,0-1.4-3.2-0.5-4.6c0.8-1.4,18.2-13.8,19.8-13.5c1.5,0.3,4.9,3.6,5.2,3.6s22.8,0.9,22.7,1.4
		s0,24.1,0,24.1s-6.1,2.7-5.8,3.6c0.3,0.8,0.2,2.5,0.2,2.5l4.3,4.8c0,0,5.8,4.4,6,4.6c0.3,0.2,1.5,1.4,1.8,2.6c0.3,1.2,0,3.1,0,3.1
		s-3.3,1.2-4.3,1.3c-0.9,0.1-4.2,0.1-4.7,0c-0.5-0.1-4.7-0.1-4.7-0.1l-6.1,2.5l-3.8,2.4l-11.4,2.5l3.5-3.7c0,0,3.6-2.4,4.3-4.1
		c0.7-1.7-0.2-8.8-0.3-9c-0.1-0.2-2.9-3.5-3.5-4.4s-1.3-1.9-1-4.3c0.2-2.4,1.2-5.2-0.4-5.3c-1.5-0.1-4.3,3.9-5.3,2.5
		c-1-1.4-2.6-6.9-2.6-6.9s-0.6,3.8-3.4,3.9s-7-4.2-7.5-4.7c-0.4-0.5-0.1-2.7-0.7-3.5S584.9,520,584.9,520z"/>
	<path fill="#C48051" d="M661.2,534.5c0,0-3.2-23.1,0-23.2c3.2-0.1,33.6,10.3,38,10.3c4.3,0,20.4,7.9,20.4,7.9s-5,2.9-7.1,2.6
		c-2.1-0.3-3.6-0.7-4.8,0.1s-2.4,2.5-3.5,2.7c-1.1,0.3-14.3,2.7-15,2.8c-0.7,0.1-11.4-2-13.4-1.2c-2,0.8-11.7,2.9-11.7,2.9
		l-14.1,8.5c0,0-3.5,0.5-3.4,2c0.1,1.4-6.8,1.8-7.4,1.1c-0.5-0.7-1.9-4.9-5.6-6.5c-3.7-1.5-7.1-7.3-7.1-7.3l-0.7-2
		c0,0-0.1-2.8,0.9-3.5c0.9-0.6,4-1.4,4-1.4l1.9,6.7c0,0,3.6-0.1,6,2.2c2.4,2.4,5.6-3.7,12.9-3.2c7.3,0.5,6.4,0.9,7.3,0.5
		C659.9,536.3,661.2,534.5,661.2,534.5z"/>
</g>
<g id="vs-secondary">
	<path fill="#3ACE95" d="M399.2,469.4V461l33.6-9.5l33.6-22.7l-6.6-4.6l-9.4,5.9l-12.8-2.7l1.9-9.8l-5.9-8.8l8.5-4.5l-6.6-11
		c0,0,2.6,0.1,6-0.2c3.4-0.3,5.2,0.7,13.3,1.2c8.1,0.4,27.2-4.5,27.2-4.5l11.5-10.5l-9.6-0.6l-8-3.4l12.8-7.2l-8.1-9.5
		c0,0,1.3-2.8,1.8-2.7s9.2,1.6,9.2,1.6l14.6-3.8l11.8-19.3l4.8-9.5l11.6-22.4l2.1,1.3l11.2,40.5c0,0,6.4,18.1,6.8,18.7
		c0.4,0.6,8,3.3,9.9,3.6s9,0.9,9.4,0.8c0.3-0.1-2.4,5.4-2.4,5.4l-17.4,5.9l5.3,8l-8.9,1.2l7,15.1l13.4,11.5c0,0,9.5,7.2,10.4,7.1
		c0.9-0.1,23,11,23,11l-6.5,6.2l-7.9,1.5l-6.8-2l-1.2,10.7c0,0-1.4,1.8-1.9,2c-0.5,0.3-13.6,3.3-13.6,3.3l5.1,8.6l23.1,17.2
		l15.5,9.9l-3.3,7.2l-14.8,10.5l-14.2,8.5l-12.9-10.1l-3.9,8.5l-5.4,5.4l-10.8,7.3l-11.1-1.9l-4.9-7l-6.2,6.7l-45.2-8.7l-21.4-5.3
		l-3.2-9.7l-15.7,4.2l-3.3-2.5l-13.3-17.3c0,0-2.8-4.9-3.4-5.2c-0.6-0.2-6-5.7-6-5.7l1.9-4.9L399.2,469.4z"/>
</g>
<g id="vs-primary">
	<path fill="#53BC53" d="M56.3,561.3c0,0-2.5,7.3,0,7c2.5-0.3,13,11.2,15.1,10.5c2.1-0.8,18.8-1.1,20.7-1.4
		c1.9-0.2,24.2-3.1,24.2-3.1l-23,14.6c0,0,5.8,4.5,6.5,4.9c0.8,0.3,6-0.5,7,0c1,0.5,41-3.9,42-4.6c0.9-0.7,2.7-2.5,4.1-3.9
		c1.4-1.4,27.5-25.8,27.5-25.8s-7.3,18.8-8.1,20.6c-0.7,1.8-7.7,13.8-7.7,13.8h2.9c0,0,12.1,7,14.9,7.7c2.8,0.7,19.4,2.6,19.9,2.5
		c0.4-0.1,70.5-9.6,70.5-9.6l5.2-18.2l5.6,5.2l2.4,12.3c0,0,52.5,8.3,56.6,9.2c4.1,0.8,13.8,1.8,18,1.2c4.2-0.6,9.6-1.3,9.6-1.3
		l1.4-6.8c0,0,0.6-7.2,0.3-8.8c-0.3-1.5,3.2-7.2,3.2-7.2s6.2,7,7.8,8.9s2.1,4.3,6,6.2c3.9,1.9,37.7,1.5,38.3,0.9
		c0.7-0.7,3.9-1.4,7.6-2.8c3.7-1.5,42.3-20.2,42.3-20.2l3.3-6.3c0,0-17,0.7-30.5-9.1c-13.6-9.8-44.5-24.3-47.3-26.9
		c-2.7-2.6-11.5-17.5-11.5-17.5s-19.8-34.4-20.4-36.7c-0.6-2.2-15.1-29.3-14.7-30.1c0.4-0.9,5-4.7,5.7-5.3s17.3-15.9,17.3-15.9
		s0-2.2-1.3-2.9c-1.3-0.7-45.4-28.8-45.4-28.8s-26.6-22.3-30.4-26.1c-3.7-3.8-14-17.3-13.8-18c0.2-0.7-1.7-13.8-1.7-13.8l12.9,9.9
		c0,0,14.1-15.6,12.9-17.5c-1.3-1.9-26.3-31.4-26.3-31.4s-22.6-27.3-24.7-30.1c-2.1-2.8-15.1-23.5-17.4-23.2
		c-2.4,0.3-3.2,0.3-3.2,0.9c0,0.6-2.1,28.5-3.1,35.5s-11.7,35-13.1,38c-1.4,2.9-10,10-9.1,10.5c0.9,0.4,18.9,16.7,18.3,17.9
		S221,371.2,208.1,387c-12.8,15.8-30.1,31.8-30.1,31.8l-20.9,18.7c0,0,1.8,4.8,3.3,5.1c1.5,0.3,21.6,10.2,22.2,11.4
		c0.6,1.3,0.4,4.8,0.4,4.8s-10,16.9-22.5,32.8c-12.5,15.9-45.8,43.7-49.2,46.1C107.8,540.2,56.3,561.3,56.3,561.3z"/>
	<path fill="#53BC53" d="M758.7,244.6c0,0-3.6,24.8-3.6,25.3c-0.1,0.4-5.5,11-5.5,11l-2.8,9.1l-4.4,18.7c0,0-6.1,8.4-7.6,9.5
		s-10.7,2.6-12.2,3.4c-1.5,0.9-14,0.2-13.6,0.9c0.4,0.7,6.6,9,8.6,9.7c2,0.7,10.8,3.2,10.8,3.2s-5.2,6.5-5.1,6.5
		c0.1-0.1,4.9,3.3,4.9,3.3l9.2,3.6l-4.1,9.3c0,0-7,8.1-7.4,8.4c-0.3,0.4-11.6,14-11.6,14l-5.5,4.2l-24.3,13.2c0,0,0.9,5,2,6.6
		c1.1,1.6,9.9,7.7,10.8,7.5c0.9-0.2,3.7,0.4,3.7,0.4l-4.8,8.2l3.8,4.3l10.5,6.5v5.8l-6.8,8.7l-8.3,5c0,0-19.5,10.3-21.9,11.5
		c-2.4,1.2-12.3,2.1-12.3,2.1s-35.4,2-36,2.3c-0.6,0.4-0.6,0.4-0.6,0.4s2.5,6.5,4.2,8.2s11.8,5.6,19.3,6c7.5,0.3,18.2,0,18.2,0
		s-11.6,12.5-12.1,12.8c-0.4,0.3-6.7,3.9-6.7,3.9s-1.6,4.5-0.9,5.1c0.7,0.6,7.5,4.3,7.5,4.3l45,12.1l30,14.7l10.4-0.4l79.9-4h5
		l49.9-23.8c0,0,11.5-5.5,14.3-5.2c2.8,0.4,14.6,0,14.6,0s25.6-12.4,30-17.1s4.4-4.7,4.4-4.7s-10.6-1.5-11.4-1.5
		c-0.8,0-18.9,0.9-28.2-2.2c-9.3-3.1-28.6-15.9-29.8-17.3c-1.3-1.4-31.7-28-31.7-28l-0.6-3.8c0,0,6.9-1.4,8.3-2.4s5.8,0.3,2-8.2
		c-3.7-8.5-6.3-6.9-1.9-8.4c4.4-1.5,11.3-2.2,13.3-4.9c2-2.7,3.1-8.1,3.1-8.1l-4.7-1.3l-27.5-5.4c0,0-8.2-1.5-13.8-8.1
		c-5.5-6.6-7.8-13.6-10.5-16.4c-2.7-2.9-11.9-9.9-11.9-9.9l-7.8-6c0,0,1.4-6.9,3.6-6.4c2.2,0.5,2,3.6,8.5,0.9
		c6.5-2.7,16.4-7.6,15.6-9.5c-0.8-1.9-18.2-13-21-16.6c-2.8-3.6-13.9-14.7-14.8-16.7c-0.9-1.9-6.7-23.5-7.4-28.5
		C768.5,265.1,758.7,244.6,758.7,244.6z"/>
</g>
<g id="vs-shade">
	<path opacity="0.2" enable-background="new    " d="M731.3,361.5c0,0,6.6,5.5,9.1,5.5c2.5,0,3.4,0.3,6.8,0s7.9-6.4,13.3-2.7
		c5.3,3.7,10.7,6,10.7,6s7.6-7.5,9.7-7c2.1,0.4,11.1-2.7,12.7-3c1.5-0.3,4.5-2.8,4.5-2.8s-9-14.5-11.9-15.4c-3-0.9-5.2-1.9-5.2-1.9
		s-22,9.2-25.8,9.5c-3.7,0.3-7,4.5-12.6,2.3c-5.6-2.2-5.6-2.2-5.6-2.2L731.3,361.5z"/>
	<path opacity="0.2" enable-background="new    " d="M716.6,378.1c-1.5,1.6-2.7,17.7-4.1,22c-1.4,4.3-4.3,6.5-4.3,6.5l21.6,13.5
		l18.4-6.5c0,0,3.6-6.2,4.5-7c0.9-0.8,42.8-3.7,42.8-3.7s8.1,3.3,10.4,5.2c2.3,1.9,16.1,1.3,16.1,1.3l19.3,1.1l5.6,8.1l-8.6,7.1
		c1.1,3.2,8.6,13.6,8.6,13.6l3.6,7.5l-15.5,2.7c0,0-15.3-8.4-19.1-3.7s-19.2,11.2-20.4,9.4c-1.3-1.8-11.8-18.1-11.8-18.1
		s-8.3,13.7-10.2,14.6c-1.9,0.9-17.3,2.8-17.3,2.8l-10.3-8.7l-31.8,1l-5.9-2.6l3.2-13.3l-15.9-8.5l4.6-9.4c0,0-9.8-7.3-11.3-9.2
		s-4.6-5.3-4.6-5.3L716.6,378.1z"/>
	<path opacity="0.2" enable-background="new    " d="M752.4,275.1c-0.4,0.7-2.2,33.3,0,40.1c2.2,6.8,2.2-5.5,9.3,8.3
		c7.1,13.9,17.6,15.1,15.1,16.6c-2.5,1.6-23.4,9.7-25.4,10c-2,0.3-14.4-0.4-14.4-0.4l-12-9.1l10-5c0,0-13.5-3.3-19.5-6.5
		s-5.1-4.6-5.1-4.6s13.3-1.9,20.8-4.3S743.3,316,746,307S752.4,275.1,752.4,275.1z"/>
	<path opacity="0.2" enable-background="new    " d="M624.5,471.2c1.3,1,4.5,7.7,11.1,9.7c6.6,2,26.1-0.3,27.7-0.7s6.2-2.7,4.7,0.4
		c-1.4,3.1-13.2,11.2-13.9,11.7c-0.8,0.5-9.7,6.7-9.7,6.7s5.4,4.2,7.7,6.2c2.3,2.1,42.2,11.2,48,14.3c5.8,3.1,31.7,14.6,31.7,14.6
		s-7.9-5.5-7.5-10.7c0.4-5.2,0.5-21.8-0.2-23.6s-11.4-14.7-10.6-19.6c0.8-4.9,0.8-27.7-1.4-27.3c-2.2,0.4-18.6-0.8-21.6,0.5
		c-3,1.4-19.5,8.2-19.5,8.2l-48.9,4.9L624.5,471.2z"/>
	<path opacity="0.2" enable-background="new    " d="M756.2,609.3c0,0,8.2-16.2,18.4-26.7c12.7-13.1,20.9-17.5,20.9-17.5l-1.8-33.4
		l-40.4,1.3L756.2,609.3z"/>
	<path opacity="0.2" enable-background="new    " d="M643.8,315.5c0,0-7.7,24.1-4.5,34.7c3.2,10.7,10,17.3,6.8,20.1
		c-3.1,2.9-14.5,8.3-6.8,13.2c7.7,4.9,16.7,7.5,15.9,7.1c-0.8-0.3-18.5,2-18.5,2s-6.4-2.5-8.5-3.9s-13.6-2.6-13.6-2.6
		s-8.1-3.8-8.4-5.2c-0.3-1.4-2-3.1-2-3.1l16.2-10L643.8,315.5z"/>
	<path opacity="0.2" enable-background="new    " d="M604.4,398.5c0,0,7.9,5.8,8.8,6c0.9,0.2,4.7,0.6,4.7,0.6l9.1,1
		c0,0,3.6,8.1,4.7,8.9c1,0.8,12.1-2.8,12.1-2.8l9.6-5.3c0,0,9.6-3.3,11.1-2.1c1.5,1.3,8.1-3.7,8.1-3.7l8.4-6.3l-6.2-7.2l-3.8,3.1
		l-11.8-7.2l-2.2,8.7c0,0-10.4-0.6-12.9,0c-2.5,0.6-9,0.9-9,0.9s-3.5-1.8-6.9-4.4s-10.2-2.4-10.2-2.4s-2.7,3.1-4.7,6.3
		C611.3,395.9,604.4,398.5,604.4,398.5z"/>
	<path opacity="0.2" enable-background="new    " d="M582.9,448.6c0,0,2.6,7.9,6.7,7.9s5.6-5,8.5,2.1c2.9,7.2,6.3,11.9,6.3,11.9
		l8.8,2.2l8.9-0.8l2.4-6.2c0,0,42.5-2.2,50.5-5.3c8.1-3.1,22.6-9.7,25.1-11.1c2.5-1.4,7-11.7,7-11.7s-15.8,6-19.3,6.4
		c-3.5,0.4-17.1,4.3-19.9,5.5c-2.9,1.3-21.3,5.8-22.8,5.6c-1.6-0.1-20.5-0.8-20.5-0.8l-2.5-2.1l3.9-9.1l-3.8-4.5l-4,0.2
		c0,0-3.8,8.2-4.9,9.8c-1.1,1.6-3,4.1-4.8,4c-1.9-0.2-6.9-2.4-7.4-2.9c-0.5-0.5-7.2-8.9-7.2-8.9l-11.1-2.5
		C582.7,438.4,575.3,437.6,582.9,448.6z"/>
	<path opacity="0.2" enable-background="new    " d="M632.7,520.8c0,0-2.3-5.1,4.4-4.2c6.7,0.9,12.9,0,12.9,0l9.1-0.6
		c0,0-2.3-6.6-2.6-6.9c-0.3-0.3-7.9-4.7-7.9-4.7l-15.8,0.9L632.7,520.8L632.7,520.8z"/>
	<path opacity="0.2" enable-background="new    " d="M534.3,302.5c0,0-23.5,60.3-21,57.9c2.5-2.4,4.5-6.2,11.6,0.1
		s21.8,24.5,21.8,24.5s14.2,18.8,5.8,17c-8.4-1.8-17.2-3.2-27.5-0.4c-10.4,2.8-13.1-5.5-23.6-2.4c-10.5,3.2-28.8,2.4-29.8,2.7
		c-1,0.3-29-4.7-29-4.7s34.5-5.3,35.8-5.9s10.8-5.3,13.1-7.1c2.3-1.9,5.9-3.2,3.7-3.9c-2.2-0.7-14.1-2.6-14.5-3.6
		c-0.3-1-4.4-1.9-1.6-3.4s12.4-5.6,12.4-5.6s-2.4-2.5-4.9-4c-2.6-1.5-7.5-8.2-6.4-8.3c1-0.1,1.6-1.1,4.5-0.4
		c2.9,0.6,14.4,3.7,16.7,1.5c2.3-2.1,25.3-38.2,25.3-38.2L534.3,302.5z"/>
	<path opacity="0.2" enable-background="new    " d="M466.4,428.7l-25,17.8v6.4l10.4,8.9c0,0,13.9-1.6,16.3,0
		c2.5,1.6,11.8,9.6,11.8,9.6l12.3,6.1l46.5-0.9l14.6-1.9l18-3.4l-3.7-12.1l-4.2-6.4l-14.4-4.3l-9.5,4.5l-7.5,6.1l-62.4-4.7
		l-11.2-2.8c0,0,0.9-6,2.5-7S466.4,428.7,466.4,428.7z"/>
	<path opacity="0.2" enable-background="new    " d="M494,541.3c0.8,0,4,1,7.3,2c3.3,0.9,1.6,2.1,8.2-1c6.6-3.1,7.6-3.7,8.7-3.1
		c1.2,0.5,3.6-0.2,4.3-1.4c0.7-1.3,1.5-15.2,0-14.7c-1.5,0.5-0.3,1.3-2.7,1.2c-2.4-0.2-19.7-4.5-19.7-4.5s-1.9,0.5-2.6,1.6
		C496.9,522.4,494,541.3,494,541.3z"/>
	<path opacity="0.2" enable-background="new    " d="M242.5,257.5c0,0,5.2,9.6,9.2,21s0.8,29.5,11.3,35.6s21.2,14.2,21.6,17.8
		s3.8,17.6,3.8,17.6l-7,12.5c0,0,3.9,13,0,13c-3.9,0-18.4,0-18.4,0s-14.2-1.4-16.8,0c-2.5,1.4-5.3-3.2-6.7-3.2s-7-4.6-8.3-4.2
		c-1.4,0.4-7.9-1.2-7.9-1.2s12.4-23.8,10.8-24.1S211,329,213.2,328.7c2.2-0.4,16.3-14.3,20.5-29.2S242.5,257.5,242.5,257.5z"/>
	<path opacity="0.2" enable-background="new    " d="M233.2,381.4c0,0-46.5,55.2-50.6,58.5c-4.2,3.2-10.2,8.1-3.9,11.7
		c6.3,3.7,21.6,10.4,22.1,10c0.5-0.4,1.4-2.7,1.4-2.7s2.9-12.8,3.6-12.4c0.7,0.3,7.8,6.2,7.8,6.2l8.6-25l23-38.6
		C245.1,389.2,245.1,371,233.2,381.4z"/>
	<path opacity="0.2" enable-background="new    " d="M239.8,463.8c0,0,8.9-61.6,10.8-59c1.9,2.6,8.1,64.5,6.3,64.1
		S239.8,463.8,239.8,463.8z"/>
	<path opacity="0.2" enable-background="new    " d="M351.7,423.9c0,0-24.9-19-31.5-19.2c-6.6-0.2-19.1-4.9-18.1-1.7
		c0.9,3.2,20.4,51.8,23.8,52.4c3.3,0.7,12.8-1.1,13.3-2.6C339.8,451.4,347,423.3,351.7,423.9z"/>
	<path opacity="0.2" enable-background="new    " d="M160.4,491.6c2,1.9,40,5.7,40,5.7s8.4,10.7,13,12.5c4.7,1.7,38.7-8.7,38.7-8.7
		h29.2l8.8-3.7l21.2-5.7l22.2-1.2c0,0,11.3-5.1,15.8-6.8c4.4-1.7,20.3-5.5,18.7-8.5c-1.6-3-7.2-13.4-7.2-13.4l-5.4-15.2l-2.8,2.4
		c0,0-4.4-19.4-4.7-17.9c-0.3,1.5-8.7,21.9-8.7,21.9s-62.1,12.1-65.1,12.7S257,469,257,469l-29.1-4.1l-4.7-1l-17.5-17.3l-3.6,12.4
		l-10.6-0.9l-8.4-3.3l-7.2,19.7L160.4,491.6z"/>
	<path opacity="0.2" enable-background="new    " d="M316.1,596.1c0,0-10.1-53.2,7.3-50.4c17.4,2.8,40,49.1,44.7,52.8
		c4.8,3.7-0.6,4.3-5.9,5.9c-5.4,1.5-19.6-0.2-22.9-1.9C335.9,600.7,316.1,596.1,316.1,596.1z"/>
	<path opacity="0.2" enable-background="new    " d="M233.8,597.5c0-2.2,20.7-52.7,9.6-54.7c-11.1-2.1-15.8,43.7-34.1,46.2
		s-47,0.7-44.6,3.7c2.4,3,3.3,8.2,15,10.4C191.5,605.3,233.8,597.5,233.8,597.5z"/>
	<path opacity="0.2" enable-background="new    " d="M150.4,503.4c0,0-1.2,26.8-43.5,62.7c-11.2,9.5,50.6-8.3,66.4-12.7
		s2,11.1,2,11.1L148,588.9l-45.4,5.9l-9.2-4.4l23.5-14.1l-35.9,2.5c0,0-19.8-7.6-21.3-8.7c-1.5-1-1.9-8.4-2.2-8.8
		c-0.2-0.4,29-12.8,30.5-12.8s28.3-14.4,28.3-14.4L150.4,503.4z"/>
	<path opacity="0.2" enable-background="new    " d="M256.4,633.5c0,0-9.2,97.9,27.9,36.7c5.6-9.4,17.7-39.3,17.7-39.3l1.8-10.5
		v-24.3l-15-0.4l-8.8-20.4l-6.5,22.2l-15.6,1L256.4,633.5z"/>
	<path opacity="0.2" enable-background="new    " d="M625.5,591.5c0,0-26.8,5.8-22.1,26.9c0,0,10-4.4,11.6-3.5s-7.2,12.2,7.5,12.7
		c0,0,16.2-18.6,19-18c0,0-8.2,17.4,10.4,21.4c0,0-11.2,8.7,2.2,23.1c0,0,7.8-0.3,9.9,9c0,0-6,8.8,8.8,20.8c0,0-16.1,11.8-33.9,2.5
		c-17.8-9.4-15.9,7.6-34.8-1.5s-35,3.7-44.1-1.8c-9.1-5.5-33.2-18-21.2-37.7s43.6-19.7,43.6-19.7S594.4,594.9,625.5,591.5z"/>
	<path opacity="0.2" enable-background="new    " d="M203.2,648.2c5.8-1.5,12.2-1.6,15.8-0.2s4.1,9.4-7.9,13.6s-10.6-7.7-5.3,1.8
		s25.3,5.3,17.9,13.4c-7.3,8.1-14.1,7.4-20.6,12.4s15.9,4.1,15.4,11.5c-0.5,7.4-10.5,5.9,0,12.2c10.5,6.3,23.8,8.5,23.8,8.5
		s-5,1.8-14.6,11.4c-9.6,9.6-27.8,11.7-38,7.7s-11.4-3.7-20.4-9.3c-8.9-5.5-25.5-9.6-28.2-8.9c-2.7,0.6-4.6,8.4-11.5,3.7
		c-6.9-4.7-13.1-2.5-5.7-7.5s5.3-13.4,3.9-13.9c-1.3-0.5-7.7,4.6-9.2,6.6c-1.5,2-4,8.2-5.1,7.3s-1.5-5.2-0.9-8.4
		c0.5-3.1,0.1-9.1,4.9-13.5c4.8-4.4,14.7-5.8,23.6-4.8c8.9,1,34.2-5.7,34.2-5.7s-8.8-5.4-8-10.8c0.9-5.4,3-11.2,7.3-13.8
		C179.3,659.1,203.2,648.2,203.2,648.2z"/>
	<path opacity="0.2" enable-background="new    " d="M438.4,538.8c0,0,4.2-8.9,18-7.3c13.9,1.5,37.5-3.9,37.5-3.9l-0.8,26.4
		c0,0-29.8-0.4-27,0C469,554.3,425.9,551.6,438.4,538.8z"/>
</g>
<g id="vs-stroke">
	
		<path fill="none" stroke="#000000" stroke-width="7.6713" stroke-linecap="round" stroke-linejoin="round" stroke-miterlimit="10" d="
		M239,724.7c3.9-3,7.1-8.1,9.5-15.1c2.5-7,4.3-16,5.5-26.8c1.3-10.8,2.1-23.3,2.5-37.4c0.4-14.1,0.5-29.8,0.3-47"/>
	
		<path fill="none" stroke="#000000" stroke-width="7.6713" stroke-linecap="round" stroke-linejoin="round" stroke-miterlimit="10" d="
		M316.1,718.5c0,0-0.3-0.4-0.8-1.3c-0.5-0.8-1.2-1.9-2-3.3s-1.6-2.9-2.5-4.5c-0.9-1.6-1.8-3.4-2.5-5.1c-0.8-1.7-1.5-9.2-2.3-19.4
		c-0.8-10.2-1.4-23.2-2.1-36.1c-0.7-12.8-1.1-25.4-1.5-34.8c-0.4-9.4-0.5-15.6-0.5-15.6"/>
	
		<path fill="none" stroke="#000000" stroke-width="7.6713" stroke-linecap="round" stroke-linejoin="round" stroke-miterlimit="10" d="
		M312.4,328.1c-3.8-3.1-10.4-10.4-18-19.5c-7.6-9.2-16.3-20.2-24.5-30.8c-8.2-10.6-15.9-20.9-21.6-28.5c-5.7-7.6-9.3-12.5-9.3-12.5
		s0.4,4.2,0.5,10.8s-0.1,15.8-1.2,25.7c-1.2,9.9-3.4,20.6-7.3,30.4c-3.9,9.8-9.6,18.7-17.8,25l5.3,4l5.3,4l5.3,4l5.3,4l2-2.4l2-2.4
		l2-2.4l2-2.4l0.5,6l0.5,6l0.5,6l0.5,6c0,0,1.1-0.3,3.2-0.7c2.1-0.4,5-1.2,8.8-1.9c3.8-0.8,8.3-1.8,13.4-2.8s10.8-2.2,17-3.3l-0.6-5
		l-0.6-5l-0.6-5l-0.6-5l4,4l4,4l4,4l4,4l3-4.6l3-4.6l3-4.6L312.4,328.1z"/>
	
		<path fill="none" stroke="#000000" stroke-width="7.6713" stroke-linecap="round" stroke-linejoin="round" stroke-miterlimit="10" d="
		M234.2,344.8c0,0-0.5,2.2-2.5,6.4s-5.2,10.5-10.6,18.5c-5.4,8.1-13,18-23.6,29.5c-10.6,11.5-24.2,24.7-41.5,39.3c0,0,2,1.4,5.2,3.5
		c3.2,2.1,7.7,4.8,12.5,7.6c4.9,2.7,10.1,5.5,15.1,7.5c4.9,2,9.5,3.3,12.9,3.1l1.2-3.9l1.2-3.9l1.2-3.9l1.2-3.9l4,4.7l4,4.7l4,4.7
		l4,4.7c0,0,1.3,0.2,3.4,0.4c2.1,0.3,5.2,0.7,8.5,1.2c3.5,0.5,7.3,1.1,11.2,1.8c3.9,0.7,7.9,1.5,11.5,2.4l20.6-4l20.6-4l20.6-4
		l20.6-4l2.7-7.1l2.7-7.1l2.7-7.1l2.7-7.1l0.5,6.2l0.5,6.2l0.5,6.2l0.5,6.2l7.5-6.1l7.5-6.1l7.5-6.1l7.5-6.1
		c-19.9-10.5-35.8-20.8-48.5-30.4c-12.7-9.5-22.2-18.2-29.3-25.7c-7-7.4-11.6-13.5-14.4-17.8c-2.8-4.3-3.8-6.6-3.8-6.6"/>
	
		<path fill="none" stroke="#000000" stroke-width="7.6713" stroke-linecap="round" stroke-linejoin="round" stroke-miterlimit="10" d="
		M355.5,446.5c0,0,2.5,4.7,6.2,11.9c3.8,7.2,8.9,16.8,14.2,26.6c5.3,9.8,10.7,19.8,15.1,27.8c4.4,7.9,7.8,13.8,9,15.3
		c1.3,1.5,3.3,3.2,6.1,5.1c2.8,1.9,6.2,3.9,10.2,6.2c3.9,2.3,8.3,4.8,13,7.5s9.5,5.7,14.5,8.9c4.9,3.2,10,5.6,14.8,7.5
		c4.8,1.9,9.4,3,13.3,3.8c3.9,0.8,7.2,1.2,9.6,1.4c2.4,0.2,3.7,0.2,3.7,0.2s-3.1,1.6-7.9,4.2c-4.8,2.5-11.3,5.8-18.1,9.1
		c-6.7,3.3-13.8,6.6-19.6,9.1c-5.8,2.5-10.5,4.2-12.4,4.2c-1.3,0-3.2,0.1-5.4,0.2c-2.2,0.2-4.8,0.3-7.5,0.5
		c-2.6,0.2-5.4,0.5-8.1,0.8c-2.6,0.3-5.2,0.5-7.4,0.8c-1.2,0.1-2.4,0.1-3.5-0.1c-1.2-0.2-2.2-0.4-3.3-0.9c-1-0.4-2.1-1-3-1.6
		c-0.9-0.7-1.8-1.4-2.6-2.3l-4.3-4.9l-4.3-4.9l-4.3-4.9l-4.3-4.9c0,0,0.4,1.8,0.9,4.4s1.3,6.1,1.9,9.7c0.6,3.6,1.2,7.1,1.4,9.9
		c0.2,2.8,0.2,4.8-0.4,5c-0.6,0.3-2.5,0.7-5.2,1c-2.6,0.3-6,0.7-9.5,0.8c-3.5,0.2-7.1,0.2-10.1-0.1s-5.8-0.8-7.3-1.8
		s-5.6-1.8-10.9-2.6c-5.3-0.8-11.7-1.5-18-2.1c-6.2-0.6-12.3-1.1-16.8-1.5c-4.5-0.3-7.5-0.5-7.5-0.5l-2-7l-2-7l-2-7l-2-7l-1.7,5.5
		l-1.7,5.5l-1.7,5.5l-1.7,5.5v1.5v1.5v1.5v1.5l-7.4,0.6l-7.4,0.6l-7.4,0.6l-7.4,0.6l-11.1,1.2l-11.1,1.2l-11.1,1.2l-11.1,1.2
		c-1.9,0.2-3.7,0.3-5.5,0.2c-1.8-0.1-3.7-0.2-5.5-0.4c-1.8-0.3-3.6-0.7-5.4-1.2c-1.8-0.5-3.6-1.1-5.3-1.8l-3.4-1.4l-3.4-1.4
		l-3.4-1.4l-3.4-1.4l2-3.1l2-3.1l2-3.1l2-3.1l2.9-7.4l2.9-7.4l2.9-7.4l2.9-7.4c0,0-2,2.2-5,5.5s-7,7.8-11.2,12.3
		c-4.1,4.5-8.3,9.1-11.7,12.7c-3.4,3.6-5.9,6.1-6.7,6.6c-0.8,0.4-3.9,1-8.3,1.6c-4.3,0.6-9.9,1.3-15.3,1.8
		c-5.5,0.6-10.9,1.1-15.1,1.5c-4.2,0.4-7.1,0.6-7.6,0.6s-1.5-0.4-2.7-1c-1.3-0.6-2.7-1.4-4.2-2.1c-1.4-0.8-2.8-1.5-3.8-2.1
		s-1.6-1-1.6-1l8.2-3.8l8.2-3.8l8.2-3.8l8.2-3.8l-8.1,1l-8.1,1l-8.1,1l-8.1,1c-1.8,0.2-3.9,0.6-6.4,0.9c-2.4,0.2-5.2,0.3-8.1-0.1
		c-2.9-0.4-6.1-1.2-9.4-2.8s-6.7-3.9-10.3-7.4v-1.8v-1.5V563v-1.8c0,0,3.1-1.2,7.7-3.1s10.8-4.4,17.2-7c6.4-2.6,12.8-5.3,17.9-7.4
		c5.1-2.1,8.8-3.8,9.6-4.4c12.3-7.9,23.2-17.2,32.7-26.6c9.4-9.4,17.4-18.9,23.9-27.4c6.5-8.5,11.3-16.1,14.6-21.4
		c3.3-5.4,5-8.7,5-8.7"/>
	
		<path fill="none" stroke="#000000" stroke-width="7.6713" stroke-linecap="round" stroke-linejoin="round" stroke-miterlimit="10" d="
		M721.5,322.4c2.5,0,4.8-0.4,7.1-1.1s4.3-1.8,6.2-3.1c1.9-1.4,3.6-3,5-4.9c1.4-1.9,2.5-4,3.3-6.3c1.2-3.6,2.6-7.6,3.9-11.5
		c1.3-3.9,2.6-7.9,3.8-11.5s2.2-6.8,3-9.4c0.8-2.6,1.3-4.4,1.4-5.3c0.2-1.4,0.5-3.9,1-7c0.4-3.1,0.8-6.6,1.2-10s0.8-6.6,1-9
		c0.3-2.4,0.4-3.9,0.4-3.9s0.7,2,1.8,5c1,3.1,2.5,7.2,3.9,11.5c1.4,4.3,2.9,8.8,4.1,12.5c1.2,3.7,2,6.7,2.2,8.1s0.4,2.8,0.6,4.4
		s0.5,3.3,1,5.2c0.5,1.9,1.2,4.1,2.1,6.5c1,2.4,2.3,5.2,4.1,8.2c2.6,4.5,6.1,8.8,9.9,12.7s7.7,7.2,11.4,10.1c3.7,2.8,7,5.1,9.4,6.6
		c2.4,1.5,3.9,2.4,3.9,2.4l-3.9,2.5l-3.9,2.5l-3.9,2.5l-3.9,2.5l-3.7-0.8l-3.7-0.8l-3.7-0.8l-3.7-0.8l-5.8,2.1l-5.8,2.1l-5.8,2.1
		l-5.8,2.1c-2,0.8-4.2,1.3-6.3,1.6c-2.1,0.4-4.3,0.5-6.4,0.5s-4.3-0.3-6.4-0.7c-2.1-0.4-4.2-1-6.2-1.9l-3.1-1.3l-3.1-1.3l-3.1-1.3
		l-3.1-1.3l2.3-1.6l2.3-1.6l2.3-1.6l2.3-1.6l-3-0.8l-3-0.8l-3-0.8l-3-0.8c-1.3-0.4-2.6-0.9-3.8-1.5c-1.2-0.7-2.3-1.4-3.3-2.3
		c-1-0.9-1.9-1.9-2.7-3c-0.8-1.1-1.5-2.3-2.1-3.6l0,0l0,0l0,0l0,0h3.5h3.5h3.5L721.5,322.4L721.5,322.4z"/>
	
		<path fill="none" stroke="#000000" stroke-width="7.6713" stroke-linecap="round" stroke-linejoin="round" stroke-miterlimit="10" d="
		M782.7,339.6c0,0,0.1,0.6,0.4,1.6c0.3,1,0.9,2.5,1.9,4.1c0.9,1.6,2.4,3.6,4.3,5.6c1.9,2,4.4,4.1,7.6,6c3.2,1.9,5.7,4.4,7.9,7.2
		c2.1,2.7,4,5.8,5.9,8.7s3.8,5.9,6.2,8.4c2.4,2.6,5.2,4.8,8.9,6.5c1.4,0.6,4.1,1.3,7.6,2.1c3.4,0.8,7.5,1.5,11.4,2.2
		c3.9,0.7,7.7,1.4,10.6,2s4.9,1,5.3,1.3c0,0,0,0.5-0.2,1.3s-0.4,1.9-1,3s-1.4,2.4-2.7,3.5c-1.3,1-3,2-5.3,2.5
		c-0.8,0.2-1.9,0.3-3.2,0.3s-2.7,0-4.1-0.1s-2.6-0.1-3.6-0.2c-0.9-0.1-1.5-0.1-1.5-0.1l1.2,1.6l1.2,1.6l1.2,1.6l1.2,1.6
		c1.9,2.6,2.9,4.8,3.1,6.6c0.2,1.8-0.4,3.2-1.5,4.2c-1.2,1.1-2.8,1.9-4.9,2.4c-2.1,0.5-4.5,0.9-7.2,1c-3.9,0.3-7.6,0.5-11.1,0.9
		c-3.5,0.3-6.7,0.7-9.6,0.9c-2.8,0.3-5.4,0.6-7.3,0.9c-2,0.3-3.5,0.5-4.3,0.7c-1.3,0.2-3.8-1.1-7-3.2s-6.8-5-10.5-7.8
		c-3.6-2.9-7-5.8-9.5-8.1c-2.5-2.2-4.2-3.7-4.2-3.7l1,6.7l1,6.7l1,6.7l1,6.7c0,0-1.9,0.2-4.9,0.5c-3.1,0.3-7.3,0.7-12.2,1
		c-4.8,0.3-10.2,0.5-15.5,0.5s-10.4-0.2-14.7-0.8c-4.4-0.5-8.5-1.7-12.3-3.1s-7.2-3-10.1-4.4c-2.8-1.5-5.2-3-6.8-4.1
		c-1.6-1-2.5-1.8-2.5-1.8l2.2-2.1l2.2-2.1l2.2-2.1l2.2-2.1h-0.4H703h-0.4h-0.4c-2.2,0-4.3-0.4-6.2-1.1c-1.9-0.7-3.8-1.7-5.4-3
		c-1.6-1.3-3-2.8-4.1-4.6s-1.9-3.7-2.4-5.9v-0.1v-0.1v-0.1v-0.1c0,0,1.6-0.7,4.2-2c2.6-1.3,6-3,9.7-4.9c3.7-2,7.6-4.2,10.9-6.5
		c3.3-2.2,6.2-4.5,7.8-6.6c4.4-5.6,7.9-10,10.8-13.4c2.9-3.4,5.1-5.9,6.8-7.7c1.8-1.9,3-3.2,4-4.2s1.6-1.8,2.1-2.7"/>
	
		<path fill="none" stroke="#000000" stroke-width="7.6713" stroke-linecap="round" stroke-linejoin="round" stroke-miterlimit="10" d="
		M833.3,426.2c0,0,2.4,2.4,6.1,6.1c3.8,3.7,9.2,8.8,15.1,14.1c6,5.3,12.5,10.9,19,15.7c6.4,4.8,12.6,8.7,17.8,10.8
		s10.8,3.3,16.4,4.1c5.6,0.7,11.2,0.9,16.1,0.9c4.9-0.1,9.2-0.4,12.2-0.7c3-0.3,4.8-0.6,4.8-0.6s-2,1.5-5.1,3.7
		c-3.1,2.2-7.5,5.3-12.2,8.3c-4.8,3-10,6-14.8,8.3c-4.9,2.3-9.4,3.9-12.8,4c-3.5,0.1-6.8,0.7-10,1.3c-3.1,0.7-6,1.6-8.5,2.5
		c-2.5,0.9-4.5,1.8-5.9,2.4c-1.4,0.7-2.2,1.1-2.2,1.1l-11.6,5.2l-11.6,5.2l-11.6,5.2l-11.6,5.2l-22.8,1.4l-22.8,1.4l-22.8,1.4
		l-22.8,1.4l-7.9-3.6l-7.9-3.6l-7.9-3.6l-7.9-3.6l-6.6-1.4l-6.6-1.4l-6.6-1.4l-6.6-1.4c-2-0.4-4.1-1-6.1-1.5c-2-0.6-4-1.3-6-2
		c-2-0.7-3.9-1.5-5.9-2.4s-3.8-1.8-5.7-2.7l-2.1-1.1l-2.1-1.1l-2.1-1.1l-2.1-1.1l7.3-5.1l7.3-5.1l7.3-5.1l7.3-5.1l-7.1,0.2l-7.1,0.2
		l-7.1,0.2l-7.1,0.2c-2.2,0.1-4.3-0.2-6.4-0.7c-2-0.5-4-1.4-5.8-2.4c-1.8-1.1-3.5-2.4-4.9-3.9c-1.4-1.5-2.7-3.3-3.6-5.3l-0.4-0.8
		l-0.4-0.8l-0.4-0.8l-0.4-0.8c0,0,1-0.1,2.7-0.2c1.7-0.1,4.1-0.2,6.7-0.4c2.7-0.2,5.8-0.3,8.8-0.4c3.1-0.2,6.1-0.3,8.9-0.4
		c1.5-0.1,3.7-0.3,6.2-0.8c2.5-0.4,5.3-0.9,8.1-1.4c2.7-0.5,5.5-1,7.8-1.4c2.3-0.4,4.3-0.6,5.5-0.6s3.6-0.9,6.5-2.4
		c2.9-1.4,6.4-3.3,9.7-5.2c3.3-1.9,6.5-3.8,8.8-5.2c2.4-1.4,3.8-2.4,3.8-2.4l2.1-3.6l2.1-3.6l2.1-3.6l2.1-3.6"/>
	
		<path fill="none" stroke="#000000" stroke-width="7.6713" stroke-linecap="round" stroke-linejoin="round" stroke-miterlimit="10" d="
		M750.6,380.5l-1.2,6l-1.2,6l-1.2,6l-1.2,6c2.3,1,6.9,1.4,12.5,1.4c5.6,0,12.2-0.4,18.5-1c6.3-0.5,12.3-1.2,16.8-1.8
		c4.4-0.5,7.3-0.9,7.3-0.9s-0.1-0.1-0.4-0.6c-0.3-0.5-0.8-1.4-1.6-3c-0.8-1.6-2-3.9-3.6-7.3c-1.6-3.3-3.7-7.7-6.4-13.4"/>
	
		<path fill="none" stroke="#000000" stroke-width="4.3836" stroke-linecap="round" stroke-linejoin="round" stroke-miterlimit="10" d="
		M287.6,375.1c0,0,1,2.7,3.2,7.4c2.1,4.7,5.3,11.2,9.5,18.8c4.3,7.6,9.6,16.3,16.1,25.2c6.5,8.9,14.1,18,22.8,26.4"/>
	
		<path fill="none" stroke="#000000" stroke-width="4.3836" stroke-linecap="round" stroke-linejoin="round" stroke-miterlimit="10" d="
		M234.7,464.8c0,0,0,1.2-0.4,3.3c-0.4,2.2-1.1,5.4-2.5,9.4c-1.4,4.1-3.6,8.9-6.8,14.5c-3.2,5.6-7.6,11.9-13.3,18.7"/>
	
		<path fill="none" stroke="#000000" stroke-width="4.3836" stroke-linecap="round" stroke-linejoin="round" stroke-miterlimit="10" d="
		M306.3,459.3c0,0,0.2,2,1.3,6.1c1,4.1,3,10.3,6.6,18.8c3.6,8.5,8.8,19.2,16.3,32.4c7.5,13.2,17.4,28.8,30.3,47"/>
	
		<path fill="none" stroke="#000000" stroke-width="4.3836" stroke-linecap="round" stroke-linejoin="round" stroke-miterlimit="10" d="
		M219.1,433.9c0.1-0.3,1.7-3.5,4-7.9c2.3-4.5,5.5-10.3,8.8-16.1c3.3-5.8,6.7-11.5,9.6-15.8c2.9-4.3,5.3-7,6.5-6.9
		c1.2,0.1,2.4,4.8,3.5,11.8c1.1,7,2,16.3,2.8,25.6c0.8,9.3,1.5,18.6,1.9,25.5c0.4,7,0.7,11.6,0.7,11.6"/>
	
		<path fill="none" stroke="#000000" stroke-width="4.3836" stroke-linecap="round" stroke-linejoin="round" stroke-miterlimit="10" d="
		M306.3,392.1c0,0,1.8,1.4,4.7,3.7c3,2.2,7,5.3,11.6,8.6s9.6,6.8,14.5,10.1c4.9,3.2,9.5,6.1,13.4,8"/>
	
		<path fill="none" stroke="#000000" stroke-width="4.3836" stroke-linecap="round" stroke-linejoin="round" stroke-miterlimit="10" d="
		M132.5,561.3c0,0,4.1-5.5,10.4-13.6c6.3-8.2,14.8-19,23.7-29.8c8.9-10.8,18-21.5,25.6-29.4c7.6-7.9,13.6-12.9,16.2-12.4
		c2.5,0.5,2.3,4.3,0.5,9.8c-1.8,5.4-5.1,12.3-8.8,19.2c-3.7,6.9-7.6,13.7-10.7,18.8c-3.1,5.1-5.2,8.5-5.2,8.5"/>
	
		<path fill="none" stroke="#000000" stroke-width="4.3836" stroke-linecap="round" stroke-linejoin="round" stroke-miterlimit="10" d="
		M274.2,475.9c0,0,0.1,2.7,0.3,7.2c0.2,4.4,0.5,10.6,0.8,17.6c0.3,7,0.8,14.6,1.2,22.1c0.4,7.5,0.9,14.7,1.4,20.7"/>
	
		<path fill="none" stroke="#000000" stroke-width="4.3836" stroke-linecap="round" stroke-linejoin="round" stroke-miterlimit="10" d="
		M249.4,300.4c0.6,5.2,0.3,9.6-0.4,13.6s-1.9,7.5-3,10.8c-1.2,3.3-2.3,6.4-3,9.6c-0.7,3.1-0.9,6.3-0.2,9.8"/>
	
		<path fill="none" stroke="#000000" stroke-width="4.3836" stroke-linecap="round" stroke-linejoin="round" stroke-miterlimit="10" d="
		M268.9,303.2c1.4,2.6,3,5.4,4.7,8.4c1.8,3,3.6,6,5.7,9.2c2.1,3.1,4.3,6.4,6.7,9.5c2.4,3.2,4.9,6.4,7.7,9.5"/>
	
		<path fill="none" stroke="#000000" stroke-width="4.3836" stroke-linecap="round" stroke-linejoin="round" stroke-miterlimit="10" d="
		M250.1,728.7c0,0,1.6-1.3,3.9-3.4c2.4-2.1,5.6-5.1,8.8-8.5c3.2-3.5,6.4-7.3,8.9-11.2c2.5-3.9,4.2-7.8,4.3-11.4
		c0.2-3.6,0.5-7.5,0.9-11.5c0.4-4,0.8-8.1,1-12s0.3-7.7,0.1-11.1c-0.3-3.4-0.8-6.4-1.9-8.7c-1.1-2.3-2.1-4.6-3-6.8
		c-0.9-2.2-1.6-4.3-2.1-6.2c-0.5-1.9-0.9-3.7-1-5.3s0.1-2.9,0.5-4c0.5-1.1,1-2.8,1.6-5.1c0.5-2.2,1.1-5,1.5-8s0.6-6.3,0.5-9.6
		c-0.1-3.3-0.4-6.7-1.2-10"/>
	
		<path fill="none" stroke="#000000" stroke-width="4.3836" stroke-linecap="round" stroke-linejoin="round" stroke-miterlimit="10" d="
		M278.1,578.7c0,0,1.2,3.1,2.9,8.1c1.7,5,3.9,11.8,5.9,19.3c2,7.5,3.8,15.7,4.6,23.3c0.9,7.6,0.8,14.6-0.9,19.9
		c-1.5,4.6-2.6,9.6-3.3,14.6c-0.8,5-1.2,10.2-1.4,15.1s-0.1,9.6,0.2,13.8c0.3,4.2,0.8,7.9,1.4,10.8c0.7,2.9,2.3,5.7,4.4,8.2
		s4.7,4.8,7.2,6.7c2.5,1.9,5,3.4,6.8,4.4c1.8,1,3,1.6,3,1.6"/>
	
		<path fill="none" stroke="#000000" stroke-width="4.3836" stroke-linecap="round" stroke-linejoin="round" stroke-miterlimit="10" d="
		M287.6,433.4c0,0-1.5-3-3.7-7.3c-2.1-4.4-4.8-10.3-7.2-16.1c-2.4-5.9-4.4-11.7-5.2-15.9c-0.7-4.3-0.2-7.1,2.6-6.8
		c2.8,0.2,6,3.1,9.3,7.5s6.8,10.1,10.1,15.9c3.3,5.9,6.4,11.9,9.1,16.9c2.7,4.9,4.9,8.8,6.4,10.2"/>
	
		<path fill="none" stroke="#000000" stroke-width="4.3836" stroke-linecap="round" stroke-linejoin="round" stroke-miterlimit="10" d="
		M312.4,574.1c0,0-2.4-7-5.8-17.2c-3.3-10.2-7.7-23.7-11.5-36.7c-3.8-13-7.1-25.5-8.4-33.8s-0.7-12.3,3.5-8.4
		c4.1,3.9,9.8,11.9,16.2,22c6.4,10.1,13.6,22.2,20.6,34.2c7,12.1,13.9,24.1,19.8,33.9c5.9,9.8,10.8,17.4,13.9,20.7"/>
	
		<path fill="none" stroke="#000000" stroke-width="4.3836" stroke-linecap="round" stroke-linejoin="round" stroke-miterlimit="10" d="
		M199,603c0,0,1.3-2.6,3.5-6.7c2.1-4.1,5-9.8,8.2-15.9s6.5-12.8,9.5-19c3-6.1,5.8-11.7,7.6-15.7"/>
	
		<path fill="none" stroke="#000000" stroke-width="4.3836" stroke-linecap="round" stroke-linejoin="round" stroke-miterlimit="10" d="
		M234.7,598.5c0,0,1.5-7,3.7-17.3c2.1-10.4,4.9-24.2,7.5-37.8c2.5-13.6,4.7-27.1,5.7-36.9c1-9.8,0.8-15.9-1.5-14.7"/>
	
		<path fill="none" stroke="#000000" stroke-width="4.3836" stroke-linecap="round" stroke-linejoin="round" stroke-miterlimit="10" d="
		M341.7,446.5c10.5,16.5,18.5,31.1,25,43.6c6.5,12.5,11.3,23.2,15.6,31.9c4.3,8.7,7.9,15.5,11.9,20.3c4,4.9,8.3,7.8,13.9,9
		c5.5,1.2,12.3,3.3,19.2,5.8s14.1,5.5,20.5,8.4c6.5,2.8,12.2,5.5,16.4,7.6c4.2,2,6.7,3.3,6.7,3.3"/>
	
		<path fill="none" stroke="#000000" stroke-width="4.3836" stroke-linecap="round" stroke-linejoin="round" stroke-miterlimit="10" d="
		M336.2,491.6c0,0-1.2-2.1-3-5.3c-1.7-3.2-3.9-7.4-6-11.7c-2-4.3-3.8-8.6-4.7-12s-0.8-5.8,0.8-6.2c1.7-0.4,5.5,3.9,10.4,11
		c4.9,7.1,10.9,16.8,16.9,27.1c6,10.3,12.1,21.2,17.2,30.4c5.1,9.3,9.2,16.9,11.1,20.8"/>
	
		<path fill="none" stroke="#000000" stroke-width="4.3836" stroke-linecap="round" stroke-linejoin="round" stroke-miterlimit="10" d="
		M238,371.9c0,0-1.9,3.8-4.9,9.6c-3,5.8-6.9,13.5-11.1,21.5c-4.1,7.9-8.4,16-12,22.4s-6.4,11.2-7.7,12.4"/>
	
		<path fill="none" stroke="#000000" stroke-width="4.3836" stroke-linecap="round" stroke-linejoin="round" stroke-miterlimit="10" d="
		M179.7,596.1c0,0,1.8-3.1,4.7-8c2.9-4.9,7-11.8,11.5-19.2c4.5-7.5,9.5-15.7,14.2-23.3c4.8-7.6,9.4-14.7,13-20.2"/>
	
		<path fill="none" stroke="#000000" stroke-width="4.3836" stroke-linecap="round" stroke-linejoin="round" stroke-miterlimit="10" d="
		M249.8,356.3c0.1-0.3,0.4-3.5,0.9-8.5s1-11.9,1.4-19.8c0.4-7.8,0.8-16.5,0.7-25c-0.1-8.5-0.4-17-1.3-24.4c-0.9-7.3,0.2-8,2.3-4.8
		c2.1,3.2,5.3,10.2,8.5,18.1c3.3,7.9,6.6,16.8,9.2,23.7c2.6,6.8,4.3,11.8,4.3,11.8"/>
	
		<path fill="none" stroke="#000000" stroke-width="7.6713" stroke-linecap="round" stroke-linejoin="round" stroke-miterlimit="10" d="
		M795.5,530.4c0,0,0,5.8,0.3,15.1s1,22.1,2.4,36c1.4,13.9,3.5,29,6.6,43c3.1,13.9,7.3,26.7,12.9,35.9"/>
	
		<path fill="none" stroke="#000000" stroke-width="7.6713" stroke-linecap="round" stroke-linejoin="round" stroke-miterlimit="10" d="
		M753.5,534.2c0,0,0.4,3.8,0.9,10.1c0.5,6.3,1.1,15.2,1.5,25.2s0.5,21.2,0.3,32.2c-0.3,11-1.2,21.9-2.7,31.2"/>
	
		<path fill="none" stroke="#000000" stroke-width="4.3836" stroke-linecap="round" stroke-linejoin="round" stroke-miterlimit="10" d="
		M822,671.9c0,0-3-2.4-7.5-6.5c-4.4-4.1-10.4-9.9-16.3-16.9c-5.9-6.9-11.8-14.9-16.3-23.3c-4.4-8.4-7.3-17.3-7.2-26
		c0.1-8.7,0.2-15.4,0.1-20.6c-0.1-5.2-0.1-9-0.1-11.7c-0.1-2.7-0.1-4.5-0.1-5.8c0-1.3,0-2,0.1-2.6c0.1-0.7,0.2-2.7,0.2-5.4
		c0-2.6,0-5.9-0.1-9.1c-0.1-3.2-0.1-6.2-0.2-8.5c-0.1-2.3-0.1-3.8-0.1-3.8"/>
	
		<path fill="none" stroke="#000000" stroke-width="4.3836" stroke-linecap="round" stroke-linejoin="round" stroke-miterlimit="10" d="
		M785.5,534.2c0,0-0.3,4.1-0.7,10.7c-0.4,6.5-0.8,15.5-0.9,25.2c-0.2,9.7-0.1,20.1,0.5,29.5c0.6,9.4,1.8,17.9,3.8,23.7
		c2,5.8,4.4,11,6.8,15.6c2.5,4.5,5,8.5,7.3,11.7c2.3,3.2,4.3,5.7,5.8,7.3c1.5,1.7,2.4,2.6,2.4,2.6"/>
	
		<path fill="none" stroke="#000000" stroke-width="4.3836" stroke-linecap="round" stroke-linejoin="round" stroke-miterlimit="10" d="
		M748.2,673.1c0.2,0.3,1.8,0.6,3.9-0.1s4.9-2.3,7.5-5.9c2.6-3.6,5-9.2,6.5-17.7c1.5-8.5,2-20,0.9-35.3c-0.4-6-1-14-1.6-22.6
		c-0.6-8.6-1.3-17.8-1.9-26.3c-0.6-8.5-1.2-16.2-1.6-21.8c-0.4-5.6-0.7-9.1-0.7-9.1"/>
	
		<path fill="none" stroke="#000000" stroke-width="4.3836" stroke-linecap="round" stroke-linejoin="round" stroke-miterlimit="10" d="
		M684,491.9c1.6-1.1,5.2-4.4,9.7-8.8c4.5-4.3,9.9-9.7,15.1-15c5.2-5.3,10.2-10.4,13.9-14.1c3.7-3.8,6.1-6.3,6.1-6.3s1-0.2,2.7-0.3
		c1.6-0.2,3.7-0.4,5.9-0.5c2.1-0.2,4.3-0.2,5.9-0.1c1.6,0.1,2.7,0.4,2.7,0.9c0.1,0.5,0.3,2.7,0.9,5.8c0.5,3.1,1.2,7.2,2.1,11.7
		c0.9,4.5,1.9,9.4,2.9,14c1,4.6,2.2,9,3.3,12.6"/>
	
		<path fill="none" stroke="#000000" stroke-width="4.3836" stroke-linecap="round" stroke-linejoin="round" stroke-miterlimit="10" d="
		M780.8,426.2c0.9,0.7,1.8,3.1,3.2,6.5c1.4,3.5,3.1,7.9,5.7,12.8c2.6,4.9,6,10.2,10.5,15.5c4.5,5.2,10.2,10.1,17.5,14.3"/>
	
		<path fill="none" stroke="#000000" stroke-width="4.3836" stroke-linecap="round" stroke-linejoin="round" stroke-miterlimit="10" d="
		M846.1,484.6c2.3,0.9,5.4,2.4,9.1,3.9c3.7,1.6,7.8,3.5,12.3,5.2c4.5,1.7,9.3,3.4,14.1,4.7c4.8,1.3,9.7,2.2,14.4,2.5"/>
	
		<path fill="none" stroke="#000000" stroke-width="4.3836" stroke-linecap="round" stroke-linejoin="round" stroke-miterlimit="10" d="
		M822,492.7c0.2,0.4,1.8,1.9,4.3,3.8c2.6,2,6.1,4.4,10,6.8c3.9,2.4,8.3,4.9,12.5,6.8c4.2,1.9,8.3,3.3,11.8,3.7"/>
	
		<path fill="none" stroke="#000000" stroke-width="4.3836" stroke-linecap="round" stroke-linejoin="round" stroke-miterlimit="10" d="
		M806.6,529.8c0,0-2.9-3.2-7.4-8.5c-4.4-5.3-10.5-12.8-16.6-21.2c-6.1-8.4-12.4-17.8-17.5-27.1c-5-9.3-8.9-18.4-10-26.2"/>
	
		<path fill="none" stroke="#000000" stroke-width="4.3836" stroke-linecap="round" stroke-linejoin="round" stroke-miterlimit="10" d="
		M700.1,519.6c0,0,1-1.5,2.6-3.7c1.6-2.2,3.8-5.2,6.2-8.1c2.4-2.9,5-5.8,7.3-7.8c2.3-2.1,4.4-3.4,5.8-3.2s2.2,2.5,2.6,5.6
		c0.4,3.2,0.4,7.3,0.3,11.5c-0.2,4.1-0.5,8.2-0.8,11.3c-0.3,3.1-0.5,5.1-0.5,5.1"/>
	
		<path fill="none" stroke="#000000" stroke-width="4.3836" stroke-linecap="round" stroke-linejoin="round" stroke-miterlimit="10" d="
		M648,480.2c0,0,2.2,0.2,6-0.1c3.8-0.2,9-0.9,15.2-2.4c6.1-1.5,13.1-4.1,20.2-8c7.1-3.9,14.4-9.4,21.1-16.8"/>
	
		<path fill="none" stroke="#000000" stroke-width="4.3836" stroke-linecap="round" stroke-linejoin="round" stroke-miterlimit="10" d="
		M696.1,412.2c0,0,1.4-0.2,3.8-1c2.4-0.9,5.7-2.5,9.5-5.3c3.8-2.8,8.2-7,12.6-12.9c4.4-5.9,8.9-13.6,12.9-23.7"/>
	
		<path fill="none" stroke="#000000" stroke-width="4.3836" stroke-linecap="round" stroke-linejoin="round" stroke-miterlimit="10" d="
		M772.4,374.1c0,0-0.6-1.5-1.3-3.7c-0.7-2.2-1.5-5.1-1.9-7.7c-0.4-2.7-0.5-5.1,0.3-6.5s2.4-1.6,5.3,0.1c2.9,1.7,6,4.8,9.3,8.8
		c3.3,3.9,7,8.7,10.8,13.6c3.9,5,8.1,10.1,12.6,14.8c4.5,4.8,9.4,9.1,14.6,12.4"/>
	
		<path fill="none" stroke="#000000" stroke-width="4.3836" stroke-linecap="round" stroke-linejoin="round" stroke-miterlimit="10" d="
		M731.3,336.2c0,0,0.7-0.2,1.9-0.8c1.2-0.7,3-2,5.3-4.2c2.3-2.2,5.1-5.4,8.3-10c3.2-4.6,6.8-10.6,10.8-18.4c2-3.9,3.6-4.5,5.2-3.1
		c1.6,1.4,3.2,4.8,5.1,9c1.9,4.2,4.2,9.3,7.1,13.9c2.9,4.6,6.5,8.8,11.1,11.4"/>
	
		<path fill="none" stroke="#000000" stroke-width="4.3836" stroke-linecap="round" stroke-linejoin="round" stroke-miterlimit="10" d="
		M828.2,461.1c0,0-2-1.5-4.8-3.9c-2.8-2.4-6.4-5.5-9.6-8.8c-3.2-3.2-6-6.6-7.2-9.2c-1.2-2.7-0.8-4.7,2.5-5.3s8.2,2.1,14.4,6.5
		c6.2,4.4,13.7,10.7,21.9,17.3c8.3,6.5,17.3,13.4,26.7,19c9.4,5.6,19.1,10,28.7,11.6"/>
	
		<path fill="none" stroke="#000000" stroke-width="7.6713" stroke-linecap="round" stroke-linejoin="round" stroke-miterlimit="10" d="
		M469.9,372.4c8.1,4.1,15.8,6.3,22.9,7.4c7.1,1.1,13.6,1,19.1,0.4c5.5-0.6,10-1.7,13-2.7c3.1-0.9,4.8-1.8,4.8-1.8
		c2,3.6,5.4,6.2,9.3,8.2c3.9,1.9,8.3,3.1,12.4,3.7s8.1,0.9,10.9,1c2.8,0.1,4.7-0.1,4.7-0.1c-2.6-0.5-4.7-1.5-6.4-2.5
		c-1.8-1.1-3.1-2.3-4.1-3.5c-1-1.2-1.8-2.2-2.2-3.1c-0.4-0.8-0.7-1.3-0.7-1.3c4.9-0.7,9-1.9,12.4-3.1c3.4-1.3,6-2.8,8.1-4.2
		c2-1.4,3.4-2.7,4.3-3.7c0.9-0.9,1.3-1.6,1.3-1.6c-2.3,0.4-4.4,0.8-6.3,0.9c-1.9,0.2-3.7,0.2-5.3,0.2c-1.6-0.1-3.1-0.2-4.4-0.4
		c-1.3-0.2-2.5-0.5-3.5-0.8c-0.9-0.3-1.8-0.7-2.6-1.2c-0.8-0.5-1.6-1-2.3-1.7c-0.7-0.7-1.3-1.4-1.9-2.1c-0.5-0.8-1-1.6-1.4-2.6
		c-1.2-3-2.8-7.3-4.6-12.7c-1.8-5.3-3.8-11.5-5.6-18c-1.8-6.5-3.3-13.4-4.4-20.1c-1-6.7-1.5-13.1-1.1-18.7c0,0-0.3,1.2-0.8,3.2
		c-0.5,2-1.3,4.9-2.4,8.2c-1,3.3-2.4,7.2-4.1,11.2c-1.6,4-3.6,8.2-5.8,12.1c-1,1.9-1.9,3.9-2.8,6s-1.7,4.2-2.7,6.5
		c-1,2.2-2.1,4.5-3.6,6.7c-1.4,2.3-3.2,4.6-5.3,7c-1.1,1.2-2.1,2.2-3.2,3.1c-1.1,0.9-2.2,1.6-3.4,2.3c-1.2,0.7-2.5,1.2-4.1,1.6
		c-1.5,0.4-3.2,0.7-5.2,1c-1.6,0.2-3.3,0.2-5-0.1s-3.3-0.6-4.8-1c-1.5-0.4-2.8-1-4-1.5c-1.2-0.5-2.1-1-2.7-1.5c0,0,0.2,0.5,0.6,1.4
		s1.2,2.1,2.2,3.6c1.1,1.5,2.6,3.2,4.5,4.9c2,1.8,4.4,3.7,7.5,5.5c0,0-0.7,0.3-1.8,0.7c-1.2,0.4-2.8,1-4.8,1.5c-2,0.5-4.4,1-6.9,1.4
		C475.5,372.6,472.7,372.7,469.9,372.4z"/>
	
		<path fill="none" stroke="#000000" stroke-width="7.6713" stroke-linecap="round" stroke-linejoin="round" stroke-miterlimit="10" d="
		M549.3,387.2c0,0,0.4,1.2,1.4,3.1c1,1.9,2.4,4.6,4.4,7.6c2,3,4.5,6.4,7.6,9.6c3.1,3.2,6.8,6.5,11.1,9.2c4.3,2.7,8.3,5,12,6.9
		c3.7,1.9,7,3.5,9.7,4.7s5,2.1,6.5,2.7c1.5,0.6,2.4,0.9,2.4,0.9s-0.2,0.5-0.7,1.3c-0.5,0.8-1.2,1.8-2.2,2.8c-1,1-2.4,2.1-4.1,2.9
		c-1.7,0.8-3.7,1.4-6.1,1.6c-1.2,0.1-2.6-0.1-3.9-0.5c-1.3-0.4-2.6-0.9-3.7-1.4c-1.1-0.5-2.1-1-2.8-1.5c-0.7-0.4-1.1-0.7-1.1-0.7
		s0.1,0.2,0.2,0.6c0.1,0.4,0.3,0.9,0.5,1.6c0.2,0.7,0.5,1.5,0.8,2.3c0.3,0.8,0.6,1.8,0.9,2.6c0.4,1,0.5,1.9,0.4,2.9
		c-0.1,0.9-0.4,1.9-0.9,2.6c-0.5,0.8-1.1,1.5-1.9,2c-0.8,0.5-1.7,0.9-2.7,1l-2.8,0.4l-2.8,0.4l-2.8,0.4l-2.8,0.4l-3.6-1.5l-3.6-1.5
		l-3.6-1.5l-3.6-1.5l-2.8,0.8l-2.8,0.8l-2.8,0.8l-2.8,0.8c0.2,1-0.1,1.9-0.6,2.7c-0.5,0.8-1.3,1.6-2.1,2.2c-0.9,0.7-1.9,1.2-2.7,1.7
		c-0.9,0.5-1.8,0.8-2.4,1.1c-0.2,0.1-0.4,0.1-0.5,0.2c-0.2,0.1-0.4,0.1-0.5,0.1s-0.4,0.1-0.5,0.1c-0.2,0-0.4,0-0.6-0.1
		c-2.2-0.3-7.8-0.9-14.9-1.6c-7.1-0.8-15.7-1.8-24.1-2.7c-8.4-1-16.5-1.9-22.7-2.7c-6.1-0.8-10.3-1.4-10.7-1.6s-0.1-1.6,0.7-3.6
		c0.8-2,2.1-4.5,3.5-7.1c1.4-2.5,2.7-5,3.8-6.9c1-1.9,1.8-3.1,1.8-3.1l-2.1-1.4l-2.1-1.4l-2.1-1.4l-2.1-1.4c0,0-0.7,0.5-1.6,1.2
		c-0.9,0.7-2.3,1.6-3.6,2.6s-2.7,1.9-3.9,2.6c-1.2,0.7-2,1.2-2.4,1.1c-0.3-0.1-1.2-0.3-2.1-0.7c-1-0.4-2.2-0.8-3.3-1.3
		c-1.2-0.4-2.2-0.9-3.1-1.2s-1.4-0.5-1.4-0.5l0.5-2.7l0.5-2.7l0.5-2.7l0.5-2.7l-2-1.9l-2-1.9l-2-1.9l-2-1.9l2.9-0.8l2.9-0.8l2.9-0.8
		l2.9-0.8l-3.1-3.4l-3.1-3.4l-3.1-3.4l-3.1-3.4c0,0,0.6,0,1.6,0.1c1,0.1,2.5,0.1,4.3,0.3c1.8,0.1,3.7,0.3,5.8,0.5s4.2,0.5,6.2,0.9
		c5.9,1.1,11.7,0.9,17,0.1s10.4-2.4,14.8-4.2c4.4-1.8,8.3-3.8,11.3-5.6s5.2-3.2,6.4-4"/>
	
		<path fill="none" stroke="#000000" stroke-width="7.6713" stroke-linecap="round" stroke-linejoin="round" stroke-miterlimit="10" d="
		M562.3,452.3c0,0,0.9,1.1,2.9,3.1c2,2,4.9,4.8,8.9,8.3c4,3.5,9,7.5,15.1,11.8c6.1,4.4,13.3,9.1,21.6,13.9c0,0-0.2,0.7-1,1.9
		s-2.1,3.1-4.4,5.5c-2.3,2.4-5.5,5.2-10,8.5c-4.5,3.3-10.4,7-17.9,11.1l-3.7-2.7l-3.7-2.7l-3.7-2.7l-3.7-2.7l-0.7,2.7l-0.7,2.7
		l-0.7,2.7l-0.7,2.7l-2.8,2.4l-2.8,2.4l-2.8,2.4l-2.8,2.4h-4.4h-4.4h-4.4h-4.4v-3.3v-3.3v-3.3v-3.3l-3.3,3.3l-3.3,3.3l-3.3,3.3
		l-3.3,3.3l-15.5-3.8l-15.5-3.8l-15.5-3.8l-15.5-3.8l-1-2.5l-1-2.5l-1-2.5l-1-2.5l-2.4,1.4l-2.5,1.2l-2.5,1.2l-2.5,1.2
		c0,0-0.2,0.2-0.7,0.3s-1.1,0.2-2,0.1c-0.9-0.2-1.9-0.5-3.2-1.3s-2.7-2-4.3-3.9c-1.6-1.9-3.3-3.9-4.8-5.9c-1.5-2-3-4-4.2-5.8
		c-1.2-1.8-2.2-3.3-3-4.3c-0.7-1-1.1-1.8-1.1-1.8l-2.4-1.9l-2.4-1.9l-2.4-1.9l-2.4-1.9l1.9-1.9l1.9-1.9l1.9-1.9l1.9-1.9l-4.5,0.8
		l-4.8,0.9l-4.5,0.8l-4.5,0.8v-2.2v-2.2v-2.2v-2.2c0,0,1.6-0.5,4-1.4c2.4-0.8,5.7-2,9.2-3.1s7-2.2,10-3s5.4-1.3,6.6-1.3
		s4.2-1.4,8.2-3.7c3.9-2.3,8.8-5.3,13.5-8.3c4.7-3.1,9.2-6.1,12.6-8.4c3.4-2.3,5.6-3.8,5.6-3.8"/>
	
		<path fill="none" stroke="#000000" stroke-width="7.6713" stroke-linecap="round" stroke-linejoin="round" stroke-miterlimit="10" d="
		M524.8,518.7c0,0-0.2,2.3-0.3,5.9c-0.1,3.6-0.1,8.4,0.2,13.4c0.3,5,0.9,10.2,2.1,14.6c1.2,4.4,2.9,7.9,5.5,9.5"/>
	
		<path fill="none" stroke="#000000" stroke-width="7.6713" stroke-linecap="round" stroke-linejoin="round" stroke-miterlimit="10" d="
		M495.9,520.2c0,0-0.2,1.9-0.4,5c-0.3,3.1-0.6,7.2-1,11.7c-0.4,4.4-0.9,9.3-1.5,13.5c-0.5,4.3-1.2,8-1.7,10.5"/>
	
		<path fill="none" stroke="#000000" stroke-width="4.3836" stroke-linecap="round" stroke-linejoin="round" stroke-miterlimit="10" d="
		M524.6,566.7c0,0-0.4-0.9-1.1-2.4c-0.7-1.5-1.5-3.6-2.4-5.9c-0.9-2.4-1.7-4.9-2.3-7.5s-1-5-0.9-7.1c0.1-2.1,0.3-4.1,0.4-5.9
		c0.2-1.9,0.4-3.5,0.7-4.9c0.2-1.4,0.4-2.6,0.5-3.3c0.2-0.8,0.2-1.3,0.2-1.3"/>
	
		<path fill="none" stroke="#000000" stroke-width="4.3836" stroke-linecap="round" stroke-linejoin="round" stroke-miterlimit="10" d="
		M495.9,566.7c0,0,0.5,0,1.2-0.2c0.7-0.2,1.6-0.6,2.5-1.4c0.9-0.8,1.8-1.9,2.5-3.6c0.7-1.6,1.1-3.9,1-6.8c-0.1-2.9-0.3-5.3-0.6-7.3
		c-0.3-2-0.6-3.7-0.7-5.2c-0.1-1.5-0.1-2.7,0.3-4.1c0.4-1.3,1.1-2.5,2.3-3.9s2.1-2.7,2.7-3.8c0.6-1.1,0.9-2,1.2-2.8s0.2-1.3,0.2-1.7
		c0-0.4-0.1-0.6-0.1-0.6"/>
	
		<path fill="none" stroke="#000000" stroke-width="4.3836" stroke-linecap="round" stroke-linejoin="round" stroke-miterlimit="10" d="
		M534.9,386.2c0,0-0.8,0.1-1.9,0.4c-1.2,0.3-2.6,0.9-4.1,1.9c-1.4,1-2.7,2.5-3.6,4.6c-0.8,2.1-1.1,4.9-0.4,8.5
		c0.7,3.6,1.8,8.5,3.1,13.9c1.4,5.4,2.9,11.2,4.4,16.5c1.5,5.3,2.8,10.2,3.9,13.8c1,3.6,1.7,5.8,1.7,5.8"/>
	
		<path fill="none" stroke="#000000" stroke-width="4.3836" stroke-linecap="round" stroke-linejoin="round" stroke-miterlimit="10" d="
		M475.9,422.4c0.2,0,1.8-2.2,4.2-5.5c2.4-3.3,5.5-7.7,8.8-12c3.3-4.4,6.8-8.7,9.9-12c3.1-3.3,5.8-5.4,7.4-5.5c4.6,0,7.3,1.8,8.8,4.9
		c1.5,3.1,2,7.3,2.2,12.3c0.2,4.9,0.1,10.4,0.4,15.9c0.4,5.5,1.4,11,3.6,15.9"/>
	
		<path fill="none" stroke="#000000" stroke-width="4.3836" stroke-linecap="round" stroke-linejoin="round" stroke-miterlimit="10" d="
		M537.9,411.5c0.2,0.5,0.7,2.5,1.5,5.2c0.8,2.7,1.9,6.3,3.3,10.1s3,7.9,4.8,11.7c1.9,3.8,3.9,7.3,6.1,10"/>
	
		<path fill="none" stroke="#000000" stroke-width="4.3836" stroke-linecap="round" stroke-linejoin="round" stroke-miterlimit="10" d="
		M544.5,397.3c0.2,0.4,1.8,2.7,4.4,5.9c2.6,3.2,6,7.3,9.8,11.7c3.8,4.3,7.8,8.8,11.6,12.7s7.1,7.1,9.6,8.9"/>
	
		<path fill="none" stroke="#000000" stroke-width="4.3836" stroke-linecap="round" stroke-linejoin="round" stroke-miterlimit="10" d="
		M427.4,468.9c0,0,1.6-0.9,4-2.2c2.5-1.3,5.8-3.1,9.4-4.8c3.6-1.7,7.3-3.3,10.6-4.4c3.3-1.1,6.2-1.6,7.9-1.1
		c1.8,0.5,2.4,1.7,2.5,3.2c0.1,1.5-0.5,3.3-1.3,5c-0.8,1.8-1.8,3.5-2.6,4.7c-0.8,1.3-1.4,2.1-1.4,2.1"/>
	
		<path fill="none" stroke="#000000" stroke-width="4.3836" stroke-linecap="round" stroke-linejoin="round" stroke-miterlimit="10" d="
		M461.8,491.6c0,0,0.5-1.9,1.4-4.7c0.9-2.8,2.2-6.7,3.8-10.6c1.6-3.9,3.6-7.9,5.8-11c2.2-3.1,4.7-5.4,7.3-6
		c2.7-0.5,6.5-0.8,10.9-0.6c4.4,0.2,9.3,0.7,13.9,1.5c4.7,0.8,9.1,2,12.6,3.5s6.1,3.2,7,5.2s1.7,4.5,2.4,7.1
		c0.7,2.6,1.3,5.5,1.9,8.2c0.5,2.7,1.2,5.4,1.7,7.7c0.6,2.2,1.2,4.2,1.9,5.5"/>
	
		<path fill="none" stroke="#000000" stroke-width="4.3836" stroke-linecap="round" stroke-linejoin="round" stroke-miterlimit="10" d="
		M560.6,495c0,0-1-1.3-2.7-3.3s-4-4.8-6.5-7.9c-2.5-3.1-5.2-6.4-7.5-9.4s-4.5-5.8-6-7.8"/>
	
		<path fill="none" stroke="#000000" stroke-width="4.3836" stroke-linecap="round" stroke-linejoin="round" stroke-miterlimit="10" d="
		M549.3,510.7c0,0-0.7-1.3-1.8-3.3c-1.1-2.1-2.5-5-4.1-8.3c-1.6-3.3-3.2-7-4.7-10.7c-1.5-3.7-2.7-7.3-3.6-10.4"/>
	
		<path fill="none" stroke="#000000" stroke-width="4.3836" stroke-linecap="round" stroke-linejoin="round" stroke-miterlimit="10" d="
		M501.2,370.5c0,0,1.4-0.9,3.6-2.7c2.2-1.8,5.2-4.3,8.4-7.4c3.2-3.1,6.7-6.9,9.9-11.1c3.2-4.2,6-8.8,8-13.8c0,0-0.3,1.4-0.4,3.8
		c-0.2,2.4-0.1,5.6,0.5,9.3c0.6,3.7,1.9,7.8,4.1,11.8c2.2,4,5.6,7.9,10.4,11.2"/>
	
		<path fill="none" stroke="#000000" stroke-width="4.3836" stroke-linecap="round" stroke-linejoin="round" stroke-miterlimit="10" d="
		M442.2,408c0,0,1.4-0.1,3.7-0.3c2.3-0.3,5.6-0.7,9.4-1.4c3.8-0.7,8-1.6,12.3-3s8.6-2.9,12.5-5"/>
	
		<path fill="none" stroke="#000000" stroke-width="6.1167" stroke-linecap="round" stroke-linejoin="round" stroke-miterlimit="10" d="
		M620.9,367.5c0,0,1.2-2.6,3.1-6.8c1.9-4.2,4.4-10.1,7.1-16.6c2.7-6.5,5.6-13.8,8.1-20.7c2.5-7,4.7-13.6,6.1-19.2
		c0,0,1.5,3.5,3.7,8.9c2.2,5.4,5.2,12.6,8.3,20c3.1,7.4,6.2,15,8.7,21.2s4.4,10.8,5,12.3c0.4,1.2,1.8,2.5,3.6,3.8
		c1.8,1.4,3.9,2.7,6.1,3.9c2.1,1.2,4.2,2.3,5.8,3.1c1.5,0.8,2.6,1.3,2.6,1.3s-0.9,0.5-2.3,1.4c-1.4,0.9-3.3,2.1-5.4,3.4
		c-2,1.3-4.2,2.7-6,3.9c-1.9,1.2-3.4,2.3-4.3,3l-3.1-1.8l-3.1-1.8l-3.1-1.8l-3.1-1.8l-0.3,2.3l-0.3,2.3l-0.3,2.3l-0.3,2.3
		c-0.9-0.3-2.7-0.4-4.9-0.4c-2.2,0-4.8,0.2-7.3,0.3c-2.5,0.2-4.9,0.4-6.7,0.6s-3,0.3-3,0.3c-0.5-1.5-1.6-2.6-3.1-3.5
		c-1.4-0.9-3.2-1.6-5.2-2c-1.9-0.4-3.9-0.8-5.9-1c-1.9-0.2-3.7-0.3-5.2-0.3c-0.6,0-1.2-0.1-1.8-0.2c-0.5-0.1-1.2-0.3-1.6-0.4
		c-0.5-0.2-1-0.4-1.6-0.7c-0.5-0.3-1-0.6-1.4-1l-1.9-1.5l-1.9-1.5l-1.9-1.5l-1.9-1.5l4.7-2.6l4.7-2.6l4.7-2.6L620.9,367.5z"/>
	
		<path fill="none" stroke="#000000" stroke-width="6.1167" stroke-linecap="round" stroke-linejoin="round" stroke-miterlimit="10" d="
		M576.1,416.7c1.4-1.4,3.3-3.1,5.4-4.8c2-1.8,4.2-3.6,6.2-5.3c2-1.6,3.8-3.1,5.2-4.2c1.3-1,2.1-1.7,2.1-1.7c1.3-0.5,2.9-1.1,4.5-1.8
		c1.7-0.7,3.4-1.3,5-2c1.6-0.6,3-1.2,4.1-1.6c1-0.4,1.6-0.7,1.6-0.7s0.5-0.4,1.4-1c0.9-0.6,2-1.4,3.2-2.3c1.2-0.9,2.4-1.8,3.3-2.5
		c1-0.7,1.7-1.3,1.9-1.5"/>
	
		<path fill="none" stroke="#000000" stroke-width="6.1167" stroke-linecap="round" stroke-linejoin="round" stroke-miterlimit="10" d="
		M707.9,437l-0.8,0.6l-0.8,0.6l-0.8,0.6l-0.8,0.6c0,0-0.7,0.3-1.8,0.6c-1,0.4-2.5,0.9-4.1,1.3s-3.2,0.9-4.6,1.2
		c-1.4,0.3-2.7,0.4-3.4,0.2c-0.7-0.2-2.8,0.2-5.6,1.1c-2.8,0.9-6.4,2-10.2,3.3s-7.8,2.6-11.5,3.7c-3.7,1.1-6.9,2-9.3,2.3
		c-2.4,0.3-5,0.6-7.8,0.8c-2.7,0.2-5.6,0.4-8.3,0.5c-2.7,0.1-5.4,0.2-7.7,0.1c-2.3-0.1-4.3-0.2-5.9-0.4c-1.5-0.2-2.2-0.9-2.6-1.8
		c-0.3-0.9-0.1-2.1,0.2-3.3c0.3-1.3,0.9-2.6,1.4-3.9s0.9-2.5,0.9-3.5c0,0-0.4-0.3-1-0.7c-0.6-0.4-1.4-0.9-2.2-1.4
		c-0.8-0.4-1.6-0.9-2.2-1c-0.6-0.2-1-0.2-1.1,0.3s-0.6,1.4-1.3,2.7c-0.8,1.3-1.8,2.7-2.7,4.2c-1,1.4-2,2.8-2.7,3.9
		c-0.7,1-1.2,1.7-1.2,1.7c-1.6,0.7-3,1-4.1,1s-2-0.2-2.7-0.5c-0.7-0.3-1.2-0.8-1.5-1.1c-0.3-0.3-0.5-0.6-0.5-0.6s-0.3-0.4-0.9-1
		c-0.5-0.6-1.3-1.5-2-2.4c-0.8-0.9-1.5-1.8-2.2-2.5c-0.7-0.7-1.2-1.3-1.4-1.4c-0.1-0.1-0.2-0.1-0.3-0.2s-0.3-0.2-0.4-0.3
		c-0.2-0.1-0.4-0.2-0.5-0.4c-0.2-0.1-0.4-0.3-0.7-0.4"/>
	
		<path fill="none" stroke="#000000" stroke-width="6.1167" stroke-linecap="round" stroke-linejoin="round" stroke-miterlimit="10" d="
		M675,387.4c0,0,0.2,0.3,0.7,0.9c0.4,0.5,1,1.4,1.8,2.4s1.6,2.1,2.6,3.3c1,1.2,2.1,2.6,3.2,3.9"/>
	
		<path fill="none" stroke="#000000" stroke-width="6.1167" stroke-linecap="round" stroke-linejoin="round" stroke-miterlimit="10" d="
		M604.4,499.8c0.5,0.3,0.9,0.7,1.4,1c0.4,0.3,0.8,0.7,1.2,1c0.4,0.3,0.7,0.7,1,1c0.3,0.3,0.5,0.7,0.8,1l9.8,0.5l9.8,0.5l9.8,0.5
		l9.8,0.5"/>
	
		<path fill="none" stroke="#000000" stroke-width="6.1167" stroke-linecap="round" stroke-linejoin="round" stroke-miterlimit="10" d="
		M658.5,509.1c0,0,0,1.3,0,3.2c0,1.9,0,4.5,0.1,7.4c0.1,2.8,0.1,5.8,0.2,8.4c0.1,2.6,0.2,4.8,0.4,6.1"/>
	
		<polyline fill="none" stroke="#000000" stroke-width="6.1167" stroke-linecap="round" stroke-linejoin="round" stroke-miterlimit="10" points="
		632.7,505.3 632.7,512.8 632.7,520.3 632.7,527.8 632.7,535.3 	"/>
	
		<path fill="none" stroke="#000000" stroke-width="3.0584" stroke-linecap="round" stroke-linejoin="round" stroke-miterlimit="10" d="
		M648,379.6c0,0,0.3-0.4,1-1c0.7-0.5,1.7-1.3,3.1-1.9s3.1-1,5.1-1.2c2-0.1,4.4,0.2,7.2,1.2c1.5,0.5,1.8,0.4,1.2-0.5
		c-0.5-0.9-1.8-2.5-3.5-4.9s-3.6-5.6-5.5-9.6s-3.7-8.9-5-14.6"/>
	
		<path fill="none" stroke="#000000" stroke-width="3.0584" stroke-linecap="round" stroke-linejoin="round" stroke-miterlimit="10" d="
		M626,371c2.4,0,4.4,0.5,6.1,1.4c1.6,0.8,3,1.9,4.1,3s1.9,2,2.5,2.7c0.6,0.7,1,1,1.3,0.7c1.6-1.7,2.2-3.3,2.1-4.9s-0.8-3.4-1.6-5.5
		c-0.8-2.1-1.8-4.5-2.4-7.5c-0.5-3-0.7-6.6,0-11.1"/>
	
		<path fill="none" stroke="#000000" stroke-width="3.0584" stroke-linecap="round" stroke-linejoin="round" stroke-miterlimit="10" d="
		M627,393.1c0,0-1.6,0.9-4.1,2.3c-2.5,1.4-5.8,3.3-9.2,5.2c-3.4,1.9-6.8,3.9-9.6,5.6c-2.7,1.6-4.8,3-5.3,3.5
		c-1.8,1.8-3.8,3.3-5.8,4.7c-2,1.3-4,2.4-5.8,3.2c-1.8,0.9-3.3,1.5-4.5,1.9c-1.1,0.4-1.8,0.6-1.8,0.6"/>
	
		<path fill="none" stroke="#000000" stroke-width="3.0584" stroke-linecap="round" stroke-linejoin="round" stroke-miterlimit="10" d="
		M630.2,394.7l-3.5,2.8l-3.5,2.8l-3.5,2.8l-3.5,2.8c0,0-0.6,0.9-1.5,2.1c-0.9,1.3-2.2,3-3.5,4.8c-1.3,1.8-2.6,3.5-3.7,4.9
		c-1,1.4-1.9,2.3-2.2,2.5c-0.3,0.2-0.9,0.5-1.7,0.9c-0.8,0.4-1.8,1-2.7,1.6c-1,0.6-2,1.3-2.7,1.9c-0.8,0.6-1.4,1.2-1.7,1.6"/>
	
		<path fill="none" stroke="#000000" stroke-width="3.0584" stroke-linecap="round" stroke-linejoin="round" stroke-miterlimit="10" d="
		M634.1,398.5c0,0-0.9,1.7-2.2,4.3c-1.3,2.6-3,6.1-4.6,9.7c-1.6,3.6-3.1,7.4-4.1,10.5c-1,3.1-1.4,5.5-0.7,6.5c0.7,1,1.4,1.8,2.2,2.4
		c0.8,0.7,1.7,1.2,2.6,1.6c0.9,0.5,1.7,0.9,2.5,1.5c0.8,0.5,1.4,1.2,1.9,1.9c0.5,0.8,0.9,1.4,1.2,1.9c0.3,0.5,0.5,0.9,0.7,1.2
		c0.2,0.3,0.3,0.6,0.4,0.9c0.1,0.3,0.1,0.5,0.2,0.8"/>
	
		<path fill="none" stroke="#000000" stroke-width="3.0584" stroke-linecap="round" stroke-linejoin="round" stroke-miterlimit="10" d="
		M664.5,396.6c0,0,0.5,1.8,1.3,4.4c0.8,2.7,2,6.2,3.3,10c1.3,3.7,2.7,7.5,4.2,10.6c1.4,3.1,2.8,5.5,4.1,6.5"/>
	
		<path fill="none" stroke="#000000" stroke-width="3.0584" stroke-linecap="round" stroke-linejoin="round" stroke-miterlimit="10" d="
		M695.5,430.2c0,0-0.8-0.4-2.1-1.1c-1.3-0.7-3.1-1.8-4.9-3.2c-1.9-1.4-3.9-3.1-5.6-5.2c-1.7-2-3.2-4.4-4.1-7s-1-4.1-0.5-4.9
		c0.4-0.8,1.4-0.8,2.8-0.5c1.3,0.3,3,0.9,4.9,1.5c1.9,0.6,3.8,1.2,5.8,1.3"/>
	
		<path fill="none" stroke="#000000" stroke-width="3.0584" stroke-linecap="round" stroke-linejoin="round" stroke-miterlimit="10" d="
		M581,469.4c0,0,0.3-0.8,0.8-2.1c0.5-1.3,1.4-3.1,2.4-4.9c1-1.9,2.4-3.8,3.9-5.5c1.5-1.7,3.3-3.1,5.3-3.8c2-0.8,3.2-0.3,3.9,0.8
		c0.7,1.1,0.9,2.9,0.9,4.9c-0.1,2-0.3,4.2-0.6,6c-0.3,1.9-0.5,3.3-0.5,4.1"/>
	
		<path fill="none" stroke="#000000" stroke-width="3.0584" stroke-linecap="round" stroke-linejoin="round" stroke-miterlimit="10" d="
		M609.9,497.3c0,0,1.1-0.9,2.7-2.4c1.6-1.5,3.7-3.7,5.8-6.4c2.1-2.7,4.1-5.8,5.5-9.2c1.4-3.4,2.2-7,1.9-10.6"/>
	
		<path fill="none" stroke="#000000" stroke-width="3.0584" stroke-linecap="round" stroke-linejoin="round" stroke-miterlimit="10" d="
		M651.8,439.7c0,0-0.6-2.6-1.4-6.4c-0.8-3.8-1.9-8.9-2.7-13.7c-0.8-4.9-1.5-9.6-1.6-12.7c-0.1-3.1,0.4-4.7,1.9-3.3
		c1.5,1.4,3,3.9,4.7,7.1c1.7,3.2,3.6,7.1,5.9,11c2.2,3.9,4.9,7.9,8,11.6c3.1,3.6,6.7,6.7,11,8.8"/>
	
		<path fill="none" stroke="#000000" stroke-width="3.0584" stroke-linecap="round" stroke-linejoin="round" stroke-miterlimit="10" d="
		M639.5,540.6c0,0-0.4-0.2-0.8-0.6c-0.4-0.4-1-0.9-1.3-1.4c-0.3-0.5-0.4-1.1,0-1.5c0.4-0.4,1.3-0.8,3-1c1.7-0.2,2.7-0.7,3.3-1.5
		c0.6-0.8,0.8-1.8,0.7-2.8c-0.1-1.1-0.4-2.2-0.8-3.5c-0.4-1.2-0.8-2.3-1.1-3.3c-0.3-1-0.4-2.6-0.4-4.4c0-1.9,0.1-3.9,0.2-5.9
		c0.1-2,0.3-3.8,0.4-5.2c0.1-1.3,0.2-2.2,0.2-2.2"/>
	
		<path fill="none" stroke="#000000" stroke-width="3.0584" stroke-linecap="round" stroke-linejoin="round" stroke-miterlimit="10" d="
		M648,506.2c0,0,0.1,0.7,0.3,1.8c0.2,1.1,0.4,2.6,0.8,4.3c0.4,1.6,0.8,3.5,1.2,5c0.5,1.6,1,3.1,1.6,4.2c0.5,1,0.3,2-0.4,2.8
		c-0.7,0.9-1.6,1.8-2.4,2.8c-0.8,1-1.3,2.1-1,3.4c0.3,1.3,1.3,2.8,3.8,4.7"/>
	
		<path fill="none" stroke="#000000" stroke-width="6.4359" stroke-linecap="round" stroke-linejoin="round" stroke-miterlimit="10" d="
		M328,387.5l1.5-1l1.5-1l1.5-1l1.5-1l0.5,2.4l0.5,2.4l0.5,2.4l0.5,2.4c0.9-0.4,2.7-0.7,5.1-0.8c2.3-0.2,5.1-0.2,7.7-0.2
		c2.6,0,5.2,0.1,7.1,0.1c1.9,0.1,3.1,0.1,3.1,0.1c0.6-2.1,2.4-3.7,4.7-5c2.3-1.2,5.2-2,7.9-2.6c2.7-0.5,5.4-0.9,7.5-1
		c2-0.2,3.3-0.2,3.3-0.2l1.3-3l1.3-3l1.3-3l1.3-3l-3.7-1.8l-3.7-1.8l-3.7-1.8l-3.7-1.8c0,0-1.4-2.6-3.7-6.9
		c-2.3-4.3-5.4-10.2-8.7-16.9c-3.3-6.7-6.9-14-10.1-21.2c-3.2-7.1-6-14-7.8-19.7c0,0-1.3,3.8-3.2,9.6c-1.9,5.8-4.5,13.6-7.2,21.6
		c-2.7,8-5.4,16.2-7.6,22.8c-2.2,6.6-3.8,11.6-4.3,13.3c-0.2,0.5-0.5,1.2-1.1,1.9s-1.2,1.4-2,2.1c-0.8,0.7-1.7,1.4-2.6,2.2
		c-0.9,0.8-1.9,1.4-3,2.1"/>
	
		<path fill="none" stroke="#000000" stroke-width="6.4359" stroke-linecap="round" stroke-linejoin="round" stroke-miterlimit="10" d="
		M362.2,456.5c1.3-0.1,2.6-0.1,3.8-0.2c1.2-0.1,2.4-0.2,3.5-0.3c1-0.1,2.1-0.2,3-0.3c0.9-0.1,1.8-0.3,2.5-0.4c1.6-0.3,2.3-1.1,2.6-2
		c0.3-1,0-2.2-0.5-3.5c-0.5-1.3-1.2-2.7-1.8-4c-0.6-1.3-1.1-2.6-1.3-3.6c0,0,0.4-0.3,1-0.8c0.6-0.4,1.4-1,2.2-1.6
		c0.8-0.5,1.6-1,2.2-1.3c0.7-0.2,1.1-0.2,1.2,0.2c0.1,0.4,0.7,1.4,1.6,2.7c0.9,1.3,2,2.7,3.2,4.2c1.2,1.4,2.2,2.8,3.1,3.9
		c0.8,1,1.4,1.7,1.4,1.7c1.8,0.6,3.2,0.8,4.4,0.8c1.2-0.1,2.1-0.4,2.8-0.8c0.7-0.4,1.2-0.9,1.5-1.3c0.3-0.4,0.4-0.7,0.4-0.7
		s0.3-0.4,0.9-1.2c0.5-0.7,1.2-1.6,1.9-2.6c0.7-1,1.5-2,2.1-2.8c0.6-0.8,1.1-1.4,1.3-1.6c0.2-0.2,0.9-0.7,1.8-1.3
		c0.9-0.7,2-1.4,3-2.2c1-0.8,2.1-1.5,2.8-2.1s1.3-0.9,1.3-0.9s-0.4-0.3-0.9-0.7s-0.9-1-1-1.8c-0.1-0.8,0.2-1.6,1.3-2.5
		c1-0.9,3-1.9,6-2.8c0.2-0.1,0.1-0.6-0.3-1.3s-1-1.6-1.7-2.6c-0.7-0.9-1.3-1.9-1.9-2.5c-0.5-0.7-0.9-1.2-0.9-1.2l3.3-0.6l3.3-0.6
		l3.3-0.6l3.3-0.6c0,0-1.3-1.1-3.3-2.8c-2-1.7-4.7-4-7.6-6.4c-2.9-2.4-6-4.7-8.7-6.6c-2.7-1.9-5-3.3-6.4-3.7
		c-1.4-0.4-3.1-0.9-4.9-1.5c-1.8-0.5-3.7-1.2-5.4-1.7c-1.7-0.5-3.2-1-4.4-1.4c-1.1-0.3-1.8-0.5-1.8-0.5s-0.6-0.4-1.6-1
		c-0.9-0.6-2.2-1.4-3.5-2.2s-2.6-1.6-3.7-2.4c-1.1-0.7-1.9-1.2-2.1-1.4"/>
	
		<path fill="none" stroke="#000000" stroke-width="6.4359" stroke-linecap="round" stroke-linejoin="round" stroke-miterlimit="10" d="
		M423.5,490.5c0,0-0.1,0-0.1,0.1c-0.1,0-0.2,0.1-0.3,0.1c-0.2,0.1-0.3,0.1-0.5,0.2s-0.5,0.2-0.8,0.3c-1.4,0.5-3.6,1.3-6,2.2
		c-2.5,1-5.3,2.2-8.1,3.6c-2.7,1.4-5.4,2.9-7.7,4.5c-2.2,1.6-4,3.3-4.9,5l-1.3,0.2l-1.3,0.2l-1.3,0.2l-1.3,0.2"/>
	
		<path fill="none" stroke="#000000" stroke-width="6.4359" stroke-linecap="round" stroke-linejoin="round" stroke-miterlimit="10" d="
		M409.9,437.6c0,0,0.7,0.5,1.8,1.4c1.2,0.9,2.7,2.1,4.6,3.5c1.9,1.4,4.1,3,6.3,4.5s4.5,3.2,6.8,4.7"/>
	
		<path fill="none" stroke="#000000" stroke-width="3.218" stroke-linecap="round" stroke-linejoin="round" stroke-miterlimit="10" d="
		M339.3,379.1c0,0-0.3-0.8-0.9-1.8c-0.6-1-1.5-2.4-2.8-3.6s-2.9-2.2-4.9-2.7c-2-0.4-4.4-0.3-7.2,0.9c-1.5,0.7-1.5,0.8-0.7,0.4
		c0.9-0.5,2.6-1.6,4.7-3.6c2-2,4.4-4.8,6.5-8.7s3.8-8.8,4.8-14.9"/>
	
		<path fill="none" stroke="#000000" stroke-width="3.218" stroke-linecap="round" stroke-linejoin="round" stroke-miterlimit="10" d="
		M383.4,371.9c-5-1.2-9.2-1.1-12.6-0.3s-6.1,2.3-8.3,3.9c-2.1,1.6-3.7,3.3-4.8,4.5c-1.1,1.3-1.8,2-2.1,1.7c-1.9-1.7-2.7-3.6-3-5.7
		c-0.3-2.1,0.1-4.6,0.4-7.4s0.9-6,1-9.6c0.1-3.6-0.1-7.7-1.2-12.3"/>
	
		<path fill="none" stroke="#000000" stroke-width="3.218" stroke-linecap="round" stroke-linejoin="round" stroke-miterlimit="10" d="
		M365.5,387.5c0,0,1.1,0.8,2.9,2.1c1.9,1.4,4.4,3.3,7.6,5.6c3.1,2.3,6.7,4.9,10.4,7.7c3.7,2.8,7.7,5.7,11.5,8.5
		c0.7,0.5,2.4,1.2,4.7,2c2.2,0.8,5,1.6,7.7,2.5c2.7,0.8,5.3,1.5,7.3,2.1c2,0.5,3.2,0.9,3.2,0.9"/>
	
		<path fill="none" stroke="#000000" stroke-width="3.218" stroke-linecap="round" stroke-linejoin="round" stroke-miterlimit="10" d="
		M360.8,397.7c0,0,2,2,5,5.1c3,3.1,7,7.2,11,11.5c3.9,4.3,7.8,8.7,10.5,12.3c2.7,3.6,4.3,6.5,3.7,7.6"/>
	
		<path fill="none" stroke="#000000" stroke-width="3.218" stroke-linecap="round" stroke-linejoin="round" stroke-miterlimit="10" d="
		M395,503.4c0,0-0.1-1-0.5-2.8c-0.4-1.9-1-4.5-2.1-8c-1.1-3.5-2.6-7.7-4.8-12.5c-2.2-4.8-5-10.3-8.6-16.3"/>
	
		<path fill="none" stroke="#000000" stroke-width="6.1167" stroke-linecap="round" stroke-linejoin="round" stroke-miterlimit="10" d="
		M626.8,636.5c0,0-0.2-1.4-0.2-3.7c0.1-2.2,0.3-5.3,1.4-8.6c1-3.3,2.8-6.8,5.8-9.9c3-3.1,7.2-5.8,13.2-7.5"/>
	
		<path fill="none" stroke="#000000" stroke-width="6.1167" stroke-linecap="round" stroke-linejoin="round" stroke-miterlimit="10" d="
		M649.5,592c-0.3-5.6,2.2-10.5,6.2-14.4s9.6-6.9,15.6-8.6s12.1-2.1,17.3-1c5.2,1.1,9.5,3.8,11.6,8.3"/>
	
		<path fill="none" stroke="#000000" stroke-width="6.1167" stroke-linecap="round" stroke-linejoin="round" stroke-miterlimit="10" d="
		M649.5,592c0,0-2.1-0.8-5.5-1.5c-3.5-0.7-8.3-1.3-13.9-1c-5.6,0.3-11.9,1.5-18.4,4.4c-6.4,2.9-12.9,7.6-18.8,14.8
		c-3.2,4-5.4,8.2-6.8,12.3c-1.4,4.1-2.1,8.1-2.4,11.6c-0.3,3.5-0.1,6.5,0.1,8.5c0.2,2.1,0.5,3.3,0.5,3.3"/>
	
		<path fill="none" stroke="#000000" stroke-width="6.1167" stroke-linecap="round" stroke-linejoin="round" stroke-miterlimit="10" d="
		M629.9,650.4c0,0,0.9,1.2,2.6,2.8c1.7,1.6,4.2,3.8,7.6,5.6c3.4,1.8,7.6,3.4,12.6,3.9c5,0.5,10.9,0.1,17.5-2.2"/>
	
		<path fill="none" stroke="#000000" stroke-width="6.1167" stroke-linecap="round" stroke-linejoin="round" stroke-miterlimit="10" d="
		M696,587.1c0,0,0.4-1.2,1.5-2.8c1-1.7,2.7-4,5.2-6.2c2.5-2.2,5.8-4.4,10.1-6c4.3-1.5,9.6-2.5,16.2-2.2c6.5,0.3,11.5,1.7,15.1,3.7
		c3.7,1.9,6.1,4.4,7.7,6.8c1.6,2.5,2.4,4.8,2.8,6.6c0.4,1.8,0.4,3,0.4,3"/>
	
		<path fill="none" stroke="#000000" stroke-width="6.1167" stroke-linecap="round" stroke-linejoin="round" stroke-miterlimit="10" d="
		M604.4,632.9c0,0-1.7,0.2-4.2,0.9c-2.5,0.7-5.7,1.8-8.7,3.5c-3,1.7-5.9,4.1-7.5,7.3c-1.6,3.2-2.2,7.3-0.5,12.4s4.5,8.5,8.1,10.7
		c3.6,2.2,7.9,3.2,12.5,3.5c4.5,0.3,9.4,0,13.9-0.4s8.7-1,12.1-1.2c2.7-0.2,4.2,0.4,5.4,1.3c1.2,0.9,2.1,2.1,3.7,3.3
		c1.6,1.3,3.9,2.5,7.8,3.5c3.9,0.9,9.5,1.6,17.6,1.6"/>
	
		<path fill="none" stroke="#000000" stroke-width="6.1167" stroke-linecap="round" stroke-linejoin="round" stroke-miterlimit="10" d="
		M613.2,614.9c0,0-0.8,0.9-1.8,2.6c-1,1.6-2.3,4.1-3.2,7c-0.9,2.9-1.7,6.4-1.5,10.2c0.2,3.8,1,7.9,3.3,12.2"/>
	
		<path fill="none" stroke="#000000" stroke-width="6.1167" stroke-linecap="round" stroke-linejoin="round" stroke-miterlimit="10" d="
		M584.5,625.4c-8.7,0-16.3,1.9-22.4,5.1c-6.1,3.2-10.7,7.6-13.5,12.4c-2.8,4.9-3.7,10.3-2.3,15.5c1.4,5.2,5,10.1,11.2,14.2
		c0,0,0.3-1,1.2-2.4c0.9-1.4,2.5-3,5.2-4.3c2.6-1.3,6.2-2.1,11.2-1.8c5,0.3,11.3,1.7,19.4,5"/>
	
		<path fill="none" stroke="#000000" stroke-width="6.1167" stroke-linecap="round" stroke-linejoin="round" stroke-miterlimit="10" d="
		M700.1,603.8c0,0-1.6,0.5-3.9,1.7c-2.4,1.2-5.5,2.9-8.7,5.3s-6.3,5.4-8.7,9s-3.9,8-3.9,13.1"/>
	
		<path fill="none" stroke="#000000" stroke-width="6.1167" stroke-linecap="round" stroke-linejoin="round" stroke-miterlimit="10" d="
		M664.5,662.1c0,0-0.5,2-0.5,5c0,3,0.5,6.8,2.7,10.5c2.2,3.6,6,7.1,12.5,9.2s15.7,2.8,28.8,1c0,0,0.4,0.5,1.5,1.4
		c1,0.8,2.7,1.8,5,2.7c2.4,0.9,5.5,1.6,9.6,2c4.1,0.3,9,0.2,15.1-0.8c5.9-0.9,11.2-4,15.3-8.4c4.1-4.4,7.1-10.2,8.3-16.6
		c1.3-6.4,0.8-13.3-1.8-19.9c-2.6-6.6-7.5-13-15.1-18.4"/>
	
		<path fill="none" stroke="#000000" stroke-width="6.1167" stroke-linecap="round" stroke-linejoin="round" stroke-miterlimit="10" d="
		M783.8,660.4c-1.9-1.9-4.2-3.3-6.5-4.4s-4.8-1.8-7-2.2c-2.2-0.5-4.1-0.7-5.5-0.8c-1.4-0.1-2.2-0.1-2.2-0.1"/>
	
		<path fill="none" stroke="#000000" stroke-width="6.1167" stroke-linecap="round" stroke-linejoin="round" stroke-miterlimit="10" d="
		M755,685.1c0,0,0.5,1.2,1.8,2.8c1.2,1.6,3.1,3.7,5.9,5.4s6.4,3.1,11,3.2c4.6,0.2,10.2-0.8,17-3.7"/>
	
		<path fill="none" stroke="#000000" stroke-width="6.1167" stroke-linecap="round" stroke-linejoin="round" stroke-miterlimit="10" d="
		M723,569.9c0,0,0.2-1.5,0.8-3.8c0.7-2.2,1.9-5.2,3.9-8.1c2-2.8,5-5.5,9.1-7.3c4.2-1.8,9.5-2.6,16.4-1.5"/>
	
		<path fill="none" stroke="#000000" stroke-width="4.3836" stroke-linecap="round" stroke-linejoin="round" stroke-miterlimit="10" d="
		M652.1,595.5c0,0-0.8-1.1-2.2-3c-1.4-1.9-3.5-4.6-6.1-7.8c-2.6-3.2-5.6-6.8-9.1-10.7s-7.2-7.9-11.2-11.8"/>
	
		<path fill="none" stroke="#000000" stroke-width="4.3836" stroke-linecap="round" stroke-linejoin="round" stroke-miterlimit="10" d="
		M629.9,569.9l-2-0.1l-2-0.1l-2-0.1l-2-0.1c0,0-0.1-0.2-0.2-0.5s-0.4-0.7-0.8-1.1c-0.4-0.4-0.9-0.8-1.6-1.1
		c-0.7-0.3-1.6-0.5-2.7-0.5c-0.9,0-1.7,0.1-2.5,0.4s-1.5,0.8-2.5,1.5c-0.9,0.7-2,1.7-3.4,3c-1.4,1.3-3.2,2.8-5.4,4.8
		c0,0,0.6,0.1,1.5,0.2c0.9,0.1,2.2,0.2,3.8,0.3c1.5,0.1,3.2,0.2,4.8,0.2c1.6,0,3.2-0.1,4.6-0.3c2-0.3,3.3-0.9,4.1-1.6
		s1.1-1.5,1.2-2.4c0.1-0.8-0.2-1.5-0.4-2.1c-0.2-0.5-0.4-0.9-0.4-0.9"/>
	
		<path fill="none" stroke="#000000" stroke-width="4.3836" stroke-linecap="round" stroke-linejoin="round" stroke-miterlimit="10" d="
		M753.3,620.7c0,0-0.8,0.3-2,1.2c-1.2,0.8-2.9,2.1-4.8,3.9s-3.9,4.2-5.8,7.3c-1.9,3.1-3.7,6.8-5.1,11.4"/>
	
		<path fill="none" stroke="#000000" stroke-width="4.3836" stroke-linecap="round" stroke-linejoin="round" stroke-miterlimit="10" d="
		M646.9,607.9c0,0-0.1,0.4,0.1,1c0.1,0.7,0.4,1.6,0.9,2.7c0.6,1.2,1.5,2.5,3,3.8c1.4,1.4,3.4,2.8,6,4.3"/>
	
		<path fill="none" stroke="#000000" stroke-width="4.3836" stroke-linecap="round" stroke-linejoin="round" stroke-miterlimit="10" d="
		M654.3,618.4c0,0,0.1-0.7,0.4-1.8c0.3-1.1,0.7-2.5,1.3-3.8c0.6-1.4,1.5-2.7,2.6-3.6c1.1-0.9,2.5-1.4,4.1-1.1"/>
	
		<path fill="none" stroke="#000000" stroke-width="4.3836" stroke-linecap="round" stroke-linejoin="round" stroke-miterlimit="10" d="
		M648.1,638.9c0,0-0.2,0.7-0.2,1.8c-0.1,1.2,0.1,2.7,0.5,4.5s1.4,3.8,3,5.9c1.6,2,3.8,4.1,7.1,5.9"/>
	
		<path fill="none" stroke="#000000" stroke-width="4.3836" stroke-linecap="round" stroke-linejoin="round" stroke-miterlimit="10" d="
		M648.2,643.9c0,0,0.5-0.3,1.6-0.7c1-0.4,2.5-0.7,4.3-0.6c1.8,0.1,4,0.5,6.4,1.6c2.4,1.2,5.1,3.1,7.9,6.1"/>
	
		<path fill="none" stroke="#000000" stroke-width="4.3836" stroke-linecap="round" stroke-linejoin="round" stroke-miterlimit="10" d="
		M654.3,652c0,0,0.1-0.4,0.3-1.1s0.7-1.5,1.4-2.2c0.7-0.8,1.7-1.5,3.1-1.9c1.4-0.4,3.2-0.5,5.4,0"/>
	
		<path fill="none" stroke="#000000" stroke-width="4.3836" stroke-linecap="round" stroke-linejoin="round" stroke-miterlimit="10" d="
		M704.9,613.1c0,0-0.8,1.5-1.6,4.1c-0.9,2.5-1.8,6.1-2.1,10.2c-0.3,4.1,0,8.8,1.6,13.5c1.6,4.7,4.6,9.5,9.6,13.8"/>
	
		<path fill="none" stroke="#000000" stroke-width="4.3836" stroke-linecap="round" stroke-linejoin="round" stroke-miterlimit="10" d="
		M701,632.9c0,0-0.7,0.2-1.8,0.6s-2.5,1-3.9,2c-1.4,0.9-2.8,2.1-3.8,3.6c-1,1.5-1.6,3.3-1.6,5.4"/>
	
		<path fill="none" stroke="#000000" stroke-width="4.3836" stroke-linecap="round" stroke-linejoin="round" stroke-miterlimit="10" d="
		M691.2,639.5c0,0,0.1,0.9,0.5,2.1c0.4,1.3,1.2,2.9,2.4,4.4c1.2,1.5,2.8,3,5.1,3.9c2.3,0.9,5.2,1.2,8.9,0.4"/>
	
		<path fill="none" stroke="#000000" stroke-width="4.3836" stroke-linecap="round" stroke-linejoin="round" stroke-miterlimit="10" d="
		M587.5,617.4c0,0-0.5-0.3-1.4-0.8s-2-1.3-3.4-2.4c-1.4-1.1-2.9-2.5-4.4-4.1c-1.5-1.6-3.1-3.6-4.5-5.9"/>
	
		<path fill="none" stroke="#000000" stroke-width="4.3836" stroke-linecap="round" stroke-linejoin="round" stroke-miterlimit="10" d="
		M586.1,620.7c0,0-0.9,0.3-2.5,0.5c-1.6,0.2-4,0.5-7,0.4c-3-0.1-6.5-0.5-10.5-1.5c-4-1-8.4-2.7-13.1-5.2"/>
	
		<path fill="none" stroke="#000000" stroke-width="4.3836" stroke-linecap="round" stroke-linejoin="round" stroke-miterlimit="10" d="
		M553.3,612.7c-0.3,0.1-0.6,0.1-0.9,0c-0.3-0.1-0.6-0.1-0.9-0.2c-0.3-0.1-0.5-0.2-0.8-0.4c-0.3-0.2-0.5-0.4-0.7-0.6
		c-0.3-0.3-0.6-0.7-0.9-1c-0.3-0.4-0.5-0.8-0.7-1.3c-0.2-0.5-0.3-1-0.3-1.5c-0.1-0.5,0.1-1.2,0.2-1.8c0.2-0.6,0.4-1.2,0.7-1.8
		c0.3-0.6,0.5-1.2,0.8-2c0.2-0.8,0.5-1.6,0.7-2.7c0.2-1,0.3-2.4,0.4-3.9c0,0,0.4,0.4,1.2,1.1c0.7,0.7,1.6,1.7,2.5,2.8
		c0.9,1.1,1.8,2.4,2.5,3.6c0.7,1.3,1.2,2.5,1.2,3.6c0,1.2-0.2,2.1-0.5,2.8c-0.3,0.8-0.7,1.3-1.2,1.8s-1,0.7-1.6,0.9
		C554.4,612.4,553.8,612.6,553.3,612.7z"/>
	
		<path fill="none" stroke="#000000" stroke-width="6.5754" stroke-linecap="round" stroke-linejoin="round" stroke-miterlimit="10" d="
		M796.9,564.8c0,0,1.3-0.1,3.2,0.2s4.6,0.8,7.4,1.9c2.8,1.2,5.8,2.8,8.4,5.5c2.6,2.7,4.8,6.2,6.1,11.1c0,0,1.6,0.5,4.1,1.7
		s5.8,3.1,9.3,5.9c3.5,2.8,7,6.4,9.8,11.2c2.8,4.7,5,10.5,5.7,17.6"/>
	
		<path fill="none" stroke="#000000" stroke-width="6.5754" stroke-linecap="round" stroke-linejoin="round" stroke-miterlimit="10" d="
		M814.3,625.4c0,0,1.8-0.9,4.8-2.1c3-1.1,7.2-2.4,12.2-3.1s10.6-0.8,16.4,0.5c5.9,1.3,11.8,4,17.5,8.9c5.7,4.9,8.9,9.8,10.5,14.5
		c1.6,4.7,1.6,9.2,0.9,13c-0.7,3.8-2.1,7.1-3.3,9.3c-1.2,2.2-2.3,3.6-2.3,3.6s0-0.5-0.1-1.4c-0.1-0.9-0.2-2.4-0.4-4.2
		c-0.3-1.8-0.6-4-1.2-6.6s-1.3-5.5-2.2-8.7"/>
	
		<path fill="none" stroke="#000000" stroke-width="6.5754" stroke-linecap="round" stroke-linejoin="round" stroke-miterlimit="10" d="
		M850.8,646.8c0,0,0.4,0.3,0.9,1c0.4,0.7,0.9,1.8,1,3.3c0.1,1.5-0.1,3.5-1.1,6c-1,2.5-2.7,5.5-5.6,9.1c0,0,0.1-0.8-0.1-2.2
		c-0.2-1.4-0.5-3.2-1.2-5.3c-0.7-2-1.9-4.3-3.6-6.4c-1.8-2.1-4.2-4.1-7.4-5.6"/>
	
		<path fill="none" stroke="#000000" stroke-width="6.5754" stroke-linecap="round" stroke-linejoin="round" stroke-miterlimit="10" d="
		M839.6,650.8c0,0-1-0.2-2.7-0.4c-1.7-0.2-3.9-0.4-6.4-0.4c-2.5-0.1-5,0.1-7.3,0.5c-2.3,0.4-4.3,1.2-5.5,2.4"/>
	
		<path fill="none" stroke="#000000" stroke-width="6.1167" stroke-linecap="round" stroke-linejoin="round" stroke-miterlimit="10" d="
		M584.2,644.5c0,0-1.3-0.3-3.2-0.4c-2-0.2-4.7-0.2-7.6,0.3s-6,1.5-8.7,3.5c-2.7,2-5.1,4.8-6.6,9.1"/>
	
		<path fill="none" stroke="#000000" stroke-width="3.8357" stroke-linecap="round" stroke-linejoin="round" stroke-miterlimit="10" d="
		M708.1,589.5c0,0,1-1,2.8-2.6c1.8-1.5,4.3-3.5,7.3-5.4c3-1.9,6.5-3.6,10.3-4.7c3.8-1,7.8-1.4,11.7-0.4c0,0-0.8,0.2-2,0.8
		c-1.2,0.5-2.7,1.3-4.3,2.4c-1.6,1-3.1,2.4-4.3,4.1c-1.2,1.6-2,3.6-2,5.9"/>
	
		<path fill="none" stroke="#000000" stroke-width="3.8357" stroke-linecap="round" stroke-linejoin="round" stroke-miterlimit="10" d="
		M710.4,597.3c0,0,0.9-0.5,2.6-1.2c1.6-0.7,3.9-1.6,6.7-2.5c2.8-0.8,6-1.6,9.5-2s7.2-0.3,10.9,0.3"/>
	
		<path fill="none" stroke="#000000" stroke-width="3.8357" stroke-linecap="round" stroke-linejoin="round" stroke-miterlimit="10" d="
		M675,664.1c0.2,0.2,0.3,1.4,0.8,3.1c0.5,1.8,1.3,4.1,3,6.7s4,5.3,7.6,7.9c3.6,2.6,8.3,4.9,14.7,6.6"/>
	
		<path fill="none" stroke="#000000" stroke-width="3.8357" stroke-linecap="round" stroke-linejoin="round" stroke-miterlimit="10" d="
		M718.9,676.3c0,0,0.2,1,0.7,2.5c0.5,1.5,1.3,3.6,2.7,5.6c1.4,2,3.3,4.1,6.1,5.7c2.7,1.6,6.2,2.7,10.7,2.8"/>
	
		<path fill="none" stroke="#000000" stroke-width="3.8357" stroke-linecap="round" stroke-linejoin="round" stroke-miterlimit="10" d="
		M596.6,646.8c0,0-0.6,0.5-1.3,1.5c-0.7,1-1.5,2.5-2,4.5c-0.4,2-0.4,4.3,0.4,7.1s2.7,6,6,9.5"/>
	
		<path fill="none" stroke="#000000" stroke-width="3.8357" stroke-linecap="round" stroke-linejoin="round" stroke-miterlimit="10" d="
		M684,565.3c0,0-0.1-0.1-0.1-0.2c-0.1-0.1,0-0.3,0.3-0.7c0.3-0.4,0.8-0.9,1.6-1.5c0.9-0.7,2.2-1.6,4-2.7c1.8-1.2,3-2.6,3.7-4
		s1-3,1-4.3c0.1-1.4-0.1-2.6-0.3-3.4c-0.2-0.9-0.4-1.4-0.4-1.4s0.5,0.6,1.4,1.6c0.8,1,1.8,2.4,2.8,4.1c0.9,1.7,1.8,3.7,2.2,5.8
		c0.4,2.1,0.5,4.3-0.2,6.4c-0.7,2.1-1.6,3.4-2.7,4.1c-1,0.7-2.2,0.8-3.3,0.5c-1-0.2-2-0.6-2.7-1c-0.7-0.4-1.2-0.8-1.2-0.8"/>
	
		<path fill="none" stroke="#000000" stroke-width="3.8357" stroke-linecap="round" stroke-linejoin="round" stroke-miterlimit="10" d="
		M727.1,556.9c0,0-0.2-0.4-0.5-1.1c-0.3-0.7-0.7-1.6-1-2.7c-0.4-1.1-0.8-2.4-1-3.6c-0.3-1.3-0.4-2.5-0.4-3.7c0,0-0.4,0.2-1.1,0.8
		c-0.7,0.5-1.6,1.3-2.7,2.2c-1.1,1-2.2,2.3-3.4,3.9c-1.2,1.6-2.3,3.4-3.3,5.5c-0.8,1.6-1.3,3.1-1.5,4.4s-0.1,2.4,0.4,3.4
		c0.5,1,1.4,1.8,2.8,2.5s3.3,1.2,5.7,1.6"/>
	
		<path fill="none" stroke="#000000" stroke-width="2.1918" stroke-linecap="round" stroke-linejoin="round" stroke-miterlimit="10" d="
		M757.9,680.1c0,0,0.5,0.6,1.7,1.5c1.2,0.8,2.8,1.9,5.2,2.7c2.4,0.8,5.3,1.4,8.8,1.4c3.6-0.1,7.7-0.8,12.5-2.5"/>
	
		<path fill="none" stroke="#000000" stroke-width="2.1918" stroke-linecap="round" stroke-linejoin="round" stroke-miterlimit="10" d="
		M763.5,673.4c0,0,0.5,0.4,1.4,0.9c0.9,0.5,2.1,1,3.7,1.4c1.5,0.4,3.4,0.5,5.4,0.3c2-0.3,4.2-1,6.6-2.6"/>
	
		<path fill="none" stroke="#000000" stroke-width="4.3836" stroke-linecap="round" stroke-linejoin="round" stroke-miterlimit="10" d="
		M535.2,562.1c0,0,0.5,0.6,1.8,1.4c1.3,0.8,3.2,1.7,5.9,2.4c2.7,0.7,6.2,1,10.6,0.6c4.4-0.4,9.8-1.5,16.1-3.8"/>
	
		<path fill="none" stroke="#000000" stroke-width="4.3836" stroke-linecap="round" stroke-linejoin="round" stroke-miterlimit="10" d="
		M556.9,555.3c0.3,0.3,0.7,0.8,1.3,1.5s1.4,1.5,2.7,2.3c1.3,0.8,3,1.7,5.2,2.5c2.3,0.8,5.2,1.5,8.8,2.1c3.1,0.4,5.1,0.3,6.4-0.3
		c1.3-0.6,1.9-1.7,2.1-3c0.2-1.3,0.1-2.8-0.2-4.4c-0.2-1.5-0.5-3.1-0.5-4.5"/>
	
		<path fill="none" stroke="#000000" stroke-width="4.3836" stroke-linecap="round" stroke-linejoin="round" stroke-miterlimit="10" d="
		M584.2,558.8c0,0,0.1,0.3,0.2,0.9c0.2,0.5,0.4,1.2,0.9,1.9c0.5,0.7,1.2,1.3,2.1,1.7c0.9,0.4,2.1,0.7,3.7,0.4l0.4-0.9l0.4-0.9
		l0.4-0.9l0.4-0.9c0,0,0.5,0.4,1.4,0.9c0.9,0.5,2,1,3.3,1.2c1.3,0.2,2.6,0.2,3.8-0.5c1.2-0.7,2.2-2,2.8-4.2c0,0,0.6-0.1,1.4-0.3
		c0.8-0.2,2-0.7,3-1.4c1-0.7,2-1.6,2.6-2.9c0.6-1.3,0.8-2.9,0.3-4.9s-1.2-3.6-2-4.9c-0.8-1.3-1.6-2.2-2.4-2.8s-1.5-1.1-2-1.3
		c-0.5-0.2-0.9-0.3-0.9-0.3s0.2-0.1,0.6-0.3c0.3-0.2,0.8-0.5,1.2-1c0.4-0.4,0.7-1,0.8-1.7s0.1-1.4-0.4-2.3c-0.4-0.9-0.7-1.6-0.8-2.1
		s-0.3-0.9-0.4-1.1c-0.2-0.2-0.4-0.1-0.8,0.1c-0.4,0.3-0.9,0.7-1.8,1.4c-0.8,0.7-1.6,1.2-2.3,1.5c-0.7,0.3-1.3,0.5-1.9,0.5
		c-0.5,0.1-1,0-1.4-0.1c-0.4-0.1-0.7-0.3-0.9-0.4c-0.2-0.2-0.2-0.2,0.1-0.3c0.2-0.1,0.6-0.2,1.1-0.4c0.5-0.2,0.9-0.5,1.3-1.2
		c0.4-0.6,0.7-1.4,0.9-2.6c0.2-1.2,0.1-1.9-0.2-2.4c-0.2-0.4-0.6-0.6-1.1-0.5s-1.1,0.4-1.8,0.9s-1.4,1.2-2.2,1.9
		c-0.8,0.8-1.5,1-2.2,0.9c-0.7-0.1-1.4-0.5-2.1-1c-0.7-0.5-1.4-1.3-2-1.9c-0.7-0.7-1.3-1.3-2-1.7c0,0,0.1-0.5,0-1.2
		c-0.1-0.7-0.2-1.6-0.6-2.6c-0.4-1-1-2-2-2.7s-2.4-1.4-4.2-1.5"/>
	
		<path fill="none" stroke="#000000" stroke-width="4.3836" stroke-linecap="round" stroke-linejoin="round" stroke-miterlimit="10" d="
		M595,540.5c4.1,0.5,7.5,0.7,10.2,0.7c2.7-0.1,4.9-0.3,6.6-0.4c1.7-0.2,3-0.3,4-0.2c1,0.1,1.8,0.5,2.4,1.4"/>
	
		<path fill="none" stroke="#000000" stroke-width="4.3836" stroke-linecap="round" stroke-linejoin="round" stroke-miterlimit="10" d="
		M570.2,540.9c0.2,0.1,1.4-0.1,3.2-0.3c1.8-0.3,4.1-0.9,6.7-1.8c2.5-0.9,5.3-2.1,7.8-3.8c2.5-1.7,4.9-3.8,6.6-6.5"/>
	
		<path fill="none" stroke="#000000" stroke-width="2.1918" stroke-linecap="round" stroke-linejoin="round" stroke-miterlimit="10" d="
		M571.5,541.9c0,0,0.1,0.5,0.5,1.2c0.3,0.7,0.9,1.7,1.7,2.7c0.8,1,1.9,2,3.4,2.7c1.5,0.8,3.3,1.3,5.5,1.3s3.8,0,4.8-0.1
		c1-0.1,1.6-0.2,1.9-0.3c0.3-0.1,0.3-0.2,0.3-0.3c-0.1-0.1-0.2-0.2-0.2-0.2"/>
	
		<path fill="none" stroke="#000000" stroke-width="2.1918" stroke-linecap="round" stroke-linejoin="round" stroke-miterlimit="10" d="
		M536.8,539.1c0,0,1.3,0,3.2,0.1c1.9,0.1,4.4,0.3,6.7,0.8c2.3,0.4,4.4,1.2,5.6,2.2c1.2,1,1.4,2.4,0,4.2c-1.4,1.7-2.4,3.9-2.9,6.2
		c-0.5,2.3-0.4,4.7,0.4,6.7c0.8,2,2.5,3.7,5.2,4.5c2.7,0.9,6.4,1,11.3-0.2"/>
	
		<path fill="none" stroke="#000000" stroke-width="2.1918" stroke-linecap="round" stroke-linejoin="round" stroke-miterlimit="10" d="
		M535.2,546.5c0,0,0.4,0.3,0.9,0.8c0.5,0.5,1.3,1.2,2,2.1c0.7,0.9,1.3,1.8,1.6,2.8c0.3,1,0.4,2.1,0,3.2c-0.4,1.1-1.2,2.1-1.8,3.1
		c-0.5,1-0.9,1.9-0.5,2.7c0.4,0.8,1.6,1.5,4.1,2c2.5,0.5,6.3,0.9,12,1"/>
	
		<path fill="none" stroke="#000000" stroke-width="4.3836" stroke-linecap="round" stroke-linejoin="round" stroke-miterlimit="10" d="
		M557.8,528.4c0,0,0.3-0.7,0.9-1.7c0.6-1,1.5-2.4,2.7-3.8c1.3-1.4,2.8-2.8,4.8-4.1c2-1.2,4.4-2,7.2-2.3"/>
	
		<path fill="none" stroke="#000000" stroke-width="4.3836" stroke-linecap="round" stroke-linejoin="round" stroke-miterlimit="10" d="
		M542.2,530.8c1,0.3,2.6,0.4,4.5,0.4c1.9,0,4.1-0.1,6.4-0.2c2.3-0.1,4.6-0.1,6.7,0c2.1,0.1,4.1,0.4,5.6,0.9"/>
	
		<path fill="none" stroke="#000000" stroke-width="2.1918" stroke-linecap="round" stroke-linejoin="round" stroke-miterlimit="10" d="
		M534.2,540.6c0,0,0.2-0.5,0.4-1.4c0.2-0.9,0.4-2,0.3-3.2c-0.1-1.3-0.4-2.7-1.2-3.9c-0.8-1.3-2-2.5-3.9-3.5"/>
	
		<path fill="none" stroke="#000000" stroke-width="2.1918" stroke-linecap="round" stroke-linejoin="round" stroke-miterlimit="10" d="
		M544.3,535.3c0,0-0.2-0.4-0.5-0.9c-0.3-0.5-0.9-1.3-1.7-2.1c-0.8-0.8-1.9-1.6-3.3-2.3c-1.4-0.7-3.2-1.2-5.4-1.5"/>
	
		<path fill="none" stroke="#000000" stroke-width="6.1167" stroke-linecap="round" stroke-linejoin="round" stroke-miterlimit="10" d="
		M310.7,709.2c0,0,0.2-0.8,0.5-2c0.4-1.3,1-3.1,2-5.2c1-2.1,2.2-4.5,3.9-7.1c1.6-2.6,3.7-5.2,6.2-7.7"/>
	
		<path fill="none" stroke="#000000" stroke-width="6.1167" stroke-linecap="round" stroke-linejoin="round" stroke-miterlimit="10" d="
		M316.1,711.6c0,0,0.5-0.5,1.4-1.5s2.1-2.2,3.7-3.7c1.6-1.5,3.5-3.2,5.5-4.9c2.1-1.8,4.4-3.5,6.8-5.1"/>
	
		<path fill="none" stroke="#000000" stroke-width="6.1167" stroke-linecap="round" stroke-linejoin="round" stroke-miterlimit="10" d="
		M257,664.1c0,0-2.1,0.1-5.4,0.3c-3.2,0.3-7.6,0.8-12.1,1.8c-4.4,1-8.9,2.4-12.5,4.5s-6.2,4.8-6.8,8.4c0,0,0.3-0.3,0.9-0.8
		c0.6-0.4,1.5-1.1,2.7-1.6c1.2-0.5,2.7-1.1,4.5-1.4c1.8-0.3,3.9-0.3,6.4,0c0,0-0.7,1.1-2,2.7c-1.3,1.6-3.2,3.7-5.6,5.8
		c-2.4,2.1-5.2,4.1-8.4,5.6c-3.2,1.4-6.7,2.3-10.4,2c0,0,0.3,0.2,0.8,0.5c0.5,0.3,1.3,0.8,2.4,1.4c1,0.5,2.4,1.1,3.9,1.6
		c1.6,0.5,3.4,1,5.4,1.3c0,0-3,0.4-7.4,1.2c-4.4,0.8-10.1,1.9-15.6,3.5c-5.5,1.5-10.7,3.5-14,5.8c-3.3,2.4-4.8,5-2.6,8.2"/>
	
		<path fill="none" stroke="#000000" stroke-width="6.1167" stroke-linecap="round" stroke-linejoin="round" stroke-miterlimit="10" d="
		M186.5,717.2c0,0-0.3-0.5-0.5-1.4c-0.3-0.8-0.4-1.9-0.2-3c0.2-1.1,0.9-2.1,2.4-2.8s3.7-1.1,7.1-0.8s4.8,1,5.3,2.1
		c0.5,1.1,0.1,2.6-0.3,4.1c-0.3,1.5-0.5,3.2,0.4,4.9c0.9,1.6,3,3.1,7.3,4.4c4.3,1.3,7.9,1.4,11,0.9c3.1-0.5,5.8-1.6,8-2.8
		c2.2-1.2,4.1-2.5,5.7-3.4c1.6-0.9,2.9-1.4,4.1-0.9c1.2,0.4,2.1,0.8,3,1.1c0.8,0.3,1.4,0.5,1.9,0.7c0.5,0.2,0.8,0.3,1,0.3
		c0.2,0.1,0.3,0.1,0.3,0.1"/>
	
		<path fill="none" stroke="#000000" stroke-width="6.1167" stroke-linecap="round" stroke-linejoin="round" stroke-miterlimit="10" d="
		M256.4,651.7c0,0-0.6-0.5-1.7-1.3c-1.1-0.8-2.7-1.8-4.7-2.7c-2-0.9-4.3-1.8-6.8-2.3c-2.6-0.5-5.4-0.6-8.4,0c0,0,0.5,0.6,1.1,1.5
		c0.6,0.9,1.3,2.1,1.8,3.3c0.5,1.2,0.7,2.4,0.4,3.3c-0.4,0.9-1.3,1.5-3.3,1.5c-1.9,0-4-1.2-6.5-2.7c-2.5-1.5-5.5-3.3-9.2-4.4
		c-3.7-1.2-8.1-1.8-13.6-0.9c-5.5,0.9-11.9,3.3-19.8,8c-7.8,4.7-12.3,9.1-14.6,13c-2.2,3.9-2.4,7.3-1.5,10.1s2.7,5,4.4,6.5
		c1.6,1.5,3.1,2.3,3.1,2.3s-2.6,0.4-6.5,1.4s-8.9,2.4-13.6,4.3c-4.8,2-9.4,4.5-12.3,7.6s-4.2,6.8-2.3,11.2"/>
	
		<path fill="none" stroke="#000000" stroke-width="6.1167" stroke-linecap="round" stroke-linejoin="round" stroke-miterlimit="10" d="
		M155.9,693.1c0,0-2-0.3-5.2-0.7c-3.1-0.3-7.4-0.7-11.9-0.5c-4.5,0.1-9.3,0.5-13.4,1.8c-4.1,1.3-7.6,3.2-9.6,6.4
		c-2,3.1-3.2,5.8-4.1,8c-0.8,2.2-1.2,4-1.2,5.4c-0.1,1.4,0.1,2.4,0.3,3.1c0.2,0.7,0.4,1,0.4,1"/>
	
		<path fill="none" stroke="#000000" stroke-width="6.1167" stroke-linecap="round" stroke-linejoin="round" stroke-miterlimit="10" d="
		M124.2,718.5c1.3,0.1,3.2-0.4,5.5-1.3c2.4-0.8,5.3-1.9,8.5-2.7c3.2-0.9,6.8-1.6,10.7-1.6c3.9-0.1,8,0.5,12.3,2.1"/>
	
		<path fill="none" stroke="#000000" stroke-width="2.1918" stroke-linecap="round" stroke-linejoin="round" stroke-miterlimit="10" d="
		M230.3,651.7c0,0-0.3-0.2-0.9-0.8c-0.6-0.5-1.4-1.4-2.3-2.6c-0.9-1.2-2-2.7-3-4.7s-2.1-4.3-3-7.2"/>
	
		<path fill="none" stroke="#000000" stroke-width="2.1918" stroke-linecap="round" stroke-linejoin="round" stroke-miterlimit="10" d="
		M250.1,647.7c0,0-0.3-1.3-0.8-3.3c-0.5-2-1.3-4.9-2.4-7.9c-1.1-3.1-2.5-6.4-4.2-9.4c-1.7-3.1-3.8-5.9-6.1-7.8"/>
	
		<path fill="none" stroke="#000000" stroke-width="2.1918" stroke-linecap="round" stroke-linejoin="round" stroke-miterlimit="10" d="
		M206.3,661.6c0,0-0.1,0.7-0.4,1.8c-0.3,1.2-0.8,2.7-1.6,4.5s-2,3.9-3.6,6c-1.6,2.1-3.6,4.2-6.1,6.1"/>
	
		<path fill="none" stroke="#000000" stroke-width="2.1918" stroke-linecap="round" stroke-linejoin="round" stroke-miterlimit="10" d="
		M201.4,672.8c0,0,1.1-0.9,2.9-2.2c1.9-1.3,4.4-2.8,7.4-4.2s6.4-2.4,9.9-2.5c3.5-0.2,7,0.6,10.2,2.8"/>
	
		<path fill="none" stroke="#000000" stroke-width="2.1918" stroke-linecap="round" stroke-linejoin="round" stroke-miterlimit="10" d="
		M183.7,676c0.5,0.2,1.6,0.5,2.9,1.2c1.3,0.6,2.9,1.4,4.5,2.4c1.6,1,3.2,2.1,4.6,3.4c1.4,1.3,2.6,2.7,3.3,4.3"/>
	
		<path fill="none" stroke="#000000" stroke-width="2.1918" stroke-linecap="round" stroke-linejoin="round" stroke-miterlimit="10" d="
		M163,689.5c0,0-0.3,0.4-0.8,0.6c-0.5,0.3-1.1,0.4-1.6-0.1c-0.5-0.5-1-1.6-1.2-3.7c-0.2-2.2-0.1-5.5,0.5-10.3"/>
	
		<path fill="none" stroke="#000000" stroke-width="2.1918" stroke-linecap="round" stroke-linejoin="round" stroke-miterlimit="10" d="
		M167.6,689.2c-0.7-1.2-1.5-3-2.4-5.3c-0.8-2.2-1.7-4.9-2.3-7.8c-0.7-2.9-1-6.1-1.1-9.3c-0.1-3.2,0.3-6.5,1.2-9.6"/>
	
		<path fill="none" stroke="#000000" stroke-width="2.1918" stroke-linecap="round" stroke-linejoin="round" stroke-miterlimit="10" d="
		M139.6,709.1c0,0-0.2-0.6-0.5-1.4c-0.4-0.8-1-1.9-1.9-2.7c-0.9-0.9-2.1-1.6-3.8-1.8c-1.6-0.2-3.6,0.2-6.1,1.5
		c-2.5,1.3-4.5,2.8-6.2,4.4c-1.7,1.5-3,3.1-4,4.5c-1,1.4-1.7,2.6-2.1,3.6c-0.4,0.9-0.7,1.4-0.7,1.4"/>
	
		<path fill="none" stroke="#000000" stroke-width="2.1918" stroke-linecap="round" stroke-linejoin="round" stroke-miterlimit="10" d="
		M128.2,715.7c0,0,0.3-0.7,0.6-1.7c0.3-1,0.7-2.4,0.9-3.7c0.2-1.4,0.3-2.7-0.1-3.8c-0.3-1-1-1.8-2.4-1.9"/>
	
		<path fill="none" stroke="#000000" stroke-width="2.1918" stroke-linecap="round" stroke-linejoin="round" stroke-miterlimit="10" d="
		M365.5,724.7c0,0,1.4-0.4,3.5-1c2.1-0.6,5-1.4,7.9-2.1c2.9-0.8,5.9-1.5,8.3-2.1c2.4-0.6,4.1-1,4.6-1s1.2-0.6,2.1-1.5
		c0.8-0.9,1.8-2.1,2.7-3.2c0.9-1.2,1.7-2.4,2.3-3.2c0.6-0.9,1-1.5,1-1.5c-2.9-2-5.4-3.8-7.5-5.4c-2.1-1.6-3.7-2.9-5-4
		c-1.3-1.1-2.2-1.9-2.8-2.5c-0.6-0.5-0.9-0.9-0.9-0.9l2-2.8l2-2.8l2-2.8l2-2.8l-1.6-3.3l-1.6-3.3l-1.6-3.3l-1.6-3.3
		c0,0-0.5-0.4-1.5-1c-1-0.7-2.4-1.5-4.1-2.5c-1.7-1-3.6-2.1-5.8-3.1c-2.1-1-4.3-2-6.6-2.8c-2.2-0.8-4.7-1.5-7.1-2.1
		c-2.4-0.7-4.9-1.3-7.1-1.9c-2.2-0.6-4.3-1.2-6-1.8c-1.6-0.6-2.9-1.3-3.6-1.9c-0.7-0.7-2.2-1.7-4.2-2.8c-2-1.2-4.3-2.4-6.6-3.6
		s-4.4-2.2-6.1-3s-2.7-1.3-2.7-1.3l-0.1-2.8l-0.1-2.8l0-2.9l-0.1-2.8l2.9-1.8l2.9-1.8l2.9-1.8l2.9-1.8c-3.3-1.5-6.8-3-10.4-4.5
		c-3.5-1.5-7-2.9-10.1-4.1c-3.1-1.2-5.7-2.2-7.6-3c-1.9-0.7-3-1.2-3-1.2"/>
	
		<path fill="none" stroke="#000000" stroke-width="2.1918" stroke-linecap="round" stroke-linejoin="round" stroke-miterlimit="10" d="
		M606.6,715.7l-12.2-7.5l-12.2-7.5l-12.2-7.5l-12.2-7.5l-10-4.3l-10-4.3l-10-4.3l-10-4.3c0,0-0.7-0.8-1.8-2c-1-1.2-2.4-2.9-3.7-4.7
		c-1.3-1.8-2.5-3.7-3.3-5.4s-1.2-3.2-0.7-4.2c0.4-0.9,1-2.5,1.6-4.2c0.6-1.8,1.3-3.8,2.1-5.8c0.8-2,1.7-3.8,2.6-5.4
		c0.9-1.5,2-2.7,3.1-3.2s3.2-1.2,5.6-2.1c2.5-0.8,5.4-1.8,8.2-2.7c2.8-0.9,5.4-1.7,7.3-2.3c1.9-0.6,3.2-1,3.2-1h2.8h2.8h2.8h2.8
		l2.5,1l2.5,1l2.5,1l2.5,1"/>
	
		<path fill="none" stroke="#000000" stroke-width="2.1918" stroke-linecap="round" stroke-linejoin="round" stroke-miterlimit="10" d="
		M409.9,530.8c0,0,2.5,0.4,6.2,1c3.7,0.6,8.7,1.5,13.7,2.3s10,1.7,13.9,2.4c3.9,0.7,6.6,1.2,6.8,1.2c0.3,0.1,1.3,0.1,2.5-0.1
		c1.3-0.1,3-0.2,4.8-0.3c1.8-0.1,3.7-0.2,5.5-0.1c1.8,0.1,3.5,0.2,4.8,0.5c1.3,0.3,2.4,0.5,3.3,0.7s1.6,0.3,2.2,0.5
		c0.6,0.2,1,0.4,1.4,0.8c0.3,0.3,0.5,0.8,0.7,1.5c0.2,0.7,0.5,1.3,1,1.8c0.5,0.5,1.1,1,1.7,1.5c0.7,0.4,1.4,0.8,2.1,1.2
		c0.7,0.3,1.4,0.6,2,0.8s1.2,0.3,1.8,0.4c0.5,0.1,1,0,1.5-0.1c0.4-0.1,0.8-0.1,1-0.2c0.2-0.1,0.4-0.1,0.4-0.1"/>
	
		<path fill="none" stroke="#000000" stroke-width="2.1918" stroke-linecap="round" stroke-linejoin="round" stroke-miterlimit="10" d="
		M615,558.3c0,0,0.5-0.4,1.4-1s2.1-1.3,3.5-2.1c1.4-0.8,3-1.4,4.5-1.8c1.5-0.4,3-0.5,4.3-0.2c1.3,0.4,2.6,0.4,3.8,0.4
		c1.2-0.1,2.4-0.3,3.3-0.5c0.9-0.3,1.8-0.5,2.4-0.8c0.5-0.2,0.9-0.4,0.9-0.4s0-0.3-0.1-0.7c-0.1-0.4-0.2-1-0.3-1.6
		c-0.2-0.6-0.4-1.3-0.7-1.8c-0.3-0.5-0.8-1-1.3-1.4c-0.5-0.3-1.3-0.8-2-1.3c-0.8-0.5-1.5-1.2-2.2-1.8c-0.7-0.6-1.4-1.1-1.8-1.5
		c-0.5-0.4-0.8-0.7-0.8-0.7L629,540l-0.9-1.1l-0.9-1.1l-0.9-1.1v-0.5v-0.5v-0.5v-0.5"/>
	
		<path fill="none" stroke="#000000" stroke-width="2.1918" stroke-linecap="round" stroke-linejoin="round" stroke-miterlimit="10" d="
		M648,553.9c0,0-0.2-0.2-0.4-0.6c-0.2-0.4-0.5-0.9-0.8-1.4c-0.2-0.5-0.3-1.2-0.2-1.7c0.2-0.5,0.5-1,1.4-1.4c0.8-0.3,2-0.9,3.3-1.6
		s2.7-1.5,4.1-2.2c1.3-0.8,2.6-1.5,3.5-2c0.9-0.5,1.5-0.9,1.5-0.9l1.2-0.7l1.2-0.7l1.2-0.7l1.2-0.7l2.8-0.7l2.8-0.7l2.8-0.7l2.8-0.7
		l3.3,0.3l3.3,0.3l3.3,0.3l3.3,0.3l3.8-0.8l3.8-0.8l3.8-0.8l3.8-0.8l0.8-0.8l0.8-0.8l0.8-0.8l0.8-0.8c0,0,0,0,0.1,0.1
		c0.1,0.1,0.2,0.1,0.3,0.2c0.2,0.1,0.4,0.1,0.8,0.2c0.3,0.1,0.8,0.1,1.4,0.2c0.5,0.1,1.4,0,2.4-0.2c1-0.1,2-0.3,3-0.5
		c1-0.2,1.9-0.4,2.6-0.5s1.1-0.3,1.1-0.3"/>
</g>
<g id="vs-reveal">
	
		<path fill="none" stroke="#F90BB6" stroke-width="136.988" stroke-linecap="round" stroke-linejoin="round" stroke-miterlimit="10" stroke-opacity="0" d="
		M248,236.8c0,0-0.8,0.6-2.1,1.8c-1.4,1.1-3.2,2.7-5.4,4.7c-2.2,2-4.7,4.3-7.2,6.8c-2.5,2.6-5.1,5.3-7.5,8.2s-4.5,5.9-6.2,8.8
		s-3,5.8-3.5,8.5c-0.5,2.7-0.4,5.3,0.7,7.5c1.1,2.2,3.2,4.2,6.5,5.6c3.3,1.4,7.2,2.7,11.5,3.7s8.9,1.9,13.6,2.6
		c4.8,0.7,9.6,1.3,14.4,1.9s9.4,1,13.7,1.5c4.3,0.5,8.2,1,11.5,1.5c3.3,0.5,6,1.2,7.8,2s2.8,1.6,2.7,2.7c-0.1,1.1-1.4,2.4-3.9,3.9
		c-2.6,1.5-6.1,3.4-10.3,5.5c-4.2,2.1-9,4.4-14.1,6.7c-5.2,2.4-10.6,4.9-16.1,7.3c-5.5,2.5-11,5-16.1,7.3c-5.2,2.4-10,4.7-14.2,6.7
		c-4.2,2.1-7.8,3.9-10.4,5.4c-2.6,1.5-4.3,2.7-4.6,3.6c-0.4,0.8,0.5,1.2,3,1c2.5-0.2,13.8-2.6,31.3-6.6c17.6-4,41.6-9.6,69.8-16.2
		c28.1-6.5,60.3-13.9,94.2-21.6c33.9-7.7,69.6-15.5,104.7-22.9c35.1-7.4,69.6-14.4,101.2-20.2c31.6-5.8,60.3-10.5,83.8-13.3
		c23.5-2.8,41.7-3.8,52.4-2.3s13.8,5.6,7,12.8c-6.8,7.2-23.7,14.6-47.7,22.1c-24,7.5-55.2,14.8-90.3,22.1s-74.4,14.4-114.6,21.2
		c-40.2,6.8-81.4,13.3-120.5,19.3c-39.1,6-76.2,11.6-108.1,16.6c-31.9,5-58.7,9.3-77.4,12.8c-18.6,3.6-29.2,6.4-28.4,8.2
		c0.8,1.9,12.7,2.7,39,2.6s57.1-1.5,90.8-3.5c33.7-2,70.1-4.8,107.6-7.9s75.9-6.6,113.6-10.1c37.6-3.5,74.5-7,108.7-10.2
		c34.2-3.2,65.9-6,93-8.1c27.2-2.1,49.9-3.5,66.5-3.8c16.5-0.3,26.8,0.4,29,2.7c2.2,2.2-3.6,5.9-19.2,11.3
		c-15.7,5.4-39.3,10.7-68.5,15.9c-29.2,5.2-63.7,10.1-101.3,14.9s-77.9,9.4-118.7,13.8s-81.9,8.5-120.8,12.4
		c-38.9,3.9-75.6,7.5-107.6,10.8s-59.1,6.4-79,9.2c-19.8,2.7-32.4,5.2-35.1,7.2c-2.7,2.1,4.5,3.8,24.2,5.2
		c19.7,1.4,48.8,0.9,84.1-0.6c35.3-1.6,76.9-4.4,121.5-7.8s92.2-7.5,139.5-11.6c47.3-4.2,94.4-8.4,138-12.1
		c43.6-3.8,83.7-7.1,117-9.3c33.4-2.3,59.9-3.6,76.6-3.2c16.7,0.3,23.3,2.2,16.8,6.1c-6.6,4-26.3,10.1-62.6,18.8
		c-36.3,8.8-77.8,16.9-122.5,24.5c-44.7,7.6-92.4,14.5-141,20.8c-48.5,6.4-97.9,12.1-145.6,17.2s-94.1,9.7-136.5,13.6
		s-81.2,7.4-113.7,10.2c-32.5,2.8-59,5.1-77,6.8c-18,1.7-27.7,2.8-26.6,3.5c1.1,0.6,12.9,0.7,37.6,0.2s58.1-2.2,97.4-4.8
		c39.2-2.6,84.2-6.1,132.3-10c48.1-3.9,99.2-8.4,150.5-12.9c51.3-4.5,103-9.2,152.1-13.5c49.2-4.3,95.7-8.4,137-11.8
		c41.3-3.4,77.4-6.1,105.3-7.7s47.8-2.2,56.9-1.3c9,0.9,7.2,3.2-8.2,7.4c-15.5,4.2-42.4,8.6-77.3,13.2
		c-34.9,4.6-77.8,9.4-125.1,14.2c-47.3,4.8-99.1,9.8-151.7,14.6c-52.7,4.9-106.2,9.8-157.2,14.5s-99.2,9.4-141.4,13.8
		s-78.1,8.7-104.4,12.6s-42.9,7.6-46.2,10.9c-3.3,3.3,6.5,6.2,33.1,8.6s58.9,3.7,94.7,4.2s75.3,0.2,116.2-0.7
		c40.9-0.8,83.4-2.2,125.3-3.7c41.9-1.5,83.3-3.3,122.1-4.9c38.7-1.6,74.9-3.1,106.4-4.2c31.5-1.1,58.2-1.8,78.3-1.7
		c20.1,0.1,33.3,0.9,37.8,2.7s0.2,4.8-15.1,9c-15.2,4.3-40.5,8.5-73,12.7s-71.9,8.3-115.3,12.4c-43.5,4.1-90.8,8-139,11.8
		c-48.2,3.8-97.3,7.5-144.1,11.1s-91.4,6.9-130.6,10s-73,6.1-98.4,8.8c-25.4,2.7-42.2,5.1-47.6,7.2c-5.3,2.1,0.9,4,21.8,5.5
		s51.7,1.5,89.2,0.4c37.4-1.1,81.5-3.2,129.2-6c47.6-2.7,98.7-6.1,150.1-9.5c51.4-3.5,103.1-7.1,151.8-10.3
		c48.8-3.2,94.7-6.1,134.5-8.3c39.8-2.1,73.6-3.4,98.1-3.4c24.5,0,39.7,1.3,42.5,4.3s-6.9,7.8-32.2,14.7c-25.3,7-58.6,12.9-97,18
		c-38.5,5.1-82.1,9.4-128.2,13.1c-46.1,3.7-94.6,6.8-142.7,9.6c-48.2,2.7-96,5.2-140.7,7.5c-44.7,2.3-86.4,4.4-122.1,6.7
		c-35.8,2.3-65.6,4.7-86.9,7.4c-21.3,2.7-33.9,5.8-35.1,9.5c-1.2,3.7,8.9,7.9,33.3,12.9s56.5,8.3,93.9,10.1
		c37.4,1.8,80,2.2,125.2,1.8c45.2-0.5,92.9-2,140.5-3.9c47.7-2,95.2-4.4,140.1-7c44.9-2.5,87-5.1,123.7-7.3c36.8-2.2,68.2-4,91.5-5
		c23.3-1,38.7-1.1,43.4,0.1c4.7,1.2-1.3,3.6-20.6,7.7"/>
</g>
</svg>
