<?xml version="1.0" encoding="utf-8"?>
<!-- Generator: Adobe Illustrator 26.2.0, SVG Export Plug-In . SVG Version: 6.00 Build 0)  -->
<svg isCommex="true" version="1.1" id="Layer_1" xmlns="http://www.w3.org/2000/svg" xmlns:xlink="http://www.w3.org/1999/xlink" x="0px" y="0px"
	 width="2071.8px" height="1181.9px" viewBox="0 0 2071.8 1181.9" enable-background="new 0 0 2071.8 1181.9" xml:space="preserve">
<path fill="#CCCCCC" d="M1986.9,1154.5c0-0.1-0.1-0.3-0.1-0.5v-31l-0.4-0.3c-0.2-0.1-0.3-0.2-0.4-0.4c-1.7-1.6-6.1-5.7-11.9-6.1
	c-6.4-0.5-11-0.3-13.6,0.5l-0.7,0.2v37c0,0.2,0,0.3-0.1,0.5l-0.4,1.3h27.8L1986.9,1154.5z"/>
<path fill="#A3A3A3" d="M2026,896.5c-0.2,0-0.4,0.1-0.7,0l-0.4-0.1c-11.5-1.4-52.4-6.6-93.4-12c-46.8-6.2-74.4-10.2-87-12.5
	l-1.4-0.3l0.2,1.4c1.4,7.8,3.7,23,4.4,37.1c0.2,4.2,0.2,8,0.1,11.4c-1.3,35.4,0,67.8,3.8,96.1c1.7,12.5,4.2,24.7,7.4,35.4
	c0.9,2.9,1.8,5.7,2.7,8.3c5.5,15.2,12,25.4,18.4,28.7c8.5,4.3,32,7.1,54.7,9.7c7,0.8,15.2,1.8,23.1,2.8c2.2,0.3,4.4,0.6,6.5,0.9
	c7.9,1.1,16.4,2.6,25.1,4.3c20.5,4,35.6,8.1,35.7,8.2c0.1,0,0.3,0.1,0.4,0.2l1.4,0.7V896.3L2026,896.5z"/>
<path fill="#A3A3A3" d="M1230.8,516.9l0.7,0.7c1,1,1.6,1.6,1.6,1.6c0.3,0.4,0.5,0.8,0.6,1.3l0.5,26.8l41.2-45.9l-1.5-29.4
	L1230.8,516.9z"/>
<path fill="#A3A3A3" d="M1168.4,462.3l97.1,14.2l3.9-4.1l-102.2-15.5l-23.9,25.9l1.8,0.3c1.2,0.2,2.3,0.4,3.5,0.6l1.2,0.2l17.7-21.4
	C1167.7,462.3,1168.1,462.2,1168.4,462.3z"/>
<path fill="#A3A3A3" d="M1168.7,464.3l-16.6,20l1.7,0.3c26,4.5,51.5,9,53.9,9.4h0.1c0.5,0,1,0.3,4.5,3.8c1.9,1.9,4.6,4.7,8.9,9.1
	c2.4,2.5,4.8,5,6.8,7l0.7,0.7l35-36.5L1168.7,464.3z"/>
<polygon fill="#A3A3A3" points="1165.2,515.1 1181.8,534.8 1218,522.5 1200.2,503.4 "/>
<polygon fill="#A3A3A3" points="1060.1,537.6 1094.1,526.7 1094.1,490.9 1060.1,498.5 "/>
<path fill="#A3A3A3" d="M938,585.8l62.8,11.7c0.4,0.1,0.9,0.3,1.2,0.6l16.2,16.9v-24.5L938,578.3V585.8z"/>
<path fill="#A3A3A3" d="M869.2,577.5l-0.4,0.4c-0.3,0.2-0.4,0.5-0.5,0.8v0.3c0,0.5,0.4,1.1,0.9,1.6c3,2.9,30.6,13.5,36.1,15.6
	c4.1,1.6,8.6,3.3,13.4,5l94.1,14.7l-13.5-14.1L869.2,577.5z"/>
<polygon fill="#A3A3A3" points="935,577.9 929,576.9 929,584.2 935,585.3 "/>
<path fill="none" d="M589.1,796c0.4,0.1,0.9,0,1.1-0.4l15.3-20.4c0.1-0.2,0.2-0.4,0.2-0.6V662.5c0-0.4-0.2-0.7-0.6-0.9
	c-0.1-0.1-0.3-0.1-0.4-0.1c-0.2,0-0.4,0.1-0.6,0.2l-15.3,12.5c-0.2,0.2-0.4,0.5-0.4,0.8v120.1C588.4,795.4,588.7,795.8,589.1,796z"
	/>
<path fill="#C4DEFF" d="M1830.5,846.2l-0.1-0.7l-34.3-5.9l2.1,15.9l34.3,6.2l-0.2-1.4C1831.8,856.7,1831.2,852,1830.5,846.2z"/>
<path fill="#C4DEFF" d="M1824.5,784.1c-0.3-3.5-0.6-7-0.9-10.5l-0.1-0.8l-30.1-5l1.5,11.8l29.6,5.8V784.1z"/>
<path fill="#C4DEFF" d="M1796.7,952.4l20.6,4.8l0.1-1.2c0.3-4.7,0.8-9.1,1.5-13.1l0.2-1l-23.5-4.6L1796.7,952.4z"/>
<path fill="#C4DEFF" d="M1061.9,951.5c-0.3,0.2-0.7,0.2-1,0.2h-0.2h-0.2c-0.2,0-0.5,0-0.7,0c-0.3-0.1-1-0.2-1.9-0.4l-1.2-0.3
	l0.6,31.8l212.9-102.2l0.6-0.3l0.3-26.5l-92.9,43.4L1061.9,951.5z"/>
<polygon fill="#C4DEFF" points="1221.8,546.2 1199.1,553.7 1199.1,585.1 1221.8,575.6 "/>
<polygon fill="#C4DEFF" points="1073.9,647.3 1073.9,659 1220.7,598.9 1221.3,598.6 1221.3,588.2 1074.5,647 "/>
<path fill="#C4DEFF" d="M1160.1,337.4l-1.8,0.3c-80.6,13.9-179.6,31-193.3,33.5l-0.7,0.1l-0.2,0.6c-2.4,7.1-13,37.5-47.3,135.6
	l-0.6,1.7l175.6-40.7l11.6-2.7L1160.1,337.4z"/>
<path fill="#C4DEFF" d="M1080.9,606.8c0.4,9.9,0.6,15.8,0.6,19.3v1.6l2.4-1.3c0.7-0.4,1.5-0.8,2.4-1.2c2.1-1.1,4.1-2.1,5.3-2.7
	l0.5-0.3v-21.1l-11.3,5L1080.9,606.8z"/>
<path fill="#C4DEFF" d="M1091.1,479.7v-6.9l-56.6,13.1v6.8l1.2-0.3c12.9-3,25.5-5.9,36.5-8.4L1091.1,479.7z"/>
<path fill="#C4DEFF" d="M1070.9,648.5l-4.7,1.9c-0.4,0.1-0.8,0.2-1.1,0.1l-149.2-29.1v5.5l155,32.7V648.5z"/>
<path fill="#C4DEFF" d="M1068.1,695.9c0-6.4,0-12.8,0-16v-0.8l-232.2-47.3v27.5l232.2,46.8V695.9z"/>
<path fill="#C4DEFF" d="M895.2,897.3l-2.3,14.2l0.9,0.2c20,4.3,142.1,30.7,163.8,35.3l1.2,0.3l-0.4-238.3v-0.8l-214.9-43.3l-1.2-0.2
	l0.1,116h1c0.5,0,1,0,1.5,0c50.8,0,64.7,13.5,65.5,18.3c0,0.1,0.1,0.7-0.2,3.2C909.2,810,905.7,832.3,895.2,897.3z"/>
<path fill="#C4DEFF" d="M1052.9,950.2c-23.1-5-139.1-30-159.7-34.5l-1-0.2l-0.2,1c-1.9,11.5-3.3,20.5-4.4,27.1l-0.1,0.9l165.5,38.3
	l1.3,0.3l-0.7-32.8L1052.9,950.2z"/>
<path fill="#C4DEFF" d="M987.8,503.6c12.7-2.9,27.8-6.4,42.9-9.9l0.8-0.2v-6.8l-44.9,10.4v0.8c0,1.2,0,2.9,0,4.7v1.2L987.8,503.6z"
	/>
<path fill="#C4DEFF" d="M931.1,510v7.9l1.3-0.4c12.6-3.6,25.1-6.8,37-9.6l14.3-3.3v-0.8c0-1.4,0-3.2,0-4.7v-1.3L931.1,510z"/>
<path fill="#C4DEFF" d="M784,811.2l0.8,0.3l5.9-11.1c0.4-0.7,1.2-1,1.9-0.7l7,2.8l0.9,0.6l0.5-0.9c0.5-0.9,1.1-1.8,1.8-2.9l0.3-0.4
	c0.3-0.5,1-0.8,1.6-0.7l16.9,3.6l0.6,0.3l0.5-0.5c4.1-3.7,6.8-6.5,8.2-8.5c0.2-0.4,0.7-0.6,1.1-0.6c0.5,0,0.9,0.1,1.2,0.5
	c2.5,2.5,5.9,7,10.2,13.4l0.5,0.7l21-11c0.5-0.2,1-0.2,1.5,0c0.4,0.3,0.7,0.8,0.7,1.3v7.7l1.4-0.5c3.2-1.2,9.5-4,10.6-5.7
	c0.3-0.6,0.9-0.9,1.5-0.8c0.6,0.1,1.1,0.6,1.3,1.2c0.7,3.2,0.3,9.1,0,12.3l-0.1,1.5l1.4-0.5c13.3-4.2,20.8-9.4,23-11.6l0.2-0.2v-0.3
	c0-0.3,0.1-0.5,0.1-0.7v-0.3l-0.1-0.2c-2-4.3-17.7-15.2-65.4-14.6c-1.7,0-3.4,0.1-5.2,0.1c-45.3,1.3-64,9.7-69.9,13.3l-0.7,0.4
	l0.2,0.7C765.8,800.8,768.6,806.3,784,811.2z"/>
<path fill="#C4DEFF" d="M891.3,896.4c5.1-31.2,11.4-69.9,14-87.7l0.3-2.2l-1.8,1.2c-5.5,3.5-17.7,9.8-37.8,13
	c-4.9,0.8-10,1.3-15.3,1.7c-9.4,0.6-19.6,0.4-30.3-0.6c-9.8-0.9-18.6-2.2-26.2-3.8c-12.1-2.6-21.1-6-26.7-10.1l-1.9-1.4l22.2,148
	l0.3,0.2c9,6.9,30.5,10,46.1,10.6c1,0,2,0.1,3,0.1c16.3,0,41-4.5,44.7-10.9l0.1-0.2v-0.2c0.1-1.3,0.5-3.8,1.2-8
	c1-6.1,2.5-15.8,5.4-33.4L891.3,896.4z"/>
<path fill="#C4DEFF" d="M867.8,808.1l-0.7,0.2v8.2l1.2-0.2c3.4-0.6,6.6-1.3,9.6-2.1l0.7-0.2l0.1-0.7c0.2-1.5,0.5-5.2,0.6-8.7v-1.8
	l-1.5,0.9C874.2,805.8,869.6,807.4,867.8,808.1z"/>
<path fill="#C4DEFF" d="M851.2,818.3h0.6c4-0.3,7.9-0.7,11.5-1.2l0.9-0.1v-17.1l-18.5,9.7l0.6,0.9c1.5,2.3,3,4.7,4.7,7.3
	L851.2,818.3z"/>
<path fill="#C4DEFF" d="M820.7,817.8c6.5,0.6,12.8,0.9,19,0.9c2.1,0,4.2,0,6.3-0.1l1.7-0.1l-0.9-1.5c-3.9-6.2-9.6-14.8-13.9-19.9
	l-0.7-0.9l-0.8,0.9c-5.2,5.9-15.9,14.5-20.2,17.9l-1.9,1.5l2.4,0.3C814.6,817.2,817.7,817.5,820.7,817.8z"/>
<path fill="#C4DEFF" d="M804.8,815.8l0.4,0.1l0.3-0.3c0.6-0.5,6.4-4.9,12.4-10l1.6-1.3l-14.4-3.1l-0.4,0.6
	c-3.4,5.4-5.6,9.2-6.9,11.4l-0.7,1.2l1.4,0.3C800.7,815.2,802.7,815.5,804.8,815.8z"/>
<path fill="#C4DEFF" d="M799,805.4l-6.2-2.5l-5,9.4l1.2,0.3c1.6,0.4,2.9,0.7,4.3,1l0.7,0.2l0.4-0.7c0.8-1.4,2.2-3.7,4-6.8L799,805.4
	z"/>
<polygon fill="#C4DEFF" points="1958.2,566.6 1947.9,676.7 2027.1,684.8 2027.1,570.8 "/>
<path fill="#808080" d="M2025.5,717.4c-15.3-1.8-54.9-6.4-92.4-10.5c-8.3-0.9-16.5-1.8-24.3-2.6c-27.6-2.9-44.6-4.5-50.6-4.6
	c-12.1-0.3-21.2,0.6-26.8,5.9c-4,3.9-6.1,10.3-6.1,19.4c0,4.4,0.2,11.8,0.9,21.9c0.4,6.8,1,14.9,1.7,24c0.4,4.8,0.8,10,1.4,16.4
	c1.7,20.1,3.8,41.2,5.5,56.5c0.9,7.9,2.1,18,3,21.7l0.1,0.6l0.6,0.2c0.5,0.1,1.1,0.3,1.8,0.4h0.1c0.2,0,0.4,0.1,0.6,0.1l0.2,0.1h0.1
	c22.8,4.6,130.7,18.5,184.5,25.2c0.1,0,0.1,0,0.1,0l1.2,0.3V717.6L2025.5,717.4z"/>
<path fill="#808080" d="M1847.2,1018.4c-3.8-28.6-5.1-61.2-3.9-96.9c0.1-2.3,0.1-4.8,0-7.4v-1.4l-1.3,0.5c-3.7,1.5-10.6,5.7-15.4,18
	c-2.5,6.3-4.2,16.2-4.8,27.9c-0.9,18.1,0.9,43.2,8.8,59.3c6.4,13,14.2,21.9,19.7,27.2l2.5,2.4l-0.8-3.3
	C1850,1036.4,1848.4,1027.6,1847.2,1018.4z"/>
<polygon fill="#808080" points="1092.3,491.2 1092.3,527.2 1176,500.4 1100.8,489.3 "/>
<polygon fill="#808080" points="1055.3,539.1 1061.8,537 1061.8,498.1 952.1,522.6 "/>
<path fill="#8CD96F" d="M1083.3,550.5l-0.5-0.4l-0.6,0.2c-1.1,0.4-2.8,1.1-4.4,1.7l-0.4,0.2c-2.6,1-4.8,1.9-6.4,2.5l-1.4,0.5
	l8.4,8.6l13.5-5.2l-1.1-1.1C1087.7,554.8,1084.7,551.8,1083.3,550.5z"/>
<polyline fill="none" stroke="#000000" stroke-width="6.5" stroke-linecap="round" stroke-linejoin="round" stroke-miterlimit="10" points="
	631.1,55.8 571.5,37.9 549.8,37.9 551.2,1139.4 570.2,1139.4 632,990.8 "/>
<path fill="none" stroke="#000000" stroke-width="4" stroke-linecap="round" stroke-linejoin="round" stroke-miterlimit="10" d="
	M569.3,37.9c0,0-0.4,1089.1,1.3,1100.6"/>
<path fill="none" stroke="#000000" stroke-width="4" stroke-linecap="round" stroke-linejoin="round" stroke-miterlimit="10" d="
	M589.4,795c0-1.1,0-120.1,0-120.1l15.3-12.4v112.1L589.4,795z"/>
<polyline fill="none" stroke="#000000" stroke-width="6" stroke-linecap="round" stroke-linejoin="round" stroke-miterlimit="10" points="
	631.1,55.8 632,991.5 782,941.1 "/>
<polyline fill="none" stroke="#000000" stroke-width="5" stroke-linecap="round" stroke-linejoin="round" stroke-miterlimit="10" points="
	579.8,40.4 653.5,38.8 653.7,831.2 762.2,801.8 "/>
<polyline fill="none" stroke="#000000" stroke-width="5" stroke-linecap="round" stroke-linejoin="round" stroke-miterlimit="10" points="
	549.8,37.9 259.1,39 260.8,934.6 49.9,990.3 52.6,29.3 "/>
<path fill="none" stroke="#000000" stroke-width="5" stroke-linecap="round" stroke-linejoin="round" stroke-miterlimit="10" d="
	M165.8,1155.3c1.3-1.4,115.1-39.7,115.1-39.7L279.2,58.9l270.6-3.1"/>
<line fill="none" stroke="#000000" stroke-width="4.5" stroke-linecap="round" stroke-linejoin="round" stroke-miterlimit="10" x1="281.9" y1="893.5" x2="549.8" y2="825.9"/>
<path fill="none" stroke="#000000" stroke-width="6" stroke-linecap="round" stroke-linejoin="round" stroke-miterlimit="10" d="
	M785.9,955.5l-23.6-157.4c0,0,14.2-13.6,73.4-15.3s72.2,13.2,72.8,16.5s-24.4,152.2-24.4,155.6c-3.7,8.6-33.6,13.1-49.9,12.5
	C817.8,966.6,794.7,963.2,785.9,955.5z"/>
<path fill="none" stroke="#000000" stroke-width="6" stroke-linecap="round" stroke-linejoin="round" stroke-miterlimit="10" d="
	M763.3,798.4c0,0-1.7,15.8,57.3,21.4c59,5.6,85.7-15.4,87.6-18.1"/>
<polyline fill="none" stroke="#000000" stroke-width="5" stroke-linecap="round" stroke-linejoin="round" stroke-miterlimit="10" points="
	786,812.3 792.1,801 799.1,803.8 "/>
<path fill="none" stroke="#000000" stroke-width="5" stroke-linecap="round" stroke-linejoin="round" stroke-miterlimit="10" d="
	M795,815c-0.1-0.3,9.3-15.4,9.3-15.4l16.9,3.6"/>
<path fill="none" stroke="#000000" stroke-width="5" stroke-linecap="round" stroke-linejoin="round" stroke-miterlimit="10" d="
	M806.3,816.9c0,0,20.8-15.8,25.8-23c6.6,6.8,18.6,26.5,18.6,26.5"/>
<polyline fill="none" stroke="#000000" stroke-width="5" stroke-linecap="round" stroke-linejoin="round" stroke-miterlimit="10" points="
	844.9,808.2 865.6,797.4 865.6,818.1 "/>
<path fill="none" stroke="#000000" stroke-width="5" stroke-linecap="round" stroke-linejoin="round" stroke-miterlimit="10" d="
	M867.2,806.7c0,0,11.5-4,13.1-7.1c1,4.4-0.4,15-0.4,15"/>
<path fill="none" stroke="#000000" stroke-width="6" stroke-linecap="round" stroke-linejoin="round" stroke-miterlimit="10" d="
	M910.8,512.7l-8.9-36.1c0,0,17.2-66.3,25-80.9c10.6-18,28.4-44.6,28.4-44.6l194.2-31.5l14.6,14l-59.2,134.1L910.8,512.7z"/>
<path fill="none" stroke="#000000" stroke-width="6" stroke-linecap="round" stroke-linejoin="round" stroke-miterlimit="10" d="
	M913.5,511.1c0,0,49.3-141,49.3-141.4s200.7-34.9,200.7-34.9"/>
<line fill="none" stroke="#000000" stroke-width="5" stroke-linecap="round" stroke-linejoin="round" stroke-miterlimit="10" x1="1092.6" y1="471.3" x2="1092.6" y2="480.9"/>
<line fill="none" stroke="#000000" stroke-width="5" stroke-linecap="round" stroke-linejoin="round" stroke-miterlimit="10" x1="1033" y1="485.1" x2="1033" y2="494.2"/>
<path fill="none" stroke="#000000" stroke-width="5" stroke-linecap="round" stroke-linejoin="round" stroke-miterlimit="10" d="
	M985.1,496.1c-0.1,1,0,8.9,0,8.9"/>
<line fill="none" stroke="#000000" stroke-width="5" stroke-linecap="round" stroke-linejoin="round" stroke-miterlimit="10" x1="929.6" y1="509.2" x2="929.6" y2="519.4"/>
<line fill="none" stroke="#000000" stroke-width="6" stroke-linecap="round" stroke-linejoin="round" stroke-miterlimit="10" x1="955" y1="352.5" x2="962.8" y2="369.7"/>
<path fill="none" stroke="#000000" stroke-width="6" stroke-linecap="round" stroke-linejoin="round" stroke-miterlimit="10" d="
	M904.2,599.3v17.8l161.2,31.4l167.4-67l-1.1-60.9c0,0-23.6-24.5-24-24.5s-101.5-17.7-101.5-17.7s-98.3,22.6-136.3,31.5
	c-38,8.9-67.3,19-67.3,19l1.4,51.8"/>
<polyline fill="none" stroke="#000000" stroke-width="5" stroke-linecap="round" stroke-linejoin="round" stroke-miterlimit="10" points="
	904.1,529 1052.5,551.1 1209.3,498.8 "/>
<path fill="none" stroke="#000000" stroke-width="5" stroke-linecap="round" stroke-linejoin="round" stroke-miterlimit="10" d="
	M1051.6,552c0.5,0.3,19.1,22.3,19.1,22.3l159-54.3"/>
<line fill="none" stroke="#000000" stroke-width="5" stroke-linecap="round" stroke-linejoin="round" stroke-miterlimit="10" x1="1070.2" y1="573.7" x2="1070.2" y2="646.6"/>
<path fill="none" stroke="#000000" stroke-width="6.4" stroke-linecap="round" stroke-linejoin="round" stroke-miterlimit="10" d="
	M1018.5,618.7l-18.2-19.1l-131.6-24.5c0,0-5,2.5-1.3,6.7s50.7,21.4,50.7,21.4l100.7,15.7"/>
<polyline fill="none" stroke="#000000" stroke-width="5" stroke-linecap="round" stroke-linejoin="round" stroke-miterlimit="10" points="
	1019.6,617.9 1019.6,589.3 927.5,575.2 927.5,586.1 "/>
<line fill="none" stroke="#000000" stroke-width="5" stroke-linecap="round" stroke-linejoin="round" stroke-miterlimit="10" x1="936.5" y1="577.2" x2="936.5" y2="587.1"/>
<polyline fill="none" stroke="#000000" stroke-width="4" stroke-linecap="round" stroke-linejoin="round" stroke-miterlimit="10" points="
	1030.5,589.7 1036.5,592.3 1036.5,625.6 "/>
<polyline fill="none" stroke="#000000" stroke-width="4" stroke-linecap="round" stroke-linejoin="round" stroke-miterlimit="10" points="
	1042.3,593.1 1046.5,594.7 1046.5,631.9 "/>
<polyline fill="none" stroke="#000000" stroke-width="4" stroke-linecap="round" stroke-linejoin="round" stroke-miterlimit="10" points="
	1051.6,594.2 1056.7,596.5 1056.2,632.2 "/>
<path fill="none" stroke="#000000" stroke-width="4" stroke-linecap="round" stroke-linejoin="round" stroke-miterlimit="10" d="
	M1035.8,578.9V559l13.1,2.6V582C1049,581.9,1035.4,578.7,1035.8,578.9z"/>
<line fill="none" stroke="#000000" stroke-width="3" stroke-linecap="round" stroke-linejoin="round" stroke-miterlimit="10" x1="1037.3" y1="578.5" x2="1044" y2="560.9"/>
<polygon fill="none" stroke="#000000" stroke-width="4" stroke-linecap="round" stroke-linejoin="round" stroke-miterlimit="10" points="
	946.8,522.8 1100.8,488.3 1180.4,500 1055.4,540.1 "/>
<path fill="none" stroke="#000000" stroke-width="4" stroke-linecap="round" stroke-linejoin="round" stroke-miterlimit="10" d="
	M1067.6,554.6c1.2,0,15.2-5.8,15.5-5.6s10.1,10,10.1,10l-15.5,6L1067.6,554.6z"/>
<line fill="none" stroke="#000000" stroke-width="3" stroke-linecap="round" stroke-linejoin="round" stroke-miterlimit="10" x1="1130.4" y1="525.1" x2="1148.4" y2="547.8"/>
<path fill="none" stroke="#000000" stroke-width="3" stroke-linecap="round" stroke-linejoin="round" stroke-miterlimit="10" d="
	M1138.5,522.4c0.5,0.7,18.8,22.4,18.8,22.4"/>
<line fill="none" stroke="#000000" stroke-width="3" stroke-linecap="round" stroke-linejoin="round" stroke-miterlimit="10" x1="1146.6" y1="520.3" x2="1165.1" y2="541.5"/>
<path fill="none" stroke="#000000" stroke-width="3" stroke-linecap="round" stroke-linejoin="round" stroke-miterlimit="10" d="
	M1153.2,518c0.1,0.3,18.3,21.4,18.3,21.4"/>
<line fill="none" stroke="#000000" stroke-width="3" stroke-linecap="round" stroke-linejoin="round" stroke-miterlimit="10" x1="1137.5" y1="534" x2="1159.4" y2="525.3"/>
<line fill="none" stroke="#000000" stroke-width="3" stroke-linecap="round" stroke-linejoin="round" stroke-miterlimit="10" x1="1142.8" y1="540.7" x2="1165.1" y2="532.1"/>
<line fill="none" stroke="#000000" stroke-width="3" stroke-linecap="round" stroke-linejoin="round" stroke-miterlimit="10" x1="1164" y1="514.5" x2="1182.1" y2="535.9"/>
<line fill="none" stroke="#000000" stroke-width="3" stroke-linecap="round" stroke-linejoin="round" stroke-miterlimit="10" x1="1199.6" y1="502" x2="1218.6" y2="522.4"/>
<path fill="none" stroke="#000000" stroke-width="4" stroke-linecap="round" stroke-linejoin="round" stroke-miterlimit="10" d="
	M1080.4,629.5c0.4-0.1-0.6-24-0.6-24l13.3-5.9v23.2C1093.2,622.9,1079.7,629.7,1080.4,629.5z"/>
<path fill="none" stroke="#000000" stroke-width="4" stroke-linecap="round" stroke-linejoin="round" stroke-miterlimit="10" d="
	M1198.1,586.6c0-0.9,0-33.6,0-33.6l24.8-8.2v31.5L1198.1,586.6z"/>
<polyline fill="none" stroke="#000000" stroke-width="5" stroke-linecap="round" stroke-linejoin="round" stroke-miterlimit="10" points="
	1140.7,483.4 1166.6,455.3 1275.3,471.8 1276.8,502 1232.2,551.7 "/>
<line fill="none" stroke="#000000" stroke-width="5" stroke-linecap="round" stroke-linejoin="round" stroke-miterlimit="10" x1="1229.8" y1="515.8" x2="1272.5" y2="471.3"/>
<polyline fill="none" stroke="#000000" stroke-width="4" stroke-linecap="round" stroke-linejoin="round" stroke-miterlimit="10" points="
	1150.7,484.4 1168.3,463.2 1266.4,477.6 "/>
<polyline fill="none" stroke="#000000" stroke-width="5" stroke-linecap="round" stroke-linejoin="round" stroke-miterlimit="10" points="
	914.3,620 914.3,628.2 1071.9,661.4 1222.8,599.6 1222.8,585.8 "/>
<line fill="none" stroke="#000000" stroke-width="5" stroke-linecap="round" stroke-linejoin="round" stroke-miterlimit="10" x1="1072.4" y1="646.6" x2="1072.4" y2="660.9"/>
<polyline fill="none" stroke="#000000" stroke-width="6" stroke-linecap="round" stroke-linejoin="round" stroke-miterlimit="10" points="
	902.5,612.9 833.9,628.6 833.9,660.9 1070.1,708.5 1285.5,615.6 1285.5,590 1232.8,580.7 "/>
<polyline fill="none" stroke="#000000" stroke-width="5" stroke-linecap="round" stroke-linejoin="round" stroke-miterlimit="10" points="
	1284.1,592.3 1070.2,678 835.6,630.3 "/>
<path fill="none" stroke="#000000" stroke-width="5" stroke-linecap="round" stroke-linejoin="round" stroke-miterlimit="10" d="
	M1069.6,677.9c0,1,0,29.1,0,29.1"/>
<line fill="none" stroke="#000000" stroke-width="5" stroke-linecap="round" stroke-linejoin="round" stroke-miterlimit="10" x1="840.8" y1="662.3" x2="840.9" y2="780.9"/>
<path fill="none" stroke="#000000" stroke-width="6" stroke-linecap="round" stroke-linejoin="round" stroke-miterlimit="10" d="
	M890.6,913.1c1.8,0.4,169.7,36.6,169.7,36.6"/>
<polyline fill="none" stroke="#000000" stroke-width="6" stroke-linecap="round" stroke-linejoin="round" stroke-miterlimit="10" points="
	1061,949.7 1279.4,847.7 1279.1,618.9 "/>
<line fill="none" stroke="#000000" stroke-width="5" stroke-linecap="round" stroke-linejoin="round" stroke-miterlimit="10" x1="1059.9" y1="707" x2="1060.3" y2="948.5"/>
<line fill="none" stroke="#000000" stroke-width="6" stroke-linecap="round" stroke-linejoin="round" stroke-miterlimit="10" x1="886.2" y1="946.3" x2="1055.6" y2="985.5"/>
<polyline fill="none" stroke="#000000" stroke-width="6" stroke-linecap="round" stroke-linejoin="round" stroke-miterlimit="10" points="
	1056.3,985.5 1272.7,881.6 1273.1,850.6 "/>
<line fill="none" stroke="#000000" stroke-width="5" stroke-linecap="round" stroke-linejoin="round" stroke-miterlimit="10" x1="1055.2" y1="949.4" x2="1055.9" y2="984.1"/>
<line fill="none" stroke="#000000" stroke-width="5" stroke-linecap="round" stroke-linejoin="round" stroke-miterlimit="10" x1="1174.3" y1="664.3" x2="1177" y2="894.5"/>
<polyline fill="none" stroke="#000000" stroke-width="5" stroke-linecap="round" stroke-linejoin="round" stroke-miterlimit="10" points="
	1159.5,762.6 1145.8,768.4 1145.9,842.9 1161.9,834 "/>
<line fill="none" stroke="#000000" stroke-width="4" stroke-linecap="round" stroke-linejoin="round" stroke-miterlimit="10" x1="1156.2" y1="764" x2="1156.6" y2="835.6"/>
<path fill="none" stroke="#000000" stroke-width="5" stroke-linecap="round" stroke-linejoin="round" stroke-miterlimit="10" d="
	M1206.5,746.3c-0.5,0.3-14.3,7.7-14.3,7.7v70.5l15.5-7.7"/>
<path fill="none" stroke="#000000" stroke-width="4" stroke-linecap="round" stroke-linejoin="round" stroke-miterlimit="10" d="
	M1202.8,748.2c-0.2,0.1,0,70.9,0,70.9"/>
<line fill="none" stroke="#000000" stroke-width="6" stroke-linecap="round" stroke-linejoin="round" stroke-miterlimit="10" x1="1273.1" y1="865.3" x2="1715.4" y2="938.2"/>
<line fill="none" stroke="#000000" stroke-width="5" stroke-linecap="round" stroke-linejoin="round" stroke-miterlimit="10" x1="1050.7" y1="29.3" x2="1046.4" y2="334.8"/>
<line fill="none" stroke="#000000" stroke-width="5" stroke-linecap="round" stroke-linejoin="round" stroke-miterlimit="10" x1="1093.4" y1="29.3" x2="1091.3" y2="326.4"/>
<line fill="none" stroke="#000000" stroke-width="4" stroke-linecap="round" stroke-linejoin="round" stroke-miterlimit="10" x1="1069.4" y1="29.3" x2="1069.7" y2="332.5"/>
<line fill="none" stroke="#000000" stroke-width="5" stroke-linecap="round" stroke-linejoin="round" stroke-miterlimit="10" x1="1279.4" y1="732" x2="1713.4" y2="796.5"/>
<path fill="none" stroke="#000000" stroke-width="6.5" stroke-linecap="round" stroke-linejoin="round" stroke-miterlimit="10" d="
	M2026.6,715.3c0,0-147.3-17.4-168.3-17.9s-35,2.6-35.2,27.6c-0.3,25,10.5,139.4,13,142.7s189.5,26.6,189.5,26.6"/>
<path fill="none" stroke="#000000" stroke-width="6.5" stroke-linecap="round" stroke-linejoin="round" stroke-miterlimit="10" d="
	M1840.2,868.9c0,0,6.1,31.2,5.3,52.7c-0.8,21.4-1.3,58.2,3.8,96.5c5.1,38.3,17.2,67.7,29.8,74.1c12.5,6.4,52.7,9,85,13.6
	s60.5,12.4,60.5,12.4"/>
<line fill="none" stroke="#000000" stroke-width="6.5" stroke-linecap="round" stroke-linejoin="round" stroke-miterlimit="10" x1="1957.6" y1="1105.9" x2="1957.6" y2="1154"/>
<line fill="none" stroke="#000000" stroke-width="6.5" stroke-linecap="round" stroke-linejoin="round" stroke-miterlimit="10" x1="1989.1" y1="1110" x2="1989.1" y2="1154"/>
<path fill="none" stroke="#000000" stroke-width="6.5" stroke-linecap="round" stroke-linejoin="round" stroke-miterlimit="10" d="
	M1959.4,1114.9c2.4-0.9,6.8-1.4,14.9-0.8c8.2,0.6,14,7.7,13.9,7.2s-1.5-6.7-1.5-6.7s-14.6-3.3-15.6-3.3s-11.4-2-11.4-2"/>
<path fill="none" stroke="#000000" stroke-width="6.5" stroke-linecap="round" stroke-linejoin="round" stroke-miterlimit="10" d="
	M1844.2,910.3c0,0-12.4,1.3-19.7,20.1c-7.4,18.8-7.6,65.2,4.1,88.9s28.3,34.8,28.3,34.5"/>
<path fill="none" stroke="#000000" stroke-width="6" stroke-linecap="round" stroke-linejoin="round" stroke-miterlimit="10" d="
	M1909.1,702c0.6,0.1,27.5-23.3,27.5-23.3s10.7-125.2,12.1-126.4c1.3-1.1,78,3.4,78,3.4"/>
<polyline fill="none" stroke="#000000" stroke-width="5" stroke-linecap="round" stroke-linejoin="round" stroke-miterlimit="10" points="
	2026.6,569.3 1956.8,565 1946.3,678 2026.6,686.2 "/>
<path fill="none" stroke="#000000" stroke-width="5" stroke-linecap="round" stroke-linejoin="round" stroke-miterlimit="10" d="
	M2026.6,699.6c0-0.4-83-10.3-83-9.6c0,0.8-10.3,13-10.3,13"/>
<polyline fill="none" stroke="#000000" stroke-width="5" stroke-linecap="round" stroke-linejoin="round" stroke-miterlimit="10" points="
	1930.7,683.8 1837.9,672.4 1703.7,724.8 "/>
<polyline fill="none" stroke="#000000" stroke-width="6" stroke-linecap="round" stroke-linejoin="round" stroke-miterlimit="10" points="
	1703.7,724.8 1704.8,751.2 1825.7,771 "/>
<line fill="none" stroke="#000000" stroke-width="5" stroke-linecap="round" stroke-linejoin="round" stroke-miterlimit="10" x1="1704.8" y1="726.4" x2="1822.5" y2="746.9"/>
<polyline fill="none" stroke="#000000" stroke-width="6" stroke-linecap="round" stroke-linejoin="round" stroke-miterlimit="10" points="
	1715.5,753.5 1717.3,1033 1859.6,1062.2 "/>
<path fill="none" stroke="#000000" stroke-width="6" stroke-linecap="round" stroke-linejoin="round" stroke-miterlimit="10" d="
	M1732.8,1036.2c0,0-0.9,16.2,15.1,20.6c16,4.4,27.7-5.9,28.4-9.8"/>
<line fill="none" stroke="#000000" stroke-width="5" stroke-linecap="round" stroke-linejoin="round" stroke-miterlimit="10" x1="1717.8" y1="824.7" x2="1831.3" y2="844.1"/>
<path fill="none" stroke="#000000" stroke-width="5" stroke-linecap="round" stroke-linejoin="round" stroke-miterlimit="10" d="
	M1717.8,920.8c0,0,103.5,20.1,102.5,19.9"/>
<polyline fill="none" stroke="#000000" stroke-width="5" stroke-linecap="round" stroke-linejoin="round" stroke-miterlimit="10" points="
	1791.7,766.2 1793.7,780.8 1826.3,787.2 "/>
<polyline fill="none" stroke="#000000" stroke-width="5" stroke-linecap="round" stroke-linejoin="round" stroke-miterlimit="10" points="
	1794.5,838.6 1796.9,856.8 1834,863.5 "/>
<polyline fill="none" stroke="#000000" stroke-width="5" stroke-linecap="round" stroke-linejoin="round" stroke-miterlimit="10" points="
	1794,936.5 1795.3,953.7 1818.3,959 "/>
<line fill="none" stroke="#000000" stroke-width="5" stroke-linecap="round" stroke-linejoin="round" stroke-miterlimit="10" x1="1863.2" y1="29.3" x2="1861.6" y2="674.4"/>
<line fill="none" stroke="#000000" stroke-width="5" stroke-linecap="round" stroke-linejoin="round" stroke-miterlimit="10" x1="1902.4" y1="29.3" x2="1901" y2="679.2"/>
<path fill="none" stroke="#000000" stroke-width="23" stroke-linecap="round" stroke-linejoin="round" stroke-miterlimit="10" stroke-opacity="0" d="
	M1978.4,567.2l-13.7,6l-5.5,15.7l31.8-16.1l31.2,3c0,0-63.2,27.3-63,27.9c0.2,0.6-2.9,21.9-2.9,21.9l68-33.3l-2.7,22.9l-64.1,28.5
	l-2.3,18l69.1-30.3l-3.4,14.9l-62.2,27c0,0,22.4,1.5,23,1s45-13.8,45-13.8l0.4,10.7l-26.1,9l19.7,3.9"/>
<line fill="none" stroke="#000000" stroke-width="23" stroke-linecap="round" stroke-linejoin="round" stroke-miterlimit="10" stroke-opacity="0" x1="1790.6" y1="772.8" x2="1815.6" y2="777.9"/>
<polyline fill="none" stroke="#000000" stroke-width="23" stroke-linecap="round" stroke-linejoin="round" stroke-miterlimit="10" stroke-opacity="0" points="
	1796.8,845.2 1821.6,850.6 1823.1,861.7 "/>
<line fill="none" stroke="#000000" stroke-width="23" stroke-linecap="round" stroke-linejoin="round" stroke-miterlimit="10" stroke-opacity="0" x1="1787.5" y1="942.6" x2="1810" y2="948.9"/>
<path fill="none" stroke="#000000" stroke-width="23" stroke-linecap="round" stroke-linejoin="round" stroke-miterlimit="10" stroke-opacity="0" d="
	M1826.3,726.4l22.5-20.8h30.6l-46.9,36.5l-1.2,24.1c0,0,64.4-58.4,66.9-60.6s22.2,1.7,22.2,1.7l-82.3,78.1v20.7l101.8-92.7l21.1,1.6
	l-120.8,108.3v21.9l135.3-128.4h15.6c0,0-149.1,138.4-148.1,138.4s21.9,4.5,21.9,4.5l145.3-135.3l16.7,0.3l-149.8,138.7l27.8,5.4
	l121.9-122l-6.5,25.9l-98.3,96.1l30.6,1.7l71.8-83.4l-1.6,13.7l-58.5,74.6l17.6,4.1l44.9-62.8l-2.5,25.3l-25.8,37.5l12.5,1.8
	l12-17.8l1.3,20.6"/>
<polyline fill="none" stroke="#000000" stroke-width="23" stroke-linecap="round" stroke-linejoin="round" stroke-miterlimit="10" stroke-opacity="0" points="
	1834,915.7 1820.1,951.5 1821.6,964.3 1836.1,935.2 1832.5,966 1823.1,984.7 1825.3,995.4 1836.1,980.3 1834,1007.4 1840.2,1031.1 
	1843.1,1043.7 "/>
<path fill="none" stroke="#000000" stroke-width="60" stroke-linecap="round" stroke-linejoin="round" stroke-miterlimit="10" stroke-opacity="0" d="
	M1856.9,869.6l-24.4,21.2l4.7,19.6c0,0,46.2-27.7,48-28s33.7,1,33.7,1.8s-78.7,66.1-78.7,66.1l8.7,20.9l108.7-70l37.3,0.3
	c0,0-124.3,93.2-124.3,94s7.4,24,7.4,24l152.7-103.7l-0.5,38.3l-145,90.6l6.9,20.4l129.4-67.1c0,0-1.5,50.6-3.3,50
	s-97.3,24.5-97.3,24.5l71,11l34.7,7.4l9.4-16.1"/>
<path fill="none" stroke="#000000" stroke-width="23" stroke-linecap="round" stroke-linejoin="round" stroke-miterlimit="10" stroke-opacity="0" d="
	M1970.4,1113.9l-3.3,16.1l8.7-8l-5.9,18l-2.8,11c0,0,11-17.8,11-16.5s1,21.3,1,21.3"/>
<polyline fill="none" stroke="#000000" stroke-width="23" stroke-linecap="round" stroke-linejoin="round" stroke-miterlimit="10" stroke-opacity="0" points="
	1150.5,340.4 958.9,378.3 952,399 1144.7,352.8 1139.9,367.2 952,416.1 944.2,429.1 1131.3,380 1125.3,397.1 939,447.6 932.6,462.2 
	1120,410.9 1111.2,427.5 932,480.9 920.8,496.1 1105.6,441.7 1097.6,458.9 920.8,499.7 "/>
<polyline fill="none" stroke="#000000" stroke-width="23" stroke-linecap="round" stroke-linejoin="round" stroke-miterlimit="10" stroke-opacity="0" points="
	940.5,512.2 956.6,507.9 973.6,503.5 "/>
<polyline fill="none" stroke="#000000" stroke-width="23" stroke-linecap="round" stroke-linejoin="round" stroke-miterlimit="10" stroke-opacity="0" points="
	1042.3,485.1 1056.7,480.9 1082.6,474.8 "/>
<path fill="none" stroke="#000000" stroke-width="23" stroke-linecap="round" stroke-linejoin="round" stroke-miterlimit="10" stroke-opacity="0" d="
	M964.8,524.6l134.1-31.9l9,1.5l-112.3,35.4l21.2,1.3c0,0,113.9-32.7,114.5-32.8s31.1,1.6,31.1,1.6L1049,535.9c0,0,15.3,3.5,16.1,3.2
	"/>
<polyline fill="none" stroke="#000000" stroke-width="23" stroke-linecap="round" stroke-linejoin="round" stroke-miterlimit="10" stroke-opacity="0" points="
	1152.1,484.3 1169.9,467.1 1184.1,468.7 1171.5,484.4 1176,486.9 1195,470.4 1207.9,471.3 1192.7,486.9 1207.9,489.4 1216.7,476.1 
	1233.7,477.5 1221.3,497 1225.1,503.5 1245.4,478.4 1265.1,479.9 1234.7,515.9 1233.8,524.9 1266.4,494.3 1232.8,535.9 "/>
<path fill="none" stroke="#000000" stroke-width="23" stroke-linecap="round" stroke-linejoin="round" stroke-miterlimit="10" stroke-opacity="0" d="
	M1073.9,559c0.9-0.7,13.5-4.5,13.5-4.5"/>
<path fill="none" stroke="#000000" stroke-width="23" stroke-linecap="round" stroke-linejoin="round" stroke-miterlimit="10" stroke-opacity="0" d="
	M1167.5,522.4c-0.6-0.7,38.9-9.7,38.9-9.7l2.9,3.1l-35,16.3l-1.3,1.5"/>
<path fill="none" stroke="#000000" stroke-width="23" stroke-linecap="round" stroke-linejoin="round" stroke-miterlimit="10" stroke-opacity="0" d="
	M1195.5,560.9l24.3-9.2l-1.8,14l-22.5,16.3c0,0-108,27.4-108.2,28.2c-0.1,0.7-6.6,15.5-6.6,15.5"/>
<path fill="none" stroke="#000000" stroke-width="23" stroke-linecap="round" stroke-linejoin="round" stroke-miterlimit="10" stroke-opacity="0" d="
	M1219.8,594.2c-6.9,3.9-150.2,64.8-150.2,64.8l-151.1-29.9"/>
<path fill="none" stroke="#000000" stroke-width="23" stroke-linecap="round" stroke-linejoin="round" stroke-miterlimit="10" stroke-opacity="0" d="
	M1022.9,599.6c0,0-25.8,9.9-26,8c-0.3-1.9,15.9-17.9,15.9-17.9L966,605.5c0,0,16.9-20.4,15.3-20.6s-33.4,14.7-33.4,14.7
	s13.4-19.2,10.7-19.6s-26.5,17-26.5,17h-8.9l13.4-15l-24.1,9.2"/>
<path fill="none" stroke="#000000" stroke-width="16" stroke-linecap="round" stroke-linejoin="round" stroke-miterlimit="10" stroke-opacity="0" d="
	M901.8,589.3c-0.4,0-19.1-5.7-19.1-5.7l-7.5-2.5"/>
<path fill="none" stroke="#000000" stroke-width="40" stroke-linecap="round" stroke-linejoin="round" stroke-miterlimit="10" stroke-opacity="0" d="
	M899.4,635.1l-47.9,9.5l8,14.4l-1,17.8l80.4-36.3l28.7,8l-107.2,42.1l0.2,24.1l143.2-53.8l24.3,5.8L859,730.3l0.2,27.8l214.7-75.8
	l-3.7,18L860.9,778l-1.7,18.3l-30.1,9.8l-32-1.4l-16.6,4.5c0,0,2.3,21.7,2.5,22.1c0.2,0.4,291-102.3,291-102.3l-13.9,33.7l-278,91.2
	v18.4l277.9-83.5l-5.6,26.1L791.5,897v18.4l257.8-71l1.6,32.7l-251.8,54.2l5.1,11.9l18.9,4H852l12.3-1l9.7-14.9l181.3-34.5l3.5,14
	l-152.2,22.7l44,6.1l108.2-9.7v10.2l-87.9,7l59.7,13.9l17.1,4.2l89.6-40.2l117.2-54.9v-5"/>
</svg>
