<?xml version="1.0" encoding="utf-8"?>
<!-- Generator: Adobe Illustrator 23.0.3, SVG Export Plug-In . SVG Version: 6.00 Build 0)  -->
<svg version="1.1" id="Layer_1" xmlns="http://www.w3.org/2000/svg" xmlns:xlink="http://www.w3.org/1999/xlink" x="0px" y="0px"
	 width="800px" height="800px" viewBox="0 0 800 800" enable-background="new 0 0 800 800" xml:space="preserve">
<g id="vs-outline2">
	<path fill="none" stroke="#000000" stroke-width="30" stroke-linecap="round" stroke-linejoin="round" stroke-miterlimit="10" d="
		M71.5,331.2L71.5,331.2c-11.8-16.2-17.2-37.3-15.8-70.9c0.7-15.5,5.1-31.7,12.8-47s18.5-29.8,32.1-41.8s29.8-21.6,48.1-27.3
		s38.8-7.4,60.9-3.6c0,0,3.8-6.2,11.1-14.4s18.1-18.5,32-26.7c13.8-8.2,30.9-14.4,50.6-14.3c19.7,0,42.2,6.2,67,22.7
		c0,0,5.1-5.2,14-11.5c8.8-6.3,21.3-13.6,36-17.9s31.6-5.6,49.3,0.4s36.1,19.1,53.9,43.5c0,0,6.2-3.6,16-7.2
		c9.8-3.7,23.3-7.4,37.9-7.9s30.3,2.5,44.6,12.3s27,26.4,35.9,53.2c0,0,6.5-0.2,16.2,1.1s22.7,4.3,35.4,10.7
		c12.9,6.3,25.5,16.1,34.8,31.2c9.3,15,15.2,35.3,14.2,62.6c0,0,3.1,3.6,7,10c3.8,6.4,8.5,15.7,11.6,27.2s4.5,25,2,39.8
		c-2.5,14.9-8.9,31.2-21.7,48.1h-0.3c0,0,2,7,2.8,17.3c1,10.5,0.9,24.3-3.1,38.3S745,487,730.4,497.6s-36.1,17.7-67.4,18l10.5,18.6
		l10.6,18.8l11.4,20.2l9.7,17.2l10.7,19L726,628l21.2,37.4c0,0-2.2,2.4-6.4,6.3s-10.6,9.4-18.9,15.4c-8.3,6-18.6,12.5-30.9,18.8
		s-26.4,12-42.3,16.5c-0.7-4.9-1.3-9.7-2.1-14.5c-3.6-22.4-8.4-44.8-14.6-66.6c-2.7-9.6-5.7-19-8.8-28c-3.2-9.1-6.5-17.8-9.9-26
		c-7.1-16.7-15.2-35.4-32.1-44.3c-8.2-4.3-17.4-6.2-26.6-5.8c-9.2,0.4-18.1,3.3-25.8,8.4c-17.6,11.6-23.4,36.1-37.3,50.8
		c-7.3,7.7-15.8,14.5-25.1,20c-26.1,15.3-57.4,19.6-84.8,5.5c-8.1-4.3-15.9-9.9-23.1-16.8l-4.6-4.7c0,0-8,4.8-20.8,10.1
		c-12.9,5.3-30.5,11.2-49.9,13.4s-40.6,0.7-60.4-8.7s-38.2-26.8-52.1-56.4c0,0-4.9,2.3-13.2,4.3s-19.8,3.6-33.2,2.2
		s-28.2-5.8-43.2-15.8S51,523.7,37.6,499.7c0,0-3.6-6.7-7.5-17.6s-8.3-26.2-9.7-43.3c-1.4-17.1,0-36.3,7.4-55
		C35.2,365,48.7,346.7,71.5,331.2"/>
	<path fill="none" stroke="#000000" stroke-width="22" stroke-linecap="round" stroke-linejoin="round" stroke-miterlimit="10" d="
		M323.9,330.3c0,35.7-30.2,66.1-66.1,66.1c-35.7,0-66.1-30.3-66.1-66.1c0-35.7,30.2-66.1,66.1-66.1
		C293.4,264.2,323.9,294.5,323.9,330.3z"/>
	
		<polyline fill="none" stroke="#000000" stroke-width="22" stroke-linecap="round" stroke-linejoin="round" stroke-miterlimit="10" points="
		322.7,317.9 359.9,317.9 397,318 434.2,318.1 464.2,318.2 	"/>
	
		<polyline fill="none" stroke="#000000" stroke-width="22" stroke-linecap="round" stroke-linejoin="round" stroke-miterlimit="10" points="
		322.7,342.8 359.9,342.9 397,343 434.2,343.1 464.2,343.2 	"/>
	
		<polygon fill="none" stroke="#000000" stroke-width="14" stroke-linecap="round" stroke-linejoin="round" stroke-miterlimit="10" points="
		469.3,304.3 469.3,317.6 469.3,331 469.3,344.4 469.3,357.8 485.2,357.8 485.2,344.4 485.2,331 485.2,317.6 485.2,304.3 	"/>
	<path fill="none" stroke="#000000" stroke-width="22" stroke-linecap="round" stroke-linejoin="round" stroke-miterlimit="10" d="
		M490.4,318.2l24.2,0.1l27.3,0.1l27.3,0.1l27.3,0.1c6.6,0,12.4,5.6,12.5,12.2c0.1,6.9-5.7,12.7-12.5,12.7l-27.3-0.1l-27.3-0.1
		l-27.3-0.1l-24.2-0.1"/>
	
		<polyline fill="none" stroke="#000000" stroke-width="14" stroke-linecap="round" stroke-linejoin="round" stroke-miterlimit="10" points="
		584.5,343.5 584.5,362.3 584.5,381.2 568.5,381.2 563,381.2 563,369.3 550.5,369.3 546.4,369.3 546.4,381.2 524.9,381.2 
		524.9,362.3 524.9,343.5 	"/>
</g>
<g id="vs-outline_1_">
	<g>
		<path fill="none" stroke="#5DBFD9" stroke-width="24" stroke-linecap="round" stroke-linejoin="round" stroke-miterlimit="10" d="
			M60.9,445.5c3.6,10,7,16.2,7,16.2c12.4,22.1,26.4,36.8,40.2,46c13.8,9.3,27.6,13.3,39.9,14.6c12.3,1.3,23-0.2,30.6-2
			c7.6-1.9,12.2-3.9,12.2-3.9c12.9,27.4,29.9,43.4,48.2,52.1c18.3,8.7,37.9,10,55.8,8.1c18-2,34.2-7.4,46.1-12.4
			c11.9-4.9,19.3-9.4,19.3-9.4l4.3,4.4c6.7,6.3,14,11.6,21.4,15.5c7.4,3.8,15,6.4,22.6,7.5c9.5,1.3,19.2,0.7,28.7-1.5
			s18.6-6,27.3-11.1"/>
	</g>
	<path fill="none" stroke="#5DBFD9" stroke-width="16" stroke-linecap="round" stroke-linejoin="round" stroke-miterlimit="10" d="
		M227.7,319.8c6.7-6.7,18.7-5.2,23.4,3.2c3.3,5.8,2,13.7-2.9,18.2s-12.9,5.1-18.4,1.4C222.3,337.5,221.2,326.2,227.7,319.8"/>
</g>
</svg>
