<?xml version="1.0" encoding="utf-8"?>
<!-- Generator: Adobe Illustrator 23.0.3, SVG Export Plug-In . SVG Version: 6.00 Build 0)  -->
<svg version="1.1" id="Layer_1" xmlns="http://www.w3.org/2000/svg" xmlns:xlink="http://www.w3.org/1999/xlink" x="0px" y="0px"
	 width="800px" height="800px" viewBox="0 0 800 800" enable-background="new 0 0 800 800" xml:space="preserve">
<g id="vs-outline">
	<g>
		<path fill="none" stroke="#5DBFD9" stroke-width="30" stroke-linecap="round" stroke-linejoin="round" stroke-miterlimit="10" d="
			M264.8,185c15-22.3,38.2-36.7,64-36.7c22.8,0,43.4,11,58.3,28.9c14.9,18,24.3,42.7,24.3,70.1c0,18-3.9,34.8-11,49.3
			c-14.2,29.6-40.9,49.4-71.5,49.4c-26.5,0-50.1-15-65.2-38.5c-10.8-16.8-17.1-37.6-17.1-60.1C246.5,223.5,253.4,202,264.8,185"/>
		<path fill="none" stroke="#5DBFD9" stroke-width="30" stroke-linecap="round" stroke-linejoin="round" stroke-miterlimit="10" d="
			M182.8,562.4c3.2-20.2,9-47.3,18.8-74.7c8.1-22.8,18.8-45.6,33.1-65c9.7-13.1,21.2-24.6,34.1-33.3c16.8-11,36.4-17.8,59.8-17.8
			c19.2,0,36.1,4.5,50.8,12.2c17.7,9.4,32.3,23.4,44.4,39.8c9.7,13.2,17.7,28.1,24.3,43.4c6.8,15.6,11.9,31.7,16.3,46.8
			c5,18,8.3,34.8,10.5,48.5"/>
		
			<polyline fill="none" stroke="#5DBFD9" stroke-width="40" stroke-linecap="round" stroke-linejoin="round" stroke-miterlimit="10" points="
			469.1,713.1 545.6,770.4 596.2,699.8 656.3,615.7 695.9,560.3 737.1,502.4 		"/>
	</g>
</g>
<g id="vs-outline2">
	<path fill="none" stroke="#000000" stroke-width="30" stroke-linecap="round" stroke-linejoin="round" stroke-miterlimit="10" d="
		M148.2,86c54.6-43.4,124.3-67.7,197-63.5c10.9,0.6,21.8,1.9,32.5,3.7C515.1,49.6,619.7,173,620,312.3c0,19.9-2,39.8-6,59.3
		c-28.8,140.9-162.6,242.1-305.9,231.7c-7.6-0.5-15.1-1.4-22.6-2.5C148.7,580.1,42,460.3,37.8,322.1c-0.6-20,0.8-40.1,4.3-59.8
		C54.6,191,94,129.1,148.2,86z"/>
</g>
</svg>
