<?xml version="1.0" encoding="utf-8"?>
<!-- Generator: Adobe Illustrator 23.0.3, SVG Export Plug-In . SVG Version: 6.00 Build 0)  -->
<svg version="1.1" id="Layer_1" xmlns="http://www.w3.org/2000/svg" xmlns:xlink="http://www.w3.org/1999/xlink" x="0px" y="0px"
	 width="800px" height="800px" viewBox="0 0 800 800" enable-background="new 0 0 800 800" xml:space="preserve">
<g id="vs-outline2">
	<path fill="none" stroke="#000000" stroke-width="30" stroke-linecap="round" stroke-linejoin="round" stroke-miterlimit="10" d="
		M263.8,33.3c3.9,0.7,7.7,2.5,10.9,5.7l27.1,27.2l29,29l31.3,31.4l21.2,21.2l35.5,35.6l30.7,30.8l37.2,37.3L515,280l21.7,21.8
		c0,0,12.3,12.3,27.7,27.8c12.3,12.3,26.5,26.5,37.9,38c12.4,12.4,21.6,21.6,21.7,21.8c8.1,8.2,7.3,20.9,0,29.1l-32.7,32.8
		l-21.5,21.5l-32.9,33L501,542l-19.5,19.5l-31.7,31.8l-28.8,28.8l-32,32l-26.4,26.5c0,0-15.5,15.6-33.5,33.6
		c-8.1,8.1-16.7,16.7-24.5,24.6c-16,16-29.1,29.1-29.1,29.1c-12.6,12.6-35,3.1-35-14.6v-50.1v-50.1v-50.1l-0.2-53.1l-0.1-46l-0.2-59
		l-0.1-46.4l-0.1-43.6l-0.2-55l-0.1-43.1v-50.8v-50.8v-50.8c0,0,0-50.6,0-50.8C239.6,40.8,251.7,32.4,263.8,33.3"/>
</g>
<g id="vs-outline">
	<path fill="none" stroke="#5DBFD9" stroke-width="30" stroke-linecap="round" stroke-linejoin="round" stroke-miterlimit="10" d="
		M321.5,570.1c0,0,0-14.3,0.1-36.9c0-13.8,0-30.6,0.1-49.2c0-14.2,0-29.4,0.1-45c0-15.1,0-30.6,0.1-46c0-18.1,0.1-36.1,0.1-53
		c0-20.3,0.1-39.1,0.1-55c0-28.9,0.1-47.9,0.1-48.1c0-8.2,10.4-13.3,16.8-6.9l41.7,41.7l41.7,41.7l41.7,41.7l41.7,41.7"/>
</g>
</svg>
