<?xml version="1.0" encoding="utf-8"?>
<!-- Generator: Adobe Illustrator 23.0.3, SVG Export Plug-In . SVG Version: 6.00 Build 0)  -->
<svg version="1.1" id="Layer_1" xmlns="http://www.w3.org/2000/svg" xmlns:xlink="http://www.w3.org/1999/xlink" x="0px" y="0px"
	 width="800px" height="800px" viewBox="0 0 800 800" enable-background="new 0 0 800 800" xml:space="preserve">
<g id="vs-outline">
	<g>
		
			<path fill="none" stroke="#5DBFD9" stroke-width="30.9248" stroke-linecap="round" stroke-linejoin="round" stroke-miterlimit="10" d="
			M21.1,209.7c0,0-0.6-23.2,0-51.6c0.6-27.6,22.9-49.6,50.6-49.6h123.4h124h160.5h199.3c28,0,50.6,22.6,50.6,50.6v50.6"/>
		
			<path fill="none" stroke="#5DBFD9" stroke-width="30.9248" stroke-linecap="round" stroke-linejoin="round" stroke-miterlimit="10" d="
			M767.5,364.5H700h-87.3c-47.2,0-85.6,38.4-85.6,85.6l0,0c0,47.2,38.4,85.6,85.6,85.6H696h71.5"/>
	</g>
</g>
<g id="vs-outline2">
	
		<path fill="none" stroke="#000000" stroke-width="30.9248" stroke-linecap="round" stroke-linejoin="round" stroke-miterlimit="10" d="
		M21.1,209.7h115.7h103.9h118.5H516h105.7h107.8c28,0,50.6,22.6,50.6,50.6v80.1V439v85.7v83.9v56.5c0,28-22.6,50.6-50.6,50.6h-75.9
		h-134H375.2H176.8H71.7c-28,0-50.6-22.6-50.6-50.6v-87.6V462.7v-80.3v-83.9V209.7"/>
	
		<circle fill="none" stroke="#000000" stroke-width="30.9248" stroke-linecap="round" stroke-linejoin="round" stroke-miterlimit="10" cx="628.3" cy="450.1" r="25.3"/>
	<g>
		
			<polyline fill="none" stroke="#000000" stroke-width="28.1134" stroke-linecap="round" stroke-linejoin="round" stroke-miterlimit="10" points="
			202.4,348.9 202.4,388 202.4,431.7 202.4,481.9 202.4,530.1 202.4,576.6 		"/>
		
			<path fill="none" stroke="#000000" stroke-width="28.1134" stroke-linecap="round" stroke-linejoin="round" stroke-miterlimit="10" d="
			M177.1,348.9h101.2c28,0,50.6,22.6,50.6,50.6c0,28-22.6,50.6-50.6,50.6h-63.3"/>
		
			<path fill="none" stroke="#000000" stroke-width="28.1134" stroke-linecap="round" stroke-linejoin="round" stroke-miterlimit="10" d="
			M278.3,450.1c35,0,63.3,28.3,63.3,63.3s-28.3,63.3-63.3,63.3H177.1"/>
		
			<line fill="none" stroke="#000000" stroke-width="28.1134" stroke-linecap="round" stroke-linejoin="round" stroke-miterlimit="10" x1="227.7" y1="320.8" x2="227.7" y2="346.1"/>
		
			<line fill="none" stroke="#000000" stroke-width="28.1134" stroke-linecap="round" stroke-linejoin="round" stroke-miterlimit="10" x1="265.7" y1="320.8" x2="265.7" y2="346.1"/>
		
			<line fill="none" stroke="#000000" stroke-width="28.1134" stroke-linecap="round" stroke-linejoin="round" stroke-miterlimit="10" x1="227.7" y1="579.4" x2="227.7" y2="604.7"/>
		
			<line fill="none" stroke="#000000" stroke-width="28.1134" stroke-linecap="round" stroke-linejoin="round" stroke-miterlimit="10" x1="265.7" y1="579.4" x2="265.7" y2="604.7"/>
	</g>
</g>
</svg>
