<?xml version="1.0" encoding="utf-8"?>
<!-- Generator: Adobe Illustrator 22.1.0, SVG Export Plug-In . SVG Version: 6.00 Build 0)  -->
<svg version="1.1" id="Layer_1" xmlns="http://www.w3.org/2000/svg" xmlns:xlink="http://www.w3.org/1999/xlink" x="0px" y="0px"
	 width="800px" height="800px" viewBox="0 0 800 800" enable-background="new 0 0 800 800" xml:space="preserve">
<g id="vs-outline2">
	<path fill="none" stroke="#000000" stroke-width="30" stroke-linecap="round" stroke-linejoin="round" stroke-miterlimit="10" d="
		M204.3,289.1c29.3-31.8,64.5-54.9,102.4-69.1c55.9-21.1,117.7-22.8,174.8-4.9c36.5,11.5,71.2,31,101.2,58.6
		c33.9,31.3,57.9,69.2,71.9,110c16.8,49.2,19,102.4,6.3,152.8c-10.6,41.8-31.4,81.7-62.7,115.7c-26,28.3-56.8,49.6-89.9,64.1
		c-45.4,19.8-95.4,26.5-144,19.7c-52.3-7.2-102.9-29.9-144.6-68.4c-36.5-33.6-61.5-75-74.9-119.3c-13.2-43.9-15-90.6-5.2-135.4
		C149.5,368.1,171,325.2,204.3,289.1z"/>
	<path fill="none" stroke="#000000" stroke-width="20" stroke-linecap="round" stroke-linejoin="round" stroke-miterlimit="10" d="
		M235.5,317.8c20.8-22.6,45.1-39.9,71.4-52c50.1-23.1,107.2-26.9,159.8-11c31.6,9.5,61.5,26.2,87.4,50
		c28.6,26.4,48.8,58.4,60.6,92.8c16.1,47.2,16.2,98.9-0.1,146.3c-9.8,28.6-25.6,55.7-47.4,79.4c-46.7,50.7-111.4,75.1-175.3,72.5
		c-51.4-2.1-102.4-21.8-143.3-59.5c-21.4-19.7-38.1-42.6-50.1-67.3c-21.3-43.9-27.6-93.5-18.6-140.9
		C187.4,388.2,205.9,349.9,235.5,317.8z"/>
	<path fill="none" stroke="#000000" stroke-width="30" stroke-linecap="round" stroke-linejoin="round" stroke-miterlimit="10" d="
		M359.1,198.5l-3.5-10.4l-3.5-10.4l-6.9-20.7l-6.9-20.7l-6.9-20.7c-2-5.9-3.1-11.6-3.5-17.3c-0.4-5.7-0.1-11.3,0.8-16.9
		c3.6-21.4,17.7-41.3,37.1-51.2c4.9-2.5,10.2-4.7,15.7-6c5.6-1.3,11.3-2.1,17.4-2.1c32.9,0,64.1,25,69.8,57.9
		c1.9,10.6,1.4,23.2-1.7,33.5l-9.2,32.3l-6.1,21.5l-6.1,21l-3.1,10.8"/>
</g>
<g id="vs-outline_1_">
	<path fill="none" stroke="#5DBFD9" stroke-width="40" stroke-linecap="round" stroke-linejoin="round" stroke-miterlimit="10" d="
		M389.3,345.7c0,0,1.5,15.5,1.5,15.6c1,10.4,2.1,20.8,3.1,31.3c1.9,20.8,4,41.7,6,62.5l1.5,15.6l17.8,8.2l17.8,8.2l17.8,8.2
		l17.8,8.2"/>
	<path fill="none" stroke="#5DBFD9" stroke-width="30" stroke-linecap="round" stroke-linejoin="round" stroke-miterlimit="10" d="
		M302,166l-45.5,28.7l-69.4,42.7c-15.4,9.5-30.9,19-46.3,28.5l-23.1,14.2c-3.9-6.4-7-13-9.6-19.8c-9.8-26.4-8.3-56.1,2.9-81.8
		c11.6-26.6,34.5-47.1,61.6-57.2c6.8-2.5,13.7-4.3,20.6-5.3c20.6-3.2,42.2-0.4,61.2,8.2C274.1,132.9,290.7,147.8,302,166z"/>
	
		<polyline fill="none" stroke="#5DBFD9" stroke-width="30" stroke-linecap="round" stroke-linejoin="round" stroke-miterlimit="10" points="
		131.1,95.8 136.5,104.6 141.9,113.2 147.2,122 152.7,130.7 	"/>
	<path fill="none" stroke="#5DBFD9" stroke-width="30" stroke-linecap="round" stroke-linejoin="round" stroke-miterlimit="10" d="
		M546.4,194.8l-45.5-28.7c11.4-18.2,27.9-33.1,47.6-41.8c19-8.7,40.6-11.4,61.2-8.2c6.9,1.1,13.8,2.8,20.6,5.3
		c27.1,10.1,49.9,30.6,61.6,57.2c11.2,25.7,12.8,55.4,2.9,81.8c-2.5,6.8-5.7,13.4-9.6,19.8L662.1,266c-15.4-9.5-30.9-19-46.3-28.5
		L546.4,194.8z"/>
	
		<polyline fill="none" stroke="#5DBFD9" stroke-width="30" stroke-linecap="round" stroke-linejoin="round" stroke-miterlimit="10" points="
		671.8,95.8 666.5,104.6 661,113.2 655.7,122 650.2,130.7 	"/>
	
		<line fill="none" stroke="#5DBFD9" stroke-width="40" stroke-linecap="round" stroke-linejoin="round" stroke-miterlimit="10" x1="214.4" y1="719.8" x2="180.9" y2="764.5"/>
	
		<line fill="none" stroke="#5DBFD9" stroke-width="40" stroke-linecap="round" stroke-linejoin="round" stroke-miterlimit="10" x1="587.3" y1="719.8" x2="620.8" y2="764.5"/>
</g>
</svg>
