<?xml version="1.0" encoding="utf-8"?>
<!-- Generator: Adobe Illustrator 22.1.0, SVG Export Plug-In . SVG Version: 6.00 Build 0)  -->
<svg version="1.1" id="Layer_1" xmlns="http://www.w3.org/2000/svg" xmlns:xlink="http://www.w3.org/1999/xlink" x="0px" y="0px"
	 width="1000px" height="1000px" viewBox="0 0 1000 1000" enable-background="new 0 0 1000 1000" xml:space="preserve">
<g id="vs-hair">
	<path d="M420.3,96.8c1.7-19.4-1.8-19.8,0.3-28.7c3.4-14,14.6-22.9,19.9-27.1c7.8-6.2,15.2-9,18.4-10.1c10.4-3.5,18.9-3.3,28.2-3
		c5.2,0.2,13.6,0.5,24.1,3.3c9.6,2.6,18.8,5.1,27.3,12.8c8.8,8,11.9,17.2,14.5,24.7c1.4,4.1,6.5,20.3,2.1,39.6
		c-1.6,7-4.6,15.4-6.5,15.1s-0.9-9.5-3.3-24.5c-2.3-14.4-3.6-21.8-9.6-26.2c-7.3-5.4-17.6-3.9-19.4-3.6c-5,0.8-5.2,2.2-11.4,3.8
		c-9.1,2.5-11.9,0.3-22.5,1.3c-11.6,1.1-20,4.9-21.7,5.7c-4.6,2.1-11.3,5.3-17.2,12.4c-3,3.5-12.2,15.5-10.2,29.2
		c0.8,5.3,3.2,10.4,1.9,11.1c-1.1,0.6-2.9-3-8.2-5.1c-4.1-1.6-5.5-0.5-7.2-2.1c-2.4-2.3-1.3-6.4-0.5-13.9
		C419.9,106.7,419.9,101.7,420.3,96.8z"/>
</g>
<g id="vs-skin">
	<path fill="#965B50" d="M433.3,121.6c1.9-13.8,2.8-20.8,4.8-24.5c3.2-5.9,8.4-9.1,14.6-12.8c4.3-2.6,8.7-4.5,14.8-6.4
		c15.3-4.8,18.8-2.6,44.3-6.2c11.5-1.6,18.2-3.1,23.9,1.1c2.2,1.7,3.8,3.8,5.6,7.9c8.8,19,5.1,36.2,9.8,37.4
		c3.4,0.9,7.2-7.8,10.4-6.7c3.2,1.1,2.3,10.9,2.1,14.2c-0.6,6.9-1.5,17.5-9.1,25.2c-3.7,3.7-5.7,3.5-8,7.5
		c-2.8,4.8-1.1,7.6-2.3,14.5c-0.8,5-4,10.7-10.4,22.2c-5.3,9.4-6.4,10.2-6.2,12.5c0.3,4.8,5.6,11.2,27.2,17.8
		c-3.2,3.4-6.5,6.8-9.9,10.2c-7.1,7.2-14.2,14-21.2,20.4c-0.3,2.9-0.6,5.7-0.9,8.6c-3.5,2.1-9.8,5.3-18.2,6.3
		c-10.3,1.3-18.5-1.1-22.6-2.7c-2.4-2-5.8-5.1-9.6-9.3c-6.5-7-10.2-13-11.7-15.3c-4.3-6.6-11.9-15.6-25.9-26
		c5.1-3.5,9.4-7.1,12.8-10.2c7.6-7,5.4-6.8,10.4-10.9c0.6-0.5,1.2-1,1.5-1.9c1.1-3.5-5.5-6.2-10.1-13.4c-4.8-7.6-2.3-12.3-7-15.3
		c-3.3-2.1-5.4-0.2-10.2-2c-5.1-1.9-7.9-6-10.2-9.5c-6.9-10.3-10-25.3-5.9-27.6c3.5-2,10,6.5,14.5,4
		C432.4,129.5,432.6,126.8,433.3,121.6z"/>
	<path fill="#965B50" d="M392,446.7c8.1-1.2,10.2,7.1,18.9,7.5c10.7,0.5,15.8-11.7,24.1-9c3,1,5.8,3.7,5.6,6
		c-0.3,2.8-5.2,3.2-10.7,8c-3.6,3.2-5.7,6.7-6.4,8.2c-4.7,9.7,2.7,22.8,7.2,30.7c9.1,15.9,17.8,20.4,15.6,26.9
		c-1.3,3.9-6.1,7.3-10,6.9c-4.5-0.4-5.8-5.6-9-5.3c-4.3,0.5-4.5,9.5-8.8,10.2c-1.4,0.2-3.1-0.5-9-7.1c-6.4-7.2-9.4-11.8-9.4-11.8
		c-10.5-15.9-9.2-15.2-13-20.3c-8-10.8-12-11.8-16.5-21.1c-2.3-4.8-3.5-9-4.1-11.9c2.9-2.2,7.7-5.8,13.6-10.3
		C388,448.2,389.3,447.1,392,446.7z"/>
	<path fill="#965B50" d="M606.6,518.6c1.4-2.6,6-4.5,19.9-2.3c-2.3,11.3-1.3,19.8,0.2,25.4c2.2,8.9,5.7,12.3,6.9,22.6
		c0.7,6.3,0.1,11-0.7,16.7c-0.9,6.7-2.9,16.3-7.4,27.3c-2.3-3.6-5.4-9.1-7.7-16.3c-2.7-8.4-3-15.1-3.5-26.1
		c-0.8-18.9,1.5-19.8-0.9-28.1C610.3,526.7,604.4,522.4,606.6,518.6z"/>
	<path fill="#965B50" d="M371.5,822.8c4.4-2,9.5,8.6,24.5,12.9c7.7,2.2,14.7,1.8,19.1,1.2c-1.2,2.3-2.9,5.6-4.9,9.7
		c-3.5,7.4-6.2,13.4-8.1,20.9c-1.1,4.5-2.3,11.2-2.1,19.6c-1,1.9-3.7,6.5-8.9,8.5c-7.4,2.9-17-0.4-23-8.5c0.6-3.9,1.3-9.1,1.7-15.3
		C372,842,366.2,825.3,371.5,822.8z"/>
	<path fill="#965B50" d="M567.9,787.8c28.1-6.1,36.1-3.5,37.9,0.1c1.2,2.5-0.7,4.8-1.3,14.1c-0.4,6.7,0.1,11.7,0.6,15.4
		c0.7,5.8,2.2,14,6,23.6c-3.1,1.9-8,4.6-14.4,6.4c-1.5,0.4-20.2,5.3-24-1.1c-2.1-3.5,2.7-6.4,3.4-15.3c0.7-8.5-3.1-11.7-6-23.9
		C569,802.6,567.8,796.1,567.9,787.8z"/>
</g>
<g id="vs-secondary">
	<path fill="#A862F4" d="M489.8,571.9c27.5-7,41.8-8.5,49.8-8.5c5.4,0,11.4,0.7,20.4-1.1c7.4-1.5,9.2-3.1,12.1-1.8
		c8,3.5,4.4,21,10.6,22.9c1.7,0.5,2.7-0.6,10.6-5.5c13.6-8.4,15.9-8.2,17-7.8c4,1.4,4.6,8.3,5.4,14.1c3.1,23.1,3.6-2.1,8.6,38.2
		c7.8,63.9-1,66.6,8,96c2.7,8.8,9.8,29.4,4,44.9c-2.9,7.7-8.1,13.6-8.1,13.6c-0.7,0.8-6,6.6-14,10.4c-13.3,6.2-20.8,0.4-46.3,0.5
		c-19.1,0.1-20.9,3.4-29.9,0.6c-13.4-4.1-22-15.3-27.2-24.4c1.3-3.9,2.8-9.9,2.7-17.2c-0.1-5.8-1.2-8.9-4-19.9
		c-5.2-20.3-5.3-24.4-7.4-24.6c-4.8-0.6-10.7,18.6-11.6,21.6c-1.7,5.5-3.7,12-3.8,20.8c-0.2,13.7,4.4,16.3,3.2,28.8
		c-0.3,3.4-1,9.7-4.8,16.4c-2.1,3.7-4.9,7.2-18.1,17c-7.9,5.9-13.7,10.2-23.3,16c-13.5,8.2-20.3,12.3-25.9,13.4
		c-17.4,3.4-32.5-4.4-37.1-7.1c-4-2.3-7.1-4.7-9.1-6.5c0.8-5.6,2-14,3.7-24.3c5.8-36.4,8.7-54.5,12-62.5c1.9-4.5,5.9-13.4,7.6-26.1
		c0.4-2.8,0.2-2.7,0.9-12.4c0,0,1.1-15,2.7-31.4c2-20.4,2.5-17.8,2.6-24.3c0.2-12.8-1.6-16.6,0-25.5c1.5-8.6,5-15.2,7.5-19.3
		c3.4,1.6,8.4,3.8,14.7,5.7c23.1,6.8,42.3,2.8,47.1,1.7c5.6-1.3,13.7-3.7,22.7-8.5C492,587.8,490.9,579.9,489.8,571.9z"/>
</g>
<g id="vs-colour">
	<path fill="#D4D3E5" d="M478.5,268.9c3.7-1.3,5.2,1.4,15.2,2c20.7,1.3,32.1-9.3,36.9-4.5c2.8,2.8-0.2,7.1-0.6,16.5
		c-0.6,13.3,4.7,21.2,9.1,32.4c3.3,8.3,4,13.3,8,44.3c12.3,96.3,25.1,200.9,25.1,200.9c-14.5,2-28.9,4-43.4,6.1
		c-13,1.8-25.9,3.6-38.9,5.4c-6.2-13-15-34.1-20.6-61.3C457,451.9,474.8,438,472,355C470.7,314.5,465,273.8,478.5,268.9z"/>
	<path fill="#D4D3E5" d="M573.2,843.5c4.9-2.4,9.1,4,19.8,4.3c8,0.2,14.5-3.1,18.8-5.9c6.9,4.9,12.9,8.2,16.9,10.2
		c20.9,10.6,37.5,15.7,37.5,15.7c6,1.8,11,3.1,13.7,7.7c2.2,3.8,2.4,8.9,0.6,13.2c-0.4,0.9-2.1,4.7-6.2,7.2
		c-4.5,2.8-8.5,1.9-21.6,0.4c-17.2-2-16.7-1.2-21-2.5c-10.2-3.2-9.3-6.3-18.1-8.9c-11.6-3.4-15.2,1.6-27-2.2
		c-3.9-1.3-10.2-3.3-14.5-8.9C564.5,863.8,566.5,846.8,573.2,843.5z"/>
	<path fill="#D4D3E5" d="M370.8,890.7c4.4-0.3,5.6,4.3,12.3,5.7c6.7,1.4,13-1.7,17-4.2c0.3,3.7,0.5,9,0.1,15.3
		c-0.3,5-0.5,8.7-1.4,12.8c-2.3,9.7-5.8,9.6-9.4,19.6c-3.7,10.3-0.9,13.3-5.5,20c-2.8,4.1-6.1,6.3-10.5,9.1
		c-5.3,3.4-12.8,8.4-17.6,5.8c-2.5-1.3-2.7-3.8-6-4.7c-2.2-0.6-3.4,0.2-6.1,0.5c-3.5,0.4-8.4-0.1-11.5-2.2
		c-6.4-4.4-5.1-15.6-4.9-16.6c0.6-4.8,2.7-8.4,7.9-15.2c8.7-11.3,11.5-12.3,17.1-19.5C363.9,902.3,364,891.2,370.8,890.7z"/>
	<path fill="#FFFFFF" d="M510.4,140.9c-1-2.5,1.7-6.7,5.1-8.2c0.6-0.3,1.8-0.7,8.8,0.3c7.6,1.1,8.1,1.8,8.2,2.3
		c0.6,1.8-2.5,4.5-4.8,6C521.4,145,511.9,144.5,510.4,140.9z"/>
	<path fill="#FFFFFF" d="M462.4,142.6c0.1-1.5,2.7-2.5,6.5-4c4.1-1.5,6.5-2.5,9.1-1.4c3.8,1.6,4.9,6.3,5.1,7.1
		c-0.9,1.1-2.6,2.8-5.1,3.7C471,150.6,462.2,145.5,462.4,142.6z"/>
	<path fill="#FFFFFF" d="M480.3,188.6c0.1-1.2,3.6-1,19-4c16.6,0.7,21.9-2.1,21.3-2.3c1.1,1.9-1.7,5.3-2,5.7
		c-2.7,3.4-6.9,4.4-11.9,4.8C494.3,194,480.1,191,480.3,188.6z"/>
</g>
<g id="vs-primary">
	<path fill="#FF5648" d="M478,463.3c0.2-14.9,0.9-17.1,2.2-60c1.6-55.6,0.5-59.3,4.2-73c2.7-9.9,5.9-18,4.8-30.3
		c-1.3-14.3-7.6-25.3-12.5-33.8c-1.9-3.4-9.4-16.4-20.9-27.2c-3.4-3.2-5.7-4.9-9.1-9.1c-5.8-7.3-6.4-11.9-10.6-13.2
		c-3.6-1.1-6.1,1.2-11.4,3.5c-12.1,5.2-18,1.4-28.4,4.1c-3.1,0.8-10.3,3.2-23,17c-17,18.3-16.6,27.5-37.7,64
		c-10.2,17.7-17.5,28-20.7,46.1c-0.9,5.3-2,11.6-1,19.9c2,16.3,9.4,18.1,15.6,36.9c6.7,20.2,7.3,36.1,7.3,36.1
		c0.2,4.9,0.1,12.9,5.6,19.1c2.8,3.2,6.3,4.9,8.7,5.8c9.1-2.2,21.3-6.5,33-15.5c2.9-2.2,5.5-4.5,7.8-6.8
		c-10.4-13.4-14.8-25.3-16.9-33.8c-2.4-9.6-2-15.9-5.5-38.5c-1.2-8.1-2.4-14.7-3.2-19.1c2.3-5.5,5.9-13.3,11.7-21.8
		c5.2-7.6,13.1-19.2,18.3-17.7c4,1.2,4.6,9.8,5.2,16.4c3.4,36,10,31.6,13.1,67.6c1.9,22.8-1.2,18.8,0,48.8c0.1,2.5,0.2,4.9,0.3,7.1
		c0.9-1,1.8-2.1,2.7-3c4.5-4.5,9.8-7.6,16.1-8.5c6.9-1,11.8,7.9,5,11.9c-11.6,6.9-15.3,16.7-11.3,29.5c3.9,12.8,12.2,24.2,19.7,35.1
		c3.2,4.7-2.1,11.2-7.3,9.5c-8.1-2.6-13.5-8.3-18.5-14.7c0.1,6.5-0.7,12.8-3.3,20.5c-1.4,4.3-5.4,14.9-9.1,30.7
		c-3.9,16.9-6.6,23.5-3,29c2.8,4.3,7.9,5.4,17.7,7.4c10,2,25.5,5,45.4,0.3c5.9-1.4,14.5-4.1,24.2-9.4
		C480,536.8,477.6,492.8,478,463.3z"/>
	<path fill="#FF5648" d="M525.3,293.8c-1.5-10.8-0.9-21.7-2.3-32.5c-0.1-0.8-0.4-3,0.6-5.4c1.7-4,5.8-5.7,7.2-6.4
		c12.5-5.8,12.7-22.2,23.9-24.3c3.2-0.6,7.7,1.3,16.7,5.1c9.4,4,9,5.5,17,8.6c9.6,3.7,12.5,2.4,17.9,6.3c0.9,0.7,4.9,3.7,8.3,10.4
		c6.9,13.6,5,29.2,4.1,36.8c-2,17.9-5.2,46.1-2.9,73.8c0.2,2.8,0.1,0.2,3.9,30.3c1.7,13.7,4.2,33.5,4.9,39.8
		c1.9,16.4,3.6,41.3,2.1,77c-6.7,1.7-13.4,3.4-20,5.1c1.4,6,2.7,12.7,3.5,20.2c1.3,11.9,1.1,22.5,0.4,31.3
		c-3.6,0.9-9.2,2.6-15.7,5.6c-7.3,3.4-10.3,6-13.6,4.8c-3.5-1.3-4.2-5.8-6.5-13.7c-3.7-12.7-4.3-8.5-10-26c-2.2-6.8-5-15.2-7.2-26.3
		c-2-9.9-2.5-17.3-3-22c-2.4-27-5.2-27.8-8.5-57.9c-3-27.1-4.5-40.7-4-50c0.2-3.7,0.8-11.4-1.7-21c-1.8-6.9-3.5-8.4-6.4-16.5
		c-2.8-7.9-3.8-13.8-5.5-24.9C526.1,308,527.6,310.4,525.3,293.8z"/>
</g>
<g id="vs-shade">
	<g>
		<path opacity="0.4" enable-background="new    " d="M427.2,127.4c5.3,2.1,7.1,5.7,8.2,5.1c1.3-0.7-1.1-5.7-1.9-11.1
			c-2-13.7,7.2-25.7,10.2-29.2c6-7.1,12.7-10.2,17.2-12.4c1.8-0.8,10.1-4.6,21.7-5.7c10.6-1,13.4,1.2,22.5-1.3
			c6.1-1.7,6.3-3.1,11.4-3.8c1.7-0.3,12.1-1.8,19.4,3.6c6,4.4,7.3,11.7,9.6,26.2c2.4,15,1.4,24.2,3.3,24.5c1.8,0.3,4.9-8.1,6.5-15.1
			c4.4-19.3-0.7-35.5-2.1-39.6c-2.6-7.5-5.7-16.7-14.5-24.7c-8.4-7.7-17.7-10.2-27.3-12.8c-10.5-2.8-18.8-3.2-24.1-3.3
			c-9.3-0.3-17.8-0.5-28.2,3c-3.2,1.1-10.6,3.9-18.4,10.1c-5.3,4.2-16.5,13-19.9,27.1c-2.1,8.9,1.4,9.3-0.3,28.7
			c-0.4,4.9-0.3,9.8-0.9,14.7c-0.9,7.5-1.9,11.6,0.5,13.9C421.7,126.9,423.1,125.8,427.2,127.4z"/>
		<path opacity="0.4" enable-background="new    " d="M437.7,140.1c-1-3.1-5.6-5.8-9.8-4.7c-3.6,1-6.6,4.7-6.2,7.9
			c0.5,3.9,5.4,4.1,13,10.6c5.6,4.9,8.5,9.6,9.1,9.2c0.9-0.6-8-11.3-6.1-19.9C437.9,142.7,438.2,141.5,437.7,140.1z"/>
		<path opacity="0.4" enable-background="new    " d="M553.8,138.6c2-4.9,2.7-6.9,2.3-9.6c-0.4-3.3-2.3-6.9-3.8-6.8
			c-2,0.2-2.9,6.9-3.8,13.2c-0.3,2.1-2.1,15-0.4,15.3C548.7,150.9,550.4,146.8,553.8,138.6z"/>
		<path opacity="0.4" enable-background="new    " d="M518.2,131.2c1.7-0.7,3.2-0.7,4.3-0.6l3.6-1.1c-1.6-1.1-6.4-4.1-12.6-3.4
			c-2,0.2-6.7,0.7-9.4,4.5c-1.6,2.2-1.8,4.5-1.9,6.2c-0.3,3.6,0.7,6.2,3,11.7c3.1,7.7,5.1,12.2,5.3,12.1c0.4-0.2-4.7-11.1-1.9-13.2
			c0.5-0.4,0.9-0.3,4,0.2c7.4,1.1,8,1.1,8.7,1.1c4.3-0.5,7.6-4.1,7.2-4.9c-0.3-0.6-2.5,0.6-6.6,0.6c-1.8,0-7.7,0-9.2-3.2
			c-0.6-1.3-0.2-2.7,0.2-4C513.3,136.4,514.5,132.7,518.2,131.2z"/>
		<path opacity="0.4" enable-background="new    " d="M492.4,145.6c-0.3-1.7-0.2-2.3-0.4-3.2c-0.7-2.4-1.8-2.4-2.3-4.7
			c-0.3-1.1-0.1-1.5-0.6-4c-0.2-0.9-0.3-1.4-0.4-1.7c-0.5-1-1.5-1.9-4-2.8c-3-1-5.7-1.9-8.9-0.9c-4.2,1.2-7.7,5-7.1,6.5
			c0.4,0.8,1.9,0.8,5.1,0.9c1.2,0,2,0,2.7-0.1c3.4-0.3,3.3-0.1,3.4-0.1c2.6,0.3,4.6,4.9,5.3,8.5c0.6,2.7,0.4,4.6-0.6,11.5
			c-0.7,4.5-2.1,14.2-1.7,14.3c0.2,0.1,0.4-3.1,2.6-4.3c0.6-0.3,0.6-0.1,3.8-0.9c1.8-0.4,2.6-0.6,3-1.3s0.3-1.5,0.2-1.9
			c-0.3-2.1,0.2-4.3,0.2-6.4C492.7,149.6,492.6,146.8,492.4,145.6z"/>
		<path opacity="0.4" enable-background="new    " d="M494.8,171.8c-0.8-0.6-2.9-2.1-5.1-1.3c-2.2,0.9-3.4,3.8-2.6,5.2
			c1.4,2.5,9.5,1.4,10.1-0.8C497.5,173.8,495.3,172.2,494.8,171.8z"/>
		<path opacity="0.4" enable-background="new    " d="M525.9,181.8c0.6,0.3,3.2-2.4,4.5-5.7c0.6-1.7,1.9-5,0.4-6.8s-4-0.2-6.4-2.1
			c-2.3-1.8-1.1-4.2-3.2-6.8c-3-3.6-9-3.5-9.2-3s4.4,1,5.3,3.6c0.7,2.1-1.2,4.6-3.7,7.1c-0.1-0.1-0.3-0.2-0.4-0.3
			c-1.6-0.9-4.1,0.5-5.3,2.1c-1.1,1.5-1.4,3.4-1.2,4.7c-0.9,1.1-1.4,1.9-1.1,2.6c1,1.9,10.2,1.8,17-1.8c1.2-0.6,3-1.7,3.9-1
			C528.1,175.6,525,181.4,525.9,181.8z"/>
		<path opacity="0.4" enable-background="new    " d="M481.7,187.1c0.2,0.4,0.4,0.9,0.7,1.5c1.3-0.2,3.5-0.2,7.3,0.1
			c7.3,0.5,7.2,0.9,10.4,0.9c4.9-0.1,8.7-1.1,11.5-1.9c0.4-0.1,8.1-2.3,7.9-3.2c-0.1-0.7-4.5,0.1-16.8,0.9c-14.8,1-13,0.2-15.5,0.9
			C485.4,186.5,483.6,187.1,481.7,187.1z"/>
		<path opacity="0.4" enable-background="new    " d="M486.3,196.3c-0.8,0.8,3.9,8.5,11.7,11.7c1.7,0.7,4.3,1.7,7.7,1.3
			c4.8-0.6,7.8-3.8,8.7-4.9c3.6-4,4.8-9.5,3.8-10c-1-0.6-3.2,5.3-9.4,7.5c-5,1.7-10.1,0.1-13-0.9C489.5,199,486.8,195.7,486.3,196.3
			z"/>
		<path opacity="0.4" enable-background="new    " d="M457.5,195.5c-1.6,0.8-1.2,2.5-3.2,6.6c-2.7,5.6-6.8,9-8.3,10.2
			c-4.9,4-9.3,5-9,6.1c0.2,0.8,2.5,0.7,5.4,0.7c8.6,0.1,12.9,0.1,16.4,0.9c4.7,1,3.7,2.5,13.8,7.5c6,2.9,8.9,4.4,12.4,4.9
			c9.1,1.3,16.4-3,18.3-4.3c6-3.8,10.7-9.7,9.7-11c-0.7-1-4.2,1.9-11.2,2.7c-2.5,0.3-9.1,1.1-15.1-2.3c-1.1-0.6-1.1-0.8-7-6.4
			c-7.2-6.8-9-8.3-9.8-8.9C464.2,197.5,460.2,194.2,457.5,195.5z"/>
		<path opacity="0.4" enable-background="new    " d="M631.1,882.7c-2.1-2.2-6.5-4.6-15.3-9.4c-5.9-3.2-7-3.6-8.5-3.8
			c-4.1-0.6-5.6,0.8-12.4,1.3c-5.8,0.4-8.7,0.7-10.6-0.9c-2.5-1.9-2.3-5.5-1.3-17c2-22.5,2.9-25.4,4.3-28.5
			c2.6-5.9,6.6-11.8,7.2-12.8c3-4.4,5.1-6.6,7.7-11.5c2.8-5.4,4.3-8.1,3.5-10.1c-0.4-1.1-1.4-2-2.7-2.8c11.3-0.7,19.9-1.9,19.9-2.4
			s-6.2-0.1-14.7-0.8c-13.2-1.2-18.2-5.1-30.2-6.8c-22.4-3.1-31-0.1-38.3-6.8c-6.9-6.2-7-15.6-7.2-33.6c-0.3-19.9-0.5-35.6,8.9-49.8
			c2.2-3.3,4.2-5.4,7.2-7.6c0-0.1,0.1-0.2,0.1-0.2c0-0.1,0.1-0.2,0.1-0.2c3.3-7.4,7.9-25.1,7.9-25.1c1.5-5.6,4.3-13.5,10.2-23
			c9.2-22.4,8.2-30.1,5-32.6c-4.8-3.8-14.6,3.9-30.6,8.8c-10.2,3.2-20,4.3-28.9,4.3c-4.1-3.8-8.1-0.3-26.4-2.6
			c-13.5-1.7-16.7-4.3-18.3-2.3c-6.1,7.4,27.5,57.1,29.3,63.3c0.5,1.9,1,3.9,1,3.9c0.5,1.8,0.7,3.3,0.9,4.2
			c0.5,3.2,0.8,9.3-3.4,19.2c-5.1,11.9-12.3,18.6-16.2,23c-17.1,19.3-5.4,33-24.3,73.7c-5.6,12.1-10.9,19.9-17.5,26.8
			c-8,8.3-16.2,13.5-22,16.7c11.8-4.7,21.2-9.6,28-13.6c12.7-7.2,20.5-13.4,26.6-18.2c13.7-10.8,16.5-15.5,18.1-19.8
			c2.1-5.9,2-11.6,2-15.4c-0.1-7.9-2-18.5-2.5-21.1c-0.3-1.7-0.7-3.7-0.8-6.6c-0.3-6,0.7-10.4,0.9-11.3c0.9-3.8,2.3-6.2,4.6-10.5
			c6.4-11.8,4.6-9.5,8.5-16.2c1.5-2.6,2.9-4.9,4.2-6.9c-0.1,0.5-0.2,0.9-0.3,1.4c-1.3,6.3,0.5,12,3.6,21.1c3.7,11.2,5.6,10.8,6,16.6
			c0.2,2.9-0.5,7.9-2,17.9c-1.1,7.6-1.4,7.9-1.1,9.5c1,6.4,6.1,10.5,12,15.2c4.9,3.9,9.4,7.6,16.1,9.3c6.9,1.8,10.9,0.3,20-0.7
			c6.9-0.8,9.9-0.6,14.3-0.3c-2.3,1.2-4.1,2.7-4.9,4.6c-1.5,3.4,1.4,5,4.2,17c1.1,4.6,3,12.8,2.4,22.6c-0.1,1.3-1.1,6.8-3.2,17.7
			c-2.6,13.7-3.1,15.9-1.9,19.3c2.3,6.9,8.3,10.6,10.6,12c5.7,3.5,11.2,4.1,22,5.1c10.9,1,11.2-0.3,16.9,1.1
			c10.8,2.8,16.1,9.2,17.6,7.8C638.4,893.3,635.3,887.1,631.1,882.7z M511.3,649.4c0.1,0.2,0.2,0.5,0.2,0.7c-0.1,0-0.1,0-0.2,0
			s-0.1,0.1-0.1,0.1c-0.1,0.1-0.2,0.1-0.2,0.1C511,650.4,511.1,650,511.3,649.4z"/>
		<path opacity="0.4" enable-background="new    " d="M400.3,898.5c0-4.4-0.4-7.2-0.1-14.1C399.9,889.7,400,894.6,400.3,898.5z"/>
		<path opacity="0.4" enable-background="new    " d="M395.1,836.7c-12.7-3.8-18.8-14-21.2-12.2c-1.4,1.1-0.1,5.3,1.2,7.9
			c3.1,6.3,8.1,6.5,12.8,12.4c1.9,2.4,0.6,1.8,5.1,11.9c4.8,10.9,7.2,13.5,7.6,19.9c0.2,2.2-0.2,1.2-0.4,7.8
			c0.3-4.6,0.9-12.7,4.3-22.3c4.9-13.9,11.3-18.7,9-22.4C411.3,836.1,405.3,839.7,395.1,836.7z"/>
		<path opacity="0.4" enable-background="new    " d="M400.2,903.5c-0.3,7.7-0.5,11.6-2.1,14.1c-3.4,4.9-7.5,3.1-11.1,8.1
			c-1.9,2.6-2.2,6.7-3,14.9c-0.5,5.5-0.9,9.6,0,9.8c1.1,0.3,2.6-6,7.5-15.2c6.2-11.5,10.8-14.5,10.8-22.3c0-2.3-0.4-1.7-1.2-7.2
			c-0.2-1.6-0.6-4.1-0.8-7.2C400.3,900,400.3,901.6,400.2,903.5z"/>
		<path opacity="0.4" enable-background="new    " d="M505.5,201.5c0.6,0,7.3-0.7,8.3-4.2c0.3-1.1,0.1-2.7-0.9-3.7
			c-2.3-2.4-6.6,0.7-14.2,0.6c-6.2-0.1-9.1-2.3-9.5-1.5C488.4,194,496.4,202.2,505.5,201.5z"/>
		<path opacity="0.4" enable-background="new    " d="M479,489.3c0.6,19.7,2.9,47.8,11,82.4c3.7-0.6,9.4-1.4,16.4-2.3
			c33.3-4.2,50.1-3.6,50.6-7.1c0.3-2.6-8.6-5.8-13.8-7.7c-17.7-6.4-24.7-2.5-34.6-9.1c-6.3-4.2-9.4-9.7-11.9-14.2
			c-6.3-11.2-9.7-27.7-4-31.8c1.3-0.9,4.1-0.8,9.7-0.6c10.5,0.5,12.7,2,14.2,0.6c3.3-3.2-3.3-15.4-9.1-26.1
			c-8.1-14.9-12.3-18.6-12.5-27.3c-0.2-6.2,1.7-14.3,5.7-15.3c5.7-1.5,11.5,12.2,15.9,10.8c3.6-1.2,4.7-12.3,2.3-22.7
			c-4.3-18.2-16.5-21.1-23.3-38.6c-4-10.3-3.5-18.9-2.8-30.1c1.4-24.6,11.4-44.2,17-55.1c8.3-15.9,16.2-25.4,13.4-28.4
			c-2.4-2.5-9.3,2.9-21.4,3.9c-10.3,0.8-18.9-2.1-24.8-4.8c2.4,3,5.3,7.3,7.8,13.1c4.3,10,4.6,18.6,4.7,20.7c0.1,4.9-0.6,6.9-3.5,21
			c-1.5-2.9-3.1-6.1-4.2-12.6c-1.3-8-0.3-11.8-3.7-17.4c-1.8-3-2.3-2.4-9.3-9.6c-8.2-8.5-8.4-10.4-12.3-11.9
			c-2.4-0.9-5.8-0.7-12.6-0.3c-8.5,0.5-12.8,0.8-13,2.1c-0.4,2.3,11.6,3.3,22.7,13.2c5.6,5,8.9,10.5,10.8,13.6
			c4.4,7.5,6.3,14.1,7.4,18.2c7.2,27.4,5.6,43.8,8.8,44.3c0.1,5.2,0.3,11,0.4,18.8c0.1,7.6-0.1,5.5-0.7,30.1
			C479.1,452.7,478.6,474.4,479,489.3z"/>
		<path opacity="0.4" enable-background="new    " d="M392.1,446.5c-0.2-2.9-2.5-3.4-6.2-8.2c-4-5.3-5.7-10.5-8-21.6
			c-3.8-18.8-2.3-19.8-5.1-32.9c-3.7-17.4-7.7-21.8-5.1-31.2c1.1-3.8,2.6-6.2,8-13.6c5.3-7.3,12.7-17.2,21.9-28.8
			c0.8,4.3,1.9,10.6,3.1,18.3c3.6,22,2.8,21.5,4.5,28c4.3,16.9,8.9,17.6,10.2,30.7c0.9,8.8-1.3,7.1-1,21.1c0.4,16,3.2,17.6,2.1,29.5
			c-0.7,7.9-2.5,12.5-0.2,14c1.5,1,2.8-0.4,14.2-4.3c2.7-0.9,4.4-1.4,4.5-2.5c0.2-2.1-6-2.7-7.8-7.3c-1.3-3.3,0.4-7,1.1-8.5
			c2.8-5.8,7.2-5.6,8-9.1c1-4.7-6.7-7.1-10.2-15.3c-2.8-6.4,0.5-8.3,0-19.9c-0.5-10.4-3.5-18.4-8-30.1c-4.3-11.3-5.1-9.8-6.8-16.5
			c-1.9-7.5-2-14.3-2.3-27.3c-0.1-7.1,0.1-6.8,0-12.5c-0.2-9.4-0.4-22.6-4-36.9c-2.4-9.5-7.1-23.2-9.7-22.7c-1.6,0.3-1.6,6-2.3,18.7
			c-1.2,21.6-1.8,32.4-4,39.8c-3.4,11.2-5.1,7-15.3,29.5c-5.3,11.8-7.1,18.1-13.1,19.9c-4.2,1.2-6.5-0.9-17-0.6
			c-2.7,0.1-11.6,0.4-11.9,2.3c-0.4,2.8,17.9,6.2,17.6,9.7s-19.5,2.7-19.9,6.2c-0.3,2.5,8.7,7.2,17,5.1c5.3-1.3,7.7-5.8,8.5-5.1
			c1,0.8-1.2,7.8-6.8,11.4c-5.6,3.6-11.5,1.8-11.9,3.4c-0.8,2.7,7,10.1,14.2,9.1c4.4-0.6,6.4-4,8.4-3s0.7,4.9,1.3,11
			c0.6,6.5,2.6,6.8,5.7,17c1.6,5.2,2.2,8.8,3.4,15.9c2.3,13.5,1.3,15.5,0.6,16.5c-2.7,3.9-6.9,1.7-12.5,5.7
			c-7,4.9-10.5,15.1-7.9,17.8c0.6,0.6,2.3,1.6,14.2-3.3C377.8,460,392.6,453.9,392.1,446.5z"/>
		<path opacity="0.4" enable-background="new    " d="M463.1,516.7c0.8-1.6-8-6.3-16.5-13.6c-13.7-11.7-18.4-23-19.9-22.1
			c-1.6,0.9,1.5,16.4,11.6,30c4.7,6.3,9.8,10.9,8.3,15.5c-0.9,2.9-4.2,4.7-6.8,5.1c-7,1.2-13.5-6.3-15.9-9.1
			c-8.2-9.5-7.6-18.1-14.4-20.3c-0.7-0.2-4.7-1.5-6.6,0.4c-0.9,1-1,2.3-1,2.9c-0.1,5.7,8.3,9.1,15.3,18.8c2.8,3.9,5.2,7.4,5,11.8
			c-0.2,6.1-5.2,10.4-6.8,11.9c-5.8,5.6-11.3,17.9-9.2,47.7c1.2-7.8,4.1-18.3,10.9-28.4c4.4-6.5,7.6-11.2,13.6-13.1
			c4.9-1.5,8.4-0.1,10.8-2.8c3.2-3.8-0.5-9.7,2.3-11.9c3.1-2.4,9.4,3.5,12.5,1.1s0.3-11,0-11.9c-2.3-7.2-6.8-10.1-5.7-11.9
			C452.2,514,462.3,518.4,463.1,516.7z"/>
		<path opacity="0.4" enable-background="new    " d="M559.1,289c0.7-1.2-1.6-3.5-5-7.3c-9-10.1-10.4-13.6-12.6-13.1
			c-2.3,0.6-2.5,5-4.1,11.2c-1.5,5.8-4.2,13.4-9.8,22c-0.2,5.6-0.2,13.8,1.2,23.5c1.2,8,2.7,12.9,5.3,22.4
			c0.4,1.4,3.7,13.2,6.5,23.8c0.3-6.6,3.1-8.7,3.6-16c0.9-13.4-7.8-16.1-6.2-28.4c1-7.5,4.2-6.1,6.8-17c2.6-11,0.8-18.1,5.1-20.4
			C553.6,287.6,558.2,290.6,559.1,289z"/>
		<path opacity="0.4" enable-background="new    " d="M540.7,374.3c0.4,8.4,3.9,14.7,4.2,14.6c0.4-0.1-1.8-8.4-4.2-17.5
			C540.7,372.3,540.7,373.2,540.7,374.3z"/>
		<path opacity="0.4" enable-background="new    " d="M600.3,470.6c-0.3,7.6,1.2,15.7,4.1,32c1.4,8.1,2.7,13.4,7.1,15.7
			c5.7,3,13.1-1,15.3-2.2c-7.6-12.5-11.5-23.5-13.6-31.2c-4.4-15.7-0.9-15.9-5.7-29c-2.8-7.7-6.7-14.9-3.4-21
			c1.2-2.2,2.2-2.3,4.5-6.2c2.1-3.6,5.3-9,3.4-12.5c-1.1-2-2.8-1.3-5.7-4c-3.2-2.9-5.1-7.3-4-8.5c0.8-0.8,2.8,0.9,5.7,0.6
			c4.8-0.6,9.3-7.1,8-10.2c-1.6-3.6-9.9-0.1-14.2-4.5c-4.2-4.4-1.5-13.3-0.6-16.5c7.3-26.3-3.6-59.6-5.1-59.6
			c-1.7,0-2.4,44.8-1,84.6C597,452.9,601.1,448.4,600.3,470.6z"/>
	</g>
</g>
<g id="vs-outline">
	<path fill="none" stroke="#000000" stroke-width="6" stroke-linecap="round" stroke-linejoin="round" stroke-miterlimit="10" d="
		M435.7,134.1c-1.6-5.2-5.2-19.3,1.1-34.1c1.6-3.7,4.5-10.3,11.4-15.3c5.1-3.8,9.9-4.8,19.3-6.8c6.7-1.4,7.2-0.9,22.1-2.8
		c12.1-1.6,18.2-2.4,22.1-3.4c9-2.4,10.8-4.3,15.3-3.4c7.6,1.5,12.1,8.8,13.6,11.4c1.2,2,3.8,6.7,5.1,21.6
		c1.3,15.2-0.3,23.6,1.1,23.9c1.6,0.3,5.8-9.6,8-20.4c1.8-8.9,5.2-26.3-4-44.3c-1.4-2.8-6.7-12.5-17.6-20.4
		c-15.7-11.4-32.6-11.7-47.7-11.9c-9.6-0.1-17.7-0.3-27.8,3.4c-14.2,5.1-22.7,14.2-26.1,18.2c-3,3.6-10.4,12.4-13.1,25.6
		c-0.6,2.7-1,6.3,0,25c0.6,10,1.2,18.2,1.7,23.9"/>
	<path fill="none" stroke="#000000" stroke-width="6" stroke-linecap="round" stroke-linejoin="round" stroke-miterlimit="10" d="
		M436.3,138.9c-0.9-2.4-4-9.5-11.1-12.2c-1-0.4-6.8-2.6-9.4,0c-1.4,1.4-1.1,3.9-0.6,8.8c0.6,5.5,1,9,3.1,13.3
		c0.6,1.2,2.5,5.1,6.2,8.8c3.1,3.1,3.9,2.5,7.4,6.2c1.9,2,2.8,3.3,4.5,3.7c2.2,0.5,4.2-0.7,5.7-1.7"/>
	<path fill="none" stroke="#000000" stroke-width="6" stroke-linecap="round" stroke-linejoin="round" stroke-miterlimit="10" d="
		M436.3,138.9c0.9,3.2,2.1,7.6,3.7,12.8c4,13.3,4,11.7,7.1,22.1c3.1,10.4,3.4,12.7,6.2,16.5c1.5,2,4,3.9,8.8,7.7
		c8.3,6.4,9.6,6.5,17,12.2c7.2,5.5,7.5,6.6,11.1,8c5.8,2.2,11,1.5,13.9,1.1s9.6-1.2,15.6-6c5-3.9,3.6-6,10.8-14.8
		c5.8-7.2,7.4-6.7,9.9-11.6c2.9-5.8,3.5-11.9,3.7-14.2c0.6-6.7-0.7-10.6,2.3-14.5c1.1-1.4,1.9-1.7,3.7-3.1c5.2-4.1,7.6-9.2,9.4-12.8
		c4.5-9.3,4.2-17.1,4-24.7c-0.1-2.4-0.3-5.6-2-6.2c-0.6-0.2-1.5-0.1-4.8,2.3c-2.4,1.7-4.3,3.3-5.5,4.4"/>
	<path fill="none" stroke="#000000" stroke-width="6" stroke-linecap="round" stroke-linejoin="round" stroke-miterlimit="10" d="
		M548.6,123.5c-0.4,3.5-0.8,7.1-1.2,10.7c-0.9,8.9-1.6,17.5-2.1,25.9"/>
	<path fill="none" stroke="#000000" stroke-width="4" stroke-linecap="round" stroke-linejoin="round" stroke-miterlimit="10" d="
		M505.3,124.2c0.8-1,2.1-2.3,4-3.4c3.9-2.2,5.6-0.6,15.9-1.1c3-0.2,5.3-0.4,8,0.9c1.6,0.8,2.7,1.8,3.4,2.6"/>
	<path fill="none" stroke="#000000" stroke-width="4" stroke-linecap="round" stroke-linejoin="round" stroke-miterlimit="10" d="
		M488.8,126.4c-1.2-0.7-3.2-1.6-5.7-2c-2.2-0.4-4.5-0.1-8.8,0.6c-2.5,0.4-5,0.9-9.9,2c-2.5,0.5-3.7,0.8-5.1,1.7c-2,1.2-3.3,2.8-4,4"
		/>
	<path fill="none" stroke="#000000" stroke-width="4" stroke-linecap="round" stroke-linejoin="round" stroke-miterlimit="10" d="
		M573.2,843.5c2.9,1.6,8.3,4.1,15.5,4.4c11.5,0.5,19.7-5.1,22.3-7"/>
	<path fill="none" stroke="#000000" stroke-width="4" stroke-linecap="round" stroke-linejoin="round" stroke-miterlimit="10" d="
		M510.7,141.2c0-0.3,0.1-4.7,2.8-7.1c0.7-0.6,2.1-1.6,4-2.1c0,0,0.4-0.1,0.8-0.2c2.8-0.5,5.8,0.2,7.1,0.6c3.4,0.9,3.6,1.4,6.7,2.1
		c1.9,0.5,3.4,0.7,4.5,0.9"/>
	<path fill="none" stroke="#000000" stroke-width="4" stroke-linecap="round" stroke-linejoin="round" stroke-miterlimit="10" d="
		M519.8,133.5c-0.2,0.2-1,1.2-0.9,2.5c0,1.2,0.7,2,1.1,2.5c0.3,0.3,2.3,2.6,4.1,1.7c1.1-0.5,2.1-2,1.6-3.5c-0.4-1.1-1.4-1.7-2.3-1.7
		c-1.2-0.1-2.6,0.7-2.5,1.3c0,0.5,1.1,1,2.5,1.2"/>
	<path fill="none" stroke="#000000" stroke-width="4" stroke-linecap="round" stroke-linejoin="round" stroke-miterlimit="10" d="
		M516.9,142.6c1.4,0.5,4,1.1,7.1,0.4c0.8-0.2,2.4-0.5,4-1.7c2.4-1.7,3.4-3.9,3.8-4.9"/>
	<path fill="none" stroke="#000000" stroke-width="4" stroke-linecap="round" stroke-linejoin="round" stroke-miterlimit="10" d="
		M484.1,144.9c0-0.3-0.7-4.6-3.7-6.7c-0.8-0.5-2.3-1.3-4.3-1.6c0,0-0.4-0.1-0.8-0.1c-3.1-0.2-6.8,1.4-7,1.5
		c-3.3,1.5-3.6,2.3-7.7,4.4c-1.5,0.7-2.7,1.3-3.5,1.6"/>
	<path fill="none" stroke="#000000" stroke-width="4" stroke-linecap="round" stroke-linejoin="round" stroke-miterlimit="10" d="
		M475.8,138.5c0.2,0.2,1.1,0.8,1.2,1.9c0.1,1-0.5,1.7-0.9,2.2c-0.3,0.3-2.1,2.4-4.1,2c-1.1-0.3-2.4-1.4-2-2.6
		c0.3-0.9,1.3-1.5,2.2-1.7c1.3-0.3,2.7,0.2,2.7,0.7c0,0.4-1,1-2.5,1.3"/>
	<path fill="none" stroke="#000000" stroke-width="4" stroke-linecap="round" stroke-linejoin="round" stroke-miterlimit="10" d="
		M479.6,146.9c-1.5,0.6-3.9,1.4-7,1.5c-1.8,0-3.8,0.1-6.1-0.9c-2.5-1.1-4-2.8-4.7-3.8"/>
	<path fill="none" stroke="#000000" stroke-width="4" stroke-linecap="round" stroke-linejoin="round" stroke-miterlimit="10" d="
		M499.7,133.5c-0.4,5.8,0.7,9.9,1.9,12.6c1.8,4.1,2,3.4,3.6,8c0.7,2.1,1.2,4,3,5c0.7,0.4,2,0.9,3.1,1.2c1.7,0.4,1.9,0.2,2.6,0.6
		c1.1,0.6,2.4,2,2.3,3.7c-0.1,1.6-1.4,2.6-1.7,2.8"/>
	<path fill="none" stroke="#000000" stroke-width="4" stroke-linecap="round" stroke-linejoin="round" stroke-miterlimit="10" d="
		M484.5,165.6c-0.3,0.4-2.7,3.3-1.7,5.1c0.6,1,2.2,1.3,5.5,1.8c3.2,0.5,3.7,0.2,6.9,0.8c2.7,0.4,2.7,0.7,4.4,0.8
		c1.9,0.1,4.3,0.2,5.8-1.3c1-1,2.1-1.7,2.1-2.5"/>
	<path fill="none" stroke="#000000" stroke-width="4" stroke-linecap="round" stroke-linejoin="round" stroke-miterlimit="10" d="
		M477.4,187.1c5.1-0.7,9.3-1,12.1-1.1c4.1-0.1,6.1,0,10.4-0.4c2.6-0.3,3.1-0.5,6.6-0.9c5-0.5,5.5-0.3,8.1-0.6
		c7.1-0.9,10.8-3.8,11.3-3c0.5,0.9-3.6,4.7-7.2,7.2c-3,2.2-6.2,4.4-10.9,5.5c-4.1,1-7.2,0.6-12.4,0c-5.6-0.7-9.7-2-11.7-2.8
		c-1.5-0.5-2.7-1.1-3.6-1.5"/>
	<path fill="none" stroke="#000000" stroke-width="4" stroke-linecap="round" stroke-linejoin="round" stroke-miterlimit="10" d="
		M483.8,191.2c1.3,2,4.3,6,9.8,8.5c1.9,0.8,8,3.6,14.5,1.3c3.8-1.4,6.1-3.9,8.7-6.8c3-3.3,4.8-6.6,5.8-8.9"/>
	<path fill="none" stroke="#000000" stroke-width="6" stroke-linecap="round" stroke-linejoin="round" stroke-miterlimit="10" d="
		M453.3,190.3c1.3,2.6,2.7,7,0.9,10.9c-1.1,2.3-2.8,3.3-6.8,6.2c-9.4,6.9-8.7,7.9-12.8,10.1c-3.9,2.1-6.1,2-17.5,3.5
		c-3.8,0.5-18.4,1.9-26.4,4.7c-6.3,2.2-12.7,6.5-30.3,34.8c-11.3,18.2-18.6,32.3-18.9,33c-6.7,13.1-15.6,31.4-24.8,54"/>
	<path fill="none" stroke="#000000" stroke-width="6" stroke-linecap="round" stroke-linejoin="round" stroke-miterlimit="10" d="
		M401.4,297.7c-0.2,2.5-0.8,6.3-2.8,10.5c-2.7,5.7-6.7,9.2-8.9,10.8l0,0c-0.1,0.1-22.7,26.3-23.3,36.4c-0.1,1.3,0.1,2.5,0.1,2.5
		c0.2,1,0.5,1.9,1.1,4l0,0c0.9,1.8,1,3.4,1.1,3.9c1,11.9,3.2,23.6,4.5,35.5c2,17.5,6.3,27.8,9,33.2c3.1,6.4,5.9,9.9,9.8,12.4
		c3.8,2.4,8.1,3,16.6,4.3c7.5,1.1,11.3,1.7,14.9,0.1c6.9-3,8.5-4.3,8.5-4.3c0.9-0.7,1.7-1.4,3-1.6c2.2-0.3,5,1.2,5.7,3.3
		c1,2.9-2.3,5.8-3.4,6.8c-2.7,2.4-4.5,2.1-7.5,3.9c-4,2.5-5.6,6.3-6.4,8.2c-2.6,6.2-0.9,11.9,0.9,17.5c0.4,1.2,1.3,4,6.4,13.2
		c3.4,6.1,6,10.5,11.1,19.1c6.8,11.5,8.7,15.1,7.7,16c-1,0.7-4.1-1.3-5.1-1.9c-3.7-2.4-5.3-5.3-7.7-9c-2.8-4.4-0.5-0.4-7.2-10.1
		c-1.9-2.7-4.4-6.4-7.4-10.9"/>
	<path fill="none" stroke="#000000" stroke-width="6" stroke-linecap="round" stroke-linejoin="round" stroke-miterlimit="10" d="
		M395.5,313.2c4.9,13.9,9.6,29.9,13.1,47.9c6.8,35.3,6.9,66.4,4.9,90.6"/>
	<path fill="none" stroke="#000000" stroke-width="6" stroke-linecap="round" stroke-linejoin="round" stroke-miterlimit="10" d="
		M316.6,347.5c-2,4-4.3,10.2-3.8,17.5c0.4,6,2.6,9.8,5.5,16.3c6.3,14.1,7,16.9,9,21.6l0,0c1.7,4.1,3.2,6.8,3.3,7.2
		c2.3,4.5,3.5,19.2,6.2,34c0.5,2.9,1.1,5.9,2.3,9.7c3.2,10.7,5,12.7,6.2,13.6c3.9,2.9,8.8,2.3,9.1,2.3c5.1-0.7,6.3-4.3,9.2-3.7
		c2.9,0.6,1.7,4.1,6.8,10.6c2.2,2.8,4.6,3.7,9.5,11c0,0,6.2,8.5,13.6,20.2c4.1,6.5,4,6.7,6.4,10.1c6.7,9.7,10.9,13.5,13.6,15.6
		c1.8,1.4,3.4,2.5,4.8,3.4c0.7,0.4,1.2,0.7,1.6,0.9"/>
	<path fill="none" stroke="#000000" stroke-width="6" stroke-linecap="round" stroke-linejoin="round" stroke-miterlimit="10" d="
		M401.8,505.5c3.9,3.8,6.9,7.4,9.4,10.5c3.6,4.6,6.1,8.5,7.2,10.5c1.6,2.7,2.9,5.1,3.8,7"/>
	<path fill="none" stroke="#000000" stroke-width="6" stroke-linecap="round" stroke-linejoin="round" stroke-miterlimit="10" d="
		M618.7,376.7c0.1,4.6,0.3,11.5,0.9,20c0.4,5.2,1.1,13.1,4.9,39.8c3,20.9,3.2,20.3,3.4,24.7c0.4,6.8,0,8.3-0.9,32.4
		c-0.8,23.6-0.2,14.7-0.7,25.6c-0.5,11.5-1,15.7,0.3,22.5c1.5,8,3.8,11.3,5.5,16.6c4.2,12.9,0.2,24.8-2.4,36c-1.7,7-3.8,13-5.8,17.9
		"/>
	<path fill="none" stroke="#000000" stroke-width="6" stroke-linecap="round" stroke-linejoin="round" stroke-miterlimit="10" d="
		M413.3,505.7c3.7,3.6,5.9,7,7.2,9.3c2.4,4.3,3.1,7.6,6.8,11.7c2.4,2.7,3.8,3.6,4.3,3.9c4.1,2.2,8.5,1.3,10.4,0.7"/>
	<path fill="none" stroke="#000000" stroke-width="4" stroke-linecap="round" stroke-linejoin="round" stroke-miterlimit="10" d="
		M481.9,268.2c12.4,3.5,26.2,3.8,38.6-0.1"/>
	<path fill="none" stroke="#000000" stroke-width="6" stroke-linecap="round" stroke-linejoin="round" stroke-miterlimit="10" d="
		M434.6,217.6c10.6,10.6,21.2,21.3,31.8,31.9"/>
	<path fill="none" stroke="#000000" stroke-width="6" stroke-linecap="round" stroke-linejoin="round" stroke-miterlimit="10" d="
		M530.5,198.6c-0.9,1.3-4.1,6.1-2.7,11.4c0.3,1.2,1.5,4.6,8.9,8.9c6,3.5,10.4,4.3,17.9,6.4c9.9,2.7,15.2,4.2,21.7,7.2
		c8.3,3.9,10.4,6.5,19.6,9.8c6.3,2.3,7.9,2,10.2,3c13.1,5.7,12.6,35.6,12.4,59.8c-0.1,15.7-0.2,40.2,0.2,71.7"/>
	<path fill="none" stroke="#000000" stroke-width="6" stroke-linecap="round" stroke-linejoin="round" stroke-miterlimit="10" d="
		M572.1,560.4c-27.4,3.8-54.9,7.7-82.3,11.5"/>
	<path fill="none" stroke="#000000" stroke-width="6" stroke-linecap="round" stroke-linejoin="round" stroke-miterlimit="10" d="
		M595.9,313.6c-2.3,40.7-2.2,86.9,2.2,137.4c2.8,31.5,7,60.8,11.9,87.7"/>
	<path fill="none" stroke="#000000" stroke-width="6" stroke-linecap="round" stroke-linejoin="round" stroke-miterlimit="10" d="
		M406,595.8c-0.8-8.2-1.1-21.5,3.8-36.6c2.9-8.9,6.8-16.1,10.2-21.3"/>
	<path fill="none" stroke="#000000" stroke-width="6" stroke-linecap="round" stroke-linejoin="round" stroke-miterlimit="10" d="
		M406,595.8c-0.8,2-2,4.9-3,8.5c-3.5,12.6-2.2,22.7-1.7,28.1c0.6,6.9-0.3,3.9-3.8,43.4c-0.8,9.1-1.9,22.1-3,37.9
		c-2.4,6.4-5.8,16.1-8.9,28.1c-1.7,6.5-3.9,15.8-9.4,50.3c-1.2,7.8-2.9,18.2-4.7,30.7c3.8,3.3,10.5,8.3,20,11.5
		c4.5,1.5,11.7,3.9,20.9,3c10.2-1,17.3-5.4,26-10.6c5.2-3.2,4.2-3.1,13.6-9.8c15.6-11,19.1-11.5,25.6-17.9
		c3.1-3.1,7.5-8.1,11.5-15.8c1.5-11.9,0.7-21.3-0.4-27.7c-1.3-7.9-3.4-13.7-1.7-22.1c0.7-3.5,2.2-6.6,5.1-12.8
		c3.6-7.6,9.6-20.4,12.4-19.6c1.1,0.3,0.6,2.7,1.7,9.8c0.4,2.5,1.5,9.5,4.3,17c2.2,6.1,3.4,6.7,3.8,10.6c0.3,3.5-0.4,5.6-1.3,10.2
		c-0.7,3.6-1.6,8.8-2.1,15.3c5,8.6,10.6,14.2,14.5,17.5c5,4.2,8.1,5.5,9.4,6c6.8,2.5,13,1.3,15.8,0.9c3.7-0.6,17.2-0.6,44.3-0.4
		c14.4,0.1,24.1,0.7,31.9-5.5c2.4-1.9,4-3.9,4.3-4.3c3.2-4.1,5.6-9.7,6-21.7c0.3-8.1-0.5-14.5-1.7-22.1c-2.5-16.2-3.6-18.2-5.1-28.1
		c-1.6-10.6-1.9-20-2.6-38.8c-0.3-8.5-0.3-15.8-1.3-27.7c-0.5-5.8-0.7-8.7-1.2-12.6c-1.8-14.5-7.3-35-7.3-35
		c-3.1-11-6.2-27.9-5.9-53.2"/>
	<path fill="none" stroke="#000000" stroke-width="6" stroke-linecap="round" stroke-linejoin="round" stroke-miterlimit="10" d="
		M546.5,620.9c-3.6,5.9-9.2,15.2-15.2,27.2c-4.3,8.5-5.8,12.5-9.8,20.5c-3.6,7.2-9.1,17.7-17,30.2"/>
	<path fill="none" stroke="#000000" stroke-width="6" stroke-linecap="round" stroke-linejoin="round" stroke-miterlimit="10" d="
		M415.1,836.9c-1.4,2.5-3.1,5.8-4.9,9.7c-3.5,7.8-5.7,14.4-6.8,18.3c-2,6.9-3.1,10.4-3.4,15.3c-0.1,1.8,0,1.1,0,11.9
		c0,7.3-0.1,8,0,11.5c0.2,8.2,0.7,8,0.4,10.6c-0.4,4.4-1.7,5.6-6.4,15.3c-4.2,8.8-6.3,13.2-7.7,18.7c-1.7,7-0.6,7.9-2.6,11.5
		c-2.7,4.9-6.8,7.1-13.2,10.6c-6.5,3.5-10.9,6-14.9,4.3c-2.9-1.3-2.7-3.6-6-4.7c-3.7-1.2-5.4,1.2-10.2,0.9c-0.6,0-5.8-0.5-9.4-4.3
		c-4.6-4.9-3.4-12.3-3-14.9c0.9-5.4,3.4-9.1,6.4-13.2c4.1-5.8,6.3-6.4,12.4-13.2c4.5-5.1,7.3-9.3,9.4-12.4c3.7-5.5,8-12,11.1-20.4
		c3.1-8.5,3.5-15.2,4.3-28.1c0.6-9.7,0-12.3,0.9-22.6c0.6-7.3,1.5-13.3,2.3-17.3"/>
	<path fill="none" stroke="#000000" stroke-width="4" stroke-linecap="round" stroke-linejoin="round" stroke-miterlimit="10" d="
		M368.1,887.1c2.5,4.4,5.7,6.4,7.3,7.2c6.1,3.3,12.3,2,15.8,1.3c4-0.8,7.1-2.3,8.9-3.4"/>
	<path fill="none" stroke="#000000" stroke-width="6" stroke-linecap="round" stroke-linejoin="round" stroke-miterlimit="10" d="
		M605.7,787.9c-1.5,9.6-1.6,17.8-1.2,23.8c0.1,2.2,0.6,9.8,3,19.2c2.1,8.1,3.7,10.3,4.3,11.1c1.9,2.5,3.7,3.4,13.6,8.5
		c12.1,6.3,11.9,6.2,13.2,6.8c8.1,3.9,12.2,5.9,16.2,7.2c7.5,2.5,11.4,2.7,18.7,6.4c2,1,4.3,2.3,6.4,4.7c1.5,1.7,4.6,5.2,4.3,9.8
		s-4,8.2-7.2,9.8c-3.8,1.9-5.3,0.2-14.9,0.4c-7.7,0.2-8.4,1.3-14.9,0.9c-2.5-0.2-5.9-0.4-10.2-1.7c-1.8-0.6-2.5-0.9-9.8-4.3
		c-8.6-4-9.5-4.3-10.6-4.7c-4-1.3-7.1-1.7-11.5-2.1c-11.7-1.2-12.3,0.6-18.3-0.9c-3-0.7-10.2-2.5-14.5-8.9c-4-6.1-3.2-13.1-3-15.3
		c0.4-3.8,1.3-4.1,3.4-12.4c0.6-2.6,1.7-6.8,2.1-10.2c0.9-7.2-0.8-11.9-2.6-19.2c-4-16.6-3.9-29.1-4.3-29.1c-0.2,0-0.2,1.8,0.4,10.3
		"/>
	<path fill="none" stroke="#000000" stroke-width="6" stroke-linecap="round" stroke-linejoin="round" stroke-miterlimit="10" d="
		M392,446.7c-3.6,3.5-8.2,7.4-13.6,11.1c-8.8,5.9-17.2,9.6-23.9,11.9"/>
	<path fill="none" stroke="#000000" stroke-width="6" stroke-linecap="round" stroke-linejoin="round" stroke-miterlimit="10" d="
		M611.2,518.5c5.1-0.7,10.2-1.5,15.3-2.2"/>
	<path fill="none" stroke="#000000" stroke-width="6" stroke-linecap="round" stroke-linejoin="round" stroke-miterlimit="10" d="
		M399.3,223.6c0.4,3.1,1.2,7.4,2.9,12.3c2.2,6.4,4.8,10.6,8.5,16.6c6.5,10.4,9.7,15.6,14.1,17.5c5.1,2.2,10.6,1.5,16.2,0.9
		c8.1-1,11.3-3.4,15.3-1.3c2.8,1.5,2,3.2,6,7.2c4.9,5,8.1,4.6,11.9,8.5c1.9,1.9,4,5,5.5,11.9c4.9,21.7,1.3,50.7,1.3,50.7
		c-0.9,7,0.7-3.4-0.9,55.4c-1.4,53.5-2.3,46.7-2.1,63c0.4,33.3,4.2,59.9,7.2,81.3c2.7,19,5.7,34.8,8.1,46.4
		c-7.1,3.9-17.5,8.6-30.7,10.6c-26.6,4.2-47.9-4.7-56.6-8.9"/>
	<path fill="none" stroke="#000000" stroke-width="6" stroke-linecap="round" stroke-linejoin="round" stroke-miterlimit="10" d="
		M529.4,332c1.9,5.9,4.4,14.5,7,25.1c0,0,4.2,12.6,5.5,27.5c3.4,37.5,5.1,75,13.6,112.4c0,3.4,0,5.1,0,8.5
		c5.1,27.3,13.6,51.1,25.6,75c11.9,0,22.1-8.5,32.2-11.4"/>
	<path fill="none" stroke="#000000" stroke-width="6" stroke-linecap="round" stroke-linejoin="round" stroke-miterlimit="10" d="
		M586.6,240.2c-12.4,11.5-15.8,28.5-20.9,43.9c-1.7,1.7-3.4,5.1-6.8,5.1c-10.3-15.8-15.3-18.8-17.9-17.9c-2.8,1-2.5,6.3-6.2,16.2
		c-2.4,6.2-5.2,11.1-7.4,14.5"/>
	<path fill="none" stroke="#000000" stroke-width="6" stroke-linecap="round" stroke-linejoin="round" stroke-miterlimit="10" d="
		M466.3,249.4c2.8,4.4,6.3,10.1,10.4,16.7c7.1,11.5,8.2,13.5,9.4,16.6c3.6,9.6,3.2,17.9,3,22.6c-0.6,11.5-4.1,20.4-6.9,25.9"/>
	<path fill="none" stroke="#000000" stroke-width="6" stroke-linecap="round" stroke-linejoin="round" stroke-miterlimit="10" d="
		M554.7,225.3c-4.2,4.3-7.6,7.8-9.9,10.2c-2.1,2.1-4.6,4.8-9.8,10.1c-2.2,2.2-3.2,3.2-4.1,4c-5.6,5.2-6.1,4.8-7.2,6.4
		c-2.2,3.2-1,6.1,0.1,17.9c0.5,5.8-0.2-0.2,0.7,10.6c1.5,16.6,4.7,44.9,5.1,49"/>
</g>
<g id="vs-reveal">
	
		<path fill="none" stroke="#2E2B2C" stroke-width="59" stroke-linecap="round" stroke-linejoin="round" stroke-miterlimit="10" stroke-opacity="0" d="
		M514.6,29.1c-20.9,0-41.9-0.1-62.8-0.1c-6.3,0-12.9,0.1-18.3,3.2c-5.4,3.2-8.9,10.5-5.7,15.9c36.4-1,72.8-1.8,109.2-2.4
		c3.5-0.1,7.3,0,10.3,1.7c3,1.8,5,6,3,9c-0.8,1.3-2.2,2.1-3.5,2.7c-12.5,6.1-27.2,2-40.7-1.2c-28.8-6.9-58.6-9.4-88.1-7.3
		c-3.7,0.3-8.1,1-9.7,4.4c-2.7,5.9,5.7,10.4,12.1,11.4c35.8,5.7,72,8.5,108.3,8.5c6.6,0,13.4-0.1,19.4,2.7s10.8,9.3,9.3,15.7
		c-2.1,9.2-14,11.5-23.4,10.8c-43.3-3.3-84.1-30.8-127.1-24.6c-2.5,0.4-5.4,1.2-6.2,3.6c-0.5,1.5,0.1,3.1,0.9,4.5
		c3.7,6.7,11.5,10,18.7,12.5c45.9,15.9,95.3,22,143.7,17.5c1.5-0.1,3-0.2,4.3,0.6c3.3,2.1,0.5,7.3-2.6,9.6
		c-19,14.1-45.4,11.6-68.3,5.5c-22.8-6.1-45.8-15.3-69.3-12.5c-1.6,0.2-3.4,0.5-4.6,1.7c-1.1,1.1-1.4,2.7-1.4,4.3
		c-0.4,13.3,14.3,21.7,27.3,24.8c42.2,9.9,86.1-4.2,129.4-5c-10.4,19.1-34.6,26.7-56.4,25.8c-21.8-0.9-42.7-8.4-64.3-11.3
		c-2.7-0.4-5.7-0.6-7.7,1.3c-1.4,1.3-1.9,3.2-1.8,5.1c0.1,10.2,12.1,15.5,22.1,17.3c21.9,4.1,44.6,4,66.5-0.1
		c1.4,7.2-6.4,12.6-13.2,15.3c-20.8,8.3-43.6,11.5-65.8,9c-0.9,8.8,7.8,16.1,16.5,17.7c8.7,1.6,17.7-0.6,26.5-1.3
		c8.9-0.7,18.8,0.8,24.4,7.7c1.1,1.4,0.8,2.2,1.4,3.4c5.9,12.1,55.5,2.3,55.3-0.7c-0.1-0.8-38,0.2-113.7,2
		c-41.4,1-75.3,2.2-97.8,3.1c3.1,9.9,15.8,12.2,26.1,12.8c70.5,3.8,140.9,7.7,211.4,11.5c-17,19.5-46.6,19.7-72.4,18.5
		c-45.5-2.2-91-4.4-136.4-6.7c-18.9-0.9-39.1-1.6-55.4,8.1c-1.1,0.6-2.2,1.4-2.7,2.5c-1.7,3.7,3.7,6.5,7.8,7.1
		c71.1,9,143,2,214.6-0.5c15.3-0.5,31.5-0.6,44.5,7.3c3.2,7.6-5.9,14.4-13.6,17C543.2,336,487,318,432.6,319.1
		c-4.1,5.2-8.2,10.4-12.3,15.6c-1.4,1.8-3,4.1-2.2,6.3c0.7,2.3,3.4,3.1,5.7,3.7c48.9,11.6,99.9,7,150,2.9c8-0.6,16.3-1.2,23.6,2
		s13.1,11.4,10.7,19c-56,20.4-120.1-14.7-177,2.9c-5.8,1.8-12.7,7.2-9.7,12.5c1.4,2.4,4.3,3.4,7,4.1c59.1,15.5,121.6-2.2,182.7,0.8
		c4.3,0.2,9.7,1.5,10.3,5.7c0.3,1.9-0.6,3.8-1.6,5.4c-4.8,7.3-13.2,11.3-21.6,13.8c-60.5,18.2-128.1-23-187.6-1.6
		c-1.7,0.6-3.4,1.3-4.3,2.8c-2.6,4.1,2.9,8.5,7.5,10.1c52.5,18.7,110.1,13.5,165.4,6.8c9.6-1.2,22.1-0.8,25.5,8.3
		c2.4,6.2-1.6,13.4-7.2,16.8c-5.7,3.4-12.6,3.9-19.2,4.1c-46.7,0.8-93.3-14-139.6-7.9c-5.1,0.7-11.5,3.2-11.1,8.3
		c0.3,4.8,6.3,6.6,11.1,7.2c45.9,5.5,92.5,4.8,138.2-2.2c6-0.9,12.1-1.9,18-0.5s11.5,5.8,12.2,11.8c1.2,9.9-10.5,16.2-20.4,17.3
		c-9.9,1.1-21.2,0.5-28.2,7.6"/>
	
		<path fill="none" stroke="#2E2B2C" stroke-width="59" stroke-linecap="round" stroke-linejoin="round" stroke-miterlimit="10" stroke-opacity="0" d="
		M322.6,322.1c16.3-1.5,32.9-0.4,48.8,3.3c2.4,3.6-2.9,7.4-7.2,8.4c-11.8,2.8-23.9,4.6-36,5.3c-4.7,0.3-9.7,0.5-13.9,2.6
		s-7.7,6.8-6.6,11.4c18.7,0.4,37.5,0.8,56.2,1.2c-4.4,10.3-17.7,12.6-28.9,13.7c-11.2,1.1-24.6,4.3-27.8,15.1
		c18.4,0.2,36.9,0.4,55.3,0.5c-8.8,15.8-39.2,8.5-45.4,25.5c16.4-1.7,33.1-0.5,49.1,3.6c-15.3,6.8-29.9,15.3-43.4,25.2
		c18.6,2.6,37.3,5.1,55.9,7.7c-11.9,14.9-39.5,14.3-45.1,32.4c15.9,1.6,32,2.1,48,1.7c-5.8,6.7-12.3,12.8-19.4,18.1
		c15.6-1.6,31.5-1.1,47,1.4c-8.8,4.9-17.5,9.7-26.3,14.6c5.4,2.6,11.8,0.8,17.8,0.4c6-0.4,13.4,1.8,14.5,7.7
		c-6.2,2.6-12.5,5.2-18.7,7.8"/>
	
		<path fill="none" stroke="#2E2B2C" stroke-width="59" stroke-linecap="round" stroke-linejoin="round" stroke-miterlimit="10" stroke-opacity="0" d="
		M535.1,513.3c-20.9-11-44.8-16-68.4-14.4c-8.7,0.6-18.5,3-22.4,10.7c-0.8,1.5-1.3,3.3-0.9,5c1,4.2,6.4,5.2,10.7,5.4
		c59.6,2.9,119.2,5.7,178.8,8.6c0.3,5.3-3.8,10-8.6,12.1s-10.3,2.2-15.5,2.1c-49.6-1.1-99.9-14.4-148.3-3.3
		c-7.2,1.6-15.2,4.6-17.8,11.5c62.1,7.5,127.6-13.1,186.6,7.7c-34.9,18.1-76.9,8.4-116.1,4.4c-30.7-3.1-61.7-2.4-92.2,2.1
		c-9.5,1.4-19.8,3.7-25.7,11.3c-1,1.3-1.9,2.8-1.6,4.4c0.4,2.6,3.4,3.9,6,4.5c15,3.7,30.6,4.1,46,4.2c50.5,0.6,101.1-0.4,151.6-2.9
		c13.3-0.7,29.4,0.1,35.7,11.8c-65.3,25.7-139,4.7-208.9,10.8c-18.6,1.6-39.2,6.6-49.1,22.4c9.8,5.3,21.3,6,32.4,6.4
		c34.6,1.3,69.3,0.3,103.8-3c39-3.7,79.4-10.2,116.6,2.1c-10.6,10.6-26.2,14.3-41.2,15.9c-35.4,3.8-71.1-1.8-106.7-1.7
		c-16,0.1-31.9,1.3-47.8,2.5c-11.7,0.9-26.2,4.1-28.6,15.6c71.1,5.1,142.5-1.5,213.8-0.8c5.8,0.1,12,0.3,16.7,3.7
		c-35.1,21.6-79.8,13.8-120.9,16.5c-7.5,0.5-16.8,2.9-18.3,10.3c42.6,1.7,85.4,1.2,128-1.3c1.1,5.1-5.3,8.2-10.3,9.4
		c-31.4,7.1-63.8,9.8-96,8.1c-0.6,6,4.1,11.5,9.7,13.7c5.6,2.2,11.8,2,17.9,1.6c16.6-0.9,33.3-1.8,49.9-2.6
		c11.9-0.6,27.4,1.3,30.2,12.9c-30.4,3.3-60.8,6.6-91.2,10c-7.5,0.8-17.2,3.7-17.4,11.3c39.1,5.8,79.9-11.2,117.8-0.2
		c-21.9,21.6-62.9,5.2-87.3,24c20.2,13.5,49.7,0.7,70.8,12.7c-20.2,6.2-40.4,12.3-60.5,18.5c22,2.6,43.9,5.3,65.9,7.9
		c-24.6,9.4-49.2,18.8-73.8,28.2c26.4,2.5,52.8,5,79.2,7.5c-19.1,6.5-38.1,13-57.2,19.6c26.9-2,53.9-1.8,80.7,0.7
		c3.7,0.4,8.5,1.9,8.5,5.6c0,3.2-3.6,4.9-6.7,5.8c-9.3,2.8-18.9,4.8-28.5,6c25.5-0.8,51.1-0.4,76.6,1.2"/>
	
		<path fill="none" stroke="#2E2B2C" stroke-width="59" stroke-linecap="round" stroke-linejoin="round" stroke-miterlimit="10" stroke-opacity="0" d="
		M403.3,705.1c20.7,0.8,41.3,5,60.6,12.5c3,1.2,6.3,2.8,7.2,5.8c1.9,6.5-7.7,9.8-14.4,9.2c-13.3-1.3-26.4-4.9-39.8-5.2
		c-13.4-0.4-27.9,3.2-36.3,13.6c27,0.2,54,0.8,81.1,1.7c9.1,0.3,20,1.9,23.6,10.2c-42.2,20.4-93.3,6.9-138.1,20.4
		c42.4,9.7,90.6-6,128.1,16c-34.3,11.9-71,15-107.2,18c27.2,1.9,54.4,3.8,81.5,5.6c-29.2,8-58.3,16-87.5,24.1
		c16.4,3,32.8,6.1,49.2,9.1c-19.1,7.5-38.4,15-55.9,25.8c18.6,4.3,37.3,8.7,55.9,13c-16.6,5.2-33.2,10.5-49.7,15.7
		c-3.1,1-6.9,3.2-5.9,6.3c15.6,3.6,31.1,7.1,46.7,10.7c-28.4,2.8-56.5,8.2-84,16c17.5,1.5,35.1,3,52.6,4.4
		c-6.6,7.7-15.2,13.5-24.8,16.8c15.4,0.8,30.8,1.7,46.1,2.5c-22.1-0.9-44.3,0.3-66.1,3.6"/>
</g>
</svg>
