<?xml version="1.0" encoding="utf-8"?>
<!-- Generator: Adobe Illustrator 22.1.0, SVG Export Plug-In . SVG Version: 6.00 Build 0)  -->
<svg version="1.1" id="Layer_1" xmlns="http://www.w3.org/2000/svg" xmlns:xlink="http://www.w3.org/1999/xlink" x="0px" y="0px"
	 width="1000px" height="1000px" viewBox="0 0 1000 1000" enable-background="new 0 0 1000 1000" xml:space="preserve">
<g id="vs-skin">
	<path fill="#C88750" d="M399,75c6.7-4.2,12.9-5.2,19-6c4.3-0.6,5.7-0.4,28,1c13.7,0.9,18.1,1.1,24,4c5.4,2.6,8.8,5.9,10,7
		c5.2,5.1,7.3,10.3,10,17c3.6,9,6.5,16.3,7,26c0.2,4.7-0.1,9.8,3,15c0.6,1.1,2.2,3.5,4,6c3.7,5.2,5,6.1,5,8c-0.1,2.8-2.9,4.8-6,7
		c-5.8,4.1-8.9,3.4-12,7c-1.7,2-1.2,2.7-3,7c-3.3,7.8-6,8.1-10,16c-2.5,4.8-4.2,8.3-4,13c0.3,5.7,3.2,9.9,5,12
		c-3.4,7.9-7.2,10.2-10,11c-5.7,1.6-9.9-2.8-15,0c-3.9,2.1-4.7,6.4-7,6c-1.7-0.3-1.5-2.7-4-5c-2.3-2.1-4.7-2-10-3
		c-0.6-0.1-6.5-1.3-11-3c-3.3-1.3-9.4-3.6-13-9c-4.4-6.4-1-11-6-16c-2.2-2.2-3.2-1.7-7-5c0,0-4-3.4-7-8c-4.3-6.5-4.1-13.2-5-22
		c-1.9-18-5.6-16.3-6-30c-0.2-8,0.9-13.8,3-25c2.5-12.8,4.7-16.8,6-19C391.1,80.5,396.3,76.7,399,75z"/>
	<path fill="#C88750" d="M344,225c6.2,2.2,9.6,8.3,10,9c1.9,3.4,1.9,5.9,2,19c0.2,16.3,0.2,16.6,0,18c-0.8,7.5-2.6,12.7-5,20
		c-3.8,11.3-5.8,17.3-10,18c-2.2,0.4-2.6-1.1-8-2c-1.6-0.3-6.1-1-10,0c-5.1,1.3-7.9,5.4-10,8c-5.6,7.2-12.4,12.1-26,22
		c-11.5,8.4-17.4,10.1-17,14c0.3,3.7,5.7,3.6,13,11c4,4.1,3,4.8,10,14c2.6,3.5,5.6,7.4,10,12c6.8,7.2,7.3,5.7,13,12
		c4.2,4.6,5.6,7.2,8,7c2.5-0.3,2.4-3.2,7-7c2.3-1.9,4.6-2.9,9-5c4.3-2,4.4-1.6,7-3c3.6-2,3.7-3,8-6c3.8-2.7,5.9-4.1,9-5
		c2.8-0.8,3.2-0.2,10-1c4.5-0.5,4.1-0.7,7-1c6.2-0.6,11.4-1,14,2c1.5,1.7,2.1,4.5,1,6c-1.1,1.4-3.3,1-8,1c0,0-5.5,0-11,1
		c-5.8,1-12.2,3.6-12,5c0.2,1.5,7.4-0.5,17,3c6.2,2.2,5.3,3.8,12,6c4.7,1.5,8.9,2,10,5c0.1,0.2,0.5,1.6,0,3c-0.9,2.3-3.7,2.9-4,3
		c-2.8,0.6-4.9-1.3-8-3c-6.5-3.5-13.6-3.9-14-3c-0.4,1.1,8.1,5.9,10,7c5.1,2.9,7.7,3.8,8,6c0.3,1.9-1.1,4.2-3,5
		c-3.7,1.5-7.6-3.6-10-2c-1.2,0.8-0.5,2.1-2,6c-1,2.5-1.6,4.2-3,5c-2.6,1.5-5.8-1.1-11-3c-5.1-1.9-9.2-1.9-16-2
		c-7.6-0.1-11.9-0.2-17,2c-6.1,2.6-6.7,5.6-13,7c-5.2,1.2-9.2,0.2-10,0c-5.1-1.3-8.2-4.4-10-6c-6.3-5.7-7.2-3.9-21-13
		c-7.7-5-13.9-10.1-26-20c-14.5-11.8-21.7-17.7-24-21c-4.4-6.1-10.7-18.4-9-40c5-7.1,12.1-17.1,21-29c14.8-19.8,22.2-29.7,32-40
		c12-12.6,21.3-19.4,40-33C327.4,227.3,336,222.2,344,225z"/>
	<path fill="#C88750" d="M531,240c2.3-1.9,9.6,1.9,14,7c2.7,3.1,3.8,6.1,6,13c3.4,10.7,5.1,16,6,20c3.2,14.6,3.9,27,5,46
		c0.6,10.6,0.6,15.8,2,25c0.8,5.1,1.7,11.2,4,19c0.8,2.9,1.2,3.8,5,15c2.2,6.6,3.9,11.6,4,12c2.3,6.9,4,17.3,4,41
		c0,8.7-0.3,29.8-1,49c-0.1,2.9-0.3,9.1,1,17c0.7,4.1,1.3,5.5,4,15c3.9,13.5,5.8,20.3,6,24c0.1,1.7-0.3,7.1-1,18
		c-0.4,6.2-0.6,8.4-1,11c-0.9,6.1-2.1,10.9-3,14c-2.5,8.6-3.7,12.8-6,15c-8.2,7.8-25.9,2.3-26,0c0-0.9,2.8-1.1,11-5
		c7.2-3.4,8.4-4.9,9-6c1.2-2.1,1.3-4.5,0-11c-1.3-6.8-3.7-19.2-6-19c-1.6,0.1-2.8,6.5-3,11c-0.2,5.1,0.9,7.7-1,10
		c-1.2,1.4-3.2,2.2-5,2c-2.7-0.3-4.3-2.9-5-4c-3.3-5.4-1.7-11.8-1-18c1-8-0.8-4.7-1-25c-0.1-14.9,0.8-15.9,0-25c-0.8-9.6-1.9-9-3-19
		c-1.6-15,0.7-17-1-29c-0.6-4.3-2.4-10.2-6-22c-4.8-15.8-6.3-18.1-8-27c-1.4-7.6-2.3-12.3-2-19c0.5-11.7,4.2-16.8,1-25
		c-1.1-2.8-2.3-4.2-3-8c-0.8-4.6,0.3-6.8,0-12c-0.2-4.5-1.2-6.2-2-10c-1.5-7.3-0.3-13.2,2-24c2.1-10,3.2-9.7,5-19
		c1.2-6.1,2.2-11.3,2-18c-0.2-10-3-21-5-29C530.5,244.1,529.6,241.2,531,240z"/>
	<path fill="#C88750" d="M507,924c9.7,5,19.3,10,29,15c-5.7,4.7-11.3,9.3-17,14c-2.3-1.7-5.5-3.5-9-3c-3,0.4-3.9,2.3-8,5
		c-4.1,2.8-7.6,3.9-14,6c-5.8,1.9-8.6,2.8-12,3c-12.4,0.7-25-8.8-24-13c0.3-1.2,3.2-2.1,9-4c9.7-3.1,12.6-3,15-6
		c2.2-2.8,0.7-4.2,3-7c2.8-3.4,6.7-3.5,13-5C495.7,928.1,500.9,926.6,507,924z"/>
</g>
<g id="vs-hair">
	<path d="M421,13c-6.3,1.7-13.8,3.7-21,10c-4.9,4.3-9.3,11.5-18,26c-3.2,5.4-3.4,6.1-6,10c-3.3,5.1-4.8,6.6-6,10
		c-1.4,4.2-0.5,5.9-1,10c-0.5,4.3-1.9,5.8-9,18c-8.5,14.5-8.8,16.4-9,18c-0.5,5.8,1.6,7.9,0,14c-0.8,3-2.2,5.3-5,10
		c-5.3,8.8-7,8.8-8,13c-1.3,5.6,1.6,6.5,0,12c-1,3.2-3,5.8-7,11c-3.7,4.8-3.8,4-5,6c-4.2,7,0,11.3-3,18c-3.1,6.9-8.6,4.7-12,12
		c-1.4,3.1-1.3,7.7-1,17c0.3,8.4,1.1,9.5,2,10c2.5,1.2,6.1-2.7,11-6c2.3-1.6,4.5-2.7,23-8c12.1-3.4,27.9-7.8,39-13c0,0,3.4-1.6,8-5
		c4.7-3.4,8.3-6.1,8-9c-0.2-2.2-2.4-2.8-6-6c0,0-4.4-3.9-8-10c-4-6.8-4.6-13.5-5-18c-0.6-7.2,0.8-7.6,0-15c-0.7-6.6-2-7.8-3-14
		c-1-5.9-0.6-10.3,0-19c1-12.9,1.4-19.3,5-24c1.8-2.3,1.5-1,10-9c6.5-6.1,7-7.2,10-9c2.1-1.2,4.1-2,14-4c10.4-2.1,15.6-3.1,18-3
		c7.7,0.3,7,2.7,20,5c6.9,1.2,9.3,0.9,14,3c4.8,2.1,7.8,4.9,10,7c3,2.8,10.7,10.2,14,22c2,7.2,2.9,17.9,3,24c0,1.3,0,3.9,1,7
		c1.3,4.1,3,5.2,5,9c1.6,3,4.1,7.8,3,12c-1.9,6.9-13.2,8.9-14,9c-1.6,6.8-4,11.7-6,15c-3.8,6.5-6.4,7.6-9,14c-1.2,3-4.3,10.7-1,15
		c1.5,2,2.8,1.3,6,4c3.3,2.9,3.7,5.2,6,8c1.6,2,3.3,3.2,11,7c15.7,7.8,21.9,9.3,25,10c9.2,2,10.6,0.5,11,0c1.4-1.9-1.4-4.5-3-10
		c-2.1-7.2-0.6-13.8,2-25c1-4.4,1.6-5.7,3-12c1.2-5.4,1.8-8.2,2-11c0.8-9.8-2.3-10.9-1-18c1.2-6.6,4.3-7.5,4-13
		c-0.2-3.7-1.6-4.8-4-10c-3.1-6.8-4.2-12.6-6-23c-1.7-9.3-1-10.5-3-14c-2.8-4.8-5.6-5.3-9-10c-2.9-4.1-3.1-7.1-5-15
		c-2-8.5-5-20.8-11-32c-1.8-3.3-4.1-7.5-8-12c-12-13.5-28.4-16.9-39-19C448.6,11.3,436.1,8.9,421,13z"/>
</g>
<g id="vs-colour">
	<path fill="#FFFFFF" d="M393,130L393,130c1.9-1.4,5.3-3.4,10-4c1.8-0.2,6.6-0.8,11,2c1.4,0.9,4,2.6,4,5c0,2.6-3,4.4-4,5
		c-4.6,2.8-9.9,1.3-11,1C396.4,137,393.5,131.1,393,130"/>
	<path fill="#FFFFFF" d="M448,130c0.6-2,2.5-2.9,5-4c1.9-0.9,4.5-2.1,8-2c6,0.2,12.3,4.1,12,7c-0.1,1.1-1.2,1.8-3,3
		c-2.6,1.7-5.3,2.6-8,3c-5.1,0.8-9.3,1.6-12-1C448.5,134.6,447.3,132.1,448,130z"/>
	<path fill="#3ACE95" d="M446,952c4.5,1.2,3.8,3.2,12,7c2.9,1.4,6.9,3.2,12,4c8,1.2,14.6-0.9,18-2c10.5-3.5,11.4-8,19-8
		c3.2,0,5,0.8,9,0c0.8-0.2,4.5-1,9-4c7-4.7,6.6-8.6,11-10c2.9-0.9,3.7,0.6,12,3c9,2.6,13.2,2.4,21,6c1.9,0.9,4.5,2.2,6,5
		c0.3,0.5,1.5,3,1,6c-0.9,5.6-7,8.5-8,9c-4.6,2.3-7.5,1-10,4c-0.9,1.1-0.6,1.4-2,4c-1.9,3.6-4.1,6.1-5,7c-3.8,3.8-9.6,3.9-13,4
		c-0.9,0-12,1.7-34,5c-14.3,2.2-16.4,3.4-24,3c-6.6-0.3-8.1-1.4-17-3c-9.9-1.8-18.3-2.2-35-3c-17.5-0.8-23.1-0.4-27-5
		c-2.4-2.9-3.1-6.5-3-13c0.1-8.6,1.3-22.2,8-39c1.5,3.7,4.4,9.5,10,15c3.5,3.4,6,5.9,10,7C434.3,956.3,437.7,949.9,446,952z"/>
</g>
<g id="vs-secondary">
	<path fill="#FFCE00" d="M346,430c9.2-3,16.8,8.8,32,5c3.1-0.8,6.5-2.2,12-2c5.4,0.2,7.4,1.7,14,3c4.6,0.9,8.1,0.9,15,1
		c7.7,0.1,11.4-0.4,21-1c10.8-0.7,16.4-1,23-1c15.7,0.1,15.3,2.3,27,2c7.3-0.2,17.4-0.5,29-5c10.9-4.3,15.7-9.4,20-7
		c1.7,0.9,2.9,2.7,5,13c2.6,12.6,3,20,3,20c0.6,10,1.8,20,2,30c0.9,41.5,7.3,57.1,6,100c-0.5,15.1-1.2,12.8-2,33
		c-1.2,31,0.5,39.6-3,55c-1.9,8.4-5.9,20.7-15,35c1.3,7.3,2.7,14.7,4,22c-6,0.7-9.2,2.9-11,5c-4,4.4-2.8,9.4-5,21
		c-0.4,2-1.6,6.3-4,15c-4.7,17-5.9,18.8-7,26c-0.5,3.6-0.7,7.7-1,16c-0.3,9-0.6,16.4,0,26c0.7,11.5,1.9,12.2,1,18
		c-1.1,7.6-4.3,14.6-5,16c-3.3,7-5.7,8.8-6,14c-0.2,3.4,0.7,6,2,10c2.8,8.2,5.6,9.3,6,15c0.1,2,0.4,6-2,9c-2.8,3.5-7,2.9-15,5
		c-3.2,0.8-7.7,2.3-13,5c-0.3,1.9-1,4.7-3,7c-2.8,3.2-6.3,3.7-12,5c-12.6,2.8-9.7,3.3-23,6c-8.1,1.6-12.1,2.4-14,2
		c-6.1-1.3-10.4-6.9-19-18c-5.4-6.9-8-10.5-9-15c-1.2-5.5-0.4-11.7,0-15c0.8-6.5,2-8.3,1-12c-1-3.5-2.7-4.2-6-9
		c-2.7-3.9-2.2-4.4-7-14c-0.9-1.8-4-8.1-8-15c-5.7-10-5.9-8.6-8-13c-1-2-3.4-7.7-5-24c-0.6-6.3-0.5-8.1-1-19c-1.2-26-2.2-25.8-2-38
		c0.2-11.5,1.1-12.8,0-19c-1.6-8.8-4.7-12.5-8-21c-3-7.7-4-14.1-6-27c-3.4-22.3-1-26.1-4-52c-0.9-7.9-1.9-14.3-4-27
		c-3.8-23.8-4.6-23.3-6-35c-2.1-17.8-0.4-19.7-3-37c-1.9-12.4-2.9-12.9-4-22c-0.8-6.8-1.4-17.1,1-36
		C333.3,451.9,335.7,433.3,346,430z"/>
</g>
<g id="vs-primary">
	<path fill="#A862F4" d="M344,225c1-4.7,9.5-6.7,19-9c15.3-3.7,20.2-0.7,27-6c5.5-4.2,6.5-9.4,10-9c3.3,0.3,3.7,5.1,9,11
		c0.6,0.7,5.5,6,13,9c10.2,4.1,17.5,0.8,21,6c1.5,2.2,1.4,4.7,3,5c1.9,0.4,3-2.6,6-5c5.7-4.5,10.3-0.3,17-4c6.1-3.4,6.4-9.3,10-9
		c2.3,0.2,2.7,2.6,7,7c0,0,4.1,4.2,9,7c5.3,3,7.6,1.9,16,4c9,2.2,14.3,3.5,18,8c2.3,2.7,3.2,7.5,5,17c1.2,6.3,1.8,9.5,2,13
		c0.5,10.1-1.8,18.8-4,27c-1.6,6.2-2.8,8.7-3,14c-0.2,4.2,0.4,5.3,0,10c-0.6,6.3-1.9,6.4-2,11c-0.1,3.8,0.8,3.8,2,12
		c0.5,3.6,0.3,3.2,1,9s1.1,8.8,2,12c1.4,4.8,2.3,5.1,3,8c1.7,7-1.8,13.1-3,16c-2.6,6.2-3.1,16.8,7,36c-2.1,1-5.2,2.5-9,4
		c-5.3,2.1-21.6,8-46,8c-16.7,0-18-2.7-36-2c-12.6,0.5-11.1,1.8-21,2c-24,0.4-45.8-7-46-7c-1.8-3.9-1.6-5.4-1-6
		c1.8-1.8,7.5,3.4,12,1c1.9-1,3.5-3.4,3-5c-0.2-0.6-0.6-1-2-2c-2.2-1.5-3.2-2.2-5-3c-4.9-2.1-9.3-6.5-9-7c0.4-0.7,8.6,6,19,5
		c1.3-0.1,6.3-0.6,7-3c0.6-2.2-2.6-4.7-3-5c-2.9-2.2-4.7-1.2-10-3c-1.2-0.4-4.5-1.6-8-4c-3.6-2.5-3.4-3.5-6-5c-5.3-3.1-11-1.5-11-2
		c-0.1-0.6,7.5-2.6,16-3c2.8-0.1,4.5-0.4,8-1c5-0.8,5.8-1.4,6-2c0.4-1.5-2.5-3.8-5-5c-3.3-1.6-6.6-1.3-11-1c-0.9,0.1-2.9,0.4-7,1
		c-6.5,1-10,1.6-12,2c-3.1,0.6-4.7,0.9-5,1c-6.7,2.5-8.6,9.5-10,9c-1.1-0.4-0.3-4.9,0-9c0.4-5-0.4-9.7-2-19c-1.1-6.8-2.6-15.6-6-27
		c-5.1-17.2-10.8-28-8-30c1.4-1,3.3,1.5,7,1c2.8-0.3,6.3-2.3,11-11c4.8-8.8,6.8-17.3,8-25c2.2-14.4,3.3-21.6,0-29
		C352.2,232.2,342.9,230.2,344,225z"/>
</g>
<g id="vs-shade">
	<g>
		<path opacity="0.4" enable-background="new    " d="M313.2,237.8c8.4-5.1,23.9-13.8,40.8-19.2c6.9-2.2,17.6-5,28-7.2
			c3.3-0.7,6.1-1.2,8-1.6c1.6-2.5,4.1-5.8,8-8.8c2.3-1.8,4.5-3.1,6.4-4c-1.9-1-4.5-2.5-7.2-4.8c-1.7-1.4-8.6-7.5-12.8-19.2
			c-4.3-12.1-0.6-16.1-4-30.4c-1.8-7.5-4.5-13.2-6.4-16.8c1,7.4-0.3,12.6-1.6,16c-1.2,3-2.1,3.9-6.4,12c-2.9,5.5-4.4,8.3-4.8,9.6
			c-3.2,9.8,1.4,14.2-2.4,20c-2.9,4.4-8.1,5.8-10.4,6.4c-4.3,1.1-11.1,1.5-12-0.8c-1.2-3.1,10.2-6,12.8-16c0.7-2.8-0.2-2.7,0-14.4
			c0.1-6.4,0.1-9.7,0.8-11.2c2.9-6.6,9.4-5.2,13.6-12c3-4.9,2.7-10.5,2.4-15.2c-0.6-9.3-4.3-11.7-2.4-16.8c1.1-3,2.4-2.3,8.8-8.8
			c6.1-6.2,10.1-10.4,9.6-15.2c-0.2-2.1-1.1-2.6-1.6-6.4c-0.2-1.5-0.6-4.2,0-7.2c0.2-1.3,1.6-8.6,8-12c1-0.5,4.1-2.1,8-1.6
			c4.8,0.7,6.6,4.1,11.2,7.2c2.9,2,7.4,4.2,14.4,4.8c-2.1-1.4-4.9-3.6-7.2-7.2c-2.2-3.5-1.9-5.1-4-8c-3.4-4.7-6.6-3.8-9.6-7.2
			c-5.6-6.4-1.2-17-3.2-17.6c-1.6-0.5-3.9,6.6-10.4,16.8c-6.2,9.9-8.7,10.6-12.8,19.2c-2.7,5.6-4.2,10.7-4.8,12.8
			c-2.7,9-1.2,9-3.2,14.4c-1.1,3-4.8,8.4-12,19.2c-3.4,5.1-3.6,5.3-4,6.4c-2.8,8,3.1,11.8,0.8,18.4c-1.9,5.6-6.6,4.4-11.2,12.8
			c-1,1.8-2.5,4.7-3.2,8.8c-0.9,5.7,1,7.4,0,13.6c-0.4,2.9-0.9,6-3.2,8.8c-3.1,3.8-5.8,2.5-8,5.6c-2.8,3.9,0.6,7-1.6,14.4
			c-1.2,4.2-3.5,7.2-4.8,8.8c-4.3,5.5-6.7,4.5-9.6,8.8c-4.4,6.5-2.6,14.4-2.4,15.2C308.9,233.3,311.8,236.5,313.2,237.8z"/>
		<path opacity="0.4" enable-background="new    " d="M478.8,215.4c2.2-3.1,3.4-3.4,4-3.2c1.7,0.5,0.5,5.1,3.2,8.8
			c1.7,2.3,3.9,3.1,6.4,4c0,0,7.8,3,19.2,8.8c5.7,2.9,9,5.3,15.2,6.4c2.5,0.5,4.8,0.6,6.4-0.8c2.4-2.1,1.7-6.4,1.6-7.2
			c-1-6.1-5.9-6.9-7.2-12c-0.6-2.4,0.1-3.6,3.2-12c4.2-11.3,6.4-17.1,7.2-22.4c0.7-4.7,0.8-8.9,0.8-12.8c0.1-8.2-0.8-9.5,0-14.4
			c1.1-7,3.2-7.1,3.2-12c0-3.6-1.2-4.5-4.8-13.6c-2.5-6.3-3.8-9.5-4.8-13.6c-2.4-9.5-0.1-10.2-2.4-16c-2.1-5.2-4.2-4.9-10.4-14.4
			c-1.4-2-3.7-5.7-5.6-9.6c-4.1-8.8-3.7-14.9-4.8-21.6c-3-17.6-15.5-29.1-16-28.8c-0.5,0.3,10.9,13.5,11.2,32
			c0.1,4.8,0.2,12.1-4,19.2c-3.7,6.3-8.9,9.5-8,11.2c1.3,2.4,11.6-3.8,17.6,0.8c1.1,0.8,2.4,3.5,4.8,8.8c2.9,6.2,4.3,9.3,4.8,11.2
			c2.4,8.9-1.6,10.2,0.8,17.6c1.6,4.9,5,9.1,8,12.8c3.6,4.4,4,3.7,4.8,5.6c2.8,6.5-3.7,10.7-2.4,20c0.7,5.1,3,5.6,2.4,9.6
			c-0.6,3.9-3.2,6.5-7.2,10.4c-6.9,6.7-9.8,6-12,10.4c-2.7,5.4-0.4,10.5-2.4,11.2c-1.6,0.5-4-2.4-7.2-6.4c-2.7-3.3-2.5-3.8-5.6-8
			c-4.1-5.5-5.7-6.5-5.6-8.8c0.1-1.8,1.2-2.4,4-5.6c0,0,4.9-5.5,8.8-12.8c2.1-3.9,3.2-5.9,3.2-8.8c0-2.2-0.5-3.9-2.4-8
			c-3.9-8.6-5.8-12.9-7.2-12.8c-1.8,0.1-1.1,4.4-5.1,14.7c-0.6,1.5-1.2,2.8-0.5,3.7c1.8,2.3,10.1-2.5,11.2-0.8
			c0.7,1.2-2.1,5.3-6.4,7.2c-3.9,1.7-5.5,0-8,1.6c-3.6,2.3-1.4,6.6-4.8,13.6c-2.8,5.7-5.3,5.1-8,11.2c-0.4,0.9-2.3,5.2-2.4,11.2
			C475.4,207.7,477.5,212.8,478.8,215.4z"/>
		<path opacity="0.4" enable-background="new    " d="M418,178.6c-0.5,1.6,3.1,4.4,6.4,5.6c2.4,0.9,5.5,1.3,11.2,0
			c7.2-1.6,16.4-5.4,16-7.2c-0.3-1.1-3.6-0.4-20.8,0C422.1,177.2,418.4,177.2,418,178.6z"/>
		<path opacity="0.4" enable-background="new    " d="M474.8,193c-1.7,1.7-4.4,4.3-8,7.2c-6.2,4.9-12.5,10-21.6,12
			c-5.5,1.2-9.9,0.9-11.2,0.8c-15.9-1.4-26.6-13.5-27.2-12.8c-0.3,0.4,3.5,4.4,8,8c5.1,4.1,8.8,7,14.4,8.8c10.3,3.3,20.4,0.6,22.4,0
			c3.5-1,5.4-2.1,9.6-2.4c2.7-0.2,8.8-0.7,12,3.2c1,1.2,1.4,2.4,1.6,3.2c1.3-1,3-2.6,3.2-4.8c0.2-2.7-2.1-3.4-3.2-7.2
			c-0.7-2.3-0.2-3,0-9.6C474.9,196.7,474.8,194.4,474.8,193z"/>
		<path opacity="0.4" enable-background="new    " d="M394.8,205c-1.7,0.2-2.9,2.8-3.2,4.8c-0.4,2.5,0.5,5.3,6.4,12
			c6.5,7.4,9.8,11.1,15.2,13.6c3,1.4,7.1,2,15.2,3.2c8.5,1.3,11.2,0.9,12.8-0.8c1.5-1.6,1.7-4,1.6-5.6c-4.5,0.5-12.2,0.8-20.8-2.4
			c-3.2-1.2-11.3-4.3-17.6-12C399,211.2,397.6,204.7,394.8,205z"/>
		<path opacity="0.4" enable-background="new    " d="M475.6,233.8c3.4-2.4,5.4-5.3,6.4-7.2c-0.9,0.6-2.2,1.5-4,2.4
			c-4.2,2.2-11.3,5.8-18.4,4c-4.2-1.1-6-3.5-8-2.4c-1.7,0.9-2.6,3.9-1.6,5.6c0.3,0.6,0.9,1,1.6,1.3c-1.4,0-2.7,0.1-4,0.3
			c1.1,3.8,2.7,9.6,4,16.8c2.8,14.9,2.7,24.4,3.2,33.6c0.5,8,3.3,21.1,8.8,47.2c2.2,10.2,3,13.4,9.6,44c2.7,12.4,4.9,22.7,5.6,36.8
			c0.4,7.6,0.2,14,0,18.4c5.4,1.1,12.5,2.1,20.8,1.6c11.8-0.6,21.1-3.8,27.2-6.4c-7.1-1-12.9-1-16.8-0.8c-8.3,0.4-12.2,1.8-16.8-0.8
			c-2.7-1.5-6.6-5-6.4-8.8c0.2-3.6,3.8-4.3,7.2-11.2c0.9-1.8,3.2-6.3,1.6-8c-1.2-1.3-3.8,0.8-6.4-0.8c-1.6-0.9-2.4-2.3-4-6.4
			c-3-7.7-4.5-11.5-3.2-13.6c1.2-1.8,2.7-1.1,6.4-4c2.3-1.8,4.2-3.3,4-4.8c-0.4-3.2-9.5-2.2-11.2-6.4c-1.5-3.8,4-9.7,8-12.8
			c9-7,19.3-7,19.2-8c-0.1-0.9-9.1,0.8-20-1.6c-6.3-1.4-14.5-3.2-18.4-9.6c-3-4.8-0.3-7.2-1.6-20c-0.8-8.1-2-8.5-4-20
			c-0.9-5.2-2-12.3-2.4-21.6c-0.4-10.3-0.6-15.5,0-20c0.7-4.7,1.5-7.3,0-9.6c-1-1.5-2.7-2.4-4.7-2.9c1.2-0.1,2.5-0.2,3.9-0.3
			C466.6,237.4,471.1,237,475.6,233.8z"/>
		<path opacity="0.4" enable-background="new    " d="M382.8,388.2c-1.3-1.2-3.3,0-9.6,1.6c-5.3,1.3-8,1.6-8,2.4
			c0,1.1,4.8,2.4,4.8,2.4l0,0c0,0,6.7,2.2,19.2,6.4c-2.5-1.8-5-4.5-5.6-8C383.2,390.6,383.9,389.1,382.8,388.2z"/>
		<path opacity="0.4" enable-background="new    " d="M534.8,260.2c0.9,6.5,2.1,15.1,0,25.7c-0.9,4.5-1.7,6.1-4,16.4
			c-1.6,7.1-1.9,9.6-1.6,12.8c0.5,5.8,2.2,6.1,1.6,10c-0.9,5.3-4.4,6.5-4,11.4c0.1,0.9,0.4,3.2,1.6,5.7c1.2,2.5,1.9,2.5,2.4,4.3
			c0.6,2.1-0.2,2.7-0.8,7.1c-0.4,3-0.6,4.9,0,7.1c0.5,1.8,1,2.1,2.4,5c0,0,1.4,3,2.4,6.4c1.5,5.2-1.1,10-2.4,13.5
			c-2.2,6.2-1,12.2,1.6,24.2c1.7,8.1,4.6,15.7,8,24.9c1.2,3.2,3,7.8,4,14.3c0.5,2.8,0.5,4.1,0.8,10c0,0,0.6,9.5,1.6,22.1
			c0.6,7.4,0.9,11.3,1.6,15.7c1.3,8.9,2,8.5,2.4,13.5c0.7,8.5-1.2,9.5-0.8,19.2c0.2,5.3,0.8,4.3,1.6,13.5c0.8,9.3,1.3,13.9,0.8,17.8
			c-0.4,3.1-1.2,7.4-0.8,13.5c0.2,2.7,0.5,4.8,2.4,6.4c1.9,1.6,5.1,2.5,7.2,1.4c1.8-1,2-3.3,2.4-7.8c0.3-4.2-0.3-4.4,0-7.1
			c0.6-6.7,4.4-8.4,3.2-11.4c-1.3-3.2-5.9-1.9-8.8-5c-4.4-4.7,1.4-12.6,3.2-24.2c1.1-7-0.1-10.2-1.6-21.4c-2.7-19.9-0.2-19-2.4-49.9
			c-2.6-35.2-5.5-32.8-3.2-40.6c1.5-5.1,5.5-15.4,0-22.1c-1.6-2-3-2.3-5.6-5.7c-1.1-1.5-4.4-6.1-5.6-12.8c-0.7-4,0.1-4.6,0-10
			c-0.1-7.5-1.6-13.2-4-22.1c-2.3-8.5-2.8-7.9-3.2-11.4c-0.8-7,1.1-12,3.2-18.5l0,0c2.7-9.7,5.3-18.2,7.2-28.5
			c2.4-13.2,3.6-19.9,2.4-24.9c-1.9-8.3-6-11.8-7.2-12.8c-4.7-3.8-10.2-4.7-12.8-5C532.7,248.5,534.1,255.1,534.8,260.2z"/>
		<path opacity="0.4" enable-background="new    " d="M262.8,345c3.7,2.6,6.2,5.3,9.6,4.8c3.2-0.5,4.8-3.3,7.2-6.4
			c0.5-0.6,6.2-5.5,17.6-15.2c12.9-11,9.4-7.8,15.2-12.8c11.2-9.7,15.7-14.3,19.2-12.8c1.8,0.8,1,3.5,3.2,4.8
			c3.1,1.9,8.1-1.2,8.8-1.6c0.1-0.1,0.2-0.1,0.2-0.2c-2.2,2.7-4.3,4.1-6.6,4.2c-2.5,0.1-4.5-1.4-5.6-2.4c0.3,3.1,0.9,8.2,2.4,14.4
			c2.6,10.9,5,13.6,8,25.6c1.6,6.4,2.8,11,3.2,17.6c0.3,4.2,0,6.5,0,20c0,3.4,0,6.2,0,8c1.6-1,4.2-2.5,7.2-4.8
			c4.4-3.3,4.7-4.4,8-6.4c2-1.3,5.6-3.5,10.4-4c2.7-0.3,4.2,0.1,8.8,0.8c3.2,0.5,7.9,1.1,13.6,1.6c-9.4-9.3-15.9-10.4-20-9.6
			c-4.4,0.8-7.2,3.8-12.8,3.2c-0.9-0.1-5.6-0.6-8.8-4c-4.9-5.2-0.6-11.6-2.4-25.6c-1.5-11.6-5.1-12.2-4-19.2
			c1.2-7.9,6.1-8.6,12.8-19.2c8.9-14.1,10.1-28.7,10.4-32.8c0.3-4.6-0.3-2-0.8-21.6c-0.2-8.9-0.1-11.1-1.6-14.4
			c-2.9-6.6-7.9-8.7-7.2-12.8c0.7-4,5.9-5.8,5.6-6.4c-0.3-0.6-4.6,0.6-20.8,7.2c2.9,1.6,7.5,4.8,10.4,10.4c1.8,3.5,2.4,6.9,2.4,16
			c0,11.2,0,17.3-1.6,26.4c1-8.3,1.2-19.6-0.8-20c-1.8-0.3-2.8,8.1-9.6,16.8c-5.2,6.6-8.7,7-17.6,13.6c-3.2,2.4-3.2,2.7-25.6,25.6
			c-10.4,10.7-13.7,14-20,17.6c-3.6,2.1-9.1,5.2-16.8,6.4c-12.5,2-22.2-2.3-22.4-1.6C241.8,336.9,252.5,337.5,262.8,345z"/>
		<path opacity="0.4" enable-background="new    " d="M362.8,431.4c-1.1-1.3-3-3.1-5.6-4.8c-4.9-3.1-10.4-4.5-25.6-4.8
			c-11.9-0.3-11.1,0.5-16.8,0c-1.9-0.2-9.9-0.9-22.4-5.6c-17.6-6.6-29.9-15.4-32.8-17.6c-23.4-17.4-33.6-37-35.2-36
			c-1.1,0.7,3.4,10.7,10.4,20c2.4,3.1,6.6,8.2,24.8,22.4c28.3,21.9,23.9,14.2,36.8,25.6c4.3,3.8,10.2,9.5,18.4,9.6
			c3.3,0,6-0.9,10.4-2.4c9.1-3.1,11.5-6.2,16.8-8C346.3,428.3,353,427.5,362.8,431.4z"/>
		<path opacity="0.4" enable-background="new    " d="M403.6,874.5c3.6-4.5,8-12.5,5.6-15.2c-2-2.3-7,1-9.6-1.6
			c-2.3-2.4-0.7-7.5,0-9.6c2.2-7,6.1-9.6,9.6-14.4c7.5-10.2,8.3-23.1,6.4-24c-2-0.9-5.8,12.3-16.8,14.4c-1.3,0.3-9.6,1.7-16-3.2
			c-4.7-3.6-6.5-9.1-8-28c-1.2-15.1-1.4-26.8-1.4-33.6c2.6,0.2,10.6-13.9,11.8-16c3.7-6.5,6.1-12.1,8-16.8c6-14.7,9-26.6,9.6-28.8
			c6.1-23.7,8.5-48.3,6.4-48.8c-2.8-0.6-10.4,41.8-21.6,41.6c-3.3-0.1-5.7-3.8-8.8-8c-6.8-9.3-7.9-18.8-8.8-24.8
			c-0.5-3.4-5.4-18.3-15.2-48c-2.9-8.8-5.9-17.5-5.6-29.6c0.1-4.5,0.3-15,4-16c2.7-0.8,8,3.2,20,27.2c5.9-3.8,14.2-9.9,22.4-19.2
			c4-4.6,10.1-12.2,22.4-37.6c6.4-13.3,18.1-38.8,16-40c-1.7-0.9-9.7,14.6-28.8,32.8c-16.4,15.7-22.2,15.4-24,15.2
			c-2.4-0.3-10.7-2-23.2-30.4c-13.9-31.5-13.5-51.8-18.4-52c-5-0.2-11,21.4-12,40c-0.5,8.7,0.5,17.6,2.4,35.2
			c1.9,17.6,3,18.8,4,32.8c1.2,16.2,0,16.7,1.6,28c1.5,10.1,2.4,9.1,5.6,27.2c0.8,4.4,1.8,10.6,4,19.2c1.3,5.2,1.7,6.1,2.4,8.8
			c3.4,13.7-0.1,19.8,0.8,37.6c0.3,6.4,0.6,11.6,2.4,18.4c2.8,10.7,6.3,14,9.6,25.6c2.2,7.6,2.8,13.6,3.2,17.6
			c1.5,15.2-1.5,18.7-1.6,34.4c-0.1,6.9,1.3,16,4,34.4c2.8,18.8,4.3,23.1,6.4,27.2c3.3,6.5,5.9,8.1,11.2,16.8c4.8,8,7.8,15.1,9.6,20
			C396,881.7,400,879,403.6,874.5z"/>
		<path opacity="0.4" enable-background="new    " d="M428.4,888.1c1.2,3,12.7,2.7,21.6-1.6c9.1-4.4,13.9-12,16.8-16.8
			c2-3.2,5.8-9.5,7.2-18.4c1.2-8-0.4-12.9-1.6-20.8c-0.8-5.4-0.6-6-0.8-32c-0.1-8.9-0.4-28.1-0.8-48c-1.3-56.9-3.7-55.5-1.6-73.6
			c0.3-2.7,2.4-19.8,3.2-42.4c0.4-10.9,0.2-16.2,0-20c-1-18.8-5.3-38.6-8-38.4c-1.8,0.1-1.2,8.9-5.6,29.6c-2.6,12.3-3.7,13.3-4,19.2
			c-0.7,12.1,3.1,19.4,5.6,28c3.2,11,1.2,14.1-0.8,50.4c-1.2,21.6-1.8,32.9-1.6,48c0.4,24.4,0.6,37.7,4,56c3.4,18.5,6.7,23.3,4,33.6
			c-3.5,13.4-13.8,24.1-19.2,29.6C436.7,880.7,427.2,885.1,428.4,888.1z"/>
		<path opacity="0.4" enable-background="new    " d="M451.6,924.9c9.1-7.8,14.1-6.3,17.6-12c3.3-5.4,1.9-11.6,1.6-12.8
			c-1.3-5.9-5.1-9.3-6.4-10.4c-4.3,4.3-10.1,9.2-17.6,13.6c-8.7,5.1-25.5,15-36.8,8.8c-6.3-3.5-7.7-10.3-9.6-9.6
			c-2.4,0.9-1.1,12.8,2.4,23.2c3.6,10.7,6.6,19.8,15.2,24c14,6.9,30.5-5.1,31.2-5.6c-1.2-1.3-4.7-5.5-4-10.4
			C445.4,932.5,446,929.7,451.6,924.9z"/>
		<path opacity="0.4" enable-background="new    " d="M550,530.6c-4.5,2-13,4.9-22.4,2.4c-6.9-1.9-13.8-6.5-23.2-21.6
			c-16.6-26.6-18.6-49.8-20-49.6c-1.7,0.3-1.1,33.7,14.4,66.4c6.3,13.2,12.3,20.7,15.2,24c8.4,9.8,17.3,16,24,20.8
			c6,4.2,11.3,7.4,15.2,9.6C552.1,565.2,551,547.9,550,530.6z"/>
		<path opacity="0.4" enable-background="new    " d="M550,674.5c1.4-6.3,1.7-12,1.6-16.8c-2.2,2.1-6.8,5.9-13.6,7.2
			c-2.3,0.5-5.7,1.1-8.8,0c-7.4-2.7-9.3-14.4-10.4-20c-5.2-27.6-16.1-49.7-16.8-49.6c-0.9,0.2,11.5,34.9,13.6,68.8
			c0.3,4.7,0.8,16.8,7.2,30.4c3,6.5,6.5,11.4,8.8,14.4C537.1,703,546.3,691.4,550,674.5z"/>
		<path opacity="0.4" enable-background="new    " d="M517.2,787.3c4.9-21.1,7.5-40.5,6.4-40.8c-1.1-0.2-0.8,20.6-15.2,39.2
			c-8,10.3-16.4,14.6-15.2,21.6c1.2,6.6,9.3,7.3,11.2,16.8c0.5,2.2,0.9,6.8,0.6,12c-0.1,1.9-0.3,3.4-0.6,4.8
			c-1.5,9.1-2.7,16.7-6.4,23.2c-5.7,10-11.9,7.9-14.4,16c-2.1,6.6,1.6,9.6,0.8,16.8c-0.6,5.2-3.6,12.6-15.2,20.8
			c2.3,12.7,5.9,16,8.8,16.8c3.1,0.8,4.8-1.5,14.4-5.6c7.9-3.4,14.9-2,16-5.6c0.1-0.3,0.1-0.4,0-2.4c-0.1-4.8,0-7.7,0-8.8
			c-0.1-6.8-7.2-10.9-8-19.2c-0.2-1.9,2-7.9,6.4-20c3.5-9.7,4.1-11.1,4.8-14.4c1.2-5.8,1-9.9,0.8-16.8c-0.5-17.7-0.8-26.6,0-33.6
			C513.1,801.1,514,800.8,517.2,787.3z"/>
		<path opacity="0.4" enable-background="new    " d="M546.8,967.2c-2.1,1.8-5.3,4.2-9.6,6.4c-5.8,3-11.5,4.6-21.8,6
			c-7.6,1.1-5.4,0.3-29.4,2c-7.8,0.5-16.6,1.2-28.4-0.7c-0.2,0-0.3,0-0.4-0.1c-12.7-2.1-17.7-4.7-27.2-7.2c-12.9-3.4-13-1.1-17.6-4
			c-7.9-5-9.2-12.6-12-12c-2.9,0.7-3.8,9.7-2.4,16.8c0.6,3.2,1.6,7.9,4.8,11.2c6,6.2,14.2,1.7,33.6,2.4c10,0.4,8.2,1.6,36,4.8
			c8.3,1,12.5,1.4,15.2,1.6c13.4,0.8,27.8-2.4,56-8.8c2.1-0.5,7.6-1.8,11.2-6.4c0.9-1.1,3.3-4.2,2.4-7.2
			C556.2,969,552,966.8,546.8,967.2z"/>
		<path opacity="0.4" enable-background="new    " d="M576.4,956c-0.4-3.6-3.2-5.8-4-6.4c-4.7,2-11.8,4.4-20.8,4.8
			c-0.2,0-1.6,0.1-3.1,0c-13.7-0.2-26.5-6.1-30.5-8c-15.4-7.5-16.3-12.5-24.8-12.8c-6.4-0.2-11.8,2.5-15.2,4.8
			c4.6,1.5,11.9,3.8,20.8,7.2c17.9,6.8,31,12.7,31.2,12.8l0,0c5.9,2.2,10.8,3.4,14.4,4c5.7,1,9.5,1,12,4c2.1,2.5,1.3,4.7,3.2,5.6
			c3,1.4,7.8-3.2,10.4-5.6C573.7,962.9,576.9,960,576.4,956z"/>
		<path opacity="0.4" enable-background="new    " d="M413,113c-3.3-2.1-6.6-4.3-11-4c-1,0.1-2.4,0.2-4,1c-4.7,2.4-6.3,9-5,10
			s4.7-4.1,9-3c2.2,0.5,3.8,2.5,5,4c2.1,2.6,1.2,3.1,3,5c2.1,2.2,4,2.2,6,5c0.6,0.8,0.9,1.3,1,2c0.2,1.1-0.3,2.7-4,6
			c-3.3,2.9-5.5,4.8-9,6c-5.9,2-10.9,0.4-11,1c-0.1,0.5,3.3,1.7,7,2c3.2,0.3,5.6-0.2,10-1c3.7-0.7,5.6-1.1,7-2c2.3-1.5,2-2.5,5-5
			c0.8-0.7,1.4-1.1,2-1.5c-0.4,0.9-0.9,2.1-2,3.5c-2.2,2.8-4.1,3.4-4,5c0.1,1.1,0.9,1.1,2,3c1.7,2.8,1.1,4.7,2,5c1.2,0.4,4-3,5-7
			c1.1-4.4-0.1-9.1-1.3-10.5c0.6-0.4,1-0.7,1.3-1.5c0.5-1.4-0.3-2-2-7c-1.3-4-1-4.2-2-6c-1.1-2-2.3-3.3-4-5
			C417.8,116.8,415.9,114.9,413,113z"/>
		<path opacity="0.4" enable-background="new    " d="M438,139c0.3,2.7,0.8,5.3,1,8c0.2,2.5,0.2,3.6,1,4c1.3,0.7,2.8-1.5,6-2
			c2.5-0.4,3.2,0.7,6,1c1,0.1,2.5,0.1,10-3c5.3-2.2,8-3.4,10-5c2.7-2.3,5.8-5.9,5-7c-1-1.4-7.2,4-17,4c-5,0-11.9-1.4-13-5
			c-0.4-1.3,0.1-2.6,1-5c1.2-3.2,2.7-4.9,4-7c1-1.5,5.8-8.9,4-11c-1.7-2-9.2,0.8-14,5c-1.3,1.1-2.9,2.6-4,5c-1.4,3-1.2,5.7-1,10
			C437.2,134.1,437.4,133.3,438,139z"/>
	</g>
</g>
<g id="vs-outline">
	<path fill="none" stroke="#000000" stroke-width="6" stroke-linecap="round" stroke-linejoin="round" stroke-miterlimit="10" d="
		M384.8,90.3c-1.3,2.4-2,4.7-4,16c-1.4,8.2-2.1,12.3-2.4,15.2c-1.3,14.6,3,17,4.8,38.4c1,11.7,1.2,22.8,16,33.6
		c1,0.7,1.5,1.1,3.3,2.4c16,11.3,16.2,12.4,20.7,14.4c3.8,1.7,9.2,4.1,16,3.2c3.4-0.4,6.8-2.2,13.6-5.6c5.3-2.7,8.6-4.4,12.8-7.2
		c3.3-2.3,9.7-6.6,15.2-13.6s7.7-13.4,10.4-21.6c1.9-5.8,5.1-15.5,5.6-28.8c0.2-6.3,0.6-18.8-4.8-33.6c-3.5-9.5-6.9-18.8-16-25.6
		c-6.2-4.6-14.3-5.8-30.4-8c-16.6-2.3-26-3.5-36.8,0.8c-7.5,3-13,7.6-14.4,8.8C391.3,81.8,387.6,84.9,384.8,90.3z"/>
	<path fill="none" stroke="#000000" stroke-width="6" stroke-linecap="round" stroke-linejoin="round" stroke-miterlimit="10" d="
		M532,240.6c1.1-0.8,2.6-2.1,3.2-4c1.7-5.3-4.9-8.8-6.4-16.8c-0.6-3.1,0.9-8,4-17.6c4.2-13.1,4.6-11.2,5.6-16
		c2.2-10.9-1.4-13.7,0.8-27.2c1.2-7.3,2.2-6,2.4-10.4c0.5-10.7-5.7-13.5-8.8-27.2c-2.3-10.2,0.5-10.9-2.4-17.6
		c-3.6-8.3-8.6-8.7-13.6-16.8c-4.1-6.7-2.7-9.6-5.6-21.6c-3.1-12.8-5.8-24.1-14.4-32.8c-5.6-5.7-12.5-8.6-26.4-14.4
		c-6.3-2.6-10.5-4.4-16.8-5.6c-9.4-1.8-17.4-1.3-24-0.8c-6.2,0.4-9.3,0.7-12.8,1.6c-12.6,3.5-20.3,12-22.4,14.4
		c-6.1,6.9-3,7.5-12,21.6c-7.2,11.3-10.2,12.6-12,20c-1.7,6.8,0.1,8.7-2.4,15.2c-1.9,4.8-3.3,4.9-8.8,13.6c-4.7,7.4-7,11.1-8,15.2
		c-2.1,8.8,2,10.9-0.8,17.6c-2.1,4.9-4.5,4.2-8.8,12c-1.8,3.3-3.4,6.2-4,10.4c-0.5,3.8,0.3,4.5,0,10.4c-0.3,5-0.4,7.5-1.6,9.6
		c-2.6,4.7-6.7,3.8-9.6,8c-2.8,4.1-0.6,7.1-1.6,12.8c-1.9,10.7-12,12.2-16,21.6c-2.1,4.9-2.9,12.5,3.2,24.8"/>
	<path fill="none" stroke="#000000" stroke-width="5" stroke-linecap="round" stroke-linejoin="round" stroke-miterlimit="10" d="
		M441.2,115.1c-0.3-1,10.6-4.6,13.6-5.6c7.8-2.6,10-2.7,12-2.4c3.8,0.5,6.5,2.2,8,3.2"/>
	<path fill="none" stroke="#000000" stroke-width="5" stroke-linecap="round" stroke-linejoin="round" stroke-miterlimit="10" d="
		M419,113c-1.7-0.8-4.1-1.9-7-2.7c-2-0.6-4.9-1.4-8.8-1.6c-2.5-0.1-5-0.2-8,0.8c-0.5,0.2-2.1,0.7-4.8,2.4c-2.2,1.4-5.2,3.6-8.4,7.1"
		/>
	<path fill="none" stroke="#000000" stroke-width="5" stroke-linecap="round" stroke-linejoin="round" stroke-miterlimit="10" d="
		M447.2,132.5c-0.2-0.2,1-3.4,4.1-5.7c2.7-2.1,5.6-2.4,6.6-2.5c3.6-0.3,6.7,0.9,8.2,1.6c0.3,0.2,1,0.5,2,1c1.7,0.8,2.7,1.2,3.8,1.5
		c2.4,0.5,3.9-0.4,4.1,0"/>
	<path fill="none" stroke="#000000" stroke-width="5" stroke-linecap="round" stroke-linejoin="round" stroke-miterlimit="10" d="
		M447.2,132.5c1.4,2.4,3.1,3.5,4.1,4.1c3.8,2.2,7.9,1.4,10.7,0.8c1.2-0.2,2.9-0.6,4.9-1.6c3-1.5,4.8-3.6,5.7-4.9"/>
	<path fill="none" stroke="#000000" stroke-width="4" stroke-linecap="round" stroke-linejoin="round" stroke-miterlimit="10" d="
		M454.8,127.2c-0.1,0.2-0.9,1.7-0.3,3.4c0.6,1.5,2.1,2.5,3.7,2.4c1.8-0.1,2.8-1.5,3.1-1.8c0.5-0.7,0.8-1.7,0.6-1.8
		c-0.3-0.3-1.6,1.2-2.1,0.9c-0.4-0.3,0.3-1.5-0.3-2.1c-0.5-0.6-1.5-0.3-1.5-0.3c-0.9,0.2-1.8,1.3-1.5,2.1c0.3,0.9,1.6,1.4,2.1,0.9
		c0.3-0.2,0.3-0.6,0.3-0.9"/>
	<path fill="none" stroke="#000000" stroke-width="5" stroke-linecap="round" stroke-linejoin="round" stroke-miterlimit="10" d="
		M426.8,135.5c-0.1,2.7-0.1,4.9,0,6.4c0.1,2.7,0.4,3.9,0,5.6c-0.5,2.5-1.7,4.8-2.4,7.2c-0.1,0.5-1.1,1.5,0.8,4.8
		c1,1.8,2.4,2.7,3.2,3.2c1.1,0.7,2.6,1.7,4.8,1.6c2-0.1,3.4-1.1,4-1.6"/>
	<path fill="none" stroke="#000000" stroke-width="5" stroke-linecap="round" stroke-linejoin="round" stroke-miterlimit="10" d="
		M477.5,140.5c-6.3,7.2-18.1,7.8-26,4c-2-1-7.2-3.5-9-9c-1.3-3.9-0.2-7.4,0-8c1-3.2,3-5.1,4-6c6.3-5.9,19.1-7.9,28-2
		c1.8,1.2,6,4,7,9C482.7,134.6,478.3,139.6,477.5,140.5z"/>
	<path fill="none" stroke="#000000" stroke-width="5" stroke-linecap="round" stroke-linejoin="round" stroke-miterlimit="10" d="
		M386.1,142.5c6.3,7.2,18.1,7.8,26,4c2-1,7.2-3.5,9-9c1.3-3.9,0.2-7.4,0-8c-1-3.2-3-5.1-4-6c-6.3-5.9-19.1-7.9-28-2
		c-1.8,1.2-6,4-7,9C380.9,136.6,385.3,141.6,386.1,142.5z"/>
	<path fill="none" stroke="#000000" stroke-width="4" stroke-linecap="round" stroke-linejoin="round" stroke-miterlimit="10" d="
		M424,134c1.4-0.4,3.1-0.8,5-1c1.7-0.2,4-0.5,7,0c1.7,0.3,3,0.7,4,1"/>
	<path fill="none" stroke="#000000" stroke-width="4" stroke-linecap="round" stroke-linejoin="round" stroke-miterlimit="10" d="
		M482,137c5.3-2.3,10.7-4.7,16-7"/>
	<path fill="none" stroke="#000000" stroke-width="4" stroke-linecap="round" stroke-linejoin="round" stroke-miterlimit="10" d="
		M483.5,129c4.6-1.7,9.2-3.3,13.8-5"/>
	<path fill="none" stroke="#000000" stroke-width="5" stroke-linecap="round" stroke-linejoin="round" stroke-miterlimit="10" d="
		M439.6,161c0.1,0.1,1.2,1.7,3.2,1.6c1.4-0.1,2.7-1,3.2-2.4"/>
	<path fill="none" stroke="#000000" stroke-width="5" stroke-linecap="round" stroke-linejoin="round" stroke-miterlimit="10" d="
		M418.3,133.5c0.2-0.2-1.2-3.5-4.4-5.7c-2.9-2-5.8-2.2-6.8-2.3c-3.7-0.2-6.9,1.1-8.4,2c-0.3,0.2-1,0.6-2,1.1
		c-1.7,0.9-2.7,1.4-3.8,1.6c-2.5,0.6-4-0.3-4.2,0.1"/>
	<path fill="none" stroke="#000000" stroke-width="5" stroke-linecap="round" stroke-linejoin="round" stroke-miterlimit="10" d="
		M418.3,133.5c-1.4,2.5-3.1,3.7-4.1,4.3c-3.8,2.4-8.1,1.7-10.9,1.2c-1.2-0.2-3-0.5-5.1-1.5c-3.1-1.5-5-3.6-6.1-4.8"/>
	<path fill="none" stroke="#000000" stroke-width="4" stroke-linecap="round" stroke-linejoin="round" stroke-miterlimit="10" d="
		M407.3,128.3c0.1,0.2,1,1.6,0.4,3.3c-0.5,1.5-2,2.5-3.5,2.5c-1.8,0-2.9-1.4-3.1-1.7c-0.5-0.7-0.9-1.6-0.7-1.8
		c0.3-0.3,1.7,1.2,2.1,0.8c0.4-0.3-0.3-1.4,0.2-2.1c0.5-0.6,1.4-0.4,1.5-0.4c0.9,0.2,1.8,1.2,1.6,2.1c-0.2,0.8-1.5,1.4-2.1,1
		c-0.3-0.2-0.3-0.6-0.3-0.9"/>
	<path fill="none" stroke="#000000" stroke-width="5" stroke-linecap="round" stroke-linejoin="round" stroke-miterlimit="10" d="
		M410,174.6c0.5,0.4,1.3,1.1,2.4,1.6c2.8,1.3,5.6,1,8,0.8c1.5-0.1,3.2-0.3,5.4-0.6c0.9-0.1,1.8-0.1,2.7,0.2c0.4,0.1,0.9,0.2,1.5,0.4
		c2.4,0.6,3,0.9,4,0.8c3.1-0.3,3.6-1.8,7.4-2c0.7,0,1.7,0.1,3.8,0.4c2.8,0.4,3.6,0.7,4.8,0.8c1.7,0.2,4.1,0,7.2-1.6"/>
	<path fill="none" stroke="#000000" stroke-width="5" stroke-linecap="round" stroke-linejoin="round" stroke-miterlimit="10" d="
		M419.6,182.2c1.4,0.7,3.3,1.4,5.6,2c3.9,1,7.1,0.8,8,0.8c4.6-0.3,8.1-1.7,10.4-2.8"/>
	<path fill="none" stroke="#000000" stroke-width="6" stroke-linecap="round" stroke-linejoin="round" stroke-miterlimit="10" d="
		M494,163.4c1,0.3,2.8,0.7,4.8,0c1.9-0.6,2.9-1.9,4-3.2c1.2-1.5,1.8-2.8,2.4-4c0.8-1.8,1.3-3.4,1.6-4.8"/>
	<path fill="none" stroke="#000000" stroke-width="6" stroke-linecap="round" stroke-linejoin="round" stroke-miterlimit="10" d="
		M499.6,138.7c0.8,1.5,2.2,3.8,4,6.4c3.2,4.6,3.9,4.5,4.8,6.4c2.4,5.1,0.3,11.9-2.4,16c-2.4,3.6-4.1,3.4-7.2,7.2
		c-3.5,4.2-4.9,8.8-5.6,12"/>
	<path fill="none" stroke="#000000" stroke-width="6" stroke-linecap="round" stroke-linejoin="round" stroke-miterlimit="10" d="
		M400.4,201c2.5,0.6,2.6,3.8,6.4,8.8s8.3,7.6,10.4,8.8c6,3.4,12.6,4.9,16,5.6c5.5,1.2,8,1.1,9.6,3.2c1.9,2.6,1.1,6.5,0,9.6
		c-2.5,1.3-6.3,2.8-11.2,3.2c-12.8,1-22.4-7.1-27.2-11.2c-7.5-6.3-11.9-13.7-14.4-19.2C395.3,201.9,398.4,200.6,400.4,201z"/>
	<path fill="none" stroke="#000000" stroke-width="6" stroke-linecap="round" stroke-linejoin="round" stroke-miterlimit="10" d="
		M478,189.8c-1,2.2-2.3,11.4-2.4,16c-0.1,2.9,2.7,7.8,3.2,9.6"/>
	<path fill="none" stroke="#000000" stroke-width="6" stroke-linecap="round" stroke-linejoin="round" stroke-miterlimit="10" d="
		M449.2,234.6c-0.8-2.3,1.1-5.5,3.2-7.2c3-2.5,5.3-1.2,14.4-3.2c5-1.1,6.7-2,8-3.2c2.5-2.2,3.6-5.1,3.9-5.8c0.7-1.8,0.9-3.5,0.9-4.6
		c0.6,0.4,6.6,4.5,6.4,10.4c-0.2,4-3.1,6.6-6.4,9.6c-1.8,1.6-6.9,6.1-15.2,7.2C460,238.4,450.7,238.6,449.2,234.6z"/>
	<path fill="none" stroke="#000000" stroke-width="6" stroke-linecap="round" stroke-linejoin="round" stroke-miterlimit="10" d="
		M386,210.6c-7.6,1.4-17.5,3.6-28.8,7.2c-5.8,1.9-18.9,6.2-32.8,13.6c-17.9,9.6-29,20.1-42.4,32.8c-21.5,20.4-34.9,39-42.4,49.6
		c-7.6,10.7-13.4,20.1-17.6,27.2c-0.6,16.4,4,27.5,7.2,33.6c5.4,10.1,13.7,16.8,30.4,30.4c8.9,7.3,15.3,11.5,28,20
		c22.8,15.2,26.9,15.7,30.4,15.2c9.3-1.3,11.2-8.8,24-10.4c3.4-0.4,7.4,0,15.2,0.8c9.4,1,17.1,2.2,22.4,3.2c1.6-1.9,1.7-3.2,1.6-4
		c-0.7-5.6-17.7-6.7-17.6-7.2c0.1-0.6,29.6,3.2,29.6,3.2s1.1-1.7,3.2-4.8c-3.4-2.5-8.5-5.9-15.2-8.8c-8.3-3.6-15.3-4.8-15.2-5.6
		c0.1-0.8,6.7-0.4,10.4,0c5.7,0.7,10,2,11.2,2.4c2.9,0.9,4.4,1.4,6.4,2.4c3.2,1.5,4.3,2.6,6.4,2.4c0.2,0,3-0.3,4-2.4
		c0.7-1.4,0.1-2.9,0-3.2c-1.2-3.2-5.7-4.1-10.4-5.6c-9.8-3.2-8.4-5.3-16-7.2c-8.6-2.1-15-0.5-15.2-1.6c-0.1-0.6,1.6-1.7,9.6-4
		c4.4-1.4,7.9-1.6,10.4-1.6c1.5,0,3.7,0.2,7.2,0c4.7-0.2,5.7-0.7,6.4-1.6c1-1.4,1.1-3.7,0-4.8c-0.7-0.7-1.7-0.8-2.4-0.8
		c-2.2-0.1,6.1,0.1-8-1.6c-6.7-0.8-12.6-1.4-15.2-1.6c-4.5,1.9-9.1,3.7-13.6,5.6c-1.3,1.7-3.4,4.2-6.4,6.4c-1.3,0.9-2.3,1.5-7.2,4
		c-10.2,5.1-9.5,4.4-11.2,5.6c-4.6,3.1-5.6,5.5-8.8,5.6c-2,0-3.5-0.8-4.8-1.6c-10.6-6.4-14.4-11.2-14.4-11.2
		c-8.5-10.1-19.2-23.6-24.8-30.4c-4.3-5.2-7-8.4-11.2-12c-5.5-4.7-10.7-7.7-14.4-9.6"/>
	<path fill="none" stroke="#000000" stroke-width="6" stroke-linecap="round" stroke-linejoin="round" stroke-miterlimit="10" d="
		M272.4,349.8c2-1.6,5.1-4.1,8.8-7.2c10.6-8.9,15.4-14,28.8-25.6c5.3-4.6,9.3-7.9,15.2-11.2c4.2-2.3,7.9-3.9,10.4-4.8"/>
	<path fill="none" stroke="#000000" stroke-width="6" stroke-linecap="round" stroke-linejoin="round" stroke-miterlimit="10" d="
		M343.6,225c2.5,1.2,6.1,3.3,8.8,7.2c1.9,2.7,3.3,6.2,4,19.2c0.4,8.8,0.7,13.2,0,19.2c-1.4,13-5.4,21.6-8,27.2
		c-5.3,11.3-8.3,11.9-9.6,12c-0.7,0-2.2-0.3-3.7-1.2c-2.5-1.5-3.1-3.7-3.5-3.6c-1.4,0.4,2.4,15.2,2.4,15.2c3.9,15,5.7,17.3,8,27.2
		c2.6,11.1,3.1,19.8,3.2,22.4c0.4,9.8-0.6,18.1-1.6,24"/>
	<path fill="none" stroke="#000000" stroke-width="6" stroke-linecap="round" stroke-linejoin="round" stroke-miterlimit="10" d="
		M486,221c4.5,3,16.3,7.2,25.6,11.4c3.7,1.7,7.7,2.7,15.2,5.8c4.1,1.7,9.3,3.9,11.2,4.9c10.8,5.5,13.9,19.9,16.8,29.2
		c2.9,9.4,4.9,19.2,8.8,67.7c1,12.2,1.4,19.1,4,29.2c3.4,13.5,6.2,15.6,9.6,27.8c4,14.5,4,26,4,39.2c0,15.8,0.4,25.2-0.8,39.9
		c-3.2,37.8,12.8,55.6,10.4,76.3c-0.7,6.5-0.9,20.8-4,32.1c-0.2,0.6-4,15.2-17.6,18.5c-4.4,1.1-13.6-1.3-11.2,0
		c-4-2.1,0.8-6.4,6.4-6.4c4.9,0,8.5-7.8,9.6-10c1-2.1,1-5,0-13.5c-0.4-3.7-4.1-17.1-5.6-17.1c-1.2,0-3.5,9.2-3.4,16
		c0.1,5.5-0.3,8.9-2.2,10.4c-2,1.6-4.7,0.5-7.2-1.4c-3-2.3-2.2-5.7-2.4-14.3c-0.2-9.4-1.2-7.5-1.6-19.2c-0.1-4,0-4.8,0-16.4
		c0-4.4,0-12.9,0-16.4c-0.2-16.6-2.6-18.8-4-39.2c-1.2-16.8,0.3-17-1.6-26.4c-1.1-5.5-3.2-11.8-7.2-24.2c-3.3-10.1-4.6-13.4-5.6-20
		c-0.5-3.1-1.2-8.5-0.8-15.7c0.8-12.5,4.4-15.2,1.6-21.4c-1.8-4.1-4.5-5.4-4.8-10c-0.3-3.9,1.5-4.4,1.6-8.6c0.1-5.9-3.4-6.8-4-12.8
		c-0.4-4.4,1.4-4.3,2.4-11.4c0.9-6.5-0.5-7.8,0-14.3c0.4-5.3,1.5-7.1,3.2-13.5c0,0,2.1-8.3,3.2-20c0.6-6.6,0.6-19.5-6.4-37.8"/>
	<path fill="none" stroke="#000000" stroke-width="6" stroke-linecap="round" stroke-linejoin="round" stroke-miterlimit="10" d="
		M342,433.8c-3.8,10.3-8.2,24.4-11.2,41.6c-0.9,5.4-2.8,16.2-3.2,29.6c-0.7,22.3,3.2,26.3,6.4,57.6c3.1,30.7-0.1,33.5,4.8,52.8
		c2,7.8,4.8,15.9,10.4,32c4.8,13.7,9,25,12,32.8"/>
	<path fill="none" stroke="#000000" stroke-width="6" stroke-linecap="round" stroke-linejoin="round" stroke-miterlimit="10" d="
		M383.6,432.2c16.4,4.5,29.4,5.1,38.4,4.8c6.7-0.3,14.1-0.7,30.3-1.5c4.1-0.2,8.9-0.3,15.3-0.1c11.2,0.4,15.7,1.2,21.9,1.2
		c0,0,3.9-0.1,7.7-0.4c14.2-1.2,28.5-6,36-8.8"/>
	<path fill="none" stroke="#000000" stroke-width="6" stroke-linecap="round" stroke-linejoin="round" stroke-miterlimit="10" d="
		M446,232.2c3.9,10.9,6.4,26.4,7.2,32.8c1.6,12.6,0.2,17.8,2.4,32c1.2,7.7,1.9,8.2,4.8,20.8c4.1,18.1,3.6,21.2,7.2,39.2
		c4.6,23,6.3,22.7,8.8,37.6c1.6,9.6,3.2,23.8,2.4,41.6"/>
	<path fill="none" stroke="#000000" stroke-width="6" stroke-linecap="round" stroke-linejoin="round" stroke-miterlimit="10" d="
		M345.2,642.5c1.2,12.7,1.9,22.9,2.4,29.6c1.6,23.1,1.4,31.3,5.6,44c3.3,10.1,4.5,8.1,7.2,16.8c5.3,16.7,0.7,23.2,1.6,49.6
		c0,0.6,1.3,12.7,4,36.8c1.3,11.5,2,17.4,4.8,24c3.7,8.7,5.7,7.1,12.8,20c7.5,13.6,5.5,15.8,12,24c2.6,3.3,4.9,5.5,5.6,9.6
		c0.9,5.6-2.3,8-3.2,13.6c-0.7,4.8,2.2,10.4,8,21.6c7.9,15.1,12.4,18.4,16,20c2,0.9,3.5,1.3,4.8,1.6c8.5,2,15.1-0.1,32.8-6.4
		c15.8-5.6,17.6-6.5,18.4-8.8c2-6-6.9-8.9-8.8-20.8c-1.6-10.5,4.2-15.8,0-23.2c-2.7-4.8-6.1-4.1-7.2-8c-1.9-6.7,7.3-10.7,11.2-22.4
		c1.3-3.9,1.1-6,0-24c-0.5-8.8-0.8-17.6-1.6-26.4c-3.4-38.7,1-68.1-1.6-114.4c-0.3-4.6-1-16.3,0-32c0.6-9.7,1.7-17.5,2.4-22.4"/>
	<path fill="none" stroke="#000000" stroke-width="6" stroke-linecap="round" stroke-linejoin="round" stroke-miterlimit="10" d="
		M555.6,580.9c-1.3,17-2,30.7-2.4,40c-0.5,10.1-1.3,20.3-1.6,30.4c-0.5,13.7-0.7,20.7-3.2,28.8c-0.9,3-2.8,7.4-6.4,16
		c-5.9,14-7.4,15.5-7.2,20c0.3,8.8,6.4,12.7,4,16.8c-2,3.5-6.6,1.1-11.2,4.8c-3.7,2.9-3.4,6.6-6.4,24c-0.7,4.1-1.7,10.2-3.2,16.8
		c-2.1,9.6-3.5,13.2-4.8,18.4c-3,12-2.5,24-1.6,48c0.4,11.2,0.9,14.1-0.8,19.2c-2.7,7.9-7.1,10.2-8.8,19.2c-0.4,2.3-1.3,7.1,0,12.8
		c1.6,7,4.9,9.1,6.4,16c1,4.6,0.5,8.6,0,11.2c-10.1,3.7-20.3,7.5-30.4,11.2"/>
	<path fill="none" stroke="#000000" stroke-width="6" stroke-linecap="round" stroke-linejoin="round" stroke-miterlimit="10" d="
		M472.4,435.4c0.3,8.5,0.6,21.3,0,36.8c-0.6,15-1.5,20.6-3.2,40c-3.6,41.7-1.7,43.4-4.8,65.6c-2.8,19.8-4.7,20.9-8.8,43.2
		c-5.4,29.2-4.3,38.7-8,78.4c-4.2,44.9-5.6,31.4-12,88c0,0-5.2,46.3-20,72c-6,10.4-14.4,17.6-14.4,17.6c-2.1,1.6-4.3,3.2-6.4,4.8"/>
	<path fill="none" stroke="#000000" stroke-width="6" stroke-linecap="round" stroke-linejoin="round" stroke-miterlimit="10" d="
		M484.4,436.2c-0.7,14-0.9,35.5,2.4,61.6c2.4,18.7,3.7,17.9,8.8,48c6.7,40,4.6,44,11.2,75.2c3.7,17.7,5.1,19.8,7.2,33.6
		c2.2,14.3,2.2,22.2,6.4,33.6c3.5,9.4,8,16.4,11.2,20.8"/>
	<path fill="none" stroke="#000000" stroke-width="6" stroke-linecap="round" stroke-linejoin="round" stroke-miterlimit="10" d="
		M406,932c-1.9,7.3-4.3,17.7-6.4,30.4c-2.5,15.2-1.9,18.3,0,20.8c3.3,4.3,12.9,4.5,32,4.8c10.6,0.1,10.4-0.3,16,0
		c15.3,0.9,20.3,4.6,31.2,6.4c6.4,1.1,5.9,0,40.8-4.8c23.3-3.2,31.3-3.8,35.2-10.4c2-3.5,3.3-9.2,0.8-12.8c-2.4-3.5-7.4-3.8-9.6-4
		c-4-0.4-7.9-1.3-11.7-2.5c-3.4-1.1-6.1-1.9-9.4-3.1c-7.2-2.6-12.4-5.1-13.3-5.5c-5.5-2.6-15.3-6.5-33.6-12.8"/>
	<path fill="none" stroke="#000000" stroke-width="6" stroke-linecap="round" stroke-linejoin="round" stroke-miterlimit="10" d="
		M511.6,951.2c-3.2,1.3-7.9,3.3-13.6,5.6c-14.2,5.9-15.1,6.2-16,6.4c-5.8,1.6-16.1,1.4-32.8-12"/>
	<path fill="none" stroke="#000000" stroke-width="6" stroke-linecap="round" stroke-linejoin="round" stroke-miterlimit="10" d="
		M504.4,924.9c3.7,1.6,9.3,4,16,7.2c12,5.6,11.8,6.1,16.8,8c5.3,2,6.8,1.9,24,6.4c11.7,3,14.2,3.9,15.2,6.4c1.8,4.7-3.6,11-6.4,13.6
		c-4.8,4.4-10.4,5.3-12.8,5.6"/>
	<path fill="none" stroke="#000000" stroke-width="6" stroke-linecap="round" stroke-linejoin="round" stroke-miterlimit="10" d="
		M518,953.6c6.4-4.5,12.8-9.1,19.2-13.6"/>
	<path fill="none" stroke="#000000" stroke-width="5" stroke-linecap="round" stroke-linejoin="round" stroke-miterlimit="10" d="
		M442,177.8"/>
</g>
<g id="vs-reveal">
	<path fill="none" stroke="#2E2B2C" stroke-width="126" stroke-miterlimit="10" stroke-opacity="0" d="M499.7,45
		c-32.3-3.5-64.8-4.6-97.2-3.4c-5.2,0.2-10.7,0.6-14.7,3.8c-7.9,6.3-4.6,20.1,3.7,26s19.1,6.1,29.2,6.1c12.3,0,24.7,0,37,0
		c16.1,0,35.3,1.8,43.1,15.9c0.9,1.7,1.7,3.7,1.4,5.6c-0.8,5.3-7.8,6.5-13.1,6.5c-31.3-0.3-62.7-0.5-94-0.8
		c-6.4-0.1-13.2,0-18.9,2.9s-10.1,9.7-7.9,15.8c2.7,7.9,13.1,9.2,21.4,9.2c32.2,0,64.4,0,96.6,0c13.1,0,27.9,0.7,36.5,10.5
		c2.7,3,4.6,7,4,11c-1.3,8.5-11.9,11.4-20.4,12c-55.6,3.6-113.5-13.9-166,4.7c-3.5,1.2-7.4,3.2-7.8,6.9c-0.5,4,3.5,6.9,7.1,8.6
		c22.4,10.4,48.4,7.5,73.1,7.2c30-0.4,60,3.3,89,11c6.6,1.7,13.4,3.8,18.6,8.2s8.6,11.7,6.5,18.2c-70.1-7.4-140.7-11.2-211.2-11.3
		c-3.3,6.5-0.6,14.8,4.6,19.9s12.5,7.4,19.6,9.1c29.5,7,60.3,4.3,90.5,6c40.2,2.2,80,12.4,116.4,29.6c6.2,3,13.3,10.4,8.6,15.4
		c-1.9,2.1-5.1,2.4-7.9,2.5c-45,2.5-90.9,4.9-134.3-7.1c-15.6-4.3-30.7-10.4-46.3-14.7c-19.7-5.4-40.2-7.8-60.6-7.1
		c-5.5,0.2-12.4,1.8-13.4,7.2c-0.9,4.9,3.8,8.8,8.1,11.2c20.9,11.8,45,16.4,68.7,20.7c60,10.8,120.2,20.4,180.7,28.5"/>
	<path fill="none" stroke="#2E2B2C" stroke-width="126" stroke-miterlimit="10" stroke-opacity="0" d="M250.6,300.2
		c9.7,11.1,28.8,12.4,35.3,25.7c1,2,1.6,4.6,0.3,6.5c-1.1,1.7-3.4,2.3-5.5,2.4c-8.6,0.4-16.5-4.3-24.4-7.9
		c-7.9-3.5-17.6-5.8-24.7-0.8c-8.8,6.1-6.4,22.3,3.7,25.7c5.8,1.9,12.1,0,18.2-0.2c6.1-0.3,13.5,2.4,14.5,8.4
		c1.7,10.2-14.9,13.5-18.3,23.3c-2.8,7.8,4.9,16.1,13,17.5c8.2,1.5,16.4-1.6,24.3-4c6.3-1.8,14.7-2.4,17.6,3.5
		c4.6,9.5-12.6,18.4-9.6,28.5c1.3,4.5,6.4,6.9,11,7c7.2,0.1,13.9-4,18.6-9.4s7.8-12,10.7-18.6"/>
	<path fill="none" stroke="#2E2B2C" stroke-width="126" stroke-miterlimit="10" stroke-opacity="0" d="M342,333.4
		c2,6.8,10.4,9.1,17.4,10.2c54.2,8.6,108.8,14.9,163.6,18.9c7.4,0.5,15.1,1.1,21.7,4.7c6.5,3.6,11.6,11,10,18.3
		c-2.2,9.5-13.6,13.3-23.2,14.6c-46.7,6.7-94.6-2.1-141.2,4.8c-5.2,0.8-10.6,1.8-15,4.9s-7.3,8.7-5.7,13.7
		c2.4,7.6,12.2,9.2,20.1,9.4c51.4,1.6,102.7,3.2,154.1,4.8c6.6,0.2,13.7,0.5,19.1,4.4c5.4,3.8,7.9,12.4,3.3,17.1
		c-1.8,1.8-4.3,2.7-6.7,3.5c-67.7,22.5-141.1,10.7-212.4,10.2c-7.2,0-15.8,0.8-19.4,7c-2.9,5.1-0.9,12,3.3,16.2
		c4.2,4.2,10.1,6.2,15.8,7.7c19.5,5.2,39.8,6.4,60,7.5c33.6,1.9,67.4,3.8,100.6-1.6c13.5-2.2,27.2-5.5,40.5-2.7s26.2,14.2,25,27.7
		c-19.1,7.5-40,8.2-60.5,8.6c-44.3,0.9-88.6,1.1-132.9,0.8c-6.6-0.1-13.8,0-19,4.1c-5.3,4-6.5,13.6-0.7,16.7c2,1.1,4.4,1.2,6.7,1.2
		c9.1,0.1,18.1-0.3,27.1-1.4c60.2-7,119.2,0.7,178.8,11.9c7.7,1.5,17.2,5.5,17.1,13.4c-0.1,7.3-8.3,11.3-15.3,13.3
		c-65.1,18.3-135.5,2.7-201.8,16.2c-8.9,1.8-19.5,6-20.7,15c-0.8,6.4,3.9,12.4,9.7,15.2s12.4,3,18.8,3.2
		c37.1,0.9,74.3,0.9,111.4-0.2c11.3-0.3,22.7-0.7,33.6,2.4c10.8,3.1,21.1,10.4,24.8,21c-31.5,13.4-66,19.8-100.2,18.6
		c-16.1-0.6-32.5-2.8-48.1,1.4s-30.3,17-30.3,33.1c0,1.8,0.2,3.7,1.4,5.1c0.9,1,2.1,1.6,3.3,2.1c37.3,15.4,79.8-1.5,120,2.3
		c7.2,0.7,14.7,2.2,20.3,6.8s8.5,13.1,4.9,19.4c-2.6,4.5-7.7,6.7-12.6,8.3c-36.1,11.8-75.9,1.9-113.2,9.4c-7,1.4-14.3,3.6-19.5,8.6
		s-7.7,13.4-3.9,19.6c20.9,4.3,42.6,5.1,63.8,2.3c13.3-1.7,27.1-4.8,39.9-0.9c12.8,4,23.6,18.4,18.1,30.6c-21,2.9-42.3,3.8-63.4,2.7
		c-10.7-0.6-22-1.6-31.8,2.9s-17,16.8-11.8,26.2c4.7,8.6,16.1,10.2,25.9,10.3c21.5,0.1,43-2.9,63.6-8.8c10.3-2.9,22.4-6.2,30.7,0.5
		c-2.7,9.5-13.4,18-22.8,20.8s-19.5,2.8-29.3,4.2c-13.5,1.9-26.6,6.3-38.5,12.9c-3.6,2-7.3,4.5-8.4,8.4c-1.4,4.8,1.8,9.9,6.2,12.3
		c4.3,2.4,9.5,2.7,14.5,2.8c7.9,0.1,15.8-0.2,23.5-1.5c18.1-3.1,36.9-11.7,54.1-5.2c6.4,2.4,12.7,9,10.1,15.4
		c-2.1,5.1-8.4,6.7-13.9,7.1c-26.4,2.4-55-3.5-78,9.6c-3.9,2.2-8,6.3-6.5,10.5c1.1,3.2,4.7,4.6,8,5.5c45.4,13,119.9,4.6,155.9-26.6"
		/>
</g>
</svg>
