<?xml version="1.0" encoding="utf-8"?>
<!-- Generator: Adobe Illustrator 21.0.0, SVG Export Plug-In . SVG Version: 6.00 Build 0)  -->
<svg version="1.1"
	 id="svg2" xmlns:cc="http://creativecommons.org/ns#" xmlns:dc="http://purl.org/dc/elements/1.1/" xmlns:rdf="http://www.w3.org/1999/02/22-rdf-syntax-ns#" xmlns:svg="http://www.w3.org/2000/svg"
	 xmlns="http://www.w3.org/2000/svg" xmlns:xlink="http://www.w3.org/1999/xlink" x="0px" y="0px" width="1000px" height="1000px"
	 viewBox="0 0 1000 1000" enable-background="new 0 0 1000 1000" xml:space="preserve">
<g id="vs-highlight">
	<path id="path5" fill="#5DBFD9" d="M519.9,78.7c-0.6-7.6,1.4-14.1,2.3-16.8c2.5-7.1,5-7.6,6.9-15.3c0.9-3.6,1-5.9,3.1-9.2
		c0.8-1.2,2.1-3,6.1-6.1c4.9-3.8,9.3-6.2,12.2-7.6c7.8-3.9,11.7-5.9,16-6.1c7.1-0.4,12.6,2.4,15.3,3.8c4.2,2.2,6.9,5.1,12.2,10.7
		c7.7,8.2,11.6,12.4,14.5,19.1c0.9,2.1,2.1,6.5,4.6,15.3c2.9,10.3,2,8.8,3.1,11.4c0.7,1.7,1.5,3.5,1.5,6.1c0,1.9-0.5,3.1-1.5,6.1
		c-3.5,9.7-3.9,11.4-6.1,13c-1.3,0.9-2.7,1.3-3.8,1.5c0.3-3,0.6-7.2,0.8-12.2c0.2-5.2,0.3-8.5,0-12.2c-0.6-7.6-2.7-13.1-4.6-18.3
		c-3.9-10.4-5.9-15.6-10.7-19.8c-5-4.3-10-5.5-19.1-7.6c-7.5-1.8-13.1-3-19.8-0.8c-5.5,1.8-9,5.1-9.9,6.1c-3.2,3.2-4.8,6.6-6.1,9.9
		c-3.4,8.7-5.6,18.7-6.9,34.3c-0.3,4-0.7,9.4-0.8,16C525.9,96.2,520.7,88.8,519.9,78.7z"/>
	<path id="path7" fill="#5DBFD9" d="M494.7,158c-0.8-1.6,1-3.3,4.6-9.2c1.3-2.1,3.4-6.3,7.6-14.5c3.7-7.2,5.5-10.8,6.9-14.5
		c3-8,3.4-16.2,3.8-20.6c0.6-7,0.3-11.2,1.5-11.4c1.3-0.3,2.7,4.1,6.9,9.9c2.8,3.9,5.6,6.6,7.6,8.4c1.3,4,2.7,7,3.8,9.2
		c1.6,3.1,3.2,5.3,9.2,13.7l0,0l0,0c1.4,8.6,1.7,10,1.5,12.2c-0.5,6.9-4.8,12.6-6.1,12.2c-1.1-0.3,0.7-4.3-1.5-8.4
		c-1.9-3.5-5.5-5-8.4-6.1c-3.7-1.4-8.3-3.4-13-1.5c-5.6,2.2-8.2,8.8-9.2,11.4c-1.9,5-0.8,7.1-3.1,9.2
		C503.4,161.3,496,160.8,494.7,158z"/>
	<path id="path9" fill="#5DBFD9" d="M540.5,15.4c0.2,0.2-4.3,4.5-3.1,6.9c1.7,3.2,12.6,0.1,13,1.5c0.3,1.1-6.6,2.1-12.2,7.6
		c-2.4,2.3-2.8,3.8-9.2,16.8c-5.3,11-5.8,11.5-6.1,11.4c-1.6-0.4-1.3-14.9,5.3-28.2C533.3,21.4,540.3,15.2,540.5,15.4z"/>
	<path id="path11" fill="#5DBFD9" d="M619.8,97.8c-2.2-0.4-7.7,9.9-6.9,17.5c0.1,0.7,0.6,5.2,0.8,10.7c0,0.5,0,1.1,0,1.9
		c-0.1,2.9-0.2,8.3-1.5,8.8c-1.4,0.4-3.9-3.7-5.3-6.9c-1.8-3.9-4-10.8-2.3-21.4c-2.5,10.1-3.1,18.5-3.1,24.4
		c-0.1,11.6,2,14.9,3.8,16.8c2.3,2.4,6.2,4.5,10.7,4.6c3.1,0.1,5.6-0.9,6.9-1.5c-1.6-1.7-5-5.9-6.1-12.2c-0.4-2.1-1.3-7.8,1.5-13
		c1.6-2.9,2.7-2.6,3.8-5.3c1.2-3,0.8-5.4,0-11.4C620.4,98.9,620.5,97.9,619.8,97.8z"/>
	<path id="path13" fill="#5DBFD9" d="M631.3,66.5c-0.4,0.2,4,11.3,5.3,27.5c0.5,6.6,1.4,17.6-2.3,19.1c-2.9,1.1-7.2-4-8.4-5.3
		c-5.8-6.7-6.2-14.9-6.1-18.3c5,11.3,4.5,19.5,3.8,23.6c-0.7,4-2.6,11-4.6,16.8c-1.4,4.3-2.1,5.6-2.3,8.4c-0.3,5,1.3,12.4,6.1,14.5
		c0.7,0.3,0.8,0.2,7.6,0c7.6-0.2,9.2-0.2,10.7-1.5c1.6-1.4,1.1-2.8,3.1-4.6c1.8-1.6,3.9-2.1,5.3-2.3c0.6-2.6,1.4-6.6,1.5-11.4
		c0.4-11.9-3.1-20.1-7.6-32C636.1,81.3,631.6,66.3,631.3,66.5z"/>
	<path id="path15" fill="#5DBFD9" d="M551.2,133.6c-3.1,0.2-6.3,8.8-3.8,11.4c1,1,2.1,0.4,5.3,0.8c3.9,0.5,6.6,1.8,10.7,3.8
		c7,3.5,6.5,5.3,9.2,5.3c5.6,0.2,6.8-7.2,13-7.6c4.7-0.3,9,3.7,11.4,6.1c2.4,2.3,1.7,2.5,5.3,6.9c5,5.9,6.9,6.2,8.4,9.9
		c0.6,1.5,2.1,5,0.8,8.4c-1.1,2.7-3.4,4.2-12.2,7.6c-11.4,4.5-10.4,3.2-14.5,5.3c-4.7,2.5-12.7,7.7-15.3,10.7
		c-0.4,0.5-1.8,2.1-4.1,3.3c0,0-0.6,0.3-1.2,0.5c-3.4,1.2-12.9-4.3-16.8-6.1c-9-4.2-10.5,1.1-22.1-3.1c-3.7-1.3-10-3.7-14.5-9.9
		c-3.1-4.2-4-8.5-4.3-9.8c-1.4-6.6,0.3-11.4-0.2-11.5c-0.6-0.2-3.1,5.4-3.8,12.2c-0.5,4.7-1.1,10.5,2.3,16c3,4.7,7.4,6.8,9.2,7.6
		c3.7,1.7,5.6,1.4,16.8,2.3c7.3,0.6,11,0.9,13,1.5c4.1,1.2,9.6,4.1,15.3,11.4c11.4-9.6,20.9-14.8,26.7-17.5
		c8.9-4.2,14.5-6.1,14.5-6.1c3.7-1.2,7.3-2.2,13-4.6c6.6-2.7,7.9-4,8.4-4.6c2.4-2.7,2.3-4.9,5.3-9.9c1.4-2.4,2.9-4.2,3.8-5.3
		c-2.5-0.8-6-2.2-9.9-4.6c-2.8-1.8-7.9-4.8-12.2-10.7c-4.3-5.8-5.9-11.4-6.9-15.3c-1-3.7-2.1-9.5-1.5-16.8c-1.4,1.4-3.9,3.8-6.9,6.9
		c-9.2,9.3-11.1,11.6-15.3,13c-3.6,1.1-6.6,1-9.9,0.8c-4-0.2-8-0.5-11.4-3.1C553,136.4,552.9,133.5,551.2,133.6z"/>
	<path id="path17" fill="#5DBFD9" d="M641.2,151.1c-3.6-6.6-31.3-0.5-31.3,3.8c0,1.4,3.1,1.3,9.2,5.3c7.3,4.9,8,8.5,11.4,8.4
		c5-0.2,8.3-8,9.2-9.9C641.1,155.5,642.2,153,641.2,151.1z"/>
	<path id="path19" fill="#5DBFD9" d="M654.9,149.6c-0.8,0.5,1.4,3.8,2.3,9.9c0.5,3.8,1.5,11.1-2.3,16c-3.9,5-10.8,4.9-10.7,7.6
		c0,1.6,2.5,2.8,3.1,3.1c5.6,2.7,11.8-2.3,13-0.8c0.9,1.1-2.1,5-6.1,9.9c-6.6,8.1-9.8,12.1-11.4,13.7c-3.6,3.7-11.7,11.9-23.6,19.1
		c-10.9,6.6-12.3,4.7-25.9,11.4c-15.1,7.6-25.2,15.9-28.2,18.3c-3.4,2.9-14.9,12.7-25.9,28.2c-5.6,7.9-7.9,12.6-15.3,20.6
		c-7.6,8.2-13.2,14.1-19.1,13c-7.7-1.5-10.8-14.1-11.4-16.8c-2.1-9.6,0.9-17.7,2.3-21.2c2.1-5.3,4.9-9.2,6.9-11.6
		c-4.3,8.3-8.5,14.7-11.4,19.1c-3.9,5.7-5.5,7.3-6.9,11.4c-1.8,5.3-0.8,8.3-2.3,16.8c-0.8,4.8-1.7,8.8-2.3,11.4
		c2.4,2.7,6.1,6.6,11.4,12.2c2.4,2.6,5,5.3,9.2,6.9c2.3,0.9,4.9,1.9,6.9,0.8c2.5-1.4,1.6-5.1,3.1-12.2c0.5-2.1,1.7-8.1,4.6-13
		c3-5,6.7-7.2,10.7-9.9c7.5-5.2,3.5-3.9,21.4-19.1c9.4-8,16.6-13.7,23.6-19.1c10-7.8,15.5-12.1,23.6-17.5c12-8.1,11.1-6.4,19.1-12.2
		c3.5-2.6,10.8-8.8,25.2-21.4c3.9-3.4,6.5-5.6,11.4-9.9c8.8-7.6,13.2-11.4,15.3-13c6.6-5.1,8.7-5.9,13.7-10.7
		c8.8-8.2,7.9-10.8,7.6-11.4c-0.4-0.9-1.2-1.1-3.8-2.3c0,0-4.3-2-8.4-4.6c-4.1-2.6-3.5-5.1-8.4-12.2
		C661.5,154.4,656.1,148.9,654.9,149.6z"/>
	<path id="path21" fill="#5DBFD9" d="M470.3,176.3c2.6,0.1,3.4,7.5,9.9,25.2c2.1,5.6,4.3,11.1,9.2,16.8c3.3,3.8,5.9,5.5,6.9,6.1
		c5.7,3.5,11.5,3.9,14.5,3.8c-1.1-0.2-8.2-1.5-13,3.1c-3.1,3-3.4,6.8-3.8,12.2c-0.4,5-0.8,11.1,2.3,13c1.9,1.2,4.3,0.2,12.2-3.1
		c3.3-1.4,8.2-3.4,14.5-6.1c-3.1,2.5-7.6,6.5-12.2,12.2c-9,11.3-13,22.8-15.3,22.1c-1.4-0.5,0.1-5.2-3.1-11.4
		c-1.4-2.7-2.3-3.1-3.8-5.3c-1.1-1.8-3.2-5.6-3.1-21.4c0.1-3.6,0.2-8.5,0.8-14.5c-0.9-2.7-2.7-6.8-6.1-10.7
		c-3.1-3.5-6.6-5.6-12.2-9.2c-9-5.6-11.6-5.7-12.2-8.4c-0.7-3.1,2.4-4.5,7.6-13C468.3,179.9,468.5,176.3,470.3,176.3z"/>
	<path id="path23" fill="#5DBFD9" d="M645,242.7c-0.5-0.1-0.6,4-3.6,9.8c-4.2,8.4-10.4,13.2-12.4,14.6c-9.3,6.7-19,7.6-22.9,7.6
		c1.1,0.2,7.6,1.7,10.7,7.6c0.4,0.8,3.1,5.9,0.8,9.9c-1.2,2.2-3.4,3.1-6.9,4.6c-5.3,2.2-9.2,2.2-9.2,3.1s3.8,0.6,7.6,3.1
		c3.4,2.1,5,5.3,5.3,6.1c3.1,6.2,1.3,14.3-3.1,19.1c-2.1,2.4-5.6,3.7-12.2,6.1c-5.1,1.9-8.8,2.9-15.3,4.6
		c-16.2,4.3-19.9,5.3-19.8,6.1c0.1,1,4.6,0.4,13,2.3c6.6,1.5,7.4,2.7,13.7,3.8c3.7,0.7,7.2,1.3,11.4,0.8c5.1-0.6,8.5-2.4,11.4-3.8
		c4.7-2.2,11.7-5,21.4-6.9c-0.5-1.8-1-4.5-1.5-7.6c-0.9-5.3-1.8-10.4-1.5-16c0.2-3.9,0.6-2.7,2.3-13c1.4-8.5,2.1-12.9,1.5-16
		c-0.8-4.6-2.4-6.3-1.5-9.9c0.8-3.5,3.2-5.5,4.6-6.9C648.1,262.3,646.1,242.8,645,242.7z"/>
	<path id="path25" fill="#5DBFD9" d="M635.8,288.4c0.8-0.2,4.4,8.2,6.9,16c3.7,12,2.8,16.7,6.9,19.1c4,2.4,7.5-0.8,14.5,1.5
		c4,1.4,6.8,3.7,8.4,5.3c-8.8,2.7-16.3,5.4-22.1,7.6c-3.9,1.4-5.9,2.2-7.6,3.1c-10.2,4.7-12.5,8.6-19.8,11.4c-4,1.5-7,1.8-13,2.3
		c-16.9,1.4-19.4-3-33.6-2.3c-14.4,0.8-16.5,5.5-26.7,3.1c-4.7-1.1-14.5-4.6-14.5-4.6l0,0c3.7-0.7,9.2-1.5,16-1.5
		c3.8,0,6.6,0.2,12.2,0.8c24.9,2.4,26.3,3.5,32,2.3c3.4-0.7,2.2-0.9,14.5-4.6c4.4-1.3,6.7-1.9,13-3.8c8.3-2.5,11.1-3.5,14.5-5.3
		c3.1-1.7,5.3-3.4,6.9-4.6C636,297.1,635,288.7,635.8,288.4z"/>
	<path id="path27" fill="#5DBFD9" d="M454.3,211.4c2.1,8.7,8.8,8.2,13.7,17.5c2.2,4.1,3.1,10.6,4.6,23.6c1.6,13.6,0.5,11.4,2.3,28.2
		l0,0c0.7,4.3,0.7,8.4,0.8,19.4c0,0.2,0,0.2,0,0.4c0,4.7,0.2,11.1-2.3,12.2c-1.9,0.8-3.4-1.5-9.2-3.8c-3.4-1.4-9.1-3.6-14.5-1.5
		c-1.9,0.7-5.5,2.6-5.3,4.6c0.2,2.7,6.8,1.8,13.7,6.9c3.7,2.7,3,3.8,9.9,10.7c2.4,2.4,4.2,3.9,7.6,6.9c9.2,7.9,10.1,8.9,12.2,9.9
		c5.3,2.4,11.6,3,12.2,1.5c0.8-1.9-8.2-8.2-13.7-12.2c-3.7-2.6-5.9-4-6.9-6.9c-1.1-3.6,0.5-7,1.5-9.2c3.1-6.9,0.1-4.8,5.3-30.5
		c2.4-11.8,3.4-13.7,3.1-19.1c-0.4-6.9-2.1-6.9-3.1-14.5c-1.8-13.7,3.2-17.7,0-26.7c-1.2-3.4-3.9-6.4-9.2-12.2
		c-5.4-6-16.8-18.5-21.4-16C453.2,202.1,453.5,207.9,454.3,211.4z"/>
	<path id="path29" fill="#5DBFD9" d="M651.1,376.2c-0.2-0.9-14,4.3-32.8,1.5c-14.1-2.1-19.8-6.9-25.9-3.1c-6,3.8-4.7,11.3-12.2,15.3
		c-1.6,0.8-3,1.1-12.2,1.5c-15.7,0.6-23.6,0.9-27.5,0.8c-5.7-0.2-10.8-0.7-16,2.3c-2.1,1.2-5,3.3-4.6,4.6c0.5,1.4,4.4,0.7,12.2,1.5
		c5.9,0.7,5.2,1.3,9.2,1.5c7.8,0.5,9-2,16-1.5c6.8,0.5,6.9,2.9,11.4,2.3c3.3-0.5,3.8-1.8,13-7.6c4.9-3.1,7.4-4.7,10.7-6.1
		c3.5-1.5,6.6-2.2,10.7-3.1c9.5-1.9,16.9-2.7,19.8-3.1C638,381.2,651.3,377,651.1,376.2z"/>
	<path id="path31" fill="#5DBFD9" d="M461.9,371.6c0,0.1,11.7-0.9,27.5,3.8c7.4,2.2,13,4.9,21.4,3.8c4-0.5,4.4-1.4,9.2-2.3
		c9.4-1.8,16.1,0.9,21.4,0.8c12-0.2,22-2,29.7-3.8c-9.5,8.2-16.6,9.5-21.4,9.2c-2.7-0.2-6.2-1.1-13.7-1.5c0,0-3.5-0.2-9.2,0
		c-6.4,0.2-7.9,0.8-9.2,1.5c-2.7,1.7-4,4.4-4.6,6.1c-1.3-1.4-3.3-3.4-6.1-5.3c-2.7-1.8-5.3-3-7.6-3.8
		C488.9,376.2,461.9,371.4,461.9,371.6z"/>
	<path id="path33" fill="#5DBFD9" d="M521.4,364.7c6.6-1.6,9.2,2.6,18.3,3.8c6.7,0.9,7.7-1.1,16,0c4.3,0.5,7.7,1.5,9.9,2.3
		c-6.2,1.5-11.4,2.1-15.3,2.3c-4.8,0.2-10.1-0.4-20.6-1.5c-12.4-1.4-14.3-2.1-14.5-3.1C515.2,367.2,518.5,365.4,521.4,364.7z"/>
	<path id="path35" fill="#5DBFD9" d="M459.7,380.7c1.1,5.3,9,5.2,11.4,9.9c2.7,5.2-3.3,12.1-8.4,20.6c-10.5,17.4-4.9,20.4-16.8,45.8
		c-7.2,15.3-9.3,14.4-14.5,26.7c-6.6,15.4-8.5,29.4-9.2,38.9c2.4-2.1,5.6-5.2,9.2-9.2c4-4.5,11.4-13.5,18.3-27.5
		c5.6-11.4,4-12.1,11.4-32c5.3-14.1,8.2-21.8,13.7-32c5.6-10.3,10.4-16.6,19.1-33.6c1.7-3.2,3-5.9,3.8-7.6
		c-1.4-0.8-28.1-15-35.8-6.9C460.8,375.1,459,377.9,459.7,380.7z"/>
	<path id="path37" fill="#5DBFD9" d="M494,388.4c5.1-1.3,9,9.5,20.6,17.5c7.4,5.2,14.1,6.6,25.9,9.2c8.5,1.8,20.6,4.4,35.1,2.3
		c5.8-0.8,12.7-2.6,41.2-17.5c12.8-6.7,23.2-12.6,30.5-16.8c0.8,3.3,1.5,6.6,2.3,9.9c-3.2,2.4-7.6,5.7-13,9.2
		c-5.9,3.7-18.4,11.7-35.8,17.5c-10.7,3.6-26.1,8.6-46.5,7.6c-7.6-0.4-21.1-1.1-36.6-8.4c-14.3-6.6-23.7-15.6-29-21.4
		C489.4,393.8,490.9,389.1,494,388.4z"/>
	<path id="path39" fill="#5DBFD9" d="M618.3,417.3c-0.2,7.8,6,8.7,12.2,22.9c3.7,8.5,3.3,12.4,6.9,34.3c2.5,15.6,4,21.5,5.3,29
		c6.3,35.8,0.3,63.8,2.3,129.7c0.8,25.9,2.1,37.5,3.8,47.3c4.4,26.5,8.6,27.8,11.4,48.1c3.5,24.9-2.4,25.5-3.1,68.6
		c-0.5,32.7,2.8,45.8-6.1,51.9c-7.9,5.3-19.8,1.3-25.9-2.3c-11.1-6.5-17.3-19.5-16-33.6c-6.9,13.2-7.2,23.5-6.1,30.5
		c1.6,10.2,7.7,18.5,19.8,35.1c9.2,12.7,14.3,17.2,19.1,29c2,5,4,9.9,4.6,16.8c1.9,21.9-12.4,38.1-15.3,41.2c-8.8,9.6-19,14-25.2,16
		c16.6-4.3,33.9-8.1,51.9-11.4c4.3-0.8,8.7-1.6,13-2.3c1.1-8.3,2.5-19.8,3.8-33.6c0.7-7.3,3.1-34.2,3.8-74.7
		c0.6-37.5,1-57.1-1.5-84.7c-1.8-20.6-3.3-23.8-8.4-69.4c-2.7-23.6-4-35.4-4.6-44.2c-1.6-22.4-1.2-35.3,0-100.7
		c0.5-31,0.8-46.6,0.8-49.6c-1.3-45.4-6.7-41.1-9.2-87.7c-1-19-0.5-27.8-6.1-30.5C640.1,388.3,618.7,403.1,618.3,417.3z"/>
	<path id="path41" fill="#5DBFD9" d="M600.8,419.6c1.9,2.9-2.6,6.9-5.3,16c-2,6.5-2.1,12.7,0,27.5c3.5,23.9,7.3,30.7,9.9,47.3
		c1.3,8,2.5,20.3,1.5,35.8c5.8,17,12.7,43.8,10.7,76.3c-1.1,17.6-4,23.4-17.5,76.3c-10.1,39.4-15.9,65.2-19.8,96.1
		c-3.7,29.2-3.3,44.7,3.1,59.5c2.1,5,5.9,12.3,12.2,27.5c5.6,13.6,8.4,20.4,9.9,25.9c5,18.5-0.3,18.7,3.1,50.3
		c1.1,11.1,2.7,19.2-2.3,23.6c-2.7,2.4-5.9,2.2-12.2,3.1c-11.5,1.6-16.7,4.6-24.4,6.9c-8.9,2.6-23.1,4.8-46.5,3.1
		c5.6-3.1,13.6-8.5,21.4-16.8c5.2-5.5,16.3-18.9,21.4-38.9c2-7.9,1.8-18.6,1.5-39.7c-0.3-17.3-1-24.8-1.5-38.9
		c-0.8-21.3-0.5-41,0-51.9c0.9-18.1,3.1-24.3,13.7-73.2c15.6-71.9,16.9-86.3,17.5-96.9c1.4-23.8,0-43.7-0.8-54.9
		c-2.2-32.3-5.3-30.7-8.4-68.6c-1.3-15.7-1.5-26.3-6.1-42c-3.7-12.9-7-23.5-16-32c-15.2-14.3-36.1-12.8-35.8-15.3
		c0.2-2.1,16.6,0.6,40.4-3.1C587.4,420,598.2,415.6,600.8,419.6z"/>
	<path id="path43" fill="#5DBFD9" d="M433,974.9c-8.7-13.9,27.4-32.9,46.5-81.6c14.1-35.8,21.5-94.4,29.7-118.2
		c1.3-3.8,2.7-7.7,2.7-7.7c4-10.9,7.6-19.8,10.2-25.9c-3.2,18.5-6,42.9-5.3,71.7c0.9,39.9,7.6,47.4,5.3,84.7
		c-2.1,33.9-9.4,56.6-15.3,70.9c-4,10-8.2,18-11.4,23.6c-8.7-1.2-20.6-3.3-34.3-6.9C444,981.1,435.4,978.8,433,974.9z"/>
	<path id="path45" fill="#5DBFD9" d="M493.2,419.6c1.3,0.2,0.4,33.8-4.6,74c-4.6,37.4-11.1,67.9-16,90.8c-6.2,28.5-8.1,33.3-13,54.9
		c-9.5,42.3-9.8,57.8-19.8,128.1c-9.1,63.3-13.7,95.4-20.6,117.5c-13,42.1-31,74.1-44.2,94.6c3.8-29.2,7.6-58.5,11.4-87.7
		c4-8.8,10.5-24,16.8-43.5c12-37.5,11.7-56,25.9-141.1c5.5-33,5.5-29.9,9.2-53.4c5.4-34.7,6-45.1,11.4-66.4c1.1-4.6,5.1-17.1,13-42
		c15.4-48.7,15.4-47.7,17.5-55.7C491.4,448.6,492,419.5,493.2,419.6z"/>
	<path id="path47" fill="#5DBFD9" d="M569.5,167.9c1.7,0.2,3.5,0.2,3.5,0.2c3.8-0.1,6.7-0.9,8-1.3c1-0.3,2-0.7,3-1.1
		c8.6-4,11.5-10,17.5-9.9c2.4,0,4.3,1,5.3,1.5c3.6,1.8,5.4,4.8,6.1,6.1c-1,3.5-2.7,7.9-6.1,12.2c-10.1,13-25.7,14.3-28.2,14.5
		c-5.7,0.4-10.4-0.6-13.7-1.5c3.4,0.2,9.5-0.1,16-3.1c3.7-1.6,6.4-3.7,8.4-5.3c0.8-3,1.4-6.6,0-7.6c-1.4-0.9-3.7,1.7-7.6,3.1
		c-6.7,2.4-14.7,0-19.8-3.8c-3.7-2.8-5.6-6.3-7.6-9.9c-1.1-2.1-2.9-5.7-2.3-6.1C553.1,155,561.3,166.9,569.5,167.9z"/>
</g>
<g id="vs-outline">
	
		<path id="path50" fill="none" stroke="#000000" stroke-width="5" stroke-linecap="round" stroke-linejoin="round" stroke-miterlimit="10" d="
		M533.8,60.7c-1.2,6.4-0.6,5.3-2.1,13.8c-1.5,8.8-2.4,10.7-2.1,15.2c0.2,3.8,1.1,7.2,2.1,11c0.4,1.5,1.4,5.3,2.7,8.9
		c2.7,7,6.3,11.5,12.4,19.3c5.2,6.6,7.9,9.8,11.7,11.7c1.4,0.7,6.6,3.1,13,2.1c5.1-0.8,8.5-3.3,12.4-6.2c0.7-0.5,1.6-1.2,8.2-7.6
		c5.5-5.3,8.2-7.9,8.9-8.9c2.5-3.8,2.7-7,3.4-16.6c1.8-21.1,2.4-18.8,2.1-22.7c-0.7-7.7-2.7-13-6.9-23.4c-3.5-8.8-5.3-13.3-8.9-16.6
		c-4.8-4.2-10-5.3-17.9-6.9c-6.6-1.4-12.2-2.5-19.3-0.7c-3.3,0.8-9.4,2.4-13.8,7.6C536.8,44.4,535.8,49.9,533.8,60.7z"/>
	
		<path id="path52" fill="none" stroke="#000000" stroke-width="4" stroke-linecap="round" stroke-linejoin="round" stroke-miterlimit="10" d="
		M556.5,99.2c-0.2,4,0.6,5.2,1.4,5.5c0.4,0.2,0.6,0.1,2.7,0c1.5-0.1,2.3-0.1,2.7,0c2.2,0.2,2.3,1.2,4.1,1.4c1.1,0.1,2.1-0.2,3.4-0.7
		c2.1-0.8,2.2-1.3,3.4-1.4c1.8-0.1,2.6,1.1,3.4,0.7c0.4-0.2,0.8-0.9,0.7-2.7"/>
	
		<path id="path54" fill="none" stroke="#000000" stroke-width="4" stroke-linecap="round" stroke-linejoin="round" stroke-miterlimit="10" d="
		M575.8,82c1.6-1.5,4.1-3.5,7.6-4.8c2.1-0.8,5.1-2,8.9-1.4c2.4,0.4,4.3,1.4,5.5,2.1"/>
	
		<path id="path56" fill="none" stroke="#000000" stroke-width="4" stroke-linecap="round" stroke-linejoin="round" stroke-miterlimit="10" d="
		M580.6,81.4c2.7,0.9,4.9,1.1,6.4,1.1c2,0.1,3.6,0.1,5.3-0.8c2.2-1.1,3.4-2.9,3.8-3.8"/>
	
		<path id="path58" fill="none" stroke="#000000" stroke-width="4" stroke-linecap="round" stroke-linejoin="round" stroke-miterlimit="10" d="
		M535.8,77.9c3-0.5,5.3-0.6,6.9-0.7c0.6,0,2.1-0.1,3.9-0.1c1.4,0.1,2.1,0.2,2.4,0.2c0.2,0,1.5,0.2,2.6,0.5c2.2,0.7,5,2.4,4.8,3.4
		c-0.2,0.8-2.6,1.1-3.8,1.1c-1.1,0.1-1.8,0-2.3,0c-3.4-0.2-4.6,0.2-6.1,0c-1.7-0.2-4-0.9-6.9-3.8"/>
	
		<path id="path60" fill="none" stroke="#000000" stroke-width="4" stroke-linecap="round" stroke-linejoin="round" stroke-miterlimit="10" d="
		M548.1,79.5c0.8-0.8,2.7-0.3,2.9,0.5c0.2,0.6-0.6,1.4-1.4,1.8c-0.2,0.1-1,0.4-1.5,0C547.5,81.3,547.5,80.1,548.1,79.5z"/>
	
		<path id="path62" fill="none" stroke="#000000" stroke-width="4" stroke-linecap="round" stroke-linejoin="round" stroke-miterlimit="10" d="
		M587.5,77.9c1.4-0.8,3.6,0.8,3.4,1.4c-0.1,0.4-1,0.2-2.4,0.9c-1.1,0.6-1.4,1.2-1.8,1.1C586.3,81.1,586.2,78.7,587.5,77.9z"/>
	
		<path id="path64" fill="none" stroke="#000000" stroke-width="4" stroke-linecap="round" stroke-linejoin="round" stroke-miterlimit="10" d="
		M574.4,73.7c-0.3-0.5,3.1-3.2,6.9-4.8c1.8-0.8,3.7-1.2,7.6-2.1c3.7-0.8,4.7-0.8,5.5-0.7c2.6,0.4,4.5,1.8,5.5,2.7
		c-2-0.2-4.8-0.4-8.2,0C581.5,69.8,574.8,74.3,574.4,73.7z"/>
	
		<path id="path66" fill="none" stroke="#000000" stroke-width="4" stroke-linecap="round" stroke-linejoin="round" stroke-miterlimit="10" d="
		M558.6,71.4c0.2-0.4-5.6-3.4-13-4.8c-6-1.2-8.2-0.5-9.6,0.7c-1.2,1.1-1.8,2.4-2.1,3.4c2-0.8,4.8-1.8,8.2-2.1
		C551.5,67.8,558.4,71.9,558.6,71.4z"/>
	
		<path id="path68" fill="none" stroke="#000000" stroke-width="4" stroke-linecap="round" stroke-linejoin="round" stroke-miterlimit="10" d="
		M553.8,115.1c0.5-1.4,6.3-0.8,7.6-0.7c2.7,0.3,3.1,0.6,5.5,0.7c1.7,0,2.4-0.2,4.1,0c1.8,0.2,1.9,0.4,4.1,0.7c3.1,0.5,5.6,0.8,8.2,0
		c1.4-0.5,1.9-0.9,2.1-0.7c0.4,0.5-2.4,4-6.2,6.2c-2.3,1.3-4.2,1.7-6.2,2.1c-3.7,0.8-6.6,1.4-9.6,0c-1.7-0.8-1.1-1.1-4.8-3.4
		c-0.6-0.4-2-1.2-3.4-2.7C554.2,116.1,553.6,115.5,553.8,115.1z"/>
	
		<path id="path70" fill="none" stroke="#000000" stroke-width="3" stroke-linecap="round" stroke-linejoin="round" stroke-miterlimit="10" d="
		M554.5,115.8c3.1,0.9,5.6,1.6,7.6,2.1c3.1,0.8,5,1.1,7.6,1.4c1.8,0.2,3.9,0.3,6.2,0c1.9-0.3,5.6-1.1,9.6-4.1"/>
	
		<path id="path72" fill="none" stroke="#000000" stroke-width="4" stroke-linecap="round" stroke-linejoin="round" stroke-miterlimit="10" d="
		M584.1,110.3c1.5,1.3,2.3,2.6,2.7,3.4c0.5,1,0.9,1.8,0.7,2.7c-0.2,1.1-1,1.8-1.4,2.1"/>
	
		<path id="path74" fill="none" stroke="#000000" stroke-width="5" stroke-linecap="round" stroke-linejoin="round" stroke-miterlimit="10" d="
		M531,103.4c-1.3-1.7-3-4-4.8-6.9c-2.7-4.3-4.1-6.6-4.8-8.9c-1.4-5,0.1-7.2-2.1-11.7"/>
	
		<path id="path76" fill="none" stroke="#000000" stroke-width="5" stroke-linecap="round" stroke-linejoin="round" stroke-miterlimit="10" d="
		M606.1,104.8c3.5-0.8,5.3-2.3,6.2-3.4c2.1-2.5,1.8-5,3.4-11c0.8-2.7,1.5-4.9,2.1-6.2"/>
	
		<path id="path78" fill="none" stroke="#000000" stroke-width="6" stroke-linecap="round" stroke-linejoin="round" stroke-miterlimit="10" d="
		M566.2,18c-11,3-18.6,6.9-23.3,9.6c-3.2,1.9-5.6,3.6-7.8,6.2c-2.8,3.3-3.4,5.6-6.5,13c-5.2,12.4-6.4,12.7-7.8,18.6
		c-0.7,3.1-0.6,3.9-1.3,13c-1.1,14.3-1.6,21.7-3.2,30.3c-1.4,7.9-2.2,12-4.5,17.2c-3.8,8.6-6,7.5-9.7,16.6
		c-2.1,5.2-5.3,9.8-7.1,15.2c-0.1,0.3-0.5,1.3-1.3,2.1c-1.5,1.3-3.7,1.1-5.2,0.7c1.1-4.4,4.3-17.3,5.2-20.7c4.3-17.1,5-20,7.1-24.8
		c4-8.9,5.4-7.7,9.1-16.6c3.3-7.9,3.1-11.3,6.5-22c2.3-7.4,4.7-13.3,6.5-17.2"/>
	
		<path id="path80" fill="none" stroke="#000000" stroke-width="5" stroke-linecap="round" stroke-linejoin="round" stroke-miterlimit="10" d="
		M548.1,147.3c0.8,2.7,2.4,7.1,6.1,11.4c1.8,2,6.8,7.8,15.3,9.2c5.7,0.9,10.2-0.7,14.5-2.3c10.4-3.9,17.6-10.7,22.1-16"/>
	
		<path id="path82" fill="none" stroke="#000000" stroke-width="5" stroke-linecap="round" stroke-linejoin="round" stroke-miterlimit="10" d="
		M543.6,155.7c0.2,2.1,0.6,5.5,2.3,9.2c2.6,5.6,6.6,8.7,9.2,10.7c5.5,4.3,10.8,5.7,12.2,6.1c1.1,0.3,6.3,1.6,13,0.8
		c2.3-0.3,8.8-1.1,15.3-5.3c10.4-6.7,13.7-17.4,14.5-20.6"/>
	
		<path id="path84" fill="none" stroke="#000000" stroke-width="5" stroke-linecap="round" stroke-linejoin="round" stroke-miterlimit="10" d="
		M535.2,155.7c0.3,2.8,1.1,6.9,3.1,11.4c1,2.3,2.7,6,6.1,9.9c4.8,5.4,10.3,7.7,13.7,9.2c1.8,0.8,5.9,2.3,11.4,3.1
		c3.2,0.5,13.9,1.8,24.4-3.1c15.7-7.3,20.6-23.9,21.4-26.7"/>
	
		<path id="path86" fill="none" stroke="#000000" stroke-width="6" stroke-linecap="round" stroke-linejoin="round" stroke-miterlimit="10" d="
		M521.4,62.7c0.8-6.3,4.3-24.5,5.5-28.1c1.8-5.3,3.3-9.5,6.9-13.8c3.1-3.7,6.3-5.6,8.2-6.9c11-6.8,22.1-6.9,26.2-6.9
		c1.2,0,5.8,0.1,11.7,1.4c9.3,2.1,15.9,5.9,18.6,7.6c1.7,1.1,8.9,5.7,16.6,15.9c4.3,5.7,8.2,14.9,15.9,33c6.9,16.3,9,22.6,10.3,26.8
		c0.3,0.9-0.1-0.2,4.8,17.2c3.5,12.5,5.1,18.1,5.5,26.2c0.2,3.2,0.1,5.8,0,7.6"/>
	
		<path id="path88" fill="none" stroke="#000000" stroke-width="5" stroke-linecap="round" stroke-linejoin="round" stroke-miterlimit="10" d="
		M566.2,18c2.1-0.1,4.9-0.1,8.2,0.7c1.4,0.3,5.9,1.4,11,4.8c4,2.6,5.6,4.8,13,14.5c11.3,14.4,14,17.5,14.5,23.4
		c0.3,3.5-0.5,3.7,0,7.6c1,7.4,4.3,9.5,6.2,16.6c1.2,4.5-0.2,3.9,0.7,12.4c1.3,12.7,4.3,13.7,2.7,19.3c-1.4,5.3-4.4,5.6-6.2,13
		c-0.6,2.5-1.2,5-0.7,8.2c0,0,3.7,6.5,7.6,14.6l-3.4-4.3"/>
	
		<path id="path90" fill="none" stroke="#000000" stroke-width="6" stroke-linecap="round" stroke-linejoin="round" stroke-miterlimit="10" d="
		M549.1,131.9c-0.2,2.5-0.5,4.7-1.3,8.9c-1.1,5.8-1.8,8.7-3.9,11.1c-2.9,3.2-6.8,3.8-11.7,4.6c-8.3,1.3-9.9-0.9-19,0
		c-2.9,0.3-2,0.5-12.4,2.6c-12.8,2.7-13.1,2.2-15.7,3.3c-2.3,0.9-6.3,3.1-15,15c-4,5.5-9.2,13.3-14.4,23.6c5,3.1,9.2,5.7,12.4,7.9
		c11.4,7.6,13.2,9.8,14.4,11.7c0,0,0.2,0.4,4.6,9.2l0,0"/>
	
		<path id="path92" fill="none" stroke="#000000" stroke-width="5" stroke-linecap="round" stroke-linejoin="round" stroke-miterlimit="10" d="
		M515.1,156.6c-2.3,1.4-7.5,5-10.4,11.7c-2.6,5.9-2.3,11-2,15c0.4,5.6,0.8,11.9,5.3,15.7c1.6,1.4,3.1,1.9,12.4,3.3
		c16.7,2.5,18.1,1.8,22.9,3.9c5.6,2.5,11.5,6.9,11.7,7.2c1.7,1.3,3,2.4,3.9,3.3c1.8-1.5,4.2-3.6,7.2-5.9c2.7-2.1,9.3-6.8,19.6-11.7
		c8.1-3.9,16.2-6.9,22.3-9.2c8.6-3.2,10.4-3.4,13.1-5.9c5.8-5.2,2.7-8.5,9.2-15.7c4.2-4.8,8.3-6.6,11.1-13.1c0.7-1.6,1.1-3,1.3-3.9
		c-10.2,0.9-18.3,1.8-25.6,2.6c-2.4,0.3-6,0.8-9.2-1.3c-2.8-1.8-4.2-5-5.3-9.8c-1.1-5.1-2.2-13.8,0-25.6"/>
	
		<path id="path94" fill="none" stroke="#000000" stroke-width="6" stroke-linecap="round" stroke-linejoin="round" stroke-miterlimit="10" d="
		M608,152.7c2.1,2.1,4.4,4.3,7.2,6.6c5.4,4.3,10.7,7.2,15,9.2"/>
	
		<path id="path96" fill="none" stroke="#000000" stroke-width="5" stroke-linecap="round" stroke-linejoin="round" stroke-miterlimit="10" d="
		M642.6,151.4c0.3-1.7,1.2-5.3,3.9-6.6c3.9-1.7,9.1,2.8,11.7,5.3c7.4,6.6,6.8,11.1,13.1,18.3c7.3,8.4,13.2,6.6,14.4,11.1
		c1.8,6.9-10.5,13.9-31.4,30.7c-22.6,18.3-20.2,19.8-39.2,33.9c-15.8,11.7-15.3,9-34.3,22.9c-10.2,7.4-7.3,6-38.4,30.8
		c-15.1,12.1-18.4,14.5-22.7,20.3c-8.8,11.8-11.7,22.1-13,30.5"/>
	
		<path id="path98" fill="none" stroke="#000000" stroke-width="5" stroke-linecap="round" stroke-linejoin="round" stroke-miterlimit="10" d="
		M558.9,216.8c-4.4,3.6-11.1,9-19,15.7C524,246,516,252.8,510.5,259.4c-10.6,12.5-16.5,24.4-19.6,30.7c-4,8.2-5.9,15.4-7.8,20.9"/>
	
		<path id="path100" fill="none" stroke="#000000" stroke-width="6" stroke-linecap="round" stroke-linejoin="round" stroke-miterlimit="10" d="
		M487,229.9c-0.5,1.8-0.9,4.2-1.3,7.2c-0.4,3.4-1.1,9.2,0,16.3c1,6.6,3.1,11.8,3.9,13.7c1,2.4,1.8,3.7,2.6,6.6c1.3,4,1.8,7.6,2,9.8"
		/>
	
		<path id="path102" fill="none" stroke="#000000" stroke-width="6" stroke-linecap="round" stroke-linejoin="round" stroke-miterlimit="10" d="
		M670.8,198.4c0.5,5.8,1.2,14.4,2,24.9c1.9,25.6,2.9,45.2,3.9,65.4c0.8,15.6,1.9,38,3.3,65.4c-1.6,2.7-4.3,6.6-8.5,10.4
		c-6.6,6.1-14,9.7-25.6,13.1c-27.7,8.1-37.6,3.5-56.9,12.4c-6.6,3.1-11.5,6.4-14.4,8.5"/>
	
		<path id="path104" fill="none" stroke="#000000" stroke-width="6" stroke-linecap="round" stroke-linejoin="round" stroke-miterlimit="10" d="
		M642.6,235.1c4.7,12,3.7,20.2,2,25.6c-3.1,9.2-9.3,12.3-10.4,22.9c-0.6,5.6,1.1,5,1.3,14.4c0.2,10.3-1.8,13.3-2,23.6
		c-0.1,3.6,0.1,9,1.3,15.7"/>
	
		<path id="path106" fill="none" stroke="#000000" stroke-width="6" stroke-linecap="round" stroke-linejoin="round" stroke-miterlimit="10" d="
		M635.5,277.6c5.8,39.7,8.6,59.5,8.5,59.6c0,0-0.2-1.3-0.7-3.9"/>
	
		<path id="path108" fill="none" stroke="#000000" stroke-width="5" stroke-linecap="round" stroke-linejoin="round" stroke-miterlimit="10" d="
		M660.3,329.9c-2.4-0.5-6-0.8-9.8,0.7c-4.4,1.6-6.1,4.5-9.2,7.2c-4.3,3.9-6.3,2.7-21.6,7.9c-14.5,4.8-14.5,6.4-20.3,6.6
		c-5.6,0.2-6.4-1.3-16.3-2c-2.8-0.2-6.7-0.2-14.4,0c-13.7,0.2-16.9,0.5-23.6,0c-4.9-0.4-8.4-2.9-9.8-1.3c-1.1,1.2-0.3,3.8,0.7,5.9"
		/>
	
		<path id="path110" fill="none" stroke="#000000" stroke-width="6" stroke-linecap="round" stroke-linejoin="round" stroke-miterlimit="10" d="
		M455.5,201.1c-0.5,6.6-1.4,16.3-2.6,28.1c-1.6,15.6-2.3,19.2-4.6,38.6c-4.8,41.6-2.1,28.6-4.6,46.5c-1.8,13-3.4,20.7-0.7,31.4
		c2.9,11.7,8.5,17.7,9.8,19c5.8,5.9,12.3,8.3,16.3,9.8c12.1,4.3,16.7,1.9,27.5,5.9c4.3,1.6,10.4,4.6,17,10.4"/>
	
		<path id="path112" fill="none" stroke="#000000" stroke-width="6" stroke-linecap="round" stroke-linejoin="round" stroke-miterlimit="10" d="
		M489.6,267.2c-3.3,21.4-6.6,40.4-9.8,61.9"/>
	
		<path id="path114" fill="none" stroke="#000000" stroke-width="5" stroke-linecap="round" stroke-linejoin="round" stroke-miterlimit="10" d="
		M460.1,315.6c11.8,6.8,19.8,13.8,24.9,19c7.2,7.4,11.1,13.5,19,14.4c4.1,0.5,6.4-0.9,13.7,0c1.8,0.2,5.9,0.8,11.1,2.6
		c11.3,4,11.7,8.3,17.7,7.9c1.8-0.2,5.8-0.8,10.4,0c1.1,0.2,2.4,0.5,2.6,1.3c0.4,1.4-2.4,3.2-2.6,3.3"/>
	
		<path id="path116" fill="none" stroke="#000000" stroke-width="5" stroke-linecap="round" stroke-linejoin="round" stroke-miterlimit="10" d="
		M559.6,360.7c2.4-0.7,4.8-1.3,7.2-2c-0.4,1.1-1.1,2.7-2.6,3.9c-3.2,2.5-7.3,1.2-12.4,0.7c-7.9-0.8-7.4,1.1-20.3,1.3
		c-3.4,0.1-8.3,0-14.4-0.7c-2.4,2.7-2.1,4.1-2,4.6c0.2,0.6,1,1.6,8.5,2.6c3,0.4,5.2,0.5,6.6,0.7c2.7,0.2,6.5,0.6,11.1,1.3"/>
	
		<path id="path118" fill="none" stroke="#000000" stroke-width="5" stroke-linecap="round" stroke-linejoin="round" stroke-miterlimit="10" d="
		M521.6,373.8c4.6,0.2,8.4,0.1,11.1,0c2.6-0.1,5.4-0.3,11.1-0.7c5.4-0.4,8.1-0.5,9.2-0.7c6.8-0.8,8.4-1.5,12.4-1.3
		c3.1,0.2,5.6,0.8,7.2,1.3c1.1,0.4,2.6,1.1,2.6,2c0,0.9-1.7,1.7-4.6,2.6c-5.6,1.8-10.2,2.4-11.7,2.6c-9.7,1.3-8.1,1.9-11.7,2
		c-7.1,0.1-7.6-2.2-15-2c-2.7,0.1-6.3,0.2-10.4,2c-2.4,1-6.6,3.3-6.6,3.3c-0.4,0.5-2.6,4-1.3,5.9c1.4,2.1,6.1,1.1,8.5,0.7
		c0.5-0.1,2.1-0.8,4.9-1.6c0.5-0.2,1-0.3,1.1-0.3c3.4-1.1,10.4,0.5,11.7,0.7c4.4,0.3,3.4-0.7,15.7-2c5.1-0.5,1.8,0,10.4-0.7
		c5.9-0.5,8-0.8,9.2,0.7c1.4,1.6,1,4.9-0.7,6.6c-1.8,1.8-4.1,0.5-10.4,0.7c-4.3,0.1-3.8,0.7-11.7,1.3c-7.2,0.6-9.4,0.2-10.4,0
		c-5-1.1-11.8,0.2-12.4,0c-1.3-0.3-2.4-0.5-3.9-1.3c-2.4-1.2-3.8-2.9-4.6-3.9"/>
	
		<path id="path120" fill="none" stroke="#000000" stroke-width="5" stroke-linecap="round" stroke-linejoin="round" stroke-miterlimit="10" d="
		M525.6,395.4c-3.4-0.2-5.8,1.6-5.9,3.3c-0.1,1.3,1.1,2.8,2.6,3.3c1.8,0.5,2.5-0.7,5.9-1.3c2.4-0.5,4.5-0.2,5.9,0
		c2.5,0.3,4,0.9,5.3,1.3c5.1,1.5,10,0.3,16.3-1.3c2.4-0.6,2.3-0.8,7.9-2.6c2.7-0.8,5-1.5,6.6-2"/>
	
		<path id="path122" fill="none" stroke="#000000" stroke-width="5" stroke-linecap="round" stroke-linejoin="round" stroke-miterlimit="10" d="
		M566.7,396.7c3.9-1.1,7.1,0.1,7.9,2c0.4,1,0.2,2.4-0.7,3.3c-1.3,1.3-3.6,0.9-5.3,0.7c-3.4-0.5-7.5-1.2-13.1-2"/>
	
		<path id="path124" fill="none" stroke="#000000" stroke-width="6" stroke-linecap="round" stroke-linejoin="round" stroke-miterlimit="10" d="
		M462.7,371.6c-10.4,30.4-23.1,77.5-34.6,126.5c-5.2,21.9-17.4,76.6-26.2,151.8c-10.8,92.8-5.2,121-16.3,238.1
		c-3.7,39.1-7.7,70.9-10.4,91.6c12.1-1.8,30.4-3.5,52.3-1.3c29.7,3,35.5,10.1,68,14.4c34.8,4.6,61.3,0.8,66.7,0
		c17.8-2.7,22.9-5.8,52.3-13.1c23.9-5.9,43.6-9.6,56.3-11.7c8.2-66.1,8.8-119.4,7.9-154.4c-2.4-95.4-16.4-107.1-15.7-202.8
		c0.4-53.2,5-76.3,0-130.9c-3.9-43.4-11.3-78.6-17-102.1"/>
	
		<path id="path126" fill="none" stroke="#000000" stroke-width="4" stroke-linecap="round" stroke-linejoin="round" stroke-miterlimit="10" d="
		M578.6,85.6c0.8,0.7,2.1,1.6,3.8,2.3c0.6,0.2,3.3,1.2,6.9,0.8c2.9-0.4,5-1.5,6.1-2.3"/>
	
		<path id="path128" fill="none" stroke="#000000" stroke-width="4" stroke-linecap="round" stroke-linejoin="round" stroke-miterlimit="10" d="
		M557.3,84.8c-1,0.8-2.2,1.6-3.8,2.3c-3.4,1.5-6.6,1.6-8.4,1.5"/>
	
		<path id="path130" fill="none" stroke="#000000" stroke-width="4" stroke-linecap="round" stroke-linejoin="round" stroke-miterlimit="10" d="
		M572.5,83.3c-0.3,2.4-0.2,4.1,0,5.3c0.2,1.7,0.6,2.3,1.5,6.1c0.5,2.1,0.8,3.1,0.8,3.8c0,1.4-0.3,3.5-2.3,6.1"/>
	
		<path id="path132" fill="none" stroke="#000000" stroke-width="4" stroke-linecap="round" stroke-linejoin="round" stroke-miterlimit="10" d="
		M552.7,104.6c-0.5,1.1-1,2.3-1.5,3.8c-1,2.8-1.5,4.3-1.5,6.1c0,1.4,0.3,2.7,0.8,3.8"/>
	
		<path id="path134" fill="none" stroke="#000000" stroke-width="4" stroke-linecap="round" stroke-linejoin="round" stroke-miterlimit="10" d="
		M564.9,61.9c0.1-0.8,0.9-1.4,1.5-1.5c1.2-0.4,2.9,0.4,3.1,1.5c0.2,1.1-1,2.3-2.3,2.3C565.9,64.2,564.8,63,564.9,61.9z"/>
	
		<path id="path136" fill="none" stroke="#000000" stroke-width="5" stroke-linecap="round" stroke-linejoin="round" stroke-miterlimit="10" d="
		M499.3,381.5c-4.3,5.6-8.7,11.7-13,18.3c-8.5,13.3-15.2,29.7-28.2,61.8c-9.4,23-11.1,27.1-15.3,34.3c-7.3,12.7-15,22-20.6,28.2"/>
	
		<path id="path138" fill="none" stroke="#000000" stroke-width="6" stroke-linecap="round" stroke-linejoin="round" stroke-miterlimit="10" d="
		M487.9,396.7c4.6,5.3,18.9,16.5,29.7,22.1c21.9,11.4,43.2,8.5,59.5,6.1c33.9-5,58.7-21.2,72.5-32"/>
	
		<path id="path140" fill="none" stroke="#000000" stroke-width="5" stroke-linecap="round" stroke-linejoin="round" stroke-miterlimit="10" d="
		M577.1,425c5.7,20,13.5,48.8,21.4,83.9c14.3,63.8,21.3,96.3,18.3,128.1c-3.3,35.2-11.5,31.7-25.9,99.2
		c-8.8,41.6-13.5,63.3-12.2,91.5c1.9,42.9,26.7,55.7,30.5,103.7c1.7,21.1-0.8,38.7-3.1,50.3"/>
	
		<path id="path142" fill="none" stroke="#000000" stroke-width="5" stroke-linecap="round" stroke-linejoin="round" stroke-miterlimit="10" d="
		M494.7,403.6c-0.8,16.2-3,37.1-9.2,65.6c-8.2,37.5-17.5,55.5-27.5,85.4c-7.6,23-13.2,57.1-24.4,125.1
		c-13,79.4-12.7,93.4-22.9,134.2c-9.2,36.9-19.6,66.2-26.7,84.7"/>
</g>
<g id="vs-h-reveal">
	<path id="path145" fill="none" stroke="#2E2B2C" stroke-width="105" stroke-miterlimit="10" stroke-opacity="0" d="M609.2,34.1
		c-16.9-4.9-34.3-7.9-51.9-8.8c-8.1-0.5-16.9-0.2-23.3,4.7c-6.4,4.9-8.2,16.2-1.4,20.7c2.1,1.4,4.8,1.9,7.3,2.2
		c15.9,1.9,32-1.5,48.1-0.9c16,0.6,33.6,6.6,40.7,21c0.8,1.7,1.4,3.5,1.1,5.3c-0.6,3.4-4.3,5.1-7.6,6c-30.1,8.1-61.4-10.3-92.4-7.4
		c-6.7,0.6-14.3,3.1-16.9,9.2c-2.7,6.4,1.4,14,7.5,17.6c5.9,3.6,13.2,4,20.2,4.4c18.5,1.1,36.8,2.1,55.3,3.2
		c11.2,0.6,22.9,1.4,32.6,7c9.7,5.6,16.6,17.7,12.7,28.1c-21,2.3-42.1-0.7-62.9-3.6c-34.2-4.8-68.5-9.5-102.7-14.3
		c-8.2,10.4-3.9,26.8,6,35.7s23.7,11.7,37,13.3c48.2,5.6,97.4-2.9,145.2,5.3c6.6,1.1,13.6,2.7,18.4,7.5c4.8,4.7,6.4,13.3,1.5,18
		c-3,2.8-7.4,3.4-11.4,3.9c-37.8,4-76,3.5-113.7-1.3c-36.6-4.7-75.1-13.3-109.5,0.1c-8.8,3.4-18.3,10.4-17.2,19.8
		c0.9,7.6,8.2,12.4,15.2,15.6c40.9,19.1,88,17.3,133.1,20.3c35.5,2.4,70.7,8,105.2,16.9c6.4,1.7,13.2,3.7,17.5,8.6
		c4.3,5,4.8,13.9-0.8,17.5c-2.5,1.6-5.6,1.8-8.6,1.9c-62,2.6-124.1,0.8-185.9-5.5c-8.4-0.8-17.1-1.8-25,1.1
		c-7.9,2.8-14.8,10.7-13.6,19c1.6,10.8,14.4,15.5,25.2,17.3c52.5,8.9,107.7,1.8,158.1,18.7c9.2,3.1,20,12.4,14.3,20.3
		c-76.6,1.1-153.2,2.1-229.7,3.1c-1.1,9.2,4.9,18.2,12.7,23.2c7.9,5,17.2,6.9,26.3,8.6c41.7,7.8,83.8,13.5,126.1,17.2
		c11.2,1,22.7,1.8,33.2,5.9s20.1,12.1,23.3,22.9c0.8,2.7,1.1,5.8-0.6,8c-1.8,2.4-5.2,2.7-8.1,2.9c-43.4,2.6-87.1,1.7-130.4-2.7
		c-15.2-1.5-34-1.8-41.7,11.4c-6.7-1.7-13.4-3.4-20.1-5.1c-6.9-1.8-14.2-3.5-21.2-2c-7,1.5-13.7,7.4-13.5,14.6
		c0.2,6,4.8,11,9.7,14.6c27.6,20.4,65.4,15.8,99.6,15.1c28.9-0.6,57.9,2.3,86.1,8.5c9.1,2,18.4,4.5,25.4,10.6c7,6,11,16.6,6.8,24.9
		c-15.2-1-30.2-3.5-45.2-6c-53.2-8.8-106.2-17.7-159.4-26.5c-4.9,10.1,1.7,22.8,11.3,28.6c9.6,5.8,21.4,6.5,32.6,7.2
		c61.9,3.8,123.6,11.1,184.6,22c5.3,5-0.9,19-6.6,23.4c-5.7,4.4-13.3,5.1-20.5,5.5c-79.5,4.1-158.6-11.4-238-15.6
		c-4.5-0.2-9.4-0.4-13.2,2c-7,4.3-7.3,15-2.6,21.7c4.7,6.7,12.7,10.2,20.4,12.9c43,14.7,89.5,13.3,134.9,15.3s93.1,8.5,129.4,35.6
		c5.8,4.3,11.7,10.3,11.4,17.5c-0.6,12.3-16.8,16-29.1,16.2c-35.1,0.6-70.5,1.1-105.1-4.4C491.2,709.3,428.3,677.6,364,688
		c2.6,10.3-5.6,21.1-2.8,31.3c2.9,10.3,15,14.3,25.5,16.5c86.5,17.8,176.7,16.2,261.6,40.6c6,1.8,12.3,3.7,16.9,8.1
		s6.9,11.7,3.6,17.1c-3.1,5-9.5,6.6-15.3,7.5c-92.3,14.6-185.5-18.3-279-17.6c-8.2,0.1-18.2,1.4-21.6,8.9c-5,11,8.7,21.1,20.1,24.7
		c86.7,27.8,185.1,3.6,269.2,38.6c10.4,4.3,22,12.1,21.1,23.3c-1.1,13.1-17.8,17.8-30.9,18.5c-69.6,3.3-138.3-15.7-207.8-20.1
		c-11.6-0.8-26.8,1.7-28.8,13c-1.1,6.7,3.7,13.3,9.7,16.5c6,3.1,13.1,3.6,19.9,3.9c82.1,3.8,165.2-0.7,245.8,15.8
		c5.1,1.1,10.4,2.3,14.2,5.9c3.7,3.6,5.1,10.3,1.4,13.9c-80.2-1.1-160.6,1.8-240.5,8.7c-30.5-1-67,3.1-97.6,3.7"/>
</g>
</svg>
