<?xml version="1.0" encoding="utf-8"?>
<!-- Generator: Adobe Illustrator 22.1.0, SVG Export Plug-In . SVG Version: 6.00 Build 0)  -->
<svg version="1.1" id="Layer_1" xmlns="http://www.w3.org/2000/svg" xmlns:xlink="http://www.w3.org/1999/xlink" x="0px" y="0px"
	 width="1000px" height="1000px" viewBox="0 0 1000 1000" enable-background="new 0 0 1000 1000" xml:space="preserve">
<g id="vs-skin">
	<path fill="#FFC7C0" d="M490,77c3.8-7.5,1.1-13.9,3-21c2-7.4,8.2-11.7,13-15c1.3-0.9,15.6-10.4,33-6c3.6,0.9,11.5,2.9,17,10
		c0.9,1.2,3.9,5.1,5,11c0.6,3.4,0.3,5.9,0,9c-1.1,9.2-3.6,10.8-4,17c-0.4,6,1.9,7,3,14c0.8,5.1-0.5,10.8-3,22
		c-3.8,16.7-5.8,25.1-11,28c-2.7,1.5-6.2,2.2-7,5c-0.3,1-0.1,2,2,7c2.6,6.4,3,6.8,3,8c-0.1,4.4-5.8,7.7-8,9c-2,1.2-9.3,5-24,4
		c-6.2-0.4-22.8-1.6-31-12c-1.3-1.7-3.7-4.7-3-8c0.7-3.2,3.7-3.9,6-8c1.5-2.6,1.7-4.9,2-9c0.9-12.2,1.3-18.3,1-21
		c-1.1-9-3.6-8.8-7-24c-1.1-5.1-2.8-13.5,0-15c1.3-0.7,2.6,0.7,5,0C485.8,81.8,488,81,490,77z"/>
	<path fill="#FFC7C0" d="M421,382c-6.2-0.5-11.2,4.7-21,15c-0.9,1-2.4,2.5-3,5c-0.7,2.8-0.3,6.5,2,9s4.3,1.3,9,4c3.4,2,6.5,5,6,6
		c-0.9,1.7-11.3-4.1-14-1c-1.8,2,0.4,7.1,3,10c2.8,3.1,7.7,5.4,12,4c3.3-1.1,5.3-4.1,7-8c5.9-13.7,5.5-33.3,5-42
		C424.5,382.5,422.4,382.1,421,382z"/>
	<path fill="#FFC7C0" d="M588,511c2.2-1.1,5.3,2.3,11,1c2.4-0.6,3-1.4,4-1c2.2,1,1.1,6.6,0,17c-1.3,12.2-0.6,12.7-2,22
		c-1,6.8-1.5,10.2-3,14c-3,7.9-8.7,15.8-11,15c-1.5-0.5-0.7-4.5,0-15c1.1-16,1.7-24,1-33C587.2,520.2,585,512.5,588,511z"/>
</g>
<g id="vs-hair">
	<path fill="#3A231A" d="M482,82c3.1-0.7,4.5,0.8,6,0c1.8-0.9,1.8-3.8,2-8c0.2-4,0.7-8,1-12c0.7-9.3,9.5-16.2,13-19
		c12.7-10.1,27.4-8.6,33-8s13.7,1.4,17,7c1.7,2.8,1.6,5.8,3,6c1.8,0.2,4.5-4.5,5-9c0.7-6.5-3.3-11.8-5-14c-6.8-8.8-17-11.1-21-12
		c-8.3-1.8-16-0.2-31,3c-24.5,5.3-30.7,10.7-33,13c-1.9,1.9-5.7,5.7-8,12c-2.7,7.4-1.7,14.2-1,19c0.5,3.3,1,4.7,3,12
		c3.2,11.6,3.1,12.1,5,19c4.1,14.4,8.6,30.4,12,30c1.9-0.2,3.4-5.6,3-10c-0.4-3.9-2.1-4.8-5-11c-2.2-4.6-5.9-12.6-3-16
		C479.2,82.6,481.5,82.1,482,82z"/>
</g>
<g id="vs-colour">
	<path fill="#FFFFFF" d="M504,82c0.1-1,1.6-0.8,8-4c4.6-2.3,6.9-4,9-3c1.1,0.5,1.7,1.5,2,2c1.6,2.7,0.1,5.7,0,6
		c-0.9,1.8-2.4,2.7-3,3C514.1,89.3,503.8,84.7,504,82z"/>
	<path fill="#FFFFFF" d="M544,78c0.3-2.3,8.8-4,10-2c0.6,1-0.7,3-2,4c-1.7,1.3-3.6,1.1-4,1C546,80.7,543.9,79.2,544,78z"/>
	<path fill="#5679E8" d="M408,955c2-1.8,4.5,0.2,18,3c14.6,3,19.8,2.4,22,2c5.7-1,10.2-3.2,13-5c0.6,2.2,3,11.5-2,21
		c-1.1,2.1-4.9,8.9-13,12c-7.5,2.9-14.2,0.9-17,0c-6.5-2-10.8-5.7-13-8C408.3,972,404,958.6,408,955z"/>
	<path fill="#5679E8" d="M517,932c4.8-5.4,13.6-1.1,29-1c22.3,0.1,24.9-8.9,43-6c10.8,1.7,9.7,4.9,23,7c11.3,1.8,18.4,0.5,24,6
		c2.4,2.4,5.3,6.7,4,10c-1,2.7-4.6,4-14,5c-11.9,1.3-19.6,2.1-31,0c-10.7-2-18.3-3.4-27-8c-2.8-1.5-7.1-4-13-4c-5.2,0-8.8,2-11,3
		c-5.6,2.5-14.5,4.1-29,0C514.3,940.2,514.1,935.3,517,932z"/>
</g>
<g id="vs-secondary">
	<path fill="#C48051" d="M417,492c2.1-1.4,6,4.3,14,7c3.6,1.2,7.4,1.6,25-1c10-1.5,12.8-2.2,18-3c15.1-2.3,18.1-0.3,50-1
		c7.8-0.2,14-0.4,21-1c8.7-0.7,15-1.2,23-3c8.1-1.8,14.6-4.2,19-6c-0.4,7-0.8,17.8-1,31c-0.4,25.3,0.6,38.5,1,67
		c0.3,18.5,0,21.6,0,43c0,33.8,0.8,44.3,2,97c1.7,75.1-0.1,20.1,1,98c0.4,32.1,0.7,41.8-3,54c-1.6,5.2-4,11-3,19
		c0.9,7.1,3.9,11.5,6,24c0.5,3,0.8,5.5,1,7c-9.5,3.6-22.7,7.5-39,9c-16.8,1.5-30.9-0.1-41-2c-0.8-7.6-1.5-17.1-2-28
		c-0.3-7.8-0.9-22,0-40c0.8-15.5,1.5-30.1,4-47c0.6-4,1.8-11.3,1-21c-0.6-7.5-2-11.5-3-17c-2.4-12.8-1-22.2,0-32
		c2.4-24.1,1.3-47.1,0-75c-0.5-11.2-1.6-26.9-4-46c-2.1,5.9-5.1,14.9-8,26c-7.5,28.2-8.6,47.3-11,70c-0.4,3.4-4.9,32.3-14,90
		c-7.8,49.8-8.8,54.7-10,68c-2.8,31.1-2.1,56.8-1,74c-2.6,1.9-6.6,4.5-12,6c-8.3,2.4-15.1,1.1-25-1c-14.9-3.1-26.1-5.5-33-7
		c-0.5-6.3-0.9-15.6,0-27c0.8-10.8,2.2-15.2,4-27c1.5-9.8,2.4-21.2,4-44c1.3-18.1,2-27.4,2-38c0-11.7-0.5-15.9-1-29
		c-0.6-15.2-0.4-26.8,0-50c0.2-12.7,0.6-33.5,2-60c2.2-41.1,3.9-38,5-68c1.1-31-0.5-38.8,2-63c1.9-18.2,4.8-33.1,7-43
		C416.6,498,415.3,493.2,417,492z"/>
</g>
<g id="vs-primary">
	<path fill="#FF5648" d="M473,162c4,1.6,3.4,3.2,12,9c4.9,3.3,9.3,6.2,15,8c10.4,3.3,19.7,1.1,24,0c11-2.8,18.4-8.7,22-12
		c5.9,1.9,13.4,4.5,22,8c18,7.4,22.3,11.3,24,13c6.1,6,9,13.1,11,20c6.7,22.9,4.5,45.5,3,70c-2.2,35.8-3.3,53.7-1,70
		c1.6,11,3.6,19.2,7,43c1.9,13.5,3.5,26.4,4,32c1.6,16.1,1.9,44.4-9,87c-6.3,1-12.7,2-19,3c-0.7-8-1.3-16-2-24
		c-4.9,0.4-12.2,1.1-21,2c-14.6,1.5-24.5,2.6-28,3c-23.1,2.5-45.2,2.2-59,2c-18-0.3-38.5-1.4-61-4c0.2-3.5,0.5-10,1-18
		c1.7-24.8,3.6-34.7,7-70c1.2-12,1.2-13.5,2-20c2.4-19.1,5.3-32.6,6-36c2.7-13.4,2.5-36-11-76c-2.9,1.3-7.3,3.5-12,7
		c-8.1,6.1-11.6,11.9-16,17c-4.6,5.3-12.2,12.3-25,18c3.1,2.3,5.4,4.9,7,8c2.2,4.2,1.7,6.7,4,11c1.9,3.6,4.3,5.7,7,8
		c6.1,5.3,12,10.7,18,16c4.8,4.2,11.1,10.8,17,21c-3,3.2-7.3,7.8-13,13c-12.9,11.8-16.7,12.3-19,12c-4.4-0.5-6.6-4.1-11-9
		c-8.7-9.9-11.6-9.1-24-20c-5.6-4.9-19.3-17.1-31-36c-4.8-7.7-17.1-27.9-11-39c0.7-1.2,2.3-3.7,4-6c5-6.8,9.7-10.9,11-12
		c8.6-7.7,15.7-20,36-46c7.4-9.4,14.1-18,24-29c17.4-19.3,25-24.2,30-27c5.3-2.9,2.3-0.5,26-10C460.7,162.3,466.4,159.4,473,162z"/>
</g>
<g id="vs-shade">
	<g>
		<path opacity="0.4" enable-background="new    " d="M468.4,74.3c2.7,8.4,3.9,16.1,4.3,18.8c0.6,4.6,0.8,8.2,2.6,13.7
			c1.2,3.8,2.6,6.5,5.1,8.6c1.9,1.5,3.8,2.2,5.1,2.6c1.4-8.3-0.1-13.7-1.7-17.1c-1.1-2.4-2.8-4.8-5.1-10.3c-2.5-5.9-2.6-7.9-1.7-9.4
			c1-1.5,3.2-2.7,5.1-2.6c1.7,0.1,2.2,1.1,3.4,0.9c1.9-0.3,3-3,3.4-4.3c1.6-4.2,0.7-6.8,0.9-11.1c0.2-5.3,1.8-9.2,2.6-11.1
			c1.1-2.8,3.5-7.4,8.6-12c-1.9,0.5-5.3,1.6-8.6,4.3c-1.3,1.1-3.6,2.9-5.1,6c-2.8,5.5-1.5,11-2.6,11.1c-0.7,0.1-1.6-2.2-1.7-2.6
			c-2-5.3-0.3-10.8,0.9-13.7c-0.6,1.1-1.1,2.3-1.7,3.4c-1.6,3.2-3,6.3-4.3,9.4c-0.3-0.8-0.7-2-0.9-3.4c-0.6-4.8,1.4-8.3,0.9-8.6
			c-0.4-0.2-1.7,1.7-2.6,3.4c-0.6,1.2-0.9,2.3-1.3,3.7c-0.8,3-0.7,3.7-1.3,4c-1.4,0.6-3.9-2.1-4.3-2.6c-2.5-2.7-2.8-5.2-3.4-5.1
			c-0.8,0.1-1.3,3.9-0.9,8.6C464.7,65.1,466.4,67.9,468.4,74.3z"/>
		<path opacity="0.4" enable-background="new    " d="M494.5,27.5c0.2,0.4-4.9,1.8-8.1,6.2c-1.8,2.4-2.4,5.1-2.7,7.1
			c1.2-1.6,4.4-5.3,9.9-7.1c2.9-0.9,5.4-1,7.2-0.9c-4.2,3.7-4.7,4.9-4.5,5.3c0.6,0.9,7.8-4.6,11.6-6.2c8.6-3.6,5.8-1.2,9-1.8
			c5.5-0.9,9.6,3.5,15.2,3.5c17.3,0,29.7,13.7,30.4,14.9c0-1.3,1.4-13.8-3.5-22c-3.6-6-9.7-8.2-19-11.6c-7.1-2.6-14.2-5.2-23-4
			c-12.9,1.8-22.8,11.2-23.4,10.3c-0.2-0.4,1.8-1.9,1.6-2.3c-0.3-0.5-6.7,2.6-13.2,7.6c-2.7,2.1-4.8,4-6.3,5.3
			c2.3-0.2,5.8-0.7,9.9-1.8C490.3,28.9,494.4,27.2,494.5,27.5z"/>
		<path opacity="0.4" enable-background="new    " d="M562.6,48.7L562.6,48.7L562.6,48.7C562.6,48.8,562.6,48.7,562.6,48.7z"/>
		<path opacity="0.4" enable-background="new    " d="M486.7,149.9c-1.7,3.5-3.5,6.3-5.1,8.6c1.1-0.4,2.6-0.9,4.3-1.7
			c2.2-1,5.2-2.5,7.7-5.1c3.6-3.8,2.4-6.3,5.1-7.7c0.6-0.3,2.5-1.2,8.6,0.9c5.7,2,6.8,3.7,12.8,6.9c5.9,3,10.9,5.5,14.6,3.4
			c2.1-1.2,3-3.5,3.4-5.1c-2.1,0-5.1-0.1-8.6-0.9c-2.6-0.6-6-1.3-9.4-3.4c-4.2-2.7-3.3-4.3-7.7-7.7c-4.4-3.5-5.9-2.3-11.1-6
			c-2.1-1.5-5.3-3.8-7.7-7.7c-3.2-5.1-3.5-10.5-3.4-13.7c-0.4,2.4-0.9,5.9-0.9,10.3c0,9.6,2.3,12.5,0.9,19.7
			C489.3,144.4,487.7,147.7,486.7,149.9z"/>
		<path opacity="0.4" enable-background="new    " d="M523.9,121.4c0,0.4,2.1,0.3,5.1,1.7c3,1.4,3,2.6,5.1,3.4
			c2.7,1,6.7,0.9,9.4-1.7c2.3-2.2,2.5-5.1,2.6-6c-3,0.2-7.1,0.4-12,0.9C526.7,120.3,523.9,120.9,523.9,121.4z"/>
		<path opacity="0.4" enable-background="new    " d="M538.6,87.1c0-0.5-0.1-0.9-0.1-1.4c-0.3,1.8,0,3.4,0.1,4
			C538.7,89.1,538.7,88.2,538.6,87.1z"/>
		<path opacity="0.4" enable-background="new    " d="M544,928c0-0.4-16.2,2.1-23.4-6c-3-3.4-4.1-7.2-3.7-13.7
			c3.1-52.8-4.8-6.5,2.8-62.5c1.4-10.5,2.3-17,3.7-26.5c2.3-16,0.9-32.7,6.4-48c0.8-2.2,2.6-6.6,0.9-11.1c-0.5-1.3-0.8-1.3-3.7-6.9
			c-2-3.9-2.5-5-2.8-6c-1-3.2-0.9-5.8-0.9-6.9c0.1-10.9-2.1-70.4-2.8-85.6c-0.6-13.2-1.1-14.6-0.9-22.3c0.3-11.2,1.5-17.2,0-28.3
			c-0.9-6.3-1.5-5.5-1.8-10.3c-0.8-10,1.3-18.9,2.8-24.8c1.7-7.1,2.8-8.4,2.8-12.8c0-6.5-2.3-7-1.8-12c0.6-7.4,5.6-7.9,7.4-16.3
			c1-4.6,0.4-8.6-0.5-12.8c1.6-1.1,3.4-2.2,5.7-3.3c3.8-2,3.9-1.5,13-5c15.8-6.1,14.9-7.3,20-8c10.4-1.4,15.9,3.4,19,0l0.1-0.1
			c0.3,3.3,1.4,7.4,3.8,12.8c-0.2,1.9,0.2,3.9,0.5,5.3c2.1,11.7-2.1,8.1-2.6,47.1c0,3.1-0.1,7.5,0,12.8c1.1,0.3,2.7,0.6,4.3,0
			c3.3-1.3,3.2-5.6,6-13.7c2.7-7.9,4.2-8.2,5.1-13.7c0.8-4.7,0.4-8.6,0-11.1c-1,3.4-2.4,6-3.4,7.7c-1.9,3.1-3.6,5.9-6,6
			c-1.9,0-3.4-1.6-3.4-1.7c-2.3-2.8-0.2-6.7,2.6-17.1c2.8-10.6,1.9-11.5,4.3-15.4c1.4-2.3,2.8-3.9,4-5.2c2.9-0.5,4.7-1.6,5.8-2.7
			c6.4-5.8,0.2-15.9,0-46c-0.1-11.1,0.7-14.3,0-26c-0.7-11.6-1.8-12.7-1-19c1-8.4,3.8-14.7,1-17c-1.8-1.4-3.6,0.3-6-1
			c-4.9-2.8-3.5-14.1-3-18c0.9-7.3,2.6-8.7,4-17c0.9-5.6,1-9.8,1-14c0.1-21.4,0.2-36.4,0-45.1c3.8-17.6,4.8-30.1,0-32.9
			c-1.3-0.8-3.5-1.2-8,1c-6.4,20.8-10.9,29.7-14,34c-0.7,1-3.1,4.2-6,9c-3.8,6.4-3.5,7.4-5,9c-7.2,7.8-27.5-0.7-28,1
			c-0.3,0.9,5.7,3.6,16,9c10.7,5.6,13.2,7.3,13,9c-0.3,2.3-5.6,3.3-9,4c-12.2,2.4-22.3,0.4-24,0c-26.2-5.4-38.5-9.3-39-8
			c-0.3,0.8,3.8,2.5,18,11c9.4,5.6,11.5,7.2,16,8c5.1,0.9,9.1,0.2,16-1c11.7-2.1,17-5.3,19-3c1.6,1.9-1.4,4.8,0,11
			c0.7,3,1.6,3.3,3,7c1.1,3,2.9,7.7,2,12c-1.2,6-7.4,9.9-14,14c-6.3,3.9-9.8,4.5-10,7c-0.2,2.8,4.1,5.8,8,7c8,2.4,12.4-3.6,17-1
			c3.2,1.9,3.8,6.9,5,17c0.7,5.8,1,8.7,0,11c-2.4,5.5-7.8,5.5-15,11c-6.3,4.8-7.5,8.9-11,13c-8.6,10.1-23.7,11.4-37,12
			c-25.7,1.2-47.3,0.2-61.2-0.4c-4.1-3.8-12.8-6.6-18.8-13.6c-5-6-9.6-17-5-39c8.1,6.7,10.3,6.6,11,6c1.2-1-0.3-4.3-3-14.2
			c-1.6-5.8-2.4-8.6-2.6-10.3c-0.7-8.4,1.2-22.9,10.3-28.3c3-1.8,5-1.5,7.7-4.3c0.5-0.5,4.3-4.6,4.3-10.3c0-5.5-3.5-7-2.6-10.3
			c1-3.6,6-7.9,12-6.9c9.4,1.7,11.1-2.7,19.7-2.6c-5.1-5.1-18.7-3.1-23.1-5.1c-3.1-1.5-6.3-3-9.4-6c-5.7-5.4-7.7-12.1-9.4-19.7
			c-3-13.2-3-20.5-4.3-30.8c-2.6-21.3-2.9-34.8-4.6-40.5c0.6-2.4,1.3-5,1.9-7.7c0.9-3.9,1.4-6.8,1.6-7.9c1.4-8.3,1.7-14.4,2.2-24.2
			c0.8-15.4-0.4-9.5,0.3-20c0.2-3.9,0.7-9.5-1-10c-1.2-0.4-2,2.2-5,3c-2.9,0.8-4.1-1.2-8-1c-2.5,0.1-4.3,1.1-6,2
			c-0.7,0.3-5.2,2.7-7,6c-2.4,4.3,0.5,9.4,3,16c0,0,5.8,15.5,5,31c-0.3,5-1.5,12.4-6.1,21.2c0,0-7.8,23.5-27.7,42.6
			c-6.3,6-11,8.7-15.3,10.4c-0.2,0.1-0.4,0.1-0.4,0.2c-6.1,2-10.3-8.4-20.5-10.5c-3.3-0.7-7.5-0.4-8,1c-1.1,3.1,14.8,10.1,13.7,13.3
			c-0.7,1.8-6.1,0.6-15.5,4.1c-0.6,0.2-1.1,0.4-1.7,0.7c-5.4,2.3-9.1,5.2-11.5,7.2c2.6,0,6.2,0.2,10.5,0.8c11.4,1.6,20.8,2.3,22,6.4
			c1.1,3.9-5.9,7.8-4.5,10.4c1.3,2.4,7.5-0.5,12.7,3.3c1,0.7,2.1,2.4,4.2,5.6c5.3,8,4.8,9.3,7.1,11.1c4.4,3.4,7.6-0.3,12.9,2.6
			c5.8,3.1,9.2,11.5,7.6,17.7c-0.8,3.3-3,4.3-7.6,9.8c-4.4,5.2-7.3,9.9-9,13c1.7,1.5,3.4,3,5.1,4.6c1.6-2,3.5-4.1,5.5-6.2
			c1.3,0,3.5-0.2,6.4,0.6c6.8,1.8,12.4,7.2,15,13c1.3,2.8,1.7,5.4,1.8,7.6c-0.2,0.8-0.4,1.6-0.6,2.4c0.6,9.4,1.2,18.7,1.8,28.1
			c0.4,5.4,0.4,13.5-2,23c-2.2,8.7-4.7,11.5-3,15c0.8,1.7,2.3,3.1,4.3,4.2c0,0.1,0,0.3,0,0.4c-2.3-1.5-4.1-3.2-5.5-4.5
			c0.2,18.8-0.9,32-2.1,40.7c-0.4,3.3-1.6,11.9-2.7,23.9c-2,21.3-1.5,28.6-2.7,59.9c-0.5,13.5-0.4,6.7-2.7,52.7
			c-1,20.6-1,21.2-1.8,36.7c-1.4,27.1-1.5,27.4-1.8,35.9c-0.3,10.8-0.7,24.6,0,42.3c0.7,17.6,1.6,15.8,1.8,29.5
			c0.1,3.9,0.3,19.9-1.8,41.5c-0.9,9.4-2,17.1-2.7,22.3c-2.5,17.9-3.9,22.6-4.5,33.5c-0.3,5.2-0.2,8.1-0.9,14.4
			c-0.6,5.6-1.1,6.8-0.9,10.4c0.4,5,1.6,5.9,0.9,9.6c-0.3,1.7-0.9,3.2,0,4.8c0.8,1.3,2.4,2,3.6,2.4c0.4-3.3,1.1-8.6,1.8-15.2
			c2.6-24,1.7-25.5,3.6-38.3c2.2-14.4,3.9-16.1,5.4-30.3c1.1-10.5,1-17.1,0.9-19.2c-0.2-6.6-0.8-8.6-0.9-14.4
			c-0.1-4.8,0.2-11.6,1.8-20c1.2,1.5,3.7,4.3,8.1,6.4c5,2.3,9.6,2.5,11.7,2.4c-4-2.1-10.2-6.1-14.4-12.8c-3.4-5.4-4.2-10.4-4.5-12.8
			c-0.7-5-1.6-22.5-1.8-46.3c15,15.6,20.3,18.9,21.7,17.8c4.6-3.5-30.7-53.1-18.1-66.5c2.2-2.4,4.1-1.6,6.1-4.5
			c5.3-7.7-5.1-16.3-6.9-37.3c-0.3-3.1-0.3-10-0.2-23.7c0.2-17.2,0.6-7.9,1.8-43.9c0.4-11.8,1-31.6,7.2-50.3
			c0.8-2.3,2.8-8.2,7.2-15.2c4.1-6.5,7.6-12,14.4-16c4.9-2.8,6.5-1.9,19.8-5.6c2.1-0.6,4.8-1.3,7.5-2.2c7-0.6,10.9-1.1,19.2-1.7
			c5.2-0.3,12-0.5,25.4-0.8c-0.3,3.3-0.7,7.7-1.1,13.3c-1.4,20.1-2.2,30.2-1.8,37.7c0.3,7.5,0.9,11.1,0,18
			c-1.1,8.2-2.8,14.2-3.7,17.1c-5.2,16.5-10.1,33-15.2,49.5c-4,12.8-6.4,21.9-9.8,34.9c-6.2,23.5-11.6,44.4-9.7,45
			c2,0.6,12.8-24.2,19.4-41c8.4-21.5,14.6-41.7,17.6-41c1.2,0.3,2.1,3.6,2.3,5.7c0.1,1.3,0,2.4-0.3,4.6c-0.4,2.9-1,4.4-1.6,10.8
			c-0.9,11.1,0.3,16.4,0.9,29.1c0.4,8.5,0.3,14.5,0,26.5c-0.6,26.4-2.9,39.7,0,53.1c0.3,1.2,1.1,4.6,1.8,9.4c0,0,1.4,8.8,1.8,17.1
			c0.4,8.5-0.5,11.7-1.8,26.5c-0.6,6.9-1,14.6-1.8,30c-0.8,14.8-0.9,20.1-0.9,24c0,7.5,0.2,8.2,0,13.7c-0.3,8-1.6,19.1-1.8,23.1
			c-0.3,5.3,0.3,13.2,5.3,23.3C538.4,928.5,544,928.2,544,928z M587.8,490.3c-0.3,0.4-0.5,0.8-0.7,1.3c-0.1-0.2-0.1-0.4-0.2-0.7
			C587.2,490.7,587.5,490.5,587.8,490.3z M590.9,487c0.4-0.1,0.7-0.2,1.1-0.3c-0.5,0.3-1,0.6-1.4,0.9
			C590.7,487.4,590.8,487.2,590.9,487z M584,386c0.3-10.4,2.6-17.9,4-23c2.8-9.9,5.6-19.5,8.1-28.6c0,0.2-0.1,0.4-0.1,0.6
			c-8.7,62.9-9.3,60.1-9,67c0.1,3.5,0.4,8.7,0.8,14.7C585.1,402.7,583.7,395.2,584,386z M415,384.4c3.5-2.2,6.9-4,10-5.4
			c-3.3-4.3-7-8.6-11-13c-9.8-10.8-19.7-19.7-29-27c-1.1-1-11.1-10.5-12.9-17.2c-0.3-1.2-0.7-3,0-4.8c0.9-2.3,3.1-3.6,3.8-4
			c3.9-2.4,3.7-4.2,13.4-13.7c19.1-18.8,22.7-19.5,27.7-28.1c1.1-1.8,2-3.5,2.9-5c0.1,1.6,0.5,2.9,1.2,3.9c0,0,4.9,6.5,6,10.6
			c0,0,0.1,0.5,0.3,1.1l0,0c0.3,0.8,0.5,1.4,1.4,4c2,6,6.7,21.7,6.9,38.5c0,2.9-0.1,3.9-2.6,23.1c-2.4,18.5-3.8,29.3-4.9,36.7
			c-0.1,0-0.1-0.1-0.2-0.1C425,381.8,420.1,382.5,415,384.4z"/>
		<path opacity="0.4" enable-background="new    " d="M466.7,765.3c-3.4,7.3-6,13.8-7.9,19.1c1.2-1.7,2.7-3,4.5-3.7
			c0.6-0.2,3.3-1.3,5.1,0c1.1,0.8,1.7,2.4,1.7,6c0,5.3-1,8.7-1.7,12c-1,4.8-0.6,7.2-0.9,12c-0.5,10.8-2.9,16.1-7.7,41.1
			c-2,10.4-3.1,15.8-3.4,20.6c-0.4,5.6-0.1,6.2,0,25.7c0.1,18-0.2,15.2,0,20.6c0.2,5.4,0,10.8,0,16.3c0,4,0.1,7-1.7,10.3
			c-2,3.7-5.2,5.6-6,6c-6.5,3.6-13.5,1-13.7,1.7c-0.1,0.7,5.8,3.8,12.8,3.4c4.9-0.3,13.6-1.7,15.4-6.9c0.7-2-0.1-3.3-0.9-6.9
			c-1.1-5.1-0.6-8,0-16.3c0.5-7.4,0.5-14.8,0.9-22.3c1.5-30.8,1.2-28.7,1.7-34.3c0.5-5.5,0.4-3.2,3.4-28.3
			c2.6-21.5,2.8-24.7,4.3-33.4c1.1-6.7,0.8-3.9,4.3-22.3c3.4-18.2,4.4-24.9,5.1-32.5c0.6-6.6,0.8-11.9,0.9-15.4
			c-2.4,3.3-5.4,7.6-8.6,12.8C471.6,755.4,469.2,760,466.7,765.3z"/>
		<path opacity="0.4" enable-background="new    " d="M453.9,799.5c0.3,0.1,1.5-5.7,4.9-15.2C454.6,790.1,453.5,799.5,453.9,799.5z"
			/>
		<path opacity="0.4" enable-background="new    " d="M590,820c-1.1-0.3-3.4,2-8.5,13.8c0.7,2.8,3.4,15-3.4,21.4
			c-1.1,1-1.9,1.8-3,1.8c-9.3,0.3-15-48.5-21-48c-2.5,0.2-4,9.1-4.2,14.5c-0.3,8.6,2.5,14.9,7.7,27.4c3.2,7.6,6.4,13.3,8.6,17.1
			c4.7,8.2,9.2,14.9,12.8,19.7c1.9,0.8,4.8,1.5,7.1,0.3c5.5-3,3-14.4,3-33C589,833,592.4,820.6,590,820z"/>
		<path opacity="0.4" enable-background="new    " d="M435.5,961.2c-2.6-0.3-4.4-0.8-18.8-3.4c-3.9-0.7-7.2-1.3-9.4-1.7
			c-0.4,2.7-0.7,7.1,0.9,12c2.4,7.5,8.6,14.8,12,13.7c3.5-1.1,0.6-9.8,6-13.7c3.3-2.4,8.1-1.8,15.4-0.9c6.4,0.8,9.1,2.3,12.8,0.9
			c2.9-1.1,4.8-3.4,6-5.1c-0.3-1.7-0.6-3.4-0.9-5.1C449,961.7,441,961.9,435.5,961.2z"/>
		<path opacity="0.4" enable-background="new    " d="M602.6,931.6c-4.5-1.4-8.8-2.8-12.8-4.3c-2.5,0.7-6.4,1.6-11.1,2.6
			c-3.2,0.6-14.8,2.8-38.5,3.4c-6,0.2-14.2,0.3-24,0c-1.2,1.9-2.9,5-1.7,6.9c1.1,1.7,4.1,1.3,11.1,0.9c13.6-0.9,11.6-0.2,15.4-0.9
			c8.4-1.5,9.3-3.6,17.1-4.3c3.1-0.3,5.4-0.2,9.4,0c3.2,0.1,7.1,0.5,15.4,1.7c14.2,2.1,16.8,3.3,21.4,1.7c3.6-1.3,6.1-3.5,7.7-5.1
			C609,933.4,605.8,932.5,602.6,931.6z"/>
		<path opacity="0.4" enable-background="new    " d="M546,165c-2,1.3-1.1,3.7-3,7c-0.7,1.2-3.7,5.8-18,8c-13.6,2.1-25.5,3.9-34-3
			c-6.8-5.5-6.3-12.3-14-15c-3.9-1.4-9.4-1.5-11,1c-2.4,3.8,5.2,12.5,11,19c6.3,7.1,9.4,10.7,15,13c1.7,0.7,3.4,1.2,21,2
			c14.6,0.7,15.7,0.4,17,0c5.1-1.7,6.3-3.9,17-9c3.4-1.6,5.1-2.4,7-3c5.5-1.7,10.9-1.9,18-1c13.6,1.7,21.7,5.7,22,5
			c0.4-0.8-10.9-4.9-26-14C556.9,168.3,549.8,162.5,546,165z"/>
	</g>
</g>
<g id="vs-outline">
	<path fill="none" stroke="#000000" stroke-width="7" stroke-linecap="round" stroke-linejoin="round" stroke-miterlimit="10" d="
		M557.7,49.6c2.4,7.7,0.8,16.9,0,20.8c-0.3,1.8-0.9,4.4-1.9,7.6c0.5,2.4,1.1,4.9,1.9,7.6c0.9,3,1.4,3.8,1.9,5.7c0.2,1,0.6,2.9,0,9.5
		c-0.3,3.3-0.7,7.5-1.9,13.2c-0.4,2-0.9,4.4-1.9,7.6c-1.1,3.5-1.2,6.1-5.7,13.2c-1.3,2-1.2,8.4-3.8,11.3c-3.8,1.9-13.2,3.8-20.8,0
		c-5-4-7.7-7.1-11.3-9.5c-9.6-6.1-12.6-6.3-17-11.3c-0.8-0.9-4.9-5.7-7.6-13.2c-1.1-3-1.6-5.6-1.9-7.6c-2.2-1-3.2,1.1-5.7-1.9
		c-1.5-1.7-3.4-7.8-3.8-11.3c-0.1-1.1-0.6-7.2,1.9-9.5c2.9-2.5,4.7,2.2,7.6,0c2.3-1.8,1.5-5.2,1.9-11.3c0.2-2.5,0.6-10.5,3.8-17
		c3.6-7.5,10-11.3,13.2-13.2c7.4-4.4,14.2-5.2,18.9-5.7c12.1-1.2,22.7,1.9,26.5,5.7c2,2,3.4,4.4,3.4,4.4
		C556.9,46.8,557.5,48.7,557.7,49.6z"/>
	<path fill="none" stroke="#000000" stroke-width="7" stroke-linecap="round" stroke-linejoin="round" stroke-miterlimit="10" d="
		M558.9,51.1c0.8-2.3,6.5-12,4.6-16.4c-0.8-1.9-9.1-15.7-20.9-19.1c-5.9-1.7-18.4-8.1-37.7-1.9c-2.2,0.7-7.1,3-17,7.6
		c-12.6,5.8-13.2,5.8-15.4,8c-1.6,1.6-7.3,6-9.1,15.5c-0.4,1.9-1.1,10.3,0,15.5c0.8,3.6,0,3.7,1.9,8.3c1.3,3.2,2.1,6.6,3.8,13.2
		c1.4,5.6,2.5,10.9,3.8,17c1.1,5.4,5.7,20.8,13.2,24.6"/>
	<path fill="none" stroke="#000000" stroke-width="7" stroke-linecap="round" stroke-linejoin="round" stroke-miterlimit="10" d="
		M484,104.4c1.6,3.9,3.4,17.3,3.8,24.6c0.4,8.2-1.1,14.4-1.9,17c-1.2,4.3-2,6.9-3.8,9.5c-4.9,6.9-13.6,7.1-24.6,9.5
		c-2.5,0.5-11.1,3.6-28.4,9.5c-7.5,2.6-13.2,5.7-17,7.6"/>
	<path fill="none" stroke="#000000" stroke-width="5" stroke-linecap="round" stroke-linejoin="round" stroke-miterlimit="10" d="
		M502.9,72.3c3.4-0.5,6-5.6,11.3-4.8c2.9,0.5,7.3,2.2,9.5,2.9"/>
	<path fill="none" stroke="#000000" stroke-width="5" stroke-linecap="round" stroke-linejoin="round" stroke-miterlimit="10" d="
		M542.6,67.7c3.2-0.6,9.5-1.9,15.1,0"/>
	<path fill="none" stroke="#000000" stroke-width="5" stroke-linecap="round" stroke-linejoin="round" stroke-miterlimit="10" d="
		M502.9,81.7c0.3-0.1,6.1-3.3,7.6-3.8c1.6-0.5,5.1-1.7,7.6-1.9c0.2,0,0.4,0,0.4,0c1.4-0.1,4.1,0.5,4.9,0.5"/>
	<path fill="none" stroke="#000000" stroke-width="5" stroke-linecap="round" stroke-linejoin="round" stroke-miterlimit="10" d="
		M504.8,83.6c1.9,0.7,4.5,1.5,7.6,1.9c3,0.4,5.6,0.2,7.6,0"/>
	<path fill="none" stroke="#000000" stroke-width="5" stroke-linecap="round" stroke-linejoin="round" stroke-miterlimit="10" d="
		M542.5,78.4c1.8-0.8,4.5-4,7.7-4.2c1.4-0.1,4.6-0.1,5.7,0"/>
	<path fill="none" stroke="#000000" stroke-width="5" stroke-linecap="round" stroke-linejoin="round" stroke-miterlimit="10" d="
		M542.6,79.9c0.4,0.2,1.9,1.9,9.5,1.9c1,0,3.4-1.3,3.8-1.9"/>
	<path fill="none" stroke="#000000" stroke-width="5" stroke-linecap="round" stroke-linejoin="round" stroke-miterlimit="10" d="
		M519.9,76.1c0,1.3,0,7.6-1.9,9.5"/>
	<path fill="none" stroke="#000000" stroke-width="3" stroke-linecap="round" stroke-linejoin="round" stroke-miterlimit="10" d="
		M555.8,74.2c0.4,0.7,0.9,1.6,1.1,3c0.1,0.8,0.6,3.9-1.1,4.6c-1.3,0.6-3.3-0.5-4.2-1.9s-0.8-3.3,0-3.8c0.7-0.4,2.1,0,2.1,0l0,0
		c1.2,0,2.1,0.9,2.1,1.9s-0.9,1.9-2.1,1.9"/>
	<path fill="none" stroke="#000000" stroke-width="3" stroke-linecap="round" stroke-linejoin="round" stroke-miterlimit="10" d="
		M516.2,78L516.2,78c0.5-0.2,1.3-0.3,1.9,0c1.6,0.9,1.6,4.8,0,5.7c-0.7,0.4-1.6,0.1-1.9,0c-0.9-0.3-1.8-1-1.9-1.9c0-0.2,0-0.4,0-0.9
		s0-0.7,0-1c0-1.3-0.2-1.8,0-1.9s0.7,0.7,1.9,1.9c1.2,1.2,2,1.6,1.9,1.9c-0.1,0.2-0.4,0.3-1.9,0"/>
	<path fill="none" stroke="#000000" stroke-width="5" stroke-linecap="round" stroke-linejoin="round" stroke-miterlimit="10" d="
		M538.8,74.2c0.3,4.4,0.9,9.4,1.9,14.6c0.6,3,1.2,5.8,1.9,8.4c0.2,0.9,0.5,3.3,0,3.5c-5.6,1.4-7.8,4.6-11.3,1.9"/>
	<path fill="none" stroke="#000000" stroke-width="5" stroke-linecap="round" stroke-linejoin="round" stroke-miterlimit="10" d="
		M521.8,119.5c7.6,0,11.4-1.9,13.2-1.9c0.1,0,0.3,0,3.8,0c1.3,0,2.5,0,3.8,0c0.6,0,3.2,0,3.8,0c1.3,0,0.6,0,1.9,0"/>
	<path fill="none" stroke="#000000" stroke-width="5" stroke-linecap="round" stroke-linejoin="round" stroke-miterlimit="10" d="
		M531.3,125.2c0.6,0.5,2.7,1.9,5.7,1.9c0.8,0,3.3-0.1,5.7-1.9"/>
	<path fill="none" stroke="#000000" stroke-width="7" stroke-linecap="round" stroke-linejoin="round" stroke-miterlimit="10" d="
		M539.8,148.5c0,1.6-1.9,5.4-0.4,9.4c1.6,4.6,6.6,4.3,7.1,6.9c0.9,4.8-12.9,13.7-27.6,15.5c-12.9,1.6-22.6-2.7-24.6-3.6
		c-9.6-4.5-15-11.3-17.3-14.6"/>
	<path fill="none" stroke="#000000" stroke-width="7" stroke-linecap="round" stroke-linejoin="round" stroke-miterlimit="10" d="
		M412.3,182.2c-28.5,25.8-42.2,42.7-49.4,53.7c-2.5,3.8-9.4,13.9-19.7,27.1c-3.2,4.1-7.1,8.7-12.4,14.4
		c-5.5,5.9-17.2,17.7-17.7,21.5c-2.2,17.7,9.2,39.1,21.6,53.2c7.9,9,16.2,17.8,18.3,19.6c8.8,8,14.4,10.1,23.8,20.3
		c2.9,3.2,12.2,9.4,13.7,11.2c4.5-1.8,3.6-4.4,8.4-6.9c12.3-6.4,17.5-10.1,24.6-16.4c-5.6-9.4-11.7-16.4-16.2-21
		c-13.4-13.7-21.5-15.4-26.8-26.4c-2.9-5.9-2.6-9.8-7.8-13.2c-7-4.6-17.7-4.1-20.2-3.8"/>
	<path fill="none" stroke="#000000" stroke-width="7" stroke-linecap="round" stroke-linejoin="round" stroke-miterlimit="10" d="
		M354.5,313.4c10.9,2,18.2,0.1,22.8-1.9c10.3-4.5,12.6-12.2,27.7-27.3c10.3-10.3,12.3-9.8,16.4-14.6c7.9-9.2,14-26.6,4.5-62.8"/>
	<path fill="none" stroke="#000000" stroke-width="7" stroke-linecap="round" stroke-linejoin="round" stroke-miterlimit="10" d="
		M546.4,164.9c5.6,2.6,15.5,7.2,28.4,13.2c12,5.7,18.1,8.6,22.7,15.1c3.8,5.5,5.2,11.2,5.7,15.1"/>
	<path fill="none" stroke="#000000" stroke-width="7" stroke-linecap="round" stroke-linejoin="round" stroke-miterlimit="10" d="
		M603.1,208.4c5.7,20.5,2.9,41.5,3.8,47.9c0.3,2-1.9,70.3-1.9,104.3c0,20,11.3,34.2,11.3,47.9c0,22.2-2.5,37.6-7.6,85
		c-0.8,7-1.4,12.7-1.9,16.4c-5,0.5-11.3,4.6-18.9,1.2"/>
	<path fill="none" stroke="#000000" stroke-width="7" stroke-linecap="round" stroke-linejoin="round" stroke-miterlimit="10" d="
		M603.1,511.1c0,1.5-0.1,9.2,0,11.9c0.3,12,1.9,13.8,1.9,19.7c-0.1,9.5-4.5,10.4-9.5,29.5c-0.9,3.4-7.2,7.1-7.6,9"/>
	<path fill="none" stroke="#000000" stroke-width="7" stroke-linecap="round" stroke-linejoin="round" stroke-miterlimit="10" d="
		M603.1,540.1c-3.8,13.7-10.1,12.7-11.3,15.4"/>
	<path fill="none" stroke="#000000" stroke-width="7" stroke-linecap="round" stroke-linejoin="round" stroke-miterlimit="10" d="
		M605,261.3c-2.8,28-6.5,50.6-9.5,66.2c-6.3,33.5-10.1,41.6-9.5,62.4c0.4,12.2,0.3,15.9,5.7,49.1c7.6,47.3,11.9,31.5,7.6,39.7
		c-5.2,9.7-22.6,10.2-43.5,13.2c-22.8,3.3-40.7,2.3-47.3,1.9c-20.2-1.3-65.7,10.9-85.1,0c-6.6-3.7-7.4-0.3-7-1.6
		c2-5.4,1.1-25.7,1.1-25.7c-0.2-2.9,0.2-8.3,0.9-19.1c0.6-8.4,2-20.6,5.5-35.5"/>
	<path fill="none" stroke="#000000" stroke-width="7" stroke-linecap="round" stroke-linejoin="round" stroke-miterlimit="10" d="
		M418.7,492.9c-2.2,12.2-5.2,30.1-7.6,51.9c-3.4,30.9-3,44.6-4.6,90.3c-3.3,95.1-7.9,113.8-4.6,150.5c0.5,5.3,1.7,17.9,1.5,35.1
		c-0.3,22.8-3,38.5-4.6,50.2c-2.4,17.9-8.4,47.1-5.7,80.3c11.5,5.3,25.7,4.9,33,6.7c11.8,2.8,17,2.5,21.3,1.7
		c6.8-1.4,11.9-4.4,15.2-6.7c-1-9.8-1.9-25.1,0-43.5c1.8-17.6-0.8-18.9,2.4-38.5c4.4-27,2.5-30.5,9.8-63.6
		c10.2-46.1,7.5-54.9,9.1-56.9l0,0c0,0-12.5,18-21.3,35.1c-3.4,6.7-8,16.7-12.1,30.1"/>
	<path fill="none" stroke="#000000" stroke-width="7" stroke-linecap="round" stroke-linejoin="round" stroke-miterlimit="10" d="
		M484,750.5c1.7-14.4,6.1-40.6,9.5-63.6c3.6-24.5,7.2-43.4,9.5-55.2c7.4-39,7.3-44,7.6-70.2c0.1-12.4,4.6-35.8,3.8-41.8"/>
	<path fill="none" stroke="#000000" stroke-width="7" stroke-linecap="round" stroke-linejoin="round" stroke-miterlimit="10" d="
		M588,486.4c0.5,17.1-2,114.5-1.5,131.9c2.6,90.3,3.2,118.2,3.5,152.2c0.3,35.1-0.2,24.4,0,61.9c0.2,30.3-0.3,12.4-2.7,42
		c-0.6,7.7-1.7,17.4-2.2,21.7"/>
	<path fill="none" stroke="#000000" stroke-width="7" stroke-linecap="round" stroke-linejoin="round" stroke-miterlimit="10" d="
		M554.1,834.3c6.9,27.5,14.8,40.3,21,46.8c2.5,2.7,9.9,9.7,12.2,20.1c0.6,2.7,1.4,7.6,1.7,10c0.9,5.6,1.4,10.2,1.7,13.4
		c-14.5,3.1-31.6,5.7-50.7,6.7c-11.3,0.6-21.8,0.5-31.5,0c-1.7-20.8,1.5-39.2,0.9-61.9c-0.5-19.7,3.4-39.6,3.8-71.9
		c0.3-23.4-4.1,6.6-2.9-57c1.1-56.9-1.5-60.4-0.9-71.9c1.7-32.1-3.5-36.7-2.9-43.5c0.7-7.6-0.4-13.9,0-18.4"/>
	<path fill="none" stroke="#000000" stroke-width="7" stroke-linecap="round" stroke-linejoin="round" stroke-miterlimit="10" d="
		M405.9,954.8c-0.9,3.4-1,5.4,0.8,11.5c2.2,7.5,7.4,11.8,11.3,15.1c2.6,2.2,6.1,5.1,11.3,6.7c9.3,2.9,17.6-0.2,21-1.7
		c2.2-1.8,6.9-6.1,9.7-13.4c3.2-8.2,2.2-15.5,1.6-18.4"/>
	<path fill="none" stroke="#000000" stroke-width="7" stroke-linecap="round" stroke-linejoin="round" stroke-miterlimit="10" d="
		M513.4,930.9c-0.9,3.2-0.9,11.8-0.9,13.3c12.7,0,25.4,0,38.1,0c1.2-1,3.3-2.5,6.3-3.1c3.7-0.7,6.6,0.4,9.5,1.5
		c3.9,1.5,5.6,3.2,7.9,4.6c1.3,0.8,4,2.4,15.9,4.6c8.7,1.6,14.9,2.8,23.8,3.1c8.8,0.3,18.1-3.2,25.1-4.3c0.9-2.2,2.4-5.1,0-8.9
		c-1.5-2.4-2.3-3.4-6.4-4.8c-10.4-3.6-20.7-4.9-25.1-6.6c-3.1-1.2-11.7-2.9-16.8-5.9"/>
	<path fill="none" stroke="#000000" stroke-width="7" stroke-linecap="round" stroke-linejoin="round" stroke-miterlimit="10" d="
		M424.1,411.8c1.2-7,2.8-17,4.6-29.1c2.5-16.8,3.7-25.4,4.4-34.4c0.8-10.6,1.6-22,0-35.9c-1.2-10.3-4-25.3-11.6-42.7"/>
	<path fill="none" stroke="#000000" stroke-width="7" stroke-linecap="round" stroke-linejoin="round" stroke-miterlimit="10" d="
		M396.8,400.8c0.3,2.9,1.2,5.1,1.8,6.4c1,1.9,3.3,6.4,7.3,7.3c2.3,0.5,3.7-0.4,5.5,0.9c1.1,0.8,1.5,2,1.8,2.7c0.9,2.4,0.3,4.6,0,5.5
		c-1.6,0.1-3.9,0-6.4-0.9c-3.5-1.3-4.8-3.3-6.4-2.7c-1.5,0.6-2.3,3.4-1.8,5.5c0.5,1.9,2.1,3.1,5.5,5.5c3.1,2.2,4.7,3.3,6.4,3.6
		c4.5,1,8.6-1.7,10-2.7"/>
	<path fill="none" stroke="#000000" stroke-width="7" stroke-linecap="round" stroke-linejoin="round" stroke-miterlimit="10" d="
		M422.3,382.6c1.8,1.5,3.6,3,5.5,4.6"/>
</g>
<g id="vs-h-reveal">
	
		<path fill="none" stroke="#2E2B2C" stroke-width="65" stroke-linecap="round" stroke-linejoin="round" stroke-miterlimit="10" stroke-opacity="0" d="
		M561.4,29.2c-16.4-1-33,0.8-48.8,5.3c-9.2,2.6-18.9,6.7-23.1,14.9c-0.9,1.7-1.4,4,0,5.4c0.9,0.9,2.2,1.1,3.4,1.3
		c10.2,1.5,20.6,1.5,30.8-0.1c6.4-1,12.7-2.6,19.2-2.5s13.3,2.4,16.9,7.5c1.1,1.6,1.8,3.6,0.9,5.3c-0.7,1.3-2.3,2-3.8,2.6
		c-12.1,4.6-25.2,6.8-38.2,6.3c-8-0.3-16.3-1.5-23.7,1.3c-7.4,2.8-12.9,11.8-8.4,18c20.9,6.4,43.7-4.3,65.4-1.4
		c3.7,0.5,7.5,1.5,10.1,4.1c2.5,2.6,3.1,7.1,0.4,9.5c-1.7,1.5-4.3,1.8-6.6,2c-19.8,1.8-39.6,3.2-59.5,4.4c-3.9,4-1.3,11,3.6,13.8
		s11.1,2.6,16.8,2.3c7-0.3,14.1-0.7,21.1-1c3.6-0.2,7.7-0.1,10.1,2.4c2.8,3,1.3,8-1.9,10.5s-7.5,3.3-11.7,4
		c-10.1,1.7-20.3,3.4-30.4,5c-3.7,0.6-7.6,1.3-10.7,3.2c-3.2,2-5.5,5.6-4.6,9.1c1.7,6.5,11.2,6.6,18.3,6.1
		c23.6-1.9,46.8,5.2,69.3,12.2c7.6,2.4,16,5.4,19.2,12.4c0.7,1.5,1,3.3,0.2,4.7c-0.8,1.3-2.3,1.9-3.8,2.3c-15.2,5-32.1,3.5-47.8-0.1
		c-15.7-3.5-30.9-8.9-46.8-11.6c-24.7-4.1-50.6-1.4-73.7,7.7c-7.5,2.9-15.7,8.1-15.7,15.7c0,5.5,4.7,10.2,10.1,12.3
		s11.4,2.1,17.2,2.1c42.3-0.2,84.5-0.3,126.8-0.5c7.7,0,15.5,0,22.7,2.6c12.4,4.5,20.5,16.2,23.6,28.4c-50,1.7-100,4.4-149.8,8.1
		c-4.3,0.3-8.6,0.6-12.8,1c-1.2,0.1-2.5,0.2-3.4,1s-1.1,2.1-1.2,3.3c-0.6,5.5-1,11.5,2.4,16c4,5.3,11.7,6.4,18.5,6.8
		c17.7,1.1,35.4,0.6,53-1.5c14.9-1.8,30.1-4.8,44.9-2.3c14.8,2.5,29.6,12.2,31.8,26.3c-8.9,5.7-20.4,6.2-31.3,6.4
		c-40,0.8-80.1,1.6-120.1,2.4"/>
	
		<path fill="none" stroke="#2E2B2C" stroke-width="65" stroke-linecap="round" stroke-linejoin="round" stroke-miterlimit="10" stroke-opacity="0" d="
		M376.8,208.3c14.8-2.8,31.1,3.8,39.1,15.8c2.4,3.5,3.8,8.7,0.4,11.4c-1.1,0.9-2.6,1.3-4,1.5c-10.7,2.1-21.7-0.4-32.6-1.7
		c-10.8-1.4-22.8-1.4-31.6,4.8c-2.1,2.9-0.1,7.1,3.1,8.8c3.2,1.8,7,1.8,10.7,1.7c12.4-0.2,24.7-0.3,37.1-0.5c2.9,0,6,0,8.3,1.6
		c4.4,3.2,2.5,10.3-2.1,13.2c-4.6,2.9-10.5,2.7-16,2.6c-19.8-0.6-40.4-0.2-58.5,7.4c-6.6,2.8-13.7,9.6-9.9,15.4
		c2.3,3.6,7.5,4.2,12,4.3c16.9,0.3,33.9-1.3,50.4-4.8c2.6,2.5,1.7,6.9-1,9.3s-6.4,3.3-10,4.1c-7.1,1.6-14.1,3.2-21.2,4.8
		c-7.5,1.7-15.4,3.6-20.9,8.6s-7.5,14.4-2,19.5c4.2,3.9,10.8,3.9,16.7,3.7c9.1-0.3,18.3-0.7,27.4-1c2-0.1,4.2-0.1,5.6,1.2
		c1.6,1.3,1.8,3.5,1.9,5.5c0.1,2.5,0.2,5,0.4,7.5c0.1,2,0.2,4-0.8,5.8c-2.5,4.7-9.6,4.2-14.9,5.9c-7.6,2.4-12,11.4-9,18.4
		c17,0.2,34.1-1.4,50.8-4.9c0.7,2.9,1.4,5.9,2.1,8.8c-7.3,2.3-14.7,4.6-22,7c-4.4,1.4-9.8,4.4-8.5,8.6c0.7,2.4,3.4,3.7,5.9,4.6
		c15.9,5.8,33.8,6.6,50.2,2.3"/>
	
		<path fill="none" stroke="#2E2B2C" stroke-width="65" stroke-linecap="round" stroke-linejoin="round" stroke-miterlimit="10" stroke-opacity="0" d="
		M432,344.5c53.8,12.3,109.8-5.9,165.1-5.7c4.2,0,8.9,0.3,11.9,3.2c4.7,4.5,1.7,12.9-4.1,16.1c-5.8,3.3-13,3-19.7,2.7
		c-42.9-1.8-86,0.9-128.3,7.9c-4.5,0.8-9.3,1.6-13,4.2s-6,7.5-4.2,11.5c34,8.8,70,4.2,105.1,5.6c20.8,0.9,41.5,3.9,61.7,9
		c11.1,2.8,24,8.4,25.2,19.2c0.2,1.5,0,3.1-0.9,4.4c-1.4,2-4.1,2.5-6.6,2.8c-56.1,7.4-113.2,0.3-169.7,4.2c-8,0.6-16.4,1.4-23.2,5.5
		s-11.5,12.3-8.7,19.5c6.7,2.4,13.9,2.9,21,3.3c22.5,1.1,45.1,0.5,67.5-1.9c31.3-3.3,63.2-9.8,93.8-2.7c5.4,1.3,11.3,3.6,13.1,8.5
		c2.6,7.3-5.6,13.8-13.1,17c-25.7,10.7-54.8,10.7-83,10.5c-30.1-0.2-60.1-0.5-90.2-0.7c-8.9-0.1-18.5,0.1-25.4,5.4
		c-1.6,1.2-3,2.8-3.4,4.6c-1.3,5.7,6.4,9.2,12.5,10.4c29,5.8,58.9,11,88.2,6.7c14.5-2.1,28.5-6.5,42.9-8.7
		c18.1-2.8,36.6-2.3,54.9-1.7c7.9,10.6,2.8,27.3-7.2,36.1"/>
	
		<path fill="none" stroke="#2E2B2C" stroke-width="65" stroke-linecap="round" stroke-linejoin="round" stroke-miterlimit="10" stroke-opacity="0" d="
		M458.5,549c-8.3-0.1-16.9-0.4-24.7,2.5c-7.8,2.9-14.9,9.7-15.5,18.2c11.7,1.7,23.4,3.5,35,5.2c9.5,1.4,19.3,3,27.2,8.6
		c5,3.6,9.2,9.6,7.9,15.7c-1.8,8.7-2.6,29.1-11.2,30.3c-19.3,2.6-48.3-12.5-67.7-9.9c-3.5,0.5-7.1,1-10,3
		c-5.5,3.9-6.3,12.6-2.8,18.5s10,9.3,16.6,10.6s13.4,1,20.1,1.2c8.3,0.3,16.5,1.4,24.5,3.4c5.5,1.4,11.2,3.3,15.3,7.4
		s6.2,10.8,3.5,15.9c-3.5,6.6-12.2,7.5-19.6,8c-11,0.8-21.9,2.6-32.6,5.6c-4.3,1.2-8.8,2.7-11.8,6.1c-3,3.4-4,9.1-0.9,12.4
		c2.6,2.8,7,2.9,10.8,2.8c7.9-0.3,15.8-0.5,23.8-0.8c8.6-0.3,19.5,0.9,22.3,9.2c2.4,6.9-3.2,14.5-9.9,17c-6.7,2.5-14.1,1.4-21.3,0.7
		c-7.1-0.7-14.8-0.9-20.9,3s-9,13.4-4.1,18.7c3.5,3.7,9.2,3.9,14.3,3.8c11.8-0.2,23.5-0.4,35.3-0.6c5.3-0.1,12.4,8.1,11.9,13.5
		s-4.8,9.8-9.6,12c-4.8,2.2-10.3,2.6-15.5,3c-4.9,0.4-9.9,0.7-14.8,1.1c-5.6,0.4-11.6,1-16.1,4.5s-6.3,11.1-2.1,15
		c2.6,2.4,6.4,2.6,9.8,2.5c6.4-0.1,13-0.4,18.8,2.3c5.8,2.8,10.2,9.9,7.6,15.8c-2.4,5.6-9.3,7.4-15.3,7.3c-6,0-12.3-1.1-17.7,1.5
		c-6.7,3.3-9.9,11.2-11.1,18.7c-0.5,3-0.7,6.4,0.9,8.9c3.1,4.8,10.2,3.7,15.8,4c14.5,0.9,25.7,18,20.9,32
		c-9.6,1.1-19.2,2.2-28.8,3.2c-4.5,0.5-9.1,1-13.1,3.1s-7.4,6.1-7.4,10.7c0,8.9,11.1,13,19.8,12.4c8.8-0.6,17.8-3.3,26.3-0.9
		c8.5,2.4,15.6,13.2,10.3,20.5c-7.3,10-26.5,0.6-33.6,10.8c-0.4,0.6-0.8,1.3-1,2c-0.7,2.9,1.7,5.8,4.5,6.7s5.8,0.2,8.7-0.5"/>
	
		<path fill="none" stroke="#2E2B2C" stroke-width="65" stroke-linecap="round" stroke-linejoin="round" stroke-miterlimit="10" stroke-opacity="0" d="
		M498,554c13.2-2.7,33.2-5.2,57-2c19.8,2.7,46.4,9.8,46,16c-0.2,2.6-7.8,4.8-23,9c-30.8,8.5-46.1,12.8-47.3,12.9
		c-2.9,0.3-8.1,1.7-12.4,5.4c-3.4,2.9-5.2,8-2.8,11.7c17.3,3.6,35.6,2.2,52.1-3.8c5.9-2.2,13.9-4.4,17.4,0.6
		c2.3,3.2,0.8,7.8-2.1,10.4c-2.9,2.6-7,3.8-10.9,4.9c-13,3.7-25.9,7.3-38.9,11c-3.5,1-7.3,2.1-9.9,4.6s-3.6,6.8-1.2,9.5
		c21,0.4,42.1-0.9,62.9-3.9c0,12.7-11.8,22.6-24,28.1c-12.1,5.5-25.8,8.6-36.1,16.8c-4,3.2-7.5,7.5-7.3,12.4
		c0.3,5.6,5.7,10.1,11.5,11.5s11.9,0.6,17.8-0.2c8.8-1.1,18.1-1.7,26.4,1.5c8.2,3.2,15,11.4,13.3,19.6c-0.3,1.4-0.9,2.9-1.9,4
		c-1.7,1.7-4.4,2.2-7,2.5c-8.4,1.2-16.8,2.3-25.1,3.5c-6.3,0.9-12.9,1.9-18.1,5.5s-8.1,10.7-4.9,15.9c4.8,7.6,16.7,5.1,25.9,3.7
		c9-1.3,18.9-0.4,26.3,4.7c7.4,5.1,11.2,15.2,7,22.9c-13.1,0.7-26.2,1.5-39.2,2.2c-8.4,0.5-17.2,1-24.4,5.2
		c-7.2,4.1-12.1,13-8.6,20.2c20.1-0.5,40.2-0.9,60.4-1.4c1.3,0,2.6-0.1,3.8,0.3c2.5,0.7,4.2,2.9,5.1,5.2c3.6,9.5-4.5,20-14.5,23.7
		c-10,3.6-21.1,2.4-31.8,1.7c-5.1-0.3-10.4-0.5-15.2,1.2s-9.1,5.6-9.5,10.4c-0.4,4.9,3.2,9.4,7.7,11.7s9.8,2.8,15,3
		c8.6,0.3,17.2-0.2,25.8-1c6.9-0.7,14.3-1.5,20.6,1.2c6.3,2.8,10.6,10.8,6.6,16.2c-2.7,3.5-7.7,4.5-12.2,5.3
		c-9.1,1.5-18.3,3-27.4,4.4c-8.1,1.3-16.6,2.7-23.4,7.2c-6.8,4.5-11.4,12.9-8.4,20.2c19.2,1.1,38.4,0.4,57.4-2.2
		c4.9,3.5,1,11.5-4.9,13.4c-5.8,1.8-12.1,0.1-18.3,0.1c-6.1,0-13.4,3.1-13.7,8.9c28.3,1.5,56.6,3.1,84.9,4.6"/>
</g>
</svg>
