<?xml version="1.0" encoding="utf-8"?>
<!-- Generator: Adobe Illustrator 21.1.0, SVG Export Plug-In . SVG Version: 6.00 Build 0)  -->
<svg version="1.1" xmlns="http://www.w3.org/2000/svg" xmlns:xlink="http://www.w3.org/1999/xlink" x="0px" y="0px" width="1000px"
	 height="1000px" viewBox="0 0 1000 1000" enable-background="new 0 0 1000 1000" xml:space="preserve">
<g id="vs-skin">
	<path fill="#FFC7C0" d="M474.8,88.6c2.9,1.1,2.4,4.7,6.1,6.6c2.2,1.2,5.6,1.5,7.6-0.1c2.2-1.6,1.1-4,2.9-9.3c0.6-1.7,2-4.1,4.8-8.8
		c3.9-6.5,5.5-6.6,5.9-9.5c0.6-4.2-2.1-5.3-1.3-8.6c1.2-4.8,8.1-7.4,12.5-8c3.6-0.5,4.2,0.4,10,0.8c9.4,0.7,10-1.5,17.5-0.8
		c8.8,0.9,14.1,4.7,15.3,5.5c2.4,1.7,4.5,3.3,5.9,6.2c1.4,3,0.7,4.6,0.6,14.3c-0.1,5.8,0.2,5.3,0,10.8c-0.1,2.2-0.2,7.5-0.8,12.3
		c-0.6,5.3-1.4,7.4-4.2,17.9c-2.6,9.9-4.6,16.2-8.5,28.8c-0.8,2.7-1.8,5.7-4.4,8.3c-3,3.1-5,2.5-7.6,5.4c-0.6,0.7-2,2.4-3.8,10.5
		c-1.9,9-1.1,10.8-2.6,11.9c-3.8,2.9-13.6-4.5-20.6-8.9c-8.8-5.6-22.3-12.4-41.8-16.5c3.9-7.9,5-14.4,5.3-18.8
		c0.7-11.1-2.7-22.1-4.3-27c-3.3-10.2-6.4-14.2-4-18.5C467.1,89.9,471.8,87.5,474.8,88.6z"/>
	<path fill="#FFC7C0" d="M514.5,271c3.1-2.2,9.2-6.5,17.1-12c9.5-6.6,16.3-11.3,26.2-14.5c5.2-1.7,7.7-1.9,10.2-1.3
		c5.4,1.1,7.8,5,13.3,11.1c6.4,7.1,11.8,11.6,19.8,18.3c12.1,10.1,12.1,6.9,16,11.8c4.2,5.2,5.5,17.2,8,41c0.2,1.9,0.5,5.5-1,9.5
		c-1.4,3.7-3.2,4.9-6,8.3c-7.5,9.1-5.6,14.7-11,17.3c-2.5,1.2-5.3,0.8-10.7-0.2c-4.9-0.9-11.9-2.7-20-6.6c0.4-5,0-11.8-4.4-16.6
		c-3.1-3.5-5.1-2.5-9.8-6.3c-1.8-1.4-4.3-3.9-12.3-19.3c-2.1-4.1-3.8-7.6-5-10C534.8,291.2,524.7,281.1,514.5,271z"/>
</g>
<g id="vs-hair">
	<path fill="#3A231A" d="M463.3,89.2c-0.9-13.8-1-14.7-1-18.8c0.1-7.4,0.8-9.9,1.2-11.2c1.1-3.7,1.9-3.5,3.3-7.5
		c1.8-5.4,0.9-7.4,2.5-13.5c1-3.9,1.5-5.8,2.7-7.4c2.3-3.1,5.7-4.4,11.8-5.8c8.2-2,14.7-2.7,17.8-3c16.8-1.7,16.5,0,23.3-1.8
		c1.9-0.5,4.1-1.2,6.8-0.5c4.1,1,4.7,3.8,8.7,4.7c3.9,0.8,4.7-1.6,8.3-0.9c3.3,0.7,5.3,3.5,9.2,9.2c3.4,5,5.2,7.6,5.8,10.7
		c0.4,2-0.4,6.7-2,16.2c-0.3,1.6-0.5,2.7-1.3,3c-2.3,0.9-4.7-6.7-11.6-9.9c-2.9-1.3-3.1-0.2-14.6-1.1c-6.8-0.5-7.3-1-11.8-1
		c-6.7-0.1-10,0-13.2,2.3c-3.9,2.8-5.1,7.3-5.3,7.7c-0.9,3.4,0.5,4.1-0.3,7.3c-0.9,3.5-2.9,3.7-7.4,9.4c-2.9,3.7-4.9,6.2-6.1,10
		c-1.5,4.7-0.6,7.3-2.6,8.6c-2.1,1.3-5.3,0.3-7.3-1c-3.2-2.1-2.5-4.7-5-5.8c-3.2-1.4-8.1,1-9.8,4.3c-1,1.9-0.7,3.8-1,3.8
		C463.8,97,463.5,91.9,463.3,89.2z"/>
</g>
<g id="vs-primary">
	<path fill="#FF5648" d="M469.5,157.8L469.5,157.8c3.5,1.6,9,4.1,15.8,6.7c12.9,5.1,16.3,5.4,25.9,9.3c12.8,5.2,19.4,7.8,25.9,13.9
		c5.1,4.8,6.8,8.5,14.7,23c3.8,7,9.6,17.6,17.2,30.7c-4.9,1.5-10,3.4-15.4,5.7c-16,6.9-28.6,15.5-38.2,23.4
		c6.5,8.4,12.5,14.3,16.8,18c10.2,9,15.4,10.4,17.7,17.6c1.7,5.3,0.3,9,4,15c2.5,4.1,6,7,6.2,7.2c2.5,2.1,4.3,2.8,9.4,6.6
		c3.1,2.3,3.5,2.9,3.9,3.4c2.1,3.2,1.1,6.7,0.9,10.1c-0.3,6.3,2.6,8.4,5.2,16.1c1.8,5.2,2.1,10.4,2.6,20.7c0.8,15-0.4,27.2-1.3,36
		c-0.7,7.3-1.2,9.5-1.8,17.7c-0.8,10.4-0.3,10.8-1.2,12.8c-2.9,6-10.9,8.1-32,11c-16.1,2.2-24.2,3.3-30.8,3.5
		c-29.2,0.9-57.7-1.7-76.8-4c2.2-15.1,3.2-26.5,3.8-34.5c0.6-9.6,0.7-15.4,4.8-21.8c2.9-4.4,5.4-5.6,5.8-9.5c0.2-2.9-1-3.7-5.8-15.5
		c-1.1-2.9-1.9-4.9-2.3-7.8c-0.5-4.1,0.1-7.2,0.3-7.8c0.9-4.8,0.1-35.3-3.8-110c-0.9-6.7-1.9-16.3-1.9-28.1c0-7.4,0-11.2,0.7-15.5
		c1.2-6.8,3.5-12.7,14.3-30.7c3.6-6,8.3-13.6,14-22.3"/>
</g>
<g id="vs-secondary">
	<path fill="#BFBDC6" d="M443.8,461.4c7.6,1.4,17.1,2.8,28.1,3.7c3.4,0.3,14.2,1.1,28.8,1c13.8-0.1,33.7-1.1,58.4-5
		c8.3,10.7,10.3,19.5,10.8,25.1c0.2,2.7,0.2,6.8,0.2,15c0,1.4,0,5.1-0.2,13.9c-0.1,7.4-0.3,14.3-0.4,17.3c-0.6,19.2-1.1,36-4.1,55.3
		c-0.4,2.8-3,15-8.2,39.5c-1.8,8.7-3.4,15.8-4.4,20.6c4.3,8.5,4,14.3,2.8,18.2c-1.3,4.1-3.3,5.1-4.6,10.5c-1.3,5.6,0.2,7.3-0.5,13.3
		c-0.6,4.7-2,7.8-4.7,13.4c-3.5,7.5-5.7,12.2-10.6,16.3c-4.9,4.2-8.2,4-9.6,7.8c-1.3,3.8,1.6,5.1,1,10.3c-0.6,6.1-4.7,6.6-6.3,14.2
		c-0.3,1.5-0.4,3.9-0.5,8.5c-0.2,5.2,0.1,6.8,0,11.2c-0.1,7.5-0.8,6.9-0.8,13.3c0,6.5,0.7,7.6,0.6,15c-0.1,4.7-0.4,5.2-0.4,8.1
		c-0.1,9.2,2.9,11.5,7.4,29.2c2.1,8.3,1.5,8,2.9,11.7c1.6,4.2,3,6.2,2.4,9.4c-0.6,3.3-2.7,3.6-2.9,6.3c-0.2,3,2.4,4,6.8,10
		c4.8,6.5,3.4,7.7,7.4,11.6c2.2,2.1,4.1,3.2,4,5c-0.1,1.9-2.1,2.8-4.3,4.7c-3.6,3.2-3,5.3-7,12.8c-2.4,4.4-4.3,7.9-7.8,11.2
		c-4.5,4.2-9.2,6-11.5,6.8c-9.2,3.2-17.3,1.7-26.7-0.1c-5.8-1.2-14.1-3.4-23.5-7.9c0.8-2.6,1.6-6.6,1-11.3c-0.7-6-3.3-9.5-5-13
		c-3.8-7.9-2.5-14.1-2.3-24.5c0.2-8.6-0.3-20.9-3.5-36.5c1.3-28,2.7-56,4-84c5.6-10.1,5.2-14.9,3.5-17.3c-1.1-1.6-3.2-2.6-3.4-4.9
		c-0.2-2,1.1-3,2.6-5.8c0.2-0.4,2.4-4.5,2.8-8c0.6-6-4.3-7.3-4-12.7c0.3-4.5,3.7-5.2,6-11c2.2-5.7,1.1-10.7,0.8-13.5
		c-1.1-7.7-1.3-26.6,1-69.8c1.1-19.7,2.2-39.3,3.3-59c-3.9-4.9-7.7-9.8-11.6-14.8c-5.9-7.2-17.6-23.7-19.5-47.2
		C441.4,476,442.4,467.8,443.8,461.4z"/>
</g>
<g id="vs-colour">
	<path fill="#FFFFFF" d="M523.4,119.6c0.5-1,2-1.1,12.4-0.1c6.7,0.7,8.7,1,9.6,2.6c0.7,1.4,0.4,3.1-0.3,4.3
		c-1.5,2.3-4.9,2.2-8.3,2.1c-3.6-0.1-8.3-0.2-11.4-3.8C525.1,124.4,522.4,121.4,523.4,119.6z"/>
	<path fill="#C48051" d="M478,922.8c4.7-2.8,9,3.4,20.2,5c5.8,0.9,10.6,0.1,18.6-1.1c2-0.3,3.9-0.7,6.2-1.6c1.5-0.6,5.3-2.2,8.5-5.8
		c3.3-3.7,2.4-5.5,5.6-8.5c0.2-0.2,3-2.8,6.8-3.8c5.7-1.6,9.5,1.4,17.3,4c3.9,1.3,9.5,2,20.9,3.5c2.6,0.3,10.3,1.3,19.5,4.5
		c3.1,1.1,6.1,2.3,6.8,4.8c0.9,3.1-2.1,6.4-2.7,7.1c-3.6,4-8.8,4.7-10.9,5c-6.2,0.9-14.8,2.9-26.7,7.6c1.5,1.6,4,4,7.7,6.2
		c6.6,3.9,9.8,2.8,18.5,6.7c4.8,2.1,3.2,2.2,11.2,6.3c7.6,3.9,11,4.9,11.2,7.2c0.2,2.6-3.7,4.8-6.1,6.2c-7.9,4.5-15.7,4.9-19.7,5.1
		c-14.4,0.6-21.5,0.9-27.6,0.4c-15.4-1.3-19.3-3.9-39.3-6.2c-6-0.7-10.9-1.1-14.2-1.3c-4.4,0.7-14.6,1.8-25.9-2.9
		c-8.1-3.4-13.4-8.3-16.3-11.4c3.2-6.7,4.2-12.3,4.5-16.3c0.4-5.2-0.3-10.3,2.8-16.2C475.9,924.8,476.5,923.6,478,922.8z"/>
</g>
<g id="vs-shade">
	<path opacity="0.4" d="M476.8,30.7c0.9,0.9-0.3,2.6-0.3,8.3c0,3.8,0.5,4.3,0.8,4.5c1.2,0.6,2.8-3.4,4.7-3c0.6,0.1,0.7,0.6,3.5,3.8
		c1,1.1,1.3,1.5,1.8,1.5c1.2-0.1,1.3-2.4,2.7-2.7c1.4-0.3,2.4,2.1,3.5,1.8c1.3-0.3,1-3.4,2.2-6.7c2-5.2,7-8.2,7.7-7.7
		c0.5,0.4-2,2.9-2.3,7.5c-0.1,1.8-0.1,4.9,1.2,5.3c0.8,0.3,1.7-0.9,3.5-2.5c1.7-1.5,4.3-3.8,7-4.7c3.5-1.1,4.3,1.2,10.2,1
		c4.1-0.1,4.1-1.3,7.2-1c4.3,0.4,4.6,2.6,9,3c0.8,0.1,5.1,0.4,7.8-2.3c0.8-0.8,2-2.4,1.5-3.2c-0.7-1.2-4.2,1.5-8.2,0.3
		c-3.2-0.9-5.1-3.8-7-6.8c-0.7-1.1-2.7-4.3-2-5c0.9-0.9,4.4,3.5,9.8,3.3c3.3-0.1,3.6-1.8,6.3-1.7c4.1,0.2,7.1,4.2,10.3,8.7
		c3.5,4.7,5.2,7.1,5.8,10.7c0.6,3.7-1.2,8.2-5,17.2c-0.3,0.7-0.7,1.7-1.7,2c-2.1,0.6-3.8-3.5-7.3-6.2c-3.3-2.6-7.7-2.8-16.3-3.3
		c-4.9-0.3-8.2,0-14,0.5c-4.3,0.4-6.5,0.8-8.8,1.7c-2.5,1-5.7,2.2-7.5,5.2c-1.2,2-0.5,2.6-1.7,6.8c-1.2,4.2-2.9,7.2-3.6,8.4
		c-2.5,4.4-3.5,3.9-5.2,7.4c-1.6,3.3-0.8,3.8-2.6,9c-1.5,4.4-2.3,4.5-3.6,8.4c-0.3,0.9-1.3,4.2-1.7,8.5c-0.6,6.9,1.4,12.4,0.5,12.7
		c-0.6,0.2-1.2-2.2-3.2-2.5c-1-0.1-1.4,0.3-3,0.8c-1.4,0.4-3.6,1.2-5,0.3c-2.8-1.7-2.3-7.2-0.8-7.8c0.9-0.4,1.7,1.4,4.2,1.7
		c1.4,0.2,3.7-0.1,4.5-1.7c0.5-0.9,0.4-2.1-0.2-3c-1.1-1.9-3.4-0.9-5.3-2.8c-1.6-1.6-1.8-3.9-1.8-5c-0.1-1-0.2-3.2,1.2-5
		c1-1.3,1.8-1.1,2.3-2.2c0.7-1.5-0.1-3.8-1.5-5c-0.8-0.6-1.8-1-4.6-1c-5.7,0-6.6,1.6-8.4,0.8c-2.6-1.1-3-5.4-3.6-12
		c-0.3-2.8-0.8-8.9,0.4-9.2c1.8-0.4,6.1,11.6,7.2,11.2c0.6-0.2-1-4.2,0.8-8.2c0.8-1.7,1.9-3.5,2.5-3.3c0.5,0.2,0.2,1.7,0.6,5.3
		c0.3,3.3,0.8,4.5,1.8,5.2c0.1,0.1,1.1,0.8,1.7,0.5c0.8-0.4,0.4-2.3,0.5-3.8c0.3-4.9,6-8.7,6.5-8.3c0.3,0.3-1.6,2-2.5,5.7
		c-1.2,4.5-0.2,9.2,0.8,9.3c0.9,0.1,0.9-3,4-6c2-2,3-1.6,5.2-3.8c2-2,2.9-4.1,3.3-5.2c1.5-3.6,2.1-8.2,1.2-8.5
		c-1.3-0.5-5.3,8-6.5,7.5c-0.7-0.3,0.5-3.4-0.3-8.3c-0.3-1.5-0.7-3.7-1.8-4c-0.8-0.2-1.5,0.7-3.3,2.5c-2.7,2.7-4.7,4.5-5.3,4.2
		c-1.2-0.6,1.8-7.7,0.8-8.2c-0.4-0.2-1.2,1.3-3,2.7c-2,1.5-5.5,3-6.7,2c-1.4-1.2,2-4.6,1.7-10.3c-0.4-5.4-3.7-6.7-2.8-10
		C467.6,31.5,475.2,29,476.8,30.7z"/>
	<path opacity="0.4" d="M494.7,135.5c-2.6-3.2-4.3-6.4-5.2-6c-1.2,0.5,0,7.3,3,13c1.9,3.7,4.4,6.5,6.5,9c4.2,4.8,6.5,7.3,6.5,7.3
		c2.6,2.8,3.4,3.5,3.2,4c-0.6,1.2-6.7-1.3-17-2.8c-4-0.6-9.8-1.4-10.2-0.3c-0.4,1.2,6.5,4,14.7,8.2c22.1,11.2,27.9,19.2,33.2,16.3
		c2.2-1.2,3.9-6.4,7.3-16.9c1.3-4.1,2.3-7.6,2.9-10.1c-10.2-2.2-18.3-5.4-24.1-8.1C505.6,144.4,499.8,141.8,494.7,135.5z"/>
	<path opacity="0.4" d="M532.4,78.3c0.2,0.2,0.2,0.5-0.3,3.9c-0.3,2.1-0.3,2.3-0.2,2.9c0.3,1,0.7,1.3,0.9,2.5c0,0.3,0,0.8,0,1.7
		c-0.1,1.8-0.1,2.7-0.3,3.4c-0.3,1.1-0.9,2.3-1.4,2.2c-0.3-0.1-0.3-0.9-1.1-1.7c0,0-0.4-0.3-0.8-0.5c-1.2-0.5-2.6,0.4-3.3,0.7
		c-1.7,0.8-3.6,0.3-7.4-0.8c-2.6-0.7-7.1-2.3-6.9-3.2c0.1-0.7,3.3-0.7,9.5-1.8c0,0,1.7-0.3,3.5-1.4c0.8-0.5,1.7-1.1,1.7-1.8
		c0-0.6-0.8-1-2-1.7c-4.7-2.5-4.4-2.5-4.8-2.6c-3.2-1.1-5.6-0.3-5.7-0.6c0-0.1,0.7-0.4,13.3-2C529.3,77.5,531.7,77.2,532.4,78.3z"/>
	<path opacity="0.4" d="M545.6,79.6c-0.4,0.3-0.9,1-2,2.5c-0.6,0.8-0.9,1.2-1,1.6c-0.2,0.7-0.2,1.2,0.5,3.7c0.1,0.5,0.5,1.8,1.3,4.1
		c0.7,2,1,2.5,1.5,2.7c0.5,0.1,0.7-0.2,1.9-0.6c0.6-0.2,1-0.2,1.8-0.3c1.9-0.2,2.7-0.1,4.1-0.2c2.2-0.1,3.9-0.2,4.5-1.3
		c0.9-1.4-1.2-2.9-0.7-5.4c0.5-2.3,2.5-2.6,2.4-4.3c-0.1-1.6-2.2-3.1-4.2-3.3c-2-0.3-2.3,1-5,1.2C548,80,547,78.7,545.6,79.6z"/>
	<path opacity="0.4" d="M530.9,103.7c0,0-0.1-1.2-0.5-2.7c-0.3-0.9-0.4-1.4-0.8-1.5c-0.7-0.3-1.6,1-3.8,3.3
		c-2.2,2.3-2.5,2.4-4.2,4.3c-1.1,1.3-2.7,3.3-2.4,3.6c0.2,0.2,1.1-0.7,3.5-2c0.1,0,0.5-0.3,1.3-0.7c1.6-0.8,1.8-0.9,2-0.8
		c0.8,0.1,0.9,1,1.8,1.8c0.7,0.6,1.3,0.7,2.8,1c4.3,0.9,4.9,1.3,5.1,1C536.5,110.2,531.1,106.8,530.9,103.7z"/>
	<path opacity="0.4" d="M550.5,102.1c0.3-0.1,0.7,0.5,3.1,3.5c1,1.2,1.3,1.6,1.6,2.3c0.3,0.9,0.2,1.4,0.7,1.7
		c0.8,0.5,1.7-0.7,2.4-0.3c0.7,0.3,0.4,1.9-0.6,7.4c-0.3,1.9-0.5,2.8-0.8,2.8c-0.6,0-0.9-2.6-3.1-5.8c-0.5-0.7-0.8-1-1.2-1.3
		c-1.2-0.7-2.2-0.2-4.3-0.3c-1.3-0.1-3.3-0.4-3.3-0.9c-0.1-0.7,3-0.7,4.3-2.9c0.6-1,0.7-2.3,0.8-3.8
		C550.4,103,550.2,102.3,550.5,102.1z"/>
	<path opacity="0.4" d="M544.9,145c-7.1,1.2-7.3-0.2-10.8,1.2c-3.4,1.3-4,2.9-6.4,2.8c-2.2-0.1-3.8-1.6-4.4-2.2
		c-6.3-5.6-21.1-10.9-21.7-10c-0.5,0.8,10.7,8.4,20.3,14c10,5.8,14.2,7,18.4,6.1c0.4-0.1,7.1-1.6,9.3-6.9c0.1-0.3,1.5-3.7,0.1-5
		C548.9,144.1,547.6,144.5,544.9,145z"/>
	<path opacity="0.4" d="M516.2,118.8c-0.6,0.3-0.9,1.2-1.4,2.9c-0.6,1.9-1,3.2-0.5,3.7c0.5,0.4,1.1-0.3,3.1-0.5
		c0.8-0.1,2-0.2,3.3,0.3c0.7,0.2,0.9,0.4,2,0.8c1.1,0.4,1.7,0.6,1.9,0.4c0.5-0.5-0.8-3.3-2.9-5.3C521.2,120.6,518,117.7,516.2,118.8
		z"/>
	<path opacity="0.4" d="M552.3,118.5c0.6,0.1,1.2,3.2-0.3,5.4c-0.6,0.8-1.2,1.3-2.3,1.9c-0.9,0.6-3.6,2.3-4.4,1.6
		c-0.9-0.8,0.2-4.5,2.5-5.8c0.9-0.5,1.8-0.5,2.9-1.5C551.8,119.2,551.9,118.4,552.3,118.5z"/>
	<path opacity="0.4" d="M476.8,257.1c0.7-0.8,4.1,1.9,10.9,4.6c0,0,3.6,1.5,7.6,2.5c12.3,3.2,20.1-0.1,21.9,3.5
		c1.2,2.3-1.1,5.6-0.5,5.9c1,0.5,5.2-9.5,8.9-9c2,0.3,2.9,3.5,4,6.1c1.6,3.8,3.4,6.1,15.3,17.1c27.8,26,36.6,31.3,42.6,34
		c1.8,0.8,2.4,0.9,7.5,3.1c8.8,3.7,11.7,5.4,16.8,5.6c2.5,0.1,3.8,0.2,5.3-0.4c7.5-3,6.8-16.6,8.5-16.5c1.6,0.1,5.2,12.9-0.6,19.5
		c-2.5,2.8-4.7,2.3-7.8,6.3c-3,3.9-2.9,6.9-5.4,7.7c-1.8,0.6-2.9-0.8-6.3-2.1c-4.6-1.9-12.4-3.4-15.1-0.4c-1.1,1.2-0.4,1.9-1.6,7.8
		c-0.9,4.2-1.3,6.3-2.3,6.5c-1.8,0.5-4.2-4.2-10.1-13.6c-2.8-4.4-4.8-7.5-7-10.6c-6.3-8.8-9.5-10.2-15.3-17.6
		c-2.5-3.2-6-8.3-9.4-15.3c-6.4-6.5-12.8-12.9-19.3-19.4c-4.4,1.9-8.4,3.2-11.8,4.3c-9.3,2.8-15.6,4.5-19.4,1.5
		c-1-0.8-0.4-0.8-3.6-5.6c-3.4-5.1-4-5.1-5.8-8.1c-2.2-3.8-1.4-4.2-3.8-9C478.5,260,476.1,257.8,476.8,257.1z"/>
	<path opacity="0.4" d="M544.3,248.8c-5.3,0.6-11.4,0.7-26.8-1.6c-21.2-3.2-39.4-8-39.3-8.6c0.1-0.5,12.2,2.1,34.4,4.4
		c4.3,0.4,13.2,1.3,24.9,0.4c1.9-0.1,14.2-1.1,14.3-2.6c0-1.4-10.8-1.7-26.8-5.1c-15.2-3.3-28.6-8-28.4-8.9
		c0.2-0.7,9.5,1.4,26.8,3.6c15.9,2,32.6,3.2,32.8,2.1c0.1-0.5-4.1-1.4-21.3-6c-11.2-3-12.9-3.6-12.9-4.1c0.1-1.3,11.1-3,22.1-0.1
		c3.1,0.8,7.4,2.3,7.8,1.5c0.3-0.7-2.8-1.9-4.6-5.4c-1.6-3-0.4-4.4-1.5-6.8c-0.8-1.9-2.8-3.8-12.8-6.5c-10-2.7-14.8-2.5-14.9-3.6
		c-0.1-1.3,6.9-4.5,13.8-3.4c2,0.3,3.6,1,4.5,0.1c1.9-1.8-1.8-7.6-1.1-8c1-0.6,10.9,11,21.9,29.4c5.3,8.9,9.2,16.6,11.8,22
		C563.3,244.1,554.9,247.5,544.3,248.8z"/>
	<path opacity="0.4" d="M468.1,240.9c-4.5-11.6-4.9-17.6-5-20c-0.1-2.2-0.2-8,1.6-15c3.4-13.1,10.6-20.3,9.9-20.9
		c-0.8-0.6-10.3,6.6-15,18.6c-2.2,5.6-2.7,10.7-3.6,20.9c-0.7,7.6-1.1,11.4-0.3,16.1c0.6,3.6,1.9,11.5,7.6,17.9
		c1,1.2,2.6,2.7,5.9,5.9c5.5,5.4,7.3,6.8,7,7.4c-0.7,1.3-9.7-2.1-14.3-3.9c-6.2-2.4-8.3-3.6-8.8-3c-0.8,1.1,3.8,7.1,10.1,11
		c1.4,0.9,4.7,2.4,11.4,5.4c3.5,1.6,4.1,1.8,7.3,3.3c2.3,1.1,3.2,1.5,4.8,2.1c0.2,0.1,3.1,1.2,6.3,1.9c4.5,1,11.6,2.6,18.6,0
		c5.3-2,7.2-5.1,8-4.4c1.3,1.1-1.9,9.4-8.6,14.5c-4.9,3.7-10.1,4.4-12.4,4.8c-1.6,0.2-3.7,0.4-14.3-1c-10.8-1.4-13.4-2.1-13.6-1.5
		c-0.4,1.2,7.3,6,16.3,7.8c6.5,1.3,12.1,0.6,14,0.4c3.8-0.5,7.2-1.4,8.5-1.8c1.7-0.5,3.6-1,6-2c5-2.1,6.5-3.9,7.1-3.5
		c1.3,0.9-3.4,10.5-12.5,24.5c-5.4,8.4-14.1,21-27.5,35.4c-8.4,9-13.6,13.4-21.1,15.9c-5.4,1.8-10.2,2.1-13.4,2c2,6,4,12,6,18
		c14.7-7.8,24.4-16.4,30.5-22.8c7.6-8,14.4-17.9,27.8-37.5c10-14.7,13.9-21.2,15.1-20.6c1.3,0.6-1.9,9-9.5,31.1
		c-7.2,21.2-12.2,37-21.8,53.5c-2.4,4.1-6.2,10.2-13.3,15.5c-2.2,1.7-7,5.1-14,7.1c-12.1,3.4-19-1-25.5,4.5c-2,1.6-4.2,4.5-3.5,5.9
		c1.5,2.9,15.5-1.7,20.1-3.3c18.1-6,27.7-9.2,36.6-18c8.8-8.7,12.6-19.1,20.3-40c2.1-5.7,2.8-8.5,6.3-19.4
		c5.4-17.2,10-31.1,13.1-40.4c0.6-0.7,1.6-1.6,2.4-1.4c2,0.5,2.1,6.7,2.1,10c0.1,8.8,0.7,17.5,0.9,26.3c0.2,11.3,1.5,9.8,2.5,25.9
		c1.1,16.5,0.1,24.7,1,24.8c1.2,0.1,6.2-15.7,5.1-32.5c0-0.1-0.6-9,0-20.9c0.3-6.4,0.7-7.7,1.1-7.8c1.6-0.2,4.4,15.7,4.9,18.6
		c2,11.1,1.8,14.8,4,28.1c0.8,5.1,1.6,8.8,2.1,11.5c2.4,12.1,7.1,32.6,8.3,32.4c1.3-0.2-0.5-24.6-4.4-46.1c-0.5-2.9-1.5-8.2-1-8.3
		c0.9-0.2,6.6,18.4,7.2,20.5c3.9,12.9,4.7,17.4,5.3,17.4c1-0.1,0.7-14.6-4.6-73.6c-3.4-1.1-12.7-4.6-20-14
		c-7.1-9.1-8.2-18.6-8.5-22.3c-9.3-16.6-16.1-19.8-20.8-19.5c-5,0.4-8.1,5-17.5,6c-2.7,0.3-6.2,0.6-9.9-0.8
		c-5.8-2.2-7.9-7.4-13.1-17.6C473.9,251.1,472.5,252.3,468.1,240.9z"/>
	<path opacity="0.4" d="M473.3,468.8c-0.1,0.4-4.9-0.4-12.5,0.5c-8.3,1-9.6,2.8-10,3.5c-1.3,2.4,0.2,5.4,1.3,7.8
		c3.8,8.5,5.1,17.9,7.8,26.8c2.5,8.4,3.2,11.9,6,18.3c3.9,9,6.2,10.6,7.8,11.3c4.6,2,9.2-0.9,16.8-4.3c15.4-6.9,29.9-10.1,30.3-9.3
		c0.4,0.8-10.4,7.4-23.5,12.5c-7.6,2.9-12.6,4-12.5,5.3c0.3,2.5,23.1,1.3,23.3,3c0.1,1-7.6,3.8-15.8,4.8c-2.9,0.3-5.4,0.4-7,2.3
		c-2,2.3-1.3,5.7-1,7.8c1,6.5-1,13.2-1,19.8c0.1,29.5,0.9,37.3,0.3,55.3c-0.2,5.3,0,10.7-0.5,16c-1,11.5-2.8,17.2,0.5,23.5
		c0.5,0.9,2.1,3.8,5.3,6.3c3.3,2.5,6.7,3.2,8.3,3.5c14.2,2.8,32.5,2.5,32.8,4.5c0.1,1-4.5,3-9.3,3.5c-5.2,0.5-6.4-1.2-13-1.5
		c-4.8-0.2-4.6,0.8-11.8,1c-8.6,0.2-12.9-0.8-13.3,0.3c-0.4,1.3,5.4,4.4,10.8,6.3c4.8,1.7,8.1,1.9,12,2.5c14.2,2.1,14.4,5.4,21,5.3
		c13.3-0.3,21-13.8,23.2-11.9c1.7,1.4-1,9.9-7.2,14.4c-4.5,3.2-10,3.4-20.8,3.5c-1.2,0-5.2-0.2-13.3-0.5c-8.2-0.4-16.5-0.1-24.8-1
		c-4.1-0.4-8.8-1.1-9-0.3c-0.3,1.2,8.5,3.8,8.3,6.8c-0.2,2.1-4.5,2.5-4.5,4c0.1,1.8,7,3.7,14.5,4c3.2,0.1,7.9,0,21.3-2.8
		c9.6-2,17.6-4.1,18-3c0.4,1.1-7.5,3.5-8.3,9c-0.4,3,1.6,4.8,0.5,6.3c-1.3,1.7-5.3,0.5-9-0.3c-3.8-0.8,0,0.4-20.8-1.3
		c-13.6-1.1-15.5-1.6-18.3,0.3c-5.1,3.3-6.1,9.9-6.3,11.3c-0.2,1.6-1.3,8.9,2.5,12c2.1,1.6,5.4,2,21.3-4
		c15.7-5.9,23.2-10.3,26.8-7.3c1.4,1.2,1.8,3.2,2.3,5.5c0.6,2.8,0.9,8.2-1.2,9.2c-2,1-3.9-3.3-8.8-5.5c-10.8-4.7-25.2,5.8-27.5,7.5
		c-1.4,1-4.3,3.3-7.5,6.3c-3.1,2.8-5.2,5.2-5.5,5.5c-6.1,6.7-4.3,19.3-6,40.5c-0.9,10.8-1.7,12.4-1.5,19.8c0.1,2.6,0.3,5.8,2.8,19.8
		c5.3,30.3,7,30.5,5.8,36.8c-0.6,2.8-1.6,6.2,0.3,8.5c1.9,2.4,5,1.3,13.8,2.3c9.3,1,10.5,2.7,15.3,1.5c4.6-1.2,7.9-4,8.8-4.8
		c3.2-2.8,5.9-6.9,7-8.5c2.1-3.1,3.1-5.3,4-5.1c1.1,0.3,0,3.6,2.2,6.2c1.9,2.3,4.6,1.9,4.9,3.4c0.2,0.8-0.4,1.9-4.1,4.5
		c-3.9,2.7-7.2,4.2-8.5,4.8c-6.8,3.1-6.2,3.8-14.3,7.5c-5.6,2.6-7.7,3.1-10,2.5c-2.3-0.6-2.5-1.6-5.5-2.8c-3.9-1.5-9.2-1.9-10-0.3
		c-0.8,1.6,2.9,5.5,6.8,7.8c5.2,3.1,7.3,1.3,21.5,3.3c5.7,0.8,8.1,1.4,11.3,0c2.8-1.3,4-3.3,6.5-6.5c2.3-3,5.9-7.1,11-11.8
		c0.8,1.2,3,4.9,2,9.3c-1,4.6-4.7,7.1-7.5,8.9c-1.9,1.3-4.8,2.8-11,4.3c-12.3,2.8-15.4-0.1-20.8,3.4c-4,2.6-5.8,6.5-7.5,10.1
		c-0.7,1.4-3.6,8-2.5,16.3c0.4,2.9,0.6,4.4,1.8,5.8c3.1,3.5,9.1,2.1,14.8,1.8c2.2-0.1,2.7,0,23,4.3c32.6,6.8,35.1,7.2,40.3,7.3
		c4.5,0,10-0.7,21-2c21.2-2.6,29.3-5.1,29.8-3.6c0.7,1.9-11.8,10.9-27.7,14c-10,2-11.9-0.2-44.6-4.4c-25.9-3.3-38.8-4.9-43.2-4.5
		c-2.8,0.3-9.5,1.1-17.4-1.3c-3.6-1.1-11.5-3.5-15.4-10.6c-2.4-4.3-2.2-8.3-2-13.3c0.3-5.4,1.5-14.3,7-24.8c-2-1.2-4.5-3.1-5.3-6
		c-0.9-3.3,1.2-4.8,0.5-7.8c-0.9-4.5-6-4.9-9-9.2c-3.5-4.9-1.9-11.2-1.3-15c3.3-18.2-4.4-23.3-3.5-54.5c0.5-17,2.7-12.7,3.3-30.5
		c0.9-27.5-4.4-36.2,1.2-47.5c1.7-3.4,6.1-10.4,4-16.7c-0.4-1.3-1.4-3.5-1.4-6.7c0-3.1,0.9-4.9,1.4-7c2.2-8.1-3.2-10.8-1.3-18.3
		c1.2-4.7,3.5-4.3,4.8-9.4c1.2-4.7,0.1-7.8-0.8-12.8c-1.3-7.4-0.9-13.8,0-26.5c0.5-7,0.9-6.6,1.8-16.3c0.9-10.2,1.1-17.7,1.3-22.3
		c0.4-13.3,1.3-36.8,2.8-69.3c-3.8-4.4-8.5-10.3-13-17.8c-7-11.4-10.7-21.5-12.5-26.8c-7-21.1-3.7-29.3-6.5-37.7
		c-0.2-0.5-0.7-1.9,0-2.8c1.3-1.6,6.3,0.5,9.8,1.8C462.8,468.2,473.3,468.1,473.3,468.8z"/>
	<path opacity="0.4" d="M553,666.5c-1.9-1.5-5.4,2.3-13.3,5c-11.6,4-20.1,0.6-20.5,2.5c-0.4,1.7,6.2,6,12.7,5.4
		c2.9-0.3,3-1.3,6.8-1.9c6.4-1,8.8,1.8,11.5,0C554,674.8,555.1,668.1,553,666.5z"/>
	<path opacity="0.4" d="M537.8,916c4.7-1.1,6.6,6.8,17.5,11c4.4,1.7,8.3,2,13.5,2.5c5,0.5,9.4,0.4,14.3,0
		c16.9-1.3,27.6-4.9,27.9-3.9c0.2,0.5-2.2,1.6-12.9,6.4c-15.7,7.1-18.9,8.5-24.4,9.5c-4.4,0.9-7.5,1.5-11.8,1.2
		c-3.2-0.2-4.8-0.8-22.5-8.7c-3.9-1.7-5.8-2.6-6.8-4.5C530.2,924.9,533.5,917,537.8,916z"/>
</g>
<g id="vs-outline">
	<path fill="none" stroke="#000000" stroke-width="11" stroke-linecap="round" stroke-linejoin="round" stroke-miterlimit="10" d="
		M467.5,49.5c-0.4-1.7-0.9-4.4-0.8-7.8c0.1-2.7,0.3-6.6,2.8-10c1.3-1.8,3-2.9,6.3-5c4.6-2.9,7.2-4.6,11-5.5c1.2-0.3,5.2-0.4,13-0.5
		c4.1-0.1,5.8,0,8.5-0.5c3.7-0.6,3.7-1.2,6.8-1.5c2.6-0.3,2.9,0.1,9.5,0.3c4.6,0.1,4.6-0.1,5.8,0.3c4.1,1.1,4.1,3.6,7.5,4.8
		c4.4,1.5,6-2,10.8-0.5c1.3,0.4,3.3,1.9,7.3,5c2.3,1.8,3.3,2.8,4.3,3.8c0.6,0.7,2,2.2,3.3,4.5c1.5,2.6,2.2,3.9,2.3,5.8
		c0,1.4-0.5,2.6-1.5,5c-1.3,3.1-1.9,3.2-2.5,5c-0.3,1-0.5,2.2,0,7c0.6,5.2,1,5.2,1.3,8.5c0.2,2.8,0.5,5.5-0.3,9
		c-0.6,2.8-1.3,3.7-1.8,7.3c-0.2,1.2-0.4,2.8-0.3,4.8c0.2,3.4,1.1,5,1.8,7.5c0.8,3,0.6,5.3,0.3,9.8c-0.5,6.1-2,10.7-3.3,14.5
		c-1,3.1-1.3,3.3-2.8,7.8c-0.6,1.8-1.5,4.6-2.5,8.3c-1.6,5.9-1.3,6.4-2.5,9.3c-0.9,2.3-1.9,4.6-4,6.8c-2.9,3-6.5,4.1-8.7,4.6
		c-0.6,3.7-1.5,7.8-2.9,12.3c-1.4,4.4-2.9,8.3-4.4,11.6"/>
	<path fill="none" stroke="#000000" stroke-width="11" stroke-linecap="round" stroke-linejoin="round" stroke-miterlimit="10" d="
		M468,52.8c-4.6,1.7-6.3,4.3-7,5.5c-0.8,1.5-1.1,4-1.5,9c-0.5,5.7-0.2,7.7,0,8.8c0.4,2.2,0.8,2.3,1.5,5c0.9,3.3,0.8,4.8,1.3,9.3
		c0.3,2.4,0.7,6.1,1.8,10.5c1.3,5.6,2.7,8.5,3.3,9.5c1,1.9,2,3.4,2.8,4.5c0.7,1.8,1.5,4.5,2,7.8c0.5,3.6,0.4,6.4,0,11.8
		c-0.4,6.1-0.7,9.7-2,14.5c-0.9,3.4-2,5.8-3,8c-4.5,10-9.5,18.2-17,31.3c-3.7,6.4-5.1,9-6.5,13c-1.6,4.7-2.2,8.4-3,13.8
		c-0.6,4.3-1.6,10.9-1.8,19c-0.1,5.6,0.4,5.9,3,28.3c1.5,12.6,2.1,18.4,2.5,24.3c0.4,5.3,0.6,9.5,0.8,12c0.6,12.7,0.2,16.8,0.5,40.3
		c0.1,7.9,0.1,11.8,0.3,14.8c0.5,11.6,1.1,11.7,0.5,15.8c-0.6,4.3-1.6,6.6-0.5,10c0.6,1.8,1.3,2.3,2.8,6.3c0.5,1.3,0.9,2.6,1.8,5.3
		c1,3.2,1.5,4.8,1.5,5.5c-0.1,2.5-1.7,2.7-4,6.8c-0.4,0.8-2.3,4.1-3,8.5c-0.4,2.5-0.3,4.2-0.3,5.5c0.2,7.6-2.3,9.4-4,21.3
		c-0.7,5.1-0.4,5.4-1.3,10.8c-0.8,4.8-1.8,8.7-2.5,11.3"/>
	<path fill="none" stroke="#000000" stroke-width="9" stroke-linecap="round" stroke-linejoin="round" stroke-miterlimit="10" d="
		M558.5,60.5c-1.8-1.7-3.4-3.1-4.6-4.1c-3.3-2.8-4.2-3.4-5.3-3.8c-1.9-0.7-3.2-0.5-5.4-0.4c-1.5,0.1-4.6-0.2-10.9-0.8
		c-2.7-0.2-5.5-0.5-11.3-1c-2.8-0.2-4.1-0.3-6,0c-2.5,0.4-4.4,1.4-6.6,2.5c-2.8,1.4-4.2,2.1-5,3.1c-1.5,2-1.6,4.4-1.6,8.4
		c0,3.8,0.6,3.7,0.1,5.4c-0.4,1.5-1.1,2.1-5.9,7.3c-2.8,3-3.5,3.7-4.3,5.1c-1.3,2.3-1.7,4.3-1.9,4.9c-0.6,2.8-0.3,5.1,0,6.6
		c-0.5,0.6-2,2.2-4.6,2.8c-1.9,0.4-3.5,0-4.3-0.3c-0.3-1.1-1-3-2.5-4.8c-0.9-1-2-2.3-3.9-2.9c-2.6-0.8-4.8,0.2-5.5,0.5
		c-1.7,0.8-2.7,2.1-3.1,2.8"/>
	<path fill="none" stroke="#000000" stroke-width="9" stroke-linecap="round" stroke-linejoin="round" stroke-miterlimit="10" d="
		M541,156.7c-5.4,0.8-9.5,0-11.9-0.7c-2.5-0.7-4.4-1.8-8.4-3.9c-2.5-1.3-2.5-1.5-7.8-4.5c-4-2.3-5.5-3.1-8.8-5.1
		c-4.3-2.7-5.5-3.6-6.5-5c-1.6-2.1-2.3-4.3-2.6-5.8"/>
	<path fill="none" stroke="#000000" stroke-width="7" stroke-linecap="round" stroke-linejoin="round" stroke-miterlimit="10" d="
		M548,79.4c1.7-0.4,3.7-0.7,6-0.9c3.1-0.2,5.9,0,8,0.4"/>
	<path fill="none" stroke="#000000" stroke-width="7" stroke-linecap="round" stroke-linejoin="round" stroke-miterlimit="10" d="
		M530.1,78c-3.5-0.4-6.5-0.5-8.6-0.6c-3.4-0.1-4.6,0-5.6,0.1c-2.8,0.4-4.9,1.2-6.4,1.9"/>
	<path fill="none" stroke="#000000" stroke-width="7" stroke-linecap="round" stroke-linejoin="round" stroke-miterlimit="10" d="
		M558,88c-1.5,0.5-3.7,0.9-6.3,0.8c-2-0.1-4.4-0.7-4.4-1.1c0-0.4,1.8-0.6,2.8-0.8c1.8-0.2,3.2-0.2,4.3-0.1"/>
	<path fill="none" stroke="#000000" stroke-width="7" stroke-linecap="round" stroke-linejoin="round" stroke-miterlimit="10" d="
		M527.6,87.1c-1.8-0.3-3.4-0.5-4.5-0.6c-2.8-0.3-3.6-0.3-4.1-0.3c-1.7,0.2-3.1,0.7-4,1.1"/>
	<path fill="none" stroke="#000000" stroke-width="6" stroke-linecap="round" stroke-linejoin="round" stroke-miterlimit="10" d="
		M517.9,89c0.6,0,1.2,0.1,1.8,0.1c2.7,0.2,3.2,0.4,3.9,0.3c0.8-0.1,2-0.6,3.3-2.4"/>
	<path fill="none" stroke="#000000" stroke-width="6" stroke-linecap="round" stroke-linejoin="round" stroke-miterlimit="10" d="
		M529.8,105.5c1.5,1.3,2.9,1.9,3.9,2.1c0.9,0.2,1.5,0.2,3.4,0.6c0.4,0.1,0.9,0.2,2.4,0.6c4.4,1.2,4.2,1.4,5,1.4c2.2,0,3.8-1,4.4-1.4
		c0.7-0.5,1.5-1,1.7-2c0.3-0.9-0.1-1.8-0.2-2.2"/>
	<path fill="none" stroke="#000000" stroke-width="6" stroke-linecap="round" stroke-linejoin="round" stroke-miterlimit="10" d="
		M517.6,120.5c1.4-0.3,3.4-0.6,5.8-0.9c5.5-0.6,9.9-0.3,12.4-0.1c4.2,0.3,6.3,0.4,7.5,0.8c0.6,0.2,1.6,0.5,3,0.4
		c1.7-0.1,3-0.8,3.9-1.4"/>
	<path fill="none" stroke="#000000" stroke-width="6" stroke-linecap="round" stroke-linejoin="round" stroke-miterlimit="10" d="
		M523,122.4c1.8,2.3,3.8,3.5,5,4.1c3,1.6,5.9,1.8,8.8,2c1.1,0.1,2,0.1,2.8,0c1.9-0.2,3.8-0.4,5.1-1.6c2-1.9,1.6-5.1,1.5-5.6"/>
	<path fill="none" stroke="#000000" stroke-width="11" stroke-linecap="round" stroke-linejoin="round" stroke-miterlimit="10" d="
		M530.9,183.3c7.1,4.4,11.3,9.1,13.8,12.8c4.3,6.2,4.5,10.2,9.6,15.3c1.5,1.4,3.6,3.2,5.3,6.5c0.8,1.5,1.1,2.6,2.5,5.5
		c1,2,1.8,3.4,2.3,4.3c1.4,2.4,3.4,6.2,6.8,12.5c10,12.1,18.2,19,24,23.3c0.6,0.4,6.1,4.4,13.3,10c6,4.8,9.1,7.2,10.5,9
		c2.9,3.7,4.2,9.3,7,20.5c1,3.9,2,8.8,2.3,15c0.1,2.4,0,4.3-0.3,6.3c-0.9,6.5-3.2,10-3.8,10.8c-1.1,1.6-2.1,2.4-2.5,2.8
		c-2,1.6-3.3,1.4-4.8,2.3c-2.3,1.3-2.5,3.3-5.5,11c-1.6,4.1-2.4,6.2-3,6.8c-4.1,4.2-12.2,2.6-16.5,1.8c-3.1-0.6-7.9-2-13.3-5.5
		c1.2,12.1,1.5,22,1.5,28.8c0,7.7-0.3,6.9-1,30.8c-0.3,10.1-0.4,17.4,0,27c0.2,4.8,0.5,8.7,0.8,11.5c-3.8,2.3-7.7,4.7-11.5,7
		c-2,0.7-4.8,2-5.8,4.5c-0.9,2.3,0.3,4,3,10.5c0,0,2.5,6.1,4.8,13.5c1.2,3.8,1.7,5.7,1.8,7.3c0,4.9-2.3,6.2-3.5,11.8
		c-0.5,2.2-0.3,5.3,0,11.5c0.4,6.6,0.8,10.6,1,13.5c0.5,6.9,0.3,11.8,0,20c-0.2,4.3-0.9,20.1-5.3,43.5c-2.4,13-3.7,20.3-6.5,30.8
		c-3.8,14.4-5.7,17-4.8,23.8c1.1,8.1,5.1,13.9,1.8,19c-1.4,2.2-4,3.9-4.5,7.8c-0.2,1.7,0.2,2.1,0.5,5c0.7,6.6-0.7,12-0.8,12
		c-0.1,0,0.2-2.2,0-2.3c-0.5-0.1-1.9,8.8-6.8,19c-3.1,6.6-5.1,8.2-6.3,9c-1.7,1.1-2.6,1.2-8,4c-4.3,2.3-5.4,3.1-5.5,4.3
		c-0.2,1.7,1.9,2,3,5c1,2.6,0.5,5,0,7.3c-0.6,3-1.9,5.3-2.5,6.3c-2.7,4.4-5.6,5.3-5.3,7.3c0.3,1.7,2.7,1.6,3.3,3.5
		c0.6,2.3-2.5,3.7-3.5,7.3c-0.8,3,0.6,5.1,1.5,8.3c1.3,4.8,0.1,7.8-1.3,15.8c-1.8,10.4-0.3,8.3-2.3,22c-2.1,14.8-3.5,22.7-3.5,22.7
		c-1,5.9-1.4,7.5-0.8,10.3c0.8,3.4,3.5,7,8.8,14c3.4,4.5,4.3,5.3,4.3,7.3c-0.1,3.8-3.9,5.1-3.8,9.3c0.1,2.6,1.6,2.8,1.8,5.8
		c0.2,4-2.5,4.9-2,7.5c0.8,3.7,6.5,3.1,8.8,8c1.2,2.7-0.2,3.6,1.3,6.8c1.8,3.8,4.5,3.4,5.3,6.3c0.3,1.1,0.3,2.6-4,10.3
		c-1.7,3-3.2,5.4-4.3,7c2.1,1.3,5.3,3.3,9.3,5.8c16.5,10.3,18.2,11.6,24.3,15c6.8,3.8,12,6.6,19.3,9c6.1,2,12.5,3.5,12.5,3.5
		c3.2,0.7,8.4,1.8,9.3,2c8.1,1.7,9,1.7,10.5,2.8c1.6,1.1,4.3,3.7,5.3,10.3c-7.4,3.3-19.1,7.7-34,9.3c-15,1.6-27-0.2-40.3-2.3
		c-26.3-4-25.4-8.4-39-7.5c-5,0.3-14.2,1.5-25.3-2.3c-3.5-1.2-6.2-2.5-8-3.5c-1.8-2.3-4-5.9-4.3-10.5c-0.3-4.5,1.5-5.6,2.5-12.8
		c0.9-6.5-0.3-7.8,1-12.5c1.1-4.2,3.2-7.3,4.8-9.3c-7.2-1.5-9.3-3.6-9.8-5.5c-0.8-3.3,3.7-5.6,2.8-9.3c-0.8-3.1-4.3-2.9-6.8-6.8
		c-1.9-2.9-1.7-5.7-1.8-9c0-6.4-1.5-12.6-1.5-19c-0.1-17.9-2.4-24.9-2.5-49.5c-0.1-32.2,3.8-35.8,3.5-57.5
		c-0.2-11.4-1.4-19.5,2.9-25.8c0.8-1.3,3.3-4.4,2.3-7.5c-1-3.1-4.6-3.2-5-5.8c-0.4-2.9,4.2-3.8,5.5-8.8c0.8-3.1-0.1-6.1-0.8-8
		c-1.4-4.4-3.3-4.9-3-7.5c0.2-1.6,0.9-1.4,3.8-6.3c2.2-3.7,2.4-4.9,2.5-5.8c0.2-2-0.5-2.8-1-5c-0.8-3.7,0.2-5.2,1-12.5
		c0.2-2,0.1-1.9,0.5-7.5c0.9-14.2,1.5-16.6,1.8-23c0.2-6.9-0.3-8.7-0.8-17.5c-0.9-20.1,0.8-38.5,1.5-45.8c0.7-6.9-0.3-13.9,1-20.8
		c0.7-3.6,1.9-8.9-0.5-10.8c-1.9-1.5-5,0.2-6-1.3c-0.9-1.3,2.5-3.5,2-6c-0.4-2-2.8-2.9-4-3.5c-3.2-1.6-5-4.6-9.3-14.8
		c-6.8-16.3-10.1-24.4-12-34c-1.3-6.5-2.4-15.3-2.3-25.8"/>
	<path fill="none" stroke="#000000" stroke-width="9" stroke-linecap="round" stroke-linejoin="round" stroke-miterlimit="10" d="
		M463,232c5,11.3,9.9,20.2,13.8,26.5c5.1,8.3,10.5,15.9,14,20.8c2.5,3.5,4.7,6.5,6.3,8.5c1.3-2.3,3.4-5.6,6.5-9.3
		c5.5-6.4,9.9-8.4,26.5-18.5c13.7-8.3,14.4-9.2,19.3-11.3c8-3.4,15.1-5,20-5.8"/>
	<path fill="none" stroke="#000000" stroke-width="9" stroke-linecap="round" stroke-linejoin="round" stroke-miterlimit="10" d="
		M497.3,289c2.7,0.5,7.4,1,13-0.3c6.3-1.4,10.7-4.5,13-6.3"/>
	<path fill="none" stroke="#000000" stroke-width="9" stroke-linecap="round" stroke-linejoin="round" stroke-miterlimit="10" d="
		M515.5,272.5c8.7,8.2,15.4,14.6,20,19c3.4,3.2,5.1,4.8,7.8,7.3c7.8,7,8.9,7.2,15.8,13.3c6.8,6,7.5,7.4,14.5,13.3
		c4.3,3.6,6.6,5.4,9,6.8c4.3,2.3,7.1,2.7,17.3,5c3.1,0.7,7.6,1.8,13.3,3.3"/>
	<path fill="none" stroke="#000000" stroke-width="9" stroke-linecap="round" stroke-linejoin="round" stroke-miterlimit="10" d="
		M544.8,302.3c1.7,5.8,3.6,10.5,5.3,14c3.1,6.7,5.3,9.4,6.5,10.8c2.8,3.2,5.4,4.9,6,5.3c1.1,0.7,2.6,1.7,4.8,2.5
		c2.9,1.1,3.9,0.9,5,2c1,1.1,0.7,2,1.3,5.3c0.4,2.5,0.6,2.1,2,7.9c0.4,1.5,0.9,3.6,1.5,6.3"/>
	<path fill="none" stroke="#000000" stroke-width="9" stroke-linecap="round" stroke-linejoin="round" stroke-miterlimit="10" d="
		M563,460.3c-14.6,3.5-32.5,6.6-53,7.5c-27.9,1.2-51.7-2.1-69.8-6"/>
	<path fill="none" stroke="#000000" stroke-width="9" stroke-linecap="round" stroke-linejoin="round" stroke-miterlimit="10" d="
		M533.6,904c7.8,1.5,14,3,18.4,4.2c4.9,1.3,6.8,2.1,18.5,5.5c7.6,2.2,11.4,3.4,12.5,3.5c7.6,1,11.5-0.5,18.5,1.8
		c2,0.7,4.3,1.6,6.5,3.5c2,1.7,3.3,3.5,4,4.8c-5.4,3.4-12.4,7.1-21,10c-14.1,4.8-26.6,5.7-35.2,5.5"/>
	<path fill="none" stroke="#000000" stroke-width="9" stroke-linecap="round" stroke-linejoin="round" stroke-miterlimit="10" d="
		M477.3,922.5c5.8,2.5,16.4,6.2,30,5.5c8.2-0.5,15-2.4,19.8-4.3"/>
	<path fill="none" stroke="#000000" stroke-width="9" stroke-linecap="round" stroke-linejoin="round" stroke-miterlimit="10" d="
		M517.6,799c3.4,18.4,5.6,27.2,7.1,31.7c0.4,1.3,1.5,4.5,2.7,9c1.5,5.8,1.2,5.8,2.3,9.7c1.6,5.3,2.6,6.2,2.3,8.7
		c-0.4,3.7-2.7,3.8-3,6.7c-0.2,1.5,0.3,4.1,11.3,14.3c5.1,4.7,7,6.1,7.3,9c0.3,3-1.4,5.6-2.7,7.7c-2.5,3.9-5.8,6-7.7,7"/>
	<path fill="none" stroke="#000000" stroke-width="9" stroke-linecap="round" stroke-linejoin="round" stroke-miterlimit="10" d="
		M468.3,157.5c7.9,2,14.4,4.2,19.3,6c12.7,4.6,22.1,9.4,27.5,12.3c5.6,2.9,10.2,5.6,13.5,7.5"/>
</g>
<g id="vs-reveal">
	
		<path opacity="0" fill="none" stroke="#000000" stroke-width="64" stroke-linecap="round" stroke-linejoin="round" stroke-miterlimit="10" d="
		M534.5,14.6c-24.9-2.9-50.4-0.9-74.6,5.8c-5.5,9,8.5,17.4,19.1,17.8c15.9,0.6,31.8-1.8,47.6,0c15.8,1.8,32.2,9,39.3,23.2
		c-31.1-2.7-62.3-5.4-93.4-8.1c-5.3-0.5-11.8-0.3-14.4,4.3c-4.7,8.4,8.9,14.7,18.5,14.8c17.2,0.2,34.5,0.4,51.7,0.6
		c13.9,0.2,32,3.9,33.6,17.7c-23.3-1.3-46.6-0.8-69.8,1.5c-5.5,0.5-11.3,1.3-15.4,5c-4.1,3.7-5,11.3-0.4,14.3
		c2.2,1.4,4.9,1.5,7.5,1.5c15.6,0.1,31.1,0.3,46.7,0.4c11.4,0.1,26.9,4.5,25.6,15.8c-25.1,8.4-52,11.6-78.4,9.2
		c-2.9,8.6,6.3,16.9,15.2,18.4c8.9,1.5,18.2-1.1,27.1,0.2c9,1.2,18.5,9,16.3,17.7c-19.1,2.1-38.1,4.2-57.2,6.4
		c-9.8,1.1-20.1,2.3-28.3,7.9c-8.2,5.5-13.4,16.8-8.8,25.6c22.4-3.7,45.1-7.5,67.8-5.6c22.6,1.9,45.6,10.2,60.8,27.1
		c-42.8,0.1-85.6,0.2-128.5,0.3c-5.8,0-13.1,1.1-14.7,6.7c-2.2,7.8,8.8,12,16.9,12.3c35.7,1.6,71.4,3.3,107.2,4.9
		c21.2,1,44.7,3,59.2,18.5c-44.9,5.6-90.6,5.1-135.3-1.6c-7.6-1.1-15.6-2.4-22.8,0.1c-7.3,2.5-13.3,10.4-11,17.7
		c2.8,8.9,14.5,10.5,23.8,10.6c37,0.2,74.1,0.4,111.1,0.5c10.5,0.1,21.3,0.2,31,4.4s17.7,13.7,16.9,24.2
		c-54.4,0.6-108.7,1.3-163.1,1.9c-7,0.1-14.4,0.3-20.2,4.2c-5.8,3.9-8.5,13.1-3.5,18c45.9,0.9,91.8,1.8,137.8,2.7
		c7,0.1,14.6,0.4,20.2,4.6s7.7,13.8,2.1,18c-2.8,2.1-6.6,2.3-10.2,2.4c-54.6,1.3-109.3,2.6-163.9,3.9c0,6.4,0,12.8,0,19.2
		c56.3-0.9,112.7,0,168.9,2.8c-48.5,26.2-110.3,1-162.7,18.3c-3.4,4.6-0.5,11.7,4.4,14.7s11,3,16.8,3c21.3-0.1,42.7-0.3,64-0.4
		c22.2-0.1,50.4,4,56.2,25.4c-36.5,0.5-73-2.2-109-8c-6.3-1-13-2.1-19,0.1c-6,2.2-10.8,9-8.5,15c2.9,7.2,12.8,7.7,20.5,7
		c32.3-2.6,64.9-2.1,97.1,1.6c6.6,0.7,13.5,1.7,18.8,5.7s8.3,11.8,4.7,17.4c-35.2-2.7-70.4-5.4-105.6-8c-6.9-0.5-14.3-1-20.4,2.4
		c-6.1,3.4-9.7,12.1-5.4,17.5c47.4-2.7,95.1,1.4,141.4,11.9c-21.6,11.8-47.2,16.2-71.5,12.4c-10.9-1.7-22.5-5-32.7-0.7
		c-10.2,4.3-15.3,20.6-5.6,26.1c2.6,1.4,5.6,1.8,8.6,1.9c23.2,1.1,49.5-6.7,67.9,7.5c3.3,2.5,6.2,6,6.7,10.1
		c1.3,11.4-14.7,15.5-26.1,14.2c-13.9-1.6-28.3-4.9-41.6-0.4c-13.3,4.5-23.8,20.7-16.4,32.6c18-1.8,35.9-3.5,53.9-5.3
		c6.3-0.6,13-1.2,18.7,1.7c5.6,2.9,9.3,10.6,5.7,15.8c-30,1.4-59.9,2.8-89.9,4.2c2.3,11.7,15,18.3,26.7,20.3
		c11.8,1.9,24.2,1,35.2,5.5s20.1,17.6,14.6,28.2c-19.1-2.1-38.2-4.2-57.3-6.2c-12.7-1.4-29.7,0.1-32.5,12.6c-2.2,10.1,8,19,18.1,21
		c10.1,2,20.6-0.2,30.8,1.2c10.2,1.4,21.2,8.6,20.9,18.9c-0.4,12.5-16.3,18.2-28.8,17c-12.5-1.2-25.6-5.8-37-0.7
		c-8.5,7.1-1.4,22.4,9.3,25.5c10.7,3.1,21.8-1.4,32.4-4.9c10.5-3.5,23.1-5.7,31.9,1.1c-5,13.6-17.9,24-32.3,26
		c-8.9,1.2-18.2-0.4-26.7,2.3c-8.5,2.7-15.8,13-10.9,20.5c24.1,1.6,48.3,1.4,72.3-0.6c1.7,3.3,2.3,7.1,1.8,10.7
		c-15.7,7.5-34.2,4.7-51.2,8.2s-34.9,19-29.1,35.4c25.6-4.5,51.5-9,77.4-7.6c26,1.4,52.4,9.4,71.6,27c-31,8.8-64.3,9.6-95.7,2.4
		c-10.5-2.4-21.7-5.7-31.7-1.7c-10,4-15.4,19.4-6.6,25.5c3.4,2.3,7.7,2.6,11.7,2.8c23.8,1.2,47.5,2.4,71.3,3.7
		c14.7,0.8,29.8,1.6,43.4,7.4c13.6,5.8,25.5,17.7,27,32.4c-50.8-16.6-104-25.7-157.4-27.1"/>
</g>
</svg>
