<?xml version="1.0" encoding="utf-8"?>
<!-- Generator: Adobe Illustrator 22.1.0, SVG Export Plug-In . SVG Version: 6.00 Build 0)  -->
<svg version="1.1" id="Layer_1" xmlns="http://www.w3.org/2000/svg" xmlns:xlink="http://www.w3.org/1999/xlink" x="0px" y="0px"
	 width="1000px" height="1000px" viewBox="0 0 1000 1000" enable-background="new 0 0 1000 1000" xml:space="preserve">
<g id="vs-secondary">
	<path fill="#BDD100" d="M482.7,528.6c4-4,11.7-0.6,24.7,1.3c13.6,2,23.7,0.6,43.8-2c26.2-3.4,45.1-11.5,67.8-21.2
		c12.7-5.4,29.4-13.4,48.3-24.7c1.7,1.8,4.2,4.8,5.7,9.1c2.4,7.1,0.2,12.1,0,21.6c-0.1,5,0.4,6.4,1.6,17.1c0,0,1.2,9.9,3,33.9
		c0.9,11.7,1.6,29.1,0.2,52.3c-5.9,4.5-16.5,11.4-31.5,14.8c-21.6,4.8-39.2-0.7-46.4-3.5c-1.7,1.2-4.2,3-7.3,5.2
		c-10.3,7.2-21.1,14.7-23.2,16.1c-6.8,4.5-20.1,10.3-47.3,11.3c-4.8-11.1-8.9-21.2-12.2-30.1c-12.9-34.4-9-33.1-21.4-69.9
		C482.3,541.7,478.4,532.9,482.7,528.6z"/>
</g>
<g id="vs-primary">
	<path fill="#FFCE00" d="M378.5,342.9c-0.8-4.6,0.4-6.1,13.8-34.5c12.4-26.3,14.9-32.4,22.7-39.9c7.5-7.2,15.3-11.3,20.7-13.7
		c2.5,1.7,6,3.8,10.4,5.9c12.6,5.9,23.5,6.8,28.9,7.3c26.4,2.1,48-8.2,52.1-10.2c21.4-10.5,33.7-25.9,39.1-33.8
		c4.5,0.3,10.8,1.1,18.2,2.7c3.9,0.9,15,3.5,30.2,10.8c13.5,6.5,15.4,9.5,29.9,17.3c11.1,6,20.4,9.9,26.4,12.2
		c-1.1,5.2-2.9,12.7-5.7,21.5c-4.7,15-7.6,24.3-14,33.3c-4,5.7-12.6,15.8-29.4,23.2c1.7,5.7,2.9,10.6,3.8,14.1
		c6.5,26.3,6,37.1,14,41.7c2.2,1.3,5.4,2.3,7.3,5.7c1.5,2.7,1.4,5.4,1.2,9.7c-0.3,7.5-2,7.8-1.2,11c1.1,4.8,5,4.6,9.4,10.9
		c3.3,4.8,1.5,5.6,5,12.3c4,7.7,7.1,8.1,9.2,13.8c1.1,2.9,2,7.5,0.4,14.1c-3.2,2.7-8.8,7.3-16.3,12.4
		c-57.2,39.3-120.8,39.5-144.7,39.2c-11-0.1-27.8-0.9-48.3-4.5c4.9-4.1,6-7.6,6.1-10.1c0.1-3.3-1.7-4-2.4-8.9
		c-0.2-1.6-0.3-3.2,0.8-11.4c1.4-10.3,1.8-9.5,1.6-11.4c-0.5-6.3-3.9-7.5-6.5-14.6c-1.8-5.1-1.1-7.3-1.6-16.2
		c-0.6-9.8-2.1-18.1-3.2-22.7c-2.5-10.2-4.4-8.9-13.8-30c-6.1-13.6-7.2-18.4-13-21.9c-5.2-3.1-8.8-1.9-15-2.8
		C398.2,372.8,381,358,378.5,342.9z"/>
</g>
<g id="vs-skin">
	<path fill="#925131" d="M456.9,135.4c3.1-1,7.2,2.3,9.3,4.7c4.1,4.8,3.4,10.5,5.1,10.7c1.5,0.1,2-4.1,5.8-9
		c2.8-3.6,4.4-3.7,7.7-6.9c6.1-5.9,5-9.6,9.7-15.2s10.6-7.7,15.7-9.5c11.4-4.1,21.2-2.4,25-1.7c2,0.4,10.6,2,19.6,8
		c4.5,3,7.2,4.8,9,8.3c2.6,5.1,1,9,0.6,18.6c-0.4,10.3,1.5,8.9,1.2,18.3c-0.4,12.2-3.7,21.9-5.8,27.9c-1.1,3.3-2.1,5.9-3.8,9.3
		c-5.1,10.1-11.9,16.7-16.7,20.5c5.2,3,9.5,3.8,12.6,3.8c4.7,0.1,9.1-1.4,11.2,1c0.8,1,1,2.2,1.1,3.1c-2.4,2.8-5.7,6.5-10,10.6
		c-1.9,1.9-9,8.8-16.3,13.8c-12.7,8.8-25.5,11.8-32.5,13.4c-9.7,2.2-29.9,6.5-52.5-1.7c-7.5-2.7-13.3-6.1-17-8.5
		c3.3-0.4,8.1-1.5,13-4.5c5.6-3.4,5.9-6.2,13-12.6c8.2-7.4,10.8-6.4,13.4-10.9c3.1-5.4,1.7-11.1,0-19.9c-1.6-8-3.7-19.5-5.7-34.1
		c-1.7,0-4.3-0.4-7.1-1.9c-5.2-2.9-7-8.1-8.1-11.4C451.1,150.2,451.9,137.1,456.9,135.4z"/>
	<path fill="#925131" d="M394.9,283.3c-6.8,2.3-9.8-0.8-15.8,2.1c-4,2-6,5-9.3,10.1c-6,9.5-10.6,16.7-15.2,23.9
		c2.2,6.6,6.5,16.7,15.3,26.2c2.5,2.8,7.7,7.9,22.9,16.8c9,5.3,21.8,12.1,38.3,18.5c3.4,2.7,15.4,13.1,14.4,23.8
		c-0.2,2.4-1.4,7.2-2.5,10.7c-1.2,4.1-2.6,7.4-3.6,9.7c-1.4,3.1-3.3,7.3-6.6,12.1c-1.9,2.6-3.8,5.3-7,8.1c-3.3,2.9-7.8,6.8-12.9,6.5
		c-4.9-0.4-8.3-4.7-9.7-6.5c-19.8-25.1-16-12.4-30-35.3c-21.3-35-13-36.5-28.2-55.2c-4.9-6.1-12.6-14.4-14.6-27.5
		c-0.9-6.3-0.2-11.2,0.7-16.4c1.2-7.5,3.5-22.2,15.4-35.3c8.7-9.6,18.2-13.4,20.6-14.4c4.5-1.7,14.6-5.6,24.3-2.8
		c2.4,0.7,5.3,2.1,11,4.8c5.1,2.4,5.7,3,6,3.8C410.2,271.4,403.5,280.4,394.9,283.3z"/>
	<path fill="#925131" d="M614,214.7c2.7-4.6,9-4.8,18.4-6c7-0.9,16.8-2.6,28.5-5.9c11.7,6,20,12.5,25.4,17.3c5.4,4.7,9,8,12.2,13.4
		c3.9,6.7,4.9,12.9,5.7,25c1.4,19.4,1.1,35.1,0.9,44.3c-0.4,18.8-0.5,28.2-0.6,29c-1.1,13.7-4.8,33.8-16.8,58.1
		c-6,0.8-16.2,1.4-27.8-2.5c-20.9-7-31.4-23.3-34.3-28.3c-1.3-4.7-2.5-9.4-3.8-14.1c4.3-1.9,9.2-4.6,14.2-8.3
		c11.8-8.7,18.6-19.1,22.3-26c1,1.3,3.1,4,5.3,3.6c2.7-0.4,4-4.9,4.9-7.7c4.1-14.1,6.5-26,7.3-30c3.4-16.1,6.9-19.4,4.1-24.3
		c-2.4-4.2-5.4-2.7-14.2-8.1c-12.7-7.9-16.1-17.1-22.7-15.8c-3.1,0.6-3.1,2.7-6.5,2.8c-4.9,0.2-6.1-4.2-12.3-5.3
		c-4.9-0.8-6.8,1.5-9.1-0.1C612.3,223.9,611.8,218.3,614,214.7z"/>
	<path fill="#925131" d="M522,660c7.4-0.1,16.1-1,25.6-3.4c25.5-6.4,42.9-20.3,52.2-29.1c4.4,2.3,10.6,4.9,18.3,6.1
		c15.6,2.5,28.3-2,34-4.5c-1.3,6.7-3.1,17.5-4.6,30.8c-1.7,15.1-2,25.5-2.5,37.8c-2,48.2-3,72.7-8,94.7c-2.8,12.6-6,24.6-6,24.6
		c-5.1,19.8-8.3,28.5-10.1,43.3c-0.9,7.1-1.1,12.9-1.2,16.7c-0.8,0.8-1.9,1.8-3.6,2.7c-5,2.5-10.3,0.9-14.9-0.5
		c-5.1-1.5-12.2-3.4-21.9-5.6c1.9-2.9,4.5-7.6,6.3-13.7c3.1-10.7,1.4-18.5,0-34.1c-0.6-6.7-1.4-16.5-1.6-28.8
		c-2.5,4.5-5.9,11.3-8.4,20c-2.4,8.3-3,14.9-3.3,18.5c-1.2,13.1-2.9,29.2-5.3,49.8c-1.9,0.8-5.2,1.9-9.3,1.9c0,0-4.4-0.1-9.3-2.2
		c-11.2-5-19.2-21.3-19.9-22.7c1.9-2.7,4.2-6.8,4.8-12.1c0.9-8.2-2.9-13.9-5.6-20.1c-5.3-12-5.3-22.6-5.2-36.7
		c0-7.3,0.2-20.3,5.6-35.3c6-16.7,12.6-19.4,13.8-32.8c0.3-3.5,0.3-8.4-4.1-23.5C534.8,691.2,529.9,676.8,522,660z"/>
</g>
<g id="vs-hair">
	<path fill="#3A231A" d="M524.7,43.8c3.2,3.5,6.4,1.7,9.6,4.4c3.6,3.2,4.1,9.7,2.4,14c-1.1,2.8-6.5,10-4.9,7.5c0,0,2.6,2.7,4.7,4.3
		c3,2.2,3.9,1.6,6.9,3.4c3.1,1.9,2.5,2.9,7.2,7.5c4.3,4.2,5.3,3.8,6.7,6.4c1.7,3,0.5,3.9,1.9,9.1c1.6,6.4,4.1,7.3,4.1,12.2
		c0,2.2-0.1,6.4-2.2,7.3c-2.4,1-5.1-3.4-11.8-7.1c-4.1-2.2-7.6-3-11.6-3.9c-4.3-0.9-15.2-3.1-27.6,1.2c-6.3,2.2-13.3,4.7-16.3,11
		c-1.9,3.9-0.8,6.4-3.6,9.1c-3.9,3.9-8.7,1.5-11.6,5.3c-2.5,3.3-0.5,7-3.3,9c-1.5,1-3.6,1.2-5.3,0.5c-4.4-1.7-3.3-8.2-7.9-10.2
		c-2.6-1.2-4.8,0.2-5.8-1.3c-0.9-1.3,0.4-2.8,1-6.1c0.8-4.8-1.2-5.5-0.8-11.2c0-0.2,0.5-2.8,1.6-7.9c0.6-2.9,0.9-4.2,1.3-6.5
		c0.7-3.6,1-5.3,1-6.1c0.2-4.3-1.1-5.8,0.2-7.9c0.5-0.9,0.6-0.4,2.8-2.4c2-1.9,3.4-3.1,4.1-5.1s0-2.4,0.7-3.6c1-1.7,2.8-1.5,7-2.6
		c3.9-1.1,7.5-2.1,9.3-5.1c0.3-0.5,0.9-1.5,1-2.9c0.2-2.5-1.5-3.6-2.4-6c-1.1-3-0.7-6.7,0.8-9.1c1.8-3,3.9-2,6.3-5.1
		c2.9-3.7,0.9-6.7,3.4-8.7c2.9-2.3,6.1,1,10.5-1.4c3.3-1.8,3.9-5,5.9-4.7c1.4,0.2,1.2,1.8,3.2,3.6c2.8,2.6,4.9,1.3,8.1,3.9
		C523.7,40.3,522.6,41.5,524.7,43.8z"/>
</g>
<g id="vs-shade">
	<g>
		<path opacity="0.4" enable-background="new    " d="M462.4,160c0.8,2.5,1.3,3.2,2,3.6c1,0.6,2.6,0.9,3.6,0.2
			c0.9-0.6,0.8-1.6,1.4-6.3c0.5-3.8,0.7-4.5,0.2-5.7c-0.5-1.1-0.9-1-2.6-3c-2.5-2.9-2.7-4.4-3.9-4.5c-1.3-0.1-2.7,1.5-3.2,3
			c-0.6,1.7,0.3,2.4,1.2,6.9C461.7,156.7,461.7,157.6,462.4,160z"/>
		<path opacity="0.4" enable-background="new    " d="M501,167.3c1,0.8,3.8,3.1,7.9,3.4c0.8,0.1,2.6-0.1,6.3-0.4
			c3.3-0.3,4.1-0.4,4.7,0.2c0.9,1.1,0.3,3.7-0.2,5.9c0,0.1,0,0.2,0,0.2c-0.7,2.8-1.4,3.3-1.3,4c0.3,1.2,3,2.2,4.9,1.3
			c1.1-0.5,1.7-1.5,1.8-1.8c0.9-1.7,0.4-3.3,0.2-5.1c-0.6-4.1,0.7-3.9,0.4-9.3c-0.2-3.1-0.6-2.7-0.8-6.3c-0.4-5,0.4-5.8-0.4-7.7
			c-1.3-3-4.5-4.2-6.7-5.1c-5.9-2.3-12.4-1.4-12.6-0.2c-0.1,0.9,3.3,1.3,7.7,5.3c2.4,2.1,3,3.4,3.2,4.1c0.7,1.9,0.2,2.6,1,4.6
			c1.1,2.5,2.6,2.8,2.4,3.9c-0.3,1.6-4,2.5-7.1,2.3c-2.2-0.1-2.7-0.8-6.8-2c-3.2-1-7.2-2.2-7.8-1.2
			C497.3,164.2,500.8,167.2,501,167.3z"/>
		<path opacity="0.4" enable-background="new    " d="M539.1,174.6c1.2,0.6,1.6-0.1,7.1-0.4c3.1-0.1,3.9,0.1,6.1-0.4
			c1.9-0.4,4.7-1,5.1-2.6c0.2-0.9-0.4-2-1.2-2.6c-1.8-1.4-3.8,0.3-5.3-0.9c-1.3-1-1.1-3.3-0.9-4.9c0.1-1.6,0.2-2.9,1.1-3.5
			c1.9-1.2,5.5,1.8,6.1,1c0.3-0.4-0.4-1.3-1-2.2c-1.9-2.7-3.2-3.1-3.2-4.3c-0.1-1.7,2.7-2.6,2.4-3.2c-0.3-0.8-4.8-0.6-8.9,1.4
			c-1.5,0.7-6.8,3.7-8.9,10.1C536.1,166.4,536.1,173,539.1,174.6z"/>
		<path opacity="0.4" enable-background="new    " d="M522.9,207.2c-1.8-0.2-7.5-1-8.3-4.1c-0.5-2,1.1-4.4,2.4-5.7
			c1.4-1.3,2.8-1.6,2.7-2c-0.2-1-7.1,0.4-8.4-2c-0.7-1.4,1-2.8,0-4.5c-0.6-1-1.9-1.6-3-1.4c-1,0.1-1.5,0.9-2.2,1.6
			c-3,3.2-4.7,2.7-5.5,4.5c-1.2,2.8,2.2,6.6,2.4,6.9c2.5,2.8,4.5,1.9,8.7,4.7c4,2.7,3.1,4,6.7,6.1c4,2.3,8,2.2,10.4,2.1
			c2.7-0.1,5.9-0.2,8-2.4c0.9-1,2.1-2.8,1.5-3.8c-0.6-0.9-2.4-0.5-6.5-0.2C527.4,207.4,525.3,207.5,522.9,207.2z"/>
		<path opacity="0.4" enable-background="new    " d="M475.4,206.2c2.3,14.6,1.8,16.5,1.2,18c-2.5,6.4-9.2,9.7-8.5,10.8
			c0.6,0.9,4.7-2.2,7.9-0.4c1.5,0.8,1.4,2,3.2,4.7c0.5,0.7,2.8,4.2,5.5,5.9c3.2,2,5.8,1,12.4,1c0.9,0,4.6,0.4,12,1.2
			c21.9,2.4,22.3,3,26,2.2c7.1-1.6,12-5.4,15.1-7.8c6.2-4.9,8.4-9.4,9.1-10.8c1.1-2.4,2.8-6.2,1.2-8c-1.9-2.1-6.4,1.5-13.8,0.3
			c-4.9-0.8-4.4-2.6-8.2-3c-7.8-0.9-10.5,6.4-19.3,6.8c-3.3,0.1-6.1-1.1-11.8-3.4c-4-1.7-10.4-4.4-15.8-9.7
			c-4.1-4.1-6.4-9.4-10.7-19.9c-5.4-12.9-7.4-21.2-9.1-20.9c-1,0.2-1.3,3.4-1.4,4.7c-0.5,5.5,1.4,9.4,2.6,13.2
			C473.3,192.5,474,197,475.4,206.2z"/>
		<path opacity="0.4" enable-background="new    " d="M542.9,197.8c-0.2,0.2-0.5,0.4-0.8,0.6c-2.1,0.9-4.9-2.2-5.6-1.6
			c-0.4,0.4,0.9,1.7,0.9,4c0,1.7-0.8,2.4-0.4,2.8c0.7,0.9,3.7-0.5,6.3-1.7c3.3-1.5,5-2.3,5.6-3.8c0.7-1.6,0.3-3.2-0.2-4.9
			c-0.4-1.6-1-3.7-3-5.1c-0.4-0.3-2.1-1.3-4.3-1c-2.6,0.4-4.8,2.6-5.5,5.7l4.5,4.3C541.3,197.5,542.1,197.7,542.9,197.8z"/>
		<path opacity="0.4" enable-background="new    " d="M391.1,313.7c-2.2,0.2-2.8,3.5-7,12.3c-5.1,10.6-7.3,12.1-6.7,16.4
			c0.4,3.3,2.1,5.6,4.8,9.4c2.3,3.1,4.8,5.7,9.3,9.3c13.6,11,23.2,14.3,25.5,15c4.8,1.6,7.3,2.3,8.6,1.2c3.5-3-4.3-13-8.2-30.8
			c-3.2-14.6,0-16.8-4.1-31.6c-3.3-12-8.3-21-9.3-20.7c-0.8,0.3,1.3,5.9,0.8,15c-0.1,1.4-0.7,13.2-4.1,13.8
			C397.6,323.6,395.1,313.3,391.1,313.7z"/>
		<path opacity="0.4" enable-background="new    " d="M407.7,374.1c-10.3-4.5-16.1-10-16.6-9.3c-0.8,1,12.2,12,11.8,12.6
			c-0.4,0.5-11.6-6.3-21.5-18.2c-4.7-5.7-8.3-11.5-11.4-16.6c-3.6-6-6.8-11.9-13.3-18.9c-1.4-1.5-2.6-2.7-3.4-3.5l-12.4-0.4
			c0.2,0.2,1.1,1.6,1.3,1.9c9.1,13.3,13.6,20,16.2,23.7c8.5,12.2,12.8,18.3,17,22.7c7,7.2,7.3,5.4,16.6,14.6
			c8.3,8.3,12.5,12.4,17,18.7c4.7,6.5,6.8,11,9.3,10.5c1.8-0.3,2.4-3,4.5-9.3c5.2-16.2,7.1-17.3,5.8-20
			C426.4,377.8,420.4,379.7,407.7,374.1z"/>
		<path opacity="0.4" enable-background="new    " d="M661.6,241.9c2.5,0.7,6.7,0.8,8-1.6c1.3-2.3-0.7-5.4-1.3-6.5
			c-1.6-2.5-3.7-3.7-5.2-4.5c-4.6-2.5-11.3-3.5-16-0.4c-0.2,0.2-0.4,0.3-0.6,0.4l8.9,7.3C655.8,237.4,657.7,240.8,661.6,241.9z"/>
		<path opacity="0.4" enable-background="new    " d="M694.4,240.7c-2.6-1.6-9.6,4.9-12.2,7.3c-2.5,2.3-4.2,3.9-5.3,6.5
			c-2,4.6-0.7,9-0.1,11.7c2.4,11-0.8,20.6-6,36.5c-0.7,2.2-4.2,12.5-6.5,12.2c-1.5-0.2-0.9-5-2.8-5.7c-0.8-0.3-2,0.1-3.4,1.1
			c2.2-5.3,4.1-11.7,7-21.8c2.6-8.9,4.5-16.3,5.7-21.5c-6.4-1.7-14.6-4.8-23-10.4c-6.2-4.2-10.3-8.3-12.7-6.9c-3,1.7,1.8,9.1-2,19.1
			c-1.7,4.4-3.6,5.5-4.6,10.6c-0.8,4.2,0.2,5-0.5,9.6c-0.9,6.2-3.8,12.3-5.2,12.1c-1-0.2-0.6-3.4-1.2-7.7
			c-1.5-11.1-7.8-18.8-11.9-23.9c-4.1-5-11-12-12.4-11c-1.6,1.1,5.3,10.2,9.7,26c1.5,5.5,6.6,23.5,0.8,27.2
			c-5.3,3.3-17.3-7-18.2-5.7c-0.5,0.7,2.6,3.6,6.3,7.1c16,15.1,14,13.6,17.6,16.6c4.1,3.5,9.3,7.9,15.6,12.7
			c8.4-5.1,14.4-10.5,18.7-15.5c-0.2,1.7-0.2,3.4,0.2,5c1.3,5.6,5.6,5.5,14.2,16.2c6.9,8.5,8.1,13.4,10.1,13
			c3.2-0.6,1.9-12.3,4.5-30c2-13.7,3.4-11.4,8.1-34.1c4.9-23.3,2.4-20.8,6.5-37.3C694.2,249.3,696.7,242.1,694.4,240.7z"/>
		<path opacity="0.4" enable-background="new    " d="M668.8,372.5c-10.8-8.6-16.3-12.9-19.1-11.4c-3.9,2.1-4,13.4,1.3,20.1
			c4.1,5.1,10.1,6.1,19.6,7.7c2.9,0.5,11,1.8,12-0.6c0.4-0.9-0.5-2.2-3.6-5.7C674.3,377.5,672,374.9,668.8,372.5z"/>
		<path opacity="0.4" enable-background="new    " d="M674.7,531.4c-3-22.7-2.8-26-2.5-28.8c0.8-8.7,2.7-12.1,0.5-16.9
			c-0.9-1.8-2.1-3.4-3.6-4.8c2.2-2.4,3.5-5,3.8-7.8c0.2-1.8,0.7-7.1-2.4-10.5c-3.1-3.4-7.1-2.3-8.9-5.7c-1.4-2.6,0.7-3.9-0.2-8.9
			c-0.8-4.2-2.9-7-3.8-8.1c-2.9-3.4-4.5-2.4-6.5-4.9c-3-3.8-0.4-7.5-1.6-19.5c-0.6-5.5-1.4-7.4-2.4-8.9c-2.5-3.6-5.9-4.6-8.1-5.7
			c-11.9-5.8-12.9-26.3-14.6-26c-1.3,0.3,2.8,12.3-0.8,25.1c-4.4,15.4-17.7,24.1-20.8,26c-7.9,4.9-11.1,3.6-36,9.7
			c-18.9,4.6-29.2,7.2-29.2,10.5c0,3.7,12.5,6.5,17.8,7.3c4.1,0.6,13.5,2,24.3-1.6c10.1-3.4,16.8-9.5,26.8-18.7
			c10.3-9.5,13.4-14.9,21.4-15.9c4.1-0.5,10.5,0,12.7,3.8c2.7,4.7-2.2,12.1-4.9,16.3c-8,12.1-17.5,15.2-16.6,18.3
			c1.5,5,27.5-1.7,30.5,5.2c2.1,4.9-8.3,14.1-15.4,20.3c-5.3,4.6-12.1,10.5-23,15.8c-13.1,6.3-21.3,6.5-59.6,10.2
			c-41.1,4-45.9,5.1-55.2,1.1c-13-5.7-22.9-16.3-26.8-13.3c-2.6,2.1,0.7,7.8-1.5,17.4c-1.4,6-4.2,10.4-6.2,13
			c7.2,1.5,14,2.6,20.5,3.4c-0.3,4.5-0.3,9.5,0.1,14.9c0.2,2.8,1.2,11.3,6.3,29.2c1.8,6.4,5.5,16,12.7,34.8
			c16.4,42.9,16.4,39.2,16.6,42.1c0.2,2.2,0.5,7.9,4.3,10.3c2.9,1.9,7.8,1.7,9.7-0.6c3.3-4-4.4-11.2-10.3-27.6
			c-6.3-17.7-1.5-20.4-8.8-37.4c-2.2-5.2-4.2-8.6-4.6-14.6c-0.4-6.1,1.4-7.5,2.9-18.9c0.9-7.1,1.5-11.5,0.4-17.2
			c-1-5.4-3.1-9.5-4.6-12l-2.2-1.6c3.5,0,6.9-0.1,10-0.2c8-0.4,14.3-1.2,20.4-2c9.1-1.2,27.3-3.9,51.8-10.7
			c24.9-6.9,40.3-13.6,54.9-20c5-2.2,9.8-4.4,14.1-6.7c0.1,4.6-0.9,8.6-0.9,8.6c-0.6,2.6-1.2,3.3-1.7,6.1c-0.6,3.7-1.1,6.1,0.1,8.3
			c1.8,3.5,5.7,2.3,7.3,5.5c1.4,2.7-1.2,4.2-1.1,9.6c0,3.4,1.1,3.9,3.2,11.9c0,0,1,3.9,1.7,7.5c1.6,8.4,0.6,15.4,0.3,18
			c-0.9,7.6-1.3,24.3-0.7,58.3c4.5-2.7,9.1-5.3,13.6-8c0-3.5,0-9.1,0.2-15.8c0.5-22.2,1.8-24.8,1.4-35.7
			C679.1,557.2,678.6,561.4,674.7,531.4z"/>
		<path opacity="0.4" enable-background="new    " d="M633.6,690c-3.4-2.6-11.6,5.5-15,2.8c-2.1-1.6-0.7-5.8,0.4-13.8
			c0.3-2.4-0.5,2.8,1.2-19.1c1.1-14.5,1.8-20.9,1.8-24.3c1.1-0.3,2.1-0.8,2.7-1.7c1-1.4,0.7-3.5-1.2-8.5c-3.6-9.3-8-15.8-9.3-17.8
			c-7.2-10.8-10.8-16.2-11.8-19.5c-1.9-6.3-1.2-11.8,0-22.7c0.7-6.1,1.4-12.3,4.5-19.9c2.2-5.6,4.9-9.8,6.9-13
			c6.1-9.6,11.7-14.6,10.9-15.4c-0.3-0.3-1.6,0.4-7.3,4.1c-8.1,5.2-12.1,7.8-13,8.9c-4.9,6.1-1.5,10.3-6.5,15.8
			c-4.1,4.6-7.6,2.8-10.7,6.4c-0.1,0.1-0.2,0.2-0.3,0.3c-2.3-0.9-5.1-1.7-8.6-2.8c-11.8-3.6-26.7-5.7-27.5-3.1
			c-0.6,1.9,7.2,3.8,15.8,11.4c7.2,6.3,9.5,11.7,19.5,30.4c3.2,6,6.1,11.5,8.6,16.2c0.9,5.6,1.3,9.5,1.1,12.3
			c-0.1,2.2-0.5,5.9,1.2,9.4c0.2,3.9,1.7,10.5,3.9,22.1c4.2,22.6,1.9,18.6,5.6,34c4.5,18.7,8.3,24.7,7.2,37.3
			c-0.6,6.6-2.9,12.9-7.6,25.4c-0.6,1.6-1.3,3.6-2.3,5.9c-0.4-1.6-1.1-2.8-2.1-3.4c-2.3-1.5-4.2,1.5-9.8,1.4c-2,0-6.6-0.6-21.2-12.6
			c-7.9-6.5-10.9-10-12.4-9.1c-1.7,1.1,0.3,7.2,1.7,10.4c0.4,1,2.4,5.2,7.7,10.5c6.1,6.1,7.6,4.7,9.3,8.1c2.4,4.8,1,10.7-0.8,17.8
			c-2,7.6-4.1,11.9-6.9,18.7c-6.4,15.2-9.7,22.8-10.9,29.6c-1.6,8.8-0.8,13.1-4.1,23.5c-2.6,8.1-3.3,10.2-5.3,11.4
			c-5.6,3.3-11.9-3-19.5,0.6c-2.3,1.1-5.6,3.4-5.5,5.9c0.1,2.6,3.9,3.4,8.8,6.6c8.6,5.7,7,9.9,14,13.6c6.2,3.3,14.9,3.9,17.7,0.3
			c1-1.2,1-2.6,1.1-3.5c0.7-11.3,2.7-22.4,4.1-33.7c1.5-12.3,2.3-9.8,7.8-35.9c0.6-2.9,2.1-9.7,6.3-16.6c0.6-0.9,1.1-1.7,1.6-2.5
			c-0.1,5.8,2.1,10.9,2.8,21.6c0.2,3.6-0.9,14.3-3.2,35.7c-1,9-1.4,11.5-2.7,15.1c-2.2,5.8-4.8,8.9-3.5,10.5c1.5,2,6-1.4,13,0.4
			c4.7,1.2,6.2,3.7,7.6,2.8c1.9-1.1,0.7-6.1-1.5-17.4c-1.7-8.6-2.8-12.9-2.8-14.6c-0.6-11.3,2.9-15.6,7.3-34.1
			c3.1-13.2,4.4-24.1,4.9-28.4c1.7-16.4-0.3-15,1.6-21.9c3.3-11.7,11.3-23.6,16.2-30.8c1.6-2.4,3.1-4.4,4.5-7.7
			c2.2-5.3,1.9-8.1,3.2-18.7C634.2,693.8,635.2,691.3,633.6,690z"/>
		<path opacity="0.4" enable-background="new    " d="M607.7,956.2c-6.8,0.1-7.4-2.3-21.5-3.8c-7.9-0.8-12.1-0.5-14.9,2.1
			c-1.8,1.7-2.2,3.5-4.5,4.4c-2.5,1-4.4-0.1-8.4-1.1c-6.8-1.6-7.5,0.1-12.7-1.4c-4.5-1.2-7.5-3.4-10.9-6.1c-3-2.3-7.3-5.7-11-11.6
			c-0.9-1.5-5.1-8.5-5.7-18.4c-0.4-5.9,0.9-6.3,1.4-14.7c0.6-11.3-1.3-20-1.5-20s2.7,9.3,0.1,20.9c-2.7,12.6-9.2,15.3-8.5,25.4
			c0.3,5.6,2.6,9.7,4.5,13.1c4.9,8.7,11.6,13.2,18.1,17.3c3.5,2.2,23.3,14.9,29.5,9.3c2.8-2.5,1.2-7.3,3.9-8.3c2.6-1,5.2,3,10.7,5.8
			c4.9,2.5,9.1,2.6,16.5,2.7c8.4,0.1,15.6,0.3,22.6-3.7c9.5-5.5,15.3-15.9,13.4-18C626.9,948.1,620.2,956,607.7,956.2z"/>
		<path opacity="0.4" enable-background="new    " d="M375.5,277.6c9-1,11.5,1.5,18.2-1c1.9-0.7,6.5-2.4,6.6-5.1
			c0.1-2.6-4.1-4.9-6.8-5.8c-3.9-1.4-5.5-0.2-13.8,0.5c-9,0.8-13.9,0-16.8,3.2c-1.1,1.2-1.6,2.5-1.6,2.7c-0.8,2.2-0.8,5.3,0.5,6.8
			C364,281.1,367.7,278.5,375.5,277.6z"/>
		<path opacity="0.4" enable-background="new    " d="M465.9,481.4c5.2,1.1,14-21.2,18-35.9c3.9-14.1,2.6-18.1,1.6-20.3
			c-2.3-5-5.1-4-20.3-14.8c-9.4-6.7-14.8-11.7-19.5-17.3c-1.8-2.1-3.1-3.9-4-5.2l14.6,37.3c2.5,11.5,3.2,20.6,3.4,26.9
			c0.1,2.5,0.2,8,1.5,15.3C462.8,476,463.6,480.9,465.9,481.4z"/>
	</g>
</g>
<g id="vs-colour">
	<path fill="#BFBDC6" d="M527.7,860.1c4,0.5,3.5,8.9,9.3,15.7c7.2,8.7,20.1,9.9,30.1,9.5c0.4,8.3-0.4,14.9-1.2,19.5
		c-1.9,10.5-4.9,16.1-5.5,28.1c-0.3,5.9,0.3,8.8,0.8,10.7c1.7,6.6,4.4,7.2,5.1,12.4c0.7,5-0.9,11.5-5.5,14.5
		c-0.8,0.5-3.1,1.8-7.9,1.5c-7.6-0.4-13.4-4.2-18.7-8.2c-15-11.3-22.5-16.9-24.2-25.7c-0.9-4.3,0.1-9.2,1.9-19
		c2.1-11.1,3.8-11.3,4.5-18.7c1.2-11.2-2.4-12.9-0.7-21.9C517.4,869.3,523.3,859.6,527.7,860.1z"/>
	<path fill="#BFBDC6" d="M579.4,873.6c3.2-1.6,7.7,0.2,15.8,3.2c4.6,1.8,6.8,3.3,11.1,3.7c4,0.5,7.5-0.2,9.8-0.9
		c4.9,8.1,6.6,14.9,7.2,19.6c2,13.8-3.7,18.2-0.1,31.3c1.4,5.1,3.3,8.1,3.9,15.1c0.3,3.2,0.7,8.2-0.7,12.8
		c-3.5,10.9-17,17.3-28,18.4c-14,1.4-30.3-5.3-31.8-13.9c-0.7-4,2.4-4.9,4.9-13.8c1.8-6.4,1.3-9.9,1.6-20.3
		c0.3-9.2,0.7-6.7,1.6-22.7C576.2,881.8,575.4,875.6,579.4,873.6z"/>
	<path fill="#FFFFFF" d="M496.1,159.6c-0.3,2.6,8.1,5.5,13.4,6.5c2.1,0.4,8.9,1.6,10.1-0.8c0.9-1.9-1.7-5.4-4.5-7.3
		C508.1,153.2,496.4,156.6,496.1,159.6z"/>
	<path fill="#FFFFFF" d="M540.7,164c0.8,0.6,7.2,5,12.2,2.4c0.2-0.1,3.5-1.9,3.2-4.1c-0.2-1.7-2.7-3.1-4.9-2.8s-3.5,2.1-3.6,2.4"/>
</g>
<g id="vs-outline">
	<path fill="none" stroke="#000000" stroke-width="6" stroke-linecap="round" stroke-linejoin="round" stroke-miterlimit="10" d="
		M486.6,67.2c-5.7,4.4-10.5,6.5-14.1,7.6c-1.9,0.6-5.1,1.4-5.9,3.8c-0.8,2.1,0.9,3.5,0,5.4c-1.1,2.3-4.3,1.3-5.9,3.8
		c-1,1.6-0.8,3.5-0.5,5.9c0.4,3.6,1.6,4.2,1.1,5.9c-0.7,2.4-3.2,2-3.8,4.3c-0.7,2.6,1.7,6.1,1.6,5.9c-0.9,1.9-1.4,3.9-1.6,5.9
		c-0.6,5.6,1.9,7.8,1.1,13.5c-0.2,1.3-0.7,2.8-1.6,5.9c-1.3,4.1-2.1,5.7-2.7,7.6c-2.2,6.5-0.9,12.7,0,16.8c1.1,5.1,1.7,8,4.3,10.3
		c1.9,1.6,5.9,3.8,5.9,3.8c1.1-1,2.5-2.1,3.7-1.7c2.1,0.7,1.9,5.6,2.2,10.9c0.5,7.9,1.6,5.6,4.3,22.2c2,12.5,1.7,15.2,1.1,17.3
		c-1.5,5.6-4.7,9.2-7,11.9c-2.1,2.4-5.1,5.2-18.9,13c-3.4,1.9-8.3,4.6-14.2,7.6"/>
	<path fill="none" stroke="#000000" stroke-width="6" stroke-linecap="round" stroke-linejoin="round" stroke-miterlimit="10" d="
		M486.6,67.2c-1.6-1.7-6.2-6.7-4.9-11.4c0.4-1.4,1.4-2.6,3.2-4.9c3.5-4.3,4.9-4,5.9-6.5c1.2-3-0.3-4.7,1.1-7
		c1.6-2.6,4.9-3.2,5.4-3.2c2.6-0.4,3.2,0.8,5.9,0.5c3.6-0.3,3.9-2.5,6.5-2.7c3.4-0.2,4.2,3.6,9.7,7c5.3,3.3,7.1,1.3,10.8,4.3
		c5.2,4.2,5.9,11.2,5.9,11.9c0.7,7.9-4.6,11.7-2.2,15.7c1.4,2.3,3.2,1.2,7.6,4.9c2.7,2.3,2.6,3.2,5.9,6.5c3.1,3.1,4.2,3.3,6.5,5.4
		c4,3.7,5.7,7.8,7,10.8c2.2,5.1,2.6,10,3.2,19.5c0.4,6.3,0.9,13.6,0,23.3c-0.5,5.3-0.9,5.6-1.6,13c-0.7,7-0.5,8.9-1.1,16.2
		c-0.8,10.2-1.1,15.4-2.2,18.9c-2.8,9.7-8.2,16.5-9.7,18.4c-2.3,2.8-2.9,2.9-8.7,9.2c-7,7.7-6.3,7.8-8.1,9.2
		c-9.3,7.1-23.8,2.5-26.5,1.6c-7.6-2.4-13-6.7-16.8-9.7c-3.1-2.5-5.4-4.8-7-6.5"/>
	<path fill="none" stroke="#000000" stroke-width="6" stroke-linecap="round" stroke-linejoin="round" stroke-miterlimit="10" d="
		M457.1,134.7c0.5-0.3,1.3-0.8,2.4-0.8c1.3,0,2.4,0.6,3.4,1.4c5.2,4.1,7.2,9.7,7.2,9.7c1.8,5.3,1.1,9.2,1.9,9.3
		c0.9,0.1,2.1-4.4,2.6-6.2c1.6-6,0.8-6.9,1.8-9.3c2.3-6.1,8.9-4.1,14.5-11.1c3.6-4.5,1.8-6.6,6.1-11.4c3.2-3.6,6.9-5.3,8.8-6.2
		c3.6-1.7,7.2-2.5,11.8-3c8-0.8,17-1.7,27.6,2.2c5.5,2,13,4.8,17.3,12.3c1.9,3.3,2.5,6.4,2.8,8.5"/>
	<path fill="none" stroke="#000000" stroke-width="4" stroke-linecap="round" stroke-linejoin="round" stroke-miterlimit="10" d="
		M494.2,146.9c1.7-0.9,4.5-2.2,8.2-2.6c3.1-0.3,5.5,0.1,6.9,0.4c3.2,0.6,5.6,1.7,10.1,3.8c1.8,0.8,3.2,1.5,4.2,2"/>
	<path fill="none" stroke="#000000" stroke-width="4" stroke-linecap="round" stroke-linejoin="round" stroke-miterlimit="10" d="
		M544.5,152.8c3.1-1.5,5.7-2.6,7.7-3.2c3.3-1.1,4.8-1.3,6.4-0.8c1.4,0.5,2.3,1.4,2.8,2"/>
	<path fill="none" stroke="#000000" stroke-width="4" stroke-linecap="round" stroke-linejoin="round" stroke-miterlimit="10" d="
		M519.6,164.2c-0.5-1.2-1.6-3.3-3.6-5.1c-0.7-0.6-4.2-3.7-8.8-3.4c-1.5,0.1-3,0.8-6.1,2c-1.7,0.7-3.1,1.4-4.1,1.9"/>
	<path fill="none" stroke="#000000" stroke-width="4" stroke-linecap="round" stroke-linejoin="round" stroke-miterlimit="10" d="
		M497,159.6c1,0.9,2.3,2,4.1,3c1.7,1,3.3,1.5,4.6,1.9"/>
	<path fill="none" stroke="#000000" stroke-width="4" stroke-linecap="round" stroke-linejoin="round" stroke-miterlimit="10" d="
		M503.4,158.8c0.1-0.1,0.4-0.2,0.6-0.4c0,0,0.9-0.5,2-0.6c0.4,0,2.9-0.3,4.2,1.4c0.1,0.2,1,1.3,0.7,2.7c-0.2,1-0.9,1.5-1.1,1.6
		c-1.9,1.4-5.6,0.4-5.9-1.1c-0.2-1,0.8-2.3,2.2-2.7c1.1-0.3,2.7,0,3,0.9c0.2,0.7-0.2,1.8-1.1,2c-0.7,0.2-1.6-0.3-1.9-1.1"/>
	<path fill="none" stroke="#000000" stroke-width="4" stroke-linecap="round" stroke-linejoin="round" stroke-miterlimit="10" d="
		M539.6,163.4c2.1-1.5,4-2.3,5.4-2.8c1.7-0.6,2.7-1,4.2-0.9c0.8,0,1.2,0.2,4.3,1.5c3.9,1.6,4.5,1.8,4.6,2.4c0.2,1.4-2.3,2.8-2.6,3
		c-1.5,0.8-2.9,0.9-4.7,1.1c-1.4,0.1-2.6,0.1-3.4,0"/>
	<path fill="none" stroke="#000000" stroke-width="6" stroke-linecap="round" stroke-linejoin="round" stroke-miterlimit="10" d="
		M543.7,162.4c0.4-0.3,1.4-1,2.7-1.1c0.2,0,2.9-0.2,3.5,1.4c0.5,1.1-0.5,2.3-0.5,2.4c-1.2,1.6-3.6,1.3-4.1,1.2
		c-1.3-0.2-2.9-0.8-2.8-1.5c0-0.7,1.7-1.3,2.7-1.5c0.1,0,0.1,0,0.2,0c0.6-0.1,2.2-0.4,2.4,0c0.2,0.3-0.6,1.1-0.9,1.5"/>
	<path fill="none" stroke="#000000" stroke-width="4" stroke-linecap="round" stroke-linejoin="round" stroke-miterlimit="10" d="
		M541.6,154.4c-1.3,1.2-3.1,3.4-3.9,6.5c-0.3,1.2-0.3,2.7-0.3,5.5c0,3.2,0.2,2.4,0.7,9.5c0.2,2.6,0.3,4,1.4,5
		c0.9,0.8,1.6,0.7,2.3,1.6c0.9,1.3,0.8,3.6-0.3,4.6c-1,0.9-2.1,0.2-3.4,1.2c-1,0.8-0.6,1.5-1.5,2.4c-1.3,1.3-3.7,1.4-5.4,0.8
		c-1.4-0.5-2.7-1.6-3.9-2.6c-0.6-0.5-1.1-1-2-1.2c-1-0.2-1.5,0.1-2.4,0.1c-1.7,0.1-4-0.7-4.9-2.3c-0.8-1.4-0.3-3.1,0-4.2
		c0.3-1,0.7-1.8,1.1-2.3"/>
	<path fill="none" stroke="#000000" stroke-width="4" stroke-linecap="round" stroke-linejoin="round" stroke-miterlimit="10" d="
		M504.9,198.4c1,0.1,2.6,0.2,4.6,0.1c3.8-0.2,4.6-1,9.1-1.4c1.9-0.2,3.8-0.3,6.4,0c1.6,0.2,1.9,0.4,3.6,0.5c2.9,0.2,3.1-0.2,5.3,0
		c1.9,0.2,2.3,0.6,5.9,1.6c1.9,0.5,3.5,0.9,4.5,1.1"/>
	<path fill="none" stroke="#000000" stroke-width="4" stroke-linecap="round" stroke-linejoin="round" stroke-miterlimit="10" d="
		M543.9,200.9c-0.6,1-1.4,2.4-2.6,4.1c-2.5,3.7-3.7,5.5-5.4,6.6c-3.3,2.3-7.1,1.9-10.1,1.6c-1.9-0.2-6.1-0.6-9.9-3.4
		c-3-2.2-2.9-3.9-8-8.2c-1.4-1.2-2.6-2.1-2.4-2.3c0.2-0.4,3.5,1.6,9.1,3.8c2.9,1.1,4.8,1.9,7.6,2.4c1.1,0.2,4.3,0.8,8.4,0.7
		c3.2-0.1,5.3-0.2,7.7-1.4c2.1-1,3.5-2.4,4.3-3.4"/>
	<path fill="none" stroke="#000000" stroke-width="4" stroke-linecap="round" stroke-linejoin="round" stroke-miterlimit="10" d="
		M562.6,229.2c-12.2,12.7-26.8,27.3-44.6,32.2c-27.6,9.7-58.4,9.7-82.3-6.5"/>
	<path fill="none" stroke="#000000" stroke-width="6" stroke-linecap="round" stroke-linejoin="round" stroke-miterlimit="10" d="
		M539.2,219.3c4.7,2,11.1,4,18.8,4.7c3,0.2,5.7,0.2,8.2,0.1"/>
	<path fill="none" stroke="#000000" stroke-width="6" stroke-linecap="round" stroke-linejoin="round" stroke-miterlimit="10" d="
		M435.7,254.9c-3.4,1.7-7.9,4.2-13,7.7c-1.3,0.9-10.1,7.1-16.2,14.2c-2.5,2.9-3.5,4.8-14.2,31.6c-4.2,10.5-6.7,17-11.3,28.5
		c-1.7,4.2-3.1,7.7-4.1,10c0.7,1.7,1.9,4.1,4.1,6.4c3,3.2,4.4,2.7,8.9,6.4c3.8,3.2,7.3,7.4,7.3,7.4l0,0c10.1,4.9,15.2,7.3,17.4,8.1
		c3.6,1.3,8.8,3.1,15.8,4.1"/>
	<path fill="none" stroke="#000000" stroke-width="6" stroke-linecap="round" stroke-linejoin="round" stroke-miterlimit="10" d="
		M408.1,304.8c8.7,23.7,11.2,39.3,11.8,49.5c0.1,2.2-0.1,6.7,1.6,12.2c3.2,10.3,9.2,12.9,16.2,22.3c2.8,3.7,6.5,12.7,13.8,30.8
		c7.3,18.1,7.9,21.6,8.1,23.6c1.4,11.4-2,13.1,0.2,23.6c2.5,11.8,7.3,11.9,7.1,21c-0.1,7.5-3.5,11.7-0.8,17.8
		c0.7,1.7,2.1,3.8,1.8,6.8c-0.2,1.5-0.6,2.4-2.6,6.1c-1.4,2.7-2.7,5.1-3.6,6.9c5.2,1.1,12.5,2.3,21.1,3.2c4.8,0.5,23,2.3,46.6,0.4
		c35.3-2.9,62.3-12.4,89.6-22.3c0,0,54.1-19.6,53.9-33.7c-0.1-5.4-2.4-8.9-2.4-8.9c-2.4-3.5-5-3.7-7.3-6.5
		c-3.6-4.3-0.8-8.1-2.4-13.4c-2.6-8.3-9.8-6.6-13-14.2c-3.8-9,4.2-16.1-0.8-23.5c-2-3-3.4-2-7.3-5.7c-4.7-4.5-6.8-9.8-9.7-19.5
		c-3.3-11.2-3.8-15.1-5.7-21.9c-2-7.3-5.7-20.5-14.6-33.3c-3.6-5.2-9.8-12.9-19.9-20.3"/>
	<path fill="none" stroke="#000000" stroke-width="6" stroke-linecap="round" stroke-linejoin="round" stroke-miterlimit="10" d="
		M608,267c5.3,6.6,8,12.9,9.3,17c2.2,6.6,2.6,12,2.8,16.2c0.3,5.2,0.7,10.1-0.8,16.2c-1.4,5.9-3.9,10.4-5.7,13.2"/>
	<path fill="none" stroke="#000000" stroke-width="6" stroke-linecap="round" stroke-linejoin="round" stroke-miterlimit="10" d="
		M566.2,224.1c3.8,0.3,9,0.8,15,2c6.7,1.3,15.2,3.6,26,8.1c16.1,6.8,19.2,11.1,37.3,20.7c5.9,3.1,14.9,7.6,26.4,12.2
		c-1.2,5.2-3.1,12.6-5.7,21.5c-6.3,21.3-9.8,32.1-17.8,41c-4.1,4.6-12.4,11.9-27.6,16.2"/>
	<path fill="none" stroke="#000000" stroke-width="6" stroke-linecap="round" stroke-linejoin="round" stroke-miterlimit="10" d="
		M660.3,308.8c1.2,1.1,2.6,2.9,2.8,5.3c0.2,2.2-0.8,3.9-1.2,4.9c-1,2-1.3,4.6,1.2,15.4c1.2,5.1,2.9,11.4,5.3,18.7"/>
	<path fill="none" stroke="#000000" stroke-width="6" stroke-linecap="round" stroke-linejoin="round" stroke-miterlimit="10" d="
		M663.2,314.1c1.6-2.2,3.7-5.6,5.7-10.1c1.6-3.7,2.3-6.5,4.5-17.5c5-24.6,1.7-11.9,4-22.6c1.3-6.1,2.3-10.2,0-13.8
		c-1.2-1.9-2.9-2.9-5.7-4.5c-5.7-3.3-7.1-1.9-11.8-4.5c-4.1-2.2-7.5-5.8-11.4-9.7c-2.4-2.5-3.7-4.2-5.7-4.1c-2.5,0.1-3,3-6.5,4.1
		c-2.8,0.8-6.6,0.3-7.3-1.6c-0.5-1.4,0.7-3.3,2.4-4.9c-5,0.8-10,1.6-15,2.4c-0.8-0.6-2.7-2.2-3.6-4.9c-0.3-0.8-1.4-4,0-6.5
		c1.5-2.6,5.2-3,7.3-3.2c6.6-0.8,12.9-3.4,19.5-4.5c5.5-0.8,13.3-2.5,22.7-6.1c1.9,1.5,4.9,3.8,8.5,6.5c10,7.5,11.7,8.2,15.4,11.4
		c2.8,2.4,9.6,8.2,13.8,16.2c4.8,9.4,4.3,18.4,4.1,23.9c-2.1,44.9,5.1,46.4-0.4,76.2c-4.3,23.6-13.6,49-13.8,49.5
		c0,0-1.6,3.8-3.2,5.3c-2.8,2.5-8.3,0.5-10.9-0.4c-16.5-5.9-24.8-9-27.3-10.6c-12.4-7.8-20.5-17.4-25.3-24.4"/>
	<path fill="none" stroke="#000000" stroke-width="6" stroke-linecap="round" stroke-linejoin="round" stroke-miterlimit="10" d="
		M673.8,246.8c1.6,0.7,4.7,1.6,8.4,1.2c7.2-0.9,11.4-6.2,12.2-7.3"/>
	<path fill="none" stroke="#000000" stroke-width="4" stroke-linecap="round" stroke-linejoin="round" stroke-miterlimit="10" d="
		M668.8,237.4c-0.1-4.1-1.3-5.7-2.4-6.5c-1.2-0.8-1.9-0.4-4.5-1.6c-2-1-2.1-1.5-3.6-2c-1.7-0.6-3.2-0.5-4.5-0.4
		c-3.2,0.2-5.7,1.4-7.3,2.4"/>
	<path fill="none" stroke="#000000" stroke-width="4" stroke-linecap="round" stroke-linejoin="round" stroke-miterlimit="10" d="
		M662.8,211.1c-4.2,1.6-8.5,3.4-13,5.3c-6.5,2.8-12.5,5.6-18.2,8.5"/>
	<path fill="none" stroke="#000000" stroke-width="4" stroke-linecap="round" stroke-linejoin="round" stroke-miterlimit="10" d="
		M666,217.2c-3.3,0.9-7.4,1.7-12.2,2c-3.8,0.3-7.2,0.1-10.2-0.1"/>
	<path fill="none" stroke="#000000" stroke-width="4" stroke-linecap="round" stroke-linejoin="round" stroke-miterlimit="10" d="
		M612.9,222.4c5.2-2.3,10.7-4.7,16.6-6.9c6.2-2.3,12.2-4.4,17.8-6.1"/>
	<path fill="none" stroke="#000000" stroke-width="6" stroke-linecap="round" stroke-linejoin="round" stroke-miterlimit="10" d="
		M399.6,257.7c-8.1,0.5-16.2,1.1-24.3,1.6c-2.4,1.3-6.2,3.2-10.9,5.3c-7.4,3.2-9.7,3.3-13,5.7c-3.3,2.4-5.2,5.9-8.9,13
		c-4.1,7.7-6.2,13.7-9.3,22.3c-4,11.1-4.1,13.2-4.1,14.6c0,3.6,0.9,7.1,5.7,16.6c4.6,9.1,7.6,13.5,11.4,19.9
		c4.3,7.4,4.5,8.9,10.9,22.3c6.4,13.3,10.4,21.5,16.2,31.2c5.4,9.1,11.6,16.5,23.9,31.2c4,4.8,9.2,10.8,15.8,10.5
		c3.3-0.1,6-1.7,8.5-3.2c4.8-2.9,8.2-6.7,11.4-11.4c6.5-9.6,9.8-19.6,11.6-26.9"/>
	<path fill="none" stroke="#000000" stroke-width="6" stroke-linecap="round" stroke-linejoin="round" stroke-miterlimit="10" d="
		M399.6,257.7c0.5,1.3,1,3,0.3,4.2c-0.8,1.3-2.7,1.2-2.7,1.9c0,0.8,2.6,2,5.4,2.2c2.9,0.1,4.4-0.9,5.4,0c0.5,0.5,0.5,1.3,0.5,3
		c0,2.4,0.1,3.6-0.5,4.6c-0.7,1.2-2.1,1.5-7,2.2c-5.4,0.7-8.3,0.9-8.4,1.4c-0.1,0.7,6.2,1,6.5,3c0.2,1.1-1.6,2.4-3,3
		c-2.3,1-3.8,0.1-7,0c-0.3,0-4.5-0.1-8.4,1.6c-2.9,1.3-4.6,3.2-6.5,5.4c-8.5,10.2-13.2,20-13.2,20c-2.6,5.3-3.2,7.9-6.2,9.5
		c-3.1,1.7-6.7,1.2-9.2,0.5"/>
	<path fill="none" stroke="#000000" stroke-width="6" stroke-linecap="round" stroke-linejoin="round" stroke-miterlimit="10" d="
		M354.7,319.5c0.8,1.8,2,4.4,3.8,7.6c4.3,7.5,6.9,9.1,12.6,16.9c6.9,9.4,5.9,10.8,12,17.7c4.1,4.6,8,7.9,8.9,8.7
		c5.5,4.6,6.8,4.4,10.8,7.8c1.1,1,6.7,5.8,11.1,14.1c3.3,6.2,4.8,12,5.4,16.2"/>
	<path fill="none" stroke="#000000" stroke-width="4" stroke-linecap="round" stroke-linejoin="round" stroke-miterlimit="10" d="
		M362.3,280c4.2,0.7,7.4,0.4,9.5,0c2-0.3,2.6-0.7,7.1-1.6c2.7-0.6,4.1-0.8,5.9-1c2.9-0.3,5.2-0.2,6.9,0"/>
	<path fill="none" stroke="#000000" stroke-width="4" stroke-linecap="round" stroke-linejoin="round" stroke-miterlimit="10" d="
		M362.7,272.3c6.5,0.8,11.7,0.4,15.2,0c4.7-0.6,5.4-1.2,9.7-1.4c2.4-0.1,3.9,0,12.8,0.6c2.8,0.2,5,0.3,6.3,0.4"/>
	<path fill="none" stroke="#000000" stroke-width="4" stroke-linecap="round" stroke-linejoin="round" stroke-miterlimit="10" d="
		M397.1,263.8c-5-0.4-9.1-0.4-12.2-0.4c-4.6,0-6.6,0.3-8.3,0.6c-3,0.6-5.4,1.4-7.1,2"/>
	<path fill="none" stroke="#000000" stroke-width="6" stroke-linecap="round" stroke-linejoin="round" stroke-miterlimit="10" d="
		M481.9,526.6c-0.2,2.9-0.3,7.6,0,13.4c0.9,16.3,5,28.3,7.7,36.1c5.7,16.2,16.7,46,32.4,83.9c12.5-0.3,22.7-2.5,29.6-4.5
		c7-2,21-6.2,35.3-17.4c4.9-3.9,8.5-7.5,10.9-10.1"/>
	<path fill="none" stroke="#000000" stroke-width="6" stroke-linecap="round" stroke-linejoin="round" stroke-miterlimit="10" d="
		M586.9,548.9c0.3,3.5,0.7,8.2,1.2,13.8c0.3,2.8,1.4,13.6,3.6,29.2c1.4,9.8,3.4,22,6.1,36.1"/>
	<path fill="none" stroke="#000000" stroke-width="4" stroke-linecap="round" stroke-linejoin="round" stroke-miterlimit="10" d="
		M553.7,547.7c4.1,0.8,10.1,1.7,17.4,2c9,0.4,14.6,0.7,21.1-1.2c4-1.2,11.5-4.1,19.1-12.2"/>
	<path fill="none" stroke="#000000" stroke-width="6" stroke-linecap="round" stroke-linejoin="round" stroke-miterlimit="10" d="
		M667.3,482c1.3,0.1,3.1,0.6,4.4,2c2.6,2.9,1,7.6,0.4,13.8c-0.1,1.4,0.2,5.9,0.8,15c0.9,13.2,2.5,23.5,2.8,26
		c1.5,10.4,2.7,31.5,2,77.5c-8.6,6-16.5,9.6-22.3,11.8c-18.9,7.2-32.7,6.2-37.3,5.7c-6.2-0.7-10.4-2.1-14.2-4.9
		c-4.2-3.1-6.5-6.8-7.6-9.2"/>
	<path fill="none" stroke="#000000" stroke-width="6" stroke-linecap="round" stroke-linejoin="round" stroke-miterlimit="10" d="
		M522,660c4.9,11.5,8.5,21.4,10.9,28.8c9.2,27.3,8.5,34.9,7.3,40c-1.5,6.5-3.2,5.9-8.2,18c-0.7,1.6-6.2,15.4-8.4,28.8
		c-3.7,22.2,1.5,44.2,4.4,56.4c2.8,11.7,5.5,20.3,0.7,27.6c-3.5,5.3-9.2,4.7-12,11.2c-1.6,3.7-1.4,7.7-0.9,15.5
		c0.4,7,1.2,6.7,1.2,10.9c0.1,7.8-2.5,10.6-5.2,21.6c-2.1,8.2-3.1,12.4-2.7,16.3c1.2,10.7,10.1,17.6,17.6,23.5
		c4.7,3.7,23.7,18.4,33.8,11.9c4.2-2.7,5.3-8.1,5.5-9c1.5-6.9-2.7-11-5.1-17.9c-3.5-10.3,1.7-13.9,4.7-38.8
		c0.8-7.1,0.2-4.6,1.5-23.2c1.4-18.9,2-28.3,3.2-35.9c2.5-16.1,4.4-20,11.9-46.6c2.5-8.9,4.2-14.5,7.3-21.5
		c4.1-9.4,6.2-11.2,11.4-21.9c3.8-8,7.4-15.4,9.3-23.5c3.2-13.4,0.8-24.5-0.8-32.8c-3.7-18.7-7.4-41.4-11.8-71.4"/>
	<path fill="none" stroke="#000000" stroke-width="6" stroke-linecap="round" stroke-linejoin="round" stroke-miterlimit="10" d="
		M650.9,629.6c-1.1,8.6-2.6,21.7-3.9,37.7c-0.8,9.6-1.1,15.5-2.4,40.6c-2.5,46.7-2.6,48.8-3.2,54.3c-1.8,15.6-3.2,28.6-7.7,45.8
		c-3.2,12.2-9.1,31.4-12.6,52.3c-0.7,4.6-1.4,9.3-1.2,15.4c0.3,9,2,10.9,3.6,23.5c0.8,6.4,1.6,12.2,1.2,19.9
		c-0.4,9.7-2,10.1-1.2,15.8c1.3,9.4,6.1,11.6,5.3,17.8c-0.7,5.5-5,9-8.9,12.2c-8.7,7.1-22.8,12.2-37.3,8.1c-3.6-1-10.3-3.4-17-9.7"
		/>
	<path fill="none" stroke="#000000" stroke-width="6" stroke-linecap="round" stroke-linejoin="round" stroke-miterlimit="10" d="
		M568.5,952c1.8-2.4,4.2-6.3,5.2-11.4c0.9-5-0.1-7.9-0.5-15.2c-0.2-3.3,0-7.1,0.4-14.7c0.6-11.1,0.9-16.7,2.4-24.3
		c0.5-2.3,1.3-6.1,2.8-10.9c2.4-7.2,4.1-9.2,5.3-14.6c1.1-4.7,0.9-8.2,0.8-12.2c-0.2-7.9,0.5,5,0.8-32.4c0.1-7.2,0.1-16.5,0.1-27.4"
		/>
	<path fill="none" stroke="#000000" stroke-width="4" stroke-linecap="round" stroke-linejoin="round" stroke-miterlimit="10" d="
		M578.8,875.3c5.7-1,10-0.4,13,0.4c4.9,1.3,7.2,3.3,14.6,4.9c3.8,0.8,6,0.9,8.1,0c2.9-1.2,4.5-3.5,5.3-4.9"/>
	<path fill="none" stroke="#000000" stroke-width="4" stroke-linecap="round" stroke-linejoin="round" stroke-miterlimit="10" d="
		M527.7,860.1c6.3,16,17.8,26.8,30.1,27.1c2.5,0.1,5.7-0.3,9.3-1.9"/>
	<path fill="none" stroke="#000000" stroke-width="4" stroke-linecap="round" stroke-linejoin="round" stroke-miterlimit="10" d="
		M519,898.8c-1.7,5.2-4,14.6-2.1,26c0.7,4.5,1.7,10.4,5.8,16.5c8.9,13.3,24.2,16.1,29.4,17c6.1,1.1,11.2,0.9,14.6,0.5"/>
	<path fill="none" stroke="#000000" stroke-width="4" stroke-linecap="round" stroke-linejoin="round" stroke-miterlimit="10" d="
		M568.5,952c2.7,3.2,5.1,3.9,6.7,4.1c3.9,0.4,5.2-2.7,10.9-3.6c3.1-0.5,5.6-0.1,8.5,0.4c4.9,0.8,5.7,1.9,10.1,2.8
		c2.8,0.6,6.7,1.4,10.5,0.4c6.7-1.6,10.5-7.8,11.8-10.4"/>
	<path fill="none" stroke="#000000" stroke-width="4" stroke-linecap="round" stroke-linejoin="round" stroke-miterlimit="10" d="
		M609,740.8c-3.8,5.9-8.1,7.6-9.8,8.1c-7.7,2.3-15.2-2.6-21.1-6.5c-5-3.3-8.4-6.8-10.4-9.2"/>
</g>
<g id="vs-reveal">
	
		<path fill="none" stroke="#000000" stroke-width="54" stroke-linecap="round" stroke-linejoin="round" stroke-miterlimit="10" stroke-opacity="0" d="
		M514.4,41.4c-10.9-5.4-25.1-3.1-33.7,5.4c16.9-0.5,33.8-1.1,50.7-1.6c6-0.2,14.2,6.8,8.7,9.3c-23-2.2-46.4,0.2-68.5,7
		c22.8,5.6,46.8,6.1,69.8,1.3c-9.5,12.5-28.2,11.8-43.8,10.7c-15.7-1.2-34.9,0.3-42,14.3c31.9,13.3,73.9-15.1,101,6.5
		c-16.2,10.3-36.9,7.4-56,5.8c-19.1-1.6-41.1-0.4-53.1,14.5c39.7,17.3,88.4-23,127.1-3.5c-1.4,12.8-18.3,16.2-31.2,16.2
		c-27.5,0.1-55.1,0.1-82.6,0.2c-8.5,0-20.6,5.6-16.3,13c1.6,2.7,5,3.8,8.1,4.5c18.4,4.1,37.8,4.2,56.2,0.2
		c10.5-2.2,21.1-5.8,31.7-4.2c10.6,1.6,21.1,10.7,19.5,21.3c-36,2.3-72.4-0.3-107.7-7.7c-3.5,4.1-1.5,10.8,2.7,14.2
		c4.2,3.3,9.9,4,15.2,4.4c28.8,2.2,58-1.1,85.5-9.7c7.1,11.3-6.2,25.8-19.5,27.2s-26.3-4.5-39.6-5.2c-13.3-0.7-29.5,8-28,21.3
		c22.8-2.4,45.6-4.8,68.3-7.2c2.3-0.2,4.9-0.4,6.8,0.9c5.3,3.9-1.8,11.9-8.3,13.2c-11.7,2.3-23.9-0.2-35.8,0.1
		c-12,0.3-25.3,4.7-30.1,15.7c31-0.4,62-0.8,93-1.2c-39.6,24.1-95.3,1.5-134.7,25.9c4,9.6,17.3,9.8,27.6,8.2
		c60.2-9.3,119.8-22.5,178.3-39.7c17.6-5.2,36.9-10.6,53.8-3.4c-102.8,51.9-230,19.1-338.5,57.7c-6.6,2.3-14.4,8.9-10.4,14.6
		c110.7-21.1,221-44.5,330.7-70.3c10.8-2.5,27.5,0,25.6,10.9c-0.9,5.4-6.6,8.5-11.6,10.6C572,290.2,446,282.9,327.8,307.6
		c-3.8,0.8-8.2,2.1-9.6,5.7c-2.6,6.5,6.4,11.4,13.3,12.5c64.5,10.1,130.3-4,192.8-22.8s123.9-42.4,188.5-52.2
		c-0.1,12.1-12.8,19.5-24,24.2c-59.3,24.8-122.2,41-186,48.2c-58.7,6.6-123,7.3-168.2,45.1c27.6,8.2,57.1,1.9,85.1-4.8
		c96.1-23.4,190.8-52.3,285.3-81.2c-1.2,22.2-28.1,31.7-49.9,36C576,333.9,498,354.5,421.6,379.8c-21,6.9-42.2,14.4-59.7,27.9
		c116.8,10.1,223.8-60.6,337.9-87.9c-0.3,15.1-17,23.7-31.2,28.6c-37.8,13-76.5,23.2-115.8,30.5c-60,11.1-125.9,17.6-169.8,60
		c25.3,12,55,2.1,81.1-7.8c72.2-27.3,144.4-54.6,216.5-81.9c8.2-3.1,21.9-2,20.4,6.6c-0.5,3-3.1,5.1-5.5,6.9
		c-50.9,36.8-120.2,30.5-180.8,46.8c-19.5,5.2-41,16-44.6,35.9c30.9,2.9,59.8-13.6,87.5-27.6s60.2-26.2,89-14.7
		c-65.5,15.6-129.6,37.4-191,65.1c32.1,10.1,66.3-4.4,96.2-19.8s61.9-32.6,95.2-27.8c-14,14.4-35.5,17.8-55.2,21.7
		c-49.2,9.9-96.7,28.2-139.9,53.9c36,4.8,70.5-13.4,103-29.6s69.4-31.4,104.1-20.7c-54.6,41.6-138.9,33-186.3,82.7
		c64.8,10.8,121.3-53.1,187-53.3c4.6,0,10.3,1.1,11.6,5.5c1.6,5.4-4.7,9.5-9.9,11.5c-63.3,23.9-136.9,30-185.9,76.7
		c37-6.1,73.1-17.8,106.7-34.5c25.7-12.8,56.1-28.7,81.2-14.7c-53.1,39.7-131.2,40.3-175.8,89.2c51.7-18,103.3-35.9,155-53.9
		c6.4-2.2,14.8-3.9,18.8,1.6c5.8,7.9-5.3,17.1-14.3,20.6c-32.5,12.6-65,25.3-97.5,37.9c-12.3,4.8-27.2,15.3-21.9,27.4
		C570,625,615.3,614.8,661,612.7c-42.8,36.4-112.5,22.7-156.3,58c7.2,10.4,22.5,9.8,35,8.1c44.7-6.3,89.2-14.4,133.3-24.2
		c-30.8,7.5-61.7,15.1-92.5,22.6c-13.5,3.3-27.7,7-37.3,17.1c34.2,6.9,69.6,2.3,104.2-2.3c-39.8,5.2-79.2,13.8-117.6,25.6
		c44.2-2.3,88.9-4.6,132.2,4.5c-43.9-2-88.3,5.4-129.1,21.6c17.2,10.2,38.6,7.7,58.6,7.8s43.1,5.4,51.6,23.4
		c-43.5-3.1-86.9-6.1-130.4-9.2c34.3,6.6,68.6,13.1,102.8,19.7c9.5,1.8,19.8,4.1,25.8,11.7c-38.7,1.8-77.3,3.7-116,5.5
		c43,9.2,86.1,18.3,129.1,27.5c-47-2.4-94.4,0.8-140.6,9.7c43.3,3.7,86.6,7.4,129.8,11c-36.9,5.1-73.8,10.1-110.7,15.2
		c-9.2,1.3-21.2,6.1-19.5,15.2c34.7-0.3,70.2-0.4,102.8,11.3c-42.7,0.6-85.2,7.2-126,19.7c42.7,12.6,86.8,20.7,131.2,23.8
		c-38.1-3.4-77,3.3-111.8,19.3c32.1,10.4,66.1,15,99.8,13.5c-6.8-2.9-14.5-3.5-21.7-1.8"/>
</g>
</svg>
