<?xml version="1.0" encoding="utf-8"?>
<!-- Generator: Adobe Illustrator 15.0.0, SVG Export Plug-In . SVG Version: 6.00 Build 0)  -->
<!DOCTYPE svg PUBLIC "-//W3C//DTD SVG 1.1//EN" "http://www.w3.org/Graphics/SVG/1.1/DTD/svg11.dtd">
<svg version="1.1" id="Layer_1" xmlns="http://www.w3.org/2000/svg" xmlns:xlink="http://www.w3.org/1999/xlink" x="0px" y="0px"
	 width="531.726px" height="524px" viewBox="-171.058 0 531.726 524" enable-background="new -171.058 0 531.726 524"
	 xml:space="preserve">
<path fill="#2D4284" d="M128.471,207.833c0,0-15.152,3.636-7.879,9.697s8.485,15.758,11.515,7.273S136.35,198.137,128.471,207.833z"
	/>
<path fill="#2D4284" d="M137.562,138.742c0,0-16.97,3.636-30.303,20s-29.09,61.818-22.424,53.939s18.18-31.515,21.211-37.576
	s8.485-18.182,14.546-22.424s18.789-9.697,18.789-9.697S146.046,135.711,137.562,138.742z"/>
<path fill="#4089E2" d="M170.895,151.47c0,0-20-22.424-40-5.455s-19.396,18.788-24.85,29.091s-9.089,16.97-15.756,24.849
	s-10.909,23.031-4.849,30.909s12.254,15.724,19.393,9.091s14.545-15.151,14.545-15.151s3.638-7.879-0.604-10.303
	s6.061-2.424,9.697-6.667s6.667-3.637,6.061,4.242s-3.636,20-3.636,20s-37.939,63.702-44.424,74.275s-14.97,32.997-21.03,38.452
	s-13.333,3.031-20.606,5.455s-25.455,8.484-20,13.333s40.606,20.606,51.515,15.758s20.606-16.364,29.697-26.667
	s33.333-41.818,33.333-41.818s41.818-72.727,44.848-84.242s6.061-50.303,6.061-50.303s-3.636-5.454,2.425-11.515
	s18.788-23.636,29.091-31.515s39.395-27.878,41.818-36.97S247.865,74.5,247.865,74.5s-14.546,12.121-24.849,17.576
	s-27.272,17.576-27.272,17.576L170.895,151.47z"/>
<path fill="#2D4284" d="M76.956,225.409L-83.65,398.137l-36.364,32.121c0,0,7.879-1.213,24.849-6.667s56.364,1.212,72.121-10.909
	S14.532,379.349,16.35,374.5s3.03-26.061,3.03-26.061s8.485,4.849,30.909,0s20-7.879,21.818-12.728s11.152-23.571,14.364-29.361
	s14.121-17.911,14.121-17.911l-5.455-19.394L76.956,225.409z"/>
<path fill="#2D4284" d="M120.592,267.833c0,0-9.697-13.333-18.182-7.272s-3.636,17.577-4.849,25.455s-4.243,9.091,9.091,10.303
	s24.242,4.242,25.455,10.303s0.303,13.871,7.727,6.633s15.909-16.936,14.697-24.814S120.592,267.833,120.592,267.833z"/>
<path fill="#E8BA00" d="M102.41,260.561c0,0,16.969,3.031,24.848,9.697s18.788,33.332,29.697,23.636s4.849-15.758,1.818-23.03
	s-53.939-21.818-53.939-21.818L102.41,260.561z"/>
<path fill="#E8BA00" d="M172.107,171.47c0,0,15.757-6.06,18.182,4.849s3.937,20.61,1.362,28.487s2.273,11.648-3.786,20.604
	s-6.666,17.575-11.515,7.272c-4.849-10.303-8.149-30.635-10.135-42.287S159.986,175.106,172.107,171.47z"/>
<path fill="#E1C5B6" d="M161.804,58.742c0,0,11.787,11.605,18.015,17.015s17.137,0.561,18.955,8.44s-0.001,4,6.666,7.758
	s14.544,6.545,3.636,16.97s-15.757,17.09-23.029,26.788s-12.727,12.122-12.727,12.122l-16.364-13.939c0,0,8.702-3.924-1.104-13.174
	S136.35,76.318,161.804,58.742z"/>
<path fill="#EC2A36" d="M246.653,78.136l23.636-20.606l32.728-23.03c0,0,24.242-17.576,26.061-3.636s-2.579,11.063-1.367,20.154
	c0.852,6.386-22.606,14.145-22.135,9.419s-8.619-12.604-19.528,0.729s-22.424,35.152-22.424,35.152s-4.242,9.697-12.121,0.606
	S235.744,82.378,246.653,78.136z"/>
<path fill="#EC2A36" d="M13.925,376.924c0,0-13.94,20.605-24.243,27.879s-30.699,5.09-25.32,19.229s2.896,16.528,1.684,26.832
	s7.273,53.939,13.939,44.849S-14.531,446.62,0,433.894s56.956-44.242,56.956-44.242s21.818-8.484,3.636-11.515
	s-35.757-14.546-35.757-14.546S19.986,355.711,13.925,376.924z"/>
<path fill="#EC2A36" d="M169.075,139.349c0,0-33.939-23.636-65.455,5.455s-35.757,63.03-53.333,89.697s-26.667,49.698-74.546,71.516
	s-80.606,16.363-74.545,27.272s25.455,1.818,16.364,29.091s-12.121,46.666-27.272,57.575s-40,29.698-27.273,24.243
	s33.939-27.273,52.727-32.728s37.577,5.455,68.485-18.182S85.439,292.682,85.439,292.682l34.545-40c0,0,21.818,10.909,29.091,18.788
	s9.091,13.938,16.97,7.272s24.848-26.061,6.667-35.151s-12.121,13.939-28.484,0s-19.394-21.818-19.394-21.818
	s1.952-5.488-5.455,3.03s-14.545,15.151-14.545,15.151s0,6.667-6.061,2.424s-16.363-10.304-15.757-18.182s2.966-27.898,9.092-38.788
	c0,0,9.697-23.03,20-31.515s23.939-24,41.97-12.606s34.394,20.485,16.818-2.545"/>
<path fill="none" stroke="#000000" stroke-width="1.5" stroke-linecap="round" stroke-linejoin="round" stroke-miterlimit="10" d="
	M140.591,140.561c-3.847,3.941-16.918,7.126-20,12.121c-3.97,6.435-12.989,15.198-14.546,22.424
	c-2.44,11.328-10.347,17.264-16.363,27.273c-5.107,8.497-7.916,11.833-6.667,21.818c1.212,9.697,24.054,23.134,32.728,27.273
	c8.952,4.271,16.518,11.975,25.455,15.151"/>
<path fill="none" stroke="#000000" stroke-width="1.5" stroke-linecap="round" stroke-linejoin="round" stroke-miterlimit="10" d="
	M123.015,218.743c-4.337,3.981-7.481,9.812-11.043,14.579c-3.048,4.079-8.328,8.293-9.562,13.3"/>
<path fill="none" stroke="#000000" stroke-width="1.5" stroke-linecap="round" stroke-linejoin="round" stroke-miterlimit="10" d="
	M157.561,246.015c-6.404,2.57-15.18-1.071-18.819-6.182c-10.272-14.424-13.908-21.091-22.999-23.515"/>
<path fill="none" stroke="#000000" stroke-width="1.5" stroke-linecap="round" stroke-linejoin="round" stroke-miterlimit="10" d="
	M141.197,267.833c6.708,1.349,9.661,12.247,17.576,13.348c6.325,0.88,9.674-5.294,13.468-9.547
	c3.18-3.563,10.985-10.78,10.34-16.074c-0.67-5.499-12.142-15.216-17.747-13.799c-4.488,1.135-8.001,6.198-12.727,7.89"/>
<path fill="none" stroke="#000000" stroke-width="1.5" stroke-linecap="round" stroke-linejoin="round" stroke-miterlimit="10" d="
	M165.439,250.864c4.167-1.379,20.02-2.26,15.757,6.061"/>
<path fill="none" stroke="#000000" stroke-width="1.5" stroke-linecap="round" stroke-linejoin="round" stroke-miterlimit="10" d="
	M111.5,216.924c16.364-7.273,18.103-9.614,24.243-17.576c4.429-5.744,3.922-8.889,8.514-14.211
	c-0.443-3.465,1.508-7.62,1.183-10.118c0,0.635-0.003,1.27,0,1.905"/>
<path fill="none" stroke="#000000" stroke-width="1.5" stroke-linecap="round" stroke-linejoin="round" stroke-miterlimit="10" d="
	M158.167,167.227c-2.117,11.177-9.113,12.571-15.152,19.394"/>
<path fill="none" stroke="#000000" stroke-width="1.5" stroke-linecap="round" stroke-linejoin="round" stroke-miterlimit="10" d="
	M131.5,229.651c1.818-13.333,4.883-18.827,0.607-26.061"/>
<path fill="none" stroke="#000000" stroke-width="1.5" stroke-linecap="round" stroke-linejoin="round" stroke-miterlimit="10" d="
	M19.379,364.197c3.123-3.815,3.46-1.78,6.788-5.322c7.316-7.789,16.987-9.827,27.152-9.829c4.998-0.001,9.593-4.559,14.545-4.849
	c4.593-10.239,5.223-15.56,11.515-24.849c2.835-4.186,3.819-9.17,7.092-12.998c8.06-9.427,8.929-8.577,9.878-12.457
	c1.95-7.972,0.524-13.144,4.093-21.212c3.063-6.927,12.125-12.346,16.95-18.163c-0.876,1.091-1.941,1.96-2.861,3.011"/>
<path fill="none" stroke="#000000" stroke-width="1.5" stroke-linecap="round" stroke-linejoin="round" stroke-miterlimit="10" d="
	M175.743,247.833c1.968-4.764,3.281-9.29,6.062-13.468c3.01-4.521,7.654-9.056,8.954-14.411c1.162-4.789-0.067-10.283,0.892-15.149
	c0.991-5.026,2.239-9.626,1.698-15.154c-1.054-10.766-2.466-18.523-7.304-27.878c-4.644-8.98-14.261-20.773-22.561-26.532
	c-11.296-7.838-28.545-5.93-40.621-1.481c-22.732,8.375-33.505,24.214-45.758,44.245c-3.558,5.817-4.981,11.923-7.394,18.285
	c-4.187,11.037-9.773,21.604-15.335,32.001c-11.715,21.901-23.962,44.293-45.437,57.725c-21.492,13.442-43.969,28.725-68.968,34.557
	c-7.86,1.834-16.335,3.493-24.393,4.094c-3.789,0.282-10.131-1.007-13.167,1.809c-7.793,7.225,3.064,10.107,7.742,12.404
	c9.308,4.57,8.42,18.963,6.678,27.744c-3.823,19.276-12.221,44.19-29.574,55.026c-10.768,6.724-21.714,15.697-31.397,24.313
	c11.301-3.518,20.008-12.203,30.12-18.048c8.412-4.862,17.429-9.526,26.258-13.562c13.171-6.02,21.296-5.105,35.625-7.126
	c9.834-1.387,24.243,22.424,169.528-152.708"/>
<path fill="none" stroke="#000000" stroke-width="1.5" stroke-linecap="round" stroke-linejoin="round" stroke-miterlimit="10" d="
	M66.652,383.591c-5.364,2.366-10.577,7.924-15.3,11.518c-8.498,6.467-12.094,6.552-20.334,13.345
	c-11.434,9.427-25.186,18.896-33.484,31.38c-7.765,11.683-9.688,22.305-12.126,35.744c-1.459,8.043-1.785,21.953-8.451,21.348
	c-4.243-1.818-10.18-27.001-10.91-42.425c-0.138-2.908-0.136-5.839,0.458-8.619c0.485-2.273,3.173-5.716,3.238-7.711
	c0.13-4.018-4.722-9.814-5.378-14.139c-0.92-6.064-0.744-9.264,4.713-11.383c6.863-2.666,11.877-2.684,18.334-7.239
	c13.237-9.34,24.016-23.079,30.757-37.607c1.007-2.17,1.96-4.449,3.607-6.102c10.171,9.399,34.639,19.918,47.814,15.889
	c0.211,1.383-0.319,1.955-1.118,2.972"/>
<path fill="none" stroke="#000000" stroke-width="1.5" stroke-linecap="round" stroke-linejoin="round" stroke-miterlimit="10" d="
	M-12.742,427.833c0.696-4.667,3.736-18.703,10.909-15.151"/>
<path fill="none" stroke="#000000" stroke-width="1.5" stroke-linecap="round" stroke-linejoin="round" stroke-miterlimit="10" d="
	M70.894,380.561c3.295,0.177,9.86-4.581,13.333-6.043c4.304-1.812,6.954-3.947,10.15-7.442c7.082-7.74,12.344-16.31,19.532-24.091
	c8.862-9.593,17.484-19.695,25.924-29.73c5.768-6.858,10.912-8.028,12.877-16.936c-9.176-1.858-13.743-15.602-19.999-21.363
	c-5.454-5.021-12.695-7.076-18.182-10.758"/>
<path fill="none" stroke="#000000" stroke-width="1.5" stroke-linecap="round" stroke-linejoin="round" stroke-miterlimit="10" d="
	M155.137,281.167c2.809,2.408,4.774,12.002-1.785,11.556c-5.071-0.345-2.58-11.059,1.679-12.084c0.179,0.616-0.003,1.129,0.106,1.74
	"/>
<path fill="none" stroke="#000000" stroke-width="1.5" stroke-linecap="round" stroke-linejoin="round" stroke-miterlimit="10" d="
	M187.257,121.045c9.697,1.212,17.499-8.898,21.818-12.121c12.015-8.965,4.293-10.258-3.636-16.97
	c-3.421-2.895-3.795,0.647-5.486-3.605c-2.701-6.792,0.96-6.71-7.848-7.91c-4.562-0.622-8.541-1.86-12.287-4.683
	c-3.193-2.406-5.237-7.811-7.847-9.742c-1.059-0.783-1.518-1.46-2.807-1.876c-0.141,0.56,0.084,1.244-0.089,1.756"/>
<path fill="#543E36" d="M151.503,85.401c-7.747-9.222,18.102-21.684,18.087-31.57c-0.007-5.234-3.588-10.375-8.49-12.096
	c-7.509-2.634-6.122,2.856-8.661,7.905c-5.528,10.993-17.375,17.736-25.845,26.02c-8.834,8.64-7.277,22.07,0.714,30.422
	c10.648,11.128,26.447,25.674,41.895,20.478c0,0-17.703-4.181-15.884-10.848s23.612-8.482,23.612-8.482l-15.127-7.881
	L151.503,85.401z"/>
<path fill="none" stroke="#000000" stroke-width="1.5" stroke-linecap="round" stroke-linejoin="round" stroke-miterlimit="10" d="
	M151.5,85.409c-7.719-9.246,18.167-21.629,18.182-31.515c0.008-5.234-3.557-10.386-8.454-12.121c-7.5-2.657-6.13,2.837-8.685,7.878
	c-5.561,10.977-17.428,17.684-25.923,25.942c-8.86,8.613-7.343,22.048,0.623,30.424c10.615,11.16,30.611,25.147,46.075,19.998"/>
<path fill="none" stroke="#000000" stroke-width="1.5" stroke-linecap="round" stroke-linejoin="round" stroke-miterlimit="10" d="
	M195.136,121.167c-7.879,16.97-12.41,22.197-18.182,25.455"/>
<path fill="none" stroke="#000000" stroke-width="1.5" stroke-linecap="round" stroke-linejoin="round" stroke-miterlimit="10" d="
	M187.864,168.439c9.979-4.676,16.571-18.452,23.637-26.532c7.642-8.739,17.95-14.731,27.272-21.498
	c12.744-9.25,21.738-21.102,30.772-33.818c6.363-8.958,10.951-20.542,20.137-27.243c3.014-2.199,9.477-7.499,13.256-4.892
	c1.154,0.796,0.139,4.463,2.637,5.98c2.353,1.429,8.802-0.2,11.228-0.925c3.773-1.127,12.99-4.292,10.907-8.495
	c-2.415-4.872-9.591-1.582-13.087-2.064c-0.304-3.835,0.982-14.532,7.179-13.859c9.044,0.981-5.835,9.447-7.797,10.436
	c4.777,8.982,18.027-0.412,17.496-8.62c-0.539-8.338-4.564-10.913-13.334-10.895c-7.118,0.014-19.527,11.665-33.939,20.606
	c-6.493,4.029-18.145,13.024-23.636,18.182c-3.803,3.573-17.679,14.356-21.286,17.577c4.123,5.566,12.699,11.259,15.831,16.362"/>
<path fill="none" stroke="#000000" stroke-width="1.5" stroke-linecap="round" stroke-linejoin="round" stroke-miterlimit="10" d="
	M214.531,99.955c6.353-4.17,13.939-12.727,24.774-17.574"/>
<path fill="none" stroke="#000000" stroke-width="1.5" stroke-linecap="round" stroke-linejoin="round" stroke-miterlimit="10" d="
	M178.167,154.5c-8.34,0.066-15.796-10.789-24.09-13.212c-14.338-4.19-27.566-1.722-38.805,8.38
	c-10.467,9.408-18.847,23.98-23.801,36.979c-3.701,9.713-9.302,22.118-9.667,32.702"/>
<path fill="none" stroke="#000000" stroke-width="1.5" stroke-linecap="round" stroke-linejoin="round" stroke-miterlimit="10" d="
	M-66.076,378.742c13.543-6.586,24.951-18.796,36.878-27.801c19.363-14.619,39.079-28.521,55.727-46.305
	c7.608-8.127,16.084-16.626,21.436-26.514c3.394-6.271,4.529-13.284,7.16-19.852c1.493-3.726,8.631-13.327,6.073-15.892"/>
<path fill="none" stroke="#000000" stroke-width="1.5" stroke-linecap="round" stroke-linejoin="round" stroke-miterlimit="10" d="
	M-89.106,339.954c20.714,6.581,45.685-14.313,61.818-24.848"/>
<path fill="none" stroke="#000000" stroke-width="1.5" stroke-linecap="round" stroke-linejoin="round" stroke-miterlimit="10" d="
	M-130.924,440.561c1.231-7.05,12.438-8.978,18.016-11.5c9.61-4.346,20.761-6.985,31.225-8.514
	c9.635-1.408,19.715-1.723,29.427-2.275c7.023-0.4,13.54-2.653,20.121-3.771"/>
<path fill="none" stroke="#000000" stroke-width="1.5" stroke-linecap="round" stroke-linejoin="round" stroke-miterlimit="10" d="
	M163.622,125.409c-1.708,1.01-1.648,5.905-4.243,7.879"/>
<path fill="none" stroke="#000000" stroke-width="1.5" stroke-linecap="round" stroke-linejoin="round" stroke-miterlimit="10" d="
	M163.102,113.245c-6.188-3.321-14.304,2.165-7.25,7.475c4.785,3.601,13.389,2.186,15.748-3.258"/>
<path fill="none" stroke="#000000" stroke-width="1.5" stroke-linecap="round" stroke-linejoin="round" stroke-miterlimit="10" d="
	M152.106,86.015c-0.411,4.347,18.729,20.422,24.756,21.299c-1.44,11.12-23.774-2.262-21.12,8.397"/>
<path fill="none" stroke="#000000" stroke-width="1.5" stroke-linecap="round" stroke-linejoin="round" stroke-miterlimit="10" d="
	M167.258,122.985c-0.005,2.681,1.996,4.426,4.242,5.455"/>
<path fill="none" stroke="#000000" stroke-width="1.5" stroke-linecap="round" stroke-linejoin="round" stroke-miterlimit="10" d="
	M96.349,296.318c9.301,0,18.697-2.526,26.668,2.896c3.811,2.592,6.599,5.772,9.089,9.832c1.836,2.993,3.162,9.786,6.061,10.909"/>
<path fill="none" stroke="#000000" stroke-width="1.5" stroke-linecap="round" stroke-linejoin="round" stroke-miterlimit="10" d="
	M163.016,176.318c4.767-6.23,19.295-3.647,26.667-6.061"/>
<path fill="none" stroke="#000000" stroke-width="1.5" stroke-linecap="round" stroke-linejoin="round" stroke-miterlimit="10" d="
	M163.622,176.318c1.461,3.407,1.658,9.911,2.593,14.076c1.365,6.088,2.398,12.022,3.603,18.014
	c1.849,9.195,3.523,22.113,9.562,29.729"/>
<path fill="none" stroke="#000000" stroke-width="1.5" stroke-linecap="round" stroke-linejoin="round" stroke-miterlimit="10" d="
	M158.773,190.258c-0.924,5.272,5.877,15.501,10.303,18.182"/>
<path fill="none" stroke="#000000" stroke-width="1.5" stroke-linecap="round" stroke-linejoin="round" stroke-miterlimit="10" d="
	M159.984,281.167c3.555,9.569-1.166,12.753-8.485,15.757"/>
<path fill="none" stroke="#000000" stroke-width="1.5" stroke-linecap="round" stroke-linejoin="round" stroke-miterlimit="10" d="
	M153.5,276.318c-8.318-0.165-9.063,15.355-3.636,19.394"/>
</svg>
