<?xml version="1.0" encoding="utf-8"?>
<!-- Generator: Adobe Illustrator 16.0.0, SVG Export Plug-In . SVG Version: 6.00 Build 0)  -->
<!DOCTYPE svg PUBLIC "-//W3C//DTD SVG 1.1//EN" "http://www.w3.org/Graphics/SVG/1.1/DTD/svg11.dtd">
<svg version="1.1" id="Layer_3" xmlns="http://www.w3.org/2000/svg" xmlns:xlink="http://www.w3.org/1999/xlink" x="0px" y="0px"
	 width="400px" height="800px" viewBox="0 0 400 800" enable-background="new 0 0 400 800" xml:space="preserve">
<g id="Layer_4">
	<path fill="#A5764C" d="M192.295,220.445c-0.368-3.593-0.823-7.184-1.129-10.778c-0.08-0.938-0.876-1.472-1.634-1.453
		c-0.139-0.538-0.278-1.076-0.42-1.613c-0.078-0.295-0.226-0.515-0.405-0.686c0.542-0.028,1.084-0.048,1.626-0.082
		c1.607-0.101,2.142-2.598,0.399-2.946c-1.114-0.223-2.228-0.446-3.342-0.668c-1.102-0.287-2.219-0.477-3.336-0.667
		c-1.107-0.221-2.214-0.443-3.321-0.664c-0.709-0.142-1.266,0.166-1.582,0.631c-6.037-0.258-12.083-0.048-18.15-0.018
		c-0.517,0.002-0.912,0.251-1.163,0.603c-5.621,0.08-11.249-0.016-16.837,0.731c-0.143,0.019-0.271,0.055-0.393,0.099
		c-0.313-0.035-0.627-0.062-0.94-0.099c-0.646-0.064-1.067,0.227-1.276,0.647c-1.614-0.175-2.104,2.321-0.456,2.965
		c0.289,0.113,0.583,0.202,0.874,0.309c-0.036,0.211-0.019,0.44,0.073,0.683c-0.082,0.431,0.019,0.899,0.392,1.289
		c0.474,0.494,0.939,0.987,1.405,1.474c1.087,1.518,2.261,2.946,3.539,4.295c0.022,0.303,0.133,0.612,0.389,0.897
		c0.183,0.204,0.368,0.405,0.552,0.608c0.127,0.298,0.27,0.59,0.404,0.885c-0.032,0.17-0.038,0.342-0.008,0.512
		c0.02,0.114,0.046,0.226,0.066,0.339c-0.125,0.229-0.186,0.479-0.161,0.734c-0.566,0.45-0.866,1.27-0.421,1.951
		c0.375,0.572,0.765,1.131,1.159,1.687c0.043,0.104,0.099,0.208,0.174,0.313c0.232,0.323,0.467,0.646,0.7,0.968
		c0.983,2.916,2.3,5.7,3.967,8.365c0.291,0.465,0.787,0.685,1.282,0.695c0.197,0.211,0.402,0.414,0.61,0.612
		c0.043,0.561,0.357,1.117,1.004,1.382c0.586,0.241,1.176,0.448,1.765,0.672c0.746,0.418,1.551,0.762,2.396,1.056
		c0.229,0.15,0.493,0.232,0.763,0.25c0.678,0.199,1.39,0.352,2.127,0.473c1.386,0.395,2.792,0.727,4.212,1.023
		c0.173,0.233,0.416,0.423,0.737,0.526c3.201,1.024,6.431,1.853,9.702,2.438c2.039,0.692,4.148,1.207,6.298,1.562
		c0.602,0.099,1.073-0.094,1.394-0.415c0.523,0.066,1.069,0.013,1.602-0.119c0.31,0.188,0.659,0.321,1.077,0.345
		c0.298,0.237,0.594,0.478,0.902,0.705c1.034,0.76,2.275-0.317,2.242-1.401c0.04-0.029,0.078-0.058,0.114-0.09
		c0.199-0.135,0.371-0.304,0.474-0.52c0.885,0.408,2.036-0.011,2.094-1.284C194.132,233.193,193.46,226.783,192.295,220.445z"/>
	<path fill="#A5764C" d="M265.667,432.834c-7.364,0.1-16.728,0.715-23.53,4.198c-2.684,0.151-5.382,0.207-8.078,0.183
		c-0.088-0.064-0.188-0.125-0.302-0.176c-2.139-0.955-4.377-1.238-6.69-1.461c-2.084-0.201-5.475,0.058-7.006-1.639
		c-1.299-1.439-3.414,0.688-2.121,2.12c0.025,0.027,0.055,0.049,0.08,0.075c-2.961-0.359-5.881-0.793-8.729-1.3
		c-12.932-2.301-27.448-8.712-40.69-5.282c-1.872,0.484-1.077,3.378,0.798,2.894c13.732-3.558,29.174,3.949,42.731,5.864
		c9.226,1.305,18.922,2.082,28.515,1.728c0.422,0.456,1.086,0.67,1.779,0.257c0.217-0.129,0.446-0.245,0.67-0.366
		c7.867-0.457,15.633-1.72,22.973-4.147C267.637,435.261,267.415,432.811,265.667,432.834z"/>
	<path fill="#8E633F" d="M195.629,228.243c-1.353-2.619-2.907-5.149-4.396-7.707c1.324-0.107,1.72-2.377,0.166-2.982
		c-0.1-0.039-0.199-0.083-0.299-0.123c-0.037-0.278-0.151-0.561-0.373-0.825c-0.363-0.434-0.729-0.866-1.094-1.298
		c-0.018-0.089-0.034-0.178-0.051-0.267c0.642,0.529,1.225,1.084,1.691,1.686c1.183,1.528,3.29-0.612,2.121-2.121
		c-0.429-0.555-0.955-1.051-1.535-1.505c0.015-0.266-0.052-0.557-0.23-0.858c-0.729-1.233-1.45-2.448-2.205-3.632
		c0.346-0.428,0.48-1.055,0.205-1.701c-0.23-0.541-0.436-1.09-0.635-1.641c1.164-0.286,1.799-1.966,0.464-2.716
		c-0.705-0.396-1.422-0.783-2.064-1.28c-1.359-1.053-2.986,0.183-2.372,1.757c-0.764-0.379-1.58-0.025-1.962,0.593
		c-0.333-0.339-0.663-0.68-1-1.017c-0.514-0.516-1.208-0.511-1.751-0.223c-3.701-0.954-7.484-1.212-11.29-1.29
		c-0.185-0.517-0.635-0.927-1.353-0.926c-0.286,0-0.57,0.009-0.855,0.012c-0.218-0.058-0.448-0.05-0.672,0.009
		c-1.581,0.02-3.156,0.061-4.725,0.167c-1.305-0.228-2.52-0.295-3.52-0.107c-0.192-0.047-0.4-0.062-0.627-0.027
		c-0.557,0.086-1.078,0.259-1.585,0.465c-1.56,0.071-3.12,0.13-4.682,0.148c-0.909,0.011-1.385,0.68-1.44,1.383
		c-2.11,0.07-4.2,0.246-6.292,0.67c-0.964,0.196-1.306,1.331-0.933,2.126c-0.004,0.008-0.009,0.016-0.013,0.024
		c-1.206-0.541-2.867,0.717-1.951,2.054c1.724,2.514,3.24,5.158,4.68,7.849c-0.06,0.332-0.115,0.664-0.164,0.995
		c-0.158,1.073,0.529,1.753,1.296,1.837c0.05,0.574,0.437,1.029,0.925,1.247c0.759,1.592,1.553,3.167,2.398,4.717
		c0.014,0.427,0.196,0.764,0.466,1.001c0.001,1.859,0.062,3.724,0.194,5.598c0.061,0.871,0.846,1.417,1.595,1.459
		c0.131,0.76,0.277,1.518,0.458,2.273c0.329,1.374,2.653,1.496,2.893,0c0.02-0.124,0.038-0.248,0.056-0.372
		c1.919,1.363,4.061,2.227,6.308,2.852c5.923,2.852,11.915,5.348,18.458,6.567c0.743,0.139,1.296-0.162,1.596-0.62
		c1.691,0.42,3.384,0.839,5.071,1.286c0.909,0.241,1.542-0.275,1.758-0.944c1.012-0.06,2.028-0.188,3.04-0.39
		c1.091-0.217,1.283-1.221,0.904-1.989c0.708-0.068,1.423-0.617,1.531-1.457c0.057-0.438,0.091-0.859,0.114-1.27
		c0.815-0.121,1.518-0.798,1.165-1.796c-0.206-0.581-0.397-1.167-0.593-1.75c0.477-0.312,0.783-0.868,0.593-1.583
		c-0.189-0.712-0.407-1.414-0.621-2.118C195.385,230.302,196.181,229.312,195.629,228.243z M147.139,209.007
		c-0.326-0.654-0.662-1.303-1.005-1.947c0.66,0.245,1.324,0.471,1.995,0.673C147.765,208.113,147.435,208.54,147.139,209.007z
		 M177.122,218.65c-0.004-0.017-0.004-0.032-0.009-0.049c-0.13-0.439-0.244-0.879-0.365-1.32c0.701,0.493,1.366,0.941,1.964,1.337
		c-0.25,0.24-0.429,0.556-0.479,0.913C177.858,219.243,177.491,218.946,177.122,218.65z M177.64,205.443
		c0.05,0.216,0.142,0.424,0.293,0.608c-0.414-0.099-0.825-0.203-1.237-0.304c-0.541-0.216-1.081-0.432-1.623-0.643
		C175.929,205.212,176.784,205.329,177.64,205.443z M171.107,230.453c-0.896,0.286-1.776,0.595-2.636,0.906
		c-0.117-0.096-0.235-0.189-0.352-0.286c0.311,0.06,0.645,0.037,0.971-0.111c0.96-0.437,1.863-0.94,2.744-1.471
		C171.583,229.803,171.339,230.122,171.107,230.453z M171.288,224.65c-1.141,0.462-3.158,1.552-4.629,1.612
		c-1.471-5.37-3.551-10.493-5.799-15.562c1.869,2.112,3.929,4.059,6.022,5.981c1.374,2.074,2.802,4.112,4.392,6.046
		c0.262,0.318,0.569,0.464,0.876,0.49c0.035,0.342,0.076,0.683,0.131,1.018C171.949,224.372,171.62,224.516,171.288,224.65z
		 M175.124,232.915c-0.024-0.156-0.066-0.31-0.132-0.456c0.425-0.091,0.851-0.172,1.276-0.233c0.233,0.247,0.472,0.49,0.722,0.724
		C176.373,232.972,175.751,232.959,175.124,232.915z M177.565,237.583c-0.05-0.09-0.129-0.165-0.199-0.246
		c0.506,0.024,1.015,0.019,1.526-0.005c0.13,0.253,0.252,0.509,0.395,0.757C178.713,237.922,178.139,237.753,177.565,237.583z
		 M186.952,221.077c-0.1-0.189-0.2-0.379-0.293-0.543c-0.457-0.809-0.901-1.624-1.342-2.44c0.512,0.249,1.021,0.505,1.538,0.743
		c0.246,0.458,0.497,0.915,0.751,1.369c0.012,0.056,0.026,0.112,0.039,0.167C187.344,220.521,187.092,220.759,186.952,221.077z"/>
	<path fill="#8E8E8E" d="M295.441,268.813c-0.537-9.234-2.023-18.446-4.078-27.406c-1.611-7.026-3.764-13.975-6.635-20.59
		c0.203-0.377,0.297-0.831,0.199-1.349c-0.269-1.443-0.763-2.794-1.412-4.066c-0.195-0.978-0.393-1.956-0.588-2.934
		c-0.199-1.002-0.928-1.431-1.701-1.436c-0.168-0.346-0.328-0.696-0.5-1.042c-0.19-0.382-0.447-0.635-0.732-0.798
		c-0.369-0.428-0.902-0.711-1.494-0.693c-0.086,0.003-0.175,0.017-0.264,0.027c-0.17-0.265-0.334-0.533-0.508-0.796
		c-7.088-13.867-18.148-27.009-32.834-28.45c-1.283-0.868-2.582-1.716-3.894-2.543c-0.244-0.164-0.492-0.319-0.744-0.468
		c-0.323-0.2-0.64-0.414-0.968-0.609l-0.027,0.064c-0.558-0.286-1.145-0.556-1.772-0.823c-0.161-2.292-0.996-4.099-2.218-5.421
		c-0.453-3.916-0.863-7.81-1.457-11.558c-1.408-8.913-3.945-17.596-8.265-25.429c-0.245-2.199-0.405-4.41-0.442-6.637
		c-0.039-2.335-0.672-4.383-1.719-6.163c0.185-2.455-0.428-4.782-2.762-6.424c-3.041-2.141-7.332-1.811-10.617-3.497
		c-1.104-0.566-2.14-0.056-2.666,0.752c-2.603-0.395-5.26-0.605-7.799-1.117c-5.306-1.068-10.52-2.963-15.799-4.216
		c-10.379-2.463-20.932-4.059-31.5-5.449c-2.13-0.28-4.259-0.344-6.356-0.199c-2.327-2.556-6.36-3.565-9.776-1.339
		c-1.042,1.321-2.088,2.639-3.117,3.969c-1.441,0.617-2.698,1.644-3.474,3.042c-3.855,6.949-19.688,22.611-22.762,35.055
		c-0.009-0.021-0.024-0.037-0.032-0.058c-0.853,1.374-1.697,2.754-2.54,4.135c-0.044,0.421-0.061,0.858-0.023,1.32
		c0.002,0.028,0.007,0.055,0.009,0.083c-0.748,1.439-0.984,3.214-0.408,5.244c0.445,1.568,0.853,3.145,1.233,4.727
		c0.035,0.42,0.073,0.843,0.142,1.273c0.113,0.706,0.319,1.315,0.579,1.875c0.218,1.018,0.42,2.039,0.613,3.062
		c0.285,1.721,0.577,3.442,0.872,5.162c1.242,8.34,1.723,16.792,1.645,25.242c-0.176,1.545-0.315,3.092-0.412,4.643
		c-0.489,4.217-0.881,8.434-0.938,12.69c-0.016,1.218,0.21,2.288,0.621,3.206c-0.276,0.829-0.33,1.748-0.128,2.657
		c1.025,4.605,4.253,8.516,8.401,10.689c0.941,0.493,1.978,0.647,2.96,0.507c6.271,6.405,13.576,11.587,21.354,16.078
		c6.776,3.913,14.149,7.679,21.615,10.545c-0.698,1.174-1.126,2.612-1.158,4.317c-0.022,1.195,0.001,2.381,0.043,3.563
		c-1.02,1.318-1.579,3.028-1.376,5.104c0.292,2.981,0.75,5.912,1.345,8.802c0.06,1.168,0.309,2.206,0.701,3.121
		c1.208,4.872,2.877,9.606,5.049,14.198c1.97,7.299,4.013,14.599,5.355,22.067c1.482,8.245,2.006,19.092-1.569,26.873
		c-0.531,1.155-1.094,2.266-1.666,3.362c0.548,0.484,0.841,1.272,0.425,2.105c-2.184,4.373-4.938,8.458-7.788,12.493
		c-0.307,0.834-0.592,1.682-0.84,2.554c-0.943,0.903-1.81,1.889-2.638,2.913c-3.414,6.741-7.016,13.395-10.362,20.176
		c0.205,1.228,0.42,2.454,0.643,3.677c0.276,0.194,0.51,0.479,0.657,0.873c2.208,5.896,5.327,11.508,6.844,17.613
		c0.285,0.192,0.521,0.481,0.656,0.887c0.234,0.702,0.473,1.399,0.711,2.101c1.07,1.562,2.197,3.067,3.384,4.49
		c0.012,0.021,0.021,0.045,0.033,0.065c0.247,0.44,0.524,0.846,0.806,1.245c0.038,0.187,0.063,0.373,0.113,0.561
		c0.579,2.105,1.81,3.456,3.432,4.717c-0.563,2.937,0.311,6.026,3.423,7.585c6.956,3.485,15.599,4.604,23.386,2.947
		c7.129,3.598,15.687,4.82,23.441,2.862c2.715-0.045,5.425-0.188,8.132-0.4c1.24,0.672,2.661,1.105,4.16,1.281
		c10.057,1.182,20.146,0.08,30.041-1.856c1.237,0.275,2.491,0.462,3.699,0.888c5.088,1.794,9.463-2.03,10.441-6.583
		c3.783-1.461,7.465-3.028,10.44-6.163c1.56-1.645,2.588-3.508,3.208-5.484c-0.328-1.074-0.639-2.15-0.926-3.232
		c-0.646-0.185-1.208-0.707-1.279-1.566c-0.191-2.299-0.367-4.598-0.523-6.896c-0.438-2.676-0.765-5.375-0.977-8.104
		c-0.011-0.135,0.001-0.259,0.023-0.377c-0.971-1.921-2.022-3.806-3.1-5.658c-0.095-0.692-0.186-1.385-0.277-2.077
		c0.024-0.121,0.055-0.264,0.091-0.461c0.172-0.928,0.218-1.856,0.151-2.76c1.631-6.598,3.621-13.106,5.069-19.753
		c1.294-5.943,2.679-12.706,0.991-18.594c3.717-4.232,7.545-8.392,10.753-13.002C309.356,313.898,301.805,289.994,295.441,268.813z
		 M196.783,279.315c-0.556-4.395-1.271-8.781-2.145-13.189c-0.987-4.977-2.33-8.912-5.014-11.48
		c0.381-0.911,0.208-2.015-0.524-2.747c-0.333-0.333-0.667-0.667-1-1c-0.963-0.963-2.572-0.963-3.535,0
		c-0.252,0.252-0.435,0.55-0.555,0.867c-1.171-0.268-2.458-0.439-3.914-0.48c-1.866-0.054-3.591-0.119-5.263-0.247
		c-2.123-1.501-4.937-1.939-7.46-1.316c-1.143-0.345-2.303-0.755-3.515-1.288c-4.966-2.183-9.918-4.347-14.764-6.791
		c-9.548-4.815-18.565-10.716-26.069-18.334c0.391-1.85-0.344-3.948-2.089-4.862c-0.194-0.102-0.364-0.205-0.542-0.308
		c0.356-0.181,0.709-0.399,1.057-0.664c8.353-6.356,16.047-13.887,26.57-16.299c11.279-2.585,23.378-0.015,34.787,0.126
		c1.852,0.023,3.693,0.006,5.355,0.125c0.819,3.283,1.94,6.461,3.433,9.261c0.92,8.776,2.076,17.525,3.615,26.211
		c-0.12,0.688-0.232,1.377-0.327,2.069c-0.61,3.556-0.821,7.024-0.689,10.477c-0.022,1.41-0.028,2.818-0.029,4.221
		c-0.001,1.197,0.292,2.265,0.784,3.196c0.256,1.621,0.554,3.248,0.914,4.898C197.224,267.996,198.021,273.4,196.783,279.315z"/>
	<path fill="#243C60" d="M152.929,233.802c-2.075-6.305-5.355-12.077-8.065-18.099c-0.297-0.686-0.6-1.37-0.883-2.062
		c-0.057-0.136-0.116-0.271-0.172-0.408c-0.391-0.968-0.749-1.953-1.107-2.937c2.332,0.335,3.253-3.286,0.832-3.892
		c-0.924-0.231-1.713-0.521-2.667-0.667c-0.956-0.146-1.698,0.104-2.259,0.919c-0.101,0.147-0.18,0.306-0.27,0.459
		c-4.919,1.575-9.364,4.003-13.679,6.823c-0.887,0.58-1.073,1.635-0.777,2.482c-0.922-0.046-1.696,0.51-2.035,1.238
		c-0.541-0.193-1.089-0.377-1.646-0.588c-2.227-0.84-3.332,2.465-1.541,3.656c5.188,3.449,9.614,8.036,14.362,12.046
		c4.017,3.392,8.727,7.412,14.115,8.156c1.366,0.188,2.396-0.517,2.532-1.929c0.105-1.093,0.092-2.152,0-3.189
		C151.009,236.998,153.579,235.78,152.929,233.802z M127.667,222.333c0.224,0.017,0.424-0.011,0.611-0.058
		c0.52,0.851,1.065,1.678,1.635,2.483c-0.932-0.834-1.866-1.666-2.811-2.485C127.29,222.293,127.478,222.319,127.667,222.333z"/>
	<path fill="#232323" d="M199.394,269.324c-0.278-0.516-0.579-1.015-0.878-1.515c-0.385-1.303-0.93-2.559-1.56-3.776
		c-2.17-5.83-4.511-10.81-2.027-17.168c0.375-0.96-0.009-1.688-0.662-2.079c-0.083-0.544-0.366-0.982-0.75-1.284
		c-0.083-1.377-1.446-2.612-2.859-1.563c-0.777,0.75-1.729,1.127-2.856,1.132c-0.733,0.111-1.169,0.427-1.344,1.016
		c-0.264,0.027-0.526-0.088-0.791-0.088h-1.726c-0.192,0-0.385,0.061-0.578,0.007c-0.291-0.604-0.855-1.006-1.697-1.09
		c-1.607-0.16-3.198-0.32-4.776-0.561c-3.222-0.879-6.437-1.752-9.626-2.729c-5.179-2.132-10.371-4.221-15.592-6.248
		c-0.042-0.234-0.126-0.476-0.278-0.722c-0.181-0.293-0.356-0.587-0.535-0.881c0.179-0.381,0.231-0.827,0.07-1.309
		c-0.168-0.504-0.339-1.006-0.51-1.509c0.427-0.493,0.664-1.161,0.51-1.824c-1.111-4.775-3.223-9.158-5.355-13.537
		c0.109-0.33,0.135-0.707,0.022-1.129c-0.681-2.56-1.501-4.873-2.869-7.145c-0.735-1.221-2.915-1.305-3.509,0.043
		c-0.207,0.102-0.391,0.234-0.541,0.398c-0.52,0.07-1.027,0.342-1.404,0.893c-0.405,0.592-0.82,1.166-1.241,1.729
		c-4.7,0.359-9.072,4.314-12.708,6.886c-0.027,0.02-0.048,0.043-0.074,0.064c-1.272,0.696-2.57,1.35-3.926,1.936
		c-1.787,0.772-0.907,3.104,0.478,3.656c0.221,0.088,0.441,0.168,0.662,0.254c0.151,0.347,0.424,0.659,0.861,0.877
		c2.207,1.104,4.413,2.207,6.62,3.31c0.084,0.128,0.185,0.255,0.309,0.377c6.046,5.96,12.745,11.644,20.816,14.511
		c0.003,0.001,0.006,0.002,0.009,0.003c0.533,0.189,1.076,0.36,1.621,0.526c5.113,2.798,10.417,5.206,15.739,7.605
		c0.474,0.302,0.949,0.601,1.418,0.914c0.159,0.307,0.416,0.574,0.802,0.753c1.924,0.896,3.96,1.465,5.988,1.6
		c0.239,0.174,0.533,0.283,0.868,0.314c0.943,0.47,1.981,0.783,2.954,0.955c1.037,0.184,1.817-0.261,2.2-0.929h3.666
		c0.611,0,1.087-0.419,1.419-0.792c0.74-0.127,1.48-0.42,2.223-0.704c0.019,0.14,0.043,0.279,0.063,0.418
		c-0.101,0.293-0.21,0.583-0.301,0.88c-0.305,0.995,0.137,1.768,0.829,2.165c0.014,0.068,0.024,0.136,0.039,0.204
		c0.047,1.408,0.181,2.821,0.401,4.25c-0.001,0.18-0.003,0.359-0.004,0.54c0,0.014-0.003,0.026-0.003,0.041v1.333
		c0,0.83,0.415,1.388,0.976,1.685c1.471,4.057,2.896,8.129,4.374,12.184c-0.003,0.045-0.015,0.085-0.016,0.132
		c-0.022,0.947-0.082,1.88-0.169,2.805c-0.27,0.304-0.462,0.694-0.498,1.195c-0.116,1.664-0.393,3.299-0.567,4.952
		c-0.209,0.839-0.435,1.677-0.695,2.517c-0.775,2.505,2.958,3.426,3.857,1.063c1.316-3.458,2.265-6.871,2.59-10.31
		c0.176-0.344,0.234-0.764,0.114-1.25c0.141-1.227,0.208-2.461,0.167-3.707C199.651,271.037,199.869,270.205,199.394,269.324z"/>
	<path fill="#6D482D" d="M192.283,240.465c-0.014-0.013-0.027-0.027-0.042-0.04c-0.571-0.494-1.158-0.708-1.908-0.759
		c-0.334-0.023-0.647,0.068-0.927,0.224c-0.224-0.417-0.617-0.735-1.208-0.819c-6.013-0.861-11.766-2.312-16.987-5.522
		c-5.093-3.132-7.501-7.939-9.481-13.229c-0.41-2.053-0.911-4.049-1.578-5.957c0.286-0.69,0.237-1.506-0.405-2.11
		c-0.235-0.221-0.479-0.432-0.72-0.647c-0.414-0.878-0.867-1.737-1.387-2.562c0.04-0.513-0.114-1.037-0.56-1.457
		c-0.21-0.198-0.431-0.382-0.645-0.575c6.92,0.804,14.086-0.03,20.699,2.585c0.329,0.13,0.625,0.166,0.892,0.142
		c1.943,0.469,3.859,0.415,5.577-0.329c1.938-0.495,3.693-1.548,5.123-3.399c0.587-0.76,0.472-1.513,0.018-2.054
		c0.527-1.232-0.111-3.11-1.745-2.955c-1.907,0.181-3.851,0.403-5.804,0.576c-0.232-0.256-0.558-0.444-0.998-0.505
		c-4.974-0.688-9.873-1.148-14.755-1.091c-0.034-0.015-0.068-0.026-0.101-0.041c-0.699-0.309-1.368-0.212-1.903,0.095
		c-3.876,0.164-7.746,0.677-11.638,1.703c-0.446,0.118-0.774,0.341-1.005,0.62c-0.63-0.173-1.249,0.043-1.709,0.46
		c-0.138-0.07-0.272-0.142-0.411-0.211c-1.081-0.543-2.11-0.119-2.626,0.652c-0.133,0.07-0.252,0.157-0.368,0.251
		c-1.372-1.346-3.792,0.207-3.206,2.15c-0.21,0.554-0.211,1.18,0.13,1.684c0.902,1.331,1.718,2.705,2.488,4.102
		c1.028,2.319,2.052,4.637,3.177,6.908c1.194,3.007,2.361,6.029,3.668,8.99c0.059,0.133,0.129,0.25,0.209,0.354
		c0.574,1.441,1.177,2.875,1.791,4.312c0.3,0.704,0.885,1,1.503,1.005c0.166,0.332,0.332,0.663,0.497,0.995
		c0.733,1.465,2.38,1.178,3.195,0.188c2.59,2.262,7.825,3.452,10.163,4.275c5.775,2.035,12.184,4.331,18.369,4.528
		c0.38,0.012,0.708-0.092,0.985-0.264c0.248,0.375,0.625,0.648,1.065,0.8c0.014,0.013,0.027,0.027,0.042,0.039
		c0.57,0.494,1.158,0.708,1.908,0.759c1.089,0.074,2-0.966,2-2C193.667,241.415,193.076,240.738,192.283,240.465z M161.595,231.135
		c-0.031-0.107-0.075-0.2-0.117-0.293c0.25-0.089,0.482-0.224,0.691-0.398c0.328,0.467,0.673,0.916,1.031,1.351
		C162.306,231.41,161.587,231.106,161.595,231.135z"/>
	<path fill="#636363" d="M289.531,315.071c-1.448-0.24-2.893-0.469-4.332-0.683C284.895,314.15,284.496,314,284,314
		c-0.537,0-1.074-0.004-1.611-0.006c-7.719-1.015-15.348-1.402-23.035,0.047c0.271-0.411,0.396-0.94,0.242-1.571
		c-0.179-0.74-0.375-1.475-0.562-2.213c0.938,0.296,1.987-0.277,2.388-1.215c1.075,0.095,2.152-0.894,2.205-2.04
		c0.376-0.005,0.756-0.106,1.051-0.275c0.848-0.484,1.344-0.89,1.586-1.862c0.334-1.331-0.623-2.434-1.929-2.532
		c-0.301-0.022-0.593-0.03-0.882-0.033c-1.855-1.564-3.49-3.376-4.962-5.333c-2.47-4.593-4.878-9.215-7.124-13.908
		c-5.688-14.785-10.637-29.834-14.438-45.258c-0.164-0.66-0.535-1.068-0.986-1.275c-0.131-2.466-0.215-4.924-0.252-7.37
		c0.76-2.78,1.607-5.546,2.572-8.291c0.17-0.482,0.118-0.925-0.061-1.304c0.412-1.856-1.653-3.473-3.283-1.975
		c-0.99,0.911-1.896,1.875-2.757,2.862c-1.063-0.117-2.325,0.512-2.496,1.885c-0.063,0.521-0.118,1.042-0.179,1.562
		c-4.137,6.087-6.32,13.232-7.15,20.73c-0.704-6.906-0.732-13.866,0.115-20.754c3.089-13.685,9.613-26.247,21.295-35.458
		c0.339-0.268,0.527-0.569,0.619-0.878c1.328-0.354,2.703-0.552,4.133-0.536c0.859,0,1.427-0.445,1.713-1.034
		c2.338-0.363,2.294-4.095-0.213-3.966c-0.971,0.05-1.92,0.172-2.854,0.357c-0.069,0.013-0.142,0.022-0.211,0.035
		c0-1.366-1.381-2.678-2.945-1.786c-2.303,1.312-4.528,2.717-6.667,4.219c0.364-0.358,0.729-0.716,1.091-1.078
		c0.766-0.763,0.742-1.651,0.324-2.321c1.423-0.841,1.061-3.628-1.071-3.76c-0.151-0.009-0.293,0-0.442-0.006
		c0.672-1.156-0.084-3.167-1.725-3.16c-0.768,0.003-1.523,0.02-2.277,0.047c-0.434-0.393-1.031-0.616-1.754-0.476
		c-7.167,1.391-15.238-0.266-22.072,2.7c-6.676,2.897-8.545,9.495-9.528,16.197c-0.201,1.368-0.336,2.742-0.445,4.118
		c-1.252,7.546-1.092,15.544-1.071,22.712c0.02,6.725,0.294,13.448,0.176,20.172c-0.024,1.343,0.058,2.667,0.2,3.98
		c-0.073,0.851-0.144,1.704-0.228,2.55c-0.014,0.14,0.004,0.259,0.014,0.384c-0.003,0.04-0.013,0.076-0.014,0.116
		c-0.04,1.813,0.152,3.574,0.464,5.306c0.02,0.725,0.033,1.454,0.036,2.194c0.003,0.763,0.342,1.292,0.817,1.603
		c0.792,3.048,1.738,6.061,2.272,9.168c-0.046,0.236-0.062,0.488-0.019,0.761c0.359,2.257,0.57,4.528,0.898,6.788
		c-0.086,1.044-0.216,2.093-0.398,3.148c-0.239,1.389,0.797,2.347,1.865,2.487c-0.336,1.274-0.705,2.545-1.16,3.805
		c-2.387,6.625-6.887,12.147-9.727,18.361c-0.82,0.174-1.535,0.796-1.549,1.878c-0.011,0.852-0.06,1.698-0.1,2.545
		c-0.572,2.031-0.916,4.163-0.9,6.455c0.002,0.348,0.082,0.645,0.209,0.899c-0.005,0.037-0.01,0.074-0.015,0.11
		c-0.552-0.137-1.125-0.027-1.556,0.437c0.323-2.776,0.416-5.563,0.179-8.359c0.411-5.33,0.245-10.657,0.04-15.986
		c0.212-5.197-0.143-10.394-0.19-15.601c-0.01-1.155-0.783-1.786-1.646-1.908c-0.275-1.492-0.619-2.953-1.054-4.376
		c-0.246-0.943-0.507-1.881-0.78-2.817c0.713-0.564,1.059-1.598,0.54-2.574c-2.925-5.497-8.69-6.234-14.394-5.658
		c-0.49,0.049-0.905,0.268-1.23,0.574c-1.054-0.133-2.018-0.176-2.902-0.14c-1.54-0.402-3.092-0.761-4.669-1.029
		c-1.924-0.328-3.397,1.796-1.946,3.343c0.125,0.133,0.251,0.254,0.378,0.379c-6.665,7.917,3.211,30.971,5.107,38.739
		c0.039,0.161,0.092,0.306,0.156,0.438c0.97,3.342,2.013,6.663,3.124,9.961c1.327,7.021,2.989,13.987,4.721,20.935
		c0.025,0.1,0.062,0.188,0.097,0.276c-0.048,0.97-0.086,1.94-0.114,2.912c-1.514,4.485-3.53,8.756-5.796,12.918
		c0.405,0.486,0.575,1.172,0.216,1.891c-2.826,5.656-6.597,10.836-10.302,16.042c-3.635,7.284-7.54,14.443-11.155,21.747
		c-0.052,0.171-0.107,0.349-0.154,0.509c0.2,1.174,0.413,2.344,0.626,3.514c0.276,0.194,0.51,0.479,0.657,0.873
		c0.979,2.614,2.134,5.173,3.252,7.743c0.251,0.415,0.509,0.826,0.752,1.246c0.14,0.537,0.293,1.072,0.456,1.605
		c0.62,1.514,1.198,3.042,1.691,4.594c1.026,2.392,2.245,4.698,3.612,6.857c0.336,0.779,0.724,1.48,1.15,2.137
		c-0.021,0.09-0.048,0.176-0.059,0.271c-0.5,4.316,3.163,6.062,6.695,7.392c0.662,0.42,1.334,0.805,2.02,1.151
		c-0.083,0.011-0.164,0.017-0.247,0.028c-1.421,0.249-1.705,1.518-1.252,2.537c-0.396,0.897-0.161,2.105,0.775,2.617
		c1.125,0.616,3.417,0.39,4.442-0.714c0.229-0.094,0.454-0.19,0.678-0.289c0.116,0.718,0.567,1.406,1.357,1.705
		c5.053,1.909,10.133,2.951,15.532,3.071c1.042,0.022,1.687-0.667,1.882-1.48c0.339-0.8,0.179-1.732-0.873-2.246
		c-0.029-0.015-0.056-0.031-0.085-0.047c-0.009-0.005-0.018-0.01-0.028-0.015c-0.13-0.064-0.252-0.141-0.38-0.208
		c-0.006-0.137-0.029-0.28-0.066-0.429c0.029-0.521-0.129-1.061-0.536-1.489c-0.108-0.112-0.217-0.226-0.326-0.338
		c-0.159-0.217-0.333-0.431-0.538-0.64c-0.036-0.036-0.075-0.062-0.112-0.096c-0.225-1.793-0.61-3.592-0.986-5.395
		c2.449,7.909,8.361,18.469,18.078,14.81c0.045-0.017,0.076-0.048,0.117-0.066c1.373-0.119,2.602-1.472,1.578-2.871
		c-1.813-2.485-3.701-4.91-5.504-7.398c-0.82-1.202-1.664-2.392-2.496-3.603c-0.112-0.162-0.239-0.293-0.371-0.41
		c-1.838-4.641-3.913-9.191-5.804-13.813c-0.792-2.646-1.619-5.278-2.543-7.881c-0.102-1.114-0.172-2.22-0.165-3.304
		c1.883-4.776,4.172-9.405,6.382-14.071c0.744-1.571-0.6-3.005-1.888-3.044c-0.585-0.182-1.235-0.047-1.753,0.621
		c-6.138,7.91-11.724,16.548-11.586,26.914c0.007,0.548,0.2,0.972,0.488,1.285c-0.064,0.755-0.123,1.509-0.171,2.265
		c-1.101,2.546-2.376,5.004-3.568,7.499c-0.009-0.02-0.012-0.039-0.021-0.059c-1.038-2.162-1.927-4.365-2.706-6.598
		c-0.772-2.729-1.591-5.445-2.36-8.169c-0.573-2.431-1.052-4.885-1.473-7.355c0.597-9.895,1.986-19.688,4.052-29.338
		c1.464-3.049,3.037-6.059,4.553-9.076c7.794-15.502,14.271-32.694,15.11-50.196c2.391-8.327,8.926-15.539,11.848-23.649
		c1.767-4.902,2.465-10.06,2.757-15.289c0.307,0.891,0.629,1.772,0.979,2.642c0.084,0.412,0.17,0.823,0.252,1.235
		c0.121,0.596,0.414,0.985,0.783,1.211c4.072,9.024,10.129,17.055,15.113,25.611c2.94,5.047,5.727,10.169,8.723,15.19
		c1.336,2.238,2.621,4.514,3.722,6.865c-5.257,5.727-8.672,12.845-12.806,19.416c-0.744,1.185-0.147,2.242,0.811,2.68
		c0.105,3.173,0.107,6.343,0.033,9.512c-0.876,5.76-1.213,11.625-1.484,17.448c-1.143,0.899-2.701,1.963-3.171,2.798
		c-1.198,2.126-0.841,4.839-0.39,7.104c0.078,0.392,0.263,0.698,0.507,0.928c-0.028,0.513-0.063,1.025-0.078,1.541
		c-0.054,2.121,2.644,2.536,3.665,1.046c0.202-0.138,0.377-0.316,0.514-0.531c3.307,3.324,6.525,6.689,9.407,10.399
		c0.638,0.82,1.47,0.839,2.14,0.447c0.248,0.438,0.498,0.873,0.754,1.3c-0.164,0.581-0.024,1.226,0.606,1.752
		c0.379,0.316,0.767,0.618,1.154,0.917c0.272,0.371,0.554,0.734,0.846,1.083c0.401,0.48,0.872,0.672,1.33,0.666
		c0.224,0.279,0.446,0.559,0.67,0.834c0.558,0.684,1.248,0.793,1.856,0.571c1.959,1.159,3.988,2.211,6.048,3.242
		c0.352,0.177,0.694,0.234,1.019,0.22c1.823,0.522,3.268-1.971,1.928-3.332c-0.076-0.509-0.359-0.996-0.926-1.341
		c-1.406-0.857-3.039-1.635-4.658-2.476c-3.479-2.608-6.797-5.708-9.25-9.201c-2.396-3.876-4.43-7.981-5.674-12.127
		c-0.013-0.042-0.031-0.074-0.047-0.114c0.605-0.655,1.219-1.303,1.817-1.966c2.159-1.492,4.192-3.208,6.215-4.974
		c0.721-0.629,0.669-1.638,0.312-2.423c-0.52-1.147-0.927-2.335-1.25-3.551c-0.078-8.319-0.242-16.652,0.953-24.908
		c0.068-0.477-0.015-0.902-0.195-1.263c0.125-0.244,0.236-0.492,0.367-0.734c3.06-5.684,8.268-9.477,14.379-11.218
		c1.5-0.427,3.101-0.725,4.692-0.991c7.791-0.507,15.918-3.184,23.327-3.325c0.061-0.001,0.109-0.015,0.168-0.02
		c0.932,0.145,1.864,0.293,2.801,0.449C290.991,319.346,292.072,315.492,289.531,315.071z M180.045,423.413
		c0.667,0.182,1.399,0.053,1.89-0.486c0.127,0.314,0.275,0.621,0.443,0.919c-0.173,0.135-0.326,0.295-0.45,0.479
		c-0.687-0.211-1.389-0.369-2.101-0.502C179.894,423.682,179.972,423.549,180.045,423.413z M232.677,182.727
		c0.265-0.203,0.458-0.453,0.601-0.722c0.422-0.095,0.854-0.166,1.291-0.225c-1.5,1.272-2.973,2.564-4.402,3.887
		c-0.775,0.367-1.508,0.812-2.218,1.298C229.393,185.462,230.962,184.043,232.677,182.727z"/>
	<path fill="#636363" d="M271.031,425.571c-15.059-2.189-28.77,4.61-43.531,5.929c-2.548,0.228-2.57,4.229,0,4
		c0.176-0.016,0.352-0.042,0.527-0.06c0.132,0.105,0.279,0.206,0.463,0.285c3.408,1.499,6.849,1.139,10.46,0.611
		c4.786-0.698,8.933-1.423,13.788-1.253c6.822,0.239,15.859,0.413,19.488-6.575C272.76,427.484,272.381,425.768,271.031,425.571z
		 M252.523,430.371c-0.75,0.229-1.506,0.438-2.271,0.627c-0.201-0.008-0.402-0.016-0.604-0.021
		C250.605,430.762,251.564,430.562,252.523,430.371z M262.223,430.828c0.766-0.359,1.528-0.727,2.287-1.103
		c0.328-0.161,0.564-0.391,0.725-0.652c0.422,0.009,0.843,0.011,1.266,0.033C265.277,429.981,263.807,430.514,262.223,430.828z"/>
	<path fill="#636363" d="M281.861,397.187c-0.147-0.353-0.42-0.674-0.853-0.914c-1.071-0.595-2.224-1.013-3.411-1.267
		c2.103-3.13,3.668-6.58,3.244-9.663c-0.162-1.177-1.546-1.641-2.562-1.345c1.673-5.404,3.123-10.873,4.148-16.467
		c0.463-2.521-3.393-3.598-3.857-1.063c-2.111,11.522-6.008,22.52-10,33.5c-0.695,1.916,2.014,3.343,3.344,1.946
		c0.87-0.915,1.877-2.012,2.896-3.225c1.457,0.011,2.918,0.337,4.181,1.038c1.428,0.792,2.757-0.299,2.972-1.525
		C281.93,397.863,281.891,397.526,281.861,397.187z"/>
	<path fill="#636363" d="M140.491,96.773c-0.906,0.57-1.771,1.192-2.608,1.844c-0.767-0.687-1.995-0.923-2.796-0.031
		c-3.121,3.472-5.72,7.298-8.121,11.26c-3.098,4.483-6.121,9.02-9.138,13.562c-2.312,3.48-4.979,6.771-7.327,10.229
		c-0.859,0.247-1.558,1.057-1.442,2.225c-0.943,1.533-1.804,3.109-2.518,4.764c-0.828,0.232-1.549,0.894-1.54,1.876
		c0.003,0.347,0.013,0.693,0.02,1.041c-4.068,7.719-1.417,17.292-0.074,25.503c2.226,13.61,0.999,27.73,2.054,41.456
		c0.03,0.389,0.158,0.727,0.347,1.009c-0.284,0.964-0.61,1.909-1.042,2.801c-0.519,1.073-0.847,1.766-0.296,2.899
		c0.252,0.519,0.703,0.808,1.204,0.913c-1.089,2.191,2.155,4.005,3.514,1.887c0.001-0.002,0.003-0.004,0.004-0.007
		c0.621-0.018,1.205-0.315,1.496-0.993c0.767-1.79,1.739-3.424,2.817-4.978c1.34-1.627,2.779-3.173,4.37-4.617
		c0.131-0.119,0.236-0.243,0.325-0.37c2.378-2.221,4.843-4.357,7.175-6.63c0.8-0.78,0.737-2.04,0-2.828
		c-3.146-3.367-5.113-7.557-6.426-12.112c-0.268-1.358-0.557-2.708-0.833-4.032c-0.085-0.409-0.154-0.822-0.232-1.233
		c-0.709-10.597-0.913-21.25-2.589-31.676c0.14-1.2,0.291-2.384,0.457-3.541c1.199-8.321,4.32-16.165,7.863-23.742
		c3.989-8.532,9.181-17.879,17.356-23.023C144.687,98.857,142.681,95.395,140.491,96.773z"/>
	<path fill="#8E8E8E" d="M201.947,264.617c-2.008-4.532-5.628-10.562-4.019-15.585c0.79-2.463-3.073-3.51-3.857-1.063
		c-2.17,6.772,2.499,13.599,4.808,19.757c2.955,7.878-0.366,16.406-1.808,24.243c-0.464,2.521,3.391,3.598,3.857,1.063
		c1.221-6.628,3.355-13.194,3.08-19.998C203.893,270.167,203.104,267.226,201.947,264.617z"/>
	<path fill="#8E8E8E" d="M279,395.5c-3.371,0.417-6.168,1.849-8.622,3.807c5.916-13.054,11.489-26.317,12.122-40.807
		c0.111-2.58-3.889-2.569-4,0c-0.82,18.809-10.471,35.573-17.727,52.49c-1.006,2.344,2.438,4.384,3.453,2.02
		c0.424-0.988,0.856-1.976,1.293-2.963c0.314-0.09,0.623-0.285,0.895-0.633c2.895-3.705,6.311-8.243,11.042-9.588
		c0.515,2.859,0.542,5.744,0.544,8.674c0.002,2.579,4.002,2.579,4,0c-0.003-3.895-0.085-7.742-1.07-11.532
		C280.727,396.188,279.859,395.394,279,395.5z"/>
	<path fill="#8E8E8E" d="M272,421c-6.075,0.257-11.516,2.751-17.363,4.119c-3.351,0.784-6.934,0.826-10.33,1.473
		c-3.964,0.755-7.854,1.808-11.838,2.479c-2.539,0.429-1.459,4.282,1.062,3.856c6.738-1.139,13.254-2.859,20.066-3.603
		c6.336-0.69,11.971-4.056,18.401-4.326C274.568,424.892,274.58,420.891,272,421z"/>
	<path fill="#8E8E8E" d="M210,430.5c-4.111-0.062-6.674-5.797-8.258-8.888c-2.302-4.491-3.929-9.343-5.426-14.149
		c-1.808-5.807-3.11-13.023-2.096-19.54c1.396,1.113,3.979,0.067,3.208-1.955c-0.424-1.112,0.327-2.647,0.814-3.725
		c0.507-0.191,0.951-0.579,1.186-1.212c0.628-1.693,1.499-3.254,2-5c0.37-1.289-0.576-2.273-1.646-2.465
		c-0.716-0.619-1.811-0.814-2.697,0.019c-9.627,9.044-7.883,24.48-4.35,35.829c2.384,7.659,6.985,24.927,17.264,25.085
		C212.581,434.54,212.577,430.539,210,430.5z"/>
	<path fill="#8E8E8E" d="M183.727,366.509c1.226-2.269-2.228-4.289-3.454-2.019c-0.803,1.487-1.646,3.004-2.482,4.549
		c-0.574,0.041-1.138,0.332-1.518,0.951c-2.91,4.745-4.396,9.672-4.792,14.651c-0.338,1.764-0.52,3.55-0.48,5.358
		c0.013,0.589,0.241,1.051,0.581,1.379c0.612,5.784,2.5,11.562,5.192,17.13c1.123,2.321,4.572,0.292,3.454-2.02
		c-2.756-5.699-4.589-11.625-4.848-17.529c1.312-4.504,2.471-9.046,3.6-13.599C180.482,372.302,182.195,369.343,183.727,366.509z"/>
	<path fill="#8E8E8E" d="M206.273,282.491C199.434,296.801,193.264,311.918,193,328c-0.042,2.581,3.958,2.577,4,0
		c0.252-15.352,6.2-29.833,12.727-43.491C210.833,282.194,207.385,280.164,206.273,282.491z"/>
	<path fill="#8E8E8E" d="M252.99,187.727c2.31,1.123,4.339-2.327,2.02-3.454c-9.668-4.698-17.305,3.957-22.062,11.473
		c-5.605,8.854-10.12,19.85-11.876,30.223c-0.168,0.991,0.328,1.754,1.016,2.168c-0.178,0.439-0.354,0.879-0.516,1.332
		c-0.87,2.436,2.996,3.474,3.857,1.063c1.824-5.11,4.881-9.288,8.567-12.949c-0.293,3.193-0.22,6.471,0.049,9.711
		c-0.021,0.735-0.042,1.469-0.046,2.207c-0.003,0.504,0.15,0.906,0.395,1.213c0.326,2.692,0.752,5.325,1.178,7.819
		c0.02,0.116,0.062,0.206,0.097,0.307c1.2,12.688,8.829,25.468,15.104,35.671c1.35,2.192,4.81,0.185,3.453-2.019
		c-3.945-6.416-8.726-14.132-11.763-22.159c1.084-0.172,1.985-1.064,1.466-2.364c-1.787-4.458-3.378-9.093-4.443-13.81
		c0.066-1.218,0.207-2.429,0.443-3.627c0.24-1.224-0.547-2.101-1.476-2.396c-0.146-1.28-0.261-2.562-0.302-3.848
		c0.23-4.107,0.785-8.185,2.068-12.09c0.426-0.327,0.855-0.65,1.288-0.971c1.321-0.98,1.062-3.06-0.198-3.617
		c-0.088-0.154-0.201-0.295-0.33-0.422c0.16-1.877-2.625-3.182-3.707-1.197c-0.896,1.641-1.57,3.375-2.092,5.168
		c-3.256,2.732-6.209,5.683-8.662,9.04c1.681-5.82,4.115-11.513,6.754-16.825C236.484,196.905,243.827,183.274,252.99,187.727z"/>
	<path fill="#8E8E8E" d="M157.009,100.773c-23.399-10.658-36.057,26.712-38.926,43.545c-1.881,11.037-1.508,22.887-0.161,33.951
		c0.855,7.026,2.612,21.264,12.078,21.73c1.409,0.069,2.638-1.797,1.727-3.009c-3.381-4.499-6.04-9.319-6.727-14.991
		c-0.19-1.574-1.815-2.178-2.939-1.793c-0.305-2.527-0.458-4.743-0.579-6.058c-0.855-9.264-0.945-18.955,0.367-28.184
		c1.254-8.822,4.74-17.91,8.579-25.879c4.484-9.308,12.777-21.227,24.562-15.858C157.319,105.288,159.354,101.841,157.009,100.773z"
		/>
	<path fill="#8E8E8E" d="M237.275,319.205c-0.354-0.838-1.217-1.418-2.285-1.136c-0.122-0.076-0.28-0.173-0.48-0.296
		c-2.193-1.371-4.199,2.09-2.02,3.454c0.004,0.002,0.007,0.004,0.011,0.007c-2.207,3.55-5.069,6.652-7.228,10.257
		c-0.807,1.344,0.24,2.769,1.488,2.984c-0.447,1.242-0.849,2.512-1.148,3.845c-1.691,7.533-1.331,15.527-2.113,23.18
		c-0.264,2.565,3.74,2.54,4,0c0.716-6.997,0.611-14.123,1.768-21.067c1.197-7.189,5.143-12.889,10.146-18.019
		C241.047,320.741,239.105,318.571,237.275,319.205z"/>
	<path fill="#494949" d="M192.032,427.571c-6.368-2.67-12.658-4.067-19.532-4.571c-0.015-0.001-0.028,0.002-0.043,0.001
		c-0.253-1.005-1.361-1.562-2.353-1.406c0.525-0.709,0.627-1.708-0.19-2.509c-0.474-0.464-0.981-0.893-1.464-1.346
		c-0.231-0.217-0.445-0.447-0.652-0.686c0.025,0.012-0.227-0.326-0.227-0.324c-0.009-0.015-0.262-0.588-0.142-0.263
		c-0.257-0.698-0.794-1.229-1.463-1.403c-5.533-7.818-10.909-17.663-11.529-27.019c-0.375-5.652,3.136-11.811,5.53-16.686
		c0.262-0.534,0.53-1.065,0.8-1.597c0.356-0.136,0.69-0.378,0.96-0.754c8.986-12.538,15.2-26.233,18.644-40.552l0.043-0.043
		c0.562-0.562,0.709-1.397,0.452-2.107c2.917-13.25,3.482-27.008,1.668-40.863c1.983,5.552,3.546,11.243,4.537,17.088
		c0.073,0.432,0.261,0.758,0.516,0.991c0.062,0.162,0.11,0.319,0.186,0.487c0.807,1.783,3.922,0.933,3.727-1.009
		c-0.476-4.738-0.995-9.486-1.439-14.24c0.268-0.312,0.441-0.729,0.439-1.26c-0.024-5.764-0.282-11.521-1.507-17.07
		c-0.012-0.307-0.078-0.576-0.19-0.807c-0.705-2.949-1.688-5.837-3.076-8.632c-0.133-0.268-0.338-0.476-0.579-0.635
		c0.214-0.824,0.322-1.764,0.352-2.856c0.042-1.561-2.167-2.749-3.305-1.53c-0.67-0.547-1.691-0.641-2.609,0.116
		c-0.487,0.402-0.931,0.817-1.342,1.248c0.062-0.267,0.116-0.535,0.185-0.802c0.349-1.346-0.98-3.046-2.46-2.46
		c-0.799,0.316-1.525,0.706-2.218,1.126c-2.496,0.433-4.956,0.93-7.391,1.624c-0.037-0.11-0.074-0.22-0.132-0.331l-0.04-0.116
		c0.297-2.289-3.343-2.64-3.929-0.532c-1.083,3.898-1.628,7.106-1.484,11.37c0.168,4.958,0.712,9.83,1.991,14.626
		c1.372,5.147,3.08,10.108,4.484,15.201c-0.059,0.309-0.12,0.618-0.178,0.927c-0.188,0.994,0.301,1.757,0.987,2.168
		c0.226,0.927,0.438,1.859,0.631,2.8c1.609,7.836,2.838,15.746,4.382,23.595c0.073,0.37,0.231,0.643,0.423,0.865
		c-2.953,11.456-7.255,22.631-12.629,33.399c-4.407,8.831-11.253,18.839-10.275,29.157c0.975,10.278,7.624,21.472,13.683,29.557
		c0.315,0.421,0.715,0.662,1.135,0.773c0.53,0.549,1.105,1.068,1.678,1.631c0.539,0.527,1.16,0.652,1.726,0.529
		c-0.096,0.154-0.182,0.324-0.24,0.524c-2.481,8.469,18.044,7.594,22.397,8.46C193.558,431.943,194.367,428.551,192.032,427.571z
		 M171.345,296.866c1.039-5.38,2.196-10.739,3.786-15.97c0.046-0.002,0.093,0.001,0.139-0.004c0.257,1.219,0.523,2.435,0.801,3.64
		c0.056,0.242,0.15,0.442,0.26,0.62c0.007,6.101,0.605,12.256,1.242,18.305c-0.405,4.941-1.084,9.847-2.012,14.71
		C174.269,311.034,173.039,303.897,171.345,296.866z"/>
	<path fill="#494949" d="M245.414,432.586c-3.535-3.109-6.928-2.029-10.571-1.017c-0.538-0.076-1.071,0.086-1.497,0.396
		c-1.086,0.269-2.197,0.483-3.346,0.535c-2.568,0.115-2.58,4.116,0,4c1.479-0.066,2.878-0.355,4.273-0.74
		c2.172,1.252,4.756,1.14,7.258,0.669c0.633-0.119,1.041-0.447,1.257-0.869C244.704,436.907,247.288,434.234,245.414,432.586z"/>
	<path fill="#494949" d="M250.93,322.968c-0.146-0.431-0.304-0.854-0.453-1.282c0.051-0.607-0.162-1.114-0.521-1.481
		c-0.107-0.299-0.207-0.603-0.316-0.901c-0.515-2.006-1.465-3.901-2.41-5.813c-0.322-0.652-0.824-0.952-1.353-1.007
		c-4.618-11.049-9.627-21.905-15.158-32.55c-1.003-1.93-1.946-3.88-2.856-5.843c0.039-0.645-0.196-1.314-0.826-1.795
		c-1.283-2.898-2.45-5.844-3.439-8.874c-0.775-2.37-3.341-7.947-3.441-10.433c0.435-0.701,0.49-1.631-0.237-2.402
		c-0.457-0.484-0.981-0.755-1.66-0.749c-0.364,0.004-0.731,0.119-1.053,0.312c-0.544-10.171,1.705-21.176,3.728-29.118
		c0.637-2.501-3.222-3.562-3.856-1.063c-4.224,16.583-8.158,42.199,6.655,54.745c3.322,7.363,7.392,14.364,10.785,21.696
		c4.059,8.762,7.821,17.656,11.364,26.637c-2.631,6.389-9.394,10.543-11.95,17.18c-3.433,8.905-1.063,19.218-6.636,27.296
		c-0.248,0.109-0.487,0.288-0.705,0.564c-3.262,4.145-3.089,8.906-3.586,13.914c-0.151,1.532,1.211,2.133,2.39,1.834
		c0.112,1.721,2.381,3.256,3.537,4.148c2.359,1.821,5.008,3.354,7.159,5.432c1.854,1.791,4.688-1.034,2.828-2.828
		c-1.623-1.567-3.543-2.841-5.371-4.153c-0.954-0.685-1.914-1.366-2.837-2.094c-0.365-0.289-0.716-0.593-1.059-0.907
		c-0.037-0.033-0.051-0.046-0.08-0.074c-0.077-1.133-1.373-1.964-2.535-1.729c0.267-3.111,0.097-6.579,1.543-9.396
		c0.115-0.088,0.23-0.193,0.339-0.319c6.508-7.573,6.269-17.282,7.897-26.619c1.47-8.412,9.004-12.802,12.404-19.902
		C250.354,325.29,251.395,324.36,250.93,322.968z"/>
	<path fill="#494949" d="M226.969,179.071c-23.857,8.416-23.74,33.478-22.328,56.649c-2.035,1.002-1.875,4.073-1.641,6.391
		c0.002,4.637,0.025,9.271,0.5,13.889c0.128,1.244,1.152,1.881,2.135,1.909c-0.021,1.229-0.061,2.431-0.135,3.591
		c-0.166,2.577,3.835,2.561,4,0c1.527-23.747-11.977-67.81,18.531-78.571C230.447,182.077,229.407,178.211,226.969,179.071z"/>
	<path fill="#494949" d="M109.64,179.012c-0.959-5.854-2.086-11.677-2.848-17.562c-0.561-4.337-1.892-10.92,0.435-14.941
		c1.294-2.237-2.163-4.25-3.454-2.019c-1.895,3.275-1.721,7.406-1.543,11.055c0.289,5.924,1.369,11.836,2.371,17.671
		c2.413,14.051,4.805,29.79,0.971,43.751c-0.684,2.492,3.175,3.548,3.857,1.063C112.809,205.723,111.686,191.5,109.64,179.012z"/>
	<path fill="#494949" d="M133.509,233.273c-5.876-4.495-11.144-9.702-16.595-14.687c-0.967-0.884-2.174-0.584-2.877,0.151
		c-0.043-0.092-0.088-0.185-0.108-0.269c-0.601-2.508-4.458-1.444-3.857,1.063c0.789,3.293,6.281,6.344,8.708,8.224
		c4.073,3.155,8.231,6.405,12.711,8.971C133.797,238.048,135.496,234.793,133.509,233.273z"/>
	<path fill="#636363" d="M192.852,278.447c0.12-0.264,0.182-0.575,0.148-0.947c-0.381-4.157-0.584-8.314-2.178-12.019
		c-0.399-2.031-0.801-4.062-1.223-6.089c-0.224-1.073-0.373-2.518-0.804-3.738c0.416-1.018,0.115-2.295-1.264-2.583
		c-6.645-1.383-13.457-0.458-20-2.5c-7.227-2.254-14.104-6.284-20.915-9.541c-11.798-5.642-21.545-14.282-32.01-21.954
		c0.095-1.183,0.108-2.367,0.322-3.544c0.396-2.179-2.419-3.558-3.656-1.541c-1.204,1.963-1.725,3.706-1.773,6.009
		c-0.029,1.412,1.155,2.045,2.242,1.911c11.345,8.22,21.724,17.25,34.464,23.342c6.146,2.939,12.236,5.96,18.556,8.518
		c6.509,2.634,13.228,1.814,19.942,2.845c-0.047,0.099,0.356,0.819,0.478,1.309c0.281,1.135,0.51,2.283,0.748,3.428
		c-0.714,0.454-1.183,1.282-0.858,2.179c4.131,11.403,2.745,23.635,4.429,35.468l0,0l0,0c0.025,0.177,0.045,0.355,0.071,0.532
		c0.343,2.279,3.929,1.662,3.929-0.532C193.498,292.127,193.484,285.262,192.852,278.447z"/>
	<path fill="#494949" d="M188.449,272.43c0.009-0.151,0.007-0.305-0.02-0.462c-0.126-0.747-0.257-1.487-0.396-2.224
		c-0.219-1.208-0.488-2.412-0.808-3.612c-0.064-0.246-0.125-0.493-0.194-0.738c-0.185-0.644-0.384-1.286-0.602-1.926
		c-0.341-0.975-1.171-1.382-1.985-1.368c0.218-1.234-0.81-2.814-2.475-2.529c-0.049,0.009-0.099,0.017-0.148,0.025
		c-0.92,0.158-1.394,1.102-1.468,1.929c-0.31,3.448,2.482,8.144,4.117,11.371c0.904,6.95,0.386,14.022,0.031,21.104
		c-0.129,2.579,3.872,2.567,4,0C188.862,286.765,189.354,279.534,188.449,272.43z"/>
	<path fill="#8E8E8E" d="M182.5,197c-2.021,0.013-4.046,0.066-6.072,0.131c-0.26-0.112-0.565-0.167-0.928-0.131
		c-0.939,0.094-1.88,0.169-2.82,0.257c-8.088,0.275-16.18,0.469-24.148-1.186c-0.497-0.103-0.934-0.031-1.302,0.147
		c-1.196-0.451-2.793,0.138-2.73,1.781c0.184,4.76,8.218,4.202,11.343,4.23c5.837,0.053,11.689-0.446,17.502-1.017
		c3.051-0.094,6.103-0.194,9.154-0.213C185.079,200.983,185.08,196.983,182.5,197z"/>
	<path fill="#8E8E8E" d="M194.333,485c0.162,2.562,4.163,2.577,4,0c-0.176-2.792-0.893-5.241-2.273-7.676
		c-0.614-1.082-2.278-1.36-3.141-0.404c-7.696,8.515-8.648,21.047-8.896,31.99c-0.081,3.564,0.003,7.124,0.161,10.68
		c-1.053,25.896,4.516,52.088,9.554,77.275c0.506,2.527,4.361,1.456,3.857-1.062c-3.049-15.239-6.339-30.896-8.168-46.63
		c0.126-0.241,0.211-0.521,0.24-0.839c1.437-16.09,3.978-32.518,0.596-48.531c-0.187-0.883-0.956-1.357-1.762-1.424
		c0.685-5.857,2.204-11.562,5.36-16.188C194.116,483.053,194.268,483.951,194.333,485z"/>
	<path fill="#1A1A1A" d="M210.863,499.071c-8.422-3.06-11.62,7.558-12.5,21.529c-0.031-0.709-0.071-1.417-0.098-2.126
		c-0.463-12.019-0.79-26.695-9.185-36.223c-0.584-0.664-1.412-0.688-2.134-0.397c0.026-0.426,0.052-0.85,0.079-1.273
		c0.132-0.796,0.269-1.593,0.415-2.387c1.479-0.983,2.622-2.597,3.089-4.936c0.87-4.348,0.869-8.172,0-12.52
		c-0.458-2.29-1.672-3.896-3.247-4.882c-1.063-2.042-2.976-3.661-5.161-4.325c0.366-1.917,0.621-3.861,0.712-5.866
		c0.498-10.964-16.505-10.916-17,0c-0.115,2.536-0.795,4.958-1.574,7.357c-0.308,0.523-0.577,1.093-0.79,1.716
		c-6.844,20.097-6.785,41.463-5.104,62.387c1.702,21.173,4.012,42.06,4.346,63.326c0.17,10.871,0.01,21.747-0.231,32.616
		c-0.067,3.039-0.181,6.086-0.298,9.136c-7.196,13.986-3.729,30.37-0.372,45.025c1.84,8.031,2.5,15.149,2.117,23.425
		c-0.404,8.703-1.039,17.354,0.876,25.938c1.091,4.892,5.108,6.59,8.92,5.98c3.405-0.096,6.825-2.041,8.139-5.98
		c4.726-14.163,3.109-28.662,0.809-43.086c-0.093-1.459-0.203-2.917-0.351-4.375c-0.958-9.483-2.718-18.607-3.487-27.884
		c-0.085-6.807,0.266-13.622,0.452-20.436c0.316-11.55,0.524-23.101,0.48-34.652c-0.025-6.571-0.231-13.106-0.542-19.627
		c0.529,4.494,1.135,8.985,1.877,13.48c2.851,17.26,6.747,34.326,9.97,51.517c0.475,2.533,4.33,1.458,3.857-1.062
		c-2.876-15.34-6.229-30.586-9.004-45.944c-1.385-7.668-2.437-15.326-3.277-23.012c2.064-1.809,3.112-4.617,1.883-8.104
		c-0.131-0.371-0.239-0.745-0.362-1.117c0.387-8.97,0.333-18.021,0.326-27.082c0.472-12.591,1.297-25.171,2.099-37.751
		c0.269-0.305,0.536-0.61,0.826-0.897c7.371,9.921,6.629,25.439,7.032,37.066c0.547,15.784,2.617,31.807,5.953,47.239
		c0.484,2.236,3.951,1.696,3.929-0.531c-0.114-12.079-1.914-24.159-2.197-36.256c-0.1-4.25-1.428-34.452,7.666-31.149
		C212.23,503.812,213.27,499.944,210.863,499.071z"/>
	<path fill="#333333" d="M259.377,444.327c-10.695,6.463-25.299,2.863-37.044,2.173c-6.903-0.406-13.999-0.533-20.249-3.695
		c-6.41-3.242-12.091-6.047-19.223-5.49c-5.368-2.918-13.478-0.29-13.027,7.021c0.538,8.718-2.228,17.034-3.046,25.652
		c-0.294,3.1-0.429,6.212-0.46,9.327c-4.904,22.947,0.201,47.175,2.839,70.354c0.316,2.78,1.53,4.855,3.17,6.226
		c0.436,2.825,0.872,5.648,1.296,8.476c0.418,4.746,0.911,9.486,1.419,14.227c-9.199,14.46-7.194,33.827-4.211,50.358
		c-4.95,23.003-1.545,49.343,5.963,70.975c0.588,1.693,1.469,3.003,2.521,3.97c0.089,0.262,0.178,0.522,0.269,0.784
		c-7.084,0.419-11.147,8.216-5.938,14.33c0.744,0.872,1.404,1.817,2.068,2.764c0.188,0.285,0.387,0.569,0.603,0.851
		c0.001-0.001,0.002-0.002,0.003-0.002c0.424,0.588,0.856,1.171,1.326,1.723c1.547,1.815,3.514,2.562,5.506,2.546
		c5.165,2.034,11.23,2.122,17.134,3.303c5.134,1.024,9.916,5.329,13.86,8.567c0.773,0.636,1.544,1.271,2.314,1.907
		c0.893,1.048,1.727,2.127,2.521,3.289c0.008-0.006,0.016-0.012,0.023-0.019c0.407,0.577,0.836,1.153,1.305,1.738
		c1.672,2.084,3.854,2.828,6.022,2.654c0.994,0.69,2,1.367,3.032,2.008c1.411,0.876,2.837,1.259,4.198,1.264
		c2.489,3.199,5.938,5.765,8.868,8.619c1.043,1.017,2.197,1.49,3.332,1.569c0.074,0.06,0.146,0.119,0.22,0.18
		c0.088,0.155,0.161,0.318,0.256,0.473c0.188,0.305,0.397,0.577,0.622,0.825c1.632,0.056,3.291,0.565,4.928,1.72
		c2.477-0.361,4.699-2.275,4.699-5.321c0-1.788-0.609-3.109-1.525-4.231c0.635-1.069,0.93-2.389,0.662-3.896
		c-0.73-4.138-2.49-8.091-3.089-12.248c0.692-1.699,1.446-3.376,2.177-5.048c1.62-1.743,3.627-3.461,4.357-5.132
		c4.227-9.675-0.229-21.183-2.112-30.905c-0.323-1.676-1.286-2.78-2.509-3.383c-0.061-0.116-0.12-0.232-0.188-0.34
		c-1.196-14.083-1.701-28.248-2.699-42.322c-0.65-9.19-1.318-18.377-1.969-27.568c0.188-0.231,0.395-0.538,0.395-0.926v-3.333
		c0-0.372-0.195-0.67-0.375-0.899c-0.182-1.72-0.463-3.434-0.737-5.143c-0.627-10.55-1.044-21.11-0.894-31.692
		c0.154-10.841,0.97-21.58,3.367-32.166c2.393-10.559,5.939-20.834,9.259-31.125c5.864-18.183,10.586-36.495,9.53-55.45
		c0.627-3.302,1.242-6.604,1.713-9.931C272.842,447.035,266.432,440.065,259.377,444.327z"/>
	<path fill="#1A1A1A" d="M266.333,444.334c-11.716,1.087-23.187,4.07-34.851,5.396c-16.438-2.548-32.263-7.627-48.237-12.111
		c-0.179-0.279-0.39-0.543-0.68-0.753c-0.407-0.584-1.042-1.044-1.969-1.241c-2.503-0.531-4.8-1.365-6.95-2.642
		c0.284-0.003,0.57-0.063,0.839-0.178c0.16,0.032,0.337,0.064,0.376,0.074c0.768,0.199,1.52,0.464,2.272,0.715
		c1.035,0.346,2.183-0.389,2.46-1.396c0.301-1.093-0.364-2.115-1.397-2.46c-1.215-0.404-2.422-0.831-3.7-0.983
		c-1.147-0.137-2.552,0.438-2.761,1.714c-0.081,0.491-0.025,0.979,0.159,1.397c-1.454-0.864-3.462-0.177-4.408,1.129
		c-0.566,0.459-1.006,1.083-1.202,1.837c-0.464,0.543-0.77,1.26-0.787,2.168c-0.034,1.859-0.162,3.709-0.341,5.555
		c-0.419,2.301-0.91,4.586-1.534,6.85c-0.282,1.021-0.116,1.898,0.304,2.599c-0.408,2.772-0.812,5.546-1.095,8.332
		c-0.236,2.355,1.576,3.45,3.417,3.33c-1.599,11.82-2.187,23.68-2.326,35.558c-0.608,7.24-0.9,14.512-0.925,21.778
		c-0.003,0.897,0.454,1.472,1.057,1.743c0.121,7.642,0.264,15.285,0.276,22.924c0.001,0.759,0.338,1.286,0.811,1.598
		c0.207,3.397,0.496,6.788,0.823,10.176c-0.176,3.626-0.283,7.257-0.3,10.895c-0.006,1.191,0.846,1.826,1.764,1.916
		c1.053,8.382,2.045,16.737,1.68,25.244c-0.241,5.616-1.226,11.091-1.222,16.735c0.003,5.495,0.647,10.986,1.279,16.438
		c0.119,1.029,0.138,2.061,0.219,3.09c-0.788,0.026-1.508,0.464-1.679,1.328c-0.967,0.045-1.947,0.683-2.04,1.915
		c-0.185,2.464-0.212,4.92-0.142,7.372c-0.825,0.06-1.62,0.548-1.787,1.431c-2.597,13.74,0.481,27.487,2.667,41.062
		c0.26,1.614,1.906,1.764,2.971,1.015c0.592,1.954,1.254,3.88,1.87,5.749c0.119,0.36,0.237,0.725,0.356,1.085
		c0.539,4.226,1.057,8.452,1.513,12.687c-0.353,0.236-0.626,0.582-0.712,1.068c-0.268,1.513-0.429,3.015-0.49,4.514
		c-1.185-0.053-2.431,1.117-2.175,2.55c0.899,5.03,4.006,8.548,9.262,8.803c0.811,0.039,1.365-0.33,1.665-0.856
		c0.133,0.464,0.276,0.925,0.407,1.389c0.126,0.447,0.358,0.771,0.645,1.001c-0.439,1.308-0.875,2.62-1.311,3.937
		c-0.721,2.173,2.565,3.507,3.656,1.541c0.202-0.362,0.393-0.729,0.588-1.094c0.578,0.135,1.197,0.024,1.684-0.426
		c5.894,1.131,11.353,3.535,16.805,5.988c2.278,1.312,4.633,2.478,7.133,3.378c3.849,2.597,7.879,4.976,11.899,7.346
		c-1.214,0.651-1.731,2.611-0.179,3.524c0.433,0.254,0.88,0.476,1.32,0.714c0.156,0.233,0.377,0.446,0.68,0.619
		c3.77,2.138,7.664,3.604,11.783,4.904c4.77,1.509,7.904,4.368,10.832,8.378c0.199,0.272,0.436,0.472,0.688,0.61
		c0.451,0.037,0.902,0.106,1.355,0.221c1.303-0.21,2.392-1.507,1.41-2.851c-2.822-3.866-5.883-7.254-10.353-9.167
		c-0.492-0.211-0.985-0.407-1.479-0.602c-0.015-0.595-0.271-1.189-0.885-1.615c-0.57-0.396-1.154-0.783-1.734-1.17
		c-0.039-0.562-0.313-1.113-0.933-1.496c-9.872-6.108-19.853-12.238-28.13-20.285c-0.3-0.381-0.605-0.756-0.91-1.134
		c0.071-0.535-0.078-1.108-0.556-1.604c-2.291-2.373-4.291-4.925-6.121-7.6c-1.648-2.654-3.254-5.336-4.899-7.996
		c-0.013-0.021-0.029-0.035-0.042-0.055c0.355-0.672,0.709-1.346,1.063-2.021c0.674-0.388,1.347-0.776,2.017-1.17
		c4.904-2.329,9.928-3.677,14.91-2.981c1.774,0.767,3.522,1.59,5.257,2.45c0.241,0.171,0.479,0.347,0.727,0.513
		c0.33,0.224,0.652,0.315,0.958,0.336c1.467,0.754,2.924,1.533,4.375,2.331c1.938,1.065,4.171-1.587,2.424-3.142
		c-1.175-1.046-2.361-1.949-3.556-2.728c0.146-0.511,0.129-1.066-0.133-1.535c-1.39-2.49-3.224-4.506-5.305-6.254
		c-8.15-15.843-19.386-31.188-19.755-49.402c-0.012-0.601-0.244-1.056-0.583-1.376c0.018-0.065,0.038-0.132,0.055-0.198
		c0.747-1.163,1.46-2.352,2.16-3.55c0.505-0.842,0.997-1.69,1.473-2.548c0.492-0.861,0.983-1.723,1.478-2.575
		c0.008-0.014,0.018-0.027,0.025-0.043c1.062,1.481,2.164,2.939,3.312,4.37c0.726,0.904,1.69,0.823,2.392,0.282
		c1.121,1.771,4.349,0.712,3.619-1.562c-0.173-0.535-0.365-1.062-0.549-1.595c1.569,0.714,3.154,1.4,4.754,2.055
		c1.629,0.666,3.186-1.563,2.258-2.938c-2.609-3.87-5.334-7.654-7.85-11.573c-4.062-7.571-7.536-15.443-11.023-23.318
		c-2.393-5.402-4.882-10.705-7.72-15.89c-1.531-2.797-3.082-5.621-4.358-8.546c-0.025-0.104-0.047-0.21-0.072-0.313
		c-0.639-11.8,0.003-23.529,1.438-35.201c5.521-27.171,13.148-53.885,20.185-80.709c19.725,0.842,40.971,0.091,58.018-9.045
		c0.816-0.438,1.073-1.163,0.97-1.857C268.764,447.336,268.725,444.112,266.333,444.334z M168.044,670.457
		c-0.427-2.805-0.798-5.616-1.043-8.43c0.254,1.684,0.48,2.967,0.569,3.504c0.129,0.781,0.638,1.212,1.164,1.373
		C168.469,668.088,168.233,669.27,168.044,670.457z M206.197,625.296c0.962,1.791,1.97,3.558,3.008,5.312
		c-0.288-0.143-0.575-0.283-0.861-0.43c-0.682-1.637-1.396-3.257-2.148-4.857C206.195,625.312,206.195,625.305,206.197,625.296z
		 M174.332,441.568c0.175,0.062,0.355,0.111,0.532,0.172c-0.299,0.891-0.598,1.782-0.898,2.675
		C174.133,443.475,174.255,442.524,174.332,441.568z M171.427,449.836c0.385-0.21,0.73-0.503,1.025-0.87
		c-0.665,2.029-1.308,4.066-1.922,6.11C170.808,453.325,171.119,451.58,171.427,449.836z M175.433,691.485
		c-0.015-0.044-0.029-0.087-0.044-0.13c-0.146-1.138-0.292-2.274-0.437-3.411c0.213,0.85,0.441,1.694,0.661,2.544
		C175.552,690.82,175.489,691.152,175.433,691.485z M195.802,723.339c-0.011,0.054-0.026,0.105-0.033,0.16
		c-0.91-0.408-1.827-0.806-2.761-1.173c0.111-0.088,0.22-0.18,0.333-0.267c0.192-0.146,0.346-0.311,0.476-0.479
		C194.49,722.154,195.148,722.744,195.802,723.339z M187.738,598.885c0.519,2.537,1.052,5.07,1.64,7.589
		c-0.233,0.306-0.378,0.701-0.378,1.193V623c0,0.36,0.082,0.666,0.217,0.925c-0.674,2.582-1.009,5.297-1.208,7.904
		c-0.827,3.883-1.548,7.787-2.218,11.703c-0.018,0.091-0.037,0.181-0.055,0.271c-0.01,0.051-0.009,0.097-0.016,0.146
		c-0.219,1.285-0.436,2.568-0.65,3.854c-0.24,1.437,0.905,2.4,2.014,2.501c-0.029,0.231-0.056,0.465-0.085,0.696
		c-0.043,0.335,0.017,0.626,0.136,0.88c-0.038,5.846,1.293,11.896,2.85,17.726c1.128,6.183,1.896,12.423,3.085,18.594
		c0.09,0.468,0.296,0.812,0.568,1.047c-1.908,5.389-3.923,10.739-5.782,16.14c-0.625,0.399-1.248,0.807-1.867,1.224
		c-1.506,1.015-0.963,3.021,0.269,3.604c-0.535,1.678-1.036,3.365-1.514,5.062c-0.326,0.861-0.644,1.729-0.957,2.6
		c-0.068-0.233-0.139-0.467-0.208-0.7c0.154-0.221,0.251-0.498,0.252-0.839c0.024-8.272,0.447-16.664-0.574-24.789
		c0.372-0.425,0.549-1.019,0.335-1.741c-1.677-5.674-3.316-11.367-4.825-17.091c-1.302-5.85-2.576-11.705-3.72-17.584
		c0.584-8.182-0.713-16.649-1.667-24.64c-0.653-5.464-1.236-10.923-1.456-16.424c-0.25-6.258,0.772-12.354,1.183-18.57
		c0.704-10.647-1.172-21.307-2.487-31.831c-0.251-2.007-0.466-4.02-0.665-6.03c1.073-22.434,4.814-44.659,6.513-67.056
		c0.325,0.219,0.714,0.337,1.111,0.351c0.08,4.474,0.204,8.944,0.348,13.416c-0.087,0.663-0.177,1.326-0.263,1.99
		c-0.076,0.585,0.084,1.034,0.377,1.35c0.176,5.085,0.368,10.169,0.567,15.249c0.506,12.911,0.84,25.788,1.123,38.7
		c-0.022,0.455-0.044,0.912-0.066,1.367c-0.014,0.278,0.032,0.531,0.124,0.755c0.01,0.305,0.018,0.61,0.029,0.915
		c-0.131,0.271-0.198,0.6-0.153,0.997c0.081,0.711,0.188,1.415,0.313,2.113C180.704,578.685,183.083,588.862,187.738,598.885z"/>
	<path fill="#1A1A1A" d="M255.502,750.413c0.162-0.36,0.213-0.791,0.094-1.277c-0.781-3.148-1.525-6.308-2.271-9.466
		c0.229,0.035,0.457,0.007,0.68-0.047c-0.031-0.528,0.159-1.051,0.643-1.364c0.015-0.043,0.025-0.073,0.041-0.13
		c0.072-0.254,0.137-0.516,0.229-0.763c0.17-0.456,0.35-0.834,0.604-1.206c0,0,0-0.001,0-0.002c-0.047-0.484-0.235-0.95-0.545-1.302
		c0.616-1.417,0.721-2.774,0.299-4.042c0.179,0.039,0.349,0.066,0.531,0.113c2.5,0.643,3.547-3.17,1.062-3.856
		c-6.82-1.888-13.884-2.321-20.188-5.798c-2.263-1.248-4.219,2.107-2.02,3.453c1.974,1.206,3.879,2.483,5.73,3.821
		c2.35,4.188,4.043,8.779,5.899,13.184c1.362,3.234,2.623,7.565,5.299,10.017c0.082,0.075,0.169,0.126,0.254,0.186
		c0.425,0.972,0.839,1.946,1.231,2.933c0.943,2.366,4.812,1.336,3.857-1.062C256.475,752.663,255.996,751.534,255.502,750.413z"/>
	<path fill="#1A1A1A" d="M253.075,693.605c0.563-10.455,1.006-21.48-1.882-31.622c-0.1-4.55-0.184-9.1-0.193-13.649
		c-0.003-1.483-1.271-2.104-2.381-1.888c0.936-2.4,1.857-4.805,2.633-7.229c-0.346-3.203-0.505-6.401-0.572-9.611
		c-0.556,0.016-1.082,0.319-1.406,1.053c-0.069,0.158-0.127,0.32-0.196,0.479c-0.002-0.001-0.003-0.001-0.005-0.002
		c-0.002,0.008-0.004,0.018-0.004,0.024c-2.379,5.508-3.961,11.307-5.043,17.204c-1.963,5.409-3.83,10.842-4.358,16.636
		c-1,10.969,7.656,20.696,9.405,31.198c0.148,0.892,0.723,1.33,1.384,1.423c0.708,1.688,1.431,3.374,2.151,5.056
		c1.014,2.364,4.457,0.324,3.453-2.02C255.059,698.322,254.045,695.974,253.075,693.605z"/>
	<path fill="#333333" d="M237.343,704.607c-2.61-1.475-5.485-2.422-8.497-3.008c-0.037-0.092-0.068-0.183-0.119-0.275
		c-3.108-5.826-6.391-11.551-9.537-17.353c-3.575-8.603-6.375-17.603-10.463-25.981c-0.36-0.74-0.93-1.035-1.513-1.031
		c-1.091-3.655-2.122-8.172-0.487-11.615c1.102-2.316-2.348-4.349-3.453-2.02c-0.029,0.063-0.055,0.13-0.084,0.193
		c-0.062-0.49-0.11-0.982-0.143-1.476c0.1-0.438,0.191-0.875,0.286-1.313c3.563-2.017,8.547-0.408,12.469,0.866
		c0.231,0.075,0.453,0.097,0.664,0.084c0.666,0.199,1.332,0.397,2.003,0.583c0.891,0.246,1.592-0.094,2.02-0.656
		c0.824,0.067,1.66,0.097,2.513,0.062c2.173-0.09,2.826-3.455,0.531-3.929c-4.407-0.908-8.783-1.952-13.173-2.941
		c-1.18-0.441-2.362-1.048-3.557-1.448C206.564,632.684,205.971,632,205,632h-2.667c-0.746,0-1.299,0.561-1.626,1.096
		c-0.261,0.13-0.487,0.4-0.663,0.638c-0.307,0.159-0.577,0.474-0.772,0.883c-1.111,2.337-2.044,4.715-2.868,7.167
		c-0.375,1.117,0.407,2.064,1.362,2.409c-0.06,0.935-0.089,1.878-0.1,2.804c-0.018,1.516,1.394,2.182,2.555,1.861
		c0.063,0.225,0.116,0.449,0.184,0.674c0.246,0.807,0.826,1.229,1.467,1.355c0.213,5.827,2.771,12.058,5.104,17.292
		c3.248,11.688,9.056,22.521,15.734,32.712c-8.459-0.367-17.453,1.387-24.909,2.849c-1.168,0.229-1.959,1.946-1.195,2.938
		c0.525,0.683,1.083,1.312,1.666,1.911c-1.43-0.448-3.242,0.559-2.534,2.277c3.337,8.106,10.06,15.211,16.098,21.383
		c5.53,5.651,13.88,14.211,22.498,14.086c2.577-0.037,2.581-4.037,0-4c-7.44,0.108-14.877-8.121-19.669-12.915
		c-5.523-5.524-11.982-12.188-15.033-19.534c1.15,1.02,2.385,1.943,3.692,2.842c2.133,1.467,4.13-2.003,2.02-3.452
		c-1.069-0.735-2.112-1.497-3.083-2.339c5.17-0.991,11.029-1.987,16.745-2.129c-0.414,0.35-0.606,0.844-0.621,1.354
		c-1.216,1.12-0.685,3.729,1.282,3.508c4.079-0.458,7.581-0.056,10.99,2.395c1.602,1.15,3.896-1.135,2.736-2.736
		c-0.726-1.002-1.447-2.011-2.164-3.024c1.432,0.463,2.807,1.034,4.095,1.761C237.573,709.33,239.589,705.874,237.343,704.607z"/>
	<path fill="#333333" d="M257.596,724.469c-0.705-3.697-1.31-7.349-2.002-10.964c0.934-0.287,1.678-1.155,1.336-2.369
		c-4.182-14.815-11.211-28.511-17.537-42.479c-0.949-2.097-4.279-0.595-3.654,1.541c2.549,8.725,6.584,16.842,10.26,25.124
		c4.02,9.051,5.505,18.158,7.271,27.707c-8.549-0.162-18.49-3.464-24.854-8.776c-1.965-1.641-4.812,1.174-2.828,2.828
		c1.173,0.979,2.452,1.892,3.798,2.748c-0.521,0.552-0.701,1.356-0.109,2.181c3.547,4.949,6.688,10.193,9.707,15.478
		c2.266,3.96,6.338,9.484,6.686,14.181c0.188,2.557,4.189,2.574,4,0c-0.359-4.855-3.729-9.854-5.996-13.995
		c-2.807-5.129-5.827-10.189-9.125-15.036c6.671,3.078,14.334,4.731,21.121,4.364C257.034,726.926,257.846,725.786,257.596,724.469z
		"/>
	<path fill="#333333" d="M245,630.334c-0.509,6.583-2.324,13.048-4.37,19.3c-1.938,5.921-4.286,12.469-8.378,17.286
		c-1.659,1.953,1.156,4.797,2.828,2.828c4.299-5.061,6.757-11.534,8.952-17.718c2.472-6.961,4.397-14.312,4.968-21.696
		C249.199,627.76,245.197,627.779,245,630.334z"/>
	<path fill="#666666" d="M189.531,432.405c-5.616-1.991-11.53-2.753-17.333-4c-2.515-0.54-3.585,3.314-1.063,3.856
		c0.634,0.138,1.271,0.266,1.907,0.393c0.05,0.772,0.492,1.475,1.426,1.607c2.151,0.308,4.302,0.614,6.453,0.922
		c1.272,0.37,2.516,0.87,3.736,1.542c1.059,0.583,2.058,0.132,2.596-0.638c0.405,0.059,0.81,0.116,1.215,0.174
		C190.982,436.622,192.012,433.285,189.531,432.405z"/>
	<path fill="#E6E6E6" d="M266.727,434.657c-0.633-1.37-2.3-1.197-3.174-0.287c-0.412,0.011-0.808,0.142-1.131,0.369
		c-3.171-0.475-7.355,1.033-10.488,1.366c-2.509,0.267-5.008,0.442-7.504,0.562c-5.324-0.688-10.632-0.623-15.959-0.27
		c-3.785-0.732-7.637-1.503-11.51-2.136c-1.854-0.544-3.727-0.746-5.629-0.8c-6.197-0.729-12.394-0.891-18.406,0.256
		c-1.359-0.415-2.714-0.847-4.062-1.313c-0.618-0.214-1.142-0.133-1.543,0.122c-0.293-0.063-0.585-0.134-0.879-0.194
		c-0.526-0.197-1.054-0.391-1.577-0.595c-0.54-0.199-1.003-0.158-1.381,0.023c-1.365-0.243-2.738-0.447-4.119-0.626
		c-2.8-0.794-5.516-1.771-8.022-3.195c-2.245-1.277-4.26,2.179-2.019,3.452c2.453,1.396,5.079,2.36,7.78,3.141
		c0.192,0.172,0.423,0.311,0.697,0.396c4.178,1.288,8.489,2.045,12.667,3.334c0.343,0.105,0.654,0.12,0.934,0.074
		c1.243,0.424,2.487,0.843,3.732,1.259c0.393,0.132,0.758,0.108,1.088-0.003c2.522,0.915,7.017,2.433,11.612,3.653
		c1.126,0.424,2.309,0.748,3.516,1.017c0.16,0.18,0.367,0.34,0.641,0.465c7.477,3.448,15.611,3.589,23.677,4.272
		c0.601,0.051,1.052-0.133,1.37-0.438c3.172,0.041,6.252-0.087,9.013-0.254c4.787-0.289,12.149-1.116,16.566-4.482
		c1.425-0.494,2.722-1.204,4.248-1.562c0.815-0.189,1.53-1.074,1.469-1.929C268.184,438.31,267.572,436.492,266.727,434.657z"/>
	<path fill="#E6E6E6" d="M225.176,716.419c0.299-0.02,0.604-0.13,0.885-0.358c5.83-4.747,7.017-10.618,5.726-17.783
		c-0.747-4.142-2.156-8.155-3.067-12.263c-1.291-5.822-1.564-12.075-1.769-18.025c-0.351-10.197,1.272-20.288,1.419-30.467
		c0.168-11.695-1.23-23.388-2.727-34.965c-2.939-22.778-6.108-45.775-5.498-68.812c0.266-10.027,2.826-19.436,6.235-28.78
		c2.661-7.291,6.271-15.354,5.452-23.299c-0.195-1.905-3.198-1.924-3,0c0.786,7.646-2.771,15.474-5.346,22.501
		c-3.082,8.425-5.366,16.846-6.139,25.819c-0.974,11.312,0.318,22.833,0.911,34.137c0.554,10.527,2.048,20.995,3.451,31.435
		c1.47,10.915,2.883,21.834,3.463,32.84c0.562,10.663-0.747,21.103-1.188,31.728c-0.385,9.282,0.136,19.008,2.15,28.092
		c2.045,9.218,6.602,18.558-2.197,25.724c-0.358,0.292-0.506,0.634-0.508,0.969c-0.727,0.021-1.379,0.493-1.266,1.426
		c1.299,10.676,2.121,21.424,5.387,31.731c0.582,1.838,3.479,1.053,2.893-0.797C227.27,737.242,226.438,726.806,225.176,716.419z"/>
	<path fill="#E6E6E6" d="M240.475,462.576c0.014-0.079,0.024-0.159,0.024-0.242c0-0.154-0.002-0.307-0.006-0.459
		c0.004-0.069,0.002-0.139,0.006-0.208c0.009-0.161-0.011-0.305-0.041-0.438c-0.082-0.964-0.331-1.852-1.065-2.621
		c-0.562-0.593-1.554-0.567-2.121,0c-0.588,0.588-0.562,1.528,0,2.12c0.043,0.05,0.056,0.061,0.067,0.071
		c0.021,0.033,0.045,0.066,0.063,0.103c0.021,0.061,0.033,0.124,0.048,0.187c-0.007,0.02,0.036,0.342,0.04,0.398
		c0.005,0.117,0.003,0.235,0.004,0.354c-0.422,7.851,0.958,15.573,1.271,23.388c-0.229,0.163-0.424,0.395-0.547,0.708
		c-17.143,43.579-11.836,90.508-6.521,135.893c1.351,11.521,1.115,22.533,0.062,34.066c-0.697,7.649-1.046,14.6,0.193,22.151
		c1.23,7.501,2.789,14.942,3.622,22.505c0.508,4.604,2.011,14.099-2.667,17.154c-1.612,1.053-0.111,3.651,1.514,2.59
		c3.754-2.452,4.354-7.132,4.548-11.273c0.343-7.247-1.124-14.668-2.36-21.773c-1.184-6.8-3.039-13.794-2.685-20.736
		c0.603-11.771,2.415-23.391,1.784-35.21c-0.646-12.114-2.659-24.259-3.74-36.354c-1.107-12.401-2.251-24.811-2.562-37.263
		c-0.594-23.666,2.643-47.089,11.062-69.243c0.71-0.046,1.38-0.521,1.363-1.441C241.693,478.823,240.15,470.766,240.475,462.576z"/>
	<path fill="#E6E6E6" d="M237.777,749.936c-2.748-9.195-4.492-18.651-4.611-28.269c-0.023-1.934-3.023-1.936-3,0
		c0.122,9.87,1.896,19.623,4.721,29.065C235.438,752.582,238.334,751.793,237.777,749.936z"/>
	<path fill="#E6E6E6" d="M232.445,460.602c-0.262-1.909-3.152-1.094-2.894,0.798c0.735,5.363,1.229,10.852,1.279,16.269
		c0.019,1.934,3.019,1.936,3,0C233.779,471.977,233.218,466.235,232.445,460.602z"/>
	<path fill="#999999" d="M229.627,449.577c-0.84-1.742-3.427-0.22-2.59,1.514c1.109,2.3,1.749,4.687,1.795,7.243
		c0.034,1.933,3.034,1.936,3,0C231.775,455.234,230.971,452.359,229.627,449.577z"/>
	<path fill="#999999" d="M239.777,456.602c-0.56-1.845-0.609-3.688-0.611-5.602c-0.001-0.883-0.627-1.358-1.307-1.436
		c-0.025-0.1-0.057-0.196-0.082-0.297c-0.477-1.874-3.368-1.078-2.893,0.798c0.624,2.456,1.377,4.877,2,7.333
		C237.445,459.246,240.256,458.48,239.777,456.602z"/>
	<path fill="#CECECE" d="M261.934,434.221c-7.766,2.354-16.276,1.321-24.252,0.927c-4.922-0.244-10.32-0.648-15.207,0.607
		c-0.039-0.846-0.775-1.722-1.875-1.534c-7.922,1.349-16.287,1.588-24.544,0.747c-1.097-0.277-2.201-0.534-3.324-0.747
		c-0.438-0.083-0.813,0.003-1.112,0.185c-0.639-0.097-1.277-0.192-1.912-0.303c-0.547-0.186-1.097-0.352-1.642-0.549
		c-0.37-0.134-0.71-0.093-1,0.052c-5.417-1.095-10.697-2.661-15.667-4.719c-1.788-0.739-2.559,2.164-0.798,2.894
		c5.567,2.305,11.512,3.991,17.606,5.096c1.16,0.524,2.331,1.016,3.512,1.474c0.159,0.331,0.444,0.613,0.882,0.766
		c1.205,0.415,2.413,0.754,3.625,1.045c1.232,0.331,2.469,0.645,3.708,0.955c0.39,0.098,0.729,0.049,1.01-0.088
		c8.385,1.056,16.896-0.171,25.39-1.192c1.129-0.136,1.61-1.171,1.39-1.988c4.729-0.371,9.785,0.29,14.113,0.514
		c6.936,0.355,14.164,0.795,20.896-1.244C264.577,436.554,263.79,433.658,261.934,434.221z"/>
	<path fill="#636363" d="M268.6,426.221c-5.802,1.951-12.021,4.398-18.332,5.908c-0.213-0.418-0.631-0.703-1.27-0.629
		c-6.264,0.728-12.657,1.918-18.936,0.721c-0.291-0.056-0.554-0.026-0.787,0.052c-0.207-0.059-0.428-0.09-0.676-0.052
		c-1.057,0.162-2.93,1.153-1.881,2.516c0.788,1.021,2.092,1.03,3.284,1.176c2.965,0.356,6.007,0.563,8.994,0.589
		c0.063,0,0.11-0.021,0.171-0.026c10.311,0.098,20.682-4.147,30.229-7.359C271.221,428.5,270.438,425.602,268.6,426.221z"/>
	<path fill="#1A1A1A" d="M270.327,448.233c0.122-0.271,0.175-0.597,0.118-0.967c-0.137-0.916-0.383-1.785-0.666-2.666
		c-0.088-0.271-0.245-0.486-0.439-0.651c-0.076-0.229-0.143-0.455-0.227-0.683c-0.518-1.398-2.215-1.351-2.771-0.215
		c-0.345-0.643-0.958-1.029-1.74-0.833c-5.855,1.479-11.74,3.028-17.332,5.334c-1.764,0.728-0.992,3.63,0.797,2.894
		c5.205-2.146,10.66-3.636,16.111-5.023c0.641,1.319,1.322,2.697,1.322,4.077c0,1.406,1.582,1.785,2.448,1.146
		c0.864,0.844,2.665,0.526,2.552-0.98C270.464,449.182,270.398,448.706,270.327,448.233z"/>
	<path fill="#CCCCCC" d="M237.475,767.586c2.233-2.074,4.859-3.742,7.623-4.202c-0.104-0.767-0.494-1.533-1.27-2.212
		c-1.746-1.528-3.656-2.547-5.643-3.346c-7.551-6.173-15.785-11.488-24.429-16.004c-0.709-0.671-1.461-1.296-2.243-1.887
		c-0.515-0.551-1.033-1.095-1.557-1.629c-0.275-0.302-0.577-0.572-0.939-0.762c-0.736-0.383-1.479-0.521-2.178-0.474
		c-1.406-0.693-2.879-1.298-4.412-1.806c-6.518-3.476-13.998-5.029-21.639-4.319c-0.092-0.005-0.185-0.01-0.277-0.013
		c0.563-1.238,0.541-2.813-0.059-3.954c-0.342-0.648-2.667-3.266-2-2c-1.439-2.733-4.808-2.341-6.482-0.476
		c-2.857-1.054-5.847-1.745-8.909-2.363c-1.992-0.4-3.756,0.782-4.605,2.346c-12.582,0.222-28.826,7.632-27.202,20.812
		c-0.039,0.212-0.082,0.424-0.113,0.637c-0.208,1.426,0.155,2.738,0.924,3.669c0.139,1.174,0.754,2.269,1.914,2.85
		c7.063,3.536,14.401,4.892,20.199,1.004c0.022,0.055,0.043,0.11,0.066,0.165c-0.627,1.702-1.005,3.519-1.165,5.423
		c-0.172,0.312-0.349,0.625-0.536,0.936c-1.244,2.076-0.167,5.403,2.391,5.876c6.879,1.271,13.774,1.517,20.674,1.297
		c10.027,1.89,20.068,1.745,30.149,1.186c0.594,0.403,1.34,0.654,2.24,0.661c7.419,0.06,14.787,0.566,22.111-0.443
		c1.904,0.11,3.799,0.048,5.711-0.129C236.363,768.123,236.916,767.848,237.475,767.586z M165.412,736.101
		c0.544-0.527,1.14-0.8,1.873-0.823C166.654,735.541,166.031,735.817,165.412,736.101z"/>
	<path fill="#F2F2F2" d="M235.639,768.526c0.273-0.157,0.553-0.303,0.829-0.447c-0.288-0.677-0.167-1.514,0.671-2.053
		c1.897-1.222,4-2.243,6.164-2.932c-0.992-1.463-2.84-2.43-4.859-1.717c-0.645-0.766-1.62-1.308-2.942-1.379
		c-1.991-0.108-3.985-0.154-5.983-0.159c-8.549-6.021-17.047-11.488-26.588-14.825c-3.876-6.031-12.085-8.104-19.717-6.883
		c-0.064-0.028-0.128-0.059-0.192-0.087c-1.933-0.846-4.006-0.137-5.18,1.201c-6.657,0.169-13.225,4.835-15.745,11.001
		c-2.646,3.604-4.215,7.916-4.095,12.752c0.067,2.692,2.493,4.423,5.063,3.856c2.33-0.514,4.69-0.52,7.056-0.452
		c12.622,3.512,25.554,3.017,38.55,2.263c2.951,0.538,5.914,1.016,8.895,1.396c5.599,0.716,11.66,1.374,17.373,0.487
		C234.699,769.832,234.859,768.974,235.639,768.526z M181.204,751.221c0.305-0.186,0.611-0.361,0.921-0.53
		c0.253,0.189,0.501,0.384,0.745,0.581C182.314,751.252,181.758,751.235,181.204,751.221z"/>
	<path fill="#F2F2F2" d="M174.519,727.546c-0.304-0.174-0.618-0.313-0.928-0.47c-0.673-1.38-2.013-2.505-3.591-2.576
		c-3.808-0.172-7.284-0.607-11.063,0.143c-0.914,0.183-1.584,0.612-2.053,1.177c-4.117,1.231-7.845,3.188-10.164,7.071
		c-1.883,3.155-2.458,7.03-3.374,10.695c-0.515,1.305-0.924,2.601-1.203,3.852c-0.688,3.089,1.539,4.907,3.842,4.871
		c1.708,1.656,4.597,1.966,5.969-0.789c1.959-3.935,5.069-8.059,8.702-11.608c2.121-1.598,4.562-2.825,7.408-3.553
		c1.13-0.289,1.934-1.016,2.402-1.911c0.005,0.003,0.01,0.005,0.015,0.008C174.966,737.02,178.995,730.106,174.519,727.546z"/>
	<path fill="#FFFFFF" d="M165.268,725.78c1.848,0.592,2.632-2.306,0.798-2.894c-1.659-0.53-3.331-0.72-5.065-0.721
		c-1.376-0.001-1.768,1.514-1.186,2.391c-0.452-0.303-0.908-0.599-1.391-0.852c-1.712-0.896-3.229,1.692-1.514,2.59
		c0.883,0.462,1.688,1.013,2.512,1.53c-0.471,0.387-0.913,0.797-1.314,1.244c-0.219,0.01-0.443,0.032-0.672,0.071
		c-4.679,0.818-8.561,4.919-7.937,9.857c0.335,2.655,2.289,4.447,5.063,3.857c2.545-0.541,4.476-1.888,6.111-3.723
		c0.114-0.062,0.232-0.112,0.344-0.182c1.211-0.741,1.765-1.806,1.865-2.9c0.133-0.222,0.267-0.444,0.403-0.664
		c0.058-0.094,0.508-0.716,0.575-0.833c0.108-0.123,0.215-0.245,0.332-0.36c0.051-0.054,0.072-0.078,0.104-0.114
		c0.053-0.027,0.118-0.063,0.221-0.127c3.409-2.111,1.72-6.76-1.271-7.433c-0.141-0.122-0.31-0.229-0.516-0.302
		c-0.742-0.264-1.405-0.66-2.053-1.086c0.101,0.021,0.207,0.032,0.321,0.032C162.488,725.168,163.843,725.324,165.268,725.78z"/>
	<path fill="#FFFFFF" d="M198.329,747.172c-1.273-1.272-3.612-1.596-5.109-0.503c-0.073-0.101-0.154-0.194-0.235-0.287
		c0.116-1.526-0.636-3.253-1.965-3.836c-0.037-0.017-0.074-0.024-0.111-0.042c-0.176-1.346-1.05-2.529-2.845-2.861
		c-3.027-0.559-6.019-0.478-8.386,1.724c-0.232,0.215-0.429,0.452-0.612,0.696c-0.544,0.171-1.087,0.362-1.629,0.58
		c-2.982,1.199-3.717,4.173-1.765,6.687c3.464,4.46,9.859,6.545,15.329,6.672c1.092,0.025,2.092-0.503,2.83-1.293
		c1.744-0.064,3.42-0.595,4.499-1.879C199.729,751.16,199.97,748.812,198.329,747.172z"/>
	<path fill="#203860" d="M239.257,755.705c-2.575-1.691-5.343-2.563-8.358-3.151c-0.321-0.062-0.616-0.031-0.873,0.062
		c-2.668-1.768-5.455-3.345-8.269-4.91c-0.429-0.239-0.886-0.218-1.28-0.047c0.024-0.188,0.026-0.375-0.029-0.558
		c-0.403-1.274-1.399-2.758-2.635-3.364c0.043-0.113,0.095-0.224,0.135-0.338c0.642-1.83-2.258-2.61-2.893-0.798
		c-2.418,6.896-8.973,11.354-11.826,18.104c-0.008,0.014-0.017,0.025-0.022,0.039c0.002,0.001,0.003,0.001,0.005,0.002
		c-0.05,0.12-0.107,0.235-0.156,0.356c-0.631,1.596,1.954,2.635,2.741,1.154c2.353-4.419,5.824-7.95,9.838-10.812
		c0.113,0.03,0.235,0.052,0.367,0.057c1.97,0.075,3.823,0.443,5.584,1.027c-0.009,0.025-0.022,0.047-0.03,0.074
		c-0.744,2.487-0.83,5.247-1.849,7.642c-0.744,1.748,1.795,3.289,2.59,1.514c0.083-0.185,0.154-0.373,0.229-0.561
		c0.119,0.88,0.998,1.476,1.875,1.25c0.72-0.186,1.341-0.61,1.896-1.139c0.185,0.234,0.392,0.479,0.646,0.753
		c0.559,0.599,1.56,0.562,2.121,0l0.924-0.925c0.087,0.055,0.177,0.103,0.26,0.158c1.023,0.699,2.206,0.103,2.542-0.981
		c0.403,0.206,0.796,0.438,1.153,0.748c1.453,1.255,3.576-0.845,2.132-2.111c0.006-0.006,0.013-0.012,0.018-0.019
		c0.568-0.055,1.033-0.411,1.255-0.882c0.133,0.083,0.269,0.158,0.4,0.245C239.365,759.36,240.866,756.762,239.257,755.705z
		 M225.746,754.964c0.062,0.052,0.123,0.104,0.186,0.156c-0.445,0.098-0.914,0.256-1.408,0.471c-0.018-0.475-0.021-0.96-0.021-1.457
		C224.917,754.411,225.332,754.688,225.746,754.964z"/>
	<path fill="#203860" d="M181.243,727.705c-0.58,0.415-1.182,0.805-1.788,1.189c-0.03-0.349-0.172-0.678-0.411-0.934
		c0.343-0.293,0.684-0.59,1.016-0.901c0.926-0.867,0.341-2.09-0.605-2.433c-0.245-1.014-1.616-1.408-2.516-0.688
		c-4.988,3.986-10.009,7.82-15.696,10.766c-0.796,0.412-0.893,1.187-0.603,1.812c-0.334,0.969,0.388,2.151,1.758,1.93
		c7.083-1.151,14.498-3.953,20.358-8.151C184.315,729.18,182.819,726.576,181.243,727.705z"/>
	<path fill="#FFFFFF" d="M202.729,738.606c-4.7-5.185-11.323-7.126-17.996-8.387c-1.257-0.236-2.029,0.96-1.851,1.896
		c-0.216,0.072-0.43,0.156-0.639,0.256c-1.745,0.834-0.222,3.42,1.515,2.59c2.23-1.065,6.093,1.396,7.915,2.455
		c2.534,1.473,5.636,3.716,6.548,6.648c0.572,1.842,3.468,1.056,2.892-0.798c-0.622-2.002-1.886-3.69-3.428-5.135
		c1.039,0.747,2.021,1.601,2.922,2.594C201.908,742.164,204.023,740.036,202.729,738.606z"/>
	<path fill="#8E8E8E" d="M147.534,727.185c-0.645,0.257-1.31,0.555-1.981,0.875c-2.417,0.74-4.666,1.803-6.805,3.177
		c-0.211,0.147-0.252,0.376-0.196,0.57c-0.304,0.249-0.604,0.5-0.884,0.766c-0.973,0.665-1.942,1.339-2.92,1.998
		c-0.529,0.355-0.054,1.197,0.505,0.862c0.005-0.003,0.01-0.006,0.015-0.009c-0.21,0.312-0.411,0.629-0.603,0.952
		c-1.029,1.152-1.968,2.382-2.763,3.706c-0.236,0.393,0.131,0.753,0.482,0.735c-0.899,1.779-1.586,3.666-2.034,5.634
		c-0.52,0.99-0.509,2.078-0.517,3.216c0,0.096,0.023,0.173,0.058,0.24c-0.041,0.377-0.054,0.757-0.058,1.094
		c-0.008,0.649,0.961,0.639,1,0c0.018-0.285,0.049-0.568,0.088-0.851c0.1,0.029,0.202,0.027,0.295-0.016
		c-0.013,0.039-0.025,0.078-0.028,0.12c-0.038,0.188,0.018,0.391,0.226,0.51c1.642,0.945,3.449,1.294,5.274,1.626
		c0.504,0.142,1.004,0.294,1.512,0.426c0.154,0.038,0.286,0.01,0.388-0.059c0.093,0.021,0.187,0.037,0.279,0.059
		c0.628,0.142,0.895-0.822,0.266-0.966c-0.672-0.15-1.355-0.271-2.037-0.392c-0.576-0.173-1.15-0.352-1.723-0.532
		c0.141-0.032,0.281-0.064,0.426-0.111c0.361-0.115,0.486-0.557,0.221-0.836c-1.068-1.123-1.817-2.251-2.3-3.37
		c0.262-1.309,0.524-2.617,0.785-3.927c0.329-0.455,0.647-0.924,0.927-1.431c0.2-0.363-0.085-0.696-0.397-0.742
		c0.837-1.77,1.773-3.477,2.885-5.086c0.112-0.074,0.187-0.194,0.217-0.325c0.478-0.672,1.002-1.317,1.549-1.953
		c1.55-1.153,3.202-2.174,4.899-3.048c0.23-0.118,0.281-0.326,0.23-0.516c0.226-0.123,0.447-0.258,0.676-0.376
		c0.323-0.133,0.643-0.271,0.974-0.392c0.103-0.036,0.173-0.099,0.229-0.169c0.368-0.166,0.73-0.348,1.104-0.498
		C148.39,727.912,148.135,726.946,147.534,727.185z M134.727,750.021c-0.466,0.056-0.922,0.043-1.379-0.002
		c0.089-0.08,0.151-0.196,0.153-0.354c0.005-0.424,0.022-0.846,0.041-1.267C133.875,748.94,134.268,749.481,134.727,750.021z"/>
	<path fill="#8E8E8E" d="M173.435,723.899c-3.035-2.39-10.415-7.264-12.597-1.647c-2.715,1.104-5.352,2.352-7.524,4.396
		c-0.188,0.177-0.165,0.438-0.037,0.628c-0.177-0.142-0.429-0.177-0.63,0.038c-0.309,0.327-0.649,1.019,0.022,1.202
		c0.428,0.118,1.004-0.108,1.536-0.384c0.08,0.024,0.166,0.037,0.261,0.018c2.487-0.535,4.847-1.358,7.046-2.552
		c1.202,0.837,3.111,0.698,3.774-0.935c0.281,0.078,0.595,0.243,0.82,0.346c1.354,0.62,2.627,1.508,3.793,2.426
		c1.07,0.842,2.487,1.049,3.535,0C174.312,726.558,174.508,724.743,173.435,723.899z M155.382,726.361
		c-0.074,0.009-0.147,0.021-0.221,0.029c1.627-1.244,3.463-2.135,5.353-2.926c-0.004,0.046-0.012,0.093-0.014,0.139
		c-1.157,0.598-2.3,1.219-3.429,1.87C156.51,725.771,155.948,726.07,155.382,726.361z"/>
	<path fill="#8E8E8E" d="M214.334,739.834c-0.076-0.005-0.133-0.008-0.175-0.01c-0.084-0.026-0.181-0.061-0.239-0.078
		c-0.066-0.048-0.238-0.168-0.293-0.217c-0.251-0.232-0.482-0.486-0.712-0.742c-0.05-0.073-0.089-0.148-0.147-0.221
		c-4.945-6.026-15.431-10.516-23.317-10.083c-0.337-0.05-0.709-0.023-1.114,0.105c-0.101,0.032-0.205,0.058-0.306,0.09
		c-0.717-0.713-1.807-1.067-2.958-0.504c-2.849,1.396-5.792,2.569-8.736,3.747c-2.916,1.167-1.805,5.831,1.329,4.822
		c3.874-1.247,7.874-2.032,11.752-3.26c6.244-0.329,14.315,2.953,18.815,7.518c0.095,0.152,0.203,0.299,0.334,0.432
		c0.658,0.675,1.236,1.438,1.981,2.021c1.138,0.891,2.33,1.336,3.785,1.379c1.362,0.04,2.5-1.168,2.5-2.5
		C216.834,740.941,215.695,739.874,214.334,739.834z"/>
	<path fill="#8E8E8E" d="M240.217,764.016c0.023,0.014,0.039,0.021,0.074,0.04c0.107,0.061,0.21,0.134,0.312,0.201
		c0.117,0.147,0.244,0.306,0.312,0.388c0.055,0.079,0.109,0.158,0.162,0.238c1.857-1.068,3.855-1.7,5.895-1.607
		c0.098-0.144,0.191-0.288,0.273-0.44c0.717-1.333,0.15-3.349-1.493-3.673c-1.471-0.289-2.95-0.618-4.444-0.37
		c-0.293,0.049-0.545,0.154-0.774,0.284c-1.336-0.055-2.444,1.223-2.444,2.497C238.089,762.872,239.029,763.785,240.217,764.016z"/>
	<path fill="#CCCCCC" d="M242,762.5c0-0.21-0.036-0.412-0.088-0.61c0.011-0.697-0.176-1.384-0.737-1.88
		c-0.188-0.167-0.385-0.33-0.606-0.45c-0.032-0.018-0.045-0.021-0.062-0.029c-0.99-0.72-2.365-0.704-3.271,0.203
		c-0.226,0.225-0.396,0.492-0.519,0.781c-0.664,0.225-1.317,0.498-1.978,0.827c-1.219,0.607-1.551,2.305-0.896,3.42
		c0.722,1.232,2.201,1.506,3.421,0.896c0.108-0.056,0.219-0.108,0.328-0.162c0.135,0.018,0.271,0.02,0.409,0.004
		c0.649-0.074,1.042-0.166,1.638-0.42c0.127-0.051,0.252-0.107,0.375-0.172c0.016-0.007,0.016-0.009,0.029-0.016
		C241.146,764.593,242,763.777,242,762.5z"/>
	<path fill="#CECECE" d="M206.994,293.695c-0.469,0.207-0.827,0.638-0.828,1.305c0,0.428-0.012,0.832-0.041,1.221
		c-0.395,1.179-0.786,2.358-1.18,3.537c-0.127,0.263-0.168,0.519-0.137,0.756c0.045,0.651,0.567,1.09,1.176,1.215
		c0.576,0.152,1.23,0.005,1.644-0.638c0.874-1.366,1.276-2.741,1.44-4.226c0.236-0.711,0.474-1.421,0.711-2.132
		C210.363,292.98,207.77,292.192,206.994,293.695z"/>
	<path fill="#CECECE" d="M220.961,298.91c-1.441-2.889-3.005-5.846-3.85-8.976c-0.254-0.944-1.119-1.206-1.848-0.993
		c-0.666-0.076-1.4,0.211-1.711,0.993c-1.357,3.439-2.542,7.031-3.311,10.653c-0.028,0.104-0.045,0.208-0.051,0.315
		c-0.004,0.067-0.006,0.131-0.002,0.194c0.002,0.029,0.002,0.058,0.006,0.086c0.027,0.254,0.119,0.473,0.26,0.655
		c0.258,0.384,0.677,0.661,1.21,0.661c2.229-0.001,4.41-0.102,6.586-0.5H219c0.559,0,0.945-0.309,1.182-0.687
		c0.072-0.091,0.129-0.192,0.174-0.296C220.979,300.625,221.382,299.753,220.961,298.91z M217.575,299h-1.267
		c0.01-0.011,0.02-0.022,0.028-0.033c0.231-0.109,0.449-0.281,0.623-0.543c0.077-0.116,0.149-0.229,0.22-0.342
		C217.312,298.374,217.443,298.675,217.575,299z"/>
	<path fill="#CECECE" d="M220.602,304.887c-5.361,1.191-10.826,0.656-16.269,0.613c-1.937-0.016-1.935,2.984,0,3
		c5.726,0.046,11.426,0.533,17.065-0.72C223.287,307.36,222.486,304.468,220.602,304.887z"/>
	<path fill="#8E8E8E" d="M223.432,302.081c-0.688-1.387-1.348-2.787-2.002-4.188c0.08-0.134,0.104-0.301,0.002-0.478
		c-0.515-0.88-0.998-1.775-1.472-2.677c-0.188-0.408-0.379-0.815-0.569-1.223c-0.019-0.046-0.037-0.093-0.057-0.139
		c0.148-0.103,0.23-0.281,0.146-0.508c-0.765-2.058-1.901-3.942-2.666-6c-0.225-0.598-1.188-0.341-0.965,0.266
		c0.012,0.029,0.022,0.059,0.033,0.087c-0.188-0.09-0.406-0.034-0.554,0.11c-0.224-0.219-0.613-0.267-0.763,0.084
		c-0.018,0.04-0.032,0.081-0.051,0.12l0,0c-0.002,0.004-0.002,0.008-0.004,0.012c-0.23,0.544-0.447,1.096-0.674,1.643
		c-0.127-0.26-0.312-0.477-0.589-0.621c-0.571-0.296-1.077,0.566-0.504,0.863c0.377,0.196,0.458,0.777,0.339,1.596
		c-0.686,1.715-1.354,3.437-1.984,5.173c-0.348,0.953-0.742,1.951-1.088,2.968c-0.207,0.435-0.41,0.852-0.604,1.247
		c-0.465,0.927-0.932,1.853-1.399,2.782c-0.043,0.084-0.081,0.16-0.108,0.217c-0.286,0.575,0.572,1.082,0.863,0.505
		c0.139-0.275,0.276-0.549,0.416-0.824c0.07,0.54,0.953,0.51,0.984-0.095c0.057-1.084,0.343-2.192,0.705-3.282
		c1.828-3.709,3.501-7.462,4.507-11.517c0.586,1.158,1.183,2.311,1.769,3.468c1.123,3.297,2.338,6.555,4.088,9.583
		c0.16,0.275,0.479,0.286,0.699,0.15c0.209,0.396,0.416,0.792,0.635,1.183C222.885,303.153,223.715,302.654,223.432,302.081z"/>
	<path fill="#8E8E8E" d="M208.646,305.313c-0.029,0.031-0.051,0.069-0.078,0.102l0,0c-0.002,0.003-0.004,0.006-0.006,0.01
		c-0.115,0.135-0.225,0.276-0.321,0.424c-0.056,0.009-0.107,0.032-0.16,0.064c-0.083-0.206-0.233-0.36-0.519-0.391
		c-0.375-0.041-0.631,0.425-0.777,0.694c-0.418,0.764-0.855,1.759-0.932,2.653c-0.002,0.002-0.002,0.005-0.002,0.007
		c-0.375,0.598-0.713,1.23-1.205,1.771c-0.435,0.475,0.271,1.184,0.707,0.707c0.147-0.163,0.278-0.339,0.403-0.521
		c0.091-0.016,0.183-0.056,0.263-0.146c0.029-0.032,0.051-0.069,0.078-0.102l0,0c0.002-0.002,0.002-0.003,0.004-0.005
		c0.271-0.325,0.494-0.682,0.703-1.052c0.079-0.141,0.184-0.375,0.307-0.61c0.055-0.056,0.109-0.111,0.162-0.167
		c0.674-0.237,1.056-0.964,1.418-1.669c0.271-0.372,0.525-0.753,0.74-1.163C209.686,305.431,209.045,304.881,208.646,305.313z"/>
	<path fill="#8E8E8E" d="M213.312,305.313c-0.176,0.175-0.352,0.351-0.526,0.526c0.175-0.539-0.609-0.974-0.886-0.425
		c-0.553,1.106-1.076,2.312-1.922,3.232c-0.201,0.22-0.156,0.483-0.012,0.66c-0.021,0.038-0.046,0.071-0.066,0.108
		c-0.065,0.125-0.073,0.251-0.043,0.364c-0.207,0.324-0.412,0.648-0.623,0.969c-0.356,0.54,0.51,1.04,0.863,0.505
		c0.457-0.694,0.896-1.403,1.352-2.098c0.861-1.041,1.628-2.159,2.57-3.134C214.468,305.557,213.77,304.856,213.312,305.313z"/>
	<path fill="#8E8E8E" d="M218.812,305.625c-0.002-0.028-0.002-0.055-0.011-0.082c-0.009-0.026-0.021-0.049-0.032-0.073
		c-0.019-0.036-0.037-0.069-0.062-0.1c-0.006-0.008-0.015-0.015-0.021-0.023c-0.078-0.088-0.18-0.148-0.293-0.169
		c-0.008-0.001-0.016-0.002-0.022-0.004c-0.037-0.005-0.073-0.005-0.11,0c-0.037,0.002-0.074,0.011-0.109,0.023
		c-0.008,0.003-0.016,0.007-0.022,0.011c-0.051,0.021-0.097,0.054-0.139,0.099c-0.005,0.003-0.009,0.004-0.013,0.008
		c-0.177,0.182-0.336,0.377-0.502,0.568c-0.021,0.008-0.041,0.009-0.062,0.021c-1.41,0.764-2.152,2.127-2.848,3.513
		c-0.035,0.069-0.051,0.137-0.055,0.205c-0.002,0.01,0.002,0.019,0.002,0.028c0,0.057,0.008,0.112,0.024,0.164
		c0.002,0.006,0.005,0.01,0.007,0.016c0.064,0.169,0.214,0.295,0.387,0.329c0.017,0.004,0.032,0.006,0.049,0.009
		c0.024,0.002,0.049,0.002,0.072,0c0.109-0.002,0.213-0.047,0.297-0.142c0-0.001,0-0.001,0.002-0.002
		c0.217,0.193,0.571,0.228,0.746-0.102c0.75-1.425,1.916-2.575,2.666-4c0.034-0.064,0.051-0.129,0.057-0.193
		C218.825,305.691,218.818,305.658,218.812,305.625z"/>
</g>
<g id="Layer_2">
	<path fill="none" stroke="#000000" stroke-width="2" stroke-linecap="round" stroke-linejoin="round" stroke-miterlimit="10" d="
		M139.667,206.334c6.622,7.795,8.938,18.718,14,27.333"/>
	<path fill="none" stroke="#000000" stroke-width="2" stroke-linecap="round" stroke-linejoin="round" stroke-miterlimit="10" d="
		M153.667,233.668L153.667,233.668c10.981,3.965,21.33,8.629,32.667,10"/>
	<path fill="none" stroke="#000000" stroke-width="2" stroke-linecap="round" stroke-linejoin="round" stroke-miterlimit="10" d="
		M186.333,243.668c1.724-0.012,5.718-0.798,8-2"/>
	<path fill="none" stroke="#000000" stroke-width="2" stroke-linecap="round" stroke-linejoin="round" stroke-miterlimit="10" d="
		M189.667,202.334c1.948,12.837,4.569,26.757,4.667,40c0.039,5.291-2.361,9.983-0.832,14.815c1.642,5.188,6.697,8.924,6.832,14.519"
		/>
	<path fill="none" stroke="#000000" stroke-width="2" stroke-linecap="round" stroke-linejoin="round" stroke-miterlimit="10" d="
		M142.418,202.469C141.563,202.233,141.563,202.233,142.418,202.469c0,0,18.872-1.306,25.249-1.319
		c5.37-0.011,18.613-0.802,22,1.185"/>
	<path fill="none" stroke="#000000" stroke-width="2" stroke-linecap="round" stroke-linejoin="round" stroke-miterlimit="10" d="
		M115.495,219.379c10.687-3.669,17.412-10.99,26.923-16.91"/>
	<path fill="none" stroke="#000000" stroke-width="2" stroke-linecap="round" stroke-linejoin="round" stroke-miterlimit="10" d="
		M115.495,219.379c11.714,3.963,20.727,15.784,32.172,20.956"/>
	<path fill="none" stroke="#000000" stroke-width="2" stroke-linecap="round" stroke-linejoin="round" stroke-miterlimit="10" d="
		M145.667,239.668c9.715,3.853,14.978,6.928,24.026,11.369"/>
	<path fill="none" stroke="#000000" stroke-width="2" stroke-linecap="round" stroke-linejoin="round" stroke-miterlimit="10" d="
		M169.693,251.037c2.598,2.842,19.307-0.036,19.307-0.036"/>
	<path fill="none" stroke="#000000" stroke-width="2" stroke-linecap="round" stroke-linejoin="round" stroke-miterlimit="10" d="
		M109,220.503c10.807,7.491,28.481,19.277,42.669,26.496c5.023,2.556,10.484,6.378,15.834,8.167c2.423,0.81,4.097,0.845,6.865,1.169
		c2.384,0.28,10.749-1.15,9.632,0.028"/>
	<path fill="none" stroke="#000000" stroke-width="2" stroke-linecap="round" stroke-linejoin="round" stroke-miterlimit="10" d="
		M109,220.503C109,220.503,109.128,219.773,109,220.503c-3.52-9.701-0.099-24.605-1.188-35.519
		c-1.284-12.872-2.891-26.036-4.146-38.65"/>
	<path fill="none" stroke="#000000" stroke-width="2" stroke-linecap="round" stroke-linejoin="round" stroke-miterlimit="10" d="
		M103.667,144.913c3.362-7.668,10.967-16.113,16.614-23.862c4.505-6.182,10.578-21.277,18.052-23.383"/>
	<path fill="none" stroke="#000000" stroke-width="2" stroke-linecap="round" stroke-linejoin="round" stroke-miterlimit="10" d="
		M138.333,97.668c13.471-0.261,28.09,3.352,41.467,6.815c13.119,3.396,31.294,4.049,43.199,10.518"/>
	<path fill="none" stroke="#000000" stroke-width="2" stroke-linecap="round" stroke-linejoin="round" stroke-miterlimit="10" d="
		M223.667,115.668c0.61,12.188,5.741,25.5,8,37.514c0.933,4.954,7.812,22.11,5.333,24.486"/>
	<path fill="none" stroke="#000000" stroke-width="2" stroke-linecap="round" stroke-linejoin="round" stroke-miterlimit="10" d="
		M237,177.668c-30.812,4.045-30.941,43.82-34.666,66"/>
	<path fill="none" stroke="#000000" stroke-width="2" stroke-linecap="round" stroke-linejoin="round" stroke-miterlimit="10" d="
		M237,177.668c5.334,0,6.785,2.908,8,3.333"/>
	<path fill="none" stroke="#000000" stroke-width="2" stroke-linecap="round" stroke-linejoin="round" stroke-miterlimit="10" d="
		M219.667,200.334c6.667-9.667,17.333-16.916,25.333-19.333"/>
	<path fill="none" stroke="#000000" stroke-width="2" stroke-linecap="round" stroke-linejoin="round" stroke-miterlimit="10" d="
		M245,180.334c0,0.667,10.833-0.999,22.003,13.934c3.218,4.302,16.61,17.674,16.61,17.674"/>
	<path fill="none" stroke="#000000" stroke-width="2" stroke-linecap="round" stroke-linejoin="round" stroke-miterlimit="10" d="
		M283.614,211.942c1.015,5.854,5.446,23.737,6.087,28.89c2.615,21.063,2.722,6.907,1.966,20.169"/>
	<path fill="none" stroke="#000000" stroke-width="2" stroke-linecap="round" stroke-linejoin="round" stroke-miterlimit="10" d="
		M202.334,243.001c1.343,7.27,2.891,14.887,4.666,22"/>
	<path fill="none" stroke="#000000" stroke-width="2" stroke-linecap="round" stroke-linejoin="round" stroke-miterlimit="10" d="
		M207,263.668c-0.207,14.087-10.219,32.893-15.909,45.333"/>
	<path fill="none" stroke="#000000" stroke-width="2" stroke-linecap="round" stroke-linejoin="round" stroke-miterlimit="10" d="
		M200.333,271.001c-1.01,13.354-10.319,22.458-9.332,35.998"/>
	<path fill="none" stroke="#000000" stroke-width="2" stroke-linecap="round" stroke-linejoin="round" stroke-miterlimit="10" d="
		M189,251.001c0.469,8.861,5.721,17.956,5.349,27.333c-0.412,10.366-2.665,14.189-2.665,24.999"/>
	<path fill="none" stroke="#000000" stroke-width="2" stroke-linecap="round" stroke-linejoin="round" stroke-miterlimit="10" d="
		M184,256.362c11,16.971,2.925,31.022,7.001,50.636"/>
	<path fill="none" stroke="#000000" stroke-width="2" stroke-linecap="round" stroke-linejoin="round" stroke-miterlimit="10" d="
		M157,207.668c3.252,5.955,7.439,13.417,8.096,19.899c4.316-0.616,11.99-5.078,15.801-8.069c-0.75-1.677-1.997-3.934-3.23-5.164"/>
	<path fill="none" stroke="#000000" stroke-width="2" stroke-linecap="round" stroke-linejoin="round" stroke-miterlimit="10" d="
		M177.667,232.334c2.116-1.274,7.19-3.71,10-6"/>
	<path fill="none" stroke="#000000" stroke-width="2" stroke-linecap="round" stroke-linejoin="round" stroke-miterlimit="10" d="
		M232.334,279.001c-3.467-1.5-10.541-16.714-12.386-21.202c-4.933-12,0.063-27.914,1.719-40.132"/>
	<path fill="none" stroke="#000000" stroke-width="2" stroke-linecap="round" stroke-linejoin="round" stroke-miterlimit="10" d="
		M232.334,279.667c-4.955-11.764-5.973-20.035-3.333-33.333"/>
	<path fill="none" stroke="#000000" stroke-width="2" stroke-linecap="round" stroke-linejoin="round" stroke-miterlimit="10" d="
		M232.334,279.667c0.18-0.296,13.318,35.653,17.479,37.226c2.767,1.046,11.299-6.062,13.186-7.744
		c3.541-3.158,6.214-7.39,10.669-9.482"/>
	<path fill="none" stroke="#000000" stroke-width="2" stroke-linecap="round" stroke-linejoin="round" stroke-miterlimit="10" d="
		M263.001,309.001c-1.667,3.333-21.413,13.203-11.334,14"/>
	<path fill="none" stroke="#000000" stroke-width="2" stroke-linecap="round" stroke-linejoin="round" stroke-miterlimit="10" d="
		M251.667,323.001c5.392-2.056,12.81-1.58,18-4"/>
	<path fill="none" stroke="#000000" stroke-width="2" stroke-linecap="round" stroke-linejoin="round" stroke-miterlimit="10" d="
		M291.667,261.001C291.312,260.365,291.997,261.594,291.667,261.001c5.245,6.534,6.511,20.945,8.828,29.514
		c1.414,5.226,1.854,10.583,3.172,15.82"/>
	<path fill="none" stroke="#000000" stroke-width="2" stroke-linecap="round" stroke-linejoin="round" stroke-miterlimit="10" d="
		M303.667,306.334c1.008,13.832-6.99,26.168-15.464,36.632c-10.055,12.416-16.062,27.327-23.869,41.368"/>
	<path fill="none" stroke="#000000" stroke-width="2" stroke-linecap="round" stroke-linejoin="round" stroke-miterlimit="10" d="
		M251.667,323.001c-3.024,4.692-11.091,8.883-13.367,13.965c-1.563,3.49-1.249,9.101-1.932,12.93
		c-1.502,8.431-0.779,17.547-8.585,21.885c0.041,3.094,1.361,7.049,0.551,9.22"/>
	<path fill="none" stroke="#000000" stroke-width="2" stroke-linecap="round" stroke-linejoin="round" stroke-miterlimit="10" d="
		M223.667,369.001L223.667,369.001c-0.517,4.666-2.126,9.927,0.163,13.91c1.994,3.473,4.643,5.129,8.081,7.557
		c9.274,6.546,19.187,12.894,28.774,18.431c1.133,0.568,1.133,0.568,0,0"/>
	<path fill="none" stroke="#000000" stroke-width="2" stroke-linecap="round" stroke-linejoin="round" stroke-miterlimit="10" d="
		M241.66,397.119c-3.153-1.797-8.915-19.785-17.83-14.208"/>
	<path fill="none" stroke="#000000" stroke-width="2" stroke-linecap="round" stroke-linejoin="round" stroke-miterlimit="10" d="
		M264.334,384.334c-4,7.961-7.12,13.693-11.848,19.674"/>
	<path fill="none" stroke="#000000" stroke-width="2" stroke-linecap="round" stroke-linejoin="round" stroke-miterlimit="10" d="
		M185.667,410.667c-0.262,7.001,5.912,22.473,14,23.261c4.793,0.468,16.806,1.246,21.531,0.406c5.399-0.959,18.086-5.806,22.469-4"
		/>
	<path fill="none" stroke="#000000" stroke-width="2" stroke-linecap="round" stroke-linejoin="round" stroke-miterlimit="10" d="
		M217.828,434.649c5.701-0.003,16.804,3.622,27.839,1.535c7.804-1.476,19.134-1.95,25.899-5.354
		c-4.75-7.145,5.356-6.185,9.285-9.328c5.779-4.624,1.949-9.778,0.947-16.539c-1.219-8.227-2.533-16.634-2.131-25.085
		c0.389-8.099,4.507-22.767,3.945-30.683"/>
	<path fill="none" stroke="#000000" stroke-width="2" stroke-linecap="round" stroke-linejoin="round" stroke-miterlimit="10" d="
		M161.667,254.334c-0.258,0.375,1.369-1.966,0.544-0.773c-6.937,16.291,3.982,35.904,7.271,52.284
		c1.911,9.519,8.398,26.783,2.851,34.324"/>
	<path fill="none" stroke="#000000" stroke-width="2" stroke-linecap="round" stroke-linejoin="round" stroke-miterlimit="10" d="
		M174.852,264.388C174.671,263.526,175.052,265.261,174.852,264.388c-1.802,6.499,2.098,17.622,2.702,24.904
		c0.766,9.25,1.758,19.134,0.746,28.242c-1.402,12.619-5.733,23.537-11.783,34.77c-3.122,5.797-6.271,11.317-8.998,17.33
		c-2.31,5.092-8.804,12.528-8.368,17.886c0.391,4.806,5.282,11.908,7.034,16.682c1.699,4.629,3.004,10.829,5.482,14.8"/>
	<path fill="none" stroke="#000000" stroke-width="2" stroke-linecap="round" stroke-linejoin="round" stroke-miterlimit="10" d="
		M166.523,421.668c0.96,3.159-0.944,2.362-1.234,6.181c8.971,0.078,20.546,4.957,28.378,3.819"/>
	<path fill="none" stroke="#000000" stroke-width="2" stroke-linecap="round" stroke-linejoin="round" stroke-miterlimit="10" d="
		M161.667,419.001c1.829,4.008,22.26,3.973,26.991,5.333"/>
	<path fill="none" stroke="#000000" stroke-width="2" stroke-linecap="round" stroke-linejoin="round" stroke-miterlimit="10" d="
		M268.333,433c-0.017,5.166,0,6.667,1.013,8.958"/>
	<path fill="none" stroke="#000000" stroke-width="2" stroke-linecap="round" stroke-linejoin="round" stroke-miterlimit="10" d="
		M167.128,431.84c16.813,5.252,32.37,10.865,49.882,15.711c9.364,2.591,24.193,1.438,33.561-0.551
		c3.808-0.809,18.103-3.392,18.773-5.042"/>
	<path fill="none" stroke="#000000" stroke-width="2" stroke-linecap="round" stroke-linejoin="round" stroke-miterlimit="10" d="
		M269.346,441.958c2,11.333,0.788,16.796,0.5,27.129"/>
	<path fill="none" stroke="#000000" stroke-width="2" stroke-linecap="round" stroke-linejoin="round" stroke-miterlimit="10" d="
		M269.846,469.087c-0.146,5.656-4.734,28.115-5.512,33.58c-0.859,6.041-5.413,9.799-6.668,15.667
		c-3.626,16.957-7.251,25.169-10.531,35.161"/>
	<path fill="none" stroke="#000000" stroke-width="2" stroke-linecap="round" stroke-linejoin="round" stroke-miterlimit="10" d="
		M247.135,553.495c0,41.717,5.508,69.973,3.438,97.505"/>
	<path fill="none" stroke="#000000" stroke-width="2" stroke-linecap="round" stroke-linejoin="round" stroke-miterlimit="10" d="
		M251,646.334c-2.279,26.561,5.143,51.385,8,67.166c1.396,7.712-0.936,2.533,1.116,10.092c2.649,9.771-12.356,10.109-4.61,22.658
		c-0.003,5.107,3.239,20.281-4.515,17.225"/>
	<path fill="none" stroke="#000000" stroke-width="2" stroke-linecap="round" stroke-linejoin="round" stroke-miterlimit="10" d="
		M172.333,468.334c0.15,0.076,5.42,5.726,6.585,8.553c-3.482,3.365-1.817,20.055-1.251,25.562
		c1.318,12.843,1.344,25.782,1.333,38.923c-0.01,12.805-0.694,26.64,2.484,38.895c2.911,11.227,7.376,23.717,6.849,34.735"/>
	<path fill="none" stroke="#000000" stroke-width="2" stroke-linecap="round" stroke-linejoin="round" stroke-miterlimit="10" d="
		M188.333,615c1.097,11.251-3.669,23.518-2.699,34.765c0.684,7.92,4.553,16.836,6.2,24.778c2.202,10.619,2.308,12.223-0.835,21.824
		c-3.35,10.229-7.243,22.248-9.332,32.633"/>
	<path fill="none" stroke="#000000" stroke-width="2" stroke-linecap="round" stroke-linejoin="round" stroke-miterlimit="10" d="
		M166.523,430.668c-4.855,26.332-11.307,64.816-6.819,94.333c3.769,24.789,3.559,49.813,3.297,74.632
		c-0.211,20.057-5.916,40.52-1.889,59.767c2.339,11.178,4.473,22.241,5.37,33.617c0.652,8.27-2.122,15.749-2.31,24.079
		c-1.043,0.698-0.121-0.348,0.161-0.762"/>
	<path fill="none" stroke="#000000" stroke-width="2" stroke-linecap="round" stroke-linejoin="round" stroke-miterlimit="10" d="
		M167,428.334c0.922,0.682,0.389,0.384-0.478,2.334"/>
	<path fill="none" stroke="#000000" stroke-width="2" stroke-linecap="round" stroke-linejoin="round" stroke-miterlimit="10" d="
		M217.172,464.75c3.174,8.462,24.913,23.5,31.914,23.5"/>
	<path fill="none" stroke="#000000" stroke-width="2" stroke-linecap="round" stroke-linejoin="round" stroke-miterlimit="10" d="
		M182.333,729c-1.872,3.576-7.622,3.992-11.333,5.367c-4.864,1.802-5.853,2.051-9.314,6.633c-5.251,6.951-12.251,16.098-8.021,24.5
		c10.497,0.767,36.108,4.727,49.327,4.833c14.447,0.116,22.779-1.037,27.119-1.776"/>
	<path fill="none" stroke="#000000" stroke-width="2" stroke-linecap="round" stroke-linejoin="round" stroke-miterlimit="10" d="
		M181,730.333c1.773-4.313,18.755-1.451,23.35,0.649c6.205,2.837,11.047,10.229,15.871,15.252c5.82,6.061,12.58,3.063,18.146,7.435
		c3.192,2.508,11.672,2.887,11.692,6.988c-5.324,1.421-8.789,4.583-19.947,7.898"/>
	<path fill="none" stroke="#000000" stroke-width="2" stroke-linecap="round" stroke-linejoin="round" stroke-miterlimit="10" d="
		M171,735.667c15.358,0.053,31.523,11.354,32.667,27.333"/>
	<path fill="none" stroke="#000000" stroke-width="2" stroke-linecap="round" stroke-linejoin="round" stroke-miterlimit="10" d="
		M153.665,759c15.005,2.496,35.013,2.557,50.002,4c11.448,1.102,29.726-1.766,40.013-6.25"/>
	<path fill="none" stroke="#000000" stroke-width="2" stroke-linecap="round" stroke-linejoin="round" stroke-miterlimit="10" d="
		M207.641,734.236c0.865,0.125,0,0,0.01,0.764c-3.152,4.202-7.177,9.674-9.316,14"/>
	<path fill="none" stroke="#000000" stroke-width="2" stroke-linecap="round" stroke-linejoin="round" stroke-miterlimit="10" d="
		M179.667,732.333c9.487-0.302,15.972,3.692,22.187,10.746"/>
	<path fill="none" stroke="#000000" stroke-width="2" stroke-linecap="round" stroke-linejoin="round" stroke-miterlimit="10" d="
		M185,729c6.829,0.764,16.882,3.047,19.334,10"/>
	<path fill="none" stroke="#000000" stroke-width="2" stroke-linecap="round" stroke-linejoin="round" stroke-miterlimit="10" d="
		M164.172,717.096c-1.567,7.28-19.557,7.441-25.154,12.527c-5.035,4.573-10.623,14.913-9.917,21.928
		c9.12,2.188,19.096,3.666,22.498,3.559"/>
	<path fill="none" stroke="#000000" stroke-width="2" stroke-linecap="round" stroke-linejoin="round" stroke-miterlimit="10" d="
		M165.665,719.2C165.647,719.135,162.871,718.743,165.665,719.2c2.15,0.353,4.394,1.685,6.521,2.319
		c4.107,1.229,10.359,1.29,9.482,7.479"/>
	<path fill="none" stroke="#000000" stroke-width="2" stroke-linecap="round" stroke-linejoin="round" stroke-miterlimit="10" d="
		M147.667,726.333c6.831,0.741,13.905,6.712,14.289,13.885c-0.345-0.562,0,0-0.289-0.551"/>
	<path fill="none" stroke="#000000" stroke-width="2" stroke-linecap="round" stroke-linejoin="round" stroke-miterlimit="10" d="
		M159,732.32c0.108-4.31,10.988-7.812,16.667-8.653"/>
	<path fill="none" stroke="#000000" stroke-width="2" stroke-linecap="round" stroke-linejoin="round" stroke-miterlimit="10" d="
		M129.667,748.333c9.835,0.891,15.799,4.265,25.35,2.542"/>
	<path fill="none" stroke="#000000" stroke-width="2" stroke-linecap="round" stroke-linejoin="round" stroke-miterlimit="10" d="
		M152.365,725c3.145-0.229,6.667,1.831,8.635,4"/>
	<path fill="none" stroke="#000000" stroke-width="2" stroke-linecap="round" stroke-linejoin="round" stroke-miterlimit="10" d="
		M157,723c2.643,1.83,4.476,0.964,7.172,3.055"/>
	<path fill="none" stroke="#000000" stroke-width="2" stroke-linecap="round" stroke-linejoin="round" stroke-miterlimit="10" d="
		M161.333,722c3.458,0.211,6.298,0.227,9,2.333"/>
	<path fill="none" d="M193.668,307.666c1.95,21.411-12.995,41.642-22.832,59.331c-8.808,15.839,0.442,38.579,3.498,54.003"/>
	<path fill="none" stroke="#000000" stroke-width="2" stroke-linecap="round" stroke-linejoin="round" stroke-miterlimit="10" d="
		M191.001,306.999c1.177,25.763-9.456,43.755-20.018,66.484c-4.091,8.803-5.762,13.927-3.333,23.296
		c2.18,8.413,4.4,17.384,7.386,25.351c-0.032-0.552-0.119,0.54,0,0"/>
</g>
<g id="Layer_5" opacity="0">
	<path fill="none" stroke="#000000" stroke-width="50" stroke-linecap="round" stroke-linejoin="round" stroke-miterlimit="10" d="
		M99.5,118.5c28.901-8.002,57.288-19.958,86-29"/>
	<path fill="none" stroke="#000000" stroke-width="50" stroke-linecap="round" stroke-linejoin="round" stroke-miterlimit="10" d="
		M237.5,108.5c-47.121,12.663-101.588,19.764-142,50"/>
	<path fill="none" stroke="#000000" stroke-width="50" stroke-linecap="round" stroke-linejoin="round" stroke-miterlimit="10" d="
		M79.5,175.5c6.979,1.028,15.323-3.797,22.024-5.957c16.985-5.474,34.292-10.121,51.63-14.313
		c32.734-7.916,68.619-17.583,102.345-19.729"/>
	<path fill="none" stroke="#000000" stroke-width="50" stroke-linecap="round" stroke-linejoin="round" stroke-miterlimit="10" d="
		M254.5,149.5c-20.164,8.939-43.856,13.692-64.866,20.658C154.328,181.863,117.375,194.976,85.5,214.5"/>
	<path fill="none" stroke="#000000" stroke-width="50" stroke-linecap="round" stroke-linejoin="round" stroke-miterlimit="10" d="
		M94.5,221.5c7.595-0.088,15.754-4.684,22.928-6.932c16.42-5.147,32.931-9.739,49.762-13.338
		c36.538-7.813,74.039-9.25,110.31-16.729"/>
	<path fill="none" stroke="#000000" stroke-width="50" stroke-linecap="round" stroke-linejoin="round" stroke-miterlimit="10" d="
		M291.5,187.5c-26.796,10.208-55.845,16.301-83.097,25.957C174.23,225.566,142.74,240.593,114.5,263.5"/>
	<path fill="none" stroke="#000000" stroke-width="50" stroke-linecap="round" stroke-linejoin="round" stroke-miterlimit="10" d="
		M144.5,261.5c45.805-7.189,91.251-22.301,137-31"/>
	<path fill="none" stroke="#000000" stroke-width="50" stroke-linecap="round" stroke-linejoin="round" stroke-miterlimit="10" d="
		M309.5,242.5c-48.78,18.263-103.026,27.171-147,57"/>
	<path fill="none" stroke="#000000" stroke-width="50" stroke-linecap="round" stroke-linejoin="round" stroke-miterlimit="10" d="
		M186.5,304.5c30.434-5.156,60.234-12.29,91-16"/>
	<path fill="none" stroke="#000000" stroke-width="50" stroke-linecap="round" stroke-linejoin="round" stroke-miterlimit="10" d="
		M334.5,307.5c-12.37,2.596-25.466,3.676-38.048,5.735c-45.744,7.486-90.809,17.606-135.952,28.265"/>
	<path fill="none" stroke="#000000" stroke-width="50" stroke-linecap="round" stroke-linejoin="round" stroke-miterlimit="10" d="
		M140.5,358.5c17.378,5.512,45.866-2.556,63.248-4.052c31.283-2.692,62.447-2.62,93.752-1.948"/>
	<path fill="none" stroke="#000000" stroke-width="50" stroke-linecap="round" stroke-linejoin="round" stroke-miterlimit="10" d="
		M307.5,368.5c-13.981,5.211-36.159,0.959-51.044,1.71c-35.825,1.806-69.229,10.045-103.956,18.29"/>
	<path fill="none" stroke="#000000" stroke-width="50" stroke-linecap="round" stroke-linejoin="round" stroke-miterlimit="10" d="
		M147.5,406.5c48.105,4.546,96.604-3.205,145,3"/>
	<path fill="none" stroke="#000000" stroke-width="50" stroke-linecap="round" stroke-linejoin="round" stroke-miterlimit="10" d="
		M291.5,429.5c-14.182,5.064-36.446-1.165-51.342-0.82c-29.872,0.69-58.216,7.308-87.658,10.82"/>
	<path fill="none" stroke="#000000" stroke-width="50" stroke-linecap="round" stroke-linejoin="round" stroke-miterlimit="10" d="
		M140.5,456.5c14.31,5.812,34.616,1.662,49.506,1.178c35.043-1.139,71.939,0.521,106.494,6.822"/>
	<path fill="none" stroke="#000000" stroke-width="50" stroke-linecap="round" stroke-linejoin="round" stroke-miterlimit="10" d="
		M265.5,483.5c-38.168,8.022-76.131,12.845-114,23"/>
	<path fill="none" stroke="#000000" stroke-width="50" stroke-linecap="round" stroke-linejoin="round" stroke-miterlimit="10" d="
		M134.5,523.5c40.345-0.046,80.565-5.106,121-5"/>
	<path fill="none" stroke="#000000" stroke-width="50" stroke-linecap="round" stroke-linejoin="round" stroke-miterlimit="10" d="
		M290.5,533.5c-10.737,8.714-30.643,8.1-43.667,10.983c-30.219,6.692-61.633,13.151-90.333,25.017"/>
	<path fill="none" stroke="#000000" stroke-width="50" stroke-linecap="round" stroke-linejoin="round" stroke-miterlimit="10" d="
		M139.5,589.5c18.24,1.482,38.64-4.281,56.884-5.774c25.22-2.062,56.336-5.502,81.116,0.774"/>
	<path fill="none" stroke="#000000" stroke-width="50" stroke-linecap="round" stroke-linejoin="round" stroke-miterlimit="10" d="
		M263.5,606.5c-10.304,7.811-26.771,8.522-38.909,11.925c-20.124,5.643-40.674,11.289-60.091,19.075"/>
	<path fill="none" stroke="#000000" stroke-width="50" stroke-linecap="round" stroke-linejoin="round" stroke-miterlimit="10" d="
		M117.5,661.5c13.763,4.704,37.015-2.515,51.183-3.774c30.014-2.667,60.708-3.341,90.817-3.226"/>
	<path fill="none" stroke="#000000" stroke-width="50" stroke-linecap="round" stroke-linejoin="round" stroke-miterlimit="10" d="
		M246.5,681.5c-36.707,11.723-75.954,15.975-113,27"/>
	<path fill="none" stroke="#000000" stroke-width="50" stroke-linecap="round" stroke-linejoin="round" stroke-miterlimit="10" d="
		M110.5,721.5c21.048,5.303,47.483-1.533,68.775-2.803c33.175-1.977,66.109-0.079,99.225-0.197"/>
	<path fill="none" stroke="#000000" stroke-width="50" stroke-linecap="round" stroke-linejoin="round" stroke-miterlimit="10" d="
		M280.5,749.5c-14.402,1.867-33.029-4.652-47.861-5.745c-35.042-2.583-70.991-3.619-106.139-4.255"/>
	<path fill="none" stroke="#000000" stroke-width="50" stroke-linecap="round" stroke-linejoin="round" stroke-miterlimit="10" d="
		M158.5,765.5c10.117,2.801,22.484,2.112,32.98,2.753c29.988,1.829,60.014,3.312,90.02,1.247"/>
	<path fill="none" stroke="#000000" stroke-width="50" stroke-linecap="round" stroke-linejoin="round" stroke-miterlimit="10" d="
		M382.5,397.5c-0.349,1.039-0.788,2.038-1.317,2.995c-1.4-0.542-0.068-0.968,0.317-1.995"/>
</g>
</svg>
