<?xml version="1.0" encoding="utf-8"?>
<!-- Generator: Adobe Illustrator 23.0.4, SVG Export Plug-In . SVG Version: 6.00 Build 0)  -->
<svg version="1.1" id="Layer_1" xmlns="http://www.w3.org/2000/svg" xmlns:xlink="http://www.w3.org/1999/xlink" x="0px" y="0px"
	 width="1000px" height="1000px" viewBox="0 0 1000 1000" enable-background="new 0 0 1000 1000" xml:space="preserve">
<g id="vs-secondary">
	<path fill="#FF5648" d="M493,375.6c0,0,64.4,0.5,146.5-10c17.3-2.2-45.4-54.6-44.6-67.9c2.5-40.6,72.6-52.4,75.2-52.4
		c4,0.1,99.5,8.8,96.9,54.2c-2.1,35.4-79.5,68.3-36.7,74.6c65.8,9.6,103.3,7.7,103.3,7.7S858,456,855.8,538.4
		s-22.2,163.5-22.2,163.5s-70.6,8.8-166.9,4.4s-171-11.9-171-11.9s7.7-98.8,10.7-106.2s4.4-17.9,17.9-14.8c13.5,3.1,35.7,47,60.1,47
		c24.4,0,50.5-28.8,51.8-76.7s-21.4-97.5-47-95.8c-25.7,1.8-32.1,20-45.6,35.9s-27,16.2-30.2,11.2s-6.9-28.3-6.9-28.3
		S499.6,389.7,493,375.6z"/>
</g>
<g id="vs-primary">
	<path fill="#27A8CB" d="M169,376.7c0,0,34.6-6.4,108.1-6.2c2.9,0-32.7,56.9-28.4,63.9c37,59.7,163.2,21,155-8.4
		c-3.4-12.4-35.2-57-31.9-57c75.1,1.1,113.4,2.5,113.9,4.4c0.4,2,8.2,41.9,15.7,78s1.1,42.7,11.5,44.5c10.4,1.8,23.6-1.8,31.3-19.1
		s17.4-30.8,41.8-28.3c24.3,2.4,42.7,29.8,47.7,83.4c4.9,53.6-26.4,80.8-35.8,84c-9.4,3.2-29.8,7.3-39,0
		c-9.1-7.3-21.8-42.6-34.8-41.8c-13.1,0.9-20-1.2-19.8,19.6c0.2,20.9-15,98.8-15,98.8s-53.6,5.1-116.5,7.7
		c-12,0.5,64.5-60.9,30.1-84.1c-14.2-9.6-30.4-14.8-72.2-15.2c-3.4,0-83.4,2.1-81.7,31.6c0.6,11.5,50.4,67.2,39.3,67
		c-27-0.4-53.7,0.3-73.4-2.9c0,0-42.1,2.9-43.9-9.5c-1.8-12.4-13.4-118.5-9.9-160.8C164.4,483.9,169,376.7,169,376.7z"/>
</g>
<g id="vs-shadow">
</g>
<g id="vs-outline">
	
		<path fill="none" stroke="#2B2B2B" stroke-width="17.5882" stroke-linecap="round" stroke-linejoin="round" stroke-miterlimit="10" d="
		M489.1,693.9c4.3-18.8,7.6-36.6,10.1-53.9c2.5-17.2,4.2-34,5.3-50.8c0.4-7.4,5.2-12.6,11.1-14.7c5.9-2.1,12.9-1,17.9,4.5
		c1.8,2,3.9,4.6,6,7.6s4.3,6.3,6.3,9.8c6.5,11.3,12.8,17.2,19,20.2s12.2,3.1,18.3,2.9c14.4-0.4,27-9.8,36.1-24.8s14.4-36,14.4-59.6
		c0-23.6-5.6-45.3-14.9-61.1c-9.2-15.8-22-25.7-36.2-25.7c-5.6,0-11.8,1.1-17.9,4.6c-6.1,3.4-12.1,9.2-17.2,18.7
		c-3.4,5.7-6.2,10.1-8.5,13.6c-2.4,3.5-4.4,6.1-6.5,8.2c-5.1,5-12,5.8-17.6,3.6c-5.7-2.2-10.2-7.5-10.7-14.5
		c-2.2-32.1-5.9-58.7-9.1-77.4s-5.7-29.2-5.7-29.2c-42.5-3.1-83.7-4.6-121.6-5.2c-7.7-0.1,34.7,31.1,39.3,57.3
		c3.3,18.8-13.2,35-82,35c-65.1,0-80-16.9-76.9-36.1c4.1-25.9,40.8-56.2,32.2-56.1c-4.4,0.1-8.7,0.2-12.8,0.3
		c-58.2,1.4-95.3,4.3-95.3,4.3s-6.2,39-9.2,98.4c-3.1,59.4-3.1,138.9,9.2,219.9c0,0,12.8,1.1,34.7,2.5c21.9,1.3,52.9,2.9,89.5,3.6
		c5.7,0.1-28.1-24.4-42.2-48.8s-8.5-49,75.9-49c82.9,0,89.3,24.5,76.2,49.2c-12.9,24.5-45.1,49.1-39.1,49
		c19.4-0.3,39.6-0.8,60.1-1.8C447.4,697.1,468.3,695.8,489.1,693.9"/>
	
		<path fill="none" stroke="#2B2B2B" stroke-width="17.5882" stroke-linecap="round" stroke-linejoin="round" stroke-miterlimit="10" d="
		M494.5,694.3"/>
	
		<path fill="none" stroke="#2B2B2B" stroke-width="17.5882" stroke-linecap="round" stroke-linejoin="round" stroke-miterlimit="10" d="
		M494.5,694.3c10.9,1.5,53.9,6.9,114.9,10s140.1,3.8,223-4.3c0,0,12.5-34.7,18.7-91.9s6.2-136.7-18.7-226.4c-13.9-1.6-27.9-3-42-4.1
		c-14.2-1.1-28.3-2.1-42.4-2.9c-14.9-0.6-23.7-4-27.4-8.5c-3.7-4.6-2.4-10.5,3.2-16.3c1.8-1.9,4.7-4.6,8-7.2s7-5.2,10.6-7.1
		c11.6-6,17.8-12,21-18.1c3.3-6.1,3.6-12.1,3.7-18.1c0.3-14.4-8.5-27.4-23.2-37.1s-35.4-16-58.9-17.1c-23.6-1.1-45.6,3.6-61.7,12
		c-16.2,8.4-26.6,20.8-27.3,35.1c-0.3,5.5,0.5,11.9,3.7,18.1s8.7,12.5,17.9,18.1c5.5,3.7,9.8,6.5,13.3,9.1c3.4,2.6,5.9,4.7,7.7,6.9
		c5,6.1,6.4,12.8,3.3,18.1s-10.8,9.1-24,9.1c-36.6,0.2-68.2,1.1-90.5,2.1c-22.3,0.9-35.6,1.8-35.6,1.8"/>
</g>
<g id="vs-reveal">
	
		<path fill="none" stroke="#31EF0F" stroke-width="131.9113" stroke-linecap="round" stroke-linejoin="round" stroke-miterlimit="10" stroke-opacity="0" d="
		M835.9,280.1c0,0-229.7,18.4-430.5,38.7C204.6,339.1,32.8,361.4,148.7,369c115.9,7.7,331.5,10,500.4,13.1
		c168.8,3,290.9,6.8,219.6,17.1S581.2,419.5,397.8,429S63.6,447.6,123,456.6c59.4,8.9,280.5,11.4,472,14.8
		c191.4,3.3,353.4,7.6,294.5,20s-286.4,25-480.4,38.2c-194,13.2-354.4,27.1-279.2,42c75.3,14.9,275.9,17,451.5,16.4
		c175.7-0.5,326.4-3.5,302.2,1.4c-24.3,4.9-238.9,25.2-433,44.9s-367.7,38.8-309.7,41.2c58,2.5,262.7,3.3,441.5,4.5
		s331.5,3,285.5,7.4"/>
</g>
</svg>
