<?xml version="1.0" encoding="utf-8"?>
<!-- Generator: Adobe Illustrator 24.1.2, SVG Export Plug-In . SVG Version: 6.00 Build 0)  -->
<svg version="1.1" id="Layer_1" xmlns="http://www.w3.org/2000/svg" xmlns:xlink="http://www.w3.org/1999/xlink" x="0px" y="0px"
	 width="800px" height="800px" viewBox="0 0 800 800" enable-background="new 0 0 800 800" xml:space="preserve">
<g id="vs-primary">
	<path fill="#27A8CB" d="M63.9,66.9c0,0-21.6,15.2,12.4,50.3s93.2,96.4,93.2,96.4S249.7,318.4,261,339
		c11.2,20.6,45.1,62.6,75.8,94.3s260.5,269.4,260.5,269.4l36,37.3c0,0,42.2,29.8,75.3-2.2s19-70.1,11.2-78.2s-43.4-44.9-43.4-44.9
		l-255-263.8c0,0-68.7-63.5-92.3-80.8c-23.6-17.4-97.9-75.1-117.5-93.5S105,66.4,105,66.4S85.2,46.2,63.9,66.9z"/>
</g>
<g id="vs-secondary">
	<path fill="#FF5648" d="M67,65.8c0,0-22.2,17,1,42c0,0,4.5,8,12.9,9.4c8.5,1.4,15.5,6.4,17.3,7.9c1.9,1.6,51.2,50.8,51.2,50.8
		l165,170.7L555.5,596l41,41.4c0,0,9.5,4.7,16.8-2.3s1.8-18.5,1.8-18.5L485,481.8L141.4,126.4c0,0-35.8-37.4-23.6-44.1
		C117.8,82.3,90.4,43.3,67,65.8z"/>
</g>
<g id="vs-colour">
	<path fill="#FFFFFF" d="M704.7,727.7c-9.3,9-21.1,11.8-26.4,6.3c-5.3-5.5,4.2-10.7,13.5-19.7s14.8-18.3,20.1-12.8
		C717.1,707,713.9,718.7,704.7,727.7z"/>
</g>
<g id="vs-shade">
</g>
<g id="vs-outline">
	
		<path fill="none" stroke="#2B2B2B" stroke-width="12.1444" stroke-linecap="round" stroke-linejoin="round" stroke-miterlimit="10" d="
		M336.2,347.2"/>
	
		<path fill="none" stroke="#2B2B2B" stroke-width="12.1444" stroke-linecap="round" stroke-linejoin="round" stroke-miterlimit="10" d="
		M338.2,349.2"/>
	
		<path fill="none" stroke="#2B2B2B" stroke-width="12.1444" stroke-linecap="round" stroke-linejoin="round" stroke-miterlimit="10" d="
		M102.9,66.8c-1.3-1.4-2.8-2.6-4.3-3.6s-3.1-1.9-4.8-2.6s-3.4-1.2-5.1-1.6c-1.7-0.3-3.5-0.5-5.3-0.5s-3.5,0.2-5.3,0.5
		c-1.7,0.3-3.5,0.9-5.1,1.6c-1.7,0.7-3.3,1.6-4.8,2.6s-3,2.3-4.3,3.6c-1.3,1.3-2.4,2.7-3.3,4.2c-0.9,1.5-1.7,3.1-2.3,4.7
		s-1.1,3.3-1.4,5c-0.3,1.7-0.4,3.4-0.4,5.1s0.2,3.4,0.6,5.1s0.9,3.4,1.5,5s1.5,3.2,2.4,4.7c1,1.5,2.1,2.9,3.4,4.2l8.3,8.6L81,122
		l8.3,8.6l8.3,8.6l8.3,8.6l8.3,8.6l8.3,8.6l8.3,8.6c5.2,5.4,10.4,10.8,15.4,16.3c5.1,5.5,10.1,11.1,15.1,16.7
		c5,5.6,9.9,11.3,14.7,17s9.6,11.5,14.3,17.3s9.3,11.7,13.9,17.7c4.6,5.9,9.1,11.9,13.5,18c4.4,6,8.8,12.1,13.1,18.3
		c4.3,6.1,8.5,12.3,12.7,18.6l0.2,0.3l0.2,0.3l0.2,0.3l0.2,0.3l0.2,0.3l0.2,0.3l0.2,0.3l0.2,0.3c4.2,6.2,8.4,12.4,12.7,18.6
		c4.3,6.1,8.7,12.2,13.1,18.3c4.4,6,8.9,12,13.5,18c4.6,5.9,9.2,11.8,13.9,17.7c4.7,5.8,9.5,11.6,14.3,17.3
		c4.8,5.7,9.7,11.4,14.7,17s10,11.2,15.1,16.7s10.2,11,15.4,16.3l33.7,34.9l33.7,34.9l33.7,34.9l33.7,34.9l33.7,34.9l33.7,34.9
		l33.7,34.9l33.7,34.9c2.9,2.9,6.1,5.4,9.5,7.6c3.3,2.2,6.9,4,10.5,5.4s7.4,2.5,11.1,3.2c3.8,0.7,7.6,1,11.5,1s7.7-0.4,11.5-1.2
		s7.5-1.9,11.1-3.4s7.1-3.3,10.4-5.6c3.3-2.2,6.5-4.8,9.4-7.8c2.9-2.9,5.4-6.1,7.6-9.5c2.2-3.3,4-6.9,5.4-10.5s2.5-7.4,3.2-11.1
		c0.7-3.8,1-7.6,1-11.5c0-3.8-0.4-7.7-1.2-11.5s-1.9-7.5-3.4-11.1s-3.3-7.1-5.6-10.4c-2.2-3.3-4.8-6.5-7.8-9.4l-33.7-34.8
		l-33.7-34.8l-33.7-34.8L576.8,510l-33.7-34.8l-33.7-34.8l-33.7-34.8L442,370.8c-5.2-5.4-10.6-10.8-15.9-16.1
		c-5.4-5.3-10.8-10.6-16.3-15.7c-5.5-5.2-11-10.3-16.6-15.4s-11.3-10-17-15s-11.5-9.8-17.3-14.6c-5.8-4.8-11.7-9.5-17.6-14.2
		s-11.9-9.3-18-13.8c-6-4.5-12.1-9-18.3-13.4l0,0l0,0l0,0l0,0l0,0l0,0l0,0l0,0c-6.1-4.4-12.2-8.8-18.3-13.4c-6-4.5-12-9.1-18-13.8
		c-5.9-4.7-11.8-9.4-17.6-14.2c-5.8-4.8-11.6-9.7-17.3-14.6c-5.7-4.9-11.4-9.9-17-15s-11.1-10.2-16.6-15.4s-10.9-10.4-16.3-15.7
		c-5.4-5.3-10.7-10.7-15.9-16.1l-8.2-8.5l-8.2-8.5l-8.2-8.5l-8.2-8.5l-8.2-8.5l-8.2-8.5l-8.2-8.5L102.9,66.8"/>
	
		<path fill="none" stroke="#2B2B2B" stroke-width="7.771" stroke-linecap="round" stroke-linejoin="round" stroke-miterlimit="10" d="
		M73.4,114.3C73.4,114.3,73.5,114.3,73.4,114.3c0.2-0.2,2.4-0.9,2.8-0.9s2.7,0.3,3.4,0.5c0.7,0.2,4.1,1.6,5.1,2.1s2.1,1.1,3.2,1.8
		c1.2,0.7,2.4,1.5,3.8,2.5c1.3,0.9,2.8,2,4.3,3.2s3.2,2.5,4.9,4c1.7,1.5,3.6,3.1,5.5,4.9c1.9,1.8,4,3.8,6.2,5.9
		c2.2,2.1,4.5,4.5,6.9,7l15.1,15.6l14.5,15l15.5,16l14.1,14.6l15.4,15.9l14.2,14.7l15.3,15.8l14.3,14.8l15.4,15.9l14.2,14.7
		l15.2,15.7l14.4,14.9l15.3,15.8l14.3,14.8l15.1,15.7l14.5,14.9l15.4,15.9l14.2,14.7l14.8,15.3l14.8,15.3l15.1,15.6l14.5,15l15,15.5
		l14.6,15.1l15.3,15.8l14.3,14.8l15.6,16.1l14,14.5l15.3,15.8l14.3,14.8l15.3,15.8l14.3,14.8c0.3,0.4,1.9,1.6,2.2,1.9
		c0.4,0.3,2,1.1,2.5,1.3s2.2,0.8,2.6,0.9c0.4,0.1,2.3,0.3,2.8,0.3s2.3-0.1,2.8-0.2s2.2-0.6,2.6-0.7c0.4-0.2,2.1-1,2.5-1.3
		s1.9-1.4,2.3-1.8c0.4-0.3,1.6-1.9,1.9-2.2s1.1-2,1.3-2.5c0.2-0.4,0.8-2.2,0.9-2.6c0.1-0.4,0.3-2.3,0.3-2.8s-0.1-2.3-0.2-2.8
		c-0.1-0.5-0.6-2.2-0.7-2.6c-0.2-0.4-1-2.1-1.3-2.5s-1.4-1.9-1.8-2.3l-15-15.5L584,584.2l-14.9-15.4l-14.8-15.3l-14.9-15.4
		l-14.8-15.3l-15.1-15.6l-14.6-15.1l-15.3-15.8l-14.4-14.9L450.3,446l-14.8-15.3L421,415.6L405.9,400l-14.2-14.6l-15.5-16.1
		l-14.7-15.2l-15-15.5l-14.5-15l-15.2-15.7l-13.9-14.4l-15.8-16.3L272,261.6l-14.6-15.1l-14.7-15.2l-15-15.5l-14.6-15.1L198,185.1
		l-15-15.6l-14.7-15.1l-14.6-15l-15.1-15.7c0,0-4-4.3-4.7-5.1s-4-4.5-4.8-5.6c-0.9-1.1-4.5-5.8-5.5-7c-0.9-1.2-1.8-2.5-2.7-3.8
		c-0.9-1.3-1.8-2.6-2.6-4c-0.8-1.3-1.7-2.7-2.4-4.1c-0.8-1.4-1.5-2.7-2.1-4.1c-0.6-1.4-1.2-2.7-1.7-4.1c-0.5-1.4-0.9-2.7-1.2-4
		c-0.3-1.3-0.5-2.6-0.7-3.8s-0.1-2.4,0-3.6"/>
	
		<path fill="none" stroke="#2B2B2B" stroke-width="7.771" stroke-linecap="round" stroke-linejoin="round" stroke-miterlimit="10" d="
		M405,334c0,0,0,0.1,0,0.4c0,0.2,0,0.6,0,1.1s-0.1,1-0.3,1.7s-0.4,1.5-0.8,2.4s-0.8,2-1.5,3.1c-0.6,1.1-1.4,2.4-2.4,3.8
		s-2.1,2.8-3.5,4.4s-3,3.3-4.8,5"/>
	
		<path fill="none" stroke="#2B2B2B" stroke-width="7.771" stroke-linecap="round" stroke-linejoin="round" stroke-miterlimit="10" d="
		M467.1,398.3c0,0,0,0.1,0,0.4c0,0.2,0,0.6,0,1.1s-0.1,1-0.3,1.7c-0.2,0.7-0.4,1.5-0.8,2.4s-0.8,2-1.5,3.1c-0.6,1.1-1.4,2.4-2.4,3.8
		s-2.1,2.8-3.5,4.4s-3,3.3-4.8,5"/>
	
		<path fill="none" stroke="#2B2B2B" stroke-width="7.771" stroke-linecap="round" stroke-linejoin="round" stroke-miterlimit="10" d="
		M529.2,462.5c0,0,0,0.1,0,0.4c0,0.2,0,0.6,0,1.1s-0.1,1-0.3,1.7s-0.4,1.5-0.8,2.4c-0.4,0.9-0.8,2-1.5,3.1c-0.6,1.1-1.4,2.4-2.4,3.8
		s-2.1,2.8-3.5,4.4s-3,3.3-4.8,5"/>
	
		<path fill="none" stroke="#2B2B2B" stroke-width="7.771" stroke-linecap="round" stroke-linejoin="round" stroke-miterlimit="10" d="
		M591.3,526.7c0,0,0,0.1,0,0.4c0,0.2,0,0.6,0,1.1s-0.1,1-0.3,1.7s-0.4,1.5-0.8,2.4c-0.4,0.9-0.8,2-1.5,3.1c-0.6,1.1-1.4,2.4-2.4,3.8
		c-1,1.4-2.1,2.8-3.5,4.4s-3,3.3-4.8,5"/>
	
		<path fill="none" stroke="#2B2B2B" stroke-width="7.771" stroke-linecap="round" stroke-linejoin="round" stroke-miterlimit="10" d="
		M653.4,590.9c0,0,0,0.1,0,0.4c0,0.2,0,0.6,0,1.1s-0.1,1-0.3,1.7s-0.4,1.5-0.8,2.4s-0.8,2-1.5,3.1c-0.6,1.1-1.4,2.4-2.4,3.8
		c-1,1.4-2.1,2.8-3.5,4.4c-1.4,1.6-3,3.3-4.8,5"/>
	
		<path fill="none" stroke="#2B2B2B" stroke-width="7.771" stroke-linecap="round" stroke-linejoin="round" stroke-miterlimit="10" d="
		M439.9,368.1c0,0,0,0.1,0,0.2s0,0.4-0.1,0.6c0,0.3-0.1,0.6-0.2,1.1c-0.1,0.4-0.3,0.9-0.5,1.4s-0.5,1.2-0.8,1.8s-0.7,1.4-1.2,2.2
		s-1.1,1.6-1.7,2.5c-0.7,0.9-1.4,1.8-2.3,2.8"/>
	
		<path fill="none" stroke="#2B2B2B" stroke-width="7.771" stroke-linecap="round" stroke-linejoin="round" stroke-miterlimit="10" d="
		M499.9,430.2c0,0,0,0.1,0,0.2s0,0.4-0.1,0.6c0,0.3-0.1,0.6-0.2,1.1c-0.1,0.4-0.3,0.9-0.5,1.4s-0.5,1.2-0.8,1.8
		c-0.3,0.7-0.7,1.4-1.2,2.2c-0.5,0.8-1.1,1.6-1.7,2.5c-0.7,0.9-1.4,1.8-2.3,2.8"/>
	
		<path fill="none" stroke="#2B2B2B" stroke-width="7.771" stroke-linecap="round" stroke-linejoin="round" stroke-miterlimit="10" d="
		M562,494.4c0,0,0,0.1,0,0.2s0,0.4-0.1,0.6c0,0.3-0.1,0.6-0.2,1.1c-0.1,0.4-0.3,0.9-0.5,1.4s-0.5,1.2-0.8,1.8s-0.7,1.4-1.2,2.2
		c-0.5,0.8-1.1,1.6-1.7,2.5c-0.7,0.9-1.4,1.8-2.3,2.8"/>
	
		<path fill="none" stroke="#2B2B2B" stroke-width="7.771" stroke-linecap="round" stroke-linejoin="round" stroke-miterlimit="10" d="
		M624.1,558.6c0,0,0,0.1,0,0.2s0,0.4-0.1,0.6c0,0.3-0.1,0.6-0.2,1.1c-0.1,0.4-0.3,0.9-0.5,1.4s-0.5,1.2-0.8,1.8s-0.7,1.4-1.2,2.2
		s-1.1,1.6-1.7,2.5s-1.4,1.8-2.3,2.8"/>
</g>
<g id="vs-reveal">
	
		<path fill="none" stroke="#51FF00" stroke-width="129.5162" stroke-linecap="round" stroke-linejoin="round" stroke-miterlimit="10" stroke-opacity="0" d="
		M81.7,58.6c0,0-3,3.7-7.1,9.1s-9.2,12.4-13.3,19s-7.3,12.8-7.4,16.5c-0.2,3.7,2.7,5,10.5,1.7S80,97.8,87,94.6
		c7-3.2,13-5.8,17.3-6.4s6.8,0.6,6.6,4.9c-0.2,4.4-3,11.8-9.5,23.7s-8.8,20.9-8.4,27.8s3.6,11.7,8.5,15c4.8,3.3,11.2,5,17.9,5.8
		s13.8,0.8,19.9,0.5s12.4-2.6,18.3-5.4c5.8-2.8,11.2-6.3,15.6-9c4.4-2.7,7.8-4.7,9.6-4.6c1.8,0,2,2.1,0.1,7.6
		c-1.9,5.4-4.3,14.4-6.5,24.7c-2.2,10.2-4,21.8-4.9,32.4c-0.9,10.6-0.8,20.2,1,26.6s5.4,9.6,11.4,7.4c6-2.2,14.7-7.5,24.1-13.7
		s19.4-13.1,28-18.8c8.6-5.6,15.8-9.9,19.6-10.5c3.8-0.6,4,2.3-1.3,11.1s-9.6,20.7-12.7,33.4c-3.1,12.7-5.1,26.3-5.7,38.4
		c-0.6,12.1,0.1,22.7,2.2,29.6c2.2,6.9,5.8,10,11.2,7.2c5.3-2.9,13-8.1,21.4-13.9c8.4-5.9,17.5-12.4,25.6-17.9
		c8.2-5.5,15.4-10.1,20-11.9c4.6-1.9,6.7-1,4.5,4.1c-2.2,5.2-7.1,15.3-12.7,27.3c-5.5,12-11.6,25.9-16,38.6s-7.2,24.2-6,31.4
		c1.2,7.2,6.2,10.2,17.5,5.8c11.2-4.4,23.7-10.7,35.8-17.3s23.8-13.6,33.6-19.2c9.7-5.6,17.5-9.9,21.6-11.3s4.6,0.2-0.1,6.3
		c-4.7,6.1-10.4,16.5-15.8,28.4c-5.5,11.9-10.8,25.4-14.9,37.8s-7,23.6-7.7,31.1c-0.6,7.4,1,11.1,5.9,8.3c4.9-2.8,12.6-9.7,21.3-18
		c8.8-8.3,18.6-17.9,28.1-26.3c9.4-8.4,18.4-15.6,25.2-18.8s11.7-2.6,12.8,4.7c1.1,7.2-2.7,19.3-8.5,33.2
		c-5.9,13.9-13.7,29.5-20.6,43.8s-12.9,27.3-14.9,35.8c-2,8.5-0.1,12.7,8.7,9.3c8.8-3.4,18.6-10.3,28.2-18.3s18.9-17,26.7-24.5
		c7.8-7.5,14.1-13.6,17.5-15.6c3.4-2.1,4.1-0.1,0.6,8.4s-8.4,18.7-13.2,29.2s-9.7,21.2-13,30.6c-3.3,9.4-5.1,17.6-3.8,22.9
		c1.2,5.3,5.5,7.9,14.2,6.1c8.7-1.8,19.8-8.1,31.2-16c11.4-7.9,23.1-17.4,33-25.6c9.9-8.2,18-15.2,22.3-17.9
		c4.3-2.8,4.7-1.4-0.8,7.1s-11.1,21.1-16.1,35c-5,13.9-9.4,29.2-12.5,43s-5,26-4.9,34c0.1,7.9,2.2,11.5,6.9,8s13.4-9.9,23.5-17
		c10-7.1,21.4-14.9,31.5-21.5s18.9-11.9,23.9-14c4.9-2.1,6-0.9,0.5,5.6s-9.9,16.7-13.4,28.1c-3.5,11.5-5.9,24.3-7.4,35.9
		c-1.5,11.7-2,22.3-1.5,29.4s1.9,10.7,4.3,8.4c2.4-2.3,11.2-9.2,22.6-17.5s25.3-18.1,37.8-26.3s23.7-14.7,29.7-16.5
		c5.9-1.8,6.6,1.1-1.9,11.9c-8.5,10.8-17.5,23.9-25.6,37.3c-8.1,13.3-15.4,26.9-20.4,38.3c-5,11.5-7.8,20.9-6.9,26.1
		c0.9,5.2,5.3,6.1,14.8,0.5c9.4-5.6,19.2-12.7,28.4-19.8s17.9-14.1,25.1-19.5c7.3-5.3,13.2-9,16.8-9.3c3.7-0.3,5.1,2.8,3.5,10.8"/>
</g>
</svg>
