<?xml version="1.0" encoding="utf-8"?>
<!-- Generator: Adobe Illustrator 23.1.1, SVG Export Plug-In . SVG Version: 6.00 Build 0)  -->
<svg version="1.1" id="Layer_1" xmlns="http://www.w3.org/2000/svg" xmlns:xlink="http://www.w3.org/1999/xlink" x="0px" y="0px"
	 width="800px" height="800px" viewBox="0 0 800 800" enable-background="new 0 0 800 800" xml:space="preserve">
<g id="vs-secondary">
	<path fill="#FF5648" d="M231.4,282.7c0,0-44.5-5.7-84.2,63S78.8,518.1,78.8,518.1s-1.7,63.6,41.7,69.3l-15.4,80.3
		c0,0,22.8,9,25.5,9.3c2.7,0.3,15.2-35.8,15.2-35.8s1.1,44.7,4.7,45.6c3.6,0.9,41.3,11.6,90.4,8.3s102.8-32.5,102.8-32.5l-5.5-70.5
		c0,0,31.2-40.3,32.6-65.8s-35.4-143.8-35.4-143.8S284.8,281.6,231.4,282.7z"/>
	<path fill="#FF5648" d="M587.3,282.7c0,0-44.5-5.7-84.2,63s-68.4,172.4-68.4,172.4s-1.7,63.6,41.7,69.3L461,667.7
		c0,0,22.8,9,25.5,9.3c2.7,0.3,15.2-35.8,15.2-35.8s1.1,44.7,4.7,45.6c3.6,0.9,41.3,11.6,90.4,8.3s102.8-32.5,102.8-32.5l-5.5-70.5
		c0,0,31.2-40.3,32.6-65.8c1.4-25.5-35.4-143.8-35.4-143.8S640.7,281.6,587.3,282.7z"/>
</g>
<g id="vs-primary">
	<path fill="#27A8CB" d="M399.2,328.8c0,0-44.5-5.7-84.2,63s-68.4,172.4-68.4,172.4s-1.7,63.6,41.7,69.3l-15.4,80.3
		c0,0,22.8,9,25.5,9.3c2.7,0.3,15.2-35.8,15.2-35.8s1.1,44.7,4.7,45.6c3.6,0.9,41.3,11.6,90.4,8.3s102.8-32.5,102.8-32.5l-5.5-70.5
		c0,0,31.2-40.3,32.6-65.8c1.4-25.5-35.4-143.8-35.4-143.8S452.6,327.7,399.2,328.8z"/>
</g>
<g id="vs-colour_2_">
	<ellipse fill="#FFFFFF" cx="234.9" cy="135.2" rx="70.5" ry="88.2"/>
	<ellipse fill="#FFFFFF" cx="590.8" cy="135.2" rx="70.5" ry="88.2"/>
	<ellipse fill="#FFFFFF" cx="402.7" cy="181.3" rx="70.5" ry="88.2"/>
</g>
<g id="vs-shade_2_">
	<path opacity="0.2" enable-background="new    " d="M209.1,59.1c0,0-30.7,21.3-21.1,78.8s59.3,85.1,94.8,62.8
		c0,0-34.8,43-82.7,11.5S164,108.6,164,108.6S169.7,65.4,209.1,59.1z"/>
	<path opacity="0.2" enable-background="new    " d="M195,300.6c0,0-47.3,92.2-34.9,226.6s126.7,155.2,126.7,155.2
		s-26.3,9.6-64.4,10.1s-69.5-8.4-69.5-8.4l-9.9-42.2l-11,39l-27-13l5.7-80.3c0,0-37.5-44.1-28.4-77.6s43.8-143.7,73.8-178.5
		C180,303.9,195,300.6,195,300.6z"/>
	<path opacity="0.2" enable-background="new    " d="M376.9,105.2c0,0-30.7,21.3-21.1,78.8c9.6,57.5,59.3,85.1,94.8,62.8
		c0,0-34.8,43-82.7,11.5s-36.1-103.6-36.1-103.6S337.5,111.5,376.9,105.2z"/>
	<path opacity="0.2" enable-background="new    " d="M362.8,346.7c0,0-47.3,92.2-34.9,226.6c12.4,134.4,126.7,155.2,126.7,155.2
		s-26.3,9.6-64.4,10.1s-69.5-8.4-69.5-8.4l-9.9-42.2l-11,39l-27-13l5.7-80.3c0,0-37.5-44.1-28.4-77.6
		c9.1-33.5,43.8-143.7,73.8-178.5C347.8,350,362.8,346.7,362.8,346.7z"/>
	<path opacity="0.2" enable-background="new    " d="M565,59.1c0,0-30.7,21.3-21.1,78.8c9.6,57.5,59.3,85.1,94.8,62.8
		c0,0-34.8,43-82.7,11.5c-47.9-31.5-36.1-103.6-36.1-103.6S525.6,65.4,565,59.1z"/>
	<path opacity="0.2" enable-background="new    " d="M507.3,443.5c1.8,6.6,4.3,12.9,7,19.1c4-98.5,36.6-162,36.6-162
		s-15,3.3-38.9,30.9c-11.5,13.4-23.8,37.9-35,64.9C493.4,407.6,502,424.5,507.3,443.5z"/>
	<path opacity="0.2" enable-background="new    " d="M534.6,596.3c-9.7,14.1-19,28.4-30.6,41c-0.5,0.6-1,1.1-1.6,1.6
		c1,1.6,1.6,3.5,1.6,5.8c0,6.1,0.6,13.5,0.5,20.9l4.3,18.4c0,0,31.4,8.9,69.5,8.4c38.1-0.5,64.4-10.1,64.4-10.1
		S570.5,669.2,534.6,596.3z"/>
</g>
<g id="vs-outline_2_">
	<path fill="none" stroke="#2B2B2B" stroke-width="20" stroke-linecap="round" stroke-linejoin="round" stroke-miterlimit="10" d="
		M306.5,134.9c0,6.1-0.5,12.1-1.5,17.8c-1,5.8-2.4,11.3-4.2,16.6c-1.8,5.3-4,10.3-6.6,15s-5.5,9.1-8.7,13.1s-6.8,7.6-10.6,10.8
		c-3.8,3.2-7.9,5.9-12.2,8.2c-4.3,2.2-8.8,4-13.4,5.2c-4.7,1.2-9.5,1.8-14.4,1.8s-9.8-0.6-14.4-1.8c-4.7-1.2-9.2-2.9-13.4-5.2
		s-8.3-5-12.2-8.2c-3.8-3.2-7.4-6.8-10.6-10.8c-3.2-4-6.2-8.4-8.7-13.1s-4.8-9.7-6.6-15s-3.2-10.9-4.2-16.6
		c-1-5.8-1.5-11.7-1.5-17.8s0.5-12.1,1.5-17.8c1-5.8,2.4-11.3,4.2-16.6s4-10.3,6.6-15s5.5-9.1,8.7-13.1s6.8-7.6,10.6-10.8
		c3.8-3.2,7.9-5.9,12.2-8.2s8.8-4,13.4-5.2s9.5-1.8,14.4-1.8s9.8,0.6,14.4,1.8c4.7,1.2,9.2,2.9,13.4,5.2c4.3,2.2,8.3,5,12.2,8.2
		c3.8,3.2,7.4,6.8,10.6,10.8s6.2,8.4,8.7,13.1c2.6,4.7,4.8,9.7,6.6,15c1.8,5.3,3.2,10.9,4.2,16.6S306.5,128.8,306.5,134.9z"/>
	<path fill="none" stroke="#2B2B2B" stroke-width="20" stroke-linecap="round" stroke-linejoin="round" stroke-miterlimit="10" d="
		M225.1,281.9c0,0-5.1,0.5-7.5,0.9c-2.4,0.5-5.8,1.4-10.2,3.2s-9.5,4.6-15.4,8.7s-12.4,9.6-19.4,16.9s-14.4,16.4-22.1,27.8
		c-7.7,11.4-15.6,25.1-23.5,41.5s-15.9,35.5-23.7,57.8s-15.4,47.8-22.5,76.9c0,0,0,0.7,0.1,1.9s0.2,3,0.5,5.3s0.7,5,1.3,8.1
		s1.4,6.6,2.5,10.4c1.1,3.8,2.5,7.8,4.2,12s3.8,8.6,6.2,13c2.5,4.5,5.4,9,8.7,13.5c3.4,4.5,7.2,9,11.6,13.4"/>
	<path fill="none" stroke="#2B2B2B" stroke-width="20" stroke-linecap="round" stroke-linejoin="round" stroke-miterlimit="10" d="
		M224.8,282.2c0,0,1.6-0.2,4.5-0.1c2.9,0.1,7.1,0.6,12.2,2c5.2,1.4,11.3,3.7,18.1,7.6s14.3,9.1,22.1,16.5c7.8,7.4,16,16.8,24.2,28.9
		s16.5,26.8,24.5,44.7"/>
	<path fill="none" stroke="#2B2B2B" stroke-width="20" stroke-linecap="round" stroke-linejoin="round" stroke-miterlimit="10" d="
		M305.2,403.2c-3.3-14.2-9.4-39.5-12.9-51s-7-21.3-10.7-29.4c-3.6-8.1-7.3-14.4-11.1-18.6c-3-3.3-6-6.3-9.2-8.8s-6.4-4.8-9.7-6.6
		c-3.3-1.8-6.7-3.2-10.1-4.2s-6.9-1.6-10.4-1.8c-3.5-0.2-7,0-10.6,0.7c-3.5,0.7-7.1,1.8-10.6,3.3s-7.1,3.5-10.6,5.9s-7,5.3-10.4,8.7
		c-4.4,4.3-8.6,11-12.8,19.7c-4.1,8.7-8.1,19.4-12,31.8s-7.6,26.3-11.3,41.5s-7.2,31.7-10.6,49c-3.4,17.3-6.8,35.5-10.1,54.1
		s-6.4,37.8-9.5,56.9s-6.1,38.5-9.1,57.5s-5.9,37.7-8.7,55.7c0,0,0.2,0.1,0.7,0.4c0.4,0.2,1.1,0.6,1.9,1s1.8,0.9,2.9,1.5
		s2.3,1.2,3.7,1.8c1.3,0.7,2.8,1.4,4.2,2.1s3,1.4,4.6,2.2c1.6,0.7,3.2,1.4,4.8,2.1c1,0.4,2.6,1.1,4.2,1.7l1.8-8l1.8-8l1.8-8l1.8-8
		l1.8-8l1.8-8l1.8-8l1.8-8l0.5,8.8l0.5,8.8l0.5,8.8l0.5,8.8l0.5,8.8l0.5,8.8l0.5,8.8l0.5,8.8c5.6,1.4,11.8,2.8,18.4,4
		c6.6,1.2,13.6,2.3,21,3.1s15.2,1.4,23.2,1.7s16.4,0.2,24.9-0.3c8.6-0.5,17.3-1.4,26.2-2.8"/>
	<path fill="none" stroke="#2B2B2B" stroke-width="20" stroke-linecap="round" stroke-linejoin="round" stroke-miterlimit="10" d="
		M662.4,134.9c0,6.1-0.5,12.1-1.5,17.8c-1,5.8-2.4,11.3-4.2,16.6c-1.8,5.3-4,10.3-6.6,15c-2.6,4.7-5.5,9.1-8.7,13.1
		s-6.8,7.6-10.6,10.8c-3.8,3.2-7.9,5.9-12.2,8.2c-4.3,2.2-8.8,4-13.4,5.2c-4.7,1.2-9.5,1.8-14.4,1.8c-4.9,0-9.8-0.6-14.4-1.8
		c-4.7-1.2-9.2-2.9-13.4-5.2c-4.2-2.3-8.3-5-12.2-8.2c-3.8-3.2-7.4-6.8-10.6-10.8s-6.2-8.4-8.7-13.1s-4.8-9.7-6.6-15
		s-3.2-10.9-4.2-16.6c-1-5.8-1.5-11.7-1.5-17.8s0.5-12.1,1.5-17.8c1-5.8,2.4-11.3,4.2-16.6s4-10.3,6.6-15c2.6-4.7,5.5-9.1,8.7-13.1
		s6.8-7.6,10.6-10.8c3.8-3.2,7.9-5.9,12.2-8.2c4.3-2.3,8.8-4,13.4-5.2s9.5-1.8,14.4-1.8c4.9,0,9.8,0.6,14.4,1.8
		c4.7,1.2,9.2,2.9,13.4,5.2c4.3,2.2,8.3,5,12.2,8.2c3.8,3.2,7.4,6.8,10.6,10.8s6.2,8.4,8.7,13.1c2.6,4.7,4.8,9.7,6.6,15
		s3.2,10.9,4.2,16.6S662.4,128.8,662.4,134.9z"/>
	<path fill="none" stroke="#2B2B2B" stroke-width="20" stroke-linecap="round" stroke-linejoin="round" stroke-miterlimit="10" d="
		M581,281.9c0,0-5.1,0.5-7.5,0.9c-2.4,0.5-5.8,1.4-10.2,3.2c-4.4,1.8-9.5,4.6-15.4,8.7c-5.9,4.1-12.4,9.6-19.4,16.9
		s-14.4,16.4-22.1,27.8c-7.7,11.4-15.6,25.1-23.5,41.5"/>
	<path fill="none" stroke="#2B2B2B" stroke-width="20" stroke-linecap="round" stroke-linejoin="round" stroke-miterlimit="10" d="
		M580.7,282.2c0,0,1.6-0.2,4.5-0.1c2.9,0.1,7.1,0.6,12.2,2c5.2,1.4,11.3,3.7,18.1,7.6c6.8,3.9,14.3,9.1,22.1,16.5s16,16.8,24.2,28.9
		s16.5,26.8,24.5,44.7c8,17.9,15.7,39,22.8,63.9c7.1,24.9,13.7,53.5,19.4,86.5c0,0-0.1,0.4-0.3,1.1c-0.2,0.8-0.6,1.9-1.1,3.3
		c-0.5,1.4-1.2,3.2-2,5.3s-1.9,4.5-3.2,7.2c-1.3,2.7-2.9,5.7-4.7,8.9c-1.8,3.2-3.9,6.7-6.3,10.4c-2.4,3.7-5.1,7.6-8.2,11.8
		c-3.1,4.2-6.5,8.5-10.3,13"/>
	<path fill="none" stroke="#2B2B2B" stroke-width="20" stroke-linecap="round" stroke-linejoin="round" stroke-miterlimit="10" d="
		M524.6,690.9c6.6,1.2,13.6,2.3,21,3.1c7.4,0.8,15.2,1.4,23.2,1.7s16.4,0.2,24.9-0.3c8.6-0.5,17.3-1.4,26.2-2.8
		c8.9-1.4,17.9-3.3,27-5.7c9.1-2.4,18.3-5.5,27.4-9.3c9.1-3.7,18.3-8.1,27.3-13.3c-2.4-20-4.9-40.1-7.5-60
		c-2.6-19.9-5.3-39.7-8.1-59c-2.8-19.3-5.7-38.2-8.6-56.3c-3-18.1-6-35.6-9.2-52s-6.4-31.9-9.7-46.1c-3.3-14.2-6.7-27.1-10.2-38.6
		s-7-21.3-10.7-29.4c-3.6-8.1-7.3-14.4-11.1-18.6c-3-3.3-6-6.3-9.2-8.8s-6.4-4.8-9.7-6.6c-3.3-1.8-6.7-3.2-10.1-4.2
		c-3.4-1-6.9-1.6-10.4-1.8c-3.5-0.2-7,0-10.6,0.7c-3.5,0.7-7.1,1.8-10.6,3.3s-7.1,3.5-10.6,5.9s-7,5.3-10.4,8.7
		c-4.4,4.3-8.6,11-12.8,19.7c-4.1,8.7-8.1,19.4-12,31.8c-3.9,12.4-7.6,26.3-11.3,41.5c-3.7,15.2-4.1,16-7.5,33.3"/>
	<path fill="none" stroke="#2B2B2B" stroke-width="20" stroke-linecap="round" stroke-linejoin="round" stroke-miterlimit="10" d="
		M474.3,181c0,6.1-0.5,12.1-1.5,17.8c-1,5.8-2.4,11.3-4.2,16.6c-1.8,5.3-4,10.3-6.6,15s-5.5,9.1-8.7,13.1s-6.8,7.6-10.6,10.8
		c-3.8,3.2-7.9,5.9-12.2,8.2c-4.3,2.2-8.8,4-13.4,5.2c-4.7,1.2-9.5,1.8-14.4,1.8s-9.8-0.6-14.4-1.8c-4.7-1.2-9.2-2.9-13.4-5.2
		c-4.2-2.3-8.3-5-12.2-8.2c-3.8-3.2-7.4-6.8-10.6-10.8c-3.2-4-6.2-8.4-8.7-13.1s-4.8-9.7-6.6-15c-1.8-5.3-3.2-10.9-4.2-16.6
		c-1-5.8-1.5-11.7-1.5-17.8s0.5-12.1,1.5-17.8c1-5.8,2.4-11.3,4.2-16.6c1.8-5.3,4-10.3,6.6-15s5.5-9.1,8.7-13.1
		c3.2-4,6.8-7.6,10.6-10.8c3.8-3.2,7.9-5.9,12.2-8.2c4.3-2.3,8.8-4,13.4-5.2c4.6-1.2,9.5-1.8,14.4-1.8s9.8,0.6,14.4,1.8
		c4.7,1.2,9.2,2.9,13.4,5.2c4.3,2.2,8.3,5,12.2,8.2c3.8,3.2,7.4,6.8,10.6,10.8s6.2,8.4,8.7,13.1c2.6,4.7,4.8,9.7,6.6,15
		c1.8,5.3,3.2,10.9,4.2,16.6S474.3,174.9,474.3,181z"/>
	<path fill="none" stroke="#2B2B2B" stroke-width="20" stroke-linecap="round" stroke-linejoin="round" stroke-miterlimit="10" d="
		M392.9,328c0,0-5.1,0.5-7.5,0.9c-2.4,0.5-5.8,1.4-10.2,3.2s-9.5,4.6-15.4,8.7s-12.4,9.6-19.4,16.9s-14.4,16.4-22.1,27.8
		c-7.7,11.4-15.6,25.1-23.5,41.5s-15.9,35.5-23.7,57.8c-7.8,22.3-15.4,47.8-22.5,76.9c0,0,0,0.7,0.1,1.9c0.1,1.2,0.2,3,0.5,5.3
		s0.7,5,1.3,8.1s1.4,6.6,2.5,10.4c1.1,3.8,2.5,7.8,4.2,12c1.7,4.2,3.8,8.6,6.2,13c2.5,4.5,5.4,9,8.7,13.5c3.4,4.5,7.2,9,11.6,13.4"
		/>
	<path fill="none" stroke="#2B2B2B" stroke-width="20" stroke-linecap="round" stroke-linejoin="round" stroke-miterlimit="10" d="
		M392.6,328.3c0,0,1.6-0.2,4.5-0.1s7.1,0.6,12.2,2c5.2,1.4,11.3,3.7,18.1,7.6s14.3,9.1,22.1,16.5c7.8,7.4,16,16.8,24.2,28.9
		s16.5,26.8,24.5,44.7c8,17.9,15.7,39,22.8,63.9c7.1,24.9,13.7,53.5,19.4,86.5c0,0-0.1,0.4-0.3,1.1c-0.2,0.8-0.6,1.9-1.1,3.3
		c-0.5,1.4-1.2,3.2-2,5.3s-1.9,4.5-3.2,7.2s-2.9,5.7-4.7,8.9c-1.8,3.2-3.9,6.7-6.3,10.4c-2.4,3.7-5.1,7.6-8.2,11.8
		c-3.1,4.2-6.5,8.5-10.3,13"/>
	<path fill="none" stroke="#2B2B2B" stroke-width="20" stroke-linecap="round" stroke-linejoin="round" stroke-miterlimit="10" d="
		M299.7,726.6l1.8-8l1.8-8l1.8-8l1.8-8l1.8-8l1.8-8l1.8-8l1.8-8l0.5,8.8l0.5,8.8l0.5,8.8l0.5,8.8l0.5,8.8l0.5,8.8l0.5,8.8l0.5,8.8
		c5.6,1.4,11.8,2.8,18.4,4s13.6,2.3,21,3.1s15.2,1.4,23.2,1.7s16.4,0.2,24.9-0.3c8.6-0.5,17.3-1.4,26.2-2.8c8.9-1.4,17.9-3.3,27-5.7
		s18.3-5.5,27.4-9.3c9.1-3.7,18.3-8.1,27.3-13.3c-2.4-20-4.9-40.1-7.5-60s-5.3-39.7-8.1-59s-5.7-38.2-8.6-56.3
		c-3-18.1-6-35.6-9.2-52s-6.4-31.9-9.7-46.1c-3.3-14.2-6.7-27.1-10.2-38.6s-7-21.3-10.7-29.4c-3.6-8.1-7.3-14.4-11.1-18.6
		c-3-3.3-6-6.3-9.2-8.8s-6.4-4.8-9.7-6.6c-3.3-1.8-6.7-3.2-10.1-4.2s-6.9-1.6-10.4-1.8c-3.5-0.2-7,0-10.6,0.7
		c-3.5,0.7-7.1,1.8-10.6,3.3s-7.1,3.5-10.6,5.9s-7,5.3-10.4,8.7c-4.4,4.3-8.6,11-12.8,19.7c-4.1,8.7-8.1,19.4-12,31.8
		s-7.6,26.3-11.3,41.5c-3.7,15.2-7.2,31.7-10.6,49s-6.8,35.5-10.1,54.1c-3.3,18.6-6.4,37.8-9.5,56.9s-6.1,38.5-9.1,57.5
		s-5.9,37.7-8.7,55.7c0,0,0.2,0.1,0.7,0.4c0.4,0.2,1.1,0.6,1.9,1s1.8,0.9,2.9,1.5c1.1,0.6,2.3,1.2,3.7,1.8c1.3,0.7,2.8,1.4,4.2,2.1
		s3,1.4,4.6,2.2c1.6,0.7,3.2,1.4,4.8,2.1C296.5,725.3,298.1,726,299.7,726.6z"/>
</g>
<g id="vs-reveal" opacity="0">
	
		<path fill="none" stroke="#000000" stroke-width="144.2655" stroke-linecap="round" stroke-linejoin="round" stroke-miterlimit="10" d="
		M608.3,79.2c-14.1,2.2-29.1,4-44.4,5.5c-95.8,9.8-410.2,14.9-350.5,48.9c13,7.4,27.2,9.6,42,8.6c64.1-4.2,348-71.6,375-30.4
		c3.9,5.9,3.3,11.2-0.6,16.1c-21.5,26.7-353.7,42.4-398.1,53.5c-16.9,4.2-22.4,8.3-6.4,13c65.5,19.2,385.7-53.3,405.1-25.1
		c2.4,3.5-0.2,8.8-6.7,15.5c-191.3,197-463.2-46.1-441,188.9c0.7,7.3,35,27.6,60.3,21.7c76.1-17.7,313.8-103.4,378.2-67.9
		c14.6,8,11.8,15.5-2.7,22.6c-60.2,29.6-403.8,83.3-475.1,119.6c-12.7,6.5-19.3,13.3-17.5,20.7c12.1,51.2,380.4-60.5,492.7-58.3
		c16,0.3,26.9,3,30.7,8.7C679.9,486.9,84.5,533,84.5,558.9c0,4.2,15.5,4,41.6,1.2c110.9-12.1,413.2-73.4,532.7-63
		c27.6,2.4,45.4,8.6,48.9,20.1c19.4,64.1-444.7,91.9-559.1,128c-16.4,5.2-25.6,10.5-25.2,16.1c2.8,45,479.1-110.4,501.3-51.8
		c3.6,9.4,3.4,18.6-0.2,27.4c-17.9,42.9-119.7,74.3-278.3,57.6c-10.3-1.1-20.8-2.4-31.6-3.9"/>
</g>
</svg>
