<?xml version="1.0" encoding="utf-8"?>
<!-- Generator: Adobe Illustrator 23.0.4, SVG Export Plug-In . SVG Version: 6.00 Build 0)  -->
<svg version="1.1" id="Layer_1" xmlns="http://www.w3.org/2000/svg" xmlns:xlink="http://www.w3.org/1999/xlink" x="0px" y="0px"
	 width="1000px" height="1000px" viewBox="0 0 1000 1000" enable-background="new 0 0 1000 1000" xml:space="preserve">
<g id="vs-primary">
	<path fill="#27A8CB" d="M779.4,805.3l39.9,37.5c0,0-131,138.1-299,30.8s-89.8-283.3-89.8-283.3L364.7,515l151.4-137.2l74.9,69.4
		c0,0,175.9-36.4,249.1,83.4s47.7,235.5-7.3,297.4l-26.9,31.5l-37-42.2c0,0,50.5-43.6,25.2-87.5c-25.2-43.9-77.1-64-109-26
		c-31.8,38-34.3,64.7-21.1,86.5C677.1,812.1,731.8,852.9,779.4,805.3z"/>
</g>
<g id="vs-secondary">
	<polygon fill="#FFCE00" points="171.1,113.3 142.8,157 97.7,153.1 97.7,238.2 172.4,251.1 167.4,307.8 219.8,317.8 222.9,364.6 
		263.4,369.5 323,424.5 367.6,415.3 364.5,462.3 387.1,490.9 483.8,402.7 	"/>
</g>
<g id="vs-shade">
	<path opacity="0.15" enable-background="new    " d="M442,451.1l-77.5,67.8l66.4,69.5c0,0-24.6,58.2-15.1,115.6
		c9.5,57.5,32.3,116.4,70.7,144.6c38.3,28.1,100.7,56.5,100.7,56.5s64.5,18.1,126.7,0s91.8-45.5,91.8-45.5s-170.5,49.2-298.1-68.3
		c-62.5-57.6-47.7-178-22.9-221c16.8-29,11.9-65.8-11.8-89.5L442,451.1z"/>
	<polygon opacity="0.2" enable-background="new    " points="99.2,174.5 414.4,466.9 390.9,487.4 361.4,459.4 360.4,420.9 
		324.6,425.8 261.3,365.9 222.6,360.7 220,320.6 170.1,302 172.6,253.3 97.7,238.2 	"/>
	<polygon opacity="0.2" enable-background="new    " points="143.5,159.4 450.4,438.8 464.4,425.8 152.3,142.2 	"/>
</g>
<g id="vs-colour">
</g>
<g id="vs-outline">
	
		<path fill="none" stroke="#2B2B2B" stroke-width="18.4221" stroke-linecap="round" stroke-linejoin="round" stroke-miterlimit="10" d="
		M431,588.4l-33.3-34.8l-33.3-34.7l75.7-70.6l75.7-70.6l37.5,34.6l37.5,34.6c9-2.2,19.2-4.1,29.5-5.5s20.8-2.2,30.5-2.2
		c65.4,0,124.5,26.5,167.5,69.4c42.9,42.8,69.4,102.1,69.4,167.5s-26.4,124.6-69.3,167.5C775.6,886.5,716.4,913,651,913
		s-124.5-26.5-167.5-69.4c-42.8-42.8-69.4-102.1-69.4-167.5c0-14.8,1.8-30.2,4.7-45.2C421.8,616,426,601.5,431,588.4z"/>
	
		<polyline fill="none" stroke="#2B2B2B" stroke-width="18.4221" stroke-linecap="round" stroke-linejoin="round" stroke-miterlimit="10" points="
		486.5,405.2 328.8,259.2 171.1,113.3 156.9,135.1 142.8,157 120.2,155 97.7,153.1 97.7,195.7 97.7,238.2 135,244.7 172.4,251.1 
		169.9,279.5 167.4,307.8 193.6,312.8 219.8,317.8 221.4,341.2 222.9,364.6 243.2,367.1 263.4,369.5 293.2,397 323,424.5 343,420.6 
		363,416.7 362.2,438.1 361.4,459.4 378,475.1 394.6,490.9 	"/>
	
		<polyline fill="none" stroke="#2B2B2B" stroke-width="11.0533" stroke-linecap="round" stroke-linejoin="round" stroke-miterlimit="10" points="
		152.3,142.2 308.3,284.1 464.4,425.8 	"/>
	
		<polyline fill="none" stroke="#2B2B2B" stroke-width="11.0533" stroke-linecap="round" stroke-linejoin="round" stroke-miterlimit="10" points="
		99.2,174.5 256.8,320.6 414.4,466.9 	"/>
	
		<path fill="none" stroke="#2B2B2B" stroke-width="18.4221" stroke-linecap="round" stroke-linejoin="round" stroke-miterlimit="10" d="
		M798.1,757.4c0,19.4-7.9,37.1-20.6,49.9c-12.9,12.9-30.5,20.7-50,20.7s-37.1-7.9-49.9-20.6C664.8,794.6,657,777,657,757.5
		c0-19.4,7.9-37.1,20.6-49.9c12.8-12.8,30.4-20.6,49.9-20.6s37.1,7.9,49.9,20.6C790.2,720.3,798.1,738,798.1,757.4z"/>
	
		<path fill="none" stroke="#2B2B2B" stroke-width="11.0533" stroke-linecap="round" stroke-linejoin="round" stroke-miterlimit="10" d="
		M695.1,861.4c-6.9,1.7-13.9,2.9-21.1,3.7c-7.2,0.8-14.5,1.3-21.8,1.3c-51.9,0-98.8-21-132.7-55c-34-34-55-81-55-132.8
		c0-51.9,21-98.8,55-132.7c34-34,81-55,132.7-55c51.8,0,98.8,21,132.7,55c34,34,55,81,55,132.7c0,6.3-0.3,12.4-0.9,18.6
		c-0.6,6.1-1.5,12.2-2.7,18.1"/>
</g>
<g id="vs-reveal">
	
		<path fill="none" stroke="#0DFF00" stroke-width="138.166" stroke-linecap="round" stroke-linejoin="round" stroke-miterlimit="10" stroke-opacity="0" d="
		M191.1,131.9c0,0-36.8,31.4-65.2,59.6s-48.5,53.5-15,41s66-24.5,89-29.8s36.6-3.4,32.1,11.8s-25.8,39.3-39.1,58.5
		c-13.4,19.2-18.8,33.4,8.4,29c27.3-4.4,57.7-20.6,78.9-31.5c21.3-10.9,33.3-16.3,23.9,0.8s-38.1,43.2-55.3,64
		c-17.1,20.8-22.5,36.4,14.7,32.5c37.3-3.9,73.9-26.7,97.2-41.7s33.4-22.4,17.9,4.7c-15.6,27.1-28.5,52-32.4,68.2
		c-4,16.2,1.1,23.8,21.5,16.3s49.6-24.3,71.2-35.6c21.6-11.2,35.6-16.9,25.6-2s-49.6,58.8-75.9,94.8s-39.2,64.2,4.1,47.9
		s104.2-56.6,145.6-84.6c41.5-27.9,63.6-43.4,29.7-10s-100,94.3-141,141.6s-56.9,80.7,9.2,58.9s134.2-78.2,180.7-120
		s71.4-69.1,51.1-32.5s-95,113.1-157,178.4S399.8,771.4,430.6,763s129.8-102.1,214.2-178.3s154-134.9,125.9-73.5
		S671,662.9,612,735.7s-105.3,128-82.6,119.3c22.7-8.8,106.3-97.9,180.2-173.3s138.2-137.2,121.8-91.3
		c-16.3,45.9-86.4,128.4-144.7,196.8s-105,123-74.7,112.8c30.3-10.1,101.5-79.8,161.3-136.5s108-100.8,92.4-59.5
		s-43.5,85.8-62.8,118.1c-19.3,32.2-30.2,52.2-11.6,44.2"/>
</g>
</svg>
