<?xml version="1.0" encoding="utf-8"?>
<!-- Generator: Adobe Illustrator 25.0.0, SVG Export Plug-In . SVG Version: 6.00 Build 0)  -->
<svg version="1.1" id="Layer_1" xmlns="http://www.w3.org/2000/svg" xmlns:xlink="http://www.w3.org/1999/xlink" x="0px" y="0px"
	 width="800px" height="800px" viewBox="0 0 800 800" enable-background="new 0 0 800 800" xml:space="preserve">
<g id="vs-primary">
	<path fill="#27A8CB" d="M413.8,206.2c0,0-4.9-2.5-24.4,14.2c-19.5,16.6-62.9,95.9-62.9,95.9s-22.1,44.3-8.1,50.9
		s24.8-14.8,24.8-14.8l25.6-45.2l14.8-29.9l-5.7,35.1l-4.4,22.8l-8.3,36.9l-12.2,49c0,0,18.8,9.3,22.3,16.1
		c3.6,6.8,12.1,14.3,30.3,15.3c18.1,1.1,59.4-18.2,59.4-18.2s7.4-20,5.2-38.1c-2.1-18.1-12.4-64.8-12.4-64.8l-11.3-57.7l31.5,29.8
		l33.3,21.3l11.7,4.7l9-1.8l7.9-8.3c0,0-12.3-22.2-27.6-36.5c-15.2-14.4-80.8-65-80.8-65S424.2,206.4,413.8,206.2z"/>
</g>
<g id="vs-secondary">
	<polygon fill="#FFFFFF" points="353.9,421.6 336,454.9 333.2,460.7 306.7,493.6 283.8,527.9 282.7,538.5 287.2,548.1 297.5,554.6 
		312.8,554.6 330.4,548.1 375.4,501.9 391.6,483.9 409.4,481.5 415.2,485.3 422.1,503.5 435.2,531 455.1,564 470.1,574.4 
		481.7,574.4 495.9,566.3 500.8,558.8 502.7,543.1 502.1,533.9 491,498.4 468.4,434.6 448.8,441.6 406.5,453.5 385.6,445.7 
		375,437.1 	"/>
</g>
<g id="vs-colour">
	
		<ellipse transform="matrix(0.145 -0.9894 0.9894 0.145 219.7403 529.4805)" fill="#FFFFFF" cx="416.2" cy="137.6" rx="44.1" ry="33.5"/>
	<polygon fill="#FFFFFF" points="214.7,380.1 205,360.6 188.5,361.1 186.3,368.1 167.7,370.3 169.5,376.3 171.6,384.3 173.3,388.7 
		179.1,401.6 198.7,399.1 207.8,397 	"/>
	<path fill="#FFFFFF" d="M605,307.3l-21.9,3.2l-8.6,8l-5.2,5.2l-2.8,5.6l1.3,10.2l4,14l11.3,7.3c0,0,10.5,0.2,11-0.9
		s5.2-2.9,5.2-2.9l3.6-8.1l0.8-5.2l8.9-1.1l2-10.9v-10.5l-19-2.7l6.5-3.5C602.1,315.3,606.3,311.6,605,307.3z"/>
	<polygon fill="#FFFFFF" points="559.4,651.1 558.4,665.9 529.1,668 510.2,685.3 507.5,694.1 510.3,697.1 535.9,697.3 554.4,691.1 
		579.7,673.3 579.7,661.7 564.4,651.1 	"/>
	<polygon fill="#FFFFFF" points="330.4,669.6 323.2,676.5 283.8,676.3 274.3,680.4 260.2,694.9 279.3,700.5 295.3,700.5 
		304.9,699.2 323.3,690.4 345.1,684.7 	"/>
</g>
<g id="vs-shade">
	<path opacity="0.4" fill="#2B2B2B" enable-background="new    " d="M422.4,96.4c0,0-25,6.8-29.5,33.7c-4.6,27,13.7,57,36.4,46.4
		c0,0-22.5,15.5-40.1-6.4s-2.1-55.3-2.1-55.3S400.3,95.9,422.4,96.4z"/>
	<path opacity="0.4" fill="#2B2B2B" enable-background="new    " d="M416.2,206.4c0,0-15.2,1.8-17.9,36.2
		c-2.6,34.4,8.3,68.5-8.9,106.4c-17.2,37.9-2.5,100.7,14.1,103.3c0,0-32.4-20.4-49.8,0s-63.1,73.7-58.2,84.6
		c4.9,10.9,11.9,17.6,11.9,17.6s-16.8,1.8-21.7-13.2c-4.9-15,6.4-29.1,6.4-29.1l27.9-32.3l11.7-18.5l20.6-37.2l16.8-69.5l13.1-69.8
		l7.1-47.2C389.5,237.8,394.8,208.5,416.2,206.4z"/>
	<path opacity="0.4" fill="#2B2B2B" enable-background="new    " d="M324.1,366c0,0-7-14.4,9.3-46.1c16.2-31.7,38.4-78,38.4-78
		l-40.5,65l-15.4,35.7l-3.4,10.7l1.2,11.7L324.1,366z"/>
</g>
<g id="vs-outline">
	
		<path fill="none" stroke="#2B2B2B" stroke-width="12" stroke-linecap="round" stroke-linejoin="round" stroke-miterlimit="10.0001" d="
		M382.2,132.1c1.3-5.8,3.4-11.3,6.2-16c2.8-4.7,6.3-8.8,10.2-11.9c3.9-3.2,8.3-5.5,12.7-6.8c4.5-1.3,9.3-1.5,14-0.5
		s8.9,3.2,12.5,6.2s6.6,6.9,8.9,11.4s3.8,9.6,4.4,15.1c0.6,5.4,0.4,11.3-0.9,17.1s-3.4,11.3-6.2,16s-6.3,8.8-10.2,11.9
		c-3.9,3.2-8.3,5.5-12.7,6.8c-4.5,1.3-9.3,1.5-14,0.5s-8.9-3.2-12.5-6.2s-6.6-6.9-8.9-11.4s-3.8-9.6-4.4-15.1
		C380.7,143.8,381,137.9,382.2,132.1z"/>
	<path fill="none" stroke="#2B2B2B" stroke-width="12" stroke-linecap="round" stroke-linejoin="round" stroke-miterlimit="10" d="
		M352.4,423.2c0,0,0.8-3,2.1-8.2c1.3-5.2,3.3-12.7,5.5-21.8c2.2-9.1,4.8-19.7,7.5-31.3c2.7-11.5,5.4-24,8.1-36.8
		c1.7-8.2,3.2-19.5,5-31.7c1.8-12.3,3.8-25.6,6.2-38c2.5-12.4,5.6-24,9.5-32.8c4-8.7,8.8-14.7,14.9-15.8c6.1-1.2,10.5-0.3,13.9,2.6
		c3.4,3,5.8,8,8,15.2c2.1,7.2,4.1,16.5,6.5,28c2.4,11.5,5.4,25.1,9.6,40.9c1.8,6.8,4.4,15.8,7,26.4c2.7,10.5,5.5,22.5,7.9,35.2
		s4.4,26,5.3,39.2s0.8,26.4-0.9,38.6c0,0-3,1.2-7.6,3.1s-10.9,4.3-17.5,6.8s-13.5,5-19.3,6.8c-5.8,1.9-10.7,3.2-13.1,3.2
		c-7.3,0.1-13.1-0.9-17.8-2.8c-4.8-1.8-8.6-4.3-11.9-7c-3.4-2.8-6.2-5.8-9.1-8.7c-3-2.8-6-5.5-9.7-7.4c-1.4-0.8-2.8-1.4-4-1.9
		s-2.3-0.9-3.2-1.1c-0.9-0.3-1.7-0.4-2.1-0.5C352.7,423.2,352.4,423.2,352.4,423.2z"/>
	<path fill="none" stroke="#2B2B2B" stroke-width="12" stroke-linecap="round" stroke-linejoin="round" stroke-miterlimit="10" d="
		M405.6,209.5c0,0-1.7,0.5-5,2.7c-3.4,2.1-8.3,6-14.7,12.7c-6.4,6.7-14.4,16.2-23.6,29.9c-9.3,13.6-19.9,31.2-31.8,54
		c-9.6,18.4-14.5,31.9-16.1,41.2c-1.7,9.3-0.1,14.6,3.3,16.6c3.4,2.1,8.4,0.9,13.6-2.4c5.3-3.4,10.8-9,15-16
		c4.8-8,9.7-17.2,14.2-26.6c4.6-9.4,8.9-18.9,12.5-27.3c3.7-8.5,6.8-16,8.9-21.3c2.1-5.4,3.4-8.7,3.4-8.7"/>
	<path fill="none" stroke="#2B2B2B" stroke-width="12" stroke-linecap="round" stroke-linejoin="round" stroke-miterlimit="10" d="
		M314.7,363.3L314.7,363.3L314.7,363.3L314.7,363.3L314.7,363.3l-25,4.8l-25,4.8l-25,4.8l-25,4.8"/>
	<path fill="none" stroke="#2B2B2B" stroke-width="12" stroke-linecap="round" stroke-linejoin="round" stroke-miterlimit="10" d="
		M214.7,382.4l-1.6-3.6l-1.6-3.7l-1.6-3.7l-1.6-3.6l-0.8-1.8l-0.8-1.8l-0.8-1.8l-0.8-1.8l-4.2,0.1l-4.1,0.1l-4.1,0.1l-4.2,0.1
		l-0.5,1.7l-0.5,1.7l-0.5,1.7l-0.5,1.7l-3.4,0.5l-3.4,0.5l-3.4,0.5l-3.4,0.5c-0.3,0.1-0.6,0.1-0.9,0.1s-0.7,0.1-1.1,0.1
		c-0.3,0.1-0.7,0.1-1,0.3c-0.3,0.1-0.6,0.3-0.9,0.4c-0.5,0.3-0.8,0.6-1,1c-0.2,0.3-0.3,0.7-0.3,1.1s0.1,0.8,0.2,1.2
		c0.1,0.4,0.4,0.8,0.7,1.2l0.2,0.2l0.2,0.2l0.2,0.2l0.2,0.2l0.7,0.7l0.7,0.7l0.7,0.7l0.7,0.7l-0.2,1.3l-0.2,1.3l-0.2,1.3l-0.2,1.3
		l1,1l1,1.1l1,1.1l1,1l-0.2,1.3l-0.2,1.3l-0.2,1.3l-0.2,1.3l1.2,0.7l1.2,0.7l1.2,0.7l1.2,0.7l0.1,1.3l0.1,1.3l0.1,1.3l0.1,1.3l6-0.8
		l6-0.8l6-0.8l6-0.8c0.7-0.1,1.3-0.3,1.9-0.5c0.6-0.3,1.1-0.6,1.7-1c0.5-0.4,0.9-0.9,1.3-1.4c0.4-0.5,0.7-1.1,0.9-1.7l1.1-2.8
		l1.1-2.8l1.1-2.8L214.7,382.4"/>
	
		<path fill="none" stroke="#2B2B2B" stroke-width="2.6836" stroke-linecap="round" stroke-linejoin="round" stroke-miterlimit="10" d="
		M189.3,367.4l0.2,3.9l0.2,3.9l0.2,3.9l0.2,3.9c0,0.3,0.1,0.7,0.3,1c0.1,0.3,0.4,0.5,0.6,0.7c0.3,0.2,0.5,0.3,0.9,0.4
		c0.3,0.1,0.7,0.1,1,0h0.1h0.1h0.1h0.1c0.7-0.1,1.3-0.4,1.9-0.7c0.5-0.3,1.1-0.8,1.5-1.3s0.7-1.1,0.9-1.7s0.3-1.3,0.3-1.9v-1.7v-1.7
		V374v-1.7"/>
	
		<path fill="none" stroke="#2B2B2B" stroke-width="2.6836" stroke-linecap="round" stroke-linejoin="round" stroke-miterlimit="10" d="
		M198.7,376.9c0,0,0.1,0.3,0.3,0.7c0.1,0.4,0.4,1,0.7,1.6s0.5,1.3,0.8,1.9s0.5,1.1,0.7,1.4c0.5,0.7,1.3,1.3,2.1,1.9
		c0.9,0.5,1.9,0.9,3,1.1c1.1,0.3,2,0.3,2.9,0.3c0.9-0.1,1.6-0.3,2.1-0.7"/>
	
		<polyline fill="none" stroke="#2B2B2B" stroke-width="2.6836" stroke-linecap="round" stroke-linejoin="round" stroke-miterlimit="10" points="
		195.3,384.3 195.3,385.4 195.3,386.6 195.3,387.7 195.3,388.9 195,389 194.6,389.2 194.3,389.4 194,389.5 194,390.9 194.2,392.2 
		194.2,393.5 194.3,394.8 192.5,395.2 190.7,395.4 188.9,395.8 187.1,396.1 186.1,396.6 185.2,397.3 184.3,397.8 183.4,398.3 	"/>
	
		<polyline fill="none" stroke="#2B2B2B" stroke-width="2.6836" stroke-linecap="round" stroke-linejoin="round" stroke-miterlimit="10" points="
		194,389.5 189.9,389.9 185.9,390.4 181.9,390.9 177.9,391.3 	"/>
	
		<polyline fill="none" stroke="#2B2B2B" stroke-width="2.6836" stroke-linecap="round" stroke-linejoin="round" stroke-miterlimit="10" points="
		190.3,383 186,383.4 181.8,383.6 177.5,384 173.3,384.3 	"/>
	
		<polyline fill="none" stroke="#2B2B2B" stroke-width="2.6836" stroke-linecap="round" stroke-linejoin="round" stroke-miterlimit="10" points="
		189.7,376.1 185.6,376.6 181.5,377.1 177.4,377.7 173.3,378.3 	"/>
	
		<path fill="none" stroke="#2B2B2B" stroke-width="2.6836" stroke-linecap="round" stroke-linejoin="round" stroke-miterlimit="10" d="
		M195.7,384.3c0,0,0,0.4,0,1.1s0.1,1.5,0.1,2.5c0.1,0.9,0.2,2,0.4,2.9s0.4,1.7,0.7,2.2"/>
	<path fill="none" stroke="#2B2B2B" stroke-width="12" stroke-linecap="round" stroke-linejoin="round" stroke-miterlimit="10" d="
		M428.2,212.9c0,0,8.8,6.4,21.5,16.3c12.7,9.9,29.2,23.1,44.6,36.9c15.4,13.8,29.8,27.9,38.1,39.4s10.6,20.5,1.9,24
		c-6,2.3-14.6-0.1-24.2-5.2c-9.6-5-20.2-12.6-30-20.5c-9.9-7.8-18.9-16-25.6-22.2c-6.6-6.2-10.8-10.5-10.8-10.5"/>
	
		<polyline fill="none" stroke="#2B2B2B" stroke-width="12" stroke-linecap="round" stroke-linejoin="round" stroke-miterlimit="10" points="
		564.8,341.1 549.5,333.5 542.6,329.8 535.7,326 528.7,322.3 	"/>
	<path fill="none" stroke="#2B2B2B" stroke-width="12" stroke-linecap="round" stroke-linejoin="round" stroke-miterlimit="10" d="
		M593.2,319.2c1.7-0.1,3.8-0.1,6.2,0.1c2.3,0.1,4.9,0.3,7.2,0.6c2.3,0.3,4.4,0.5,6,0.7c1.5,0.2,2.5,0.3,2.5,0.3
		c0.3,0.4,0.3,1.1,0.1,2.1c-0.1,0.9-0.4,2.1-0.7,3.2s-0.6,2.1-0.9,3s-0.4,1.3-0.4,1.3l0.5,0.3l0.5,0.2l0.5,0.3l0.5,0.3
		c0,0-0.1,0.6-0.3,1.5s-0.5,2.2-0.8,3.5s-0.8,2.7-1.3,3.9c-0.5,1.1-1.1,2.1-1.9,2.6H609h-1.9H605h-2l-0.1,2.5l-0.1,2.5l-0.1,2.5
		l-0.1,2.5l-1.1,1.3l-1.1,1.3l-1.1,1.3l-1.1,1.3c0,0-0.5,0.1-1.1,0.3s-1.7,0.3-2.7,0.5s-2.1,0.4-3.1,0.6c-0.9,0.2-1.8,0.3-2.3,0.4
		c-1,0.1-2.1,0.1-3.2,0.1c-1.1-0.1-2.2-0.1-3.3-0.4c-1.1-0.2-2.3-0.5-3.5-0.9s-2.4-0.9-3.7-1.5s-2.4-1.8-3.4-3.2
		c-0.9-1.4-1.7-3.2-2.4-4.8c-0.7-1.7-1.1-3.2-1.5-4.4s-0.5-1.9-0.5-1.9s-0.3-1-0.7-2.5c-0.3-1.6-0.7-3.8-0.7-6.3s0.4-5.2,1.5-7.8
		c1.1-2.6,2.9-5.1,5.7-7.2c1.6-1.1,3-2.2,4.2-3.2s2.3-1.9,3.2-2.6s1.6-1.4,2.1-1.9s1-0.8,1.3-1c0,0,1.1-0.2,2.9-0.5s4-0.7,6.4-1.1
		c2.3-0.4,4.8-0.8,6.6-1.1c1.9-0.3,3.2-0.3,3.6-0.2c0.6,0.3,0.9,1.1,0.9,2.2s-0.3,2.4-1.1,3.7c-0.7,1.3-1.9,2.6-3.6,3.7
		C598.3,318,596.1,318.8,593.2,319.2c-0.6,0.1-1.2,0.4-1.9,0.9s-1.3,1.1-1.9,1.7s-1.1,1.2-1.5,1.6c-0.4,0.5-0.6,0.7-0.6,0.7
		s0.1,0.7,0.2,2c0.1,1.3,0.1,3-0.2,5s-0.7,4.3-1.7,6.6s-2.3,4.6-4.2,6.8"/>
	<path fill="none" stroke="#2B2B2B" stroke-width="6" stroke-linecap="round" stroke-linejoin="round" stroke-miterlimit="10" d="
		M614.6,324.9c0,0-0.5-0.3-1.3-0.8c-0.9-0.5-2.3-1.1-4.1-1.5c-1.8-0.5-4-0.9-6.7-1s-5.7,0.1-9.2,0.8c-0.4,0.1-0.8,0.4-1.1,0.8
		s-0.7,0.9-0.9,1.5s-0.4,1.1-0.5,1.7c-0.1,0.5-0.1,1,0,1.3c0.2,0.6,1.6,1.2,3.7,1.6c2.1,0.4,4.6,0.9,7.3,1.2
		c2.7,0.3,5.3,0.6,7.4,0.9c2.1,0.3,3.6,0.5,3.9,0.7c0,0-1.3-0.3-3.5-0.7s-5-0.8-8.1-1.1c-3.1-0.3-6.3-0.5-9.1-0.3
		c-2.8,0.1-5.1,0.7-6.4,1.7c-0.1,0.1-0.2,0.3-0.3,0.8c-0.1,0.4-0.2,0.9-0.3,1.5c-0.1,0.5-0.1,1.1-0.2,1.5c-0.1,0.5-0.1,0.7-0.1,0.9
		c0.1,0.4,1.5,0.7,3.8,0.9c2.2,0.3,5.2,0.5,8.1,0.8s6,0.7,8.4,1.3c2.3,0.6,4.1,1.4,4.5,2.5c0,0-1.6-0.2-4-0.5
		c-2.3-0.3-5.6-0.7-8.7-1c-3.2-0.3-6.4-0.6-8.9-0.7s-4.1-0.1-4.2,0.3l-0.3,1.1l-0.2,1.1l-0.2,1.1l-0.3,1.1c0,0.1,0,0.3,0,0.5
		c0,0.1,0.1,0.3,0.2,0.5c0.1,0.1,0.2,0.3,0.3,0.3c0.1,0.1,0.3,0.1,0.5,0.2c0.7,0.2,1.9,0.5,3.2,0.8s2.8,0.7,4.4,1
		c1.6,0.3,3.3,0.7,4.9,0.9c1.6,0.3,3.2,0.5,4.6,0.5"/>
	
		<polyline fill="none" stroke="#2B2B2B" stroke-width="6" stroke-linecap="round" stroke-linejoin="round" stroke-miterlimit="10" points="
		595,357.1 591.6,356.1 588.2,355.1 584.8,354 581.3,353 581.7,351.6 582.1,350.3 582.6,349 583,347.7 587.5,348 592.1,348.4 
		596.6,348.7 601.1,349.1 	"/>
	<path fill="none" stroke="#2B2B2B" stroke-width="12" stroke-linecap="round" stroke-linejoin="round" stroke-miterlimit="10" d="
		M352.4,423.2c0,0-0.9,1.8-2.5,4.6c-1.5,2.8-3.6,6.7-5.7,10.9c-2.1,4.2-4.4,8.5-6.4,12.5c-2,3.9-3.7,7.3-4.7,9.4s-4.6,6.7-9.5,12.6
		s-11,13.1-17,20.5s-11.9,14.9-16.4,21.5c-4.4,6.6-7.4,12.2-7.6,15.8c-0.1,3.6,0.1,7,0.9,10.1c0.8,3.2,2.3,6,4.6,8.3
		c2.3,2.3,5.4,4.2,9.5,5.4c4.1,1.1,9.3,1.6,15.6,1.2s14.2-5.1,22.3-11.9c8.2-6.8,16.7-15.7,24.7-24.6c8-8.9,15.3-17.8,21.1-24.5
		c5.8-6.7,9.9-11.3,11.4-11.6c1.5-0.3,3.2-0.7,5-1.2c1.8-0.4,3.8-0.9,5.7-1c1.9-0.2,3.9-0.1,5.8,0.3c1.9,0.5,3.6,1.4,5.2,3
		c1.6,1.5,4,7,7.2,14.6s6.9,17.2,11.3,27s9.3,19.8,14.7,28c5.4,8.3,11.1,14.8,17.2,17.8s11.7,3.8,16.7,3.1s9.3-3.2,12.7-6.6
		c3.4-3.5,5.9-8.1,7.3-13.1c1.4-5.2,1.7-10.9,0.7-16.7s-3.6-15.3-6.9-26.3c-3.4-11-7.4-23.5-11.3-35.2c-4-11.7-7.8-22.8-10.6-30.9
		s-4.7-13.2-4.7-13.2"/>
	
		<polyline fill="none" stroke="#2B2B2B" stroke-width="12" stroke-linecap="round" stroke-linejoin="round" stroke-miterlimit="10" points="
		283.8,541.4 295.6,573.5 307.5,605.5 319.3,637.6 331.1,669.6 	"/>
	<path fill="none" stroke="#2B2B2B" stroke-width="12" stroke-linecap="round" stroke-linejoin="round" stroke-miterlimit="10" d="
		M329.8,669c0,0-0.5,0.5-1.1,1.3c-0.7,0.8-1.6,1.9-2.5,3s-1.9,2.1-2.6,3c-0.7,0.8-1.3,1.4-1.5,1.4s-2.7-0.1-6.5-0.4
		c-3.8-0.3-8.9-0.6-14-0.8c-5.2-0.2-10.5-0.3-14.9-0.2s-7.7,0.6-9,1.5s-3.1,2.5-5.1,4.4s-4.2,4.2-6.2,6.3s-3.9,4.2-5.2,5.6
		s-2.2,2.4-2.2,2.4s2,0.3,5.1,0.8c3.2,0.5,7.4,1.1,11.9,1.6c4.6,0.5,9.5,1.1,13.8,1.4s8.1,0.4,10.5,0.1c2.4-0.3,5.1-1.1,7.9-2.3
		s5.6-2.6,8.4-4.1s5.4-2.9,7.6-4c2.3-1.1,4.2-1.9,5.6-2s3-0.4,4.7-0.7s3.4-0.7,5-1.1c1.5-0.4,3-0.7,4-0.9c1-0.3,1.6-0.4,1.6-0.4
		l-3.8-4l-3.8-4l-3.8-4L329.8,669z"/>
	
		<polyline fill="none" stroke="#2B2B2B" stroke-width="12" stroke-linecap="round" stroke-linejoin="round" stroke-miterlimit="10" points="
		561.6,649.9 540.4,631.3 519.2,612.5 498,593.9 476.8,575.2 	"/>
	<path fill="none" stroke="#2B2B2B" stroke-width="12" stroke-linecap="round" stroke-linejoin="round" stroke-miterlimit="10" d="
		M561.6,649.9l1.3,0.3l1.3,0.3l1.3,0.3l1.3,0.3l3.3,2.8l3.3,2.8l3.3,2.8l3.3,2.8l0.2,2.5l0.2,2.5l0.2,2.5l0.2,2.5
		c0,0-1.1,0.9-3.2,2.3c-1.9,1.4-4.8,3.4-8.1,5.5s-7,4.6-10.9,6.8c-3.9,2.3-7.8,4.6-11.7,6.4c-2.1,1-4.7,1.7-7.7,2.3
		c-3,0.5-6.2,0.9-9.7,1.1c-3.4,0.2-6.8,0.3-10.1,0.3s-6.4-0.1-9.1-0.2c-1.1-0.1-1.9-0.4-2.5-1s-0.9-1.4-1.1-2.3
		c-0.1-0.9-0.1-1.9,0.2-3s0.7-2.1,1.3-3c1.1-1.7,2.6-3.6,4.4-5.4c1.7-1.9,3.8-3.9,5.8-5.7c2.1-1.8,4.2-3.6,6.1-5
		c1.9-1.4,3.8-2.5,5.2-3.2l7.1-0.7l7.1-0.6l7.1-0.7l7.1-0.7l-0.1-4l-0.1-4l-0.1-4l-0.1-4"/>
</g>
<g id="vs-reveal">
	
		<path fill="none" stroke="#E01E69" stroke-width="100.6358" stroke-linecap="round" stroke-linejoin="round" stroke-miterlimit="10" stroke-opacity="0" d="
		M450.5,104.7c0,0-5.4,0.7-13,1.7c-7.6,1.1-17.5,2.7-26.5,4.5s-17.1,4-21.2,6.2s-4.2,4.6,2.9,6.8c7,2.3,15.1,4.6,23.1,6.8
		s15.8,4.4,22.5,6.4s12.3,3.8,15.6,5.5c3.4,1.6,4.4,3,2.3,4c-2.1,1.1-8.1,2.5-15.7,4.3c-7.6,1.7-16.7,3.8-25.2,6
		c-8.5,2.1-16.4,4.4-21.5,6.7c-5,2.2-7.2,4.4-4.4,6.4c2.8,2,9.5,6.1,17.7,11.2s17.8,11.2,26.6,17.1c8.8,5.9,16.8,11.7,21.5,16.1
		c4.7,4.4,6.2,7.5,2.1,8.2s-13.1,1.8-24,3.3c-10.8,1.5-23.5,3.2-34.8,5.1c-11.3,1.9-21.3,3.9-26.8,5.8c-5.5,1.9-6.6,3.6,0,5.1
		s19,4.5,33.6,8.3c14.7,3.8,31.6,8.4,47.3,12.8c15.6,4.4,30.1,8.8,39.6,12.1s14.2,5.8,10.5,6.3s-16.6,1.7-33.3,3.2
		c-16.8,1.5-37.5,3.5-57,5.6s-37.6,4.4-49.4,6.8s-17,4.6-10.7,6.8s27.4,4,55,5.6s61.7,3.2,93.9,4.6c32.3,1.4,62.9,2.8,83.4,4
		c20.5,1.3,31.1,2.7,23.4,4.1c-7.6,1.4-41.7,5.4-87.4,10.7c-45.6,5.3-102.9,11.9-157.3,18.6S257.8,365,224,370.6
		c-33.7,5.6-50,10.1-33.9,12.3c16,2.1,42.9,3.8,73.9,5.2c30.9,1.4,66,2.5,98.4,3.4s62,1.7,82.2,2.4c20.2,0.7,30.9,1.4,25.4,2.2
		c-5.5,0.8-17.4,3.7-31.9,7.4c-14.5,3.8-31.5,8.5-47.4,12.9c-15.8,4.4-30.3,8.7-39.7,11.5c-9.4,2.8-13.7,4.2-9.1,3.1
		s16.8-0.9,31.9,0.2c15.2,1.1,33.2,3.1,49.8,5.5c16.6,2.4,31.8,5.2,41,8.1c9.2,2.8,12.4,5.6,5.2,7.8c-7.2,2.3-20.5,5.6-36.4,9.3
		c-15.8,3.8-34.1,7.8-51.3,11.7c-17.1,3.8-33,7.4-44,10.1s-17.1,4.4-14.7,4.6c2.5,0.1,17.3,1,37.2,2.2c20,1.3,45.1,3,68,4.8
		c23,1.8,43.9,3.8,55.4,5.6c11.5,1.8,13.8,3.6-0.5,5c-14.3,1.3-37.2,3.6-62.2,6.4c-25.1,2.8-52.4,6.1-75.8,9.6
		c-23.4,3.5-42.9,7-52.3,10.4s-8.7,6.4,8.3,8.9s38.4,5.4,60.9,8.4c22.4,3,45.7,6,66.3,8.8s38.6,5.2,50.3,6.9s17.2,2.8,13,2.8
		s-22.2,7.1-46.2,17.8s-53.9,25-82.2,39.3s-54.9,28.8-72.3,40c-17.4,11.1-25.4,18.9-16.4,19.7c8.9,0.9,35.2-1.1,68.7-4.2
		s74.5-7.6,112.8-11.8s74.1-8.1,97.2-10.3c23.1-2.2,33.6-2.7,21.6,0.1s-23.5,6-33.7,9.2s-19,6.4-25.6,9.2
		c-6.6,2.8-10.9,5.1-12.3,6.6c-1.3,1.5,0.5,2.1,6.3,1.5"/>
</g>
</svg>
