<?xml version="1.0" encoding="utf-8"?>
<!-- Generator: Adobe Illustrator 22.0.1, SVG Export Plug-In . SVG Version: 6.00 Build 0)  -->
<svg version="1.1" id="Layer_1" xmlns="http://www.w3.org/2000/svg" xmlns:xlink="http://www.w3.org/1999/xlink" x="0px" y="0px"
	 width="900px" height="900px" viewBox="0 0 900 900" enable-background="new 0 0 900 900" xml:space="preserve">
<g id="vs-colour">
	<path fill="#FFFFFF" d="M533.2,520.2c0,0-0.9,57.9-29.4,81.6c-28.5,23.7-65.5,7.6-65.5,7.6l-7.6-28.5l35.1-3.8l48.4-32.3
		L533.2,520.2z"/>
	<path fill="#FFFFFF" d="M504.7,679.7c0,0,35.1,26.6,33.2,34.2s-26.6,24.7-26.6,24.7s-48.4,1.9-65.5-6.6s-24.7-20.9-24.7-20.9
		l42.7-9.5l-7.6-11.4L504.7,679.7z"/>
</g>
<g id="vs-primary">
	<path fill="#27A8CB" d="M426.9,190.9c0,0,2.4-0.4,6.7,0.4c14.8,2.6,52.3,18.5,94.8,108.8c55,116.7,14.2,185.1,14.2,185.1
		s-35.1,88.3-84.5,91.1s-7.6-69.3-7.6-69.3l7.6-33.2l-1.9-150l-25.6-51.3L426.9,190.9z"/>
</g>
<g id="vs-secondary">
	<path fill="#FFFFFF" d="M426.9,190.9c0,0,0.9,81.6,10.4,97.8c9.5,16.1,18,44.6,18,44.6s9.5,78.8,4.7,123.4
		c-4.7,44.6-39.3,61.5-60.7,65.5c-36.1,6.6-40.8-141.4-40.8-141.4S331,238.4,377.5,208S426.9,190.9,426.9,190.9z"/>
</g>
<g id="vs-shade">
	<path opacity="0.4" fill="#2B2B2B" enable-background="new    " d="M460.1,324.7c9.5,2.8,46.5,69.3,23.7,131.9s-33.2,37-33.2,37
		s12.3-78.8,12.3-107.2S460.1,324.7,460.1,324.7z"/>
	<path opacity="0.4" fill="#2B2B2B" enable-background="new    " d="M351.9,285.8c21.8,49.4,38,24.7,30.4,56S370,492.7,407,492.7
		s57.9-98.7,57.9-98.7s-5.7,96.8-27.5,114.8s-43.7,19.9-53.1,11.4c-9.5-8.5-25.6-86.4-25.6-86.4L351.9,285.8z"/>
	<path opacity="0.4" fill="#2B2B2B" enable-background="new    " d="M534.1,523.1c6.6,13.3-10.4,77.8-31.3,84.5
		c-20.9,6.6-43.7,22.8-58.8,9.5c-15.2-13.3-18-48.4-18-48.4s-7.6,32.3,48.4,6.6s56.9-63.6,56.9-63.6L534.1,523.1z"/>
</g>
<g id="vs-outline">
	
		<path fill="none" stroke="#2B2B2B" stroke-width="16.1626" stroke-linecap="round" stroke-linejoin="round" stroke-miterlimit="10" d="
		M416.9,191.9c-72.6,8.5-74,75.5-63.9,129.4c17.6,93.7,0,203.5,50.2,204.6c85.4,1.9,51.3-201.2,51.3-201.2"/>
	
		<path fill="none" stroke="#2B2B2B" stroke-width="16.1626" stroke-linecap="round" stroke-linejoin="round" stroke-miterlimit="10" d="
		M532.3,515.6c8.6,17.8,5.4,44.3-9.8,67.7c-20.3,31.2-54.4,45-76.1,30.9c-21.8-14.1-26.5-53.3-6.2-84.5"/>
	
		<path fill="none" stroke="#2B2B2B" stroke-width="16.1626" stroke-linecap="round" stroke-linejoin="round" stroke-miterlimit="10" d="
		M467.7,704c-15.3-1.5-30.3,1.1-41.8,2.3c-38,3.8,72.4,58.6,104,22.7"/>
	
		<line fill="none" stroke="#2B2B2B" stroke-width="16.1626" stroke-linecap="round" stroke-linejoin="round" stroke-miterlimit="10" x1="405.5" y1="515" x2="410.7" y2="715.8"/>
	
		<path fill="none" stroke="#2B2B2B" stroke-width="16.1626" stroke-linecap="round" stroke-linejoin="round" stroke-miterlimit="10" d="
		M426.4,183.3c41.3,4.3,162.3,169.4,129.5,270.5s-86.8,139.5-118.2,122.4s65.5-138.1,65.5-138.1"/>
	
		<path fill="none" stroke="#2B2B2B" stroke-width="16.1626" stroke-linecap="round" stroke-linejoin="round" stroke-miterlimit="10" d="
		M429.2,193.3c-2.8,28.5,5.2,124.8,28,132.4"/>
	
		<path fill="none" stroke="#2B2B2B" stroke-width="16.1626" stroke-linecap="round" stroke-linejoin="round" stroke-miterlimit="10" d="
		M450.6,564.8c0,0-5.2,86.8,3.8,128.1"/>
	
		<path fill="none" stroke="#2B2B2B" stroke-width="16.1626" stroke-linecap="round" stroke-linejoin="round" stroke-miterlimit="10" d="
		M520.7,699c-1.8-6.4-17.1-18.9-17.1-18.9s-24.6,10-41.3,10c-15.2,0,12.5,21.4,40.2,33.5c27.7,12.1,45.6-5,33.1-12.1
		s-37.7-16.7-37.7-16.7"/>
</g>
<g id="vs-stroke">
	
		<path fill="none" stroke="#EA1149" stroke-width="150.0298" stroke-linecap="round" stroke-linejoin="round" stroke-miterlimit="10" stroke-opacity="0" d="
		M432,197c0,0-89.3,60.5-77.8,83.5s193,20.2,193,37.4S360,378.4,383,421.6s227.5-74.9,184.3,17.3s-97.9,146.9-132.5,115.2
		s-37.4-49-37.4-49L447,615l45.4,100.4"/>
</g>
</svg>
