<?xml version="1.0" encoding="utf-8"?>
<!-- Generator: Adobe Illustrator 23.0.4, SVG Export Plug-In . SVG Version: 6.00 Build 0)  -->
<svg version="1.1" id="Layer_1" xmlns="http://www.w3.org/2000/svg" xmlns:xlink="http://www.w3.org/1999/xlink" x="0px" y="0px"
	 width="1000px" height="1000px" viewBox="0 0 1000 1000" enable-background="new 0 0 1000 1000" xml:space="preserve">
<g id="vs-primary">
	<path fill="#27A8CB" d="M518.6,277.6c0,0-24.7-1.5-37.2,1.7c-12.5,3.4-71.1,15-87.4,23.2c-16.3,8.1-60.8,35.8-59,45.7
		c1.9,9.9,4.7,9.7,39.4,2.9s72.6-19.3,72.6-19.3s-28,97.9-25,153.3s2.8,97.3,2.8,97.3l32-21.3l8.8-14.2l15.7,25.7
		c0,0,75.3,7.5,86.8-8.2s10.6-99.1,10.6-99.1l32.8-35.6c0,0-6.3-45.9-20.5-78.8s-36.4-71.9-46.7-71.8
		C534.1,279.2,518.6,277.6,518.6,277.6z"/>
</g>
<g id="vs-colour">
	<ellipse fill="#FFFFFF" cx="518.3" cy="169.7" rx="40.2" ry="50.9"/>
	<path fill="#FFFFFF" d="M364.7,353c0,0,4.7,32.5,0,56.7s-9.2,56.5,0,69.6c9.2,13,16-1.4,22.6,19.5s11,23.2,0,31.1s-10.9,9.6-28,8.7
		c-17.1-0.9-16.8,5.9-21.4-4.3c-4.5-10.3-21.2-59.7-21.2-88.3c0-28.6,18.7-94.8,18.7-94.8S350,368,364.7,353z"/>
	<path fill="#FFFFFF" d="M681,331.8l-19.5,9.7c0,0-15.9,35.6-16.8,41.7c-0.8,6-13.6,28.8-13.6,28.8l-56.2,59c0,0,3.1,29.9,20.2,29.3
		c17.2-0.6,37.8-33.6,37.8-33.6s20.6-56.5,33.6-61.6c13-5.2,27.1-3.9,33.4-15c6.3-11.1,18.5-26.4,11.1-33.5S681,331.8,681,331.8z"/>
	<path fill="#FFFFFF" d="M524,574.3c0,0-31.7,13.8-42.6-2.9s-6.1-20.4-11.8-18c-5.7,2.4-26.3,16.5-31.9,20.2
		c-5.7,3.7-17.2,24.5-7.1,36.1s-12,36.5-12,36.5s-33.8,43.5-18.7,70.3c15,26.8,34.2,36.3,49,31.4c14.7-4.9,60.1-87.8,60.1-87.8
		s106.6,22.1,127,17.2c20.4-4.9,35.8-27.4,33.5-37.2c-2.3-9.9-6-29.3-25.2-36.2C625.3,597.3,542.1,572.1,524,574.3z"/>
	<path fill="#FFFFFF" d="M722,858.9c0,0,8.6-14.5-21.2-17.8c-29.9-3.4-45.5,2.1-46.2,6.4S622,866,634.5,874.2
		c12.5,8.1,46.2-2.7,46.2-2.7s49.7-1,49.3-4.3C729.5,863.8,722,858.9,722,858.9z"/>
	<path fill="#FFFFFF" d="M284.9,700.8c0,0-68.6,51.6-74.2,62.5c-5.6,10.9,0.9,21.8,13,20.4s33.6-10.6,40.7-22.2
		C271.7,749.7,284.9,700.8,284.9,700.8z"/>
</g>
<g id="vs-shade">
	<path opacity="0.2" enable-background="new    " d="M481.4,308.1c0,0-53.9,154.8-27.8,219.4c26.2,64.6,71.3,47,71.3,47
		s-90.8,1.4-57.7,45.4s153.5,54.9,153.5,54.9s-145.7-72.2-174.3-4.9c-28.7,67.4-30.2,74.1-30.2,74.1s-33.5-29-14.1-65.1s34-55,34-55
		s-11.6-18-11.5-35.9s-3.7-49.9-3.4-52.1c0.3-2.2,4.1-161.4,23.1-196.1C463.3,304.9,474.3,315.7,481.4,308.1z"/>
</g>
<g id="vs-outline">
	
		<ellipse fill="none" stroke="#2B2B2B" stroke-width="19.1642" stroke-linecap="round" stroke-linejoin="round" stroke-miterlimit="10" cx="518.6" cy="171" rx="45" ry="52.2"/>
	
		<path fill="none" stroke="#2B2B2B" stroke-width="19.1642" stroke-linecap="round" stroke-linejoin="round" stroke-miterlimit="10" d="
		M447,331.8c-32.6,96.6-28.1,236.3-19.1,247.6c0,0,10.2-13.7,26.4-13.2l10.4-20.9l13.5,25.9c0,0,77.3,11.7,91.6-6.8
		c0,0,24.6-276.3-56.2-286.4c-12.3-1.5-23.5,2.1-26.6,4.9"/>
	
		<path fill="none" stroke="#2B2B2B" stroke-width="19.1642" stroke-linecap="round" stroke-linejoin="round" stroke-miterlimit="10" d="
		M427.9,579.4c-9.7,26.3-4.1,67.5,123.3,90.3c37.2,6.7,78.9,15.2,99.5,2.9c9.3-5.6,24.8-28.6,16.7-42c-35.2-58-176-57.9-176-57.9"/>
	
		<path fill="none" stroke="#2B2B2B" stroke-width="19.1642" stroke-linecap="round" stroke-linejoin="round" stroke-miterlimit="10" d="
		M431.9,287.3c21.4-7.1,59.5-7.1,55.4,5.7c-6.5,20.6-27,30.8-56.8,43.1c-46.9,19.4-89.3,26.6-95.1,14.9c-4.2-8.5,20.2-29.3,44-41.4
		C404.4,297,413.9,293.2,431.9,287.3z"/>
	
		<path fill="none" stroke="#2B2B2B" stroke-width="19.1642" stroke-linecap="round" stroke-linejoin="round" stroke-miterlimit="10" d="
		M524,280.8c0,0,54.2-28.1,88.3,152.7"/>
	
		<path fill="none" stroke="#2B2B2B" stroke-width="19.1642" stroke-linecap="round" stroke-linejoin="round" stroke-miterlimit="10" d="
		M335.4,351.1c0,0-22.9,57.7-11.3,123c0,0,3.5,28.9,10.3,53.4c6.4,23.1,49.2,10.1,56.8,3.4c7.7-6.7-1.1-42-17.7-41.5
		c-17.6,0.5-14.3-23.2-15.2-33.7c0,0,1.5-25.1,3.6-35.7c7.5-37.2,4.6-65.4,4.6-64.5"/>
	
		<path fill="none" stroke="#2B2B2B" stroke-width="19.1642" stroke-linecap="round" stroke-linejoin="round" stroke-miterlimit="10" d="
		M644.5,386.1c-1.2,24.8-69.4,82.6-69.4,82.6"/>
	
		<path fill="none" stroke="#2B2B2B" stroke-width="19.1642" stroke-linecap="round" stroke-linejoin="round" stroke-miterlimit="10" d="
		M644.5,386.1c1.5-32.3,25.1-54.2,31.7-54.3c5.7-0.1,37.4,24.4,34.9,33.7c-12.3,45.6-42.9,40.9-42.9,40.9
		c-26.6,43.4-47.7,75.7-47.7,75.7s-24.1,37.3-45.5,13.2"/>
	
		<path fill="none" stroke="#2B2B2B" stroke-width="19.1642" stroke-linecap="round" stroke-linejoin="round" stroke-miterlimit="10" d="
		M644.5,386.1c0,0,2.6-42.7,34.1-15.9"/>
	
		<path fill="none" stroke="#2B2B2B" stroke-width="19.1642" stroke-linecap="round" stroke-linejoin="round" stroke-miterlimit="10" d="
		M660.2,663c0,0-58.4,143.9-33.1,205.8c0,0-1.9,17.1,33.6,8.9c27.2-6.2,94.5-1.9,59.3-28.7s-92.9,19.8-92.9,19.8"/>
	
		<path fill="none" stroke="#2B2B2B" stroke-width="19.1642" stroke-linecap="round" stroke-linejoin="round" stroke-miterlimit="10" d="
		M509.1,660.4c0,0-36.1,86-65.4,89.2c-29.2,3.3-82-40.1-7.5-125.7"/>
	
		<path fill="none" stroke="#2B2B2B" stroke-width="19.1642" stroke-linecap="round" stroke-linejoin="round" stroke-miterlimit="10" d="
		M434.3,749.2c0,0-104.1-29.9-150.5-52.7c0,0-50.5,39.2-71.7,61.9c-27.2,29.2,31,32.6,48.1,4.1c17.2-28.6,29.5-63.2,29.5-63.2"/>
</g>
<g id="vs-reveal">
	
		<path fill="none" stroke="#23E828" stroke-width="143.7317" stroke-linecap="round" stroke-linejoin="round" stroke-miterlimit="10" stroke-opacity="0" d="
		M573.5,125c0,0-80.6,36.1-144.2,78.6s-110.3,91-42.4,116c67.9,24.9,132.4,11.6,171-2.7c38.6-14.4,51.3-29.7,15.6-8.8
		c-35.7,20.9-127,44.6-197.7,64.9s-120.9,37.2-74.8,44.7c46.2,7.5,161.4-12.2,254.2-28.6c92.9-16.3,163.4-29.4,120.2-8.7
		c-43.2,20.6-142,53-221.6,80.1s-140.3,49.2-107.1,49.2s127.5-13.6,200.7-21.6s125.1-10.3,73.4,12.3
		c-51.7,22.5-114.8,43.3-158.2,61.1s-67.5,32.8-41.2,43.7s94.5,10.9,150.4,10.7c56-0.2,99.7-0.6,76.9,9.9
		C626,636.2,545,649.3,480.6,662.1s-112.4,25.3-69.2,34.5s102.1,14.2,150,16.8c47.8,2.6,84.5,2.9,83.3,2.7s-133.6,5-251.1,12.6
		c-117.6,7.7-220.5,17.8-162.9,27.6s193.7,32.9,305.2,55.7s198.4,45.3,157.7,54"/>
</g>
</svg>
