<?xml version="1.0" encoding="utf-8"?>
<!-- Generator: Adobe Illustrator 25.2.1, SVG Export Plug-In . SVG Version: 6.00 Build 0)  -->
<!DOCTYPE svg PUBLIC "-//W3C//DTD SVG 1.1//EN" "http://www.w3.org/Graphics/SVG/1.1/DTD/svg11.dtd" [
	<!ENTITY ns_extend "http://ns.adobe.com/Extensibility/1.0/">
	<!ENTITY ns_ai "http://ns.adobe.com/AdobeIllustrator/10.0/">
	<!ENTITY ns_graphs "http://ns.adobe.com/Graphs/1.0/">
	<!ENTITY ns_vars "http://ns.adobe.com/Variables/1.0/">
	<!ENTITY ns_imrep "http://ns.adobe.com/ImageReplacement/1.0/">
	<!ENTITY ns_sfw "http://ns.adobe.com/SaveForWeb/1.0/">
	<!ENTITY ns_custom "http://ns.adobe.com/GenericCustomNamespace/1.0/">
	<!ENTITY ns_adobe_xpath "http://ns.adobe.com/XPath/1.0/">
]>
<svg version="1.1" id="Layer_1" xmlns:x="&ns_extend;" xmlns:i="&ns_ai;" xmlns:graph="&ns_graphs;"
	 xmlns="http://www.w3.org/2000/svg" xmlns:xlink="http://www.w3.org/1999/xlink" x="0px" y="0px" width="1000px" height="1000px"
	 viewBox="0 0 1000 1000" enable-background="new 0 0 1000 1000" xml:space="preserve">
<metadata>
	<sfw  xmlns="&ns_sfw;">
		<slices></slices>
		<sliceSourceBounds  bottomLeftOrigin="true" height="585.4" width="663.2" x="168.9" y="208.2"></sliceSourceBounds>
	</sfw>
</metadata>
<g id="vs-primary">
	<path fill="#EF439A" d="M227.8,254.9c0-14.6,11.9-26.5,26.5-26.5H503c0,0,270.3,5,270.3,269.4S501.5,771.3,501.5,771.3H254.2
		c-14.6,0-26.5-11.9-26.5-26.5V254.9H227.8z"/>
</g>
<g id="vs-outline">
	<path fill="none" stroke="#000000" stroke-width="13" stroke-linecap="round" stroke-linejoin="round" stroke-miterlimit="10" d="
		M227.8,254.9c0-14.6,11.9-26.5,26.5-26.5h29h29.3H347h27.6h31h31H466h36.9c0,0,17.7,0.3,44.1,5.3c16,3,35.3,7.7,55.7,15.1
		c15.9,5.7,32.5,13.1,48.8,22.5c16.9,9.8,33.5,21.8,48.8,36.5c11.9,11.5,23,24.7,32.8,39.7c10.9,16.9,20.1,36.1,27,58
		c4.1,13.3,7.4,27.6,9.6,42.9c2.2,15.4,3.4,31.8,3.4,49.4c0,18.2-1.3,35.2-3.7,51.1c-3,19.9-7.8,38-13.9,54.6
		c-5.7,15.2-12.5,29-20.2,41.5c-10,16.2-21.6,30.4-34,42.7c-10.3,10.2-21.2,19.1-32.5,27c-18.8,13.2-38.5,23.3-57.5,31
		c-16.7,6.9-32.9,11.9-47.5,15.6c-36.1,9.1-62.4,10-62.4,10H478h-36.2h-27.6h-34.5H347h-29.3h-29.3h-34.2
		c-14.6,0-26.5-11.9-26.5-26.5v-32V680v-29.3v-29.3V587v-29.3v-25.2v-32.6v-28.4v-39.7v-31v-36.2v-24.1v-32.8v-31L227.8,254.9
		L227.8,254.9z"/>
</g>
<g id="vs-reveal">
	
		<polyline fill="none" stroke="#000000" stroke-width="80" stroke-linecap="round" stroke-linejoin="round" stroke-miterlimit="10" stroke-opacity="0" points="
		208.9,246.4 257.5,246.4 306.1,246.4 354.7,246.4 403.3,246.4 451.9,246.4 500.5,246.4 549.1,246.4 597.6,246.4 646.2,246.4 
		694.8,246.4 646.4,260.3 597.9,274.2 549.4,278.9 500.8,283.5 452.2,288.1 403.6,292.7 355.1,297.4 306.5,302 258,306.6 
		209.4,311.2 258,315.9 306.5,320.5 355.1,320.5 403.6,320.5 452.2,320.5 500.8,320.5 549.4,320.5 597.9,320.5 646.5,320.5 
		695,320.5 743.6,320.5 792.1,320.5 743.5,329.8 694.8,339.1 646.2,343.8 597.6,348.4 549.1,353.1 500.5,357.7 451.9,362.4 
		403.3,367 354.7,371.7 306.1,376.3 257.5,381 208.9,385.6 257.5,390.3 306.1,394.9 354.7,394.9 403.3,394.9 451.9,394.9 
		500.5,394.9 549.1,394.9 597.6,394.9 646.2,394.9 694.8,394.9 743.4,394.9 792,394.9 743.4,404.4 694.8,413.9 646.2,418.7 
		597.6,423.4 549.1,428.2 500.5,432.9 451.9,437.6 403.3,442.3 354.7,447.1 306.1,451.8 257.5,456.6 208.9,461.3 257.5,466.1 
		306.1,470.8 354.7,470.8 403.3,470.8 451.9,470.8 500.5,470.8 549.1,470.8 597.6,470.8 646.2,470.8 694.8,470.8 743.4,470.8 
		792,470.8 743.4,479.9 694.8,488.9 646.2,493.4 597.6,497.9 549.1,502.5 500.5,507 451.9,511.5 403.3,516 354.7,520.6 306.1,525.1 
		257.5,529.7 208.9,534.2 257.5,538.7 306.1,543.2 354.7,543.2 403.3,543.2 451.9,543.2 500.5,543.2 549.1,543.2 597.6,543.2 
		646.2,543.2 694.8,543.2 743.4,543.2 792,543.2 743.4,552.5 694.8,561.7 646.2,566.4 597.6,571 549.1,575.6 500.5,580.2 
		451.9,584.9 403.3,589.5 354.7,594.2 306.1,598.8 257.5,603.4 208.9,608 257.5,612.7 306.1,617.3 354.7,617.3 403.3,617.3 
		451.9,617.3 500.5,617.3 549.1,617.3 597.6,617.3 646.2,617.3 694.8,617.3 743.4,617.3 792,617.3 743.4,625.7 694.8,634.1 
		646.2,638.3 597.6,642.5 549.1,646.7 500.5,650.9 451.9,655.2 403.3,659.4 354.7,663.6 306.1,667.8 257.5,672 208.9,676.2 
		257.5,680.4 306.1,684.6 354.7,684.6 403.3,684.6 451.9,684.6 500.5,684.6 549.1,684.6 597.6,684.6 646.2,684.6 694.8,684.6 
		743.4,684.6 792,684.6 743.4,693 694.8,701.4 646.2,705.6 597.6,709.8 549.1,714 500.5,718.2 451.9,722.4 403.3,726.6 354.7,730.8 
		306.1,735 257.5,739.2 208.9,743.4 257.5,747.6 306.1,751.8 354.7,751.8 403.3,751.8 451.9,751.8 500.5,751.8 549.1,751.8 
		597.6,751.8 	"/>
</g>
</svg>
