<?xml version="1.0" encoding="utf-8"?>
<!-- Generator: Adobe Illustrator 16.0.0, SVG Export Plug-In . SVG Version: 6.00 Build 0)  -->
<!DOCTYPE svg PUBLIC "-//W3C//DTD SVG 1.1//EN" "http://www.w3.org/Graphics/SVG/1.1/DTD/svg11.dtd">
<svg version="1.1" id="Layer_1" xmlns="http://www.w3.org/2000/svg" xmlns:xlink="http://www.w3.org/1999/xlink" x="0px" y="0px"
	 width="400px" height="400px" viewBox="0 0 400 400" enable-background="new 0 0 400 400" xml:space="preserve">
<path fill="none" stroke="#000000" stroke-width="4" stroke-linecap="round" stroke-linejoin="round" stroke-miterlimit="10" d="
	M127,325.708c-1.073-30.077-0.442-29.169-1.073-38.291c-1.536-22.175-1.759-33.521-1.751-56.046
	c0.008-25.31-0.453-50.608-0.783-75.91c-0.12-9.14,0.013-18.34,0.013-27.485c0-3.956-1.119-20.235-0.019-23.051
	c0.962-2.46,3.185-1.3,4.683-1.049c5.376,0.899,10.79,0.957,16.185,0.263c13.457-1.73,26.895-2.442,40.379-2.472
	c7.448-0.016,14.8,0.307,22.263,0.307c7.385,0,13.392-1.9,20.723-1.067c0.559,34.613,1.18,60.046,0.547,103.796
	c-0.357,24.798-0.018,49.638-0.006,74.389c0.004,8.777,0.053,17.448,0.27,26.178c0.096,3.868-0.064,22.318-0.064,22.318
	s-3.31,1.088-5.486,1.292c-5.252,0.493-12.384-0.415-17.772,0.204c-15.932,1.83-22.125,2.173-34.388,0.89
	c-14.979-1.566-29.98-1.18-45.003-1.18"/>
<path fill="none" stroke="#000000" stroke-width="4" stroke-linecap="round" stroke-linejoin="round" stroke-miterlimit="10" d="
	M123.148,102.551c3.318-2.696,6.598-9.048,10.436-16.339c3.099-5.887,17.68-20.68,22.337-27.08
	c5.452-7.491,4.452-6.491,17.009-6.399c16.276,0.12,30.584-1.783,46.84-0.697c9.423,0.629,18.831-0.35,28.249,0.478
	c3.655,0.32,6.32-1.139,9.968-0.801c2.608,0.241,5.753-1.286,8.275,0.579c-3.22,1.79-7.218,7.242-10.058,12.669
	c-5.109,9.761-8.115,12.159-13.673,20.597c-3.881,5.891-8.421,10.484-12.575,14.94"/>
<path fill="none" stroke="#000000" stroke-width="4" stroke-linecap="round" stroke-linejoin="round" stroke-miterlimit="10" d="
	M265.957,54.146c0,26.107-0.044,45.519-0.571,71.482c-0.688,33.942,0.891,45.523,1.344,92.544
	c0.092,9.579,0.524,26.324,0.687,35.875c0.187,11.029-1.845,12.485-5.316,19.61c-5.548,11.384-12.402,21.47-18.528,31.025
	c-3.847,6-7.58,16.312-12.106,21.348c-0.196,0.218-0.604,0.158-0.508,0.148"/>
</svg>
