<?xml version="1.0" encoding="utf-8"?>
<!-- Generator: Adobe Illustrator 16.0.0, SVG Export Plug-In . SVG Version: 6.00 Build 0)  -->
<!DOCTYPE svg PUBLIC "-//W3C//DTD SVG 1.1//EN" "http://www.w3.org/Graphics/SVG/1.1/DTD/svg11.dtd">
<svg version="1.1" id="Layer_1" xmlns="http://www.w3.org/2000/svg" xmlns:xlink="http://www.w3.org/1999/xlink" x="0px" y="0px"
	 width="400px" height="400px" viewBox="0 0 400 400" enable-background="new 0 0 400 400" xml:space="preserve">
<path fill="none" stroke="#000000" stroke-width="4" stroke-linecap="round" stroke-linejoin="round" stroke-miterlimit="10" d="
	M156.854,314.373c16.815-0.006,20.521,1.607,37.519,1.607c10.995,0,21.989,0,32.982,0c6.868,0,13.739-0.066,20.606,0
	c1.346,0.012,6.434,1.006,7.396,0.586c3.002-1.309,11.316-9.812,13.109-12.404c14.396-20.803,27.083-33.648,40.9-54.74
	c5.01-7.648,8.859-12.369,9.553-21.625c0.946-12.635,0.977-34.733,0.974-47.413c-0.002-11.405-0.957-14.69-0.015-26.06
	c0.791-9.549-1.45-12.13-8.424-19.572c-8.487-9.057-18.437-23.904-27.899-31.813c-7.137-5.965-12.22-13.724-18.342-20.617
	c-5.68-6.396-10.095-7.518-18.866-7.518c-11.702,0-23.128-1.182-34.761-1.606c-11.115-0.405-22.322-0.001-33.446-0.001
	c-6.897,0-15.862-1.605-22.415,0.627c-6.461,6.105-18.243,19.244-24.155,26.242c-8.927,10.567-15.53,17.752-24.86,27.956
	c-4.1,4.483-12.984,11.122-15.048,17.07c-3.48,10.031-2.141,23.853-2.625,34.354c-0.658,14.297-2.289,28.583-2.707,42.888
	c-0.215,7.355-0.795,13.262,2.495,19.717c7.381,14.486,23.461,30.189,34.459,41.859c8.443,8.959,14.756,15.531,18.535,20.211
	c0.338,0.418,9.662,8.836,10.073,9.182"/>
</svg>
