<?xml version="1.0" encoding="utf-8"?>
<!-- Generator: Adobe Illustrator 16.0.0, SVG Export Plug-In . SVG Version: 6.00 Build 0)  -->
<!DOCTYPE svg PUBLIC "-//W3C//DTD SVG 1.1//EN" "http://www.w3.org/Graphics/SVG/1.1/DTD/svg11.dtd">
<svg version="1.1" id="Layer_1" xmlns="http://www.w3.org/2000/svg" xmlns:xlink="http://www.w3.org/1999/xlink" x="0px" y="0px"
	 width="400px" height="400px" viewBox="0 0 400 400" enable-background="new 0 0 400 400" xml:space="preserve">
<path fill="none" stroke="#000000" stroke-width="4" stroke-linecap="round" stroke-linejoin="round" stroke-miterlimit="10" d="
	M127.292,123.426c2.151,8.372,0.987,18.674,1.445,27.346c0.59,11.169,0.81,22.48,0.796,33.668
	c-0.019,14.188,0.015,28.375,0.001,42.563c-0.018,19.472,1.353,36.794-0.4,60.512c12.111-3.924,26.762-1.131,39.502-1.657
	c20.39-0.842,40.927-0.548,61.344-0.548c20.37,0,41.043,0.974,61.367-0.067c0.721-8.406-2.062-16.315-2.413-24.75
	c-0.198-4.744-0.09-13.83-2.002-18.23c-1.917-4.412-13.304-2.734-18.497-3.478c-19.831-2.842-35.785-0.273-59.635-1.146
	c-9.748-0.356-18.732-1.127-30.527-0.863c-0.993-18.849,0.075-36.775-0.521-59.436c-0.293-11.14-0.024-23.12-1.035-34.194
	c-0.689-7.556-0.195-15.197-0.616-22.78c-7.166-2.577-17.761,0.259-25.144,0.819c-8.232,0.624-16.755,1.615-25.012,1.345"/>
</svg>
