<?xml version="1.0" encoding="utf-8"?>
<!-- Generator: Adobe Illustrator 25.2.1, SVG Export Plug-In . SVG Version: 6.00 Build 0)  -->
<!DOCTYPE svg PUBLIC "-//W3C//DTD SVG 1.1//EN" "http://www.w3.org/Graphics/SVG/1.1/DTD/svg11.dtd" [
	<!ENTITY ns_extend "http://ns.adobe.com/Extensibility/1.0/">
	<!ENTITY ns_ai "http://ns.adobe.com/AdobeIllustrator/10.0/">
	<!ENTITY ns_graphs "http://ns.adobe.com/Graphs/1.0/">
	<!ENTITY ns_vars "http://ns.adobe.com/Variables/1.0/">
	<!ENTITY ns_imrep "http://ns.adobe.com/ImageReplacement/1.0/">
	<!ENTITY ns_sfw "http://ns.adobe.com/SaveForWeb/1.0/">
	<!ENTITY ns_custom "http://ns.adobe.com/GenericCustomNamespace/1.0/">
	<!ENTITY ns_adobe_xpath "http://ns.adobe.com/XPath/1.0/">
]>
<svg version="1.1" id="Layer_1" xmlns:x="&ns_extend;" xmlns:i="&ns_ai;" xmlns:graph="&ns_graphs;"
	 xmlns="http://www.w3.org/2000/svg" xmlns:xlink="http://www.w3.org/1999/xlink" x="0px" y="0px" width="1000px" height="1000px"
	 viewBox="0 0 1000 1000" enable-background="new 0 0 1000 1000" xml:space="preserve">
<metadata>
	<sfw  xmlns="&ns_sfw;">
		<slices></slices>
		<sliceSourceBounds  bottomLeftOrigin="true" height="628.1" width="1021.2" x="4" y="185.9"></sliceSourceBounds>
	</sfw>
</metadata>
<g id="vs-primary">
	<polygon fill="#3ACE95" points="297.1,274.9 50.4,707.5 976,707.5 715,274.9 	"/>
</g>
<g id="vs-outline">
	
		<polygon fill="none" stroke="#000000" stroke-width="20" stroke-linecap="round" stroke-linejoin="round" stroke-miterlimit="10" points="
		972,707.5 960.4,707.5 948.8,707.5 923.2,707.5 897.6,707.5 868.2,707.5 838.7,707.5 813,707.5 787.2,707.5 758,707.5 728.8,707.5 
		702.8,707.5 676.8,707.5 647.8,707.5 618.7,707.5 592.5,707.5 566.4,707.5 537.5,707.5 508.6,707.5 479.9,707.5 451.2,707.5 
		424.9,707.5 398.6,707.5 373.3,707.5 348,707.5 318.3,707.5 288.6,707.5 260.7,707.5 232.8,707.5 205.7,707.5 178.6,707.5 
		152.9,707.5 127.2,707.5 97.8,707.5 68.5,707.5 57.2,707.5 45.9,707.5 51.8,697.2 57.8,687 64.6,675.2 71.4,663.5 78.9,650.6 
		86.4,637.7 94.7,623.4 103.1,609.1 109.1,598.8 115.2,588.4 122.6,575.6 130,562.8 136.9,550.9 143.8,539 150.9,526.7 158.1,514.4 
		165.2,502.1 172.4,489.7 180.1,476.4 187.8,463.2 194.5,451.7 201.1,440.3 209,426.6 217,413 223.4,402 229.8,391 237.9,377 
		246,363.1 252.2,352.3 258.4,341.6 266,328.5 273.6,315.4 280.3,303.9 287,292.3 292,283.6 297.1,274.9 306.1,274.9 315.1,274.9 
		328,274.9 340.8,274.9 351.5,274.9 362.2,274.9 373.1,274.9 384,274.9 396.6,274.9 409.2,274.9 420.6,274.9 432,274.9 444.2,274.9 
		456.5,274.9 471.9,274.9 487.2,274.9 495.4,274.9 503.6,274.9 517,274.9 530.4,274.9 540.6,274.9 550.8,274.9 561,274.9 
		571.2,274.9 584.5,274.9 597.9,274.9 611,274.9 624,274.9 634.5,274.9 645,274.9 657.3,274.9 669.6,274.9 680.9,274.9 692.2,274.9 
		701,274.9 709.8,274.9 713.7,281.4 717.6,287.9 725.2,300.4 732.8,313 740.5,325.6 748.1,338.2 756.3,351.8 764.6,365.4 771.6,377 
		778.6,388.5 786.9,402.1 795.1,415.7 802.2,427.3 809.2,438.9 817.5,452.7 825.8,466.4 832.8,477.9 839.7,489.3 846.8,501.1 
		854,512.9 862.1,526.3 870.2,539.7 878,552.5 885.8,565.4 893.3,577.7 900.8,590.1 909.7,604.8 918.6,619.5 925,630 931.3,640.5 
		939.1,653.4 947,666.4 954.4,678.6 961.8,690.8 966.9,699.2 	"/>
</g>
<g id="vs-reveal">
	
		<path fill="none" stroke="#F40315" stroke-width="150" stroke-linecap="round" stroke-linejoin="round" stroke-miterlimit="10" stroke-opacity="0" d="
		M79,692.5c2.1-4.1,61.9-105.4,121.3-205.7s118.3-199.6,118.3-199.6s-54.4,121.2-102.4,232.4s-89.4,212.6-63.4,172.9
		s89.3-149.2,142.7-242.7s96.9-170.8,83.2-146.1c-13.7,24.6-65.8,139-106.9,238.4s-71.5,184-41.8,149.1s89.5-153.3,138.2-253.4
		s86.4-181.9,72.1-143.6c-14.4,38.3-58.1,152.2-91.9,248.2s-57.3,174-31.3,140.5s71.5-129.7,110.5-217.5s71.6-167.2,71.6-167.2
		S458.6,420,425.7,529.4s-57.8,206.2-26.3,156.3s79.8-175.2,115.8-272.3c36.1-97,60.1-165.8,43-102.8s-51,186.9-73.2,279.3
		s-32.9,153.3-3.5,90.4S551.6,501,582.3,411.1s51.2-153.2,40.2-110s-39.4,177.3-58,282.4c-18.7,105.1-27.5,181,0.5,107.8
		s67.4-205.4,96.5-304s47.9-163.6,34.9-102.6s-34.9,189-48.9,289.5s-20.2,173.3-1.8,124s50-177.3,72.2-270.8
		c22.3-93.4,35.3-152.3,16.8-63.3s-32.9,199.2-38,273.5s-1,112.6,17.5,57.8s42.1-150.7,58.2-213.8c16.1-63.1,24.6-93.6,13-17.6
		s-22.3,159.4-26.2,214.2s-1.1,81.1,14,42.9s36.7-118.7,51.6-175.3c14.9-56.6,23.1-89.5,11.4-32.7s-19.9,131.1-20.4,176.6
		s6.7,62.3,25.9,4.1s33.2-100.3,41.4-117.2s10.6-8.7,6.5,33.7c-4.1,42.5-9.1,83.5-9.2,105.6c-0.1,22.1,4.7,25.1,20.2-8.4
		s29.2-52.1,38.2-57.7c9.1-5.5,13.5,1.9,10.4,20.5"/>
</g>
</svg>
