<?xml version="1.0" encoding="utf-8"?>
<!-- Generator: Adobe Illustrator 25.2.1, SVG Export Plug-In . SVG Version: 6.00 Build 0)  -->
<!DOCTYPE svg PUBLIC "-//W3C//DTD SVG 1.1//EN" "http://www.w3.org/Graphics/SVG/1.1/DTD/svg11.dtd" [
	<!ENTITY ns_extend "http://ns.adobe.com/Extensibility/1.0/">
	<!ENTITY ns_ai "http://ns.adobe.com/AdobeIllustrator/10.0/">
	<!ENTITY ns_graphs "http://ns.adobe.com/Graphs/1.0/">
	<!ENTITY ns_vars "http://ns.adobe.com/Variables/1.0/">
	<!ENTITY ns_imrep "http://ns.adobe.com/ImageReplacement/1.0/">
	<!ENTITY ns_sfw "http://ns.adobe.com/SaveForWeb/1.0/">
	<!ENTITY ns_custom "http://ns.adobe.com/GenericCustomNamespace/1.0/">
	<!ENTITY ns_adobe_xpath "http://ns.adobe.com/XPath/1.0/">
]>
<svg version="1.1" id="Layer_1" xmlns:x="&ns_extend;" xmlns:i="&ns_ai;" xmlns:graph="&ns_graphs;"
	 xmlns="http://www.w3.org/2000/svg" xmlns:xlink="http://www.w3.org/1999/xlink" x="0px" y="0px" width="1000px" height="1000px"
	 viewBox="0 0 1000 1000" enable-background="new 0 0 1000 1000" xml:space="preserve">
<metadata>
	<sfw  xmlns="&ns_sfw;">
		<slices></slices>
		<sliceSourceBounds  bottomLeftOrigin="true" height="509.7" width="922.5" x="38.8" y="253"></sliceSourceBounds>
	</sfw>
</metadata>
<g id="vs-outline">
	
		<polygon fill="none" stroke="#000000" stroke-width="20" stroke-linecap="round" stroke-linejoin="round" stroke-miterlimit="10" points="
		48.8,247.3 62.9,247.3 77,247.3 91.1,247.3 105.2,247.3 119.3,247.3 133.4,247.3 147.5,247.3 161.6,247.3 175.7,247.3 189.8,247.3 
		203.9,247.3 218,247.3 232.1,247.3 246.2,247.3 260.3,247.3 274.4,247.3 288.5,247.3 302.6,247.3 316.7,247.3 330.8,247.3 
		344.9,247.3 359,247.3 373.1,247.3 387.2,247.3 401.3,247.3 415.4,247.3 429.5,247.3 443.6,247.3 457.7,247.3 471.8,247.3 
		485.9,247.3 500,247.3 514.2,247.3 528.3,247.3 542.4,247.3 556.5,247.3 570.6,247.3 584.7,247.3 598.8,247.3 612.9,247.3 
		627,247.3 641.1,247.3 655.2,247.3 669.3,247.3 683.4,247.3 697.5,247.3 711.6,247.3 725.7,247.3 739.8,247.3 753.9,247.3 
		768,247.3 782.1,247.3 796.2,247.3 810.3,247.3 824.4,247.3 838.5,247.3 852.6,247.3 866.7,247.3 880.8,247.3 894.9,247.3 
		909,247.3 923.1,247.3 937.2,247.3 951.3,247.3 951.3,255 951.3,262.6 951.3,270.2 951.3,277.9 951.3,285.5 951.3,293.2 
		951.3,300.9 951.3,308.5 951.3,316.1 951.3,323.8 951.3,331.5 951.3,339.1 951.3,346.8 951.3,354.4 951.3,362 951.3,369.7 
		951.3,377.4 951.3,385 951.3,392.6 951.3,400.3 951.3,408 951.3,415.6 951.3,423.2 951.3,430.9 951.3,438.5 951.3,446.2 
		951.3,453.9 951.3,461.5 951.3,469.1 951.3,476.8 951.3,484.5 951.3,492.1 951.3,499.8 951.3,507.5 951.3,515.2 951.3,522.8 
		951.3,530.4 951.3,538.1 951.3,545.8 951.3,553.4 951.3,561.1 951.3,568.7 951.3,576.3 951.3,584 951.3,591.7 951.3,599.3 
		951.3,606.9 951.3,614.6 951.3,622.2 951.3,629.9 951.3,637.6 951.3,645.2 951.3,652.8 951.3,660.5 951.3,668.2 951.3,675.8 
		951.3,683.4 951.3,691.1 951.3,698.8 951.3,706.4 951.3,714.1 951.3,721.7 951.3,729.3 951.3,737 937.2,737 923.1,737 909,737 
		894.9,737 880.8,737 866.7,737 852.6,737 838.5,737 824.4,737 810.3,737 796.2,737 782.1,737 768,737 753.9,737 739.8,737 
		725.7,737 711.6,737 697.5,737 683.4,737 669.3,737 655.2,737 641.1,737 627,737 612.9,737 598.8,737 584.7,737 570.6,737 
		556.5,737 542.4,737 528.3,737 514.2,737 500,737 485.9,737 471.8,737 457.7,737 443.6,737 429.5,737 415.4,737 401.3,737 
		387.2,737 373.1,737 359,737 344.9,737 330.8,737 316.7,737 302.6,737 288.5,737 274.4,737 260.3,737 246.2,737 232.1,737 218,737 
		203.9,737 189.8,737 175.7,737 161.6,737 147.5,737 133.4,737 119.3,737 105.2,737 91.1,737 77,737 62.9,737 48.8,737 48.8,729.3 
		48.8,721.7 48.8,714.1 48.8,706.4 48.8,698.8 48.8,691.1 48.8,683.4 48.8,675.8 48.8,668.2 48.8,660.5 48.8,652.8 48.8,645.2 
		48.8,637.6 48.8,629.9 48.8,622.2 48.8,614.6 48.8,606.9 48.8,599.3 48.8,591.7 48.8,584 48.8,576.3 48.8,568.7 48.8,561.1 
		48.8,553.4 48.8,545.8 48.8,538.1 48.8,530.4 48.8,522.8 48.8,515.2 48.8,507.5 48.8,499.8 48.8,492.1 48.8,484.5 48.8,476.8 
		48.8,469.1 48.8,461.5 48.8,453.9 48.8,446.2 48.8,438.5 48.8,430.9 48.8,423.2 48.8,415.6 48.8,408 48.8,400.3 48.8,392.6 
		48.8,385 48.8,377.4 48.8,369.7 48.8,362 48.8,354.4 48.8,346.8 48.8,339.1 48.8,331.5 48.8,323.8 48.8,316.1 48.8,308.5 
		48.8,300.9 48.8,293.2 48.8,285.5 48.8,277.9 48.8,270.2 48.8,262.6 48.8,255 	"/>
</g>
</svg>
