<?xml version="1.0" encoding="utf-8"?>
<!-- Generator: Adobe Illustrator 25.2.1, SVG Export Plug-In . SVG Version: 6.00 Build 0)  -->
<!DOCTYPE svg PUBLIC "-//W3C//DTD SVG 1.1//EN" "http://www.w3.org/Graphics/SVG/1.1/DTD/svg11.dtd" [
	<!ENTITY ns_extend "http://ns.adobe.com/Extensibility/1.0/">
	<!ENTITY ns_ai "http://ns.adobe.com/AdobeIllustrator/10.0/">
	<!ENTITY ns_graphs "http://ns.adobe.com/Graphs/1.0/">
	<!ENTITY ns_vars "http://ns.adobe.com/Variables/1.0/">
	<!ENTITY ns_imrep "http://ns.adobe.com/ImageReplacement/1.0/">
	<!ENTITY ns_sfw "http://ns.adobe.com/SaveForWeb/1.0/">
	<!ENTITY ns_custom "http://ns.adobe.com/GenericCustomNamespace/1.0/">
	<!ENTITY ns_adobe_xpath "http://ns.adobe.com/XPath/1.0/">
]>
<svg version="1.1" id="Layer_1" xmlns:x="&ns_extend;" xmlns:i="&ns_ai;" xmlns:graph="&ns_graphs;"
	 xmlns="http://www.w3.org/2000/svg" xmlns:xlink="http://www.w3.org/1999/xlink" x="0px" y="0px" width="1000px" height="1000px"
	 viewBox="0 0 1000 1000" enable-background="new 0 0 1000 1000" xml:space="preserve">
<metadata>
	<sfw  xmlns="&ns_sfw;">
		<slices></slices>
		<sliceSourceBounds  bottomLeftOrigin="true" height="824.5" width="948.6" x="25.7" y="126"></sliceSourceBounds>
	</sfw>
</metadata>
<g id="vs-outline">
	
		<polygon fill="none" stroke="#000000" stroke-width="20" stroke-linecap="round" stroke-linejoin="round" stroke-miterlimit="10" points="
		500,59.5 503.6,65.7 507.1,71.9 510.7,78.1 514.3,84.3 518.2,91 522.1,97.8 526,104.5 529.9,111.2 536.9,123.4 544,135.7 
		551,147.9 558,160.2 560.5,164.4 562.9,168.6 565.3,172.8 567.8,177 579.9,197.9 591.9,218.9 604,239.8 616.1,260.7 630.6,285.8 
		645.1,311 659.6,336.1 674.1,361.2 688.6,386.3 703.2,411.5 717.7,436.6 732.2,461.7 746.7,486.9 761.2,512 775.7,537.2 
		790.2,562.3 804.7,587.4 819.2,612.5 833.7,637.7 848.2,662.8 862.7,687.9 877.3,713 891.8,738.2 906.3,763.3 909.8,769.3 
		913.2,775.3 916.6,781.3 920.1,787.3 923.8,793.7 927.4,800 931.1,806.4 934.8,812.8 938.9,819.9 943,826.9 947.1,834 951.2,841.1 
		954.5,846.8 957.8,852.5 961,858.3 964.3,864 959.2,864 954.1,864 949,864 943.9,864 935.4,864 926.8,864 918.3,864 909.8,864 
		900.5,864 891.1,864 881.8,864 872.4,864 866.4,864 860.3,864 854.3,864 848.2,864 819.2,864 790.2,864 761.2,864 732.2,864 
		703.2,864 674.2,864 645.1,864 616.1,864 587.1,864 558,864 529,864 500,864 471,864 442,864 412.9,864 383.9,864 354.9,864 
		325.8,864 296.8,864 267.8,864 238.8,864 209.8,864 180.8,864 151.8,864 140.5,864 129.1,864 117.8,864 106.5,864 99.8,864 
		93.1,864 86.3,864 79.6,864 74.9,864 70.3,864 65.6,864 60.9,864 54.6,864 48.3,864 42,864 35.7,864 38.9,858.4 42.1,852.8 
		45.2,847.2 48.4,841.6 50.8,837.5 53.2,833.5 55.5,829.5 57.9,825.4 61.5,819.2 65.1,813 68.6,806.7 72.2,800.5 77.6,791.2 
		82.9,781.9 88.3,772.6 93.7,763.3 108.2,738.2 122.8,713 137.3,687.9 151.8,662.8 166.3,637.7 180.8,612.5 195.3,587.4 
		209.8,562.3 224.3,537.2 238.8,512 253.3,486.9 267.8,461.7 282.3,436.6 296.8,411.5 311.4,386.3 325.9,361.2 340.4,336.1 
		354.9,311 369.4,285.8 383.9,260.7 395.7,240.2 407.5,219.7 419.3,199.2 431.1,178.7 433.8,174.1 436.5,169.4 439.3,164.8 
		442,160.2 448.2,149.4 454.4,138.6 460.6,127.8 466.8,117 471.2,109.5 475.5,101.9 479.9,94.4 484.3,86.9 488.2,80.1 492.1,73.2 
		496.1,66.3 	"/>
</g>
</svg>
