<?xml version="1.0" encoding="utf-8"?>
<!-- Generator: Adobe Illustrator 15.0.0, SVG Export Plug-In . SVG Version: 6.00 Build 0)  -->
<!DOCTYPE svg PUBLIC "-//W3C//DTD SVG 1.1//EN" "http://www.w3.org/Graphics/SVG/1.1/DTD/svg11.dtd">
<svg version="1.1" id="Layer_1" xmlns="http://www.w3.org/2000/svg" xmlns:xlink="http://www.w3.org/1999/xlink" x="0px" y="0px"
	 width="197.5px" height="217px" viewBox="0 0 197.5 217" enable-background="new 0 0 197.5 217" xml:space="preserve">
<path fill="none" stroke="#000000" stroke-width="1.5" stroke-linecap="round" stroke-linejoin="round" stroke-miterlimit="10" d="
	M54.25,63c2.982-1.606,8.371-1.867,12.067-2.024c12.149-0.518,24.313,0.57,36.455,0.524c13.401-0.051,27.066,0.311,40.422,1.076
	c-1.232,4.611-6.408,10.095-9.031,14.377c-6.517,10.637-13.079,21.414-19.438,32.17c-6.631,11.218-11.035,23.15-16.613,34.723
	c-2.523-7.939-10.967-12.061-15.863-18.71c-5.788-7.862-9.941-16.692-13.474-25.723C63.677,86.38,56.427,74.15,51.729,61.142
	C51.7,61.892,51.984,62.297,52.25,63"/>
<path fill="none" stroke="#000000" stroke-width="1.6115" stroke-linecap="round" stroke-linejoin="round" stroke-miterlimit="10" d="
	M89.774,44.284c-6.518,18.77-18.62,38.998-24.171,59.517c-2.945,10.886-5.931,21.461-9.618,31.695
	c6.089,0.622,13.84-4.066,19.807-5.395c10.419-2.319,20.821-4.415,31.277-6.437c12.797-2.472,27.973-2.867,40.141-7.492
	c-4.914-7.179-12.074-14.065-18.233-20.453c-7.264-7.533-13.222-17.738-18.667-26.726c-5.255-8.67-10.379-23.569-19.407-28.818
	c0.693,1.251,1.319,2.974,2.095,4.107"/>
</svg>
