<?xml version="1.0" encoding="utf-8"?>
<!-- Generator: Adobe Illustrator 25.2.1, SVG Export Plug-In . SVG Version: 6.00 Build 0)  -->
<!DOCTYPE svg PUBLIC "-//W3C//DTD SVG 1.1//EN" "http://www.w3.org/Graphics/SVG/1.1/DTD/svg11.dtd" [
	<!ENTITY ns_extend "http://ns.adobe.com/Extensibility/1.0/">
	<!ENTITY ns_ai "http://ns.adobe.com/AdobeIllustrator/10.0/">
	<!ENTITY ns_graphs "http://ns.adobe.com/Graphs/1.0/">
	<!ENTITY ns_vars "http://ns.adobe.com/Variables/1.0/">
	<!ENTITY ns_imrep "http://ns.adobe.com/ImageReplacement/1.0/">
	<!ENTITY ns_sfw "http://ns.adobe.com/SaveForWeb/1.0/">
	<!ENTITY ns_custom "http://ns.adobe.com/GenericCustomNamespace/1.0/">
	<!ENTITY ns_adobe_xpath "http://ns.adobe.com/XPath/1.0/">
]>
<svg version="1.1" id="Layer_1" xmlns:x="&ns_extend;" xmlns:i="&ns_ai;" xmlns:graph="&ns_graphs;"
	 xmlns="http://www.w3.org/2000/svg" xmlns:xlink="http://www.w3.org/1999/xlink" x="0px" y="0px" width="1000px" height="1000px"
	 viewBox="0 0 1000 1000" enable-background="new 0 0 1000 1000" xml:space="preserve">
<metadata>
	<sfw  xmlns="&ns_sfw;">
		<slices></slices>
		<sliceSourceBounds  bottomLeftOrigin="true" height="206" width="988.2" x="5.9" y="397"></sliceSourceBounds>
	</sfw>
</metadata>
<g id="vs-outline">
	<g>
		<g>
			
				<path fill="none" stroke="#000000" stroke-width="20" stroke-linecap="round" stroke-linejoin="round" stroke-miterlimit="10" d="
				M364.1,423.7c7.6,2.1,16,4.4,24.4,6.7c8.4,2.3,16.8,4.6,24.4,6.6"/>
		</g>
		<g>
			
				<path fill="none" stroke="#000000" stroke-width="20" stroke-linecap="round" stroke-linejoin="round" stroke-miterlimit="10" d="
				M449.2,446.9c7.7,2.1,16,4.3,24.4,6.6c8.4,2.3,16.8,4.6,24.4,6.7"/>
		</g>
		<g>
			
				<path fill="none" stroke="#000000" stroke-width="20" stroke-linecap="round" stroke-linejoin="round" stroke-miterlimit="10" d="
				M534.3,470.1c7.7,2.1,16,4.4,24.4,6.7c8.4,2.3,16.7,4.6,24.4,6.7"/>
		</g>
		<g>
			
				<path fill="none" stroke="#000000" stroke-width="20" stroke-linecap="round" stroke-linejoin="round" stroke-miterlimit="10" d="
				M619.3,493.4c7.8,2.1,16.1,4.4,24.4,6.7c8.3,2.3,16.6,4.5,24.4,6.7"/>
		</g>
		<g>
			
				<path fill="none" stroke="#000000" stroke-width="20" stroke-linecap="round" stroke-linejoin="round" stroke-miterlimit="10" d="
				M704.4,516.6c7.8,2.1,16.1,4.4,24.4,6.7c8.3,2.3,16.6,4.6,24.4,6.6"/>
		</g>
		<g>
			
				<path fill="none" stroke="#000000" stroke-width="20" stroke-linecap="round" stroke-linejoin="round" stroke-miterlimit="10" d="
				M789.5,539.9c7.6,2.1,16,4.4,24.4,6.6c8.4,2.3,16.8,4.5,24.4,6.6"/>
		</g>
		<g>
			
				<path fill="none" stroke="#000000" stroke-width="20" stroke-linecap="round" stroke-linejoin="round" stroke-miterlimit="10" d="
				M874.6,563c7.9,2.2,16.2,4.5,24.4,6.7c8.2,2.3,16.5,4.5,24.4,6.7"/>
		</g>
		<g>
			
				<path fill="none" stroke="#000000" stroke-width="20" stroke-linecap="round" stroke-linejoin="round" stroke-miterlimit="10" d="
				M959.7,586.3c3,0.9,7.6,2.1,12.2,3.4c4.6,1.3,9.2,2.5,12.2,3.3c-3.2,0-7.9,0-12.7,0s-9.5,0-12.6,0"/>
		</g>
		<g>
			
				<path fill="none" stroke="#000000" stroke-width="20" stroke-linecap="round" stroke-linejoin="round" stroke-miterlimit="10" d="
				M921.4,593c-7.9,0-16.6,0-25.3,0c-8.7,0-17.4,0-25.3,0"/>
		</g>
		<g>
			
				<path fill="none" stroke="#000000" stroke-width="20" stroke-linecap="round" stroke-linejoin="round" stroke-miterlimit="10" d="
				M833.4,593c-7.9,0-16.6,0-25.3,0c-8.7,0-17.4,0-25.3,0"/>
		</g>
		<g>
			
				<path fill="none" stroke="#000000" stroke-width="20" stroke-linecap="round" stroke-linejoin="round" stroke-miterlimit="10" d="
				M745.3,593c-7.9,0-16.6,0-25.3,0c-8.7,0-17.4,0-25.3,0"/>
		</g>
		<g>
			
				<path fill="none" stroke="#000000" stroke-width="20" stroke-linecap="round" stroke-linejoin="round" stroke-miterlimit="10" d="
				M657.3,593c-7.9,0-16.6,0-25.3,0c-8.7,0-17.4,0-25.3,0"/>
		</g>
		<g>
			
				<path fill="none" stroke="#000000" stroke-width="20" stroke-linecap="round" stroke-linejoin="round" stroke-miterlimit="10" d="
				M569.3,593c-7.9,0-16.6,0-25.3,0c-8.7,0-17.4,0-25.3,0"/>
		</g>
		<g>
			
				<path fill="none" stroke="#000000" stroke-width="20" stroke-linecap="round" stroke-linejoin="round" stroke-miterlimit="10" d="
				M481.3,593c-7.9,0-16.6,0-25.3,0s-17.4,0-25.3,0"/>
		</g>
		<g>
			
				<path fill="none" stroke="#000000" stroke-width="20" stroke-linecap="round" stroke-linejoin="round" stroke-miterlimit="10" d="
				M393.3,593c-7.9,0-16.6,0-25.3,0s-17.4,0-25.3,0"/>
		</g>
		<g>
			
				<path fill="none" stroke="#000000" stroke-width="20" stroke-linecap="round" stroke-linejoin="round" stroke-miterlimit="10" d="
				M305.3,593c-7.9,0-16.6,0-25.3,0s-17.4,0-25.3,0"/>
		</g>
		<g>
			
				<path fill="none" stroke="#000000" stroke-width="20" stroke-linecap="round" stroke-linejoin="round" stroke-miterlimit="10" d="
				M217.2,593c-7.9,0-16.6,0-25.3,0c-8.7,0-17.4,0-25.3,0"/>
		</g>
		<g>
			
				<path fill="none" stroke="#000000" stroke-width="20" stroke-linecap="round" stroke-linejoin="round" stroke-miterlimit="10" d="
				M129.2,593c-7.9,0-16.6,0-25.3,0s-17.4,0-25.3,0"/>
		</g>
		<g>
			
				<path fill="none" stroke="#000000" stroke-width="20" stroke-linecap="round" stroke-linejoin="round" stroke-miterlimit="10" d="
				M41.2,593c-3.2,0-7.9,0-12.7,0s-9.5,0-12.6,0c3-1.9,6.8-4.4,10.7-6.9s7.6-4.9,10.6-6.8"/>
		</g>
		<g>
			
				<path fill="none" stroke="#000000" stroke-width="20" stroke-linecap="round" stroke-linejoin="round" stroke-miterlimit="10" d="
				M66.6,560.3c6.6-4.3,13.9-9.1,21.2-13.8c7.3-4.7,14.6-9.4,21.2-13.7"/>
		</g>
		<g>
			
				<path fill="none" stroke="#000000" stroke-width="20" stroke-linecap="round" stroke-linejoin="round" stroke-miterlimit="10" d="
				M138.5,513.9c6.7-4.3,14-9,21.2-13.7s14.6-9.5,21.2-13.8"/>
		</g>
		<g>
			
				<path fill="none" stroke="#000000" stroke-width="20" stroke-linecap="round" stroke-linejoin="round" stroke-miterlimit="10" d="
				M210.3,467.2c7-4.5,14.1-9.1,21.3-13.7c7.1-4.6,14.3-9.2,21.2-13.7"/>
		</g>
		<g>
			
				<path fill="none" stroke="#000000" stroke-width="20" stroke-linecap="round" stroke-linejoin="round" stroke-miterlimit="10" d="
				M282.2,420.8c3.1-2,6.8-4.4,10.6-6.9c3.7-2.5,7.5-4.9,10.6-6.9c3,0.8,7.6,2.1,12.2,3.4c4.6,1.3,9.2,2.5,12.2,3.4"/>
		</g>
	</g>
</g>
</svg>
