<?xml version="1.0" encoding="utf-8"?>
<!-- Generator: Adobe Illustrator 23.0.4, SVG Export Plug-In . SVG Version: 6.00 Build 0)  -->
<svg version="1.1" id="Layer_1" xmlns="http://www.w3.org/2000/svg" xmlns:xlink="http://www.w3.org/1999/xlink" x="0px" y="0px"
	 width="1000px" height="1000px" viewBox="0 0 1000 1000" enable-background="new 0 0 1000 1000" xml:space="preserve">
<g id="vs-highlight">
	<path fill="#5DBFD9" d="M449.1,83.7c0,0-301.8,45.1-354,307.3s102.4,399,102.4,399s125.8,155.8,358.2,125.3
		c0,0-341.1-33.6-376.3-367.9S449.1,83.7,449.1,83.7z"/>
</g>
<g id="vs-outline">
	<path fill="none" stroke="#000000" stroke-width="20" stroke-linecap="round" stroke-linejoin="round" stroke-miterlimit="10" d="
		M500,80.7c28.9,0,57.2,2.9,84.5,8.5c27.3,5.6,53.6,13.8,78.7,24.4s48.9,23.6,71.2,38.6c22.3,15.1,43.1,32.2,62,51.2
		s36.1,39.7,51.2,62c15.1,22.3,28,46.1,38.6,71.2c10.6,25.1,18.8,51.4,24.4,78.7c5.6,27.3,8.5,55.5,8.5,84.5
		c0,28.9-2.9,57.2-8.5,84.5s-13.8,53.6-24.4,78.7c-10.6,25.1-23.6,48.9-38.6,71.2c-15.1,22.3-32.2,43.1-51.2,62s-39.7,36.1-62,51.2
		s-46.1,28-71.2,38.6s-51.4,18.8-78.7,24.4c-27.3,5.6-55.5,8.5-84.5,8.5c-28.9,0-57.2-2.9-84.5-8.5c-27.3-5.6-53.6-13.8-78.7-24.4
		c-25.1-10.6-48.9-23.6-71.2-38.6c-22.3-15.1-43.1-32.2-62-51.2s-36.1-39.7-51.2-62c-15.1-22.3-28-46.1-38.6-71.2
		S95,611.5,89.4,584.3c-5.6-27.3-8.5-55.5-8.5-84.5c0-28.9,2.9-57.2,8.5-84.5c5.6-27.3,13.8-53.6,24.4-78.7s23.6-48.9,38.6-71.2
		c15.1-22.3,32.2-43.1,51.2-62s39.7-36.1,62-51.2c22.3-15.1,46.1-28,71.2-38.6c25.1-10.6,51.4-18.8,78.7-24.4
		C442.8,83.6,471.1,80.7,500,80.7z"/>
</g>
<g id="vs-reveal" opacity="0">
	<path fill="none" stroke="#F42158" stroke-width="150" stroke-linecap="round" stroke-linejoin="round" stroke-miterlimit="10" d="
		M448.5,108.3c0,0-261.5,59.2-196.1,53.3s83.4,52.6,36.1,61.6c-47.3,9-194.8,45-147,50.6s108.9,44.1,67.1,55.3
		c-41.8,11.2-162.8,63-113.6,61.9s177.6,30.3,83.6,59.5c-94,29.2-144.3,67.8-93.8,67.8c50.5,0,147.7,4.3,94.6,29.2
		s-73.3,96.1-73.3,96.1s143,16.1,106.4,32.1c-36.6,16-90.1,64.8-54.3,67.5s175-9.9,107.2,18.5c-67.8,28.4-32.9,129.3,16.3,96
		s124.6-45.5,110.4-24c-14.2,21.5,48.5,77.9,56.3,67.6c7.9-10.3,94.6,7,85.6,1.2"/>
</g>
</svg>
