<?xml version="1.0" encoding="utf-8"?>
<!-- Generator: Adobe Illustrator 16.0.0, SVG Export Plug-In . SVG Version: 6.00 Build 0)  -->
<!DOCTYPE svg PUBLIC "-//W3C//DTD SVG 1.1//EN" "http://www.w3.org/Graphics/SVG/1.1/DTD/svg11.dtd">
<svg version="1.1" xmlns="http://www.w3.org/2000/svg" xmlns:xlink="http://www.w3.org/1999/xlink" x="0px" y="0px" width="400px"
	 height="400px" viewBox="0 0 400 400" enable-background="new 0 0 400 400" xml:space="preserve">
<g id="Layer_1">
	<path fill="none" stroke="#231F20" stroke-width="2" stroke-miterlimit="10" d="M71.25,223c0.25,10.75-3.097,12.905,6.047,21.002
		c6.354,5.626,20.59,7.448,28.536,8.199c23.456,2.219,72.01,0.771,95.667-0.868c16.833-1.167,14.834-1.667,15.667-3.167
		c2.534-4.563,54.333-8.499,67.5-10.999c15.554-2.953,44.608-7.053,56.828-11.019c3.929-1.275,6.838-1.815,11.505-3.398
		c3.666-15.083,5.269-23.353,13.667-49.418c-8.667-0.082-18.99-0.036-21.5-0.165c-3.251-0.167-28,22.333-42,30.333
		c-8.235,4.706-7.397,3.107-16.667,3.333c-13.667,0.333-27.583,0.667-43.333-1.333c-10.664-1.354-27.667-4.999-54.333-8.333
		c-20.618-2.578-34.083-0.917-40.208,2.583c-6.13,3.503-23.375,12.5-27,14.5c-4.889,2.697-12.291,0.583-26.125,1.583
		c-8.849,0.64-23.732,2.356-24.333,7.001"/>
	<path fill="none" stroke="#231F20" stroke-width="2" stroke-miterlimit="10" d="M120.75,215.125c4.5,5,9.265,5.294,14.75,6.291
		c5.5,1,12.902,0.75,18,0.75c22.076,0,39.095-0.531,50.875-1.291c3.875-0.25,3.5-2.5,18.375-10.625
		c3.886-2.122,2.084-0.166,1.584-8.666"/>
	<path fill="none" stroke="#231F20" stroke-width="2" stroke-miterlimit="10" d="M70.75,222.125c-5,1.125-12.875,2-12.75,6.25
		c0.106,3.623,8.875,6,12.25,6.25"/>
	<path fill="none" stroke="#231F20" stroke-width="2" stroke-miterlimit="10" d="M70.917,198.167
		c0.076,21.001,0.583,39.985,0.583,61"/>
	<path fill="none" stroke="#231F20" stroke-width="2" stroke-miterlimit="10" d="M320.209,214.709
		c-4.298,1.167-3.599,3.45-0.584,5.166c1.095,0.624,9.855-1.002,11.75-1c6.512,0.006,12.75,0.25,20.116,0.017
		c-7.417-5.565-27.616-6.267-31.866-4.267"/>
	<path fill="none" stroke="#231F20" stroke-width="2" stroke-miterlimit="10" d="M137.833,253.333
		c-7.646-2.237-0.078-8.112,4.667-12.646c2.812-2.688,15.491-4.659,24.062-4c17.333,1.333,37.812,2.312,40.75,3.125
		c2.966,0.82,4.042,3.416,8.354,9.354"/>
	<path fill="none" stroke="#231F20" stroke-width="2" stroke-miterlimit="10" d="M155.25,201.001
		c-1.965,2.021-10.23,17.131-10.583,18.333c7.083,0.166,30.833,0.75,33.5-0.417c1.016-0.444,0.757-0.017,1.083-1.334
		c0.288-1.164-0.145-14.665-1.191-18.391c-2.013-0.601-11.792-0.134-13.226,0.142c-0.93,0.18-9.168,1.141-9.583,1.75"/>
	<path fill="none" stroke="#231F20" stroke-width="2" stroke-miterlimit="10" d="M206.48,202.622
		c-3.322-1.147-24.563-3.621-24.563-3.621s0,17.749,0.334,20.166c6.999-0.667,23.874-0.25,23.874-1.417
		c0-2.084,0.271-13.928-0.041-15.916"/>
	<path fill="none" stroke="#231F20" stroke-width="2" stroke-miterlimit="10" d="M209.5,202.417c-0.019,2.084-0.292,12,0.125,12.583
		c0.349,0.487,10.006-6.155,10.626-6.583c0.94-0.65,0.754-2.552,0.124-3.917c-1.78-0.222-8.541-1.916-11.875-1.916"/>
	<path fill="none" stroke="#231F20" stroke-width="2" stroke-miterlimit="10" d="M151.833,201.417
		c-1.267,0.358-3.465,1.821-5.333,2.958c-2.875,1.75-5.375,2.5-10.75,5.875c-5.149,3.233-9.667,5.25-9.667,5.25
		s4.812,2.004,6.333,2.666c0.999,0.435,6.697,1.075,8,1.167c0.318-0.906,1.398-3.438,1.917-4.245
		c3.223-5.013,9.249-13.393,9.333-13.504"/>
	<path fill="none" stroke="#231F20" stroke-width="2" stroke-miterlimit="10" d="M104.167,215c0,7.688,1.835,23.596,1.833,26.19
		c-0.003,3.508,0.013,6.984,0,10.477"/>
	<path fill="none" stroke="#231F20" stroke-width="2" stroke-miterlimit="10" d="M314.75,208.75c2.478,1.119,37,2.5,41,3.25"/>
	<path fill="none" stroke="#231F20" stroke-width="2" stroke-miterlimit="10" d="M142.938,240.25
		c-1.909,2.4-0.163,4.784,0.812,4.875c4.583,0.43,7.582,0.327,12.188,0.062c11.713-0.674,50.834-2.932,51.875-5"/>
	<line fill="none" stroke="#231F20" stroke-width="2" stroke-miterlimit="10" x1="105" y1="228" x2="352.5" y2="222.5"/>
	<path fill="none" stroke="#231F20" stroke-width="2" stroke-miterlimit="10" d="M79,218.5c-1.879,3.729-0.465,11.528-0.244,15.838
		c0.177,3.45-0.117,7.404-0.756,10.662"/>
	<path fill="none" stroke="#231F20" stroke-width="2" stroke-miterlimit="10" d="M359.75,174.5c-0.407-0.674-0.09,0.342-0.236,0.986
		c-0.178,0.783-0.379,1.542-0.527,2.325c-0.228,1.197-0.415,2.427-0.524,3.65c-2.442,0.037-7.539,0.827-9.626,2.045
		c-2.155,1.258-3.512,9.076-4.41,11.803c-1.689,5.129-2.589,10.61-4.426,15.44"/>
</g>
<g id="Layer_2">
	<path fill="none" stroke="#F9EC31" stroke-width="6" stroke-miterlimit="10" d="M106.875,216.5c0.125,2.75,0.619,6.737,0.788,9
		c0.254,3.405,0.504,6.779,0.504,10.2c0,4.812-0.417,11.55,0.708,12.925c1.875-3,0.61-7.146,1.25-11.632
		c0.373-2.615,1.033-5.234,1.217-7.873c0.265-3.824,1.223-8.513,1.658-12.245c-0.019,10.377-3.663,21.913-0.75,32
		c1.375-0.375,1.125,0.125,3.125-0.25c3.934-0.737-1.894-10.179-1.037-14.081c0.624-2.84,1.335-5.756,2.325-8.506
		c0.866-2.406-1.925-8.459,2.337-7.663c2.988,2.079-1.056,12.494-1.328,18.825c-0.159,3.692-0.881,8.607-0.797,12.3
		c0.023,1.005,1.516,0.151,2,1c3,0,1.43-4.52,1.75-6.5c0.779-4.816,0.207-9.709,2.249-14.152c1.26-2.742-2.59-8.903,1.501-8.973
		c3.034,1.444,1.88,3.587,1.625,4.977c-0.566,3.091-0.835,6.032-0.833,9.165c0.003,5.005-3.042,13.608,0.028,15.15
		c3.68-0.417,3.198-1.894,3.305-2.917c0.439-4.213-1.124-9.453,0.292-13.426c1.321-3.707,1.783-7.8,2.083-12.324
		c-0.03,3.76,2.022,8.32,1.833,12.14c-0.305,6.117-0.874,12.701-0.874,18.552c0.018-5.87,3.097-11.085,2.042-16.816
		c-0.875-4.75-0.625-11.708,2.708-10.208c6.333-1.583-0.917,11.25,0.542,16.708c1.141-0.908,4.029-3.925,4.5-5.375
		c0.919-2.829,1.709-9.051,1.792-13.416c0.167,4.115,0.138,10.838,1.872,12.422c7.795-0.256,1.697-10.134,4.212-10.589
		c0.728,2.075,0.375,7.897,2.171,9.122c6.162,0.211-4.671-8.789,4.671-9.02c6.42-0.158-3.592,9.179,1.658,8.897
		c9.333-0.5,3.317-8.226,4.875-9.065c2.202-1.187,2.236,2.746,2.63,4.158c0.21,0.751-1.092,4.535-0.005,4.573
		c1.707,0.06,0.75-9.166,4.679-9.199c1.657,2.634-4.179,9.283,1.488,9.979c3.083,0.47,0.324-7.926,3.174-10.099
		c2.159,0.735,0.568,10.169,2.33,10.215c1.836,0.048-0.171-9.146,3.67-9.675c3.409-0.888-1.174,9.445,2.185,10.946
		C186.75,234.917,182.5,225.26,186,225c1.75,0.426,0.064,9.61,2.583,10.833c2.575-0.731-0.513-11.22,1.167-11.333
		c6.167-0.416,1.821,11.095,3.833,11.417c2.404-0.988-3.5-10.333,2.25-10.75c7-2.75,0.369,10.242,2.833,10.834
		c4.167,1,2.523-7.341,2.704-8.809c0.149-1.218,0.11-2.738,1.046-3.608c3.079-1.042,1.279,3.487,1.58,4.979
		c0.516,2.55-0.997,7.271,1.253,8.438c3.167,0.334,0.833-12.584,5-15.084c1.377,1.596-1.29,8.592-0.883,10.572
		c0.613,2.98,2.697,8.429,4.8,10.679c0.951-2.866-1.448-7.403-1.537-10.402c-0.125-4.202-1.13-9.515,2.203-13.932
		c8.5-7.833-0.262,7.098,0.196,10.343c0.65,4.608-1.75,12.115,1.221,15.991c2.917-0.167,1.774-4.058,1.529-5.592
		c-0.528-3.291-0.477-6.616-0.461-9.938c0.02-4.069,2.141-11.872,4.432-15.386c2.917-1.75-1.577,10.356-1.045,14.258
		c0.491,3.603,0.652,7.432,1.494,10.969c0.236,0.99-1.365,4.273,1.442,2.68c3.858-0.406-0.143-2.426-0.309-3.651
		c-0.544-4.023-0.627-8.122-0.348-12.169c0.399-5.781,3.099-14.336,4.682-19.836c6.417-1.25,0.781,8.362,1.167,11.666
		c0.795,6.818-1.676,13.621-0.009,20.323c0.187,0.749,0.313,3.359,1.425,3.511c1.105,0.149,4.918-0.587,4.917-1.084
		c-0.002-4.131-2.839-10.5-2.167-14.583c0.703-4.272-1.113-8.817,0.917-12.667c0.47-0.892,0.873-6.319,1.25-8.75
		c-0.044,3.264,2.244,12.925,2.417,16c0.349,6.155,0.75,19.667,3.132,19.636c1.546-0.968,0.433-7.177,0.432-8.804
		c-0.005-4.354,0.379-8.804,1.378-13.052c0.582-2.476-4.941-11.03-1.525-10.78c6.75,1.5,5.202,11.183,5.367,15.958
		c0.112,3.215-4.834,18.938,1.633,14.209c4.866,1.979,1.425-8.827,1.676-11.258c0.404-3.914-0.547-7.14,1.074-10.742
		c0.904-2.009-0.25-5.083-1.166-7.333c5.416-0.334,5.882,11.624,5.833,15.166c-0.042,3.038,0.086,3.134,0.25,6.167
		c0.083,1.535-0.667,5.75-0.917,7.667c2.25-0.167,5.08-6.479,5.305-7.993c0.511-3.451,0.461-7.007,1.195-10.424
		c0.516-2.397-7.161-9.351-4.166-10.167c3.667-0.5,9.562,6.691,9.834,9.729c0.386,4.293-1.969,7.134-1.084,11.354
		c0.259,1.237-1.417,2.499-3.584,6.666c8.25,0.583,8.944-3.699,9.084-4.945c0.36-3.213,0.453-6.457,0.862-9.663
		c0.32-2.52-5.196-10.392-5.862-12.142c4.833-2,10.603,5.456,10.916,8.417c0.279,2.628-5.5,18.001-3.333,17.167
		c4.448-1.712,5.969-15.809,6.333-17.502c0.485-2.26-1.166-6.665-2.916-8.748c19.041-1.877,1.253,25.809,2.666,25.623
		c7.625-1,9.519-8.396,9.75-10.375c0.323-2.756-3.826-13.525-1.375-15.5c7.75-0.375,5.709,12.729,5.875,14.25
		c0.434,3.984-8.386,6.643-7.25,10.5c0.354,1.204,9.277-2.702,10.625-3.375c1.359-0.678,1.402-5.927,1.5-7.125
		c0.337-4.138-4.227-9.908-3-13.875c0.543-1.757,6.625,11,6.125,18.875c-0.871,13.726-2.426-22.498-0.625-20.75
		c4.25,4.125,3.279,9.818,4.125,14.625c0.237,1.347-1.052,8.01,0.25,8.75c1.934-2.205,2.196-18.214,0.875-20.625
		c-5-9.125,5.433-5.91,5.875,1.5c0.5,8.375-3.254,13.14-1.875,17.75c1.71,5.72,7.965-31.601,2.25-30
		C303.75,202.375,327,219,313.75,229.375c1.514-1.04,17.625-2.02,17.625-3.625c0-5.42-11.519-0.802-10.5-6.125
		c1.033-5.396-5.046-16.938-3.25-22.125c0.771-2.226,25.884-18.667,27.25-20.625c2.75-0.375,17.427-3.086,17.375-0.875
		c-0.193,8.286-5.75,17.25-7.875,25c-1.276,4.655-2.995,12.186-2.625,17c0.16,2.075-10.25,5-17.625,6.75
		c-0.845-0.488-12.25-10.75-12.5-16.75C321.092,195.212,334,192.5,338,186.375c2.687-4.114,11.75-5.875,17.5-7.375
		c1.716-0.447-9.233,37.674-9.25,35.875c-0.102,5.495-15.661,4.235-18-0.75c-7.625-16.25,22.341-33.551,22.75-29.125
		c0.291,3.142-1.774,4.338-1.75,7.5"/>
	<path fill="none" stroke="#F9EC31" stroke-width="6" stroke-miterlimit="10" d="M345.5,188.125c-0.044-0.343-0.2-0.63-0.5-0.772
		c-1.179,0.854-2.023,2.813-2.863,4.008c-2.045,2.907-8.271,5.738-10.137,8.765c-1.945,3.156-0.447,5.843-2.344,9.019
		c-0.986,1.651-7.548,10.996-8.781,12.481c2.565-3.551,10.646-14.932,13.221-18.49c2.303-3.185,4.854-6.133,7.54-8.999
		c1.262-1.347,2.895-3.628,4.697-4.187c-0.441,2.012-2.343,3.929-3.538,5.464c-2.464,3.164-4.997,6.286-7.066,9.729
		c-2.228,3.704-4.552,10.238-5.854,14.357c0.806-0.526,3.76-0.052,4.25-0.875c1.41-2.367,0.476-8.985,1.864-11.37
		c3.073-5.28,6.731-10.84,11.005-15.22c-0.79,3.009-3.315,5.958-4.72,8.719c-1.8,3.54-3.429,7.758-4.426,11.607
		c1.379-1.397,2.321-3.325,3.512-4.884c1.324-1.733,5.671-10.104,8.015-10.478c0.464,0.904-2.286,6.725-2.605,7.602
		c-1.24,3.405-3.476,8.651-3.52,12.398"/>
	<path fill="none" stroke="#808184" stroke-width="4" stroke-miterlimit="10" d="M123.875,215.25
		c-0.081-0.102-0.159-0.33,0.022-0.731c2.51-0.041,4.555-2.152,6.481-3.519c2.621-1.857,5.555-2.548,8.378-4.031
		c3.487-1.832,7.03-3.476,10.587-5.128c2.623-1.218,5.007-3.038,7.938-3.621c5.317-1.059,10.811-1.163,16.094-0.099
		c1.766,0.356,5.072-0.027,6.284,1.477c0.735,0.912,0.684,2.773,0.848,3.93c0.313,2.217,0.745,4.333,0.743,6.604
		c-0.001,1.466-1.468,9.83-0.003,10.621c0.605,0.327,2.473-0.189,3.254-0.13c1.444,0.11,2.885,0.355,4.343,0.378
		c3.799,0.059,7.983-0.148,11.788-0.527c1.834-0.184,6.838-0.255,7.246-2.123c0.265-1.213-0.504-3.177-0.503-4.502
		c0.002-1.666,0.297-3.242,0.375-4.882c0.104-2.218,0.286-4.98-0.237-7.065c3.094-0.41,6.687-0.72,9.737,0.097
		c1.373,0.367,2.447,0.902,3.875,1.128c1.681,0.266,2.129,2.007,1.854,3.729c-4.025,1.646-6.692,5.787-10.354,8.053
		c-1.156,0.715-2.373,2.107-3.618,2.6c-2.729,1.079-1.613-2.125-1.264-3.694c0.478-2.144,1.289-4.688,1.01-6.906
		c-0.155-1.237-0.564-2.412-0.75-3.655c-0.282-1.893-1.146-1.835-2.784-2.122c-2.039-0.356-4.067-1.067-6.121-1.476
		c-3.293-0.653-6.749-0.911-10.119-1.027c-1.873-0.063-3.455-0.025-5.311-0.497c-1.27-0.323-2.692-0.806-4.021-0.609
		c-0.012,0.216-0.044,0.614-0.063,0.814c-0.337-0.131-2.449-0.074-2.75-0.333c2.833,0,2.479,6.405,2.792,9.723
		c0.365,3.878,0.907,8.124,0.731,12.009c-1.226,0.363-2.267,0.938-3.606,1.019c-1.41,0.084-2.834-0.12-4.222-0.247
		c-3.648-0.333-7.193-0.021-10.809,0.652c-3.493,0.651-7.286,0.266-10.816-0.03c-4.437-0.372-8.961,0.133-13.382-0.375
		c-2.652-0.305-5.309-0.849-7.868-1.656c-1.62-0.511-6.235-1.324-7.012-3.069c2.108-0.753,4.177-1.733,6.021-3.024
		c2.742-1.92,5.703-3.437,8.345-5.509c2.909-2.28,6.434-4.018,9.742-5.616c1.978-0.956,4.661-2.348,6.855-2.231
		c-0.18,2.008-2.444,4.431-3.603,6.076c-2.081,2.952-3.42,5.941-5.419,8.946c-1.235,1.857-2.833,3.396-2.833,5.584"/>
	<path fill="none" stroke="#808184" stroke-width="4" stroke-miterlimit="10" d="M73.999,220.499
		c-0.259,0.71-0.914,2.827-0.917,3.595c-0.009,1.883-0.203,3.773-0.001,5.648c0.217,2.017,0.101,3.566-0.165,5.525
		c-0.173,1.276,0.255,2.056,1.023,3.061c0.461,0.604,0.979,1.207,1.398,1.838c0.281,0.423,0.376,1.161,0.816,1.325
		c0.072-1.421,0.299-3.602,0.013-4.992c-0.499-2.426-0.335-3.955-0.333-6.416c0.001-1.355-0.287-2.819-0.167-4.167
		c0.118-1.322,1-4.333,0.667-4.667c-0.023-0.111,0.142,0.067,0.167,0.084"/>
	<path fill="none" stroke="#808184" stroke-width="4" stroke-linecap="round" stroke-linejoin="round" stroke-miterlimit="10" d="
		M145.438,240.562c-0.485,0.912-1.606,1.063-1.826,2.109c0.5,0.005,1.476-0.836,1.949-1.107c1.197-0.688,2.105-1.576,3.16-2.452
		c-1.099,0.895-2.603,3.614-2.377,5.043c1.226-0.225,2.56-2.417,3.431-3.185c0.997-0.879,1.835-1.872,3.048-2.441
		c-0.375,1.728-2.166,3.268-2.794,4.962c1.254-0.609,2.312-2.438,3.384-3.388c0.862-0.763,1.028-1.674,2.151-2.041
		c-0.556,1.34-0.962,2.189-1.715,3.461c-0.572,0.967-1.086,1.495-1.597,2.477c0.608-0.236,1.312-0.431,1.76-0.902
		c1.126-1.186,2.209-2.325,3.488-3.346c0.669-0.534,1.487-1.326,2.327-1.579c-0.626,0.977-3.861,3.968-3.161,4.929
		c0.43,0.589,4.984-3.294,5.602-3.688c0.505-0.322,1.672-1.285,2.31-1.258c0.491,0.021,0.376-0.11,0.331,0.434
		c-0.058,0.701-1.148,1.649-1.559,2.159c-0.492,0.61-2.52,1.806-2.722,2.563c1.228-0.135,4.259-2.497,5.224-3.229
		c0.918-0.697,2.182-1.713,3.401-1.771c-0.096,1.208-1.344,2.02-1.951,3.039c-0.337,0.566-0.675,1.178-0.878,1.802
		c0.895,0.09,1.832-0.988,2.495-1.487c0.654-0.491,1.961-1.872,2.743-1.889c-0.247,0.759-1.104,1.474-1.065,2.295
		c1.195,0.233,2.872-1.625,3.697-2.271c0.67-0.524,1.093-1.396,2.022-1.301c-0.034,0.867-2.319,2.459-2.25,3.375
		c1.767-0.114,5.362-2.872,7.125-2.938c0.051,1.023-3.913,1.937-3.625,2.875c0.464,1.515,7.083-2.202,7.928-2.397
		c-0.187,0.997-1.233,1.774-1.576,2.744c0.79,0.098,1.713-0.86,2.33-1.264c0.711-0.465,1.466-1.019,2.244-1.297
		c0.022,0.487,0,0.984,0.017,1.469c1.511,0.651,2.779-1.722,4.164-1.402c0.565,0.13,0.163,0.355,0.486,0.737
		c0.483,0.57,1.102,0.596,1.814,0.515c1.165-0.132,2.187-0.815,3.382-0.836c0.99-0.017,2.191,0.601,3.146,0.252"/>
	<path fill="none" stroke="#1B75BB" stroke-width="4" stroke-linecap="round" stroke-linejoin="round" stroke-miterlimit="10" d="
		M80.25,219.085c-0.089-0.13-0.304,1.268-0.292,1.623c1.355,0.013,4.11-3.083,5.347-2.021c-2.062,1.468-4.009,3.9-5.139,5.993
		c0.138-0.448,0.671-0.842,1.017-1.194c0.953-0.971,1.881-1.987,2.901-2.89c0.813-0.72,1.705-1.365,2.682-1.834
		c0.313-0.149,2.043-0.126,2.276-0.43c-1.526,1.276-4.434,2.988-5.628,4.602c-0.911,1.229-1.756,2.56-2.614,3.825
		c-0.369,0.545-0.784,1.186-0.957,1.822c0.313-0.217,0.558-0.58,0.816-0.901c1.089-1.354,2.246-2.566,3.538-3.729
		c1.347-1.211,2.696-2.396,4.241-3.349c1.483-0.915,3.475-1.532,4.729-2.743c-3.327,2.377-5.973,5.715-8.492,8.886
		c-1.541,1.939-3.301,3.874-4.405,6.104c3.901-6.113,9.292-11.806,15.724-15.26c-0.816,1.125-2.149,2.002-3.154,3.001
		c-2.768,2.75-5.242,5.758-7.702,8.776c-1.234,1.515-2.386,3.062-3.406,4.721c-0.487,0.792-1.308,1.461-1.66,2.312
		c1.697-4.595,6.131-7.811,9.526-11.122c2.731-2.665,5.852-5.963,9.468-7.496c-1.561,0.544-3.136,2.04-4.307,3.144
		c-2.691,2.534-5.013,5.444-7.343,8.305c-2.02,2.478-3.825,5.132-5.833,7.611c-0.455,0.562-1.336,1.151-1.405,1.902
		c1.128-0.809,2.121-2.633,2.981-3.756c2.784-3.637,5.702-7.153,9.042-10.294c1.58-1.484,3.363-2.837,5.132-4.094
		c1.021-0.725,3.464-2.152,4.667-2.519c-0.647,1.274-3.882,2.857-4.891,3.929c-2.748,2.917-5.381,5.934-7.842,9.098
		c-1.884,2.421-3.722,4.871-5.672,7.237c-0.895,1.085-3.334,3.661-3.429,5.116c0.409-0.226,1.128-1.431,1.411-1.788
		c0.96-1.213,1.888-2.451,2.849-3.663c2.336-2.946,4.685-5.915,7.326-8.6c1.723-1.752,3.348-3.585,5.254-5.146
		c0.705-0.577,1.423-1.147,2.118-1.736c0.717-0.606,1.66-1.601,2.501-1.988c-0.471,1.175-2.025,2.263-2.884,3.158
		c-2.955,3.081-5.647,6.293-8.281,9.654c-1.945,2.48-3.627,5.142-5.313,7.799c-0.681,1.073-1.865,2.794-2.73,3.726
		c0.893-0.923,2.226-2.444,2.995-3.47c2.012-2.682,4.189-5.247,6.438-7.736c2.102-2.325,4.085-4.688,6.388-6.825
		c1.271-1.18,2.579-2.977,4.255-3.565c-0.278,1.092-1.418,1.974-2.133,2.81c-2.063,2.41-3.996,4.965-5.939,7.473
		c-2.169,2.799-4.215,5.774-6.093,8.776c-0.933,1.49-2.503,3.3-2.964,5.024c1.358-1.321,2.342-3.276,3.464-4.814
		c1.895-2.595,3.897-5.035,5.989-7.47c2.115-2.461,9.59-8.758,7.009-6.78c-11.074,8.481-0.751-1.688,1.632-1.551
		c0.047,1.068-0.691,2.484-1.288,3.268c-1.777,2.331-3.569,4.627-5.42,6.901c-2.812,3.453-5.401,7.15-7.749,10.912
		c0.848-0.399,1.65-1.849,2.223-2.573c1.534-1.941,3.082-3.885,4.792-5.677c1.629-1.706,3.372-3.369,5.219-4.837
		c0.513-0.407,1.83-3.061,2.64-2.702c1.06,0.469-3.157,7.623-3.605,8.309c-1.497,2.292-3.651,2.198-5.02,4.57
		c-0.639,1.107-1.778,2.993-2.25,4.167c1.789-1.552,3.917-0.387,5.333-2.292c1.056-1.419,2.263-4.941,3.428-6.272
		c1.065-1.217,1.538-2.465,2.947-3.229c-0.779,2.292-2.078,4.066-3.363,6.11c-0.873,1.39-2.802,4.07-3.137,5.641
		c1.368-1.088,2.723,2.131,3.875,0.792c0.66-0.767,1.346-8.561,2.458-8.627c-0.105,1.781-2.76,8.452-0.333,9.377"/>
	<path fill="none" stroke="#BE1E2D" stroke-width="4" stroke-linecap="round" stroke-linejoin="round" stroke-miterlimit="10" d="
		M61.562,225.625c-0.266,0.238-0.053,0.796-0.059,1.141c-0.011,0.652-0.951,1.157-0.921,1.817c0.031,0.69,0.892,1.662,1.026,2.288
		c0.628-1.487,0.879-3.216,1.456-4.752c0.209-0.558,0.284-0.351,0.644-0.786c0.22,1.426-0.015,2.151-0.096,3.595
		c-0.046,0.818-0.271,2.41,0.203,3.112c0.431-1.897,0.629-3.718,1.483-5.545c0.363-0.776,0.686-1.712,1.268-2.348
		c-0.047,1.931-0.415,3.905-0.256,5.843c0.073,0.896,1.323,2.55,1.939,3.218c0.583-1.313,0.112-3.465,0.333-4.875
		c0.212-1.351-0.211-2.843,0.105-4.146"/>
	<path fill="none" stroke="#D0D2D3" stroke-width="4" stroke-linecap="round" stroke-linejoin="round" stroke-miterlimit="10" d="
		M141.667,244.667c-0.649,1.36-3.031,2.082-3.917,3.333c-0.867,1.225,0.057,3.196-0.827,4.282c1.019-0.778,1.955-2.562,3.746-4.931
		c0.524-0.694,1.148-1.276,1.75-1.843c0.258,0.737-0.557,2.811-0.691,3.669c-0.166,1.055-0.478,2.161-0.381,3.228
		c0.734-0.087,1.791-2.9,2.172-3.595c0.415-0.755,0.842-1.684,1.532-2.218c-0.677,1.482-0.81,3.613-0.7,5.216
		c0.41-0.719,0.692-1.511,1.127-2.225c0.419-0.687,1.509-2.837,2.437-2.834c0.034,2.049-0.339,3.294-0.248,5.334
		c0.449-1.092,0.653-1.486,1.083-2.588c0.27-0.692,0.639-2.247,1.317-2.574c0.236,0.651,0.047,1.397,0.013,2.077
		c-0.062,1.216,0.075,1.738,0.337,2.918c1.33-0.635,1.39-4.546,2.987-4.572c0.059,1.177-0.404,3.366,0.325,4.244
		c0.373-1.358,0.305-3.295,1.171-4.417c0.06,1.473-0.225,3.436,0.283,4.821c0.578-0.534,0.649-2.569,0.966-3.396
		c0.252-0.659,0.748-2.288,1.524-2.42c0.479,1.077,0.136,2.728,0.242,3.9c0.138,1.531,0.559,1.629,0.919,0.08
		c0.162-0.696,0.625-4.275,1.666-3.736c0.952,0.493,0.113,3.876,0.765,4.724c0.292-0.599,0.569-4.172,1.319-4.218
		c0.565-0.035,0.729,2.008,0.829,2.411c0.081,0.327,0.308,1.571,0.71,1.666c0.628,0.147,1.531-0.375,1.627-0.754
		c0.219-0.869-0.524-3.659,0.5-3.999c0.751,0.805,1.904,7.025,2.75,3.003c0.104-0.496,0.358-2.83,1.159-2.783
		c1.259,0.074,0.632,4.133,1.84,4.613c0.984-1.154-0.36-4.686,1.422-5.25c0.947,1.341,0.647,3.313,1.581,4.67
		c1.087-1.305-0.325-3.996,0.996-5.271c0.805,0.327,0.697,1.907,0.833,2.628c0.18,0.949,0.408,1.911,0.772,2.809
		c0.806-0.937-0.964-5.16,0.395-5.586c0.899,1.476,0.677,3.562,1.672,5.007c0.91-0.818-0.516-3.523,0.245-4.688
		c1.199,1.115,0.579,4.517,2.255,5.098c0.868-1.227-0.023-3.312,0.509-4.689c0.749-1.938,1.632,1.007,1.925,1.703
		c0.265,0.63,1.006,3.264,1.799,1.833c0.288-0.52-0.234-3.571,0.673-3.511c0.959,0.064,1.713,3.686,2.408,4.313
		c1.356,1.226,0.7-2.345,0.657-3.071c-0.063-1.089,0.035-3.232,1.108-1.404c0.542,0.923,0.891,3.111,2.088,3.41
		c0.89-1.19-0.638-3.609,0.465-4.761c1.608,0.721,1.583,5.317,3.279,5.761c0.638-1.6-1.453-5.442,0.004-6.734
		c1.724,1.007,2.142,4.814,3.663,5.9c0.685-1.018-1.922-5.83-0.089-5.403c0.895,0.209,1.967,2.626,2.428,3.328
		c0.398,0.605,0.998,2.021,1.794,2.141c0.642-1.432-0.827-3.743-0.953-5.245c-0.062-0.737-0.164-1.37,0.638-1.06
		c0.907,0.351,2.043,2.151,2.676,2.877c0.424,0.485,1.444,4.169,1.424,2.529c-0.014-1.109-1.831-4.967-1.008-5.917
		c1.7,1.208,3.393,4.6,4.924,5.917c0.159-0.573-1.12-2.26-1.089-2.81c0.163,0.029,0.305,0.105,0.423,0.227"/>
	<path fill="none" stroke="#D6DE23" stroke-width="4" stroke-linecap="round" stroke-linejoin="round" stroke-miterlimit="10" d="
		M362.5,175c-1.93,7.584-4.064,15.152-5.556,22.751c-0.862,4.392-2.195,9.024-4.206,12.936c0.138-9.586,2.661-18.73,3.205-28.111
		c-2.365,6.256-4.834,12.814-6.4,19.331c-0.599,2.487-0.824,5.188-2.043,7.385c-2.003-4.303,0.461-12.653,1.562-17.289
		c0.631-2.656,1.682-5.064,2.907-7.413c-6.077,6.21-6.97,17.202-6.97,25.411"/>
	<path fill="none" stroke="#A6A8AB" stroke-width="5" stroke-miterlimit="10" d="M318.312,216.438c1.5,0.312,1.261,0.702,1.42,0.696
		c2.54-0.645,5.146-1.283,7.615-1.131c2.144,0.132,4.084,0.387,6.284,0.49c2.121,0.101,4.04,1.052,6.115,1.007
		c1.062-0.022,1.915-0.4,3.003-0.375c1.47,0.034,4.5,0.938,4.312,1.562"/>
</g>
<g id="Layer_3">
	<g>
		<path fill="#231F20" d="M139.34,254.343c-13.063,0-25.135-0.329-33.768-1.146c-14.739-1.394-24.259-4.156-29.105-8.447
			c-7.26-6.428-7.03-9.552-6.611-15.222c0.135-1.829,0.288-3.903,0.228-6.505l1.999-0.047c0.063,2.699-0.094,4.824-0.232,6.699
			c-0.407,5.521-0.576,7.805,5.943,13.578c4.454,3.943,13.864,6.619,27.967,7.951c22.886,2.166,70.17,0.887,95.503-0.869
			c13.19-0.915,14.365-1.415,14.585-2.021c0.071-0.196,0.15-0.405,0.277-0.634c1.68-3.024,15.64-5.114,46.298-8.653
			c9.478-1.095,17.661-2.04,21.89-2.843c4.591-0.872,10.377-1.847,16.502-2.878c14.837-2.5,31.653-5.334,40.204-8.109
			c1.782-0.578,3.326-0.999,4.961-1.445c1.823-0.496,3.704-1.009,6.011-1.774c0.486-2.004,0.937-3.891,1.373-5.72
			c2.74-11.472,4.916-20.581,11.768-41.938c-3.061-0.024-6.262-0.035-9.206-0.044c-5.068-0.017-9.445-0.032-10.978-0.11
			c-1.425,0.116-8.937,6.062-15.563,11.309c-8.727,6.909-18.617,14.739-25.889,18.894c-6.216,3.552-7.492,3.65-11.9,3.509
			c-1.33-0.045-2.983-0.098-5.238-0.045c-13.581,0.332-27.624,0.674-43.483-1.34c-4.096-0.521-9.008-1.357-15.228-2.417
			c-10.091-1.72-22.648-3.858-39.104-5.916c-18.399-2.3-32.828-1.403-39.588,2.459c-3.95,2.257-12.315,6.69-19.037,10.253
			c-3.588,1.9-6.687,3.543-7.977,4.254c-3.132,1.729-7.125,1.635-12.657,1.5c-3.692-0.089-8.289-0.199-13.878,0.205
			c-16.835,1.217-23.133,3.966-23.414,6.133l-1.983-0.258c0.791-6.102,19.203-7.432,25.253-7.869
			c5.685-0.412,10.334-0.3,14.071-0.21c5.407,0.13,8.982,0.216,11.643-1.251c1.305-0.721,4.41-2.366,8.006-4.271
			c6.709-3.556,15.058-7.98,18.981-10.222c7.128-4.074,22.011-5.06,40.829-2.707c16.5,2.063,29.082,4.207,39.192,5.929
			c6.196,1.056,11.09,1.89,15.144,2.404c15.71,1.994,29.675,1.653,43.183,1.326c2.311-0.059,3.998-0.001,5.354,0.043
			c4.032,0.129,4.879,0.162,10.842-3.245c7.141-4.081,16.969-11.861,25.64-18.726c10.704-8.474,15.004-11.74,16.833-11.74
			c0.025,0,0.05,0,0.075,0.002c1.483,0.076,5.838,0.09,10.88,0.107c3.389,0.011,7.115,0.023,10.578,0.056l1.359,0.013l-0.417,1.294
			c-7.158,22.215-9.357,31.425-12.143,43.084c-0.476,1.994-0.968,4.056-1.505,6.264l-0.13,0.534l-0.521,0.177
			c-2.605,0.883-4.661,1.443-6.648,1.984c-1.61,0.439-3.132,0.854-4.869,1.418c-8.69,2.82-25.584,5.667-40.489,8.179
			c-6.114,1.03-11.891,2.003-16.461,2.871c-4.3,0.816-12.518,1.765-22.033,2.864c-16.153,1.865-43.189,4.986-44.779,7.639
			c-0.068,0.123-0.106,0.237-0.145,0.344c-0.663,1.828-1.388,2.299-16.327,3.334C185.537,253.43,161.072,254.343,139.34,254.343z"/>
	</g>
	<g>
		<path fill="#231F20" d="M147.625,223.193c-4.152,0-8.725-0.112-12.47-0.793c-0.594-0.108-1.179-0.208-1.756-0.307
			c-4.791-0.815-9.316-1.586-13.559-6.3l1.486-1.338c3.777,4.197,7.777,4.878,12.408,5.667c0.584,0.1,1.177,0.199,1.778,0.309
			c4.535,0.825,10.465,0.783,15.229,0.747c0.911-0.007,1.781-0.013,2.592-0.013c25.478,0,41.693-0.701,50.811-1.289
			c1.653-0.106,2.325-0.587,4.55-2.178c2.216-1.586,5.925-4.238,13.41-8.326c0.417-0.229,0.77-0.41,1.066-0.562
			c0.347-0.179,0.703-0.362,0.852-0.471c-0.006-0.188-0.083-0.596-0.157-0.992c-0.196-1.041-0.523-2.784-0.695-5.705l1.996-0.117
			c0.165,2.793,0.466,4.395,0.665,5.453c0.408,2.172,0.196,2.61-1.745,3.609c-0.284,0.146-0.623,0.321-1.022,0.539
			c-7.379,4.031-11.026,6.641-13.205,8.199c-2.309,1.65-3.361,2.403-5.585,2.547c-9.146,0.59-25.409,1.293-50.939,1.293
			c-0.807,0-1.672,0.006-2.578,0.013C149.755,223.186,148.704,223.193,147.625,223.193z"/>
	</g>
	<g>
		<path fill="#231F20" d="M70.009,235.622c-2.865-0.212-13.036-2.46-13.176-7.218c-0.132-4.487,6.19-5.76,11.27-6.783
			c0.791-0.159,1.554-0.312,2.26-0.472l0.439,1.951c-0.72,0.162-1.499,0.319-2.304,0.481c-4.343,0.874-9.749,1.963-9.666,4.764
			c0.074,2.527,7.591,5.006,11.324,5.282L70.009,235.622z"/>
	</g>
	<g>
		<path fill="#231F20" d="M72.333,259.167h-2c0-11.302-0.149-22.221-0.294-32.78c-0.125-9.102-0.253-18.512-0.289-28.216l2-0.007
			c0.035,9.694,0.164,19.1,0.289,28.196C72.183,236.926,72.333,247.852,72.333,259.167z"/>
	</g>
	<g>
		<path fill="#231F20" d="M320.55,221.018c-0.779,0-1.265-0.09-1.587-0.273c-2.069-1.178-3.112-2.592-2.937-3.98
			c0.157-1.241,1.202-2.189,3.108-2.826l-0.103-0.217c4.826-2.271,25.312-1.316,32.893,4.371l2.277,1.709l-2.847,0.09
			c-4.961,0.158-9.436,0.099-13.764,0.042c-2.132-0.028-4.244-0.056-6.385-0.058c-0.001,0-0.002,0-0.003,0
			c-0.628,0-2.261,0.221-3.99,0.453C323.846,220.782,321.812,221.018,320.55,221.018z M320.227,215.391l0.077,0.283
			c-1.623,0.441-2.249,0.998-2.293,1.342c-0.051,0.397,0.536,1.189,1.942,1.99c0.664,0.191,4.785-0.362,6.993-0.66
			c1.953-0.263,3.496-0.471,4.259-0.471c0.001,0,0.003,0,0.004,0c2.149,0.002,4.269,0.029,6.408,0.059
			c3.227,0.042,6.533,0.086,10.058,0.039C339.318,214.328,324.188,213.98,320.227,215.391z"/>
	</g>
	<g>
		<path fill="#231F20" d="M137.386,254.293c-2.247-0.658-3.557-1.72-3.896-3.158c-0.697-2.958,2.982-6.366,6.54-9.662
			c0.555-0.514,1.1-1.02,1.612-1.508c3.226-3.082,16.349-4.929,24.83-4.274c6.302,0.485,13.136,0.931,19.165,1.323
			c11.067,0.721,19.809,1.291,21.775,1.835c2.635,0.729,3.968,2.66,6.389,6.167c0.707,1.024,1.522,2.206,2.509,3.562l-1.619,1.176
			c-0.996-1.372-1.82-2.566-2.535-3.602c-2.295-3.324-3.342-4.841-5.276-5.376c-1.77-0.489-11.291-1.11-21.372-1.767
			c-6.035-0.395-12.875-0.84-19.188-1.325c-8.384-0.644-20.798,1.34-23.295,3.726c-0.519,0.496-1.072,1.008-1.634,1.529
			c-2.694,2.496-6.383,5.912-5.953,7.738c0.201,0.854,1.476,1.393,2.51,1.695L137.386,254.293z"/>
	</g>
	<g>
		<path fill="#231F20" d="M164.354,220.627c-5.028,0-11.457-0.096-19.424-0.283l-1.756-0.041l0.367-1.25
			c0.349-1.189,8.659-16.52,10.826-18.749l0.039,0.037c0.508-0.5,1.87-0.853,8.456-1.757c0.803-0.11,1.404-0.191,1.616-0.232
			c1.482-0.284,11.463-0.786,13.701-0.118l0.528,0.158l0.149,0.53c1.074,3.822,1.56,17.444,1.199,18.901l-0.109,0.466
			c-0.166,0.734-0.33,1.109-1.116,1.379c-0.102,0.035-0.239,0.082-0.428,0.165C177.185,220.365,172.705,220.627,164.354,220.627z
			 M146.051,218.369c24.086,0.551,30.465,0.105,31.548-0.368c0.157-0.069,0.287-0.119,0.396-0.159c0.03-0.133,0.067-0.296,0.117-0.5
			c0.228-1.163-0.168-13.144-1.043-17.297c-2.655-0.363-10.881,0.015-12.215,0.271c-0.224,0.043-0.866,0.133-1.722,0.25
			c-1.837,0.252-6.719,0.922-7.449,1.3c0.002-0.001,0.119-0.063,0.225-0.219l-0.539-0.367l0.43,0.417
			C154.237,203.306,148.027,214.488,146.051,218.369z"/>
	</g>
	<g>
		<path fill="#231F20" d="M181.225,220.254l-0.131-0.95c-0.339-2.456-0.343-19.575-0.343-20.303v-1.123l1.116,0.13
			c0.872,0.102,21.388,2.5,24.775,3.669l-0.017,0.046l0.28-0.044c0.235,1.493,0.172,7.419,0.086,13.36
			c-0.018,1.256-0.032,2.236-0.032,2.711c0,1.522-1.255,1.706-13.433,1.967c-4.221,0.09-8.585,0.183-11.346,0.445L181.225,220.254z
			 M182.751,200.125c0.007,5.626,0.066,14.728,0.247,17.961c2.81-0.206,6.704-0.29,10.484-0.37c4.205-0.09,9.826-0.21,11.48-0.557
			c0.005-0.533,0.017-1.276,0.028-2.15c0.048-3.316,0.129-8.974,0.031-11.702C201.107,202.414,189.609,200.938,182.751,200.125z"/>
	</g>
	<g>
		<path fill="#231F20" d="M209.365,216.051c-0.385,0-0.539-0.215-0.721-0.469c-0.342-0.479-0.527-1.246-0.34-11.442
			c0.014-0.755,0.025-1.36,0.028-1.728v-0.828c2.39,0,6.319,0.804,9.189,1.391c1.229,0.252,2.289,0.469,2.81,0.533l0.551,0.068
			l0.233,0.505c0.841,1.823,0.951,4.18-0.464,5.158C212.734,214.701,210.326,216.051,209.365,216.051z M210.312,203.724
			c-0.002,0.144-0.006,0.296-0.008,0.452c-0.039,2.14-0.132,7.185-0.029,9.43c1.806-1.016,5.732-3.592,9.241-6.012
			c0.263-0.182,0.331-1.143-0.024-2.193c-0.602-0.104-1.413-0.271-2.37-0.467C215.057,204.512,212.427,203.975,210.312,203.724z"/>
	</g>
	<g>
		<path fill="#231F20" d="M140.94,220.385l-0.761-0.055c-0.893-0.062-7.061-0.695-8.329-1.247c-1.517-0.661-6.318-2.659-6.318-2.659
			l-2.14-0.892l2.116-0.945c0.044-0.021,4.519-2.029,9.542-5.184c3.249-2.04,5.51-3.158,7.327-4.056
			c1.24-0.613,2.312-1.144,3.435-1.826c0.347-0.212,0.706-0.435,1.067-0.658c1.722-1.069,3.349-2.079,4.514-2.409l0.378,1.337
			l0.522,0.398c-0.044,0.06-6.053,8.407-9.287,13.438c-0.435,0.677-1.479,3.078-1.815,4.035L140.94,220.385z M128.365,215.438
			c1.504,0.63,3.422,1.435,4.284,1.811c0.662,0.288,4.83,0.821,6.936,1.023c0.459-1.146,1.262-2.981,1.74-3.726
			c1.959-3.047,4.924-7.295,6.995-10.224c-0.129,0.08-0.258,0.16-0.385,0.239c-0.367,0.227-0.73,0.453-1.082,0.667
			c-1.198,0.729-2.306,1.276-3.588,1.911c-1.869,0.924-3.987,1.971-7.15,3.956C133.023,213.038,130.182,214.535,128.365,215.438z"/>
	</g>
	<g>
		<path fill="#231F20" d="M106.833,251.671l-2-0.008c0.008-2.085,0.005-4.165,0.002-6.25l-0.002-4.224
			c0.001-0.911-0.258-3.793-0.559-7.129C103.736,228.084,103,219.898,103,215h2c0,4.809,0.732,12.943,1.266,18.882
			c0.33,3.661,0.568,6.308,0.567,7.31l0.002,4.219C106.838,247.498,106.841,249.582,106.833,251.671z"/>
	</g>
	<g>
		<path fill="#231F20" d="M355.398,212.982c-1.618-0.303-8.815-0.737-16.435-1.197c-14.007-0.846-23.3-1.449-24.793-2.124
			l0.822-1.823c1.36,0.58,14.498,1.372,24.091,1.951c8.018,0.484,14.941,0.901,16.684,1.229L355.398,212.982z"/>
	</g>
	<g>
		<path fill="#231F20" d="M149.525,246.418c-1.85,0-3.747-0.082-6.036-0.297c-0.868-0.081-1.769-0.879-2.241-1.984
			c-0.631-1.481-0.362-3.125,0.739-4.51l1.565,1.246c-0.727,0.912-0.702,1.717-0.553,2.23c0.18,0.62,0.584,0.986,0.722,1.034
			c4.588,0.426,7.592,0.304,11.991,0.052c42.165-2.426,50.179-3.961,51.203-4.66c0,0-0.09,0.062-0.164,0.209l1.787,0.898
			c-0.52,1.032-1.305,2.592-52.711,5.549C153.489,246.32,151.535,246.418,149.525,246.418z"/>
	</g>
	<g>
		
			<rect x="227.583" y="101.469" transform="matrix(0.0225 0.9997 -0.9997 0.0225 448.6433 -8.3334)" fill="#231F20" width="2.001" height="247.561"/>
	</g>
	<g>
		<path fill="#231F20" d="M78.814,245.192l-1.963-0.385c0.632-3.22,0.908-7.114,0.739-10.419c-0.049-0.959-0.162-2.123-0.281-3.354
			c-0.424-4.388-0.951-9.847,0.63-12.984l1.786,0.9c-1.321,2.62-0.825,7.761-0.426,11.892c0.121,1.255,0.236,2.44,0.287,3.445
			C79.765,237.744,79.476,241.822,78.814,245.192z"/>
	</g>
	<g>
		<path fill="#231F20" d="M340.768,211.105l-1.869-0.711c1.001-2.633,1.709-5.426,2.458-8.383c0.586-2.313,1.192-4.706,1.952-7.015
			c0.216-0.654,0.465-1.64,0.754-2.781c1.206-4.771,2.273-8.505,4.103-9.573c2.11-1.231,6.601-1.968,9.224-2.142
			c0.105-0.904,0.254-1.853,0.448-2.876c0.102-0.538,0.228-1.064,0.354-1.595l0.18-0.765c0.029-0.129,0.015-0.403,0.005-0.566
			c-0.018-0.31-0.063-1.132,0.724-1.375c0.365-0.111,0.888-0.089,1.339,0.659l-1.702,1.029c0.176,0.183,0.551,0.352,0.96,0.221
			c0.455-0.144,0.665-0.565,0.669-0.819c-0.001,0.044,0.004,0.104,0.008,0.172c0.017,0.303,0.041,0.718-0.051,1.122l-0.186,0.788
			c-0.12,0.499-0.239,0.995-0.335,1.501c-0.245,1.292-0.412,2.455-0.511,3.553l-0.08,0.897l-0.9,0.014
			c-2.398,0.036-7.266,0.816-9.138,1.909c-1.249,0.729-2.5,5.677-3.172,8.335c-0.298,1.178-0.555,2.195-0.792,2.917
			c-0.739,2.242-1.336,4.6-1.914,6.88C342.565,205.385,341.811,208.365,340.768,211.105z"/>
	</g>
	<path fill="none" stroke="#F05A28" stroke-width="2" stroke-miterlimit="10" d="M332.167,194.667c0,2.794,0.012,5.604-0.333,8.333"
		/>
	<path fill="none" stroke="#F05A28" stroke-width="2" stroke-miterlimit="10" d="M332.667,195.667
		c-0.218-1.895,2.494-0.189,2.675,1.125c0.273,1.992-1.492,2.604-3.175,2.542"/>
	<path fill="none" stroke="#F05A28" stroke-width="2" stroke-miterlimit="10" d="M337.875,195.209
		c-0.006,1.723-0.263,3.445-0.25,5.168c0.005,0.651-0.036,1.618-0.042,2.415"/>
	<path fill="none" stroke="#F05A28" stroke-width="2" stroke-miterlimit="10" d="M340.354,195.558
		c-0.609-0.078-1.313-0.119-1.822-0.173c-0.469-0.049-0.834-0.03-1.646-0.015"/>
	<path fill="none" stroke="#F05A28" stroke-width="2" stroke-miterlimit="10" d="M340.401,198.886
		c-0.953-0.078-1.689-0.048-2.057-0.085c-0.271-0.027-0.975-0.04-1.512-0.092"/>
	<path fill="none" stroke="#F05A28" stroke-width="2" stroke-miterlimit="10" d="M340.479,202.073
		c-0.503,0.009-1.42-0.251-1.906-0.203c-0.34,0.033-0.734,0-1.812-0.141"/>
	<path fill="none" stroke="#F05A28" stroke-width="2" stroke-miterlimit="10" d="M342.464,194.433c0,2.794,0.012,5.604-0.333,8.333"
		/>
	<path fill="none" stroke="#F05A28" stroke-width="2" stroke-miterlimit="10" d="M342.964,195.433
		c-0.218-1.895,2.494-0.189,2.675,1.125c0.273,1.992-1.492,2.604-3.175,2.542"/>
	<path fill="none" stroke="#F05A28" stroke-width="2" stroke-miterlimit="10" d="M348.172,194.975
		c-0.006,1.723-0.263,3.445-0.25,5.168c0.005,0.651-0.036,1.618-0.042,2.415"/>
	<path fill="none" stroke="#F05A28" stroke-width="2" stroke-miterlimit="10" d="M350.781,195.698
		c-0.609-0.078-1.313-0.119-1.822-0.173c-0.469-0.049-0.834-0.03-1.646-0.015"/>
	<path fill="none" stroke="#F05A28" stroke-width="2" stroke-miterlimit="10" d="M350.698,198.651
		c-0.953-0.078-1.689-0.048-2.057-0.085c-0.271-0.027-0.975-0.04-1.512-0.092"/>
	<path fill="none" stroke="#F05A28" stroke-width="2" stroke-miterlimit="10" d="M350.776,201.839
		c-0.503,0.009-1.42-0.251-1.906-0.203c-0.34,0.033-0.734,0-1.812-0.141"/>
</g>
</svg>
