<?xml version="1.0" encoding="utf-8"?>
<!-- Generator: Adobe Illustrator 27.9.0, SVG Export Plug-In . SVG Version: 6.00 Build 0)  -->
<svg isCommex="true" version="1.1" id="Layer_1" xmlns="http://www.w3.org/2000/svg" xmlns:xlink="http://www.w3.org/1999/xlink" x="0px" y="0px"
	 width="743.7px" height="841.9px" viewBox="0 0 743.7 841.9" enable-background="new 0 0 743.7 841.9" xml:space="preserve">
<path fill="#FFF59B" d="M417.4,352.7c-4.8-3.2-12-9.5-21.4-18.7c-8.3-8-18.1-18.2-30.2-31.1c-3.7-3.9-7.6-8.1-11.7-12.5
	c-2.4-2.5-5.1-3.3-8.4-2.7c-9,1.9-20,15.5-24.2,26.5c-4.6,12.2-5.6,20.4-2.9,24.5c0.5,0.8,2,3.1,7.6,3.4c8.1-0.1,13.3-4.4,15.2-6.2
	l0.6-0.6l-0.4-0.7c-4-6.4-7.1-11.5-8.5-14.2c-0.6-1.2-0.2-2.7,1-3.4c1.2-0.6,2.7-0.1,3.4,1c3.9,7.4,16.1,26.5,27.8,43.4
	c10.4,15.2,18.8,26.3,23.5,31.2l0.7,0.7l0.7-0.6c3.1-2.8,7.8-8.1,12.4-14.2c5.4-7.1,10.1-14.3,13.2-20.2l0.1-0.1
	c0.1-0.2,0.1-0.3,0.2-0.4l0.2-0.3c0.7-1.3,1.2-2.5,1.7-3.5l0.3-0.8L417.4,352.7z"/>
<path fill="#FFF59B" d="M389,103.8c-2.4,0.6-4.5,1.1-6.5,1.8l-0.5,0.2l-0.1,0.5c0,0.1,0,0.1,0,0.2s-1.2,6.9-1.9,19l-0.5,7.9l2.4-7.6
	c2.9-9.1,6.1-16.2,8.3-20.6l1-1.9L389,103.8z"/>
<g id="vs-secondary">
	<polygon fill="#8CD96F" points="518.7,487.6 513.2,475.5 495.4,484.1 501.5,496.3 	"/>
	<path fill="#8CD96F" d="M312.6,529.9l0.3,0.3h0.4c0.3,0,0.7-0.1,1.2-0.2c3.5-0.7,9.8-3,13.2-4.6c0.6-0.3,1.1-0.5,1.5-0.8l0.6-0.3
		l-0.1-0.7c-0.4-2.1-1.7-6.3-2.8-8.2l-0.4-0.7l-0.7,0.2c-3,0.8-10,3.4-15.6,5.5c-0.2,0.1-0.4,0.1-0.6,0.2l-0.8,0.3l0.2,0.8
		C309.6,524.2,311.1,528.6,312.6,529.9z"/>
	<path fill="#8CD96F" d="M601.8,678.5L601.8,678.5c-0.5-1.3-5.7-12.1-8.7-18.5c-2.5-5.3-5.5-11.5-8.8-18.5
		c-6.1-12.7-13.3-27.8-20.9-43.8l-1.3-2.7c-3-6.2-6-12.6-9.1-19l-8.6-17.9c-3.4-7.1-6.8-14.1-10.1-21l-20-41.8l-7.7,3.9l0.4,0.9
		c0.8,1.7,2.1,4.2,3.3,6.9c4.4,9.5,4.4,11.7,2.7,13.2c-1,0.9-3.4,1.6-39.6,6.3c-13.7,1.8-27.7,3.5-34.8,4.4l-0.8,0.1l-0.1,0.8
		c-0.1,1.9-0.3,3.9-0.5,5.9v1.4l1.3-0.2c34.2-4.7,75.5-10.4,77.9-10.8c2.7-0.5,5.1,0.4,6.4,2.4c1.2,1.8,1.1,4.2-0.3,6.1
		c-0.3,0.4-2.4,2.8-6.5,7.2c-16.9,18.4-60.3,64.8-78.2,83.9c-10,10.7-18.8,20.1-24.8,26.5l-0.2,0.3v0.4c0,0.2,0,0.3,0,0.5
		s0,0.3-0.1,0.5l-0.1,0.4l0.2,0.3c0.9,1.3,1.4,3,1.4,5.1l0.1,2.4l111.6-116.9c0.6-0.6,1.4-0.9,2.2-0.7c0.8,0.1,1.5,0.7,1.9,1.4
		c4.6,9.7,9.6,20.3,14.9,31.2v0.2l0.2,0.2c0,0,0,0.1,0.1,0.1l1.7,3.6c2.9,6,5.7,12,8.6,17.9l0.1,0.2c0,0,0,0.1,0,0l0.1,0.2
		c8.8,18.3,21.2,43.9,30.1,61.9c5.8,11.8,9.1,18.1,10.1,19.4c0.6,0.8,1.4,1.3,2.2,1.3c0.5,0,1.1-0.2,1.6-0.5
		C601.2,682.3,602.5,680.2,601.8,678.5z"/>
	<path fill="#8CD96F" d="M379.3,668.9c-0.1-0.5-0.3-1.1-0.4-1.6l-0.2-1.3l-7.6,3.6l2.9,7.9l0.6,0.1c1.1,0.2,2.3,0.3,3.5,0.4l0.7,0.1
		l0.3-0.6c1-1.9,1.4-3.4,1.4-5.6v-0.3l-0.2-0.3C379.9,670.7,379.6,669.8,379.3,668.9z"/>
	<path fill="#8CD96F" d="M375.3,648.5l-0.5-1.1c-5.3-12.9-31.8-77.8-36.5-89.5c-0.3-0.7-0.2-1.6,0.2-2.2c0.4-0.7,1.1-1.1,1.9-1.2
		c22.5-1.8,33.8-4.4,38.6-5.7l0.8-0.2l-0.7-7.9l-1,0.1c-5.3,0.7-12.9,1.6-20.4,2.5c-11.4,1.3-17.6,1.8-20.8,1.8
		c-2.3,0-2.6-0.3-3.1-0.6c-0.5-0.4-1.5-1.2-5.7-12.5l-0.4-1l-1.3,0.5c-0.5,0.2-1,0.4-1.5,0.6c-2,0.7-3.9,1.4-5.6,1.9l-1.1,0.1
		l6.9,16.7c0.4,0.9,0.2,1.9-0.4,2.6l-1.8,2.1c-6.6,7.7-19.5,22.6-34,39.3c-15.5,17.9-37.1,42.7-51.9,59.4
		c-10,11.3-15.7,17.5-16.8,18.3c-1.8,1.3-2.2,3.2-1.8,4.3c0.5,1.5,2,2.4,4.4,2.5c1.5,0.1,7.4,0.4,16.3,0.8
		c16.8,0.9,43.4,2.3,65.8,3.6l4.4,0.2c2.1,0.1,4.2,0.2,6.2,0.3c14.2,0.8,25.4,1.4,29.1,1.6l1.1,0.1v-1.1c0-1.3,0-2.5,0.1-3.6l0.1-1
		l-112.1-7c-1-0.1-1.8-0.7-2.2-1.6c-0.4-0.9-0.2-1.9,0.5-2.6l47.2-52.7l0.1-0.1l0,0l47.3-52.9c0.6-0.7,1.4-0.9,2.3-0.8
		c0.8,0.1,1.6,0.7,1.9,1.5l34.3,87.8l1-0.5c2.6-1.3,5.3-2.2,8-2.8L375.3,648.5z"/>
</g>
<path fill="none" d="M357.1,184.8c0.1,0,0.2,0,0.3,0l0,0c1.1-0.2,1.8-1.2,1.6-2.3c-2.2-12.1-10.2-18.9-10.3-18.9
	c-0.8-0.7-2.1-0.6-2.8,0.3c-0.7,0.8-0.6,2.1,0.3,2.8c0,0,7,5.9,8.9,16.6C355.3,184.1,356.1,184.8,357.1,184.8z"/>
<g id="vs-skin">
	<path fill="#D3A37F" d="M555.3,429.1c-1.4-8.4-10.1-17.4-16.9-19.8c-5.8-2.1-23.9-1.6-31.4-1.3s-15.3,0.8-22.4,1.5
		c-0.3,0-0.6,0-0.9-0.1c-2.8-0.8-8.3-4-16.2-9.5c-8.3-5.8-19.6-14.3-34.4-25.9c-3.7-2.9-7.6-6-11.8-9.3l-0.3-0.2
		c-0.4-0.3-0.8-0.6-1.2-0.9l-0.9-0.7l-0.6,1c-3,5.3-6.8,11.1-11.1,16.8L407,381v0.3c0,2.3,0.6,7.8,4.6,10.1l0,0l0,0
		c0,0,0.1,0.1,0.2,0.1c23.8,12.8,36.1,18.7,42.4,21.4c5,2.4,9,3.8,12.3,5h0.1c4.6,1.6,8.3,2.9,11.6,6c2.6,2.4,10.8,2.2,19,1.8
		c3.2-0.2,5.9-0.3,8.1-0.2c1.1,0,2.3,0,3.4,0.2c5.6,0.4,7.3,0.8,8.5,1.4c1.2,0.6,1.7,2.1,1.1,3.4c-0.1,0.2-0.2,0.3-0.2,0.4l-0.5,0.6
		l0.4,0.6c2.8,4.5,3.1,10.3,0.7,14.9c-2,3.9-5.6,6.3-10.2,7l-1.6,0.2l0.9,1.3c0.7,1,2.8,3.4,7.4,4.4c0.8,0.2,1.5,0.2,2.3,0.2
		c4,0,7.4-2.5,9.9-7.5c2.2-4.4,4.3-21.4,5-27.6c0.1-1.4,1.4-2.4,2.7-2.2c1.2,0.1,2.1,1.1,2.2,2.3l0,0c0,0.2,0,0.3,0,0.5
		c-0.9,8.6-3,24.5-5.5,29.4c-0.5,1-1,1.9-1.6,2.7l-1.1,1.7l2-0.1c1.7-0.1,3-0.4,3.6-0.8l0.3-0.2l0.1-0.3c0.6-1.4,1.5-2.9,2.4-4.4
		c1.8-2.8,3.7-6,4.1-9.7c0.3-3.3-0.2-9.3-1.6-17.9l0,0c-0.1-0.7-0.2-1-0.2-1.2c0-0.1,0-0.2,0-0.3c0-1.4,1.1-2.5,2.5-2.5
		c1.3,0,2.4,1,2.5,2.3c0,0.2,0.1,0.5,0.1,0.9c0.9,5.8,2.1,14.2,1.6,19.2c-0.1,1.2-0.4,2.3-0.7,3.5l-0.7,2.2l2-1
		c2.1-1,4.9-2.5,6.3-4.1C556.4,442.1,556.8,437.9,555.3,429.1z"/>
	<path fill="#D3A37F" d="M383.6,189l0.2,1.1l1.6-0.4c1-0.2,2,0.1,2.6,0.9c4,5.3,5.5,16.3,5.7,17.5c0.1,0.9-0.2,1.7-0.9,2.3l-0.7,0.6
		l0.4,0.6c3.9,13.7,18.4,28.9,24.5,34.8l0.6,0.6l0.7-0.4c4.8-3.1,11.3-9.7,15.7-16.1l1.1-1.5h-1.9c-11.7-0.1-18.5-9-20.7-14.2
		c-0.2-0.5-0.2-1,0-1.5s0.6-0.9,1.1-1.1s1-0.2,1.5,0s0.9,0.6,1.1,1.1c0.6,1.4,6.5,13.7,20.6,11.4l0.8-0.1l0.2-0.5
		c1.7-3.4,2.7-6.5,2.9-9.3c1.2-13.6,4.5-27,4.6-27.1c0.2-0.6,0.6-1.2,1.1-1.5c0.6-0.3,1.2-0.4,1.9-0.3c0.9,0.2,1.6,0.9,1.8,1.8
		l0.3,1.1l1-0.4c9.5-3.5,16.4-12.6,16.3-21.6l0,0c-0.1-9.6-6.1-15.7-16.5-22.9c-4.1-2.8-7.7-6.3-10.7-10.2l-1.7-2.2l-0.1,2.7
		c-0.3,7-0.9,11.6-1.9,14.4c-1.3,4.3-9.1,6-12.4,6.6c-2.3,0.4-4.7,0.6-6.9,0.6c-3.6,0-10.1-0.6-12.7-4.3c-4.5-6.6-6.5-33.6,7.6-49.9
		l1.8-2.1l-2.7,0.4c-2,0.3-4,0.6-5.9,0.9l-0.4,0.1c-3.3,0.4-6.5,0.9-9.3,1.5l-1,0.2l-0.2,0.4c-3.4,6.2-11.7,23.1-15.3,45.8v0.1v0.1
		C379.9,166.5,382.5,182.8,383.6,189z"/>
	<path fill="#D3A37F" d="M407.9,601c-0.8,0-1.6,0-2.5,0c-8.6-0.3-14-2-17-3.3L387,597v1.6c0.1,3.6,0.2,6.9,0.3,9.7l0.1,3.9
		c0.2,6,0.5,12.2,0.9,18.5c0.7,11.8,1.1,19.3,0.4,23.2l-0.1,0.7l0.7,0.3c1.6,0.7,4.3,1.6,8.3,1.7c0.4,0,0.7,0,1,0c4,0,6.7-0.5,8.3-1
		l0.7-0.2v-0.7c0-0.4,0-0.8,0.1-1.3v-0.3c0-0.1,0-0.1,0-0.2v-0.2c0.7-5.6,3-15.9,6.3-29.6c0.8-3.4,1.6-6.9,2.5-10.6l0.5-2.1
		c0.7-3,1.5-6.2,2.2-9.3l0.4-1.6l-1.6,0.4C415.4,600.6,411.9,601,407.9,601z"/>
	<path fill="#D3A37F" d="M404.4,251.4l1.4-0.8l-1.3-0.9c-12.1-8.3-21.1-18.8-26.5-31c-0.1-0.2-0.1-0.4-0.2-0.6l-0.1-0.8h-0.8
		c-1.5,0-3.8-0.7-6.2-3.4l-0.5-0.6l-0.7,0.4c-3,1.8-7.5,6.2-11.6,10.1l-1,1c-0.6,0.5-1.1,1.1-1.7,1.6l-0.7,0.6l0.6,0.7
		c1,1.3,3,4.1,4.2,8.1v0.1c1.2,4,1.5,8.1,0.9,12.3c-1.3,8.6-5.6,15.4-8.1,18.8l-0.8,1.2l1.4,0.4c3.7,1.1,7.1,2.9,10.1,5.5
		c0.9,0.8,1.6,1.5,2.2,2.2l0.9,1l0.7-1.2c9.7-17.1,18.2-19.9,29.2-21.9C400.2,253.5,402.9,252.3,404.4,251.4z"/>
	<path fill="#D3A37F" d="M350.4,191.8v-0.2c0-1.2,0.7-3.4,5-4c2-0.3,4.1-0.2,6,0.3l1.6,0.5l-0.4-1.6c-1.4-6.2-3.4-16.5-5.1-30.8
		l-0.1-0.6l-0.5-0.2c-0.2-0.1-0.4-0.2-0.6-0.4c0,0-4.7-4.2-10.1-3.7c-3.3,0.3-6.3,2.3-8.9,6c-1.7,2.4-3,5.5-3.6,8.9
		c-1.4,7.5,0,15.8,3.8,21.7c2.8,4.6,6.5,6.9,10.8,6.9c0.5,0,0.9,0,1.4-0.1l0.9-0.1v-0.9C350.4,192.8,350.4,192.2,350.4,191.8z
		 M346.3,166.6c-0.8-0.7-1-2-0.3-2.8s2-1,2.8-0.3c0.1,0.1,8.1,6.8,10.3,18.9c0.2,1.1-0.5,2.1-1.6,2.3l0,0c-0.1,0-0.2,0-0.3,0
		c-1,0-1.8-0.7-2-1.6C353.3,172.5,346.3,166.6,346.3,166.6z"/>
</g>
<path fill="#FFFF54" d="M359.4,278c-6.8-5.9-15.8-7-24-2.9c-4,2-7.6,5-11.1,9.2l-0.4,0.4c-6.3,7.6-11.5,18.2-17.4,30.4
	c-4.6,9.5-9.9,20.2-16.6,31.3c-3,4.9-6.2,10-9.6,15.2l-0.6,0.9l0.9,0.5c1.7,0.9,3.8,1.9,6.3,2.9l0.2,0.1l50.6,2.6l8.2-27.2l-0.2-0.4
	c-0.1-0.2-0.2-0.3-0.3-0.5l-0.6-0.9l-0.9,0.7c-2.8,2.5-8.9,6.6-17.6,6.7h-0.1c-5.4-0.2-9.3-2.1-11.6-5.6c-3.7-5.7-3-14.9,2.4-29.1
	c4-10.5,15.6-27.1,27.9-29.6c4.9-1,9.4,0.4,13,4.1c2.5,2.7,5,5.4,7.3,7.9l1.6,1.8l0.1-2.4C367,288.2,364.4,282.2,359.4,278z"/>
<path fill="#FFFF54" d="M357.2,358.7l-2-3l-4.5,14.3l6.8,0.3l0.2-0.7c0.9-3,1.7-5.5,2.1-6.4l0.2-0.5l-0.3-0.4
	C358.8,361.1,358,359.9,357.2,358.7z"/>
<path fill="#FFFF54" d="M313.1,411.5c-35.3,0-55.6-5.2-62.7-7.5l-0.6-0.2l-0.4,0.5c-1.1,1.3-2,2.4-2.9,3.4l-0.8,0.9l1.1,0.6
	c4,2.3,9.6,4.3,16.7,6c0,0,0.1,0,0.2,0.1c6.8,1.7,15.1,3.1,24.8,4.3c6.4,0.8,13,1.2,19.8,1.2c3.5,0,7-0.1,10.5-0.3
	c13.8-0.8,24.7-2.9,28.7-3.8l0.7-0.2l0.8-6.6l-1.2,0.1C335.7,411,324.1,411.5,313.1,411.5z"/>
<path fill="#FFF59B" d="M264.2,420.6L263,423l-0.6,1.3l1.4,0.2c0.1,0,0.1,0,0.2,0c4.4,0.6,11.3,1.3,18.9,1.5l0.2-2
	c-6.6-0.9-12.7-2-18.1-3.2L264.2,420.6z"/>
<path fill="#A3A3A3" d="M401.8,93.1h-0.7c-19.1-0.8-42.8-1.8-62.8,8.1c-27.5,13.6-34.4,30.8-35.8,35.8l-0.2,0.7l0.6,0.4
	c1.4,1,2.8,2.2,4,3.4l0.4,0.5l0.6-0.2c0.2-0.1,0.5-0.1,0.7-0.1h0.1c0.6-0.1,15.3-2.2,35.2-19c3.9-3.3,7.5-6.2,11.2-8.7
	c15.1-10.7,26.6-13.7,38.9-16.3l0.9-0.2c2.9-0.6,6.1-1,9.5-1.5l0.5-0.1c1.1-0.2,2.3-0.3,3.4-0.5l-0.1-2
	C406.1,93.2,404,93.2,401.8,93.1z"/>
<path fill="#A3A3A3" d="M385.2,195.7l-0.4-0.7l-0.8,0.2c-0.6,0.2-1.2,0.3-1.7,0.5c-7.7,2.2-11.1,4.3-12,5l-0.5,0.4l0.1,0.6
	c0.3,1.7,1.4,4.9,3,7.3l0.1,0.1c0.1,0.1,0.1,0.2,0.2,0.4c0.6,0.8,1.2,1.5,1.8,2.1c0.7,0.7,1.4,1,2,1c0.1,0,0.2,0,0.2,0
	c0.2,0,0.3,0,0.5,0h0.3l10.4-5.3l-0.1-0.7C387.9,204.3,386.9,199.2,385.2,195.7z"/>
<path fill="none" d="M461.1,481.3L461.1,481.3c11.9-17.7,2-34,1.6-34.7c-0.2-0.3-0.5-0.6-0.9-0.7c-0.1,0-0.2,0-0.3,0
	c-0.3,0-0.5,0.1-0.8,0.2c-0.7,0.4-0.9,1.4-0.5,2.1c0.4,0.6,9.2,15.6-1.5,31.5c-0.5,0.7-0.3,1.6,0.4,2.1c0.3,0.2,0.6,0.2,0.8,0.2
	C460.4,482,460.8,481.7,461.1,481.3z"/>
<path fill="#4E4E4E" d="M508.2,430.7L508.2,430.7c-0.9,0-1.8-0.1-2.8-0.2h-0.1h-0.1c-5.3,0.5-8.3,6.1-8,11c0.1,1.6,0.5,3,1.2,4.2
	c1,1.5,3,3.3,7.2,3.3c0.2,0,0.3,0,0.5,0c3.9-0.1,6.7-1.7,8.1-4.5c1.6-3,1.3-7.1-0.6-10.1C512.8,433.1,511.1,431.3,508.2,430.7z"/>
<path fill="#4E4E4E" d="M300.8,478.3l-0.4-0.2c-1.6-0.9-3.3-1.7-5-2.6c-5.9-2.9-12-5.9-19-14.4c-0.5-0.6-1-1.2-1.4-1.8l-0.3-0.4
	h-0.5c-4.3,0.1-14.7,1.4-19,12c-2.7,6.5-2.5,12.5,0.4,17c2.5,3.8,6.8,5.9,11.8,6h0.2c6.8,0,20.4-2.7,30.6-5l0.3-0.1
	c3.2-1.8,2.7-7.6,2.3-10.1V478.3z"/>
<path fill="#4E4E4E" d="M388.1,214.2l-0.4-1.1l-5.6,2.8l0.4,0.9c4.7,10.5,12.3,19.7,22.4,27.2l8,5.9l-6.6-7.4
	C399.8,235.3,391.4,224.5,388.1,214.2z"/>
<path fill="#4E4E4E" d="M374.8,157.4L374.8,157.4c-0.3-4.1-0.4-8.3-0.4-12.3c-0.1-17.2,1.1-29.7,1.9-35.7l0.2-1.7l-1.6,0.7
	c-4.5,1.9-8.9,4.2-13.4,7.2l-0.5,0.3v0.5c0,0.1,0,0.2,0,0.3c-0.1,1.1-1.4,11.9,1.2,35.9c0.1,0.8,0.2,1.6,0.3,2.4
	c2.4,21.5,5.8,34.3,7.1,38.9l0.3,1.1l1.1-0.5c2-1,4.4-1.9,7.1-2.8l0.8-0.3l-0.2-0.9C377.9,185.7,375.7,172.7,374.8,157.4z"/>
<path fill="#4E4E4E" d="M322.3,142.4c-4.1,1.8-7.3,2.8-9.3,3.3l-1.8,0.5l18.1,16.2l0.5-1.4c0.8-2.6,2-4.9,3.4-6.8l0.1-0.2l0.1-0.1
	l0.6-0.7l-11.1-11L322.3,142.4z"/>
<path fill="#808080" d="M668.1,593.8c-4.1-3.5-8.4-6.6-12.7-9.3C637.1,573,616.5,567.8,594,569c-3.2,0.2-6.4,0.5-9.7,0.9
	c-12.2,1.6-21.3,4.8-24.6,6l-1,0.4l1.7,3.6c0.8,1.7,1.7,3.5,2.5,5.2l0.4,0.8l0.9-0.3c4.8-1.7,17.9-5.8,34.7-6.1
	c19.7-0.3,48.4,4.9,73.6,31c24.8,25.8,32.2,67.7,18.5,104.3c-13.3,35.4-42.8,57.6-81,60.9c-4.1,0.4-8.2,0.5-12.2,0.5
	c-27.2,0-49.8-8.6-67.1-25.4c-13.6-13.3-23.8-32.1-28.6-52.9l0,0c-2.4-10.2-3.3-20.5-2.8-29.7c2.8-43,37.3-68.3,44.2-72.9l0.8-0.6
	l-6-8.8l-0.8,0.5c-21.2,13.7-35.9,33.7-43.8,59.3c-5.5,17.9-5.8,33.2-5.7,37.5v0.4l0.3,0.3c2.2,2.1,3.7,4.7,4.6,7.6l0.1,0.3l0.3,0.2
	c2,1.3,3.4,3.7,4,6.9c0.1,0.8,0.2,1.6,0.3,2.5c0.2,3.5-0.5,8.6-2.5,12l-0.2,0.4l0.2,0.4c11.5,32.7,36.7,57.4,69.3,67.7
	c10.9,3.5,22.1,5.2,33.3,5.2c23.4,0,46.7-7.4,66.1-21.6c27.1-19.8,42.6-49.1,43.7-82.6c1-28.6-9.3-57.1-28.1-78.4
	C675.9,600.8,672.1,597.1,668.1,593.8z"/>
<path fill="#808080" d="M602.1,687.5c-1.3,0.8-2.8,1.2-4.2,1.2c-2.3,0-4.5-1.1-6.1-3.2c-0.6-0.8-2.5-4.2-8.5-16l-0.8-1.6l-0.9,1.6
	c-0.9,1.5-2.3,4.5-2.6,8.6c-0.3,5,1,12,9.3,17.6l0.1,0.1c3.3,1.6,6.7,2.4,9.9,2.4c4.4,0,8.6-1.5,12-4.5c3.2-2.8,5.5-6.5,6.4-10.7
	c0.9-3.7,0.7-7.6-0.5-11.2c-3.6-11.1-11.6-12-16.1-11.6l-1.4,0.1l0.6,1.3c4.1,8.7,6.7,14.1,7,15
	C608.2,680.9,605.6,685.5,602.1,687.5z"/>
<path fill="#808080" d="M447.3,725.7c-5.6,0.2-10,0.5-13.6,0.9l-0.9,0.1v5.2l35.9-0.3l0.2-0.2c0.9-0.6,2.4-2.3,2.7-6.9l0.1-1.3
	l-1.2,0.2C464.1,724.6,456.3,725.3,447.3,725.7z"/>
<path fill="#5A77BA" d="M433.1,526.9v-0.2l-0.1-0.2c-3.4-8.5-17.5-25-42.1-48.8c-17.2-16.7-35.6-33.3-47.2-43.2
	c-1-0.9-1.2-2.5-0.3-3.5s2.5-1.2,3.6-0.2c4.2,3.6,26.3,22.9,47.6,43.5l0.2,0.2l0.2,0.1c4.2,1.2,14.4,4.3,19.5,8.8
	c0.4,0.3,0.6,0.8,0.7,1.4c0,0.5-0.1,1-0.5,1.5c-0.7,0.8-2,0.9-2.8,0.2c-1.4-1.2-3.4-2.5-6.1-3.7l-5.1-2.4l3.9,4
	c12.6,12.7,21.8,23.1,27.4,30.9l1,1.5l0.7-1.6c0.9-2.2,2.8-6.7,4.9-12.3c5.3-13.7,11.7-32.2,11.9-42.5v-0.5l-0.3-0.3
	c-23.9-22-85.8-36.2-98-38.8l-0.4-0.1l-0.3,0.2c-0.2,0.1-0.4,0.2-0.7,0.3c-0.1,0-12.5,3.3-30.4,4.5h-0.2l-0.2,0.2
	c-7.9,3.6-18.9,5.5-32.7,5.5c-7.7,0-14.8-0.6-19.4-1.1l-1.4-0.2l0.4,1.4c1.2,4.9,4.3,14.5,11,23.7c0.7,1,1.5,2,2.3,3
	c6.3,7.6,11.7,10.3,17.3,13.1c2.2,1.1,4.5,2.2,6.8,3.6c3.2,2,6,4.2,8.8,7c1,1,2.2,2.2,3.8,3.6c15.7,13.7,56.6,41.7,70.8,46.2
	c1.2,0.4,2,1.7,1.7,2.9c-0.3,1.1-0.5,2.3-0.7,3.5c-1.8,10.8-2.5,28.3-2,53.6v0.5l0.4,0.4c0.5,0.4,5.4,4.1,18.2,4.5
	c0.8,0,1.6,0,2.4,0c7.3,0,11.1-1.3,12.7-2.1l0.4-0.2l0.1-0.5c3.9-16.5,8.6-37.4,10.7-52.6c0.7-5.3,1.1-9.5,1.2-12.9
	C433.1,528.1,433.1,527.5,433.1,526.9z"/>
<path fill="#808080" d="M298.7,605.1l-0.8,0.9c-0.7,0.8-1.7,1.9-3.1,3.4l-3,3.3l0.6,0.7c20.5,21.6,23.5,50.8,24,59.2v0.9l10,0.6v-1
	c0.3-7.9-0.9-36-27.1-67.1L298.7,605.1z"/>
<path fill="#808080" d="M316.5,690.3c-0.7,12.5-6.7,44.5-46.5,72.3c-14.4,10.1-31.7,15.4-49.9,15.4c-8.1,0-16.3-1-24.5-3.1
	c-28.8-7.2-53.9-25.8-65.5-48.7c-12.5-24.4-14.8-54.7-6.2-80.8c8.1-24.4,24.9-43.6,48.8-55.4c29.9-14.9,57.4-11.2,75.3-5.6
	c15.1,4.8,25.9,11.7,29.8,14.4l0.7,0.5l5.5-6.3l-0.8-0.7c-1.1-1-3-2.4-5.5-4.2c-4.1-2.8-10.8-6.9-19.7-10.4
	c-14.8-5.8-39-11.1-70.6-3.6c-1.5,0.4-3.2,0.8-5.2,1.3c-24,6.6-43.8,22.2-57.3,45.3c-2.2,3.7-4.2,7.7-6,11.8
	c-13.6,30.8-14,67-1,92.3c17.9,34.8,53.2,63.2,97.6,63.2c17.3,0,36-4.3,55.6-14.2c45.8-22.8,53.7-69.2,55-82.9l0.1-1l-9.4-0.5
	L316.5,690.3z"/>
<g id="vs-hair">
	<path fill="#808080" d="M311.6,230.2c-2.4,1.9-3.1,3.6-2,5.2c1.9,2.7,7.3,4.6,13.2,4.6c4.2,0,8.7-1,12.4-3.4
		c6.9-4.4,13.6-11,19-16.3c1.2-1.2,2.4-2.4,3.6-3.5l1.5-1.4l-2-0.3c-1.9-0.3-4.4-1-5.3-3l0,0c-0.7-1.6-1-5.7-1.2-11.7v-1.1l-1,0.1
		c-0.5,0-0.9,0.1-1.4,0.1c-6,0-11.3-3.3-15-9.3c-4.1-6.7-5.8-15.7-4.6-24.1l0.1-0.5l-13.5-12l1.3,3.6c2.3,6.5,2.7,11.7,2.7,11.8
		c0.1,1.4-0.9,2.6-2.3,2.7c-0.7,0.1-1.3-0.2-1.8-0.6s-0.8-1-0.9-1.7c0-0.1-1-12-8.2-21.5c-3.4-4.5-7.7-7.8-12.8-9.7
		c-2.5-0.9-5-1.4-7.4-1.4c-6,0.1-11.6,3.1-15,8.3c-3.1,4.6-4.6,12.1,1,18c0.6,0.6,0.8,1.5,0.6,2.3s-0.8,1.5-1.6,1.8
		c-10,3.6-16.6,14.1-14.8,23.4c1.8,8.9,10.9,13.5,24.9,12.8c1.1-0.1,2.1,0.6,2.5,1.7s0,2.2-1,2.9c-3.2,2.1-10.3,7.6-7.8,12.9
		c2.7,5.6,16.6,10.6,34.7,4.9c1.1-0.4,2.4,0.1,3,1.2C312.8,228.2,312.5,229.5,311.6,230.2z"/>
	<path fill="#808080" d="M355.8,119.5l-1.7,1.3c-2.2,1.7-4.5,3.5-6.9,5.6c-6.7,5.7-13.4,10.3-20.1,13.8l-1.2,0.6l10.2,10.1l0.7-0.6
		c2.7-2.4,5.8-3.8,9-4.1c3.1-0.3,6.3,0.4,9.5,2l1.6,0.8l-0.2-1.8c-1.1-12.5-1.2-20.8-1-25.5L355.8,119.5z"/>
	<path fill="#808080" d="M282.8,115.8h-1.2c-2.7,0.1-7.6,1.1-10.2,6.2c-2.9,5.7,0.1,11,1.5,13l0.5,0.8l0.8-0.5c2.5-1.5,5.2-2.5,8-3
		l1-0.2l-0.2-1c-0.4-2.6-1-7.9-0.3-14.2L282.8,115.8z"/>
</g>
<path fill="#808080" d="M217.1,668.5c0.4-0.3,1.3-1.2,4.9-5.1l1.3-1.4l-1.9-0.2c-4.8-0.6-13.8-0.3-20.7,8.4
	c-4.4,5.5-4.6,13.2-0.6,19.5c3.4,5.3,9.2,8.6,15.7,8.9c0.3,0,0.6,0,0.9,0c1.8,0,3.7-0.2,5.7-0.7c8.9-2.1,12.2-8.2,13.3-11.6l0.4-1.2
	l-1.3-0.1c-6.2-0.3-10.8-0.6-12.2-0.6c-4.5-0.2-7.8-2.4-9-5.9C212.4,674.9,213.8,671,217.1,668.5z"/>
<path fill="#CCCCCC" d="M305.1,495.9l5.8,18.8l1-0.4c2.9-1.1,5.2-2,7.2-2.6l0.9-0.3l-5.9-17.6L305.1,495.9z"/>
<path fill="#CCCCCC" d="M505,472.8c-0.9-2-2.4-5.4-4.6-10.6c-4.2-9.6-7-10.3-8.8-10l-1.1,0.4l-0.1,0.1c-0.2,0.2-0.4,0.4-0.5,0.7
	c-1,1.8-0.9,5.2,0.4,9c2,5.7,5.3,11.9,6.7,14.3l0.5,0.8l7.9-3.8L505,472.8z"/>
<path fill="#CCCCCC" d="M671,612c-19.8-20.5-44-30.8-72-30.4c-16.1,0.2-29,4.1-33.8,5.8l-1,0.4l0.5,1c0.4,0.8,0.7,1.5,1.1,2.3l1,2.1
	l0.8-0.3c4.4-1.5,16.2-5.1,31.4-5.1h0.4c2.9,0,5.9,0.2,8.7,0.4c12.7,1.3,24.6,5.1,35.4,11.4c7.8,4.6,14.9,10.4,21.3,17.5
	c9.8,10.8,16.8,24.2,20.3,38.9c3.8,15.9,3.4,32.6-1.1,48.4c-1.9,6.8-4.6,13.2-7.9,19.2c-5.1,9.3-11.7,17.3-19.5,23.8
	c-8.3,6.9-17.7,11.9-28,14.8c-10.9,3.1-21.7,4.6-32.1,4.6c-18.4,0-35.6-5-49.7-14.4c-6.7-4.5-12.7-9.9-17.9-16.2
	c-7.3-9-12.9-19.7-16.6-31.8c-2-6.5-3.4-13.5-4.3-20.8c-0.5-4.8-0.6-9.6-0.3-14.3c0.8-11.5,4-22.7,9.6-33.5
	c8.8-16.8,21.6-28.5,30.7-33.9l0.9-0.5l-3.5-5.1l-0.8,0.6c-6.8,4.6-40.6,29.8-43.3,71.4c-1.5,23.9,7.4,58.3,30.8,81
	c17,16.5,39,24.9,65.7,24.9c3.9,0,7.9-0.2,12-0.5c37.4-3.3,66.3-25,79.3-59.6C702.5,678.2,695.2,637.2,671,612z"/>
<path fill="#CCCCCC" d="M355.8,667.2c-2.3,3.4-3.9,7.2-4.7,11.4c-1.1,6-0.5,12.7,1.7,18.6c2.2,5.8,5.6,10.4,9.5,12.5l1.2,0.7
	l0.2-1.4c0.3-1.6,0.7-3.4,1.3-5.2l0.2-0.6l-0.4-0.4c-7.2-7.5-6.4-12.8-6-14.2c0.4-1.5,1.4-2.5,2.5-2.7c0.7-0.2,8.2-0.5,11.8,0.2
	l0.7,0.1l0.4-0.6c0.7-1.1,1.3-2.1,1.9-3l1-1.5l-1.6-0.2c-0.9-0.1-1.8-0.2-2.7-0.4c-7.8-1.2-10.1-2.8-10.8-3.7
	c-0.2-0.3-0.3-0.7-0.3-1c0.3-3.7,2.3-7,5.9-9.9l0.1-0.1c3.8-3,8.4-4.8,10.3-5.4l0.6-0.2l0.1-0.6c0.2-2,0.7-3.6,1.4-4.8l1-1.6
	l-1.9,0.1C373.8,653.4,363.8,655.7,355.8,667.2z"/>
<path fill="#CCCCCC" d="M352.5,380.1c0.5,0,0.9,0,1.4,0c0.1,0,0.3,0,0.4,0h0.8l0.2-0.8c0.3-1.8,0.8-3.8,1.4-5.8l0.3-1.2l-7.6-0.3
	c-0.3,0-0.6-0.2-0.8-0.4c-0.2-0.3-0.2-0.6-0.1-0.9l5.3-17.1l-0.3-0.4c-1.7-2.6-3.4-5.1-5-7.6l-1.2-1.8l-7.9,26.3
	c-0.1,0.4-0.5,0.7-0.9,0.7l-45.5-2.3l8.8,2.4C320.4,375.9,343,379.7,352.5,380.1z"/>
<path fill="#CCCCCC" d="M312.9,399c-32.3-1-48.6-5.8-52.9-7.2l-0.7-0.2l-0.4,0.6c-2.6,3.4-4.9,6.4-6.8,8.8l-0.9,1.2l1.4,0.4
	c9,2.6,28.8,6.9,61.1,6.9c11.1,0,22.7-0.5,34.7-1.6l0.8-0.1l1.2-9.3l-1.3,0.1C340.5,399.6,324.6,399.3,312.9,399z"/>
<path fill="#CCCCCC" d="M291.3,615l-0.7-0.8l-0.7,0.8c-1,1.1-2.2,2.4-3.4,3.8l-0.6,0.6l0.6,0.7c19.7,23.6,21.4,44.1,21.2,51.8v1
	l7,0.4l-0.1-1.1C313.9,664,310.6,635.6,291.3,615z"/>
<path fill="#CCCCCC" d="M308.1,688.9h-0.9l-0.1,0.9c-0.7,6.3-3.2,19.2-12.5,34.2c-4.7,7.5-10.5,14.7-17.3,21.3
	c-10.6,10-22.9,16.8-36.5,20.3c-7,1.8-14.4,2.8-21.9,2.8h-0.3c-3.3,0-6.7-0.2-10-0.6c-10.9-1.2-21.7-4.1-31.9-8.8
	c-4.5-2.1-8.8-4.4-12.9-7.1c-5.8-3.3-11.6-8.5-16.7-15.2c-10.5-13.8-17.7-33.2-19.2-51.7c-0.4-5-0.4-10-0.1-14.8
	c0.8-11.9,4-23.1,9.3-33.4c5.7-11.1,13.9-20.9,24.3-29.2l0.1-0.1c9.8-6.9,19.9-12,30.1-15.2c11.7-3.7,23.6-4.8,35.3-3.5
	c4.2,0.5,8.6,1.3,12.8,2.5c10.5,2.9,18.8,7.3,23.9,10.5c3.2,2,5.6,3.8,7,4.9l0.7,0.6l1.8-2.1c1-1.2,2.1-2.4,3.1-3.5l0.7-0.8
	l-0.9-0.6c-4.9-3.3-15.1-9.6-29-14c-17.5-5.5-44.4-9-73.6,5.5c-23.4,11.6-39.9,30.4-47.8,54.3c-8.5,25.7-6.2,55.3,6,79.3
	c11.2,22,36.4,40.7,64.2,47.6c8.1,2,16.2,3,24,3c17.7,0,34.5-5.1,48.8-15c38.6-26.9,44.8-58.4,45.6-70.7l0.1-1l-3-0.2
	C310.4,689,309.3,689,308.1,688.9z"/>
<path fill="none" d="M418.5,73.8c0.6,0,1.2-0.3,1.5-0.7c0,0,5-5.9,9.2-3c0.4,0.3,1,0.4,1.5,0.3s1-0.4,1.3-0.8l0,0
	c0.3-0.4,0.4-1,0.3-1.5c-0.1-0.5-0.4-1-0.8-1.3c-1.6-1.1-3.2-1.6-4.8-1.6c-4.1,0-7.9,3.1-9.8,5.3c-0.3,0.4-0.5,0.9-0.5,1.5
	c0,0.5,0.3,1,0.7,1.4C417.7,73.8,418.2,73.8,418.5,73.8z"/>
<path fill="none" d="M304.5,293c0.3-0.7,0.1-1.5-0.3-2.1c-5.4-6.2-23.3-13.3-24-13.6c-0.3-0.1-0.6-0.2-0.9-0.1h-0.1h-0.1
	c-0.8,0-1.6,0.4-1.9,1.1l-0.1,0.3c-0.1,0.1-0.1,0.2-0.2,0.3l0,0l-0.1,0.3c-0.3,0.6-0.7,1.4-1.1,2.2l-0.7,1.3
	c-5.1,9.9-14.7,28.4-17.8,37.5c-0.2,0.5-0.1,0.9,0,1.4c2.6,6.5,16,12.9,23.1,13.5c0.1,0,0.1,0,0.2,0c0.3,0,0.6-0.1,0.9-0.2
	c4.4-2.2,14.2-20.7,21.5-38l0.1-0.2l0.1-0.3h0.1C303.6,295.2,304.1,294,304.5,293L304.5,293z M296.4,301.8
	c-6.2,13.6-13.1,26-16.1,29l-0.4,0.4l-0.5-0.1c-6.3-1-15.3-5.9-17.9-9.8l-0.3-0.4l0.2-0.5c2.9-7.8,9.7-21.3,14.6-30.9l1.2-2.3
	l0.7,2.5c1,3.8,3,8.8,7,10.8c0.1,0.1,0.2,0.1,0.3,0.1c2.8,0.9,6.3,0.8,10-0.2l2-0.5L296.4,301.8z M299.5,294.6l-0.4,0.2
	c-1.4,0.6-5.7,2.4-9.7,2.4c-1,0-1.9-0.1-2.8-0.3l-0.2-0.1c-4-2.3-5.3-10-5.6-13.1l-0.2-1.7l1.6,0.7c3.8,1.7,13.1,5.9,17.6,9.7
	l0.6,0.5L299.5,294.6z"/>
<path fill="#6495FB" d="M472.3,682.4v-0.8l-0.8-0.2c-4.1-0.9-8.9-1.4-14.7-1.6h-0.9l-0.1,0.9c-0.4,3-1.9,5.5-4.3,7.2
	c-2.8,2-6.8,3-11.8,3c-5.6,0-12-1.3-17.8-3.6c-8-3.2-12-7.5-13.9-10.5l-0.4-0.7l-0.8,0.3c-1.1,0.4-2.4,0.7-3.8,0.8
	c-1.5,0.1-3.1,0.2-4.6,0.2c-4.2,0-7.8-0.5-10.7-1.3l-1.5-0.4l0.2,1.5c0.4,3.3,2.5,9.6,12.2,14.4c16.5,8.2,19.3,17.8,19.7,19.7l0.2,1
	l1-0.2c7.6-1.6,14.6-2.7,29.8-2.3c2.1,0.1,4.2,0,6.2-0.1l1.1-0.1l-0.2-1.1c-0.8-5.9,1-13.9,9-17.3
	C471.6,688.5,472.4,684.5,472.3,682.4z"/>
<g id="vs-primary">
	<path fill="#E20142" d="M288.1,131.4l0.1,0.7l0.7,0.1c2,0.2,4,0.7,6,1.5c1.3,0.5,2.6,1.1,3.8,1.7l1,0.5l0.4-1.1
		c2.2-6.6,10.3-23.2,36.9-36.4c20.7-10.2,44.9-9.2,64.3-8.4c8.1,0.3,15.7,0.7,21.7,0.1h0.5l0.3-0.4c1.4-2,2.4-3.9,3-5.5
		c0.1-0.2,0.2-0.5,0.2-0.7c0.2-0.5,0.8-0.8,1.3-0.6c0.5,0.2,0.8,0.7,0.6,1.2c-0.1,0.2-0.2,0.5-0.3,0.8c-0.4,1.1-0.8,2.1-1.1,3
		l-0.7,1.8l1.9-0.4c0.7-0.2,1.4-0.4,2.1-0.6h0.2l0.2-0.1c6-3.8,9.4-9.2,10.6-16.5c1.4-8.6-3.6-15.1-8.1-19.1l0,0
		c-3.2-2.8-7.2-5.4-11.9-7.6c-9.8-4.5-21.7-6.9-33.7-6.8l0,0h-1l0,0h-1l0,0c-6.9,0.2-13.8,1.3-20.4,3.1c-0.7,0.2-1.4,0.4-2.1,0.6
		c-19.8,5.8-35.9,15.3-49.3,29l-5.1,5.2l6.3-3.6c11.2-6.5,24.5-10.6,39.4-12.1l4.4-0.5c8.5-0.9,15.9-1.7,21.8-2.5h0.1
		c8.7-2.3,10.9-5.3,11.4-6.9c0.3-0.9,0.3-2-0.1-3l-0.2-0.5l-0.6-0.1c-1.7-0.3-3.5-0.5-4.9-0.6c-0.5,0-1-0.2-1.4-0.6
		s-0.6-0.9-0.5-1.4c0-1.1,1-1.9,2.1-1.9c1.4,0.1,4.1,0.3,6.9,0.9c3.7,0.9,6.4,2.2,7.8,3.9c1.1,1.3,1.6,2.8,1.4,4.5
		c-0.6,5.4-5.6,7.7-21.4,9.8h-0.2c-6,0.8-13.5,1.6-22.3,2.5l-4.1,0.4c-32,3.3-49.5,17.9-58.6,29.4l-0.1,0.1c-1,1.7-1.9,3.1-2.6,4.4
		l-0.2,0.2v0.2c0,0.1-0.1,0.1-0.1,0.1l-0.2,0.3C285.2,113,287.5,128.5,288.1,131.4z M416.5,72c0-0.5,0.1-1,0.5-1.5
		c1.8-2.2,5.6-5.3,9.8-5.3c1.6,0,3.2,0.4,4.8,1.6c0.4,0.3,0.7,0.8,0.8,1.3s0,1-0.3,1.5l0,0c-0.3,0.4-0.8,0.7-1.3,0.8
		c-0.5,0.1-1.1,0-1.5-0.3c-4.2-2.9-9.1,2.9-9.2,3c-0.4,0.5-0.9,0.7-1.5,0.7c-0.3,0-0.8-0.1-1.3-0.5C416.8,73,416.6,72.6,416.5,72z"
		/>
</g>
<path fill="#6495FB" d="M418.5,626.7c-1.5,6.5-2.6,11.3-3.5,15.3l-0.8,3.5l2.9-3.1c4-4.2,8.3-8.9,13-13.9l1.4-1.5l-12.8-1.3
	L418.5,626.7z"/>
<path fill="#6495FB" d="M397.3,694.3c-6.5-3.2-10.8-7.5-12.8-12.6l-0.7-1.9l-1,1.8c-0.6,1-1.3,2-2,3.2l-0.3,0.5
	c-1.2,1.8-2.5,3.8-4.1,6.4c-5.3,8.6-7.9,15.9-8,22.2v0.6l0.5,0.3c2,1.2,6.2,2.9,14.3,2.9c3.7,0,8.2-0.3,13.6-1.2
	c7.4-1.2,12.7-2.3,18-3.4l1-0.2l-0.2-1C415.2,710.9,413.1,702.2,397.3,694.3z"/>
<path fill="#6495FB" d="M282.1,369.3l-0.4-0.2l-0.4,0.1c-0.3,0.1-0.6,0.1-0.9,0.1h-0.2l-0.2,0.1c-0.7,0.2-3.4,1.5-7.7,7.8
	c-4.4,6.6-4.3,9.6-4.2,10.4l0.1,0.3c0.1,0.1,0.1,0.2,0.1,0.4l0.2,0.6l0.6,0.1c8.3,1.9,22.6,4.3,43.9,4.9c7.8,0.2,14,0.3,19,0.3
	c7.5,0,12.2-0.2,15.1-0.4l0.8-0.1l1.8-8.9l-1.1-0.1C331,383.4,298,376.4,282.1,369.3z"/>
<path fill="#6495FB" d="M285.7,343.9c6.5-10.8,11.8-21.5,16.4-31c6.2-12.7,11.6-23.7,18.3-31.7l0.2-0.3v-0.1
	c1.5-2.4,5.4-9.7,1.8-15.6c-2.4-3.9-10.4-9.2-19.8-11.3c-6.1-1.4-11.3-1-14.5,1c-2.2,1.4-4.9,4.2-8,8.3
	c-8.4,11.2-19.1,31.1-25.4,47.5c-4.7,12.1-11.9,21.1-18.3,29.1c-4.2,5.2-7.8,9.7-10,14.3c-0.4,0.9-0.8,1.8-1.2,2.8
	c-4.6,12-4.1,28,6,34c2.5,1.5,5.2,2.1,7.9,2.1c8.2,0,16.1-5.7,18-7.1l0.2-0.2c5.7-7.6,11.5-15.9,16.9-24
	C278.3,355.7,282.2,349.7,285.7,343.9z M303.1,296.4L303.1,296.4l-0.2,0.4l-0.1,0.2c-7.4,17.2-17.1,35.8-21.5,38
	c-0.3,0.1-0.6,0.2-0.9,0.2c0,0-0.1,0-0.2,0c-7.1-0.6-20.5-7-23.1-13.5c-0.2-0.4-0.2-0.9,0-1.4c3.1-9.2,12.7-27.6,17.8-37.5l0.7-1.3
	c0.4-0.8,0.8-1.6,1.1-2.2l0.1-0.3l0,0c0.1-0.1,0.1-0.2,0.2-0.3l0.1-0.3c0.4-0.7,1.1-1.1,1.9-1.1h0.1h0.1c0.3,0,0.6,0,0.9,0.1
	c0.8,0.3,18.6,7.3,24,13.6c0.5,0.6,0.6,1.4,0.3,2.1l0,0C304.1,294,303.6,295.2,303.1,296.4z"/>
<path fill="#6495FB" d="M282.2,282.6l-1.6-0.7l0.2,1.7c0.4,3.2,1.7,10.8,5.6,13.1l0.2,0.1c0.9,0.2,1.8,0.3,2.8,0.3
	c4,0,8.3-1.8,9.7-2.4l0.4-0.2l0.8-1.9l-0.6-0.5C295.3,288.5,286,284.2,282.2,282.6z"/>
<path fill="#6495FB" d="M285.2,300.6c-0.1,0-0.2-0.1-0.3-0.1c-4-2-6-7-7-10.8l-0.7-2.6l-1.2,2.3c-4.9,9.5-11.7,23.1-14.6,30.9
	l-0.2,0.5l0.3,0.4c2.6,3.9,11.7,8.8,17.9,9.8l0.5,0.1l0.4-0.4c3-2.9,9.9-15.4,16.1-29l0.9-1.9l-2,0.5
	C291.5,301.4,288,301.4,285.2,300.6z"/>
<path fill="#6495FB" d="M232.7,336.6c6.2-7.7,13.1-16.4,17.5-27.8c4.4-11.5,13.4-30.1,22.7-43.8l1-1.4l-1.7-0.1
	c-1.3-0.1-2.7-0.2-4.1-0.2c-3.4,0-8,0.4-10.6,2.2c-1.4,1-4.2,4.3-12.1,21.6c-2.3,5-4.5,10.1-6.3,14.2l-0.9,1.8
	c-2.1,4.8-3.9,8.9-5.3,12c-0.3,0.7-0.7,1.4-1,2c-0.9,1.7-1.9,3.6-3,5.5l-0.2,0.4c-5,8.8-11.1,19.8-7.9,27.6l0.8,1.9l1-1.8
	C225.2,346,229,341.2,232.7,336.6z"/>
<path fill="#6495FB" d="M232.8,291.4c-4.2,7.6-6.5,14.4-6,18c0.1,0.8,0.4,1.4,0.8,1.9l1,1l0.6-1.3c1.2-2.6,2.6-5.9,4.1-9.4l0.5-1.2
	c1.5-3.4,3.4-7.9,5.2-12l0.8-1.7L238,287C236,287.4,234.2,288.9,232.8,291.4z"/>
<path fill="#6495FB" d="M224.6,320l-3,1.7c-3.1,1.7-6.2,3-9.2,3.9l-2,0.6l1.7,1.2c2.3,1.6,4.9,2.4,6.2,2.8l0.8,0.2l0.4-0.7
	c1.1-2.4,2.4-4.6,3.4-6.6L224.6,320z"/>
<path fill="none" stroke="#000000" stroke-width="4" stroke-linecap="round" stroke-linejoin="round" stroke-miterlimit="10" d="
	M435.8,134.4c3.9,2.3-1.4,9.3-3.9,7s2.1-8.4,4-6.7c1.9,1.7-1.9,4.7-1.9,4.7s-0.7-0.2-0.8-0.3c0-0.1,0.3-2.3,0.5-2.5s1.1-0.5,1.1-0.5
	l-0.6,1.4"/>
<path fill="none" stroke="#000000" stroke-width="6" stroke-linecap="round" stroke-linejoin="round" stroke-miterlimit="10" d="
	M435.1,147.9c-1.5,5.5-24.2,8.6-28.5,2.4s-6-34.6,9.4-49.6c13.5-12.5,21.2-1.9,21.2,12.6S437.1,142.2,435.1,147.9z"/>
<path fill="none" stroke="#000000" stroke-width="4" stroke-linecap="round" stroke-linejoin="round" stroke-miterlimit="10" d="
	M417.6,99.3c0.4-1,8.1-8.6,10.4-15.5c-3.1,8.6-5.2,12.2-5.2,12.2"/>
<path fill="none" stroke="#000000" stroke-width="4" stroke-linecap="round" stroke-linejoin="round" stroke-miterlimit="10" d="
	M433.6,98.1c0,0,5.5-0.9,9.2-5.9c-2.7,5.1-8.1,8.7-8.1,8.7"/>
<path fill="none" stroke="#000000" stroke-width="4" stroke-linecap="round" stroke-linejoin="round" stroke-miterlimit="10" d="
	M437.6,108.3c0,0,2.9-2.3,6.8-6.1c-4.9,4.2-7.8,4.3-7.8,4.3"/>
<path fill="none" stroke="#000000" stroke-width="6" stroke-linecap="round" stroke-linejoin="round" stroke-miterlimit="10" d="
	M418.5,71.8c0,0,6.1-7.4,11.9-3.4"/>
<path fill="none" stroke="#000000" stroke-width="7" stroke-linecap="round" stroke-linejoin="round" stroke-miterlimit="10" d="
	M438,124.4c0,0,4.2,10,14.8,17.3c10.6,7.4,17.4,14.1,17.5,24.9s-8.8,22.1-21.4,25"/>
<path fill="none" stroke="#000000" stroke-width="7" stroke-linecap="round" stroke-linejoin="round" stroke-miterlimit="10" d="
	M447.7,188.2c0,0-3.4,13.4-4.5,26.7c-1.1,13.3-16.5,29.6-24.3,34.2"/>
<path fill="none" stroke="#000000" stroke-width="6" stroke-linecap="round" stroke-linejoin="round" stroke-miterlimit="10" d="
	M414.3,213.9c0,0,6.4,15.3,22.9,12.6"/>
<path fill="none" stroke="#000000" stroke-width="7" stroke-linecap="round" stroke-linejoin="round" stroke-miterlimit="10" d="
	M358,152.9c0,0-12.4-11.4-22.7,2.7c-10.3,14-2.6,44.6,15.4,41.4"/>
<path fill="none" stroke="#000000" stroke-width="6" stroke-linecap="round" stroke-linejoin="round" stroke-miterlimit="10" d="
	M347.5,165c0,0,7.5,6.3,9.6,17.7"/>
<path fill="none" stroke="#000000" stroke-width="7" stroke-linecap="round" stroke-linejoin="round" stroke-miterlimit="10" d="
	M390.1,212.1c5,17.7,27.1,37.8,27.1,37.8s1.3,5.2-3.7,2.4s-23.5-13-33.2-34.6"/>
<path fill="none" stroke="#000000" stroke-width="7" stroke-linecap="round" stroke-linejoin="round" stroke-miterlimit="10" d="
	M378.7,214.8l12.5-6.4c0,0-1.5-11.4-5.2-16.3c-11.1,2.6-17.1,5.9-18.4,7.7c-1.3,1.8,3.8,16.1,10.1,15.1"/>
<path fill="none" stroke="#000000" stroke-width="7" stroke-linecap="round" stroke-linejoin="round" stroke-miterlimit="10" d="
	M352.9,191.6c-0.1-2.1,10.1-2.7,11,1.4s2.2,15.7,1.4,18.1s-10.2,2.4-11.2,0.1C353.1,209,353.1,194.9,352.9,191.6z"/>
<path fill="none" stroke="#000000" stroke-width="7" stroke-linecap="round" stroke-linejoin="round" stroke-miterlimit="10" d="
	M381.6,192.1c0,0-4.6-23-4.8-47.1s2.4-39,2.4-39"/>
<path fill="none" stroke="#000000" stroke-width="7" stroke-linecap="round" stroke-linejoin="round" stroke-miterlimit="10" d="
	M367.9,196.7c0,0-4.7-13.5-7.9-41.5s-1.4-39.1-1.4-39.1"/>
<path fill="none" stroke="#000000" stroke-width="7" stroke-linecap="round" stroke-linejoin="round" stroke-miterlimit="10" d="
	M408.8,251c0,0-2.1,3.9-12.5,5.8c-10.4,1.9-18.4,4.1-28.1,21.7"/>
<path fill="none" stroke="#000000" stroke-width="7" stroke-linecap="round" stroke-linejoin="round" stroke-miterlimit="10" d="
	M347.7,268.6c0,0,8.2-8.6,10-20.7c1.8-12.1-5.4-19.4-5.4-19.4"/>
<path fill="none" stroke="#000000" stroke-width="7" stroke-linecap="round" stroke-linejoin="round" stroke-miterlimit="10" d="
	M308.8,144c0.6,0,15.9-1.9,36.8-19.6c20.9-17.7,33.6-21.3,49.9-24.6c16.3-3.4,44.7-2,48.8-27.4s-39.7-44-79.1-33.1
	c-39.4,10.9-59.6,34.3-73.7,59.1"/>
<path fill="none" stroke="#000000" stroke-width="7" stroke-linecap="round" stroke-linejoin="round" stroke-miterlimit="10" d="
	M291.8,97.9c-10.3,16.1-6,34.6-6,34.6"/>
<path fill="none" stroke="#000000" stroke-width="6" stroke-linecap="round" stroke-linejoin="round" stroke-miterlimit="10" d="
	M387.2,44.7c0,0,15,0.6,14.2,7.1s-13.3,7.5-46.2,11s-53.1,19-63.4,35.1"/>
<path fill="none" stroke="#000000" stroke-width="6" stroke-linecap="round" stroke-linejoin="round" stroke-miterlimit="10" d="
	M381.6,59.9c19.3-5.1,12.1-14.2,12.1-14.2l4.1,5.8l-1.7,2.2"/>
<path fill="none" stroke="#000000" stroke-width="7" stroke-linecap="round" stroke-linejoin="round" stroke-miterlimit="10" d="
	M316.6,169.4c0,0-1.9-25.7-22.6-33.3s-36.6,15.8-24.1,29c-21.7,7.8-26.4,43,11.1,41c-23.6,15.7,1,31.1,29,22.3
	c-12.6,10,12,19.9,26.6,10.5c14.6-9.3,27.4-27.3,34.5-28.4"/>
<path fill="none" stroke="#000000" stroke-width="7" stroke-linecap="round" stroke-linejoin="round" stroke-miterlimit="10" d="
	M341.5,236.6c0,0,0.5,4,5.6,4.3s9.8-4.3,9.8-4.3l-4-4l-4.6,3.2l4.6,1.3"/>
<path fill="none" stroke="#000000" stroke-width="7" stroke-linecap="round" stroke-linejoin="round" stroke-miterlimit="10" d="
	M284.2,113.5c0,0-10.3-1.7-15,7.5s2.9,17,2.9,17"/>
<line fill="none" stroke="#000000" stroke-width="5" stroke-linecap="round" stroke-linejoin="round" stroke-miterlimit="10" x1="323.1" y1="140.1" x2="335.1" y2="152.1"/>
<line fill="none" stroke="#000000" stroke-width="5" stroke-linecap="round" stroke-linejoin="round" stroke-miterlimit="10" x1="309.4" y1="146.5" x2="330.7" y2="165.5"/>
<path fill="none" stroke="#000000" stroke-width="5" stroke-linecap="round" stroke-linejoin="round" stroke-miterlimit="10" d="
	M300.8,138.1c-0.3,0.3,3.8-21.9,37-38.3c33.1-16.4,75.2-3.5,93.5-9.7"/>
<path fill="none" stroke="#000000" stroke-width="5" stroke-linecap="round" stroke-linejoin="round" stroke-miterlimit="10" d="
	M394.7,100c0,0-14.6,23.3-17.8,57.2"/>
<path fill="none" stroke="#000000" stroke-width="7" stroke-linecap="round" stroke-linejoin="round" stroke-miterlimit="10" d="
	M335.2,319.2c6.9,13,43.1,68.3,54,77.4c7-4.2,26.9-29.9,32-44.6c-12.6-6.6-51.2-48.1-65.2-63.3c-12.1-12.5-31,9.6-36.8,24.6
	s-8.6,30.6,6.9,31.3c11.4-0.1,17.7-7.8,17.7-7.8"/>
<path fill="none" stroke="#000000" stroke-width="7" stroke-linecap="round" stroke-linejoin="round" stroke-miterlimit="10" d="
	M418.1,359c1.5,1,55.5,44.9,66.3,47.9c18.8-1.7,47-2.8,54.9,0s17,12.6,18.5,21.7c1.5,9.1,1.3,14.2-2.2,18
	c-3.4,3.8-12.3,6.8-12.3,6.8"/>
<path fill="none" stroke="#000000" stroke-width="7" stroke-linecap="round" stroke-linejoin="round" stroke-miterlimit="10" d="
	M542.5,424.4c0,0.4,2.4,13.3,1.8,19.7s-5.4,11.2-6.8,14.9c-1.4,3.7-12,2.4-12,2.4"/>
<path fill="none" stroke="#000000" stroke-width="7" stroke-linecap="round" stroke-linejoin="round" stroke-miterlimit="10" d="
	M534.9,425.2c0,0-2.3,22.7-5.2,28.5c-2.9,5.7-7.7,10.1-14.9,8.6c-7.3-1.5-9.4-6.3-9.4-6.3"/>
<path fill="none" stroke="#000000" stroke-width="7" stroke-linecap="round" stroke-linejoin="round" stroke-miterlimit="10" d="
	M400.1,388c0.8,0.4,34.9,19.3,53,27.2c12.4,5.9,18.4,5.9,23.4,10.6c5,4.7,21.6,1.9,28.8,2.2c7.2,0.4,9.7,0.8,10.9,1.3"/>
<path fill="none" stroke="#000000" stroke-width="7" stroke-linecap="round" stroke-linejoin="round" stroke-miterlimit="10" d="
	M404.6,380.1c0,0-0.7,10,6.1,13.7c-9.6-5.2-7.1-6.8-7.1-6.8"/>
<path fill="none" stroke="#000000" stroke-width="7" stroke-linecap="round" stroke-linejoin="round" stroke-miterlimit="10" d="
	M362.2,363.5c0,0-4.2,12-5,18.8c-9.2,2.2-67.1-8.8-80.6-18.8"/>
<line fill="none" stroke="#000000" stroke-width="7" stroke-linecap="round" stroke-linejoin="round" stroke-miterlimit="10" x1="352.5" y1="383.7" x2="350.3" y2="394.4"/>
<path fill="none" stroke="#000000" stroke-width="7" stroke-linecap="round" stroke-linejoin="round" stroke-miterlimit="10" d="
	M259.8,389.1c0,0,16,6.3,53.1,7.4s40.3-1,40.3-1l-2.9,23.1c0,0-29,7.7-62.3,3.6c-33.3-4.1-42.8-10.2-46.5-13.3
	c1.9-0.3,26.6-31.3,46.2-63.7c19.7-32.4,26.9-62.3,46.6-72.3c19.7-9.9,40.1,9.1,33.8,27.7"/>
<path fill="none" stroke="#000000" stroke-width="7" stroke-linecap="round" stroke-linejoin="round" stroke-miterlimit="10" d="
	M262.8,417.8l-4.4,8.4c0,0,39.4,6.9,60.6-2.9"/>
<path fill="none" stroke="#000000" stroke-width="7" stroke-linecap="round" stroke-linejoin="round" stroke-miterlimit="10" d="
	M266,389.1c0,0-2.2-3.5,4.3-13.1s10.1-9,10.1-9"/>
<polyline fill="none" stroke="#000000" stroke-width="4" stroke-linecap="round" stroke-linejoin="round" stroke-miterlimit="10" points="
	346.9,341.4 338.4,369.7 284.3,366.9 "/>
<polyline fill="none" stroke="#000000" stroke-width="4" stroke-linecap="round" stroke-linejoin="round" stroke-miterlimit="10" points="
	354.8,353.1 349.3,371 359.7,371.4 "/>
<path fill="none" stroke="#000000" stroke-width="4" stroke-linecap="round" stroke-linejoin="round" stroke-miterlimit="10" d="
	M247.9,402.1c0,0,32.6,13.1,103.5,6.6"/>
<path fill="none" stroke="#000000" stroke-width="7" stroke-linecap="round" stroke-linejoin="round" stroke-miterlimit="10" d="
	M322.4,282.8c0.1-0.2,7.4-10.4,2.2-18.9c-5.2-8.5-27.6-17.7-37.8-11.1c-10.2,6.6-26.8,37.3-34.3,57c-7.6,19.6-22.4,31.3-28.2,43.2
	c-5.8,11.9-7.4,32.3,5.7,40.1c13.1,7.9,29.2-5.5,29.2-5.5"/>
<path fill="none" stroke="#000000" stroke-width="7" stroke-linecap="round" stroke-linejoin="round" stroke-miterlimit="10" d="
	M276.8,261.6c0,0-14.3-2.7-20.9,1.9s-20.7,41.6-26.2,52.4s-18.8,28.8-8.5,39.6"/>
<path fill="none" stroke="#000000" stroke-width="6" stroke-linecap="round" stroke-linejoin="round" stroke-miterlimit="10" d="
	M242.1,285.5c-0.3-0.1-6.7-2.9-11,4.9c-4.3,7.8-6.8,15-6.2,19.2s4.4,4.4,4.4,4.4s-10.3,9-22.2,10.7c3.3,6.1,12.4,7.7,12.4,7.7"/>
<path fill="none" stroke="#000000" stroke-width="6" stroke-linecap="round" stroke-linejoin="round" stroke-miterlimit="10" d="
	M279.4,279.2c0,0,18.2,7.2,23.3,13c-6.7,16.6-18.1,38.9-22.2,40.9c-6.9-0.6-19.2-6.9-21.4-12.3c3.6-10.6,16.4-34.7,19.9-41.6"/>
<path fill="none" stroke="#000000" stroke-width="6" stroke-linecap="round" stroke-linejoin="round" stroke-miterlimit="10" d="
	M278.6,280.1c0,0,0.3,15,7.2,18.6c6.5,2,15.3-2.6,15.3-2.6"/>
<polyline fill="none" stroke="#000000" stroke-width="6" stroke-linecap="round" stroke-linejoin="round" stroke-miterlimit="10" points="
	326.8,267.6 346.9,267.9 329.3,272.5 329.2,270.7 330.1,270.4 "/>
<path fill="none" stroke="#000000" stroke-width="7" stroke-linecap="round" stroke-linejoin="round" stroke-miterlimit="10" d="
	M351.1,417.8c0,0,75.8,15.2,102.1,40.9c0.6,17.2-18.8,61.3-18.8,61.3"/>
<path fill="none" stroke="#000000" stroke-width="7" stroke-linecap="round" stroke-linejoin="round" stroke-miterlimit="10" d="
	M345.4,432.6c0,0,82.1,70.9,90.2,93.6c0.8,27.6-24.9,114.7-25.3,128.9"/>
<path fill="none" stroke="#000000" stroke-width="7" stroke-linecap="round" stroke-linejoin="round" stroke-miterlimit="10" d="
	M263.7,428c0,0,2.4,16.7,14.7,31.5s21.4,12,33.1,23.9s59.6,45.3,75.7,50.4c-4.3,18.5-2.7,60.9-2.2,78.4s2.7,37.4,1.1,42.3"/>
<path fill="none" stroke="#000000" stroke-width="6" stroke-linecap="round" stroke-linejoin="round" stroke-miterlimit="10" d="
	M386,593.8c0,0,4.9,4.6,19.5,5.1s17.9-3.6,17.9-3.6"/>
<path fill="none" stroke="#000000" stroke-width="6" stroke-linecap="round" stroke-linejoin="round" stroke-miterlimit="10" d="
	M392.8,476c0,0,14.3,3.5,20.4,8.8"/>
<path fill="none" stroke="#000000" stroke-width="7" stroke-linecap="round" stroke-linejoin="round" stroke-miterlimit="10" d="
	M385.2,655.1c0,0,3.5,3.8,12.4,4s12.5-2,12.5-2s2.6,1.7,1.2,8.2c-1.3,6.5-3.4,8.9-8.7,9.4c-5.4,0.5-19.2,0.4-21-6.4
	C380,661.5,381.1,652.6,385.2,655.1z"/>
<path fill="none" stroke="#000000" stroke-width="7" stroke-linecap="round" stroke-linejoin="round" stroke-miterlimit="10" d="
	M411.1,669.9c0,0,4.9,8.1,30.8,7.5c25.9-0.7,45.4,1.4,48.8,16.4c6.6,2,4.5,18.7,0,20.6c-4.5,1.9-11.6,7.6-43.6,8.9
	c-32,1.3-23,5.1-43.9,8.9c-20.9,3.8-31.2,2.6-35.8-8.3c-4.6-10.9,0.1-22.9,6.5-33.4s9-12.4,9-18.7"/>
<path fill="none" stroke="#000000" stroke-width="5" stroke-linecap="round" stroke-linejoin="round" stroke-miterlimit="10" d="
	M366.2,714.7c0,0,5.2,7.3,30.6,3.3c25.5-4,27.8-7.4,52.4-6.7c24.6,0.7,40.4-10.1,41.6-17.5"/>
<path fill="none" stroke="#000000" stroke-width="5" stroke-linecap="round" stroke-linejoin="round" stroke-miterlimit="10" d="
	M384.8,674.9c0,0-1.5,10.7,13.1,18s19,16.2,19.1,19.7"/>
<path fill="none" stroke="#000000" stroke-width="5" stroke-linecap="round" stroke-linejoin="round" stroke-miterlimit="10" d="
	M407.8,673.1c0,0,1.9,7.8,14.7,12.9c12.7,5.1,32.7,6.3,32-8.1"/>
<path fill="none" stroke="#000000" stroke-width="5" stroke-linecap="round" stroke-linejoin="round" stroke-miterlimit="10" d="
	M473.4,679.8c0,0,3.2,8.2-7.4,12.7s-7.9,16.7-7.9,16.7"/>
<path fill="none" stroke="#000000" stroke-width="7" stroke-linecap="round" stroke-linejoin="round" stroke-miterlimit="10" d="
	M505.3,428c15.2-0.9,17.8,23,1,23.6S492.8,428.9,505.3,428z"/>
<path fill="none" stroke="#000000" stroke-width="7" stroke-linecap="round" stroke-linejoin="round" stroke-miterlimit="10" d="
	M495.5,479c0,0-4.9-8.3-7.5-15.8s-1-12.6,3-13.5c3.9-0.8,7.6,1.8,11.8,11.4s5.7,13.1,5.7,13.1"/>
<line fill="none" stroke="#000000" stroke-width="7" stroke-linecap="round" stroke-linejoin="round" stroke-miterlimit="10" x1="489.4" y1="450.4" x2="496.6" y2="447.4"/>
<polyline fill="none" stroke="#000000" stroke-width="7" stroke-linecap="round" stroke-linejoin="round" stroke-miterlimit="10" points="
	500.3,499.6 492.1,482.9 514.4,472.1 521.9,488.7 500.7,499.6 "/>
<path fill="none" stroke="#000000" stroke-width="7" stroke-linecap="round" stroke-linejoin="round" stroke-miterlimit="10" d="
	M515.9,492.9c0,0,86,179.3,88.2,184.7s-5.8,12.3-10.3,6.4c-4.5-5.8-66-135.3-66-135.3L412.7,669.3"/>
<path fill="none" stroke="#000000" stroke-width="7" stroke-linecap="round" stroke-linejoin="round" stroke-miterlimit="10" d="
	M410.4,653.3c0,0,108.3-115.7,110.1-118.1c1.7-2.5-0.2-5.3-3.6-4.6c-3.4,0.6-81.8,11.4-81.8,11.4"/>
<path fill="none" stroke="#000000" stroke-width="7" stroke-linecap="round" stroke-linejoin="round" stroke-miterlimit="10" d="
	M436.3,528.7c0,0,73.6-8.9,75.2-10.3c1.6-1.4-7.9-19.5-7.9-19.5"/>
<path fill="none" stroke="#000000" stroke-width="7" stroke-linecap="round" stroke-linejoin="round" stroke-miterlimit="10" d="
	M596.3,658.4c0,0,16.5-5.3,22.3,12.6c5.8,17.9-11.2,37-31.5,27c-17.8-11.8-9.1-31.7-4-33.5"/>
<path fill="none" stroke="#000000" stroke-width="7" stroke-linecap="round" stroke-linejoin="round" stroke-miterlimit="10" d="
	M556.9,574.3c0,0,60.2-26.8,112.9,17.5s56.2,131.3-4.6,175.7S516.7,787.3,492,713.3"/>
<path fill="none" stroke="#000000" stroke-width="7" stroke-linecap="round" stroke-linejoin="round" stroke-miterlimit="10" d="
	M485.4,684.8c0,0-3.9-70.6,57.4-104.5"/>
<path fill="none" stroke="#000000" stroke-width="7" stroke-linecap="round" stroke-linejoin="round" stroke-miterlimit="10" d="
	M566.7,595.8c0,0,54.8-22.4,96.1,23c41.4,45.4,22.6,124.9-35,141.1c-57.6,16.2-109.7-11.9-117.4-76.4c-4.6-41.4,25.2-73.6,42.8-81.3
	"/>
<path fill="none" stroke="#000000" stroke-width="4" stroke-linecap="round" stroke-linejoin="round" stroke-miterlimit="10" d="
	M562.1,587.5c0,0,61.3-26.4,109.5,23.8s26.2,155.8-61.9,163.5s-111.8-69.4-109.5-106.5c2.8-43.5,39.8-70.9,48.7-75.2"/>
<polyline fill="none" stroke="#000000" stroke-width="4" stroke-linecap="round" stroke-linejoin="round" stroke-miterlimit="10" points="
	538.1,584 549.4,600.5 539.7,584.3 "/>
<line fill="none" stroke="#000000" stroke-width="4" stroke-linecap="round" stroke-linejoin="round" stroke-miterlimit="10" x1="572.6" y1="593.8" x2="586.6" y2="640.5"/>
<line fill="none" stroke="#000000" stroke-width="4" stroke-linecap="round" stroke-linejoin="round" stroke-miterlimit="10" x1="607.8" y1="590.2" x2="601" y2="655.8"/>
<line fill="none" stroke="#000000" stroke-width="4" stroke-linecap="round" stroke-linejoin="round" stroke-miterlimit="10" x1="642.9" y1="603" x2="611.4" y2="656.9"/>
<line fill="none" stroke="#000000" stroke-width="4" stroke-linecap="round" stroke-linejoin="round" stroke-miterlimit="10" x1="666" y1="625.5" x2="618.4" y2="665.3"/>
<line fill="none" stroke="#000000" stroke-width="4" stroke-linecap="round" stroke-linejoin="round" stroke-miterlimit="10" x1="681.2" y1="656.9" x2="621.1" y2="673.3"/>
<line fill="none" stroke="#000000" stroke-width="4" stroke-linecap="round" stroke-linejoin="round" stroke-miterlimit="10" x1="682.9" y1="688.8" x2="619.1" y2="683.6"/>
<path fill="none" stroke="#000000" stroke-width="4" stroke-linecap="round" stroke-linejoin="round" stroke-miterlimit="10" d="
	M673,721.4c-0.6-0.6-54.6-31.7-54.6-31.7"/>
<path fill="none" stroke="#000000" stroke-width="4" stroke-linecap="round" stroke-linejoin="round" stroke-miterlimit="10" d="
	M653,745.7c-0.5-0.5-41-48.9-41-48.9"/>
<path fill="none" stroke="#000000" stroke-width="4" stroke-linecap="round" stroke-linejoin="round" stroke-miterlimit="10" d="
	M620.3,760.2c-0.4-0.8-15.3-58.9-15.3-58.9"/>
<line fill="none" stroke="#000000" stroke-width="4" stroke-linecap="round" stroke-linejoin="round" stroke-miterlimit="10" x1="589.3" y1="762.5" x2="595.9" y2="701.8"/>
<line fill="none" stroke="#000000" stroke-width="4" stroke-linecap="round" stroke-linejoin="round" stroke-miterlimit="10" x1="558.3" y1="754.3" x2="589.3" y2="700.8"/>
<line fill="none" stroke="#000000" stroke-width="4" stroke-linecap="round" stroke-linejoin="round" stroke-miterlimit="10" x1="531.3" y1="733.6" x2="580.5" y2="694.9"/>
<line fill="none" stroke="#000000" stroke-width="4" stroke-linecap="round" stroke-linejoin="round" stroke-miterlimit="10" x1="515.5" y1="703.6" x2="574.7" y2="686.2"/>
<line fill="none" stroke="#000000" stroke-width="4" stroke-linecap="round" stroke-linejoin="round" stroke-miterlimit="10" x1="511" y1="669.9" x2="574.7" y2="677.9"/>
<line fill="none" stroke="#000000" stroke-width="4" stroke-linecap="round" stroke-linejoin="round" stroke-miterlimit="10" x1="519.5" y1="637.1" x2="579.2" y2="668.7"/>
<line fill="none" stroke="#000000" stroke-width="4" stroke-linecap="round" stroke-linejoin="round" stroke-miterlimit="10" x1="542.8" y1="608.1" x2="579.3" y2="655.8"/>
<line fill="none" stroke="#000000" stroke-width="6" stroke-linecap="round" stroke-linejoin="round" stroke-miterlimit="10" x1="416.7" y1="623.6" x2="435.6" y2="625.5"/>
<path fill="none" stroke="#000000" stroke-width="6" stroke-linecap="round" stroke-linejoin="round" stroke-miterlimit="10" d="
	M452.7,628.4c0,0,15.5,3.1,16.9,12.6c4.7,1.1,3.5,10.8-1.5,12.5c-5.1,1.7-49.3,9.2-49.3,9.2"/>
<path fill="none" stroke="#000000" stroke-width="4" stroke-linecap="round" stroke-linejoin="round" stroke-miterlimit="10" d="
	M432,649c0,0,27.1-2.2,38.1-7.8"/>
<path fill="none" stroke="#000000" stroke-width="5" stroke-linecap="round" stroke-linejoin="round" stroke-miterlimit="10" d="
	M479.3,611.6c0,0,7,2.3,10.6,12"/>
<path fill="none" stroke="#000000" stroke-width="7" stroke-linecap="round" stroke-linejoin="round" stroke-miterlimit="10" d="
	M276,456.5c0,0-17-1.4-23.2,13.5c-6.1,14.9,2.2,26.3,14.6,26.4c12.4,0.1,47.5-8.8,47.5-8.8"/>
<path fill="none" stroke="#000000" stroke-width="7" stroke-linecap="round" stroke-linejoin="round" stroke-miterlimit="10" d="
	M303,476.7c0,0,3,11.9-4,14.7c11.4-3.3,7.5-7.3,7.5-7.3"/>
<line fill="none" stroke="#000000" stroke-width="7" stroke-linecap="round" stroke-linejoin="round" stroke-miterlimit="10" x1="301.2" y1="491.9" x2="308.9" y2="516.8"/>
<line fill="none" stroke="#000000" stroke-width="7" stroke-linecap="round" stroke-linejoin="round" stroke-miterlimit="10" x1="315.3" y1="489.2" x2="322.8" y2="511.6"/>
<path fill="none" stroke="#000000" stroke-width="7" stroke-linecap="round" stroke-linejoin="round" stroke-miterlimit="10" d="
	M306.3,519.2c0,0,18.3-7.3,20.8-7.1c2.6,0.2,5.7,11.4,5.3,13.1s-15.4,7.5-19.7,7.5C308.7,532.2,305.9,520.8,306.3,519.2z"/>
<line fill="none" stroke="#000000" stroke-width="7" stroke-linecap="round" stroke-linejoin="round" stroke-miterlimit="10" x1="303.7" y1="493.6" x2="314.9" y2="491"/>
<path fill="none" stroke="#000000" stroke-width="7" stroke-linecap="round" stroke-linejoin="round" stroke-miterlimit="10" d="
	M329.4,528.2c0,0,4.8,13.2,5.9,14.1c1.1,0.9,41.2-3.6,49.3-5.2"/>
<path fill="none" stroke="#000000" stroke-width="7" stroke-linecap="round" stroke-linejoin="round" stroke-miterlimit="10" d="
	M381.4,538.5l1.1,11.7c0,0-9.5,4.2-41.8,6.8c5.2,13.3,37.8,92.7,37.8,92.7"/>
<path fill="none" stroke="#000000" stroke-width="7" stroke-linecap="round" stroke-linejoin="round" stroke-miterlimit="10" d="
	M315.3,533.6l7.5,18.2c0,0-99.2,115-104.2,118.7s-3.7,11,3.9,11.3c7.7,0.3,123.1,6.6,123.1,6.6"/>
<path fill="none" stroke="#000000" stroke-width="7" stroke-linecap="round" stroke-linejoin="round" stroke-miterlimit="10" d="
	M383.1,650.8c-0.1-0.2-17-2.7-29.3,15s-2.7,43.9,10.3,47.2"/>
<polyline fill="none" stroke="#000000" stroke-width="7" stroke-linecap="round" stroke-linejoin="round" stroke-miterlimit="10" points="
	363.1,653.8 328.5,565.1 233.9,670.8 346.6,677.8 "/>
<path fill="none" stroke="#000000" stroke-width="5" stroke-linecap="round" stroke-linejoin="round" stroke-miterlimit="10" d="
	M379.3,661.4c0,0-15.4,4.3-16.1,14.4c2.3,2.9,17.8,4,17.8,4"/>
<line fill="none" stroke="#000000" stroke-width="5" stroke-linecap="round" stroke-linejoin="round" stroke-miterlimit="10" x1="373" y1="678.9" x2="368.5" y2="666.9"/>
<line fill="none" stroke="#000000" stroke-width="5" stroke-linecap="round" stroke-linejoin="round" stroke-miterlimit="10" x1="369.9" y1="668.6" x2="379.1" y2="664.2"/>
<path fill="none" stroke="#000000" stroke-width="5" stroke-linecap="round" stroke-linejoin="round" stroke-miterlimit="10" d="
	M373.6,687.6c-0.8-0.6-10.2-0.8-12-0.4c-1.8,0.4-3.7,6.4,4.6,14.8"/>
<path fill="none" stroke="#000000" stroke-width="5" stroke-linecap="round" stroke-linejoin="round" stroke-miterlimit="10" d="
	M348.1,637.1c0,0-10.4,11.8-6.1,24.3"/>
<path fill="none" stroke="#000000" stroke-width="5" stroke-linecap="round" stroke-linejoin="round" stroke-miterlimit="10" d="
	M339.4,717.3c0,0,1.4,26.8,25.8,39.3c19.6,9.4,35.7,3.1,35.7,3.1"/>
<path fill="none" stroke="#000000" stroke-width="7" stroke-linecap="round" stroke-linejoin="round" stroke-miterlimit="10" d="
	M430.4,725v9.4l38.8-0.3c0,0,5.6-1,5.1-12.3"/>
<path fill="none" stroke="#000000" stroke-width="7" stroke-linecap="round" stroke-linejoin="round" stroke-miterlimit="10" d="
	M226.1,660.2c0,0-16.2-5.7-27.4,8.4c-11.2,14.1,2.3,36.9,24.1,31.7c14.8-3.4,15.8-16.7,15.8-16.7"/>
<path fill="none" stroke="#000000" stroke-width="7" stroke-linecap="round" stroke-linejoin="round" stroke-miterlimit="10" d="
	M286.3,591.9c0,0-37.5-37.2-104.9-18.8S90.5,677.3,115.5,726c25,48.8,84,86.8,156.5,50c47.2-23.5,55.1-70.2,56.4-86.3"/>
<path fill="none" stroke="#000000" stroke-width="7" stroke-linecap="round" stroke-linejoin="round" stroke-miterlimit="10" d="
	M328.9,675.7c0,0,4.9-35.2-30.4-74.6"/>
<path fill="none" stroke="#000000" stroke-width="7" stroke-linecap="round" stroke-linejoin="round" stroke-miterlimit="10" d="
	M270.2,609.6c0,0-47.3-42.3-107.3,0c-57.2,45.5-28.8,123.1,2.1,140.2c29.6,19.2,76.3,25.9,110.5-6.2c29.4-28.6,29.3-57.4,29.3-57.4"
	/>
<path fill="none" stroke="#000000" stroke-width="7" stroke-linecap="round" stroke-linejoin="round" stroke-miterlimit="10" d="
	M304.8,674.9c0,0,4.2-26.2-23.7-56.9"/>
<path fill="none" stroke="#000000" stroke-width="4" stroke-linecap="round" stroke-linejoin="round" stroke-miterlimit="10" d="
	M279.1,601.1c0,0-48.8-38.7-106.1-10.3s-63.3,93.6-42.2,134.9c21.1,41.4,89.2,70.4,138.5,36s46.1-76,46.1-76"/>
<path fill="none" stroke="#000000" stroke-width="4" stroke-linecap="round" stroke-linejoin="round" stroke-miterlimit="10" d="
	M315.5,674.9c0,0,0-38.9-26.8-63.9"/>
<path fill="none" stroke="#000000" stroke-width="4" stroke-linecap="round" stroke-linejoin="round" stroke-miterlimit="10" d="
	M298.9,603.4c-0.2,0.3-14.5,16.1-14.5,16.1"/>
<line fill="none" stroke="#000000" stroke-width="4" stroke-linecap="round" stroke-linejoin="round" stroke-miterlimit="10" x1="262.8" y1="603.4" x2="233.9" y2="653.9"/>
<line fill="none" stroke="#000000" stroke-width="4" stroke-linecap="round" stroke-linejoin="round" stroke-miterlimit="10" x1="226.7" y1="591.4" x2="220.1" y2="658.2"/>
<line fill="none" stroke="#000000" stroke-width="4" stroke-linecap="round" stroke-linejoin="round" stroke-miterlimit="10" x1="192" y1="594.9" x2="211.2" y2="658.2"/>
<line fill="none" stroke="#000000" stroke-width="4" stroke-linecap="round" stroke-linejoin="round" stroke-miterlimit="10" x1="162.9" y1="609.6" x2="204.3" y2="662.3"/>
<line fill="none" stroke="#000000" stroke-width="4" stroke-linecap="round" stroke-linejoin="round" stroke-miterlimit="10" x1="140" y1="638.4" x2="198" y2="669.6"/>
<line fill="none" stroke="#000000" stroke-width="4" stroke-linecap="round" stroke-linejoin="round" stroke-miterlimit="10" x1="131" y1="670.6" x2="193.7" y2="678.1"/>
<line fill="none" stroke="#000000" stroke-width="4" stroke-linecap="round" stroke-linejoin="round" stroke-miterlimit="10" x1="135.5" y1="704" x2="194.6" y2="686.7"/>
<line fill="none" stroke="#000000" stroke-width="4" stroke-linecap="round" stroke-linejoin="round" stroke-miterlimit="10" x1="150.4" y1="735" x2="199.7" y2="694.6"/>
<line fill="none" stroke="#000000" stroke-width="4" stroke-linecap="round" stroke-linejoin="round" stroke-miterlimit="10" x1="177.7" y1="756.1" x2="208.1" y2="701.1"/>
<line fill="none" stroke="#000000" stroke-width="4" stroke-linecap="round" stroke-linejoin="round" stroke-miterlimit="10" x1="208.9" y1="764.8" x2="215.6" y2="701.1"/>
<path fill="none" stroke="#000000" stroke-width="4" stroke-linecap="round" stroke-linejoin="round" stroke-miterlimit="10" d="
	M240.2,762.4c-0.4-1.4-16.8-61.3-16.8-61.3"/>
<path fill="none" stroke="#000000" stroke-width="4" stroke-linecap="round" stroke-linejoin="round" stroke-miterlimit="10" d="
	M271.2,745.1c-0.1-0.4-40-47.4-40-47.4"/>
<path fill="none" stroke="#000000" stroke-width="4" stroke-linecap="round" stroke-linejoin="round" stroke-miterlimit="10" d="
	M291.2,722.8c-0.6-0.5-53.9-32.3-53.9-32.3"/>
<line fill="none" stroke="#000000" stroke-width="4" stroke-linecap="round" stroke-linejoin="round" stroke-miterlimit="10" x1="302.1" y1="657.4" x2="252.3" y2="672"/>
<line fill="none" stroke="#000000" stroke-width="4" stroke-linecap="round" stroke-linejoin="round" stroke-miterlimit="10" x1="286.3" y1="624.2" x2="245.2" y2="659.1"/>
<path fill="none" stroke="#000000" stroke-width="5" stroke-linecap="round" stroke-linejoin="round" stroke-miterlimit="10" d="
	M94,636.7c0,0-21.9,30.1-5.2,65.1"/>
<path fill="none" stroke="#000000" stroke-width="5" stroke-linecap="round" stroke-linejoin="round" stroke-miterlimit="10" d="
	M60.2,650.9c0,0-9.4,15.9,0.4,35.8"/>
<path fill="none" stroke="#000000" stroke-width="5" stroke-linecap="round" stroke-linejoin="round" stroke-miterlimit="10" d="
	M35.7,659.1c0,0-10,14.3,0,26"/>
<path fill="none" stroke="#000000" stroke-width="5" stroke-linecap="round" stroke-linejoin="round" stroke-miterlimit="10" d="
	M474,482.2c0,0-1.3,15.3-15.8,23.4"/>
<path fill="none" stroke="#000000" stroke-width="5" stroke-linecap="round" stroke-linejoin="round" stroke-miterlimit="10" d="
	M461.4,447.4c0,0,10,16-1.5,33.1"/>
<polyline fill="none" stroke="#000000" stroke-width="12" stroke-linecap="round" stroke-linejoin="round" stroke-miterlimit="10" stroke-opacity="0" points="
	351.3,216.1 326.8,235.8 318.3,233.3 312.1,232.6 345.6,210.4 345.6,204.7 308.6,221.7 298.8,223.2 336.9,199.8 333.2,196.7 
	290.4,225 280.9,221.5 330.1,192.5 328,186.5 278.6,218.6 285.6,207.5 325.9,180 323.8,171.5 277.5,201.1 267.1,199.4 322,167 
	314.5,159.5 263.5,194.2 260.7,188.6 308.1,158 306,151.3 260.1,181.4 272.2,167.5 299.5,147.8 294.8,142.2 271.7,158.5 
	272.5,147.4 284.9,141.2 "/>
<polyline fill="none" stroke="#000000" stroke-width="12" stroke-linecap="round" stroke-linejoin="round" stroke-miterlimit="10" stroke-opacity="0" points="
	280.4,128.6 276.7,129.9 275.9,124.4 278.9,119.5 "/>
<polyline fill="none" stroke="#000000" stroke-width="12" stroke-linecap="round" stroke-linejoin="round" stroke-miterlimit="10" stroke-opacity="0" points="
	336.8,146.1 343.7,141.2 352.4,143.6 350.8,133.4 332.6,141.2 331.6,139.8 350.2,127.1 352.9,122.7 "/>
<polyline fill="none" stroke="#000000" stroke-width="12" stroke-linecap="round" stroke-linejoin="round" stroke-miterlimit="10" stroke-opacity="0" points="
	386.3,105.9 380.7,123.9 398.1,106.4 411.5,102.7 407.3,111.7 384.7,135.2 380.7,148.5 399.7,126.9 402.9,135.2 383.7,154.7 
	385.4,164 406.5,146.5 416.4,147.6 384.7,173.2 386.7,184.7 436.7,138.1 443.7,141.2 391.2,191.6 394.7,200.2 451.7,145.7 
	456.4,151.3 395.7,208.4 398.3,215.6 460.6,157.2 464.1,164.7 402.4,220.4 404.6,224 462.3,171.3 454.2,182.7 443.5,190.7 
	438.8,199.6 408.2,228.5 411.1,233.7 440.1,208.7 436.1,220.4 421.6,236.8 416.7,242.9 414.3,238.2 "/>
<path fill="none" stroke="#000000" stroke-width="12" stroke-linecap="round" stroke-linejoin="round" stroke-miterlimit="10" stroke-opacity="0" d="
	M345.4,152.7l-12.3,14c0,0-0.6,11.6,0,11s19.1-22.7,19.1-22.7l2,6.6l-17.5,21.7l3.9,7l16.4-18.8l-0.6,13.1l-10.1,8.5"/>
<path fill="none" stroke="#000000" stroke-width="12" stroke-linecap="round" stroke-linejoin="round" stroke-miterlimit="10" stroke-opacity="0" d="
	M355.2,228.5l14.1-12.1l4.9,3.4L362.3,232l0.7,7.4l14.8-12.5l3.8,4.7L364.2,247l-7.1,12.8l29.1-24l2.3,5.2l-31.6,26.7l7.8,4.3
	l15.6-17.1l9.7-6.8l4-2.6l6.1,3.8c0,0-6.2,2.1-5.9,1.9"/>
<path fill="none" stroke="#000000" stroke-width="12" stroke-linecap="round" stroke-linejoin="round" stroke-miterlimit="10" stroke-opacity="0" d="
	M415.9,370.9l5.3-2.3l7.8,5.2l-19.4,8.7l6.9,7.9l19.6-10.3l5.2,3.9l-20,9.8l10,2.8c0,0,17.5-7,18-7s6.2,3.3,6.2,3.3
	s-20.4,7.7-19.8,7.7s6.7,3.9,6.7,3.9l15.2-5.4l5.8,1.8l-11.4,6.2l4.8,3.7l12.4-6.4l5.6,2.7l-12.2,6l5.4,2.8l9.5-3.6l11.7-1.2
	l-12.7,7.4l5,2.4c0,0,13.8-10.5,14.5-10.5s7.7-1.2,7.7-1.2l-17,13.7l10.6-0.6l19.6-13.5l10.4,1.4l-17.9,12.7l8.3,1.7
	c0,0,14.7-12.3,15.4-12.3s9.8,1.6,9.8,1.6l-24.3,18.7l0.9,7.9l27.8-19.1l4.9,6.8l-32.9,21.6c0,0-9.4,5.6-9.1,5.7
	c0.3,0.1,5.9,1.1,6.4,1s14.3-10.2,14.8-10.6s22.7-12.9,22.7-12.9l-4,10.1l-14.2,7.6c0,0-5.5,5.8-4.9,5.9"/>
<path fill="none" stroke="#000000" stroke-width="12" stroke-linecap="round" stroke-linejoin="round" stroke-miterlimit="10" stroke-opacity="0" d="
	M386,603.9c0,0,2.2-1.6,2.7-1.6s6,0.4,6,0.4l-8.8,11l1.7,6.2l15.1-15.1l9.8-0.7l-23.9,25.5l0.9,5.6l27.9-31.3l-10.4,23l-14.9,17.9
	c0,0-0.4,7.4,0,7.2s16.7-19.3,16.7-19.3l-2.6,13.5l-6.3,7.2l5.5-1.7"/>
<path fill="none" stroke="#000000" stroke-width="12" stroke-linecap="round" stroke-linejoin="round" stroke-miterlimit="10" stroke-opacity="0" d="
	M403.6,241.9c-0.3-0.6-14.3-13.4-14.3-13.4l-2.1-9.9v-13.3l-6.9,6.1l4.5-10.2c0,0-10.5,8.9-10.3,8.1c0.1-0.8,4.7-12.1,4.7-12.1
	s-7.9,6.6-8.1,6.3c-0.2-0.3,4.8-15.3,4.8-15.3l-5.4-3.5l4.1-7.9c0,0-6.2-0.4-6.1-0.8c0.1-0.4,4.6-10.5,4.6-10.5l-5.2,0.7l4.2-10.2
	l-8,3l10.4-17.2l-12.6,6.7l12.2-17.1l-13.4,5.3l10.5-10.8l-5.6,2.6l5-9.1l-11.2,3.2l17-13.3"/>
<path fill="none" stroke="#000000" stroke-width="12" stroke-linecap="round" stroke-linejoin="round" stroke-miterlimit="10" stroke-opacity="0" d="
	M334,153.2c0,0-7.5,8.2-6.9,7.2s2.7-10.3,2.7-10.3s-7.4,4.6-7.2,4.2s4.2-8.2,4.2-8.2l-12.1,3.3l-7.2-10.4l5.1-14.6l0.6,12.4l5.7-0.9
	l1.7-20.1l10.8-8.1l-3.1,26.9l8.9-6.8l1.8-23.9l10.9-3.1c0,0-6,19.1-5.8,18.6s7.9-5.4,7.9-5.4l1.7-14.6l7.9-2.9l-2.9,14.6l9-14.4
	l5.3,0.9l-1.3,6.7l5-5.5l11.4-2.1l13.2,0.9l7.5,0.3"/>
<polyline fill="none" stroke="#000000" stroke-width="18" stroke-linecap="round" stroke-linejoin="round" stroke-miterlimit="10" stroke-opacity="0" points="
	289.5,131.2 312.1,129.9 315.1,121.4 289.5,122.7 289.5,121.4 292.5,107.7 327,107.7 331.6,100 300.8,95.2 324.7,71.3 339.6,58.4 
	352.9,52.8 323.1,88.3 335.1,92.2 363,49.1 379.5,44.7 348.1,92.2 363,89.3 389.7,43.9 401.4,46.1 379.5,87.5 389.7,88.3 
	412.8,47.7 426.4,52.8 404.9,87.5 411.6,87.5 432.4,59.9 433.6,71.8 422.4,87.5 "/>
<polyline fill="none" stroke="#000000" stroke-width="18" stroke-linecap="round" stroke-linejoin="round" stroke-miterlimit="10" stroke-opacity="0" points="
	343.3,389.2 320.7,389.2 295.4,386.9 304.6,380.1 283.1,384.9 272.8,384.6 285.6,375.6 271.1,369.7 250.2,383.7 236,386.9 
	229.1,378 268.1,363.5 272.8,353.8 226.7,366.2 228.9,355.5 279.3,342.5 285,333.1 225.4,343.7 228,335.2 293,323 296.2,314.8 
	220.4,326.5 299.7,306.3 300.7,297.1 239.8,309.2 232.8,302.8 237.7,298 307.6,292 312.1,281.9 240.3,292 254,282.5 317.1,273.9 
	315.6,268.6 262.1,274.6 265.6,270.1 288.5,264.8 293,258.4 308.9,260.8 "/>
<polyline fill="none" stroke="#000000" stroke-width="18" stroke-linecap="round" stroke-linejoin="round" stroke-miterlimit="10" stroke-opacity="0" points="
	349.7,276 317.1,287.2 314.5,299.2 357,284.1 360,297.2 301.7,316.8 298.8,327.5 363,309.1 370.1,313.5 294.2,340.4 287.3,354.1 
	379.4,321.4 414.3,359.8 410.7,370.1 374.9,337.1 364.9,338.4 398.8,375.6 389.4,383.7 374.9,363.8 355.7,339.2 "/>
<polyline fill="none" stroke="#000000" stroke-width="18" stroke-linecap="round" stroke-linejoin="round" stroke-miterlimit="10" stroke-opacity="0" points="
	339.1,343.7 282,359 327.1,361.4 332.3,361.9 336.3,352 317.1,354.9 "/>
<polyline fill="none" stroke="#000000" stroke-width="6" stroke-linecap="round" stroke-linejoin="round" stroke-miterlimit="10" stroke-opacity="0" points="
	357,359.7 353.3,368.6 355.8,367.8 358.1,362.5 "/>
<polyline fill="none" stroke="#000000" stroke-width="12" stroke-linecap="round" stroke-linejoin="round" stroke-miterlimit="10" stroke-opacity="0" points="
	345.8,414.9 312.6,416 285.2,415.5 268.1,411.6 256.4,411.3 251.2,408.9 "/>
<line fill="none" stroke="#000000" stroke-width="12" stroke-linecap="round" stroke-linejoin="round" stroke-miterlimit="10" stroke-opacity="0" x1="288.7" y1="423.4" x2="268.1" y2="422.6"/>
<path fill="none" stroke="#000000" stroke-width="12" stroke-linecap="round" stroke-linejoin="round" stroke-miterlimit="10" stroke-opacity="0" d="
	M349.9,347.7l-9.3,8l-1.5,4.8l13.4-7.4l-2.2,9.2l-47.6,7.4l12.9,2.9l30.2-4l3.5,4l-18.6,2.8l22.5,0.9l-8.6,15.4l-0.9,12.7l-36.2-0.5
	c0,0-37.6-2.2-38.5-2.4s-14.1-1.8-14.1-1.8l3.4-4l19.4,0.3"/>
<path fill="none" stroke="#000000" stroke-width="12" stroke-linecap="round" stroke-linejoin="round" stroke-miterlimit="10" stroke-opacity="0" d="
	M278.4,428l-7.2,7.9l6,7.4l15.1-22.5l8.5,1l-21.1,30.9l7.6,7.4l22.6-37.1l8-2.2l-23.4,44l8.5,5.7l21.4-47.1l9.8-0.8l-22.7,52.8
	l6.5,5.1c0,0,24.1-53,24.1-53.6s8.9-3.5,8.9-3.5l-25.7,63.2l6.3,4.8l26.8-65.4l9.2,2l-30.4,68.4l4.9,4c0,0,32.2-71.3,32.6-71.1
	s8.8,3.3,8.8,3.3l-35,71.1l6.8,4l36-74l10,3.8l-40.2,76.3l7.7,6.2l41.7-81.8l6.7,4.6l-39.8,79.6l4.3,2.1l41.2-78.7l6.2,4.6
	l-37.9,78.8l-0.7,12l45.1-87.8l6.6,3.6l-51.8,98.8l-1.5,17.5l56.4-109l-11.1,42.6l-43.8,79.3l2.7,6.4l35.1-63.3l-3.1,19.7
	l-23.6,45.8l5.8-0.6l17.5-38.2l-8.3,38.2"/>
<polyline fill="none" stroke="#000000" stroke-width="12" stroke-linecap="round" stroke-linejoin="round" stroke-miterlimit="10" stroke-opacity="0" points="
	422.2,627.7 415.2,641.2 426.2,628.4 "/>
<polyline fill="none" stroke="#000000" stroke-width="12" stroke-linecap="round" stroke-linejoin="round" stroke-miterlimit="10" stroke-opacity="0" points="
	389.9,680.5 374.7,703 373.6,714.2 399.5,679.8 410.4,678.7 380.5,715.9 393.8,713.6 419.6,680.8 425,681.3 403.3,712.3 
	415.2,710.7 432,685.9 443.7,683.1 426.2,709.2 434.7,708.2 453.1,679.8 461.9,680.1 445.7,704.5 452.4,704.8 468.6,679.8 
	467.3,694 "/>
<polyline fill="none" stroke="#000000" stroke-width="12" stroke-linecap="round" stroke-linejoin="round" stroke-miterlimit="10" stroke-opacity="0" points="
	268.5,462.2 256.1,479.9 259.5,485.6 275.9,458.9 280.9,462.3 263.7,491.4 272.6,491 284.9,468.9 291.2,468.9 282.8,490.3 
	290.8,487.8 294.7,478 297.1,484 "/>
<line fill="none" stroke="#000000" stroke-width="12" stroke-linecap="round" stroke-linejoin="round" stroke-miterlimit="10" stroke-opacity="0" x1="309.3" y1="493.2" x2="314.4" y2="510.3"/>
<path fill="none" stroke="#000000" stroke-width="12" stroke-linecap="round" stroke-linejoin="round" stroke-miterlimit="10" stroke-opacity="0" d="
	M508.6,432.6c-0.5,1-6.6,8.8-6.6,8.8l3.3,4.5l7.7-6.2l-2.2,7.7"/>
<line fill="none" stroke="#000000" stroke-width="12" stroke-linecap="round" stroke-linejoin="round" stroke-miterlimit="10" stroke-opacity="0" x1="493" y1="457.5" x2="500.1" y2="470.6"/>
<polyline fill="none" stroke="#000000" stroke-width="12" stroke-linecap="round" stroke-linejoin="round" stroke-miterlimit="10" stroke-opacity="0" points="
	499.6,484.8 511.7,479 513,484.4 500.1,492.1 507.8,491.8 515.2,507.2 548.2,572.7 583.7,649.9 598.4,680.7 "/>
<polyline fill="none" stroke="#000000" stroke-width="12" stroke-linecap="round" stroke-linejoin="round" stroke-miterlimit="10" stroke-opacity="0" points="
	517.5,522.4 457.4,532.6 423.2,538.5 368.3,546.4 342.3,551 334.3,549.4 326.2,542.5 322.8,530 325.4,520 320,520 312.6,523.9 
	319.3,530.2 329.8,551 329.8,556.7 227.8,669.6 223.4,675.7 340.7,682.9 "/>
<polyline fill="none" stroke="#000000" stroke-width="12" stroke-linecap="round" stroke-linejoin="round" stroke-miterlimit="10" stroke-opacity="0" points="
	333.9,556.7 366.8,641.6 368.5,647.7 "/>
<line fill="none" stroke="#000000" stroke-width="12" stroke-linecap="round" stroke-linejoin="round" stroke-miterlimit="10" stroke-opacity="0" x1="375.8" y1="670.6" x2="379.1" y2="675.7"/>
<polyline fill="none" stroke="#000000" stroke-width="12" stroke-linecap="round" stroke-linejoin="round" stroke-miterlimit="10" stroke-opacity="0" points="
	414.1,660.1 489.9,579.8 526.1,538.5 "/>
<path fill="none" stroke="#000000" stroke-width="18" stroke-linecap="round" stroke-linejoin="round" stroke-miterlimit="10" stroke-opacity="0" d="
	M597.5,661.4l-18.6,17.8c0,0,3.4,8.4,3.5,8.1c0.1-0.3,26.8-23.8,26.8-23.8l8,7.9l-24.7,21.2l5.5-0.4l8.5-5"/>
<path fill="none" stroke="#000000" stroke-width="26" stroke-linecap="round" stroke-linejoin="round" stroke-miterlimit="10" stroke-opacity="0" d="
	M564.2,585.6c0,0,44.1-19.8,83.6,8.2s48,45.8,48.9,99.1s-62.4,95.8-122,82.5C515,762,506.4,725,501,693.4
	c-5.4-31.7,1.6-77.8,48.4-101.1"/>
<line fill="none" stroke="#000000" stroke-width="26" stroke-linecap="round" stroke-linejoin="round" stroke-miterlimit="10" stroke-opacity="0" x1="467.8" y1="726" x2="436.8" y2="727.5"/>
<path fill="none" stroke="#000000" stroke-width="26" stroke-linecap="round" stroke-linejoin="round" stroke-miterlimit="10" stroke-opacity="0" d="
	M377.4,655.8l-23.2,14.1l7.5,5.9c0,0-7.5,10.6-7.5,10.4s16.3-0.4,16.3-0.4l-12,17.8"/>
<path fill="none" stroke="#000000" stroke-width="26" stroke-linecap="round" stroke-linejoin="round" stroke-miterlimit="10" stroke-opacity="0" d="
	M212.2,663.5l-15.5,18.3c0,0,4.2,5.8,4.9,5.2s17.1-20.1,17.1-20.1s-8.2,28.5-6.5,26.9c1.8-1.7,23.2-6.8,23.2-6.8"/>
<path fill="none" stroke="#000000" stroke-width="26" stroke-linecap="round" stroke-linejoin="round" stroke-miterlimit="10" stroke-opacity="0" d="
	M228.1,580.4c0,0,43.7-6.6,78.4,53.5s-2.7,119.9-61.2,139.4s-119.6-25.2-124-66.6c-4.4-41.3,4.4-85.1,43.9-111.6
	s75.2-10.8,75.2-10.8"/>
</svg>
