<?xml version="1.0" encoding="utf-8"?>
<!-- Generator: Adobe Illustrator 22.1.0, SVG Export Plug-In . SVG Version: 6.00 Build 0)  -->
<svg version="1.1" id="Layer_1" xmlns="http://www.w3.org/2000/svg" xmlns:xlink="http://www.w3.org/1999/xlink" x="0px" y="0px"
	 width="1076px" height="450px" viewBox="0 0 1076 450" enable-background="new 0 0 1076 450" xml:space="preserve">
<g id="vs-highlight">
	<g>
		<path fill="#5DBFD9" d="M928.6,314.1c-1.3-4.2-5.8-6.6-10-5.3c-1.4,0.4-139.9,43.4-191.9,49.6c-34.1,4.1-82.3-2.1-108-6.2
			c-39.8-6.3-66.9-13.7-70.9-16.1c-1.3-0.9-2.8-1.4-4.4-1.4c-0.6-0.4-1.3-0.7-2-0.9c-8.4-2.6-31.9,1.5-87.3,12.2
			c-39,7.5-83.2,16-110.6,18c-54.2,3.8-159.8-32.5-160.8-32.9c-0.8-0.3-1.7-0.4-2.6-0.4c-14.8,0-36.4,8-45.1,11.4
			c-11.9-7.3-22.9-18.2-32.5-30c34.6,1.1,140.3,4,248.9,4c74.5,0,150.3-1.4,205.5-5.7c150.3-11.8,364.9-38.5,367.1-38.7
			c4.4-0.5,7.5-4.5,6.9-8.9c-0.5-4.4-4.5-7.5-8.9-6.9c-2.1,0.3-216.4,26.9-366.3,38.7c-151.8,11.8-461.3,1.4-464.4,1.3
			c-0.3,0-0.7,0-1,0c-3.6-5.2-6.9-10.4-9.9-15.3c1.2,0.3,2.3,0.5,3.3,0.5c0.3,0,0.6,0,0.8,0c3.6-0.3,6.8-2.3,8.7-5.6
			c1.9-3.3,2.1-7.1,0.4-10.4c-1.9-3.6-7.1-8.3-21.6-9.6c-1.8-0.2-3.5,0.3-4.9,1.2c-2.6-5.1-4-8.3-4.1-8.5c-1.8-4-6.5-5.8-10.6-4
			s-5.8,6.5-4,10.6c1.4,3.2,34.9,77.5,82.1,103.5c2.2,1.2,4.7,1.3,7,0.3c6.2-2.7,22.4-8.8,35-10.9c-8.2,4.9-24.4,16.3-25.1,29.9
			c-0.1,2.7-0.4,8.3,5.1,9.6c0.6,0.1,1.2,0.2,1.7,0.2c4.2,0,6-4.2,6.9-6.1c8.2-18.9,17.9-19.4,25.4-17.7c2.2,0.5,8.8,2,10.9-4
			c1-2.9,0.2-5.2-1.9-7.2c11.1,3.5,26.4,8,43.3,12.4c40.2,10.4,72.4,15.7,96.1,15.7c3.4,0,6.6-0.1,9.6-0.3
			c28.3-2,73-10.6,112.5-18.2c32.4-6.2,72.7-14,79.7-12.6c0.7,0.2,1.4,0.3,2.1,0.3l0.1,0.1c-6.2,1.3-14.1,3.2-21.7,5.8
			c-19.7,6.6-30.4,14.8-32.7,25c-1.5,6.9,1.2,10.3,3.8,11.9c1.6,1,3.2,1.5,4.7,1.5c4.6,0,9.3-3.8,16.1-9.1
			c10.5-8.3,27.9-22.1,39.8-18.4c4.2,1.3,8.7-1,10-5.2c0.5-1.5,0.5-3,0.1-4.4c15.3,4,36.3,8.2,55.8,11.3c20.6,3.3,55.1,7.9,86.5,7.9
			c9.5,0,18.7-0.4,27.1-1.4c53.4-6.4,189-48.4,194.7-50.2C927.6,322.8,930,318.3,928.6,314.1z"/>
		<path fill="#5DBFD9" d="M944,337.3c-0.3-3.3-2.5-5.9-5.5-6.9c-0.1-1-0.3-2-0.8-3c-2-4-6.8-5.6-10.7-3.6l-0.9,0.5
			c-0.9,0.4-6.1,3-11.5,7.2c-8.5,6.6-13.7,14-15.3,21.9c-0.5,2.3-1.9,9.4,4.1,12.6c1.4,0.7,2.7,1.1,4,1.1c4.3,0,7.9-3.8,11.7-7.7
			c4.3-4.5,12.2-12.8,17.8-13.3C941.1,345.6,944.4,341.7,944,337.3z"/>
		<path fill="#5DBFD9" d="M302.5,227c-3.3,0-6,2.6-6,5.9c0,3.3,2.6,6,5.9,6.1l217,2.5c0,0,0,0,0.1,0c3.3,0,6-2.6,6-5.9
			c0-3.3-2.6-6-5.9-6.1L302.5,227L302.5,227z"/>
		<path fill="#5DBFD9" d="M306.5,115.1c1.1,0.6,2.3,0.9,3.5,0.9c2.4,0,4.8-1.3,6.1-3.5l14.1-24.6l13.1-0.4c3.9-0.1,6.9-3.3,6.8-7.2
			c-0.1-3.9-3.4-6.9-7.2-6.8l-17,0.5c-2.4,0.1-4.7,1.4-5.9,3.5l-16,28C302,108.9,303.2,113.2,306.5,115.1z"/>
		<path fill="#5DBFD9" d="M355,41.5h7c4.4,0,8-3.6,8-8s-3.6-8-8-8h-7c-4.4,0-8,3.6-8,8S350.6,41.5,355,41.5z"/>
		<path fill="#5DBFD9" d="M662,105c0.3,0,0.6,0,0.9,0l13.7-1.3c4.9-0.5,8.6-4.9,8.1-9.8s-4.9-8.6-9.8-8.1L661.2,87
			c-4.9,0.5-8.6,4.9-8.1,9.8C653.5,101.5,657.4,105,662,105z"/>
		<path fill="#5DBFD9" d="M753,214.3c0.3,0,0.6,0,0.9,0l57.8-5.5c4.9-0.5,8.6-4.9,8.1-9.8c-0.5-4.9-4.9-8.6-9.8-8.1l-57.8,5.5
			c-4.9,0.5-8.6,4.9-8.1,9.8C744.5,210.8,748.4,214.3,753,214.3z"/>
		<path fill="#5DBFD9" d="M604,221.8c0.2,0,0.5,0,0.7,0l19.4-1.5c1,2.6,3.3,4.8,6.2,5.5c0.7,0.2,1.5,0.3,2.2,0.3
			c3.4,0,6.5-1.9,8-4.9c1.7,1.3,3.8,2,5.9,1.9l12-0.5c4.5-0.2,8.1-3.7,8.6-8.1l8.5-87.5c0.3-2.7-0.7-5.4-2.7-7.3s-4.7-2.8-7.4-2.5
			l-11.5,1.5c-3.7,0.5-6.7,3.1-7.6,6.7L627,202l-23.7,1.9c-5,0.4-8.7,4.7-8.3,9.7C595.4,218.2,599.3,221.8,604,221.8z"/>
		<path fill="#5DBFD9" d="M153.8,250.5c0.1,0,0.1,0,0.2,0l24.7-0.5c2.1,0,4-0.9,5.5-2.2c1.4,1.8,3.5,3,5.9,3.1c0.2,0,0.3,0,0.5,0
			c4.2,0,7.7-3.3,8-7.6l2.6-46.7l131.2-4.7c4.4-0.2,7.9-3.9,7.7-8.3c-0.2-4.4-3.9-7.8-8.3-7.7l-132.3,4.8c1.7-2.3,2.1-5.4,0.8-8.2
			l-12.6-26.7l131.7-0.9l102.3,5.5c4.4,0.2,8.2-3.1,8.4-7.6c0.2-4.4-3.1-8.2-7.6-8.4L319.9,129c-0.2,0-0.3,0-0.5,0l-144.5,1
			c-2.7,0-5.3,1.4-6.7,3.7c-1.5,2.3-1.6,5.2-0.5,7.7l18,38c0.7,1.4,1.7,2.5,2.8,3.3c-1.8,1.4-3,3.5-3.1,5.9l-1.2,20.8
			c-0.7-0.6-1.5-1.1-2.3-1.5c-3.2-1.3-6.9-0.5-9.4,2l-25,26.2c-2.4,2.5-3,6.1-1.6,9.3C147.4,248.5,150.4,250.5,153.8,250.5z"/>
	</g>
</g>
<g id="vs-outline">
	
		<path id="XMLID_83_" fill="none" stroke="#000000" stroke-width="7" stroke-linecap="round" stroke-linejoin="round" stroke-miterlimit="10" d="
		M63.7,256.3c0,0,38.2-1,30.7,17.3C83.3,300.7,63.7,256.3,63.7,256.3z"/>
	
		<path id="XMLID_82_" fill="none" stroke="#000000" stroke-width="11" stroke-linecap="round" stroke-linejoin="round" stroke-miterlimit="10" d="
		M125.7,354.3c0,0-68-63.3-82-110c0,0,178.7,6,233.3,10.7l56-55.3l169.3,4l18.7,24c0,0,214-8,301.3-23.3l22,38l82-14.7
		c0,0,4.7,65.3,0,94"/>
	
		<path id="XMLID_81_" fill="none" stroke="#000000" stroke-width="7" stroke-linecap="round" stroke-linejoin="round" stroke-miterlimit="10" d="
		M927.7,253.7c-160.7,27.3-346,44.8-462,47.3c-158.2,3.4-373.1-5-388-5.3"/>
	
		<line id="XMLID_80_" fill="none" stroke="#000000" stroke-width="7" stroke-linecap="round" stroke-linejoin="round" stroke-miterlimit="10" x1="531" y1="229.7" x2="308.3" y2="227.7"/>
	
		<path id="XMLID_79_" fill="none" stroke="#000000" stroke-width="11" stroke-linecap="round" stroke-linejoin="round" stroke-miterlimit="10" d="
		M75,368.3c52.7-1.3,47.3-15.3,105.3-21.3c0.9-0.1,38.7,32.7,157.3,30.7c48-0.8,95.3-27.3,199.3-27.3c3.3,0,58.7,34,207.3,21.3
		c84.9-7.2,111.3-36.7,184-46c2.7-0.4,34,28.7,103.3,22"/>
	
		<path id="XMLID_78_" fill="none" stroke="#000000" stroke-width="6" stroke-linecap="round" stroke-linejoin="round" stroke-miterlimit="10" d="
		M933,326c-8,3.5-25,9-36,27"/>
	
		<path id="XMLID_77_" fill="none" stroke="#000000" stroke-width="6" stroke-linecap="round" stroke-linejoin="round" stroke-miterlimit="10" d="
		M546.5,354c-28.5,1-53.5,13.5-61.5,24"/>
	
		<path id="XMLID_76_" fill="none" stroke="#000000" stroke-width="6" stroke-linecap="round" stroke-linejoin="round" stroke-miterlimit="10" d="
		M186.5,350c-17,1.5-27.5,9-38,22.5"/>
	
		<polyline id="XMLID_75_" fill="none" stroke="#000000" stroke-width="10" stroke-linecap="round" stroke-linejoin="round" stroke-miterlimit="10" points="
		185,246.5 184.5,178.5 337,177.5 337,200 	"/>
	
		<polyline id="XMLID_74_" fill="none" stroke="#000000" stroke-width="10" stroke-linecap="round" stroke-linejoin="round" stroke-miterlimit="10" points="
		186,179 163,132 325,130.5 336.5,176.5 	"/>
	
		<polyline id="XMLID_73_" fill="none" stroke="#000000" stroke-width="10" stroke-linecap="round" stroke-linejoin="round" stroke-miterlimit="10" points="
		427.5,197.5 425.5,136 325,130.5 	"/>
	
		<polyline id="XMLID_72_" fill="none" stroke="#000000" stroke-width="10" stroke-linecap="round" stroke-linejoin="round" stroke-miterlimit="10" points="
		425.5,136 415.3,119 323.5,112.5 173.5,114.5 163,132 	"/>
	
		<line id="XMLID_71_" fill="none" stroke="#000000" stroke-width="7" stroke-linecap="round" stroke-linejoin="round" stroke-miterlimit="10" x1="321.8" y1="130.3" x2="324.3" y2="115"/>
	
		<polygon id="XMLID_70_" fill="none" stroke="#000000" stroke-width="7" stroke-linecap="round" stroke-linejoin="round" stroke-miterlimit="10" points="
		196.3,166.5 185,145.5 219,145.5 225.5,165.5 	"/>
	
		<polygon id="XMLID_69_" fill="none" stroke="#000000" stroke-width="7" stroke-linecap="round" stroke-linejoin="round" stroke-miterlimit="10" points="
		239.8,165.5 232,145.3 264.5,145.3 270,164.8 	"/>
	
		<polygon id="XMLID_68_" fill="none" stroke="#000000" stroke-width="7" stroke-linecap="round" stroke-linejoin="round" stroke-miterlimit="10" points="
		285.3,164.5 279.5,145.5 313.3,145 319.3,163.5 	"/>
	
		<path id="XMLID_67_" fill="none" stroke="#000000" stroke-width="7" stroke-linecap="round" stroke-linejoin="round" stroke-miterlimit="10" d="
		M199.5,245.8c0-15.8,0-29,0-36s4.8-6.5,13.5-6.5s11.8-0.5,11.8,10.5c0,10.5,0.3,36.5,0.3,36.5"/>
	
		<polygon id="XMLID_66_" fill="none" stroke="#000000" stroke-width="7" stroke-linecap="round" stroke-linejoin="round" stroke-miterlimit="10" points="
		346.3,147 353.3,169 371,168.8 370,147.5 	"/>
	
		<polygon id="XMLID_65_" fill="none" stroke="#000000" stroke-width="7" stroke-linecap="round" stroke-linejoin="round" stroke-miterlimit="10" points="
		388,148.5 412,149.3 412,169.3 388,168.8 	"/>
	
		<polyline id="XMLID_64_" fill="none" stroke="#000000" stroke-width="9" stroke-linecap="round" stroke-linejoin="round" stroke-miterlimit="10" points="
		353.3,114 368,27.7 353.3,27.3 334,58 	"/>
	
		<polygon id="XMLID_63_" fill="none" stroke="#000000" stroke-width="9" stroke-linecap="round" stroke-linejoin="round" stroke-miterlimit="10" points="
		350.7,61.3 296,61.7 296.7,75.7 349.3,76.3 	"/>
	
		<line id="XMLID_62_" fill="none" stroke="#000000" stroke-width="9" stroke-linecap="round" stroke-linejoin="round" stroke-miterlimit="10" x1="322" y1="78" x2="295.3" y2="111.7"/>
	
		<polygon id="XMLID_61_" fill="none" stroke="#000000" stroke-width="9" stroke-linecap="round" stroke-linejoin="round" stroke-miterlimit="10" points="
		355,26.7 391.3,27.7 391,15 357.3,15 	"/>
	
		<polyline id="XMLID_60_" fill="none" stroke="#000000" stroke-width="11" stroke-linecap="round" stroke-linejoin="round" stroke-miterlimit="10" points="
		814,204.5 822.5,58.5 805,54.8 786.5,57 748.5,210 	"/>
	
		<line id="XMLID_59_" fill="none" stroke="#000000" stroke-width="6" stroke-linecap="round" stroke-linejoin="round" stroke-miterlimit="10" x1="801" y1="67" x2="781.5" y2="208.5"/>
	
		<polyline id="XMLID_58_" fill="none" stroke="#000000" stroke-width="11" stroke-linecap="round" stroke-linejoin="round" stroke-miterlimit="10" points="
		774.5,87.5 655.8,102.5 651.8,119.3 769,105.5 	"/>
	
		<polyline id="XMLID_57_" fill="none" stroke="#000000" stroke-width="11" stroke-linecap="round" stroke-linejoin="round" stroke-miterlimit="10" points="
		680,97.5 682,75.5 658,71.7 641.5,74.3 597,221 	"/>
	
		<line id="XMLID_56_" fill="none" stroke="#000000" stroke-width="11" stroke-linecap="round" stroke-linejoin="round" stroke-miterlimit="10" x1="668.7" y1="218" x2="677.7" y2="122.2"/>
	
		<line id="XMLID_55_" fill="none" stroke="#000000" stroke-width="6" stroke-linecap="round" stroke-linejoin="round" stroke-miterlimit="10" x1="656" y1="88" x2="624" y2="218.7"/>
	
		<line id="XMLID_54_" fill="none" stroke="#000000" stroke-width="7" stroke-linecap="round" stroke-linejoin="round" stroke-miterlimit="10" x1="827" y1="209.7" x2="921.7" y2="195.3"/>
	
		<line id="XMLID_53_" fill="none" stroke="#000000" stroke-width="7" stroke-linecap="round" stroke-linejoin="round" stroke-miterlimit="10" x1="903.7" y1="199.7" x2="907" y2="228"/>
	
		<line id="XMLID_52_" fill="none" stroke="#000000" stroke-width="7" stroke-linecap="round" stroke-linejoin="round" stroke-miterlimit="10" x1="882" y1="232" x2="877.3" y2="205"/>
	
		<line id="XMLID_51_" fill="none" stroke="#000000" stroke-width="7" stroke-linecap="round" stroke-linejoin="round" stroke-miterlimit="10" x1="852.7" y1="209" x2="857.3" y2="237"/>
	
		<line id="XMLID_5_" fill="none" stroke="#000000" stroke-width="11" stroke-linecap="round" stroke-linejoin="round" stroke-miterlimit="10" x1="183" y1="200" x2="136" y2="247"/>
	
		<path id="XMLID_6_" fill="none" stroke="#000000" stroke-width="7" stroke-linecap="round" stroke-linejoin="round" stroke-miterlimit="10" d="
		M356.5,271.8c1.6,10.8,12.3,7.8,27.6,2.4c15.3-5.5,31.2-13.6,31.2-13.6l-6.9,19.2c0,0-8.1-13.7-19.6-21.4
		C377,250.4,353,249.2,356.5,271.8z"/>
	
		<path id="XMLID_1_" fill="none" stroke="#000000" stroke-width="4" stroke-linecap="round" stroke-linejoin="round" stroke-miterlimit="10" d="
		M381.9,253.5l19.5-5.5c0,0-10,6.8-7.7,12.8"/>
	
		<path id="XMLID_7_" fill="none" stroke="#000000" stroke-width="4" stroke-linecap="round" stroke-linejoin="round" stroke-miterlimit="10" d="
		M367.5,260.9c2.2-0.9,1.2,2,1.2,2S366.8,261.2,367.5,260.9z"/>
	
		<path id="XMLID_8_" fill="none" stroke="#000000" stroke-width="4" stroke-linecap="round" stroke-linejoin="round" stroke-miterlimit="10" d="
		M325.2,258.7c3.2-2,8.6,0.1,6.2,4.5C328.3,268.7,321.2,261.2,325.2,258.7z"/>
	
		<path id="XMLID_10_" fill="none" stroke="#000000" stroke-width="4" stroke-linecap="round" stroke-linejoin="round" stroke-miterlimit="10" d="
		M331.2,264.8c0,0,1.4,0.3,3.1,6.7c1.7,6.5-4.6,7.4-0.1,13.9c7,10.1,18.3-5.6,10.9-11.7l3,0.7"/>
</g>
<g id="vs-h-reveal">
	
		<path id="XMLID_27_" fill="none" stroke="#5DBFD9" stroke-width="16" stroke-linecap="round" stroke-linejoin="round" stroke-miterlimit="10" stroke-opacity="0" d="
		M55.7,251.3c0,0,33.3,74.7,78.7,99.7c0,0,28.7-12.3,45.7-12.3c0,0,107.5,37.3,164,33.3s180.5-35,195-30.5"/>
	
		<path id="XMLID_26_" fill="none" stroke="#5DBFD9" stroke-width="16" stroke-linecap="round" stroke-linejoin="round" stroke-miterlimit="10" stroke-opacity="0" d="
		M71.3,263.3c0,0,18.7,1.7,15,8C82.7,277.7,71.3,263.3,71.3,263.3z"/>
	
		<path id="XMLID_25_" fill="none" stroke="#5DBFD9" stroke-width="13" stroke-linecap="round" stroke-linejoin="round" stroke-miterlimit="10" stroke-opacity="0" d="
		M180,350.7c0,0-25.3,13-26,27s4-27.3,34-20.7C198.7,359.4,180,350.7,180,350.7z"/>
	
		<path id="XMLID_24_" fill="none" stroke="#5DBFD9" stroke-width="16" stroke-linecap="round" stroke-linejoin="round" stroke-miterlimit="10" stroke-opacity="0" d="
		M550,355.8c-7.3,0.8-53.8,9.5-57.5,26.3s32.3-32,59-23.5"/>
	
		<path id="XMLID_23_" fill="none" stroke="#5DBFD9" stroke-width="16" stroke-linecap="round" stroke-linejoin="round" stroke-miterlimit="10" stroke-opacity="0" d="
		M543.3,342.8c10,7,123.1,30.9,184.4,23.6C781,360,921,316.5,921,316.5"/>
	
		<path id="XMLID_22_" fill="none" stroke="#5DBFD9" stroke-width="16" stroke-linecap="round" stroke-linejoin="round" stroke-miterlimit="10" stroke-opacity="0" d="
		M930.5,331l-1,0.5c0,0-19.5,9-22.5,23.5s13-15.5,29-17"/>
	
		<path id="XMLID_21_" fill="none" stroke="#5DBFD9" stroke-width="16" stroke-linecap="round" stroke-linejoin="round" stroke-miterlimit="10" stroke-opacity="0" d="
		M923,263.7c0,0-214.8,26.8-366.7,38.7c-154,12-465.3,1.3-465.3,1.3"/>
	
		<polyline id="XMLID_20_" fill="none" stroke="#5DBFD9" stroke-width="16" stroke-linecap="round" stroke-linejoin="round" stroke-miterlimit="10" stroke-opacity="0" points="
		190.5,243 193.5,189 332,184 	"/>
	
		<polyline id="XMLID_19_" fill="none" stroke="#5DBFD9" stroke-width="16" stroke-linecap="round" stroke-linejoin="round" stroke-miterlimit="10" stroke-opacity="0" points="
		193,176 175,138 319.5,137 422,142.5 	"/>
	
		<line id="XMLID_18_" fill="none" stroke="#5DBFD9" stroke-width="12" stroke-linecap="round" stroke-linejoin="round" stroke-miterlimit="10" stroke-opacity="0" x1="302.5" y1="233" x2="519.5" y2="235.5"/>
	
		<polyline id="XMLID_17_" fill="none" stroke="#5DBFD9" stroke-width="14" stroke-linecap="round" stroke-linejoin="round" stroke-miterlimit="10" stroke-opacity="0" points="
		310,109 326,81 343,80.5 	"/>
	
		<line id="XMLID_16_" fill="none" stroke="#5DBFD9" stroke-width="16" stroke-linecap="round" stroke-linejoin="round" stroke-miterlimit="10" stroke-opacity="0" x1="362" y1="33.5" x2="355" y2="33.5"/>
	
		<polyline id="XMLID_15_" fill="none" stroke="#5DBFD9" stroke-width="18" stroke-linecap="round" stroke-linejoin="round" stroke-miterlimit="10" stroke-opacity="0" points="
		632.5,217 655,127.5 666.5,126 658,213.5 646,214 652,174.7 	"/>
	
		<line id="XMLID_14_" fill="none" stroke="#5DBFD9" stroke-width="18" stroke-linecap="round" stroke-linejoin="round" stroke-miterlimit="10" stroke-opacity="0" x1="662" y1="96" x2="675.7" y2="94.7"/>
	
		<line id="XMLID_13_" fill="none" stroke="#5DBFD9" stroke-width="18" stroke-linecap="round" stroke-linejoin="round" stroke-miterlimit="10" stroke-opacity="0" x1="753" y1="205.3" x2="810.8" y2="199.8"/>
	
		<line id="XMLID_12_" fill="none" stroke="#5DBFD9" stroke-width="18" stroke-linecap="round" stroke-linejoin="round" stroke-miterlimit="10" stroke-opacity="0" x1="604" y1="212.8" x2="629.3" y2="210.8"/>
	
		<polygon id="XMLID_9_" fill="none" stroke="#5DBFD9" stroke-width="17" stroke-linecap="round" stroke-linejoin="round" stroke-miterlimit="10" stroke-opacity="0" points="
		178.8,215.8 178.5,241.5 153.8,242 	"/>
</g>
</svg>
