<?xml version="1.0" encoding="utf-8"?>
<!-- Generator: Adobe Illustrator 25.2.1, SVG Export Plug-In . SVG Version: 6.00 Build 0)  -->
<svg version="1.1" id="Layer_1" xmlns="http://www.w3.org/2000/svg" xmlns:xlink="http://www.w3.org/1999/xlink" x="0px" y="0px"
	 width="1000px" height="1000px" viewBox="0 0 1000 1000" enable-background="new 0 0 1000 1000" xml:space="preserve">
<g id="vs-skin">
	<polygon fill="#F9D8B4" points="470.5,102.2 521.4,105.1 527.1,157 523.8,177.6 512.7,185.3 501.7,187.7 503.6,213.6 482,229.9 
		456.6,212.6 454.6,157.4 445.5,153.1 444.1,141.6 458,134.4 	"/>
	<polygon fill="#F9D8B4" points="365.8,509.3 417.2,507.4 418.2,554.9 414.8,565.4 410.5,571.2 407.6,573.1 402.3,586.6 
		395.1,588.5 376.4,586.6 365.8,575.5 363.9,534.7 	"/>
	<polygon fill="#F9D8B4" points="571.3,504.5 589.5,502.6 591,549.1 581.8,555.4 575.1,569.8 573.7,532.8 	"/>
	<polyline fill="#F9D8B4" points="432.6,882.2 466.6,884.2 463.8,889 461.4,919.2 440.7,922.6 432.1,927.4 432.6,882.2 	"/>
	<polygon fill="#F9D8B4" points="532.4,877 565.5,875 565.5,914.4 542.5,920.2 	"/>
</g>
<g id="vs-hair">
	<polygon fill="#2D2A29" points="423,99.4 468.1,102.2 465.7,121 455.6,137.3 445,143.5 443.1,151.2 450.8,158.9 456.6,161.3 
		456.6,212.6 423.9,225.6 402.8,242.9 408.1,174.2 413.4,125.8 	"/>
	<polygon fill="#2D2A29" points="523.3,105.1 533.4,102.7 542,124.8 543.9,206.9 542.5,248.2 503.6,210.2 499.8,185.3 518,181.4 
		526.2,169 522.3,111.8 	"/>
</g>
<g id="vs-primary">
	<polygon fill="#4A4A51" points="422.6,68.2 468.6,49.4 499.8,33.1 532.4,50.4 535.8,59.5 532.4,78.2 521.4,73.9 495.9,73 
		462.8,82.6 427.8,96 423,91.2 	"/>
	<polygon fill="#4A4A51" points="460.9,97.9 488.2,85.4 513.2,84 533.4,91.2 534.3,98.4 531,104.6 461.4,100.8 	"/>
	<polygon fill="#4A4A51" points="422.5,880.8 471.4,881.8 484.9,675.8 494,575 498.3,570.2 505,655.2 523.8,875 572.2,873.1 
		573.7,871.2 572.2,680.6 571.3,504.5 591.4,502.6 591,479.5 571.3,481.9 572.7,453.1 591,455 591.4,393.1 583.8,327.8 560.2,270.7 
		528.1,231.8 506.5,214.1 491.1,237.1 482,229.9 474.8,246.2 459,222.2 454.2,214.6 435,221.3 411,235.2 387,267.4 375,304.8 
		369.7,336 363.9,399.8 361.5,464.2 417.2,465.1 415.3,486.2 363,488.2 363,507.4 409,509.3 417.2,507.4 418.2,554.9 414.8,565.4 
		405.2,575.5 405.2,600 	"/>
</g>
<g id="vs-secondary">
	<polygon fill="#FFCE00" points="434.5,97.9 469.5,80.2 501.2,73.9 527.6,76.8 532.4,78.2 529.5,90.7 506.5,85 480.6,87.4 
		456.1,101.3 	"/>
	<polygon fill="#FFCE00" points="471.4,377.8 477.2,383.5 475.3,389.3 468.1,389.3 465.7,383.5 	"/>
	<polygon fill="#FFCE00" points="514.6,376.3 520.9,380.2 515.6,387.4 508.4,386.4 506.5,380.2 	"/>
	<polygon fill="#FFCE00" points="513.2,404.2 518.5,406.1 515.1,415.7 508.9,413.8 507.9,408.5 	"/>
	<polygon fill="#FFCE00" points="472.4,404.2 479.1,407 475.8,415.7 469,413.8 467.6,408.5 	"/>
	<polygon fill="#FFCE00" points="361.5,464.2 419.1,463.2 416.7,488.2 401.8,486.7 362,485.8 	"/>
	<polygon fill="#FFCE00" points="572.7,453.1 592.9,453.6 591,479.5 571.8,479 	"/>
</g>
<g id="vs-colour">
	<polygon fill="#4A4A51" points="432.6,925.4 457,918.2 473.4,925.9 480.6,935 434,937.4 	"/>
	<polygon fill="#4A4A51" points="540.1,922.1 559.8,913.4 573.2,915.8 589.5,928.3 554.5,930.7 542,930.7 	"/>
	<polygon fill="#FFFFFF" points="459.9,213.1 480.1,229 475.3,242.4 459.4,219.8 	"/>
	<polygon fill="#FFFFFF" points="503.6,213.6 491.1,237.1 484.9,228.5 	"/>
</g>
<g id="vs-outline">
	<path fill="none" stroke="#000000" stroke-width="7" stroke-linecap="round" stroke-linejoin="round" stroke-miterlimit="10" d="
		M455.5,99.8c20.5-15,48.4-19.2,72.3-10.9c4.1,1.4,8.8,4.2,8.6,8.5c-0.1,2.8-2.5,5.2-5.2,6.1c-2.7,1-5.6,0.8-8.4,0.7
		C500.1,103.1,477.3,102,455.5,99.8z"/>
	<path fill="none" stroke="#000000" stroke-width="7" stroke-linecap="round" stroke-linejoin="round" stroke-miterlimit="10" d="
		M456.2,99.8c-11.3-0.3-22.6-0.5-33.9-0.8c0,0,0-30.4,0.3-30.8c27.4-8.3,53.7-20.4,77.7-36c0,0,35.2,19.8,35.9,20
		c1.6,12.5-0.8,25.6-6.8,36.7"/>
	<path fill="none" stroke="#000000" stroke-width="7" stroke-linecap="round" stroke-linejoin="round" stroke-miterlimit="10" d="
		M423,92.5c6.9,1.8,14.3,0.6,21.1-1.6c6.8-2.3,13.1-5.7,19.6-8.5c11-4.8,22.8-8,34.8-8.7s24.2,1.1,35.2,6"/>
	<path fill="none" stroke="#000000" stroke-width="7" stroke-linecap="round" stroke-linejoin="round" stroke-miterlimit="10" d="
		M498,50.6c-1.4,3.2-1.8,6.8-1.1,10.2c0.2,0.8,0.4,1.6,0.9,2.2c0.5,0.6,1.3,1.1,2.1,0.9c1-0.2,1.7-1.2,2.1-2.2
		c1.1-2.5,1.6-5.3,1.6-8.1c0-1.2-0.1-2.5-0.7-3.6c-0.6-1.1-1.8-1.9-3-1.7C498.7,48.5,497.7,49.9,498,50.6z"/>
	<path fill="none" stroke="#000000" stroke-width="7" stroke-linecap="round" stroke-linejoin="round" stroke-miterlimit="10" d="
		M485.6,53.8c3.7-0.7,7.4-1.1,11.2-1.1"/>
	<path fill="none" stroke="#000000" stroke-width="7" stroke-linecap="round" stroke-linejoin="round" stroke-miterlimit="10" d="
		M504.7,52.9c2.6-0.2,5.2-0.4,7.7-0.7"/>
	<path fill="none" stroke="#000000" stroke-width="7" stroke-linecap="round" stroke-linejoin="round" stroke-miterlimit="10" d="
		M477.6,59.3c6.2-1.2,12.5-1.8,18.8-1.7"/>
	<path fill="none" stroke="#000000" stroke-width="7" stroke-linecap="round" stroke-linejoin="round" stroke-miterlimit="10" d="
		M504.4,57.5c4.8-0.9,9.8-1.2,14.7-1"/>
	<path fill="none" stroke="#000000" stroke-width="7" stroke-linecap="round" stroke-linejoin="round" stroke-miterlimit="10" d="
		M483.9,62.8c4.2-0.4,8.3-0.9,12.5-1.3"/>
	<path fill="none" stroke="#000000" stroke-width="7" stroke-linecap="round" stroke-linejoin="round" stroke-miterlimit="10" d="
		M503,61.5c3.4-0.2,6.7-0.3,10.1-0.5"/>
	<path fill="none" stroke="#000000" stroke-width="7" stroke-linecap="round" stroke-linejoin="round" stroke-miterlimit="10" d="
		M469.3,101.6c-0.8,8-1.6,16.1-4.8,23.5s-9.3,13.9-16.4,15.3c-4.1,2.2-6,7.7-4.1,12c1.9,4.2,7.3,6.5,11.7,4.9c0,0,0.1,54.7-0.1,54.3
		c-19,8.1-36.8,19.2-53,31.3c3.2-23.9,3.2-48.2,5-72.3c1.8-24.1,5.4-48.4,15.3-70.4L469.3,101.6z"/>
	<path fill="none" stroke="#000000" stroke-width="7" stroke-linecap="round" stroke-linejoin="round" stroke-miterlimit="10" d="
		M521.6,105.7c1.9,18.4,3.8,36.8,4,55.3c0.1,5.5-0.1,11.3-3.2,15.8c-4.5,6.6-13.3,8.3-21.3,9.4c0,0,2.6,28.1,3.2,28.3
		c15.1,9.8,28.1,22.9,38.6,37.8c-3.4-20.2-0.5-40.8,0.5-61.3c0.8-17.1,0.3-34.1-0.4-51.2c-0.5-12.9-1.5-26.6-9-37L521.6,105.7z"/>
	<path fill="none" stroke="#000000" stroke-width="7" stroke-linecap="round" stroke-linejoin="round" stroke-miterlimit="10" d="
		M498.1,125.4c-2.6,7.5-4.4,15.3-5.3,23.2c-0.2,1.6-0.3,3.2,0,4.8c0.3,1.6,1.2,3.1,2.6,3.9c2.6,1.5,6.1-0.2,7.6-2.8s1.3-5.8,0.9-8.8
		C503,138.9,500.8,132.3,498.1,125.4z"/>
	<path fill="none" stroke="#000000" stroke-width="7" stroke-linecap="round" stroke-linejoin="round" stroke-miterlimit="10" d="
		M485.8,163.2c2.8,4.4,8,7.1,13.2,6.9c5.2-0.2,10.1-3.5,12.5-8.1"/>
	<path fill="none" stroke="#000000" stroke-width="7" stroke-linecap="round" stroke-linejoin="round" stroke-miterlimit="10" d="
		M471.1,119.2c0.8-1.6,2.2-2.9,3.9-3.5c1.7-0.6,3.6-0.5,5.2,0.3"/>
	<path fill="none" stroke="#000000" stroke-width="7" stroke-linecap="round" stroke-linejoin="round" stroke-miterlimit="10" d="
		M509.9,116.3c2.7-1.5,6.5-0.6,8.2,2"/>
	<path fill="none" stroke="#000000" stroke-width="6" stroke-linecap="round" stroke-linejoin="round" stroke-miterlimit="10" d="
		M476.7,138.8c-0.6,0-1.2-0.3-1.7-0.8c-0.7-0.7-0.9-1.8-1-2.5c-0.2-2,0.5-4.1,1.8-5.6l-0.1-0.1c0.2-0.2,0.7-0.5,1.2-0.5
		c1,0,1.9,1,2.2,1.9c0.4,1.1,0.3,2.5,0.1,3.7c-0.1,0.8-0.3,1.7-0.6,2.4c-0.3,0.7-0.9,1.2-1.4,1.3
		C476.9,138.7,476.8,138.8,476.7,138.8L476.7,138.8z"/>
	<path fill="none" stroke="#000000" stroke-width="6" stroke-linecap="round" stroke-linejoin="round" stroke-miterlimit="10" d="
		M516,137.5c-0.6,0-1.2-0.7-1.5-1.3c-1.1-2.1-0.9-4.8,0.6-6.7c0.2-0.2,0.3-0.4,0.5-0.5c0.3-0.2,0.6-0.3,1-0.3c0.4,0,0.7,0.1,0.9,0.3
		c0.7,0.5,0.9,1.6,1,2.5c0.1,1.5-0.2,3-0.7,4.4C517.3,136.6,516.7,137.5,516,137.5z"/>
	<path fill="none" stroke="#000000" stroke-width="7" stroke-linecap="round" stroke-linejoin="round" stroke-miterlimit="10" d="
		M493.8,186.6c6.3,1,12.8-0.4,18.9-2.3"/>
	<path fill="none" stroke="#000000" stroke-width="7" stroke-linecap="round" stroke-linejoin="round" stroke-miterlimit="10" d="
		M454.8,213.6c-30.7,5.1-55.7,29.4-69.2,57.5c-13.5,28.1-17.4,59.7-19.9,90.8c-4,49.3-4.9,98.8-2.9,148.2l54.3-1.9l1.8-185.7"/>
	<path fill="none" stroke="#000000" stroke-width="7" stroke-linecap="round" stroke-linejoin="round" stroke-miterlimit="10" d="
		M365.9,510.3c-2,21.4-3.9,43.2,0.7,64.3c0.7,3.3,1.8,6.9,4.4,9c2.6,2.2,7.3,2.1,8.9-0.9"/>
	<path fill="none" stroke="#000000" stroke-width="7" stroke-linecap="round" stroke-linejoin="round" stroke-miterlimit="10" d="
		M379.6,554.9c0.1,7.7,0.1,15.5,0.2,23.2c0,3.9,0.4,8.4,3.5,10.6c1.7,1.2,3.9,1.5,5.8,0.8c1.9-0.7,3.4-2.4,3.9-4.4"/>
	<path fill="none" stroke="#000000" stroke-width="7" stroke-linecap="round" stroke-linejoin="round" stroke-miterlimit="10" d="
		M393.4,556.4c-0.2,8.1-0.2,16.2,0.2,24.3c0.1,2.7,0.5,5.8,2.9,7c2,1.1,4.6,0.1,6.1-1.6c1.5-1.7,2.1-4,2.6-6.2
		c2.2-9.6,2.4-19.6,0.8-29.3"/>
	<path fill="none" stroke="#000000" stroke-width="7" stroke-linecap="round" stroke-linejoin="round" stroke-miterlimit="10" d="
		M407.9,569.2c1.7,2,5.2,1.2,6.8-0.8c1.6-2,1.9-4.8,2.1-7.4c1.3-17.6,1.1-35.3-0.6-52.8"/>
	<path fill="none" stroke="#000000" stroke-width="7" stroke-linecap="round" stroke-linejoin="round" stroke-miterlimit="10" d="
		M454.4,211.6c8.5,6.8,17.6,12.8,27.1,18.1c7.8-6.1,15.7-12.1,23.5-18.2"/>
	<path fill="none" stroke="#000000" stroke-width="7" stroke-linecap="round" stroke-linejoin="round" stroke-miterlimit="10" d="
		M452.4,213.8c10.3,13.5,19.7,26.1,30,39.6c8.1-13.8,16.2-27.7,24.3-41.5"/>
	<path fill="none" stroke="#000000" stroke-width="7" stroke-linecap="round" stroke-linejoin="round" stroke-miterlimit="10" d="
		M490.2,240.1c-1.9-4-4.7-7.6-8-10.5l-6,14.1"/>
	<path fill="none" stroke="#000000" stroke-width="7" stroke-linecap="round" stroke-linejoin="round" stroke-miterlimit="10" d="
		M432.4,221.7c5.5,11.7,12.1,22.8,19.6,33.2l12.6-1.5l-4,10.8l29.9,54.7"/>
	<path fill="none" stroke="#000000" stroke-width="7" stroke-linecap="round" stroke-linejoin="round" stroke-miterlimit="10" d="
		M523.6,230.6c-3.5,9.3-6.7,17.3-11.5,26.1l-10.8,2.7l4.8,10l-15.5,49.8"/>
	<path fill="none" stroke="#000000" stroke-width="7" stroke-linecap="round" stroke-linejoin="round" stroke-miterlimit="10" d="
		M482.4,253.3c8.8,62.4,12.2,125.5,10.4,188.4"/>
	<path fill="none" stroke="#000000" stroke-width="7" stroke-linecap="round" stroke-linejoin="round" stroke-miterlimit="10" d="
		M417.9,449.8c23.3-0.1,46.6-0.1,69.9-0.2l5.3-7.3l8.5,6.8l71.6-3.3l-4-112.7"/>
	<path fill="none" stroke="#000000" stroke-width="7" stroke-linecap="round" stroke-linejoin="round" stroke-miterlimit="10" d="
		M506.4,211.1c33.5,33.5,65.1,71.5,77.4,117.2c6.7,24.8,7.5,50.8,7.7,76.4c0.3,32.7-0.1,65.5-1.3,98.2l-15.7,0.3"/>
	<path fill="none" stroke="#000000" stroke-width="7" stroke-linecap="round" stroke-linejoin="round" stroke-miterlimit="10" d="
		M404.1,584.7c5.8,100.2,11.5,197.3,17.3,297.5c0,0,52.9,2,51.5,0.2c5.1-86,10.3-172,15.4-258c1.2-19.8,2.4-39.8,7.8-58.9
		c5.4-19.1,15.4-37.5,31.3-49.4"/>
	<path fill="none" stroke="#000000" stroke-width="7" stroke-linecap="round" stroke-linejoin="round" stroke-miterlimit="10" d="
		M499,558c6.5,107,14.8,210.9,24.8,317.6l50.4-2.6l-2.6-426.2"/>
	<path fill="none" stroke="#000000" stroke-width="7" stroke-linecap="round" stroke-linejoin="round" stroke-miterlimit="10" d="
		M461.4,920.2l1.7-36.3l-33-1c0.7,15.3,1.3,30.6,2,45.9"/>
	<path fill="none" stroke="#000000" stroke-width="7" stroke-linecap="round" stroke-linejoin="round" stroke-miterlimit="10" d="
		M432.5,927.8c8.1-4.6,17.2-8,26.5-7.6c9.3,0.4,19.4,6.5,23.3,14.9l-50.1,1.5L432.5,927.8z"/>
	<path fill="none" stroke="#000000" stroke-width="7" stroke-linecap="round" stroke-linejoin="round" stroke-miterlimit="10" d="
		M540.3,922.3c8.1-4.6,17.2-8,26.5-7.6c9.3,0.4,19,7,23,15.4l-48.1,0.9L540.3,922.3z"/>
	<path fill="none" stroke="#000000" stroke-width="7" stroke-linecap="round" stroke-linejoin="round" stroke-miterlimit="10" d="
		M565.2,914.4l0.7-39.5l-32.4,1c2.8,15.1,5.5,30.1,8.3,45.2"/>
	<path fill="none" stroke="#000000" stroke-width="7" stroke-linecap="round" stroke-linejoin="round" stroke-miterlimit="10" d="
		M588.9,502.7c0.7,14.4,1.4,28.8,1.3,43.2c0,1.9-0.1,3.9-1.1,5.5s-3.4,2.5-4.9,1.4c-0.9-0.7-1.2-1.8-1.5-2.8
		c-0.7-2.9-0.9-5.8-0.6-8.8"/>
	<path fill="none" stroke="#000000" stroke-width="7" stroke-linecap="round" stroke-linejoin="round" stroke-miterlimit="10" d="
		M582.1,549.4c0.1,4.1,0.1,8.3-1,12.2c-1.1,3.9-3.7,7.7-7.5,9.2"/>
	<path fill="none" stroke="#000000" stroke-width="7" stroke-linecap="round" stroke-linejoin="round" stroke-miterlimit="10" d="
		M432.8,309.3c11.3-0.6,22.6-1.2,33.9-1.8l0.2,8.6l-32.5,2.9L432.8,309.3z"/>
	<path fill="none" stroke="#000000" stroke-width="7" stroke-linecap="round" stroke-linejoin="round" stroke-miterlimit="10" d="
		M421.1,229.3c4.7,7,7.3,15.4,7.3,23.8"/>
	<path fill="none" stroke="#000000" stroke-width="7" stroke-linecap="round" stroke-linejoin="round" stroke-miterlimit="10" d="
		M414,234.4c4.6,7.4,6.9,16.1,6.5,24.8"/>
	<path fill="none" stroke="#000000" stroke-width="7" stroke-linecap="round" stroke-linejoin="round" stroke-miterlimit="10" d="
		M406.4,241.3c4.7,6.1,6.9,14.1,5.9,21.8"/>
	<path fill="none" stroke="#000000" stroke-width="7" stroke-linecap="round" stroke-linejoin="round" stroke-miterlimit="10" d="
		M533.2,241.2c0.5,9-0.8,18.1-3.7,26.6"/>
	<path fill="none" stroke="#000000" stroke-width="7" stroke-linecap="round" stroke-linejoin="round" stroke-miterlimit="10" d="
		M540.4,247.8c0.5,7.9-0.4,15.8-2.5,23.4"/>
	<path fill="none" stroke="#000000" stroke-width="7" stroke-linecap="round" stroke-linejoin="round" stroke-miterlimit="10" d="
		M548.8,258.9c0.9,5.7,0.2,11.6-2.1,17"/>
	<path fill="none" stroke="#000000" stroke-width="7" stroke-linecap="round" stroke-linejoin="round" stroke-miterlimit="10" d="
		M469.8,379.4c-2.4,0.7-4.1,3.2-3.8,5.7c0.2,2.5,2.3,4.7,4.8,5.1c2.5,0.4,5.1-0.9,6.3-3.1s0.9-5.1-0.7-7c-0.8-1-2-1.8-3.3-2
		C470.8,377.8,468.7,379.3,469.8,379.4z"/>
	<path fill="none" stroke="#000000" stroke-width="7" stroke-linecap="round" stroke-linejoin="round" stroke-miterlimit="10" d="
		M469,405.5c-1.4,0.9-2.3,2.7-2.2,4.4c0.1,1.7,1.1,3.3,2.5,4.3c2.1,1.4,5.1,1.4,7.1-0.2s2.8-4.4,1.9-6.8c-0.9-2.4-3.5-3.9-6-3.6
		C469.8,403.9,467.6,406.1,469,405.5z"/>
	<path fill="none" stroke="#000000" stroke-width="7" stroke-linecap="round" stroke-linejoin="round" stroke-miterlimit="10" d="
		M509.9,377.6c-2.5,1-3.7,4.1-2.9,6.5c0.9,2.5,3.6,4.1,6.2,3.8c2.6-0.2,5-2.2,5.9-4.6c0.7-1.8,0.7-3.9-0.5-5.4
		c-1.4-1.9-4.1-2.3-6.3-1.6S508.5,378.8,509.9,377.6z"/>
	<path fill="none" stroke="#000000" stroke-width="7" stroke-linecap="round" stroke-linejoin="round" stroke-miterlimit="10" d="
		M510.5,404.8c-1.4,1.3-2.3,3.2-2.3,5.2c0,1.9,1.1,3.9,2.8,4.8c1.7,1,4,0.8,5.4-0.5c1.2-1.1,1.7-2.7,2-4.4c0.2-1.5,0.2-3.1-0.6-4.4
		c-0.9-1.6-2.9-2.4-4.7-2.1C511.3,403.7,509.8,405.1,510.5,404.8z"/>
	<path fill="none" stroke="#000000" stroke-width="7" stroke-linecap="round" stroke-linejoin="round" stroke-miterlimit="10" d="
		M362.1,463.8c18.2-0.9,36.4-0.8,54.6,0.1"/>
	<path fill="none" stroke="#000000" stroke-width="7" stroke-linecap="round" stroke-linejoin="round" stroke-miterlimit="10" d="
		M362.3,475.4c18.1-0.9,36.2-1.2,54.3-0.9"/>
	<path fill="none" stroke="#000000" stroke-width="7" stroke-linecap="round" stroke-linejoin="round" stroke-miterlimit="10" d="
		M362.1,486.6c18.3-0.2,36.5-0.3,54.8-0.5"/>
	<path fill="none" stroke="#000000" stroke-width="7" stroke-linecap="round" stroke-linejoin="round" stroke-miterlimit="10" d="
		M572.1,454.6c6.2-0.1,12.5-0.2,18.7-0.3"/>
	<path fill="none" stroke="#000000" stroke-width="7" stroke-linecap="round" stroke-linejoin="round" stroke-miterlimit="10" d="
		M571.9,466.4c6.6-0.1,11.2-0.3,17.8-0.4"/>
	<path fill="none" stroke="#000000" stroke-width="7" stroke-linecap="round" stroke-linejoin="round" stroke-miterlimit="10" d="
		M571.8,480.2c6.2-0.2,12.4-0.3,18.5-0.5"/>
</g>
<g id="vs-reveal">
	<path fill="none" stroke="#F9D8B4" stroke-width="70" stroke-miterlimit="10" stroke-opacity="0" d="M329.1,55.2
		c6.6,0,13.1,0,19.5,0c50.8,0.2,93.9,1,130.4,2.3c84.4,2.9,134,8.3,163.1,13.6c5.9,1.1,8.7,4.6,8.6,8c-0.1,4.1-4.1,8.1-11.3,8.2
		c-59.1,0.4-108,1.4-148.6,3c-73.2,2.9-118.9,7.4-147,12.3c-17.1,3-27.8,6.1-34.2,9.1c-17.4,8-3.6,14.9-3.6,14.9
		c37.6,19.3,127.6,17.7,213.2,16.3c65.6-1.1,128.5-2.2,163.2,6.2c17.4,4.2,27.6,10.8,27.6,21c0,9.1-8.3,15.5-22.5,19.9
		C651,201.3,575,199.5,499,198.1c-76.7-1.5-153.3-2.5-189.5,10.5c-13.6,4.9-21.5,11.8-21.5,21.4c0,9.6,7.9,16.2,21.4,20.5
		c38,12.2,120.9,7,201.5,1.9c74.7-4.7,147.3-9.2,180.5,0.5c11.9,3.5,18.7,8.8,18.7,16.6c0,7.7-6.6,13.7-18.1,18.5
		c-34.8,14.5-114.5,17.8-194,21.3c-76.3,3.4-152.5,7-188.5,20.8c-13.6,5.2-21.5,12-21.5,20.7c0,9.6,9.4,15.8,25.5,19.8
		c38.6,9.5,115.3,5.6,191.1,1.5c74.1-4,147.4-8.3,183.1-0.5c14.3,3.1,22.5,8.1,22.5,15.9c0,7.1-7,12.6-19.1,16.9
		c-39.4,13.9-133.1,15.2-220.2,17.2c-61.1,1.4-119,3.2-152.7,10c-18.8,3.8-30.1,9.2-30.1,16.9s11.3,12.6,30.2,15.5
		c38.6,6,108.9,3.9,179.3,1.5c76.5-2.6,153.3-5.4,190.2,1.4c14.3,2.7,22.5,6.8,22.5,12.9s-8.3,11-22.5,15
		c-38.6,10.7-120.9,14.9-200.9,20c-67.3,4.3-132.9,9.3-169.4,19.5c-18.4,5.1-29.4,11.6-29.4,20c0,8.5,11.5,13.3,30.7,15.7
		c40,4.9,113.4-0.9,186-5.6c74.1-4.7,147.3-8.3,183.1,2.1c14.3,4.1,22.5,10.4,22.5,19.7s-8.3,16.3-22.5,21.7
		c-39,14.7-122.9,16.8-203.7,18.5c-63.8,1.3-125.8,2.4-162.4,9.2c-20.9,3.9-33.6,9.6-33.6,18.4s12.7,13.9,33.6,16.9
		c40.6,5.8,112.4,3.2,183.3,1.9c70.9-1.2,140.9-1.1,178.1,10c17.1,5.2,27.3,12.7,27.3,23.5c0,10.4-9.3,17.6-25.2,22.7
		c-39.5,12.5-119.5,11.1-197.4,9.7c-65.1-1.2-128.7-2.5-166,4.2c-20.9,3.7-33.6,9.9-33.6,20.1c0,10.1,12.7,17,33.6,21.6
		c40.6,9,112.2,9.5,183,8.9c68.4-0.5,135.9-2.1,174,1.9c19.7,2.1,31.6,5.6,31.6,11.6s-11.8,10.5-31.6,14
		c-41.3,7.4-117.1,10.5-191,14.3c-65.1,3.3-128.7,7.1-166.1,14.6c-20.9,4.2-33.6,9.6-33.6,16.7c0,7.5,13.8,12.1,36.5,15.1
		c43.9,5.7,121.1,4.9,194.9,5.2c60.6,0.3,119,1.3,154.8,7.4c22.4,3.8,36,9.5,36,18.2c0,8.9-14.3,13.8-37.7,16.2
		c-43.3,4.4-117.8,0.5-189.7-1.5c-61-1.7-120.1-1.9-156.9,5.6c-23.5,4.8-37.9,12.8-37.9,25.5"/>
</g>
</svg>
