<?xml version="1.0" encoding="utf-8"?>
<!-- Generator: Adobe Illustrator 22.1.0, SVG Export Plug-In . SVG Version: 6.00 Build 0)  -->
<svg version="1.1" id="Layer_1" xmlns="http://www.w3.org/2000/svg" xmlns:xlink="http://www.w3.org/1999/xlink" x="0px" y="0px"
	 width="1192px" height="900px" viewBox="0 0 1192 900" enable-background="new 0 0 1192 900" xml:space="preserve">
<g id="vs-primary">
	<path fill="#FF5648" d="M458,583.5c0,0-190.5-15.5-190.5-32.5s17-32,17-32L418,304l75,243l28.5-5L446,286.5
		c0,0,317.5-29.5,324.5-23.5s9.5,34,9.5,34L556.5,548.5l30,24.5l90.5-95.5l129-142l28.5-1.5c0,0,0.5-10.5-12.5-58s-20-60-20-60
		l-30,10v7.5l-335,34l-6.5-12.5l-21.5,7l4,24.5L222.5,567c0,0,16.5,13,27.5,13s20-7,20-7l181.9,38l7.1-16.7L458,583.5z"/>
</g>
<g id="vs-secondary">
	<path fill="#4A4A51" d="M828,174c0-17.5,41-17.5,41-17.5s15.5,8,29,8s27.5-6,27.5-6s4-24,22.5-24.5s26.5,8.5,26.5,8.5L951,176
		l6.5,20.5l-7.5,38l14.5,24.5c0,0-23,10-24-2.5c-1-12.5-0.5-72.5-0.5-72.5l-37,12.5c0,0,9.5-4.5,6.5,12S892,251,871.5,263
		C851,275,827,281.5,827,281.5v-16c0,0,46.5-23.5,53.5-41.5s1-34,1-34l-19-7.5L838,190l-8.5-3.5L828,174z"/>
	<path fill="#4A4A51" d="M294.3,115c0,0,78,10.7,94.7,10.7s60.7-10.7,75.3-4.7c14.7,6,9.3,18,9.3,18l-44.7-1.3l-19.7-2.7l-10.3,4
		l-21.3,4.7c0,0-19.3,12.7-46.7,8.7s-35.3-24.7-35.3-24.7L294.3,115z"/>
</g>
<g id="vs-colour">
	<path fill="#D4D3E5" d="M998.8,361.2c0,0-24.3-11.2-65.3-11.2c-41.1,0-83.1,13.1-83.1,13.1l9.3,22.4C877.5,379.3,912,374,932,374
		c94.8,0,184.7,94,184.1,188.8c-0.6,88.7-111.6,187.2-197.6,188.2c-90,1-178-101.5-178.9-183.2c-0.7-65.9-4.4-121.3,92.7-173.6
		l-4.4-10.6l-8.4-4.7c-16.8,1.9-86.8,67.2-102.7,135.3s19.6,137.2,19.6,137.2s92.4,164.3,252,106.4
		c159.6-57.9,148.4-194.1,148.4-194.1C1158.4,427.5,998.8,361.2,998.8,361.2z"/>
	<path fill="#D4D3E5" d="M356,393.5c56.2,31.9,89.7,99.2,89.7,168.4c0,5.5-0.3,10.9-0.7,16.2c8.8,1.2,17.6,2.7,26.3,4.3
		c1.1-8.9,1.7-17.9,1.7-27.1c0-78.1-41.8-146.5-104.2-184c-4,7.9-8.9,15.3-14,22.6C353.8,396.1,357.1,391.3,356,393.5z"/>
	<path fill="#D4D3E5" d="M440.9,608c0-0.2,0-0.4,0.1-0.6c-0.3,0-6.5,0.6-0.9-0.1c-20.3,80.4-91.7,134.3-178.4,134.3
		c-102.4,0-182-86.3-182-188.7s75.4-178.4,177.8-178.4c29,0,60.4,1.1,85.3,12.3c4.5-5.9,9.1-11.7,14.1-17.1c0.1-0.3,0.3-0.5,0.4-0.8
		c-30.7-16.9-70.4-16.3-107.9-16.3c-118.5,0-192.6,91.7-192.6,210.2s91.1,203.9,209.6,203.9c86,0,152.3-47.4,186.5-120.4
		C445.7,634.5,440.7,621.4,440.9,608z"/>
	<polygon fill="#4A4A51" points="392.5,250 428.5,236 434.5,250 399,261 	"/>
	<path fill="#4A4A51" d="M257,613c0,0-12-11.3-25.3,3.3c-13.3,14.7,10,39.3,23.3,39.3c13.3,0,22-18,22-18l-2.3-17.3l-18.3,18l-12-12
		L257,613z"/>
	<path fill="#4A4A51" d="M596.3,609l-73.3-6.7c0,0-18,16-7.3,19.3s77.3,18.7,77.3,18.7s-18.7,48.7-84,37.3
		c-65.3-11.3-53.3-74.7-50-83.3c3.3-8.7,17.3-62,77.3-51.3S596.3,609,596.3,609z"/>
	<path fill="#4A4A51" d="M1004,347c0,0-26-12-70-12s-89,14-89,14l10,24c19.1-6.7,63.3-12,84.7-12c101.6,0,190,100.4,190,202
		S1020,765.1,918.3,764.3c-84-0.7-192-94.4-192-196c0-70.6-4.7-130,99.3-186L821,371l-9-5c-18,2-93,72-110,145s21,147,21,147
		s99,176,270,114s159-208,159-208C1175,418,1004,347,1004,347z"/>
	<path fill="#4A4A51" d="M357,390.5c59.7,33.9,100,97.9,100,171.5c0,5.8-0.3,11.6-0.8,17.3c9.4,1.3,18.7,2.9,28,4.6
		c1.2-9.4,1.8-19.1,1.8-28.8c0-83-44.4-155.6-110.7-195.5c-4.2,8.4-9.5,16.2-14.8,24C359.4,385.8,358.2,388.2,357,390.5z"/>
	<path fill="#4A4A51" d="M451.9,611c0-0.2,0-0.4,0.1-0.6c-0.3,0-0.6-0.1-0.9-0.1C429.5,695.8,356.5,753,264.3,753
		C155.5,753,63,670.8,63,562s85.2-199,194-199c30.8,0,64.2,1.1,90.6,13c4.7-6.3,9.7-12.4,15-18.2c0.1-0.3,0.3-0.6,0.4-0.8
		c-32.6-18-74.8-17.3-114.7-17.3c-125.9,0-204.7,97.4-204.7,223.3s96.7,216.7,222.7,216.7c91.3,0,161.8-50.4,198.2-127.9
		C457,639.1,451.7,625.3,451.9,611z"/>
	<polygon fill="#9997A5" points="422.5,234.5 399.5,161.5 386.5,156 403.5,154 429,137.7 418.5,135.5 401,146.5 377.7,143.7 
		364.5,152.5 364.5,170 387.5,174.5 407,244 	"/>
	<polygon fill="#9997A5" points="270,573 283.5,607 256.3,638.3 244.3,626.3 268,605 244.5,579.5 	"/>
	<path fill="#9997A5" d="M531.5,600c25,0.5,101.5,25,101.5,25l37-19l10.5,13.5l-66.5,58l-17.5-24L612,642l-93-18.5c0,0-3.5-1.5-3-11
		S531.5,600,531.5,600z"/>
	<path fill="#9997A5" d="M797.5,214.5l-3.5-10l44-14.5c0,0-11.5-2-11.5-9.5s0-7.5,0-7.5l-38,7.5L786,174l-20.5,5v6l11.5,39.5
		L797.5,214.5z"/>
	<path fill="#9997A5" d="M834.5,334L912,534c0,0,22.5,29.5,22.5,39.5s-15.5,14-20,7s-21.5-48-21.5-48L807.5,339L834.5,334z"/>
	<path fill="#9997A5" d="M247.7,553c4.9-1.1,10.3,10.3,2.7,10.3C242.7,563.3,241.7,554.3,247.7,553z"/>
	<polygon fill="#9997A5" points="836,260 839.7,281 829.3,281.3 827,265.5 	"/>
	<path fill="#9997A5" d="M972.3,144.7c-13,0-11-2.7-15.7,0s-12,14.3-12,14.3s-2.3,19.3-2.3,25.7c0,6.3-3.7,65.7-3.7,65.7l8.7,9h9
		l6.7-5c0,0-13-5.7-13-19.8s7.5-38,7.5-38L950,171L972.3,144.7z"/>
	<g opacity="0.4">
		<path d="M341.3,374.7c-42.4-9.7-80.5-12.8-113.1-9.2c-28.9,3.2-54.5,11.7-75.9,25.3c-40.5,25.8-60.8,65.9-73.9,98
			c-1.3,3.1-5.3,7.8-2.2,9c0.7,0.3,7-0.7,7.7-0.7c2.4,0,4.6-1.4,5.6-3.7c12.5-30.4,31.6-68.5,69.2-92.4
			c19.9-12.6,43.7-20.5,70.8-23.5c31.3-3.4,68-0.4,109.1,9c3.2,0.7,6.4-1.3,7.2-4.5C346.6,378.6,344.6,375.4,341.3,374.7z"/>
		<path d="M442.5,573.2c-0.2,3.3,2.3,6.1,5.6,6.3c0.1,0,0.2,0,0.3,0c3.2,0,5.8-2.5,6-5.7c4.2-74.2-19.3-120.7-39.8-146.6
			c-14-17.8-28.6-28.6-37.6-34.2l12.1-19.3c1.8-2.8,0.9-6.5-1.9-8.3s-6.5-0.9-8.3,1.9l-12.7,20.2c-2.6-0.3-5.1,1.1-6.2,3.5
			c-1.3,2.9-0.1,6.3,2.7,7.7c0.5,0.9,1.2,1.7,2.1,2.3c1,0.6,2.1,0.9,3.2,0.9c0.2,0,0.4,0,0.6,0c7.7,4.6,22.4,14.7,36.7,32.8
			C424.5,459,446.5,502.7,442.5,573.2z"/>
		<path d="M452.5,617.5c2.8-0.2,5.2-2.4,5.5-5.3l2.5-24.5c0.3-3.3-2.1-6.2-5.4-6.6c-3.3-0.3-6.2,2.1-6.6,5.4L446,611v0.1l-5.5-0.5
			c-2.2-0.2-4.3,0.8-5.5,2.6s-1.4,4.1-0.4,6L451,677c1,2.1,4.3-19.5,6.5-19.5c0.8,0,1.5-0.1,2.3-0.5c2.9-1.2,4.4-4.5,3.4-7.4
			L452.5,617.5z"/>
		<path d="M268,572.3l-17,6c-3.1,1.1-4.8,4.5-3.7,7.7c0.9,2.5,3.2,4,5.7,4c0.7,0,7.3,4.7,8,4.5l11-10.8c3.1-1.1,4.8-4.5,3.7-7.7
			C274.6,572.9,271.1,571.2,268,572.3z"/>
		<path d="M272.9,624.4c-2.5-2.1-6.3-1.8-8.5,0.7l-10.3,12.1l-9.4-9.4c-2.3-2.3-2.2-5.1-4.6-2.8c-2.3,2.3-3.5,6.3-1.2,8.7l11.3,16.6
			c1.1,1.1,2.7,1.8,4.2,1.8c0.1,0,0.2,0,0.2,0c1.7-0.1,3.2-0.8,4.3-2.1l14.4-24.6C275.7,622.8,275.4,626.6,272.9,624.4z"/>
		<path d="M247.7,565c1,0.7,2.2,1,3.3,1c1.9,0,3.8-0.9,5-2.7c1.8-2.8,1.1-6.5-1.7-8.3l-3-2c-2.8-1.8-6.5-1.1-8.3,1.7
			s-1.1,6.5,1.7,8.3L247.7,565z"/>
		<path d="M563,608c1.8,0,3.6-0.6,5.1-1.7c3.8-2.8,4.5-8.1,1.7-11.9l-0.2-0.3c-0.2-0.2-0.4-0.5-0.6-0.7c-0.4-0.6-0.9-1.2-1.4-1.7
			l-0.1-0.1c-12-13.9-32.1-22-51.4-20.6c-14.4,1-25.8,7.3-32.3,17.6c-1.6,2.5-1.7,5.7-0.4,8.4c1.4,2.7-4.1,5.6-1.1,5.8
			c0,0,23.7-20,40-19.3C550,584.5,561.2,608,563,608z"/>
		<path d="M568.6,634.2l-49.5-13.5c-2.6-0.7-7.4-9.7-8.7-7.4c-1.4,2.3,1,15.3,2.8,17.3c0.3,0.3-1.7,20.1,8.9,26.1
			c8.1,4.6,24.9-5.1,30.7-5.1c8.1,0,14.1-3.4,18.3-7.1c1.6-1.5,2.3-3.7,1.8-5.8S570.7,634.8,568.6,634.2z"/>
		<path d="M674.7,619.3L616.3,655l-9.9-4.1c-2.2-2.4-6-2.6-8.5-0.3c-2.4,2.2-2.6,6-0.3,8.5l12,13c1.2,1.3,2.8,1.9,4.4,1.9
			c1.3,0,2.6-0.4,3.7-1.3l61.5-47.5c2.6-2,3.1-5.8,1.1-8.4C678.2,614.2,677.3,617.3,674.7,619.3z"/>
		<path d="M411.5,257.1c0-1.4-0.4-2.9-1.4-4.1l-6-7c-2.2-2.5-5.9-2.8-8.5-0.7c-2.5,2.2-2.8,5.9-0.7,8.5l6,7c1.2,1.4,2.9,2.1,4.6,2.1
			c1.2,0,2.5-0.4,3.5-1.2c0,0.7,0.1,1.3,0.3,2l7.8,24.8c-0.5-0.5-1.2-0.9-1.9-1.2c-3.1-1.2-6.6,0.3-7.8,3.4l-7,18
			c-1.2,3.1-12.5,35.5-9.4,36.7c0.7,0.3,14.3-28.5,15-28.5c2.4,0,4.7-1.5,5.6-3.8l7-18c0.1-0.3,0.2-0.6,0.3-0.9l77.9,247.5
			c0.8,2.6,3.2,4.2,5.7,4.2c0.6,0,1.2-0.1,1.8-0.3c3.2-1,4.9-4.4,3.9-7.5l-84.9-269.7l7.3,0.5c3.3,0.2,6.2-2.3,6.4-5.6
			c0.2-3.3-2.3-6.2-5.6-6.4l-16-1C414,255.9,412.6,256.3,411.5,257.1z"/>
		<path d="M412,247c0.3,0,10.7-11.9,11-12c2.1-0.6-11.4-2.4-12-4.5L392.5,172c-0.6-2.1,2.1-2.9,0-2.4c-2.1,0.6-3.4,2.8-2.8,4.9
			l18.5,69.5C408.6,245.8,410.2,247,412,247z"/>
		<path d="M365,161.5c0.7,0-0.2,8.9,0.5,8.5l14.2-14.5l22.4-0.5c0.7,0,1.5-0.2,2.1-0.6l20-13c1.9-1.2,2.4-3.7,1.2-5.5
			c-1.2-1.9-3.7-2.4-5.5-1.2l-19,12.4l-22.4,0.5c-0.7,0-1.4,0.2-2.1,0.6l-9.5,6c-1.9,1.2-2.4,3.6-1.2,5.5
			C366.4,160.8,363.7,161.5,365,161.5z"/>
		<path d="M445.5,283.4c0.8,1.4,2.3,2.3,3.9,2.1c122.4-12,308.2-28.6,322.7-25.9c4,3.5,8.5,19.8,10.5,33.5c0.3,2,2,3.4,4,3.4
			c0.2,0,0.4,0,0.6,0c2.2-0.3,3.7-2.3,3.4-4.5c-0.8-5.5-5.2-33-14.2-39.2c-2.5-1.7-6.2-4.3-168.1,10
			c-71.2,6.3-142.3,13.1-156.9,14.6l-3.7-7.1c-1-2-3.4-2.7-5.4-1.7s-2.7,3.4-1.7,5.4L445.5,283.4z"/>
		<path d="M799,342.7c1-1.1,7.1-13.5,7-15.1l-7.3-25.3c-0.2-2.7-2-8.1-4.7-8.3c-2.6-0.3-5,20.4-5.8,23c0,0.1-2.4,7.9-11.5,19
			c-37.6,45.8-131.6,156.1-174.5,204.6L581,563.8c-2,2.2-1.9,5.5,0.1,7.6c1.1,1.1,2.5,1.6,3.9,1.6c1.3,0,2.6-0.5,3.7-1.4
			c2.9-2.6,10.8-11.2,21.8-23.7L799,342.7z"/>
		<path d="M833.1,331.8l-20.5,7.5c-2.9,1-4.3,4.2-3.3,7.1c0.8,2.2,2.9,3.6,5.2,3.6c0.6,0,2.2,8.9,2.8,8.7l19.6-16.5
			c2.9-1,4.3-4.2,3.3-7.1C839.1,332.3,836,330.8,833.1,331.8z"/>
		<path d="M774.3,212c-1.9,2.3-1.6,5.8,0.7,7.7l3,2.5c1,0.9,2.3,1.3,3.5,1.3c1.6,0,3.1-0.7,4.2-2c1.9-2.3,1.6-5.8-0.7-7.7l-3-2.5
			C779.7,209.3,776.2,209.6,774.3,212z"/>
		<path d="M775.5,206.5c0.3,0,0.7,0,1-0.1l53-10c3-0.6,4.9-3.4,4.4-6.4s-10.5-17.7-10.2-14.6c1.5,15.2-48.1,26.9-53,23
			c-3,0.6-1.1,0.7-0.6,3.7C770.6,204.7,772.9,206.5,775.5,206.5z"/>
		<path d="M827,265.2l0.5,12c0.1,3,2.6,5.3,5.5,5.3c0.1,0,0.2,0,0.2,0c3-0.1,5.4-2.7,5.3-5.7l-0.5-12c-0.1-3-2.7-5.4-5.7-5.3
			C829.2,259.6,826.9,262.2,827,265.2z"/>
		<path d="M907,195c1.3,0,2.5-0.4,3.6-1.3c2.3-2,24.5-7.7,21.4-7.7c-16,0-37.7-20.4-39.3-23.2c-0.7-2.2-2.8-3.8-5.2-3.8
			c-3,0-5.5,2.5-5.5,5.5c0,2.2,0,4,20.8,28.6C903.9,194.3,905.4,195,907,195z"/>
		<path d="M815.4,367c-1.4-2.7-4.7-3.8-7.4-2.4s-3.8,4.7-2.4,7.4l1.1,22.7c-13.4,7-39.8,26.8-61.6,69.9c-1.4,2.7-6.8,5.6-4.1,7
			c0.8,0.4,8.2,1,9,1c2,0,3.9-1.1,4.9-3c24.7-49,70.3-69.2,70.8-69.4c1.4-0.6,2.5-1.8,3-3.2c0.5-1.4,0.4-3-0.3-4.4L815.4,367z"/>
		<path d="M1124.5,514.3c-7-25.2-23.6-53.9-49.2-85.6c-71.6-88.4-186.2-67.1-220.7-52.7c-3.8,1.6-5.6,6-4,9.8s6,5.6,9.8,4
			c14.2-5.9,41.3-17.7,81.6-13.9c47.3,4.5,93.3,27.3,121.7,62.2c56.1,69.3,49.1,103.1,49.1,103.4v-0.1l14.5,3.9
			C1127.5,544.3,1130,534,1124.5,514.3z"/>
		<path d="M899.9,521.6l-7.4,6c-2.6,2.1-3,5.9-0.9,8.4c1.2,1.5,2.9,2.2,4.7,2.2c1.3,0,2.7-0.4,3.8-1.3l7.4-6c2.6-2.1,3-5.9,0.9-8.4
			C906.3,519.9,902.5,519.6,899.9,521.6z"/>
	</g>
	<path opacity="0.4" fill="#FFFFFF" enable-background="new    " d="M294.3,115c0,0-2,11.3,4.3,15.7c6.3,4.3,131.3-0.3,137.3,1.7
		s39.7,5.3,39.7,5.3s3.7-17-15-17s-94,3.7-94,3.7L294.3,115z"/>
	<polygon opacity="0.4" fill="#FFFFFF" enable-background="new    " points="395,168 413,225 423,231.3 400,165 	"/>
	<polygon opacity="0.4" fill="#FFFFFF" enable-background="new    " points="418.3,241.7 423.3,250.7 434.5,250 428.5,236 	"/>
	<path fill="#FFFFFF" d="M455,267l3.7,4.7c0,0,308.3-29.7,318-28V235c0,0,18-9.3,21-6.3s31,101.3,31,101.3l8.3-2.7L802,216l-29.7,8
		l-0.3,9.5L452,265L455,267z"/>
	<path fill="#FFFFFF" d="M776.5,304c1.5,8-2.5,21-14,32.5S561,552.5,561,552.5l-4.5-4L776.5,304z"/>
	<path opacity="0.4" fill="#FFFFFF" enable-background="new    " d="M472.3,573c17.3-15.3,47.3-21.3,79.3-8.7
		c32,12.7,44.7,44.7,44.7,44.7s-1-47-39.8-60.5S493,547,493,547L472.3,573z"/>
	<polygon fill="#FFFFFF" points="448.5,586.4 436.3,591.7 283,565 298.3,563 	"/>
	<polygon fill="#FFFFFF" points="378.7,341 253.7,540.3 234.3,547.7 	"/>
</g>
<g id="vs-outline">
	
		<line id="XMLID_3_" fill="none" stroke="#000000" stroke-width="10" stroke-linecap="round" stroke-linejoin="round" stroke-miterlimit="10" x1="431.7" y1="251" x2="519" y2="539"/>
	
		<line id="XMLID_4_" fill="none" stroke="#000000" stroke-width="10" stroke-linecap="round" stroke-linejoin="round" stroke-miterlimit="10" x1="494.5" y1="546.5" x2="409" y2="260.3"/>
	
		<polygon id="XMLID_2_" fill="none" stroke="#000000" stroke-width="10" stroke-linecap="round" stroke-linejoin="round" stroke-miterlimit="10" points="
		397,262.3 435,250.7 429.7,235.3 392.7,250.7 	"/>
	
		<polyline id="XMLID_6_" fill="none" stroke="#000000" stroke-width="9" stroke-linecap="round" stroke-linejoin="round" stroke-miterlimit="10" points="
		423.3,234.3 400.7,162.3 380,158 380,146.3 	"/>
	
		<polyline id="XMLID_7_" fill="none" stroke="#000000" stroke-width="9" stroke-linecap="round" stroke-linejoin="round" stroke-miterlimit="10" points="
		364,153.3 364.3,172.3 386,173.7 406.7,243.3 	"/>
	
		<path id="XMLID_5_" fill="none" stroke="#000000" stroke-width="9" stroke-linecap="round" stroke-linejoin="round" stroke-miterlimit="10" d="
		M341.3,154c29.3,1.7,46.3-22.3,88-19s46,3.7,46,3.7s5.3-17.3-20.7-17.3s-26,0-26,0s-48.7,4-78,2.7c-18-0.8-56.3-7.7-56.3-7.7
		c-3,6.3,2,11.3,2,11.3S312.7,152.3,341.3,154z"/>
	
		<polyline id="XMLID_9_" fill="none" stroke="#000000" stroke-width="5" stroke-linecap="round" stroke-linejoin="round" stroke-miterlimit="10" points="
		429.7,137.3 403.3,154 383,154.7 	"/>
	
		<polyline id="XMLID_10_" fill="none" stroke="#000000" stroke-width="5" stroke-linecap="round" stroke-linejoin="round" stroke-miterlimit="10" points="
		382.7,148.3 400.7,147 417.7,136.7 	"/>
	
		<line id="XMLID_12_" fill="none" stroke="#000000" stroke-width="5" stroke-linecap="round" stroke-linejoin="round" stroke-miterlimit="10" x1="399.7" y1="165" x2="386" y2="173.7"/>
	
		<line id="XMLID_11_" fill="none" stroke="#000000" stroke-width="10" stroke-linecap="round" stroke-linejoin="round" stroke-miterlimit="10" x1="440.5" y1="266.5" x2="774" y2="233"/>
	
		<polyline id="XMLID_13_" fill="none" stroke="#000000" stroke-width="10" stroke-linecap="round" stroke-linejoin="round" stroke-miterlimit="10" points="
		777.5,241 772.5,224.5 803,215 838.5,330 805.5,339 801,328 	"/>
	
		<path id="XMLID_14_" fill="none" stroke="#000000" stroke-width="10" stroke-linecap="round" stroke-linejoin="round" stroke-miterlimit="10" d="
		M444.3,285.7c0,0,321.2-30.7,326.7-20.7s12,23,10,29.5S557,546,557,546"/>
	
		<line id="XMLID_15_" fill="none" stroke="#000000" stroke-width="10" stroke-linecap="round" stroke-linejoin="round" stroke-miterlimit="10" x1="587.5" y1="574.5" x2="800.5" y2="336.5"/>
	
		<line id="XMLID_16_" fill="none" stroke="#000000" stroke-width="6" stroke-linecap="round" stroke-linejoin="round" stroke-miterlimit="10" x1="782" y1="255.7" x2="797" y2="307.3"/>
	
		<polyline id="XMLID_17_" fill="none" stroke="#000000" stroke-width="7" stroke-linecap="round" stroke-linejoin="round" stroke-miterlimit="10" points="
		796.5,214.5 792.8,204.7 771.8,210.8 776,222.5 	"/>
	
		<path id="XMLID_18_" fill="none" stroke="#000000" stroke-width="8" stroke-linecap="round" stroke-linejoin="round" stroke-miterlimit="10" d="
		M879.5,160.8c-22-9-60.5,4-52.8,21s31.3,1.3,38.3,0.5s30.5,11.5,17.3,37.5s-47.3,42.8-52.5,42.8s-4.3,19.8,0.8,19.5
		s46.6-16.1,64-37.5c19.5-24,14.3-46.8,14.3-46.8"/>
	
		<path id="XMLID_19_" fill="none" stroke="#000000" stroke-width="8" stroke-linecap="round" stroke-linejoin="round" stroke-miterlimit="10" d="
		M881.3,161c10.5,2.8,42,4,45.8-5.8s8.5-22.8,22.3-22.8s25.3,5,23.8,12.8s-24,26.8-22.8,32s8.3,14.8,4.5,28.8s-10.5,37.5,3.5,46
		c14,8.5-5.8,10.8-14.8,4.3c-9-6.5-2.5-41.8-2.5-41.8l0.5-31l-39,12c0,0-10.4-10.7-13.1-14.8C886.8,176.8,881.3,161,881.3,161z"/>
	
		<path id="XMLID_20_" fill="none" stroke="#000000" stroke-width="4" stroke-linecap="round" stroke-linejoin="round" stroke-miterlimit="10" d="
		M971.8,145.5c-13-6.8-19.8-1.3-26,11"/>
	
		<path id="XMLID_21_" fill="none" stroke="#000000" stroke-width="4" stroke-linecap="round" stroke-linejoin="round" stroke-miterlimit="10" d="
		M837.3,264c-1.5,5,1.5,15,2.8,15"/>
	
		<polyline id="XMLID_8_" fill="none" stroke="#000000" stroke-width="8" stroke-linecap="round" stroke-linejoin="round" stroke-miterlimit="10" points="
		824.8,172 764.3,187.3 772.5,209.3 	"/>
	
		<line id="XMLID_23_" fill="none" stroke="#000000" stroke-width="8" stroke-linecap="round" stroke-linejoin="round" stroke-miterlimit="10" x1="788.3" y1="204.5" x2="848.3" y2="191"/>
	
		<polyline id="XMLID_24_" fill="none" stroke="#000000" stroke-width="5" stroke-linecap="round" stroke-linejoin="round" stroke-miterlimit="10" points="
		788.8,180.3 786.5,173.3 764.8,178.5 768,185.3 	"/>
	
		<path id="XMLID_22_" fill="none" stroke="#000000" stroke-width="10" stroke-linecap="round" stroke-linejoin="round" stroke-miterlimit="10" d="
		M836.5,332.5c0,0,59,175,73.5,197.5s31,42.6,22,48c-17.5,10.5-22.6-3.2-28-19.5C897.5,539,809,340,809,340"/>
	
		<path id="XMLID_25_" fill="none" stroke="#000000" stroke-width="4" stroke-linecap="round" stroke-linejoin="round" stroke-miterlimit="10" d="
		M917.7,562.3c5.3-2.5,10.7,7.3,6.3,9.2S911.2,565.3,917.7,562.3z"/>
	
		<path id="XMLID_26_" fill="none" stroke="#000000" stroke-width="4" stroke-linecap="round" stroke-linejoin="round" stroke-miterlimit="10" d="
		M924.2,559.3"/>
	
		<path id="XMLID_27_" fill="none" stroke="#000000" stroke-width="4" stroke-linecap="round" stroke-linejoin="round" stroke-miterlimit="10" d="
		M907,530.2"/>
	
		<line id="XMLID_29_" fill="none" stroke="#000000" stroke-width="4" stroke-linecap="round" stroke-linejoin="round" stroke-miterlimit="10" x1="895.5" y1="539" x2="908.3" y2="531.2"/>
	
		<line id="XMLID_30_" fill="none" stroke="#000000" stroke-width="4" stroke-linecap="round" stroke-linejoin="round" stroke-miterlimit="10" x1="905.5" y1="520.7" x2="892" y2="528.2"/>
	
		<path id="XMLID_28_" fill="none" stroke="#000000" stroke-width="10" stroke-linecap="round" stroke-linejoin="round" stroke-miterlimit="10" d="
		M813,365.7C552,523,787,895.7,1031,753s96.1-492.4-183.3-402.7"/>
	
		<path id="XMLID_31_" fill="none" stroke="#000000" stroke-width="10" stroke-linecap="round" stroke-linejoin="round" stroke-miterlimit="10" d="
		M823,383c-233,119-12.3,503.6,207,342c232-171,7-432-176-351"/>
	
		<path id="XMLID_32_" fill="none" stroke="#000000" stroke-width="5" stroke-linecap="round" stroke-linejoin="round" stroke-miterlimit="10" d="
		M830.6,396.2c-215.8,110.2-11.4,466.3,191.7,316.7c214.8-158.3,6.5-400-163-325"/>
	
		<line id="XMLID_39_" fill="none" stroke="#000000" stroke-width="5" stroke-linecap="round" stroke-linejoin="round" stroke-miterlimit="10" x1="930.4" y1="556.6" x2="1096.3" y2="482.3"/>
	
		<line id="XMLID_37_" fill="none" stroke="#000000" stroke-width="5" stroke-linecap="round" stroke-linejoin="round" stroke-miterlimit="10" x1="758.3" y1="633.7" x2="905" y2="568"/>
	
		<line id="XMLID_40_" fill="none" stroke="#000000" stroke-width="5" stroke-linecap="round" stroke-linejoin="round" stroke-miterlimit="10" x1="913.6" y1="579.4" x2="855.7" y2="733"/>
	
		<line id="XMLID_34_" fill="none" stroke="#000000" stroke-width="5" stroke-linecap="round" stroke-linejoin="round" stroke-miterlimit="10" x1="986.3" y1="386.3" x2="925" y2="549.1"/>
	
		<line id="XMLID_36_" fill="none" stroke="#000000" stroke-width="5" stroke-linecap="round" stroke-linejoin="round" stroke-miterlimit="10" x1="997" y1="729" x2="931.7" y2="580.3"/>
	
		<line id="XMLID_38_" fill="none" stroke="#000000" stroke-width="5" stroke-linecap="round" stroke-linejoin="round" stroke-miterlimit="10" x1="899.9" y1="553.5" x2="745.7" y2="497.7"/>
	
		<line id="XMLID_33_" fill="none" stroke="#000000" stroke-width="5" stroke-linecap="round" stroke-linejoin="round" stroke-miterlimit="10" x1="1095.7" y1="624.3" x2="934.3" y2="565.9"/>
	
		<path id="XMLID_35_" fill="none" stroke="#000000" stroke-width="10" stroke-linecap="round" stroke-linejoin="round" stroke-miterlimit="10" d="
		M597,613c7-61.5-115-113.5-138-16c-24.5,103.8,124.5,99.5,132.5,42"/>
	
		<path id="XMLID_64_" fill="none" stroke="#000000" stroke-width="10" stroke-linecap="round" stroke-linejoin="round" stroke-miterlimit="10" d="
		M635.7,624c-36-13.3-95.7-20-106.2-22s-24.5,18.5-5.5,22s69.8,16.5,86.3,18"/>
	
		<path id="XMLID_42_" fill="none" stroke="#000000" stroke-width="7" stroke-linecap="round" stroke-linejoin="round" stroke-miterlimit="10" d="
		M571,606c2.5-21-72-69-91-0.5s85.5,61,91,30.5"/>
	
		<path id="XMLID_44_" fill="none" stroke="#000000" stroke-width="10" stroke-linecap="round" stroke-linejoin="round" stroke-miterlimit="10" d="
		M460,583c0,0-168.5-20-175-23s-25.5-6-15.5-21S418,299.5,418,299.5"/>
	
		<path id="XMLID_43_" fill="none" stroke="#000000" stroke-width="10" stroke-linecap="round" stroke-linejoin="round" stroke-miterlimit="10" d="
		M411,286L236.5,545.5l-15,21c0,0,16.5,21,42.5,6c7-4,189,40,189,40"/>
	
		<path id="XMLID_51_" fill="none" stroke="#000000" stroke-width="10" stroke-linecap="round" stroke-linejoin="round" stroke-miterlimit="10" d="
		M461.6,650.7c-29.3,70.4-92.1,125.5-186.2,128.3c-292.7,8.7-321.3-426.7-24-440.7c42.4-2,78.8,4.9,109.3,18.2"/>
	
		<path id="XMLID_45_" fill="none" stroke="#000000" stroke-width="10" stroke-linecap="round" stroke-linejoin="round" stroke-miterlimit="10" d="
		M380.1,366.3c67.8,39.2,100.6,113.5,100.4,188.4"/>
	
		<path id="XMLID_50_" fill="none" stroke="#000000" stroke-width="10" stroke-linecap="round" stroke-linejoin="round" stroke-miterlimit="10" d="
		M451,614.4c-20.4,75.4-80,139-176.1,141.9c-262.4,7.8-288.1-382.6-21.5-395.1c37-1.7,68.8,4,95.6,15.3"/>
	
		<path id="XMLID_46_" fill="none" stroke="#000000" stroke-width="10" stroke-linecap="round" stroke-linejoin="round" stroke-miterlimit="10" d="
		M367.3,385.4c69.8,39.4,98.8,120.1,90,196.1"/>
	
		<path id="XMLID_49_" fill="none" stroke="#000000" stroke-width="5" stroke-linecap="round" stroke-linejoin="round" stroke-miterlimit="10" d="
		M436.6,611.3c-19.1,69.3-74.2,127.6-162.7,130.2C31,748.7,7.2,387.4,254,375.8c32.4-1.5,60.5,3.2,84.4,12.5"/>
	
		<path id="XMLID_47_" fill="none" stroke="#000000" stroke-width="5" stroke-linecap="round" stroke-linejoin="round" stroke-miterlimit="10" d="
		M359.3,398.2c64.4,36.3,91.4,110.4,83.6,180.6"/>
	
		<polyline id="XMLID_52_" fill="none" stroke="#000000" stroke-width="9" stroke-linecap="round" stroke-linejoin="round" stroke-miterlimit="10" points="
		272,575 284.7,607 254.7,638.7 243,628.3 269,605 241.3,578.7 	"/>
	
		<path id="XMLID_48_" fill="none" stroke="#000000" stroke-width="7" stroke-linecap="round" stroke-linejoin="round" stroke-miterlimit="10" d="
		M260,611.7c-22-14.7-48.3,13-20.3,37.3c22.7,19.7,45.3-8,33.3-26.7"/>
	
		<line id="XMLID_54_" fill="none" stroke="#000000" stroke-width="7" stroke-linecap="round" stroke-linejoin="round" stroke-miterlimit="10" x1="248" y1="655" x2="530.7" y2="679"/>
	
		<line id="XMLID_55_" fill="none" stroke="#000000" stroke-width="4" stroke-linecap="round" stroke-linejoin="round" stroke-miterlimit="10" x1="518" y1="542.3" x2="270" y2="550.7"/>
	
		<path id="XMLID_53_" fill="none" stroke="#000000" stroke-width="7" stroke-linecap="round" stroke-linejoin="round" stroke-miterlimit="10" d="
		M245,554c5.1-5.7,15,6.3,8,9S237.3,562.7,245,554z"/>
	
		<line id="XMLID_60_" fill="none" stroke="#000000" stroke-width="4" stroke-linecap="round" stroke-linejoin="round" stroke-miterlimit="10" x1="228.5" y1="575" x2="105.5" y2="648"/>
	
		<line id="XMLID_56_" fill="none" stroke="#000000" stroke-width="4" stroke-linecap="round" stroke-linejoin="round" stroke-miterlimit="10" x1="427" y1="473" x2="277.2" y2="554.5"/>
	
		<polyline id="XMLID_59_" fill="none" stroke="#000000" stroke-width="4" stroke-linecap="round" stroke-linejoin="round" stroke-miterlimit="10" points="
		125.5,432.5 233,545.5 81.5,537 	"/>
	
		<line id="XMLID_58_" fill="none" stroke="#000000" stroke-width="5" stroke-linecap="round" stroke-linejoin="round" stroke-miterlimit="10" x1="226.5" y1="382.5" x2="242" y2="533"/>
	
		<line id="XMLID_61_" fill="none" stroke="#000000" stroke-width="4" stroke-linecap="round" stroke-linejoin="round" stroke-miterlimit="10" x1="186" y1="722" x2="235" y2="580.5"/>
	
		<line id="XMLID_62_" fill="none" stroke="#000000" stroke-width="4" stroke-linecap="round" stroke-linejoin="round" stroke-miterlimit="10" x1="295.5" y1="738" x2="274.5" y2="647"/>
	
		<line id="XMLID_63_" fill="none" stroke="#000000" stroke-width="4" stroke-linecap="round" stroke-linejoin="round" stroke-miterlimit="10" x1="394" y1="687.5" x2="284.7" y2="607"/>
	
		<polygon id="XMLID_1_" fill="none" stroke="#000000" stroke-width="10" stroke-linecap="round" stroke-linejoin="round" stroke-miterlimit="10" points="
		666.7,606.3 595.3,654 612.7,676 682.3,619.3 	"/>
	
		<path id="XMLID_57_" fill="none" stroke="#000000" stroke-width="10" stroke-linecap="round" stroke-linejoin="round" stroke-miterlimit="10" d="
		M632,631.7c4.2-2.4,25.3,0,16.3,10.3S619.1,638.9,632,631.7z"/>
</g>
<g id="vs-reveal">
	
		<path fill="none" stroke="#0C0CED" stroke-width="97" stroke-linecap="round" stroke-linejoin="round" stroke-miterlimit="10" stroke-opacity="0" d="
		M393.6,142.6c-118.5-22.5-384,370.5-354,412.5s373.5-442.4,411-421.5c102,57-394.6,475.9-374.5,515.5
		c42,82.5,399.2-425.5,511-413.5c80.1,8.6-507,498-441,513c79.1,18,595.5-598.5,676.5-595.5C866.5,154.7,207,762.3,271,767
		c97.1,7.1,646.1-647.9,676.1-601.9S479,677,517,693s428-382,472-350S689,607,733,665s308-324,354-260S755,719,815,739
		s349.1-303.4,351.1-251.4s-293.4,270.8-265.5,273c96,7.5,241.5-166.5,241.5-166.5"/>
</g>
</svg>
