<?xml version="1.0" encoding="utf-8"?>
<!-- Generator: Adobe Illustrator 22.1.0, SVG Export Plug-In . SVG Version: 6.00 Build 0)  -->
<svg version="1.1" id="Layer_1" xmlns="http://www.w3.org/2000/svg" xmlns:xlink="http://www.w3.org/1999/xlink" x="0px" y="0px"
	 width="981px" height="535.5px" viewBox="0 0 981 535.5" enable-background="new 0 0 981 535.5" xml:space="preserve">
<g id="vs-highlight">
	<g>
		<path fill="#5DBFD9" d="M73.7,353.4c0.5,2.2,2.2,4.1,4.5,4.9c0.8,0.3,1.5,0.4,2.3,0.4c2.9,0,5.6-1.8,6.6-4.7l6.7-19.1l83.8-0.9
			c3.9,0,7-3.2,6.9-7.1c0-0.9-0.2-1.7-0.5-2.4c0.5-0.9,0.7-1.9,0.8-3c0.1-3.9-3-7.1-6.8-7.2L76.7,312c-1.9,0-3.8,0.7-5.2,2.1
			s-2.1,3.3-2,5.2l1.3,28.7C70.9,350.2,72,352.2,73.7,353.4z"/>
		<path fill="#5DBFD9" d="M250.5,381.7l-36.7,3.5L46.4,369.7c-3.8-0.4-7.3,2.5-7.6,6.3s2.5,7.3,6.3,7.6l168,15.6c0.2,0,0.4,0,0.6,0
			c0.2,0,0.4,0,0.7,0l37.4-3.6c3.8-0.4,6.7-3.8,6.3-7.6C257.8,384.2,254.4,381.4,250.5,381.7z"/>
		<path fill="#5DBFD9" d="M91,395.6c-31.3-3.3-32.2-3.3-32.5-3.3c-2.8,0-5,2.2-5,5c0,2.7,2.1,4.9,4.8,5c1.5,0.1,16.3,1.6,27.6,2.8
			l1.3,13.9c0.2,2.6,2.4,4.5,5,4.5c0.2,0,0.3,0,0.5,0c2.7-0.3,4.8-2.7,4.5-5.4l-1.7-18C95.3,397.8,93.4,395.9,91,395.6z"/>
		<path fill="#5DBFD9" d="M204.1,414.5c-0.4-2.2-2.2-4-4.5-4.2l-38-3.6c-2.8-0.3-5.2,1.8-5.4,4.5c-0.3,2.7,1.8,5.2,4.5,5.4l34.2,3.2
			l2.7,16.2c0.4,2.4,2.5,4.2,4.9,4.2c0.3,0,0.5,0,0.8-0.1c2.7-0.5,4.6-3,4.1-5.7L204.1,414.5z"/>
		<path fill="#5DBFD9" d="M91.3,291c0.1,0,0.1,0,0.2,0c4.1,0,7.4-3.3,7.5-7.3c0-0.3,0.7-28.7,4.1-61.2c4.2-39.3,10.7-67.7,18.8-82.7
			l69-3.8c4.1-0.2,7.3-3.8,7.1-7.9c-0.2-4.1-3.7-7.3-7.9-7.1l-73,4c-2.4,0.1-4.6,1.4-5.9,3.4c-10.4,16.1-18.1,47.2-23,92.4
			C84.7,254,84,283.1,84,283.3C83.9,287.5,87.2,290.9,91.3,291z"/>
		<path fill="#5DBFD9" d="M338.2,247.1c-1.4-1.4-3.3-2.2-5.3-2.1l-69.5,1c-4.1,0.1-7.5,3.5-7.4,7.6s3.4,7.5,7.6,7.4l62-0.9l2.4,178
			c0.1,4.1,3.4,7.4,7.5,7.4h0.1c4.1-0.1,7.5-3.5,7.4-7.6l-2.5-185.5C340.5,250.4,339.7,248.5,338.2,247.1z"/>
		<path fill="#5DBFD9" d="M393.8,448.6c-1-4-5.1-6.4-9.1-5.4s-6.4,5.1-5.4,9.1l8.5,33c0.9,3.4,3.9,5.6,7.3,5.6
			c0.6,0,1.2-0.1,1.9-0.2c4-1,6.4-5.1,5.4-9.1L393.8,448.6z"/>
		<path fill="#5DBFD9" d="M444.1,390.8c-3.8-1.7-8-1.1-11.7,1.8c-10.8,8.4-12.6,17.8-12.8,19.3c-2.9,1-5,3.7-5.1,7
			c-0.1,4.1,3.2,7.6,7.4,7.6l25.5,0.5h0.1c2,0,4-0.8,5.4-2.3s2.2-3.5,2.1-5.6C454.4,408.2,452,394.5,444.1,390.8z"/>
		<path fill="#5DBFD9" d="M933,284.5c4.1-0.3,7.2-3.9,6.9-8s-3.9-7.3-8-6.9l-345.3,24.7c-3.9-2.3-8.8-1.9-12.3,0.9l-34.4,2.5
			c-2.2,0.2-4.2,1.2-5.5,3L475,380c-2.5,3.3-1.8,8,1.5,10.5c1.3,1,2.9,1.5,4.5,1.5c2.3,0,4.5-1,6-3l57.4-76.8l16.3-1.2l-72.2,87
			c-3.9,4.7-3.2,11.6,1.4,15.5c2.1,1.7,4.5,2.5,7,2.5c3.2,0,6.3-1.4,8.5-4l84.2-101.3c0.5-0.6,0.9-1.2,1.2-1.8L933,284.5z"/>
		<path fill="#5DBFD9" d="M760.5,421.4c-1-2.8-3.7-4.8-6.7-4.9l-9.7-0.5c-4.1-0.2-7.7,3-7.9,7.1s3,7.7,7.1,7.9l4.7,0.2l4.3,11.8
			c1.1,3,4,4.9,7,4.9c0.9,0,1.7-0.1,2.6-0.5c3.9-1.4,5.9-5.7,4.5-9.6L760.5,421.4z"/>
		<path fill="#5DBFD9" d="M791.5,375.8c-1.8-0.9-6.6-2.4-11.8,3.2c-8.7,9.6-8.1,18-7.9,19.5c0.5,3.7,3.7,6.5,7.4,6.5
			c0.1,0,0.3,0,0.4,0l8.8-0.5c3.4-0.2,6.3-2.7,6.9-6.1C797.4,388.6,798.2,379.1,791.5,375.8z"/>
		<path fill="#5DBFD9" d="M947.4,352.7c-2.4-5.3-8.6-7.6-13.9-5.2l-76.1,34.4l-24.2,0.6c-5.8,0.2-10.4,5-10.2,10.8
			c0.2,5.7,4.8,10.2,10.5,10.2c0.1,0,0.2,0,0.3,0l26.3-0.7c1.4,0,2.8-0.4,4-0.9l78-35.3C947.4,364.2,949.8,358,947.4,352.7z"/>
		<path fill="#5DBFD9" d="M502.9,198.7c0.1,0,0.2,0,0.3,0c4.8,0,8.8-3.9,9-8.7l2.6-85.6c0.8,0.2,1.6,0.3,2.4,0.3c0.1,0,0.1,0,0.2,0
			l84.4-1.5l3.7,83.5c0.2,4.8,4.2,8.6,9,8.6c0.1,0,0.3,0,0.4,0c5-0.2,8.8-4.4,8.6-9.4l-3.7-83l95.7-1.7l0.7,76.5
			c0,4.9,4.1,8.9,9,8.9h0.1c5,0,9-4.1,8.9-9.1l-0.7-76.7l84.7-1.5v72.8c0,5,4,9,9,9s9-4,9-9v-82c0-2.4-1-4.7-2.7-6.4
			c-1.7-1.7-4-2.6-6.5-2.6l-310,5.4c-4.5,0.1-8.1,3.4-8.7,7.7c-0.7-0.2-1.5-0.3-2.2-0.4c-5-0.1-9.1,3.8-9.3,8.7l-2.6,86.7
			C494.1,194.4,498,198.6,502.9,198.7z"/>
		<path fill="#5DBFD9" d="M391,201.4l60-106c1.6-2.8,1.6-6.2-0.1-9c-1.6-2.8-4.6-4.5-7.8-4.5h-64c-5,0-9,4-9,9s4,9,9,9h48.6
			l-52.4,92.6c-2.4,4.3-0.9,9.8,3.4,12.3c1.4,0.8,2.9,1.2,4.4,1.2C386.3,206,389.4,204.4,391,201.4z"/>
		<path fill="#5DBFD9" d="M263.7,156.6c1.5,0.9,3.2,1.4,4.8,1.4c3,0,5.9-1.5,7.6-4.2l41.3-65.3c2.7-4.2,1.4-9.8-2.8-12.4
			c-4.2-2.7-9.8-1.4-12.4,2.8l-41.3,65.3C258.2,148.4,259.5,154,263.7,156.6z"/>
	</g>
</g>
<g id="vs-outline">
	
		<path id="XMLID_5_" fill="none" stroke="#000000" stroke-width="17" stroke-linecap="round" stroke-linejoin="round" stroke-miterlimit="10" d="
		M41.6,430.6l181.5,28.5L385.2,443c0,0-2-69.3,47.3-72c61.5-3.3,63.5,62,63.5,62l245.5-23.4c0,0,1.7-46.9,39.4-47.9
		c45.1-1.2,49.7,39.4,49.7,39.4l34.4-3.3l79.1-32.3c0,0-9.9-240.9-18.9-282.9S783.1,44.5,783.1,44.5S314,49,291.5,49
		s-77.4,32.1-74.4,191.1s7.5,211.5,7.5,211.5"/>
	
		<path id="XMLID_1_" fill="none" stroke="#000000" stroke-width="17" stroke-linecap="round" stroke-linejoin="round" stroke-miterlimit="10" d="
		M279.5,50c-129,11-174.9,23.6-174.9,23.6s-80.1,35.9-62.1,352.9"/>
	
		<path id="XMLID_6_" fill="none" stroke="#000000" stroke-width="17" stroke-linecap="round" stroke-linejoin="round" stroke-miterlimit="10" d="
		M463.5,376.5c7.5,9.5,20,33.5,18,65s-30,53.3-40.3,53.3c-6.5,0-39.1,1.9-43.8-2c-6-5-22-24.3-22-42.8"/>
	
		<path id="XMLID_8_" fill="none" stroke="#000000" stroke-width="13" stroke-linecap="round" stroke-linejoin="round" stroke-miterlimit="10" d="
		M436.8,469.3c30.1-1.5,26.1-81.6-1-81.3C411,388.3,400.4,471.2,436.8,469.3z"/>
	
		<path id="XMLID_9_" fill="none" stroke="#000000" stroke-width="9" stroke-linecap="round" stroke-linejoin="round" stroke-miterlimit="10" d="
		M397.5,459c-0.3,7.5,4,32,24.8,32"/>
	
		<path id="XMLID_10_" fill="none" stroke="#000000" stroke-width="9" stroke-linecap="round" stroke-linejoin="round" stroke-miterlimit="10" d="
		M436.8,405.8c6.3,0,12.8,42,2.3,43.8"/>
	
		<path id="XMLID_11_" fill="none" stroke="#000000" stroke-width="17" stroke-linecap="round" stroke-linejoin="round" stroke-miterlimit="10" d="
		M811.8,370.5c15.7,12.8,3.7,75.5-25.3,76.3c-10.5,0.3-24.5,0.3-29.5-0.8s-19.3-18.3-19-32.5"/>
	
		<path id="XMLID_7_" fill="none" stroke="#000000" stroke-width="9" stroke-linecap="round" stroke-linejoin="round" stroke-miterlimit="10" d="
		M786,377.3c13.2-0.4,16.8,48-1.3,49S770.5,377.8,786,377.3z"/>
	
		<path id="XMLID_13_" fill="none" stroke="#000000" stroke-width="5" stroke-linecap="round" stroke-linejoin="round" stroke-miterlimit="10" d="
		M784.5,389.2c3.8,0.7,5,25.5,0.7,25.3"/>
	
		<path id="XMLID_14_" fill="none" stroke="#000000" stroke-width="5" stroke-linecap="round" stroke-linejoin="round" stroke-miterlimit="10" d="
		M756.5,420.5c0,0,0.8,21.5,18.2,21"/>
	
		<polyline id="XMLID_15_" fill="none" stroke="#000000" stroke-width="17" stroke-linecap="round" stroke-linejoin="round" stroke-miterlimit="10" points="
		345.5,440 344.5,239.3 257.2,241 257.5,450 	"/>
	
		<line id="XMLID_16_" fill="none" stroke="#000000" stroke-width="9" stroke-linecap="round" stroke-linejoin="round" stroke-miterlimit="10" x1="327.8" y1="443.3" x2="323.8" y2="244.7"/>
	
		<polygon id="XMLID_12_" fill="none" stroke="#000000" stroke-width="11" stroke-linecap="round" stroke-linejoin="round" stroke-miterlimit="10" points="
		292.5,219.3 380.5,83.3 471.5,84.3 402.2,198.7 348.2,202 339.2,219 	"/>
	
		<path id="XMLID_18_" fill="none" stroke="#000000" stroke-width="11" stroke-linecap="round" stroke-linejoin="round" stroke-miterlimit="10" d="
		M338.8,80c0,0-43.3-10.7-61.7,16.3s-12,89.7-12,89.7L338.8,80z"/>
	
		<line id="XMLID_19_" fill="none" stroke="#000000" stroke-width="7" stroke-linecap="round" stroke-linejoin="round" stroke-miterlimit="10" x1="452.5" y1="86.3" x2="390.2" y2="197"/>
	
		<line id="XMLID_20_" fill="none" stroke="#000000" stroke-width="7" stroke-linecap="round" stroke-linejoin="round" stroke-miterlimit="10" x1="322.5" y1="80.3" x2="266.2" y2="163.3"/>
	
		<polygon id="XMLID_17_" fill="none" stroke="#000000" stroke-width="11" stroke-linecap="round" stroke-linejoin="round" stroke-miterlimit="10" points="
		509.5,88 846.5,84.3 847.8,175 444.5,199 	"/>
	
		<line id="XMLID_22_" fill="none" stroke="#000000" stroke-width="7" stroke-linecap="round" stroke-linejoin="round" stroke-miterlimit="10" x1="511.8" y1="92.3" x2="510.5" y2="190.3"/>
	
		<line id="XMLID_23_" fill="none" stroke="#000000" stroke-width="7" stroke-linecap="round" stroke-linejoin="round" stroke-miterlimit="10" x1="523.8" y1="92.3" x2="522.5" y2="191"/>
	
		<line id="XMLID_24_" fill="none" stroke="#000000" stroke-width="7" stroke-linecap="round" stroke-linejoin="round" stroke-miterlimit="10" x1="617.8" y1="89" x2="620.5" y2="185"/>
	
		<line id="XMLID_25_" fill="none" stroke="#000000" stroke-width="7" stroke-linecap="round" stroke-linejoin="round" stroke-miterlimit="10" x1="632.5" y1="184.3" x2="629.8" y2="91"/>
	
		<line id="XMLID_26_" fill="none" stroke="#000000" stroke-width="7" stroke-linecap="round" stroke-linejoin="round" stroke-miterlimit="10" x1="733.2" y1="89" x2="733.8" y2="178.3"/>
	
		<line id="XMLID_27_" fill="none" stroke="#000000" stroke-width="7" stroke-linecap="round" stroke-linejoin="round" stroke-miterlimit="10" x1="745.2" y1="178.3" x2="744.5" y2="90.3"/>
	
		<line id="XMLID_28_" fill="none" stroke="#000000" stroke-width="7" stroke-linecap="round" stroke-linejoin="round" stroke-miterlimit="10" x1="833.5" y1="87.7" x2="833.5" y2="175"/>
	
		<polyline id="XMLID_21_" fill="none" stroke="#000000" stroke-width="7" stroke-linecap="round" stroke-linejoin="round" stroke-miterlimit="10" points="
		938.5,317.7 773.8,335 776.5,358.3 	"/>
	
		<polyline id="XMLID_29_" fill="none" stroke="#000000" stroke-width="7" stroke-linecap="round" stroke-linejoin="round" stroke-miterlimit="10" points="
		40.8,379.8 219.2,399.7 255.8,395.7 	"/>
	
		<polyline id="XMLID_30_" fill="none" stroke="#000000" stroke-width="7" stroke-linecap="round" stroke-linejoin="round" stroke-miterlimit="10" points="
		451.8,367 516.5,275.7 931.5,252 	"/>
	
		<polyline id="XMLID_31_" fill="none" stroke="#000000" stroke-width="7" stroke-linecap="round" stroke-linejoin="round" stroke-miterlimit="10" points="
		937.5,271 537.5,297 477.5,379 	"/>
	
		<line id="XMLID_33_" fill="none" stroke="#000000" stroke-width="7" stroke-linecap="round" stroke-linejoin="round" stroke-miterlimit="10" x1="490.5" y1="400" x2="569.5" y2="299"/>
	
		<path id="XMLID_34_" fill="none" stroke="#000000" stroke-width="14" stroke-linecap="round" stroke-linejoin="round" stroke-miterlimit="10" d="
		M203,118.5l-107,5c0,0-28,48-29.5,164l124,5.5C190.5,293,183.5,155.5,203,118.5z"/>
	
		<path id="XMLID_35_" fill="none" stroke="#000000" stroke-width="7" stroke-linecap="round" stroke-linejoin="round" stroke-miterlimit="10" d="
		M110.5,127.7c-7,14-28,66-25.7,157.3"/>
	
		<line id="XMLID_36_" fill="none" stroke="#000000" stroke-width="7" stroke-linecap="round" stroke-linejoin="round" stroke-miterlimit="10" x1="95.2" y1="288" x2="119.2" y2="270.3"/>
	
		<line id="XMLID_37_" fill="none" stroke="#000000" stroke-width="7" stroke-linecap="round" stroke-linejoin="round" stroke-miterlimit="10" x1="106.2" y1="265" x2="139.5" y2="277.3"/>
	
		<path id="XMLID_32_" fill="none" stroke="#000000" stroke-width="7" stroke-linecap="round" stroke-linejoin="round" stroke-miterlimit="10" d="
		M203.2,411.7c2.1,1.6,5.7,25.7,2.7,26.3s-46-5.3-46.7-6.7c-0.7-1.3-2.3-22.7-0.7-24.7S201.8,410.7,203.2,411.7z"/>
	
		<path id="XMLID_38_" fill="none" stroke="#000000" stroke-width="7" stroke-linecap="round" stroke-linejoin="round" stroke-miterlimit="10" d="
		M57.2,393c1.4-4.3,36,3.3,37.3,5s4.3,24,1,24s-37-4.3-38-5.3S56.5,395,57.2,393z"/>
	
		<polygon id="XMLID_39_" fill="none" stroke="#000000" stroke-width="7" stroke-linecap="round" stroke-linejoin="round" stroke-miterlimit="10" points="
		72.2,311.7 181.8,316.7 181.5,355.3 159.8,381 93.8,374.3 71.8,346.7 	"/>
	
		<line id="XMLID_41_" fill="none" stroke="#000000" stroke-width="7" stroke-linecap="round" stroke-linejoin="round" stroke-miterlimit="10" x1="83.5" y1="316" x2="82.5" y2="354"/>
	
		<path id="XMLID_42_" fill="none" stroke="#000000" stroke-width="7" stroke-linecap="round" stroke-linejoin="round" stroke-miterlimit="10" d="
		M96.2,372.7c0-1,1-59,1-59"/>
	
		<line id="XMLID_43_" fill="none" stroke="#000000" stroke-width="7" stroke-linecap="round" stroke-linejoin="round" stroke-miterlimit="10" x1="116.2" y1="315.7" x2="115.2" y2="373.7"/>
	
		<line id="XMLID_44_" fill="none" stroke="#000000" stroke-width="7" stroke-linecap="round" stroke-linejoin="round" stroke-miterlimit="10" x1="134.5" y1="377" x2="135.8" y2="317"/>
	
		<line id="XMLID_45_" fill="none" stroke="#000000" stroke-width="7" stroke-linecap="round" stroke-linejoin="round" stroke-miterlimit="10" x1="156.5" y1="318" x2="155.8" y2="378"/>
	
		<path id="XMLID_46_" fill="none" stroke="#000000" stroke-width="7" stroke-linecap="round" stroke-linejoin="round" stroke-miterlimit="10" d="
		M171.2,364.3c0-1.7-1-47.7-1-47.7"/>
</g>
<g id="vs-h-reveal" opacity="0">
	
		<polyline id="XMLID_62_" fill="none" stroke="#5DBFD9" stroke-width="14" stroke-linecap="round" stroke-linejoin="round" stroke-miterlimit="10" points="
		177.8,321.3 76.5,319 77.8,347.7 	"/>
	
		<polyline id="XMLID_61_" fill="none" stroke="#5DBFD9" stroke-width="14" stroke-linecap="round" stroke-linejoin="round" stroke-miterlimit="10" points="
		80.5,351.7 88.8,328 177.5,327 	"/>
	
		<polyline id="XMLID_60_" fill="none" stroke="#5DBFD9" stroke-width="14" stroke-linecap="round" stroke-linejoin="round" stroke-miterlimit="10" points="
		45.8,376.7 213.8,392.3 251.2,388.7 	"/>
	
		<path id="XMLID_59_" fill="none" stroke="#5DBFD9" stroke-width="10" stroke-linecap="round" stroke-linejoin="round" stroke-miterlimit="10" d="
		M58.5,397.3c1,0,32,3.3,32,3.3l1.7,18"/>
	
		<polyline id="XMLID_58_" fill="none" stroke="#5DBFD9" stroke-width="10" stroke-linecap="round" stroke-linejoin="round" stroke-miterlimit="10" points="
		161.2,411.7 199.2,415.3 202.5,435.3 	"/>
	
		<path id="XMLID_57_" fill="none" stroke="#5DBFD9" stroke-width="15" stroke-linecap="round" stroke-linejoin="round" stroke-miterlimit="10" d="
		M91.5,283.5c0,0,2.5-114.5,26-151l73-4"/>
	
		<polyline id="XMLID_56_" fill="none" stroke="#5DBFD9" stroke-width="15" stroke-linecap="round" stroke-linejoin="round" stroke-miterlimit="10" points="
		263.5,253.5 333,252.5 335.5,438 	"/>
	
		<line id="XMLID_55_" fill="none" stroke="#5DBFD9" stroke-width="15" stroke-linecap="round" stroke-linejoin="round" stroke-miterlimit="10" x1="386.5" y1="450.5" x2="395" y2="483.5"/>
	
		<path id="XMLID_54_" fill="none" stroke="#5DBFD9" stroke-width="15" stroke-linecap="round" stroke-linejoin="round" stroke-miterlimit="10" d="
		M422,419l25.5,0.5c0,0-1.5-28-10.5-21S427,413,427,413l11.5-3.5"/>
	
		<line id="XMLID_53_" fill="none" stroke="#5DBFD9" stroke-width="22" stroke-linecap="round" stroke-linejoin="round" stroke-miterlimit="10" x1="497" y1="405" x2="581.2" y2="303.7"/>
	
		<polyline id="XMLID_52_" fill="none" stroke="#5DBFD9" stroke-width="15" stroke-linecap="round" stroke-linejoin="round" stroke-miterlimit="10" points="
		481,384.5 540.5,305 932.5,277 	"/>
	
		<polyline id="XMLID_51_" fill="none" stroke="#5DBFD9" stroke-width="15" stroke-linecap="round" stroke-linejoin="round" stroke-miterlimit="10" points="
		743.8,423.5 753.5,424 759.5,440.5 	"/>
	
		<path id="XMLID_50_" fill="none" stroke="#5DBFD9" stroke-width="15" stroke-linecap="round" stroke-linejoin="round" stroke-miterlimit="10" d="
		M779.3,397.5l8.8-0.5c0,0,4-20.5-2.8-13S779.3,397.5,779.3,397.5z"/>
	
		<polyline id="XMLID_49_" fill="none" stroke="#5DBFD9" stroke-width="21" stroke-linecap="round" stroke-linejoin="round" stroke-miterlimit="10" points="
		833.5,393 859.8,392.3 937.8,357 	"/>
	
		<polyline id="XMLID_48_" fill="none" stroke="#5DBFD9" stroke-width="18" stroke-linecap="round" stroke-linejoin="round" stroke-miterlimit="10" points="
		827.2,172.3 827.2,90.3 517.2,95.7 	"/>
	
		<line id="XMLID_47_" fill="none" stroke="#5DBFD9" stroke-width="18" stroke-linecap="round" stroke-linejoin="round" stroke-miterlimit="10" x1="505.8" y1="103" x2="503.2" y2="189.7"/>
	
		<line id="XMLID_40_" fill="none" stroke="#5DBFD9" stroke-width="18" stroke-linecap="round" stroke-linejoin="round" stroke-miterlimit="10" x1="614.5" y1="186.3" x2="610.5" y2="96.3"/>
	
		<line id="XMLID_4_" fill="none" stroke="#5DBFD9" stroke-width="18" stroke-linecap="round" stroke-linejoin="round" stroke-miterlimit="10" x1="724.5" y1="96.3" x2="725.2" y2="177.7"/>
	
		<polyline id="XMLID_3_" fill="none" stroke="#5DBFD9" stroke-width="18" stroke-linecap="round" stroke-linejoin="round" stroke-miterlimit="10" points="
		383.2,197 443.2,91 379.2,91 	"/>
	
		<line id="XMLID_2_" fill="none" stroke="#5DBFD9" stroke-width="18" stroke-linecap="round" stroke-linejoin="round" stroke-miterlimit="10" x1="309.8" y1="83.7" x2="268.5" y2="149"/>
</g>
</svg>
