<?xml version="1.0" encoding="utf-8"?>
<!-- Generator: Adobe Illustrator 21.0.0, SVG Export Plug-In . SVG Version: 6.00 Build 0)  -->
<svg version="1.1" xmlns="http://www.w3.org/2000/svg" xmlns:xlink="http://www.w3.org/1999/xlink" x="0px" y="0px" width="1000px"
	 height="1000px" viewBox="0 0 1000 1000" enable-background="new 0 0 1000 1000" xml:space="preserve">
<g id="vs-primary">
	<path fill="#5679E8" d="M265,556c0.9-2.1,2.3-6.5-5-23c-6.8-15.2-12.4-28-26-39c-5.6-4.5-10.7-7-21-12c-20.7-10-33.2-16.1-49-15
		c-9.6,0.7-14.5,3.6-20,0c-7.4-4.8-7.9-16.3-8-19c-0.5-13,6-19.1,16-38c12.3-23.3,16.1-39.8,20-39c3.9,0.8,0.8,18.1,8,21
		c4.7,1.9,11.2-3.4,17-8c12-9.7,15.5-19,19-18c4.6,1.3,0.9,17.7,8,21c3.7,1.7,8.4-1,12-3c11-6.2,12.5-15.6,17-15
		c4.5,0.6,7.2,10.2,8,15c1.3,7.6-0.7,12.2,1,13c1.8,0.8,5.5-3.5,13-12c2.2-2.5,5.2-6,10-10c5.1-4.2,6.4-4.1,7-4
		c2.5,0.5,3.6,3.8,8,16c3.5,9.7,4.4,11.8,6,12c2.4,0.3,3.4-3.7,10-11c4.6-5.1,5.8-5,9-9c4.3-5.4,6.2-10.7,7-13
		c2.3-6.6,2.6-12.9,1-27c-1.8-15.6-3-15.4-5-31c-2.8-22,0.4-17.1-2-31c-0.7-4.1-2-10.4,1-17c1.4-3.1,3.3-5.3,5-7
		c8.9-8.9,21.2-13,27-15c21-7.1,31.5-10.7,34-12c12.5-6.8,20.2-15.6,25-21c16.6-19,18.6-34.6,25-34c6.5,0.6,9.5,17.3,10,20
		c3.1,17.2-2.8,31.5-6,38c6.9,0,17.2-0.6,29-4c24.4-7,36.9-20.7,44-16c4.9,3.3,3.8,13.1,3,19c-3.6,27.8-22.8,48.5-36,60
		c7-0.3,17.5-1.2,30-4c18.2-4.1,26.6-9.1,32-5c7.2,5.4,3,22.1,2,26c-9.2,36.7-44.4,52.6-40,61c3.4,6.5,27.9,3.3,30,3
		c9.7-1.3,14.8-3.9,18-1c4.7,4.2,0.5,16-1,20c-2.8,7.9-10,22.6-30,36c14.7,4,24.3,10.4,30,15c4.8,3.9,11.1,9.2,10,14
		c-0.4,1.7-1.7,3.5-12,8c-15.1,6.6-21,6.3-23,11c-2.1,4.9,1.6,10.8,3,13c2.8,4.5,6.7,7,19,13c16.3,7.9,20.6,8.9,21,12
		c0.7,5.8-13.3,11.8-16,13c-29.5,12.8-57.9,4.5-59,9c-0.8,3.4,15.7,6.3,26,22c4.3,6.6,8.9,17.6,5,22c-2.9,3.3-9.5,1.6-22-2
		c-23.1-6.7-34.7-10.1-44-14c-27.2-11.3-43.2-20.7-45-18c-1.5,2.1,9.2,7.7,11,20c1.2,8.5-2.9,12.5,0,19c2.3,5.2,6.8,6.9,12,10
		c14.5,8.6,22.8,20.5,28,28c8.1,11.7,13.7,19.7,14,31c0.1,4.4-0.5,11.1,2,12c2.2,0.8,4.3-4.1,9-5c4.9-1,8.6,3.3,14,7
		c13.6,9.4,29.9,10.2,30,10c0-0.1-3.5-2-7-1c-3.3,0.9-6.5,4.4-6,7c0.8,4,10,3.1,11,7c0.9,3.4-4.6,8.4-10,11c-9.6,4.7-19.4,1.7-20,4
		c-0.4,1.8,5.8,3.1,7,8c0.9,3.7-2.1,5.1-2,10c0.2,6,4.8,7.6,4,11c-1.3,5.6-14.9,4.3-16,9c-0.7,3.1,4.9,7.4,16,16
		c6.3,4.9,8.8,6.3,10,10c1.7,5.2-1.7,7.4-1,13c1.1,9,10.5,9.8,12,17c2,9.3-11,20-22,29c-12.7,10.4-17.5,10.1-23,19
		c-5.2,8.4-4.1,13.8-9,16c-8.8,4-21.2-9.7-24-7c-1.8,1.8,3.5,7.7,7,19c2.3,7.4,6,19.4,0,28c-3.6,5.2-10.9,9.4-17,8
		c-6.7-1.5-9-9-12-8c-2.4,0.8-1.4,6-4,14c-1.7,5.3-5.8,14.3-9,14c-5.7-0.5-5.3-30.3-12-31c-3.5-0.4-4.8,7.7-13,10
		c-5.5,1.5-10.8-0.5-12-1c-3.2-1.2-3.4-2.3-9-6c-6.8-4.5-10.2-6.8-13-6c-3.6,1-2.8,5-8,10c-1.4,1.3-5.7,5.3-12,6
		c-4.8,0.5-11.3-0.7-15-5c-4.6-5.3-3.2-13-2-20c0,0,1.5-9.2,6-42c3.8-27.9-0.9-31.7,4-49c0.7-2.6,3.1-10.4,4-21
		c0.5-6.2,0.9-10.3,0-15c-2.1-11.4-10.1-18.8-17-25c-12.7-11.5-19.3-10.4-26-21c-0.7-1.1-2.5-5.7-6-15c-7.9-20.7-9-25.3-7-27
		c2.9-2.5,10.6,3,12,1c1.8-2.5-10.4-12.1-8-17c1.8-3.7,10.7-2.1,11-4c0.5-2.7-17.3-6.5-17-10c0.3-3.9,23.7-4.1,24-8
		c0.3-3.7-20.2-5.6-21-13c-0.7-6.3,13-15,13-15l0,0c-2.1,2.3,6.3-5.1,5-8c-1.1-2.5-11.5,0.8-29,1c-8.1,0.1-10.2-0.5-11-2
		c-2.6-4.9,11.6-16,10-18c-1.2-1.5-9.3,3.9-24,8c-8.6,2.4-10.3,1.9-11,1c-2.2-2.8,3.9-11.3,8-16C257.6,561.3,262.5,561.5,265,556z"
		/>
</g>
<g id="vs-secondary">
	<path fill="#FFFFFF" d="M236,370c0,0,1.1-6.3,5-65c1.4-21.8-2.2-18.1-1-40c1.3-24.5,7.6-60.4,17-61c5.1-0.3,9.3,9.9,16,26
		c6.5,15.8,14.7,35.4,17,64c0.7,8.6,2.2,33.7-6,64c-5.1,18.8-12.8,35.8-17,35c-4.4-0.8-1.8-20.7-9-23c-7-2.2-16.5,14.3-21,12
		C234.1,380.5,235.6,372.3,236,370z"/>
	<path fill="#FFFFFF" d="M520,209c9.8-6,22.1-15,34-28c20-21.9,29.5-44.8,34-59c3.3-1.3,8.2-3.2,14-6c18.8-9,31.5-18.9,38-24
		c45.6-36,58.4-52.4,68-48c5.5,2.6,6.8,10.6,8,18c3.5,22.1-6.6,40.6-13,52c-22.8,40.4-34.2,60.6-48,77c-25.2,29.8-56.7,67.1-111,86
		c-23.2,8.1-43.6,10.3-57,11c10.3-10.6,16.9-20.7,21-28c6.2-11.1,13-23.4,13-40C521,215.3,520.5,211.5,520,209z"/>
	<path fill="#FFFFFF" d="M532,361c19-7.1,39.9-16.2,62-28c16.7-8.9,31.7-18.1,45-27c11.8-0.4,21.1-1.8,27-3c30.1-5.9,52-16,52-16
		c10.5-4.8,18.1-9.5,24-6c4.6,2.7,5.7,8.9,6,11c2.6,15.5-9.6,31.3-23,45c-27.4,27.9-55.8,42.4-61,45c-30.8,15.4-69.7,33.8-116,53
		c-9.3-3.3-18.7-6.7-28-10c4.4-0.8,14.7-3.3,24-12c10.1-9.4,12.9-20.3,14-25c1.7-6.9,3.1-12.9,0-16c-5-5-16.9,2.7-23-3
		C532.5,366.7,532.1,363.3,532,361z"/>
	<path fill="#FFFFFF" d="M546,470c13.7-5,26.4,1.8,36,5c13.8,4.5,35.3,6.1,68-9c6.9,1.9,14.6,3.7,23,5c15.9,2.5,30.2,2.7,42,2
		c-2.1,5.7-5.8,13.7-12,22c-13.3,17.7-29.7,25.6-39,30c-46,21.9-120,11.9-126,11c4.5-1.8,10.8-4.6,18-9c9-5.5,14.9-9.1,15-14
		c0-2.9-2-5.5-8-10c-17.8-13.5-30.3-14.1-31-20C531.4,478.1,539.2,472.5,546,470z"/>
	<path fill="#FFFFFF" d="M524,576c13.5,8.5,9.3,13.9,30,30c9.6,7.5,18.1,12.2,17,16c-0.8,2.8-6.6,3.4-13,4c-42.4,4.1-42.1,4.1-43,4
		c-14.8-1.8-24.6-7.9-44-20c-11.1-6.9-26.4-17.6-43-33c2.7-1.6,6.1-4.1,7-8c2.2-9.9-14.1-19.5-12-23c0.9-1.5,5.3-1.8,24,5
		c14.5,5.2,21.5,8.9,29,12C504.2,574.7,508,565.9,524,576z"/>
	<path fill="#FFFFFF" d="M538,669c12-6.7,31.1,2.8,51,10c11.6,4.2,28.1,9.3,49,13c23.3-2.4,42.7-3.5,57-4c15.7-0.6,27.2-1,43,0
		c19.7,1.2,32.1,3.6,44,6c10.8,2.2,30.2,6,30,10c-0.2,4.1-20.7,4.4-21,9c-0.3,4.1,15.7,11.3,31,14c7,1.2,13.2,1.4,16,6
		c1.8,2.9,1.9,7.2,0,10c-0.9,1.4-3.2,3.7-15,4c-15.8,0.4-22.6-3.6-28,1c-2.6,2.2-1.3,3.3-4,6c-6.1,6.1-17,4.5-27,3
		c-7.8-1.2-14.3-2.1-22-6c-4.9-2.5-8.5-5.2-10-4c-2.4,2,5,11.3,2,15c-2.2,2.7-7.8-0.1-17-1c-12.2-1.2-21.9,1.8-26,3
		c-12.3,3.7-13.8,8.2-26,10c-4.9,0.7-5.2,0-11,1c-12.7,2.1-14,5.7-20,5c-9.8-1.1-14.3-11.8-18-10c-2.8,1.4,0,7.1-4,12
		c-4.5,5.5-13.5,5-14,5c-7.8-0.5-10.8-5.8-15-4c-3.5,1.5-2.6,5.6-6,7c-4.6,1.9-8.2-4.7-14-4c-7.9,0.9-9.4,14-16,14
		c-2.4,0-2.4-1.7-11-9c-7.2-6.1-9.8-7.1-10-10c-0.2-3.9,4.2-5.4,4-10c-0.1-3.2-2.4-5.5-4-7c-12.5-12.1-25.2-21-24-24
		c0.7-1.9,6,0.5,10-3c2.7-2.3,3.2-5.8,4-12c0.4-3.4,1.1-8,0-14c-1.4-7.8-4.5-11.6-3-13c1.5-1.3,4.5,2.3,10,2c4.9-0.2,10.2-3.6,12-8
		c1.4-3.5,1-9,1-9l0,0c-4.8-4.9-5-6-5-6C530.5,673.2,537.4,669.3,538,669z"/>
	<path fill="#FFFFFF" d="M241,563c-6.3,0.1-15.8,2.3-44,29c-15,14.2-17.4,18.4-19,22c-4.1,9.4-1.5,12.3-6,24
		c-4.8,12.4-8.9,12.1-14,25c-2.1,5.3-5.4,13.6-5,24c0.5,13.4,6.8,23.6,11,29c2.3-2,5.7-4.8,10-8c8.6-6.3,11.5-7,17-11
		c11.8-8.6,16.8-18.8,18-18c1.2,0.7-5.5,8.5-4,18c1.2,7.8,7.7,16,14,16c5.9,0,7.1-7.1,17-14c1.6-1.1,10.8-7.6,21-8
		c19.6-0.7,32.9,21.6,38,18c1.9-1.4,1.2-5.3,0-12c-2.9-16-9.6-24.4-7-27c2.5-2.5,10.4,3,12,1c2.1-2.8-11.7-14.4-9-19
		c2-3.4,11.7-0.6,12-2c0.5-2.1-21.5-8.4-21-11c0.2-1.2,4.7-0.6,13-2c5.4-0.9,14.7-2.4,15-5c0.4-4.2-23-7.4-23-14
		c0-2.6,3.4-3.2,10-10c2.9-3,9.4-9.7,8-12c-1.4-2.3-9.4,2.3-23,2c-6.4-0.1-14.6-1.4-15-4c-0.3-2.3,6-3.3,10-10c2.2-3.6,3.6-8.7,2-10
		c-1.9-1.5-6.4,3.5-16,8c-7.2,3.4-18.9,7.1-21,4c-1.8-2.6,3.2-10.4,6-14c2.5-3.2,4.4-4.5,4-6C251.2,562.9,241.8,563,241,563z"/>
</g>
<g id="vs-colour">
	<path fill="#FF5648" d="M200,379c-8.5,10.4-12.2,11.8-14,11c-6.2-2.9,9.1-34.1,13-86c2.3-30.1,3.4-45.2,1-58
		c-1.6-8.5-4.5-19.1-1-21c3.9-2.1,13.1,7.9,16,11c14.5,15.7,20,32.9,21,36c15.5,50-2.6,118.4-6,118c-1-0.1-0.1-5.7-4-15
		c-2.5-5.9-5.2-12.3-10-13c-4.5-0.6-9.8,4-13,11"/>
	<path fill="#FF5648" d="M295,282c0.1-0.6,2.4-10.7,7-31c6.8-29.9,7.9-34.4,11-35c6.8-1.2,19.7,17.1,17,32c-0.9,4.9-2.9,6.1-5,15
		c-0.9,3.6-2.6,10.9-2,19c0.8,10.2,4.6,12.8,8,24c1.9,6.4,2.3,13,3,26c0.5,10,0.8,23.6,0,40c-3.4,2.4-8.1,6-13,11
		c-7.8,8.1-9.9,13.5-13,13c-5.3-0.9-3.5-17.7-12-21c-4.7-1.8-8.4,2-11,0c-4-3.1,1.1-15,4-24C297.1,325.8,288.3,321.7,295,282z"/>
	<path fill="#FF5648" d="M451,182c8.9-5.5,20.8-13.4,34-24c9.8-7.9,24.4-20.5,41-39c43.2-48.1,58.2-89.4,68-86c3,1,3.7,5.6,5,13
		c3.3,19.5-2.6,35.2-6,45c-12.7,36.5-6.2,36.1-15,56c-6,13.4-20.6,39.7-57,63c-23,6.3-46,12.7-69,19c1.2-6.2,2.1-14,2-23
		C453.8,196.5,452.5,188.4,451,182z"/>
	<path fill="#FF5648" d="M551,274c12.9-8,26.3-17,40-27c26.9-19.8,49.8-39.9,69-59c4.9,0.2,12.3,0.1,21-2c27.5-6.6,41.1-26.9,50-22
		c3.6,2,4.3,6.9,5,12c3,22.5-8.8,41.9-14,50c-24,37.2-54,59-54,59c-55.5,40.3-117.1,67.6-153,82c6.6-5.8,14.1-13.6,21-24
		c6-9,9.3-17.7,16-35c3.8-9.8,5.6-15.8,4-23C554.9,280.1,552.7,276.4,551,274z"/>
	<path fill="#FF5648" d="M545,434c-0.7-5.2,31.4-13.3,47-18c20.7-6.2,49.3-17.3,82-39c18,0.7,36,1.3,54,2c-0.4,3.3-1.2,8.3-3,14
		c-1.1,3.5-6.3,19.1-24,36c-31.2,29.9-77.2,41.1-81,42c-32.1,7.5-60.2,5.5-80,2c1.1-0.1,15.3-1.5,21-13c0.6-1.1,4.6-9.4,1-16
		C557.6,435.9,545.4,437.2,545,434z"/>
	<path fill="#FF5648" d="M524,533c3,0.3,4.5,0.4,5.8,0.6c19.5,2.3,37.2,8.1,41.2,9.4c12.9,4.3,9.8,4.5,23,9c14.5,4.9,26.8,9.1,43,11
		c14.9,1.7,22.6,0.2,25,5c2.5,5-3.2,12.6-5,15c-12.7,16.9-35.5,20-43,21c-38.8,5.3-71.8-15.5-84-24c1.9-1.9,4.4-4.9,5-9
		c0.3-1.7,1-8.4-10-20c-12.4-13.1-24.8-16.8-24-19C501.4,530.8,509,531.5,524,533z"/>
	<path fill="#C48051" d="M208,680c-0.9-0.7-10.8,10.5-13,13c-6.6,7.5-6.5,8.1-9,10c-7.7,5.8-12.6,3-18,7c-8,5.9-8.8,20.3-6,30
		c4.7,16.2,20.3,22.5,24,24c14.8,5.9,30.6,2.8,31,0c0.3-2.3-10.4-2.9-14-11c-2.6-5.9,0.1-12.6,1-15c4.5-11.2,14.1-13.7,13-19
		c-0.7-3.3-4.4-2.6-9-8c-0.6-0.7-6.3-7.5-6-16C202.3,686.3,208.7,680.5,208,680z"/>
	<path fill="#C48051" d="M325,890c-4-2.2-8.2,5.8-17,6c-9,0.2-10.7-8.1-23-12c-12.3-3.9-23.4,0.3-25,1c-11.1,4.5-16.5,13.3-20,19
		c-3.6,5.8-8.4,16.1-6,18c2.6,2,10.7-7.2,29-14c3-1.1,11.6-4.2,13-2c1.6,2.4-7.8,7.6-8,17c-0.1,2.7,1.3,6.1,4,13c0.7,1.8,1,2.4,5,11
		c4.7,10.1,5,10.8,6,11c4.5,0.9,6.3-12.5,18-18c4.9-2.3,10.1-2.6,16-3c6.5-0.4,7.5,0.5,14,0c5-0.4,8.7-1.2,16-3
		c15.3-3.7,14-4.7,19-5c7.4-0.4,7.3,2,21,4c11.6,1.7,13.4,0.2,18,3c0.6,0.4,8.8,5.5,10,14c0.7,4.5-1,7.5,0,8c1.5,0.7,6.9-4.9,9-12
		c1.2-4,0.8-7.7,0-15c-0.3-2.5-0.7-5.1-4-20c-2.3-10.1-2.6-11.3-4-12c-4.9-2.6-10,7.4-20,8c-13.2,0.8-19.6-15.7-29-13
		c-5.9,1.7-4.6,8.6-13,14c-7.4,4.7-18.9,6.1-24,1C324.3,903.3,329.6,892.5,325,890z"/>
	<polygon fill="#FFFFFF" points="394.3,297.3 364.9,292.1 350.8,318.5 346.7,288.9 317.2,283.7 344.1,270.6 340,241 360.7,262.5 
		387.6,249.4 373.6,275.8 	"/>
	<polygon fill="#FFFFFF" points="489.3,288.3 459.9,283.1 445.8,309.5 441.7,279.9 412.2,274.7 439.1,261.6 435,232 455.7,253.5 
		482.6,240.4 468.6,266.8 	"/>
	<polygon fill="#FFFFFF" points="441.3,385.3 411.9,380.1 397.8,406.5 393.7,376.9 364.2,371.7 391.1,358.6 387,329 407.7,350.5 
		434.6,337.4 420.6,363.8 	"/>
	<path fill="#FFFFFF" d="M352.6,441.8l14-26.4l-26.9,13.1l-0.4-0.4c-0.9,7-3,13.9-6.1,19.8c-0.5,5.5-1.7,10.8-3.6,15.8
		c-0.6,1.5-1.3,2.8-2.2,4.1l2.4,16.8l14-26.4l29.4,5.2L352.6,441.8z"/>
	<polygon fill="#FFFFFF" points="484.3,482.3 454.9,477.1 440.8,503.5 436.7,473.9 407.2,468.7 434.1,455.6 430,426 450.7,447.5 
		477.6,434.4 463.6,460.8 	"/>
	<polygon fill="#FFFFFF" points="550.3,538.3 520.9,533.1 506.8,559.5 502.7,529.9 473.2,524.7 500.1,511.6 496,482 516.7,503.5 
		543.6,490.4 529.6,516.8 	"/>
	<polygon fill="#FFFFFF" points="382.3,556.3 352.9,551.1 338.8,577.5 334.7,547.9 305.2,542.7 332.1,529.6 328,500 348.7,521.5 
		375.6,508.4 361.6,534.8 	"/>
	<polygon fill="#FFFFFF" points="314.3,442.3 284.9,437.1 270.8,463.5 266.7,433.9 237.2,428.7 264.1,415.6 260,386 280.7,407.5 
		307.6,394.4 293.6,420.8 	"/>
	<path fill="#FFFFFF" d="M290.9,523.4c2.5-1.8,5.1-3.4,7.9-4.6c0,0,0.1-0.1,0.1-0.1c0.6-1,1.2-1.9,1.8-2.9c1.4-2.4,2.7-4.8,3.9-7.3
		c2.1-4.2,4.2-8.6,6.6-12.8l-3.5,1.7L287,476l4.2,29.6l-26.9,13.1L290.9,523.4z"/>
	<polygon fill="#FFFFFF" points="213.3,452.3 183.9,447.1 169.8,473.5 165.7,443.9 136.2,438.7 163.1,425.6 159,396 179.7,417.5 
		206.6,404.4 192.6,430.8 	"/>
	<polygon fill="#FFFFFF" points="539.3,384.3 509.9,379.1 495.8,405.5 491.7,375.9 462.2,370.7 489.1,357.6 485,328 505.7,349.5 
		532.6,336.4 518.6,362.8 	"/>
</g>
<g id="vs-shade">
	<path opacity="0.4" d="M403,278c-6.6,0.5-10.8,9.5-13,14c-8.3,17.5-3.8,33.9-1,53c1.3,9.1,1.5,25.4,2,58c0.6,41,0.9,61.5-5,81
		c-5.4,18.1-12.2,40.6-30,63c-6.9,8.6-15.2,17-17,31c-0.2,1.8-2.6,21.8,10,31c5.6,4.1,14.2,6.1,17,3c3.3-3.7-4.8-11.5-4-24
		c0.4-6.7,3.2-12,8-19c15.9-22.8,32.5-31.4,47-48c12.7-14.6,18.2-29,22-39c10.2-26.9,8.9-49.1,6-91c-2.9-41.7-9.5-61.5-13-71
		C428.1,309.6,416,277,403,278z"/>
	<path opacity="0.4" d="M299,708c1.8-3.1,16.9,2.4,24,5c21,7.7,24.8,14,36,14c8,0,13.6-3.3,25-10c12.5-7.3,20.2-14.7,35-29
		c21-20.4,31.5-30.6,32-33c7.1-31.2-57.3-65.3-51-76c3.4-5.8,24.5,0.4,35,5c5.7,2.5,28.7,12.5,36,34c3.5,10.3,0.5,14.6,6,30
		c4.5,12.6,7.9,13.5,8,19c0.1,12.7-17.8,21.2-46,37c-57.8,32.3-64.1,41.7-67,47c-10.8,19.6-8.3,41.4-7,52c2.4,20.3,9.8,30.2,17,69
		c1.7,9.1,4.2,24.3-2,28c-5,3-17-1-17-1l0,0c0,0-8,10.5-16,11c-6.1,0.4-12.1-5-15-10c-4.7-8.2-2.2-17,0-27c4.6-21.1,5.6-38.3,7-62
		c1.2-20.2-0.5-22,2-34c2.4-11.6,5.2-16.1,3-23c-2.3-7.3-7.7-9.1-20-19C315,727.8,296.8,711.8,299,708z"/>
	<path opacity="0.4" d="M291,682c-4.2-10.8-5-11.9-6-13c-9.5-10.1-28.3-6.3-35-5c-17.3,3.4-28.5,13-33,17c-3.1,2.7-14,12.7-21,30
		c-4.7,11.6-11,27.1-4,40c6.7,12.4,22.6,16.8,24,15c1.3-1.7-10.9-8.1-12-20c-0.6-6.9,2.9-12.4,10-23c7.3-10.9,12.5-18.7,23-25
		c5.1-3,15.4-9.3,28-8c19.6,2,30.6,20.7,34,18C300.6,706.7,297.4,698.5,291,682z"/>
	<path opacity="0.4" d="M321,306c-3.6,0.3-4.5,27.2-5,45c-0.9,28.7,1.3,40.9-4,62c-3.7,14.7-5.8,22.6-13,27c-10.6,6.4-25,0.9-50-9
		c-24.3-9.7-31.7-16.6-48-16c-10.8,0.4-22.9,4.1-23,8c-0.2,6,28.1,3.7,55,22c24.1,16.4,35.7,41.7,39,49c11.9,26,8.8,42.7,16,44
		c12.6,2.3,31.2-47.1,33-52c8.9-24,11.5-43.9,13-56c1.5-11.8,3.5-33.9,1-62C332.4,338.6,325.1,305.6,321,306z"/>
	<path opacity="0.4" d="M791,741c-6.7-14.5-31.1-15.4-93-18c-63.6-2.7-74.9-3.4-75-2c-0.2,2.4,33.6,8.7,63,12
		c36.9,4.1,39.3,0.3,58,6c25.1,7.6,41.3,20.6,47,15C793.8,751.2,792.9,745.1,791,741z"/>
	<path opacity="0.4" d="M701,760c-0.2-1.4-5-1.5-12.7-2.7c-6.5-1-13.7-3.1-28.3-7.3c-29.5-8.4-57.3-20.5-58-19
		c-0.5,1.1,12.8,9.3,70,39C696.1,764.3,701.2,761.5,701,760z"/>
</g>
<g id="vs-outline_1_">
	<path fill="none" stroke="#000000" stroke-width="13" stroke-linecap="round" stroke-linejoin="round" stroke-miterlimit="10" d="
		M411.5,276.5c8.3-6.4,20.9-18,30-36c1.2-2.3,6-12.1,9-26c1.5-6.8,3-14.3,2-24c-0.7-6.5-2-18.8-7-20c-6.1-1.5-10.6,15.4-28,34
		c-8,8.5-21.7,23.2-43,30c-15.2,4.9-24.4,2.6-36,12c-2.1,1.7-9,7.4-13,17c-6.2,14.8-1.4,29.5,1,38c6,21.2,7,43.2,9,87
		c1.1,24.1,1.8,40.8-3,63c-8.9,40.7-29.4,67.7-37,77c-12.3,15.1-24.9,25.4-34,32c-22.2,4.9-38.3,13.7-48,20
		c-18.1,11.8-31.7,20.6-37,37c-3.3,10.2-1.3,17-8,30c-5.3,10.2-8.2,9.1-12,18c-1.2,2.8-8.2,20.1,0,37c2.8,5.7,6.5,9.7,9,12
		c-1.1,2.8-2.4,6.9-3,12c-0.5,4.1-1.2,10.4,1,18c0.5,1.6,2.1,6.6,6,12c1.7,2.3,4.4,6.1,9,9c6.3,4.1,12.3,4,24,4
		c12.1,0,13.6-2.2,14-3c1.2-2.3,0.1-5.9-2-8c-3.4-3.4-7.6-1-10-4c-0.7-0.9-1.1-2,0-11c0.8-6.7,1.2-10,2-12c1.7-4.2,4.1-6.1,8-10
		c9.3-9.3,7.6-10.1,14-16c4.7-4.4,11-10.1,21-13c11.2-3.2,20.7-0.9,24,0c8.1,2.3,13.2,6.6,23,15c19.2,16.5,15.7,20,30,30
		c6,4.2,11.5,6.9,15,14c2.9,5.8,3,11.6,3,15c0,10.2-3.3,17.4-5,22c-3.9,10.3-1.1,10.5-4,44c-1.2,13.8-1.9,16.8-4,40
		c-2,22.9-2.3,30.9,3,35c4.7,3.6,12.2,2.9,17,1c10.5-4.2,13.2-15.9,18-15c1.5,0.3,3.5,1.9,5,8"/>
	<path fill="none" stroke="#000000" stroke-width="13" stroke-linecap="round" stroke-linejoin="round" stroke-miterlimit="10" d="
		M445.5,231.5c3.6-0.3,8.8-0.8,15-2c4.1-0.8,15.8-3.4,35-12c16.8-7.5,20.4-11.2,24-9c7.1,4.2,2.5,23.7,2,26c-3,12.7-9.2,21.3-15,29
		c-12.1,15.9-20.8,27.5-39,45c-9.8,9.5-23.1,21.4-40,34"/>
	<path fill="none" stroke="#000000" stroke-width="13" stroke-linecap="round" stroke-linejoin="round" stroke-miterlimit="10" d="
		M483.5,291.5c7.8-1.3,20.4-3.5,36-7c22.8-5.1,29.7-7.9,34-4c9.3,8.4-5,37.9-7,42c-14.3,29.5-37.9,46.2-52,56
		c-15.8,10.9-30.4,17.7-41,22"/>
	<path fill="none" stroke="#000000" stroke-width="13" stroke-linecap="round" stroke-linejoin="round" stroke-miterlimit="10" d="
		M515.5,367.5c5.6,1.1,14.4,2.3,25,1c9.9-1.2,14.8-3.7,18-1c4.9,4.2,1.2,16.9-2,24c-7.1,16.1-20.6,24.6-31,31
		c-14.5,8.9-19.5,8.2-42,20c-9.2,4.8-16.4,9.1-21,12"/>
	<path fill="none" stroke="#000000" stroke-width="13" stroke-linecap="round" stroke-linejoin="round" stroke-miterlimit="10" d="
		M520.5,425.5c10.4,4.7,18.9,7.4,25,9c4.5,1.2,9.1,2.2,14,6c2.1,1.7,8.1,6.4,8,12c-0.1,4.2-3.7,8.3-14,14c-16.4,9-31.4,12-37,13
		c-14.5,2.7-31.3,5.5-50,8"/>
	<path fill="none" stroke="#000000" stroke-width="13" stroke-linecap="round" stroke-linejoin="round" stroke-miterlimit="10" d="
		M523.5,478.5c8,3.7,14,7.4,18,10c8.5,5.6,9.6,7.6,17,12c11.7,6.9,16.5,6.1,17,9c1.1,6.5-22.2,20.3-48,22c-3.9,0.3-11.5,0.5-46-7
		c-15.8-3.4-28.8-6.6-38-9"/>
	<path fill="none" stroke="#000000" stroke-width="13" stroke-linecap="round" stroke-linejoin="round" stroke-miterlimit="10" d="
		M500.5,531.5c2.4,2.1,5.1,6.2,10,9c11.5,6.7,28.7,25.3,26,32c-2.7,6.7-29.8,4.6-53-4c-20.4-7.6-24.1-15.2-43-22
		c-18.2-6.6-34.9-6.8-46-6"/>
	<path fill="none" stroke="#000000" stroke-width="13" stroke-linecap="round" stroke-linejoin="round" stroke-miterlimit="10" d="
		M416.5,541.5c9.8,8.8,14.6,17.5,17,23c2.1,4.9,3.3,7.7,2,10c-3.1,5.4-17.1,1.4-33,0c-10.2-0.9-25.1-1.1-44,3"/>
	<path fill="none" stroke="#000000" stroke-width="13" stroke-linecap="round" stroke-linejoin="round" stroke-miterlimit="10" d="
		M451.5,182.5c9.4-6,22.9-15.2,38-28c7.9-6.7,28.3-24.6,56-59c34.2-42.5,42.5-64.3,49-62c9.1,3.2,1,48.9-4,70
		c-4.6,19.4-9.2,38.4-23,60c-14.1,22.2-31,36.2-42,44"/>
	<path fill="none" stroke="#000000" stroke-width="13" stroke-linecap="round" stroke-linejoin="round" stroke-miterlimit="10" d="
		M588.5,122.5c26.5-12.3,44.9-25.3,57-35c12-9.7,24.8-18.4,37-28c15.2-12,20.8-16.9,26-15c10.8,4.1,8.3,34.4,8,38
		c-1.8,19.8-9.1,36.5-22,57c-21.6,34.4-44.5,56.7-50,62c-22.1,21.4-56.7,50.8-106,79"/>
	<path fill="none" stroke="#000000" stroke-width="13" stroke-linecap="round" stroke-linejoin="round" stroke-miterlimit="10" d="
		M656.5,188.5c8.8,0.1,22.1-0.7,37-6c23.9-8.4,34-22,41-18c7.8,4.4,4.2,26.4,0,40c-7.4,24.1-21.9,40.6-38,56
		c-32.1,30.7-62.4,49.4-77,58c-24.8,14.6-59.6,32.8-104,49"/>
	<path fill="none" stroke="#000000" stroke-width="13" stroke-linecap="round" stroke-linejoin="round" stroke-miterlimit="10" d="
		M635.5,308.5c36.7-6,64.3-14.3,83-21c11.6-4.1,23.2-8.9,28-4c8.5,8.7-12,40.5-13,42c-6.2,9.5-18.1,24.9-51,46
		c-14.1,9-28.1,16.7-55,29c-20.4,9.4-48.2,21.4-82,34"/>
	<path fill="none" stroke="#000000" stroke-width="13" stroke-linecap="round" stroke-linejoin="round" stroke-miterlimit="10" d="
		M673.5,376.5c7.2,0.3,17.9,0.7,31,1c20.1,0.4,24,0.1,26,3c6.2,9-15.7,34.6-27,46c-21.2,21.5-43.1,31.6-51,35
		c-24.5,10.5-45.4,12.1-58,13c-21.1,1.5-38.7-0.7-51-3"/>
	<path fill="none" stroke="#000000" stroke-width="13" stroke-linecap="round" stroke-linejoin="round" stroke-miterlimit="10" d="
		M645.5,464.5c7.4,2.7,18.8,6.1,33,7c21.3,1.4,33.3-3.6,37,2c4.2,6.4-6.2,20.6-13,28c-5.6,6.2-17.2,16.7-50,27
		c-15.3,4.8-39.2,12.1-72,12c-23.9,0-44.9-4-62-9"/>
	<path fill="none" stroke="#000000" stroke-width="13" stroke-linecap="round" stroke-linejoin="round" stroke-miterlimit="10" d="
		M578.5,545.5c10.2,4.7,25.5,10.9,45,15c24.2,5.1,37.9,3.5,40,10c2.5,7.9-14.4,21.5-29,28c-5.4,2.4-17.8,7.1-38,6
		c-33.4-1.8-58.8-17.9-72-28"/>
	<path fill="none" stroke="#000000" stroke-width="13" stroke-linecap="round" stroke-linejoin="round" stroke-miterlimit="10" d="
		M526.5,581.5c3.7,3.6,8.8,8.5,15,14c21.6,19.3,30,23.1,29,28c-1.5,7.3-22.5,9.7-37,9c-12.9-0.6-26.1-3.8-45-13
		c-15-7.3-37-20.1-60-42"/>
	<path fill="none" stroke="#000000" stroke-width="13" stroke-linecap="round" stroke-linejoin="round" stroke-miterlimit="10" d="
		M471.5,618.5c3.8,5.1,8.6,12.8,12,23c2.6,7.7,3.6,14.6,4,20"/>
	<path fill="none" stroke="#000000" stroke-width="13" stroke-linecap="round" stroke-linejoin="round" stroke-miterlimit="10" d="
		M449.5,700.5c-10.2,2.5-25.6,7.5-42,18c-12.4,8-26,16.7-35,33c-11.1,20-8.9,40.1-6,68c1.8,16.7,5.5,29,9,38c3.1,8,5.6,8.9,7,15
		c4,17.3-6.5,28-1,34c3.9,4.2,13.3,3.2,19,0c8.1-4.5,8.6-13.2,12-13c6,0.4,5.9,28.1,13,29c3.5,0.4,7.5-5.9,9-9
		c3.6-7.3,1.6-13.1,4-14c2.7-1,5,6.1,12,8c5.6,1.5,12.2-1,16-5c5.5-5.9,4.6-14.3,4-19c-2.1-17.9-15.1-28.9-13-31c2-2,13,10.4,22,7
		c2.7-1,2.9-2.6,11-12c1.6-1.8,5.8-6.7,9-10c8.2-8.3,13.4-9.2,21-15c4.9-3.7,11.3-9.8,17-20c3.5-0.1,8.1-0.9,12-4
		c6.5-5.3,6.1-13.4,10-14c4.3-0.6,6.4,8.9,12,9c6.1,0.2,7.4-10.8,15-12c6.8-1.1,9.6,7.4,17,6c4.7-0.9,9.3-5.3,11-10
		c1.4-3.7,0.5-6.2,2-7c2.2-1.1,5,3.7,12,7c2.6,1.2,9.2,4.3,15,2c5.5-2.1,5.1-7,10-8c5-1.1,6.7,3.7,12,3c5.8-0.7,5.7-6.6,13-9
		c4.8-1.6,6.1,0.5,13-1c5.2-1.2,5.9-2.7,10-4c9.2-3,13.2,2.3,26,2c6.9-0.2,16.6-2,17-5c0.5-4.5-19.3-10-19-11c0.3-0.9,14.9,2.8,35,7
		c7.6,1.6,14.2,2.9,23,2c2.2-0.2,16.3-1.6,17-6c0.7-4.8-14.8-10.8-21-13"/>
	<path fill="none" stroke="#000000" stroke-width="13" stroke-linecap="round" stroke-linejoin="round" stroke-miterlimit="10" d="
		M791.5,741.5c4.7,2.7,17,8.7,32,6c6.5-1.2,19-5,19-10c0-1.8-1.7-6.4-39-16c-21.8-5.6-40.4-8.9-54-11"/>
	<path fill="none" stroke="#000000" stroke-width="13" stroke-linecap="round" stroke-linejoin="round" stroke-miterlimit="10" d="
		M782.5,713.5c15-0.6,31.6-2.1,32-6c0.4-3.6-13.6-7.8-21-10c-31.4-9.3-58.9-10.2-80-10c-17.3,0.1-39.7,1-66,4"/>
	<path fill="none" stroke="#000000" stroke-width="13" stroke-linecap="round" stroke-linejoin="round" stroke-miterlimit="10" d="
		M487.5,658.5c3.9-1.3,9.7-2.6,16-1c6.3,1.6,8.2,4.8,15,8c5.2,2.4,8.4,2.5,20,4c0,0,14.1,1.8,28,4c8.5,1.4,12.5,2.6,33,8
		c9.4,2.5,23.8,6.3,42,11"/>
	<path fill="none" stroke="#000000" stroke-width="9" stroke-linecap="round" stroke-linejoin="round" stroke-miterlimit="10" d="
		M540.5,673.5c-10.5,2.6-13.1,4.6-13,6c0.1,2.7,9.9,2.6,11,7c0.9,3.6-4.6,8.7-10,11c-5.8,2.4-10.9,1.4-15,1c-6.8-0.7-16.8-0.6-30,4"
		/>
	<path fill="none" stroke="#000000" stroke-width="9" stroke-linecap="round" stroke-linejoin="round" stroke-miterlimit="10" d="
		M495.5,699.5c11.9,0.3,20.3,5.9,21,12c0.5,4.1-2.7,7.7-3,8c-3.5,3.8-9.3,5-15,3"/>
	<path fill="none" stroke="#000000" stroke-width="9" stroke-linecap="round" stroke-linejoin="round" stroke-miterlimit="10" d="
		M509.5,722.5c4.6,1.2,7.8,4.5,8,8c0.2,4.8-5.5,8-9,9c-5.3,1.5-9.6-0.9-10,0c-0.5,1.1,7,3.9,15,11c3.7,3.3,1.8,2.5,10,11
		c4.9,5.2,7.2,7.1,7,10c-0.2,3.3-3.2,4.1-4,7c-0.9,3.2,0.9,8.3,12,17"/>
	<path fill="none" stroke="#000000" stroke-width="9" stroke-linecap="round" stroke-linejoin="round" stroke-miterlimit="10" d="
		M252.5,566.5c-1.1,1.6-2.4,3.6-4,6c-7.5,11.5-7.3,12.5-7,13c1.7,2.9,13.1-0.3,20-3c11.3-4.3,16.5-9.5,18-8c1.5,1.5-1.8,8.9-7,14
		c-3.2,3.1-6.4,4.5-6,6c0.3,1,2,1.6,7,2c8.8,0.8,16.4,0.2,19,0c10.3-0.8,12.3-1.2,13,0c1.7,2.9-6.1,10.2-8,12c-4.8,4.6-9.6,7.3-13,9
		c2.2,0.9,5.7,2.4,10,4c14.5,5.5,18.9,6,19,8c0.2,3.3-11.4,7.1-21,8c-3.7,0.3-6.8,0.2-9,0c2.9,2.2,7.2,5.2,13,8c6,2.9,10.1,3.8,10,5
		c-0.1,1-2.8,2.2-15,3c3.3,4.3,5.6,8.2,7,11c2.7,5.4,2.4,6.5,2,7c-0.8,0.8-2.7-0.2-6-1c-3.7-0.9-6.9-1-9-1c2.1,3.6,4.2,7.9,6,13
		c3.7,10.7,4.2,20.3,4,27"/>
	<path fill="none" stroke="#000000" stroke-width="9" stroke-linecap="round" stroke-linejoin="round" stroke-miterlimit="10" d="
		M164.5,716.5c2-2.4,5.2-5.6,10-8c4.4-2.2,6.2-1.6,10-4c1.1-0.7,2.7-1.8,9-10c5.7-7.3,6.5-9.3,10-12c3.1-2.4,7.8-5.1,9-4
		c1.1,1.1-1.1,5.3-5,13c-2.2,4.2-3.1,5.6-3,8c0.1,3.8,2.6,6.5,4,8c3.8,4.2,8.7,5.5,11,6"/>
	<path fill="none" stroke="#000000" stroke-width="9" stroke-linecap="round" stroke-linejoin="round" stroke-miterlimit="10" d="
		M182.5,664.5c-1.3,0.8-3.4,2.4-5,5c-1.1,1.8-3.6,5.7-2,9c0.9,1.8,3,3.5,5,3c2.3-0.5,3.2-3.8,3-6c-0.3-3-2.6-4.7-3-5"/>
	<path fill="none" stroke="#000000" stroke-width="13" stroke-linecap="round" stroke-linejoin="round" stroke-miterlimit="10" d="
		M347.5,913.5c-3.2,1.5-8,3.3-14,4c-5,0.6-8.7,0.2-11,0c-2-0.2-20.6-1.7-29,3c-13.3,7.4-10.5,35.5-10,40c3.2-5.4,13.9-22.4,28-25
		c1.6-0.3,5.4-0.8,10-1c9.5-0.4,11.7,1.1,18,1c12-0.2,11.9-5.8,24-6c5-0.1,10.8-0.1,17,3c4.3,2.2,6.6,4.8,11,5c3.8,0.2,6.9-1.5,9-3
		c1.6,0.2,7,1.3,11,6c6.4,7.6,3.2,17.4,3,18c2.1-0.5,6.7-1.9,10-6c4.5-5.6,3.6-12.5,3-17c-1.2-9.3-6.2-15.9-9-19"/>
	<path fill="none" stroke="#000000" stroke-width="13" stroke-linecap="round" stroke-linejoin="round" stroke-miterlimit="10" d="
		M330.5,889.5c-2.3,2-7.5,6-15,7c-7.1,0.9-12.7-1.3-17-3c-9.6-3.9-9.2-7.4-16-10c-13.4-5-27.7,3.6-30,5c-10.1,6.3-14.2,15.3-15,17
		c-3.6,8.1-3.3,15.5-3,19c3.4-3.1,8.7-7.3,16-11c10.8-5.5,25-9.4,27-6c1.6,2.7-6.6,7-8,16c-1.3,8.3,3.8,16,8,21"/>
	<path fill="none" stroke="#000000" stroke-width="13" stroke-linecap="round" stroke-linejoin="round" stroke-miterlimit="10" d="
		M264.5,555.5c-1.5-5.9-3.9-14.3-8-24c-5.8-13.9-11.1-26.3-23-38c-12.9-12.6-27.2-18.1-35-21c-4.3-1.6-10-3.7-18-5
		c-22.6-3.7-31.6,4.2-39-2c-8.2-6.9-4.9-23.3-4-28c2.1-10.5,6.2-12.8,16-30c12.5-21.8,14.8-33.6,19-33c4.5,0.6,6.2,14.3,7,21
		c1.5,11.8,0.2,21.7-1,28"/>
	<path fill="none" stroke="#000000" stroke-width="13" stroke-linecap="round" stroke-linejoin="round" stroke-miterlimit="10" d="
		M179.5,398.5c5.3-3.5,12.6-8.9,20-17c8.9-9.8,11.6-16.6,16-16c5.2,0.7,9,11.3,9,20c0,7.1-2.7,10.1-7,24c-2,6.4-3.2,11.6-4,15"/>
	<path fill="none" stroke="#000000" stroke-width="13" stroke-linecap="round" stroke-linejoin="round" stroke-miterlimit="10" d="
		M227.5,391.5c2.5-2.1,6-5.1,10-9c10-9.8,11.7-14.4,15-14c5.4,0.7,8.5,14.3,9,23c0.4,7.4-1,13.4-3,22c-1.7,7.2-3.6,13-5,17"/>
	<path fill="none" stroke="#000000" stroke-width="13" stroke-linecap="round" stroke-linejoin="round" stroke-miterlimit="10" d="
		M267.5,393.5c2.2-2.5,5.3-6,9-10c11.7-12.6,13.6-13.2,15-13c5.1,0.7,7.5,11.2,10,22c1.8,8,4,17.9,1,30c-1.2,4.8-2.8,8.5-4,11"/>
	<path fill="none" stroke="#000000" stroke-width="13" stroke-linecap="round" stroke-linejoin="round" stroke-miterlimit="10" d="
		M305.5,398.5c2.8-3.5,6.1-7.2,10-11c6.6-6.4,13.2-11.3,19-15"/>
	<path fill="none" stroke="#000000" stroke-width="13" stroke-linecap="round" stroke-linejoin="round" stroke-miterlimit="10" d="
		M183.5,390.5c1.2-8,3.2-20.6,6-36c6-32.7,8.4-37.1,10-55c1.2-13.6,2.4-26.5,1-44c-1.5-18.1-4.7-28.1-1-30c4.8-2.5,16.7,11,22,18
		c4.5,5.9,12.6,18.2,17,38c1.1,4.9,3,15.1,2,40c-0.6,13.9-2,32.7-6,55"/>
	<path fill="none" stroke="#000000" stroke-width="13" stroke-linecap="round" stroke-linejoin="round" stroke-miterlimit="10" d="
		M236.5,275.5c2.1-7.3,5.4-18.7,9-33c7-27.9,7.9-37.5,12-38c7-0.8,15.8,25.4,21,41c3.4,10.3,7.6,22.7,10,38c6.2,40-3.7,75.7-10,94"
		/>
	<path fill="none" stroke="#000000" stroke-width="13" stroke-linecap="round" stroke-linejoin="round" stroke-miterlimit="10" d="
		M288.5,286.5c4.4-9.9,10.1-24.1,15-42c4.8-17.3,6-27.5,10-28c3.4-0.4,8.8,6,18,36"/>
</g>
<g id="vs-reveal">
	
		<path opacity="0" fill="none" stroke="#000000" stroke-width="79" stroke-linecap="round" stroke-linejoin="round" stroke-miterlimit="10" d="
		M698.2,66.8c-45.3-3.8-90.9-4.1-136.2-0.7c-5.8,0.4-12.6,1.7-14.9,7c-4.1,10,11.8,15.4,22.6,14.5c34.2-2.9,68.3-5.8,102.5-8.7
		c14-1.2,33.5,2.5,33.2,16.5c-66.8,26.5-142.8,11.5-212.8,27.4c-5.7,1.3-12.9,6.1-10,11.1c1.5,2.7,5.1,3.2,8.1,3.4
		c64.3,4.8,129.4-4.1,193.2,5.4c10.8,1.6,24.5,7.9,22.2,18.6c-105.7,6.4-211.3,12.9-317,19.3c-11.4,0.7-27.2,8.1-22.3,18.4
		c111.5,17.6,224.5-11.3,337.2-18c13-0.8,31.4,4.9,28.3,17.5c-2.2,8.7-13.5,10.8-22.5,11.2c-133.8,5.2-267.6,10-401.4,14.5
		c-45.2,1.5-92.2,3.4-132.2,24.5c5,8.3,16.5,9.3,26.2,9.4c167.9,1.7,335.8,0.7,503.7-2.9c8.5-0.2,20.7,5.6,16.1,12.7
		c-1.6,2.5-4.7,3.4-7.6,4.1C547.8,312,373.7,296,202.5,303.2c-10,0.4-23.8,6-20.5,15.5c2.2,6.2,10.3,7.4,16.9,7.6
		c173.8,3.2,348.2,6.4,521.2-10.9c8-0.8,16.6-1.5,23.7,2.3c7.1,3.9,11,14.3,5.5,20.2c-114.9,19.2-231.5,28.5-348,27.8
		c-79.6-0.5-160.3-5.5-238,11.9c-8.3,1.9-18.7,10.1-12.9,16.4c2.3,2.5,6.1,2.6,9.4,2.6c191.8,0,383.6,0,575.4-0.1
		c4.2,5.6-3.5,12.4-10.1,14.8c-35.8,13.1-74.8,13.4-112.8,13.6c-148,0.7-296.1,1.4-444.1,2.2c-12,0.1-24.8,0.3-35,6.7
		c-10.2,6.4-16.1,21.3-8.8,30.9c182.9,3.9,366.2,7.9,548.6-6.9c10.8-0.9,25.9,1.7,26.1,12.5c-36.2,11.8-74.6,14.2-112.6,16.4
		c-106.8,6-213.8,10.6-320.7,14c-10.2,0.3-21,0.8-29.7,6.1c-8.7,5.3-14.3,17.3-9.1,26.1c133.3,7.8,267.4,2.6,399.7-15.6
		c17.6-2.4,41.4-1.1,45.5,16.2c-136.2,8.3-272.3,16.6-408.5,25c-12.4,0.8-29.2,6.8-26.6,18.9c2,9.4,14.2,11.7,23.8,12
		c122.3,3.5,244.8,1.4,367-6.4c10.7-0.7,24.4,0.6,27.6,10.8c-20.7,2.4-41.4,4.8-62.2,7c-132.8,14.3-266.2,22.1-399.7,23.4
		c-12,0.1-24.9,0.5-34.3,7.9c-9.4,7.4-11.4,24.7-0.7,30.2c3.3,1.7,7,2,10.7,2.2c117.5,7.8,235.9,3.3,352.5-13.4
		c17.5-2.5,42.3,0.1,43.5,17.7c-124.7,22.3-252.4,17.9-379.1,19.2c-11.5,0.1-25.4,1.7-30.5,12c-4.6,9.3,1.2,21.1,10,26.5
		c8.8,5.5,19.7,6.2,30.1,6.7c184.5,8.9,368.9-12.1,552.6-31.1c27.8-2.9,62.9-1.9,74.8,23.5c-140.5,16.3-282.1,23.2-423.5,20.6
		c-70-1.3-141.9-4.6-208.2,17.9c-5.8,7.6,7.6,15,17.2,15.2c155.3,3.6,310.8,2.3,466-3.8c4.8,8.1,0.1,19.2-7.6,24.5
		c-7.8,5.4-17.6,6.5-27,7.3c-87.6,8.2-175.7,10.4-263.5,6.8c-25.8-1.1-53.3-2.2-75.6,10.9c49,1.7,97.9,3.4,146.9,5.2
		c12.4,0.4,29.7,8.6,23.7,19.5c-3,5.5-10.5,6.4-16.8,6.6c-50.3,1.5-100.6,2.4-150.9,2.6c-4.7,12,13,19.9,25.9,19.9
		c26.9,0,53.9-4.2,80.4-0.1c26.5,4,53.8,18.8,62.6,44.2c-94.8-10.3-189.7-20.7-284.5-31c-0.6,14.8,16.4,23.3,30.8,27
		c41.6,10.6,85.3,13,127.8,7.1c15.5-2.1,31-5.4,46.5-3.9s31.6,8.5,39.2,22.1c-58.8,2.7-117.6,5.3-176.5,8c3.9,0.8,7.8,1.7,11.7,2.5"
		/>
</g>
</svg>
