<?xml version="1.0" encoding="utf-8"?>
<!-- Generator: Adobe Illustrator 24.3.0, SVG Export Plug-In . SVG Version: 6.00 Build 0)  -->
<svg isCommex="true" version="1.1" id="Layer_2_1_" xmlns="http://www.w3.org/2000/svg" xmlns:xlink="http://www.w3.org/1999/xlink" x="0px" y="0px"
	 width="553.4px" height="512.8px" viewBox="0 0 553.4 512.8" enable-background="new 0 0 553.4 512.8" xml:space="preserve">
<g id="vs-secondary">
	<path fill="#FFF59B" d="M423.5,113.1c-0.8-2.1-3.5-7.1-10.3-9.3c-2-0.7-4.3-1.1-6.8-1.1c-5.4,0-11.6,1.6-18.4,4.9l-1.9,0.9l2,0.9
		c1.2,0.6,2.2,1.1,3,1.8c3.9,3,5.9,7.9,6.1,14.5c0.1,1.8,0,3.7-0.4,6.3c-1.1,7.7-4.5,15.8-9.5,23.1c-3.6,5-7.9,9.4-12.8,13l-4.6,3.4
		l5.5-1.6c17.8-5.2,31.2-14.4,39.8-27.1C424.8,128.4,424.5,115.5,423.5,113.1z"/>
	<path fill="#FFF59B" d="M370.9,141.6c7.5-6.1,14.4-10.3,20.5-12.3l0.7-0.2v-3.1l0,0c-0.2-5.1-1.5-8.5-4.1-10.6
		c-3.8-3-9.2-2.2-9.8-2l-0.2,0.1c-10.9,7.1-20.3,18.1-27.7,32.5c-5,9.5-8,18.5-9.7,24.4l-1.4,4.8l3.1-3.9
		C346.6,165.7,358,152.1,370.9,141.6z"/>
	<path fill="#FFF59B" d="M378.4,198.7c-0.7-0.4-1.5-0.9-2.5-1.6l-1.2-0.8c-5.8-4-16.7-11.4-28.5-14.3l-3.3-0.8l2.4,2.5
		c7.2,7.5,17.2,19.7,23.7,34.8c2.2,5.2,4,9.9,5.4,14.2c0.8,2.6,1.4,4.7,1.8,6.7l0.3,1.8l1.3-1.3c4.7-4.5,15.8-15.3,17.8-19.1
		l0.2-0.4l-0.1-0.4C394.2,215.4,381.8,200.6,378.4,198.7z"/>
	<path fill="#FFF59B" d="M361.8,84.7c4.7,7.1,6.3,17.8,4.2,27.8l-0.6,2.8l2.2-1.9c2.4-2,5-3.9,7.8-5.7l0.2-0.2
		c0.1-0.1,0.2-0.1,0.2-0.2c0.4-0.2,0.8-0.5,1.2-0.7c1.1-0.6,2.1-1.3,3.1-1.8l0.5-0.2l0.1-0.5c0.1-0.5,0.3-1,0.8-1.5
		c5.8-5.7,7.7-18.7,3.9-26.8l0,0c-2.4-5.1-6.5-7.5-12.1-7.1c-6.7,1-13.5,3.3-20.1,6.9l-2,1.1l2.1,0.8
		C356.5,78.7,359.4,81.2,361.8,84.7z"/>
	<path fill="#FFF59B" d="M348.5,171.4l-1.7,2l2.6-0.4c15.1-2.1,24.9-10.2,30.5-16.5l0.6-0.7l-8.5-8.6l-0.7,0.6
		C362.2,155.6,353.9,164.9,348.5,171.4z"/>
	<path fill="#FFF59B" d="M365,224.4l-0.4-0.9l-19.7,7.4v0.7c0,0.9,0,1.9,0,2.8c0,1-0.1,2-0.1,3c-0.5,24.3-2.7,37.7-4.4,44.6
		l-0.5,1.9l1.8-0.7c0.5-0.2,1-0.4,1.5-0.6c0.5-0.2,0.9-0.4,1.4-0.6c2.7-1.1,5.3-2.2,7.8-3.2c2.4-1,4.7-2,7-2.9l0.6-0.3v-0.5
		c0-0.1,0.1-0.1,0.1-0.2c1.2-3.6,5-27.4,7.2-41.8l0-0.1c0-0.3,0.1-0.4,0.1-0.5l0.3-0.4l-0.2-0.5C367.1,229.7,366.3,227.6,365,224.4z
		"/>
	<path fill="#FFF59B" d="M345,225.2l0,1.4l18.1-6.9l-0.4-1c-5.6-12.2-13.5-22.1-19.1-28.3l-2.3-2.6l0.6,3.4
		C343.7,201.7,344.8,213,345,225.2z"/>
	<path fill="#FFF59B" d="M333.7,191.2c0,0.2,0,0.4,0,0.6c0,0.3-0.1,0.6-0.1,0.8c-1,13.3-2.6,31-4.8,39.5c-0.5,1.9-1.2,4.3-2.3,7.3
		c-4.2,12.1-11.6,28.8-15.7,37.6l-0.7,1.6l25.5-2.4l0.1-0.7c1.8-9.6,2.9-22.5,3.2-38.2c0.4-17-0.7-32.6-3.3-46.3L333.7,191.2z"/>
	<path fill="#FFF59B" d="M334.7,168.4l0.6-2c1.7-5.5,4.2-12.8,8-20.6l0.3-0.7l-0.5-0.5c-1.9-1.8-8.6-8.4-13.1-17.5l0,0
		c-2.4-4.8-3.8-9.9-4-14.8c-0.1-3.2,0-6.1,0.4-8.6l0.7-5l-2.6,4.4c-2.7,4.6-4.8,9.5-6.1,14.6c-2.1,8.1-1.4,23,14.4,48.1L334.7,168.4
		z"/>
	<path fill="#FFF59B" d="M322.5,190.2c-2.4-1.4-4.3-3-5.8-4.7c-1.7-2-1.7-4.7-0.1-8.2l1.2-2.4l-2.4,1c-1.2,0.5-2.4,1-3.7,1.5
		c-1.2,0.5-2.4,1-3.6,1.5c-12.9,5.3-43.5,17.8-48.3,20.6l-0.2,0.1l-0.1,0.2c-3.5,4.4-9.6,33.8-13.7,59.2l-0.1,0.4l0.3,0.3
		c3.2,4,6.9,8.3,10.8,12.9l1.4,1.6l10.1-57c0.1-1,0.8-1.9,1.7-2.2l54.2-23.8L322.5,190.2z"/>
	<path fill="#FFF59B" d="M307.6,172.1l0.5,0.5l1.9-0.8c4.3-1.8,8.1-3.4,11.1-4.6l1.4-0.6l-29.2-28.3l-0.6,0.2
		c-4.2,1.3-8.7,2.8-13.3,4.4l-1.6,0.5l1.2,1.1C284.7,150,295.1,160,307.6,172.1z"/>
	<path fill="#FFF59B" d="M321.4,182l0.2,0.2c1.5,2,5.1,3.5,5.3,3.6l1.3,0.6l0.7-15.4l-1.9,2.1c-1.7,1.9-5.8,6.6-5.7,8.6L321.4,182z"
		/>
</g>
<g id="vs-primary">
	<path fill="#E20142" d="M395,207.9l0.8,1c3.9,5.3,6,9.5,6,11.7c0,4-8.9,14-26.5,29.8c-0.9,0.8-2.1,1-3.2,0.5l-1.2-0.5l-0.2,1.3
		c-1,6.3-2.3,13.5-3.4,19.4l-0.4,1.8l1.7-0.7c16.8-7.2,30-13.4,32.8-15.4l0.2-0.1l0.1-0.2c3.5-6.6,18.1-41.2,18.6-57.4l0-1.5
		L395,207.9z"/>
	<path fill="#E20142" d="M379.6,192.3c0.7,0.5,1.3,0.9,1.7,1.1c1.9,1,6.5,5.7,10.7,10.8l0.7,0.8l0.8-0.8c0.1-0.1,0.2-0.1,0.3-0.2
		l25.5-10.5l-0.5-1c-4.8-9.4-17-18.8-22.8-22.5c-0.3-0.2-0.7-0.5-0.9-0.8l-0.5-0.7l-0.8,0.4c-9.3,4.8-20.3,8.3-32.7,10.2l-3.2,0.5
		l2.9,1.4c6.8,3.2,12.5,7,17.3,10.3C378.7,191.7,379.2,192,379.6,192.3z"/>
	<path fill="#E20142" d="M347.5,128.4l-0.2-0.1c-1.2-0.7-2.1-1.2-2.9-1.2c-1.4,0-4.1,0.4-6.7,0.8l-1.5,0.2l0.8,1.3
		c3,4.8,6.3,8.4,8,10.2l0.9,0.9l0.6-1.1c1.2-2.2,2.7-4.5,4.4-7l0.5-0.7l-0.7-0.7C349.7,130,348.4,129,347.5,128.4z"/>
	<path fill="#E20142" d="M305.1,285.3c-0.9-0.1-1.7-0.5-2.2-1.2c-0.5-0.9-0.7-1.7-0.5-2.4l0.2-0.6c0-0.1,0.1-0.2,0.1-0.3
		c0.6-1.4,9.6-20.6,15.6-36.1l1.1-2.7l-12.3,7.4l-7.5,32.3l0,0l-4.4,19.1l1.7-0.6c9.1-3,21.7-7.7,35.5-13.1l0.2-0.1l0.1-0.1
		c0.2-0.2,0.3-0.4,0.4-0.7l0.2-0.5c0.2-0.5,0.4-1.1,0.6-1.8l0.4-1.4l-28.6,2.7C305.5,285.2,305.3,285.2,305.1,285.3z"/>
	<path fill="#E20142" d="M305.5,245.5l15.8-9.5l0.1-0.4c0.7-2,1.1-3.6,1.5-5c1.8-7.2,3.2-21.7,4.1-32.6l0.1-1.7l-48.1,21.1
		L305.5,245.5z"/>
	<path fill="#E20142" d="M318.6,151.9c-3-6.8-5-12.9-6-18.5l-0.2-1.1l-2.9,0.9c-2.7,0.8-5.5,1.6-8.2,2.5l-1.6,0.5l21,20.3
		L318.6,151.9z"/>
	<path fill="#E20142" d="M275.1,219.3l-1.3,0.7l-10.6,60.2l0.3,0.4c5.1,5.9,17.4,19.8,21.6,22.5l0.3,0.2l0.4,0
		c0.9-0.1,2.4-0.4,4.2-0.9l0.6-0.2l12.5-53.3L275.1,219.3z"/>
	<path fill="#E20142" d="M302,174.9l-1.1-1.1c-5.1-4.8-14.2-13.6-28.8-27.7l-0.8-0.8l-0.6,0.2c-20.7,6.9-35,12.1-40.3,14.8l-1.2,0.6
		l28.7,31.2c0,0.1,0.1,0.1,0.1,0.2c0,0,0.1,0.1,0.1,0.1l0.4,0.9l0.9-0.4c8-3.7,26.7-11.6,41.1-17.5L302,174.9z"/>
	<path fill="#E20142" d="M226.5,166.3c-3.7,13.6-7.9,51.8-7.8,58.2l0,0.2l0.1,0.2c0.6,1.1,2.1,3.5,4.5,6.5
		c3.5,4.6,9.1,11.9,15.9,20.1l1.4,1.7l0.4-2.1c1.2-6.8,2.5-14.1,4-21.6c3.9-19.1,7.1-30.1,9.8-33.6l0.5-0.7L227,164.6L226.5,166.3z"
		/>
</g>
<g id="vs-skin">
	<path fill="#FACFBD" d="M383,272.4c-5.1,2.2-11.5,5-18.1,7.6l-2.3,1c-5,2.1-10.1,4.2-15.2,6.3c-2.9,1.2-6.3,2.6-9.7,3.9
		c-20.5,8.2-35.5,13.7-44.4,16.1c-3.8,1-6.5,1.6-8.1,1.6c-0.8,0-1.1-0.1-1.3-0.2c-1.6-0.5-6-3.8-17.8-16.6l-0.3-0.4l-18.7,1.5h-0.3
		c-1.3,0-2.4-1-2.5-2.3c-0.2-1.5,1.1-2.6,2.3-2.7l13-1l2-0.2l-1.3-1.5c-0.8-0.9-1.6-1.8-2.4-2.8c-3.7-4.2-7.8-9-12.4-14.5
		c-1.7-2-3.4-4.1-5.1-6.2c0-0.1-0.1-0.2-0.2-0.3c-6.5-7.8-12.2-15-16.7-20.7c-0.4-0.5-0.8-1-1.2-1.5c-0.9-1.2-1.8-2.3-2.5-3.3
		l-0.4-0.6l-0.7,0.2c-5.7,1.8-13.8,2.3-17,2.5c-13.2,0.5-14.6-2.4-15.1-3.5c-0.6-1-2.3-4.1,7.3-21.2c0.1-0.3,13-29.5,7.1-53.6
		c-4.8-16.3-18.7-21.4-24.4-22.8c-10.2-2.6-18.2-0.4-21.4,2.8c-7,7.2-4,16.5,1.7,31l0.8,1.9c5.8,14.5,4.5,34.2-3.5,55.5
		c-4,10.6-10.1,20.3-16.4,30.1l-0.1,0.2c-4.8,7.4-9.3,14.5-10.1,18.9c-1,5.3-1,12.1-1,18.2l0,1.4c0,6.1,0,9.8-0.7,12
		c-0.9,3-21.7,31.4-55.8,76l-0.2,0.3l0,0.4c1.1,9.3,4.4,22.3,13.8,31.2c7.5,7.1,17.7,12.2,30.1,15l0.8,0.2l0.3-0.8
		c7-18.1,31.4-78.1,53.2-91.7c24.9-15.6,81.7-21.8,122.9-22.4c34.1-0.5,76.5-23.5,89.6-38.5c1.6-1.7,2.8-3.4,3.7-5.2l1.2-2.5
		L383,272.4z M154.8,319.7c0.1,1.3-1,2.5-2.3,2.5h-0.2c-1.4,0-2.4-1-2.5-2.3c-0.1-2.9,0.2-28.9,25.9-39.5c0.3-0.1,0.7-0.2,1-0.2
		c1,0,1.9,0.6,2.3,1.5c0.2,0.6,0.2,1.4,0,2s-0.7,1.1-1.3,1.3l0,0C154.6,294.5,154.8,318.6,154.8,319.7z"/>
</g>
<path fill="none" stroke="#000000" stroke-width="8" stroke-linecap="round" stroke-linejoin="round" stroke-miterlimit="10" d="
	M64.2,388.1c0,0,57.5-75.1,58.8-79.5s-0.5-20.8,1.6-31.3s19-29.1,26.8-49.8c7.8-20.6,8.9-39.7,3.6-53.3c-5.3-13.6-11.1-26.5-1.8-36
	s42.8-6.1,50.8,21.3c6.2,25.2-7.3,55.7-7.3,55.7s-8.8,15.6-7.3,18.6s21.6,2.2,29.2-0.8"/>
<path fill="none" stroke="#000000" stroke-width="8" stroke-linecap="round" stroke-linejoin="round" stroke-miterlimit="10" d="
	M117.4,433.7c0,0,28.4-76.1,52.3-91.1c23.8-15,79.5-21.4,121.4-22s98.8-34.9,96.9-50.4"/>
<path fill="none" stroke="#000000" stroke-width="8" stroke-linecap="round" stroke-linejoin="round" stroke-miterlimit="10" d="
	M383.5,104.9c11-10.8,9.6-41-10.8-39c-27.5,4.4-50.9,27.3-57.1,50.9s20.4,58.7,20.4,58.7s8.9-44.9,40.8-65.1s46.1-7.1,49.5,1.6
	s-3.9,65.1-88.7,65.8"/>
<path fill="none" stroke="#000000" stroke-width="7" stroke-linecap="round" stroke-linejoin="round" stroke-miterlimit="10" d="
	M345.9,143.8c0,0-16.5-14.2-17.3-31.5s8.1-31.5,19.9-32.7c11.8-1.1,22.6,22.5,10.3,44.5"/>
<path fill="none" stroke="#000000" stroke-width="7" stroke-linecap="round" stroke-linejoin="round" stroke-miterlimit="10" d="
	M377.6,110.8c0,0,16.4-3.6,17,15s-15.9,47.5-48.2,50"/>
<path fill="none" stroke="#000000" stroke-width="7" stroke-linecap="round" stroke-linejoin="round" stroke-miterlimit="10" d="
	M341.7,175.8c0,0,28-37,51-44.4"/>
<path fill="none" stroke="#000000" stroke-width="8" stroke-linecap="round" stroke-linejoin="round" stroke-miterlimit="10" d="
	M311.2,129.5c0,0-80,25-85.1,30c-5,5-10.8,61.2-10.3,65.8s61.5,78.4,68.8,80.7s116.7-43.1,119.5-47.7c2.8-4.6,20.6-45.4,19.3-62.4
	c-3.9-14.7-25.7-28.4-25.7-28.4"/>
<line fill="none" stroke="#000000" stroke-width="8" stroke-linecap="round" stroke-linejoin="round" stroke-miterlimit="10" x1="382.7" y1="153.6" x2="374.6" y2="145.4"/>
<path fill="none" stroke="#000000" stroke-width="8" stroke-linecap="round" stroke-linejoin="round" stroke-miterlimit="10" d="
	M352.7,128.7c0,0-5.2-4.6-8.4-4.6s-11.4,1.6-11.4,1.6"/>
<path fill="none" stroke="#000000" stroke-width="8" stroke-linecap="round" stroke-linejoin="round" stroke-miterlimit="10" d="
	M242.5,260.4c0,0,9.4-59.5,15.4-63.2s70.3-29.7,70.3-29.7s-12.7,12.2-9.3,16.1s8.4,5.7,8.4,5.7"/>
<path fill="none" stroke="#000000" stroke-width="8" stroke-linecap="round" stroke-linejoin="round" stroke-miterlimit="10" d="
	M331.9,171.8c0,0-2.1,44.6-6,59.6s-20.6,50.8-20.6,50.8l30.4-2.9"/>
<path fill="none" stroke="#000000" stroke-width="8" stroke-linecap="round" stroke-linejoin="round" stroke-miterlimit="10" d="
	M335.7,287.7c0.3-0.9,5.4-11.3,6.3-50.3s-6.3-58.7-6.3-58.7s20,16.2,30.6,40.8c10.5,24.6,7,28.6,7,28.6s25.5-22.9,25.5-27.5
	s-14.7-22.2-19-24.6s-21.9-16.8-40.1-18.1"/>
<polyline fill="none" stroke="#000000" stroke-width="8" stroke-linecap="round" stroke-linejoin="round" stroke-miterlimit="10" points="
	329.3,192.3 271.2,217.8 260.1,281 "/>
<path fill="none" stroke="#000000" stroke-width="8" stroke-linecap="round" stroke-linejoin="round" stroke-miterlimit="10" d="
	M370.5,233.6c0,0-5.7,37.9-7.4,42.5"/>
<path fill="none" stroke="#000000" stroke-width="8" stroke-linecap="round" stroke-linejoin="round" stroke-miterlimit="10" d="
	M273.2,143.2c0.9,0.7,33.2,31.9,33.2,31.9"/>
<line fill="none" stroke="#000000" stroke-width="8" stroke-linecap="round" stroke-linejoin="round" stroke-miterlimit="10" x1="294.1" y1="134.9" x2="324.8" y2="164.8"/>
<line fill="none" stroke="#000000" stroke-width="6" stroke-linecap="round" stroke-linejoin="round" stroke-miterlimit="10" x1="225.7" y1="160.2" x2="256.5" y2="193.7"/>
<polyline fill="none" stroke="#000000" stroke-width="6" stroke-linecap="round" stroke-linejoin="round" stroke-miterlimit="10" points="
	276.5,217.8 305.3,248.1 322.2,237.9 "/>
<line fill="none" stroke="#000000" stroke-width="6" stroke-linecap="round" stroke-linejoin="round" stroke-miterlimit="10" x1="305.3" y1="248.1" x2="292.6" y2="302.7"/>
<line fill="none" stroke="#000000" stroke-width="6" stroke-linecap="round" stroke-linejoin="round" stroke-miterlimit="10" x1="344.4" y1="229" x2="365" y2="221.2"/>
<line fill="none" stroke="#000000" stroke-width="6" stroke-linecap="round" stroke-linejoin="round" stroke-miterlimit="10" x1="394.6" y1="205.9" x2="422.8" y2="194.3"/>
<line fill="none" stroke="#000000" stroke-width="7" stroke-linecap="round" stroke-linejoin="round" stroke-miterlimit="10" x1="246.7" y1="290.9" x2="265.4" y2="289.4"/>
<path fill="none" stroke="#000000" stroke-width="7" stroke-linecap="round" stroke-linejoin="round" stroke-miterlimit="10" d="
	M152.3,319.8c0,0-1.1-26.6,24.3-37.1"/>
<path fill="none" stroke="#000000" stroke-width="34" stroke-linecap="round" stroke-linejoin="round" stroke-miterlimit="10" stroke-opacity="0" d="
	M64.2,381.4c6.9,6.3,42.5,42.6,42.5,42.6l14.7-25.2c0,0-35.5-25.9-37.7-29.7c-2.1-3.8,10.8-20.9,10.8-20.9s34.7,34.2,35.6,32.8
	s18.7-22,18.7-22s-43.3-25.6-42.3-26.9s10.9-19.9,10.9-19.9s41.1,25.7,43.4,24.8s23.3-5.5,22-5s-53.2-36.2-52.3-39
	s7.3-22.7,7.3-22.7l64.1,56.1l17.8-6.5L148.8,255l5.8-37.1l90.3,101.5c0,0,23.7,1.6,26,3.9s-88.1-105.4-88.1-105.4l-11.2-29.7
	l-10.3-43.8l25.2,6.6l3,50.2"/>
<polyline fill="none" stroke="#000000" stroke-width="34" stroke-linecap="round" stroke-linejoin="round" stroke-miterlimit="10" stroke-opacity="0" points="
	270.9,317.2 282.1,323.2 320.5,315.8 383.4,287.7 "/>
<path fill="none" stroke="#000000" stroke-width="21" stroke-linecap="round" stroke-linejoin="round" stroke-miterlimit="10" stroke-opacity="0" d="
	M250.2,272.9c0.6-2.7,14.1-66.2,14.1-66.2l61.8-27.4l-39.8-37"/>
<path fill="none" stroke="#000000" stroke-width="21" stroke-linecap="round" stroke-linejoin="round" stroke-miterlimit="10" stroke-opacity="0" d="
	M323.7,106.8c0,0-3.2,15.3-0.7,24.6c2.4,9.3,12.7,28.9,12.7,28.9l1.2-11.8l3.5,16.3l16.1-19.4l29.8-26.9l27.4-11.7
	c0,0,9.2,5.2,8.3,5.4c-0.8,0.2-18.9,9.8-19.2,10.9s-0.5,12.7-0.5,12.7s19-12.8,18.6-11.7c-0.3,1.1-19.3,23.7-20.2,24.4"/>
<path fill="none" stroke="#000000" stroke-width="15" stroke-linecap="round" stroke-linejoin="round" stroke-miterlimit="10" stroke-opacity="0" d="
	M395.6,155.5c-0.9-0.1-11.6,8.9-12.2,9.4s-6.6,2.7-6.6,2.7"/>
<path fill="none" stroke="#000000" stroke-width="21" stroke-linecap="round" stroke-linejoin="round" stroke-miterlimit="10" stroke-opacity="0" d="
	M353.6,80.7c0.2,0.1,24-12.7,24.3-11.5s5.5,8.9,5.5,8.9s-22.9,6.3-22.9,8s-0.6,14.5-0.6,14.5l27.7-9.2l-11.8,22.7"/>
<path fill="none" stroke="#000000" stroke-width="21" stroke-linecap="round" stroke-linejoin="round" stroke-miterlimit="10" stroke-opacity="0" d="
	M343.9,184.9c2.2,1.8,28.2,21,28.2,21s13.6,13.8,13.2,14c-0.3,0.2-6.5,11.9-6.5,11.9l-38.2-40.6l0.9,23.3c0,0,16.2,18,16.2,18.3
	s-1.7,13.7-1.7,13.7l-20.3-22l-3.7,13.3l24.1,18.2c0,0-1.9,11.4-2.4,11.4S330,252.5,330,252.5l-10.3,18.7c0,0,9.4-1.3,10.2-1
	s5.9-2.4,5.9-2.4s14.8,6.3,14.2,6.8c-0.6,0.5-5.5,6.5-5.5,6.5"/>
<path fill="none" stroke="#000000" stroke-width="30" stroke-linecap="round" stroke-linejoin="round" stroke-miterlimit="10" stroke-opacity="0" d="
	M227.2,164.8c1.8-1,123.1-37.1,124.4-35.3c1.4,1.8,6.9,9.4,6.9,9.4s-129.3,41.9-129.8,42.8s-5.5,19.7-5.5,19.7
	s152.4-49.1,155.5-46.2c3.1,2.9,12.4,11.4,12.4,11.4s-165.4,52.6-165.4,53.9s2.5,13.8,2.5,13.8s174.5-49.6,177-47.7
	s18.8,7.1,12.6,9.7C411.6,198.8,244,251,244,251l9.9,16.8c0,0,161-47.8,160.8-47.3s-3.8,16.1-3.8,16.1s-142.6,45-139.2,47.6
	c3.4,2.5,10.3,10.3,11.3,10.5s119.4-37.1,119.4-37.1"/>
</svg>
