<?xml version="1.0" encoding="utf-8"?>
<!-- Generator: Adobe Illustrator 22.1.0, SVG Export Plug-In . SVG Version: 6.00 Build 0)  -->
<svg version="1.1"
	 id="Layer_1" xmlns:cc="http://creativecommons.org/ns#" xmlns:dc="http://purl.org/dc/elements/1.1/" xmlns:rdf="http://www.w3.org/1999/02/22-rdf-syntax-ns#" xmlns:svg="http://www.w3.org/2000/svg"
	 xmlns="http://www.w3.org/2000/svg" xmlns:xlink="http://www.w3.org/1999/xlink" x="0px" y="0px" width="1000px" height="1000px"
	 viewBox="0 0 1000 1000" enable-background="new 0 0 1000 1000" xml:space="preserve">
<g id="vs-highlight">
	<path id="path4" fill="#5DBFD9" d="M599.9,239.5l-32.1,6.6c-45.5,9.4-92.6,9.4-138.1,0l-26.7-7.7l-3.2-74.2l32.7,6
		c43.8,7.5,88.5,7.5,132.3,0l34.8-6v75.3L599.9,239.5L599.9,239.5z"/>
	<path id="path6" fill="#5DBFD9" d="M640.9,425.9c-0.2,0-0.4,0.2-0.6,0.2c-88.9,30.6-187.3,21.8-276-4.9
		c-14.3-4.3-28.2-11.8-28.6-28.4l-1.5-62.9c0.2,7.1,30.4,16.7,35.9,18.4c47.9,15.4,101.6,18.4,151.2,18.2
		c109.9-0.4,153.3-38.7,154.4-39.8c-0.4,16.2-0.6,32.7-1.3,49c-0.4,14.3,0,29.3-12,39.3C656.1,420.1,648.6,423.1,640.9,425.9z"/>
	<path id="path8" fill="#5DBFD9" d="M710.4,583.7c-65.9,28-137,40-208,40.2c-71.2,0.2-142.6-11.8-208.5-39.6l-3.2-69.7
		c66.7,26.5,137.7,44.7,209.1,44.7c71.4,0.2,143.5-17.5,210.4-43.8L710.4,583.7z"/>
	<path id="path10" fill="#5DBFD9" d="M779.9,690.2c-29.9,10-57.9,23.9-88.5,33.1c-30.6,9.2-62,16.2-93.9,21
		c-63.5,9.6-128.7,10.5-192.6,1.9c-33.1-4.3-66.1-11.8-97.7-21.2c-17.1-5.1-33.8-10.9-50.2-17.3c-10.5-4.1-28.4-11.8-45.3-24.4
		c-1.5,14.3-1.3,35.7-0.9,50c0.2,12.6-1.9,21.4,12.4,28.2c83.8,40.2,178.3,61.6,273,61.8c98.8,0,197.3-23.1,283.7-66.7
		c-0.2-11.5-0.9-23.1-1.1-34.6C778.8,712.4,782.5,698.9,779.9,690.2z"/>
	<path id="path12" fill="#5DBFD9" d="M494.9,502c0.2,0,0.4,0,0.9,0c0.2,0,0.4,0,0.6,0c21.6,0.6,40.8,0.2,57.7-1.1
		c15.2-4.3,31.4-4.7,47.2-5.8c6.4-1.1,12.2-2.4,17.1-3.4c0.4-0.6,1.1-1.3,2.4-1.5c7.7-1.7,15.4-3.6,23.1-6c0.6-0.2,1.3-0.2,1.7-0.2
		c2.6-0.9,5.1-1.9,7.7-3c-0.4,0.4-0.9,1.1-1.3,1.5c-0.4-0.2-0.9-0.2-1.3,0c-0.6,0.2-1.1,0.6-1.7,1.1c2.8-0.6,5.6-1.3,8.3-1.9
		c-0.2-0.6-0.6-1.1-1.1-1.1c9-3.6,17.5-7.9,25.7-12.8c2.4-1.5,5.3-3.4,8.1-5.6c0.6,0.4,1.5,0.6,2.4,0c3.6-2.4,7.5-4.9,11.1-7.5
		c1.9-1.3,3.6-2.8,4.3-4.7c1.1-0.6,1.9-1.3,3-2.1c0.6-0.6,1.3-1.5,1.5-2.4c-1.3-0.2-2.1-0.9-3-1.5c-2.4-1.9-4.5-4.3-6-7.1
		c-1.7,0.2-3.6,0.9-5.6,1.5c-3.8-1.5-8.8-2.4-12-3.6c-3-1.3-10-7.7-13.3-5.3c-1.9,1.3,1.5,8.3,0.9,10.5c-1.7,0.4-3.4,1.5-5.1,2.4
		c-7.1,3.8-14.3,6.8-21.4,10.5c-9.2,4.5-18.2,10.7-27.6,15.2c-1.3,0.2-2.6,0.2-3.6,0.2c-16.9,1.5-33.8,3.6-50.5,6.2
		c-5.6,0.9-11.3-0.4-17.1,0.4c-12.6-3-26.5-3.6-39.1-2.6c-7.3,0.6-14.5,0.2-21.8,0.4c-4.7,0-9,0.4-13.3,0.4c-4.5-1.1-9-2.1-13.7-2.4
		c-2.8-0.2-5.6,0.2-8.3,0.4c-9.6-1.3-19.2-2.1-28.9-2.4c-3.4-1.1-6.8-2.1-10.5-2.6c-13.5-1.7-26.7-6.2-39.6-10.3
		c-8.8-2.6-14.8-5.3-22.2-10.9c-3.2-2.4-9.2-7.7-11.3-11.5c3-6-4.9-15-11.5-10.3c-4.5,3.2-11.3,6.4-15,11.1
		c-3.2,1.9-6.2,3.6-8.6,5.1c-1.3,0.9-2.4,1.7-3.2,2.4c-0.4-0.2-1.1-0.2-1.5,0c-0.9,0.6-1.5,1.5-1.5,2.4c-1.1,0.4-1.7,1.9-1.1,3
		c1.3,1.9,3.4,4.3,5.8,4.7c0.6,1.3,1.3,2.6,2.1,3.8c-0.6-0.2-1.5-0.2-1.7,0.6c-0.4,0-0.9,0.2-1.1,0.6l0,0c1.1,0.9,2.1,1.7,3.2,2.6
		c0.4-0.9,0.9-1.7,0.9-2.6c1.1,1.3,2.1,2.8,3.2,3.8c-0.2,0-0.2,0.2-0.4,0.2c-0.2,0-0.6,0.2-0.9,0.4c0.9,0.6,1.9,1.3,2.8,1.9
		c0-0.2,0.2-0.4,0.2-0.6c0.9,0.9,1.9,1.9,3,2.6c1.7,1.3,3.6,2.4,5.3,3.6c2.1,1.3,4.5,2.4,6.8,3.2c-0.6-0.2-1.5-0.2-2.1,0.2
		c0.9,0.6,1.9,1.5,2.8,2.1c0-0.2,0-0.2,0-0.4c0.2-0.2,0.6-0.2,0.6-0.2c0.6,0,1.3-0.4,1.5-0.9c8.3,2.8,20.1,8.8,28.2,11.3
		c5.1,1.5,10,3,15.2,4.3c11.1-0.2,22.4,3.8,33.6,6.8c13.5,2.1,27.2,3.4,41.5,4.3c15.4,0.9,31,1.3,46.4,1.9
		C494.5,502,494.7,502,494.9,502z"/>
	<path id="path14" fill="#5DBFD9" d="M369.8,297.6c3.2,0.9,6.6,1.7,10,2.6c-1.1,0.6-1.5,1.7-2.1,3c0.9,0.2,1.9,0.4,2.8,0.6
		c0.6-0.6,1.1-1.5,1.3-2.4c0-0.2,0-0.6-0.2-0.9c1.1,0.2,1.9,0.4,3,0.9c-0.2,1.3-0.6,2.4-1.1,3.2c0.6,0.2,1.3,0.4,2.1,0.6
		c0.9-1.1,1.5-2.4,1.3-3.6c5.6,1.3,10.9,2.4,16.5,3.2c0.6,0,1.3,0.2,1.9,0.2c2.6,0,5.1,0.4,7.7,0.9c9,0.9,17.7,1.5,26.7,2.8
		c-0.2,0.2-0.2,0.6-0.4,0.9c1.1,0,2.1,0.2,3.2,0.2c0-0.2,0-0.4,0-0.4c0-0.2,0-0.2,0-0.2c0.9,0.2,1.7,0.2,2.6,0.4c0,0.2,0,0.2,0,0.4
		c7.1,0.2,13.9,0.4,21,2.1c0.6-0.4,1.3-0.6,2.1-0.4c5.3,0.4,10.5,0.9,15.6,1.5c0.6,0,1.3,0,2.1,0c1.9,0,3.6,0,5.6-0.2v0.2
		c0.9,0,1.9,0,2.8,0c0-0.2,0-0.2,0-0.4c8.1-0.2,16.2-0.6,24.6-1.1c-0.2,0.2-0.4,0.2-0.4,0.4c0,0-0.2,0.2-0.2,0.4
		c0.9,0,1.9,0,2.8,0.2c0.2-0.2,0.2-0.4,0.6-0.4c0.2-0.2,0.2-0.6,0.2-0.9c1.5,0,3-0.2,4.3-0.2c-0.6,0.6-1.1,1.3-1.7,1.9
		c0.9,0.2,1.5,0.4,1.9,0.9c0.4,0,0.9,0,1.3,0c0.6-0.6,1.3-1.5,1.9-2.1c0.2-0.2,0.2-0.4,0.4-0.9c11.8-0.9,23.5-1.7,35.3-2.4
		c4.7-0.2,9.2-0.9,13.5-1.5c-0.2,0.2-0.4,0.2-0.6,0.4c0,0.2-0.2,0.2-0.2,0.4c-0.2,0.4-0.2,1.1,0,1.5c3.6-0.4,7.3-0.6,10.9-1.1
		c-2.4-0.2-4.5-0.9-6.6-1.1c-0.2,0-0.4-0.2-0.6-0.2c-0.2-0.2-0.4,0-0.6,0.2h-0.6c-0.2-0.2-0.4-0.4-0.9-0.4
		c7.9-1.3,15.4,1.1,23.3-1.1c1.3-0.4,5.8-1.9,7.1-2.1c8.3,1.1,13.5-1.1,21.4-3.2c4.7-1.3,10.7-2.6,15.6-4.3
		c7.1-0.4,15.6-6.4,20.3-10c4.5-1.5,1.9-8.6-3.6-7.3c-1.1,0.2-2.1,0.2-3.4,0.2c0.2-1.7-0.4-3.6-2.4-4.5c-3.8-1.7-6.8-5.6-10.9-5.1
		c-1.9-0.4-5.6-0.2-6.8-0.4c-6-0.4-8.1-1.5-13.9-3c-6.6-1.7-19.7-6.6-25.7-1.3c-0.9,0.9,1.3,4.7,1.3,5.8c-0.9,0.6-1.9,1.3-2.6,1.9
		c-1.1,1.1-1.5,2.8-1.1,4.3c-0.2,0-0.6,0-0.9,0.2c-12.6,2.1-24.8,5.1-37.6,6.4c-10.7,1.1-21.4-1.1-32.3-0.4c-20.3,1.3-41.3,6-61.4,3
		c-11.8-1.7-23.7-3-35.5-4.7c-5.3-0.9-10-1.9-15.2-3.6c-1.1-0.4-7.1-1.7-10.3-3.4c0.2-1.5,0.4-3,0-5.1c-0.6-3.2-3.8-4.9-6.8-5.1
		c-1.9,0-3.4,0.4-4.9,1.1c-6.4-0.4-13.7,1.1-18.8,1.9c-6.2,0.9-11.5,2.6-15.2,5.8c-3,0.2-6,0.2-9,0.2c-3.8,0-5.6,3.6-4.7,6.6
		c-1.3,0.9-2.1,2.8-1.1,4.3c4.5,6.6,16,11.3,23.7,13.5c-1.5,0.2-2.8,1.1-3.8,2.1c1.7,0.4,3.4,1.1,5.1,1.5
		C370.7,300.8,370.9,298.7,369.8,297.6z"/>
	<path id="path18" fill="#5DBFD9" d="M506.9,705.6c-0.4,0.2-0.4,0.4-0.6,0.6c0.9,0,1.7,0,2.4-0.2c0-0.4-0.4-0.6-0.9-0.6
		c4.5-0.2,9.2-1.1,13.7-2.1c4.1,0.2,8.1,0.2,12.2,0c10.5-0.9,21.2-0.6,31.6-1.7c12.6-1.5,25-3,37.4-4.7c0,0.4,0,0.9,0,1.3
		c1.1-0.2,1.9-0.2,3-0.4c-0.2-0.4-0.4-1.1-0.9-1.5c10.5-1.5,21-3.4,31.4-5.6c9.4-1.9,18.2-4.7,27.2-7.5c0.2-0.2,0.6-0.4,1.1-0.4
		c0.4,0,0.6-0.2,1.1-0.2c2.6-0.9,4.9-1.7,7.5-2.4c12.2-3.8,25-6,37.2-10.5c18.8-6.8,40.2-12.2,56.2-24.4c8.6-5.6,19-10.7,16.9-22.9
		c-0.6-4.1-3-7.1-6-9.4c-1.1-4.7-3.4-9-7.9-11.1c-0.2-0.2-0.6-0.2-0.9-0.4c-1.1-2.1-2.6-4.3-4.5-5.3c-1.1-0.6-2.1-0.6-3.2-0.4
		l-0.2-0.2c-2.8-3.2-5.3-5.6-9.2-7.7c0,0-1.7-0.6-3.6-1.5c-3-2.6-6.2-4.7-9.4-6c-2.1-0.9-4.1-0.2-5.6,1.1c-2.1-1.1-4.1-2.1-6-3.4
		c-1.5-1.9-3.2-3.2-5.1-4.1c-1.1-1.1-1.9-2.1-2.6-3.4c-2.1-3.2-7.9-1.5-6.4,2.8c0,0.2,0.2,0.2,0.2,0.4c-4.9,1.5-8.1,7.3-6.6,12.2
		c0.9,2.6,2.1,5.1,3.6,7.3c-0.9,2.8-1.7,5.3-2.1,8.1c-0.6,3.2,0.6,6.2,0.4,9.2c-0.6,5.6-6,9.4-9.2,13.5c-2.1,2.8-2.8,5.8-2.4,8.6
		c-1.5,0.6-2.8,1.1-3.8,1.3c-7.1,2.6-14.5,5.1-21.8,6.8c-17.7,4.1-34.6,11.8-52.4,16.2c-10.5,1.5-20.7,2.6-31.4,2.8
		c-26.7,0.6-53.2,1.3-80,1.3c-11.8,0-23.3,0.4-35.1,0.6c-5.8,0-11.3,2.1-17.1,1.5c-6-0.6-12.4-1.9-18.4-3
		c-11.8-2.4-23.1-4.7-35.1-5.6c-11.3-0.6-21.2-4.5-32.1-6c-2.1-0.2-2.1-0.2-3-0.4c-1.1,0-2.1,0-3,0.2c-4.7-1.5-9.6-2.1-14.5-3.2
		c-2.4-0.4-5.1-1.1-7.9-1.7c-2.4-0.9-4.5-1.5-6.8-2.1c-1.3-0.6-2.6-1.3-4.1-2.1c-2.8-1.7-5.6-4.3-8.6-5.6c-2.1-1.1-4.5-1.1-6.6-0.6
		c-0.4-0.4-1.1-0.9-1.5-1.3c-8.8-7.9-16.7-17.1-22.4-27.4c-0.2-3.6-0.4-7.3-0.2-10.9c0.6-3,1.1-6,0.6-9c9.2-4.7,0.4-20.7-9.6-15
		c-0.6,0.4-1.1,0.6-1.5,1.1c-1.7,1.3-3.4,2.6-4.9,3.8c-1.5-0.4-3-0.2-4.7,0.6c-7.1,3.2-13.3,8.3-20.1,12.2c-8.3,4.7-15.2,10-22.7,16
		c-3.4,2.8-7.3,6-9.6,9.8c-0.9,0.2-1.5,0.4-2.4,0.9c-4.7,1.9-7.5,6.4-7.1,10.7c1.7-1.1,4.3-0.9,5.3,1.3c5.1,9.8,12.4,17.7,19.9,25.4
		c1.1,0.9,1.9,1.7,2.8,2.6c0,0-0.2,0-0.2,0.2c0.6,0.6,1.1,1.3,1.7,1.7l0.2-0.2v-0.2c4.5,3.8,9.6,6.8,15.2,9.2c0,0,0,0-0.2,0
		c0,0,0,0-0.2,0c-0.4,0-0.9,0.2-1.3,0.4c1.1,0.6,2.1,1.3,3.2,1.9c0.4-0.4,0.6-0.9,0.6-1.3c0.9,0.4,1.7,0.6,2.8,1.1
		c-0.2,0-0.2,0-0.4,0.2c-0.4,0.2-0.9,0.6-1.3,1.1c1.1,0.6,2.1,1.1,3.2,1.7c0.4-0.6,0.4-1.5-0.2-2.1c3.2,1.1,6.2,1.9,9.4,2.6
		c3,0.6,6,1.5,9.2,2.1c6,6.4,19.2,11.1,25.2,11.5c6.8,0.4,13.5,1.3,20.3,2.6c0.2,0.9,0.9,1.5,1.9,1.9v0.4c-0.6,0.2-1.1,0.6-1.1,1.3
		c1.3,0.4,2.4,0.9,3.6,1.3c0-0.4,0-0.6,0-1.1v-1.1c7.9,3,17.3,3.8,25.7,4.9c1.9,0.4,4.1,0.6,6,0.9c0.9,0,1.5,0,2.1-0.2
		c5.6,0.4,10.9,0.9,16.5,1.7h0.6c12.2,2.4,24.4,6,36.8,6.2c4.7,0,9.4,0.2,14.1,0.6c0.9-0.6,1.9-1.1,3.2-0.6c1.5,0.4,2.8,0.9,4.1,1.3
		c11.1,0.9,22.7,1.7,33.8,1.1c10-0.6,20.3,0.2,30.4,0.6L506.9,705.6L506.9,705.6z"/>
	<path id="path20" fill="#5DBFD9" d="M369.6,649.1L369.6,649.1L369.6,649.1L369.6,649.1z"/>
	<path id="path22" fill="#5DBFD9" d="M409.4,93.9c0.6,0,1.1,0.2,1.7,0.2c-0.2,0.2-0.2,0.4-0.4,0.6c1.5,0.4,3,0.9,4.3,1.3
		c0.2-0.4,0.6-0.9,1.1-1.3c1.1,0.2,2.1,0.4,3.2,0.6c-0.4,0.2-0.9,0.4-1.1,1.1c0,0.2,0,0.4-0.2,0.4c1.3,0.4,2.4,0.9,3.6,1.3
		c0-0.4,0.2-1.1,0-1.5c0-0.4-0.2-0.6-0.6-0.9v-0.2c5.6,1.3,10.9,3,16.5,4.3c5.6-0.4,10.9,0.4,16.2,1.9l0,0c2.8,0,5.6,0,8.1,0h1.5
		l0,0c1.5,0,3,0.2,4.5,0.4c0-0.2-0.2-0.4-0.2-0.6c2.6,0,5.1,0,7.7,0c0.9-0.6,1.9-0.9,3-0.6s1.9,0.2,3,0.4c3-0.2,6-0.4,9-0.6
		c-0.4,0.4-0.6,0.9-0.9,1.3c0,0.2,0,0.4,0,0.6c1.5,0.2,2.8,0.4,4.3,0.6c0-0.9-0.2-1.1-0.2-1.3c1.3-0.2,6,0.2,7.3,0
		c17.5-2.4,53.5-3.6,54.1-2.8l0.2,0.2c-0.2,0-0.6,0.2-0.9,0.2c-0.2,0.2-0.2,0.4,0,0.6c1.7,0.4,3.4,0.4,5.3,0.2c0.2,0,0.2,0,0.4,0
		c0.6,0,1.3,0,1.9,0c3-0.4,6-1.1,9.2-1.5c3.8-1.1,11.8-3.2,16-3.4c0.4-1.1,1.1-1.9,2.6-2.4c1.5-0.4,3-0.9,4.5-1.3
		c0.9-0.2,1.7-0.6,2.8-0.9c-0.4-0.9-0.9-1.7-1.9-2.4c-0.2,0-0.2-0.2-0.4-0.2c0.4-1.3-0.4-3-1.7-3.8c-10.5-6-24.6-6.6-36.1-6.6
		c-19.9,0.2-40,1.5-59.9,1.3c-19.2-0.2-37.8-2.4-57.1-4.1c-6.8-0.6-23.1-0.9-27.4,7.1c-0.9,0-1.7-0.2-2.6-0.2
		C403.2,81.7,400.6,93,409.4,93.9z"/>
</g>
<g id="vs-outline">
	
		<path id="path25" fill="none" stroke="#000000" stroke-width="20" stroke-linecap="round" stroke-linejoin="round" stroke-miterlimit="10" d="
		M209.3,669.2c0,0-126.4,49.8-72.9,123.4c0,0,80.6,115,418.4,105.4c0,0,208.7,1.1,301.7-96.4c1.3-1.5,2.8-3,4.3-4.3
		c8.6-8.6,58.8-65.2-77.4-119.7"/>
	
		<path id="path27" fill="none" stroke="#000000" stroke-width="20" stroke-linecap="round" stroke-linejoin="round" stroke-miterlimit="10" d="
		M123.8,753.2v22.9c0,18.6,6.8,36.6,19.2,50.5c30.4,34,106.9,85.5,293.3,95.1c0,0,225.3,20.1,346.6-39.1c0,0,42.5-16.7,72.5-48.1
		c13.7-14.3,21-33.6,21-53.2v-23.7"/>
	
		<path id="path29" fill="none" stroke="#000000" stroke-width="20" stroke-linecap="round" stroke-linejoin="round" stroke-miterlimit="10" d="
		M290.9,570c-29.1,3.6-75.5,31.6-77.6,50.2c-4.1,36.3-4.1,98.1-4.1,136c0,8.3,0,17.3,9.6,27.8c8.3,9.2,25.4,19.9,35.1,24.2
		c30.1,13,63.5,21.6,95.6,29.1c66.9,15.4,136,21,204.4,16.9c58.2-3.6,116.9-14.8,168.5-41.7c15.2-7.9,30.1-17.7,41.3-31
		c12.6-15.4,15.4-34.8,16.7-54.1c1.9-26.5,1.7-53,2.6-79.7c1.1-36.3,1.9-53.4-70.6-78"/>
	
		<path id="path31" fill="none" stroke="#000000" stroke-width="20" stroke-linecap="round" stroke-linejoin="round" stroke-miterlimit="10" d="
		M218.9,632c0,0,26.5,73.1,283.5,73.5c52.4,0,104.5-6.2,155.2-19.5c41-10.9,87.7-20.1,116.9-45.1"/>
	
		<path id="path33" fill="none" stroke="#000000" stroke-width="18" stroke-linecap="round" stroke-linejoin="round" stroke-miterlimit="10" d="
		M338.4,423.3c-21.6,3.4-46.2,15-47.7,31.9c-3,33.4,3.6,112.2,4.1,146.9c0.9,78.5,414.1,81,414.1,5.6c0-38.3,1.3-107.8,5.3-131.7
		c4.5-27.2-7.7-40.6-41.7-46.2"/>
	
		<path id="path35" fill="none" stroke="#000000" stroke-width="18" stroke-linecap="round" stroke-linejoin="round" stroke-miterlimit="10" d="
		M298,450.3c0,0,29.7,59.4,253.8,51.1c0,0,101.3-4.9,149.7-44.7"/>
	
		<path id="path37" fill="none" stroke="#000000" stroke-width="16" stroke-linecap="round" stroke-linejoin="round" stroke-miterlimit="10" d="
		M401.7,263c-17.3,3.2-69.1,4.5-68.4,30.1c0.9,31.6,2.8,85.1,3.2,117.6c0.6,74.2,200.8,64.8,247.2,60.9c36.6-3,85.9-18.4,87.4-36.6
		c3-36.3,8.1-112.5,5.1-135.1c-5.1-37-48.1-31.9-75.3-37"/>
	
		<path id="path39" fill="none" stroke="#000000" stroke-width="16" stroke-linecap="round" stroke-linejoin="round" stroke-miterlimit="10" d="
		M345.9,287.6c0,0,22.2,26.9,199.5,23.9c0,0,76.5-3.4,119.7-21.8"/>
	
		<path id="path41" fill="none" stroke="#000000" stroke-width="14" stroke-linecap="round" stroke-linejoin="round" stroke-miterlimit="10" d="
		M410.7,93c0,0,13.3,10.5,112.7,9c0,0,44.9-0.9,66.5-7.9"/>
	
		<path id="path43" fill="none" stroke="#000000" stroke-width="14" stroke-linecap="round" stroke-linejoin="round" stroke-miterlimit="10" d="
		M440.6,76.4c-10.3-0.4-44.3,0.9-43.8,26.5c0.4,31.6,7.1,131.5,7.1,164.2c0,14.5,65.2,20.1,96,20.5c28.2,0.2,97.5-8.1,97.9-16.2
		c2.4-45.8,3.4-142.6,4.9-161.4c3-34.6-25.4-33.8-45.5-33.8l-56.9,2.4L440.6,76.4z"/>
</g>
<g id="vs-h-reveal" opacity="0">
	
		<path id="path46" fill="none" stroke="#FF0000" stroke-width="13" stroke-linecap="round" stroke-linejoin="round" stroke-miterlimit="10" d="
		M394,76.1c0,0,17.6,6.4,30.3,9c12.6,2.6,20.4,1.1,41.4,3s45.1,2.8,70.1,1.3c25-1.7,51.1-6,75.9-14.3"/>
	
		<path id="path48" fill="none" stroke="#FF0000" stroke-width="37" stroke-linecap="round" stroke-linejoin="round" stroke-miterlimit="10" d="
		M399.8,164.2c21.7,9.3,56.1,21,99.7,23.6c40.4,2.4,73.6-3.9,95.6-9.9c-12.5,10.8-37.3,29.4-73.6,37.4
		c-59.6,13.1-107.4-11.6-120.3-18.8c0.6,11.8,1.1,23.6,1.7,35.4c19.4,6.7,47.7,14,82.4,14.2c52.3,0.3,92.7-15.7,114.4-26.3"/>
	
		<path id="path50" fill="none" stroke="#FF0000" stroke-width="37" stroke-linecap="round" stroke-linejoin="round" stroke-miterlimit="10" d="
		M664.4,261.2c-6.5,3.2-18,8.6-32.6,14.2c-73.5,28-130,23.8-213.8,17.5c-13.1-1-33.4-2.8-51.5-17.2c-11.9-9.5-18.5-21-22-28.6"/>
	
		<path id="path52" fill="none" stroke="#FF0000" stroke-width="43" stroke-linecap="round" stroke-linejoin="round" stroke-miterlimit="10" d="
		M329.6,348.9c54.8,21.2,160.4,51.9,279.2,19.4c25.2-6.9,47.8-15.8,67.9-25.4c0,14.5,0,29,0,43.6c-38,12.8-97.3,27.7-171,26.7
		S373,395.5,335.4,381.7c0,6.8,0,13.5,0,20.3c32.7,14,82.4,30.8,144.9,34.6c87.1,5.4,155.8-17,193.1-32.3"/>
	
		<path id="path54" fill="none" stroke="#FF0000" stroke-width="43" stroke-linecap="round" stroke-linejoin="round" stroke-miterlimit="10" d="
		M722,407.7c-5.6,11.3-13.7,21.4-23.1,29.7c-16.7,14.8-34.6,22-57.3,28c-19.7,5.2-46,10.4-97,13.4c-40.6,2.3-68.8,0.9-125.2-2
		c-8.5-0.4-31.4-1.8-57.6-10.7c-11-3.8-18.9-7.6-26.1-12.1c-11.8-7.4-20.2-15.5-25.6-21.5"/>
	
		<path id="path56" fill="none" stroke="#FF0000" stroke-width="43" stroke-linecap="round" stroke-linejoin="round" stroke-miterlimit="10" d="
		M702.5,569.2c-50.7,20.6-141.5,49.2-255.1,40.2c-61.7-4.9-113.1-33.1-151.3-47.6c0-14.7,0-16,0-30.7
		c83.7,39.9,154.4,48.2,196.4,49.7c30.2,1.1,45,0,65.2-2.4c59.9-7.1,115.7-33.1,170.4-58.6c16.5-7.7,4.1,25,20.5,17.3
		c-24.7,14.7-30.9,41.6-21.4,55.5c8.9,13.1,29.7,12.2,31.5,12.1c-11.4,4.9-22.8,9.8-34.1,14.7c13.8,2.7,27.7,5.4,41.5,8
		c-53.3,22.9-125.4,46.1-212.4,53.3c-13.2,1.1-76.8,6-159.1-5.8c-60.3-8.6-142.5-27.9-141.3-40.2c0.3-3.4,7.1-7.8,40.2-10.7
		c-12.3-21.2-16.9-24.3-22.9-24.4c-27.7-0.8-69.5,60.9-51.9,97.8c7.7,16.2,24,24.1,46.7,35.1c21.3,10.3,39.3,14.4,57.6,18.1
		c43.7,8.8,65.5,13.2,101.8,16.1c5.7,0.5,120.4,9,231.6-14.7c34.8-7.4,60.8-16.2,66.3-18.1c23.5-8,42.8-16.4,57.1-23.2
		c-0.4,11.6-0.9,23.1-1.3,34.7c-26.1,12.5-62.2,27.5-106.7,39.3c-16.8,4.5-89.9,23.2-189.5,20.1c-111.6-3.5-203.8-32.9-267.8-60.3"
		/>
</g>
</svg>
