<?xml version="1.0" encoding="utf-8"?>
<!-- Generator: Adobe Illustrator 24.3.0, SVG Export Plug-In . SVG Version: 6.00 Build 0)  -->
<svg isCommex="true" version="1.1" id="Layer_2_1_" xmlns="http://www.w3.org/2000/svg" xmlns:xlink="http://www.w3.org/1999/xlink" x="0px" y="0px"
	 width="1507.4px" height="1126px" viewBox="0 0 1507.4 1126" enable-background="new 0 0 1507.4 1126" xml:space="preserve">
<g>
	<path fill="#808080" d="M965.3,568.9L965.3,568.9c-0.7-7-3.7-12.5-8.7-15.9c-3.8-2.6-7.5-3.2-8.6-3.4h-0.1h-0.1
		c-9.6,1-16.3,4.7-21.8,11.9c-6,7.8-10.5,26.1-13.6,54.2c-2.4,22.7-3.3,46.4-3.6,57.7v0.2c-1.1,35.5-8.2,76.9-11.2,93l-0.2,1
		l34.7,6.3l0.2-0.9C939.2,745.4,967.2,587.7,965.3,568.9z"/>
	<path fill="#808080" d="M716.7,627.2l-0.5,0.3v0.6c-0.1,18.4-17,87.9-20.4,101.7l-0.3,1l7.3,1.4l0.1-1.1
		c2.9-29.4,19.9-63.8,29.1-82.4c0.7-1.5,1.4-2.9,2-4.2c0.8-1.7,1.5-3.1,2-4.2c0.5-1.2,1.1-2.2,1.5-3.2c0.3-0.7,0.7-1.3,0.9-1.9
		l0.1-0.3c3.3-7,5.4-11.2,6.8-27.1l0.2-2.7l-1.9,1.9C739.1,611.6,730.6,618.9,716.7,627.2z"/>
</g>
<g>
	<path fill="#8CD96F" d="M1414.3,393l-0.7,0.9c-5.3,6.8-19.9,23.6-40.4,31.5l-6.6,2.5l7.1-0.6c7.1-0.6,13-1.6,18.4-2.9
		c20.7-5.2,29.3-15.9,32.1-20.2l0.4-0.7L1414.3,393z"/>
	<path fill="#8CD96F" d="M1378.3,361.1v0.2c-0.3,1.8-0.6,3.6-0.9,5.4c-2.5,13.5-9.5,27.7-19.8,39.9c-5.7,6.6-11.7,12.1-16.9,15.5
		l-3.6,2.3l4.2-0.5c33.7-3.8,52.5-35.6,55.9-49.6c3.4-14.3-3.7-33.3-18.3-37.3l0,0c-0.6-0.2-1.2-0.2-1.6-0.2h-1.7l0.8,1.5
		C1379,343.2,1379.7,350.9,1378.3,361.1z"/>
	<path fill="#8CD96F" d="M1352.2,369.2v3.2l1.8-2.6c3.1-4.5,8.1-10.1,13.7-11.7c2.6-0.6,5.1-0.5,7.5,0.6l1.2,0.5l0.1-1.3
		c1.2-11.4-0.8-17.1-2.7-19.9c-0.2-0.5-0.6-0.9-1.2-1.1l-0.2-0.1h-0.2c-10.8,1.7-19.7,13.4-20.6,14.6l0,0c-0.1,0.2-0.3,0.4-0.5,0.5
		l-0.6,0.4l0.1,0.7C1351.7,358,1352.2,363.5,1352.2,369.2z"/>
	<path fill="#8CD96F" d="M1359.9,454.9l-0.8,0.1l-0.7,30.4l1.5-0.7c4.3-2.2,7.6-3.7,10.7-4.9c0.9-0.4,1.9-0.7,2.8-0.8l0.8-0.2v-26.2
		l-1.2,0.2C1369,453.4,1364.3,454.2,1359.9,454.9z"/>
	<path fill="#8CD96F" d="M1358.9,452.3l0.3,0.7l0.8-0.1c3.2-0.5,6.9-1.1,11.3-1.8l2.5-0.4l-27.9-19.5l-0.2-0.1h-0.2
		c-3.3-0.5-5.4-1-5.7-1.1c-0.5-0.2-0.9-0.3-1.1-0.6l-0.3-0.3h-0.5c-1,0.1-1.8,0.1-2.8,0.1h-0.2c-0.2,0-0.3,0-0.5,0l-0.3-0.1
		l-0.3,0.1c-0.1,0-0.4,0-0.6,0s-0.5-0.1-0.8-0.1c-0.1-0.1-0.3-0.1-0.6-0.2c-0.3-0.1-0.7-0.3-1.2-0.5l-0.3-0.1l-0.5,0.1
		c-0.3,0.1-0.4,0.1-0.6,0.1h-3.4l32.6,23C1358.5,451.8,1358.8,452,1358.9,452.3z"/>
	<path fill="#8CD96F" d="M1312.6,347.1l0.1,0.2c0,0.1,0.1,0.1,0.1,0.2c2.9,5.3,5.6,12,8.2,20c3.1,9.7,5.5,19.2,7.2,28.4l0.1,0.3
		c0.1,0.2,0.1,0.2,0.1,0.3v0.6v0.2c1.3,7.7,2,15,2,21.7v3l1.8-2.4c10.3-13.8,13.8-29.9,14.8-40.9c0.9-9.7,0.3-19.6-1.6-28
		c-1.4-6.3-3.5-11.6-6.1-15.4c-4.6-6.4-9.6-9.3-15.9-9.3c-4.1,0-8.4,1.2-13.1,2.7l-1.6,0.5c-3.1,0.9-5.4,1.9-7.3,3l-1.6,0.9l1.6,0.9
		C1305.3,336.1,1309,340.5,1312.6,347.1z"/>
	<polygon fill="#8CD96F" points="1283.7,432.2 1295.3,441.5 1331.1,437.3 1319.1,428.8 	"/>
	<path fill="#8CD96F" d="M1303,403.9c4.5,5.7,11.3,11,20.4,15.8l4.8,2.5l-3.5-4c-3.4-3.8-8.1-10.2-11.6-18.3
		c-2.2-5.1-3.6-10.3-4.3-15.7c-3-21.8,1.1-33.6,1.9-35.8l0.2-0.4l-0.2-0.4c-5.4-9.7-10.1-11.9-12.4-12.4l-0.5-0.1l-0.4,0.3
		c-3.8,3.4-6.2,8.1-8,15.1c-1.4,5.5-1.2,13.3,0.4,21.8C1292.1,384.3,1297,396.2,1303,403.9z"/>
	<path fill="#8CD96F" d="M1293.1,410.4c4.3,3.5,9.8,6.6,16.1,8.8l6.4,2.2l-5.5-4c-4.5-3.3-8.2-6.8-11-10.4c-6-7.7-10.9-19-13.5-30.8
		l-0.2-0.9l-0.9,0.1c-5.6,0.8-14,3.4-15.1,5.9v0.1C1268.1,386.4,1282.4,401.6,1293.1,410.4z"/>
	<path fill="#8CD96F" d="M1279.4,467.3l7,5.4l3.6,2.8l1.2-31.7c0.1-0.6,0.2-1,0.5-1.3l0.6-0.8l-11.2-8.8L1279.4,467.3z"/>
</g>
<g>
	<path fill="#71A949" d="M1418.1,447.8l-1,0.1c-12.1,0.8-24.8,2.2-37.9,4.1l-0.9,0.1v26.3h1c6.9,0.3,13.6,3.5,17,8.3l0.4,0.5
		l23.1-3.5L1418.1,447.8z"/>
	<path fill="#71A949" d="M1379.2,449.9c12.2-1.6,22.3-2.7,31.9-3.6l3.1-0.3l-24.6-14.4c-0.4-0.2-0.6-0.5-0.9-0.9l-0.4-0.6l-0.7,0.1
		c-7.5,1.4-15.2,2.2-22.9,2.2c-2.7,0-5.2-0.1-7.3-0.2l-3.5-0.2l23.4,16.2c0.3,0.2,0.5,0.6,0.7,0.9l0.3,0.7L1379.2,449.9z"/>
	<path fill="#71A949" d="M1322.7,462.4l-0.7,0.2v36.3l1.1-0.2c11.6-1.6,21.8-6.6,30.7-11l0.5-0.3l0.6-31.7l-1.2,0.2
		C1339.7,458.5,1328.5,460.9,1322.7,462.4z"/>
	<path fill="#71A949" d="M1352.9,408.7l0.9-0.9l-7.4-4.1l-0.4,1.1c-1.9,5-4.2,9.5-6.9,13.7l-2.8,4.3l4.2-2.9
		C1344.3,417.2,1348.6,413.3,1352.9,408.7z"/>
	<path fill="#71A949" d="M1354.5,453.9l-18.9-13.4l-0.5,0.2c-0.1,0-0.3,0.1-0.5,0.1s-0.3,0.1-0.4,0.1l-34.5,4.2l20.1,15.8h0.3
		c0.2,0,0.4-0.1,0.5-0.1c4.1-1,15.4-3.6,31.4-6.5L1354.5,453.9z"/>
	<path fill="#71A949" d="M1326.6,417.3l1.8,2l-0.1-2.7c-0.1-4.8-0.6-10.2-1.5-16.1l-0.2-1l-10.8,1.8l0.6,1.2
		C1320.1,409.7,1324.3,414.8,1326.6,417.3z"/>
	<path fill="#71A949" d="M1319.2,462.9c-0.1,0-0.1-0.1-0.2-0.1l-22-17.4h-1.7l-1.2,33l25.9,20V463L1319.2,462.9L1319.2,462.9z"/>
	<path fill="#71A949" d="M1307.8,424c-7.4-2.7-13.3-5.9-18-9.8c-2.2-1.8-4.8-4.1-7.9-7l-0.8-0.7l-0.7,0.8c-0.3,0.3-0.8,0.6-1.4,0.6
		l-23.5,2.2l23.6,18.6l32.9-3.3L1307.8,424z"/>
	<polygon fill="#71A949" points="1257.4,450.3 1275.7,464.4 1277.3,430.6 1277.3,429.8 1255.6,412.7 	"/>
</g>
<g>
	<path fill="#FFF59B" d="M569.1,712.3l-0.5,0.3l-0.8,130.1l1.5-0.9c7.9-4.7,15-9,21.7-13.1l0.5-0.3l0.7-129.3l-1.5,1
		C584.3,704.1,573.4,710.1,569.1,712.3z"/>
	<path fill="#FFF59B" d="M593.3,696l-85.9-16.8l-0.4,0.6c-3.8,6.3-9.1,11.9-15.1,15.9l-2.1,1.4l76.7,14.1l0.3,0.1l0.3-0.2
		c8-4.2,19.2-10.5,24-13.8L593.3,696z"/>
	<path fill="#FFF59B" d="M444.7,668.8c0.8,1.2,2.1,2.4,3.4,3.7c3.1,3,6.2,5.1,9.2,6.3l0.6,0.2l0.5-0.5c0.5-0.5,1.3-0.9,1.6-1
		c0.2-0.1,0.5-0.2,0.9-0.4c0.5-0.2,1-0.4,1.6-0.7c1-0.5,2.2-1,3.5-1.5c1.2-0.5,2.5-1.1,3.8-1.7c4.5-2,8.9-4,10.2-4.5l0.6-0.2v-0.6
		c0.2-3.1,0.2-5.2,0.2-5.5c0-1.3,0.9-2.4,2.1-2.6l21.9-3.2l0.2-0.2c0.2-0.2,0.4-0.3,0.7-0.5l15.9-7.5l-2.3-0.8
		c-2.6-0.9-4.9-2-6.7-3.2l-0.4-0.3l-0.5,0.2c-2.5,0.9-5.6,1.3-8.9,1.3c-4.4,0-8.3-0.9-11.8-2.6l-0.5-0.2L444,667.9L444.7,668.8z"/>
	<path fill="#FFF59B" d="M504,675.1c0.9-1.7,1.6-3.4,2.2-5.2c0.6-2,1.1-3.8,1.4-5.2c0.2-0.8,0.4-1.5,0.6-2.1l0.4-1.5l-22.6,3.3
		l-0.1,1.5c-0.1,1.5-0.2,3.3-0.5,5.3c-0.9,6.8-3.1,16.4-8.8,23.7l-1.7,2.2l2.7-0.6c0.8-0.2,1.8-0.4,2.8-0.8c0.1,0,0.2,0,0.3-0.1
		l0.2-0.1C490.5,692.4,499.1,684.7,504,675.1z"/>
	<path fill="#FFF59B" d="M459.2,567.9c0.3,1.3,0.5,2.7,0.7,3.9c2.3,15,0.5,36.6-4.8,56.5c-3.6,13.6-8.3,24.6-13.6,31.8l-2.7,3.7
		l4-2.2c3-1.7,6.1-3.6,9.2-5.8c9-6.3,21.3-17.2,29.1-33.4c3.2-6.8,5.6-14,7-21.2c4.2-22.7-2-42.2-4.6-45.2l-0.1-0.1
		c-2.8-2.5-21.5-7.4-30.2-9.3l-2.5-0.6l1.4,2.1C455.2,552.5,457.6,559.2,459.2,567.9z"/>
	<path fill="#FFF59B" d="M478.2,681l-2.2,1c-3.8,1.8-8,2.7-12.5,2.7c-0.9,0-1.8-0.1-2.8-0.2h-0.2c-9.1-1-16.9-9.1-20.7-13.8
		l-0.5-0.6l-2.1,1c-1.3,0.6-2.7,1.3-4.2,1.9l-1.1,0.5l0.7,1c3.8,5.4,7.9,10,12.3,13.5c6,4.8,12.4,7.8,19,8.9
		c0.7,0.1,1.4,0.2,2.1,0.3h0.3c0.1,0,0.3,0,0.5-0.1l0.3-0.1c4.5-2.8,8-7.4,10.4-13.7L478.2,681z"/>
	<path fill="#FFF59B" d="M442.1,572.9l0.5,1.9l1.3-1.5c2.9-3.4,6.3-5.7,10.1-7h0.2l0.2-0.1c0.1,0,0.1-0.1,0.2-0.1h1.1l-0.3-1.2
		c-2.9-12.6-6.8-17.4-9.6-19.2l-0.5-0.3l-0.5,0.3c-2.5,1.5-7.8,5.8-8.5,8.1c-0.1,0.3-0.2,0.5-0.3,0.7l-0.5,0.5l0.3,0.6
		C438.4,560.9,440.6,566.7,442.1,572.9z"/>
	<path fill="#FFF59B" d="M384.4,578c2.7,1.8,5.4,4,7.9,6.7c8.4,8.7,15.4,21.7,20.8,38.9c2.1,6.6,3.3,11.5,3.9,14.4
		c0.4,1.9,0.7,3.4,0.9,4.5l0.1,0.6c2.1,11.8,2.9,21.3,3.2,25.9l0.1,0.9h0.9c1.2,0,2.3-0.1,3.5-0.3c0.4-0.1,0.9,0,1.3,0.1l1,0.4
		l0.4-1c2.2-6.1,7.7-22.7,10.5-45c1-7.4,1.5-14.7,1.6-21.9c0.2-7.6-0.4-15.1-1.7-22.3c-1.7-9.4-4.6-17.7-8.4-23.9
		c-2.6-4.4-5.2-7.8-7.9-10c-2.2-2-6.7-5.3-11.8-4.8l-0.3,0.1c-10.6,4.7-43.5,24.1-50.8,31.1l-4.2,4l5.3-2.4
		C367.4,571,375.5,572.3,384.4,578z"/>
	<path fill="#FFF59B" d="M428.9,678l-0.4-0.6l-0.7,0.3c-42.2,14.8-88.8,32.6-96.1,37.8l-1.4,1l1.5,0.7c6.7,3.2,17.3,7.6,31.5,9.3
		h0.3l75.2-37l-1-1C434.6,685.4,431.6,681.9,428.9,678z"/>
	<path fill="#FFF59B" d="M364.3,630.4c0.8,1.2,1.8,2.9,3,4.7c3.8,5.8,10.1,14.2,18.7,21.4c9.9,8.3,20.4,12.8,31.1,13.4l1.1,0.1
		l-0.1-1.1c-0.3-4.5-1.1-13.8-3.1-25.3l0,0c0-0.2-0.1-0.4-0.1-0.6c-0.1-0.4-0.2-0.9-0.3-1.5l-0.2-0.8h-0.9
		c-30.3-8-26.7-49.4-26.2-54.1c0.1-0.4,0.3-0.9,0.4-1.1l0.6-0.7l-0.7-0.6c-1.6-1.4-3.2-2.6-4.8-3.6c-14.7-9.4-23.5-3.2-26.5-0.2
		l-0.2,0.2l-0.1,0.3c-1.7,10.2-1.8,32,8.1,49.2L364.3,630.4z"/>
	<path fill="#FFF59B" d="M339.9,668.5c1.3,1,2.9,2.1,4.9,3.1c9.1,4.7,24.2,8.3,40.1,8.3c6.2,0,12.6-0.5,18.8-1.8l6.8-1.4l-6.9-0.6
		c-14.3-1.3-24.9-4.5-31.7-9.6c-8.2-6.3-14.9-15.4-21.1-24.3c-0.3-0.5-0.7-1-1-1.4c-0.5-0.7-0.9-1.3-1.3-1.9
		c-1.6-2.5-3.6-5.5-5.1-7.4l-1-1.3l-0.7,1.4c-3.2,6.3-7.4,24.6-4.9,33C337,665.2,337.5,666.6,339.9,668.5z"/>
	<path fill="#FFF59B" d="M331.7,719.3l-1.3-0.6l-0.1,1.4c-1.6,18.5-1.1,88.2-0.6,122.5v0.7l0.7,0.2c5.6,1.6,11.2,3.2,16.9,4.8
		l10,2.8l-0.1-1.4c-1.4-19.6,1.8-100.9,2.7-120c0-0.3,0-0.3,0-0.5l0.4-1.1l-1.2-0.2C349.8,726.4,340.8,723.6,331.7,719.3z"/>
	<path fill="#FFF59B" d="M332.1,665.7c-1-3.6-1.1-8.6-0.5-14.4l0.2-1.6l-1.5,0.5c-4.6,1.6-9.6,3.5-15,5.4c-4.6,1.6-9.3,3.4-14.2,5.1
		l-3.8,1.4l35.2,5.1L332.1,665.7z"/>
</g>
<g>
	<path fill="#E20142" d="M286.1,671.7c5.1,0,10.1-0.7,15-2.2l4.4-1.3l-17.1-2.4h-0.1l-0.4-0.4l-0.6,0.2c-1.3,0.5-2.6,0.9-3.8,1.4
		c-2,0.7-3.9,1.4-5.9,2.1l-3.6,1.3l3.8,0.6C280.5,671.5,283.3,671.7,286.1,671.7z"/>
	<path fill="#E20142" d="M665.5,662.7L665.5,662.7c-9.8,1.3-32.6,11.2-67.8,29.2l-0.8,0.4l0.3,0.8c0,0.1,0,0.3,0,0.6l-0.7,131.6
		l1.5-0.9c19.7-12,40.9-25,61.6-37.8c0.6-0.4,1.2-0.8,1.8-1.1c0.6-0.4,1.3-0.8,1.9-1.2l0.4-0.3v-0.5c0.7-21.3,1.2-38.8,1.8-54.9
		c0.7-20.5,1.3-38.2,1.7-50.4c0.2-6.4,0.4-11.2,0.5-14.2v-0.9L665.5,662.7z"/>
	<path fill="#E20142" d="M660.1,661.7l-6.4-0.9l-73.6-11.4H580c0,0-0.2,0-0.3-0.1l-0.4-0.2l-0.4,0.2c-6.2,2.8-17.8,5.7-28.4,5.7
		c-6.6,0-11.7-1.2-14.9-3.3c-0.8-0.5-1.6-1.2-2.2-1.9l-0.3-0.3h-3.2l-0.3,0.4c-0.3,0.4-0.6,0.6-0.9,0.8l-14.5,6.9v1.1
		c0,0.5-0.6,4.2-3.2,12.8c-0.1,0.4-0.3,0.7-0.4,1.1c-0.1,0.3-0.2,0.7-0.4,1l-0.5,1.1l85,16.5l0.3,0.1l0.3-0.2
		c12.1-6.3,42.2-21.8,60.8-27.9L660.1,661.7z"/>
	<path fill="#E20142" d="M485.9,751.4v1.1c1.3,41.9,3.2,114.9,1.1,134.2l-0.2,1.6l1.5-0.5c6.6-2.4,31.5-16.4,74-41.8l0.5-0.3
		l0.8-129.9l-4.4-0.8L485.9,751.4z"/>
	<path fill="#E20142" d="M443.1,693l-69,33.9l111.1,22.4h0.5l70.3-34.9l-74-13.7h-0.2l-0.2,0.1c-4,1.2-7.8,1.8-11.7,1.8
		c-2.6,0-4.6-0.1-6.5-0.5c-6.9-1.1-13.5-4-19.7-8.6L443.1,693z"/>
	<path fill="#E20142" d="M485.5,638.5c-1.3-1.7-2.1-3.5-2.5-5.7l-0.5-2.6l-1.4,2.2c-2.7,4.4-5.8,8.6-9.3,12.5l-3.8,4.2l18.1-9.7
		L485.5,638.5z"/>
	<path fill="#E20142" d="M484,751.1l-112.6-22.7l-0.3-0.1l-6.3,3.1v0.6c-0.5,11.5-4.5,112.3-2.4,119.8l0.1,0.2v0.5l0.7,0.2
		c40.5,11.4,80.1,22.7,103.7,29.4c7.6,2.2,13.5,3.8,17.1,4.9l1.1,0.3l0.1-1.2c1.8-17,0.2-91.4-1.2-134.3L484,751.1z"/>
	<path fill="#E20142" d="M451.1,631l0.3-1l-8.1-2.4l-0.2,1.2c-1.3,9.5-3.2,18.9-5.9,28.7l-1.4,5.4l3.2-4.5
		C443.5,652,447.8,642.3,451.1,631z"/>
	<path fill="#E20142" d="M411.5,634.7l1.9,0.8l-0.6-2c-0.2-0.6-0.3-1.3-0.5-1.9c-0.3-1.3-0.7-2.6-1.1-3.9l-0.3-1l-7.9,2.4l1.4,1.2
		C406.6,632.2,408.9,633.6,411.5,634.7z"/>
	<path fill="#E20142" d="M374.8,662.6c4.2,3.1,10.1,5.5,17.7,7l6.1,1.2l-5.5-3.1c-10.6-5.9-20.6-15.6-28.9-27.9l-0.4-0.6l-7.4,2.6
		l0.8,1.1C363.5,651.9,369.3,658.3,374.8,662.6z"/>
	<path fill="#E20142" d="M383,688.6c1.6-0.6,3.2-1.2,4.7-1.8l5-1.9h-8.1c-15.5,0-31.7-3.4-42.2-8.9c-1.8-0.9-3.3-1.9-4.6-2.8
		l-0.2-0.1l-28.7-4.2l-0.3,0.1c-7.4,3.2-15.1,4.8-23,4.8c-4.8,0-9.8-0.7-15-2l-0.3-0.1l-0.3,0.1c-21.4,7.9-34.3,12.8-40.5,15.4
		l-2.7,1.2l99.1,24.7l0.6,0.1l0.4-0.5c1.8-2,9-6.6,51.3-22.5C379.9,689.7,381.5,689.2,383,688.6z"/>
	<path fill="#E20142" d="M227.1,691.8c-0.1,9.4,0.6,31.5,1.3,48.3c0.4,12.1,1,24.7,1.4,35.8l0.2,4.5c0.6,13.2,1.1,25.7,1.4,35.2v0.8
		l0.7,0.2c11.7,2.9,43.3,11.5,91.4,25l1.3,0.4v-1.4c-0.2-8.9-0.5-34.4-0.5-59.1c-0.1-37.5,0.4-59,1.5-65.4l0.2-0.9l-98.8-24.6
		L227.1,691.8z"/>
</g>
<g id="vs-primary">
	<path fill="#6495FB" d="M1205.5,500.9L1205.5,500.9c-1.9-5-3.9-8.2-6.4-10.7c-5.1-4.7-12.5-4.5-23.6-2.6
		c-8.5,1.5-20.6,2.9-32.3,4.1c-15.8,1.7-33.7,3.7-42,6.1c-10.6,3.2-25.4,2.6-42.6,1.9l-1.3-0.1c-2-0.1-4.1-0.1-6.2-0.2
		c-4.6-0.2-9.4-0.3-14.2-0.4c-24.2-0.3-58.1,5.5-67.7,7.6c-6,1.4-10.1,1-16.9,0.3c-4.3-0.4-9.7-0.9-17.5-1.3
		c-11.1-0.5-23.3,0.9-34.2,4l-0.7,0.2v0.7c-0.1,14.4-3.1,63-37.8,82.8l-0.5,0.3v0.3v0.1l0,0c-2.7,5.5-12.7,24.5-25.9,38.5
		c-7.5,8-14.7,13-21.5,14.6c-1.6,0.4-3.3,0.7-5.2,0.7c-0.7,0-1.3,0-2-0.1c-4-0.5-7.5-2.1-10.5-4.9l-0.1-0.1
		c-0.2-0.1-0.4-0.3-0.5-0.5c-3.6-3.6-6.8-9-9.4-15.8l-0.1-0.2c-0.1-0.2-0.1-0.2-0.1-0.2v0l-0.1-0.2c-2.2-6.2-3.9-13.6-5.2-21.3
		c-2.1-13.4-2.2-24.4-2.2-24.5s0-0.4,0.1-0.7l0.1-0.2v-0.2c-1.6-11.6-3.9-43.7-0.2-63.8l0.2-1l-1-0.2c-2.9-0.5-11.2,0.3-26.4,17.4
		c-3.2,3.7-7.3,8.4-12.3,14.3l-0.8,1c-22.2,25.9-52.6,61.5-79.4,75.7c-27.4,14.6-47.6,18.8-53.2,19.7l-1.1,0.2l0.3,1.1
		c0.4,1.3,0.5,2.5,0.7,3.6v1.3l46.3,7.2l0.3-0.6c0.3-0.5,0.8-0.9,1.3-1.1c0,0,4.4-1.6,42.4-20.8c6.8-3.5,11.6-6.2,15.7-8.6
		c22.5-13.4,31.4-24,33-25.9l0.1-0.1c0.3-0.3,0.5-0.6,0.8-0.7l0.6-0.2v-0.6c2.2-28,11.4-40.2,11.5-40.4c0.4-0.6,1-0.9,1.7-1
		c0.6-0.1,1.3,0.1,1.8,0.5c1.1,0.9,1.4,2.5,0.5,3.5l-0.1,0.2c-1.5,2.2-8.9,14.6-10.5,39.3c-0.1,0.5-0.1,0.9-0.1,1.3
		c-1.5,23.5-3.8,28.5-7.8,36.7l-0.1,0.3c-0.5,1-1,2-1.5,3.1c-0.3,0.6-0.6,1.3-0.9,2c-1.4,2.8-2.7,5.6-4.2,8.6l-0.5,0.9
		c-8.3,17-25.6,52.3-28.1,80.3l-0.1,0.9l183.6,33.6l1,0.2l0.2-1c1.6-8.6,9.8-53.6,11.1-92.3c2.3-66.1,7.9-101.6,18.2-115
		c6.5-8.5,14.5-12.8,25.7-13.8c6-0.6,12.4-0.2,19.2,0.2h0.5c2.2,0.2,4.5,0.3,7.2,0.4c16.8,0.7,47.4-1.3,67.6-2.6
		c3.5-0.2,6.8-0.4,10-0.6c3.4-0.2,6.7-0.4,9.7-0.6c12.5-0.7,24.4-2,35.9-3.2l2.9-0.3c11.8-1.2,23.9-2.5,37-3.2
		c15.5-0.9,24.9,0.2,33.1,1.2c6.8,0.8,12.5,1.4,19.9,0.9c6.5-0.4,10.4-4.5,12.5-7.9c0.2-0.2,0.3-0.4,0.4-0.6c0-0.1,0.1-0.2,0.2-0.3
		C1208.1,520.3,1208.9,509.5,1205.5,500.9z"/>
	<path fill="#6495FB" d="M847.9,594.2L847.9,594.2l1.5,1.8c1.3,1.7,2.6,3.5,3.7,5l0.9,1.3l1.1-1.9c0.6-1,1.1-1.9,1.5-2.8l0.7-1.4
		h-2.1c-1.2,0-2.1-0.2-3-0.7c-0.5-0.3-1-0.6-1.4-1l-1.6-1.3l0.3-0.3c-1.1-1.8-1.8-4-2.4-6.2l-0.1-0.3v-3.9l-1.9,3.8
		c-0.4,0.8-0.9,1.8-1.5,2.7l-0.5,0.8l0.8,0.5C845.1,591.2,846.4,592.4,847.9,594.2z"/>
	<path fill="#6495FB" d="M845.5,613.6l0.9,1l0.7-1.1c1.7-2.5,3.3-5.1,4.8-7.8l0.3-0.5l-0.3-0.5c-1.4-2.1-6.1-9.1-9.3-11.6l-0.9-0.7
		l-0.6,0.9c-1.8,2.9-3.9,6-5.5,8.5l-0.5,0.7l0.6,0.6C838,605.1,841.3,608.6,845.5,613.6z"/>
	<path fill="#6495FB" d="M834.3,628l0.6,1.7l1.1-1.3c2.5-3,5.1-6.3,8.2-10.6l0.4-0.6l-0.5-0.6c-3.4-4.1-7.7-8.8-10-11l-0.8-0.8
		l-0.7,0.9c-1.8,2.2-3.4,4.1-5,5.8l-0.6,0.6l0.5,0.7C829.8,616,832.5,622.7,834.3,628z"/>
	<path fill="#6495FB" d="M832,632.6l0.4-0.4l-0.2-0.6c-1.9-6-4.8-13.5-6.8-16.5l-0.6-0.9l-0.9,0.7c-2.8,2.4-5.5,4.2-8.2,5.3
		l-0.6,0.3v23.8l1.4-0.5C821.5,641.8,826.5,638.2,832,632.6z"/>
	<path fill="#6495FB" d="M798.7,641.4l0.5,0.4c2.6,2.1,5.3,3.2,8.1,3.5c0.6,0,1.1,0.1,1.7,0.1c0.9,0,1.7-0.1,2.4-0.2l0.8-0.1v-23.7
		l-0.9-0.1c-1.5-0.2-2.8-0.8-4-1.8l-0.2-0.1c-0.1-0.1-0.3-0.3-0.5-0.4l-0.7-0.4l-0.5,0.6c-3.1,3.8-5.7,13.9-6.7,21.7L798.7,641.4z"
		/>
	<path fill="#6495FB" d="M789.3,625.8l0.1,0.3c1.5,4.1,3.3,7.6,5.2,10.4l1.4,2l0.4-2.4c1-5.5,3.2-15.4,7.2-19.7l0.5-0.6l-0.4-0.7
		c-1.2-1.9-2.5-4.3-3.7-7.1l-0.6-1.3l-1,1c-3.5,3.4-7,11.3-9.1,17.6L789.3,625.8z"/>
	<path fill="#6495FB" d="M785,604.7L785,604.7c-0.1,0.4-0.2,0.6-0.3,0.8l-0.4,0.4l0.1,0.5c0.6,3.3,1.4,7.7,2.6,12l0.8,2.8l1.1-2.7
		c1.6-3.9,4.9-10.9,9.1-13.9l0.6-0.4l-0.3-0.7c-1.2-3.2-2.2-6.5-3.1-9.5l-0.4-1.4l-1.2,0.8C789.9,596.1,785.6,602.8,785,604.7z"/>
	<path fill="#6495FB" d="M783.1,598.3l0.3,2.6l1.5-2.2c2.7-4,5.9-7.2,8.4-8.6l0.7-0.4l-0.2-0.8c-0.8-3-1.3-5.5-1.7-7.4l-0.3-1.7
		l-1.3,1.1c-5,4.2-6.7,4.8-7.6,5L782,586l0.1,0.9C782.3,591.1,782.7,594.8,783.1,598.3z"/>
</g>
<path fill="#BDBCBC" d="M849.3,209.1c-15.4-7.9-31.5,2.4-34.8,5.4c-4.2,3.1-7.6,2.4-11.7,1.5h-0.1c-2-0.5-3.8-0.9-5.5-1
	c-5.1-0.6-13.1,5.1-23.8,16.9c-5.1,5.7-8.6,6-13.3,5.7c-2.4-0.2-5.2-0.4-9.3,1.2c-7.2,2.7-10.1,14-11.8,20.8l-0.1,0.4
	c-0.7,2.8-1.1,4.4-1.8,5.4c-1.2,2-2.1,2.5-3.9,2.8h-0.1c-0.9,0.2-2.4,0.6-5.8,2.8c-4.3,2.9-5.7,19.7-5.2,30.1c0,0.8-0.3,1.5-1,2
	c-0.5,0.4-1.4,0.6-2.1,0.5c-0.3-0.1-6.6-1.4-8.9,8.4c-2.4,10.2,13,18.8,13,18.9c0.6,0.4,1.1,1,1.3,1.6c0.2,0.7,0.1,1.4-0.3,2h0.1
	c-0.7,0.8-1.8,2.6-4.1,7.4l-0.2,0.4l0.1,0.4c0.9,2.6,5.4,9,10.1,15.5c4.9,6.6,6.1,8.5,6.3,10c0.3,2.1-0.4,3.4-1.1,4.5l-0.2,0.3
	c-0.5,0.8-1.1,1.9-1.4,3.8v0.1v0.1c0.2,2.1,3.6,6.2,9.5,12.7l1.3,1.5c2.1,2.3,3.9,4.2,4.8,5.7c2.3,3.5,0.7,6.5-0.3,8.6
	c-1.3,2.3-1.9,3.7-1,6.1c1.7,4.4,6.2,5.6,11.9,6.7c0.8,0.1,1.6,0.3,2.4,0.5c4,0.9,4.9,4.7,5.5,7.8v0.1c0.6,2.9,1.1,5,3,6.1
	c1.5,0.9,2.7,1.1,3.8,1.1s1.9-0.3,2.3-0.5l0.9-0.5l-0.5-0.9c-2.2-4-3.9-8.5-5.2-13.5c-5.3-21.1-0.7-45.4,10.8-56.5l0.4-0.4l-0.1-0.6
	c-2-8.7-3.8-25.4,7.6-39.5c5.1-6.4,10.2-11.5,15.3-15.1l0.5-0.4l-0.2-0.7c-3.5-14-4.7-25-3.8-34.6c1.4-13.4,7.1-27.3,15.7-38.1
	c8.2-10.4,18.5-17.7,30.5-21.8l2.2-0.8L849.3,209.1z"/>
<path fill="none" stroke="#000000" stroke-width="6" stroke-linecap="round" stroke-linejoin="round" stroke-miterlimit="10" d="
	M890,268c0,0-12.2-3.1-14.1,11.8"/>
<path fill="none" stroke="#000000" stroke-width="6" stroke-linecap="round" stroke-linejoin="round" stroke-miterlimit="10" d="
	M893.6,331.3c0.8,0,1.8,16.4,0,16.1c-1.8-0.4-1.3-14.5-0.9-15.1s0.8,11.8,0.8,11.8"/>
<path fill="none" stroke="#000000" stroke-width="6" stroke-linecap="round" stroke-linejoin="round" stroke-miterlimit="10" d="
	M800.5,387.2c0,0,23,9.4,15.7,30.8"/>
<path fill="none" stroke="#000000" stroke-width="7" stroke-linecap="round" stroke-linejoin="round" stroke-miterlimit="10" d="
	M837.8,427.4c0.2,6.6-14.1,27.2-37,20.8c-33.8-8.9-35-66.6-15.7-84.7c19.3-18,35.6,5,35.6,5s2.1-10.3-1.9-28.8s-15.6-45.9-13.3-68.8
	s19.6-54.9,55.6-60.4s51.4,16.1,48.8,57.3c-2.5,41.3-7.8,67,2.5,83.2"/>
<path fill="none" stroke="#000000" stroke-width="7" stroke-linecap="round" stroke-linejoin="round" stroke-miterlimit="10" d="
	M907.9,337.2c0,0,31.1-25.2,51.5-14.4c20.4,10.8,20.2,48.4,8.5,62.4s-25.5,15.2-37.3,15s-15.4,3-20.2,15.7s-2.9,19.1-3.4,23.3"/>
<path fill="none" stroke="#000000" stroke-width="7" stroke-linecap="round" stroke-linejoin="round" stroke-miterlimit="10" d="
	M859.6,413.1c7.5,29.9,40,28.8,50.5,27.5c9.5,1.7,3.2,38.8-16.7,69.2c-19.9,30.5-54.6,40.4-62.6,44.7c-6,6.4-16.8,48.5-17.9,62.9"/>
<path fill="none" stroke="#000000" stroke-width="7" stroke-linecap="round" stroke-linejoin="round" stroke-miterlimit="10" d="
	M819.3,578.3c0,0-6.7-10.7-8.1-19.1s-1.5-11.2-4.1-15.6c-2.6-4.4-20.8-29.8-24.9-61.8c-4.1-31.9,0-45.7,0-45.7"/>
<path fill="none" stroke="#000000" stroke-width="7" stroke-linecap="round" stroke-linejoin="round" stroke-miterlimit="10" d="
	M779.2,434.9c0,0-4,3.5-9.7,0s-2.7-12.6-7.9-13.8s-13.4-1.8-16.1-8.8c-2.7-7,4.7-9.5,1.5-14.2s-17-16.9-16.1-21.8s3-5.4,2.6-7.9
	c-0.3-2.5-18-23.4-16.5-26.8s4.5-8.4,4.5-8.4s-17.2-9.4-14.3-21.7c2.9-12.3,11.8-10.3,11.8-10.3s-1-27.5,6.4-32.3s7.1-1.8,9.1-4.9
	c1.9-3.1,3.9-23.4,15-27.6c11.1-4.2,13.5,2.9,21.7-6.2s18.3-18.6,25.9-17.7s10.9,3.6,15.6-0.1c4.7-3.6,25-16.4,43.1-1.9"/>
<path fill="none" stroke="#000000" stroke-width="7" stroke-linecap="round" stroke-linejoin="round" stroke-miterlimit="10" d="
	M897.3,505.6c0,0,3.7,66.2-39.4,87.6c-8.3,3.1-7.1-6.7-10.8-13.7s-7.9-10.5-7.9-10.5"/>
<path fill="none" stroke="#000000" stroke-width="7" stroke-linecap="round" stroke-linejoin="round" stroke-miterlimit="10" d="
	M845.6,579.8c0,0-15.1,33-32.8,39c-10.1,1.4-18.6-36.5-19-42.4"/>
<path fill="none" stroke="#000000" stroke-width="7" stroke-linecap="round" stroke-linejoin="round" stroke-miterlimit="10" d="
	M799.8,568.9c0,0-15,14.9-17.2,14.6c-2.2-0.3-7.8-70.2,3.9-81.2"/>
<path fill="none" stroke="#000000" stroke-width="7" stroke-linecap="round" stroke-linejoin="round" stroke-miterlimit="10" d="
	M898.1,508.2c0,0,16.1-5.7,36.8-4.7c20.8,0.9,24.7,3.1,33.8,1.1c9.1-2.1,43.4-7.9,68.3-7.6s49.1,3.2,63.6-1.1
	c14.5-4.3,55.2-6.7,74.6-10.2s26.6-0.6,32.6,14.5c6,15.1,0,38.1-17,39.3s-25.5-3.7-53-2.1c-27.5,1.5-51,5.3-75.9,6.7
	s-66.2,4.7-87.5,3.8s-38.1-4.1-50.6,12.3c-12.5,16.4-16.2,69-17.7,113.6s-11.9,96.6-11.9,96.6"/>
<path fill="none" stroke="#000000" stroke-width="7" stroke-linecap="round" stroke-linejoin="round" stroke-miterlimit="10" d="
	M1201.8,487.9c0.1-0.1,12.3-6.7,17-5.5s13.3,13.8,13.8,24.3c0.5,10.5-3.9,23.1-8.5,24.5c-4.6,1.4-16.9-1.4-16.9-1.4"/>
<path fill="none" stroke="#000000" stroke-width="7" stroke-linecap="round" stroke-linejoin="round" stroke-miterlimit="10" d="
	M1217.9,480.8c-0.3,0-2.9-5.3-2.4-12.5s-2.4-17.5-10.6-22.2s-16.6-2.5-23.9-5.6c-7.3-3.2-3.9-18.7,16.9-26.1s32.8,14.3,34.1,23.4
	c1.3,9.1,10.2,13.4,20.9,12.5"/>
<path fill="none" stroke="#000000" stroke-width="7" stroke-linecap="round" stroke-linejoin="round" stroke-miterlimit="10" d="
	M1247.4,490.9c0,0,10.1-16.3,37.5-15.7"/>
<path fill="none" stroke="#000000" stroke-width="7" stroke-linecap="round" stroke-linejoin="round" stroke-miterlimit="10" d="
	M1232,521.2c0.3-0.3,13.2-1.9,29.9,4.1c16.7,6.1,70.2,5.8,112.4-8.9c41.8-20,14.3-40.7-2.8-34.2s-34.5,20.3-58.3,19.5"/>
<polyline fill="none" stroke="#000000" stroke-width="7" stroke-linecap="round" stroke-linejoin="round" stroke-miterlimit="10" points="
	1317.9,499.9 1254.9,451.6 1252.8,407.9 1278.8,405.4 "/>
<polyline fill="none" stroke="#000000" stroke-width="7" stroke-linecap="round" stroke-linejoin="round" stroke-miterlimit="10" points="
	1396.3,489.8 1422.3,485.8 1420.5,446.8 1390.8,429.4 "/>
<path fill="none" stroke="#000000" stroke-width="7" stroke-linecap="round" stroke-linejoin="round" stroke-miterlimit="10" d="
	M1329,426c0,0-22.6-1.5-37.6-13.8s-26.6-26.7-24.4-32s17.3-7.5,17.3-7.5"/>
<path fill="none" stroke="#000000" stroke-width="7" stroke-linecap="round" stroke-linejoin="round" stroke-miterlimit="10" d="
	M1333,426.7c0,0-21.1-7.3-32-21.3s-17.9-40.9-14.1-55.6c3.8-14.8,10.7-19.6,21.1-22.8c10.4-3.2,22.7-8,33.4,7
	c10.7,15,14.6,61.1-9.2,89.7"/>
<path fill="none" stroke="#000000" stroke-width="7" stroke-linecap="round" stroke-linejoin="round" stroke-miterlimit="10" d="
	M1349.8,349.9c0,0,14.2-19.6,29.9-15.2s23.8,24.4,20.1,40.2c-3.8,15.8-26,51.9-65,51.8"/>
<path fill="none" stroke="#000000" stroke-width="7" stroke-linecap="round" stroke-linejoin="round" stroke-miterlimit="10" d="
	M1340.1,427.5c0,0,25,6.1,52.6-0.8s35-23.7,35-23.7l-13.6-13.9c0,0-24.4,35.7-59,37.6"/>
<path fill="none" stroke="#000000" stroke-width="4" stroke-linecap="round" stroke-linejoin="round" stroke-miterlimit="10" d="
	M1296.5,334c0,0,11.6-3.3,23.5,34s8.9,57.2,8.9,57.2"/>
<path fill="none" stroke="#000000" stroke-width="4" stroke-linecap="round" stroke-linejoin="round" stroke-miterlimit="10" d="
	M1311.8,347.9c0,0-5.6,11.7-2.2,36.2s21.1,38.8,21.1,38.8"/>
<path fill="none" stroke="#000000" stroke-width="4" stroke-linecap="round" stroke-linejoin="round" stroke-miterlimit="10" d="
	M1370.5,334c0,0,11.6,1.9,6,32.3c-5.7,30.4-31.3,54.1-41.7,57.8"/>
<path fill="none" stroke="#000000" stroke-width="4" stroke-linecap="round" stroke-linejoin="round" stroke-miterlimit="10" d="
	M1349.8,379c0,0,13.2-28.4,27.6-18.2"/>
<line fill="none" stroke="#000000" stroke-width="7" stroke-linecap="round" stroke-linejoin="round" stroke-miterlimit="10" x1="1315.4" y1="398.7" x2="1325.9" y2="397.1"/>
<line fill="none" stroke="#000000" stroke-width="7" stroke-linecap="round" stroke-linejoin="round" stroke-miterlimit="10" x1="1348.2" y1="401.8" x2="1354.2" y2="405"/>
<polyline fill="none" stroke="#000000" stroke-width="6" stroke-linecap="round" stroke-linejoin="round" stroke-miterlimit="10" points="
	1277.5,467.3 1279.2,430.7 1319.7,426.7 1357.1,453.2 1356.4,487.5 "/>
<polyline fill="none" stroke="#000000" stroke-width="6" stroke-linecap="round" stroke-linejoin="round" stroke-miterlimit="10" points="
	1376.3,479.1 1376.3,450.1 1345.4,428.5 "/>
<polyline fill="none" stroke="#000000" stroke-width="6" stroke-linecap="round" stroke-linejoin="round" stroke-miterlimit="10" points="
	1292.1,478.5 1293.3,443.8 1334.1,438.9 "/>
<path fill="none" stroke="#000000" stroke-width="4" stroke-linecap="round" stroke-linejoin="round" stroke-miterlimit="10" d="
	M1251.8,408.5l67.8,53.5c0,0,43.5-11,97.3-15.2"/>
<line fill="none" stroke="#000000" stroke-width="4" stroke-linecap="round" stroke-linejoin="round" stroke-miterlimit="10" x1="1321" y1="462.3" x2="1321" y2="499.1"/>
<path fill="none" stroke="#000000" stroke-width="5" stroke-linecap="round" stroke-linejoin="round" stroke-miterlimit="10" d="
	M780.3,580.2c0,0,0.7,63.7,26.8,66.5s53.2-53,53.2-53"/>
<path fill="none" stroke="#000000" stroke-width="5" stroke-linecap="round" stroke-linejoin="round" stroke-miterlimit="10" d="
	M783.4,604.5c0-1,7-12.7,12.2-13.6"/>
<path fill="none" stroke="#000000" stroke-width="5" stroke-linecap="round" stroke-linejoin="round" stroke-miterlimit="10" d="
	M787.7,626c0,0,5.8-19.1,13-21.2"/>
<path fill="none" stroke="#000000" stroke-width="5" stroke-linecap="round" stroke-linejoin="round" stroke-miterlimit="10" d="
	M797.1,641.9c0,0,2.5-21,8.7-25.2"/>
<path fill="none" stroke="#000000" stroke-width="5" stroke-linecap="round" stroke-linejoin="round" stroke-miterlimit="10" d="
	M813.8,645.5c0,0,0-26.2,0-27"/>
<path fill="none" stroke="#000000" stroke-width="5" stroke-linecap="round" stroke-linejoin="round" stroke-miterlimit="10" d="
	M833.7,631.1c0,0-5.2-15.9-8.4-18.6"/>
<path fill="none" stroke="#000000" stroke-width="5" stroke-linecap="round" stroke-linejoin="round" stroke-miterlimit="10" d="
	M845.6,616.1c0,0-10.5-12.7-12.6-13.2"/>
<path fill="none" stroke="#000000" stroke-width="5" stroke-linecap="round" stroke-linejoin="round" stroke-miterlimit="10" d="
	M853.5,604.5c0,0-7.3-11.9-11.7-13.6"/>
<path fill="none" stroke="#000000" stroke-width="7" stroke-linecap="round" stroke-linejoin="round" stroke-miterlimit="10" d="
	M780.3,512.2c0,0-9.6-6-30.6,17.7c-21,23.7-59.5,73.2-91.8,90.4S603.3,640,603.3,640"/>
<path fill="none" stroke="#000000" stroke-width="7" stroke-linecap="round" stroke-linejoin="round" stroke-miterlimit="10" d="
	M654.6,656.1c0,0,4.6-1.6,42.6-20.9c38.1-19.3,49.6-35.4,49.6-35.4"/>
<path fill="none" stroke="#000000" stroke-width="7" stroke-linecap="round" stroke-linejoin="round" stroke-miterlimit="10" d="
	M759.8,558c0,0-9.3,12.3-11.1,40.9c-1.8,28.7-4.5,29.7-10.2,42.4s-30.6,57.4-33.1,92.3"/>
<path fill="none" stroke="#000000" stroke-width="7" stroke-linecap="round" stroke-linejoin="round" stroke-miterlimit="10" d="
	M692.9,731.3c0,0,20.9-83.7,20.9-103.4"/>
<path fill="none" stroke="#000000" stroke-width="7" stroke-linecap="round" stroke-linejoin="round" stroke-miterlimit="10" d="
	M947.9,547.1c0,0,17.8,1.3,19.8,21.6c2.1,20.3-29.2,194.6-34.1,208.8"/>
<path fill="none" stroke="#000000" stroke-width="7" stroke-linecap="round" stroke-linejoin="round" stroke-miterlimit="10" d="
	M669.3,728.6l591,107.9c0,0-3.4,33-6.4,39.7c-3.1,6.7-114,228.7-114,228.7"/>
<line fill="none" stroke="#000000" stroke-width="5" stroke-linecap="round" stroke-linejoin="round" stroke-miterlimit="10" x1="1142.8" y1="1060.2" x2="1259.9" y2="837.7"/>
<line fill="none" stroke="#000000" stroke-width="7" stroke-linecap="round" stroke-linejoin="round" stroke-miterlimit="10" x1="1238.3" y1="910.6" x2="1224" y2="1067.3"/>
<path fill="none" stroke="#000000" stroke-width="7" stroke-linecap="round" stroke-linejoin="round" stroke-miterlimit="10" d="
	M603.3,647.6c0,0-3.7-26.9-26-28.4c-22.4-1.5-38.9,3.3-43.2,21.7s37.5,11,47,4.4"/>
<path fill="none" stroke="#000000" stroke-width="7" stroke-linecap="round" stroke-linejoin="round" stroke-miterlimit="10" d="
	M576.7,618.2c0,0-18.4-8.9-43-4.5c-24.6,4.5-29,18.8-21.9,26.4c7.1,7.6,21,6.8,21,6.8"/>
<path fill="none" stroke="#000000" stroke-width="7" stroke-linecap="round" stroke-linejoin="round" stroke-miterlimit="10" d="
	M531.6,612.5c0,0-14.7-7-30.6,0s-19.9,20.9-11,26.8c8.9,6,20.4,3.3,22.7,1.7"/>
<path fill="none" stroke="#000000" stroke-width="7" stroke-linecap="round" stroke-linejoin="round" stroke-miterlimit="10" d="
	M580.6,646.9l89.9,14.1c0,0-2.1,61.2-4.2,124.5C614.6,817.6,494.8,891,487.1,890.7c0,0-230.2-65.9-258.2-72.2
	c-1.2-36.1-5.5-127.3-4-131.8c10.5-5.5,107.3-39.8,107.3-39.8"/>
<path fill="none" stroke="#000000" stroke-width="7" stroke-linecap="round" stroke-linejoin="round" stroke-miterlimit="10" d="
	M434.6,668.3c0,0,32.8-12,48.6-44.7c15.9-32.7,5.8-65,2.1-69.2s-38-11.8-40-11.5s-10.7,6.6-11.6,10.4"/>
<path fill="none" stroke="#000000" stroke-width="7" stroke-linecap="round" stroke-linejoin="round" stroke-miterlimit="10" d="
	M429.8,672c0,0,12.2-29.7,13-69.7c0.8-40.1-17.6-65.9-33.2-63.6c-9.9,4.3-49.8,27.5-53.7,33.8s-7,36.2,6,58.7S397.7,676,426,672"/>
<path fill="none" stroke="#000000" stroke-width="7" stroke-linecap="round" stroke-linejoin="round" stroke-miterlimit="10" d="
	M426.9,673.7c0,0-37.3,3.2-53.5-9.2s-27.5-38.1-31.2-37.3s-11,26.6-7.6,38.1s45.4,23.8,78.6,12.8s40.1-20.1,40.1-20.1"/>
<path fill="none" stroke="#000000" stroke-width="7" stroke-linecap="round" stroke-linejoin="round" stroke-miterlimit="10" d="
	M440.5,667.4c0,0,9.4,13.6,20.5,14.8s19-5.3,19-5.3"/>
<path fill="none" stroke="#000000" stroke-width="7" stroke-linecap="round" stroke-linejoin="round" stroke-miterlimit="10" d="
	M428.4,672.5c0,0,12.5,23.4,35.1,27.1c22.6,3.7,40-13.6,44.9-28.9c2.8-9.2,3.2-12.5,3.2-12.5l-28.3,4.1c0,0,0.8,27.2-15.1,37"/>
<line fill="none" stroke="#000000" stroke-width="7" stroke-linecap="round" stroke-linejoin="round" stroke-miterlimit="10" x1="353.9" y1="640" x2="363.8" y2="636.6"/>
<path fill="none" stroke="#000000" stroke-width="7" stroke-linecap="round" stroke-linejoin="round" stroke-miterlimit="10" d="
	M389.8,586.8c0,0-5.3,43.7,24.5,51.5"/>
<path fill="none" stroke="#000000" stroke-width="7" stroke-linecap="round" stroke-linejoin="round" stroke-miterlimit="10" d="
	M455.3,568.5c-0.5,0.3-7.3,1.4-12.5,10.9"/>
<path fill="none" stroke="#000000" stroke-width="5" stroke-linecap="round" stroke-linejoin="round" stroke-miterlimit="10" d="
	M353.4,581.4c0,0,9.9-15.2,30.2-2.2c20.3,13.1,29.8,47.1,32.9,64.1s3.4,29.2,3.4,29.2"/>
<path fill="none" stroke="#000000" stroke-width="5" stroke-linecap="round" stroke-linejoin="round" stroke-miterlimit="10" d="
	M442.8,543.6c0,0,10.7-2,15.5,28.5s-8.1,82.7-24.5,93.6"/>
<path fill="none" stroke="#000000" stroke-width="7" stroke-linecap="round" stroke-linejoin="round" stroke-miterlimit="10" d="
	M491.9,602.1c0,0,8.1,0.2,13.4,7.2"/>
<line fill="none" stroke="#000000" stroke-width="7" stroke-linecap="round" stroke-linejoin="round" stroke-miterlimit="10" x1="442.1" y1="624.6" x2="452.2" y2="627.8"/>
<line fill="none" stroke="#000000" stroke-width="7" stroke-linecap="round" stroke-linejoin="round" stroke-miterlimit="10" x1="401" y1="627.2" x2="410.5" y2="624.3"/>
<line fill="none" stroke="#000000" stroke-width="7" stroke-linecap="round" stroke-linejoin="round" stroke-miterlimit="10" x1="442.8" y1="665.6" x2="490.3" y2="640.1"/>
<path fill="none" stroke="#000000" stroke-width="7" stroke-linecap="round" stroke-linejoin="round" stroke-miterlimit="10" d="
	M460.2,680.2c-0.4,0,21.3-9.4,21.3-9.4"/>
<line fill="none" stroke="#000000" stroke-width="7" stroke-linecap="round" stroke-linejoin="round" stroke-miterlimit="10" x1="507" y1="658.1" x2="527.6" y2="648.3"/>
<polyline fill="none" stroke="#000000" stroke-width="7" stroke-linecap="round" stroke-linejoin="round" stroke-miterlimit="10" points="
	507,676.5 594.8,693.7 594,829.8 "/>
<polyline fill="none" stroke="#000000" stroke-width="7" stroke-linecap="round" stroke-linejoin="round" stroke-miterlimit="10" points="
	565.3,846.3 566.1,713.7 481.5,698.1 "/>
<path fill="none" stroke="#000000" stroke-width="7" stroke-linecap="round" stroke-linejoin="round" stroke-miterlimit="10" d="
	M443.4,690.1l-81,39.7c0,0-4.9,114.8-2.3,122.8"/>
<path fill="none" stroke="#000000" stroke-width="7" stroke-linecap="round" stroke-linejoin="round" stroke-miterlimit="10" d="
	M327.3,843.6c0,0-1.8-122.6,1.4-128.8c3.2-6.2,98.6-39.7,98.6-39.7"/>
<line fill="none" stroke="#000000" stroke-width="7" stroke-linecap="round" stroke-linejoin="round" stroke-miterlimit="10" x1="288.7" y1="663.3" x2="337.8" y2="670.5"/>
<line fill="none" stroke="#000000" stroke-width="4" stroke-linecap="round" stroke-linejoin="round" stroke-miterlimit="10" x1="224.7" y1="688.9" x2="328.7" y2="714.8"/>
<path fill="none" stroke="#000000" stroke-width="4" stroke-linecap="round" stroke-linejoin="round" stroke-miterlimit="10" d="
	M328.2,716.6c1,0,14.4,8.4,35.1,10.8"/>
<polyline fill="none" stroke="#000000" stroke-width="4" stroke-linecap="round" stroke-linejoin="round" stroke-miterlimit="10" points="
	371.7,727.4 485.7,750.4 562.4,712.3 "/>
<path fill="none" stroke="#000000" stroke-width="4" stroke-linecap="round" stroke-linejoin="round" stroke-miterlimit="10" d="
	M567.1,712.3c0,0,23.5-12.5,27.1-16"/>
<path fill="none" stroke="#000000" stroke-width="4" stroke-linecap="round" stroke-linejoin="round" stroke-miterlimit="10" d="
	M593.9,692.9c0,0,54.1-28.9,71.5-31.2"/>
<path fill="none" stroke="#000000" stroke-width="4" stroke-linecap="round" stroke-linejoin="round" stroke-miterlimit="10" d="
	M484.9,751.1c0,0,4.2,131.1,0.5,139.1"/>
<polyline fill="none" stroke="#000000" stroke-width="7" stroke-linecap="round" stroke-linejoin="round" stroke-miterlimit="10" points="
	667.3,785.2 680.6,785.2 666.4,786.6 661.1,789.9 "/>
<path fill="none" stroke="#000000" stroke-width="4" stroke-linecap="round" stroke-linejoin="round" stroke-miterlimit="10" d="
	M233.4,647.8c0,0,34.5,39.1,76.4,19.6"/>
<path fill="none" stroke="#000000" stroke-width="4" stroke-linecap="round" stroke-linejoin="round" stroke-miterlimit="10" d="
	M221,622c0,0,70-13.8,107.2,23.8"/>
<path fill="none" stroke="#000000" stroke-width="7" stroke-linecap="round" stroke-linejoin="round" stroke-miterlimit="10" d="
	M227,672.3c0,0,10.1-48.3,8.9-53.4c-4-6.2-37.7-23.7-42.1-29c-4.7-5.4-154.2,57.3-154.4,59.4c-0.2,2.1,28.9,81.6,33.5,81.6
	C87.6,726.3,219.4,678.4,227,672.3z"/>
<path fill="none" stroke="#000000" stroke-width="4" stroke-linecap="round" stroke-linejoin="round" stroke-miterlimit="10" d="
	M217.8,618.3c8.2-0.2,8.1,12.8-1.9,12.8C205.8,631,211.2,618,217.8,618.3z"/>
<path fill="none" stroke="#000000" stroke-width="7" stroke-linecap="round" stroke-linejoin="round" stroke-miterlimit="10" d="
	M224.6,740.2c0,0-187,66.8-188.9,66.8"/>
<path fill="none" stroke="#000000" stroke-width="18" stroke-linecap="round" stroke-linejoin="round" stroke-miterlimit="10" stroke-opacity="0" d="
	M772.5,431c0,0,2.1-10.3,1.4-9.9c-0.7,0.5-11.7,4.8-11.7,4.8s7.5-14.8,7.4-15.5s-27.1,5.2-25.5,3.6c1.5-1.7,29.9-19,29.9-19
	l-26.2,4.7l38.4-31.7l-48.7,19.3l40.7-29.8c0,0-52.3,14-50,12.4s58-31.9,58-31.9l-61.5,14.9l84.2-45.4l-88.6,32.3l-2.3-10.1
	l84.6-31.6l-0.4-9.2l-91.8,27.7l3.1-10.2L805,279l-2.1-7.3l-83.7,19.1l2-14.3l83.3-18.9l4.4-6.8l-69.4,9l11.7-13.8l64.9-8.5l7.6-7.1
	l-51.4,3.7l17.4-12l43.8-0.5l3.6-8h-23.2c0,0,29-4.8,30.7-3.8"/>
<path fill="none" stroke="#000000" stroke-width="18" stroke-linecap="round" stroke-linejoin="round" stroke-miterlimit="10" stroke-opacity="0" d="
	M610.3,636.7l-1.1,5.9l19.6-11.4l-6.1,12.1l9.5,1.8l16.8-21.4l5.7-1.7l-10.2,26.1l11.2,2l27.3-50.3l8.9-5.7l-17.9,46l16.9-5.5
	l17.4-58.7l16.2-12.8l-19.2,60l16.3-12.5l19-62.8l14.8-15l-22.8,69.9l9.8-8.9l25.6-75.4l6.8-2l-19.3,87l22.2-61.8
	c0,0-2,43.7-1.8,43.3c0.2-0.5-20.6,31.9-20.6,31.9l-8.3,24.8l43.4-56.4l3.8,4.9L738.3,659l-7.9,18.4l67-73.5l5.8,2.5l-79,83.8
	l-5.5,16.4l97.7-90.5l20.2-7.5L713.8,721.3l1.4,9.7l135.9-138.8l9.2-1.3L725.4,735.3l19,3.5l130-148.8l24.1-33.8l5.9-38.5l23.5-8.3
	l78.9-3.8l106.1-9.2c0,0,71.8-6.8,78-5.4c6.1,1.3,8.9,15.8,9.5,15.9s0,23.2-5.8,24.6c-5.8,1.4-7.6,1.4-13.5,1.4
	c-5.8,0-17.7-1.4-17.7-1.4s13.3-0.2,14.1-2.4s6.1-8.3,6.7-10.5s1.2-11.7,1.2-11.7s2.1-12-8.9,0c-11,12-26.9,22.2-26.9,22.2
	l23.2-31.3l-37.3,33.8l21.4-26.5l-43.1,28.5l31.2-31.8l-50.1,35.8l-14.4-2.1l37.6-30.4l-21.1,4.7l-33.3,28.1l-11.5-0.6l33.2-30.4
	l-23.2,4.7l-28.1,27.8c0,0-9.5-1.2-10.7-0.6c-1.2,0.6,20.5-28.7,20.5-28.7l-21.7,4.6c0,0-13.8,25.1-14.7,25.1s-13.5,0-13.5,0
	l18-28.1l-24.8,7.3l-7,19.3l-9.8-1.5l6.6-24l-16.7,2.1l-0.7,22.9l-8.8,0.2v-22l-15.7,1.4L939,539l-11.2-22.5l-6.9,2.1l6.6,26.4
	l-13.1-16l2.1,21.6l-6.4-7.7l1.9,18.7L757.6,741.1l9.9,2.5l142.9-165.3l-5.4,22.1L785.3,742.1l8.6-1.4L902,617.5l-0.5,20.8
	L803,744.9l16.7,3l80.7-91.7l-1.9,11.5l-70.2,83l9.8,2.3l59.4-69.7L897,695l-45.9,59c0,0,6.7,0.9,7.4,1.1
	c0.7,0.2,38.3-45.4,38.3-45.4l-4.4,14.7l-24.3,34.2h10.8l15.4-20.9l-6.5,24.1"/>
<polyline fill="none" stroke="#000000" stroke-width="18" stroke-linecap="round" stroke-linejoin="round" stroke-miterlimit="10" stroke-opacity="0" points="
	716.9,633.9 744.3,609.7 739.9,624.9 715.3,650.1 735.2,639.9 710.9,668.4 718.4,671.9 705.3,690.7 699.9,731.4 "/>
<path fill="none" stroke="#000000" stroke-width="18" stroke-linecap="round" stroke-linejoin="round" stroke-miterlimit="10" stroke-opacity="0" d="
	M922.7,564.4l21.4-13.3l8.5,0.7l-34.9,26.5l-4.8,15.2l47-33.9l1.1,11l-48.1,39.1l-1,9.1L961,586v6.6l-49.1,37.6l-0.7,11.7l47.5-32.4
	l-7.9,19.8l-35.2,25l-5.6,13.3l47.8-27.5l-6,16.1L911,681.6l-2.3,11l42.1-23.5l-2.4,14.1l-40.8,21.6l-1.2,11.2l36.3-18l-1.6,7.6
	l-34.7,19l-1.4,9.2c0,0,32.5-14,33-14.9s0.9,9.9,0.9,9.9l-36.6,17.1l-1.3,7.7l34.9-9.3l-2.1,9.3l-33.8,12l13.1,4.5
	c0,0,17-2.9,18.4-3.3s0,11.9,0,11.9"/>
<path fill="none" stroke="#000000" stroke-width="13" stroke-linecap="round" stroke-linejoin="round" stroke-miterlimit="10" stroke-opacity="0" d="
	M223.7,691.8l56.2-19.3l9.5-2.6l44.4,7.6l19.7,6l23.8,3.4h7.5l-34.1,11l-28.1,15.4l1.3,127.4L235,816.4c0,0-4.9-126.7-4.9-125.3
	s54.7-13.5,54.7-13.5l66.3,14L313.3,709l2,120.8l-75.4-18.1l-2.1-115.9l50.9-10.7l43.6,9.5l-28,10.6l5.6,115.2l-60.5-14.9L247.3,702
	l49.8-9.1l9.2,2.9l-8,6.1l4.1,107.2l-46.1-10.8l-2.5-91.5l36.5-3.6l2.5,93.1l-27.7-4.6l-5.7-79.3h21.3l2.5,74.1l-8.5-2.3l-4.6-66.5
	l4.4-0.9l4.6,62.8"/>
<path fill="none" stroke="#000000" stroke-width="13" stroke-linecap="round" stroke-linejoin="round" stroke-miterlimit="10" stroke-opacity="0" d="
	M360,641.6c0,0,14.6,17.6,17.7,20s12.9,5.7,12.9,5.7"/>
<line fill="none" stroke="#000000" stroke-width="13" stroke-linecap="round" stroke-linejoin="round" stroke-miterlimit="10" stroke-opacity="0" x1="408.4" y1="628.6" x2="408.4" y2="630.9"/>
<polyline fill="none" stroke="#000000" stroke-width="13" stroke-linecap="round" stroke-linejoin="round" stroke-miterlimit="10" stroke-opacity="0" points="
	447.5,626.2 442.8,644.3 437.1,659.8 "/>
<line fill="none" stroke="#000000" stroke-width="13" stroke-linecap="round" stroke-linejoin="round" stroke-miterlimit="10" stroke-opacity="0" x1="484.7" y1="633.8" x2="473.9" y2="644.9"/>
<path fill="none" stroke="#000000" stroke-width="13" stroke-linecap="round" stroke-linejoin="round" stroke-miterlimit="10" stroke-opacity="0" d="
	M539.7,646.9l-22.4,12.9l-1.5,12.7l83.8,15.1l0.6,125.8l0.7,8.1l62-39.8l2.6-118.1l-83-13c0,0-19.4,6.6-19.9,6.6s-23.4,0.2-23.4,0.2
	l-9,2.6l-3.5,3.6l9.6,6.4c0,0,41,4.4,45.4,4.7s21.6,4.2,21.6,4.2l3.6,4.8l2.3,121.1l47.2-28.1l0.5-109.5l-74.1-9.2l-11.2,2.7
	l-32.1,2.9c0,0,58.4,5.3,59.6,5.4c1.2,0.2,15.7,7.4,15.7,7.4l2.8,114.9l34.5-17.7L650,672.9l-48-9.2l14.2,7.2l26.4,6.8l1.5,92
	l-7,2.5l0.9-86.9l-7-3.5l-1.3,95.5l-5.9,3.4l-2.5-103.9"/>
<path fill="none" stroke="#000000" stroke-width="13" stroke-linecap="round" stroke-linejoin="round" stroke-miterlimit="10" stroke-opacity="0" d="
	M479.2,705.4l81.4,13.5l-1.3,127.7L487,885.1l-120.7-34.2c0,0,0.8-82.4,2.1-98s1.2-18.5,1.2-18.5l72.6-36.3l15.6,5.6l13,3.1
	l78.9,21.1l1.1,111.3L482.2,874l-108.7-30.3l0.2-108.3l68.9-28.9l102,29l-3,101.4l-60.1,27.7c0,0-96.3-24.3-98.1-27.1
	s-0.9-98.6-0.9-98.6l63.7-24.1l88.7,27.3l-2.8,89.2L481.5,857l-92.4-25.7l2.8-85.5l56.6-25.5l78.2,28.1c0,0,0.2,77-2.9,77.7
	c-3.1,0.7-46.4,21.8-46.4,21.8s-79.6-21.6-79.8-22.9s0.7-73.8,0.7-73.8l53.7-22.7l63.9,26.9v65.4l-39.4,20l-72-22.9l-0.2-64.6
	l48.6-19l57.1,28.8l-2.8,53.7l-29.8,16.1c0,0-61.7-21.8-62.4-20.9s-0.9-54.8-0.9-54.8l40.9-16.5l49.7,30.9l-6.9,42.3l-23.8,7.9
	l-50-18.2v-42l32.9-13l41.3,28.2l-9.6,31.3l-12,2.2l-42.9-12.8l-1.8-35.8l27.1-2l30,20.6l-11.5,25L461,800c0,0-20.6-6.7-20.6-8.1
	c0-1.3-1.1-19.1-0.2-19.4c0.9-0.3,15-3.5,15-3.5s23.8,11.4,23.8,12.1c0,0.7-8.7,12.6-8.7,12.6l-18.1-6l-3.4-7.3l3.2-2.8
	c0,0,8.7,3.2,9.4,3.2s6.9,2.3,6.9,2.3l-1,2.8c0,0-8.2,0.9-10.3-1.6"/>
<path fill="none" stroke="#000000" stroke-width="13" stroke-linecap="round" stroke-linejoin="round" stroke-miterlimit="10" stroke-opacity="0" d="
	M335.1,840.7v-124l93.3-34.2l5.3,6.5l-79.8,40.5l2.1,116.9c0,0-5.6-0.6-6.8-1.3s-4.6-3.4-4.6-3.4L343,725.4l49.6-23.6l-45.1,25
	l1.8,107.8"/>
<path fill="none" stroke="#000000" stroke-width="13" stroke-linecap="round" stroke-linejoin="round" stroke-miterlimit="10" stroke-opacity="0" d="
	M306,662.3l33.2-19.7l3.5-10.6l10.7,20.8l10.4,12.8l18,7.2c0,0,14.2,2.4,15.9,2.4s5.8-0.7,3.3,0.3s-19.7,4.7-19.7,4.7
	s-25.1-10.7-27.4-11.3s-12.4-5.4-14.2-5c-1.8,0.4-7.5-1.6-7.5-1.6h-9c0,0,11.4-4.3,1.6-2.5s-1.6-3.1,5.4-3.7
	c7-0.6,11.4-4.9,11.4-4.9l7.6,11.1l4.7,3.7"/>
<path fill="none" stroke="#000000" stroke-width="13" stroke-linecap="round" stroke-linejoin="round" stroke-miterlimit="10" stroke-opacity="0" d="
	M570.9,836.8l19.7-9l-3.8-131.5l-78-12.5L495,697l76.6,15.2l-0.7,117.6l12.5-4L580,700.9c0,0-4,121.9-3.4,120.6
	s-1.2-117.2-1.2-117.2l-62.1-11.4"/>
<path fill="none" stroke="#000000" stroke-width="13" stroke-linecap="round" stroke-linejoin="round" stroke-miterlimit="10" stroke-opacity="0" d="
	M438.1,673.9c0,0,12.6,15.8,28.9,18.3s23.7-7.8,24-8.3s8.5-10.9,8.8-12.5s1.9-9.2,1.9-9.2l-15.6,3.4c0,0,0.5,12.7-0.9,13.3
	c-1.4,0.7-12.8,4.8-12.8,4.8h-4.1l24.8-11.4c0,0-9.6,11.2-9.9,12s-15,0.2-15,0.2l-6.1-8.1h-2.6l56.2-28.2l-18.2-2.7
	c0,0-1.3-0.5-2.2,0s-7,1.7-7,1.7l-3.2,1l-36.3,19.9l1,3.2l41.4-18.2l-33.8,19.3l-7.6,4l-8.7-11.3c0,0,26.8-20,37.3-40.6
	c10.4-20.6,3.1-64.9,3.1-64.9L449.9,548l-8.1,3.2c0,0-0.1,10.7,0,11.7s0.4,5.6,0.7,5.5c0.3-0.1,6.7-3.9,6.7-3.9l0.7-6.6l3-0.9
	l6.1,1.9c0,0,13.4,9.4,14.1,9.5s2.3,4.9,2.3,5.4s5,29-2.5,42.8c-7.6,13.9-22.7,33.9-23.6,33.3c-0.9-0.6,14.8-34,15.8-35.3
	s4.1-15.2,4.7-17.1c0.7-1.8-1.3-26-2.4-26.8s-10.8-6.4-10.8-6.4l7.7,28l-3.2,13.1l-6,15.8"/>
<path fill="none" stroke="#000000" stroke-width="13" stroke-linecap="round" stroke-linejoin="round" stroke-miterlimit="10" stroke-opacity="0" d="
	M423.9,663.3c0,0,14-42.2,11.3-73.8c-2.8-31.5-22.2-46.7-22.2-46.7s-54,33.5-54.1,33.6s-4.7,22.9,10.3,52.5c15,29.5,47.8,38,47.8,38
	s7.6-37.1,9-62.7c1.4-25.6-11.7-46.4-11.7-46.4l-3.8-1.6l-42.8,25.9c0,0-6.6,32.4,18.8,54.5s25.2,21.2,25.2,21.2s9-58.4,8-74.8
	s-9.3-15.6-9.3-15.6L377,588c0,0-7.6,15.3,9.6,35.2s18.5,22.6,18.5,22.6s5.4-48.1,5.5-59s-4.4-13.2-4.8-11.6s-6.1,8.7-6.1,8.7
	s-16.5,8.7-16.7,10.1c-0.2,1.4,1.5,15.4,1.5,15.4s0.9,5.7,6.2,10.2s9,0,9,0l2.1-28.7v-1.2"/>
<path fill="none" stroke="#000000" stroke-width="13" stroke-linecap="round" stroke-linejoin="round" stroke-miterlimit="10" stroke-opacity="0" d="
	M1280.5,412H1253l7.2,42.2c0,0,14.3,9.4,13.5,6.5c-0.8-3-0.8-33-0.8-33l9-2.6l20.8-0.6l-18.6-8.6l-22.7,1.3l2.6,29.2l3.3-18.7
	l6.1-5.9"/>
<path fill="none" stroke="#000000" stroke-width="13" stroke-linecap="round" stroke-linejoin="round" stroke-miterlimit="10" stroke-opacity="0" d="
	M1300.3,448.8l34.4-3.9l15.2,10.8l-0.2,35.3l-29.1,9l-21.8-22.6l0.8-23.5l33.9-1.1l10.2,14.8c0,0-0.7,21.7-3.6,21.7
	s-17.4,0.2-17.8,0.6c-0.4,0.5-15.5-20.9-15.7-21s2.8-11.1,2.8-11.1l21.3,5.7l3.6,12.8l-6,6l-10.6-7.7l-1.7-7.1h11.2l1.1,6l-4.5-3.9"
	/>
<path fill="none" stroke="#000000" stroke-width="13" stroke-linecap="round" stroke-linejoin="round" stroke-miterlimit="10" stroke-opacity="0" d="
	M1385,479.1c0-0.8-2.9-29.4-2.9-29.4l-21.3-16.3l24.2,0.7l23.2,10.7l5.7,5.8l3.1,32.3l-19.1,0.7l-7-6.5c0,0-1.4-29.2-2.6-30.9
	c-1.2-1.7-9.5-9.8-9.5-9.8s19.8,8.8,21.9,10.7c2.1,1.8,4.7,6.9,4.7,6.9l3.1,19.3c0,0-2.1,6.1-5.4,5.6c-3.2-0.5-9.5-7.7-9.5-7.7
	s-0.6-18.5,0.5-19.5s6.6,3.2,6.6,3.2s0,10.9,0,13.7c0,2.8-1,1.4-1,1.4"/>
<path fill="none" stroke="#000000" stroke-width="13" stroke-linecap="round" stroke-linejoin="round" stroke-miterlimit="10" stroke-opacity="0" d="
	M1283.9,469.4c-0.6-0.4,1-34.1,1-34.1s2.4,31.4,2.4,32.2s2.5-31.6,2.5-31.6l36.1-2.5l14.1,1.8l20.1,20.7l2,22.6l7.2-3.3l-1.6-19.2
	l-6.8-11.1l-15.7-12.8c0,0-6.1-3.5-6.6-3.5c-0.6-0.1-25.4-7.2-25.4-7.2l-13.2-9.3l-12.4-12.6l-8.3-11.8l-6.2-7.3l7.5-2.9
	c2.8,1.3,33.6,32.1,33.6,32.1l8.1,8.3c0,0,3.1,1.1-6.9-5.8s-14.6-24.2-14.6-24.2s-7.6-13.1-7.6-17.2s-2.8-13.3-1.1-18.1
	s0.5-11.1,3-14.8c2.5-3.8,7.2-6.6,7.2-6.6h3.1l-5.3,14l-0.2,19.3c0,0,2.6,8.8,8,20.9c5.3,12.1,6.3,14.1,6.3,14.1l-7.5-33.4l2-14.7
	l1.8-13.6c0,0,2.2-6.4,3.7-6.6s6.5-2.9,6.5-2.9l10.1,0.6l10.6,13.6c0,0,0.8,21.3,1.6,26.7c0.7,5.4-8,38.9-8.2,39.3
	c-0.2,0.5-4,6.3-4,6.3s-2.7-2.1-2.4-4.5c0.4-2.4-7.5-7.3-7.4-8.9s8.3,2,8.3,2v-14.3c0,0,6.8-19.6,6.8-23.3c0-3.7-1.7-28.1-1.7-28.1
	s-15-9.5-16.5-5.6s-3.7,8.9-3.7,8.9l9.7-3.4c0,0,3-4.2,5.5,7.3c2.4,11.5-0.8,13.1-0.9,22.7s1.1,14.7-0.1,9.6
	c-1.1-5-4.1-20.9-4.4-23.9c-0.4-3-1.4-8.5-2.8-8.5s-10.1-4.8-5.6,1.5c4.4,6.3,4.3,10.7,4.3,10.7"/>
<path fill="none" stroke="#000000" stroke-width="13" stroke-linecap="round" stroke-linejoin="round" stroke-miterlimit="10" stroke-opacity="0" d="
	M1348.2,356.9c0,0,19-23.2,29.8-16.5c10.8,6.6,16.8,17.8,16.6,28.8s-19.5,36.3-19.5,36.3l-15.6,13.4c0,0-8-0.7-9.5,0.2
	c-1.5,0.9-5.6,1.6-5.6,1.6s-3.5-3.1-2-5.9s4-14.1,4-14.1l5.9,11.4c0,0,3.8-0.3,7.2-2.5c3.5-2.2,8.3-7.6,11.6-10.9
	c3.3-3.3,8.3-13.3,8.3-13.3l4.9-21.8v-6.2l-4.5-10.9c0,0-1.1,7-1.7,10.7c-0.7,3.7-2-6-2-6l-7.7-2.3l-8.8,8c0,0-5.8,5.9-5.5,10.1
	s-2.2,5.8-2.2,5.8s7.6-9.8,12.1-11.9c4.5-2,5.3-2.3,5.3-2.3"/>
<path fill="none" stroke="#000000" stroke-width="13" stroke-linecap="round" stroke-linejoin="round" stroke-miterlimit="10" stroke-opacity="0" d="
	M1373.7,426.2c0,0,27.6-0.6,39.4-9.6s5.6-14.8,5.6-14.8s-6,5.6-7.7,7.7s-16.6,11-18.5,11.1c-1.8,0.2-8.7,0.7-7.5,0
	s24.7-15.6,24.7-15.6l4.8-7.9"/>
</svg>
