<?xml version="1.0" encoding="utf-8"?>
<!-- Generator: Adobe Illustrator 22.1.0, SVG Export Plug-In . SVG Version: 6.00 Build 0)  -->
<svg version="1.1"
	 id="Layer_1" xmlns:cc="http://creativecommons.org/ns#" xmlns:dc="http://purl.org/dc/elements/1.1/" xmlns:rdf="http://www.w3.org/1999/02/22-rdf-syntax-ns#" xmlns:svg="http://www.w3.org/2000/svg"
	 xmlns="http://www.w3.org/2000/svg" xmlns:xlink="http://www.w3.org/1999/xlink" x="0px" y="0px" width="1000px" height="1000px"
	 viewBox="0 0 1000 1000" enable-background="new 0 0 1000 1000" xml:space="preserve">
<g id="vs-color_1_">
	<path fill="#53BC53" d="M457.9,226.3c-1.7-1.3-3.4-0.2-6.1,1.6c-0.8,0.5-1.8,1.2-2.9,1.8c-3.7,2.3-7.1,3.7-10.3,4.3l30.2-47.9
		l30.8-48.9c8.5,11.5,37.3,49.6,37.7,50.1c14.5,19.2,29.1,38.5,35.6,47.1c-1.4-0.5-3.2-1.2-5.3-2.3c-4.2-2.1-7.8-4.4-7.9-4.5
		c-0.9-0.6-2-0.5-2.8,0.1s-1.2,1.7-0.9,2.7l3.5,12.3c-1.3,0.1-3.9-0.6-9.4-3.9c-0.9-0.6-1.8-1.1-2.7-1.7c-5.2-3.3-7.7-4.7-9.8-4
		c-0.9,0.3-1.6,0.9-2,1.8c-0.2,0.5-0.2,1-0.1,1.5l2.7,12.4c-0.8-1-1.6-2-2.6-3.2l-8.5-10.7c-0.5-0.7-1.3-1.1-2.1-1.2
		c-1.8-0.1-3-0.1-14.9,19.3c-3.2,5.2-6.3,10.6-8.6,14.4l-6.7-31.6c-0.2-1-1-1.7-2-1.9c-0.2,0-0.3,0-0.5,0c-0.8,0-1.6,0.4-2.1,1.1
		c0,0.1-4.2,6.2-9.4,12c-4.7,5.2-9,8.6-12.3,9.7l7-24.3c0.3-1.1-0.2-2.3-1.1-2.8c-1-0.6-2.2-0.4-3,0.4c0,0-2.9,2.9-7.4,6.1
		c-4.2,2.9-8.3,5-12.3,6.4l7.1-12.1c0.1-0.2,0.2-0.4,0.3-0.6C459.3,227.6,458.3,226.6,457.9,226.3z"/>
	<path fill="#53BC53" d="M755.2,728.9C741,713.1,726,698.1,725.8,698c-0.2-0.2-0.3-0.4-0.4-0.6l-1.7-3.1l-1.6-3.2
		c-0.1-0.2-0.2-0.5-0.2-0.7c-5-1.9-11.9-4.6-18.9-7.1c-19.2-7-26.5-8.7-29.2-9.1c0.6,1.3,2.2,3.8,5.9,8.1c0.2,0.3,0.5,0.6,0.7,0.8
		c0.3-0.3,0.7-0.5,1.1-0.5c5.3-1.1,10.9-0.1,15.7,2.7c4.7,2.8,8.3,7.2,10,12.4c1.8,5.7,1.2,11.8-1.4,17c-2.7,5.2-7.4,9.2-13,10.9
		c-2.2,0.7-4.5,1-6.7,1c-3.5,0-7-0.8-10.3-2.5c-5.2-2.7-9.2-7.4-10.9-13c-1.1-3.1-1.4-6.4-0.9-9.8c0.4-2.8,1.3-5.4,2.8-8
		c-3.8-2.1-8-4.7-12.6-7.8c-5.5-3.7-10.7-7.7-15-11.1l22.5,40.2c0.8,1.6,3.3,6.2,0.3,9.4c-1.4,1.5-3.5,2.2-6.5,2.2
		c-1.5,0-3.2-0.2-5.1-0.6c-2.9-0.5-9.5-3.4-31.6-22c-3-2.6-6-5.1-8.7-7.5c1,2.8,0.9,4.9-0.2,6.6c-1.3,1.9-3.7,2.7-7.2,2.3
		c-6.7-0.8-14.7-7.1-23.8-18.5c-6.6-8.3-11.4-16.2-11.6-16.6c-0.7-1.2-0.3-2.7,0.9-3.4s2.7-0.3,3.4,0.9c0,0.1,4.8,8,11.2,16
		c8,10.1,15.3,16,20.6,16.7c1.9,0.2,2.4-0.1,2.4-0.1l0,0c0,0,0.4-1.4-2.2-6c-2.9-5.1-7.8-10.6-7.9-10.7c-0.9-1-0.8-2.5,0.1-3.4
		c0.9-0.9,2.5-1,3.4-0.1c0.1,0.1,10.9,10,22.8,20c20.6,17.4,27.2,20.6,29.3,20.9c5.7,1.1,6.9,0,7-0.1c0.1-0.2,0.3-1.1-1.1-3.6
		l-14.5-25.9l-14.5-25.8c-0.6-1.1-0.3-2.4,0.6-3.2c0.9-0.8,2.3-0.7,3.2,0c0.1,0.1,12,10.3,24.9,19.1c15.7,10.7,23.4,13,27.1,13h0.1
		c-2.2-2.2-5.3-5.5-8.2-8.9c-7.7-8.9-8.1-12-7.3-14c0.5-1.3,1.6-2.2,3.1-2.4c1.2-0.2,5-0.8,33,9.4c10.6,3.8,20.8,7.8,24.9,9.5
		l-36.1-42.3c-0.8-0.9-0.8-2.2-0.1-3.2c0.7-0.9,2-1.2,3.1-0.7c0.2,0.1,18.1,8.7,34,15.2c11.1,4.5,16.8,6.3,19.7,7l-13.1-15.5
		l-13.5-15.8c-0.8-0.9-0.8-2.2-0.1-3.1s1.9-1.3,3-0.8c0.2,0.1,17.5,7.3,30.5,11.8c2.3,0.8,4.1,1.4,5.6,1.9c-0.8-0.6-1.8-1.2-2.9-1.9
		c-18.3-11.7-39.7-33.6-54.5-49.9c-6-6.6-11.4-12.9-15.9-18.2l0,0c-0.4-0.3-0.7-0.7-0.9-1.1c-6.4-7.6-10.6-12.9-11.4-13.8l-1.1-1
		c-4-3.9-7.2-6.9-10-10.1c-3-3.4-5.6-7-8.6-11.8c-6.8-2.7-12.5-5.9-17.2-9.6c1.3,2.2,2.9,4.9,4.8,8.1c8.2,13.5,18.5,29.3,18.6,29.4
		c0.3,0.5,0.5,1.1,0.4,1.7c-0.3,1.8-1.2,3.3-2.8,4.2c-2.3,1.3-7.1,2.2-20.9-2.9c1.8,2.1,3.2,4.6,4.1,7.3c1.8,5.7,1.2,11.8-1.4,17
		c-2.7,5.2-7.4,9.2-13,10.9c-2.2,0.7-4.5,1-6.7,1c-3.5,0-7-0.8-10.3-2.5c-5.2-2.7-9.2-7.4-10.9-13c-1.1-3.1-1.4-6.4-0.9-9.8
		c0.4-2.6,1.2-5.1,2.5-7.5c-5.9-3-11.7-7.9-17.5-14.7c-6.3-7.3-10-14-10.2-14.3c-0.7-1.2-0.2-2.7,1-3.4s2.7-0.2,3.4,1
		c0,0.1,3.7,6.6,9.6,13.5c7.8,9,15.7,14.6,23.1,16.1c1.7,0.3,2.6,0.3,3,0.3c-0.2-0.8-1-3.1-5.2-8.1c-5.8-7-14.1-14.7-14.2-14.8
		c-0.9-0.9-1.1-2.3-0.3-3.3c0.7-1,2.1-1.3,3.2-0.7c0.2,0.1,15.4,8.6,30.7,15.4c21.7,9.7,27.2,8.8,28.4,8.2c-2.5-3.9-11-17-17.9-28.4
		c-3.5-5.7-6-10.1-7.7-13.3c-2.6-4.9-4-7.7-1.8-9.4c2.3-1.7,4.7,0.8,6.9,3.3c5.4,5.9,13,10.2,20.2,13.2c0.9-0.2,1.9,0.2,2.4,1
		c2.5,1,5,1.8,7.2,2.5c4,1.2,7.8,2.1,10.8,2.8c-9.3-9.6-15.2-17.5-17-20c-4.6-6.4-5.4-8.7-3.5-10.4c1.9-1.7,4.1-0.1,5.7,1.2
		l22.6,6.8c-13.8-9.5-28.6-22.7-43.8-39.3c-12.2-13.3-20.2-24-20.3-24.1l-0.1-0.1l-11.6-18c-3.6-5.5-6.5-11.2-9-17.3
		c-2.5-6.1-4.3-12.1-5.6-18.2c-0.1-0.3-0.2-0.6-0.2-0.9v-0.2c0-0.1,0-0.3,0-0.4c-2.7-1.9-5.4-4-8-6c-2.4-1.8-4.6-3.6-6.7-5
		c1.5,2.9,3,4.9,4.7,7.1c0.4,0.5,0.8,1,1.3,1.6c1.9,2.4,4.1,5.1,6.6,9c0.4,0.7,0.5,1.5,0.2,2.3s-0.9,1.3-1.7,1.5
		c-2.8,0.7-5.6,1-8.6,1c-8.6,0-18-2.9-27.5-8.7c-2.8-1.7-5.2-3.4-7.4-5c1.5,3.7,1.7,6.5,0.9,8.6c-0.4,0.9-1.3,1.6-2.3,1.6
		c-4.7,0-8.6-2.7-11.8-5.4c-1-0.8-1.9-1.7-2.9-2.5c-2-1.8-3.9-3.5-5.6-4.4c-1.2-0.7-1.6-2.2-0.9-3.4c0.7-1.2,2.2-1.6,3.4-0.9
		c2.2,1.2,4.2,3.1,6.4,5.1c0.9,0.8,1.8,1.6,2.7,2.4c1.9,1.6,4,3.1,6.2,3.8c-0.2-1-0.6-2.5-1.6-4.7c-0.8-1.8-1.7-3.6-2.5-5.1
		c-0.6-1.2-1.2-2.3-1.5-3.1c-0.4-0.9-0.2-2,0.5-2.7c1.7-1.7,3.4-0.1,4.3,0.6c2,1.8,7.3,6.6,14.6,11s17.9,9.1,28.7,7.8
		c-1.5-2.1-2.9-3.8-4.2-5.4c-0.5-0.6-0.9-1.1-1.3-1.7c-2.2-2.9-4.4-5.9-6.5-10.6c-0.8-1.6-0.5-3.5,0.9-4.9s3.5-1.6,5.2-0.5
		c3,1.9,6.1,4.3,9.5,6.9c3.6,2.8,7.4,5.7,11.2,8.1c6.8,4.4,12.2,6.2,16.8,5.7c-2.2-2.2-6.1-5.8-11.6-10.8c-2.9-2.6-5.7-5.1-8.2-7.3
		c-8.2-7.2-8.2-7.2-8.2-8.6c0-1.3,1-2.3,2.2-2.5c7.7-0.9,15,1,21.9,2.9c0.8,0.2,1.6,0.4,2.4,0.6c6.7,1.7,13.4,3.2,20.5,2.4
		c-2.2-3.1-8.3-10-23.4-24.1c-3-2.8-6.1-5.7-9.1-8.4c-10.1-9.3-18.8-17.3-21.5-20.9c-6.2-8-16.4-23.5-25.4-39.9
		c-7-12.9-15.4-30.5-15.3-40.8c0-0.3,0.1-0.6,0.2-0.9c-0.8-0.5-1.7-1-2.5-1.5l3.8,17.4c0.1,0.4,0.1,0.9-0.1,1.3
		c-0.3,0.9-1.1,1.6-2,1.7c-1.5,0.3-2.3,0.4-11.2-10.9l-7-8.8c-1.5,1.9-4.4,6.1-10.4,15.8c-5.9,9.8-11.7,19.8-11.8,19.9
		c-0.5,0.8-1.3,1.3-2.2,1.3c-0.1,0-0.3,0-0.4,0c-1-0.2-1.8-0.9-2.1-2l-6.8-32.4c-1.7,2.3-4,5.1-6.5,7.9
		c-7.8,8.7-14.5,12.6-19.9,11.6c-0.7-0.1-1.3-0.5-1.7-1.1c-0.4-0.6-0.5-1.3-0.3-2l5.7-19.8c-0.8,1.8-7.5,16.4-15,32.7
		c-10.9,23.3-18.5,38.7-22.5,45.7c-11.7,20.3-30.2,36.4-43.7,46.3c-7.8,5.8-14.9,10.2-19.8,13.1c3.3-0.2,7-0.8,11-1.9
		c2.8-0.8,5.2-1.6,6.9-2.2c2.7-1,4.1-1.5,5.3,0c0.7,0.8,0.8,2,0.2,3c-0.1,0.2-0.3,0.4-0.5,0.6l-7.1,6.4c10.5-0.9,20.4-4.1,29.7-9.4
		c5-2.8,8.6-5.6,10.5-7c1.8-1.4,3.2-2.5,4.9-1.1c0.8,0.6,1.3,1.9,0.6,3.2l-3.7,7.5c3.6-0.6,6.4-1.6,8.3-2.4c2.7-1.1,4.1-2.2,4.1-2.2
		c1.1-0.9,2.6-0.7,3.5,0.4s0.7,2.6-0.4,3.5c-0.2,0.2-2,1.6-5.3,3c-3,1.3-7.9,2.9-14.4,3.3c-0.9,0.1-1.8-0.4-2.3-1.1
		s-0.6-1.7-0.2-2.5l1.5-3c-1.4,0.9-3,1.9-4.7,2.9c-2.6,1.5-5.2,2.8-7.8,3.9c-0.2,1-0.2,2-0.2,3.1c0,2.1,0,4.6-1.2,7.6
		c-1.8,4.6-6.2,9.6-13.7,15.4c5.4-1.1,10.7-2.6,16.1-4.6c0.5-0.6,1.3-0.8,2-0.8c0.8-0.3,1.6-0.7,2.4-1c10.1-4.4,16.3-8.9,18-10.2
		c0.8-0.6,1.9-0.7,2.8-0.2s1.4,1.5,1.2,2.5c-0.9,5.9-5.8,12.5-9.7,16.9c-0.6,0.7-1.2,1.3-1.7,1.9c9.4-2.8,18.1-7.4,26.6-13.9
		c4-3.1,7.3-6.1,9.6-8.3c3.3-3.1,4.7-4.3,6.3-4.4c0.7,0,1.4,0.2,1.9,0.7s0.8,1.1,0.8,1.8c0,0.2,0,2.1-0.8,4.9
		c-0.5,1.8-1.1,3.5-2,5.1c3.2-1.2,5.5-2.8,7.1-4.2c2.7-2.4,4-4.6,4.1-4.6c0.7-1.2,2.3-1.5,3.4-0.8c1.2,0.7,1.5,2.3,0.8,3.4
		c-0.1,0.1-1.7,2.7-4.9,5.6c-3,2.7-8.1,6-15.6,6.8c-1,0.1-2-0.4-2.5-1.3s-0.4-2,0.3-2.8c1.5-1.8,2.6-3.7,3.5-5.8
		c-2.3,2.1-5.3,4.8-9,7.6c-11.7,8.9-23.9,14.4-37.4,16.9c-0.1,0-0.3,0-0.4,0c-0.9,0-1.8-0.5-2.3-1.4c-0.5-1-0.2-2.2,0.6-3
		c0,0,3.8-3.4,7.8-7.9c2.3-2.6,4.2-5.1,5.6-7.4c-3.1,1.9-7.2,4-12.1,6.2c-1,0.4-2.1,0.9-3.1,1.3c-12.4,20.1-31.2,43.9-51.8,65.5
		c-17.2,18.1-33.9,32.4-46.3,40.1c2.2,0.2,4.8,0.3,7.7,0.1c7.9-0.3,19.1-2.4,28.2-10.2c7.5-6.4,10.5-7.9,12.7-6.3
		c1,0.7,1.9,2.1,0.8,5c-1.4,3.5-5.6,9.3-7,10.7l-28.9,30c3.9-1.3,9.5-3.2,15.6-5.7c14.9-6,26.2-12.2,32.7-18c0.1,0,0.1-0.1,0.2-0.1
		c1.2-0.9,2.8-1,4-0.2c0.7,0.5,1.2,1.2,1.3,2.1c0.1,0.8,0,1.7-0.5,2.4l-9.1,16.8c10.3-2.2,19.3-7.4,25.4-11.8
		c7.7-5.5,12.5-10.7,12.5-10.7c0.7-0.8,1.8-1,2.8-0.6s1.6,1.3,1.6,2.4c-0.3,12.6-5.5,27.2-15.3,43.2c-3.3,5.5-6.7,10.1-9.3,13.6
		c0.3-0.1,0.7-0.3,1.1-0.4c4.8-1.9,11.8-5.1,18.5-10.2l11.6-9c5.5-4.3,9.8-8.3,13.7-12.4c4.1-4.2,8.1-9,11.8-14.2
		c0.8-1.1,2.4-1.4,3.5-0.6c1.1,0.8,1.4,2.4,0.6,3.5c-3.8,5.4-8,10.4-12.3,14.8c-4,4.2-8.6,8.3-14.2,12.8l-11.6,9
		c-4.1,3.1-8.3,5.6-12.1,7.5c2.9,4.4,4.1,9.7,3.3,15.1c-0.8,5.4-3.5,10.3-7.6,13.9c-4.1,3.4-9.1,5.2-14.2,5.2c-0.7,0-1.4,0-2.2-0.1
		c-5.9-0.6-11.2-3.4-15-8s-5.6-10.4-5.1-16.3c0.6-5.8,3.4-11.2,8-15c2.4-2.1,5.4-3.7,8.7-4.5c3.2-0.8,6.3-0.9,9.5-0.3
		c0.6,0.1,1.1,0.4,1.5,0.9c0.4,0.1,0.9,0.1,1.3,0.3c0.3,0.1,0.5,0.3,0.7,0.4c1.8-2.5,3.8-5.5,5.7-8.6c7.6-12.5,12.3-24,13.9-34.2
		c-2.2,1.9-5,4.3-8.3,6.6c-7.5,5.4-19.3,12-32.7,13.5c-0.9,0.1-1.8-0.3-2.3-1.1s-0.6-1.8-0.1-2.6l7.8-14.3c-2,1.4-4.2,2.7-6.6,4
		c-0.1,0.2-0.2,0.4-0.3,0.5c-0.1,0.1-8.1,10.2-18.1,21.8c-13.8,16-23.7,26.2-30.2,31.3l-50,39c7,1.3,16.4-0.4,27.5-5
		c10.4-4.4,18.8-10,18.9-10.1c0.9-0.6,2.2-0.5,3.1,0.2s1.1,2,0.6,3c0,0.1-2.9,5.6-6.4,12.2c-2,3.7-4.5,8.1-7.1,12.2l23.2-14.7
		c0.1-0.1,0.3-0.2,0.4-0.2c2.4-0.9,5.1-0.2,6.8,1.8c1.6,2,1.8,4.6,0.5,6.8c0,0,0,0.1-0.1,0.1c-8.5,12.5-25,28.1-38.3,40.7
		c-1.9,1.8-3.8,3.6-5.6,5.3c-3,2.8-10,9.4-13,13.1c0.8-0.2,1.8-0.5,3-1l32-12.3l31.9-12.4c1.1-0.4,2.3,0,3,1c0.6,1,0.5,2.3-0.3,3.1
		l-11.3,11.5L329,686c4.8-0.4,9.5-1.4,14.1-3.1c4.7-1.8,7.5-3.5,7.5-3.6c0.9-0.6,2.1-0.5,3,0.2c0.8,0.7,1.1,1.9,0.7,2.9
		c0,0.1-2.6,6-4.3,11.2c-0.5,1.6-0.9,2.8-1.1,3.8c5.3-3.5,9.6-5.8,11.9-7c3.6-1.8,5.8-2.8,5.9-2.8c1.3-0.5,2.7,0.1,3.3,1.4
		c0.5,1.3-0.1,2.7-1.4,3.3c0,0-2.2,0.9-5.5,2.6c-2.5,1.3-7.5,4-13.5,8.1c-1.1,0.7-2,1-2.7,1c-0.9,0-1.5-0.3-1.9-0.6
		c-2-1.5-1.9-4.6,0.3-11.3c0.6-1.8,1.3-3.7,1.9-5.4c-0.7,0.3-1.5,0.6-2.3,0.9c-7,2.6-14.4,3.8-21.9,3.6c-1,0-1.9-0.6-2.2-1.6
		c-0.4-0.9-0.2-2,0.5-2.7l11.1-11.7l3.2-3.2l-21.1,8.2l-11,4.2c0.8,21.3-18,46.5-33.9,64c-15,16.5-32,31.1-43,38.6
		c2.7-0.6,6-1.5,10.3-2.6c14.7-3.8,32.1-9,32.2-9.1c1-0.3,2.1,0.1,2.7,0.9c0.6,0.8,0.7,2,0.1,2.9c0,0-1.6,2.5-3.7,5.8
		c-0.6,0.9-1.5,2.4-2.6,4.1c1.7-1.2,3.8-2.7,6.5-4.7c8.1-6,12.8-9.8,17-13.1c0,0,0.1-0.1,0.2-0.1c0.8-0.2,2.5-0.2,3.3,0.1
		c4.8,1.8,2.8,2.4-4.8,19.9c-2.3,5.2-6.1,13.3-10.3,19.4c5.2-2.3,13.9-6.3,28.1-13.3c20.9-10.3,43.3-21.8,43.6-21.9
		c0.7-0.3,1.5-0.4,2.2-0.1c0.7,0.3,1.2,0.9,1.4,1.6c0,0.1,0.8,3,0.6,7.7c-0.3,6.1-1.9,12.2-4.8,18.2c1.7-0.4,5-1.7,11.6-5.3
		c9.5-5.2,19.9-12,20-12.1c1.1-0.7,2.5-0.5,3.3,0.5s0.7,2.5-0.2,3.4l-16.2,15.5L351,820.2c-1.5,1.5-2.7,2.8-3.5,4s-1.1,2.3-1,3.3
		c0.1,0.8,0.4,1.1,0.7,1.2c1.3,0.7,7.7,1.8,33.6-12.5c18.1-10,36.2-22.4,36.4-22.5c0.8-0.5,1.8-0.6,2.6-0.1c0.8,0.4,1.3,1.3,1.3,2.2
		l-0.2,17.1c4.1,1.8,9.2,0.1,15.1-4.8c5.3-4.4,9.3-9.8,9.3-9.9c0.8-1.1,2.4-1.4,3.5-0.5c1.1,0.8,1.4,2.4,0.5,3.5
		c-0.2,0.2-4.3,5.9-10.1,10.7c-10.4,8.7-17.8,7.3-22.1,4.6c-0.7-0.5-1.2-1.3-1.2-2.1l0.1-13.9c-3,2-7.6,5-13,8.3c0,0.2,0,0.5,0,0.8
		c0,0.2-0.8,3.7-2.6,8.9c-1.7,4.6-4.5,11.4-8.8,17.4c-0.5,0.7-0.8,1.2-1,1.6c1.1,0,3.4-0.2,8.4-1.7c8-2.4,17.3-6.6,17.4-6.7
		c0.8-0.4,1.8-0.3,2.6,0.1c1,0.6,2.4,1.4,3.4,12.2c0.3,2.8,0.5,5.6,0.6,7.7c1.2-0.5,2.7-1.2,4.6-2.4c5.1-3.4,11.6-9.8,19.5-19.1
		c2.3-2.8,4.6-2.4,5.4-2c2,0.7,3.2,3,3.1,6.1c-0.1,5.2-3.1,11.6-7.9,17.3c-3.2,3.7-3.5,5.8-3.2,6.3s1.8,1.1,4.8,0.8
		c7-0.8,17.5-6.1,25.5-15.8c1.5-1.8,3-2.3,4.4-1.7c2.4,1,2,4.2,1.9,5.5c-0.3,3-1.5,7.5-3.2,12.1c-0.4,1,0,1.8,0.4,2.3
		c0.5,0.5,1.5,1,2.6,0.8c7.3-2.1,14.3-5.7,20.8-10.7c9-6.8,16.7-16.2,23-28c0.4-0.7,1.1-1.2,2-1.3c0.8-0.1,1.6,0.3,2.2,0.9
		c0.1,0.1,5.2,6.3,11.5,12.2c11.2,10.6,15.8,10.8,16.9,10.6c1-0.2,3.9-0.6,3-7.9c-0.6-4.4-2.2-8.9-2.3-8.9c-0.4-1.2,0-2.5,1.1-3.1
		s2.5-0.3,3.2,0.7c0.1,0.1,5.8,8,12.4,15.4c10.3,11.7,14,13.3,15,13.6c0.3-0.8,1-4.3-1.8-15.6c-2.1-8.7-5.1-17.3-5.1-17.4
		c0-0.1-0.1-0.3-0.1-0.4c-0.2-1.1,0.2-2.2,1.1-2.8c2-1.4,3.9-0.4,17.4,8c4.1,2.5,8.7,5.4,13.1,8c13.4,7.8,17.6,8.5,18.7,8.5
		c0-0.4-0.2-1.2-0.8-2.6c-3.4-7.9-9.9-15.4-14.8-20.2c-5.3-5.4-9.9-8.8-9.9-8.9c-0.6-0.4-0.9-1.1-1-1.7
		c-12.7-6.9-21.5-12.3-21.6-12.4c-1.2-0.7-1.5-2.3-0.8-3.4c0.7-1.2,2.3-1.5,3.4-0.8c0.2,0.1,20.7,12.8,43.9,23.8
		c38.2,18,54.2,17.7,60.9,14.3c0.1-0.1,0.2-0.1,0.3-0.5c0.3-1.2,0.3-6.3-11.5-23.1c-8.2-11.7-17.9-23-18-23.1
		c-0.8-0.9-0.8-2.3,0-3.2s2.1-1.2,3.1-0.6c0.1,0.1,9.8,5.4,20.3,10.1c17,7.6,21.7,7.3,22.8,7c-0.3-1.1-2.2-5.1-14.5-15.6
		c-9.3-8-19.5-15.5-19.7-15.6c-1.1-0.8-1.3-2.2-0.7-3.3c0.7-1.1,2.1-1.5,3.3-0.9c0.2,0.1,22.8,11.4,46.3,21.2
		c44.6,18.9,50,15.1,50.5,14.6c1-1,1.1-2.6,0.4-4.7c-0.6-0.6-1.2-1.2-1.8-1.8c-2.1-2.4-3.5-5.2-4.4-8.3c-1.3-1.6-2.8-3.4-4.6-5.2
		c-7.9-8.4-17-15.7-17-15.8c-1-0.8-1.2-2.2-0.6-3.2c0.6-1.1,2-1.5,3.1-1c0.1,0,7.8,3.4,15.8,5.7c2.8,0.8,5.2,1.4,7.1,1.7
		c0.5-0.1,0.9,0,1.4,0.2c5.7,0.9,7.1-0.2,7.5-0.6C781.4,761.6,779,755.1,755.2,728.9z"/>
	<path fill="#53BC53" d="M616.8,559.4c-0.7-0.9-1.5-1.9-2.4-3c-1-1.2-2-2.4-3.1-3.6c3.1,1.6,6.4,3.2,9.9,4.9
		c-0.9,0.1-1.8,0.2-2.7,0.4C617.7,558.2,617.1,558.7,616.8,559.4z"/>
	<path fill="#53BC53" d="M767.8,772.6c-2.4-2.5-4.9-5-7.2-7.2c1.1,0.4,2.3,0.7,3.5,1.1c1.7,0.5,3.4,0.9,5.1,1.3
		c-0.6,1.6-1,3.3-1.2,5C768,772.7,767.9,772.7,767.8,772.6z"/>
	<path fill="#3A231A" d="M518.8,922.5h-31.5l-1-57.8c0-0.7-0.3-1.3-0.7-1.7c6.7-2.4,13-5.8,18.9-10.3c5.2-3.9,9.9-8.6,14.3-14.1
		V922.5z"/>
</g>
<g id="vs-secondary">
	<path fill="#FF5648" d="M698.9,566.4c2.7-1.4,5.7-2.2,8.5-2.2c4.6,0,9.2,1.9,12.5,5.2s5.2,7.8,5.2,12.5c0,3.2-0.9,6.3-2.5,9.1
		c-1.3,2.2-3.2,4.1-5.3,5.6c-3-3.1-5.8-6.2-8.4-9c-5.6-6.2-10.7-12.1-15-17.1C695.3,568.8,697,567.4,698.9,566.4z"/>
	<path fill="#FF5648" d="M295.6,594.8c-2.3-1.5-4.3-3.6-5.8-6.2c-1.5-2.6-2.2-5.5-2.2-8.5c0-4.6,1.9-9.2,5.2-12.5
		c3.3-3.3,7.8-5.2,12.5-5.2c3.9,0,7.6,1.2,10.6,3.5c2.6,1.9,4.7,4.6,5.9,7.6c-3.1,3-5.7,5.3-7.9,7L295.6,594.8L295.6,594.8z"/>
	<path fill="#FF5648" d="M805.8,776.7c-0.4,4.4-2.4,8.4-5.8,11.3c-3.2,2.8-7.6,4.3-11.8,3.9c-3.4-0.3-6.5-1.6-9.2-3.7
		c-1.1-2.8-3-5.9-5.7-9.3c-0.1-0.7-0.3-1.4-0.3-2.1c-0.3-2.8,0.1-5.5,1.3-8.1c5.3,0.7,9.9,0,11.8-3.7c0.5-1.1,0.8-2.6-0.5-5.5
		c2.4-0.7,5-0.7,7.5-0.1c3.3,0.8,6.4,2.6,8.8,5.3C804.7,768.1,806.2,772.4,805.8,776.7z"/>
	<path fill="#FF5648" d="M524.8,201.2c-2.4-3.2-5.9-5.4-9.9-6.1c-4-0.7-8.2,0.3-11.4,2.6c-3.2,2.4-5.4,5.9-6.1,9.9s0.3,8.2,2.6,11.4
		c2.4,3.2,5.9,5.4,9.9,6.1c0.8,0.1,1.7,0.2,2.5,0.2c3.2,0,6.3-1,8.9-2.9c3.2-2.4,5.4-5.9,6.1-9.9
		C528.2,208.6,527.2,204.5,524.8,201.2z"/>
	<path fill="#FF5648" d="M327.6,744.4c-2.4-3.5-3.4-7.8-2.6-12.1c0.8-4.2,3.3-8,6.8-10.4s7.8-3.4,12.1-2.6c2.3,0.4,4.3,1.3,6.3,2.7
		c1.9,1.3,3.4,3,4.5,4.8c0.2,0.4,0.6,0.7,1,0.9c-5.5,8-12,16.3-19.3,23.1C332.7,749.7,329.6,747.5,327.6,744.4z"/>
	<path fill="#FF5648" d="M441.2,460.4c-2.8,2.8-6.8,4.5-10.8,4.5s-8-1.6-10.8-4.5c-2.8-2.8-4.5-6.8-4.5-10.8s1.6-8,4.5-10.8
		c2.8-2.8,6.8-4.5,10.8-4.5s8,1.6,10.8,4.5c2.8,2.8,4.5,6.8,4.5,10.8S444.1,457.6,441.2,460.4z"/>
	<path fill="#FF5648" d="M539,477.3c4.1,0,7.8,1.6,10.6,4.5c2.9,2.9,4.5,6.7,4.5,10.6c0,4-1.6,7.9-4.5,10.6
		c-2.9,2.9-6.7,4.5-10.6,4.5c-4,0-7.9-1.6-10.6-4.5c-2.9-2.9-4.5-6.7-4.5-10.6c0-4,1.6-7.9,4.5-10.7
		C531.2,478.9,534.9,477.3,539,477.3z"/>
	<path fill="#FF5648" d="M474.4,351.1c-2.4,2.4-5.6,3.8-8.9,3.8c-3.4,0-6.6-1.4-8.9-3.8c-2.4-2.4-3.8-5.6-3.8-8.9
		c0-3.4,1.4-6.6,3.8-9c2.3-2.4,5.5-3.7,8.9-3.7s6.6,1.3,8.9,3.8c2.4,2.4,3.8,5.6,3.8,8.9C478.2,345.6,476.8,348.8,474.4,351.1z"/>
	<path fill="#FF5648" d="M505,649.6L505,649.6c0.7-4.2,3-8,6.4-10.4c2.7-2,6-3,9.3-3c0.9,0,1.7,0.1,2.6,0.2c4.2,0.7,8,3,10.4,6.4
		c2.5,3.4,3.5,7.6,2.8,11.9c-0.7,4.2-3,8-6.4,10.4c-3.4,2.5-7.6,3.5-11.9,2.8c-4.2-0.7-7.9-2.9-10.4-6.4
		C505.2,658,504.2,653.8,505,649.6z"/>
	<path fill="#FF5648" d="M668.9,702.2c0.3-2.2,1.1-4.4,2.3-6.4c9.2,4.3,15.6,4.9,19.1,1.6c0.5-0.5,0.8-1.1,0.8-1.8s-0.3-1.3-0.8-1.8
		c0,0-2.9-2.8-6.2-6.4c3.6-0.4,7.3,0.4,10.5,2.4c3.7,2.2,6.4,5.5,7.8,9.6c1.4,4.4,1,9.1-1.1,13.2c-2.1,4-5.7,7.1-10,8.4
		c-4.4,1.4-9.1,1-13.2-1.1c-4-2.1-7.1-5.7-8.5-10.1C668.7,707.3,668.5,704.8,668.9,702.2z"/>
</g>
<g id="vs-primary">
	<path fill="#FF9D00" d="M623.6,426.3c3.8,0.8,6.9,3,9.1,6.3c2.1,3.4,2.9,7.2,2.1,11c-0.7,3.2-2.4,6-4.9,8.1c-2-2.5-3.2-4-3.4-4.4
		l-11.6-17.9c-0.4-0.5-0.7-1.1-1-1.6C617,426.1,620.3,425.7,623.6,426.3z"/>
	<path fill="#FF9D00" d="M485.7,124.3c0.3-1.1-0.1-2.2-1-2.8l-10-6.5l-3.8-2.5l16.9-1.1c1.2-0.1,2.1-0.9,2.3-2.1l2.8-17l1.5-9.2
		l11.9,23.8c0.5,1,1.6,1.5,2.6,1.3l11.7-1.9l2.6-0.4l-9.3,7.5c-0.8,0.6-1.1,1.7-0.8,2.6l7.4,26.4l-17.9-13.2
		c-0.9-0.7-2.2-0.6-3.1,0.1l-20,16.5L485.7,124.3z"/>
	<path fill="#FF9D00" d="M423.4,304.2c-1.1-3.3-1-7.1,0.5-10.2c1.4-3.1,4.2-5.5,7.6-6.7c2.9-1,6-1,8.8-0.1c-5,10.4-9,18.4-11.8,23.7
		C426.1,309.3,424.3,307,423.4,304.2z"/>
	<path fill="#FF9D00" d="M225.2,800.2c-2.9,2.5-6.5,4.1-10.2,4.5c-4.9,0.6-9.8-0.8-13.7-3.9c-3.9-3.1-6.4-7.6-7-12.6
		c-0.6-4.8,0.8-9.7,3.9-13.8c3-3.9,7.4-6.3,12.6-6.9c3.8-0.4,7.7,0.3,11.1,2.2c3.2,1.7,6,4.6,7.8,8c0.1,0.2,0.2,0.4,0.4,0.5
		c-4.9,3.8-9.1,6.6-12.2,8.2c-2.4,1.3-5.4,2.9-4.4,5.6c1,2.5,3.8,2.2,9.5,1c2.1-0.4,4.8-1,7.8-1.8
		C229.9,794.6,227.9,797.8,225.2,800.2z"/>
	<path fill="#FF9D00" d="M506.8,787c-3.1,3.1-7.2,4.8-11.5,4.8c-4.4,0-8.5-1.7-11.5-4.8s-4.8-7.2-4.8-11.5s1.7-8.5,4.8-11.5
		c3.1-3.1,7.2-4.8,11.5-4.8c4.4,0,8.5,1.7,11.5,4.8s4.8,7.2,4.8,11.5S509.9,784,506.8,787z"/>
	<path fill="#FF9D00" d="M541.4,305.7c2.2-2.2,5.2-3.5,8.4-3.5s6.2,1.2,8.4,3.5c2.2,2.2,3.5,5.2,3.5,8.4s-1.2,6.2-3.5,8.4
		s-5.2,3.5-8.4,3.5s-6.2-1.2-8.4-3.5c-2.2-2.2-3.5-5.2-3.5-8.4S539.1,307.9,541.4,305.7z"/>
	<path fill="#FF9D00" d="M376.5,571.2c-2.5,0.6-4.8,1.8-6.7,3.5c-3.7,3-5.8,7.1-6.3,11.7c-0.4,4.6,0.9,9.1,3.9,12.7
		c3,3.6,7.1,5.8,11.6,6.2c4.6,0.4,9.1-0.9,12.7-3.9c3.2-2.8,5.3-6.6,5.9-10.8s-0.3-8.4-2.6-11.8c-0.1-0.1-0.2-0.3-0.2-0.4
		c-1.1,0.5-2.1,0.9-3.1,1.3c-5.5,2.1-9.4,3.1-9.5,3.1c-0.2,0-0.4,0.1-0.6,0.1c-0.9,0-1.7-0.5-2.1-1.2c-0.6-0.9-0.4-2.1,0.3-2.9
		c0,0,2.6-2.9,6.1-7.5h-0.1l0,0c-0.1,0-0.2,0-0.3,0c-0.1,0-0.2,0-0.3,0c-0.4,0.2-0.9,0.2-1.4,0.2
		C381.4,570.5,378.9,570.6,376.5,571.2z"/>
	<path fill="#FF9D00" d="M605.9,577.6c0.3-2.2,1.1-4.2,2.2-6.2c1.2,0.4,2.5,0.8,3.7,1c0.7,0.1,2,0.4,3.4,0.4c1.9,0,3.9-0.5,5-2.3
		s0.8-4.2-1.1-7.5c0.1,0,0.2,0,0.3,0c4.1-0.8,8.4-0.1,12.1,2.1c3.7,2.2,6.4,5.5,7.8,9.6c1.4,4.4,1,9.1-1.1,13.2
		c-2.1,4-5.7,7.1-10,8.4c-4.4,1.4-9.1,1-13.2-1.1c-4-2.1-7.1-5.7-8.5-10.1C605.7,582.7,605.5,580.2,605.9,577.6z"/>
</g>
<g id="vs-shade">
	<path opacity="0.4" enable-background="new    " d="M459.5,252c-4.5,9.6-3.8,9.3-6.4,13.8c-2.5,4.3-3.5,5.3-3.1,6.7
		c1.2,4.1,12.5,6.6,20.5,2.5c8.5-4.4,9.1-14.3,12.5-14c5.5,0.4,3.8,26.1,11.5,28c9.2,2.2,28.6-30.7,29.2-34c0-0.1,0.1-0.4,0.3-0.5
		c1.1-0.6,4.2,3.6,8,8c5.3,6.1,7.9,9.1,10,9c4.2-0.3,6.8-9.4,7.8-13.4c-8.9-6.8-17.9-13.7-26.8-20.5c-7.6,12.3-15.3,24.5-22.9,36.8
		c-2.5-11.9-5-23.9-7.5-35.8c-2.6,3.6-6.8,8.8-13.2,13.4c-5.4,3.9-10.6,6.2-14.5,7.5c2.7-9.3,5.3-18.5,8-27.8
		c-2.1,2.1-4.2,4.2-6.3,6.3C463.4,243.8,461,248.7,459.5,252z"/>
	<path opacity="0.4" enable-background="new    " d="M439,373.1c-0.1,1.2-0.7,7.6-6,11.9c-5,4.1-12.2,4.7-18.5,1.8
		c-0.3,0.9-1.3,3.4-4,5c-4,2.5-8.2,1-8.8,0.8c0.3-0.2,2.9-2.1,2.9-5.4c0.1-3.8-3.2-5.8-3.3-5.9c4-1.4,8.7-3.5,13.6-6.3
		c2.9-1.7,5.5-3.4,7.8-5.1c-0.1,0.8-0.4,4.8,2.1,7C427.8,379.4,434.3,378.6,439,373.1z"/>
	<path opacity="0.4" enable-background="new    " d="M478.3,373.8c4.4,9,5.2,14.5,5.1,18c0,0.9-0.2,4,1.4,5c1.5,0.9,3.5-0.8,5.3,0.3
		c1.4,0.8,1.6,2.8,1.8,3.5c0.9,6,9,18.1,14.5,17.8c4.7-0.3,8.5-9.8,9.8-15.8c1.6-7.6-0.3-12.7,3-15.3c2.2-1.7,5.3-1.2,7.6-0.6
		c-0.9-3.1-1.7-6.1-2.6-9.2c-1-0.7-2.5-2-3.8-4.1c-1.2-1.9-1.8-3.6-2.1-4.8c-1.9,3-3.7,6.4-5.4,10.3c-5,11.8-6.1,22.8-6.1,30.6
		c-2.5-3.4-5.3-7.9-7.7-13.5c-3-7.1-4.3-13.6-4.8-18.4c-0.8,1.1-1.7,2.3-2.5,3.5c-0.9,1.3-1.7,2.5-2.5,3.8c-0.1,0-0.4,0.1-0.6,0.1
		c-1,0-2.4-1-5.3-9c-0.6-1.7-1.4-4-2.2-6.8C480.1,370.7,479.2,372.2,478.3,373.8z"/>
	<path opacity="0.4" enable-background="new    " d="M527.3,387.5c-0.8,2.9-1.5,7.4,0.3,11.8c4.3,10.5,20.2,15.4,26.8,10.3
		c1.6-1.2,2.5-2.9,3-4.3c3.7,2.2,8.9,4.8,15.7,6.3c13.2,2.9,24.1-0.2,29.3-2c-1.9-5.7-3.7-11.4-5.6-17.1
		c-11.2-9.3-17.5-13.3-18.7-12.1c-1.4,1.3,3.2,8.8,13.6,22.6c-5.1,0.6-14.7,0.9-25.8-3c-12.3-4.4-20-11.9-23.6-15.8
		c1.1,2,2.5,5,3.8,8.6c1.4,4,2.3,6.7,1.3,7.6c-0.4,0.3-1.5,0.9-7.2-2.6C536.8,395.8,532.2,392.6,527.3,387.5z"/>
	<path opacity="0.4" enable-background="new    " d="M479.1,390.8c-0.6,13.2-8.4,22-15.4,22c-4.5,0-8.1-3.5-9.8-5.5
		c-2.3,2.2-5.5,5.1-9.7,8.2c-9.6,7.1-21,15.5-29.2,11.8c-1.7-0.8-5.7-3.2-7.8-12c1.3-7.6,2-11.7,2-11.7l0,0c0,0,6.8-3.1,12.3-5.7
		c2.6-1.2,6.3-2.9,10.8-5c-2.1,4.2-4.9,9-8.6,14c-2.9,3.8-5.8,7.1-8.5,9.8c6.8-1.4,15.9-4.1,25.8-9.4c11.6-6.2,19.7-13.6,24.8-19.1
		c-0.1,1.7-0.4,4.3-1.5,7.3c-1.2,3-2.8,5.2-4,6.6c2.2-0.2,5.9-0.9,9.9-3.1C475.1,396.3,477.8,392.7,479.1,390.8z"/>
	<path opacity="0.4" enable-background="new    " d="M447.6,530.5c-6.3,8.5-16.1,20.1-30.7,30.8c-13.2,9.7-25.8,15.4-35.2,18.8
		c5.8-6.2,13.6-16,19.8-29.5c5.9-12.7,8.4-24.1,9.5-32.3c-4.1,4.5-10.9,10.9-20.8,16.1c-9,4.8-17.3,6.9-23.1,7.9
		c3.7-7.1,7.4-14.2,11.1-21.3c-4.6,3-9.1,6.1-13.7,9.1c-4.9,6-9.8,12.1-14.7,18.1c2.6-1,5.3-1.6,6.6-0.4c1.2,1.2,0.1,2.8,0.9,4.2
		c3,4.6,24.1-4.2,26.6-5.3c4.1-1.7,7.4-3.4,9.6-4.5c-4.5,8.2-9.1,16.4-13.6,24.5c1.1,0.2,2.2,0.5,3.4,0.8c2,0.5,3.9,1.1,5.7,1.7
		c-2.4,3.6-4.9,7.3-7.3,10.9c5.9-1.4,11.8-2.7,17.7-4.1c0.4,1.8,0.9,3.6,1.3,5.4c5.7-1.6,13.3-4.6,20.9-10.2
		C440.5,557.4,446,537.3,447.6,530.5z"/>
	<path opacity="0.4" enable-background="new    " d="M466,547.2c-6.3,24.3-6,42.6,1.3,46c1.6,0.7,6.9,2.4,18.8-8
		c-0.3,2.8-1,11.3,4.5,18.8c1.4,1.9,6.4,8.9,12.3,8.3c3.8-0.4,6.9-4.2,13.2-11.7c1.7-2.1,3.1-4,4-5.3c2.2,1.3,5.3,2.8,9.3,4.1
		c1.6,0.5,2.1,0.6,2.5,0.6c4.7,0.1,9.2-5.5,10.5-10.7c1.2-4.7-0.2-8.7-1-10.5c3.3,1.5,5.8,1.4,7.5,1.1c8.1-1.6,14.5-13.3,14.7-29.1
		c-2,0.2-4,0.4-6,0.6c-0.4,2.7-1.1,6.5-3,10.9c-2,4.6-3.4,8.1-5.9,8.7c-3.8,1-9.5-4.7-14-13.8c0,6.8-0.1,13.6-0.2,20.4
		c-0.1,4.1-0.1,8.1-0.2,12.1c-0.5,1-1.6,2.9-3.3,3.1c-1.5,0.2-2.9-1.2-5.3-4.1c-1.8-2.2-4.1-5.1-6.8-8.7c-6.1,6-8.5,10.9-9.4,14.3
		c-0.3,0.9-1.2,4.4-4.2,7.1c-0.9,0.8-2.5,2.2-4.1,1.9c-2.1-0.4-3.1-3.5-3.7-5.7c-2.6-9.4-4-28.1-4.4-33.7c-3.8,5.8-7.4,10.1-10.2,13
		c-6,6.5-7.9,6.6-8.8,6.3c-1.6-0.7-1.8-3.5-1.9-4.6C471.7,572.5,469.9,562.8,466,547.2z"/>
	<path opacity="0.4" enable-background="new    " d="M575.7,540.3c-2.6,1.1-1.9,11,1.3,18.7c5.8,14.2,19.5,21,26.4,23.8
		c-0.2-1.5-0.4-4,0.2-7c0.6-2.9,1.8-5.1,2.7-6.4c-3.5-2.9-8.7-7.6-14.6-13.7C581.7,545.3,578,539.4,575.7,540.3z"/>
	<path opacity="0.4" enable-background="new    " d="M660.7,533.5c7,10,14,20,20.9,30.1c-19.1-12.2-24.2-15.4-24.3-15.3
		c-0.1,0.1,7.4,3.6,11.3,11.3c2.5,5,4.4,13.3,0.7,17.7c-4.3,5.2-16.4,5.1-27.5-3.4c-2.3-4.3-4.5-8.5-6.8-12.8
		c19.6,9.9,23.8,8.7,25,7.2c2-2.5-2.8-8.7-11.8-24.7c-5.4-9.5-9.4-17.5-11.9-22.6c3.5,2.8,8.2,5.9,14,8.7
		C654.1,531.4,657.6,532.7,660.7,533.5z"/>
	<path opacity="0.4" enable-background="new    " d="M298.7,698.4c6.6-4.1,13.2-7.5,14.9-5.7c1.5,1.5-1.5,5.5,0,7.3
		c1.4,1.8,6.4,1.4,20.3-5.3c-0.2,3.7,0.1,10.9,4.3,13.7c5.8,3.7,18.4-1.3,28.9-15.5c-2.8,0.2-6.7,0.8-11.2,2.3
		c-3.5,1.1-5.3,2.1-6.3,1.3c-2.2-1.9,3.1-9.4,0.8-11.7c-1.8-1.8-6.4,1.6-14.5,2.7c-4.9,0.7-9,0.2-11.6-0.3
		c16.2-13.4,18.6-17.3,17.8-18.5c-0.7-1-4.1-0.1-26.8,8.5c-7.2,2.7-13.1,5-17.1,6.6C298.5,688.6,298.6,693.5,298.7,698.4z"/>
	<path opacity="0.4" enable-background="new    " d="M328,764.7c0.5,2.6,6.4,4,9,4.3c8.2,1.1,14.4-3.9,15.7-5c0.7,2.3,2.1,5,4.7,6.7
		c9.9,6.5,29.5-7.5,37.7-13.3c7.8-5.6,13.7-11.3,18-16c-0.1,6.8,1.1,10.8,3.7,12c5.2,2.4,16-7.1,32.3-28.7
		c-10.2,4.5-16.5,9.6-20.5,13.6c-1.5,1.5-3,3.1-4.2,2.8c-3.1-1-1.3-15,0.9-27.1c-5.2,4.4-13.3,11.4-23.2,20.1
		c-23.4,20.6-32.1,29.1-35.3,27c-1.5-1-2.3-4.6,2.2-17.3C334.1,755.8,327.4,761.6,328,764.7z"/>
	<path opacity="0.4" enable-background="new    " d="M464.3,692.7c-1.8,6.4-3.9,17.4,0,29.3c1.7,5.4,3.4,10.5,7,11.3
		c8.6,2,17.5-22.3,26.3-20.3c3,0.7,3.5,3.8,7.3,10.7c5.2,9.5,16.9,26.9,23.3,25.3c6.9-1.7,7.1-24.9,12.7-25c0.9,0,1.5,0.6,5,1.3
		c2.7,0.6,4.5,0.9,5.3,0.7c1.4-0.4,3.8-3.8-0.7-31.7c0.4,2.4,2.9,16.9-1.3,18.7c-2,0.8-5.1-1.4-6.6-2.5c-5.3-3.9-6-8.9-7.4-8.8
		c-3.6,0.2-1.3,32.1-7.6,34c-3.5,1-11-6.9-27.9-43.4c-7.7,9.3-15.4,18.5-23.1,27.8C472.6,710.9,468.4,701.8,464.3,692.7z"/>
	<path opacity="0.4" enable-background="new    " d="M567.2,670.1c0,5.2,0.7,20.4,11.8,32.9c3.4,3.8,12.5,14.1,25.3,13.7
		c3.6-0.1,6.6-1.1,8.5-1.9c4.7,4.8,12.1,11.3,22.5,16.9c10.7,5.8,21.1,11.4,28,7c6.8-4.4,6.4-16,6.2-19.2c-0.6-0.5-7-6.5-5.8-15.1
		c0.8-5.8,4.4-9.3,5.6-10.3c7.9,4,14.3,5.1,15.7,3c1.8-2.6-4.4-9.8-5-10.4c1.3-0.7,3.4-1.7,6-1.9c2.2-0.1,7,0.1,15.9,8.2
		c8.9,8,8.2,11.6,13.4,14.1c3.4,1.6,9,2.7,18.4-1c-1.5-4.4-4.6-11.8-11.6-18.1c-1.5-1.3-5.1-4.4-18.8-9.7
		c-14.5-5.6-27.9-10.8-31.3-6.5c-2.8,3.6,3.7,10.9,0.7,14.3c-3,3.3-12-0.4-16-2c-6.1-2.5-15.5-7.4-25-17.5
		c3.6,7.4,6.8,13.8,9.4,18.8c10.3,20.3,15.4,30.5,16.9,32.4s3,3.6,2.4,4.5c-1.5,2.4-18.2-5-29.7-11.8c-8.1-4.8-18.8-12.4-29.7-24.3
		c1.2,1.7,9.1,12.9,6.3,15.9c-2.5,2.8-12.9-2.9-17.5-5.8C583.9,692.5,574.6,685,567.2,670.1z"/>
	<path opacity="0.4" enable-background="new    " d="M497.6,851.4c-3.5,5.6,2.2,14.3,5,20.3c4.5,9.6,7.4,25.3-1.2,50.8
		c6.6,0,13.2,0.1,19.9,0.1c0-30,0-60.1,0-90.1c-1.8,3-4.9,7.2-9.8,10.7C504.6,848.1,499.9,847.6,497.6,851.4z"/>
	<path opacity="0.4" fill="#FFFFFF" enable-background="new    " d="M502.2,140.7c-4.4,32.9-8.8,65.8-13.2,98.7
		c-4.2,3.9-8.3,7.8-12.5,11.8c6.5-17.1,13.5-43.3,10.2-74.6c-0.9-8.2-2.4-15.7-4.1-22.5C489,149.6,495.6,145.1,502.2,140.7z"/>
	<path opacity="0.4" fill="#FFFFFF" enable-background="new    " d="M486.6,291c-5.6,0.9-3.6,16.4-10.7,39.1
		c-7.9,25.2-20.6,38.9-16.6,42.7c2.5,2.3,9.4-1.1,12.4-3c14.3-8.9,2.5-27.5,16-50.4c4.2-7.1,9.2-12.1,7.7-19
		C494.4,295.5,490,290.4,486.6,291z"/>
	<path opacity="0.4" fill="#FFFFFF" enable-background="new    " d="M468.3,420.1c-10.1,13-7.6,25.2-11.9,42.1
		c-2.1,8.4-3.2,7.1-14.8,31.4c-4.8,10.1-11.6,24.8-19,43.3c15.1-12.5,24.3-25.2,29.6-33.8c9.6-15.6,13.3-30.4,20.7-59.8
		c6.6-26.4,4.7-29.1,3.6-29.6C474.2,412.6,469.3,418.8,468.3,420.1z"/>
	<path opacity="0.4" fill="#FFFFFF" enable-background="new    " d="M553.6,427.2c-4.4,8.6,3.2,20.3,8.3,27.9
		c20.8,31.1,42.9,61,59.3,82.4c-6-16.2-11.8-29.1-16-37.9c-11.4-23.9-19-34.5-23.1-53.9c-2.4-11.6-2.6-21.4-2.4-27.9
		C575.7,417.7,558.5,417.6,553.6,427.2z"/>
	<path opacity="0.4" fill="#FFFFFF" enable-background="new    " d="M444,595.5c-21.6,1.5-34.8,37.8-39.1,49.8
		c-4.9,13.6-2.5,13.5-8.3,29c-8.1,21.8-18.5,37.2-16.6,38.5c1.8,1.2,11.5-11.7,14.2-10.1c2.9,1.8-6.1,18.5-3.6,20.1
		s16-10.8,25.5-28.4c12-22.3,4.6-28.9,14.8-49.2c12.7-25.2,33.3-33.3,29.6-42.7C458.5,597.4,450.2,595.1,444,595.5z"/>
	<path opacity="0.4" fill="#FFFFFF" enable-background="new    " d="M575.5,590.8c-4.3,8.5,1.7,19.1,10.7,34.4
		c31.1,52.9,33.1,55.7,34.4,55.1c1.7-0.8-0.4-6.6-11.3-46.8c-9.8-36.6-12.9-49.7-20.7-51C583.4,581.7,577.9,586.2,575.5,590.8z"/>
	<path opacity="0.4" fill="#FFFFFF" enable-background="new    " d="M572,737.7c-1.4,11.2,16.2,21.6,31.4,31.4
		c44.2,28.6,59.2,47.3,62.8,43.8c2.7-2.5-6.9-11.1-26.7-48c-1.6-2.9-11.3-21.1-27.3-35.6c-2.4-2.2-6.7-5.8-13-7.1
		c-1-0.2-13.5-2.6-21.9,5.9C576.2,729.4,572.5,733.1,572,737.7z"/>
</g>
<g id="vs-outline_1_">
	
		<path id="path60_1_" fill="none" stroke="#000000" stroke-width="10" stroke-linecap="round" stroke-linejoin="round" stroke-miterlimit="10" d="
		M433.8,236.8c3,0.2,6-0.4,8.8-1.4s5.3-2.3,7.5-3.6c2.1-1.3,3.8-2.4,4.9-3.1c1.1-0.6,1.6-0.7,1.4,0.2l-2.5,4.3l-2.6,4.4l-2.6,4.3
		l-2.5,4.3c3.7-0.6,7.2-1.8,10.4-3.3c3.2-1.5,6.1-3.2,8.5-4.9s4.4-3.3,5.7-4.5c1.4-1.2,2.1-1.9,2.1-1.9l-2,6.9l-2,6.9l-2,6.9l-2,7
		c2.7,0.5,5.8-0.7,8.8-2.8c3-2.1,6.1-5,8.8-8s5.1-6.1,6.8-8.4c1.7-2.3,2.8-3.9,2.8-3.9l2,9.5l2,9.5l2,9.5l2,9.5c0,0,1.4-2.5,3.6-6.3
		s5.1-8.8,8.1-13.7c3-4.9,6-9.7,8.4-13.2s4.1-5.5,4.5-4.8c0,0,1.1,1.4,2.7,3.4s3.8,4.7,5.9,7.4s4.3,5.3,6,7.2s2.8,3,2.9,2.7
		l-1.2-5.3l-1.1-5.3l-1.1-5.3l-1.2-5.3c0.3-0.9,1.8-0.4,3.7,0.7c2,1.1,4.5,2.7,7.2,4.3s5.4,3.1,7.8,3.8c2.4,0.7,4.5,0.7,5.8-0.8
		l-1-3.6l-1-3.6l-1-3.6l-1-3.6c0,0,0.9,0.6,2.4,1.5s3.5,2,5.7,3.1s4.6,2.1,6.7,2.8s4,0.9,5.2,0.4c0,0-4.9-6.4-12.2-16.1
		c-7.3-9.7-17.1-22.6-26.8-35.5c-9.8-12.9-19.6-26-27.1-35.9s-12.5-16.7-12.7-17.1l-16.4,26l-16.4,26l-16.4,26L433.8,236.8z"/>
	
		<path id="path62_1_" fill="none" stroke="#000000" stroke-width="10" stroke-linecap="round" stroke-linejoin="round" stroke-miterlimit="10" d="
		M466,237.7c0,0-1.8,3.8-4.5,9.9c-2.8,6-6.5,14.3-10.6,23c-4.1,8.8-8.5,18-12.5,26.2s-7.5,15.1-9.9,19.3
		c-5.5,9.6-12.6,18.2-20.1,25.9c-7.5,7.6-15.5,14.2-22.9,19.6c-7.3,5.4-13.9,9.6-18.7,12.4c-4.8,2.9-7.8,4.4-7.8,4.4
		c3.3,0.9,6.8,1,10.2,0.7c3.4-0.3,6.8-1.1,9.7-1.9c2.9-0.8,5.4-1.7,7.2-2.3c1.7-0.6,2.6-0.9,2.4-0.6l-3,2.8l-3.1,2.8l-3.1,2.8
		l-3,2.8c8.1,0,15.4-1.3,21.7-3.2s11.7-4.4,16-6.8s7.4-4.5,9.5-5.9c2-1.4,3-2.3,3-2.3l-1.5,2.9l-1.4,2.9l-1.4,2.9l-1.5,2.9
		c3-0.2,5.6-0.6,7.9-1.2s4.2-1.2,5.8-1.9c1.6-0.6,2.7-1.3,3.5-1.8s1.2-0.8,1.2-0.8"/>
	
		<path id="path64_1_" fill="none" stroke="#000000" stroke-width="10" stroke-linecap="round" stroke-linejoin="round" stroke-miterlimit="10" d="
		M405.2,380c-0.5,1.8-0.5,3.5-0.5,5.3s-0.1,3.7-1,6s-2.6,5-5.9,8.3s-8.1,7.2-15.2,11.9c6-0.5,11.6-1.6,16.9-3c5.2-1.4,10-3.2,14.3-5
		c4.3-1.9,8-3.8,11.1-5.6s5.6-3.5,7.4-4.9c-0.4,2.5-1.6,5.3-3.3,8s-3.7,5.4-5.8,7.7s-4,4.4-5.5,5.8s-2.5,2.3-2.5,2.3
		c8-1.4,15-3.9,21-6.9s11.1-6.3,15.3-9.5c4.1-3.2,7.4-6.2,9.9-8.5c2.4-2.2,4-3.7,4.8-3.7c0,0,0,0.4-0.1,1.2
		c-0.1,0.8-0.3,1.8-0.6,3.1s-0.9,2.8-1.7,4.5c-0.8,1.6-1.9,3.4-3.3,5.1c3.3-0.4,6.1-1.2,8.4-2.4s4.3-2.5,5.8-3.9s2.6-2.6,3.4-3.6
		s1.1-1.5,1.1-1.5"/>
	
		<path id="path66_1_" fill="none" stroke="#000000" stroke-width="10" stroke-linecap="round" stroke-linejoin="round" stroke-miterlimit="10" d="
		M545.8,241.5c0,4.4,1.6,10.5,4.3,17.3s6.5,14.6,10.7,22.3s8.8,15.4,13.2,22.3s8.6,12.9,12,17.3c1.7,2.2,6,6.4,11.5,11.6
		s12.3,11.3,18.8,17.4s12.8,12.2,17.5,17.2s7.7,8.9,7.7,10.7c-4.5,0.9-8.7,1-12.8,0.5s-8-1.4-11.8-2.4c-3.9-1-7.7-2.1-11.6-2.8
		c-3.9-0.7-7.8-1.1-11.8-0.6c0,0.2,2,2,4.9,4.6s6.8,6,10.7,9.4s7.6,6.9,10.3,9.5s4.3,4.4,3.9,4.6c-3.5,1.5-7.3,1.4-11,0.3
		s-7.6-3-11.4-5.4s-7.5-5.2-11-7.9c-3.5-2.7-6.8-5.3-9.8-7.2c-0.3-0.3-0.7-0.3-1.1-0.3c-0.3,0.1-0.7,0.2-0.9,0.5s-0.5,0.6-0.5,0.9
		c-0.1,0.4-0.1,0.7,0.1,1.1c1,2.3,2,4.1,3,5.7s2.1,3,3.2,4.5c1.1,1.5,2.3,2.9,3.6,4.6s2.7,3.5,4.2,5.8c-6.2,1.6-12.4,1.1-18.2-0.4
		s-11.3-4.2-16-7s-8.6-5.9-11.4-8.2c-2.8-2.3-4.4-3.9-4.4-3.8c0.3,0.9,1,2.1,1.7,3.5s1.6,3,2.3,4.7c0.8,1.6,1.4,3.3,1.7,4.8
		s0.4,2.8,0,3.8c-1.9,0-3.7-0.6-5.4-1.4s-3.3-2.1-4.8-3.4s-3-2.7-4.5-4s-2.9-2.4-4.3-3.2"/>
	
		<path id="path68_1_" fill="none" stroke="#000000" stroke-width="10" stroke-linecap="round" stroke-linejoin="round" stroke-miterlimit="10" d="
		M480.8,369.2c0,0,0.3,1,0.9,2.5c0.5,1.5,1.2,3.6,2,5.6s1.7,4,2.6,5.5s1.9,2.4,2.6,2.2c0,0,0.3-0.5,0.8-1.2s1.1-1.7,1.7-2.6
		s1.3-1.9,1.8-2.6s0.8-1.1,0.8-1c-0.1,1,0.3,3.5,1.1,6.6c0.8,3.1,1.9,6.8,3.2,10.4s2.8,7.2,4.2,9.9c1.4,2.7,2.8,4.6,4,5
		c0.6-1.9,1.2-5.2,1.8-9s1.3-8.2,2.2-12.5s1.8-8.6,3.1-12c1.2-3.5,2.7-6.2,4.4-7.4c0.3,1,0.8,2,1.2,3s0.9,1.9,1.4,2.9
		s1.1,1.9,1.7,2.7c0.6,0.9,1.3,1.7,2,2.5c0.4-0.1,0.8-0.5,1.3-1.2s0.9-1.6,1.3-2.5s0.8-1.9,1.1-2.6c0.3-0.8,0.5-1.4,0.5-1.6"/>
	
		<path id="path70_1_" fill="none" stroke="#000000" stroke-width="10" stroke-linecap="round" stroke-linejoin="round" stroke-miterlimit="10" d="
		M410.2,404.7L410.2,404.7L410.2,404.7L410.2,404.7L410.2,404.7c-6.5,10.5-14.6,21.9-23.5,33.2s-18.8,22.6-28.6,32.9
		s-19.6,19.6-28.7,27.1c-9,7.5-17.2,13.1-23.7,16.1c-0.3,0.1-0.4,0.2-0.4,0.2s0,0,0.1-0.1c0,0,0.1,0,0.2,0s0.1,0,0.1,0
		s1.7,0.4,4.5,0.8s6.7,0.7,11.2,0.5s9.6-0.9,14.7-2.5c5.1-1.6,10.3-4.3,15-8.3s7.3-5.8,8.7-6.2c1.4-0.4,1.4,0.6,0.8,2.1
		c-0.6,1.6-2,3.7-3.2,5.6c-1.3,1.9-2.6,3.6-3.2,4.2l-8.3,8.6l-8.3,8.5l-8.2,8.5l-8.2,8.5c-0.2,0.3-0.3,0.5-0.3,0.7s0.1,0.5,0.2,0.7
		s0.4,0.4,0.6,0.4c0.2,0.1,0.5,0,0.7-0.1c0,0,2.4-0.7,6.2-2c3.8-1.3,9.1-3.1,14.9-5.4s12-5.1,17.9-8.2s11.4-6.6,15.5-10.3
		c0.2-0.2,0.4-0.2,0.6-0.2s0.4,0,0.5,0.1s0.3,0.3,0.3,0.5s0,0.4-0.2,0.6l-2.9,5.3l-2.9,5.4l-2.9,5.4l-2.9,5.3
		c6.2-0.7,12.1-2.5,17.4-4.8s10.1-5.3,14.1-8.2s7.2-5.6,9.4-7.7c2.2-2.1,3.5-3.4,3.5-3.4c-0.2,7.4-2.1,15-4.9,22.1s-6.4,14-10,19.9
		s-7.2,10.8-9.9,14.3c-2.7,3.5-4.5,5.5-4.5,5.5s1-0.2,2.6-0.7s3.9-1.2,6.6-2.3s5.8-2.4,9.1-4.2s6.7-3.8,10-6.3l2.9-2.3l2.9-2.3
		l2.9-2.3l2.9-2.3c2.4-2,4.9-4,7.2-6c2.3-2.1,4.6-4.3,6.8-6.6c2.2-2.3,4.3-4.6,6.3-7s3.9-4.9,5.7-7.5l0,0l0,0l0,0l0,0"/>
	
		<path id="path72_1_" fill="none" stroke="#000000" stroke-width="10" stroke-linecap="round" stroke-linejoin="round" stroke-miterlimit="10" d="
		M466,547.2c0,0,0.3,1.8,0.8,4.5s1.2,6.5,2,10.5s1.6,8.1,2.4,11.7s1.5,6.5,2,8c0.6,1.8,2.1,1.5,4.1,0.1s4.4-3.9,6.8-6.6
		c2.4-2.7,4.6-5.6,6.3-7.9c1.7-2.3,2.7-3.8,2.7-3.8s0.1,3,0.5,7.3s0.9,10,1.7,15.3s2,10.5,3.5,13.7s3.5,4.5,5.9,2.4l3.4-5.9l3.5-5.8
		l3.5-5.8l3.5-5.8c0,0,0.3,0.4,0.8,1c0.5,0.7,1.2,1.6,2.1,2.8s1.9,2.5,3,3.9s2.3,2.9,3.5,4.4c0.5,0.7,1.2,1.1,1.9,1.3
		s1.5,0.1,2.2-0.1c0.7-0.3,1.3-0.7,1.7-1.3s0.7-1.3,0.7-2.2l0.1-8l0.1-8v-8v-8c0,0,0.3,0.6,0.9,1.5c0.6,1,1.4,2.3,2.5,3.8
		s2.3,3.1,3.7,4.7s2.9,3,4.5,4.2s3.1,0.6,4.5-1.1c1.3-1.7,2.5-4.3,3.5-7.1s1.8-5.8,2.4-8c0.6-2.3,0.9-3.8,0.9-3.8"/>
	
		<path id="path74_1_" fill="none" stroke="#000000" stroke-width="10" stroke-linecap="round" stroke-linejoin="round" stroke-miterlimit="10" d="
		M577.9,539.1c0,0,0.9,1.7,2.6,4.3s4.2,6.1,7.3,9.7s6.8,7.3,10.9,10.4s8.7,5.5,13.6,6.5s6.4-0.2,6-2.5s-2.8-5.8-5.8-9.4
		s-6.6-7.3-9.5-10.2c-2.8-2.8-5-4.8-5-4.8s3.8,2.2,9.6,5.2s13.5,6.9,21.3,10.3c7.8,3.5,15.6,6.6,21.7,8s10.2,1,10.6-2.3
		c0,0-2.6-4-6.2-9.6s-8.3-13-12.4-19.9s-7.8-13.1-9.4-16.6c-1.6-3.5-1.2-4.1,2.8,0.2c4,4.4,9.1,8,14.6,10.8c5.4,2.9,11.2,5,16.4,6.6
		s10,2.7,13.4,3.3c3.4,0.7,5.6,0.9,5.6,0.9c-5-4.7-9.4-9.5-13.2-13.8s-6.9-8.3-9.2-11.5c-2.3-3.1-3.6-5.5-3.9-6.5s0.6-0.9,2.8,1
		l6.8,2l6.9,2l6.9,2l6.8,2c0.5,0.1,1,0.1,1.4-0.1s0.7-0.5,0.8-0.9s0.2-0.8,0.1-1.3c-0.1-0.4-0.3-0.8-0.8-1c-9-5.8-17.6-12.8-25.6-20
		s-15.2-14.7-21.4-21.4s-11.2-12.7-14.7-17s-5.4-6.9-5.4-6.9l-2.9-4.5l-2.9-4.5l-2.9-4.5l-2.9-4.5c-1.8-2.7-3.3-5.5-4.8-8.3
		s-2.8-5.7-4-8.6s-2.3-5.9-3.2-9s-1.7-6.2-2.4-9.4l0,0l0,0l0,0l0,0l0,0v0.1v0.1l0,0"/>
	
		<path id="path76_1_" fill="none" stroke="#000000" stroke-width="10" stroke-linecap="round" stroke-linejoin="round" stroke-miterlimit="10" d="
		M363.3,529.9c0,0-2,2.5-5.3,6.5s-7.8,9.4-12.8,15.2s-10.5,12-15.7,17.5s-10.2,10.3-14.1,13.4L302,593l-13.4,10.5L275.2,614
		l-13.5,10.5c4.9,2.1,10.6,2.3,16.5,1.5c5.9-0.9,11.9-2.9,17.3-5.2s10.2-4.9,13.7-6.9s5.6-3.4,5.6-3.4s-0.7,1.4-1.9,3.6
		c-1.1,2.2-2.7,5.2-4.5,8.5s-3.9,6.9-5.9,10.3c-2.1,3.4-4.1,6.5-5.9,8.9c-0.1,0.2-0.1,0.3-0.1,0.4c0,0.1,0.1,0.3,0.2,0.4
		c0.1,0.1,0.2,0.2,0.4,0.2c0.1,0,0.3,0,0.4,0l7.6-4.8l7.6-4.9l7.6-4.9l7.6-4.8c0.8-0.3,1.5-0.3,2.2-0.1s1.3,0.6,1.7,1.2
		s0.7,1.2,0.8,1.9c0.1,0.7-0.1,1.4-0.5,2c-4.8,7-12.1,15.1-20.1,23s-16.4,15.8-23.4,22.5c-7,6.6-12.5,12-14.4,15.1s-0.3,3.9,7,1.2
		l16-6.1l16-6.2l16-6.2l15.9-6.2l-5.6,5.8L334,677l-5.5,5.8l-5.6,5.9c4.3,0.1,8.3-0.2,11.8-0.9s6.6-1.6,9.1-2.5s4.5-1.9,5.9-2.6
		c1.4-0.7,2.1-1.2,2.1-1.2s-0.6,1.5-1.5,3.7s-2,5-2.9,7.7s-1.6,5.3-1.6,6.9s0.5,2.3,2.1,1.2c2.7-1.8,5.3-3.5,7.6-4.9
		s4.4-2.5,6.2-3.4s3.2-1.6,4.2-2s1.5-0.7,1.5-0.7"/>
	
		<path id="path78_1_" fill="none" stroke="#000000" stroke-width="10" stroke-linecap="round" stroke-linejoin="round" stroke-miterlimit="10" d="
		M378,693.6c0,0-1.1,2.5-3.2,6.6s-5.1,9.8-8.9,16.1s-8.3,13.3-13.4,20s-10.7,13.1-16.6,18.3c-6.4,5.6-7.3,7.5-5.1,7.2
		c2.2-0.3,7.6-2.7,13.8-5.7c6.1-3,13-6.7,18.3-9.4s8.6-3.7,8.6-3.7l-1.7,4.2l-1.7,4.1l-1.7,4.1l-1.7,4.2c0,0.3,0,0.5,0,0.7
		s0.1,0.4,0.3,0.6s0.3,0.3,0.6,0.3c0.2,0,0.4,0,0.6-0.2l5.3-3.5l5.3-3.5l5.2-3.5l5.2-3.5c2.1-1.4,4.1-2.8,6.1-4.3s3.9-3,5.7-4.6
		c1.9-1.6,3.8-3.2,5.5-4.9c1.8-1.7,3.6-3.4,5.3-5.2l3.2-3.4l3.2-3.4l3.2-3.4l3.2-3.4c0.4-0.4,0.9-0.6,1.3-0.7s0.9,0,1.4,0.2
		c0.4,0.2,0.8,0.5,1.1,0.9c0.3,0.4,0.4,0.9,0.3,1.5c-0.2,1.9-0.8,4.2-1.5,6.7s-1.5,5.1-2.2,7.7c-0.6,2.5-1,4.9-1,6.8
		c0.1,1.9,0.6,3.5,2,4.3c1.2,0.6,3.3-0.3,5.8-2.1s5.4-4.4,8.1-7.1c2.8-2.7,5.4-5.5,7.3-7.6s3.1-3.6,3.1-3.6"/>
	
		<path id="path80_1_" fill="none" stroke="#000000" stroke-width="10" stroke-linecap="round" stroke-linejoin="round" stroke-miterlimit="10" d="
		M548.7,690l0.3,5.3l0.3,5.4l0.3,5.4l0.3,5.3c0,0.7-0.1,1.2-0.4,1.7s-0.8,0.8-1.3,1s-1.1,0.3-1.6,0.1s-1.1-0.4-1.5-0.9l-2.5-2.9
		l-2.5-2.9l-2.5-2.9l-2.5-2.9l-1.3,7.6l-1.4,7.6l-1.3,7.5L530,732c-0.2,1-0.7,1.8-1.3,2.4c-0.6,0.6-1.4,1-2.3,1.1s-1.7,0-2.5-0.4
		s-1.5-1-1.9-1.9l-5.3-10.6l-5.3-10.6l-5.3-10.5l-5.3-10.5l-6,7.4l-6,7.4l-6,7.4l-6,7.4c-0.4,0.5-0.9,0.8-1.4,0.9s-1,0-1.4-0.2
		s-0.8-0.5-1.1-1s-0.3-1-0.2-1.6l-1.6-6.6l-1.6-6.7l-1.6-6.7l-1.6-6.7"/>
	
		<path id="path82_1_" fill="none" stroke="#000000" stroke-width="10" stroke-linecap="round" stroke-linejoin="round" stroke-miterlimit="10" d="
		M569.3,668.8c0,0,1.2,2,3.2,5s4.9,7.1,8.2,11.3s7,8.3,10.9,11.6s7.7,5.6,11.3,6s5-0.7,5.2-2.5c0.2-1.9-1-4.6-2.5-7.3
		s-3.6-5.5-5.3-7.6s-2.9-3.5-2.9-3.5s2.7,2.5,6.9,6.2c4.2,3.8,9.9,8.8,16,13.9c6,5.1,12.4,10.3,17.9,14.2s10.1,6.8,12.6,7.3
		s4.5,0.6,6.1,0.5c1.5-0.2,2.6-0.7,3.2-1.4s0.8-1.6,0.7-2.7c-0.2-1.1-0.7-2.4-1.4-3.8l-7.3-13l-7.3-13l-7.3-12.9l-7.3-12.9
		c0,0,3,2.6,7.6,6.3s10.9,8.5,17.5,13s13.5,8.7,19.5,11.2s10.9,3.2,13.6,0.7c0,0-1.5-1.4-3.5-3.5c-2.1-2.1-4.8-5-7.3-8
		c-2.5-2.9-4.8-5.8-6-8.1s-1.4-3.9,0.2-4.2s6.2,0.8,12,2.6s12.9,4.2,19.8,6.7s13.6,5,18.6,7c5,1.9,8.2,3.2,8.2,3.2
		c0.5,0.2,1,0.1,1.4,0c0.4-0.2,0.7-0.5,0.9-0.9s0.3-0.8,0.3-1.2s-0.2-0.8-0.5-1.2l-9.3-10.9L714,666l-9.3-10.9l-9.3-10.9
		c0,0,4.5,2.2,11,5.2s15,6.8,23.1,10.1s15.7,6.2,20.3,7.2c4.7,1,6.4,0.3,2.6-3.7l-6.7-8l-6.7-8l-6.8-7.9l-6.8-7.9
		c0,0,4.3,1.8,10.3,4.2s13.7,5.4,20.3,7.7s12.1,3.9,13.8,3.6s-0.4-2.6-8.9-8.1c-8.6-5.5-18-13.4-27.4-22.2S715,598,706.9,589.1
		s-15.2-17.2-20.2-23.3c-5-6-8-9.8-8-9.8c-2.4-2.3-4.4-4.2-6.2-6s-3.4-3.4-4.9-5.1s-2.9-3.5-4.4-5.5s-3-4.4-4.7-7.2"/>
	
		<path id="path84_1_" fill="none" stroke="#000000" stroke-width="10" stroke-linecap="round" stroke-linejoin="round" stroke-miterlimit="10" d="
		M299.9,685.2l0.2-0.2l0.2-0.2l0.3-0.1l0.3-0.2l0,0l0,0l0,0l0,0c0.4,9.3-3.4,19.8-9.5,30.6c-6.1,10.7-14.6,21.7-23.8,31.7
		s-18.9,19.3-27.5,26.6s-16.2,12.8-20.9,15.2c-4.7,2.5-3.9,3.1-0.1,2.5c3.9-0.6,10.8-2.2,18.3-4.2c7.4-2,15.5-4.2,21.7-6
		c6.2-1.8,10.6-3.1,10.6-3.1s-0.4,0.6-1.1,1.7c-0.7,1-1.6,2.5-2.6,4.1s-2.2,3.5-3.4,5.4s-2.3,3.8-3.2,5.4c-1,1.7,0.5,1.2,3.2-0.4
		s6.8-4.5,10.9-7.6s8.4-6.3,11.6-8.8c3.3-2.5,5.5-4.3,5.5-4.3c0.8-0.5,0.5,1.3-0.5,4.5s-2.6,7.6-4.7,12.4s-4.6,9.9-7.2,14.4
		s-5.3,8.2-7.8,10.3c-2.5,2.2,1.3,1,8.3-2.2c7-3.1,17.3-8,27.9-13.3s21.5-10.7,29.8-14.9s13.9-7,13.9-7s0.2,0.7,0.3,1.8
		s0.3,2.9,0.2,5.1s-0.4,4.7-1.1,7.6c-0.7,2.9-1.8,6.1-3.5,9.6c-1.7,3.4-0.4,4.2,2.6,3.5s7.6-2.9,12.5-5.5s9.9-5.7,13.7-8.1
		c3.8-2.4,6.5-4.1,6.5-4.1l-8.1,7.8l-8.1,7.8l-8.1,7.8l-8,7.8c-0.6,0.7-1.3,1.3-2,2.1c-0.6,0.7-1.3,1.5-1.8,2.2
		c-0.5,0.8-1,1.6-1.2,2.5c-0.3,0.9-0.4,1.7-0.3,2.6c0.5,4.4,5.3,4.6,12.4,2.4s16.3-6.7,25.5-11.8s18.4-10.8,25.2-15.1
		s11.4-7.5,11.4-7.5v4.6l-0.1,4.7l-0.1,4.7v4.6c3.2,2,6.6,2.1,9.9,1.1s6.5-3.1,9.3-5.5s5.2-4.9,7-6.9s2.8-3.4,2.8-3.4"/>
	
		<path id="path86_1_" fill="none" stroke="#000000" stroke-width="10" stroke-linecap="round" stroke-linejoin="round" stroke-miterlimit="10" d="
		M724.3,690l0.8,1.5l0.8,1.5l0.9,1.5l0.8,1.5c0,0,3.8,3.8,9.3,9.5s12.9,13.5,20.2,21.5s14.4,16.2,19.5,22.9s8.2,11.9,7.2,13.9
		s-3.7,2.6-7.1,2.5c-3.5-0.2-7.7-1.2-11.9-2.4s-8.2-2.7-11.2-3.8c-3-1.2-4.9-2-4.9-2s2.3,1.8,5.6,4.8c3.3,2.9,7.6,6.9,11.7,11.2
		s7.8,8.9,10,13.1c2.1,4.2,2.7,7.9,0.3,10.3s-9.7,1.5-19.5-1.4c-9.8-2.8-21.9-7.6-33.8-12.6c-11.9-5-23.5-10.3-32.1-14.4
		c-8.6-4.1-14.3-6.9-14.3-6.9s2.6,1.9,6.3,4.8c3.8,2.9,8.7,6.8,13.5,10.9c4.8,4,9.3,8.3,12.2,11.8s4.2,6.4,2.4,7.6
		c-1.6,1.2-5.4,0.8-10-0.6c-4.6-1.3-10.2-3.6-15.6-6c-5.4-2.4-10.5-5-14.3-6.9s-6.2-3.3-6.2-3.3s2.4,2.9,5.9,7.2s8,10.2,12.2,16.1
		s8.1,12.1,10.3,17.1s2.6,8.8,0,10.1c-6.3,3.2-16.2,2.4-27.5-0.6c-11.2-3-23.8-8.2-35.6-13.7c-11.8-5.6-22.8-11.6-30.9-16.2
		s-13.2-7.8-13.2-7.8"/>
	
		<path id="path88_1_" fill="none" stroke="#000000" stroke-width="10" stroke-linecap="round" stroke-linejoin="round" stroke-miterlimit="10" d="
		M608.9,807.3c0,0,1.2,0.9,3,2.5c1.9,1.6,4.4,3.8,7.2,6.6s5.7,6,8.4,9.6s5.2,7.5,6.9,11.4c2.3,5.5,0.4,6.8-3.8,5.8
		c-4.3-1-10.8-4.5-17.7-8.5s-14-8.5-19.3-11.8c-5.3-3.2-8.9-5.2-8.7-4c0,0,0.8,2.2,1.8,5.5s2.3,7.7,3.4,12.1s2,9,2.2,12.4
		c0.2,3.5-0.4,5.9-2.1,6.3s-4.4-1.3-7.6-4.1c-3.1-2.7-6.7-6.5-10-10.3s-6.5-7.7-8.8-10.7c-2.3-2.9-3.7-4.9-3.7-4.9s0.5,1.2,1,3
		s1.1,4.1,1.4,6.5c0.3,2.5,0.3,4.9-0.4,6.9s-2.1,3.4-4.6,3.8c-2.5,0.5-5.6-0.8-9-2.9s-6.9-5.2-10.1-8.3c-3.3-3-6.2-6.2-8.3-8.5
		s-3.4-3.9-3.4-3.9c-3.6,6.8-7.5,12.4-11.5,17.2s-8.1,8.6-12.2,11.6c-4,3.1-8,5.5-11.7,7.2c-3.7,1.8-7.1,3-10,3.9
		c-1,0.3-1.9,0.2-2.8-0.1s-1.6-0.7-2.2-1.3s-1-1.4-1.2-2.2c-0.2-0.9-0.1-1.8,0.2-2.7c0.8-2.1,1.5-4.3,2-6.3s0.9-3.8,1.1-5.2
		s0.1-2.4-0.2-2.8c-0.3-0.4-0.9-0.2-1.7,0.8c-4.2,5.1-9.1,9.1-13.9,11.9c-4.8,2.8-9.5,4.4-13.2,4.8s-6.4-0.3-7.4-2.2s-0.1-4.9,3.5-9
		c2.6-3.1,4.5-6.2,5.6-8.9s1.6-5.1,1.7-6.9s-0.4-3.1-1.2-3.6c-0.8-0.5-1.8-0.2-2.9,1.2c-4.8,5.7-8.8,9.9-12,13s-5.9,5.2-8,6.6
		s-3.7,2.2-5.1,2.7c-1.3,0.5-2.3,0.8-3.2,1.3c0,0-0.1-1.4-0.2-3.5s-0.3-4.9-0.6-7.6s-0.6-5.5-1-7.4s-0.9-3.1-1.5-2.9
		c0,0-2.4,1.1-5.8,2.5s-7.8,3.1-11.9,4.3s-7.9,2.1-10.1,1.7c-2.1-0.4-2.6-1.9-0.1-5.4c1.9-2.8,3.6-5.7,5-8.6
		c1.4-2.9,2.6-5.7,3.5-8.2s1.5-4.6,1.9-6.1s0.6-2.4,0.6-2.4"/>
	
		<path id="path90_1_" fill="none" stroke="#000000" stroke-width="10" stroke-linecap="round" stroke-linejoin="round" stroke-miterlimit="10" d="
		M483.8,864.7l0.3,15l0.3,15l0.3,15.1l0.3,15.1h9.1h9.1h9.2h9.1c0,0,0-5.7,0-14.4s0-20.2,0-31.8s0-23.2,0-31.8s0-14.5,0-14.5"/>
	
		<path id="circle92_1_" fill="none" stroke="#000000" stroke-width="10" stroke-linecap="round" stroke-linejoin="round" stroke-miterlimit="10" d="
		M495.3,756.7c2.6,0,5.1,0.5,7.3,1.5s4.3,2.3,6,4s3.1,3.7,4,6c0.9,2.3,1.5,4.7,1.5,7.3s-0.5,5.1-1.5,7.3c-1,2.3-2.3,4.3-4,6
		s-3.7,3.1-6,4s-4.7,1.5-7.3,1.5s-5.1-0.5-7.3-1.5s-4.3-2.3-6-4s-3.1-3.7-4-6c-1-2.3-1.5-4.7-1.5-7.3s0.5-5.1,1.5-7.3
		c0.9-2.3,2.3-4.3,4-6s3.7-3.1,6-4S492.7,756.7,495.3,756.7z"/>
	
		<path id="path94_1_" fill="none" stroke="#000000" stroke-width="10" stroke-linecap="round" stroke-linejoin="round" stroke-miterlimit="10" d="
		M337.4,753.6c-2.6-0.5-4.9-1.5-6.9-2.8s-3.7-3-5-5c-1.4-2-2.3-4.2-2.9-6.5s-0.6-4.9-0.1-7.5c0.5-2.5,1.5-4.8,2.8-6.9s3-3.8,5-5.1
		s4.2-2.3,6.5-2.9c2.4-0.5,4.9-0.6,7.5-0.1c1.4,0.3,2.7,0.6,3.9,1.2s2.3,1.2,3.4,1.9s2,1.6,2.9,2.5s1.6,2,2.3,3.1"/>
	
		<path id="path96_1_" fill="none" stroke="#000000" stroke-width="10" stroke-linecap="round" stroke-linejoin="round" stroke-miterlimit="10" d="
		M294.2,596.9c-1.4-0.9-2.6-2-3.8-3.2s-2-2.5-2.9-3.9c-0.8-1.5-1.4-3-1.9-4.6s-0.6-3.3-0.6-5.1c0-2.8,0.6-5.4,1.6-7.8
		c1-2.4,2.5-4.6,4.3-6.5c1.9-1.8,4-3.3,6.4-4.3s5.1-1.6,7.9-1.6c2.3,0,4.5,0.4,6.5,1.1s3.9,1.7,5.6,2.9c1.7,1.3,3.2,2.8,4.4,4.5
		c1.2,1.7,2.2,3.7,2.9,5.7"/>
	
		<path id="path98_1_" fill="none" stroke="#000000" stroke-width="10" stroke-linecap="round" stroke-linejoin="round" stroke-miterlimit="10" d="
		M690.6,570.6c0.9-1.3,2-2.6,3.2-3.7s2.5-2,3.9-2.8s3-1.4,4.6-1.8c1.6-0.4,3.4-0.7,5.1-0.7c2.8,0,5.4,0.6,7.8,1.6
		c2.4,1,4.6,2.5,6.5,4.3c1.8,1.8,3.3,4,4.3,6.4s1.6,5.1,1.6,7.9c0,2-0.3,3.8-0.8,5.5s-1.2,3.4-2.1,4.9s-2,2.9-3.3,4.1
		c-1.3,1.2-2.7,2.3-4.2,3.1"/>
	
		<path id="path100_1_" fill="none" stroke="#000000" stroke-width="10" stroke-linecap="round" stroke-linejoin="round" stroke-miterlimit="10" d="
		M682,685.1c2.5-0.5,4.9-0.5,7.3-0.1s4.6,1.3,6.7,2.5c2,1.2,3.9,2.8,5.4,4.6s2.7,4,3.5,6.4c0.8,2.6,1,5.3,0.8,7.8s-1,5-2.1,7.3
		s-2.8,4.3-4.7,5.9s-4.3,3-6.8,3.8c-2.6,0.8-5.3,1-7.8,0.8s-5-1-7.3-2.1s-4.3-2.8-5.9-4.7c-1.7-2-3-4.3-3.8-6.8
		c-0.5-1.5-0.8-2.9-0.9-4.3c-0.1-1.5-0.1-2.9,0.1-4.4c0.2-1.4,0.5-2.8,1-4c0.5-1.3,1.1-2.6,1.9-3.8"/>
	
		<path id="path102_1_" fill="none" stroke="#000000" stroke-width="10" stroke-linecap="round" stroke-linejoin="round" stroke-miterlimit="10" d="
		M619,560.5c2.5-0.5,4.9-0.5,7.3-0.1s4.6,1.3,6.7,2.5c2,1.2,3.9,2.8,5.4,4.6s2.7,4,3.5,6.4c0.8,2.6,1,5.3,0.8,7.8s-1,5-2.1,7.3
		s-2.8,4.3-4.7,5.9s-4.3,3-6.8,3.8c-2.6,0.8-5.3,1-7.8,0.8s-5-1-7.3-2.1s-4.3-2.8-5.9-4.7c-1.7-2-3-4.3-3.8-6.8
		c-0.5-1.5-0.8-2.9-0.9-4.3c-0.1-1.5-0.1-2.9,0.1-4.4c0.2-1.4,0.5-2.8,1-4c0.5-1.3,1.1-2.6,1.9-3.8"/>
	
		<path id="path104_1_" fill="none" stroke="#000000" stroke-width="10" stroke-linecap="round" stroke-linejoin="round" stroke-miterlimit="10" d="
		M397.2,577.2c1.4,2,2.3,4.3,2.8,6.6s0.5,4.7,0.2,7c-0.4,2.4-1.1,4.6-2.2,6.7c-1.1,2.1-2.7,4-4.6,5.7c-2.1,1.8-4.5,3-6.9,3.8
		s-5,1-7.6,0.8c-2.5-0.3-5-1-7.2-2.2s-4.3-2.8-6.1-4.9c-1.8-2.1-3-4.5-3.8-6.9c-0.8-2.5-1-5-0.8-7.6s1-5,2.2-7.3s2.8-4.3,4.9-6
		c1.1-1,2.4-1.8,3.7-2.5c1.3-0.7,2.7-1.2,4-1.5c1.4-0.3,2.8-0.5,4.2-0.6c1.4-0.1,2.8,0,4.2,0.3"/>
	
		<path id="circle106_1_" fill="none" stroke="#000000" stroke-width="10" stroke-linecap="round" stroke-linejoin="round" stroke-miterlimit="10" d="
		M430.4,431.8c2.4,0,4.8,0.5,6.9,1.4s4.1,2.2,5.7,3.8s2.9,3.5,3.8,5.7c0.9,2.1,1.4,4.5,1.4,6.9s-0.5,4.8-1.4,6.9s-2.2,4.1-3.8,5.7
		s-3.5,2.9-5.7,3.8c-2.1,0.9-4.5,1.4-6.9,1.4s-4.8-0.5-6.9-1.4s-4.1-2.2-5.7-3.8s-2.9-3.5-3.8-5.7c-0.9-2.1-1.4-4.5-1.4-6.9
		s0.5-4.8,1.4-6.9s2.2-4.1,3.8-5.7s3.5-2.9,5.7-3.8C425.6,432.3,428,431.8,430.4,431.8z"/>
	
		<path id="circle108_1_" fill="none" stroke="#000000" stroke-width="10" stroke-linecap="round" stroke-linejoin="round" stroke-miterlimit="10" d="
		M539,474.8c2.5,0,4.8,0.5,6.9,1.4s4,2.2,5.5,3.8c1.6,1.6,2.9,3.5,3.8,5.6c0.9,2.1,1.4,4.4,1.4,6.8s-0.5,4.7-1.4,6.8
		c-0.9,2.1-2.2,4-3.8,5.6s-3.5,2.9-5.6,3.8s-4.4,1.4-6.8,1.4s-4.7-0.5-6.8-1.4s-4-2.2-5.6-3.8c-1.6-1.6-2.9-3.5-3.8-5.6
		c-0.9-2.1-1.4-4.4-1.4-6.8s0.5-4.7,1.4-6.8c0.9-2.1,2.2-4,3.8-5.6s3.4-2.9,5.5-3.8S536.5,474.8,539,474.8z"/>
	
		<path id="path110_1_" fill="none" stroke="#000000" stroke-width="10" stroke-linecap="round" stroke-linejoin="round" stroke-miterlimit="10" d="
		M429,314.1c-2-0.9-3.7-2.3-5-3.8c-1.3-1.6-2.3-3.4-3-5.3c-0.6-1.9-1-4-0.9-6c0.1-2.1,0.6-4.1,1.5-6.1s2.2-3.6,3.8-5s3.4-2.4,5.3-3
		s4-0.9,6-0.9c2.1,0.1,4.1,0.6,6.1,1.5"/>
	
		<path id="circle112_1_" fill="none" stroke="#000000" stroke-width="10" stroke-linecap="round" stroke-linejoin="round" stroke-miterlimit="10" d="
		M465.5,327c2.1,0,4.1,0.4,5.9,1.2c1.8,0.8,3.4,1.9,4.8,3.3s2.5,3,3.3,4.9c0.8,1.8,1.2,3.8,1.2,5.8s-0.4,4-1.2,5.9
		c-0.8,1.8-1.9,3.5-3.3,4.8c-1.4,1.4-3,2.5-4.9,3.3c-1.8,0.8-3.8,1.2-5.8,1.2s-4-0.4-5.9-1.2c-1.8-0.8-3.5-1.9-4.8-3.3
		c-1.4-1.4-2.5-3-3.3-4.9c-0.8-1.8-1.2-3.8-1.2-5.8s0.4-4,1.2-5.9c0.8-1.8,1.9-3.5,3.3-4.8c1.4-1.4,3-2.5,4.8-3.3
		C461.4,327.4,463.4,327,465.5,327z"/>
	
		<path id="circle114_1_" fill="none" stroke="#000000" stroke-width="10" stroke-linecap="round" stroke-linejoin="round" stroke-miterlimit="10" d="
		M549.8,299.7c2,0,3.9,0.4,5.6,1.1c1.7,0.7,3.3,1.8,4.6,3.1c1.3,1.3,2.3,2.9,3.1,4.6c0.7,1.7,1.1,3.6,1.1,5.6s-0.4,3.9-1.1,5.6
		c-0.7,1.7-1.8,3.3-3.1,4.6c-1.3,1.3-2.8,2.4-4.6,3.1c-1.7,0.7-3.6,1.1-5.6,1.1s-3.9-0.4-5.6-1.1c-1.7-0.7-3.3-1.8-4.6-3.1
		c-1.3-1.3-2.3-2.9-3.1-4.6c-0.7-1.7-1.1-3.6-1.1-5.6s0.4-3.9,1.1-5.6c0.7-1.7,1.8-3.3,3.1-4.6c1.3-1.3,2.9-2.4,4.6-3.1
		C545.9,300.1,547.8,299.7,549.8,299.7z"/>
	
		<path id="path116_1_" fill="none" stroke="#000000" stroke-width="10" stroke-linecap="round" stroke-linejoin="round" stroke-miterlimit="10" d="
		M611.3,426.3c2-1.3,4.1-2.1,6.3-2.5s4.4-0.4,6.5,0.1s4.2,1.3,6,2.5s3.4,2.9,4.7,4.9s2.1,4.1,2.5,6.3c0.4,2.2,0.4,4.4-0.1,6.5
		s-1.3,4.1-2.5,6c-1.2,1.8-2.9,3.5-4.9,4.8"/>
	
		<path id="circle118_1_" fill="none" stroke="#000000" stroke-width="10" stroke-linecap="round" stroke-linejoin="round" stroke-miterlimit="10" d="
		M502.5,649.2c0.4-2.5,1.3-4.8,2.6-6.9c1.3-2,2.9-3.8,4.8-5.1c1.9-1.4,4.1-2.4,6.4-3s4.8-0.7,7.4-0.3c2.5,0.4,4.8,1.3,6.9,2.6
		c2,1.3,3.8,2.9,5.1,4.8c1.4,1.9,2.4,4.1,3,6.4c0.6,2.3,0.7,4.8,0.3,7.4c-0.4,2.5-1.3,4.8-2.6,6.9c-1.3,2-2.9,3.8-4.8,5.1
		c-1.9,1.4-4.1,2.4-6.4,3c-2.3,0.6-4.8,0.7-7.4,0.3s-4.9-1.3-6.9-2.6c-2-1.3-3.8-2.9-5.1-4.8c-1.5-2-2.5-4.2-3.1-6.5
		C502.1,654.2,502,651.7,502.5,649.2z"/>
	
		<path id="path120_1_" fill="none" stroke="#000000" stroke-width="10" stroke-linecap="round" stroke-linejoin="round" stroke-miterlimit="10" d="
		M772.9,765.9c-1,1.8-1.7,3.6-2.1,5.5c-0.4,1.9-0.5,3.8-0.3,5.8s0.6,3.9,1.4,5.7c0.7,1.8,1.8,3.5,3.1,5c1.8,2,3.8,3.5,6,4.7
		c2.2,1.1,4.6,1.8,7,1.9c2.4,0.2,4.8-0.1,7.2-0.8s4.6-2,6.5-3.7c2-1.8,3.5-3.8,4.7-6c1.1-2.2,1.7-4.6,1.9-7s-0.1-4.8-0.8-7.2
		s-2-4.6-3.7-6.5c-1.4-1.5-3-2.8-4.7-3.9c-1.7-1-3.5-1.8-5.4-2.2s-3.8-0.6-5.7-0.4c-1.9,0.2-3.8,0.6-5.6,1.4"/>
	
		<path id="path122_1_" fill="none" stroke="#000000" stroke-width="10" stroke-linecap="round" stroke-linejoin="round" stroke-miterlimit="10" d="
		M233.3,791.8c-0.6,2-1.4,3.9-2.5,5.6c-1.1,1.7-2.4,3.3-4,4.7s-3.3,2.5-5.3,3.4s-4,1.5-6.2,1.7c-2.9,0.3-5.7,0.1-8.4-0.7
		c-2.6-0.8-5.1-2-7.2-3.7s-3.9-3.8-5.3-6.2c-1.3-2.4-2.3-5.1-2.6-8.1c-0.3-2.9-0.1-5.7,0.7-8.4c0.8-2.6,2.1-5.1,3.7-7.2
		s3.7-4,6.2-5.3c2.4-1.4,5.2-2.3,8.1-2.6c2.3-0.3,4.5-0.1,6.6,0.3s4.1,1.2,6,2.2s3.6,2.3,5,3.8c1.5,1.5,2.8,3.3,3.8,5.2"/>
	
		<polygon id="polygon124_1_" fill="none" stroke="#000000" stroke-width="10" stroke-linecap="round" stroke-linejoin="round" stroke-miterlimit="10" points="
		501.1,131.3 494.5,136.7 488,142.1 481.5,147.5 474.9,152.9 477,145.6 479.1,138.3 481.2,130.9 483.3,123.6 478.3,120.3 
		473.3,117.1 468.3,113.8 463.3,110.5 469.4,110.1 475.5,109.7 481.5,109.3 487.6,108.9 489,100.4 490.4,91.9 491.8,83.4 493.1,75 
		497,82.7 500.8,90.4 504.6,98.1 508.5,105.8 514.3,104.9 520.2,103.9 526,103 531.8,102.1 527.8,105.4 523.7,108.8 519.6,112.1 
		515.5,115.4 517.8,123.8 520.2,132.1 522.6,140.5 524.9,148.8 519,144.5 513,140.1 507,135.7 	"/>
	
		<path id="circle126_1_" fill="none" stroke="#000000" stroke-width="10" stroke-linecap="round" stroke-linejoin="round" stroke-miterlimit="10" d="
		M499.9,208.1c0.3-1.8,0.9-3.4,1.8-4.8s2-2.6,3.3-3.6s2.8-1.7,4.4-2c1.6-0.4,3.3-0.5,5.1-0.2s3.3,0.9,4.8,1.8s2.6,2,3.5,3.3
		s1.7,2.8,2,4.4c0.4,1.6,0.5,3.3,0.2,5.1s-0.9,3.4-1.8,4.8s-2,2.6-3.3,3.6s-2.8,1.7-4.4,2c-1.6,0.4-3.3,0.5-5.1,0.2
		s-3.4-0.9-4.8-1.8s-2.6-2-3.5-3.3s-1.7-2.8-2-4.4C499.7,211.6,499.6,209.9,499.9,208.1z"/>
</g>
<g id="vs-reveal" opacity="0">
	
		<path id="path165" fill="none" stroke="#0000FF" stroke-width="50" stroke-linecap="round" stroke-linejoin="round" stroke-miterlimit="10" d="
		M493.8,89.9l4.4,5.4l4.4,5.4l4.3,5.4l4.4,5.4l4.4,5.4l4.3,5.4l4.4,5.4l4.3,5.4l-7.9-0.6l-7.9-0.6l-7.9-0.6l-7.9-0.6l-7.9-0.6
		l-7.9-0.6l-7.9-0.6l-7.9-0.6c8.4,8.5,16.2,16.5,23.5,24c7.3,7.5,14,14.5,20.2,21s11.8,12.5,16.8,18s9.5,10.5,13.5,15.1
		c3.9,4.5,7.3,8.6,10.2,12.1c2.8,3.5,5.1,6.6,6.8,9.1c1.7,2.5,2.9,4.6,3.5,6.1c0.6,1.6,0.7,2.6,0.2,3.2c-0.6,0.6-2.4,0-5-1.5
		c-2.7-1.5-6.3-3.9-10.5-7c-4.2-3-9-6.7-14.2-10.6c-5.1-3.9-10.6-8.2-16.1-12.4c-5.5-4.2-11-8.4-16.2-12.3
		c-5.2-3.9-10.1-7.5-14.5-10.4c-4.3-2.9-8.1-5.2-11-6.6c-2.9-1.3-4.9-1.7-5.8-0.9c-1.1,1.1-0.1,3.9,2.4,8.1
		c2.5,4.2,6.5,9.8,11.5,16.2c5,6.5,11,13.8,17.5,21.7c6.5,7.9,13.5,16.2,20.5,24.5c7,8.4,13.9,16.8,20.3,24.8
		c6.4,8,12.2,15.6,17,22.4c4.8,6.8,8.5,12.7,10.6,17.4s2.7,8.1,1.2,9.8c-0.8,0.9-2.1,1.3-3.9,1.3c-1.8,0-4.1-0.3-6.7-1.1
		c-2.7-0.7-5.7-1.8-9-3.3s-6.9-3.2-10.7-5.2c-3.8-2-7.8-4.3-11.9-6.9c-4.1-2.6-8.3-5.3-12.5-8.3c-4.2-3-8.5-6.2-12.6-9.6
		c-4.2-3.4-8.3-6.9-12.2-10.5c-3.6-3.3-6.9-6.6-10-9.9c-3.1-3.3-6-6.5-8.7-9.6c-2.7-3.1-5.2-6.1-7.5-9s-4.4-5.5-6.3-8
		s-3.6-4.7-5.2-6.6s-2.9-3.6-4.2-4.9c-1.2-1.3-2.3-2.3-3.2-2.8c-0.9-0.6-1.7-0.7-2.3-0.4c-0.7,0.4-1,1.2-0.9,2.5
		c0.1,1.3,0.5,3,1.1,5.1c0.6,2.1,1.5,4.5,2.4,7.3c1,2.8,2,5.9,3,9.3c1,3.4,2.1,7,3,10.9c0.9,3.9,1.7,8,2.2,12.3
		c0.5,4.3,0.8,8.7,0.7,13.3c-0.1,4.6-0.5,9.2-1.5,14c-1.2,6-3.1,11.6-5.4,16.9c-2.4,5.3-5.2,10.2-8.4,14.8s-6.6,8.8-10.2,12.7
		c-3.6,3.9-7.2,7.4-10.8,10.6c-3.6,3.2-7,6-10.2,8.5c-3.2,2.5-6.1,4.6-8.5,6.4c-2.4,1.8-4.4,3.2-5.7,4.2c-1.3,1.1-1.9,1.8-1.6,2.1
		c0.4,0.5,2.4-0.2,5.8-1.9s7.9-4.4,13.4-7.6c5.5-3.3,11.8-7.2,18.5-11.4c6.7-4.2,13.9-8.7,21.1-13.2c7.2-4.5,14.4-9,21.3-13.1
		s13.3-7.9,18.9-11c5.6-3.1,10.5-5.5,14.1-7c3.6-1.4,6-1.9,6.7-1c0.8,1-0.3,3.5-2.7,7.1s-6.3,8.4-11.1,13.9
		c-4.8,5.5-10.5,11.8-16.7,18.4c-6.2,6.6-12.9,13.6-19.6,20.5c-6.7,6.9-13.5,13.8-19.9,20.2s-12.3,12.4-17.4,17.5
		c-5.1,5.1-9.3,9.4-12.2,12.4c-2.9,3-4.5,4.9-4.4,5c0.1,0.1,1-0.6,2.5-2.1c1.6-1.5,3.8-3.7,6.8-6.5s6.6-6.1,10.8-9.8
		s9.2-7.8,14.7-12.2c5.5-4.3,11.6-8.9,18.3-13.5c6.7-4.6,14-9.2,21.8-13.7c7.8-4.5,16.2-8.9,25-13c8.9-4.1,18.2-7.9,28.1-11.2
		c0.5-0.2,1.8-0.6,3.4-1.1c1.7-0.5,3.9-1.2,6.4-2s5.3-1.6,8.3-2.4s6.2-1.6,9.3-2.4c3.2-0.7,6.3-1.4,9.3-1.9s5.8-0.8,8.3-0.9
		c2.5-0.1,4.7,0,6.4,0.4c1.7,0.4,2.9,1.2,3.5,2.3c0.6,1.2,0.4,2.9-0.5,4.8c-0.9,2-2.5,4.2-4.6,6.8c-2.2,2.5-4.9,5.3-8.1,8.3
		c-3.2,3-6.9,6.1-10.9,9.4c-4,3.3-8.4,6.6-12.9,10s-9.4,6.8-14.3,10.2c-4.9,3.4-9.9,6.7-14.9,9.9c-5,3.2-10,6.3-14.9,9.2
		c-10,6-19.7,11.3-29,16.1c-9.4,4.8-18.4,9-27,12.8c-8.6,3.8-16.7,7.1-24.3,10c-7.6,2.9-14.7,5.4-21.1,7.6
		c-6.4,2.2-12.2,4.1-17.3,5.7s-9.4,3-12.9,4.3s-6.2,2.3-8,3.3c-1.8,1-2.6,1.9-2.5,2.8c0.2,0.9,1.3,1.7,3.3,2.5c2,0.8,4.8,1.4,8.3,2
		c3.5,0.5,7.8,0.9,12.7,1.1c4.9,0.2,10.3,0.2,16.3-0.1s12.4-0.8,19.2-1.7s14-2,21.5-3.6c7.5-1.5,15.2-3.5,23-5.8s15.8-5.2,23.8-8.4
		c10.3-4.3,20-9,28.9-14.1c8.9-5.1,17.2-10.5,24.7-16c7.6-5.5,14.5-11.1,20.7-16.6c6.3-5.5,11.9-10.9,16.9-16
		c5-5.1,9.5-9.9,13.3-14.2s7.1-8.1,9.9-11.2c2.7-3.1,4.9-5.5,6.6-7c1.7-1.5,2.8-2.1,3.5-1.6c0.7,0.6,0.9,2.5,0.4,5.4
		c-0.5,3-1.6,7-3.3,11.8s-4.1,10.5-7.1,16.6c-3,6.2-6.6,12.9-11,19.9c-4.3,7-9.3,14.2-14.9,21.5s-12,14.5-19,21.5
		c-7,7-14.8,13.8-23.2,20S522.9,484.1,513,489c-10.9,5.4-21.8,9.5-32.7,12.5c-10.9,3-21.7,5-32.2,6.2c-10.5,1.2-20.8,1.6-30.6,1.4
		c-9.8-0.1-19.1-0.8-27.8-1.7c-8.7-0.9-16.7-2.1-23.8-3.3s-13.4-2.4-18.7-3.2c-5.3-0.9-9.5-1.5-12.4-1.6s-4.7,0.4-5,1.6
		c-0.3,1.1,0.7,2.8,2.6,4.9c2,2.1,5,4.6,8.9,7.2s8.8,5.5,14.4,8.4c5.6,2.9,12,5.7,19.1,8.4c7,2.7,14.7,5.1,22.9,7.2
		s16.8,3.8,25.9,4.9c9,1.1,18.4,1.7,28,1.4c9.6-0.2,19.4-1.2,29.4-3.2c11.7-2.3,22.6-5.8,32.7-10.1c10.1-4.3,19.5-9.4,28.2-14.9
		s16.6-11.6,23.9-17.8s13.9-12.5,19.9-18.5s11.3-11.9,16.1-17.2s9-10.1,12.6-13.9s6.7-6.8,9.3-8.5s4.7-2.2,6.3-1
		c1.4,1,2.3,3.1,2.7,6.2c0.3,3.1,0.1,7-0.7,11.7c-0.8,4.6-2.1,10-4.1,15.7c-1.9,5.8-4.4,12-7.5,18.4c-3.1,6.4-6.8,13.1-11.1,19.8
		s-9.2,13.3-14.7,19.7s-11.6,12.6-18.3,18.2c-6.7,5.7-14.1,10.9-22.1,15.4c-0.7,0.4-1.6,0.9-2.7,1.5c-1.2,0.6-2.6,1.3-4.3,2.1
		c-1.7,0.8-3.6,1.7-5.7,2.6c-2.1,0.9-4.5,1.9-7,2.8c-2.6,1-5.3,1.9-8.3,2.8s-6.1,1.8-9.5,2.6s-6.9,1.6-10.5,2.2
		c-3.7,0.6-7.5,1.2-11.5,1.6c-9,0.9-17.4,1-25.3,0.4c-7.9-0.5-15.3-1.7-22.3-3.2c-7-1.5-13.6-3.4-19.9-5.4s-12.3-4.2-18.2-6.3
		c-5.9-2.1-11.5-4.1-17.1-5.7c-5.6-1.7-11.2-3-16.8-3.8c-5.6-0.8-11.2-1-17-0.4s-11.7,1.9-18,4.3c-2.4,0.9-4.9,2-7.2,3.2
		c-2.4,1.2-4.6,2.4-6.8,3.8s-4.3,2.8-6.3,4.2s-3.8,3-5.4,4.5s-3.1,3-4.4,4.5s-2.3,3-3.2,4.4s-1.4,2.8-1.7,4.2s-0.3,2.6,0,3.7
		c0.4,1.3,1.1,2.4,2.3,3.3s2.7,1.7,4.6,2.3c1.9,0.6,4.2,1.1,6.9,1.5c2.6,0.4,5.7,0.7,9,1c3.3,0.3,7,0.5,11,0.7s8.3,0.4,13,0.6
		s9.6,0.5,14.8,0.8c5.2,0.3,10.7,0.7,16.5,1.2c11.8,1,22.2,2.2,31.6,3.6s17.6,2.9,25.1,4.4c7.4,1.6,14,3.1,20,4.7
		c6,1.5,11.3,3,16.2,4.3c4.9,1.3,9.5,2.5,13.8,3.4s8.6,1.5,12.8,1.8c4.3,0.3,8.6,0.2,13.2-0.3c4.6-0.5,9.5-1.5,14.9-3
		c4.6-1.3,8.9-2.8,13.2-4.5s8.3-3.7,12.2-5.7c3.9-2.1,7.6-4.3,11.3-6.7c3.6-2.4,7.1-4.9,10.4-7.4c3.3-2.6,6.6-5.2,9.7-7.9
		s6.1-5.4,9-8.1c2.9-2.7,5.7-5.5,8.4-8.1c2.7-2.7,5.3-5.3,7.8-7.9c2.8-2.8,5.5-5.7,8-8.5c2.5-2.8,5-5.7,7.3-8.4
		c2.3-2.8,4.5-5.6,6.6-8.3c2.1-2.7,4-5.4,5.9-8.1s3.6-5.2,5.3-7.8s3.2-5,4.7-7.4c1.5-2.4,2.8-4.7,4.1-6.9c1.3-2.2,2.5-4.4,3.6-6.4
		c1,1.5,2.1,3.2,3.2,5.2c1.2,2,2.4,4.1,3.6,6.5c1.2,2.3,2.4,4.9,3.5,7.5c1.1,2.7,2.2,5.4,3.1,8.3c0.9,2.9,1.7,5.9,2.2,8.9
		c0.6,3,0.9,6.2,1,9.3c0.1,3.1-0.1,6.3-0.6,9.4c-0.5,3.1-1.4,6.2-2.7,9.3c-0.5,1.3-1.1,2.5-1.7,3.6s-1.3,2.2-2,3.2
		c-0.7,1-1.4,2-2.2,2.9c-0.8,0.9-1.6,1.8-2.4,2.7c-0.8,0.9-1.7,1.7-2.6,2.5s-1.8,1.6-2.7,2.4s-1.9,1.6-2.8,2.3
		c-1,0.8-1.9,1.5-2.9,2.3c-8.8,6.9-16.3,12.9-22.8,18.1c-6.5,5.2-12,9.6-16.6,13.4s-8.4,6.9-11.5,9.4s-5.5,4.6-7.5,6.3
		s-3.4,2.9-4.5,3.9s-2,1.7-2.7,2.3s-1.3,1-2,1.4c-0.7,0.4-1.4,0.8-2.4,1.3c-5.8,2.9-11.6,5.4-17.4,7.5c-5.8,2.1-11.6,3.8-17.3,5.1
		s-11.5,2.4-17.2,3.1s-11.4,1.2-17,1.4c-5.6,0.2-11.2,0.2-16.7,0.1s-11-0.5-16.3-0.9c-5.4-0.4-10.6-0.9-15.8-1.5s-10.2-1.2-15.2-1.8
		c-2.3-0.3-4.5-0.6-6.8-0.9c-2.3-0.3-4.6-0.7-6.9-1.1c-2.4-0.4-4.8-0.9-7.3-1.4s-5.1-1.1-7.8-1.7c-2.7-0.6-5.6-1.3-8.6-2
		s-6.2-1.5-9.6-2.3c-3.4-0.8-7-1.7-10.8-2.6c-3.8-0.9-7.9-1.9-12.2-3c-9.7-2.4-18.5-4.7-26.7-6.9c-8.1-2.2-15.5-4.2-22.2-6.1
		s-12.7-3.7-18.1-5.3c-5.4-1.6-10.1-3-14.3-4.3c-4.2-1.2-7.8-2.3-10.9-3.1c-3.1-0.8-5.6-1.4-7.7-1.7c-2.1-0.3-3.7-0.4-4.9-0.2
		c-1.2,0.2-2,0.7-2.4,1.4c-0.6,1-0.5,2.4,0.1,4.2c0.6,1.8,1.9,4,3.6,6.4s4,5.1,6.7,8c2.7,2.9,5.9,6,9.5,9.1s7.6,6.4,11.9,9.7
		s9,6.6,14,9.8s10.3,6.3,15.8,9.3c5.5,3,11.3,5.7,17.2,8.3c5.3,2.3,10.5,4.2,15.7,5.9c5.2,1.7,10.3,3.1,15.4,4.3s10.2,2.2,15.3,2.9
		s10.3,1.3,15.5,1.7s10.5,0.7,15.9,0.8c5.4,0.1,10.9,0.1,16.6,0c5.7-0.1,11.5-0.3,17.5-0.5s12.2-0.5,18.6-0.8
		c9.2-0.4,17.8-0.8,26-1.3c8.2-0.4,15.9-0.9,23.2-1.5c7.3-0.5,14.3-1.2,20.8-1.9c6.6-0.8,12.8-1.6,18.8-2.7s11.6-2.3,17.1-3.8
		s10.7-3.2,15.7-5.3c5.1-2,10-4.3,14.8-7s9.5-5.6,14.1-9c6-4.4,11.6-9.2,16.8-14.2s9.9-10.2,14.2-15.4c4.4-5.2,8.3-10.5,12-15.6
		c3.6-5.1,6.9-10.1,9.9-14.8c3-4.7,5.7-9.1,8.1-13c2.4-3.9,4.5-7.3,6.5-10.1c1.9-2.8,3.6-4.9,5.1-6.2c1.5-1.3,2.8-1.8,3.9-1.2
		c0.7,0.3,1.2,1,1.5,2c0.3,1,0.5,2.2,0.5,3.7c0,1.5,0,3.3-0.1,5.3c-0.1,2-0.2,4.2-0.2,6.6c0,2.4,0,5,0.1,7.7
		c0.2,2.7,0.4,5.6,0.9,8.6c0.5,3,1.2,6.1,2.2,9.3s2.3,6.5,3.9,9.8c0.6,1.2,1.2,2.3,1.8,3.3c0.6,1.1,1.2,2.1,1.9,3.1
		c0.6,1,1.3,1.9,1.9,2.8s1.3,1.8,2,2.6s1.3,1.6,2,2.4s1.3,1.5,1.9,2.1c0.6,0.7,1.2,1.3,1.8,1.9c0.6,0.6,1.2,1.2,1.7,1.7
		c-1.6-0.2-3.3-0.4-5.1-0.5s-3.6-0.2-5.5-0.3c-1.9,0-3.9,0-5.9,0.1c-2,0.1-4,0.2-6.1,0.5s-4.2,0.6-6.3,1s-4.3,1-6.4,1.6
		s-4.3,1.5-6.4,2.4s-4.2,2-6.3,3.2c-2.3,1.3-4.4,2.8-6.3,4.2c-1.9,1.5-3.6,3-5.2,4.6c-1.6,1.6-3,3.2-4.3,4.9s-2.6,3.4-3.7,5.1
		s-2.2,3.5-3.3,5.2c-1.1,1.8-2.1,3.5-3.1,5.3s-2.1,3.5-3.1,5.2c-1.1,1.7-2.2,3.4-3.4,5.1c-2.5,3.5-5.2,6.5-8.2,9.3
		c-3,2.8-6.2,5.3-9.7,7.6c-3.5,2.3-7.3,4.3-11.3,6.1c-4.1,1.8-8.5,3.4-13.2,4.9c-4.7,1.5-9.8,2.8-15.2,4.1s-11.2,2.4-17.4,3.5
		c-6.2,1.1-12.8,2.2-19.8,3.3c-7,1.1-14.5,2.2-22.4,3.4c-6.7,1-13.2,2-19.5,2.9c-6.3,0.9-12.3,1.8-18.3,2.5
		c-5.9,0.8-11.7,1.4-17.4,1.9s-11.3,0.9-16.9,1.2s-11.1,0.4-16.7,0.3s-11.1-0.3-16.8-0.8c-5.7-0.5-11.4-1.1-17.3-2.1
		c-5.9-0.9-11.9-2.1-18.1-3.5c-7-1.6-13.8-3.4-20.3-5.4c-6.5-2-12.8-4.2-18.9-6.6s-11.9-4.8-17.4-7.4c-5.6-2.6-10.9-5.3-15.9-8
		c-5.1-2.8-9.9-5.6-14.5-8.4c-4.6-2.8-8.9-5.7-13-8.5c-4.1-2.8-7.9-5.6-11.5-8.3s-6.9-5.4-9.9-7.9c0,1.8,0,3.7,0.1,5.7
		s0.2,4.2,0.4,6.5c0.2,2.3,0.5,4.6,0.9,7.1s0.9,5,1.5,7.5c0.6,2.6,1.4,5.2,2.3,7.8s2,5.3,3.2,7.9s2.6,5.3,4.2,7.9
		c1.6,2.6,3.4,5.2,5.4,7.7c2.1,2.7,4.3,5.1,6.7,7.3c2.3,2.2,4.8,4.2,7.4,6.1c2.6,1.8,5.2,3.5,8,5c2.8,1.5,5.7,2.9,8.7,4.1
		c3,1.2,6.1,2.4,9.4,3.4c3.2,1,6.6,2,10,2.8c3.4,0.9,7,1.7,10.7,2.4c3.7,0.8,7.4,1.5,11.3,2.2c9.6,1.8,18.7,3.4,27.6,5
		c8.8,1.6,17.3,3,25.6,4.3s16.3,2.5,24.2,3.5c7.9,1,15.7,1.8,23.4,2.4c7.7,0.6,15.4,1,23.2,1.1c7.8,0.1,15.6,0,23.5-0.4
		c8-0.4,16.1-1.1,24.4-2.1c8.4-1,17-2.3,25.9-4c6.1-1.2,12.1-2.3,18.1-3.5c5.9-1.2,11.8-2.4,17.5-3.8c5.7-1.4,11.4-2.8,16.9-4.4
		c5.5-1.6,10.9-3.4,16.2-5.4s10.5-4.2,15.5-6.7s10-5.3,14.8-8.4c4.8-3.1,9.4-6.5,13.9-10.4s8.9-8,13.1-12.7c1.7-1.8,3.2-3.7,4.7-5.5
		s2.9-3.7,4.3-5.5c1.3-1.8,2.6-3.6,3.8-5.4c1.2-1.8,2.3-3.5,3.4-5.2c1.1-1.7,2-3.4,3-5c0.9-1.6,1.8-3.2,2.6-4.8s1.6-3.1,2.2-4.5
		c0.7-1.4,1.3-2.8,1.9-4.1c0.6,1.3,1.2,2.6,1.9,4.1c0.7,1.4,1.4,2.9,2.2,4.4c0.8,1.5,1.7,3.1,2.6,4.7s1.9,3.3,2.9,5s2.1,3.5,3.3,5.3
		c1.2,1.8,2.4,3.6,3.6,5.5s2.6,3.7,4,5.6s2.9,3.8,4.5,5.8c3.5,4.3,7.1,8.3,10.7,12s7.1,7.1,10.6,10.2c3.5,3.1,6.8,6,10.1,8.6
		c3.2,2.6,6.3,4.9,9.1,7s5.4,4,7.7,5.6s4.2,3.1,5.8,4.3s2.8,2.3,3.5,3.1s1,1.6,0.7,2.1c-0.3,0.7-1.4,1-3,1c-1.6,0-3.8-0.2-6.3-0.6
		c-2.6-0.4-5.5-1.1-8.7-1.8c-3.2-0.8-6.6-1.7-10.1-2.7c-3.5-1-7.1-2-10.5-3.1c-3.5-1.1-6.8-2.1-10-3.1c-3.1-1-6-1.9-8.5-2.7
		c-2.5-0.8-4.5-1.5-6-2c-2.4-0.8-4.7-1.6-7-2.3c-2.3-0.8-4.4-1.5-6.5-2.2c-2.1-0.7-4.1-1.3-6-1.9s-3.7-1.1-5.4-1.5
		c-1.7-0.4-3.3-0.7-4.8-0.9s-2.8-0.3-4-0.2s-2.2,0.2-3.1,0.6c-0.9,0.3-1.6,0.8-2.2,1.5c-0.5,0.7-0.8,1.4-0.9,2.1
		c-0.1,0.8-0.1,1.6,0.1,2.5s0.4,1.8,0.7,2.7c0.3,0.9,0.7,1.9,1.1,2.9c0.4,1,0.7,2,1.1,3c0.3,1,0.6,2,0.7,3c0.1,1,0.2,2,0.1,2.9
		s-0.4,1.9-0.9,2.8c-0.8,1.4-2.1,2.5-3.6,3.2c-1.5,0.8-3.4,1.2-5.4,1.5c-2,0.3-4.3,0.4-6.6,0.3c-2.3,0-4.7-0.2-7.1-0.4
		c-2.4-0.2-4.8-0.4-7-0.6c-2.2-0.2-4.3-0.3-6.2-0.2c-1.8,0-3.4,0.2-4.7,0.6c-1.2,0.4-2.1,1-2.6,1.9c-0.5,1-0.3,2.2,0.3,3.6
		c0.6,1.4,1.7,3,3.2,4.6c1.4,1.7,3.2,3.4,5.1,5.2c1.9,1.8,4,3.6,6.1,5.4c2.1,1.8,4.2,3.6,6.1,5.2c2,1.7,3.8,3.2,5.3,4.6
		c1.5,1.4,2.7,2.6,3.5,3.6c0.8,1,1.1,1.8,0.8,2.2c-0.4,0.7-1.9,0.6-4.4,0s-5.7-1.8-9.7-3.3c-3.9-1.5-8.4-3.4-13.3-5.4
		c-4.8-2-10-4.2-15.1-6.3s-10.4-4.2-15.3-6.1s-9.7-3.5-13.8-4.7c-4.2-1.2-7.8-1.9-10.6-2.1s-4.8,0.4-5.8,1.7
		c-0.5,0.8-0.6,1.8-0.4,2.9s0.8,2.5,1.6,3.9c0.8,1.4,1.8,3,2.9,4.6c1.1,1.6,2.3,3.3,3.5,5s2.4,3.4,3.5,5.1c1.1,1.7,2,3.3,2.7,4.9
		s1.2,3,1.3,4.4c0.1,1.3-0.1,2.5-0.7,3.6c-0.4,0.6-0.9,1-1.5,1.4c-0.6,0.4-1.4,0.6-2.4,0.8c-1,0.1-2.1,0.2-3.5,0.2
		c-1.4,0-3-0.2-4.9-0.4c-1.9-0.2-4-0.5-6.5-0.9s-5.3-0.9-8.4-1.4c-3.1-0.6-6.6-1.2-10.5-1.9s-8.2-1.5-12.9-2.3
		c-4.3-0.8-8.1-1.4-11.6-2c-3.5-0.6-6.6-1.1-9.5-1.5c-2.8-0.4-5.4-0.8-7.7-1.1c-2.3-0.3-4.3-0.5-6.2-0.7c-1.9-0.2-3.5-0.2-5.1-0.3
		c-1.5,0-2.9,0-4.3,0.1c-1.3,0.1-2.6,0.2-3.8,0.4c-1.2,0.2-2.5,0.5-3.7,0.8c-2.1,0.5-3.9,1-5.5,1.6c-1.6,0.6-3,1.2-4.2,1.8
		c-1.2,0.6-2.3,1.2-3.3,1.9s-1.9,1.3-2.8,1.9c-0.9,0.6-1.8,1.2-2.7,1.8s-1.9,1.1-3,1.6c-1.1,0.5-2.3,1-3.7,1.4
		c-1.4,0.4-2.9,0.8-4.7,1.1c-2.4,0.4-4.5,0.6-6.6,0.6c-2.1,0-4.1-0.2-6-0.5s-3.8-0.8-5.7-1.4c-1.9-0.6-3.8-1.3-5.7-2.1
		c-2-0.8-4-1.6-6.1-2.5c-2.1-0.9-4.4-1.9-6.8-2.8c-2.4-1-5-1.9-7.8-2.9c-2.8-1-5.8-1.9-9.1-2.8c-3.3-0.9-6.2-1.5-8.7-2
		c-2.6-0.5-4.8-0.7-6.8-0.9c-2-0.1-3.9-0.2-5.6-0.1c-1.7,0-3.3,0.1-4.9,0.3c-1.6,0.1-3.2,0.2-5,0.3s-3.5,0.1-5.6,0
		c-2-0.1-4.3-0.3-6.9-0.6s-5.4-0.9-8.7-1.6c-2.3-0.5-4.3-1-6.2-1.6s-3.6-1.1-5.4-1.8c-1.8-0.7-3.5-1.4-5.4-2.2
		c-1.9-0.8-3.9-1.8-6.1-2.9c-2.2-1.1-4.7-2.3-7.6-3.8s-6.1-3-9.9-4.9s-8-3.9-12.9-6.2c-4.9-2.3-10.4-4.8-16.6-7.7
		c-3.7-1.7-7.1-3.2-10.1-4.5c-3-1.3-5.7-2.5-8.1-3.5s-4.5-1.9-6.3-2.6c-1.8-0.7-3.4-1.3-4.8-1.8s-2.6-0.9-3.7-1.2
		c-1.1-0.3-2-0.6-2.8-0.7s-1.6-0.3-2.2-0.4s-1.3-0.2-2-0.2c-3.2-0.3-6.3-0.3-9.3-0.1s-6,0.6-8.9,1.1c-2.9,0.6-5.7,1.3-8.5,2.2
		s-5.4,1.9-7.9,3c-2.6,1.1-5,2.3-7.4,3.6s-4.6,2.6-6.7,4s-4.1,2.8-6,4.1c-1.9,1.4-3.6,2.7-5.3,4.1"/>
</g>
</svg>
