<?xml version="1.0" encoding="utf-8"?>
<!-- Generator: Adobe Illustrator 22.1.0, SVG Export Plug-In . SVG Version: 6.00 Build 0)  -->
<svg version="1.1"
	 id="Layer_1" xmlns:cc="http://creativecommons.org/ns#" xmlns:dc="http://purl.org/dc/elements/1.1/" xmlns:rdf="http://www.w3.org/1999/02/22-rdf-syntax-ns#" xmlns:svg="http://www.w3.org/2000/svg"
	 xmlns="http://www.w3.org/2000/svg" xmlns:xlink="http://www.w3.org/1999/xlink" x="0px" y="0px" width="1000px" height="1000px"
	 viewBox="0 0 1000 1000" enable-background="new 0 0 1000 1000" xml:space="preserve">
<g id="vs-primary">
	<path fill="#3A231A" d="M176,476.2c64.1-13.9,153.3-23,251.1-25.9c0.6,0,1.2-0.3,1.7-0.7c0.2,5.1,0.5,10.1,1.1,14.9
		c-87.7,2.3-167.8,9.1-225.7,19.1c-61.9,10.7-93.3,23.7-93.3,38.8c0,22.2,65.6,38.3,104.7,45.9c69.9,13.6,160.5,21.5,255.2,22.2
		c2.2,0,7-2.6,21.5-11.4l2-1.2c1.7-1,3.8-1,5.3,0c15.7,9.6,21.4,12.7,23.8,12.7c94.6-0.7,185.2-8.5,255-22.2
		c39.1-7.6,104.6-23.7,104.6-45.9c0-14.8-30-27.6-89.2-38.1c-55.6-9.9-133-16.8-218.1-19.4c-1,0-1.9,0.6-2.3,1.4
		c1.8-5.7,3.4-11.5,4.7-17.5c0.2,1.1,1.2,2,2.4,2c94.1,3.4,179.7,12.8,241.1,26.5c57.8,12.9,91.8,29.4,94.2,45.4
		c-0.1,0.3-0.2,0.6-0.2,0.9c0,1.3,0,2.6,0,3.9c-4,18.1-44.1,37.9-109.1,53.3c-74.9,17.8-173.5,28.1-277.5,29.1
		c-2-0.4-13-5.9-24.8-12.2c-4.6-2.4-10-2.3-14.2,0.3c-10.4,6.1-20.3,11.4-22.3,11.9c-104.2-0.9-203.2-11.3-278.9-29.1
		c-69-16.3-110.4-37.1-110.7-55.9c0-0.1,0-0.2,0-0.4C78,507.1,113.8,489.6,176,476.2z"/>
	<path fill="#3A231A" d="M497.1,830.1c-228.3,0-408.6-127-418.7-291.9c5.1,6.5,13.7,12.9,25.9,19.2c19.5,10.1,48.3,19.8,83.3,28
		c76.1,17.9,175.6,28.3,280.2,29.2c2.7,0,14.9-6.8,24.7-12.6c2.8-1.7,6.3-1.7,9.3-0.1c8.8,4.8,24.1,12.8,27,12.8
		c104.4-0.9,203.4-11.3,278.8-29.2c34.6-8.2,63.1-17.9,82.4-28c11.7-6.1,20.1-12.3,25.1-18.6C904.4,703.4,724.7,830.1,497.1,830.1z"
		/>
</g>
<g id="vs-secondary">
	<path fill="#FFCE00" d="M917,580.2c-99.4,35.8-205,58.5-313.6,66.9c-87.4,6.9-177.3,4.7-266.9-6.4c-23.8-3-46.4-6.4-67.5-10.1
		c-1.5-0.4-3-0.7-4.6-0.8c-111.1-19.9-180.8-47-182.1-47.6c-1.1-0.4-2.2-0.7-3.3-0.9c4.2,17.3,11.3,33.4,19.8,49.1
		c8.1,2.6,17.8,5.6,28.8,8.8c0.5,0.9,1,1.7,1.6,2.6l39,53.4c-12.8-3.3-24.3-6.6-34.5-9.6c7.3,8.2,14.5,16.5,22.9,23.4
		c14.5,12,30.2,21.4,42.7,34.9c37.1,8.2,81.2,16.5,130.8,22.7c57.6,7.1,115.4,10.9,172.6,10.9c34.5,0,68.7-1.3,102.7-4
		c62.5-4.9,124.1-14.2,184.1-28c10.9-8,23.4-15.1,34.9-22.9c9.9-13.2,22.5-24.6,34.1-36.6c-16,4.8-32.1,9.3-48.4,13.4l54-57.4
		c0.9-1,1.7-2,2.4-3.1c9.6-2.9,19.2-5.9,28.7-9C901.9,613.1,908.3,596,917,580.2z M396.5,733.3c-12.4-1-24.9-2.1-37.3-3.5l17.1-22.5
		L396.5,733.3z M418.5,688.4c12.6,0.8,25.2,1.4,37.8,1.8L439.2,715L418.5,688.4z M489.2,721.1l11.4,16.4c-7.5,0-15-0.1-22.6-0.2
		L489.2,721.1z M522.3,690.9c8.2-0.1,16.4-0.3,24.5-0.6l-12.5,17.9L522.3,690.9z M585.4,712.7l12.5,21.3c-9.5,0.7-19.1,1.3-28.7,1.8
		L585.4,712.7z M621.1,685.8c9.6-0.9,19.1-1.8,28.7-2.9l-17.2,22.4L621.1,685.8z M340,681.4l-11,14.4l-15-17.7
		c5.4,0.7,10.8,1.4,16.3,2.1C333.5,680.6,336.7,681,340,681.4z M223.6,662.7l-13,14.9l-15.4-21C204.3,658.7,213.8,660.7,223.6,662.7
		z M262.4,686.4l29.1,34.4c-18.1-2.9-35.3-6-51.4-9.2L262.4,686.4z M672.5,726.2l24.8-32.2l21.4,25
		C703.4,721.7,688,724.1,672.5,726.2z M755.1,693.1l-19.6-22.8c17-3.1,34-6.6,50.8-10.4L755.1,693.1z"/>
</g>
<g id="vs-color">
	<path fill="#FF9D00" d="M443,380.1c5.9-21.8,16-43.5,25.6-64.5c12.5-27,25.3-55,29.4-82.9c4.2-28.9-1.7-54.9-17.9-79.3
		c26.1,13.4,48.3,66.3,53.3,81.1l2.7,8.4c15.5,48.2,30.2,93.7,38.8,144.9c11.8,72.6-30.6,136.8-62,162.2c-5.5,4.4-10,7.2-13.5,8.6
		v-34.1c0-1.4-1.1-2.5-2.5-2.5s-2.5,1.1-2.5,2.5v35.3c-0.4,0-0.8-0.1-1.1-0.2c-0.3-0.1-0.6-0.2-0.8-0.2h0c0,0,0,0,0,0c0,0,0,0,0,0
		c0,0,0,0,0,0c0,0,0,0,0,0c0,0,0,0-0.1,0h0c0,0,0,0,0,0c-0.2,0-0.5,0-0.7,0.1c-3.7-1.1-20.3-10.9-34.9-32.9
		C439.4,500.3,422.9,453.6,443,380.1z"/>
	<path fill="#4A4A51" d="M435.1,490.9c8.4,29.4,23.5,48.3,34.7,58.9c7.5,7.2,17.5,14.3,22.1,14.7c0.9,0.5,1.9,0.8,2.6,1v2.6
		c0,1.4,1.1,2.5,2.5,2.5s2.5-1.1,2.5-2.5v-4.2c6-1.9,12.5-6.6,16.7-10c20-16.2,44.3-47.6,57.1-86.9c0,0.1,0,0.2,0,0.4
		c0,1.4,1,2.5,2.4,2.6c84.8,2.6,162,9.4,217.4,19.3c27.5,4.9,48.8,10.4,63.5,16.3c13.9,5.6,21.6,11.6,21.6,17
		c0,10.3-26.4,26.6-100.6,41c-69.5,13.6-159.7,21.4-254,22.1c-2.7-0.5-16.7-9.1-21.3-11.9c-3-1.9-7.1-1.9-10.4,0l-2.1,1.3
		c-5,3.1-16.6,10.2-18.9,10.7c-94.3-0.7-184.6-8.5-254.2-22.1c-74.2-14.5-100.6-30.7-100.6-41c0-5.5,8.1-11.6,22.7-17.4
		c15.4-6,37.7-11.6,66.4-16.5c57.8-10,137.9-16.7,225.5-19C431.6,476.9,433.1,484,435.1,490.9z"/>
</g>
<g id="vs-shade">
	<path opacity="0.4" fill="#FFFFFF" d="M486.3,491.5c-2.9-3.2-6.3-7.5-9.6-13.2c-10-16.5-14.2-36.6-12.5-59.8
		c0.8-10.4,2.7-21.4,5.8-32.4c4.1-14.8,10.9-29.7,17.4-43.7v-0.1c10.7-23.4,22.4-48.9,21.9-75.4c3.5,7.1,6.2,13.8,7.7,18.3
		c0,0.1,0.1,0.1,0.1,0.2l1.2,3.4l1.7,5.6c10.2,32.2,19.8,62.5,25.4,96.3c1.5,9.4,1.7,18.4,0.7,26.7c0,0.1,0,0.1,0,0.1
		c-3.1,29.2-18.4,55.9-33.6,71.6l-0.1-9.7c0-6.8-6.9-11.6-13-11.6c-5.6,0-13.3,4.5-13.3,11.6L486.3,491.5z"/>
	<path opacity="0.4" d="M261.9,480.6c3.8,7-23,19.8-29.1,46.8c-3.6,16,1.3,31.2,7.1,42.8c-13.7-2.7-45.3-9.1-74.3-16.4
		c0,0-6.2-1.6-21.6-7.4c-17.3-6.5-25.9-11.3-29.3-19c-1.6-3.7-1.3-6.3-1.1-7.3c0.9-4.5,4.8-7.4,8.4-9.7
		c11.7-7.4,22.3-10.2,22.3-10.2c36.8-9.7,31.8-8.7,37.4-9.9c3.7-0.8,14.8-3.1,35.9-6.5C258.3,477.4,261,478.9,261.9,480.6z"/>
	<path opacity="0.4" d="M732.1,482.1c-3.8,7,23,19.8,29.1,46.8c3.6,16-1.3,31.2-7.1,42.8c13.7-2.7,45.3-9.1,74.3-16.4
		c0,0,6.2-1.6,21.6-7.4c17.3-6.5,25.9-11.3,29.3-19c1.6-3.7,1.3-6.3,1.1-7.3c-0.9-4.5-4.8-7.4-8.4-9.7
		c-11.7-7.4-22.3-10.2-22.3-10.2c-36.8-9.7-31.8-8.7-37.4-9.9c-3.7-0.8-14.8-3.1-35.9-6.5C735.8,479,733,480.5,732.1,482.1z"/>
	<path opacity="0.4" fill="#FFFFFF" d="M420.3,827.7c-11.7,7.6-72.7-55.9-118-128.3c-26.5-42.3-43.1-80.4-53.2-107
		c18.5,5.4,41.1,10.4,67.2,13c23,2.3,43.7,2.2,61.2,1c0.3,21.5,1.9,53.3,8.8,91C401.5,780,429.2,821.9,420.3,827.7z"/>
	<path opacity="0.4" fill="#FFFFFF" d="M833.2,578.8c19.3-5.8,23.5-12.8,27.2-11.3c9.3,3.6,3.8,56.4-21.4,113.2
		c-15,33.9-35.4,65.4-40,63.3c-5-2.2,20.2-37.5,19.3-92.7c-0.5-29.1-8.2-62.5,5.5-69.9C825.9,580.3,826.4,580.9,833.2,578.8z"/>
</g>
<g id="vs-outline_1_">
	
		<path id="path24_1_" fill="none" stroke="#000000" stroke-width="10" stroke-linecap="round" stroke-linejoin="round" stroke-miterlimit="10" d="
		M575.6,467.4c174.1,5.3,304.9,27.9,304.9,55c0,29.9-154.6,64.2-357.2,65.6c-2.4,0-15.8-8.2-22.5-12.3c-2.2-1.4-5.3-1.4-7.8,0
		c-6.7,4.1-19.8,12.3-22.2,12.3c-202.8-1.4-357.4-35.7-357.4-65.6c0-27.7,137.2-50.7,317.8-55.4"/>
	
		<path id="path26_1_" fill="none" stroke="#000000" stroke-width="20" stroke-linecap="round" stroke-linejoin="round" stroke-miterlimit="10" d="
		M580.5,448.3c193.7,6.9,337.8,38.5,337.8,76.1c0,41.4-167.2,85.8-389.6,87.8c-2,0-17.1-7.8-25.8-12.5c-3.8-2-8.2-2-11.8,0.2
		c-8,4.7-21.4,12.2-23.4,12.2c-222.6-2-392.3-46.5-392.3-87.8c0-38.7,149.7-70.7,351.7-76.5"/>
	
		<path id="path28_1_" fill="none" stroke="#000000" stroke-width="20" stroke-linecap="round" stroke-linejoin="round" stroke-miterlimit="10" d="
		M918,523.5c0,175.7-187.8,309.1-420.9,309.1S75.4,699.2,75.4,523.5"/>
	
		<line id="line30_1_" fill="none" stroke="#000000" stroke-width="10" stroke-linecap="round" stroke-linejoin="round" stroke-miterlimit="10" x1="496.9" y1="568" x2="496.9" y2="524.4"/>
	
		<path id="path32_1_" fill="none" stroke="#000000" stroke-width="12" stroke-linecap="round" stroke-linejoin="round" stroke-miterlimit="10" d="
		M492.4,561.8c-0.7,3.8-89.6-44.5-51.8-182.4c21.4-78.3,92.7-151.5,32.9-231.1c31.6,6.7,58,72.5,62.3,85.4
		c16.9,52.5,32.5,99.4,41.6,153.7C593.6,486.7,509.6,568.5,492.4,561.8C492.4,562.3,499.3,564.5,492.4,561.8z"/>
</g>
<g id="vs-reveal" opacity="0">
	
		<path id="path41" fill="none" stroke="#ED6326" stroke-width="50" stroke-linecap="round" stroke-linejoin="round" stroke-miterlimit="10" d="
		M489.5,169.1c57.2,30.5-11.3,176.6-20.7,195.3c-27.6,55.6-24,119.6,8,166.8c19.3,28.5,20,22,42.5-8.7c17.6-24,30.2-52.5,35.6-82.1
		c8.5-46.5-3.8-79.8-16-124.5c-16.9-74.3-12.9-88.5-19.3-62c-5.1,21.4-18.2,120.8-20.9,131c-7.3,28.7-15.1,85.4-1.1,113.2
		c50-17.1,26.9-177.7,27.1-179c-35.9,46.7-71.8,93.4-107.7,140.1c-57.7,2-125.2,8.7-199.4,24.7c-47.2,10.2-90,22.6-128.1,35.7
		c138.5,0.6,231.7-13.1,292.3-26.4c20.4-4.5,62-14.3,119.8-17.6c42.4-2.4,47.6,1.4,139.6,5.5c107,4.8,130.4,1.1,181.4,14
		c33.2,8.4,59.3,19.1,75.8,26.6c-46.8-1.1-117.3-2.6-203.3-3.3c-128.8-1.1-202.2-1.6-287.9,2.2c-71.4,3.2-170.2,10.3-289,27.5
		c132.4,7.1,239.9,8.7,314.3,8.8c50.6,0.1,82.7-0.5,226.4-2.2c102.2-1.2,185.5-2,240.2-2.5c-100.4,18.4-215.7,32.9-343.6,37.7
		c-183.4,6.9-344.9-8.1-477.2-29.6c99.7,32.8,243.9,68.3,420.1,72.5c167.2,3.9,306.4-21.8,405-47.8
		c-165.2,76.4-300.6,88.4-380.8,88.5c-88.4,0.1-176.3-14.5-228.6-23.1c-85.2-14.1-155.9-31.8-207.7-46.6
		c77.1,39.9,237,109.3,448.1,104.4c159.6-3.8,284.2-48.5,357.9-81.8c-60.5,38.4-208.7,121.1-413.7,121.8
		c-170.1,0.6-298.4-55.4-361.5-88.3c55.9,36.4,204.5,122.4,409.8,117.4c156.4-3.8,273.3-58.7,331.6-91.3
		c-45,35.5-141.2,101.1-279.9,122.7c-192.6,29.9-340.9-44.7-388.5-71.3"/>
</g>
</svg>
