<?xml version="1.0" encoding="utf-8"?>
<!-- Generator: Adobe Illustrator 25.2.1, SVG Export Plug-In . SVG Version: 6.00 Build 0)  -->
<svg version="1.1" xmlns="http://www.w3.org/2000/svg" xmlns:xlink="http://www.w3.org/1999/xlink" x="0px" y="0px" width="1000px"
	 height="1000px" viewBox="0 0 1000 1000" enable-background="new 0 0 1000 1000" xml:space="preserve">
<g id="Layer_2">
	<path fill="#EFEFEF" d="M548.1,435.2c2.8-0.1,5.6-0.1,8.4-0.2C553.7,435,550.9,435.1,548.1,435.2z"/>
	<path fill="#EFEFEF" d="M759.7,671.8c-6.4-31-8.1-62.4-21.6-93.3c-2.3-5.2-6-9.3-10.4-12.4c-2.6-12.2-6.9-23.7-12.1-35
		c-2.2-4.9-5.2-9.6-7.8-14.3c-0.7-1.5-1.2-2.5-1.5-3.1c-0.4-1.4-0.6-2.2-0.7-2.5c-1.8-15.3-10.9-28.5-24.6-34
		c-5.6-12.8-15.1-22.9-27.3-26.5c-13.2,0.9-26.1,3.4-40,5.4c-47.9,6.8-96.4,5.5-144.6,4.4c-43.4-1-86.3,1.5-129.6,2
		c-9.5,0.1-19.1,0.1-28.7-0.4c-48.5,37.6-87.6,88.8-92.9,151.6c-2.2,26.5,3.4,54.2,10.4,80c2.1,9.9,4.1,19.9,5.6,30
		c3.6,23.8,9.9,49.1,26.8,66.4c6,26.1,32.7,41.6,53,55.8c25.1,17.5,51.9,31.6,80.5,42.5c59.3,22.4,123.3,9.1,183.5-1.8
		c53.4-9.6,122.7-22.8,153.1-73c2.2-3.7,3.7-7.7,4.5-11.7c9.7-12.5,17.3-26.6,23.2-42.2C769.2,731.3,765.6,700.7,759.7,671.8z"/>
	<path fill="#EFEFEF" d="M473.9,434.5c1.6,0,3.1,0.1,4.7,0.1c-2-15.2-13.1-28-28.4-33c-34.9-11.4-60.6,7.7-78.2,33.9
		C406,434.4,439.8,433.7,473.9,434.5z"/>
	<path fill="#FFFFFF" d="M351.7,436.1c40.8-1.3,81.3-2.5,122.2-1.6c26.2,0.6,52.8,1.4,79.2,0.7c-8.4-6.3-17-12.4-25.7-18.5
		c-3.7-2.6-7.4-5.3-11.1-8c-1.2-0.9-2.1-1.5-2.7-2c-0.6-0.5-1.4-1.2-2.5-2c-7.7-6.1-14.9-12.8-21.6-20.1c1.6,1.5-4.5-6.3-4.8-6.7
		c-2.3-3.6-4.4-7.4-6.5-11.2c-4.9-8.9-9.5-17.9-14.6-26.6c-22.4-37.6-87.8-23.6-85.2,23.1c1,19.1,4.9,37.9,11,56
		c-8.9-0.3-17.9,1.7-25,5.9c-4.1,2.4-7.6,5.2-10.5,8.3c-5.7,0-10.9,1.1-15.8,3.1C342.7,436.4,347.2,436.2,351.7,436.1z"/>
	<path fill="#FFFFFF" d="M616.1,429.5c9.9-1.6,19.2-3.4,28.6-4.4c-0.1-3.6-0.3-7.2-0.4-10.8c-0.7-24.9-20.2-45.7-45.7-45.7
		c-24.4,0-46.5,20.8-45.7,45.7c0.2,6.9,0.5,13.9,0.8,20.8C574.7,434.5,595.5,432.9,616.1,429.5z"/>
	<path fill="#FFFFFF" d="M669.9,450.6c-19.2-1.2-36.7,2.7-56.2,5.5c-47.9,6.8-96.4,5.5-144.6,4.4c-43.4-1-86.3,1.5-129.6,2
		c-9,0.1-18.2,0.1-27.3-0.3c-0.8,1.6-1.6,3.1-2.2,4.8c-5.9,14-12.2,28-15.2,43c-4.6,22.6-2.7,44.7,2.7,67.1
		c8.4,34.9,22.8,68.8,42.6,98.7c44.1,66.5,127.8,126.9,211.4,111.8c62.6-11.3,117.4-57.7,133.2-118.3c15.9-26,26-54.7,26.1-85.4
		c4.3-6.8,6.7-14.8,5.8-23.2C712.2,519.2,690.1,485.7,669.9,450.6z"/>
	<path fill="#232323" d="M351.3,671.8c-0.4,0.2-0.7,0.5-1.1,0.7c-1.7-1.9-5.8-1.2-5.8,2.1v5.2c0,1.2,0.6,2.1,1.5,2.7
		c0.2,0.2,0.3,0.5,0.5,0.7c2.3,2.5,5.8-0.1,5.5-2.8c0.3-0.3,0.5-0.6,0.8-1c0.4-0.5,0.6-0.8,0.8-1c0.2-0.3,0.5-0.5,0.7-0.7
		c0.1-0.1,0.1-0.1,0.1-0.1c0,0,0.1,0,0.3-0.1C358.3,675.4,355,669.7,351.3,671.8z"/>
	<path fill="#232323" d="M314.2,706c0,0.2,0,0.4-0.1,0.5c-1.9-1.2-5.2-0.4-5.2,2.6v4.8c-0.4,1.6-0.4,3.2,0.4,5.2
		c0.7,1.7,2.4,1.9,3.8,1.3c1.6,0.5,3.6-0.2,4.2-2.1c1.3-3.9,3.1-8.2,3.3-12.4C320.9,701.8,314.3,701.8,314.2,706z"/>
	<path fill="#232323" d="M290.1,737.4c-0.4-1.3-1.5-2.3-3-2.3c-1.6,0-3.5,1.5-3.3,3.3c0.3,3.1,2.3,5,5.4,5.4
		c1.8,0.2,3.3-1.6,3.3-3.3C292.5,738.9,291.5,737.9,290.1,737.4z"/>
	<path fill="#232323" d="M341.4,738.4c0.4-1.4,0-3.1-1.4-3.8c0.4,0.2-1-0.7-0.7-0.3c0,0-0.1-0.1-0.1-0.1c-1.2-3.1-6.5-2.7-6.3,1.1
		c0,0.7,0.3,1.3,0.5,1.9c-0.2,0.1-0.3,0.2-0.5,0.3c-1.2,0.4-2.1,1.4-2.1,3v0.1c0,0,0,0,0,0c0.1,2.4,0,5.7,2.3,7.1
		c2.3,1.4,4.4-0.4,5.7-2.3c1.2-1.7,1.1-2.5,2.3-4.2C341.8,740.2,341.8,739.2,341.4,738.4z"/>
	<path fill="#232323" d="M658.4,672.4c0-2.3-2.9-4.1-4.9-2.7c-1.3,0.9-2.5,1.8-3.5,3.2c-0.8,1.2-1.2,2.9-1.9,4.3
		c-0.6,0.9-1.5,1.6-2.2,2.5c-0.9,1.1-0.7,2.9-0.2,4.2c1.1,2.7,4.3,3.3,6,0.8c0.4-0.6,0.9-1.2,1.3-1.7c0.4,0.1,0.7,0.2,1.1,0.2h1
		c1.8,0,3.7-1.9,3.2-3.8c0.1-0.5,0-1-0.1-1.4c0.2-0.5,0.5-1.1,0.8-1.6C659.7,674.8,659.3,673.4,658.4,672.4z"/>
	<path fill="#232323" d="M717.1,725.2c-0.4-1.6-1.8-2.5-3.4-2.6c-1.1,0-2,0.5-2.6,1.3c-0.2,0.1-0.3,0.3-0.5,0.4
		c-1.1,1-1.2,2.2-1.2,3.6c0,0.2,0.1,0.3,0.1,0.5c0,0.2-0.1,0.3-0.1,0.5c-0.1,1.8,1.6,3.3,3.3,3.3c1.8,0,3-1.4,3.2-3c0,0,0,0,0.1-0.1
		c0,0.5,0,0.2,0.1-0.2C716.9,727.9,717.4,726.6,717.1,725.2z"/>
	<path fill="#232323" d="M685.7,707.1c-0.2-0.8-0.7-1.5-1.2-1.9c0.1-1.2-0.4-2.3-1.5-3c-1.4-0.8-3.7-0.4-4.5,1.2
		c-1.1,2.3-1.5,4.4-1.5,6.9c0,2.6,2.5,3.6,4.4,3c1.6,0.6,3.6,0,4.1-2.1C685.8,709.8,686,708.4,685.7,707.1z"/>
	<path fill="#232323" d="M606.1,786.2c0-0.3,0-0.5,0-0.8v-0.8c0,0,0.1,0,0.1-0.1c1.4-1.4,1.1-3.2,0-4.6c0.8,1,0.5,0.9,0.4-0.1
		c0-0.9-0.3-1.8-0.6-2.6c-1.3-3.2-6.4-3.1-6.4,0.9v10.5c0,2.1,1.7,3.2,3.4,3.2c0.3,0.1,0.6,0.1,1,0.1
		C607.1,791.9,607.9,788,606.1,786.2z"/>
	<path fill="#232323" d="M645.7,539.3c-1.9-12.9-19.3-59.1-39.1-42.9c-0.4,0.3-0.7,0.7-1,1c-1.2,0.5-2.2,1.1-3.2,1.8
		c-1.2-0.6-2.7-0.8-4.4-0.4c-5.2,1.3-8.7,2.9-12.3,6.9c-2.5,2.7-2,7,0.2,9.4c-2.4,4-3.2,8.8-3,13.5c-0.2,1.9-0.3,3.9-0.1,5.7
		c0.9,9.2,5.7,19.2,12,26.3c0.1,6.4,3.6,12.2,9.3,16c4.6,3,10,3.4,14.9,2.1c1.2,0.5,2.6,0.8,4.1,0.9c7.1,0.6,15.1-6.4,18.7-11.8
		c4.5-6.7,7-14.8,7.3-22.9C649.2,542.1,647.7,540.2,645.7,539.3z"/>
	<path fill="#232323" d="M420.4,548.9c-0.1-1.4-0.2-2.7-0.4-4c0-0.3,0.1-0.6,0.1-0.9c0.2-1.5-0.1-2.7-0.7-3.6
		c-1.4-8.5-4.3-16.5-9.6-23.7c-1-1.4-2.6-2.3-4.3-2.8c-0.1-1.3-0.7-2.6-2-3.8c-11.1-10.2-21.8-5.3-30.5,5.5
		c-1.4,0.1-2.7,0.7-3.9,1.8c-6,6.1-12,21.2-14.1,36.1c-1.8,6.7-2.7,12.7-2.6,16.7c0.6,15.6,11.1,37.7,30.2,29
		c9.4-4.3,16.7-11.4,22-19.9c2.5,0.6,5.3-0.1,7.1-2.7c5-7.2,6.4-15.5,7.4-23.9C420.1,551.6,420.5,550.4,420.4,548.9z"/>
	<path fill="#AD862F" d="M553.7,641.5c-0.4-2.1-1.5-3.5-3-4.2c1.7-15.4-7.8-38.5-23.2-38.3c-0.1,0-0.1,0-0.2,0
		c-2.2-2.2-4.6-3.8-7-4.1c-0.4-2-1.8-3.7-4.6-4.1c-13.8-2-23.3,3.2-29.2,11.7c-20.4,10.1-24.2,50-16.1,68.6
		c3.7,8.4,10.6,13.4,18.3,15.3c-0.4,2.5,0.5,5.1,3.1,6.3c20.3,8.8,46-6.1,57-26.1c0.4-0.3,0.7-0.7,1.1-1c1.9-1.7,2.3-3.7,1.9-5.6
		C554.1,654,554.9,647.7,553.7,641.5z"/>
	<path fill="#BA8F38" d="M551.7,642.9c-0.6-7.7-2.2-15.2-5.1-21.8c0.3-2.5-0.8-5.3-3.1-6.4c-0.2-0.1-0.4-0.2-0.6-0.3
		c-2.4-3.4-5.2-6.5-8.8-9c-3-3.7-6.5-7.3-10.5-9.9c-3.9-3.2-8.1-5.9-13-7.5c-3-1-5.3,0.1-6.6,2c-1.3-0.4-2.5-0.4-3.5-0.1
		c0,0,0,0-0.1,0l0,0c-2.8,0.5-4.6,2.9-5,5.6c-4.5,1.7-6.7,8.7-1.3,11.8c10.7,6,32.6,22.2,40.4,38.4c-1.7,3.5,0,6.8,2.7,8.4
		c0.5,3.5,0.1,6.9-1.5,10.1c-1.5,3.1-0.5,6,1.4,7.8c-1.6,8.5,9.4,11.1,12.6,3.5C554.1,664.5,554.4,653.4,551.7,642.9z"/>
	<path fill="#6B6B6B" d="M831.8,421.5c-20-4.7-40.3-3.7-60.5-3.4c-8.7-1.2-17.1-1.2-25.6-0.5c-22-1.5-43.9-2.3-65.8-2.7
		c-3.7-39.4-8-78.8-9.1-118.3c0.5-1.1,0.8-2.3,1.1-3.6c5.8-26.9,3.6-54.8,7.6-81.8c0.8-1.5,1.4-3.1,1.8-5c3.3-15,4-31.5,9.3-46.1
		c1.3-1.7,2.4-3.8,3.2-6.2c0-0.1,0.1-0.2,0.1-0.3c1.4-2.3,2.4-4.9,2.8-7.7c2.7-1.1,5.2-2.8,7.1-4.9c3.9-3.6,6.3-8.7,6.3-14.3
		c0-10.6-8.9-19.7-19.6-19.6c-4.6,0-9,1.3-12.6,4c-13.7-0.7-33.3-3.2-46.9,2.4c-2.2-1.7-5-3-8.5-3.6c-23.3-3.9-45.8-1.3-69.2,0.3
		c-12,0.8-23.9-0.6-35.8,0.7c-11.1,1.3-21.8,4.6-33,3.5c-4.5-0.4-8.9,1.4-12.4,4.4c-1.3-0.7-2.7-1.2-4.3-1.6
		c-2.8-0.7-5.6-1.4-8.4-2.1c-7.5-1.9-14.1,0.4-18.6,4.9c-1.4,0-2.9,0.1-4.4,0.4c8.6-1.6,1.4-0.4-0.4-0.3c-3.5,0.2-6.9,0.4-10.4,0.6
		c-9.1,0.4-18.3,0.2-27.4,0.1c-19.1-0.2-37.8,0.8-55.5,7.5h0c-5.3-1.9-11.3-1.9-17.6,0.3c-3-1.7-6.2-3.1-9.4-4.3
		c-12.1,2.8-24.7,3.1-35.2-1c-2.3,2.4-3.9,5.1-4.8,8.3c-1.4,5.1-0.7,10.5,2,15.1c1.3,2.2,2.8,3.8,4.5,5.2c1,1.2,2.1,2.3,3.3,3.4
		c0.8,0.8,1.7,1.5,2.6,2.1c-0.3,12.9,4.4,23.7,8.6,35.7c4.3,12.5,8.1,25.1,11.7,37.8c3.8,13.3,7.3,26.7,10.7,40.1
		c-1.3,2.6-2,5.8-1.7,9.5c0.8,13.5,4.3,26.9,7,40.1c3.1,15.2,4,30.8,4.3,46.4c-0.6,2.6-0.7,5.5-0.2,8.6c0.1,0.7,0.2,1.4,0.3,2.2
		c0,2.1,0,4.1,0,6.2c0,2.4,0.4,4.7,1.1,6.6c0.3,8.2,0.1,16.6,1,24.7c0.1,0.6,0.2,1.1,0.3,1.7c-7.8,1.8-14.6,6.6-23.6,7.6
		c-17.6,1.9-35.9,1.8-53.6,2c-19.3,0.2-38.5,0.4-57.8,0.6c-7.9,0.1-15.7,0.8-23.6,1.8c-1,0.1-3.3,0.5-5.3,1
		c-2.8,0.2-5.7,1.1-8.6,2.9c-2.1,1.3-4.2,2.7-6,4.5c-12.6,12-2.8,33.3,13.9,33.5c8.5,0.1,16.7-3.9,25.4-4.3
		c18.9-0.8,37.9-0.7,56.9-0.7c16.8,0,33.5-0.8,50.3-1.4c8.6-0.3,17.2-1.4,25.6-3c3.5-0.7,7.4-2.9,10.9-4.7c1.6,1.1,3.4,2,5.4,2.7
		c20.7,7.1,46.3,4.5,67.7,3c25.3-1.8,50.4-3.8,75.8-4c25.7-0.2,51.4,2.8,77,1.7c25.5-1,50.7-5.2,76.3-3.1c5,0.4,9-0.9,12-3.1
		c8.2,0,16.5,0,24.7,0.1c2.9,5.5,8.4,9.5,16.6,9.3c13.3-0.3,27-3.6,40.5-5.7c0.9,0.7,1.8,1.4,2.9,2c21.2,12,45.3,7.2,68.4,6.9
		c1.5,0,2.8-0.2,4.1-0.5c2.3,1,4.7,1.5,7.4,1.5c0.4,0,0.8,0,1.1-0.1c0.9,0.3,1.9,0.6,2.8,0.8c2.2,0.9,4.7,1.4,7.5,1.4
		c14.8,0,20.9-13.5,18.4-24.6C847.6,435.4,844.1,424.4,831.8,421.5z M443.1,417.5c0.1-0.2,0.2-0.5,0.3-0.7c2.8,1.4,5.8,2,8.7,2
		c0.3,0.4,0.7,0.8,1.1,1.2c-4.1,0.2-8.2,0.4-12.2,0.7C441.8,419.7,442.5,418.6,443.1,417.5z M502.6,419.3c3.4-1.4,6.9-3,10.4-4.5
		c5.3,0.1,10.6,0.4,15.8,0.7c13.9,0.9,28.1,2.3,41.9,4.8c-1.3,0.1-2.6,0.2-3.8,0.3C545.5,422,524,419.9,502.6,419.3z"/>
	<path fill="#545454" d="M466.5,409.4c-19.7-8.7-37.3-25.3-52.4-41.7c-0.3-0.4-0.6-0.7-0.8-1.1c-20-26.1-37.4-53.5-52.4-82.8
		c-13.6-26.5-27.6-52.6-40.5-79.5c-3.8-11.4-6.6-23-9.9-34.5c-4-13.8-8.3-29.8-1.7-43.5c1.8-3.8-3.8-7.1-5.6-3.3
		c0,0.1-0.1,0.2-0.1,0.3c-1.6-1.1-4.4-0.9-5.4,1.5c-0.4,1-0.7,2-1,2.9c-0.3-3.4-5.7-4.6-6.3-0.8c0,0.2-0.1,0.4-0.1,0.6
		c-0.9-0.7-2-0.9-3-0.7c-0.3-1-1.2-2.1-2.3-2.3c-0.3-0.1-0.6-0.1-0.9-0.2c-2.9-0.5-4.9,2.1-3.7,4.8c0.2,0.5,0.4,1,0.6,1.5
		c1.4,8.8,4,17.2,7.2,25.3c0.2,0.9,0.3,1.6,0.4,1.9c2.6,10.1,5.2,20.2,8,30.3c4.4,15.7,9.7,31.2,16.6,46c-0.6,0.5-1,1.3-1.1,2.3
		c-0.3,10,2.3,19.6,5.2,29.1c0.1,0.5,0.2,1,0.3,1.4c1.1,7.8,2.5,15.6,5,23.1c-0.1,7.6-0.2,14.9,1.2,22.5c0.3,1.5,1.4,2.2,2.7,2.3
		c0.6,16.2,1,32.6,3.4,48.5c-0.6,7.3,0.5,15.2,2.4,22.8c-0.3,0.8-0.2,1.7,0.3,2.5c0.2,0.4,0.5,0.8,0.7,1.2c0.1,0.3,0.2,0.6,0.3,0.8
		c-0.6,0.9-0.7,2,0.1,3.2c0.7,1.1,1.4,2.2,2,3.3c0,0.1,0.1,0.2,0.1,0.3c-0.9,0.2-1.8,0.8-2.3,1.6c-0.9,0.7-1.5,1.9-1.3,3.1
		c-0.7,0.5-1.2,1.4-1.1,2.6v0c-2.4,0.9-2.9,5.2,0.3,6.3c0.8,0.3,1.7,0.6,2.5,1c0.8,1,2.2,1.3,3.4,1c3,1.8,6.6,2.8,10.3,3.2
		c0,0,0,0,0.1,0c4,0.5,8.1,0.4,11.8,0.1c0.9-0.1,1.6-0.4,2.2-1c1.8,0,3.6-0.2,5.4-0.5c2,0.8,4.1,1.6,6.2,2.4c2.9,1,4.8-2.3,3.7-4.6
		c3.9,0.7,7.9,1.2,12,1.4c2,2.3,4.5,4.3,7.5,6c3,1.8,5.8-1.6,4.5-4.5c0,0,0,0,0,0c0.9-0.7,1.5-1.8,1.5-2.9c0.2,0,0.4,0,0.6,0
		c1.2,0.5,2.4,1,3.6,1.4c1.2,0.4,2.6-0.2,3.4-1.2c3.9,0.4,7.8,1.2,11.5,2.9c1.1,0.5,2.3,0.4,3.2-0.2c0.8,0.7,1.7,1.3,3.1,2.3
		c2.7,1.9,5.5-1.4,4.6-4c0.1,0.1,0.2,0.1,0.3,0.1c1.1,0.4,2.1,0,3-0.7c2.6,1.5,5.2,2.9,7.8,4.5c3.3,2.1,6.3-2.4,4-5.1
		c-0.8-1-1.7-1.9-2.6-2.9c2.4,1.6,5.3,3.7,6.6,5.5c-0.5,2.2,1.2,4.8,3.9,3.8c0.2-0.1,0.5-0.2,0.7-0.3c1.8-0.6,2.7-2.2,2.3-4
		c-0.3-1.2-0.9-2.4-1.7-3.5c2.2,1.2,4.4,2.3,6.6,3.3C467,416.7,470.3,411.1,466.5,409.4z M354.2,357.4c-1-1.5-2.1-3-3.1-4.5
		c-0.9-1.9-1.7-3.8-2.5-5.7C350.4,350.6,352.3,354,354.2,357.4C354.2,357.3,354.2,357.4,354.2,357.4z M398.6,393.7
		c-0.7-1.4-1.5-2.8-2.2-4.2c1.5,1.8,3,3.5,4.6,5.3C400.2,394.5,399.4,394.1,398.6,393.7z"/>
</g>
<g id="Layer_1">
	
		<path fill="none" stroke="#000000" stroke-width="10.4545" stroke-linecap="round" stroke-linejoin="round" stroke-miterlimit="10" d="
		M307,461.3c-32.4,12.5-79,82.9-83.9,114.5c-9.6,62.9-4.1,122.8,16.7,183.4C263.1,827,332.5,867.7,397.4,889
		c48.6,16,108.4,8.7,158,0.9c54.1-8.6,110.7-18.3,154.5-53.9c71.8-58.2,59.8-179.2,29.7-256.5c-13.1-33.6-42.4-91.7-65.7-119.2"/>
	
		<path fill="none" stroke="#000000" stroke-width="10.4545" stroke-linecap="round" stroke-linejoin="round" stroke-miterlimit="10" d="
		M839.7,464.6c-71.8,0-145.2-4.8-217-7.4c-87.5-3.3-173.9,6.9-261.4,4c-35.4-1.2-70.7,2.3-106,2.3c-26.9,0-52.7,1.3-79.4,4.3
		c-10.8,1.2-23.8,5.8-28.7-5.4c-3.2-7.2,0.9-19.7-0.9-27.4c31.1-6,32.1-2.4,47.1-4.4c37.6-5.1,74.5-9.2,112.4-10.9
		c76-3.4,152.1-0.4,228.1-3.2c67.9-2.5,138-2.8,205.8,0c26.7,1.1,88,1.5,101.1,1.8c1.5,21.2,3.3,28.6,3.3,44.9
		c-2,1.6-1.2-0.4-2.1-0.8"/>
	
		<path fill="none" stroke="#000000" stroke-width="10.4545" stroke-linecap="round" stroke-linejoin="round" stroke-miterlimit="10" d="
		M676.9,410.7c-22.8-128.2,9.9-235.5,20.6-262.3c4.1-10.3,12.2-23.1,11.3-34.5c-21.7-4.7-47.5-3.2-69.7-3.6
		c-49.1-1-98.1,1.8-147.1,4.6c-47.7,2.7-95.4,4.4-143.1,7.7c-24.9,1.7-51.1-0.3-75.5,3.9c3.7,14.7,10.9,30,15.9,44.8
		c11,32.6,18.8,64.2,24.9,98.1c5.2,29.3,11.7,58.5,12.9,88.3c0.7,16.1,8.5,45.9-2.3,59.9"/>
	
		<path fill="none" stroke="#000000" stroke-width="10.4545" stroke-linecap="round" stroke-linejoin="round" stroke-miterlimit="10" d="
		M392,502.4c-17.1-1.9-34.8,26.4-38.7,41c-4.6,17.3-2.4,60.4,20.6,56.5c30.6-5.1,47-29.1,46.4-57.3c-0.8-41.9-29.5-34.9-30-39"/>
	
		<path fill="none" stroke="#000000" stroke-width="10.4545" stroke-linecap="round" stroke-linejoin="round" stroke-miterlimit="10" d="
		M605.2,492.1c-18.9,6.9-27.2,18.4-22.4,43.8c4.2,22,19.3,48.2,44.7,43c18.8-3.8,29-28.4,19.8-45.5c-4.9-9-7.8-53.4-41.6-41.3"/>
	
		<path fill="none" stroke="#000000" stroke-width="10.4545" stroke-linecap="round" stroke-linejoin="round" stroke-miterlimit="10" d="
		M556.5,642.3c-0.7-22.1-18.8-48.8-41-53.7c-23.7-5.2-42.8,18.5-48.4,38.5c-9.6,33.8,17.6,82.6,57.4,64.5
		c13.9-6.3,28.2-19.9,31.2-35.3c3.5-17.5-9.7-35.4-27.9-33.5"/>
	
		<path fill="none" stroke="#000000" stroke-width="10.4545" stroke-linecap="round" stroke-linejoin="round" stroke-miterlimit="10" d="
		M350.1,667.5c-10.5,0-13.4,20.7-3.4,21.7c13.4,1.3,10.3-32.2-1.2-17.1"/>
	
		<path fill="none" stroke="#000000" stroke-width="10.4545" stroke-linecap="round" stroke-linejoin="round" stroke-miterlimit="10" d="
		M316.9,697.3c-7.7,2.4-18.5,20.4-6,23.9c11.2,3.2,16.6-22.5,1.5-19.4"/>
	
		<path fill="none" stroke="#000000" stroke-width="10.4545" stroke-linecap="round" stroke-linejoin="round" stroke-miterlimit="10" d="
		M286,731.7c-8.6-3.4-4.8,16.1-1.2,20.6c9.4-4,9.5-27.1,1.2-19.4"/>
	
		<path fill="none" stroke="#000000" stroke-width="10.4545" stroke-linecap="round" stroke-linejoin="round" stroke-miterlimit="10" d="
		M336.4,728.3c-9.2,0.4-10,20.8-0.9,20.8c9.3,0,13.4-23.6,2-18.5"/>
	
		<path fill="none" stroke="#000000" stroke-width="10.4545" stroke-linecap="round" stroke-linejoin="round" stroke-miterlimit="10" d="
		M367.3,761.5c-5.5-0.6-9.6,21.9-1.1,21.7c6.9-0.2,9.7-22.6,1.1-13.6"/>
	
		<path fill="none" stroke="#000000" stroke-width="10.4545" stroke-linecap="round" stroke-linejoin="round" stroke-miterlimit="10" d="
		M410.9,787.9c-4.6,2.1-12.9,18.2-4.6,19.7c6.7,1.2,12.2-22.4,3.4-15.1"/>
	
		<path fill="none" stroke="#000000" stroke-width="10.4545" stroke-linecap="round" stroke-linejoin="round" stroke-miterlimit="10" d="
		M462.5,803.9c-6.8-3.6-13.2,7.2-8.4,12.4c6,6.7,12.2-10.5,9.6-15.8c-1.3,0.2-2.2,0.6-3.5,1"/>
	
		<path fill="none" stroke="#000000" stroke-width="10.4545" stroke-linecap="round" stroke-linejoin="round" stroke-miterlimit="10" d="
		M503.8,803.9c-6.7,2.1-12.1,20.6-2.3,17.4c13.3-4.4,1.9-31.1-1.1-15.1"/>
	
		<path fill="none" stroke="#000000" stroke-width="10.4545" stroke-linecap="round" stroke-linejoin="round" stroke-miterlimit="10" d="
		M556.5,803.9c-4.3-0.5-12.8,5.3-9,10.4c4.7,6.4,12.7-5.9,12.3-10.3c-2-0.2-4.7-0.6-6.7-0.2"/>
	
		<path fill="none" stroke="#000000" stroke-width="10.4545" stroke-linecap="round" stroke-linejoin="round" stroke-miterlimit="10" d="
		M606.4,775.5c-9.6-0.1-17.1,20-7.7,20c8.8,0,17.6-28.5,4.2-20.9"/>
	
		<path fill="none" stroke="#000000" stroke-width="10.4545" stroke-linecap="round" stroke-linejoin="round" stroke-miterlimit="10" d="
		M653.4,740.9c-7.1-2.1-11.2,6.9-10.2,13.6c5.5,0.9,14.3-8.8,11.4-14.6c-2.6-5.3-8-1.8-7,2.1"/>
	
		<path fill="none" stroke="#000000" stroke-width="10.4545" stroke-linecap="round" stroke-linejoin="round" stroke-miterlimit="10" d="
		M688.9,700.8c-9.5-8.2-16.7,14.5-10.4,17c10,3.9,14.4-19,5.8-18.2"/>
	
		<path fill="none" stroke="#000000" stroke-width="10.4545" stroke-linecap="round" stroke-linejoin="round" stroke-miterlimit="10" d="
		M717.6,718c-8.2-3.1-17.5,7.9-10.4,15c7.2,7.3,15.9-10.5,8.1-16.1"/>
	
		<path fill="none" stroke="#000000" stroke-width="10.4545" stroke-linecap="round" stroke-linejoin="round" stroke-miterlimit="10" d="
		M656.8,666.4c-1.2-0.4-2.1-0.2-3.1-1c-7.5,4.4-13.4,22.2-1.2,22.6c15.8,0.5,13.9-18.4,0.9-21.6"/>
</g>
<g id="Layer_3">
	
		<path opacity="0" fill="none" stroke="#27AAE1" stroke-width="78.409" stroke-linecap="round" stroke-linejoin="round" stroke-miterlimit="10" d="
		M402.1,122.6c-7.7-3.4-97.7,30.9-95.1,36.6c2.1,92,186-73.5,192.4-48.1c2.6,10.4-178.8,99.3-167.1,136.8
		c-41.3-0.8,249.9-147.3,299.8-134.7C630.9,121.7,331,320.3,324.6,339c11.9-2.1,352.6-205.1,361.9-197.5
		c-7.3,93-324.9,229.3-322.1,247.7c16.7,4.6,311.6-170.3,305.3-118.1c-11,91.4-183.2,115.8-173.5,123.4
		c7.8,6.1,149.8-19.4,158.9-15.7c-7.1,5.3-466,49.5-480.9,54.4c69-18.8,600.7-11.2,664.9-4.2"/>
	
		<path opacity="0" fill="none" stroke="#27AAE1" stroke-width="47.0454" stroke-linecap="round" stroke-linejoin="round" stroke-miterlimit="10" d="
		M370.8,460.3c-66.9-2.1-151.6,140.1-152.6,164.1c10.1-4.6,163.2-163.4,221.6-161c-7.7,9-219.5,203.6-218.6,221.6
		c15.8,50.2,196.6-205.9,281.3-215.4c37.6,11.5-282.3,244.6-271.2,291.9c11.7-0.1,296.3-264.8,316.1-298.2
		C648.8,470.8,260.1,774.7,262,799c20.8,10.7,212.6-294.1,363.8-330.4c52.3-12.5-284.3,283.7-269.7,272.9
		c32.3-24,312.9-277.6,325.1-272.9c26.1,35.5-390.5,339.6-398.4,369.1c12.1-0.5,42.1,17.5,50.3,9.3c39.7-39.6,338.5-332.5,369-341.9
		c26.1,56.5-348.3,330.8-351.3,356.5c12.2-0.7,359.1-298.8,388.2-302.1c-9.1,13.9-368.9,326.7-368.3,333.2
		C388.3,882,752.3,680.9,745,604.6C695.3,628.1,424.9,872.1,418.8,890c9,2.3,318.6-228.4,334.5-230c1,73.2-294.7,226.1-304.2,233.1
		C418.9,915.4,747,701.8,755.7,706.2c-5.9,9-257.6,170.9-263.7,183.8c141.1-14.6,281-174.5,289.6-166.9
		c-6.1,20.8-80.5,131.4-150.6,144.9"/>
</g>
</svg>
