<?xml version="1.0" encoding="utf-8"?>
<!-- Generator: Adobe Illustrator 25.2.1, SVG Export Plug-In . SVG Version: 6.00 Build 0)  -->
<!DOCTYPE svg PUBLIC "-//W3C//DTD SVG 1.1//EN" "http://www.w3.org/Graphics/SVG/1.1/DTD/svg11.dtd" [
	<!ENTITY ns_extend "http://ns.adobe.com/Extensibility/1.0/">
	<!ENTITY ns_ai "http://ns.adobe.com/AdobeIllustrator/10.0/">
	<!ENTITY ns_graphs "http://ns.adobe.com/Graphs/1.0/">
	<!ENTITY ns_vars "http://ns.adobe.com/Variables/1.0/">
	<!ENTITY ns_imrep "http://ns.adobe.com/ImageReplacement/1.0/">
	<!ENTITY ns_sfw "http://ns.adobe.com/SaveForWeb/1.0/">
	<!ENTITY ns_custom "http://ns.adobe.com/GenericCustomNamespace/1.0/">
	<!ENTITY ns_adobe_xpath "http://ns.adobe.com/XPath/1.0/">
]>
<svg version="1.1" id="Layer_1" xmlns:x="&ns_extend;" xmlns:i="&ns_ai;" xmlns:graph="&ns_graphs;"
	 xmlns="http://www.w3.org/2000/svg" xmlns:xlink="http://www.w3.org/1999/xlink" x="0px" y="0px" width="1000px" height="1000px"
	 viewBox="0 0 1000 1000" enable-background="new 0 0 1000 1000" xml:space="preserve">
<metadata>
	<sfw  xmlns="&ns_sfw;">
		<slices></slices>
		<sliceSourceBounds  bottomLeftOrigin="true" height="807.8" width="856" x="64.1" y="101.1"></sliceSourceBounds>
	</sfw>
</metadata>
<g id="vs-secondary">
	<path fill="#F1F2F2" d="M839.4,137c-10.8,0-10.8,16.8,0,16.8S850.2,137,839.4,137z"/>
	<path fill="#F1F2F2" d="M395.3,107.4c-10.8,0-10.8,16.8,0,16.8C406.2,124.2,406.2,107.4,395.3,107.4z"/>
	<path fill="#F1F2F2" d="M893.2,388.6c-10.8,0-10.8,16.8,0,16.8C904.1,405.5,904.1,388.6,893.2,388.6z"/>
	<path fill="#F1F2F2" d="M909.4,698.1c-10.8,0-10.8,16.8,0,16.8S920.2,698.1,909.4,698.1z"/>
	<path fill="#F1F2F2" d="M694.1,780.2c-10.8,0-10.8,16.8,0,16.8C704.9,797.1,704.9,780.2,694.1,780.2z"/>
	<path fill="#F1F2F2" d="M485.5,875.8c-10.8,0-10.8,16.8,0,16.8S496.3,875.8,485.5,875.8z"/>
	<path fill="#F1F2F2" d="M89.9,698.1c-10.8,0-10.8,16.8,0,16.8S100.7,698.1,89.9,698.1z"/>
	<path fill="#F1F2F2" d="M165.2,427.7c-10.8,0-10.8,16.8,0,16.8S176.1,427.7,165.2,427.7z"/>
	<path fill="#F1F2F2" d="M130.2,220.4c-10.8,0-10.8,16.8,0,16.8S141.1,220.4,130.2,220.4z"/>
</g>
<g id="vs-primary">
	<path fill="#F1F2F2" d="M488.2,448.2c0.9-2.1,2.2-3.9,3.5-5.8c1.3-1.8,2.6-3.6,4-5.4c2.7-3.6,5.5-7.1,8.3-10.5
		c5.6-6.9,11.4-13.7,17.3-20.3c11.7-13.3,23.8-26.2,36.1-39c24.7-25.4,50.2-49.8,76.4-73.5s53-46.6,80.8-68.5
		c13.9-11,27.9-21.7,42.4-32.1c7.2-5.2,14.5-10.3,21.9-15.2c3.7-2.5,7.4-4.9,11.2-7.3c1.9-1.2,3.8-2.3,5.7-3.5
		c1-0.6,1.9-1.1,2.9-1.6c0.5-0.3,1-0.5,1.5-0.8c0.3-0.1,0.5-0.2,0.8-0.3c0.1-0.1,0.3-0.1,0.4-0.1c0.1,0,0.3-0.1,0.4,0
		c-0.1-0.1-0.2,0.1-0.4,0.1c-0.1,0.1-0.2,0.2-0.3,0.3c-0.2,0.2-0.4,0.4-0.6,0.6c-0.4,0.4-0.8,0.8-1.2,1.2c-0.8,0.8-1.5,1.6-2.3,2.4
		l-4.5,4.9l-9,9.8c-6,6.5-12,13-18.1,19.5c-12.1,12.9-24.5,25.5-37,37.9c-25,24.9-50.7,49.1-76.8,72.7c-13.1,11.8-26.3,23.5-39.6,35
		c-6.7,5.8-13.4,11.5-20.1,17.1l-10.1,8.5l-10.2,8.4c-13.7,11.2-27.4,22.2-41.4,33c-7,5.4-14,10.8-21.1,16.1l-10.6,8
		c-1.8,1.3-3.5,2.7-5.3,4c-0.9,0.7-1.7,1.4-2.6,2.1C489.8,446.7,488.9,447.3,488.2,448.2z"/>
	<path fill="#F1F2F2" d="M641.6,720c4,0.1,7.2,0.9,10.2,1.9s5.7,2.3,8.2,3.7c5,2.9,9,6.6,12.4,10.8c3.3,4.2,5.9,8.9,7.7,14.3
		c0.9,2.7,1.5,5.6,1.9,8.7c0.2,1.6,0.3,3.2,0.3,4.9s-0.1,3.5-0.3,5.5c-2-0.1-3.8-0.3-5.5-0.7c-1.7-0.3-3.2-0.8-4.8-1.3
		c-3-1-5.7-2.3-8.2-3.8c-4.9-3-8.9-6.6-12.2-10.8s-5.9-8.9-7.7-14.2c-0.9-2.7-1.6-5.5-2-8.6c-0.2-1.6-0.3-3.2-0.4-4.9
		C641.3,723.8,641.3,722,641.6,720z"/>
	<path fill="#F1F2F2" d="M145,234.2c4.3,0.9,8.5,2.1,12.6,3.4c4.1,1.2,8.2,2.6,12.1,4c8,2.8,15.8,5.8,23.5,9
		c15.4,6.5,30.4,13.8,45.1,22.1c14.6,8.3,28.8,17.7,42,28.8c3.3,2.8,6.5,5.6,9.6,8.7c1.6,1.5,3.1,3.1,4.6,4.6
		c1.5,1.6,2.9,3.3,4.4,4.9l2.1,2.5c0.7,0.9,1.4,1.6,2.1,2.6c1.3,1.8,2.6,3.6,3.8,5.4c0.6,0.9,1.2,1.8,1.8,2.7l1.6,2.9
		c1,2,2.1,3.9,2.9,5.9c-7.9-4-15-8.1-22.6-11.7c-1.9-0.9-3.6-1.9-5.5-2.8s-3.7-1.8-5.5-2.7c-3.6-1.9-7.4-3.6-11-5.5
		c-14.6-7.3-29.2-14.9-43.6-23.1c-14.4-8.2-28.6-17.1-42.1-27.1c-6.8-5-13.4-10.3-19.8-16c-3.2-2.9-6.3-5.8-9.3-8.9
		C150.7,240.9,147.8,237.7,145,234.2z"/>
	<path fill="#F1F2F2" d="M660.4,430.7c2.2-0.9,4.3-1.5,6.4-2.3c2.1-0.8,4.2-1.6,6.3-2.3l6.3-2.3c2.1-0.7,4.2-1.4,6.3-2.1
		c8.4-2.8,16.9-5.4,25.3-7.7c17-4.7,34.1-8.4,51.5-11.3c17.3-2.9,34.8-4.9,52.5-5.8c8.9-0.4,17.8-0.5,26.8-0.2
		c4.5,0.2,9,0.5,13.5,0.9s9.1,1.1,13.6,2c-4.2,2.1-8.4,3.7-12.6,5.4c-4.2,1.7-8.4,3.2-12.6,4.7c-8.4,3-16.8,5.6-25.3,8
		c-17,4.8-34.2,8.5-51.5,11.4c-17.4,2.8-34.9,4.9-52.6,5.6c-8.9,0.4-17.8,0.4-26.8-0.1c-4.5-0.3-9-0.6-13.6-1.2
		c-2.3-0.3-4.6-0.7-6.8-1.1C664.9,432,662.6,431.4,660.4,430.7z"/>
	<path fill="#F1F2F2" d="M503,508.7c0.5-0.3,1.1-0.3,1.7-0.3s1.2,0,1.8,0c1.2,0.1,2.3,0.3,3.5,0.4c2.3,0.4,4.5,0.9,6.8,1.4
		c4.5,1.1,8.9,2.2,13.3,3.5c8.8,2.5,17.4,5.4,26.1,8.4c17.2,6,34.1,12.6,50.9,19.4c33.5,13.8,66.4,28.9,98.8,44.9
		c32.4,16,64.3,33,95.7,51c15.7,9,31.2,18.3,46.6,27.9c7.7,4.8,15.3,9.7,22.9,14.8c7.6,5,15.1,10.2,22.5,15.6
		c-8.7-2.7-17.3-5.8-25.8-8.9c-8.5-3.1-17-6.4-25.4-9.7c-16.9-6.6-33.5-13.6-50.1-20.8c-33.1-14.4-65.8-29.8-98.1-45.8
		c-16.2-8-32.2-16.2-48.2-24.5c-8-4.2-16-8.4-23.9-12.6l-11.9-6.4l-11.9-6.5c-15.8-8.7-31.6-17.5-47.2-26.5l-23.5-13.5
		c-3.9-2.2-7.9-4.5-11.8-6.6c-2-1.1-4-2.1-6-3.1c-1-0.5-2-1-3.1-1.4c-0.5-0.2-1-0.4-1.6-0.6C504.1,508.8,503.5,508.7,503,508.7z"/>
	<path fill="#F1F2F2" d="M412.8,468.4c-5.1,0.4-10.2,0.5-15.2,0.5s-10-0.1-15-0.3c-9.9-0.4-19.8-1.2-29.6-2.1
		c-19.6-2-38.8-4.7-57.8-7.5c-19.1-2.9-38.3-5.7-57.6-9.5c-9.6-1.9-19.3-4.1-28.9-6.7c-4.8-1.3-9.6-2.7-14.4-4.2
		c-4.8-1.5-9.6-3.1-14.3-5.1c5-1,10-1.8,15-2.4s10-1.1,14.9-1.5c9.9-0.8,19.8-1.2,29.7-1.2c5,0,9.9,0,14.9,0.2
		c4.9,0.1,9.9,0.4,14.9,0.7c5,0.3,9.9,0.8,14.9,1.3c5,0.6,9.9,1.1,14.9,1.9c19.8,3,39.2,7.5,58.1,13.5c9.5,3,18.8,6.3,28.1,10
		c4.6,1.9,9.2,3.8,13.8,5.9C403.8,463.7,408.3,465.9,412.8,468.4z"/>
	<path fill="#F1F2F2" d="M402,515.5c-4.9,4.8-10.1,9.3-15.3,13.7c-5.2,4.4-10.5,8.6-15.8,12.8s-10.7,8.3-16.1,12.3
		c-5.4,4.1-10.9,8-16.3,11.9c-22,15.6-44.5,30.1-67.4,44s-46.3,27-70.2,39.3c-6,3.1-12,6.1-18,9l-9.1,4.4l-9.1,4.3l-9.2,4.2
		c-3.1,1.4-6.2,2.8-9.3,4.1c-3.1,1.4-6.2,2.7-9.3,4.1l-2.4,1l-2.3,1c-1.5,0.7-3.1,1.4-4.7,2.1c1.1-1.3,2.3-2.5,3.5-3.8l1.8-1.9
		l1.8-1.8c2.5-2.3,5-4.7,7.5-7c5.1-4.5,10.3-8.9,15.5-13.2c5.3-4.2,10.6-8.5,16-12.5c5.4-4.1,10.8-8.1,16.3-12.1
		c21.9-15.8,44.4-30.4,67.4-44.3c23-13.9,46.4-27,70.5-39.1c6-3,12-6,18.1-8.9s12.2-5.7,18.4-8.5c6.2-2.7,12.4-5.4,18.7-8
		C389.2,520.2,395.5,517.7,402,515.5z"/>
	<path fill="#F1F2F2" d="M455.9,520.9c2.7,14.2,5,28.2,7.2,42.3c0.3,1.8,0.5,3.5,0.8,5.3l0.8,5.3c0.6,3.5,1,7,1.5,10.5
		c1,7,2,14.1,2.9,21.1c3.6,28.1,6.4,56.3,8.6,84.5s3.8,56.4,4.6,84.8l0.3,10.6l0.2,10.6c0,3.5,0.1,7.1,0.2,10.6v5.3l0.1,5.3v21.3
		c0,1.8,0,3.6,0,5.4c0,1.8-0.1,3.6,0,5.4c0,3.6,0,7.2-0.1,10.8c-1.4-3.3-2.7-6.7-3.9-10.1c-1.2-3.4-2.3-6.9-3.3-10.3
		c-2.2-6.9-3.9-13.9-5.7-20.8c-1.8-7-3.2-14-4.7-21s-2.7-14-4-21.1c-4.8-28.1-8.1-56.4-10.4-84.8c-2.1-28.4-3.2-56.8-2.8-85.4
		c0.1-7.1,0.2-14.3,0.6-21.4c0.3-7.1,0.7-14.3,1.3-21.4c0.6-7.2,1.2-14.3,2.2-21.4c0.5-3.6,0.9-7.1,1.6-10.7
		C454.4,527.9,455.1,524.4,455.9,520.9z"/>
	<path fill="#F1F2F2" d="M429,422.6c-0.9-1.2-1.9-2.3-2.6-3.6l-1.2-1.9c-0.4-0.6-0.8-1.3-1.1-2c-0.7-1.3-1.4-2.7-2-4
		s-1.2-2.7-1.8-4.1c-2.3-5.5-4.3-11.1-6-16.7c-1.8-5.6-3.3-11.3-4.7-16.9c-1.5-5.7-2.7-11.3-3.9-17c-4.6-22.8-7.6-45.7-9.6-68.6
		c-1.9-22.9-2.8-45.9-2.7-68.9c0.1-5.8,0.2-11.5,0.4-17.3c0.2-5.8,0.5-11.5,0.8-17.3c0.4-5.8,0.8-11.6,1.4-17.4
		c0.6-5.8,1.2-11.6,2.1-17.5c2.1,5.6,3.8,11.2,5.4,16.8s3,11.3,4.3,16.9l1.9,8.5c0.6,2.8,1.2,5.7,1.7,8.5c1.1,5.7,2.2,11.4,3.1,17
		c3.8,22.7,6.4,45.5,8.3,68.3c1.9,22.8,3.1,45.6,3.7,68.4c0.1,5.7,0.3,11.4,0.4,17.1l0.3,17.1c0,5.7,0.2,11.4,0.3,17.2
		c0.1,1.4,0.1,2.8,0.2,4.3c0.1,1.4,0.2,2.8,0.3,4.3c0,1.5,0.3,2.8,0.4,4.3c0,0.7,0.2,1.4,0.3,2.1L429,422.6z"/>
</g>
<g id="vs-reveal" opacity="0">
	
		<path fill="none" stroke="#231F20" stroke-width="53.8268" stroke-linecap="round" stroke-linejoin="round" stroke-miterlimit="10" enable-background="new    " d="
		M488.2,448.2c1-2,10-10.6,24.5-23.8c14.5-13.1,34.5-30.8,57.6-50.9c15.1-13.1,31.5-27.3,48.5-42c17-14.6,34.6-29.7,52.2-44.7
		c15.2-13,30.4-25.9,45.1-38.3c14.7-12.4,28.8-24.4,42-35.5c24.3-20.4,45.4-37.9,60.4-50.2s24.2-19.3,24.5-18.8"/>
	
		<path fill="none" stroke="#231F20" stroke-width="53.8268" stroke-linecap="round" stroke-linejoin="round" stroke-miterlimit="10" enable-background="new    " d="
		M429,422.6c-2.5-5-4.9-14.9-7.1-28.1c-2.3-13.2-4.4-29.8-6.4-48.4c-1.3-11.6-2.5-24-3.7-36.8s-2.3-26.1-3.4-39.5
		c-1.1-13.5-2.2-27.2-3.2-40.5s-2-26.5-3-39.1c-1.1-14.3-2.2-27.8-3.2-40c-1-12.2-2-23.2-3-32.3"/>
	
		<path fill="none" stroke="#231F20" stroke-width="53.8268" stroke-linecap="round" stroke-linejoin="round" stroke-miterlimit="10" enable-background="new    " d="
		M313.2,341.9c-9-9.9-21.3-19.7-35.6-29.5c-14.3-9.7-30.7-19.4-47.9-29.2c-14-8-28.5-16-42.9-24.2c-14.3-8.2-28.5-16.4-41.8-24.9"/>
	
		<path fill="none" stroke="#231F20" stroke-width="53.8268" stroke-linecap="round" stroke-linejoin="round" stroke-miterlimit="10" enable-background="new    " d="
		M412.8,468.4c-26.7-5.8-47.5-10.3-65-13.8c-17.6-3.5-31.9-6.1-45.5-8.2c-16.3-2.5-31.7-4.3-50.6-6.3c-18.9-1.9-41.3-3.9-71.6-6.7"
		/>
	
		<path fill="none" stroke="#231F20" stroke-width="53.8268" stroke-linecap="round" stroke-linejoin="round" stroke-miterlimit="10" enable-background="new    " d="
		M402,515.5c-5.6,3.4-15.1,9.2-27.5,16.6s-27.6,16.5-44.5,26.6c-13.3,7.9-27.6,16.5-42.5,25.3s-30.1,18-45.3,27.1
		c-14,8.4-27.9,16.7-41.4,24.8s-26.4,15.9-38.4,23.2c-18.5,11.2-34.7,21.2-47.2,29c-12.4,7.8-21.1,13.4-24.3,16"/>
	
		<path fill="none" stroke="#231F20" stroke-width="53.8268" stroke-linecap="round" stroke-linejoin="round" stroke-miterlimit="10" enable-background="new    " d="
		M455.9,520.9c-0.2,8-0.1,19.4,0.3,33.3s1.1,30.4,2.1,48.4c0.7,13.9,1.6,28.6,2.6,43.9s2.1,30.9,3.2,46.7
		c1.2,15.7,2.4,31.4,3.7,46.6c1.3,15.3,2.6,30.2,4,44.2c1.9,19.6,3.8,37.5,5.7,52.6s3.8,27.3,5.5,35.5"/>
	
		<path fill="none" stroke="#231F20" stroke-width="53.8268" stroke-linecap="round" stroke-linejoin="round" stroke-miterlimit="10" enable-background="new    " d="
		M641.6,720c7,8.1,15.4,19,23.8,29.9c8.4,10.9,16.7,21.9,23.6,30.1"/>
	
		<path fill="none" stroke="#231F20" stroke-width="53.8268" stroke-linecap="round" stroke-linejoin="round" stroke-miterlimit="10" enable-background="new    " d="
		M503,508.7c2.2-0.9,13.8,3.3,31.6,11.1c17.8,7.7,42,18.9,69.4,32c14.1,6.8,29.2,14,44.6,21.6s31.4,15.4,47.4,23.3
		c18.3,9.1,36.6,18.2,54.4,27.1c17.8,8.9,35,17.5,51,25.6c21.8,11,41.4,20.9,57.2,28.9c15.8,8,27.9,14.1,34.6,17.5"/>
	
		<path fill="none" stroke="#231F20" stroke-width="53.8268" stroke-linecap="round" stroke-linejoin="round" stroke-miterlimit="10" enable-background="new    " d="
		M660.4,430.7c6.3,0.2,21.9-1.9,42.4-5.1c20.4-3.2,45.6-7.6,71.1-12.1c22.4-3.9,45-7.9,64.7-11.3s36.5-6,47.4-7.2"/>
</g>
</svg>
