<?xml version="1.0" encoding="utf-8"?>
<!-- Generator: Adobe Illustrator 25.2.1, SVG Export Plug-In . SVG Version: 6.00 Build 0)  -->
<svg version="1.1" id="Layer_1" xmlns="http://www.w3.org/2000/svg" xmlns:xlink="http://www.w3.org/1999/xlink" x="0px" y="0px"
	 width="1000px" height="1000px" viewBox="0 0 1000 1000" enable-background="new 0 0 1000 1000" xml:space="preserve">
<g id="vs-primary">
	<path fill="#3ACE95" d="M86.8,515.6c-11-10.1-19.8-23.8-22.8-35.8c-6-23.4,8.7-47.5,32.7-53.6c4-1,8-1.5,12.4-1.4
		c-0.2,1.4-0.4,2.8-0.4,4.3c-0.9,17.4,7.4,39.9,19.9,53.6c6.5,7.1,13.7,11.5,21,12.7c-5,18.1-14.9,30.6-26.7,33.6l0,0h-0.4
		c-0.3,0-0.6,0.1-0.9,0.3C107.4,532,93.7,522,86.8,515.6z"/>
	<path fill="#3ACE95" d="M121.8,538.7c-0.1-1.4-0.2-3.1-0.1-4.6c0.6-0.8,1.2-1.6,1.9-2.4c0,0,0,0.1,0.1,0.1c2,1.6,3.6,4.2,4.7,6.1
		c0.7,1.1,1.1,1.9,1.4,2.3l-0.1,0.7c-1.7-0.2-2.5-0.9-3-1.4l0,0l-0.1-0.1c-0.2-0.2-0.4-0.4-0.7-0.5c-0.5-0.2-1,0-1.3,0.5
		c-0.2,0.4-0.6,0.9-0.8,1.4c-0.7,1.3-1.5,2.7-2,2.7h-0.1l0,0l0,0C122,542.6,122,541.3,121.8,538.7z"/>
	<path fill="#3ACE95" d="M253.5,419.5L235,441.9c0,0-15.9-12.7-25.9-14.7c-4-15-0.5-41.1,1-45.2c1.4-4.1,4.4-14,15-18.8
		C227.5,404.2,253.5,419.5,253.5,419.5z"/>
	<path fill="#3ACE95" d="M256.7,506.3c-11-10.1-19.8-23.8-22.8-35.8c-6-23.4,8.7-47.5,32.7-53.6c4-1,8-1.5,12.4-1.4
		c-0.2,1.4-0.4,2.8-0.4,4.3c-0.9,17.4,7.4,39.9,19.9,53.6c6.5,7.1,13.7,11.5,21,12.7c-5,18.1-14.9,30.6-26.7,33.6l0,0h-0.4
		c-0.3,0-0.6,0.1-0.9,0.3C277.3,522.7,263.7,512.7,256.7,506.3z"/>
	<path fill="#3ACE95" d="M291.8,529.4c-0.1-1.4-0.2-3.1-0.1-4.6c0.6-0.8,1.2-1.6,1.9-2.4c0,0,0,0.1,0.1,0.1c2,1.6,3.6,4.2,4.7,6.1
		c0.7,1.1,1.1,1.9,1.4,2.3l-0.1,0.7c-1.7-0.2-2.5-0.9-3-1.4l0,0l-0.1-0.1c-0.2-0.2-0.4-0.4-0.7-0.5c-0.5-0.2-1,0-1.3,0.5
		c-0.2,0.4-0.6,0.9-0.8,1.4c-0.7,1.3-1.5,2.7-2,2.7h-0.1l0,0l0,0C292,533.3,292,532,291.8,529.4z"/>
	<path fill="#3ACE95" d="M620.6,538.8c-0.2-0.2-0.5-0.4-0.9-0.3h-0.4l0,0c-11.8-3-21.7-15.5-26.7-33.6c7.4-1.2,14.6-5.6,21-12.7
		c2.3-2.6,4.5-5.4,6.5-8.5c8.8,21.1,23.5,31.6,43.5,32.7c-2.6,3.1-5.3,6.1-8.3,8.8C648.4,531.6,634.8,541.6,620.6,538.8z"/>
	<path fill="#3ACE95" d="M620.6,553.1L620.6,553.1L620.6,553.1L620.6,553.1c-0.6,0-1.4-1.4-2.1-2.7c-0.2-0.5-0.6-1.1-0.8-1.4
		c-0.3-0.4-0.8-0.6-1.3-0.5c-0.3,0.1-0.5,0.3-0.7,0.5l-0.1,0.1l0,0c-0.5,0.5-1.3,1.2-3,1.4l-0.1-0.7c0.3-0.5,0.8-1.2,1.4-2.3
		c1.2-1.9,2.8-4.6,4.7-6.1c0,0,0,0,0.1-0.1c0.7,0.8,1.3,1.6,1.9,2.4c0.1,1.5,0,3.2-0.1,4.6C620.1,550.9,620.1,552.3,620.6,553.1z"/>
	<path fill="#3ACE95" d="M525.9,380.4c2.6,3.3,4.6,7.1,6.1,11.1c4.6,12.5,5,30.2,1,45.2c-3.2-21.7-10.8-32.8-20.7-38L525.9,380.4z"
		/>
	<path fill="#3ACE95" d="M472.9,496.3c-0.2-0.2-0.5-0.4-0.9-0.3h-0.4l0,0c-11.8-3-21.7-15.5-26.7-33.6c7.4-1.2,14.6-5.6,21-12.7
		c12.4-13.7,20.8-36.2,19.9-53.6c0-1.4-0.2-2.9-0.4-4.3c4.3,0,8.4,0.4,12.4,1.4c24,6.1,38.6,30.2,32.7,53.6
		c-3.1,12-11.8,25.7-22.8,35.8C500.6,489.2,487,499.2,472.9,496.3z"/>
	<path fill="#3ACE95" d="M472.8,510.6L472.8,510.6L472.8,510.6h-0.1c-0.5,0-1.3-1.4-2-2.7c-0.2-0.5-0.6-1.1-0.8-1.4
		c-0.3-0.4-0.8-0.6-1.3-0.5c-0.3,0.1-0.5,0.3-0.7,0.5l-0.1,0.1l0,0c-0.5,0.5-1.3,1.2-3,1.4l-0.1-0.7c0.3-0.5,0.8-1.2,1.4-2.3
		c1.2-1.9,2.8-4.6,4.7-6.1c0,0,0,0,0.1-0.1c0.7,0.8,1.3,1.6,1.9,2.4c0.1,1.5,0,3.2-0.1,4.6C472.3,508.5,472.3,509.8,472.8,510.6z"/>
	<path fill="#3ACE95" d="M326.9,323.7c4-1.5,8-2.4,12.1-2.8c0.1,0,0.3,0,0.4,0c0,0,0.1,0,0.2,0c7.5-0.5,15,0.8,22,4
		c10.6,4.8,18.6,13.5,22.7,24.2c4.6,12.5,5,30.2,1,45.2c-10,2-19,7-25.9,14.7c-4.1,4.6-7.2,9.7-9.2,15.3c-21-3.2-43.2-25.5-50-43.7
		C291.8,357.9,303.8,332.4,326.9,323.7z"/>
	<path fill="#3ACE95" d="M736.5,510.5c-0.2-0.2-0.5-0.4-0.9-0.3h-0.4l0,0c-11.8-3-21.7-15.5-26.7-33.6c7.4-1.2,14.6-5.6,21-12.7
		c12.4-13.7,20.8-36.2,19.9-53.6c0-1.4-0.2-2.9-0.4-4.3c4.3,0,8.4,0.4,12.4,1.4c24,6.1,38.6,30.2,32.7,53.6
		c-3.1,12-11.8,25.7-22.8,35.8C764.3,503.3,750.6,513.4,736.5,510.5z"/>
	<path fill="#3ACE95" d="M736.5,524.8L736.5,524.8L736.5,524.8L736.5,524.8c-0.6,0-1.4-1.4-2.1-2.7c-0.2-0.5-0.6-1.1-0.8-1.4
		c-0.3-0.4-0.8-0.6-1.3-0.5c-0.3,0.1-0.5,0.3-0.7,0.5l-0.1,0.1l0,0c-0.5,0.5-1.3,1.2-3,1.4l-0.1-0.7c0.3-0.5,0.8-1.2,1.4-2.3
		c1.2-1.9,2.8-4.6,4.7-6.1c0,0,0,0,0.1-0.1c0.7,0.8,1.3,1.6,1.9,2.4c0.1,1.5,0,3.2-0.1,4.6C736,522.6,736,524,736.5,524.8z"/>
	<path fill="#3ACE95" d="M590.5,337.9c4-1.5,8-2.4,12.1-2.8c0.1,0,0.3,0,0.4,0c0,0,0.1,0,0.2,0c7.5-0.5,15,0.8,22,4
		c10.6,4.8,18.6,13.5,22.7,24.2c4.6,12.5,5,30.2,1,45.2c-10,2-19,7-25.9,14.7c-4.1,4.6-7.2,9.7-9.2,15.3c-21-3.2-43.2-25.5-50-43.7
		C555.4,372.1,567.4,346.6,590.5,337.9z"/>
	<path fill="#3ACE95" d="M873,520.7c-0.2-0.2-0.5-0.4-0.9-0.3h-0.4l0,0c-11.8-3-21.7-15.5-26.7-33.6c7.4-1.2,14.6-5.6,21-12.7
		c12.4-13.7,20.8-36.2,19.9-53.6c0-1.4-0.2-2.9-0.4-4.3c4.3,0,8.4,0.4,12.4,1.4c24,6.1,38.6,30.2,32.7,53.6
		c-3.1,12-11.8,25.7-22.8,35.8C900.8,513.5,887.2,523.5,873,520.7z"/>
	<path fill="#3ACE95" d="M873,535L873,535L873,535L873,535c-0.6,0-1.4-1.4-2.1-2.7c-0.2-0.5-0.6-1.1-0.8-1.4
		c-0.3-0.4-0.8-0.6-1.3-0.5c-0.3,0.1-0.5,0.3-0.7,0.5L868,531l0,0c-0.5,0.5-1.3,1.2-3,1.4l-0.1-0.7c0.3-0.5,0.8-1.2,1.4-2.3
		c1.2-1.9,2.8-4.6,4.7-6.1c0,0,0,0,0.1-0.1c0.7,0.8,1.3,1.6,1.9,2.4c0.1,1.5,0,3.2-0.1,4.6C872.5,532.8,872.5,534.2,873,535z"/>
	<path fill="#3ACE95" d="M774.3,410.6c2.2,6,13.6-24,13.9-16.5c0.3,8.2-0.6,16.7-2.7,24.5C775.5,420.6,770.3,399.8,774.3,410.6z"/>
</g>
<g id="vs-secondary">
	<path fill="#FFCE00" d="M56.7,386.5c-2.3-11.3-0.1-22.8,6.2-32.6c6.6-10.1,16.8-17,28.8-19.5c11.9-2.5,24-0.2,34.1,6.4
		c9.7,6.4,16.4,16.2,18.7,27.4c1.1,5.3,1.4,11.6,0.8,18c-7.9,1.7-15.2,5.4-21.4,10.8c-7.6,6.8-12.7,15.6-14.6,25.4
		c-4.7-0.1-9,0.4-13.3,1.5s-8.3,2.8-12,4.8C71,418.4,59.7,401.1,56.7,386.5z"/>
	<path fill="#FFCE00" d="M240.5,492.9c-2.7,7.4-6.5,14.8-11.3,21.3c-5.6,7.6-16.9,20.2-31.4,20.2l0,0l-0.5-0.3c-0.3-0.2-0.7-0.2-1,0
		l-0.4,0.2c-7.4-0.6-14.9-4.7-21.6-12c0-0.4-0.3-0.7-0.7-0.9h-0.1c-6.5-7.3-11.7-17.1-15-27.2c0-0.1,0-0.2,0-0.3
		c0-0.2-0.1-0.3-0.2-0.5c-2.5-8-3.8-16.2-3.5-23.4c0.6-11.7,5.8-22.5,14.6-30.3c8.3-7.4,18.9-11.3,30-11.3c0.8,0,1.5,0,2.3,0
		c12.2,0.6,23.4,5.9,31.5,14.8C241.1,452,220,442.3,240.5,492.9z"/>
	<path fill="#FFCE00" d="M199.7,548c-1.5-0.8-1.9-1.7-2.3-2.3c-0.1-0.2-0.2-0.4-0.3-0.5c-0.1-0.3-0.3-0.5-0.6-0.6
		c-0.5-0.2-0.9,0-1.3,0.3c-0.2,0.2-0.5,0.4-0.7,0.5c-0.1,0.1-0.3,0.2-0.5,0.4c-1.1,0.9-2.2,1.7-2.7,1.7c-0.1,0-0.2,0-0.2,0l0,0
		c0.7-0.6,1.2-1.9,1.9-4.1v-0.2c0.7-2.3,1.7-5.3,3.4-6.5l0,0c0.3,0,0.5,0,0.8,0l0,0c0,0.2,0,0.4,0.2,0.6c1.4,2.2,1.8,5.3,2.2,7.5
		v0.3c0.2,1,0.3,1.8,0.4,2.2L199.7,548z"/>
	<path fill="#FFCE00" d="M226.6,377.2c-2.3-11.3-0.1-22.8,6.2-32.6c6.6-10.1,16.8-17,28.8-19.5c11.9-2.5,24-0.2,34.1,6.4
		c2.1,1.4,6.8,5.2,8.6,6.9c-6.9,14.1-8.5,29.3-5.5,45.5c-1.7,1.2-3.4,2.4-5,3.8c-7.6,6.8-12.7,15.6-14.6,25.4
		c-4.7-0.1-9,0.4-13.3,1.5s-8.3,2.8-12,4.8C240.9,409.1,229.6,391.8,226.6,377.2z"/>
	<path fill="#FFCE00" d="M399.2,504.9c-5.6,7.6-16.9,20.2-31.4,20.2l-0.5-0.3c-0.3-0.2-0.7-0.2-1,0l-0.4,0.2
		c-7.4-0.6-14.9-4.7-21.6-12c0-0.4-0.3-0.7-0.7-0.9h-0.1c-6.5-7.3-11.7-17.1-15-27.2c0-0.1,0-0.2,0-0.3c0-0.2-0.1-0.3-0.2-0.5
		c-2.5-8-3.8-16.2-3.5-23.4c0.6-11.7,5.8-22.5,14.6-30.3c2-1.8,6.5-3.4,8.7-4.8C351,475.1,370.5,500.2,399.2,504.9z"/>
	<path fill="#FFCE00" d="M369.6,538.7c-1.5-0.8-1.9-1.7-2.3-2.3c-0.1-0.2-0.2-0.4-0.3-0.5c-0.1-0.3-0.3-0.5-0.6-0.6
		c-0.5-0.2-0.9,0-1.3,0.3c-0.2,0.2-0.5,0.4-0.7,0.5c-0.1,0.1-0.3,0.2-0.5,0.4c-1.1,0.9-2.2,1.7-2.7,1.7c-0.1,0-0.2,0-0.2,0l0,0
		c0.7-0.6,1.2-1.9,1.9-4.1v-0.2c0.7-2.3,1.7-5.3,3.4-6.5l0,0c0.3,0,0.5,0,0.8,0l0,0c0,0.2,0,0.4,0.2,0.6c1.4,2.2,1.8,5.3,2.2,7.5
		v0.3c0.2,1,0.3,1.8,0.4,2.2L369.6,538.7z"/>
	<path fill="#FFCE00" d="M533.5,438.2c0.8,0,8.3,0,9.1,0c11.1,0,21.7,4,30,11.3c8.8,7.9,14,18.6,14.6,30.3
		c0.4,7.3-0.9,15.4-3.5,23.4c-0.1,0.1-0.2,0.3-0.2,0.5c0,0.1,0,0.2,0,0.3c-3.3,10.1-8.6,19.9-15,27.2c0,0,0,0-0.1,0
		c-0.4,0.1-0.7,0.5-0.7,0.9c-6.7,7.3-14.1,11.4-21.6,12l-0.4-0.2c-0.3-0.2-0.7-0.2-1,0l-0.5,0.3l0,0c-14.4,0-25.8-12.6-31.4-20.2
		c-7.3-10.1-24.5-38.1-14.5-33.2C506.3,494.5,539.5,444.5,533.5,438.2z"/>
	<path fill="#FFCE00" d="M542,556.9c0.1-0.5,0.2-1.2,0.4-2.2v-0.3c0.4-2.2,0.8-5.3,2.2-7.5c0.1-0.2,0.2-0.4,0.2-0.6l0,0
		c0.3,0,0.5,0,0.8,0l0,0c1.7,1.3,2.7,4.3,3.4,6.5v0.2c0.7,2.1,1.2,3.4,1.9,4.1l0,0c0,0-0.1,0-0.2,0c-0.5,0-1.6-0.9-2.7-1.7
		c-0.2-0.1-0.3-0.2-0.5-0.4s-0.5-0.4-0.7-0.5c-0.3-0.4-0.8-0.5-1.3-0.3c-0.3,0.1-0.5,0.3-0.6,0.6c-0.1,0.1-0.2,0.3-0.3,0.5
		c-0.3,0.6-0.7,1.5-2.3,2.3L542,556.9z"/>
	<path fill="#FFCE00" d="M510.3,396c-3.7-2.1-7.7-3.7-12-4.8c-4.3-1.1-8.6-1.6-13.3-1.5c-1.9-9.7-7-18.6-14.6-25.4
		c-6.2-5.5-13.5-9.1-21.4-10.8c-0.6-6.5-0.3-12.7,0.8-18c2.3-11.3,9-21,18.7-27.4c10.1-6.6,22.2-8.9,34.1-6.4
		c11.9,2.4,22.2,9.4,28.8,19.5c6.4,9.7,8.6,21.3,6.2,32.6C534.7,368.3,523.4,385.6,510.3,396z"/>
	<path fill="#FFCE00" d="M361.1,410.5c8.1-8.9,19.2-14.2,31.5-14.8c0.8,0,1.6,0,2.3,0c11.1,0,21.7,4,30,11.3
		c8.8,7.9,14,18.6,14.6,30.3c0.4,7.3-0.9,15.4-3.5,23.4c-0.1,0.1-0.2,0.3-0.2,0.5c0,0.1,0,0.2,0,0.3c-3.3,10.1-8.6,19.9-15,27.2
		c0,0,0,0-0.1,0c-0.4,0.1-0.7,0.5-0.7,0.9c-6.7,7.3-14.1,11.4-21.6,12l-0.4-0.2c-0.3-0.2-0.7-0.2-1,0l-0.5,0.3l0,0
		c-14.4,0-25.8-12.6-31.4-20.2c-8.8-12.1-14.7-27.3-15.3-39.6l0,0C349.3,430.3,353.3,419.2,361.1,410.5z"/>
	<path fill="#FFCE00" d="M394.3,514.5c0.1-0.5,0.2-1.2,0.4-2.2V512c0.4-2.2,0.8-5.3,2.2-7.5c0.1-0.2,0.2-0.4,0.2-0.6l0,0
		c0.3,0,0.5,0,0.8,0l0,0c1.7,1.3,2.7,4.3,3.4,6.5v0.2c0.7,2.1,1.2,3.4,1.9,4.1l0,0c0,0-0.1,0-0.2,0c-0.5,0-1.6-0.9-2.7-1.7
		c-0.2-0.1-0.3-0.2-0.5-0.4s-0.5-0.4-0.7-0.5c-0.3-0.4-0.8-0.5-1.3-0.3c-0.3,0.1-0.5,0.3-0.6,0.6c-0.1,0.1-0.2,0.3-0.3,0.5
		c-0.3,0.6-0.7,1.5-2.3,2.3L394.3,514.5z"/>
	<path fill="#FFCE00" d="M910.5,420.3c-3.7-2.1-7.7-3.7-12-4.8c-4.3-1.1-8.6-1.6-13.3-1.5c-1.9-9.7-7-18.6-14.6-25.4
		c-6.2-5.5-13.5-9.1-21.4-10.8c-0.6-6.5-0.3-12.7,0.8-18c2.3-11.3,9-21,18.7-27.4c10.1-6.6,22.2-8.9,34.1-6.4
		c11.9,2.4,22.2,9.4,28.8,19.5c6.4,9.7,8.6,21.3,6.2,32.6C934.8,392.6,923.6,409.9,910.5,420.3z"/>
	<path fill="#FFCE00" d="M785.2,421c2.4-0.5,5-0.9,7.5-1c0.8,0,1.6,0,2.3,0c11.1,0,21.7,4,30,11.3c8.8,7.9,14,18.6,14.6,30.3
		c0.4,7.3-0.9,15.4-3.5,23.4c-0.1,0.1-0.2,0.3-0.2,0.5c0,0.1,0,0.2,0,0.3c-3.3,10.1-8.6,19.9-15,27.2c0,0,0,0-0.1,0
		c-0.4,0.1-0.7,0.5-0.7,0.9c-6.7,7.3-14.1,11.4-21.6,12l-0.4-0.2c-0.3-0.2-0.7-0.2-1,0l-0.5,0.3l0,0c-14.4,0-27.2-13.9-32.7-21.6
		C798,475,806.9,447.1,785.2,421z"/>
	<path fill="#FFCE00" d="M794.4,538.8c0.1-0.5,0.2-1.2,0.4-2.2v-0.3c0.4-2.2,0.8-5.3,2.2-7.5c0.1-0.2,0.2-0.4,0.2-0.6l0,0
		c0.3,0,0.5,0,0.8,0l0,0c1.7,1.3,2.7,4.3,3.4,6.5v0.2c0.7,2.1,1.2,3.4,1.9,4.1l0,0c0,0-0.1,0-0.2,0c-0.5,0-1.6-0.9-2.7-1.7
		c-0.2-0.1-0.3-0.2-0.5-0.4s-0.5-0.4-0.7-0.5c-0.3-0.4-0.8-0.5-1.3-0.3c-0.3,0.1-0.5,0.3-0.6,0.6c-0.1,0.1-0.2,0.3-0.3,0.5
		c-0.3,0.6-0.7,1.5-2.3,2.3L794.4,538.8z"/>
	<path fill="#FFCE00" d="M773.9,410.2c-3.7-2.1-7.7-3.7-12-4.8c-4.3-1.1-8.6-1.6-13.3-1.5c-1.9-9.7-7-18.6-14.6-25.4
		c-6.2-5.5-13.5-9.1-21.4-10.8c-0.6-6.5-0.3-12.7,0.8-18c2.3-11.3,9-21,18.7-27.4c10.1-6.6,22.2-8.9,34.1-6.4
		c11.9,2.4,22.2,9.4,28.8,19.5c6.4,9.7,8.6,21.3,6.2,32.6C798.3,382.5,787.1,399.8,773.9,410.2z"/>
	<path fill="#FFCE00" d="M624.7,424.7c8.1-8.9,19.2-14.2,31.5-14.8c0.8,0,1.6,0,2.3,0c11.1,0,21.7,4,30,11.3
		c8.8,7.9,14,18.6,14.6,30.3c0.4,7.3-0.9,15.4-3.5,23.4c-0.1,0.1-0.2,0.3-0.2,0.5c0,0.1,0,0.2,0,0.3c-3.3,10.1-8.6,19.9-15,27.2
		c0,0,0,0-0.1,0c-0.4,0.1-0.7,0.5-0.7,0.9c-6.7,7.3-14.1,11.4-21.6,12l-0.4-0.2c-0.3-0.2-0.7-0.2-1,0l-0.5,0.3l0,0
		c-14.4,0-25.8-12.6-31.4-20.2c-8.8-12.1-14.7-27.3-15.3-39.6l0,0C612.9,444.4,616.9,433.3,624.7,424.7z"/>
	<path fill="#FFCE00" d="M657.9,528.6c0.1-0.5,0.2-1.2,0.4-2.2v-0.3c0.4-2.2,0.8-5.3,2.2-7.5c0.1-0.2,0.2-0.4,0.2-0.6l0,0
		c0.3,0,0.5,0,0.8,0l0,0c1.7,1.3,2.7,4.3,3.4,6.5v0.2c0.7,2.1,1.2,3.4,1.9,4.1l0,0c0,0-0.1,0-0.2,0c-0.5,0-1.6-0.9-2.7-1.7
		c-0.2-0.1-0.3-0.2-0.5-0.4s-0.5-0.4-0.7-0.5c-0.3-0.4-0.8-0.5-1.3-0.3c-0.3,0.1-0.5,0.3-0.6,0.6c-0.1,0.1-0.2,0.3-0.3,0.5
		c-0.3,0.6-0.7,1.5-2.3,2.3L657.9,528.6z"/>
</g>
<g id="vs-color">
	<path fill="#27A8CB" d="M162.7,336.8c2.4-11.9,9.4-22,19.7-28.7c10.3-6.6,22.7-8.9,34.8-6.5c23.7,4.8,37.3,24.5,34.3,25.9
		c-28,13.4-24,31.1-26,32.2c-10.7,6-13.3,10.1-17.5,21.4c-2.9,7.9-4.2,17.9-3.8,27.9c-2.6,0.3-4.9,0.4-7.2,0
		c-2.3-4.2-5.3-8-8.9-11.3c-4.9-4.5-10.6-7.9-16.8-10.1C163,372.6,159.6,352.1,162.7,336.8z"/>
	<path fill="#FF5648" d="M154.5,493.4c0,0-0.1-0.1-0.2-0.1l-0.5-0.3c-0.3-0.2-0.7-0.2-1-0.1l-0.5,0.2c-0.2,0-0.3,0.1-0.5,0.2
		c-7.5-0.6-15-4.8-21.8-12.2c-11.8-13-20.1-35.4-19.3-51.9c0.6-11.7,5.8-22.5,14.6-30.3c8.9-7.9,20.4-11.9,32.4-11.3
		c22,1,39.8,17.3,42.4,38.7c-12-0.2-23.4,4-32.3,11.9c-9.3,8.3-14.8,19.6-15.4,31.9c-0.4,7.2,0.9,15.3,3.3,23.3
		C155.4,493.4,155,493.4,154.5,493.4z"/>
	<path fill="#27A8CB" d="M202.6,426.3c-0.6-5.1-2.1-10.1-4.3-14.8c0.6,0,1.3,0,2,0c1.3,0,2.7-0.1,4.1-0.3c0.4,5.2,1.1,10.4,2.4,15.3
		C205.3,426.6,203.9,426.4,202.6,426.3z"/>
	<path fill="#FF5648" d="M157.7,506.7L157.7,506.7c0,0-0.1,0.1-0.3,0.1c-0.6,0-1.6-1-2.6-2.1c-0.3-0.3-0.8-0.8-1.1-1.1
		c-0.2-0.2-0.5-0.3-0.7-0.3s-0.6,0.1-0.8,0.3c-0.1,0.1-0.2,0.3-0.3,0.4c0,0-0.1,0.1-0.1,0.2c0,0,0,0,0,0.1v0.1
		c-0.5,0.7-1,1.5-2.5,2.1l-0.2-0.6c0.2-0.5,0.5-1.4,0.8-2.8c0.6-2.3,1.4-5.1,2.8-7.2c0.1-0.1,0.1-0.3,0.2-0.4c0.4,0,0.7,0,1,0
		c1.4,1.4,1.9,4.1,2.4,6.5v0.2C156.7,504.6,157.1,506,157.7,506.7L157.7,506.7z"/>
	<path fill="#FF5648" d="M324.5,484.1c0,0-0.1-0.1-0.2-0.1l-0.5-0.3c-0.3-0.2-0.7-0.2-1-0.1l-0.5,0.2c-0.2,0-0.3,0.1-0.5,0.2
		c-7.5-0.6-15-4.8-21.8-12.2c-11.8-13-20.1-35.4-19.3-51.9c0.6-11.7,5.8-22.5,14.6-30.3c2.2-2,4.6-3.7,7.1-5.1
		c7.8,18.2,22.1,31.1,40.7,40.4c-1.9,1.2-3.6,2.6-5.3,4.1c-9.3,8.3-14.8,19.6-15.4,31.9c-0.4,7.2,0.9,15.3,3.3,23.3
		C325.4,484.1,324.9,484.1,324.5,484.1z"/>
	<path fill="#FF5648" d="M327.6,497.4L327.6,497.4c0,0-0.1,0.1-0.3,0.1c-0.6,0-1.6-1-2.6-2.1c-0.3-0.3-0.8-0.8-1.1-1.1
		c-0.2-0.2-0.5-0.3-0.7-0.3s-0.6,0.1-0.8,0.3c-0.1,0.1-0.2,0.3-0.3,0.4c0,0-0.1,0.1-0.1,0.2c0,0,0,0,0,0.1v0.1
		c-0.5,0.7-1,1.5-2.5,2.1l-0.2-0.6c0.2-0.5,0.5-1.4,0.8-2.8c0.6-2.3,1.4-5.1,2.8-7.2c0.1-0.1,0.1-0.3,0.2-0.4c0.4,0,0.7,0,1,0
		c1.4,1.4,1.9,4.1,2.4,6.5v0.2C326.6,495.3,327,496.7,327.6,497.4L327.6,497.4z"/>
	<path fill="#27A8CB" d="M564.5,400.6c-6.2,2.1-5.6,2.4-10.5,6.9c-3.6,3.3-6.5,7.1-8.9,11.3c-2.3,0.3-4.6,0.3-7.2,0
		c0.4-10.1-0.9-20-3.8-27.9c-1.8-4.9-4.4-9.4-7.7-13.3c20.1-22.7,18.3-44.7-1.5-66.3c12.1-2.5,24.5-0.2,34.8,6.5s19.2,26,19.2,26
		C570.5,339.2,553,381.2,564.5,400.6z"/>
	<path fill="#FF5648" d="M586.3,503c2.4-8,3.7-16.1,3.3-23.3c-0.6-12.3-6.1-23.7-15.4-31.9c-8.9-7.9-20.3-12.1-32.3-11.9
		c1.8-14.8,10.9-27.2,23.6-33.7c13.2,19.7,29.4,32.3,48.5,38.4c-1.7,13.2-0.1,26.8,5,40.8c0,0-4.5,6.6-7,9.3
		c-6.7,7.4-14.2,11.6-21.8,12.2c-0.1,0-0.3-0.1-0.5-0.2l-0.5-0.2c-0.4-0.1-0.7-0.1-1,0.1l-0.5,0.3c-0.1,0-0.1,0.1-0.2,0.1
		C587.2,503.1,586.7,503,586.3,503z"/>
	<path fill="#27A8CB" d="M535.5,436.3c1.3-4.9,2-10.2,2.4-15.3c1.4,0.2,2.8,0.3,4.1,0.3c0.7,0,1.4,0,2,0c-2.3,4.6-3.7,9.6-4.3,14.8
		C538.2,436,536.8,436.2,535.5,436.3z"/>
	<path fill="#FF5648" d="M584.4,516.3c0.6-0.7,1-2.1,1.4-4.4v-0.2c0.5-2.4,1.1-5.1,2.4-6.5c0.3,0,0.7,0,1,0c0,0.1,0.1,0.3,0.2,0.4
		c1.4,2,2.2,4.9,2.8,7.2c0.4,1.4,0.6,2.3,0.8,2.8l-0.2,0.6c-1.4-0.6-2-1.4-2.5-2.1V514v-0.1c0-0.1-0.1-0.2-0.1-0.2
		c0-0.1-0.1-0.2-0.3-0.4s-0.5-0.3-0.8-0.3s-0.5,0.1-0.7,0.3c-0.3,0.3-0.8,0.8-1.1,1.1c-1,1-2,2.1-2.6,2.1
		C584.5,516.4,584.5,516.4,584.4,516.3L584.4,516.3L584.4,516.3z"/>
	<path fill="#27A8CB" d="M423.1,355.1c-6.2,2.1-12,5.6-16.8,10.1c-3.6,3.3-6.5,7.1-8.9,11.3c-2.3,0.3-4.6,0.3-7.2,0
		c0.4-10.1-0.9-20-3.8-27.9c-4.2-11.4-12.7-20.4-23.8-25.5c-7.1-3.2-14.8-4.6-22.4-4.2c-2.8-23.3,13.3-45,37-49.8
		c12.1-2.5,24.5-0.2,34.8,6.5c10.3,6.6,17.3,16.8,19.7,28.7C434.8,319.3,431.4,339.8,423.1,355.1z"/>
	<path fill="#FF5648" d="M438.5,460.5c2.4-8,3.7-16.1,3.3-23.3c-0.6-12.3-6.1-23.7-15.4-31.9c-8.9-7.9-20.3-12.1-32.3-11.9
		c2.6-21.4,20.4-37.7,42.4-38.7c12-0.6,23.5,3.4,32.4,11.3c8.8,7.9,14,18.6,14.6,30.3c0.9,16.6-7.4,38.9-19.3,51.9
		c-6.7,7.4-14.2,11.6-21.8,12.2c-0.1,0-0.3-0.1-0.5-0.2l-0.5-0.2c-0.4-0.1-0.7-0.1-1,0.1l-0.5,0.3c-0.1,0-0.1,0.1-0.2,0.1
		C439.4,460.6,438.9,460.6,438.5,460.5z"/>
	<path fill="#27A8CB" d="M387.7,393.9c1.3-4.9,2-10.2,2.4-15.3c1.4,0.2,2.8,0.3,4.1,0.3c0.7,0,1.4,0,2,0c-2.3,4.6-3.7,9.6-4.3,14.8
		C390.5,393.6,389.1,393.7,387.7,393.9z"/>
	<path fill="#FF5648" d="M436.7,473.9c0.6-0.7,1-2.1,1.4-4.4v-0.2c0.5-2.4,1.1-5.1,2.4-6.5c0.3,0,0.7,0,1,0c0,0.1,0.1,0.3,0.2,0.4
		c1.4,2,2.2,4.9,2.8,7.2c0.4,1.4,0.6,2.3,0.8,2.8l-0.2,0.6c-1.4-0.6-2-1.4-2.5-2.1v-0.1v-0.1c0-0.1-0.1-0.2-0.1-0.2
		c0-0.1-0.1-0.2-0.3-0.4c-0.2-0.2-0.5-0.3-0.8-0.3s-0.5,0.1-0.7,0.3c-0.3,0.3-0.8,0.8-1.1,1.1c-1,1-2,2.1-2.6,2.1
		C436.8,474,436.7,473.9,436.7,473.9L436.7,473.9L436.7,473.9z"/>
	<path fill="#27A8CB" d="M823.3,379.4c-6.2,2.1-12,5.6-16.8,10.1c-3.6,3.3-6.5,7.1-8.9,11.3c-2.3,0.3-4.6,0.3-7.2,0
		c0.1-2.2,0.1-4.4,0-6.5c31.5-40.9,0.9-84.4-43.5-79.8c14.1-14.8,6.8-16.4,30.5-21.2c12.1-2.5,24.5-0.2,34.8,6.5
		c10.3,6.6,17.3,16.8,19.7,28.7C834.9,343.6,831.5,364.1,823.3,379.4z"/>
	<path fill="#FF5648" d="M838.6,484.9c2.4-8,3.7-16.1,3.3-23.3c-0.6-12.3-6.1-23.7-15.4-31.9c-8.9-7.9-20.3-12.1-32.3-11.9
		c2.6-21.4,20.4-37.7,42.4-38.7c12-0.6,23.5,3.4,32.4,11.3c8.8,7.9,14,18.6,14.6,30.3c0.9,16.6-7.4,38.9-19.3,51.9
		c-6.7,7.4-14.2,11.6-21.8,12.2c-0.1,0-0.3-0.1-0.5-0.2l-0.5-0.2c-0.4-0.1-0.7-0.1-1,0.1l-0.5,0.3c-0.1,0-0.1,0.1-0.2,0.1
		C839.5,485,839.1,484.9,838.6,484.9z"/>
	<path fill="#27A8CB" d="M787.9,418.2c1.3-4.9,2-10.2,2.4-15.3c1.4,0.2,2.8,0.3,4.1,0.3c0.7,0,1.4,0,2,0c-2.3,4.6-3.7,9.6-4.3,14.8
		C790.6,417.9,789.2,418.1,787.9,418.2z"/>
	<path fill="#FF5648" d="M836.8,498.2c0.6-0.7,1-2.1,1.4-4.4v-0.2c0.5-2.4,1.1-5.1,2.4-6.5c0.3,0,0.7,0,1,0c0,0.1,0.1,0.3,0.2,0.4
		c1.4,2,2.2,4.9,2.8,7.2c0.4,1.4,0.6,2.3,0.8,2.8l-0.2,0.6c-1.4-0.6-2-1.4-2.5-2.1v-0.1v-0.1c0-0.1-0.1-0.2-0.1-0.2
		c0-0.1-0.1-0.2-0.3-0.4c-0.2-0.2-0.5-0.3-0.8-0.3s-0.5,0.1-0.7,0.3c-0.3,0.3-0.8,0.8-1.1,1.1c-1,1-2,2.1-2.6,2.1
		C836.9,498.3,836.9,498.3,836.8,498.2L836.8,498.2L836.8,498.2z"/>
	<path fill="#27A8CB" d="M686.7,369.2c-6.2,2.1-12,5.6-16.8,10.1c-3.6,3.3-6.5,7.1-8.9,11.3c-2.3,0.3-4.6,0.3-7.2,0
		c0.4-10.1-0.9-20-3.8-27.9c-4.2-11.4-12.7-20.4-23.8-25.5c-7.1-3.2-14.8-4.6-22.4-4.2c-2.8-23.3,13.3-45,37-49.8
		c12.1-2.5,24.5-0.2,34.8,6.5c10.3,6.6,17.3,16.8,19.7,28.7C698.4,333.5,695,354,686.7,369.2z"/>
	<path fill="#FF5648" d="M702.1,474.7c2.4-8,3.7-16.1,3.3-23.3c-0.6-12.3-6.1-23.7-15.4-31.9c-8.9-7.9-20.3-12.1-32.3-11.9
		c2.6-21.4,20.4-37.7,42.4-38.7c12-0.6,23.5,3.4,32.4,11.3c8.8,7.9,14,18.6,14.6,30.3c0.9,16.6-7.4,38.9-19.3,51.9
		c-6.7,7.4-14.2,11.6-21.8,12.2c-0.1,0-0.3-0.1-0.5-0.2l-0.5-0.2c-0.4-0.1-0.7-0.1-1,0.1l-0.5,0.3c-0.1,0-0.1,0.1-0.2,0.1
		C703,474.8,702.6,474.8,702.1,474.7z"/>
	<path fill="#27A8CB" d="M651.3,408c1.3-4.9,2-10.2,2.4-15.3c1.4,0.2,2.8,0.3,4.1,0.3c0.7,0,1.4,0,2,0c-2.3,4.6-3.7,9.6-4.3,14.8
		C654.1,407.8,652.7,407.9,651.3,408z"/>
	<path fill="#FF5648" d="M700.3,488.1c0.6-0.7,1-2.1,1.4-4.4v-0.2c0.5-2.4,1.1-5.1,2.4-6.5c0.3,0,0.7,0,1,0c0,0.1,0.1,0.3,0.2,0.4
		c1.4,2,2.2,4.9,2.8,7.2c0.4,1.4,0.6,2.3,0.8,2.8l-0.2,0.6c-1.4-0.6-2-1.4-2.5-2.1v-0.1v-0.1c0-0.1-0.1-0.2-0.1-0.2
		c0-0.1-0.1-0.2-0.3-0.4c-0.2-0.2-0.5-0.3-0.8-0.3s-0.5,0.1-0.7,0.3c-0.3,0.3-0.8,0.8-1.1,1.1c-1,1-2,2.1-2.6,2.1
		C700.4,488.2,700.4,488.1,700.3,488.1L700.3,488.1L700.3,488.1z"/>
</g>
<g id="vs-shade">
	<path id="path10" fill="#FFFFFF" fill-opacity="0.4" d="M207.9,531.7c-1.4,0-2.8-0.9-3.2-2.3c-0.6-1.8,0.4-3.8,2.1-4.3
		c7.4-2.5,16.1-11.6,22.8-23.8s-12.7-24.6-14.4-32.5c-1.6-7.4,17-17.3,10.4-22.7c-1.4-1.2-1.7-3.4-0.5-4.8s3.4-1.7,4.8-0.5
		c1.4,1.1,2.7,2.4,3.8,3.8c1.8,6.7-8.9,33.4,8.3,44.9c-5.3,19-19.1,37.5-33.1,42.2C208.7,531.6,208.3,531.7,207.9,531.7z"/>
	<path id="path14" fill="#FFFFFF" fill-opacity="0.4" d="M197.1,428c-1.7,0-3.2-1.3-3.4-3.1c-0.8-7.2-22.1-13.9-27.7-19.4
		c-5.9-5.8,4.2-9.3-3.5-12.6c-1.7-0.8-2.5-2.8-1.8-4.6c0.8-1.7,2.8-2.5,4.6-1.8c7.9,3.4,16.8,7.3,23.7,14
		c6.8,6.6,10.8,14.8,11.7,23.7c0.2,1.9-1.2,3.6-3.1,3.8C197.4,428,197.2,428,197.1,428z"/>
	<path id="path18" fill="#FFFFFF" fill-opacity="0.4" d="M120.4,529.7c-1.4,0-2.8-0.9-3.3-2.4c-0.5-1.8,0.4-3.7,2.3-4.3
		c8.6-2.7,2.4-13,6.8-21.1c1.8-3.3,15.9-2,17-6.1c0.5-1.9,2.3-3,4.2-2.5s3,2.3,2.5,4.2c-4.3,16.5-14.1,27.6-28.4,32
		C121.1,529.6,120.7,529.7,120.4,529.7z"/>
	<path id="path22" fill="#FFFFFF" fill-opacity="0.4" d="M143.4,388.3c-1.9,0-3.4-1.5-3.4-3.4c-0.1-5.6-0.9-11.1-2.5-16.4
		c-1.3-4.3-21-8.1-23-11.4c-6.1-9.8,0.9-16.3-10.7-17c-1.9-0.1-3.4-1.7-3.2-3.7c0.1-1.9,1.7-3.4,3.7-3.2
		c13.8,0.8,26.9,8.5,34.2,20.2c2.3,3.7,4.3,8.1,5.7,13c1.7,5.9,2.7,12.1,2.8,18.3C147,386.7,145.5,388.2,143.4,388.3
		C143.5,388.3,143.5,388.3,143.4,388.3z"/>
	<path id="path26" fill="#FFFFFF" fill-opacity="0.4" d="M236.4,336.1c-5.6-4.2-11.6-8.2-14.1-11.9c-5-7.5,5.6-13.5-2.8-16.6
		c-1.8-0.7-2.7-2.7-2-4.4c0.7-1.8,2.7-2.7,4.4-2c9.8,3.7,18.4,10.6,24.2,19.2c1.4,2.1,4.5,4.4,5.6,6.7L236.4,336.1z"/>
	<g>
		<path opacity="0.4" enable-background="new    " d="M133.6,390.5c-3.7,2.3-9.8,6.7-15.1,14.2c-2.3,3.4-7,10.9-8.6,21.7
			c-1.9,13.1,1.9,23.5,3.8,27.9c0.3-9-4.3-17.4-11.9-21.6c-9.5-5.3-19.1-1.5-20.4-1c0.5-1.6,3.8-11.1,13.4-14.8
			c4-1.6,7.7-1.6,10-1.4c0.7-3.2,2.2-7.9,5.8-12.5C118.7,392.6,130.8,390.9,133.6,390.5z"/>
	</g>
	<g>
		<path opacity="0.4" enable-background="new    " d="M130.1,481.1c1.4,2.3,4.5,6.5,10,9.7c7.5,4.3,14.7,3.8,17.3,3.5
			c-1.7-4.3-3.8-11.5-3.7-20.5c0.1-8.2,2-14.8,3.6-18.9c-2.2,1.9-7.5,6.9-9.5,15.2c-0.9,3.9-2.8,7.3-2.4,9.7c-1.9-0.1-2.1,0-4.3,0.1
			C137,479.9,133.3,480.4,130.1,481.1z"/>
	</g>
	<g>
		<path opacity="0.4" enable-background="new    " d="M206.4,391.8c0,0-1.3,7.5-1.1,16.6c0.2,8.2,1.6,14.9,2.8,19.4
			c3.6,0.9,7.9,2.3,12.5,4.6c6.2,3,11,6.6,14.4,9.5c0-1,0-10.6-7.9-16.3c-5.1-3.8-15.7-3.2-17.5-3.1c-1.4-2.6-0.5-6-1.6-9.3
			c-3.8-11.3-0.8-21.8,0-28.8c3.2-7,6.3-14,9.5-21c-3.8,1.6-9.6,4.6-14.8,10.2c-10.4,11.1-11.5,24.6-11.6,28.8
			c1.1,0.8,2.5,2,3.8,3.7c1.3,1.6,2.2,3.2,2.7,4.4c2.2,0.3,4.4,0.6,6.5,1C206,395.2,206.4,391.8,206.4,391.8z"/>
	</g>
	<path id="path10_1_" fill="#FFFFFF" fill-opacity="0.4" d="M377.9,522.4c-1.4,0-2.8-0.9-3.2-2.3c-0.6-1.8,0.4-3.8,2.1-4.3
		c5.4-1.8,11.5-7.2,17-14.8l0.2,10.6c-4.8,5.1-9.9,8.9-14.9,10.6C378.6,522.3,378.2,522.4,377.9,522.4z"/>
	<path id="path18_1_" fill="#FFFFFF" fill-opacity="0.4" d="M290.3,520.4c-1.4,0-2.8-0.9-3.3-2.4c-0.5-1.8,0.4-3.7,2.3-4.3
		c8.6-2.7,2.4-13,6.8-21.1c1.8-3.3,15.9-2,17-6.1c0.5-1.9,2.3-3,4.2-2.5c1.9,0.5,3,2.3,2.5,4.2c-4.3,16.5-14.1,27.6-28.4,32
		C291,520.3,290.6,520.4,290.3,520.4z"/>
	<path id="path22_1_" fill="#FFFFFF" fill-opacity="0.4" d="M297.7,353.7c-5.8-2.1-12.1-4-13.2-5.8c-6.1-9.8,0.9-16.3-10.7-17
		c-1.9-0.1-3.4-1.7-3.2-3.7c0.1-1.9,1.7-3.4,3.7-3.2c11.7,0.6,22.8,6.3,30.4,15.1L297.7,353.7z"/>
	<g>
		<path opacity="0.4" enable-background="new    " d="M303.5,381.2c-3.7,2.3-9.8,6.7-15.1,14.2c-2.3,3.4-7,10.9-8.6,21.7
			c-1.9,13.1,1.9,23.5,3.8,27.9c0.3-9-4.3-17.4-11.9-21.6c-9.5-5.3-19.1-1.5-20.4-1c0.5-1.6,3.8-11.1,13.4-14.8
			c4-1.6,7.7-1.6,10-1.4c0.7-3.2,2.2-7.9,5.8-12.5C288.6,383.3,300.7,381.6,303.5,381.2z"/>
	</g>
	<g>
		<path opacity="0.4" enable-background="new    " d="M300.1,471.8c1.4,2.3,4.5,6.5,10,9.7c7.5,4.3,14.7,3.8,17.3,3.5
			c-1.7-4.3-3.8-11.5-3.7-20.5c0.1-8.2,2-14.8,3.6-18.9c-2.2,1.9-7.5,6.9-9.5,15.2c-0.9,3.9-2.8,7.3-2.4,9.7c-1.9-0.1-2.1,0-4.3,0.1
			C306.9,470.6,303.3,471.1,300.1,471.8z"/>
	</g>
	<path id="path10_5_" fill="#FFFFFF" fill-opacity="0.4" d="M533.1,541c-15.2-5.1-31.2-29.4-35.2-49.6l23.7-23.2
		c3.1,3.4,5.9,7,5.2,10c-1.6,7.9-21,20.4-14.4,32.5c6.7,12.2,15.4,21.3,22.8,23.8c1.8,0.5,2.8,2.5,2.1,4.3c-0.5,1.4-1.8,2.3-3.2,2.3
		C533.9,541.3,533.4,541.2,533.1,541z"/>
	<path id="path14_5_" fill="#FFFFFF" fill-opacity="0.4" d="M544.7,437.7c-1.9-0.2-3.3-1.9-3.1-3.8c0.9-8.9,5-17,11.7-23.7
		c3.4-3.3,7.2-5.9,11.2-8.1l11.7,13c-5.6,5.5-26.9,12.1-27.7,19.4c-0.2,1.8-1.7,3.1-3.4,3.1C544.9,437.7,544.8,437.7,544.7,437.7z"
		/>
	<path id="path18_5_" fill="#FFFFFF" fill-opacity="0.4" d="M620.7,539.2c-14.3-4.5-24.1-15.6-28.4-32c-0.5-1.9,0.6-3.7,2.5-4.2
		s3.7,0.6,4.2,2.5c1.1,4.1,15.2,2.8,17,6.1c4.4,8-1.8,18.4,6.8,21.1c1.9,0.6,2.8,2.5,2.3,4.3c-0.5,1.4-1.9,2.4-3.3,2.4
		C621.5,539.3,621.1,539.3,620.7,539.2z"/>
	<g>
		<path opacity="0.4" enable-background="new    " d="M601.1,489.4c-2.2-0.1-2.3-0.2-4.3-0.1c0.3-2.4-1.5-5.7-2.4-9.7
			c-1.9-8.3-7.3-13.3-9.5-15.2c1.6,4.2,3.5,10.7,3.6,18.9c0.1,9.1-2.1,16.2-3.7,20.5c2.6,0.3,9.8,0.8,17.3-3.5
			c5.5-3.2,8.6-7.4,10-9.7C608.8,490.1,605.2,489.6,601.1,489.4z"/>
	</g>
	<g>
		<path opacity="0.4" enable-background="new    " d="M537.9,421c2.2-0.4,4.4-0.7,6.5-1c0.5-1.2,1.4-2.8,2.7-4.4
			c1.4-1.7,2.8-2.9,3.8-3.7c-0.1-4.1-1.2-17.6-11.6-28.8c-3.2-3.4-6.5-5.8-9.5-7.6c-2-1.1-3.4,1.5-2.5,3.6c2.3,4.9,4.5,9.9,6.7,14.8
			c0.8,7,1.7,7.4,1.7,7.4S536.2,404.8,537.9,421z"/>
	</g>
	<path id="path6_4_" fill="#FFFFFF" fill-opacity="0.4" d="M319.2,407c-12.9-10.5-21.1-23.8-22.5-36.8c-1-10.2,1.9-20.6,8.3-28.6
		c1.2-1.5,3.3-1.7,4.8-0.5s1.7,3.3,0.5,4.8c-5.2,6.5,10.3,15.2,11.2,23.5c1.3,11.1-9.6,22.8,1.9,32.2c1.4,1.2,1.7,3.4,0.5,4.8
		c-0.7,0.8-1.7,1.2-2.7,1.2C320.7,407.6,319.9,407.4,319.2,407z"/>
	<path id="path10_4_" fill="#FFFFFF" fill-opacity="0.4" d="M385.3,498.6c-19.2-6.5-39.8-43.7-35.5-64.3c1.8-8.5,6.6-20,14.5-26.6
		c1.4-1.2,3.7-0.9,4.8,0.5s0.9,3.6-0.5,4.8c-6.5,5.5,12,15.3,10.4,22.7c-1.6,7.9-21,20.4-14.4,32.5c6.7,12.2,15.4,21.3,22.8,23.8
		c1.8,0.5,2.8,2.5,2.1,4.3c-0.5,1.4-1.8,2.3-3.2,2.3C386.1,498.9,385.7,498.8,385.3,498.6z"/>
	<path id="path14_4_" fill="#FFFFFF" fill-opacity="0.4" d="M396.9,395.3c-1.9-0.2-3.3-1.9-3.1-3.8c0.9-8.9,5-17,11.7-23.7
		c6.9-6.7,15.7-10.6,23.7-14c1.8-0.7,3.8,0.1,4.6,1.8c0.7,1.8-0.1,3.8-1.8,4.6c-7.7,3.3,2.4,6.8-3.5,12.6
		c-5.6,5.5-26.9,12.1-27.7,19.4c-0.2,1.8-1.7,3.1-3.4,3.1C397.1,395.2,397,395.2,396.9,395.3z"/>
	<path id="path18_4_" fill="#FFFFFF" fill-opacity="0.4" d="M473,496.7c-14.3-4.5-24.1-15.6-28.4-32c-0.5-1.9,0.6-3.7,2.5-4.2
		s3.7,0.6,4.2,2.5c1.1,4.1,15.2,2.8,17,6.1c4.4,8-1.8,18.4,6.8,21.1c1.9,0.6,2.8,2.5,2.3,4.3c-0.5,1.4-1.9,2.4-3.3,2.4
		C473.7,496.9,473.3,496.8,473,496.7z"/>
	<path id="path22_4_" fill="#FFFFFF" fill-opacity="0.4" d="M450.9,355.5c-2-0.1-3.5-1.6-3.5-3.5c0.1-6.2,1.1-12.4,2.8-18.3
		c1.4-4.9,3.4-9.3,5.7-13c7.3-11.7,20.4-19.4,34.2-20.2c1.9-0.1,3.5,1.3,3.7,3.2c0.1,1.9-1.3,3.5-3.2,3.7c-11.6,0.6-4.6,7.1-10.7,17
		c-2,3.2-21.7,7-23,11.4c-1.6,5.3-2.4,10.8-2.5,16.4C454.4,354,452.8,355.5,450.9,355.5L450.9,355.5z"/>
	<path id="path26_4_" fill="#FFFFFF" fill-opacity="0.4" d="M339.9,317.3c-0.4-10.5,2.6-21.1,8.3-29.7c5.8-8.7,14.4-15.6,24.2-19.2
		c1.7-0.7,3.7,0.2,4.4,2c0.7,1.7-0.2,3.7-2,4.4c-8.5,3.2,2.1,9.1-2.8,16.6c-5,7.6-25.6,16.7-25.2,25.7c0.1,1.9-1.4,3.5-3.3,3.6
		c0,0,0,0-0.1,0C341.5,320.6,340,319.1,339.9,317.3z"/>
	<g>
		<path opacity="0.4" enable-background="new    " d="M483.8,370.1c3.6,4.6,5.1,9.4,5.8,12.5c2.3-0.2,6-0.2,10,1.4
			c9.5,3.8,12.8,13.3,13.4,14.8c-1.3-0.5-10.9-4.3-20.4,1c-7.6,4.2-12.2,12.6-11.9,21.6c1.9-4.4,5.7-14.8,3.8-27.9
			c-1.6-10.8-6.2-18.3-8.6-21.7c-5.2-7.5-11.4-11.9-15.1-14.2C463.6,358,475.7,359.8,483.8,370.1z"/>
	</g>
	<g>
		<path opacity="0.4" enable-background="new    " d="M453.3,447c-2.2-0.1-2.3-0.2-4.3-0.1c0.3-2.4-1.5-5.7-2.4-9.7
			c-1.9-8.3-7.3-13.3-9.5-15.2c1.6,4.2,3.5,10.7,3.6,18.9c0.1,9.1-2.1,16.2-3.7,20.5c2.6,0.3,9.8,0.8,17.3-3.5
			c5.5-3.2,8.6-7.4,10-9.7C461.1,447.6,457.4,447.1,453.3,447z"/>
	</g>
	<g>
		<path opacity="0.4" enable-background="new    " d="M390.1,378.6c2.2-0.4,4.4-0.7,6.5-1c0.5-1.2,1.4-2.8,2.7-4.4
			c1.4-1.7,2.8-2.9,3.8-3.7c-0.1-4.1-1.2-17.6-11.6-28.8c-5.3-5.6-11-8.6-14.8-10.2c3.2,7,6.4,14,9.5,21c0.8,7,3.8,17.5,0,28.8
			c-1.1,3.3-0.3,6.7-1.6,9.3c-1.8-0.1-12.3-0.8-17.5,3.1c-7.8,5.8-7.9,15.3-7.9,16.3c3.4-2.9,8.2-6.5,14.4-9.5
			c4.6-2.3,8.9-3.7,12.5-4.6c1.2-4.5,2.6-11.2,2.8-19.4c0.2-9-1.1-16.6-1.1-16.6S388.4,362.4,390.1,378.6z"/>
	</g>
	<path id="path10_10_" fill="#FFFFFF" fill-opacity="0.4" d="M785.5,522.9c-7.4-2.5-15.1-9.7-21.4-18.6l5.5-4.2
		c5.8,8.4,12.5,14.5,18.2,16.4c1.8,0.5,2.8,2.5,2.1,4.3c-0.5,1.4-1.8,2.3-3.2,2.3C786.2,523.2,785.8,523.1,785.5,522.9z"/>
	<path id="path14_10_" fill="#FFFFFF" fill-opacity="0.4" d="M797.1,419.6c-1.9-0.2-3.3-1.9-3.1-3.8c0.9-8.9,5-17,11.7-23.7
		c6.9-6.7,15.7-10.6,23.7-14c1.8-0.7,3.8,0.1,4.6,1.8c0.7,1.8-0.1,3.8-1.8,4.6c-7.7,3.3,2.4,6.8-3.5,12.6
		c-5.6,5.5-26.9,12.1-27.7,19.4c-0.2,1.8-1.7,3.1-3.4,3.1C797.3,419.6,797.2,419.6,797.1,419.6z"/>
	<path id="path18_10_" fill="#FFFFFF" fill-opacity="0.4" d="M873.1,521.1c-14.3-4.5-24.1-15.6-28.4-32c-0.5-1.9,0.6-3.7,2.5-4.2
		s3.7,0.6,4.2,2.5c1.1,4.1,15.2,2.8,17,6.1c4.4,8-1.8,18.4,6.8,21.1c1.9,0.6,2.8,2.5,2.3,4.3c-0.5,1.4-1.9,2.4-3.3,2.4
		C873.9,521.2,873.5,521.2,873.1,521.1z"/>
	<path id="path22_10_" fill="#FFFFFF" fill-opacity="0.4" d="M851.1,379.8c-2-0.1-3.5-1.6-3.5-3.5c0.1-6.2,1.1-12.4,2.8-18.3
		c1.4-4.9,3.4-9.3,5.7-13c7.3-11.7,20.4-19.4,34.2-20.2c1.9-0.1,3.5,1.3,3.7,3.2c0.1,1.9-1.3,3.5-3.2,3.7c-11.6,0.6-4.6,7.1-10.7,17
		c-2,3.2-21.7,7-23,11.4c-1.6,5.3-2.4,10.8-2.5,16.4C854.5,378.3,853,379.8,851.1,379.8C851,379.8,851,379.8,851.1,379.8z"/>
	<path id="path26_10_" fill="#FFFFFF" fill-opacity="0.4" d="M748.4,311.9c5.8-8.7,14.4-15.6,24.2-19.2c1.7-0.7,3.7,0.2,4.4,2
		c0.7,1.7-0.2,3.7-2,4.4c-8.5,3.2,2.1,9.1-2.8,16.6L748.4,311.9z"/>
	<g>
		<path opacity="0.4" enable-background="new    " d="M883.9,394.5c3.6,4.6,5.1,9.4,5.8,12.5c2.3-0.2,6-0.2,10,1.4
			c9.5,3.8,12.8,13.3,13.4,14.8c-1.3-0.5-10.9-4.3-20.4,1c-7.6,4.2-12.2,12.6-11.9,21.6c1.9-4.4,5.7-14.8,3.8-27.9
			c-1.6-10.8-6.2-18.3-8.6-21.7c-5.2-7.5-11.4-11.9-15.1-14.2C863.8,382.4,875.9,384.1,883.9,394.5z"/>
	</g>
	<g>
		<path opacity="0.4" enable-background="new    " d="M853.5,471.3c-2.2-0.1-2.3-0.2-4.3-0.1c0.3-2.4-1.5-5.7-2.4-9.7
			c-1.9-8.3-7.3-13.3-9.5-15.2c1.6,4.2,3.5,10.7,3.6,18.9c0.1,9.1-2.1,16.2-3.7,20.5c2.6,0.3,9.8,0.8,17.3-3.5
			c5.5-3.2,8.6-7.4,10-9.7C861.2,472,857.6,471.5,853.5,471.3z"/>
	</g>
	<g>
		<path opacity="0.4" enable-background="new    " d="M790.3,402.9c2.2-0.4,4.4-0.7,6.5-1c0.5-1.2,1.4-2.8,2.7-4.4
			c1.4-1.7,2.8-2.9,3.8-3.7c-0.1-2.6-0.5-9.1-3.6-16.4c-1.7-4.1-9.5,15.9-13.3,27.3c-1.1,3.3-0.3,6.7-1.6,9.3
			c-1.8-0.1-2,6.2,1.6,5.3c1.2-4.5,2.6-11.2,2.8-19.4C789.5,390.9,788.5,386.7,790.3,402.9z"/>
	</g>
	<path id="path6_8_" fill="#FFFFFF" fill-opacity="0.4" d="M582.8,421.1c-12.9-10.5-21.1-23.8-22.5-36.8c-1-10.2,1.9-20.6,8.3-28.6
		c1.2-1.5,3.3-1.7,4.8-0.5s1.7,3.3,0.5,4.8c-5.2,6.5,10.3,15.2,11.2,23.5c1.3,11.1-9.6,22.8,1.9,32.2c1.4,1.2,1.7,3.4,0.5,4.8
		c-0.7,0.8-1.7,1.2-2.7,1.2C584.3,421.8,583.5,421.6,582.8,421.1z"/>
	<path id="path10_8_" fill="#FFFFFF" fill-opacity="0.4" d="M648.9,512.8c-19.2-6.5-39.8-43.7-35.5-64.3c1.8-8.5,6.6-20,14.5-26.6
		c1.4-1.2,3.7-0.9,4.8,0.5c1.2,1.4,0.9,3.6-0.5,4.8c-6.5,5.5,12,15.3,10.4,22.7c-1.6,7.9-21,20.4-14.4,32.5
		c6.7,12.2,15.4,21.3,22.8,23.8c1.8,0.5,2.8,2.5,2.1,4.3c-0.5,1.4-1.8,2.3-3.2,2.3C649.7,513,649.3,512.9,648.9,512.8z"/>
	<path id="path14_8_" fill="#FFFFFF" fill-opacity="0.4" d="M660.5,409.4c-1.9-0.2-3.3-1.9-3.1-3.8c0.9-8.9,5-17,11.7-23.7
		c6.9-6.7,15.7-10.6,23.7-14c1.8-0.7,3.8,0.1,4.6,1.8c0.7,1.8-0.1,3.8-1.8,4.6c-7.7,3.3,2.4,6.8-3.5,12.6
		c-5.6,5.5-26.9,12.1-27.7,19.4c-0.2,1.8-1.7,3.1-3.4,3.1C660.8,409.4,660.6,409.4,660.5,409.4z"/>
	<path id="path18_8_" fill="#FFFFFF" fill-opacity="0.4" d="M736.6,510.9c-14.3-4.5-24.1-15.6-28.4-32c-0.5-1.9,0.6-3.7,2.5-4.2
		s3.7,0.6,4.2,2.5c1.1,4.1,15.2,2.8,17,6.1c4.4,8-1.8,18.4,6.8,21.1c1.9,0.6,2.8,2.5,2.3,4.3c-0.5,1.4-1.9,2.4-3.3,2.4
		C737.3,511.1,737,511,736.6,510.9z"/>
	<path id="path22_8_" fill="#FFFFFF" fill-opacity="0.4" d="M714.6,369.7c-2-0.1-3.5-1.6-3.5-3.5c0.1-6.2,1.1-12.4,2.8-18.3
		c1.4-4.9,3.4-9.3,5.7-13c7.3-11.7,20.4-19.4,34.2-20.2c1.9-0.1,3.5,1.3,3.7,3.2c0.1,1.9-1.3,3.5-3.2,3.7c-11.6,0.6-4.6,7.1-10.7,17
		c-2,3.2-21.7,7-23,11.4c-1.6,5.3-2.4,10.8-2.5,16.4C718,368.1,716.4,369.7,714.6,369.7C714.5,369.7,714.5,369.7,714.6,369.7z"/>
	<path id="path26_8_" fill="#FFFFFF" fill-opacity="0.4" d="M603.5,331.5c-0.4-10.5,2.6-21.1,8.3-29.7c5.8-8.7,14.4-15.6,24.2-19.2
		c1.7-0.7,3.7,0.2,4.4,2c0.7,1.7-0.2,3.7-2,4.4c-8.5,3.2,2.1,9.1-2.8,16.6c-5,7.6-25.6,16.7-25.2,25.7c0.1,1.9-1.4,3.5-3.3,3.6
		c0,0,0,0-0.1,0C605.1,334.7,603.6,333.3,603.5,331.5z"/>
	<g>
		<path opacity="0.4" enable-background="new    " d="M747.4,384.3c3.6,4.6,5.1,9.4,5.8,12.5c2.3-0.2,6-0.2,10,1.4
			c9.5,3.8,12.8,13.3,13.4,14.8c-1.3-0.5-10.9-4.3-20.4,1c-7.6,4.2-12.2,12.6-11.9,21.6c1.9-4.4,5.7-14.8,3.8-27.9
			c-1.6-10.8-6.2-18.3-8.6-21.7c-5.2-7.5-11.4-11.9-15.1-14.2C727.3,372.2,739.4,373.9,747.4,384.3z"/>
	</g>
	<g>
		<path opacity="0.4" enable-background="new    " d="M717,461.1c-2.2-0.1-2.3-0.2-4.3-0.1c0.3-2.4-1.5-5.7-2.4-9.7
			c-1.9-8.3-7.3-13.3-9.5-15.2c1.6,4.2,3.5,10.7,3.6,18.9c0.1,9.1-2.1,16.2-3.7,20.5c2.6,0.3,9.8,0.8,17.3-3.5
			c5.5-3.2,8.6-7.4,10-9.7C724.7,461.8,721,461.3,717,461.1z"/>
	</g>
	<g>
		<path opacity="0.4" enable-background="new    " d="M653.8,392.7c2.2-0.4,4.4-0.7,6.5-1c0.5-1.2,1.4-2.8,2.7-4.4
			c1.4-1.7,2.8-2.9,3.8-3.7c-0.1-4.1-1.2-17.6-11.6-28.8c-5.3-5.6-11-8.6-14.8-10.2c3.2,7,6.4,14,9.5,21c0.8,7,3.8,17.5,0,28.8
			c-1.1,3.3-0.3,6.7-1.6,9.3c-1.8-0.1-12.3-0.8-17.5,3.1c-7.8,5.8-7.9,15.3-7.9,16.3c3.4-2.9,8.2-6.5,14.4-9.5
			c4.6-2.3,8.9-3.7,12.5-4.6c1.2-4.5,2.6-11.2,2.8-19.4c0.2-9-1.1-16.6-1.1-16.6S652,376.6,653.8,392.7z"/>
	</g>
</g>
<g id="vs-outline_5_">
	
		<path id="path29_3_" fill="none" stroke="#000000" stroke-width="6.3188" stroke-linecap="round" stroke-linejoin="round" stroke-miterlimit="10" d="
		M392.5,394.6c25.4-1.3,46.9,17.9,48.2,42.7c1.3,24.8-17.4,64.1-42.8,65.4s-47.8-36.1-49.1-60.9
		C347.5,416.9,367.1,395.9,392.5,394.6z"/>
	
		<path id="path31_3_" fill="none" stroke="#000000" stroke-width="5.4161" stroke-linecap="round" stroke-linejoin="round" stroke-miterlimit="10" d="
		M393.1,514.7C393.1,514.7,393,514.7,393.1,514.7c0.1-0.2,0.4-1.8,0.5-2.9c0.4-2.3,0.9-5.5,2.3-7.9c0-0.7,0.6-1,1-1.3l0.5-0.3
		l0.5,0.3c2.3,1.3,3.4,4.5,4.3,7.4c0.5,1.5,1,3.2,1.6,3.7l0.8,0.7l-0.7,0.8c-0.3,0.3-0.7,0.5-1.1,0.5c-0.9,0-1.9-0.7-3.4-2
		c-0.4-0.3-0.9-0.8-1.3-1c-0.1,0.1-0.2,0.3-0.3,0.5c-0.5,0.9-1.2,2.3-3.7,3.3L393.1,514.7z"/>
	
		<path id="path33_3_" fill="none" stroke="#000000" stroke-width="6.3188" stroke-linecap="round" stroke-linejoin="round" stroke-miterlimit="10" d="
		M392.9,393.7c2.4-21.7,20.6-39.1,43.6-40.2c25.4-1.3,46.9,17.9,48.2,42.7c1.3,24.8-17.5,64.2-42.8,65.4c-1.9,0.1-3,0.1-4.9-0.2"/>
	
		<path id="path35_3_" fill="none" stroke="#000000" stroke-width="5.4161" stroke-linecap="round" stroke-linejoin="round" stroke-miterlimit="10" d="
		M445.9,475.1c-2.7-0.7-3.5-2.1-4.1-2.9c-0.2-0.2-0.3-0.4-0.4-0.5c-0.3,0.3-0.8,0.7-1.1,1c-1.5,1.5-2.4,2.4-3.4,2.4
		c-0.4,0-0.8-0.1-1-0.4l-0.8-0.8l0.7-0.8c0.5-0.5,0.9-2.4,1.3-4c0.6-2.9,1.4-6.3,3.5-7.7l0.5-0.3l0.5,0.2c0.4,0.1,1.2,0.5,1.2,1.2
		c1.6,2.2,2.3,5.1,3,7.5c0.3,1.2,0.7,2.8,1,3.1l0,0L445.9,475.1z"/>
	
		<path id="path37_3_" fill="none" stroke="#000000" stroke-width="6.3188" stroke-linecap="round" stroke-linejoin="round" stroke-miterlimit="10" d="
		M484.4,390.8c4.5-0.1,9,0.3,13.6,1.4c24.6,6.3,39.6,30.9,33.5,55s-35.6,56.2-60.2,50c-14-3.5-23.4-18.7-27.8-35.6"/>
	
		<path id="path39_3_" fill="none" stroke="#000000" stroke-width="5.4161" stroke-linecap="round" stroke-linejoin="round" stroke-miterlimit="10" d="
		M469.6,508.6c-0.2-0.5-0.5-1-0.8-1.4c-0.1,0-0.3,0.2-0.5,0.4c-0.8,0.7-2,1.7-4.8,1.7l-0.3-2.2h-0.1c0.4-0.2,1.2-1.6,1.8-2.6
		c1.2-2,2.8-4.7,5-6.5c0.2-0.8,1.1-0.8,1.5-0.9h0.6l0.4,0.5c1.7,2,1.4,5.4,1.2,8.3c-0.1,1.6-0.3,3.5,0.1,4.1l0.5,1l-1,0.5
		c-0.2,0.1-0.5,0.2-0.7,0.2C471.5,511.8,470.7,510.5,469.6,508.6z"/>
	
		<path id="path41_3_" fill="none" stroke="#000000" stroke-width="6.3188" stroke-linecap="round" stroke-linejoin="round" stroke-miterlimit="10" d="
		M350.3,425.5c-21.2-3.1-44.1-25.6-51.1-44.5c-8.7-23.3,3.6-49.4,27.4-58.3s50.2,2.8,58.9,26c4.6,12.5,5.1,30.6,0.9,46.1"/>
	
		<path id="path43_3_" fill="none" stroke="#000000" stroke-width="6.3188" stroke-linecap="round" stroke-linejoin="round" stroke-miterlimit="10" d="
		M510.6,397.2c13.9-10.8,25.1-28.7,28.2-43.3c5.1-24.3-11-48.2-35.9-53.4c-24.9-5.2-49.2,10.4-54.2,34.7c-1.2,5.6-1.4,12.2-0.8,19.1
		"/>
	
		<path id="path45_3_" fill="none" stroke="#000000" stroke-width="6.3188" stroke-linecap="round" stroke-linejoin="round" stroke-miterlimit="10" d="
		M339.2,319.9c-3.5-24.3,13-47.2,37.8-52.2c25.7-5.2,50.7,10.9,55.8,36c3,14.9-0.1,35.9-8.8,51.9"/>
	
		<path id="path47_3_" fill="none" stroke="#000000" stroke-width="6.3188" stroke-linecap="round" stroke-linejoin="round" stroke-miterlimit="10" d="
		M398,377.4c-2.8,0.4-5.6,0.3-8.5-0.1"/>
	
		<path id="path49_3_" fill="none" stroke="#000000" stroke-width="4.5134" stroke-linecap="round" stroke-linejoin="round" stroke-miterlimit="10" d="
		M410.1,604.5c-10-0.5-15.4-10.1-17-19.8c-2.1-13,0.7-25.8,3.2-38.2c2.1-10.6,6.1-23.4,1.9-33.8"/>
	
		<path id="path51_3_" fill="none" stroke="#000000" stroke-width="4.5134" stroke-linecap="round" stroke-linejoin="round" stroke-miterlimit="10" d="
		M388.4,599.5c41.1-12.9,45.5-76.5,32.7-109.7"/>
	
		<path id="path53_3_" fill="none" stroke="#000000" stroke-width="4.5134" stroke-linecap="round" stroke-linejoin="round" stroke-miterlimit="10" d="
		M405.9,650.4c22.8-6.1,40.7-24.3,43-48.4c1.2-12-1.5-26,3-37.5c3.7-9.5,17.2-10.8,19.4,0.9c2.2,11.4-13.2,13.7-19.9,8
		c-14.9-12.7-19.6-32.2-19-51.3c0.3-9,1.7-18.1,3.6-26.9c0.4-2.1,6.3-21.6,5.5-22.3"/>
	
		<path id="path55_3_" fill="none" stroke="#000000" stroke-width="4.5134" stroke-linecap="round" stroke-linejoin="round" stroke-miterlimit="10" d="
		M431.7,591.8c-14.7-44.3,73.3-52,39.9-93.7"/>
	
		<path id="path57_3_" fill="none" stroke="#000000" stroke-width="4.5134" stroke-linecap="round" stroke-linejoin="round" stroke-miterlimit="10" d="
		M411.7,565c-13.2-8.1-2.8-52.2-3.2-64.9"/>
	
		<path id="path59_3_" fill="none" stroke="#000000" stroke-width="4.5134" stroke-linecap="round" stroke-linejoin="round" stroke-miterlimit="10" d="
		M454.8,526.2c-3.7-11.1-3.3-37.3-1.7-42.5"/>
	
		<path id="path29_5_" fill="none" stroke="#000000" stroke-width="6.3188" stroke-linecap="round" stroke-linejoin="round" stroke-miterlimit="10" d="
		M656.1,408.8c25.4-1.3,46.9,17.9,48.2,42.7c1.3,24.8-17.4,64.1-42.8,65.4c-25.4,1.3-47.8-36.1-49.1-60.9
		C611.1,431.1,630.7,410,656.1,408.8z"/>
	
		<path id="path31_5_" fill="none" stroke="#000000" stroke-width="5.4161" stroke-linecap="round" stroke-linejoin="round" stroke-miterlimit="10" d="
		M656.8,528.8C656.7,528.9,656.7,528.9,656.8,528.8c0.1-0.2,0.4-1.8,0.5-2.9c0.4-2.3,0.9-5.5,2.3-7.9c0-0.7,0.6-1,1-1.3l0.5-0.3
		l0.5,0.3c2.3,1.3,3.4,4.5,4.3,7.4c0.5,1.5,1,3.2,1.6,3.7l0.8,0.7l-0.7,0.8c-0.3,0.3-0.7,0.5-1.1,0.5c-0.9,0-1.9-0.7-3.4-2
		c-0.4-0.3-0.9-0.8-1.3-1c-0.1,0.1-0.2,0.3-0.3,0.5c-0.5,0.9-1.2,2.3-3.7,3.3L656.8,528.8z"/>
	
		<path id="path33_5_" fill="none" stroke="#000000" stroke-width="6.3188" stroke-linecap="round" stroke-linejoin="round" stroke-miterlimit="10" d="
		M656.6,407.9c2.4-21.7,20.6-39.1,43.6-40.2c25.4-1.3,46.9,17.9,48.2,42.7c1.3,24.8-17.5,64.2-42.8,65.4c-1.9,0.1-3,0.1-4.9-0.2"/>
	
		<path id="path35_5_" fill="none" stroke="#000000" stroke-width="5.4161" stroke-linecap="round" stroke-linejoin="round" stroke-miterlimit="10" d="
		M709.6,489.3c-2.7-0.7-3.5-2.1-4.1-2.9c-0.2-0.2-0.3-0.4-0.4-0.5c-0.3,0.3-0.8,0.7-1.1,1c-1.5,1.5-2.4,2.4-3.4,2.4
		c-0.4,0-0.8-0.1-1-0.4l-0.8-0.8l0.7-0.8c0.5-0.5,0.9-2.4,1.3-4c0.6-2.9,1.4-6.3,3.5-7.7l0.5-0.3l0.5,0.2c0.4,0.1,1.2,0.5,1.2,1.2
		c1.6,2.2,2.3,5.1,3,7.5c0.3,1.2,0.7,2.8,1,3.1l0,0L709.6,489.3z"/>
	
		<path id="path37_5_" fill="none" stroke="#000000" stroke-width="6.3188" stroke-linecap="round" stroke-linejoin="round" stroke-miterlimit="10" d="
		M748.1,405c4.5-0.1,9,0.3,13.6,1.4c24.6,6.3,39.6,30.9,33.5,55s-35.6,56.2-60.2,50c-14-3.5-23.4-18.7-27.8-35.6"/>
	
		<path id="path39_5_" fill="none" stroke="#000000" stroke-width="5.4161" stroke-linecap="round" stroke-linejoin="round" stroke-miterlimit="10" d="
		M733.3,522.7c-0.2-0.5-0.5-1-0.8-1.4c-0.1,0-0.3,0.2-0.5,0.4c-0.8,0.7-2,1.7-4.8,1.7l-0.3-2.2h-0.1c0.4-0.2,1.2-1.6,1.8-2.6
		c1.2-2,2.8-4.7,5-6.5c0.2-0.8,1.1-0.8,1.5-0.9h0.6l0.4,0.5c1.7,2,1.4,5.4,1.2,8.3c-0.1,1.6-0.3,3.5,0.1,4.1l0.5,1l-1,0.5
		c-0.2,0.1-0.5,0.2-0.7,0.2C735.1,526,734.3,524.6,733.3,522.7z"/>
	
		<path id="path41_5_" fill="none" stroke="#000000" stroke-width="6.3188" stroke-linecap="round" stroke-linejoin="round" stroke-miterlimit="10" d="
		M613.9,439.6c-21.2-3.1-44.1-25.6-51.1-44.5c-8.7-23.3,3.6-49.4,27.4-58.3c23.8-8.9,50.2,2.8,58.9,26c4.6,12.5,5.1,30.6,0.9,46.1"
		/>
	
		<path id="path43_5_" fill="none" stroke="#000000" stroke-width="6.3188" stroke-linecap="round" stroke-linejoin="round" stroke-miterlimit="10" d="
		M774.2,411.3c13.9-10.8,25.1-28.7,28.2-43.3c5.1-24.3-11-48.2-35.9-53.4c-24.9-5.2-49.2,10.4-54.2,34.7c-1.2,5.6-1.4,12.2-0.8,19.1
		"/>
	
		<path id="path45_5_" fill="none" stroke="#000000" stroke-width="6.3188" stroke-linecap="round" stroke-linejoin="round" stroke-miterlimit="10" d="
		M602.9,334.1c-3.5-24.3,13-47.2,37.8-52.2c25.7-5.2,50.7,10.9,55.8,36c3,14.9-0.1,35.9-8.8,51.9"/>
	
		<path id="path47_5_" fill="none" stroke="#000000" stroke-width="6.3188" stroke-linecap="round" stroke-linejoin="round" stroke-miterlimit="10" d="
		M661.6,391.6c-2.8,0.4-5.6,0.3-8.5-0.1"/>
	
		<path id="path49_5_" fill="none" stroke="#000000" stroke-width="4.5134" stroke-linecap="round" stroke-linejoin="round" stroke-miterlimit="10" d="
		M673.8,618.7c-10-0.5-15.4-10.1-17-19.8c-2.1-13,0.7-25.8,3.2-38.2c2.1-10.6,6.1-23.4,1.9-33.8"/>
	
		<path id="path51_5_" fill="none" stroke="#000000" stroke-width="4.5134" stroke-linecap="round" stroke-linejoin="round" stroke-miterlimit="10" d="
		M652,613.6c41.1-12.9,45.5-76.5,32.7-109.7"/>
	
		<path id="path53_5_" fill="none" stroke="#000000" stroke-width="4.5134" stroke-linecap="round" stroke-linejoin="round" stroke-miterlimit="10" d="
		M669.5,664.5c22.8-6.1,40.7-24.3,43-48.4c1.2-12-1.5-26,3-37.5c3.7-9.5,17.2-10.8,19.4,0.9c2.2,11.4-13.2,13.7-19.9,8
		c-14.9-12.7-19.6-32.2-19-51.3c0.3-9,1.7-18.1,3.6-26.9c0.4-2.1,6.3-21.6,5.5-22.3"/>
	
		<path id="path55_5_" fill="none" stroke="#000000" stroke-width="4.5134" stroke-linecap="round" stroke-linejoin="round" stroke-miterlimit="10" d="
		M695.3,606c-14.7-44.3,73.3-52,39.9-93.7"/>
	
		<path id="path57_5_" fill="none" stroke="#000000" stroke-width="4.5134" stroke-linecap="round" stroke-linejoin="round" stroke-miterlimit="10" d="
		M675.4,579.2c-13.2-8.1-2.8-52.2-3.2-64.9"/>
	
		<path id="path59_5_" fill="none" stroke="#000000" stroke-width="4.5134" stroke-linecap="round" stroke-linejoin="round" stroke-miterlimit="10" d="
		M718.4,540.4c-3.7-11.1-3.3-37.3-1.7-42.5"/>
	
		<path id="path29_1_" fill="none" stroke="#000000" stroke-width="6.3188" stroke-linecap="round" stroke-linejoin="round" stroke-miterlimit="10" d="
		M532.9,438c2.4-0.5,4.9-0.8,7.4-0.9c25.4-1.3,46.9,17.9,48.2,42.7c1.3,24.8-17.4,64.1-42.8,65.4c-22.9,1.1-43.3-29-48.1-53.1"/>
	
		<path id="path31_4_" fill="none" stroke="#000000" stroke-width="5.4161" stroke-linecap="round" stroke-linejoin="round" stroke-miterlimit="10" d="
		M540.9,557.1C540.9,557.1,540.8,557.2,540.9,557.1c0.1-0.2,0.4-1.8,0.5-2.9c0.4-2.3,0.9-5.5,2.3-7.9c0-0.7,0.6-1,1-1.3l0.5-0.3
		l0.5,0.3c2.3,1.3,3.4,4.5,4.3,7.4c0.5,1.5,1,3.2,1.6,3.7l0.8,0.7l-0.7,0.8c-0.3,0.3-0.7,0.5-1.1,0.5c-0.9,0-1.9-0.7-3.4-2
		c-0.4-0.3-0.9-0.8-1.3-1c-0.1,0.1-0.2,0.3-0.3,0.5c-0.5,0.9-1.2,2.3-3.7,3.3L540.9,557.1z"/>
	
		<path id="path33_4_" fill="none" stroke="#000000" stroke-width="6.3188" stroke-linecap="round" stroke-linejoin="round" stroke-miterlimit="10" d="
		M619.1,483.4c-7.5,11.6-17.8,20.1-29.4,20.7c-1.9,0.1-3,0.1-4.9-0.2"/>
	
		<path id="path33_7_" fill="none" stroke="#000000" stroke-width="6.3188" stroke-linecap="round" stroke-linejoin="round" stroke-miterlimit="10" d="
		M540.7,436.2c1.7-15,10.9-28,24-34.9"/>
	
		<path id="path35_4_" fill="none" stroke="#000000" stroke-width="5.4161" stroke-linecap="round" stroke-linejoin="round" stroke-miterlimit="10" d="
		M593.7,517.5c-2.7-0.7-3.5-2.1-4.1-2.9c-0.2-0.2-0.3-0.4-0.4-0.5c-0.3,0.3-0.8,0.7-1.1,1c-1.5,1.5-2.4,2.4-3.4,2.4
		c-0.4,0-0.8-0.1-1-0.4l-0.8-0.8l0.7-0.8c0.5-0.5,0.9-2.4,1.3-4c0.6-2.9,1.4-6.3,3.5-7.7l0.5-0.3l0.5,0.2c0.4,0.1,1.2,0.5,1.2,1.2
		c1.6,2.2,2.3,5.1,3,7.5c0.3,1.2,0.7,2.8,1,3.1l0,0L593.7,517.5z"/>
	
		<path id="path37_7_" fill="none" stroke="#000000" stroke-width="6.3188" stroke-linecap="round" stroke-linejoin="round" stroke-miterlimit="10" d="
		M656.5,525.6c-11.1,10-25.3,17.1-37.4,14c-14-3.5-23.4-18.7-27.8-35.6"/>
	
		<path id="path39_4_" fill="none" stroke="#000000" stroke-width="5.4161" stroke-linecap="round" stroke-linejoin="round" stroke-miterlimit="10" d="
		M617.4,551c-0.2-0.5-0.5-1-0.8-1.4c-0.1,0-0.3,0.2-0.5,0.4c-0.8,0.7-2,1.7-4.8,1.7l-0.3-2.2h-0.1c0.4-0.2,1.2-1.6,1.8-2.6
		c1.2-2,2.8-4.7,5-6.5c0.2-0.8,1.1-0.8,1.5-0.9h0.6l0.4,0.5c1.7,2,1.4,5.4,1.2,8.3c-0.1,1.6-0.3,3.5,0.1,4.1l0.5,1l-1,0.5
		c-0.2,0.1-0.5,0.2-0.7,0.2C619.2,554.2,618.5,552.9,617.4,551z"/>
	
		<path id="path41_1_" fill="none" stroke="#000000" stroke-width="6.3188" stroke-linecap="round" stroke-linejoin="round" stroke-miterlimit="10" d="
		M527.2,380.2c2.4,3.3,4.5,7,6,11c4.6,12.5,5.1,30.6,0.9,46.1"/>
	
		<path id="path45_4_" fill="none" stroke="#000000" stroke-width="6.3188" stroke-linecap="round" stroke-linejoin="round" stroke-miterlimit="10" d="
		M524.8,310.2c25.7-5.2,49.3,7.3,54.4,32.4"/>
	
		<path id="path47_4_" fill="none" stroke="#000000" stroke-width="6.3188" stroke-linecap="round" stroke-linejoin="round" stroke-miterlimit="10" d="
		M545.7,419.9c-2.8,0.4-5.6,0.3-8.5-0.1"/>
	
		<path id="path49_4_" fill="none" stroke="#000000" stroke-width="4.5134" stroke-linecap="round" stroke-linejoin="round" stroke-miterlimit="10" d="
		M557.9,646.9c-10-0.5-15.4-10.1-17-19.8c-2.1-13,0.7-25.8,3.2-38.2c2.1-10.6,6.1-23.4,1.9-33.8"/>
	
		<path id="path51_4_" fill="none" stroke="#000000" stroke-width="4.5134" stroke-linecap="round" stroke-linejoin="round" stroke-miterlimit="10" d="
		M536.2,641.9c41.1-12.9,45.5-76.5,32.7-109.7"/>
	
		<path id="path53_4_" fill="none" stroke="#000000" stroke-width="4.5134" stroke-linecap="round" stroke-linejoin="round" stroke-miterlimit="10" d="
		M553.7,692.8c22.8-6.1,40.7-24.3,43-48.4c1.2-12-1.5-26,3-37.5c3.7-9.5,17.2-10.8,19.4,0.9c2.2,11.4-13.2,13.7-19.9,8
		c-14.9-12.7-19.6-32.2-19-51.3c0.3-9,1.7-18.1,3.6-26.9c0.4-2.1,6.3-21.6,5.5-22.3"/>
	
		<path id="path55_4_" fill="none" stroke="#000000" stroke-width="4.5134" stroke-linecap="round" stroke-linejoin="round" stroke-miterlimit="10" d="
		M579.5,634.3c-14.7-44.3,73.3-52,39.9-93.7"/>
	
		<path id="path57_4_" fill="none" stroke="#000000" stroke-width="4.5134" stroke-linecap="round" stroke-linejoin="round" stroke-miterlimit="10" d="
		M559.5,607.4c-13.2-8.1-2.8-52.2-3.2-64.9"/>
	
		<path id="path59_4_" fill="none" stroke="#000000" stroke-width="4.5134" stroke-linecap="round" stroke-linejoin="round" stroke-miterlimit="10" d="
		M602.5,568.6c-3.7-11.1-3.3-37.3-1.7-42.5"/>
	
		<path id="path29_4_" fill="none" stroke="#000000" stroke-width="6.3188" stroke-linecap="round" stroke-linejoin="round" stroke-miterlimit="10" d="
		M784.3,419.9c3.5-1,4.5-0.8,8.3-0.9c25.4-1.3,46.9,17.9,48.2,42.7c1.3,24.8-17.4,64.1-42.8,65.4c-12.9,0.6-25-8.6-33.9-21.1"/>
	
		<path id="path31_6_" fill="none" stroke="#000000" stroke-width="5.4161" stroke-linecap="round" stroke-linejoin="round" stroke-miterlimit="10" d="
		M793.3,539C793.2,539,793.2,539.1,793.3,539c0.1-0.2,0.4-1.8,0.5-2.9c0.4-2.3,0.9-5.5,2.3-7.9c0-0.7,0.6-1,1-1.3l0.5-0.3l0.5,0.3
		c2.3,1.3,3.4,4.5,4.3,7.4c0.5,1.5,1,3.2,1.6,3.7l0.8,0.7l-0.7,0.8c-0.3,0.3-0.7,0.5-1.1,0.5c-0.9,0-1.9-0.7-3.4-2
		c-0.4-0.3-0.9-0.8-1.3-1c-0.1,0.1-0.2,0.3-0.3,0.5c-0.5,0.9-1.2,2.3-3.7,3.3L793.3,539z"/>
	
		<path id="path33_6_" fill="none" stroke="#000000" stroke-width="6.3188" stroke-linecap="round" stroke-linejoin="round" stroke-miterlimit="10" d="
		M793.1,418.1c2.4-21.7,20.6-39.1,43.6-40.2c25.4-1.3,46.9,17.9,48.2,42.7c1.3,24.8-17.5,64.2-42.8,65.4c-1.9,0.1-3,0.1-4.9-0.2"/>
	
		<path id="path35_6_" fill="none" stroke="#000000" stroke-width="5.4161" stroke-linecap="round" stroke-linejoin="round" stroke-miterlimit="10" d="
		M846.1,499.4c-2.7-0.7-3.5-2.1-4.1-2.9c-0.2-0.2-0.3-0.4-0.4-0.5c-0.3,0.3-0.8,0.7-1.1,1c-1.5,1.5-2.4,2.4-3.4,2.4
		c-0.4,0-0.8-0.1-1-0.4l-0.8-0.8l0.7-0.8c0.5-0.5,0.9-2.4,1.3-4c0.6-2.9,1.4-6.3,3.5-7.7l0.5-0.3l0.5,0.2c0.4,0.1,1.2,0.5,1.2,1.2
		c1.6,2.2,2.3,5.1,3,7.5c0.3,1.2,0.7,2.8,1,3.1l0,0L846.1,499.4z"/>
	
		<path id="path37_6_" fill="none" stroke="#000000" stroke-width="6.3188" stroke-linecap="round" stroke-linejoin="round" stroke-miterlimit="10" d="
		M884.6,415.1c4.5-0.1,9,0.3,13.6,1.4c24.6,6.3,39.6,30.9,33.5,55s-35.6,56.2-60.2,50c-14-3.5-23.4-18.7-27.8-35.6"/>
	
		<path id="path39_6_" fill="none" stroke="#000000" stroke-width="5.4161" stroke-linecap="round" stroke-linejoin="round" stroke-miterlimit="10" d="
		M869.8,532.9c-0.2-0.5-0.5-1-0.8-1.4c-0.1,0-0.3,0.2-0.5,0.4c-0.8,0.7-2,1.7-4.8,1.7l-0.3-2.2h-0.1c0.4-0.2,1.2-1.6,1.8-2.6
		c1.2-2,2.8-4.7,5-6.5c0.2-0.8,1.1-0.8,1.5-0.9h0.6l0.4,0.5c1.7,2,1.4,5.4,1.2,8.3c-0.1,1.6-0.3,3.5,0.1,4.1l0.5,1l-1,0.5
		c-0.2,0.1-0.5,0.2-0.7,0.2C871.6,536.1,870.9,534.8,869.8,532.9z"/>
	
		<path id="path41_6_" fill="none" stroke="#000000" stroke-width="6.3188" stroke-linecap="round" stroke-linejoin="round" stroke-miterlimit="10" d="
		M789.1,396c0.6,9-0.3,14.3-2.7,23.2"/>
	
		<path id="path41_4_" fill="none" stroke="#000000" stroke-width="6.3188" stroke-linecap="round" stroke-linejoin="round" stroke-miterlimit="10" d="
		M702.9,366.8c2.2-3.6,4.8-7,7.9-9.9"/>
	
		<path id="path43_6_" fill="none" stroke="#000000" stroke-width="6.3188" stroke-linecap="round" stroke-linejoin="round" stroke-miterlimit="10" d="
		M910.8,421.5c13.9-10.8,25.1-28.7,28.2-43.3c5.1-24.3-11-48.2-35.9-53.4c-24.9-5.2-49.2,10.4-54.2,34.7c-1.2,5.6-1.4,12.2-0.8,19.1
		"/>
	
		<path id="path45_2_" fill="none" stroke="#000000" stroke-width="6.3188" stroke-linecap="round" stroke-linejoin="round" stroke-miterlimit="10" d="
		M745.2,314.7c6.6-11.2,17.9-19.8,32-22.6c25.7-5.2,50.7,10.9,55.8,36c3,14.9-0.1,35.9-8.8,51.9"/>
	
		<path id="path47_6_" fill="none" stroke="#000000" stroke-width="6.3188" stroke-linecap="round" stroke-linejoin="round" stroke-miterlimit="10" d="
		M798.1,401.8c-2.8,0.4-5.6,0.3-8.5-0.1"/>
	
		<path id="path49_6_" fill="none" stroke="#000000" stroke-width="4.5134" stroke-linecap="round" stroke-linejoin="round" stroke-miterlimit="10" d="
		M810.3,628.8c-10-0.5-15.4-10.1-17-19.8c-2.1-13,0.7-25.8,3.2-38.2c2.1-10.6,6.1-23.4,1.9-33.8"/>
	
		<path id="path51_6_" fill="none" stroke="#000000" stroke-width="4.5134" stroke-linecap="round" stroke-linejoin="round" stroke-miterlimit="10" d="
		M788.5,623.8c41.1-12.9,45.5-76.5,32.7-109.7"/>
	
		<path id="path53_6_" fill="none" stroke="#000000" stroke-width="4.5134" stroke-linecap="round" stroke-linejoin="round" stroke-miterlimit="10" d="
		M806.1,674.7c22.8-6.1,40.7-24.3,43-48.4c1.2-12-1.5-26,3-37.5c3.7-9.5,17.2-10.8,19.4,0.9c2.2,11.4-13.2,13.7-19.9,8
		c-14.9-12.7-19.6-32.2-19-51.3c0.3-9,1.7-18.1,3.6-26.9c0.4-2.1,6.3-21.6,5.5-22.3"/>
	
		<path id="path55_6_" fill="none" stroke="#000000" stroke-width="4.5134" stroke-linecap="round" stroke-linejoin="round" stroke-miterlimit="10" d="
		M831.9,616.2c-14.7-44.3,73.3-52,39.9-93.7"/>
	
		<path id="path57_6_" fill="none" stroke="#000000" stroke-width="4.5134" stroke-linecap="round" stroke-linejoin="round" stroke-miterlimit="10" d="
		M811.9,589.3c-13.2-8.1-2.8-52.2-3.2-64.9"/>
	
		<path id="path59_6_" fill="none" stroke="#000000" stroke-width="4.5134" stroke-linecap="round" stroke-linejoin="round" stroke-miterlimit="10" d="
		M854.9,550.5c-3.7-11.1-3.3-37.3-1.7-42.5"/>
	
		<path id="path29_2_" fill="none" stroke="#000000" stroke-width="6.3188" stroke-linecap="round" stroke-linejoin="round" stroke-miterlimit="10" d="
		M397.1,509.4c-8.5,10.2-19.2,17.3-30.6,16.7c-25.4-1.3-44.1-40.6-42.8-65.4c0.8-15.2,9.1-28.3,21.3-35.8"/>
	
		<path id="path31_2_" fill="none" stroke="#000000" stroke-width="5.4161" stroke-linecap="round" stroke-linejoin="round" stroke-miterlimit="10" d="
		M370.1,540.2c-2.5-1-3.3-2.3-3.7-3.3c-0.1-0.3-0.2-0.5-0.3-0.5c-0.4,0.2-0.9,0.7-1.3,1c-1.5,1.3-2.5,2-3.4,2
		c-0.5,0-0.9-0.2-1.1-0.5l-0.7-0.8l0.8-0.7c0.5-0.5,1.1-2.2,1.6-3.7c0.9-2.9,2-6.1,4.3-7.4l0.5-0.3l0.5,0.3c0.5,0.2,1.1,0.6,1,1.3
		c1.4,2.4,1.9,5.6,2.3,7.9c0.2,1.1,0.4,2.7,0.6,3c0,0,0,0-0.1-0.1L370.1,540.2z"/>
	
		<path id="path33_2_" fill="none" stroke="#000000" stroke-width="6.3188" stroke-linecap="round" stroke-linejoin="round" stroke-miterlimit="10" d="
		M327.4,485c-1.9,0.4-3,0.4-4.9,0.2c-25.4-1.2-44.1-40.6-42.8-65.4c0.7-14.6,8.5-27.3,19.9-34.9"/>
	
		<path id="path35_2_" fill="none" stroke="#000000" stroke-width="5.4161" stroke-linecap="round" stroke-linejoin="round" stroke-miterlimit="10" d="
		M317.6,496.6C317.5,496.6,317.5,496.6,317.6,496.6c0.3-0.3,0.7-1.9,0.9-3c0.6-2.4,1.4-5.4,3-7.5c0-0.7,0.8-1,1.2-1.2l0.5-0.2
		l0.5,0.3c2.1,1.4,2.8,4.8,3.5,7.7c0.4,1.6,0.8,3.4,1.3,4l0.7,0.8l-0.8,0.8c-0.3,0.3-0.6,0.4-1,0.4c-1,0-1.9-0.9-3.4-2.4
		c-0.3-0.3-0.8-0.8-1.1-1c-0.1,0.1-0.2,0.3-0.4,0.5c-0.6,0.9-1.4,2.2-4.1,2.9L317.6,496.6z"/>
	
		<path id="path37_2_" fill="none" stroke="#000000" stroke-width="6.3188" stroke-linecap="round" stroke-linejoin="round" stroke-miterlimit="10" d="
		M320.8,485.1c-4.4,16.9-13.9,32.1-27.8,35.6c-24.6,6.3-54-25.8-60.2-50c-6.1-24.1,8.9-48.7,33.5-55c4.6-1.2,9.1-1.6,13.6-1.4"/>
	
		<path id="path39_2_" fill="none" stroke="#000000" stroke-width="5.4161" stroke-linecap="round" stroke-linejoin="round" stroke-miterlimit="10" d="
		M291.7,535.3c-0.2,0-0.5,0-0.7-0.2l-1-0.5l0.5-1c0.4-0.6,0.2-2.5,0.1-4.1c-0.2-3-0.5-6.4,1.2-8.3l0.4-0.5h0.6
		c0.4,0,1.3,0.1,1.5,0.9c2.2,1.7,3.8,4.4,5,6.5c0.6,1,1.4,2.3,1.8,2.6c0,0,0,0-0.1,0l-0.3,2.2c-2.8,0-4-1-4.8-1.7
		c-0.2-0.2-0.4-0.3-0.5-0.4c-0.2,0.4-0.5,0.9-0.8,1.4C293.6,534,292.8,535.3,291.7,535.3z"/>
	
		<path id="path41_2_" fill="none" stroke="#000000" stroke-width="6.3188" stroke-linecap="round" stroke-linejoin="round" stroke-miterlimit="10" d="
		M430.6,344.2c2.4,0.5,4.8,1.2,7.2,2.1c2.6,0.9,5.1,2.1,7.4,3.5"/>
	
		<path id="path43_2_" fill="none" stroke="#000000" stroke-width="6.3188" stroke-linecap="round" stroke-linejoin="round" stroke-miterlimit="10" d="
		M305.4,338.3c-10.5-11.8-27.1-17.9-44-14.4c-24.9,5.1-41,29.1-35.9,53.4c3,14.6,14.3,32.5,28.2,43.3"/>
	
		<path id="path45_1_" fill="none" stroke="#000000" stroke-width="6.3188" stroke-linecap="round" stroke-linejoin="round" stroke-miterlimit="10" d="
		M332,321c1.6-7.9,2.5-8.6,7.4-14.4"/>
	
		<path id="path49_2_" fill="none" stroke="#000000" stroke-width="4.5134" stroke-linecap="round" stroke-linejoin="round" stroke-miterlimit="10" d="
		M366,536.3c-4.3,10.3-0.3,23.2,1.9,33.8c2.5,12.5,5.3,25.3,3.2,38.2c-1.6,9.7-7,19.2-17,19.8"/>
	
		<path id="path51_2_" fill="none" stroke="#000000" stroke-width="4.5134" stroke-linecap="round" stroke-linejoin="round" stroke-miterlimit="10" d="
		M343.2,513.3c-12.8,33.3-8.4,96.9,32.7,109.7"/>
	
		<path id="path53_2_" fill="none" stroke="#000000" stroke-width="4.5134" stroke-linecap="round" stroke-linejoin="round" stroke-miterlimit="10" d="
		M322.8,496.4c-0.8,0.6,5.1,20.1,5.5,22.3c1.9,8.9,3.3,17.9,3.6,26.9c0.6,19.1-4.1,38.6-19,51.3c-6.7,5.7-22.1,3.4-19.9-8
		c2.3-11.7,15.7-10.4,19.4-0.9c4.6,11.4,1.9,25.5,3,37.5c2.3,24.1,20.2,42.3,43,48.4"/>
	
		<path id="path55_2_" fill="none" stroke="#000000" stroke-width="4.5134" stroke-linecap="round" stroke-linejoin="round" stroke-miterlimit="10" d="
		M292.7,521.7c-33.4,41.7,54.7,49.4,39.9,93.7"/>
	
		<path id="path57_2_" fill="none" stroke="#000000" stroke-width="4.5134" stroke-linecap="round" stroke-linejoin="round" stroke-miterlimit="10" d="
		M355.8,523.6c-0.4,12.7,10.1,56.8-3.2,64.9"/>
	
		<path id="path59_2_" fill="none" stroke="#000000" stroke-width="4.5134" stroke-linecap="round" stroke-linejoin="round" stroke-miterlimit="10" d="
		M311.3,507.2c1.6,5.2,1.9,31.4-1.7,42.5"/>
	
		<path id="path29_7_" fill="none" stroke="#000000" stroke-width="6.3188" stroke-linecap="round" stroke-linejoin="round" stroke-miterlimit="10" d="
		M242.3,491c-7.3,22.1-25.6,45.5-45.8,44.5c-25.4-1.3-44.1-40.6-42.8-65.4c1.2-24.8,22.7-44,48.2-42.7c13.1,0.6,24.7,6.6,32.6,15.6"
		/>
	
		<path id="path31_1_" fill="none" stroke="#000000" stroke-width="5.4161" stroke-linecap="round" stroke-linejoin="round" stroke-miterlimit="10" d="
		M200.2,549.5c-2.5-1-3.3-2.3-3.7-3.3c-0.1-0.3-0.2-0.5-0.3-0.5c-0.4,0.2-0.9,0.7-1.3,1c-1.5,1.3-2.5,2-3.4,2
		c-0.5,0-0.9-0.2-1.1-0.5l-0.7-0.8l0.8-0.7c0.5-0.5,1.1-2.2,1.6-3.7c0.9-2.9,2-6.1,4.3-7.4l0.5-0.3l0.5,0.3c0.5,0.2,1.1,0.6,1,1.3
		c1.4,2.4,1.9,5.6,2.3,7.9c0.2,1.1,0.4,2.7,0.6,3c0,0,0,0-0.1-0.1L200.2,549.5z"/>
	
		<path id="path33_1_" fill="none" stroke="#000000" stroke-width="6.3188" stroke-linecap="round" stroke-linejoin="round" stroke-miterlimit="10" d="
		M157.4,494.3c-1.9,0.4-3,0.4-4.9,0.2c-25.4-1.2-44.1-40.6-42.8-65.4c1.2-24.8,22.7-44,48.2-42.7c22.9,1.1,41.1,18.5,43.6,40.2"/>
	
		<path id="path35_1_" fill="none" stroke="#000000" stroke-width="5.4161" stroke-linecap="round" stroke-linejoin="round" stroke-miterlimit="10" d="
		M147.6,505.9L147.6,505.9c0.3-0.3,0.7-1.9,0.9-3c0.6-2.4,1.4-5.4,3-7.5c0-0.7,0.8-1,1.2-1.2l0.5-0.2l0.5,0.3
		c2.1,1.4,2.8,4.8,3.5,7.7c0.4,1.6,0.8,3.4,1.3,4l0.7,0.8l-0.8,0.8c-0.3,0.3-0.6,0.4-1,0.4c-1,0-1.9-0.9-3.4-2.4
		c-0.3-0.3-0.8-0.8-1.1-1c-0.1,0.1-0.2,0.3-0.4,0.5c-0.6,0.9-1.4,2.2-4.1,2.9L147.6,505.9z"/>
	
		<path id="path37_1_" fill="none" stroke="#000000" stroke-width="6.3188" stroke-linecap="round" stroke-linejoin="round" stroke-miterlimit="10" d="
		M150.9,494.4c-4.4,16.9-13.9,32.1-27.8,35.6c-24.6,6.3-54-25.8-60.2-50c-6.1-24.1,8.9-48.7,33.5-55c4.6-1.2,9.1-1.6,13.6-1.4"/>
	
		<path id="path39_1_" fill="none" stroke="#000000" stroke-width="5.4161" stroke-linecap="round" stroke-linejoin="round" stroke-miterlimit="10" d="
		M121.7,544.6c-0.2,0-0.5,0-0.7-0.2l-1-0.5l0.5-1c0.4-0.6,0.2-2.5,0.1-4.1c-0.2-3-0.5-6.4,1.2-8.3l0.4-0.5h0.6
		c0.4,0,1.3,0.1,1.5,0.9c2.2,1.7,3.8,4.4,5,6.5c0.6,1,1.4,2.3,1.8,2.6c0,0,0,0-0.1,0l-0.3,2.2c-2.8,0-4-1-4.8-1.7
		c-0.2-0.2-0.4-0.3-0.5-0.4c-0.2,0.4-0.5,0.9-0.8,1.4C123.7,543.3,122.9,544.6,121.7,544.6z"/>
	
		<path id="path41_7_" fill="none" stroke="#000000" stroke-width="6.3188" stroke-linecap="round" stroke-linejoin="round" stroke-miterlimit="10" d="
		M208.1,427.7c-4.2-15.5-3.7-33.6,0.9-46.1c3.3-9,8.4-16.2,15.9-21.3"/>
	
		<path id="path43_1_" fill="none" stroke="#000000" stroke-width="6.3188" stroke-linecap="round" stroke-linejoin="round" stroke-miterlimit="10" d="
		M146.4,387.2c0.7-6.9,0.4-13.5-0.8-19.1c-5-24.3-29.3-39.9-54.2-34.7c-24.9,5.1-41,29.1-35.9,53.4c3,14.6,14.3,32.5,28.2,43.3"/>
	
		<path id="path45_7_" fill="none" stroke="#000000" stroke-width="6.3188" stroke-linecap="round" stroke-linejoin="round" stroke-miterlimit="10" d="
		M170.3,388.5c-8.7-15.9-11.8-36.9-8.8-51.9c5.1-25.1,30.1-41.3,55.8-36c15.5,3.1,27.8,13.2,33.9,26.3"/>
	
		<path id="path47_1_" fill="none" stroke="#000000" stroke-width="6.3188" stroke-linecap="round" stroke-linejoin="round" stroke-miterlimit="10" d="
		M204.9,410.2c-2.8,0.4-5.6,0.5-8.5,0.1"/>
	
		<path id="path49_1_" fill="none" stroke="#000000" stroke-width="4.5134" stroke-linecap="round" stroke-linejoin="round" stroke-miterlimit="10" d="
		M196.1,545.6c-4.3,10.3-0.3,23.2,1.9,33.8c2.5,12.5,5.3,25.3,3.2,38.2c-1.6,9.7-7,19.2-17,19.8"/>
	
		<path id="path51_1_" fill="none" stroke="#000000" stroke-width="4.5134" stroke-linecap="round" stroke-linejoin="round" stroke-miterlimit="10" d="
		M173.3,522.6c-12.8,33.3-8.4,96.9,32.7,109.7"/>
	
		<path id="path53_1_" fill="none" stroke="#000000" stroke-width="4.5134" stroke-linecap="round" stroke-linejoin="round" stroke-miterlimit="10" d="
		M152.9,505.7c-0.8,0.6,5.1,20.1,5.5,22.3c1.9,8.9,3.3,17.9,3.6,26.9c0.6,19.1-4.1,38.6-19,51.3c-6.7,5.7-22.1,3.4-19.9-8
		c2.3-11.7,15.7-10.4,19.4-0.9c4.6,11.4,1.9,25.5,3,37.5c2.3,24.1,20.2,42.3,43,48.4"/>
	
		<path id="path55_1_" fill="none" stroke="#000000" stroke-width="4.5134" stroke-linecap="round" stroke-linejoin="round" stroke-miterlimit="10" d="
		M122.7,530.9c-33.4,41.7,54.7,49.4,39.9,93.7"/>
	
		<path id="path57_1_" fill="none" stroke="#000000" stroke-width="4.5134" stroke-linecap="round" stroke-linejoin="round" stroke-miterlimit="10" d="
		M185.8,532.9c-0.4,12.7,10.1,56.8-3.2,64.9"/>
	
		<path id="path59_1_" fill="none" stroke="#000000" stroke-width="4.5134" stroke-linecap="round" stroke-linejoin="round" stroke-miterlimit="10" d="
		M141.3,516.5c1.6,5.2,1.9,31.4-1.7,42.5"/>
</g>
<g id="vs-reveal" opacity="0">
	
		<polyline fill="none" stroke="#0000FF" stroke-width="36.1075" stroke-linecap="round" stroke-linejoin="round" stroke-miterlimit="10" points="
		47.4,364.9 70.8,356.8 94.2,348.8 117.6,340.8 141,332.7 164.4,324.7 187.8,316.7 211.2,308.6 234.6,300.5 211.7,313.3 
		188.8,326.1 165.9,338.9 143,351.6 120.1,364.4 97.1,377.1 74.2,389.9 51.3,402.6 79.3,391.4 107.4,380.2 135.4,369 163.4,357.8 
		191.4,346.5 219.5,335.3 247.6,324.1 275.6,312.9 248.7,328.1 221.8,343.3 194.9,358.5 168,373.7 141.1,388.9 114.2,404.1 
		87.3,419.3 60.4,434.5 90.9,420.9 121.4,407.3 151.9,393.8 182.3,380.2 212.8,366.6 243.2,353 273.7,339.5 304.2,325.9 
		272.8,344.1 241.3,362.3 209.9,380.5 178.4,398.7 146.9,416.9 115.5,435.1 84.1,453.3 52.6,471.5 97.6,445.8 142.5,420.1 
		187.4,394.5 232.4,368.8 277.3,343.1 322.2,317.5 367.1,291.8 412,266.1 368.3,295.6 324.6,325.1 280.9,354.6 237.2,384.1 
		193.5,413.6 149.8,443.1 106.1,472.5 62.4,502 109.4,474.9 156.4,447.8 203.4,420.6 250.5,393.5 297.5,366.4 344.6,339.2 
		391.7,312.1 438.7,285 394,315.5 349.3,346 304.6,376.5 260,407.1 215.3,437.7 170.6,468.3 125.9,498.8 81.2,529.3 126.9,502.3 
		172.7,475.2 218.5,448.2 264.2,421.1 310,394 355.7,367 401.5,340 447.2,312.9 404.8,342.7 362.3,372.5 319.9,402.3 277.5,432.1 
		235.1,462 192.7,491.8 150.3,521.6 107.9,551.4 158.3,519.8 208.6,488.2 259,456.6 309.4,425 359.8,393.4 410.1,361.8 460.5,330.2 
		510.8,298.6 468.9,329.7 427,360.8 385.1,392 343.2,423.1 301.3,454.2 259.3,485.3 217.4,516.4 175.5,547.5 222.6,517.4 
		269.7,487.3 316.9,457.1 364,427 411.1,396.9 458.2,366.7 505.3,336.5 552.4,306.4 516.8,334 481.1,361.6 445.5,389.3 409.8,416.9 
		374.1,444.5 338.4,472.1 302.8,499.8 267.1,527.4 307,501.7 347,475.9 387,450.1 427,424.4 467,398.6 507,372.8 547,347 
		586.9,321.3 555.1,346.6 523.2,372 491.4,397.4 459.5,422.8 427.6,448.1 395.8,473.4 364,498.8 332.1,524.1 373.7,493.8 
		415.3,463.4 456.9,433 498.5,402.6 540.1,372.2 581.7,341.8 623.3,311.4 664.9,281 625.8,313.8 586.7,346.5 547.7,379.3 508.6,412 
		469.5,444.8 430.4,477.5 391.3,510.3 352.2,543 395.2,511.8 438.2,480.6 481.2,449.4 524.2,418.2 567.2,387 610.1,355.8 
		653.1,324.6 696.1,293.4 666,320.5 635.9,347.5 605.8,374.5 575.8,401.6 545.8,428.7 515.7,455.7 485.7,482.8 455.6,509.8 
		487.7,486.2 519.8,462.6 551.9,439 584,415.3 616,391.6 648.1,368 680.2,344.4 712.3,320.7 685.5,345.5 658.7,370.4 631.9,395.3 
		605.1,420.1 578.3,445 551.5,469.9 524.7,494.8 497.8,519.6 535.2,490.3 572.6,460.9 609.9,431.6 647.3,402.3 684.7,373 
		722.1,343.6 759.4,314.3 796.8,285 762.3,317.6 727.9,350.3 693.5,383 659,415.6 624.5,448.3 590.1,480.9 555.7,513.5 521.2,546.2 
		559.8,515.6 598.3,485 636.8,454.4 675.3,423.7 713.8,393.1 752.3,362.5 790.8,331.9 829.3,301.2 792.8,334.5 756.4,367.8 
		719.9,401.1 683.4,434.5 646.9,467.8 610.4,501.1 574,534.4 537.5,567.7 575.9,537.4 614.3,507.1 652.8,476.8 691.2,446.5 
		729.7,416.1 768.1,385.8 806.5,355.5 844.9,325.3 814.9,354 784.9,382.6 755,411.3 725,440 695,468.6 665,497.3 635,526 
		605.1,554.7 641.7,525 678.2,495.4 714.8,465.8 751.3,436.1 787.8,406.5 824.4,376.8 861,347.1 897.5,317.5 873.8,341.7 
		850.1,365.9 826.4,390.1 802.7,414.3 779,438.5 755.2,462.7 731.5,486.9 707.8,511.1 735.3,488.5 762.9,466 790.4,443.4 
		817.9,420.8 845.5,398.2 873,375.6 900.5,353 928.1,330.5 903,355.6 878,380.8 853,406 828,431.2 803,456.4 777.9,481.6 
		752.9,506.8 727.9,531.9 756.2,509.8 784.4,487.6 812.7,465.4 841,443.2 869.3,421 897.5,398.8 925.8,376.6 954.1,354.5 
		931.9,376.6 909.7,398.7 887.6,420.8 865.4,442.9 843.2,465 821,487.1 798.8,509.2 776.7,531.3 795,517.3 813.2,503.3 831.5,489.3 
		849.8,475.4 868.1,461.4 886.4,447.4 904.7,433.5 922.9,419.5 912.8,432.3 902.6,445 892.4,457.8 882.3,470.5 872.2,483.3 862,496 
		851.8,508.8 841.7,521.5 854,512.9 866.2,504.3 878.5,495.7 890.7,487.1 903,478.5 915.2,469.9 927.5,461.3 939.8,452.6 
		930.3,463.9 920.9,475.1 911.5,486.3 902.1,497.5 892.7,508.7 883.2,519.9 873.8,531.1 864.4,542.3 	"/>
</g>
</svg>
