<?xml version="1.0" encoding="utf-8"?>
<!-- Generator: Adobe Illustrator 22.1.0, SVG Export Plug-In . SVG Version: 6.00 Build 0)  -->
<svg version="1.1"
	 id="Layer_1" xmlns:cc="http://creativecommons.org/ns#" xmlns:dc="http://purl.org/dc/elements/1.1/" xmlns:rdf="http://www.w3.org/1999/02/22-rdf-syntax-ns#" xmlns:svg="http://www.w3.org/2000/svg"
	 xmlns="http://www.w3.org/2000/svg" xmlns:xlink="http://www.w3.org/1999/xlink" x="0px" y="0px" width="1000px" height="1000px"
	 viewBox="0 0 1000 1000" enable-background="new 0 0 1000 1000" xml:space="preserve">
<g id="vs-primary">
	<path fill="#DA6413" d="M823.6,777.5c-1.5-0.6-3-1.1-4.5-1.6c-3.9-1.4-7.7-2.8-10.4-4.1c-3.4-1.6-6.6-2.9-9.7-4.2
		c-8.6-3.5-16.6-6.8-23.9-15.1c-9.7-11.1-17.2-23.5-22.2-36.9c-0.5-1.3-1-2.6-1.4-3.9c-1.7-4.7-3.5-9.6-5.6-14.1
		c-2.4-5.2-5.6-10.2-8.7-15.1c-1.2-1.9-2.3-3.7-3.5-5.6c-19.6-33-27.1-73.1-21.1-111c-17.3,16-39.2,27-62.3,31.4
		c-0.4,2.1-1.4,3.6-2.3,4.9c-1.1,1.6-1.6,2.4-1.3,3.7c0.7,3.8,2.8,7.1,5.3,10.7l22.3,33.4c2,3.1,4,6.1,6,9.1s4,6.1,6.1,9.1
		c15,22.6,30.5,46,46.1,69.2c9.8,14.8,18.9,28,30.5,38.9c0.9,0.8,1,2.2,0.4,3.2c-0.6,0.9,0.1,2.8,1.4,3.7c1.7,1.2,4.1,1.5,6.6,1.8
		l31.5,3.9c0.7,0.1,1.3,0.2,2,0.3c6.2,0.8,10.8,1.2,13.1-1.6c0.3-1,1.3-1.8,2.4-1.8l0,0c0.5,0,1,0.1,1.4,0.4c1,0.6,1.4,1.8,1.1,2.9
		c0.2,2,1.2,2.1,1.7,2.1c1.9,0.1,3.8-1.4,3.9-2c0-0.4,0.2-0.8,0.4-1.1c0.9-1.4,1.3-3.4,0.8-4.5c-0.4-0.8-0.3-1.8,0.3-2.6
		c0.2-0.2,0.4-0.4,0.6-0.6c-1.9-0.9-4.1-1.7-6.2-2.5C824.1,777.7,823.8,777.6,823.6,777.5z"/>
	<path fill="#DA6413" d="M821.5,403c1.6-5.7,4.1-9.9,6.5-13c9-11.4,20.2-10.9,32-23c5.7-5.8,9.4-12.4,11.9-18.7
		c0.1-0.3,0.3-0.7,0.4-1l0,0l0,0c-2.3-2-4.4-4.3-6.2-6.9c-1.7-2.6-3-5.3-4.3-7.9c-0.8-1.6-1.6-3.1-2.4-4.6
		c-13.7-24.6-44.6-33.4-68.2-36.5c-8.1-1.1-16.6-1.7-24.5,0.6c-10.4,2.9-18.9,10.6-27.1,18l-0.2,0.2c-11.9,10.9-24,22-35.7,32.7
		c-11.7,10.8-23.8,21.9-35.7,32.8c-4.8,4.3-9.1,6.5-13,6.8c3,8.4,3.9,17.8,1.4,26.5c-5.2,18.4-23.7,27.6-39.5,35.5
		c-31.2,15.5-39.1,5.2-52.5,17.5c-17.4,16-6,35.3-29,72c-10.8,17.3-17.8,20-21,21c-11.7,3.5-23.8-3-45.5-13.5
		c-4.4-2.1-3.9-2.2-23-13c-30.1-17.1-31.6-17.1-35-21c-12.3-14.1-2.8-25.4-11.5-45c-10.2-23.1-37-38.3-60-40.5
		c-24.9-2.3-27.9,12.4-63.5,18.5c-5.8,1-16.3,2.8-28.8,2.7c-1.3,16.4-3.2,33.1-5.8,50c2.5,3.2,5.5,6.9,9.1,10.7l0.1-0.1
		c1.1-0.8,2.7-0.5,3.5,0.7c4.4,6.4,10.8,10.8,17.6,15.5c3.1,2.2,6.3,4.4,9.4,6.9c13.5,10.9,24.1,27.2,30.6,47
		c6,17.7,8.3,36.1,10.3,54.9c1.7,14.7,3,30.2,0.3,45.1c3.7-2.7,7.2-5.8,10.3-9.4c3.6-4.2,6.7-9.1,8.5-14.8c5.1-15.8-3.8-22.7-1.5-45
		c0.3-2.7,1.2-12.3,5.6-23.3c3.9-9.8,10.4-20.7,21.4-29.2c9.2-7.1,19-10.5,26.8-12.1c3.6-26-3.5-53.9-19.2-75
		c-0.8-1.1-0.6-2.7,0.5-3.5s2.7-0.6,3.5,0.5c14.9,20,22.4,45.7,21,70.5c19,4.7,36,9.5,51.6,18.3c2,1.2,4,2.4,5.9,3.6
		c3.6,2.2,7,4.3,10.7,6c6.8,3.1,14.2,4.9,21.2,6.4c5.5,1.3,10.9,2.5,16.3,3.8c5.5,1.3,10.9,2.5,16.4,3.8c5.6,1.3,11.8,2.8,16.7,6.1
		c-0.9-3.8-1.6-7.6-1.3-11.6c1.2-12.9,12.2-22,22.3-29.4c1.1-0.8,2.7-0.6,3.5,0.5s0.6,2.7-0.5,3.5c-9.3,6.8-19.3,15-20.3,25.8
		c-0.4,5,1.1,10.2,2.6,15.2l0.2,0.8c12.1,39,21.9,78,29.1,115.7c0.2,1.1-0.3,2.2-1.3,2.7s-2.2,0.3-3-0.5c-0.8-0.9-1.7-1.6-2.7-2.1
		l-0.2,2.7c-0.1,0.9-0.7,1.7-1.5,2.1c-0.3,0.1-0.6,0.2-1,0.2c-0.6,0-1.2-0.2-1.6-0.6c-6.7-5.7-16.6-7.8-25.1-5.5
		c-1,0.3-2-0.1-2.6-0.9c-1.3-1.7-3.7-2.5-6.1-2.2c-2,0.2-3.6,1.1-4.6,2.4c0.3,0.4,0.6,0.8,0.9,1.2c0,0,0,0.1,0.1,0.1
		c1.2,1.9,1.8,2,1.8,2c1.3-0.4,2.7,0.3,3.1,1.6s-0.3,2.7-1.6,3.2c-2.7,0.9-5.3-0.5-7.6-4c-2.4-3.5-4.8-5.8-7.4-7.3
		c-2.3-1.2-5.8-1.9-8.6-0.2c-2.4,1.3-3.4,4.6-2.3,6.7c0.3,0.7,0.4,1.5,0,2.2c-0.3,0.7-1,1.2-1.7,1.4c-1.2,0.3-2.4,0.4-3.6,0.3
		c0.3,0.3,0.6,0.6,1,0.9c4.3,3.3,8.8,4.9,13.6,6.6c4.4,1.5,8.9,3.1,13.4,6.1c1.1,0.8,1.5,2.3,0.7,3.5c-0.5,0.7-1.3,1.1-2.1,1.1
		c-0.5,0-1-0.1-1.4-0.4c-4-2.6-8-4-12.3-5.5c-5-1.7-10.1-3.5-14.9-7.3c-2.8-2.1-5.4-5.8-3.6-9.3c0.6-1.1,1.9-1.6,3.1-1.1
		c0.8,0.3,1.6,0.5,2.4,0.6c-0.1-1.7,0.2-3.4,0.9-4.9c-3.2-0.4-6.8-0.5-8.4,1l-0.1,0.1c-2.5,2-3.4,5.9-1.8,8.3
		c0.5,0.7,0.6,1.5,0.3,2.3c-0.3,0.8-0.9,1.3-1.7,1.5c-0.5,0.1-1,0.2-1.5,0.3c0.9,0.8,2.2,1.6,3.7,2.3c7,3.7,14.6,6.3,22.7,7.5
		c1.4,0.2,2.3,1.5,2.1,2.9c-0.2,1.2-1.3,2.1-2.5,2.1c-0.1,0-0.3,0-0.4,0c-8.6-1.3-16.8-4-24.2-8c-0.4-0.2-0.8-0.4-1.4-0.7
		c-0.1,0.1-0.2,0.1-0.3,0.2l3.6,2c11.8,6.2,24.4,9.7,37.4,10.3h0.2c6.9,0.3,13.9-1.2,20.7-2.6c3.1-0.7,6.4-1.4,9.6-1.9
		c4.3-0.7,8.6-1.1,12.8-1.5c7.9-0.8,15.4-1.5,22.6-3.9c10.2-3.3,20.9-11.6,21.8-22.7c0.4-4.2-0.7-8.3-1.8-12.8
		c-0.3-1.2-0.6-2.4-0.9-3.6c-6.3-28.1,0.7-56.3,9.9-87.6c0.8-2.9,1.7-5.8,2.9-8.5l0,0l0,0c0.4-1.2,0.8-2.2,1.3-3.1
		c0.6-0.9,1.2-1.8,2.1-2.7c0.2-0.2,0.4-0.4,0.6-0.7c0.9-1.1,2-2.1,3.2-2.9c0.3-0.2,0.5-0.4,0.8-0.6c0.2-0.1,0.5-0.2,0.7-0.4
		c0.8-0.4,1.6-0.8,2.5-1.1l0,0c2.7-1.7,6.1-3.8,10.4-6.6c1.4-0.9,2.8-1.8,4.4-2.9c8.1-5.3,14-10.7,20-17.3c4-4.5,8.1-9.5,12.8-15.4
		c4.6-5.7,7.6-10.3,10-14.6c5.9-10.9,7.3-19.4,19-38.4c12.7-20.7,23.6-38.5,43-49c12.8-7,26.4-9.2,38.8-9c0.1,0,0.3,0,0.4,0
		c0.2,0,0.3,0,0.5,0c9.5,0.2,18.4,1.7,25.6,3.5h0.1h0.1C819.1,414.5,820,408.1,821.5,403z M834.2,345.9c5.7-10.2,23-7.9,28.6-5.3
		c1.3,0.6,1.8,2.1,1.2,3.3c-0.6,1.3-2.1,1.8-3.3,1.2h-0.1c-0.9,4.1-3.8,8.5-7.7,9.8c-0.8,0.3-1.7,0.4-2.7,0.4c-2,0-4.3-0.6-6.3-1.8
		c-2.3-1.3-4.1-3.2-5.2-5.4c0,0,0,0.1-0.1,0.1c-0.5,0.8-1.3,1.3-2.2,1.3c-0.4,0-0.8-0.1-1.2-0.3C834,348.6,833.6,347.1,834.2,345.9z
		 M810.9,308.9c-0.2,0.2-0.4,0.4-0.7,0.6c-0.9,0.5-1.7,1.1-2.4,1.8c-1.2,1.2-2,2.6-2.7,4.2c-1,2.5-1.4,5.3-1.3,7.9
		c0.1,3,0.6,5.8,1.2,8.8c0.1,0.7,0.3,1.3,0.4,2c0.5,2.5,1.1,5,1.4,7.7c2.6,20.2-8.3,42-29.2,58.1c-0.6,0.5-1.3,1-2,1.5
		c-3.2,2.4-7.2,4.9-11.7,6.4l0,0l0,0c-2.5,0.8-5.1,1.3-7.8,1.3c-0.5,0-0.9,0-1.3,0c-0.1,0-0.2,0-0.3-0.1c-0.4-0.1-0.8-0.3-1.1-0.5
		c-0.1-0.1-0.2-0.2-0.3-0.3c-0.1-0.1-0.2-0.2-0.2-0.3c-0.2-0.4-0.3-0.8-0.3-1.2c0-0.1,0-0.3,0-0.4c1.7-10.3,0.9-21-2.3-30.9
		c-0.6-1.8-1.3-3.7-2-5.5c-1.3-3.3-2.9-6.6-4.4-9.9c-0.3-0.6-0.6-1.3-0.9-1.9c-0.8-1.7-1.6-3.3-2.4-5c-2.6-5.6-5-11.4-6.5-17.3
		c-1.1-4.7-1.7-9.6-1.2-14.6c0.1-0.9,0.6-1.6,1.4-2c0.4-0.2,0.9-0.3,1.4-0.3c0.7,0.1,1.3,0.4,1.7,0.9s0.6,1.1,0.6,1.8
		c-0.7,6.4,0.6,12.5,2.7,18.6c0.5,1.5,1.1,3,1.7,4.5c1.5,3.7,3.3,7.4,5.1,11.1c2.8,5.8,5.6,11.8,7.6,17.9c0.9,2.8,1.6,5.7,2.2,8.6
		c1.4,7.1,1.6,14.5,0.7,21.8c2.5-0.2,5-1,7.8-2.3c0,0,0,0,0.1,0l0,0c2.4-1.2,4.8-2.7,7.5-4.7c0.4-0.3,0.9-0.6,1.3-1
		c15-11.6,30.1-31.8,27.3-53.5c-0.1-1.1-0.3-2.2-0.5-3.3c-0.2-1.3-0.5-2.6-0.8-4c-0.1-0.4-0.2-0.8-0.3-1.3c-0.2-1.1-0.4-2.1-0.6-3.2
		c-0.4-2.3-0.8-4.7-0.8-7.2c-0.1-3.3,0.5-7,1.9-10.3s3.7-6.3,7.2-8.1c1.1-0.6,2.4-0.3,3.1,0.7c0.1,0.1,0.2,0.3,0.3,0.4
		C811.7,307,811.5,308.1,810.9,308.9z"/>
</g>
<g id="vs-secondary">
	<path fill="#2D2A2A" d="M835.2,349.3c0.4,0.2,0.8,0.3,1.2,0.3c0.9,0,1.7-0.5,2.2-1.3c0,0,0-0.1,0.1-0.1c1.1,2.2,2.9,4.1,5.2,5.4
		c2,1.1,4.3,1.8,6.3,1.8c1,0,1.8-0.1,2.7-0.4c3.9-1.3,6.8-5.7,7.7-9.8h0.1c1.3,0.6,2.7,0,3.3-1.2c0.6-1.3,0-2.7-1.2-3.3
		c-5.6-2.6-22.9-5-28.6,5.3C833.6,347.1,834,348.6,835.2,349.3z M843.6,344.4c3.7-1.3,8.4-1.2,12.1-0.6c-0.1,0.3-0.2,0.7-0.3,1
		c-0.2,0.5-0.4,1-0.6,1.5c-0.9,1.8-2.2,3.5-3.6,3.9c-1,0.3-3,0.1-5-1c-0.9-0.5-2-1.3-2.8-2.6c-0.4-0.5-0.7-1.2-0.9-1.9
		C843,344.6,843.3,344.5,843.6,344.4z"/>
	<path fill="#2D2A2A" d="M843.5,346.6c0.8,1.2,1.9,2.1,2.8,2.6c1.9,1.1,4,1.3,5,1c1.4-0.5,2.8-2.1,3.6-3.9c0.2-0.5,0.4-1,0.6-1.5
		c0.1-0.3,0.2-0.7,0.3-1c-3.7-0.6-8.4-0.7-12.1,0.6c-0.3,0.1-0.6,0.2-0.9,0.4C842.9,345.5,843.2,346.1,843.5,346.6z"/>
	<path fill="#2D2A2A" d="M339.5,422c23,2.2,49.8,17.4,60,40.5c8.7,19.6-0.8,30.9,11.5,45c3.4,3.9,4.9,3.9,35,21
		c19.1,10.8,18.6,10.9,23,13c21.7,10.5,33.8,17,45.5,13.5c3.2-1,10.2-3.8,21-21c23-36.7,11.6-56,29-72c13.4-12.3,21.3-2,52.5-17.5
		c15.8-7.9,34.3-17.1,39.5-35.5c2.5-8.7,1.5-18.1-1.4-26.5c-0.1,0-0.1,0-0.2,0l-3.1,0.1c-6.6,0.3-12.8,0.5-19,1.5
		c-61,10-127.5,8.5-192-4.4c-4-0.8-8.1-1.7-12-2.5c-15-3.2-30.4-6.5-45.8-7c-16.3-0.5-32.8,2.2-48.8,4.7
		c-17.4,2.8-35.4,5.6-53.4,4.6c-35.3-2.1-67.7-20.2-84.7-47.3c-18.7-29.8-17.1-69.7,3.9-94.9c7.5-9.1,17.6-15.9,28.7-20l0,0l0,0
		c-0.3-1.8-0.9-3.6-1.9-5.3c-0.3-0.6-0.7-1.1-1.2-1.6c-1.9-2.2-4.4-3.6-7.2-4.3c-0.1,0-0.2-0.1-0.3-0.1c-3,1.1-5.8,2.5-8.6,4.1
		c-23.4,13.7-39.6,41.9-44.6,77.4c-1.7,12-1.7,21.8-0.2,30.8C171,355,205.1,380,235.2,402l0.4,0.3c4.8,3.5,9.2,7,11.3,12.4
		c1.8,4.4,1.6,8.9,1.3,13.2c-0.3,5.1-0.6,10.2-1,15.3c12.5,0.1,23-1.7,28.8-2.7C311.6,434.4,314.6,419.7,339.5,422z"/>
	<path fill="#2D2A2A" d="M238.8,508.7c-5.1,28.1-13.4,59.3-36.3,78.6c-15.1,12.6-34.6,18.4-52,23.4c-10,24.7-24.2,48-41.7,68.6
		c0.1,0.8,0.3,1.7,0.6,2.5c0.1,0.3,0.2,0.6,0.3,0.9c0,0.1,0.1,0.3,0.1,0.4c0,0,0,0.1,0.1,0.1c0.8,2.1,1.9,4.1,3.6,5.8
		c3.6,3.5,8.5,4.6,13,4.8l0,0l0,0c17.4-21.3,37.1-43.6,62.2-58.5c9.7-5.8,20.2-10.4,30.3-14.9c2.2-1,4.3-1.9,6.4-2.9
		c27-11.9,54.4-26.3,81.4-42.8c-6.3-18.7-16.2-33.9-28.9-44.2c-2.9-2.3-6-4.5-9.1-6.6c-6.9-4.8-14-9.7-18.8-16.8
		c-0.8-1.1-0.5-2.5,0.5-3.4c-3.6-3.8-6.6-7.4-9.1-10.7C240.6,498.3,239.7,503.5,238.8,508.7z"/>
</g>
<g id="vs-color">
	<path fill="#F4ECCE" d="M85,736c0.1,0.1,0.1,0.2,0.2,0.2c0.2,0.2,0.4,0.4,0.6,0.7c-0.1-0.8,0-1.7,0.2-2.6c0-0.1,0-0.1,0-0.2
		c0.4-1.6,1.2-3.1,1.9-4.4c0.2-0.3,0.3-0.7,0.5-1c0.2-0.4,0.3-0.8,0.4-1.2c-0.7,0.1-1.4,0.2-2.1,0.2c-0.4,0-0.9,0-1.3-0.1
		c0.4,3,0,6-0.3,7.7C85.1,735.6,85.1,735.8,85,736z"/>
	<path fill="#F4ECCE" d="M80.2,737.8c-0.6,1.4-1.5,2.8-2.6,4.2c0.6,0.7,2.6,2.1,4.6,2.4c2.1,0.2,3.4,2.5,6.5,8.8
		c0.6,1.2,1.3,2.7,1.6,3.1c0.2,0.3,1,0.5,2.3,0.3c-4.3-9.1-9.1-14.6-11.2-16.9C80.8,738.7,80.4,738.3,80.2,737.8z"/>
	<path fill="#F4ECCE" d="M100.9,758.7c-1.1-0.3-1.8-1.2-1.9-2.3c-0.1-2.6-2.1-4.9-4.5-7.2c1.8,3.2,3.7,7,5.3,11.4
		c0.1,0.2,0.1,0.3,0.6,0.3c0.8-0.1,1.9-0.8,2.2-1.7c0-0.1,0-0.2,0-0.3s0.1-0.3,0.1-0.4c-0.4,0.2-0.8,0.3-1.2,0.3
		C101.3,758.8,101.1,758.8,100.9,758.7z"/>
	<path fill="#F4ECCE" d="M345.1,581.2c-4.4,11.1-5.3,20.6-5.6,23.3c-2.3,22.3,6.6,29.2,1.5,45c-1.8,5.7-4.8,10.6-8.5,14.8
		c-3.1,3.6-6.6,6.7-10.3,9.4c-0.5,2.6-1.1,5.2-1.8,7.8l-0.3,1.2c-0.7,2.4-1.3,4.7-1.3,7c0,3.6,2.2,7,4.1,9.7
		c5.1,7,11.7,13.1,18.1,18.9c1.8,1.6,3.6,3.3,5.3,4.9c15.5,14.7,29,31.2,39.9,48.9c0.6,0.9,1.2,1.8,1.7,2.8
		c2.7,4.4,5.3,8.6,8.9,11.8c2.9,2.7,7.2,5.2,11.6,5.4c-0.5-0.9-0.9-1.8-1.2-2.8c-0.4-1.3,0.3-2.7,1.6-3.1c1.3-0.4,2.7,0.3,3.1,1.6
		c1.6,5,6.6,9,12.3,9.9c5,0.7,10.5-0.5,15.8-3.7c0.1-2,0.3-4.2,0.4-6.3c0-0.5,0.2-1.1,0.6-1.5c-3.1-3-6.5-5.5-10.2-7.7
		c-1.2-0.7-1.6-2.2-0.9-3.4s2.2-1.6,3.4-0.9c5.1,3,9.7,6.6,13.8,11.1c0.9,1,0.9,2.5-0.1,3.5c-0.5,0.5-1.1,0.9-1.8,1.2
		c-0.1,1-0.1,1.9-0.2,2.9c6.2-0.3,7.1-1.6,8.4-3.6c0.4-0.6,0.8-1.2,1.4-1.9l0.1-0.1c1.5-1.6,2.3-3.5,2.1-4.8c-0.2-2.1,0.4-3.6,2-4.7
		c-1-0.3-2-0.6-2.7-0.8c-2.3-0.6-3.6-1-4.4-1.4c-5.3-2.8-11.2-5.1-16.8-7.4c-9.3-3.8-18.9-7.7-27.3-13.7c-20-14.1-30.3-38.1-37-57.3
		c-3.3-9.2-6.4-19.2-6.9-29.9c-0.7-12.7,2.7-25.2,5.9-37.2l0.2-0.7c3.1-11.1,6.1-22.3,9.1-33.4c3-11.1,6.1-22.3,9.1-33.4l0.3-1.1
		c1.7-6.3,3.3-12.2,4.3-18.5c0.2-1.1,0.3-2.1,0.5-3.2c-7.8,1.6-17.6,5-26.8,12.1C355.5,560.5,349,571.4,345.1,581.2z"/>
	<path fill="#F4ECCE" d="M218.3,206.2c2.8,0.8,5.3,2.1,7.2,4.3c0.4,0.5,0.8,1.1,1.2,1.6c1,1.7,1.6,3.5,1.9,5.3
		c14.8-5.5,31.4-6.1,46.2-1c0.9,0.3,1.4-0.1,1.7-0.6c0.1-0.2,0.6-1.1-0.3-1.9c-15.2-12.4-38.8-15.2-58.2-7.9l0,0l0,0
		C218.1,206.1,218.2,206.1,218.3,206.2z"/>
	<path fill="#F4ECCE" d="M918.6,371.2c-6.3-4.6-14-7.7-21.6-10.7c-8.7-3.5-17.7-7.1-24.7-13.2c-0.1,0.3-0.3,0.7-0.4,1
		c-2.5,6.3-6.2,12.8-11.9,18.7c-11.8,12.1-23,11.7-32,23c-2.5,3.1-4.9,7.3-6.5,13c-1.5,5.1-2.3,11.5-2,19.5
		c11.8-3.6,23.2-6.2,35.1-7.2c4.5-0.4,9.3-0.3,13.9-0.2c13.2,0.2,25.7,0.5,34.4-7.7c-3,0.4-6.2,1.1-9.7,1.7
		c-7.2,1.4-14.9,2.9-21.9,2.9c-4.9,0-9.4-0.7-13.2-2.7c-2-1-3.9-2-5.8-2.9c-4.5-2.2-9.2-4.4-15.1-8.4c-1.1-0.8-1.5-2.3-0.7-3.5
		c0.8-1.1,2.3-1.5,3.5-0.7c5.6,3.8,9.9,5.8,14.5,8.1c1.9,0.9,3.9,1.9,5.9,2.9c7.8,4,20.6,1.5,31.8-0.7c4.7-0.9,9.1-1.8,13-2.2
		c3.8-0.4,7.8-3.3,11.1-8c1.7-2.4,2.8-4.7,3.5-6.8c-0.4,0-0.7,0-1.1-0.1c-2.7-0.4-5.1-2.4-6.6-5.4c-0.2-0.4-0.4-0.9-0.6-1.3
		c-0.7-1.4-1.3-2.8-2.2-3.8s-0.8-2.6,0.2-3.5s2.6-0.8,3.5,0.2c1.4,1.5,2.3,3.4,3,5c0.2,0.4,0.4,0.8,0.6,1.2c0.8,1.5,1.8,2.5,2.8,2.7
		c0.5,0.1,0.9-0.2,1.1-0.4c0-0.1,0-0.2,0-0.2c-0.1-0.6-0.1-1.1,0.2-1.6c0.1-0.6,0.4-1.1,0.9-1.5c0.4-0.3,0.6-0.7,0.6-1.3
		C922.5,375.4,920.8,372.8,918.6,371.2z"/>
	<path fill="#F4ECCE" d="M792.8,419c-12.4-0.1-26,2.1-38.8,9c-19.4,10.5-30.3,28.3-43,49c-11.7,19-13.1,27.6-19,38.4
		c-2.3,4.2-5.4,8.8-10,14.6c-4.7,5.9-8.8,10.9-12.8,15.4c-6,6.6-11.9,12.1-20,17.3c-1.6,1-3,2-4.4,2.9c-4.3,2.7-7.7,4.8-10.4,6.6
		l0,0l0,0c1.9-0.7,3.9-1.2,5.8-1.6c1.4-0.3,2.7-0.6,4-1c5.1-1.6,9.8-5,12.9-9.4c0.8-1.1,2.4-1.4,3.5-0.6c1.1,0.8,1.4,2.4,0.6,3.5
		c-3.7,5.2-9.3,9.3-15.5,11.3c-1.5,0.5-3,0.8-4.4,1.1c-2.7,0.6-5.3,1.2-7.5,2.5c-4.8,3-7,9.2-8.7,15.5c-0.1,0.3-0.2,0.6-0.3,1
		c36.6,0.9,73.3-16.1,96.3-44.8c6-7.5,10.7-15.4,14-23.4c3.7-9.2,5.7-19.2,7.6-28.8c0.8-4,1.6-8.1,2.6-12.1
		c4.2-18,10.4-30.3,19.5-38.7c9.2-8.5,21-12.7,32.4-16.7l0.4-0.1c7.5-2.6,14.7-5.1,21.7-7.2c-7.2-1.8-16-3.3-25.6-3.5
		c-0.2,0-0.3,0-0.5,0C793.1,419,792.9,419,792.8,419z"/>
	<path fill="#F4ECCE" d="M109.9,683.2C109.9,683.2,109.9,683.1,109.9,683.2c-0.2-0.2-0.2-0.4-0.2-0.5c-0.1-0.3-0.2-0.6-0.3-0.9
		c-0.2-0.9-0.4-1.7-0.6-2.5c-5.4,6.3-11.1,12.4-17,18.2c-4.2,4.1-8.9,8.9-11.6,13.9c-1.7,3.1-0.9,6.2,0.4,8.1
		c0.2,0.1,0.4,0.2,0.5,0.3c0.8,0.6,1.4,1.3,1.9,2c1.6,0.9,3.6,1.4,6,0.7c0.1,0,0.1,0,0.2,0c-0.4-2.4-1.4-4.6-3-6.3
		c-1-1-0.9-2.6,0.1-3.5c1-1,2.6-0.9,3.5,0.1c4.6,4.8,5.9,12.1,3.2,18.2c0,0,0,0.1-0.1,0.1c-0.2,0.4-0.4,0.7-0.6,1.1
		c-0.6,1.2-1.2,2.3-1.5,3.3c-0.5,2.9,1.7,5.2,5.5,8.7c2,1.9,4.2,3.9,5.7,6.3c3.8-6.6,6.8-12.9,7.4-19.8c0.1-1.4,0.1-2.9,0.1-4.5
		c0-2.8-0.1-5.6,0.6-8.4c1.2-5.1,4.3-9.1,7.4-12.9l0.5-0.6c2.7-3.4,5.5-6.9,8.4-10.3c-4.5-0.1-9.4-1.2-13-4.8
		C111.8,687.3,110.6,685.3,109.9,683.2z"/>
</g>
<g id="vs-shade">
	<path opacity="0.4" d="M799.1,362.8c-2,12.5-9,25.8-17.4,35.6c-0.5-0.1-1-0.1-1.6,0c-8.4,1.7-14.8,11.5-23.5,10.8
		c-1.4-0.1-2.4,0.4-3,1.2c0.1-1.2,0.3-2.3,0.3-3c0-2.7-0.1-5.4-0.3-8.1c-0.5-5.5-1.4-10.9-2.7-16.2c-2.6-11.1-6.3-22.1-7.3-33.5
		c-0.4-5.1-8.1-5.2-8,0c0.2,10.2,3,19.8,5.7,29.4c1.9,7.9,3.7,15.7,4.3,23.8c0,5.6-1.1,11.2-3.9,16.3c-1.4,2.6,0.4,6.1,3.5,6
		c15.3-0.3,29.5-7.5,39.9-18.6c10.3-10.9,19.2-26.7,21.6-41.6C807.7,359.9,799.9,357.7,799.1,362.8z"/>
	<path opacity="0.4" d="M860.2,409.8c-6.8-4.1-12.7-9.2-17.8-15.2c-2.1-2.5-5.7-0.8-6.7,1.8c-2.1,5.4,2.4,9.6,5.8,13.1
		c3.7,3.9,6.9,8.4,12.5,8.9c1.4,0.1,2.4-0.4,3.1-1.3C861.1,418.4,864.2,412.3,860.2,409.8z"/>
	<path opacity="0.4" d="M918.1,387.4c-1.2-0.5-2.2-1.3-2.9-2.3c-0.1-0.4-0.1-0.9-0.2-1.3c-0.3-2.8,0.5-6-0.2-8.7
		c-1.4-5.6-7.8-4.4-9.9-0.1c-1.8,3.9,0,11.5,3.5,16.3c0.4,1.4,0.9,2.7,1.4,4.1c1.8,4.3,8.4,2.9,8-1c0.3-0.2,0.7-0.4,1-0.7
		C920.7,392.1,920.3,388.4,918.1,387.4z"/>
	<path opacity="0.4" d="M663.8,564.5c-0.4-5.1-8.4-5.1-8,0c0.3,4.1-3.5,8-7.1,11.2c-0.8-0.7-2-1-3.3-0.8c-6.7,1.1-12.8,5-16.4,10.9
		c-3,4.8-3.5,12.4,4.4,11.2c7.8-1.2,13.2-8.2,18.4-13.4C657.1,578.2,664.4,572.7,663.8,564.5z"/>
	<path opacity="0.4" d="M702.1,575c0,0.6-0.1,1.2-0.2,1.8c-1.4-0.7-3.1-0.6-4.5,0.7c-1.9,1.8-3.8,3.7-5.8,5.5
		c-2.1,0.9-4.2,1.6-5.3,2.1c-3.6,1.6-7.3,3.2-11,4.7c-7.4,3-15,5.5-22.9,7.3c-6.8,1.5-8.1,5.5-6.6,12.2c0.7,3.3,2,6.4,3.4,9.5
		c1.2,2.6,2.5,6.3,5.1,8.1c5.3,3.6,11.1-2,15.2-5c6-4.5,11.8-9.2,17.3-14.2c9.5-8.5,22.4-18.8,23.3-32.6
		C710.4,569.9,702.4,569.9,702.1,575z"/>
	<path opacity="0.4" d="M553.2,540.1c-4.7,3.4-9.4,6.9-14.1,10.3c-3.8,2.8-8.9,5.5-11.9,9.2c-0.4,0.5-0.7,1-0.9,1.5
		c-4.4,3.7-7.6,8.4-7.5,14.9c0.1,5.1,8,5.2,8,0.1c0.8,1.4,1.8,2.6,3.1,3.5c2.5,1.7,6.1-0.6,6-3.5c-0.1-4.1,0.9-7.5,3.2-10.9
		c0.7-1,0.8-2,0.5-2.9c0.7-0.3,1.3-0.6,1.9-0.9c2-0.9,2.4-2.7,1.8-4.3c4.6-3.4,9.2-6.8,13.8-10.1C561.3,544,557.3,537.1,553.2,540.1
		z"/>
	<path opacity="0.4" d="M410.4,518.8c-1.4-5-3.8-9.3-6.7-13.3c-0.9-1.8-1.9-3.4-2.9-4.9c-0.6-0.9-1.4-1.4-2.3-1.6
		c-0.5-0.6-1.1-1.2-1.6-1.8c-3.5-3.8-9.1,1.8-5.7,5.7c1.8,2,3.6,3.9,5.2,6c3,6.3,3.2,12.9,2.9,20.2c-0.2,5.9,3.6,13.4,10.7,10.4
		C417.6,536.4,412,524.2,410.4,518.8z"/>
	<path opacity="0.4" d="M297.9,548.1c-9.9-15.3-25.4-26.2-39.1-38c-3.9-3.3-9.1,1.8-5.7,5.7c9.3,10.5,17.8,21.6,25.6,33.2
		c3.9,5.8,7.3,11.6,5.9,18.9c-1.3,6.7-5.2,12.6-8.9,18.2c-0.2,0.4-0.4,0.7-0.5,1.1c-2.7,4,4,7.8,7.1,3.8c2.1-2.7,4.7-4.5,7.3-6.4
		c0.7,0,1.4-0.1,2-0.4c6.3-2.9,12.9-7,14-14.4C306.9,562.2,301.9,554.2,297.9,548.1z"/>
	<path opacity="0.4" fill="#FFFFFF" d="M805.5,303.8c-6.4-0.5-10.5,5.9-12.8,11.1c-2.8,6.2-3.6,13.2-3.5,19.9
		c0.1,8.7,1.8,17.4,1.4,26.1c-0.3,5.6-1.7,10.9-3.7,16.1c-1.5,3.4-3,6.8-4.4,10.2c-1.7,4.2,5.4,7.2,7.3,3.1
		c1.9-4.2,3.9-8.5,5.5-12.9c3.2-7.6,6-15.4,6.5-23.6c0.9-13.4,0.4-27,0.6-40.5c0.9-1,2-1.5,3.2-1.4
		C810.7,312.2,810.6,304.2,805.5,303.8z"/>
	<path opacity="0.4" fill="#FFFFFF" d="M638.3,567.5c-0.5,0-1.1,0-1.6,0c-20-5.2-29.2,16.1-33.5,32c-5.3,19.2-4.7,39.8,1.6,58.7
		c0.4,1.2,1.2,2,2.1,2.4c2.2,2.1,6.4,0.7,6.8-2.9c2.4-24.1-5.9-53.8,10.7-74.4c0.9-1.2,1.1-2.5,0.8-3.6c3.1-2.3,6.7-3.8,11-4.1
		c0.4,0,0.7,0,1,0c0.4,0,0.8,0,1.2,0C643.4,575.6,643.4,567.6,638.3,567.5z"/>
	<path opacity="0.4" fill="#FFFFFF" d="M615.6,385.7c-7.1-0.1-14.6,2.4-21.3,4.4c0,0,0,0,0,0c-28.7,2.2-57.4-0.2-85.9-3.1
		c-15.2-1.6-30.4-3.2-45.6-4.7c-7.3-0.8-14.7-1.5-22-2.3c-2.3-0.2-4.5-0.4-6.8-0.7c-4.4-1.4-8.9-2.7-13.2-4.1
		c-4.9-2.7-9.8-5.1-15.4-6.1c-4.1-0.8-7.5,5.3-3.1,7.3c16.2,7.4,32.9,14.9,46.7,26.5c2.5,2.1,4.9,4.5,7.1,6.9
		c4.3,6.3,9.4,12.5,15,18.2c3.5,4.3,7.2,8.5,11.3,12.2c11.7,10.6,28.5,17,44.3,13.5c4-0.9,7.4-2.7,10.4-5.1c1.7-0.9,3.4-2,5.1-3.3
		c4.3-3.3,8.1-7.2,12.6-10.2c4.4-2.9,9.3-5,13.7-8c9.3-6.4,18.2-13.2,27.7-19.2c4.2-2.6,8.5-5.1,12.7-7.6c0.6-0.4,1.3-0.7,1.9-1.1
		c0.2-0.1,0.4-0.3,0.6-0.5c3.5-2.2,6.2-4.6,7.6-8.6C619.8,387.9,617.7,385.7,615.6,385.7z"/>
</g>
<g id="vs-outline_1_">
	
		<path id="path19_1_" fill="none" stroke="#000000" stroke-width="10" stroke-linecap="round" stroke-linejoin="round" stroke-miterlimit="10" d="
		M376.1,463.4c4.2,5.7,7.9,11.8,10.8,18.2c3,6.4,5.3,13.1,6.9,20s2.6,13.9,2.9,20.9s-0.2,14.1-1.4,21c-0.3,1.7-0.6,3.4-1,5
		s-0.7,3.3-1.1,5c-0.4,1.6-0.8,3.3-1.3,4.9s-0.9,3.3-1.3,4.9c-1.5,5.6-3.1,11.1-4.6,16.7c-1.5,5.6-3,11.1-4.5,16.7s-3,11.1-4.5,16.7
		c-1.5,5.6-3,11.1-4.6,16.7c-0.8,3-1.6,6.1-2.4,9.1c-0.8,3.1-1.5,6.1-2.1,9.2s-1,6.2-1.3,9.3s-0.4,6.3-0.2,9.4
		c0.1,2.5,0.4,5,0.8,7.4c0.4,2.5,0.9,4.9,1.5,7.3s1.3,4.8,2.1,7.2c0.8,2.4,1.6,4.8,2.4,7.2c1.9,5.3,3.9,10.7,6.2,15.9
		s4.8,10.4,7.7,15.2c2.9,4.9,6.1,9.5,9.8,13.7s7.8,8,12.4,11.3c3.3,2.4,6.8,4.4,10.4,6.2s7.3,3.5,11.1,5c3.8,1.6,7.6,3.1,11.3,4.6
		c3.8,1.6,7.5,3.2,11.1,5.1c0.4,0.2,1.4,0.5,2.6,0.9s2.7,0.7,4.1,1.1c1.4,0.4,2.8,0.9,3.8,1.3c1,0.5,1.7,1,1.7,1.5
		c0,0.3-0.3,0.5-0.9,0.6s-1.4,0.1-2.1,0.3c-0.8,0.1-1.5,0.4-2.1,0.8c-0.5,0.5-0.8,1.1-0.7,2.2c0.1,0.6,0.1,1.2-0.1,1.8
		c-0.1,0.6-0.3,1.2-0.6,1.8s-0.6,1.1-0.9,1.7c-0.4,0.5-0.8,1-1.2,1.5c-0.7,0.8-1.2,1.7-1.7,2.4c-0.5,0.8-1.1,1.5-2,2.1
		s-2,1.1-3.7,1.4s-3.9,0.5-6.9,0.5"/>
	
		<path id="path21_1_" fill="none" stroke="#000000" stroke-width="10" stroke-linecap="round" stroke-linejoin="round" stroke-miterlimit="10" d="
		M432.2,776.5c1.3,0.7,2.5,1.5,3.6,2.3c1.2,0.8,2.3,1.7,3.4,2.5s2.2,1.8,3.2,2.8s2,2,3,3c-0.2,0.2-0.3,0.3-0.5,0.4s-0.4,0.2-0.6,0.3
		s-0.4,0.1-0.6,0.1s-0.4,0-0.6,0c0,0.6-0.1,1.3-0.1,1.9c0,0.6-0.1,1.3-0.1,1.9s-0.1,1.3-0.1,1.9c0,0.6-0.1,1.2-0.1,1.8
		c-1.4,0.9-2.8,1.7-4.3,2.4s-3,1.2-4.6,1.7s-3.2,0.7-4.8,0.8c-1.6,0.1-3.2,0.1-4.8-0.2c-1.6-0.2-3.2-0.7-4.7-1.4s-2.9-1.5-4.2-2.5
		c-1.3-1-2.4-2.2-3.3-3.5s-1.7-2.7-2.2-4.3"/>
	
		<path id="path23_1_" fill="none" stroke="#000000" stroke-width="10" stroke-linecap="round" stroke-linejoin="round" stroke-miterlimit="10" d="
		M412.2,794.2c-1.5,0.4-3.1,0.5-4.6,0.3c-1.5-0.1-3.1-0.5-4.5-1c-1.5-0.5-2.9-1.2-4.2-2.1c-1.3-0.8-2.6-1.8-3.7-2.9
		c-1.2-1-2.2-2.2-3.2-3.4s-1.9-2.5-2.8-3.8s-1.7-2.6-2.6-4c-0.8-1.3-1.7-2.7-2.5-4c-2.7-4.4-5.6-8.8-8.7-13c-3-4.2-6.2-8.4-9.5-12.4
		s-6.7-8-10.3-11.8c-3.6-3.8-7.2-7.5-11-11.1c-2.1-1.9-4.2-3.8-6.2-5.8c-2.1-1.9-4.2-3.8-6.2-5.8s-4-4-5.9-6.1s-3.7-4.3-5.3-6.6
		c-0.6-0.8-1.2-1.7-1.7-2.6s-1-1.8-1.4-2.7s-0.8-1.9-1-2.8c-0.2-1-0.4-2-0.4-3c0-0.8,0.1-1.5,0.2-2.3c0.1-0.7,0.2-1.5,0.4-2.2
		c0.2-0.7,0.4-1.5,0.6-2.2s0.4-1.5,0.6-2.2c1.2-4.2,2-8.5,2.5-12.8s0.7-8.7,0.7-13s-0.2-8.7-0.5-13.1c-0.3-4.4-0.8-8.7-1.3-13
		c-0.5-4.6-1-9.2-1.6-13.8s-1.2-9.2-2-13.7s-1.7-9.1-2.8-13.6c-1.1-4.5-2.3-8.9-3.8-13.3c-1.5-4.4-3.1-8.7-5.1-12.9
		c-1.9-4.2-4.2-8.3-6.6-12.2s-5.2-7.6-8.2-11.1s-6.3-6.7-9.9-9.6c-2.3-1.9-4.8-3.7-7.3-5.4s-5-3.4-7.4-5.2s-4.8-3.6-6.9-5.6
		c-2.2-2-4.1-4.2-5.8-6.7"/>
	
		<path id="path25_1_" fill="none" stroke="#000000" stroke-width="10" stroke-linecap="round" stroke-linejoin="round" stroke-miterlimit="10" d="
		M396.5,534.3c4.6,1.1,9.1,2.3,13.7,3.5c4.5,1.2,9.1,2.5,13.5,4s8.9,3.1,13.2,4.9c4.3,1.8,8.5,3.8,12.6,6.1c1.4,0.8,2.8,1.6,4.2,2.5
		c1.4,0.8,2.8,1.7,4.1,2.5c1.4,0.8,2.8,1.7,4.2,2.4c1.4,0.8,2.8,1.5,4.3,2.2c1.7,0.8,3.5,1.5,5.3,2.2s3.6,1.2,5.4,1.7s3.7,1,5.5,1.4
		s3.7,0.9,5.6,1.3c2.7,0.6,5.5,1.3,8.2,1.9c2.7,0.6,5.4,1.3,8.2,1.9c2.7,0.6,5.4,1.3,8.2,1.9c2.7,0.6,5.5,1.3,8.2,1.9
		c2,0.4,4.1,0.9,6.1,1.5s4,1.3,5.9,2.1s3.7,1.9,5.3,3.1c1.6,1.2,3,2.7,4.2,4.4"/>
	
		<path id="path27_1_" fill="none" stroke="#000000" stroke-width="10" stroke-linecap="round" stroke-linejoin="round" stroke-miterlimit="10" d="
		M560.6,541.4c-2.4,1.8-4.9,3.6-7.3,5.6c-2.4,2-4.6,4.1-6.6,6.4c-2,2.3-3.7,4.7-5,7.3s-2.2,5.4-2.4,8.3c-0.1,1.5-0.1,2.9,0,4.3
		c0.1,1.4,0.4,2.9,0.6,4.3s0.7,2.8,1,4.2s0.8,2.8,1.2,4.1c2.9,9.5,5.8,19,8.5,28.5c2.7,9.6,5.3,19.1,7.7,28.8
		c2.4,9.6,4.7,19.3,6.9,29c2.1,9.7,4.2,19.4,6,29.2c-0.4-0.5-0.9-0.9-1.4-1.4s-1.1-0.8-1.6-1.1c-0.6-0.3-1.2-0.6-1.8-0.8
		s-1.3-0.4-1.9-0.4c0,0.5-0.1,1-0.1,1.5s-0.1,1-0.1,1.5s-0.1,1-0.1,1.5s-0.1,1-0.1,1.5c-1.9-1.6-3.9-2.9-6.1-3.9
		c-2.2-1.1-4.5-1.8-6.9-2.4s-4.8-0.8-7.2-0.7s-4.8,0.4-7.2,1c-1-1.3-2.3-2.1-3.7-2.6s-3-0.7-4.6-0.5s-3.1,0.7-4.4,1.5
		c-1.3,0.8-2.3,2-3,3.4"/>
	
		<path id="path29_1_" fill="none" stroke="#000000" stroke-width="10" stroke-linecap="round" stroke-linejoin="round" stroke-miterlimit="10" d="
		M527.4,705c-0.5,0.2-0.9,0.2-1.4,0c-0.4-0.1-0.9-0.4-1.3-0.7c-0.4-0.3-0.8-0.7-1.1-1.1c-0.3-0.4-0.7-0.9-0.9-1.3
		c-0.6-0.8-1.1-1.6-1.8-2.3c-0.6-0.8-1.3-1.5-1.9-2.2c-0.7-0.7-1.4-1.3-2.1-1.9c-0.8-0.6-1.6-1.1-2.4-1.6c-0.8-0.4-1.8-0.8-2.7-1.1
		c-0.9-0.3-1.9-0.4-2.9-0.5c-1,0-1.9,0-2.9,0.3c-0.9,0.2-1.8,0.6-2.7,1.1c-0.8,0.5-1.6,1.1-2.2,1.9c-0.6,0.8-1.1,1.6-1.4,2.6
		c-0.3,0.9-0.4,1.9-0.4,2.8c0,0.9,0.3,1.9,0.7,2.7c-0.5,0.1-1.1,0.2-1.6,0.2s-1.1,0-1.6,0s-1.1-0.1-1.6-0.2s-1.1-0.3-1.6-0.5
		c-0.3,0.5-0.4,1.1-0.3,1.6c0.1,0.6,0.3,1.1,0.6,1.7c0.3,0.5,0.7,1.1,1.2,1.5s0.9,0.9,1.4,1.3c2.1,1.7,4.3,2.9,6.6,3.9
		c2.2,1,4.5,1.9,6.8,2.7c2.3,0.8,4.6,1.6,6.9,2.6s4.6,2.1,6.8,3.6"/>
	
		<path id="path31_1_" fill="none" stroke="#000000" stroke-width="10" stroke-linecap="round" stroke-linejoin="round" stroke-miterlimit="10" d="
		M501.6,694.5c-1.1-0.2-2.3-0.4-3.6-0.5c-1.3-0.2-2.5-0.3-3.8-0.3s-2.5,0.1-3.6,0.4c-1.1,0.3-2.1,0.8-2.9,1.5s-1.6,1.5-2.1,2.5
		c-0.6,0.9-1,2-1.2,3c-0.2,1.1-0.3,2.1-0.1,3.2s0.5,2,1.1,2.9c-0.4,0.1-0.9,0.2-1.4,0.2s-0.9,0-1.4,0s-0.9-0.1-1.4-0.2
		c-0.5-0.1-0.9-0.3-1.4-0.5c0.1,0.9,0.4,1.8,0.9,2.5s1,1.5,1.7,2.1s1.4,1.2,2.2,1.7c0.8,0.5,1.6,1,2.4,1.4c1.8,1,3.7,1.9,5.6,2.7
		s3.8,1.5,5.8,2.2s3.9,1.2,6,1.7c2,0.5,4,0.9,6.1,1.2"/>
	
		<path id="path33_1_" fill="none" stroke="#000000" stroke-width="10" stroke-linecap="round" stroke-linejoin="round" stroke-miterlimit="10" d="
		M483.6,712.4c0.1,0.6,0.1,0.9,0,1.1c-0.1,0.2-0.2,0.3-0.5,0.4c-0.2,0.1-0.5,0.1-0.8,0.2c-0.3,0.1-0.7,0.3-1.1,0.6
		c-0.3,0.2-0.5,0.5-0.6,0.8s-0.1,0.6,0,0.9s0.2,0.6,0.5,0.8c0.2,0.2,0.5,0.4,0.9,0.5l1.2,0.6l1.2,0.6l1.2,0.6l1.2,0.6
		c3,1.6,6,3,9.2,4.2c3.1,1.2,6.3,2.3,9.5,3.2s6.5,1.6,9.8,2.2c3.3,0.5,6.7,0.9,10.1,1.1l0,0l0,0l0,0l0,0c2.6,0.1,5.2,0,7.8-0.3
		s5.2-0.7,7.7-1.2c2.6-0.5,5.1-1.1,7.7-1.6c2.5-0.5,5.1-1.1,7.6-1.5c3-0.5,6-0.8,9-1.2c3-0.3,6.1-0.6,9.1-0.9c3-0.3,6-0.7,9-1.3
		c3-0.5,5.9-1.2,8.7-2.1c2.9-0.9,5.7-2.2,8.4-3.7c2.7-1.6,5.2-3.4,7.3-5.5c2.2-2.1,4-4.5,5.4-7.1s2.2-5.4,2.5-8.5
		c0.1-1.5,0.1-2.9,0-4.3c-0.1-1.4-0.4-2.9-0.7-4.3c-0.3-1.4-0.6-2.8-1-4.3c-0.4-1.4-0.7-2.8-1-4.2c-1.6-7.1-2.3-14.3-2.3-21.6
		c0-7.2,0.6-14.5,1.8-21.7c1.1-7.2,2.7-14.5,4.5-21.7s3.9-14.3,5.9-21.3c0.4-1.6,0.9-3.3,1.5-4.9c0.6-1.6,1.2-3.2,2-4.7
		s1.7-2.9,2.7-4.1c1-1.3,2.3-2.3,3.7-3.2c0.9-0.6,1.9-1,2.9-1.4s2.1-0.7,3.1-0.9c1.1-0.3,2.1-0.5,3.2-0.7s2.1-0.5,3.2-0.8
		c1.4-0.4,2.8-1,4.1-1.7s2.6-1.5,3.8-2.3s2.3-1.8,3.4-2.9c1-1.1,2-2.2,2.9-3.4"/>
	
		<path id="path35_1_" fill="none" stroke="#000000" stroke-width="10" stroke-linecap="round" stroke-linejoin="round" stroke-miterlimit="10" d="
		M621.7,596.8c9.6,0.5,19.2-0.3,28.6-2.1c9.4-1.8,18.6-4.8,27.4-8.8c8.8-4,17.1-8.9,24.7-14.7c7.6-5.8,14.6-12.6,20.6-20.1
		c1.5-1.8,2.9-3.7,4.2-5.6c1.3-1.9,2.6-3.9,3.8-5.9s2.3-4.1,3.4-6.2s2-4.2,2.9-6.4c1.3-3.3,2.4-6.7,3.4-10.1s1.8-6.9,2.5-10.3
		s1.4-7,2.1-10.4s1.4-7,2.2-10.4c0.8-3.5,1.7-6.9,2.8-10.4s2.4-6.8,3.9-10s3.2-6.3,5.2-9.2c2-2.9,4.2-5.5,6.8-7.9
		c2.2-2.1,4.6-3.9,7.1-5.4c2.5-1.6,5.2-3,7.9-4.3s5.5-2.4,8.4-3.5s5.7-2.1,8.6-3.1c4.6-1.6,9.2-3.2,13.8-4.7s9.3-3,14-4.3
		s9.4-2.4,14.2-3.3s9.6-1.6,14.5-2c4.6-0.4,9.6-0.2,14.6-0.2s10.1,0.2,15-0.3s9.6-1.5,13.8-3.6s8-5.2,11-10"/>
	
		<path id="path37_1_" fill="none" stroke="#000000" stroke-width="10" stroke-linecap="round" stroke-linejoin="round" stroke-miterlimit="10" d="
		M820.4,788.2c-0.8,1.4-2,2.4-3.3,3s-2.9,0.9-4.5,1s-3.3,0-5.1-0.2c-1.7-0.2-3.4-0.5-5-0.7c-2.6-0.3-5.2-0.6-7.9-1
		c-2.6-0.3-5.2-0.6-7.9-1c-2.6-0.3-5.2-0.6-7.9-1c-2.6-0.3-5.2-0.6-7.9-1c-0.7-0.1-1.4-0.2-2-0.3c-0.7-0.1-1.3-0.2-2-0.4
		s-1.3-0.4-1.9-0.6c-0.6-0.3-1.2-0.6-1.8-1s-1.1-0.9-1.5-1.5s-0.7-1.2-1-1.8c-0.2-0.6-0.3-1.3-0.3-2c0-0.6,0.2-1.3,0.6-1.8
		c-3-2.9-5.9-5.9-8.6-9c-2.7-3.1-5.3-6.4-7.9-9.7c-2.5-3.3-4.9-6.7-7.3-10.2c-2.4-3.4-4.7-6.9-7-10.4c-3.9-5.8-7.7-11.5-11.6-17.3
		c-3.9-5.8-7.7-11.5-11.5-17.3s-7.7-11.5-11.5-17.3s-7.7-11.5-11.5-17.3c-1-1.5-2-3.1-3-4.6s-2-3-3-4.5s-2-3-3-4.5s-2-3-3-4.6
		c-1.9-2.8-3.7-5.6-5.6-8.3c-1.9-2.8-3.7-5.6-5.6-8.3s-3.7-5.6-5.6-8.3c-1.9-2.8-3.7-5.6-5.6-8.3c-0.6-0.9-1.2-1.8-1.8-2.7
		s-1.1-1.8-1.6-2.8s-1-1.9-1.3-3s-0.7-2.1-0.9-3.2c-0.2-1-0.1-1.9,0.2-2.8s0.7-1.6,1.2-2.3s1-1.5,1.4-2.3s0.8-1.7,0.9-2.7"/>
	
		<path id="path39_1_" fill="none" stroke="#000000" stroke-width="10" stroke-linecap="round" stroke-linejoin="round" stroke-miterlimit="10" d="
		M716.4,559.5c-2,9.8-3.1,19.9-3.2,29.9c-0.1,10,0.6,20.1,2.3,29.9c1.7,9.9,4.2,19.6,7.6,29c3.4,9.4,7.7,18.5,12.8,27.1
		c1,1.7,2.1,3.5,3.2,5.2c1.1,1.7,2.2,3.4,3.2,5.2c1.1,1.7,2.1,3.5,3.1,5.2c1,1.8,1.9,3.5,2.8,5.4c0.7,1.5,1.3,2.9,1.9,4.4
		c0.6,1.5,1.2,3,1.8,4.6c0.6,1.5,1.1,3.1,1.7,4.6c0.6,1.5,1.1,3.1,1.7,4.6c1.3,3.3,2.7,6.6,4.2,9.8s3.2,6.3,5.1,9.3
		c1.8,3,3.8,5.9,5.9,8.8c2.1,2.8,4.3,5.6,6.6,8.3s4.8,4.8,7.3,6.6s5.1,3.2,7.8,4.5s5.5,2.4,8.5,3.6c2.9,1.2,6,2.5,9.2,4
		c1.7,0.8,3.8,1.7,6.2,2.5c2.4,0.9,4.9,1.8,7.5,2.7s5.1,1.9,7.4,2.9c2.3,1,4.3,2,5.8,3.1c0.3,0.2,0.5,0.5,0.5,0.7s0.1,0.6,0,0.8
		s-0.3,0.5-0.5,0.6s-0.6,0.2-0.9,0.1l-1-0.2l-1-0.2l-1-0.2l-1-0.2c0.2,0.5,0.4,1.1,0.4,1.7c0.1,0.6,0,1.2-0.1,1.8s-0.3,1.2-0.5,1.8
		s-0.5,1.1-0.8,1.6c-0.1,1-0.8,2-1.9,2.7s-2.3,1.3-3.6,1.5s-2.6-0.1-3.5-0.9c-1-0.8-1.6-2.2-1.6-4.4"/>
	
		<path id="path41_1_" fill="none" stroke="#000000" stroke-width="10" stroke-linecap="round" stroke-linejoin="round" stroke-miterlimit="10" d="
		M819.8,772.7c0.7-1,1.8-1.6,3-2c1.3-0.4,2.8-0.4,4.2-0.3c1.5,0.1,3,0.3,4.3,0.7c1.3,0.3,2.4,0.7,3.1,1c0.6,0.2,1.3,0.7,2,1.2
		c0.7,0.6,1.3,1.2,1.8,2c0.5,0.7,0.8,1.5,0.8,2.3s-0.3,1.5-1,2.1"/>
	
		<path id="path43_1_" fill="none" stroke="#000000" stroke-width="10" stroke-linecap="round" stroke-linejoin="round" stroke-miterlimit="10" d="
		M831.1,789.2c0.7,0.6,1.4,0.8,2,0.7s1.3-0.5,1.9-1.1s1.2-1.4,1.9-2.3s1.3-1.9,2-2.9c0.2-0.3,0.3-1.3,0.1-2.6s-0.8-2.7-1.8-4
		s-2.4-2.4-4.4-2.8c-2-0.5-4.6-0.3-7.8,1"/>
	
		<path id="path45_1_" fill="none" stroke="#000000" stroke-width="10" stroke-linecap="round" stroke-linejoin="round" stroke-miterlimit="10" d="
		M838.7,395.9c2.1,1.4,4,2.5,5.7,3.6c1.8,1,3.5,1.9,5.1,2.7c1.6,0.8,3.2,1.6,4.9,2.4c1.6,0.8,3.2,1.6,4.9,2.5
		c3,1.5,6.5,2.2,10.4,2.4c3.9,0.1,8-0.2,12.2-0.9s8.5-1.5,12.5-2.3s7.9-1.5,11.2-1.8c2.7-0.3,5.2-1.5,7.5-3.2s4.3-4,5.9-6.5
		c1.6-2.5,2.9-5.1,3.6-7.5c0.7-2.4,1-4.7,0.6-6.3c0.2,0.5,0.2,1,0.1,1.5c-0.1,0.5-0.4,0.9-0.8,1.3c-0.4,0.4-0.9,0.6-1.4,0.8
		s-1.1,0.2-1.7,0.1c-0.5-0.1-1-0.3-1.5-0.5s-0.9-0.6-1.3-0.9c-0.4-0.4-0.8-0.8-1.1-1.2c-0.3-0.4-0.6-0.9-0.8-1.4s-0.5-1-0.7-1.5
		s-0.5-1-0.7-1.5c-0.3-0.5-0.5-1-0.8-1.4c-0.3-0.5-0.6-0.9-1-1.3"/>
	
		<path id="path47_1_" fill="none" stroke="#000000" stroke-width="10" stroke-linecap="round" stroke-linejoin="round" stroke-miterlimit="10" d="
		M923.4,380.5c0.9-0.7,1.4-1.6,1.6-2.5c0.2-1,0-2-0.4-3.1s-1-2.1-1.8-3.1s-1.7-1.8-2.6-2.5c-4.1-3-8.6-5.3-13.4-7.4
		c-4.7-2.1-9.6-3.9-14.4-5.9c-4.8-2-9.4-4.1-13.5-6.8c-4.1-2.7-7.8-5.9-10.7-10c-0.6-1-1.2-2-1.8-3s-1.1-2-1.6-3.1s-1-2.1-1.6-3.1
		c-0.5-1-1.1-2.1-1.6-3.1c-3.3-6-7.7-11.1-12.8-15.5s-10.8-8-17-11s-12.9-5.3-19.6-7.2s-13.7-3.1-20.6-4c-2.1-0.3-4.3-0.5-6.4-0.7
		s-4.3-0.3-6.4-0.3c-2.1,0-4.3,0.1-6.4,0.4s-4.2,0.7-6.3,1.3c-2.7,0.8-5.4,1.8-7.9,3.2c-2.5,1.3-4.9,2.8-7.2,4.5s-4.6,3.5-6.7,5.4
		c-2.2,1.9-4.3,3.8-6.4,5.7c-6,5.4-11.9,10.9-17.9,16.4s-11.9,10.9-17.8,16.4c-5.9,5.5-11.9,10.9-17.8,16.4
		c-6,5.5-11.9,10.9-17.9,16.4c-0.8,0.7-1.7,1.5-2.6,2.2c-0.9,0.7-1.9,1.4-2.9,1.9s-2,1.1-3,1.4c-1,0.4-2.1,0.6-3.1,0.6
		c-1.9,0.1-3.8,0.2-5.7,0.2c-1.9,0.1-3.7,0.2-5.6,0.3c-1.9,0.1-3.7,0.2-5.6,0.4c-1.9,0.2-3.7,0.4-5.6,0.7
		c-15.7,2.6-31.6,4.4-47.6,5.4s-32.1,1.3-48.2,0.9c-16.1-0.4-32.2-1.5-48.1-3.3s-31.7-4.3-47.2-7.4c-4.8-1-9.7-2-14.5-3
		s-9.7-2-14.5-2.9s-9.7-1.7-14.6-2.3c-4.9-0.6-9.8-1.1-14.7-1.2c-8.5-0.2-17.1,0.3-25.6,1.3s-17,2.4-25.5,3.7
		c-8.5,1.4-17,2.7-25.5,3.5s-17,1.3-25.6,0.8c-8.2-0.5-16.4-1.9-24.3-4.1s-15.6-5.4-22.8-9.3s-13.9-8.6-20-14.1
		s-11.3-11.7-15.7-18.6s-7.6-14.6-9.7-22.5c-2.1-8-3.1-16.2-2.8-24.4c0.2-8.2,1.7-16.3,4.4-23.9s6.6-14.8,11.9-21.1
		c4.2-5.1,9.3-9.5,15-13c5.6-3.5,11.8-6.2,18.2-8s13.1-2.6,19.7-2.5c6.6,0.1,13.1,1.2,19.2,3.3c1,0.4,2,0.3,2.8,0s1.5-1,1.9-1.7
		c0.4-0.8,0.6-1.6,0.5-2.5s-0.5-1.8-1.3-2.5c-4.6-3.8-9.9-6.7-15.7-8.7s-11.9-3.3-18.1-3.6c-6.2-0.4-12.6,0.2-18.6,1.5
		s-12,3.6-17.3,6.8c-6.8,4-12.8,9-18,14.7s-9.7,12.2-13.4,19.2s-6.8,14.4-9.2,22s-4.1,15.5-5.2,23.3c-0.4,2.6-0.7,5.3-0.9,7.9
		s-0.4,5.3-0.4,7.9s0,5.3,0.2,7.9s0.5,5.3,0.9,7.9c1.7,9.4,5.1,18.1,9.7,26.1c4.6,8,10.5,15.4,17.2,22.3s14.1,13.4,21.7,19.5
		c7.7,6.1,15.6,11.9,23.3,17.6c1,0.8,2.1,1.6,3.1,2.4s2,1.7,3,2.6c0.9,0.9,1.8,1.9,2.5,2.9s1.4,2.2,1.9,3.4c0.4,1,0.7,2,0.9,3
		s0.3,2,0.4,3s0.1,2,0,3.1c0,1-0.1,2-0.2,3c-0.4,6.7-0.8,13.5-1.4,20.2s-1.3,13.5-2.1,20.2s-1.7,13.4-2.7,20.1s-2.1,13.4-3.2,20
		c-1.3,7.1-2.8,14.3-4.6,21.4s-4,14.1-6.8,20.8s-6,13.1-10,19s-8.6,11.2-14.1,15.9c-3.7,3.1-7.6,5.7-11.7,8.1
		c-4.1,2.3-8.5,4.4-12.9,6.2s-9,3.4-13.7,4.9s-9.3,2.8-13.9,4.2c-3.3,8.2-7,16.2-11.1,24s-8.7,15.4-13.6,22.7s-10.2,14.4-15.9,21.1
		c-5.7,6.8-11.7,13.2-18,19.3c-1.1,1-2.2,2.1-3.3,3.3s-2.2,2.3-3.3,3.5s-2.1,2.5-3,3.8s-1.8,2.6-2.5,3.9c-1.1,2-1.4,4.1-1.2,6.1
		c0.2,2,1,3.8,2.2,5.3s2.8,2.7,4.7,3.3c1.9,0.6,3.9,0.7,6.1,0.1l0,0l0,0l0,0l0,0"/>
	
		<path id="path49_1_" fill="none" stroke="#000000" stroke-width="10" stroke-linecap="round" stroke-linejoin="round" stroke-miterlimit="10" d="
		M88,714.4c1,1,1.8,2.2,2.4,3.4s1,2.6,1.3,3.9c0.2,1.4,0.3,2.8,0.1,4.1c-0.2,1.4-0.5,2.7-1.1,4c-0.2,0.4-0.4,0.8-0.6,1.2
		s-0.4,0.8-0.6,1.2s-0.4,0.8-0.6,1.3c-0.2,0.4-0.3,0.9-0.4,1.3c-0.4,2.1,0.1,4,1.2,5.7s2.8,3.3,4.5,4.9c1.7,1.6,3.5,3.2,4.9,5
		s2.3,3.6,2.4,5.8c1.2-2,2.4-4,3.6-6c1.1-2,2.2-4.1,3.2-6.2c1-2.1,1.8-4.3,2.4-6.5s1.1-4.5,1.3-6.8c0.1-1,0.1-2.1,0.1-3.2
		s0-2.1,0-3.2c0-1.1,0-2.1,0.1-3.2s0.2-2.1,0.5-3.1c0.3-1.2,0.7-2.4,1.2-3.5s1.1-2.2,1.8-3.2c0.7-1,1.4-2,2.1-3c0.8-1,1.5-2,2.3-2.9
		c5.1-6.4,10.3-12.8,15.6-19.1s10.7-12.4,16.4-18.3c5.7-5.9,11.6-11.5,17.9-16.7c6.3-5.2,12.9-10,19.9-14.2c2.9-1.7,5.9-3.4,8.9-4.9
		s6-3,9.1-4.4s6.1-2.8,9.2-4.2c3.1-1.4,6.2-2.7,9.2-4.1c7.1-3.1,14.2-6.4,21.2-9.8c7-3.4,14-6.9,20.9-10.6
		c6.9-3.6,13.7-7.4,20.5-11.3c6.8-3.9,13.5-7.8,20.1-11.9"/>
	
		<path id="path51_1_" fill="none" stroke="#000000" stroke-width="10" stroke-linecap="round" stroke-linejoin="round" stroke-miterlimit="10" d="
		M79.6,721.8c1.5,1.1,2.3,2.6,2.9,4.1s0.7,3.2,0.7,4.7s-0.2,2.9-0.4,4c-0.2,1.1-0.3,1.9-0.2,2.2c0,0.2,0.6,0.8,1.6,1.9
		c0.9,1.1,2.2,2.6,3.7,4.7s3.2,4.6,4.8,7.6c1.7,3,3.4,6.5,4.9,10.6c0.3,0.9,0.9,1.4,1.6,1.7s1.5,0.3,2.4,0c0.8-0.2,1.6-0.7,2.3-1.3
		s1.1-1.4,1.3-2.4l0,0l0,0l0,0v-0.1c0.2-0.8,0.5-1.7,0.8-2.4c0.4-0.8,0.8-1.5,1.3-2.3s1-1.5,1.5-2.2s1-1.5,1.5-2.3
		c0.4-0.8,0.8-1.6,1.1-2.5c0.3-0.9,0.5-1.8,0.6-2.6c0.1-0.9,0-1.7-0.2-2.5s-0.7-1.5-1.3-2.2"/>
	
		<path id="path53_1_" fill="none" stroke="#000000" stroke-width="10" stroke-linecap="round" stroke-linejoin="round" stroke-miterlimit="10" d="
		M79.6,721.9c-0.3,0.4-0.3,1.3-0.2,2.5s0.2,2.8,0.2,4.5s-0.2,3.7-0.8,5.6c-0.6,2-1.6,4-3.2,5.9c-0.6,0.6-0.7,1.3-0.4,2
		c0.2,0.7,0.8,1.3,1.5,1.9c0.7,0.6,1.6,1.1,2.5,1.5s1.9,0.7,2.7,0.8c0.4,0,0.9,0.6,1.5,1.5s1.2,2.1,1.9,3.3c0.6,1.2,1.3,2.5,1.8,3.6
		s1,1.9,1.3,2.3c0.3,0.5,0.7,0.8,1.2,1.1c0.5,0.2,1,0.4,1.6,0.4s1.2,0,1.8-0.1c0.6-0.1,1.2-0.2,1.8-0.4"/>
	
		<path id="path55_1_" fill="none" stroke="#000000" stroke-width="10" stroke-linecap="round" stroke-linejoin="round" stroke-miterlimit="10" d="
		M735.3,321.3c-0.5,4.7,0,9.2,1.1,13.7s2.7,8.9,4.7,13.2c1.9,4.4,4.1,8.7,6.1,13.1s4,8.8,5.4,13.2c0.8,2.6,1.5,5.2,2.1,7.9
		c0.5,2.7,0.9,5.4,1.1,8.1c0.2,2.7,0.2,5.4,0.1,8.1s-0.4,5.4-0.8,8.1c1.9,0.1,3.8-0.1,5.7-0.5s3.7-1.1,5.5-1.9s3.5-1.8,5.2-2.9
		s3.3-2.3,4.8-3.5c4.3-3.3,8.4-7.2,12.1-11.3s6.9-8.7,9.5-13.5s4.6-9.8,5.8-15s1.5-10.6,0.8-16c-0.2-1.6-0.5-3.1-0.8-4.7
		c-0.3-1.5-0.7-3.1-1-4.6s-0.6-3.1-0.9-4.7c-0.2-1.6-0.4-3.1-0.4-4.8c0-1.6,0.1-3.2,0.3-4.8c0.3-1.6,0.7-3.1,1.3-4.6
		c0.6-1.4,1.4-2.8,2.4-3.9c1-1.2,2.2-2.1,3.6-2.9"/>
	
		<path id="path57_1_" fill="none" stroke="#000000" stroke-width="6" stroke-linecap="round" stroke-linejoin="round" stroke-miterlimit="10" d="
		M861.7,342.9c-1.2-0.6-3.1-1.1-5.3-1.5s-4.8-0.6-7.3-0.5s-5.1,0.6-7.3,1.6s-4.1,2.5-5.3,4.6"/>
	
		<path id="path59_1_" fill="none" stroke="#000000" stroke-width="6" stroke-linecap="round" stroke-linejoin="round" stroke-miterlimit="10" d="
		M840.1,345c0.4,1.6,1.1,2.9,2,4s2.1,2,3.2,2.6c1.2,0.6,2.4,1,3.6,1.2c1.2,0.2,2.2,0.1,3.1-0.2c0.8-0.3,1.6-0.8,2.4-1.4
		s1.4-1.5,1.9-2.3c0.6-0.9,1-1.8,1.4-2.8c0.3-1,0.6-1.9,0.6-2.8"/>
</g>
<g id="vs-reveal" opacity="0">
	<path fill="none" stroke="#0000FF" stroke-width="50" stroke-linecap="round" stroke-linejoin="round" stroke-miterlimit="10" d="
		M276.2,214c-0.3-0.1-1.4-0.4-3-0.8c-1.7-0.4-3.9-0.8-6.6-1.2s-5.9-0.8-9.5-1.1s-7.5-0.4-11.6-0.3s-8.5,0.5-12.9,1.2
		c-4.5,0.7-9,1.8-13.6,3.4s-9,3.6-13.4,6.2c-4.4,2.6-8.6,5.8-12.5,9.6c-3.6,3.5-6.7,7.4-9.4,11.5s-4.8,8.4-6.6,12.8
		c-1.8,4.5-3.1,9.1-4,13.7c-0.9,4.7-1.5,9.4-1.6,14.2c-0.2,4.7,0,9.5,0.5,14.1c0.5,4.7,1.3,9.2,2.4,13.7s2.5,8.7,4.1,12.7
		s3.5,7.8,5.6,11.3c2.6,4.3,5.4,8,8.3,11.1s6,5.7,9.1,8c3.1,2.2,6.4,4.1,9.6,5.9c3.3,1.7,6.5,3.3,9.8,4.9s6.5,3.1,9.6,4.9
		c3.1,1.7,6.2,3.7,9.1,6c2.9,2.3,5.7,4.9,8.3,8.1s5,6.9,7.2,11.3c1.1,2.3,2.1,4.7,2.9,7.2s1.5,5,2,7.6s0.9,5.4,1.1,8.3
		c0.3,2.9,0.4,5.9,0.4,9.2c0,3.2,0,6.6-0.2,10.3c-0.2,3.6-0.4,7.5-0.7,11.6s-0.7,8.5-1.1,13.1c-0.4,4.7-0.9,9.6-1.4,14.9
		c-0.3,3.6-0.7,7-1,10.3s-0.7,6.4-1,9.4c-0.3,3-0.7,5.8-1,8.6c-0.4,2.8-0.8,5.4-1.2,8c-0.4,2.6-0.9,5.1-1.4,7.5s-1.1,4.8-1.7,7.2
		s-1.3,4.7-2.1,7s-1.6,4.7-2.6,7c-2.1,5.3-4.4,10.1-7,14.5c-2.5,4.4-5.3,8.5-8.2,12.3s-6,7.3-9.3,10.7c-3.3,3.3-6.7,6.5-10.3,9.6
		s-7.3,6.1-11.1,9.1s-7.8,6-11.8,9.1s-8.2,6.3-12.4,9.7s-8.5,7-12.9,10.9c-3.1,2.8-6.3,5.8-9.6,9s-6.6,6.7-10,10.3
		c-3.4,3.7-6.8,7.6-10.3,11.8s-7,8.7-10.5,13.4c-3.5,4.8-7,9.8-10.5,15.1s-6.9,11-10.3,16.9s-6.8,12.2-10,18.8s-6.5,13.6-9.6,20.9
		c10-7.3,19.6-14.5,28.8-21.7s18-14.3,26.4-21.3s16.4-14,24-20.8s14.9-13.6,21.8-20.1c6.9-6.6,13.4-13,19.6-19.3s12-12.4,17.4-18.3
		c5.5-5.9,10.6-11.6,15.4-17.1c4.8-5.5,9.3-10.7,13.5-15.7c4-4.8,7.7-9.3,11.1-13.6c3.4-4.4,6.6-8.5,9.6-12.6s5.7-7.9,8.1-11.7
		s4.8-7.5,6.8-11.1c2.1-3.6,3.9-7.2,5.6-10.7s3.2-7.1,4.5-10.6s2.5-7.1,3.5-10.7c1-3.6,1.9-7.3,2.7-11c1.5-7.6,2.4-15,2.9-22.2
		s0.4-14.1,0-20.7s-1.1-12.9-2-18.9s-2-11.5-3.1-16.6s-2.2-9.8-3.2-13.9c-1-4.2-1.9-7.8-2.5-10.9s-0.9-5.5-0.8-7.4
		c0.1-1.8,0.6-3,1.8-3.5c0.9-0.4,2.2-0.2,3.7,0.4s3.2,1.8,5.1,3.3c1.9,1.6,3.9,3.6,6,5.9c2.1,2.4,4.3,5.1,6.5,8.2s4.4,6.5,6.5,10.2
		s4.2,7.6,6.1,11.8c1.9,4.2,3.7,8.6,5.2,13.1c1.5,4.6,2.8,9.3,3.8,14.2c1.5,7.5,2.3,14.8,2.3,21.8s-0.5,14-1.6,20.6
		s-2.6,12.9-4.5,18.9s-4.1,11.7-6.4,17c-2.4,5.3-4.9,10.2-7.4,14.6s-5,8.5-7.4,12s-4.6,6.5-6.4,9c-1.9,2.5-3.4,4.4-4.5,5.6
		c1.6,1.5,3.2,3.1,4.8,4.9s3.3,3.6,5,5.5s3.3,4,5,6.1c1.6,2.2,3.3,4.4,4.8,6.8s3.1,4.9,4.6,7.4c1.5,2.6,2.8,5.3,4.1,8.1
		c1.3,2.8,2.5,5.7,3.6,8.8c1.1,3,2.1,6.2,2.9,9.4c0.9,3.6,1.6,7,2.1,10.3s0.7,6.3,0.8,9.3c0.1,3,0.1,5.8,0,8.5s-0.3,5.4-0.6,7.9
		s-0.5,5.1-0.8,7.5c-0.3,2.5-0.5,4.9-0.7,7.3s-0.3,4.9-0.2,7.3s0.2,4.9,0.5,7.5c0.4,3.1,1.1,6.2,2.1,9.5s2.4,6.6,4.1,10.1
		c1.8,3.5,4,7,6.6,10.6c2.7,3.6,5.8,7.3,9.5,11s8,7.5,12.9,11.4s10.4,7.7,16.7,11.6c6.2,3.9,13.2,7.9,20.9,11.8
		c7.7,4,16.2,7.9,25.6,11.9c-2.3-2.1-4.7-4.5-7.4-7.1c-2.6-2.6-5.4-5.5-8.3-8.7c-2.9-3.1-5.9-6.6-9-10.2c-3.1-3.7-6.2-7.6-9.3-11.8
		c-3.1-4.2-6.3-8.7-9.5-13.4c-3.1-4.8-6.3-9.8-9.3-15.1s-6-10.9-8.9-16.7c-2.9-5.9-5.6-12-8.2-18.4c-2.3-5.8-4.4-11.6-6.2-17.2
		c-1.8-5.6-3.4-11.2-4.8-16.6c-1.4-5.4-2.6-10.7-3.6-15.8s-1.9-10.1-2.5-14.9c-0.7-4.8-1.2-9.4-1.6-13.8c-0.4-4.4-0.7-8.6-0.9-12.6
		c-0.2-4-0.3-7.8-0.3-11.3s0-6.8,0.1-9.8c1.7,5.2,3.2,9.8,4.6,14s2.7,7.9,3.9,11.2s2.3,6.1,3.3,8.6s1.9,4.6,2.8,6.4
		c0.8,1.8,1.6,3.2,2.2,4.4c0.7,1.2,1.3,2.1,1.8,2.7s1,1.1,1.4,1.3s0.8,0.3,1.1,0.3c0.9-0.2,1.6-1.6,2-4.1s0.6-6,0.5-10.4
		c0-4.4-0.3-9.8-0.7-15.9c-0.4-6.1-1-13-1.7-20.5s-1.6-15.6-2.6-24.1c-1-8.6-2-17.6-3.2-26.9c-1.1-9.3-2.3-18.9-3.6-28.7
		s-2.5-19.7-3.8-29.7c-0.5-4.1-1.1-8.2-1.6-12.2s-1-7.8-1.5-11.6s-1-7.4-1.5-10.9s-1-7-1.4-10.3c-0.5-3.3-0.9-6.5-1.3-9.6
		s-0.9-6-1.3-8.9s-0.8-5.5-1.2-8.1s-0.7-5-1.1-7.3c5.2,15.8,9.9,30,14.2,43c4.3,12.9,8.2,24.5,11.7,34.9s6.7,19.5,9.5,27.5
		s5.3,14.9,7.5,20.8s4,10.8,5.6,14.9s2.9,7.2,4,9.7c1.1,2.4,2,4.1,2.6,5.2c0.7,1.1,1.1,1.5,1.4,1.4s0.5-0.9,0.5-2.3
		c0-1.4-0.2-3.5-0.5-6.1s-0.8-5.9-1.3-9.8s-1.2-8.3-1.9-13.3c-0.7-5-1.5-10.6-2.3-16.6c-0.8-6.1-1.6-12.7-2.5-19.8
		c-0.8-7.1-1.7-14.8-2.4-22.9c-0.8-8.1-1.5-16.7-2.2-25.7c-0.3-4.5-0.6-8.5-0.8-12.2s-0.4-6.9-0.5-9.8s-0.2-5.4-0.2-7.6
		s0-4.1,0.1-5.7s0.2-2.9,0.3-4c0.1-1.1,0.3-2,0.5-2.6c0.2-0.7,0.5-1.2,0.7-1.5s0.6-0.5,0.9-0.6c0.8-0.2,1.7,0.2,2.7,1.1
		s2.2,2.3,3.4,4.1c1.2,1.8,2.6,4,4,6.6s2.8,5.5,4.3,8.7s3,6.7,4.4,10.4c1.5,3.7,2.9,7.6,4.4,11.7c1.4,4,2.8,8.2,4.1,12.5
		s2.5,8.5,3.7,12.8c1.9,7.3,3.4,14.3,4.7,21.1c1.2,6.8,2.2,13.2,2.9,19.3c0.7,6.1,1.2,11.9,1.6,17.3c0.3,5.4,0.5,10.4,0.7,14.9
		c0.1,4.5,0.2,8.6,0.2,12.2c0,3.6,0.1,6.7,0.2,9.2s0.3,4.5,0.6,5.9c0.3,1.4,0.8,2.1,1.5,2.2c0.6,0.1,1.2-0.3,2-1.1
		c0.7-0.8,1.5-2,2.4-3.6c0.8-1.6,1.7-3.5,2.6-5.8s1.8-4.9,2.7-7.7s1.8-6,2.6-9.3c0.8-3.4,1.6-6.9,2.4-10.7c0.7-3.7,1.4-7.7,2-11.7
		s1.1-8.2,1.5-12.4c0.6-7.2,0.9-14,0.9-20.6s-0.3-12.8-0.8-18.7s-1.2-11.4-2-16.5s-1.7-9.8-2.6-14.1c-0.9-4.3-1.8-8.1-2.6-11.5
		c-0.8-3.4-1.6-6.3-2.1-8.6s-1-4.3-1.1-5.6c-0.1-1.3,0-2.1,0.5-2.3c0.5-0.2,1.4,0.3,2.6,1.3c1.2,1.1,2.6,2.7,4.3,5
		c1.6,2.2,3.5,5,5.4,8.2c1.9,3.3,4,7,6,11.2s4.1,8.8,6.1,13.8s3.9,10.4,5.6,16.1s3.3,11.8,4.5,18.1c1.3,6.3,2.3,12.9,3,19.7
		c0.6,6.1,0.9,11.9,0.9,17.5s-0.2,10.9-0.5,15.9s-0.9,9.7-1.5,14.1c-0.6,4.4-1.3,8.4-1.9,12.1s-1.3,7-1.8,10c-0.5,2.9-1,5.5-1.3,7.6
		s-0.4,3.8-0.2,5c0.2,1.2,0.6,2,1.3,2.3c0.8,0.3,1.8,0,3-0.6c1.2-0.7,2.6-1.8,4.2-3.4c1.6-1.5,3.2-3.5,5-5.8s3.6-5,5.5-8
		s3.7-6.3,5.5-9.8c1.8-3.6,3.6-7.4,5.2-11.4s3.2-8.3,4.6-12.7s2.6-9,3.5-13.8c1.6-7.6,2.4-15.1,2.7-22.2s0-14-0.7-20.6
		s-1.7-12.8-3-18.6s-2.8-11.3-4.3-16.3s-3.2-9.5-4.6-13.5c-1.5-4-2.9-7.5-4-10.4s-1.9-5.2-2.3-6.9c-0.4-1.7-0.3-2.7,0.4-3.1
		c0.7-0.3,2.1,0.1,3.8,1.2c1.8,1.1,4,3,6.5,5.4c2.5,2.5,5.3,5.5,8.2,9.2c2.9,3.6,5.9,7.8,8.9,12.5s5.9,9.8,8.6,15.4
		c2.7,5.6,5.2,11.6,7.3,17.9s3.8,13,5,19.9s1.8,14.1,1.8,21.5c-0.1,6.1-0.6,12-1.5,17.5c-0.9,5.6-2.1,10.8-3.6,15.8s-3.1,9.6-4.9,14
		c-1.8,4.3-3.6,8.3-5.4,12c-1.8,3.7-3.5,7-5.1,9.9c-1.5,2.9-2.9,5.5-3.9,7.7s-1.8,4-2,5.4c-0.3,1.4-0.1,2.4,0.7,2.9
		c0.8,0.6,2.1,0.6,3.8,0.2c1.7-0.4,3.8-1.2,6.2-2.5s5.1-3,8-5s5.9-4.6,9-7.4c3.1-2.8,6.2-6,9.2-9.6s6-7.4,8.8-11.5
		c2.8-4.2,5.3-8.6,7.6-13.3s4.2-9.7,5.7-14.9c2.1-7.3,3.2-14.6,3.5-21.8c0.3-7.1-0.1-14.1-1.1-20.9s-2.5-13.3-4.4-19.5
		s-4-12-6.2-17.5c-2.2-5.4-4.5-10.4-6.7-14.9c-2.1-4.5-4.1-8.5-5.7-11.9s-2.8-6.2-3.3-8.2c-0.5-2.1-0.5-3.5,0.5-4.1
		c0.9-0.5,2.4-0.4,4.4,0.3c2,0.7,4.5,2.1,7.3,4s6,4.4,9.3,7.4s6.8,6.6,10.3,10.6s7,8.5,10.3,13.4s6.5,10.2,9.4,15.9
		c2.9,5.7,5.4,11.8,7.5,18.1c2.1,6.4,3.6,13.1,4.6,20.1c1.1,8.1,1.2,15.9,0.6,23.5s-2,14.8-3.9,21.7c-1.9,6.9-4.3,13.5-7.1,19.6
		c-2.8,6.2-5.9,11.9-9.1,17.2c-3.2,5.3-6.6,10.2-9.8,14.5c-3.3,4.3-6.5,8.2-9.4,11.5s-5.5,6-7.7,8.1s-3.8,3.6-4.7,4.5
		c0.6,2.1,1.2,4.1,1.8,6.2s1.2,4.2,1.8,6.2c0.6,2.1,1.2,4.2,1.9,6.3c0.6,2.1,1.3,4.2,1.9,6.3c0.6,2.1,1.3,4.2,1.9,6.3
		c0.6,2.1,1.3,4.2,1.9,6.4s1.3,4.3,2,6.4s1.3,4.3,2,6.4c0.7,2.2,1.4,4.4,2.1,6.5c0.7,2.2,1.4,4.3,2.1,6.5c0.7,2.2,1.4,4.3,2.1,6.4
		c0.7,2.1,1.4,4.3,2.1,6.4c0.7,2.1,1.4,4.2,2.1,6.4c0.7,2.1,1.4,4.2,2.1,6.3c0.7,2.1,1.4,4.2,2.1,6.3c0.7,2.1,1.4,4.2,2.1,6.2
		c-4.6,0.3-9.2,0.6-13.8,0.9c-4.6,0.3-9.2,0.6-13.8,0.9c-4.6,0.3-9.2,0.6-13.8,0.9c-4.6,0.3-9.2,0.6-13.8,0.9
		c-4.6,0.3-9.2,0.6-13.8,0.9c-4.6,0.3-9.2,0.6-13.8,0.9c-4.6,0.3-9.2,0.6-13.8,0.9c-4.6,0.3-9.2,0.6-13.8,0.9"/>
	<path fill="none" stroke="#0000FF" stroke-width="50" stroke-linecap="round" stroke-linejoin="round" stroke-miterlimit="10" d="
		M600.5,644.6c1.6-4,3.2-7.9,4.7-11.7c1.5-3.9,3-7.7,4.3-11.4c1.4-3.7,2.7-7.4,4-11s2.5-7.1,3.7-10.6s2.3-6.9,3.3-10.2
		c1.1-3.3,2.1-6.6,3-9.7s1.9-6.2,2.7-9.2s1.7-5.9,2.5-8.7c1.6-5.7,3-11.1,4.4-16.1s2.6-9.8,3.8-14.4s2.2-8.8,3.1-12.9
		c0.9-4.1,1.7-8,2.4-11.8s1.2-7.4,1.6-11c0.4-3.6,0.7-7.1,0.8-10.6s0.1-6.9,0-10.4s-0.4-7-0.9-10.6c-0.7-5.9-1.8-11.6-3.1-16.9
		s-2.8-10.3-4.4-15c-1.6-4.7-3.4-9-5.2-13s-3.6-7.6-5.4-10.9c-1.8-3.3-3.5-6.2-5-8.8s-2.9-4.8-4-6.6c-1.1-1.8-1.9-3.3-2.4-4.3
		c-0.4-1.1-0.5-1.7-0.1-2c0.5-0.3,1.5,0,3,0.9s3.5,2.4,5.9,4.3c2.3,2,5,4.5,7.9,7.5s6,6.5,9.2,10.5s6.4,8.4,9.6,13.2
		c3.2,4.8,6.3,10.1,9.3,15.7s5.7,11.6,8.2,17.9s4.6,13,6.3,19.9c1.6,6.7,2.8,13.3,3.5,19.7s1,12.7,0.9,18.8
		c-0.1,6.1-0.5,12-1.1,17.6c-0.7,5.7-1.6,11.1-2.7,16.3c-1.1,5.2-2.4,10-3.8,14.6c-1.4,4.6-2.8,8.8-4.3,12.8
		c-1.5,3.9-3,7.5-4.4,10.7s-2.7,6-3.9,8.3c4.8,7.4,9.7,14.8,14.5,22.2s9.7,14.8,14.5,22.2s9.7,14.8,14.5,22.2s9.7,14.8,14.5,22.2
		s9.7,14.8,14.5,22.2s9.7,14.8,14.5,22.2s9.7,14.8,14.5,22.2s9.7,14.8,14.5,22.2c2.7,0.7,5.4,1.4,8.2,2s5.4,1.4,8.2,2s5.4,1.4,8.2,2
		s5.4,1.4,8.2,2c2.7,0.7,5.4,1.4,8.2,2s5.4,1.4,8.2,2s5.4,1.4,8.2,2s5.4,1.4,8.2,2"/>
	<path fill="none" stroke="#0000FF" stroke-width="50" stroke-linecap="round" stroke-linejoin="round" stroke-miterlimit="10" d="
		M702.7,629.4c0.9-4.1,1.9-8.4,2.8-13.1s1.7-9.5,2.5-14.7c0.8-5.1,1.4-10.5,2-16.1c0.5-5.6,1-11.4,1.2-17.5c0.3-6,0.4-12.3,0.2-18.7
		c-0.1-6.4-0.4-13-1-19.7s-1.4-13.6-2.5-20.7c-1.1-7-2.5-14.2-4.2-21.5c-1.8-7.6-3.8-14.9-6-21.8s-4.5-13.6-6.9-19.8
		s-4.8-12.1-7.1-17.6s-4.6-10.5-6.7-15.2c-2.1-4.6-4-8.8-5.7-12.6c-1.7-3.7-3-7-4-9.8s-1.6-5-1.8-6.8c-0.1-1.7,0.2-2.9,1.2-3.6
		c0.8-0.5,1.9-0.6,3.3-0.3c1.4,0.3,3.1,1,5,2s4,2.5,6.3,4.2s4.7,3.8,7.1,6.1s5,4.9,7.6,7.7c2.6,2.8,5.2,5.9,7.7,9.2
		c2.5,3.3,5,6.7,7.4,10.4c2.4,3.6,4.6,7.4,6.7,11.3c2.2,4.1,4,8.2,5.6,12.2s2.9,8,4.1,11.7c1.1,3.8,2,7.5,2.8,10.9s1.3,6.7,1.8,9.7
		s0.8,5.7,1.1,8.2c0.3,2.4,0.5,4.5,0.7,6.3s0.4,3.1,0.6,4c0.2,0.9,0.4,1.4,0.8,1.4c0.4,0,0.9-0.9,1.4-2.4s1-3.8,1.5-6.6
		c0.5-2.8,0.9-6.3,1.2-10.2s0.5-8.4,0.5-13.2s-0.1-10-0.5-15.5s-1-11.3-2-17.3c-0.9-6-2.2-12.1-3.8-18.4c-1.6-6.2-3.6-12.6-6-18.9
		c-1.6-4.2-3.2-8.1-4.9-11.7s-3.4-7-5.1-10.1s-3.4-6-5-8.6s-3.2-5-4.6-7.2c-1.4-2.1-2.7-4.1-3.9-5.7c-1.1-1.7-2.1-3.1-2.8-4.3
		c-0.7-1.2-1.2-2.2-1.5-2.9c-0.2-0.8-0.2-1.3,0.2-1.6c0.5-0.4,1.6-0.4,3.1,0.1s3.4,1.4,5.7,2.8s4.9,3.1,7.8,5.3
		c2.9,2.2,6,4.7,9.2,7.7c3.2,2.9,6.6,6.2,10,9.8c3.4,3.6,6.8,7.6,10.2,11.8s6.7,8.8,9.8,13.6s6.1,9.9,8.7,15.3
		c0.8,1.5,1.4,2.9,2.1,4.3c0.6,1.4,1.2,2.7,1.7,3.9c0.5,1.2,1,2.4,1.5,3.4c0.4,1,0.9,2,1.2,2.9c0.4,0.9,0.7,1.6,1.1,2.3
		s0.6,1.2,1,1.6c0.3,0.4,0.6,0.8,0.9,1s0.6,0.3,0.9,0.2c0.7-0.1,1.4-0.9,2-2.3s1.2-3.3,1.7-5.8s0.9-5.3,1.1-8.6
		c0.2-3.3,0.3-6.9,0.1-10.8s-0.5-8-1.1-12.3s-1.5-8.7-2.7-13.2s-2.7-9-4.6-13.4c-1.9-4.4-4.1-8.8-6.8-13c-1.7-2.7-3.5-5.1-5.3-7.4
		s-3.6-4.3-5.4-6.2c-1.8-1.9-3.6-3.5-5.3-5.1c-1.7-1.5-3.3-2.9-4.8-4.1s-2.9-2.3-4.1-3.3c-1.2-1-2.3-1.9-3.1-2.7
		c-0.8-0.8-1.4-1.5-1.7-2.1s-0.4-1.2-0.1-1.7c0.3-0.7,1.1-1.2,2.3-1.6s2.8-0.6,4.6-0.7c1.9-0.1,4.1,0,6.5,0.3s5,0.7,7.7,1.4
		c2.7,0.7,5.6,1.5,8.5,2.6s5.9,2.4,8.8,3.9c2.9,1.5,5.8,3.3,8.6,5.3s5.4,4.3,7.8,6.8c3.5,3.7,6.3,7.6,8.6,11.8
		c2.3,4.2,4,8.5,5.3,12.9s2.2,8.8,2.8,13.2c0.6,4.4,1,8.6,1.1,12.7c0.2,4.1,0.2,7.9,0.2,11.4s0,6.6,0.1,9.3c0.1,2.7,0.3,4.8,0.8,6.4
		s1.1,2.5,2.2,2.7c0.8,0.1,1.8-0.2,2.9-0.9c1.1-0.7,2.3-1.8,3.5-3.3s2.5-3.3,3.7-5.4s2.5-4.5,3.6-7.2s2.2-5.6,3.2-8.6
		c0.9-3.1,1.7-6.4,2.4-9.8c0.6-3.4,1-7,1.2-10.7s0.1-7.4-0.3-11.2c-0.6-5.1-1.6-9.9-3.1-14.5s-3.3-8.8-5.4-12.7
		c-2.1-3.9-4.4-7.6-6.9-10.9c-2.4-3.3-5-6.4-7.5-9.1s-4.9-5.2-7.1-7.3c-2.2-2.1-4.3-4-5.9-5.5s-3-2.8-3.9-3.7
		c-0.8-0.9-1.2-1.6-0.9-1.9c0.4-0.5,2-0.2,4.4,0.7c2.5,0.9,5.8,2.5,9.7,4.7s8.3,4.9,13,8.1s9.6,6.9,14.5,10.9
		c4.9,4.1,9.7,8.5,14.2,13.3s8.6,9.8,12,15.1c3.4,5.3,6.2,10.8,7.9,16.4c1.8,5.6,2.5,11.4,2,17.2c-0.2,2.1-0.5,4.1-1,6
		s-1,3.8-1.6,5.5s-1.3,3.4-2,5s-1.4,3-2.1,4.4c-0.7,1.4-1.3,2.6-1.8,3.8s-1,2.2-1.3,3.1s-0.5,1.7-0.5,2.4c0,0.7,0.2,1.2,0.7,1.7
		c0.6,0.6,1.7,0.8,3,0.6c1.3-0.2,3-0.7,4.9-1.6c1.9-0.8,4.1-2,6.5-3.4s5-3.1,7.7-4.9c2.7-1.9,5.6-3.9,8.6-6.1s6.1-4.5,9.2-7
		c3.1-2.4,6.3-4.9,9.5-7.5c3.2-2.5,6.3-5.1,9.4-7.7"/>
</g>
</svg>
