<?xml version="1.0" encoding="utf-8"?>
<!-- Generator: Adobe Illustrator 22.1.0, SVG Export Plug-In . SVG Version: 6.00 Build 0)  -->
<svg version="1.1"
	 id="Layer_1" xmlns:cc="http://creativecommons.org/ns#" xmlns:dc="http://purl.org/dc/elements/1.1/" xmlns:rdf="http://www.w3.org/1999/02/22-rdf-syntax-ns#" xmlns:svg="http://www.w3.org/2000/svg"
	 xmlns="http://www.w3.org/2000/svg" xmlns:xlink="http://www.w3.org/1999/xlink" x="0px" y="0px" width="1000px" height="1000px"
	 viewBox="0 0 1000 1000" enable-background="new 0 0 1000 1000" xml:space="preserve">
<g id="vs-secondary">
	<path fill="#F4ECCE" d="M552.9,744.9c0.7,8.3,1.5,16.9-0.9,24.1c-1.4,4.3-3.8,8-6.4,12.1c-1.2,1.9-2.5,3.8-3.6,5.8
		c-8.4,14.7-10.2,32-11.7,47.2c-1.5,13.6-2.3,29.1,6.5,40l0.5,0.6c1.1,1.3,2.1,2.6,2.2,3.8c0,0.7-0.3,1.4-0.9,2.3
		c-6.7,4.4-14.2,7.4-21.9,8.5c-1.2,0.2-2.1,1.2-2.1,2.5c0,1.2,0.9,2.3,2.1,2.5c9.1,1.3,18.8-2.2,24.8-9c0.2-0.3,0.4-0.5,0.6-0.8
		c0.2-0.2,0.4-0.3,0.7-0.5c3.6,4.4,7.1,9.5,10.5,15.2c-9.5,2.5-19.8,3.6-30,3.2c-8.6-0.2-14.2-2.3-17.2-6.2
		c-1.7-2.3-2.7-5.2-3.1-9.1c-1.9-13.7,1.9-27.1,5.9-41.1c2.6-9.3,5.4-18.8,6.3-28.6c1.6-16.2-1.8-32.5-5.2-48.2
		c-0.9-4.2-1.8-8.6-2.6-12.9c-4.8-25.5-6.4-49.6-7.8-76c7.4,3.7,14.8,8,22.4,12.4c12,7,24.3,14.2,37.4,18.9
		C550.7,720.5,551.8,732.9,552.9,744.9z"/>
	<path fill="#F4ECCE" d="M739.9,504.2c-5.5,3.1-11.2,6.3-16.9,9.5l-0.9,0.5c-3.3,1.9-6.6,3.9-9.4,6.6c-9,8.5-10.2,22.1-11.2,32.1
		l-3.6,37.6c-0.8,9.7-1.9,18.4-6.1,25.7c-7.5,12.8-22.4,18.4-38.4,23.4c-0.7,0.2-1.3,0.8-1.6,1.5s-0.2,1.5,0.2,2.2
		c2.2,3.7,0.4,9-2.3,12.8c-1.1,1.6-2.4,3.1-3.8,4.7c-2.4,2.7-4.8,5.6-6.5,9.1c-1.9,4.4-2.6,9-3,13.2c-1,8.9-2.1,18.1-3.1,26.9
		c-1,8.8-2.1,18-3.1,27l-0.1,1.3c-0.6,5.6-1.2,12,0,18c0.3,1.2,0.6,2.4,0.9,3.5c0.7,2.6,1.3,5,1.3,7.4c0,4.3-1.9,8.3-3.9,12.5
		c-0.6,1.2-1.2,2.5-1.7,3.8c-9,19.9-7.9,45.6,3,70.5c0.6,1.3,1.2,2.6,1.8,3.9c-9.3,2.4-18.5,3.3-27.6,2.6c-1.4-0.1-2.6,0.9-2.7,2.3
		c-0.1,1.4,0.9,2.6,2.3,2.7c2.2,0.2,4.3,0.3,6.5,0.3c7.9,0,15.8-1.1,23.8-3.3c8.4,16.1,19.8,30.7,32.5,46.1
		c-23.8,0.2-48.8-2.7-62.2-20.4c-9.7-12.8-10.7-30-10.9-48.1c-0.7-45.6-1.6-97.3-12.1-146.1c-1.3-5.9-2.8-11.9-4.2-17.6
		c-5.1-20.8-10.4-42.3-9.8-63.9c0-1.4-1-2.5-2.4-2.6s-2.5,1-2.6,2.4c-0.6,22.2,4.8,44.1,10,65.2c1.4,5.7,2.9,11.7,4.2,17.5
		c1.2,5.5,2.2,11.1,3.2,16.7c-19.7-2.3-37.7-12.9-55.2-23.1c-20.5-12-41.8-24.5-65.8-23.7c-19.6,0.7-39.5,10.1-61,28.7
		c-0.8,0.7-1.5,1.4-2.3,2.1c-9.1,8.2-18.5,16.6-30.2,18c-12.6,1.4-24.5-5.7-36.5-13.7c-13.4-8.9-26.8-17.8-40.2-26.7
		c-15.8-10.5-32.1-21.3-48.1-32c7.1-10.6,16.1-19.9,27.5-26.4c9-5.2,20.2-8.7,33.2-10.5c14.6-1.8,29.1-1,43.1,2.4
		c1.3,0.3,2.7-0.5,3-1.9c0.3-1.3-0.5-2.7-1.9-3c-14.6-3.5-29.7-4.3-44.9-2.4c-13.7,1.9-25.4,5.6-35,11.1
		c-32.2,18.4-45.6,56.6-53.6,87.8l-0.4,1.7c-2.2,8.7-4.4,16.9-9,23.8c-1.4,1.9-2.9,3.8-4.5,5.7c-3.6,4.3-7.3,8.8-9,14.3
		c-1.4,4.5-1.2,8.9-1,13.1l0.1,1.3c1.2,19.8,2.6,38.9,4.4,61.9c0.8,9.9,2.3,19.7,4.4,29.3c-0.3,0.1-0.6,0.4-0.8,0.6
		c-14.4,16.7-28.1,23.7-50.3,25.6c-1.4,0.1-2.4,1.3-2.3,2.7c0.1,1.3,1.2,2.3,2.5,2.3c0.1,0,0.1,0,0.2,0c22.9-2,37.3-9,52.1-25.5
		c0.7,2.7,1.4,5.4,2.1,8c4.7,16.4,17.7,26.2,29.3,34.8c4.2,3.1,8.2,6.1,11.4,9.1c0.5,0.5,0.8,0.9,0.1,1.9c-2.3,3.6-11.4,7-15.9,5.2
		l-1.6-0.7c-2.6-1.1-4.7-2-6.6-3.1c-1.8-2-3.8-4.1-6-6.2c-8.6-8.9-19.2-19.9-23.1-29.2c-0.5-1.3-2-1.9-3.3-1.4s-1.9,2-1.4,3.3
		c4,9.6,13.5,19.8,22.4,29c0,0.1,0.1,0.2,0.1,0.2c2.7,4,5.2,6.4,7.8,8.1c0.7,0.7,1.3,1.4,1.9,2.1c0.6,0.7,0.5,0.9,0.2,1.3
		c-1.5,2.7-9.9,5.7-15,4.8c-13.2-2.6-26.1-6.4-38.4-11.3c-6-2.3-13.5-5.7-18.5-11.5c-8.5-10.2-8.1-25-6.8-40.4
		c1.4-16.7,2.9-33.4,4.3-50.2c1.4-16.7,2.9-33.4,4.3-50c0.9-8.4,1-18-4.8-24.4l-0.1-0.1c-0.3-0.3-0.7-0.7-1-1
		c-1-0.9-1.9-1.7-2.3-2.7c-1.2-2.7,1-6.1,3.2-9.4c3.1-4.7,5.7-9.2,7.7-13.4c10.2-20.8,13.7-45.5,10.1-71.3
		c-3.5-24.6-13.4-48.4-28.1-67.1c-0.3-0.3-0.6-0.6-1-0.7c-0.6-9-1.9-18-4.2-26.8c-2.1-8-5-15.8-7.8-23.3c-2.4-6.4-4.8-13.1-6.7-19.7
		c-10-36.1-4.6-76.6,14.6-108.2c0.7-1.2,0.3-2.7-0.8-3.4c-1.2-0.7-2.7-0.3-3.4,0.8c-19.9,32.8-25.6,74.8-15.2,112.2
		c2,6.8,4.5,13.6,6.9,20.1c2.7,7.4,5.6,15.1,7.6,22.8c8.7,33.6,3,69.3-2,100.7c-0.7,4-2.8,7.9-4.8,8.9c-0.6,0.3-1.1,0.3-1.8-0.1
		c-1.2-0.6-2.7-0.2-3.4,1.1c-0.6,1.2-0.2,2.7,1.1,3.4c1.1,0.6,2.2,0.8,3.3,0.8c0.3,0,0.5,0,0.8,0c9,20.1,13.5,44,12.9,66.9
		c-0.6-1.1-1.2-2.1-1.8-3.1c-0.6-0.9-1.7-1.4-2.7-1.2c-1.1,0.3-1.8,1.2-1.9,2.3c-0.2,3.7-1.1,7.4-2.5,10.7c-0.3-1.4-0.6-2.9-1-4.3
		c-0.8-3.6-1.6-7.1-2.4-10.6c-0.3-1.1-1.2-1.9-2.4-1.9c-1.1,0-2.2,0.7-2.5,1.9c-2.6,9.9-7.5,19.3-14,27.4c-0.4-4.1-0.5-8.4-0.2-13
		c0.1-1.2-0.7-2.3-1.8-2.6c-1.1-0.3-2.4,0.2-2.9,1.3c-0.6,1.2-1.2,2.3-1.8,3.2c-1.8-23.8,3.9-53.2,15.1-77.7
		c15.1-33.1,18.6-68.3,9.9-99.1c-2.3-8-5.4-15.8-8.4-23.4c-2.3-5.8-4.7-11.9-6.7-17.9c-14-42.9-8.3-91.3,15.2-129.4
		c0.7-1.2,0.4-2.7-0.8-3.4c-1.2-0.7-2.7-0.4-3.4,0.8C85,424.2,79.2,474.2,93.6,518.5c2,6.2,4.5,12.3,6.8,18.2c3,7.4,6,15.1,8.3,22.9
		c2.7,9.7,4.2,19.9,4.4,30.4c-7.2-13.5-15.5-29.6-19.3-43.4c-3.5-12.8-4.7-26.4-5.9-39.6l-1.8-20.9c-1.2-13.5-2.4-26.9-3.6-40.5
		c-1-10.3-2-21,1.9-30.6c2.1-6,6.3-11.1,10-15.5c36.5-43.7,83.7-70.1,129.5-72.6c37.2-1.9,73.5,11.1,108.5,23.7
		c29.2,10.5,59.4,21.4,90.6,23.9c24.2,1.9,47.2-0.8,74.8-4.6c29.3-3.9,58.5-7.8,87.7-11.8c29.1-3.9,58.2-7.8,87.4-11.7
		c0.4-0.1,0.7-0.2,1-0.4c2.8,0.4,5.4,0.9,7.4,2.3c2.1,1.4,3.7,4.3,2.8,6.2c-0.1,0.2-0.2,0.5-0.2,0.8c-3.7,6.1-8.6,11.7-14.2,16.1
		c-0.5,0.4-0.9,0.7-1.4,1.1c-2.5,1.9-5.1,3.9-7,6.7c-1.8,2.7-2.7,5.8-3.5,8.7c-5.1,19-10.6,39.4-16.5,59.9c-0.5,1.4-0.9,3.5,0.3,5.5
		c1,1.7,2.8,2.5,5.1,2.5c0.9,0,1.9-0.1,2.9-0.5c11.5-2.9,22.7-10.4,32.2-21.9c3.8-4.6,7.1-9.7,10.2-14.8
		c4.2,12.4,14.9,20.3,25.3,27.9c6.3,4.6,12.9,9.4,17.8,15.1c3.8,4.4,6.6,9.5,9.7,14.9c2.1,3.7,4.2,7.4,6.7,11c1.7,2.6,3.6,5,5.5,7.4
		C751.1,497.9,745.4,501.1,739.9,504.2z"/>
	<path fill="#F4ECCE" d="M792.9,480.9c-0.3,0.1-0.6,0.2-0.9,0.2c-0.4,0-0.9-0.1-1.3-0.3c-3.7-2.2-6.8-4.3-9.8-6.3
		c-3.2-2.1-6.1-4.1-9.7-6.2c-3.8-2-5.3-6.2-3.6-10.1c0.3-0.7,0.9-1.3,1.7-1.5c5.6-1.4,11-1.2,16.3-1c5.1,0.2,10,0.4,14.8-0.8
		c0.4-0.1,0.8-0.1,1.1,0c-0.9-3-2.2-6-3.5-9.1c-0.8-2-1.7-4-2.5-6.1c-7.5-19.6-7.5-41.6-0.2-61c-3.4-0.6-6.6-2.8-8.4-5.7
		c-1.3,1-2.5,2.1-3.5,3.4c-0.5,0.6-1.2,1-2,1c-0.5,0-1-0.2-1.5-0.5c-1.1-0.8-1.3-2.4-0.5-3.5c4.8-6.4,13.5-10.1,22-9.4
		c0.4-1.3,0.8-2.5,1-3.9c0.8-4.3,0.3-10.1-3.4-13.4l-0.1-0.1c-0.2-0.2-0.5-0.5-0.8-0.7c-0.6-0.5-1.2-1-1.8-1.7
		c-1.2-1.6-1.6-3.5-1.1-5.5c0.7-2.9,3.1-5.5,5.8-7.3c-0.3-0.9-0.4-1.9-0.6-2.8c-0.9-0.3-1.6-1.2-1.6-2.3
		c-0.2-12.6-12.3-25.6-20.1-27.3c-0.7-0.2-1.3-0.6-1.6-1.2c-4.5,1.5-9.3,2.4-14.4,2.2c-1.5-0.1-4.3,1.3-6.3,2.3
		c-1.4,0.7-2.8,1.4-4,1.8c-3.2,1.1-6.6-1.3-10.3-3.8c-1.6-1.1-4.5-3.1-5.5-3c-11.5,7.6-20.7,8.6-31.9,3.3c-0.6-0.3-1.3-0.6-1.9-0.8
		c2.4,15.9-6,32.9-20.3,40.4c-0.1,0-0.1,0.1-0.2,0.1c0,0.9-0.2,1.8-0.7,2.7c0.8,0.3,1.6,0.8,2.4,1.3c3.3,2.2,5.7,6.2,5.2,10.1
		c0.2,0.6,0.2,1.4-0.2,2c-4.1,7.3-9.8,13.8-16.3,19c-0.5,0.4-1,0.8-1.4,1.1c-2.3,1.7-4.4,3.4-5.8,5.5c-1.4,2.1-2.1,4.6-2.9,7.3
		c-5.1,19-10.7,39.5-16.5,60v0.1c-0.3,1.1-0.2,1.3-0.2,1.3c0.1,0.1,0.9,0.3,2.3-0.1h0.1c13.3-3.3,23.4-12.8,29.6-20.3
		c8-9.8,13.8-21,19.4-31.9c0.6-1.2,2.2-1.7,3.4-1.1s1.7,2.1,1.1,3.4c-2.3,4.4-4.6,8.9-7.2,13.5c0.8,0.2,1.5,0.8,1.8,1.7
		c3.4,11.5,13.3,18.8,23.9,26.6c6.5,4.8,13.3,9.8,18.6,15.9c4.1,4.8,7.2,10.3,10.2,15.7c2,3.6,4.1,7.2,6.5,10.7
		c3.2,4.8,6.7,9,10.7,12.9c0.5,0.5,1.1,0.5,1.4,0.5c0.5,0,1.1-0.2,1.4-0.6c9.1-10,23.9-14.5,36.8-11.2c0.9,0.2,1.6-0.2,1.9-0.5
		c0.6-0.5,0.9-1.4,0.8-2.2c-0.5-3.9-1.7-8.4-3.4-13.3C802.1,475.2,797.5,479.2,792.9,480.9z M733,377c-0.4,0.3-1,0.5-1.5,0.5
		c-0.8,0-1.5-0.3-2-1c-1-1.3-2.1-2.5-3.5-3.5c-2.2,3.4-6.2,5.8-10.4,5.8c-4.7,0-9.4-3.1-11.2-7.4c-0.5,0.3-1,0.6-1.5,1
		c-1.1,0.8-2.7,0.6-3.5-0.5s-0.6-2.7,0.5-3.5c4.8-3.5,11.3-5,17.8-4s12.3,4.3,15.8,9.1C734.3,374.6,734.1,376.2,733,377z"/>
</g>
<g id="vs-primary">
	<path fill="#B35E22" d="M811.6,391.3c12.5,13.7,18.5,33.1,16,51.5c-12.8-6.3-23.4-16.3-32.2-30.6c-0.1-0.2-0.2-0.3-0.4-0.5
		c-0.4-11.3,1.5-22.6,5.8-33.1c2.1,3.7,5.2,6.8,8.1,9.8C809.8,389.4,810.7,390.3,811.6,391.3z"/>
	<path fill="#B35E22" d="M769.2,299.3c-0.1,0-0.2,0-0.4,0.1c-0.5-1.7-2.4-2.9-4.3-1.7c-8.1,5-17.2-3.1-25.8-1.9
		c-2.1,0.3-4.1,1.3-5.6,2.8c-2.1-0.2-4.2,0.2-6.4,1.6c-0.6,0.4-1.1,1-1.3,1.7c-0.2-0.3-0.5-0.7-0.7-1c-2-3.3-7.2-0.3-5.2,3
		c6.6,10.9,19.3,9.1,29.9,12.7c4.8,1.7,9,4.7,13.9,1.2c4.7-3.4,4.5-9.9,8.8-13.4C774.7,302.2,771.9,298.9,769.2,299.3z M747.1,302.5
		c-1.1-0.1-2.2-0.3-3.3-0.6c-0.1,0-0.1,0-0.2-0.1C744.8,301.9,746,302.2,747.1,302.5z"/>
	<path fill="#B35E22" d="M746.3,373.8c-0.6-1.4-1.4-2.8-2.3-4.1c-0.9-1.6-1.8-3.2-3-4.5c-1-1.8-2.3-3.4-3.9-4.6
		c-2-1.5-4.3-2.6-6.7-3.4c-5.5-2.2-11.8-2.5-18.2-3.1c-5.4-0.5-9.6-2.4-11.4-6.5c-0.2-1.9-0.5-3.8-0.9-5.7l0,0
		c0.3-7,1.5-14.1,2.2-21.1c0.4-3.8-5.6-3.8-6,0c0,0.2,0,0.3-0.1,0.5c-0.4,0.3-0.8,0.8-1,1.4c-10.5,32.2-52.5,30.2-79.3,30.9
		c-8.7,0.2-17.5,0.8-26,2.7c-5.2,1.1-10.3,2.8-15.3,4.3c-0.4-0.3-1-0.4-1.7-0.3c-36,4.1-72,8.2-108,12.4
		c-15.9,0.3-31.8,0.1-47.5-0.5c-4.8-0.2-9.5-0.6-14.1-1.2c-10.3-2-20.5-4.3-30.7-6.9c-13-4.1-25.8-9-39-12.8
		c-4.4-1.3-8.9-2.4-13.4-3.3c-13.8-4.9-27.4-10.4-40.9-16.2c-1.5-0.7-2.9-0.1-3.8,0.9c-6.5-1.9-11.5,0-16.5,5.1
		c-6.5,6.6-12.4,13.8-18.1,21.1c-4.5,5.8-11.6,12.9-10.7,20.9c1,8.4,7.7,17,11.9,24.1c9.6,16.6,16.8,33.6,21.5,52.2
		c4.5,17.7,7.5,35.8,11.6,53.6c2.1,9,4.5,18,7.5,26.8c2.4,7,5.1,14.3,10.1,19.9c5.5,6.2,13.2,8.3,20.7,10.8
		c9.4,3.2,18.6,7.1,27.6,11.4c16.9,8.1,33,17.5,49.4,26.6c17.1,9.5,35.6,20.7,55.7,21.4c9.7,0.3,17.9-2.8,26.4-7.1
		c6.7-3.4,21.6-8.6,24.1,2.8c0.3,1.1,1,1.8,1.8,2c4.2,8.7,13.8,12.1,22.6,15.6c12.6,5.1,19.8,15.3,26.8,26.4
		c1.4,2.3,4.6,1.7,5.5-0.7c7.7-21.1-6.6-40.6-16.4-58.1c-5.6-10.2-10.2-21.4-8-33.2c1.1-5.6,10.3-28.7,18.1-19.9
		c3.1,3.5,4.2,8.7,6,12.9c2,4.7,4.6,9.2,8.1,12.9c6.5,6.7,15.3,9.5,24.3,6.8c5.2-1.6,9.8-4,15.4-2.7c6.1,1.4,11.1,5.6,15.7,9.5
		c6.9,5.8,14.5,11.9,24.1,11.6c4.4-0.1,8.8-1.6,12-4.8c1.9-1.9,3.1-4.5,4.9-6.5c2.4-2.6,5.7-3.9,9.1-4.8c0.9-0.3,2-0.6,3-0.7
		c2.9-0.3,3.8,0.5,5.2,2.9c1.7,2.8,2.5,6.8,3.6,9.8l7.6,20.5c1,2.7,4.6,2.5,5.7,0.6c0.8-0.4,1.4-1.3,1.3-2.5
		c-1.3-26.3-0.3-52.8,3.4-78.8c1.8-12.7,5-24.6,9.3-36.7c4-11.5,5.3-23.3,4.8-35.4c-0.5-12.5-2.4-25-3-37.5
		c-0.1-2.7-0.2-5.5-0.2-8.5c0.1-0.5,0.2-0.9,0.3-1.4c0.4-1.6,0.3-3-0.1-4.2c0.6-7.2,2.2-14.3,6.6-19.6c3.7-4.6,9.5-2.8,14.6-3.6
		c1.4-0.2,2.8-0.6,4.1-1.2c5.8-1.3,11.6-4.3,13.9-9.2c0.6-1.4,0.9-2.8,0.9-4.2C747.9,377.6,747.2,375.6,746.3,373.8z"/>
	<path fill="#B35E22" d="M242.1,323.9c-0.5-0.6-1.2-1-2.3-0.9c-15.9,2.1-31.8,5-47.4,8.9c-11.5,2.9-26.6,6.4-29.2,20.1
		c-2.5,13.5,12.4,19,22.8,22.1c4.7,1.4,12,4.1,15.1-1.5c1.2-2.2,1.7-4.9,2.6-7.2c1.3-3.3,3-6.5,4.9-9.6c8-12.7,20.5-22,35-26.1
		C247.1,328.7,245.6,323.1,242.1,323.9z"/>
	<path fill="#B35E22" d="M192.9,441.8c-2.2-9.4-7.8-20.9-19-20.5c-5.8,0.2-11.2,3.3-16.2,5.8c-5.6,2.9-11.3,5.8-16.9,8.7
		c-8.5-4.6-8.1-15.4-7.3-23.9c0.8-8.2,1.7-16.9-2.3-24.4c-3-5.7-9.1-9.5-15.6-9c-2.9,0.2-5.6,1.3-7.7,3.2c-1.3,1.2-2.2,2.9-3.2,4.4
		c-1.7,1.2-3.3,2.8-4.6,4.7c-0.4,0.6-0.5,1.2-0.5,1.7c-1.7,1.9-3,4.2-4.3,6.3c-4.6,7.4-9.2,15.2-11.2,23.8
		c-2.1,9.2-0.6,18.6,0.3,27.9c1,10.6,2,21.2,3.1,31.8c3.4,35.8,3.7,75.5,22.8,107.2c0.8,1.3,2.7,2,4.1,1.1
		c19.3-12.6,17.9-36.9,15.7-57c-1.3-12.4-2-24.8-1.8-37.3c0.1-7.3-1.4-27.2,10.2-27.3c11.7-0.1,15.9,16,22.1,23.3
		c5.1,6.1,14.7,10.4,22.2,5.8c7.8-4.8,8.5-17.6,9.9-25.6C194.4,462.3,195.3,451.8,192.9,441.8z"/>
</g>
<g id="vs-color">
	<path fill="#E1B67C" d="M697.4,298c0-0.3-0.1-0.5,0-0.7c-11.3-4.8-22.7-8.5-34-11.1c-2.2-0.5-4.4-1-6.6-1.5
		c-16.9-3.7-34.4-7.5-44.5-21.6c-9.9-13.8-8.3-31.2-6.7-48c0.2-2.6,0.5-5.1,0.7-7.6c3.2-42.7-10-86.4-36.2-119.8
		c-2.1-2.8-7.3-8.6-12.4-7.8c0.2,2.3,1.9,4.8,3.5,7.3l0.3,0.4c13.2,20,20.1,45.6,20.3,76c0.1,19.9-2.3,40-4.6,59.4
		c-0.8,6.2-1.5,12.7-2.2,19c-1.7,15.8-2.8,33.8,6.6,47.3c5,7.2,12.9,12.7,19.8,17.2c23,15.6,45.7,29.9,71.3,34.1l1.3,0.2
		c1.3,0.2,2.6,0.4,3.9,0.7c0-0.1,0.1-0.3,0.2-0.4c0-0.1,0.1-0.1,0.1-0.2c0-0.3,0.1-0.7,0.3-0.9c0-0.1,0-0.2,0,0l0,0
		c-0.1-0.7,0.1-1.3,0.5-1.8c-0.2-1,0.3-2.1,1.3-2.6C693.1,328.8,700.7,312.3,697.4,298z"/>
	<path fill="#E1B67C" d="M911.1,154.3c-0.8-2.4-1.7-4.8-2.6-7.3c-2.9-8-5.9-16.3-7.5-24.8c-2.1-11.5-1-22,3-30.3
		c-6.9,0.8-13.4,7.4-16.6,14.6c-8,16.6-7.3,35-6.6,54.5c0.6,16.5,1.2,33.6-3.9,49.4c-10.5,33-43.8,53.7-68.2,68.8
		c-3,1.8-6,3.8-8.9,5.8c-5.4,3.6-11,7.3-16.8,10c9.9,4.4,20.4,18,20.6,30.9c0,0.2,0,0.3,0,0.5c0.3,0.3,0.5,0.8,0.5,1.3
		c0.1,0.4,0.1,0.9,0.2,1.4l7.5-4.1c8-4.4,16.4-8.9,24.5-13.4c19.3-10.4,35.9-24.2,52.3-43.2c16.5-19,26.5-40.4,29.1-61.8
		C919.8,190.8,917.5,173.1,911.1,154.3z"/>
	<path fill="#494A51" d="M798.9,370.4c-0.4,0.4-0.6,0.9-0.7,1.5c-0.3,0.7-0.6,1.3-0.9,2c-2.4,0-4.7-1.4-6-3.4
		c2.6-1.1,5.4-1.6,8.2-1.6C799.3,369.4,799.1,369.9,798.9,370.4z"/>
	<path fill="#494A51" d="M721.6,370.6c-1.3,1.9-3.7,3.2-6,3.2c-2.7,0-5.4-1.8-6.5-4.2c2.5-0.6,5.2-0.7,7.9-0.3
		C718.6,369.6,720.1,370,721.6,370.6z"/>
	<path fill="#9A97A5" d="M237.4,900.9c-6.5-3.1-12.5-7-17.7-12.1s-8.3-10.9-12.4-16.7c-1-1.4-2.1-2.5-3.2-3.4
		c2.4-2.9,1.7-7.9-0.9-10.4c-3.3-3.3-7.9-2.7-11.3,0c-14.6,11.7-33.2,17.5-51.8,17.1c-9.6-0.2-10.1,12.7-2.1,15.7
		c-1.3-0.5-0.2,0.1,0.2,0.9c0.5,1.1,1.2,2.3,1.8,3.2c1.6,2.7,3.5,5,6.1,6.8c5.3,3.8,12.1,5.8,18.1,8.1c13.4,5.1,27.2,9.1,41.2,12.1
		c4.6,1,8.6-1.8,9.7-5.6c6.1-0.3,12.1-0.5,18.2-0.8C240.7,915.5,245,904.5,237.4,900.9z"/>
	<path fill="#9A97A5" d="M542.4,884.1c-8.4,3.1-20.3,7.5-29.1,4.1c-4-1.5-8.8,1.7-9.8,5.6c-1.2,4.5,1.5,8.3,5.6,9.8
		c11.6,4.4,26.5,0,37.6-4.1C556.2,896,552.1,880.5,542.4,884.1z"/>
	<path fill="#9A97A5" d="M664.1,901.8c-0.6-3.7-3.8-7.1-7.9-6.9c-0.2,0-0.4,0-0.5,0c-3.4-2.7-5.8-7.3-7.7-10.9
		c-2.7-5.1-4.4-10.6-7.1-15.6c-3.4-6.3-9.4-8-16.1-6.9c-5.9,1-11.4,1.2-16.9-1.3c-1.9-0.8-3.9-1.1-5.8-0.8c-1.6-0.8-3.4-1.1-5.5-0.5
		c-3.8,1-7.2,5.8-5.6,9.8c5,12.4,14,21.9,25.5,28.7c6.1,3.6,12.7,6.3,19.3,8.7c4.9,1.8,9.9,3.7,15.1,4.5c2.4,0.9,4.9,1.1,7.6,0
		C662.1,909.1,664.8,906.1,664.1,901.8z"/>
	<path fill="#F2B79E" d="M792,503.1c-6.1,2.2-13.2,0.4-17.5-4.2c7.5-6.8,18.6-10.1,28.3-8.2C802.1,498.4,795.8,501.8,792,503.1z"/>
	<path fill="#F2B79E" d="M802.5,459.3c0,0.3,0.1,0.6,0.1,0.9c0.6,6-4.9,13-10.4,15.6c-3.1-1.9-5.8-3.7-8.5-5.5
		c-3.1-2.1-6.3-4.2-10-6.4c-1-0.5-1.8-1.4-1.8-2.7c4.4-0.9,8.8-0.7,13.4-0.5c5.3,0.2,10.7,0.4,16.3-1
		C801.9,459.6,802.2,459.5,802.5,459.3z"/>
	<path fill="#F4ECCE" d="M136.3,716.3c0-6.4,1.3-12.6,2.6-19.1c0.9-4.4,1.9-8.9,2.4-13.5c2.5-21.2-5.6-49.6-12.8-69.6
		c-0.1-0.3-0.3-0.6-0.5-0.8c1.3-11.7,2.2-23.8,1.9-36c27.1,37.9,33,90,14.1,128.6c-2,4-4.5,8.3-7.4,12.8c0,0.1-0.1,0.1-0.1,0.2
		C136.3,718,136.3,717.1,136.3,716.3z"/>
</g>
<g id="vs-shade">
	<path opacity="0.4" enable-background="new    " d="M749.3,479.9c-2.9-6.1-5.9-12.2-8.8-18.2c-1.7-3.6-6.3-2.5-7.8,0.4
		c-2.3-5.6-5.9-10.4-8.6-15.7c-2.4-4.8-5.1-9.6-11.2-9.4c-5.8,0.1-5.8,9.1,0,9c1.6,0,2.9,3.9,3.4,5c1.2,2.4,2.6,4.6,4,6.9
		c2.9,4.7,4.9,9.4,6,14.8c2.4,11.8,2.3,24.4,1.7,36.3c-0.1,3,3,5,5.7,4.3c9.2-2.2,20.5-6.9,20.8-18.1
		C754.8,489.7,751.6,484.6,749.3,479.9z"/>
	<path opacity="0.4" enable-background="new    " d="M570.8,655.4c-0.6-2.2-2.8-3.2-4.8-3.1c0.4-3,0.6-5.9,0.7-8.8
		c0.3-9.2-2-18.8,1.5-27.5c2.2-5.4-6.5-7.7-8.7-2.4c-2.9,7.3-2.2,14.9-1.9,22.6c0.3,8.4-0.4,16.8-2.6,24.9
		c-2.1,7.8-5.4,12.6-13.9,13.2c-8.9,0.7-18,0.4-26.9,0.1c-5.8-0.2-5.8,8.8,0,9s10.5,3.9,15,7.2c4.3,3.2,8.6,6.2,13.3,8.8
		c9.5,5.3,19.8,9.1,30.4,11.4c3,0.7,5.4-1.3,5.7-4.3C580.1,689,575.5,672,570.8,655.4z"/>
	<path opacity="0.4" enable-background="new    " d="M553,707.8c-0.5,0.4-1,0.7-1.6,1.1c-0.2-0.3-0.3-0.5-0.6-0.7
		c-5.6-5.7-13-6.9-20.2-9.5c-9.1-3.2-17.2-10.1-25.2-15.4c-3.5-2.3-7.4,1.5-6.6,5.1c2.8,13,2.5,26.3,2.4,39.5
		c-0.1,6-0.3,12.1,0.3,18.1c0.4,4.3,2,8.9,6.3,10.5c10.5,4,16.2-9.9,20.3-16.7c3.1-5,7.6-8.5,12.3-11.9c5.7-4.1,11.3-8.2,17-12.4
		C562.1,712.2,557.7,704.4,553,707.8z"/>
	<path opacity="0.4" enable-background="new    " d="M440.3,663.3c-9.3-8.4-20.5-14-32.9-15.9c-13.8-2.2-27.7-0.3-41.5-0.4
		c-11.8-0.1-24.9-1.9-34.2-9.8c-4.9-4.1-8.6-9.9-2.7-14.8c5.5-4.6,12-8.3,18.3-11.6c5.2-2.6,0.6-10.4-4.5-7.8c-2,1-4.4,2.2-6.9,3.6
		c-0.3-0.2-0.7-0.3-1.1-0.4c-30.3-4.6-61.4,3.4-85.4,22.6c-4.8,3.9-9.5,10-3.6,15.3c3.1,2.8,7.2,4.8,10.7,7c4.2,2.7,8.3,5.3,12.5,8
		l48.2,30.8c8.2,5.3,16.4,10.5,24.7,15.8c0.1,1.7,1.1,3.3,3.2,3.6c1.1,0.2,2.1,0.3,3.2,0.5c6.1,3.7,12.7,6.8,19.5,3
		c1.2-0.6,1.8-1.6,2.1-2.6c0.4-0.1,0.8-0.1,1.2-0.2c7.9-1.7,13.9-6.5,19.9-11.6c14.1-11.9,30.1-21.2,47.5-27.4
		C441.4,669.8,443,665.8,440.3,663.3z"/>
	<path opacity="0.4" enable-background="new    " d="M154,648.7c-4.6-23.7-9.7-47.3-19.4-69.5c-2.3-5.3-10.1-0.7-7.8,4.5
		c1.7,3.8,3.2,7.6,4.6,11.5c-3-2.7-8.9-0.4-7.4,4.3c3.9,12.2,8.1,24.3,11.7,36.6c1,5.2,1.3,10.5,1.3,16.1c0,19.4-0.1,38.8-0.2,58.3
		c0,4.7,6,5.8,8.4,2.3c6.1-9,10-19.2,11.5-30C158.2,671.3,156.2,660.1,154,648.7z"/>
	<path opacity="0.4" fill="#FFFFFF" enable-background="new    " d="M537,381c3.4,3.9-11.7,14.8-19,40c-6.5,22.3,1,28.5-4,54
		c-2.4,12.6-6.6,34-23,50c-9.2,8.9-26.1,14-60,24c-31.8,9.4-42.1,9.9-46,10c-18,0.5-37.8,1.1-48-11c-5.7-6.7-3.2-27.6,2-69
		c3.3-26.1,5-39.2,10-46c12.9-17.6,35.2-21.6,49-24c28.6-5.1,34.3,4,60,2C503.6,407.4,531.9,375.1,537,381z"/>
	<path opacity="0.4" fill="#FFFFFF" enable-background="new    " d="M558.5,82.6c8.5,10.8,18.9,26.5,26.5,47.3
		c3.1,8.5,9.5,26.3,10.2,50c0.6,22-4.3,24.7-3.8,53.4c0.5,25.2,4.5,33.8,8.5,39.4c6.1,8.6,13.7,12.6,22.9,17.4
		c15.4,8,24.6,8,53.4,15.7c10.3,2.7,18.6,5.3,23.8,6.9c0.5-2.3,0.9-5.4,0.8-9c-0.1-2.4-0.4-4.5-0.8-6.2
		c-25.2-8.7-43.6-14.5-57.1-18.7c-9.5-2.9-19.7-5.9-26.9-15.3c-6-7.7-7.6-16.7-8.4-22c-2.2-13,0.1-23.2,0.9-27.2
		c7.4-38-9-78.9-10.7-83c-8.1-19.7-20.4-36.2-22.6-39c0,0-2.4-4.4-7.9-9.8c-4.8-4.7-6.3-4.3-6.9-4.1
		C558.7,78.9,558.5,81.2,558.5,82.6z"/>
	<path opacity="0.4" fill="#FFFFFF" enable-background="new    " d="M781.3,295.3c3.6,2.7,7.3,5.4,10.9,8.2
		c8.2-3.3,18.5-8.3,29.6-15.6c13.8-9.1,23.7-18.6,29.9-25.2c10.9-11.6,23.9-25.5,30.7-46.7c4.4-13.7,4.4-25,4.3-46.3
		c0-10.4-0.7-29.9,2.3-49.3c0.6-3.9,1.9-11.3,7-19c3.5-5.3,7.5-8.8,10.4-10.9c-2.6,0.3-6.6,1.1-10.7,3.8c-6.4,4.2-9,10.4-11.4,16.5
		c-2.3,5.7-3.5,11.3-4.4,18.7c-1.3,11.4-0.7,19-0.3,29.3c0.7,18.3,1,27.4,0.1,34.2c-2.8,19.9-11.7,34-14.9,38.8
		c-7.1,10.5-14.5,16.6-22.6,23.4c-8.9,7.4-14,10-34,22.8C797.1,284.9,787.9,290.9,781.3,295.3z"/>
</g>
<g id="vs-outline_1_">
	
		<path id="path27_1_" fill="none" stroke="#000000" stroke-width="8" stroke-linecap="round" stroke-linejoin="round" stroke-miterlimit="10" d="
		M123.3,389.6c-4.9,8.1-9,16.8-12.1,25.8s-5.3,18.3-6.6,27.8c-1.3,9.5-1.6,19-1,28.5s2.2,19,4.7,28.1c1,3.6,2.2,7.2,3.5,10.8
		s2.6,7.1,3.9,10.7c1.3,3.5,2.6,7.1,3.8,10.7c1.2,3.6,2.3,7.2,3.3,10.9c2.2,8.3,3.4,16.7,4.1,25.1c0.6,8.5,0.6,17,0.2,25.5
		s-1.3,17.1-2.4,25.7c-1.1,8.5-2.5,17-3.8,25.5c-0.3,1.4-0.7,2.9-1.3,4.4c-0.6,1.5-1.4,2.9-2.2,4c-0.9,1.1-1.9,2-3,2.5
		s-2.3,0.4-3.6-0.3"/>
	
		<path id="path29_1_" fill="none" stroke="#000000" stroke-width="8" stroke-linecap="round" stroke-linejoin="round" stroke-miterlimit="10" d="
		M111.4,386.2c-6,9.7-10.8,20.1-14.5,30.8c-3.7,10.8-6.2,21.9-7.5,33.2C88.1,461.5,88,473,89,484.3c1.1,11.3,3.4,22.5,6.9,33.4
		c1.2,3.5,2.4,6.9,3.7,10.3c1.3,3.4,2.7,6.8,4,10.2s2.7,6.8,3.9,10.2s2.4,6.9,3.4,10.4c2.3,8,3.6,16.2,4.2,24.5s0.4,16.6-0.6,24.9
		c-0.9,8.3-2.6,16.5-4.8,24.5s-5.2,15.9-8.6,23.5c-2.8,6.1-5.3,12.7-7.5,19.5s-3.9,13.9-5.3,21.1c-1.3,7.2-2.3,14.4-2.6,21.5
		c-0.4,7.1-0.2,14.1,0.5,20.8c0.8,0,1.4-0.3,2-0.7s1.2-0.9,1.7-1.5s1-1.3,1.4-2s0.8-1.4,1.1-2.1c-0.1,1.5-0.2,3.1-0.2,4.7
		c0,1.6,0,3.2,0.1,4.8s0.2,3.2,0.4,4.8s0.4,3.1,0.7,4.7c2.2-2.3,4.2-4.7,6-7.3c1.8-2.5,3.5-5.2,5.1-7.9c1.5-2.7,2.9-5.6,4.1-8.5
		s2.2-5.8,3-8.8c0.4,1.8,0.8,3.5,1.2,5.3s0.8,3.6,1.2,5.4c0.4,1.8,0.8,3.6,1.2,5.4s0.8,3.5,1.2,5.3c0.9-1.3,1.7-2.7,2.4-4
		c0.7-1.4,1.3-2.8,1.8-4.3s0.9-3,1.2-4.5c0.3-1.5,0.5-3.1,0.6-4.7c0.5,0.8,1,1.7,1.5,2.6c0.5,0.9,1,1.7,1.5,2.6s1,1.8,1.5,2.6
		c0.5,0.9,1,1.7,1.5,2.6c0.6-6.4,0.7-13,0.4-19.6s-1-13.3-2.1-19.9s-2.6-13.2-4.5-19.5c-1.9-6.4-4.2-12.5-6.9-18.4"/>
	
		<path id="path31_1_" fill="none" stroke="#000000" stroke-width="10" stroke-linecap="round" stroke-linejoin="round" stroke-miterlimit="10" d="
		M128.5,571.2c7.3,9.3,13.3,19.8,18,30.9s7.9,23,9.6,35c1.7,12,1.8,24.2,0.2,36s-4.9,23.3-10.1,33.8c-0.6,1.1-1.1,2.2-1.7,3.3
		s-1.2,2.2-1.9,3.3c-0.6,1.1-1.3,2.2-2,3.3s-1.4,2.2-2.1,3.2c-0.6,0.9-1.2,1.8-1.8,2.8s-1.1,2-1.5,3s-0.6,2-0.7,3c0,1,0.1,2,0.6,3
		c0.2,0.5,0.4,0.9,0.7,1.3s0.6,0.8,0.9,1.1c0.3,0.4,0.7,0.7,1.1,1s0.7,0.7,1.1,1c1.3,1.5,2.3,3.1,3,4.9c0.7,1.8,1.1,3.7,1.4,5.6
		s0.3,4,0.3,6c-0.1,2-0.2,4-0.4,6c-0.7,8.3-1.4,16.7-2.1,25c-0.7,8.4-1.4,16.7-2.2,25.1c-0.7,8.4-1.4,16.7-2.2,25.1
		c-0.7,8.4-1.4,16.7-2.1,25c-0.3,3.7-0.6,7.4-0.7,11.2s0,7.5,0.4,11.2s1.2,7.2,2.4,10.5s2.9,6.5,5.3,9.3c1.3,1.5,2.6,2.8,4.1,4
		s3.1,2.3,4.8,3.3s3.4,1.9,5.2,2.7s3.6,1.6,5.4,2.3c3.1,1.3,6.3,2.4,9.5,3.5s6.4,2.1,9.6,3.1c3.2,1,6.5,1.8,9.8,2.6s6.6,1.5,9.9,2.2
		c1.9,0.3,4.2,0.3,6.6-0.2s4.7-1.2,6.7-2.2s3.6-2.2,4.3-3.6c0.8-1.3,0.7-2.8-0.5-4.2c-2.3-2.6-5.1-5.5-8.1-8.6s-6.2-6.4-9.3-9.8
		s-6-6.8-8.6-10.3c-2.5-3.4-4.6-6.9-6-10.1"/>
	
		<path id="path33_1_" fill="none" stroke="#000000" stroke-width="10" stroke-linecap="round" stroke-linejoin="round" stroke-miterlimit="10" d="
		M207.8,904.5c1.3,1.9,2.5,3.4,3.7,4.6c1.2,1.2,2.4,2.2,3.7,3s2.6,1.5,4.1,2.1c1.5,0.7,3,1.3,4.8,2c1.9,0.8,4.5,0.9,7,0.4
		c2.6-0.4,5.2-1.4,7.4-2.6c2.2-1.2,4-2.8,4.8-4.3c0.8-1.6,0.8-3.2-0.7-4.6c-3-2.8-6.6-5.6-10.5-8.5s-7.9-5.8-11.8-9.1
		c-3.9-3.3-7.6-6.9-10.7-11c-3.1-4.1-5.6-8.8-7.1-14.2c-1-3.5-1.9-7-2.7-10.5s-1.6-7-2.2-10.6c-0.7-3.5-1.2-7.1-1.7-10.7
		c-0.5-3.6-0.9-7.2-1.2-10.8c-0.4-5.1-0.8-10.3-1.2-15.4c-0.4-5.1-0.8-10.3-1.2-15.5s-0.7-10.3-1.1-15.5s-0.7-10.3-1-15.5
		c-0.1-1.1-0.1-2.2-0.2-3.3s-0.1-2.2,0-3.4c0-1.1,0.1-2.3,0.3-3.4s0.4-2.3,0.7-3.4c0.6-1.8,1.4-3.6,2.3-5.2c1-1.7,2.1-3.2,3.3-4.8
		s2.5-3.1,3.8-4.6s2.5-3.1,3.6-4.7c1.3-2,2.4-4,3.4-6.1s1.8-4.3,2.6-6.5s1.4-4.5,2-6.8s1.2-4.6,1.8-6.9c2.2-8.4,4.6-16.9,7.6-25.2
		s6.4-16.4,10.6-24.1c4.1-7.6,8.9-14.7,14.6-21c5.7-6.3,12.2-11.7,19.7-16c2.6-1.5,5.3-2.8,8.1-4c2.8-1.2,5.6-2.2,8.5-3.1
		s5.8-1.6,8.7-2.2s5.9-1.1,8.8-1.5c3.7-0.5,7.4-0.7,11.1-0.9c3.7-0.1,7.4-0.1,11.1,0.1s7.4,0.6,11,1.1s7.3,1.2,10.8,2.1"/>
	
		<path id="path35_1_" fill="none" stroke="#000000" stroke-width="10" stroke-linecap="round" stroke-linejoin="round" stroke-miterlimit="10" d="
		M238.7,643.1c7.4,4.9,14.8,9.8,22.1,14.7c7.4,4.9,14.7,9.8,22.1,14.7s14.7,9.8,22.1,14.7s14.7,9.8,22.1,14.7
		c2.9,1.9,5.8,3.8,8.8,5.6s6.1,3.5,9.3,4.9c3.2,1.4,6.5,2.5,9.8,3.1s6.8,0.9,10.2,0.5c3.4-0.4,6.6-1.3,9.6-2.7s5.9-3,8.7-5
		c2.8-1.9,5.4-4.1,8-6.3s5.1-4.5,7.6-6.8c4.2-3.7,8.6-7.2,13.2-10.5s9.4-6.2,14.4-8.8c5-2.5,10.1-4.7,15.4-6.2s10.8-2.5,16.4-2.7
		c10.9-0.3,21.3,2.1,31.3,6s19.7,9.4,29.4,15s19.3,11.5,29.3,16.2s20.3,8.3,31.2,9.5"/>
	
		<path id="path37_1_" fill="none" stroke="#000000" stroke-width="10" stroke-linecap="round" stroke-linejoin="round" stroke-miterlimit="10" d="
		M496.8,677.2c0.4,6.8,0.7,13.5,1.1,20.2c0.4,6.6,0.9,13.2,1.5,19.8s1.3,13.1,2.2,19.7c0.9,6.6,1.9,13.2,3.2,19.8c1,5,2,10,3.1,15.1
		s2.1,10.1,3,15.1s1.5,10.1,1.9,15.1s0.3,10.1-0.2,15.1c-0.6,6-1.9,11.9-3.4,17.7s-3.3,11.7-4.9,17.5s-3,11.6-3.8,17.5
		c-0.8,5.8-1,11.7-0.2,17.6c0.1,0.9,0.2,1.8,0.4,2.7c0.2,0.9,0.4,1.8,0.7,2.6s0.6,1.7,1,2.5s0.9,1.6,1.4,2.4
		c1.1,1.4,2.3,2.5,3.8,3.5c1.4,0.9,3,1.6,4.7,2.2c1.7,0.5,3.5,0.9,5.2,1.2c1.8,0.2,3.6,0.4,5.4,0.4c2.8,0.1,5.7,0.1,8.6,0
		c2.9-0.1,5.7-0.4,8.6-0.7c2.9-0.3,5.7-0.8,8.5-1.4c2.8-0.6,5.5-1.3,8.3-2.1c-1-1.8-2-3.5-3.1-5.2s-2.2-3.4-3.3-5.1s-2.4-3.3-3.6-5
		s-2.5-3.2-3.8-4.8c-1.9,1.5-3.9,2.8-6,4s-4.2,2.3-6.4,3.3s-4.5,1.8-6.8,2.4c-2.3,0.7-4.6,1.2-7,1.5c2,0.3,4.1,0.3,6.2,0.1
		c2.1-0.2,4.1-0.7,6.1-1.4s3.8-1.7,5.6-2.8c1.7-1.2,3.3-2.5,4.6-4.1c0.3-0.4,0.6-0.7,0.9-1.1c0.3-0.4,0.5-0.8,0.8-1.3
		c0.2-0.4,0.4-0.9,0.5-1.4s0.2-1,0.2-1.5s-0.2-1.1-0.4-1.6s-0.5-1-0.8-1.5s-0.6-0.9-1-1.4c-0.3-0.5-0.7-0.9-1.1-1.4
		c-2-2.5-3.5-5.4-4.6-8.4s-1.7-6.3-2-9.6s-0.3-6.7-0.2-10.1s0.5-6.8,0.8-10.1c0.4-4,0.8-8,1.3-12s1.1-8,2-11.9
		c0.8-3.9,1.9-7.8,3.2-11.5s2.9-7.4,4.9-10.8c0.9-1.5,1.8-3,2.7-4.4c0.9-1.5,1.9-2.9,2.8-4.4c0.9-1.5,1.8-3,2.6-4.6s1.5-3.2,2-4.8
		c1.5-4.6,1.9-9.6,1.8-14.7c-0.1-5.1-0.7-10.3-1.1-15.4c-0.4-5.1-0.5-10,0.3-14.5s2.6-8.7,6-12.2"/>
	
		<path id="path39_1_" fill="none" stroke="#000000" stroke-width="10" stroke-linecap="round" stroke-linejoin="round" stroke-miterlimit="10" d="
		M564.7,612.1c-0.2,7,0.2,13.9,1,20.8c0.8,6.9,2,13.7,3.5,20.6c1.4,6.8,3.1,13.6,4.7,20.4c1.7,6.8,3.4,13.6,4.9,20.3
		c2.5,11.9,4.5,23.9,6.1,36c1.5,12.1,2.6,24.2,3.5,36.4s1.3,24.4,1.7,36.6c0.4,12.2,0.6,24.4,0.8,36.6c0,4.3,0.1,8.7,0.4,13.1
		s0.7,8.8,1.5,13c0.8,4.3,1.8,8.4,3.4,12.4c1.5,3.9,3.5,7.7,6.1,11.1c3.8,5,8.5,8.9,13.8,11.9s11.1,5.1,17.3,6.5s12.6,2.2,19.1,2.6
		s13,0.4,19.3,0.2c-3.8-4.5-7.5-9.1-11.2-13.7s-7.3-9.3-10.7-14c-3.4-4.8-6.7-9.7-9.6-14.7c-3-5-5.7-10.2-8.1-15.6
		c-2.4-5.4-4.3-11-5.8-16.8s-2.5-11.6-2.9-17.5s-0.2-11.8,0.7-17.5c0.9-5.8,2.5-11.4,4.9-16.8c0.6-1.4,1.3-2.8,1.9-4.2
		c0.7-1.4,1.3-2.8,1.9-4.2c0.6-1.4,1.1-2.9,1.4-4.3c0.4-1.5,0.6-3,0.6-4.6c0-1-0.1-1.9-0.2-2.8c-0.1-1-0.3-1.9-0.6-2.9
		c-0.2-0.9-0.5-1.9-0.7-2.8c-0.2-1-0.5-1.9-0.7-2.9c-0.3-1.5-0.5-3-0.6-4.6s-0.1-3.1,0-4.7s0.2-3.1,0.3-4.7s0.3-3.1,0.5-4.6
		c0.5-4.5,1-9,1.5-13.4s1-9,1.6-13.5c0.5-4.5,1.1-9,1.6-13.5s1-9,1.5-13.4c0.1-1,0.2-2.1,0.4-3.1c0.1-1,0.3-2.1,0.5-3.1
		s0.5-2.1,0.8-3.1s0.7-2.1,1.1-3.1c0.6-1.3,1.3-2.4,2.1-3.6s1.7-2.2,2.6-3.3c0.9-1.1,1.8-2.1,2.7-3.2c0.9-1.1,1.8-2.1,2.6-3.3
		c0.8-1.1,1.5-2.3,2.1-3.6s1.1-2.7,1.3-4c0.3-1.4,0.4-2.7,0.2-4.1c-0.2-1.3-0.6-2.6-1.3-3.8c3.8-1.2,7.7-2.5,11.5-3.9
		s7.6-3,11.1-4.9s6.8-4.1,9.7-6.6c2.9-2.6,5.5-5.5,7.5-9c1.1-2,2.1-4.1,2.8-6.3s1.3-4.4,1.8-6.6c0.5-2.3,0.8-4.6,1.1-6.9
		c0.3-2.3,0.5-4.6,0.7-6.9c0.3-3.1,0.6-6.3,0.9-9.4c0.3-3.1,0.6-6.3,0.9-9.4c0.3-3.1,0.6-6.3,0.9-9.4c0.3-3.1,0.6-6.3,0.9-9.4
		c0.3-2.7,0.5-5.5,0.9-8.3s0.9-5.5,1.7-8.2c0.7-2.7,1.7-5.2,3-7.6c1.3-2.4,2.9-4.6,4.9-6.5c0.7-0.7,1.5-1.3,2.2-2
		c0.8-0.6,1.6-1.2,2.4-1.7c0.8-0.5,1.7-1.1,2.6-1.6s1.7-1,2.6-1.5c2.8-1.5,5.6-3.1,8.4-4.7c2.8-1.6,5.6-3.2,8.4-4.8s5.6-3.2,8.4-4.8
		s5.6-3.1,8.4-4.7"/>
	
		<path id="path41_1_" fill="none" stroke="#000000" stroke-width="8" stroke-linecap="round" stroke-linejoin="round" stroke-miterlimit="10" d="
		M686.8,354.9c-1,1.8-2.1,3.5-3.3,5.1c-1.2,1.7-2.4,3.3-3.7,4.8s-2.7,3-4.2,4.4s-3,2.7-4.5,4c-0.7,0.6-1.4,1.1-2.1,1.6
		c-0.7,0.5-1.4,1.1-2.1,1.7c-0.7,0.6-1.3,1.2-1.9,1.8c-0.6,0.6-1.2,1.3-1.7,2.1c-0.4,0.6-0.8,1.2-1.1,1.9c-0.3,0.6-0.6,1.3-0.8,2
		c-0.3,0.7-0.5,1.4-0.7,2.1s-0.4,1.4-0.6,2.1c-1.3,5-2.7,10-4.1,15c-1.4,5-2.7,10-4.1,15c-1.4,5-2.7,10-4.1,15c-1.4,5-2.8,10-4.2,15
		c-0.1,0.3-0.2,0.6-0.3,0.9s-0.1,0.6-0.1,0.9s0,0.6,0.1,0.8c0.1,0.3,0.2,0.5,0.3,0.8c0.3,0.4,0.6,0.7,1,0.9c0.4,0.2,0.8,0.3,1.3,0.4
		s1,0.1,1.5,0s1-0.2,1.5-0.3c3-0.8,6-1.8,8.8-3.2s5.5-3,8.1-4.8s5-3.9,7.4-6.1c2.3-2.2,4.5-4.6,6.6-7.1c2-2.4,3.9-5,5.6-7.6
		c1.8-2.6,3.4-5.3,5-8s3.1-5.5,4.6-8.3s3-5.6,4.4-8.4"/>
	
		<path id="path43_1_" fill="none" stroke="#000000" stroke-width="10" stroke-linecap="round" stroke-linejoin="round" stroke-miterlimit="10" d="
		M693.8,416.5c1.5,5,4,9.2,7.3,13c3.2,3.8,7.2,7.1,11.3,10.3c4.2,3.2,8.6,6.3,12.8,9.5s8.2,6.7,11.6,10.6c1.6,1.9,3.1,4,4.5,6.2
		c1.4,2.1,2.7,4.4,4,6.6s2.5,4.5,3.8,6.7s2.7,4.5,4.1,6.6c0.8,1.2,1.6,2.4,2.5,3.5c0.9,1.2,1.7,2.3,2.6,3.4c0.9,1.1,1.9,2.2,2.8,3.3
		c1,1.1,2,2.1,3,3.1c0.5,0.5,1,0.8,1.5,1c0.6,0.2,1.2,0.3,1.7,0.3c0.6,0,1.2-0.2,1.7-0.4c0.5-0.2,1-0.6,1.4-1
		c2.1-2.3,4.5-4.3,7.2-5.9s5.6-3,8.6-3.9s6.1-1.5,9.3-1.6c3.1-0.1,6.2,0.2,9.2,1c0.8,0.2,1.6,0.2,2.3,0s1.4-0.6,1.9-1.1
		s1-1.2,1.3-1.9c0.3-0.7,0.4-1.5,0.3-2.4c-0.2-1.5-0.5-3-0.8-4.5s-0.7-3-1.1-4.5c-0.4-1.5-0.9-2.9-1.4-4.3s-1-2.7-1.5-4"/>
	
		<path id="path45_1_" fill="none" stroke="#000000" stroke-width="10" stroke-linecap="round" stroke-linejoin="round" stroke-miterlimit="10" d="
		M772.1,500.1c1.3,1.4,2.7,2.7,4.3,3.7s3.4,1.7,5.2,2.2s3.7,0.7,5.6,0.6c1.9-0.1,3.8-0.4,5.6-1.1s3.5-1.5,4.9-2.4
		c1.5-1,2.8-2.1,3.9-3.4s2-2.7,2.6-4.3c0.6-1.6,1-3.3,1.1-5.2"/>
	
		<path id="path47_1_" fill="none" stroke="#000000" stroke-width="10" stroke-linecap="round" stroke-linejoin="round" stroke-miterlimit="10" d="
		M801,457.3c-2.6,0.6-5.2,0.9-7.8,1s-5.2,0-7.8-0.1s-5.2-0.2-7.8-0.1s-5.2,0.4-7.8,1c-0.3,0.7-0.5,1.4-0.5,2.1s0.1,1.3,0.3,1.9
		s0.6,1.2,1.1,1.7s1,0.9,1.7,1.3c1.8,1,3.5,2.1,5.1,3.1s3.1,2.1,4.7,3.1s3.1,2.1,4.7,3.1c1.6,1,3.3,2.1,5.1,3.2
		c1.8-0.6,3.5-1.7,5.1-3s3.1-2.8,4.4-4.5c1.3-1.7,2.3-3.6,2.9-5.5c0.6-1.9,0.9-3.8,0.7-5.7s-0.6-3.7-1.1-5.5s-1.1-3.5-1.8-5.3
		c-0.7-1.7-1.4-3.4-2.2-5.2s-1.5-3.4-2.1-5.2c-1.9-5-3.3-10.1-4.2-15.4c-0.9-5.2-1.3-10.6-1.3-15.9s0.6-10.6,1.7-15.8
		c1.1-5.2,2.7-10.3,4.8-15.2c0.5-1.3,1.1-2.6,1.7-3.9c0.6-1.3,1.2-2.6,1.7-3.9s1.1-2.6,1.5-4s0.8-2.7,1-4.2c0.3-1.4,0.4-2.9,0.4-4.3
		s-0.2-2.9-0.5-4.3s-0.8-2.7-1.5-3.9c-0.7-1.2-1.5-2.3-2.6-3.2c-0.2-0.2-0.4-0.4-0.6-0.6c-0.2-0.2-0.4-0.4-0.6-0.5
		c-0.2-0.2-0.4-0.4-0.6-0.5c-0.2-0.2-0.4-0.4-0.5-0.6c-0.7-1-0.9-1.9-0.8-2.9c0.1-1,0.6-2,1.3-3s1.6-1.9,2.6-2.6
		c1-0.8,2.1-1.5,3.1-2.1c2.8-1.5,5.5-3,8.3-4.5s5.5-3,8.3-4.5s5.5-3,8.3-4.5s5.5-3,8.3-4.6c5.2-2.8,10.1-5.8,14.8-9.1
		c4.7-3.2,9.3-6.7,13.6-10.3c4.4-3.7,8.6-7.5,12.6-11.6s8-8.3,11.9-12.8s7.5-9.2,10.8-14.1c3.3-4.9,6.3-10.1,8.8-15.4
		c2.6-5.3,4.7-10.8,6.4-16.4c1.7-5.6,2.9-11.3,3.6-17.2c0.5-4.5,0.8-9.1,0.7-13.6s-0.5-9.1-1.1-13.6s-1.5-9-2.6-13.4
		s-2.4-8.8-3.8-13c-0.9-2.6-1.8-5.2-2.8-7.8s-1.9-5.2-2.8-7.9c-0.9-2.6-1.8-5.3-2.5-8c-0.8-2.7-1.4-5.3-1.9-8s-0.8-5.5-1-8.3
		s0-5.6,0.3-8.4s0.9-5.5,1.8-8.1c0.9-2.6,2.1-5.1,3.6-7.4c-2.5-0.5-4.9-0.3-7.2,0.3c-2.3,0.7-4.5,1.8-6.5,3.4
		c-2,1.5-3.8,3.4-5.4,5.5s-3,4.4-4,6.7c-3.8,7.9-5.7,16.3-6.6,24.9c-0.9,8.6-0.7,17.5-0.4,26.5c0.3,8.9,0.8,18,0.4,26.8
		s-1.4,17.6-4.1,26c-2.5,7.7-6.2,14.7-10.8,21.2c-4.6,6.4-10.1,12.3-16.2,17.7c-6.1,5.4-12.7,10.4-19.5,15.2
		c-6.8,4.7-13.8,9.1-20.7,13.4c-3.6,2.2-7.2,4.6-10.7,7c-3.6,2.4-7.1,4.7-10.8,6.7s-7.4,3.7-11.2,4.9c-3.9,1.2-7.9,1.8-12.1,1.6
		c-0.8-0.1-1.7,0.1-2.7,0.4s-2,0.7-3,1.2s-2,1-3,1.4c-0.9,0.5-1.8,0.9-2.6,1.1c-1,0.4-2.4,0-3.8-0.8c-1.4-0.7-3-1.8-4.6-2.9
		s-3.1-2.1-4.5-2.7s-2.6-0.8-3.5-0.2c-2.5,1.7-5,3.1-7.4,4.1s-4.7,1.7-7.1,2c-2.4,0.3-4.8,0.2-7.2-0.3s-5.1-1.4-7.8-2.6
		c-3.3-1.5-6.7-3-10.1-4.4c-3.4-1.4-6.9-2.7-10.3-3.9c-3.5-1.2-7-2.3-10.6-3.4c-3.6-1-7.2-2-10.8-2.8c-4.5-1-9.2-2-13.9-3.1
		s-9.3-2.3-13.7-3.9s-8.6-3.5-12.3-5.9s-7.1-5.5-9.8-9.2s-4.5-7.9-5.6-12.2s-1.6-8.9-1.7-13.5c-0.1-4.6,0.2-9.4,0.5-14.2
		c0.4-4.8,0.9-9.5,1.2-14.1c0.8-10.8,0.6-21.7-0.6-32.4c-1.2-10.8-3.4-21.4-6.5-31.7c-3.1-10.4-7.2-20.4-12.1-30
		c-4.9-9.6-10.8-18.8-17.4-27.3c-1-1.3-2.2-2.6-3.4-3.8c-1.3-1.2-2.6-2.3-4.1-3.2c-1.4-0.9-3-1.5-4.5-1.7s-3.1-0.1-4.7,0.5
		c-0.2,0.9-0.2,1.9,0,2.8s0.5,1.9,0.9,2.8s0.9,1.8,1.5,2.7c0.5,0.9,1.1,1.8,1.7,2.6c3.6,5.5,6.7,11.3,9.2,17.2
		c2.5,6,4.5,12.2,6.1,18.5s2.7,12.8,3.4,19.3s1.1,13.1,1.2,19.6s-0.2,13-0.6,19.5c-0.4,6.5-1,13-1.7,19.5s-1.5,13-2.3,19.5
		s-1.6,13-2.3,19.5c-0.5,4.2-0.8,8.5-1,12.7c-0.2,4.3-0.1,8.6,0.2,12.8c0.4,4.2,1.1,8.3,2.4,12.3s3,7.7,5.4,11.2
		c1.3,1.9,2.8,3.6,4.3,5.2c1.6,1.6,3.3,3.2,5,4.6c1.8,1.5,3.6,2.8,5.5,4.2s3.8,2.6,5.7,3.9c5.6,3.8,11.2,7.5,17,11.1
		s11.6,7,17.6,10.1s12.1,5.9,18.4,8.1c6.3,2.3,12.7,4,19.3,5.1c0.9,0.1,1.8,0.3,2.7,0.4c0.9,0.2,1.8,0.3,2.7,0.5s1.8,0.5,2.6,0.8
		s1.6,0.7,2.4,1.2s1.5,1.1,2.1,1.9c0.6,0.7,1.1,1.5,1.5,2.4s0.6,1.7,0.6,2.6s-0.1,1.7-0.5,2.5"/>
	
		<path id="path49_1_" fill="none" stroke="#000000" stroke-width="8" stroke-linecap="round" stroke-linejoin="round" stroke-miterlimit="10" d="
		M681.3,337.8c3.5-1.9,6.7-4.3,9.3-7.3c2.7-2.9,4.9-6.3,6.5-9.9c1.7-3.6,2.8-7.5,3.2-11.4c0.5-3.9,0.3-7.9-0.6-11.8"/>
	
		<path id="path51_1_" fill="none" stroke="#000000" stroke-width="8" stroke-linecap="round" stroke-linejoin="round" stroke-miterlimit="10" d="
		M779.1,296.5c2.3,0.5,4.7,1.8,7.2,3.6c2.5,1.8,4.9,4.2,7.1,6.9c2.2,2.7,4.1,5.8,5.5,9.1c1.4,3.3,2.2,6.7,2.3,10.1"/>
	
		<path id="path53_1_" fill="none" stroke="#000000" stroke-width="8" stroke-linecap="round" stroke-linejoin="round" stroke-miterlimit="10" d="
		M793.2,413.5c2.3,3.6,4.7,7.1,7.3,10.3c2.6,3.2,5.4,6.3,8.4,9s6.2,5.3,9.6,7.6s7.1,4.3,11,6c1-5,1.3-10.1,1-15.2
		s-1.1-10.2-2.5-15.1s-3.3-9.7-5.8-14.1c-2.4-4.5-5.4-8.6-8.8-12.4c-1.3-1.4-2.6-2.7-3.9-4c-1.3-1.3-2.6-2.7-3.7-4.1
		c-1.2-1.4-2.2-2.9-3.1-4.4c-0.9-1.6-1.6-3.2-2-5"/>
	
		<path id="path55_1_" fill="none" stroke="#000000" stroke-width="6" stroke-linecap="round" stroke-linejoin="round" stroke-miterlimit="10" d="
		M701.4,370.4c2.3-1.6,4.8-2.8,7.6-3.3c2.7-0.6,5.6-0.6,8.4-0.2c2.8,0.4,5.5,1.3,7.9,2.7s4.6,3.2,6.2,5.4"/>
	
		<path id="path57_1_" fill="none" stroke="#000000" stroke-width="6" stroke-linecap="round" stroke-linejoin="round" stroke-miterlimit="10" d="
		M706.4,369.7c0.3,1,0.8,1.8,1.4,2.6c0.6,0.8,1.3,1.5,2.2,2.1c0.8,0.6,1.7,1.1,2.7,1.4s2,0.5,3,0.5s2-0.2,3-0.5s1.9-0.8,2.7-1.4
		s1.6-1.3,2.2-2.1c0.6-0.8,1.1-1.7,1.4-2.6"/>
	
		<path id="path59_1_" fill="none" stroke="#000000" stroke-width="6" stroke-linecap="round" stroke-linejoin="round" stroke-miterlimit="10" d="
		M802.8,366.7c-2-0.3-4-0.3-5.9-0.1s-4,0.7-5.8,1.4c-1.9,0.7-3.7,1.6-5.3,2.8c-1.6,1.2-3.1,2.6-4.3,4.2"/>
	
		<path id="path61_1_" fill="none" stroke="#000000" stroke-width="6" stroke-linecap="round" stroke-linejoin="round" stroke-miterlimit="10" d="
		M797.4,376.4c-1,0-2-0.2-3-0.5s-1.9-0.8-2.7-1.4s-1.6-1.3-2.2-2.1c-0.6-0.8-1.1-1.7-1.4-2.6"/>
	
		<path id="path63_1_" fill="none" stroke="#000000" stroke-width="10" stroke-linecap="round" stroke-linejoin="round" stroke-miterlimit="10" d="
		M672.5,343.8c-14.6,2-29.2,3.9-43.8,5.9s-29.2,3.9-43.8,5.9s-29.2,3.9-43.8,5.9s-29.2,3.9-43.8,5.9c-6.2,0.9-12.4,1.7-18.5,2.4
		c-6.2,0.7-12.4,1.4-18.5,1.9c-6.2,0.5-12.4,0.8-18.6,0.9s-12.4-0.1-18.6-0.6c-17.1-1.4-33.9-5.3-50.4-10.3s-32.9-11.1-49.2-16.9
		c-16.4-5.8-32.7-11.4-49.3-15.2c-16.6-3.9-33.3-6-50.5-5.1c-12.9,0.7-25.5,3.2-37.6,7.1s-23.8,9.3-35,15.9
		c-11.1,6.5-21.7,14.2-31.5,22.8s-18.9,17.9-27.2,27.8c-1.1,1.3-2.1,2.5-3.1,3.8s-2,2.6-2.9,3.9s-1.7,2.7-2.5,4.1s-1.4,2.9-2,4.4
		c-1,2.5-1.7,5.1-2.1,7.7c-0.5,2.6-0.7,5.3-0.7,7.9c-0.1,2.7,0,5.4,0.2,8.1s0.4,5.4,0.7,8c0.5,5.1,0.9,10.2,1.3,15.3
		c0.5,5.1,0.9,10.2,1.4,15.3c0.4,5.1,0.9,10.2,1.3,15.3c0.4,5.1,0.9,10.2,1.3,15.3c0.3,3.4,0.6,6.8,0.9,10.1
		c0.3,3.4,0.7,6.8,1.2,10.1c0.5,3.4,1,6.7,1.6,10s1.4,6.6,2.3,9.9c1.1,4,2.6,8.1,4.2,12.3c1.7,4.2,3.6,8.5,5.6,12.7
		s4.2,8.4,6.3,12.5c2.1,4.1,4.2,8,6.2,11.7"/>
	
		<path id="path65_1_" fill="none" stroke="#000000" stroke-width="10" stroke-linecap="round" stroke-linejoin="round" stroke-miterlimit="10" d="
		M126.1,614.9c1.8,4.9,3.6,10.3,5.3,16s3.3,11.7,4.6,17.8c1.3,6,2.3,12.1,2.8,18s0.6,11.5,0,16.7c-0.3,2.8-0.8,5.5-1.3,8.2
		s-1.1,5.4-1.7,8.2c-0.6,2.7-1.1,5.5-1.4,8.2c-0.4,2.8-0.6,5.5-0.6,8.3c0,0.7,0,1.4,0.1,2.1c0,0.7,0.1,1.4,0.2,2.1s0.2,1.4,0.3,2
		c0.1,0.7,0.2,1.3,0.3,2"/>
	
		<path id="path67_1_" fill="none" stroke="#000000" stroke-width="10" stroke-linecap="round" stroke-linejoin="round" stroke-miterlimit="10" d="
		M603.8,862.7c2.5,0.2,5.1,0.3,7.7,0.2c2.6,0,5.1-0.2,7.6-0.5s5.1-0.7,7.6-1.2s5-1.1,7.4-1.8"/>
	
		<path id="path69_1_" fill="none" stroke="#000000" stroke-width="10" stroke-linecap="round" stroke-linejoin="round" stroke-miterlimit="10" d="
		M145.8,878c5.7-0.5,10.9-1.3,15.7-2.6c4.8-1.2,9.2-2.9,13.3-5s8-4.7,11.8-7.8s7.5-6.8,11.2-11.2"/>
</g>
<g id="vs-reveal" opacity="0">
	
		<path id="path72" fill="none" stroke="#0033FF" stroke-width="60" stroke-linecap="round" stroke-linejoin="round" stroke-miterlimit="10" d="
		M102.1,743.4c1.1-13.2,2.2-26.5,3.3-39.7s2.2-26.5,3.3-39.7c1.1-13.2,2.2-26.5,3.3-39.7s2.2-26.5,3.3-39.7
		c-2.6-4.8-5.7-11.1-8.8-18.5c-3.1-7.5-6.1-16.1-8.6-25.8s-4.3-20.3-5-31.7c-0.7-11.4-0.2-23.5,2-36.1c3.3-18.7,9.9-35.9,18.2-51
		c8.3-15.2,18.1-28.3,27.9-38.9c9.8-10.6,19.5-18.7,27.4-23.6c7.9-5,14-6.8,16.6-5.1c2.4,1.6,1.2,6-2.1,13.2
		c-3.4,7.2-8.8,17.1-15,29.8c-6.1,12.7-12.9,28.1-18.8,46.2s-10.9,38.9-13.6,62.5c-2,18.1-2,31.5-0.7,43.4
		c1.2,11.9,3.7,22.2,6.4,33.9s5.6,24.9,7.9,42.5c2.3,17.6,3.9,39.7,4,69.3c0,11.1,0.4,22.2,1,33.3s1.3,22.2,1.9,33.3
		c0.6,11.1,1.1,22.2,1.3,33.2c0.2,11.1,0,22.1-0.8,33.2c-0.5,7.1-1.1,14-1.5,20.6s-0.5,12.8-0.1,18.6s1.3,11.2,3.1,16.1
		c1.8,4.9,4.5,9.2,8.3,12.9c4.1,3.9,8.9,6.6,14.1,8.3c5.2,1.7,10.8,2.6,16.4,2.8c5.6,0.2,11.1-0.2,16.2-0.9
		c5.1-0.7,9.8-1.6,13.7-2.5c-4.2-4.3-8.7-9.2-13.2-14.7s-9.1-11.7-13.4-18.4c-4.4-6.8-8.5-14.2-12.2-22.2s-6.9-16.7-9.5-26
		c-2.1-7.8-3.4-14.5-4-21.2s-0.6-13.5-0.2-21.5c0.4-8,1.1-17.2,1.9-28.7s1.6-25.4,2.3-42.8c0.6-16.3,0.7-28.4,0.6-38.5
		c-0.1-10.1-0.4-18.2-0.7-26.5s-0.6-16.9-0.7-27.8c-0.1-11,0.1-24.3,0.7-42.3c0.5-12.8,0.9-24,1.3-34.1s0.9-19.2,1.5-27.6
		c0.6-8.5,1.3-16.4,2.3-24.2c1-7.8,2.2-15.6,3.7-23.9c2.3-12.3,4.9-24.2,8-35.6c3-11.5,6.4-22.5,10.1-33.1s7.6-20.8,11.7-30.5
		s8.4-19.1,12.9-27.9c0,8.6-0.1,18.3-0.3,29c-0.1,10.7-0.4,22.5-0.7,35.1c-0.3,12.7-0.7,26.2-1.3,40.6c-0.5,14.4-1.2,29.6-2,45.6
		c-1.6,31.5-3.5,59.1-5.2,82.8s-3.4,43.4-4.5,59.2s-1.8,27.8-1.6,35.9c0.2,8.1,1.3,12.4,3.5,12.9c2.3,0.5,5.8-2.8,10-9.1
		s9-15.7,13.9-27.3s9.9-25.4,14.3-40.6c4.5-15.2,8.4-31.8,11.3-49c5-30.1,6-57.9,5-82.8c-0.9-24.9-3.8-46.9-6.5-65.6
		c-2.6-18.7-5.1-34-5.2-45.5s2.1-19.2,8.8-22.5c3.7-1.9,8.3-2.2,13.2-1.3c4.9,0.8,10,2.8,14.8,5.5s9.2,6.2,12.6,10s5.8,8,6.6,12.2
		c0.5,2.6,0.3,4.8-0.4,7.1c-0.7,2.2-1.8,4.5-3.1,6.9s-2.8,5.2-4.4,8.4c-1.5,3.3-3,7-4.3,11.6c-1.2,4.4-1.9,8.6-2.3,12.6
		s-0.4,7.7-0.2,11.3c0.2,3.6,0.6,6.9,1,10.1c0.5,3.2,1,6.1,1.4,8.9c2,12.3,4.4,27.2,6.3,43.4c1.9,16.2,3.5,33.8,3.7,51.5
		c0.2,17.7-0.9,35.6-4.1,52.4s-8.6,32.6-16.9,46.2c-1.1,1.8-2.5,3.9-3.8,6.1c-1.3,2.2-2.6,4.6-3.7,7.1s-1.8,5-2.1,7.6
		c-0.3,2.6-0.1,5.2,0.8,7.8c1.2,3.3,3.6,6.4,6.7,9c3.1,2.7,7,4.9,11.3,6.5s8.8,2.6,13.3,2.9s8.8-0.4,12.7-1.9
		c8-3.2,14.1-10.8,18.7-21.2s7.5-23.6,9.3-37.9s2.3-30,1.9-45.2s-1.6-30-3.5-42.9c-1.1-8.1-2.6-15.8-4-23.5s-3-15.7-4.3-24.1
		s-2.4-17.3-3.2-27.2c-0.7-9.9-1-20.7-0.6-32.9c0.3-9.9,0.9-17.9,1.8-24.4s2.1-11.5,3.5-15.4s3-6.7,4.7-8.7s3.5-3.3,5.4-4.2
		c3.5-1.7,7.7-2.2,12-1.9c4.3,0.4,8.8,1.6,13,3.6s8.1,4.6,11.2,7.7s5.5,6.6,6.7,10.4c1,3.3,1,6.2,0.2,9.1c-0.7,2.9-2.1,5.9-3.7,9.2
		c-1.6,3.3-3.5,6.9-5.3,11.3s-3.4,9.4-4.4,15.5c-0.7,4.3-1.1,8.3-1.1,12.1c0,3.8,0.2,7.4,0.7,10.8c0.4,3.4,1,6.7,1.7,9.8
		s1.4,6.1,2,9.1c1.2,5.3,3.1,13.9,5.1,24.9s4.1,24.2,5.5,38.8s2.2,30.3,1.5,46.2c-0.6,15.9-2.6,32-6.6,47.3
		c-2.9,11-6.7,20.5-10.6,28.8c-3.9,8.2-7.9,15.1-11.4,20.8s-6.4,10.2-8.1,13.6c-1.7,3.4-2.2,5.8-0.7,7.2c1.2,1.2,3.5,1.4,7.3,0.3
		s9.2-3.7,16.6-8.3c7.4-4.5,16.8-11,28.8-19.9s26.5-20.3,44-34.7c-1.8-3.6-3.7-7.6-5.6-11.9s-3.8-9-5.7-13.9s-3.8-10.2-5.6-15.8
		c-1.8-5.6-3.5-11.5-5.1-17.6c-6.3-24.5-9.3-48.9-10.1-71.7c-0.8-22.8,0.6-43.9,3.2-62s6.2-33.1,9.9-43.5
		c3.7-10.4,7.5-16.3,10.1-16.2c1.1,0.1,1.9,1,2.7,4.1c0.8,3,1.7,8.1,2.7,16.3s2.4,19.6,4.1,35.2c1.8,15.6,4,35.6,6.9,60.9
		c2,17.3,3.9,33.8,5.8,49.3c1.9,15.6,3.6,30.3,5.3,43.9c1.7,13.7,3.3,26.4,4.7,38c1.5,11.6,2.8,22.1,4,31.4
		c3.2-8.2,6.6-17.6,9.9-28.2s6.5-22.3,9.4-35.1s5.3-26.6,7.2-41.3c1.8-14.8,3-30.5,3.3-47c0.3-15.8-0.4-30.9-1.6-45
		c-1.2-14.2-3.1-27.5-5.3-39.9s-4.9-23.8-7.6-34.1c-2.7-10.4-5.6-19.7-8.4-27.8c2.7-0.8,6.5-2,11-3s9.7-1.9,14.9-2.2
		c5.3-0.3,10.7-0.1,15.7,1.1s9.6,3.4,13.2,7.1c2.4,2.4,4.2,5.2,5.4,8.2s1.9,6.1,2.3,9.2c0.4,3.1,0.5,6.2,0.4,9s-0.3,5.4-0.4,7.6
		c-1.2,16-1.1,27.3-0.4,36.4c0.7,9.1,1.9,16,3.2,23.1c1.2,7.1,2.4,14.5,2.9,24.7c0.5,10.1,0.3,23-1.2,41.1
		c-1.7,19.7-4.3,38.6-7.6,56.7c-3.3,18-7.2,35.1-11.4,50.8s-8.6,30.3-12.9,43.2c-4.3,13-8.5,24.3-12.1,33.9c-2,39-3.2,70.3-3.8,95.4
		s-0.6,44-0.1,58s1.4,23.2,2.6,29c1.2,5.7,2.6,8,4.2,8.2c3.3,0.4,7.7-8.9,12.7-24.8c5-15.9,10.6-38.5,16.4-64.7s11.6-56.1,17.1-86.6
		s10.6-61.6,14.8-90.4c4.3-29.3,7.9-57.5,10.9-84.2s5.4-52.1,7.4-75.8s3.4-46,4.5-66.4c1.1-20.5,1.9-39.2,2.4-56
		c1.6,74.7,2.7,137.9,3.4,191.3s0.9,96.9,0.8,132s-0.6,62-1.3,82.2s-1.7,33.5-2.9,41.7c-0.1,0.9-0.3,2.2-0.5,4s-0.4,4-0.5,6.6
		s-0.1,5.5,0,8.7s0.5,6.7,1,10.4c1.3,8.8,3.8,16.9,7.1,24.5s7.3,14.6,11.9,21.1c4.5,6.5,9.5,12.4,14.7,17.7
		c5.1,5.3,10.4,10.1,15.5,14.4l-4.6-58.5l-4.6-58.5l-4.6-58.5l-4.6-58.5c-0.5-26.5-1-51.9-1.6-76s-1.1-47-1.7-68.5
		c-0.6-21.5-1.2-41.7-1.7-60.5s-1.1-36.2-1.6-52.1c-0.1-4.1-0.3-8.8-0.6-14c-0.3-5.3-0.8-11.1-1.7-17.4s-2-13.1-3.5-20.4
		c-1.6-7.2-3.6-14.9-6.3-22.9c-3.3-10-6.9-18.6-10.6-26.2c-3.7-7.6-7.6-14.2-11.5-20.4s-7.9-11.9-11.9-17.7
		c-3.9-5.8-7.8-11.7-11.6-18.2c-10.9-19-18.4-39.4-23.3-59.5s-7.2-39.9-7.6-57.3s1-32.7,3.5-43.9C550.4,92,554,85,558,84
		c2.8-0.7,6.7,1.4,11,5.6s9,10.5,13.3,18.2s8.3,16.8,11.1,26.6s4.5,20.2,4.4,30.6c-0.1,4.4-0.4,8.2-1,11.9s-1.3,7.3-2.1,11.2
		s-1.6,8.4-2.2,13.6s-1.2,11.5-1.5,19.1c-0.2,5-0.3,9.7-0.4,14.3c-0.1,4.6-0.1,8.9,0.1,13.1c0.2,4.1,0.5,8.1,1.1,11.8
		s1.5,7.2,2.7,10.5c3.9,10.7,11.6,19.3,21,26.1c9.4,6.8,20.6,11.8,31.6,15.5s21.9,6.1,30.6,7.7s15.4,2.2,18,2.4
		c-3.3,4.2-6.6,8.4-9.9,12.6c-3.3,4.2-6.6,8.4-9.9,12.6s-6.6,8.4-9.9,12.6c-3.3,4.2-6.6,8.4-9.9,12.6c-0.5,13.9-0.8,28-1,42.4
		c-0.2,14.3-0.3,28.9-0.2,43.6c0.1,14.8,0.3,29.7,0.7,44.9c0.4,15.2,0.9,30.5,1.6,46.1c0.4,8.5,0.8,17,1.3,25.3
		c0.5,8.4,1,16.7,1.5,24.9c0.6,8.2,1.1,16.4,1.8,24.5s1.3,16.1,2,24.1c2.7-11.4,5.3-22.7,8-34.1c2.7-11.4,5.3-22.7,8-34.1
		s5.3-22.7,8-34.1c2.7-11.4,5.3-22.7,8-34.1c2.4-16.8,4.7-33.6,7.1-50.4s4.7-33.6,7.1-50.4c2.4-16.8,4.7-33.6,7.1-50.4
		c2.4-16.8,4.7-33.6,7.1-50.4c2.5,15.5,5,31,7.6,46.5s5,31,7.6,46.5c2.5,15.5,5,31,7.6,46.5c2.5,15.5,5,31,7.6,46.5
		c2.1-32.9,4.2-61.7,6.2-86.4c2-24.7,3.9-45.2,5.8-61.7c1.9-16.4,3.6-28.8,5.4-37c1.7-8.2,3.4-12.3,4.9-12.3c1.6,0,3.2,4.4,4.6,13
		c1.5,8.7,2.9,21.7,4.2,39s2.6,38.9,3.7,64.9c1.2,26,2.3,56.2,3.3,90.8c2.4-6.5,4.9-13.5,7.2-20.9c2.4-7.4,4.7-15.2,6.9-23.3
		c2.2-8.2,4.3-16.8,6.2-25.7c1.9-9,3.6-18.3,5.1-28c1.8-11.8,3.1-23.1,4-34.1s1.4-21.5,1.6-31.5c0.2-10,0.1-19.6-0.3-28.6
		c-0.4-9-0.9-17.5-1.6-25.4c6.5-1.9,12.3-4.2,17.4-6.7c5.1-2.5,9.6-5.2,13.5-7.9c3.8-2.7,7.1-5.3,9.7-7.8c2.7-2.4,4.7-4.6,6.3-6.3
		c5.6-6.2,9.9-12.7,13.3-19.2c3.4-6.5,5.9-13.1,7.7-19.3s3-12.1,3.8-17.3s1.2-9.8,1.5-13.4c0.5-5.4,0.6-9.7,0.5-13.5
		s-0.5-7-0.8-10.3c-0.3-3.2-0.7-6.4-0.9-10.2c-0.2-3.7-0.2-8,0.1-13.3c0.5-6.8,1.4-13.3,2.6-19.4s2.8-11.8,4.6-17s3.7-10.1,5.6-14.5
		s4-8.3,5.8-11.8"/>
</g>
</svg>
