<?xml version="1.0" encoding="utf-8"?>
<!-- Generator: Adobe Illustrator 22.1.0, SVG Export Plug-In . SVG Version: 6.00 Build 0)  -->
<svg version="1.1" id="Layer_1" xmlns="http://www.w3.org/2000/svg" xmlns:xlink="http://www.w3.org/1999/xlink" x="0px" y="0px"
	 width="1000px" height="1000px" viewBox="0 0 1000 1000" enable-background="new 0 0 1000 1000" xml:space="preserve">
<g id="vs-skin">
	<g>
		<path fill="#ECB1B1" d="M295.6,438.1c-1.9-1.6-4.4-2.4-7.4-2.4c-4.4,0-7.1,1.7-8.5,3.2c-1.9,1.9-2.9,4.5-2.9,7.4
			c0,5.5,3.9,11.5,9.6,11.5c6.8,0,12.3-7.1,12.3-12.9C298.7,442.2,297.6,439.8,295.6,438.1z"/>
		<path fill="#ECB1B1" d="M253.2,435.7c-3.1,0-5.7,1.9-7.1,5c-1,2.2-1.2,4.5-1.2,6.1c0,6.5,3.4,11.1,8.3,11.1s8.3-4.5,8.3-11.1
			S258.1,435.7,253.2,435.7z"/>
		<path fill="#ECB1B1" d="M226.5,606c6.7,0,8.3-8.8,9-12.6c0.9-5.1,1.5-11.6,1.5-17.9c0-3.3-0.2-8-0.9-11.8c-0.8-4-2.8-8.9-7.7-8.9
			c-6.7,0-8.4,8.9-9.1,12.7c-1,5.1-1.5,11.8-1.5,18c0,3.3,0.2,7.9,0.9,11.7C220.1,604.5,223.7,606,226.5,606z"/>
		<path fill="#ECB1B1" d="M174.7,547.8c-7.9-2.6-11.8,9.2-13.5,14.2c-1.9,5.7-3.4,12.3-4,17.6c-0.4,3.5-1.5,13,5,15.1
			c0.6,0.2,1.3,0.4,2.1,0.4c2.1,0,4.9-1,7.5-5.3c1.4-2.2,2.7-5.3,4-9.1c1.9-5.7,3.4-12.3,4-17.7
			C180.1,559.4,181.1,549.9,174.7,547.8z"/>
		<path fill="#ECB1B1" d="M938.5,317.9c-0.7-10.8-7.5-21.3-19.1-29.6c-9.3-6.6-20.1-7-24.6-0.8c-6.2,8.4,4.8,17.2,7,18.9
			c9.1,6.8,6.5,12.6,5.7,14.4c-3.6,8.1-16,15.3-26.1,16.2c1.9-5.9,3.1-12.6,3.5-20.1c0.9-21.7-2.8-37.1-11.2-47.3
			c-6.6-8-16-12.4-28.8-13.7c-13.7-1.4-26.6,2.9-34.5,11.4c-3.6,3.8-5.9,8.2-7.4,12.7c-16.9-34.8-37.2-62.2-61.7-83.2
			c-32.2-27.7-72.1-45.2-121.9-53.3c-107.6-17.6-191.3,14-233.8,49.4c-19.1,15.9-37.1,41.9-53.5,77.4
			c-12.1,26.2-18.6,47.4-18.9,48.3c-0.1,0.2-0.1,0.5-0.2,0.7c-11.6,3.1-22.8,7.4-33.1,12.6c-0.4-0.6-0.7-1.2-1.1-1.8
			c-11-17.5-36.7-58.5-64.6-56.7c-17.8,1.2-20.9,9.8-24.2,19c-2.8,7.8-6.3,17.4-21.1,28.1c-13.8,10-23.5,16.1-30,20.2
			c-10.4,6.6-14.7,9.4-14.7,15.6c0,5.8,7.6,10.4,12.2,12.5c4.3,2.1,13.9,5.8,27,5.8c14.5,0,33.4-4.6,54.2-21.1
			c0.7,2.7,1.4,6.1,1.9,8.7c1.7,8.5,3.1,15.4,5.8,19.2c-0.3,0.6-0.6,1.1-0.9,1.7c-22.6,43.4-21.4,83.2-21,90.4
			c-1.8,5.7-12.5,37-34,49.3c-0.2,0.1-0.5,0.3-0.7,0.5c-12.4,2.6-22.8,7.8-31,15.6c-13.8,13.2-20.5,33.6-18.7,57.3
			c1.4,19.6,13.4,32,32,33c3.6,0.2,7.4-0.1,11.2-0.9c0,0,0.1,0,0.1,0.1c0.7,0.4,9,4.7,20.4,8.9c0.6,1.7,1.8,3.1,3.3,4.1
			c2.4,2.2,10.1,12.3,15.7,19.8c7.6,10,15.4,20.4,20.1,25.1c6.5,6.5,23,15.6,45,21c11.1,2.7,26.1,5.2,44.3,5.2
			c13.5,0,28.8-1.3,45.6-4.9c3.8,5,9.4,16.9,15.2,40.8c5.6,23.1,9.4,49.4,9.4,59.4v11.1c0,2.1,1.4,4,3.5,4.5l7.4,1.8
			c0.1,0,0.2,0,0.3,0.1c0.3,1.7,1.5,3.1,3.2,3.6c4.2,1.2,8.4,1.7,12.6,1.7c16,0,30.6-7.2,31.3-7.6c1.8-0.9,2.8-2.9,2.5-4.9
			l-1.7-10.4c1.1-8.5,2.6-17.6,4.3-25.7c0.6,24.1,0.1,44-0.5,47c-1.8,9-3.6,16.3-3.6,16.4c-0.3,1.2-0.1,2.5,0.6,3.6s1.8,1.8,3,2.1
			l9.2,1.8c0.3,0.1,0.6,0.1,0.9,0.1s0.7-0.1,1-0.1c0.1,0.7,0.4,1.4,0.9,2c0.8,1.1,2.1,1.7,3.4,1.8c2.9,0.1,5.7,0.2,8.4,0.2
			c32.2,0,47.2-9.8,47.9-10.2c1.2-0.8,2-2.2,2.1-3.7c0-0.3,1-34.3,5.3-68c1.4-11.1,3-20.3,4.5-28l0,0c0.1,0,0.3,0,0.4,0h0.2
			c4.6-0.4,8.9-0.8,13.2-1.2c-1.1,6.1-4.1,15.6-6.6,23.6c-3.6,11.5-5.8,18.8-5.8,22.8c0,3.7,1.7,5.9,3.1,7.1
			c2.1,1.7,4.6,2.3,7.4,2.3c2.6,0,5.5-0.5,8.3-1l-0.3,1.8c-0.3,1.5,0.1,3.1,1.1,4.3s2.4,2,4,2.1c1.9,0.1,3.7,0.2,5.5,0.2
			c24.5,0,40.1-11.9,40.7-12.4c1.2-0.9,1.9-2.3,2.1-3.8c1.5-14.3,4.2-36,6.5-49.1c1.5,24.8,2.8,56.6,3.7,86.5c0.1,2,1.1,3.7,2.8,4.7
			c0.5,0.3,4.7,2.5,14.6,4.6c0.7,2.4,2.7,4.3,5.3,4.7c3,0.4,6,0.7,9.3,0.7c10.4,0,22.1-2.3,34.8-6.9c6.4-2.3,9.3-10.5,22.5-62.6
			c9.1-35.7,21.5-84.7,32-98.1c1-1.2,97.8-126,106.4-193.1c4.5-34.6,5.5-66.9-1.5-104c4.9-1.2,11.3-3.9,18-8.4
			c27.2-0.4,52.6-9.1,68.4-23.6C934.1,338.8,939.1,328.5,938.5,317.9z M839.9,285.3c0.6-0.1,1.2-0.1,1.7-0.1
			c5.6,0,9.9,4.5,11.9,12.6c3.6,14.5,1.9,26.6-5.1,35c-0.8,1-1.6,1.8-2.5,2.7c-0.5-0.2-1.1-0.3-1.7-0.3c-0.7,0-16.8-1.1-18.6-28
			C824.9,295,832.3,286.5,839.9,285.3z"/>
	</g>
</g>
<g id="vs-shade" opacity="0.2">
	<path d="M689.4,776.8c-4,12.5-3.3,26-9,38c-6.4,13.8-19,21-34,21.1c-12.3,0.1-26.2-2.3-31.1-15.3c-2.3-6-1.8-12.8-2-19.1
		c-0.2-8.8-0.3-17.6-0.4-26.5c0-1.5,0.2-2.8,0.6-4c-6.5-0.2-13.2-0.3-19.9-0.3c0.2,1.7,0.2,3.4-0.2,5.1c-2,10.5,4.5,19.5-17.1,23.8
		c-6.2,1.2-12.2,3-18.3,1c-3.3-1.1-7.8-4.3-10.6-4.4c-11.1-0.4-17.8-2.8-10.8-21.6c0.1-0.7,0.3-1.4,0.6-2.1
		c-3.1,0.2-6.3,0.4-9.4,0.6c-4,0.3-8,0.6-11.9,1c0,1.4-0.2,2.8-0.4,4.2c-2.8,15.7-1.8,32.1-2.3,48c-0.5,16.3-14.2,24.2-29,22.1
		c9.5,1.4,2,1.6-2.3,2.8s-8.7,1.9-13.2,2c-16.4,0.3-24.1-14.8-22.1-29c1.8-12.9,3.6-25.7,3.8-38.8c0-1.2,0.1-2.2,0.3-3.3
		c-4.2,0.7-8.3,1.4-12.3,2.1c-0.3,1.4-0.8,2.8-1.3,4.2c0,0.2,0,0.3,0,0.5v0.1c0,1.2-0.1,2.5-0.1,3.8c0,5-0.6,9.6-1.2,14.7
		c-0.6,4.6-4.7,9.2-8.2,11.9c-4.1,3.2-8.7,4.7-13.9,4.9c-3.4,0.2-6.8-0.1-10.1,0.3c-9.7,1.2-19.8-8.1-22.1-16.8
		c-0.8-2.9-1.4-6.1-1.1-9.2c-121.4,39.7-73.6,105,188,90.7C892.8,871.7,853.3,798.3,689.4,776.8z"/>
	<g>
		<path d="M185.4,618.1c-3.5-2-7.3-1.6-11.1-0.9c-2.9,0.5-4.6,4.1-3.9,6.8c0.6,2.4,2.5,3.7,4.7,3.9c1.1,3.1,3.6,5.9,6.8,6.9
			c4.6,1.5,9-2,8.7-6.8C190.4,624.1,188.9,620.1,185.4,618.1z"/>
		<path d="M526,577.7c-0.1-3.2-5.5-108.8-11.9-59.4c-2.9,0.6-5.4,3.2-4.3,6.7c0.7,2.5,1.5,4.9,2.2,7.4c0.6,1.9,2,3.1,3.6,3.6
			c0.6,1.1,1.1,2.3,1.6,3.4c-3.3-0.8-7.3,0.9-6.9,5.1c0.4,4.8,1,9.5,1.8,14.1c-0.6,5.8-6.8,13.4-9.6,18.4c-1.3,2.4-2.7,4.8-4,7.2
			c-1.9-2,1.9-11.5-0.1-8.5c-12.9,18.4-30.7,37.2-44.1,49.8c-31.5,29.5-74,39.9-91.6,45c-18.4,5.3-50.6,10.3-62.9,7.1
			c-15.5-4-21.7-23.2-13.8-37.8c3.6-6.7,9.9-11.8,15.7-16.5c7.2-5.8,15-12.7,24.3-14.4c7-1.2,4-11.9-2.9-10.7
			c-3.6,0.6-7.1,1.9-10.4,3.6c0.1-0.4,0.2-0.8,0.2-1.1c3.7-1.5,7.5-3.2,11.4-4.9c6.5-2.9,0.9-12.4-5.6-9.6c-15.8,7.1-28.6,13.4-46,7
			c-5.8-2.1-8.8,5.7-5.1,9.4c-6.1,8.8-12.8,17-20.4,24.7c-1.3,1.3-1.7,2.8-1.6,4.3c-2.8,0.5-5.6,1.1-8.4,1.6
			c-5-0.4-10.4-0.7-14.6,0.9c-1.6,0.6-2.9,1.5-3.9,2.4c-3.5,0.5-6.9,0.9-10.5,1.1c-4.3,0.3-6.8,4.5-4.8,8.3
			c6,11.5,15.7,20.2,24.2,29.8c8.9,10.2,18.6,14.8,31.6,18.2c0.2,0,0.3,0,0.4,0.1c0.6,0.8,1.6,1.6,2.8,2c9.4,3.4,18.6,4,28.4,2.6
			c0.2,0,0.4-0.1,0.6-0.2c15.2,1.9,30.4,3.6,45.6,1.3c3-0.5,5.9-1.1,8.9-1.8c3-0.6,6-1.4,9-2.4c12.5,18.9,19.8,39.5,23.4,61.9
			c1.8,11.5,2.9,23,3.9,34.6c0.8,9.3,1.9,18.2,6.8,26.4c1,1.6,2.3,2.4,3.8,2.6c0.6,0.8,1.6,1.5,3,1.8c14,3.1,26.7,0.6,39.6-5.3
			c5-2.3,2.8-8.4-1.3-9.8c2.1-7.7,3.4-15.5,3.9-23.5c0-0.3,0-0.6,0-0.9c0.4-1.1,0.7-2.3,1.2-3.4c1.4-3.8,3.3-7.6,5.6-11
			c0.8-1.2,3.5-4.9,6.2-7.6c-0.5,3.5-1.9,7.2-3,10c-1.3,3.2,0.6,5.5,3.2,6.3c-0.4,2.1-3.2,48.4-4.1,62.9c-0.2,0.3-0.3,0.7-0.5,1
			c-1,2.2-0.9,5,0.9,6.7c0.6,1.5,1.5,3,2.7,4.2c2,2.1,5.8,2.2,7.8,0c1.1-1.2,1.6-2.8,1.5-4.3c5.7,4,6.1,4.2,9.4,5.9
			c3.7,1.8,42.4-4.2,42.4-12.9c0-18.4-32.9-9.2-33.2-12.9c-2.1-29.5-11-79.2-9.2-90.4c3-18.7,3.1-44.2,3.7-51.6
			C473.2,678.4,527,607.4,526,577.7z M278.2,628.7c-2.5-0.1-5-0.1-7.5,0c2.6-1.6,5.2-3.4,7.8-5.2c0.7-0.5,1.4-1,2.1-1.5
			c2.8-0.5,5.6-1.3,8.3-2.2c-3.2,2.9-6.2,5.9-8.8,9.2C279.6,628.9,279,628.7,278.2,628.7z"/>
		<path d="M597,734.7c-13.8-1.9-30.4,3.5-45.1,6.7c-6.4,1.4-6.5,11.6-8.3,17.6c-2.9,10-5.2,20.1-7.1,30.3c-0.7,4.1,2.5,7.9,6.8,6.8
			c4.1-1.9,7.5-0.6,10.1,3.8c0,3.3,3.6,6.7,7,5.3c9-3.6,18.2-6.1,27.8-7.7c2.5-0.4,3.9-3.1,4.1-5.3c1.2-15.5,3.4-30.9,6.6-46.1
			c0.1-0.7,0.1-1.4,0-2.2C602,741,602.1,735.4,597,734.7z"/>
		<path d="M593.1,674.8c-26.5,19.2-30.2-8.5-40.5-2.2c-3.3,2-17.9,38.1-11.4,37.9c-5.4,7.1-10.7,14.2-16.1,21.3
			c-3.1,4.1,1.9,8.1,6.2,8.1c22.4,0.1,45.1-7.9,68.2-7.5c3.3,0.1,5.2-2.6,5.5-5.5C607.1,710,610,662.6,593.1,674.8z"/>
		<path d="M817,349c-5-8.8-3,87-30,150c-55.7,130-143,104.6-131.9,154.4c15.2,68.3,15.9,138.9,12.9,156.7
			c-1.7,10.3-40.6-1.8-47.9-3.7c-10.9-2.7-2.5,14-1.8,20.3c0.7,7,38.7,22.1,61.1-0.9c3.5-3.6-0.5-9.9-0.2-14.8
			c2.3,0.1,4.5-1,5.2-3.9c5.2-22.4,9.9-44.9,15.6-67.2c4.5-17.6,15-34.1,16.9-52.2c0.1-0.1,0.2-0.2,0.3-0.4
			c9-16.5,19.1-32.5,30.3-47.6c8.7-11.8,23.2-23.9,24.4-39.5c1.3-0.2,2.5-1.1,3.3-2.8c1.8-3.9,3.5-7.9,5.3-11.8
			c1.6-2.1,3.1-4.1,4.8-6.1c7.4-9.1,29.8-46.7,31.9-49.5c3.7-5,16.4-35.7,17-42C834.4,484,830,372,817,349z"/>
		<path d="M470.8,413.6c29.4,5.6,9-5.1,5.4-9.2c-6.5-7.5-18.6-17.4-17.1-28.2c1.1-7.6,3.8-13.7,2-21.6c-1.5-6.5-6.5-14.6-13-18.6
			c2-3.6,2.1-3-3.2-1.7c-9.2,0-17.5-11.7-19.4-7.1c-4.2,10.3-5.9,21-7.1,32c-1.1,10.4-2.2,20.3,4,29.3
			C433.1,404.4,453.1,410.2,470.8,413.6z"/>
		<path d="M226,373.6c1.6,1,4,1.1,5.6,0c12.8-9.1,20-23.5,35.3-29.7c0.7-0.3,1.3-0.7,1.8-1.1c3.5,0.3,7.4-2.4,5.9-6.7
			c-1.4-4.2-3.3-7.5-6.2-10.9c-1.5-1.7,5.5,9.3,3.2,9.2c-31.3-1.8-42.1,9-42.4,18.4C228.9,360.2,217.5,368.5,226,373.6z"/>
		<path d="M209.2,350.3c5-3.9-0.8-10.5-6-8.8c-1.8-2.5-5.5-3.7-8.5-1c-13.2,12.2-36.1,21.7-53.2,11.8c-6.2-3.6-11.5,5.7-5.6,9.6
			c11.1,7.2,24.3,10.3,37.4,8C187.2,367.4,198.4,358.8,209.2,350.3z"/>
		<path d="M328.7,319.4c13.5-0.4,27.7-1.5,41.1,0.3c11.9,1.6,20,11,31.7,12.7c7,1,10-9.6,2.9-10.7c-6.7-1-11.5-5.1-17.4-8.1
			c-5-2.6-5.3-18.6-10.4-16.1c-14.8,7.4-33.9,10.5-48,10.9C321.6,308.5,321.6,319.6,328.7,319.4z"/>
		<path d="M271.6,575.9c2,3.9,12.8-30.2-11.1-55.3c-9.1-9.5-27.3-8.5-38.9-14.7c-1.5-0.8-2.8-1.7-4.1-2.8c-1.2-1.1-2.3-2.3-3.2-3.7
			c-3.1-4.9-4.2-12.1-1.8-23.1c1.5-7-8.6-3.6-10.3,3.3c-1.6,6.9-1.4,13.8,0.6,20.1c-0.1-0.1-0.1-0.1-0.2-0.2
			c-5.6-4.3-13.5,3.5-7.8,7.8c0.1,0.1,0.3,0.2,0.4,0.3c-5,1.5-9.5,5-12.7,10.4c-2.6,4.5,1.7,8.9,6.2,8.1c12.5-2,24.4,0.3,35.5,6.1
			C232.4,536.5,264.2,561.2,271.6,575.9z"/>
	</g>
	<path d="M848.7,279c-22.1-12.9-40.6-9.2-44.3,5.5C800.7,299.3,821,349,821,349l18.4-1.8l3.7-5.5c0,0-22.1-7.4-20.3-35
		s12.9-24,12.9-24L848.7,279z"/>
	<path d="M876.4,341.7c0,3.7,3.7,24,40.6,1.8c0,0-12.9,18.4-27.7,20.3c-14.8,1.8-29.5,3.7-29.5,3.7L876.4,341.7z"/>
	<path d="M166.4,542.7c-22.1-1.8-21.4,65.9-1.8,49.8C174.7,584.2,188.6,544.6,166.4,542.7z"/>
	<path d="M223.6,550.1c-24-9.2-18.4,62.7,1.8,57.2C238.1,603.8,241.6,557,223.6,550.1z"/>
	<path fill="#FFFFFF" d="M556.2,323.1c-10.4,0.8-10.2-4.8-20.2-8.1c-10-3.3-28.9-5.2-36.2-12.4c-6.9-6.7-13.8-17.1-23.3-20.1
		c-5-1.5-10.4-1.1-15.6-1.1c-6.6,0-13.3,0-19.9,0.1c-9.7,0-20.7,14.5-11,14.5c6.3,0,23.6,0.5,29.9,0.5c4.2,0,10.1-1.1,13.8,1.3
		c4.1,2.6,7.5,7.5,10.9,11c4,4.1,8.2,8.1,12.4,11.9c7.7,7,16.1,13.4,26.3,16.1c10.7,2.8,21.9,2.2,32.8,1.3
		C565.8,337.3,565.9,322.3,556.2,323.1z"/>
	<path fill="#FFFFFF" d="M269.5,318.2c-8.8-9.7-18.3-18.7-28.4-27c-4.8-4-9.8-7.9-15.8-9.9c-6.1-2-12.6-1.7-19-1.1
		c-9.5,0.8-9.6,15.8,0,15c5.1-0.4,10.7-1.2,15.6,0.9c4.7,2,8.8,5.9,12.7,9.2c8.6,7.3,26.8,15.5,34.4,23.8
		C275.5,336.2,276,325.3,269.5,318.2z"/>
	<path fill="#FFFFFF" d="M401,339.4c0.4-2.1-0.1-4.3-2.1-6.3c-5.9-5.8-10.8-12.6-19.7-13c-8-0.4-16.2,0-24.2,0.2
		c-3.8,0.1-9.2-1.2-10,1.6c-12.9-1.8-22.9,1.7-36.1,4c-28.3,5-49.4,24.3-67.4,45.5c-6.2,7.3-19.8,29.9-13.5,22.5
		c16.5-19.4,59-48.9,84.9-53.5c27.7-4.9,55.8,4.2,82,12.4C403.3,355.5,407.4,343.6,401,339.4z"/>
	<path fill="#FFFFFF" d="M256.6,552.2c-8.8-4.2-15.9-11.2-24.8-15.3c-10.1-4.6-21.3-5.1-32.3-4.7c-22.8,0.9-45.5,5.1-67.1,12.4
		c-9.1,3-5.2,17.5,4,14.5c19.8-6.6,40.4-10.7,61.3-11.8c9.3-0.5,19.4-0.8,28,3.2c8.3,3.9,15,10.6,23.3,14.6
		C257.7,569.3,265.3,556.3,256.6,552.2z"/>
	<path fill="#FFFFFF" d="M758,221c-41-54-134.2-75.9-226-75c-27,0.3-72.5,20.9-98.9,27.2c-9.4,2.2-45.5,25.1-36.1,22.8
		c22.7-5.4,106-32,187-30c53.1,1.3,171.7,52.8,191.8,66.2C783.8,237.5,763.8,228.7,758,221z"/>
	<path fill="#FFFFFF" d="M874.7,282.7c0.1-0.7,0.1-1.4,0.2-2.2c-0.1-1-0.4-1.9-0.8-2.8c-3.5-7.7-11.2-11.2-17-15.7
		c-8.2-1.5-3.5-3.1-11.7-3c-0.2,0-0.3,0-0.4,0c-0.3,1.6-12.5,0.5-11.9,2c-8.3-0.3-3.9,4,5,6s23,7,31.9,15.6c0.4,0.9,0.8,1.7,1.2,2.6
		c1.7,3.7-3,4.5,0.3,2.7c1.8-1,2.9-2.5,3.3-4.3C874.6,283.4,874.6,283,874.7,282.7z"/>
	<path fill="#FFFFFF" d="M931.5,306.7c0.8,1.8,0-1.8-0.1-2.4c-0.2-1.4-0.4-2.6-1-3.9c-1.2-3.1-3.5-5-6.2-6.8
		c-5.1-3.2-10.9-5.7-16.6-7.8c-3.8-1.4-8.2,1.6-9.2,5.2c-1.1,4.2,1.4,7.8,5.2,9.2c4.1,1.5,8,3.4,11.8,5.5c0.3,0.1,0.8,0.3,1.1,0.6
		c0,0.1,0,0.3,0,0.5c-0.1,2.6,0.8,5,1.9,7.4c1.6,3.7,7,4.6,10.3,2.7C932.6,314.7,933.1,310.4,931.5,306.7z"/>
	<path fill="#FFFFFF" d="M749,318c30-40-58.1-132.9-81-85C645,281,736.9,334.2,749,318z"/>
</g>
<g id="vs-outline">
	
		<path fill="none" stroke="#000000" stroke-width="11.064" stroke-linecap="round" stroke-linejoin="round" stroke-miterlimit="10" d="
		M400.7,332.4c-46.1-31.3-142.1-3-171.5,53.5c-24,46.1-20.3,88.5-20.3,88.5s-11.1,38.7-36.9,53.5"/>
	
		<path fill="none" stroke="#000000" stroke-width="10.573" stroke-linecap="round" stroke-linejoin="round" stroke-miterlimit="10" d="
		M185,605.3c-3.7,20.3-57.8,33.1-60.9-9.2c-2.8-37.8,16.6-75.6,79.3-68.2c62.7,7.4,71.9,44.3,66.4,70.1s-31.3,40.6-55.3,38.7
		S185,605.3,185,605.3z"/>
	
		<path fill="none" stroke="#000000" stroke-width="11.064" stroke-linecap="round" stroke-linejoin="round" stroke-miterlimit="10" d="
		M164.7,623.8c0,0,31.3,16.6,57.2,16.6c66.4,0,105.1-47.9,105.1-47.9"/>
	
		<polyline fill="none" stroke="#000000" stroke-width="9.22" stroke-linecap="round" stroke-linejoin="round" stroke-miterlimit="10" points="
		323.3,579.5 334.3,607.2 332.5,583.2 	"/>
	
		<path fill="none" stroke="#000000" stroke-width="16.0082" stroke-linecap="round" stroke-linejoin="round" stroke-miterlimit="10" d="
		M190,634.8c4.1,1.8,28.1,36.9,37.3,46.1c9.2,9.2,57.2,35,130.9,18.4c73.8-16.6,121.7-64.5,140.1-108.8s33.2-158.6-31.3-201
		c0,0-5.5-20.3,0-36.9"/>
	
		<path fill="none" stroke="#000000" stroke-width="11.064" stroke-linecap="round" stroke-linejoin="round" stroke-miterlimit="10" d="
		M441.3,328.7c16.6,0,7.4,16.6,31.3,22.1c27.5,6.3,90.1-11.1,92.2-18.4c3.7-12.9-33.2-12.9-55.3-25.8s-35-33.2-64.5-22.1
		s-40.6,53.5-44.3,60.9s-16.6,18.4-16.6,18.4"/>
	
		<path fill="none" stroke="#000000" stroke-width="11.064" stroke-linecap="round" stroke-linejoin="round" stroke-miterlimit="10" d="
		M277.2,337.9c-7.4-11.1-35-60.9-62.7-59c-27.7,1.8-9.2,22.1-42.4,46.1s-42.4,25.8-42.4,31.3s38.7,29.5,84.8-7.4"/>
	
		<path fill="none" stroke="#000000" stroke-width="9.22" stroke-linecap="round" stroke-linejoin="round" stroke-miterlimit="10" d="
		M196,341.6c12.9-5.5,20.3,0,24,5.5s5.5,33.2,11.1,33.2"/>
	
		<path fill="none" stroke="#000000" stroke-width="9.22" stroke-linecap="round" stroke-linejoin="round" stroke-miterlimit="10" d="
		M448.7,756.5c-7.4,7.4-12.9,51.6-12.9,51.6l1.8,11.1c0,0-22.1,11.1-40.6,5.5l1.8-18.4"/>
	
		<path fill="none" stroke="#000000" stroke-width="9.22" stroke-linecap="round" stroke-linejoin="round" stroke-miterlimit="10" d="
		M353.7,700.3c17.5,2.8,32.3,87.6,32.3,107.9v11.1l7.4,1.8"/>
	
		<path fill="none" stroke="#000000" stroke-width="9.22" stroke-linecap="round" stroke-linejoin="round" stroke-miterlimit="10" d="
		M544.5,704.9c-27.7,1.8-31.3,138.3-31.3,138.3s-16.6,11.1-53.5,9.2l3.7-16.6"/>
	
		<path fill="none" stroke="#000000" stroke-width="9.22" stroke-linecap="round" stroke-linejoin="round" stroke-miterlimit="10" d="
		M439.4,717.8c11.1,0,11.1,103.3,9.2,112.5s-3.7,16.6-3.7,16.6l9.2,1.8"/>
	
		<path fill="none" stroke="#000000" stroke-width="9.22" stroke-linecap="round" stroke-linejoin="round" stroke-miterlimit="10" d="
		M612.8,725.2c-9.2,11.1-74.4,16.6-85.1,17.5"/>
	
		<path fill="none" stroke="#000000" stroke-width="12.908" stroke-linecap="round" stroke-linejoin="round" stroke-miterlimit="10" d="
		M319.3,320.4c0,0,26.1-85.7,70.4-122.6s127.2-64.5,228.7-47.9s153.1,71.9,186.2,149.4c33.2,77.4,35,127.2,27.7,184.4
		s-84.8,164.1-105.1,189.9s-42.3,155.2-51.6,158.6c-18.2,6.6-31.6,7.3-40.9,5.9l1.2-19.8"/>
	
		<path fill="none" stroke="#000000" stroke-width="11.064" stroke-linecap="round" stroke-linejoin="round" stroke-miterlimit="10" d="
		M607.2,697.5c5.5,1.8,9.2,132.8,9.2,132.8s4.4,2.4,15.7,4.6"/>
	
		<path fill="none" stroke="#000000" stroke-width="11.064" stroke-linecap="round" stroke-linejoin="round" stroke-miterlimit="10" d="
		M604.5,731.6c-3.7,9.2-9.2,60.9-9.2,60.9s-16.6,12.9-42.4,11.1l3.7-22.1"/>
	
		<path fill="none" stroke="#000000" stroke-width="11.064" stroke-linecap="round" stroke-linejoin="round" stroke-miterlimit="10" d="
		M554.7,794.3c-7.4,0-20.3,5.5-20.3-1.8s12.6-38.7,12.9-49.8"/>
	
		<path fill="none" stroke="#000000" stroke-width="11.064" stroke-linecap="round" stroke-linejoin="round" stroke-miterlimit="10" d="
		M288.2,441.2c9.2,0,3.7,11.1-1.8,11.1C282.3,452.3,279,441.2,288.2,441.2z"/>
	
		<path fill="none" stroke="#000000" stroke-width="11.064" stroke-linecap="round" stroke-linejoin="round" stroke-miterlimit="10" d="
		M253.2,441.2c3.7,0,3.7,11.1,0,11.1C249.5,452.3,249.5,441.2,253.2,441.2z"/>
	
		<path fill="none" stroke="#000000" stroke-width="10.573" stroke-linecap="round" stroke-linejoin="round" stroke-miterlimit="10" d="
		M228.3,560.2c5.5,0,3.7,40.6-1.8,40.6C220.6,600.7,222.8,560.2,228.3,560.2z"/>
	
		<path fill="none" stroke="#000000" stroke-width="10.573" stroke-linecap="round" stroke-linejoin="round" stroke-miterlimit="10" d="
		M173,552.8c5.5,1.8-3.7,38.7-9.2,36.9C158.2,587.8,167.7,551,173,552.8z"/>
	
		<path fill="none" stroke="#000000" stroke-width="11.064" stroke-linecap="round" stroke-linejoin="round" stroke-miterlimit="10" d="
		M824.5,349c17.8,0.9,43.9-14.6,34.4-52.6c-7.4-29.5-40.6-16.6-38.7,11.1c2.2,32.8,24,33.2,24,33.2"/>
	
		<path fill="none" stroke="#000000" stroke-width="11.064" stroke-linecap="round" stroke-linejoin="round" stroke-miterlimit="10" d="
		M831.3,375.8c9.2,0,46.1-14.8,47.9-59s-16.7-53.5-35-55.3c-18.4-1.8-43.3,7.4-36.9,44.3"/>
	
		<path fill="none" stroke="#000000" stroke-width="11.064" stroke-linecap="round" stroke-linejoin="round" stroke-miterlimit="10" d="
		M874.6,342.3c19.4,4,56.2-20.9,30.4-40.3c-14.8-11.1-1.8-18.4,11.1-9.2c17,12.1,25.8,31.3,3.7,51.6c-16.4,15.1-42.4,22.1-66.4,22.1
		"/>
	<path fill="none" stroke="#000000" stroke-width="4" stroke-linecap="round" stroke-linejoin="round" stroke-miterlimit="10" d="
		M441.3,339.8c3.7,0,7.4,20.3,24,20.3"/>
	<path fill="none" stroke="#000000" stroke-width="4" stroke-linecap="round" stroke-linejoin="round" stroke-miterlimit="10" d="
		M437.6,356.4c12.9,0,7.4,14.8,25.8,14.8"/>
	<path fill="none" stroke="#000000" stroke-width="4" stroke-linecap="round" stroke-linejoin="round" stroke-miterlimit="10" d="
		M443.1,371.1c3.7,0,5.5,14.8,22.1,14.8"/>
	<path fill="none" stroke="#000000" stroke-width="4" stroke-linecap="round" stroke-linejoin="round" stroke-miterlimit="10" d="
		M255,337.9c3.7,0,7.4,5.5,12.9,5.5"/>
	<path fill="none" stroke="#000000" stroke-width="4" stroke-linecap="round" stroke-linejoin="round" stroke-miterlimit="10" d="
		M244,343.5c3.7,0,11.1,7.4,16.6,7.4"/>
	<path fill="none" stroke="#000000" stroke-width="4" stroke-linecap="round" stroke-linejoin="round" stroke-miterlimit="10" d="
		M234.8,350.9c3.7,1.8,7.4,5.5,12.9,5.5"/>
	<path fill="none" stroke="#000000" stroke-width="4" stroke-linecap="round" stroke-linejoin="round" stroke-miterlimit="10" d="
		M384.1,286.3c-7.4,9.2-12.9,24-16.6,33.2"/>
	<path fill="none" stroke="#000000" stroke-width="4" stroke-linecap="round" stroke-linejoin="round" stroke-miterlimit="10" d="
		M365.7,299.2c-3.7,5.5-5.5,11.1-7.4,18.4"/>
	<path fill="none" stroke="#000000" stroke-width="4" stroke-linecap="round" stroke-linejoin="round" stroke-miterlimit="10" d="
		M349.1,302.9c-3.7,5.5-3.7,5.5-5.5,12.9"/>
	<path fill="none" stroke="#000000" stroke-width="4" stroke-linecap="round" stroke-linejoin="round" stroke-miterlimit="10" d="
		M389.7,306.6c-3.7,5.5-5.5,7.4-7.4,14.8"/>
	<path fill="none" stroke="#000000" stroke-width="4" stroke-linecap="round" stroke-linejoin="round" stroke-miterlimit="10" d="
		M398.9,314c-1.8,5.5-3.7,3.7-5.5,11.1"/>
	<path fill="none" stroke="#000000" stroke-width="4" stroke-linecap="round" stroke-linejoin="round" stroke-miterlimit="10" d="
		M424.7,690.2c-3.7,5.5-29.5,9.2-36.9,0"/>
	<path fill="none" stroke="#000000" stroke-width="4" stroke-linecap="round" stroke-linejoin="round" stroke-miterlimit="10" d="
		M409.9,703.1c-3.7,5.5-25.8,3.7-38.7-3.7"/>
	<path fill="none" stroke="#000000" stroke-width="4" stroke-linecap="round" stroke-linejoin="round" stroke-miterlimit="10" d="
		M402.6,716c-12.9,0-31.3,3.7-38.7-5.5"/>
	<path fill="none" stroke="#000000" stroke-width="4" stroke-linecap="round" stroke-linejoin="round" stroke-miterlimit="10" d="
		M387.8,727c-7.4,1.8-12.9,3.7-16.6,0"/>
	<path fill="none" stroke="#000000" stroke-width="4" stroke-linecap="round" stroke-linejoin="round" stroke-miterlimit="10" d="
		M430.2,725.2c1.8,5.5,9.2,12.9,14.8,14.8"/>
	<path fill="none" stroke="#000000" stroke-width="4" stroke-linecap="round" stroke-linejoin="round" stroke-miterlimit="10" d="
		M421,738.1c1.8,5.5,16.6,18.4,22.1,20.3"/>
	<path fill="none" stroke="#000000" stroke-width="4" stroke-linecap="round" stroke-linejoin="round" stroke-miterlimit="10" d="
		M409.9,747.3c1.8,5.5,24,24,29.5,25.8"/>
	<path fill="none" stroke="#000000" stroke-width="4" stroke-linecap="round" stroke-linejoin="round" stroke-miterlimit="10" d="
		M415.5,769.4c3.7,7.4,14.8,16.6,20.3,18.4"/>
	<path fill="none" stroke="#000000" stroke-width="4" stroke-linecap="round" stroke-linejoin="round" stroke-miterlimit="10" d="
		M419.2,791.6c1.8,5.5,9.2,12.9,14.8,14.8"/>
	<path fill="none" stroke="#000000" stroke-width="4" stroke-linecap="round" stroke-linejoin="round" stroke-miterlimit="10" d="
		M411.8,756.5c12.9-7.4,27.7-27.7,33.2-25.8"/>
	<path fill="none" stroke="#000000" stroke-width="4" stroke-linecap="round" stroke-linejoin="round" stroke-miterlimit="10" d="
		M417.3,780.5c12.9-11.1,25.8-18.4,31.3-25.8"/>
	<path fill="none" stroke="#000000" stroke-width="4" stroke-linecap="round" stroke-linejoin="round" stroke-miterlimit="10" d="
		M417.3,802.6c11.1-7.4,12.9-11.1,22.1-20.3"/>
	<path fill="none" stroke="#000000" stroke-width="4" stroke-linecap="round" stroke-linejoin="round" stroke-miterlimit="10" d="
		M708.7,657c12.9-7.4,49.8-35,55.3-33.2"/>
	<path fill="none" stroke="#000000" stroke-width="4" stroke-linecap="round" stroke-linejoin="round" stroke-miterlimit="10" d="
		M747.4,618.2c12.9-7.4,20.3-12.9,25.8-11.1"/>
	<path fill="none" stroke="#000000" stroke-width="4" stroke-linecap="round" stroke-linejoin="round" stroke-miterlimit="10" d="
		M701.3,688.3c12.9-7.4,22.1-14.8,33.2-24"/>
	<path fill="none" stroke="#000000" stroke-width="4" stroke-linecap="round" stroke-linejoin="round" stroke-miterlimit="10" d="
		M690.2,717.8c12.9-7.4,18.4-12.9,24-16.6"/>
	<path fill="none" stroke="#000000" stroke-width="4" stroke-linecap="round" stroke-linejoin="round" stroke-miterlimit="10" d="
		M728.9,636.7c-3.7,11.1-5.5,27.7-3.7,38.7"/>
	<path fill="none" stroke="#000000" stroke-width="4" stroke-linecap="round" stroke-linejoin="round" stroke-miterlimit="10" d="
		M743.7,616.4c-3.7,11.1-5.5,27.7-3.7,38.7"/>
	<path fill="none" stroke="#000000" stroke-width="4" stroke-linecap="round" stroke-linejoin="round" stroke-miterlimit="10" d="
		M708.7,673.6c3.7,11.1-1.8,27.7,0,38.7"/>
</g>
<g id="vs-reveal">
	
		<path fill="none" stroke="#FF1A1A" stroke-width="74" stroke-linecap="round" stroke-linejoin="round" stroke-miterlimit="10" stroke-opacity="0" d="
		M156.5,350.5c11,8,54-57,72-39s-14,28-8,28"/>
	
		<path fill="none" stroke="#FF1A1A" stroke-width="74" stroke-linecap="round" stroke-linejoin="round" stroke-miterlimit="10" stroke-opacity="0" d="
		M370,364c-48-16-110-20-139,71l-88,173c0,0,200.3-271.4,254-226c26,22-207,232-199,251s242-249,261-223S222,639,239,659
		s245-221,245-192S257,680,275,680s197.3-219.6,203-176c19,145-175,168-175,168"/>
	
		<polyline fill="none" stroke="#FF1A1A" stroke-width="74" stroke-linecap="round" stroke-linejoin="round" stroke-miterlimit="10" stroke-opacity="0" points="
		392,349 420,367 454,321 	"/>
	
		<path fill="none" stroke="#FF1A1A" stroke-width="34" stroke-linecap="round" stroke-linejoin="round" stroke-miterlimit="10" stroke-opacity="0" d="
		M466,335l77-5c0,0-51-14-64-22s-22-13-22-13"/>
	
		<path fill="none" stroke="#FF1A1A" stroke-width="200" stroke-linecap="round" stroke-linejoin="round" stroke-miterlimit="10" stroke-opacity="0" d="
		M308,273c9,13,263.4-156.6,317-123c102,64-171.4,269.6-171.4,269.6S704.2,280,839,309c79,17-515,355-495,394s512-288,459-112
		c-37.1,123.1-436,273-436,273l394-26"/>
</g>
</svg>
