<?xml version="1.0" encoding="utf-8"?>
<!-- Generator: Adobe Illustrator 15.0.0, SVG Export Plug-In . SVG Version: 6.00 Build 0)  -->
<!DOCTYPE svg PUBLIC "-//W3C//DTD SVG 1.1//EN" "http://www.w3.org/Graphics/SVG/1.1/DTD/svg11.dtd">
<svg version="1.1" id="Layer_1" xmlns="http://www.w3.org/2000/svg" xmlns:xlink="http://www.w3.org/1999/xlink" x="0px" y="0px"
	 width="267.5px" height="252px" viewBox="-2.875 -73.75 267.5 252" enable-background="new -2.875 -73.75 267.5 252"
	 xml:space="preserve">
<path fill="#825A14" d="M58.125,28.75c0,0-16.5,34.5-11,47.5s18,30.5,18,30.5l9.5,8l-1.5-92C73.125,22.75,68.125,10.75,58.125,28.75
	z"/>
<path fill="#825A14" d="M63.125-57.75c-2.998,6.996,13.223,20.788,20.5,23.5c11.48,4.279,18.811,1.846,31,3
	c19.17,1.815,36.347,3.856,55-2.5c10.604-3.614,15.052-9.976,21.014-17.573c6.354,7.052-1.463,18.724-6.026,23.975
	c-5.279,6.076,0.533,15.625,2.139,23.209c5.374,25.389,23.374,56.234,23.374,71.889c0,23.874-18.5,41.5-29,40.861
	c-5.5,18.116-20.876,31.814-38.5,37.637c-21.002,6.939-42.298-1.101-58.512-15.486c-20.887-18.533-23.104-54.883-20-80.988
	c2.629-22.111,2.512-44.024,7.01-67.536c0.415-2.17-0.523-4.291-1.072-6.415c-4.81-0.373-8.544-12.364-10.327-16.209
	c-1.283-2.767-2.44-6.397-1.526-9.476c0.645-2.169,4.473-7.16,4.926-3.889"/>
<path fill="#A38852" d="M70.625,45.25c1.581,0,75.5,1.5,94.5,1.5s22.5-3.5,21,12s-5,60.5-25,74s-45,19.5-68-0.5s-22.5-34.5-24.5-58
	S67.125,45.25,70.625,45.25z"/>
<path fill="none" stroke="#000000" stroke-width="1.5" stroke-linecap="round" stroke-linejoin="round" stroke-miterlimit="10" d="
	M63.125-57.75c-2.998,6.996,13.223,20.788,20.5,23.5c11.48,4.279,18.811,1.846,31,3c19.17,1.815,36.347,3.856,55-2.5
	c10.604-3.614,15.052-9.976,21.014-17.573c6.354,7.052-1.463,18.724-6.026,23.975c-5.279,6.076-0.476,15.912,2.139,23.209
	c5.276,14.729,4.374,29.236,4.374,44.891c0,23.874-3.081,45.069-10,67.859c-5.5,18.116-20.876,31.814-38.5,37.637
	c-21.002,6.939-42.298-1.101-58.512-15.486c-20.887-18.533-23.104-54.883-20-80.988c2.629-22.111,2.512-44.024,7.01-67.536
	c0.415-2.17-0.523-4.291-1.072-6.415c-4.81-0.373-8.544-12.364-10.327-16.209c-1.283-2.767-2.44-6.397-1.526-9.476
	c0.645-2.169,4.473-7.16,4.926-3.889"/>
<path fill="#F8C740" d="M110.125,21.25c4.846-0.211,9.148-2.775,14.611-2.512c2.016,0.098,5.174,0.185,6.914,1.386
	c2.761,1.905,1.646,1.306,1.461,4.125c-0.297,4.533-3.05,10.095-4.361,14.498c-1.075,3.605-1.66,8.272-4.001,10.936
	c-2.744-4.631-4.945-9.61-7.651-14.309c-1.781-3.092-5.586-6.965-5.473-10.625"/>
<path fill="#F8C740" d="M102.125,144.25c-3.393,2.101-12.809,12.119-11.936,16.425c8.215,1.767,11.481-14.07,17.859-16.375
	c-1.494,2.614-2.095,20.02,1.552,20.51c5.891,0.792,2.663-16.075,2.514-18.908c0.437,3.074,2.313,13.037,5.902,13.995
	c6.479,1.73,0.801-8.965,0.609-11.146"/>
<path fill="#F8C740" d="M140.625,144.75c0.333,2.719-8.508,15.656-5.146,18.636c4.607,4.084,7.19-15.916,9.548-18.096
	c0.841,3.631,6.896,10.39,11.099,8.97c6.1-2.061-2.787-9.067-4.836-11.47c2.519,3.572,7.935,6.06,12.261,5.41
	c1.514-4.939-8.291-8.812-8.425-8.45"/>
<path fill="none" stroke="#000000" stroke-width="1.5" stroke-linecap="round" stroke-linejoin="round" stroke-miterlimit="10" d="
	M110.125,21.25c4.846-0.211,9.148-2.775,14.611-2.512c2.016,0.098,5.174,0.185,6.914,1.386c2.761,1.905,1.646,1.306,1.461,4.125
	c-0.297,4.533-3.05,10.095-4.361,14.498c-1.075,3.605-1.66,8.272-4.001,10.936c-2.744-4.631-4.945-9.61-7.651-14.309
	c-1.781-3.092-5.586-6.965-5.473-10.625"/>
<path fill="none" stroke="#000000" stroke-width="1.5" stroke-linecap="round" stroke-linejoin="round" stroke-miterlimit="10" d="
	M64.625,20.25c-6.474,5.447-10.823,17.153-13.135,25.038c-2.702,9.211-4.611,19.307-3.265,28.974
	c1.185,8.505,7.498,19.659,12.387,26.498c2.329,3.259,6.532,9.305,9.513,11.49"/>
<path fill="none" stroke="#000000" stroke-width="1.5" stroke-linecap="round" stroke-linejoin="round" stroke-miterlimit="10" d="
	M190.625,16.75c1.678,0.523,5.829,8.831,7.374,11.514c3.561,6.183,6.353,12.593,8.124,19.498
	c2.708,10.554,3.266,23.689,0.876,34.375c-3.436,15.366-12.442,25.826-26.374,29.113"/>
<path fill="none" stroke="#000000" stroke-width="1.5" stroke-linecap="round" stroke-linejoin="round" stroke-miterlimit="10" d="
	M102.125,144.25c-3.393,2.101-12.809,12.119-11.936,16.425c8.215,1.767,11.481-14.07,17.859-16.375
	c-1.494,2.614-2.095,20.02,1.552,20.51c5.891,0.792,2.663-16.075,2.514-18.908c0.437,3.074,2.313,13.037,5.902,13.995
	c6.479,1.73,0.801-8.965,0.609-11.146"/>
<path fill="none" stroke="#000000" stroke-width="1.5" stroke-linecap="round" stroke-linejoin="round" stroke-miterlimit="10" d="
	M140.625,144.75c0.333,2.719-8.508,15.656-5.146,18.636c4.607,4.084,7.19-15.916,9.548-18.096c0.841,3.631,6.896,10.39,11.099,8.97
	c6.1-2.061-2.787-9.067-4.836-11.47c2.519,3.572,7.935,6.06,12.261,5.41c1.514-4.939-8.291-8.812-8.425-8.45"/>
<path fill="none" stroke="#000000" stroke-width="1.5" stroke-linecap="round" stroke-linejoin="round" stroke-miterlimit="10" d="
	M70.625,52.25c3.636,3.757,4.18,11.926,8.014,15.119c4.906,4.086,6.209-6.001,11.486-8.119"/>
<path fill="none" stroke="#000000" stroke-width="1.5" stroke-linecap="round" stroke-linejoin="round" stroke-miterlimit="10" d="
	M100.125,62.25c1.793,1.86,7.045,8.55,10.024,7.978c4.198-0.806,2.879-7.411,4.976-10.478"/>
<path fill="none" stroke="#000000" stroke-width="1.5" stroke-linecap="round" stroke-linejoin="round" stroke-miterlimit="10" d="
	M129.125,63.75c3.985,11.022,8.364,1.339,13-2"/>
<path fill="none" stroke="#000000" stroke-width="1.5" stroke-linecap="round" stroke-linejoin="round" stroke-miterlimit="10" d="
	M157.625,65.25c0.982-0.681,1.777,2.581,4.589,3.08c4.985,0.884,7.601-5.487,9.411-9.08"/>
<path fill="none" stroke="#000000" stroke-width="1.5" stroke-linecap="round" stroke-linejoin="round" stroke-miterlimit="10" d="
	M83.625,78.25c1.812,2.144,5.405,10.518,8.536,10.44c3.486-0.086,6.017-10.943,9.464-13.44"/>
<path fill="none" stroke="#000000" stroke-width="1.5" stroke-linecap="round" stroke-linejoin="round" stroke-miterlimit="10" d="
	M117.125,77.75c-0.138,1.983,2.426,7.819,5.025,7.577c2.3-0.214,4.249-6.684,5.475-8.577"/>
<path fill="none" stroke="#000000" stroke-width="1.5" stroke-linecap="round" stroke-linejoin="round" stroke-miterlimit="10" d="
	M143.625,80.25c2.21,2.544,5.094,7.489,8.874,9.528c3.406-2.545,4.411-8.711,6.626-12.528"/>
<path fill="none" stroke="#000000" stroke-width="1.5" stroke-linecap="round" stroke-linejoin="round" stroke-miterlimit="10" d="
	M71.125,92.25c3.211,4.253,6.608,8.438,9.997,12.538c2.974-3.489,1.559-9.738,6.003-12.538"/>
<path fill="none" stroke="#000000" stroke-width="1.5" stroke-linecap="round" stroke-linejoin="round" stroke-miterlimit="10" d="
	M98.625,94.75c0.224,2.767,4.472,12.82,7.639,13.477c4.615,0.955,7.503-13.145,11.361-15.477"/>
<path fill="none" stroke="#000000" stroke-width="1.5" stroke-linecap="round" stroke-linejoin="round" stroke-miterlimit="10" d="
	M129.125,93.75c3.411-0.621,3.25,8.311,6.648,10.066c5.009,2.589,5.513-6.667,7.852-11.066"/>
<path fill="none" stroke="#000000" stroke-width="1.5" stroke-linecap="round" stroke-linejoin="round" stroke-miterlimit="10" d="
	M160.625,91.25c1.226,1.78,4.175,10.854,8.524,11.423c5.27,0.689,7.25-11.044,8.476-14.923"/>
<path fill="none" stroke="#000000" stroke-width="1.5" stroke-linecap="round" stroke-linejoin="round" stroke-miterlimit="10" d="
	M83.125,107.75c3.126,4.174,3.004,10.928,7.411,13.968c1.208-5.379,3.715-10.311,6.589-14.968"/>
<path fill="none" stroke="#000000" stroke-width="1.5" stroke-linecap="round" stroke-linejoin="round" stroke-miterlimit="10" d="
	M118.125,108.75c0.262,2.631,3.202,8.232,5.49,10.018c2.306-3.209,3.982-6.679,6.01-10.018"/>
<path fill="none" stroke="#000000" stroke-width="1.5" stroke-linecap="round" stroke-linejoin="round" stroke-miterlimit="10" d="
	M148.625,109.25c2.114,0.473,4.266,7.293,7.502,9.105c2.96-3.308,5.746-8.475,7.498-12.605"/>
<path fill="none" stroke="#000000" stroke-width="1.5" stroke-linecap="round" stroke-linejoin="round" stroke-miterlimit="10" d="
	M127.625,132.25c-3.141,3.14-3.548,8.123-5.611,11.97c-5.539-1.996-5.729-9.503-9.889-12.47"/>
<path fill="none" stroke="#000000" stroke-width="1.5" stroke-linecap="round" stroke-linejoin="round" stroke-miterlimit="10" d="
	M130.125,120.75c0.688,2.543,5.664,13.451,8.51,14.042c4.272,0.887,8.963-10.683,10.49-14.542"/>
<path fill="none" stroke="#000000" stroke-width="1.5" stroke-linecap="round" stroke-linejoin="round" stroke-miterlimit="10" d="
	M97.625,119.75c0.65,3.149,3.946,12.726,7.879,13c3.431,0.24,7.121-8.799,9.621-11"/>
<path fill="#A38852" d="M107.125-7.25c-4.908-6.205-11.41,1.677-12.024,7.111c-0.839,7.42,4.695,15.881,12.012,17.924
	c9.803,2.738,18.622-9.365,15.571-18.421c-2.567-7.624-17.806-13.776-22.06-5.115"/>
<path fill="#A38852" d="M139.625-9.25c0.251-0.769,0.794-0.987,0.421-1.924c-12.664-1.489-12.256,26.938,1.943,26.482
	c8.968-0.288,11.773-11.343,8.182-17.957c-2.131-3.922-12.999-10.786-16.046-4.602"/>
<path fill="none" stroke="#000000" stroke-width="1.5" stroke-linecap="round" stroke-linejoin="round" stroke-miterlimit="10" d="
	M108.125,2.75c-3.312,3.253,2.391,6.662,3.042,2.524c0.955-6.063-8.498-3.081-5.1,1.425c1.506,1.997,3.698,0.228,4.09-1.328
	c0.73-2.902-1.507-1.979-2.442-3.055c-0.187-0.215,1.496,7.283,1.833,1.01c-0.397-0.104-1.097,0.086-1.423-0.076"/>
<path fill="none" stroke="#000000" stroke-width="1.5" stroke-linecap="round" stroke-linejoin="round" stroke-miterlimit="10" d="
	M141.125,6.25c-0.485-0.349,0.584-0.986-0.5-0.958c-2.121,3.778,3.906,4.964,4.069,1.08c0.178-4.215-6.322-4.203-4.893,0.315
	c6.323,1.875,2.868-5.922,0.898-1.5c0.447,0.226,1.189-0.326,0.925-0.436"/>
</svg>
