<?xml version="1.0" encoding="utf-8"?>
<!-- Generator: Adobe Illustrator 24.0.3, SVG Export Plug-In . SVG Version: 6.00 Build 0)  -->
<svg version="1.1" id="Layer_1" xmlns="http://www.w3.org/2000/svg" xmlns:xlink="http://www.w3.org/1999/xlink" x="0px" y="0px"
	 width="1000px" height="1000px" viewBox="0 0 1000 1000" enable-background="new 0 0 1000 1000" xml:space="preserve">
<g>
	<path fill="none" stroke="#000000" stroke-width="5" stroke-linecap="round" stroke-linejoin="round" stroke-miterlimit="10" d="
		M313.4,345.9c23.7-23.7,63.1-39.4,90.7-55.2c-3.9,7.9-7.9,19.7-11.8,27.6"/>
	<path fill="none" stroke="#000000" stroke-width="5" stroke-linecap="round" stroke-linejoin="round" stroke-miterlimit="10" d="
		M392.3,318.3c7.9-7.9,51.3,7.9,74.9,11.8c63.1,15.8,98.6,7.9,153.8-27.6"/>
	<path fill="none" stroke="#000000" stroke-width="5" stroke-linecap="round" stroke-linejoin="round" stroke-miterlimit="10" d="
		M609.2,302.5c55.2-23.7,43.4,71,35.5,102.5c-11.8,67-47.3,114.4-86.8,169.6"/>
	<path fill="none" stroke="#000000" stroke-width="5" stroke-linecap="round" stroke-linejoin="round" stroke-miterlimit="10" d="
		M609.2,318.3c-11.8,15.8,3.9,35.5,35.5,31.6"/>
	<path fill="none" stroke="#000000" stroke-width="5" stroke-linecap="round" stroke-linejoin="round" stroke-miterlimit="10" d="
		M416,551c7.9-35.5,67-126.2,122.3-142"/>
	<path fill="none" stroke="#000000" stroke-width="5" stroke-linecap="round" stroke-linejoin="round" stroke-miterlimit="10" d="
		M459.4,558.9c19.7-47.3,71-114.4,106.5-134.1"/>
	<path fill="none" stroke="#000000" stroke-width="5" stroke-linecap="round" stroke-linejoin="round" stroke-miterlimit="10" d="
		M577.7,448.4c-15.8,11.8-31.6,71-31.6,102.5"/>
	<path fill="none" stroke="#000000" stroke-width="5" stroke-linecap="round" stroke-linejoin="round" stroke-miterlimit="10" d="
		M427.8,353.8c-7.9,0-15.8-7.9-15.8,19.7s59.2-7.9,11.8-19.7"/>
	<path fill="none" stroke="#000000" stroke-width="5" stroke-linecap="round" stroke-linejoin="round" stroke-miterlimit="10" d="
		M419.9,381.4c0,0,11.8-11.8,3.9-7.9C423.9,373.5,419.9,377.4,419.9,381.4c3.9-3.9,11.8-11.8,15.8-11.8
		C431.8,373.5,427.8,377.4,419.9,381.4c3.9,0,11.8-7.9,3.9-3.9c3.9-3.9,7.9-3.9,11.8-7.9c-3.9,0-11.8,0-11.8,7.9
		c3.9-3.9,7.9-3.9,11.8-7.9c-3.9,3.9-7.9,3.9-11.8,7.9c7.9-3.9,11.8-7.9,19.7-11.8"/>
	<path fill="none" stroke="#000000" stroke-width="5" stroke-linecap="round" stroke-linejoin="round" stroke-miterlimit="10" d="
		M305.6,342c-23.7-71-138-181.4-216.9-59.2C57.1,326.2,61,405.1,100.5,444.5C136,480,191.2,468.2,234.6,480"/>
	<path fill="none" stroke="#000000" stroke-width="5" stroke-linecap="round" stroke-linejoin="round" stroke-miterlimit="10" d="
		M68.9,377.4c3.9-51.3,43.4-126.2,106.5-122.3c78.9,3.9,59.2,98.6,114.4,122.3"/>
	<path fill="none" stroke="#000000" stroke-width="5" stroke-linecap="round" stroke-linejoin="round" stroke-miterlimit="10" d="
		M281.9,373.5c-67,59.2-55.2,161.7,0,224.8"/>
	<path fill="none" stroke="#000000" stroke-width="5" stroke-linecap="round" stroke-linejoin="round" stroke-miterlimit="10" d="
		M274,598.3c-11.8-11.8-3.9,31.6-3.9,47.3c3.9-7.9,11.8-15.8,15.8-19.7c3.9,11.8,11.8,27.6,11.8,35.5c0-11.8,7.9-27.6,11.8-31.5"/>
	<path fill="none" stroke="#000000" stroke-width="5" stroke-linecap="round" stroke-linejoin="round" stroke-miterlimit="10" d="
		M305.6,625.9c39.4,39.4,228.7,23.7,252.4-55.2"/>
	<path fill="none" stroke="#000000" stroke-width="5" stroke-linecap="round" stroke-linejoin="round" stroke-miterlimit="10" d="
		M337.1,326.2c-78.9-189.3,181.4-173.5,122.3-3.9"/>
	<path fill="none" stroke="#000000" stroke-width="5" stroke-linecap="round" stroke-linejoin="round" stroke-miterlimit="10" d="
		M427.8,645.6c3.9,15.8,15.8,31.5,27.6,43.4"/>
	<path fill="none" stroke="#000000" stroke-width="5" stroke-linecap="round" stroke-linejoin="round" stroke-miterlimit="10" d="
		M471.2,641.7c0,15.8-27.6,82.8-39.4,106.5"/>
	<path fill="none" stroke="#000000" stroke-width="5" stroke-linecap="round" stroke-linejoin="round" stroke-miterlimit="10" d="
		M435.7,744.2c-11.8-3.9-78.9,7.9-78.9,31.6c3.9,31.5,114.4-11.8,130.1-15.8"/>
	<path fill="none" stroke="#000000" stroke-width="5" stroke-linecap="round" stroke-linejoin="round" stroke-miterlimit="10" d="
		M479.1,760c-3.9-19.7-3.9-39.4,0-59.2c43.4-11.8,106.5-11.8,138-47.3"/>
	<path fill="none" stroke="#000000" stroke-width="5" stroke-linecap="round" stroke-linejoin="round" stroke-miterlimit="10" d="
		M621.1,645.6c-31.6,74.9,82.8,102.5,130.1,114.4"/>
	<path fill="none" stroke="#000000" stroke-width="5" stroke-linecap="round" stroke-linejoin="round" stroke-miterlimit="10" d="
		M751.2,760c23.7,0,15.8,67,35.5,86.8"/>
	<path fill="none" stroke="#000000" stroke-width="5" stroke-linecap="round" stroke-linejoin="round" stroke-miterlimit="10" d="
		M735.4,716.6c3.9,11.8,27.6,15.8,47.3,7.9"/>
	<path fill="none" stroke="#000000" stroke-width="5" stroke-linecap="round" stroke-linejoin="round" stroke-miterlimit="10" d="
		M774.9,712.7c7.9,43.4,11.8,90.7,27.6,126.2c-7.9,11.8-7.9,3.9-15.8,7.9"/>
	<path fill="none" stroke="#000000" stroke-width="5" stroke-linecap="round" stroke-linejoin="round" stroke-miterlimit="10" d="
		M585.6,598.3c11.8-35.5,86.8-67,134.1-43.4c71,39.4,31.6,110.4,15.8,173.5"/>
	<path fill="none" stroke="#000000" stroke-width="5" stroke-linecap="round" stroke-linejoin="round" stroke-miterlimit="10" d="
		M751.2,673.2c0,7.9,15.8-7.9,23.7-15.8"/>
	<path fill="none" stroke="#000000" stroke-width="5" stroke-linecap="round" stroke-linejoin="round" stroke-miterlimit="10" d="
		M763,661.4c-3.9,3.9,19.7-23.7,23.7-27.6"/>
	<path fill="none" stroke="#000000" stroke-width="5" stroke-linecap="round" stroke-linejoin="round" stroke-miterlimit="10" d="
		M794.6,633.8c11.8,11.8,71,31.6,94.7,47.3"/>
	<path fill="none" stroke="#000000" stroke-width="5" stroke-linecap="round" stroke-linejoin="round" stroke-miterlimit="10" d="
		M889.2,677.2c3.9,15.8-3.9,27.6-19.7,27.6"/>
	<path fill="none" stroke="#000000" stroke-width="5" stroke-linecap="round" stroke-linejoin="round" stroke-miterlimit="10" d="
		M743.3,704.8c7.9-3.9,43.4-23.7,55.2-35.5"/>
	<path fill="none" stroke="#000000" stroke-width="5" stroke-linecap="round" stroke-linejoin="round" stroke-miterlimit="10" d="
		M798.5,669.3c27.6-3.9,51.3,19.7,67,35.5"/>
	<path fill="none" stroke="#000000" stroke-width="5" stroke-linecap="round" stroke-linejoin="round" stroke-miterlimit="10" d="
		M479.1,716.6c51.3,39.4,145.9,78.9,205.1,31.5"/>
	<path fill="none" stroke="#000000" stroke-width="5" stroke-linecap="round" stroke-linejoin="round" stroke-miterlimit="10" d="
		M715.7,554.9c47.3,15.8,71-19.7,78.9-71c7.9-39.4,0-63.1,23.7-98.6s63.1-39.4,78.9-86.8c23.7-78.9-39.4-130.1-118.3-110.4
		c-90.7,19.7-71,74.9-43.4,138"/>
	<path fill="none" stroke="#000000" stroke-width="5" stroke-linecap="round" stroke-linejoin="round" stroke-miterlimit="10" d="
		M735.4,330.1c7.9-3.9,0,11.8,0,7.9c3.9-3.9,7.9-11.8,7.9-15.8l0,0c-23.7,59.2-94.7-74.9-27.6-134.1
		c63.1-59.2,161.7-39.4,201.1,35.5C968.1,326.1,885.3,334,834,401.1c-27.6,43.4-3.9,67-11.8,106.5c-7.9,43.4-55.2,47.3-71,90.7l0,0"
		/>
	<path fill="none" stroke="#000000" stroke-width="5" stroke-linecap="round" stroke-linejoin="round" stroke-miterlimit="10" d="
		M435.7,661.4c0,0-27.6,35.5-35.5,39.4c-31.5,15.8-71,0-98.6,23.7c23.7,23.7,82.8,7.9,114.4,7.9c3.9-23.7,15.8-27.6,27.6-43.4"/>
	<path fill="none" stroke="#000000" stroke-width="5" stroke-linecap="round" stroke-linejoin="round" stroke-miterlimit="10" d="
		M262.2,353.8c-27.6-3.9-47.3,47.3-23.7,78.9"/>
	<path fill="none" stroke="#000000" stroke-width="5" stroke-linecap="round" stroke-linejoin="round" stroke-miterlimit="10" d="
		M546.1,594.4c3.9,3.9,31.6,3.9,51.3,0"/>
</g>
</svg>
