<?xml version="1.0" encoding="utf-8"?>
<!-- Generator: Adobe Illustrator 21.0.0, SVG Export Plug-In . SVG Version: 6.00 Build 0)  -->
<svg version="1.1" xmlns="http://www.w3.org/2000/svg" xmlns:xlink="http://www.w3.org/1999/xlink" x="0px" y="0px" width="1000px"
	 height="1000px" viewBox="0 0 1000 1000" enable-background="new 0 0 1000 1000" xml:space="preserve">
<g id="vs-primary">
	<path fill="#5679E8" d="M69.8,298.9C80.2,309,97.6,323.1,122,331c33.8,10.9,63.6,4.2,72,2.5c39.4-7.8,141-11.2,385,0.3
		c98.4-6.6,159.5-4.1,198-0.2c9.8,1,32.1,3.5,61.1-0.9c39.3-5.9,69.7-21.2,89.2-33.2c-1.9,190.3-3.9,380.7-5.8,571
		c-10.6,11.1-28.5,27.3-54.3,40c-40.1,19.8-77.3,20.2-93.3,20.1c-170.9-0.3-256.4-0.4-257-0.5c-76.3-8.1-186.3-13.5-328,0.7
		c-16.1-4.7-39.3-13.7-63.1-31.3c-15.4-11.5-27-23.5-35.3-33.6C83.7,677,76.7,487.9,69.8,298.9z"/>
</g>
<g id="vs-secondary">
	<path fill="#C37B63" d="M47.5,208.9c2.6-16.7,25.7-16.8,61.1-41.8c20.9-14.8,24.2-22.8,39.1-24.9c3.4-0.5,6.3-0.5,35.4,4.5
		c30.7,5.2,32.2,6,40,6.3c15.5,0.5,16.4-2.5,39.9-4.7c20.9-2,22.5,0.1,51-1.2c22.7-1,34-1.5,47.9-4.3c26.2-5.2,31.4-11.5,55.1-13.4
		c3.2-0.2,15.3-1.1,31,0.9c12,1.5,24.7,4.6,58.9,18.5c39.2,16,33.9,16.7,43.1,18.3c17.5,3.2,24.2-1.6,72.7-13.1
		c48.1-11.4,61.5-11.4,67.2-11.3c15,0.3,27.1,3.2,51.5,9.1c43.2,10.4,50,17.1,83.6,23c11.4,2,27,4.7,46.8,4.7
		c34.7,0,63.1-8.2,82.4-15.7c3.8,17.6,7.1,42.6,2.5,67.3c-1.3,7.1-3.1,13.3-7.2,19.5c-8.4,12.8-21.5,18.3-30,21.3
		c-54.2,18.8-94.7,14.4-94.7,14.4c-55-6-261.9-2.1-561.9,6.6c-54.7-1.5-97.6-6.8-126.9-11.4c-11.7-1.9-39.9-6.7-62.1-25
		c-15-12.4-20.7-25.6-21.9-28.6C48.6,219.7,46.6,214.8,47.5,208.9z"/>
</g>
<g id="vs-colour">
	<path fill="#FF9D00" d="M46.3,192.6C37.2,159.2,59.5,127,61,125c2.4-3.3,12.2-16.6,31.6-28.2c27.1-16.2,54.1-17.8,64.1-18.2
		C271.5,73.2,329,70.4,663,72c31.7,0.1,75.6-0.7,121.9,6.2c22.6,3.4,35.1,7,61.1,7.8c23.2,0.7,30.4-1.6,43.8,3.6
		c17.9,6.9,28.7,20.2,40.2,34.4c7.4,9.1,16.5,22.3,24.3,39.9c-8.3,3.2-20.1,7.1-34.6,10.5c-12.9,3-31.7,7.4-53.8,6.6
		c-5-0.2-10.7-0.6-46-9c-26.2-6.2-45.7-11.3-72-18c-30.6-7.8-46-11.7-50-12c-22.7-1.7-40.2,2.9-75.2,12.1
		c-38.9,10.2-48.4,16.9-69.4,13.6c-4.5-0.7-14.5-4.4-34.4-11.7c-43.7-16.1-43.2-18-57-21c-10-2.2-32-6.7-58-1
		c-17.3,3.8-17.8,8-35,12c-17.8,4.1-22.3,0.7-57,0c-27.5-0.6-48.8-1-76,3c-17.7,2.6-21.8,4.7-32,3c-22.2-3.7-27.8-17.9-44-16
		c-6.5,0.8-7.4,3.3-28,17c-22.2,14.8-21,11.8-34.7,21.5c-26.5,18.8-35.9,33.5-44.2,30.1C52.2,204.2,49,202.7,46.3,192.6z"/>
	<path fill="#FF9D00" d="M46.4,244.9c3.5-4.3,26.6,14,62.2,27.2c23.8,8.8,43.3,11.7,56.1,13.5c32.5,4.8,57.5,3.1,64.3,2.7
		c45.4-2.6,297.6-4.5,652.9-6.1c12.9-0.4,31-3.1,47.5-14.7c11.2-7.9,18.8-17.9,20.3-16.7c1.2,0.9-2.3,7.2-13.6,27.3
		c-9.1,16.2-13.6,24.2-14,24.8c-16.8,26.4-70.1,29.9-77,30.2c-53.2,2.9-314.9,4.4-673.4,0.6c-10.8,0-27.4-1-46.7-6.3
		c-23.7-6.5-42.4-11.7-55.2-28.4c-9.5-12.5-4.4-16.6-20.8-45.9C47.1,249.7,45.2,246.4,46.4,244.9z"/>
	<path fill="#DBAD75" d="M169,635.9c0.8-9,3.2-24,12.4-39.3c7.4-12.3,20.5-27.1,48.2-39.5c61.7-27.6,164.6-29.2,232.4-29.3
		c42.1,0,101.8,0.5,171.8,6.8c14.7,1.3,51.2,4.8,97.1,16.5c28.8,7.4,43.6,11.3,58.3,20.4c13,8,46,32.1,62,94.6
		c-16.2,5.2-32.9,10.1-50.3,14.6c-99,25.5-191,30.7-269.9,26.8c-44.8,0.1-95.6-2.7-151-10.6c-83-11.8-154.1-32-211.3-52.7"/>
	<path fill="#DBAD75" d="M145.9,723.1c64.6,22.6,129.1,45.3,193.7,67.9c44.1-6.8,81.2-11.2,108.6-14.1c75.8-7.9,98.9-6.4,115.3-4.5
		c40,4.8,69.1,15.5,78.8,19.3c43.1,16.7,73.9,39.8,92.7,56.2c6.7-6.7,14.7-16.1,21.6-28.6c12.3-22,15.6-42.9,16.5-55.5
		c11.9-0.2,22-0.9,30-1.6c14-1.2,18.5-2.3,22.8-5.5c7.2-5.4,5.2-10.1,11.1-13.9c12.8-7.9,34.2,6.5,36.2,7.9
		c4.9,3.4,11.4,7.9,14.7,16.2c2.7,6.8,1.9,12.8-2.1,28.8c-7.1,28.3-10.9,42.7-19.1,51.2c-7.5,7.8-15.4,11.3-21.5,14
		c-3.7,1.6-29.8,12.7-59.3,3c-10.1-3.3-8.7-5.1-19-9c-22.2-8.3-41.7-4.7-55.1-3.1c-25.4,3.2-51.2-0.9-76.8-1.1
		c-74.4-0.7-69.4-4.9-113.1-3.8c-43.9,1.1-79.3,6.1-102,10c-31.1,5.4-57.3,12.1-77.4,18.1C276,853.5,209.4,832,142.9,810.4
		C143.9,781.3,144.9,752.2,145.9,723.1z"/>
	<path fill="#FF5648" d="M197,653c-4.6,0.8-13.7,2.9-22.4,10c-3.7,3-10.6,8.7-14,18.9c-3.8,11.3-1,21.1,0.2,24.6
		c6.6,4.1,16.5,9.8,29,15.3c8.4,3.7,33.9,14.2,85.4,19.7c21.7,2.4,40.4,3,59.9,3.1c31.2,0.1,74.2-1.3,126.6-7.8
		c10.9,2.4,24.9,5.3,41.2,8.2c0,0,38.5,7,77.2,11.5c40.7,4.7,124.1,9.5,233.3,4.6c2.9-1.3,21.7-10,27.2-30.2
		c4.5-16.3-2.3-30.4-5.2-36.2c-3.7-7.7-8.3-13.1-11.6-16.5C745.2,688.5,666.6,698.8,588,709c-27.5,0.7-56.2,0.4-86-1
		C384.9,702.4,282.2,679.9,197,653z"/>
	<path fill="#FFCE00" d="M156.3,706.4c-4.9,3.8-9.7,7.6-14.6,11.4c67.4,25.7,134.9,51.5,202.3,77.2c27.1-6.7,65.9-14.7,113-19
		c46.8-4.3,87.3-8,135.5,1.3c30.9,5.9,84.5,20.9,143.1,64.8c12.5-26,25-52.1,37.5-78.1c-26.8,0.4-54.5,0.1-83.2-1
		c-74.5-2.8-143.2-10.8-205.3-21.5c-14.9-3-23-4.7-23-4.7C385.7,746.6,381,747,381,747c-31.1,2.6-92.4,4.2-162.1-16.4
		C191.6,722.5,170.2,713.1,156.3,706.4z"/>
</g>
<g id="vs-shade">
	<path opacity="0.4" d="M233.1,84.6c-0.1,1.6-25-1.1-54,13.5c-15.5,7.8-17.7,13.2-18,16.5c-1.3,12.4,20.8,21.9,18.5,27.2
		c-1.7,4-14.4-1.7-31.8,0.4c-21,2.5-40.4,15.5-50.4,32.4c-1.9,3.2-5.4,9.3-6.7,18.1c-0.4,2.5-2.9,21.2,9,36
		c14.3,17.8,38.8,16.8,46.5,16.5c16.6-0.7,20.2-6.7,40.5-12c22.2-5.8,40.2-4.3,55.5-3c20.9,1.7,63.5,5.3,72,25.5
		c1.2,2.8,2.7,8.2,7.5,10.5c6,2.9,12-1.5,19.5-3c13.2-2.6,24.2,5.2,31.5,9c21.7,11.2,46.6,5.1,75,3c24.4-1.8,59.9-1.1,106.5,10.5
		c-16.4,1.6-43.3,3.9-76.5,5.7c-74.8,3.9-115.9,1.1-214.6,1.8c-22.2,0.1-55.9,0.5-97.4,1.6c0.1,4.1,1,13.5,7.5,22.5
		c11.5,15.7,30.5,16.4,33,16.4c-12.4,1.9-28.3,6.6-37.5,19.6c-12.8,18-6.2,42.6-4.5,49.5c9.5,39.5,12.9,147.1,9.9,330.4
		c58.2,23.4,116.4,46.7,174.6,70.1c-0.1,23.4-0.2,46.9-0.3,70.3C291.6,858,234.8,842.5,178,827.1c0.4,29,0.8,58,1.1,87
		c-9.7,0-30.9-1.4-53.2-14.4c-19.1-11.1-30.1-25.6-35.3-33.6c-6-187.5-12-375-18-562.5c-5.6-7.2-13.1-18.4-18.6-33.4
		c-7.5-20.5-7.2-37.1-6.5-61.3c0.9-33.6,1.4-51.2,11.6-71.8c1.9-3.8,12.3-24.4,33.4-40.3C149.1,54.2,233.2,81.7,233.1,84.6z"/>
	<path opacity="0.4" d="M651.6,81.6c0.2,2,24.7-2.1,69,6c33,6,51.8,14.2,66,27c9.3,8.4,14.6,16.9,18,22.5c6.1,10,13,21.3,9,27
		c-3.8,5.4-15.9,3.2-24.1,1.8c-20.9-3.8-29.1-13.4-33.9-9.9c-7.1,5.1,3.5,31.1,3.9,32.2c8.3,20,18.2,23.2,18,36
		c-0.2,10.2-6.5,17.7-10.5,22.5c-9.6,11.4-20.6,14.7-36,21c-11.3,4.6-27.4,11.9-46.5,23c39-1,78-2.1,117-3.1c2,6.5,5.6,15.5,12,25.1
		c6.7,9.9,14,16.7,19.5,21c-1.3,197.1-2.7,394.2-4,591.3c11.1-2.9,24.2-7.3,38.2-14.3c25-12.5,42.8-28.1,54.3-40
		c2.5-188,5-376,7.5-564c3.1-7.9,7.8-19.9,13.6-34.5c11-27.6,11-27.3,11.9-30c8.5-27.1,4.5-51.3,2.1-65.8
		c-3.1-18.7-6-36.3-18.5-53.3c-11.8-16-28.2-26.1-48.3-33.4C804.5,58.5,651.1,76.7,651.6,81.6z"/>
	<path opacity="0.4" d="M212.1,573.6c5.8,3.8-3.8,19.4,1.5,34.5c4.9,13.9,20,20.5,33,25.5c61.5,23.7,94.5,25.5,94.5,25.5
		c141.8,7.6,154.6,11.1,286.5,9c2.4,0,42.3-1.1,93-12c31.2-6.7,54.9-14.8,76.5-33c10.5-8.9,17.8-17.8,22.4-24.3
		c3.9,5.7,7.8,11.4,11.6,17.1c-0.1,18.8-0.3,37.6-0.4,56.4c-18.4,5.4-43.8,12.3-74.4,18.5c-60.9,12.3-108.4,15.2-137.8,16.8
		c0,0-57.1,3.2-116.5,0.4c-142.3-6.8-289.3-48.4-336.4-62.4c1.2-17.3,6-46.5,27.5-64.2C194.7,580.1,206.9,570.1,212.1,573.6z"/>
</g>
<g id="vs-outline">
	<path fill="none" stroke="#000000" stroke-width="18" stroke-linecap="round" stroke-linejoin="round" stroke-miterlimit="10" d="
		M59.1,137.1c4-8.1,10.7-21.2,24-33c26.2-23.2,59.8-25,73.5-25.5c168-6.7,252-10,274.5-9.1c96,3.8,340.8,4.2,429,13.6
		c9,1,32.6,3.7,55.5,19.5c7.2,4.9,25,17.5,34.5,40.5c4,9.7,4.7,23.1,6,49.5c1.3,27.5,1.9,41.4-1.5,49.5c-10.4,24.4-41.8,32.7-54,36
		c-85.4,22.8-707.5,9.6-735,9c-6.9-0.8-15.6-2.1-25.5-4.5c-4.1-1-14.6-3.7-31.5-10.5c-26.3-10.6-39.4-15.9-48-27
		c-6-7.8-8-15.1-10.5-24C38.7,179.7,56.1,143.2,59.1,137.1z"/>
	<path fill="none" stroke="#000000" stroke-width="18" stroke-linecap="round" stroke-linejoin="round" stroke-miterlimit="10" d="
		M46.3,192.6c-2.5,12.4-4,29-0.6,48c2.1,11.9,6.3,34.1,24,54c2.7,3,12,13.1,30,22.5c32.3,16.8,63.9,16.6,72,16.5
		c47.5-0.3,306.2,0.8,661.5,0c4.3-0.7,10.5-1.7,18-3c20.3-3.6,30.5-5.4,40.5-9c6.2-2.2,18.1-6.5,28.5-15
		c19.9-16.4,25.1-40.9,26.7-52.4"/>
	<path fill="none" stroke="#000000" stroke-width="18" stroke-linecap="round" stroke-linejoin="round" stroke-miterlimit="10" d="
		M69.6,294.6c7,190.5,14,381,21,571.5c9.9,12.5,26.4,30,51,43.5c33.1,18.2,63.9,19.9,99,21c77.7,2.4,138.4,0.5,159,0
		c34.7-0.9,76.1-0.6,159,0c57,0.4,114-0.6,171,0c57.5,0.6,90.7,1.6,130.5-16.5c28.4-13,48.7-30.5,61.5-43.5c2.5-188,5-376,7.5-564"
		/>
	<path fill="none" stroke="#000000" stroke-width="14" stroke-linecap="round" stroke-linejoin="round" stroke-miterlimit="10" d="
		M168.6,644.1L168.6,644.1c0.1-11.2,1.9-27.3,10.5-43.5c20.9-39.2,67.8-52.7,114-61.5c74.2-14.2,137.4-12.7,261-9
		c51.2,1.5,141.7,4.7,219,34.5c21.6,8.3,49.8,21.6,66,51c11.6,21,12.6,42.3,12,55.5c-31.2,6.4-74.3,14.3-126,21
		c-61.9,8-153.6,19.8-261,13.5C393.1,701.4,289.9,687.8,168.6,644.1"/>
	<path fill="none" stroke="#000000" stroke-width="14" stroke-linecap="round" stroke-linejoin="round" stroke-miterlimit="10" d="
		M204.1,656.2c-16-2.5-31.9,4.6-40,17.9c-10.7,17.5-2.1,36.2-1.5,37.5c26.1,10.8,64.5,23.9,112.5,30c27.5,3.5,54.7,4.2,94.5,1.5
		c48.6-3.3,121.1-12.1,211.5-37"/>
	<path fill="none" stroke="#000000" stroke-width="14" stroke-linecap="round" stroke-linejoin="round" stroke-miterlimit="10" d="
		M449.7,734.2c43,9.8,91,18.3,143.4,23.8c85.9,9.1,162.9,8.2,228,3c4.3-3.4,15.6-13.3,19.5-30c7-30.2-17.2-53.3-18.3-54.3"/>
	<path fill="none" stroke="#000000" stroke-width="14" stroke-linecap="round" stroke-linejoin="round" stroke-miterlimit="10" d="
		M153.6,707.1c-5,4.5-10,9-15,13.5c0,29.5,0,59,0,88.5c68,22,136,44,204,66c123.9-28.4,211.6-29.9,270-25.5
		c49.4,3.7,99.4-0.6,148.5,6c47.8,6.4,81.1,15.4,102-4.5c18.8-17.9,22.9-54.8,24-64.5c1.5-13.4,0.9-24.9,0-33
		c-17.1-3.3-34.2-6.6-51.2-10"/>
	<path fill="none" stroke="#000000" stroke-width="14" stroke-linecap="round" stroke-linejoin="round" stroke-miterlimit="10" d="
		M138.6,720.6c67,23.5,134,47,201,70.5c31.8-4.4,58.9-7.9,79.5-10.5c84.9-10.7,105.3-11.7,130.3-9.6c10.3,0.9,36,3.5,67.7,12.6
		c50.3,14.4,89.9,37.4,118.5,58.5c6.8-5.3,17.3-15,25.5-30c11-20,12.1-38.9,12-48.1"/>
	<path fill="none" stroke="#000000" stroke-width="14" stroke-linecap="round" stroke-linejoin="round" stroke-miterlimit="10" d="
		M53.1,204.6c23.7-14.9,42.5-28,55.5-37.5c23.8-17.3,34.1-26.4,51-27c14.3-0.5,16.5,5.7,36,10.5c24.1,5.9,36.8,0.4,73.5-3
		c36.4-3.3,32.5,1.3,66-1.5c64.7-5.4,68.4-21.8,108-16.5c36.4,4.8,67.5,21,67.5,21c13.7,7.1,15.4,10.1,25.5,13.5
		c23.5,7.8,42.7,1,70.5-6c45.1-11.3,67.6-16.9,93-15c14,1.1,34.8,6.7,76.5,18c23.7,6.4,34.3,9.9,42,12c26.8,7.3,68,11.6,129-4.5"/>
	<path fill="none" stroke="#000000" stroke-width="14" stroke-linecap="round" stroke-linejoin="round" stroke-miterlimit="10" d="
		M304.7,383.4c-25.9-22.1-57-21.5-70-7c-9,10.1-11.1,29.1-3,40c5.9,8,17,10.1,39,14c23.9,4.2,29.1,1.4,35,7
		c11.3,10.8,10.6,38.6-4.3,50.8c-9.9,8.1-22.9,6.6-34.7,5.2c-21.1-2.5-36.3-12.2-44-18"/>
	<path fill="none" stroke="#000000" stroke-width="14" stroke-linecap="round" stroke-linejoin="round" stroke-miterlimit="10" d="
		M367.7,365.4c1,42.7,2,85.3,3,128"/>
	<path fill="none" stroke="#000000" stroke-width="14" stroke-linecap="round" stroke-linejoin="round" stroke-miterlimit="10" d="
		M354.7,497.3c10.7,0,21.3,0,32,0"/>
	<path fill="none" stroke="#000000" stroke-width="14" stroke-linecap="round" stroke-linejoin="round" stroke-miterlimit="10" d="
		M367.7,365.4c8.2-1.1,20.4-2.1,35,0c14.7,2.1,24,3.4,32,11c8.2,7.8,13.8,20.9,11,34c-2.9,13.6-13.5,20.9-18,24
		c-21.8,15.1-48.3,7.4-53,6"/>
	<path fill="none" stroke="#000000" stroke-width="14" stroke-linecap="round" stroke-linejoin="round" stroke-miterlimit="10" d="
		M525.1,364.2c-19.1,41.6-38.2,83.2-57.4,124.7"/>
	<path fill="none" stroke="#000000" stroke-width="14" stroke-linecap="round" stroke-linejoin="round" stroke-miterlimit="10" d="
		M446.5,493.4c12.7,0,25.5,0,38.2,0"/>
	<path fill="none" stroke="#000000" stroke-width="14" stroke-linecap="round" stroke-linejoin="round" stroke-miterlimit="10" d="
		M525.1,364.2c14.9,41.2,29.7,82.4,44.6,123.6"/>
	<path fill="none" stroke="#000000" stroke-width="14" stroke-linecap="round" stroke-linejoin="round" stroke-miterlimit="10" d="
		M545.2,492.3c14.2-1.1,28.3-2.2,42.5-3.4"/>
	<path fill="none" stroke="#000000" stroke-width="14" stroke-linecap="round" stroke-linejoin="round" stroke-miterlimit="10" d="
		M493.2,444c20.4,0.6,40.9,1.2,61.3,1.8"/>
	<path fill="none" stroke="#000000" stroke-width="14" stroke-linecap="round" stroke-linejoin="round" stroke-miterlimit="10" d="
		M625.7,495.6c6.7-43.1,13.3-86.1,20-129.2c12.3,20.5,24.7,41,37,61.5c13.3-20.5,26.7-41,40-61.5c8.7,39.8,17.3,79.5,26,119.3"/>
	<path fill="none" stroke="#000000" stroke-width="14" stroke-linecap="round" stroke-linejoin="round" stroke-miterlimit="10" d="
		M732.7,491.9c11-0.4,22-0.8,33-1.2"/>
	<path fill="none" stroke="#000000" stroke-width="14" stroke-linecap="round" stroke-linejoin="round" stroke-miterlimit="10" d="
		M608.7,495.6c10.3,0.4,20.7,0.8,31,1.2"/>
</g>
<g id="vs-reveal">
	
		<path opacity="0" fill="none" stroke="#000000" stroke-width="164" stroke-linecap="round" stroke-linejoin="round" stroke-miterlimit="10" d="
		M913.7,99.1c-240.2,31.6-482.9,43.2-725,34.7c-36.7-1.3-75.5-2.6-107.8,14.9c-5.7,3.1-11.7,7.5-12.6,14
		c-1.9,12.9,15.6,18.6,28.6,19.3c241.8,11.9,484.2,12.7,726.1,2.2c47.6-2.1,97-4.2,140.8,14.4c-37.6,17.7-80.7,18.5-122.3,18.8
		c-215.1,1.5-430.8-2.8-644.9,18.3c-36.8,3.6-76.2,9.2-103.1,34.5c-6.9,6.5-13.1,16.1-9.5,24.8c3.6,9,15,11.4,24.6,12.5
		C403.8,340,708,281.5,996.3,352.8c15.1,3.7,33.8,13.5,30.4,28.7c-2.9,12.8-19.2,16.1-32.3,16.9c-236.7,13.5-474.1,9.6-711.2,6.6
		c-72.7-0.9-148.1-1.2-214.6,28.2c-7.6,3.4-15.7,7.8-18.9,15.5c-6.8,16.6,13.1,31.5,30.2,36.8c39.9,12.4,82.3,13,124.1,13.4
		c148.9,1.7,297.9,3.4,446.8-1c83.6-2.4,175.2-4.4,241,47.4c-22.6,12.9-49.1,16.8-74.9,19.8c-241.3,28.7-486.3,6.5-728,32.2
		c-5.4,10.2,1.2,23.4,11.2,29.2c9.9,5.8,22,6.2,33.5,6.4c181.7,3.5,363.5,7.1,545.2,10.6c66.4,1.3,133,2.6,198.7,12.4
		c4.4,0.7,9,1.5,12.1,4.6c9.7,9.9-6.3,24.2-19.5,28.2c-140.4,41.7-290.3,10.3-436-4.4c-129.2-13.1-259.8-12.8-389,0.9
		c-9.2,14.7-0.8,35.3,13.6,45.1s32.5,11.5,49.8,12.8c250,17.6,500.6-16.2,751.2-20.5c12.1-0.2,24.5-0.3,35.9,3.7
		c8.7,3,16.4,8.3,24,13.5c16.3,11.2,32.6,22.4,48.9,33.6c2.9,2,6,4.2,7.4,7.5c3.9,9.5-8.5,17.3-18.5,19.7
		c-38.4,9.2-78.4,9.1-117.8,8.9c-150.8-0.5-301.7-1.1-452.5-1.6c-78.8-0.3-159-0.4-234.4,22.6c-3.7,1.1-7.6,2.4-10.2,5.3
		c-8.7,9.8,4.9,23.9,17.2,28.5c25.8,9.7,53.6,12.1,81.1,14.1c161.4,11.6,323.7,10.2,484.8-4.4c51.7-4.7,103.7-10.7,155.5-6.7
		c-4.6,8.6-16,10.4-25.7,11.2c-238.7,19.5-478.1,31.3-717.6,35.3c7.7,1.1,15.4,2.2,23.2,3.3"/>
</g>
</svg>
