<?xml version="1.0" encoding="utf-8"?>
<!-- Generator: Adobe Illustrator 21.0.0, SVG Export Plug-In . SVG Version: 6.00 Build 0)  -->
<svg version="1.1" xmlns="http://www.w3.org/2000/svg" xmlns:xlink="http://www.w3.org/1999/xlink" x="0px" y="0px" width="1000px"
	 height="1000px" viewBox="0 0 1000 1000" enable-background="new 0 0 1000 1000" xml:space="preserve">
<g id="vs-primary">
	<path fill="#FF9D00" d="M176.7,672.2c16.9-32.4,22.5-38,26.4-56.6c3.7-17.8,0.1-19.8,3-42c4-30.4,14.2-52.8,21-67.5
		c11.4-24.5,15.2-23.4,35.9-59.4c15.5-26.9,12.7-26.5,32-62.6c26.1-48.7,32.4-51.9,41-76.7c8.7-25.2,10.4-45.4,11.9-64.8
		c3.2-39.6-1.3-71.1,9.5-110.1c2.1-7.5,5.8-19.1,16.4-25.7c13-8,28.1-3.3,30.2-2.7c16.8,5.4,25.1,21.1,31.5,33
		c9.9,18.6,6.3,24.8,16.7,40.6c6.6,10,12.3,14,21.9,22.8c17.4,16,27.9,30,42.3,49.2c11.6,15.4,26.7,38.3,40.6,69.7
		c9.3,7.7,23.4,19.2,41.3,32.3c35.4,25.9,48.7,31.4,70,46.1c14.3,9.9,65.1,45.9,99.4,106.2c16.8,29.5,10.5,31.3,33.4,73
		c12.9,23.5,25.5,42.3,31.2,68c4.1,18.6,6.4,32.1,6.4,32.1c3.3,19.3,2.7,21.7,4.9,27.7c4.4,11.8,12.6,18,32.9,32.3
		c41.5,29.1,45.5,29.8,57.5,41.4c22.9,22,25.8,36.4,26.5,41.6c0.7,4.9,2.7,18.7-6.1,30.4c-1.5,2-8.3,10.6-19.5,12.6
		c-11.2,2-20.4-3.8-27-7.5c-17.5-9.8-38-13-57-19.5c-26.6-9.1-43.2-14.8-64.5-18c-29-4.4-51.8-2-69,0c-39.7,4.5-47.9,12.9-87.5,18.2
		c-23.1,3.1-39.2,2.8-64,2.4c-124.7-1.7-35.4,2.5-153.1-0.8c-57.8-1.6-132.2-4-220.4-7.9c-4.8,6.1-12.8,14.7-24.6,22.4
		c-25.9,16.8-51.8,17-64.2,16.9c-20.1-0.1-38.4-0.3-52.7-13.9c-2-1.9-18.6-18.2-14.9-39.8c3.5-20.2,22.2-30.3,25.8-32.2
		c14.7-7.9,22.3-2.8,39-9c15.1-5.6,24.1-15.4,34.5-27C153.3,727.9,152.1,719.4,176.7,672.2z"/>
</g>
<g id="vs-shade">
	<path opacity="0.4" d="M357.6,251.1L357.6,251.1c1.9,8.6,4.4,20.9,6,36c1.5,14.3,2.3,21.5,1.5,28.5c-1.2,10-3.7,13.6-19.5,48
		c-6.2,13.5-9.3,20.3-10.5,24c-6.7,20.9-6.3,38.1-6,43.5c0.8,16.2,4.1,14.7,3,22.5c-3.1,21-26.3,22.1-37.5,46.5
		c-7.4,16-7.6,37.5,1.5,43.5c4.3,2.9,8.5,0.7,33-7.5c33.5-11.3,38.1-11.5,46.5-18c7.1-5.5,11.8-12.7,21-27
		c23.3-36.3,20.9-47.5,36-57c12.1-7.6,28.7-9.9,42-4.5c3.1,1.3,6.1,3,27,28.5c19.1,23.4,22.6,29.3,21,36c-2,8.4-10.7,12.9-12,13.5
		c-10,5.2-16.4-0.4-28.5,1.5c-18.3,2.8-29.5,19.5-31.5,22.5c-8.4,12.5-6.1,21.8-9,39c-6.5,38.7-26,38.9-33,76.5
		c-2.2,11.7-4.3,32.9,4.5,55.5c2.8,7.2,12.7,32.6,27,33c15.5,0.5,19.2-28.9,39-31.5c15.9-2.1,35,14.1,34.5,27
		c-0.6,14.5-25.9,22.2-24,27c1.4,3.4,15.1,0.9,52.5-3c18.6-1.9,21.6-2,25.5,0c16.4,8.2,11.8,31.8,25.5,37.5
		c8.5,3.5,15.8-3.3,34.5-12c8.7-4.1,34.6-16.2,61.5-18c20.4-1.4,37.7,3.4,69,12c21.3,5.9,21.8,7.9,30,7.5c24-1.3,34-20,55-16.5
		c10.4,1.7,14.3,7.4,19,4.7c10-5.6-2.2-32.9,6.6-38.7c10.1-6.7,38.9,20.9,56.5,37.9c31.7,30.5,34.6,43.9,35.4,50.7
		c0.4,3.7,2.7,23.7-10.1,34.7c-10.5,9-25.2,6.9-33,5.7c-16.7-2.4-25.7-9.9-38.3-17.2c-24.2-13.9-46-17.9-70.1-22.2
		c-27.1-4.9-48.2-3.9-66-3c-40.7,2.1-64.8,9.8-90,15c-29.6,6.1-51.4,7.1-130.5,6c-144.7-1.9-300.6-7.9-330-9
		c-5.6,7.1-15.8,18.1-31.6,26.7c-20.1,10.9-38.3,12-49.3,12.5c-21,1-43.9,2-60.4-13.8c-1.1-1-19.3-19-14.9-39.8
		c3.4-15.8,18-24.6,33.3-33.7c15.9-9.5,21.8-8.3,37.5-16.5c0,0,21-11,39-31.5c12.5-14.2,13.6-22.3,36-88.5
		c19.1-56.3,19.9-54.9,24-72c5.6-23,5.8-32.1,13.3-50.5c7.1-17.4,10.7-18.4,27.2-47c10.6-18.4,18-33.7,33-64.5
		c15.8-32.5,16-35.3,24-49.5c13.2-23.6,26.7-41.3,36-52.5"/>
	<path opacity="0.4" d="M368.1,368.1c-6.4,13.9-11.5,25.3-6,33c4.2,5.8,13.1,7.4,19.5,6c14-3,21.4-20.8,21-34.5
		c-0.4-13.1-8.2-28.4-16.5-28.5C379.1,344.1,374,355.1,368.1,368.1z"/>
	<path opacity="0.4" d="M473.1,597.6c-17.4,3.2-30.2,25.2-31.5,45c-0.4,6.1-1.6,23.4,9,30c11.1,6.8,27.3-2.8,34.5-9
		c16.4-14.1,15.2-35.3,15-37.5c-0.3-4.1-1.6-21.1-13.5-27C480.8,596.2,475,597.2,473.1,597.6z"/>
	<path opacity="0.4" d="M589.1,684.4c-2.7,4-3,10-1.1,14.8c1.9,4.6,5.9,8.3,10.6,9.5c6.1,1.6,8.1-2.4,13.8-1.1
		c8.1,1.8,8.4,10.9,14.8,11.7c5.6,0.6,11.8-5.4,13.8-11.7c3-9.8-5.1-18.8-6.4-20.1C622.5,674.2,596.3,673.7,589.1,684.4z"/>
	<path opacity="0.4" d="M384.4,225.1c-3.4,2,2,6-1.5,12.9c-2.1,4.1-5.2,5-4.4,7.4c1.2,3.5,9.6,6.4,16.1,5.5
		c10.5-1.4,18.4-13.1,11.7-20.3C401.3,225.1,388.4,222.8,384.4,225.1z"/>
	<path opacity="0.4" d="M537.2,575c-2.8,2-2.1,9,0,13.7c4.2,9.1,15.8,13,18,10.4c0.7-0.8,0.2-2.7-0.7-6.4c-1.2-4.8-1.9-7.7-3.7-10.4
		C547.4,577.2,540.4,572.8,537.2,575z"/>
</g>
<g id="vs-outline">
	<path fill="none" stroke="#000000" stroke-width="18" stroke-linecap="round" stroke-linejoin="round" stroke-miterlimit="10" d="
		M35.1,825.6c-0.3-26.5,26.5-42.3,28.5-43.5c8.4-4.8,11.6-3.7,22.5-7.5c0,0,21-7.2,45-30c33.6-31.8,63.9-106.2,75-171
		c2.1-12.2,5.8-37.6,21-67.5c6.5-12.7,11.2-18.8,19.5-31.5c18.2-27.9,19.3-35.5,45-84c34.6-65.3,39.3-64.4,46.5-90
		c4.8-17.2,6.7-32.5,10.5-63c4.4-35.4,6.6-53.1,7.5-72c1.5-32-0.5-42.9,9-52.5c9.4-9.5,25.7-13.1,39-9c11,3.4,17.3,11.3,22.5,18
		c12.1,15.6,12.5,27.6,18,42c6.8,17.7,12.1,15.1,48,57c20.4,23.9,30.7,35.8,40.5,52.5c15.2,25.7,13.5,33.5,27,49.5
		c14,16.6,27.8,22.6,46.5,33c0,0,34.8,19.4,79.5,55.5c14,11.3,60.8,49.8,93,112.5c11.2,21.7,6.9,19.7,30,70.5
		c20.6,45.2,25.7,50.7,28.5,70.5c2.8,19.7-0.1,30.3,9,45c6.2,10.1,14.2,15.8,30,27c20.8,14.8,23.9,12.3,39,24
		c4.7,3.6,21.1,16.7,34.5,39c8.8,14.7,14,23.3,12,34.5c-2.3,13.3-13.9,25.6-27,28.5c-12.1,2.6-16-4.9-46.5-16.5
		c-13.9-5.3-11.7-3.2-48-15c-25.1-8.2-24.3-8.6-31.5-10.5c-22.1-5.9-41.6-5.4-66-3c-42.3,4.2-71.3,11.3-90,15
		c-26.1,5.2-59.2,5.5-124.5,6c-49.6,0.4-97.6-0.3-181.5-3c-38.3-1.2-91.1-3.1-154.5-6c-6.4,7.9-25.6,29.4-58.2,37.1
		c-22,5.1-39.4,1.4-51.3-1.1c-17.1-3.6-35-7.4-43.5-22.5C35.3,836,35.1,828.6,35.1,825.6z"/>
	<path fill="none" stroke="#000000" stroke-width="18" stroke-linecap="round" stroke-linejoin="round" stroke-miterlimit="10" d="
		M72.6,778.3c24.2-1.4,44.6-3.4,60-5.2c24.8-2.9,32.3-4.7,40.5-9c15.6-8.2,21.1-18.9,33-33c20.2-23.9,27.7-20.8,54-45
		c29.4-27,23.1-34.7,64.5-81c27.8-31.1,28-26.4,45-48c26.6-33.8,43.1-48.1,51-63c19-36.1,13.3-57.5,28.5-63
		c16.3-5.9,37.5,13.4,52.5,27c29.3,26.6,24.9,40.3,51,64.5c23.2,21.6,29.4,13.1,63,39c23.3,18,20.6,21.8,57,55.5
		c21.3,19.7,20.2,16.6,54,46.5c24.8,22,38.7,34.3,57,52.5c30.5,30.4,29.9,33.9,43.5,42c22,13,33.8,9.6,64.5,19.5
		c15.8,5.1,38.4,14.3,64.2,32.2"/>
</g>
<g id="vs-reveal">
	<path opacity="0" fill="none" stroke="#000000" stroke-width="97" stroke-miterlimit="10" d="M348.6,119.5
		c19.1-2.7,38.3-5.4,57.4-8.1c6.9-1,16.1-0.6,18.1,6.1c2.3,7.7-7.7,13-15.6,14.3c-20.2,3.4-41.1,3.2-61.2-0.8c0,3.9,0,7.9,0,11.8
		c15.6,10.3,36.1,5.7,54.7,5.4c18.7-0.3,41.8,9.5,41.4,28.1c-27.4-0.7-54.8-1.3-82.2-2c-5-0.1-10.4-0.1-14.6,2.7
		c-4.2,2.8-5.9,9.6-2.1,12.8c35.9-0.4,71.9-0.7,107.8-1.1c6.9-0.1,14.3,0,20.2,3.7c5.9,3.7,9.1,12.4,4.7,17.7
		c-38.7-0.3-77.3-0.6-116-0.9c-10.8-0.1-26.3,6.8-21.1,16.3c2.6,4.7,8.8,5.5,14.1,5.7c59.6,2.4,119.5-0.7,178.5-9.4
		c5.6,9.1,1.5,21.7-6.6,28.7c-8.1,7-18.9,9.7-29.4,11.8c-53.7,10.6-109.5,10.2-163-1.1c-9.3-2-19-4.2-28.1-1.4
		c-9,2.9-16.5,13.1-12.6,21.8c2.8,6.2,9.8,9,16.3,11c34.1,10.8,69.9,16.1,105.7,15.4c38-0.6,75.8-7.9,113.8-7.6
		c13.4,0.1,31.1,5.4,30.6,18.9c-0.5,13.1-17.7,17.3-30.9,17.7c-58.6,1.6-117.3,1.7-176,0.3c-12.6-0.3-25.8-0.6-37.2,4.8
		c-11.4,5.4-20.4,18.3-16.9,30.4c100.2-1.9,200.5-3.9,300.7-5.8c15.8-0.3,37.6,5.5,35.8,21.2c-1.5,13-18.4,16.9-31.5,17.3
		c-99.1,3.6-198.2,4.5-297.3,2.6c-8.2-0.2-16.8-0.3-24.1,3.5c-7.3,3.8-12.6,12.8-9.3,20.4c3.8,8.8,15.5,10.1,25.1,10.1
		c104.4-0.3,208.7-0.7,313.1-1c30.4-0.1,61.3-0.1,90.2,9.2c11.9,3.8,25.3,12.7,23.6,25c-1.8,13.4-19,17.5-32.5,18.3
		c-143.1,8.1-286.7,4-429.8-3.2c-16.6-0.8-36.5-0.1-45.2,14c-8.6,13.8-0.1,33,13.7,41.7s30.8,9.6,47,10.2
		c77.8,3.2,156.5,6.3,232.8-9c73.5-14.7,146.8-46.5,220.7-33.6c17.2,3,37.8,14.4,34.5,31.5c-3.2,16.2-24.4,19.9-40.9,20
		c-157.5,0.5-315.1,1.1-472.6,1.6c-11.6,0-23.8,0.2-34,5.9c-10.2,5.7-17.1,18.8-12,29.3c5.6,11.3,20.7,13,33.4,13.1
		c176.3,2,352.6,1.3,528.9-2.2c14-0.3,28.4-0.5,41.3,5c12.9,5.4,23.8,18.1,22.5,32.1c-1.1,12.3-11.4,22.1-22.9,26.5
		s-24.1,4.4-36.4,4.3c-183.3-1-366.5-1.9-549.8-2.9c-10.3-0.1-22,0.5-28.8,8.3c-8.8,10.1-3.2,27.1,7.8,34.8c11,7.6,25.2,8.5,38.7,9
		c124.9,5,249.9,5.1,374.8,5.1c66.1,0,132.7,0,197.7-11.9c12.6-2.3,26.1-5,37.9,0s19.5,21.4,11.1,31.1c-4.4,5.1-11.6,6.6-18.2,7.8
		c-87.2,15.2-176.1,15.6-264.6,16c-88.2,0.4-176.7,0.7-264.2-10.3c-67.4-8.5-135-23.8-202.6-16.8c-7.6,0.8-15.9,2.2-20.8,8.1
		c-7.3,8.7-2.8,23,6.3,29.7c9.1,6.8,21.1,8,32.4,8.9c60.4,4.8,121,5.9,181.5,7c81.4,1.5,162.7,3,244.1,4.5
		c90.1,1.6,181,3.2,269.3-14.5c20.3-4.1,40.7-9.2,61.5-9c20.8,0.2,42.5,6.4,56.5,21.8c1.7,1.9,3.3,3.9,3.9,6.4
		c2.4,9.3-9.7,15.2-19.2,16.8c-45.8,7.7-92.6,6.6-139.1,5.3c-100.9-2.7-201.9-5.9-302.3-15.9c-146.4-14.6-293-43.6-439.5-29.6
		c-8.6,8.8-1.9,24.9,9.2,30.3c11.1,5.4,24.1,3.7,36.4,2.8c42.1-3.1,85,4.9,123,23.1c-58.9,8.3-119.4,5-177.1-9.7"/>
</g>
</svg>
