<?xml version="1.0" encoding="utf-8"?>
<!-- Generator: Adobe Illustrator 24.3.0, SVG Export Plug-In . SVG Version: 6.00 Build 0)  -->
<svg isCommex="true" version="1.1" id="Layer_2_1_" xmlns="http://www.w3.org/2000/svg" xmlns:xlink="http://www.w3.org/1999/xlink" x="0px" y="0px"
	 width="1163px" height="1126px" viewBox="0 0 1163 1126" enable-background="new 0 0 1163 1126" xml:space="preserve">
<path fill="#D0D0D0" d="M926,241c-0.3-0.3-0.5-0.6-0.8-0.9c-0.3-0.3-0.5-0.6-0.8-0.9c-2.9-3.5-2.8-6.8-2.5-15.6
	c0.1-1.1,0.1-2.2,0.1-3.5c0-1.1,0-2.2,0.1-3.4c0.2-10.6-5.5-10.9-11.1-11.2c-1,0-1.8-0.1-2.6-0.2c-4.2-0.5-6.5-5.9-9-11.6l-0.3-0.7
	c-1.6-3.7-3.5-7.8-5.9-11c-4-5.4-9.2-4.8-16.6-3.3c-0.5,0.1-1.1,0.2-1.6,0.3c-1,0.2-2.1,0.4-3.1,0.6c-5.6,0.7-8.5-2.7-11.6-6.3
	c-2.1-2.4-4.3-4.9-7.6-7c-6.2-3.8-17.5,3.5-21.2,6.5c-0.3,0.2-0.9,0.5-1.5,0.4c-0.1,0-0.2-0.1-0.2-0.1c0,0-0.1,0-0.1,0l-0.2-0.1
	h-0.1c-0.1,0-0.2-0.1-0.4-0.1c-1.6-0.6-6.3-2.2-13.2-4c-6.5-1.6-13.2,4.1-15.4,6l-0.1,0c-0.2,0.2-0.4,0.4-0.6,0.5
	c0,0-0.1,0.1-0.1,0.1l-0.1,0.1c-0.1,0-0.1,0.1-0.2,0.1l0,0l-0.6,0.2h-1.1l0.1,0.3c-0.5,0-1.2,0-2-0.1l-0.2,0
	c-3.9-0.3-11.9-0.9-19.1,5.3c-4.5,3.9-7.2,8-8.7,10.8l-1.8,3.2l3.2-1.9c0.3-0.2,0.5-0.3,0.8-0.5c0.3-0.2,0.5-0.3,0.8-0.5
	c10.3-6.5,19.9-11,28.7-13.3l1-0.3l0-0.1c9.7-2.4,14.9-1.2,15.5-1.1l0.1,0l0.3,0.3l0.6-0.3c5.4-2.7,12-2.7,12.1-2.7
	c0.1,0,0.3,0.1,0.5,0.1c0.8,0.4,1.3,1.1,1.3,1.8c0,1.1-0.9,2-2,2c-0.1,0-3.1,0.1-6.4,0.9c-3.2,0.8-7.2,2.5-8.3,6.1
	c-0.6,2.4,0,3.3,0.6,3.9l0.1,0.1c1.9,1.4,5.6,0.8,7.2-0.2c4-2.9,23.7-11.5,47.4-0.5c19.4,9,44.5,24.6,39,56.6
	c-1.3,7.5-3.1,13.7-5.8,19.3l-0.6,1.3l1.4,0.2c5.5,0.6,11.3,2.5,17.1,5.7l1.5,0.8v-1.7c0-1.8,1.1-4.3,2.8-8.3c0.3-0.8,0.7-1.6,1-2.5
	c0.8-2,1.8-4.2,2.8-6.7C931.6,246.8,928.7,243.8,926,241z"/>
<g>
	<path fill="#808080" d="M1038.4,746l0-0.1c0-0.3-0.1-0.7-0.1-0.8l0.1-0.2l0-0.2c-0.4-2.2-6.6-4.2-10.9-4.8c-1-0.1-1.7-0.9-1.7-1.7
		c0-0.2-0.2-1.6-0.3-2.8c-0.4-3.8-1-10.1-1.3-15c-0.2-3.8-2.8-9.8-8.1-14.1c-5.7-4.7-13.3-6.5-22.4-5.2
		c-10.4,1.4-28.4,5.7-31.6,18.3c-1.4,5.5-0.6,16.6,0.1,21.8v0.9l0.6,0.4c1.7,1.1,4.4,3,6.4,4.2c2.5,1.5,2.9,4.8,3.2,8.9l0,0.1
		c0.2,2.3,0.4,4.8,1.1,6.5c0.2,0.7,1,1.1,1.4,1.2c1,0.4,2.3,0.5,3.7,0.5c3.3,0,7.1-0.9,8-1.3c1-0.5,2.1-1.7,1.7-9.3
		c-0.4-7.2-4-9-7.1-10.5c-0.2-0.1-0.3-0.2-0.5-0.3c-0.1-0.1-0.2-0.1-0.3-0.2l-1-0.6c-3.1-1.6-5.2-3.2-5.3-10.1
		c-0.1-6.4-0.3-18.4,20.7-20.1c5.5-0.5,9.9,0.7,13,3.7c5.9,5.2,6.1,14.5,6.2,18.5c0,0.5,0,0.9,0.1,1.3c0,0.2,0,0.3,0,0.4v0.2
		l0.1,0.2c0,0.1,0,0.2,0,0.4l0,0.2c0.2,1.6,0.5,2,2.1,3.5l1.4,1.4c2.8,2.7,3.2,6.3,3.6,9.8l0,0.2c0.1,1.1,0.2,2.2,0.4,3.4l0.1,0.3
		c0.3,0.6,0.9,1.2,1.8,1.6c2.8,1.6,8.4,2.1,12.6,0.4C1039.8,755,1039.4,751.2,1038.4,746z"/>
	<path fill="#808080" d="M952.6,605l-1.3,0.6c-19.5,9-56.2,15.6-89.2,16.1l-1.3,0l0.3,1.2c1.5,6.2,2.2,10.7,2.4,11.5
		c1,6,2.6,20.5,4.2,36.9l0.1,1.1l1.1-0.2c38.9-7.2,77.3-15.4,81.4-29.2c0.4-1.4,0.7-2.8,1-4.4c2.1-10.8,1.8-24.8,1.4-32.2L952.6,605
		z"/>
</g>
<g id="vs-secondary">
	<path fill="#6495FB" d="M1088.5,879.7l-0.1-2.9c-4.1-118.1-7.5-133.5-8.5-135.5c-4-6.8-9.6-7.9-19.2-7.7
		c-5.9,0.1-16.7,1.5-24.6,2.6l-3.5,0.5l3.2,1.4c3.7,1.6,5.8,3.6,6.2,6l0.3,1.5c1.2,5.8,1.9,12.2-4.7,15.1c-4.7,2.1-11.7,1.9-16-0.5
		c-2.8-1.5-3.7-3.4-4-4.7c-0.2-1.2-0.4-2.5-0.5-3.7c-0.3-2.9-0.6-5.8-2.5-7.7l-1.3-1.3c-1.3-1.3-2.2-2.2-2.7-3.4l-0.3-0.7L986,741
		l1.6,1.5c2.7,2.6,4.2,6.1,4.4,10.6c0.6,10-1.2,11.8-3.8,13.1c-1.1,0.6-5.4,1.7-9.7,1.7c-1.7,0-3.4-0.3-5-0.7
		c-2.7-1-3.6-2.5-3.9-3.4c-1-2.5-1.3-5.4-1.5-8c-0.1-2.2-0.4-4.9-1.1-5.8l-0.1-0.1l-0.1-0.1c-2.2-1.3-5.2-3.4-6.9-4.6
		c-0.6-0.4-0.8-0.6-1-0.7c-0.1-0.2-0.3-0.3-0.4-0.4l-0.3-0.3l-0.7,0c-12.4,0.3-28.8,1.3-35.8,4.3c-10.3,4.3-15,10.6-15.3,20.6
		c-0.2,6.2,0.4,26.1,1,42.7c0.8,20.5,1.3,41.6,1.5,56.5c0.3,32.6,1.2,38.8,6.7,43.8c1.5,1.4,3.3,2.7,5.4,3.8c4,2.3,8.3,3.6,10.5,3.6
		c0.3,0,0.6,0,0.8-0.1c3.3-0.9,39.4-5.5,58.6-7.9l1.1-0.1c74.6-9,86.2-11.5,88.5-12.7C1084.5,896,1088.8,887.8,1088.5,879.7z
		 M988.6,813.1c-0.1-2.7-0.1-5.3-0.1-7c0-0.6,0.4-1,1-1c0.3,0,0.4,0.1,0.5,0.1l0.3,0.2h0.3c1.1,0,6.5-0.1,11.4-0.5
		c2.2-0.2,5.3-0.6,8.3-1.1l1.8-0.3c5.2-0.7,7.8-1.1,8.6-1c0.4,0.1,0.9,0.3,1.3,1.2c0.3,0.8,0.6,2.1,0.7,3.7l0.2,1.5l1.3-0.8
		c2.7-1.6,8.3-5.9,15.1-17.2c2.4-3.7,4.8-8.3,7.4-13l1.4-2.6c10.7-19.7,18.1-32.6,24.3-32.2c0.2,0,0.4,0.1,0.5,0.3
		c0.2,0.2,0.3,0.5,0.3,0.8c0,0.2-0.1,0.4-0.3,0.5c-0.2,0.2-0.5,0.3-0.7,0.3c-4.8-0.4-12.5,13-22,30.5l-0.3,0.6
		c-0.8,1.4-1.5,2.7-2.2,4c-2.3,4.3-4.5,8.3-6.7,11.7c-9,14.7-15.7,18-17.5,18.7l-0.7,0.2v0.7c0,3.3-0.4,6.1-1.1,7.1
		c-1.7,2.4-19.9,4.4-26.5,4.4c-3.9,0-5-0.4-5.5-1.2c-0.2-0.3-0.8-1.6-1.1-5.5l-0.1-1.6l0.1,0L988.6,813.1z M913.4,758.6
		c0.1-0.1,0.3-0.4,0.7-0.4c0.4-0.1,9.5-1.8,12.6,4.6c6.8,14.3,26.1,47.9,60.2,51.1c0,0,0.2,0,0.3,0.1l1.3,0.7l-1.4,0.9
		c-0.2,0.1-0.4,0.2-0.6,0.3c-35.1-3.3-54.8-37.5-61.6-52.1c-1.5-3.2-5.2-3.8-7.8-3.8c-1,0-1.9,0.1-2.5,0.2l-0.1,0
		c-0.6,0.1-1.1-0.3-1.2-0.8C913.2,759.1,913.3,758.8,913.4,758.6z M928.9,906.3c-0.7,0-1-0.5-1-0.9l-6.5-136.1
		c0-0.2,0.1-0.5,0.2-0.7c0.2-0.2,0.4-0.3,0.7-0.3c0.5,0,1.1,0.4,1.1,0.9l6.5,136.1C930,905.9,929.4,906.3,928.9,906.3z"/>
</g>
<g id="vs-primary">
	<path fill="#E20142" d="M1033.8,420.3c-9.5-38.2-39.6-56.1-86.9-51.7c-44.4,4.3-51.8,47.8-52.5,52.8l0,0.2c0,0.1,0,0.1-0.1,0.3
		l-0.2,0.7l0.3,0.4c10.7,13.3,20.5,27.7,29.1,42.9c25,44.2,43.9,112.1,39.8,130.6c-0.1,0.4-0.2,0.5-0.3,0.7
		c-1.1,1.7-3.2,3.5-6.1,5.3l-0.5,0.3l0.1,0.6c0,0.2,1.4,18-0.8,32.7l-0.2,1.1l1.1,0c2.5,0.1,9.1,0.7,15.3,5c0.9,0.7,1.2,1.9,0.6,2.8
		c-0.4,0.5-1.1,0.9-1.7,0.9c-0.5,0-0.8-0.1-1.1-0.3c-5.9-4.1-12.4-4.4-14.3-4.4h-0.8l-0.2,0.7c-0.1,0.3-0.2,0.7-0.3,1
		c-0.1,0.3-0.2,0.7-0.3,1c-4.4,14.7-33.2,22.6-84.9,32.1l-0.9,0.2l0.7,7.3c0.6,6.3,1.3,12.9,1.9,19.6l0.1,1l1-0.1
		c3.8-0.5,11.6-1.8,21.9-3.7c13.4-2.4,38.8-7.5,57.4-13.7c5.4-1.8,9.9-3.6,13.4-5.4c18-9.1,20.3-20.4,24.8-42.8
		c1.5-7.7,3.2-15,5-22.2c1.4-5.2,3.4-12.3,5.7-20.4l2.4-8.5C1017.2,536.5,1041.6,451.4,1033.8,420.3z"/>
	<path fill="#E20142" d="M221,629c-0.1-0.1-0.2-0.2-0.3-0.3l0-0.1c-0.3-0.3-6.6-8.9-7.5-48.1c-0.4-19.8,0.4-47.1,1.2-71.1
		c0.8-26.3,1.5-49.2,1-62.9c-0.7-18.2-7-33.8-17.2-42.9c-8.3-7.4-19.1-10.6-32.1-9.5c-17.4,1.4-37.2,7.3-53.1,15.8
		c-17.3,9.2-27.2,19.8-27.6,29.9c-0.6,12.6,6,63.2,13.4,118.5c4.3,32.5,9.3,69.4,9.9,81.2c0.2,3.8,0.3,7.4,0.4,11l0,0.6
		c0.6,21.9,1,37.7,17.2,47.1c1.9,1,4.1,2,6.4,2.9c5.4,2,12.6,3.9,21.9,5.8c14.6,3,31,5.1,42.2,6.3c7.3,0.8,13.6,1.4,16.1,1.6l1,0.1
		l0.1-1c1.2-12.6,2.3-25.2,3.2-36.3c0.3-3.5,0.6-6.8,0.9-10.1l0.5-5.3c1.2-13.7,2.1-24.5,3-32l0.1-0.5l-0.3-0.3
		C221.2,629.1,221.1,629,221,629z M201.7,635.7c-0.3,0.5-0.7,0.8-1.2,0.9v0c-1.7,0.4-49.3,12.1-61.5,19.1
		c-9.9,5.7-13.8,13.3-15.3,17.4l-0.1,0.3c-0.3,0.8-1.2,1.2-1.9,1.2c-0.1,0-0.4,0-0.6-0.1c-0.5-0.2-0.9-0.6-1.2-1.1
		c-0.2-0.5-0.2-1-0.1-1.4l0.1-0.3c2.9-8,9-14.9,17.1-19.5c9-5.1,38-13.3,62.1-19.3l0.4-0.1c0.2,0,0.3-0.1,0.5-0.1
		c0.4,0,0.7,0.1,1,0.3c0.5,0.3,0.8,0.7,0.9,1.2C202.1,634.8,202,635.3,201.7,635.7z"/>
</g>
<path fill="none" stroke="#000000" stroke-width="6" stroke-linecap="round" stroke-linejoin="round" stroke-miterlimit="10" d="
	M771.7,209.9c0,0,7.7-4.1,12.9,0"/>
<path fill="none" stroke="#000000" stroke-width="6" stroke-linecap="round" stroke-linejoin="round" stroke-miterlimit="10" d="
	M837.4,214.3c0,0,12.5-3.3,21.7,6.4"/>
<path fill="none" stroke="#000000" stroke-width="6" stroke-linecap="round" stroke-linejoin="round" stroke-miterlimit="10" d="
	M745.6,271.5c0,0-21.9,0.8-25-4s-3.9-28.7,3.6-32c16.7,0.1,46.9,2.9,49.3,3.3c2.4,0.5,7.7,2.1,9.2,9.1c-0.1,7.2-0.8,19.4-0.8,19.4"
	/>
<path fill="none" stroke="#000000" stroke-width="6" stroke-linecap="round" stroke-linejoin="round" stroke-miterlimit="10" d="
	M783.3,257.8c0,0,8.3-2.9,14.3,1"/>
<path fill="none" stroke="#000000" stroke-width="6" stroke-linecap="round" stroke-linejoin="round" stroke-miterlimit="10" d="
	M798.2,273.5c0,0,1.3-26,2.9-26.7s29-2.2,44.5,0.6s19,3.9,19,3.9s1.3,28.7-3.6,32.2c-4.8,3.6-55.8-4.8-61.5-8.5"/>
<path fill="none" stroke="#000000" stroke-width="6" stroke-linecap="round" stroke-linejoin="round" stroke-miterlimit="10" d="
	M866.2,267c0,0,41.7,26.2,44,28"/>
<path fill="none" stroke="#000000" stroke-width="6" stroke-linecap="round" stroke-linejoin="round" stroke-miterlimit="10" d="
	M798.2,271.6c0,0-28.7-6.1-40.4-3.8c-11.7,2.3-22.2,21.4-22.9,34.7c-0.6,13.3,5.3,36,36.7,37.9s47.6-31.4,47.6-31.4"/>
<path fill="none" stroke="#000000" stroke-width="5" stroke-linecap="round" stroke-linejoin="round" stroke-miterlimit="10" d="
	M729.6,342c0,0-2.2,22.5,41.7,29.7s63.5-25.9,63.5-25.9"/>
<path fill="none" stroke="#000000" stroke-width="5" stroke-linecap="round" stroke-linejoin="round" stroke-miterlimit="10" d="
	M901.2,341.2c0,0,10.5-23.7,27.1-22.6"/>
<path fill="none" stroke="#000000" stroke-width="5" stroke-linecap="round" stroke-linejoin="round" stroke-miterlimit="10" d="
	M762,395.5c0,0,7.3,15,17.7,15.9"/>
<path fill="none" stroke="#000000" stroke-width="6" stroke-linecap="round" stroke-linejoin="round" stroke-miterlimit="10" d="
	M736.7,234.2c0,0,6.4-21.9,35-40.1s43.6-14.4,43.6-14.4"/>
<path fill="none" stroke="#000000" stroke-width="6" stroke-linecap="round" stroke-linejoin="round" stroke-miterlimit="10" d="
	M828.9,177.2c0,0-14.1,0-16.7,8.4c-2.6,8.4,7.5,8.4,10.9,6s22.3-11,45.4-0.3s42.8,25.9,37.9,54.5S890,272,891.3,289.6
	c1.2,11.2,10.7,16,10.7,16s9.9-14.9,25.8-10.6c15.9,4.3,20.3,25.1,15.1,39s-26.1,17.4-26.1,17.4s-7,13.5-17.5,12.7
	s-13.5-15.2-13.5-15.2"/>
<path fill="none" stroke="#000000" stroke-width="6" stroke-linecap="round" stroke-linejoin="round" stroke-miterlimit="10" d="
	M762.9,198.5c0,0,2.2-9.8,12.2-18.5s22-5,23.2-6c1.2-0.9,9.3-9.3,17.9-7.1s13.9,4.4,13.9,4.4s14.8-12.2,23.6-6.8s10.3,14,17.9,13
	s16.8-5.4,23.2,3.2c6.4,8.6,8.7,21.8,13.9,22.5s15.7-1,15.4,13.5s-1.1,17.6,1.8,21.2c3,3.6,8.5,6.9,4.6,17s-7.3,15.6-6.4,17.4
	s7.8,3.4,7.1,11.2c-0.7,7.8-6.9,10.7-6.6,10.7"/>
<path fill="none" stroke="#000000" stroke-width="6" stroke-linecap="round" stroke-linejoin="round" stroke-miterlimit="10" d="
	M728.3,272.4c0,0-2.8,18.6-8.8,36.9c-6.1,18.2-15.9,78.3,19.6,104.2"/>
<path fill="none" stroke="#000000" stroke-width="6" stroke-linecap="round" stroke-linejoin="round" stroke-miterlimit="10" d="
	M739,403.5c0,0,0.5,30.5,37.1,36.4c36.7,5.8,59.8-21.9,59.8-21.9"/>
<path fill="none" stroke="#000000" stroke-width="6" stroke-linecap="round" stroke-linejoin="round" stroke-miterlimit="10" d="
	M817,434c0,0,21-0.5,40.6-22.9c19.6-22.5,22.8-47.6,29.9-54.9"/>
<path fill="none" stroke="#000000" stroke-width="6" stroke-linecap="round" stroke-linejoin="round" stroke-miterlimit="10" d="
	M734.5,409.8c0,0-5.9,36.7,7.6,46.7c7.9-10.9,22.7-17.9,22.7-17.9s-6.1,20.4,6,28.5s24.2,1.6,25.4,0c1.3-1.6,9.3-13.6,9.3-13.6"/>
<path fill="none" stroke="#000000" stroke-width="6" stroke-linecap="round" stroke-linejoin="round" stroke-miterlimit="10" d="
	M793.7,441.3c0,0,15.1,13.1,23.3,23c9.4-15.6,24-39,24-39"/>
<path fill="none" stroke="#000000" stroke-width="6" stroke-linecap="round" stroke-linejoin="round" stroke-miterlimit="10" d="
	M721.6,392.1c0,0-25,9.6-63.6,6.3"/>
<path fill="none" stroke="#000000" stroke-width="6" stroke-linecap="round" stroke-linejoin="round" stroke-miterlimit="10" d="
	M658.7,409.8c-0.3,0.4-3.6-15.1-1.1-42.4c2.4-27.3,8.5-51.8,8.5-51.8s-25.2,15.2-50.6,8.8c-14.4-5.2,7.6-16.5,13.1-16.3"/>
<path fill="none" stroke="#000000" stroke-width="6" stroke-linecap="round" stroke-linejoin="round" stroke-miterlimit="10" d="
	M633.8,324.4c0,0-1.3-18.9-7.6-24.6s-24.6-17.1-38.1-22.6s-33.2-25-35.7-41.3c-2.4-16.3,13.8-15.5,19.9-1.8c3.6,8.3,12.2,18.2,15,19
	"/>
<path fill="none" stroke="#000000" stroke-width="6" stroke-linecap="round" stroke-linejoin="round" stroke-miterlimit="10" d="
	M552.3,229c-0.8-1-8.5-18.2,1.8-22.1c10.3-3.9,17.9-0.7,26.4,14.1s15.6,21.9,15.6,21.9"/>
<path fill="none" stroke="#000000" stroke-width="6" stroke-linecap="round" stroke-linejoin="round" stroke-miterlimit="10" d="
	M556.3,205.4c0,0-3.4-13.6,7.9-12.7c11.3,0.9,18.9,6.8,25.7,17.4c6.8,10.7,11.9,21,15.8,21.9"/>
<path fill="none" stroke="#000000" stroke-width="6" stroke-linecap="round" stroke-linejoin="round" stroke-miterlimit="10" d="
	M568.6,190.8c0,0,8.9-12.7,25-0.1s35.9,53,48.6,57.1"/>
<path fill="none" stroke="#000000" stroke-width="6" stroke-linecap="round" stroke-linejoin="round" stroke-miterlimit="10" d="
	M644.4,254c0-0.7-1.9-14.7,1.4-27.4s34.6-24.6,38.4-7.9c0.3,11.1-16.9,20.3-18,37.8s2.5,17.4,2.1,26.9c-0.5,9.5-6.3,15.1-7,18.5
	s1.5,14.2,1.5,14.2"/>
<path fill="none" stroke="#000000" stroke-width="6" stroke-linecap="round" stroke-linejoin="round" stroke-miterlimit="10" d="
	M633.8,316.4c0,0,5.2,5.5,8.1,6.5c-5.2,1-5.2-0.5-5.2-0.5"/>
<path fill="none" stroke="#000000" stroke-width="5" stroke-linecap="round" stroke-linejoin="round" stroke-miterlimit="10" d="
	M635.2,270.4c0,0,14,10,15.6,16.8"/>
<path fill="none" stroke="#000000" stroke-width="6" stroke-linecap="round" stroke-linejoin="round" stroke-miterlimit="10" d="
	M610.6,318.9l-3,3.4c0,0,3.1,31.9,4.1,58.1c1.1,26.1-1.9,59.5,2.1,62.4s31.8,5.4,69.7,10.4s47.5,7.5,48.2,9.5c0.6,2-0.3,20.3-1.4,33
	s-0.8,37.3,2.9,39.7"/>
<path fill="none" stroke="#000000" stroke-width="6" stroke-linecap="round" stroke-linejoin="round" stroke-miterlimit="10" d="
	M769.4,468.3c0,0-14.4,65.4-9.1,77.5"/>
<path fill="none" stroke="#000000" stroke-width="6" stroke-linecap="round" stroke-linejoin="round" stroke-miterlimit="10" d="
	M795.1,469.2c0,0,0.2,6.1,6,31c5.8,24.9,9.2,49.1,9.2,49.1"/>
<path fill="none" stroke="#000000" stroke-width="6" stroke-linecap="round" stroke-linejoin="round" stroke-miterlimit="10" d="
	M735,538.6c-0.9-0.8-24.4-5.5-31.9-3.2S681.9,558,681.9,558"/>
<path fill="none" stroke="#000000" stroke-width="6" stroke-linecap="round" stroke-linejoin="round" stroke-miterlimit="10" d="
	M877.8,482.8c0,0-24.8,120.9-50.3,123.2c-18.8,0-97.7-17.6-102.3-20.8s-4.6-9.6-4.6-9.6c-3.4-25.2,17.1-39.3,17.1-39.3
	s3.8,5.8,24.3,10.7s46.8,6,50.4,3.5c3.7-2.4,25.2-89.6,25.2-89.6"/>
<path fill="none" stroke="#000000" stroke-width="6" stroke-linecap="round" stroke-linejoin="round" stroke-miterlimit="10" d="
	M877.1,495.4c0,0,6.3,0.9,8.8,0"/>
<path fill="none" stroke="#000000" stroke-width="6" stroke-linecap="round" stroke-linejoin="round" stroke-miterlimit="10" d="
	M868.9,398.4c0,0,27.9,24.5,53,68.6s43.5,111.7,39.6,129.2c-6.9,10.5-54.1,23.2-100.9,23.4"/>
<path fill="none" stroke="#000000" stroke-width="6" stroke-linecap="round" stroke-linejoin="round" stroke-miterlimit="10" d="
	M954.6,603.7c0,0,1.9,25.3-2.4,39.9c-4.3,14.4-38,22.3-85.3,31"/>
<path fill="none" stroke="#000000" stroke-width="6" stroke-linecap="round" stroke-linejoin="round" stroke-miterlimit="10" d="
	M955,639.5c0,0,8.5-0.5,15.9,4.7"/>
<path fill="none" stroke="#000000" stroke-width="6" stroke-linecap="round" stroke-linejoin="round" stroke-miterlimit="10" d="
	M718.6,568.9c0,0-39.8-11.8-172.1-15.1"/>
<path fill="none" stroke="#000000" stroke-width="6" stroke-linecap="round" stroke-linejoin="round" stroke-miterlimit="10" d="
	M522.1,407.9c0,0,5.7-4.3,17.7-0.3c-2.2,11.2-2.1,21.1-1.8,44.9s4.7,90.7,4.1,106.2c-0.6,15.4-9.5,28.4-19.6,27.5s-17.1-9-14.5-35.2
	c2.6-26.1,11.3-75.2,13.1-98.6C523,429,522.1,407.9,522.1,407.9z"/>
<path fill="none" stroke="#000000" stroke-width="6" stroke-linecap="round" stroke-linejoin="round" stroke-miterlimit="10" d="
	M530.9,405.4c0,0,0.5-23.9,11.3-41.8"/>
<path fill="none" stroke="#000000" stroke-width="6" stroke-linecap="round" stroke-linejoin="round" stroke-miterlimit="10" d="
	M548.3,333c12.8-0.5,13.1,24.8-2.3,20.8c-15.4-4.1-12.8-20.1,1.7-20.8"/>
<path fill="none" stroke="#000000" stroke-width="6" stroke-linecap="round" stroke-linejoin="round" stroke-miterlimit="10" d="
	M539.7,335.5c-0.2,0.1-9.4-11.8-19.8-10.1c-10.4,1.7-15.7,12.8-10.1,21.4c5.7,8.6,21.2,3.3,21.2,3.3s-18.4,4.7-15.3,17.9
	s17.5,8,22.2,0s5.2-8.9,5.2-8.9s2.1,23.5,12.9,26.1s17-7.6,16.7-18.3c-0.2-10.8-13.8-16.7-13.8-16.7s15.9,3.1,26.4-8.3
	c10.5-11.3-7.9-24.4-17.9-18.7c-9.9,5.7-13,10.6-13,10.6s10.9-15.1,9.1-27.5s-25.7-9.7-29,6.1c-0.8,10.8,3.4,17.4,7.6,19.9"/>
<path fill="none" stroke="#000000" stroke-width="6" stroke-linecap="round" stroke-linejoin="round" stroke-miterlimit="10" d="
	M528.5,586.2c0,0,12-0.3,12-1.3s-7.7-1-7.7-1"/>
<path fill="none" stroke="#000000" stroke-width="6" stroke-linecap="round" stroke-linejoin="round" stroke-miterlimit="10" d="
	M560,482.5c0,0,12.6-8.8,35-8.9s36.1,7.8,36.1,7.8s3.1,15.6-3.6,33c-6.7,17.4-27.3,22.2-44.1,16.7c-16.9-5.5-24.2-15-23.4-47.8"/>
<path fill="none" stroke="#000000" stroke-width="6" stroke-linecap="round" stroke-linejoin="round" stroke-miterlimit="10" d="
	M597.9,534.2l-0.9,46.9c0,0-5.3,9.1-11.7,12.2c-6.4,3.1-11.9,3.3-11.5,6.2c0.5,2.9,3.1,8.7,20.9,7.9s24.1-7.1,24.1-9.3
	s-8.7-0.3-14.7-7.2s-6.2-8.7-6.2-8.7"/>
<path fill="none" stroke="#000000" stroke-width="5" stroke-linecap="round" stroke-linejoin="round" stroke-miterlimit="10" d="
	M561.6,483c0,0,6.5,11.9,41,8.6s27.5-8.6,27.5-8.6"/>
<path fill="none" stroke="#000000" stroke-width="6" stroke-linecap="round" stroke-linejoin="round" stroke-miterlimit="10" d="
	M418,484.2c0,0,9-8.6,37.6-7.9c28.6,0.6,34.7,7.9,34.7,7.9s4.9,42.8-23.7,49.7s-44.2-10.4-46-22.3c-1.8-11.9-1.7-25.7-1.7-25.7"/>
<path fill="none" stroke="#000000" stroke-width="6" stroke-linecap="round" stroke-linejoin="round" stroke-miterlimit="10" d="
	M457,536.5l-0.6,46.4c0,0-5.3,8.7-11.4,11.8s-11.8,4.3-11.8,7.8s9,7.9,23.8,7.3c14.8-0.6,21.5-5,21.2-8.6c-0.2-3.6-6.3-0.8-13.1-7.2
	c-6.9-6.4-8.9-10-8.9-10"/>
<path fill="none" stroke="#000000" stroke-width="5" stroke-linecap="round" stroke-linejoin="round" stroke-miterlimit="10" d="
	M420.6,485.7c0,0,10.4,8.9,33.7,8.4c23.3-0.5,34.6-8.4,34.6-8.4"/>
<path fill="none" stroke="#000000" stroke-width="6" stroke-linecap="round" stroke-linejoin="round" stroke-miterlimit="10" d="
	M507.5,555.9c0,0-183-1.2-258,34.5c-16.5,4-22.3,12.5-25.7,37.6s-7.3,102.7-16.8,154.7s-23.1,75.4-22.2,90.8
	c0.9,15.4,14.7,19.1,27.1,25.8c12.4,6.7,19.7,23.5,36.5,33.2c16.8,9.6,33.8,13.1,69.2,9.5s40.1-0.5,59.2,8.4s52.1,12.7,86.8,8.1
	c34.7-4.6,48.3-9.9,79.5-5.2s57.8,13.1,107.5,6.3c49.7-6.9,75.2-23.8,94.8-26.9s19.4-2.1,50.1-3.2c30.7-1.1,43.6-2,65.9-20.2
	c16.8-15.3,20.9-30,21.2-35.9s-7.3-91.9-10.7-132.1c-3.4-40.2-8.4-93.7-10.5-106.6s-8.3-37.2-17.1-42.3"/>
<path fill="none" stroke="#000000" stroke-width="6" stroke-linecap="round" stroke-linejoin="round" stroke-miterlimit="10" d="
	M227.7,914.9c0,0-2.9,9-7.5,14.1c-4.6,5-4.2,17.2,6.3,18.3s16.7-13.3,17.2-15.7"/>
<path fill="none" stroke="#000000" stroke-width="6" stroke-linecap="round" stroke-linejoin="round" stroke-miterlimit="10" d="
	M824.3,928.7c0,0,4.7,19.3,20.4,18.3c15.6-1,12.1-10,8.1-15.8s-6.1-8.9-6.4-11.3"/>
<path fill="none" stroke="#000000" stroke-width="4" stroke-linecap="round" stroke-linejoin="round" stroke-miterlimit="10" d="
	M242.8,608.5c0,0-4.9,12.5,78.6,18s437.5,16.2,488.9-14.4"/>
<path fill="none" stroke="#000000" stroke-width="4" stroke-linecap="round" stroke-linejoin="round" stroke-miterlimit="10" d="
	M288.7,684.5c0,0-17.2,118.8-22,130.7"/>
<path fill="none" stroke="#000000" stroke-width="4" stroke-linecap="round" stroke-linejoin="round" stroke-miterlimit="10" d="
	M375.8,693.7c0,0,3.9,21.8-4.6,75s-29.4,137.1-29.4,138.7"/>
<path fill="none" stroke="#000000" stroke-width="4" stroke-linecap="round" stroke-linejoin="round" stroke-miterlimit="10" d="
	M528.5,702.4c0,0,1.6,172.2-2.1,187.6"/>
<path fill="none" stroke="#000000" stroke-width="4" stroke-linecap="round" stroke-linejoin="round" stroke-miterlimit="10" d="
	M693.4,683.1c0,0,23.3,213.3,46.2,228.9"/>
<path fill="none" stroke="#000000" stroke-width="4" stroke-linecap="round" stroke-linejoin="round" stroke-miterlimit="10" d="
	M801.7,669.6c-0.9,1.8,11,85,19,93.2"/>
<path fill="none" stroke="#000000" stroke-width="6" stroke-linecap="round" stroke-linejoin="round" stroke-miterlimit="10" d="
	M222.3,627.4c0,0-6.2-8.4-7-46.9s3.2-105.9,2.1-134.1c-1.1-28.1-15.6-57.3-51.5-54.4s-81.5,24.3-82.5,47.5
	c-1.1,23.2,21.9,172.9,23.2,199.9s-1.3,48.9,18.7,60.3c20,11.5,88.7,17,88.7,17"/>
<path fill="none" stroke="#000000" stroke-width="6" stroke-linecap="round" stroke-linejoin="round" stroke-miterlimit="10" d="
	M121.9,672.5c0.5-1.2,3.7-11.5,16.2-18.6c12.5-7.2,61.9-19.2,61.9-19.2"/>
<path fill="none" stroke="#000000" stroke-width="6" stroke-linecap="round" stroke-linejoin="round" stroke-miterlimit="10" d="
	M131.9,703.7c0,0-9.6,86.8-11.8,100.6c-2.1,13.8-16.1,90.5-13.5,93.7s5.7,1.8,6.4,0c0.8-1.8,17.9-89,21.9-107.5s19.1-81.2,19.1-81.2
	"/>
<path fill="none" stroke="#000000" stroke-width="6" stroke-linecap="round" stroke-linejoin="round" stroke-miterlimit="10" d="
	M132.3,709.2c0,0,7-1.5,11.2,0c4.3,1.5,6.6,4.9,6.6,4.9l1.1-3.6c0,0,1.2-0.8-1.8-1.3"/>
<path fill="none" stroke="#000000" stroke-width="6" stroke-linecap="round" stroke-linejoin="round" stroke-miterlimit="10" d="
	M196.6,716.3c0,0-8.1,48.5-8.3,49.9S135,794.4,135,794.4l66,10.2"/>
<line fill="none" stroke="#000000" stroke-width="6" stroke-linecap="round" stroke-linejoin="round" stroke-miterlimit="10" x1="132.6" y1="807.3" x2="198.3" y2="816.6"/>
<polyline fill="none" stroke="#000000" stroke-width="6" stroke-linecap="round" stroke-linejoin="round" stroke-miterlimit="10" points="
	158.1,796.1 188.3,779 183.8,801.8 "/>
<path fill="none" stroke="#000000" stroke-width="6" stroke-linecap="round" stroke-linejoin="round" stroke-miterlimit="10" d="
	M179.9,825.5c0,0.2-3.2,24.8-3.2,24.8"/>
<path fill="none" stroke="#000000" stroke-width="6" stroke-linecap="round" stroke-linejoin="round" stroke-miterlimit="10" d="
	M892.5,421.4c0,0,5.4-49.9,54.3-54.6s79.2,13.9,89,53s-30,160.7-39.3,197c-9.3,36.4-6.4,54-30.9,66.3s-91.2,23-96.6,23.4"/>
<line fill="none" stroke="#000000" stroke-width="6" stroke-linecap="round" stroke-linejoin="round" stroke-miterlimit="10" x1="894.4" y1="703" x2="897.2" y2="726.2"/>
<line fill="none" stroke="#000000" stroke-width="6" stroke-linecap="round" stroke-linejoin="round" stroke-miterlimit="10" x1="907.6" y1="701" x2="911.3" y2="734.8"/>
<line fill="none" stroke="#000000" stroke-width="6" stroke-linecap="round" stroke-linejoin="round" stroke-miterlimit="10" x1="952.1" y1="689.2" x2="956.2" y2="716.2"/>
<line fill="none" stroke="#000000" stroke-width="6" stroke-linecap="round" stroke-linejoin="round" stroke-miterlimit="10" x1="964.9" y1="684.6" x2="967.7" y2="703.1"/>
<path fill="none" stroke="#000000" stroke-width="6" stroke-linecap="round" stroke-linejoin="round" stroke-miterlimit="10" d="
	M953.8,693.8c0,0,3.5-2.2,6.3-2.9s3.4-0.9,3.4-0.9l-0.7-2.2l-2.8,0.9"/>
<path fill="none" stroke="#000000" stroke-width="6" stroke-linecap="round" stroke-linejoin="round" stroke-miterlimit="10" d="
	M959.8,741.1c0,0-1.8-15.1,0-22.6s9.9-16.5,33.3-19.7s32.3,13.6,32.7,21.2s1.5,17.7,1.5,17.7s11.8,1.6,12.7,6.4
	c0.8,4.8,3,11.7-3.3,14.4c-6.3,2.8-16.4,0.8-17.2-3.7s-0.4-9.2-3.5-12.4c-3.1-3.1-3.7-3.1-4.2-6.7c-0.5-3.7,1.5-23.7-17.2-22.2
	c-18.6,1.5-19,11.5-18.9,18c0.1,6.6,1.9,7.3,5,8.9s8.6,3.4,9.2,12.6c0.5,9.2-1.1,10.3-2.8,11.2c-1.6,0.8-13.7,3.5-15.8-1.4
	s-0.5-12.8-3.7-14.8s-7.9-5.4-7.9-5.4"/>
<path fill="none" stroke="#000000" stroke-width="6" stroke-linecap="round" stroke-linejoin="round" stroke-miterlimit="10" d="
	M958.2,741.8c0,0-27.4,0.2-37.4,4.4c-9.9,4.2-16.1,10.9-16.5,22.4s2.1,67.1,2.4,98.9s1.1,39.4,7.3,45.2c6.3,5.8,15.7,8.6,18.6,7.8
	s36.8-5.2,58.4-7.8s85.3-10.2,90.3-13.1c5-2.9,9.3-12.2,9-20.5s-4.3-131.3-8.9-139.3c-4.6-7.9-11.5-8.9-20.9-8.7
	c-9.5,0.2-31,3.6-31,3.6"/>
<line fill="none" stroke="#000000" stroke-width="6" stroke-linecap="round" stroke-linejoin="round" stroke-miterlimit="10" x1="1010.1" y1="736.6" x2="980.5" y2="739.3"/>
<path fill="none" stroke="#000000" stroke-width="4" stroke-linecap="round" stroke-linejoin="round" stroke-miterlimit="10" d="
	M914.2,759c0,0,8.7-1.7,11.5,4.1s22.5,48,60.9,51.6"/>
<path fill="none" stroke="#000000" stroke-width="4" stroke-linecap="round" stroke-linejoin="round" stroke-miterlimit="10" d="
	M989.4,806c0,0-0.2,13.1,1.3,15.2s28.8-1,30.3-3.2s1.1-14.3-0.5-14.6s-13,1.9-18.5,2.4s-11.8,0.5-11.8,0.5"/>
<path fill="none" stroke="#000000" stroke-width="4" stroke-linecap="round" stroke-linejoin="round" stroke-miterlimit="10" d="
	M1022.8,809.8c0,0,7.2-1.7,17.4-18.5c10.2-16.7,24.1-47.9,32.1-47.4"/>
<line fill="none" stroke="#000000" stroke-width="4" stroke-linecap="round" stroke-linejoin="round" stroke-miterlimit="10" x1="922.4" y1="769.2" x2="928.9" y2="905.3"/>
<path fill="none" stroke="#000000" stroke-width="6" stroke-linecap="round" stroke-linejoin="round" stroke-miterlimit="10" d="
	M921.8,918.6c-0.2-0.2-8.1-5.2-12.6-4.7c-4.4,0.5-8.8,2-8.8,2l6-4.4l0.4-2.1l2.8,0.2"/>
<path fill="none" stroke="#000000" stroke-width="19" stroke-linecap="round" stroke-linejoin="round" stroke-miterlimit="10" stroke-opacity="0" d="
	M776,191.6l17.1-14.6l21-3c0,0,17.2,1.5,17.3,1.7s20.8-6.1,20.8-6.1l4.2,1l-37.2,21c0,0,38.7-5.7,45.4-6.4s25.3-0.3,25.3-0.3
	l11.2,0.3c0,0-25.1,9.9-24.5,10.3c0.6,0.4,25.8,6.6,25.8,6.6l-6.4,6c0,0,11.2,1.5,15.1,2.4s-6.6,12.7-6.3,13.7
	c0.3,0.9,15.9-3.4,15.9-3.4l-9.6,11.3l14.6,5.9l-19.6,8.7l22,5.5c0,0-23.6,11-23.7,11.2c-0.1,0.2,16.3,8.4,16.3,8.4"/>
<path fill="none" stroke="#000000" stroke-width="19" stroke-linecap="round" stroke-linejoin="round" stroke-miterlimit="10" stroke-opacity="0" d="
	M919.3,379.9l45.8-7.2h23.6l-87.5,21.4l-5.3,13.5l105.4-24.2l11.2,6.8l-116.7,28.9l9.8,10.7l119.7-26.3v15.2l-111.7,23.8l3.4,16.4
	l117.2-27.9l-5,18.3l-101,23.1l6.3,12.7l93.4-20.9l-0.5,13.5L943,497.9l3.4,16l75.9-21.3l-3,16.2l-67.5,17.3l-0.2,11.7l66.7-12
	l-3.6,13.9l-56.1,13l0.6,16.2l50.7-11.6l-4.3,15.3l-48.2,8.7l-5.8,12.6l46.8-10.1v10.1c0,0-135.6,32.7-135.7,32s-0.8,10.4-0.8,10.4
	l131.7-28.1l-5.3,13.7l-119.5,28.2l-1.3,11.5l119.9-26l-3.7,11.2l-113.3,27.5l0.9,16.2l111-32.8l-18.8,20.2l-96.7,26.6"/>
<path fill="none" stroke="#000000" stroke-width="19" stroke-linecap="round" stroke-linejoin="round" stroke-miterlimit="10" stroke-opacity="0" d="
	M962.7,719.2c0.3-0.9,27.9-12.6,27.9-12.6l-28.4,27.6l41.2-27.6l18.5,4.5c0,0-108.5,44-108.1,46s-6.6,11.7-6.6,11.7l120.9-48.5
	l4.6,5.9L909.4,785l-4.6,13.6l150.6-61.9l15.4-2.4l-165.5,78.5l-0.5,11.3l173.1-78.3v9.6l-168.8,83.2l0.3,12.2l174.5-81.6l-2.1,13.8
	l-173.4,80.8l-1.6,12.6l180.1-80.9l-2.3,14.3l-173.5,78.8l1.1,13.3l171-77.9l2.5,8.1l-163.8,77.2c0,0,7.8,3.5,9.1,3.5
	c1.2,0,158.3-68.4,158.3-68.4l-2.5,13.3l-133.7,53.7l36.4-4.2l96.8-36.4l-1.1,9.6l-64.7,20.2l42-2.5l28.1-6.6"/>
<path fill="none" stroke="#000000" stroke-width="19" stroke-linecap="round" stroke-linejoin="round" stroke-miterlimit="10" stroke-opacity="0" d="
	M83.4,435.1l40.1-32.5l-39.4,51.2l65.1-56.2h22.1l-84.9,73.6l1.4,16.9l99.8-86.6l12.5,10.1l-103.9,92L95,521.1l112.5-96.7l1.2,17.7
	L99.2,536l0.1,18.2l115.3-101.1l-6,22.8l-107.3,93.9l-0.1,22.6L214,489.3l-0.5,18.3l-102.2,96.6v19l98.4-96l-1.2,23.5l-96.2,89.9
	l-0.3,14.7l98.8-91.4l-1.8,24.2l-95.4,83.2l1.7,14.1l95.2-84.1c0,0,0,8.9,0.9,9.5s-86.5,80.4-86.5,80.4l7.5,4l82.3-72.5l2.8,7.6
	L145,699.4l18,2.4l54.4-52.3l-4,21.1l-40.2,35.1l16.7,2.8l27.5-22.1l-3.3,15.2l-8.3,6.9l4.9,2.8"/>
</svg>
