<?xml version="1.0" encoding="utf-8"?>
<!-- Generator: Adobe Illustrator 21.0.0, SVG Export Plug-In . SVG Version: 6.00 Build 0)  -->
<svg version="1.1" xmlns="http://www.w3.org/2000/svg" xmlns:xlink="http://www.w3.org/1999/xlink" x="0px" y="0px" width="1000px"
	 height="1000px" viewBox="0 0 1000 1000" enable-background="new 0 0 1000 1000" xml:space="preserve">
<g id="vs-primary">
	<path fill="#53BC53" d="M82.3,380.4c7.3-20.2,21-57.2,51.1-98.3c39.5-54,83.6-82.8,105.7-97c54.1-34.7,102.1-48.1,130.8-55.8
		c42.6-11.5,152.6-39.6,284.3-1.2c38.3,11.2,101.9,30.5,164.7,85.6c73.9,64.9,101.9,140,112.3,169.1
		c13.5,37.8,36.1,103.3,21.9,186.2C940.2,644,904,694,883.5,721.6c-73.4,98.9-170.8,137.8-220.2,156.9
		c-45,17.3-139.2,52.3-260.3,33.7c-43.2-6.6-130.4-21.2-212.1-91.3C111.2,752.6,81.5,670.1,70.9,634.3c1.4-4.2,7.7-21.5,26.4-31.9
		c3.8-2.1,19.5-10.9,36.8-6.3c22.6,5.9,27.2,29,38.5,26.9c10.8-2.1,15.3-25.1,15.7-38.3c0.7-19.9-7-43.1-16.7-44.1
		c-5.9-0.6-7.9,7.4-23.2,15.8c-3.2,1.8-5.4,2.6-17.5,7c-32.2,11.5-32,10.7-39.8,14.1c-21.7,9.3-24.5,15.8-29.8,13.7
		c-10.4-4.1-8.2-33.6-4.4-67.1C65.2,452.1,69.4,416.2,82.3,380.4z"/>
</g>
<g id="vs-secondary">
	<path fill="#BDD100" d="M146.1,542.1c-3.2-4.6-7.7-11.8-12-21c-5.4-11.7-7-19.2-10.1-30.1c-10.1-35.1-16.8-35.5-19.4-57.1
		c-1.5-12.9,0.1-16.2-0.3-33.6c-0.6-24-4.3-43.4-7.3-56.1c-8.8,16.7-19.4,41.1-25.5,71.9C66,444,66,468.2,67.3,486
		c10.5,12.6,19.7,23.6,27.4,32.7c25.1,29.7,34.2,40,41.9,37.7C139.4,555.6,143.3,552.8,146.1,542.1z"/>
	<path fill="#BDD100" d="M164.1,539.1c-15.1-23.9-16.7-48-17.3-69.3c-1.6-66.4-2.4-99.7,9.9-142.6c18.7-64.7,52.1-108.7,72.1-131.4
		c21.3-16.1,48.7-33.5,82.5-48.1c75.9-32.8,145.6-34.6,187.1-32.1c-23,9.6-41.3,18.3-53.9,24.5c-33.4,16.4-32.8,18.6-63,33
		c-31,14.8-36.5,14.9-49.5,25.5c-12.8,10.4-11.2,13.5-31.5,31.5c-15.2,13.5-22.7,20.2-33,27c-15,9.9-25.8,14.1-25.5,21
		c0.3,6.4,9.9,7.8,10.5,15c0.6,6.9-7.7,12.2-15,18c-5.9,4.6-14.4,14.1-31.5,33c-11.2,12.5-26.3,29.2-33,54
		c-3.6,13.6-3.1,25.3-2.1,48.7c0.8,20,1.5,34.7,6.9,36.1c6.4,1.7,14.8-16.1,28.7-38.1c15.2-23.9,28.6-39.3,55.5-70.1
		c37-42.3,35.8-31,68.5-69.6c15.8-18.6,24.3-30.9,43.2-39.4c13.6-6.1,18.8-4,38.4-12.9c20.3-9.2,20.2-13.9,36.8-19.8
		c9.7-3.5,13.7-3.3,42-7.5c22.5-3.3,33.7-5,41.5-6.7c25.9-5.8,31.2-11.3,66.4-22.1c18.6-5.7,27.9-8.6,38.8-10.4
		c29.7-4.9,47.5,0,84.3,3.5c16.2,1.6,40.5,3.3,70.8,3c17.3,12.7,38.1,30.2,58.7,53.6c21.6,24.5,36.9,48.3,47.6,67.7
		c-18.1-6.9-33.6-11-45-13.5c-8.9-2-43-9.1-88.5-7.5c-17.6,0.6-17,1.9-43.5,3c-21.4,0.9-35.7,1.5-54,0c-29.9-2.4-26.9-6.8-43.5-6
		c-23,1.1-28,9.4-58.5,13.5c-16.1,2.1-28.8,1.7-33,1.5c-31.5-1.5-43.3-10.6-69-6c-16.6,3-19.9,8.2-21,10.5c-3.1,6.6,1.9,11.9-1,23.9
		c-0.9,3.6-2.4,9.8-7.1,13.8c-7.6,6.5-19.7,3.7-24.9,2.8c-12.9-2.2-29.1,2.5-61.5,12c-24.7,7.2-43.4,25.5-76.5,69
		c-24.4,32.1-55.2,76.1-87.2,131.9C179.1,558,171.2,550.2,164.1,539.1z"/>
	<path fill="#BDD100" d="M275,496.9c-2.2-6.2,36.6-25.5,63.7-39c43-21.4,74.9-37.2,121.1-50c26.9-7.5,43.5-12,67.3-12.8
		c17.6-0.6,23.8,1.5,54,0.4c18.2-0.6,28.7-1,43.7-3c17.4-2.4,21-4.3,34.4-4.5c13.1-0.2,25.3,1.4,32.6,2.4c17.3,2.3,17.5,4,25.8,3.8
		c9.1-0.2,13.3-2.3,31.5-8.1c20.5-6.6,30.8-9.9,37.7-10.6c3.5-0.3,21.2-1.8,40.3,6.1c21.4,8.9,23.8,21,38.4,29.3
		c12.4,7,34,11.4,73.4-5.6c7,22.9,11,43.4,13.3,60.2c4.7,33.4-0.7,25.9,3.8,63.1c1.6,13,2.8,18.5-0.8,22.8c-7,8.2-23.9,3.2-59.1-6.3
		c-78.5-21.2-73.5-17.3-88.5-24c-29.8-13.3-35.4-22.2-64.5-30c-21.6-5.8-36.3-5.6-46.5-4.5c-13.6,1.5-18,4.6-31.1,7.4
		c-10.4,2.3-25.5,4.1-57.4,0.1c-40.5-5.1-58.1-13.4-91.5-21c-19.7-4.5-49.3-9.7-87-10.5c-3.4,2.1-7.5,5.4-9,10.5
		c-2.8,9.5,5.8,16.9,3,22.5c-3.1,6.1-16.9,4.8-24,4.2c-28.5-2.5-58.9-5.2-73.5-5.7C293.5,493,276.5,501,275,496.9z"/>
	<path fill="#BDD100" d="M195.4,573.1c1.1-2.7,7.9-0.6,49.7,3.6c5.7,0.6,50.8,5,99,6.9c34.1,1.3,51.6,1.9,73.3-0.7
		c31.4-3.7,47.1-5.6,59.5-13.2c9.3-5.7,17.5-13.3,27.7-11c7.3,1.6,9.2,6.7,21,13.3c7.9,4.4,14.4,6.2,21.1,8.1
		c24.3,6.7,39.5,0.3,65.5,1.7c7.9,0.4,20.6,3.6,45.7,9.9c30.5,7.7,45.8,11.5,71.3,19.1c29.5,8.8,84.2,23.6,194,49.8
		c-5.8,10.8-12.4,21.9-20.1,33.1C867,747,822.8,782,786.6,804.6c-6.8,0.6-20.5,0.8-31.3-8.1c-8-6.5-11.2-15.4-15.2-26.4
		c-4.4-12.3-2.8-14.8-7.5-27c-1.4-3.7-9-23.4-15-22.5c-5.3,0.8-8.7,17.5-8.7,17.5l0,0c0,0-6.2,10.3-12.3,12.5
		c-7.8,2.8-15.2-7.9-28.5-16.5c-10.9-7-22.8-9.2-46.5-13.5c-18.2-3.3-32.2-5.9-50.9-4.2c-17.4,1.6-23,5.4-33.2,1.5
		c-11.3-4.3-11.7-11.9-23.9-22.9c-18-16.2-39.7-19.8-46.5-21c-20.6-3.5-25.2,3-49.5,0c-14.8-1.8-25.9-5.8-36.6-10
		C351.5,652.6,190.2,586.7,195.4,573.1z"/>
	<path fill="#BDD100" d="M192.1,609c6.7-3,18.8,36.2,56.1,58.9c20.4,12.5,47.2,19.3,56.7,21.7c22,5.6,41.5,7.5,42.7,15.4
		c1,6.9-12.8,13-11,17c1.8,4.3,16.6-3.4,33.2,2.3c12.3,4.2,20.4,13.9,26.1,20.7c8.8,10.6,7.3,13.9,14.3,20.5
		c9.7,9.2,19.8,9.6,31.2,13.1c11.3,3.5,17.2,8,44.3,29.9c62.5,50.5,61.2,50.6,69.7,56c15.2,9.5,38.4,21,71.8,27.1
		c-30.3,6.6-62.6,12.3-96.8,16.8c-12.7,1.7-25.1,3.1-37.4,4.3c-23.2-20.9-37.7-39.1-46.9-52.5c-6.2-9.1-13.7-21.2-28.5-27
		c-9.8-3.8-12.2-0.8-24.6-3.9c-6.3-1.6-15.7-4.9-40.3-24.2c-21.1-16.5-17.9-17-31.2-26.6c-16.1-11.6-23-12.5-47.9-26.3
		c-9.2-5.1-22.9-13-39-24c6-5,12-10,18-15c-12.3-7.4-21.2-15.2-27-21c-10.6-10.7-29.7-33.3-34.3-65.3
		C190.2,619.3,189,610.4,192.1,609z"/>
	<path fill="#BDD100" d="M180.6,627.6L180.6,627.6c0,0-0.7,39.4,0.9,59.7c2.5,30.6,13,51.8,30.7,86.3c14,27.4,36.7,65.6,72.4,106.7
		c-17.9-7.6-39.4-18.6-61.7-34.9c-34.6-25.2-57.8-53-72.3-73.8c6-4.9,9-10,10.5-13.5c6.5-15.1,1.4-34.4-12.5-49.8
		C170.2,653.8,180.6,627.6,180.6,627.6z"/>
	<path fill="#BDD100" d="M147.6,608.1c1.1,6.2-8.6,9.6-27,33c-6.5,8.2-8.5,11.8-9,16.5c-1,8.8,4.1,12.4,3,22.5
		c-0.1,0.7-1.6,13.4-7.5,15c-7.9,2.1-19.7-16.7-25.2-28.6c-6.3-13.5-12.1-26.1-7.3-40.8c5.5-16.8,22-27.1,37.1-29.2
		C127.2,594.2,146.2,599.8,147.6,608.1z"/>
</g>
<g id="vs-colour">
	<path fill="#704020" d="M33.2,660.5c-5.1-2.4-2.5-18.9,0.5-28.4c4.9-15.7,14.8-24.9,24.7-33.9c13.6-12.3,33.9-30.7,60.8-32.1
		c9.9-0.5,18.2,1.4,27-4.5c8.5-5.8,9.4-13.6,16.5-15c8.6-1.7,17.2,7.9,19.5,10.5c13.1,14.7,17.5,41.5,4.5,57
		c-2.1,2.5-10.3,11.5-19.9,10.4c-7.7-0.9-9.3-7.5-23.6-19.4c-9.4-7.9-15.9-13.2-24-13.5c-10.4-0.4-18.4,7.8-24,13.5
		C43.8,657.1,36.6,662.1,33.2,660.5z"/>
</g>
<g id="vs-shade">
	<path opacity="0.4" d="M871.8,271.6c-11,4.2,48.1,98,22.8,218c-19.9,94.8-81.9,155.9-111,184.5c-112.1,110.5-249.2,128.7-298,134.5
		c-58.8,7-182.2,21.6-288.5-47.5C126.2,715,84.5,645.6,76.4,651.5c-6.3,4.7,17.6,49.6,39,81.5c18,26.9,55.7,82,127.9,125.5
		c58.2,35.1,110.4,45.5,140,51.1c66.8,12.6,119,7.2,151.2,3.7c35.6-3.9,100.4-11.7,175.6-48.7c18.8-9.2,79.5-40.6,139.1-102.4
		c19.1-19.8,46.5-48.7,70.3-94.4c21-40.3,28.7-73.8,30.7-82.8c2.1-9.4,9.7-46,6.5-93.5C949,378.1,883.6,267.1,871.8,271.6z"/>
</g>
<g id="vs-outline">
	<path fill="none" stroke="#000000" stroke-width="18" stroke-linecap="round" stroke-linejoin="round" stroke-miterlimit="10" d="
		M61.3,591.2c-13.6-80.6,8.3-167.6,8.3-167.6c7.6-30.2,25.3-97.5,81-163.5c71.8-85.1,160.6-113.5,196.5-124.5
		c53.1-16.2,94.3-17.8,138-19.5c66.7-2.6,154.6-4.9,247.5,40.5c52.1,25.5,85.6,56.1,96,66c38.4,36.4,59.1,71.8,70.5,91.5
		c37.3,64.7,48.2,122,51,138c3.4,19.9,10.9,65.1,3,117c-15.9,103.9-83.8,171.1-114,201c-106.9,105.8-236,127.3-286.5,135
		c-61.4,9.4-170,25.9-285-33c-43.5-22.3-116.3-70-165-159c-10.9-19.9-26.3-59.3-31.7-78.8"/>
	<path fill="none" stroke="#000000" stroke-width="18" stroke-linecap="round" stroke-linejoin="round" stroke-miterlimit="10" d="
		M146.1,561.6c2.6-8.2,9.1-14.1,16.5-15c10.6-1.3,17.8,8.3,19.5,10.5c1.5,2,4,5.9,6,25.5c1.7,17.3,2.5,26-1.5,31.5
		c-4.2,5.8-12.2,10.1-19.5,9c-3-0.4-5.2-1.7-19.5-15c-11.3-10.5-11.2-10.9-13.5-12c-13.1-6.2-28.4,1.4-31.5,3
		c-8.9,4.6-13.6,11-18,16.5c-14.4,18.2-39.9,50.5-49.5,46.5c-5.5-2.3-4.7-16-4.5-19.5c0.4-7.1,2.7-14.5,9-24
		c12.4-18.7,29.2-28.5,45-37.5c8.5-4.8,19.1-10.8,34.5-15C129.8,563.1,139.2,562,146.1,561.6z"/>
	<path fill="none" stroke="#000000" stroke-width="13" stroke-linecap="round" stroke-linejoin="round" stroke-miterlimit="10" d="
		M186.6,614.1c4.4,14.9,9.4,27.1,13.5,36c9.9,21.3,14.8,32,25.5,42c14.7,13.7,29.3,16.1,28.5,22.5c-0.8,6.9-18.6,6.9-19.5,13.5
		c-0.8,6.5,16,12.8,39,24c16.8,8.2,36.8,18,55.5,31.5c29.5,21.3,23.5,28.6,45,39c22.7,11,33.9,5,54,19.5c7.4,5.4,9.7,8.9,24,25.5
		c9.4,10.9,23.2,26.5,40.9,45"/>
	<path fill="none" stroke="#000000" stroke-width="13" stroke-linecap="round" stroke-linejoin="round" stroke-miterlimit="10" d="
		M189.5,603.5c9.6,21.9,21.9,35.8,30.1,43.6c22.8,21.8,49.6,31,60,34.5c6.1,2,19.1,6,46.5,15c14.1,4.6,25.5,8.5,25.5,13.5
		c0,5.8-15.6,8.8-15,12c0.7,4.2,26.8-4.5,46.5,7.5c15.7,9.5,10,21.6,27,36c15.7,13.4,26.4,7.9,49.5,21c11.7,6.6,13,10.3,33,28.5
		c24.5,22.3,50.6,45.7,85.5,61.5c15.6,7,29,10.8,37.3,12.9"/>
	<path fill="none" stroke="#000000" stroke-width="13" stroke-linecap="round" stroke-linejoin="round" stroke-miterlimit="10" d="
		M180.6,627.6c-1.7,15.1-2.2,32.8,0,52.5c3.6,32.2,12.8,55.8,16.5,64.5c7.6,18.1,15.5,30.1,25.5,45c16.8,25.1,37.6,55.7,62,90.7"/>
	<path fill="none" stroke="#000000" stroke-width="13" stroke-linecap="round" stroke-linejoin="round" stroke-miterlimit="10" d="
		M167.1,623.1c-3.2,11.5-6.2,23.5-9,36c-4.4,19.3-7.8,37.9-10.5,55.5c1.6,1.2,14.4,11,15,28.5c0.6,16.6-10.4,27-12,28.5"/>
	<path fill="none" stroke="#000000" stroke-width="13" stroke-linecap="round" stroke-linejoin="round" stroke-miterlimit="10" d="
		M154.7,614.6c-9.7,1-15.8,4.6-19.1,7c-4.5,3.3-8.1,8.7-15,19.5c-5.7,8.8-8.5,13.3-9,16.5c-1.4,9.3,4.1,13.2,3,22.5
		c-0.8,6.9-4.7,12-7.5,15"/>
	<path fill="none" stroke="#000000" stroke-width="13" stroke-linecap="round" stroke-linejoin="round" stroke-miterlimit="10" d="
		M146.1,561.6c-15.6-7.8-26.2-16.3-33-22.5c-9.3-8.5-13.6-14.9-30-34.5c-9.7-11.6-17.8-20.9-22.8-26.7"/>
	<path fill="none" stroke="#000000" stroke-width="13" stroke-linecap="round" stroke-linejoin="round" stroke-miterlimit="10" d="
		M97,344.3c7.3,17.7,8.7,32,8.6,41.8c-0.1,19.9-6.2,23.9-3,40.5c1.8,9.1,4.1,10.4,12,34.5c3.1,9.5,4.8,15.6,6,19.5
		c3.9,13.1,11.1,32.8,25.5,61.5"/>
	<path fill="none" stroke="#000000" stroke-width="13" stroke-linecap="round" stroke-linejoin="round" stroke-miterlimit="10" d="
		M162.6,546.6c-5.2-17.2-11.3-41.3-15-70.5c-3-23.6-7.7-64,1.5-115.5c9.7-54.2,29.8-92.2,36-103.5c18-32.6,38.5-56.4,54-72"/>
	<path fill="none" stroke="#000000" stroke-width="13" stroke-linecap="round" stroke-linejoin="round" stroke-miterlimit="10" d="
		M171.6,540.6c2.5-23,5-46,7.5-69c-5.3-11.4-13-32.9-9-58.5c2.8-17.8,10.1-30.1,16.5-40.5c28.9-47.4,71.5-65.7,66-79.5
		c-2.7-6.8-14.2-5.8-15-12c-1-7.8,17.1-15.1,30-22.5c28.6-16.3,32.1-33.4,54-55.5c16.6-16.8,51.8-30.9,121.5-58.5
		c20.9-8.3,47.3-18.4,78-29.6"/>
	<path fill="none" stroke="#000000" stroke-width="13" stroke-linecap="round" stroke-linejoin="round" stroke-miterlimit="10" d="
		M185.1,543.6c-1-16.2-0.7-41.8,9-70.5c10.1-29.9,25.6-49.5,45-73.5c18.2-22.5,18.7-18.8,61.5-63c44.1-45.5,70.5-77.3,97.5-81
		c3.3-0.5,12.6-1.3,24-6c13.1-5.4,17.7-11.4,27-16.5c12.9-7.2,22.2-5.8,42-7.5c30.1-2.5,52.7-9.3,76.5-16.5
		c33.9-10.2,28.4-14,51-19.5c30.4-7.4,46.5-2,96,0c16.9,0.7,42,1.1,72.9-0.5"/>
	<path fill="none" stroke="#000000" stroke-width="13" stroke-linecap="round" stroke-linejoin="round" stroke-miterlimit="10" d="
		M184.9,563c6.7-15.9,16.4-36.7,30.2-59.9c9.3-15.5,26.5-44,55.5-75c33.9-36.2,50.8-54.2,79.5-64.5c42.9-15.4,80-2.2,90-22.5
		c6.2-12.6-4.3-25.3,4.5-34.5c5.6-5.8,16.8-5,39-3c53.5,4.7,55.1,4.9,60,4.5c25.7-2.2,27.3-11.3,54-15c23.2-3.2,37.2,1.5,57,4.5
		c43.6,6.7,67.4-2,102-4.5c34.5-2.5,84.5,1,150,28.5"/>
	<path fill="none" stroke="#000000" stroke-width="13" stroke-linecap="round" stroke-linejoin="round" stroke-miterlimit="10" d="
		M237.6,525.6c17.9-14.9,40.9-32.3,69-49.5c14.2-8.7,45.9-27.3,90-45c42-16.9,79.6-31.9,130.5-36c38.4-3.1,42.2,3.5,88.5-1.5
		c33-3.6,44.3-8.3,69-4.5c16.1,2.5,25.1,6.6,42,4.5c17.2-2.2,18.1-7.8,39-13.5c12.9-3.5,40-10.9,61.5,1.5
		c10.8,6.2,11.1,12.2,19.5,19.5c11.8,10.2,34.4,18.5,82.5,6"/>
	<path fill="none" stroke="#000000" stroke-width="13" stroke-linecap="round" stroke-linejoin="round" stroke-miterlimit="10" d="
		M237.6,525.6c40.5-26.7,74.2-32.9,99-33c39.7-0.1,80,15.7,87,3c3.9-7-6.7-15.1-3-22.5c6.4-13,46.8-5,91.5,3
		c72.4,13,108.7,19.5,123,19.5c57.2,0,77.5-16.4,115.5,0c12.1,5.2,18.8,10.7,43.5,21c9.3,3.9,30.1,12.3,57,19.5
		c24.5,6.6,60,13.9,104.1,15.3"/>
	<path fill="none" stroke="#000000" stroke-width="13" stroke-linecap="round" stroke-linejoin="round" stroke-miterlimit="10" d="
		M186.9,572.5c24,1.8,64.9,4.8,118.2,8.6c36.6,2.6,55.5,3.9,82.5,3c44.4-1.5,66.6-2.2,82.5-10.5c13.9-7.2,28.1-18.8,42-13.5
		c6.7,2.5,7,6.6,13.5,12c16.8,13.9,38,5.9,70.5,7.5c9,0.4,22,3.3,48,9c57,12.5,101.4,27.4,135,37.5c31.3,9.4,75.9,21.3,132,31.5"/>
	<path fill="none" stroke="#000000" stroke-width="13" stroke-linecap="round" stroke-linejoin="round" stroke-miterlimit="10" d="
		M200.1,585.6c16.6,8.4,39,19.3,66,31.5c32.2,14.5,55.3,23.7,75,31.5c43,17,64.7,25.5,76.5,25.5c24-0.1,36.4-8.2,58.5,0
		c15.7,5.8,29.1,17.2,30,18c12.7,10.9,11.2,15.3,19.5,21c14.6,10.1,28.1,2.9,57,3c25.8,0.1,45.6,6,55.5,9
		c38.4,11.5,55.7,30.1,66,22.5c8.8-6.5,2.6-25,9-27c5.6-1.7,15.5,10.5,21,22.5c8.9,19.4,2.1,29.9,9,42c4.6,8,15.4,17,43.5,19.5"/>
</g>
<g id="vs-reveal">
	
		<path opacity="0" fill="none" stroke="#000000" stroke-width="100" stroke-linecap="round" stroke-linejoin="round" stroke-miterlimit="10" d="
		M626.1,127c-59.8-1.5-119.6-2.5-179.4-2.8c-50.7-0.3-104.8,0.8-146.8,29.2c-3.2,2.1-6.5,5-6.5,8.9c0.1,6.4,8.7,8.2,15.1,8
		c146.1-4,292.2-8.1,438.3-12.1c11.4-0.3,27.3,4.1,25.4,15.3c-180.6,36.4-367.2,17.8-551.3,25.6c-7.4,0.3-17.2,3-17.1,10.4
		c0.1,7.5,10,9.9,17.5,10c186.3,2.9,372.6,5.8,559,8.7c30.9,0.5,65,2.2,87.2,23.6c-62.5,9.1-125.6,13.1-188.6,17
		c-147.4,9.2-295.3,18.4-442.6,8.3c-39.2-2.7-79.3-6.7-117.3,3.4c-8.2,2.2-17.3,6-20,14c-2.8,8.4,3.1,17.6,11,21.6s17,4.1,25.9,4.1
		c205.8-0.2,411.7-0.4,617.5-0.6c47.3,0,95.4,0,140.5,14.2c10.6,3.3,23.2,13.1,17.7,22.7c-30.4,5.7-61.4,6.6-92.3,7.4
		c-204.5,5.4-409.8,10.9-613.3-10.8c-35.9-3.8-73-8.4-107.6,2c-19.6,5.9-37.7,16.5-52.4,30.7c72.7,16.1,147.9,14.3,222.4,13.2
		c106.6-1.5,213.3-1.4,320-1.3c102.3,0.1,204.6,0.2,306.9,0.4c18.8,0,42.2,3.1,48.3,20.9c-265.8,22.6-533.3,10.4-800,13.4
		c-25.4,0.3-51.1,0.7-75.8,6.6c-0.1,5-0.2,10-0.2,15c252,10.5,504.3,14.7,756.5,12.4c37.8-0.3,76.7-0.6,112.1,12.6
		c5,1.9,10.7,5.3,10.3,10.5c-0.3,5.2-6.2,7.8-11.2,9.3c-104.5,30.6-215.8,24.5-324.6,18.2c-164.2-9.6-328.5-19.1-492.7-28.7
		c-16.7-1-34-1.8-49.6,4.3C58,497.1,48,509.8,55,518.5c2.6,3.2,6.6,4.6,10.5,5.8c79.8,25.1,165,24.2,248.7,23.8
		c209.4-1.1,418.9,2.1,628.2,9.5c5.7,0.2,12.6,1.2,14.9,6.4c3,6.8-4.5,13.3-11.1,16.5c-39.9,19-86.2,15.8-130.3,16.3
		c-64.2,0.8-127.9,10.3-191.9,16.4c-191.4,18.4-384.2,6.5-576.1-5.4c-6.9,8-3.2,21.3,4.9,28s19.1,8.6,29.6,10.2
		c263.4,39.1,531.6,15.3,797.8,22.7c16.6,0.5,38.3,5.7,39.2,22.2c1.1,18.1-23.4,24.6-41.5,24.9c-264.5,3.6-529.3,7.2-793.4-8.3
		c-4.6,4.1-3.1,12.1,1.3,16.4s10.8,5.8,16.8,7.1c191.1,41.3,388.9,31.7,584.4,30.8c36.6-0.2,74,0.1,108.8,11.6
		c6.1,2,13.4,6.9,11.3,13c-1.2,3.4-4.9,5.1-8.2,6.3c-32.3,11.9-67.2,14.3-101.6,15.9c-167.8,7.6-335.9-1.6-503.7-10.8
		c-5.1,9.2,8.9,17,19.3,18.3c150.2,18.4,303.6-7.1,453,16.1c10.2,1.6,22.7,5.7,23.9,16C559.8,880.6,423.9,876.4,290,872
		c74,14.3,150,17.8,224.9,10.4"/>
</g>
</svg>
