<?xml version="1.0" encoding="utf-8"?>
<!-- Generator: Adobe Illustrator 23.0.3, SVG Export Plug-In . SVG Version: 6.00 Build 0)  -->
<svg version="1.1" id="Layer_1" xmlns="http://www.w3.org/2000/svg" xmlns:xlink="http://www.w3.org/1999/xlink" x="0px" y="0px"
	 width="1000px" height="1000px" viewBox="0 0 1000 1000" enable-background="new 0 0 1000 1000" xml:space="preserve">
<g id="vs-highlight">
	<path fill="#27A8CB" d="M62.1,359.1c3.7,1,7.5,4.7,13.5,25.5c5.8,20.1,8.7,30.2,7.5,40.5c-1.5,12.7-6.2,16.3-13.5,33
		c0,0-7.8,18-13.1,46.7c-7,38.2,12.5,78,24.7,102c6,11.9,33.4,64.4,95.4,117.5c60.2,51.6,118.8,74.3,146.7,84.9
		c16.2,6.1,1.2-0.5,128,32.3c32.9,8.5,88.6,23,135.8,20.2c19.3-1.2,29-1.8,40.5-4.5c24.3-5.8,32.4-13.6,48-10.5
		c2.5,0.5,21.5,4.5,27,19.5c6.1,16.6-9.4,33.7-10.5,34.9c-16,17.2-41.8,16.2-61.5,16c-86.9-0.8-71.7,14.3-132,9.2
		c-51.9-4.4-89.3-17.9-142.1-36.8c-20.6-7.4-46.1-16.6-78.2-32.6c-27.5-13.7-72.4-36.4-120-78.1c-24.2-21.2-60.5-53.5-91.1-107.1
		c-20-35.1-48.3-84.4-42.5-139.9c3.5-33.6,5.8-55.6,19.5-78c3.7-6.1,9.9-14.9,12-28.5c0.7-4.8,3.1-24.7-8.2-42.6
		c-8.3-13.1-20.3-19.5-18.8-21.9c1-1.7,6.5,2,16.5,1.5C55.1,361.6,57.3,357.8,62.1,359.1z"/>
	<path fill="#27A8CB" d="M80,298.5c3.6-4,23.6,8.3,25.6,9.6c12.9,7.9,21.5,17.2,26.7,23.6c1.8,4.7,5,11.7,10.5,19
		c8.1,10.8,14.4,13.1,20.6,22.7c5.1,7.9,6.1,14.4,8.2,23.2c3.9,16.9,11.1,33,16.5,49.5c21.5,66.4,57,106.5,57,106.5
		c49.7,56.1,116.3,70.5,135.1,74.3c28.2,5.7,52.4,5.4,68.9,5.1c19.5-0.3,35.5-1.9,91.5-12c96.2-17.2,133.7-27.5,165.3-39.8
		c21.6-8.4,34.1-15.2,40.2-18.7c21.4-12.3,25.3-18.7,49.5-34.5c28.3-18.5,42.4-27.7,57-25.5c18.7,2.9,38.4,20.3,39,40.5
		c0.6,18.5-15.2,31.8-19.2,35.1c-9.7,8.1-18.4,9.9-31.5,14.2s-31.4,11.5-52.8,24c3.8,2.1,19,11,18,21.1c-0.7,7.4-9.8,11.8-24,18
		c-39.7,17.2-56.5,20.6-79.5,33c-13.5,7.3-36,19.4-34.5,31.5c1.4,11.6,23.5,12.5,25.5,25.5c1.7,11.2-12.3,25.5-27,28.5
		c-17.3,3.5-33.1-9.1-40.2-14.4c-8.4-6.2-11-6.6-120.4-36.1c-102.7-27.7-154.4-41.7-166.4-48.5c-51.6-29.2-84-68.5-94.5-81.5
		c-51.6-63.7-42.7-100-89-126.3c-13.1-7.5-40.4-19.7-46-44.2c-1.4-6.1,0.1-6.3,0-22.5c-0.1-18.1-0.2-39.7-7.5-60
		C93.3,314,76.7,302.3,80,298.5z"/>
	<path fill="#27A8CB" d="M34.5,361.9c-1.5-0.6-12.6-5-17.4-17.3c-4.9-12.6,0.6-23.8,2.1-26.9c6.5-13.2,20.4-20.9,32.4-21.7
		c9.1-0.6,9.8,3.2,21,3c14-0.3,16.1-6.3,27-6.1c13.1,0.2,28.9,9.3,30.5,21.5c0.7,5.6-1.4,12.3-6.5,16c-7.2,5.2-19.5,3.5-28.5-5.9
		c-4.2,3.4-10.3,8.8-16.9,16.3c-8.9,10.3-9.6,14.2-16.1,18.2C55.7,363,45.1,366,34.5,361.9z"/>
	<path fill="#27A8CB" d="M756.6,849.6c1.2-4.4,3.1-11.1,9.5-16.1c6.7-5.3,17.7-8,25-3.4c10.1,6.4,7.7,23.5,6.1,34.3
		c-1.3,9-3.4,23.8-14,28c-7.1,2.8-14.2-0.6-15-1C754.8,884.7,752.8,863.4,756.6,849.6z"/>
	<path fill="#27A8CB" d="M843.4,688.5c-1.8-2.5-8.6-11.9-6-23.3c3.1-13.8,18.7-24.4,28.7-21.1c12,3.9,14.1,27.2,8.8,42
		c-1.4,3.9-4.5,12.8-11.6,14.5C853.8,702.8,844.6,690.1,843.4,688.5z"/>
	<path fill="#27A8CB" d="M962.1,437.1c11.2,15.8,19.4,27.3,15,34.5c-5,8.2-25.5,9.1-37.5-1.5c-8.5-7.5-10.9-19.2-9-28.5
		c1.6-7.8,7.2-19.2,15-19.5C951.2,421.9,955.2,427.5,962.1,437.1z"/>
</g>
<g id="vs-outline">
	<path fill="none" stroke="#000000" stroke-width="18" stroke-linecap="round" stroke-linejoin="round" stroke-miterlimit="10" d="
		M102.6,293.1c-11.7-1.3-14.7,6.2-30,6c-11.2-0.1-11.9-4.2-21-3c-11,1.4-18.6,8.5-24,13.5c-8.5,7.9-14.4,13.1-15,21
		c-0.7,8.4,5,15.6,16.5,30c4.1,5.2,7.8,9.2,10.5,12c4.7,4.6,10.9,11.9,15,22.5c1.8,4.5,7,18.5,3,34.5c-1.9,7.7-5.2,12.6-7.5,16.5
		c0,0-8,13.3-18,51c-6.7,25.4-5.9,75.4,13.5,129c5.6,15.5,27.3,71.2,96,136.5c18.5,17.5,96.7,89.3,226.5,130.5
		c171.2,54.3,311.1,16.9,327,9c1.6-0.8,9.5-5,21-7.5c2.4-0.5,13.7-2.8,30-1.5c16.5,1.3,18.2,4.8,27,3c2-0.4,15.8-3.4,22.5-15
		c2.9-5.1,1.9-15.4,0-36c-0.9-9-1.5-12.6-4.5-15c-4.5-3.7-8.9-0.3-19.5-1.5c-10.8-1.3-18.7-6.2-25.5-10.5c-8.3-5.2-13.5-10.5-15-12
		c-8.4-8.2-25.6-19.6-64.5-33c26.1,1.7,47.3-1.4,61.5-4.5c18.6-4.1,33.3-7.3,49.5-18c10.1-6.7,23.9-18.4,36-31.5
		c8.9-9.7,9.5-12,15-15c16.8-9.2,30.3,2.3,40.4-6.5c8-7,6.9-20.9,6.1-29.5c-0.7-8-1.6-18.3-9-24c-1.5-1.2-5.4-3.7-28.5-3
		c-18.7,0.6-21.7,2.4-27,0c-5.6-2.5-12.7-9.1-16.5-28.5c17.4-8.6,31.9-15.1,42-19.5c31.3-13.6,42.7-16.5,55.5-30
		c4.6-4.8,11.6-12.2,16.5-24c6-14.5,2.4-20.2,9-28.5c6.1-7.7,11.2-5.3,28.5-15c14.6-8.1,22.3-12.5,25.5-21c3.5-9.5-0.6-18.8-9-37.5
		c-5.5-12.3-8.3-18.4-13.5-21c-8.7-4.3-15.9,1.8-37.5,6c0,0-10.9,2.1-28.5,3c-23.9,1.2-36.6-3.6-54-6c-22-3-37.8-0.4-67.5,4.5
		c-32.4,5.4-44.4,12.2-85.5,25.5c-41.5,13.4-72.8,23.6-111,28.5c-51.9,6.7-93,0.7-106.5-1.5c-19.6-3.2-73.5-12.6-127.5-45
		c-3.7-2.2-40.1-24.2-72-37.5c-19.8-8.3-32.1-10.8-39-12c-6.5-1.1-9.4-1.1-21-3c-16.6-2.7-24.9-4-30-6c-2.5-1-23.7-9.6-33-30
		c-7.1-15.5-0.3-22.5-9-34.5C125.6,306.7,116.6,294.6,102.6,293.1z"/>
	<path fill="none" stroke="#000000" stroke-width="18" stroke-linecap="round" stroke-linejoin="round" stroke-miterlimit="10" d="
		M63.1,297.7c4.5,4.1,9.2,8.6,14,13.4c1.3,1.3,10.8,11.1,15,16.5c4.6,6,8.2,13.6,12,51c3.4,32.9,1.5,35.3,6,43.5
		c6.8,12.4,14.9,13.6,30,27c15.4,13.7,22.5,26.4,31.5,40.5c3.9,6.2,51.2,80.1,87,118.5c49.3,52.9,110.1,74.3,159,91.5
		c35.2,12.4,42.3,10.5,103.5,27c62.4,16.8,112.4,34.2,145.5,46.5"/>
	<path fill="none" stroke="#000000" stroke-width="18" stroke-linecap="round" stroke-linejoin="round" stroke-miterlimit="10" d="
		M794.1,612.6c-17.2,8.3-40.7,18.9-69,30c-17.9,7-69.5,27-123,39c-42.4,9.5-112.9,20.2-206,10.3"/>
	<path fill="none" stroke="#000000" stroke-width="13" stroke-linecap="round" stroke-linejoin="round" stroke-miterlimit="10" d="
		M29.1,360.6c15.7,4.4,26,2.4,33-1.5c16.5-9.2,17.3-30.2,30-31.5c8.9-0.9,12.9,8.9,22.5,7.5c7.9-1.1,13.3-8.9,16.7-15.4"/>
	<path fill="none" stroke="#000000" stroke-width="13" stroke-linecap="round" stroke-linejoin="round" stroke-miterlimit="10" d="
		M56.1,495.6c0.9,30.8,6.7,76.5,31.5,124.5c23.8,46.1,54.2,73.3,79.5,96c10.2,9.1,47.8,42,108,72c79.1,39.4,148.7,49.7,211.5,58.5
		c37.4,5.2,82.9,9.3,135,9"/>
	<path fill="none" stroke="#000000" stroke-width="13" stroke-linecap="round" stroke-linejoin="round" stroke-miterlimit="10" d="
		M339.6,620.1c32.7,6.7,76.2,12.7,127.5,12c18.8-0.3,79-2,154.5-22.5c33.7-9.1,76.8-23.8,124.5-48"/>
	<path fill="none" stroke="#000000" stroke-width="13" stroke-linecap="round" stroke-linejoin="round" stroke-miterlimit="10" d="
		M948.6,416.1c-1.8,1-15.5,9-18,25.5c-0.4,2.4-2.8,18.2,9,28.5c8.4,7.3,20.6,9,31.5,4.5"/>
	<path fill="none" stroke="#000000" stroke-width="13" stroke-linecap="round" stroke-linejoin="round" stroke-miterlimit="10" d="
		M866.1,644.1c-10.9,0-20.8,5.8-25.5,15c-5.7,11.2-2.8,25.6,7.5,34.5"/>
	<path fill="none" stroke="#000000" stroke-width="13" stroke-linecap="round" stroke-linejoin="round" stroke-miterlimit="10" d="
		M771.6,828.6c-3.8,2.9-11.7,9.7-15,21c-4.6,15.9,1.9,34.1,16.5,46.5"/>
</g>
<g id="vs-h-reveal">
	
		<path fill="none" stroke="#000000" stroke-width="72" stroke-linecap="round" stroke-linejoin="round" stroke-miterlimit="10" stroke-opacity="0" d="
		M26.5,314.5c33.4-6.3,67.2-10.7,101.1-13.3c5.5,9.4-6.7,19.2-17.1,22.5c-25.1,8.1-51.8,11-78,8.4c-5.4-0.5-11-1.3-15.9,0.8
		c-5,2-8.9,7.9-6.6,12.8c2.1,4.5,7.8,5.7,12.7,6.3c40.2,4.5,81.2,1.4,120.2-9c6.2-1.7,14.3-2.9,17.9,2.4c3.1,4.5,0.4,11-4.1,14
		s-10.2,3.3-15.6,3.5c-44.8,1.8-89.7,0.9-134.4-2.7c-1.9,7.5,8.9,11,16.6,11c38.6-0.2,77.1-0.4,115.7-0.5c17.7-0.1,40.4,3.6,44,21
		c-21.1,3.1-42.2,6.3-63.3,9.4c-6.6,1-15.4,6.3-11.7,11.9c1.2,1.9,3.6,2.7,5.8,3.2c11.7,2.3,23.5-2.4,35.4-3.3
		c11.9-1,26.5,4.5,27.8,16.4c-17.9,0.5-35.5,8.2-47.9,21c16.8-1.8,33.7-3.6,50.5-5.3c4.7-0.5,10-0.7,13.2,2.7
		c6.6,7.2-4.3,17.2-13.4,20.5c-9.2,3.3-20.6,12.1-15,20.1c4.5,6.4,14.5,2.8,21.5-0.9s17.9-5.8,20.7,1.6c2.6,6.7-4.9,12.4-9.4,17.9
		c-4.6,5.6-6.5,13.3-5.1,20.4c8.9-6.5,20.5-9,31.2-6.8c-5.2,11.3-10.3,22.5-15.5,33.8c10-3.9,20-7.9,30.1-11.8
		c-5.3,16.2-11.2,32.1-17.8,47.8c10.1-4.3,20.2-8.6,30.3-12.9c2-0.9,4.2-1.7,6.3-1.2c4.5,1.1,5.4,6.9,5.4,11.6
		c-0.1,10.5-0.2,21-0.2,31.5c12.6-7.3,24.4-16,35.1-25.9c2.8,16.8,5.6,33.6,8.3,50.4c7.8-9.1,15.7-18.2,23.5-27.3
		c4.1,21.4,8.3,42.8,12.4,64.2c9.5-19.1,19-38.1,28.5-57.2c1.4-2.8,3.4-6,6.5-5.8c3.3,0.2,5,4,5.9,7.3c6.1,22.2,12.3,44.5,18.4,66.7
		c7.1-23.3,16.1-46.1,26.8-68c11.4,31.6,18.8,64.6,22.1,98c11.1-34.7,19.7-70.1,25.9-106c14.5,37.6,23,77.6,25,117.9
		c21.4-33.3,33.8-72.3,35.6-111.9c18.7,37.4,19,81,19,122.8c27.9-36.3,8.6-94,36.1-130.6c13.1,47.1,19.1,96.1,17.9,144.9
		c17.4-58.9,31.5-118.8,42.2-179.3c15.6,56.6,17.4,116.9,5.4,174.3c17.7-52.1,32-105.3,42.7-159.3c8.1,34.3,10.5,70,7,105
		c7.5-41,14.9-82.1,22.4-123.1c9.1,27.3,13.7,56.2,13.5,85c3.6-31.1,7.3-62.2,10.9-93.3c7.6,35.9,10.2,72.8,7.7,109.4
		c6.4-47.8,17.2-94.9,32.3-140.7c8.2,37,10,75.4,5.2,113c7.4-41.5,17.3-82.5,29.7-122.8c6.9,18.9,10.4,39.1,10,59.3
		c3.7-21.1,7.4-42.2,11.1-63.2c4.9,16.6,7.9,33.8,8.9,51.2c3.3-16.6,5-33.5,5.3-50.4c5.2,14.9,8.9,30.4,11.1,46.1
		c0-11.4,0-22.7,0-34.1c1.2,2,2.4,4,3.7,6.1"/>
	
		<path fill="none" stroke="#000000" stroke-width="72" stroke-linecap="round" stroke-linejoin="round" stroke-miterlimit="10" stroke-opacity="0" d="
		M948.8,416.1c-0.9,6.7-7.6,10.9-13,14.9c-5.5,4-10.8,10.9-7.8,17c8-2.1,15.5-5.9,22-11c5.9,6.2,4.2,17.7-3.2,22
		c-2.3,1.3-5.1,2-7.2,3.7c-2.1,1.7-3.3,5.1-1.5,7.1c6.5-0.6,12.7-3.8,17-8.6c3.4,2.5,6.9,5.1,8.8,8.8c1.8,3.8,1.4,9-2.1,11.3
		c-0.9,0.6-2.1,1-2.7,2c-0.8,1.3-0.2,3,0.4,4.4c1.9,4.1,3.7,8.3,5.6,12.4"/>
	
		<path fill="none" stroke="#000000" stroke-width="72" stroke-linecap="round" stroke-linejoin="round" stroke-miterlimit="10" stroke-opacity="0" d="
		M843.6,644.1c10.1-0.8,20.5,3.9,26.6,12c-4.9-1.9-10.9-0.3-14.3,3.8c-3.3,4.1-3.7,10.3-0.9,14.7c4.4,0.3,7.7,4.4,8.6,8.7
		c0.9,4.3-0.1,8.7-1.1,13c-5.8,0.2-11.6,0.4-17.4,0.5c-0.4,2.2,3.5,3.3,4.3,1.2"/>
	
		<path fill="none" stroke="#000000" stroke-width="72" stroke-linecap="round" stroke-linejoin="round" stroke-miterlimit="10" stroke-opacity="0" d="
		M50.9,390.9c3.1-10,21.7-6.7,21.2,3.7c-6.2,0.2-12.5,0.5-18.7,0.7c-1.8,3.4-2.4,7.5-1.6,11.2c10.9,0.3,21.8,0.6,32.8,0.9
		c8.2,3.8,0.7,17.1-8.2,18.7s-19.3-0.8-26.2,5.1c-0.1,3.5-0.3,7-0.4,10.4c6.1,0.7,12,3.6,16.5,7.9c-9.9,4.6-19.8,9.2-29.7,13.8
		c-6,2.8-13.1,8.8-9.7,14.4c1.8,3,5.9,3.8,9.4,4.2c11.2,1.3,22.4,2.7,33.6,4c-14.7,6.5-29.4,13-44.2,19.5c-5,2.2-10.8,5.6-10.7,11.1
		c0.1,6.5,8.3,9.2,14.7,10.2c10.7,1.6,21.5,3.1,32.2,4.7c-21.2,7.5-34.1,32.9-27.8,54.5c12.3-0.8,24.2-6.3,32.7-15.3
		c-0.5,10.7-10.9,17.6-18.8,24.7c-7.9,7.2-13.9,20.6-5.9,27.6c12.8,6.4,30,1.7,37.9-10.3c-10.4,16.4-16.2,35.7-16.3,55.2
		c12.9-3.7,23.4-14.9,26.2-28c-2.5,19-5,38-7.5,57.1c6.2-15.9,16.3-30.2,29.3-41.2c3.8,26.2,3.6,53-0.4,79.2
		c6.4-13.9,14.6-26.9,24.3-38.7c-0.2,24.1-0.3,48.2-0.5,72.3c13.6-12.9,27.1-25.9,40.7-38.8c2.1,22.5,1.7,45.2-1.2,67.6
		c27.8-12.4,55.5-24.9,83.3-37.3c-12,24.3-20.4,50.3-24.8,77c21.6-10.1,41.7-23.3,59.6-39c-10,24.1-20.6,47.9-31.8,71.5
		c38-9.1,74.1-26.2,105.2-49.8c-6.8,26.3-22,49.4-37,72c25-23.1,54.4-41.4,86.1-53.8c-10.6,16.8-21.2,33.6-31.8,50.5
		c31.3-16.8,63.8-31.2,97.3-43c-18.3,19.1-36.7,38.1-55,57.2c34.6-20.2,70.2-38.6,106.8-54.9c-16.8,26.9-37.8,51.2-62,71.6
		c43.2-24.5,86.4-48.9,129.6-73.4c-3,38.2-39.8,63.4-72.8,82.8c39.3-25.1,78.7-49.8,118.3-74.4c1.7,23.6-6.8,47.8-23,65.1
		c18.3-21.8,36.7-43.6,55-65.4c10.2,13.3,5,35.4-10.1,42.8c27.9-5.7,53.1-23.3,68-47.6c3.9-6.3,7.3-13.3,13.1-17.9
		c5.8-4.6,15.1-6.1,20.4-0.8c4.2,4.2,4.3,10.9,3.8,16.8c-1.4,14.8-5.7,29.3-12.6,42.4c15.8-13.1,26.4-32.2,29.3-52.5
		c0,18.3-0.1,36.6-0.1,54.9c-1.4-4-1.2-8.5,0.4-12.5"/>
</g>
</svg>
