<?xml version="1.0" encoding="utf-8"?>
<!-- Generator: Adobe Illustrator 15.0.0, SVG Export Plug-In . SVG Version: 6.00 Build 0)  -->
<!DOCTYPE svg PUBLIC "-//W3C//DTD SVG 1.1//EN" "http://www.w3.org/Graphics/SVG/1.1/DTD/svg11.dtd">
<svg version="1.1" id="Layer_1" xmlns="http://www.w3.org/2000/svg" xmlns:xlink="http://www.w3.org/1999/xlink" x="0px" y="0px"
	 width="193.334px" height="170px" viewBox="-16.167 16.103 193.334 170" enable-background="new -16.167 16.103 193.334 170"
	 xml:space="preserve">
<g>
	<path fill="#FEFEF4" d="M153.382,63.889c-6.167-3.083-14.422-4.734-21.927,0.685c-6.167,4.454-8.137,14.039-6.51,15.417
		c0,0,3.634,2.606,5.414,0.96c0,0,2.124-14.664,8.976-14.322s16.104,2.741,12.677,10.963s-5.825,13.361-13.362,16.102
		s-18.501,10.278-18.501,10.278s-5.481,5.139-1.713-4.111c3.628-8.904,6.77-36.985,6.853-37.687
		c-1.38-0.489-28.79,1.816-38.715,3.083c0,0-30.833,2.399-42.824,1.029S18.055,58.065,15.657,56.01s-5.142,12.676-2.743,21.583
		s2.058,19.53,8.223,27.409c0,0-16.682,6.783-18.501,9.593c-4.486,6.931-10.726,25.345-4.454,28.094
		c7.247,3.176,31.184,12.058,39.057,13.019c13.459,1.644,26.062,3.415,39.742,3.427c10.345,0.009,31.786-3.471,41.798-5.482
		c8.021-1.611,23.307-6.912,29.464-13.019c9.15-9.074,0.63-28.853-8.564-28.437c0,0-24.315-6.259-8.908-10.963
		c9.742-2.975,23.983-10.621,27.066-18.501S159.549,66.973,153.382,63.889z"/>
	<path fill="#FEFEF4" d="M123.319,80.668c0,0-0.002,0.018-0.005,0.045c0.04,0.015,0.078,0.028,0.114,0.042
		C123.393,80.729,123.358,80.701,123.319,80.668z"/>
</g>
<path fill="#FFF047" d="M118.763,115.28l1.386,0.342c6.167,1.714,22.513,9.77,13.362,18.844c-6.157,6.106-13.562,5.926-21.584,7.537
	c-10.012,2.012-17.407,3.777-27.752,3.769c-13.681-0.012-24.227-0.069-37.687-1.713c-7.874-0.961-19.476-3.676-26.723-6.852
	c-6.272-2.749-10.575-7.04-6.089-13.971c1.819-2.81,11.895-9.453,14.654-7.614l1.336,0.481l-2.334-1.556l-0.537-0.462
	c-2.76-1.839-14.893,6.174-16.711,8.983c-4.486,6.931,0.151,12.85,6.423,15.599c7.247,3.176,16.487,5.292,24.361,6.253
	c13.459,1.644,26.712,2.729,40.393,2.74c10.345,0.009,20.131-2.1,30.143-4.111c8.021-1.611,17.498-2.098,23.655-8.204
	c9.15-9.074-7.936-22.361-17.13-21.945l0.334-0.328L118.763,115.28z"/>
<polygon fill="#EE314D" points="13.667,107.104 21.136,105.002 26.5,112.27 22.167,115.104 "/>
<polygon fill="#EE314D" points="-2.271,123.754 4.008,114.596 14.167,118.77 9.362,124.699 "/>
<path fill="#FFF047" d="M15.312,74.853c0,0,9.935,7.538,24.325,7.88s42.826-0.685,51.048-1.028s21.582-1.029,24.325-1.713
	s6.853-2.055,6.853-2.055s3.082,3.769-1.714,4.454s-30.835,3.426-41.455,3.426c-10.621,0-44.539,0.343-50.021-2.056
	S3.321,71.084,15.312,74.853z"/>
<polygon fill="#EE314D" points="12.23,71.77 19.083,75.538 19.083,59.436 13.599,56.352 "/>
<polygon fill="#EE314D" points="-4.603,138.437 2.295,145.772 13,136.437 8.167,130.937 "/>
<polygon fill="#EE314D" points="-4.103,138.604 2.795,145.939 13.5,136.604 8.667,131.104 "/>
<polygon fill="#EE314D" points="15,149.27 28.333,153.604 33.833,144.604 21.833,141.104 "/>
<polygon fill="#EE314D" points="25.25,78.622 34.84,81.705 34.842,65.603 26.618,63.204 "/>
<polygon fill="#EE314D" points="42.73,82.372 51.638,83.056 51.638,67.639 44.098,66.954 "/>
<polygon fill="#EE314D" points="40.667,156.051 48.204,157.764 50.638,146.806 43.098,146.12 "/>
<polygon fill="#EE314D" points="60.5,159.604 69,158.604 68.138,148.306 60.598,147.62 "/>
<polygon fill="#EE314D" points="78.75,157.929 90.25,157.067 89.083,148.201 78.884,147.611 "/>
<polygon fill="#EE314D" points="100.333,156.77 109.167,155.437 105.833,145.27 98.341,146.111 "/>
<polygon fill="#EE314D" points="118.333,153.937 126.319,152.282 121.522,142.347 113.087,143.861 "/>
<polygon fill="#EE314D" points="133.833,149.437 142.245,145.272 134.5,136.937 128.586,139.361 "/>
<polygon fill="#EE314D" points="150,138.771 153.167,131.604 138.31,128.985 137.586,130.861 "/>
<polygon fill="#EE314D" points="152.333,123.937 146.667,116.271 135.144,121.818 137.333,125.937 "/>
<polygon fill="#EE314D" points="136.833,111.271 123.833,105.771 119,112.937 128.333,117.104 "/>
<polygon fill="#EE314D" points="57.452,82.733 70.472,82.732 70.472,66.972 58.82,67.315 "/>
<polygon fill="#EE314D" points="78.673,82.39 86.231,82.047 86.231,66.287 77.664,66.629 "/>
<polygon fill="#EE314D" points="93.405,81.705 100.962,81.362 100.962,65.602 92.395,65.944 "/>
<polygon fill="#EE314D" points="109.68,80.163 117.238,79.82 117.238,64.06 108.67,64.402 "/>
<path fill="#FFFFFF" d="M15.657,56.01c3.472-2.932,9.717-3.577,14.064-4.387c6.362-1.186,12.775-2.434,19.168-3.569
	c15.377-2.729,30.751-1.752,46.26-0.875c4.839,0.273,32.357,3.6,29.747,12.258c-1.517,5.029-14.428,4.261-18.106,4.529
	c-8.33,0.606-16.801,0.501-25.103,1.314c-13.887,1.36-28.148,2.429-42.04,0.066c-6.405-1.09-19.725-3.026-23.526-9.18
	c0.265,0.648,0.566,1.287,0.906,1.9"/>
<path fill="none" stroke="#000000" stroke-width="1.5" stroke-linecap="round" stroke-linejoin="round" stroke-miterlimit="10" d="
	M15.657,56.01c3.472-2.932,9.717-3.577,14.064-4.387c6.362-1.186,12.775-2.434,19.168-3.569c15.377-2.729,30.751-1.752,46.26-0.875
	c4.839,0.273,32.357,3.6,29.747,12.258c-1.517,5.029-14.428,4.261-18.106,4.529c-8.33,0.606-16.801,0.501-25.103,1.314
	c-13.887,1.36-28.148,2.429-42.04,0.066c-6.405-1.09-19.725-3.026-23.526-9.18c0.265,0.648,0.566,1.287,0.906,1.9"/>
<path fill="none" stroke="#000000" stroke-width="1.5" stroke-linecap="round" stroke-linejoin="round" stroke-miterlimit="10" d="
	M48.889,129.327c4.243-0.638,9.274,3.062,13.772,3.426c7.967,0.643,16.17,0.75,23.998-0.95c5.795-1.258,11.096-3.742,15.778-7.64
	c3.518-2.929,9.401-6.969,10.52-11.623"/>
<path fill="none" stroke="#000000" stroke-width="1.5" stroke-linecap="round" stroke-linejoin="round" stroke-miterlimit="10" d="
	M125.633,57.038c-1.155,1.643-0.201,7.508-0.343,10.278c-0.231,4.522-1.133,8.989-1.972,13.353c-1.43,7.44-3.351,16.14-6.594,22.621
	"/>
<path fill="none" stroke="#000000" stroke-width="1.5" stroke-linecap="round" stroke-linejoin="round" stroke-miterlimit="10" d="
	M133.513,71.77c-1.495,2.384-1.225,7.469-3.153,9.182c-2.618,2.326-4.856-0.637-5.487-2.94c-1.482-5.412,3.071-10.921,7.612-13.437
	c9.928-5.499,28.104-4.601,27.409,10.271c-0.721,15.421-20.842,22.752-32.573,28.358c-4.918,2.35-9.485,5.839-8.558,12.077
	c0.393,2.64,2.815,7.019-2.038,6.509c-3.523-0.37-3.646-4.063-3.769-6.927c-0.153-3.574-0.363-6.509,2.406-8.925
	c1.914-1.669,4.971-2.587,7.187-3.77c6.962-3.716,14.48-7.413,21.089-11.648c5.652-3.623,11.257-10.592,9.42-18.064
	c-1.516-6.165-11.656-6.379-16.47-4.196c-2.321,1.053-4.932,2.674-4.445,5.566"/>
<path fill="none" stroke="#000000" stroke-width="1.5" stroke-linecap="round" stroke-linejoin="round" stroke-miterlimit="10" d="
	M15.314,55.667c-7.165-0.059,0.765,38.527,3.083,43.435c3.281,6.945,8.324,14.885,13.78,20.307c3.082,3.062,6.79,5.285,10.639,7.178
	c3.455,1.699,5.925,1.828,9.499,2.741"/>
<path fill="none" stroke="#000000" stroke-width="1.5" stroke-linecap="round" stroke-linejoin="round" stroke-miterlimit="10" d="
	M93.771,129.67c1.937,0.751,1.625,3.266,0.342,4.555c-1.425,1.431-5.529,1.515-7.52,1.612c-5.192,0.256-10.338,0.073-15.503,0.343
	c-4.923,0.257-9.983,0.596-14.913,0.686c-2.524,0.046-4.575,0.084-6.185-1.791c-0.97-1.13-2.037-4.261-0.418-4.719"/>
<path fill="none" stroke="#000000" stroke-width="1.5" stroke-linecap="round" stroke-linejoin="round" stroke-miterlimit="10" d="
	M22.166,105.688c-5.779-2.872-17.687,7.2-21.242,11.307c-4.32,4.989-8.018,13.283-6.175,19.956
	c2.299,8.328,13.567,10.57,20.667,12.84c8.731,2.79,17.371,5.015,26.278,6.938c10.616,2.293,19.892,3.042,30.766,2.065
	c11.078-0.994,21.85-2.284,33.036-2.743c11.096-0.455,21.592-3.249,31.442-8.146c6.056-3.011,13.487-7.549,15.417-14.465
	c4.354-15.61-14.961-24.748-27.065-26.723"/>
<path fill="none" stroke="#000000" stroke-linecap="round" stroke-linejoin="round" stroke-miterlimit="10" d="M12.23,71.77
	c13.568,12.547,35.821,11.306,53.187,11.306c13.497,0,26.742-1.431,40.109-2.056c4.602-0.215,15.777-0.432,18.051-4.796"/>
<path fill="none" stroke="#000000" stroke-linecap="round" stroke-linejoin="round" stroke-miterlimit="10" d="M12.23,74.77
	c13.568,12.548,35.821,11.306,53.187,11.306c13.497,0,26.742-1.431,40.109-2.056c4.602-0.215,15.777-0.432,18.051-4.796"/>
<path fill="none" stroke="#000000" stroke-linecap="round" stroke-linejoin="round" stroke-miterlimit="10" d="M19.083,59.436
	c0.651,6.21,0.47,12.771,0.317,19.09c0.361-0.503,0.522-1.053,0.71-1.617"/>
<path fill="none" stroke="#000000" stroke-linecap="round" stroke-linejoin="round" stroke-miterlimit="10" d="M25.592,63.547
	c0,5.804,0.342,12.694,0.342,17.865c0-0.359,0-0.718,0-1.077"/>
<path fill="none" stroke="#000000" stroke-linecap="round" stroke-linejoin="round" stroke-miterlimit="10" d="M35.87,81.705
	c-0.421,0.595-0.241-0.613-0.341-1.713c-0.104-1.152-0.022-2.364-0.077-3.513c-0.167-3.528-0.855-7.31-0.609-10.876"/>
<path fill="none" stroke="#000000" stroke-linecap="round" stroke-linejoin="round" stroke-miterlimit="10" d="M43.75,66.288
	c-0.018,5.446-1.138,11.451,0,16.788"/>
<path fill="none" stroke="#000000" stroke-linecap="round" stroke-linejoin="round" stroke-miterlimit="10" d="M51.973,67.658
	c0,5.368,0,10.735,0,16.103"/>
<path fill="none" stroke="#000000" stroke-linecap="round" stroke-linejoin="round" stroke-miterlimit="10" d="M57.797,66.973
	c0.836,3.961-0.798,12.391,1.713,15.417"/>
<path fill="none" stroke="#000000" stroke-linecap="round" stroke-linejoin="round" stroke-miterlimit="10" d="M70.474,68.001
	c0,4.515-1.252,11.803,0.342,15.76"/>
<path fill="none" stroke="#000000" stroke-linecap="round" stroke-linejoin="round" stroke-miterlimit="10" d="M76.983,66.288
	c-0.04,5.529,1.187,11.313,1.713,16.788"/>
<path fill="none" stroke="#000000" stroke-linecap="round" stroke-linejoin="round" stroke-miterlimit="10" d="M85.206,65.26
	c1.877,5.167-0.276,12.331,1.713,16.788"/>
<path fill="none" stroke="#000000" stroke-linecap="round" stroke-linejoin="round" stroke-miterlimit="10" d="M93.085,64.232
	c0.012,3.751-1.467,15.235,1.028,17.815"/>
<path fill="none" stroke="#000000" stroke-linecap="round" stroke-linejoin="round" stroke-miterlimit="10" d="M101.651,64.575
	c-0.189,5.655,1.173,11.532,0.686,17.13"/>
<path fill="none" stroke="#000000" stroke-linecap="round" stroke-linejoin="round" stroke-miterlimit="10" d="M109.188,64.232
	c-0.277,5.552,1.078,11.264,0.686,16.788"/>
<path fill="none" stroke="#000000" stroke-linecap="round" stroke-linejoin="round" stroke-miterlimit="10" d="M116.725,62.862
	c-0.098,5.365,1.028,10.952,1.028,16.445"/>
<path fill="none" stroke="#000000" stroke-linecap="round" stroke-linejoin="round" stroke-miterlimit="10" d="M118.096,113.567
	c9.194-0.416,26.28,12.871,17.13,21.945c-6.157,6.106-15.634,6.593-23.655,8.204c-10.012,2.012-19.798,4.12-30.143,4.111
	c-13.681-0.012-26.934-1.097-40.393-2.74c-7.874-0.961-17.114-3.077-24.361-6.253c-6.272-2.749-10.91-8.668-6.423-15.599
	c1.819-2.81,13.952-10.822,16.711-8.983"/>
<path fill="none" stroke="#000000" stroke-linecap="round" stroke-linejoin="round" stroke-miterlimit="10" d="M28.331,115.622
	c-2.76-1.839-12.835,4.805-14.654,7.614c-4.486,6.931-0.184,11.222,6.089,13.971c7.247,3.176,18.85,5.891,26.723,6.852
	c13.459,1.644,24.006,1.701,37.687,1.713c10.345,0.009,17.74-1.757,27.752-3.769c8.021-1.611,15.427-1.431,21.584-7.537
	c9.15-9.074-7.195-17.13-13.362-18.844"/>
<path fill="none" stroke="#000000" stroke-linecap="round" stroke-linejoin="round" stroke-miterlimit="10" d="M129.402,115.966
	c-0.057,0.241-0.63,0.823-0.031,0.384c1.431-1.43,7.133-6.23,8.254-5.522"/>
<path fill="none" stroke="#000000" stroke-linecap="round" stroke-linejoin="round" stroke-miterlimit="10" d="M133.856,121.79
	c3.324-1.616,7.601-3.988,11.306-5.139"/>
<path fill="none" stroke="#000000" stroke-linecap="round" stroke-linejoin="round" stroke-miterlimit="10" d="M137.282,125.559
	c4.184-0.971,9.369-0.236,13.275-1.746c-0.32,0.108-0.634,0.233-0.941,0.376"/>
<path fill="none" stroke="#000000" stroke-linecap="round" stroke-linejoin="round" stroke-miterlimit="10" d="M148.93,138.578
	c-0.386-1.653-8.737-6.109-10.963-6.51"/>
<path fill="none" stroke="#000000" stroke-linecap="round" stroke-linejoin="round" stroke-miterlimit="10" d="M133.17,137.55
	c3.077,1.475,6.696,5.574,8.908,8.223"/>
<path fill="none" stroke="#000000" stroke-linecap="round" stroke-linejoin="round" stroke-miterlimit="10" d="M138.31,128.985
	c3.497,0.651,9.655,2.145,14.096,1.695c0.465,0.383-0.26,0.119-0.392,0.36"/>
<path fill="none" stroke="#000000" stroke-linecap="round" stroke-linejoin="round" stroke-miterlimit="10" d="M129.059,140.291
	c0.572,2.027,3.594,5.707,5.14,7.88"/>
<path fill="none" stroke="#000000" stroke-linecap="round" stroke-linejoin="round" stroke-miterlimit="10" d="M121.522,142.347
	c1.452,3.239,3.654,6.564,4.797,9.936"/>
<path fill="none" stroke="#000000" stroke-linecap="round" stroke-linejoin="round" stroke-miterlimit="10" d="M112.957,143.374
	c0.1,2.986,2.854,7.099,4.454,9.594"/>
<path fill="none" stroke="#000000" stroke-linecap="round" stroke-linejoin="round" stroke-miterlimit="10" d="M105.762,144.745
	c0.339,3.476,1.932,6.965,3.083,10.278"/>
<path fill="none" stroke="#000000" stroke-linecap="round" stroke-linejoin="round" stroke-miterlimit="10" d="M97.882,146.115
	c-0.192,2.89,1.175,5.52,1.713,8.223"/>
<path fill="none" stroke="#000000" stroke-linecap="round" stroke-linejoin="round" stroke-miterlimit="10" d="M89.317,147.828
	c-0.242,3.153,1.345,6.126,1.37,9.251"/>
<path fill="none" stroke="#000000" stroke-linecap="round" stroke-linejoin="round" stroke-miterlimit="10" d="M12.573,106.373
	c2.78,2.195,5.834,5.282,8.908,7.194"/>
<path fill="none" stroke="#000000" stroke-linecap="round" stroke-linejoin="round" stroke-miterlimit="10" d="M4.008,114.596
	c2.241,0.444,9.21,2.424,9.593,3.769"/>
<path fill="none" stroke="#000000" stroke-linecap="round" stroke-linejoin="round" stroke-miterlimit="10" d="M-0.446,122.818
	c-0.001,0.434-0.659,0.487-0.031,0.701c3.178-0.152,6.167,0.709,9.281,1.012"/>
<path fill="none" stroke="#000000" stroke-linecap="round" stroke-linejoin="round" stroke-miterlimit="10" d="M-5.928,137.55
	c4.056-1.273,9.011-3.722,12.676-5.824"/>
<path fill="none" stroke="#000000" stroke-linecap="round" stroke-linejoin="round" stroke-miterlimit="10" d="M2.295,145.772
	c3.303-2.137,7.3-6.054,9.936-8.907"/>
<path fill="none" stroke="#000000" stroke-linecap="round" stroke-linejoin="round" stroke-miterlimit="10" d="M20.11,142.004
	c0.742,2.559-4.505,5.476-5.481,7.88"/>
<path fill="none" stroke="#000000" stroke-linecap="round" stroke-linejoin="round" stroke-miterlimit="10" d="M32.787,145.772
	c1.171,1.983-2.497,5.54-3.083,7.88"/>
<path fill="none" stroke="#000000" stroke-linecap="round" stroke-linejoin="round" stroke-miterlimit="10" d="M42.722,145.772
	c0.315,3.688-1.865,7.148-2.424,10.67c0.387,0.453,0.133-0.234,0.369-0.392"/>
<path fill="none" stroke="#000000" stroke-linecap="round" stroke-linejoin="round" stroke-miterlimit="10" d="M49.917,146.458
	c0.249,3.716-1.058,7.729-1.713,11.306"/>
<path fill="none" stroke="#000000" stroke-linecap="round" stroke-linejoin="round" stroke-miterlimit="10" d="M59.51,147.828
	c0.17-0.49,0.399-0.77,0.417-1.344c1.115,3.562-1.569,11.09,0.953,14.021"/>
<path fill="none" stroke="#000000" stroke-linecap="round" stroke-linejoin="round" stroke-miterlimit="10" d="M68.418,148.856
	c1.95,2.551-0.179,7.537,1.371,10.278"/>
<path fill="none" stroke="#000000" stroke-linecap="round" stroke-linejoin="round" stroke-miterlimit="10" d="M79.039,148.856
	c0.062,3.683,0.139,7.577,0.419,11.278c0.506-0.078,0.072-0.34,0.267-0.658"/>
</svg>
