<?xml version="1.0" encoding="utf-8"?>
<!-- Generator: Adobe Illustrator 21.0.0, SVG Export Plug-In . SVG Version: 6.00 Build 0)  -->
<svg version="1.1" xmlns="http://www.w3.org/2000/svg" xmlns:xlink="http://www.w3.org/1999/xlink" x="0px" y="0px" width="1000px"
	 height="1000px" viewBox="0 0 1000 1000" enable-background="new 0 0 1000 1000" xml:space="preserve">
<g id="vs-primary">
	<path fill="#E2B77D" d="M266,390c-5.9-0.9-9.9,5.6-20,16.2c0,0-18.8,19.7-45,35.8c-14.5,8.9-15.2,6.4-34.5,18.1
		c-12.8,7.8-9.8,7.3-27.3,18.3c-11.8,7.4-15.4,9.1-19.2,14.6c-3.8,5.5-4.9,11.4-7,23c-1.2,6.7-2.5,15.8-3,27
		c9.2,6.5,21.4,14.9,35.7,24.6c24.3,16.4,42.4,27.9,62,40.3c34.8,22.1,52.2,33.1,62,37.8c32.2,15.7,36.3,11.6,53.1,24.7
		c11.4,8.8,19.9,18.8,37.2,23.6c11.4,3.2,19.9,2.3,22.9,1.9c8.6-1.1,14.3-4.1,25.1-9.9c25.9-14,38.9-21,41.9-23.4
		c6.8-5.4,16.2-14,25.5-26.9c6,11.5,11.5,20.8,15.6,27.3c24.4,39.3,39.2,48.7,45,52c9,5.1,15.5,6.5,18,7c2.8,0.5,12.8,2.1,31.7-3.3
		c17.1-4.9,17.3-8.6,33.1-13.3c13.8-4.1,16.1-2,31.2-5.4c13.2-2.9,16.3-5.6,40-15.1c22.5-9,40.7-15.1,49.9-18.1
		c31.3-10.3,30.2-7.8,43.1-13.8c23-10.7,20.9-16.2,43.6-25.7c15.9-6.7,23.8-6.8,29.8-15.5c1.8-2.6,3.9-6.6,4.9-26.8
		c1.3-26.1,1.9-39.1-4.1-48.5c-4.1-6.5-10.6-10.7-23.5-19.1c-7.3-4.8-9.4-5.4-28.1-15.2c-25.4-13.4-24.8-14-32.7-17.1
		c-10.9-4.2-8-1.4-33.9-8.4c0,0-16.8-4.6-40.5-7c-3-0.3-8-0.7-11.9,2.2c-4.5,3.4-4.4,8.7-6.4,14.8c-3,9.3-9.2,14.9-15.3,20.6
		c-12.7,11.6-20,6.1-36.9,16.7c-13.4,8.3-21.2,19.4-24.8,24.6c-11.2,16-9.3,23.6-20.2,32.6c-3,2.5-13.9,11.4-25.1,8.4
		c-15-4-19-26.4-19.5-29.2c-1.2-7.2,0.2-9.2,4.6-35.7c1.8-10.8,3.4-21.9,4-35.5c0.7-17.9-1.1-23.7-5.2-27.3
		c-4.1-3.6-9.3-3.8-13.9-3.9c-3.1-0.1-15.6-0.2-29.9,10.2c-14.3,10.4-10.8,16.9-24.3,26.8c-3.2,2.4-14.5,10.5-30.7,11.2
		c-5,0.2-17.2,0.7-28-7c-7.7-5.5-10.9-12.4-15.3-21.9c-7.3-15.6-4.3-19.6-11.3-33.5c-3.8-7.6-8.2-16.3-17.7-22.1
		c-8.7-5.3-17.6-5.7-26-6.1c-11.6-0.5-13,1.9-27.7,2.6c-15.8,0.7-23.7,1-30.7-3.1C273.2,407,274.7,391.4,266,390z"/>
</g>
<g id="vs-secondary">
	<path fill="#F9E4E1" d="M334,416c-23.4,1-28.3,6.7-38.4,2c-13.4-6.1-18.2-22.1-20.6-30c-1.4-4.6-6.6-22.7,1.6-42.1
		c8.9-21.1,27.9-30,44.5-37.9c3.7-1.8,20.8-9.6,44.9-11.7c7.9-0.7,11.6-0.3,39,1.7c50.5,3.8,55.8,4,62.3,4c23.2-0.1,22.1-3,48.7-4.3
		c20.2-1,44.5-2.2,74.2,4c7.2,1.5,36.8,8.1,67.4,27.4c18.7,11.8,23.3,19.3,25.6,24.2c5.5,12,1.7,19.1,8.6,30.7
		c4.6,7.7,10.5,11.6,22.2,19c8.9,5.7,13.8,7.5,42.2,20.2c19.8,8.9,24.9,11.4,29.7,17.9c6.3,8.7,7.7,18.5,8.2,21.8
		c0.9,6.8,1.5,11.4-1.1,15.1c-1,1.4-5.3,6.7-28.7,4.4c-14.7-1.5-23.6-4.7-37.3-8.4c-8.2-2.2-20.5-5.3-36-8c-2,4.5-5,10.8-9.3,17.9
		c-7.1,11.6-12.5,20.6-22,27.4c-12.1,8.8-16.9,3.8-31.7,12.6c-13.2,7.9-20.5,18.5-23,22c-13.6,19.9-7.8,32.6-20.1,41.1
		c-7.5,5.2-18.4,6.4-27,2.4c-12.3-5.6-15.4-19.4-15.9-22.4c-2.1-10.8,3.1-13.3,6-32c2.5-16.4-1.4-15,1-35c1.5-12.4,3.7-18.8,1-29
		c-1.3-4.7-2.8-10.6-8-14c-9.4-6.3-23.2,0.7-26.6,2.4c-5.5,2.8-6.3,4.6-16.9,14.2c-9.5,8.6-7.2,5.6-29.7,24.4
		c-11.2,9.4-12.2,10.5-15.8,11.9c-1.7,0.7-15.4,5.8-28.7-0.9c-7.8-3.9-11.6-9.9-17.3-19.1c-6.2-10.1-7.4-15.9-14-33
		c-7.8-20.3-11.7-30.5-16-34C366.7,414.5,352.5,415.2,334,416z"/>
</g>
<g id="vs-colour">
	<path fill="#FF5648" d="M492.7,292.6c-3.5-1.7-14.7-7.6-21-20.9c-1.7-3.7-7.4-16.1-2.5-30.3c4.6-13.4,15.6-19.7,20.7-22.6
		c14.7-8.4,29.2-6.8,33.6-6.1c4.1,0.6,26.1,4,33.4,20.5c2.7,6.1,2.2,11.7,1.3,22.8c-0.8,9.3-1.6,18.4-8,25.9
		c-3.1,3.6-6.9,6.1-14,9.1c-8.5,3.5-23.1,8.2-43.8,8.5"/>
	<path fill="#FF5648" d="M555.8,384.9c0.1-8.1,4.6-14.4,5.5-15.6c1.9-2.5,4.5-5.1,19.1-12.3c12-5.9,18.1-8.9,22.9-9.3
		c3.4-0.3,13.5-1.2,22.5,5.5c10.1,7.6,11.6,19.5,12,23.4c1.5,12.3-3.6,21.5-5.3,24.3c-5.7,9.5-13.9,13.7-16.9,15.2
		c-2.2,1.1-9.9,4.8-19.6,4.4C576.3,419.9,555.5,402.6,555.8,384.9z"/>
	<path fill="#FF5648" d="M370,376.9c1.7,1.1,12.5,7.4,26,4.1c11.6-2.9,22.5-12.2,25-25c2-10.3-2.3-18.6-3-20
		c-1.5-2.8-5.9-9.9-14.9-13.4c-10.5-4.1-19.9-0.2-23.2,1.1c-9.6,3.9-14.6,10.9-16.9,14.3c-3.6,5.3-8.4,12.2-7,21
		C357.7,369.4,366.9,375,370,376.9z"/>
	<path fill="#BFBDC6" d="M859.5,541c3.9-3,15.8,2.3,39.5,13c24.7,11.2,34.4,17.9,41,23c11.6,9.1,18.2,14.3,20.8,23.7
		c3.3,12.2-2.2,23.3-6,30.6c-7.1,13.7-18.6,25.9-42,39.2c-29.7,16.9-55.9,22.8-59.4,23.6c-97,22-88.4,30.3-165.1,43.2
		c-63.1,10.6-109.2,11.7-169.4,13.1c-71.7,1.7-107.6,2.6-157.3-4.5c-55.2-7.9-36.1-12.3-158.6-40c-9.2-2.1-40.8-13.4-103.9-36
		c-12.5-4.5-38.3-14.1-49.4-35.9c-1.9-3.8-7.4-14.6-5.2-27.6c0.3-1.9,1.7-9.1,8.1-17.9c17.3-23.7,60.8-44.4,67.4-47.5
		c2.5,4.3,6.8,10.9,13,18c14.8,16.8,28.9,23.2,55,38c30.5,17.3,23.4,15.5,48,29c36,19.7,35.6,15,63,31c16.1,9.4,31.2,19.8,57,32
		c7.3,3.4,17.9,8.2,32,8c2.2,0,12.4-0.3,26-6c30.2-12.7,51.9-41.9,58.9-51.8c6.2,6.3,14.5,14.7,24.1,24.8c13.9,14.7,20.9,22,26,28
		c17.5,20.6,17.5,25.2,27,30c13.7,7,27.9,4.7,32,4c13.4-2.2,17.7-8,32-15c16-7.9,19-4.8,49-13c24-6.6,41.9-14,54-19
		c8.8-3.7,21.5-9.8,47-22c31.3-15,30.4-15.2,40-19c13.8-5.4,21-7.1,33-14c12-6.9,18-10.3,22-16C875.1,585.2,848.6,549.5,859.5,541z"
		/>
</g>
<g id="vs-shade">
	<path opacity="0.4" d="M285,420c-8.5,1.5-17.6,7.7-36,20c-22.7,15.3-19.3,16.3-31.6,22.4c-10,4.9-17.1,6.6-22.4,14.6
		c-5,7.5-5,15.3-5,17c0.2,9.3,4.9,15.9,8,20c6.3,8.4,11.4,10,23.3,18.6c17.7,12.7,14.4,15,26.7,22.4c11.7,7,14.2,4.7,34.4,13.3
		c11.1,4.8,9.6,5.2,30.6,15.7c22.5,11.3,33.9,16.9,41.4,17.5c12.9,1,19-3.1,28.3,2.1c6.9,3.9,10.6,10.1,13.3,14.4
		c5,8.3,7.1,16.7,8,24c3.4,28.2-11,44.4-5.5,49c5.9,4.9,28.5-9.2,44.2-23.9c17.4-16.4,20.7-28.3,30.3-28c7.8,0.3,13.3,8.5,24.1,24.8
		c13.5,20.4,11.5,25.7,22.5,37.4c13.5,14.5,27.2,18,30.4,18.7c5,1.2,19.8,4.6,25.1-2.2c2.9-3.6,1.3-7.9-6-35c-4.2-15.5-5.7-22-5-31
		c0.5-6.3,1.3-14.4,7-19c6-4.8,13.4-2.5,21.7-2.3c9.3,0.2,11.5-2.3,46-18.3c25.1-11.6,37.9-17.6,51.1-21.8
		c11.6-3.7,14.4-3.8,25.4-7.9c12.8-4.8,21.2-9.3,35.4-17c28.3-15.2,42.4-22.7,48.1-25.4c10.5-5,26.2-11.8,46.5-18.2
		c-22.4-11-39.9-20.4-52.2-27.1c-10.5-5.8-15.8-9-25.1-12.3c-13.5-4.9-21.7-5.2-40.9-8.7c-8.5-1.6-20.9-4.1-36-8
		c-0.3,4.4-1.3,10.7-5,17c-4.8,8.2-9.6,8.5-22,19c-14.7,12.4-14,16.9-23,20c-9.9,3.4-13.6-1.1-21,3c-6.7,3.7-5.8,8.5-14,23
		c-10.1,17.9-13.9,14.7-23,32c-3.5,6.6-4.8,10.5-9,12c-6.8,2.5-15.4-3.2-20-8c-7.2-7.5-8.3-16.4-10.1-32.4
		c-1.4-12.6-2.7-23.8,0.7-37.7c2.2-8.7,4.6-12.2,6.1-23.2c1.3-9.4,2-14.9-0.8-20.8c-4.7-9.9-17.4-16.3-26.9-13.8
		c-5.4,1.4-6.7,4.8-14.1,12.8c-8.4,9.1-17.6,15.4-36,28c-11.8,8.1-17.2,10.7-24,12c-3,0.5-8.9,1.6-16,0c-14.2-3.1-22.4-14.1-26-19
		c-2.4-3.3-3.8-5.9-12-28c-8.8-23.8-9.5-26.9-14-32c-1.9-2.2-10.3-11.7-23.4-14.1c-13.4-2.5-17.2,5.2-35.6,7.1
		C302.5,425,301,417.1,285,420z"/>
	<path opacity="0.4" d="M114,553c-5.6,5.5-1.6,19.4,3,28c8.1,15.4,19.3,16.3,46,37c16.4,12.7,13.6,13.4,26,22
		c17.5,12.2,28.6,14.5,48,23c32.4,14.2,32.3,21,60,34c7.6,3.6,24.8,11.2,67,20c28,5.9,75,15.5,139,16c58.2,0.5,101.7-6.8,145-14
		c34.9-5.8,59.1-11.7,81-17c30.3-7.4,62.6-16.4,99-33c40.1-18.3,46.9-28.2,50-36c10.9-27.2-9.9-59.3-11-59c-0.7,0.2,5.7,13.5,0,27
		c-3.4,8.1-9.7,12.7-13,15c-31.8,22.4-57,31-57,31c-56.5,19.4-40.3,17.1-79,29c-59.4,18.3-55.3,10.6-83,23c-24.9,11.1-38.7,22-65,23
		c-21.6,0.8-32.5-5.7-36-8c-7.4-4.9-10.6-10.2-22-30c-22.9-39.8-27.3-48-34-48c-6.3,0-7.2,7.5-19.7,21.6
		c-7.5,8.5-25.8,26.8-52.3,34.4c-7,2-17.7,5-31,3c-13.5-2-21.8-7.9-32-14c-22.4-13.4-23.1-9.3-54-25c-10.7-5.4-34.9-17.8-61-37
		c-36.7-27-48-46-85-62C128.2,550.6,118.5,548.6,114,553z"/>
	<path opacity="0.4" d="M286.7,335.6c2.9,2.1-7.1,13.1-3.7,28.4c2.2,9.7,8.5,15.7,11,18c8.9,8.2,24.4,14.7,35,9
		c2.9-1.6,5.3-5.1,10-12c11.4-16.9,11.1-23.1,16.9-25.2c8.2-3,12.5,8,24.1,8.2c19.1,0.3,30-29.2,38-26c4.3,1.8,5.7,12.4,3,20
		c-3.2,9.2-11,10.1-12.3,18.9c-0.7,4.4,1.2,5,2.3,14.1c0.9,7.9-0.2,10.2,0,17c0.3,13.3,4.9,23.5,7,28c4.4,9.6,7,15.2,13,19
		c15.3,9.8,38-1.5,43-4c11.2-5.6,9.7-8.6,24-16c10.4-5.3,20-10.1,31-8c5.2,1,9.6,4,18,10c15.6,11,23.4,16.6,27,24
		c3.1,6.4,2.8,17.4,2,39c-0.7,19.3-2,22.6,1,26c9.7,10.8,39-5.8,43,1c3,5.1-14.1,13.7-25.3,38.7c-6.5,14.3-5.7,22.2-13.3,26.1
		c-8.6,4.4-20.5,0.1-27.4-5.8c-9.1-7.8-9-20.3-9-37c0-22,4.9-26.3,5-48c0.1-17.9,0.2-31.7-8-37c-12.6-8.1-37.5,8.4-49,16
		c-17.3,11.5-17.7,17.3-32.7,24.3c-9.3,4.3-25.8,12-39.3,5.7c-6.5-3-9.5-8-26-46c-12.3-28.4-14.4-34.3-22.3-39.5
		c-12.7-8.4-28.5-7.4-33.6-7c-17.9,1.2-19.8,8.8-32.1,7.6c-19.2-2-31.5-22.2-35.8-29.3c-5.4-8.9-12.4-20.4-9.2-33.7
		C266,343.5,283.4,333.2,286.7,335.6z"/>
	<path opacity="0.4" d="M474,246L474,246c5.1,13.5,9,18,9,18c9,10.2,26.5,8.4,30,8c2.9-0.3,21.6-2.3,30-16
		c9.3-15.2-0.3-34.3,2.5-35.2c2.5-0.8,12,13.8,12.8,31.3c0.3,5.8,0.8,18.8-8.3,29.8c-8.8,10.7-21.2,12.6-27.8,13.7
		c-6.6,1.1-23.2,3.7-34.2-5.6C472.8,277.1,474,246,474,246z"/>
	<path opacity="0.4" d="M557.4,392.6c1.3-1.7,8.2,4.5,24.6,7.4c11.1,2,18.3,3.3,24,0c15.1-8.8,5.6-41.6,14-44
		c5.6-1.6,16.9,11.1,18.1,25c1,11.4-5.2,19.8-8.7,24.5c-2.9,4-13.8,18.7-31.4,19.5C571.9,426.2,554.9,395.7,557.4,392.6z"/>
	<path opacity="0.4" d="M643,511c-2.2-2.6,7.3-9,11-25c1.9-8.3,1.3-15,0-28c-2.1-21.8-6.2-27.3-2-33c4.7-6.5,16.1-8.1,24-5
		c7.7,3,8,8.9,17,18c5.1,5.1,11.8,8.8,25,16c24.2,13.1,35.6,16.4,35,19c-0.6,2.8-14.4,2.8-26,1c-21.4-3.4-28-12-36-8
		c-7.5,3.8-4,12.7-12.6,25.2C667.1,507.8,645.9,514.5,643,511z"/>
</g>
<g id="vs-outline">
	<path fill="none" stroke="#000000" stroke-width="18" stroke-linecap="round" stroke-linejoin="round" stroke-miterlimit="10" d="
		M266,390c-5.5,4.7-14.1,11.8-25,20c-21.8,16.3-28.2,18.2-60,40c-31.9,21.8-26.3,20.5-37,26c-10.3,5.3-18.2,8-24,17
		c-4.9,7.6-6.1,16.3-7,23c-1,7.6-1.9,14.2,0,21c3.1,10.9,11.9,16.6,26,26c12.8,8.5,24.7,18.3,38,26c45.2,26.1,38,26.8,76,48
		c27.1,15.1,17.5,7.4,75,36c37.4,18.6,49.7,26,67,22c13.3-3.1,27.8-12.6,36-18c3.3-2.1,12.3-8.2,23-18c14.1-12.8,20.5-22.4,30-34
		c12.5-15.2,15.8-15.3,39-40c5.6-5.9,10.1-10.8,13-14"/>
	<path fill="none" stroke="#000000" stroke-width="18" stroke-linecap="round" stroke-linejoin="round" stroke-miterlimit="10" d="
		M285,420c-22.9,20-42.6,30.8-57,37c-2.4,1-19.3,8.3-34,24c-6.7,7.2-9.7,12.6-9,18c1,7.9,9.3,12.8,13,15c33.8,20.2-0.5,7,58,40
		c18.6,10.5,31.4,17,57,30c23.5,11.9,34.2,16.9,50,19c19.6,2.6,30.9-1.3,35-3c11.8-4.8,18.7-12.4,23-17c18.1-19.1,15.9-10.1,57-46
		c17.1-15,38.5-34.9,62-60"/>
	<path fill="none" stroke="#000000" stroke-width="18" stroke-linecap="round" stroke-linejoin="round" stroke-miterlimit="10" d="
		M648,323c-25.9-16.1-50-20.2-68-23c-31.7-5-59.4-2.8-82-1c-23.6,1.9-32.4,4.4-53,3c-10.6-0.7-16-1.9-40-4c-16.6-1.4-24.9-2.1-31-2
		c-12.1,0.3-28.7,0.7-47,9c-13.3,6-21.5,13.5-32,23c-14.4,13.1-21.6,19.6-25,29c-7.4,20.6,1,49.7,21,61c13.3,7.5,28.6,5.5,32,5
		c13.2-2,14.9-7.7,26-8c17.5-0.4,30.4,13.3,32,15c2.3,2.5,5.7,6.8,14,32c9.3,28.4,7.7,31.1,13,37c10.4,11.4,29.8,15.3,45,11
		c12.2-3.4,12.1-9.5,40-32c23.1-18.7,31.4-21.2,39-20c6.9,1.1,14.2,5.4,18,12c3.4,6,2.9,12.1-2,34c-5.9,26.2-6.9,25-8,34
		c-2,16-4,31.9,6,43c8.4,9.4,24.5,14.5,35,9c10-5.3,6.3-15.9,20-38c4.7-7.5,10.8-17.2,22-25c12.1-8.4,20.1-7.6,30-12
		c11.2-5,25-16.8,35-47c4.4,0.7,11,1.7,19,3c11.4,1.9,18.9,3.3,23,4c33.7,6,50.6,9,58,2c7.3-6.9,6.2-18.4,6-20
		c-1.5-13-13.1-20.7-21-26c-8.6-5.7-12.8-6.2-35-14c-34.6-12.1-38.5-15.9-41-19c-8.6-11-2.7-18.5-9-35
		C680.4,343.2,663.7,332.8,648,323z"/>
	<path fill="none" stroke="#000000" stroke-width="18" stroke-linecap="round" stroke-linejoin="round" stroke-miterlimit="10" d="
		M215,520c38.3-31,76.7-62,115-93"/>
	<path fill="none" stroke="#000000" stroke-width="18" stroke-linecap="round" stroke-linejoin="round" stroke-miterlimit="10" d="
		M274,557c39.5-34.3,78.9-68.5,118.4-102.8"/>
	<path fill="none" stroke="#000000" stroke-width="18" stroke-linecap="round" stroke-linejoin="round" stroke-miterlimit="10" d="
		M340.7,597.1c27.1-26.7,54.2-53.4,81.3-80.1"/>
	<path fill="none" stroke="#000000" stroke-width="18" stroke-linecap="round" stroke-linejoin="round" stroke-miterlimit="10" d="
		M253,453c31.5,12.2,56.2,24.2,73,33c12,6.3,20.2,11,53,30c2.9,1.7,33.7,19.5,64,37"/>
	<path fill="none" stroke="#000000" stroke-width="18" stroke-linecap="round" stroke-linejoin="round" stroke-miterlimit="10" d="
		M484,495c6.3,3,12.7,6,19,9"/>
	<path fill="none" stroke="#000000" stroke-width="18" stroke-linecap="round" stroke-linejoin="round" stroke-miterlimit="10" d="
		M762.3,480.2c13.1,5.7,23.5,11,30.7,14.8c16.7,8.9,18.9,11.5,34,19c20.2,10.1,21.6,8.1,26,13c2.8,3.1,6.5,8.6,8,48
		c1,26.3-0.3,30-2,33c-6.2,11.2-17.5,13.6-37,21c-26.1,9.9-14.5,8.8-59,28c-18.4,8-39.2,16.9-67,26c-34.7,11.3-32.3,7.2-62,17
		c-48.2,16-60.4,29-80,22c-9.3-3.3-16.2-10.5-30-25c-9.2-9.6-13.1-16-31-39c-7.5-9.7-13.7-17.4-17.6-22.3"/>
	<path fill="none" stroke="#000000" stroke-width="18" stroke-linecap="round" stroke-linejoin="round" stroke-miterlimit="10" d="
		M540,585c10.3,16,20.7,32,31,48c6.9-0.1,17.1-0.8,29-4c11.2-3,18.4-6.8,27-11c0,0,22-10.8,49-22c28.2-11.7,28.6-8.2,51-18
		c21.9-9.6,26.8-15.2,47-26c15.1-8,37.3-18.2,67-26"/>
	<path fill="none" stroke="#000000" stroke-width="18" stroke-linecap="round" stroke-linejoin="round" stroke-miterlimit="10" d="
		M598.3,556.6c3.6,6.7,7.5,13.5,11.7,20.4c8.1,13.5,16.4,25.9,24.6,37.4"/>
	<path fill="none" stroke="#000000" stroke-width="18" stroke-linecap="round" stroke-linejoin="round" stroke-miterlimit="10" d="
		M653,515c5.1,7.9,10.4,15.9,16,24c10.3,14.9,20.7,28.9,31,42"/>
	<path fill="none" stroke="#000000" stroke-width="18" stroke-linecap="round" stroke-linejoin="round" stroke-miterlimit="10" d="
		M709,476c9.2,8.3,18.5,17.3,28,27c13.7,14,26,27.8,37,41"/>
	<path fill="none" stroke="#000000" stroke-width="18" stroke-linecap="round" stroke-linejoin="round" stroke-miterlimit="10" d="
		M595.4,562.2c11-3.8,27.5-9.5,47.6-16.2c34.2-11.5,42.4-13.8,54-18c18.8-6.9,45.2-18.3,76-38"/>
	<path fill="none" stroke="#000000" stroke-width="18" stroke-linecap="round" stroke-linejoin="round" stroke-miterlimit="10" d="
		M486,221c-3,2-14.6,9.6-18,24c-4.2,17.5,5.8,35.8,20,45c20.1,13,42.4,3.7,48,1c5.1-2.4,18.5-8.8,24-24c4.9-13.6,1.3-28.3-6-38
		C538.8,208.8,505.7,208,486,221z"/>
	<path fill="none" stroke="#000000" stroke-width="13" stroke-linecap="round" stroke-linejoin="round" stroke-miterlimit="10" d="
		M575,360c-9.3,5.2-15.3,8.8-18,16c-4.7,12.6,4.2,27.4,13,35c14.8,12.9,33.4,9.3,35,9c15.8-3.3,31.3-16.6,33-35
		c1.2-13.3-4.8-28.7-17-35C606.3,342.3,589.8,351.6,575,360z"/>
	<path fill="none" stroke="#000000" stroke-width="13" stroke-linecap="round" stroke-linejoin="round" stroke-miterlimit="10" d="
		M363,338L363,338L363,338c-2.3,2.9-8.6,11.2-7,21c2.5,15.4,23,25.8,40,22c10.5-2.4,22.5-10.9,25-25c2.2-12-3-24.8-13-31
		C394.6,316.6,373.9,321.3,363,338"/>
	<path fill="none" stroke="#000000" stroke-width="18" stroke-linecap="round" stroke-linejoin="round" stroke-miterlimit="10" d="
		M110,543c-10.5,5.2-18.9,10.6-25,15c-14,10-22.4,19.2-25,22c-7.7,8.6-11.6,12.9-14,20c-4,12.1-1,22.9,0,26c1.8,5.5,7,17.7,26,29
		c124.5,74,280,90,280,90c81,8.3,140.4,6.4,215,4c43.8-1.4,75.7-3.9,112-10c20.9-3.5,50.3-11,109-26c27.2-7,60.2-15.6,101-32
		c29.7-11.9,49.4-22.2,62-43c3.7-6.1,13.9-22.8,9-41c-1.5-5.6-5.2-14.5-21-27c-11.3-9-34.4-24.3-72-30"/>
</g>
<g id="vs-reveal">
	
		<path opacity="0" fill="none" stroke="#000000" stroke-width="66" stroke-linecap="round" stroke-linejoin="round" stroke-miterlimit="10" d="
		M518.3,224.8c9.1-3.6,20.3-1.2,27.1,5.9c-23.2-1.8-46.7-0.1-69.4,5c17,22,63.5-5.7,76.3,19c-25.6-1.9-51.5-0.2-76.7,5.1
		c8.3,8.7,22.1,7.5,34.2,7.3c12-0.2,26.9,3.5,29.5,15.3c-17.2-4.1-35.6-3.2-52.3,2.7c32.1,3.6,64.2,7.2,96.4,10.8
		c5.1,0.6,11.6,2.4,12.2,7.5c0.7,6.3-7.9,8.8-14.2,8.9c-90.7,2-181.4,2.4-272.1,1.4c-5.5,7.5,7.7,14.5,17,14.7
		c103.1,1.6,206.3,0.8,309.3-2.4c8.7-0.3,21.3,4.9,17.3,12.7c-124.6,0.3-249.1,0.3-373.7,0c-4.2,7.6,8.1,13.1,16.8,13.1
		c121.9,0,243.8,0.1,365.7,0.1c14,0,31.5,2.4,35.8,15.7c-132.2,10.4-265.1,0.3-396.9-13.9c-15.8-1.7-37.9,1.5-38.5,17.4
		c25.7,7,52.7,7,79.3,7c98.9-0.1,197.7-0.3,296.6-0.4c24.4,0,50.9,0.6,70,15.9c-38.7,9.4-78.9,9.5-118.7,9.5c-119.5,0-239,0-358.4,0
		c-1.5,16.1,20.4,22.3,36.6,22.5c152.9,2,305.8,2.2,458.7,0.7c13.1-0.1,29.5,2,33.4,14.5c-21.2,6.1-43.6,6.2-65.7,6.2
		c-101.7,0.1-203.4,0.1-305,0.2c-23.5,0-47.1,0-70.2-3.8c-30.3-5-59.7-16.6-90.5-16.6c-13.5,0-31.3,8.6-26.9,21.4
		c46.6,17,97.7,12.3,147.3,12.6c111.3,0.7,221.7,28,332.9,23.2c36.4-1.6,74.5-6.3,107.7,8.6c-1.3,8-11.8,9.9-19.9,10
		c-107.4,0.4-214.8,0.8-322.2,1.2c-44,0.2-88.2,0.3-131.5-7.4c-49.9-8.9-99.4-28.1-149.7-21.8c-9.5,1.2-21,5.8-21.1,15.4
		c-0.1,9.7,11.5,14.4,21,16.4c181.4,39.2,368.5,42.4,554.1,41c26.2-0.2,52.7-0.5,78-7.2c13.2-3.5,26-8.7,39.6-9.9
		c13.6-1.2,28.6,2.3,36.8,13.2c-3.1,12.6-19.5,15.4-32.5,15.6c-126.8,2-253.6,2.1-380.4,0.5c-52.8-0.7-105.8-1.7-158.1-9.3
		c-57.5-8.4-114.3-24.7-172.3-23.2c-8.7,0.2-18.9,1.8-22.8,9.5c-3.7,7.2,0.4,16.3,7,21s14.9,5.9,22.8,7
		c151.1,20,304.1,18.8,456.5,17.5c63.5-0.5,127.2-1.1,190.4-7c43.6-4.1,87-10.7,130.8-11.2c4.7-0.1,10,0.2,13.4,3.4
		c4.9,4.7,3,13.4-2.1,17.9c-5,4.5-12.1,5.8-18.7,6.8c-37.8,5.7-76.1,6.8-114.3,7.9c-122,3.3-244,5.7-366,7.3
		c-36.2,0.5-72.5,0.8-108.4-3.7c-27.5-3.5-54.6-9.9-82-14c-58.5-8.9-118.1-7.8-177.3-6.6c-4.5,4.1-2.6,12.2,2.3,15.9
		c4.8,3.7,11.3,4.3,17.4,4.8c57.2,4.1,114.6,6.6,171.9,9c177.4,7.6,354.9,15.3,532.5,17.6c49.8,0.7,100.6,0.7,147.8-14.8
		c7.7-2.5,19.7-3,20.4,5.1c0.5,4.8-4.2,8.4-8.4,10.8c-37.2,20.9-81.9,21.9-124.6,22.5c-88.9,1.1-177.7,2.3-266.6,3.4
		c-66.4,0.9-133,1.7-199-5.5c-90.4-9.8-180.1-34.7-270.7-27.1c-7.6,0.6-17.2,3.4-17.8,11c-0.7,8.5,10.4,12.3,18.9,13.2
		c225.2,23.6,451.8,34.6,678.3,32.9c36.7-0.3,73.5-0.9,109.6-7.7c-8.4,13.6-26.7,16.1-42.6,17C604.6,705,379,701.3,153.7,696.6
		c169.8,46.2,350.5,17.7,525.2,38.7c-102.1,7.1-204.6,9.6-306.9,7.6"/>
</g>
</svg>
