<?xml version="1.0" encoding="utf-8"?>
<!-- Generator: Adobe Illustrator 16.0.0, SVG Export Plug-In . SVG Version: 6.00 Build 0)  -->
<!DOCTYPE svg PUBLIC "-//W3C//DTD SVG 1.1//EN" "http://www.w3.org/Graphics/SVG/1.1/DTD/svg11.dtd">
<svg version="1.1" id="Layer_1" xmlns="http://www.w3.org/2000/svg" xmlns:xlink="http://www.w3.org/1999/xlink" x="0px" y="0px"
	 width="400px" height="400px" viewBox="0 0 400 400" enable-background="new 0 0 400 400" xml:space="preserve">
<path fill="none" stroke="#000000" stroke-width="4" stroke-linecap="round" stroke-linejoin="round" stroke-miterlimit="10" d="
	M162.883,84.448c0,22.961-0.841,109.965-0.841,109.965s-63.038,90.464-68.904,98.414c-4.897-3.444-22.797-20.867-32.313-42.257
	c-10.048-22.586-11.963-51.887-8.588-75.987c3.633-25.943,16.768-50.241,40.098-70.29C110.251,88.897,140.848,81.722,162.883,84.448
	"/>
<path fill="none" stroke="#000000" stroke-width="4" stroke-linecap="round" stroke-linejoin="round" stroke-miterlimit="10" d="
	M179.971,195.899c30.312,8.728,92.598,27.061,92.598,27.061s5.844-22.96-0.916-52.66C264.627,139.436,252,131.281,252,131.281
	C241.73,139.24,179.971,195.899,179.971,195.899"/>
<path fill="none" stroke="#000000" stroke-width="4" stroke-linecap="round" stroke-linejoin="round" stroke-miterlimit="10" d="
	M170.818,206.346c-6.776,9.528-65.091,91.552-65.091,91.552s58.679,22.123,103.405,4.241c52.792-21.107,60.494-67.021,60.494-67.021
	S193.249,213.559,170.818,206.346"/>
<path fill="none" stroke="#000000" stroke-width="4" stroke-linecap="round" stroke-linejoin="round" stroke-miterlimit="10" d="
	M174.599,185.182c8.245-6.788,52.857-47.285,70.179-63.922c0,0-6.939-11.947-30.218-24.15
	c-19.556-10.252-39.539-12.252-39.539-12.252C174.912,100.102,174.293,166.927,174.599,185.182"/>
</svg>
