<?xml version="1.0" encoding="utf-8"?>
<!-- Generator: Adobe Illustrator 26.3.1, SVG Export Plug-In . SVG Version: 6.00 Build 0)  -->
<svg isCommex="true" version="1.1" id="Layer_1" xmlns="http://www.w3.org/2000/svg" xmlns:xlink="http://www.w3.org/1999/xlink" x="0px" y="0px"
	 width="745.7px" height="914.5px" viewBox="0 0 745.7 914.5" enable-background="new 0 0 745.7 914.5" xml:space="preserve">
<g id="vs-primary">
	<path fill="#FFF996" d="M381.1,404.5L381.1,404.5c-0.3-2.7-1-5.1-1.9-6.8l-0.2-0.4l-0.5-0.1c-4.4-0.7-10.9-2.8-19.6-6.3
		c-9.4-3.8-20.8-9.1-32.3-14.9c-18.1-9.2-41.5-22.5-48-29.7c-7.3-8.1-14-12.5-19.5-12.6c-1.7,0-3.3,0.4-4.7,1.1
		c-0.3,0.2-28.3,15.6-36,5c-2.1-2.9-2.8-6.8-2-11.2c1.1-6.7,5.3-13.3,8.7-16.4l4.8-4.3l-5.9,2.6c-3.9,1.7-11.7,6.4-19.7,17.9
		c-9.3,13.4-10.1,27.4-10.7,38.7c-0.2,3.7-0.4,7.1-0.9,10.1c-2.1,13-12.7,41.9-32.1,64.2c-17.3,19.9-22.2,40.9-23,45l-0.1,0.4
		l0.2,0.3c0.4,0.8,0.9,1.5,1.5,2.3c3.7,5.2,15.2,18,42.7,22.6c8.9,1.5,17.2,2.1,24.6,2.1c18.3,0,31.5-3.4,36.2-4.8l1.1-0.3v-0.7
		c0-4.4,0.5-16.4,4.1-31.4c1.2-4.8,2.7-9.5,4.4-13.9c3.9-9.6,8-15.1,8.8-16.1c0.7-0.9,2-1,2.8-0.3c0.9,0.7,1,2,0.3,2.8
		c-0.2,0.2-1.3,1.6-2.9,4.2l-3.1,5.2l4.6-3.9c2.9-2.5,5.7-4.8,8.3-6.9c8-6.7,8.2-11,8-18.7c-0.2-6.7-0.5-17.2-0.6-21v-0.6l-0.6-0.2
		c-8.1-3.3-14.4-5.3-18.8-5.8c-0.5-0.1-1-0.3-1.3-0.8c-0.3-0.4-0.5-0.9-0.4-1.5c0.1-0.5,0.3-1,0.8-1.3c0.4-0.3,0.9-0.5,1.5-0.4
		c4.9,0.7,12.1,2.9,21.3,6.7l0.2,0.1l0,0c0.1,0,0.1,0,0.1,0.1l0,0l0.2,0.1c22.6,9.4,52.7,26.2,68.9,35.2l0.1,0.1
		c3.4,1.9,6.3,3.5,8.3,4.6l0.4,0.2l0.4-0.1c3.4-1.2,6.4-3,9.1-5.5c5.3-4.9,8.2-11.2,9.7-15.7C380.9,416.9,381.7,410.2,381.1,404.5z
		 M205.6,366.8L205.6,366.8c0,0.3-1.3,28.4-11.1,48.3c-9.4,19.3-20.3,37.1-20.7,37.9c-0.3,0.5-0.9,0.6-1.4,0.3s-0.6-0.9-0.3-1.4
		c0.1-0.1,11.2-18.3,20.7-37.7c9.5-19.3,10.9-47.2,10.9-47.5c0-0.5,0.5-1,1-1l0,0c0.3,0,0.5,0.1,0.7,0.3
		C205.5,366.2,205.6,366.5,205.6,366.8z"/>
	<path fill="#FFF996" d="M281.6,343.6c8,8.9,49.8,31.6,76.4,42.7l0.8,0.3l0.4-0.8c2.8-4.8,3.3-14.8,1.1-22.8
		c-0.7-2.6-1.6-4.8-2.7-6.5c-0.9-1.5-2-2.6-3.1-3.2l-0.3-0.2h-0.3c-11.7,0.8-31.7-2.1-52.8-12.7c-18.6-9.4-32.3-11.7-34.9-12
		l-0.7-0.1l-1,2.3l1,0.4C270.5,333,275.9,337.3,281.6,343.6z"/>
	<path fill="#FFF996" d="M327.5,93.1L327.5,93.1c-0.2-2.6-0.6-4.7-0.9-5.9l-0.1-0.2l-0.2-0.2c-2.3-2.4-16.9-11.8-29.5-12.6l-2.5-0.2
		l1.7,1.8c0.1,0.1,0.1,0.2,0.2,0.2l0.1,0.2c4.8,5.7,7.7,14.1,7,20.3c-0.5,5-0.3,5.7,0.4,7.5c0.4,1.1,1.1,2.6,1.7,5.3
		c1.9,8.2,0.2,22.2-2.5,28.8c-1.4,3.3-0.6,7.1,0.4,11.5c0.6,2.9,1.3,6,1.3,9.1c0.1,7.3-4.5,13.2-5.9,14.8l-0.1,0.2l-0.1,0.2
		c-0.4,1.4-0.1,5,0.4,7.5c0,0.1,0,0.3,0,0.4c0,1.4-0.5,2.6-1.1,4.1c-0.8,1.8-1.7,4-1.9,7.7v0.8l0.7,0.2c1.5,0.5,2.9,1.1,4.3,1.9
		l0.4,0.2l0.4-0.2c0.1,0,0.2-0.1,0.3-0.1c0.6-0.1,5.6-1.7,10-10.5v-0.1c1.3-3.6,13.1-35.7,14.8-58.7
		C328.4,108.4,327.9,97.8,327.5,93.1z"/>
</g>
<g id="vs-hair">
	<path fill="#808080" d="M158.7,172.6c0.7,0.8,1.5,1.7,2.3,2.8c4.4,5.6,3.3,10.4,1.9,16.5v0.2c-0.4,1.9-0.9,3.8-1.2,6.1
		c-2.2,13.7,0.8,22.5,9,27c2.8,1.5,5.2,2.7,7.4,3.7l0.2,0.1c6.7,3,11.5,5.2,12.9,14.4c1.7,10.9,3,17.2,11.8,21.1
		c4.6,2,8,1.8,11.6,1.6c3.6-0.2,7-0.4,11.1,1.8c1.5,0.8,2.8,1.7,4,2.5l0.1,0.1c3.4,2.2,5.8,3.8,9.5,3.8c1.3,0,2.7-0.2,4.3-0.6
		c2.8-0.7,4.8-1.4,6.5-2l4-1.7c0.6-0.3,1.3-0.3,2,0l0.2,0.1h0.2c1.8-0.1,3.7,0.1,6,0.8c3.2,0.9,8.8,0.6,13.5-2.4
		c2.6-1.6,5.9-4.7,6.9-10.1c0-0.1,0-0.1,0-0.2l0.2-0.8l-0.7-0.4c-7.3-4.3-11.9-11.4-13.4-20.6c-2.3-14.9,4.2-31.5,9.8-37.7
		c3.1-3.5,7.2-5.2,12-4.9h1l0.1-1c0.3-3.9,1.4-6.4,2.2-8.2l0.1-0.3c0.3-0.7,0.6-1.3,0.6-1.8v-0.2v-0.2c-0.9-5-0.8-8.8,0.4-10.5
		c0.1-0.1,0.1-0.2,0.2-0.2c0.1-0.1,5.2-5.6,5.1-12.4c0-2.7-0.7-5.6-1.3-8.3c-1-4.6-2.1-9.4-0.2-13.9c2.5-5.9,4-19.2,2.3-26.3l0,0
		c-0.6-2.5-1.1-3.8-1.5-4.7c-1-2.4-1.3-3.5-0.7-9.4c0.5-5.1-2.1-12.5-6.1-17.3c-1-1.3-2.7-3-4.8-4l-0.4-0.2c-1-0.5-2-0.7-3-0.8
		c-5.3-0.4-9.7-3.4-13.7-6L271,68c-3.7-2.5-7.2-4.8-10.8-4.7c-4,0.1-5.6,1.3-7.7,3c-1.8,1.4-4,3.1-7.7,3.7c-3,0.5-5.5-0.7-8.1-2
		c-4.9-2.4-10.5-5.1-23.1,0.3c-9.6,4.2-10.9,8.9-12.1,13.6c-1.2,4.7-2.5,9.6-11.3,12.6c-15.3,5.3-17.8,13.9-19.1,23
		c-0.5,3.6-0.4,6.3-0.4,8.5c0.1,3.6,0.2,6.5-2.9,9.4c-4.3,4-14.3,14.4-14.6,23.6c-0.2,7.7,1.4,9.6,5,13.7L158.7,172.6z"/>
</g>
<g id="vs-secondary">
	<path fill="#8CD96F" d="M340.8,794.5l-0.3-0.3h-0.4c-2.9-0.2-6-0.3-9.5-0.3h-1.9l1,1.6c1.4,2.3,3.9,5,5,6.1
		c0.6,0.4,0.8,1.2,0.6,2.1c-0.8,3.4-6.6,4.2-11.4,4.3h-0.8c-5.7,0-10.1-1.1-12.7-2.1l-1.6-0.6l0.3,1.7c0.2,1-0.5,2-1.5,2.3
		c-1.1,0.3-2.2-0.4-2.4-1.5c-2-8-4.6-14.3-7.8-18.8l0,0l-0.2-0.3l0,0l-0.3-0.4c-1.5-2-3.1-3.6-4.8-4.6l-1.3-0.8l-0.2,1.5
		c-0.2,1.4-0.3,2.6-0.4,3.8v0.5l0.4,0.3c0.6,0.4,0.9,1.1,1,1.8c0.3,5.2-3,11.1-8.2,14.3c-3.8,2.3-7.9,2.8-11.2,1.1l-1.1-0.5
		l-0.3,1.2c-0.8,3.3-1.8,9.4,0.9,13c1.4,2,3.8,2.8,6.4,3.6c4,1.3,9,3,10,10.4l0.1,1l1-0.1c6.3-0.8,11.8-1.1,16.7-1.4
		c7.8-0.5,15.8-1,26.3-2.9l1.2-0.2l-0.5-1.2c-1-2.3-2-6.8,2.9-11.2c2.1-1.9,4-3.2,5.7-4.4c3.8-2.6,5.4-3.9,5.4-7
		C346.7,801.8,341.8,795.7,340.8,794.5z"/>
	<path fill="#8CD96F" d="M276.8,826.3c-2.8-0.9-5.8-1.9-7.7-4.6c-4-5.3-2-13.9-0.9-17.3l0.2-0.6l-0.4-0.4c-1.8-1.7-2.6-3.5-3.4-5
		c-1-1.9-1.6-3.3-3.9-4.5c-4.6-2.4-8.6-0.1-9.1,0.2c-1.2,0.7-2.7,0.4-3.5-0.7c-0.7-1.1-0.4-2.7,0.7-3.4c0,0,2.9-2,7.2-2.1h0.9l0.3-2
		c0.1-1.1,0.3-2.4,0.5-3.9l0.1-1l-1-0.1c-5.6-0.4-9.1,1.8-11.2,3.8c-3.7,3.5-5,8.5-4.6,11.8c0.2,2.1,0.6,3.7,1,5.3
		c1.1,4.6,1.9,8.2-1.8,15.6c-1.3,2.6-2.4,5.9-3.4,9.9l-0.1,0.5l0.3,0.4c5.1,6,15.6,9.2,28.9,9.2c5.2,0,10.7-0.5,16.6-1.5l2.6-0.4
		l-0.1-1C284.2,828.8,281,827.7,276.8,826.3z"/>
	<path fill="#8CD96F" d="M167,781.8l-0.2-0.2l-1.5-0.1c-1.7-0.1-3.4-0.2-5-0.4l-2.5-0.2l9.1,10.2c0.4,0.4,0.5,1,0.3,1.6
		c-0.2,0.5-0.7,0.9-1.3,0.9c-0.2,0-1.6,0.1-3.8,0.1c-4.8,0-14.2-0.4-23.4-2.8c-0.1,0-0.2-0.1-0.3-0.1l-0.3-0.1
		c-0.9-0.1-1.6-0.9-1.7-1.8c0,0-0.2-4-2.2-13.6c-0.1-0.3-0.1-0.5-0.2-0.8c-1.1-4.4-3.2-7.3-4.8-8.9l-1.4-1.4l-0.3,1.9
		c-0.1,0.6-0.1,1-0.1,1.3c0,0.1,0,0.2,0,0.3c-1.9,11.1-8.8,18.5-18.4,20c-0.7,0.1-1.4,0.2-2.1,0.2c-2.3,0-4.1-0.6-5.5-2l-1.1-1
		l-0.5,1.4c-0.9,2.5-2.3,5-4.1,7.6c-2.6,3.7-2.7,5-2.6,5.6c0.2,1.1,1.5,2,3.9,3.7c1,0.7,2.2,1.5,3.5,2.5c5.1,3.9,6.5,8,6.8,10.8
		l0.1,1l1-0.1c5-0.7,10.8-1.5,16.8-1.9c4.1-0.2,9.1-0.1,14.4-0.1h0.6c5.9,0.1,12.7,0.2,19.5-0.1h0.9l0.1-0.9
		c0.1-1.1,0.5-2.5,1.1-4.2c0.9-2.3,3.4-4.2,6.3-6.3c3.3-2.4,6.9-5,7.9-8.3C177.4,790.5,167.5,782.2,167,781.8z"/>
	<path fill="#8CD96F" d="M98.7,808.2L98.7,808.2c-1.1-0.8-2.1-1.6-3-2.2l-0.3-0.2c-2.8-1.9-4.8-3.3-5.2-5.6s1-4.8,3.1-7.9
		c5.5-7.7,4.8-12.6,4.8-12.6c0-0.2,0-0.3,0-0.5V779l-0.1-0.2c-0.3-1-0.7-2.1-1.3-3.1c-2.5-3.7-5.4-5.6-7.6-5
		c-1.1,0.3-2.2-0.4-2.4-1.4c-0.3-1.1,0.4-2.2,1.4-2.4c1.3-0.3,2.7-0.3,4.1,0.1l0.8,0.2l0.4-0.8c0.4-0.9,1-2.1,1.6-3.6l1-2.2
		l-0.8-0.4c-1.7-0.9-4.8-1.3-10.3,1.6c-6.7,3.5-7.6,10.2-8.3,15.1c-0.3,2-0.5,3.8-1.1,5.1c-0.7,1.5-2.2,3.4-4.2,5.8
		c-3.6,4.4-8.4,10.5-10.5,16.9l-0.1,0.4l0.2,0.4c1.6,3.3,6.5,11.2,16.7,13.5c3,0.7,6.2,0.9,9.4,0.9c5.3,0,10.8-0.7,16.4-1.5l0.9-0.1
		l-0.1-1C104.2,815.3,103.2,811.7,98.7,808.2z"/>
</g>
<g id="vs-skin">
	<path fill="#D3A17F" d="M531.8,364.7c3.1-4.6,5.9-9.1,8.2-13.4c4.5-8.4,4.3-16.2,1.8-19.3c-1.4-1.7-3.6-2.1-6.5-1.3
		c-8.8,2.5-19,28.6-22.3,38.4c-0.2,0.5-0.5,0.9-1,1.2c-0.5,0.2-1,0.3-1.5,0.1c-0.5-0.2-0.9-0.5-1.2-1s-0.3-1-0.1-1.5
		c0.1-0.5,0.5-1.4,0.9-2.6l0.5-1.5l-1.5,0.1c-8.8,0.7-15.4,6.9-16.1,7.6l-0.1,0.1c-0.5,0.7-1.3,1-2.1,0.8c-1.1-0.3-1.7-1.4-1.5-2.4
		c0.3-1.2,3.2-3.6,7.2-6.1c3.4-2,8.8-4.3,14.9-4.1h0.7l0.5-1.2c0.3-0.7,0.5-1.3,0.8-2l0.3-0.7l-0.6-0.5c-3.6-2.7-7.1-5.2-10.2-7.5
		l-0.6-0.4l-0.6,0.4c-2.8,1.3-6.9,4.5-12,8.7l-0.2,0.1c-4.2,3.4-9.5,7.7-15.6,12l-1,0.7l0.9,0.8c2.9,2.6,7.8,8.6,8.4,19.2l0.1,1.2
		l1.2-0.3c5.4-1.4,15.3-2.4,33-3.3c8.5-0.4,15.7-2.1,21.3-5l0.6-0.3V381c0-0.2,0-0.4,0.1-0.6c0.5-2.1-1.8-7.4-3.6-10.6l-0.8-1.4
		l-0.9,1.3c-2.6,3.6-4.5,6-5,6.7c-0.7,0.8-2,1-2.8,0.3c-0.9-0.7-1-2-0.3-2.8C525.1,373.8,528,370.2,531.8,364.7z"/>
	<path fill="#D3A17F" d="M460.3,339.4c-0.2,0.4-0.6,0.7-1,0.8l-0.8,0.3l0.1,0.8c0.2,1.5,0.3,3.1,0.2,4.8v1.1
		c-0.1,2.6-0.2,5.4-0.4,8.1l-0.1,1.3l5-0.8c8.7-1.4,17.7-2.8,25-5.7l0.8-0.3l-0.2-0.8c-0.1-0.3-0.1-0.6,0-0.8
		c0.3-2.5-2.6-9.1-4.8-13l0,0c-0.2-0.3-0.3-0.7-0.3-1.1v-0.5l-1-0.8c-2.3-1.7-4.4-3.3-6.4-4.8l-0.4-0.3l-0.5,0.1
		C471.6,328.8,463.1,334.9,460.3,339.4z"/>
	<path fill="#D3A17F" d="M470,372.1l-0.6-0.4l-0.6,0.4c-7.7,5-15.1,9-22.7,12.1c-26,10.6-56.8,20.3-60.2,21.4l-0.7,0.2v0.8
		c0.3,5.7-0.6,12-2.6,17.9c-1.9,5.7-4.6,10.6-8.1,14.6l-0.9,1l1.2,0.6c2.4,1.2,6.5,2.8,11.2,2.8c1.8,0,3.6-0.2,5.5-0.8
		c6.6-2,37.6-20.5,67-38.3c1-0.6,2-1.2,2.9-1.8l1.2-0.7c8.3-5,12.9-7.8,15.2-9.2l0.5-0.3v-1.2C478.3,379.5,472.5,373.9,470,372.1z"
		/>
	<path fill="#D3A17F" d="M447.4,323.1v0.6l0.5,0.3c4,2.5,7.1,6.2,9,10.8l0.6,1.5l1.1-1.2c2.9-3.4,7.8-7.2,12.1-9.5l1.4-0.7l-1.2-0.9
		c-9.6-7.3-14.7-11.4-15.1-12.1c-1.4-3-3.6-10.2-1.1-11.9c0.2-0.1,3.9-2.4,10.6-6.6l0.4-0.3l0.1-0.5c0-0.2,0.1-0.3,0.2-0.5
		c3.3-6.9,4.6-17.3,1.2-20.8l0,0c-1.5-1.6-4.1-1.6-7.6,0c-14.3,6.2-12.3,46.8-12,51.5C447.4,322.8,447.4,323,447.4,323.1z"/>
	<path fill="#D3A17F" d="M429.4,365l2.3-0.9c0.4-0.2,0.8-0.3,1.2-0.5l2.4-0.9l0.2-0.4c0.8-1.8,2.5-6.8,1-13.2
		c-1.3-5.6-4.8-6.7-6.4-6.8l-0.2-0.2l-0.7,0.3c-2.6,1-5.6,2.1-8.8,3.2c-1,0.3-2,0.7-3,1h-0.2c-18.9,5.8-43.6,9.1-53.3,10.3l-1.3,0.2
		l0.5,1.2c0.5,1.2,0.9,2.4,1.2,3.7c2,7.5,2.3,18.5-1.1,25.1l-0.5,1l1,0.4c2.7,1,5.2,1.9,7.4,2.7l0.6,0.2l0.4-0.5
		c0.2-0.2,0.4-0.4,0.6-0.5c0.3-0.2,33-15.6,55.4-24.9C428.6,365.4,429,365.2,429.4,365z"/>
	<path fill="#D3A17F" d="M373.8,221.1c0.1-9.9-3.4-12.7-9.8-17.8l-0.5-0.4c-1-0.8-2-1.6-3-2.5c-2.1-1.8-3.9-3.7-5.2-5.8l-1.3-2
		l-0.5,2.3c-1.8,7.8-3.6,11.1-3.6,11.1c-0.5,1-1.8,1.3-2.7,0.8c-0.5-0.3-0.8-0.7-1-1.2s-0.1-1.1,0.2-1.5c0.1-0.3,3.1-6.3,5.2-20.9
		c1-6.6,1.6-14,1.9-21.9c0-1.1,0.1-2.2,0.1-3.4c0.7-25.5-12.1-47.6-19.8-58.5l-1.9-2.7l0.1,3.3c0.2,7.6-0.1,16.8-0.8,27.4
		c-1.7,24-13.6,56.1-15,59.9v0.1v0.1c-4.4,8.8-9.6,11.6-11.7,12.4l-0.4,0.2l-0.2,0.4c-0.6,0.9-1.9,1.1-2.8,0.5
		c-0.5-0.3-11.6-7.9-18.7,0.1c-5,5.5-11,21-8.9,34.5c1.2,7.4,4.5,13,10,16.8l1.5,1l0.1-1.8c0.6-9.4,1.4-10.7,1.8-11.3
		c1.6-2.4,5.2-2.7,8-2.2c1.5,0.3,5.1,1.2,5.7,4c0.5,2.6,1.2,24.4-0.1,28.4c-0.9,2.9-4.4,5.1-8,5.2h-0.3c-3.3,0-5.9-1.7-7.2-4.8v-0.1
		c-0.1-0.4-0.2-1.1-0.3-2.2l-0.1-2.5L283,268c-1.2,1.3-2.6,2.6-4.3,3.6c-5,3.1-11.7,4.2-16.7,2.8c-1.6-0.5-2.9-0.7-4.1-0.6h-0.4
		l-8.1,9.4v0.3c-0.5,3.2-1.4,6.4-2.5,9.7c-1.3,3.6-3.4,7.3-6.5,10.9l-0.7,0.9l1,0.6c3.5,2.2,15.2,10.1,21.3,18.4l1,1.3l0.7-1.5
		c0.1-0.1,0.1-0.2,0.3-0.4c9.3-10.1,18-9.8,26.5-9.6c6.2,0.2,12.5,0.4,19.8-3.2c13.2-6.5,18.9-17.2,20.8-21.5l0.3-0.7l-0.7-0.5
		c-1.6-1.1-3.5-2.8-5.8-5c-5.9-5.8-4.7-14.4-4.6-15.4c0.1-0.8,0.7-1.4,1.4-1.6c0.7-0.2,1.5,0,2.1,0.6c0.2,0.2,4.2,4.2,14.8,4.2h0.3
		c11.8-0.1,14.2-21.6,14.6-28.2c0.1-1,0.9-1.8,2-1.9C366,240.7,373.7,232.6,373.8,221.1z M293.1,214c0.4-0.6,1-1,1.7-1
		c0.3,0,0.7,0.1,1,0.3c1,0.5,1.3,1.8,0.8,2.7c-0.2,0.3-3.8,7.1-2,15.6c0.1,0.5,0,1.1-0.3,1.5s-0.7,0.7-1.3,0.9c-0.1,0-0.2,0-0.4,0
		c-0.9,0-1.8-0.7-2-1.6C288.5,222.3,292.9,214.4,293.1,214z"/>
	<path fill="#D3A17F" d="M281.7,746.3c-1,0-2-0.1-3-0.2c-5.2-0.5-9.5-1.7-13-3.5l-1.4-0.7v1.6c-0.2,20.7-2.6,38.2-3.3,43.9l1,0.1
		l0,0h-1l-0.2,0.9l0.8,0.3c0.5,0.2,1,0.4,1.4,0.7c3.7,2,5,4.5,6.1,6.7c1,2.1,1.9,3.8,4.8,5.4c0.8,0.4,1.7,0.7,2.6,0.7
		c1.3,0,2.8-0.5,4.2-1.4c3.6-2.2,6-6.3,5.8-9.8c0-0.1,0-0.2,0-0.3v-0.3l-0.2-0.3c-0.2-0.3-0.3-0.7-0.3-1c0.1-5.7,3.2-21.8,7.8-44.2
		l0.4-2l-1.9,0.9C289.2,745.4,285.6,746.3,281.7,746.3z"/>
	<path fill="#D3A17F" d="M261.1,328.4l0.4-0.7l-0.3-0.5c-5.4-8.8-18.7-17.7-22.7-20.2l-0.7-0.4l-0.6,0.6c-0.5,0.5-1.1,1.1-1.6,1.6
		l-0.1,0.1c-0.1,0.1-0.2,0.2-0.3,0.3l-0.2,0.1c-0.6,0.6-1.3,1.2-2.1,1.9l-1.2,1l1.5,0.6c5.5,2.4,19.2,8.8,26.1,16.3l1.3,1.4l0.4-1.8
		C261,328.5,261.1,328.4,261.1,328.4z"/>
	<path fill="#D3A17F" d="M230.3,313.8l-0.5-0.2l-0.5,0.3c-0.3,0.2-0.7,0.5-0.9,0.6c-2.6,1.8-7,8.1-8.1,14.7
		c-0.4,2.4-0.5,5.7,1.3,8.2c1.1,1.5,3.2,2.1,5.8,2.1c7.6,0,19.6-5.1,25-8.3c0.9-0.5,1.9-0.9,2.9-1.2l1.8-0.5l-1.4-1.2
		C247.7,321.3,234.2,315.4,230.3,313.8z"/>
	<path fill="#D3A17F" d="M136.3,733.7c-4,0-7.6-1.2-10.7-3.4c-2.8-2-4.9-4.6-6.3-7.5l-0.9-2l-0.9,2c-4.3,9.8-11.4,25.6-20.7,45.7
		l-0.3,0.7l0.5,0.5c1.1,1,2.1,2.3,3.1,3.7c1.1,1.6,1.6,3.5,2.1,5.2v0.1c1,3.5,1.7,5.2,4.7,5.2c0.5,0,1,0,1.6-0.1
		c7.9-1.2,13.3-7.2,15-16.5v-0.1c0-1.6,0.6-3.8,1.5-6.3c0,0,0-0.1,0.1-0.2c2.7-7.7,7.6-17.2,13.1-25.4l1.1-1.6l-1.9,0.1
		C137,733.7,136.7,733.7,136.3,733.7z"/>
</g>
<path fill="#517AD0" d="M313.8,628.4c-1-3.7-3.3-9.1-6.8-16c-17-32.9-58.6-91.9-63.3-98.5l-0.4-0.6l-0.7,0.2
	c-6,1.7-18.7,4.6-35.5,4.6c-8.5,0-17.2-0.7-25.7-2.2c-22.1-3.8-34.4-12.3-40.8-18.9l-1.5-1.5l-0.2,2.1c-0.8,8.2-0.9,20.2,3.4,30.8
	c1.1,2.7,2.5,5.4,4.2,7.9l0.1,0.1c8.6,13.3,23.4,23.6,36.8,32l0.3,0.2l0,0l0,0l3.1,1.9c6.9,4.2,13.5,8.7,20.2,13.9
	c13.6,10.5,25,21.5,33.4,29.9c16.1,16.2,34.9,45.2,35.7,46.4c0.6,0.9,0.3,2.2-0.6,2.8s-2.2,0.3-2.8-0.7c-0.6-1-2.4-3.7-5-7.4
	l-1.8-2.4l-0.1,3c-0.2,3.9-0.7,9.4-1.5,17.2c-0.4,3.4-0.7,7.1-1.1,10.8c-0.9,8.9-0.4,17.4,0.1,28.1c0.4,7.2,0.8,15.4,0.9,25.5v0.5
	l0.4,0.3c1.8,1.4,6.1,3.8,14.4,4.7c0.9,0.1,1.8,0.1,2.7,0.1c7.5,0,11.8-3.3,13.4-4.9l0.2-0.2l0.1-0.3c0.3-1.5,0.6-3.1,1-4.6l0.7-3.4
	c8.3-39.5,18.6-88.7,16.9-101.3L313.8,628.4z M147.3,535.8L147.3,535.8L147.3,535.8L147.3,535.8z"/>
<path fill="#517AD0" d="M206.2,601.5c-0.1-0.2-0.2-0.5-0.3-0.7l-0.1-0.1c-3.4-7-17.5-21.9-24.5-28.7l-0.2-0.1
	c-13.2-8.3-22.2-15.1-29.3-22.3l-2.5-2.6l0.8,3.5c2.4,10.4,5.2,24.3,7.4,37.1c6.1,35.4,5.6,46.3,4.1,49.2c-1.2,2.4-3.2,5.4-5.6,9.1
	l-0.1,0.1c-6.6,10.1-16.6,25.4-26.4,48.8c-2.6,6.3-5.7,13.4-9,21l-0.1,0.2v0.3c0.2,2.6,1.5,7.7,6.9,11.6c3,2.2,6.2,2.9,9,2.9
	c2.1,0,4-0.4,5.3-0.8l0.3-0.1l0.2-0.3c1-1.4,2.2-2.8,3.4-4.2l2.5-3c15.1-17.8,55.1-64.9,59.9-79c3.1-9.2,0.3-30-1.7-41.5V601.5z"/>
<path fill="none" d="M573.2,292.3l-5.4-4.1c-0.4-0.3-0.8-0.4-1.2-0.4c-0.1,0-0.2,0-0.3,0c-0.5,0.1-1,0.3-1.3,0.8
	c-0.3,0.4-0.5,1-0.4,1.5s0.3,1,0.8,1.3l5.4,4.1c0.9,0.6,2.2,0.5,2.8-0.4l0,0c0.3-0.4,0.5-1,0.4-1.5
	C573.9,293.1,573.6,292.6,573.2,292.3z"/>
<path fill="none" d="M608.4,291.6l-37-23.4c-0.3-0.2-0.7-0.3-1.1-0.3c-0.1,0-0.3,0-0.4,0c-0.5,0.1-1,0.4-1.2,0.9
	c-0.3,0.5-0.4,1-0.3,1.5c0.1,0.5,0.4,1,0.9,1.2l37,23.4c0.9,0.6,2.2,0.3,2.8-0.6C609.6,293.4,609.3,292.2,608.4,291.6z"/>
<path fill="none" d="M645,271.2l-46.2-26.8c-0.4-0.2-0.8-0.3-1.3-0.3s-1,0.2-1.5,0.5l-17.1,12.3c-0.7,0.5-1.1,1.3-1,2.2
	c0,0.9,0.5,1.6,1.3,2l46.4,26c0.8,0.5,1.8,0.4,2.6-0.1l16.9-11.5c0.7-0.5,1.1-1.3,1.1-2.2C646.2,272.5,645.7,271.7,645,271.2z"/>
<path fill="none" d="M593.5,294.4l-25.8-17c-0.3-0.2-0.7-0.3-1.1-0.3c-0.1,0-0.3,0-0.4,0c-0.5,0.1-1,0.4-1.3,0.9
	c-0.3,0.4-0.4,1-0.3,1.5c0.1,0.5,0.4,1,0.9,1.3l25.8,17c0.9,0.6,2.2,0.3,2.8-0.6c0.3-0.4,0.4-1,0.3-1.5
	C594.3,295.2,593.9,294.7,593.5,294.4z"/>
<path fill="#EE3F76" d="M678.6,258.8c-5.8-3.2-12.6-7-20.3-11.2l-0.5-0.3c-24.2-13.4-52.2-28.5-58.2-31.1l-0.5-0.2l-0.4,0.2
	c-9.5,5.3-85.7,52.2-129.2,79c-2.1,1.3-4,2.5-5.7,3.5l-3.5,2.1l1.3,0.9c6.9,4.7,42,28.8,57.3,40.4l0.9,0.7l0.6-1
	c4.9-8.7,9.5-13.8,13.8-15.1c6.1-1.8,9.3,0.9,10.7,2.6c4,4.9,3.4,14.7-1.4,23.7c-0.8,1.4-1.6,2.9-2.4,4.3l-0.5,0.8l16.8,12.5
	l0.6-0.5c15-11.6,104.3-72.1,142-97.6l1.3-0.9l-1.4-0.8C696.5,268.8,688.6,264.4,678.6,258.8z M646.2,273.3c0,0.9-0.4,1.7-1.1,2.2
	L628.2,287c-0.8,0.5-1.8,0.6-2.6,0.1l-46.4-26c-0.7-0.4-1.2-1.2-1.3-2c0-0.8,0.3-1.7,1-2.2l17.1-12.3c0.4-0.3,0.9-0.5,1.5-0.5
	c0.4,0,0.9,0.1,1.3,0.3l46.2,26.8C645.7,271.7,646.2,272.5,646.2,273.3z M573.6,295.1L573.6,295.1c-0.6,0.9-1.9,1-2.8,0.4l-5.4-4.1
	c-0.4-0.3-0.7-0.8-0.8-1.3s0.1-1.1,0.4-1.5c0.3-0.4,0.8-0.7,1.3-0.8c0.1,0,0.2,0,0.3,0c0.4,0,0.9,0.1,1.2,0.4l5.4,4.1
	c0.4,0.3,0.7,0.8,0.8,1.3C574.1,294.2,573.9,294.7,573.6,295.1z M594.1,297.2c-0.6,0.9-1.9,1.2-2.8,0.6l-25.8-17
	c-0.4-0.3-0.8-0.7-0.9-1.3c-0.1-0.5,0-1,0.3-1.5c0.3-0.4,0.7-0.8,1.3-0.9c0.1,0,0.3,0,0.4,0c0.4,0,0.8,0.1,1.1,0.3l25.8,17
	c0.4,0.3,0.8,0.7,0.9,1.3C594.5,296.2,594.4,296.8,594.1,297.2z M609,294.4c-0.6,0.9-1.8,1.2-2.8,0.6l-37-23.4
	c-0.5-0.3-0.8-0.7-0.9-1.2c-0.1-0.5,0-1.1,0.3-1.5s0.7-0.8,1.2-0.9c0.1,0,0.3,0,0.4,0c0.4,0,0.7,0.1,1.1,0.3l37,23.4
	C609.3,292.2,609.6,293.4,609,294.4z"/>
<path fill="none" d="M204.6,365.7c-0.5,0-1,0.4-1,1c0,0.3-1.4,28.2-10.9,47.5c-9.5,19.4-20.6,37.6-20.7,37.7
	c-0.3,0.4-0.1,1.1,0.3,1.4c0.5,0.3,1.1,0.1,1.4-0.3c0.5-0.8,11.3-18.6,20.7-37.9c9.8-19.9,11.1-48,11.1-48.3l0,0
	c0-0.3-0.1-0.5-0.3-0.7C205.2,365.8,204.9,365.7,204.6,365.7L204.6,365.7z"/>
<path fill="none" d="M147.3,535.8L147.3,535.8L147.3,535.8z"/>
<path fill="none" d="M292.6,234c0.1,0,0.3,0,0.4,0c0.6-0.1,1-0.4,1.3-0.9c0.3-0.4,0.4-1,0.3-1.5c-1.8-8.6,1.8-15.3,2-15.6
	c0.5-1,0.2-2.2-0.8-2.7c-0.3-0.2-0.7-0.3-1-0.3c-0.7,0-1.4,0.4-1.7,1c-0.2,0.3-4.5,8.3-2.4,18.4C290.8,233.3,291.7,234,292.6,234z"
	/>
<path fill="none" stroke="#000000" stroke-width="6" stroke-linecap="round" stroke-linejoin="round" stroke-miterlimit="10" d="
	M331,92.7c0,0,25.5,29.4,24.5,65.4c-1,34.7-7.5,47-7.5,47"/>
<path fill="none" stroke="#000000" stroke-width="7" stroke-linecap="round" stroke-linejoin="round" stroke-miterlimit="10" d="
	M356.5,161.7c0,0,4.2,3.4,10,0.5c5.7-2.9,6.9-6.4,6.9-6.4"/>
<path fill="none" stroke="#000000" stroke-width="6" stroke-linecap="round" stroke-linejoin="round" stroke-miterlimit="10" d="
	M353.8,183.7c0,0-0.6,8.1,7.9,15.2s14.2,9.4,14.1,22.2c-0.1,12.8-9.1,21.6-20.8,21.8c-0.8,11.8-4.4,30-16.6,30.1s-16.6-4.9-16.6-4.9
	s-1.4,8.3,4,13.6c5.5,5.3,7.5,6,7.5,6s-4.7,16-22.7,24.9s-30.6-4.2-45.7,12.3l-2,4.3"/>
<path fill="none" stroke="#000000" stroke-width="6" stroke-linecap="round" stroke-linejoin="round" stroke-miterlimit="10" d="
	M283.7,255.2c-21.4-12.6-11.6-45.8-3.1-55.3s21.4-0.4,21.4-0.4"/>
<path fill="none" stroke="#000000" stroke-width="6" stroke-linecap="round" stroke-linejoin="round" stroke-miterlimit="10" d="
	M286.4,270.1c-0.3-0.4,0-25.8,1.8-28.6s9.6-1.3,10.1,1.1s1.1,23.9,0,27.4C297.1,273.6,289,276.4,286.4,270.1z"/>
<path fill="none" stroke="#000000" stroke-width="6" stroke-linecap="round" stroke-linejoin="round" stroke-miterlimit="10" d="
	M294.8,215c0,0-4.2,7.4-2.2,17"/>
<path fill="none" stroke="#000000" stroke-width="6" stroke-linecap="round" stroke-linejoin="round" stroke-miterlimit="10" d="
	M294.1,194.9c0-7.5,3-10.2,3-12.9c0,0-1.4-7.3,0-9.4c0,0,5.7-6.1,5.6-13.8c-0.1-7.7-4.3-15.1-1.6-21.4c2.7-6.4,4.2-20,2.4-27.6
	c-1.8-7.5-3.1-4.7-2.2-13.5s-6.5-23.7-16.1-24.5s-16.3-11-24.8-10.9c-8.4,0.1-8.6,5.5-15.7,6.6S233.1,57.3,213,66s-7,20.6-23.2,26.2
	s-19,14.9-20.4,24.6c-1.4,9.7,1.4,12.9-2.7,16.7c-4.1,3.8-14.9,14.8-15.2,25s2.8,11.6,7.9,18s1.8,11.5,0.3,21.2s-1.5,22.7,10,29.1
	s17.9,5.9,19.5,16.7c1.7,10.9,3.1,18.3,13,22.6c10,4.3,15.3-0.8,22.5,3.3c7.1,4.1,10.2,8.3,19.5,6s10.8-5,18-2.9
	c7.1,2,20.6-1.6,22.9-14"/>
<path fill="none" stroke="#000000" stroke-width="6" stroke-linecap="round" stroke-linejoin="round" stroke-miterlimit="10" d="
	M302.7,198.5c0,0,6.3-1.3,11.4-11.7c0,0,13.1-34.6,14.9-59.4s0.5-37.8-0.8-41.4c-0.8-2.1-24-17.6-39.2-13.2"/>
<path fill="none" stroke="#000000" stroke-width="6" stroke-linecap="round" stroke-linejoin="round" stroke-miterlimit="10" d="
	M247.5,277.3c0,0,0.2,6.3-3,15.3c-3.2,9.1-12,16.7-17.2,20.3c-5.2,3.6-12.9,18-7.3,25.7s27.2-2,33.4-5.6c6.3-3.6,15.7-0.4,26.7,11.9
	s82,48.9,100,50.4c7.3,10,2.8,44.2-20.7,51.3c-13.7-7.3-76.9-44.2-99.7-47.2"/>
<path fill="none" stroke="#000000" stroke-width="6" stroke-linecap="round" stroke-linejoin="round" stroke-miterlimit="10" d="
	M384.1,404c0,0,33.1-10.2,61.3-21.7s46.6-32.2,55.5-36.3"/>
<path fill="none" stroke="#000000" stroke-width="6" stroke-linecap="round" stroke-linejoin="round" stroke-miterlimit="10" d="
	M511.2,368.5c0,0,11.9-36.3,23.6-39.7s13.7,10.9,7,23.4s-15.2,22.9-15.2,22.9"/>
<path fill="none" stroke="#000000" stroke-width="6" stroke-linecap="round" stroke-linejoin="round" stroke-miterlimit="10" d="
	M547.3,376.8c0,0-6.3,10.9-30.6,12.1c-24.4,1.3-32.4,2.6-36.5,4.6s-77.2,47.6-88.1,50.9s-20.8-3.6-20.8-3.6"/>
<path fill="none" stroke="#000000" stroke-width="6" stroke-linecap="round" stroke-linejoin="round" stroke-miterlimit="10" d="
	M491.3,370.5c0.1-0.4,9.6-9.6,21.3-8.6"/>
<path fill="none" stroke="#000000" stroke-width="6" stroke-linecap="round" stroke-linejoin="round" stroke-miterlimit="10" d="
	M514.8,354.1c0,0-56.3-41.4-57.4-43.4c-1.1-2-2.6-8.6-1.7-9.2s141-87,143.3-87.6s102.6,55,104.5,56.9"/>
<path fill="none" stroke="#000000" stroke-width="4" stroke-linecap="round" stroke-linejoin="round" stroke-miterlimit="10" d="
	M458.6,300.9c0,0,46.4,31.7,61.9,43.8"/>
<path fill="none" stroke="#000000" stroke-width="4" stroke-linecap="round" stroke-linejoin="round" stroke-miterlimit="10" d="
	M540,358.9l17.5,13.1c11.9-10,146-100.4,146-100.4"/>
<path fill="none" stroke="#000000" stroke-width="6" stroke-linecap="round" stroke-linejoin="round" stroke-miterlimit="10" d="
	M700.4,275.9l7.1,5.5c0,0-140.6,96.9-148.2,102.2c-7.9-5.6-25.1-16.9-25.1-16.9"/>
<path fill="none" stroke="#000000" stroke-width="7" stroke-linecap="round" stroke-linejoin="round" stroke-miterlimit="10" d="
	M537,368.5c0,0,4.8,8.4,3.9,12.4c2.4-1.4,2.8-4.1,2.8-4.1"/>
<polygon fill="none" stroke="#000000" stroke-width="7" stroke-linecap="round" stroke-linejoin="round" stroke-miterlimit="10" points="
	580.4,258.9 597.5,246.6 643.7,273.4 626.8,284.9 "/>
<line fill="none" stroke="#000000" stroke-width="6" stroke-linecap="round" stroke-linejoin="round" stroke-miterlimit="10" x1="570.3" y1="269.9" x2="607.3" y2="293.3"/>
<line fill="none" stroke="#000000" stroke-width="6" stroke-linecap="round" stroke-linejoin="round" stroke-miterlimit="10" x1="566.6" y1="279.1" x2="592.4" y2="296.1"/>
<line fill="none" stroke="#000000" stroke-width="6" stroke-linecap="round" stroke-linejoin="round" stroke-miterlimit="10" x1="566.6" y1="289.8" x2="572" y2="293.9"/>
<path fill="none" stroke="#000000" stroke-width="6" stroke-linecap="round" stroke-linejoin="round" stroke-miterlimit="10" d="
	M266,326.4c0,0,14.6,1.5,36,12.3c21.4,10.7,41.1,13.4,52.6,12.4c9.6,4.2,11.7,28.4,5.8,36.6"/>
<path fill="none" stroke="#000000" stroke-width="6" stroke-linecap="round" stroke-linejoin="round" stroke-miterlimit="10" d="
	M445.4,322.8c-0.5-8.3-1.9-46.9,13.2-53.4c15.1-6.5,14.1,12.9,9,23.5"/>
<path fill="none" stroke="#000000" stroke-width="6" stroke-linecap="round" stroke-linejoin="round" stroke-miterlimit="10" d="
	M359.4,355.3c0,0,36.4-3.6,60.2-11.6c3.2-1.1,6-2.1,8.5-3.1"/>
<path fill="none" stroke="#000000" stroke-width="6" stroke-linecap="round" stroke-linejoin="round" stroke-miterlimit="10" d="
	M456.3,359c12.5-2.2,26.1-3.5,36-8.5"/>
<path fill="none" stroke="#000000" stroke-width="6" stroke-linecap="round" stroke-linejoin="round" stroke-miterlimit="10" d="
	M456.3,359"/>
<path fill="none" stroke="#000000" stroke-width="6" stroke-linecap="round" stroke-linejoin="round" stroke-miterlimit="10" d="
	M373.6,392.2c0,0,42.3-20,63.8-28.2"/>
<path fill="none" stroke="#000000" stroke-width="7" stroke-linecap="round" stroke-linejoin="round" stroke-miterlimit="10" d="
	M486.2,334c0,0,5.7,10.1,5.1,14.6c3.1-1.3,3.8-3.9,3.8-3.9"/>
<path fill="none" stroke="#000000" stroke-width="6" stroke-linecap="round" stroke-linejoin="round" stroke-miterlimit="10" d="
	M458.6,338.4c3.1-5,12.1-11.4,16.4-12.5"/>
<path fill="none" stroke="#000000" stroke-width="6" stroke-linecap="round" stroke-linejoin="round" stroke-miterlimit="10" d="
	M416.5,344.7c0,0,0.3-11.7,4.6-15c0,0,5.7-8,17.2-6.9s19,11.5,18.6,23.2s-0.5,25.7-14.4,31.8c-13.9,6.1-21.2-6.5-21.2-6.5
	s3.3-2.2,8.9-4.5c2.1-0.8,3.6-1.4,4.5-1.8c1.6-0.6,2-0.8,2-0.8s3.8-6.5,1.6-15.6s-9.4-8.4-9.4-8.4"/>
<path fill="none" stroke="#000000" stroke-width="6" stroke-linecap="round" stroke-linejoin="round" stroke-miterlimit="10" d="
	M470.2,369.8c0,0,10,5.6,10.2,21.1c0.3,15.4-3.1,35.2-13.9,34.6s-6.8-19.6-6.8-19.6"/>
<path fill="none" stroke="#000000" stroke-width="6" stroke-linecap="round" stroke-linejoin="round" stroke-miterlimit="10" d="
	M280.8,406.1c0,0,0.5,14.7,0.7,23s-0.3,13.2-8.8,20.3c-8.6,7-17.4,14.7-17.4,14.7"/>
<path fill="none" stroke="#000000" stroke-width="6" stroke-linecap="round" stroke-linejoin="round" stroke-miterlimit="10" d="
	M262.9,448c0,0-8.3,10.2-12.9,29.2s-4,33.1-4,33.1s-26.7,10-64.3,3.6c-37.6-6.4-46.1-27-46.1-27s3.6-23.9,23.6-46.9
	c19.9-23,29.7-51.7,31.6-63.2s-0.9-31.1,11.9-49.6s26.7-22.2,31.3-19.7"/>
<path fill="none" stroke="#000000" stroke-width="4" stroke-linecap="round" stroke-linejoin="round" stroke-miterlimit="10" d="
	M238.5,305.8c0,0,17.3,10.6,23.6,21"/>
<path fill="none" stroke="#000000" stroke-width="4" stroke-linecap="round" stroke-linejoin="round" stroke-miterlimit="10" d="
	M229.3,312.3c0,0,21.2,8.2,29.8,18.1"/>
<path fill="none" stroke="#000000" stroke-width="4" stroke-linecap="round" stroke-linejoin="round" stroke-miterlimit="10" d="
	M204.6,366.7c0,0-1.3,28.1-11,47.9s-20.7,37.8-20.7,37.8"/>
<path fill="none" stroke="#000000" stroke-width="6" stroke-linecap="round" stroke-linejoin="round" stroke-miterlimit="10" d="
	M244.6,511.7c0,0,64.8,90.9,71.2,116.4c3.1,21.4-27.6,143.7-27.8,161.1"/>
<path fill="none" stroke="#000000" stroke-width="6" stroke-linecap="round" stroke-linejoin="round" stroke-miterlimit="10" d="
	M258.6,789.2c0-1,3.7-22.6,3.6-49s-2.5-40.6-1-56.4s3.3-29.2,2.4-33.3"/>
<path fill="none" stroke="#000000" stroke-width="6" stroke-linecap="round" stroke-linejoin="round" stroke-miterlimit="10" d="
	M274.3,661.8c0,0-19.4-30-35.4-46.1s-32.6-30.9-53.2-43.5s-38.2-25.7-45.3-43.1c-7.1-17.5-2.6-38.5-2.6-38.5"/>
<path fill="none" stroke="#000000" stroke-width="5" stroke-linecap="round" stroke-linejoin="round" stroke-miterlimit="10" d="
	M262.1,738.2c0,0,3.8,5.1,16.7,6.4c12.9,1.3,18.4-6.4,18.4-6.4"/>
<path fill="none" stroke="#000000" stroke-width="7" stroke-linecap="round" stroke-linejoin="round" stroke-miterlimit="10" d="
	M250.1,791.9c0,0,5.4-3.6,11.6-0.3s3.8,8.2,10.9,12.1c7,4,16.8-5,16.3-12.8"/>
<path fill="none" stroke="#000000" stroke-width="6" stroke-linecap="round" stroke-linejoin="round" stroke-miterlimit="10" d="
	M289.6,780.4c0,0,11.1,1,17.5,26.8"/>
<path fill="none" stroke="#000000" stroke-width="6" stroke-linecap="round" stroke-linejoin="round" stroke-miterlimit="10" d="
	M298.3,786.9c0,0,3.8,4.7,30.8,4.9c27.1,0.3,34.6,3.2,40.5,18.8s-7.4,28.7-26.7,31.8c-19.3,3.1-36.1,2-51.6,7.5
	c-15.4,5.5-33.6,8.7-44.7,3.3s-14.2-10-14.3-10.9c-0.1-0.9,1.4-16.6,6-26s1.5-11.9,0.6-19.8c-0.9-7.9,5.9-19.7,19.5-17.6"/>
<path fill="none" stroke="#000000" stroke-width="5" stroke-linecap="round" stroke-linejoin="round" stroke-miterlimit="10" d="
	M367.1,805c0,0,6.9,16.5-22,24s-40,4.4-62.4,8.2s-41.3,0.1-48-9.7"/>
<path fill="none" stroke="#000000" stroke-width="5" stroke-linecap="round" stroke-linejoin="round" stroke-miterlimit="10" d="
	M270.1,803.3c0,0-4.4,11.4,0.2,17.5c4.5,6.1,15.5,2.3,16.2,14.6"/>
<path fill="none" stroke="#000000" stroke-width="5" stroke-linecap="round" stroke-linejoin="round" stroke-miterlimit="10" d="
	M307.1,802.6c0,0,6,3.9,16.8,3.7s10.1-3.6,9.9-3.7s-6.5-6.5-6.9-10.1"/>
<path fill="none" stroke="#000000" stroke-width="5" stroke-linecap="round" stroke-linejoin="round" stroke-miterlimit="10" d="
	M341.4,792.9c0,0,6.8,7.5,6.9,13.4s-5.3,6.9-11.6,12.6s-1.4,11.4-1.4,11.4"/>
<polyline fill="none" stroke="#000000" stroke-width="5" stroke-linecap="round" stroke-linejoin="round" stroke-miterlimit="10" points="
	234,844.7 224.3,848.8 239.4,850.5 "/>
<path fill="none" stroke="#000000" stroke-width="6" stroke-linecap="round" stroke-linejoin="round" stroke-miterlimit="10" d="
	M205.3,586.5c0,0,9.8,42.1,4.6,57.4c-5.2,15.3-49,66.4-62.8,82.7c-10.3,12.2-17.3,26.4-20.2,34.7c-1,2.8-1.4,4.9-1.4,6.1
	c-1.7,10-7.7,17-16.7,18.4c-9,1.3-7.3-6.7-10.3-11.3c-3.1-4.6-6.7-6.7-9.8-5.9"/>
<path fill="none" stroke="#000000" stroke-width="6" stroke-linecap="round" stroke-linejoin="round" stroke-miterlimit="10" d="
	M94.5,768.8c0,0,19.7-42.5,33.3-74.9s27.8-49.8,32.2-58.2s-10.8-86.5-15.3-98.4"/>
<path fill="none" stroke="#000000" stroke-width="6" stroke-linecap="round" stroke-linejoin="round" stroke-miterlimit="10" d="
	M182.5,570.2c0,0,22.8,22.4,25.8,31.1c-5.8-13.9-6.6-14.9-6.6-14.9"/>
<path fill="none" stroke="#000000" stroke-width="5" stroke-linecap="round" stroke-linejoin="round" stroke-miterlimit="10" d="
	M119,714.5c0,0-0.7,8.5,7.5,14.5s17.6,1.6,17.6,1.6"/>
<path fill="none" stroke="#000000" stroke-width="6" stroke-linecap="round" stroke-linejoin="round" stroke-miterlimit="10" d="
	M127.6,761.7c0,0,6.6,3.3,8.7,13.1c2,9.8,2.2,13.9,2.2,13.9"/>
<path fill="none" stroke="#000000" stroke-width="6" stroke-linecap="round" stroke-linejoin="round" stroke-miterlimit="10" d="
	M136.1,773.9c0,0,3.3,3.9,29.3,5.6c26,1.7,34.5,15.8,33.2,26.8c7.3,5.7-0.1,20-29.2,23.2s-32.9-3.1-54.9,2.4s-35.2,3.8-43.9,1.3
	c-8.7-2.6-14.8-3.4-19.7-2.6c-4.9,0.9,7.3-1.1,7.3-1.1s-2.4-15.2,0.8-25.4s13-19.4,14.8-23.2s-0.1-15.7,10.3-21.1
	c10.5-5.4,14,0,14,0"/>
<path fill="none" stroke="#000000" stroke-width="5" stroke-linecap="round" stroke-linejoin="round" stroke-miterlimit="10" d="
	M58.9,804.1c0,0,4.5,13,18.5,16.1s30-2.1,48-3.1s54.1,4.1,73.1-10.9"/>
<path fill="none" stroke="#000000" stroke-width="5" stroke-linecap="round" stroke-linejoin="round" stroke-miterlimit="10" d="
	M167.3,780.1c0,0,12,9.3,10.1,16.1c-1.9,6.7-12.6,10.4-14.2,14.7c-1.5,4.3-0.9,5.2-0.9,5.2"/>
<path fill="none" stroke="#000000" stroke-width="5" stroke-linecap="round" stroke-linejoin="round" stroke-miterlimit="10" d="
	M154,778.9l11.8,13.2c0,0-13.7,0.8-26.7-2.7"/>
<path fill="none" stroke="#000000" stroke-width="5" stroke-linecap="round" stroke-linejoin="round" stroke-miterlimit="10" d="
	M99.6,779.4c0,0,0.8,5.4-5.1,13.7s-2.2,8.3,5.1,13.9c7.3,5.6,6.3,11.6,6.3,11.6"/>
<polyline fill="none" stroke="#000000" stroke-width="7" stroke-linecap="round" stroke-linejoin="round" stroke-miterlimit="10" points="
	247.2,281.5 255.3,272.1 248.9,274.9 "/>
<path fill="none" stroke="#000000" stroke-width="25" stroke-linecap="round" stroke-linejoin="round" stroke-miterlimit="10" stroke-opacity="0" d="
	M223.2,63.3c-2.5,2.6-50.8,47.7-50.8,47.7l-11.2,28.1l73.6-72l16.4-1.2l-97.9,97.4l1.5,17.8l108.1-110l7.9,5.4L164,198.5
	c0,0-4.9,19-3.1,18.3S283,84.1,283,84.1l6,10L177,225.4l3.1,11.4l110-125.4v15.1L195.7,240l6.6,18.2l84.1-116.4l1.9,15.1l-2,16.6
	l-3.3,12.8l-10.5,1.5l-59.5,74c0,0,9.2,4.3,10.5,2.3s38-53.1,38-53.1v19.9l-23,30.9l23-18.1l3,9.7l6.3,5.4l-7.9,2.8h-9.3"/>
<polyline fill="none" stroke="#000000" stroke-width="25" stroke-linecap="round" stroke-linejoin="round" stroke-miterlimit="10" stroke-opacity="0" points="
	298.9,84.4 313.1,81 304.3,105.5 319.4,96.7 313.1,143.6 306.8,175 302,185.2 "/>
<path fill="none" stroke="#000000" stroke-width="25" stroke-linecap="round" stroke-linejoin="round" stroke-miterlimit="10" stroke-opacity="0" d="
	M334.3,109.1l-10.5,15.6l16.3-5.6l-22.2,27.1l34.9-10.8L303.2,188L282,208.4l-11.1,20.9l82-73.6v22l-68.8,64.1
	c0,0-1.4,13.8-0.3,13.3s69.1-50.1,69.1-50.1l8.9,10.9l4.5,6l-7.9,8.7l-13.5,1.3l-3.6,11.7l-2.3,12.8l-3.1,4.3h-8l3.1-20.8L311.1,251
	l-10.4,13.6l8.8,1.5l-55,11.2l-3.2,11.1l59.9-6.9l6.9,9.2l-11.2,10.2h-56.5l23,5.9l-19.5,11.7l-14,5.3l-8,4.5l9.2-14.7"/>
<polyline fill="none" stroke="#000000" stroke-width="25" stroke-linecap="round" stroke-linejoin="round" stroke-miterlimit="10" stroke-opacity="0" points="
	375.8,364 373,365.6 373.6,378.1 373.6,381.2 384.1,372.6 386.9,365 395.8,361.1 393.8,369.8 409.5,363.4 410.3,357.5 423.3,355.3 
	431.2,353.3 456.3,345.5 474.3,343.6 480.4,343.6 468.7,334.6 455.4,337.1 456.9,328.3 455.4,319.6 454.6,313 "/>
<polyline fill="none" stroke="#000000" stroke-width="15" stroke-linecap="round" stroke-linejoin="round" stroke-miterlimit="10" stroke-opacity="0" points="
	451.1,300.9 456.3,289.6 460.9,278.4 464.5,275.2 460.3,288.1 "/>
<path fill="none" stroke="#000000" stroke-width="15" stroke-linecap="round" stroke-linejoin="round" stroke-miterlimit="10" stroke-opacity="0" d="
	M393.3,408.4l-2.7,10.4l-7.3,17.9l-1,2.8l5.5-1c0,0,14.5-31.1,14.9-31.6s7.6-4.6,7.6-4.6l-14,33.5l9.2-4.8l15.3-30.1l10.2-6.8
	l-14.5,31.6l11.6-9l13.7-24.7l9-4.5c0,0-11.8,22.6-11.7,22.4s16.3-11,16.3-11l4.3-17.5l11.7-8.3l-7,22.8c0,0,10.3-7.1,10.6-7.3
	s7.9-21.5,7.9-21.5l8.4-9l-5.8,24.5l11.5,0.1l3.4-28.8l6.1,1.2l-1.6,25.9l12.3,1l5.5-25.6l14-22.1l1,1.8l-10,25.1
	c0,0-6.7,16.3-6.2,16.3s4.3,3.4,5,3.5s7.8-1.7,7.8-1.7l0.4-5.3"/>
<path fill="none" stroke="#000000" stroke-width="10" stroke-linecap="round" stroke-linejoin="round" stroke-miterlimit="10" stroke-opacity="0" d="
	M117.9,726.9l-5.2,5.6l-1.7,8.8l10.6-8.1l9.6,2L105.7,749l-3,5.7l33.7-16.8l-11.9,12.2l-20.7,10.7c0,0-4.7,9-4.5,9
	s25.3-12.1,25.3-12.1l-5.4,10c0,0-15.1,8.6-15,8.5c0-0.1,1.6,2.4,1.6,2.6s13.5-5,13.5-5l-7.6,5.9"/>
<path fill="none" stroke="#000000" stroke-width="10" stroke-linecap="round" stroke-linejoin="round" stroke-miterlimit="10" stroke-opacity="0" d="
	M264.7,750.7l3-4.9l5.2,2.9l-10.8,14.4c0,0,0.1,6.5,0.3,6.2c0.3-0.3,17.9-20.3,17.9-20.3l14.2-2.6l-30.2,31.5l0.6,9l23.4-26.6
	l-1.1,10.1l-19,20.6l1.7,4.1l16.3-14.7l-3.1,9.4l-9.4,9.1l5.9-0.3l3.3-3.9"/>
<path fill="none" stroke="#000000" stroke-width="30" stroke-linecap="round" stroke-linejoin="round" stroke-miterlimit="10" stroke-opacity="0" d="
	M229.3,313.9l-37.2,46.7l-3.4,23c0,0,40.7-44,43-44.5s25.4-2.8,25.4-2.8l-96.3,110.3L145.5,482l126.8-139.9l10,2.2L153.9,488.7
	l18,9.2l124.3-144.6l16.9,8.6c0,0,29.6,4,32.3,3.7c2.7-0.3,7.7,13.2,7.7,13.2v7.4l-46.3-12.8l65.5,38l-3.6,14.5l-6,5l-74.1-44.3
	l-7,2.9l17.4,10.9l-22.3-11.9l-12.2,19L189.9,500l21.5,1.3l20.8-2.7l2.1-14.4l-5.6,0.2l10.3-14.7l5.5-20.9l14.8-7.9l6.6-10.1v-14.6"
	/>
<path fill="none" stroke="#000000" stroke-width="30" stroke-linecap="round" stroke-linejoin="round" stroke-miterlimit="10" stroke-opacity="0" d="
	M122.1,523.4c2.7-0.8,23.4-27.1,23.4-27.1l15.3,7.2l-19.3,19.9l5.8,20.7c0,0,22.1-30.3,24.6-30s23.5,1.9,23.5,1.9l-36.6,51.8
	l-2.4,24.2l48.2-67.5l27.8-5.9L150,626.7l5,12.1l86.2-106.7l10.7,17.6l-114,126.6l-15,28.9l140.9-141.5l10.5,21.9
	c0,0-148.1,135-146.7,135c1.4,0,16.7,6.1,16.7,6.1l140.8-130.1l7.3,18.4l-31.6,35.3l0.4,16.3l40.4-37.8l4.1,16.1l-41.9,50.3
	l-1.7,20.7l40.8-41.9l-4.5,33.7l-30.1,26.6l9.1,3.8l35.3-11.3"/>
<path fill="none" stroke="#000000" stroke-width="30" stroke-linecap="round" stroke-linejoin="round" stroke-miterlimit="10" stroke-opacity="0" d="
	M94.5,757.4l-23.2,30.4L67,809.1l37.3-29c0,0,48.8-22.6,45.8-20.6s-70.7,59.8-70.7,59.8s26-1.5,29.6-2s46.1-34.4,46.1-34.4l12.6,2.6
	c0,0-30.4,29.9-29.2,29.9c1.1,0,36.1-6.5,36.1-6.5"/>
<path fill="none" stroke="#000000" stroke-width="30" stroke-linecap="round" stroke-linejoin="round" stroke-miterlimit="10" stroke-opacity="0" d="
	M261.2,778.7l-16.6,15.1l2.5,24.8c0,0,24.4-28.6,25.5-29.4c1.1-0.8,13.6-3.3,13.6-3.3s-32,33.9-31.2,35.2s7.1,9.1,7.1,9.1l46.3-38.1
	c0,0,8.1-2.7,7.6-0.9c-0.5,1.7-32.5,39-32.5,39s20.1,0.9,20.9,0s23-28.1,23-28.1l18.8,1.1l-21.8,32.3"/>
<polyline fill="none" stroke="#000000" stroke-width="30" stroke-linecap="round" stroke-linejoin="round" stroke-miterlimit="10" stroke-opacity="0" points="
	598,230.2 469.7,313 481.9,321.8 609.3,237.1 623.6,240.7 501.9,329.8 509.2,336.3 637.6,251.3 654.9,258.7 535.2,346 548,359 
	668.6,265.8 685.3,274.6 572,350.5 "/>
</svg>
