<?xml version="1.0" encoding="utf-8"?>
<!-- Generator: Adobe Illustrator 27.9.0, SVG Export Plug-In . SVG Version: 6.00 Build 0)  -->
<svg isCommex="true" version="1.1" id="Layer_1" xmlns="http://www.w3.org/2000/svg" xmlns:xlink="http://www.w3.org/1999/xlink" x="0px" y="0px"
	 width="1061.7px" height="943.6px" viewBox="0 0 1061.7 943.6" enable-background="new 0 0 1061.7 943.6" xml:space="preserve">
<path fill="none" d="M858,389l0.5-0.1c8.5-1.3,22.1-2.4,34.1-3.4h0.4c10.8-0.9,21-1.7,25.3-2.5c0.4-0.1,0.9-0.3,1.2-0.6
	c4.6-4,12.2-19.6,22.5-46.3c6-15.4,14.6-39.5,14.5-42.2c-0.1-5-14.5-23.6-45.9-49.6c-10.3-8.5-22.6-16.5-36.5-23.6
	c-22-11.3-40.7-16.8-41.5-17c-0.2-0.1-0.5-0.1-0.7-0.1c-1.1,0-2.1,0.7-2.4,1.8c-0.2,0.6-0.1,1.3,0.2,1.9s0.9,1,1.5,1.2
	c0.1,0,11.3,3.3,26.6,10l3.9,1.7l-4.3,0.2c-13.4,0.5-28.4,2.8-36.2,4c-9,1.5-17.8,3.2-24.7,4.8c-11.4,2.7-12.3,3.9-12.8,4.7
	c0,0.1-0.1,0.2-0.2,0.3c-8.9,16.3-27.6,75.6-27.7,88.1c0,0.2,0,0.3,0,0.5c1.7,9.8,14.5,25.8,15,26.5c0.1,0.1,0.1,0.1,0.1,0.1
	l0.3,0.5l-0.2,0.5c-1.4,3.4-2.4,7.3-3.1,11.7c-1.6,10.1,1.7,19.9,9.4,28.3c10.6,11.5,28.3,18.6,46.3,18.6c1.5,0,3.1-0.1,4.7-0.2
	c13.1-0.9,23.8-8,29.3-19.5L858,389z"/>
<path fill="none" d="M774.9,465.5c5.9,5.3,14.1,8.1,23.8,8.1c4.8,0,9.9-0.7,15.3-2c32.4-8.2,43.4-36.9,42.5-44.9
	c-0.1-0.6-0.4-1.2-1-1.5c-0.5-0.3-1.2-0.4-1.8-0.1c-0.3,0.1-33.2,13.3-64.5,0c-29.8-13.6-29.7-28.4-29.7-29c0.1-1.1-0.8-2.1-1.9-2.1
	h-0.1c-1.1,0-1.9,0.8-2,1.9c0,0.8-0.2,8.5,9.2,18l0.2,0.2l0.1,0.2c0.9,2.4,3.5,11.6,1.3,26.8C765,450.4,768.1,459.4,774.9,465.5z"/>
<path fill="#4E4E4E" d="M992,271.3c-0.8-8.3-2.3-12.3-3.2-13.9l-0.9-1.7l-0.9,1.8c-0.1,0.1-0.1,0.2-0.2,0.5
	c-0.1,0.7-0.3,1.3-0.5,1.9c-0.5,1.2-1.8,1.9-3,1.5c-1.3-0.4-2-1.6-1.7-2.9c0.1-0.6,0.3-1.2,0.5-1.7v-0.2c0.7-4.7-1.9-15.4-11.1-31.5
	c-8.8-15.4-23.7-29.3-27.7-30c-0.9-0.2-1.5,0.7-1.7,1c-2.4,3.1-2.7,11.3,2.1,21.7c0.5,1.2,0.1,2.6-1,3.2s-2.5,0.3-3.3-0.7l-0.2-0.3
	c-15-21.3-49-39.7-59.4-43l-2.6-0.8l1.5,2.3c2.6,4.2,10.6,11.9,23.9,23c1,0.8,1.2,2.3,0.5,3.3c-0.7,1.1-2.2,1.4-3.3,0.7
	c-10.5-6-34.6-18.6-50.7-23.4c-12.6-3.8-22.4-3.8-26-3.7l-3.1,0.1l2.6,1.7c3.2,2.1,9.1,5.6,19,10.3c1.1,0.5,1.7,1.8,1.3,3
	s-1.6,1.9-2.8,1.7c-37.8-7-66.7-3.1-69.9,1.3l-0.1,0.2c-0.5,1.5-0.2,2.3,0.1,2.8c1.6,2.4,8.4,5.3,31.4,5.7c1.3,0,2.4,1.1,2.5,2.4
	s-0.9,2.5-2.3,2.6c-17.7,1.8-39.4,13.8-46.1,22.9c-2.7,3.7-3.5,5.8-3.7,6.8l-0.2,1.1l1.1,0.1c1.4,0.1,4.8-0.1,12.3-3.3
	c1.1-0.5,2.4-0.1,3,0.9c0.7,1,0.6,2.3-0.3,3.2c-9.5,9.9-15.4,41.1-18,58.8c-1.1,7.2-2,14.7-2.5,20.5v0.1v0.2
	c0.1,0.6-0.1,1.3-0.4,1.8c0,0.1-5,7.1-11.7,23.6c-2.2,5.4-4.4,11.4-6.6,17.8c-1.1,3.4-2.1,6.8-2.9,10.2c-2,8.6-2.7,17.1-2.3,25.3
	l0.1,1.8l1.5-1c0.8-0.5,1.7-0.6,2.5-0.2c1.2,0.6,1.7,2.1,1.1,3.3c0,0-1.8,3.8-3.1,10.5c-1.4,7.4-1.6,15.4-0.6,23.8
	c0.9,7.4,2.5,13.6,4.8,18.6l1.5,3.3l0.4-3.6c0.2-2,0.5-4.1,1-6.2c0.1-0.6,0.5-1.2,1.1-1.6c0.6-0.4,1.2-0.5,1.9-0.4
	c1.3,0.3,2.2,1.6,1.9,3c-1,5.1-1.4,10.3-1.2,15.4c0.7,13,5.4,22.4,8.2,25.9l1,1.3l0.7-1.5c0.8-1.8,1.7-4.8,2.3-7.5V485
	c0.6-6.1,2.2-10.3,2.6-11c0.6-1.3,2-1.8,3.3-1.3c1.3,0.6,1.8,2,1.3,3.3c0,0-1.6,3.7-2.2,9.4c-0.2,2.3-0.2,4.6-0.1,6.9
	c1,8.7,6.9,11.4,10.4,12.2l1.6,0.4l-0.4-1.6c-0.6-2.5-1.1-5.4-1.5-8.5c-0.1-0.7,0.1-1.3,0.5-1.8s1-0.9,1.7-0.9
	c1.4-0.2,2.6,0.8,2.8,2.2c1.3,11.2,4.1,17.5,8.3,19.4c5.7,2.5,15-3,23.3-8.8c1.1-0.7,2.5-0.5,3.3,0.4c0.8,1,0.8,2.4-0.1,3.3
	c-5,5.3-5.2,8.6-4.6,9.5c0.3,0.5,1.1,0.8,2.3,0.8c0.8,0,1.7-0.1,2.8-0.5c7.3-2.4,19.3-10.2,26.9-16.3c0.5-0.5,1-0.9,1.5-1.3
	c1.1-0.8,2.6-0.6,3.4,0.5c0.8,1.1,0.7,2.6-0.4,3.5c-0.4,0.4-0.9,0.7-1.4,1.1c-2.5,2.4-3.7,5.9-2.8,8.2c0.5,1.2,1.7,2.6,5.2,2.3
	c7.7-0.7,19.6-13.6,23.5-18.6c0.7-0.9,1.9-1.2,3-0.7c1,0.4,1.6,1.5,1.5,2.7c-0.2,1.1-0.1,2.6,0.1,3.5l0.2,1l1-0.2
	c4.7-1.1,9.9-6.5,16.3-17.1c8.2-13.5,13.8-28,13.8-28.1c0.5-1.3,1.9-1.9,3.2-1.4c1.2,0.5,1.9,1.8,1.5,3l-0.8,2.8l2.3-1.7
	c17.2-12.3,22.8-35.8,23-36.8c0.1-0.3,0.2-0.5,0.3-0.8l0.2-0.3l-0.1-0.4c-0.8-4.7-1.4-14.1,3-24.6c5.2-12.5,13.1-28.5,21.4-34.1
	c4.3-2.9,12-6.3,20.3-7.1l0.5-0.1l0.3-0.5c0.1-0.3,0.3-0.5,0.6-0.7c8.5-7,16.5-22.1,18.2-27.9l1.1-3.8l-2.8,2.9
	c-0.5,0.5-1.1,1.1-1.8,1.9c-0.9,1-2.5,1.1-3.5,0.2c-1-0.9-1.1-2.5-0.3-3.5C989.5,317.5,993.9,292.1,992,271.3z M765,414.2l-0.1-0.2
	l-0.2-0.2c-9.4-9.5-9.2-17.1-9.2-18c0.1-1.1,0.9-1.9,2-1.9h0.1c1.1,0.1,1.9,1,1.9,2.1c0,0.6-0.1,15.4,29.7,29
	c31.3,13.2,64.1,0.1,64.5,0c0.6-0.2,1.2-0.2,1.8,0.1c0.5,0.3,0.9,0.9,1,1.5c0.9,8-10.1,36.7-42.5,44.9c-5.4,1.4-10.5,2-15.3,2
	c-9.7,0-17.9-2.8-23.8-8.1c-6.8-6.1-9.9-15-8.6-24.5C768.5,425.7,765.9,416.6,765,414.2z M828.4,408.9c-1.6,0.1-3.2,0.2-4.7,0.2
	c-18,0-35.7-7.1-46.3-18.6c-7.7-8.4-11-18.2-9.4-28.3c0.7-4.4,1.7-8.3,3.1-11.7l0.2-0.5l-0.3-0.5l-0.1-0.1
	c-0.5-0.7-13.3-16.7-15-26.5c0-0.2,0-0.3,0-0.5c0.1-12.5,18.7-71.7,27.7-88.1c0.1-0.1,0.1-0.2,0.2-0.3c0.6-0.8,1.4-2,12.8-4.7
	c6.9-1.6,15.6-3.4,24.7-4.8c7.8-1.3,22.8-3.5,36.2-4l4.3-0.2l-3.9-1.7c-15.3-6.7-26.5-10-26.6-10c-0.6-0.2-1.2-0.6-1.5-1.2
	s-0.4-1.3-0.2-1.9c0.3-1.1,1.3-1.8,2.4-1.8c0.2,0,0.5,0,0.7,0.1c0.8,0.2,19.5,5.7,41.5,17c13.9,7.1,26.2,15.1,36.5,23.6
	c31.4,26,45.8,44.7,45.9,49.6c0.1,2.8-8.5,26.9-14.5,42.2c-10.4,26.7-17.9,42.3-22.5,46.3c-0.3,0.3-0.7,0.5-1.2,0.6
	c-4.3,0.8-14.5,1.6-25.3,2.5h-0.4c-12,1-25.7,2.1-34.1,3.4l-0.5,0.1l-0.2,0.5C852.2,400.9,841.5,408,828.4,408.9z"/>
<g id="vs-primary">
	<path fill="#6495FB" d="M947.1,672.4c-2.7-5.1-14.7-33.2-27.4-62.9l-0.2-0.4c-15.4-36-32.8-76.7-37-84.5c-4-7.3-7.8-10.6-10.2-12.1
		l-1.2-0.7l-0.3,1.4c-3.6,16.9-14.9,58.1-42.7,76.5c-0.9,0.7-2,0.9-3.1,0.6c-2.7-0.8-3.8-4.5-5.9-11.9c-2.3-8-5.7-20-11.4-22.3
		c-0.6-0.3-1.1-0.7-1.4-1.3c-0.3-0.6-0.3-1.3,0-1.9c0.3-0.6,0.7-1.1,1.4-1.4c0.6-0.3,1.3-0.3,1.9,0c7.9,3.2,11.4,15.6,14.3,25.6
		l0.1,0.5c0.6,2.1,1.3,4.4,1.9,6.1l0.5,1.3l1.1-0.8c25.8-18.9,36.2-61.2,38.8-73.7l0.3-1.3l-1.3,0.1c-1.2,0.1-2.2-0.1-3.1-0.7
		l-0.8-0.5l-0.5,0.7c-3.5,4.5-11.3,13.1-24,19.4c-9.3,4.6-17.1,6.2-23.9,7.6h-0.1c-5.6,1.2-10.9,2.2-16.4,4.8
		c-11.4,5.2-26.2,22.1-28.1,24.7l-0.1,0.1c-0.1,0.2-0.3,0.4-0.4,0.6l-0.3,0.3v0.5c1.1,16.7,1,30.1,1,31.6c0,1.4-1.1,2.5-2.5,2.5
		s-2.5-1.1-2.5-2.6c0-1.6,0.1-16-1.2-33.7c-0.2-2.2-0.3-4.4-0.5-6.6c-0.2-2.1-0.3-4-0.5-5.7V552c-1.3-16.9-1.7-21.9-16.8-42.3
		c-17.2-23.1-15.5-41.2-15.2-43.1l0.1-0.6l-0.3-0.4c-0.2-0.2-0.4-0.5-0.6-0.8l-0.7-1l-0.8,0.9c-3.5,3.9-6.4,8.8-8.6,14.4
		c-9.6,24.5-4.5,60.4-0.5,76l0.3,1.2l1.1-0.6c4.7-2.5,14.5-8.2,24.4-14.1c0.6-0.3,1.3-0.5,1.9-0.3c0.6,0.2,1.2,0.6,1.5,1.1
		c0.3,0.6,0.4,1.3,0.3,1.9c-0.2,0.6-0.6,1.2-1.1,1.5c-21,12.6-27.7,16.3-29.8,16.3c-0.4,0-0.6-0.1-1.1-0.4c-0.8-0.5-1.4-0.8-3.1-8.7
		c-0.9-3.9-2.1-10.2-3-17.9c-2.7-21.9-1.6-40.3,3.3-54.7l0.3-1l-1-0.3c-8.6-2.5-38.7-11.8-63.7-27.5c-8.3-5.2-16.5-10.5-23.8-15.1
		l-1.4-0.9c-9.6-6.1-21.5-13.7-27.5-17.2l-2.1-1.2l0.6,2.3c1.5,5.7,2.5,16.3-1.3,34.6c-3.6,17.4-12.8,31.4-18.1,38.2
		c-0.3,0.3-0.9,1.2-2,2.5h-0.5v0.6c0,0,0,0-0.1,0.1c-3.1,3.7-7.8,8.7-12,11.2l-1.3,0.8l1.2,0.9c3.6,2.6,9.1,5.6,16.2,9
		c17.3,8,83.5,41.2,96.7,50.4l1.1,0.7l0.4-1.2c1.3-3.6,2.2-6.2,2.7-7.6c0.2-0.6,0.3-0.9,0.4-1c0.2-0.6,0.7-1.1,1.3-1.4
		c0.6-0.3,1.3-0.3,1.9-0.1c1.3,0.5,2,1.9,1.5,3.2l-0.1,0.4c-2.4,6.8-8.7,24.5-15.6,42.4c-5.4,14-10,24.9-13.6,32.6
		c-11.2,23.5-18.7,45-19.6,55.9l-0.1,1.1h1.1c8.2,0,19.8,0,33.5,0c56.5,0,142.7-0.1,198.1-0.1h1.1l-0.1-1.1c-2-30.5,3.9-57.5,4-57.8
		c0.1-0.7,0.5-1.2,1.1-1.6c0.6-0.4,1.2-0.5,1.9-0.3c0.6,0.1,1.2,0.5,1.6,1.1c0.4,0.6,0.5,1.2,0.3,1.9c-0.1,0.3-5.9,27-3.9,56.8
		l0.1,0.9h0.9c31.5,0,45.5-0.1,46.8-0.1c4.1-0.1,8.7,1.9,12.1,5.3c0.2,0.2,0.3,0.3,0.5,0.5l0.6,0.6l0.7-0.4c2.1-1.1,8.2-4.5,13-7.2
		h0.2l0.2-0.2h0.1l0.2-0.2c1.3-0.7,2.5-1.4,3.4-1.9C953.2,687.3,953.5,684.2,947.1,672.4z"/>
</g>
<path fill="none" d="M828.4,314c1.5,0.8,3.1,0.6,4.3-0.5l0,0c2.4-2.1,3-7.6,1.8-10.6c-0.7-1.8-2.1-2.9-3.7-2.9c-0.1,0-0.2,0-0.3,0
	h-0.1h-0.1l0,0c-0.6,0-1.1,0.2-1.6,0.5c-2.1,1.3-3.4,5.3-3.3,8.2C825.5,311.1,826.6,313,828.4,314z"/>
<path fill="none" d="M835.9,247.7l0.2,0.1c0.1,0.1,0.3,0.2,0.5,0.2c1.1,0.4,2.4,0.2,4.3,0c1.2-0.1,2.7-0.3,4.1-0.3
	c0.9,0,1.8,0.1,2.7,0.2c5.4,1.1,9,0.7,10.9-0.9l0,0c1.3-1.1,1.6-3,0.9-4.9c-1.1-3.1-4.7-6.6-11.6-7c-6.6-0.4-12.5,2.1-14.4,5.9
	c-1,2-0.7,4.1,0.7,5.8c0.4,0.5,0.9,0.8,1.5,0.8L835.9,247.7z"/>
<path fill="none" d="M892.1,265.5c1.8,0.8,3.7,1.6,4.9,2.5c0.7,0.5,1.6,1.2,2.6,2.1c2.5,2.1,4.9,4.1,7.3,4.1c0.1,0,0.3,0,0.4,0
	c1.3-0.1,2.4-1,2.8-2.3c1.2-3.5-2.3-10.2-6-13.5c-3.1-2.8-7.5-4.3-11.3-4.3c-2.5,0-4.6,0.6-5.9,2c-0.4,0.4-0.6,0.9-0.7,1.4v0.2
	l-0.1,0.2c-0.5,0.8-0.7,1.8-0.5,2.8C886.1,262.9,888.7,264.1,892.1,265.5z"/>
<path fill="none" d="M859.8,326.7c1.4,0.5,2.8,0.2,4.1-0.9c2.3-2.1,3.8-7,3-10.1c-0.5-1.8-1.6-3-3.3-3.4c-0.2,0-0.3-0.1-0.5-0.1
	c-0.4,0-0.7,0.1-1.1,0.3l-0.2,0.1h-0.2c-0.5,0.1-0.9,0.3-1.3,0.6c-2.3,1.6-3.6,6.5-3.3,9.4C857.5,325.4,859,326.4,859.8,326.7z"/>
<path fill="none" d="M973.1,392.1c0.5,0.1,1.1-0.1,1.5-0.4c0.4-0.3,0.7-0.8,0.7-1.4l0,0c0.1-1.1-0.7-2.1-1.8-2.2
	c-7.8-0.7-14.9,1.3-21.3,6c-6.8,5-10.2,11.4-10.2,11.4c-0.5,1-0.2,2.2,0.8,2.7c0.3,0.1,0.6,0.2,0.9,0.2c0.7,0,1.4-0.4,1.8-1
	c0.6-1,2.7-4.5,6.5-8l1.5-1.4l0.2,2c0.2,2.5,0,4.6-0.5,6.5c-0.3,1.1,0.3,2.2,1.3,2.5s2.2-0.3,2.5-1.3c1.4-4.6,0.5-9.8,0.2-11.3
	l-0.1-0.7l0.6-0.4C962.4,392.7,967.6,391.6,973.1,392.1z"/>
<path fill="none" d="M807.5,782.3h-64.7c-1.4,0-2.5,1.1-2.5,2.5c0,1.1,0.8,2.1,1.8,2.4l0.7,0.2v0.7c0.3,5.3,0.8,10.9,1.5,15.4
	c1.3,9.2,2.5,11,4.6,11.3c1.2,0.2,13.3,0.4,24.5,0.4h2.6c27.1-0.1,27.4-0.8,28.2-2.7c0.6-1.4,1.4-9.6,2.4-24.3l0.1-0.9h0.9
	c1.3-0.1,2.4-1.2,2.4-2.5C810,783.4,808.9,782.3,807.5,782.3z"/>
<path fill="none" d="M331.9,782.7H267c-1.4,0-2.5,1.1-2.5,2.5c0,1.3,1,2.3,2.2,2.5l0.8,0.1v0.8c0.2,3.3,0.9,8.7,1.7,13.4
	c1.9,11.1,3.2,13,5.5,13.1c0.7,0,7.1,0.1,15,0.1c3.6,0,7.5,0,11.3,0c26.2-0.2,26.6-0.8,27.6-2.1c1.1-1.5,2.1-11.5,2.5-24.5v-0.9
	l0.9-0.1c1.3-0.1,2.3-1.2,2.3-2.5C334.4,783.8,333.3,782.7,331.9,782.7z"/>
<path fill="#CCCCCC" d="M918.6,708.5c-2.9,0-287.8,0-299.5,0.6c-7.3,0.4-9.8,3.9-10.6,6l-0.1,0.2v0.2c1.7,13.1,10.9,91.7,14.7,124.9
	c2.4,21,4.4,37.6,4.4,38.1c0.2,1.9,0.6,3.8,2.7,4.6c0.9,0.4,2.1,0.5,3.9,0.5h0.6c15,0,266.2,0.7,273.1,1.1c0.2,0,0.4,0,0.5,0
	c1.2,0,2.1-0.3,2.7-0.8c1.2-1.1,1.4-3.3,1.5-5.3s1.7-17.2,4-37.2c1.1-9.6,2.2-19.2,3.2-27.7c1.5-12.1,2.7-22.1,3.8-29.8
	c0.8-6,1.6-11.9,2.4-17.7l0.1-0.5c2.9-21.4,5.5-39.9,6.1-50.6v-0.2v-0.2C931.1,710.3,927.1,708.5,918.6,708.5z M810,784.8
	c0,1.3-1,2.4-2.4,2.5h-0.9l-0.1,0.9c-1,14.7-1.8,22.9-2.4,24.3c-0.8,1.8-1.2,2.6-28.2,2.7h-2.6c-11.2,0-23.3-0.2-24.5-0.4
	c-2.1-0.3-3.3-2.1-4.6-11.3c-0.6-4.5-1.2-10.1-1.5-15.4v-0.7l-0.7-0.2c-1.1-0.3-1.8-1.3-1.8-2.4c0-1.4,1.1-2.5,2.5-2.5h64.7
	C808.9,782.3,810,783.4,810,784.8z"/>
<path fill="#CCCCCC" d="M910.8,889.5l-0.9,0.1c-0.5,0.1-1,0.1-1.5,0.1c-0.3,0-0.5,0-0.8,0c-7-0.4-270.7-1.1-273.3-1.1h-0.2
	c-0.7,0-1.6,0-2.7-0.1l-0.8-0.1l-0.3,0.8c-0.5,1.4-1.1,3.7-1,6.3c0.2,4.7,2.7,7.6,6.8,7.7c0.4,0,1.8,0,4.3,0c19.8,0,106-0.5,252-1.5
	l10.9-0.1c2.1,0,3.4,0,3.8,0h0.2c0.4-0.1,4.3-1.1,4.3-5.1c0-2.7-0.4-4.9-0.7-6.2L910.8,889.5z"/>
<path fill="#CCCCCC" d="M442.8,708.7h-8c-129.2,0-284.3,0-289.3,0.4c-7.2,0.5-11.6,1.1-12.5,5.3v0.1v0.1c0,0.6,0,1.2,0.1,1.8
	c0.5,5.4,9,78.4,14.4,123.9c2.8,23.4,4.1,34.6,4.4,36.1c0.6,3.4,1.8,5.5,3.9,6.5l0.2,0.1c0.1,0,0.3,0.1,0.4,0.2l0.1,0.1
	c1.1,0.3,2.2,0.3,3.1,0.3c0.2,0,1.1,0,4.5,0c20.6,0,106.5,0.6,175.5,1l10.8,0.1c36.8,0.2,73.1,0.5,77.6,0.5c0.2,0,0.4,0,0.6,0
	c4.4,0,6.9-0.7,8.2-2.2c1-1.2,1.3-2.6,1.4-4.2c0.2-1.9,1.7-15.1,4.3-38c0.1-1.1,0.2-2.1,0.4-3.2l0.7-6.5
	c5.3-46.7,12.6-110.6,12.9-115.7c0-0.6,0.1-1.1,0.1-1.7v-0.5l-0.4-0.3C454,710.9,449.9,708.7,442.8,708.7z M334.4,785.2
	c0,1.3-1,2.4-2.3,2.5l-0.9,0.1v0.9c-0.4,12.9-1.4,23-2.5,24.5c-1,1.3-1.4,1.9-27.6,2.1c-3.9,0-7.8,0-11.3,0c-7.9,0-14.3-0.1-15-0.1
	c-2.3-0.1-3.6-2-5.5-13.1c-0.8-4.7-1.5-10.1-1.7-13.4v-0.8l-0.8-0.1c-1.3-0.1-2.2-1.2-2.2-2.5c0-1.4,1.1-2.5,2.5-2.5H332
	C333.3,782.7,334.4,783.8,334.4,785.2z"/>
<path fill="#CCCCCC" d="M434.8,889.4l-0.7,0.1c-1.6,0.3-3.3,0.5-5.6,0.5h-0.6c-2.3,0-12.1-0.1-25-0.1c-13.7-0.1-32.1-0.2-52.5-0.3
	l-16.2-0.1c-76-0.5-170.6-1.1-174.2-1c-0.9,0-1.7,0-2.5-0.1l-0.8-0.1l-0.3,0.7c-0.7,1.9-1.5,4.8-1,7.8c1.1,6,5.2,6.7,6.9,6.7
	c2,0,266.9-1.6,270.8-1.7c2-0.1,3.4-2.8,3.5-6.7c0-2.4-0.7-4.1-1.4-5.1L434.8,889.4z"/>
<g id="vs-secondary">
	<path fill="#FFF996" d="M455.1,335L455.1,335c-4.5-1.4-11.7-3-17-3.2c-1.4-0.1-2.5,0-3.4,0.1l-0.8,0.1l-0.1,0.8
		c-2.8,28.3-31.8,124.1-40,139.5c-6.5,12.3-45.7,36.9-85.2,61l-2.4,1.5c-3.8,2.3-7.3,4.4-10.2,6.3c-1.6,1-3.2,2-4.8,3
		c-15.3,9.1-32.3,17.9-43.8,23.6l-0.3,0.2l-0.1,0.4c-0.2,0.4-0.4,0.7-0.7,1c-0.6,0.5-1.5,0.7-2.3,0.5l-0.4-0.1l-0.4,0.2
		c-1.8,0.9-3.2,1.6-4.1,2l-0.4,0.2l-0.2,0.3c-3.1,5.5-10.3,14.1-26.8,23.4c-1.1,0.6-2.3,1.3-3.7,1.9l-0.5,0.3v0.6c0,0.3,0,0.6,0,0.9
		c0,3.9,0.4,13.7,4.3,21.6c3.3,6.7,10,12.2,15,16.2c2.8,2.3,4.9,3.9,5.7,5.5c0.7,1.2,0.2,2.7-1,3.4s-2.8,0.2-3.4-1l-0.1-0.1
		c-0.1-0.1-0.1-0.2-0.2-0.3l-1.5-1.5l-0.2,2.1c-0.5,6.2-3.3,37.5-3.2,46.6v1h1c44.4,0.1,102.1,0.3,147.4,0.3h0.8l0.2-0.8
		c0.6-3,2.6-6.3,5.5-11l0.1-0.1c2.8-4.6,6.3-10.3,9-17v-0.1c0.1-0.2,0.2-0.4,0.2-0.6c4.7-12.1,1.4-25.7-8.9-36.4
		c-1.7-1.8-4-4.1-6.8-6.8c-9.3-9.1-21.6-20.5-26.5-25l-0.3-0.3c-0.5-0.5-0.8-1.1-0.8-1.7s0.2-1.3,0.7-1.8c0.4-0.5,1.1-0.8,1.7-0.8
		c0.7,0,1.3,0.2,1.8,0.6l0.5,0.5c1.4,1.3,5.6,5.2,10.7,9.9l5.5,5.2l-4-6.4c-8.2-13.1-15.4-21.9-19-26l-0.7-0.8l-0.8,0.7
		c-4.5,4-9.3,8.3-14.2,12.6l-0.5,0.5l0.2,0.6c1.8,4.8,10.1,29-1.1,36.6c-2.5,1.6-5.2,2.5-8.3,2.5c-9.3,0-19-7.7-22.8-11l-0.6-0.6
		l-0.7,0.5c-6.6,5.4-11,8.9-13.2,10.1c-1.2,0.7-2.8,0.3-3.4-0.9c-0.3-0.6-0.4-1.2-0.3-1.9c0.2-0.6,0.6-1.2,1.2-1.5
		c2.3-1.3,7.1-5.1,14.7-11.4l0.1-0.1c0.1-0.1,0.2-0.2,0.4-0.3c7.4-6.2,17.4-14.9,28.9-25c5.4-4.7,11.5-10.2,18.8-16.7
		c42.2-37.8,91.4-83.3,95.7-88.6l0.1-0.2l0.1-0.2c2.5-9,22.5-126.7,24.7-142l0.1-0.7l-0.7-0.3C458.4,336.1,456.9,335.6,455.1,335z"
		/>
	<path fill="#FFF996" d="M388.5,672.7c-2.1,4.1-4.2,7.7-6.5,11.3c-1.9,3-3.6,5.9-4.4,7.9l-0.6,1.4h11.4c3.9,0,7.6,0,11.1,0h1.7
		l-11.9-22.4L388.5,672.7z"/>
</g>
<path fill="none" d="M137.7,301.9c-0.4-0.3-0.9-0.4-1.4-0.4c-0.2,0-0.3,0-0.5,0c-16.2,3.1-22.1,15.6-23,21.7
	c-0.2,1.4,0.8,2.6,2.1,2.8c0.1,0,0.3,0,0.4,0c1.3,0,2.3-0.9,2.5-2.2c0.1-0.6,2.4-14.4,19-17.5l0,0c0.7-0.1,1.2-0.5,1.6-1.1
	c0.4-0.5,0.5-1.2,0.4-1.9C138.6,302.9,138.3,302.3,137.7,301.9z"/>
<g id="vs-hair">
	<path fill="#97C3FB" d="M285.8,284c-13.8-22.7-38.1-50.4-75.6-54l-2.4-0.2l1.5,1.8l0.2,0.3c0.8,1.1,0.6,2.7-0.5,3.5
		s-2.7,0.6-3.5-0.5c-0.6-0.8-14.9-18.3-49.7-2.1c-55.2,25.8-90.1,71-101,130.8C40.5,442.5,78.7,505,109.1,522.5
		c16.5,9.5,31.9,13.4,45.6,16.9c2.2,0.5,4.3,1.1,6.3,1.6c10.9,2.9,18.8,5.7,24.8,10.9c0.5,0.4,0.8,1,0.9,1.7c0,0.7-0.2,1.3-0.6,1.8
		c-0.9,1-2.5,1.1-3.5,0.3c-5-4.3-11.9-6.7-18-8.5l-1.4-0.4l0.2,1.5c0.4,3.6,0.2,10.1-5.8,13.8c-2.9,1.7-7.1,2.6-12.4,2.5h-3.5
		l2.9,1.9c8.6,5.5,21.4,10.5,33.6,3.1c1.1-0.6,2.4-0.4,3.2,0.5c0.8,1,0.8,2.3-0.1,3.3c-10.5,11.8-22.5,15.6-38.9,12.1l-4-0.8
		l3.1,2.6c9.4,7.8,22.9,12.1,36.8,12.1c3.2,0,6.3-0.2,9.5-0.7h0.1c2.6-0.7,5.3-1.3,8.1-1.8h0.3l0.1-0.1c4.5-1.3,8.8-3.1,12.7-5.3
		c16.6-9.4,22.9-17.9,25.2-22.2c1-1.9,1.4-3.3,1.5-3.6v-0.2c0-0.3,0.1-0.6,0.3-0.9l0.5-0.8l-0.7-0.5c-2.9-2.1-6-3.9-9.2-5.3
		c-29.1-12.9-53.9-31.3-75.7-56.4c-19.4-22.2-31.6-48.4-38.4-66.5l-1.8-4.7l-0.2,5c-1.1,29.7,8.3,53.4,9.4,56.1
		c0.3,0.6,0.3,1.3,0,1.9c-0.2,0.6-0.7,1.1-1.3,1.4c-1.3,0.6-2.8-0.1-3.3-1.3c-1.5-3.6-14.8-36.3-8.1-75.1c0.3-1.6,0.6-3.2,0.9-4.7
		c2.8-13.4,7.5-26.9,14-40.2c9.3-19.3,20.7-35.1,30.6-48.1c2-2.7,4-5.2,5.9-7.6c4.8-6.2,10.9-12.7,17.4-19.6l0.3-0.3
		c16.5-17.5,35.1-37.4,34.1-54.6c-0.1-1.4,1-2.6,2.4-2.7s2.6,1,2.6,2.3c0.1,1.9,0,3.8-0.2,5.7l-0.1,0.8l0.7,0.3
		c1.9,0.8,7,3,13.8,7.3l0.5,0.3l0.5-0.3c4.9-2.8,10.2-4,15.9-3.6c0.7,0,1.3,0.4,1.7,0.9s0.6,1.1,0.6,1.8c0,0.7-0.4,1.3-0.9,1.7
		c-0.5,0.4-1.1,0.6-1.8,0.6c-3.4-0.3-6.6,0.2-9.7,1.3l-1.7,0.6l1.5,1.1c8.5,6.4,16.2,13.9,22.8,22.4l1.3,1.6l0.6-2.2
		c0.1-0.4,0.3-0.7,0.7-0.9c0.3-0.2,0.7-0.3,1.1-0.2c0.8,0.2,1.3,1,1.1,1.8c-0.1,0.6-0.6,2.2-1.1,4.2l-0.1,0.5l0.3,0.4
		c2.2,3.2,4.3,6.6,6.3,10.1l1,1.9l0.8-2c0.7-1.7,1.2-3.8,1.5-5.5c0.1-0.4,0.3-0.7,0.6-1c0.3-0.2,0.7-0.3,1.1-0.3
		c0.4,0.1,0.8,0.3,1,0.6c0.2,0.3,0.3,0.7,0.3,1.1c-0.1,0.6-0.9,5.9-3.4,9.5l-0.3,0.5l0.3,0.5c1.5,3.1,3,6.3,4.3,9.5
		c17.4,43.3,25.8,73.6,26.5,128.7l2,0.1c3.1-20.6,6.8-50.4,6.8-75.1C311.3,342.3,301.3,309.5,285.8,284z M138.4,305.4
		c-0.4,0.6-0.9,0.9-1.6,1.1l0,0c-16.6,3.1-18.9,16.9-19,17.5c-0.2,1.2-1.2,2.2-2.5,2.2c-0.1,0-0.2,0-0.4,0c-1.4-0.2-2.3-1.5-2.1-2.8
		c0.9-6.2,6.8-18.7,23-21.7c0.2,0,0.3,0,0.5,0c0.5,0,1,0.1,1.4,0.4c0.6,0.4,0.9,0.9,1,1.6C138.9,304.2,138.8,304.8,138.4,305.4z"/>
</g>
<path fill="none" d="M289.6,456.1c-0.1-0.5-0.5-0.9-0.9-1.2c-1-0.5-2.2-0.2-2.7,0.8c-0.7,1.2-17.6,29.9-43.7,38.3
	c-26.5,8.6-45,0.8-45.2,0.7c-0.9-0.4-2-0.1-2.5,0.8c-0.5,0.8-0.3,2,0.4,2.6c0.2,0.2,21.3,18.1,48.5,22h0.1c2.5,0.3,4.8,0.4,7,0.4
	c9.6,0,17.4-2.4,22.5-6.8c3.6-3.1,5.5-7.1,5.6-11.5c0.3-11.7,1.1-26.2,4.5-34.6c0.1-0.2,0.1-0.4,0.1-0.6v-0.3l0.2-0.2
	c3.4-4.5,5.3-7.9,5.9-8.8C289.7,457.1,289.8,456.6,289.6,456.1z"/>
<g id="vs-skin">
	<path fill="#FACFBD" d="M990,376.8c-0.8-5.7-2.9-10.1-6-12c-3-1.9-6.7-2.8-11-2.7c-7.6,0.1-15.9,3.5-20.4,6.5
		c-5.7,3.8-12.6,15.1-19.6,31.8c-4.6,11-3.1,20.5-2.3,24c0.1,0.2,0.2,0.8,0.3,1.1l0,0c0.2,0.5,0.2,1,0,1.5l-0.2,0.8l0.7,0.4
		c2.6,1.3,5.9,1.9,9.6,1.9c11.4,0,26.8-5.8,37-16.9C988.3,402.3,991.4,387,990,376.8z M957.1,396.4c0.3,1.5,1.2,6.7-0.2,11.3
		c-0.3,1-1.5,1.6-2.5,1.3c-1.1-0.3-1.7-1.4-1.3-2.5c0.5-1.8,0.7-4,0.5-6.5l-0.2-2l-1.5,1.4c-3.8,3.4-5.9,6.9-6.5,8
		c-0.3,0.6-1,1-1.8,1c-0.3,0-0.7-0.1-0.9-0.2c-1-0.5-1.3-1.7-0.8-2.7c0-0.1,3.4-6.4,10.2-11.4c6.4-4.7,13.5-6.7,21.3-6
		c1.1,0.1,1.9,1.1,1.8,2.2l0,0c0,0.5-0.3,1-0.7,1.4c-0.4,0.3-0.9,0.5-1.5,0.4c-5.5-0.5-10.7,0.6-15.5,3.2l-0.6,0.4L957.1,396.4z"/>
	<path fill="#FACFBD" d="M946.7,696.7l-1.1,0.6c-2.2,1.2-4.5,2.5-6.4,3.5l-3.7,2l0.3,0.8c1.1,2.5,1.6,5.2,1.5,8
		c0,1.6-0.1,3.5-0.3,5.6c-0.8,11.1-3.3,28.6-6,48.9l-0.1,0.6c-0.8,5.7-1.6,11.7-2.4,17.7c-0.8,6.1-1.8,13.6-2.8,21.7l-0.3,2.7l2-1.8
		c11.1-10.2,29.8-30,29.8-48.4c0-11.3-1.8-31.1-10.3-60.7L946.7,696.7z"/>
	<path fill="#FACFBD" d="M951.5,294l-0.1-0.3c-1.5-4.2-14.1-20.9-44-45.6c-9.5-7.9-21-15.3-33.9-22.1l-0.2-0.1h-0.2
		c-0.2,0-0.3,0-0.5,0c-22.3-3.4-77.9,8-84.5,11.1l-0.3,0.1l-0.2,0.3c-9,17.1-26.3,73.8-26.7,84.7v0.1v0.1
		c1.4,6.8,9.6,18.2,12.1,21.6l0.8,1.1l0.8-1.2c5.8-8.6,15.1-13.1,27.7-13.6c10.9-0.4,25.7-1.2,25.8-1.2c1.4-0.1,2.6,1,2.6,2.4
		c0,0.7-0.2,1.3-0.6,1.8s-1.1,0.8-1.7,0.8c-0.1,0-14.7,0.8-25.9,1.2c-7.8,0.3-18.9,2-25.3,14c-2,3.8-3.4,8.3-4.2,13.6
		c-1.7,10.9,3.5,19.2,8.2,24.2c9.7,10.6,26.1,17,42.6,17c1.5,0,2.9-0.1,4.4-0.2c16.2-1.1,23.1-11.8,25.8-18l0.1-0.3
		c4.4-10.5,3.3-23.2-2.6-30.2c-0.9-1.1-0.8-2.6,0.3-3.5c0.5-0.4,1.2-0.6,1.8-0.6c0.7,0.1,1.3,0.4,1.7,0.9c6,7.2,8.1,18.9,5.2,30
		l-0.4,1.4l1.5-0.2c8.5-1.1,20.3-2.1,30.7-2.9l1-0.1c9.6-0.8,18.6-1.6,23-2.2l0.4-0.1l0.2-0.3c9.6-10.6,33-76.7,34.5-83.7L951.5,294
		z M860.5,313.3c0.4-0.3,0.9-0.5,1.3-0.6h0.2l0.2-0.1c0.3-0.2,0.7-0.3,1.1-0.3c0.2,0,0.3,0,0.5,0.1c1.6,0.4,2.8,1.6,3.3,3.4
		c0.8,3.1-0.7,8-3,10.1c-1.2,1.1-2.7,1.4-4.1,0.9c-0.9-0.3-2.3-1.3-2.6-3.9C856.8,319.8,858.2,315,860.5,313.3z M833.5,241
		c1.9-3.8,7.8-6.2,14.4-5.9c6.9,0.4,10.5,3.9,11.6,7c0.7,2,0.3,3.9-0.9,4.9l0,0c-1.9,1.7-5.6,2-10.9,0.9c-0.8-0.2-1.7-0.2-2.7-0.2
		c-1.4,0-2.8,0.2-4.1,0.3c-1.9,0.2-3.2,0.3-4.3,0c-0.2-0.1-0.4-0.2-0.5-0.2l-0.2-0.1h-0.2c-0.6-0.1-1.1-0.4-1.5-0.8
		C832.8,245.2,832.5,243,833.5,241z M828.7,300.5c0.5-0.3,1.1-0.5,1.6-0.5l0,0h0.1h0.1c0.1,0,0.2,0,0.3,0c1.6,0,3,1.1,3.7,2.9
		c1.2,3.1,0.6,8.5-1.8,10.6l0,0c-1.2,1.1-2.9,1.3-4.3,0.5c-1.9-1-2.9-2.9-3-5.4C825.3,305.7,826.6,301.8,828.7,300.5z M885.9,257.9
		l0.1-0.2v-0.2c0.1-0.5,0.3-1,0.7-1.4c1.3-1.4,3.5-2,5.9-2c3.8,0,8.2,1.5,11.3,4.3c3.7,3.3,7.2,10,6,13.5c-0.4,1.3-1.5,2.2-2.8,2.3
		c-0.1,0-0.3,0-0.4,0c-2.4,0-4.7-2-7.3-4.1c-1-0.9-1.9-1.5-2.6-2.1c-1.1-0.8-3.1-1.7-4.9-2.5c-3.4-1.5-6-2.6-6.6-4.9
		C885.2,259.7,885.4,258.7,885.9,257.9z"/>
	<path fill="#FACFBD" d="M826.4,515.7c-0.3-0.7-0.4-1.5-0.5-2.2l-0.2-1.7l-1.4,0.9c-7.3,4.9-14.2,8.6-18.9,10.2
		c-1.5,0.5-3,0.8-4.4,0.8c-2.9,0-5.2-1.1-6.5-3.1c-0.5-0.8-1.1-2.2-1-4.2l0.1-1.7l-1.5,0.8c-7.2,3.7-12.9,4.5-17.3,2.5
		c-3-1.4-5.4-3.9-7.2-7.7l-0.3-0.6h-0.6c-4.6-0.1-13.2-2.6-16.7-11.3l-0.5-1.3l-1.1,0.9c-0.3,0.2-0.6,0.4-0.9,0.6
		c-0.6,0.3-1.2,0.5-1.9,0.5h-0.1l-2.2-0.4l1.2,1.9c1.2,2,2.6,4,4.1,6c16,21.5,16.5,27.8,17.8,44.9c0.1,1.7,0.3,3.4,0.4,5.3l0.2,2.3
		l1.5-1.7c6.6-7.4,17.3-17.4,25.8-21.3c6.1-2.8,11.6-4,17.5-5.2c6.9-1.4,14-2.9,22.8-7.2c0.2-0.1,0.4-0.2,0.6-0.3l3.2-1.7l-3.7-0.2
		C830.7,521.1,827.6,519.1,826.4,515.7z"/>
	<path fill="#FACFBD" d="M744.6,301.9l0.1-0.5l-0.3-0.3c-0.4-0.8-3.2-5.9-8.1-7.4c-2.9-0.9-6-0.3-9.5,1.7
		c-12.5,7.4-16.8,30.6-13.7,48.7c1.7,10.2,5.1,18,7.6,22.8l1.2,2.2l0.7-2.4c0.4-1.3,0.8-2.7,1.2-4c2.3-6.7,4.6-13.2,7.1-19.1
		l0.1-0.2v-0.2c1.3-19.6-4.6-30.5-4.9-31c-0.3-0.5-0.3-1-0.2-1.5s0.5-0.9,0.9-1.2c0.9-0.6,2.2-0.2,2.7,0.7c0.2,0.3,4.1,7.3,5.3,20.1
		l0.3,3.5l1.6-3.2c2.6-5.2,4.5-8.3,5.4-9.7l0.2-0.2v-0.1l0.9-1.3h-0.7C742.7,317.1,743.4,310.4,744.6,301.9z"/>
	<path fill="#FACFBD" d="M589.1,433.4l-0.1-0.2c-5.3-6.5-32.1-40-42.1-56.4c-10.2-16.7-30.2-54.4-30.9-63.5
		c-0.2-3.4,0.2-18.2,0.7-35.4v-0.2c1-36.6,2.5-91.9,1-113.1c-1.4-19.1-6.5-29.1-10.6-34.1l-2.8-3.4l1,4.3c2.5,10.2,4,25.3,4.8,33.4
		l0.1,1c0.2,1.6,0.3,3,0.4,3.5c0.3,1.2-0.4,2.5-1.6,2.9c-1.4,0.5-2.7-0.2-3.2-1.5c-0.2-0.5-0.3-1-0.7-5.5v-0.1
		c-0.9-8.6-2.9-28.6-6.1-37.2c-0.5-1.3-1-2.6-1.6-3.9c-4.5-10-10.6-16-16.4-16h-1.6l0.7,1.4c2,4.3,3.8,10,6,16.5l0.1,0.3
		c5.6,17.6,10.4,49.3,11.3,55.6c0.1,0.7-0.1,1.3-0.5,1.9c-0.4,0.5-1,0.9-1.7,1c-1.3,0.2-2.6-0.8-2.8-2.1c0-0.4-5.2-36.2-11.1-54.7
		c-3.7-11.5-5.8-17.2-8.3-20.6c-2-2.7-4.3-3.8-8-3.8c-0.1,0-0.1,0-0.2,0c-2.4,0-4.5,1.3-6.3,3.9c-3.6,5.2-4.2,13.7-2.6,18
		c0.1,0.1,0.1,0.3,0.1,0.4l0.2,0.8h0.9c1.1-0.1,2.2,0.1,3.3,0.5c4.4,1.5,8.2,6.3,12.2,15.2c6.2,13.9,14.7,54,16.3,61.9v0.2
		c0.1,0.7,0,1.3-0.4,1.9s-0.9,0.9-1.6,1.1c-1.3,0.3-2.7-0.6-2.9-1.9c-0.1-0.4-9.6-46.6-16-61c-3.3-7.3-6.4-11.5-9.3-12.5
		c-0.9-0.3-2.2-0.5-4.4,0.8c-2.6,1.4-5.2,5.8-4.8,13.9c0.3,5,1.6,10.8,4,17.2c8.2,21.8,16.1,51.4,17.5,60.8c0.1,0.6,0,1.2-0.4,1.7
		l-0.3,0.6l0.4,0.5c4.9,7.1,8,15.2,9.7,20.8l0.1,0.5l0.5,0.2c0.1,0,0.3,0.1,0.4,0.2c0.6,0.3,1,0.9,1.2,1.5s0.1,1.3-0.2,1.9l-1,1.8
		c-0.5,0.9-1.5,1.4-2.5,1.2c-1-0.2-1.8-0.9-2.1-1.9c-0.2-0.7-4.2-16.7-12.7-26.7c-2.4-2.9-5-5-7.7-6.4c-5.5-2.8-10.7-2.8-14.4,0
		l-0.2,0.2c-3.9,3-5.7,8.9-4.5,14.5c1.5,6.9,4.1,10.6,7.1,15c1.1,1.5,2.1,3.1,3.2,4.9c1.3,2.1,2.3,4.1,3.2,6.2c1.9,4.4,3,8.8,4,13.1
		c1.6,6.5,3.1,12.7,7.3,17.5c6.9,7.9,11.4,9.4,17.2,10.7c6.9,1.5,9.1,5,11.8,10.5c0.5,0.9,1.2,3.5,3.4,11
		c9,31.4,36.6,127.1,69.9,161.4l0.3,0.3l7.3,0.6l0.7,0.2l0.4-0.6c5.1-7.2,11.8-18.8,14.6-32.7c1.4-6.7,2.2-12.8,2.4-18.2v-0.6
		l-0.5-0.3C589.5,433.8,589.3,433.6,589.1,433.4z"/>
	<path fill="#FACFBD" d="M458.5,295c-5-5.7-6.7-12.8-8.4-19.7c0-0.2-0.1-0.3-0.1-0.5l-2,0.3c0.8,11.5,1.2,18.3,1.3,21
		c0.1,1.9-0.5,5.4-1.8,10.4c-1.9,7.4-4.7,16.1-5.8,19.4l-0.4,1.2l1.2,0.1c4.3,0.5,8.3,1.5,10.9,2.2l0.9,0.2l0.3-0.9
		c1.7-5.1,5.8-18,7.3-27.6c0.1-0.4,0.2-0.7,0.4-1l0.5-0.7l-0.6-0.6C461,297.7,459.8,296.4,458.5,295z"/>
	<path fill="#FACFBD" d="M449.1,165.5c-2-5.4-3.4-10.5-4-15.1l-0.1-1.1l-1.1,0.3c-2.5,0.6-8.5,2.9-9,11c-0.6,10.1,4.8,40.2,7.2,52.8
		l0.2,1.1l1.1-0.4c4.6-1.6,10.1-0.9,15.4,1.8c1.5,0.8,3,1.7,4.4,2.8l2.2,1.8l-0.6-2.8C461.7,204.4,455.3,182.2,449.1,165.5z"/>
	<path fill="#FACFBD" d="M441.5,145l0.9-0.2c0.6-0.2,1.1-0.3,1.5-0.3l0.8-0.1v-0.8c0.2-6.8,2.5-12,6.5-14.7l0.8-0.5l-0.5-0.8
		c0-0.1-0.1-0.2-0.1-0.3c-0.8-2.3-1.2-5-1.2-7.9V118l-1.3,0.4c-2.4,0.7-5.7,2.9-7.2,9.5c-2.1,9.1-1.1,14.4-0.6,16.3L441.5,145z"/>
	<path fill="#FACFBD" d="M321.6,591.1l-1.1,1c-8.4,7.4-16.2,14.2-22.7,19.6l-0.9,0.8l0.9,0.8c2.9,2.4,11.3,9,18.7,9
		c1.9,0,3.8-0.5,5.5-1.6c7.2-4.9,1.4-24.3,0.1-28.1L321.6,591.1z"/>
	<path fill="#FACFBD" d="M287.4,361.3l-1.2-4.4l-0.7,4.6c0,0.2-0.1,0.4-0.2,0.6c-7,13.3-18.8,20.3-23.6,22.7l-1.6,0.8l1.5,0.9
		c2.4,1.5,7.1,4.4,11.6,6.7c9,4.5,12.5,14.9,11.6,34.8c-0.9,21-26.5,31.8-29.4,33c-0.3,0.1-0.6,0.2-0.9,0.2c-1,0-2-0.6-2.3-1.6
		c-0.2-0.6-0.2-1.3,0-1.9s0.8-1.1,1.4-1.3c0.3-0.1,25.4-10,26.2-28.6c1-22.1-3.9-27.6-8.8-30.1c-7.6-3.8-15.4-9.1-15.4-9.1
		c-0.1-0.1-0.2-0.2-0.3-0.2l-0.2-0.2l-0.2-0.1c-0.1,0-0.2-0.1-0.4-0.2c-2.1-1.5-20.5-15.4-27.2-37.4c-4.7-15.6-7.4-36.7-0.8-49
		l0.1-0.2c2.1-8.7,2.4-19.6,2.5-22.7v-0.1c0-0.8,0.7-1.5,1.5-1.5c0.4,0,0.8,0.2,1.1,0.4c0.3,0.3,0.4,0.7,0.4,1v0.2
		c0,2.3-0.2,8.5-1.1,15.1l-0.3,2.2l1.8-1.2c2.3-1.5,5-2.5,8.1-2.8l0.7-0.1l0.2-0.6c0.9-3.2,1.4-9.8,1.5-14.7c0-0.3,0.1-0.7,0.3-0.9
		l0.6-0.7l-0.7-0.7c-4-3.8-8.2-7.2-12.5-10.3l-0.6-0.4l-0.6,0.5c-2.5,2.1-4,4.2-4.4,4.8c-0.7,1.1-2.3,1.5-3.4,0.7
		c-1.2-0.7-1.5-2.3-0.8-3.4c0.1-0.1,1.4-2.1,3.9-4.6l0.9-0.9l-1.1-0.7c-4.1-2.5-7.5-4.1-9.6-5.1l-1-0.4l-0.3,1.1
		c-5.1,15.6-20.3,31.7-33.6,45.9c-6.2,6.6-12.6,13.4-17.4,19.5c-0.8,1.1-1.7,2.2-2.6,3.3l-1.9,2.4l0.9,0.6c1.9,1.3,3.7,2.6,5.5,4
		l0.9,0.7l0.6-1c1.2-2.1,1.7-5.1,1.8-6.5c0.1-0.8,0.8-1.4,1.6-1.4c0.8,0.1,1.4,0.8,1.4,1.6c-0.1,0.9-0.5,5.4-2.6,8.4l-0.5,0.7
		l0.7,0.6c7.8,6.7,14,14.1,18.6,22c8.5,14.6,11.8,31.7,12.8,38.4s1.1,11.3,0.7,13c-0.8,3.9-18.8,32.5-45.8,32.5
		c-1.6,0-3.3-0.1-5.1-0.3c-0.2,0-0.3,0-0.4-0.1c-12.2-4.2-25.2-23.2-26.3-51.5l-0.2-4.7l-1.7,4.4c-3.4,8.6-6.1,17.6-8,26.5
		c-0.2,1.2-0.5,2.5-0.7,3.8v0.2l0.1,0.2c1.4,4.8,14.2,47.3,42.3,79.4c21.7,24.8,45.2,42.3,74,55.1c7,3.1,12.1,7.1,15.2,10l0.5,0.5
		l0.6-0.3c11.1-5.5,27.5-14,42.3-22.7l0.3-0.2l0.1-0.3c1.1-3.1,6.8-20.4,9-57.3c0.5-8.2,0.8-17,0.9-26.1
		C298,416.8,295,389.2,287.4,361.3z M283.6,466.4l-0.2,0.2v0.3c0,0.2-0.1,0.4-0.1,0.6c-3.5,8.4-4.3,22.9-4.5,34.6
		c-0.1,4.4-2,8.4-5.6,11.5c-5.1,4.5-12.9,6.8-22.5,6.8c-2.2,0-4.5-0.1-7-0.4h-0.1c-27.2-3.9-48.3-21.8-48.5-22
		c-0.7-0.6-0.9-1.8-0.4-2.6s1.6-1.2,2.5-0.8c0.2,0.1,18.7,7.9,45.2-0.7c26.1-8.4,43-37,43.7-38.3c0.5-1,1.8-1.3,2.7-0.8
		c0.5,0.3,0.8,0.7,0.9,1.2s0.1,1.1-0.2,1.5C288.9,458.5,286.9,461.8,283.6,466.4z"/>
	<path fill="#FACFBD" d="M246.3,291.7c3.4,0.4,6.6,1.2,9.5,2.6l0.8,0.4l0.5-0.8c0.3-0.5,0.6-1.1,1-2l0.2-0.5l-0.3-0.5
		c-3.1-4.4-6.6-8.6-10.3-12.5l-1.6-1.7l-0.1,2.4c-0.1,3.3-0.4,7.9-1.2,11.4l-0.3,1.1l1.2,0.1C245.9,291.6,246.1,291.6,246.3,291.7z"
		/>
</g>
<path fill="#517AD0" d="M659.1,604.3c-5.5-0.3-15.6-0.7-21.2-0.4c-5.8,0.3-12.4,2.8-12.4,19.6v69.1h2.6l0.1-0.9
	c0.8-11.5,8.5-33.8,20.1-58.2c3.2-6.7,7.1-16,11.7-27.7l0.5-1.3L659.1,604.3z"/>
<path fill="#517AD0" d="M423.4,692.1c0-1,0.3-43.5-2.1-64c-2.3-19.4-12.1-22.6-21.5-23.3c-7.7-0.5-23.1-0.5-29.4-0.5h-1.7l0.8,1.5
	c2.1,3.8,4.2,7.6,6.2,11.5c0.1,0.1,0.1,0.3,0.2,0.4l0.1,0.2l0.2,0.2c2.3,2.3,4.1,4.1,5.5,5.6c11.3,11.7,15.2,27.4,10.3,40.9
	l-0.2,0.4l14.4,27.1c0.1,0.1,0.1,0.3,0.2,0.4l0.2,0.7h0.7c5.3,0,10.2,0,14.5,0h0.5l1.1-0.1L423.4,692.1
	C423.4,692.2,423.4,692.2,423.4,692.1z"/>
<path fill="#517AD0" d="M207.2,623.2c-3.5-7.2-4.5-15.5-4.7-21.2l-0.1-1.4l-1.3,0.5c-0.2,0.1-0.3,0.1-0.5,0.1
	c-0.8,0.1-1.8,0.2-2.8,0.3h-0.2c-3,0.9-6.1,1.5-9.1,2h-0.1c-0.9,0.3-1.8,0.6-2.8,0.9c-7.3,2.5-12.2,5.9-14.8,10v0.1
	c-2.6,4-5.9,20.6-6.4,76.9v1.3h1c10.8,0,29.2,0.1,51.5,0.2h1v-1c0-11.5,3.6-51.2,3.6-51.6c0-0.1,0-0.1,0-0.1l0.2-0.6l-0.5-0.4
	C216.3,635.2,210.4,629.8,207.2,623.2z"/>
<path fill="#C4DEFF" d="M981.4,697.8c-16.8-111.2-78.1-198.1-90.2-214.4l-0.9-1.2l-0.8,1.4c-1.1,2.1-2.3,4-3.4,5.9
	c-4.8,7.8-9,13.1-13,16.1l-1.3,1l1.5,0.7c3.4,1.6,8.5,5.4,13.7,14.9c4.4,8,21,47,37.1,84.7l0.3,0.7c12.6,29.6,24.6,57.6,27.2,62.5
	c5.2,9.7,9.2,18.7,1.5,23.1c-0.4,0.2-0.8,0.4-1.2,0.7l-0.7,0.4l0.2,0.8c9.1,31,11,51.7,11,63.7c0,26.5-33.5,54.1-37.4,57.2l-0.3,0.3
	v0.4c-0.9,7.4-1.8,14.9-2.6,22l-0.1,1.1h61.2l0.2-0.8C988.4,814.1,992.2,769.5,981.4,697.8z"/>
<path fill="#C4DEFF" d="M720,438.8c-1-8.7-0.9-16.9,0.5-24.7v-0.2l-0.1-0.2c-1.1-3.7-4.2-17.5-0.3-37.3l0.1-0.5l-0.4-0.4l-0.1-0.1
	l0,0c-0.1-0.1-8.5-11.6-11.7-30.2c-0.1-0.6-0.2-1.2-0.3-1.9l-0.1-0.5l-0.5-0.2c-79.8-39.7-168.3-42.5-185.2-42.7h-1v1
	c-0.2,7.1-0.2,10.9-0.1,12.3c0.5,6.8,18,41.3,30.1,61.2c6.4,10.4,20.1,28.4,30.5,41.7l0.7,0.9l0.8-0.9c1.8-2,5.4-5.3,9.1-4.6
	c2.6,0.5,10.8,5.6,33.4,20c8.4,5.3,16.6,10.6,25.1,15.9c25.3,15.8,57,25.4,63.1,27.1l0.8,0.2l0.4-0.8c2.6-5.6,5.9-10.4,9.8-14.3
	l0.5-0.5l-0.3-0.6C722.6,453,720.9,446.4,720,438.8z"/>
<path fill="#C4DEFF" d="M671.2,572.7c-4.8-4.9-71.2-38.7-97.1-50.8c-14.1-6.6-21.8-11.9-22.9-15.9l-0.1-0.2c-0.5-0.8-0.8-1.8-1-3
	c-0.9-5.4,1.3-14.7,5.4-18.8l0.7-0.6l-0.6-0.7c-31.8-39.5-56.4-125-65.7-157.3c-1.7-5.8-2.7-9.4-3.1-10.2c-2.5-5.1-3.7-6.8-8.3-7.8
	c-3.2-0.7-6.6-1.6-10.4-3.8l-1.2-0.8l-0.3,1.4c-1.8,9.8-5.6,21.6-7.1,26.2l-0.3,0.9l0.9,0.3c3.7,1.5,4.7,2.5,5.1,3.7
	c0.1,0.3,0.1,0.6,0.1,0.8c-0.1,1.2-22.8,139.4-25.5,145.9c-0.4,1-2.7,3.8-24.1,23.9c-13.9,13-32.5,30.1-51,46.9
	c-4.3,3.9-11.2,10.1-19.1,17.2l-0.7,0.7l0.7,0.7c3.8,4.3,11.4,13.6,20.1,27.7l0.3,0.5l0.6-0.1c0.1,0,0.1,0,0.2,0
	c0.2,0,23.2-0.2,33.6,0.5c9.9,0.7,23.4,4.3,26.1,27.7c2.5,21.4,2.1,64.2,2.1,64.7c0,0.1,0,0.1,0,0.2l-0.1,1.1h1.1
	c9.3,0,14.8,0,15.2,0c4.2,0,7.3,1.3,11.6,4.9c4.9,4.1,5.7,8.7,5.4,15.2c0,0.6,0,1.3-0.1,1.9c-0.4,5.5-8.3,75.1-13.5,121.2l-0.3,2.5
	h170.3l-0.1-1.1c-4.6-39.4-12.5-107.4-14.3-121.1c-0.1-1-0.2-1.7-0.3-2.1c-1.1-6.9,1.6-13.2,7.8-18.7c2.6-2.3,6.1-3.3,8.6-3.5
	l0.9-0.1v-69.1c0-15.7,5.8-24,17.1-24.6c4.6-0.2,13.1-0.1,24,0.5h0.7l0.3-0.7c2.9-7.6,6-15.9,9.2-24.6l0.3-0.7l-0.6-0.4
	C671.4,572.9,671.3,572.8,671.2,572.7z"/>
<path fill="#C4DEFF" d="M389.5,470c7.3-13.7,38.3-114.5,39.6-139.8c0-0.8,0.5-1.6,1.2-2c1.2-0.7,2.9-1.1,5.1-1.3h0.7l0.2-0.6
	c2.1-6.1,4.2-12.9,5.6-18.1l0.4-1.5l-1.5,0.2c-56.5,8.6-110.3,33.4-125.4,40.7l-0.7,0.3l0.1,0.7c1,6.7,1.5,13.1,1.5,18.9
	c0,48-13.6,115.3-13.8,116c-0.1,0.5-0.3,0.9-0.7,1.3l-0.3,0.3v0.4c-1.5,24.2-4.5,39.7-6.8,48.5l-0.6,2.4l2.1-1.3
	c2.9-1.8,6.2-3.8,9.7-5.9l0.1-0.1C333,512.6,383,482,389.5,470z"/>
<path fill="#C4DEFF" d="M129.3,580.9c-0.6-0.9-0.5-2.1,0.1-2.9c0.7-0.8,1.8-1.2,2.8-0.8c12.6,4.6,22.7,5.5,30.8,2.9l5.1-1.6
	l-5.3-0.3c-12.9-0.8-25-9.1-31.4-15.9c-0.8-0.8-0.9-2-0.3-3c0.6-1,1.7-1.4,2.8-1.2c5.9,1.4,16.3,2.5,21.1-0.4c4.9-3,3.4-10.2,2.7-12
	l-0.2-0.5l-4.1-1c-10.5-2.7-22.3-5.7-35.2-11.4l-0.8-0.4l-0.5,0.7c-45.4,71-59.7,150.3-63.7,204.3c-3.8,51.2,0.7,90.2,2.1,100.9
	l0.1,0.9l12-0.1c6.9-0.1,14.3-0.1,21.7-0.2c21.7-0.2,43.3-0.3,51.9-0.4h1.1l-0.1-1.1c-5.5-46.5-13.5-114.8-14-120.6
	c-0.1-0.9-0.1-1.7-0.1-2.5c-0.1-6.4,2.1-11.2,7.3-16.2c5.5-5.2,8.2-5.6,19.9-5.4c0.5,0,1.6,0,3.1,0h1v-1.3
	c0.4-46.8,2.8-72.9,7.3-79.7c1.3-2.1,3.2-4.2,5.5-6l2-1.6l-2.5-0.2C153.4,602.4,137.6,593.7,129.3,580.9z"/>
<path fill="none" stroke="#000000" stroke-width="6" stroke-linecap="round" stroke-linejoin="round" stroke-miterlimit="10" d="
	M280.2,350.6c2.1-0.1,1.9,8.5-0.3,8.2s-2-8-0.5-8.2s0.2,4.1,0.2,4.1"/>
<path fill="none" stroke="#000000" stroke-width="7" stroke-linecap="round" stroke-linejoin="round" stroke-miterlimit="10" d="
	M193.9,392.8c2.1-0.1,1.9,8.5-0.3,8.2s-2-8-0.5-8.2s0.2,4.1,0.2,4.1"/>
<path fill="none" stroke="#000000" stroke-width="6" stroke-linecap="round" stroke-linejoin="round" stroke-miterlimit="10" d="
	M256.7,384.6c1.5-0.4,18-6.9,26.8-23.6c-1.5-28.3-10.7-64.5-37.3-67.4s-23.6,33.9-16.9,56.1c6.7,22.2,26.4,36.4,26.4,36.4"/>
<path fill="none" stroke="#000000" stroke-width="5" stroke-linecap="round" stroke-linejoin="round" stroke-miterlimit="10" d="
	M230.6,278.2c0,0-0.1,18.1-4.1,28.4"/>
<path fill="none" stroke="#000000" stroke-width="5" stroke-linecap="round" stroke-linejoin="round" stroke-miterlimit="10" d="
	M244.5,276.2c0,0-0.1,14-2.5,17.3"/>
<path fill="none" stroke="#000000" stroke-width="5" stroke-linecap="round" stroke-linejoin="round" stroke-miterlimit="10" d="
	M262.3,283.5c0,0-2.5,10.3-5.1,12.6"/>
<path fill="none" stroke="#000000" stroke-width="5" stroke-linecap="round" stroke-linejoin="round" stroke-miterlimit="10" d="
	M273.8,293.5c0,0-1.2,8.7-5.2,11"/>
<path fill="none" stroke="#000000" stroke-width="6" stroke-linecap="round" stroke-linejoin="round" stroke-miterlimit="10" d="
	M155,326.8c0,0,18.9,10.7,30.4,30.4s14.2,45.8,13.3,50s-20.9,34.3-48.6,30.6c-13.9-4.7-28-30.1-24.5-63.4"/>
<path fill="none" stroke="#000000" stroke-width="5" stroke-linecap="round" stroke-linejoin="round" stroke-miterlimit="10" d="
	M169.4,324.3c0,0-0.4,6.5-3.5,9.1"/>
<path fill="none" stroke="#000000" stroke-width="7" stroke-linecap="round" stroke-linejoin="round" stroke-miterlimit="10" d="
	M115.3,323.6c0,0,2.3-16.1,21-19.6"/>
<path fill="none" stroke="#000000" stroke-width="7" stroke-linecap="round" stroke-linejoin="round" stroke-miterlimit="10" d="
	M223,267.1c0,0,8-12.5,23.5-11.4"/>
<path fill="none" stroke="#000000" stroke-width="7" stroke-linecap="round" stroke-linejoin="round" stroke-miterlimit="10" d="
	M256.9,386.4c0,0,7.8,5.3,15.2,9s11.1,12.1,10.2,32.4c-0.9,20.3-27.8,30.8-27.8,30.8"/>
<path fill="none" stroke="#000000" stroke-width="6" stroke-linecap="round" stroke-linejoin="round" stroke-miterlimit="10" d="
	M287.7,456.6c0,0-17.1,30.3-44.8,39.2s-46.6,0.6-46.6,0.6s20.8,17.7,47.5,21.6c19.9,2.2,32.7-5.2,32.9-16
	c0.2-10.8,0.9-26.3,4.7-35.3"/>
<path fill="none" stroke="#000000" stroke-width="7" stroke-linecap="round" stroke-linejoin="round" stroke-miterlimit="10" d="
	M117.8,492.2c0,0-15.9-36.8-7.1-78.3c8.8-41.6,32.4-72.2,50-94.8c17.6-22.6,53.8-50.9,52.3-76.2"/>
<path fill="none" stroke="#000000" stroke-width="7" stroke-linecap="round" stroke-linejoin="round" stroke-miterlimit="10" d="
	M214.4,251.6c0,0,40,14.7,59.4,63.1c19.4,48.4,26.9,79.7,26.3,141.9s-10.3,85.2-10.3,85.2"/>
<path fill="none" stroke="#000000" stroke-width="7" stroke-linecap="round" stroke-linejoin="round" stroke-miterlimit="10" d="
	M109.9,418.5c0,0,12.4,46.1,43,81.1c20.5,23.4,44.2,42.1,74.9,55.7c10.8,4.8,16.9,11.9,16.9,11.9"/>
<path fill="none" stroke="#000000" stroke-width="7" stroke-linecap="round" stroke-linejoin="round" stroke-miterlimit="10" d="
	M300.2,483c0,0,13.7-66.8,13.7-115.5s-37.5-138.8-109.7-140.4"/>
<path fill="none" stroke="#000000" stroke-width="7" stroke-linecap="round" stroke-linejoin="round" stroke-miterlimit="10" d="
	M207.5,233.5c0,0-15.4-20.2-52.7-2.8c-37.3,17.4-88.1,54-102.4,132.6s23,142.7,55.4,161.4s61.5,16.3,76.3,29.1"/>
<path fill="none" stroke="#000000" stroke-width="7" stroke-linecap="round" stroke-linejoin="round" stroke-miterlimit="10" d="
	M160,544.9c0,0,3.6,10.5-3.8,14.9c-7.4,4.5-23,0.6-23,0.6s23.5,24.9,46.2,11.1c-9.8,11.1-22.6,17.1-48,7.9
	c15.1,23.2,52.6,28.9,79,13.9c26.4-14.9,28-27.8,28-27.8"/>
<path fill="none" stroke="#000000" stroke-width="7" stroke-linecap="round" stroke-linejoin="round" stroke-miterlimit="10" d="
	M236.8,570.1c0,0,32.7-15.4,58-31.1c25.3-15.7,89-53,96.9-67.8c7.9-14.7,38.6-115.8,39.9-140.8c6.1-3.6,30.4,3.2,31.1,5.6
	c-0.1,3.1-23.4,140.4-25.3,145c-1.9,4.6-143.5,133.9-159.6,143.3"/>
<path fill="none" stroke="#000000" stroke-width="7" stroke-linecap="round" stroke-linejoin="round" stroke-miterlimit="10" d="
	M438.4,327.9c0,0,8.6-25.1,8.4-31.8s-2.7-40.4-2.7-39.6"/>
<path fill="none" stroke="#000000" stroke-width="7" stroke-linecap="round" stroke-linejoin="round" stroke-miterlimit="10" d="
	M456.4,331.4c0,0,6.1-17.4,8-29.9"/>
<path fill="none" stroke="#000000" stroke-width="7" stroke-linecap="round" stroke-linejoin="round" stroke-miterlimit="10" d="
	M323.3,588.5c0,0,10.5,27.1,0,34.1s-26.2-6.3-30.2-10.3"/>
<path fill="none" stroke="#000000" stroke-width="7" stroke-linecap="round" stroke-linejoin="round" stroke-miterlimit="10" d="
	M341.2,570.3c0,0,16.3,16.5,32.4,48.1"/>
<path fill="none" stroke="#000000" stroke-width="7" stroke-linecap="round" stroke-linejoin="round" stroke-miterlimit="10" d="
	M346.3,593.3c0,0,23.5,21.6,33.7,32.2c10.2,10.6,14.8,25.3,9.4,39.1s-14.2,23.5-14.8,28.9"/>
<line fill="none" stroke="#000000" stroke-width="7" stroke-linecap="round" stroke-linejoin="round" stroke-miterlimit="10" x1="389.1" y1="665.3" x2="404.1" y2="693.4"/>
<path fill="none" stroke="#000000" stroke-width="7" stroke-linecap="round" stroke-linejoin="round" stroke-miterlimit="10" d="
	M205,597c0,0-0.9,14,4.5,25s19,18.6,20.8,21.8"/>
<path fill="none" stroke="#000000" stroke-width="7" stroke-linecap="round" stroke-linejoin="round" stroke-miterlimit="10" d="
	M224,640.6c0,0-4.1,44.7-3.6,52.9"/>
<path fill="none" stroke="#000000" stroke-width="7" stroke-linecap="round" stroke-linejoin="round" stroke-miterlimit="10" d="
	M200.4,598.7c0,0-24,1.9-31.7,14.4c-6.8,10.1-6.8,72.8-6.9,81.3"/>
<path fill="none" stroke="#000000" stroke-width="7" stroke-linecap="round" stroke-linejoin="round" stroke-miterlimit="10" d="
	M366.7,601.9c0,0,23.2-0.2,33.4,0.5s21.3,4.4,23.8,25.5s2.1,64.3,2.1,64.3"/>
<path fill="none" stroke="#000000" stroke-width="7" stroke-linecap="round" stroke-linejoin="round" stroke-miterlimit="10" d="
	M444.6,696c0,0-277.9-0.6-289.4-0.8s-13.4,0.2-18.2,4.7c-4.8,4.5-7.2,9-6.4,16.7c0.8,7.7,17.8,154.1,18.9,160.2s4.3,9.4,10.3,9.2
	c6-0.3,255.7,1.5,268.2,1.5c8.3,0.1,12.1-1.9,12.7-8.6c0.7-6.7,17.8-155.6,18.3-163.5s-0.4-11.6-4.5-15.1
	C450.4,696.9,447.9,696,444.6,696z"/>
<path fill="none" stroke="#000000" stroke-width="5" stroke-linecap="round" stroke-linejoin="round" stroke-miterlimit="10" d="
	M459.1,713.6c0,0-4-6.4-16.3-6.4s-290.7-0.1-297.4,0.4c-6.7,0.5-12.8,1-14,6.7"/>
<path fill="none" stroke="#000000" stroke-width="7" stroke-linecap="round" stroke-linejoin="round" stroke-miterlimit="10" d="
	M267,785.2c0.6,0,64.9,0,64.9,0"/>
<path fill="none" stroke="#000000" stroke-width="7" stroke-linecap="round" stroke-linejoin="round" stroke-miterlimit="10" d="
	M328.8,786.7c0.1,0.5-1.1,23.5-2.1,24.9s-49.9,1.1-51.8,1.1c-1.9-0.1-5-20.7-4.9-25.9"/>
<path fill="none" stroke="#000000" stroke-width="7" stroke-linecap="round" stroke-linejoin="round" stroke-miterlimit="10" d="
	M436.4,887.5c0,0,2.8,2.7,2.7,7.7c-0.1,5-2.2,9-5.9,9.1c-3.7,0.1-266.9,1.7-270.9,1.7s-8.2-2.3-9.4-8.7s2.5-11.9,2.5-11.9"/>
<path fill="none" stroke="#000000" stroke-width="6" stroke-linecap="round" stroke-linejoin="round" stroke-miterlimit="10" d="
	M33.4,841.3c0.8,0,111.6-0.8,111.6-0.8"/>
<line fill="none" stroke="#000000" stroke-width="6" stroke-linecap="round" stroke-linejoin="round" stroke-miterlimit="10" x1="446.1" y1="841.2" x2="618.6" y2="841.2"/>
<path fill="none" stroke="#000000" stroke-width="6" stroke-linecap="round" stroke-linejoin="round" stroke-miterlimit="10" d="
	M830.9,301.9c3.7,0,2.6,12.4-1.5,10.3s-0.7-11.2,1.2-10.2s1.1,7.9,1.1,7.9l-1.1,0.6l-1.8-5.1"/>
<path fill="none" stroke="#000000" stroke-width="6" stroke-linecap="round" stroke-linejoin="round" stroke-miterlimit="10" d="
	M863.2,314.3c4.2,1,0.7,11.9-2.6,10.5c-3.4-1.3-0.1-11.1,2.1-10.1s-0.9,9.4-1.2,9.1s-0.8-4.8-0.8-4.8"/>
<path fill="none" stroke="#000000" stroke-width="7" stroke-linecap="round" stroke-linejoin="round" stroke-miterlimit="10" d="
	M836.1,245.2c-2.7-3.2,3-8,11.7-7.6s10.5,6.4,9.2,7.6c-1.3,1.1-4.6,1.2-8.8,0.4s-9.4,0.6-10.7,0.1s-0.2-3-0.2-3s7.4-1.1,8-1.2
	c0.7-0.1,3.4,0.3,4.4,0.4s3.2,0.7,3.2,0.7"/>
<path fill="none" stroke="#000000" stroke-width="7" stroke-linecap="round" stroke-linejoin="round" stroke-miterlimit="10" d="
	M888.6,257.7c2-2.1,9.3-1.6,13.8,2.4s6.7,11.3,4.6,11.5c-2.1,0.2-5.4-3.4-8.5-5.6c-3.1-2.3-10-4.1-10.5-5.9s3.9-2.5,4.8-2.5
	s4.2,2.3,4.2,2.3s-3,1.1-2,1.2s5.1,1.6,5.1,1.6l1.1,2.1"/>
<path fill="none" stroke="#000000" stroke-width="7" stroke-linecap="round" stroke-linejoin="round" stroke-miterlimit="10" d="
	M828.3,331.6c0,0-14.7,0.8-25.9,1.2c-11.1,0.4-28,3.8-31.9,29.7c-4,25.9,27.1,46.1,57.8,43.9c30.7-2.2,37.6-37.8,25.1-52.6"/>
<path fill="none" stroke="#000000" stroke-width="6" stroke-linecap="round" stroke-linejoin="round" stroke-miterlimit="10" d="
	M757.6,396c0,0-1.1,16.4,30.8,31c27.2,11.5,57.1,3.6,66.1,0c0.8,6.5-9.2,34.7-41,42.7s-47.9-9.8-45.2-28.3s-1.7-28.4-1.7-28.4"/>
<path fill="none" stroke="#000000" stroke-width="7" stroke-linecap="round" stroke-linejoin="round" stroke-miterlimit="10" d="
	M772.8,347.8c0,0-12.9-16.2-14.5-25.4c0.1-11.4,18.4-70.5,27.4-86.9c2.3-3.3,64.3-15.5,87.1-12.1"/>
<path fill="none" stroke="#000000" stroke-width="7" stroke-linecap="round" stroke-linejoin="round" stroke-miterlimit="10" d="
	M831.9,206c0,0,43.9,12.6,77.1,40.1c33.2,27.5,44.9,44.5,45,47.8s-26.2,77.9-36.2,86.6c-9.1,1.7-46.1,3.6-61.5,6.2"/>
<path fill="none" stroke="#000000" stroke-width="7" stroke-linecap="round" stroke-linejoin="round" stroke-miterlimit="10" d="
	M744.8,320.9c0,0,5.7-64.8,21.2-80.9c-18.2,7.7-20.2,1.9-12.5-8.5c7.7-10.3,30-22.1,47.9-23.9c-30-0.5-36.3-5.2-33.8-11.9
	s34.2-10.2,72.8-3.1c-13.9-6.6-24-12.9-24.5-15.1s15.4-3.6,33.8,1.9s44.9,20,51.2,23.6c-22-18.4-27.2-25.3-25.4-29.1
	c1.8-3.8,47.6,18.4,65.8,44.3c0.1,0.1,0.2,0.2,0.2,0.3c-7.5-16.3-3.2-27,2.2-26.2s21,16.3,29.6,31.2c8.6,14.9,13.3,28.9,10.9,35.1
	c2.2-9.8,8.7-7.1,10.5,12.3s-1.9,46.6-10.1,56.3c7.7-8.4,8.6-6.3,8.2-0.9c-0.4,5.4-10.1,23.7-19.5,31.5"/>
<path fill="none" stroke="#000000" stroke-width="7" stroke-linecap="round" stroke-linejoin="round" stroke-miterlimit="10" d="
	M928.8,426.4c0,0-4.1-12.2,2-26.9s13.5-28.2,20.5-32.9s23.2-10.6,34.1-3.8c10.9,6.8,10.4,35.1-5.3,52.2
	c-15.7,17-42.5,22.3-52.7,13.5"/>
<path fill="none" stroke="#000000" stroke-width="6" stroke-linecap="round" stroke-linejoin="round" stroke-miterlimit="10" d="
	M943.7,406.4c0,0,9.8-18.2,29.6-16.3"/>
<path fill="none" stroke="#000000" stroke-width="6" stroke-linecap="round" stroke-linejoin="round" stroke-miterlimit="10" d="
	M955,396.1c0,0,1.5,5.9,0,11"/>
<path fill="none" stroke="#000000" stroke-width="7" stroke-linecap="round" stroke-linejoin="round" stroke-miterlimit="10" d="
	M927.4,425.2c0,0-6.9,31-30.6,42.1"/>
<path fill="none" stroke="#000000" stroke-width="7" stroke-linecap="round" stroke-linejoin="round" stroke-miterlimit="10" d="
	M898,459.7c0,0-5.6,14.7-14,28.5s-14.2,17.7-18.8,18.4c-4.6,0.6-3.4-7.3-3.4-7.3s-14.8,18.6-25.3,19.5s-10.3-10.7-2.8-16.1
	c-7.8,6.5-21.1,15.2-29.1,17.9s-13-3.3-3.1-13.9c-18.3,12.6-31.9,17.5-35.5-12.4"/>
<path fill="none" stroke="#000000" stroke-width="7" stroke-linecap="round" stroke-linejoin="round" stroke-miterlimit="10" d="
	M766.9,507.2c0,0-14.3,0-16-14.9c-0.8-10.3,2.4-17.5,2.4-17.5"/>
<path fill="none" stroke="#000000" stroke-width="7" stroke-linecap="round" stroke-linejoin="round" stroke-miterlimit="10" d="
	M751,485.2c0,0-2.5,12.8-6,11.1c-3.6-1.7-14.9-20.7-9.8-45.6"/>
<path fill="none" stroke="#000000" stroke-width="7" stroke-linecap="round" stroke-linejoin="round" stroke-miterlimit="10" d="
	M733.8,466.6c0,0-8.7-5.6-11.3-28.1s4-35.7,4-35.7"/>
<path fill="none" stroke="#000000" stroke-width="7" stroke-linecap="round" stroke-linejoin="round" stroke-miterlimit="10" d="
	M723.1,413.8c0,0-6.9-20.3,3-50.1c10-29.7,18.6-42,18.6-42"/>
<path fill="none" stroke="#000000" stroke-width="7" stroke-linecap="round" stroke-linejoin="round" stroke-miterlimit="10" d="
	M746.7,300.2c0,0-7.2-15-21.2-6.8s-18,33.2-14.9,51.3c3.1,18.1,11.2,29.1,11.2,29.1"/>
<path fill="none" stroke="#000000" stroke-width="6" stroke-linecap="round" stroke-linejoin="round" stroke-miterlimit="10" d="
	M727.8,311.5c0,0,7,12,5,34.3"/>
<path fill="none" stroke="#000000" stroke-width="7" stroke-linecap="round" stroke-linejoin="round" stroke-miterlimit="10" d="
	M731.7,466.6c0,0-2.5,18.2,14.7,41.4s15.9,27.6,17.8,49.6c1.9,22,1.7,40.6,1.7,40.6"/>
<path fill="none" stroke="#000000" stroke-width="7" stroke-linecap="round" stroke-linejoin="round" stroke-miterlimit="10" d="
	M766,564c0.2-0.8,16.5-19.9,29.3-25.9c12.8-5.9,23.7-4.2,40.4-12.4s24.7-20.9,24.7-20.9"/>
<path fill="none" stroke="#000000" stroke-width="7" stroke-linecap="round" stroke-linejoin="round" stroke-miterlimit="10" d="
	M869.4,507.2c0,0-9.4,58.4-42.7,80.4c-4.4,3.6-6.3-29.1-18-33.9"/>
<path fill="none" stroke="#000000" stroke-width="7" stroke-linecap="round" stroke-linejoin="round" stroke-miterlimit="10" d="
	M745,543.5c0,0-27.4,16.5-28.3,15.9c-1-0.6-18.8-69.5,10-98.2"/>
<path fill="none" stroke="#000000" stroke-width="7" stroke-linecap="round" stroke-linejoin="round" stroke-miterlimit="10" d="
	M714.3,477.1c0,0-36.2-9.8-64.9-27.8s-54.2-34.9-57.6-35.6c-3.4-0.6-7.9,5.1-7.9,5.1s7,10.5,7,10.3s-2.2-11.7-2.2-11.7"/>
<path fill="none" stroke="#000000" stroke-width="7" stroke-linecap="round" stroke-linejoin="round" stroke-miterlimit="10" d="
	M589.8,415.8c0,0,6.3,8.8,0.4,37.7c-5.9,28.9-29.3,52.9-35,52.3s-2.1-18.6,3.3-21.1c5,11.5,5.6,13.4,4,14.2
	c-1.5,0.8-4.8,2.7-4.8,2.7l-0.8-10.7l1.7,2l-0.2,3.5"/>
<path fill="none" stroke="#000000" stroke-width="7" stroke-linecap="round" stroke-linejoin="round" stroke-miterlimit="10" d="
	M553.5,504.9c0,0-1,4.2,21.6,14.7s92.7,46,97.9,51.3"/>
<path fill="none" stroke="#000000" stroke-width="7" stroke-linecap="round" stroke-linejoin="round" stroke-miterlimit="10" d="
	M591.1,431.8c0,0-31.2-38.6-42.1-56.3c-10.9-17.7-29.9-54.3-30.5-62.4c-0.5-9.4,4-116.8,1.7-148.7s-15.2-41.1-19.7-41.5"/>
<path fill="none" stroke="#000000" stroke-width="7" stroke-linecap="round" stroke-linejoin="round" stroke-miterlimit="10" d="
	M508.3,169.9c-0.4-1-2.6-31.1-6.8-42.8c-4.2-11.6-12.8-23.9-23.2-21.2"/>
<path fill="none" stroke="#000000" stroke-width="7" stroke-linecap="round" stroke-linejoin="round" stroke-miterlimit="10" d="
	M495.1,182.3c0,0-5.2-36.4-11.2-55.1s-8.6-26.2-18.9-26c-10.3,0.1-14.3,17-11.2,25.3"/>
<path fill="none" stroke="#000000" stroke-width="7" stroke-linecap="round" stroke-linejoin="round" stroke-miterlimit="10" d="
	M486.7,204.9c0,0-9.6-46.7-16.2-61.5s-12-15.7-17.1-12.9c-5.1,2.8-9.8,13-1.9,34.2s16,50.8,17.4,60.3"/>
<path fill="none" stroke="#000000" stroke-width="7" stroke-linecap="round" stroke-linejoin="round" stroke-miterlimit="10" d="
	M480.4,251.1l-1,1.8c0,0-6.4-26.9-21.7-34.7s-25.4,4.9-22.7,17.4c2.7,12.5,8.9,15.6,13.7,26.6c4.7,11,4.3,22.7,11.7,31.3
	c7.4,8.6,12.6,10.2,18.5,11.5s7.5,4,10.1,9.2s37.4,147.5,81.3,179.7"/>
<polyline fill="none" stroke="#000000" stroke-width="7" stroke-linecap="round" stroke-linejoin="round" stroke-miterlimit="10" points="
	563.7,488 571.8,488.7 565.9,491.3 "/>
<path fill="none" stroke="#000000" stroke-width="7" stroke-linecap="round" stroke-linejoin="round" stroke-miterlimit="10" d="
	M451.8,115.6c0,0-9.4-1.5-12.4,11.7c-3.1,13.1,0,19,0,19"/>
<path fill="none" stroke="#000000" stroke-width="7" stroke-linecap="round" stroke-linejoin="round" stroke-miterlimit="10" d="
	M445.6,146.8c0,0-12.4,0.6-13.1,13.7s8.1,58,8.1,58"/>
<path fill="none" stroke="#000000" stroke-width="6" stroke-linecap="round" stroke-linejoin="round" stroke-miterlimit="10" d="
	M351.4,303c0,0,26-46.7,68.7-56.7"/>
<path fill="none" stroke="#000000" stroke-width="6" stroke-linecap="round" stroke-linejoin="round" stroke-miterlimit="10" d="
	M357.8,212.9c0,0,25.9-11.2,25.5-23.2c-0.5-12.1-15.6-24.1-40.3-34.9c33.2,7.5,48.2,3.2,52.5-6.5s-12.5-31.6-30-46
	c34.8,15.7,50.2,9.7,51.1-1.4c1-11.1-6.3-35.3-15.6-48.4c21.3,24.3,27.6,34.6,38.9,31.3c11.3-3.3,6.8-44.8,6.8-45.7
	c15.1,32.7,18,38.2,28,35.6s24.2-29.6,30.1-45.6c-10,37.7-7.8,50.4,6,50.2c13.8-0.2,46-22.3,46-22.3s-20,24.9-18.5,38.3
	s14.8,11.1,28.9,8.6c14-2.6,30.8-8.4,30.8-8.4s-37.4,26.7-38,36.6s12.4,13.7,29.2,16.3s26.6,4,26,5.6c-0.5,1.7-22.6,5.1-38.7,17.1
	c-16.1,12,9.6,27.2,9.6,27.2"/>
<path fill="none" stroke="#000000" stroke-width="6" stroke-linecap="round" stroke-linejoin="round" stroke-miterlimit="10" d="
	M540.8,237.6c0,0,37.9,0,108.3,47.7"/>
<path fill="none" stroke="#000000" stroke-width="7" stroke-linecap="round" stroke-linejoin="round" stroke-miterlimit="10" d="
	M679.8,559.5c0,0-17.8,50.9-29.3,75s-19.5,47.1-19.9,58.2"/>
<path fill="none" stroke="#000000" stroke-width="7" stroke-linecap="round" stroke-linejoin="round" stroke-miterlimit="10" d="
	M869.4,508.7c0,0,7.4,0.3,15.3,14.7c7.9,14.4,58.7,136.9,64.6,147.8c5.9,11,7.5,16.9,2.4,19.8c-5.1,2.9-17.7,9.8-17.7,9.8"/>
<path fill="none" stroke="#000000" stroke-width="7" stroke-linecap="round" stroke-linejoin="round" stroke-miterlimit="10" d="
	M948.2,693c-0.2,0.1,11.6,35.6,11.6,65.6c0,26.6-36.6,55.4-36.6,55.4"/>
<path fill="none" stroke="#000000" stroke-width="7" stroke-linecap="round" stroke-linejoin="round" stroke-miterlimit="10" d="
	M873.3,634.2c0,0-6.1,27.7-3.8,58.5"/>
<path fill="none" stroke="#000000" stroke-width="7" stroke-linecap="round" stroke-linejoin="round" stroke-miterlimit="10" d="
	M662.7,602c0,0-17-1-24.9-0.6s-14.7,4.9-14.7,22.1s0,70.5,0,70.5"/>
<path fill="none" stroke="#000000" stroke-width="7" stroke-linecap="round" stroke-linejoin="round" stroke-miterlimit="10" d="
	M620.7,695.1c0,0,292.8-0.1,299-0.3s15.4,5.9,15.2,16.9c-0.3,12.3-4.6,41.2-8.8,72.5s-10.9,90.9-11,94.5s-0.8,8.9-7.4,8.6
	c-6.6-0.4-268.2-1.2-273.4-1.1c-5.3,0.1-8.5-1.4-9.2-7.3c-0.7-5.8-18-155.5-19.3-164.3s4.6-14.4,7-16.5S618.8,695.1,620.7,695.1z"/>
<path fill="none" stroke="#000000" stroke-width="5" stroke-linecap="round" stroke-linejoin="round" stroke-miterlimit="10" d="
	M606.6,716.4c0,0,0.8-8.2,12.4-8.8c11.6-0.6,286.6-0.6,299.6-0.6s14.8,4.6,15.6,10.1"/>
<line fill="none" stroke="#000000" stroke-width="7" stroke-linecap="round" stroke-linejoin="round" stroke-miterlimit="10" x1="742.8" y1="784.8" x2="807.5" y2="784.8"/>
<path fill="none" stroke="#000000" stroke-width="7" stroke-linecap="round" stroke-linejoin="round" stroke-miterlimit="10" d="
	M804.3,786.4c0,0-1.5,23.4-2.3,25.1c-0.8,1.7-50.8,1.1-52.7,0.9c-1.8-0.3-3.6-15.3-4.1-26.8"/>
<path fill="none" stroke="#000000" stroke-width="7" stroke-linecap="round" stroke-linejoin="round" stroke-miterlimit="10" d="
	M912.7,887.2c0,0,1.5,3.6,1.5,9.4s-5.6,7.6-6.8,7.6S642,906,636.1,905.7s-9-4.6-9.2-10.1c-0.2-5.6,2.2-9.7,2.2-9.7"/>
<line fill="none" stroke="#000000" stroke-width="6" stroke-linecap="round" stroke-linejoin="round" stroke-miterlimit="10" x1="919.1" y1="841.6" x2="1007.5" y2="841.6"/>
<path fill="none" stroke="#000000" stroke-width="16" stroke-linecap="round" stroke-linejoin="round" stroke-miterlimit="10" stroke-opacity="0" d="
	M148.6,589.4c0.2,0,10.6,2.3,10.6,2.3l23.5,0.4l22.3-5.6l20.8-15.1l4.5-6l-13.4-4.4l-12.4,12.8l-26.3,10.6l-3.1-0.1l8.8-9.7
	l26.6-20.8l-7.1-3.7l-28.6,18.4l-12.1-1l-9.7-0.8l-2-0.2l14.1-3l28.8-21l-7.9-4.3l-16.2,11l-2.7-8.9l10.2-9.3l-7-4.9l-15.8,9.9
	c0,0-9.5-2.3-9.3-2.4s16.3-13.1,16.3-13.1l-6.2-7.6l-19.2,14.6l-9.4-1.9l21.4-21.7l-5.8-6.4l-24.8,22.9l-7.7-3.3l25.8-27.5l-3.5-5.3
	l-32.9,26.4l-7.6-7.4c0,0,36.2-28.2,35.9-28.3c-0.2-0.2-4.5-5.1-4.5-5.1l-39.1,23.5l-6-9.8l41.8-22.6l-6.9-6.8l-42.7,17.6L63,460.6
	c0,0,49.3-16.6,49.4-16.9s-3.6-8.1-3.6-8.1l-46.3,11.1l-3.4-9.6l43.2-12.2l1-8.6l-45.1,6.8l-1-14.5l48.9-4.8l3-13.8l-55.2,6
	l-1.1-10.5l61.9-7.9l4.1-7.2l-63.6,1.9l1.7-11.1l68.9-1l8-9.7c0,0-72.5-0.9-72.5-1.1c0-0.2,3.2-10.6,3.2-10.6l75.7-2.1l3.7-6.6
	l-75.6-1.9c0,0,4.7-7.5,4.3-7.5c-0.3,0,77.8-0.6,77.8-0.6l7.8-8.1L75,310.5l8-12l81.3,3l8.1-6.8l-82.5-5.1l5.8-9
	c0,0,82.5,5,83.1,4.3c0.6-0.7,8.1-6.6,8.1-6.6l-80.2-7.4l9.5-8.7l78.1,6.6c0,0,8.2-8.7,5.8-8.2s-70.6-7.1-70.6-7.1l12-8.9l64.4,4.5
	l0.6-6.3c0,0-50.7-8.1-50.3-8.4c0.5-0.3,24-3.7,24-3.7s22.6,1.5,22.8,1.7s22.5,1.7,22.5,1.7l7.2,1.3l-14.8,7.4l13.5,6.3l15.8-6.3
	l8.1,3.4l-12.1,10l6.2,5.8l10.3-7.7l5.1,5.1l-12.1,9.7l5.5,7l11.6-8l6.3,8l-8.9,9.5l3.9,11.3l13.5-13.5l5,10l-11.4,13.2l3.4,9.3
	l11.7-7.7l4.3,9.3l-11.4,8.1l3.2,9l9-8.9l3.4,6.9l-9.3,15.1l2.6,10L303,344v13.5l-2.9,11.8l0.7,8.7l6.9-11.2l-3.5,18l0.2,16.4
	l-0.3,17.3l0.8,7.1"/>
<path fill="none" stroke="#000000" stroke-width="11" stroke-linecap="round" stroke-linejoin="round" stroke-miterlimit="10" stroke-opacity="0" d="
	M304.2,432.1c0,0.3-1.3,10.3-1.3,10.3"/>
<polyline fill="none" stroke="#000000" stroke-width="40" stroke-linecap="round" stroke-linejoin="round" stroke-miterlimit="10" stroke-opacity="0" points="
	232.6,265.3 112.3,383.1 115.3,414.6 254.1,284.8 258.3,306.7 122.4,445.4 128.4,469.2 243.3,359.8 259.1,369.5 150.5,486.7 
	165.9,510 283.5,380.1 284.7,415.8 188.2,523.2 210.9,536.4 281.7,445.4 280,470.9 232.7,541.8 241,546.3 255.2,540 273.1,529.6 
	278.9,487.6 "/>
<polyline fill="none" stroke="#000000" stroke-width="11" stroke-linecap="round" stroke-linejoin="round" stroke-miterlimit="10" stroke-opacity="0" points="
	307.7,606.7 301.3,616 312.9,616.8 315.1,604.3 321.5,598.1 320.3,613.4 318.6,615.2 317,617.5 "/>
<path fill="none" stroke="#000000" stroke-width="11" stroke-linecap="round" stroke-linejoin="round" stroke-miterlimit="10" stroke-opacity="0" d="
	M445.5,326l6.5-0.9l3.8-7.9c0,0-10.4,2.1-10.3,1.6s1.8-6.6,1.8-6.6s8.3-2.7,8.5-3c0.2-0.2,2-6.4,2-6.4l-6.2,1.6l3.4-7l-3.7-9.9
	l-4.6-12.9"/>
<path fill="none" stroke="#000000" stroke-width="14" stroke-linecap="round" stroke-linejoin="round" stroke-miterlimit="10" stroke-opacity="0" d="
	M461.8,214.9l-16.9-5.2l10.3-5.3l-1.8-10.3c0,0-12.3,6.9-12.4,6.4s-1.9-7.1-1.9-7.1l12.8-9.2l-4.5-9.3l-5.5,4.1l-3.8-10.7l6.9-3.5
	l-2.2-9.8l-3.7,1.9l3.2-19.2l1.4-12.7h2.5l-1.3-4"/>
<path fill="none" stroke="#000000" stroke-width="20" stroke-linecap="round" stroke-linejoin="round" stroke-miterlimit="10" stroke-opacity="0" d="
	M443.7,337.3l-6.6,3.5l-1.1,15.6c0,0,18.2-15.3,18-14.8s-3.9,13.2-3.9,13.2l-15.6,12.9l-4.7,12.9l18.5-13.9l-5.7,16.3l-17,11.6
	l-2.6,14.2l21.9-15.5l-6.4,17.7l-19.3,12.1l-5,15c0,0,23.8-15.3,23.5-14.7s-3.6,16.9-3.6,16.9l-24.6,10.5l-4,9.7
	c0,0,26.7-9.7,26.6-9s-1.6,9-1.6,9l-29.6,14.7l-6.9,6l34.8-8.2l-4.8,8.2L386.9,494l-15.9,4.8l41.6-6l-16.1,12.6l-37.9,5l-15.8,8.1
	l44.8-2.1l-10.6,8.1l-46.2,3.7l-13,6.8l49.1-1.1l-14.7,11.3l-45.6-1.8l-17.9,7.1l57.7,2.7l-13.3,10.7l-61-4l-20,9.5l79,6.9l8,5.1
	l-100.6-3.2c0,0-14.4,10.2-14.4,10.6s124,3,124,3l4.1,7.2l-137.7,0.7v12.7l24-4.3h21.2l-38,14.2l8.6,7.5L276,610l15.5-1.1
	l-54.7,37.7l-4.9,12.9c0,0,68.9-45.4,69.4-45.7s15.3-2.7,15.3-2.7l-87.9,62.5l-1.4,14.8l107-78.9l10.7,1.4
	c0,0-105.5,78.6-104.5,78.6s20.9,0,20.9,0l97.1-77.5l8.2,9.7l-85.9,67.8l22.9-2.9l69.9-55.7l5.8,12.6l-62.5,42.3l13.7,1.6l50.3-34
	l-2.7,10.5L345,689.3h19.4l17.9-12.9l5.2,6.9l-5,4.2l10.8,1.8"/>
<path fill="none" stroke="#000000" stroke-width="20" stroke-linecap="round" stroke-linejoin="round" stroke-miterlimit="10" stroke-opacity="0" d="
	M197.6,601.5l-20.3,18.9l-6.2,16.3c0,0,36.9-22.7,38.1-22.8c1.2-0.1,12.5,3.6,12.5,3.6l-47.7,33l-1.7,17.6l59.2-32.1l6.9,12.8
	L172,682.1l0.5,7.3l47.8-16.2l1.8,11.1l-21.8,7.9"/>
<path fill="none" stroke="#000000" stroke-width="20" stroke-linecap="round" stroke-linejoin="round" stroke-miterlimit="10" stroke-opacity="0" d="
	M369,614.6c0.7-0.8,13-3.7,13-3.7h12.8L377,624.6l3.3,12.4l25.4-21.5l9.7,8.5l-27.8,27.1l-0.5,16.1l28.3-26.5l-2.2,21.2L395.3,677
	l5.9,6.9L417,671v18.5l-7,2.8"/>
<path fill="none" stroke="#000000" stroke-width="40" stroke-linecap="round" stroke-linejoin="round" stroke-miterlimit="10" stroke-opacity="0" d="
	M161.3,713l-11.2,11.1l5.1,30.2l37.8-40l24.6-1.3l-62.4,62.9l3.3,29.3l83.4-90.9h26.4l-104,112.5v28.3l135-140.8l29.4-1.3
	L164.3,881.5l9.6,16.1l182.8-183.3h22.6c0,0-178.5,181.8-176.9,181.6c1.6-0.2,28.3-0.2,28.3-0.2L407.2,713l21.9,1.3L261.7,893.8
	l41.9-4.5l136.9-170.1l-3.9,35.1L328.8,891.5l23.1,0.3l81.5-113.4l-2.6,39.3l-50.9,72l16.7,0.1l33.5-43.4l-4.1,36.4l-9,13.1"/>
<path fill="none" stroke="#000000" stroke-width="19" stroke-linecap="round" stroke-linejoin="round" stroke-miterlimit="10" stroke-opacity="0" d="
	M752.5,319.7l10.8-55.6l11.8-25.3l4.4-10.4l-23.7,6.7l6.2-11.6l31.2-0.7l30.3-6l-31.7-7.4l-20.3-11.6l61.4,15.8l22.3-1.6l-63.6-20.4
	l38.3,1.9c0,0-3.3-15.2-2.7-15.1s24.8,1.7,24.8,1.7l-13.6,11.5l6.1,3.5l20.8-10c0,0,17.4-4.8,17.9-4.8s9.7,1.6,9.7,1.6l-34,19.2
	l10.1,10.5l37.2-24.3l13.1,2.4l-37.8,27.1l10.6,6l41.2-29l15.4,1.2l-45.6,33.4l11,9.8l39.1-30.4l6.6,7.9l-35.6,30.4l9.2,6.4
	l34.6-27.3l9.5,9.1l-37.7,27.1l9.7,8.9l37-26.4l5.8,9.5l-34.5,28.3l4.5,12.4l30.3-19l-2.5,13.2l-33.7,20.3l-4.4,15.8l34-18
	l-1.3,15.6l-35.4,16.7l-8.5,14.5l42.2-20.9l-8.9,13.4l-8.4,5.5l-25.3,10l-10.8,15.9l-6.9,10.9l-9.8,5.1l-50.7,3.2l-9,10.2l68-6.9
	l-1.9,10.3l-5.5,31.9L903,452.6l5.2-43.4h-6.8l-18.2,62.6l-15.6,22.5c0,0-10.2,3.8-9.7,2.9c0.5-0.8,31.9-88.1,31.9-88.1l-10.8,1.6
	l-36.2,92.1l-7.9,6l28.8-91.5l-7.6-2l-37,85l-18.3,11.5l43.5-98.8l-18.4,4.2L789,500.1l-7.4,4.7l-5.3-8.3l35.3-82.7l-11.9-4.8
	l-34.8,86.5l-6-11.4l28.1-78.9l-9-2.3c0,0-33,79.8-32.9,79.4s-2.6-17.2-2.6-17.2l29.3-72.8l-4.9-8.9l-33.1,65.5l-2.2-18.8l30.7-57
	l-0.2-14l-32.8,54.7l-1.4-19.8l34.8-41.4c0,0-4.6-9.3-4.3-8.7s-25.6,33.5-25.6,33.5l7.6-25.8l13-15.5l-2.6-3.8l-5.2,7.7"/>
<path fill="none" stroke="#000000" stroke-width="40" stroke-linecap="round" stroke-linejoin="round" stroke-miterlimit="10" stroke-opacity="0" d="
	M874.5,223.6c-1.9,2.3-125.7,30.5-125.7,30.5L734,277.9l164.1-35.6l14.1,11.8l-173.3,53.1l-15.5,10.6l5,21.9l203.3-58l10,9.3
	l-204.9,62.6l25.3,8.5l174.6-44.5l-16.6,33.2L788.7,379l24.5,13.7l164-25.5l1.9,22.7l-53.7,19l-0.6,6.7l37.9-2.1"/>
<polyline fill="none" stroke="#000000" stroke-width="20" stroke-linecap="round" stroke-linejoin="round" stroke-miterlimit="10" stroke-opacity="0" points="
	830.8,515.2 815.1,522.3 792.3,527 777,537.1 770.7,549.1 771.4,535.4 789.8,520.5 768,523 770.4,516.2 762.5,514.1 749.5,497.1 "/>
<path fill="none" stroke="#000000" stroke-width="20" stroke-linecap="round" stroke-linejoin="round" stroke-miterlimit="10" stroke-opacity="0" d="
	M565.4,478c0.5-0.1,8.8-3.3,8.8-3.3l5.2-11.3l-23.1,0.6l-5.8-10.3l31.7-4.7l1.7-14.1l-37.4,7l-5.4-9.1l32.7-7.9l-8.1-8.3l-31,5.4
	l-1.8-8.4l26.6-10.1l-8.7-8.5l-24.6,5.2l-4.3-12l22.5-6.5L534,368.9l-17.9,4.8l-2.3-12.4l14.2-6.6l-4.5-9.1l-14.7,3.3l-2.7-11.2
	l8.7-4.1l-4.8-13.5l-9.3,4.5l-2.3-11.8l11.5-7.2l1.4-12.4l-18.5,5.2l-14.7-3.1l34.3-16.8l-1.3-9.1l-44.7,17.8l-7-11.1l53.3-21.9
	l0.6-8.7l-56.7,12.7l-6.5-12.2l61.3-15.5c0,0,3.9-11.2,1.7-10.6s-70.3,13.7-70.3,13.7l-0.5-12.8l71.5-17.3l1.9-11.5l-45.3,7.1
	l-5.7-12.8l50.5-7.7l1.9-11.4l-56.1,5.2l-4.7-11l58.1-8.6l-4.3-12.2l-56.1,8.3l-0.4-9.4l41.1-12.9l-4.2-9.5c0,0-33.2,7-33.2,6.6
	s1.1-10.6,1.1-10.6l15.7-4.4"/>
<polyline fill="none" stroke="#000000" stroke-width="20" stroke-linecap="round" stroke-linejoin="round" stroke-miterlimit="10" stroke-opacity="0" points="
	943.5,706.4 946.4,738.9 939.5,743.8 938.7,755.4 950.7,748.6 949.9,762.6 937.6,770.8 936.2,778.4 944.8,773.6 933.6,785.9 
	932.1,795.5 930.9,797.6 "/>
<polyline fill="none" stroke="#000000" stroke-width="24" stroke-linecap="round" stroke-linejoin="round" stroke-miterlimit="10" stroke-opacity="0" points="
	589,433.2 596.4,426.7 613.2,438 589,448.6 587.8,459.7 624.2,447.3 632.1,454.7 582.8,480 574.7,492.3 643.9,459.5 660,465.7 
	569.3,501.4 585.4,510.3 671.6,474.8 684,479 595.1,517.5 613.2,524.9 697.5,484 706.2,487.7 721.9,487.4 731.6,472.6 739.4,488.7 
	675.3,511.1 626,531.7 639.4,539.4 747.3,503.5 756.5,511.8 652.1,547.5 669.8,556.8 765.9,526.9 771.4,535.4 687.9,567.8 
	681.4,583.4 856.6,515.4 868.8,521.8 679,598.2 673,614 879.5,534.4 885,551.2 662.7,630 657.3,639.6 891.8,564 898,578.7 
	652.4,656.4 646.3,671.5 902.1,592.3 909.5,607.4 639.9,686.7 660.5,689.6 916.4,619.8 920.8,628.3 704.8,689.6 735.5,688.4 
	926.3,641.4 929.2,651.2 775.8,689.6 838.8,689.6 935.8,664.7 940.8,675.5 877.9,689.6 926.6,690.7 942.2,685.2 "/>
<polyline fill="none" stroke="#000000" stroke-width="24" stroke-linecap="round" stroke-linejoin="round" stroke-miterlimit="10" stroke-opacity="0" points="
	639.4,609.9 633.7,616.5 633.7,629.1 653.6,609.9 635.6,635.2 632.8,663.9 632.8,682.7 "/>
<path fill="none" stroke="#000000" stroke-width="40" stroke-linecap="round" stroke-linejoin="round" stroke-miterlimit="10" stroke-opacity="0" d="
	M641.2,713.8l-18.1,6.8l6.2,21l35.6-27.8l35-1.7l-69.3,43.5l4.8,26.7l89.4-75.3l22.7,2.7l-110.4,89.4l-0.5,16.1L773.8,712l36.1-1.6
	l-169,124.4l1,24.9c0,0,191.8-148.8,192.6-148.8c0.7,0,21.3,1.2,21.3,1.2l-221.1,179l25.4,6.3l223.5-184.3l28.5-1L692.7,894.3
	l30.4-2.9l197.2-166.7l-3.6,27.4L756,895.8l35.5-6.7l122.7-114.6l-10.8,38.2c0,0-84.3,81.1-83.4,81.1s24.4,0,24.4,0l54.4-60.2
	l-3.4,22.2l-21.3,31.4l28.5,2.3l5.6-15.1"/>
<path fill="none" stroke="#000000" stroke-width="100" stroke-linecap="round" stroke-linejoin="round" stroke-miterlimit="10" stroke-opacity="0" d="
	M417,321.7L145.3,533.6l-37.2,83.9l390.2-304.8l60.6-6.4c0,0-504.3,385.4-500.7,388.9c3.5,3.4,5.5,56.9,5.5,56.9l590-430.8
	l49.8,29.3L62.6,814l92.7,1.3l565.3-401.2l21.9,50.9L446.8,700.8l-1.3,85.9l392.9-304.5l46.9,20.4L478.2,824.2l116.8-7.1L891.8,564
	l51.9,78.1l2.7,96.8l4.3,59l-9.9,19.2"/>
</svg>
