<?xml version="1.0" encoding="utf-8"?>
<!-- Generator: Adobe Illustrator 24.3.0, SVG Export Plug-In . SVG Version: 6.00 Build 0)  -->
<svg isCommex="true" version="1.1" id="Layer_1" xmlns="http://www.w3.org/2000/svg" xmlns:xlink="http://www.w3.org/1999/xlink" x="0px" y="0px"
	 width="1126px" height="846px" viewBox="0 0 1126 846" enable-background="new 0 0 1126 846" xml:space="preserve">
<path fill="#A87B5D" d="M978.9,504.4c-39.1-15.1-76.5-8.3-90.8-4.6l-3.1,0.8l3,1.1c14,5.2,34.2,8.1,55.6,8.1c0.7,0,1.4,0,2.1,0
	c12.1-0.1,23.6-1.3,33.1-3.4l3.2-0.7L978.9,504.4z"/>
<path fill="#D3E4F6" d="M1001,491.1c-0.2-2.9-2.4-5.6-6.4-8.2c-16.9-10.8-62.5-14.2-93-10.6c-11.7,1.4-20.9,3.8-26.7,7
	c-3.7,2.1-5.6,4.4-5.6,6.9c0.3,3.5,3,7,7.6,10c1.6,1.1,3.5,2.1,5.1,2.9l0.4,0.2l1-0.5c1.6-0.5,51.1-16.1,100.9,5.6l0.3,0.2l0.4-0.1
	c10-3.3,15.5-7.6,15.8-12.7L1001,491.1L1001,491.1z"/>
<g id="vs-hair">
	<path fill="#808080" d="M641.3,190.1c-1.1-2.6-6-5.5-9.4-6.2c-0.8-0.3-1.4-1.1-1.6-1.9c-0.2-0.8,0.2-1.7,0.8-2.3l0.1-0.1
		c0,0,0.1-0.1,0.1-0.1c2.7-3.1,2.5-5.7,1.9-7.4c-1.4-3.5-10.6-8.7-16.7-11.3c-1.1-0.4-1.7-1.6-1.5-2.8c0.2-1.2,1.2-2.1,2.3-2.1
		c1.1-0.1,4.5-0.6,5.3-2c0.2-0.5,0.2-1.1-0.2-2c-1.5-3.7-12-4.9-18.7-4.5c-1.3,0.1-2.4-0.8-2.6-2.1c-0.2-1.3,0.6-2.5,1.8-2.9
		c1.8-0.5,4.8-1.9,5.2-3.2c0.3-0.6-0.2-1.4-0.5-1.9c-2.6-3.6-18.7-4.5-29.3-4.1c-1.3,0-2.4-0.9-2.6-2.2c-0.2-1.2,0.5-2.4,1.8-2.7
		c2.1-0.5,4.4-1.6,5.5-2.3l0.7-0.4l-0.6-0.4c-4-2.6-20.7-1-31.2,1c-1.2,0.2-2.4-0.4-2.8-1.5c-0.4-1.1-0.1-2.4,0.8-3
		c1.9-1.4,4.4-4,4.3-5.4c0-0.4-0.3-0.6-1-1c-3.9-2.3-17.6,1.8-25.3,5c-1,0.4-2.3,0.1-2.9-0.8c-0.7-0.9-0.7-2.2,0.1-3.1
		c1.8-2.3,3.7-5.1,4.9-7.3l0.5-1l-1.1,0.2c-6.9,1.5-30.4,10.3-35,19.7c-0.3,0.6-0.8,1-1.4,1.3c-0.6,0.2-1.3,0.2-1.9-0.1
		c-1.2-0.6-1.7-2.1-1.2-3.3c2.9-6.4,3.8-9.4,4-10.8l0.1-0.9l-0.8,0.4c-5.1,2.2-24.8,18.6-26.4,32.8c-0.2,1.3-1.2,2.3-2.6,2.3
		c-1.3,0-2.3-1-2.4-2.3c-0.1-1.8-0.3-3.3-0.5-4.3l-0.2-0.8l-0.6,0.5c-0.8,0.7-2,2.2-3.4,4.2c-6,8.6-15.5,26.6-13.3,39.3
		c0.2,1.1-0.4,2.3-1.5,2.7c-1.1,0.4-2.4,0.1-3-0.9c-0.6-0.8-1-1.4-1.4-1.8l-0.4-0.4l-0.4,0.4c-0.9,1.1-2.9,4.7-6.5,16.9
		c-5.3,18.2-3.3,26.6-2.5,28.8l0,0.1c0.5,1.1,0.2,2.4-0.7,3.1c-0.9,0.7-2.1,0.8-3.1,0.1c-0.1-0.1-0.5-0.3-0.9-0.2
		c-0.6,0.2-1.8,1.3-2.8,4.6c-3.1,10-2.4,35.6,5.1,38.4c0.8,0.3,1.4,1.1,1.6,1.9c1,5.5,2.4,9.1,4.1,10.4l0.1,0.1
		c0.2,0.1,0.6,0.3,1.1,0.1c2.8-0.6,3.9-1.6,4.1-1.8c0.7-0.9,1.7-1.2,2.8-0.8c1.1,0.4,1.8,1.6,1.6,2.8c-0.5,3.7,0.1,8,1.2,8.7
		l0.1,0.1h0.2c0.2,0,0.3,0,0.6-0.1c6-1.5,10.9-4.8,11.1-5c0.6-0.5,1.5-0.6,2.4-0.3c0.8,0.2,1.4,0.9,1.6,1.6c1,3.9,3.8,9.5,6.5,9.2
		c5.1-0.6,9.2-4.6,9.4-4.7c0.5-0.5,1.1-0.8,1.7-0.8c0.4,0,0.9,0.1,1.2,0.2c1,0.5,1.5,1.6,1.3,2.7c-0.3,1.8-0.3,4.8,0.8,6.1
		c0.5,0.5,1.4,0.6,2,0.6c0,0,0,0,0,0c5-0.1,5.7-3.6,5.8-3.7c0.2-1,1-1.8,2.1-2c1.1-0.1,2.2,0.5,2.6,1.5c0,0.1,0.3,0.6,0.8,1.2
		c0.5,0.5,1.2,1.1,2.2,1.3c1.2,0.2,2.6-0.3,4.4-1.5l0.4-0.3l-0.3-0.4c-8.1-12.4-6.5-27.7,4.8-47c9.4-15.9,21.7-26.8,32-28.4
		c4.5-0.6,8.4,0.5,11.4,3.2c5.5,5,7.1,12.1,7.4,17.2l0.1,1.4l0.8-1.2c2-2.9,4.9-8.5,7.7-19c6-23,10.4-37,23.6-37.2
		c6.2,0,15.7,1.9,23.3,3.4c7.9,1.6,15.2,3,18.9,2.8c0.3,0,2.6,0,3.3-1.2c0.8-1,0.4-2.8,0.2-3.4c-0.3-0.7-0.2-1.5,0.3-2.2
		c0.4-0.7,1.1-1.1,1.8-1.2c2.2-0.3,5.2-1.2,6.1-2l0.2-0.2L641.3,190.1z"/>
</g>
<g id="vs-skin">
	<path fill="#D3A37F" d="M437,512.2l-0.8-1.7l-1,1.6c-3.9,6.4-11.5,20.2-19.2,40.4l-0.5,1.3l1.3,0.1c0.7,0,1.7,0.1,3,0.1
		c5.5,0,16.4-0.9,30.1-6.4l0.9-0.4l-0.3-0.9C446.9,535.5,442.2,523.7,437,512.2z"/>
	<path fill="#D3A37F" d="M607.4,430.9c-16.9,3.8-29.9,21.9-31.1,23.6l0,0c-0.4,0.5-0.8,0.8-1.3,0.9c-0.6,0.1-1.1-0.1-1.6-0.4
		c-0.4-0.3-8.8-6.7-17.9-7.7l-0.4,0c-4.7-0.5-11-1.2-17.6,2.3c-6,3.2-11.2,9.6-15.2,18.9c-8.8,20.1-11.9,25.4-12.9,26.4l-0.6,0.6
		l0.4,0.7c4.6,7.5,10.2,16.1,16.9,25.6c0.3,0.4,0.5,0.7,0.6,0.8c0,0,0,0,0,0v1.5l1.5-0.9c16.2-9.3,23.6-11,26.9-10.7
		c7.6,0.6,18.7,10.1,22.3,13.7l0.7,0.7l0.5-0.1c17.3-4.2,29.7-8.7,36.9-13.4l0.6-0.4l-0.2-0.7c-1-3-1.8-6.3-2.3-9.6l-0.1-0.9h-0.9
		c-1.7,0-4.9,0.5-7.2,0.9c-4.1,0.7-8,1.4-11.5,1.4c-3.7,0-6.2-0.7-7.8-2.2c-6.4-6-0.8-26.3,8.3-37.6c7.4-9.3,16.9-8.1,24.6-7.1
		l0.1,0c0.3,0.1,0.7,0.1,1,0.1c0.3,0,0.5,0,0.9,0.1c1.5,0.2,3.1,0.3,4.4,0.3c5.5,0,9.4-4.3,10.9-11.7c0.3-1.7,0.5-3.3,0.5-4.8
		c0.1-2.7-1.1-5.2-3.5-7.1c-3.6-2.9-9.2-4.4-15.8-4.2C614.2,429.7,610.8,430.1,607.4,430.9z"/>
	<path fill="#D3A37F" d="M714.2,447.7c-3.9-6.6-11.4-11-20.7-12.3c-19.8-2.7-30.8,7.3-39,17.4l-0.2,0.2c-4.1,5.4-9.3,12.5-11.3,15.3
		c-2.2,3.1-4.1,5.9-5.3,7.7c-0.7,1-1.2,1.7-1.3,1.9l-0.1,0.1c-0.7,0.9-1.9,1.2-2.8,0.6c-0.9-0.7-1.2-1.9-0.5-2.9
		c0.1-0.1,0.3-0.5,0.7-1c0.4-0.6,1.1-1.5,1.8-2.6l1.5-2.2l-2.5,0.7c-6.1,1.6-10.6,4.6-13.4,8.9c-3.3,5-4.5,12.1-3.5,20.6
		c0.5,4.1,1.5,8.5,3,13.2c0.3,0.8,0,1.7-0.7,2.2c-7.7,5.9-22,11.2-42.7,15.9c-23.1,5.2-46.7,8-53.3,8.8l-1,0l-0.3,0.6
		c-2.5,6.1-7.3,14.8-16.1,21.7c-5,3.9-10.8,6.7-17.1,8.4l-0.7,0.2v0.8c0,0.1-0.1,0.4-0.1,0.6c-0.3,0.9-2.4,8.3-2.7,9.6
		c-0.1,0.3-0.1,0.6-0.3,0.8l-0.7,0.7l0.4,0.7c5,8,10.6,13.7,16.4,17.1c4.7,2.7,8.1,4.2,11.5,5c2,0.5,4,0.7,6,0.7
		c8.7,0,18.6-4.3,33.6-14.1c14.7-9.7,39.6-25,61.8-38.5c9-5.4,16.7-10.1,21.4-12.9c3.6-2.2,4.9-3,5-3c0.9-0.6,2.1-0.3,2.7,0.7
		c0.5,0.8,0.4,1.7-0.3,2.4l-1.4,1.6l2.2,0.1c3.1,0.1,8.4,0.1,15.8-0.3c14-0.8,34.2-6.7,35-6.9l0.5-0.1l0.2-0.5c0.5-1.5,3-9.7,2.7-24
		c-0.1-2-0.2-4.1-0.5-6.1c-1-7-3.4-13-7.6-19.1L690,486c-2.8-3.9-6.5-7.9-11.9-12.9c-0.7-0.6-0.9-1.5-0.5-2.3
		c5.9-12.5,18.4-6.9,24.4-4.3l0.2,0.1c0.7,0.3,1.3,0.6,1.8,0.8c1.1,0.4,2.4,0.6,3.9,0.5l0.2,0c0.7-0.2,1.5-0.4,2.5-0.8
		c2.9-1.4,5-3.7,6-6.8C717.5,457.5,717.1,452.5,714.2,447.7z"/>
	<path fill="#D3A37F" d="M539.2,332.9c1.8-3.2,3.3-6.3,4.5-9.1l0.1-0.3c0.2-0.5,0.6-0.8,1.1-1c0.5-0.2,1.1-0.2,1.5,0
		c0.5,0.2,0.8,0.6,1,1.1c0.2,0.5,0.2,1.1,0,1.6c-0.1,0.2-1.4,3.2-3.9,8.2l-0.2,0.4l0.1,0.4c0.5,1.3,2.1,4.7,6.9,7.6
		c5.8,3.5,14,5.1,24.4,4.7c9.6-0.4,17.3-4.9,23.1-13.3c8.9-12.9,10.1-30.9,8.2-36.6c-2.4-7-17.7-13.4-26.5-16l-0.8-0.2l-0.4,0.8
		c-0.6,1.3-1.2,2.7-1.6,4c-0.3,0.8-1,1.3-1.9,1.3c-0.2,0-0.4-0.1-0.7-0.2c-0.5-0.2-0.9-0.5-1.1-1c-0.2-0.5-0.3-1-0.1-1.5
		c0.8-2.2,1.8-4.5,2.9-6.6c0-0.1,0.1-0.1,0.1-0.1c0.1-0.1,0.1-0.2,0.2-0.3c5.2-9.5,13.4-17.1,20.7-23.8l0.2-0.1
		c4.4-4,8.6-7.9,12-11.9c9.1-10.8,12-29.8,12.6-35.4l0.1-1l-1-0.1c-3.4-0.5-7.2-1.3-10.9-2.1L609,202c-8-1.5-16.3-3.2-21.5-3.1
		c-9.4,0.1-13.3,10.9-19.4,33.8c-2.6,9.9-5.8,17.3-9.6,21.9c-3,3.7-5.2,4.3-5.6,4.4c-0.4,0.1-1.2,0.1-1.9-0.5
		c-0.4-0.4-0.6-1-0.6-1.8c0.2-2.3,1.1-13.9-5.9-20.3c-2-1.8-4.6-2.5-7.7-2c-9,1.4-20.3,11.6-28.8,26.2
		c-11.1,18.6-12.2,33.1-3.4,44.2c0.9,1.1,1.9,2.3,3.1,3.4c2.8,2.8,5.8,4.1,8.6,3.8c4-0.5,7.3-4.7,8.6-6.8c0.3-0.5,0.7-0.8,1.2-1
		c0.5-0.1,1.1-0.1,1.5,0.2c0.5,0.3,0.8,0.7,1,1.2c0.1,0.5,0.1,1.1-0.1,1.5l-0.1,0.1c-1.1,1.8-5.2,7.8-11.5,8.7
		c-0.5,0.1-1.1,0.1-1.6,0.1c-3.5,0-7-1.7-10.5-5c-0.4-0.3-0.7-0.7-1-1c-0.2-0.2-0.3-0.4-0.5-0.5l-0.6-0.6l-0.7,0.5
		c-2.9,2.1-5.5,2.9-8.2,2.3c-1.5-0.3-2.5-0.9-3.1-1.4l-0.7-0.5l-0.6,0.6c-2.1,2.1-4.7,3.1-7.9,3.2c-2.3,0.1-4.2-0.7-5.5-2.2
		c-0.9-1-1.5-2.3-1.8-3.9l-0.3-1.4l-1.2,0.7c-2.4,1.4-4.9,2.2-7.2,2.5c-5.5,0.7-8.8-5.3-10.3-8.9l-0.4-1.1l-1,0.6
		c-1.4,0.8-5,2.7-9.3,3.7c-2,0.4-3.7,0.1-4.9-1.1c-2-1.7-2.6-4.9-2.8-7.2l-0.1-1.4l-1.3,0.5c-0.5,0.2-1.1,0.4-1.5,0.4
		c-1.7,0.4-3.3,0.1-4.6-0.8c-1.4-1-2.6-2.6-3.7-5l-1.2-2.6l-0.7,2.8c-4.2,16.2-17.5,27.3-23,31.3l-2.5,1.8h3.1
		c15.5,4.1,31,14.4,45,30l0.7,0.8l9.9-9.8c0.3-0.4,0.8-0.6,1.3-0.6c0.6,0,1.1,0.2,1.5,0.6c0.4,0.3,0.6,0.8,0.6,1.3
		c0,0.5-0.2,1.1-0.6,1.5l-10,9.9l0.6,0.7c5.8,7.1,11,14.6,15.3,22.2l0.2,0.4l0.4,0.1c4,1,7.9,1.5,11.7,1.5
		C509.2,381,530.8,348.2,539.2,332.9z M539.2,263.6L539.2,263.6c-5.3,7.6-15.4,23.5-15.6,29.7c0,0.7-0.7,1.4-1.5,1.4l0,0
		c-0.9-0.1-1.5-0.7-1.5-1.6c0.2-6.3,8.5-20.3,16.1-31.2c0.3-0.4,0.8-0.6,1.3-0.6c0.3,0,0.6,0.1,0.8,0.3
		C539.5,262,539.7,263,539.2,263.6z"/>
</g>
<path fill="none" stroke="#000000" stroke-width="5" stroke-linecap="round" stroke-linejoin="round" stroke-miterlimit="10" d="
	M538,262.8c0,0-15.6,22.2-15.9,30.4"/>
<path fill="none" stroke="#000000" stroke-width="6" stroke-linecap="round" stroke-linejoin="round" stroke-miterlimit="10" d="
	M623.6,205.3c0,0-2.3,24-13.1,36.8c-10.9,12.8-29.4,23.8-35.6,42.3"/>
<path fill="none" stroke="#000000" stroke-width="6" stroke-linecap="round" stroke-linejoin="round" stroke-miterlimit="10" d="
	M577.6,278c0,0,26.6,7.2,30.2,18c3.7,10.8-2.8,51.4-33.1,52.5c-30.2,1.1-33.6-14.7-33.6-14.7"/>
<path fill="none" stroke="#000000" stroke-width="6" stroke-linecap="round" stroke-linejoin="round" stroke-miterlimit="10" d="
	M545.6,324.3c0,0-29.4,70.4-80.3,57.1"/>
<line fill="none" stroke="#000000" stroke-width="6" stroke-linecap="round" stroke-linejoin="round" stroke-miterlimit="10" x1="447.9" y1="355.1" x2="458.3" y2="344.8"/>
<path fill="none" stroke="#000000" stroke-width="6" stroke-linecap="round" stroke-linejoin="round" stroke-miterlimit="10" d="
	M396.3,321.1c0,0,22.6-13.8,26.3-35.9"/>
<path fill="none" stroke="#000000" stroke-width="6" stroke-linecap="round" stroke-linejoin="round" stroke-miterlimit="10" d="
	M526.7,306.2c0,0-8.4,15.1-20.3,3.5c-1.2-1.2-2.3-2.4-3.3-3.6c-8.8-11.2-8.9-26,3.3-46.5c13.5-22.8,31-32.4,39.6-24.6
	s6.6,22.2,6.6,22.2s7.5-1.7,13.6-24.8c6.1-23.2,10.2-35.2,21.2-35.3c11.1-0.2,33.9,6.6,42.3,6.1c8.4-0.5,5.7-7.9,5.7-7.9
	s10-1.1,8.3-5.8s-10.6-8.2-10.6-8.2s5-4.4,2.8-10.4c-2.3-6-18-12.7-18-12.7s10.3-0.4,7.4-7.4c-2.9-7-21.2-6-21.2-6s10.6-2.8,6-8.9
	s-31.4-5-31.4-5s12.8-3.2,6.3-7.6c-6.4-4.4-33.1,0.6-33.1,0.6s9.6-7,3.1-10.7c-6.6-3.7-27.5,4.9-27.5,4.9s8.8-10.9,5.4-12.2
	c-3.4-1.3-34.5,9.6-40.3,21.2c5.6-12.2,5.4-15.1,1.6-15.1s-27.5,18.8-29.4,35.2c-0.6-9.7-3.4-10.1-9.3-1.6s-16.1,27.4-13.6,41.2
	c-3.7-5.5-6.5-6.8-13.1,15.8c-6.5,22.6-2.3,30.7-2.3,30.7s-4.7-3.7-7.7,5.7s-3.3,37.7,6.5,41.5c1.6,8.8,4.2,13.5,8.3,12.6
	c4-0.9,5.4-2.6,5.4-2.6s-1.4,13,5.2,11.4s12-5.3,12-5.3s3.1,11.8,9.3,11c6.2-0.7,10.9-5.4,10.9-5.4s-1.8,9.9,5.3,9.7
	c7.2-0.2,8.2-5.7,8.2-5.7s3.8,8.6,12.7,0.7"/>
<path fill="none" stroke="#000000" stroke-width="6" stroke-linecap="round" stroke-linejoin="round" stroke-miterlimit="10" d="
	M243.2,422c0,0,15.1-28.7,51.1-58.5s75.9-47.2,106.4-39.2s55.7,39.4,67.6,64.4s26.4,86.4,35.1,101.8c8.7,15.4,21.4,33.2,21.4,33.2
	s-5.2,55.2-64.8,46.2c-8.3-32.6-27.8-75.8-38.7-91.7"/>
<path fill="none" stroke="#000000" stroke-width="6" stroke-linecap="round" stroke-linejoin="round" stroke-miterlimit="10" d="
	M436.1,506.9c0,0-41.8,60.4-41.8,155.4"/>
<path fill="none" stroke="#000000" stroke-width="6" stroke-linecap="round" stroke-linejoin="round" stroke-miterlimit="10" d="
	M523.1,538c0,0,73.1-7.6,95.2-24.3c-7.1-22-4.6-43.3,20.4-46.1"/>
<path fill="none" stroke="#000000" stroke-width="6" stroke-linecap="round" stroke-linejoin="round" stroke-miterlimit="10" d="
	M634.2,476.8c0,0,11.1-16.3,18.2-25.1c7.1-8.8,18.8-21.2,40.9-18.2s27.6,20.3,25,27.5s-9.9,10.3-15.1,8.1c-5.3-2.2-18-9.7-23.8,2.4
	c13.4,12.3,20.2,22.7,20.6,39.7c0.5,17-3.2,26.1-3.2,26.1s-22,6.6-37,7.5s-21.6,0-21.6,0"/>
<path fill="none" stroke="#000000" stroke-width="6" stroke-linecap="round" stroke-linejoin="round" stroke-miterlimit="10" d="
	M641.7,540.1c0,0-61.2,36.7-88.1,54.3c-26.8,17.7-37.7,17.5-53.1,8.5s-23.7-30.4-23.7-30.4"/>
<path fill="none" stroke="#000000" stroke-width="6" stroke-linecap="round" stroke-linejoin="round" stroke-miterlimit="10" d="
	M483.6,581.6c-0.1,0.2,2.6-9.7,2.8-10.1c0.2-0.4-4.9,0.3-4.9,0.3l-0.1,3.4c0,0,0.9,1.3,1.1,0.6c0.3-0.7,0.3-2.3,0.3-2.3"/>
<polyline fill="none" stroke="#000000" stroke-width="6" stroke-linecap="round" stroke-linejoin="round" stroke-miterlimit="10" points="
	512,609.4 500,613.3 502.3,605.7 506,609.2 504.3,611 502.4,609.8 503,608.6 "/>
<path fill="none" stroke="#000000" stroke-width="6" stroke-linecap="round" stroke-linejoin="round" stroke-miterlimit="10" d="
	M415.2,555.6c0,0,15.3,2.2,37.3-7"/>
<path fill="none" stroke="#000000" stroke-width="6" stroke-linecap="round" stroke-linejoin="round" stroke-miterlimit="10" d="
	M507.8,493.3c0,0,1.8-1.4,12.5-25.7s25.5-23.5,35.3-22.4s18.9,8.2,18.9,8.2s13.8-20.2,32.3-24.4c18.6-4.2,32.1,2.1,31.9,12
	c-0.2,10-4.7,18.5-13.4,18.5s-20.6-5.2-29.4,5.8c-8.7,11-13.6,30.2-8.5,35s24.8-2.5,27.4-0.1"/>
<path fill="none" stroke="#000000" stroke-width="6" stroke-linecap="round" stroke-linejoin="round" stroke-miterlimit="10" d="
	M524.2,527.6c0,0,22.2-13.9,30.5-13.2s21.1,13.2,21.1,13.2"/>
<line fill="none" stroke="#000000" stroke-width="6" stroke-linecap="round" stroke-linejoin="round" stroke-miterlimit="10" x1="169.9" y1="618.3" x2="147.8" y2="495.4"/>
<line fill="none" stroke="#000000" stroke-width="6" stroke-linecap="round" stroke-linejoin="round" stroke-miterlimit="10" x1="183.2" y1="627.9" x2="178" y2="594.3"/>
<line fill="none" stroke="#000000" stroke-width="6" stroke-linecap="round" stroke-linejoin="round" stroke-miterlimit="10" x1="163.1" y1="501.1" x2="176.1" y2="577.2"/>
<path fill="none" stroke="#000000" stroke-width="6" stroke-linecap="round" stroke-linejoin="round" stroke-miterlimit="10" d="
	M310.2,601.2c0,0-36-1.4-78.3-9.4s-54.6-12.3-54.6-12.3s-5.1,0-3.6,5.7s8.9,8.6,8.9,8.6s88.8,19,129,19.7"/>
<line fill="none" stroke="#000000" stroke-width="6" stroke-linecap="round" stroke-linejoin="round" stroke-miterlimit="10" x1="320.7" y1="662.3" x2="298.9" y2="520.1"/>
<line fill="none" stroke="#000000" stroke-width="6" stroke-linecap="round" stroke-linejoin="round" stroke-miterlimit="10" x1="335.8" y1="663" x2="314.9" y2="520.6"/>
<path fill="none" stroke="#000000" stroke-width="6" stroke-linecap="round" stroke-linejoin="round" stroke-miterlimit="10" d="
	M226.2,510.9c0,0-53.9-7.1-71-14.3s-32.2-24.4-35.4-45.2c-3.2-20.8,14.7-39.6,37-38.5c22.4,1,93,11.8,113.8,13.6
	c20.9,1.8,47,1.5,55.3,6.6c8.3,5.2,29.5,15.6,25.7,44.9c-3.8,29.4-29,41.6-41.8,42C297.1,520.5,226.2,510.9,226.2,510.9z"/>
<line fill="none" stroke="#000000" stroke-width="6" stroke-linecap="round" stroke-linejoin="round" stroke-miterlimit="10" x1="301.8" y1="522.5" x2="313.3" y2="523.8"/>
<line fill="none" stroke="#000000" stroke-width="6" stroke-linecap="round" stroke-linejoin="round" stroke-miterlimit="10" x1="152.9" y1="499.8" x2="160.8" y2="502"/>
<path fill="none" stroke="#000000" stroke-width="6" stroke-linecap="round" stroke-linejoin="round" stroke-miterlimit="10" d="
	M200.5,507.2c0,0-11.2,25.2-15.2,73.7"/>
<path fill="none" stroke="#000000" stroke-width="6" stroke-linecap="round" stroke-linejoin="round" stroke-miterlimit="10" d="
	M183.1,595.2c0,0-1.8,18-0.9,25.2"/>
<line fill="none" stroke="#000000" stroke-width="6" stroke-linecap="round" stroke-linejoin="round" stroke-miterlimit="10" x1="491.3" y1="450.6" x2="536.6" y2="447.7"/>
<path fill="none" stroke="#000000" stroke-width="6" stroke-linecap="round" stroke-linejoin="round" stroke-miterlimit="10" d="
	M599.5,429.8l64.7-137.2c0,0,0.8-9.2,18.8-6.4s193.9,44.3,193.9,44.3s27.3,6.3,24.1,19.6s-77.8,175.1-77.8,175.1"/>
<line fill="none" stroke="#000000" stroke-width="6" stroke-linecap="round" stroke-linejoin="round" stroke-miterlimit="10" x1="620.7" y1="459.5" x2="640.4" y2="466.5"/>
<path fill="none" stroke="#000000" stroke-width="6" stroke-linecap="round" stroke-linejoin="round" stroke-miterlimit="10" d="
	M691.6,484.8l130.2,42.1c0,0,3.7,2.6,2,9.3c-1.8,6.7-2.7,6.9-2.7,6.9S709,617.6,690.7,621.2c-18.3,3.7-115.6-39.1-115.6-39.1"/>
<path fill="none" stroke="#000000" stroke-width="5" stroke-linecap="round" stroke-linejoin="round" stroke-miterlimit="10" d="
	M822.7,530.9c0,0-1-2.3-14.6,5.2S695.8,603,692.4,607.5c-3.4,4.5-4.7,9.5-2.1,12.7"/>
<path fill="none" stroke="#000000" stroke-width="6" stroke-linecap="round" stroke-linejoin="round" stroke-miterlimit="10" d="
	M590,588.5c0,0-4.1-9.2,6.4-17.6c10.4-8.4,19.1-15,19.1-15l-28.8,20.6l-0.8,0.3l-1.4,0.6l-1.7,2.2c0,0-1.6,0.9-1.3,1.1
	s3.1,2.1,3.1,2.1l1.8-4.4"/>
<path fill="none" stroke="#000000" stroke-width="5" stroke-linecap="round" stroke-linejoin="round" stroke-miterlimit="10" d="
	M630.1,548.8c0,0,66.2,19,66.2,19.7s73.3-41,73.3-40.7s-69-23.2-69-23.2"/>
<path fill="none" stroke="#000000" stroke-width="5" stroke-linecap="round" stroke-linejoin="round" stroke-miterlimit="10" d="
	M638.2,446c0.4-0.1,13.9,5.6,13.9,5.6"/>
<path fill="none" stroke="#000000" stroke-width="5" stroke-linecap="round" stroke-linejoin="round" stroke-miterlimit="10" d="
	M708.3,470c0,0,93.1,33,98,33.5s7.6-0.6,11-6.6s59-133.9,59-133.9s7.6-12.8-0.7-15.7s-193-45.6-193-45.6s-7.1-2-9.2,1.7
	c-2.1,3.7-56.2,123.1-56.2,123.1"/>
<line fill="none" stroke="#000000" stroke-width="6" stroke-linecap="round" stroke-linejoin="round" stroke-miterlimit="10" x1="854" y1="457.9" x2="901.3" y2="468.1"/>
<path fill="none" stroke="#000000" stroke-width="6" stroke-linecap="round" stroke-linejoin="round" stroke-miterlimit="10" d="
	M867.4,486.4c2.9,30.7,133.5,34.5,135.6,5.8C1005.1,463.5,866.9,461.2,867.4,486.4z"/>
<path fill="none" stroke="#000000" stroke-width="4" stroke-linecap="round" stroke-linejoin="round" stroke-miterlimit="10" d="
	M883.8,499.9c0,0,50.9-16.9,102.3,6.4"/>
<path fill="none" stroke="#000000" stroke-width="6" stroke-linecap="round" stroke-linejoin="round" stroke-miterlimit="10" d="
	M875.9,498.1c0,0-22.8-3.2-25.8,15.6s1.1,31,17.3,33.5s19.4-7.6,16.4-11.6s-15.9-4.4-12.4-12.9c3.6-8.4,18.5-5.5,11.2-21"/>
<path fill="none" stroke="#000000" stroke-width="6" stroke-linecap="round" stroke-linejoin="round" stroke-miterlimit="10" d="
	M1003.6,491.2c0,0,6.1,21.6-7.2,47.2s-44.9,34.4-72.7,30.2c-27.7-4.2-42.2-11.6-48.6-19.7"/>
<path fill="none" stroke="#000000" stroke-width="6" stroke-linecap="round" stroke-linejoin="round" stroke-miterlimit="10" d="
	M996.8,540.8c0,0,26,6.2,25.2,21.2c-0.8,15.1-44.9,28.1-92.3,25.7S851,575,846.1,559.3c-2.1-11.8,13.3-14.6,13.3-14.6"/>
<path fill="none" stroke="#000000" stroke-width="6" stroke-linecap="round" stroke-linejoin="round" stroke-miterlimit="10" d="
	M926.8,451.5c0,0,24.8,2.1,24.6-12.5c-0.1-14.6-24.1-6.1-24.1-20.4s29.2-2.4,29.7-18.3s-18.5,0.6-22.4-14s14.4-3.8,14.3-14
	c-0.1-10.2-6-12.8-6-12.8"/>
<path fill="none" stroke="#000000" stroke-width="6" stroke-linecap="round" stroke-linejoin="round" stroke-miterlimit="10" d="
	M1006.5,503.4c0,0,46.2,19.6,43.6,50.6s-72.7,87.9-350.3,90.6c-227.4-5.5-301.2-35.1-301.2-35.1"/>
<path fill="none" stroke="#000000" stroke-width="6" stroke-linecap="round" stroke-linejoin="round" stroke-miterlimit="10" d="
	M396.9,644.6c0,0,86.1,34.2,310.1,35.5s330.2-55.7,336.6-71.3s6.7-56.9,6.7-56.9"/>
<line fill="none" stroke="#000000" stroke-width="6" stroke-linecap="round" stroke-linejoin="round" stroke-miterlimit="10" x1="1000.5" y1="637.4" x2="999.3" y2="670.8"/>
<line fill="none" stroke="#000000" stroke-width="6" stroke-linecap="round" stroke-linejoin="round" stroke-miterlimit="10" x1="957.3" y1="651.6" x2="957.7" y2="680.2"/>
<line fill="none" stroke="#000000" stroke-width="6" stroke-linecap="round" stroke-linejoin="round" stroke-miterlimit="10" x1="516.6" y1="670.2" x2="517.3" y2="698.6"/>
<line fill="none" stroke="#000000" stroke-width="6" stroke-linecap="round" stroke-linejoin="round" stroke-miterlimit="10" x1="461.3" y1="662.3" x2="462.4" y2="688.4"/>
<path fill="none" stroke="#000000" stroke-width="21" stroke-linecap="round" stroke-linejoin="round" stroke-miterlimit="10" stroke-opacity="0" d="
	M426.4,244.5c0,0-0.9,15.6,3.6,24.6c4.5,9.1,8.9,14.2,8.9,14.2l7.2,6.1l15.8,0.5l4.2,7.8l9.5-5.4l7.7,8.3l7.2-1.5
	c0,0-5.3-14.8-3.7-21.2c1.6-6.4,11.7-26.8,21.6-40.4c9.9-13.5,27.6-17.3,27.6-17.3s5.8,0.1,6.5,0.7s5.2,2.8,5.7,3.2
	c0.6,0.5,6.2,5,6.2,5l2.2,11.4c0,0,1.4-19.1,1.4-23.8s8.1-20.5,8.1-20.5s3.6-5.6,4.5-6c0.9-0.3,5.6-0.7,6.5-0.8s28-2.2,28-2.2
	l11.5,3.1c0,0,10.4,0.8,10.9,1.1s3.8-1.4,3.8-1.4s-1.3-9.9-1.7-13.3c-0.5-3.4-3.9-11.3-3.9-11.3l-41.6-32c0,0-30.1-15.7-32.1-14
	s-27-3.5-27-3.5s-31.3,8.2-32.6,10.9c-1.3,2.7-12,5.9-15.6,6.6s-19,13.5-19,13.5s-18.6,24.3-19.6,28.5c-0.9,4.1-6.4,48.2-6.4,48.2
	s-2.3,5.5-1.4,15.6s-0.5,7.8,1.8,18.3c2.3,10.5,11,20.4,11,20.4l28.9,3.9l4.1-6.9l-28.4-12.2l-9.2-17.9l43.6,15.4l6-11.9L443.3,229
	l-3.7-15.4l56.4,17.2l6.2-4.8l-55.7-26.2v-8.7c0,0,71.8,29.1,71.8,28.4s7.8-7.1,7.8-7.1l-73.6-37.8l7.1-9.9l86,42.4l7.1-9.6
	L470.6,153l18.8-5.3l75.7,38.3l11.5-5.7l-73.8-45.4l14.2-5.3c0,0,71.3,39.7,72,40.1c0.7,0.5,25.9,5.7,25.9,5.7S559,143.5,559,142.8
	s-21-12.5-21-12.5s10.3-6.5,11.1-5.5c0.7,1,31.6,11.4,31.6,11.4l28.1,5l10.6,71.3l-37.3-12.7l-2.1,5.3l35.6,21.1l-6.8,7.7l-34-15.8
	l-1.9,11.9l28.7,13.3l-7.6,8.5l-30.7-10.7l16.8,21.4l-5,5.6l-40.4-27.5l-15,8.9l87.3,50.9l0.2,7.9l-90.6-44.4c0,0-6.2,11.2-6.9,11.5
	c-0.7,0.2,92.9,48.6,92.9,48.6l-5.5,8.3l-95.4-44.5l5.2,17.8l78.7,39l-37.9-2.6l-77.3-39.8l-45.1-14.6l-2.7,10.1L527,348.5l-6.9,9.7
	L414.4,304l-1.5,9.2l96.1,55.2l-19.6,7.6l-59.9-36.8L403,319.8l74,63.2"/>
<path fill="none" stroke="#000000" stroke-width="21" stroke-linecap="round" stroke-linejoin="round" stroke-miterlimit="10" stroke-opacity="0" d="
	M430.9,515.4l13.3,10.3l-0.9,7l-13.6-8.6l-4.4,6.7l23.7,13.8l-9.6,7.4l-17.8-10.6c0,0-3.3,5.3-3.5,5.7c-0.2,0.5,6.6,4.9,6.6,4.9"/>
<path fill="none" stroke="#000000" stroke-width="21" stroke-linecap="round" stroke-linejoin="round" stroke-miterlimit="10" stroke-opacity="0" d="
	M610.9,431.2c0.6-0.1,21.4,8.5,21.4,8.5l-4.7,10.9L596.4,436l-7.5,7.5c0,0,23.7,11.8,23.1,11.8s-13.4,5.1-13.4,5.1l-17.6-7.5
	l-5.8,0.2l13.3,13.4l-4.1,6.3c0,0-30.7-18.2-31.3-18.5s-19-2.3-19-2.3l-6.2,8l51.3,26.1L594,502l9.5,4l4.1,3.4l-14.2,5L530,473.9
	l-8.9,5.5l60.7,39.9l-26-6.4c0,0-41-25.9-41.2-25.5s-2.1,7.5-2.1,7.5l24.1,16.8l-5.9,5.8l-7.5-4.3"/>
<path fill="none" stroke="#000000" stroke-width="21" stroke-linecap="round" stroke-linejoin="round" stroke-miterlimit="10" stroke-opacity="0" d="
	M678.4,433.8l33.7,21.8l-3.1,3.8l-42.5-20.9l-1.9,7.4l19.6,13.5l-7,6.2l-24.8-13.9l41.1,42.6l0.5,18.3l-41.6-42.8l-7.3,7
	c0,0,47.4,46.9,47.4,48.4s-1.2,7.6-1.2,7.6L630.1,479l-7.3,5.8l53.8,51.8l-16.2,3.5l-37.6-36.7l-1.7,9.4l19.3,28l-8.1,2.6L614,525.1
	l-9.2,0.6l15.8,23.5l-9.2,5.6l-18.2-21.2H581c0,0,12.8,19.7,13.5,21.2c0.6,1.4-7.3,9.7-7.3,9.7l-20.5-28h-15.3l23.8,35.6l-2.3,4.3
	L536.6,538l19.6,46.6c0,0-2.8,0.2-4.3,0s-24.5-39.5-24.5-39.5s-15-2-15.5,0c-0.4,2,29.3,43.4,29.3,43.4s-2.6,3.5-4.7,5.1
	c-2.1,1.5-24.1-30-24.1-30l-13.3,0.9l25.6,36.7l-10.9-1.2l-24.4-34.2c0,0,5.5,11.6,5.5,12.5s3.1,7,3.7,10.2s4.9,12.7,4.9,12.7"/>
<path fill="none" stroke="#000000" stroke-width="21" stroke-linecap="round" stroke-linejoin="round" stroke-miterlimit="10" stroke-opacity="0" d="
	M874.4,487.8c0,0,15-12.2,41.3-13.8s70.5,12.8,70.4,13s9.1,7,9.1,7l-7.2,3.1c0,0-27.4-11.5-42.8-13.2c-15.4-1.7-35.8,2.8-39,2.9
	c-3.2,0.2-23.5,4-24.2,4.4c-0.6,0.4-6.3,9-6.3,9l14.5,3.2c0,0,3.2-3.2,11.6-3.2c8.4,0,12.4-4,25.7-2.3s18.8,2.2,26.9,2.3
	c8.1,0.1,10.2,0.8,16.7,2.2c6.4,1.4,13.5-3.6,8.3,2.3c-5.2,6-11.6,4.3-24.9,5.7s-29.4-0.8-29.4-0.8l-11.2-0.9"/>
</svg>
