<?xml version="1.0" encoding="utf-8"?>
<!-- Generator: Adobe Illustrator 17.1.0, SVG Export Plug-In . SVG Version: 6.00 Build 0)  -->
<!DOCTYPE svg PUBLIC "-//W3C//DTD SVG 1.1//EN" "http://www.w3.org/Graphics/SVG/1.1/DTD/svg11.dtd">
<svg isCommex="true" version="1.1" id="Layer_2" xmlns="http://www.w3.org/2000/svg" xmlns:xlink="http://www.w3.org/1999/xlink" x="0px" y="0px"
	 width="900px" height="1008px" viewBox="0 0 900 1008" enable-background="new 0 0 900 1008" xml:space="preserve">
<path fill="none" stroke="#000000" stroke-width="6" stroke-linecap="round" stroke-linejoin="round" stroke-miterlimit="10" d="
	M434,252.7c0,0-24,20.7,0.7,35.3s47.8-15.9,40.7-29.3c-6-11.3-18-16.7-18-16.7"/>
<path fill="none" stroke="#000000" stroke-width="6" stroke-linecap="round" stroke-linejoin="round" stroke-miterlimit="10" d="
	M434.7,288"/>
<path fill="none" stroke="#000000" stroke-width="5" stroke-linecap="round" stroke-linejoin="round" stroke-miterlimit="10" d="
	M479,299l3.5,3c0,0-6,19-30.5,22s-33-18.5-33-18.5"/>
<path fill="none" stroke="#000000" stroke-width="5" stroke-linecap="round" stroke-linejoin="round" stroke-miterlimit="10" d="
	M452,324"/>
<path fill="none" stroke="#000000" stroke-width="6" stroke-linecap="round" stroke-linejoin="round" stroke-miterlimit="10" d="
	M435,213.5c-1.4,3-0.7,5.8,0.1,8.9c1.4-1.9,0.7-6.1-0.1-8.4"/>
<path fill="none" stroke="#000000" stroke-width="6" stroke-linecap="round" stroke-linejoin="round" stroke-miterlimit="10" d="
	M452,210.5c-1.7,2.1-0.6,6.1,0,8.8c0.9-2.3,0.8-5.9,0-8.3"/>
<path fill="none" stroke="#000000" stroke-width="6" stroke-linecap="round" stroke-linejoin="round" stroke-miterlimit="10" d="
	M431.5,165.5c0,0-6,2-7,8"/>
<path fill="none" stroke="#000000" stroke-width="6" stroke-linecap="round" stroke-linejoin="round" stroke-miterlimit="10" d="
	M446,163c0,0,8.5-3.5,11-0.5"/>
<path fill="none" stroke="#000000" stroke-width="6" stroke-linecap="round" stroke-linejoin="round" stroke-miterlimit="10" d="
	M472,127.5c0,0,33.6,7.5,34,46.5c0.5,47.5,2,165-20,193c0,0-10.5,12-18.5,14.5l-12,18"/>
<path fill="none" stroke="#000000" stroke-width="6" stroke-linecap="round" stroke-linejoin="round" stroke-miterlimit="10" d="
	M365.5,183c0,0-3,14,6.5,41.5s15,43.5,15,43.5l-5,0.5c0,0-24-15.5-34,0.5s20,69,47.5,40c0,0,19.5,50,28,57s22,13.5,22,13.5
	s3,9.5,12,25.5c0,0-2,17-4,25s-7,45.5-7,45.5s-6,10-5.5,22c0,0-6,9.5-6,24.5c0,7.5-5,17.5-5,17.5s-2.5,18.2-5,23.2"/>
<path fill="none" stroke="#000000" stroke-width="6" stroke-linecap="round" stroke-linejoin="round" stroke-miterlimit="10" d="
	M348,269"/>
<path fill="none" stroke="#000000" stroke-width="5" stroke-linecap="round" stroke-linejoin="round" stroke-miterlimit="10" d="
	M368,277.5c0,0,11,4.5,16.5,20.5"/>
<path fill="none" stroke="#000000" stroke-width="5" stroke-linecap="round" stroke-linejoin="round" stroke-miterlimit="10" d="
	M380,288.5c0,0-3.5,2.5-3.5,7.5"/>
<path fill="none" stroke="#000000" stroke-width="5" stroke-linecap="round" stroke-linejoin="round" stroke-miterlimit="10" d="
	M376.5,296"/>
<path fill="none" stroke="#000000" stroke-width="6" stroke-linecap="round" stroke-linejoin="round" stroke-miterlimit="10" d="
	M506.5,231c0,0,15.5-19,28,6.5c13,26.5-25.5,52.5-31,53.5"/>
<path fill="none" stroke="#000000" stroke-width="6" stroke-linecap="round" stroke-linejoin="round" stroke-miterlimit="10" d="
	M534.5,237.5"/>
<path fill="none" stroke="#000000" stroke-width="5" stroke-linecap="round" stroke-linejoin="round" stroke-miterlimit="10" d="
	M506,265.5c0,0,5.5-8.5,12-13.5"/>
<path fill="none" stroke="#000000" stroke-width="5" stroke-linecap="round" stroke-linejoin="round" stroke-miterlimit="10" d="
	M518,252"/>
<path fill="none" stroke="#000000" stroke-width="6" stroke-linecap="round" stroke-linejoin="round" stroke-miterlimit="10" d="
	M350,190.5c0,0-24.5-25-12.5-45s71-36.5,71-36.5S484,90,574,88.5c0,0-110,37.5-148.5,60.5s-73,40.5-73,40.5"/>
<path fill="none" stroke="#000000" stroke-width="6" stroke-linecap="round" stroke-linejoin="round" stroke-miterlimit="10" d="
	M351.5,189.3c0,0-4,34,5,42.5c0,0,2.3-5,3.8-6.8c0,0,4.8,32,13.8,38.3"/>
<path fill="none" stroke="#000000" stroke-width="6" stroke-linecap="round" stroke-linejoin="round" stroke-miterlimit="10" d="
	M508.5,112.3c0,0,38.5-4,51,10.5c0,0-44.5-0.8-52,3.3c0,0,29.5,13.5,31.3,31.5c0,0-25.3-12-33.5-13.3c0,0,9.5,16.8,8.8,27.5
	s-7.8,33.3-8,34"/>
<path fill="none" stroke="#000000" stroke-width="6" stroke-linecap="round" stroke-linejoin="round" stroke-miterlimit="10" d="
	M538.8,157.5"/>
<path fill="none" stroke="#000000" stroke-width="3" stroke-linecap="round" stroke-linejoin="round" stroke-miterlimit="10" d="
	M335,166.3c0,0,75.3-47,205.3-66.7"/>
<path fill="none" stroke="#000000" stroke-width="3" stroke-linecap="round" stroke-linejoin="round" stroke-miterlimit="10" d="
	M360,127.3c0,0-7,43,7.7,53.7"/>
<path fill="none" stroke="#000000" stroke-width="3" stroke-linecap="round" stroke-linejoin="round" stroke-miterlimit="10" d="
	M366.7,123.7c0,0-6.7,48,7,53.7"/>
<path fill="none" stroke="#000000" stroke-width="3" stroke-linecap="round" stroke-linejoin="round" stroke-miterlimit="10" d="
	M405,110.3c0,0-2.3,39.3,3.7,47.3"/>
<path fill="none" stroke="#000000" stroke-width="3" stroke-linecap="round" stroke-linejoin="round" stroke-miterlimit="10" d="
	M412.7,108c0,0-2.3,38.3,2.3,46"/>
<path fill="none" stroke="#000000" stroke-width="3" stroke-linecap="round" stroke-linejoin="round" stroke-miterlimit="10" d="
	M459.3,99.7c0,0-3,25,5,30.3"/>
<path fill="none" stroke="#000000" stroke-width="3" stroke-linecap="round" stroke-linejoin="round" stroke-miterlimit="10" d="
	M466.3,97.7c0,0-4.3,25.7,2,30.7"/>
<path fill="none" stroke="#000000" stroke-width="3" stroke-linecap="round" stroke-linejoin="round" stroke-miterlimit="10" d="
	M468.3,128.3"/>
<path fill="none" stroke="#000000" stroke-width="6" stroke-linecap="round" stroke-linejoin="round" stroke-miterlimit="10" d="
	M415,352c0,0-9.7,5-10.3,11.7l13.7,38c0,0,11.3-11,18.7-11"/>
<path fill="none" stroke="#000000" stroke-width="6" stroke-linecap="round" stroke-linejoin="round" stroke-miterlimit="10" d="
	M404.7,363.7c0,0-16.3-1.3-26,19c0,0,16.7,17-3.3,38.7c-9.9,10.7-11,35.3-11,35.3c-12,19.3-8.7,33.7-8.7,33.7
	c-12,18-10.7,40-10.7,40c-10.7,13-5.7,22-5.7,22c15.7,24,53.3,15,53.3,15c0.3-6,9.7-19,8.7-28s6.7-14.3,6.7-25.7s6.3-26.7,8.7-30
	s5.7-21.3,5.7-21.3s3.7-9.3,5.3-20.3s5-17.7,6.7-23.3s-2-26-2-26"/>
<path fill="none" stroke="#000000" stroke-width="6" stroke-linecap="round" stroke-linejoin="round" stroke-miterlimit="10" d="
	M492.7,353.3c0,0,16,32.3-0.7,54c0,0-11-20.3-21-19"/>
<path fill="none" stroke="#000000" stroke-width="6" stroke-linecap="round" stroke-linejoin="round" stroke-miterlimit="10" d="
	M478.7,391.7c0,0-5.3,35.3-8,49.7s-5.3,17.3-5.3,17.3s-0.7,26.7-3.3,34s-7.3,34.3-8.7,42.3s-8.3,29.3-8,37s30.3,32,56-3.3l0.3-19.3
	c0,0,8-15.7,5-34.7c0,0-1.3-3.7,4.3-12.3c3.7-5.6-2.7-15.7,3.3-31.3"/>
<path fill="none" stroke="#000000" stroke-width="6" stroke-linecap="round" stroke-linejoin="round" stroke-miterlimit="10" d="
	M495,346.7c0,0,12-9.3,14-11.3c0,0,13,28.7,14.3,44.3"/>
<path fill="none" stroke="#000000" stroke-width="6" stroke-linecap="round" stroke-linejoin="round" stroke-miterlimit="10" d="
	M529.3,473c0,0,16.3,31,18.7,37.7s19.7,7.7,26,11.7s17.3,7,20.7-5s-8.3-16-8.3-16"/>
<path fill="none" stroke="#000000" stroke-width="6" stroke-linecap="round" stroke-linejoin="round" stroke-miterlimit="10" d="
	M546,473c0,0,20,23,22,25s25.3,7.7,32.3-0.7s5.3-27.3-31-29.7c0,0-10-32-16-39c0,0-3.3-25-12.3-38.7c0,0,27-52.7,55.3-70.7
	S610,280,610,280s-6.3-7.7-10.7-8s-22.3,6.7-30,17.7s-6.3,22-12,29.3s-36.3,55.3-42.7,88.7s-6.7,44-2.7,56.3s14.7,34.3,14.7,34.3
	s17,5.3,18.3,8"/>
<path fill="none" stroke="#000000" stroke-width="6" stroke-linecap="round" stroke-linejoin="round" stroke-miterlimit="10" d="
	M554.3,321.7c0,0-8.3-37-3.7-42.7s31.3-30,47.3-28.3c0,0,17.3,7.7,19,21.3s3,29.7-4.3,32"/>
<path fill="none" stroke="#000000" stroke-width="6" stroke-linecap="round" stroke-linejoin="round" stroke-miterlimit="10" d="
	M513.3,342.7c0,0,29-24,36.3-45"/>
<path fill="none" stroke="#000000" stroke-width="6" stroke-linecap="round" stroke-linejoin="round" stroke-miterlimit="10" d="
	M379.3,384.3c0,0-28.7,14.3-49.7,35.3c0,0-6.7,27.7,10.3,28c0,0,15.7-16.7,33.3-24.7"/>
<path fill="none" stroke="#000000" stroke-width="6" stroke-linecap="round" stroke-linejoin="round" stroke-miterlimit="10" d="
	M336.7,413c0,0-7-6.7-11-6.3L316,411c0,0-8.3,10-8,19c0,0-20,5.7-24.3,20.7s19.3,47,32.7,45.7c0,0,18.7-9.7,18.7-22.7
	c0,0,14.3-9.7,19-18.7l-0.7-17.7"/>
<path fill="none" stroke="#000000" stroke-width="6" stroke-linecap="round" stroke-linejoin="round" stroke-miterlimit="10" d="
	M308,430"/>
<path fill="none" stroke="#000000" stroke-width="3" stroke-linecap="round" stroke-linejoin="round" stroke-miterlimit="10" d="
	M517.3,356.7l37.3-36.3"/>
<path fill="none" stroke="#000000" stroke-width="3" stroke-linecap="round" stroke-linejoin="round" stroke-miterlimit="10" d="
	M529.3,329.3c0,0,4.3,17.3,8,20"/>
<path fill="none" stroke="#000000" stroke-width="3" stroke-linecap="round" stroke-linejoin="round" stroke-miterlimit="10" d="
	M533.3,323.3c0,0,7.7,10.7,9,19"/>
<path fill="none" stroke="#000000" stroke-width="3" stroke-linecap="round" stroke-linejoin="round" stroke-miterlimit="10" d="
	M426.3,369.3c0,0-11.3,10.7-14.7,11"/>
<path fill="none" stroke="#000000" stroke-width="3" stroke-linecap="round" stroke-linejoin="round" stroke-miterlimit="10" d="
	M423.5,366c0,0-12.5,8.3-14.5,9"/>
<path fill="none" stroke="#000000" stroke-width="3" stroke-linecap="round" stroke-linejoin="round" stroke-miterlimit="10" d="
	M385.3,396.3c0,0-50,36.3-56.3,39"/>
<path fill="none" stroke="#000000" stroke-width="3" stroke-linecap="round" stroke-linejoin="round" stroke-miterlimit="10" d="
	M355.3,398.7c0,0,2,21.7,8.3,29.3"/>
<path fill="none" stroke="#000000" stroke-width="3" stroke-linecap="round" stroke-linejoin="round" stroke-miterlimit="10" d="
	M350,403c0,0,0.3,23.7,9.7,29.3"/>
<path fill="none" stroke="#000000" stroke-width="3" stroke-linecap="round" stroke-linejoin="round" stroke-miterlimit="10" d="
	M435,420.3c0,0,34.7,0.3,38.7,3.3"/>
<path fill="none" stroke="#000000" stroke-width="3" stroke-linecap="round" stroke-linejoin="round" stroke-miterlimit="10" d="
	M432,427.3c0,0,27.7-0.7,38.7,3.7"/>
<path fill="none" stroke="#000000" stroke-width="3" stroke-linecap="round" stroke-linejoin="round" stroke-miterlimit="10" d="
	M420.3,470c0,0,32,2.7,42.3,6.3"/>
<path fill="none" stroke="#000000" stroke-width="3" stroke-linecap="round" stroke-linejoin="round" stroke-miterlimit="10" d="
	M419.3,478c0,0,36,3,43.7,5.3"/>
<path fill="none" stroke="#000000" stroke-width="3" stroke-linecap="round" stroke-linejoin="round" stroke-miterlimit="10" d="
	M404.7,528c0,0,40,2,48.7,7"/>
<path fill="none" stroke="#000000" stroke-width="3" stroke-linecap="round" stroke-linejoin="round" stroke-miterlimit="10" d="
	M401.7,535.7c0,0,37.7,0.3,49.7,5.7"/>
<path fill="none" stroke="#000000" stroke-width="3" stroke-linecap="round" stroke-linejoin="round" stroke-miterlimit="10" d="
	M451.3,541.3"/>
<path fill="none" stroke="#000000" stroke-width="4" stroke-linecap="round" stroke-linejoin="round" stroke-miterlimit="10" d="
	M448.3,418.3c-0.9,1.4-1.4,3.2-0.9,4.6c0.8-1,0.9-2.4,1.3-3.6"/>
<path fill="none" stroke="#000000" stroke-width="4" stroke-linecap="round" stroke-linejoin="round" stroke-miterlimit="10" d="
	M440.7,456.3c-1,1.3-1.8,3.7-1.3,5.3c2.1-0.6,1.7-2.9,1.6-4.6"/>
<path fill="none" stroke="#000000" stroke-width="4" stroke-linecap="round" stroke-linejoin="round" stroke-miterlimit="10" d="
	M431,499c-1.2,1.7-2.7,4.2-1.6,6.3C431.1,503.7,431,501.4,431,499"/>
<path fill="none" stroke="#000000" stroke-width="4" stroke-linecap="round" stroke-linejoin="round" stroke-miterlimit="10" d="
	M420,546c-0.9,1.1-1.3,3-0.9,4.6c1.2-0.9,1.1-2.7,0.6-3.3"/>
<path fill="none" stroke="#000000" stroke-width="4" stroke-linecap="round" stroke-linejoin="round" stroke-miterlimit="10" d="
	M500.3,387.7l14.7,13.7"/>
<path fill="none" stroke="#000000" stroke-width="4" stroke-linecap="round" stroke-linejoin="round" stroke-miterlimit="10" d="
	M473.7,433c0,0,24.7,32.7,38.3,42.7"/>
<path fill="none" stroke="#000000" stroke-width="4" stroke-linecap="round" stroke-linejoin="round" stroke-miterlimit="10" d="
	M465.7,471.7c0,0,29,33,40.7,39.7"/>
<path fill="none" stroke="#000000" stroke-width="4" stroke-linecap="round" stroke-linejoin="round" stroke-miterlimit="10" d="
	M457.7,512c0,0,35,36.7,44,41.7"/>
<path fill="none" stroke="#000000" stroke-width="4" stroke-linecap="round" stroke-linejoin="round" stroke-miterlimit="10" d="
	M449.7,551.7c0.3,1,21,28.7,33.3,33"/>
<path fill="none" stroke="#000000" stroke-width="4" stroke-linecap="round" stroke-linejoin="round" stroke-miterlimit="10" d="
	M383,411c0.3,1,33,39.3,40.3,46.3"/>
<path fill="none" stroke="#000000" stroke-width="4" stroke-linecap="round" stroke-linejoin="round" stroke-miterlimit="10" d="
	M366.3,444c0,0,37,50,43.7,53.3"/>
<path fill="none" stroke="#000000" stroke-width="4" stroke-linecap="round" stroke-linejoin="round" stroke-miterlimit="10" d="
	M355,481.3c0,0,37.7,48.3,47.7,52.7"/>
<path fill="none" stroke="#000000" stroke-width="4" stroke-linecap="round" stroke-linejoin="round" stroke-miterlimit="10" d="
	M345,526.3c0,0,29,37.3,40.3,41"/>
<path fill="none" stroke="#000000" stroke-width="4" stroke-linecap="round" stroke-linejoin="round" stroke-miterlimit="10" d="
	M385.3,567.3"/>
<path fill="none" stroke="#000000" stroke-width="6" stroke-linecap="round" stroke-linejoin="round" stroke-miterlimit="10" d="
	M406.3,559l28.3,7.3L425,604l-26.3-6.3C398.7,597.7,400.3,570,406.3,559z"/>
<path fill="none" stroke="#000000" stroke-width="6" stroke-linecap="round" stroke-linejoin="round" stroke-miterlimit="10" d="
	M406.3,559"/>
<path fill="none" stroke="#000000" stroke-width="4" stroke-linecap="round" stroke-linejoin="round" stroke-miterlimit="10" d="
	M412,570.7c0,0,8.3,1.7,11.7,2.7l-5.3,21l-11-2.7C407.3,591.7,409.7,576.3,412,570.7z"/>
<path fill="none" stroke="#000000" stroke-width="4" stroke-linecap="round" stroke-linejoin="round" stroke-miterlimit="10" d="
	M412,570.7"/>
<path fill="none" stroke="#000000" stroke-width="6" stroke-linecap="round" stroke-linejoin="round" stroke-miterlimit="10" d="
	M345,559.3c0,0-2.7,15.7-2,21"/>
<path fill="none" stroke="#000000" stroke-width="6" stroke-linecap="round" stroke-linejoin="round" stroke-miterlimit="10" d="
	M343,580.3"/>
<path fill="none" stroke="#000000" stroke-width="4" stroke-linecap="round" stroke-linejoin="round" stroke-miterlimit="10" d="
	M365,569c0,0-2,12-2.7,19.3"/>
<path fill="none" stroke="#000000" stroke-width="4" stroke-linecap="round" stroke-linejoin="round" stroke-miterlimit="10" d="
	M379,570.3c0,0-4,19-4.3,24.7"/>
<path fill="none" stroke="#000000" stroke-width="4" stroke-linecap="round" stroke-linejoin="round" stroke-miterlimit="10" d="
	M449.7,580c0,0-3.7,22-4.7,28"/>
<path fill="none" stroke="#000000" stroke-width="4" stroke-linecap="round" stroke-linejoin="round" stroke-miterlimit="10" d="
	M459.3,585l-2.7,20c0,0,12,5,20,5.3"/>
<path fill="none" stroke="#000000" stroke-width="4" stroke-linecap="round" stroke-linejoin="round" stroke-miterlimit="10" d="
	M394.7,561.3l8.3,1.7"/>
<path fill="none" stroke="#000000" stroke-width="4" stroke-linecap="round" stroke-linejoin="round" stroke-miterlimit="10" d="
	M433.3,572.3c1,0.3,11.7,2.3,11.7,2.3"/>
<path fill="none" stroke="#000000" stroke-width="4" stroke-linecap="round" stroke-linejoin="round" stroke-miterlimit="10" d="
	M342.7,578.3l19.7,5.3"/>
<path fill="none" stroke="#000000" stroke-width="4" stroke-linecap="round" stroke-linejoin="round" stroke-miterlimit="10" d="
	M375.7,589l23.3,6.7"/>
<path fill="none" stroke="#000000" stroke-width="4" stroke-linecap="round" stroke-linejoin="round" stroke-miterlimit="10" d="
	M425.3,600.3l19.3,5.7"/>
<path fill="none" stroke="#000000" stroke-width="4" stroke-linecap="round" stroke-linejoin="round" stroke-miterlimit="10" d="
	M401.7,598.3l1.7,40.7c0,0,11.3-18.3,19-35"/>
<path fill="none" stroke="#000000" stroke-width="4" stroke-linecap="round" stroke-linejoin="round" stroke-miterlimit="10" d="
	M422.3,604"/>
<path fill="none" stroke="#000000" stroke-width="6" stroke-linecap="round" stroke-linejoin="round" stroke-miterlimit="10" d="
	M379.3,633c0,0,21.7,7,33.3,7c0,0,5.3,5,5,8.3s-36,83.7-46.7,86"/>
<path fill="none" stroke="#000000" stroke-width="6" stroke-linecap="round" stroke-linejoin="round" stroke-miterlimit="10" d="
	M480.7,586c0,0-18,141.7-84.3,203.7c-3.9,3.6-27-3-37.3-2.7"/>
<path fill="none" stroke="#000000" stroke-width="6" stroke-linecap="round" stroke-linejoin="round" stroke-miterlimit="10" d="
	M386,636.3c0,0-16.3,47-18.7,96.7"/>
<path fill="none" stroke="#000000" stroke-width="6" stroke-linecap="round" stroke-linejoin="round" stroke-miterlimit="10" d="
	M285,463c0,0-20,19.3-22,25.7c0,0,1.7,13.3,1.7,25.3s7.3,96,33,109"/>
<path fill="none" stroke="#000000" stroke-width="6" stroke-linecap="round" stroke-linejoin="round" stroke-miterlimit="10" d="
	M302,489c0,0-15,38-2.3,103.3c0,0,20.7-25,28-23.3s34.7,28.7,25.7,50.3c0,0-9.7,16-22,6.7c0,0-6-4.7-14.7-29.7"/>
<path fill="none" stroke="#000000" stroke-width="6" stroke-linecap="round" stroke-linejoin="round" stroke-miterlimit="10" d="
	M319.3,604.7c0,0-21,19.3-25,21c0,0,0.3,11.7,18,22c0,0-4.3,26.7,6,58.7c0,0,4.3,17.7,3.7,25.3"/>
<path fill="none" stroke="#000000" stroke-width="6" stroke-linecap="round" stroke-linejoin="round" stroke-miterlimit="10" d="
	M294.3,625.7"/>
<path fill="none" stroke="#000000" stroke-width="4" stroke-linecap="round" stroke-linejoin="round" stroke-miterlimit="10" d="
	M331.7,608c0,0,8.3-4.3,11.7-8c0,0,4.3,7.3,4,11.3l-12,4.3C335.3,615.7,333,611,331.7,608z"/>
<path fill="none" stroke="#000000" stroke-width="4" stroke-linecap="round" stroke-linejoin="round" stroke-miterlimit="10" d="
	M343.3,600"/>
<path fill="none" stroke="#000000" stroke-width="6" stroke-linecap="round" stroke-linejoin="round" stroke-miterlimit="10" d="
	M373,789.3c0,0-5.3,24-12.7,26s-6.7-62.3,9.7-80.7"/>
<path fill="none" stroke="#000000" stroke-width="6" stroke-linecap="round" stroke-linejoin="round" stroke-miterlimit="10" d="
	M372.3,733.3c0,0-73,6-95.7-1.3s-56.3-12-67.7-7.3s-18.7,24.3-18.7,43s1.7,52.3-1,65.3s2,47,9.7,54s27.9,22.5,60,16.3
	c27.7-5.3,29-20.7,28.7-25.7c-0.4-6.3,0.7-21-22.3-61.7c0,0-11-18.7-6.7-28.3"/>
<path fill="none" stroke="#000000" stroke-width="6" stroke-linecap="round" stroke-linejoin="round" stroke-miterlimit="10" d="
	M359.7,815c0,0-79.3-30.7-108.7-27"/>
<path fill="none" stroke="#000000" stroke-width="6" stroke-linecap="round" stroke-linejoin="round" stroke-miterlimit="10" d="
	M251,788"/>
<path fill="none" stroke="#000000" stroke-width="8" stroke-linecap="round" stroke-linejoin="round" stroke-miterlimit="10" d="
	M360.7,792.3c-1.5,4.2-1.9,12.8-0.3,17c1.4-1.1,9.1-15.2,8.3-17c-0.8-1.9-4.7,2.5-5.1,3c-1.1,1.4-2.3,5.5-2.3,7.3"/>
<path fill="none" stroke="#000000" stroke-width="8" stroke-linecap="round" stroke-linejoin="round" stroke-miterlimit="10" d="
	M368.7,792.3"/>
<path fill="none" stroke="#000000" stroke-width="6" stroke-linecap="round" stroke-linejoin="round" stroke-miterlimit="10" d="
	M288.7,879.3c0,0,2,4,3,10S288,914,288,914l-11.7,6.7c0,0-3-10-9.7-6.3s-4.3,8-4.3,8s-8.7,5-24.3,0.7c0,0-2-9.7-7-10s-5.7,7-6.3,9
	c0,0-17.7-1.3-23-10c0,0,3.7-10.3-2-16c0,0-7.3-4.7-12.7,6.3c0,0-12.7-33.7-7.3-57s12-25.3,5-44.3c0,0-7-17.3-6-21
	c0,0,3.3-1,3.7-7.3s-4.7-10.7-4.7-10.7s2.7-26.8,14.7-36.3c16.3-13,23-4,23-4"/>
<path fill="none" stroke="#000000" stroke-width="6" stroke-linecap="round" stroke-linejoin="round" stroke-miterlimit="10" d="
	M238,923"/>
<path fill="none" stroke="#000000" stroke-width="4" stroke-linecap="round" stroke-linejoin="round" stroke-miterlimit="10" d="
	M276.3,920.7c0,0-7.3-1.7-14.7,3"/>
<path fill="none" stroke="#000000" stroke-width="4" stroke-linecap="round" stroke-linejoin="round" stroke-miterlimit="10" d="
	M239.7,923.3c0,0-8.7-4.3-15-1.3"/>
<path fill="none" stroke="#000000" stroke-width="4" stroke-linecap="round" stroke-linejoin="round" stroke-miterlimit="10" d="
	M201.7,912c0,0-4.3-9-14.7-9.7"/>
<path fill="none" stroke="#000000" stroke-width="4" stroke-linecap="round" stroke-linejoin="round" stroke-miterlimit="10" d="
	M187,902.3"/>
<path fill="none" stroke="#000000" stroke-width="5" stroke-linecap="round" stroke-linejoin="round" stroke-miterlimit="10" d="
	M275,834.7c0,0-14.3-19.3-56.3,0.7"/>
<path fill="none" stroke="#000000" stroke-width="5" stroke-linecap="round" stroke-linejoin="round" stroke-miterlimit="10" d="
	M249,818c0,0-16.3-1-22.3,4.7"/>
<path fill="none" stroke="#000000" stroke-width="5" stroke-linecap="round" stroke-linejoin="round" stroke-miterlimit="10" d="
	M226.7,822.7"/>
<path fill="none" stroke="#000000" stroke-width="6" stroke-linecap="round" stroke-linejoin="round" stroke-miterlimit="10" d="
	M379,790c0,0-0.7,73,11.3,88.3"/>
<path fill="none" stroke="#000000" stroke-width="6" stroke-linecap="round" stroke-linejoin="round" stroke-miterlimit="10" d="
	M318.3,801c0,0-5,3-5.3,6s12.3,31.3,11.3,54.3s-1.3,39.7-3.7,47.3s-13.3,23.3-4,33.3s69,37.3,112.7,7c0,0,16-61-47.7-72.3"/>
<path fill="none" stroke="#000000" stroke-width="6" stroke-linecap="round" stroke-linejoin="round" stroke-miterlimit="10" d="
	M359.7,881c-33.3,6-38,25.7-38,25.7"/>
<path fill="none" stroke="#000000" stroke-width="6" stroke-linecap="round" stroke-linejoin="round" stroke-miterlimit="10" d="
	M431.3,936.3l6,4.7c0,0,1.3,24,1,25.7l-3,1.7c0,0-4-6.7-10.7-2.7c0,0-4.3,4-4,9.7l-12.3,4.7c0,0-1-10.3-10.7-7.7c0,0-8,2-8,10.7
	c0,0-15,4.3-17.7,0.3c0,0-2-11.7-10-10.7s-9.3,7.3-10.3,9.3s-24-5.7-24-5.7s0.7-14.3-7.7-16.3c0,0-7.7,2-6.3,8.7L306,963
	c0,0-3.7-19-1-23s10-18,10-18"/>
<path fill="none" stroke="#000000" stroke-width="6" stroke-linecap="round" stroke-linejoin="round" stroke-miterlimit="10" d="
	M351.7,982"/>
<path fill="none" stroke="#000000" stroke-width="4" stroke-linecap="round" stroke-linejoin="round" stroke-miterlimit="10" d="
	M435.3,968.3c0,0-8.3,2.7-14.7,7"/>
<path fill="none" stroke="#000000" stroke-width="4" stroke-linecap="round" stroke-linejoin="round" stroke-miterlimit="10" d="
	M408.3,980c0,0-11.3,2-18.7,3"/>
<path fill="none" stroke="#000000" stroke-width="4" stroke-linecap="round" stroke-linejoin="round" stroke-miterlimit="10" d="
	M373.7,985.3c0,0-17.3-2-22-3.3"/>
<path fill="none" stroke="#000000" stroke-width="4" stroke-linecap="round" stroke-linejoin="round" stroke-miterlimit="10" d="
	M327.7,976.3c0,0-13.3-6-14.7-9"/>
<path fill="none" stroke="#000000" stroke-width="4" stroke-linecap="round" stroke-linejoin="round" stroke-miterlimit="10" d="
	M313,967.3"/>
<path fill="none" stroke="#000000" stroke-width="6" stroke-linecap="round" stroke-linejoin="round" stroke-miterlimit="10" d="
	M757.3,153.3c0,0,8.1,66.1,17.3,80c1.3,2,50,39.3,55.3,44.7s22,16,20,43.3c0,0-0.5,7.2,7.5,21.7s12,22.5,7,34.5S855,395,848,393"/>
<path fill="none" stroke="#000000" stroke-width="6" stroke-linecap="round" stroke-linejoin="round" stroke-miterlimit="10" d="
	M850,384.5c0,0-7.5,10.5-1.5,25.5s0,25.5-11.5,31s-170.5,36-152-103"/>
<path fill="none" stroke="#000000" stroke-width="6" stroke-linecap="round" stroke-linejoin="round" stroke-miterlimit="10" d="
	M685,338"/>
<path fill="none" stroke="#000000" stroke-width="5" stroke-linecap="round" stroke-linejoin="round" stroke-miterlimit="10" d="
	M824.5,444l-0.5,13c0,0-13.5,9-26,8"/>
<path fill="none" stroke="#000000" stroke-width="5" stroke-linecap="round" stroke-linejoin="round" stroke-miterlimit="10" d="
	M802.5,448c0,0-1.5,16-7,18.5c0,0-17.5,8-36.5-1.5c0,0,4.5-15.5,1.5-19.5"/>
<path fill="none" stroke="#000000" stroke-width="5" stroke-linecap="round" stroke-linejoin="round" stroke-miterlimit="10" d="
	M758.5,463c0,0-27,5-39-14l4.5-14.5"/>
<path fill="none" stroke="#000000" stroke-width="5" stroke-linecap="round" stroke-linejoin="round" stroke-miterlimit="10" d="
	M719.5,449c0,0-17.5,3-23.5-22.5l2.5-13.5l-6,6.5c0,0-8.5-3-9-9.5c0,0-3.5-11.5,2-20"/>
<path fill="none" stroke="#000000" stroke-width="5" stroke-linecap="round" stroke-linejoin="round" stroke-miterlimit="10" d="
	M685.5,390"/>
<path fill="none" stroke="#000000" stroke-width="6" stroke-linecap="round" stroke-linejoin="round" stroke-miterlimit="10" d="
	M697,431.5c0,0,6.5,38.5,60,46c0,0,29,4,45.5-11c0,0,6.5,14.5-9,20.5s-70,7.5-99-13s-23-44.5-23-44.5s-10-14.5-6-51c0,0-9-42.5,3-79
	c8.9-27.1,6-44,6-44s-12-52.5-19.5-64"/>
<path fill="none" stroke="#000000" stroke-width="6" stroke-linecap="round" stroke-linejoin="round" stroke-miterlimit="10" d="
	M757,477.5"/>
<path fill="none" stroke="#000000" stroke-width="10" stroke-linecap="round" stroke-linejoin="round" stroke-miterlimit="10" d="
	M712.5,452.5c5.3,1.9,8.6,7.4,13.5,10.1c5.3,3,9.6,6.6,15.5,6.8c2.8,0.1,5.9,0.5,9,0.5c4.6,0,4.6,0.5,8.5,1.9
	c5.2,1.8,17.5,3.1,25.5,0.6"/>
<path fill="none" stroke="#000000" stroke-width="10" stroke-linecap="round" stroke-linejoin="round" stroke-miterlimit="10" d="
	M741.5,469.5"/>
<path fill="none" stroke="#000000" stroke-width="5" stroke-linecap="round" stroke-linejoin="round" stroke-miterlimit="10" d="
	M743,359.5c0,0,13,13,12,27s-5.5,20.5-12,22.5"/>
<path fill="none" stroke="#000000" stroke-width="5" stroke-linecap="round" stroke-linejoin="round" stroke-miterlimit="10" d="
	M726,368.5c0,0-6.5,0-7.5,13S728,396,728,396s8,0.5,6-14S726,368.5,726,368.5z"/>
<path fill="none" stroke="#000000" stroke-width="5" stroke-linecap="round" stroke-linejoin="round" stroke-miterlimit="10" d="
	M724.5,369.5c5.4,2.5,2,17.3,6,22.3c2-4.6,0.5-12-1-17.3"/>
<path fill="none" stroke="#000000" stroke-width="5" stroke-linecap="round" stroke-linejoin="round" stroke-miterlimit="10" d="
	M730.5,391.8"/>
<path fill="none" stroke="#000000" stroke-width="7" stroke-linecap="round" stroke-linejoin="round" stroke-miterlimit="10" d="
	M727,178.5c-1.4,2.7-1.3,8.8,0.4,11.5c1.6-2,1.4-8.2-0.1-11.5"/>
<path fill="none" stroke="#000000" stroke-width="7" stroke-linecap="round" stroke-linejoin="round" stroke-miterlimit="10" d="
	M709,179c-2.3,2,0.3,11,2.9,11.8c0.8-4.2-0.7-11.1-2.9-12.1"/>
<path fill="none" stroke="#000000" stroke-width="7" stroke-linecap="round" stroke-linejoin="round" stroke-miterlimit="10" d="
	M711.9,190.8"/>
<path fill="none" stroke="#000000" stroke-width="6" stroke-linecap="round" stroke-linejoin="round" stroke-miterlimit="10" d="
	M605,252c3-67.5,42-108,42-108c-55.5-49-37.5-90-37.5-90c75.5,13,82,76.5,82,76.5s16,4,22.5,9.5c0,0,5-12,3-18.5c0,0,28,3.5,39,12.5
	c0,0-4-26-22-38.5c0,0,25-1,52,14c0,0,8.5-40-67-36.5c0,0,19.5-19,53-17c0,0-22-23.5-57.5-15c0,0-29,15.5-40.5,46"/>
<path fill="none" stroke="#000000" stroke-width="6" stroke-linecap="round" stroke-linejoin="round" stroke-miterlimit="10" d="
	M605,252"/>
<path fill="none" stroke="#000000" stroke-width="5" stroke-linecap="round" stroke-linejoin="round" stroke-miterlimit="10" d="
	M670.5,130.5c0,0-9.5-36.5-41.5-62"/>
<path fill="none" stroke="#000000" stroke-width="5" stroke-linecap="round" stroke-linejoin="round" stroke-miterlimit="10" d="
	M666.5,122c0,0-8.5-0.5-7,18"/>
<path fill="none" stroke="#000000" stroke-width="5" stroke-linecap="round" stroke-linejoin="round" stroke-miterlimit="10" d="
	M659.5,140"/>
<path fill="none" stroke="#000000" stroke-width="6" stroke-linecap="round" stroke-linejoin="round" stroke-miterlimit="10" d="
	M762.5,77c0,0,19.5-16,68.5-3c0,0-6.5,14-12.5,26.5s-7.5,18.5-18,24s-39,21.5-42.5,31"/>
<path fill="none" stroke="#000000" stroke-width="6" stroke-linecap="round" stroke-linejoin="round" stroke-miterlimit="10" d="
	M831,74"/>
<path fill="none" stroke="#000000" stroke-width="5" stroke-linecap="round" stroke-linejoin="round" stroke-miterlimit="10" d="
	M752,119c0,0,9-14,15.5-18"/>
<path fill="none" stroke="#000000" stroke-width="5" stroke-linecap="round" stroke-linejoin="round" stroke-miterlimit="10" d="
	M781,89.5c0,0,5.5-8,27.5-7.5"/>
<path fill="none" stroke="#000000" stroke-width="5" stroke-linecap="round" stroke-linejoin="round" stroke-miterlimit="10" d="
	M808.5,82"/>
<path fill="none" stroke="#000000" stroke-width="6" stroke-linecap="round" stroke-linejoin="round" stroke-miterlimit="10" d="
	M630,128c0,0-41,39.5-47.5,72c0,0,6.5-7,15-11.5c0,0-30,39.5-27.5,72"/>
<path fill="none" stroke="#000000" stroke-width="6" stroke-linecap="round" stroke-linejoin="round" stroke-miterlimit="10" d="
	M665,376c0,0-21,35-28.5,71c0,0-12,22-15.5,41"/>
<path fill="none" stroke="#000000" stroke-width="6" stroke-linecap="round" stroke-linejoin="round" stroke-miterlimit="10" d="
	M636,444.5c0,0-3.5,62.5,1,90.5s0.5,95.5-52,95.5c0,0-9.5-0.5-14.5,3s-21,47.5-20,70c0,0,6.5,27-2,38.5c0,0,0,11-2.5,21
	c0,0,9,27.5,17,31.5c0,0-12.5,3-21-15.5c0,0-3,21.5-8.5,23.5c0,0,1.5-14-1.5-21c0,0-3.5,12.5-9,15.5c0,0,24-133,10.5-161.5
	c-5.9-12.4-15.5-14-58.5-14"/>
<path fill="none" stroke="#000000" stroke-width="6" stroke-linecap="round" stroke-linejoin="round" stroke-miterlimit="10" d="
	M557.5,795.5c0,0,49,61,47,85.5"/>
<path fill="none" stroke="#000000" stroke-width="6" stroke-linecap="round" stroke-linejoin="round" stroke-miterlimit="10" d="
	M523,797c0,0-18,17.5,5.5,29.5c0,0-9,35.5-13.5,51s-3.5,5.5-1.5,10c0,0,38.5,27.5,92.5,4.5l1-12c0,0-58.5,19-90-0.5"/>
<path fill="none" stroke="#000000" stroke-width="6" stroke-linecap="round" stroke-linejoin="round" stroke-miterlimit="10" d="
	M511.5,884.5c0,0-40,1.5,9.5,7.5"/>
<path fill="none" stroke="#000000" stroke-width="6" stroke-linecap="round" stroke-linejoin="round" stroke-miterlimit="10" d="
	M625.5,609.5c0,0-2.5,17.5-8.5,32s0.5,25.5,2,31s6.5,12-4.5,25c0,0-5.5,48-9,56s1.5,23,11,24.5c0,0-10,10-16.5-11
	c0,0-3.5,22-16,25.5c0,0,4-3,3-14.5c0,0-6,6.5-13,2.5c0,0,43.5-37.5,19-149.5"/>
<path fill="none" stroke="#000000" stroke-width="6" stroke-linecap="round" stroke-linejoin="round" stroke-miterlimit="10" d="
	M664.5,836.5c-6-28.5-55.5-56-55.5-56"/>
<path fill="none" stroke="#000000" stroke-width="6" stroke-linecap="round" stroke-linejoin="round" stroke-miterlimit="10" d="
	M584,792.5c0,0,9,7,8,17s-3,28.5-3,28.5"/>
<path fill="none" stroke="#000000" stroke-width="6" stroke-linecap="round" stroke-linejoin="round" stroke-miterlimit="10" d="
	M592.5,847.5c0,0,45.5,7,73-11c0,0,1,16-1.5,22c0,0-24,13.5-61.5,7.5"/>
<path fill="none" stroke="#000000" stroke-width="6" stroke-linecap="round" stroke-linejoin="round" stroke-miterlimit="10" d="
	M665.5,836.5"/>
<path fill="none" stroke="#000000" stroke-width="8" stroke-linecap="round" stroke-linejoin="round" stroke-miterlimit="10" d="
	M598.5,654c4.6-3.8,9.5-5,15.4-5.1c0.2-2.8,0.8-5.6,1.5-8.3c-5.2,2.7-12.8,0.1-16.8,4.8c-0.6-8.7,5.6-8.5,12.4-11
	c7.5-2.7,6.6-6.2,10.5-14c-7.5,4.9-16.9,12.7-25,16"/>
<path fill="none" stroke="#000000" stroke-width="8" stroke-linecap="round" stroke-linejoin="round" stroke-miterlimit="10" d="
	M613.9,648.9"/>
<path fill="none" stroke="#000000" stroke-width="6" stroke-linecap="round" stroke-linejoin="round" stroke-miterlimit="10" d="
	M409.5,355.5c0,0-15-2.5-37.5-25.5s-59-27.5-78-22.5c0,0,10.5-63-3-87c0,0-7,7.5-6.5,14c0,0-12-69-42.5-85.5l-4.5,5.5
	c0,0-79.5-75-161-21.5c0,0,21-0.5,26.5,2.5c0,0-65.5,3-93,67.5c0,0,34.5-26.5,57-32.5c0,0-41.5,21-43.5,88c0,0,27.5-33,56.5-46.5
	c0,0-29.5,39.5-15,71.5c0,0,29-41.5,65.5-50c0,0-29,13.5-22.5,41.5c0,0,9-11.5,23.5-17s40-27.2,61-37c23.5-11,74.5,13.5,82.5,95
	c0,0-44,17-55,91s17,143,31,178s24.5,92,24,93.5s-6.5,18,7.5,35L288,732"/>
<path fill="none" stroke="#000000" stroke-width="6" stroke-linecap="round" stroke-linejoin="round" stroke-miterlimit="10" d="
	M291,792.5c0,0,0,7-2.5,12.5s-11.5,20.5,6.5,29l-6.5,42"/>
<path fill="none" stroke="#000000" stroke-width="6" stroke-linecap="round" stroke-linejoin="round" stroke-miterlimit="10" d="
	M280,597c0,0,0.5,54,17.5,83c0,0,12,20.5-3,25.5"/>
<path fill="none" stroke="#000000" stroke-width="6" stroke-linecap="round" stroke-linejoin="round" stroke-miterlimit="10" d="
	M298.5,703c0,0,0,22,4,30.5"/>
<path fill="none" stroke="#000000" stroke-width="6" stroke-linecap="round" stroke-linejoin="round" stroke-miterlimit="10" d="
	M291,898c0,0,21.5,10,30.5,6.5"/>
<path fill="none" stroke="#000000" stroke-width="6" stroke-linecap="round" stroke-linejoin="round" stroke-miterlimit="10" d="
	M291.5,887c0,0,17.5,8.5,32,3.5"/>
<path fill="none" stroke="#000000" stroke-width="6" stroke-linecap="round" stroke-linejoin="round" stroke-miterlimit="10" d="
	M401.5,784.5c0,0,38.5,36,42.5,63"/>
<path fill="none" stroke="#000000" stroke-width="6" stroke-linecap="round" stroke-linejoin="round" stroke-miterlimit="10" d="
	M383.5,856c0,0,35.5,9.5,60.5-8.5c0,0,7.5,1.5,4.5,12.5c0,0-22,22.5-61.5,12"/>
<path fill="none" stroke="#000000" stroke-width="6" stroke-linecap="round" stroke-linejoin="round" stroke-miterlimit="10" d="
	M289,908c4.4,1.7,9.1,2,12,5.5c-3,2.1-8.8-0.4-12.6,0c-0.4,0.4,0.8-0.4,1.1-0.5"/>
</svg>
