<?xml version="1.0" encoding="utf-8"?>
<!-- Generator: Adobe Illustrator 28.5.0, SVG Export Plug-In . SVG Version: 9.03 Build 54727)  -->
<svg isCommex="true" version="1.0" id="Layer_1" xmlns="http://www.w3.org/2000/svg" xmlns:xlink="http://www.w3.org/1999/xlink" x="0px" y="0px"
	 width="1483.9px" height="1126px" viewBox="0 0 1483.9 1126" enable-background="new 0 0 1483.9 1126" xml:space="preserve">
<path fill="#CCCCCC" d="M1316.3,820.9c-6.4,2.9-13.4,5.7-16.1,6.7l-0.5,0.2l-0.1,0.5c-2.3,8.7-4.2,16.9-5.7,23.7
	c-3,13.5-3.3,25.8-3.6,36.6l-0.1,5.2l1.7-1.4c4-3.3,6.5-6.3,7.6-9.1c1-2.5,2.3-7.1,3.7-12.4v-0.1c2.5-9.2,5.6-20.6,9.9-31.1
	c3.3-8.2,4.3-14.1,4.5-17.6l0.1-1.7L1316.3,820.9z"/>
<path fill="#CCCCCC" d="M1095.4,954.5c-1.8,0.7-4.1,1-6.5,1c-2.6,0-5.1-0.5-7.2-1.3l-1-0.4l-0.3,1c-1.6,5.1-4.6,12.8-9.5,20.6
	c-4.1,6.4-8.8,11.8-14.1,15.9c-0.5,0.4-1.2,0.6-1.8,0.6c-0.9,0-1.8-0.4-2.4-1.2c-1-1.3-0.8-3.2,0.5-4.2c3.6-2.8,6.9-6.3,9.9-10.3
	l0.8-1.1l-1.3-0.5c-1.1-0.4-2.6-1-4.1-1.6c-24.2-9.3-49.6-19.7-54.9-27.2c-4.9-7-9.9-27.1-15.7-63.5l-0.2-1.4l-1.2,0.7
	c-4.1,2.3-10.2,5.4-18.1,9.3l-1.6,0.8c-1.6,0.8-3.5,1.7-5.3,2.3l-0.8,0.2l0.1,0.8c0.4,4.9,1.8,13.4,4,23.8
	c3.2,14.8,7.8,32.6,10.5,37.8c0.2,0.4,0.5,0.9,0.8,1.3c4.1,6.3,14.3,11.8,28.3,19.4l2.8,1.5c1.3,0.7,2.5,1.4,3.8,2.1
	c18.4,10.1,44.6,19.5,51.4,19.5c0.2,0,0.4,0,0.6,0c4.7-0.5,15.2-6.6,20.1-9.8l0.2-0.1c11.6-12.1,18.7-28.3,22.7-39.7l1-2.8l-2.4,1.6
	C1100.2,952.3,1096.9,954,1095.4,954.5z"/>
<path fill="#AD8B68" d="M786.7,720.5c-4.3-3.4-8.9-7.4-14.5-12.2l-0.7-0.6c-2.6-2.3-5.1-4.4-7.3-6.2c-14.3-11.9-26.3-13.2-29.7-13.4
	c-6.6-0.2-22,1.2-31.2,3.4c-2.2,0.5-4,1.1-5.1,1.6c-2.3,1.1-5.5,3.2-9,5.4l-0.4,0.3c-7,4.5-14.9,9.6-20.7,10.7
	c-2.1,0.4-4.5,0.6-7.6,0.9l-2,0.2l1.3,1.5c0.8,0.9,1.8,2.4,1.6,3.9c-0.1,1.2-0.8,2.8-4,3.5c-2.5,0.6-6,0.9-10.4,0.9
	c-3,0-5.6-0.1-6.9-0.2l-1.1-0.1v1.1c0,0.9,0.1,1.7,0.3,2.5c0.9,3.2,3.7,5.2,8.4,6.1c11.1,2.2,18.1-2.6,22.7-5.8l0.1-0.1
	c1.1-0.7,2-1.3,2.9-1.8c4.3-2.3,10.6-3.3,11.8-3.5l0.4-0.1l0.2-0.4c4.3-6.6,7.8-9.8,7.8-9.8c0.6-0.5,1.3-0.8,2.2-0.8
	c0.8,0,1.5,0.4,2.1,1c1.1,1.2,1.1,3.1-0.2,4.2l0,0c-0.4,0.4-2.3,2.3-4.7,5.7c-1.1,1.5-2.2,3.1-3.2,4.8c-2.3,3.7-4.4,7.8-6.2,12.1
	c-5.7,13.6-3.2,17.1-1.9,18.9c0.1,0.1,0.1,0.2,0.2,0.4l0.1,0.2c1.6,1.5,7,4.2,12.3,6.1c3.8,1.4,9,3,13.1,3c0.3,0,0.6,0,0.9,0
	c3.3-0.2,7-1.3,11-3.4l3-1.5l-3.4-0.3c-16.1-1.7-24.9-4.8-25-4.8c-1.6-0.5-2.4-2.3-1.8-3.8c0.5-1.6,2.3-2.4,3.9-1.8
	c1.4,0.4,5.2,1.6,11.4,2.7c6.5,1.2,13.5,2,20.9,2.4c3.4,0.2,6.9,0.3,10.5,0.3c16,0,30.4-1.6,41.9-2.9l0.9-0.1
	c5.4-0.6,10-1.1,13.7-1.3h0.9v-0.9c0.1-3.1,0.6-9.5,2.3-17.8l0.1-0.7l-0.6-0.4C795.4,727.2,791.5,724.4,786.7,720.5z"/>
<path fill="#AD8B68" d="M919.9,733L919.9,733c0-0.7-0.1-1.3-0.1-1.9v-1h-1c-10.5,0.4-34.2,1.2-56.6,2c-5.9,0.2-11.8,0.4-17.4,0.5
	c-16.4,0.5-27.6,0.7-33.1,0.7h-0.6l-0.3,0.5c-3.3,6-5.9,11.3-7.1,14.2l-0.5,1.2l1.3,0.2c17.4,2.1,72.6,12.1,90.3,15.6h0.2
	c11.5,2.3,24,4.8,35.6,4.8c6.1,0,12-0.7,17.4-2.5l2.9-1l-2.9-0.9C934,760.9,920.9,745.8,919.9,733z"/>
<path fill="#AD8B68" d="M959,660.7L959,660.7c-5.8-1.4-10.7-3.1-13.4-4l-0.8-0.3c-0.6-0.2-1.2-0.4-1.6-0.5l-0.3-0.1l-0.4,0.1
	c-0.1,0-0.3,0.1-0.4,0.1c-0.5,0.1-1,0.3-1.5,0.5l-0.7,0.2c-2.5,0.8-5.5,1.9-8.1,2.2c-1.6,0.2-3.1-1-3.4-2.6c-0.2-1.6,1-3.1,2.6-3.4
	c1.7-0.2,4.1-1,6.5-1.8l0.9-0.3l-0.3-0.9c-1.9-6.2-5.2-18.8-6-32.4c-0.4-6.6-0.2-12.4-0.1-18v-0.3c0.3-9.7,0.6-18.1-2.4-26.7
	c-1.4-4-2.4-7.4-3.1-10.5v-0.1c-0.1-0.3-0.1-0.5-0.2-0.8l-0.1-0.5c-0.8-3.7-1.1-6.9-1.5-10.3c-0.3-2.6-0.6-5.4-1.2-8.9
	c-1.2-7.9-4.2-10-9.2-13.6c-1-0.7-2-1.5-3.1-2.3l-1.4-1l-0.2,1.7c-0.2,1.5-0.8,2.7-1.6,3.7c-0.8,0.8-2.2,1.7-4.6,1.7
	c-0.3,0-0.6,0-0.9,0c-4.1-0.4-9.7-4.4-13.1-8.1l-1.6-1.7l-0.2,2.3c-0.4,5,2.2,12.1,4.8,13.3c1.3,0.6,2.5,0.9,3.7,1.2
	c3,0.7,6.2,1.4,10.5,5.9c4.8,5,5.9,8.7,6.2,10.5l-3.5-0.1l3.2,2c0.7,0.4,1.3,0.9,1.9,1.6c1.2,1.3,1.8,1.4,3,1.4c0.5,0,1.3,0,2.1,0.3
	c1.1,0.3,2,1.2,2.2,2.4c0.1,0.4,0,0.9-0.1,1.3c-0.4,1.3-1.5,2.2-2.9,2.2c-0.2,0-0.5,0-0.8-0.1c-0.2,0-0.6-0.1-0.7,0
	c-2.1-0.1-4.4-0.4-7.2-3.3c-1.2-1.2-2-1.1-4.6-0.6c-0.7,0.1-1.5,0.3-2.4,0.4c-2.8,0.4-5.3-0.9-7.3-1.9c-1.8-0.9-2.7-1.3-3.4-1.3
	c-1.9,0.1-4.9,1.3-6.3,1.9l-0.9,0.4l0.4,0.9c1.6,3.5,3.2,7.9,4.8,12.9c0.1,0.3,0.2,0.5,0.2,0.6v0.1c0.5,1.3,0.1,2.8-1.1,3.6
	c-0.7,0.4-1.5,0.6-2.2,0.4c-0.8-0.2-1.5-0.6-1.9-1.3c-0.3-0.4-0.3-0.6-0.7-1.7c-5.1-16.5-9.2-20.3-10.8-21.1
	c-4.9-2.7-18.3,5.2-23.4,12.3c-3,4.2-2.3,8.9-1.6,11.2l0.3,1l1-0.3c5-1.5,9.1-2.7,11.4-3.4l2.1-0.6l0.3-0.1l0.2-0.3
	c0.4-0.5,1-0.9,1.6-1c1.6-0.4,3.2,0.6,3.6,2.2l0.2,0.8c6.9,29.7,11.1,48.5,11.4,51.4v0.1v0.6l0.5,0.3c1.1,0.7,1.7,1.1,1.7,1.1
	c1.3,1,1.6,2.8,0.7,4.2c-1,1.3-2.8,1.6-4.2,0.7c-0.1-0.1-10.3-7.2-22-5.1c-7.9,1.4-15.1,8.8-17.3,14.9v0.1c0,0.1-0.1,0.2-0.1,0.4
	l-1,3.4l2.6-2.4c1.8-1.6,8.2-6.9,14.4-6.4c4.5,0.3,6.5,2.3,7.4,3.8c0.5,0.8,0.8,1.7,0.9,2.7l0.1,1.2l1.2-0.4
	c9.4-3.1,14.8,1.1,17.7,5.1c4.1,5.8,10.7,12,17,12h0.2c0.8,0,1.7,0,2.5-0.1c7.2-0.2,13.4-0.4,25.7,5.8c9.7,4.8,19.1,10.3,22.7,12.4
	l0.8,0.5l0.5-0.7c4.9-6.5,10.3-13.7,14.8-20l1.1-1.4l-1.8-0.2C964.5,661.8,961.7,661.3,959,660.7z"/>
<path fill="#AD8B68" d="M1088.1,593.6c-0.1-0.6-0.4-1.3-1-2.2c-0.2-0.4-0.5-0.8-0.8-1.3l-0.2-0.3c-0.5-0.7-1.1-1.6-1.7-2.6l-0.2-0.4
	l-0.5-0.1c-7.5-0.9-21,1.7-38,7.6l-2.3,0.8l2.1,1.1c0.2,0.1,0.5,0.2,0.7,0.3c7,3.4,15.6,7.6,24.8,7.6c0.8,0,1.6,0,2.4-0.1
	c6.8-0.6,11.6-2.3,13.7-5.1C1088.1,597.2,1088.5,595.5,1088.1,593.6L1088.1,593.6z"/>
<path fill="#AD8B68" d="M1080.3,583.4c0.2,0,0.4,0,0.6,0h1.5l-0.5-1.4c-0.5-1.4-0.9-2.9-1.2-4.4l-0.1-0.8l-0.8-0.1
	c-10.5-1-23.4,5.7-32.4,11.4l-6.5,4.2l7.4-2.4C1057.8,587,1070.9,583.4,1080.3,583.4z"/>
<path fill="#AD8B68" d="M1107.6,522.4c-1.5-0.2-3-0.7-4.2-1.2h-0.1c-0.2-0.1-0.5-0.2-0.8-0.3l-0.5-0.1l-0.4,0.3
	c-0.1,0.1-0.2,0.2-0.3,0.2c-1.9,1.5-5.9,4.6-10.2,4.6c-2.3,0-4.4-0.8-6.3-2.5l-1.1-1c-0.5-0.4-1-0.9-1.4-1.2l-0.4-0.3l-0.5,0.2
	c-0.1,0-0.2,0.1-0.4,0.1c-1.2,0.4-3,0.9-6,1.5c-7.4,1.3-9.9-1.2-11.8-3.8c-0.5-0.7-0.7-0.9-0.9-1.1l-0.2-0.1l-0.2-0.1
	c-1-0.3-1.6-0.1-2.7,0.1c-1.6,0.4-4.2,1.1-7.1-1.5c-2.4-2.2-6.4-8-8-10.4l-0.5-0.8l-0.8,0.5c-1.5,0.9-2.9,1.6-4.4,1.9l-0.7,0.2v0.7
	c-0.9,22.2-5,23.2-6.7,23.6c-0.6,0.2-1.3,0.2-1.9,0.2c-1.9,0-3.9-0.7-5.5-1.9c-4.8-3.6-7.5-11.8-8.1-24.2
	c-0.7-16.3,1.5-28.1,5.9-32.4c1.6-1.6,3.2-1.8,4.4-1.8c1.7,0,3.4,0.6,4.9,1.7l1.4,1.1l0.2-1.7c0.3-2.8,0.4-7.1-0.6-12
	c-1.6-7.6-4.9-11.5-5.5-12.1l-0.1-0.1c-1-1-1-2.6,0-3.5c1-1,2.5-1,3.5,0c0.2,0.2,4.8,4.6,7,14.7c2.1,9.8,0.1,17.5,0,17.8
	c-0.2,0.6-0.5,1-0.9,1.4l-0.6,0.5l0.3,0.7c2.5,6.3,2.8,14.1,2.8,17.1v4.1l1.5-0.9c6.8-4.1,14.2-16.9,15.3-36.4
	c1.1-20.9-5.3-33.8-17.6-35.4c-11.3-1.5-18.9,8.9-19.7,10.1c-0.9,1.4-2.8,1.8-4.2,0.9c-1.1-0.7-1.6-2.1-1.2-3.4l0.3-0.8l-0.8-0.4
	c-1.7-0.9-4-2.8-5.7-7c-1.3-3.4-1.6-6.4-1.7-8.7v-0.1c-0.2-2.5-0.3-3.5-0.9-3.9c-3.6-3.1-8.3-10-6.3-16.2c0.3-0.8,0.5-1.5,0.7-2.1
	v-0.1c0.9-2.5,0.9-3.3-2-8.6c-4-7.3-2.4-11.5-1.1-14.8l0.1-0.2c0.3-0.9,0.6-1.6,0.8-2.4c0.3-1.7-0.4-4.4-1-7.1
	c-0.6-2.6-1.4-5.6-1.5-8.6c-0.1-3.5,0.9-6.1,1.6-8c0.6-1.5,1-2.5,0.8-3.5l-0.1-0.8c-0.1-0.6-0.2-1.2-0.3-1.9l-0.4-2.5l-1.4,2.1
	c-5.9,8.9-13.6,21.6-17.3,32c-2.1,6.1-3.7,15.3-4.4,26.7c-1.1,17.1-0.2,34.6,1,38.1c0.5,1.6-0.4,3.3-1.9,3.8
	c-1.6,0.5-3.3-0.4-3.8-1.9c-1-3.1-2-14-1.8-28v-2.4l-1.7,1.7c-2.8,2.8-5.8,4.8-8.9,6c-8.5,3.2-17.2,6.5-18.1,20.5
	c-0.8,11.6,4,20,14.9,26.3c1.8,1,3.3,1.9,4.6,2.6l0.5,0.3c4.9,2.6,7.9,4.2,8.7,8.7c0.2,1.4,0.4,4,0.5,8.2c0.3,7.4,0.8,18.6,2.5,22.7
	c2.3,5.6,13.5,14.1,19.6,14.9c1.1,0.1,2.1,0.9,2.5,2c0.4,1.1,0.1,2.3-0.7,3.1c-3.2,3.2-6.6,5.9-9,7.8l-0.4,0.4
	c-0.7,0.6-1.4,1.1-1.9,1.6l-0.4,0.3v0.5c0.1,2.8,3,11.5,11.7,20.7c9.5,10.1,24.3,12.8,30.2,11.9c1.6-0.2,2.9-0.5,3.9-0.7l0.8-0.2
	l-0.1-0.8c-0.1-1,0.4-2,1.2-2.6c0.6-0.5,1.4-0.7,2.2-0.5c0.8,0.1,1.5,0.5,2,1.2c0.9,1.2,8.6,12.1,10.1,22.8l0.2,1.6l1.3-1
	c6.7-4.8,24-15.9,38.1-15.2l1.1,0.1v-1.1c0-1.8,0.1-3.7,0.3-5.6c2.3-18.3,11.6-28.4,20.3-35.7c2.8-2.3,5.2-4.8,7.3-7.3l1.2-1.4
	L1107.6,522.4z"/>
<path fill="#E6074D" d="M1174.6,386.8c-4.4,2.2-11.6,4.7-21.1,4.7c-3.9,0-7.9-0.4-11.9-1.3c-11.8-2.5-20.6-9.5-25.5-20.2
	c-4.3-9.4-5.6-21.6-3.6-35.2c2.3-15.9,10-26.1,16-31.8l-1.2-1.6c-11.1,7.4-29.8,23.6-30.2,48.8c-0.6,37.3,32.4,51.4,54.7,51.8
	c0.3,0,0.5,0,0.8,0c17.5,0,22.2-9.9,23.5-14.2l0.6-2.2L1174.6,386.8z"/>
<path fill="none" d="M1094.6,637.1c-0.1,0-0.2,0-0.3,0c-0.7,0.1-1.3,0.4-1.7,0.9c-0.4,0.5-0.6,1.2-0.5,1.8
	c0.4,3.6,10.9,87.7,42.3,133.8c0.8,1.1,2.3,1.4,3.5,0.7c1.1-0.8,1.4-2.3,0.6-3.5c-30.2-44.3-41-128-41.5-131.5
	C1096.9,638,1095.8,637.1,1094.6,637.1z"/>
<path fill="#C3F0B2" d="M540.8,746.3c-1-1-4-3.3-10.3-3.3h-0.6c-6.6,0.2-10.8,2.3-12.4,4.3c-0.8,1-1.1,2-1,2.9c0,0.1,0,0.2,0,0.3
	c0,1.1,0.5,2,1.4,2.8c2,1.8,6.2,2.9,11,2.9c0.6,0,1.3,0,1.9-0.1c6.8-0.4,11.4-4.4,11.5-6.8C542.3,748.5,541.7,747.3,540.8,746.3
	L540.8,746.3z"/>
<g id="vs-secondary">
	<path fill="#C3F0B2" d="M1164.9,750.1c-0.6-0.6-9.6-10.8-21.3-33.8c-1-1.9-2-4-3-6.2c-1.9-4-3.7-8.2-5.4-12.9
		c-4.3-11.9-7.2-24-10-35.8c-2.4-10-4.8-20.3-8.1-30.2c-0.7-2-1.4-3.9-2-5.7c-5.6-14.7-13.8-23.6-19.6-28.4l-1.2-1l-0.4,1.6
		c-0.4,1.6-1.1,3.2-2.2,4.6c-3.3,4.3-9.3,6.8-18,7.5c-11.8,0.9-22.5-4.3-30.3-8.1c-3-1.4-5.8-2.8-7.8-3.4c-0.1,0-0.2,0-0.2-0.1
		c-0.8-0.2-3.9-0.4-11.7,6c-5.2,4.3-10.5,9.8-14.4,13.9l-1.1,1.2c-3.4,3.6-13.6,17.6-24.4,32.5l-0.6,0.9c-1.9,2.7-3.9,5.4-5.9,8.1
		c-7.3,10-15,20.5-21.6,29.2l-0.1,0.2c-3.7,4.8-6.9,8.9-9.5,11.9c-0.1,0.1-0.2,0.2-0.3,0.3c-5.6,6.7-10,11.1-12.9,14l-0.1,0.1
		c-5,5.1-6.8,7-7.1,11c-0.1,1.2,0,2.7,0.1,5c1,11.9,16.5,28.4,30.4,28.4h0.6c9.1-0.3,18.1-13,26.1-24.2l0.1-0.1
		c4.1-5.7,7.9-11.1,12-15.4c0.6-0.6,1.2-1.3,1.8-1.9l0.4-0.4c10.2-10.9,22.5-24.9,27.3-30.4l0.3-0.3c0.5-0.6,1.3-1,2.1-1
		c0.8,0,1.6,0.2,2.2,0.7s1,1.3,1,2.1c0.1,0.8-0.2,1.6-0.7,2.2c-0.1,0.1-14.4,16.5-26.5,29.5l-0.3,0.3v0.4c0,0.1,0,0.2,0,0.3v0.2
		c0.4,3.3,1.1,10.1,0.5,16.6c-0.1,1-0.2,2-0.3,2.9c-0.7,7-1.3,13,3,20c2.4,3.8,5.4,6,8.6,8.3c3.6,2.6,7.4,5.3,9.6,10.2
		c1.1,2.4,2,6.1,3.3,11.4l0.8,3.6c1.1,4.7,2.6,11.1,4.3,17.1v0.3l0.1,0.1c0,0.1,0,0.1,0.1,0.2c2.6,8.8,5.3,14.9,8.3,18.6
		c0.2,0.2,0.3,0.4,0.4,0.6l0.2,0.4l0.5,0.1c15,4.4,27.3,9.5,36.6,15.2c2.7,1.7,5.2,3.2,7.6,4.7l0.2,0.1h0.2c0.7,0.1,3.1,0.3,6.4,0.3
		c8.4,0,22.6-1.5,31.2-10.4c0.3-0.3,0.7-0.6,1-0.7l0.4-0.2l0.1-0.4c8.5-26,19-50.8,31.2-73.8c2.7-5.2,5.5-10.8,8.3-16.7l0.3-0.6
		L1164.9,750.1z M1137.9,774.3c-1.1,0.8-2.7,0.4-3.5-0.7c-31.4-46.1-41.9-130.2-42.3-133.8c-0.1-0.7,0.1-1.3,0.5-1.8s1-0.9,1.7-0.9
		c0.1,0,0.2,0,0.3,0c1.2,0,2.3,0.9,2.5,2.2c0.4,3.5,11.3,87.3,41.5,131.5C1139.3,772,1139,773.5,1137.9,774.3z"/>
	<path fill="#C3F0B2" d="M856.3,643.1c-6-0.5-13.1,5.7-15,8h-1.7l1.5,1.7c1.4,1.6,3.3,2.2,5.5,2.2c4,0,9.1-2.1,14.4-4.4l1.6-0.7
		l0.1-0.5c0.2-1.3,0-2.4-0.5-3.4C861.2,644.2,859.2,643.3,856.3,643.1z"/>
	<path fill="#C3F0B2" d="M892.5,518c-1.2,0.3-2.2,0.7-2.9,1.3l-0.8,0.6l0.7,0.8c0.1,0.1,7.3,8.4,13.1,9c0.2,0,0.5,0,0.7,0
		c1.4,0,2.4-0.4,3.1-1.1c1.3-1.3,1.3-3.6,1.2-4.3c0-0.2,0-0.4,0.1-0.5l0.3-0.7l-0.6-0.5C902.4,518.3,896.3,517.2,892.5,518z"/>
	<path fill="#C3F0B2" d="M655.6,711l-0.3-0.2H655c-7.4,0.7-11.2,1.6-12.8,3.1c-0.7,0.7-1.4,1.7-1.9,2.8l-0.6,1.3l1.4,0.1
		c1.6,0.1,3.9,0.2,6.2,0.2c3.4,0,7.1-0.2,9.8-0.9c1.1-0.3,2.4-0.8,2.5-1.8C659.7,714.3,657.6,712.2,655.6,711z"/>
</g>
<path fill="#FEACAA" d="M618.2,732.8l-0.1-0.2l-0.2-0.2c-1-1-2.9-1.5-5.8-1.5c-5.4,0-12.4,1.8-18,4.6c-5.4,2.7-8.6,6-8,8.4
	c0.4,1.7,1.2,2.8,2.5,3.5c1,0.5,2.3,0.7,3.7,0.7c5.4,0,13-3.1,17.6-5c5.5-2.2,7.3-5.3,8-7C618.6,734.3,618.3,733.1,618.2,732.8z"/>
<path fill="#FFF996" d="M1026.4,477.9l-0.7-0.3l-0.5,0.6c-0.5,0.6-4.7,6.5-3.8,27.5c0.6,13.9,3.8,18.3,5.7,19.6
	c0.4,0.3,0.7,0.5,1.1,0.6l0.9,0.3l0.3-0.9c1.5-3.8,2.5-15.4,2.5-28.1l0,0c0-9.9-2.3-16.5-4.6-18.7
	C1027,478.3,1026.7,478,1026.4,477.9z"/>
<path fill="#FFF996" d="M1164.8,382.1c-10-0.9-17.9-4-23.4-9.3c-13.8-13.1-14.1-46.2-9.9-54.6c3.5-7.1,4.3-9.6,4.4-11.5l0.1-2.4
	l-1.8,1.5c-4.9,4.2-13.4,13.7-15.8,29.8c-1.5,9.9-4,42.6,24.4,48.6c3.7,0.8,7.3,1.2,10.7,1.2c3.9,0,7.8-0.5,11.4-1.5l5.4-1.5
	L1164.8,382.1z"/>
<polygon fill="#FFF996" points="691.7,651.2 721.8,659 739.3,640.4 712.2,631.5 "/>
<path fill="#FFF996" d="M442.2,706.4L442.2,706.4c-0.8-0.8-3-2.2-8.7-2.3h-0.2c-5.1,0-9.9,1.5-11.7,3.7c-0.7,0.9-0.7,1.6-0.6,2
	c0,0.1,0,0.3,0,0.3c0,0.6,0.3,0.9,0.6,1.1c1.2,1,3.8,1.4,6.6,1.4c1.5,0,3-0.1,4.4-0.4c7.6-1.3,9.6-2.9,10.1-3.5l0.3-0.3V708
	C442.9,707.5,442.6,706.9,442.2,706.4z"/>
<path fill="#97C3FB" d="M395.1,651.1c-12.8-1.9-26.9-5.9-37.5-10.5l-1.3-0.6l-0.1,1.5c-0.1,3.6-0.4,15.7,1.2,22.1l0.3,1l1-0.3
	c9.3-2.9,19-5.9,29-8.9l11.7-3.6L395.1,651.1z"/>
<path fill="#C4DEFF" d="M453,766.6l-2.2-36.1l-1,0.1c-11.7,1.2-25.8,2.9-30.9,4l-0.8,0.2l0.1,0.9c0.5,7.2,2.4,29.4,3.6,36.2l0.2,1
	l1-0.1c5.1-0.7,18.4-3.4,29.4-5.9L453,766.6z"/>
<polygon fill="#C4DEFF" points="539.3,783.1 431.7,792.9 434.1,813.2 543.8,800.8 "/>
<path fill="#C4DEFF" d="M753.1,879c35.4-15.4,72.6-31.4,110.5-47.7c61.7-26.5,108.9-46.6,126.4-54l0.6-0.3v-19.7l-1.4,0.6
	c-5.4,2.3-13.2,5.6-23.1,9.7l-13.3,5.6C903,794.1,813,831.9,723.4,869.6c-217,91-266.9,111.6-275.1,114.7l-0.7,0.3l0.9,25.2l1.3-0.5
	c3.2-1.2,7.6-2.8,13-5c34.8-13.9,111.9-47.5,193.5-83.1C689.3,906.8,721.5,892.8,753.1,879z"/>
<path fill="#C4DEFF" d="M1141.7,697.5c1.3,3.5,2.8,6.9,4.3,10.1c0.6,1.3,1.2,2.5,1.8,3.7l0.4,0.8l39.2-16.6l0.1-0.4
	c2-6,4.1-12.2,6.2-19.1l0.6-2.1l-53,22.7L1141.7,697.5z"/>
<path fill="none" d="M358.7,551.7c4.8,14.7,16.7,42.3,41.6,62c0.8,0.7,2.1,0.5,2.8-0.3l0,0c0.7-0.9,0.5-2.1-0.3-2.8
	c-24.1-19.1-35.5-45.9-40.2-60.1c-0.4-1.1-0.4-1.3-0.6-1.5c-0.4-0.6-1-0.9-1.7-0.9c-0.4,0-0.8,0.1-1.1,0.3c-0.8,0.5-1.1,1.6-0.7,2.5
	l0.1,0.2C358.5,551.2,358.6,551.4,358.7,551.7z"/>
<path fill="none" d="M439,586.9c-39.5-18.1-71.2-65.1-72.5-67.1c-0.3-0.5-0.7-0.8-1.3-0.9c-0.1,0-0.3,0-0.4,0
	c-0.4,0-0.8,0.1-1.1,0.3c-0.9,0.6-1.2,1.9-0.6,2.8c1.3,2,33.2,49.8,74.2,68.6c1,0.4,2.2,0,2.7-1c0.2-0.5,0.2-1,0.1-1.5
	C439.8,587.5,439.5,587.1,439,586.9z"/>
<path fill="none" d="M443.1,346.4c1.4,0.1,2.8,0.2,4.3,0.2c14.3,0,25.9-6.7,28.3-9.4c1.5-1.8,2.8-7.5,3.4-15.7V321l0.4-0.3
	c4.1-3.1,6.3-5.8,6.3-5.9l0,0c0.3-0.4,0.5-0.9,0.4-1.5c-0.1-0.5-0.3-1-0.7-1.4c-0.4-0.3-0.9-0.5-1.5-0.4c-0.5,0.1-1,0.3-1.4,0.7l0,0
	c0,0-2.6,3.1-7.5,6.5c-5.2,3.6-13.8,7.9-25.2,8.2c-20,0.5-28.9-5.9-29.8-6.7c-0.4-0.3-0.9-0.5-1.3-0.5c-0.6,0-1.1,0.2-1.5,0.7
	c-0.4,0.4-0.5,0.9-0.5,1.5c0,0.5,0.3,1,0.7,1.4c0.1,0.1,0.2,0.1,0.3,0.2l0.4,0.3v0.5C418.1,333.8,426.8,344.8,443.1,346.4z"/>
<g id="vs-hair">
	<path fill="#857565" d="M507.7,144.9c-0.9-0.4-1.5-1.3-1.5-2.3c0-0.9,0.5-1.7,1.3-2.2l0.2-0.2c0.5-0.5,2.2-2.6,1.9-9
		c-0.3-6.6-9.5-8-11.7-8l0,0c-1.1,0-2.1-0.9-2.3-2s0.3-2.3,1.3-2.8l0.6-0.2l0,0c0.9-0.6,1.9-1.4,2.9-2.4l0.8-0.7l-0.8-0.7
		c-0.8-0.7-2.6-2-6.7-3.8c-8-3.6-21.4-0.6-21.5-0.6c-1.1,0.2-2.2-0.2-2.7-1.2c-0.5-1-0.4-2.2,0.4-3c0.6-0.6,1.3-1.4,1.9-2.1l1-1.2
		l-1.5-0.4c-1.8-0.5-4.6-0.8-8-0.9c-5.6-0.2-17,3.5-24.5,6c-9.7,3.2-11.4,3.6-13,2.2c-0.2-0.1-0.3-0.3-0.4-0.5
		c-1.1-1.6-0.4-3.2,0.9-5.5c0.3-0.6,0.8-1.5,1.1-2.3l0.5-1.3h-1.4c-5.7-0.1-28.3,7.2-33.5,14.3c-0.5,0.7-1.3,1.1-2.1,1
		c-0.8,0-1.6-0.5-2-1.2c-1.2-1.9-0.6-5,0.6-9.9l0.1-0.2c0.2-0.7,0.3-1.4,0.5-2.2l0.3-1.6l-1.6,0.5c-2.2,0.6-8.4,3-18.7,11.5
		l-2.1,1.7c-13.8,11.3-20.1,16.5-24.5,26.9c-0.5,1.1-1.6,1.7-2.7,1.5c-1.1-0.2-2-1.1-2.1-2.3c-0.1-1.1-0.3-1.9-0.4-2.3l-0.4-1.1
		l-1,0.5c-0.6,0.3-1.7,1-3.3,2.5c-4.1,4-6.1,12.1-7.1,16.6c-0.9,3.7-1.3,5.2-3.3,5.5c-1.5,0.2-2.6-0.5-3.4-2.5l-0.9-2l-0.9,2
		c-1,2.3-2.5,7.5-3.6,19.3l-0.1,0.9c-0.1,1-0.6,1.8-1.3,3.2c-1.9,3.6-5.5,10.3-4.4,22.8c1.3,14.4,3.9,18.9,5.6,21.9
		c0.1,0.1,0.2,0.3,0.2,0.4l0.3,0.6l0.7-0.1c4.4-0.6,8.6,0.4,12.4,2.8c3.6,2.2,6,5.3,7.5,7.5l1.6,2.4l0.2-2.9
		c0.3-4.1-0.6-11.8-1.3-17.4l-0.1-0.8c-0.5-4-1-8.2-1.3-12.5c-1.1-12.9,2.7-26.4,5-33.4l0.2-0.5l-0.3-0.4c-0.7-1-0.5-2.4,0.5-3.2
		c0.2-0.2,0.9-0.8,2-1.7c6-5,22.5-17.6,45.2-27.9c14.3-6.5,28.1-10.7,37.2-13.1c0.1,0,0.3-0.1,0.4-0.1l0.3-0.1
		c5.6-1.5,10-2.4,12.6-2.9c5.4-1.1,6-0.9,6.8-0.4c0.7,0.5,1.1,1.3,1.1,2.1c0,0.5-0.1,0.9-0.4,1.3l-0.9,1.4l1.7,0.1
		c5.9,0.3,10.8,0.6,14.4,0.9c6.2,0.5,27.2,2.8,35.4,9.9c6.6,5.8,15,25.4,16.9,47.1c0.1,1.1,0.2,2.2,0.3,3.3l0.6,7.4l1.4-6.9
		c1.5-7.4,2.3-14.3,2.2-21.3l0,0C516.5,149.5,508.2,145.1,507.7,144.9z"/>
	<path fill="#857565" d="M493.6,286.2l-0.8,1.7c-6,12.5-17.5,20.2-35.3,23.6c-3.5,0.6-6.9,1-10.1,1c-19.8,0-31.8-12.1-36.1-22.4
		c-0.9-2.3-1.7-4.6-2.2-6.9l-0.7-3l-1.2,2.8c-1.8,4-4,11.6-4.8,25.4c-1,18.2,1.8,36.3,4.6,46.2l0.7,2.5l1.2-2.4
		c0.3-0.6,0.8-1,1.4-1.1c0.9-0.2,1.9,0.3,2.3,1.2c0.1,0.3,10.8,25.9,22.1,29.9l0.8,0.3l0.4-0.8c0.7-1.3,0.8-3.7,0.9-5.8
		c0.1-2.8,0.2-5.2,2-6.3c2.2-1.2,3.7,0.4,5.7,3.9c1.6,2.8,3.8,6.5,6.9,7c0.4,0.1,0.8,0.1,1.3-0.2c1.1-0.8,1.6-3.1,2.1-6.6
		c0.4-2.6,0.6-4,1.9-4.7c0.6-0.4,1.4-0.4,2.1-0.2c1.8,0.7,2.2,2.6,2.6,4.5c0.4,1.7,0.6,2.7,1.1,3.2l0.4,0.3h0.4h0.1
		c2.1-0.3,4.6-6.2,5.7-10.2c0.2-0.8,0.9-1.4,1.8-1.5c0.8-0.1,1.7,0.4,2,1.2c0,0,1.5,3.2,2.7,6.5l0.6,1.7l1.1-1.5
		c2.7-3.7,6.7-10.5,8.4-14.1c0.9-1.9,2-2.7,3.4-2.4c0.8,0.2,1.7,0.5,2.4,2.8l0.8,2.7l1-2.7c1.7-4.3,2.9-8.4,3.5-11.3l1.5-8.2
		c0.1-0.8,0.7-1.4,1.4-1.6c0.4-0.1,0.9-0.1,1.3,0.1l1.3,0.5v-1.4c0.2-8.8,0.3-38.6-7.8-52.1L493.6,286.2z M417.9,323.5
		c-0.1-0.1-0.2-0.2-0.3-0.2c-0.4-0.3-0.6-0.8-0.7-1.4c0-0.5,0.1-1.1,0.5-1.5c0.4-0.5,0.9-0.7,1.5-0.7c0.5,0,0.9,0.2,1.3,0.5
		c0.9,0.7,9.8,7.2,29.8,6.7c11.4-0.3,20-4.6,25.2-8.2c5-3.4,7.5-6.5,7.5-6.5l0,0c0.3-0.4,0.8-0.7,1.4-0.7c0.5-0.1,1,0.1,1.5,0.4
		c0.4,0.3,0.7,0.8,0.7,1.4c0.1,0.5-0.1,1-0.4,1.5l0,0c-0.1,0.1-2.2,2.7-6.3,5.9l-0.4,0.3v0.5c-0.6,8.2-1.8,14-3.4,15.7
		c-2.4,2.8-13.9,9.4-28.3,9.4c-1.5,0-2.9-0.1-4.3-0.2c-16.4-1.6-25.1-12.6-24.9-22.1v-0.5L417.9,323.5z"/>
</g>
<path fill="none" d="M793.8,622.2V633c0,0.8,0.7,1.5,1.5,1.5s1.5-0.7,1.5-1.5v-10.8c0-0.8-0.7-1.5-1.5-1.5S793.8,621.4,793.8,622.2z
	"/>
<path fill="none" d="M800.2,711.2l-0.5-6.4c-0.1-0.8-0.7-1.4-1.5-1.4h-0.1c-0.8,0.1-1.4,0.8-1.4,1.6l0.5,6.4
	c0.1,0.8,0.7,1.4,1.5,1.4h0.1C799.7,712.7,800.3,712,800.2,711.2z"/>
<path fill="none" d="M796.9,658.2L796.9,658.2c0.9-0.1,1.5-0.8,1.5-1.6l-0.6-12.6c0-0.4-0.2-0.8-0.5-1s-0.6-0.4-1-0.4h-0.1
	c-0.4,0-0.8,0.2-1.1,0.5c-0.3,0.3-0.4,0.7-0.4,1.1l0.6,12.6C795.4,657.6,796.1,658.2,796.9,658.2z"/>
<path fill="none" d="M838.3,609.2c-0.2,0-0.4,0-0.6,0c-2,0.1-12.7,2.9-21.1,5.2c-3.4,0.9-5.3,3.9-5.3,6.2c0,0.1,0,0.2,0,0.4v0.4
	c-0.1,1.9-0.2,5.3,0.4,7.9c0.8,3.4,2.8,5.1,6.1,5.1c0.3,0,0.5,0,0.8,0c2-0.2,21.9-7,23.4-8.1c2-1.5,2-7.6,1.7-10.6
	C843.3,612.4,842.6,609.2,838.3,609.2z"/>
<path fill="#808080" d="M957.8,563.8c0-1.1-0.1-1.9-0.2-2.4c-0.2-1.4-0.6-3.7-1.5-4.4l0,0c-0.5-0.3-1.3-0.5-4.6,0.3
	c-2.8,0.7-8.8,2.3-17.8,4.8l-1,0.3l0.3,1c0.6,2.2,1.3,4.6,2.3,7.3c3.3,9.6,3.1,19,2.7,28.9c-0.2,5.6-0.3,11.3,0.1,17.7
	c0.9,14.1,4.6,27.2,6.2,32.2l0.2,0.5l0.5,0.2c0.5,0.1,1,0.3,1.7,0.5l1.1,0.4c2.2,0.8,4.9,1.7,8,2.6l1.3,0.4v-1.3
	C957.4,625.5,958.2,576.3,957.8,563.8L957.8,563.8z"/>
<path fill="#808080" d="M1382.5,447.7c-0.5-0.6-1.2-1.2-1.8-1.7c-2.7-1.9-6.3-2.7-9.6-2c-7.1,1.5-33.5,10.4-78.5,26.5
	c-11.3,4-22,7.6-32.3,11.1h-0.1c-26.9,9-50.2,16.8-57.5,24.8c-0.5,0.5-0.9,1.1-1.3,1.6l-1.4,2l2.4-0.5c2-0.4,3.9-0.3,5.7,0.3
	c2.4,0.7,4.6,2.2,6.6,4.4l1.1,1.2l0.6-1.5c1-2.6,2.3-4.4,4.1-5.3c7.8-4.3,137.5-53,161.5-59.3l1.5-0.4L1382.5,447.7z"/>
<path fill="#808080" d="M954.4,894.7v-0.5l-0.5-0.3c-0.8-0.5-1.5-1.2-2.2-2.1c-2.7-3.8-4.4-16.7-5-27.6v-0.6l-11.4-4.5l-0.5,0.4
	c-1.3,1.1-3.8,2.4-7.9,4.1l-1.2,0.5c-11.6,4.8-27.5,11.7-31.3,15.5c-0.7,0.7-1.3,1.7-1.9,3l-0.7,1.6l1.7-0.2
	c4.4-0.5,11.4,0.2,19.8,6.3c9.5,6.9,30.7,17.9,42.4,23.9l1.8,0.9l-0.4-2C955.6,904.9,954.6,898.4,954.4,894.7z"/>
<path fill="#808080" d="M1076.3,917.4l-0.5-0.1c-6.3-1-22.8-4.4-39.4-13.8c-14.7-8.3-31.7-14.8-40.6-17.9l-1.6-0.6l0.3,1.7
	c5.1,30.9,9.9,50.2,13.8,55.8c3.3,4.7,20.4,12.9,52.2,25.1c3.2,1.2,4.8,1.8,5.8,2.3l0.8,0.4l0.4-0.8c6-10.5,8.4-20.5,8.4-20.5
	c0-0.1,0.1-0.3,0.1-0.4l0.1-0.3l-0.1-0.3c-0.2-0.6-0.2-1.3-0.2-2c0-1.9,0.5-4.3,1-6.8c1.2-6.1,2.9-14.4-0.3-21.2L1076.3,917.4z"/>
<path fill="#808080" d="M847.2,699.8L847.2,699.8c-1.4-1.1-5.1-0.9-11.3,3.1l-0.5,0.3v0.6c0.4,8.6,0.2,19,0.2,22v1h1.5
	c1.8,0,3.6-0.1,5.5-0.1h0.7l0.2-0.6C851.7,704.9,848,700.5,847.2,699.8z"/>
<path fill="#808080" d="M830.6,706.9l-1.6,1.6c-4.3,4.2-8.8,10.1-13.4,17.3l-1,1.6h1.8c3.5-0.1,8-0.1,13.2-0.3h1v-1
	c0.1-5.6,0.1-11.6,0-16.9V706.9z"/>
<path fill="#808080" d="M829.9,701l0.4-0.3v-0.5c-0.2-2.9-0.5-4.8-0.8-5.7l0,0c-0.4-0.9-1.6-1.9-3.7-1.9c-2,0-9.1,1.2-15.4,17.3
	c-2,5.1-3.6,10.3-4.9,15.6l-0.2,0.8l0.8,0.3c0.7,0.3,1.4,0.5,2,0.7l0.7,0.1l0.4-0.6C814,718.5,821.7,707.4,829.9,701z"/>
<path fill="#808080" d="M942.5,697l0.2-0.3c1.6-1.9,3.4-4.2,5.4-6.8l0.7-0.9l-1-0.6c-5.3-3.1-13.4-7.7-21.5-11.7
	c-11-5.5-15.7-5.4-22.9-5.2h-0.7c-0.6,0-1.2,0-1.8,0c-0.1,0-0.2,0-0.3,0c-10.5,0-18.8-10.2-21.9-14.6c-1.8-2.5-5.1-5.5-12.9-2.1
	c-0.8,0.3-1.6,0.7-2.4,1.1c-7.9,3.5-19.9,8.9-27,0.5c-2.7-3.2-3.2-7.6-1.5-12.6c2.7-7.7,11.3-16.9,21.9-18.8
	c5.2-0.9,10.6-0.5,16.2,1.2l1.6,0.5l-0.3-1.7c-2.2-10.7-7.8-34.8-9.5-42l-0.2-1l-17,5c-22.1,6.5-45.4,13.3-49.9,14.9
	c-6.8,2.3-8,5.1-8,9.5c0,2,0.3,13.9,0.5,23.5c0.5,20.1,1.3,48.4,1.8,66.1c0.2,8,0.4,13.8,0.4,15.7v0.5l0.4,0.3c2.6,2,4.8,3.6,6.8,5
	l1.2,0.8l0.4-1.4c1.3-4.8,2.9-9.6,4.7-14.2c7.2-18.5,16.4-20.4,20.1-20.4c3.8,0,7.1,2.1,8.3,5.1c0.3,0.8,0.5,2,0.7,3.5l0.2,1.4
	l1.3-0.7c6-3.2,10.8-3.5,13.9-1c5,3.9,4.6,13.7-1.1,29.3l-0.5,1.4h1.5c3-0.1,6.1-0.2,9.3-0.3l2.1-0.1l0.2-0.1
	c25-9.9,70-27.2,80.4-29L942.5,697z M842,626.4c-1.5,1.1-21.4,7.9-23.4,8.1c-0.3,0-0.5,0-0.8,0c-3.3,0-5.3-1.7-6.1-5.1
	c-0.6-2.6-0.5-6-0.4-7.9v-0.4c0-0.2,0-0.3,0-0.4c0-2.3,1.9-5.2,5.3-6.2c8.5-2.3,19.1-5.1,21.1-5.2c0.2,0,0.4,0,0.6,0
	c4.3,0,5,3.2,5.3,6.5C844,618.8,844,624.8,842,626.4z M796.8,622.2V633c0,0.8-0.7,1.5-1.5,1.5s-1.5-0.7-1.5-1.5v-10.8
	c0-0.8,0.7-1.5,1.5-1.5S796.8,621.4,796.8,622.2z M798.7,712.8c-0.8,0-1.4-0.6-1.5-1.4l-0.5-6.4c-0.1-0.8,0.6-1.5,1.4-1.6h0.1
	c0.8,0,1.4,0.6,1.5,1.4l0.5,6.4C800.3,712,799.6,712.7,798.7,712.8L798.7,712.8z M795.2,643.1c0.3-0.3,0.6-0.5,1.1-0.5h0.1
	c0.4,0,0.7,0.1,1,0.4c0.3,0.3,0.5,0.6,0.5,1l0.6,12.6c0,0.8-0.6,1.5-1.4,1.6H797c-0.8,0-1.5-0.6-1.5-1.4l-0.6-12.6
	C794.8,643.8,794.9,643.4,795.2,643.1z"/>
<path fill="#808080" d="M352.1,347.6v-0.3l-0.2-0.2c-8.3-9.7-10.5-19.1-13.5-32l-0.1-0.4c-2.1-8.7-3.9-14-5.1-17l-0.5-1.2l-1,0.7
	c-3.4,2.3-7.6,3.5-12.2,3.5h-0.3c-8.7,0-20.1-4.6-25.9-17.6c-2-4.4-3.2-9.1-3.6-14.1l-0.1-1l-1,0.1c-6.9,1-23,3.9-35.3,8.1
	c-1.8,0.6-3.3,1.2-4.5,1.9l-2.9,1.5l3.3,0.3c1.7,0.2,3.3,0.6,4.7,1.3c3.3,1.6,5.6,4.4,6.9,8.3c2.1,6.6,3.9,18.1,6,31.4
	c2,13.1,4.3,28,7.6,42.6c4.5,20,8.6,34.3,10.7,41l0.5,1.6l1.2-1.2c4.7-4.7,8.8-8.8,12.4-12.6c6.9-7.2,12.9-13.8,18.1-19.5l0.2-0.2
	c10.3-11.4,16.5-18.3,21.3-20.2c4.8-2,10.1-1.6,12.8-1.2l1.4,0.2l-0.3-1.4C352.3,349.2,352.2,348.3,352.1,347.6z"/>
<g id="vs-primary">
	<path fill="#6495FB" d="M638.6,399.7l-0.1-0.1c-0.1-0.1-0.2-0.3-0.2-0.4l-0.1-0.3c-1.3-2.6-2.8-4.5-4.7-5.6l-0.3-0.1
		c-20.6-6.2-60.6-22.5-84.9-39.5C533,343,524,340.9,519.9,340.6l-1.2-0.1l0.1,1.2c1,10.1,1.6,26.7-1.3,48.4
		c-4.5,34.7-10.6,44.2-11.2,45.1c-0.5,0.8-1.4,1.2-2.4,1c-0.9-0.1-1.7-0.7-2-1.6c-0.1-0.2-6.4-17.5-16.3-26.8
		c-0.5-0.5-0.8-1.1-0.8-1.7s0.2-1.3,0.7-1.8s1.1-0.8,1.7-0.8c0.6,0,1.3,0.2,1.8,0.7c6.4,6,11.4,14.8,14.3,21.1l1.1,2.2l0.8-2.4
		c2-6,4.9-17.1,7.4-35.7c2.6-20.2,2.2-36,1.4-45.7l-0.3-3.5l-1.6,3.1c-2.4,4.8-5.4,10.1-9.5,17.1c-2.2,3.8-4.5,7.5-7.1,11.5
		c-2.3,3.6-4.6,6.9-6.5,9.7c-6.2,9.2-11.2,16.5-14.2,24.9c-4.5,12.4-4.8,32.6-4.8,36.5v0.2l0.1,0.2c0.9,2.5,1.6,4.3,1.7,4.3
		c0.3,0.6,0.3,1.3,0,1.9s-0.7,1.1-1.3,1.3c-1.4,0.5-2.8-0.1-3.3-1.4c-0.1-0.2-0.8-2-2-5.2c-1.7-4.6-3.2-9.3-4.5-14
		c-3-10.3-3.8-13.1-22.4-24.5c-2.3-1.4-4.9-3-7.7-4.7l-1.1-0.7c-20-12.2-50.3-30.6-65.8-42.4c-0.7-0.5-1.3-1-1.9-1.5l-2.7-2.1
		l1.1,3.3c1.3,3.7,3,8.1,5,13c7.5,17.9,16.1,29.5,23.8,39.7l1.9,2.5c5.9,7.9,14,17.1,19.5,22.7l1.1,1.1l0.6-1.5
		c2.1-5.5,5-10.9,7-14.4c6.6-11.4,8.5-11.7,9.2-11.8c0.6-0.1,1.3,0,1.9,0.4c0.6,0.4,0.9,0.9,1.1,1.6c0.2,1-0.3,2.1-1.2,2.6l-0.2,0.2
		c-2.5,2.5-12.1,17.8-14.6,28.1c-0.2,0.8-0.8,1.5-1.6,1.8c-0.9,0.3-1.7,0.1-2.4-0.5c-4.1-3.5-16.3-16.7-24.2-27.3l-1.9-2.5
		c-7.4-9.9-16.7-22.2-24.4-40.7c-2.3-5.5-4.2-10.5-5.7-14.8l-0.1-0.2l-0.3-0.3l-0.2-0.1c-1.4-0.6-8.4-2-13.7,0.2
		c-3.7,1.5-10.3,8.8-19.4,18.9l-0.5,0.6c-5.1,5.7-11,12.1-17.8,19.3c-4.6,4.8-9.9,10.1-16.1,16.2c-7.2,7-14.4,13.9-20.2,19.4
		l-1.5,1.4c-4.4,4.2-8.2,7.8-10.8,10.3l-0.8,0.8l1,0.7c1.4,1,3,2.3,4.6,3.8c8.1,7.4,17.3,18.7,22.3,27.5c1,1.8,1.9,3.7,2.8,5.8
		c3.9,9.2,6.1,19.7,7,25.2l0.4,2.4l1.4-2c5.6-8.1,16.6-23.8,26.9-37c3.2-4.1,6.7-8.5,11.1-14c10.7-13.3,20.7-25.3,21.1-25.8
		c0.9-1.1,2.5-1.2,3.5-0.3c1.1,0.9,1.2,2.5,0.3,3.5c-0.3,0.3-9.1,10.9-19,23.1l-0.4,0.5l0.3,0.6c1.3,2.8,13.1,28,15.1,36.8
		c0.8,3.7,0.2,17.7-1,42.1v0.2c-1.6,31.8-3.7,75.5-0.9,93.2l0.1,0.4l0.3,0.2c1,0.8,2.4,1.8,4.2,2.7c11,5.8,36.9,13.8,57.4,13.8
		c0.2,0,0.4,0,0.6,0c0.2,0,0.3,0,0.4,0l0.3,0.1l0.3-0.1c31.7-9.7,66.4-20.4,104.2-31.9c24.8-7.6,49.7-15.2,74-22.6l1-0.3l-0.3-1
		c-0.8-2.7-1.6-7.4-2.8-15.3v-0.2c-1.3-8.4-3.1-19.8-5.8-32.8c-3.5-16.3-11-34.3-21.1-50.6l-0.3-0.4c-1.7-2.8-2.1-6-2.7-11.4
		c-0.2-1.9-0.5-4.2-0.9-7c-0.6-4.7-2.3-10.1-4.2-15.9c-1.9-5.9-3.8-12.1-4.6-17.7v-0.2c-1.2-9.4-1-27.3-0.9-32.6v-0.3
		c0-0.7,0.3-1.3,0.8-1.8s1.1-0.7,1.8-0.7s1.3,0.3,1.7,0.8s0.7,1.1,0.7,1.8v0.2c-0.1,4.3-0.2,19.1,0.5,28.7l0.1,0.9h0.9
		c1,0.2,9.6,2.2,28.4,12.2c14.6,7.7,30.6,16.9,38.9,21.7l0.7,0.4l0.5-0.5c2.5-2.5,6.3-6.5,9.8-11.7c6.1-8.9,9.2-17.7,9.2-26
		C642.9,417.2,641.5,406.3,638.6,399.7z M359.1,548.3c0.3-0.2,0.7-0.3,1.1-0.3c0.6,0,1.3,0.3,1.7,0.9c0.2,0.3,0.3,0.5,0.6,1.5
		c4.7,14.3,16.2,41.1,40.2,60.1c0.9,0.7,1,1.9,0.3,2.8l0,0c-0.7,0.8-2,1-2.8,0.3c-24.9-19.7-36.7-47.3-41.6-62
		c-0.1-0.3-0.2-0.5-0.2-0.6l-0.1-0.2C358,549.9,358.3,548.9,359.1,548.3z M440,589.6c-0.5,1-1.6,1.4-2.7,1
		c-41-18.8-72.9-66.6-74.2-68.6c-0.6-0.9-0.4-2.2,0.6-2.8c0.3-0.2,0.7-0.3,1.1-0.3c0.1,0,0.3,0,0.4,0c0.5,0.1,1,0.4,1.3,0.9
		c1.3,2,33,49.1,72.5,67.1c0.5,0.2,0.9,0.6,1,1.1C440.2,588.5,440.2,589.1,440,589.6z"/>
	<path fill="#6495FB" d="M286.2,508.7c-0.9-5.1-2.4-12.8-5-20.1l-0.5-1.6l-1.7,1.8c-1.6,1.7-3.6,3.8-5.7,6.2l-0.5,0.6l0.4,0.6
		c3.7,5.8,7.5,10.3,11.5,13.4l2,1.6L286.2,508.7z"/>
</g>
<path fill="none" d="M1164.7,355.1c1.1,0.8,2.6,0.7,3.6-0.2l0.1-0.1c1.1-0.7,3.6-2.1,5.2-2.7l0.8-0.3l0.4,0.7
	c0.1,0.2,0.2,0.4,0.3,0.6l0.1,0.2c1.3,2.2,3.6,6.1,6.8,6.1c0.7,0,1.5-0.2,2.3-0.6c1.1-0.6,2.2-1.4,3.4-2.3c2.6-2,4.7-3.5,6.4-3.3
	c1.1,0.1,1.7,0.5,2.7,1.2c1.6,1.1,3.8,2.5,7.7,1.6c1.6-0.3,2.5-0.4,3-0.3h0.2l0.2,0.1c1.1,0.7,2.5,0.6,3.5-0.2c0.6-0.5,1-1.2,1.1-2
	s-0.2-1.6-0.7-2.2c-1-1.2-3.3-2.4-8.7-1.3c-1.4,0.3-1.9,0-3.2-0.8c-1.3-0.8-2.8-1.8-5.4-2.1c-4.2-0.4-7.9,2.4-10.6,4.5l-1.9,1.4
	l-0.6-0.9c-0.4-0.6-0.9-1.4-1.2-1.9c-0.8-1.4-1.6-2.7-2.5-3.5c-1-0.9-2.3-1.2-3.9-1c-3.1,0.4-9.2,3.7-10.2,5.1
	c-0.4,0.7-0.6,1.5-0.4,2.3C1163.6,353.9,1164.1,354.6,1164.7,355.1z"/>
<path fill="none" d="M1218.1,326.3l0.3,0.1c1.2,0.6,2.8,0.3,3.6-0.8l0,0c0.5-0.6,0.7-1.4,0.7-2.2s-0.5-1.5-1.1-2
	c-2.3-1.9-5.2-1-8.6,0c-0.6,0.2-1.1,0.3-1.8,0.5l-0.7,0.2c-0.4,0.1-0.8,0.2-1.2,0.3l-0.4,0.1l-0.4-0.2c-0.5-0.3-1.3-1-2.2-1.7
	l-0.2-0.2c-1.8-1.4-3.4-1.5-4.5-1.4c-2.9,0.5-4.6,3.1-6.3,5.7l-0.2,0.3c-0.4,0.6-1,1.5-1.4,2l-0.7,0.8l-0.8-0.7
	c-0.4-0.4-0.9-0.9-1.3-1.3c-1.5-1.6-3.2-3.3-5.4-3.8c-0.3-0.1-0.6-0.1-1.1-0.1c-1.5,0-3.8,0.6-5.8,3.9c-0.9,1.5-2.9,5.3-1.1,7.5
	c1,1.3,3,1.5,4.2,0.5c0.8-0.6,1.2-1.6,1.1-2.5v-0.2v-0.2c0.2-0.5,0.5-1.3,0.9-1.9l0.6-1.1l0.9,0.9c0.4,0.4,0.8,0.8,1.2,1.2
	c1.9,2,5.4,5.7,9.6,2.9c1.7-1.2,3-3.1,4.2-4.9l0.3-0.4c0.4-0.5,0.8-1.2,1.1-1.6l0.6-0.8l0.8,0.6c3.5,2.8,4.7,3.3,8.9,2.1l0.9-0.2
	c0.6-0.2,1.1-0.3,1.6-0.5l0.2-0.1c1.1-0.3,2.2-0.6,3-0.7L1218.1,326.3z"/>
<path fill="none" d="M1202.5,272.7c-0.2,0-0.4,0-0.5,0c-0.2,0-4.7,0.9-10.6,6.2c-3.7,3.3-6.5,7.5-8.2,10.5l-0.3,0.5h-0.6
	c-2.7,0.1-6.4,0.7-8.6,3c-1.9,2.1-3.2,6.2-3.9,9.3l-0.2,0.7l-0.7,0.1c-2.2,0.3-4.5,1.1-6.7,2.2c-5.8,3-6,11.9-6.1,14.8
	c0,0.1,0,0.2,0,0.3v0.1c-0.2,1.7,1,3.1,2.6,3.3c0.2,0,0.3,0,0.4,0c1.5,0,2.8-1.1,3-2.6c0-0.3,0.1-0.5,0.1-1c0.2-7.1,1.8-9.1,2.8-9.6
	c3.5-1.8,6.1-1.8,6.7-1.7c1.7,0.2,3.1-0.9,3.4-2.5c0.6-3.5,1.9-8.1,3-9.3c1-1,4.3-1.3,6.2-1.1c1.3,0.1,2.5-0.6,3-1.7
	c0.9-1.8,4-7.3,8-10.9c4.4-3.9,7.5-4.7,7.7-4.8h0.1c1.6-0.3,2.7-1.9,2.4-3.5C1205.2,273.8,1203.9,272.7,1202.5,272.7z"/>
<path fill="#4E4E4E" d="M1214.7,521.4l-0.1-0.3c-0.9-1.8-3.4-6.1-7.6-7.4c-3.2-1-6.4,0.4-8.6,1.8l-0.3,0.2l-0.1,0.4
	c-1.6,6.7-1.8,15.5-1.9,27.7v0.1c-0.2,10.4-0.4,23.3-1.7,38.7c-1.9,22.1-4.6,34-6.6,42.7s-3.2,13.9-2.5,23.3
	c0.2,2.8,0.7,5.2,1.5,7.1c0.7,1.5,1.6,2.8,2.6,3.6c2,1.6,4.5,1.9,6.3,1.9c0.8,0,1.4-0.1,1.8-0.1l0.7-0.1l0.2-0.7
	c7.1-25,12.4-48.6,14.2-63.2c1.4-11.8,1.3-26.7,1.2-41.1C1213.7,540.8,1213.7,529.4,1214.7,521.4L1214.7,521.4z"/>
<path fill="#4E4E4E" d="M1321.5,758.7l-1.1-0.9l-0.5,1.4c-5.9,17.5-12.2,38.7-17.8,59.5l-0.5,1.9l1.9-0.8c5.9-2.4,11.1-4.7,14.8-6.5
	l0.3-0.1l0.1-0.1c0.2-0.1,0.4-0.3,0.7-0.3l0.1-0.1c2.5-1.3,4.1-2.3,4.9-3c3.2-3,6.3-21.8,3.7-37.4
	C1326.8,764.6,1323.8,760.7,1321.5,758.7z"/>
<path fill="#4E4E4E" d="M959,921.7l-0.1-0.5l-0.4-0.2c-8.3-4.1-36.4-18.3-48.1-26.8c-10-7.3-17.3-5.5-19.2-4.7l-0.6,0.2l-0.1,0.6
	c-0.8,6.1-0.3,12.9,1.3,19.2c2.9,11,10.5,14.6,24.5,21.1l1.3,0.6c0.8,0.4,1.6,0.7,2.4,1.1l2.3,1.1c12,5.6,32,15,42.8,20l2.4,1.1
	l-0.7-2.2C964.5,945.1,961.6,933.6,959,921.7z"/>
<path fill="#4E4E4E" d="M1386.9,455.1l-0.3-0.5h-0.6h-0.2c-0.2,0-0.4,0.1-0.6,0.1h-0.1c-4.4,0.5-36.2,11.6-81.1,28.1
	c-40.4,14.9-76.6,28.9-80.7,31.1l-0.1,0.1c-0.5,0.4-1.7,1.9-2.6,8c-0.2,1.7-0.4,3.6-0.6,5.6c-0.6,7.7-0.5,17.5-0.4,27.9v0.7
	c0.1,14.6,0.2,29.7-1.2,41.9c-1.8,15.2-7.7,40.8-15.2,66.9c-3.2,11.2-6.7,22.3-10.3,33c-6.5,19.2-13.4,36.8-20.5,52.5
	c-3.3,7.3-6.7,14.2-10.1,20.5c-15.7,29.6-25.9,57.5-31.7,75.6c-6.6,20.7-9.2,34-9.2,34.1c-0.1,0.6-0.4,1.2-0.8,1.6l-0.5,0.5l0.3,0.7
	c0.1,0.2,0.2,0.4,0.3,0.7c3,7,1.9,24.9,0.7,41.1l-0.1,1.4c-0.1,1.8-0.3,3.3-0.3,4.3c-0.1,2.9-2.2,6.3-6,10.2l-0.2,0.2l-0.1,0.3
	c-1.3,5.6-9,34.3-27.7,53.5c-0.1,0.1-0.3,0.3-0.5,0.4c-0.7,0.5-6.9,4.5-13.2,7.6l-2,1l2,0.9c4.1,1.7,12.7,4.5,24.9,4.5
	c0.5,0,1,0,1.4,0c10.9-0.2,19.7-5,43.3-17.7l0.8-0.4c6.2-3.3,13.2-7.1,21.5-11.5c11-5.8,23.4-12.1,35.3-18.3l0.3-0.2
	c33.8-17.3,68.7-35.2,77-43c4.6-4.3,5.6-12.2,6.1-20c0.2-3,0.3-6.1,0.3-9.5v-0.5c0.3-11.1,0.6-23.6,3.7-37.7
	c1.6-7.1,3.7-16,6.3-25.8c0-0.1,0-0.1,0.1-0.3c8.1-30.9,21.6-76.3,33-102.2c39.1-88.6,61.3-157.9,62.3-195.4
	C1390.7,494,1391,462.5,1386.9,455.1z"/>
<path fill="#4E4E4E" d="M1098.5,859.5l-2.7,0.2l2.2,1.6c7.2,5.2,12.8,10,16.8,14.3l1.3,1.4l0.4-1.8c1-4.3,2.7-11.3,5.4-20.5l0.7-2.3
	l-2.1,1.2C1114.4,856.9,1107,858.9,1098.5,859.5z"/>
<path fill="#4E4E4E" d="M1022.1,796l-1,0.2c-8.3,1.7-11.2,8.1-12.3,11.7l-0.3,1.2l1.2,0.1c5.5,0.4,10.5,0.8,14.4,1.3l1.4,0.2
	l-0.4-1.4c-1.1-4.1-2-8.2-2.9-12.1l-1,0.2l1-0.3L1022.1,796z"/>
<path fill="#4E4E4E" d="M920.6,859.7l4-1.7c1.1-0.4,2-0.8,2.7-1.2l1-0.5l-0.6-0.9c-0.5-0.8-0.5-1.8-0.2-2.6c0.6-1.5,2.4-2.3,3.9-1.7
	l15,5.9l0.1-1.4c0.4-9.7,4.3-15.3,16.7-24.1c13.1-9.2,19.1-9,38.1-6.8c4,0.5,14.9,1.9,29.6,5.6l2.1,0.5l-0.9-1.9
	c-1.6-3.2-3-6.9-4.4-11.5l-0.2-0.6l-0.6-0.1c-4.9-0.6-12.9-1.3-21.4-1.9c-9.7-0.7-33.8-2.1-49.7-1c-22.2,1.5-28.6,9.1-33.3,16.8
	c-4.2,6.8-2.3,24.2-1.9,27.7L920.6,859.7z"/>
<path fill="#4E4E4E" d="M1021.9,879.3c-9.5-4.5-18.4-7.8-26.4-10l-1.3-0.4l0.1,1.4c0.2,3-0.2,5.2-1.2,6.7l-0.4,0.4l0.3,0.5l0.3,0.5
	l0.4,0.1c7.9,2.7,28.3,10,45.6,19.8c10.1,5.7,20.4,9.1,27.2,10.9l4.2,1.1l-3.3-2.8C1056.9,898.5,1038.2,887,1021.9,879.3z"/>
<path fill="#4E4E4E" d="M987.9,867.5l-0.7-0.1c-6.8-1.2-12.7-1.5-17.7-0.6c-0.8,0.1-1.6,0-2.2-0.5c-0.7-0.5-1.1-1.2-1.2-2
	c-0.3-1.6,0.8-3.2,2.5-3.5c2.2-0.4,4.7-0.6,7.2-0.6c16.2,0,35.4,7.4,48.7,13.6c17.6,8.2,46.4,25.4,55.4,37.9
	c0.3,0.4,0.6,0.8,0.9,1.3l0.1,0.1c5.6,9.1,3.4,19.9,1.9,27.1v0.1c-0.5,2.2-0.9,4.3-0.9,5.6c0,0.3,0,0.9,0.6,1.5
	c0.2,0.2,0.3,0.3,0.6,0.5c1.4,1,3.7,1.5,6.1,1.5c1.5,0,3-0.2,4.3-0.7c3.9-1.4,11.2-6.4,16.2-11l0.1-0.1c0.1-0.1,0.1-0.2,0.2-0.2
	l0.6-0.5v-0.1c4.3-4.1,4.3-5.9,4.4-6.4c0.1-1.3,0.2-3.2,0.4-5.7v-0.2c1.2-15.8,2.2-32.7-0.2-38.2l0,0c-0.4-1-1-2.1-1.8-3.1
	c-4.5-6.3-14.6-14.8-29.3-24.4c-2.7-1.8-5.6-3.6-8.6-5.4c-9.6-5.9-22.5-11.1-38.2-15.4c-18-5-32.5-7-36.6-7.4
	c-18.3-2.2-22.5-2.3-33.9,5.7c-12.3,8.7-14.3,13-14.2,21.6c0,0.8,0,1.5,0,2.3c0.4,11.5,2.4,25.4,4.1,27.9c0.1,0.1,0.2,0.3,0.4,0.4
	l0.3,0.1c0.2,0,0.3,0,0.4,0c1.2,0,3.4-1.1,6.2-2.4l1.6-0.8c9.4-4.6,16.9-8.5,20.6-10.6c0.7-0.4,1.3-0.8,1.7-1.1l0.3-0.2l0.1-0.4
	c0.1-0.6,0.3-2.1-0.2-5.1L987.9,867.5z"/>
<path fill="#4E4E4E" d="M838.7,616.3c-0.1-0.5-0.1-0.8-0.1-1.1l-0.1-1l-1,0.2c-2.7,0.5-12.1,2.9-19.5,4.9l-0.7,0.2v0.1
	c-0.5,0.3-0.7,0.7-0.8,0.8l-0.1,0.2v1.1c-0.1,1.5-0.2,4.5,0.3,6.5c0.1,0.2,0.1,0.4,0.2,0.6l0.2,0.7h0.7c0.1,0,0.3,0,0.5,0h0.1
	c2.3-0.4,15.6-5.1,19.8-6.7l0.6-0.2l0.1-0.6C838.7,621.2,839,618.9,838.7,616.3L838.7,616.3z"/>
<path fill="#4E4E4E" d="M1178.8,375.8c0.4-0.1,0.7-0.1,0.7-0.1c0.3,0,0.6,0,0.8,0.1l0.2,0.1l0.3-0.1c1.4-0.3,2.8,0.4,3.4,1.7
	c4.8,10.2,9.5,12,10.4,12.2h0.2h0.2c0.7,0,1.3,0.3,2,0.9c0.5,0.5,0.7,1.2,0.7,2.3c-0.1,1.5-0.2,9.5,1.8,15.4
	c0.1,0.4,0.3,0.7,0.4,1.1l0.5,1l1-0.6c0.4-0.3,0.9-0.4,1.5-0.4c0.2,0,0.3,0,0.5,0c0.9,0.1,1.8,0.8,2.2,1.9c1,2.1,3,4.2,5.8,4.2
	c0.5,0,1.1-0.1,1.7-0.2c4.8-1.3,3.4-11.2,3.4-11.3c-0.2-1.5,0.6-2.9,2-3.3c1.4-0.5,2.9,0.1,3.6,1.5c0.2,0.3,0.9,1.3,1.8,1.5l0.6,0.1
	l0.4-0.4c0.5-0.6,1.8-2.8,1.9-9.4c0.1-5.7-2.6-13.1-4.2-16.6l-0.1-0.2c-1.3-1.6-1.7-2.4-1.8-2.7c-0.5-1.3-0.2-2.3,0.1-2.9
	c0.7-1.2,2.1-1.9,3.5-1.5c0.8,0.2,1.7,0.5,3.5,4l0.1,0.2c1.8,2.1,4.8,5,7.3,6.8l1.1,0.8l0.4-1.3c0.2-0.7,0.7-1.3,1.3-1.7
	c1.3-0.8,3-0.4,3.9,0.8c1.5,2,6.3,7.4,11.4,8.7c1.5,0.4,2.7,0.2,3.6-0.7c1-0.9,1.4-2.2,1.4-2.8v-0.3l-0.2-0.3
	c-0.8-1.1-0.7-2.6,0.2-3.6c1-1.1,2.7-1.4,3.9-0.6c1.6,1.1,3.7-0.4,4.3-0.9c2.1-1.7,3-4.1,2.6-5.2c-0.4-1-2.7-1.6-5.9-1.4
	c-1.3,0.1-2.5-0.7-3-1.9c-0.5-1.2-0.1-2.6,1-3.4c1.1-0.9,1.4-2.2,0.9-3.4c-1-2.2-5.6-5.4-16.7-3.3c-1.4,0.3-2.7-0.5-3.3-1.8
	c-0.6-1.3-0.1-2.8,1-3.6c0.3-0.2,0.5-0.4,0.6-0.6l0.1-0.2v-0.2c0.3-2-3.7-6.2-6-8.1c-1.3-1-1.5-2.9-0.5-4.2c1-1.3,2.8-1.6,4.2-0.6
	c0,0,0.9,0.6,2.6,1.4c2.3,1,5,1.8,8,2.4c6.7,1.4,13.6-2.2,14.4-2.6c1.3-0.7,3-0.4,3.9,0.9c0.2,0.2,4,5.2,13,7.6
	c2,0.5,3.7,0.4,4.9-0.5c2.4-1.5,3.5-5.1,3.6-6.3c0.2-1.1,1-2,2-2.4c1-0.3,2.2-0.1,3,0.7c0,0,3,2.8,8.8,4.9c2.1,0.8,5.3-0.5,6.9-2.7
	c1.1-1.5,1.9-4-0.6-7.3c-0.6-0.8-0.8-1.8-0.5-2.8s1.1-1.7,2.1-1.9c3.5-0.9,6.4-2.8,7.3-4l0.4-0.6l-0.4-0.6c-0.4-0.5-1.3-1.4-3.3-2.4
	c-10-5.3-17.5-0.3-17.5-0.2c-1.2,0.8-2.7,0.7-3.7-0.3c-0.9-0.9-1.2-2.3-0.7-3.4l0.1-0.2c0.1-0.5,0.2-2.2-1.8-5.6
	c-0.6-1-2.4-1.7-4.8-1.7c-4.9,0-11.5,2.9-14.7,8.3c-0.6,1.1-1.9,1.7-3.2,1.4c-1.3-0.2-2.2-1.2-2.4-2.5c-0.7-4.7-2.8-9.1-13.9-8.8
	c-9.2,0.2-13.2,5.1-13.4,5.4c-0.7,1-2,1.4-3.2,1c-1.2-0.3-2-1.4-2.1-2.7c-0.2-2.9-0.8-8.1-1.2-9.6c-0.3-1.1-0.1-2.2,0.6-3.1
	c1.7-2.3,5.5-2.3,13.9-2.5c3.6-0.1,7.5-0.1,11.1-0.4c11.9-0.9,16.9-8.6,17.5-9.5c2.2-3.7,3.2-4.1,7.8-4.4h0.2
	c1.4-0.1,3.3-0.2,5.9-0.5c3.1-0.4,5.3-1.6,6.4-3.7c1.4-2.5,1-5.4,0.4-6.6c-1.3-2.9-0.7-5,1.9-6.9c0.1-0.1,0.5-0.3,0.7-0.5l0.3-0.2
	v-0.4c0-0.1,0.1-0.5,0-1.3c-0.1-0.6-0.3-0.9-0.9-1.2c-2.2-1.1-8.4-0.5-15.4,3.9c-0.7,0.5-1.7,0.6-2.5,0.3c-0.8-0.3-1.5-0.9-1.9-1.7
	c-1.6-3.7-3.6-6.5-11-4.2c-4.7,1.5-4.8,4.4-4.9,6.5c-0.1,1.5-0.4,3.1-2.2,3.8c-0.5,0.2-2.1,0.6-3.6-1c-0.7-0.7-1.2-1.5-1.8-2.3
	c-1.2-1.8-2.3-3.6-5.1-4.5c-4-1.4-9.1,2.2-14.4,10c-0.8,1.1-2.2,1.6-3.5,1.1s-2.1-1.8-2-3.1c0.3-2.5-2.9-5.5-4.5-6.6
	c-0.8-0.6-1.3-1.6-1.3-2.6c0.1-1,0.6-2,1.5-2.5c3.9-2.2,14.4-8.3,16.7-10.4c1.4-1.3,1.7-2.1,1.9-3c0.2-0.7,0.4-1.5,1.1-2.3
	c0.8-1,1.9-1.3,3.7-2c3.2-1.1,9.3-3.1,10.5-7.7c0.3-1.3,0.6-2.3,0.7-3.1l0.1-0.6l-0.5-0.3c-0.7-0.5-1.7-1.3-2.6-2.7
	c-2.2-3.3-0.3-5.9,1.3-7.6l0.1-0.1c0.2-0.2,0.4-0.4,0.6-0.6l0.4-0.5l-0.3-0.6c-0.1-0.1-0.1-0.2-0.2-0.4c-0.5-0.8-1.9-0.9-2.7-0.8
	c-4.5,0.2-11.5,4.2-14.8,10c-0.6,1.1-1.9,1.7-3.2,1.5c-1.3-0.3-2.2-1.3-2.4-2.6c-0.2-1.2-0.8-2.1-1.8-2.4c-1.4-0.4-3,0.4-4.3,2
	c-2.9,3.6-5,8.8-6,11.5c-0.8,2-1.5,3.5-3.5,3.5c-1.5,0-2.3-1-2.7-1.5c-0.6-0.8-1.9-2.5-4.9-2.9h-0.4l-0.3,0.2
	c-2.3,1.5-5.9,9.1-7.9,15.2c-0.5,1.4-1.8,2.4-3.2,2.2c-1.5-0.2-2.5-1.2-2.6-2.6v-0.2c-0.1-0.4-0.5-1.7-2-2.6l-0.4-0.2l-0.4,0.1
	c-2,0.7-6,4.2-8.5,7c-1,1.2-2.8,1.4-4.1,0.4c-1.3-0.9-1.6-2.7-0.7-4c4.3-6.7,11.4-18.8,12.1-23c0-0.1,0-0.2,0-0.4l0.1-0.9l-0.9-0.2
	c-0.4-0.1-0.9-0.1-1.3-0.2c-1.3-0.2-3-0.4-4.4-1.3c-1.2-0.9-1.8-2.1-2.2-3.2l-0.3-0.9l-0.9,0.3c-0.3,0.1-0.6,0.2-1,0.4
	c-5.1,2.2-14,13.4-17.1,17.5c-0.8,1-1.9,1.6-3,1.4c-0.8-0.2-1.5-0.6-1.9-1.2l-0.7-1l-0.9,0.8c-3.2,3-6.1,11.1-7.8,16l-0.7,1.9
	c-0.3,0.9-1.1,1.6-2.1,1.9c-0.6,0.2-1.3,0.1-1.9-0.1l-0.8-0.3l-0.5,0.7c-0.6,0.8-1.7,2.8-2.8,6.9c-1.7,6.2-1.5,14.8-1.4,16.5
	c0,1-0.4,1.9-1.1,2.5c-0.8,0.6-1.8,0.8-2.7,0.5c-0.3-0.1-0.6-0.1-0.7-0.1h-0.9l-0.1,0.9c-0.1,1.6,0.3,5,1.4,10.5l0.1,0.5
	c0.5,2.6,0.8,4.2,0.9,5.3c0.2,3.6-1,7.1-5,15.3c-3.1,6.1-2.9,36.5,8.7,47.5C1155.5,378,1173.5,376.5,1178.8,375.8z M1163.9,350.9
	c1-1.4,7.1-4.7,10.2-5.1c1.6-0.2,2.9,0.1,3.9,1c0.9,0.8,1.7,2.1,2.5,3.5c0.3,0.6,0.8,1.3,1.2,1.9l0.6,0.9l1.9-1.4
	c2.7-2.1,6.5-4.9,10.6-4.5c2.5,0.3,4.1,1.3,5.4,2.1c1.3,0.8,1.7,1.1,3.2,0.8c5.4-1.2,7.7,0,8.7,1.3c0.5,0.6,0.7,1.4,0.7,2.2
	c-0.1,0.8-0.5,1.5-1.1,2c-1,0.8-2.4,0.9-3.5,0.2l-0.2-0.1h-0.2c-0.5,0-1.5,0-3,0.3c-3.9,0.9-6.1-0.6-7.7-1.6c-1-0.7-1.7-1.1-2.7-1.2
	c-1.6-0.2-3.8,1.4-6.4,3.3c-1.2,0.9-2.3,1.7-3.4,2.3c-0.8,0.4-1.5,0.6-2.3,0.6c-3.2,0-5.6-4-6.8-6.1l-0.1-0.2
	c-0.1-0.2-0.2-0.4-0.3-0.6l-0.4-0.7l-0.8,0.3c-1.6,0.6-4.1,1.9-5.2,2.7l-0.1,0.1c-1,0.9-2.5,1-3.6,0.2c-0.7-0.4-1.1-1.1-1.3-1.9
	C1163.3,352.4,1163.5,351.6,1163.9,350.9z M1214.6,327.2c-0.5,0.1-1,0.3-1.6,0.5l-0.9,0.2c-4.2,1.2-5.3,0.7-8.9-2.1l-0.8-0.6
	l-0.6,0.8c-0.4,0.5-0.8,1.1-1.1,1.6l-0.3,0.4c-1.2,1.9-2.4,3.8-4.2,4.9c-4.1,2.8-7.7-0.9-9.6-2.9c-0.4-0.4-0.8-0.8-1.2-1.2l-0.9-0.9
	l-0.6,1.1c-0.4,0.6-0.7,1.4-0.9,1.9v0.2v0.2c0.1,1-0.4,1.9-1.1,2.5c-1.3,1-3.2,0.8-4.2-0.5c-1.8-2.2,0.2-6,1.1-7.5
	c2-3.2,4.3-3.9,5.8-3.9c0.4,0,0.8,0.1,1.1,0.1c2.2,0.5,3.9,2.2,5.4,3.8c0.4,0.4,0.8,0.9,1.3,1.3l0.8,0.7l0.7-0.8
	c0.5-0.6,1-1.4,1.4-2l0.2-0.3c1.7-2.6,3.4-5.2,6.3-5.7c1.1-0.2,2.7-0.1,4.5,1.4l0.2,0.2c0.8,0.7,1.7,1.3,2.2,1.7l0.4,0.2l0.4-0.1
	c0.3-0.1,0.8-0.2,1.2-0.3l0.7-0.2c0.6-0.2,1.2-0.3,1.8-0.5c3.4-1,6.3-1.8,8.6,0c0.6,0.5,1,1.2,1.1,2s-0.2,1.6-0.7,2.2l0,0
	c-0.9,1.1-2.4,1.4-3.6,0.8l-0.3-0.1h-0.3c-0.7,0.1-1.9,0.4-3,0.7L1214.6,327.2z M1203.1,278.7L1203.1,278.7c-0.2,0-3.3,0.9-7.7,4.8
	c-4,3.6-7.1,9.1-8,10.9c-0.5,1.1-1.7,1.8-3,1.7c-2-0.2-5.2,0.1-6.2,1.1c-1.1,1.2-2.4,5.7-3,9.3c-0.3,1.6-1.7,2.7-3.4,2.5
	c-0.5,0-3.2-0.1-6.7,1.7c-1,0.5-2.7,2.5-2.8,9.6c0,0.5,0,0.7-0.1,1c-0.2,1.5-1.5,2.6-3,2.6c-0.1,0-0.3,0-0.4,0
	c-1.6-0.2-2.7-1.7-2.6-3.3v-0.1c0-0.1,0-0.2,0-0.3c0.1-2.9,0.3-11.7,6.1-14.8c2.2-1.2,4.5-1.9,6.7-2.2l0.7-0.1l0.2-0.7
	c0.7-3.1,2-7.2,3.9-9.3c2.2-2.3,5.9-2.9,8.6-3h0.6l0.3-0.5c1.7-3,4.5-7.2,8.2-10.5c6-5.3,10.4-6.2,10.6-6.2s0.4,0,0.5,0
	c1.4,0,2.7,1,3,2.5C1205.8,276.8,1204.7,278.4,1203.1,278.7z"/>
<path fill="#4E4E4E" d="M1000.2,362.6c0.8,3.4,1.6,6.5,1.1,9.5c-0.2,1.5-0.7,2.7-1.2,3.8c-1.1,2.7-1.9,4.9,0.8,9.8
	c3.9,7.1,4,9.3,2.4,13.7c-0.2,0.5-0.4,1.1-0.6,1.8c-1,3.1,2,7.7,4.6,9.9c2.5,2.2,2.7,5.1,2.9,8.1c0.2,2.2,0.3,4.4,1.3,7
	c1.1,2.8,2.5,3.9,3.5,4h0.1h0.1c0.4,0,0.8,0,1.1,0.2l0.6,0.2l0.4-0.4c4.3-4,11.4-8.4,20.6-7.2c15.6,2.1,24.1,17.6,22.8,41.7
	c-0.8,14.3-5.3,27.6-12.1,35.8l-0.5,0.6l0.4,0.6c0.9,1.4,5.5,8.2,7.7,10.3l0.4,0.4l1-0.3c1.3-0.3,3.2-0.9,5.8-0.1
	c2.5,0.7,3.7,2.3,4.5,3.5c1.2,1.7,2.1,2.1,5.8,1.4c2.6-0.5,4.1-0.9,5.3-1.3c4-1.2,5-0.5,8.4,2.5l1.1,1c0.8,0.7,1.6,1,2.5,1
	c1.8,0,3.9-1.3,6.5-3.3c0.9-0.7,1.6-1.2,2.3-1.5c1.7-0.7,3.5,0,5.3,0.6c1.4,0.5,2.5,0.9,3.2,0.9h0.3l0.3-0.2
	c1.1-0.8,2.5-1.6,4.3-2.3c2.2-0.9,5-1.8,8.1-2.5c1.3-0.4,3.9-3.1,5.2-5.7c1.2-2.4,3.5-3.1,5.5-3.7c2.3-0.7,4.8-1.5,7-4.7
	c0.6-0.9,1.1-1.6,1.5-2.2l0.4-0.6c1.9-2.7,2.3-3.2,5.1-4.4l0.5-0.2c0.7-0.3,1.7-0.7,2.9-1.3c3-1.5,3.2-1.9,2.7-5.5
	c-0.2-1.4-0.4-3.2-0.3-5.2c0.4-4.7,3.8-7.3,6.8-9.7c2.1-1.6,3.5-2.8,3.8-4c0.5-1.5,0.4-2.2,0.3-3.1c-0.2-2.4,0.1-4.1,2.5-6.9
	c1.9-2.3,1.8-3.6,1.6-6.9v-0.4c-0.1-0.8-0.1-1.7-0.1-2.7c-0.1-3.5,0.4-4.7,1.9-6.7c0.7-0.9,1.6-2.2,2.9-5.1c1.2-2.7,1.5-3.8,1.6-4.2
	v-0.2v-0.2c-0.1-1.2,0.1-2.1,0.9-3.7c1.5-2.9,2.4-4.8,1.3-10.5c-1.1-5.6-0.1-8.1,1.4-10.9c0.3-0.5,0.5-1,0.7-1.5l0.1-0.2
	c0-0.3,0-0.7-0.1-1.2l-0.4-1.9l-1.3,1.4c-5.4,5.9-13.3,8.9-23.6,8.9c-0.3,0-0.6,0-0.9,0c-14.9-0.3-29.7-5.5-40.7-14.3
	c-9.3-7.5-20.2-21.1-19.8-43.6c0.4-26.9,19.1-44.1,30.1-52l2.5-1.8h-3.4c-0.1-0.2-0.1-0.3-0.2-0.5l-0.2-0.3l-0.3-0.1
	c-0.5-0.2-1.7-0.5-5.7-0.4c-2.8,0-3.7-0.3-4.9-0.9c-0.5-0.3-1.3-0.7-3.7-1.2c-2-0.5-3.7-0.2-5.5,0.1c-2.6,0.5-5.6,1-8.8-1.4
	c-1.3-0.9-2.3-0.7-5.3,0.2c-1.5,0.5-3.4,1.1-5.5,1.3c-2.4,0.2-4.6-0.2-6.5-0.7c-3.2-0.7-5.8-1.2-9.4,0.7c-7.5,4-9.1,4.4-15.6,4.4
	h-0.2c-4.4,0-8.2,1.6-12,5c-3.5,3.1-4.7,3.4-7.9,3.8h-0.2c-0.8,0.1-1.8,0.2-3.2,0.4c-2.6,0.5-4.6,2.8-6.7,5.1
	c-1.6,1.8-3.1,3.6-5.1,4.5c-1.4,0.7-2.5,0.9-3.4,1.1h-0.1c-1.5,0.3-1.9,0.7-3.1,3c-1.1,2.2-1.6,3.5-1.9,4.7l-0.1,0.3
	c-0.1,0.3-0.2,0.7-0.4,1c-0.4,1.2-1.1,2.6-2.8,4.7c-2.1,2.5-1.2,7.4-0.6,10.6l0.2,0.8c0.5,2.7-0.3,4.7-1.1,6.7
	c-0.7,1.7-1.3,3.4-1.2,5.7c0.1,2.3,0.7,4.8,1.3,7.2L1000.2,362.6z"/>
<path fill="#4E4E4E" d="M351.3,638.2v-0.6l-0.5-0.3c-2.4-1.4-4.2-2.7-5.2-3.8c-0.3-0.3-0.5-0.8-0.6-1.2c-3.1-17.6-1-60.8,0.7-95.4
	v-0.8c0.9-19,1.8-37,1.1-40.2c-1.6-6.8-9.8-25.1-13.3-32.7l-0.7-1.5l-1,1.3c-2.9,3.7-5.7,7.2-8.3,10.5c-6.9,8.8-15.4,20.5-24.6,33.8
	l-0.3,0.5l0.3,0.5l0.1,0.2c0.2,0.4,16.2,43.9,23.7,82.9c6.8,35.3,10.3,72.2,10.9,79.3l0.1,1.2l1.2-0.4c5.5-1.7,11.2-3.5,17-5.3
	l0.9-0.3l-0.3-0.9C350.5,657.1,351.1,642.5,351.3,638.2z"/>
<path fill="#4E4E4E" d="M270.4,364.5c-3.3-14.9-5.6-29.7-7.6-42.8v-0.1c-2-13.1-3.8-24.4-5.8-30.7c-0.9-2.9-2.5-4.8-4.8-5.9
	c-2.7-1.3-6-1.1-8.2-0.7l-0.6,0.1l-0.2,0.6c-0.9,3.6-0.4,8.4,0.5,16c0.2,1.9,0.4,3.9,0.7,6c1.9,17.6,21.1,97.5,25.4,112.5l0.5,1.6
	l1.2-1.1c3.4-3.2,6.9-6.6,10.5-10.1l0.4-0.4l-0.2-0.6C280.3,403.2,275.6,387.7,270.4,364.5z"/>
<path fill="none" d="M436.5,163.9l0.2,0.2l0.1,0.2c0.3,1.5,1.4,2.8,3.3,3.8c1.2,0.7,2.9,0.7,5.1,0.7c2.9,0,5.9,0.1,7.3,1.2
	c1.6,1.3,4.7,3.4,7.8,3.4c0.4,0,0.9,0,1.4-0.1c1.2-0.3,2.8-1,3.9-3.2c1-2.1,0.9-4.5-0.1-6.8c-1.7-3.7-5.9-6.5-11.4-7.8
	c-2.2-0.5-4.3-0.8-6.3-0.8c-3.8,0-7.1,0.9-9.2,2.7c-1.6,1.4-2.5,3.3-2.3,5.3C436.1,163.2,436.3,163.6,436.5,163.9z"/>
<path fill="none" d="M452,217.2c0.3,0,0.6,0,0.9-0.1l0,0c3.5-0.8,4.7-5.4,4.1-9.5c-0.6-4.1-2.8-5.6-4.7-5.6c-0.1,0-0.2,0-0.2,0
	c-0.2,0-0.4,0.1-0.6,0.1l-0.3,0.1c-0.2,0-0.4,0.1-0.6,0.1c-3.5,0.9-4.5,5.8-3.5,9.9C448,215.4,449.8,217.2,452,217.2z"/>
<path fill="none" d="M420.6,222.5c0.3,0,0.6,0,0.9-0.1c3.5-0.8,4.7-5.4,4.1-9.5c-0.6-4.2-2.9-5.6-4.7-5.6c-0.1,0-0.1,0-0.2,0
	c-0.2,0-0.4,0.1-0.6,0.2l-0.2,0.1c-0.2,0-0.4,0.1-0.5,0.1c-3.5,0.9-4.5,5.8-3.5,9.9C416.6,220.7,418.4,222.5,420.6,222.5z"/>
<path fill="none" d="M328.5,271.9c0.3,0.8,1,1.4,1.9,1.4c0.2,0,0.4,0,0.6-0.1l0,0c1-0.4,1.6-1.5,1.2-2.5
	c-4.4-13-15.9-14.1-21.4-12.9c-1.1,0.2-1.7,1.3-1.5,2.4c0.2,1.1,1.3,1.7,2.4,1.5c0.3-0.1,1.4-0.3,2.9-0.3
	C318.6,261.4,325.4,262.8,328.5,271.9z"/>
<path fill="none" d="M405.8,180.8c1.8,0,3.7-1.7,6.2-4l1.6-1.5c2.2-2.1,4.8-3.5,7-4.7l0,0c3.3-1.9,6.2-3.5,6.1-6.6
	c-0.1-1.6-1.1-3.1-2.7-4c-1.5-0.8-3.3-1.2-5.3-1.2c-3.2,0-6.8,1-10.4,2.9c-6.6,3.5-8.8,9.3-8.2,13.5c0.3,1.9,1.2,3.5,2.6,4.5
	C403.9,180.4,404.9,180.8,405.8,180.8z"/>
<path fill="none" d="M160.9,398.6c-16.5,0-27.6,11.3-28.2,13.2c-0.2,0.6-0.2,1.3,0.1,1.9c0.3,0.6,0.8,1,1.5,1.3c1,0.3,2.2,0,2.9-1
	l0.1-0.1c1-1.1,9.9-10.5,24.2-10.2c0.7,0,1.3-0.2,1.8-0.7s0.8-1.1,0.8-1.8c0-1.4-1.1-2.5-2.5-2.5
	C161.3,398.6,161.1,398.6,160.9,398.6z"/>
<path fill="none" d="M723.2,318.5c-18.1,0-28.6,10.7-29.5,12.5c-0.6,1.2-0.1,2.7,1.1,3.4c1.1,0.6,2.6,0.1,3.2-0.9l0.1-0.1
	c0.5-0.6,12.2-13.4,34.2-8.8c0.7,0.1,1.3,0,1.9-0.4c0.6-0.4,0.9-0.9,1.1-1.6l0,0c0.3-1.4-0.6-2.7-1.9-3
	C729.7,318.9,726.3,318.5,723.2,318.5z"/>
<g id="vs-skin">
	<path fill="#FACFBD" d="M827.6,313.2L827.6,313.2c-0.7-3.2-2-5.2-4.2-6.4c-3-1.6-9.5-2.2-23,3.8c-14.3,6.3-27.1,10.5-38.1,12.5
		l-0.6,0.1c-0.6,0.1-1.3,0-1.9-0.4c-0.6-0.4-0.9-0.9-1.1-1.6c-0.1-0.7,0-1.3,0.4-1.9s0.9-0.9,1.6-1.1l0.7-0.1c10.6-2,23-6.1,37-12.2
		c12.5-5.5,21.4-6.7,27.3-3.6c0.1,0.1,0.2,0.1,0.3,0.2l1.5,0.9l0.1-1.7c0.1-2.3-1.6-4.1-5.2-5.6c-2.4-1-4.6-1.6-6.9-1.9
		c-6.3-0.8-14.2,0.8-26.7,5.3c-16.9,6.1-32.8,10.7-34.3,10.7c-1.4,0-2.5-1.1-2.5-2.5c0-1.3,0.9-2.3,2.2-2.5h0.2
		c2-0.4,15.4-4.2,32.7-10.4c5.2-1.9,9.5-3.2,13.3-4.1l6.7-1.6l-6.9-0.3c-11.2-0.5-26.7,1.7-35.2,5c-11.7,4.6-47.7,14.8-60.7,6.7
		c-6.9-4.3-5.6-11.9-4.5-18.7c1.3-7.8,1.8-12.7-3.6-15.7c-13.3-7.2-29.9-4.7-33.2-0.6c-2.7,3.4-1.6,5.6,8.2,15.6
		c10,10.3,8.5,18.4,5.7,24.9c-2.3,5.2-3.9,13.7-1.9,22.2c0.2,0.8,0.4,1.6,0.6,2.3c1.7,6.9,2.5,10.1-0.1,17c-0.1,0.3-0.3,0.6-0.5,0.8
		c-0.7,0.8-1.9,3.1-3.8,6.7l-0.2,0.3c-2,3.8-4.7,9-8.1,14.6c-5.7,9.2-14.8,22.7-19,28.3l-0.3,0.4l0.2,0.5c2.8,7.4,4.2,18.2,4.2,34.1
		c0,7.9-2.4,16.1-7.3,24.4l-0.8,1.4l1.6,0.1c0.3,0,0.6,0,0.9,0c10.5,0,20.3-8.8,28.5-25.6c12.3-25.3,28.4-78.7,28.5-79.2
		c0.4-1.3,1.8-2.1,3.1-1.7c0.9,0.3,1.6,1,1.7,2l0.2,0.9l0.9-0.1c2.9-0.3,7.6-0.6,16.3-1.2c17.4-1.2,43.8-2.9,57.5-5.5
		c21.2-4,37-12,36.6-18.5c-0.1-2.7-1-4.6-2.7-5.6c-2.9-1.8-8.4-1.2-15.4,1.7c-11.8,5-26.2,10.3-31.8,12.3l-0.3,0.1
		c-0.6,0.2-1.3,0.2-1.9-0.1c-0.6-0.3-1.1-0.8-1.3-1.4s-0.2-1.3,0.1-1.9s0.8-1.1,1.4-1.3l0.5-0.2c7-2.6,20.3-7.5,31.4-12.2
		c8.8-3.7,15.5-4.2,20-1.4c1.3,0.8,3.2,2.4,4.2,5.3l0.4,1.1l1-0.6C823.8,324.8,828.8,319.1,827.6,313.2z M735.2,322.6L735.2,322.6
		c-0.1,0.7-0.5,1.2-1.1,1.6s-1.2,0.5-1.9,0.4c-21.9-4.6-33.7,8.3-34.2,8.8l-0.1,0.1c-0.6,1.1-2.1,1.5-3.2,0.9
		c-1.2-0.6-1.7-2.1-1.1-3.4c0.9-1.8,11.4-12.5,29.5-12.5c3.2,0,6.5,0.3,10.1,1.1C734.7,319.9,735.5,321.2,735.2,322.6z"/>
	<path fill="#FACFBD" d="M524.6,213.2c-4.2-2.1-8.6-1.4-9.8-1l-0.2,0.1l-0.2,0.2c-0.1,0.1-0.1,0.1-0.2,0.1l-0.3,0.2l-0.1,0.4
		c-0.2,0.9-0.3,1.7-0.4,2.5c0,0.2-0.1,0.4-0.1,0.5l-0.1,0.2v0.2c0.2,5.4,0.7,11.8,2.4,18.9c0.3,1.1,0.5,2.2,0.8,3.4l1,4.1l1.1-3.4
		c0.7-2.1,1.5-3.9,2.5-5.5c0.3-0.5,0.7-0.8,1.2-0.9c0.5-0.1,1.1,0,1.5,0.2c0.5,0.3,0.8,0.7,0.9,1.2c0.1,0.5,0.1,1.1-0.2,1.5
		c-2.6,4.3-4.1,10.8-4.6,19.5v0.1v0.1c0.8,4.5,1.4,9,2,13.4l0.2,1.6l1.3-0.9c6.6-4.3,10.5-14.7,10.7-28.5c0.1-5.4-0.4-11.1-1.4-16.3
		C531.6,219.3,528.9,215.2,524.6,213.2z"/>
	<path fill="#FACFBD" d="M515.3,258.5c-1.3-7.7-2.8-15.5-4.4-21.8c-1.9-7.8-2.4-14.8-2.6-21.2c-0.1-2.4-0.1-4.9-0.2-7.5
		c-0.1-6.5-0.2-13.2-1-21.3c-1.8-20.4-10.1-39.2-15.2-43.7c-4.5-3.9-17.6-7.4-32.5-8.7c-10.8-0.9-29.2-1.6-34.6-1.8h-0.3
		c-0.3,0-0.5-0.1-0.8-0.2l-0.3-0.1l-0.3,0.1c-12.1,3.3-24,7.6-34.6,12.4c-21.1,9.6-37.3,21.7-43.3,26.5l-0.2,0.2l-0.1,0.3
		c-1.2,3.2-7.3,20-6.1,35.1c0.4,4.6,0.9,9.3,1.4,13c1.6,13.2,2.9,23.6-2.7,25.8l-0.3,0.1l-0.2,0.2c-0.4,0.5-1,0.9-1.7,1
		c-1.3,0.2-2.5-0.7-2.8-2v-0.1c-0.5-1.7-3.8-7.6-9.1-10.4c-3.4-1.8-6.9-2.1-10.9-0.9c-0.2,0.1-0.4,0.1-0.6,0.2
		c-5.9,2-11.1,7.4-14.3,14.8c-2.3,5.2-3.5,11.1-3.4,16.9c0.1,5.5,1.2,10.9,3.4,15.8c4.9,11,14.4,14.8,21.5,14.6
		c4.7-0.1,8.8-1.6,11.5-4.4h0.1l0.3-0.4l0.2-0.2v-0.1c0.1-0.1,0.1-0.1,0.2-0.2l0.1-0.1c0.5-0.7,0.9-1.4,1.3-2.2
		c0.3-0.6,0.7-1.1,1.3-1.3c0.6-0.3,1.3-0.3,1.9,0c0.6,0.3,1.1,0.7,1.3,1.3c0.3,0.6,0.3,1.3,0,1.9s-0.6,1.2-0.9,1.8l-0.3,0.5l0.2,0.5
		c1.5,3,3.8,9.1,6.5,20.5l0.1,0.5c3,12.5,5.1,21.5,13.2,30.7c2.8,3.1,6.1,6.2,10.3,9.3c15.4,11.7,45.5,30,65.4,42.1
		c3.2,2,6.2,3.8,8.9,5.4c16.9,10.4,20.5,14.7,23.3,23.1l1.4,4.3l0.5-4.5c0.9-8,2.3-14.7,4.1-19.7c3.3-9,8.3-16.5,14.8-26l0.9-1.3
		c1-1.4,2-2.9,3-4.5l0.4-0.5l-0.3-0.5c-0.3-0.4-0.4-0.9-0.4-1.5s-0.1-1.2-0.1-1.8l-0.2-3.3l-1.6,2.9c-1.1,2-2.2,3.8-3.3,5.5
		c-4.9,7.7-6.7,8.2-8.1,8.1c-1.1-0.1-2-0.8-2.4-2c-0.2-0.7-0.5-1.5-0.8-2.4l-0.8-2.1l-1,2c-2,3.9-4.3,5.9-6.9,6
		c-1.7,0.1-3-0.5-4-1.7l-1.2-1.4l-0.6,1.7c-0.6,1.9-1.5,3.2-2.6,4c-1.2,0.9-2.7,1.2-4.3,0.9c-4-0.6-6.7-4.1-8.3-6.6l-1.6-2.5l-0.2,3
		c-0.3,4.3-1.5,6.7-4,7.9c-0.3,0.2-0.8,0.2-1.2,0.2c-9.7-1.7-18.5-16.2-22.8-24.7l-0.6-1.2l-1,1c-0.3,0.3-0.6,0.5-0.8,0.6
		c-1,0.5-2.2,0.3-3.2-0.5c-3.8-3.1-10-30.4-8.5-56.1c1.5-25.9,8-32,9.3-33l0.4-0.3V274c0-5.2,1.2-9.8,3.3-13.5
		c0.7-1.2,2.2-1.6,3.4-0.9s1.6,2.2,0.9,3.4c-3,5-4,14.5,0.2,24.7c0.8,2,8.7,19.4,31.3,19.4c3,0,6.1-0.3,9.4-0.9
		c17.5-3.3,28.3-11.2,33.1-24.3c1.1-3,1.9-6.3,2.4-9.9c2.3-17.4-4.2-29-11.5-31c-7.9-2.2-23.3-5.3-27.9-6.2h-0.2
		c-0.7-0.1-1.2-0.5-1.6-1.1s-0.5-1.2-0.4-1.9c0.3-1.4,1.6-2.2,3-2c0.2,0,19.1,3.8,28.4,6.3c11.3,3.1,17.5,18.1,15.1,36.4
		c-0.4,2.9-1,5.8-1.8,8.4l-0.2,0.5l0.4,0.4c10.7,12.4,11.2,44.2,10.9,57.3l-0.1,4.5l2-4c1.4-2.9,2.7-5.6,3.8-8.2
		c3.7-9,5.8-17.6,6.7-27.7c0.6-7.7,0.3-17.7-1.2-29.9C516.9,269.3,516.2,264,515.3,258.5z M400.2,175c-0.7-4.2,1.6-9.9,8.2-13.5
		c3.5-1.9,7.2-2.9,10.4-2.9c2,0,3.9,0.4,5.3,1.2c1.6,0.9,2.6,2.4,2.7,4c0.1,3.1-2.7,4.7-6.1,6.6l0,0c-2.2,1.2-4.7,2.6-7,4.7
		l-1.6,1.5c-2.5,2.3-4.4,4-6.2,4c-0.9,0-1.8-0.4-3-1.3C401.4,178.5,400.5,176.9,400.2,175z M419.3,207.7c0.2-0.1,0.4-0.1,0.5-0.1
		l0.2-0.1c0.2-0.1,0.4-0.1,0.6-0.2c0.1,0,0.1,0,0.2,0c1.8,0,4.1,1.4,4.7,5.6c0.6,4.1-0.6,8.6-4.1,9.5c-0.3,0.1-0.6,0.1-0.9,0.1
		c-2.2,0-4-1.8-4.8-4.9C414.8,213.5,415.8,208.6,419.3,207.7z M450.6,202.4c0.2,0,0.4-0.1,0.6-0.1l0.3-0.1c0.2-0.1,0.4-0.1,0.6-0.1
		c0.1,0,0.2,0,0.2,0c1.8,0,4,1.4,4.7,5.6c0.6,4.1-0.6,8.6-4.1,9.5l0,0c-0.3,0.1-0.6,0.1-0.9,0.1c-2.2,0-4-1.8-4.8-4.9
		C446.1,208.2,447.1,203.4,450.6,202.4z M438.4,157.5c2.1-1.8,5.4-2.7,9.2-2.7c2,0,4.1,0.3,6.3,0.8c5.5,1.3,9.6,4.1,11.4,7.8
		c1.1,2.3,1.1,4.7,0.1,6.8c-1,2.2-2.7,2.9-3.9,3.2c-0.5,0.1-0.9,0.1-1.4,0.1c-3.1,0-6.2-2.2-7.8-3.4c-1.4-1.1-4.3-1.2-7.3-1.2
		c-2.2,0-3.9,0-5.1-0.7c-1.9-1-3-2.3-3.3-3.8l-0.1-0.2l-0.2-0.2c-0.3-0.3-0.4-0.7-0.5-1.2C435.9,160.8,436.8,158.9,438.4,157.5z
		 M309.4,260.1c-0.2-1.1,0.4-2.1,1.5-2.4c5.4-1.2,16.9-0.1,21.4,12.9c0.4,1.1-0.2,2.2-1.2,2.5l0,0c-0.2,0.1-0.4,0.1-0.6,0.1
		c-0.9,0-1.6-0.5-1.9-1.4c-3.1-9.1-9.9-10.6-13.8-10.6c-1.5,0-2.6,0.2-2.9,0.3C310.7,261.9,309.6,261.2,309.4,260.1z"/>
	<path fill="#FACFBD" d="M267.7,472.4c-1.1-6.3-8.5-16-12.2-20.2l-1.3-1.2l-7.3,9.1c-0.1,0.1-0.2,0.2-0.3,0.3l-0.7,0.7l0.7,0.7
		c2.7,3,4.5,4.9,4.6,5.1c0.9,1,0.8,2.6-0.2,3.5c-1,0.9-2.7,0.8-3.5-0.2c-0.1-0.1-16.2-18.1-30-33.2c-6.9-7.6-12.6-15.3-17.6-22
		l-0.2-0.2c-4.7-6.4-8.8-12-12-14.6c-5.9-4.9-12.2-3.9-12.2-3.9c-1.4,0.2-2.6-0.8-2.8-2.1c-0.2-1.4,0.7-2.6,2.1-2.8
		c0.7-0.1,4.1-0.4,8.4,0.8l1.4,0.4l-0.1-1.5c-0.1-1.4-1.2-5.4-8.4-11.6c-13.1-11.2-15-18.4-17-36.1c-2.1-18-3.7-21-11.7-21.5
		c-2.6-0.2-5.1,0.8-7.5,3c-5,4.4-8.4,13.2-8.8,22.4c-0.4,8,4.2,13.5,9,19.3c3.4,4.1,7,8.4,8,13.3c0.1,0.7,0,1.3-0.4,1.9
		s-0.9,0.9-1.6,1.1c-0.7,0.1-1.3,0-1.9-0.4s-0.9-0.9-1.1-1.5c0-0.1,0-0.2-0.1-0.3l-0.5-1.5l-1.1,1c-3.2,2.9-14.8,12.7-31.4,17.6
		c-2.9,0.9-5.9,1.6-9.1,2.3l0,0c-7.1,1.6-13.8,2.5-20.3,3.5l-0.5,0.1c-8.3,1.2-16.1,2.3-23.4,4.5c-14.3,4.4-20.3,12.8-20.8,17
		l-0.2,1.8l1.6-0.7c4.5-2.1,10.8-4,19.7-6c19.9-4.5,44.3-15.1,44.5-15.2s0.4-0.1,0.5-0.2c1.1-0.2,2.3,0.4,2.8,1.4
		c0.6,1.3,0,2.7-1.3,3.3c-0.2,0.1-24.4,10.8-45.4,15.5c-19.9,4.5-25,8.3-27.1,13.4c-0.9,2.2-0.4,5.2,1.3,7.6
		c0.9,1.3,3.3,4.2,7.6,4.1c0.3,0,0.7,0.1,1,0.2l0.8,0.3l0.4-0.7c4-6.9,14.7-10.1,29.4-13.8c12.1-3,26-9.5,31.9-12.3l0.1-0.1
		c4.3-2,4.6-2.1,5.8-1.3c0.6,0.4,0.9,0.9,1.1,1.6c0.1,0.7,0,1.3-0.4,1.9c-0.4,0.5-0.9,0.9-1.5,1l-0.2,0.1c-0.4,0.2-1.4,0.6-2.4,1.1
		l-0.3,0.2c-6,2.8-20.2,9.5-32.9,12.7c-14.4,3.6-25.5,6.9-27.1,13.5c-0.7,3.2-0.1,6,1.7,7.9c2.2,2.3,6.1,3.1,10.9,2.2
		c0.5-0.1,1,0,1.4,0.2l1.1,0.5l0.3-1.2c1.3-6,7.2-9.7,21.7-13.4c18-4.6,34-13.6,34.1-13.7c0.6-0.3,1.2-0.4,1.9-0.2
		c0.6,0.2,1.2,0.6,1.5,1.2c0.7,1.2,0.3,2.7-1,3.4c-1.7,1-17.4,9.6-35.3,14.2c-18.3,4.7-18.8,8.2-18.1,13.8c0.1,0.9,0.8,1.6,2.1,2.3
		c5.4,2.8,20.7,2.8,38.1-6.2c7.9-4.1,17.3-10,26.3-15.6l0.2-0.1c15.4-9.6,26-16.1,33.4-18.5c0.1,0,0.1,0,0.2-0.1
		c2.3-0.7,4.2-1,5.7-0.8c0.7,0.1,1.3,0.4,1.7,0.9c0.4,0.5,0.6,1.2,0.5,1.8c-0.1,0.9-0.6,1.6-1.4,2l-1.1,0.5l0.8,1
		c5.6,7.4,16.8,22.8,28.6,42.6c15.4,25.9,23.9,40.2,33.5,40.5c0.1,0,0.2,0,0.3,0c9.4,0,19.1-10.5,26.8-19l0.8-0.8
		c1.5-1.7,3-3.3,4.5-4.9l1.2-1.3v-0.3C268,491,269,480,267.7,472.4L267.7,472.4z M164,401.1c0,0.7-0.3,1.3-0.8,1.8s-1.1,0.7-1.8,0.7
		c-14.3-0.3-23.3,9.2-24.2,10.2l-0.1,0.1c-0.6,0.9-1.9,1.3-2.9,1c-0.6-0.2-1.2-0.7-1.5-1.3c-0.3-0.6-0.3-1.3-0.1-1.9
		c0.6-1.8,11.8-13.2,28.2-13.2c0.2,0,0.4,0,0.6,0C162.9,398.6,164,399.8,164,401.1z"/>
</g>
<path fill="none" stroke="#000000" stroke-width="6" stroke-linecap="round" stroke-linejoin="round" stroke-miterlimit="10" d="
	M420.8,209.4c3.6-0.2,4.1,10.2,0.2,11.1c-3.9,0.9-5.2-9.8-1.3-10.9s1.1,9.6,0.8,9.3s-1.4-5.6-1.4-5.6"/>
<path fill="none" stroke="#000000" stroke-width="6" stroke-linecap="round" stroke-linejoin="round" stroke-miterlimit="10" d="
	M452.2,204.1c3.6-0.2,4.1,10.2,0.2,11.1c-3.9,0.9-5.2-9.8-1.3-10.9s1.1,9.6,0.8,9.3s-1.4-5.6-1.4-5.6"/>
<path fill="none" stroke="#000000" stroke-width="6" stroke-linecap="round" stroke-linejoin="round" stroke-miterlimit="10" d="
	M404,177.9c-1-0.7-1.6-1.8-1.9-3.2c-0.6-3.4,1.4-8.3,7.1-11.4c8.1-4.4,15.3-2.7,15.4,0.7c0.2,3.4-6.9,4.7-12.5,9.8
	C406.7,178.9,406.3,179.7,404,177.9s1.6-9.4,2.7-9.8c1.1-0.4,7.3-2.8,7.6-3s6.3-1.8,6.3-1.8l-0.9,2.5l-12.4,9.6c0,0,1-4.8,1.3-4.8
	s4.3-1.8,4.3-1.8"/>
<path fill="none" stroke="#000000" stroke-width="6" stroke-linecap="round" stroke-linejoin="round" stroke-miterlimit="10" d="
	M438.1,162.6c-0.3-4.6,6.6-7.2,15.4-5.1c8.8,2.1,12.1,7.8,10.2,11.8s-6.6,1.9-9.9-0.8c-3.3-2.7-10.7-1.1-12.7-2.1
	c-2-1.1-2.8-2.4-2.1-4.1c0.7-1.8,7-2.2,7.9-2.4s5.8,1.1,6.9,1.3c1.1,0.2,4.5,0.5,4.9,0.8s2.4,4.7,2.4,4.7l-1.6,0.5
	c0,0-3-2.5-3.4-2.8c-0.4-0.2-4.4-1.1-4.6-1.1c-0.2-0.1-4.9-0.3-4.9-0.3l-3.4,0.4"/>
<path fill="none" stroke="#000000" stroke-width="7" stroke-linecap="round" stroke-linejoin="round" stroke-miterlimit="10" d="
	M453.1,232.6c0,0,19,3.8,28.2,6.3s15.7,15.6,13.3,33.7c-2.4,18.1-12.3,31.6-37.5,36.3c-25.2,4.7-39.1-9.4-43.5-19.9s-3.6-21,0-26.9"
	/>
<path fill="none" stroke="#000000" stroke-width="6" stroke-linecap="round" stroke-linejoin="round" stroke-miterlimit="10" d="
	M418.9,321.8c0,0,9,7.8,31.2,7.2c22.2-0.6,34.2-15.4,34.2-15.4"/>
<path fill="none" stroke="#000000" stroke-width="6" stroke-linecap="round" stroke-linejoin="round" stroke-miterlimit="10" d="
	M477.1,321.2c0,0-0.9,12.3-2.9,14.6c-2,2.3-15.3,10.1-30.9,8.6c-15.6-1.5-23.2-11.6-23.1-20"/>
<path fill="none" stroke="#000000" stroke-width="6" stroke-linecap="round" stroke-linejoin="round" stroke-miterlimit="10" d="
	M409,276.7c0,0-7,4.7-8.6,31.5c-1.6,26.8,5.2,52.3,7.8,54.4s2.5-7,2.5-7s12.1,29.2,25.1,31.5c4.6-2.3,1.8-11.9,4-13.1
	s4.6,10.1,11.3,11.2s4.9-12.5,6.9-11.8c2,0.8,0.6,8.3,5.4,8.1c4.7-0.2,7.6-11.8,7.6-11.8s2.6,5.7,3.8,9.6c1.2,4,10.5-12.4,12.7-17
	c2.1-4.6,2.9,4.1,3.1,8.1c0.2,4,6.7-11.2,8.3-19.4c1.5-8.3,1.5-8.3,1.5-8.3l3.8,4.3c0,0,3.4-49.2-10.5-63.9"/>
<path fill="none" stroke="#000000" stroke-width="7" stroke-linecap="round" stroke-linejoin="round" stroke-miterlimit="10" d="
	M335.2,244.3c-0.2-1.8-8.3-18.3-23.8-13.1c-15.6,5.3-25,30.3-15.8,50.9s34.4,19.7,39.7,7.1"/>
<path fill="none" stroke="#000000" stroke-width="6" stroke-linecap="round" stroke-linejoin="round" stroke-miterlimit="10" d="
	M311.3,259.7c0,0,14-3.2,19,11.6"/>
<path fill="none" stroke="#000000" stroke-width="7" stroke-linecap="round" stroke-linejoin="round" stroke-miterlimit="10" d="
	M333.3,292.4c0,0,3.2,4.3,7.3,21.8s6.6,28.3,24.5,41.9s55.5,36.1,74.4,47.7c19,11.6,20.3,14.8,23.5,26s6.4,19,6.4,19"/>
<path fill="none" stroke="#000000" stroke-width="7" stroke-linecap="round" stroke-linejoin="round" stroke-miterlimit="10" d="
	M467.6,443.6c0,0-0.2-23.7,5-37.9c5.2-14.2,15.4-25.2,28-46.5c12.5-21.2,19-34.9,20.6-54.9s-4-52.4-7.8-68.2s-1.8-28.7-3.7-49.7
	c-1.8-20.9-10.1-40.2-16.1-45.4s-21.4-8.3-33.9-9.3c-12.5-1.1-35-1.8-35-1.8"/>
<path fill="none" stroke="#000000" stroke-width="7" stroke-linecap="round" stroke-linejoin="round" stroke-miterlimit="10" d="
	M442.6,125.5c0-0.5-27.4,4.3-55,16.8c-27.7,12.5-46.6,29.2-46.6,29.2"/>
<path fill="none" stroke="#000000" stroke-width="7" stroke-linecap="round" stroke-linejoin="round" stroke-miterlimit="10" d="
	M343,169.7c0,0-8,19.4-6.6,37.1c1.5,17.7,5.5,35-0.2,36.5"/>
<path fill="none" stroke="#000000" stroke-width="7" stroke-linecap="round" stroke-linejoin="round" stroke-miterlimit="10" d="
	M312.2,229.4c-1.7-3.2-5-7-6.6-24.2c-1.5-17.1,5.5-24.4,5.7-26.5s1.6-20,5.6-23.4c4-3.4,4.4,3.7,5.5,3.5s2.3-14.8,9-21.4
	c6.7-6.6,9-2.8,9.3,2c4.9-11.6,12.1-17.1,27.4-29.7s24.3-14.1,24.5-11.2c0.2,2.9-3.1,11.8-1.8,13.8c6.1-8.4,33-17,37.6-15
	s-2,8.6-1.1,10c1.4,1.2,25.8-9.2,35.9-8.9c10.1,0.3,12.4,2.3,12.1,3.8c-0.3,1.5-3.7,5-3.7,5s14.2-3.2,23.1,0.8
	c8.9,4,10.4,6.6,7.6,9.2s-4.3,3.4-4.3,3.4s13.6,0.6,14.1,10.4s-3.4,11.5-3.4,11.5s10.2,4.3,10.4,26.1c0.2,21.9-7,36.1-8.1,46.8"/>
<path fill="none" stroke="#000000" stroke-width="7" stroke-linecap="round" stroke-linejoin="round" stroke-miterlimit="10" d="
	M512.7,210.6c0.6-1.7,18.6-5.2,22.5,14.2s0.8,43.9-13.8,49.1"/>
<path fill="none" stroke="#000000" stroke-width="6" stroke-linecap="round" stroke-linejoin="round" stroke-miterlimit="10" d="
	M517.8,258.2c0.2-0.5,0-14.6,5.1-23"/>
<path fill="none" stroke="#000000" stroke-width="7" stroke-linecap="round" stroke-linejoin="round" stroke-miterlimit="10" d="
	M354.4,346.3c0,0,0.1,5.4,8.4,25.2c8.3,19.8,18.1,32.2,26,42.7s19.9,23.6,23.8,26.9c2.9-11.8,14.4-29.6,16.1-29.9"/>
<path fill="none" stroke="#000000" stroke-width="7" stroke-linecap="round" stroke-linejoin="round" stroke-miterlimit="10" d="
	M355.5,354.9c-1.1-0.7-9.4-2.6-15.9,0S321,373.4,301,394.2c-20.1,20.9-46.8,44.9-51.7,50.4c6.2,2.4,22,18.9,29.8,32.7
	c7.8,13.8,10.5,36.1,10.7,38.3c-3.6-1.6-10.9-5.4-19.4-19.3"/>
<path fill="none" stroke="#000000" stroke-width="7" stroke-linecap="round" stroke-linejoin="round" stroke-miterlimit="10" d="
	M290.7,515c0,0,16.3-24.2,31-43s32.2-39.8,32.2-39.8"/>
<line fill="none" stroke="#000000" stroke-width="7" stroke-linecap="round" stroke-linejoin="round" stroke-miterlimit="10" x1="252.3" y1="449.3" x2="244.9" y2="458.6"/>
<path fill="none" stroke="#000000" stroke-width="7" stroke-linecap="round" stroke-linejoin="round" stroke-miterlimit="10" d="
	M249.2,468.6c0,0-16.3-18.1-30-33.2s-23.3-31.5-30-37.1c-6.8-5.6-14.2-4.5-14.2-4.5"/>
<path fill="none" stroke="#000000" stroke-width="7" stroke-linecap="round" stroke-linejoin="round" stroke-miterlimit="10" d="
	M186.3,393.6c0,0,3.6-5.5-8.8-16.1s-14.1-16.6-16.2-34.5s-3.9-23-14-23.7s-18.3,12.5-19,27.7c-0.7,15.2,14.9,22.7,17.1,33.2"/>
<path fill="none" stroke="#000000" stroke-width="7" stroke-linecap="round" stroke-linejoin="round" stroke-miterlimit="10" d="
	M142.4,375.5c-0.1,0.3-13,13.9-33.2,19.8c-20.3,6-37.8,5.6-53.4,10.4s-23.6,14.9-22.5,21.2"/>
<path fill="none" stroke="#000000" stroke-width="7" stroke-linecap="round" stroke-linejoin="round" stroke-miterlimit="10" d="
	M102.2,407.3c0,0-24.4,10.8-44.9,15.4s-26.4,8.7-28.9,14.9c-2.5,6.2,3,15.4,11.4,15.1"/>
<path fill="none" stroke="#000000" stroke-width="7" stroke-linecap="round" stroke-linejoin="round" stroke-miterlimit="10" d="
	M107.6,424.6c-0.3-0.2-19.3,9.9-35.8,14s-27.1,7.5-28.9,15.4s3.2,15.4,15.5,13.2"/>
<path fill="none" stroke="#000000" stroke-width="7" stroke-linecap="round" stroke-linejoin="round" stroke-miterlimit="10" d="
	M117.8,439.1c0,0-16.2,9.2-34.7,14s-20.9,8.7-19.9,16.5c0.9,7.8,21.7,9.5,43.8-1.9s54.6-36,64.4-34.9"/>
<path fill="none" stroke="#000000" stroke-width="7" stroke-linecap="round" stroke-linejoin="round" stroke-miterlimit="10" d="
	M166.5,433.6c0,0,15.4,19.1,31.9,46.9s24.6,41.4,35.6,41.7s21.6-11.6,29.8-20.6c8.3-9,17-18.3,17-18.3"/>
<path fill="none" stroke="#000000" stroke-width="7" stroke-linecap="round" stroke-linejoin="round" stroke-miterlimit="10" d="
	M257.2,450.4c0,0,11.4,12.7,13,21.6c1.5,8.9,0,22.2,0,22.2l6.3-10.4v-5.2"/>
<path fill="none" stroke="#000000" stroke-width="7" stroke-linecap="round" stroke-linejoin="round" stroke-miterlimit="10" d="
	M135,412.6c0.2-0.5,10.4-11.8,26.4-11.5"/>
<path fill="none" stroke="#000000" stroke-width="7" stroke-linecap="round" stroke-linejoin="round" stroke-miterlimit="10" d="
	M334.3,458.6c0,0,13.1,27.7,15.1,36.7c2.1,9.2-6.9,108.3-1.8,136.5c5.5,6.4,39.4,18.3,64.9,18.1"/>
<path fill="none" stroke="#000000" stroke-width="7" stroke-linecap="round" stroke-linejoin="round" stroke-miterlimit="10" d="
	M353.9,637.8c0,0-1.3,19.9,1.6,28"/>
<path fill="none" stroke="#000000" stroke-width="7" stroke-linecap="round" stroke-linejoin="round" stroke-miterlimit="10" d="
	M515.2,332.9c0,0,4.6,21.7,0,56.8s-10.8,44-10.8,44s-6.4-17.9-16.9-27.7"/>
<path fill="none" stroke="#000000" stroke-width="7" stroke-linecap="round" stroke-linejoin="round" stroke-miterlimit="10" d="
	M516,338.4c0,0,9.5-3.8,33.8,13.2s64.4,33.3,84.6,39.3c8.3,4.8,11,19.7,11,42.4c0,22.7-21.8,41.3-21.8,41.3s-21.6-12.6-41-22.9
	c-19.5-10.3-27.7-11.9-27.7-11.9"/>
<path fill="none" stroke="#000000" stroke-width="7" stroke-linecap="round" stroke-linejoin="round" stroke-miterlimit="10" d="
	M640.6,398.3c2.7-3.1,13.5-18.9,20.2-29.7c6.6-10.8,10.3-19.7,12.4-22c2.5-6.9,1.5-9.3-0.6-17.9S672,311,674.7,305
	c2.6-6.1,4-12.7-5.2-22.1s-12.7-13.5-8.4-18.9c4.4-5.4,22.5-7.6,36.3,0c13.9,7.6-3.3,27.3,8.1,34.4c11.4,7.1,45.4-1.7,58.5-6.9
	c13.1-5.2,43.1-8.4,51.7-0.9"/>
<path fill="none" stroke="#000000" stroke-width="7" stroke-linecap="round" stroke-linejoin="round" stroke-miterlimit="10" d="
	M754.5,307.7c0.7,0,14.9-3.9,33.5-10.5s27.1-6.9,35.4-3.3c8.4,3.6,6.8,8.8,6.1,10.7"/>
<path fill="none" stroke="#000000" stroke-width="7" stroke-linecap="round" stroke-linejoin="round" stroke-miterlimit="10" d="
	M761.2,320.8c2.3-0.5,15.2-2.4,38.2-12.5c22.9-10.1,29-3.2,30.6,4.4s-4.8,14.6-7.9,16"/>
<path fill="none" stroke="#000000" stroke-width="7" stroke-linecap="round" stroke-linejoin="round" stroke-miterlimit="10" d="
	M764.8,336.4c0,0,17.8-6.4,32-12.4s21.1-2.4,21.6,6.1s-16.3,16.9-38.6,21.1c-22.4,4.2-76.4,6.2-77.8,7.3"/>
<path fill="none" stroke="#000000" stroke-width="7" stroke-linecap="round" stroke-linejoin="round" stroke-miterlimit="10" d="
	M701.8,355.1c0,0-16.1,53.7-28.7,79.6s-26.6,28.7-36,26.4"/>
<path fill="none" stroke="#000000" stroke-width="7" stroke-linecap="round" stroke-linejoin="round" stroke-miterlimit="10" d="
	M695.9,332.2c0.7-1.4,14-14.9,36.9-10.1"/>
<path fill="none" stroke="#000000" stroke-width="7" stroke-linecap="round" stroke-linejoin="round" stroke-miterlimit="10" d="
	M551.4,407.4c0,0-0.5,22.2,0.9,32.7s7.3,23.5,8.7,33.6s1.2,14.2,3.2,17.4c2,3.2,16.1,25.1,21.7,51.8c5.7,26.8,7.2,46.3,9.3,49.8"/>
<path fill="none" stroke="#000000" stroke-width="6" stroke-linecap="round" stroke-linejoin="round" stroke-miterlimit="10" d="
	M364.8,520.9c0,0,32.3,49.1,73.4,67.9"/>
<path fill="none" stroke="#000000" stroke-width="6" stroke-linecap="round" stroke-linejoin="round" stroke-miterlimit="10" d="
	M360.2,550c0.5,0.7,10.3,37.6,41.3,62.1"/>
<path fill="none" stroke="#000000" stroke-width="7" stroke-linecap="round" stroke-linejoin="round" stroke-miterlimit="10" d="
	M291.9,265.3c-1.7-0.1-23.9,3.3-39.5,8.6c-15.6,5.3-12.6,13.8-10.5,33.2c2.1,19.5,24.9,113.4,26.4,115.6"/>
<path fill="none" stroke="#000000" stroke-width="6" stroke-linecap="round" stroke-linejoin="round" stroke-miterlimit="10" d="
	M240.2,283.1c0,0,14.5-5.5,18.6,7.1s6.9,44,13.5,73.8s12.4,46.4,12.4,46.4"/>
<path fill="none" stroke="#000000" stroke-width="7" stroke-linecap="round" stroke-linejoin="round" stroke-miterlimit="10" d="
	M296.7,509.4c0,0,16.1,43.3,23.6,82.5s11,80.3,11,80.3"/>
<path fill="none" stroke="#000000" stroke-width="7" stroke-linecap="round" stroke-linejoin="round" stroke-miterlimit="10" d="
	M882.5,531.4c-1.1-1.4-32.3-14.4-32.3-14.4S187.3,717.8,183.6,722.4c0,0-0.3,4.9,0.9,13.6s0.6,19.4,1.5,21.6
	c0.9,2.1,250.9,250.1,257,253.8c0.4,0.2,2.9,2,6.8,0.6c31.7-11.1,172.3-73.3,304.3-130.6c130.5-56.6,252.7-108.5,252.7-108.5"/>
<path fill="none" stroke="#000000" stroke-width="5" stroke-linecap="round" stroke-linejoin="round" stroke-miterlimit="10" d="
	M185.5,723.2c0,0,259.5,259.9,261.5,260.1c2.1,0.1,550.2-230.3,550.2-230.3"/>
<line fill="none" stroke="#000000" stroke-width="5" stroke-linecap="round" stroke-linejoin="round" stroke-miterlimit="10" x1="446.1" y1="983.3" x2="447.1" y2="1010"/>
<line fill="none" stroke="#000000" stroke-width="6" stroke-linecap="round" stroke-linejoin="round" stroke-miterlimit="10" x1="198.4" y1="770.2" x2="201.6" y2="846.8"/>
<line fill="none" stroke="#000000" stroke-width="6" stroke-linecap="round" stroke-linejoin="round" stroke-miterlimit="10" x1="464.2" y1="1007.4" x2="464.2" y2="1085.3"/>
<path fill="none" stroke="#000000" stroke-width="6" stroke-linecap="round" stroke-linejoin="round" stroke-miterlimit="10" d="
	M864.3,835.8c0-0.5,0.8,81,0.8,81"/>
<path fill="none" stroke="#000000" stroke-width="8" stroke-linecap="round" stroke-linejoin="round" stroke-miterlimit="10" d="
	M1000.1,325.4c0,0-20.3,26.9-27.2,46.4c-6.9,19.5-5.3,61-3.4,66.7"/>
<path fill="none" stroke="#000000" stroke-width="8" stroke-linecap="round" stroke-linejoin="round" stroke-miterlimit="10" d="
	M967.9,399.6c0,0-5.6,10.9-14.7,14.3s-19,7.3-20.1,23.2c-1,15.8,7.9,24.2,16.4,29.1s11.7,5.5,12.4,9.5c0.7,4,0.5,24.9,3.2,31.5
	s14.8,15.8,22,16.7c-4.7,4.7-9.6,8.1-11.9,10.2c-2.3,2.1,1.3,14,11.8,25.2s26.4,13.8,32.8,12.8c6.4-0.9,7.2-1.8,7.2-1.8"/>
<path fill="none" stroke="#000000" stroke-width="8" stroke-linecap="round" stroke-linejoin="round" stroke-miterlimit="10" d="
	M1027,567.3c0,0,11.5,15.7,9.6,27.2"/>
<path fill="none" stroke="#000000" stroke-width="8" stroke-linecap="round" stroke-linejoin="round" stroke-miterlimit="10" d="
	M1014.9,437.2c0,0,8.7-13.3,22.6-11.5s21.4,16.1,20.2,38.5c-1.2,22.5-11.2,38.1-20.2,40.2"/>
<path fill="none" stroke="#000000" stroke-width="7" stroke-linecap="round" stroke-linejoin="round" stroke-miterlimit="10" d="
	M1027.8,446.8c0,0,4.3,4.1,6.3,13.5c2,9.3,0,16.7,0,16.7"/>
<path fill="none" stroke="#000000" stroke-width="8" stroke-linecap="round" stroke-linejoin="round" stroke-miterlimit="10" d="
	M1025.6,474.8c6-0.2,9.3,10.7,9.3,22.5s-0.9,30.7-4.6,31.6c-3.7,0.9-10.9-1.8-11.8-23.1C1017.5,484.6,1021.8,474.5,1025.6,474.8z"/>
<path fill="none" stroke="#000000" stroke-width="7" stroke-linecap="round" stroke-linejoin="round" stroke-miterlimit="10" d="
	M953.8,374.7c0,0-0.6,12.7,13,13.1"/>
<path fill="none" stroke="#000000" stroke-width="8" stroke-linecap="round" stroke-linejoin="round" stroke-miterlimit="10" d="
	M1015.4,433c0,0-4.1,0.5-6.6-6s-0.5-11.4-3.4-13.9s-6.9-8.4-5.4-13.1s3-4.8-1.5-13.1c-4.5-8.3-0.6-11.2,0.1-15.5s-2.3-10.5-2.5-16.2
	s3-8.2,2.4-12c-0.7-3.8-2.1-9.9,1.1-13.8s1.9-4.4,4.9-10.1c2.9-5.7,4.4-3.7,8-5.4c3.6-1.7,6.6-8.9,12.6-9.9s5.8,0,9.7-3.5
	c3.9-3.5,8.4-5.8,14.2-5.8s7-0.2,14.1-4c7.1-3.8,11.7,0.2,17-0.3s8.8-3.8,12.8-0.9c4,2.9,7.3-0.6,13.2,0.7c5.9,1.3,3.6,2.1,8,2
	s7.2,0.2,8.4,1.8c1.2,1.6,1.2,3.6,1.2,3.6"/>
<path fill="none" stroke="#000000" stroke-width="8" stroke-linecap="round" stroke-linejoin="round" stroke-miterlimit="10" d="
	M1132.3,295.1c0,0-37.6,18.1-38.2,55.3s31.3,54.4,57.6,54.9c26.3,0.5,27.8-19.7,27.8-19.7"/>
<path fill="none" stroke="#000000" stroke-width="8" stroke-linecap="round" stroke-linejoin="round" stroke-miterlimit="10" d="
	M1136.8,300.4c0,0-17.7,10.1-21.3,35c-3.7,24.9,3.7,47.1,26.8,52s36.5-6.6,36.5-6.6"/>
<path fill="none" stroke="#000000" stroke-width="8" stroke-linecap="round" stroke-linejoin="round" stroke-miterlimit="10" d="
	M1179.6,378.8c-0.5,0-23.5,3.8-36.1-8.1c-12.5-11.9-13.1-43.4-9.3-51.1s4.9-10.9,4.7-13.8s-3.4-15-2.1-18.2c1.3-3.2,5.3-2,5.3-2
	s-0.5-10.1,1.5-17.4s5-12,8-9.2c2-5.5,5.2-15.6,9.5-19.3s5.7,0.6,5.7,0.6s11.3-15.4,18.3-18.5s5.3,2.1,7.5,3.7
	c2.2,1.6,8.6-0.6,7.6,5.8c-1,6.4-12.5,24.2-12.5,24.2s8.5-9.7,12.3-7.9s4.3,5.3,4.3,5.3s5.7-18,11.2-17.5c5.6,0.5,7.4,4.4,7.7,4.4
	c0.3,0,2.8-8.4,7.2-13.8s10.9-3.3,11.5,2c5.4-9.6,19-14.8,22.5-9.4c3.6,5.4-4.3,6.2-1.8,9.9c2.4,3.7,5,1,2.8,9.2
	s-13.9,9.7-14.7,10.8c-0.8,1.1-0.3,2.9-3.4,5.7c-3.1,2.8-17.3,10.8-17.3,10.8s6.3,4.4,5.8,9.4c6.6-9.7,12.8-12.9,17.9-11.2
	c5.1,1.8,6.3,5.8,8,7.6c1.7,1.8-2-7,7.6-10.1s12.8,1.5,14.7,5.8c9.8-6.3,20.3-6.6,20.9-0.4s-5,4.2-3.2,8.3s1.1,13.3-9.2,14.5
	c-10.3,1.2-9.6-0.2-11.8,3.5c-2.2,3.7-8.6,10.1-19.8,10.9c-11.2,0.8-23.6-0.2-22.9,2.2c0.7,2.4,1.3,10.2,1.3,10.2s4.8-6.3,15.7-6.5
	c10.9-0.2,15.8,3.6,17,11.4c5.8-10.1,21.2-12.5,24.6-6.6s1.8,8.6,1.8,8.6s9-6.1,20.6,0.1s0.8,11.7-4.6,13.1c6.8,8.8-3.2,17-9.7,14.6
	s-9.8-5.5-9.8-5.5s-2,11.9-12.3,9.2s-14.7-8.7-14.7-8.7s-8.3,4.6-16.5,2.9c-8.3-1.7-11.8-4.3-11.8-4.3s11.6,9.2,5.3,13.8
	c19.7-3.6,23.8,7.7,18.2,12.1c18-1.2,5.4,18.1-2.4,13c2.2,2.4-1,10.6-8.2,8.6s-13-9.9-13-9.9s2.5,5.6-2.5,4s-14.1-11.6-13.6-12.5
	c0.5-0.8,6.5,11.8,6.4,20.9c-0.1,9.2-2.3,12.7-5.4,12.8c-3.1,0.1-4.8-3.1-4.8-3.1s2.1,12.5-5.5,14.7c-7.6,2.1-11.1-5.7-11.1-5.7
	s-3.7,3.9-6.2-3.2c-2.4-7.1-2-16.6-2-16.6s-6.7-0.4-13.1-14"/>
<path fill="none" stroke="#000000" stroke-width="8" stroke-linecap="round" stroke-linejoin="round" stroke-miterlimit="10" d="
	M1166.4,352.6c0.2-0.3,7.9-5,9.6-3.6s4.1,8.6,7,7.1s7.2-6.4,11.5-6s4.8,3.9,9.5,2.9s5.7,0.2,5.7,0.2"/>
<path fill="none" stroke="#000000" stroke-width="8" stroke-linecap="round" stroke-linejoin="round" stroke-miterlimit="10" d="
	M1180,331.5c-0.5-0.6,1.8-7.1,5-6.4s6.1,7.7,9.5,5.4c3.4-2.3,5.6-11,9.7-7.7s3.9,3.1,7.7,2.1c3.8-1,6.4-2.1,7.7-1"/>
<path fill="none" stroke="#000000" stroke-width="8" stroke-linecap="round" stroke-linejoin="round" stroke-miterlimit="10" d="
	M1242.3,308c0.7-0.1,6.3,0.9,6.3,0.9"/>
<line fill="none" stroke="#000000" stroke-width="8" stroke-linecap="round" stroke-linejoin="round" stroke-miterlimit="10" x1="1237.7" y1="266" x2="1241.8" y2="262.6"/>
<path fill="none" stroke="#000000" stroke-width="8" stroke-linecap="round" stroke-linejoin="round" stroke-miterlimit="10" d="
	M1159.2,320.8c0.1-0.8-0.3-10.3,4.5-12.8s8.5-2.1,8.5-2.1s1.4-8.2,3.8-10.8s8.7-2,8.7-2s3.3-7,8.7-11.8c5.4-4.8,9.2-5.5,9.2-5.5"/>
<path fill="none" stroke="#000000" stroke-width="8" stroke-linecap="round" stroke-linejoin="round" stroke-miterlimit="10" d="
	M1178.8,393.5c-0.1,0.3,3.1,5.8,1.9,8.8c-1.1,3-3.2,4.2-2,10.8s0,9.2-1.6,12.4c-1.6,3.2,1,0.3-2.4,8s-4.7,5.3-4.6,10.5
	c0.1,5.3,1.3,8-2.2,12c-3.4,4-0.7,4-2.2,8.9s-10.1,7-10.5,13.1c-0.5,6.1,3.1,9.6-4.1,13.2s-4.5,1-9.3,7.8s-10.8,5-12.3,8
	s-4.8,6.8-7.3,7.3c-2.5,0.6-8.3,2.1-11.2,4.4c-3,2.3-8-1.7-9.7-1s-8.5,8.5-14.4,3.3c-6-5.2-2.9-3.2-12.4-1.5s-7.6-3.9-11.7-5
	c-4.1-1.1-5.5,2.1-8.5-0.7c-3-2.8-8.9-12-8.9-12"/>
<path fill="none" stroke="#000000" stroke-width="8" stroke-linecap="round" stroke-linejoin="round" stroke-miterlimit="10" d="
	M1115.4,518.7c0,0-2.9,6.9-12.5,15c-9.6,8.1-17.2,17.5-19.3,33.8c-2.1,16.3,6.4,20.1,7.5,25.5s-1.8,12.6-17.5,13.9
	c-15.7,1.3-29.6-9.4-37.3-11.5c-7.7-2.1-22.5,13.9-30.1,21.9c-7.7,8-44.7,61.8-62.4,82.9c-17.7,21.1-22,18.6-20.9,32.6
	s18.6,31.6,34,31.1s27.7-27.3,40.3-40.7s29.8-33.1,29.8-33.1"/>
<path fill="none" stroke="#000000" stroke-width="8" stroke-linecap="round" stroke-linejoin="round" stroke-miterlimit="10" d="
	M921.7,727c0,0-104.6,3.9-113.3,3.2c-8.7-0.7-30.5-21.2-42.3-31c-11.8-9.8-23.5-13.8-31.5-14.1s-30.7,2-37.8,5.4
	c-7,3.4-21.2,14.5-29.4,16.1c-8.1,1.5-22.8,0.8-27.5,5.2s-7.6,18,7.3,20.9s23.4-5.7,27.7-7.9c4.3-2.3,11-3.2,11-3.2"/>
<path fill="none" stroke="#000000" stroke-width="8" stroke-linecap="round" stroke-linejoin="round" stroke-miterlimit="10" d="
	M696,710.5c0,0-8.1,7.5-14.8,23.5c-6.7,16.1-2.9,19.9-1.2,22.3s19.3,11,29,10.4c9.8-0.6,19.1-7.9,19.6-8.1"/>
<path fill="none" stroke="#000000" stroke-width="8" stroke-linecap="round" stroke-linejoin="round" stroke-miterlimit="10" d="
	M695.6,750.9c0,0,16.2,5.7,43.9,5.7c27.8,0,50.9-4.9,60.9-4.4c10.1,0.5,72.2,11.6,93.7,15.9c21.6,4.3,46,9.2,63.1-1.8"/>
<path fill="none" stroke="#000000" stroke-width="4" stroke-linecap="round" stroke-linejoin="round" stroke-miterlimit="10" d="
	M637.6,718.9c0,0,12.8,1.2,19.7-0.5s1.2-7.5-3.1-9.3"/>
<path fill="none" stroke="#000000" stroke-width="8" stroke-linecap="round" stroke-linejoin="round" stroke-miterlimit="10" d="
	M974.7,659.2c-0.5-0.2-6.5,0.6-15.1-1.5s-15.4-4.9-16.6-5c-1.3-0.1-7.6,2.7-11.7,3.3"/>
<path fill="none" stroke="#000000" stroke-width="8" stroke-linecap="round" stroke-linejoin="round" stroke-miterlimit="10" d="
	M941.9,652.1c0,0-5.7-16.5-6.9-34.7c-1.1-18.2,2.3-31.6-2.6-45.9s-4-18.1-6-30.5c-1.9-12.4-8.3-13-16.6-20.4
	c-8.4-7.5-21.1-7.9-24.2-1.1s0.8,18.5,5.5,20.6c4.7,2.2,7.8,0.7,13.3,6.4c5.5,5.7,5.4,9.3,5.4,9.3"/>
<path fill="none" stroke="#000000" stroke-width="8" stroke-linecap="round" stroke-linejoin="round" stroke-miterlimit="10" d="
	M918.8,562.9c-1.7-0.5-3.6,0.6-6.5-2.5c-3-3.1-6-1.5-9.5-1c-3.6,0.5-7.1-3.4-10.4-3.2c-3.3,0.2-7.8,2.4-7.8,2.4"/>
<path fill="none" stroke="#000000" stroke-width="8" stroke-linecap="round" stroke-linejoin="round" stroke-miterlimit="10" d="
	M887.9,577.2c-0.2-0.3-5.4-19.9-12.5-23.8s-21.9,5.6-27.3,13.2s-1.1,16.1-1.1,16.1"/>
<path fill="none" stroke="#000000" stroke-width="8" stroke-linecap="round" stroke-linejoin="round" stroke-miterlimit="10" d="
	M866.7,577.7c0,0,11.1,47.2,11.5,51.8"/>
<path fill="none" stroke="#000000" stroke-width="8" stroke-linecap="round" stroke-linejoin="round" stroke-miterlimit="10" d="
	M881.6,633.7c0,0-11.1-7.9-24.2-5.6c-13.1,2.4-25,19-18.6,26.4c6.3,7.4,18.4,0.8,26-2.4s13-1.8,16.5,3.2s11.2,13.5,19.6,13.3
	c8.5-0.2,13.8-1.1,26.8,5.4s25.6,14.2,25.6,14.2"/>
<path fill="none" stroke="#000000" stroke-width="4" stroke-linecap="round" stroke-linejoin="round" stroke-miterlimit="10" d="
	M887.9,520.3c0,0.3,8,9.7,14.6,10.3c6.5,0.6,6.2-5.7,6.1-6.5"/>
<path fill="none" stroke="#000000" stroke-width="4" stroke-linecap="round" stroke-linejoin="round" stroke-miterlimit="10" d="
	M840.1,651.1c0.7-1.4,8.8-9.6,16.3-9.1s8.5,5.8,6.4,10.1"/>
<path fill="none" stroke="#000000" stroke-width="8" stroke-linecap="round" stroke-linejoin="round" stroke-miterlimit="10" d="
	M959.7,657.8c0,0,1.9-88.7,0.9-96.8c-1-8-4.7-7.9-9.9-6.6c-5.2,1.3-19.5,5.2-19.5,5.2"/>
<path fill="none" stroke="#000000" stroke-width="8" stroke-linecap="round" stroke-linejoin="round" stroke-miterlimit="10" d="
	M864.5,579.1c0,0-60.2,17.5-67.8,20.1c-7.6,2.5-10.1,6.2-10.1,12.4s2.8,106.2,2.8,106.2"/>
<line fill="none" stroke="#000000" stroke-width="5" stroke-linecap="round" stroke-linejoin="round" stroke-miterlimit="10" x1="795.3" y1="622.2" x2="795.3" y2="633"/>
<line fill="none" stroke="#000000" stroke-width="5" stroke-linecap="round" stroke-linejoin="round" stroke-miterlimit="10" x1="796.3" y1="644.1" x2="796.9" y2="656.7"/>
<line fill="none" stroke="#000000" stroke-width="5" stroke-linecap="round" stroke-linejoin="round" stroke-miterlimit="10" x1="798.3" y1="704.9" x2="798.7" y2="711.3"/>
<path fill="none" stroke="#000000" stroke-width="7" stroke-linecap="round" stroke-linejoin="round" stroke-miterlimit="10" d="
	M817.3,616.9c0,0,18.2-5,20.6-5.1c2.4-0.2,2.9,0.7,3.3,4.3s-0.1,7.9-0.7,8.3s-20,7.4-22.1,7.6c-2.1,0.2-3.6-0.2-4.3-3.1
	c-0.7-2.9-0.3-7.1-0.3-8.2S814.8,617.5,817.3,616.9z"/>
<path fill="none" stroke="#000000" stroke-width="7" stroke-linecap="round" stroke-linejoin="round" stroke-miterlimit="10" d="
	M799.4,750.9c0,0-0.3-18.9,8.7-42s21.7-20.5,23.7-15.3s1.4,33.5,1.4,33.5"/>
<path fill="none" stroke="#000000" stroke-width="7" stroke-linecap="round" stroke-linejoin="round" stroke-miterlimit="10" d="
	M800.3,750.1c0-1.7,15.4-35.8,31.9-47.7s26.2-6.3,12.5,27.2"/>
<path fill="none" stroke="#000000" stroke-width="8" stroke-linecap="round" stroke-linejoin="round" stroke-miterlimit="10" d="
	M862.2,729.1c0,0,68.8-27.4,80.8-29.1"/>
<path fill="none" stroke="#000000" stroke-width="8" stroke-linecap="round" stroke-linejoin="round" stroke-miterlimit="10" d="
	M999.4,720.8c-0.2,0.2,1.5,9.5,0.7,18.3c-0.8,8.7-2.3,15.9,3.2,24.8s14.4,10.1,18,18.2c3.7,8.1,7.3,39.4,17.3,52"/>
<path fill="none" stroke="#000000" stroke-width="8" stroke-linecap="round" stroke-linejoin="round" stroke-miterlimit="10" d="
	M1089.6,589.7c0,0,18.1,8.1,28.3,34.9c10.2,26.8,12.2,56.7,25.4,84.2c13.1,27.5,23.8,39.3,23.8,39.3"/>
<path fill="none" stroke="#000000" stroke-width="8" stroke-linecap="round" stroke-linejoin="round" stroke-miterlimit="10" d="
	M1085.8,856.3c0,0,26.6,3.5,40.5-11"/>
<path fill="none" stroke="#000000" stroke-width="5" stroke-linecap="round" stroke-linejoin="round" stroke-miterlimit="10" d="
	M1038.9,592.5c0,0,24.2-19.2,41.7-17"/>
<path fill="none" stroke="#000000" stroke-width="5" stroke-linecap="round" stroke-linejoin="round" stroke-miterlimit="10" d="
	M1041.1,594.2c0.4-0.1,29.7-11.2,43.4-8.9"/>
<path fill="none" stroke="#000000" stroke-width="7" stroke-linecap="round" stroke-linejoin="round" stroke-miterlimit="10" d="
	M1094.6,639.6c0,0,10.4,86.5,41.9,132.7"/>
<path fill="none" stroke="#000000" stroke-width="8" stroke-linecap="round" stroke-linejoin="round" stroke-miterlimit="10" d="
	M1118.4,880.2c0.3-1.8,11-53.8,41.3-110.7s52.1-141.6,55.8-171.8c3.7-30.3-2.8-81.4,6.4-86.4s155.5-59.6,163.3-59.6"/>
<path fill="none" stroke="#000000" stroke-width="8" stroke-linecap="round" stroke-linejoin="round" stroke-miterlimit="10" d="
	M1200.4,663.9c-1.7-0.2-16.8,4.6-18.2-15.1c-1.4-19.7,5.3-23.2,9.1-66.5c3.7-43.3-1.6-66.1,9.1-77.9s48.3-21.4,91.2-36.8
	c42.9-15.4,71.1-25,78.9-26.6s15.8,3.2,16.7,9.9c5.5,3.7,7.1,19.5,5.5,76.1s-48.6,164.9-62.6,196.5s-32.1,95.4-39.2,127.7
	s0.7,58.2-11,69.2s-71.5,39.9-113.3,61.9c-41.7,22-52.3,29.7-67,30s-26.6-3.6-32.1-7.1"/>
<path fill="none" stroke="#000000" stroke-width="6" stroke-linecap="round" stroke-linejoin="round" stroke-miterlimit="10" d="
	M1195,515.5c0,0,6.1-5.7,12.5-3.8c6.4,2,9.3,9.6,9.3,9.6"/>
<path fill="none" stroke="#000000" stroke-width="8" stroke-linecap="round" stroke-linejoin="round" stroke-miterlimit="10" d="
	M1319.8,754.3c0,0,8.7,2.5,11.2,17.4s0.1,35.8-4.6,40.1c-4.7,4.4-29.3,13.7-29.3,13.7"/>
<path fill="none" stroke="#000000" stroke-width="8" stroke-linecap="round" stroke-linejoin="round" stroke-miterlimit="10" d="
	M1320.3,815.6c0,0,2.5,8-4.4,25s-10.9,36.8-13.6,43.7s-11.4,12.4-13.9,14.4"/>
<path fill="none" stroke="#000000" stroke-width="8" stroke-linecap="round" stroke-linejoin="round" stroke-miterlimit="10" d="
	M1118.7,1010.9c-0.2-0.7-3.7,27.1-4.4,33"/>
<path fill="none" stroke="#000000" stroke-width="8" stroke-linecap="round" stroke-linejoin="round" stroke-miterlimit="10" d="
	M1063.9,1050.3c0-1.1-0.9-42.9-0.9-42.9"/>
<path fill="none" stroke="#000000" stroke-width="8" stroke-linecap="round" stroke-linejoin="round" stroke-miterlimit="10" d="
	M1112,939.8c0,0-7,32.4-27.2,53.2c0,0-14.9,9.9-21.8,10.5c-6.9,0.7-35-9.5-53.8-19.8s-32.4-16.9-36.9-25.6
	c-4.5-8.7-14.2-50.9-14.9-63.9"/>
<path fill="none" stroke="#000000" stroke-width="8" stroke-linecap="round" stroke-linejoin="round" stroke-miterlimit="10" d="
	M1065.7,972.9c-1.1-0.9-53-18.9-59.8-28.7s-13.4-50.8-15.7-65.4"/>
<path fill="none" stroke="#000000" stroke-width="8" stroke-linecap="round" stroke-linejoin="round" stroke-miterlimit="10" d="
	M990.9,867.2c-0.1-0.3,1.4,6.6-0.7,8.6s-17.8,9.7-23.4,12.5s-10,5.4-12.6,1.7s-4.6-21.7-4.7-32s3.1-15.3,15.5-24s17.5-8.4,36-6.2
	s54,9.9,76,23.3c22,13.4,37.3,25.8,40.9,34.3c3.7,8.5,0.3,38.4,0,45.4s-17.9,18.9-23.5,21s-15.7,0.6-15.6-5.7s6.6-21.3-1.4-32.4
	c-8-11.1-34.6-27.7-54.2-36.9S983.5,861.6,969,864"/>
<path fill="none" stroke="#000000" stroke-width="8" stroke-linecap="round" stroke-linejoin="round" stroke-miterlimit="10" d="
	M1078.8,949.6c0,0-5.7,25.2-23.8,39.4"/>
<path fill="none" stroke="#000000" stroke-width="8" stroke-linecap="round" stroke-linejoin="round" stroke-miterlimit="10" d="
	M1078.2,914.7c0,0-20.3-2.4-40.4-13.7c-20-11.3-43.7-19.1-45.6-19.7"/>
<path fill="none" stroke="#000000" stroke-width="8" stroke-linecap="round" stroke-linejoin="round" stroke-miterlimit="10" d="
	M970.9,959.4c0,0-36.2-16.8-52.1-24.3s-26.3-11.3-29.8-24.8s-1.5-28,3.4-32.9s26.1-13.6,33.5-16.7c7.3-3.1,7.5-4.1,7.5-4.1"/>
<path fill="none" stroke="#000000" stroke-width="8" stroke-linecap="round" stroke-linejoin="round" stroke-miterlimit="10" d="
	M921.7,939.2c0-0.5,2.8,26.6,6.7,36.7"/>
<path fill="none" stroke="#000000" stroke-width="7" stroke-linecap="round" stroke-linejoin="round" stroke-miterlimit="10" d="
	M889.3,887.7c0,0,9.2-5.2,22.6,4.6c13.5,9.8,49.8,27.6,49.8,27.6"/>
<line fill="none" stroke="#000000" stroke-width="8" stroke-linecap="round" stroke-linejoin="round" stroke-miterlimit="10" x1="930.4" y1="853.9" x2="947.3" y2="860.6"/>
<path fill="none" stroke="#000000" stroke-width="8" stroke-linecap="round" stroke-linejoin="round" stroke-miterlimit="10" d="
	M918,862.4c-0.3-1.8-3.7-24.3,1.8-33.3s13.1-16.7,35.6-18.2s64.5,1.7,74.3,3.2"/>
<path fill="none" stroke="#000000" stroke-width="8" stroke-linecap="round" stroke-linejoin="round" stroke-miterlimit="10" d="
	M1005.4,809.7c0,0,1.5-14.5,16.5-16.7"/>
<path fill="none" stroke="#000000" stroke-width="8" stroke-linecap="round" stroke-linejoin="round" stroke-miterlimit="10" d="
	M993.7,777.4c0-1,0-20.8,0-20.8l3.5,0.8l2.1,12.7l2.3-0.8l-2.3-2.9"/>
<line fill="none" stroke="#000000" stroke-width="7" stroke-linecap="round" stroke-linejoin="round" stroke-miterlimit="10" x1="1148.1" y1="714.9" x2="1190" y2="697.1"/>
<line fill="none" stroke="#000000" stroke-width="5" stroke-linecap="round" stroke-linejoin="round" stroke-miterlimit="10" x1="1138.1" y1="696.3" x2="1198.5" y2="670.4"/>
<line fill="none" stroke="#000000" stroke-width="7" stroke-linecap="round" stroke-linejoin="round" stroke-miterlimit="10" x1="1184" y1="656.9" x2="1120.1" y2="630.5"/>
<line fill="none" stroke="#000000" stroke-width="7" stroke-linecap="round" stroke-linejoin="round" stroke-miterlimit="10" x1="1033.7" y1="592.5" x2="962.6" y2="563.8"/>
<path fill="none" stroke="#000000" stroke-width="7" stroke-linecap="round" stroke-linejoin="round" stroke-miterlimit="10" d="
	M943.1,556.2c-0.2-0.3-12.6-5.6-12.6-5.6l1.6,5.6l1-0.9"/>
<path fill="none" stroke="#000000" stroke-width="7" stroke-linecap="round" stroke-linejoin="round" stroke-miterlimit="10" d="
	M787.2,635.1c-0.3-0.5-89-24.8-89-24.8l-43.8,35.3"/>
<polygon fill="none" stroke="#000000" stroke-width="6" stroke-linecap="round" stroke-linejoin="round" stroke-miterlimit="10" points="
	687.7,652.3 711.7,629.2 742.9,639.5 722.5,661.2 "/>
<line fill="none" stroke="#000000" stroke-width="6" stroke-linecap="round" stroke-linejoin="round" stroke-miterlimit="10" x1="760.2" y1="647.6" x2="742.3" y2="668.2"/>
<line fill="none" stroke="#000000" stroke-width="6" stroke-linecap="round" stroke-linejoin="round" stroke-miterlimit="10" x1="776.6" y1="656.7" x2="759.1" y2="675"/>
<path fill="none" stroke="#000000" stroke-width="7" stroke-linecap="round" stroke-linejoin="round" stroke-miterlimit="10" d="
	M702.8,687.1c-0.2-0.5-70.7-57-74.1-58.4c-5.3,0.6-126,43.5-126,43.5"/>
<line fill="none" stroke="#000000" stroke-width="7" stroke-linecap="round" stroke-linejoin="round" stroke-miterlimit="10" x1="693.9" y1="763.7" x2="579.6" y2="804.5"/>
<path fill="none" stroke="#000000" stroke-width="6" stroke-linecap="round" stroke-linejoin="round" stroke-miterlimit="10" d="
	M619.6,731.4c-6-7.2-37.8,3.1-35.4,13.1c2.4,10,16.4,4.7,26.5,0.6S621.2,733.4,619.6,731.4z"/>
<path fill="none" stroke="#000000" stroke-width="6" stroke-linecap="round" stroke-linejoin="round" stroke-miterlimit="10" d="
	M597.6,767.8c1-0.1,56.5-23.5,56.5-23.5"/>
<path fill="none" stroke="#000000" stroke-width="6" stroke-linecap="round" stroke-linejoin="round" stroke-miterlimit="10" d="
	M635.2,696.2c0.6-0.3,32.2-14.1,32.2-14.1"/>
<path fill="none" stroke="#000000" stroke-width="6" stroke-linecap="round" stroke-linejoin="round" stroke-miterlimit="10" d="
	M580.2,704.5c0.5-0.1,76.4-34.5,76.4-34.5"/>
<line fill="none" stroke="#000000" stroke-width="6" stroke-linecap="round" stroke-linejoin="round" stroke-miterlimit="10" x1="570.8" y1="688" x2="638.3" y2="659.8"/>
<path fill="none" stroke="#000000" stroke-width="7" stroke-linecap="round" stroke-linejoin="round" stroke-miterlimit="10" d="
	M580.2,823.9c1-0.9-1.8-15-9.4-49.8s-21.1-105.2-21.1-105.2s-31.5,3.7-55,5.8s-94.3,9-101.5,12.4C393.7,705,407,841.9,407,841.9
	s27.1-5.7,64-7.8C507.9,832,580.2,823.9,580.2,823.9z"/>
<path fill="none" stroke="#000000" stroke-width="6" stroke-linecap="round" stroke-linejoin="round" stroke-miterlimit="10" d="
	M419,710.3c-1-4.8,6.4-8.2,14.5-8.1c8.1,0.1,11.5,2.8,11.4,6.2s-7.3,5.1-12,5.9S419.2,715,419,710.3z"/>
<path fill="none" stroke="#000000" stroke-width="6" stroke-linecap="round" stroke-linejoin="round" stroke-miterlimit="10" d="
	M460.3,701.5c0,0,21.1-10.2,37.7-9.8c16.6,0.4,24.4,7.8,26.8,14.6s2.8,21.4,2.8,21.4"/>
<path fill="none" stroke="#000000" stroke-width="6" stroke-linecap="round" stroke-linejoin="round" stroke-miterlimit="10" d="
	M539.2,715.7c-0.1,0.2-11.2,13.7-11.2,13.5s-13.2-9.9-13.2-9.9"/>
<path fill="none" stroke="#000000" stroke-width="6" stroke-linecap="round" stroke-linejoin="round" stroke-miterlimit="10" d="
	M514.4,750.6c-0.8-4.9,5.4-9.4,15.3-9.6c9.9-0.2,14.6,4.7,14.5,8.5s-5.8,8.3-13.4,8.8C523.3,758.7,514.6,756.7,514.4,750.6z"/>
<polyline fill="none" stroke="#000000" stroke-width="6" stroke-linecap="round" stroke-linejoin="round" stroke-miterlimit="10" points="
	540.9,781 546.3,802.6 432.3,815.4 429.4,791.1 540,781 "/>
<path fill="none" stroke="#000000" stroke-width="6" stroke-linecap="round" stroke-linejoin="round" stroke-miterlimit="10" d="
	M469.9,726.1l10.4-14.8c0,0,13.1,13.4,13.6,13.1"/>
<path fill="none" stroke="#000000" stroke-width="6" stroke-linecap="round" stroke-linejoin="round" stroke-miterlimit="10" d="
	M496.3,745c0,0-7.3,26.7-8.4,27.4c-1.1,0.7-15.4-19.4-15.4-19.4"/>
<line fill="none" stroke="#000000" stroke-width="6" stroke-linecap="round" stroke-linejoin="round" stroke-miterlimit="10" x1="480.1" y1="713.6" x2="486.8" y2="769.5"/>
<path fill="none" stroke="#000000" stroke-width="6" stroke-linecap="round" stroke-linejoin="round" stroke-miterlimit="10" d="
	M452.7,728.3c0-0.3,2.4,39.9,2.4,39.9s-33.5,7.6-34.7,6.5c-1.3-1-4.4-39.4-4.4-41.2C416,731.8,452.7,728.3,452.7,728.3z"/>
<path fill="none" stroke="#000000" stroke-width="18" stroke-linecap="round" stroke-linejoin="round" stroke-miterlimit="10" stroke-opacity="0" d="
	M333.2,230.8l-2.9-7.7h-8.2l-6-4l12.5-5.6l-0.9-11.2l-15.5,5.1l-1.6-9.6l18.2-7.2l1.9-15.2l-22.4,8.8l2.6-12.6l32.9-10.8l9.5-8
	l-34.7,3.7l13.9-12.5h35.4l11.1-4.2l-36.1-8.5l8.2-8.7l37.9,9.8l7.5-3l-28.6-15.5l8.3-6.5l30.7,17.3l14.6,0.1L388.6,104l14.1,0.1
	l34,17.2l12.7,2.2c0,0-29.6-21.1-29.1-21.1s25,5.4,25,5.4l17.3,14.7l11.1,3.2L456.5,106l10.4,0.8l20.4,22l13.2,5l-14.4-22.2
	l10.3,3.7l10.2,29l8.2,17.2l2.6,16.5l1.3,8.9"/>
<path fill="none" stroke="#000000" stroke-width="17" stroke-linecap="round" stroke-linejoin="round" stroke-miterlimit="10" stroke-opacity="0" d="
	M408.4,290.8l-0.8,6.7l-1.1,24.9l5.8-18.2c0,0,5.4,2.4,5.7,2.4S406.5,336,406.5,336l3.4,11.1l14.8-31.6l12.2-0.2l-19.5,41.5l6,11
	l22.6-50.7l6.3-0.1L431,374.1l1.9,3.1l4.9-6l23.5-54.5l8.6-3.2l-21.3,60l3,1.6l6.4-1.8l20.7-61.2c0,0,14.2-16.1,13.9-16.4
	S472.1,364,472.1,364l3.7,4.2l6.9-10.4l12.5-51.5l2.1,29.6l-6.1,21.4"/>
<path fill="none" stroke="#000000" stroke-width="40" stroke-linecap="round" stroke-linejoin="round" stroke-miterlimit="10" stroke-opacity="0" d="
	M420.6,133L341,180.6c0,0-2.7,21.5-1.4,21.5s107.2-68.6,107.2-68.6l22.6,2.1l-155.8,119l1.9,22.2l5.3-2.8l157.9-125.4l9.8,14.7
	L353,286.8l5.7,24.7l145.9-128.2l3.5,20.8L362.6,326.7l15.3,15.3l135.6-119.5l0.7,30.1l-122.7,99.9l26.5,13.4l82.1-80.5l1.1,28.2
	l-4.3,19.3l-66.4,43.2l20,10.6l22.4-17.9l-14.3,24.9"/>
<line fill="none" stroke="#000000" stroke-width="17" stroke-linecap="round" stroke-linejoin="round" stroke-miterlimit="10" stroke-opacity="0" x1="462" y1="410.4" x2="464.6" y2="417.2"/>
<path fill="none" stroke="#000000" stroke-width="17" stroke-linecap="round" stroke-linejoin="round" stroke-miterlimit="10" stroke-opacity="0" d="
	M268.3,485.8l-31.8,25.4l-9.8-2.7l38.4-33.5l-3.4-7.8l-38.1,36.7l-2-4.8l36.7-40.5c0,0-42.3,36.2-41.7,36.6
	c0.6,0.3-6.9-13.6-6.9-13.6l23.8-17.4l-5.2-5.5l-23.5,16.1l-5.5-8.9l22-14.2l-7.5-9.6l-20,13.5l-5.7-7.5l17.1-14.3l-4.7-10.9
	L180.3,438l-4.4-5.6l14.8-18.2l-4-6l-34.3,23l-50.2,28.5l-20.4,5.4l97.5-65.4l-2.6-8.3L74.3,466.7l-15.1-6.3l112.2-76.2l-4.3-3.5
	l-116,76.7l-3.2-9.2l-11.5-6.1l7.6-18.4l14.1-11.9l8.6-1.1l-19.3,28.5L76,430l-9-2.3l19.9-6.9L75.5,415l1-6.7l19.1,4.6l-0.8-5.6
	l12.8-0.6l29.7-14.6l21.8-20.2c0,0-1.2-10.1-1.6-10.7c-0.3-0.6-9.3,4.1-9.3,4.1L141,359l12.4-11.5l-1-9.5l-15.9,11.8l1.2-11.6
	l11.7-10.4l-7.1-1.1"/>
<path fill="none" stroke="#000000" stroke-width="17" stroke-linecap="round" stroke-linejoin="round" stroke-miterlimit="10" stroke-opacity="0" d="
	M645.4,456.2l13.2-14.8l-6.6-2.9l1.1-7l12.2,1.7l5.5-13.8l-17-1.5l-2.1-6.7l21.7-3.7l4.7-8.1h-26.6l10.2-14.5l20.5,1.7l5.7-13.8
	l-22.6,0.9l8.4-9.9l16.4-1.7l5.8-9.6h-18.5l7-13.5l25.8,9c0,0,15.1-0.5,16.8-0.6c1.7-0.2-44.6-19.9-44.6-19.9l0.2-11.5l56.9,30.6
	l19.4-0.6l-75.4-41l3.2-5.3l83.3,45.7l16.7-5.6l-69.3-29.6l15.4-0.6l63.7,27.8l10.1-5.2l-64.1-25.5l16.4-2.7l54.1,20.6l6.7-6.1
	L766.3,299l24.9-2.9l17.8,3.6l10.7,8.8l-0.6-7.9"/>
<polyline fill="none" stroke="#000000" stroke-width="17" stroke-linecap="round" stroke-linejoin="round" stroke-miterlimit="10" stroke-opacity="0" points="
	690.5,296.1 683.2,287.9 674.2,275.6 668.1,268.9 676.8,267.4 693.3,271.7 693.3,275.9 690.5,284.8 692.5,290.9 695.9,296.1 "/>
<path fill="none" stroke="#000000" stroke-width="40" stroke-linecap="round" stroke-linejoin="round" stroke-miterlimit="10" stroke-opacity="0" d="
	M346.9,370.6l-42.2,48.3l-36.3,35l18.3,35.5l34.5-50.4l55.8-74.4l30.9,3.1l-56.2,81.1l6.4,16.3l57.4-76l28.1,4.6l-77,89.8l2.8,25.9
	l136.3-154.3l23,3.4l50.8,32.7c0,0,49.5,16.8,48.3,16.2c-1.2-0.6,9,22.9,9.4,21.4s-120.7-51.6-120.7-51.6l112.1,62l-11,12.5
	l-44.4-31.2c0,0-21.9-1.2-23.9-3.4s-49.7-18.9-49.7-18.9l-131,131.4l-3.8,37.5l154.1-153.4l11.3,27.3L364.8,588.8v25.3l168.7-157.9
	l6.1,21.6L367.5,621.1l36,8.1l143.5-137l5.8,19l4.9,11L425,639.8l32.1-8.3l108.2-99.7l2.1,23l-59,57.2l37-15.4l25.3-21.7l6.2,20.2
	l-205.1,57.2"/>
<polyline fill="none" stroke="#000000" stroke-width="40" stroke-linecap="round" stroke-linejoin="round" stroke-miterlimit="10" stroke-opacity="0" points="
	298.6,277.8 257.5,290.6 263.8,315.3 323.7,295.2 334.3,309.8 264.4,331.9 270.4,355.1 343.8,334 350.4,348.4 276.5,377.2 
	284.1,408.7 310,393.6 338.9,468.6 313.6,503.7 323.8,530 347,503.7 341.5,540.7 331.3,544.7 335.7,564.6 343.8,619.9 352.1,663 "/>
<polyline fill="none" stroke="#000000" stroke-width="40" stroke-linecap="round" stroke-linejoin="round" stroke-miterlimit="10" stroke-opacity="0" points="
	1199.7,227.9 1166.4,264.3 1159.2,293.4 1251.8,221.9 1251.8,238.6 1159.2,315.7 1153,331.5 1270.1,263.3 1289.3,272.9 
	1248.6,302.5 1153,350.2 1166.4,360.7 1178.8,360.7 1264.1,313.5 1307.3,322.7 1302.5,328.8 1277.4,332.8 1260.3,326.7 
	1224.2,322.1 1208,355.7 1195.1,370.1 1207.7,379.3 1212.5,394.9 1216.9,362.5 1224.8,356.3 "/>
<path fill="none" stroke="#000000" stroke-width="26" stroke-linecap="round" stroke-linejoin="round" stroke-miterlimit="10" stroke-opacity="0" d="
	M1239.7,369.2c3.1,0,12.1,1.2,12.1,1.2l6.2,4.9l-10.4,2.3"/>
<path fill="none" stroke="#000000" stroke-width="26" stroke-linecap="round" stroke-linejoin="round" stroke-miterlimit="10" stroke-opacity="0" d="
	M1146.7,311.7c-1.4,0.2-17,17-20.6,30.5c-3.7,13.5,7.4,30.7,17.9,33.7s19.5,0,19.5,0"/>
<path fill="none" stroke="#000000" stroke-width="26" stroke-linecap="round" stroke-linejoin="round" stroke-miterlimit="10" stroke-opacity="0" d="
	M1132.1,313.8c0,0-12.7,8.9-22.3,19.5c-9.7,10.6-3.9,45.6,16.5,54.6s39,2.3,39,2.3l7.7-8.9"/>
<path fill="none" stroke="#000000" stroke-width="26" stroke-linecap="round" stroke-linejoin="round" stroke-miterlimit="10" stroke-opacity="0" d="
	M1027,317.4l-13.5,14.1l-0.9,14.2l30.3-34l15-6.2l-48.3,51.8v22.5l61.7-76.6l11.6-1.8l-68,98.2l3.5,16.9l81.3-112.2l12.2,1.7
	l-75.5,106.6l19.3,10.1l39.4-55l10.1,11.9l-37.7,57.8l2.4,20.8l53.8-72.7c0,0,10.9,9.6,11.1,9.5s-65.6,84.7-65.6,84.7l-9.3,26.1
	l12.3-1.3L1144,398l22.5-1.1l-74.7,108.9h20.6l50.8-91l-3.4,20.4l-6.8,23.1l-9,15.2l-1.4,11l-12.2,10.1"/>
<line fill="none" stroke="#000000" stroke-width="21" stroke-linecap="round" stroke-linejoin="round" stroke-miterlimit="10" stroke-opacity="0" x1="1026.6" y1="485.9" x2="1027" y2="516.5"/>
<path fill="none" stroke="#000000" stroke-width="26" stroke-linecap="round" stroke-linejoin="round" stroke-miterlimit="10" stroke-opacity="0" d="
	M998.5,348.7l-7,15.7L980.1,397l9.2,0.9l6.8,7.9l-22.8,11.1l-26.4,16l1.6,12.8l57.1-27.1c0,0,29.5,0.2,29.3,0S956,454.4,956,454.4
	l15.6,10.4l70.6-33.3l11.5,15.2l-80.3,36l4.6,17.2c0,0,82.3-38.3,81.7-38.1s-7.7,15.7-7.7,15.7l-68.2,32l14.5,8.2l53.7-22.4
	l13.6,15.7c0,0-78.5,29.1-78.5,28.4s8.8,11.2,8.8,11.2l103.7-35.3l-15.3,17.2l-77.7,24.2l19.8,2.8l47.4-15.1l-4.1,16.7l-28,11.1
	l5.7,9.7l22.3-7.1l3.6,14.8l3,6.4l-14.9-3.8l-9.9-3.4"/>
<path fill="none" stroke="#000000" stroke-width="14" stroke-linecap="round" stroke-linejoin="round" stroke-miterlimit="10" stroke-opacity="0" d="
	M895.2,518.1c1.1,0.5,8.8,5.6,8.8,5.6"/>
<line fill="none" stroke="#000000" stroke-width="14" stroke-linecap="round" stroke-linejoin="round" stroke-miterlimit="10" stroke-opacity="0" x1="847.1" y1="652.1" x2="855.6" y2="649"/>
<polyline fill="none" stroke="#000000" stroke-width="20" stroke-linecap="round" stroke-linejoin="round" stroke-miterlimit="10" stroke-opacity="0" points="
	950.9,676.8 960.9,665.1 947,663.2 937.6,670 918.6,663.9 932.7,657.2 930.5,650.6 901.8,659.2 891.6,652.1 926.2,643.7 
	926.2,634.4 879.3,641.3 865.4,640.4 851.2,642.9 844,648.5 "/>
<path fill="none" stroke="#000000" stroke-width="20" stroke-linecap="round" stroke-linejoin="round" stroke-miterlimit="10" stroke-opacity="0" d="
	M887.9,624.8l37.8-4.3l1.2-14.7l-42.3,6.8l-2.8-6.8l43.3-11.3l-0.6-10.6l-42.6,9.7c0,0-3-8.8-3.6-9.1s43.6-10.4,43.6-10.4l-2.1-6.4
	l-46.5,3.5l-21.3,1.2l8-10.2l26.1-0.9l32.1-3.7l-5.8-16.7l-0.3-7.3h-10.9l-6-6.2"/>
<line fill="none" stroke="#000000" stroke-width="20" stroke-linecap="round" stroke-linejoin="round" stroke-miterlimit="10" stroke-opacity="0" x1="639" y1="710" x2="650.5" y2="710"/>
<path fill="none" stroke="#000000" stroke-width="20" stroke-linecap="round" stroke-linejoin="round" stroke-miterlimit="10" stroke-opacity="0" d="
	M935,768.3l4.9-1.3l-7.8-5.1l-12.2,4.4l1.9-12.2l-13.5,9.2l7.6-22.8l-2.1-6.3l-12.4,21.4l-8.9,3.5l5.2-20.3l-13.3,1.1l-7.3,22.9
	c0,0-11.5-2.7-11.3-3.3c0.1-0.6,8.2-24.4,8.2-24.4l-14.7,1.7l-5,15.3l-15.1-2.2l6.3-11.3l-14.9,0.3l-3.2,9.3c0,0-23-1.1-22.2-1.5
	c0.8-0.5,10-9.5,10-9.5s-21.1,6.8-20.6,7s-2.1-11.9-2.1-11.9s-19.1,15.4-19,14.8c0.2-0.6,8.3-23.8,8.3-23.8l-6.3-4.1l-19.7,32.3
	l-11.8-2.9l19.7-40.7l-9.2-7.5l-28,48.3c0,0-16,11.3-15.4,10.1c0.5-1.2,31-65.9,31-65.9l-10.2-1.2l-33.2,67.4c0,0-16.1-6.3-16.2-5.8
	c-0.2,0.5,32.6-61.6,32.6-61.6l-19.7,6.4c0,0-10.6,19.2-11,18.8c-0.5-0.3-2-12.6-2.9-12.7c-0.9-0.1-11.9,8.3-11.9,8.3l-4.4,7.7
	l-14,5.5l-6.6-2.6"/>
<path fill="none" stroke="#000000" stroke-width="20" stroke-linecap="round" stroke-linejoin="round" stroke-miterlimit="10" stroke-opacity="0" d="
	M932.7,730.1l97-124.3h11.2c0,0-105.5,140.7-104.5,140.7s13.1,6.1,13.1,6.1s98-144.4,99.5-144.4s10.7,1.1,10.7,1.1l-97.2,145.4
	l33.1-29.9l77.1-115l19.3-5.8l-85.3,132.6l1.7,18l91.3-146.5l2.7,13.6L1015,763.8l10.4,5.9l83.7-142.1l6.2,19.4l-81.5,136.2
	l6.4,18.2l79.5-137.7l3,19.7l-84,128.8l9.8,14.3l77.9-133.5l4.9,14.9L1059.8,832l14.4,6.4l64-119.5l8.1,14.3l-60.4,112l12.4,1.4
	l53.8-101.9l4.6,9.9l-34,70l-5.9,13.1l-4.7,6.4"/>
<path fill="none" stroke="#000000" stroke-width="40" stroke-linecap="round" stroke-linejoin="round" stroke-miterlimit="10" stroke-opacity="0" d="
	M1375.5,461.9l-144.7,51.5l-14,7.9l-3,34.7l159.9-70.1l1.8,25.4l-167.4,61l-2.2,25.6l169.6-64.2l-7.8,33.6L1204,627.7l-4.1,16
	l162.8-56.4l-18.3,40.4L1218.7,666l-12.8,37.4l134.3-55.9l-11.1,28l-130.6,50.8l-8.5,26.1l130.7-55.3l-10.8,26.2l-144.4,54.1
	l-135.8,33.3l-10.6,16.9l-42.7,3.2l-37.6,5.7l-3.1,14.4c0,0,194-36.7,195.8-37.6c1.8-0.9,172.4-63.3,172.4-63.3l-2.3,16.5l13.6,16.1
	l-252.3,79.7l-138,18.9l-19.2,7.4l4.6,21.6l396.4-108.9l-12.7,23.6l-363.8,94.9l27.5,14.6l339.8-98.7l-9.3,26.6l-302.7,92.1
	l15.9,9.3l285.7-76.7l-14.1,23.2l-252.5,75.6l46.4,9.2l160.5-51.8l-135.3,55"/>
<path fill="none" stroke="#000000" stroke-width="40" stroke-linecap="round" stroke-linejoin="round" stroke-miterlimit="10" stroke-opacity="0" d="
	M941.9,572.3l-133.2,39.5l-8.4,25.3l147-41.8l-2,20.9c0,0-144.7,45.9-145,46.8c-0.3,0.9-5.4,26.2-5.4,26.2l158.4-52l-2.4,28.8
	l-150.7,45.2l19.5,4.5L945,683.4c0,0-97.4,39.4-94.9,39.1"/>
<line fill="none" stroke="#000000" stroke-width="40" stroke-linecap="round" stroke-linejoin="round" stroke-miterlimit="10" stroke-opacity="0" x1="720.8" y1="637.8" x2="705.5" y2="649"/>
<line fill="none" stroke="#000000" stroke-width="40" stroke-linecap="round" stroke-linejoin="round" stroke-miterlimit="10" stroke-opacity="0" x1="611" y1="738.6" x2="591.3" y2="744.3"/>
<line fill="none" stroke="#000000" stroke-width="40" stroke-linecap="round" stroke-linejoin="round" stroke-miterlimit="10" stroke-opacity="0" x1="421.6" y1="707.8" x2="433.3" y2="704.1"/>
<polyline fill="none" stroke="#000000" stroke-width="40" stroke-linecap="round" stroke-linejoin="round" stroke-miterlimit="10" stroke-opacity="0" points="
	529.3,739.6 529.3,748.1 539.2,795.1 486.8,795.1 448.5,804.5 435.6,763.7 435.6,745 "/>
</svg>
