<?xml version="1.0" encoding="utf-8"?>
<!-- Generator: Adobe Illustrator 24.3.0, SVG Export Plug-In . SVG Version: 6.00 Build 0)  -->
<svg isCommex="true" version="1.1" id="Layer_2_1_" xmlns="http://www.w3.org/2000/svg" xmlns:xlink="http://www.w3.org/1999/xlink" x="0px" y="0px"
	 width="863.6px" height="680.3px" viewBox="0 0 863.6 680.3" enable-background="new 0 0 863.6 680.3" xml:space="preserve">
<path fill="#808080" d="M294.7,252.4l-0.3-1.4l-1.4,0c-7.3,0.3-16.2,0.7-25.9,1.1c-26.3,1.1-59.1,2.4-79.7,3.1
	c-21.7,0.7-36.7,5.9-45.8,15.8c-8.2,8.9-11.6,21.7-10.5,39.1c2.2,34.9,28.5,164.6,39.7,218.7l0.6,3.2l38.8-10.4l-0.6-1.5
	c-2.4-6.6-2.5-15.4-0.5-26.2c6-29.8,34.6-83.6,40.3-94l0.7-1l-0.9-0.9c-3.9-3.6-6.2-8.9-6.6-15c-0.5-7,1.4-13.5,5-17.2
	c0.4-0.5,1.3-0.7,2.1-0.5c0.7,0.2,1.3,0.9,1.4,1.7c0.5,3.4,4.7,6.3,9.3,6.3h0.1c2,0,3.6-0.5,4.9-1.5l0.2-0.1l0.2-0.3
	c0.2-0.3,0.3-0.6,0.5-0.8c0.1-0.3,0.3-0.5,0.5-0.8c0.1-0.3,0.3-0.5,0.4-0.8c0.2-0.3,0.3-0.5,0.5-0.8l0.3-0.4v-0.4l0.1-0.4
	c0.7-5.2-0.2-6.6-2.5-9.6c-2.4-3.1-5.7-7.3-7.8-18.4c-0.4-2.2-3.7-21.5,6.4-28.7l0.1-0.1c0.5-0.3,1.2-0.3,1.8-0.1
	c0.5,0.2,0.9,0.8,1,1.4c0,0.1,0.6,7.1,8.6,10.1c3,1.2,4.8,0.7,5.5-0.2c0.9-1.5,0.4-6.8-8.5-16c-15.5-16.2-3.5-41.7-3.4-42
	c0.4-0.8,1.4-1.3,2.4-1.1c0.8,0.1,1.5,0.9,1.6,1.8c0,0.1,0.2,5.9,3.9,9.1c2,1.8,4.5,2.4,8.1,2c3.2-0.3,5.8-2.3,7.6-5.7
	C294.9,265.6,295.6,259.4,294.7,252.4z"/>
<path fill="#FFD243" d="M563,174.3l-0.2-0.6l-0.2-0.3c-1.6-4-3.6-7.1-6.3-9.9c-3.5-3-15.2-9-27.4-11.9l-0.4-0.1
	c-1.1-0.2-2.1-0.3-3.2-0.4c-12.2-1.1-25.5,4.7-39.8,17.5c-10.9,9.8-18.5,20.3-19.9,22.3l-0.1,0.2l-0.1,0.6c-0.1,0.4-0.2,0.9-0.2,1.3
	c-1.4,11.9,0.1,22.7,1.4,32.2l0.1,1.2c1.1,8.6,2.1,15.9,0.1,21.3c-2.1,5.4-7.7,9.1-12.1,11.3l-1.1,0.6l0.3,1.2
	c0.4,1.8,2.8,11.1,7,16.2c0.5,0.6,11.9,14.6,30.9,17.3c1.6,0.3,3.2,0.4,5.5,0.4v0.2l1.6-0.3c5.1-0.5,10.1-1.9,14.9-4
	c4.9-2.2,9.3-4.9,13.1-8.1c17.7-14.3,31.8-40.2,36.8-67.5C566.7,197.4,566.5,183.9,563,174.3z M544.3,173.8c2.4,5,4.9,14.4,2.6,30.9
	c-2.9,20.7-18.3,51.1-38.3,63.9c-6.6,4.3-13.3,6.4-20.3,6.4c-0.9,0-1.9,0-2.8-0.1l-3.7-0.3l2.4,2.7c6,7.1,13.8,8.1,14.1,8.1
	c0.5,0.1,0.9,0.3,1.2,0.6c0.2,0.3,0.3,0.6,0.3,1c-0.2,0.6-0.6,1.1-1.1,1.3l-0.8,0c-0.1,0-13.7-1.6-20-15.4l-0.1-0.2l0,0v-0.1
	l-0.1-0.2c-1-2.1-1.8-4.7-2.3-7.7c-1.1-6.4-1.6-11.7-1.5-16.8c0.2-16.6,6.1-32.3,19-51.1c9.8-14.4,23.5-24.4,37.6-27.7
	c1.3-0.3,3-0.6,4.5-0.8c1.3-0.2,2.6-0.3,3.8-0.3h0.5c7.1-0.1,13.7,2.2,18.4,6.4l0.1,0.1c0.1,0.1,0.2,0.2,0.3,0.4l0.1,0.3
	c0.1,0.3,0.1,0.8-0.3,1.2l-0.1,0.1c-0.2,0.2-0.6,0.4-0.9,0.4c-0.5,0-0.9-0.1-1.1-0.3c-2.7-2.4-6-4.1-10-4.9l-3.1-0.6L544.3,173.8z"
	/>
<g id="vs-primary">
	<path fill="#97C3FB" d="M437,415.3l0.2-1l-0.9-0.3c-16.7-5-35.6-25.6-46.8-41.7c-3.6-5-6.5-9.7-8.6-13.9
		c-6-11.6-13.1-14.6-18.1-14.9h-1.5v1.5c0,0.1-0.1,0.3-0.1,0.5v0.6l0.3,0.3l0,0c4.7,10.9,4.7,22.8,0,30.3c-2.2,3.4-5,5.6-8.6,6.8
		l-1,0.3l0,0.2h-2.5c-0.5,0-1,0-1.7,0.1c-0.2,0-0.3,0-0.5,0.1c-0.1,0-0.2,0-0.3,0c-1,0-2-0.1-3-0.2l-2.2-0.3l0.1,0.2l-0.8-0.3
		c-10-2.7-13.3-12.7-17.5-29c-3.8-14.8-6.6-19.1-7.7-20.4l-0.5-0.5l-0.7,0c-6.9,0.4-19.9,2.8-29,14.2c-3,3.8-8,11.4-13.9,21.3
		l-0.2,0.2l-0.1,0.2c-0.6,1.8-1.5,3.3-2.8,4.6l-0.3,0.3c-4.5,7.5-9.2,16.1-13.7,24.3c-10.6,19.6-35.7,68.2-41.3,96
		c-2.4,12.1-1.8,21.4,1.9,27.5c0.5,1,1.2,1.7,1.8,2.5c4.1,4.6,10.5,6.8,19.7,6.8c2.3,0,4.5-0.1,6.6-0.3c5.9-0.4,37.9-8.3,70.2-16.4
		c34.5-8.6,77.3-19.4,91.2-21.4h0.7l0.4-0.7c0-0.1,0.1-0.1,0.1-0.2c0.1-0.1,0.2-0.3,0.3-0.4c0.4-0.7,0.7-1.2,1-1.7
		c5.3-9.8,4.9-19.4,2.2-24.6l-0.6-0.8h-0.5l-0.4,0c-4.3,0.5-9.4,1.1-15.4,1.9l-8.7,1.1c-4.7,0.6-10.2,1.4-15.9,2
		c-37.4,4.6-83,8.6-103.2-1.1c-1.1-0.6-1.5-1.7-1.1-2.6c0.5-1,1.7-1.4,2.7-1c1.7,0.8,3.7,1.5,5.5,2l1.9,0.6l0-1.9
		c0.3-4,3.1-26.2,28.4-67.1l0.2-0.3c0.3-0.5,0.7-0.8,1.2-0.9c0.5-0.1,1,0,1.5,0.3c0.4,0.2,0.7,0.7,0.8,1.3c0.1,0.5,0.1,1-0.2,1.4
		l-0.2,0.2c-4.5,7.3-26.9,44.8-27.9,66.6v1.2l1.2,0.3c22.1,4,57.1,0.7,85.1-2.6h1.3l0-1.3c0.2-3.6,3-7.2,8.1-13.5
		c0.6-0.8,1.2-1.6,1.9-2.4c0.7-0.8,1.4-1.8,2.1-2.7l0.7-0.9c2.5-3.3,4-7.2,4.3-11.6c0.5-7.5-2.2-16.6-7.5-24.9
		c-6.4-10.1-6.9-16.3-6.6-18.9l3.9,1.4c0.1,2.3,0.9,7.3,6,15.3c5.6,9,8.3,17.6,8.2,25.6v0.7l0.3,0.3l0.3,0.3
		c3.3,2.5,20.2,15.2,33.6,15.2h0.9l1.2,0.5l0.5-1.4c0.1-0.2,0.2-0.5,0.3-0.8c0.1-0.2,0.2-0.5,0.3-0.7c0.1-0.2,0.2-0.5,0.3-0.7
		l1.1-2.5c0.9-2.1,1.7-4,2.4-6l0.7-1.7c2.4-6,5.3-13,8.4-19.6l0.2-0.5L437,415.3z M351.9,384.1l0,0.6c-0.7,7.6-1.4,16.6-1.9,27.6
		v1.5h1.5c0.4,0,0.9,0.1,1.4,0.2l0.2,0c1.8,0.3,3.2,1.7,3.9,4.1c2,5.5,0.6,16.5-3.7,21c-1.2,1.3-2.5,1.9-4.1,1.9
		c-0.6,0-1.2-0.1-1.7-0.2c-2.6-0.9-4.3-3-5-6.3c-1.3-6.3,1.4-15.7,5.6-19.3c0.2-0.2,0.4-0.4,0.7-0.5l0.7-0.3l0.1,0.2l0-0.2l0.5-0.3
		l-0.4-0.9l0.3-4.5l0.2-3.7c0.3-5.1,0.7-12.2,1.4-19.4L351.9,384.1z M342.3,385.8c0.2,1,0.4,2,0.7,3c-0.2-1.1-0.5-2.2-0.7-3.3
		L342.3,385.8z"/>
</g>
<path fill="none" stroke="#000000" stroke-width="6" stroke-linecap="round" stroke-linejoin="round" stroke-miterlimit="10" d="
	M395,166.9c0,0,33.7,10.2,48.3,20.7c-30.3-6.5-73.3-1.3-73.3-1.3"/>
<path fill="none" stroke="#000000" stroke-width="7" stroke-linecap="round" stroke-linejoin="round" stroke-miterlimit="10" d="
	M418.8,128.6c0.3,0,8.9-1.4,16.1,9.8s11.5,19.5,27.8,13"/>
<path fill="none" stroke="#000000" stroke-width="7" stroke-linecap="round" stroke-linejoin="round" stroke-miterlimit="10" d="
	M525.9,147.5c-0.3-1.3-6-24.4-22.9-15.4c-16.9,8.9-37,36.6-39.7,60.6s5.6,44,1.8,54.1c-3.8,10.1-22.3,16-37,14.9"/>
<path fill="none" stroke="#000000" stroke-width="5" stroke-linecap="round" stroke-linejoin="round" stroke-miterlimit="10" d="
	M498.6,120.9c0,0-2.2,12.9-12.7,25.5"/>
<path fill="none" stroke="#000000" stroke-width="5" stroke-linecap="round" stroke-linejoin="round" stroke-miterlimit="10" d="
	M511.7,119.3c0,0-7.1,12.8-13.5,15.8"/>
<path fill="none" stroke="#000000" stroke-width="5" stroke-linecap="round" stroke-linejoin="round" stroke-miterlimit="10" d="
	M526.7,121.6c0,0-5.7,9-11.9,8.8"/>
<path fill="none" stroke="#000000" stroke-width="5" stroke-linecap="round" stroke-linejoin="round" stroke-miterlimit="10" d="
	M532.4,130c0,0-6.9,8.3-10.5,7.7"/>
<path fill="none" stroke="#000000" stroke-width="5" stroke-linecap="round" stroke-linejoin="round" stroke-miterlimit="10" d="
	M536.2,138.9c0,0-2.2,6.6-10.3,5"/>
<path fill="none" stroke="#000000" stroke-width="7" stroke-linecap="round" stroke-linejoin="round" stroke-miterlimit="10" d="
	M504.1,107c0,0,13.4-12.3,20.8,2.6"/>
<path fill="none" stroke="#000000" stroke-width="7" stroke-linecap="round" stroke-linejoin="round" stroke-miterlimit="10" d="
	M513.1,222.9c3.6,2.6-7,16-9.6,12.8s7.1-13.8,8.7-12.8c1.6,1.1-5.9,10.5-6.2,9.9c-0.3-0.6,1.1-4.3,1.1-4.3"/>
<path fill="none" stroke="#000000" stroke-width="6" stroke-linecap="round" stroke-linejoin="round" stroke-miterlimit="10" d="
	M395.8,296.3c0,0,16.9-3.1,29.1-1.8"/>
<path fill="none" stroke="#000000" stroke-width="7" stroke-linecap="round" stroke-linejoin="round" stroke-miterlimit="10" d="
	M318.5,167.7c0,0-15.3,26.4-14,42.9s12.9,18.1,12.9,18.1"/>
<path fill="none" stroke="#000000" stroke-width="7" stroke-linecap="round" stroke-linejoin="round" stroke-miterlimit="10" d="
	M329,216.1c9.1,2.8,4.8,30-3.6,27.9S319.2,214.7,329,216.1z"/>
<path fill="none" stroke="#000000" stroke-width="7" stroke-linecap="round" stroke-linejoin="round" stroke-miterlimit="10" d="
	M298.8,161.4c0.6,1.1,36.1,12.9,64.6,7s56.5-44.8,77.4-65.7s62.5-36.6,95.5-19.5"/>
<path fill="none" stroke="#000000" stroke-width="7" stroke-linecap="round" stroke-linejoin="round" stroke-miterlimit="10" d="
	M521.9,77.9c0,0,10.7,7.1,11.4,29.3s-5.7,38.2-5.7,38.2"/>
<path fill="none" stroke="#000000" stroke-width="7" stroke-linecap="round" stroke-linejoin="round" stroke-miterlimit="10" d="
	M332,242.2c0,0,4.9,18,10.9,33.6s9.1,60.6-22.6,55.9"/>
<path fill="none" stroke="#000000" stroke-width="7" stroke-linecap="round" stroke-linejoin="round" stroke-miterlimit="10" d="
	M358.9,345.3c0,0,4.1-19.8,18.9-19c14.4,5.1,37.7,8.3,64.1-9.4s32.8-24.3,32.8-24.3"/>
<path fill="none" stroke="#000000" stroke-width="7" stroke-linecap="round" stroke-linejoin="round" stroke-miterlimit="10" d="
	M463.6,190.6c0.2-0.9,32.9-47.8,65.8-40.7c12.3,2.9,24.3,8.8,28.3,12.4c4,3.6,14.7,14.7,7.9,52.7c-6.9,37.9-32.9,78.9-67.8,81.4
	c-19.1,0-33.1-12.1-38.3-18.4s-7.9-18.8-7.9-18.8"/>
<path fill="none" stroke="#000000" stroke-width="6" stroke-linecap="round" stroke-linejoin="round" stroke-miterlimit="10" d="
	M498.2,287.1c0,0-17.6-1.8-21.2-22.4s-1.5-39.3,17.4-66.9s48.5-34.7,62.6-22.2"/>
<path fill="none" stroke="#000000" stroke-width="6" stroke-linecap="round" stroke-linejoin="round" stroke-miterlimit="10" d="
	M539.4,169.6c0,0,9.8,7,5.9,35c-3.8,28-32.3,77.9-66,67.8"/>
<path fill="none" stroke="#000000" stroke-width="6" stroke-linecap="round" stroke-linejoin="round" stroke-miterlimit="10" d="
	M531.1,170.6c0,0,10.5,19.1-1.8,52.4S477,248.1,477,248.1"/>
<path fill="none" stroke="#000000" stroke-width="7" stroke-linecap="round" stroke-linejoin="round" stroke-miterlimit="10" d="
	M547.6,153.7c0,0,4.5-16.7,1.8-33.4s-7.3-18-6.6-32.8c0.6-14.8-3.7-63.6-71.1-69.7S346.3,43.1,309.3,95.7s-32.9,110.8-20.4,133.5
	s10.2,46.9-3.6,48.4s-14.2-13-14.2-13s-11.5,24.5,3.1,39.8s10,23,0.8,19.5c-9.2-3.4-10-11.7-10-11.7s-9.4,5.9-5.6,26.6
	s12.3,16.1,10.3,28.5c-1.9,12.4-19.7,8.8-20.9,0c-6.1,6.5-6.3,23.2,2.5,30.1"/>
<path fill="none" stroke="#000000" stroke-width="7" stroke-linecap="round" stroke-linejoin="round" stroke-miterlimit="10" d="
	M360,341.6c0,0,12.7-2.9,22.5,15.9s34.7,48.8,54.4,54.8"/>
<path fill="none" stroke="#000000" stroke-width="7" stroke-linecap="round" stroke-linejoin="round" stroke-miterlimit="10" d="
	M406.5,330.1c0,0-8,6.8-8,19.1s0.7,18.4-6.2,21.1"/>
<path fill="none" stroke="#000000" stroke-width="7" stroke-linecap="round" stroke-linejoin="round" stroke-miterlimit="10" d="
	M320.2,331.7c0,0-22.4-2.6-36.3,14.9s-64.5,107.2-72.7,147.8s19.1,39.8,32.2,38.8c13-1,141.9-35.7,163.1-38
	c9.5-13.5,7.7-27.1,3.3-32.4c-30.9,3.1-115.4,18.1-144.3,4.3"/>
<path fill="none" stroke="#000000" stroke-width="7" stroke-linecap="round" stroke-linejoin="round" stroke-miterlimit="10" d="
	M304.2,399.7c0,0-28.1,44.4-28.3,68.9"/>
<path fill="none" stroke="#000000" stroke-width="7" stroke-linecap="round" stroke-linejoin="round" stroke-miterlimit="10" d="
	M370.9,389.4c0,0-2,5.7,6.1,18.6c8.2,12.9,11.2,28.2,3.1,38.8c-8.2,10.6-13,15.3-12.4,19.5"/>
<path fill="none" stroke="#000000" stroke-width="7" stroke-linecap="round" stroke-linejoin="round" stroke-miterlimit="10" d="
	M384.9,434.2c0,0,20.7,17.1,36.8,16.7"/>
<path fill="none" stroke="#000000" stroke-width="7" stroke-linecap="round" stroke-linejoin="round" stroke-miterlimit="10" d="
	M316.3,332c0,0,3.7,1.4,9,21.9s8.6,28.8,23.1,28.1s17.9-19.4,11.1-35"/>
<path fill="none" stroke="#000000" stroke-width="3" stroke-linecap="round" stroke-linejoin="round" stroke-miterlimit="10" d="
	M328.3,332c0,0,3.3,5.1,12.1,44.9c5.9,29.3,9.4,36.8,9.4,36.8s3.1-71,11.7-75.7"/>
<path fill="none" stroke="#000000" stroke-width="4" stroke-linecap="round" stroke-linejoin="round" stroke-miterlimit="10" d="
	M352.7,414.5c8.2,1.1,4.9,29-5.2,25.9C337.3,437.1,344.6,411.6,352.7,414.5z"/>
<path fill="none" stroke="#000000" stroke-width="7" stroke-linecap="round" stroke-linejoin="round" stroke-miterlimit="10" d="
	M412.5,464.2c0,0,6.6,0,14-17.5s17.7-47.6,31.4-55c13.7-7.4,41.5-10.6,41.5-10.6"/>
<path fill="none" stroke="#000000" stroke-width="7" stroke-linecap="round" stroke-linejoin="round" stroke-miterlimit="10" d="
	M410.9,491.7c0.1,0.3,21.9,2,68.8-6.2s57.4-25.5,57.4-25.5"/>
<path fill="none" stroke="#000000" stroke-width="7" stroke-linecap="round" stroke-linejoin="round" stroke-miterlimit="10" d="
	M474,471.2c0,0.3,48.9-4.6,68.4-13.3s22.2-26.4,22.2-26.4"/>
<path fill="none" stroke="#000000" stroke-width="7" stroke-linecap="round" stroke-linejoin="round" stroke-miterlimit="10" d="
	M488.4,450.4c0,0,50.5-4.9,67.7-13.9s18.1-22,8.5-26"/>
<path fill="none" stroke="#000000" stroke-width="7" stroke-linecap="round" stroke-linejoin="round" stroke-miterlimit="10" d="
	M489.7,428.4c0,0,59.1-4.3,69.6-14.6s-10.1-18.9-22.6-17c-12.4,1.8-56.9,12-56.9,12"/>
<path fill="none" stroke="#000000" stroke-width="7" stroke-linecap="round" stroke-linejoin="round" stroke-miterlimit="10" d="
	M486.5,405.7c0,0,41-68,86.2-96.5c55.3-14.4,137.9-30.8,171.2-26c-13.4,14.6-72.6,58.6-108.6,105.9s-51.1,97.7-51.7,98.6
	c-27.8,10.5-151.5,60.9-168.9,73.3c5.7-26.8,26.6-70.1,26.6-70.1"/>
<path fill="none" stroke="#000000" stroke-width="7" stroke-linecap="round" stroke-linejoin="round" stroke-miterlimit="10" d="
	M484.1,381.8c0,0-14.1-34.9-14.2-48c-0.1-13,4-28.1,20.2-24.6c16.2,3.4,17.4,14.5,28.5,25.1s1.5,21.4-7.4,20.2s-19-5.6-21.5-13.6"/>
<path fill="none" stroke="#000000" stroke-width="7" stroke-linecap="round" stroke-linejoin="round" stroke-miterlimit="10" d="
	M499.7,352.3c0,0-4.4,15.6,7.3,20.3"/>
<path fill="none" stroke="#000000" stroke-width="7" stroke-linecap="round" stroke-linejoin="round" stroke-miterlimit="10" d="
	M531.9,303.9c0,0-12,18.7-18,22.1"/>
<path fill="none" stroke="#000000" stroke-width="7" stroke-linecap="round" stroke-linejoin="round" stroke-miterlimit="10" d="
	M514.8,292.6c0,0,0,23.4-0.9,30.6"/>
<line fill="none" stroke="#000000" stroke-width="7" stroke-linecap="round" stroke-linejoin="round" stroke-miterlimit="10" x1="493.6" y1="297.9" x2="493.6" y2="307.9"/>
<path fill="none" stroke="#000000" stroke-width="7" stroke-linecap="round" stroke-linejoin="round" stroke-miterlimit="10" d="
	M474.1,315.2c0,0,7.1-12.8,17.6-18.9"/>
<path fill="none" stroke="#000000" stroke-width="7" stroke-linecap="round" stroke-linejoin="round" stroke-miterlimit="10" d="
	M528.8,284.6c0.4,0.2,20.7,1,24.9,13.2s-2,25.7-5,30.2"/>
<line fill="none" stroke="#000000" stroke-width="7" stroke-linecap="round" stroke-linejoin="round" stroke-miterlimit="10" x1="211" y1="523.6" x2="52.8" y2="565.6"/>
<line fill="none" stroke="#000000" stroke-width="7" stroke-linecap="round" stroke-linejoin="round" stroke-miterlimit="10" x1="589.6" y1="471.2" x2="841.7" y2="498.5"/>
<path fill="none" stroke="#000000" stroke-width="7" stroke-linecap="round" stroke-linejoin="round" stroke-miterlimit="10" d="
	M296.1,249c0,0-72.3,3.1-108.9,4.3s-60.9,14.9-58.2,57.1c2.7,42.1,40.3,221.7,40.3,221.7"/>
<path fill="none" stroke="#000000" stroke-width="7" stroke-linecap="round" stroke-linejoin="round" stroke-miterlimit="10" d="
	M427.2,523.2c0,0-134,29.9-146.1,38.7c54.4,12.1,182.5,49.6,206.6,57.3c57.8-25.5,167.2-58.2,167.2-58.2
	c-57.1-14.4-126-38.6-156.4-38.7"/>
<path fill="none" stroke="#000000" stroke-width="7" stroke-linecap="round" stroke-linejoin="round" stroke-miterlimit="10" d="
	M628.8,570.7c0,0,20.9,2.1,29.5,7.9c-25.3,5.9-157.8,54.2-178.5,60.9c-31.4-13.2-136.3-53.6-190.3-60.1c11.7-5.6,20.5-8.6,20.5-8.6"
	/>
<path fill="none" stroke="#000000" stroke-width="7" stroke-linecap="round" stroke-linejoin="round" stroke-miterlimit="10" d="
	M364.5,560.2c0.6-0.4,33.3-10.3,33.3-10.3"/>
<line fill="none" stroke="#000000" stroke-width="7" stroke-linecap="round" stroke-linejoin="round" stroke-miterlimit="10" x1="385.8" y1="567.1" x2="406.7" y2="560.2"/>
<line fill="none" stroke="#000000" stroke-width="7" stroke-linecap="round" stroke-linejoin="round" stroke-miterlimit="10" x1="413.4" y1="575.5" x2="434" y2="567.1"/>
<line fill="none" stroke="#000000" stroke-width="7" stroke-linecap="round" stroke-linejoin="round" stroke-miterlimit="10" x1="454.2" y1="560.2" x2="516.4" y2="539.5"/>
<line fill="none" stroke="#000000" stroke-width="7" stroke-linecap="round" stroke-linejoin="round" stroke-miterlimit="10" x1="430.2" y1="584.1" x2="544.9" y2="545.3"/>
<path fill="none" stroke="#000000" stroke-width="7" stroke-linecap="round" stroke-linejoin="round" stroke-miterlimit="10" d="
	M488.4,584.1c1.3-0.6,81.2-29.9,81.2-29.9"/>
<path fill="none" stroke="#000000" stroke-width="7" stroke-linecap="round" stroke-linejoin="round" stroke-miterlimit="10" d="
	M535.7,579c1.5-0.8,47.1-15.3,47.1-15.3"/>
<path fill="none" stroke="#000000" stroke-width="46" stroke-linecap="round" stroke-linejoin="round" stroke-miterlimit="10" stroke-opacity="0" d="
	M521.9,151.1c-2.2,1.7-66.4,46.5-66.4,46.5s-6.2,25.3,2.3,17.1c8.5-8.1,92.4-55.9,92.4-55.9l9.6,16.2c0,0-97.4,72.3-97.2,74
	s9,26.4,9,26.4l95.7-73.2l-51.2,76.6c0,0-35.7,15.5-29.3,15.5"/>
<path fill="none" stroke="#000000" stroke-width="46" stroke-linecap="round" stroke-linejoin="round" stroke-miterlimit="10" stroke-opacity="0" d="
	M324.6,327.7l-20.4,29.4l-34.5,58.5l-26.3,58l-10.7,26.8l2,14.6l120-175.7l28.9,2.2L250.3,526.6l61.3-20.7l86.9-140.2l16.2,11
	c0,0-77.9,137.8-77.4,137.1c0.5-0.8,45.9-20.7,47.6-24s44.6-78.7,45.3-79.4s9.3,2.2,8.2,3.8s-39,80.5-39,80.5"/>
<path fill="none" stroke="#000000" stroke-width="46" stroke-linecap="round" stroke-linejoin="round" stroke-miterlimit="10" stroke-opacity="0" d="
	M163.5,252.6c-0.4,3.9-34.7,47.2-34.7,47.2l3.1,34.7l55.3-81.2l34.1-1.2c0,0-90.3,118.1-89,120.8s10.5,48.7,10.5,48.7l105.3-165.5
	c0,0,44.5-7,45.4-7s-140,204.8-139.7,206.3s2.8,40.9,2.8,40.9s129.1-184.3,127.9-181s-37.1,97.2-37.1,97.2l-64.8,109.7l25.6-1.5"/>
</svg>
