<?xml version="1.0" encoding="utf-8"?>
<!-- Generator: Adobe Illustrator 24.3.0, SVG Export Plug-In . SVG Version: 6.00 Build 0)  -->
<svg isCommex="true" version="1.1" id="Layer_2_1_" xmlns="http://www.w3.org/2000/svg" xmlns:xlink="http://www.w3.org/1999/xlink" x="0px" y="0px"
	 width="1074.8px" height="711.6px" viewBox="0 0 1074.8 711.6" enable-background="new 0 0 1074.8 711.6" xml:space="preserve">
<g>
	<path fill="#6495FB" d="M909.7,595.5c-2.6-14.4-4.8-54.6-5.2-62.6l-0.1-1.3l-1.3,0.5c-6.8,2.4-15.9,3.6-26.5,3.5
		c-4.8,0-8.8-0.2-12.7-0.5c-0.8-0.1-1.6-0.2-2.4-0.2c-0.8-0.1-1.7-0.2-2.5-0.3l-1.1-0.1l0.3,19.8l3.9,0c0.8,0,1.5,0.6,1.5,1.5
		c0,0.4-0.1,0.8-0.4,1.1c-0.3,0.3-0.6,0.4-1,0.4H861c-1.3,0-2.6-0.1-3.8-0.2l-1.1-0.1v1.1c0,9.2,0.8,21.2,2.2,24.5l0.2,0.5l0.5,0.1
		c11.3,3.1,21.9,6,31.6,8.6c6.4,1.8,12.4,3.4,17.9,4.9l1.5,0.4L909.7,595.5z"/>
	<path fill="#6495FB" d="M857.2,534.3l-0.8-0.1c-5.1-0.7-9.7-1.7-13.8-3l-1.2-0.4l-0.1,1.3c-0.2,2.5-0.3,8.9,2.6,13.7
		c2.7,4.5,8.8,7,12.2,8.1l1.4,0L857.2,534.3z"/>
	<path fill="#6495FB" d="M853.2,557.5v-0.8l-0.8-0.1c-10.5-1.9-19.2-6.4-19.3-6.5c-0.7-0.4-1.1-1.4-0.7-2c0.4-0.7,1.4-1.1,2.1-0.7
		l0.2,0.1h0c0.1,0,0.2,0.1,0.3,0.1c1.3,0.6,5.2,2.4,10.1,3.9l5.4,1.7l-4.5-3.5c-1.2-1-2.2-2.1-3-3.3c-3.5-5.5-3-12.8-2.8-15l0.1-0.8
		l-0.8-0.2c-5.8-1.7-11.4-4-17-6.9c-1.8-1-3.6-2-5.4-3.1l-1.6-1l0,1.8c0.1,4.8,0.5,13.2,1.1,21.4c0.9,13.7,1.9,23.5,3,29.3l0.1,0.6
		l0.6,0.2c10,2.8,20,5.5,29.6,8.1l5,1.4l-0.3-1.6C853.4,574,853.2,563.3,853.2,557.5z"/>
</g>
<g>
	<path fill="#8CD96F" d="M908.3,509.3c-0.2-1.5-0.4-3.1-0.6-4.9c-0.2-2-0.5-4.2-0.8-6.5c-0.2-1.7-0.4-3.4-0.6-5.1
		c-1.7-14.7-1.9-27.6-1.9-32.5v-0.8l-0.8-0.1c-4.7-0.8-9.7-3.5-15-8.1c-7.4-6.4-19.6-21.7-28.5-33.4l-1.6-2.2l-1.2,20.1
		c-1.8,30.1-3.5,58.6-4.3,73.5c0,0.3-0.2,0.8-0.5,1c-0.3,0.3-0.6,0.4-1,0.4h-0.2c-6.7-0.9-19.3-3.8-40.8-9.5l-1.2-0.3l-0.1,1.2
		c-0.2,2.9-0.2,6.3,0,7.9l0,0.2l0.1,0.2c2.2,3.4,19.9,17.2,48.7,21c2.1,0.3,4.3,0.5,6.4,0.7c4.6,0.4,8.7,0.5,12.4,0.5
		c15.3,0,23.9-2.6,28-4.4l0.2-0.1l0.1-0.1c0.1,0,0.3-0.1,0.4-0.2l0.1-0.1c2.5-1.2,3.6-2.4,3.8-2.8l0.2-0.2l0-0.3
		C909.9,522.9,909.3,517.5,908.3,509.3L908.3,509.3z"/>
	<path fill="#8CD96F" d="M832.3,334.9c0.1,0.2,0.1,0.5,0,0.7l-0.3,1.1l10.9,1.8l-1.6-2c-3.2-4-4.1-11.6-4.4-14.7l-0.1-1.3l-1.2,0.5
		c-2.7,1-5.3,3.3-6.1,4.1l-0.8,0.8l0.3,0.6C831.1,330.6,832.2,334.2,832.3,334.9z"/>
	<path fill="#8CD96F" d="M926.9,428.3c-0.1-11.1-8.2-58.7-13.4-72.1c-4.6-11.4-16.6-19.9-24.5-25.4c-1.1-0.9-2.3-1.7-3.3-2.5
		c-1-0.7-2-1.4-2.9-2.1c-1.3-1-2.3-1.9-3.2-2.8l-0.7-0.8l-0.9,0.9c-6.4,6.6-16.4,12.8-24.4,15l-4.2,1.2l12.2,2.2
		c0.8,0.1,1.3,0.8,1.3,1.6c0,0.3-0.2,3.4-0.5,8.3c-0.5,7.3-1.2,18.8-2,32.5l0,0.5l0.4,0.3c7,5.9,16.7,14.2,23.3,20l1.8,1.6l-0.2-2.4
		c-1.4-20.9,0.7-36,0.7-36.2c0.1-0.7,0.8-1.4,1.7-1.3c0.7,0.1,1.4,0.8,1.3,1.7l0,0.2c-0.5,4.5-2,20.7-0.2,40.2l0,0.4l0.3,0.3
		c0.3,0.3,0.5,0.6,0.8,1l0.2,0.2c0,0.1,0.1,0.2,0.2,0.3c8.7,9.7,26.4,16.6,33.5,17.9c0.5,0.1,1.1,0.2,1.6,0.2h1L926.9,428.3z"/>
</g>
<g>
	<path fill="#808080" d="M942.4,140l-0.4-1.6l-1.2,1.1c-1.7,1.5-4.1,4.3-5.4,6.5c-0.4,0.5-1,0.7-1.6,0.5c-0.6-0.2-1-0.7-1.1-1.3
		c-0.5-6.4-2.7-23.8-6-27.4c-0.3-0.5-0.7-0.5-1-0.5h-0.4l-0.3,0.2c-0.8,0.6-1.9,2.3-3.1,7c-0.4,1.1-1,1.6-1.8,1.5
		c-0.6-0.1-1.1-0.5-1.2-1.2c-1.2-3.8-9.3-23.9-13.2-26.3l-0.8-0.5l-0.5,0.7c-1.2,1.6-1.5,7.2-1,11.6c0.1,0.6-0.3,1.2-0.9,1.5
		c-0.6,0.2-1.4-0.1-1.8-0.6c-5.8-8.6-13.7-18.8-16.9-20.8l-1.2-0.7l-0.3,1.3c-0.5,2.1-0.2,7.4,0.9,12.5c0.1,0.6-0.1,1.2-0.7,1.6
		c-0.4,0.3-1.1,0.3-1.6-0.1c-5.9-4.5-17-11.6-21.7-11.6h-0.2c-1.9,0-2.7,0.9-2.9,1.6c-1,2.3,0.5,6.4,2.5,9c0.5,0.9,0.3,1.4,0.2,1.6
		c-0.8,1.9-2.7,1.4-7.9-0.6l-0.3-0.1c-3.8-1.5-9.1-3.6-12.3-3.2c-1.2,0.2-2,0.5-2.3,0.9l-0.2,0.2l-0.1,0.3c-0.2,0.8,0.2,2.3,2.1,6.5
		l0.6,1.4c0.2,0.4,0.2,0.9,0,1.3c-0.2,0.4-0.6,0.7-0.9,0.8c-1.2,0.3-2.8,0.3-4.9,0.2c-8.5-0.4-9,1-9.3,1.6c-1,2.3,3.7,5.5,6,6.6
		c0.5,0.3,1,0.8,0.9,1.6c-0.1,0.6-0.5,1.1-1.2,1.2c-2.7,0.5-10.2,2.8-9.9,5.1c0.3,2.6,6.9,4.9,10.3,5.6c0.4,0.1,1,0.5,1.1,1.1
		c0.1,0.6-0.1,1.2-0.5,1.5c-1.1,0.8-5.4,4.7-5.1,8.6c0.1,2.2,0.9,4.6,2.5,7.5l0.9,1.7l0.8-1.7c5.8-11.7,11.1-19.1,14.6-23.3l2.1-2.5
		l-3.1,0.9c-0.8,0.2-1.2,0.4-1.3,0.5c-0.3,0.2-0.7,0.2-1.1,0c-0.4-0.1-0.7-0.4-0.9-0.8c-0.3-0.7,0-1.6,0.7-2
		c16.4-7.1,38.4-1.4,40.9-0.7c24,6.6,33.5,22.1,34.3,23.4c0.1,0.4,0.2,0.7,0.2,1c0,0.1,0,0.4-0.1,1.1c-2,22.6-2.4,35.7-2.4,42.7
		c-0.4,10.6-1.6,13.7-2.8,16.7l-0.7,1.6c-0.1,0.3-0.3,0.7-0.6,1.2l-0.2,0l-0.3,0.7c-2.7,5.5-9.8,16.9-10.6,18.2
		c-0.2,0.4-0.6,0.6-1,0.7l0,0c-1.5,0.2-13.8,2.3-24.9,4.7c-9.8,2.1-14,2.6-15.3,2.8l-0.4,0l-0.3,0.3c-4.1,4.9-9.3,8.8-14.7,10.9
		c-3.4,1.3-6.7,2-9.9,2c-5.7,0-11-2.1-15.5-6.1c-1.3-1.2-2.3-2.3-3.2-3.3l-1-1.2l-0.7,1.3c-1.4,2.6-5.8,11.9-6,20.1
		c-0.1,5.6,0.7,7.9,1.4,8.9l0.7,1l0.8-0.8c1.2-1.2,2.4-3.1,2.9-3.8c0.4-0.6,1-0.9,1.7-0.7c0.7,0.2,1.2,0.8,1.2,1.5
		c0.1,7.9,1.6,29.3,6.7,32.6c0.7,0.5,1.2,0.6,1.5,0.6h0.2l0.2-0.1c1.9-0.8,2.8-6.9,2.8-10.8c0-0.8,0.5-1.4,1.3-1.5
		c0.7-0.1,1.5,0.3,1.7,1c2.4,6.5,8,18.8,13.4,24c1.2,1.2,2.5,2,3.8,2.4c0.6,0.2,1.2,0.2,1.6,0.2c1.1,0,1.7-0.4,2.1-0.7
		c2.3-1.9,2-7.4,1.7-8.8c-0.1-0.6,0.2-1.3,0.9-1.5c0.7-0.2,1.4,0,1.9,0.6c0.1,0.1,8.1,10.9,14.6,9.3c2.3-0.5,3.9-2.7,4.8-6.1
		c1-3.2,1.2-7,1-9.4c-0.1-0.8,0.5-1.4,1.3-1.5c0.8-0.1,1.5,0.5,1.7,1.2c0.1,0.3,2.1,8.2,7.1,8.2c3.8,0,6.5-5.7,7.4-15.7
		c0-0.4,0.2-0.9,0.7-1.2c0.4-0.2,1-0.2,1.4-0.1c2.1,0.9,4.2,0.9,6.2-0.1c4.7-2.3,9-9.9,11.2-19.7c1.8-7.8,3.4-12.1,4.4-14.4l0.6-1.2
		l-1.3-0.2c-2.4-0.4-4.3-1.3-5.9-2.8c-3.1-2.9-3.2-6.8-3.2-6.9v-0.3L907,237l0.3-2.1c0.2-2.2,1.7-12.3,5.2-19.2l0.2,0l0.3-0.7
		c1.3-2.6,2.7-4.3,4.1-5.2c2.8-1.8,6.5-2.4,10.2-1.8l0.8,0.1l0.3-0.7c0.1-0.3,12.3-29.2,14.2-43.6C944,152.3,943.2,143.3,942.4,140z
		 M886.8,260l-0.9-0.4c-0.8,1.8-8.4,17.8-28.6,17.8l-0.9,0c-22-0.5-29.3-12.3-29.4-12.4c-0.3-0.5-0.2-1.1,0.3-1.5
		c0.2-0.1,0.3-0.1,0.5-0.1c0.1,0,0.1,0,0.2,0c0.3,0.1,0.5,0.2,0.6,0.4c0.1,0.1,6.9,11.1,27.8,11.6c19.8,0.4,26.8-14.8,27.5-16.5
		c0.2-0.5,0.8-0.7,1.3-0.5c0.2,0.1,0.4,0.3,0.5,0.5c0.1,0.3,0.1,0.5,0,0.8L886.8,260z"/>
	<path fill="#808080" d="M674.7,124.2c-3.6-3.4-5.2-8.7-4.9-16.5c-0.1-4.5-8.4-6.6-12.9-7.7c-0.8-0.2-1.5-0.4-2.1-0.6
		c-2.9-0.9-3.4-3.5-3.6-6.3c-0.3-2.4-0.5-4.1-2.1-5.2c-3.3-2.1-10.8-2.1-16.1-2h-1.5c-1.5,0-2.5-0.8-3.8-1.8
		c-1.4-1.1-3.2-2.6-6.3-2.8c-2.8-0.2-5.4,1-8.2,2.4c-2.6,1.3-5,2.3-7.7,2.6c-7.5,0.9-11.4,3-12.7,7.1l-0.3,0.9
		c-1.2,3.4-1.3,3.8-3,5.3c-0.6,0.5-1.5,1.4-2.7,2.7c-1.5,1.6-2.8,2.7-3.9,3.6l-0.4,0.3c-2.2,1.7-3.5,2.8-4.2,6
		c-0.5,2.3-0.3,4.1-0.1,6l0,0.4c0.2,2.2,0.4,4.5-0.9,7c-2.2,4.1-1.9,8.8,0.9,13.2c0.3,0.4,0.7,1.1,1,1.8l1.4,3.3l0.5-3.6
		c1-7.1,1.1-11.4,1.2-15.1l0-0.2c0-0.8,0.1-1.5,0.1-2.2c0-0.7,0-1.4,0.1-2.1c0.5-6.7,8.3-16.2,14.7-19.8c2.7-1.5,4.4-2,5.6-2.2
		l0.2,0c1.5-0.3,1.7-0.5,2.7-2.1c1.3-2.2,3.4-3.5,5.9-3.8c2.4-0.4,5,0.4,6.8,1.9l0.1,0.1c0.2,0.1,0.5,0.4,0.7,0.6l0.1,0.1
		c2.2,1.9,2.9,2.3,6.2,1.4c2.1-0.6,4.5-0.2,6.7,1.2c2.8,1.6,5.1,4.7,5.7,7.7c0.1,0.9,0.2,1.7,0.3,2.4l0.1,0.7c0,0.2,0.1,0.4,0.1,0.6
		c0,0.4,0.1,0.7,0.2,1l0.3,0.6h0.4c0.3,0.2,1,0.5,2.4,0.9c5.3,1.4,6.4,7.1,7.3,11.6c0.2,1,0.4,1.9,0.6,2.8c0.5,1.7,1.3,2.5,2.1,3.5
		l0.2,0.2c1,1,2.1,2.2,2.5,4.3c0.2,1,0.3,2.3,0.3,3.5c0.1,3.4,0.3,6.6,2.3,8.7l0.8,0.9l0.7-1c2.9-4,6.9-5.9,10.9-5.3l0.2,0
		c0.4,0.1,0.9,0.2,1.2,0.3l0.7,0.3l0.5-0.5c1.3-1.5,4.2-8.9,4-14.1C675.7,125.7,675.4,124.7,674.7,124.2z"/>
</g>
<g>
	<path fill="#FFE400" d="M720.6,186.4c-0.6-3.9-2.5-8.2-4.6-10.1l-1.2-1l-0.5,1.5c-1.1,3.3-2.3,7-3.8,10.8l-0.9,2.1
		c-0.8,2-1.4,3.5-1.9,4.5l-0.6,1.2l1.3,0.3c0.9,0.2,1.7,0.3,2.5,0.3c2,0,3.9-0.6,5.5-1.7l0.1-0.1c0.2-0.2,0.4-0.3,0.6-0.5
		c0.2-0.2,0.4-0.4,0.6-0.6l0.1-0.1l0.1-0.2c0.8-2,1.1-2.8,1.2-3.2c0.1-0.3,0.4-0.6,0.8-0.9l0.4-0.2l0.1-0.4c0.1-0.5,0.1-1.1,0.1-1.4
		L720.6,186.4z"/>
	<path fill="#FFE400" d="M560.1,279.1l-1.6,0.1l0.8,1.4c0.7,1.2,2.1,3.2,4,3.5l0.2,0l0.2-0.1c0.2-0.1,0.7-0.3,1.5-0.7l0.2-0.1
		l0.1-0.2c0.6-0.7,1.1-1.9,1.4-3.4l0.3-1.4l-1.4,0.2C564,278.8,562.1,279,560.1,279.1z"/>
	<path fill="#FFE400" d="M711,198.9c-1.8,0-3.9-0.4-6.1-1.1c-0.6-0.2-1.2-0.5-1.9-0.8c-9.6-4.4-13.4-14.7-14.6-19v-4.2l-1.9,3.7
		c-2.4,4.7-5.9,10.9-10.5,18.4c-10.6,17.5-20.5,25.6-23.3,27.7l-0.5,0.3l0.1,0.6c0.8,6.6,1.7,22.3-6.7,24.7
		c-1.8,0.6-3.6,0.9-5.2,0.9c-2,0-3.7-0.5-5.3-1.5c-4-2.4-6.6-8.1-8.4-18.5l-0.1-0.7l-0.7-0.1c-2.7-0.6-5.3-1.3-7.8-2.2l-0.4-0.1
		l-0.4,0.2c0,0-0.1,0-0.1,0c-0.1,0-0.2,0.1-0.3,0.1l-54.5,19.7l0.7,1c3,4.8,5.1,10.5,6.4,16.8c0.8,4.1,1.7,10.2,0.9,14.9l-0.3,1.9
		l1.7-0.8c3.7-1.8,8.4-4.2,13.6-7c13-7.3,24.9-14.4,26.5-15.5l0,0c0.4-0.2,0.8-0.3,1.1-0.2c0.4,0.1,0.7,0.5,0.9,0.8
		c0.1,0.2,9.7,20.3,10.4,33l0,0.8l0.8,0.1c26.6,3.2,61.7,7.6,83.4,10.4l1.6,0.2l-0.5-1.5c-2.2-6.3-8.3-21.4-25.4-57.2
		c-0.5-1.1-0.8-1.7-0.9-1.8l-0.1-0.1c-0.2-0.3-0.3-0.8,0.2-1.6c0.1-0.1,0.1-0.2,0.2-0.3c5.9-7.7,12.5-15.6,18.8-22.4
		c5.6-6.1,9.8-13.5,12.3-18.6l0.9-1.9l-2,0.4C712.7,198.8,711.9,198.9,711,198.9z"/>
</g>
<g>
	<path fill="#D3A37F" d="M715.2,117c-1.5-18.4-5.9-48.9-10.3-56.3c-4.7-7.3-18.1-12.9-29.4-12.3c-12.7,0.7-21.8-0.4-31.3-1.5
		c-0.9-0.2-1.9-0.3-2.7-0.4l-0.5-0.1c-5-0.6-8.9-1.1-11.1,0.7c-1.5,1.2-2.3,3.7-2.6,7.3c-0.1,2.8,0.8,5,2.7,6.8
		c4.7,4.2,14.9,5.1,20.4,4c5.9-1.1,10.9-2.2,12.8-2.7c0.3-0.1,0.5-0.1,0.6-0.1l0.1,0c0.5-0.1,1,0,1.3,0.3c0.4,0.3,0.5,0.7,0.5,1.2
		c-0.3,7.6,0.2,19.8,2.9,22.2c2.5,2.2,8.4,1.5,15.1,0.4c0.6-0.1,1.2-0.2,1.8-0.3c1.5-0.2,2.9-0.5,4.1-0.5c6.2-0.5,14-0.8,14.5-0.8
		c0.4,0,0.8,0.1,1.1,0.4c0.3,0.3,0.4,0.6,0.4,1.1c0,0.5-0.2,0.8-0.4,1c-0.3,0.3-0.7,0.5-1.2,0.5c0,0-0.7,0.1-1.6,0.1h-1.1l0.1,1.1
		c0.3,2.5,2.6,24.9,2.4,43.4c-0.1,8.1-0.7,14.1-1.8,18.5c-4.3,17.2-8.7,26.7-9.1,27.4c-0.3,0.4-0.5,0.6-0.5,0.6l-0.7,0.4l0.3,0.7
		c1.7,4.4,5,10.3,11.2,13.4l0.9,0.5l0.4-1c1.6-3.5,5.1-12.1,7.3-20.1c0.1-0.4,0.2-0.9,0.3-1.4c0.1-0.5,0.3-1,0.4-1.4
		c1.7-6.8,2.8-20.2,2.9-35C715.9,128.8,715.7,122.4,715.2,117z"/>
	<path fill="#D3A37F" d="M566.3,265.3L566.3,265.3c-1.8-9.1-5.1-14.6-6.5-16.5l-0.3-0.4h-0.8c-0.4,0-0.8,0-1.2-0.2
		c-2.2-0.7-4.2-2.9-6.3-7c-3.3-6.4-12.6-32.1-16.2-41.8c-0.8-2.1-1.3-3.5-1.4-3.7c-0.2-0.6-0.1-1.2,0.4-1.6
		c2.5-2.6,7.7-8.4,10.9-12.9l1.7-2.4l-11.5,3.5l-0.2,0.4c-0.3,0.7-0.6,1.3-0.8,1.6c-0.3,0.5-0.9,0.9-1.4,0.9c-0.2,0-0.5,0-0.5,0
		l-0.1-0.1c-0.6-0.3-0.9-0.8-0.9-1.4l0.1,0v-0.7l0.3-0.8c3-6.5,9.3-22.8,6.5-28.3l0,0c-1.6-3-5.4-4.6-9-3.9l-0.3,0
		c-4.1,0.9-6.7,4.3-7,9.4c0.1,5.3,1.9,10.3,3.4,14.4l0.3,0.8c0.2,0.5,0.4,1.1,0.5,1.6c0.7,2,1.3,3.7,1.4,5.2c0,0.2,0,0.5-0.1,0.8
		l-0.3,0.5c-0.3,0.3-0.6,0.5-0.9,0.5h-0.6l-3.8,1.1l0.3,0.9c0.2,0.9,0.6,2.3,1.1,3.9c1,3.5,2.3,8.2,3.1,10.9
		c0.4,1.4,1.3,6.1,3.1,16.1c2.4,13.4,7.5,41.3,10.7,50.1c2.9,7.8,7.4,10.1,15.4,10.1c3.1,0,6.8-0.4,11.1-0.9l0.9-0.1l0-0.9
		C567.3,271.6,566.9,268.6,566.3,265.3z"/>
	<path fill="#D3A37F" d="M578.1,166.6l0-0.6l-0.5-0.3c-0.4-0.2-2.7-1.4-4.7-0.7c-1.5,0.5-2.5,2-3.2,4.4c-1.4,4.9-0.8,10,1.6,13.4
		c1.7,2.5,4.4,4.2,7.6,4.8l1.5,0.3l-0.4-1.5C578.6,180.4,578,173.9,578.1,166.6z"/>
	<path fill="#D3A37F" d="M668.8,144c-3.5-0.6-6.8,1.6-9.2,6c-0.2,0.3-0.5,0.6-0.8,0.7c-0.4,0.1-0.8,0.1-1.1-0.1
		c-5.8-2.8-5.9-9.1-6-12.9c0-1.2-0.1-2.3-0.2-3c-0.2-1.1-0.8-1.7-1.6-2.6l-0.2-0.2c-1.1-1.1-2.3-2.6-3.1-5.1
		c-0.3-0.8-0.5-1.7-0.7-2.9c-0.9-4.3-1.7-8.4-5.1-9.3c-4.7-1.2-5.3-2.7-5.6-5.6c0-0.8-0.1-1.7-0.3-2.7c-0.6-2.2-2.3-4.5-4.4-5.8
		c-1.6-0.9-3.1-1.2-4.4-0.8c-4.8,1.3-6.4,0.1-8.9-2.1c-0.2-0.2-0.4-0.4-0.8-0.7c-1.1-1-2.8-1.4-4.4-1.2c-1.1,0.2-2.8,0.7-3.8,2.5
		c-1.8,2.7-2.8,3-4.4,3.4c-1.2,0.2-2.6,0.6-5.1,2c-6.1,3.5-12.9,12.4-13.2,17.4c-0.1,1.3-0.2,2.6-0.2,4.1l0,1.2
		c-0.2,4.8-0.4,10.7-2.2,21.8c-0.4,1.9-0.6,3.7-0.8,5.2l0,0.2c-0.4,2.9-0.7,5.6-0.9,8.5l-0.3,3.9l-0.1-0.3l0,0.7l-0.3,4.5l0.5-1.6
		l0.3,4.9c0.3,4.9,1.2,9.7,2.5,14.3c0.8,2.8,1.9,5.8,3.5,9c7.1,15,20.1,22.4,29.7,26c8.8,3.2,15.7,3.7,15.7,3.7
		c0.8,0,1.5,0.7,1.5,1.5s-0.7,1.5-1.5,1.5c0,0-0.7,0-1.7-0.2l-1.4-0.2l0.3,1.4c1.7,8.2,3.8,12.9,6.8,14.8c1.1,0.6,2.3,0.9,3.7,0.9
		c1.3,0,2.7-0.2,4.3-0.7c6.3-1.8,5.3-16.9,4.4-22.5c-0.1-0.4,0-0.8,0.2-1c0.1-0.1,0.3-0.4,0.5-0.7c0.7-1.1,3.1-5.5,7-15.7
		c1.9-5,4.3-14.4,5.2-31.4l0-0.9l-0.9-0.1c-0.6-0.1-1.1-0.2-1.6-0.5c-0.8-0.4-1.1-1.3-0.9-2c0.4-0.8,1.3-1.1,2-0.8
		c3.8,1.6,8.8,0.8,12.3-2.1c3.7-3.1,5.3-7.7,4.5-12.9C676.2,149.3,673,144.9,668.8,144z M666.5,155.9c0.4,0,0.7,0.2,0.9,0.5
		c0.2,0.2,0.2,0.5,0.2,0.7c0,0.2-0.2,0.5-0.4,0.7c-0.2,0.1-0.4,0.2-0.6,0.3l-0.2,0.1c-0.7,0.5-2.4,2.1-3,4c-0.2,0.5-0.6,0.7-1,0.7
		c-0.1,0-0.1,0-0.2,0l-0.2-0.1c-0.3-0.1-0.4-0.3-0.5-0.4c-0.1-0.3-0.2-0.6-0.1-0.8c0.9-2.8,3.6-5.4,4.9-5.6
		C666.4,156,666.5,155.9,666.5,155.9z M601.3,135l0.5-0.5l0.1-0.2c0.2-0.3,0.6-0.7,1.1-0.8c0.9-0.1,1.8,0.3,2.3,1
		c1.1,1.3,1.4,3.7,0.8,5.2l0,0c-0.3,0.9-1.1,1.5-2,1.7h-0.4c-1,0-1.7-0.4-2.2-1.3C600.5,138.7,600.6,136.1,601.3,135z M604.9,116.3
		c-0.2,0.6-0.8,0.9-1.4,0.9v-0.4l-4.4-1.3c0.3-0.5,0.8-1,1.5-1.4c1-0.5,2.2-0.4,3.4,0.1C604.8,114.7,605.2,115.6,604.9,116.3z
		 M600.7,201.3c0.2-0.2,0.4-0.4,0.7-0.4c0,0,0.1,0,0.1,0c0.2,0,0.4,0.1,0.6,0.2l0.2,0.1c2.7,1.8,12.8,7.5,26.6,2.8
		c17.4-5.8,19.8-28.1,19.8-28.3c0-0.3,0.2-0.5,0.4-0.7c0.2-0.2,0.5-0.3,0.8-0.2c0.5,0,0.9,0.6,0.9,1.1v0
		c-0.6,6.6-5.5,24.7-21.2,29.9c-3.7,1.2-7.5,1.8-11.3,1.8c-10.4,0-17-4.9-17.3-5.1C600.4,202.3,600.3,201.8,600.7,201.3z
		 M624.5,116.7c-0.3,0.4-0.7,0.6-1.2,0.6c-0.2,0-0.5-0.1-0.9-0.3c-0.2-0.2-0.4-0.2-0.5-0.3l-1.5-3c1-0.2,2.5-0.2,3.9,0.9
		c0.3,0.2,0.5,0.6,0.6,1C624.8,116,624.7,116.4,624.5,116.7z M619,134.6l0.1-0.2c0.2-0.3,0.6-0.7,1.1-0.8c0.8-0.1,1.7,0.2,2.3,0.9
		c1.1,1.3,1.4,3.7,0.8,5.2c-0.4,1-1.1,1.6-2.1,1.8h-0.4c-1,0-1.7-0.4-2.2-1.3c-0.9-1.5-0.8-4-0.1-5.1L619,134.6z M583,162.5
		c1-3.2,2.5-6,4.6-8.1c5.9-6.2,20.2-6.3,20.4-6.3c0.5,0,0.8,0.1,1.1,0.4c0.3,0.4,0.4,0.8,0.4,1.1c0,0.8-0.7,1.5-1.5,1.5
		c-0.1,0-13.2,0.1-18.2,5.3c-2.4,2.5-4.9,7.3-4.5,13.1c0.4,5,3,9.5,7.4,13.1c5.9,4.8,14.6,3.2,20.6-0.5c4.6-2.8,9.2-8,8-13.8
		c-0.2-0.9,0.3-1.6,1.1-1.8c0.4-0.1,0.8,0,1.2,0.2s0.6,0.5,0.6,1c1.3,6.1-2.2,12.6-9.3,16.9c-3.9,2.5-8.7,3.9-13.3,3.9
		c-4.2,0-7.8-1.2-10.8-3.6c-3.8-3-6.4-6.8-7.7-11l-1.8-6L583,162.5z"/>
</g>
<path fill="#FFF996" d="M436.3,279.8L436.3,279.8c-16.3-64.7-51.5-77.8-62.5-77.4c-5.2,0.2-7.6-0.8-9.7-1.6l-0.2-0.1
	c-3.3-1.5-6.1-2.8-24.1,2.4c-14.3,4.1-27.8,17.3-37.1,36.2c-7.5,15.1-15.8,40.9-13.1,77.4c2.3,32.1,15.9,52.5,26.9,64
	c11,11.5,21.7,16.8,23.8,17.6l0,0c0.3,0.1,0.4,0.2,0.7,0.6l0.3,0.4h0.5c0.6,0,1.3,0,1.9-0.1c0.6,0,1.2,0,1.8,0
	c20.9-0.7,33.5-2.5,34.9-2.7l0.3,0l1.2-1.2l-2.6-3c-1-1.1-2.8-2-5.1-3.2l-0.7-0.3c-7.4-3.6-19.7-9.7-32.2-28.7
	c-13.4-20.3-21.4-46.9-24.2-57.3l-0.8-3.1l-1.1,3c-6.4,18.1-6.4,34.3-6.4,36.2c0,0.4-0.1,0.8-0.4,1.1c-0.3,0.3-0.6,0.4-1,0.4h-0.1
	c-0.9,0-1.5-0.6-1.5-1.4l0-0.1c0-3.7,0.2-23.1,9-43.4c0.7-1.8,1.6-3.6,2.5-5.3c1.9-3.7,4-7.3,6.3-10.8c5-7.7,10.9-15,18.2-22.2
	c3.1-3.1,5.9-5.7,8.4-8l1.1-1.1c0.8-0.7,1.5-1.3,2.2-2c0.4-0.3,0.7-0.7,1.1-1c9.2-8.5,19.1-22.1,19.2-34.7c0-0.9,0.8-1.5,1.5-1.5
	c0.8,0,1.5,0.7,1.5,1.5c0,1.3-0.1,2.6-0.3,4l-0.1,0.6l0.6,0.3c1.2,0.7,3.6,2.3,6.7,4.9l0.4,0.3l0.5-0.1c2.3-0.5,4.3-0.5,5.9,0
	c0.4,0.1,0.7,0.4,0.9,0.7c0.2,0.3,0.2,0.7,0.1,1.1c-0.2,0.7-0.9,1.1-1.6,1l-2.9-0.3l2.1,2c5.8,5.5,14,15,20.8,28.9
	c1.5,3.2,3,7.2,4.5,12c9.2,30.2,9.9,74.7,7.8,86.2c-2.2,12.2-7.4,21-10.9,26.8c-0.6,1-1.2,2-1.7,2.9l-0.2,0.3
	c-1.7,3.1-1.3,5.8-0.3,7.2c0.5,0.8,1.2,1.4,2.2,1.6l0.7,0.1l0.4-0.6c0.1-0.2,0.5-0.5,0.8-0.5l0.2-0.1c0.4-0.1,4.1-0.8,12.4-0.5l1,0
	v-1c0-0.3,0.1-0.4,0.1-0.5l0.1-0.1C428,385.7,451.4,339.5,436.3,279.8z M328.6,242.7c-0.1,0.4-0.3,0.7-0.6,1
	c-0.3,0.2-0.7,0.3-1.1,0.3c-1.8-0.2-2.9,0.4-3.5,0.9c-0.3,0.3-0.7,0.7-0.8,1.2c-0.2,0.6-0.8,0.9-1.5,0.9c-0.2,0-0.4,0-0.5,0
	c-0.8-0.3-1.2-1.1-0.9-1.9c0.2-0.5,1.9-4.1,6.3-4.1c0.4,0,0.9,0,1.3,0.1C328.1,241.1,328.7,241.8,328.6,242.7z"/>
<g>
	<path fill="#E6074D" d="M389.7,421c0.2,18.3,3.2,26,10.8,27.3c0.3,0,0.7,0.1,1,0.1c1.3,0,2.5-0.4,3.5-1.3c3.4-3.2,4.6-12.8,3-25.1
		l0,0c-0.3-1.8-0.5-4.6-0.9-8.6l-0.1-1.3l-1.2,0.5c-3.2,1.2-9.5,2.5-15.2,2.7l-1,0l0.1,1C389.6,417.8,389.7,419.4,389.7,421z"/>
	<path fill="#E6074D" d="M434.1,392.8c-8.7-0.8-14.5-0.5-17.6-0.4l-1.6,0.1v9.6c0,3.9-1.1,6.6-6.5,9.2l-0.6,0.3l0,0.7
		c0.2,3.4,0.5,6.7,0.9,9.6c0.3,2.1,2.7,20.2-3.3,25.9c-1.2,1.1-2.5,1.6-4,1.6c-0.4,0-0.8,0-1.2-0.1c-9.3-1.6-11.4-12.4-11.6-28.2
		c0-1.7-0.1-3.4-0.2-5l-0.1-0.9l-0.9,0c-3.6-0.1-6-0.9-6.8-2.2c-0.9-1.6-1.1-6.1-0.6-12.2l0.1-1.2l-1.2,0.1c-5,0.6-16.6,2-33.6,2.5
		c-2,0.1-3.9,0.1-5.8,0.1c-15.8,0-28.2-1.8-32.7-2.6l-0.8-0.1l-0.3,0.8c-0.8,2.2-2.1,7.4-1.9,18.7c0.1,3.3,0.2,6.5,0.4,9.1
		c0.2,4.3,0.7,8.2,1.3,11.8l0.2,1l1.3-0.3c4.6-1.1,14.1-3.3,29.1-5.9c16.8-3,29.6-3.3,35.7-3.2l1.2,0l0.2-0.8c0.8-3.5,1-4.4,1-4.7
		c0.2-0.7,1.1-1.3,1.8-1.1c0.8,0.2,1.3,1,1.1,1.8l0,0.1c0,0.1-0.1,0.5-0.2,0.9c-2.4,11.5-3.7,20.1-4,25.5c-0.5,9.6,2,14.2,8.9,16.3
		c2.2,0.8,4.7,1.3,7.1,1.8l0.4,0.1c5.8,1.1,10.9,1.5,11.1,1.5c0,0,0,0,0,0c0.4,0,0.8,0.2,1,0.5c0.3,0.3,0.4,0.7,0.4,1.1
		c-0.1,0.8-0.7,1.4-1.5,1.4h-0.2c-0.3,0-3.2-0.3-7.2-0.9l-1.8-0.3l0.7,1.7c4,9.1,17.9,40,25.2,54.1l1.6,3l0.3-3.3
		c3.9-40.2,13.3-113.1,13.4-113.9c0.4-2.9,0.7-6,0.9-9l0.1-0.7c0.4-4.4,0.9-8.6,1.5-12.8l0.1-1L434.1,392.8z"/>
</g>
<path fill="none" stroke="#000000" stroke-width="6" stroke-linecap="round" stroke-linejoin="round" stroke-miterlimit="10" d="
	M533.2,621.2c2.9,0,41.7-9.2,51.9-10.7c10.1-1.5,17.8-2.9,17.8-2.9s-5.4-101.3-7.9-104.4s-24.5-31.8-24.5-31.8s-50.6,5.9-52.7,7.1
	s11.9,17.8,13.8,29.3c1.9,11.5,5.7,100.3,5.7,100.3"/>
<path fill="none" stroke="#000000" stroke-width="6" stroke-linecap="round" stroke-linejoin="round" stroke-miterlimit="10" d="
	M534,587c0,0-34.5,8.8-34.7,10.1s-1.1,4,0,4.6s31,19.5,33.9,19.5"/>
<path fill="none" stroke="#000000" stroke-width="6" stroke-linecap="round" stroke-linejoin="round" stroke-miterlimit="10" d="
	M566.9,514.8c13.2-1.8,13.2,30.7,1,29.9S551.3,515.9,566.9,514.8z"/>
<path fill="none" stroke="#000000" stroke-width="6" stroke-linecap="round" stroke-linejoin="round" stroke-miterlimit="10" d="
	M601.7,552.8c0,0,22.9-1.8,32.3-10.2c9.4-8.4,13.3-20.2,14.9-39.1c1.6-18.9,15.1-112.5,13.8-132.9s-9.4-24.8-24.6-23.5
	c-15.2,1.3-167.1,15.6-184.5,20.4c-17.4,4.9-16.6,29.4-19.1,49c-2.6,19.7-15.1,119.7-15.1,135.8s2,24.5,26.3,25s88.1-13,88.1-13"/>
<path fill="none" stroke="#000000" stroke-width="5" stroke-linecap="round" stroke-linejoin="round" stroke-miterlimit="10" d="
	M341,292.8c1.6-0.2,3.4,4.3,0.8,5.2s-2.7-4.5-1.4-4.5s0.6,2.9,0.6,2.9"/>
<path fill="none" stroke="#000000" stroke-width="4" stroke-linecap="round" stroke-linejoin="round" stroke-miterlimit="10" d="
	M343.9,259.1c0,0,12.1,7.9,14,25.2c1.9,17.2-0.3,22-7.8,25s-16.5,4.9-19.1,0s-6.3-25.2-6-28.9"/>
<path fill="none" stroke="#000000" stroke-width="5" stroke-linecap="round" stroke-linejoin="round" stroke-miterlimit="10" d="
	M389,275.6c1.6-0.2,3.4,4.3,0.8,5.2c-2.7,0.9-2.7-4.5-1.4-4.5s0.6,2.9,0.6,2.9"/>
<path fill="none" stroke="#000000" stroke-width="4" stroke-linecap="round" stroke-linejoin="round" stroke-miterlimit="10" d="
	M379.4,239.2c12.3-4.6,23.9,5.7,31.4,26.8s-22,30.8-28,23.4C376.9,282,363.3,245.9,379.4,239.2z"/>
<line fill="none" stroke="#000000" stroke-width="3" stroke-linecap="round" stroke-linejoin="round" stroke-miterlimit="10" x1="370" y1="238.1" x2="373.7" y2="242"/>
<line fill="none" stroke="#000000" stroke-width="3" stroke-linecap="round" stroke-linejoin="round" stroke-miterlimit="10" x1="377.2" y1="231.6" x2="378.3" y2="238.1"/>
<line fill="none" stroke="#000000" stroke-width="3" stroke-linecap="round" stroke-linejoin="round" stroke-miterlimit="10" x1="383.4" y1="230.2" x2="384.7" y2="237.8"/>
<path fill="none" stroke="#000000" stroke-width="5" stroke-linecap="round" stroke-linejoin="round" stroke-miterlimit="10" d="
	M321.2,245.4c0,0,1.3-3.6,5.9-3"/>
<path fill="none" stroke="#000000" stroke-width="5" stroke-linecap="round" stroke-linejoin="round" stroke-miterlimit="10" d="
	M382.3,222.8c0,0,4.1-1.9,7.5-0.9"/>
<path fill="none" stroke="#000000" stroke-width="5" stroke-linecap="round" stroke-linejoin="round" stroke-miterlimit="10" d="
	M367.1,331.2c0,0,5.7,4.5,14.2,1.1s9.8-11.7,9.8-11.7"/>
<path fill="none" stroke="#000000" stroke-width="4" stroke-linecap="round" stroke-linejoin="round" stroke-miterlimit="10" d="
	M357,353.3c0,0,14.8,8.1,28.7,1.6s21.5-20.1,21.5-20.1"/>
<path fill="none" stroke="#000000" stroke-width="4" stroke-linecap="round" stroke-linejoin="round" stroke-miterlimit="10" d="
	M362.2,356.2c0,0,7.1,10.8,13.1,12s19,0.3,23.9-7.8c5-8,2.8-18.6,2.8-18.6"/>
<path fill="none" stroke="#000000" stroke-width="5" stroke-linecap="round" stroke-linejoin="round" stroke-miterlimit="10" d="
	M307.3,338.9c0,0-0.6-24.5,11.4-48.1s28.9-37.1,36.9-44.6s19.5-21.7,19.7-35.8"/>
<path fill="none" stroke="#000000" stroke-width="5" stroke-linecap="round" stroke-linejoin="round" stroke-miterlimit="10" d="
	M375.2,216.1c0,0,20.2,11.5,33.2,38.6s14.8,83.2,12.3,97.3c-2.6,14-9.2,23.5-12.5,29.5s0.1,11.4,3.9,11"/>
<path fill="none" stroke="#000000" stroke-width="5" stroke-linecap="round" stroke-linejoin="round" stroke-miterlimit="10" d="
	M317,296.7c0,0,8.4,36.6,25.5,62.7s33.7,27.3,37.8,31.9c4.1,4.7,4.1,4.7,4.1,4.7"/>
<path fill="none" stroke="#000000" stroke-width="5" stroke-linecap="round" stroke-linejoin="round" stroke-miterlimit="10" d="
	M339.6,399.7c0,0-46.9-19.9-51.5-83s22.7-107,51.3-115.1c28.6-8.2,20.3-0.3,34.3-0.8s48.2,16.1,64,78.6s-9.4,109-9.4,109"/>
<path fill="none" stroke="#000000" stroke-width="5" stroke-linecap="round" stroke-linejoin="round" stroke-miterlimit="10" d="
	M382.1,397.1c0,0-1.5,12.5,0,15.1s16.1,1.5,23.4-1.2c7.3-2.8,8-5.3,8-8.8s0-10.8,0-10.8s6.6-1.4,21.7,0.1"/>
<path fill="none" stroke="#000000" stroke-width="5" stroke-linecap="round" stroke-linejoin="round" stroke-miterlimit="10" d="
	M381.4,397.9c0,0-13.5,2.2-36,2.9c-22.5,0.7-40.2-2.9-40.2-2.9s-3.1,4-2.8,21.2s2.3,23.8,2.3,23.8s10.6-2.9,31.8-6.6
	s35.8-3.2,35.8-3.2"/>
<path fill="none" stroke="#000000" stroke-width="5" stroke-linecap="round" stroke-linejoin="round" stroke-miterlimit="10" d="
	M375.8,426.5c0,0-3.7,17.1-4.3,26.8c-0.6,9.7,1.8,15.3,9.9,17.8s18.9,3.4,18.9,3.4"/>
<path fill="none" stroke="#000000" stroke-width="5" stroke-linecap="round" stroke-linejoin="round" stroke-miterlimit="10" d="
	M389,473.8c0,0,22.9,51.8,29.6,62.4"/>
<path fill="none" stroke="#000000" stroke-width="5" stroke-linecap="round" stroke-linejoin="round" stroke-miterlimit="10" d="
	M303.6,399.7c0,0-74.2-62.2-75.3-68.2c-1-6-4.3-29.5-6.9-34c-2.6-4.5-13-13.3-13-13.3"/>
<path fill="none" stroke="#000000" stroke-width="5" stroke-linecap="round" stroke-linejoin="round" stroke-miterlimit="10" d="
	M214.7,307.1c0,0-18.6-18-29.4-14.8s-5.3,17,1.6,22.4s23.4,8.9,23.4,8.9"/>
<path fill="none" stroke="#000000" stroke-width="5" stroke-linecap="round" stroke-linejoin="round" stroke-miterlimit="10" d="
	M208.1,337.8c0,0,7.2,3.5,24.5,23.1c17.3,19.5,49.8,66.4,68.9,67.5"/>
<path fill="none" stroke="#000000" stroke-width="3" stroke-linecap="round" stroke-linejoin="round" stroke-miterlimit="10" d="
	M384.8,395.3c0.2,0.4,4.2,9.7,4.4,25.8c0.2,16.1,2.4,26.2,11.1,27.8c8.7,1.5,9.7-13.8,8-26.9s-1.9-31.5-1.1-32.2"/>
<polyline fill="none" stroke="#000000" stroke-width="5" stroke-linecap="round" stroke-linejoin="round" stroke-miterlimit="10" points="
	206.4,298.9 207,248.4 57.3,244.2 57.3,417.7 205.1,420.6 207,323.6 "/>
<line fill="none" stroke="#000000" stroke-width="6" stroke-linecap="round" stroke-linejoin="round" stroke-miterlimit="10" x1="194.7" y1="579.1" x2="417.6" y2="543.4"/>
<path fill="none" stroke="#000000" stroke-width="6" stroke-linecap="round" stroke-linejoin="round" stroke-miterlimit="10" d="
	M644.8,528.5c0.5,0,1.4-1.4,24.1,5c22.7,6.4,270.8,73.8,270.8,73.8"/>
<path fill="none" stroke="#000000" stroke-width="5" stroke-linecap="round" stroke-linejoin="round" stroke-miterlimit="10" d="
	M844.3,173.7c1.2,0,2.4,7.3,0.9,7.9c-1.5,0.6-1.9-7.3-1.6-7.3s1.1,5,1.1,5"/>
<path fill="none" stroke="#000000" stroke-width="5" stroke-linecap="round" stroke-linejoin="round" stroke-miterlimit="10" d="
	M863.4,179.9c1.2,0,2.4,7.3,0.9,7.9c-1.5,0.6-1.9-7.3-1.6-7.3s1.1,5,1.1,5"/>
<path fill="none" stroke="#000000" stroke-width="5" stroke-linecap="round" stroke-linejoin="round" stroke-miterlimit="10" d="
	M848,148.3c0.7-0.2,2.6-1.3,4.5-0.2"/>
<path fill="none" stroke="#000000" stroke-width="5" stroke-linecap="round" stroke-linejoin="round" stroke-miterlimit="10" d="
	M868.6,151.5c0,0,2.8-1.1,5.6,3.4"/>
<path fill="none" stroke="#000000" stroke-width="5" stroke-linecap="round" stroke-linejoin="round" stroke-miterlimit="10" d="
	M842.5,193.6c0,0-25,11.6-28.2,15s-14.6,22.1,2.9,37.7s42.6-3.8,44.2-20.7"/>
<path fill="none" stroke="#000000" stroke-width="4" stroke-linecap="round" stroke-linejoin="round" stroke-miterlimit="10" d="
	M827.9,264.4c0,0,7.1,11.5,28.6,12c21.4,0.5,28.5-17.1,28.5-17.1"/>
<path fill="none" stroke="#000000" stroke-width="5" stroke-linecap="round" stroke-linejoin="round" stroke-miterlimit="10" d="
	M817.4,205.3c0,0-0.8-20.8,10.1-44.9s21.1-33.3,21.1-33.3"/>
<path fill="none" stroke="#000000" stroke-width="5" stroke-linecap="round" stroke-linejoin="round" stroke-miterlimit="10" d="
	M840.8,127.6c0,0,15.7-7.3,39.8-0.6c24.1,6.6,33.4,22.7,33.4,22.7s-2.6,26.3-2.6,43.9c-0.4,12.1-1.9,14-3.3,17.9
	c-1.4,3.8-11.4,19.8-11.4,19.8s-12.5,2-24.9,4.7s-16.2,2.9-16.2,2.9"/>
<path fill="none" stroke="#000000" stroke-width="5" stroke-linecap="round" stroke-linejoin="round" stroke-miterlimit="10" d="
	M811,241.6c0,0-7,12.1-7.3,22.9c-0.3,10.7,3.2,12.1,5,10.6s3.6-4.6,3.6-4.6s0.5,29.4,7.4,33.8c6.9,4.5,6.9-11.6,6.9-11.6
	s9.2,25,18.3,27.3s7.3-10.9,7.3-10.9s8.6,11.8,16.2,9.8c7.7-1.9,6.9-17,6.9-17s2.3,9.3,8.6,9.3s8.3-9.8,8.9-17.1
	c8.7,3.8,16.2-6.9,19.4-20.8s5.9-16.9,5.9-16.9"/>
<path fill="none" stroke="#000000" stroke-width="5" stroke-linecap="round" stroke-linejoin="round" stroke-miterlimit="10" d="
	M908.9,235.4c0-0.8,2.8-20,9.1-24.1s21.6-1.9,22.7,16.6s-11.7,27.3-22.7,28c-11,0.7-11.1-8.2-11.1-8.2L908.9,235.4z"/>
<path fill="none" stroke="#000000" stroke-width="4" stroke-linecap="round" stroke-linejoin="round" stroke-miterlimit="10" d="
	M908.6,237.4c0.1-0.4,6.8-9.1,13.6-7.4"/>
<path fill="none" stroke="#000000" stroke-width="5" stroke-linecap="round" stroke-linejoin="round" stroke-miterlimit="10" d="
	M929.6,208.7c0,0,12.5-29.6,14.4-44.4s0.5-28.7-2.6-27.1c-3.1,1.7-7.4,7.5-7.4,7.5s-1.9-23.6-6.5-28.3s-7.3,8.2-7.3,7.8
	s-9.8-26.8-14.9-27.7c-5.1-0.9-3.6,13.7-3.6,13.7s-14.6-21.7-19-21.8c-4.5-0.1-1.1,15.3-1.1,15.3s-16.3-12.3-23-11.9
	c-6.6,0.4-5.2,8.4-1.4,13.1c-0.8,1.8-13.1-5.6-19.3-4.7c-6.1,0.9-4,4.6-1,11.2c-3.1,0.8-13.7-1.5-15.2,2.8s6.8,8.4,6.8,8.4
	s-11.8,2.2-11.1,6.8c0.7,4.6,11.5,6.8,11.5,6.8s-5.9,4.6-5.6,9.8c0.3,5.2,4.2,10.5,4.2,10.5"/>
<path fill="none" stroke="#000000" stroke-width="5" stroke-linecap="round" stroke-linejoin="round" stroke-miterlimit="10" d="
	M838.3,317.2c0,0,0,15.3,5.5,19.6c5.5,4.3,23.2-4,33.2-14.4"/>
<path fill="none" stroke="#000000" stroke-width="5" stroke-linecap="round" stroke-linejoin="round" stroke-miterlimit="10" d="
	M874.8,312.3c0,0,0.6,6.1,8.9,12.7s25.4,15.8,31.2,30.6s14.6,67.8,13.4,74.7c-2.5,2.7-30.8-7.1-40.6-20.5
	c-2.3-23.4,0.2-41.6,0.2-41.6"/>
<path fill="none" stroke="#000000" stroke-width="5" stroke-linecap="round" stroke-linejoin="round" stroke-miterlimit="10" d="
	M889.5,412.1c-1.8-2.2-30.9-26.9-30.9-26.9"/>
<path fill="none" stroke="#000000" stroke-width="5" stroke-linecap="round" stroke-linejoin="round" stroke-miterlimit="10" d="
	M924.3,431.9c-0.4,0.8-5.7,20.7-10.7,24.1s-13.4,3.6-24-5.7c-10.6-9.4-31.9-38.2-31.9-38.2"/>
<path fill="none" stroke="#000000" stroke-width="5" stroke-linecap="round" stroke-linejoin="round" stroke-miterlimit="10" d="
	M830.9,335.3c0,0-5-18.1-14.6-18.2s-13.7,11.4-13.8,26.9c-0.1,15.4,9.4,14.7,11.7,10.1s7.7-19.1,7.7-19.1"/>
<path fill="none" stroke="#000000" stroke-width="5" stroke-linecap="round" stroke-linejoin="round" stroke-miterlimit="10" d="
	M813.4,316.5c0,0-5.9-7.9-16-6.4s-7.9,26.6-7,32.6s10.1,12.5,13.3,10.1"/>
<path fill="none" stroke="#000000" stroke-width="5" stroke-linecap="round" stroke-linejoin="round" stroke-miterlimit="10" d="
	M793.7,309.9c0,0-6.1-7.8-12.8-3.8c-6.6,4.1-5.9,20.2-3.1,31c2.8,10.9,11.8,7.1,11.8,7.1"/>
<path fill="none" stroke="#000000" stroke-width="5" stroke-linecap="round" stroke-linejoin="round" stroke-miterlimit="10" d="
	M777.1,308.4c0,0-7-10.7-12.8-7c-5.7,3.7-6,24.6-1.8,33.3s10.9,6.1,13.3,1.9"/>
<path fill="none" stroke="#000000" stroke-width="5" stroke-linecap="round" stroke-linejoin="round" stroke-miterlimit="10" d="
	M760.9,304.1c0,0-8-7.4-12-1.4s-5,22.2,1.8,30.8s11.9,1.3,11.9,1.3"/>
<path fill="none" stroke="#000000" stroke-width="5" stroke-linecap="round" stroke-linejoin="round" stroke-miterlimit="10" d="
	M747.2,306.2c0,0-7.5-6.8-11.6,0.4s-0.4,37.3,14,28.4"/>
<path fill="none" stroke="#000000" stroke-width="5" stroke-linecap="round" stroke-linejoin="round" stroke-miterlimit="10" d="
	M828.5,324.1c0,0,5-5.3,9.8-5.1"/>
<path fill="none" stroke="#000000" stroke-width="5" stroke-linecap="round" stroke-linejoin="round" stroke-miterlimit="10" d="
	M822.6,336.6l38.8,6.7c0,0-8,128-10,166c-25.3-3.4-133.9-36-133.9-36c-1.3-43.5,2.9-157.8,5-158.7c4.6,0.6,10.5,1.3,10.5,1.3"/>
<path fill="none" stroke="#000000" stroke-width="5" stroke-linecap="round" stroke-linejoin="round" stroke-miterlimit="10" d="
	M905.9,459.4c0,0-0.3,15,1.9,33.3s3.9,30,3.4,32.5c-0.6,2.5-12.3,11.1-46.9,8.4c-34.7-2.7-56-20.3-56.5-23.1c-0.5-2.8,0-10.9,0-10.9
	"/>
<path fill="none" stroke="#000000" stroke-width="5" stroke-linecap="round" stroke-linejoin="round" stroke-miterlimit="10" d="
	M814,518.2c0,0,1.5,42.3,4.7,56"/>
<path fill="none" stroke="#000000" stroke-width="5" stroke-linecap="round" stroke-linejoin="round" stroke-miterlimit="10" d="
	M905.8,529.4c0,0,2.9,58.6,6.1,68.9"/>
<path fill="none" stroke="#000000" stroke-width="5" stroke-linecap="round" stroke-linejoin="round" stroke-miterlimit="10" d="
	M833.6,548.7c0,0,15.2,7.7,28.7,7.2"/>
<path fill="none" stroke="#000000" stroke-width="5" stroke-linecap="round" stroke-linejoin="round" stroke-miterlimit="10" d="
	M854.6,556.6c0,0-0.1,24.1,3,27.8"/>
<path fill="none" stroke="#000000" stroke-width="3" stroke-linecap="round" stroke-linejoin="round" stroke-miterlimit="10" d="
	M840.8,530.4c0,0-1.5,9.3,2.5,15.8s14.7,8.9,14.7,8.9l-0.4-21.5"/>
<path fill="none" stroke="#000000" stroke-width="5" stroke-linecap="round" stroke-linejoin="round" stroke-miterlimit="10" d="
	M603.3,135.1c1.5-0.2,2.4,4.6,0.5,4.9c-1.9,0.2-1.7-4.5-0.9-4.3s0.7,2.8,0.7,2.8"/>
<path fill="none" stroke="#000000" stroke-width="5" stroke-linecap="round" stroke-linejoin="round" stroke-miterlimit="10" d="
	M620.5,135.2c1.5-0.2,2.4,4.6,0.5,4.9c-1.9,0.2-1.7-4.5-0.9-4.3c0.9,0.2,0.7,2.8,0.7,2.8"/>
<path fill="none" stroke="#000000" stroke-width="5" stroke-linecap="round" stroke-linejoin="round" stroke-miterlimit="10" d="
	M608.2,149.7c0,0-13.8,0-19.3,5.8c-5.5,5.7-8.7,19.1,3,28.4s33.7-2.9,31-15.8"/>
<path fill="none" stroke="#000000" stroke-width="5" stroke-linecap="round" stroke-linejoin="round" stroke-miterlimit="10" d="
	M600,117c0,0,0.7-2.4,3.5-1.3"/>
<path fill="none" stroke="#000000" stroke-width="5" stroke-linecap="round" stroke-linejoin="round" stroke-miterlimit="10" d="
	M620,115.4c0,0,1.6-0.8,3.3,0.4"/>
<path fill="none" stroke="#000000" stroke-width="4" stroke-linecap="round" stroke-linejoin="round" stroke-miterlimit="10" d="
	M601.5,201.9c0.5,0.4,11.6,8.4,27.7,3.1c16.1-5.4,20-24.6,20.4-29.1"/>
<path fill="none" stroke="#000000" stroke-width="5" stroke-linecap="round" stroke-linejoin="round" stroke-miterlimit="10" d="
	M632.7,228.8c-0.8,0-33.3-2.6-46.7-30.5c-8.2-16.6-7-34.5-4.5-50.2c2.6-15.8,2.1-21.4,2.4-27.1s7.7-15,13.9-18.6
	c6.2-3.5,6.4-0.9,9-4.9s7.8-4,10.5-1.6s3.6,3.7,8.3,2.5s9.7,3.4,10.6,7.9c1,4.4-0.7,5.7,4.8,7.2s5.6,9,6.8,13.3
	c1.2,4.3,4.1,4.5,4.9,8c0.8,3.5-1.1,11.8,5.5,14.8c6-11.5,18.2-8,20.4,5.8c2.2,13.9-10.9,19.9-18.9,16.6"/>
<path fill="none" stroke="#000000" stroke-width="4" stroke-linecap="round" stroke-linejoin="round" stroke-miterlimit="10" d="
	M666.6,157c-0.3-0.4-3.3,2-4.2,4.9"/>
<path fill="none" stroke="#000000" stroke-width="5" stroke-linecap="round" stroke-linejoin="round" stroke-miterlimit="10" d="
	M663.3,173.9c0,0-0.4,20.1-5.3,32.9c-4.9,12.8-7.6,16.7-7.6,16.7s3.4,21.5-5.5,24.1c-8.8,2.6-14-0.6-17-18.1"/>
<path fill="none" stroke="#000000" stroke-width="5" stroke-linecap="round" stroke-linejoin="round" stroke-miterlimit="10" d="
	M580.7,153.3c-0.6-0.3-0.6-8.5-3.8-13.7c-3.3-5.3-3.1-10.5-0.9-14.6c2.2-4.1-0.6-7.6,0.9-13.1s4.5-5.6,8.9-10.4s3.6-2.4,5.6-8.3
	s8.4-7.5,14-8c5.6-0.6,10.4-5.5,16.2-5s7.7,4.6,10,4.6s13.8-0.9,18.4,2.1s1.1,10.1,5.3,11.3c4.2,1.2,16.1,3.3,16.1,9.9
	c-0.3,6.6,0.9,12,4.5,15.3s-1,16.9-3.2,19.2"/>
<path fill="none" stroke="#000000" stroke-width="5" stroke-linecap="round" stroke-linejoin="round" stroke-miterlimit="10" d="
	M578.9,164.7c0,0-7.9-5.3-10.6,4.2c-2.8,9.5,1.3,19.7,12.8,20.5"/>
<path fill="none" stroke="#000000" stroke-width="5" stroke-linecap="round" stroke-linejoin="round" stroke-miterlimit="10" d="
	M616.3,225.8l-56.5,20.4c0,0,5.6,6.1,8,18.8c2.5,12.6,0.9,20.6-3.9,20.7c-4.8,0.1-7.2-7-7.2-7"/>
<path fill="none" stroke="#000000" stroke-width="5" stroke-linecap="round" stroke-linejoin="round" stroke-miterlimit="10" d="
	M563.9,285.7c0,0,7.1-2.4,22-10.6s26.5-15.4,26.5-15.4s9.9,20.7,10.3,32.9"/>
<path fill="none" stroke="#000000" stroke-width="5" stroke-linecap="round" stroke-linejoin="round" stroke-miterlimit="10" d="
	M559.2,246.5c0,0-2.8,1.5-6.8-6.2s-17.5-45.4-17.5-45.4s10.7-11.2,13.5-17.2"/>
<path fill="none" stroke="#000000" stroke-width="5" stroke-linecap="round" stroke-linejoin="round" stroke-miterlimit="10" d="
	M532.7,183.5c0,0,10.7-22.6,6.8-30.2c-3.9-7.6-18.4-7.2-19.1,6.1c0.3,9.5,5.2,17.7,5.7,22.1"/>
<path fill="none" stroke="#000000" stroke-width="5" stroke-linecap="round" stroke-linejoin="round" stroke-miterlimit="10" d="
	M520.3,184.4c0,0,3.1,11,4.5,16c1.5,5,9.1,53.7,13.9,66.3c4.7,12.6,13.7,12.1,29.3,10.1"/>
<polyline fill="none" stroke="#000000" stroke-width="5" stroke-linecap="round" stroke-linejoin="round" stroke-miterlimit="10" points="
	535,180.5 560.3,172.9 525.6,36 403,69.2 437.6,207 524.9,181.6 "/>
<path fill="none" stroke="#000000" stroke-width="5" stroke-linecap="round" stroke-linejoin="round" stroke-miterlimit="10" d="
	M651,222.6c0,0,11.3-7.5,23.6-27.7s14.3-26.5,14.3-26.5"/>
<path fill="none" stroke="#000000" stroke-width="5" stroke-linecap="round" stroke-linejoin="round" stroke-miterlimit="10" d="
	M694.7,168c0,0-4-1.8-5.6,0.3c-1.5,2.2,0.9,20.8,14.4,27.1s19-5.1,18.5-9.3s-3.2-11.2-7.5-12.3"/>
<path fill="none" stroke="#000000" stroke-width="5" stroke-linecap="round" stroke-linejoin="round" stroke-miterlimit="10" d="
	M720.6,189.9c0,0-6.3,18-17.1,29.7c-10.9,11.7-18.9,22.6-18.9,22.6s24.5,51.1,27.4,62.8"/>
<path fill="none" stroke="#000000" stroke-width="5" stroke-linecap="round" stroke-linejoin="round" stroke-miterlimit="10" d="
	M691.8,178c0,0,4.6-9.6,9-27.2s-0.9-63.4-0.9-63.4"/>
<path fill="none" stroke="#000000" stroke-width="5" stroke-linecap="round" stroke-linejoin="round" stroke-miterlimit="10" d="
	M705.4,195.5c0.6-0.3,6.4-14,9-24.7s3.7-37,2.3-53.9s-5.6-49-10.6-56.8s-18.7-13.6-30.7-12.9c-12.1,0.7-20.5-0.3-31.1-1.5
	s-17.6-3.4-18.5,8.9s17.4,13.8,24.9,12.4c7.5-1.3,13.6-2.9,13.6-2.9s-1,19.4,3.4,23.4c4.4,3.9,15.7,0.5,22.2,0s14.4-0.8,14.4-0.8"/>
<path fill="none" stroke="#000000" stroke-width="5" stroke-linecap="round" stroke-linejoin="round" stroke-miterlimit="10" d="
	M724.3,306.9c0,0-125.7-16.2-139.7-16.9s-17.4,8.9-15.1,24.6c2.3,15.7,5.9,29.1,5.9,29.1"/>
<path fill="none" stroke="#000000" stroke-width="5" stroke-linecap="round" stroke-linejoin="round" stroke-miterlimit="10" d="
	M666.9,430.6c1.4,0.3,39.7,5.9,39.7,5.9"/>
<path fill="none" stroke="#000000" stroke-width="11" stroke-linecap="round" stroke-linejoin="round" stroke-miterlimit="10" stroke-opacity="0" d="
	M376.1,394l-33,0.9l-8.4-4.1l31.5-1l-10.9-5.1l-26.8,1.7l-6.9-4.5l29.6-2.4l-7.3-8.3c0,0-25,3.7-25.9,3.6c-1-1.5-4.9-4.8-4.9-4.8
	s27.2-4.7,27-4.7c-0.1,0-7-7.5-7-7.5l-23.2,7.3l-2.6-6l23.8-7.9l-1.9-6c0,0-25,10.8-25.1,10.7s-6.1-8.6-6.1-8.6s28.3-8,28.1-8.3
	s-4.5-8.3-4.5-8.3l-24.8,8.7l-1.9-9l25-7.5L319,316c0,0-26,6.6-26,6.3c0-0.2-0.4-6-0.4-6s21.3-7.2,21.4-7.4c0.1-0.2-1.1-7.4-1.1-7.4
	l-20.9,5.9l0.5-9.1c0,0,18.5-5.6,18.6-5.8c0-0.2,4.6-7.2,4.6-7.2l-22.5,4.8l-0.6-8.2l28.3-3l3.1-5.9c0,0-29.4,1.1-29.4,1
	s1.3-9.2,1.3-9.2s33.7,0.9,33.9,0.5c0.3-0.4,8.1-10,8.1-10l-38.6,0.9l6.3-10.7c0,0,38.7,4,38.8,3.9s11.2-8.6,11.2-8.6l-48.5-2.2
	l5.9-8.4c0,0,46.9,2.5,47,2.4s5.5-6.5,5.5-6.5l-49-2.4l12.8-9l36.4,5.3c0,0,3.4-4,3.2-4s-36.6-6.1-36.6-6.1l16.3-6.2l25.3,5
	c0,0,7.3-0.9,7.7-0.8S392,211,392,211s-12.6,3.2-12.2,3.3s10.9,7.4,10.9,7.4l9.1-4l5.5,6.8c0,0-9.8,2.9-9.3,3s7.2,6.7,7.2,6.7
	l6.6-3.8l5,5.1l-10.6,4.9l5.9,6.9l6.9-3.4l3.7,6.3l-10.2,4.7l5.2,8.1l9.5-6.1l2.4,9.3l-7,5.3l1.1,7.3l9.2-5l0.2,8.4l-8.2,5.2
	l0.4,7.3l10.4-6.7l1,9.7l-9,2.8l-0.4,7.5l11.1-2.8l0.4,6.2l-11.1,5.7l-0.3,10.3l14-7.5v6.8c0,0-11.4,8-11.5,8.1s-1.8,8.3-1.8,8.3
	l10.5-7.9l-1.9,12.5l-7.8,3.6l-2.1,8.5l8.1-4.6l-1.2,10l-9.1,2c0,0-4.5,7.5-4.3,7.4s11.9-2.5,11.9-2.5l-5.6,10.3l-10.1-1.4l-4.1,5.1
	c0,0,5.3-0.4,5.5-0.4s7.6,0.3,7.6,0.3"/>
<polyline fill="none" stroke="#000000" stroke-width="19" stroke-linecap="round" stroke-linejoin="round" stroke-miterlimit="10" stroke-opacity="0" points="
	383.9,222.5 319.3,295.3 318.6,310.8 390.5,234 400.3,243.9 329.6,322.5 333.8,341.9 380.3,281.3 393.6,283.1 341.8,355.2 
	345.7,364 408.3,281.3 415.3,288.1 357,370.6 367.1,379.4 415.3,309 415.3,325 379.1,383.1 387.1,389.8 419.4,340.5 416.3,362.3 
	389.6,406.8 404.2,400.4 405.5,391.9 "/>
<path fill="none" stroke="#000000" stroke-width="14" stroke-linecap="round" stroke-linejoin="round" stroke-miterlimit="10" stroke-opacity="0" d="
	M296.4,421.2c-0.8-1.9-2.6-11.1-2.6-11.1l1.3-8.6l-3-3.2c0,0-2.5,16.6-3.2,16.6c-0.6,0-6.5-6.9-6.5-6.9l5.1-12l-5.8-6.4l-2.9,12.6
	l-8.6-5.7l5.6-11.9l-7.3-4.1l-2.4,8.4l-6.4-10.5l4.3-5.6l-6.9-3.7l-2.4,8.9l-10.6-16.7h6.6l-11.4-8.9l-1.9,3.8l-5.9-9.8l-12.1-10.5
	l-9.3-4.9h9.7l-0.8-10.3h-11l8.9-4.9l-2.3-7.1l-16.2,6l-2.4-8l20.6-2.4l-4.9-8.6l-3-1.9c0,0-18.3,14.2-18.5,14s-3.4-9-3.4-9l6.5-0.5
	"/>
<path fill="none" stroke="#000000" stroke-width="19" stroke-linecap="round" stroke-linejoin="round" stroke-miterlimit="10" stroke-opacity="0" d="
	M420.8,522.7c0-1.1,0.9-8.9,0.9-8.9s-6.9-0.1-6.3-0.8c0.6-0.6,8.6-9.6,8.6-9.6s-12.4-3.1-11.6-3.6s8-8.9,8-8.9h-12.8l-6.6-11.5
	l19.5-3.8l5.2-12.9l-31.7,3.9l-10.2-4.8c0,0,44.4-9,44.4-10s0.4-13.2,0.4-13.2s-49,18.1-48.9,17.5s1.6-10.7,1.6-10.7l53.3-16.8
	l-5.9-10c0,0-47.1,13.7-46.7,12.6c0.4-1-0.7-7.3-0.7-7.3l48.1-13.8l1.8-10.2L403,403l-33.8,20.2l-37.3,5.4l-20.9,3.2l-0.8-10.5
	l70.5-7.8c0,0,3.7-5.9,2.2-5.9s-63.1,3.3-63.7,3.7s-12.2-2.8-12.2-2.8"/>
<path fill="none" stroke="#000000" stroke-width="11" stroke-linecap="round" stroke-linejoin="round" stroke-miterlimit="10" stroke-opacity="0" d="
	M579.6,135.9c0.1-1,0.6-8.7,0.6-8.7l-0.3-9.9l4.9-10.5L595,96.6l8.6-4.4c0,0,6.2-4.5,6.5-4.5s6.3,0,6.3,0l1.6-3.8c0,0,2.4,6,2.7,6
	s4.4,3.1,4.4,2.7s-1-6.5-1-6.5l5.1-0.2l2,9.5l4.8,2.5l0.9-9.9l3.4-0.2c0,0,1.7,16.8,1.7,17.4s4.1,6.4,4.1,6.4l3.2-22l5.8,4.5
	l-4.6,26.4l3.1,6.9l8.4-22.9l3.4,2.2l-8,33.2l0.3,2.6l5.8-3.8l6.7-22.1l2.3,4.8l-3.8,15.5"/>
<path fill="none" stroke="#000000" stroke-width="17" stroke-linecap="round" stroke-linejoin="round" stroke-miterlimit="10" stroke-opacity="0" d="
	M618.1,96.6L586,125.2l1.2,9.9c0,0,40.5-32.1,42-32.6s15.6,7.4,15.6,7.4L588.4,146l-0.4,10.5l61.6-37.5l7.3,11.5l-76.8,42.6l-3-0.5
	l1,6.8l77-36.4l9.8,7.9l-74,36.3l4.4,4.9l73.2-38.8l1.3,8.2l-11.5,6.5l-64.9,30.5l7.5,6.6l55.3-25.9l-3.3,10.6L607,212.1l14.1,6.7
	l31.8-20.7l-6.8,17.2l-14.1,7.2c0,0,3.8,2.4,3.8,2.8c0,0.4,2.7,11,2.7,11l3.1,2.3l2.1-12.1"/>
<polyline fill="none" stroke="#000000" stroke-width="17" stroke-linecap="round" stroke-linejoin="round" stroke-miterlimit="10" stroke-opacity="0" points="
	561.8,270.5 555.6,271 545,265 558.4,262.3 555.8,255.8 543.4,256.7 548.5,251.3 543.4,247.3 541.3,238.7 536.5,218.6 533.8,209.9 
	"/>
<path fill="none" stroke="#000000" stroke-width="14" stroke-linecap="round" stroke-linejoin="round" stroke-miterlimit="10" stroke-opacity="0" d="
	M532.5,203.5c-0.1-0.4-6.4-16.8-6.4-16.8l6.4,0.3l7.9-7.3c0,0-12.5,1.9-11.9,1.3c0.6-0.5,14.7-12.9,14.7-12.9s-17.6,8.9-16.3,7.2
	s14.4-15.2,14.4-15.2s-17,9.6-16.1,8.8c0.8-0.8,9-11.6,9-11.6s-6.4,1.7-6.3,1.5c0.1-0.2,3.5-6.4,3.5-6.4"/>
<path fill="none" stroke="#000000" stroke-width="17" stroke-linecap="round" stroke-linejoin="round" stroke-miterlimit="10" stroke-opacity="0" d="
	M701.5,186.7l1.1-7.8l-2.5,1c0,0,4.9-10.7,5.4-11.5s4.3-19.2,4.3-19.2l0.9-32.2l-6.4-42.9L693.1,83c0,0-11.4,1.9-11,1.8
	s22.8-22.1,22.8-22.1l-13-5.7c0,0-22.5,25.6-23.2,25.4c-0.7-0.2-2-9.6-2-9.6L681.9,54l-13.2-2.6l-16.1,12.5l-9.9-0.1l6.9-11.6
	L632,58.7l0.8-9.7l-6.1,0.7"/>
<path fill="none" stroke="#000000" stroke-width="17" stroke-linecap="round" stroke-linejoin="round" stroke-miterlimit="10" stroke-opacity="0" d="
	M697.8,176.3l-14.4,24.9l-21,22.9l-11.4,8.8l-26.4,3.8l-8.9-1l-48.3,18.9l-1.4,11.6l44.6-22.1l-44.6,32l55-32l24.5-7.1l-25.9,20.3
	l3.9,10.3l85.1-86.6l4,3.6l-5.4,15.9l-36.8,43l-42.7,36.6l3,8.9l46.2-39.4l6,10.1L644.7,289l14.8,2.6l26-24.8l5.7,9.3l-19.1,16.4
	c0,0,12.8,2.3,13.1,2.3s10-9.2,10-9.2l0.3,5.1c0,0-3.2,3.3-2.7,3.3s4.1-0.6,4.1-0.6l3.4,2.7l2,1.3"/>
<path fill="none" stroke="#000000" stroke-width="11" stroke-linecap="round" stroke-linejoin="round" stroke-miterlimit="10" stroke-opacity="0" d="
	M827.9,149c0.6-1.2,8.1-14.3,8.1-14.3l8.7-11l-15.6,6.9l-14.7-5.5l24-5.9c0,0-15.1-2.5-14.2-3.3s6.1-5.6,6.1-5.6l20.7,8l7-0.4
	l-22-16.8l14.3-0.3c0,0,12.6,17.1,13.5,17.1c1,0,7.6,2.4,7.6,2.4l-14-25.7l7.6-0.4c0,0,12.9,25.9,13.3,25.9s11.2,5.1,11.2,5.1
	l-13.9-22.9l6.7-8.2l13.5,33.6l10.3,6L892,98.6l10.6,2.9l10,36.3l4.3,7.4l-5.4-39.9l12.1,10.1l-4,39.1l0.6,7.5l8.4-36.3l5.8,6.8
	l-14.8,33.8L919,176l22.8-33.5l0.5,11.3l-24,27.9c0,0-0.4,10.3-0.4,9.9s21.4-26.7,21.4-26.7l-3.7,14l-19.1,20.6l14.8-12l-6.3,15.2
	l-8.9,3.5l-5.2,7l-7.8,17.4l-2.9,6.3l-41.8,7l-7.3,7.5c0,0-15.3,6.5-16.1,6.9s-7.1,1.1-7.1,1.1l-15.4-8l-1.5-3.1l-1.4,9.1l18.3,5.2
	l53-18.6l19.8-5l1.7,0.6l-1.1,5l-90.6,17.9l-1.1,5.4h6.7l83.8-18.7l4.1,4.4l-87.1,22.5v5.7l92-21.8v4.5l-89.6,23.7l0.4,9.6l4.5-6.1
	l82.2-20.5l-1.1,6l-72,18.5l3.5,6.6l67-19.5l-5.4,6.3l-9.8,2l-48.5,14.4l3.9,7.9h2.2c0,0-0.3-4.7,0.4-5.3c0.8-0.6,8.6-3.8,8.6-3.8
	s3.1,4.4,3.6,4.7s5.6,4.1,5.9,4.3c0.3,0.3,2.5,1,2.5,0.6s-4.4-8.6-4.4-8.6l4.3-5c0,0,2.2,7.1,2.5,6.7s3.6-6.9,3.6-6.9l5.5-1.5
	c0,0,1.1,5.7,1.5,5.8c0.3,0.1,4.3,1.8,4.3,1.3s1.9-7.8,1.9-7.8l1.7-2.4l-6.7,0.5"/>
<path fill="none" stroke="#000000" stroke-width="18" stroke-linecap="round" stroke-linejoin="round" stroke-miterlimit="10" stroke-opacity="0" d="
	M871.4,124.2L848.6,136l-6.3,11.6l41.6-13.9l10.5,1.6c0,0-56.3,22.5-56.9,24s-5.6,14.3-5.6,14.3l76.1-31.2l7.3,8.9l-87.5,33.5
	c0,0-2.5,12.7-2,12.4s81-33.6,81-33.6l1.7,11.1l-88.6,39.6l-1.8,8.5l86.4-36.1l4.5,6.9L816.7,231l7.8,11.7l87.9-35.6l-12.2,18.5
	L840.1,248l82.1-31.1l8.8,5c0,0-16.4,10.3-17,11.8c-0.6,1.4-4.6,16.1-4.6,16.1L934,229l-7.5,15l-12.6,8.2"/>
<polyline fill="none" stroke="#000000" stroke-width="18" stroke-linecap="round" stroke-linejoin="round" stroke-miterlimit="10" stroke-opacity="0" points="
	868,319.6 859.3,325.5 850.3,329.5 848.1,321.9 855,317.9 "/>
<polyline fill="none" stroke="#000000" stroke-width="18" stroke-linecap="round" stroke-linejoin="round" stroke-miterlimit="10" stroke-opacity="0" points="
	914.2,437.6 908.7,450.8 898.5,447.3 908,433.8 898.5,429.2 889.9,439 884.3,430.7 891.4,424.8 882.3,415.2 878,423.1 871.1,412 
	874.1,408.5 866.3,400.1 864.5,406.1 856.1,393.7 "/>
<path fill="none" stroke="#000000" stroke-width="18" stroke-linecap="round" stroke-linejoin="round" stroke-miterlimit="10" stroke-opacity="0" d="
	M822.8,332.8l-12.9,14.8c0,0-11.8-6-10.8-6.5s18.4-15.6,18.4-15.6l-6.6-1.8L791.4,338l-15.6-2.9l26.7-16.1h-11.1l-4-4.4l-9.1,10.3
	l-9.7,8.2l-8.4-1.5l8.4-13.7l-1.4-7.1l-13.1-0.8c0,0-2.5,12.7-2.5,13.1s-3.9,7-4.2,7s-4,0.1-4,0.1l-1.7-13.1l1.1-3.1"/>
<path fill="none" stroke="#000000" stroke-width="26" stroke-linecap="round" stroke-linejoin="round" stroke-miterlimit="10" stroke-opacity="0" d="
	M848.1,327.6l-12.8,10.1c0,0,4.9,13.6,6.4,12.8c1.6-0.8,32.3-17.8,32.3-17.8l10.9,11l-33.5,24.5c0,0,7.1,20.5,7.1,20.2
	s36.4-39.9,36.4-39.9l8.8,9.4c0,0-25.9,28.7-25.9,30.4s3.4,16.3,3.4,16.3l27.4-30.1l1.7,15.9L855.9,428l-2.1,14.5l58.6-36.5l3.3,17
	l-57.5,39.8l-3.8,15.9l36.4-21.6l2.4,19.1l-71.3,29l11.5,8.2l60.4-27.7v13.2l-48.6,18.2l25.1,3.3l22.2-2.2l6.5-0.9l-1.3-10"/>
<path fill="none" stroke="#000000" stroke-width="26" stroke-linecap="round" stroke-linejoin="round" stroke-miterlimit="10" stroke-opacity="0" d="
	M836.8,514.7c-3.1,2-10,10.7-10,10.7l1.6,17.3l31.4-18.3l20.4,3.9l-51.1,28.2l-1.3,13.9c0,0,77.9-42.3,77.9-41.1s0.9,16.8,0.9,16.8
	l-61.3,38.2l14.3,6.7l46.9-28.6l2.1,9.4c0,0-22,14.8-20.5,15.6s20.3,10.8,20.3,10.8"/>
<path fill="#FACFBD" d="M921.4,432.5c0,0.1-0.1,0.2-0.1,0.4c-4.8,15.4-7.6,20-9.2,21.1c-1.8,1.2-3.9,1.8-6.1,1.7
	c-4.4-0.1-9.5-2.6-14.8-7.3c-9.9-8.7-29.6-35.2-31.4-37.6c0.4-7,0.8-13.8,1.2-20.3c10.6,9,24.3,20.8,26.4,23
	c0.1,0.1,0.1,0.2,0.2,0.2c0.1,0.1,0.1,0.1,0.2,0.2C896.3,423.2,912.3,430.2,921.4,432.5z"/>
<path fill="#FACFBD" d="M747.5,333.3c-3.1,1.6-4.8,0.6-5.9-0.6c-5.4-5.2-6.1-20.9-3.8-24.9c1-1.8,2-1.9,2.3-2
	c1.4-0.2,3.1,0.6,4.2,1.4C742.4,314.8,742.8,325.9,747.5,333.3z"/>
<path fill="#FACFBD" d="M759.6,334.2c-0.6,0.5-1.3,0.9-2.2,0.9c-1.8,0.1-3.6-1.7-4.8-3.2c-5-6.3-5.3-17.8-3.2-24.5l0,0
	c0.1-0.2,0.1-0.3,0.2-0.5c0.4-1.1,0.8-2,1.3-2.8c0.6-1,1.2-1.1,1.7-1.2c1.9-0.2,4.6,1.5,6.2,2.8
	C756.2,313.8,756.8,326.8,759.6,334.2z"/>
<path fill="#FACFBD" d="M775,309.8L775,309.8c-2.7,7-1.8,17.3-0.3,24.6c-0.4,0.2-0.8,0.6-1.1,1c-0.8,1.5-2.4,2.6-3.9,2.6h-0.1
	c-1.8,0-3.5-1.6-4.8-4.4l0,0c-3.6-7.6-3.2-23.1-0.4-28.5c0.4-0.8,0.8-1.3,1.3-1.6c0.4-0.2,0.8-0.4,1.3-0.4
	C769.9,303.1,773.9,308.2,775,309.8z"/>
<path fill="#FACFBD" d="M791.4,311.1c-6.1,8-4.1,26.9-3.5,31.1c-1,0.2-2.6,0.4-4.1-0.3c-1.6-0.8-2.8-2.6-3.5-5.3
	c-2.6-9.9-2.8-21.9,0.4-26.7c0.4-0.7,1-1.2,1.6-1.6C786.2,305.8,790.3,309.8,791.4,311.1z"/>
<path fill="#FACFBD" d="M809.9,316.3c-6.3,3.6-9.7,13.1-9.8,27.7c0,2.6,0.2,4.7,0.6,6.5c-0.4-0.1-0.9-0.4-1.5-0.7
	c-2.8-1.5-5.2-4.3-6-6.6c-0.1-0.3-0.2-0.6-0.2-1c-1.5-9.9-1.5-28.7,4.9-29.7C803.7,311.7,807.8,314.4,809.9,316.3z"/>
<path fill="#FACFBD" d="M828.2,335l-3.8-0.7c-0.2-0.8-0.8-1.5-1.6-1.8c-1.3-0.5-2.7,0.2-3.2,1.5c-0.1,0.1-5.3,14.5-7.6,18.9
	c-0.5,1-1.8,1.8-3.1,1.5c-0.9-0.2-1.9-1.1-2.7-2.7c-0.8-1.7-1.3-4.2-1.2-7.7c0.1-6.9,1.1-22.2,9.4-24.2c0.6-0.1,1.2-0.2,1.8-0.2
	c0,0,0,0,0.1,0C822.2,319.7,826.7,330.2,828.2,335z"/>
<path fill="#FACFBD" d="M875.7,320.3c-0.2,0.1-0.4,0.2-0.5,0.4c-9.8,10.1-26.2,17-29.9,14.1c-2.6-2.1-3.9-8.6-4.3-13.9
	c1.1,0.8,2.2,1.3,3.3,1.6c0.9,0.2,1.8,0.4,2.6,0.4c2.3,0,3.8-0.9,4.8-1.8c1.6-1.4,2.4-3.5,2.8-5.5c3.6,3.5,9,7.3,14.5,5.9
	c2.3-0.6,4-1.9,5.2-3.6C874.6,318.6,875.1,319.4,875.7,320.3z"/>
<path fill="#FACFBD" d="M938.2,228c1,16.4-9.9,24.7-20.4,25.4h-0.1c-2.8,0.2-5-0.4-6.4-1.6c-1.5-1.4-1.8-3.3-1.9-3.9l1.7-10.6
	c1.8-2.1,6.4-6.4,10.6-5.4c1.1,0.3,2.2-0.4,2.4-1.5c0.3-1.1-0.4-2.2-1.5-2.4c-3-0.7-6.2,0-9.5,2.2c-0.3,0.2-0.6,0.4-1,0.7
	c1.2-5.9,3.7-15.3,7.2-17.5c1.9-1.3,5.4-1.8,8.8-0.8c0.7,0.2,1.4,0.5,2.1,0.8C933.6,215,937.7,218.9,938.2,228z"/>
<path fill="#FACFBD" d="M911.5,150.4c-0.4,4.7-2.5,27.5-2.5,43.2c-0.3,9.9-1.4,12.6-2.5,15.4c-0.2,0.5-0.4,1.1-0.7,1.7
	c-0.9,2.5-6.6,12-10.5,18.4c-3.4,0.6-13.7,2.4-23.9,4.6c-4.8,1-8.2,1.7-10.7,2.1c1.7-3.2,2.8-6.5,3.1-9.8c0.1-1.4-0.9-2.6-2.3-2.7
	c-1.4-0.1-2.6,0.9-2.7,2.3c-0.4,4-2.2,8.1-5.1,11.9c-3.4,4.5-8.3,8.4-13.6,10.5c-4.5,1.8-13.3,3.7-21.3-3.4
	c-1.7-1.5-3.1-3.1-4.3-4.7c-2.7-3.7-4.1-7.7-4.3-12c-0.4-8.9,4.6-16,5.9-17.4c0.5-0.5,1.8-1.4,3.7-2.5c5.6-3.2,16.1-8.4,23.8-12
	c1.2-0.6,1.8-2.1,1.2-3.3s-2.1-1.8-3.3-1.2c-2.9,1.4-13.8,6.5-21.5,10.7c0.3-6.6,1.8-22.8,9.8-40.7c0.5-1.1,1-2.2,1.5-3.3
	c9.9-20.8,18.8-29.1,18.9-29.2c0.4-0.4,0.7-0.9,0.8-1.4c6.7-1.1,16.7-1.4,28.9,1.9C900,135,909.5,147.4,911.5,150.4z M875.5,157
	c1.2-0.7,1.5-2.3,0.8-3.4c-3.1-4.8-6.8-5-8.6-4.4l1.8,4.7c0,0-0.1,0-0.2,0.1c0.4-0.1,1.5,0.3,2.7,2.3c0.5,0.8,1.3,1.2,2.1,1.2
	C874.6,157.4,875.1,157.2,875.5,157z M865.1,190.1c2.8-1.1,2.5-5.2,2.1-7.6c-0.2-1.2-0.9-5.1-3.8-5.1c-0.7,0-1.4,0.3-1.9,0.8
	c-0.5,0.3-1,0.7-1.2,1.3c-0.6,1.3-0.2,7.9,1.6,9.8c0.6,0.6,1.4,1,2.2,1C864.4,190.3,864.8,190.2,865.1,190.1z M854.7,149.4
	c0.7-1.2,0.3-2.7-0.9-3.4c-2.7-1.6-5.3-0.5-6.3-0.2c-0.1,0-0.2,0.1-0.2,0.1c-1.3,0.4-2.1,1.8-1.7,3.1c0.3,1.1,1.3,1.8,2.4,1.8
	c0.2,0,0.5,0,0.7-0.1s0.4-0.1,0.7-0.2c0.9-0.4,1.4-0.5,1.9-0.2C852.4,150.9,854,150.5,854.7,149.4z M846.1,183.9
	c2.8-1.1,2.5-5.2,2.1-7.6c-0.2-1.2-0.9-5.1-3.8-5.1c-0.7,0-1.4,0.3-1.9,0.8c-0.5,0.3-1,0.7-1.2,1.3c-0.6,1.3-0.2,7.9,1.6,9.8
	c0.6,0.6,1.4,1,2.2,1C845.4,184.1,845.7,184,846.1,183.9z"/>
<path fill="#FACFBD" d="M300,419.1c0,2.4,0.1,4.6,0.2,6.7c-13.8-2.6-35.7-29.8-51.9-49.8c-5.1-6.3-9.9-12.2-13.9-16.7
	c-16.5-18.6-24.2-23.1-25.2-23.6l0.2-9.7c0.1,0,0.2,0.1,0.3,0.1c0.2,0,0.4,0.1,0.5,0.1c1.2,0,2.2-0.8,2.4-2c0.3-1.4-0.6-2.7-1.9-3
	c-0.2,0-16-3.5-22.3-8.4c-3.8-3-7.5-9.4-6.6-13.9c0.4-2.1,1.8-3.4,4.2-4.1c4.9-1.4,12.4,2.8,18.5,7.2c3.6,2.6,6.6,5.3,8.4,7
	c1,1,2.6,0.9,3.5-0.1c1-1,0.9-2.6-0.1-3.5c-0.7-0.7-3.6-3.5-7.6-6.5l0.1-10.8c3.5,3.1,8.8,8.1,10.3,10.8c1.9,3.3,4.7,21.1,5.9,28.7
	c0.3,1.9,0.5,3.4,0.7,4.4c0.3,1.6,0.8,4.6,38.8,37.8c16.6,14.5,33.3,28.5,36.7,31.3C300.6,404.5,299.8,410.1,300,419.1z"/>
<path fill="#FACFBD" d="M384.5,398.6c0.8,2.5,1.9,6.8,2.6,12.6c-1.3-0.1-2.3-0.2-2.9-0.4C383.7,409,383.9,403.5,384.5,398.6z"/>
<path fill="#FACFBD" d="M411,394.9v7.3c0,1.7,0,3-2.5,4.6c-0.2-5.1-0.3-9.7-0.3-12.8C409.2,394.5,410.1,394.8,411,394.9z"/>
<path fill="#FACFBD" d="M397,240.5c-1.4-1.1-2.9-2-4.4-2.7c-2.2-1-4.4-1.6-6.7-1.7l-1-6.3c-0.1-0.8-0.9-1.4-1.7-1.2
	c-0.8,0.1-1.4,0.9-1.2,1.7l1,5.9c-1.1,0.1-2.2,0.4-3.3,0.7l-0.9-5.7c-0.1-0.8-0.9-1.4-1.7-1.2c-0.8,0.1-1.4,0.9-1.2,1.7l1.1,6.5
	c-1,0.6-1.8,1.3-2.6,2.1l-3.2-3.2c-0.6-0.6-1.5-0.6-2.1,0c-0.1,0.1-0.1,0.2-0.2,0.2l-1.3-0.8c3.5-4.8,6.9-10.5,8.7-16.7
	c1,0.7,2.2,1.6,3.6,2.7c0,0.4,0,0.9,0.2,1.3c0.4,0.9,1.3,1.5,2.3,1.5c0.2,0,0.5,0,0.7-0.1C387.1,228.8,392.2,233.8,397,240.5z"/>
<path fill="#FACFBD" d="M413.3,277.8c6.3,28,6.7,63.5,4.9,73.7c-2.1,11.4-6.9,19.5-10.4,25.5c-0.7,1.2-1.3,2.2-1.8,3.2
	c-2,3.7-2.2,7.8-0.4,10.9c-0.4,3.6-0.2,10.5,0.2,17.1c-0.3,0.1-0.7,0.3-1.1,0.4c-4,1.5-10,2.4-14.5,2.5c-0.8-7.2-2.3-12.2-3.2-14.7
	c0.1-0.8,0-1.6-0.6-2.2l-4.1-4.7c-1.5-1.7-3.8-2.8-6.9-4.4c-7-3.4-18.8-9.2-30.7-27.3c-16.6-25.3-25-61.5-25.1-61.8
	c-0.1-0.2-0.1-0.5-0.3-0.7c0.5-1.2,1.1-2.3,1.7-3.5c0.9-1.7,1.8-3.4,2.7-5c1.1,7.8,3.7,19.6,5.7,23.3c1.4,2.7,4.3,4.1,8.3,4.1
	c3.5,0,8-1,13.2-3.1c8.8-3.5,10.9-9.8,9-27.1c-1.7-14.9-10.5-23.2-13.7-25.8c2.9-2.8,5.6-5.2,7.8-7.3c1.2-1.1,2.3-2.1,3.3-3
	c2.1-1.9,6.2-6.1,10.2-11.5l1.3,0.8c-0.4,0.6-0.3,1.4,0.2,1.9l3.5,3.6c-0.8,1.3-1.4,2.8-1.8,4.6c-3.6,14,5.8,37.2,10.7,43.3
	c1.8,2.2,4.9,3.2,8.4,3.2c4.2,0,9-1.4,12.9-3.6C408.2,287.1,411.8,282.8,413.3,277.8z M409,335.8c0.5-1,0.2-2.2-0.8-2.7
	s-2.2-0.2-2.7,0.8c0,0.1-1.7,3-4.9,6.8c-3.5,4.1-8.8,9.2-15.7,12.5c-12.7,6-26.7-1.5-26.9-1.6c-1-0.5-2.2-0.2-2.7,0.8
	s-0.2,2.2,0.8,2.7c0.2,0.1,1.8,1,4.3,1.9c0,0.1,0.1,0.3,0.2,0.4c0.8,1.2,7.7,11.6,14.4,12.8c1.4,0.3,3.2,0.4,5.2,0.4
	c6.9,0,16.4-2,20.8-9.1c4.5-7.2,3.7-16.1,3.2-19C407.2,338.8,408.8,336,409,335.8z M393.6,321c0.2-1.4-0.7-2.6-2-2.9
	c-1.4-0.2-2.7,0.7-2.9,2.1c0,0.1-1.2,6.9-8.3,9.8c-6.9,2.8-11.5-0.6-11.7-0.7c-1.1-0.8-2.6-0.6-3.5,0.4c-0.9,1.1-0.7,2.7,0.4,3.5
	c0.2,0.2,3.8,2.9,9.4,2.9c2.2,0,4.6-0.4,7.3-1.5C391.8,330.7,393.5,321.4,393.6,321z"/>
</svg>
