<?xml version="1.0" encoding="utf-8"?>
<!-- Generator: Adobe Illustrator 22.1.0, SVG Export Plug-In . SVG Version: 6.00 Build 0)  -->
<svg version="1.1"
	 id="layer_1" xmlns:cc="http://creativecommons.org/ns#" xmlns:dc="http://purl.org/dc/elements/1.1/" xmlns:rdf="http://www.w3.org/1999/02/22-rdf-syntax-ns#" xmlns:svg="http://www.w3.org/2000/svg"
	 xmlns="http://www.w3.org/2000/svg" xmlns:xlink="http://www.w3.org/1999/xlink" x="0px" y="0px" width="1000px" height="1000px"
	 viewBox="0 0 1000 1000" enable-background="new 0 0 1000 1000" xml:space="preserve">
<g id="vs-primary">
	<path id="path79" fill="#FF9D00" d="M499.6,281.7c120.5,0,218.5,97.7,218.5,218.5s-97.7,218.5-218.5,218.5s-218.5-97.9-218.5-218.5
		S378.8,281.7,499.6,281.7"/>
</g>
<g id="vs-secondary">
	<polygon id="polygon81" fill="#FFCE00" points="455,239.3 465.1,198.4 475.3,157.4 485.5,116.5 495.6,75.6 508.4,116.5 
		521.2,157.4 533.9,198.4 546.7,239.3 523.8,239.3 500.9,239.3 477.9,239.3 	"/>
	<polygon id="polygon83" fill="#FFCE00" points="598.4,251.8 629,222.8 659.5,193.9 690,164.9 720.6,135.9 709.3,177.2 698.1,218.6 
		686.8,259.9 675.6,301.2 656.3,288.9 637,276.5 617.7,264.1 	"/>
	<polygon id="polygon85" fill="#FFCE00" points="706.3,328.8 747.4,319.4 788.4,310 829.5,300.6 870.6,291.2 839.9,321 809.2,350.8 
		778.5,380.6 747.8,410.4 737.4,390 727,369.6 716.7,349.2 	"/>
	<polygon id="polygon87" fill="#FFCE00" points="762,447.5 802.8,458.1 843.5,468.8 884.3,479.4 925,490 884,502.3 843,514.5 
		801.9,526.8 760.9,539.1 761.2,516.2 761.5,493.3 761.7,470.4 	"/>
	<polygon id="polygon89" fill="#FFCE00" points="751.1,590.4 781.6,619.5 812.1,648.6 842.6,677.6 873.1,706.7 831.3,697.5 
		789.4,688.3 747.5,679.1 705.7,669.9 717,650 728.4,630.2 739.8,610.3 	"/>
	<polygon id="polygon91" fill="#FFCE00" points="675.1,701.7 686.3,742.3 697.4,783 708.5,823.7 719.7,864.3 688.6,834.8 
		657.5,805.3 626.3,775.8 595.2,746.3 615.2,735.2 635.2,724 655.1,712.8 	"/>
	<polygon id="polygon93" fill="#FFCE00" points="544.6,760.9 534.3,801.8 523.9,842.7 513.6,883.5 503.3,924.4 490.8,883.4 
		478.2,842.5 465.6,801.5 453.1,760.5 476,760.6 498.8,760.7 521.7,760.8 	"/>
	<polygon id="polygon95" fill="#FFCE00" points="400,751.1 370,780.7 340,810.3 310.1,839.9 280.1,869.5 290.5,828 300.9,786.5 
		311.3,744.9 321.7,703.4 341.3,715.3 360.9,727.3 380.4,739.2 	"/>
	<polygon id="polygon97" fill="#FFCE00" points="293.3,672.8 252.1,681.6 210.8,690.4 169.6,699.2 128.4,708 159.6,678.6 
		190.8,649.2 221.9,619.8 253.1,590.4 263.1,611 273.2,631.6 283.3,652.2 	"/>
	<polygon id="polygon99" fill="#FFCE00" points="238.2,540.2 197.4,529.6 156.6,519 115.8,508.3 75,497.7 116.1,485.4 157.1,473.1 
		198.2,460.8 239.3,448.5 239,471.4 238.8,494.4 238.5,517.3 	"/>
	<polygon id="polygon101" fill="#FFCE00" points="248.7,412.9 217.5,384.6 186.3,356.3 155,328 123.8,299.7 165.9,307.8 207.9,316 
		249.9,324.1 292,332.2 281.2,352.4 270.4,372.5 259.5,392.7 	"/>
	<polygon id="polygon103" fill="#FFCE00" points="323.4,295.8 313.1,254.9 302.9,214 292.6,173.2 282.4,132.3 312.9,162.4 
		343.4,192.5 373.9,222.6 404.4,252.7 384.1,263.5 363.9,274.3 343.6,285 	"/>
</g>
<g id="vs-shade" opacity="0.4">
	<path fill="#FFFFFF" d="M621,564c-2.6,0-5.2-0.3-7.9-0.9c-18.8-4.3-30.6-23.1-26.3-42c8.6-37.3-2.5-74.7-28.9-97.8
		c-33.5-29.2-86.3-30-125.6-1.9c-15.7,11.3-37.6,7.6-48.8-8.1c-11.3-15.7-7.6-37.6,8.1-48.8c31.8-22.7,70.5-34.7,108.9-33.6
		c38.7,1.1,75.4,15.2,103.5,39.7c22.7,19.8,39.4,45.9,48.3,75.6c8.8,29.1,9.7,60.4,2.8,90.6C651.4,553,637,564,621,564z"/>
	<polygon fill="#FFFFFF" points="710.6,145.4 645.1,281.7 675.6,301.2 	"/>
	<polygon fill="#FFFFFF" points="861,295.8 731.2,377.9 751,412.9 	"/>
	<polygon fill="#FFFFFF" points="761.5,489 912,489 765.8,448.5 	"/>
	<polygon fill="#FFFFFF" points="732.1,623.8 866,706.7 748.2,595.5 	"/>
	<polygon fill="#FFFFFF" points="629.1,727.4 718.1,858.5 595.2,746.3 	"/>
	<polygon fill="#FFFFFF" points="543.5,765.1 506,913.7 513,760.5 	"/>
	<polygon fill="#FFFFFF" points="356.6,724.7 321.7,703.4 291.2,858.5 	"/>
	<polygon fill="#FFFFFF" points="142,701.7 273.2,631.6 253.1,590.4 	"/>
	<polygon fill="#FFFFFF" points="94,494.4 238.7,500.2 238.2,540.2 	"/>
	<polygon fill="#FFFFFF" points="142,307 270.4,372.5 292,332.2 	"/>
	<polygon fill="#FFFFFF" points="291.2,145.4 363.9,274.3 323.9,291.2 	"/>
	<polygon fill="#FFFFFF" points="498.8,97 490,239.3 455,239.3 	"/>
</g>
<g id="vs-outline_1_">
	
		<path id="path79_1_" fill="none" stroke="#000000" stroke-width="20" stroke-linecap="round" stroke-linejoin="round" stroke-miterlimit="10" d="
		M499.6,281.7c120.5,0,218.5,97.7,218.5,218.5s-97.7,218.5-218.5,218.5s-218.5-97.9-218.5-218.5S378.8,281.7,499.6,281.7"/>
	
		<polygon id="polygon81_2_" fill="none" stroke="#000000" stroke-width="16" stroke-linecap="round" stroke-linejoin="round" stroke-miterlimit="10" points="
		455,239.3 460,218.9 465.1,198.4 470.2,177.9 475.3,157.4 480.4,136.9 485.5,116.5 490.5,96.1 495.6,75.6 502,96.1 508.4,116.5 
		514.8,136.9 521.2,157.4 527.6,177.9 533.9,198.4 540.3,218.9 546.7,239.3 535.3,239.3 523.8,239.3 512.3,239.3 500.9,239.3 
		489.4,239.3 477.9,239.3 466.5,239.3 	"/>
	
		<polygon id="polygon83_2_" fill="none" stroke="#000000" stroke-width="16" stroke-linecap="round" stroke-linejoin="round" stroke-miterlimit="10" points="
		598.4,251.8 613.7,237.3 629,222.8 644.3,208.4 659.5,193.9 674.8,179.4 690,164.9 705.3,150.4 720.6,135.9 714.9,156.5 
		709.3,177.2 703.7,197.9 698.1,218.6 692.4,239.3 686.8,259.9 681.2,280.5 675.6,301.2 665.9,295 656.3,288.9 646.7,282.7 
		637,276.5 627.3,270.3 617.7,264.1 608.1,258 	"/>
	
		<polygon id="polygon85_2_" fill="none" stroke="#000000" stroke-width="16" stroke-linecap="round" stroke-linejoin="round" stroke-miterlimit="10" points="
		706.3,328.8 726.8,324.1 747.4,319.4 767.9,314.7 788.4,310 809,305.3 829.5,300.6 850,295.9 870.6,291.2 855.3,306.1 839.9,321 
		824.6,335.9 809.2,350.8 793.8,365.7 778.5,380.6 763.2,395.5 747.8,410.4 742.6,400.2 737.4,390 732.2,379.8 727,369.6 
		721.8,359.4 716.7,349.2 711.5,339 	"/>
	
		<polygon id="polygon87_2_" fill="none" stroke="#000000" stroke-width="16" stroke-linecap="round" stroke-linejoin="round" stroke-miterlimit="10" points="
		762,447.5 782.4,452.8 802.8,458.1 823.2,463.5 843.5,468.8 863.9,474.1 884.3,479.4 904.7,484.7 925,490 904.5,496.1 884,502.3 
		863.5,508.4 843,514.5 822.5,520.7 801.9,526.8 781.4,532.9 760.9,539.1 761.1,527.7 761.2,516.2 761.3,504.8 761.5,493.3 
		761.6,481.8 761.7,470.4 761.8,459 	"/>
	
		<polygon id="polygon89_2_" fill="none" stroke="#000000" stroke-width="16" stroke-linecap="round" stroke-linejoin="round" stroke-miterlimit="10" points="
		751.1,590.4 766.3,605 781.6,619.5 796.8,634 812.1,648.6 827.3,663.1 842.6,677.6 857.8,692.2 873.1,706.7 852.2,702.1 
		831.3,697.5 810.3,692.9 789.4,688.3 768.5,683.7 747.5,679.1 726.6,674.5 705.7,669.9 711.3,660 717,650 722.7,640.1 728.4,630.2 
		734.1,620.3 739.8,610.3 745.4,600.3 	"/>
	
		<polygon id="polygon91_2_" fill="none" stroke="#000000" stroke-width="16" stroke-linecap="round" stroke-linejoin="round" stroke-miterlimit="10" points="
		675.1,701.7 680.7,722 686.3,742.3 691.8,762.7 697.4,783 703,803.3 708.5,823.7 714.1,844 719.7,864.3 704.2,849.5 688.6,834.8 
		673,820 657.5,805.3 641.9,790.5 626.3,775.8 610.8,761 595.2,746.3 605.2,740.8 615.2,735.2 625.2,729.6 635.2,724 645.2,718.4 
		655.1,712.8 665.1,707.3 	"/>
	
		<polygon id="polygon93_2_" fill="none" stroke="#000000" stroke-width="16" stroke-linecap="round" stroke-linejoin="round" stroke-miterlimit="10" points="
		544.6,760.9 539.4,781.3 534.3,801.8 529.1,822.3 523.9,842.7 518.8,863.1 513.6,883.5 508.4,904 503.3,924.4 497,903.9 
		490.8,883.4 484.5,863 478.2,842.5 471.9,822 465.6,801.5 459.4,781 453.1,760.5 464.5,760.5 476,760.6 487.4,760.7 498.8,760.7 
		510.3,760.8 521.7,760.8 533.2,760.8 	"/>
	
		<polygon id="polygon95_2_" fill="none" stroke="#000000" stroke-width="16" stroke-linecap="round" stroke-linejoin="round" stroke-miterlimit="10" points="
		400,751.1 385,765.9 370,780.7 355,795.5 340,810.3 325,825.1 310.1,839.9 295.1,854.7 280.1,869.5 285.3,848.8 290.5,828 
		295.7,807.3 300.9,786.5 306.1,765.7 311.3,744.9 316.5,724.2 321.7,703.4 331.5,709.3 341.3,715.3 351.1,721.3 360.9,727.3 
		370.6,733.3 380.4,739.2 390.2,745.2 	"/>
	
		<polygon id="polygon97_2_" fill="none" stroke="#000000" stroke-width="16" stroke-linecap="round" stroke-linejoin="round" stroke-miterlimit="10" points="
		293.3,672.8 272.7,677.2 252.1,681.6 231.5,686 210.8,690.4 190.2,694.8 169.6,699.2 149,703.6 128.4,708 144,693.3 159.6,678.6 
		175.2,663.9 190.8,649.2 206.4,634.5 221.9,619.8 237.5,605.1 253.1,590.4 258.1,600.7 263.1,611 268.2,621.3 273.2,631.6 
		278.3,641.9 283.3,652.2 288.3,662.5 	"/>
	
		<polygon id="polygon99_2_" fill="none" stroke="#000000" stroke-width="16" stroke-linecap="round" stroke-linejoin="round" stroke-miterlimit="10" points="
		238.2,540.2 217.8,534.9 197.4,529.6 177,524.3 156.6,519 136.2,513.7 115.8,508.3 95.4,503 75,497.7 95.6,491.5 116.1,485.4 
		136.6,479.3 157.1,473.1 177.6,467 198.2,460.8 218.8,454.6 239.3,448.5 239.1,460 239,471.4 238.9,482.9 238.8,494.4 238.6,505.8 
		238.5,517.3 238.4,528.8 	"/>
	
		<polygon id="polygon101_2_" fill="none" stroke="#000000" stroke-width="16" stroke-linecap="round" stroke-linejoin="round" stroke-miterlimit="10" points="
		248.7,412.9 233.1,398.8 217.5,384.6 201.9,370.5 186.3,356.3 170.6,342.1 155,328 139.4,313.9 123.8,299.7 144.9,303.8 
		165.9,307.8 186.9,311.9 207.9,316 228.9,320 249.9,324.1 271,328.2 292,332.2 286.6,342.3 281.2,352.4 275.8,362.5 270.4,372.5 
		265,382.6 259.5,392.7 254.1,402.8 	"/>
	
		<polygon id="polygon103_2_" fill="none" stroke="#000000" stroke-width="16" stroke-linecap="round" stroke-linejoin="round" stroke-miterlimit="10" points="
		323.4,295.8 318.3,275.3 313.1,254.9 308,234.4 302.9,214 297.8,193.6 292.6,173.2 287.5,152.8 282.4,132.3 297.6,147.4 
		312.9,162.4 328.1,177.4 343.4,192.5 358.6,207.6 373.9,222.6 389.1,237.6 404.4,252.7 394.3,258.1 384.1,263.5 374,268.9 
		363.9,274.3 353.8,279.6 343.6,285 333.5,290.4 	"/>
</g>
<g id="vs-reveal" opacity="0">
	<path fill="none" stroke="#FF0000" stroke-width="70" stroke-linecap="round" stroke-linejoin="round" stroke-miterlimit="10" d="
		M98.1,650.6c24-251.1,41.2-392,49.5-391.5c15.3,1-7.8,479.2,6,480c13.5,0.8,51.4-459.3,55.5-459c4,0.3-36.6,449.6-21,451.5
		c18.3,2.2,103.9-611.7,112.5-610.5c8.6,1.2-74.4,618.8-60,621c14,2.1,110.2-585.2,121.5-583.5c12.6,2-93.2,728.8-82.5,730.5
		c10.3,1.6,118.3-670.8,130.5-669c11.6,1.7-75.1,613.1-63,615c13.7,2.1,141.6-780,151.5-778.5c9.5,1.5-100.5,714.2-84,717
		c15.3,2.6,127.8-604.8,138-603c10.6,1.9-103.7,659.2-91.5,661.5c12.1,2.2,140.3-648,148.5-646.5c8.7,1.7-131.6,745.8-118.5,748.5
		c13.7,2.8,184.5-804.9,196.5-802.5c11,2.2-123,680.8-108,684c13.3,2.8,133.9-533.5,145.5-531c11.5,2.5-96.6,530.1-85.5,532.5
		c11.2,2.4,133.2-533,142.5-531c9.6,2.1-110.2,572.3-100.5,574.5c10,2.2,150-597.8,160.5-595.5c8.8,2-84.7,426.5-63,432
		c17.2,4.4,93.6-255.2,105-252c7.1,2-15,105.5-55.5,271.5"/>
</g>
</svg>
