<?xml version="1.0" encoding="utf-8"?>
<!-- Generator: Adobe Illustrator 22.1.0, SVG Export Plug-In . SVG Version: 6.00 Build 0)  -->
<svg version="1.1"
	 id="layer_1" xmlns:cc="http://creativecommons.org/ns#" xmlns:dc="http://purl.org/dc/elements/1.1/" xmlns:rdf="http://www.w3.org/1999/02/22-rdf-syntax-ns#" xmlns:svg="http://www.w3.org/2000/svg"
	 xmlns="http://www.w3.org/2000/svg" xmlns:xlink="http://www.w3.org/1999/xlink" x="0px" y="0px" width="1000px" height="1000px"
	 viewBox="0 0 1000 1000" enable-background="new 0 0 1000 1000" xml:space="preserve">
<g id="vs-highlight">
	
		<ellipse transform="matrix(0.3179 -0.9481 0.9481 0.3179 -389.705 1019.6956)" fill="#5DBFD9" cx="513.8" cy="780.7" rx="13.1" ry="7.5"/>
	<path fill="#5DBFD9" d="M867.2,501.3c-26.7-44.9-92.4-41.3-126.3-36.2c1.2-8.2,1.6-18.2,0.4-29.1c-4.1-36.9-25.8-66.5-63-85.8
		c-41.1-21.3-78.1-17.4-102.1-10.5c-8.5,2.5-16.1,5.6-22.3,8.5c-2.7-21-11.3-52.1-37.2-76.7c-26.4-25.4-65-38.2-113.9-38.2
		c-11.5,0-24,0.9-37.7,2.2c-54.2,6.1-94.3,36-118.9,88.8c-3.6,7.4-0.6,15.9,6.6,19.9s16.1,1.6,20.5-5.1c20.1-31.1,47.6-48.1,84-52.3
		c12.2-1.4,23.5-2,33.9-2c40.7,0,71.8,10,92.4,29.7c30.4,28.8,29.1,71,28.9,75.9c-0.4,6.7,3.1,13.4,9.1,16.6
		c0.2,0.2,0.4,0.2,0.6,0.2c6,3.1,13.5,2.2,18.8-1.6c0.2-0.2,0.2-0.2,0.4-0.4c0.9-0.6,13.1-9.8,32-15.4c18.3-5.3,46.9-8.4,78.8,8.2
		c28.5,14.7,43.8,35,46.7,62c2.1,19.2-3.3,35-3.7,36c0,0.2-0.2,0.4-0.2,0.6c-2.1,6-0.6,12.5,3.3,17.2c4.5,5.1,11.5,7.4,18.2,5.6
		c0,0,0,0,0.2,0c32.9-8,93.7-13.4,112.2,18.1c17.2,28.8,21.3,55.2,12.4,78.4c-2.9,7.2,0.2,15.4,7,19c2.3,1.2,5,1.8,7.4,1.8
		c4.7,0,9.5-2.2,12.6-6.3C887.7,604.5,902.8,560.9,867.2,501.3z"/>
	<path fill="#5DBFD9" d="M928.2,393.8c-23.9-47-75.4-49-100.5-48.2c1.6-5.9,2.8-13.1,2.8-21.1c0.2-27.2-13-50.7-38.4-68
		c-28.1-19.1-51.8-11.7-69.8-8.8c-6.4,1-12.8,7.7-17.7,9.4c-0.1-15.6-3.7-39-20.5-59.1c-17-20.8-44-33.5-79.7-37.8
		c-8.4-1-17.5-1.5-27.6-1.6c-40-0.3-71.8,18-94.3,54.3c-3.2,5.1-1.9,11.5,3.1,15c4.9,3.5,11.6,2.6,15.4-2
		c17.3-20.9,38.8-30.9,65.7-30.8c9,0,17.3,0.6,24.9,1.5c29.6,3.5,51.4,13.5,64.7,29.7c19.7,23.7,15.1,54.3,14.5,57.8
		c-0.9,4.9,1.1,10,5.2,12.8c0.1,0.2,0.3,0.2,0.5,0.2c4.1,2.8,9.6,2.8,13.8,0.5c0.2-0.1,0.2-0.1,0.4-0.3c0.7-0.4,10.4-6,24.7-8.4
		c13.8-2.3,34.9-2.1,56.7,12.8c19.5,13.2,28.9,29.3,28.7,49.2c-0.2,14.2-5.5,25.2-5.8,25.9c0,0.2-0.2,0.3-0.2,0.4
		c-2,4.2-1.6,9,0.9,12.8c2.9,4.1,7.8,6.4,12.8,5.6c0,0,0,0,0.2,0c24.7-3,69.4-1.6,80.2,22.9c10,22.5,10.7,42.1,2.2,58.2
		c-2.7,5-1.2,11.2,3.5,14.5c1.5,1.1,3.5,1.8,5.3,2c3.5,0.4,7.1-0.8,9.7-3.5C925.5,472.8,949,440.3,928.2,393.8z"/>
</g>
<g id="vs-outline">
	
		<path id="path11" fill="none" stroke="#000000" stroke-width="20" stroke-linecap="round" stroke-linejoin="round" stroke-miterlimit="10" d="
		M223.7,412.6c0,0,3.1-169.2,137.9-184.8C558.5,205.1,546.4,358,546.4,358s61.5-49.2,137.5-9.4c85.8,45,54.2,127.9,54.2,127.9
		s106.2-29,139.6,27.7c42.1,71.7,10,118.3-14.2,140.8c-13.5,12.5-31.5,17.3-49.8,17.3l-618.3-0.4c-18.5,0-112.1-10-102.1-130.6
		C101.8,428,223.7,412.6,223.7,412.6z"/>
	
		<path id="path13" fill="none" stroke="#000000" stroke-width="16" stroke-linecap="round" stroke-linejoin="round" stroke-miterlimit="10" d="
		M477.9,239.7c0,0,21-77.1,104.4-80.8c114.6-5,120.6,97.1,120.6,97.1s51.5-39.8,98.1,0.6c44.2,38.3,29.8,90.8,29.8,90.8
		s82.7-10.2,98.3,42.9c29,98.5-30.8,114.4-46.2,116.9"/>
	
		<path id="path15" fill="none" stroke="#000000" stroke-width="10" stroke-linecap="round" stroke-linejoin="round" stroke-miterlimit="10" d="
		M355,727.6c3.5,36.9,4.6,74,3.1,111"/>
	
		<path id="path17" fill="none" stroke="#000000" stroke-width="10" stroke-linecap="round" stroke-linejoin="round" stroke-miterlimit="10" d="
		M305.4,784.6c30.8-1.2,66.7-1.2,98.7,0.6"/>
	
		<path id="path19" fill="none" stroke="#000000" stroke-width="10" stroke-linecap="round" stroke-linejoin="round" stroke-miterlimit="10" d="
		M310,745.5c30.4,19.2,66.9,53.5,94,78.5"/>
	
		<path id="path21" fill="none" stroke="#000000" stroke-width="10" stroke-linecap="round" stroke-linejoin="round" stroke-miterlimit="10" d="
		M318.9,825.7c24.4-30.8,62.5-62.9,85-80.2"/>
	
		<path id="path23" fill="none" stroke="#000000" stroke-width="10" stroke-linecap="round" stroke-linejoin="round" stroke-miterlimit="10" d="
		M533.5,725.7c0.8-1.7,3.1-1.5,3.5,0.4c5.2,19.6,27.1,89.2,3.7,112.7c-17.9,18.3-59.2,7.5-58.1-20
		C484.3,778.8,533.5,725.7,533.5,725.7z"/>
	
		<path id="path25" fill="none" stroke="#000000" stroke-width="10" stroke-linecap="round" stroke-linejoin="round" stroke-miterlimit="10" d="
		M679.9,727.6c3.5,36.9,4.6,74,3.1,111"/>
	
		<path id="path27" fill="none" stroke="#000000" stroke-width="10" stroke-linecap="round" stroke-linejoin="round" stroke-miterlimit="10" d="
		M630.4,784.6c30.8-1.2,66.7-1.2,98.7,0.6"/>
	
		<path id="path29" fill="none" stroke="#000000" stroke-width="10" stroke-linecap="round" stroke-linejoin="round" stroke-miterlimit="10" d="
		M634.9,745.5c30.4,19.2,66.9,53.5,94,78.5"/>
	
		<path id="path31" fill="none" stroke="#000000" stroke-width="10" stroke-linecap="round" stroke-linejoin="round" stroke-miterlimit="10" d="
		M643.9,825.7c24.4-30.8,62.5-62.9,85-80.2"/>
</g>
<g id="vs-h-reveal" opacity="0">
	
		<path id="path34" fill="none" stroke="#D86060" stroke-width="68" stroke-linecap="round" stroke-linejoin="round" stroke-miterlimit="10" d="
		M242.6,370.6c9.9-39,33.9-82.1,89.6-102.4c30.2-11,57.3-10,80.4-7.5c34.4,3.5,60.8,15.2,78.1,35.2c36,41.7,36.2,101,36.2,101
		s72.5-59.2,146.4-8.5c70.8,48.3,42.9,125.6,42.9,125.6s100.8-38.3,138.1,24c36.8,61.7,14.5,105.4-18.7,122.2"/>
	
		<path id="path36" fill="none" stroke="#D86060" stroke-width="68" stroke-linecap="round" stroke-linejoin="round" stroke-miterlimit="10" d="
		M481.3,267.8c10-20,18.3-56.7,71.2-72.1c75.8-21.5,112.1,40.4,124.8,70.6c3.1,7.5,10.4,30.6,10.4,30.6s38.5-34.6,84.2-17.5
		c37.7,12.1,34.2,95.4,34.4,103.5c0,0,80.2-13.1,100.6,41.2c30,80.2-43.5,92.5-43.5,92.5"/>
	
		<path id="path38_1_" fill="none" stroke="#D86060" stroke-width="70" stroke-linecap="round" stroke-linejoin="round" stroke-miterlimit="10" d="
		M512,769.5c1.7,7.6,3,15.1,3.6,22.3"/>
</g>
</svg>
