<?xml version="1.0" encoding="utf-8"?>
<!-- Generator: Adobe Illustrator 22.1.0, SVG Export Plug-In . SVG Version: 6.00 Build 0)  -->
<svg version="1.1" id="Layer_1" xmlns="http://www.w3.org/2000/svg" xmlns:xlink="http://www.w3.org/1999/xlink" x="0px" y="0px"
	 width="160px" height="99.3px" viewBox="0 0 160 99.3" enable-background="new 0 0 160 99.3" xml:space="preserve">
<g id="vs-colour">
	<g>
		<polygon fill="#E10702" points="19,12.6 142,10.6 139,81.6 22,81.6 		"/>
	</g>
	<g>
		<polygon fill="#04248E" points="78.5,12.1 79,45.6 20,45.6 19,12.6 		"/>
	</g>
	<g>
		<polygon fill="#04248E" points="55.5,35.5 51.9,33.2 51.8,37.4 49.4,33.9 47.5,37.7 46.8,33.6 43.6,36.2 44.6,32.2 40.5,33.3 
			43.1,30 39,29.3 42.7,27.4 39.1,25.1 43.3,24.8 41,21.3 45,22.8 44.3,18.6 47.3,21.5 48.3,17.5 49.9,21.4 52.5,18.1 52.4,22.3 
			56.1,20.3 54.3,24.1 58.5,23.9 55.2,26.6 59.2,28 55.1,29.2 58.1,32.1 54,31.5 		"/>
		<path fill="#FFFFFF" d="M47.3,39.3l-0.8-4.8l-3.7,3l1.2-4.6l-4.7,1.3l3-3.8l-4.7-0.8l4.3-2.2l-4.1-2.6l4.9-0.3l-2.7-4.1l4.6,1.7
			l-0.8-4.8l3.5,3.4l1.2-4.6l1.9,4.5l3-3.8l-0.1,4.8l4.3-2.3l-2.1,4.4l4.9-0.2l-3.8,3.1l4.6,1.6l-4.8,1.4l3.5,3.4l-4.8-0.7l1.7,4.6
			l-4.1-2.6L52.3,39l-2.8-4.1L47.3,39.3z M47.1,32.7l0.6,3.4l1.6-3.2l2,2.9l0.1-3.5l3.1,2l-1.3-3.4l3.4,0.5L54.1,29l3.4-1l-3.4-1.2
			l2.8-2.3l-3.5,0.2l1.5-3.2l-3.1,1.7l0.1-3.6l-2.2,2.8l-1.3-3.3l-0.8,3.4L45,20l0.6,3.6l-3.4-1.3l1.9,2.9l-3.5,0.3l3.1,2l-3.1,1.6
			l3.5,0.6l-2.2,2.8l3.5-0.9l-0.8,3.4L47.1,32.7z"/>
	</g>
	<g>
		<circle fill="#FFFFFF" cx="49" cy="27.6" r="9"/>
		<path fill="#04248E" d="M49,37.1c-5.2,0-9.5-4.3-9.5-9.5s4.3-9.5,9.5-9.5s9.5,4.3,9.5,9.5S54.2,37.1,49,37.1z M49,19.1
			c-4.7,0-8.5,3.8-8.5,8.5s3.8,8.5,8.5,8.5s8.5-3.8,8.5-8.5S53.7,19.1,49,19.1z"/>
	</g>
</g>
<g>
	<g id="Layer_4_2_">
		<path opacity="0.12" enable-background="new    " d="M22.8,12.5c6,44.4,0,66.8,115.6,64.1v6l-116.3-1l-5-69.7L22.8,12.5z"/>
	</g>
</g>
<g id="vs-outline">
	
		<polygon fill="none" stroke="#000000" stroke-width="4" stroke-linecap="round" stroke-linejoin="round" stroke-miterlimit="10" points="
		18.1,12.1 19.9,12.1 25.2,12 39.2,11.7 125.6,10.1 139.3,9.9 142.2,9.8 142,16.3 140.1,68.2 139.7,80 139.6,82.1 127.3,82.1 
		36.3,81.5 24,81.4 22.1,81.4 21.2,66.3 18.9,25.7 18.4,17.2 18.2,13.6 	"/>
</g>
<g id="vs-reveal">
	
		<path fill="none" stroke="#000000" stroke-width="12" stroke-linecap="round" stroke-linejoin="round" stroke-miterlimit="10" stroke-opacity="0" d="
		M30,9.3c-10.6-1-13,10.8-12.5,13s19.9-13.5,25-12.5s-23.8,18-23.3,23.3s35.3-24,40.8-24S20.9,44.9,20.9,49.2S73.5,9.3,81,9.3
		s-57.5,45-57.5,52.4S83.4,8.6,96.8,8.6S23.3,68.9,23.3,74.9s85.3-65.1,91.8-65.1S22.4,82.6,28.4,82.6s94.9-74,103.6-74
		S37,82.1,50.4,82.1S142.9,3.3,142.9,11S66.1,80.7,74.2,80.7s67-65.8,67-56.7S83.8,81.2,92,81.2s47.6-48.1,47.6-40.8
		S98.8,82,108.8,82S140,49.3,140,54.6s-21.1,27.1-16.3,27.1c4.8,0,16.1-15.6,16.1-11.3s-3.6,9.1-3.6,9.1"/>
</g>
</svg>
