<?xml version="1.0" encoding="utf-8"?>
<!-- Generator: Adobe Illustrator 22.1.0, SVG Export Plug-In . SVG Version: 6.00 Build 0)  -->
<svg version="1.1" id="Layer_1" xmlns="http://www.w3.org/2000/svg" xmlns:xlink="http://www.w3.org/1999/xlink" x="0px" y="0px"
	 width="1000px" height="1000px" viewBox="0 0 1000 1000" enable-background="new 0 0 1000 1000" xml:space="preserve">
<g id="vs-secondary">
	<path fill="#27A8CB" d="M967.6,378.3c-11.7-20.9-35-34.4-59.3-34.4c-9.7,0-18.8,2.1-27.2,6.3c-13,6.5-33.6,51.3-73.4,20.2
		c-3.2-2.5-41.2-45.9-68.9-45.9c-6,0-22.5-38-30.6-52c-11.2-19.3-31.9-30.3-56.7-30.3c-9.3,0-18.1,1.6-26.2,4.8
		c-14.3,3.5-26.3-12.7-37.1-19.1c-3.1-1.9-6-3.3-8.6-4.4c-4.4-2.6-9.2-4.6-14.3-6.1c-3.2-3.3-6.9-6.4-11-9c-6.5-4-17.2-8.9-31.6-8.9
		c-8.2,0-15.5,1.5-22.8,3.2c-0.1,0-0.1,0-0.2,0c-5.5-1.6-11.7-2.6-18.7-2.6c-2.4,0-4.7,0.1-6.9,0.3c-5.2-1.7-12.3-3.6-20.7-4
		c-1,0-2.1-0.1-3.2-0.1c-9.3,0-17.5,1.8-23.4,3.3c-6.7,0.1-12.5,1-16.2,1.7c-20.1,4.1-32.8,15.1-40.1,27.6c-2.3-0.3-4.7-0.4-7.1-0.4
		c-5.7,0-10.9,0.8-15.5,1.9c-3.6-2-7.7-3.7-12.3-5c0-0.2-0.1-0.4-0.1-0.6c-30-34.8-28.8-64.1-30.1-68c-0.1-0.3-0.2-0.6-0.3-1
		c-7.5-33.5-34.6-48.6-58.2-48.6c-5.8,0-11.1,0.8-15.7,2.1c-3.8-0.7-7.6-1.1-11.6-1.1c-19.4,0-38.1,9.7-50.4,24.7
		c-16.5,10.2-27.4,27.7-29.3,48.1c-2.4,25.3,9.4,49.9,30,62.5c32.1,17,45.2,70.6,71.8,80c47.3,19.5,12.8,36.5-4.2,36.2
		c-2.7-0.3-5.3-0.5-8-0.5c-16.7,0-32.4,6.5-44.1,18.2c-1,1-2,2-2.9,3.1c-3.5,2.4-6.7,5.1-9.7,8.2c-0.9,1-1.8,2-2.6,3
		c-20,8.5-30.6,26.8-36.4,36.7c-0.4,0.7-0.8,1.4-1.2,2.2c-2.7,0.9-5.3,1.6-6.8,2c-3.7,0.8-26.7,6.2-37.9,11.2
		c-6.9,3-12.6,6.9-17.1,10.7c-9,4.2-17.2,11-24.5,20.3c-7.5,9.5-11,19.3-12.6,27.1c-5.2,10.5-7.2,22.2-5.7,33.8
		c-2.5,9.7-2.8,21.8,1.4,36.2c2.1,7,5,12.8,8,17.4c2.7,10.8,7.6,20.2,4.1,57.7c2.2,18,12,34,27.1,44.5c0.8,0.9,1.7,2,2.6,3
		c11.2,12.1,26.6,18.8,43.5,18.8c12.8,0,23.1-3.9,30.6-6.7c0.7-0.3,1.6-0.6,2.3-0.9c8.9-1.6,16-4.6,21.3-7.4c1.5,0.1,3,0.2,4.7,0.3
		c1,0,2.1,0.1,3.1,0.1c10.5,0,19-2.6,24.7-4.8c8.4-0.7,94.8,5.4,101.4,9.4c6.9,4.3,14.5,7.1,22.4,8.3c1,0.4,2,0.8,3,1.2
		c1.4,0.5,2.8,1,4.3,1.4c3.1,6.4,7,12.2,11.5,17.3c7.3,8.4,16,14.7,25.7,18.7c5.7,3.6,11.3,5.8,16.5,7.2c1.1,3.3,2.4,6.2,3.7,8.8
		c1.1,16.3,8,27.9,13,34.2c10.6,13.4,25.4,21.1,44,23.1c5.2,2,12.4,4,21.2,4c8.3,0,16.2-1.8,23.3-5c9.9-3,18.8-8.6,25.8-16.5
		c13-14.5,15-30.7,14.7-42c6.2-11.1,40.9-95.7,48.6-108.8c5.7-9.8,35.1-15,49.7-15c8.7,0,45.5,30.2,49,38.6c-0.2,3.6-0.3,7.7,0,12
		c0.2,4.1,0.9,8.1,1.8,11.9c-5.1,6.3-9,13.1-11.9,19.6c-1.5,2.1-3.3,4.7-5,7.9c-2,1.7-3.8,3.4-5.4,5c-11.1,4.5-20.8,12.3-28.2,22.9
		c-1.9,2.7-3.5,5.5-5,8.3c-0.3,0.2-0.6,0.5-0.8,0.8c-24.7,22.3-25.7,50.4-18.4,69.2c5.6,14.4,16.3,25.8,30,32.7
		c11.1,11.1,26.6,17.6,44.2,17.6c1.1,0,2.2,0,3.5-0.1c0.3,0,0.6,0,0.8,0c32.3,0,51.2-24.4,57.5-32.4l0.4-0.6
		c3.8-4.7,7.7-11.1,10.5-16c12.9-3.6,21.8-10.3,27.6-16.2c7.6-7.9,11.9-16.4,14.2-24.1c13.7-5.2,25.1-15.5,32-29.3
		c7.6-6.5,13.4-14.4,17.1-23.3c2-2.2,3.6-4.3,4.9-6c0.7-0.9,1.5-1.9,2.5-3.1c15.6-19.4,19-43.5,9-64.5
		c-8.3-17.4-24.6-29.2-43.9-32.5c-5.4-7.8-13.5-15.8-25.7-20.9c-0.3-0.1-0.5-0.2-0.8-0.3c-2.9-2.2-5.9-4.2-9.1-6
		c-0.8-0.9-1.6-1.9-2.6-2.9c-1.4-1.5-2.9-3-4.4-4.3c9.2-4.7,17.1-11.6,23-20.4c9.7-14.6,12.9-32.9,9.3-51c1.9,0.1,3.7,0.1,5.5,0.1
		c18.3,0,35.3-8.1,46.6-22.2c7.3-9.1,11-18.6,12.6-27.7c9,4.8,19.3,7.5,30.1,7.5c11.6,0,33.8-3.6,52-27.5
		c4.7-6.2,8.2-12.5,11.1-17.6c0.9-1.5,1.8-3.1,2.3-4C978.3,422.1,978.8,398.3,967.6,378.3z"/>
</g>
<g id="vs-primary">
	<path fill="#3ACE95" d="M110.4,495.4c4.6-2,22-6.6,27.8-7.8c5.8-1.3,33.3-9.6,35.4-14.1c2-4.5,14.9-29.6,18.9-29.8
		c4-0.3,5.1,10.9,7.1,10.6s1.8-13.1,4.8-13.1s8.1,2,7.6-6.3s4.3-10.1,4.8-5.6s3,6.6,5.1-4.5c2-11.1,8.6-9.6,12.4-8.1
		s10.1-3.3,12.6,1s3.8,11.4,8.1,9.1c4.3-2.3,4.8-4.8,10.6-2c5.8,2.8,12.6,1.5,6.1-4.5c-6.6-6.1-2.8-9.3,0.5-9.9s6.1-1.5,4.5-6.8
		s10.1-9.6,13.1-8.6s10.1,2.3,14.4-3s6.6-6.1,9.1-3.8c2.5,2.3,9.1-1,13.9,1.8s10.1,6.6,11.9,2.8s7.1,4.3,7.6-0.3s6.3-2.5,6.3,5.6
		s-1.8,11.9-5.6,10.6c-3.8-1.3-1.5,5.3-6.8,7.1s-5.8,5.6-1.5,10.4s4,7.1,9.6,5.8c5.6-1.3,15.4-1,17.9,4c2.5,5.1,4,7.6,8.3,10.1
		s7.8,9.1,7.8,11.4s11.1,2.8,14.6-1s9.3-18.4,9.3-25.8s-0.5-13.1-0.3-19.2s5.1-13.9,5.1-18.7s8.6-13.4,9.1-7.6s7.8,4,7.3,7.8
		s2,8.8,2.5,14.4s1.3,12.1,6.6,12.1c5.3,0,8.3,3,13.4,13.1s12.9,21.2,12.6,25.5s-5.1,7.3-2.8,8.6c2.3,1.3,18.7,9.9,24.8,18.4
		c6.1,8.6,9.6,7.1,10.9,14.6c1.3,7.6,11.1,6.3,14.1,12.6s12.6,16.4,16.9,21c4.3,4.5,10.9,14.6,11.9,21c1,6.3,1,15.7,3.3,19.7
		s5.3,11.1,1,15.9c-4.3,4.8-6.6,29.8-10.9,37.1c-4.3,7.3-15.4,8.6-21,17.2c-5.6,8.6-11.9,19.4-12.1,29s1.5,16.7-4,18.7
		s-22.7,3.3-24.5,6.3s-1.8,6.1-9.3,6.6c-7.6,0.5-13.1,3.3-15.2,0.3c-2-3-8.1-10.9-9.6-8.1c-1.5,2.8-9.3,8.8-14.6,9.1
		c-5.3,0.3-9.1-1.3-11.9-3.3s-6.1-2.3-8.6,0s-2.3-3.3-7.6-3.5c-5.3-0.3-10.6-6.1-13.4-15.7c-2.8-9.6-4.3-19.2-8.8-18.4
		s-8.8,3-10.9,0.5c-2-2.5,4.5-4,2.8-8.3c-1.8-4.3-3.8-10.4-6.3-4.5c-2.5,5.8-7.1,8.6-9.9,7.6s7.1-8.1,7.3-14.9s3.5-14.6-1.3-12.1
		s-3.5,7.1-10.1,7.3s-5.1,5.1-5.6,9.9c-0.5,4.8-2.3,7.3-5.6,5.3c-3.3-2-8.8-9.1-9.1-12.6c-0.3-3.5-1.5-8.3-5.1-8.3
		c-3.5,0,0.8-7.6-5.1-7.8c-5.8-0.3-12.4-0.5-15.7-3.3c-3.3-2.8-1.3-8.8-8.8-8.1c-7.6,0.8-21,8.8-30.1,10.6s-16.4,0.3-32.8,0.5
		s-27,1-27,6.3s3,5.3-5.3,5.3s-11.6,4.8-16.9,4.5s-8.3-0.8-17.7-0.5S145,650,136.9,651s-21.5,9.1-24.5,5.8s-4.5-7.3-9.9-9.9
		c-5.3-2.5-7.3-7.8-3.3-11.1s1.3-15.2,6.1-10.4c4.8,4.8,4.8,5.3,4.5-4s-8.6-22.7-10.6-29.6c-2-6.8-8.1-11.1-8.1-20.5
		S85,563,83,556.1c-2-6.8-1-8.3,2.5-6.6s3.3-6.6,5.1-2.3c1.8,4.3,3.8,2.5,1.3-5.8s-0.5-12.9-4.3-11.6s-6.1-1.8-2-5.1
		c4-3.3,0.8-10.4,4.5-15.2c3.8-4.8,4.8-5.1,6.3-3.3C98,508.3,104,498.2,110.4,495.4z"/>
	<path fill="#3ACE95" d="M219,202c-1.5-5.3-5.3-10.6-8.2-7.9c-2.9,2.6-7.4,4.6-11.8,1.9c-4.3-2.6-5.3-13.4,0.5-15.6
		c5.8-2.2,10.1-4.6,11.5-9.1c1.4-4.6,10.6-10.3,11-4.1s2.4,9.4,6.7,9.1c4.3-0.2,4.1-5.5,9.8-8.6s9.8-7.9,11.8,0.7
		c1.9,8.6,4.8,10.8,1.2,14.6s1.2,8.2-1.4,16.3c-2.6,8.2-2.4,15.4-7.7,12.7C237.2,209.4,220.9,208.7,219,202z"/>
	<path fill="#3ACE95" d="M264.4,242.5c-1-3.9,0.7-9.1,6.2-9.1s13.4,4.1,9.1,6.2c-4.3,2.2-7.2,9.8-5,15.1s0.7,8.9-2.9,14.9
		s-6.2,3.1-11.3,1.4c-5-1.7-7.2-7-7.2-12s3.6-4.3,5.5-6.2S265.6,247.1,264.4,242.5z"/>
	<path fill="#3ACE95" d="M282.6,278.1c0.7-4.3,7-4.8,13.9-3.6c7,1.2,12.5,4.6,16.3,4.8c3.8,0.2,9.1-1,8.9,2.2
		c-0.2,3.1,0,8.9,1.9,8.9s10.8-0.5,10.6,2.4c-0.2,2.9-0.5,8.9,1.4,10.6s7.9,0.5,10.3-2.2s-1-6.2-3.4-6.7s0-4.1,5-4.3
		c5-0.2,11.5-6,16.6-5.3s13.9,1.2,15.4,4.3c1.4,3.1,6.2,1,11.3,1s7.9,6.2,13.2,6.2c5.3,0,13.2,4.6,17,7.4c3.8,2.9,8.2,4.1,14.2,4.1
		s11.3,9.4,15.4,10.6s5.5,6,6.5,9.1s9.1,1.4,17.5,4.6c8.4,3.1,19.2,8.4,10.3,8.4s-17.8,2.6-13.2,5.3c4.6,2.6,14.6,5,14.9,7
		c0.2,1.9-1.9,7.9,2.4,10.1s10.1,7.9,10.6,12.2c0.5,4.3,5,6,8.9,6c3.9,0,11.8,6,2.2,7.9c-9.6,1.9-13.9,1-17-3.6s-12-4.8-12.7-9.1
		c-0.7-4.3-2.9-9.1-6.5-8.6s-8.9-19.2-13.4-18.2s-20.4,6.7-22.1,3.1s-5-4.3-7.2-1.7c-2.2,2.6-13.9,5.3-9.6,7.2s9.6,7.7,2.4,8.2
		s-12,2.6-18.5,0.2s-12.2-1.2-13.2-6.2s-3.4-10.3-7.4-7.9c-4.1,2.4-11.8,4.8-15.6,4.8s-3.1-7-2.2-9.4s9.6-0.7,11.3-3.4
		c1.7-2.6-0.2-7.7-3.1-9.1s-8.4-7.2-11-9.6s-16.3-8.9-23-8.9s-16.6-1.4-17.5-4.8s-6.2-10.6-7.4-5.5c-1.2,5-1.9,6.7-7.2,6
		c-5.3-0.7-0.5-7-4.3-8.9s-5.3-7.7-0.7-7.4c4.6,0.2,11-1.2,10.8-4.6s-8.6-2.4-14.4-3.8s-8.4-6.5-11.3-6.2
		C286.7,281.7,282.1,281.2,282.6,278.1z"/>
	<path fill="#3ACE95" d="M430.2,255.9c3.5,0.6,14-3.8,20.4-3.5s13.1,5.2,19.2,4.7s17.2-2.3,14.6,1.5c-2.6,3.8-7.6,15.7-14.3,15.7
		s-14.6-2-21-2s-21.3-2-22.4-7s-1.7-6.7-6.7-7.3S425,255.1,430.2,255.9z"/>
	<path fill="#3ACE95" d="M499.3,262.9c-0.2-2.6,5.2-4.4,8.2-4.7c2.9-0.3,14.6-3.8,16.9-2.3c2.3,1.5,4.4,10.8-0.3,12.2
		s-15.7,3.5-20.4,3.5C499,271.7,499.6,266.7,499.3,262.9z"/>
	<path fill="#3ACE95" d="M541.9,272.6c0.6-3.2,9.6-1.5,9.9-0.3c0.3,1.2,14.6,4.7,9,8.7c-5.5,4.1-10.5,6.7-13.7,1.5
		C543.9,277.2,541,277.5,541.9,272.6z"/>
	<path fill="#3ACE95" d="M494.7,325.6c-2.1-1.7,8.5-5.5,11.4-6.1s4.4,5,7.3,3.8s7.9-13.7,15.2-14s0.3,8.5-1.7,14.3
		s-8.5,8.7-14.9,8.7C505.5,332.3,496.4,327.1,494.7,325.6z"/>
	<path fill="#3ACE95" d="M559.7,330c1.2-1.7,5-4.4,9,4.7c4.1,9,11.4,6.4,7.6,9.6c-3.8,3.2-12,1.2-13.7-1.2
		C560.8,340.8,556.8,334.1,559.7,330z"/>
	<path fill="#3ACE95" d="M643.1,302c0-4.8,14.6-4.7,16.6-1.2s2.9,14.9-1.7,15.2c-4.7,0.3-5.8-1.7-10.2-2.9
		C643.4,311.9,643.1,306.1,643.1,302z"/>
	<path fill="#3ACE95" d="M558.6,412.3c-3.9,2.2-2.7-2.1-7.7-5.6c-5.1-3.6-7.1-20.8-1.8-22.6c5.3-1.8,9.5,1.2,13.7,5.1
		s7.7,3.6,6.2,12.8C567.5,411.1,561.2,410.8,558.6,412.3z"/>
	<path fill="#3ACE95" d="M585.6,357.3c4.3-7.7,16.9,0.6,18.1,4.8c1.2,4.2-1.2,10.7-2.7,15.5s-11.6,8.9-12.2,3.3
		c-0.6-5.6-1.2-9.5-2.1-12.5C585.9,365.3,584.1,360,585.6,357.3z"/>
	<path fill="#3ACE95" d="M733.4,410.8c-10.4-1.2-9.5-10-5.2-17.6s11.4-19,13.3-8.1c1.9,10.9,3.3,11.9,1.4,18.1
		C741,409.4,741.5,411.7,733.4,410.8z"/>
	<path fill="#3ACE95" d="M794.8,449.3c-2.3-5.1,3.8-14.3,7.6-19.5s8.6-3.8,9.5,1c1,4.8,10,3.8,5.7,9s-4.3,11.4-4.3,15.2
		c0,3.8,6.7,22.3-1.9,22.3s-10.5-0.5-9-8.6C803.8,460.7,796.7,453.6,794.8,449.3z"/>
	<path fill="#3ACE95" d="M906,400.3c4.3-2.1,17.6,3.8,12.4,12.4c-5.2,8.6-11.4,22.3-17.6,22.3c-6.2,0-10-7.1-2.9-10.9
		s8.6-8.6,3.3-10.9C896,410.8,904.1,401.3,906,400.3z"/>
	<path fill="#3ACE95" d="M532.3,425.5c4.4-1.9,11.4,12.4,8.6,20c-2.9,7.6-12.4,7.6-13.3-1C526.6,436,529,427,532.3,425.5z"/>
	<path fill="#3ACE95" d="M521.8,468.3c4.3-0.3,10,2.9,7.1,5.7c-2.9,2.9,9,8.1,4.3,13.8c-4.8,5.7-13.3,5.7-14.3,0
		C518,482.1,515.6,468.8,521.8,468.3z"/>
	<path fill="#3ACE95" d="M619.3,477.8c4.3-5.9,8.1-6.2,10.9,0c2.9,6.2-1,12.8-5.7,13.3S611.7,488.3,619.3,477.8z"/>
	<path fill="#3ACE95" d="M729.1,473.6c-1.3-6.5,2.4-6.2,7.6-6.2c5.2,0,16.6-3.3,13.8,4.3c-2.9,7.6-8.1,17.1-19.5,17.1
		C719.6,488.8,729.6,475.9,729.1,473.6z"/>
	<path fill="#3ACE95" d="M625,504.5c0-5.2,10-4.3,17.6-1.4s21.9,3.8,16.6,7.6c-5.2,3.8-2.4,13.3,1,20.4c3.3,7.1,10.9,13.8,6.2,13.8
		s-12.8,5.7-17.1,0s-3.8-15.7-8.1-23.3C636.9,514,625,507.3,625,504.5z"/>
	<path fill="#3ACE95" d="M626.9,557.2c2.5-6.2,8.6-1.9,12.8-0.5c4.3,1.4,8.1,5.2,6.7,12.8c-1.4,7.6-10.9,14.7-16.2,14.7
		C625,584.3,625,562,626.9,557.2z"/>
	<path fill="#3ACE95" d="M674.9,556.3c0-9,4.8-6.2,14.3-4.3s2.9,20.4-0.5,20.4S674.9,560.6,674.9,556.3z"/>
	<path fill="#3ACE95" d="M743.4,525.9c2.1,0.5,3.8,8.1,6.2,13.8s3.3,16.2-4.3,15.7s-13.8-2.4-12.4-10.9s6.7-3.8,6.7-9
		C739.6,530.1,741.5,525.4,743.4,525.9z"/>
	<path fill="#3ACE95" d="M691.6,581.5c1.7-0.7,9-6.7,10.5-1.9s10.9,14.7,7.1,14.7s-2.9,8.1-10.5,3.3
		C691.1,592.9,684.9,584.3,691.6,581.5z"/>
	<path fill="#3ACE95" d="M438.4,736.5c-0.1-1.8-1.8-7.1,6.2-4.2c8,3,17.9-0.3,26.5,0s16.1,1.5,10.1,6.5s-6.2,11-6.2,16.1
		s2.4,15.2-0.6,14s-4.5-3-5.4,1.2s-3.9-2.1-12.5-2.1s-12.5-1.2-10.4-10.1C448.2,749,438.7,743.7,438.4,736.5z"/>
	<path fill="#3ACE95" d="M730,649c0.3-3.9,3-6.2,7.1-1.8c4.2,4.5,8.6,11.6,15.5,13.4c6.8,1.8,8.6,13.7,8.9,19.6
		c0.3,6,6.2,7.1,6.2,2.4s-2.4-14.3,1.2-12.8c3.6,1.5,6.8,17.3,13.4,22.3c6.5,5.1,11,3.9,17,2.7s14.6-1.8,8.3,6
		c-6.2,7.7-8,11-12.2,11.6s-2.7,6.2-3,9.8s-6,6.5-10.7,6.5s-2.1,17-8,16.7c-6-0.3-8-14.3-8-19s-8.6-13.1-12.8-14
		s-17.3-14.6-17.9-24.7c-0.6-10.1,3.3-23.5-0.9-26.2S729.7,653.2,730,649z"/>
	<path fill="#3ACE95" d="M662.1,808.9c1.9-1.7,11.3-6.1,11.6-11.3s4.2-10.6,7.4-10.6s5.8-1,9.7-3.2c3.9-2.3,7.4-11.6,13.2-12.6
		s7.7-2.3,7.7-8.7s6.4-10.3,7.7-15.1s7.7-14.2,11.6-14.2c3.9,0,6.1,2.6,6.1,5.8s5.2,1.9,7.7,0c2.6-1.9,4.2,4.5,4.5,7.7
		s1.6,7.4-1.9,10.6c-3.5,3.2-5.8,7.4-5.8,15.1c0,7.7,1.6,11.9-8.1,11.9c-9.7,0-20,2.3-21.3,8.7s-10.9,22.5-13.5,25.8
		c-2.6,3.2-8.7,11.9-14.2,11.9s-9.3,1-10-3.9c-0.6-4.8-1.9-6.8-6.4-6.4C663.7,820.8,652.1,817.9,662.1,808.9z"/>
</g>
<g id="vs-colour">
	<path fill="#E2B77D" d="M496.2,603.6c0.5-12.7-4.2-55.3-6.7-67.6c-8.5-42.1-49.9-72.6-71.7-93.5c-5.4-5.2-11.8,16-18.3,12.4
		c0,0,0,0,0,0.1c0,3.6-7.4,3.2-12.7,3.4c-5.3,0.2-5.3-1.9-6.7-8.1c-1.4-6.2-6.9-2.9-11-9.8c-4.1-7-9.6-11.3-18.2-8.6
		c-8.6,2.7-11.5-3.6-15.6-8.1c-4-4.5,1-6.2,5.8-7.9c4.8-1.7,1.4-10.8,6.7-9.4c5.3,1.4,3.8-7,3.1-13.7c-0.7-6.7-7.1,5.5-7.6,1.7
		c-0.5-3.8-4.5-3.1-6.5,0c-1.9,3.1-5.3-0.7-8.9-4.1s-12.7-0.3-15.4-1.9c-2.6-1.7-6.2,1.7-6.9,3.8s-7.9,4.3-14.9,2.9
		c-6.9-1.4-13.4,3.1-13.4,8.4c0,5.3-1.2,5.8-6.5,6c-5.3,0.2-6.3,5.5-2.7,7.4c3.6,1.9,7,8.6,4.3,9.8s-8.6-5.8-12.2-2.2
		s-7.9,3.3-9.4-1.9s-4.3-6-10.5-6s-8.3-1.2-13.2,1.2c-1.9,1-7.4,9.4-7.4,14.6c0,5.3-3.4,3.3-4.1-2.7c-0.7-6-3.6-0.3-3.4,5.3
		c0.2,5.5-1.2,7.4-5.5,6c-4.3-1.4-3.8,0.9-3.8,7.4c0,6.5-5.5,7.4-5.5,3.8s-1.2-5.8-4.1-7.4c-2.9-1.7-16.3,14.9-17,21.8
		c-0.7,7-4.8,4.3-13.2,10.8c-8.4,6.5-22.3,9.4-30.9,11.7s-23.1,6-28.3,11.2c-5.3,5.3-8.1,8.9-9.1,4.5c-0.9-4.3-7.1,9.6-6.9,13.2
		c0.2,3.6-0.2,6.3-3.6,7.9c-3.4,1.7-2.4,7,2.4,4.3c4.8-2.7,3.4,4,4.8,11.7s-2.2,8.1-3.4,4.3c-0.7-2.1-1.2-0.4-1.9,1.4
		c7.5,17.6,20.5,32.3,35.9,43.7c18.8,14.1,12.5,27.6,63.2,30.3c8.4,0.4,15.9,5.2,23.9,7.6c5.3-0.6,11.4-0.8,16.2-0.7
		c10.5,0.3,24.2-0.9,29.7-0.9c5.5,0,25.2-11.5,31.6-11.7c6.5-0.2,4.8,5.8,7.9,7.9c3.1,2.2,10.3,3.8,18.5,4.5
		c8.1,0.7,3.4,5.3,3.6,6.5c0.2,1.2,5.3,0.2,5.3,2.9c0,1.3,0.3,2.5,0.8,3.8c8.9-1.8,17.6-4.6,25-9.8c5-3.5,9-7.9,12.3-13
		c2.4-3.8,4.5-7.9,7.6-11.1c2.4,6.5,4.5,13.2,7.8,19.4c3.7,6.9,8.9,16.8,15.1,21.5c9.5,7,17.3,23.8,38.1,21.4
		C466.6,665.8,498.3,629.6,496.2,603.6z"/>
	<path fill="#FFFFFF" d="M676,814.8c3.2,0.9-3-6,11.2-19.5c14.2-13.5,40.7-21.3,45.2-31c4.5-9.7,5.8-12.5,2.7-12.5
		s-5.3,6.2-12.5,14.2s-33.2,16.3-40,23S669,812.8,676,814.8z"/>
	<path opacity="0.1" enable-background="new    " d="M114.1,505.8c3.7,0.9,24.6,9.2,20,13.8c-4.6,4.6-16.9,16.9-20,22.3
		c-3.1,5.4,3.1,20.8,10.8,20.8s7.7,16.1,13.8,12.3s29.2-6.9,29.2,0s24.6,16.9,24.6,6.1s15.4-6.9,19.2-13.1c3.8-6.1,3.1-26.9-10-26.9
		s-29.2-9.2-30-16.9s13.1-24.6,6.9-26.1c-6.1-1.5-10.8-3.1-26.9-2.3C135.6,496.6,97.9,501.9,114.1,505.8z"/>
	<path opacity="0.1" enable-background="new    " d="M270.8,551.1c-18.4,1.4-39.2-3.1-36.1-8.5s24.6-2.3,22.3-12.3
		c-2.3-10,2.3-14.6,0-23.8c-2.3-9.2,5.4-21.5,15.4-20s16.9,8.5,27.7,5.4s25.4-7.7,25.4-1.5c0,6.1-9.2,12.3-6.9,20
		c2.3,7.7-14.6,16.9-20,16.9s-30,5.4-26.9,5.4s33.1,8.5,35.4,11.5c2.3,3.1-5.4,12.3-13.8,10.8S280.8,550.4,270.8,551.1z"/>
	<path opacity="0.1" enable-background="new    " d="M436.9,435.8c-7.2,5.4-3.8,25.4-0.8,33.8c3.1,8.5,6.9,20.8,6.9,32.3
		s27.7,2.3,22.3-6.9c-5.4-9.2-15.4-25.4-15.4-36.9S449.2,426.6,436.9,435.8z"/>
	<path opacity="0.1" enable-background="new    " d="M501.4,531.1c0,0,6.9,5.4,3.1,25.4s-0.8,28.4-3.8,42.3
		c-3.1,13.8-11.5,36.1-16.1,41.5s-13.8,25.4-25.4,26.1c-11.5,0.8-23.1,11.5-40,11.5s-17.7,16.9-11.5,16.9s14.6,7.7,18.4,0.8
		s22.3-2.3,22.3-2.3s23.8-10.8,24.6-13.1c0.8-2.3,7.7-23.1,15.4-30.7c7.7-7.7,33.8-19.2,33.8-33.1c0-13.8,6.1-34.6,4.6-44.6
		s-8.5-30-11.5-36.9C512.2,528.1,488.4,507.3,501.4,531.1z"/>
	<path opacity="0.1" enable-background="new    " d="M454.4,761.2c-5.4,0.9-0.8-9.4-1.2-11.4c-0.4-2-4.7-12.2-0.4-11
		c4.3,1.2,11,1.2,12.5,1.2c1.6,0,3.1,10.6,2,14.5C466.2,758.5,461.5,760.1,454.4,761.2z"/>
	<path opacity="0.1" enable-background="new    " d="M672.5,809.5c5.9,0,14.1-2.7,16.5-5.9c2.4-3.1,10.2-15.3,12.5-14.5
		c2.4,0.8,10.2-13.7,12.9-13.7s19.6-5.9,19.6-12.2s9.4-19.6,9.4-19.6s-6.3-3.9-7.1-5.1c-0.8-1.2-8.2-5.1-9.4-1.6s-12.5,18-12.9,22.4
		c-0.4,4.3-2,12.2-6.7,12.5c-4.7,0.4-9.4,8.2-15.3,12.5s-12.9,2.4-14.5,6.3c-1.6,3.9-4.7,14.1-8.2,14.9S665.8,809.5,672.5,809.5z"/>
	<path opacity="0.1" enable-background="new    " d="M755.2,678.9c-1.5-10.8-5.1,21.2-2.4,22.7c2.7,1.6,11,3.1,12.2,9.8
		s3.5,16.1,7.8,14.5s7.1-12.9,8.6-13.3c1.6-0.4,3.9-9.8-0.4-12.9c-4.3-3.1-4.7-9-7.5-8.6C770.9,691.4,756.8,689.9,755.2,678.9z"/>
	<path opacity="0.1" enable-background="new    " d="M356.6,308.8c-4-0.4-10.9-9-2.8-10.9s26.9,6.1,33.1,7.1
		c6.1,0.9,11.3,0.9,23.6,4.7c12.3,3.8,32.6,22.2,38.7,25s28.8,12.8,17,11.3c-11.8-1.4-14.2,4.7-24.1-0.5s-6.6-3.3-20.3-6.6
		c-13.7-3.3-18.9-10.9-22.7-14.2c-3.8-3.3-15.6,2.4-21.3-6.1C372.2,310.2,366.1,309.7,356.6,308.8z"/>
</g>
<g id="vs-outline">
	<path fill="none" stroke="#000000" stroke-width="6" stroke-linecap="round" stroke-linejoin="round" stroke-miterlimit="10" d="
		M110.4,495.4c4.6-2,22-6.6,27.8-7.8c5.8-1.3,33.3-9.6,35.4-14.1c2-4.5,14.9-29.6,18.9-29.8c4-0.3,5.1,10.9,7.1,10.6
		s1.8-13.1,4.8-13.1s8.1,2,7.6-6.3s4.3-10.1,4.8-5.6s3,6.6,5.1-4.5c2-11.1,8.6-9.6,12.4-8.1s10.1-3.3,12.6,1s3.8,11.4,8.1,9.1
		c4.3-2.3,4.8-4.8,10.6-2c5.8,2.8,12.6,1.5,6.1-4.5c-6.6-6.1-2.8-9.3,0.5-9.9s6.1-1.5,4.5-6.8s10.1-9.6,13.1-8.6s10.1,2.3,14.4-3
		s6.6-6.1,9.1-3.8c2.5,2.3,9.1-1,13.9,1.8s10.1,6.6,11.9,2.8s7.1,4.3,7.6-0.3s6.3-2.5,6.3,5.6s-1.8,11.9-5.6,10.6
		c-3.8-1.3-1.5,5.3-6.8,7.1s-5.8,5.6-1.5,10.4s4,7.1,9.6,5.8c5.6-1.3,15.4-1,17.9,4c2.5,5.1,4,7.6,8.3,10.1s7.8,9.1,7.8,11.4
		s11.1,2.8,14.6-1s9.3-18.4,9.3-25.8s-0.5-13.1-0.3-19.2s5.1-13.9,5.1-18.7s8.6-13.4,9.1-7.6s7.8,4,7.3,7.8s2,8.8,2.5,14.4
		s1.3,12.1,6.6,12.1c5.3,0,8.3,3,13.4,13.1s12.9,21.2,12.6,25.5s-5.1,7.3-2.8,8.6c2.3,1.3,18.7,9.9,24.8,18.4
		c6.1,8.6,9.6,7.1,10.9,14.6c1.3,7.6,11.1,6.3,14.1,12.6s12.6,16.4,16.9,21c4.3,4.5,10.9,14.6,11.9,21c1,6.3,1,15.7,3.3,19.7
		s5.3,11.1,1,15.9c-4.3,4.8-6.6,29.8-10.9,37.1c-4.3,7.3-15.4,8.6-21,17.2c-5.6,8.6-11.9,19.4-12.1,29s1.5,16.7-4,18.7
		s-22.7,3.3-24.5,6.3s-1.8,6.1-9.3,6.6c-7.6,0.5-13.1,3.3-15.2,0.3c-2-3-8.1-10.9-9.6-8.1c-1.5,2.8-9.3,8.8-14.6,9.1
		c-5.3,0.3-9.1-1.3-11.9-3.3s-6.1-2.3-8.6,0s-2.3-3.3-7.6-3.5c-5.3-0.3-10.6-6.1-13.4-15.7c-2.8-9.6-4.3-19.2-8.8-18.4
		s-8.8,3-10.9,0.5c-2-2.5,4.5-4,2.8-8.3c-1.8-4.3-3.8-10.4-6.3-4.5c-2.5,5.8-7.1,8.6-9.9,7.6s7.1-8.1,7.3-14.9s3.5-14.6-1.3-12.1
		s-3.5,7.1-10.1,7.3s-5.1,5.1-5.6,9.9c-0.5,4.8-2.3,7.3-5.6,5.3c-3.3-2-8.8-9.1-9.1-12.6c-0.3-3.5-1.5-8.3-5.1-8.3
		c-3.5,0,0.8-7.6-5.1-7.8c-5.8-0.3-12.4-0.5-15.7-3.3c-3.3-2.8-1.3-8.8-8.8-8.1c-7.6,0.8-21,8.8-30.1,10.6s-16.4,0.3-32.8,0.5
		s-27,1-27,6.3s3,5.3-5.3,5.3s-11.6,4.8-16.9,4.5s-8.3-0.8-17.7-0.5S145,650,136.9,651s-21.5,9.1-24.5,5.8s-4.5-7.3-9.9-9.9
		c-5.3-2.5-7.3-7.8-3.3-11.1s1.3-15.2,6.1-10.4c4.8,4.8,4.8,5.3,4.5-4s-8.6-22.7-10.6-29.6c-2-6.8-8.1-11.1-8.1-20.5
		S85,563,83,556.1c-2-6.8-1-8.3,2.5-6.6s3.3-6.6,5.1-2.3c1.8,4.3,3.8,2.5,1.3-5.8s-0.5-12.9-4.3-11.6s-6.1-1.8-2-5.1
		c4-3.3,0.8-10.4,4.5-15.2c3.8-4.8,4.8-5.1,6.3-3.3C98,508.3,104,498.2,110.4,495.4z"/>
	<path fill="none" stroke="#000000" stroke-width="6" stroke-linecap="round" stroke-linejoin="round" stroke-miterlimit="10" d="
		M219,202c-1.5-5.3-5.3-10.6-8.2-7.9c-2.9,2.6-7.4,4.6-11.8,1.9c-4.3-2.6-5.3-13.4,0.5-15.6c5.8-2.2,10.1-4.6,11.5-9.1
		c1.4-4.6,10.6-10.3,11-4.1s2.4,9.4,6.7,9.1c4.3-0.2,4.1-5.5,9.8-8.6s9.8-7.9,11.8,0.7c1.9,8.6,4.8,10.8,1.2,14.6s1.2,8.2-1.4,16.3
		c-2.6,8.2-2.4,15.4-7.7,12.7C237.2,209.4,220.9,208.7,219,202z"/>
	<path fill="none" stroke="#000000" stroke-width="6" stroke-linecap="round" stroke-linejoin="round" stroke-miterlimit="10" d="
		M264.4,242.5c-1-3.9,0.7-9.1,6.2-9.1s13.4,4.1,9.1,6.2c-4.3,2.2-7.2,9.8-5,15.1s0.7,8.9-2.9,14.9s-6.2,3.1-11.3,1.4
		c-5-1.7-7.2-7-7.2-12s3.6-4.3,5.5-6.2S265.6,247.1,264.4,242.5z"/>
	<path fill="none" stroke="#000000" stroke-width="6" stroke-linecap="round" stroke-linejoin="round" stroke-miterlimit="10" d="
		M282.6,278.1c0.7-4.3,7-4.8,13.9-3.6c7,1.2,12.5,4.6,16.3,4.8c3.8,0.2,9.1-1,8.9,2.2c-0.2,3.1,0,8.9,1.9,8.9s10.8-0.5,10.6,2.4
		c-0.2,2.9-0.5,8.9,1.4,10.6s7.9,0.5,10.3-2.2s-1-6.2-3.4-6.7s0-4.1,5-4.3c5-0.2,11.5-6,16.6-5.3s13.9,1.2,15.4,4.3
		c1.4,3.1,6.2,1,11.3,1s7.9,6.2,13.2,6.2c5.3,0,13.2,4.6,17,7.4c3.8,2.9,8.2,4.1,14.2,4.1s11.3,9.4,15.4,10.6s5.5,6,6.5,9.1
		s9.1,1.4,17.5,4.6c8.4,3.1,19.2,8.4,10.3,8.4s-17.8,2.6-13.2,5.3c4.6,2.6,14.6,5,14.9,7c0.2,1.9-1.9,7.9,2.4,10.1
		s10.1,7.9,10.6,12.2c0.5,4.3,5,6,8.9,6c3.9,0,11.8,6,2.2,7.9c-9.6,1.9-13.9,1-17-3.6s-12-4.8-12.7-9.1c-0.7-4.3-2.9-9.1-6.5-8.6
		s-8.9-19.2-13.4-18.2s-20.4,6.7-22.1,3.1s-5-4.3-7.2-1.7c-2.2,2.6-13.9,5.3-9.6,7.2s9.6,7.7,2.4,8.2s-12,2.6-18.5,0.2
		s-12.2-1.2-13.2-6.2s-3.4-10.3-7.4-7.9c-4.1,2.4-11.8,4.8-15.6,4.8s-3.1-7-2.2-9.4s9.6-0.7,11.3-3.4c1.7-2.6-0.2-7.7-3.1-9.1
		s-8.4-7.2-11-9.6s-16.3-8.9-23-8.9s-16.6-1.4-17.5-4.8s-6.2-10.6-7.4-5.5c-1.2,5-1.9,6.7-7.2,6c-5.3-0.7-0.5-7-4.3-8.9
		s-5.3-7.7-0.7-7.4c4.6,0.2,11-1.2,10.8-4.6s-8.6-2.4-14.4-3.8s-8.4-6.5-11.3-6.2C286.7,281.7,282.1,281.2,282.6,278.1z"/>
	<path fill="none" stroke="#000000" stroke-width="6" stroke-linecap="round" stroke-linejoin="round" stroke-miterlimit="10" d="
		M430.2,255.9c3.5,0.6,14-3.8,20.4-3.5s13.1,5.2,19.2,4.7s17.2-2.3,14.6,1.5c-2.6,3.8-7.6,15.7-14.3,15.7s-14.6-2-21-2
		s-21.3-2-22.4-7s-1.7-6.7-6.7-7.3S425,255.1,430.2,255.9z"/>
	<path fill="none" stroke="#000000" stroke-width="6" stroke-linecap="round" stroke-linejoin="round" stroke-miterlimit="10" d="
		M499.3,262.9c-0.2-2.6,5.2-4.4,8.2-4.7c2.9-0.3,14.6-3.8,16.9-2.3c2.3,1.5,4.4,10.8-0.3,12.2s-15.7,3.5-20.4,3.5
		C499,271.7,499.6,266.7,499.3,262.9z"/>
	<path fill="none" stroke="#000000" stroke-width="6" stroke-linecap="round" stroke-linejoin="round" stroke-miterlimit="10" d="
		M541.9,272.6c0.6-3.2,9.6-1.5,9.9-0.3c0.3,1.2,14.6,4.7,9,8.7c-5.5,4.1-10.5,6.7-13.7,1.5C543.9,277.2,541,277.5,541.9,272.6z"/>
	<path fill="none" stroke="#000000" stroke-width="6" stroke-linecap="round" stroke-linejoin="round" stroke-miterlimit="10" d="
		M494.7,325.6c-2.1-1.7,8.5-5.5,11.4-6.1s4.4,5,7.3,3.8s7.9-13.7,15.2-14s0.3,8.5-1.7,14.3s-8.5,8.7-14.9,8.7
		C505.5,332.3,496.4,327.1,494.7,325.6z"/>
	<path fill="none" stroke="#000000" stroke-width="6" stroke-linecap="round" stroke-linejoin="round" stroke-miterlimit="10" d="
		M559.7,330c1.2-1.7,5-4.4,9,4.7c4.1,9,11.4,6.4,7.6,9.6c-3.8,3.2-12,1.2-13.7-1.2C560.8,340.8,556.8,334.1,559.7,330z"/>
	<path fill="none" stroke="#000000" stroke-width="6" stroke-linecap="round" stroke-linejoin="round" stroke-miterlimit="10" d="
		M643.1,302c0-4.8,14.6-4.7,16.6-1.2s2.9,14.9-1.7,15.2c-4.7,0.3-5.8-1.7-10.2-2.9C643.4,311.9,643.1,306.1,643.1,302z"/>
	<path fill="none" stroke="#000000" stroke-width="6" stroke-linecap="round" stroke-linejoin="round" stroke-miterlimit="10" d="
		M558.6,412.3c-3.9,2.2-2.7-2.1-7.7-5.6c-5.1-3.6-7.1-20.8-1.8-22.6c5.3-1.8,9.5,1.2,13.7,5.1s7.7,3.6,6.2,12.8
		C567.5,411.1,561.2,410.8,558.6,412.3z"/>
	<path fill="none" stroke="#000000" stroke-width="6" stroke-linecap="round" stroke-linejoin="round" stroke-miterlimit="10" d="
		M585.6,357.3c4.3-7.7,16.9,0.6,18.1,4.8c1.2,4.2-1.2,10.7-2.7,15.5s-11.6,8.9-12.2,3.3c-0.6-5.6-1.2-9.5-2.1-12.5
		C585.9,365.3,584.1,360,585.6,357.3z"/>
	<path fill="none" stroke="#000000" stroke-width="6" stroke-linecap="round" stroke-linejoin="round" stroke-miterlimit="10" d="
		M733.4,410.8c-10.4-1.2-9.5-10-5.2-17.6s11.4-19,13.3-8.1c1.9,10.9,3.3,11.9,1.4,18.1C741,409.4,741.5,411.7,733.4,410.8z"/>
	<path fill="none" stroke="#000000" stroke-width="6" stroke-linecap="round" stroke-linejoin="round" stroke-miterlimit="10" d="
		M794.8,449.3c-2.3-5.1,3.8-14.3,7.6-19.5s8.6-3.8,9.5,1c1,4.8,10,3.8,5.7,9s-4.3,11.4-4.3,15.2c0,3.8,6.7,22.3-1.9,22.3
		s-10.5-0.5-9-8.6C803.8,460.7,796.7,453.6,794.8,449.3z"/>
	<path fill="none" stroke="#000000" stroke-width="6" stroke-linecap="round" stroke-linejoin="round" stroke-miterlimit="10" d="
		M906,400.3c4.3-2.1,17.6,3.8,12.4,12.4c-5.2,8.6-11.4,22.3-17.6,22.3c-6.2,0-10-7.1-2.9-10.9s8.6-8.6,3.3-10.9
		C896,410.8,904.1,401.3,906,400.3z"/>
	<path fill="none" stroke="#000000" stroke-width="6" stroke-linecap="round" stroke-linejoin="round" stroke-miterlimit="10" d="
		M532.3,425.5c4.4-1.9,11.4,12.4,8.6,20c-2.9,7.6-12.4,7.6-13.3-1C526.6,436,529,427,532.3,425.5z"/>
	<path fill="none" stroke="#000000" stroke-width="6" stroke-linecap="round" stroke-linejoin="round" stroke-miterlimit="10" d="
		M521.8,468.3c4.3-0.3,10,2.9,7.1,5.7c-2.9,2.9,9,8.1,4.3,13.8c-4.8,5.7-13.3,5.7-14.3,0C518,482.1,515.6,468.8,521.8,468.3z"/>
	<path fill="none" stroke="#000000" stroke-width="6" stroke-linecap="round" stroke-linejoin="round" stroke-miterlimit="10" d="
		M619.3,477.8c4.3-5.9,8.1-6.2,10.9,0c2.9,6.2-1,12.8-5.7,13.3S611.7,488.3,619.3,477.8z"/>
	<path fill="none" stroke="#000000" stroke-width="6" stroke-linecap="round" stroke-linejoin="round" stroke-miterlimit="10" d="
		M729.1,473.6c-1.3-6.5,2.4-6.2,7.6-6.2c5.2,0,16.6-3.3,13.8,4.3c-2.9,7.6-8.1,17.1-19.5,17.1C719.6,488.8,729.6,475.9,729.1,473.6z
		"/>
	<path fill="none" stroke="#000000" stroke-width="6" stroke-linecap="round" stroke-linejoin="round" stroke-miterlimit="10" d="
		M625,504.5c0-5.2,10-4.3,17.6-1.4s21.9,3.8,16.6,7.6c-5.2,3.8-2.4,13.3,1,20.4c3.3,7.1,10.9,13.8,6.2,13.8s-12.8,5.7-17.1,0
		s-3.8-15.7-8.1-23.3C636.9,514,625,507.3,625,504.5z"/>
	<path fill="none" stroke="#000000" stroke-width="6" stroke-linecap="round" stroke-linejoin="round" stroke-miterlimit="10" d="
		M626.9,557.2c2.5-6.2,8.6-1.9,12.8-0.5c4.3,1.4,8.1,5.2,6.7,12.8c-1.4,7.6-10.9,14.7-16.2,14.7C625,584.3,625,562,626.9,557.2z"/>
	<path fill="none" stroke="#000000" stroke-width="6" stroke-linecap="round" stroke-linejoin="round" stroke-miterlimit="10" d="
		M674.9,556.3c0-9,4.8-6.2,14.3-4.3s2.9,20.4-0.5,20.4S674.9,560.6,674.9,556.3z"/>
	<path fill="none" stroke="#000000" stroke-width="6" stroke-linecap="round" stroke-linejoin="round" stroke-miterlimit="10" d="
		M743.4,525.9c2.1,0.5,3.8,8.1,6.2,13.8s3.3,16.2-4.3,15.7s-13.8-2.4-12.4-10.9s6.7-3.8,6.7-9C739.6,530.1,741.5,525.4,743.4,525.9z
		"/>
	<path fill="none" stroke="#000000" stroke-width="6" stroke-linecap="round" stroke-linejoin="round" stroke-miterlimit="10" d="
		M691.6,581.5c1.7-0.7,9-6.7,10.5-1.9s10.9,14.7,7.1,14.7s-2.9,8.1-10.5,3.3C691.1,592.9,684.9,584.3,691.6,581.5z"/>
	<path fill="none" stroke="#000000" stroke-width="6" stroke-linecap="round" stroke-linejoin="round" stroke-miterlimit="10" d="
		M438.4,736.5c-0.1-1.8-1.8-7.1,6.2-4.2c8,3,17.9-0.3,26.5,0s16.1,1.5,10.1,6.5s-6.2,11-6.2,16.1s2.4,15.2-0.6,14s-4.5-3-5.4,1.2
		s-3.9-2.1-12.5-2.1s-12.5-1.2-10.4-10.1C448.2,749,438.7,743.7,438.4,736.5z"/>
	<path fill="none" stroke="#000000" stroke-width="6" stroke-linecap="round" stroke-linejoin="round" stroke-miterlimit="10" d="
		M730,649c0.3-3.9,3-6.2,7.1-1.8c4.2,4.5,8.6,11.6,15.5,13.4c6.8,1.8,8.6,13.7,8.9,19.6c0.3,6,6.2,7.1,6.2,2.4s-2.4-14.3,1.2-12.8
		c3.6,1.5,6.8,17.3,13.4,22.3c6.5,5.1,11,3.9,17,2.7s14.6-1.8,8.3,6c-6.2,7.7-8,11-12.2,11.6s-2.7,6.2-3,9.8s-6,6.5-10.7,6.5
		s-2.1,17-8,16.7c-6-0.3-8-14.3-8-19s-8.6-13.1-12.8-14s-17.3-14.6-17.9-24.7c-0.6-10.1,3.3-23.5-0.9-26.2S729.7,653.2,730,649z"/>
	<path fill="none" stroke="#000000" stroke-width="6" stroke-linecap="round" stroke-linejoin="round" stroke-miterlimit="10" d="
		M662.1,808.9c1.9-1.7,11.3-6.1,11.6-11.3s4.2-10.6,7.4-10.6s5.8-1,9.7-3.2c3.9-2.3,7.4-11.6,13.2-12.6s7.7-2.3,7.7-8.7
		s6.4-10.3,7.7-15.1s7.7-14.2,11.6-14.2c3.9,0,6.1,2.6,6.1,5.8s5.2,1.9,7.7,0c2.6-1.9,4.2,4.5,4.5,7.7s1.6,7.4-1.9,10.6
		c-3.5,3.2-5.8,7.4-5.8,15.1c0,7.7,1.6,11.9-8.1,11.9c-9.7,0-20,2.3-21.3,8.7s-10.9,22.5-13.5,25.8c-2.6,3.2-8.7,11.9-14.2,11.9
		s-9.3,1-10-3.9c-0.6-4.8-1.9-6.8-6.4-6.4C663.7,820.8,652.1,817.9,662.1,808.9z"/>
</g>
<g id="vs-reveal" opacity="0">
	<path fill="none" stroke="#000000" stroke-width="50" stroke-linecap="round" stroke-linejoin="round" stroke-miterlimit="10" d="
		M142.3,167.2c7.8-17.4,49.8-47.4,97.2-55.2s58.2,7.2,27,22.8S162.7,180.4,151.3,190s-25.8,44.4,13.2,28.2s124.8-69,136.8-64.8
		s45,12.6-13.2,43.8s-96,34.8-94.8,58.2s17.4,38.4,43.8,21s73.2-58.8,90.6-56.4c17.4,2.4,29.4,9.6,9,25.8s-112.8,50.4-113.4,60.6
		c-0.6,10.2,6,36.6,32.4,25.2s147-109.8,163.2-117.6c16.2-7.8,36.9-24.1,63.1-16.6c26.3,7.5-3.8,37.5-47.5,62.6
		c-43.8,25-196.4,103.8-230.2,123.9c-33.8,20-138.5,76.3-153.9,85.1c-26.3,15-16.3,58.8,3.8,55s126.4-85.1,152.6-101.3
		S527.1,231.3,548.4,215s50,6.3,11.3,35c-38.8,28.8-191.4,118.9-230.2,142.6S59.1,531.4,49.1,538.9s-5,42.5,18.8,36.3
		c33.6-8.8,205.2-118.9,229-132.6c23.8-13.8,309-190.2,319-192.7s66.3-23.8,51.3,0S510.8,352.5,473.3,376.3
		c-37.5,23.8-254,155.1-297.8,177.7S42.9,612.7,44.1,627.7c1.3,15,12.5,50,46.3,17.5c21.5-20.7,249-155.1,265.2-161.4
		c16.3-6.3,307.8-186.4,315.3-192.7s63.8-27.5,42.5-1.3c-21.3,26.3-145.1,111.4-177.7,132.6c-32.5,21.3-307.8,180.2-344.1,202.7
		S70.4,685.3,74.2,700.3c3.8,15,63.8,6.3,106.3-22.5s260.2-152.7,285.3-171.4s252.7-180.2,266.5-182.7s40-5,28.8,10
		c-11.3,15-80.1,61.3-106.3,82.6C628.4,437.6,233.1,671.5,218,686.5c-15,15,60.1,1.3,78.8-8.8c18.8-10,172.7-115.1,196.4-128.9
		c23.8-13.8,279-190.2,296.5-190.2s45,12.5,22.5,26.3S488.3,586.5,457,610.2c-31.3,23.8-135.1,91.3-133.9,101.3
		c1.3,10,25,27.5,50,10s216.4-150.1,235.2-163.9C627.1,543.8,876,376.2,881,371.2s53.8-37.5,66.3-11.3S853.5,441.2,817.2,465
		c-36.3,23.8-206.4,138.9-249,167.7c-42.5,28.8-167.7,108.8-177.7,118.9c-10,10,2.5,50,20,41.3S542.1,685.3,562.1,674
		s241.5-153.9,252.7-162.6c11.3-8.8,114.1-97.7,123.9-103.8c20-12.5,43.8,20-7.5,52.5c-35.5,22.5-126.4,100.1-161.4,122.6
		c-35,22.5-180.2,121.4-226.5,148.9s-113.9,86.3-90.1,91.3s97.6-53.8,128.9-80.1s200.2-146.4,212.7-152.6s20,38.8-10,57.6
		s-101.3,73.8-127.6,92.6s-87.6,111.4-53.8,91.3c33.8-20,202.7-160.1,221.5-170.2c18.8-10,60.1,12.5,25,42.5
		S648.4,841.7,637.2,852.9c-11.3,11.3-6.3,48.8,30,28.8s170.2-123.9,170.2-123.9"/>
</g>
</svg>
