<?xml version="1.0" encoding="utf-8"?>
<!-- Generator: Adobe Illustrator 22.1.0, SVG Export Plug-In . SVG Version: 6.00 Build 0)  -->
<svg version="1.1"
	 id="layer_1" xmlns:cc="http://creativecommons.org/ns#" xmlns:dc="http://purl.org/dc/elements/1.1/" xmlns:rdf="http://www.w3.org/1999/02/22-rdf-syntax-ns#" xmlns:svg="http://www.w3.org/2000/svg"
	 xmlns="http://www.w3.org/2000/svg" xmlns:xlink="http://www.w3.org/1999/xlink" x="0px" y="0px" width="1000px" height="1000px"
	 viewBox="0 0 1000 1000" enable-background="new 0 0 1000 1000" xml:space="preserve">
<g id="vs-highlight">
	<circle fill="#5DBFD9" cx="765.4" cy="421.7" r="25.3"/>
	<path fill="#5DBFD9" d="M572.4,555.9c-24.2,20-21.3,63.7,6.7,97.6s70.5,44.7,94.7,24.7s21.3-63.7-6.7-97.6
		C639.1,547,596.7,535.9,572.4,555.9z"/>
	<path fill="#5DBFD9" d="M521.6,823.1c-1-1.1-6.4-7.4-15-7.1c-5.4,0.2-9.2,2.8-10.7,3.9c0-99.1,0-221.4,0-341.8c2-0.9,6.4-3.1,9.3-8
		c3.5-5.9,2.6-11.9,2.1-14.8c-0.3-2.2-0.8-5.3-3-8.6c-2.8-4.2-6.6-6.2-8.4-7c0-141,0-275.8,0-363.5
		c-234.3,0-424.1,189.7-424.1,424.1s189.7,424.2,424.1,424.2c0-21.5,0-45.5,0-71.6c1.4,0.8,7.8,4.4,15.7,2.4
		c6.6-1.6,12.8-6.8,14.6-14.3C528.6,831.5,522.5,824.2,521.6,823.1z"/>
	<path fill="#5DBFD9" d="M532.3,206c1.5-12.7,8.2-21,11.1-24.4c3.2-3.8,10.5-12.7,23.5-16c4.3-1.1,22.4-5,35.3,7.2
		c12.7,12,10,29.9,9.4,33.9c-2.6,17.2-14.8,26.8-18.5,29.7c-4.5,3.4-16.1,12.4-31.7,10c-2.4-0.4-16.8-2.8-24.8-15.7
		C530.5,220.8,531.7,210.7,532.3,206z"/>
</g>
<g id="vs-outline">
	<path id="outline" fill="none" stroke="#000000" stroke-width="20" stroke-miterlimit="10" d="M495.9,76.2
		c234.3,0,424.2,189.8,424.2,424.2S730.3,924.5,495.9,924.5S71.8,734.7,71.8,500.3S261.6,76.2,495.9,76.2"/>
	<path id="path76" fill="none" stroke="#000000" stroke-width="16" stroke-miterlimit="10" d="M600.3,171.1
		c15.9,13,16.3,38.9,0.6,57.7s-41,23.4-56.9,10.5s-16.3-38.9-0.6-57.7C558.9,162.7,584.4,158.1,600.3,171.1"/>
	<path id="path78" fill="none" stroke="#000000" stroke-width="10" stroke-miterlimit="10" d="M765.4,396.4
		c14,0,25.3,11.3,25.3,25.3S779.4,447,765.4,447s-25.3-11.3-25.3-25.3C740.1,407.7,751.4,396.4,765.4,396.4"/>
	<path id="path80" fill="none" stroke="#000000" stroke-width="10" stroke-miterlimit="10" d="M484.9,437c4,0.4,23.4,1.9,22.6,23.2
		c-0.6,16.9-14.6,21.5-22.2,21.3c-7.7-0.2-21.1-5.4-21.1-22.2c0-18.2,14.8-21.9,21.5-22.4"/>
	<path id="path82" fill="none" stroke="#000000" stroke-width="16" stroke-miterlimit="10" d="M667.1,580.6
		c28,33.9,30.9,77.6,6.7,97.6s-66.7,9.2-94.7-24.7s-30.9-77.6-6.7-97.6C596.7,535.9,639.1,547,667.1,580.6"/>
	<path id="path84" fill="none" stroke="#000000" stroke-width="10" stroke-miterlimit="10" d="M507.4,817c10.9,0,19.4,8.8,19.4,19.4
		s-8.8,19.4-19.4,19.4c-10.7,0-19.4-8.8-19.4-19.4S496.6,817,507.4,817"/>
	<path id="path86" fill="none" stroke="#000000" stroke-width="10" stroke-miterlimit="10" d="M267.5,636.8c5,0.4,29.3,2.5,28.2,32
		c-0.6,23.4-18.2,29.7-27.8,29.5c-9.6-0.2-26.3-7.5-26.3-30.7c0-25.1,18.6-30.5,26.8-30.9"/>
	<path id="path88" fill="none" stroke="#000000" stroke-width="16" stroke-miterlimit="10" d="M326.6,251.8
		c43.9,25.5,53.5,91.1,21.5,146.8s-93.9,80.3-137.8,54.8s-53.5-91.1-21.5-146.8S282.7,226.5,326.6,251.8"/>
</g>
<g id="vs-h-reveal" opacity="0">
	
		<line id="line91" fill="none" stroke="#D01100" stroke-width="33" stroke-linecap="round" stroke-linejoin="round" stroke-miterlimit="10" x1="87.9" y1="437.8" x2="92.5" y2="578.1"/>
	
		<line id="line93" fill="none" stroke="#D01100" stroke-width="33" stroke-linecap="round" stroke-linejoin="round" stroke-miterlimit="10" x1="102.5" y1="377.2" x2="102.9" y2="622"/>
	
		<line id="line95" fill="none" stroke="#D01100" stroke-width="33" stroke-linecap="round" stroke-linejoin="round" stroke-miterlimit="10" x1="117.1" y1="337.5" x2="119.7" y2="668"/>
	
		<line id="line97" fill="none" stroke="#D01100" stroke-width="33" stroke-linecap="round" stroke-linejoin="round" stroke-miterlimit="10" x1="136" y1="297.8" x2="136.4" y2="699.3"/>
	
		<line id="line99" fill="none" stroke="#D01100" stroke-width="33" stroke-linecap="round" stroke-linejoin="round" stroke-miterlimit="10" x1="150.6" y1="279" x2="155.2" y2="724.4"/>
	
		<line id="line101" fill="none" stroke="#D01100" stroke-width="33" stroke-linecap="round" stroke-linejoin="round" stroke-miterlimit="10" x1="170.2" y1="431.2" x2="171.9" y2="753.7"/>
	
		<line id="line103" fill="none" stroke="#D01100" stroke-width="33" stroke-linecap="round" stroke-linejoin="round" stroke-miterlimit="10" x1="169.4" y1="251.8" x2="169.8" y2="317.2"/>
	
		<line id="line105" fill="none" stroke="#D01100" stroke-width="33" stroke-linecap="round" stroke-linejoin="round" stroke-miterlimit="10" x1="192.2" y1="454.1" x2="194.9" y2="778.8"/>
	
		<line id="line107" fill="none" stroke="#D01100" stroke-width="33" stroke-linecap="round" stroke-linejoin="round" stroke-miterlimit="10" x1="190.3" y1="224.6" x2="190.9" y2="282.1"/>
	
		<line id="line109" fill="none" stroke="#D01100" stroke-width="33" stroke-linecap="round" stroke-linejoin="round" stroke-miterlimit="10" x1="214.4" y1="469.2" x2="216" y2="801.2"/>
	
		<line id="line111" fill="none" stroke="#D01100" stroke-width="33" stroke-linecap="round" stroke-linejoin="round" stroke-miterlimit="10" x1="213.7" y1="203.3" x2="214.4" y2="256"/>
	
		<polyline id="polyline113" fill="none" stroke="#D01100" stroke-width="33" stroke-linecap="round" stroke-linejoin="round" stroke-miterlimit="10" points="
		225,663.8 239.9,707.7 241.1,824.1 	"/>
	
		<line id="line115" fill="none" stroke="#D01100" stroke-width="33" stroke-linecap="round" stroke-linejoin="round" stroke-miterlimit="10" x1="238" y1="477.1" x2="239.6" y2="638.4"/>
	
		<line id="line117" fill="none" stroke="#D01100" stroke-width="33" stroke-linecap="round" stroke-linejoin="round" stroke-miterlimit="10" x1="236.7" y1="180.3" x2="238" y2="240.9"/>
	
		<line id="line119" fill="none" stroke="#D01100" stroke-width="33" stroke-linecap="round" stroke-linejoin="round" stroke-miterlimit="10" x1="266.8" y1="709.8" x2="268.3" y2="843"/>
	
		<line id="line121" fill="none" stroke="#D01100" stroke-width="33" stroke-linecap="round" stroke-linejoin="round" stroke-miterlimit="10" x1="265.2" y1="476.1" x2="266.8" y2="624.1"/>
	
		<line id="line123" fill="none" stroke="#D01100" stroke-width="33" stroke-linecap="round" stroke-linejoin="round" stroke-miterlimit="10" x1="263.9" y1="163.6" x2="265.2" y2="229.4"/>
	
		<polyline id="polyline125" fill="none" stroke="#D01100" stroke-width="33" stroke-linecap="round" stroke-linejoin="round" stroke-miterlimit="10" points="
		312.5,661.9 295.6,707.8 295.5,859.7 	"/>
	
		<line id="line127" fill="none" stroke="#D01100" stroke-width="33" stroke-linecap="round" stroke-linejoin="round" stroke-miterlimit="10" x1="290.9" y1="465.7" x2="296.3" y2="636.7"/>
	
		<line id="line129" fill="none" stroke="#D01100" stroke-width="33" stroke-linecap="round" stroke-linejoin="round" stroke-miterlimit="10" x1="289" y1="144.7" x2="290.9" y2="229.4"/>
	
		<line id="line131" fill="none" stroke="#D01100" stroke-width="33" stroke-linecap="round" stroke-linejoin="round" stroke-miterlimit="10" x1="320.6" y1="447" x2="324.9" y2="871.8"/>
	
		<line id="line133" fill="none" stroke="#D01100" stroke-width="33" stroke-linecap="round" stroke-linejoin="round" stroke-miterlimit="10" x1="318.5" y1="129.3" x2="322.6" y2="238.7"/>
	
		<polyline id="polyline135" fill="none" stroke="#D01100" stroke-width="33" stroke-linecap="round" stroke-linejoin="round" stroke-miterlimit="10" points="
		361.7,399.8 347.7,432.2 353.2,887.7 	"/>
	
		<line id="line137" fill="none" stroke="#D01100" stroke-width="33" stroke-linecap="round" stroke-linejoin="round" stroke-miterlimit="10" x1="346.5" y1="117.8" x2="353.4" y2="262.1"/>
	
		<line id="line139" fill="none" stroke="#D01100" stroke-width="33" stroke-linecap="round" stroke-linejoin="round" stroke-miterlimit="10" x1="375.9" y1="107.3" x2="383.5" y2="896.5"/>
	
		<line id="line141" fill="none" stroke="#D01100" stroke-width="33" stroke-linecap="round" stroke-linejoin="round" stroke-miterlimit="10" x1="407.3" y1="96.9" x2="414.8" y2="903.8"/>
	
		<line id="line143" fill="none" stroke="#D01100" stroke-width="33" stroke-linecap="round" stroke-linejoin="round" stroke-miterlimit="10" x1="439.5" y1="91" x2="446.8" y2="908"/>
	
		<polyline id="polyline145" fill="none" stroke="#D01100" stroke-width="33" stroke-linecap="round" stroke-linejoin="round" stroke-miterlimit="10" points="
		454.8,443.7 474.2,418.6 472.5,91.2 	"/>
	
		<polyline id="polyline147" fill="none" stroke="#D01100" stroke-width="33" stroke-linecap="round" stroke-linejoin="round" stroke-miterlimit="10" points="
		476.9,912.2 474.4,497 454.1,475.3 	"/>
	
		<line id="line149" fill="none" stroke="#D01100" stroke-width="33" stroke-linecap="round" stroke-linejoin="round" stroke-miterlimit="10" x1="497.4" y1="423.8" x2="495.5" y2="89.1"/>
	
		<line id="line151" fill="none" stroke="#D01100" stroke-width="33" stroke-linecap="round" stroke-linejoin="round" stroke-miterlimit="10" x1="499.5" y1="805.3" x2="497.4" y2="494.9"/>
	
		<line id="line153" fill="none" stroke="#D01100" stroke-width="33" stroke-linecap="round" stroke-linejoin="round" stroke-miterlimit="10" x1="499.9" y1="912.2" x2="499.5" y2="868"/>
	
		<polyline fill="none" stroke="#D01100" stroke-width="33" stroke-linecap="round" stroke-linejoin="round" stroke-miterlimit="10" points="
		612.5,267.5 577.6,200.5 546.7,304.3 555.9,117.8 572,273.7 623.2,246.6 572,127 790.7,352.5 790.7,469.2 756.2,359.4 756.2,508.1 
		729,382 690.4,578.1 690.4,698.3 653.8,508.1 653.8,709.8 623.2,516 623.2,724.4 589,516 589,733.4 555.9,532.7 	"/>
	
		<polyline fill="none" stroke="#D01100" stroke-width="33" stroke-linecap="round" stroke-linejoin="round" stroke-miterlimit="10" points="
		168,351.9 224,265.9 167,389.9 258,247.9 181,409.9 286,244.9 184,436.9 314,244.9 203,451.9 336,258.9 228,461.9 357,277.9 
		258,464.9 371,305.9 300,451.9 361,370.9 467,445.9 473,474.9 484,437.9 495.9,478.1 508,450.9 251,640.9 246,681.9 272,642.9 
		266,690.9 289,652.9 293,687.9 491,837.9 503,819.9 517,847.9 527,830.9 	"/>
</g>
</svg>
