<?xml version="1.0" encoding="utf-8"?>
<!-- Generator: Adobe Illustrator 18.0.0, SVG Export Plug-In . SVG Version: 6.00 Build 0)  -->
<!DOCTYPE svg PUBLIC "-//W3C//DTD SVG 1.1//EN" "http://www.w3.org/Graphics/SVG/1.1/DTD/svg11.dtd">
<svg version="1.1" xmlns="http://www.w3.org/2000/svg" xmlns:xlink="http://www.w3.org/1999/xlink" x="0px" y="0px" width="600px"
	 height="600px" viewBox="0 0 600 600" enable-background="new 0 0 600 600" xml:space="preserve">
<g id="Layer_1">
	<rect x="14.6" y="93.2" fill="#F2623E" width="567.6" height="126.1"/>
	<rect x="14.6" y="219.3" fill="#F9F9FA" width="567.6" height="126.1"/>
	<rect x="14.6" y="345.5" fill="#7ABE90" width="567.6" height="126.1"/>
	<circle fill="none" stroke="#2B3990" stroke-width="4.0583" stroke-miterlimit="10" cx="298.4" cy="282.4" r="59.9"/>
	<line fill="none" stroke="#2B3990" stroke-width="4.0583" stroke-miterlimit="10" x1="298.4" y1="222.5" x2="298.4" y2="342.3"/>
	<line fill="none" stroke="#2B3990" stroke-width="4.0583" stroke-miterlimit="10" x1="238.5" y1="282.4" x2="358.3" y2="282.4"/>
	<line fill="none" stroke="#2B3990" stroke-width="4.0583" stroke-miterlimit="10" x1="256" y1="240" x2="340.8" y2="324.8"/>
	<line fill="none" stroke="#2B3990" stroke-width="4.0583" stroke-miterlimit="10" x1="256" y1="324.8" x2="340.8" y2="240"/>
	<line fill="none" stroke="#2B3990" stroke-width="4.0583" stroke-miterlimit="10" x1="275.5" y1="227" x2="321.3" y2="337.7"/>
	<line fill="none" stroke="#2B3990" stroke-width="4.0583" stroke-miterlimit="10" x1="243.1" y1="305.3" x2="353.8" y2="259.5"/>
	<line fill="none" stroke="#2B3990" stroke-width="4.0583" stroke-miterlimit="10" x1="243.1" y1="259.5" x2="353.8" y2="305.3"/>
	<line fill="none" stroke="#2B3990" stroke-width="4.0583" stroke-miterlimit="10" x1="275.5" y1="337.7" x2="321.3" y2="227"/>
</g>
<g id="Layer_2">
	
		<path opacity="0" fill="none" stroke="#27AAE1" stroke-width="88.9974" stroke-linecap="round" stroke-linejoin="round" stroke-miterlimit="10" d="
		M46.1,93.2c0,0-29.7,53.2-31.5,63.1c-1.8,9.9,194-58.9,157.7-63.1C159.9,91.8-0.6,252.7-0.3,282.4C0.9,375,254.9,99.7,298.4,93.2
		C388,79.8,14.6,408.5,14.6,408.5L424.5,93.2c0,0-395.1,377.6-378.4,378.4c90.1,4.3,473-378.4,473-378.4S152.8,472,172.3,471.6
		c75.5-1.7,418.6-389.8,429.1-350.5c14.2,53.4-289.1,349.9-303,350.5c-13.9,0.7,283.8-220.7,283.8-220.7s-230,220.2-157.7,220.7
		c50.5,0.3,156.3-128.4,157.7-126.1s-63.1,126.1-63.1,126.1h63.1"/>
</g>
</svg>
