<?xml version="1.0" encoding="utf-8"?>
<!-- Generator: Adobe Illustrator 23.0.4, SVG Export Plug-In . SVG Version: 6.00 Build 0)  -->
<svg version="1.1" id="Layer_1" xmlns="http://www.w3.org/2000/svg" xmlns:xlink="http://www.w3.org/1999/xlink" x="0px" y="0px"
	 width="1000px" height="1000px" viewBox="0 0 1000 1000" enable-background="new 0 0 1000 1000" xml:space="preserve">
<g id="vs-secondary">
	<path fill="#27A8CB" d="M967.6,378.3c-11.7-20.9-35-34.4-59.3-34.4c-9.7,0-18.8,2.1-27.2,6.3c-13,6.5-25.9,19.7-32.6,36.3
		c-11.1-10.4-25.6-16.1-40.8-16.1c-4,0-7.9,0.4-11.7,1.1c-6.5-27.9-29.5-47-57.2-47c-6,0-14.9,1-24.5,5.4c6.6-20.8,2-43.4-6.1-57.4
		c-11.2-19.3-31.9-30.3-56.7-30.3c-9.3,0-18.1,1.6-26.2,4.8c-4.6,1.8-8.9,4.1-12.8,6.9c-5.1-10.6-13.5-19.6-24.3-26
		c-3.1-1.9-6-3.3-8.6-4.4c-4.4-2.6-9.2-4.6-14.3-6.1c-3.2-3.3-6.9-6.4-11-9c-6.5-4-17.2-8.9-31.6-8.9c-8.2,0-15.5,1.5-22.8,3.2
		c-0.1,0-0.1,0-0.2,0c-5.5-1.6-11.7-2.6-18.7-2.6c-2.4,0-4.7,0.1-6.9,0.3c-5.2-1.7-12.3-3.6-20.7-4c-1,0-2.1-0.1-3.2-0.1
		c-9.3,0-17.5,1.8-23.4,3.3c-6.7,0.1-12.5,1-16.2,1.7c-20.1,4.1-32.8,15.1-40.1,27.6c-2.3-0.3-4.7-0.4-7.1-0.4
		c-5.7,0-10.9,0.8-15.5,1.9c-3.6-2-7.7-3.7-12.3-5c0-0.2-0.1-0.4-0.1-0.6c-3.6-15.2-13.1-28.1-26.8-36.7c0.5-3,0.7-6,0.7-9
		c0-10.4-2.7-18.4-4-22.3c-0.1-0.3-0.2-0.6-0.3-1c-7.5-33.5-34.6-48.6-58.2-48.6c-5.8,0-11.1,0.8-15.7,2.1
		c-3.8-0.7-7.6-1.1-11.6-1.1c-19.4,0-38.1,9.7-50.4,24.7c-16.5,10.2-27.4,27.7-29.3,48.1c-2.4,25.3,9.4,49.9,30,62.5
		c6.4,3.9,13.4,6.7,20.7,8.2c2.1,1.4,4.4,2.8,6.8,4c0,1-0.1,2.1-0.1,3.1c0,29.5,17.8,55.3,44.4,64.7c2.3,0.9,6.3,2.6,11.6,3.8
		c0.3,0.5,0.6,1.1,0.9,1.6c0.3,0.9,0.6,1.7,1,2.6c1.8,4.4,4.1,8.5,6.8,12.3c-8.4,3.4-16.8,8.5-23.9,15.8c-0.2,0-0.4,0-0.6,0.1
		c-2.7-0.3-5.3-0.5-8-0.5c-16.7,0-32.4,6.5-44.1,18.2c-1,1-2,2-2.9,3.1c-3.5,2.4-6.7,5.1-9.7,8.2c-0.9,1-1.8,2-2.6,3
		c-20,8.5-30.6,26.8-36.4,36.7c-0.4,0.7-0.8,1.4-1.2,2.2c-2.7,0.9-5.3,1.6-6.8,2c-3.7,0.8-26.7,6.2-37.9,11.2
		c-6.9,3-12.6,6.9-17.1,10.7c-9,4.2-17.2,11-24.5,20.3c-7.5,9.5-11,19.3-12.6,27.1c-5.2,10.5-7.2,22.2-5.7,33.8
		c-2.5,9.7-2.8,21.8,1.4,36.2c2.1,7,5,12.8,8,17.4c2.7,10.8,7.1,18.6,9.8,23.2c0,0.1,0.1,0.3,0.1,0.4c-5.1,10.4-7.2,22.2-5.8,34.1
		c2.2,18,12,34,27.1,44.5c0.8,0.9,1.7,2,2.6,3c11.2,12.1,26.6,18.8,43.5,18.8c12.8,0,23.1-3.9,30.6-6.7c0.7-0.3,1.6-0.6,2.3-0.9
		c8.9-1.6,16-4.6,21.3-7.4c1.5,0.1,3,0.2,4.7,0.3c1,0,2.1,0.1,3.1,0.1c10.5,0,19-2.6,24.7-4.8c8.4-0.7,20.2-3,31.2-11.4
		c2.3,0,4.5,0.1,6.6,0.2c2.9,0.1,5.9,0.2,9,0.2c7.6,0,14.2-0.6,20.9-1.9c3.2-0.6,6.3-1.4,9.2-2.3c7.8,12,17.9,20.6,24.5,24.6
		c6.9,4.3,14.5,7.1,22.4,8.3c1,0.4,2,0.8,3,1.2c1.4,0.5,2.8,1,4.3,1.4c3.1,6.4,7,12.2,11.5,17.3c7.3,8.4,16,14.7,25.7,18.7
		c5.7,3.6,11.3,5.8,16.5,7.2c1.1,3.3,2.4,6.2,3.7,8.8c1.1,16.3,8,27.9,13,34.2c10.6,13.4,25.4,21.1,44,23.1c5.2,2,12.4,4,21.2,4
		c8.3,0,16.2-1.8,23.3-5c9.9-3,18.8-8.6,25.8-16.5c13-14.5,15-30.7,14.7-42c6.2-11.1,8.7-23.8,7-36.3c7-7.8,12-17.3,14.5-27.9
		c1.7-7.5,1.9-14.3,1.8-19.3c7.3-4.5,17.6-12.2,25.3-25.3c5.7-9.8,8.4-20.1,10.6-30.3c10.7,9.7,24.5,15.3,39.1,15.3
		c8.7,0,17.4-1.9,25.5-5.3c4,3.7,8.4,7.1,13.3,10.1c1.6,1,3.3,2,5,2.8c-0.5,12.4,1.7,22.6,5.2,31c-0.2,3.6-0.3,7.7,0,12
		c0.2,4.1,0.9,8.1,1.8,11.9c-5.1,6.3-9,13.1-11.9,19.6c-1.5,2.1-3.3,4.7-5,7.9c-2,1.7-3.8,3.4-5.4,5c-11.1,4.5-20.8,12.3-28.2,22.9
		c-1.9,2.7-3.5,5.5-5,8.3c-0.3,0.2-0.6,0.5-0.8,0.8c-24.7,22.3-25.7,50.4-18.4,69.2c5.6,14.4,16.3,25.8,30,32.7
		c11.1,11.1,26.6,17.6,44.2,17.6c1.1,0,2.2,0,3.5-0.1c0.3,0,0.6,0,0.8,0c32.3,0,51.2-24.4,57.5-32.4l0.4-0.6
		c3.8-4.7,7.7-11.1,10.5-16c12.9-3.6,21.8-10.3,27.6-16.2c7.6-7.9,11.9-16.4,14.2-24.1c13.7-5.2,25.1-15.5,32-29.3
		c7.6-6.5,13.4-14.4,17.1-23.3c2-2.2,3.6-4.3,4.9-6c0.7-0.9,1.5-1.9,2.5-3.1c15.6-19.4,19-43.5,9-64.5
		c-8.3-17.4-24.6-29.2-43.9-32.5c-5.4-7.8-13.5-15.8-25.7-20.9c-0.3-0.1-0.5-0.2-0.8-0.3c-2.9-2.2-5.9-4.2-9.1-6
		c-0.8-0.9-1.6-1.9-2.6-2.9c-1.4-1.5-2.9-3-4.4-4.3c9.2-4.7,17.1-11.6,23-20.4c9.7-14.6,12.9-32.9,9.3-51c1.9,0.1,3.7,0.1,5.5,0.1
		c18.3,0,35.3-8.1,46.6-22.2c7.3-9.1,11-18.6,12.6-27.7c9,4.8,19.3,7.5,30.1,7.5c11.6,0,33.8-3.6,52-27.5
		c4.7-6.2,8.2-12.5,11.1-17.6c0.9-1.5,1.8-3.1,2.3-4C978.3,422.1,978.8,398.3,967.6,378.3z M758.8,462.4c1.4,2.1,3.5,6.5,1.1,12.8
		c-4,10.8-12.3,23.6-28.9,23.6c-7.6,0-11.4-3.5-13.3-6.4c-4.5-6.9-1-14.6,1-19.2c0.1-0.1,0.1-0.3,0.2-0.4c-0.3-4.1,0.7-7.6,2.9-10.4
		c4.1-5,10.2-5,13.4-5h1.5c0.6,0,1.9-0.1,3-0.3c1.9-0.2,4.1-0.5,6.3-0.5C751.9,456.6,756.2,458.6,758.8,462.4z M758.4,558.8
		c-2.8,4.2-7.4,6.6-12.6,6.6c-0.4,0-0.7,0-1.1,0c-6-0.4-13.5-1.6-18.3-7.6c-2.2-2.8-4.5-7.6-3.3-15c1.1-6.5,4.1-9.9,6.8-11.8
		c1.2-9.1,6.3-15.2,13.3-15.2c0.9,0,1.8,0.1,2.7,0.3c6.7,1.7,8.8,7.9,11.1,14.5c0.6,1.8,1.2,3.6,1.9,5.1
		C761.5,542.1,762.9,551.9,758.4,558.8z M719.5,388.3c5.2-9.3,10.7-17.7,19.2-17.7c2.5,0,10.6,0.9,12.7,12.8
		c0.5,2.8,0.9,4.8,1.3,6.7c1.1,5.3,2,9.1-0.2,16.1c-0.2,0.7-0.4,1.3-0.5,1.8c-1.1,3.9-3.7,13-15.6,13c-1.2,0-2.6-0.1-4.1-0.3
		c-9.5-1.1-13.6-6.5-15.2-9.6C713.9,404.8,714.7,396.7,719.5,388.3z M651.3,288.3c4.7,0,13.2,1,17,7.5c2.9,4.9,4.6,16.1,0.8,23.2
		c-2.2,4.2-6.1,6.7-10.6,7c-0.5,0-1,0-1.5,0c-4.6,0-7.7-1.4-9.7-2.4c-0.9-0.4-1.5-0.7-2.2-0.9c-8-2.1-12.1-9.1-12.1-20.7
		C633.1,295.2,638.7,288.3,651.3,288.3z M408.7,256.9c0.2-4.2,3-11.2,18.8-11.2c1.3,0,2.5,0.1,3.6,0.2c1.1-0.2,3.4-0.7,4.9-1.1
		c4.4-1.1,9.4-2.4,14-2.4c0.4,0,0.7,0,1.1,0c4.5,0.2,8.5,1.7,12,3c2,0.8,4.6,1.7,5.7,1.7c0.9-0.1,1.7-0.2,2.6-0.3
		c3-0.3,6.3-0.7,9.3-0.7c2.4,0,9.5,0,12.9,6.3c0.1,0.2,0.2,0.5,0.3,0.8c1.6-1.4,3.2-2.2,4-2.6c2.6-1.2,5.7-2.1,8.5-2.4
		c0.4-0.1,2.1-0.4,3.3-0.7c5.1-1.1,9.2-2,12.7-2c2.8,0,5.2,0.6,7.2,1.9c5,3.1,7.3,10,7.2,15.8c2.2-1.5,5.1-2.5,9-2.5
		c2.2,0,8.2,0.3,12.2,3.6c0.2,0.1,0.4,0.2,0.6,0.3c5,2.1,12.5,5.3,13.4,13.1c0.5,4.4-1.4,8.5-5.3,11.3c-4.5,3.3-9.4,6.3-15.1,6.3
		c-5.4,0-10.1-2.7-13.1-7.7c-0.6-1-1.1-1.6-1.9-2.3c-1.7-1.8-4.6-4.8-4.9-10.2c-1.3,1.1-2.9,2-4.7,2.6c-5,1.6-17.3,4-23.4,4
		c-5.8,0-10.6-3.1-12.8-8.4c-0.6-1.4-0.9-2.7-1.1-4c-3.8,6.5-9.8,15.1-19.6,15.1c-4.1,0-8.2-0.6-12.1-1.1c-3.3-0.5-6.4-0.9-8.9-0.9
		c-3.5,0-9.7-0.5-15.5-1.9c-3.6-0.9-14.4-3.5-16.6-12.8C411,266.1,408.4,261.2,408.7,256.9z M238,221c-0.8-0.4-3.6-1-5.5-1.4
		c-8.1-1.9-19.2-4.4-22.7-13.5c-2.1,0.7-4.2,1.1-6.4,1.1c-3.4,0-6.7-0.9-9.6-2.7c-6.5-4-8.8-12.4-8.2-18.9c0.7-7,4.6-12.4,10.4-14.6
		c4.6-1.7,5.4-2.7,5.5-2.8c2.3-7.3,10.7-13.7,18-13.7c4.9,0,8.9,2.5,11,6.6c1-0.8,2.1-1.5,3.3-2.2c0.8-0.4,1.6-0.9,2.5-1.5
		c2.9-1.8,6.2-3.9,10.5-3.9c3.1,0,10.8,1.2,13.3,12.7c0.5,2.2,1,3.8,1.6,5.4c1.3,3.9,3.4,10.1-1.3,16.5l0,0c0.5,3,1.3,8-0.7,14.3
		c-0.5,1.7-1,3.4-1.4,5.1c-1.2,4.9-3.7,15.1-13.9,15.1C242.3,222.6,240.2,222.1,238,221z M487.7,746.5c-2.3,2-2.7,3.8-2.7,8.5
		c0,1,0.2,2.9,0.4,4.5c0.7,6.3,1.3,11.7-2.5,16c-2,2.3-4.9,3.6-7.9,3.6c-2.1,1.8-4.8,2.5-7,2.5c-3.1,0-5.3-1.2-7-2.1
		c-1.5-0.8-2.6-1.4-4.4-1.4c-4.8,0-12.8,0-17.8-6.2c-4.8-6-3-13.7-2.4-16.2c0.2-0.8-0.9-2.6-2.5-5c-2.3-3.5-5.2-7.8-5.5-13.5V737
		c-0.2-1.9-0.9-7.1,2.9-11.4c2.3-2.6,5.7-4.1,9.5-4.1c2.2,0,4.6,0.5,7.4,1.5c1.2,0.4,2.7,0.6,4.6,0.6c2.3,0,4.9-0.3,7.6-0.6
		c3.1-0.3,6.3-0.7,9.6-0.7c0.5,0,1,0,1.5,0c6.8,0.2,18.1,0.6,21.3,9.6C493.6,734.4,494.7,740.5,487.7,746.5z M550.8,596.1
		c-1.1,2.3-2.7,9.9-3.7,14.5c-1.9,8.9-3.5,16.6-6.4,21.5c-3.4,5.9-8.9,9-13.3,11.5c-3.4,1.9-6.3,3.6-7.9,6
		c-2.8,4.4-10.3,15.9-10.5,23.9c0,1.9,0,3.8,0,5.5c0.2,7.3,0.4,18.3-10.6,22.3c-3,1.1-7,1.8-11.7,2.6c-2.5,0.4-6.4,1.1-8.7,1.7
		c-2.5,4.4-6.5,8.5-16.1,9.2c-2,0.1-3.9,0.5-5.8,0.8c-2.3,0.4-4.5,0.8-6.8,0.8c-6.7,0-10.1-3.7-11.6-5.8c-0.1-0.2-0.3-0.4-0.4-0.6
		c-4.4,3.2-9.9,5.8-15,6.1c-0.6,0-1.1,0-1.6,0c-5.6,0-10.6-1.4-15-4.2c-2,1.1-3.9,1.4-5.4,1.4l0,0c-4.6,0-7.4-2.7-8.8-4.3
		c-9.2-1.4-17-9.9-20.7-22.7c-0.5-1.8-1-3.6-1.5-5.3c-0.4-1.4-0.9-3.2-1.3-4.8c-1.4,0.3-2.9,0.6-4.6,0.6c-4.3,0-8-1.7-10.6-4.9
		c-0.2-0.3-0.7-0.9-1.1-1.7c-1.1,0.2-2.2,0.4-3.2,0.4c-1.6,0-3.2-0.3-4.6-0.8c-2.2-0.8-4-2.2-5.3-4.1c-2,0.8-3.7,0.8-4.4,0.8
		c-2.5,0-5-0.7-7.3-2.2c-4.5-2.8-13.2-12.2-13.8-20.4c0-0.1,0-0.1,0-0.2c-2.3-1.1-4.8-3.1-6-7c-5.8-0.4-11.8-1.5-16.2-5.3
		c-1.9-1.6-3.1-3.5-3.9-5.2c-2.7,0.9-6.4,2.5-9.6,3.8c-5.7,2.5-11.6,5-17,6c-3.7,0.7-7.5,1.1-12.1,1.1c-2.4,0-4.9-0.1-7.5-0.2
		c-3.3-0.1-6.9-0.2-11.3-0.2c-1.2,0-2.4,0-3.7,0c-3.3,0-11.7,0.2-16.7,0.9c0,1.9-0.6,4.3-2.4,6.6c-3.4,4.2-7.8,4.2-13.4,4.2
		c-2.3,0-3.8,0.7-6,1.7c-2.5,1.2-6,2.8-10.5,2.8c-0.3,0-0.6,0-0.9,0c-1.4-0.1-2.7-0.2-4-0.2c-2.5-0.2-4.8-0.3-8.5-0.3
		c-1.3,0-2.8,0-4.5,0.1c-2.3,0.1-4,1.1-7.1,3c-3.4,2.1-7.7,4.8-13.6,5.5c-2.1,0.3-6,1.7-9.1,2.9c-5.1,1.9-9.9,3.8-14.3,3.8
		c-4.9,0-8-2.2-9.7-4c-1.3-1.4-2.3-2.7-3.1-3.9c-1.6-2.1-2.2-3-3.7-3.7c-6.2-2.9-10.3-8.2-11-14.2c-0.6-4.7,1-9.2,4.4-12.5
		c0.1-0.6,0.2-1.5,0.3-2.1c0.2-1.5,0.4-3,0.9-4.5c1.1-3.5,3.2-5.7,5.6-7c-1.2-3.5-3-7.4-4.5-10.6c-1.8-3.9-3.4-7.3-4.3-10.3
		c-0.4-1.3-1.4-2.9-2.5-4.7c-2.5-4.2-6-10-6-18.6c0-0.6-0.1-1-0.1-1.2c-0.2-0.2-0.6-0.6-0.9-0.9c-1.9-1.8-5-4.8-6.6-10.2
		c-1.6-5.3-2.6-10.9,0.9-15.6c1.6-2.2,3.9-3.6,6.5-4.2c-3.1-1.3-5.6-3.8-6.7-7c-1.3-3.8-0.9-9.2,3.8-13.9c0-0.4,0.1-0.9,0.1-1.2
		c0.2-3.5,0.5-8.8,4.3-13.6c2.7-3.4,6.3-8,12.3-8.1c3-3.1,6.9-7.1,11.7-9.3c5.8-2.5,24.5-7.3,29.7-8.4c6.3-1.4,24.1-7.2,29.2-10.2
		c1.7-3.6,5-9.9,8.4-15.7c8.7-15,13-17.9,18.3-18.3c0.3,0,0.5,0,0.8,0c1.5,0,2.8,0.2,3.9,0.6c1.4-1.4,3.1-2.5,5.4-2.9
		c0.4-4.4,1.9-8.1,4.3-10.7c2-2.2,4.6-3.5,7.4-3.8c2.2-5.2,6.7-11.3,15.8-11.3c2.2,0,4.5,0.4,7,1.2c0.3-0.1,0.7-0.2,1-0.2
		c1.6-0.4,3.6-0.8,5.8-0.8c5.2,0,9.6,2.5,12.1,6.8c0.4,0.6,0.7,1.2,1,1.8c0.5-0.2,1-0.3,1.6-0.5c0-1.4,0.3-2.6,0.6-3.6
		c1.2-3.9,4.1-7,8-8.7c0.2-2.7,1.2-5.3,3-7.6c4.3-5.8,13.1-9.2,19.2-9.2c1.5,0,3,0.2,4.3,0.7c0.6,0.2,1.5,0.4,2.3,0.4
		c0.7,0,1-0.1,1-0.2c3.5-4.4,8-8.8,14.3-8.8c1.8,0,4.3,0.4,7,2c0.2,0,0.4,0,0.5,0c1-0.1,2.3-0.2,3.7-0.2c4,0,7.3,0.8,10.3,2.5
		c0.6,0.3,1.2,0.7,1.8,1c0.3,0.2,0.7,0.4,1.1,0.7c1.6-0.9,3.5-1.3,5.4-1.3c0.7,0,1.4,0.1,2,0.2c1.8-1.1,3.9-1.8,6.2-1.8
		c6.9,0,14.3,6.3,14.3,17.9c0,14.7-6.1,19.2-10.8,20.4c-0.6,1-1.4,2.1-2.4,3.1c1.6-0.2,3.3-0.3,5-0.3c10.1,0,17.5,3.6,20.8,10.2
		c2.3,4.6,2.7,4.9,4.5,6c4.1,2.4,8,6.9,10.4,11.6c0.1,0,0.1,0,0.2,0c2.2-3.4,6.2-14,6.2-18.3c0-2.9-0.1-5.6-0.2-8.2
		c-0.1-3.9-0.2-7.5-0.1-11.4c0.2-4.7,1.9-9.2,3.3-13.2c0.6-1.7,1.6-4.3,1.7-5.2c0-5.1,3.3-11.2,7.8-15.2c-2.3-0.2-4.6-0.7-6.8-1.6
		c-1.4-0.5-2.8-0.8-4.4-1.1c-4-0.8-12-2.4-14.6-10.6c-4.6,1.7-9.9,3-13.7,3c-4.2,0-8-2-10.4-5.5c-4-6-2.5-14.1-1.1-17.6
		c1.1-2.9,3-4.7,5.1-5.8c-1-1-2.1-2-3.3-3.1c-0.8-0.7-1.5-1.4-2-1.9c-2.8-2-13.2-6.4-16.5-6.4c-8,0-17.5-1.1-23-5.8
		c-1.9,1-4.2,1.6-7.1,1.6c-1,0-2.1-0.1-3.4-0.3c-2.6-0.4-10.7-2.3-11.3-12.5c-4-3.7-6.1-9.3-4.9-14.4c0.1-0.2,0.1-0.5,0.2-0.7
		c-1.9-1.1-3.4-2.4-4.6-3.3c-5.2-0.1-9.4-1.9-12.1-5c-1.2-1.3-2-2.9-2.5-4.5c-2.1,1-4.2,1.3-5.9,1.3c-3.2,0-5.8-1.1-7.8-1.9
		c-0.7-0.3-1.4-0.6-2-0.8c-8.5-2.8-14-11.3-14-21.5c0-6.6,3.1-11.3,9.2-14c0.1-0.1,0.1-0.1,0.2-0.2c0.4-0.4,1.1-1.1,1.6-1.6
		c-0.8-4.9,0.4-9.9,3.3-13.6c3.1-4,7.7-6.2,13-6.2c5.6,0,17.9,3,20.1,12.2c1.2,5.1-1.2,10.1-6,12.8c-0.5,0.7-0.9,2.1-0.7,2.7
		c2.1,5.1,2.1,9.5,1.1,13.5c1.8-0.4,3.8-0.6,5.6-0.6c2.3,0,4.9,0.2,7.6,0.7c4.5,0.8,8.4,2.2,11.5,3.4c1.3,0.5,3.2,1.2,3.9,1.3
		c0.2,0,0.4,0,0.6,0c0.5,0,1,0,1.5,0c0.7,0,1.4,0,2,0c2,0,7.3,0,11,4.1c1.9,2,2.9,4.5,3.1,7.3c2.4,0.3,4.7,0.9,6.6,2.1
		c2.4-1.5,5.4-2.4,8.6-2.6c0.8-0.2,2.6-1.1,3.8-1.6c3.4-1.7,7.7-3.7,12.5-3.7c0.8,0,1.6,0.1,2.3,0.2c0.8,0.1,1.6,0.2,2.5,0.3
		c5.8,0.7,12.6,1.5,17.1,5.3c1.6-0.2,3.5-0.4,5.6-0.4c5.9,0,9.9,3.1,12.6,5.2c0.4,0.3,1,0.8,1.5,1.1c10,0.4,21,8.5,22.2,9.4
		c1.7,1.2,3.7,2.1,8.2,2.1c7.7,0,13,5.3,16.8,9.1c0.7,0.7,1.7,1.7,2.3,2.2c5.9,2.1,8.9,6.9,10.6,10.8c3.4,0.4,8.1,0.9,13.1,2.8
		c2.2,0.8,4.3,1.6,6.3,2.5c0-0.9,0.1-1.8,0.3-2.7c1.4-5.3,6-8,10.8-10c3-1.3,6.4-2.4,8.5-2.8c0.8-0.2,1.6-0.2,2.4-0.2
		c1.7,0,3.2,0.3,4.5,0.9c3.6-4.8,9.1-10.7,17.1-11c0.3,0,0.5,0,0.7,0c6.8,0,10.1,4,11.1,5.8c3.9,6.4,0.5,13.1-2,18
		c-0.7,1.3-1.5,2.9-1.8,3.8c-3.3,9.4-12.8,15.4-24.3,15.4c-4.5,0-9.4-1.5-13.6-3.3c0,0.7,0,1.5-0.2,2.3c-0.3,1.4-1,3.8-3,5.8
		c0.8,1.2,1.3,2.6,1.5,4.4c0.2,1.5,0.1,2.9-0.1,4.1c4.8,3.2,10.5,8.9,12.5,15.4c4.1,0.1,7.5,2,9.2,3.1c4.1,2.7,6.6,6.4,7,10.6
		c0.8,8.4-6.2,12.8-12.5,14.1c-3.9,0.8-6.9,1.1-9.7,1.1c-7.5,0-13.2-2.8-17.3-8.5c-0.6-0.4-1.9-0.9-2.8-1.3
		c-3.7-1.6-10.5-4.5-11.8-12.2c0-0.3-0.1-0.5-0.2-0.8c-5.6-1.7-8.5-7.7-11.3-13.4c-0.4-0.9-1-2-1.6-3.1c-6.1,1.7-11.5,3.1-15.9,3.1
		c-1.5,0-2.9-0.2-4-0.5c0.1,0.9,0,1.9-0.2,2.9c-0.8,4.2-4.1,8.9-11.3,9.9c1.5,1.4,2.6,3.2,3.3,5.1c7.7,3.6,8.4,9.5,8,12.9
		c0,0.7,0.5,2.4,0.8,3.7c0.6,2.4,1.4,5.4,1.7,8.7c0.1,0.7,0.2,2.1,0.4,3.3c9.4,1.7,14.2,9.6,18.6,18.3c1.6,3.2,3.6,6.7,5.5,10
		c5.6,9.7,8.5,15,8.2,20.6c-0.1,1.2-0.3,2.4-0.6,3.4c10,6,16.8,11.7,20.7,17.2c1.8,2.6,3.2,3.8,4.7,5.1c2.6,2.3,6.2,5.4,7.7,12.6
		c0.5,0.3,1.2,0.6,1.8,0.9c3.5,1.6,8.8,4.1,11.7,10.2c2.3,4.8,11.8,14.9,14.9,18.2l0.2,0.2c5.1,5.4,13,17.2,14.5,26.3
		c0.4,2.3,0.6,4.9,0.8,7.3c0.3,2.9,0.7,7.7,1.3,9.2C558.6,583.2,554.4,591.9,550.8,596.1z M538.8,467.8c0.8,1.9,1.1,3.9,0.9,5.8
		c1.2,1.5,2.6,3.3,3.5,5.5c2.2,5.2,1.4,10.7-2.3,15c-4.1,4.9-10.2,7.9-16.2,7.9c-7.9,0-14.3-5.2-15.6-12.6L509,489
		c-1.6-9.4-2.7-19.1,2.4-25.5c2.4-3,5.8-4.9,9.7-5.2c0.5,0,0.9-0.1,1.4-0.1c0.8,0,1.7,0.1,2.5,0.2c-4-2.7-6.8-7.2-7.4-12.8
		c-0.6-5.3-0.2-10.9,1-15.8c1.8-7,5.1-11.6,9.7-13.6c1.5-0.6,3.1-1,4.8-1c3.3,0,8.2,1.3,12.5,7.6c4.5,6.5,7.8,17.4,4.6,26
		c-2.8,7.3-9.2,12.1-16.5,12.1c-0.4,0-0.7,0-1.1-0.1C535.3,462.6,537.6,464.8,538.8,467.8z M578.8,403.5
		c-2.1,13.3-11.6,16.4-15.1,17.5c-0.2,0.1-0.4,0.1-0.6,0.2c-2.1,1.1-4.2,1.7-6.3,1.7c-6.5,0-9.6-5-10.6-6.6
		c-0.6-0.9-0.7-1.1-1.2-1.5c-7.9-5.6-10-19.5-8.9-27.1c1.3-9,6.6-12.1,9.7-13.1c2.1-0.7,4.2-1,6.3-1c7.4,0,12.9,4.2,17.3,8.3
		c0.5,0.5,1.1,0.9,1.7,1.3C577.1,387.4,580.6,392.5,578.8,403.5z M578.9,381.8c-0.6-5.3-1.1-8.5-1.7-10.7l-0.2-0.6
		c-1.1-3.8-2.9-9.7-1.4-15.2c-1.5,0.4-3.1,0.5-4.8,0.5c-5.1,0-12.5-1.8-16.2-6.8c-5.2-6.9-8.7-17.1-3.1-24.9
		c2.7-3.7,6.8-5.9,11.1-5.9c7.9,0,12.6,6.7,15.2,12.3c0.7,1.5,1.1,1.7,2.3,2.2c1.6,0.7,6.4,2.9,7.2,8.7c0.1,0.9,0.1,1.9,0,3
		c1.2-0.3,2.5-0.4,3.9-0.4c9.2,0,20,7.4,22.3,15.2c1.9,6.6-0.4,13.9-2.3,19.7l-0.5,1.5c-2.5,8-11.6,13-18.5,13
		C585.1,393.5,579.7,388.7,578.9,381.8z M678.8,584.2c0.1-1.8,0.6-3.4,1.3-4.9c-2-1.5-4.4-3.6-7.1-6.8c-8.1-9.3-8.1-14.5-8.1-16.2
		c0-0.3,0-0.6,0-1c-0.3,0.1-0.6,0.2-0.9,0.3c-2.6,0.8-5.8,1.8-9.4,1.8c1.9,4,2.5,8.8,1.6,14c-2.4,12.7-16.2,22.9-26,22.9
		c-4.1,0-7.8-2.1-10.2-5.7c-5.9-8.7-4.7-29.4-2.4-35.2c2.4-6,7.5-9.6,13.6-9.6c2.6,0,4.9,0.6,7,1.4c-1.3-3.2-2.1-6.6-2.8-9.7
		c-0.8-3.5-1.6-6.8-2.9-9.2c-1.4-2.5-5.4-5.9-8.3-8.3c-4.9-4.1-9.2-7.7-9.2-13.7c0-1.6,0.3-3.3,0.9-4.8c-3.5-1.5-6.4-4.1-8.1-7.4
		c-2.1-4.2-3.3-11.1,3.4-20.3c4.2-5.7,8.9-8.6,14.2-8.6c3.4,0,9.8,1.3,13.9,10.3c2.7,5.8,2.5,12.4-0.4,17.9c2.4,0.5,4.8,1.2,7.2,2.1
		c1.8,0.7,4.7,1.3,7.2,1.9c7.5,1.7,15.3,3.5,16.8,11.3c0.3,1.5,0.9,6.6-3.8,10.8c0.1,1.4,0.7,4.4,2.9,9.1c0.9,1.9,2.4,4,3.8,6
		c1.5,2.2,3.3,4.6,4.2,7.3c0.8-0.1,1.4-0.1,1.7-0.1c2.7,0,5.3,0.6,8.3,1.3c1.2,0.3,2.5,0.6,3.9,0.9c6.7,1.3,14.1,7.4,12.8,20
		c-0.2,1.8-0.6,3.9-1.2,5.9c4.1,1,7.4,4.1,8.8,8.4c0.4,1,2.1,3.4,3.1,4.8c3.7,5.4,7.5,10.9,4.2,17.3c-1.1,2.2-3,3.8-5.2,4.8
		c-1.7,2.2-5.1,5.7-10.9,5.7c-3,0-6.1-1-9.3-3C685.9,601.4,678.1,593.2,678.8,584.2z M783.1,674.3c1.2,2.8,3.8,8.7,5.4,10
		c2.1,1.6,3,1.6,3.6,1.6c1.1,0,2.7-0.3,4.5-0.7l0.8-0.2c3-0.6,5.7-0.9,8-0.9c8.6,0,12.1,4.5,13.3,7.2c1.6,3.4,2.3,8.8-3.2,15.7
		c-1.1,1.3-2,2.5-2.8,3.6c-3.3,4.2-6.1,7.8-10.1,9.9c0,0.8,0,1.7-0.1,2.5c-0.6,7.5-7,12.8-14.2,14.8c0,0.1,0,0.1,0,0.2
		c-0.4,2.6-0.9,5.4-1.9,8.1c-3.3,8.6-10.3,9.3-12.4,9.3c-0.2,0-0.4,0-0.7,0c-3.7-0.2-10.2-2.1-14.3-11.9c0.1,0.7,0.2,1.5,0.3,2.3
		c0,0.4,0.1,0.7,0.1,1.1c0.5,3.5,1.6,11.6-5.3,17.9c-1.1,1-2.5,2.3-2.5,7.7c0,0.9,0,1.8,0.1,2.6c0.1,4.2,0.3,10-4.1,14.5
		c-4.2,4.3-10,4.8-14,4.8c-6.3,0-10.3,1.1-11.7,1.9c-2.5,9.3-12.6,25.6-15.2,28.8c-0.2,0.3-0.5,0.7-0.8,1.1
		c-4.2,5.5-11.4,14.6-21.1,14.6c-0.7,0-1.4,0-2.1,0c-0.8,0-1.5,0-2.2,0c-10.6,0-14.1-6.2-15.2-10.5c-6.2-0.6-13.5-3.5-16.1-10.4
		c-1.4-3.6-2.4-10.7,6.3-18.6c1.1-1,2.2-1.7,3.7-2.7c1.1-0.7,3.6-2.3,4.7-3.4c1.2-9,8.2-18.4,17.2-18.4c0.6,0,1.4,0,4.2-1.6
		c0.5-0.5,1.4-1.8,2-2.6c2.9-3.9,7.3-9.8,14.4-11.3c0.4-6.6,3.9-11.3,6.4-14.5c0.6-0.8,1.5-1.9,1.7-2.4c1.4-5,9.6-21.4,21.2-21.4
		c5.2,0,9.6,2.2,12.6,5.7c0.7-0.1,1.5-0.2,2.2-0.2c4.9,0,8.8,2.8,11.1,7.8c-0.7-3.3-1.1-6.6-1.2-9.1c-0.9-1.7-3.9-4.6-5.5-5.4
		c-8.9-2.5-24.3-19.5-25.2-33.7c-0.3-4.5,0.2-9.3,0.6-13.4c0.2-2.1,0.5-5.1,0.5-7c-3.6-3.4-6.8-9.4-6.1-19.6c0.6-7.8,6-13.5,13-13.5
		c2.8,0,7.1,1,11.4,5.6c1.1,1.2,2.2,2.4,3.2,3.7c2.3,2.8,5.3,6.3,7.5,6.9c4.6,1.2,8.4,4.3,11.2,8.9c0.6-0.1,1.3-0.2,2-0.2
		c1.5,0,3,0.3,4.5,0.9C778.2,662.8,780.5,668.2,783.1,674.3z M823.9,457.6c1.6,7.5,3.9,17.8-1.7,24.7c-2.6,3.3-6.5,5.1-10.9,5.1
		c-5.6,0-11.9,0-16.3-5.2c-4.3-5.2-3.2-11.9-2.6-15.1c0.4-2-2-5.6-3.7-8.3c-1.2-1.8-2.3-3.6-3.2-5.4c-4.3-9.6,2.4-20.8,8.7-29.4
		c3.5-4.8,8.2-7.4,13.3-7.4c5.9,0,11.1,3.8,13.3,9.5c2.3,1.2,6.5,3.6,7.6,9.1c0.5,2.6,0.4,6.7-3.2,11.1c-1.9,2.4-2,5.6-2,8.5
		C823.4,455.3,823.7,456.6,823.9,457.6z M926.9,417.9c-1,1.6-2,3.5-3.1,5.4c-6,10.7-12.2,21.7-23,21.7c-7.8,0-14.5-5-16.3-12.1
		c-1.5-6.2,1-12.4,6.5-16.3c-0.9-1.8-1.5-3.8-1.5-5.9c-0.2-8.2,7.7-17.2,12-19.3c2-1,4.2-1.5,6.7-1.5c6.5,0,15.2,3.7,19.2,10.9
		C930.5,406.2,930.3,412.4,926.9,417.9z"/>
</g>
<g id="vs-primary">
	<path fill="#3ACE95" d="M110.4,495.4c4.6-2,22-6.6,27.8-7.8c5.8-1.3,33.3-9.6,35.4-14.1c2-4.5,14.9-29.6,18.9-29.8
		c4-0.3,5.1,10.9,7.1,10.6s1.8-13.1,4.8-13.1s8.1,2,7.6-6.3s4.3-10.1,4.8-5.6s3,6.6,5.1-4.5c2-11.1,8.6-9.6,12.4-8.1
		s10.1-3.3,12.6,1s3.8,11.4,8.1,9.1c4.3-2.3,4.8-4.8,10.6-2c5.8,2.8,12.6,1.5,6.1-4.5c-6.6-6.1-2.8-9.3,0.5-9.9s6.1-1.5,4.5-6.8
		s10.1-9.6,13.1-8.6s10.1,2.3,14.4-3s6.6-6.1,9.1-3.8c2.5,2.3,9.1-1,13.9,1.8s10.1,6.6,11.9,2.8s7.1,4.3,7.6-0.3s6.3-2.5,6.3,5.6
		s-1.8,11.9-5.6,10.6c-3.8-1.3-1.5,5.3-6.8,7.1s-5.8,5.6-1.5,10.4s4,7.1,9.6,5.8c5.6-1.3,15.4-1,17.9,4c2.5,5.1,4,7.6,8.3,10.1
		s7.8,9.1,7.8,11.4s11.1,2.8,14.6-1s9.3-18.4,9.3-25.8s-0.5-13.1-0.3-19.2s5.1-13.9,5.1-18.7s8.6-13.4,9.1-7.6s7.8,4,7.3,7.8
		s2,8.8,2.5,14.4s1.3,12.1,6.6,12.1c5.3,0,8.3,3,13.4,13.1s12.9,21.2,12.6,25.5s-5.1,7.3-2.8,8.6c2.3,1.3,18.7,9.9,24.8,18.4
		c6.1,8.6,9.6,7.1,10.9,14.6c1.3,7.6,11.1,6.3,14.1,12.6s12.6,16.4,16.9,21c4.3,4.5,10.9,14.6,11.9,21c1,6.3,1,15.7,3.3,19.7
		s5.3,11.1,1,15.9c-4.3,4.8-6.6,29.8-10.9,37.1c-4.3,7.3-15.4,8.6-21,17.2c-5.6,8.6-11.9,19.4-12.1,29s1.5,16.7-4,18.7
		s-22.7,3.3-24.5,6.3s-1.8,6.1-9.3,6.6c-7.6,0.5-13.1,3.3-15.2,0.3c-2-3-8.1-10.9-9.6-8.1c-1.5,2.8-9.3,8.8-14.6,9.1
		c-5.3,0.3-9.1-1.3-11.9-3.3s-6.1-2.3-8.6,0s-2.3-3.3-7.6-3.5c-5.3-0.3-10.6-6.1-13.4-15.7c-2.8-9.6-4.3-19.2-8.8-18.4
		s-8.8,3-10.9,0.5c-2-2.5,4.5-4,2.8-8.3c-1.8-4.3-3.8-10.4-6.3-4.5c-2.5,5.8-7.1,8.6-9.9,7.6s7.1-8.1,7.3-14.9s3.5-14.6-1.3-12.1
		s-3.5,7.1-10.1,7.3s-5.1,5.1-5.6,9.9c-0.5,4.8-2.3,7.3-5.6,5.3c-3.3-2-8.8-9.1-9.1-12.6c-0.3-3.5-1.5-8.3-5.1-8.3
		c-3.5,0,0.8-7.6-5.1-7.8c-5.8-0.3-12.4-0.5-15.7-3.3c-3.3-2.8-1.3-8.8-8.8-8.1c-7.6,0.8-21,8.8-30.1,10.6s-16.4,0.3-32.8,0.5
		s-27,1-27,6.3s3,5.3-5.3,5.3s-11.6,4.8-16.9,4.5s-8.3-0.8-17.7-0.5S145,650,136.9,651s-21.5,9.1-24.5,5.8s-4.5-7.3-9.9-9.9
		c-5.3-2.5-7.3-7.8-3.3-11.1s1.3-15.2,6.1-10.4c4.8,4.8,4.8,5.3,4.5-4s-8.6-22.7-10.6-29.6c-2-6.8-8.1-11.1-8.1-20.5
		S85,563,83,556.1c-2-6.8-1-8.3,2.5-6.6s3.3-6.6,5.1-2.3c1.8,4.3,3.8,2.5,1.3-5.8s-0.5-12.9-4.3-11.6s-6.1-1.8-2-5.1
		c4-3.3,0.8-10.4,4.5-15.2c3.8-4.8,4.8-5.1,6.3-3.3C98,508.3,104,498.2,110.4,495.4z"/>
	<path fill="#3ACE95" d="M219,202c-1.5-5.3-5.3-10.6-8.2-7.9c-2.9,2.6-7.4,4.6-11.8,1.9c-4.3-2.6-5.3-13.4,0.5-15.6
		c5.8-2.2,10.1-4.6,11.5-9.1c1.4-4.6,10.6-10.3,11-4.1s2.4,9.4,6.7,9.1c4.3-0.2,4.1-5.5,9.8-8.6s9.8-7.9,11.8,0.7
		c1.9,8.6,4.8,10.8,1.2,14.6s1.2,8.2-1.4,16.3c-2.6,8.2-2.4,15.4-7.7,12.7C237.2,209.4,220.9,208.7,219,202z"/>
	<path fill="#3ACE95" d="M264.4,242.5c-1-3.9,0.7-9.1,6.2-9.1s13.4,4.1,9.1,6.2c-4.3,2.2-7.2,9.8-5,15.1s0.7,8.9-2.9,14.9
		s-6.2,3.1-11.3,1.4c-5-1.7-7.2-7-7.2-12s3.6-4.3,5.5-6.2S265.6,247.1,264.4,242.5z"/>
	<path fill="#3ACE95" d="M282.6,278.1c0.7-4.3,7-4.8,13.9-3.6c7,1.2,12.5,4.6,16.3,4.8c3.8,0.2,9.1-1,8.9,2.2
		c-0.2,3.1,0,8.9,1.9,8.9s10.8-0.5,10.6,2.4c-0.2,2.9-0.5,8.9,1.4,10.6s7.9,0.5,10.3-2.2s-1-6.2-3.4-6.7s0-4.1,5-4.3
		c5-0.2,11.5-6,16.6-5.3s13.9,1.2,15.4,4.3c1.4,3.1,6.2,1,11.3,1s7.9,6.2,13.2,6.2c5.3,0,13.2,4.6,17,7.4c3.8,2.9,8.2,4.1,14.2,4.1
		s11.3,9.4,15.4,10.6s5.5,6,6.5,9.1s9.1,1.4,17.5,4.6c8.4,3.1,19.2,8.4,10.3,8.4s-17.8,2.6-13.2,5.3c4.6,2.6,14.6,5,14.9,7
		c0.2,1.9-1.9,7.9,2.4,10.1s10.1,7.9,10.6,12.2c0.5,4.3,5,6,8.9,6c3.9,0,11.8,6,2.2,7.9c-9.6,1.9-13.9,1-17-3.6s-12-4.8-12.7-9.1
		c-0.7-4.3-2.9-9.1-6.5-8.6s-8.9-19.2-13.4-18.2s-20.4,6.7-22.1,3.1s-5-4.3-7.2-1.7c-2.2,2.6-13.9,5.3-9.6,7.2s9.6,7.7,2.4,8.2
		s-12,2.6-18.5,0.2s-12.2-1.2-13.2-6.2s-3.4-10.3-7.4-7.9c-4.1,2.4-11.8,4.8-15.6,4.8s-3.1-7-2.2-9.4s9.6-0.7,11.3-3.4
		c1.7-2.6-0.2-7.7-3.1-9.1s-8.4-7.2-11-9.6s-16.3-8.9-23-8.9s-16.6-1.4-17.5-4.8s-6.2-10.6-7.4-5.5c-1.2,5-1.9,6.7-7.2,6
		c-5.3-0.7-0.5-7-4.3-8.9s-5.3-7.7-0.7-7.4c4.6,0.2,11-1.2,10.8-4.6s-8.6-2.4-14.4-3.8s-8.4-6.5-11.3-6.2
		C286.7,281.7,282.1,281.2,282.6,278.1z"/>
	<path fill="#3ACE95" d="M430.2,255.9c3.5,0.6,14-3.8,20.4-3.5s13.1,5.2,19.2,4.7s17.2-2.3,14.6,1.5c-2.6,3.8-7.6,15.7-14.3,15.7
		s-14.6-2-21-2s-21.3-2-22.4-7s-1.7-6.7-6.7-7.3S425,255.1,430.2,255.9z"/>
	<path fill="#3ACE95" d="M499.3,262.9c-0.2-2.6,5.2-4.4,8.2-4.7c2.9-0.3,14.6-3.8,16.9-2.3c2.3,1.5,4.4,10.8-0.3,12.2
		s-15.7,3.5-20.4,3.5C499,271.7,499.6,266.7,499.3,262.9z"/>
	<path fill="#3ACE95" d="M541.9,272.6c0.6-3.2,9.6-1.5,9.9-0.3c0.3,1.2,14.6,4.7,9,8.7c-5.5,4.1-10.5,6.7-13.7,1.5
		C543.9,277.2,541,277.5,541.9,272.6z"/>
	<path fill="#3ACE95" d="M494.7,325.6c-2.1-1.7,8.5-5.5,11.4-6.1s4.4,5,7.3,3.8s7.9-13.7,15.2-14s0.3,8.5-1.7,14.3
		s-8.5,8.7-14.9,8.7C505.5,332.3,496.4,327.1,494.7,325.6z"/>
	<path fill="#3ACE95" d="M559.7,330c1.2-1.7,5-4.4,9,4.7c4.1,9,11.4,6.4,7.6,9.6c-3.8,3.2-12,1.2-13.7-1.2
		C560.8,340.8,556.8,334.1,559.7,330z"/>
	<path fill="#3ACE95" d="M643.1,302c0-4.8,14.6-4.7,16.6-1.2s2.9,14.9-1.7,15.2c-4.7,0.3-5.8-1.7-10.2-2.9
		C643.4,311.9,643.1,306.1,643.1,302z"/>
	<path fill="#3ACE95" d="M558.6,412.3c-3.9,2.2-2.7-2.1-7.7-5.6c-5.1-3.6-7.1-20.8-1.8-22.6c5.3-1.8,9.5,1.2,13.7,5.1
		s7.7,3.6,6.2,12.8C567.5,411.1,561.2,410.8,558.6,412.3z"/>
	<path fill="#3ACE95" d="M585.6,357.3c4.3-7.7,16.9,0.6,18.1,4.8c1.2,4.2-1.2,10.7-2.7,15.5s-11.6,8.9-12.2,3.3
		c-0.6-5.6-1.2-9.5-2.1-12.5C585.9,365.3,584.1,360,585.6,357.3z"/>
	<path fill="#3ACE95" d="M733.4,410.8c-10.4-1.2-9.5-10-5.2-17.6s11.4-19,13.3-8.1c1.9,10.9,3.3,11.9,1.4,18.1
		C741,409.4,741.5,411.7,733.4,410.8z"/>
	<path fill="#3ACE95" d="M794.8,449.3c-2.3-5.1,3.8-14.3,7.6-19.5s8.6-3.8,9.5,1c1,4.8,10,3.8,5.7,9s-4.3,11.4-4.3,15.2
		c0,3.8,6.7,22.3-1.9,22.3s-10.5-0.5-9-8.6C803.8,460.7,796.7,453.6,794.8,449.3z"/>
	<path fill="#3ACE95" d="M906,400.3c4.3-2.1,17.6,3.8,12.4,12.4c-5.2,8.6-11.4,22.3-17.6,22.3c-6.2,0-10-7.1-2.9-10.9
		s8.6-8.6,3.3-10.9C896,410.8,904.1,401.3,906,400.3z"/>
	<path fill="#3ACE95" d="M532.3,425.5c4.4-1.9,11.4,12.4,8.6,20c-2.9,7.6-12.4,7.6-13.3-1C526.6,436,529,427,532.3,425.5z"/>
	<path fill="#3ACE95" d="M521.8,468.3c4.3-0.3,10,2.9,7.1,5.7c-2.9,2.9,9,8.1,4.3,13.8c-4.8,5.7-13.3,5.7-14.3,0
		C518,482.1,515.6,468.8,521.8,468.3z"/>
	<path fill="#3ACE95" d="M619.3,477.8c4.3-5.9,8.1-6.2,10.9,0c2.9,6.2-1,12.8-5.7,13.3S611.7,488.3,619.3,477.8z"/>
	<path fill="#3ACE95" d="M729.1,473.6c-1.3-6.5,2.4-6.2,7.6-6.2c5.2,0,16.6-3.3,13.8,4.3c-2.9,7.6-8.1,17.1-19.5,17.1
		C719.6,488.8,729.6,475.9,729.1,473.6z"/>
	<path fill="#3ACE95" d="M625,504.5c0-5.2,10-4.3,17.6-1.4s21.9,3.8,16.6,7.6c-5.2,3.8-2.4,13.3,1,20.4c3.3,7.1,10.9,13.8,6.2,13.8
		s-12.8,5.7-17.1,0s-3.8-15.7-8.1-23.3C636.9,514,625,507.3,625,504.5z"/>
	<path fill="#3ACE95" d="M626.9,557.2c2.5-6.2,8.6-1.9,12.8-0.5c4.3,1.4,8.1,5.2,6.7,12.8c-1.4,7.6-10.9,14.7-16.2,14.7
		C625,584.3,625,562,626.9,557.2z"/>
	<path fill="#3ACE95" d="M674.9,556.3c0-9,4.8-6.2,14.3-4.3s2.9,20.4-0.5,20.4S674.9,560.6,674.9,556.3z"/>
	<path fill="#3ACE95" d="M743.4,525.9c2.1,0.5,3.8,8.1,6.2,13.8s3.3,16.2-4.3,15.7s-13.8-2.4-12.4-10.9s6.7-3.8,6.7-9
		C739.6,530.1,741.5,525.4,743.4,525.9z"/>
	<path fill="#3ACE95" d="M691.6,581.5c1.7-0.7,9-6.7,10.5-1.9s10.9,14.7,7.1,14.7s-2.9,8.1-10.5,3.3
		C691.1,592.9,684.9,584.3,691.6,581.5z"/>
	<path fill="#3ACE95" d="M438.4,736.5c-0.1-1.8-1.8-7.1,6.2-4.2c8,3,17.9-0.3,26.5,0s16.1,1.5,10.1,6.5s-6.2,11-6.2,16.1
		s2.4,15.2-0.6,14s-4.5-3-5.4,1.2s-3.9-2.1-12.5-2.1s-12.5-1.2-10.4-10.1C448.2,749,438.7,743.7,438.4,736.5z"/>
	<path fill="#3ACE95" d="M730,649c0.3-3.9,3-6.2,7.1-1.8c4.2,4.5,8.6,11.6,15.5,13.4c6.8,1.8,8.6,13.7,8.9,19.6
		c0.3,6,6.2,7.1,6.2,2.4s-2.4-14.3,1.2-12.8c3.6,1.5,6.8,17.3,13.4,22.3c6.5,5.1,11,3.9,17,2.7s14.6-1.8,8.3,6
		c-6.2,7.7-8,11-12.2,11.6s-2.7,6.2-3,9.8s-6,6.5-10.7,6.5s-2.1,17-8,16.7c-6-0.3-8-14.3-8-19s-8.6-13.1-12.8-14
		s-17.3-14.6-17.9-24.7c-0.6-10.1,3.3-23.5-0.9-26.2S729.7,653.2,730,649z"/>
	<path fill="#3ACE95" d="M662.1,808.9c1.9-1.7,11.3-6.1,11.6-11.3s4.2-10.6,7.4-10.6s5.8-1,9.7-3.2c3.9-2.3,7.4-11.6,13.2-12.6
		s7.7-2.3,7.7-8.7s6.4-10.3,7.7-15.1s7.7-14.2,11.6-14.2c3.9,0,6.1,2.6,6.1,5.8s5.2,1.9,7.7,0c2.6-1.9,4.2,4.5,4.5,7.7
		s1.6,7.4-1.9,10.6c-3.5,3.2-5.8,7.4-5.8,15.1c0,7.7,1.6,11.9-8.1,11.9c-9.7,0-20,2.3-21.3,8.7s-10.9,22.5-13.5,25.8
		c-2.6,3.2-8.7,11.9-14.2,11.9s-9.3,1-10-3.9c-0.6-4.8-1.9-6.8-6.4-6.4C663.7,820.8,652.1,817.9,662.1,808.9z"/>
</g>
<g id="vs-colour">
	<path opacity="0.7" fill="#FFDB80" enable-background="new    " d="M97.6,588.9c7.3,9.7,48.2-5.3,54.3,5.7
		c6.1,11,56.1,13.4,47.6,20.7s-1.2,9.8,14.6,9.8s45.7,4.9,57.9-4.8c12.2-9.8,19.1-8.6,22.3-3.4c4.9,7.9,8.4,9.1,16.2,9.1
		c7.8,0,10.6,9,22.4,4.3c11.7-4.7,23.4-6.2,25-0.8s1.6,14.8,7,11.7s18.7-2.3,21.1-8.6s0-9.4,4.7-31.2s18.2-47.4,24.5-54.9
		s26.4-39,1.3-28.9s-49.1,27.7-49.1,18.9S341,512.4,341,507.4c0-5-1.3-41.5-28.9-39c-27.7,2.5-40.3-34-67.9-13.8
		c-27.7,20.1-61.6,2.5-67.9,12.6c-6.3,10.1-10.8,15-15.4,15c-4.6,0-48,11.8-53.4,16.4c-5.3,4.6-8,7.2-11.1,7.6s-8,7.6-8,9.9
		S85,526.4,85,526.4s0,4.6,5,5.3s4.6,10.7,5,17.2s-11.1-1.1-11.1,3c0,4.2,7.2,11.4,7.2,15.6C91.1,571.7,94.2,584.4,97.6,588.9z"/>
</g>
<g id="vs-cities">
	<g opacity="0.3">
		<path d="M118.1,617.4c-2.4,0-4.3,1.9-4.3,4.3c0,1.6,0.9,3,2.2,3.7c0.1,0.2,0.2,0.3,0.4,0.5c-0.6,0.3-1.1,1-1.1,1.7
			c0,1.1,0.9,2,2,2s2-0.9,2-2c0-0.7-0.3-1.3-0.8-1.6l0.1-0.1c2.2-0.2,3.8-2,3.8-4.2C122.4,619.3,120.5,617.4,118.1,617.4z"/>
		<path d="M285.3,406.8c0.3,0.3,0.8,0.6,1.3,0.6c0.9,0,1.7-0.7,1.7-1.7c0-0.8-0.6-1.5-1.4-1.6c-0.2-1-1.2-1.8-2.3-1.8
			c-1.3,0-2.4,1.1-2.4,2.4s1.1,2.4,2.4,2.4C284.8,406.9,285.1,406.9,285.3,406.8z"/>
		<circle cx="168.2" cy="603.8" r="1.8"/>
		<ellipse cx="315.2" cy="524.9" rx="1.9" ry="2"/>
		<circle cx="102.7" cy="581.7" r="1.7"/>
		<circle cx="116.5" cy="636.2" r="1.7"/>
		<ellipse cx="136.7" cy="644.7" rx="1.7" ry="1.7"/>
		<path d="M127.1,497.4c-0.4,0-0.7,0.1-0.9,0.3c-0.3-0.5-0.8-0.8-1.4-0.8c-0.9,0-1.6,0.7-1.6,1.6s0.7,1.6,1.6,1.6
			c0.3,0,0.7-0.1,0.9-0.3c0.3,0.5,0.8,0.8,1.4,0.8c0.9,0,1.6-0.7,1.6-1.6S128,497.4,127.1,497.4z"/>
		<circle cx="140" cy="494.6" r="1.6"/>
		<circle cx="174.2" cy="481.2" r="1.6"/>
		<ellipse cx="113.8" cy="639.5" rx="1.5" ry="1.5"/>
		<circle cx="298.9" cy="425.8" r="1.8"/>
		<circle cx="172" cy="636.3" r="1.5"/>
		<ellipse cx="98.6" cy="542.9" rx="1.5" ry="1.5"/>
		<circle cx="125" cy="610.6" r="1.5"/>
		<circle cx="263.1" cy="439.4" r="1.7"/>
		<circle cx="152.2" cy="528.1" r="1.5"/>
		<circle cx="120.6" cy="637.7" r="1.4"/>
		<circle cx="130.3" cy="626.6" r="1.4"/>
		<circle cx="133.7" cy="634.7" r="1.4"/>
		<circle cx="318.5" cy="480.7" r="1.7"/>
		<ellipse cx="191.5" cy="461.1" rx="1.4" ry="1.4"/>
		<ellipse cx="135.1" cy="521.7" rx="1.4" ry="1.4"/>
		<circle cx="140" cy="611.5" r="1.4"/>
		<ellipse cx="134.7" cy="640.6" rx="1.4" ry="1.4"/>
		<ellipse cx="132" cy="630.4" rx="1.4" ry="1.4"/>
		<ellipse cx="98.9" cy="570.6" rx="1.4" ry="1.4"/>
		<circle cx="118.7" cy="615.3" r="1.4"/>
		<circle cx="105.5" cy="586.9" r="1.4"/>
		<circle cx="243.3" cy="455.9" r="1.6"/>
		<ellipse cx="155.6" cy="633.4" rx="1.4" ry="1.4"/>
		<circle cx="100.5" cy="509.9" r="1.4"/>
		<ellipse cx="170.9" cy="618.9" rx="1.4" ry="1.4"/>
		<circle cx="286" cy="542" r="1.6"/>
		<circle cx="259.3" cy="435.3" r="1.6"/>
		<circle cx="119.9" cy="507.1" r="1.4"/>
		<circle cx="294.3" cy="419" r="1.6"/>
		<ellipse cx="137.7" cy="562.7" rx="1.4" ry="1.4"/>
		<circle cx="109.1" cy="507.3" r="1.4"/>
		<circle cx="131.8" cy="577.3" r="1.4"/>
		<ellipse cx="265.8" cy="548.1" rx="1.6" ry="1.6"/>
		<ellipse cx="176.5" cy="582.4" rx="1.4" ry="1.4"/>
		<ellipse cx="115" cy="586.2" rx="1.4" ry="1.4"/>
		<ellipse cx="287.1" cy="413.1" rx="1.6" ry="1.6"/>
		<circle cx="167" cy="585" r="1.4"/>
		<circle cx="112.8" cy="589.4" r="1.4"/>
		<circle cx="149.3" cy="608.7" r="1.4"/>
		<ellipse cx="311" cy="458.3" rx="1.6" ry="1.6"/>
		<circle cx="308.3" cy="541.9" r="1.6"/>
		<path d="M463.9,758.1c-0.9,0-1.7,0.7-1.7,1.7c0,0.5,0.2,0.9,0.5,1.2c0,0.1,0,0.2,0,0.2c0,0.7,0.6,1.3,1.3,1.3
			c0.7,0,1.3-0.6,1.3-1.3c0-0.1,0-0.3-0.1-0.4c0.2-0.3,0.3-0.6,0.3-1C465.6,758.9,464.8,758.1,463.9,758.1z"/>
		<circle cx="462.7" cy="745.9" r="1.6"/>
		<ellipse cx="453.8" cy="742.1" rx="1.4" ry="1.4"/>
		<circle cx="456.8" cy="743.4" r="1.4"/>
		<ellipse cx="447.9" cy="739.9" rx="1.2" ry="1.2"/>
		<ellipse cx="465.5" cy="742.9" rx="1.2" ry="1.2"/>
		<circle cx="451.1" cy="752.1" r="1.2"/>
		<circle cx="464.4" cy="754.3" r="1.2"/>
		<circle cx="471.2" cy="750.1" r="1.1"/>
		<path d="M507.8,629.9c-0.2-0.7-0.8-1.3-1.6-1.3c-0.6,0-1.1,0.3-1.4,0.7c-1.5,0-3,0.6-4.1,1.4c-0.1,0-0.2,0-0.4,0
			c-1,0-1.9,0.8-1.9,1.9c0,0.2,0,0.4,0.1,0.6c-0.5,1-0.9,2.2-0.9,3.4c0,1.7,0.6,3.4,1.6,4.6c-0.3,0.5-0.5,1-0.5,1.7
			c0,1,0.5,1.9,1.2,2.4c-0.3,0.3-0.5,0.7-0.5,1.2c-0.2-0.1-0.5-0.1-0.7-0.1c-1.3,0-2.4,1.1-2.4,2.4s1.1,2.4,2.4,2.4s2.4-1.1,2.4-2.4
			c0-0.1,0-0.3,0-0.4h0.1c1,0,1.8-0.8,1.8-1.8c0-0.3-0.1-0.6-0.2-0.9c0.8-0.3,1.5-1,1.8-1.8c0.1,0,0.1,0,0.2,0c4,0,7.3-3.3,7.3-7.3
			C512.2,633.6,510.4,631,507.8,629.9z"/>
		<path d="M381.9,649.8c0-1.4-0.6-2.6-1.5-3.4c0.1-0.2,0.2-0.5,0.2-0.7c0-1-0.9-1.9-1.9-1.9c-0.9,0-1.7,0.6-1.9,1.5
			c-2.3,0.3-4.1,2.2-4.1,4.6c0,2.5,2.1,4.6,4.6,4.6C379.9,654.5,381.9,652.4,381.9,649.8z"/>
		<ellipse transform="matrix(0.9239 -0.3827 0.3827 0.9239 -200.7557 244.5343)" cx="514.3" cy="626.9" rx="4.6" ry="4.6"/>
		<path d="M532.6,564.5c-0.2,0-0.3,0-0.5,0.1c1-1,1.6-2.3,1.6-3.8c0-1.8-0.9-3.4-2.3-4.4l0,0c0-0.7-0.3-1.2-0.8-1.6
			c0.5-0.4,0.9-1,0.9-1.7c0-0.6-0.3-1.2-0.7-1.5c-0.1-1.2-1.1-2.2-2.3-2.2c-1.3,0-2.3,1-2.3,2.3c0,0.9,0.5,1.6,1.2,2
			c0.1,0.3,0.2,0.5,0.4,0.7c-0.1,0-0.2,0-0.3,0c-1.1,0-2,0.8-2,1.9c-1.5,1-2.5,2.6-2.5,4.5c0,3,2.4,5.4,5.4,5.4c0.5,0,1-0.1,1.4-0.2
			c-0.5,0.6-0.8,1.4-0.8,2.2c0,2,1.6,3.7,3.7,3.7c2,0,3.7-1.6,3.7-3.7C536.3,566.2,534.7,564.5,532.6,564.5z"/>
		<path d="M452.7,695c2,0,3.5-1.6,3.5-3.5c0-0.4-0.1-0.8-0.2-1.2c0.3-0.8,0.5-1.7,0.5-2.6c0-3.9-3.1-7-7-7c-1,0-1.9,0.2-2.8,0.6l0,0
			c0-0.9-0.8-1.7-1.7-1.7c-0.9,0-1.7,0.8-1.7,1.7c0,0.7,0.5,1.4,1.1,1.6c-1.2,1.3-2,3-2,4.9c0,0.7,0.1,1.4,0.3,2
			c-1.2,0.3-2,1.4-2,2.6c0,1.5,1.2,2.7,2.7,2.7c1,0,1.9-0.6,2.4-1.4c1.1,0.7,2.3,1.1,3.7,1.1c0.6,0,1.1-0.1,1.6-0.2
			C451.5,694.9,452.1,695,452.7,695z"/>
		<circle cx="451.6" cy="449.4" r="2.7"/>
		<circle cx="460.1" cy="477.4" r="2.6"/>
		<circle cx="464.3" cy="666.9" r="2.5"/>
		<circle cx="517" cy="562.1" r="2.4"/>
		<circle cx="432" cy="686.5" r="2.4"/>
		<circle cx="436.6" cy="676" r="2.4"/>
		<circle cx="483.2" cy="495.6" r="2.3"/>
		<path d="M498.7,520.7c1.3,0,2.3-1,2.3-2.3c0-0.3-0.1-0.6-0.2-0.8c0.1,0,0.2,0,0.3,0c1,0,1.8-0.8,1.8-1.8s-0.8-1.8-1.8-1.8
			s-1.8,0.8-1.8,1.8c0,0.2,0,0.3,0.1,0.5c-0.2-0.1-0.5-0.1-0.7-0.1c-1.3,0-2.3,1-2.3,2.3C496.4,519.7,497.4,520.7,498.7,520.7z"/>
		<circle cx="531.8" cy="598.7" r="2.3"/>
		<circle cx="468.7" cy="654.9" r="2.2"/>
		<ellipse cx="517.3" cy="528.4" rx="2.2" ry="2.2"/>
		<circle cx="529.8" cy="612.6" r="2.2"/>
		<ellipse cx="414.4" cy="642.9" rx="2.2" ry="2.2"/>
		<path d="M487.1,633.6c1.2,0,2.1-0.9,2.1-2.1c0.3-0.3,0.6-0.8,0.6-1.3c0-1-0.8-1.8-1.8-1.8c-0.7,0-1.3,0.4-1.6,1
			c-0.8,0.3-1.5,1.1-1.5,2C485,632.7,485.9,633.6,487.1,633.6z"/>
		<ellipse cx="506.1" cy="604.6" rx="2.1" ry="2.1"/>
		<ellipse cx="448.3" cy="671" rx="2.1" ry="2.1"/>
		<circle cx="386.5" cy="483.5" r="2.1"/>
		<path d="M486.2,655.5c0.3-0.5,0.4-1,0.4-1.5c0-1.8-1.4-3.2-3.2-3.2s-3.2,1.4-3.2,3.2s1.4,3.2,3.2,3.2c0.5,0,1-0.1,1.4-0.3
			C485.5,656.6,486,656.1,486.2,655.5z"/>
		<ellipse cx="481.9" cy="618.8" rx="2" ry="2.1"/>
		<circle cx="417.7" cy="697.4" r="2"/>
		<ellipse cx="399.8" cy="690.1" rx="2" ry="2"/>
		<ellipse cx="516.7" cy="601.2" rx="2" ry="2"/>
		<ellipse cx="377.8" cy="623.8" rx="2" ry="2"/>
		<circle cx="471.3" cy="691.6" r="2"/>
		<circle cx="489.5" cy="647.1" r="1.9"/>
		<path d="M524,539.5c0-0.4-0.1-0.8-0.3-1.1c0.9-0.2,1.6-1,1.6-2c0-1.1-0.9-2-2-2s-2,0.9-2,2c0,0.4,0.1,0.8,0.3,1.1
			c-0.9,0.2-1.6,1-1.6,1.9c0,1.1,0.9,1.9,1.9,1.9C523.1,541.4,524,540.6,524,539.5z"/>
		<ellipse cx="441.6" cy="667.8" rx="1.9" ry="1.9"/>
		<ellipse cx="508.8" cy="621.6" rx="1.9" ry="1.9"/>
		<circle cx="465.7" cy="692.8" r="1.9"/>
		<circle cx="380.9" cy="656" r="1.9"/>
		<path d="M526.2,620c0.6-0.4,1-1,1-1.8c0-1.2-1-2.1-2.2-2.1s-2.1,1-2.1,2.1c0,1,0.7,1.9,1.7,2.1c-0.5,0.3-0.8,0.9-0.8,1.5
			c0,1.1,0.9,1.9,1.9,1.9c1.1,0,1.9-0.9,1.9-1.9C527.6,621,527,620.2,526.2,620z"/>
		<ellipse cx="406.8" cy="615" rx="1.9" ry="1.9"/>
		<circle cx="455.1" cy="644.3" r="1.9"/>
		<ellipse cx="457.8" cy="670.8" rx="1.9" ry="1.9"/>
		<circle cx="380" cy="617.1" r="1.9"/>
		<circle cx="360.1" cy="645.4" r="1.9"/>
		<ellipse cx="414.8" cy="675.4" rx="1.9" ry="1.9"/>
		<circle cx="382.3" cy="625.9" r="1.9"/>
		<ellipse cx="517.7" cy="570" rx="1.8" ry="1.9"/>
		<circle cx="528.8" cy="608.2" r="1.8"/>
		<circle cx="408.5" cy="696.9" r="1.8"/>
		<circle cx="524.5" cy="545.9" r="1.8"/>
		<circle cx="501.9" cy="615.9" r="1.8"/>
		<circle cx="477.4" cy="629.6" r="1.8"/>
		<path d="M494.1,633.1c-0.1,0.3-0.2,0.5-0.2,0.8c0,1.1,0.9,2,2,2s2-0.9,2-2s-0.9-2-2-2c0,0,0,0-0.1,0c0.1-0.2,0.1-0.4,0.1-0.7
			c0-1-0.8-1.8-1.8-1.8s-1.8,0.8-1.8,1.8C492.3,632.2,493.1,633.1,494.1,633.1z"/>
		<ellipse cx="477" cy="687.9" rx="1.8" ry="1.8"/>
		<path d="M475.2,487.6c0.1,0,0.3,0,0.4,0c0.1,0.9,0.8,1.6,1.7,1.6c0.9,0,1.7-0.8,1.7-1.7c0-0.9-0.8-1.7-1.7-1.7c-0.1,0-0.2,0-0.3,0
			c0-1-0.8-1.8-1.8-1.8s-1.8,0.8-1.8,1.8C473.4,486.8,474.2,487.6,475.2,487.6z"/>
		<circle cx="494.7" cy="659.1" r="1.8"/>
		<circle cx="454.5" cy="456.5" r="1.8"/>
		<circle cx="471.6" cy="505.2" r="1.8"/>
		<circle cx="530" cy="591.5" r="1.8"/>
		<circle cx="509.8" cy="557.7" r="1.8"/>
		<circle cx="454.8" cy="486.7" r="1.8"/>
		<circle cx="472.9" cy="522.4" r="1.8"/>
		<ellipse cx="428.9" cy="657.6" rx="1.8" ry="1.8"/>
		<ellipse cx="497.5" cy="654.8" rx="1.8" ry="1.8"/>
		<circle cx="429.3" cy="696.9" r="1.8"/>
		<circle cx="466.7" cy="481" r="1.8"/>
		<circle cx="413" cy="688.8" r="1.8"/>
		<circle cx="515.8" cy="550" r="1.8"/>
		<circle cx="508.2" cy="588.4" r="1.8"/>
		<circle cx="494.8" cy="584.8" r="1.8"/>
		<circle cx="443.7" cy="660.1" r="1.8"/>
		<circle cx="385.7" cy="657" r="1.8"/>
		<ellipse cx="478.6" cy="644.5" rx="1.8" ry="1.8"/>
		<circle cx="458.8" cy="647.5" r="1.8"/>
		<ellipse cx="499.3" cy="603.2" rx="1.8" ry="1.8"/>
		<circle cx="494.3" cy="595.2" r="1.8"/>
		<circle cx="430.9" cy="679.8" r="1.8"/>
		<circle cx="448.5" cy="453.6" r="1.8"/>
		<circle cx="482.7" cy="638.4" r="1.8"/>
		<path d="M536.1,575c0-1-0.8-1.8-1.8-1.8s-1.8,0.8-1.8,1.8c0,0.3,0.1,0.6,0.2,0.9l0,0c-0.3-0.6-1-1.1-1.8-1.1c-1.1,0-2.1,0.9-2.1,2
			s0.9,2.1,2.1,2.1c0.5,0,1-0.2,1.3-0.5c0.3,0.5,0.9,0.8,1.6,0.8c1,0,1.9-0.8,1.9-1.9c0-0.4-0.1-0.8-0.3-1.1
			C535.9,576.1,536.1,575.6,536.1,575z"/>
		<ellipse cx="477.9" cy="657.3" rx="1.8" ry="1.8"/>
		<circle cx="487.3" cy="669.3" r="1.8"/>
		<circle cx="491.5" cy="674.9" r="1.8"/>
		<path d="M502.9,521.1c-1,0-1.8,0.8-1.8,1.8s0.8,1.8,1.8,1.8c0.6,0,1.1-0.3,1.4-0.7c0,0,0,0,0,0.1c0,1.1,0.9,2,2,2s2-0.9,2-2
			s-0.9-2-2-2c-0.7,0-1.3,0.3-1.7,0.9C504.6,521.9,503.8,521.1,502.9,521.1z"/>
		<circle cx="453.8" cy="470.8" r="1.8"/>
		<path d="M422.3,681.1c-0.1,0-0.2,0-0.2,0c0.3-0.3,0.4-0.7,0.4-1.2c0-1-0.8-1.8-1.8-1.8s-1.8,0.8-1.8,1.8s0.8,1.8,1.8,1.8
			c0.1,0,0.2,0,0.3,0c-0.3,0.3-0.4,0.7-0.4,1.1c0,1,0.8,1.8,1.8,1.8s1.8-0.8,1.8-1.8C424.1,681.9,423.3,681.1,422.3,681.1z"/>
		<ellipse cx="455.9" cy="698.3" rx="1.7" ry="1.8"/>
		<ellipse cx="483.9" cy="550.3" rx="1.7" ry="1.7"/>
		<circle cx="488.1" cy="619.9" r="1.7"/>
		<ellipse cx="475.8" cy="632.9" rx="1.7" ry="1.7"/>
		<ellipse cx="398.1" cy="644.2" rx="1.7" ry="1.7"/>
		<ellipse cx="451" cy="665.1" rx="1.7" ry="1.7"/>
		<path d="M507.2,616.6c0-1-0.8-1.7-1.7-1.7c-1,0-1.7,0.8-1.7,1.7c0,0.5,0.2,0.9,0.5,1.3c-0.8,0.2-1.4,0.9-1.4,1.8
			c0,1,0.8,1.9,1.9,1.9c1,0,1.9-0.8,1.9-1.9c0-0.6-0.3-1.1-0.7-1.4C506.6,618.1,507.2,617.4,507.2,616.6z"/>
		<circle cx="499.9" cy="573.8" r="1.7"/>
		<ellipse cx="388.7" cy="633.9" rx="1.7" ry="1.7"/>
		<ellipse cx="448.4" cy="445" rx="1.7" ry="1.7"/>
		<circle cx="431.9" cy="521.7" r="1.7"/>
		<circle cx="419.4" cy="395.4" r="1.7"/>
		<circle cx="378.6" cy="635.2" r="1.7"/>
		<circle cx="399.9" cy="670.2" r="1.7"/>
		<circle cx="454" cy="592.4" r="1.7"/>
		<ellipse cx="457.3" cy="548.4" rx="1.7" ry="1.7"/>
		<circle cx="531.6" cy="584.2" r="1.7"/>
		<circle cx="362.4" cy="640.9" r="1.7"/>
		<circle cx="391.2" cy="623.1" r="1.7"/>
		<circle cx="325.5" cy="616.8" r="1.7"/>
		<circle cx="400.4" cy="684.2" r="1.7"/>
		<circle cx="381.7" cy="663.4" r="1.7"/>
		<circle cx="416.1" cy="654.1" r="1.7"/>
		<ellipse cx="397.1" cy="483.3" rx="1.6" ry="1.7"/>
		<circle cx="419.2" cy="509.7" r="1.6"/>
		<ellipse cx="442.7" cy="523" rx="1.6" ry="1.6"/>
		<circle cx="331.3" cy="625.7" r="1.6"/>
		<ellipse cx="424.4" cy="463.9" rx="1.6" ry="1.6"/>
		<circle cx="366" cy="625.4" r="1.6"/>
		<circle cx="390.8" cy="508.1" r="1.6"/>
		<ellipse cx="436.3" cy="550.9" rx="1.6" ry="1.6"/>
		<circle cx="371.1" cy="632.1" r="1.6"/>
		<circle cx="362.2" cy="596.4" r="1.6"/>
		<circle cx="508.4" cy="536.4" r="1.6"/>
		<circle cx="358.3" cy="605.2" r="1.6"/>
		<ellipse cx="427.3" cy="610.3" rx="1.6" ry="1.6"/>
		<circle cx="431.4" cy="492.3" r="1.6"/>
		<ellipse cx="420.2" cy="490.8" rx="1.6" ry="1.6"/>
		<circle cx="385.2" cy="542.6" r="1.6"/>
		<circle cx="436.9" cy="626.8" r="1.6"/>
		<circle cx="498.6" cy="529.3" r="1.6"/>
		<circle cx="387.1" cy="678.1" r="1.6"/>
		<circle cx="431.8" cy="567.2" r="1.6"/>
		<circle cx="387.3" cy="468.2" r="1.6"/>
		<circle cx="372.1" cy="474.5" r="1.6"/>
		<circle cx="400.6" cy="465.6" r="1.6"/>
		<circle cx="419.6" cy="537.1" r="1.6"/>
		<circle cx="386.3" cy="524.6" r="1.6"/>
		<circle cx="342.6" cy="602.1" r="1.6"/>
		<path d="M718.8,778.4c-0.2-0.6-0.7-1-1.3-1s-1.1,0.4-1.3,0.9c-0.8,0.4-1.4,1.3-1.4,2.3c0,1.4,1.1,2.6,2.6,2.6
			c1.4,0,2.6-1.2,2.6-2.6C720,779.6,719.5,778.9,718.8,778.4z"/>
		<path d="M758.7,689.1c0-0.2,0-0.4-0.1-0.5c0.1-0.4,0.2-0.8,0.2-1.3c0-2.5-2-4.5-4.5-4.5c-1.9,0-3.5,1.2-4.2,2.9
			c-0.3,0.4-0.5,1-0.5,1.6s0.2,1.1,0.5,1.5c0.6,1.5,1.9,2.6,3.6,2.9c0.5,0.4,1.1,0.6,1.8,0.6C757.3,692.2,758.7,690.8,758.7,689.1z"
			/>
		<circle cx="699" cy="810.3" r="2"/>
		<ellipse cx="759.7" cy="698.6" rx="2.4" ry="2.4"/>
		<circle cx="768.1" cy="697.7" r="2.4"/>
		<circle cx="741.5" cy="750.9" r="1.8"/>
		<ellipse cx="769" cy="703.2" rx="2.2" ry="2.2"/>
		<path d="M775.6,718.2c-1.2,0-2.1,0.9-2.1,2.1c0,0.1,0,0.1,0,0.2c-0.5,0.4-0.8,1-0.8,1.7c0,1.2,1,2.1,2.1,2.1c1.2,0,2.1-1,2.1-2.1
			c0-0.1,0-0.2,0-0.3c0.5-0.4,0.8-1,0.8-1.6C777.7,719.1,776.8,718.2,775.6,718.2z"/>
		<circle cx="750" cy="673.4" r="2.1"/>
		<circle cx="729.9" cy="742.2" r="2.1"/>
		<circle cx="682.9" cy="818.5" r="1.7"/>
		<circle cx="736.8" cy="746.4" r="1.6"/>
		<path d="M733.1,766.6c-0.6,0-1.1,0.3-1.4,0.8c-0.2,0-0.4-0.1-0.6-0.1c-1.4,0-2.6,1.2-2.6,2.6c0,1.4,1.2,2.6,2.6,2.6
			c1.4,0,2.6-1.2,2.6-2.6c0-0.1,0-0.2,0-0.3c0.6-0.2,1-0.8,1-1.5C734.7,767.3,734,766.6,733.1,766.6z"/>
		<ellipse cx="722.4" cy="761" rx="1.6" ry="1.6"/>
		<ellipse cx="786.4" cy="709.6" rx="1.9" ry="2"/>
		<ellipse cx="706" cy="790.1" rx="1.6" ry="1.6"/>
		<circle cx="724.4" cy="772.3" r="1.6"/>
		<circle cx="767.4" cy="710.2" r="1.8"/>
		<circle cx="738.1" cy="766.1" r="1.5"/>
		<circle cx="776.4" cy="701.3" r="1.8"/>
		<circle cx="735.1" cy="762.6" r="1.5"/>
		<circle cx="703" cy="801.2" r="1.4"/>
		<ellipse cx="685.3" cy="802.5" rx="1.4" ry="1.4"/>
		<circle cx="705.9" cy="776.8" r="1.4"/>
		<ellipse cx="710.1" cy="784.6" rx="1.4" ry="1.4"/>
		<circle cx="708.8" cy="766.2" r="1.3"/>
		<circle cx="704" cy="779.6" r="1.3"/>
		<ellipse cx="441.5" cy="344.7" rx="1.9" ry="1.9"/>
		<ellipse cx="395.9" cy="305.7" rx="1.7" ry="1.7"/>
		<ellipse cx="438.2" cy="327.5" rx="1.6" ry="1.6"/>
		<ellipse cx="335.8" cy="301.9" rx="1.6" ry="1.6"/>
		<ellipse cx="365.8" cy="300.4" rx="1.5" ry="1.5"/>
		<ellipse cx="353.2" cy="300" rx="1.4" ry="1.4"/>
		<ellipse cx="429.6" cy="318.9" rx="1.4" ry="1.4"/>
		<ellipse cx="420.2" cy="324.1" rx="1.4" ry="1.4"/>
		<ellipse cx="364" cy="314.5" rx="1.3" ry="1.3"/>
		<ellipse cx="427.7" cy="324.6" rx="1.3" ry="1.3"/>
		<ellipse cx="398.3" cy="343.4" rx="1.2" ry="1.2"/>
		<ellipse cx="447.6" cy="339.5" rx="1.2" ry="1.2"/>
		<ellipse cx="416.9" cy="326.2" rx="1.2" ry="1.2"/>
		<ellipse cx="373.5" cy="321.1" rx="1.2" ry="1.2"/>
		<ellipse cx="415" cy="310" rx="1.2" ry="1.2"/>
		<ellipse cx="416.4" cy="345.2" rx="1.1" ry="1.1"/>
		<ellipse cx="462.5" cy="347.6" rx="1.1" ry="1.1"/>
		<ellipse cx="399.7" cy="306.2" rx="1.1" ry="1.1"/>
		<ellipse cx="425" cy="324.5" rx="1.1" ry="1.1"/>
		<ellipse transform="matrix(0.9935 -0.1138 0.1138 0.9935 -35.4186 51.3326)" cx="431.9" cy="335.9" rx="1" ry="1.1"/>
		<ellipse cx="416.9" cy="322.1" rx="1" ry="1"/>
		<ellipse cx="450.5" cy="347.4" rx="1" ry="1"/>
	</g>
</g>
<g id="vs-outline">
	<path fill="none" stroke="#000000" stroke-width="6" stroke-linecap="round" stroke-linejoin="round" stroke-miterlimit="10" d="
		M110.4,495.4c4.6-2,22-6.6,27.8-7.8c5.8-1.3,33.3-9.6,35.4-14.1c2-4.5,14.9-29.6,18.9-29.8c4-0.3,5.1,10.9,7.1,10.6
		s1.8-13.1,4.8-13.1s8.1,2,7.6-6.3s4.3-10.1,4.8-5.6s3,6.6,5.1-4.5c2-11.1,8.6-9.6,12.4-8.1s10.1-3.3,12.6,1s3.8,11.4,8.1,9.1
		c4.3-2.3,4.8-4.8,10.6-2c5.8,2.8,12.6,1.5,6.1-4.5c-6.6-6.1-2.8-9.3,0.5-9.9s6.1-1.5,4.5-6.8s10.1-9.6,13.1-8.6s10.1,2.3,14.4-3
		s6.6-6.1,9.1-3.8c2.5,2.3,9.1-1,13.9,1.8s10.1,6.6,11.9,2.8s7.1,4.3,7.6-0.3s6.3-2.5,6.3,5.6s-1.8,11.9-5.6,10.6
		c-3.8-1.3-1.5,5.3-6.8,7.1s-5.8,5.6-1.5,10.4s4,7.1,9.6,5.8c5.6-1.3,15.4-1,17.9,4c2.5,5.1,4,7.6,8.3,10.1s7.8,9.1,7.8,11.4
		s11.1,2.8,14.6-1s9.3-18.4,9.3-25.8s-0.5-13.1-0.3-19.2s5.1-13.9,5.1-18.7s8.6-13.4,9.1-7.6s7.8,4,7.3,7.8s2,8.8,2.5,14.4
		s1.3,12.1,6.6,12.1c5.3,0,8.3,3,13.4,13.1s12.9,21.2,12.6,25.5s-5.1,7.3-2.8,8.6c2.3,1.3,18.7,9.9,24.8,18.4
		c6.1,8.6,9.6,7.1,10.9,14.6c1.3,7.6,11.1,6.3,14.1,12.6s12.6,16.4,16.9,21c4.3,4.5,10.9,14.6,11.9,21c1,6.3,1,15.7,3.3,19.7
		s5.3,11.1,1,15.9c-4.3,4.8-6.6,29.8-10.9,37.1c-4.3,7.3-15.4,8.6-21,17.2c-5.6,8.6-11.9,19.4-12.1,29s1.5,16.7-4,18.7
		s-22.7,3.3-24.5,6.3s-1.8,6.1-9.3,6.6c-7.6,0.5-13.1,3.3-15.2,0.3c-2-3-8.1-10.9-9.6-8.1c-1.5,2.8-9.3,8.8-14.6,9.1
		c-5.3,0.3-9.1-1.3-11.9-3.3s-6.1-2.3-8.6,0s-2.3-3.3-7.6-3.5c-5.3-0.3-10.6-6.1-13.4-15.7c-2.8-9.6-4.3-19.2-8.8-18.4
		s-8.8,3-10.9,0.5c-2-2.5,4.5-4,2.8-8.3c-1.8-4.3-3.8-10.4-6.3-4.5c-2.5,5.8-7.1,8.6-9.9,7.6s7.1-8.1,7.3-14.9s3.5-14.6-1.3-12.1
		s-3.5,7.1-10.1,7.3s-5.1,5.1-5.6,9.9c-0.5,4.8-2.3,7.3-5.6,5.3c-3.3-2-8.8-9.1-9.1-12.6c-0.3-3.5-1.5-8.3-5.1-8.3
		c-3.5,0,0.8-7.6-5.1-7.8c-5.8-0.3-12.4-0.5-15.7-3.3c-3.3-2.8-1.3-8.8-8.8-8.1c-7.6,0.8-21,8.8-30.1,10.6s-16.4,0.3-32.8,0.5
		s-27,1-27,6.3s3,5.3-5.3,5.3s-11.6,4.8-16.9,4.5s-8.3-0.8-17.7-0.5S145,650,136.9,651s-21.5,9.1-24.5,5.8s-4.5-7.3-9.9-9.9
		c-5.3-2.5-7.3-7.8-3.3-11.1s1.3-15.2,6.1-10.4c4.8,4.8,4.8,5.3,4.5-4s-8.6-22.7-10.6-29.6c-2-6.8-8.1-11.1-8.1-20.5
		S85,563,83,556.1c-2-6.8-1-8.3,2.5-6.6s3.3-6.6,5.1-2.3c1.8,4.3,3.8,2.5,1.3-5.8s-0.5-12.9-4.3-11.6s-6.1-1.8-2-5.1
		c4-3.3,0.8-10.4,4.5-15.2c3.8-4.8,4.8-5.1,6.3-3.3C98,508.3,104,498.2,110.4,495.4z"/>
	<path fill="none" stroke="#000000" stroke-width="6" stroke-linecap="round" stroke-linejoin="round" stroke-miterlimit="10" d="
		M219,202c-1.5-5.3-5.3-10.6-8.2-7.9c-2.9,2.6-7.4,4.6-11.8,1.9c-4.3-2.6-5.3-13.4,0.5-15.6c5.8-2.2,10.1-4.6,11.5-9.1
		c1.4-4.6,10.6-10.3,11-4.1s2.4,9.4,6.7,9.1c4.3-0.2,4.1-5.5,9.8-8.6s9.8-7.9,11.8,0.7c1.9,8.6,4.8,10.8,1.2,14.6s1.2,8.2-1.4,16.3
		c-2.6,8.2-2.4,15.4-7.7,12.7C237.2,209.4,220.9,208.7,219,202z"/>
	<path fill="none" stroke="#000000" stroke-width="6" stroke-linecap="round" stroke-linejoin="round" stroke-miterlimit="10" d="
		M264.4,242.5c-1-3.9,0.7-9.1,6.2-9.1s13.4,4.1,9.1,6.2c-4.3,2.2-7.2,9.8-5,15.1s0.7,8.9-2.9,14.9s-6.2,3.1-11.3,1.4
		c-5-1.7-7.2-7-7.2-12s3.6-4.3,5.5-6.2S265.6,247.1,264.4,242.5z"/>
	<path fill="none" stroke="#000000" stroke-width="6" stroke-linecap="round" stroke-linejoin="round" stroke-miterlimit="10" d="
		M282.6,278.1c0.7-4.3,7-4.8,13.9-3.6c7,1.2,12.5,4.6,16.3,4.8c3.8,0.2,9.1-1,8.9,2.2c-0.2,3.1,0,8.9,1.9,8.9s10.8-0.5,10.6,2.4
		c-0.2,2.9-0.5,8.9,1.4,10.6s7.9,0.5,10.3-2.2s-1-6.2-3.4-6.7s0-4.1,5-4.3c5-0.2,11.5-6,16.6-5.3s13.9,1.2,15.4,4.3
		c1.4,3.1,6.2,1,11.3,1s7.9,6.2,13.2,6.2c5.3,0,13.2,4.6,17,7.4c3.8,2.9,8.2,4.1,14.2,4.1s11.3,9.4,15.4,10.6s5.5,6,6.5,9.1
		s9.1,1.4,17.5,4.6c8.4,3.1,19.2,8.4,10.3,8.4s-17.8,2.6-13.2,5.3c4.6,2.6,14.6,5,14.9,7c0.2,1.9-1.9,7.9,2.4,10.1
		s10.1,7.9,10.6,12.2c0.5,4.3,5,6,8.9,6c3.9,0,11.8,6,2.2,7.9c-9.6,1.9-13.9,1-17-3.6s-12-4.8-12.7-9.1c-0.7-4.3-2.9-9.1-6.5-8.6
		s-8.9-19.2-13.4-18.2s-20.4,6.7-22.1,3.1s-5-4.3-7.2-1.7c-2.2,2.6-13.9,5.3-9.6,7.2s9.6,7.7,2.4,8.2s-12,2.6-18.5,0.2
		s-12.2-1.2-13.2-6.2s-3.4-10.3-7.4-7.9c-4.1,2.4-11.8,4.8-15.6,4.8s-3.1-7-2.2-9.4s9.6-0.7,11.3-3.4c1.7-2.6-0.2-7.7-3.1-9.1
		s-8.4-7.2-11-9.6s-16.3-8.9-23-8.9s-16.6-1.4-17.5-4.8s-6.2-10.6-7.4-5.5c-1.2,5-1.9,6.7-7.2,6c-5.3-0.7-0.5-7-4.3-8.9
		s-5.3-7.7-0.7-7.4c4.6,0.2,11-1.2,10.8-4.6s-8.6-2.4-14.4-3.8s-8.4-6.5-11.3-6.2C286.7,281.7,282.1,281.2,282.6,278.1z"/>
	<path fill="none" stroke="#000000" stroke-width="6" stroke-linecap="round" stroke-linejoin="round" stroke-miterlimit="10" d="
		M430.2,255.9c3.5,0.6,14-3.8,20.4-3.5s13.1,5.2,19.2,4.7s17.2-2.3,14.6,1.5c-2.6,3.8-7.6,15.7-14.3,15.7s-14.6-2-21-2
		s-21.3-2-22.4-7s-1.7-6.7-6.7-7.3S425,255.1,430.2,255.9z"/>
	<path fill="none" stroke="#000000" stroke-width="6" stroke-linecap="round" stroke-linejoin="round" stroke-miterlimit="10" d="
		M499.3,262.9c-0.2-2.6,5.2-4.4,8.2-4.7c2.9-0.3,14.6-3.8,16.9-2.3c2.3,1.5,4.4,10.8-0.3,12.2s-15.7,3.5-20.4,3.5
		C499,271.7,499.6,266.7,499.3,262.9z"/>
	<path fill="none" stroke="#000000" stroke-width="6" stroke-linecap="round" stroke-linejoin="round" stroke-miterlimit="10" d="
		M541.9,272.6c0.6-3.2,9.6-1.5,9.9-0.3c0.3,1.2,14.6,4.7,9,8.7c-5.5,4.1-10.5,6.7-13.7,1.5C543.9,277.2,541,277.5,541.9,272.6z"/>
	<path fill="none" stroke="#000000" stroke-width="6" stroke-linecap="round" stroke-linejoin="round" stroke-miterlimit="10" d="
		M494.7,325.6c-2.1-1.7,8.5-5.5,11.4-6.1s4.4,5,7.3,3.8s7.9-13.7,15.2-14s0.3,8.5-1.7,14.3s-8.5,8.7-14.9,8.7
		C505.5,332.3,496.4,327.1,494.7,325.6z"/>
	<path fill="none" stroke="#000000" stroke-width="6" stroke-linecap="round" stroke-linejoin="round" stroke-miterlimit="10" d="
		M559.7,330c1.2-1.7,5-4.4,9,4.7c4.1,9,11.4,6.4,7.6,9.6c-3.8,3.2-12,1.2-13.7-1.2C560.8,340.8,556.8,334.1,559.7,330z"/>
	<path fill="none" stroke="#000000" stroke-width="6" stroke-linecap="round" stroke-linejoin="round" stroke-miterlimit="10" d="
		M643.1,302c0-4.8,14.6-4.7,16.6-1.2s2.9,14.9-1.7,15.2c-4.7,0.3-5.8-1.7-10.2-2.9C643.4,311.9,643.1,306.1,643.1,302z"/>
	<path fill="none" stroke="#000000" stroke-width="6" stroke-linecap="round" stroke-linejoin="round" stroke-miterlimit="10" d="
		M558.6,412.3c-3.9,2.2-2.7-2.1-7.7-5.6c-5.1-3.6-7.1-20.8-1.8-22.6c5.3-1.8,9.5,1.2,13.7,5.1s7.7,3.6,6.2,12.8
		C567.5,411.1,561.2,410.8,558.6,412.3z"/>
	<path fill="none" stroke="#000000" stroke-width="6" stroke-linecap="round" stroke-linejoin="round" stroke-miterlimit="10" d="
		M585.6,357.3c4.3-7.7,16.9,0.6,18.1,4.8c1.2,4.2-1.2,10.7-2.7,15.5s-11.6,8.9-12.2,3.3c-0.6-5.6-1.2-9.5-2.1-12.5
		C585.9,365.3,584.1,360,585.6,357.3z"/>
	<path fill="none" stroke="#000000" stroke-width="6" stroke-linecap="round" stroke-linejoin="round" stroke-miterlimit="10" d="
		M733.4,410.8c-10.4-1.2-9.5-10-5.2-17.6s11.4-19,13.3-8.1c1.9,10.9,3.3,11.9,1.4,18.1C741,409.4,741.5,411.7,733.4,410.8z"/>
	<path fill="none" stroke="#000000" stroke-width="6" stroke-linecap="round" stroke-linejoin="round" stroke-miterlimit="10" d="
		M794.8,449.3c-2.3-5.1,3.8-14.3,7.6-19.5s8.6-3.8,9.5,1c1,4.8,10,3.8,5.7,9s-4.3,11.4-4.3,15.2c0,3.8,6.7,22.3-1.9,22.3
		s-10.5-0.5-9-8.6C803.8,460.7,796.7,453.6,794.8,449.3z"/>
	<path fill="none" stroke="#000000" stroke-width="6" stroke-linecap="round" stroke-linejoin="round" stroke-miterlimit="10" d="
		M906,400.3c4.3-2.1,17.6,3.8,12.4,12.4c-5.2,8.6-11.4,22.3-17.6,22.3c-6.2,0-10-7.1-2.9-10.9s8.6-8.6,3.3-10.9
		C896,410.8,904.1,401.3,906,400.3z"/>
	<path fill="none" stroke="#000000" stroke-width="6" stroke-linecap="round" stroke-linejoin="round" stroke-miterlimit="10" d="
		M532.3,425.5c4.4-1.9,11.4,12.4,8.6,20c-2.9,7.6-12.4,7.6-13.3-1C526.6,436,529,427,532.3,425.5z"/>
	<path fill="none" stroke="#000000" stroke-width="6" stroke-linecap="round" stroke-linejoin="round" stroke-miterlimit="10" d="
		M521.8,468.3c4.3-0.3,10,2.9,7.1,5.7c-2.9,2.9,9,8.1,4.3,13.8c-4.8,5.7-13.3,5.7-14.3,0C518,482.1,515.6,468.8,521.8,468.3z"/>
	<path fill="none" stroke="#000000" stroke-width="6" stroke-linecap="round" stroke-linejoin="round" stroke-miterlimit="10" d="
		M619.3,477.8c4.3-5.9,8.1-6.2,10.9,0c2.9,6.2-1,12.8-5.7,13.3S611.7,488.3,619.3,477.8z"/>
	<path fill="none" stroke="#000000" stroke-width="6" stroke-linecap="round" stroke-linejoin="round" stroke-miterlimit="10" d="
		M729.1,473.6c-1.3-6.5,2.4-6.2,7.6-6.2c5.2,0,16.6-3.3,13.8,4.3c-2.9,7.6-8.1,17.1-19.5,17.1C719.6,488.8,729.6,475.9,729.1,473.6z
		"/>
	<path fill="none" stroke="#000000" stroke-width="6" stroke-linecap="round" stroke-linejoin="round" stroke-miterlimit="10" d="
		M625,504.5c0-5.2,10-4.3,17.6-1.4s21.9,3.8,16.6,7.6c-5.2,3.8-2.4,13.3,1,20.4c3.3,7.1,10.9,13.8,6.2,13.8s-12.8,5.7-17.1,0
		s-3.8-15.7-8.1-23.3C636.9,514,625,507.3,625,504.5z"/>
	<path fill="none" stroke="#000000" stroke-width="6" stroke-linecap="round" stroke-linejoin="round" stroke-miterlimit="10" d="
		M626.9,557.2c2.5-6.2,8.6-1.9,12.8-0.5c4.3,1.4,8.1,5.2,6.7,12.8c-1.4,7.6-10.9,14.7-16.2,14.7C625,584.3,625,562,626.9,557.2z"/>
	<path fill="none" stroke="#000000" stroke-width="6" stroke-linecap="round" stroke-linejoin="round" stroke-miterlimit="10" d="
		M674.9,556.3c0-9,4.8-6.2,14.3-4.3s2.9,20.4-0.5,20.4S674.9,560.6,674.9,556.3z"/>
	<path fill="none" stroke="#000000" stroke-width="6" stroke-linecap="round" stroke-linejoin="round" stroke-miterlimit="10" d="
		M743.4,525.9c2.1,0.5,3.8,8.1,6.2,13.8s3.3,16.2-4.3,15.7s-13.8-2.4-12.4-10.9s6.7-3.8,6.7-9C739.6,530.1,741.5,525.4,743.4,525.9z
		"/>
	<path fill="none" stroke="#000000" stroke-width="6" stroke-linecap="round" stroke-linejoin="round" stroke-miterlimit="10" d="
		M691.6,581.5c1.7-0.7,9-6.7,10.5-1.9s10.9,14.7,7.1,14.7s-2.9,8.1-10.5,3.3C691.1,592.9,684.9,584.3,691.6,581.5z"/>
	<path fill="none" stroke="#000000" stroke-width="6" stroke-linecap="round" stroke-linejoin="round" stroke-miterlimit="10" d="
		M438.4,736.5c-0.1-1.8-1.8-7.1,6.2-4.2c8,3,17.9-0.3,26.5,0s16.1,1.5,10.1,6.5s-6.2,11-6.2,16.1s2.4,15.2-0.6,14s-4.5-3-5.4,1.2
		s-3.9-2.1-12.5-2.1s-12.5-1.2-10.4-10.1C448.2,749,438.7,743.7,438.4,736.5z"/>
	<path fill="none" stroke="#000000" stroke-width="6" stroke-linecap="round" stroke-linejoin="round" stroke-miterlimit="10" d="
		M730,649c0.3-3.9,3-6.2,7.1-1.8c4.2,4.5,8.6,11.6,15.5,13.4c6.8,1.8,8.6,13.7,8.9,19.6c0.3,6,6.2,7.1,6.2,2.4s-2.4-14.3,1.2-12.8
		c3.6,1.5,6.8,17.3,13.4,22.3c6.5,5.1,11,3.9,17,2.7s14.6-1.8,8.3,6c-6.2,7.7-8,11-12.2,11.6s-2.7,6.2-3,9.8s-6,6.5-10.7,6.5
		s-2.1,17-8,16.7c-6-0.3-8-14.3-8-19s-8.6-13.1-12.8-14s-17.3-14.6-17.9-24.7c-0.6-10.1,3.3-23.5-0.9-26.2S729.7,653.2,730,649z"/>
	<path fill="none" stroke="#000000" stroke-width="6" stroke-linecap="round" stroke-linejoin="round" stroke-miterlimit="10" d="
		M662.1,808.9c1.9-1.7,11.3-6.1,11.6-11.3s4.2-10.6,7.4-10.6s5.8-1,9.7-3.2c3.9-2.3,7.4-11.6,13.2-12.6s7.7-2.3,7.7-8.7
		s6.4-10.3,7.7-15.1s7.7-14.2,11.6-14.2c3.9,0,6.1,2.6,6.1,5.8s5.2,1.9,7.7,0c2.6-1.9,4.2,4.5,4.5,7.7s1.6,7.4-1.9,10.6
		c-3.5,3.2-5.8,7.4-5.8,15.1c0,7.7,1.6,11.9-8.1,11.9c-9.7,0-20,2.3-21.3,8.7s-10.9,22.5-13.5,25.8c-2.6,3.2-8.7,11.9-14.2,11.9
		s-9.3,1-10-3.9c-0.6-4.8-1.9-6.8-6.4-6.4C663.7,820.8,652.1,817.9,662.1,808.9z"/>
</g>
<g id="vs-mountains">
	<path fill="none" stroke="#231F20" stroke-width="3" stroke-linecap="round" stroke-linejoin="round" stroke-miterlimit="10" d="
		M140,523.6c0,0,3.8-19.2,9.7-19.2s9.7,19.2,9.7,19.2"/>
	<path fill="none" stroke="#231F20" stroke-width="3" stroke-linecap="round" stroke-linejoin="round" stroke-miterlimit="10" d="
		M160.9,562.2c0,0,3.8-19.2,9.7-19.2s9.7,19.2,9.7,19.2"/>
	<path fill="none" stroke="#231F20" stroke-width="3" stroke-linecap="round" stroke-linejoin="round" stroke-miterlimit="10" d="
		M281.2,519.8c0,0,3.8-19.2,9.7-19.2s9.7,19.2,9.7,19.2"/>
	<path fill="none" stroke="#231F20" stroke-width="3" stroke-linecap="round" stroke-linejoin="round" stroke-miterlimit="10" d="
		M378.9,323.9c0,0,3.8-19.2,9.7-19.2s9.7,19.2,9.7,19.2"/>
	<path fill="none" stroke="#231F20" stroke-width="3" stroke-linecap="round" stroke-linejoin="round" stroke-miterlimit="10" d="
		M426.6,341.6c0,0,3.8-19.2,9.7-19.2s9.7,19.2,9.7,19.2"/>
	<path fill="none" stroke="#231F20" stroke-width="3" stroke-linecap="round" stroke-linejoin="round" stroke-miterlimit="10" d="
		M432,478.5c0,0,3.8-19.2,9.7-19.2s9.7,19.2,9.7,19.2"/>
	<path fill="none" stroke="#231F20" stroke-width="3" stroke-linecap="round" stroke-linejoin="round" stroke-miterlimit="10" d="
		M498.9,555.3c0,0,3.8-19.2,9.7-19.2c5.9,0,9.7,19.2,9.7,19.2"/>
	<path fill="none" stroke="#231F20" stroke-width="3" stroke-linecap="round" stroke-linejoin="round" stroke-miterlimit="10" d="
		M496.8,619.2c0,0,3.8-19.2,9.7-19.2s9.7,19.2,9.7,19.2"/>
	<path fill="none" stroke="#231F20" stroke-width="3" stroke-linecap="round" stroke-linejoin="round" stroke-miterlimit="10" d="
		M451.2,676.7c0,0,3.8-19.2,9.7-19.2s9.7,19.2,9.7,19.2"/>
</g>
<g id="vs-reveal" opacity="0">
	<path fill="none" stroke="#000000" stroke-width="50" stroke-linecap="round" stroke-linejoin="round" stroke-miterlimit="10" d="
		M142.3,167.2c7.8-17.4,49.8-47.4,97.2-55.2s58.2,7.2,27,22.8S162.7,180.4,151.3,190s-25.8,44.4,13.2,28.2s124.8-69,136.8-64.8
		s45,12.6-13.2,43.8s-96,34.8-94.8,58.2s17.4,38.4,43.8,21s73.2-58.8,90.6-56.4c17.4,2.4,29.4,9.6,9,25.8s-112.8,50.4-113.4,60.6
		c-0.6,10.2,6,36.6,32.4,25.2s147-109.8,163.2-117.6c16.2-7.8,36.9-24.1,63.1-16.6c26.3,7.5-3.8,37.5-47.5,62.6
		c-43.8,25-196.4,103.8-230.2,123.9c-33.8,20-138.5,76.3-153.9,85.1c-26.3,15-16.3,58.8,3.8,55s126.4-85.1,152.6-101.3
		S527.1,231.3,548.4,215s50,6.3,11.3,35c-38.8,28.8-191.4,118.9-230.2,142.6S59.1,531.4,49.1,538.9s-5,42.5,18.8,36.3
		c33.6-8.8,205.2-118.9,229-132.6c23.8-13.8,309-190.2,319-192.7s66.3-23.8,51.3,0S510.8,352.5,473.3,376.3
		c-37.5,23.8-254,155.1-297.8,177.7S42.9,612.7,44.1,627.7c1.3,15,12.5,50,46.3,17.5c21.5-20.7,249-155.1,265.2-161.4
		c16.3-6.3,307.8-186.4,315.3-192.7s63.8-27.5,42.5-1.3c-21.3,26.3-145.1,111.4-177.7,132.6c-32.5,21.3-307.8,180.2-344.1,202.7
		S70.4,685.3,74.2,700.3c3.8,15,63.8,6.3,106.3-22.5s260.2-152.7,285.3-171.4s252.7-180.2,266.5-182.7s40-5,28.8,10
		c-11.3,15-80.1,61.3-106.3,82.6C628.4,437.6,233.1,671.5,218,686.5c-15,15,60.1,1.3,78.8-8.8c18.8-10,172.7-115.1,196.4-128.9
		c23.8-13.8,279-190.2,296.5-190.2s45,12.5,22.5,26.3S488.3,586.5,457,610.2c-31.3,23.8-135.1,91.3-133.9,101.3
		c1.3,10,25,27.5,50,10s216.4-150.1,235.2-163.9C627.1,543.8,876,376.2,881,371.2s53.8-37.5,66.3-11.3S853.5,441.2,817.2,465
		c-36.3,23.8-206.4,138.9-249,167.7c-42.5,28.8-167.7,108.8-177.7,118.9c-10,10,2.5,50,20,41.3S542.1,685.3,562.1,674
		s241.5-153.9,252.7-162.6c11.3-8.8,114.1-97.7,123.9-103.8c20-12.5,43.8,20-7.5,52.5c-35.5,22.5-126.4,100.1-161.4,122.6
		c-35,22.5-180.2,121.4-226.5,148.9s-113.9,86.3-90.1,91.3s97.6-53.8,128.9-80.1s200.2-146.4,212.7-152.6s20,38.8-10,57.6
		s-101.3,73.8-127.6,92.6s-87.6,111.4-53.8,91.3c33.8-20,202.7-160.1,221.5-170.2c18.8-10,60.1,12.5,25,42.5
		S648.4,841.7,637.2,852.9c-11.3,11.3-6.3,48.8,30,28.8s170.2-123.9,170.2-123.9"/>
</g>
</svg>
