<?xml version="1.0" encoding="utf-8"?>
<!-- Generator: Adobe Illustrator 18.0.0, SVG Export Plug-In . SVG Version: 6.00 Build 0)  -->
<!DOCTYPE svg PUBLIC "-//W3C//DTD SVG 1.1 Tiny//EN" "http://www.w3.org/Graphics/SVG/1.1/DTD/svg11-tiny.dtd">
<svg version="1.1" baseProfile="tiny" id="Layer_1" xmlns="http://www.w3.org/2000/svg" xmlns:xlink="http://www.w3.org/1999/xlink"
	 x="0px" y="0px" width="350px" height="500px" viewBox="0 0 350 500" xml:space="preserve">
<g id="Layer_2">
	<path fill="#E24D4D" d="M188.4,473.7l2.3,14.4h17.9c0,0,4.4-2.6,14-1.2c9.5,1.4,19.5,1.9,25.1,0.5s7.7-2.5,7.7-2.5v-10.1l-33.5-9.2
		c0,0-16.9-1.8-34.1,7.1"/>
	<path fill="#725041" d="M153.5,48.9c0,0-9.1-2.1-8.7,6.8c0.4,8.9,4.3,6.8,4.3,6.8s0,6.2-0.7,9.2s-10.3,12.6-10.3,12.6
		s8.1,15.4,31.6,8.5c0,0,2.2,1.4,5.5-0.8s13.6-14.8,15.1-20.4c1.4-5.6,1.6-6.4,3.6-10.5s6-11,3.6-15.4c-2.3-4.4-1.6-5.1-6.5-5.2
		s-9.6-1.4-13-3s-11.8-6.1-16.3,4.3s-2.9,13.3-4.7,14C155.3,56.5,154,54.5,153.5,48.9z"/>
	<path fill="#586C75" d="M113.5,258.6c0,0,0.9,33.7,2.4,42.9c1.5,9.2,2.7,15.5,2.5,24s0,41.5,0,41.5s0.1,38.8,0.3,40s1,44.7,1,44.7
		v18.6l2.2,4.1c0,0,9.5-1.6,15.5-1.7s14.6,2.1,14.6,2.1h4.7l2.7-5.2l-3-9.7l-0.4-52.2l6-73.2l2.3-43.2l2-0.3l18.4,53.1
		c0,0-0.9,18.8-1,19.3s-3.3,79.3-3.3,79.3l5.5,10.2c0,0-6,4.6-2,13s4,7.8,4,7.8s20.1-6.6,26-7.1s11.4-0.6,9.6-5.1s-6.7-14-2.1-69.8
		c4.6-55.8,1.8-80.5,1.8-80.5s-5.6-32-11.3-40.7s-5.4-25.4-5.4-25.4l-81.5-4.7L113.5,258.6z"/>
	<path fill="#725041" d="M94.3,132.2c0,0-13.5,28.1-14.8,44.3c0,0,2.9,19.3,3.8,24.9c0.9,5.6,4.2,16.5,7.5,24.4s9.9,22.6,9.9,22.6
		l17.2,13c0,0,8-9.4,7.7-15.5s-2.4-11.7-15.2-18l-3.3-8.5l-1.8-40.4c0,0,9.8-24.3,10.2-24.7c-2.6-17.6-20.8-22.7-20.8-22.7"/>
	<path fill="#262525" d="M148.5,48.4c0,0-0.6-18.8,5.5-24.8s16-7.8,24.8-5.7s15.3,3.8,16.2,4s9.3,2.3,9.3,2.3s4.2,6.7-1.3,21.6
		l-5.5,9.5c0,0,2.6-8.4-0.2-11.7S184.2,41,184.2,41s-10.2-7.4-15.7-5.7s-9.1,13.2-9.2,13.7c-0.1,0.5-0.8,7.6-2.3,7.6
		s-3.8-1.7-3.2-6.9L148.5,48.4z"/>
	<path fill="#D8D8D8" d="M139.2,83.6c0,0,6.2,16.7,29.1,9.6l6-0.3l5.8-3.7l23.1,10l17,17.8c0,0-6.5,15-4.1,19.6l-4.4,0.7l-1.7,1.4
		L200,163c0,0,2.9,68.2,6.2,82c0,0-1.3,5.2-11,6.2s-19.5,0.7-27.8,4.6c-14,6.5-35,8.2-39.3-9.2c-3.4-14-7.6-12.7-8.4-13.4
		s1.3-8.5,2.6-12.1c1.3-3.7,3.1-17.5,3.1-17.5l-6.8-55.4l-3.4,4.9c0,0-2.5-13.9-12.9-18.6c-10.3-4.6-9.1-0.8-8.7-1.6
		c0.5-0.8,14.4-33.1,17-35.6c2.7-2.5,9.8-6.9,17.5-8.6S139.2,83.6,139.2,83.6z"/>
	<path fill="#725041" d="M216.6,158.4l10.9,11.9c0,0,10.8,5.6,16.9,5.2c6.1-0.5,8.6,0.9,9.1-6.9c0.5-7.8-0.2-18.9-0.2-18.9
		s-2.5-4.2-6.9-7.5s-24-21.2-25.8-23.6s-1-1.2-0.5-0.6s-3.1,5.3-3.6,8.7s-0.4,10.1-0.4,10.1s5.3,1.6,6.1,2.8s1.3,3,1.3,3
		S227.9,149.1,216.6,158.4z"/>
	<path fill="#725041" d="M185.3,155.4c0,0-7.9,3.7-5.2,5.6c2.7,1.9,5.8,2.5,8.7,1.4s3.1,0.6,3.1,0.6s1.8,1.5,4.9,0.7
		s8.9-6.5,12.3-6.8s0.9,0.5,3.7-2.3c2.8-2.7,9.6-7.6,3.7-12.5c-0.4-0.3-0.4-0.3-0.4-0.3s-13.6-4.1-23.3-0.6s-8,4.1-7.7,7.1
		C185.4,151.3,185.3,155.4,185.3,155.4z"/>
	<path fill="#E24D4D" d="M122.9,475.4c0,0-11.8,4.4-11.5,6.1s1,10.8,2.7,11.4c1.7,0.5,21.6,2.3,30.4,0s15.4-5.5,15.4-5.5l-0.9-12
		C158.9,475.4,137.1,469.1,122.9,475.4z"/>
	<path fill="#262525" d="M217.1,142.6c0,0,1.7,4.5-0.3,7.4c-2,2.8-4.7,5.4-4.7,5.4l3.9,3c0,0,5.7-3.6,6.4-5.5s1.3-10.4,1.3-10.4
		L217.1,142.6z"/>
	<polygon fill="#FFFFFF" points="211.4,137.7 210.2,139.8 214.9,141.1 223.3,142.1 221.9,139.1 	"/>
	<path fill="#FFFFFF" d="M200.8,471.9c0,0,5.6,6.4,4.9,10.4l9.8,0.4c0,0-9.4-9.8-9.8-11.6c-0.4-1.8-6.2,0.8-6.2,0.8L200.8,471.9
		L200.8,471.9z"/>
	<polygon fill="#FFFFFF" points="149.4,474.9 145.8,486.9 151.2,485.5 152.5,475.7 	"/>
</g>
<g id="Layer_1_1_">
	<path fill="none" stroke="#141414" stroke-width="2" stroke-linecap="round" stroke-linejoin="round" stroke-miterlimit="10" d="
		M153.5,49.8c0,0-8.3-3.8-8.7,4.5c-0.3,8.3,4.1,8.6,5.9,8.1"/>
	<path fill="none" stroke="#141414" stroke-width="2" stroke-linecap="round" stroke-linejoin="round" stroke-miterlimit="10" d="
		M153.5,49.8c0,0,0.1,6,2,6.6c3.5,1.3,3.5-11.3,6.3-14.5c0,0,3.6-7.9,9.9-6.8c6.3,1.1,9.9,5.7,12.9,5.5c2.9-0.2,5-0.2,7,0
		c2.1,0.2,3.9-0.3,5.8,3.4c1.1,2.2,0,8.8,0,9.1l-0.9,2.8"/>
	<path fill="none" stroke="#141414" stroke-width="2" stroke-linecap="round" stroke-linejoin="round" stroke-miterlimit="10" d="
		M148.5,49.2c0,0-0.5-16.8,3.5-22.6s13.5-11.5,23-10.1c9.5,1.5,14.1,4.6,15.6,4.6s13.6,2.9,13.6,2.9s2.4,7.6,0.9,12
		c-1,2.9-2.8,15.8-8.6,20"/>
	<path fill="none" stroke="#141414" stroke-width="2" stroke-linecap="round" stroke-linejoin="round" stroke-miterlimit="10" d="
		M196.6,55.9c0,0-5.3,10.4-5.4,12c-0.2,1.6-0.9,4.6-1.9,6.2c-1.8,2.7-8.2,13.9-10.7,15.8c-3,2.4-7.8,5.4-14.8,0
		c-5.1-4-13.5-10.3-11.5-21"/>
	<path fill="none" stroke="#141414" stroke-width="2" stroke-linecap="round" stroke-linejoin="round" stroke-miterlimit="10" d="
		M148.8,63.5c0.4,1,0.1,13.1-2.7,13.6c2.4-3.2-1.9,3.6-9.6,8.3c-5.9,3.5-13.4,3.7-17.1,5.9"/>
	<path fill="none" stroke="#141414" stroke-width="2" stroke-linecap="round" stroke-linejoin="round" stroke-miterlimit="10" d="
		M179.5,88.8c0.5,0.4,3.1,2.6,20.5,8.7c5.4,1.9,15.8,13.4,18.9,18.6"/>
	<path fill="none" stroke="#141414" stroke-width="2" stroke-linecap="round" stroke-linejoin="round" stroke-miterlimit="10" d="
		M119.3,91.1c-3.7,2.1-9.1,5.2-11.1,10.7c-2,5.7-16.7,35-22.1,49.3c-3.3,8.9-6.6,25.7-6.6,27.5s3.2,18.3,4.6,27.6
		c1.4,9.4,16.6,42.2,16.6,42.2l16.2,12"/>
	<path fill="none" stroke="#141414" stroke-width="2" stroke-linecap="round" stroke-linejoin="round" stroke-miterlimit="10" d="
		M118.8,147.1l-11.2,25.1c-0.1,0.8-2.6,8-2.4,6.7c0.3-1.9-0.3,13.9,0.1,14.9c0.5,1.4,1.1,23.8,1.9,26.2c0.9,2.3,3.1,7.7,3.1,7.7
		l8.8,5c0.2-0.7,7.5-22.5,6.4-31.4C125.6,201.2,119.3,148.5,118.8,147.1"/>
	<path fill="none" stroke="#141414" stroke-width="2" stroke-linecap="round" stroke-linejoin="round" stroke-miterlimit="10" d="
		M219,116.1c2.9,5,15.4,16.5,17.8,18.9c2.3,2.3,15.2,9.7,16.6,14.6c1.4,5,0.5,18.3,0,20.4s0.5,5.5-6.9,5.5s-17.9-3.2-22-7.7
		c-4.2-4.5-5.8-6.2-8.5-8.6s-1.1-1.8-3.7-2.6c-2.7-0.9-5.6,1.6-5.3,1.2c0,0-4.7,3-6.6,4.5c-1.9,1.5-6.8,1.7-6.8,1.7l-3.2-1.7
		L186,158c0,0-1.7-11.4-0.9-13s2.9-2.1,3.2-2.5c0.3-0.5,2.7-1.8,5.1-2.1s5.9-1.1,5.9-1.1s8.6,0.5,9.6,0.8s1.2-2.8,2.9-2.7
		s5.7,0.3,5.7,0.3s3.6,1,4.6,1.8s1.1,3.5,1.6,3.3s5.6,2.5,7.8,3.2c2.3,0.7,8.8,2.7,9.8,1.6"/>
	<path fill="none" stroke="#141414" stroke-width="2" stroke-linecap="round" stroke-linejoin="round" stroke-miterlimit="10" d="
		M213.4,149.8c0,0-7.3,0.8-8.1-1.3c-0.3-0.7-1.3-2.9-1.3-2.9v4.3l2,0.1"/>
	<path fill="none" stroke="#141414" stroke-width="2" stroke-linecap="round" stroke-linejoin="round" stroke-miterlimit="10" d="
		M205.9,149.9c0,0,6,2.9,0.3,5.4c-1.4,0.6-7.6-2-7.6-2l-0.8-6.2"/>
	<path fill="none" stroke="#141414" stroke-width="2" stroke-linecap="round" stroke-linejoin="round" stroke-miterlimit="10" d="
		M202.7,160c0,0-8.8-2.5-9.4-4c-0.7-1.5-0.7-6.8-0.7-7.5"/>
	<path fill="none" stroke="#141414" stroke-width="2" stroke-linecap="round" stroke-linejoin="round" stroke-miterlimit="10" d="
		M197.9,163.3c0,0-7.6-3.6-8.5-6c-0.9-2.3-0.7-4.3-0.8-6.1"/>
	<path fill="none" stroke="#141414" stroke-width="2" stroke-linecap="round" stroke-linejoin="round" stroke-miterlimit="10" d="
		M185.1,156.1c0,0-6,1.7-5.6,3.6c0.4,2,1.5,3.4,3.9,3.3c2.3-0.2,6.9-0.8,6.9-0.8"/>
	<path fill="none" stroke="#141414" stroke-width="2" stroke-linecap="round" stroke-linejoin="round" stroke-miterlimit="10" d="
		M208.9,140c0,0,6.7,0.8,7.3,2.1c0.6,1.4,1.8,4.7,1.3,6.3c-0.5,1.8-3.1,5.1-4.9,6.2s-2,2-2,2"/>
	<path fill="none" stroke="#141414" stroke-width="2" stroke-linecap="round" stroke-linejoin="round" stroke-miterlimit="10" d="
		M216.6,158.4c0.1-0.4,9.5-4.1,7.3-15.7c0.5,0-5.1-0.6-7.6-0.6"/>
	<path fill="none" stroke="#141414" stroke-width="2" stroke-linecap="round" stroke-linejoin="round" stroke-miterlimit="10" d="
		M200.1,163.1c0.1-2.1-0.9,26,0.1,36.6c0.9,10,7,53.5,8.3,58.9c1.4,5.4,9.1,26.6,9.1,26.6s6.4,17.7,6.4,31.8c0,14.2,0,23.1,0,23.1
		s-5,101.4-3.4,110.3c1.6,8.9,3.7,11,2.9,14s-11.8,1.2-16.4,3.6c-4.6,2.5-19.4,6.8-18.8,5s-6.2-8.1-5.8-13.4
		c0.2-2.3,3.9-6.7,3.9-6.7l-5.5-9.5c0,0,2.6-80.3,4.1-87.8s0-12.5,0-12.5s-16.9-50.3-18.2-52.1"/>
	<path fill="none" stroke="#141414" stroke-width="2" stroke-linecap="round" stroke-linejoin="round" stroke-miterlimit="10" d="
		M114.2,258.6c0,0,0,0-0.1,13.5c-0.2,23.7,5.2,39.5,5,49.3s-0.5,16.2,0,18.7s-1,63.7,0,66.2c1,2.5,1.2,48.4,1.1,52.1
		s0.1,11.2,0.1,11.2l2.6,5.8c0,0,18.6-5,25.4-1.9l8.7,1.9l3-5.8l-3-8.5c0,0-0.1-45.5-0.7-47.4c-0.7-1.9,7.4-82.6,7.4-82.6
		c0-2.6,0.6-40.9,3.1-43.4s8-7.5,8-7.5"/>
	<path fill="none" stroke="#141414" stroke-width="2" stroke-linecap="round" stroke-linejoin="round" stroke-miterlimit="10" d="
		M123.1,475.5c0,0-12.6,2.8-11.7,6s-0.1,12,4.4,11.9l22.9,1c2.6,0.6,19.2-4.9,21.1-7c1.9-2.1-0.9-12-0.9-12"/>
	<path fill="none" stroke="#141414" stroke-width="2" stroke-linecap="round" stroke-linejoin="round" stroke-miterlimit="10" d="
		M188.4,473.7l2.3,14.4h17.9c0,0,4.1-2.3,19.9-0.2c15.8,2.1,23.1-2,25.7-2c2.6,0,0-10.5,0-10.5s-8.2-3.8-21.9-6.4s-8.5-4.4-8.5-4.4"
		/>
	<path fill="none" stroke="#141414" stroke-width="2" stroke-linecap="round" stroke-linejoin="round" stroke-miterlimit="10" d="
		M94.3,132.2c9.4,1.1,20,7.5,20.6,23.6"/>
	<path fill="none" stroke="#141414" stroke-width="2" stroke-linecap="round" stroke-linejoin="round" stroke-miterlimit="10" d="
		M220.2,117.9c-3.5,5.8-4.9,11.7-4,18.8"/>
	<path fill="none" stroke="#141414" stroke-width="2" stroke-linecap="round" stroke-linejoin="round" stroke-miterlimit="10" d="
		M118.8,232.7c7.8,3.9,8.2,15.4,14.1,22.1c6,6.6,16.1,6.8,24.5,4.5c8.4-2.3,16.4-6.6,25.1-7.5c4.3-0.4,8.5,0,12.8-0.5
		c4.3-0.6,8.6-2.2,11-6"/>
	<path fill="none" stroke="#141414" stroke-width="1.5" stroke-linecap="round" stroke-linejoin="round" stroke-miterlimit="10" d="
		M114.1,264.6c7.1-5,12.7-14.6,11.3-23.4"/>
	<path fill="none" stroke="#141414" stroke-width="2" stroke-linecap="round" stroke-linejoin="round" stroke-miterlimit="10" d="
		M124.8,245.1c-0.9-2.3-2.6-4.3-4.6-5.4"/>
	<path fill="none" stroke="#141414" stroke-width="1.5" stroke-linecap="round" stroke-linejoin="round" stroke-miterlimit="10" d="
		M122,281.8c5.8,2.5,13,0.8,17-4.1"/>
	<path fill="none" stroke="#141414" stroke-width="1.5" stroke-linecap="round" stroke-linejoin="round" stroke-miterlimit="10" d="
		M195,262.4c4.3,3.8,10.4,5.6,16,4.4"/>
	<path fill="none" stroke="#141414" stroke-width="1.5" stroke-linecap="round" stroke-linejoin="round" stroke-miterlimit="10" d="
		M119.7,231.3c0.5-1.8,1-4.1,2.7-4.6c2-0.6,4.1-0.1,4.8,1.8"/>
	<path fill="none" stroke="#141414" stroke-width="1.5" stroke-linecap="round" stroke-linejoin="round" stroke-miterlimit="10" d="
		M122.3,225.8c-0.4-0.4-0.8-0.8-1.2-1.3c1.6-1.7,3.6-2.8,5.7-3.4"/>
	<path fill="none" stroke="#141414" stroke-width="2" stroke-linecap="round" stroke-linejoin="round" stroke-miterlimit="10" d="
		M117.2,151.2c0,0,3.7-10.8,4.8-14.5"/>
	<path fill="none" stroke="#141414" stroke-width="1.5" stroke-linecap="round" stroke-linejoin="round" stroke-miterlimit="10" d="
		M185.1,59.6c-1.8,1.8-2,9.9-1.6,13.2c-2.3,1.4-5.6,0.8-7.2-1.4"/>
	<path fill="none" stroke="#141414" stroke-width="1.5" stroke-linecap="round" stroke-linejoin="round" stroke-miterlimit="10" d="
		M169.8,80c1.4,0,4.9-0.2,6.4,0.2"/>
	<path fill="none" stroke="#141414" stroke-width="1.5" stroke-linecap="round" stroke-linejoin="round" stroke-miterlimit="10" d="
		M187.3,63.2c0.8,1.4,2.3,2.3,3.8,2.2"/>
	<path fill="none" stroke="#141414" stroke-width="1.5" stroke-linecap="round" stroke-linejoin="round" stroke-miterlimit="10" d="
		M168.5,59.6c1.5,2.6,5.4,3.4,7.8,1.6"/>
	<path fill="none" stroke="#141414" stroke-width="1.5" stroke-linecap="round" stroke-linejoin="round" stroke-miterlimit="10" d="
		M150.4,56.3c-0.2-0.6-1.2-0.6-1.5,0s-0.1,1.3,0.3,1.8c0.5,0.5,1,0.7,1.6,1"/>
	<path fill="none" stroke="#141414" stroke-width="1.5" stroke-linecap="round" stroke-linejoin="round" stroke-miterlimit="10" d="
		M112.5,488.4c15.7,4.9,33.5,2.3,47.4-6.7c-0.3-0.3-0.5-0.5-0.8-0.8"/>
	<path fill="none" stroke="#141414" stroke-width="1.5" stroke-linecap="round" stroke-linejoin="round" stroke-miterlimit="10" d="
		M125.4,475.8c4.3-0.6,8.7,0.5,12.3,2.9"/>
	<path fill="none" stroke="#141414" stroke-width="1.5" stroke-linecap="round" stroke-linejoin="round" stroke-miterlimit="10" d="
		M135.5,473.2c1.7,1.1,3.4,2.1,5,3.2"/>
	<path fill="none" stroke="#141414" stroke-width="1.5" stroke-linecap="round" stroke-linejoin="round" stroke-miterlimit="10" d="
		M141.4,473.1c0.6,0.9,1,1.8,1.6,2.6"/>
	<path fill="none" stroke="#141414" stroke-width="1.5" stroke-linecap="round" stroke-linejoin="round" stroke-miterlimit="10" d="
		M138.4,489.3c-0.8-2-1.6-4-1.7-6.2c-0.1-2.2,0.5-4.5,2.2-5.9c1.1-0.9,2.6-1.3,3.8-1.8c1.3-0.5,2.6-1.4,3.1-2.7"/>
	<path fill="none" stroke="#141414" stroke-width="1.5" stroke-linecap="round" stroke-linejoin="round" stroke-miterlimit="10" d="
		M149.7,473.4c-0.9,4.5-1.8,9-2.7,13.5c0.1-0.3,0.1-0.7,0.2-1"/>
	<path fill="none" stroke="#141414" stroke-width="1.5" stroke-linecap="round" stroke-linejoin="round" stroke-miterlimit="10" d="
		M152.6,474.8c-0.6,5.1-1,7.3-1.4,10.7"/>
	<path fill="none" stroke="#141414" stroke-width="1.5" stroke-linecap="round" stroke-linejoin="round" stroke-miterlimit="10" d="
		M191.3,482.4c11.4,0.3,23,0.6,34.4,0.9c9.4,0.3,18.7,0.5,28.1-0.1"/>
	<path fill="none" stroke="#141414" stroke-width="1.5" stroke-linecap="round" stroke-linejoin="round" stroke-miterlimit="10" d="
		M214.4,466.9c1.5,3.1,5.3,4.1,8.7,4.2s7-0.3,9.9,1.4c3.5,2,5.1,6.3,5.8,10.4c0-0.3,0-0.7-0.1-1"/>
	<path fill="none" stroke="#141414" stroke-width="1.5" stroke-linecap="round" stroke-linejoin="round" stroke-miterlimit="10" d="
		M229.1,467.6c-1.2,0.5-2.3,1.4-2.8,2.6"/>
	<path fill="none" stroke="#141414" stroke-width="1.5" stroke-linecap="round" stroke-linejoin="round" stroke-miterlimit="10" d="
		M232.9,468.9c-0.7,0.8-1.2,1.6-1.9,2.2"/>
	<path fill="none" stroke="#141414" stroke-width="1.5" stroke-linecap="round" stroke-linejoin="round" stroke-miterlimit="10" d="
		M237.9,470.3c-1.4,0.8-2.6,1.9-3.5,3.2"/>
	<path fill="none" stroke="#141414" stroke-width="1.5" stroke-linecap="round" stroke-linejoin="round" stroke-miterlimit="10" d="
		M199.5,471.1c4,2,6.6,6.6,6.2,11.2"/>
	<path fill="none" stroke="#141414" stroke-width="1.5" stroke-linecap="round" stroke-linejoin="round" stroke-miterlimit="10" d="
		M205.2,469.8c2.6,4.7,6.1,9.8,10.3,12.9"/>
	<path fill="none" stroke="#141414" stroke-width="1.5" stroke-linecap="round" stroke-linejoin="round" stroke-miterlimit="10" d="
		M183.5,447.2c3,5.8,6.2,6.7,9.4,7.6"/>
	<path fill="none" stroke="#141414" stroke-width="1.5" stroke-linecap="round" stroke-linejoin="round" stroke-miterlimit="10" d="
		M158.1,462.5c-1.3-2.1-3.7-3.1-5-5.2"/>
	<path fill="none" stroke="#141414" stroke-width="2" stroke-linecap="round" stroke-linejoin="round" stroke-miterlimit="10" d="
		M189.3,56.7c1.8-0.2,3.6,0.6,4.7,2"/>
	<path fill="none" stroke="#141414" stroke-width="2" stroke-linecap="round" stroke-linejoin="round" stroke-miterlimit="10" d="
		M166.8,50.8c4.2-0.8,7.8-0.9,8.5,0.4"/>
	<path fill="none" stroke="#141414" stroke-width="1.5" stroke-linecap="round" stroke-linejoin="round" stroke-miterlimit="10" d="
		M171.5,83.1c1.1-0.1,2.3-0.2,3.5-0.3"/>
	<path fill="none" stroke="#141414" stroke-width="1.5" stroke-linecap="round" stroke-linejoin="round" stroke-miterlimit="10" d="
		M139.2,85.3c3.4,4.4,8.2,7.6,13.5,9c5.3,1.5,11,1.2,16.1-0.9"/>
	<path fill="none" stroke="#141414" stroke-width="1.5" stroke-linecap="round" stroke-linejoin="round" stroke-miterlimit="10" d="
		M136.4,85.9c4,5.5,9.9,9.4,16.5,10.8c6.5,1.5,13.4,0.4,19.3-2.9"/>
</g>
</svg>
