<?xml version="1.0" encoding="utf-8"?>
<!-- Generator: Adobe Illustrator 18.0.0, SVG Export Plug-In . SVG Version: 6.00 Build 0)  -->
<!DOCTYPE svg PUBLIC "-//W3C//DTD SVG 1.1 Tiny//EN" "http://www.w3.org/Graphics/SVG/1.1/DTD/svg11-tiny.dtd">
<svg version="1.1" baseProfile="tiny" xmlns="http://www.w3.org/2000/svg" xmlns:xlink="http://www.w3.org/1999/xlink" x="0px"
	 y="0px" width="351px" height="500px" viewBox="0 0 351 500" xml:space="preserve">
<g id="Layer_2">
	<path fill="#725041" d="M199.4,86.4c0,0-3.4,0.1-3.8-0.3s-5.9-8.9-4.4-12.7c1.5-3.7,2.9-8.6-0.9-9.4c-3.8-0.8-4.9,2.6-4.7-6.2
		c0.2-8.8-6.1-20.9-6.7-21.3c-0.6-0.4-14.8-1-16.9,2.6c-2.1,3.5-5.9,13.2-5.9,13.2s1.5,1.2,0,3.1c-1.5,1.8-7.4,4.7-7.2,5.9
		c0.3,1.2,4.9,5.2,4.9,5.2s-3.9,4.2-1.5,6.5s-0.8,2.2,0.7,5.7c1.5,3.5-0.6,4.3,2.4,7.4c3,3.1,6,6.3,13.4,3.2c0,0,3.8,0.1,4,4.1
		l-0.8,2.1l-2.9,19.8c0,0,29.2-0.6,29.3-0.8c0.1-0.2,1.4-6.7,1.1-14.6c-0.3-7.9,1.2-13,1.2-13L199.4,86.4z"/>
	<path fill="#FFFFFF" d="M186.9,74.1c0,0-4.8,5.3,0.3,7.1s2.5-5.1,2.5-5.1L186.9,74.1z"/>
	<path fill="#D47796" d="M162.5,447.5c0,0-11.4,7.4-21.2,9.2c-9.8,1.8-6.1,10.3,1.7,10.3c7.7,0,30.5-1.9,30.5-1.9l5.5-2.2l6.5,2.1
		h3.4l-0.3-15.9L162.5,447.5z"/>
	<path fill="#FFFFFF" d="M165.4,54.5c-0.8-0.2-1.6,0.3-1.8,1c-0.3,0.9-0.4,1.8-0.4,2.7c0.1,0.8,0.6,1.5,1.5,1.5
		c0.8,0,1.6-0.7,1.5-1.5c-0.1-0.8,0-1.2,0.3-1.9C166.7,55.5,166.1,54.7,165.4,54.5z"/>
	<path fill="#725041" d="M162.5,375.3c-0.5,0.8,3.5,66.8,3.5,66.8l-7.1,8.1c0,0,3.7-1.2-0.6,7.8c0,0-5.1,4.3,17.2-5.4
		c0,0,10.3-5.5,13.2-3.3c0,0,0.8-3.5-1-7.7c-1.8-4.2-5.6-8.6-4.7-15.7s5.4-39,5.4-39l3.6,1.2c0,0,11.2,55.4,11.2,61
		s-1.8,14.1-5.2,18.8l-2.2,3.2c0,0,6-4.6,10.2,3.9c0,0,2,8.9,6.3-3.2c4.3-12.1,8.6-8.7,8.6-8.7s-2.9-11.4-2.2-18.4
		s3.9-23.3,2.7-32.7c-1.3-9.4-3.3-19-2.5-23.8s1.3-6.1,1.3-6.1L162.5,375.3z"/>
	<path fill="#B6B6B6" d="M190.9,75c0,0,4.8-3.7,8.8-7.3s5.1-9.8,5.1-9.8l0.9-2.3c0,0,8.6-1.2,9.9-5.5c1.2-4.3,4.7-12.2,0-18.2
		s-8.8-11.9-18.6-7.5c0,0-5.3-1.3-10.9-1.5c-5.6-0.2-23-3-30.1,19.9l-0.7,7.1c0,0,4.2-7.9,6-10.1c1.8-2.2,6.9-4.4,11.6-3.3
		c4.7,1.1,5.8,0,5.8,0s6.1,11.3,6.7,14.6c0.7,3.3-0.5,11.5-0.5,11.5s3.4-0.7,4.9,0.5c1.5,1.2,3.5,4.7,1.9,8.5
		C190.2,75.5,190.9,75,190.9,75z"/>
	<path fill="#725041" d="M128.6,205l-6,6.9c0,0-9-3.8-10-3.5c-1,0.3-10.8-2.5-13.3-0.9s2.6,3.8,3.8,4.3c1.2,0.5,7.5,3.7,7.4,4.9
		s-2.2,5.8-5.3,7.8c-3.1,2-14.2,7.1-15.4,11.5c-1.2,4.4,4.1,0.1,5.5-1c1.4-1.1,6.8-4.3,6.8-4.3s7.9-3.5-0.4,3.5s-10.5,9.1-10.5,9.1
		s-1.4,5.8,7.2-1.1s10.1-8.2,10.1-8.2l-10.3,11.6c0,0-1.5,5.7,6-1.2c0,0,0.1,7.4,4.8,2.6c4.7-4.8,18.6-19.4,18.6-19.4l4.4-8.1
		l2.5-2.7c0,0,2-4-1.9-7C128.8,206.5,128.6,205,128.6,205z"/>
	<path fill="#E2C6B0" d="M153,202.5c0,0-4.3,24-3.8,42.3s-1.7,125-1.7,125s-1.1,6.4,21,13.8c22.2,7.4,61.8-4.2,61.8-4.2
		s7.4-59.1,4.8-85.1c0,0-3.6-6.3,5.9-41.5c0,0,5.5-25.4,2.5-43.2L153,202.5z"/>
	<path fill="#725041" d="M227.6,202.5l-2.8,3.6l-19,0.1l-8.7,7.9c0,0,0.2,6.1,2.2,3.7c0,0-7.9,7.7-1.3,7.9c0,0-1.6,6.5,3.8,2.9
		c5.4-3.6,6.9-7.9,6.9-7.9l5.2,1.7l-6.7,7.3c0,0,1.7,4.2,7.2-1.9c0,0,2.4-2.8,6.6-2.2c4.2,0.6,12.3-6.2,12.3-6.2l5.6-7.4
		c0,0-1.8-5.8-3.5-6.5C233.6,204.6,227.6,202.5,227.6,202.5z"/>
	<path fill="#D47796" d="M172,92.1c0.7,1.3-11.8,6.8-14.4,9.6c-2.6,2.8-9.7,9.8-7.8,21l2.1,12.6c0,0,0.5,19.6,3.7,25.8
		c3.2,6.2-0.6,12.2-0.6,12.2L128.6,205c0,0,6.6,6.4,6.2,11.6c0,0.4-0.1,0.8-0.2,1.2c-1.6,5.5,16.2-10.8,16.2-10.8s11.6,3.8,18.4,0.2
		c6.8-3.7,3.2-2.2,3.2-2.2s12.7,8.3,23.1,4.8c10.4-3.5,29.4-3.6,29.4-3.6l2.8-3.6l5.8-14.9l-3-13.1c0,0,2.3-10.7,2.5-15.2
		s0.5-10,0.5-10l10.7,12.5L229,203c0,0,9.8,3.4,9.9,8.8c0,0,27.6-30.8,26.7-49.3c-0.1-1.1-3.5-12.3-13.5-32
		c-10-19.6-12.1-26.1-18.7-31.1c-6.6-5.1-24.1-12.7-27.5-12.5c-3.4,0.2-5.2,0-5.2,0s0,25.8-2.3,27.6c-2.3,1.8-28.3,1.1-28.3,1.1
		s-2.7-1.9,0.3-13.9S172,92.1,172,92.1z"/>
	<path fill="#FFFFFF" d="M185.3,123.5c-0.4-0.6-1.4-1-2.1-0.5c-1.1,0.8-1.6,2.4-0.8,3.6c0.5,0.7,1.3,1,2.1,0.5
		c0.6-0.4,0.9-1.2,0.6-1.9C185.5,124.7,185.6,124.1,185.3,123.5z"/>
	<path fill="#FFFFFF" d="M181.5,139c-0.7-0.4-1.7-0.2-2.1,0.5c-0.1,0.2-0.2,0.3-0.3,0.5c-0.4,0.7-0.2,1.6,0.5,2.1
		c0.7,0.4,1.7,0.2,2.1-0.5c0.1-0.2,0.2-0.3,0.3-0.5C182.4,140.3,182.2,139.4,181.5,139z"/>
	<path fill="#FFFFFF" d="M177.5,163.3v0.5c0,1.9,3,1.9,3,0v-0.5C180.5,161.3,177.5,161.3,177.5,163.3z"/>
	<path fill="#FFFFFF" d="M180,179.7c-0.2-0.8-1.1-1.3-1.8-1l-0.8,0.2c-0.8,0.2-1.3,1-1,1.8c0,0.1,0.1,0.2,0.1,0.3
		c-0.2,0.3-0.3,0.8-0.2,1.2l0.3,1c0.2,0.8,1,1.3,1.8,1c0.8-0.2,1.3-1.1,1-1.8c-0.1-0.3-0.2-0.6-0.3-0.9
		C179.8,181.1,180.2,180.4,180,179.7z"/>
	<path fill="#FFFFFF" d="M176.8,194.3c-1.9,0-1.9,3,0,3S178.7,194.3,176.8,194.3z"/>
	<path fill="#D47796" d="M198.5,469.8c0,0-12.9,10.2-9.9,15.7c3.1,5.5,12.4,2.5,14.9,1.5c2.6-1,8.2-3.8,10.7-8.6
		c2.5-4.8,5.3-4.1,5.3-4.1l3-4.4l-1.5-6.9c0,0-7.4,0-10.3,12.9c0,0-1.2,4.2-3.1,2.2c-1.9-2-2.5-5.2-2.5-5.2s-1.7-4.2-4.8-3"/>
</g>
<g id="Layer_1">
	<path fill="none" stroke="#141414" stroke-width="2" stroke-linecap="round" stroke-linejoin="round" stroke-miterlimit="10" d="
		M183.9,74.1c-0.6,4-4,9.4-6.4,11.2s-12.8,6.7-18.8,4.1c-3-1.3-5.8-7-5.5-8.5c0.3-1.5,0.8-0.9-0.7-2.7c-1.4-1.7,1.4-4.1,1.4-4.1
		s-2.9-0.8-2.9-4c0-1.4,2.6-3.7,2.6-3.7s-2-0.9-4.3-3.5c-2.3-2.6,2.6-3.5,5.4-6c2.8-2.6,0.4-3.6,1.5-6.2c2-5,3.3-8.9,3.3-8.9"/>
	<path fill="none" stroke="#141414" stroke-width="2" stroke-linecap="round" stroke-linejoin="round" stroke-miterlimit="10" d="
		M183.4,71.5c0.7,4.7,9.5,2.6,8.7-3.1c-0.8-5.6-1.9-5.6-6-5"/>
	<path fill="none" stroke="#141414" stroke-width="2" stroke-linecap="round" stroke-linejoin="round" stroke-miterlimit="10" d="
		M178.8,36.5c0.5,3.7,11.5,16.5,6,24.9c-0.5,0.8,0.8,2.1,1.7,1.8"/>
	<path fill="none" stroke="#141414" stroke-width="2" stroke-linecap="round" stroke-linejoin="round" stroke-miterlimit="10" d="
		M159.6,41.8c1.4-2.5,5.3-4.8,8.1-5.3c4.8-0.9,6.5,1.6,11.1,0"/>
	<path fill="none" stroke="#141414" stroke-width="2" stroke-linecap="round" stroke-linejoin="round" stroke-miterlimit="10" d="
		M149.8,54.8"/>
	<path fill="none" stroke="#141414" stroke-width="2" stroke-linecap="round" stroke-linejoin="round" stroke-miterlimit="10" d="
		M167.7,26.6c-4.3,2.5-7.2,5.4-9.3,9.9s-2.7,15-3.4,19.9"/>
	<path fill="none" stroke="#141414" stroke-width="2" stroke-linecap="round" stroke-linejoin="round" stroke-miterlimit="10" d="
		M167.7,26.6c9.2-5.1,14.3-4.1,22.6-3.4c10.6,0.9,15.3,13.2,16,22.4c0.6,7.2-0.9,17.4-7.1,22c-4.4,3.4-10.2,5.2-7,12"/>
	<path fill="none" stroke="#141414" stroke-width="2" stroke-linecap="round" stroke-linejoin="round" stroke-miterlimit="10" d="
		M195.9,25.2c2-1.7,4.8-2.3,7.4-2.1c4.3,0.3,8.3,2.7,11,6s4,7.7,3.9,12c-0.1,3.2-0.8,6.3-2.6,9c-1.7,2.6-5.5,4.7-8.6,5.2"/>
	<path fill="none" stroke="#141414" stroke-width="2" stroke-linecap="round" stroke-linejoin="round" stroke-miterlimit="10" d="
		M151.6,71.7c1.5,3.7,4.9,2.4,6,3.8"/>
	<path fill="none" stroke="#141414" stroke-width="1.5" stroke-linecap="round" stroke-linejoin="round" stroke-miterlimit="10" d="
		M166.3,58c0.4-0.8,0.6-1.6,0.4-2.5s-0.7-1.6-1.5-1.9c-0.9,0.7-1.5,1.7-1.9,2.8c-0.2,0.6-0.3,1.3-0.1,1.9c0.2,0.6,0.8,1.1,1.4,1.1
		C165.4,59.4,166,58.7,166.3,58z"/>
	<path fill="none" stroke="#141414" stroke-width="1.5" stroke-linecap="round" stroke-linejoin="round" stroke-miterlimit="10" d="
		M153.1,66.1c0.9,0.2,1.7,0.4,2.6,0.6c0.5,0.1,1,0.2,1.4,0c0.7-0.5,0.5-1.5,0.1-2.3"/>
	<path fill="none" stroke="#141414" stroke-width="1.5" stroke-linecap="round" stroke-linejoin="round" stroke-miterlimit="10" d="
		M166.4,49.8c1.6,1.3,3.2,2.7,4.6,4.2"/>
	<path fill="none" stroke="#141414" stroke-width="2" stroke-linecap="round" stroke-linejoin="round" stroke-miterlimit="10" d="
		M157,75.5c0,0-3.4-0.7-4,0.3"/>
	<path fill="none" stroke="#141414" stroke-linecap="round" stroke-linejoin="round" stroke-miterlimit="10" d="M159,66.8
		c-0.2,0.2-0.3-0.4,0-0.4c0.3,0,0.4,0.3,0.5,0.5c1.2,4.3,1.4,8.9,0.7,13.4"/>
	<path fill="none" stroke="#141414" stroke-linecap="round" stroke-linejoin="round" stroke-miterlimit="10" d="M172.3,57.9
		c0.9-0.3,1.8-0.6,2.7-0.9"/>
	<path fill="none" stroke="#141414" stroke-linecap="round" stroke-linejoin="round" stroke-miterlimit="10" d="M172.9,59.1
		c0.6,0.3,1.4,0.3,2.1,0.2"/>
	<path fill="none" stroke="#141414" stroke-width="1.5" stroke-linecap="round" stroke-linejoin="round" stroke-miterlimit="10" d="
		M185.5,68c0.8-0.7,2-0.9,3-0.5"/>
	<path fill="none" stroke="#141414" stroke-width="1.5" stroke-linecap="round" stroke-linejoin="round" stroke-miterlimit="10" d="
		M187,67.8c-0.2,1.1,0,2.3,0.5,3.3"/>
	<path fill="none" stroke="#141414" stroke-width="1.5" stroke-linecap="round" stroke-linejoin="round" stroke-miterlimit="10" d="
		M187.5,81.7c1.2,0.1,2.4-1,2.6-2.2c0.3-1.2-0.1-2.5-0.6-3.6c-0.1-0.2-0.3-0.5-0.5-0.7c-1-0.7-2.4,0.9-3.4,0.3c-0.8,1.2-1,2.7-0.6,4
		C185.4,80.6,186.4,81.6,187.5,81.7z"/>
	<path fill="none" stroke="#141414" stroke-linecap="round" stroke-linejoin="round" stroke-miterlimit="10" d="M168.9,66.6
		c0.6-1.5,1.3-3,1.9-4.6c0.1-0.3,0.2-0.6,0.1-0.8c-0.1-0.4-0.5-0.6-0.8-0.7c-3.7-1.5-7.7-2.5-11.7-3c0.2,2.5,0.3,5.1,0.5,7.6
		c0,0.3,0.1,0.7,0.3,0.9c0.2,0.1,0.4,0.2,0.6,0.3c2.3,0.6,4.7,1.1,7,1.4c0.5,0.1,1,0.1,1.5-0.2C168.5,67.4,168.7,67,168.9,66.6z"/>
	<path fill="none" stroke="#141414" stroke-linecap="round" stroke-linejoin="round" stroke-miterlimit="10" d="M158.2,57.8
		c-0.2-0.7-0.6-1.2-1.2-1.5c-0.6-0.3-1.4-0.2-2,0.1"/>
	<path fill="none" stroke="#141414" stroke-linecap="round" stroke-linejoin="round" stroke-miterlimit="10" d="M171.1,61.7
		c2.4-0.2,4.8,0.2,7.2,0.4c2.8,0.2,5.6,0.3,8.4,0.1"/>
	<path fill="none" stroke="#141414" stroke-width="2" stroke-linecap="round" stroke-linejoin="round" stroke-miterlimit="10" d="
		M170,89.2c0,0,1,1,2.4,3.5c2.6,4.7,1.4,6.3,1.2,9"/>
	<path fill="none" stroke="#141414" stroke-width="2" stroke-linecap="round" stroke-linejoin="round" stroke-miterlimit="10" d="
		M190.3,73.6c0,0,3.9,15.4,7.8,13.1"/>
	<path fill="none" stroke="#141414" stroke-linecap="round" stroke-linejoin="round" stroke-miterlimit="10" d="M179.9,86.4
		c0.7,2.8,3.2,5.7,3.8,8.4"/>
	<path fill="none" stroke="#141414" stroke-width="2" stroke-linecap="round" stroke-linejoin="round" stroke-miterlimit="10" d="
		M172.4,92.7c0,0-6.3,4.4-8,5.6c-1.7,1.2-9.3,2.8-12.6,11.5c-1.9,5-1.9,12.7,0.4,27.8"/>
	<path fill="none" stroke="#141414" stroke-width="2" stroke-linecap="round" stroke-linejoin="round" stroke-miterlimit="10" d="
		M172.4,92.7c-1.2,3.5-4.6,20.5-3.4,22.5c0.4,0.6,28.2,0.3,29.1-0.4c1.1-0.9,2-5.1,1.4-13.7c-0.3-3.7-0.3-12,1.6-14.2"/>
	<path fill="none" stroke="#141414" stroke-width="2" stroke-linecap="round" stroke-linejoin="round" stroke-miterlimit="10" d="
		M195.9,86.4c0,0,14,0.9,26.3,5.8c10.1,4,17.5,13.2,21.8,22.9c5,11.4,21.6,37.3,21.6,47.5c0,5.6-17.2,38.4-30.4,54"/>
	<path fill="none" stroke="#141414" stroke-width="2" stroke-linecap="round" stroke-linejoin="round" stroke-miterlimit="10" d="
		M224.8,206.1c-1.9-0.5-18-0.7-19,0.1c-3.6,2.8-4.2,3.3-8.7,7.9c0,0-2.5,4.8,2.2,3.7c-1.3,1.1-4.1,5.4-3.6,6.6
		c-0.1,0.1,0.8,1.5,2.3,1.3l-0.3,2c0.2,2.2,0.5,1.6,1.6,1.9c2,0.6,6.7-5.6,8.3-7.5c1.3-1.5,6.9-1,6.2,0.2c0,0-3.3,3.1-4.3,4.1
		c-2.6,2.7-3.1,4.3-2.3,4.8c1.7,1,3.6-0.2,7.1-3.5c2-2,4.4-2.5,4.4-2.5c2.1,0.9,7-0.6,9.3-2.9c1.8-1.9,3.6,0.4,7-5.7"/>
	<path fill="none" stroke="#141414" stroke-width="2" stroke-linecap="round" stroke-linejoin="round" stroke-miterlimit="10" d="
		M199.4,217.8c3-3.5,0.9-1.2,4.5-5.2c0.6-0.7,1.3-1.2,2.2-1.4c1.3-0.4,3.3-0.3,4.6-0.1c1.4,0.2,2.2,0.5,2.2,0.5"/>
	<path fill="none" stroke="#141414" stroke-width="2" stroke-linecap="round" stroke-linejoin="round" stroke-miterlimit="10" d="
		M198,226.1c0.6-1.3,5.2-6.4,8.4-9.9c5-1.9,6.6-0.8,8.4,0"/>
	<path fill="none" stroke="#141414" stroke-width="2" stroke-linecap="round" stroke-linejoin="round" stroke-miterlimit="10" d="
		M244,161.7c2.2-0.6-16.1,44.1-19.2,44.5"/>
	<path fill="none" stroke="#141414" stroke-width="2" stroke-linecap="round" stroke-linejoin="round" stroke-miterlimit="10" d="
		M220.4,120.9c-0.5,4.9,10.9,32.4,25.9,40.7"/>
	<path fill="none" stroke="#141414" stroke-width="2" stroke-linecap="round" stroke-linejoin="round" stroke-miterlimit="10" d="
		M230.9,145.1c2.3,5.9,3.6,12.9-1,27.1c-0.4,1.3,3.1,9,3.4,10.5c1.6,7.4,1.2,5.9,1.2,5.9"/>
	<path fill="none" stroke="#141414" stroke-width="2" stroke-linecap="round" stroke-linejoin="round" stroke-miterlimit="10" d="
		M238.9,211.8c0-3-8-12.2-12.4-7.6"/>
	<path fill="none" stroke="#141414" stroke-width="2" stroke-linecap="round" stroke-linejoin="round" stroke-miterlimit="10" d="
		M149.9,251.3c-3-32,5.7-61.8,5.1-63.5c-1.4-4.3,1.8-24.3,1.8-24.3s-3.7-6.2-4.4-17.8c-0.6-10,0.3-18,1.7-21.9"/>
	
		<polyline fill="none" stroke="#141414" stroke-width="2" stroke-linecap="round" stroke-linejoin="round" stroke-miterlimit="10" points="
		155.6,172.2 150.5,181.5 139.5,193.1 	"/>
	<path fill="none" stroke="#141414" stroke-width="2" stroke-linecap="round" stroke-linejoin="round" stroke-miterlimit="10" d="
		M101.6,206.6c2.6-0.3,7.7,1.7,8.2,1.8c0.5,0.1,6.3,0.2,8.7,2.7l4,0.7l17-18.7"/>
	<path fill="none" stroke="#141414" stroke-width="2" stroke-linecap="round" stroke-linejoin="round" stroke-miterlimit="10" d="
		M150.8,207c-4,4.5-16.5,10.7-18.8,12.3c-0.3,0.2-0.7,4.3-2,5.5c-1.3,1.2-4.1,4.9-5.8,6.5c-2,2.1-2.8,3.4-4,4.4
		c-1.3,1-2.7,2.2-3.5,3.1c-0.8,0.9-7.8,9.6-10.1,9.3c-3.6-0.4-2.1-2.7-1.4-3.7l6-6.1l1.6-2c0,0-12.2,11.6-13.5,11.8
		c-2.4,0.5-2.2-1.5-1-2.9c1.2-1.3,10.1-11.3,10.1-11.3c-1.1,0.9-5.6,4.4-7.1,5.6c-1.5,1.2-5.4,4.7-7,5.6c-1.6,0.9-5-1-2.2-3.1
		c4.1-3.1,10.4-8.8,11-9.3c1.5-1.1,2.7-1.6,2.2-2.7s-1.5-0.5-3.3,0.4s-4.4,2.6-5.4,3.2c-1,0.7-6.2,5.5-6.8,2.1
		c-0.6-3.4,13.2-9.8,14.3-10.7c1.1-0.9,6.3-4.8,6.3-6.4s0.2-3,0.3-3.5c0.1-0.5-4.8-2.3-6.4-3.2c-1.6-0.8-4.3-0.8-5.5-1.9
		c-1.7-1.6,0.4-3.3,2.9-3.6"/>
	<path fill="none" stroke="#141414" stroke-width="2" stroke-linecap="round" stroke-linejoin="round" stroke-miterlimit="10" d="
		M149.9,251.3c0.8,11-3.9,75.5-2.3,119.7c0,0,12.7,13.3,32.9,15s49.9-6.7,49.9-6.7c5.3-20.5,5-101.4,5-101.7
		c8.5-34.7,11.5-53.7,7.3-72.7"/>
	<path fill="none" stroke="#141414" stroke-width="2" stroke-linecap="round" stroke-linejoin="round" stroke-miterlimit="10" d="
		M162.6,381.5c0.4,5.5,0.2,10.9,1.7,19.8c0,0,2.6,35.9,1.7,40.7s-6.2,8.4-16.6,12.5c-6.5,2.6-13.3,1.4-13.3,7.6
		c0,6.2,18.9,4.8,22.2,4.6c13-0.8,17.2-2,17.2-2l5.2-1.9l2.3,2.2h5.9l-0.4-20.6c-1.2-6-6.9-11.9-5.3-21.7
		c3.1-19.4,5.2-35.9,5.2-35.9"/>
	<path fill="none" stroke="#141414" stroke-width="2" stroke-linecap="round" stroke-linejoin="round" stroke-miterlimit="10" d="
		M220.4,381.8c-4.9,15.1,5,24.7,0,50.9c-4.5,23.5,2,23.9,2.2,39.3l-4.9,3.7l-0.9-2.1c0,0-2.5,6-5.7,9.1c-4.3,4.1-7.8,4.7-13.5,5.5
		c-8.6,1.2-14.9-0.8-4.3-13.8c14.2-17.5,10.8-24.1,6-45.5c-5.9-26.6-4.5-29.2-7.6-42.6"/>
	<path fill="none" stroke="#141414" stroke-width="1.5" stroke-linecap="round" stroke-linejoin="round" stroke-miterlimit="10" d="
		M144.3,456c5.2-1.5,14.1-5.6,14.1-5.6c6.4,0.7-3.6,10.6,0.6,8.9c6-2.3,8.9-3.2,14.7-6c5.8-2.8,5.1-2.5,5.8-2.8
		c3.8-1.6,7.4-1.9,9.2-1.4"/>
	<path fill="none" stroke="#141414" stroke-width="1.5" stroke-linecap="round" stroke-linejoin="round" stroke-miterlimit="10" d="
		M195.9,471c8.1-4.3,9.3,2,11.1,6c2.4,5.2,5.1-5.1,7.3-10.4c1-2.3,7-7.1,7.8,0"/>
	<path fill="none" stroke="#141414" stroke-width="2" stroke-linecap="round" stroke-linejoin="round" stroke-miterlimit="10" d="
		M172.4,205c-2.5-9.1,4.7-89,8.3-89.4"/>
	<path fill="none" stroke="#141414" stroke-width="2" stroke-linecap="round" stroke-linejoin="round" stroke-miterlimit="10" d="
		M153,200.2c3.2,4.2,10.3,2.4,18.8,3.1c20.2,1.6,50-1.7,58.5-6.3"/>
	<path fill="none" stroke="#141414" stroke-width="2" stroke-linecap="round" stroke-linejoin="round" stroke-miterlimit="10" d="
		M172.4,205c9.6,4.1,16.6,7.7,33.5,1.2"/>
	<path fill="none" stroke="#141414" stroke-width="2" stroke-linecap="round" stroke-linejoin="round" stroke-miterlimit="10" d="
		M150.8,207c4.8,2,15.4,3.7,21.6-2"/>
	<path fill="none" stroke="#141414" stroke-width="2" stroke-linecap="round" stroke-linejoin="round" stroke-miterlimit="10" d="
		M128.6,205c-0.5,0.4,0.2,1.2,0.7,1.5c3.5,2,5.6,6.1,5.2,10.1"/>
	<path fill="none" stroke="#141414" stroke-width="2" stroke-linecap="round" stroke-linejoin="round" stroke-miterlimit="10" d="
		M133.2,200.2c4.2,3.5,6.7,9,6.6,14.5"/>
	<path fill="none" stroke="#141414" stroke-width="2" stroke-linecap="round" stroke-linejoin="round" stroke-miterlimit="10" d="
		M230.3,196.9c4.9-0.3,12.3,4.8,12.3,9.7"/>
	<path fill="none" stroke="#141414" stroke-width="1.5" stroke-linecap="round" stroke-linejoin="round" stroke-miterlimit="10" d="
		M181.9,125.7c0.1,0.9,0.9,1.9,1.8,1.7c0.5-0.1,0.8-0.6,1.1-1c0.5-1,0.8-2.1,0.8-3.2c-0.7-0.7-1.9-0.6-2.6-0.1
		C182.2,123.7,181.8,124.7,181.9,125.7z"/>
	<path fill="none" stroke="#141414" stroke-width="1.5" stroke-linecap="round" stroke-linejoin="round" stroke-miterlimit="10" d="
		M181.4,138.3c-0.3-0.2-0.7-0.3-1.1-0.2c-0.9,0.2-1.4,1.3-1.5,2.3c-0.1,0.9,0.1,1.9,0.9,2.3c0.8,0.4,1.8,0,2.2-0.8
		c0.4-0.8,0.4-1.7,0.1-2.5C181.9,139,181.7,138.6,181.4,138.3z"/>
	<path fill="none" stroke="#141414" stroke-width="1.5" stroke-linecap="round" stroke-linejoin="round" stroke-miterlimit="10" d="
		M180.4,163.6c0-0.8-0.2-1.7-0.8-2.2c-0.6-0.5-1.8-0.4-2,0.4c-0.3,0.9-0.5,1.9-0.2,2.9s1.5,1.6,2.3,1
		C180.4,165.2,180.5,164.3,180.4,163.6z"/>
	<path fill="none" stroke="#141414" stroke-width="1.5" stroke-linecap="round" stroke-linejoin="round" stroke-miterlimit="10" d="
		M179.7,180.5c0-0.8-0.5-1.9-1.3-1.8c-0.6,0-1.2,0.7-1.8,0.5c-0.3,0.9-0.7,1.9-0.5,2.9s0.9,2,1.9,2
		C179.1,183.2,179.7,181.8,179.7,180.5z"/>
	<path fill="none" stroke="#141414" stroke-width="1.5" stroke-linecap="round" stroke-linejoin="round" stroke-miterlimit="10" d="
		M177.5,194.2c-0.4-0.3-0.9-0.5-1.3-0.2c-0.2,0.2-0.4,0.5-0.4,0.8c-0.3,1.3-0.1,2.6,0.6,3.8C178.2,198.1,178.9,195.3,177.5,194.2z"
		/>
	<path fill="none" stroke="#141414" stroke-width="1.5" stroke-linecap="round" stroke-linejoin="round" stroke-miterlimit="10" d="
		M234,199c-0.8,1.2-1.3,2.6-1.3,4"/>
	<path fill="none" stroke="#141414" stroke-width="1.5" stroke-linecap="round" stroke-linejoin="round" stroke-miterlimit="10" d="
		M237.7,201.3c-1.2,1-2.1,2.4-2.3,4"/>
	<path fill="none" stroke="#141414" stroke-width="1.5" stroke-linecap="round" stroke-linejoin="round" stroke-miterlimit="10" d="
		M240.4,203.7c-1.3,1.5-2.2,3.4-2.7,5.3"/>
	<path fill="none" stroke="#141414" stroke-width="1.5" stroke-linecap="round" stroke-linejoin="round" stroke-miterlimit="10" d="
		M131,206.6c1.2-0.9,2.5-1.7,3.7-2.6"/>
	<path fill="none" stroke="#141414" stroke-width="1.5" stroke-linecap="round" stroke-linejoin="round" stroke-miterlimit="10" d="
		M133.4,210.8c1.5-0.7,1.9-1.5,3.3-2.5"/>
	<path fill="none" stroke="#141414" stroke-width="1.5" stroke-linecap="round" stroke-linejoin="round" stroke-miterlimit="10" d="
		M134.7,214c1.6-0.5,2.1-1.3,3.3-2.3"/>
	<path fill="none" stroke="#141414" stroke-width="1.5" stroke-linecap="round" stroke-linejoin="round" stroke-miterlimit="10" d="
		M158.9,273.3c-0.3,43.4-2.6,50.6,0,97.7"/>
	<path fill="none" stroke="#141414" stroke-width="1.5" stroke-linecap="round" stroke-linejoin="round" stroke-miterlimit="10" d="
		M213.2,317.3c-1.5,6.6-0.7,13.4,0.4,20.1c1.9,12.1,4.7,24,7.4,35.9"/>
</g>
</svg>
