<?xml version="1.0" encoding="utf-8"?>
<!-- Generator: Adobe Illustrator 28.5.0, SVG Export Plug-In . SVG Version: 9.03 Build 54727)  -->
<svg isCommex="true" version="1.0" xmlns="http://www.w3.org/2000/svg" xmlns:xlink="http://www.w3.org/1999/xlink" x="0px" y="0px" width="1090px"
	 height="976px" viewBox="0 0 1090 976" enable-background="new 0 0 1090 976" xml:space="preserve">
<g id="Layer_3">
	<path fill="#C4DEFF" d="M878.8,788.1c-5.1-7.8-7.5-18.2-8.5-23.7l-0.2-0.9l-0.9,0.1c-2.8,0.3-6,0.5-9.8,0.5
		c-10.5,0-131.5-14.7-248.4-29c-16.9-2.1-28.1-3.4-30.1-3.7l-0.1,0l-0.1,0c-0.8,0.1-1.6,0.4-2.1,0.9c-0.6,0.7-1.8,2.8-1.1,8.4
		c1.1,8.9,16.2,13.8,21.9,15c105.4,14.5,237.5,31.3,278.4,34l2,0.1L878.8,788.1z"/>
	<g id="vs-secondary">
		<path fill="#E6074D" d="M611.4,487.7c4.4-5.2,7.8-9.1,11-12.7l4.2-4.6l-5.5,3.1c-9,5.1-18.2,9.3-24.2,12l-0.3,0.1
			c-1.3,0.6-3.1,1.4-4.2,1.9l-0.4,0.2l-0.1,0.5c-0.6,2.6-1.2,9-1.6,17l-0.1,2.1l1.7-1.3C597.3,501.9,603.9,496.5,611.4,487.7z"/>
		<path fill="#E6074D" d="M1012.2,337.4c-1.5-2.1-7.7-3.6-12.5-4.3l-1.4-0.2l0.7,4c0.1,0.5,0.1,1.1,0,1.6
			c-0.1,0.6-24.7,113.4-49.5,225.7c-50.2,227.3-52.2,230.1-53.4,231.8c-0.9,1.3-1.9,2.2-6.7,2.4c-2.5,0.1-5.9,0-10.9-0.3
			c-7.9-0.5-19.3-1.5-34.1-3c-24.6-2.6-58.6-6.6-100.9-11.9c-68.2-8.6-137.5-18.1-145.1-19.1l-0.4-0.1c-2.7-0.5-26.7-5.6-28.8-22.2
			c-0.8-6.6,0.2-11.7,3.2-15c2.2-2.5,5.2-3.8,8.7-3.8c0.5,0,1.6,0.1,31,3.8l2.6,0.3c69.9,8.6,233.5,28.6,244.8,28.6
			c14,0,16.6-2.3,18.2-4.9l0.1-0.2c5.6-17.6,92.8-419,98-445.5c4-20.2-2.2-22.9-7.1-25.1c-1-0.4-2.1-0.9-3.1-1.5l-0.1-0.1l-0.2,0
			c-10.2-2.2-114.4-7.5-183.4-10.9l-3.6-0.2c-43.3-2.2-80.6-4.1-91.8-5c-34.7-2.8-51.5,7.4-52.6,12.1c-2.1,9-20.7,98.8-24.3,118.2
			l-0.3,1.6l1.6-0.5c9.4-3,18.7-2,27.6,3c9.8,5.5,15.9,12.6,18,21c2.5,9.8-0.4,20.9-8.7,34c-0.4,0.6-0.7,1.1-1.2,1.7l-2,2.8l3.2-1.2
			c6.1-2.4,12.3-2.8,19.6-1.5c11.3,2.1,22.1,10.8,28,22.5c5,10,5.6,20.5,1.6,28.9c-5.3,11-17.6,22.1-37.6,33.7l-0.4,0.2l-0.1,0.4
			c-0.2,1-0.8,1.9-1.7,2.5l-0.1,0.1c-1.7,1.6-4.6,8.4-6.6,14.3l-0.2,0.7l0.6,0.4c14.6,10.1,32.7,26.1,36.5,45.1
			c4.4,22.2-12.5,52.1-28.4,70.9c-7.7,9.1-13.4,13.8-16.9,13.8h-0.3c-6.9-0.2-24.6-9.1-29.8-11.8c-0.2-0.1-0.4-0.2-0.6-0.4l-0.6-0.4
			l-0.6,0.4c-21.2,15-37.7,25.7-48.9,31.7l-0.8,0.4l0.3,0.8c2.1,5.5,3.5,10.8,4.4,15.9c0.1,0.5,0.1,1,0,1.4
			c-0.7,4.1-3.5,10-8.4,17.5l-0.3,0.5l0.2,0.5c0.1,0.2,0.2,0.5,0.3,0.8c2.2,11.1,11.7,20.1,19.2,25.8c4.3,3.3,8.1,5.4,9.4,6.2
			l0.2,0.1l0.2,0c11.9,1.5,290.7,36.6,307.2,37.6c0.5,0,0.9,0,1.3,0c11.1,0,12.8-8.9,13-10.7c0-0.2,0-0.3,0.1-0.5
			c41.2-176,103.1-445,104.8-464.6l0-0.4L1012.2,337.4z"/>
	</g>
	<g id="vs-primary">
		<path fill="#6495FB" d="M348.5,896.2L348.5,896.2c-2.2-7.9-7.5-41.1-10.4-60.2l-0.1-0.6l-0.6-0.2c-0.2-0.1-0.5-0.2-0.8-0.4
			l-0.3-0.2c-17.3-10.6-37.3-23-41.5-26.2c-3.1-2.3-21.7-8.5-37.7-13.2l-1.1-0.3l-0.2,1.1c-4.3,23-17.9,99.2-11.9,112.3
			c7.9,17.4,41.9,49.7,60.2,49.7c1.8,0,3.5-0.3,4.9-0.9c8.2-3.4,18.6-14.8,27.7-30.5C345.7,911.6,349.3,899.3,348.5,896.2z"/>
		<path fill="#6495FB" d="M307.3,667l-0.9,0.2c-3.2,0.6-6.9,0.9-10.9,0.9c-6.9,0-13.4-0.9-17.7-2.6l-0.9-0.3l-3.2,7.6l0.6,0.5
			c14.8,12.7,30.1,25.3,44.3,36.5l2.6,2.1l-1.1-3.2c-4.6-13.9-9.9-31.5-12.5-40.8L307.3,667z"/>
		<path fill="#6495FB" d="M279.1,656.7l0.1,0.2l0.2,0.1c2.3,1.7,10.2,2.6,17.2,2.6c3.8,0,7.3-0.3,9.7-0.8c0.4-0.1,0.7-0.2,1-0.3
			l0.4-0.1l0.2-0.3c11.4-20.7,19.1-44,20.2-48.7l0.1-0.5l-0.3-0.4c-10.1-12-20.7-23.9-28.5-25.7c-1-0.2-1.9-0.8-2.5-1.7l-0.4-0.6
			l-0.7,0.2c-0.2,0.1-0.4,0.1-0.6,0.1l-0.5,0.1l-0.2,0.4c-0.3,0.5-0.7,0.9-1.2,1.3c-6.1,4.3-16,11.8-25.7,20.1l-0.4,0.4l0.1,0.6
			C270.9,626.2,276.3,652.2,279.1,656.7z"/>
	</g>
	<g id="vs-hair">
		<path fill="#FFF996" d="M433.2,152.7c-4.9-7.4-9.9-9.9-10.2-10c-1.5-0.7-2.4-2.1-2.4-3.7c-0.1-1.6,0.8-3.1,2.3-3.8l0,0
			c0.8-0.4,6.5-3.6,11.9-8.5c4.5-4.2,9.7-10.4,8.7-16.8l-0.1-0.2c-5.5-12.3-41.2-13.9-62.5-12c-1.7,0.2-3.3-0.7-4.1-2.3
			c-0.8-1.5-0.6-3.4,0.6-4.7c4.4-5.1,9.9-12.4,11.4-15.6l0.4-0.9l-0.8-0.4c-3.3-1.7-13.4-3.3-29.1-4.5
			c-27.9-2.1-75.6,29.7-76.1,30.1c-1.6,1.1-3.7,0.9-5.1-0.3c-1.4-1.3-1.9-3.3-1-5c5.6-11.3,12.4-25.7,13.9-30l0.2-0.6l-0.4-0.4
			c-0.4-0.4-1.3-1.2-3.1-1.6c-3.8-0.9-15.1-0.9-37,17.8c-33.3,28.4-48.1,77.3-48.8,79.3c-0.6,2.1-2.6,3.3-4.7,3
			c-2.1-0.4-3.6-2.2-3.5-4.4c0.5-11.4-0.8-23.6-3-27.1l-0.5-0.8l-0.8,0.5c-5.9,3.3-25.9,31.3-20.3,78.5
			c4.1,34.7,18.3,72.2,26.4,91.4l2.1,5l-0.2-5.4c-1.2-35.4-1.3-86.4,10.3-119.6c0.3-0.9,0.9-1.6,1.7-2.2
			c22.3-14.3,47.6-30.6,76.8-42.8c30.8-12.9,60.9-19.2,92-19.2h1.1c2.3,0,4.2,1.9,4.2,4.2c0,1.1-0.5,2.2-1.3,3
			c-0.8,0.8-1.9,1.2-3,1.2h-1.1c-20,0-39.3,2.7-59,8.2l-5.3,1.5l5.5,0.5c16.7,1.4,32.2,5.3,46.4,11.5c38.3,16.9,50.4,27.8,50.5,27.9
			c0.7,0.7,1.2,1.5,1.3,2.5c0.3,1.7,6.6,43.4,1.6,91.6l-0.5,5.1l2.4-4.5c10.5-19.7,23-48.5,22.9-73.9v0
			C443.4,172.4,437.9,159.6,433.2,152.7z"/>
	</g>
	<g id="vs-skin">
		<path fill="#FACFBD" d="M687.8,479.5c-4.7-9.3-13.3-16.4-22-18c-16.7-3.2-25.9,5.6-48,31.6c-10.2,12-19,18.4-27.6,24.6
			c-0.4,0.3-0.7,0.5-1.1,0.8c-8.7,6.3-19.5,14.2-33.1,31.2l-0.2,0.3v0.2c-0.3,0.7-0.8,1.3-1.4,1.7l-0.1,0.1l-0.1,0.1
			c-21.4,28.4-32.6,85.3-35.5,102.1l-0.1,0.7l0.6,0.3c14.5,7.7,28.1,23.3,37.5,42.7l0.5,0.9l0.9-0.5c27.7-15.1,80.1-54.7,80.6-55.1
			c0.9-0.7,2-1,3.1-0.8c1.1,0.2,2.1,0.7,2.8,1.6c1.4,1.9,1,4.5-0.8,5.9l-0.2,0.2c-4.2,3.2-12.9,9.7-23.8,17.6l-1.3,1l1.5,0.7
			c7.9,3.9,17.5,8.1,21.3,8.7l0.4,0.1l0.3-0.2c3.8-2.3,14.3-13.5,23.3-28c11.4-18.3,16.3-34.8,14-46.4c-3-14.8-17.1-28-28.4-36.5
			c-12.7-9.5-24.9-15.3-24.9-15.3c-2.1-1-3-3.5-2-5.6c1-2.1,3.5-3,5.6-2l0.3,0.1c0.3,0.1,0.7,0.3,1.2,0.6l0.5,0.3l0.5-0.3
			c2-1.3,9.2-6,16.4-10.1l1.9-1.1c8.8-5,32.1-18.2,39.2-32.9C692.3,495,691.7,487.1,687.8,479.5z M644.5,482.2
			c-0.1-0.8,0.1-1.5,0.6-2.1c0,0,4.2-4.6,8.9-8.5c0.5-0.4,1-0.6,1.6-0.6c0.1,0,0.3,0,0.4,0c17.3,3,20,15.9,20.1,16.4
			c0.2,0.9-0.1,1.8-0.8,2.3l-11,9.7c-0.9,0.8-2.4,0.8-3.3,0l-15.8-14.6c-0.6-0.6-0.9-1.4-0.8-2.3l0-0.2L644.5,482.2z"/>
		<path fill="#FACFBD" d="M554.7,535.7l0.3,2.2l1.5-1.6c9.7-10.9,17.8-17.2,24.7-22.3l0.4-0.3l0-0.5c0.6-28.5,3.4-30.7,4.7-31.8
			c0.9-0.7,2.3-1.4,7-3.5c11.7-5.3,39-17.6,47.3-30.9c6.9-10.8,9.5-20,7.6-27.4c-1.5-6.2-6.1-11.3-14-15.7
			c-12.3-6.9-25.5-3.7-39.1,9.6l-0.7,0.7c-3.2,3-22.8,31.7-26,43.8c-0.6,2.2-2.9,3.6-5.2,3c-1.1-0.3-2-1-2.6-2
			c-0.6-1-0.7-2.1-0.4-3.2c3.7-13.9,24.1-43.8,28.5-47.9l0.5-0.5c3.6-3.5,7.3-6.5,11-8.8l0.6-0.4l-0.2-0.7c-0.3-1.5,0.1-3.9,0.7-7.1
			c0.6-3.2,1.5-7.7,2.5-13.1c0.8-4,1.7-8.6,2.8-13.7l0.6-3l-2.3,2.1c-9.7,8.8-57.9,53.8-59,75.8c-1,20.4,3.8,58,7.3,85.4
			C553.7,527.9,554.2,531.9,554.7,535.7z M607.4,417.8l12.2-8.9c0.4-0.3,1-0.5,1.5-0.5c0.2,0,0.5,0,0.7,0.1c0.7,0.2,1.3,0.8,1.6,1.5
			l8.7,23.5c0.3,0.9,0.1,1.8-0.5,2.5c-0.7,0.8-7.2,8.1-12.9,10.7l-0.4,0.2l-0.1,0.4c-0.3,0.8-1,1.4-1.8,1.5
			c-1.3,0.2-2.7-0.6-2.9-1.9c-0.3-1.1-4.3-16.4-6.9-26.5C606.2,419.5,606.6,418.4,607.4,417.8z"/>
		<path fill="#FACFBD" d="M197.9,322.6l-0.6-0.3c-0.9-0.4-1.6-1.1-2.1-2l0-0.1c-1.5-3.1-3.3-6.9-5-10.9L190,309l-0.3-0.2
			c-1.9-1-5.6-2.5-9.7-1.4c-5.3,1.4-10.1,6.9-13.9,15.8c-8.6,20.1,0.9,60.2,14.5,76.6c2,2.5,5.2,5.6,8.6,6.5l1.2,0.3l0.1-1.2
			c0.7-7.6,1.5-15.4,2.1-22.2l0-0.3l-9.1-38.9c-0.2-0.9-0.1-1.8,0.4-2.5c0.5-0.8,1.2-1.3,2.1-1.5c1.8-0.4,3.6,0.7,4,2.5l4.7,20
			l0.6-6c1.4-13.8,2.6-27.4,2.6-33.2V322.6z"/>
		<path fill="#FACFBD" d="M423.2,296.6c-4-0.7-7.2,0.4-8.8,1.2L414,298l-0.1,0.5c-1,4.8-2.2,9.8-3.6,14.7
			c-2.7,9.9-4.9,20.3-6.7,31.9l-0.4,2.4l2-1.5c3.2-2.4,6.9-3.9,11-4.3c1.8-0.2,3.5,1.2,3.7,3c0.2,1.8-1.2,3.5-3,3.7
			c-9.3,1-13.2,9.4-13.6,10.4c-0.3,0.7-0.7,1.2-1.3,1.6l-0.4,0.3l-0.1,0.5c-1.1,9.7-1.9,20.1-2.6,32.9l-0.1,1.7l1.5-0.8
			c17.9-8.9,30.9-30.8,36.7-46.8c6.1-16.8,6.6-32.5,1.4-40C433.8,301.4,428.6,297.6,423.2,296.6z"/>
		<path fill="#FACFBD" d="M406.6,292.2c10-51.7,3.9-103.3,2.6-113.2l-0.1-0.4l-0.3-0.3c-4.3-3.3-17.6-12.4-46.8-25.2
			c-35.5-15.6-71.9-10.5-73.4-10.3c-0.2,0-0.3,0-0.5,0l-0.2,0l-0.2,0.1c-28.1,11.9-52.7,27.8-72.6,40.5l-0.3,0.2l-0.1,0.3
			c-12.3,37.2-9.8,100.3-8.8,127.3c0.2,4.9,0.3,9.2,0.4,12c0.1,7.7-1.9,27.2-4.2,49.7l-0.4,4.3c-0.2,1.7-0.4,3.5-0.5,5.2
			c-0.8,7.9-1.8,18.2-2.7,28.5c-2.4,26.2-3.4,43.4-3.1,53.9c0,2,0.1,3.9,0.2,5.7c1.2,27.1,6.3,34.5,25.3,58.8
			c32.9,41.6,68.3,43,69.8,43.1c0.5,0,0.9,0.1,1.3,0.2l0.3,0.1l0.3-0.1c33.1-6.8,75.1-47.9,88.2-86.2l0.1-0.4c0.2-0.5,0.3-1,0.5-1.5
			c5.9-18.6,6.9-42.6,8.1-70.4c0.2-4.2,0.4-8.5,0.6-12.8c1.3-27.3,3.4-59.1,12.1-90.5C403.9,304.9,405.3,298.6,406.6,292.2z
			 M306.1,385.3c-1.7,0.1-3.6,0.2-5.4,0.2c-16.9,0-31.6-5.2-41.5-14.6c-9.3-8.9-14-21.2-13.7-35.6c0.3-13.6,6.9-26.4,19.1-36.8
			c8.8-7.5,17.3-11.2,18.3-11.6c0.4-0.2,0.9-0.3,1.3-0.3c0.4,0,0.9,0.1,1.3,0.3c0.8,0.3,1.5,1,1.8,1.8c0.3,0.8,0.3,1.7,0,2.6
			c-0.3,0.8-1,1.5-1.8,1.8c-0.9,0.4-8.6,3.8-16.4,10.6c-10.7,9.2-16.5,20.2-16.8,31.8c-0.3,12.4,3.7,23,11.6,30.6
			c9.6,9.2,24.4,13.7,41.8,12.6c34.1-2.1,44.6-31.6,47.1-40.7c1.3-4.9,0.7-13.3-4.8-22.1c-6.7-10.6-18.2-18-32.4-20.6
			c-1.8-0.3-3-2.1-2.7-3.9c0.2-0.9,0.7-1.6,1.4-2.1c0.7-0.5,1.6-0.7,2.5-0.5c16,3,29.1,11.4,36.8,23.7c5.7,9.1,7.8,19.3,5.7,27.4v0
			C356.5,349.8,344.7,382.9,306.1,385.3z M354,179.8c-0.4,0.2-0.9,0.3-1.3,0.3c-1.3,0-2.5-0.8-3.1-2c-2-4.6-8.4-5.8-13.5-5.8
			c-2.6,0-4.9,0.3-5.9,0.6l-0.2,0l-0.1,0.1c-0.8,0.6-1.9,0.8-2.8,0.5c-1.8-0.5-2.8-2.4-2.3-4.1c0.4-1.5,1.5-3.2,8.9-3.7
			c10.9-0.7,19.1,2.9,22.1,9.7c0.4,0.8,0.4,1.7,0,2.6C355.5,178.8,354.9,179.4,354,179.8L354,179.8z M325.1,244.2
			c3.6,0.5,5.9,4.4,5.9,10.3c0,6.6-2.7,11.3-6.9,11.8c-3,0.4-5.4-1.4-6.1-4.5c-0.6-2.5,0.2-11.3,3.2-14.6l0.2-0.2l0.1-0.3
			c0.3-1.6,1.7-2.6,3.3-2.6C324.8,244.2,325,244.2,325.1,244.2z M286.7,244.2c0.2-0.1,0.5-0.3,0.7-0.3l0.4-0.1l0.2-0.4
			c0.5-1.2,1.7-2,3-2c0.1,0,0.2,0,0.4,0c1.7,0.2,3,1.3,3.8,3c1.8,4.2-0.1,14-2.8,17.4c-1.4,1.8-2.9,2.1-4,2.1c-0.3,0-0.5,0-0.7,0
			c-1.1-0.2-3.6-1-4.4-5.1C283,256,283.3,246.2,286.7,244.2z M305.8,171.5L305.8,171.5c-0.6,0.7-1.4,1.1-2.3,1.1
			c-0.9,0.1-1.8-0.2-2.4-0.8c-2.3-2-4.6-2.9-7-2.6c-4.5,0.5-8.2,5-8.6,5.6c-0.6,0.9-1.6,1.4-2.7,1.4c-0.7,0-1.4-0.2-2-0.6
			c-0.7-0.5-1.2-1.3-1.3-2.2c-0.1-0.9,0.1-1.8,0.6-2.5c0.2-0.3,5.4-7.4,13.3-8.3c0.5-0.1,1-0.1,1.5-0.1c3.7,0,7.3,1.5,10.6,4.3
			c0.7,0.6,1.1,1.4,1.1,2.3C306.7,169.9,306.4,170.8,305.8,171.5z M351.7,425.5C333.4,439.1,314,446,294,446
			c-7.8,0-15.7-1.1-23.4-3.2c-20.6-5.7-33.8-17.1-34.3-17.5c-1.4-1.2-1.5-3.3-0.3-4.7c0.7-0.8,1.6-1.1,2.5-1.1
			c0.8,0,1.5,0.3,2.1,0.8c0,0,3.1,2.7,8.9,6.2c5,3.1,13.2,7.3,23.2,10c25.7,7,51,1.5,75-16.4c1.5-1.1,3.6-0.8,4.7,0.7
			C353.5,422.3,353.2,424.4,351.7,425.5z"/>
	</g>
</g>
<g id="Layer_2">
	
		<path fill="none" stroke="#000000" stroke-width="8.6947" stroke-linecap="round" stroke-linejoin="round" stroke-miterlimit="10" d="
		M282.8,172.7c0,0,9.6-13,20.5-3.5"/>
	
		<path fill="none" stroke="#000000" stroke-width="8.6947" stroke-linecap="round" stroke-linejoin="round" stroke-miterlimit="10" d="
		M328,170.3c0.3-1.2,20-4.3,24.7,6.4"/>
	
		<path fill="none" stroke="#000000" stroke-width="8.6947" stroke-linecap="round" stroke-linejoin="round" stroke-miterlimit="10" d="
		M291.1,244.7c3.3,0.3,0.5,16.3-2.8,15.8c-3.3-0.5-1.2-12.7,0-13.4c1.2-0.7,0.2,8.2,0.2,8.2"/>
	
		<path fill="none" stroke="#000000" stroke-width="8.6947" stroke-linecap="round" stroke-linejoin="round" stroke-miterlimit="10" d="
		M324.7,247.5c4.2,0.5,4.2,14.8-1,15.5c-5.2,0.7-1-13.2,0-13.6c1-0.3-0.2,7.7,0.7,8"/>
	
		<path fill="none" stroke="#000000" stroke-width="8.6947" stroke-linecap="round" stroke-linejoin="round" stroke-miterlimit="10" d="
		M284.2,289.9c0,0-34.6,14.4-35.3,45.4s23.5,48.7,57,46.6c33.6-2.1,46.3-28.9,50.1-43.1c3.8-14.3-7.7-40.9-39.8-47"/>
	
		<path fill="none" stroke="#000000" stroke-width="8.6947" stroke-linecap="round" stroke-linejoin="round" stroke-miterlimit="10" d="
		M238.5,422.8c0,0,51,44.9,111.3,0"/>
	
		<path fill="none" stroke="#000000" stroke-width="10.4336" stroke-linecap="round" stroke-linejoin="round" stroke-miterlimit="10" d="
		M290.6,576.7c0,0-37.9-0.3-73-44.7c-20.5-26.1-25.6-33.6-26.4-66.9s11.1-123.6,11-141.7s-6.3-98.3,9.2-142.4
		c44.3-28.5,97.2-61.7,167.6-61.4"/>
	
		<path fill="none" stroke="#000000" stroke-width="10.4336" stroke-linecap="round" stroke-linejoin="round" stroke-miterlimit="10" d="
		M287.8,138.6c0,0,37.9-6.1,75.8,10.6s49.4,27.1,49.4,27.1s11.1,70.9-6.8,135.6c-17.9,64.7-7.8,132.7-20.9,173.9
		c-13,41.2-61.4,88.3-97.6,91.8"/>
	
		<path fill="none" stroke="#000000" stroke-width="10.4336" stroke-linecap="round" stroke-linejoin="round" stroke-miterlimit="10" d="
		M199,318.5c0,0-28.2-57.4-34.4-109.9s18.8-86.4,26.6-83.5c7.8,3,6.4,32.2,6.4,32.2s14.8-51.3,50.1-81.4S296.4,59,295.1,64
		c-1.2,4.9-14.4,31.6-14.4,31.6s49-33,78.8-30.8c29.9,2.3,35.1,5.2,33.6,10.4s-12.5,17.9-12.5,17.9s59.1-5.2,66.9,15.1
		c3.5,16.5-22.6,30.4-22.6,30.4s22.6,10.3,23,55.1c0.2,44.9-37,98.8-37,98.8"/>
	
		<path fill="none" stroke="#000000" stroke-width="10.4336" stroke-linecap="round" stroke-linejoin="round" stroke-miterlimit="10" d="
		M410.4,295.3c0.2-0.5,16.3-11.3,31.5,10.4c15.1,21.7-11,85.9-47.5,96"/>
	
		<path fill="none" stroke="#000000" stroke-width="8.6947" stroke-linecap="round" stroke-linejoin="round" stroke-miterlimit="10" d="
		M400.2,357.6c0,0,4.5-11.3,16.3-12.5"/>
	
		<path fill="none" stroke="#000000" stroke-width="10.4336" stroke-linecap="round" stroke-linejoin="round" stroke-miterlimit="10" d="
		M193.6,306.3c0,0-18.6-14.3-31.3,15.3s9.6,93.9,31.3,89"/>
	
		<line fill="none" stroke="#000000" stroke-width="8.6947" stroke-linecap="round" stroke-linejoin="round" stroke-miterlimit="10" x1="186.8" y1="343.3" x2="195.9" y2="382.1"/>
	
		<path fill="none" stroke="#000000" stroke-width="10.4336" stroke-linecap="round" stroke-linejoin="round" stroke-miterlimit="10" d="
		M189.4,471.1c0,0-15,14.8-13.4,44.9s14.3,86.6,63.3,131.8c49,45.2,132.2,113,168.3,124.3"/>
	
		<path fill="none" stroke="#000000" stroke-width="10.4336" stroke-linecap="round" stroke-linejoin="round" stroke-miterlimit="10" d="
		M391.3,764.8c0,0,26.6-15.5,53.6-51.6c27-36.2,26.1-60.9,55.6-59.1c29.6,1.7,55.6,41.7,60.5,70.1
		c-4.9,27.8-124.7,149.7-137.4,150.2C411,874.9,183.3,730.1,152,668.7"/>
	
		<path fill="none" stroke="#000000" stroke-width="10.4336" stroke-linecap="round" stroke-linejoin="round" stroke-miterlimit="10" d="
		M383.3,674.1c0,0-18.8,52.2-14.3,77.6"/>
	
		<path fill="none" stroke="#000000" stroke-width="10.4336" stroke-linecap="round" stroke-linejoin="round" stroke-miterlimit="10" d="
		M381.9,685.7c0,0,38.8,37,47.3,46.4"/>
	
		<path fill="none" stroke="#000000" stroke-width="10.4336" stroke-linecap="round" stroke-linejoin="round" stroke-miterlimit="10" d="
		M386.4,488.9c0,0,9.4,16.3,6.8,35c-2.6,18.6-22.8,106.2-32.9,112.3c-18.1-11.3-42.4-53.6-60.2-57.6"/>
	
		<path fill="none" stroke="#000000" stroke-width="10.4336" stroke-linecap="round" stroke-linejoin="round" stroke-miterlimit="10" d="
		M290.8,579.1c0,0-51.8,36.3-58.3,58.8"/>
	
		<path fill="none" stroke="#000000" stroke-width="10.4336" stroke-linecap="round" stroke-linejoin="round" stroke-miterlimit="10" d="
		M263,604.2c0,0,8.3,51,13.2,55.6c4.9,4.7,28.5,5.2,34.4,1.7c13-23.1,22.1-51.5,21.7-53"/>
	
		<line fill="none" stroke="#000000" stroke-width="10.4336" stroke-linecap="round" stroke-linejoin="round" stroke-miterlimit="10" x1="274.1" y1="661" x2="269.4" y2="672.2"/>
	
		<path fill="none" stroke="#000000" stroke-width="10.4336" stroke-linecap="round" stroke-linejoin="round" stroke-miterlimit="10" d="
		M310.8,663.8c0,0,13.9,48.7,19.7,60.3"/>
	
		<path fill="none" stroke="#000000" stroke-width="10.4336" stroke-linecap="round" stroke-linejoin="round" stroke-miterlimit="10" d="
		M393.7,537.6c0,0,48.7,92.5,100.3,116.5"/>
	
		<path fill="none" stroke="#000000" stroke-width="10.4336" stroke-linecap="round" stroke-linejoin="round" stroke-miterlimit="10" d="
		M513.9,657.4c0,0,11.5-75.5,37.9-109c26.4-33.6,41-32.3,62.8-57.9c21.7-25.6,32.7-36.7,52-33c19.3,3.7,34.8,28.3,26.6,45.4
		c-8.2,17-34.6,31.1-42.8,35.8c-8.2,4.7-16.3,10.1-16.3,10.1"/>
	
		<path fill="none" stroke="#000000" stroke-width="10.4336" stroke-linecap="round" stroke-linejoin="round" stroke-miterlimit="10" d="
		M627.6,548.2c0,0,49.4,23.5,55.6,54.8s-35,79.8-41.4,79.6c-6.4-0.2-28-11.3-28-11.3"/>
	
		<path fill="none" stroke="#000000" stroke-width="10.4336" stroke-linecap="round" stroke-linejoin="round" stroke-miterlimit="10" d="
		M641.2,646.8c0,0-57.6,43.6-84.9,57.4"/>
	
		<path fill="none" stroke="#000000" stroke-width="10.4336" stroke-linecap="round" stroke-linejoin="round" stroke-miterlimit="10" d="
		M645.9,556.3c0,0,5-15.7,8.9-18.3c-15,9.2-12.7,14.6-12.7,14.6s0.7,1.4,0.7,0.5c0-0.9,1.7-5,1.7-5"/>
	
		<path fill="none" stroke="#000000" stroke-width="6.9558" stroke-linecap="round" stroke-linejoin="round" stroke-miterlimit="10" d="
		M646.9,483l15.8,14.6l11-9.7c0,0-2.3-11.7-18.1-14.4c-4.5,3.8-8.7,8.3-8.7,8.3"/>
	
		<path fill="none" stroke="#000000" stroke-width="10.4336" stroke-linecap="round" stroke-linejoin="round" stroke-miterlimit="10" d="
		M585.7,514.3c0,0,0.5-27.5,3.1-29.6c2.6-2.1,43.8-17.2,55.3-35.5c11.7-18.3,14.4-36.5-7.8-49c-22.3-12.5-41.2,7.5-44.7,10.8
		c-3.5,3.1-23.8,32.9-27.3,45.9"/>
	
		<path fill="none" stroke="#000000" stroke-width="6.9558" stroke-linecap="round" stroke-linejoin="round" stroke-miterlimit="10" d="
		M615.8,446.4c-0.2-0.9-7-26.6-7-26.6L621,411l8.7,23.5c0,0-7.7,8.7-13,10.4"/>
	
		<path fill="none" stroke="#000000" stroke-width="10.4336" stroke-linecap="round" stroke-linejoin="round" stroke-miterlimit="10" d="
		M607.6,354.6c0,0-64.5,56.2-65.9,83.6c-1.4,27.5,7.3,83.1,10.3,110.2"/>
	
		<path fill="none" stroke="#000000" stroke-width="10.4336" stroke-linecap="round" stroke-linejoin="round" stroke-miterlimit="10" d="
		M604.7,396.2c-0.7-0.3,22.8-113.4,25-122.9c2.3-9.6,25.2-17.9,57-15.3c31.8,2.6,275.3,13,280.5,16.5c5.2,3.5,18.3,3.1,12.7,31.3
		c-5.6,28.2-95.5,441.9-98.4,446.7c-3,4.9-7.3,7.3-22.1,7.3c-14.8,0-277.4-32.7-278.4-32.7c-1,0-9.4,0-7.7,14.1
		c1.7,14.1,25.4,18.6,25.4,18.6s289.5,39.8,293.9,33.7c4.3-6.1,102.2-455.9,102.2-455.9l-1.4-8.3c0,0-11.5-4.2-12-25.9"/>
	
		<path fill="none" stroke="#000000" stroke-width="10.4336" stroke-linecap="round" stroke-linejoin="round" stroke-miterlimit="10" d="
		M991.4,328.2c0,0,22.8,0.2,25.2,8.7S911.8,803.6,911.8,803.6s-1.6,15.5-18.8,14.4c-17.2-1-308.5-37.7-308.5-37.7
		s-27.3-13.9-31.6-35.3"/>
	
		<path fill="none" stroke="#000000" stroke-width="10.4336" stroke-linecap="round" stroke-linejoin="round" stroke-miterlimit="10" d="
		M573.2,774.1c0,0-28.7,32.7-56,16.5"/>
	
		<path fill="none" stroke="#000000" stroke-width="10.4336" stroke-linecap="round" stroke-linejoin="round" stroke-miterlimit="10" d="
		M874,761c0,0,3.5,26.1,15.3,31.3"/>
	
		<path fill="none" stroke="#000000" stroke-width="10.4336" stroke-linecap="round" stroke-linejoin="round" stroke-miterlimit="10" d="
		M174.1,509.7c0,0-48.7,36.2-64.3,98.8s-12.2,79.1-20.9,93.9c-8.7,14.8-45.6,78.6-51.6,124.3"/>
	
		<path fill="none" stroke="#000000" stroke-width="10.4336" stroke-linecap="round" stroke-linejoin="round" stroke-miterlimit="10" d="
		M257.2,767.4c0,0-25.7,123.6-17,142.8c8.7,19.1,49.7,59.6,70.6,51s44.7-55.6,41.7-66.1c-3-10.4-11.7-68.5-11.7-68.5"/>
	
		<path fill="none" stroke="#000000" stroke-width="10.4336" stroke-linecap="round" stroke-linejoin="round" stroke-miterlimit="10" d="
		M252.9,789.7c0,0,38.6,11.1,44.5,15.5c5.7,4.3,41.4,26.1,41.4,26.1l-7.8-9l-71.3-44l-3.8,7c0,0,9.6,3.5,11,3.5
		c1.4,0,7.8,3.1,7.8,3.1l4.7,2.3"/>
</g>
<g id="Layer_4">
	
		<polyline opacity="0" fill="none" stroke="#000000" stroke-width="40" stroke-linecap="round" stroke-linejoin="round" stroke-miterlimit="10" points="
		185.4,286.6 183.8,238.8 186.8,180.1 189,131.8 204,163.9 220.6,150.6 208.9,104.5 225.2,87.6 240.8,139.4 264.5,126.3 250.6,87.6 
		269.9,65.5 286.6,119.5 308.3,117.6 303.3,87.2 323,77.6 331.1,119.5 361.7,127.4 350.3,74.6 371.5,75.1 383.8,135.3 400.2,145.1 
		398.8,114.3 430.1,113.5 419.5,147.6 418.4,155.7 427.7,157.4 440.7,193.1 436.1,233.1 439.3,261.6 	"/>
	
		<path opacity="0" fill="none" stroke="#000000" stroke-width="80" stroke-linecap="round" stroke-linejoin="round" stroke-miterlimit="10" d="
		M279.4,149.5l-55.6,33.3l-11.4,58.6l140.7-79l60,14L167.8,346.1l6.4,47L413,244.7l21,58.1c0,0-259.7,127.7-258,129.9
		c1.8,2.2,21.8,38.4,21.8,38.4l235.2-113.5l-44,65.1L220.9,500l40.8,29.2l32.4,8.8l77.7-55.7"/>
	
		<path opacity="0" fill="none" stroke="#000000" stroke-width="60" stroke-linecap="round" stroke-linejoin="round" stroke-miterlimit="10" d="
		M556.3,672.6l41-30.1l29.3-4l12.4,10l14-38.7l-29.1-28l-101.2,75.6l14.4-56.7c0,0,66.1-54.9,67.6-54.9c1.5,0,58.1-48.2,58.1-48.2
		L657,488l-37.7,37.8l-54.9,22.7l-4.4-77.4l44.7-22.2l20.9-25.7l-63.8,17.2l12.8-26.2l10.4-46.5"/>
	
		<path opacity="0" fill="none" stroke="#000000" stroke-width="60" stroke-linecap="round" stroke-linejoin="round" stroke-miterlimit="10" d="
		M669.4,260.6c0,0-57.9,48.3-55.5,50.8c2.4,2.5-1.2,64.8-1.2,64.8l105.8-102.4l63.4-6.4L590.1,436.4l-3.6,61.2l238.2-211l55.2-14.2
		L702.1,455.2l-47.3,104.6l284.4-295.9l29.5,16c0,0-296.4,313.2-294.9,310.9c1.4-2.3,2.5,29.3,2.5,29.3l315.2-301.6l14.7,36.2
		L608.9,699l35.6,5.2l342.9-284.7L962,488L669.4,708.9l59.2,3.9l236.6-187l-22,66.4L756,718.4l61.3,5.8L929.7,634l-6.5,48.6
		l-76.4,49.6l49.9-0.8l25.3-13.8l-5.7,67l-5.7,42.2l-80.9-8.6l-155.9-17.2l-87.2-11.2l-37.2-17.6l-13.1-28.4l5.4-11.6l11.3-28
		l20.3-9.7l10.5,4.5"/>
	
		<polyline opacity="0" fill="none" stroke="#000000" stroke-width="60" stroke-linecap="round" stroke-linejoin="round" stroke-miterlimit="10" points="
		582.3,748.1 718.5,764.2 899.6,784.6 	"/>
	
		<path opacity="0" fill="none" stroke="#000000" stroke-width="60" stroke-linecap="round" stroke-linejoin="round" stroke-miterlimit="10" d="
		M305.7,573.1l-32,46.9l0.4,35.7l38.2-47.2c0,0-6.6,77.9-6.6,80S263,813.9,263,813.9l-10.1,60.5l71.4-56.3l17.3,13.2l-79.9,84.9
		l17.1,23.7l53.6-45l-23.2,62.4"/>
</g>
</svg>
