<?xml version="1.0" encoding="utf-8"?>
<!-- Generator: Adobe Illustrator 24.3.0, SVG Export Plug-In . SVG Version: 6.00 Build 0)  -->
<svg isCommex="true" version="1.1" id="Layer_3" xmlns="http://www.w3.org/2000/svg" xmlns:xlink="http://www.w3.org/1999/xlink" x="0px" y="0px"
	 width="773.9px" height="751.3px" viewBox="0 0 773.9 751.3" enable-background="new 0 0 773.9 751.3" xml:space="preserve">
<g id="vs-hair">
	<path fill="#D5905D" d="M387.2,195.3c-2.2-3-3.3-4.7-3-6.3c0.3-3,0-10.3-3.4-16.2c-1.9-3.5-7.1-3.7-10.9-3.9l-0.7,0
		c-2.2-0.2-4.2-0.3-5.6-1c-2-1-3-3-4-5l-0.4-0.8c-1.2-2.5-2.5-5-5.6-6.5c-4.8-2.3-15.5-1.6-23.1-0.9l-0.7,0.1
		c-0.8,0.1-1.4,0.1-1.9,0.1c-2.6,0.2-4.6-1.9-6.5-4c-3.1-3.2-5.5-5.4-9.1-4.9c-4.4,0.5-7.5,2.9-10.4,5c-2.2,1.6-4.4,3.3-6.7,3.4
		c-0.1,0-0.1,0-0.2,0l0,0l-1-0.2c-1.9-0.3-3.4-1.8-5.1-3.5l-0.1-0.1c-2.5-2.5-5.4-5.4-10.7-5.3c-6.9,0.2-13.5,6.8-17.5,10.8
		c-1.7,1.7-3.1,3.1-4.5,4.1c-2.9,2.1-4.1,2-5.8,1l-0.1,0c-0.7-0.3-1.8-0.9-4.9-0.6c-6.6,0.6-11.1,14.6-11.9,18.1
		c-0.9,4.2-2.5,5.2-7.7,7.7c-0.5,0.2-0.9,0.4-1.4,0.7c-0.5,0.2-1,0.5-1.5,0.7c-4.8,2.4-3.1,11.9-2.2,17.1c0.3,1.5,0.5,3.1,0.6,4.4
		c0.4,5.4-2.9,10-5.8,14c-0.4,0.5-0.8,1.1-1.2,1.6c-2.2,3.3,2.1,9.5,7,15.8c1.3,1.6,2.2,3.4,2.8,5.2c1.8,5.5,0.1,11.1-1.5,16.5
		l-0.5,1.6c-1.3,4.8,7.3,9.2,10,10.4l1,0.5l0.4-1.2c1.3-3.5,1.9-6.9,1.9-9.9c0-1.6-0.2-4-1.2-6.2c-1-2.5-2.3-4.7-3.2-6.4l-0.5-0.9
		c-0.8-1.6-1.7-3.2-2.4-5l0,0l-0.4-0.9c-1.4-3.5-2.1-6.8-2.1-10.5c0-9.1,2.4-25.2,4.9-29.7c2.4-4.3,17.6-18.8,26-24.2
		c6.6-4.3,13.9-5.9,17.7-6.5l0.5-0.1l0.2-0.5c1.4-2.8,4-7.1,6.9-10.2c4.5-4.9,11.2-5.9,11.2-5.9h0l0.6,0.1c0.4,0.1,1,0.3,1.3,0.7
		c0.3,0.3,0.7,1,0.5,1.9l-4.1,15.4l1.2,0.1c4.4,0.4,27.2,2.9,43.2,10.2c19.6,9,29.9,41.2,27.5,53.9c-2.1,10.8-0.5,15.7,0.1,16.9
		l0.1,0.3l0.3,0.2c0.5,0.3,1.6,0.8,2.7,1.4l0.8,0.3l0.5-0.7c2.8-4,8.8-10.8,17.9-10.9h0.8l0.3-0.6c1.7-3.6,7.4-16.4,8.6-28.5
		C396.2,207.8,390.6,200,387.2,195.3z"/>
</g>
<g id="vs-primary">
	<path fill="#E6074D" d="M485.1,326.8c-0.1-0.6-0.2-1.4-1-2c-3.9-15.2-6.2-22.2-16.2-27.3l-0.3-0.1h0c-11.6-5.7-16-3-17.5-2.1
		l-0.1,0.1c-1,0.7-5.7,4.2-11,8.3c-10,7.7-26.8,20.6-38.2,28.3c-14.7,10-26.1,15.7-29.3,17.2l-0.4,0.2l-0.1,0.5
		c-0.4,1.5-0.8,3.1-1.3,4.5c-1.9,6-5.3,11.9-10.3,17.6l-0.2,0.3v1.3c0,0.2-0.1,0.5-0.2,1c-3.8,24.4-6,35-7.2,39.6
		c-2.8,10.8-8.5,21.7-15.1,21.7l-0.6,0c-3.6-0.3-10.3-4.8-18.4-12.4c-0.8-0.7-0.8-2,0-2.8c0.3-0.4,0.8-0.6,1.3-0.6
		c0.5,0,1.1,0.2,1.4,0.5c4.5,4.3,12.8,11.1,16,11.4l0.2,0c3.6,0,8.6-8.4,11.3-18.7c1.9-7.3,4.5-22.6,6.2-33.4l0.5-2.8l-2.1,1.9
		c-2.9,2.6-6.1,5-9.2,6.8c-0.6,0.4-1.1,0.8-1.7,1l-0.6,0.3v0.5c0,0.1-0.1,0.2-0.1,0.4c0,0.1-0.1,0.2-0.1,0.3
		c-2.3,8.5-6.2,15.3-11,19.3c-4.4,3.6-8.9,5.4-11.8,6.6c-3.2,1.2-5.3,2.2-6.2,3.6c-1.2,1.8-2.9,6.2-4.4,10.2l-0.5,1.3
		c-2.6,6.8-2.8,7.2-4.3,7.4h-0.2c-0.7,0-1.4-0.4-1.7-1c-0.3-0.6-0.5-1.2-1.1-4.1c-1.3-6.5-2.2-9.7-3-10.7c-0.7-0.8-3.4-2.4-3.9-2.7
		l-0.8-0.5c-3.4-2.1-7.1-4.5-8.9-7.9c-2.7-5.5-4.4-17.8-4.4-17.9l-0.1-0.4l-0.3-0.3c-0.9-0.7-2.2-1.6-3.4-2.7l-1.1-0.9l-0.5,1.3
		c-2.2,5.5-4.8,13.2-4.6,19.2c0.3,6.1,2.2,16.2,3.8,22.1l0.5,1.8l2.8-3.1c1.9-2,4-4.4,6-6.6c0.7-0.8,2-0.9,2.8-0.1
		c0.8,0.7,0.9,2,0.1,2.8c-8.9,9.8-10.9,11.8-11.3,12c-0.4,0.2-0.8,0.4-1.2,0.4c-0.3,0-0.6-0.1-0.9-0.2c-0.8-0.4-1.9-1-4.2-11.8
		c-1.3-6.2-2.3-12.8-2.5-17c-0.3-7.2,3.1-16.5,4.5-20.1l0.3-0.7l-0.6-0.5c-5.3-4-14.4-9.4-17.1-8.1c-3.6,2.1-10.5,13.2-17,27.4
		c-5.5,11.9-21.4,46.4-23.5,50.7l-0.9,1.8l1.3,0.2c6.4,1.2,18,5,23.6,16.9c1.2,2.7,2.2,5.4,2.9,8.1c0.9,3.6,1.5,7.4,1.7,11.3
		l0.2,3.2l16.3-26.7c0.1-0.1,0.1-0.2,0.2-0.3l0.3-0.3l0-0.4c-0.6-24.8-4.8-54.6-5-55.4c-0.1-0.5,0-1,0.4-1.4
		c0.3-0.4,0.8-0.7,1.4-0.8c0.5-0.1,1,0,1.4,0.4c0.4,0.3,0.7,0.8,0.8,1.4c0.5,2.4,4.8,32.6,5.2,57.8c0.1,7,0,12.7-0.5,17.4
		c-2.2,22.8-7.4,55.5-9,65.1l-0.1,0.5l0.4,0.4c1.6,1.4,4.4,3.6,7.8,5.8c9.3,6.1,25.1,14.1,47.5,17.6c4,0.7,8.3,1.2,12.8,1.5
		c2.1,0.2,4.1,0.3,6.1,0.4c3.2,0.2,6.4,0.2,9.4,0.2c36.8,0,59.2-10.6,66.9-14.2l0.6-0.2c6-2.9,9.2-7,10-8.2l0.2-0.3l-0.1-0.4
		c-2.5-15.4-10.6-67.8-13.1-95c-2.4-27.2-0.5-57.5,0.2-66.1c0-0.2,0-0.3,0-0.4c0.1-0.6,0.5-1.2,1-1.5c0.2-0.1,1.1-0.6,2.3-1.3
		c43.6-24.6,58.7-31.8,63.7-33.4c0.7-0.2,1.3-0.4,1.9-0.6c3.7-1.3,8.6-3.1,11-4.9l0.2-0.1l0.1-0.2
		C481.5,352.5,487.6,339.9,485.1,326.8z"/>
	<path fill="#E6074D" d="M235.7,490.9l-1.5,1.5c-0.2,0.2-0.3,0.4-0.3,0.6c0,0,0,0.1,0,0.1c0,0,0,0,0,0c-0.6,1.1-1.2,2.2-1.9,3.3
		c-1.2,2.1-2.5,4.4-3.7,6.5l-0.5,0.9l0.9,0.5c2.2,1.1,4.5,1.9,5.3,2.2l1.1,0.4l0.2-1.1c0.5-2.2,1.2-6.8,0.6-12.8L235.7,490.9z"/>
</g>
<g>
	<path fill="#9DC1ED" d="M565,516.4l-0.2-0.7l-18.1-1.4c-1.1-0.1-1.9-1-1.9-2.1c0.1-1.1,1-1.9,2.1-1.9l9.2,0.7l-1.3-1.8
		c-1.7-2.2-7.3-10-10.4-17.5c-3.2-7.8-3.4-15.7-3.4-17.9V473l-0.8-0.2c-16.6-3.4-30.5-9.1-39.2-13.2l-2-0.9l0.6,2.1
		c1.1,4,2.7,10,4.6,17.1c7.4,27.3,18.6,68.7,20,72.7l0.1,0.4l0.4,0.2c0.2,0.1,16.9,8.9,36.2,9.9c3.7,0.1,7,0.2,10.1,0.2
		c2.2,0,4.3,0,6.3-0.1l1.5-0.1l-0.7-1.4C574.2,551.5,567.6,527,565,516.4z"/>
	<path fill="#9DC1ED" d="M402.7,572.1c-7.5,3.4-30.2,13.8-66.8,13.8c-2.6,0-5.2,0-8-0.1l-1.2,0l0.2,1.2c0.2,1.9,0.6,4.7,0.9,7.7
		c0.5,4.4,1.1,9,1.5,11.5l0.1,0.8l7.2,0.6c1,0.1,1.8,0.8,1.9,1.8l1.6,17c0.1,1.1-0.7,2.1-1.8,2.2H338c-0.9,0-1.9-0.7-2-1.8
		l-1.5-15.3l-23.6-1.9c-1.1-0.1-1.9-1-1.9-2.1c0-0.5,0.3-1,0.7-1.3c0.4-0.4,0.9-0.5,1.5-0.5l7.6,0.6l-1.4-1.8
		c-2-2.5-4.1-5.6-5.9-8.5c-3-4.8-4.1-9.5-4.5-11.3l-0.1-0.7l-0.7-0.1c-15.8-2.5-30.3-7.5-43.2-14.8l-1.6-0.9l3,54.4l0,0.6l0.5,0.3
		c20.9,11.3,54.2,12.4,67.2,12.4c0.9,0,1.7,0,2.4,0c39.8-0.6,64.7-7.1,73.6-9.8l0.8-0.2l-4.9-54.1L402.7,572.1z"/>
	<path fill="#9DC1ED" d="M545.2,491.3c3.5,8.6,11,18.3,11.8,19.3l0.3,0.3l4.2,0.4l-0.5-1.5c-0.8-2.5-2.9-8.9-4-15.9
		c-1.3-7.9-1.5-16.4-1.6-18l0-0.9l-0.9-0.1c-3.6-0.4-7.5-0.9-11.4-1.7l-1.2-0.2l0,1.2C542,478.7,542.7,485.2,545.2,491.3z"/>
	<path fill="#9DC1ED" d="M654.6,541.1c-5.9-5.1-12.7-39.8-17.2-70.5l-0.2-1.1l-1,0.2c-11.4,2.4-34.4,6.4-60,6.4
		c-7,0-13.2-0.3-18.9-0.8l-1.2-0.1l0.1,2.2c0.2,3.9,0.5,10.4,1.6,16.4c1.2,7.6,3.6,14.9,4.3,17l0.2,0.6l3.8,0.2
		c0.9,0.1,1.6,0.7,1.8,1.5c4.3,16.1,11.9,42.8,14.4,46l0.1,0.1c0.2,0.2,0.4,0.5,0.4,0.8l0.2,0.9l0.9-0.1c11.5-0.7,22.7-2.1,31.7-4
		c12.9-2.8,30.6-8.4,39-14.1l1.1-0.7L654.6,541.1z"/>
	<path fill="#9DC1ED" d="M312.3,595.3c3,4.7,6.3,9,7.6,10.6l0.3,0.3l8.2,0.6l-0.4-3.6c-0.7-5.3-1.7-13.2-2-16.7l-0.1-0.9l-6.1-0.4
		c-3.3-0.2-6.5-0.5-10.4-1.1l-1.5-0.2l0.4,1.5C308.7,587.9,309.9,591.5,312.3,595.3z"/>
</g>
<g id="vs-secondary">
	<path fill="#FFF996" d="M689.1,359c-6-11.7-11-19.6-15-23.3c-7.3-8.5-24.5-40.1-28.1-49.1c-3.4-8.1-11-13-18.3-11.8h-1.2l-0.3,0.4
		c-5.8,6.8-11.6,11.7-16.3,13.7c-8.6,3.7-19.3,4.9-25,5.3l-0.6,0l-0.2,0.6c-4.1,11-10.7,18.5-18.4,21.1c-1.8,0.6-3.8,0.9-5.8,0.9
		c-3.5,0-6.9-1-10.1-3c-7.4-4.6-8.9-12.6-8.9-18.5v-1.9l-1.6,1c-6.7,4.5-13.7,9.1-20.5,13.6c-3.6,2.4-7.1,4.7-10.3,6.8
		c-2.8,1.8-5.5,3.6-7.9,5.2c-5.5,3.6-9.8,6.4-11.3,7.5l-0.5,0.3l0.1,0.6c1.6,12.6-3.3,24.2-5.5,28.6c-0.5,1.1-2.1,2.8-9.8,5.8
		l-1.6,0.6l1.4,1.1c1.4,1.1,2.6,2,3.9,2.9c1.7,1.1,4.4,2.6,7.8,3.3c6.7,1.4,10.9,1.5,12,1.5h0.9l0.1-0.9c1-6.8,1.1-11.9,0.2-16.1
		c-2.2-11,1.5-22.3,1.6-22.5c0.3-1,1.4-1.6,2.5-1.2c1,0.3,1.6,1.5,1.3,2.5c0,0.1-3.4,10.7-1.5,20.5c1,5.1,0.8,11.4-0.5,20.1
		c-1.1,7-2.9,15.1-4.7,22.7l-14.3,48l1.1,0.7c2.5,1.5,7.1,4.4,13.3,7.5c10,5.1,25.8,12,44.7,15.9c4.6,0.9,9.4,1.6,14.2,2.1l0.1,0
		c0.2,0,0.3,0,0.5,0c0.3,0,0.6,0.1,0.8,0.1c6.4,0.6,12.7,0.8,18.9,0.8c28.4,0,53.4-5,61.6-6.8l0.6-0.2c0.5-0.1,1-0.3,1.4-0.3l1-0.2
		l-3.7-25.6l-0.3-0.2c-1.7-1.4-3-3.2-3.9-5.4l-0.4-1.1l-1,0.6c-0.9,0.6-2.5,1.3-4.7,1.6l-0.1,0c-0.2,0-0.3,0.1-0.5,0.1
		c-0.2,0-0.5,0.1-0.6,0.1c-1.3,0.2-2.5,0.4-3.8,0.4c-2.1,0-5.2-0.6-7.5-5.4c-0.4-0.9-0.8-2.3-1.2-4.5l-0.1-0.5l-0.5-0.2
		c-0.3-0.1-0.6-0.3-1-0.7c-0.1-0.1-0.9-0.8-2.4-1.7c-1.4-0.7-3.8-1.7-7.7-2.4c-3.7-0.6-7.8-0.5-11.7-0.4c-4.8,0.1-9.3,0.2-12.5-1
		c-5.7-2.2-16.8-13.4-16.8-25.9c0-14.6,10.3-18,19.2-19.2c9.7-1.4,12.5,5.2,14.6,10c0.6,1.5,1.4,3.2,2.3,4.4c1.2,1.8,3.5,2.9,6.1,3
		c2.9,0,5.4-1.1,7.1-3.1l0.1-0.2c0.6-0.8,1.3-1.7,1.7-2.6c2.7-4.9,3.9-11.7,3.2-17.7c-0.4-3-1.3-5.2-2.6-8.2l-0.1-0.3
		c-1.8-4.4-4.1-9.8-5.3-20.5c-0.9-8.7,1.6-16.8,7.1-22.9c4.8-5.4,11.6-8.6,18.3-8.6c5.8,0,9.9,1.6,12.1,4.8
		c2.2,3.1,2.4,7.4,0.6,12.5c-2.4,6.6-7.5,40.5-5.8,45.2c0.9,2,2.7,2.4,7.2,3c3.3,0.4,6.3,1,9.1,1.8l1.7,0.4l0.4-0.3
		c2.9-2.3,10.5-7.8,18.7-10.6c5.5-2,9.8-2.9,12.4-3.4l1.3-0.2L689.1,359z"/>
</g>
<path fill="#808080" d="M673.7,128.9l-0.1-0.4c-0.1-0.5-0.2-1.2-0.3-2.3l0-0.2c-1-3.9-2.9-11.3-0.5-15.8c1.9-3.6,2-10.5-1.1-15.6
	c-2-3.2-4.4-4.3-6.1-4.9c-1.4-0.5-2.1-1.2-2.1-2.4c0-0.5,0.2-1,0.6-1.5l0.1-0.2c1.4-2.4,2.7-5.5,0-8.2c-4.2-4.1-12-6.4-13.3-6.7l0,0
	c-0.7-0.1-1.3-0.8-1.4-1.5c-0.6-3.3-2.2-8.9-3.8-10.5c-0.6-0.6-2.2-1.1-8.5-0.9l-0.1,0c-1.9,0.1-3.7,0.2-5.5,0c-3-0.3-4.6-2.2-6-3.9
	l-0.1-0.2c-1.5-1.8-2.9-3.4-6.3-3.3c-7.2,0.3-12.5,2.8-12.7,2.9c-0.5,0.3-1.1,0.3-1.7,0.1c-0.5-0.2-0.9-0.6-1.1-1.2
	c-0.2-0.6-2.3-5.8-5.7-5.1c-4.6,0.9-10.8,4.3-11.5,4.7c-0.5,0.3-1.1,0.3-1.7,0.2c-0.6-0.1-1-0.6-1.2-1c-0.8-1.4-3.9-5.8-11-3.3
	c-5.3,1.9-10.3,5.4-14.4,10.2l-0.1,0.2c0,0-0.1,0.1-0.2,0.2c-0.4,0.4-0.9,0.6-1.6,0.6c-1-0.1-1.4-0.6-1.9-1.3
	c-1.7-2.4-4.1-4.6-8.2-2.6c-6.2,2.9-9.2,11-9.6,12.6l0,0c-0.2,0.7-0.6,1.1-1.3,1.3c-0.6,0.2-1.3,0.1-1.8-0.2
	c-0.7-0.6-3.7-1.9-7.6,0.6c-4.7,2.9-6.4,12.9-6.5,13c-0.1,0.6-0.5,1.2-1,1.4l-0.6,0.3v0.1c-4.5,3-6.2,6.4-6.8,8.7
	c-0.7,2.5,0.1,7,2.3,13.4l1.5,4.3l0.4-4.5c1.2-12.5,9.1-24.1,16-28.8c7.8-5.3,35.1-12.8,49.6-13.7c14.5-0.9,42.2,3.9,53.9,10.8
	c12,7.1,17.2,21.7,18,32c0.7,10-3.1,26.9-7.1,36.4c-1.4,3.5-3.2,7-4.8,10.1l-0.7,1.4c-2.2,4.3-4.3,8.4-4.4,10.6
	c-0.2,3.8,1.1,8.7,2,10l0.2,0.2c0.9,0.8,4.7,2.5,5.4,2.8l0.1,0c0.2,0.1,0.3,0.1,0.3,0.2l0.8,0.8l0.7-0.9
	c3.4-4.5,10.7-11.9,21.3-11.5l0.7,0l0.3-0.6c0.6-1.3,2-4.8,2.2-9.4c0.1-2.3-0.3-4.2-0.8-6.4l-0.1-0.3c-0.7-2.7-1.4-5.6,0.7-8.3
	C671.8,138.1,674.3,131.8,673.7,128.9z"/>
<g id="vs-skin">
	<path fill="#FCD9CA" d="M387.7,250.6c-0.7-0.1-1.3-0.1-2.1-0.1c-8.8,0.1-14.2,8.3-15.7,10.9l-0.1,0.2c-0.5,0.9-1.6,1.3-2.5,0.9
		c-5.6-2.3-6.7-3.4-6.9-3.8l-0.1-0.1c0,0-3.8-5-1-20.3c2.2-11.5-8.2-41.6-25.3-49.5c-17.2-7.9-43.5-10-45.4-10.2v0
		c-0.6-0.1-1-0.4-1.6-1c-0.3-0.4-0.4-0.9-0.3-1.6l3.9-14.6l-2,1.1c-1.1,0.6-2.5,1.5-3.9,2.9c-3.1,3.3-6.3,9-7,10.6l0,0
		c-0.3,0.7-0.9,1.1-1.6,1.1c-0.1,0-9.3,0.6-17.5,6c-8.6,5.5-22.8,19.6-24.6,22.8c-1.8,3.4-4.3,18-4.3,27.8c0,6.4,2.3,10.7,4.8,15.2
		l0.1,0.1c1.3,2.3,2.5,4.6,3.5,6.8c2.4,5.5,1.3,12.2,0.6,15.8l-0.4,2l1.8-1c10.7-5.7,21.4-9,21.5-9c1.1-0.3,2.2,0.3,2.5,1.3
		c0.3,1.1-0.3,2.2-1.3,2.5l0,0c-2.3,0.6-16.5,5.5-27.2,12.4c-4.8,3.1-8.3,6.1-10.7,9.2c-3.6,4.7-4.7,11.5-3.3,19
		c1.8,9,7.3,17.9,13.5,21.6c2.5,1.5,5.1,2.8,7.6,3.9c10.6,4.4,25.3,7.2,34.4,1.7c9.6-5.7,17.9-25.8,20.3-33.1c0.3-1,1.4-1.6,2.5-1.2
		c1,0.3,1.6,1.4,1.3,2.5l-0.1,0.2c-1.6,4.6-10.4,28-22,35c-4.1,2.4-9.1,3.6-14.8,3.6c-5.6,0-12-1.2-18.5-3.3l-1.7-0.6l0.4,1.7
		c0.7,2.8,1.9,7.3,3.9,12.5c4.5,10.9,10.5,19.2,18,24.7c3.2,2.3,5.7,4.2,8,6l2.2,1.7c2.3,1.8,4.3,3.4,6,4.8c6.1,5,8.4,7.3,8.6,7.5
		c0.7,0.7,0.7,2,0,2.7c-1,0.8-2.2,0.7-3,0c0,0-0.8-0.8-2.7-2.5l-2.3-2.1l0.7,3c0.8,3.7,1.7,7.5,2.9,9.8c1.4,2.7,5.3,5,8.3,6.8
		c2.3,1.3,4.1,2.4,5,3.6c0.9,1.2,1.8,3.4,2.6,6.8l0.8,3.1l1.2-3c1.4-3.7,3-7.8,4.4-9.7c1.5-2.4,4.2-3.5,7.4-4.9l1.3-0.6
		c3.1-1.3,6.6-2.9,10-5.7c4.2-3.4,6.6-8.7,8.1-12.3l1-2.5l-2.4,1.3c-2,1-3.5,1.8-4.3,2.2c-0.6,0.3-0.8,0.4-1,0.5
		c-0.2,0.1-0.5,0.2-0.8,0.2c-0.8,0-1.5-0.4-1.8-1.1c-0.5-1-0.1-2.2,0.9-2.7l0.2-0.1l0,0c0.1-0.1,0.3-0.2,0.6-0.3
		c1.7-0.8,6.1-3.1,12-6.5l1.5-0.9c4.7-2.8,9.5-6.8,13.5-11.1c5.3-5.9,9.2-12.1,11.1-18.1c0.7-2.1,1.3-4.6,1.8-6.5
		c2.8-11.1,5.1-25.6,6-31.8l0.3-2l-0.7-0.3c-2.5-1.3-3.9-2.6-4-2.6c-0.4-0.4-0.6-0.9-0.6-1.4c0-0.5,0.2-1,0.6-1.4
		c0.4-0.4,0.9-0.6,1.4-0.6c0.5,0,1,0.2,1.4,0.6c0,0,1.6,1.5,4.6,2.5c3.2,1,6.5,0.9,9.8-0.1c9.3-2.9,16.4-16.9,16.9-33.1
		c0.2-8.8-2.2-16.3-6.9-21C394.4,252.7,391.2,251,387.7,250.6z M378,293.2c0.1,1.2-0.7,2.1-1.8,2.2H376c-1,0-1.9-0.8-2-1.8
		c-1-10.4,12.7-20.5,12.8-20.6c0.3-0.3,0.7-0.4,1.2-0.4c0.6,0,1.2,0.3,1.6,0.8c0.6,0.8,0.5,2.1-0.4,2.8l0,0
		c-0.5,0.4-11.3,8.8-11.2,16.3L378,293.2z M276.9,363.4c-0.2-0.1-0.4-0.3-0.5-0.6c-0.1-0.3,0-0.6,0.1-0.8c0.1-0.2,0.3-0.4,0.6-0.5
		l0,0l0.1,0c0.4-0.1,3.6-0.9,8.1-1l1.1,0l-0.1-1.1c-0.3-3-1.7-6.3-4.1-10c0,0,0,0,0,0v-0.1l-0.2-0.2v-0.8l-1,0
		c-4.7,0.2-9,0.5-11,0.7c-0.3,0-0.5-0.1-0.7-0.2c-0.2-0.2-0.3-0.4-0.3-0.7c0-0.3,0.1-0.6,0.2-0.7c0.2-0.2,0.4-0.3,0.6-0.3
		c0.2,0,0.7,0,1.9-0.1c2.3-0.2,6.5-0.5,11.3-0.7c12.1-0.6,19.7-0.5,22.7,0.1c4.2,0.9,8.7,4.3,11.2,8.6c1.9,3.2,2.4,6.4,1.6,9v0
		c-1.2,3.9-3.4,6.6-6.1,7.4c-0.6,0.2-1.3,0.4-2.2,0.4c-2.1,0-4.3-0.9-6.6-2.6c-5.8-4.3-11-6.5-16.1-6.7h-0.9c-5.1,0-8.6,1-8.8,1
		C277.5,363.5,277.2,363.5,276.9,363.4z M317,214.9L317,214.9c-0.2,0.3-0.4,0.4-0.9,0.5c-0.2,0-0.4-0.1-0.5-0.2
		c-2.9-2.1-6.1-2.7-8.5-2.7c-1.6,0-2.9,0.2-3.6,0.4l-0.2,0c-0.6,0.2-1.1-0.1-1.3-0.7c-0.2-0.6,0.1-1.1,0.7-1.3c0.1,0,7.6-2.2,14,2.5
		C317.3,213.9,317.4,214.4,317,214.9z M322.1,256.9c-1.7-1-4.7-2.3-9.9-2.9c-1.7-0.2-3.6-0.3-5.9-0.3c-3.7,0-8.1,0.4-12.6,1.7
		l-0.2,0.1c-0.2,0.1-0.2,0.1-0.5,0.1c-0.6,0-1-0.4-1-1c0-0.5,0.3-0.9,0.8-1l0.3-0.1c7.5-2,14.6-1.8,19.1-1.3
		c11.6,1.3,14.1,6.1,14.2,6.4c0.1,0.3,0.2,0.6,0.1,0.8c0,0.2-0.1,0.4-0.4,0.5c-0.2,0.1-0.4,0.1-0.5,0.1c-0.5,0-0.8-0.2-1-0.6
		C324.8,259.1,324.1,258.1,322.1,256.9z M298.2,380.1c0.2,0.1,0.4,0.2,0.5,0.5c0.1,0.2,0.1,0.5,0,0.7l0,0c-0.2,0.5-0.7,0.7-1,0.8
		c-0.1,0-0.2,0-0.2,0l-0.1-0.1c-4.3-1.5-6.9-3.4-7.6-5.5c-0.2-0.8-0.2-1.6,0-2.2l2,1.4c0,0.1,0,0.2,0.1,0.2
		C292.2,376.8,293.6,378.4,298.2,380.1z M260.4,213.7c-0.4-0.1-0.9-0.3-1.5-0.3c-0.8,0-1.9,0.2-3.2,0.7c-1.9,0.7-3,1.5-3.4,2.4
		l-0.1,0.3l0,0.3c0,0.4-0.1,0.9-0.6,1h-0.4c-0.5,0-0.9-0.3-1-0.7c0-0.1-0.7-3.1,4.9-5c1.5-0.6,2.8-0.8,3.9-0.8c1.4,0,2.4,0.4,3,0.7
		L260.4,213.7z M244.3,256.8c-0.1,0.4-0.5,0.7-1,0.7c-0.1,0-0.2,0-0.3,0l-0.2-0.1c-0.3-0.1-0.4-0.3-0.5-0.4
		c-0.1-0.2-0.1-0.5-0.1-0.8l0,0c0.5-1.2,2.6-5.2,9.2-6.7c7.4-1.8,13.7,1.9,13.8,2c0.2,0.1,0.4,0.3,0.4,0.6c0,0.2,0.1,0.4-0.1,0.8
		c-0.1,0.2-0.3,0.4-0.6,0.4c-0.2,0-0.4,0.1-0.8-0.1c-0.2-0.1-5.8-3.3-12.2-1.8C245.8,252.8,244.3,256.7,244.3,256.8z"/>
	<path fill="#FCD9CA" d="M231.7,477.9c-4.9-10.7-15.4-13.9-21.3-14.8l-0.5-0.1l-6.1,6.6l0.3,0.6c3.6,7.3,6.4,13.9,6.7,14.5
		c0.4,1-0.1,2.1-1,2.6c-0.3,0.1-0.6,0.1-0.9,0.1c-0.8,0-1.6-0.5-1.9-1.2l0,0c-0.8-2.3-5.8-13-7.7-16.8c-2.5-5.1-5.1-9.9-7.2-13.6
		c-2.5-4.1-5.4-10-8.4-16.1c-4.3-9-9.3-19.2-12.5-22c-1.6-1.4-4.6-2.7-8.4-3.6c-5.9-1.3-14.5-1.5-19.1,2.2c-0.4,0.3-1,0.5-1.5,0.4
		c-0.5-0.1-1-0.3-1.3-0.7c-0.3-0.4-0.5-1-0.4-1.5c0.1-0.5,0.3-1,0.7-1.3c4.2-3.4,11.6-4.7,19.6-3.5l0.9,0.1l0.2-0.9
		c0.3-1.1,0.6-3.3-0.6-5.4c-0.5-1-1.8-2.4-3.6-4.4c-4.2-4.7-9.9-11.2-9.3-17.3c0.4-4.3,3.1-9.1,5.8-13.7c2.1-3.7,4.5-7.9,5.2-11.2
		c0.2-0.8,0.4-2.5-1.5-4.3c-3.3-3.3-10.7-5.1-16.6-4.1c-8.3,1.6-20.7,15.5-21.2,22.2c-0.5,7.1,7.9,18.2,8,18.3
		c0.3,0.3,0.4,0.9,0.4,1.5c-0.1,0.5-0.5,1-1,1.4c-1.2,0.9-27.7,17.5-38.7,20.2c-5.5,1.4-11.3,1.8-16.7,2.1c-5.4,0.3-11.1,0.7-16.8,2
		c-9.2,2.3-11.6,8-11.7,9.8l-0.1,1.4l1.4-0.4c4.9-1.5,10.7-1.9,16.7-2.2l0.2,0c1.9-0.1,3.8-0.2,5.8-0.4c9.6-0.7,20.3-4,25.8-5.9
		c0.1,0,0.2-0.1,0.3-0.1l0.1,0c1.2-0.4,2.3,0.1,2.7,1.2c0.2,0.4,0.2,0.9,0,1.4c-0.2,0.5-0.6,0.9-1.2,1.1l-0.2,0.1
		c-4.5,1.6-16.2,5.4-27,6.2c-2.1,0.2-4.1,0.3-6.1,0.4l-0.3,0c-7.9,0.4-14.2,0.7-18.7,3.3c-0.9,0.6-1.6,1.1-2.4,1.7
		c-2.6,2.4-2.5,6-1.7,8.6c0.9,2.6,3.1,5.5,6.7,6l0.7,0.1l0.3-0.7c3.9-8.7,18-9.7,33.3-10c11.7-0.3,24.5-7.4,26.4-8.6l0,0
		c1-0.5,2.2-0.3,2.7,0.6c0.5,1,0.3,2.2-0.7,2.8c-0.1,0.1-14.3,8.9-28.5,9.2l-0.2,0c-10.6,0.2-26.7,0.5-29.6,7.8
		c-0.2,0.4-0.3,0.9-0.4,1.3l-0.1,0.3c-0.4,2,0.1,4,1.4,5.8c2.3,3.1,6.6,4.8,11.8,4.6l0.9,0l0.1-0.9c0.1-0.8,0.3-1.7,0.6-2.5
		c1.7-5.7,8.5-6.7,15.6-7.8l0.1,0c2.6-0.3,6-0.9,9-1.7c9.4-2.6,26.1-10.6,26.3-10.7c0.5-0.2,1-0.3,1.6-0.1c0.5,0.2,0.9,0.5,1.1,1
		c0.5,1,0.1,2.2-0.9,2.7c-0.1,0-0.3,0.2-0.8,0.4c-14.5,6.7-22.2,9.5-26.1,10.6c-3,0.9-6.2,1.3-9.2,1.8l-0.7,0.1
		c-6,1-11.2,1.8-12.2,5c-0.4,1.7-0.5,2.8-0.4,3.8c0.1,0.9,0.5,1.5,0.7,1.8l0.1,0.1c1.5,2.1,5.4,3.2,11.5,3.3h0.3
		c9.9,0,24.4-5.9,36.1-10.7l0.5-0.2c3.2-1.3,6.5-2.6,9.6-3.8c5.9-2.2,9-4.4,11.8-6.4l0.3-0.2c3.2-2.4,6-4.4,11.6-4.8
		c3.4-0.2,6.3-0.3,8.6-0.3h3.7c2,0,3.4,0,4.3-0.1c0.5-0.1,1,0,1.4,0.4c0.4,0.3,0.7,0.8,0.8,1.4c0.1,0.5,0,1-0.4,1.4
		c-0.3,0.4-0.8,0.7-1.3,0.8l-0.1,0c-0.7,0.2-1.5,0.2-2.8,0.2h-2l1.3,1.6c0.7,1,1.3,1.8,1.8,2.8c1.3,2.5,5.5,14.3,11.4,30.9l0.9,2.5
		c3.1,8.7,5.8,16.3,6.9,18.9c2.9,6.9,12.8,19.3,17.4,19.3h0.1l0,0c5.6-0.3,14.6-6.7,17.5-12.4c0.4-0.7,0.9-1.6,1.5-2.6
		c0.6-1,1.2-2.1,1.8-3.3c1.6-2.9,3.6-6.4,5.3-9.5l1.9-3.3c1.4-2.6,3-5.4,3.6-6.5l0.2-0.4l-0.1-0.4
		C233.6,481.8,232.8,479.8,231.7,477.9z"/>
	<path fill="#FCD9CA" d="M592.1,238.4c1.4-6.4,0.8-14.6,0.2-21.9l-0.1-1.4c0-0.4-0.1-0.8-0.1-1.3c0-0.5-0.1-0.9-0.1-1.4l0-0.2
		c0-0.1,0-0.5-0.1-0.8c-0.3-4.2-0.4-7.3-0.1-9.4c1-6.8,0.3-11.6-2.2-14.7c-1.8-2.5-4.9-3.9-9.2-4.2c-7.6-0.6-12.4,0.3-14.5,2.7
		c-1.4,1.7-1.5,4.7-0.5,8.6c0.8,3.3,2,6.5,3.1,9.7c0.3,0.8,0.6,1.6,0.8,2.3l0.7,1.9c1.1,3,2.1,5.7,2.5,7.8c0.4,2,0.4,3.6,0,4.7
		c-0.4,1-1.6,1.5-2.6,1.1c-0.5-0.2-0.9-0.6-1.1-1.1l-0.4-1.1l-1,0.6c-3.3,2-10.3,6.2-15.8,7.9c-1,0.3-2.6,0.5-4.4,0.5
		c-10.7,0-28-7-31.8-18.3c-1.5-4.3-2.3-9.4-2.5-14.6l-0.1-3.2l-1.7,2.6c-4,6.2-5.1,14.4-2.6,19.7c3.6,7.8,14.2,18,16.7,19.4
		c0.4,0.2,0.7,0.7,0.8,1.2c0.1,0.5,0,1.1-0.2,1.5c-0.4,0.6-1,1-1.7,1c-0.4,0-0.7-0.1-1-0.3c-3.5-2.1-14.5-13-18.3-21.2
		c-1.3-2.9-1.9-6.3-1.7-9.8l0.2-4.4l-2.1,3.8c-2.4,4.4-5.2,11.3-4.3,18.8l0,0c0.4,3.2,1.7,6.2,3.7,8.8c5.7,8.4,16.3,13.6,18.4,14.5
		l0.1,0c0.5,0.2,0.9,0.6,1.1,1c0.2,0.5,0.2,1,0,1.5c-0.3,0.7-1.1,1.2-1.9,1.2c-0.3,0-0.6,0-0.8-0.1l-0.1-0.1c-1-0.3-9-4-15.4-10.3
		l-2.6-2.5l0.9,3.5c0.7,2.5,1.4,4.6,2.4,6.5c1.9,4,7.7,13.6,19.6,16.8c0.4,0.2,0.6,0.3,0.9,0.6l0.5,0.5l0.6-0.3
		c8.7-4.2,37.4-18,40.2-19.8l0.1-0.1c0.8-0.7,2-0.6,2.7,0.2c0.3,0.4,0.5,0.9,0.5,1.4c0,0.5-0.3,1-0.7,1.4
		c-1.7,1.5-33.2,16.6-43.5,21.6c-13.4,6.4-29.6,14.2-48.3,23l-1.5,0.7l1.3,1c7,5.2,9.7,12,13.1,25.3l0.3,1.4l3.2-2.1
		c3.1-2,7.7-5.1,15.2-10.1c6.1-4,13.1-8.7,20.2-13.4c4.8-3.2,9.6-6.4,14.2-9.4c9.9-6.6,20.6-13.8,24.6-16.9
		C576.4,263.5,589.5,250.1,592.1,238.4z"/>
	<path fill="#FCD9CA" d="M708.5,425l-0.1-0.7c-1.4-7.8-20.6-55.6-21.6-58.1c0-0.1,0-0.1-0.1-0.2v-1.1l-1.2,0.3
		c-2.5,0.5-5.3,1.4-8.3,2.4c-5.5,1.9-10.9,5.3-14.4,7.7l-1.5,1l1.7,0.7c5.9,2.4,13.8,6.7,17.5,13.1c1.1,1.9,2,4.2,2.7,7.1l0.3,1.4
		l2.1-1.4c0.9-0.6,2.1-0.4,2.8,0.5c0.7,0.9,0.4,2.3-0.2,3.4l-2.7,1.9h-0.9l0.2,1.2c0.9,6,1,11,1,11.1c0,0.6-0.2,1.1-0.5,1.5
		c-0.4,0.4-0.9,0.6-1.4,0.6c-1.2,0-2.1-0.8-2.1-1.9c0-2.9-0.5-8.4-1.3-13.3c-0.7-4.2-1.7-7.4-2.9-9.4c-3-5.1-10.3-9.8-20.3-13.2
		c-0.5-0.2-0.9-0.3-1.4-0.4c-0.4-0.1-0.9-0.2-1.3-0.4c-3.1-0.9-5.9-1.3-8.4-1.6c-4.6-0.6-8.6-1.1-10.4-5.5
		c-2.3-5.8,3.3-41.2,5.8-48.1c1.3-3.6,1.3-6.8-0.1-8.8c-1.8-2.6-5.7-3.1-8.7-3.1c-5.5,0-11.2,2.7-15.3,7.2
		c-4.7,5.2-6.9,12.2-6.1,19.8c1,10.6,3.3,15.6,5.1,19.7l0.1,0.3c1.2,2.8,2.2,5.4,2.7,9c0.6,4,0.2,8.5-0.9,12.9l-0.5,1.9l1.8-0.7
		c3.3-1.2,7.5-2.5,11.4-3.6c1.1-0.3,2.2,0.4,2.5,1.4c0.3,1.1-0.3,2.2-1.4,2.5c-6.2,1.7-13.9,4.2-16.1,5.6l-0.3,0.2l-0.1,0.4
		c-0.9,4.4-0.1,24.1,1.4,34.6c0.4,3.1,0.8,5,1.3,5.9c1.7,3.6,3.2,3.4,6.8,2.8l0.3-0.1c0.2,0,0.3-0.1,0.5-0.1c0.2,0,0.5-0.1,0.7-0.1
		c1.6-0.3,2.7-0.7,3.3-1.1l2.7,1.6l-0.4-2.2c-1.8-10-3.9-27.9-3-32.3c0.8-3.9,7.6-8.8,18.5-13.6c1-0.4,2.2,0.1,2.6,1
		c0.4,1-0.1,2.2-1.1,2.6c-6.3,2.7-15.5,7.9-16.2,10.7c-1,4.7,2.6,30.8,3.9,34.6c0.6,1.7,1.8,3.1,3.5,4.2c1.5,0.9,3.3,1.4,5.8,1.6
		c0.9,0,1.7-0.3,2.2-0.8l0.2-0.2c0.2-0.4,0.8-1.1,1.1-2.4c0.2-0.9,0.3-2,0.3-3.4v-3.8c-0.2-11.5-0.3-21.2-0.1-22.7
		c0.1-0.9,0.3-2.3,7.4-7.7c3.2-2.5,6.7-4.9,7.5-5c0.5-0.1,1,0,1.4,0.2c0.5,0.3,0.8,0.8,0.9,1.3c0.2,1-0.4,1.8-1.2,2.2
		c-1.9,1.1-10.1,7-11.9,9.1l-0.2,0.3l0,0.3c-0.1,3,0.1,17,0.2,21.7v3.8c0,0.3,0,0.6,0,0.8c0,0.3,0,0.6,0,0.9v0.4l0.3,0.3
		c0.1,0.1,0.3,0.4,0.4,0.6c1.6,3.2,6,2.7,7.3,2.5c2.7-0.6,5.1-2,6-3.4c0.2-0.3,0.5-0.7,0.5-1.2c0.3-4.3-0.3-13.1-0.7-17.9l0-0.4
		c-0.1-0.6,0.2-1,0.4-1.3c0.3-0.4,0.9-0.7,1.5-0.8c0.6-0.1,1,0.2,1.3,0.4c0.4,0.3,0.7,0.8,0.8,1.4c0,0.2,0,0.7,0.1,1.4
		c0.3,3.3,0.9,12.2,0.6,17l-0.1,0.9l0.9,0.1c10,1.5,29.9,4.3,33.7,3.7c1-0.2,1.4-0.6,1.7-0.9l0.1-0.1
		C710,433.9,709.3,429.6,708.5,425z"/>
	<path fill="#FCD9CA" d="M579.8,295.5l0.6-1.4h-2c-1.1,0-2-0.9-2-2s0.9-2,2-2c0,0,0.2,0,0.5,0c0.6,0,2-0.1,3.9-0.2
		c10.8-0.7,19.8-2.5,26-5.2c4.7-2.1,10.7-7.3,16.5-14.5c8.6-10.5,15.1-23,16.1-31c0.5-3.2,0.3-6.7-0.4-11.2
		c-1.8-10.5-6.6-20.3-7.6-22.1l0,0c-0.5-1-0.1-2.2,0.9-2.7c0.4-0.3,1-0.3,1.4-0.2c0.5,0.1,0.9,0.5,1.2,1c0,0.1,4.8,9.1,7.3,20.1
		l0.2,0.8l0.9-0.1c14.3-1.1,31.8-12.3,36.1-23c2.5-6.6,1.1-16.5-3.4-23.6c-2.9-4.4-6.3-6.9-10.2-7.6l-0.2,0c-0.2,0-0.3,0-0.5,0
		c-0.2,0-0.5-0.1-0.7-0.1c-10.9-0.6-18.1,9.3-20.1,12.6l-0.1,0.2c-0.3,0.5-0.7,0.8-1.2,1c-0.5,0.2-1.1,0.1-1.5-0.1
		c-0.6-0.4-1-0.9-1-1.5l0-0.3l-0.2-0.2c-0.2-0.2-0.4-0.3-0.6-0.3c0,0-0.1,0-0.2-0.1c-2-0.8-5.6-2.5-6.9-3.8
		c-1.9-1.9-3.5-8.5-3.2-13.2c0.2-3,2.2-6.8,4.7-11.8l0.5-1c1.6-3,3.6-6.8,5.1-10.6c3.8-8.8,7.5-25.4,6.9-34.5
		c-0.5-7.6-4.5-22.1-16-28.9c-9-5.3-35.2-11.2-51.8-10.2c-13.6,0.8-40.7,8.2-47.6,13c-6.9,4.7-14.3,17-14.4,28.6
		c0,3.2,0,6.4,0.1,9.5c0,1,0.1,1.9,0.1,2.9c0,1,0.1,2,0.1,2.9l0.2,3.8l1.7-3.4c0.6-1.2,1.3-2.5,2.3-4.2c7-10.8,11.6-17.5,18.5-19.9
		l0.2-0.1l0.2-0.2c5.5-5.5,16.7-5.4,22.2-1.7c0.2,0.1,0.4,0.4,0.4,0.7c0.1,0.3,0,0.5-0.1,0.8c-0.2,0.3-0.4,0.4-0.6,0.4
		c-0.3,0.1-0.6,0-0.8-0.1c-2.5-1.7-6.2-2.5-10.2-2.3l-7.9,0.4l7.8,1.5c11.2,2.2,15.8,15.4,16.4,27l0.2,3.4l1.7-3
		c5.9-10.3,17.4-15,26.3-15.9l5.4-0.6l-5.2-1.4c-3.5-0.9-6.4-1.1-8.3-1.1c-0.6,0-1-0.4-1-1s0.4-1,1-1c4.9,0,12.8,1.5,19.2,5.5
		c4.4,2.7,7.2,6.4,8.3,10.5c2.7,10.8,2.2,27.1-5.6,37.5c-4.6,6.1-12.2,7.4-17.7,7.4c-5.9,0-12.2-1.4-17.9-3.9
		c-5.3-2.4-8.3-6-9.2-11.2l-0.3-1.6l-1.3,1c-3.5,2.6-10.1,5.3-18.5,8.6c-1.3,0.5-2.7,1.1-4,1.6c-0.8,0.3-1.5,0.6-2.3,0.9
		c-7,2.9-14.6,6.2-17.6,9.3c-3.2,3.4-5.3,9.4-5.9,16.8c-0.5,7,0.3,14.5,2.2,20.4c3.7,11.4,24.8,17.2,31.2,15.1
		c5.9-1.9,13.9-6.9,17.1-9l0.6-0.4l-0.6-1.8c-0.6-1.8-1.3-3.9-2-5.6l-0.1-0.3c-1.4-3.7-2.9-7.8-3.9-12c-1.4-5.5-1-9.5,1.3-12.2
		c3-3.5,8.6-4.8,17.8-4.1c5.4,0.5,9.5,2.4,12.1,5.6c4.6,5.8,3.5,14.3,3,17.5l0,3.7l1.8-2.3c6.3-8.2,7.2-9.3,7.3-9.4
		c0.3-0.4,0.8-0.6,1.3-0.6c0.5,0,1.1,0.2,1.5,0.6c0.7,0.7,0.8,1.9,0.1,2.7c-0.4,0.4-2,2.6-4.8,6.3c-2.1,2.8-4.6,6-6.6,8.7l-0.3,0.3
		l0.1,0.4c0,0.3,0.1,0.6,0.1,0.9c0,0.3,0.1,0.7,0.1,1c0.6,7.1,1.4,16.8-0.2,24.4c-2.8,12.9-16.6,27.1-27.6,35.4
		c-3.2,2.4-10.6,7.6-22.1,15.3l-0.6,0.4l0.2,0.7c0,0.1,0,0.2,0,0.3l0,0.2c-0.3,2.2-1.4,13.3,6.8,18.5c2.5,1.6,5.2,2.4,7.9,2.4
		c1.5,0,3.1-0.3,4.6-0.8C570.8,309.8,575.9,304.2,579.8,295.5z M606.3,84.6c0.2-0.1,0.5,0,0.7,0.1c0.2,0.1,0.4,0.4,0.5,0.6
		c0,0.1,3,11.5,9.2,13.9c0.3,0.1,0.5,0.3,0.6,0.5c0.1,0.2,0.1,0.5,0,0.7l0,0c-0.1,0.3-0.4,0.6-0.7,0.6l-0.1,0c-0.1,0-0.2,0-0.3,0
		l-0.1,0c-7.3-2.7-10.4-15-10.5-15.3C605.4,85.3,605.8,84.7,606.3,84.6z M653,205.4c0.1,0.5,0,1-0.4,1.4c-0.3,0.4-0.8,0.7-1.2,0.8
		H651c-1.1,0-1.9-0.7-2-1.7c-0.6-4,1.4-9,5.2-13.1c3.1-3.3,6.8-5.1,10.3-5.1c0.3,0,0.6,0,0.9,0c0.6,0.1,1.1,0.3,1.4,0.7
		c0.3,0.4,0.5,0.9,0.4,1.5v0c-0.1,1.1-1.1,1.9-2.2,1.8c-2.3-0.2-5.4,1.3-7.9,3.9C654.3,198.6,652.6,202.6,653,205.4z M539.3,91.7
		c-0.2,0.4-0.5,0.6-0.9,0.6c-0.1,0-0.3,0-0.4,0c-0.2-0.1-0.4-0.3-0.5-0.5c-0.1-0.3-0.1-0.5,0-0.8c1.5-3.6,9.1-7.9,15.7-10.7
		c0.1,0,0.2-0.1,0.3-0.1c0.4,0,0.8,0.2,1,0.6c0.2,0.5-0.1,1.1-0.5,1.3l0,0C550.3,83.7,540.6,88.3,539.3,91.7z"/>
	<path fill="#FCD9CA" d="M611.2,406.5L611.2,406.5c-0.3-4.5-0.3-8.6-0.2-12.1l0.1-1.8l-1.6,0.9c-2,1.2-4.4,1.8-6.9,1.7
		c-3.8-0.2-7.2-1.9-9.2-4.8c-1-1.4-1.8-3.1-2.5-4.7l-0.2-0.4c-2.1-4.8-3.8-8.6-10.4-7.7c-11.3,1.6-15.9,6-15.9,15.2
		c0,10.8,10.1,20.5,14.2,22.1c2.5,1,6.6,0.9,11,0.8c3.7-0.1,8.2-0.2,12.4,0.5c3.1,0.5,5.9,1.3,8.6,2.6l1.6,0.8l-0.2-1.8
		C611.6,413,611.3,408.4,611.2,406.5z"/>
	<path fill="#FCD9CA" d="M484.6,374.4c-2.3-0.5-4.4-1.4-6.2-2.1l-0.9-0.4l-2.3,4.7c-2.9,6-7.5,15.3-11.4,23.4
		c-3.1,6.4-9.4,15.6-18.8,27.3l-0.5,0.6l0.4,0.6c2.3,3.3,8.7,11.2,17.4,14.3c3.9,1.4,8.1,2.1,12.4,2.1c1.1,0,2.3,0,3.4-0.1l0.7-0.1
		l14.5-48.4c1.5-7,2.9-13.3,4-19l0.2-1.1l-1.2,0C492.6,375.8,488.7,375.3,484.6,374.4z"/>
	<path fill="#FCD9CA" d="M499.6,201.3l1.6-2.1c1.5-2,2.7-3.3,3.1-3.7l5.2-4.9c0.1-0.1,0.1-0.1,0.1-0.1l0.2-0.1l0.1-0.1
		c0.8-0.9,1.7-1.7,2.8-2.6l0.3-0.3l0-0.4c0.9-7.7,3.2-13.7,6.7-17.4c2.1-2.3,5.9-4.6,12.3-7.5l2.5-1.1l-2.6-0.7
		c-2.5-0.7-6.8-2.3-8.4-5.5c-0.2-0.5-0.4-1-0.8-1.7l-0.2-0.2c0.2,0.2,0.2,0.4,0.2,0.5l-2-0.2c-0.2,1-0.5,2.1-1,3.3
		c-3,6.5-9.8,17.2-16.9,26.7c-3.8,5.2-3.8,11.9-3.5,15.5L499.6,201.3z"/>
</g>
<path fill="none" stroke="#000000" stroke-width="4" stroke-linecap="round" stroke-linejoin="round" stroke-miterlimit="10" d="
	M243.3,256.6c0,0,1.5-4.5,8.6-6.1s13,1.9,13,1.9"/>
<path fill="none" stroke="#000000" stroke-width="4" stroke-linecap="round" stroke-linejoin="round" stroke-miterlimit="10" d="
	M251,217.1c0,0-0.5-2.2,4.3-3.9s6.7,0.3,6.7,0.3"/>
<path fill="none" stroke="#000000" stroke-width="4" stroke-linecap="round" stroke-linejoin="round" stroke-miterlimit="10" d="
	M303.1,211.9c0,0,7.1-2,13.1,2.4"/>
<path fill="none" stroke="#000000" stroke-width="4" stroke-linecap="round" stroke-linejoin="round" stroke-miterlimit="10" d="
	M293.1,254.4c0.3,0,8.3-2.7,19.2-1.4c11,1.3,13.4,5.9,13.4,5.9"/>
<path fill="none" stroke="#000000" stroke-width="6" stroke-linecap="round" stroke-linejoin="round" stroke-miterlimit="10" d="
	M262,265c0,0-29,9.1-38.9,22.5S222.2,324,234,331s31.9,12.9,44,5.6s21.2-34.1,21.2-34.1"/>
<path fill="none" stroke="#000000" stroke-width="6" stroke-linecap="round" stroke-linejoin="round" stroke-miterlimit="10" d="
	M235.2,274.5c0,0,4.2-10,0.9-18c-3.3-7.9-8.4-12.9-8.4-22.8c0-9.9,2.5-24.9,4.6-28.8s16.6-17.9,25.3-23.5s18.4-6.3,18.4-6.3
	s3.3-6.7,7.4-11.1s10.1-5.3,10.1-5.3l-4.8,17.8c0,0,28,2.1,46.1,10.4c18.1,8.3,28.7,39.4,26.4,51.7s-0.1,17.7,0.6,18.8
	s6.1,3.2,6.1,3.2s6.1-12,17.5-12.1s20.8,10.7,20.3,28c-0.5,17.2-8.3,31.8-18.3,35s-16.3-2.9-16.3-2.9"/>
<path fill="none" stroke="#000000" stroke-width="6" stroke-linecap="round" stroke-linejoin="round" stroke-miterlimit="10" d="
	M376.5,312.1c0,0-3.8,27.6-8.3,41.5s-17,25.1-25.5,30.3s-14.4,7.9-14.4,7.9"/>
<path fill="none" stroke="#000000" stroke-width="6" stroke-linecap="round" stroke-linejoin="round" stroke-miterlimit="10" d="
	M242,337.7c0,0,4.3,26.7,23.3,40.9s24.5,19.7,24.5,19.7"/>
<path fill="none" stroke="#000000" stroke-width="4" stroke-linecap="round" stroke-linejoin="round" stroke-miterlimit="10" d="
	M269.9,347.9c0,0,28.9-2.1,35.5-0.8s14,10,12.1,16.4c-2,6.4-6.8,9.7-13.4,4.8c-6.6-4.9-12.3-7-17.6-7s-9,1-9,1"/>
<path fill="none" stroke="#000000" stroke-width="4" stroke-linecap="round" stroke-linejoin="round" stroke-miterlimit="10" d="
	M283,348.4c0,0,4.9,6.5,4.5,12.6"/>
<path fill="none" stroke="#000000" stroke-width="4" stroke-linecap="round" stroke-linejoin="round" stroke-miterlimit="10" d="
	M291.1,373.8c0,0-2.7,3.8,6.8,7.1"/>
<path fill="none" stroke="#000000" stroke-width="6" stroke-linecap="round" stroke-linejoin="round" stroke-miterlimit="10" d="
	M233.7,277c0,0-15.8-5.8-13.4-13.8c2.4-8,4.9-14.6-0.5-21.5c-5.4-7-10.2-13.6-7.1-18.1s6.9-9,6.6-14.3c-0.3-5.3-4.9-19.6,2.7-23.4
	s8.8-3.8,9.6-7.7s5.7-18.9,13.6-19.7s5.4,3.2,9.9,0s12.9-15.1,23.1-15.2s12.9,9.2,16.9,9s8.6-7.4,16.9-8.3
	c8.3-0.9,11.7,9.1,15.7,8.9s20-2.4,26.7,0.9c6.7,3.3,6.5,10.5,10,12.3s14.2-0.7,17.9,5.8s4,14.2,3.7,17.4s12.6,13.7,11.1,28.5
	s-9.3,30.3-9.3,30.3"/>
<path fill="none" stroke="#000000" stroke-width="6" stroke-linecap="round" stroke-linejoin="round" stroke-miterlimit="10" d="
	M388,274.6c0,0-12.9,9.8-12,18.8"/>
<path fill="none" stroke="#000000" stroke-width="6" stroke-linecap="round" stroke-linejoin="round" stroke-miterlimit="10" d="
	M280.8,391.5c0,0,1.7,12.3,4.3,17.4s11.4,8.2,13.4,10.7c2,2.6,3.7,14.1,4.3,15c0.5,0.9,5.1-13.8,7.8-17.9s10.7-4.3,18.4-10.7
	s10.4-18.6,10.4-18.6"/>
<path fill="none" stroke="#000000" stroke-width="6" stroke-linecap="round" stroke-linejoin="round" stroke-miterlimit="10" d="
	M357.6,373.1c0,0-4.4,29.3-7.3,40.5s-8.5,20.8-13.6,20.3S319.5,422,319.5,422"/>
<path fill="none" stroke="#000000" stroke-width="6" stroke-linecap="round" stroke-linejoin="round" stroke-miterlimit="10" d="
	M272.7,385.7c0,0-6.1,13.2-5.8,22.5s4.7,27.8,5.7,27.1s10.9-11.7,10.9-11.7"/>
<path fill="none" stroke="#000000" stroke-width="6" stroke-linecap="round" stroke-linejoin="round" stroke-miterlimit="10" d="
	M253.9,415.4c0,0,7.1,47.7,4.6,74.8c-2.5,27.1-9.2,66.6-9.2,66.6s23,23,70.5,26.6s75.8-10.2,84-14s11.5-10,11.5-10
	s-10.5-64.6-13.3-96s0.3-66.1,0.3-66.1s53.4-30.5,65.6-34.6s13.9-6.3,14.2-6.8s8.6-16,4.6-31.4s-6.4-23.5-17.5-29s-16.6-4.1-19.8-2
	c-3.2,2-32.4,25.1-49.3,36.6c-16.9,11.5-29.4,17.2-29.4,17.2"/>
<path fill="none" stroke="#000000" stroke-width="6" stroke-linecap="round" stroke-linejoin="round" stroke-miterlimit="10" d="
	M270.8,385.8c0,0-14.8-11.4-19.8-8.6s-12.5,16.6-17.9,28.3s-21.4,46.3-23.5,50.7c-2,4.3-2,4.3-2,4.3s18.8,0.4,26,16.2
	c7.3,15.8,3.7,31.1,2.7,32s-8.7-2.9-8.7-2.9"/>
<line fill="none" stroke="#000000" stroke-width="6" stroke-linecap="round" stroke-linejoin="round" stroke-miterlimit="10" x1="236.3" y1="508.8" x2="258.3" y2="473"/>
<line fill="none" stroke="#000000" stroke-width="6" stroke-linecap="round" stroke-linejoin="round" stroke-miterlimit="10" x1="208.2" y1="461.9" x2="202.5" y2="468"/>
<path fill="none" stroke="#000000" stroke-width="6" stroke-linecap="round" stroke-linejoin="round" stroke-miterlimit="10" d="
	M236.1,484.8c-0.1,0.4-11.1,19.5-14.4,25.8c-3.3,6.3-13,13.1-19.1,13.5s-16.7-13.8-19.5-20.6s-16.9-47.7-19.1-52.1
	c-2.3-4.3-4.9-6.1-4.9-6.1"/>
<path fill="none" stroke="#000000" stroke-width="6" stroke-linecap="round" stroke-linejoin="round" stroke-miterlimit="10" d="
	M209,485.4c0,0-8.7-20.2-15.1-30.6s-15.6-33.7-21.3-38.7s-22.6-7.5-30.1-1.5"/>
<path fill="none" stroke="#000000" stroke-width="6" stroke-linecap="round" stroke-linejoin="round" stroke-miterlimit="10" d="
	M163.5,410.5c0,0,1.9-4.1-0.4-8.1s-13.3-13.1-12.6-20.5s9.4-17,11-24.8s-11.5-12.4-20.4-10.7s-22.2,16.1-22.9,24s8.4,19.7,8.4,19.7
	s-27.3,17.3-38.1,20c-10.9,2.7-22.1,1.3-33.4,4.1c-11.4,2.8-14.2,11-12.9,13.4"/>
<path fill="none" stroke="#000000" stroke-width="6" stroke-linecap="round" stroke-linejoin="round" stroke-miterlimit="10" d="
	M94.6,420.4c0,0-14.2,5.2-26.7,6.1s-22.6,0.4-28.6,6s-1.9,17.2,6.5,18"/>
<path fill="none" stroke="#000000" stroke-width="6" stroke-linecap="round" stroke-linejoin="round" stroke-miterlimit="10" d="
	M107.5,431c0,0-13.9,8.7-27.4,8.9s-28.5,1-31.7,9.2s4.9,15.6,15.7,14.6"/>
<path fill="none" stroke="#000000" stroke-width="6" stroke-linecap="round" stroke-linejoin="round" stroke-miterlimit="10" d="
	M116.4,439.9c0,0-17,8.1-26.6,10.8s-21.4,1.7-23.4,8.2s0.3,11.5,13.6,11.7c13.3,0.2,33.7-9.7,47.2-14.8s13.9-10.7,23.1-11.3
	c9.3-0.6,14.5-0.1,16.8-0.4"/>
<line fill="none" stroke="#000000" stroke-width="6" stroke-linecap="round" stroke-linejoin="round" stroke-miterlimit="10" x1="259.2" y1="566.5" x2="262.6" y2="628.1"/>
<polyline fill="none" stroke="#000000" stroke-width="6" stroke-linecap="round" stroke-linejoin="round" stroke-miterlimit="10" points="
	311,607.6 336.3,609.5 337.9,626.5 "/>
<line fill="none" stroke="#000000" stroke-width="6" stroke-linecap="round" stroke-linejoin="round" stroke-miterlimit="10" x1="405.8" y1="570.3" x2="411.3" y2="631.7"/>
<path fill="none" stroke="#000000" stroke-width="3" stroke-linecap="round" stroke-linejoin="round" stroke-miterlimit="10" d="
	M326,584.8c0,0,2.5,20.5,2.9,23"/>
<path fill="none" stroke="#000000" stroke-width="3" stroke-linecap="round" stroke-linejoin="round" stroke-miterlimit="10" d="
	M307,582.4c0,0,0.6,6.6,4.8,13.2c4.2,6.6,9.4,12.9,9.4,12.9"/>
<path fill="none" stroke="#000000" stroke-width="6" stroke-linecap="round" stroke-linejoin="round" stroke-miterlimit="10" d="
	M469.2,295.5c0,0,94.2-44.6,96.4-46.7"/>
<path fill="none" stroke="#000000" stroke-width="6" stroke-linecap="round" stroke-linejoin="round" stroke-miterlimit="10" d="
	M488,326.1c0.5-0.7,67.2-44.1,79.1-53.1s24.3-22.5,26.9-34.2c2.6-11.7-1.3-29.3-0.3-36.3s1.7-20-13.3-21.2
	c-14.9-1.1-19.9,3.1-17.1,13.8c2.8,10.7,8.6,21.6,7.1,25.3"/>
<path fill="none" stroke="#000000" stroke-width="6" stroke-linecap="round" stroke-linejoin="round" stroke-miterlimit="10" d="
	M569.4,216.8c0,0-10.9,7.4-18.5,9.8s-29.6-4-33.7-16.5c-4.1-12.5-3.4-31.1,4.1-39.2s40-16.2,44.2-22.2"/>
<path fill="none" stroke="#000000" stroke-width="6" stroke-linecap="round" stroke-linejoin="round" stroke-miterlimit="10" d="
	M514.5,188.8c-8.4,6.3-11.7,19.3-7.9,27.3s14.7,18.6,17.5,20.3"/>
<path fill="none" stroke="#000000" stroke-width="6" stroke-linecap="round" stroke-linejoin="round" stroke-miterlimit="10" d="
	M517.9,250.6c0,0-21.2-9.1-23.1-24.9c-1.9-15.8,10.9-28.7,10.9-28.7l5.1-4.8"/>
<path fill="none" stroke="#000000" stroke-width="6" stroke-linecap="round" stroke-linejoin="round" stroke-miterlimit="10" d="
	M498.1,235.5c-2.9,7,4.9,27.8,23.4,32.8"/>
<path fill="none" stroke="#000000" stroke-width="6" stroke-linecap="round" stroke-linejoin="round" stroke-miterlimit="10" d="
	M606.2,195.8c-0.4,0.4-12.3,16.1-12.3,16.1"/>
<path fill="none" stroke="#000000" stroke-width="4" stroke-linecap="round" stroke-linejoin="round" stroke-miterlimit="10" d="
	M538.9,160.5c0,0-11.9-0.9-14.4-6.3c-2.6-5.4-10.2-17.4-0.3-32.8c10-15.4,14.7-21.7,27.3-20.2s17,17.4,17,28.3
	c0,11-0.4,15.8-4.7,20.3"/>
<path fill="none" stroke="#000000" stroke-width="4" stroke-linecap="round" stroke-linejoin="round" stroke-miterlimit="10" d="
	M589.7,107.6c5.4,0,12.9,1.7,18.6,5.4c3.8,2.4,6.7,5.7,7.8,9.9c2.7,10.6,2,26.7-5.5,36.6s-24,7.8-34.5,3.2s-10.7-14-6.3-29
	s20.4-20.9,31.4-21.4c0,0,5.5,1.3,9.4,2.8"/>
<path fill="none" stroke="#000000" stroke-width="4" stroke-linecap="round" stroke-linejoin="round" stroke-miterlimit="10" d="
	M563.9,99.9c-5.5-3.6-16.3-3.5-21.4,1.9"/>
<path fill="none" stroke="#000000" stroke-width="4" stroke-linecap="round" stroke-linejoin="round" stroke-miterlimit="10" d="
	M543,140c-2.5,0-3.4,5.4,0.2,4.9c3.6-0.5,0.8-4.1,0.8-4.1"/>
<path fill="none" stroke="#000000" stroke-width="4" stroke-linecap="round" stroke-linejoin="round" stroke-miterlimit="10" d="
	M585.5,148.9c-2.3,0-2.6,4.4,0.3,3.8s0.3-3.4,0.3-3.4"/>
<path fill="none" stroke="#000000" stroke-width="4" stroke-linecap="round" stroke-linejoin="round" stroke-miterlimit="10" d="
	M553.5,81.3c0,0-13.4,5.5-15.2,10.1"/>
<path fill="none" stroke="#000000" stroke-width="4" stroke-linecap="round" stroke-linejoin="round" stroke-miterlimit="10" d="
	M606.5,85.5c0,0,3.1,12,9.8,14.6"/>
<path fill="none" stroke="#000000" stroke-width="6" stroke-linecap="round" stroke-linejoin="round" stroke-miterlimit="10" d="
	M498.4,204.8c0,0-4-13.4,2.9-22.7s13.7-19.8,16.7-26.4s-0.3-15.3-0.3-18.3s-0.9-15.8-0.9-28.2s8-25.2,15.3-30.2s34.7-12.5,48.6-13.4
	c13.9-0.9,41.3,3.7,52.9,10.5s16.3,21.2,17,30.5s-3.1,26-7,35.4s-9.9,18.2-10.1,22.7s1.4,10.4,2.6,11.7c1.3,1.3,6.2,3.4,6.2,3.4"/>
<path fill="none" stroke="#000000" stroke-width="6" stroke-linecap="round" stroke-linejoin="round" stroke-miterlimit="10" d="
	M644.6,182.3c0,0,8.1-14.5,22.1-13.7s21.3,22.4,16.6,34.1s-23.6,23.2-37.9,24.3"/>
<path fill="none" stroke="#000000" stroke-width="6" stroke-linecap="round" stroke-linejoin="round" stroke-miterlimit="10" d="
	M665.3,189.8c-7-0.8-15.3,9-14.3,15.8"/>
<path fill="none" stroke="#000000" stroke-width="6" stroke-linecap="round" stroke-linejoin="round" stroke-miterlimit="10" d="
	M668.4,167.8c0.3-0.1,2.8-4.7,3.1-11.1s-3.2-10.3-0.6-13.9s5.5-10.6,4.8-14.3c-0.8-3.7-3.6-12.2-1.2-16.7s2.1-12.2-1.2-17.6
	s-8-5.7-8-6.3s4.9-6.6,0-11.4s-14.2-7.1-14.2-7.1s-1.7-8.9-4.3-11.5s-10.4-1.1-15.3-1.5c-4.9-0.4-4.9-7.8-12.7-7.5
	S605.4,52,605.4,52s-2.6-7.5-8-6.5s-12.2,4.9-12.2,4.9s-3.8-7.7-13.4-4.3c-9.6,3.4-15.1,10.7-15.4,11c-0.3,0.3-3.6-7.4-11.1-3.7
	s-10.9,13.8-10.9,13.8s-4.1-3-9.9,0.6s-7.4,14.4-7.4,14.4s-6.6,3.3-8.3,10.3s5.4,23.1,7.8,26.3"/>
<path fill="none" stroke="#000000" stroke-width="6" stroke-linecap="round" stroke-linejoin="round" stroke-miterlimit="10" d="
	M635.2,204.9c0,0,10.2,19.4,8.2,34.6s-21.1,41.6-33.8,47.1s-31.1,5.5-31.1,5.5"/>
<path fill="none" stroke="#000000" stroke-width="6" stroke-linecap="round" stroke-linejoin="round" stroke-miterlimit="10" d="
	M543.7,291.1c0,0-2.7,14.2,7.7,20.7c10.3,6.5,23.9,1.5,31.4-18.3"/>
<path fill="none" stroke="#000000" stroke-width="6" stroke-linecap="round" stroke-linejoin="round" stroke-miterlimit="10" d="
	M470.4,363.7c0,0,6,6.8,14.6,8.7c8.7,1.9,13.9,1.5,13.9,1.5"/>
<path fill="none" stroke="#000000" stroke-width="6" stroke-linecap="round" stroke-linejoin="round" stroke-miterlimit="10" d="
	M502.1,333.1c0,0-3.6,11.1-1.5,21.4s-1.4,25.2-5.3,42.4l-14.6,48.9c0,0,33.4,23.7,76.9,27.6s85.8-7.1,85.8-7.1l-4.1-28.1"/>
<path fill="none" stroke="#000000" stroke-width="6" stroke-linecap="round" stroke-linejoin="round" stroke-miterlimit="10" d="
	M437.4,433.4c0,0,18.4-21.2,24.8-34.3c6.4-13.1,14.4-29.5,14.4-29.5"/>
<path fill="none" stroke="#000000" stroke-width="6" stroke-linecap="round" stroke-linejoin="round" stroke-miterlimit="10" d="
	M683.4,414.8c0,0-0.3-16.3-4.6-23.7s-15-12.3-24.2-15s-15.5-0.9-17.5-6s3.2-39.7,5.8-46.6c2.6-7,1.4-14.6-10.7-14.6
	s-25.2,11.6-23.3,29.3s7,20.6,8,28.9s-1.5,17.2-5.6,22.1s-12.6,5.1-16.3-0.2s-4.1-15.1-15-13.6s-17.5,5.8-17.5,17.2s10.2,22,15.5,24
	s15.3,0,23.8,1.4s11.4,4.8,11.4,4.8"/>
<path fill="none" stroke="#000000" stroke-width="6" stroke-linecap="round" stroke-linejoin="round" stroke-miterlimit="10" d="
	M631.2,379.4c0,0-15.7,4.3-17.5,6.6s-0.2,37.4,2.5,43s6,4.3,10.5,3.7s5.7-2.7,5.7-2.7"/>
<path fill="none" stroke="#000000" stroke-width="6" stroke-linecap="round" stroke-linejoin="round" stroke-miterlimit="10" d="
	M648.3,384.9c0,0-16.3,7-17.4,12.2c-1.1,5.2,2.5,31.7,4,35.7s5.3,6.9,11.1,7.1c5.9,0.2,5.9-7.2,5.9-8.9s-0.4-24-0.2-26.3
	s12.9-10.8,13.3-10.9"/>
<path fill="none" stroke="#000000" stroke-width="6" stroke-linecap="round" stroke-linejoin="round" stroke-miterlimit="10" d="
	M669.7,413.6c0,0,1.1,12.9,0.7,18.6c-0.4,5.7-14,10-17.5,2.7"/>
<line fill="none" stroke="#000000" stroke-width="6" stroke-linecap="round" stroke-linejoin="round" stroke-miterlimit="10" x1="683.7" y1="401" x2="686.8" y2="398.8"/>
<path fill="none" stroke="#000000" stroke-width="6" stroke-linecap="round" stroke-linejoin="round" stroke-miterlimit="10" d="
	M688.7,365.3c0,0,20.3,50.2,21.8,58.6c1.5,8.3,2,14-3.3,14.8s-36.1-4-36.1-4"/>
<path fill="none" stroke="#000000" stroke-width="6" stroke-linecap="round" stroke-linejoin="round" stroke-miterlimit="10" d="
	M657.9,376.5c0,0,9.1-7.4,18.7-10.8c9.6-3.4,16.1-3.8,16.1-3.8s-9.6-19.9-16.5-27.9s-24-39.3-27.8-48.6s-12.7-14.3-20.6-13"/>
<path fill="none" stroke="#000000" stroke-width="6" stroke-linecap="round" stroke-linejoin="round" stroke-miterlimit="10" d="
	M496.2,456c0,0,24,89.1,26,95.2"/>
<path fill="none" stroke="#000000" stroke-width="6" stroke-linecap="round" stroke-linejoin="round" stroke-miterlimit="10" d="
	M546.5,512.2l19.6,1.5c0,0,11.2,42.7,14.8,46.8"/>
<path fill="none" stroke="#000000" stroke-width="6" stroke-linecap="round" stroke-linejoin="round" stroke-miterlimit="10" d="
	M639.1,468.6c0,0,9.4,65,16.9,71.1"/>
<path fill="none" stroke="#000000" stroke-width="3" stroke-linecap="round" stroke-linejoin="round" stroke-miterlimit="10" d="
	M555.8,473.9c0,0,0.1,10.6,1.7,20c1.5,9.4,5,18.9,5,18.9"/>
<path fill="none" stroke="#000000" stroke-width="3" stroke-linecap="round" stroke-linejoin="round" stroke-miterlimit="10" d="
	M541.4,472c0,0-0.5,10,3.3,19.5c3.8,9.6,12.6,20.4,12.6,20.4"/>
<path fill="none" stroke="#000000" stroke-width="18" stroke-linecap="round" stroke-linejoin="round" stroke-miterlimit="10" stroke-opacity="0" d="
	M226.3,271.4c1.5-0.7,1.4-8.3,1.4-8.3s-3.4-4.2-6.9-12.2c-3.5-8-1.4-31.9-1.4-31.9s4.7-27.2,5.2-27.2s4,0.2,5,0c1.1-0.2,6.1-4,6.1-4
	l1.7-17.5l6.5,10.1l4.1-4.8c0,0-3.5-10.6-3.4-12.4s5-4.7,5-4.7s7.2,11,7.7,11s9.3-2.4,9.3-2.4s-2.9-8.6-3.3-10.4s3.3-10,3.3-10
	l5.8,14.3l8.7-6l-2-8.9l7.1-0.4l6.1,5.5l18.5-5.5L298,167.1l9.9,1.1c0,0,7.5-16.8,8.5-17s11-0.2,11-0.2l-9.5,21.2l6.3,0.6l9.5-20.7
	l10.7-0.3L333.9,178l4.7,1.7c0,0,13.2-24.1,14.3-23.5s9.9,5.2,9.9,5.2s-13.1,24.3-13,24.9c0.2,0.6,5.4,9.3,5.4,9.3l15.3-27l9.6,0.8
	L363,203.7c0,0,3.2,18,3.7,18s16.3-33,16.3-33l5.6,10.5L369,234.8l-2.1,14.2l11.6-8.3l11.5-29.5l-4.6,24.1"/>
<path fill="none" stroke="#000000" stroke-width="24" stroke-linecap="round" stroke-linejoin="round" stroke-miterlimit="10" stroke-opacity="0" d="
	M278.7,170.4c-2.5-1.9-47.7,55.7-47.7,55.7l-4.2,18.6l65.8-64.7c0,0,18.9-3.6,16.8-2.3c-2.1,1.3-76.5,90.1-78.2,93.7s-8.1,25-8.1,25
	S322,188.6,323.3,188.6c1.2,0,15.4,0.4,15.4,0.4s-109.9,124.7-111,127.4s3.4,12.5,3.4,12.5s111.7-124,114.1-123.1
	c2.4,0.9,7.2,9,7.2,9L251,337.8l3.3,18.8c0,0,101.9-125.5,104.3-120.9c2.4,4.5,8.3,18.1,8.3,18.1l-98.9,112l7.2,7.6
	c0,0,102.1-113.6,105.2-114.7s14,0,14,0L288.7,383l5.2,8.8c0,0,113.9-130.2,105.8-120.2c-8,10-7.3,30.1-8.7,30.9
	c-1.4,0.7-47.5,49.5-47.5,49.5s-23.3,28.9-22.6,28.9s39.9-37.5,37.8-34.2c-2.1,3.3-19.2,25.2-19.2,25.2l-26,17
	c0,0-18.7,12-18.2,12.5s4.7,4.5,4.7,4.5l26.6-14c0,0-7,11.5-9.2,11.7s-12.5,3-12.5,3l-2.2,3.6l0.3,1"/>
<line fill="none" stroke="#000000" stroke-width="14" stroke-linecap="round" stroke-linejoin="round" stroke-miterlimit="10" stroke-opacity="0" x1="302.5" y1="412.6" x2="304" y2="419.2"/>
<path fill="none" stroke="#000000" stroke-width="14" stroke-linecap="round" stroke-linejoin="round" stroke-miterlimit="10" stroke-opacity="0" d="
	M229.1,482.7c-0.6,1-20.1,33.9-20.1,33.9l-12,1.3c0,0,28.4-42.8,28.1-42.7c-0.3,0.1-2.6-2.6-3.2-2.3s-28.8,35.8-29.9,33.9
	c-1.1-1.8-4.5-7.6-4.5-7.6s27.6-32.5,27.2-32.5c-0.5,0-4.4,0.6-4.4,0.6s-25.7,22.6-26.1,22.5c-0.5-0.1-4.4-6.3-4.4-6.6
	s17.3-15.1,16.1-16.4c-1.3-1.3-7.2-7-7.2-7s-11.8,12.3-12.4,12s-3.5-5-3.6-5.3s12.2-14.5,12.2-15.5s-1-8.7-1-8.7l-14.4,11.8
	l-1.4-2.3l8.5-15.5V429l-18.9,13.7l12.8-24.3l-32.5,28c0,0-55.4,21-56.5,21.1c-1.2,0-16.8-2.1-13.1-1.6s79.4-33.8,79.4-33.8
	l14.1-15.8l-94.1,42.2l-11.5-1.6l105.3-48.5l-2.8-6.5c0,0-107.3,47.4-108.7,46.9c-1.4-0.5-8-3.2-8-3.2s108.7-49.9,108.5-50.3
	c-0.1-0.5-2.3-4.7-2.3-4.7S36.1,436.8,38,435.4c1.8-1.3,8.4-12.8,8.4-12.8l110-43.6l-1.6-9.9l-30.2,11.4l-2.7-4.5
	c0,0,31.3-10.6,31.9-11.9s2.3-11.6,2.3-11.6l-36.2,14.1l4.4-7.9l26-8.7"/>
<path fill="none" stroke="#000000" stroke-width="14" stroke-linecap="round" stroke-linejoin="round" stroke-miterlimit="10" stroke-opacity="0" d="
	M491.1,315c1.1-0.9,38.2-25.5,38.2-25.5s39.2-26,40.2-26.4s11.5-12.7,11.2-12.6c-0.3,0.1-92.5,54.7-92.8,54.3s-3.3-6.8-3.6-6.8
	s-4.5-2.6-3.9-2.7s28.3-13.6,29.2-13.7s75.8-41.2,75.8-41.2l1.7-5.1c0,0-64,29.2-65.5,28.6s-6.8-2-6.8-2s74.3-34.3,73.7-35.1
	s-2.1-11.9-2.1-11.9s-1.5-25.2-1.8-25.1c-0.3,0.1-5.5-0.8-5.5-0.8s1.7,35.8,1.4,32.2S570,187.6,570,187.6l7.7,26.6l-1.3,8.8
	l-66.7,33.8l-4.5-1.9c0,0,42.4-22.7,41.3-22.6c-1.1,0.1-10.2,0-10.2,0l-33.8,14.1l-3-5.7l30.2-11.9l-5.4-3.2c0,0-26.5,8-26.9,7.4
	c-0.3-0.6-0.8-4.6-0.8-4.6s17.9-5.8,18.3-6.2s-0.3-5.3-1.2-5.3s-13.1,4.1-13.4,3.8c-0.3-0.3-1.6-5.2-1.5-5.6
	c0.1-0.4,10.9-4.6,10.9-4.6l0.6-7.3l-0.4-3.2"/>
<path fill="none" stroke="#000000" stroke-width="27" stroke-linecap="round" stroke-linejoin="round" stroke-miterlimit="10" stroke-opacity="0" d="
	M260.9,380.9c-1.6-2.3-27.9,6.2-28.8,10.9c-0.9,4.7,0,11.9,0,11.9l230.6-107.3c0,0,4.1,4.8,3.7,5.9
	c-0.5,1.1-234.7,120.5-234.7,120.5l-11.4,17.1c0,0,256.2-121.8,255.3-120.4s-4.5,11.5-4.5,11.5L221.9,458.4l9.1,9.6l245.6-131.6
	l-5.5,13.5c0,0-240.9,131.4-240.9,132.3c0,0.9-1.1,15-1.1,15s163.5-87.3,163.5-86.2s0,9.8,0,9.8l-131.7,78.6v15.7l134.9-78.2
	l0.2,15.6c0,0-133.8,81.2-135.1,83.7s-3.8,12.2-3.8,12.2s145.1-80.4,144.2-75.3s-1.1,13.4-1.1,13.4s-135.1,67.6-133.3,68.3
	c1.9,0.7,12.6,5.7,12.6,5.7s123.4-63,124.1-57.7c0.7,5.3,1.2,8.9,1.2,8.9s-116.4,53.6-115.7,53.6s19.9,5,19.9,5s99.4-46.8,98.7-45.1
	s0,9.4,0,9.4l-81.8,37.1c0,0,20,0,20.7,0s66.2-27.4,66.2-27.4l-1.6,5.6l-44.4,19.9"/>
<path fill="none" stroke="#000000" stroke-width="27" stroke-linecap="round" stroke-linejoin="round" stroke-miterlimit="10" stroke-opacity="0" d="
	M269.2,574.9l-9,9.1l0.7,11.5l20.5-14.5l17.9,1.5l-32.1,31.7l6,7.1l39.9-36.4l14.1-0.8l-37,39.1l10.1,5l50.1-44.8l18.2-2.5
	l-50.5,49.3l19.8,2.8l60.9-58l4.4-0.9L361.4,630l16.3-1.8l25.5-34.4c0,0-11.3,27.7-9,28c2.3,0.2,9,0.2,9,0.2"/>
<path fill="none" stroke="#000000" stroke-width="27" stroke-linecap="round" stroke-linejoin="round" stroke-miterlimit="10" stroke-opacity="0" d="
	M503.1,102c-0.8-1.6,4.7-20.3,17.4-29.8s45.9-18.6,51.8-19.2c6-0.6,42,1.1,44,2.3s39.5,6.2,47.2,35.9s-10.2,60.7-10.2,60.7l-5.3,7.5
	l-3.3,4.4c0,0,12.3-7.8,16.7-7.8"/>
<path fill="none" stroke="#000000" stroke-width="27" stroke-linecap="round" stroke-linejoin="round" stroke-miterlimit="10" stroke-opacity="0" d="
	M550.6,71.7c-3,4.1-33.8,43.9-33.8,43.9s57.2-52.4,57.1-50.8c-0.1,1.6,8.8,0.7,8.8,0.7s-49.8,55.6-48.5,56.8
	c1.3,1.1,5.2,4.6,5.2,4.6l62.4-58.3l13.3,1.6l-100.5,97.3L500.1,191c0,0,1.4,5.8,2.4,4.7S630.9,73.9,631.4,76.3S643.6,88,643.6,88
	L521.5,195.8l6.1,14.1c0,0,118.5-104.1,118.8-102.3s-2.8,13.1-2.8,13.1S536.5,218.8,542,219s11.7,0,11.7,0l86.3-76.6l-4.7,24.1
	c0,0-44.9,40.1-44.6,44.4s-0.6,14-0.6,14l78.1-56.2l7.8,11.5l-95,65.1l-7.1,13.1c0,0,107.8-65.9,103.9-60.7s-40.6,34.6-41.5,35.2
	c-0.9,0.7-79.7,51.1-80.1,51.4s-0.8,7.2-0.8,7.2s-0.7,9.7,0,9.7s7.1,0,7.1,0l8.5-12.6l63.5-45.4l-23.4,27.2l-14,7.3"/>
<path fill="none" stroke="#000000" stroke-width="27" stroke-linecap="round" stroke-linejoin="round" stroke-miterlimit="10" stroke-opacity="0" d="
	M468.7,382.8c0.5,0,7.9,0,7.9,0l9.7,3.4l-4.1,15.4c0,0-17.3-3.2-18.3-3.4s-8.7,9-8.7,9s22.5,6.4,21.5,7.5s-3.9,10.7-3.9,10.7
	s-19.4-4.1-20.5-4.1s-2.6,6.1-2.6,6.1l18.5,8.1"/>
<path fill="none" stroke="#000000" stroke-width="27" stroke-linecap="round" stroke-linejoin="round" stroke-miterlimit="10" stroke-opacity="0" d="
	M706.7,421.7c-2.5,2.1-14,9.9-14,9.9l-7.4-1.4l18-18.7l-7.3-15l-37.9,29.7h-9l37.7-44.8c0,0-2.3-7.7-3.1-6.5S656,394.7,656,394.7
	l-29.1,23.1h-4L620,401l24.4-14.3l-12.3-1.8l-2.3-5.5"/>
<path fill="none" stroke="#000000" stroke-width="27" stroke-linecap="round" stroke-linejoin="round" stroke-miterlimit="10" stroke-opacity="0" d="
	M630.8,321.2c-0.5,0.2-5.7,5.8-5.7,5.8l1.8,7.3l-5.8,0.4l2.8,15.4l1.6,8.3"/>
<path fill="none" stroke="#000000" stroke-width="27" stroke-linecap="round" stroke-linejoin="round" stroke-miterlimit="10" stroke-opacity="0" d="
	M608,405.8c-0.9,0-10.5-0.5-10.5-0.5l-12.3-2.1c0,0-8-6-9.1-9.2s3.4-5.6,3.4-5.6l6.7,7.3"/>
<path fill="none" stroke="#000000" stroke-width="27" stroke-linecap="round" stroke-linejoin="round" stroke-miterlimit="10" stroke-opacity="0" d="
	M543.4,296.4c-1.9,1.4-55.4,38.4-55.4,38.4l-5.9,21.1l93.4-54.5l60-28.4l5.8,7.9l-150.8,93l4.2,14.5l154.5-92.9l4.8,12.1l-156.4,101
	l-1.3,17.7l178.3-104.4l3.5,20L490.9,440c0,0,13.5,6.5,16.2,6.5s183.4-93.6,178.3-89.3s-163.1,92.6-163.1,92.6l-0.7,2.1
	c0,0,17.1,5.5,17.5,5.5s64-29.7,64-29.7l13.3,1.3c0,0-67.9,31.9-64.8,31.5s22.4,0,22.4,0l56.9-23.2c0,0,5.1,6.8,3.3,6.5
	c-1.8-0.2-60.7,16.7-51.3,16.7s52.5-5.9,52.5-5.9"/>
<path fill="none" stroke="#000000" stroke-width="27" stroke-linecap="round" stroke-linejoin="round" stroke-miterlimit="10" stroke-opacity="0" d="
	M507.2,456c-2.4,0.4-14.1,12.5-13.1,12.6c0.9,0.1,6.5,10.2,6.5,10.2l17.9-14.2l16,2.4l-28.2,25.3l3,14.9l54.5-35.8l23,2.5L517.1,521
	l3.3,12.2l86.4-57.7l25.6-1.2c0,0-104.1,71.1-102.5,72c1.5,0.9,19.5,8.9,19.5,8.9s93.4-64.2,93.8-61.8s3.3,16.8,3.3,16.8
	s-76.2,45.4-73.8,45s15.6,2.1,15.6,2.1s61.1-34.2,61.8-31.8s2.8,8.8,2.8,8.8l-40,23"/>
</svg>
