<?xml version="1.0" encoding="utf-8"?>
<!-- Generator: Adobe Illustrator 24.3.0, SVG Export Plug-In . SVG Version: 6.00 Build 0)  -->
<svg isCommex="true" version="1.1" id="Layer_1" xmlns="http://www.w3.org/2000/svg" xmlns:xlink="http://www.w3.org/1999/xlink" x="0px" y="0px"
	 width="723.6px" height="901.2px" viewBox="0 0 723.6 901.2" enable-background="new 0 0 723.6 901.2" xml:space="preserve">
<path fill="#D3A37F" d="M455.5,403.2l-0.1-0.1h-0.2c-5.3-1.3-10.5-2.1-15.8-2.3c-4.8-0.3-9.4-0.5-14-0.5c-10.9,0-32.2,0.8-53.2,5.8
	c-9.4,2.2-17.4,5-23.8,8.3l-0.1,0.1l-0.5,0.5c-1,0.9-3,3.2-2.8,5.5c0,0.9,0.5,2.4,2.6,3.9c3.6,2.5,12.7,4.6,24.5,5.8
	c5.4,0.5,12.5,1,21.2,1c7.1,0,15.3-0.3,24.2-1.2c42.8-4.3,45-13.7,45-15.4C462.8,410.3,459.1,405.5,455.5,403.2z"/>
<path fill="#808080" d="M153.4,180.1c-4.6-6.1-14.5-12.2-23.3-17.6c-8.3-5.1-16.2-10-20.8-15.1c-9.4-10.3-20.4-18.3-31-22.7
	c-7.9-3.2-16-11.4-20.1-16l-0.6-0.7l-0.7,0.5c-5.6,4-10.6,9.5-15.1,16.3c-14.3,22-10.7,49-6.9,55.5c3.7,6.4,10.6,25.5,5.3,32.8
	c-5.7,7.9-14.8,32.1-5.6,41.2c8.2,8,15.4,16,13.9,26.5c-0.6,4.2-2.1,9.3-4.7,15.1l-0.4,0.8l0.7,0.5c4.6,2.9,13.1,8.6,17.9,14.2
	c3.1,3.6,5.6,7.4,7.9,10.7l0.4,0.6c3.6,5.3,5.3,7.5,6.5,8c9.4,3.3,16.1,6.3,19.3,8.7c2.7,2,6.9,2.3,9.2,2.3c0.5,0,0.9,0,1.2,0h0.7
	l0.2-0.7c1.7-6.1,3.7-10.8,5.1-14.2l0.2-0.4c3.7-8.7,13.9-36.7,13.9-49.8c0-1.7-0.2-3.2-0.5-4.9l-0.3-1.2l-1.1,0.5
	c-1.5,0.7-3.4,1-5.6,1c-2.3,0-4.9-0.5-7.5-1.5l-0.4-0.2l-0.4,0.2c-0.9,0.5-8.9,5.1-13.9,10.1c-4.9,4.9-6.4,15.5-6.5,16v0.1
	c0,0.1-0.1,0.3-0.1,0.4l-0.2,0.3v0.4c0.9,8.5,2.6,16.3,4.8,22.1c1.6,4.1,3.1,6.1,4,6.5l0.1,0.1c1,0.3,1.5,1.5,1.2,2.5
	c-0.2,0.8-1,1.3-1.9,1.3c-0.1,0-0.4,0-0.7-0.1c-2.2-0.8-4.1-3.3-6-7.7c-2.5-6-4.5-15.4-5.5-25.9c-1.2-11.8-2.6-41.7,9.1-66.1
	c2.6-5.4,5.5-10.4,9-15.3c18.5-25.8,41.9-30.3,42.9-30.5c1.1-0.2,2.1,0.5,2.3,1.6c0.2,1-0.5,2-1.5,2.2l-2.4,0.6l2.1,1.2
	c3.3,1.9,7.3,4.1,10.6,6.1l1.5,0.9v-1.7C159.7,192.7,158.9,187.3,153.4,180.1z"/>
<g id="vs-skin">
	<path fill="#FACFBD" d="M348.1,408.3c-15.3-11.1-15.9-30.4-16.3-42c0-0.7-0.1-1.3-0.1-1.9c0-0.7-0.1-1.3-0.1-1.9v-0.1
		c-0.7-10.6-2-30.4-33-57c-30.3-25.9-132.9-89.2-133.8-89.8c-0.4-0.3-0.7-0.6-0.8-0.9l-0.1-0.2l-0.4-0.4c-0.6-0.8-4.7-6-13.1-3.2
		c-8.5,2.7-26.9,16.8-29.4,42.9v0.1v0.1c0.2,1.3,1.3,2.7,2.8,4.4c1.6,2,3.6,4.4,5.1,7.8c1.2,3,1.8,6.2,1.8,9.8
		c0,14.4-11.2,44.2-14.2,51.4l-0.2,0.4c-1.6,3.9-3.8,9.3-5.5,16.1c-2.1,8.4-2.7,17.3-1.7,26.4c1.9,17.6,16.3,37.6,23.2,43.9l1.5,1.3
		l0.2-2c0.2-1.7,0.5-3.3,0.9-5.2c1.9-9.1,5.9-24.7,14.2-47l0.2-0.5l-2.5-6.6c-0.3-1.1,0.2-2.3,1.1-2.6c1.2-0.4,2.3,0.1,2.7,1.2
		l2.8,7.4c0.2,0.3,0.2,0.8,0,1.3l-0.1,0.3c-2.3,6.1-10.3,27.6-14.3,47.3c-0.6,3-0.9,5.9-1,8.8c-0.6,13.5,3.5,37.4,37.6,46.5h1.3
		l0.1-0.9c3.1-21.1,12.5-43.3,15.6-50.7c0-0.1,0.1-0.2,0.1-0.3c0.1-0.2,0.2-0.4,0.3-0.6l0.2-0.5l-0.3-0.4c-0.4-0.6-0.9-1.4-1.6-2.4
		l-1-1.6c-0.5-1-0.3-2.2,0.6-2.7c1-0.5,2.2-0.3,2.8,0.7l0.7,1c0.9,1.4,1.8,2.8,2.2,3.5l0.1,0.2l0.1,0.1c0.9,0.7,0.6,1.8-0.5,4.5
		l-0.1,0.3c-3.4,8-13.7,32.3-15.9,54.2v0.1v0.1c0.9,13.3,30.8,33.5,41.2,34.5h0.1h0.1c15.4-0.4,49.9-19,65.9-43.8l1.4-1.8
		l-27.5-19.4l-0.5,1.1c-1.6,3.7-2.3,5.7-2.3,7c0,0.5-0.1,1-0.5,1.3c-0.4,0.4-0.9,0.7-1.5,0.7c-1.1,0-1.9-0.9-2-1.9
		c-0.1-2.3,2-8.9,12.5-27.5c7.7-13.7,16.7-28,19.5-32.4c0.2-0.4,0.6-0.7,1.1-0.8c0.5-0.1,1.1,0,1.6,0.3c0.4,0.2,0.7,0.6,0.8,1.1
		c0.1,0.5,0,1.1-0.3,1.6c-2.6,4-5,7.8-7.1,11.3l-0.5,0.8l43.5,28.1l0,0c0.2,0.1,0.3,0.1,0.5,0.1h0.7l0.2-0.6
		c1.1-2.7,2.7-5.3,4.9-7.8c3.5-3.8,7.9-7.1,13.1-9.8c0.5-0.2,0.9-0.4,1.4-0.7c0.4-0.2,0.9-0.4,1.3-0.6l1.6-0.7L348.1,408.3z"/>
</g>
<g>
	<path fill="#AA8265" d="M331.2,452.4c-3.2-2.9-4.9-6.1-5-9.4v-0.2c-0.5-2.9-0.6-5.7-0.2-8.7l0.2-1.1h-1.4c-0.3,0-0.7-0.1-1.1-0.3
		l-43.3-28l-0.5,0.9c-3.6,6.1-6.3,10.5-8.5,14.5l-0.2,0.3l0.1,0.4c0.3,1.5,0.8,4.1,1.3,7.5c0.9,6.1,6.8,16,8.1,18.2
		c0,0.1,0.1,0.2,0.1,0.3c0,0.1,0.1,0.2,0.1,0.3l0.1,0.3l11.5,8.2l44.1,31.2l-0.3-2.2c-1.1-9.1-2.1-17.9-2.1-20.5
		c0-3.2,1.3-5.3,2.4-6.5l0.8-0.9l-1.1-0.6C334.2,454.8,332.5,453.6,331.2,452.4z"/>
	<path fill="#AA8265" d="M486.4,582.2l-0.6-0.7L485,582c-6.3,4.7-29.1,20.4-59.3,24.6c-4.8,0.7-9.5,1-14.5,1
		c-28.5,0-53.6-11.2-58.4-16.9l-1.8-2.4l-0.8,1.2c-1.3,2.1-3.1,8.6-0.5,15.3c0.7,1.8,2.3,4,4.5,6.3c5.5,5.6,18.9,15.2,46.6,16.3
		c2.4,0.1,4.8,0.1,7.2,0.1c29.7,0,55.5-7.2,65.1-12.8c3-1.8,5.7-3.6,8-5.5c5.4-4.6,7.8-9.6,8-16.8
		C489.3,588.1,488.3,584.6,486.4,582.2z"/>
	<path fill="#AA8265" d="M481,512.9l-0.5,0.5c-9.4,9.6-19,14.3-19.1,14.4c-0.3,0.1-0.5,0.2-0.8,0.2h-1.1l0.1,1.1
		c0.4,7.4-1.1,14.7-4.1,19.9l-1.5,2.5l2.7-1.1c9.5-3.9,16.8-9.7,21.5-17.1c0.3-0.4,0.6-0.8,0.8-1.1c0.1-0.1,0.2-0.2,0.2-0.3
		c0.1-0.1,0.2-0.3,0.3-0.4c0.1-0.1,0.2-0.2,0.3-0.3c0,0,0-0.1,0.1-0.1c0.2-0.1,0.3-0.2,0.4-0.4c1.7-2.2,5.1-6.5,4.6-11.5
		c-0.4-4-2.5-5.5-3.3-5.9L481,512.9z"/>
	<path fill="#AA8265" d="M349.2,561.3c1,6.9,2.6,18.4,5.1,24.1c0.5,1.1,1,1.9,1.5,2.6c4,4.7,28.2,15.5,55.8,15.5
		c4.4,0,8.9-0.3,13.4-0.9c28.5-4,50.9-19,57.1-23.5l0.4-0.3l-2.4-41l-1.6,1.9c-7.7,9.2-19.3,15.4-34.4,18.6c-4.6,0.9-9.3,1.6-14,2
		c-5,0.4-9.8,0.6-14.5,0.6c-33.5,0-57.5-9.1-65.6-14l-0.2-0.1h-0.6L349,547c-0.9,0.5-1.8,2.4-1,6.3c0.3,1.6,0.7,3.9,1,6.4
		L349.2,561.3z"/>
	<path fill="#AA8265" d="M330.1,442.6c0,2.2,1.3,4.5,3.7,6.7c1.6,1.5,3.8,3,6.4,4.4c12.4,6.6,33.8,10.7,53.2,10.7
		c3.5,0,6.9-0.1,10.2-0.4c31.7-2.7,63.1-14.6,70.4-20c0.2-0.2,0.4-0.3,0.6-0.5c0.2-0.1,0.3-0.3,0.5-0.4c5.5-4.5,6.4-9.3,7.2-16.3
		c0.2-1.7-0.5-6.4-4.6-11.4l0,0c-3-3.6-7.1-6.6-12.3-9.1l-2.8-1.3l1.5,2.7c1.3,2.3,1.9,4.6,1.8,6.8c-0.4,8.8-17.3,15.3-47.7,18.3
		c-8.6,0.8-17,1.2-24.9,1.2c-25.3,0-41.9-3.7-47.2-7.4c-3.1-2-3.9-4.5-3.9-6.1V418l-1.6,1.2c-2,1.5-3.8,3.1-5.1,4.6
		c-4.9,5.4-6.6,11.4-5.3,18.4v0.4H330.1z"/>
	<path fill="#AA8265" d="M479.4,490.8l-0.6-0.4l-0.6,0.5c-5.4,4.2-14.6,10.3-27.9,15.5l-1.9,0.7l1.7,1.1c3.3,2.1,5.8,5.8,7.6,11
		c0.5,1.2,0.8,2.6,1.1,3.9l0.3,1.3l1.2-0.7c3.2-1.8,11.5-6.9,18.8-14.9c0.5-0.5,1-1.1,1.5-1.7l0.4-0.4l0.1-0.2
		C484.4,495.8,481,491.9,479.4,490.8z"/>
	<path fill="#AA8265" d="M342.2,497.8l0.2,0.2c0.5,0.6,1.4,1.4,2.6,2.2c4.2,2.8,19.8,11.3,52.4,11.3c3.3,0,6.8-0.1,10.5-0.3
		c10.8-0.6,21.3-2.4,31.1-5.3c19.2-5.7,32.1-14.6,38.1-19.4c0.5-0.4,1-0.8,1.3-1.1c0.2-0.2,0.4-0.4,0.6-0.5l0.4-0.3v-0.5
		c-0.6-12.7-1.6-29.1-2.3-35.7l-0.2-1.6l-1.4,0.9c-8.4,5.5-38.8,17.5-71.4,20.1c-3.1,0.3-6.4,0.4-10.4,0.4
		c-18.7,0-38.5-3.6-51.5-9.4l-0.2-0.1h-0.2c-0.1,0-0.3,0-0.5,0.1L341,459c-2.2,1.4-2.7,3.4-2.7,4.8c0.1,4.4,3.2,29.7,3.8,33.6
		L342.2,497.8z"/>
	<path fill="#AA8265" d="M454,520.3c-0.9-3-3.8-9.8-9.9-9.8c-0.1,0-0.1,0-0.2,0h-0.7c-0.7,0-1.4,0.1-2.1,0.3
		c-6.4,2-11.1,11.6-11.2,22.9c0,8.6,3.2,16.4,7.8,19c1.1,0.6,2.4,1,3.7,1c0.5,0,1.1,0,1.6-0.1c1.5-0.2,3.2-0.9,4.9-1.9
		C454.3,547.7,458.2,533.5,454,520.3z"/>
	<path fill="#AA8265" d="M349.6,541.8c0.1,0.1,0.2,0.2,0.3,0.3c5.9,4.9,31.9,14.9,65.8,14.9c4.5,0,9.2-0.2,14-0.6l5.3-0.5l-1.7-1.5
		c-4.1-3.6-6.7-10.1-7.2-17.4l-0.1-1.1l-1,0.1c-6.7,1.1-13.6,1.7-20.5,1.7c-27.5,0-49.6-9-58.3-14.3l-0.8-0.5l-0.5,0.8
		c-0.2,0.3-0.8,1.3-1,3.3c-0.4,4.2,1.3,10.5,5.3,14.4C349.3,541.5,349.5,541.7,349.6,541.8z"/>
	<path fill="#AA8265" d="M404.7,533.6c6.5,0,13.2-0.5,20.2-1.7h1.2l0.1-0.9c0.4-6.4,2.3-12.4,5.2-17l1.3-2l-2.4,0.5
		c-7.4,1.6-14.9,2.6-22.3,3c-3.6,0.2-7.1,0.3-10.3,0.3c-8.2,0-36.2-0.8-53.3-11l-0.9-0.5l-0.5,0.9c-1.4,2.6-2.8,7.8,2.7,13.1
		C350.6,522.4,374.3,533.6,404.7,533.6z"/>
</g>
<path fill="none" stroke="#000000" stroke-width="6" stroke-linecap="round" stroke-linejoin="round" stroke-miterlimit="10" d="
	M57.3,104.2c0,0,11.2,14.2,22,18.6s22,12.6,31.6,23.2c9.6,10.5,35.4,21.2,44.1,32.9s6.3,19.6,6.3,19.6"/>
<path fill="none" stroke="#000000" stroke-width="6" stroke-linecap="round" stroke-linejoin="round" stroke-miterlimit="10" d="
	M36.6,294.9c0,0,16.6,9,24,17.7c7.5,8.7,12.1,18.6,15.7,19.8c3.6,1.3,14.4,5.2,18.9,8.4c4.5,3.2,12,2.6,12,2.6"/>
<path fill="none" stroke="#000000" stroke-width="6" stroke-linecap="round" stroke-linejoin="round" stroke-miterlimit="10" d="
	M147.4,186.3c0,0-31.6,5.6-50.4,44.7c-17.4,36.2-7.8,93.8,1.4,97"/>
<path fill="none" stroke="#000000" stroke-width="6" stroke-linecap="round" stroke-linejoin="round" stroke-miterlimit="10" d="
	M141.9,189.1c0,0,19.2,10.8,21.4,12.7s4.4,8.6,3.7,11.5"/>
<path fill="none" stroke="#000000" stroke-width="6" stroke-linecap="round" stroke-linejoin="round" stroke-miterlimit="10" d="
	M92,255.1c0,0,10.2,8.2,18.7,12.4s14.8,1.1,15.6,0"/>
<path fill="none" stroke="#000000" stroke-width="6" stroke-linecap="round" stroke-linejoin="round" stroke-miterlimit="10" d="
	M88.5,295.9c0,0,1.5-11.5,7.1-17.1s14.9-10.7,14.9-10.7l-19-8.6l-0.7,21.1c0,0,4.4-8.6,4.5-8.9s7.9-4,7.9-4l-7.1-2.7l-1.7,3.7
	l2.8-0.7"/>
<path fill="none" stroke="#000000" stroke-width="6" stroke-linecap="round" stroke-linejoin="round" stroke-miterlimit="10" d="
	M109.8,267.1c0,0-6.7-3.6-8.7-11.9c-2.1-8.3-2-21.7,0-28.4s4.8-10.8,4.8-10.8l-11.7,31.6l-0.5,6.5l3.7,2.1l-0.2-8.5l-1,3.2"/>
<path fill="none" stroke="#000000" stroke-width="6" stroke-linecap="round" stroke-linejoin="round" stroke-miterlimit="10" d="
	M165.1,213.3c0,0-4.9-7.6-15.4-4.1s-28.4,19.1-30.7,44.9c0.5,5.4,9.8,8.7,9.8,22.2s-10.2,41.6-14.1,50.6s-9.7,23.8-7.5,43.9
	c2.2,20,20.4,44.2,26.9,47.4"/>
<path fill="none" stroke="#000000" stroke-width="6" stroke-linecap="round" stroke-linejoin="round" stroke-miterlimit="10" d="
	M148.6,353.8l2.8,7.3c0,0-9.8,24.9-14.5,47.8s4,48.5,38.1,57.6"/>
<path fill="none" stroke="#000000" stroke-width="6" stroke-linecap="round" stroke-linejoin="round" stroke-miterlimit="10" d="
	M191.8,406.2c0,0,3.1,5,3.4,5.2c0.3,0.2-14.5,30.8-17,57.7c0.7,14.8,32.1,35.8,43.2,36.7c15.6-0.3,51-18.7,67.8-44.8l2.2-3.5"/>
<path fill="none" stroke="#000000" stroke-width="6" stroke-linecap="round" stroke-linejoin="round" stroke-miterlimit="10" d="
	M165.6,214.1c0,0,103.5,63.9,134,90s32.9,45.6,33.7,58.5c0.8,12.8,0,34.6,18.5,45.7"/>
<path fill="none" stroke="#000000" stroke-width="6" stroke-linecap="round" stroke-linejoin="round" stroke-miterlimit="10" d="
	M288.2,388.1c0,0-31.9,50.4-31.6,58.7"/>
<line fill="none" stroke="#000000" stroke-width="6" stroke-linecap="round" stroke-linejoin="round" stroke-miterlimit="10" x1="281.3" y1="403" x2="324.6" y2="431"/>
<line fill="none" stroke="#000000" stroke-width="6" stroke-linecap="round" stroke-linejoin="round" stroke-miterlimit="10" x1="262" y1="436.7" x2="336.6" y2="489.4"/>
<path fill="none" stroke="#000000" stroke-width="6" stroke-linecap="round" stroke-linejoin="round" stroke-miterlimit="10" d="
	M278.9,447.8c0,0-7.3-11.6-8.5-19c-1.1-7.5-1.6-8.5-1.6-8.5s-3.7,10.5-3.8,11.3s4,5.2,4,5.2l-1.9-6.4"/>
<path fill="none" stroke="#000000" stroke-width="6" stroke-linecap="round" stroke-linejoin="round" stroke-miterlimit="10" d="
	M328.1,442.6c-7.3-38.1,73.1-46.8,111.4-44s45.4,21.8,44.7,28.4s-1.6,13.1-9.1,18.6s-39.3,17.7-71.4,20.4
	C371.6,468.8,328.2,458,328.1,442.6z"/>
<path fill="none" stroke="#000000" stroke-width="6" stroke-linecap="round" stroke-linejoin="round" stroke-miterlimit="10" d="
	M340.2,457.4c0,0-4.1,1.9-4,6.7s3.4,31.7,3.9,34.4s20.1,17.4,67.7,14.9c47.6-2.5,73.6-27.9,73.6-27.9s-1.8-39.9-3-40.8"/>
<path fill="none" stroke="#000000" stroke-width="6" stroke-linecap="round" stroke-linejoin="round" stroke-miterlimit="10" d="
	M342.4,502.2c0,0-7.3,8.8,1.9,17.5c6,5,39.6,21.3,81,14.1"/>
<path fill="none" stroke="#000000" stroke-width="6" stroke-linecap="round" stroke-linejoin="round" stroke-miterlimit="10" d="
	M479.3,488.5c0,0,8.7,3.2,3.4,19.3c-10,12-22.4,18.2-22.4,18.2"/>
<path fill="none" stroke="#000000" stroke-width="6" stroke-linecap="round" stroke-linejoin="round" stroke-miterlimit="10" d="
	M481.4,511c0,0,5,1.2,5.6,8s-4.6,12.3-6.3,14.5c-1.7,2.2-10.7,21.7-50.8,25s-73.5-8.3-81.3-14.8s-8.7-20.4-4-22.2"/>
<path fill="none" stroke="#000000" stroke-width="6" stroke-linecap="round" stroke-linejoin="round" stroke-miterlimit="10" d="
	M443.2,508.4c16.5-1.4,19.5,36.5,5.7,44.8s-21.1-6.9-21-19.6S434.1,508.8,443.2,508.4z"/>
<path fill="none" stroke="#000000" stroke-width="6" stroke-linecap="round" stroke-linejoin="round" stroke-miterlimit="10" d="
	M348.3,545.1c0,0-3.8,1.2-2.3,8.6c1.5,7.4,3.4,29.8,8.3,35.6s37.1,20,71,15.3s59.1-24.8,59.1-24.8"/>
<path fill="none" stroke="#000000" stroke-width="6" stroke-linecap="round" stroke-linejoin="round" stroke-miterlimit="10" d="
	M481.8,532l2.6,46.2c0,0,7.1,2.3,6.7,14.4c-0.3,12.1-6.7,18-17,24c-10.2,6-39.7,14.3-73.5,12.9s-49.6-15.6-52.8-23.9
	c-3.2-8.3-0.6-18.1,2.9-19"/>
<path fill="none" stroke="#000000" stroke-width="5" stroke-linecap="round" stroke-linejoin="round" stroke-miterlimit="10" d="
	M346.8,413.7c0,0-7.5,6.5,0,11.7s36.7,9.3,71,5.9s46.1-10.6,46.3-16.9s-6-12.5-10.3-13.9"/>
<line fill="none" stroke="#000000" stroke-width="6" stroke-linecap="round" stroke-linejoin="round" stroke-miterlimit="10" x1="273.7" y1="629.7" x2="307.6" y2="626.4"/>
<line fill="none" stroke="#000000" stroke-width="6" stroke-linecap="round" stroke-linejoin="round" stroke-miterlimit="10" x1="281.5" y1="578.8" x2="319.2" y2="595.9"/>
<path fill="none" stroke="#000000" stroke-width="6" stroke-linecap="round" stroke-linejoin="round" stroke-miterlimit="10" d="
	M535.4,615.1c0.8,0,31.6-2,31.6-2"/>
<line fill="none" stroke="#000000" stroke-width="6" stroke-linecap="round" stroke-linejoin="round" stroke-miterlimit="10" x1="522.4" y1="584.5" x2="546.2" y2="560.5"/>
<line fill="none" stroke="#000000" stroke-width="6" stroke-linecap="round" stroke-linejoin="round" stroke-miterlimit="10" x1="88" y1="616.2" x2="340.3" y2="504.4"/>
<line fill="none" stroke="#000000" stroke-width="6" stroke-linecap="round" stroke-linejoin="round" stroke-miterlimit="10" x1="480.5" y1="448.9" x2="653.5" y2="372.6"/>
<path fill="none" stroke="#000000" stroke-width="6" stroke-linecap="round" stroke-linejoin="round" stroke-miterlimit="10" d="
	M278.7,809.4c0,0,221-121,287.8-159.7c66.7-38.8,99.1-58.9,99.1-58.9"/>
<path fill="none" stroke="#000000" stroke-width="6" stroke-linecap="round" stroke-linejoin="round" stroke-miterlimit="10" d="
	M378.8,355.7c0,0,15.1-45.6-19.3-147.4S248.7,46.6,248.7,46.6"/>
<path fill="none" stroke="#000000" stroke-width="6" stroke-linecap="round" stroke-linejoin="round" stroke-miterlimit="10" d="
	M442.4,346.3c0,0,2.8-62.1-25.1-125.4c-27.8-63.3-66.1-138.6-189.2-208.1"/>
<path fill="none" stroke="#000000" stroke-width="36" stroke-linecap="round" stroke-linejoin="round" stroke-miterlimit="10" stroke-opacity="0" d="
	M57.5,109.3L31.7,137l43-16.7l-38,34.3c0,0,34.5-22.9,38-22.6s24.9-2.4,24.9-2.4l-57.9,45.6l-7,33.2c0,0,95.7-59.5,97.8-60.4
	s15,15,15,15L33.7,237.8l0.3,21.7l124.7-77.4L92,246.3l-48.6,41.3c0,0,0.9,8.4,2.8,9.7c1.9,1.3,55.4-30.2,55.4-30.2l-36.5,37.6
	l61.1-27l-54.8,44.9l33.4-3.4l-8.1,19.3"/>
<path fill="none" stroke="#000000" stroke-width="36" stroke-linecap="round" stroke-linejoin="round" stroke-miterlimit="10" stroke-opacity="0" d="
	M157.1,211.3l-26.7,32.1l11.5,16.1l34.8-35.2l12.8,13.2l-45.1,42.8c0,0,0.2,18.8-5.3,38.8c-5.5,19.9-12.4,31.2-12.8,32.1
	s-4.1,27.7-1.4,33.5c2.8,5.7,5.7,12.4,5.7,12.4l20.2-57.6l7.9-42.2c0,0,46.2-43.3,48-45.5c1.8-2.1,19.9-2.8,19.9-2.8l-55.9,56.9
	l61.1-41l16.9-0.9l-83.1,73.7l-27.1,72.4l0.3,10.2l47.4-74c0,0,70.7-69.6,72.4-70.3c1.7-0.7,15,5.8,15,5.8S146.8,429.2,147.4,431
	c0.6,1.8,8,15.8,8,15.8l136-154.3l14.7,3.4l-138.4,165c0,0,16.1,14.8,16.3,15.3c0.3,0.4,127.3-157,127.3-157l16.3,14.3l7.2,47.8
	l4.4,13.8l-4,6.2l-11.8,8.5l-0.3,1.4l-30.9-18.5c0,0,19.6,0.9,19.4,0s-6-27.4-6.1-28.6s-2.7-6.3-2.7-6.3l-26.1,21.4l-25.7,30
	l-15,33.5l-34.2,39.9l4,5.4c0,0,13,11,14.8,10.2s15.6-8.1,23.7-11.5c8.1-3.4,20.7-8.4,20.7-8.4l9-7.3l3.8-4.4l-23.7-12.9l-35.6,26.4
	l20.6-5.8l9-2.3"/>
<path fill="none" stroke="#000000" stroke-width="22" stroke-linecap="round" stroke-linejoin="round" stroke-miterlimit="10" stroke-opacity="0" d="
	M369.4,412.6l47-7.8l30,2.5l4.2,3.5l2.7,2.1c0,0-35.3,9.9-36,9.9s-27.5,0-27.5,0l-34.2-6.2l10.5-7.9l70.4-10.5"/>
<path fill="none" stroke="#000000" stroke-width="36" stroke-linecap="round" stroke-linejoin="round" stroke-miterlimit="10" stroke-opacity="0" d="
	M288.2,403.9L256.6,434l38-16.6l-22.7,36l39.6-34.5l-11.2,47.5l57.5-46.1l-30.3,53.8l66-45.9c0,0-55.8,70.1-58.4,69.9
	s90-67.1,90-67.1l44.9-17.4c0,0-128.5,109.3-128.5,112.4c0,3.1-2.4,19.1-2.4,19.1l139.1-115l-8.2,33.3L346.3,565.8l-0.4,18.7
	l135.5-103.1l2.9,29.1L348,619.3l15,11l125.2-89.8V556c0,0-107,78.7-104.2,80.3l28,7l70-54l-24,44"/>
</svg>
