<?xml version="1.0" encoding="utf-8"?>
<!-- Generator: Adobe Illustrator 24.3.0, SVG Export Plug-In . SVG Version: 6.00 Build 0)  -->
<svg isCommex="true" version="1.1" id="Layer_1" xmlns="http://www.w3.org/2000/svg" xmlns:xlink="http://www.w3.org/1999/xlink" x="0px" y="0px"
	 width="622.5px" height="765px" viewBox="0 0 622.5 765" enable-background="new 0 0 622.5 765" xml:space="preserve">
<g id="vs-primary">
	<path fill="#5F8EEF" d="M433.5,279.8l1.7-0.3l-1-1.3c-10.3-13-16.4-20.6-18.8-23.1c-5.1-5.4-19-11-23.5-12.6
		c-0.3-0.2-0.5-0.3-0.7-0.5l-1-1l-0.6,1.4c-1.9,4.4-4,7.4-5.9,8.4c-1.8,1-6.7,1-11.5,0.2c-6.5-1.1-12.9-3.1-16.5-5.4
		c-1.4-0.9-2.5-1.9-3.5-3l-1.4-1.8l-0.3,2.2c-1.1,7.8-5.3,16.2-11.1,22.6c-5.8,6.2-16.3,13.7-33.1,14.3h-4.7l-0.3,0.6
		c-1.6,3.5-5.2,13.2-5.2,28.6c0,0.6,0,1.1,0,1.7c0,0.6,0.1,1.1,0.1,1.8c0.3,8.1,1.5,15.8,2.5,22.7l0.3,1.9c1.4,9.4,2.6,17.6,0.8,23
		l-0.3,0.9l0.9,0.3c0.2,0.1,0.4,0.1,0.5,0.1c0.1,0,0.2,0,0.3,0.1c9.2,2.4,14.3,5.7,14.6,9.3c0.1,1.1,0,2.8-0.4,5.1l-0.1,0.9l0.8,0.2
		c1.4,0.4,5.1,1.3,10.7,1.3c4.6,0,10.6-0.6,17.8-2.5c8.6-2.3,13.6-3.7,16.3-4.5l0.4-0.1c0.8-0.2,1.4-0.4,1.9-0.6l0.5-0.2l0.1-0.6
		c1-7.8,3.9-35-0.3-55.1c-0.9-4.2-1.7-8-2.4-11.4c-2.7-12.9-4.1-19.8-4.3-24.1l-0.1-1.9l-1.5,1.1c-2.3,1.7-3.5,3.3-3.5,3.3
		c-0.3,0.4-0.8,0.7-1.3,0.8c-0.5,0.1-1-0.1-1.5-0.4c-0.4-0.3-0.7-0.8-0.8-1.3c-0.1-0.5,0.1-1,0.4-1.5c1.6-2,10.3-11.9,26.9-9.7
		c15.4,2,32.5,5.4,39.6,20.9l0.1,0.1c0.3,0.4,0.4,0.9,0.6,1.4l0.8,1.9l1-1.8c1.8-3.1,4.7-6.2,7.8-8.6
		C428.2,281.5,431,280.2,433.5,279.8z M344,309.9c-0.6,0.5-2.3,1-15.7,1.6c-4.7,0.2-8,0.3-10.3,0.3c-5.4,0-6-0.4-6.4-0.6
		c-0.8-0.4-3.1-1.5-1.5-18.1c0-0.2,0-0.2,0.1-0.4v-0.1c0.3-0.6,0.8-1.1,1.3-1.1c0,0,0.2,0,0.4,0c6.1-0.5,10.8-0.7,13.6-0.8
		c1.6,0,3-0.1,4.3-0.1c9.6,0,11.9,1.1,12.8,2.3C345.6,296.6,345.4,308.4,344,309.9z"/>
	<path fill="#5F8EEF" d="M390.6,568.7l-5.2-8.5c-11.8-19.1-24.1-38.8-26.6-46c-4-11.2-6.2-57.9-6.8-83.7v-1.2l-1.1,0.2
		c-2,0.4-4.4,0.8-7,1.1l-4.7,0.7c-13.2,2-22.7,3.2-29.7,3.2c-3.4,0-6.1-0.3-8.1-1c-2.1-0.7-3.4-1.6-4.1-2.9l-0.1-0.1
		c-2.8-4.2-4.1-17.5-4.2-27.7V402h-1c-0.4-0.1-0.8-0.2-1.2-0.3l-1.1-0.4l-0.4,0.7c-1.8,2.8-5.8,8.4-7.3,10.4
		c-8.3,11.2-9.5,11.2-10.7,11.2c-3,0-13.1-1.7-19.2-7.3c-2.1-1.9-3.7-3.4-4.9-4.7l-0.9-1l-0.7,1.2c-15.3,28.2-31.9,60.8-32.1,65.6
		c0.2,6.5,0.6,10,0.8,11.2l0.3,1.7c6,33.2,9.4,55.2,9.9,65.1c0.5,8.1,0.2,14.9,0,19.8v0.4c-0.3,5.6-0.3,8.4,0.3,9.6
		c0.4,0.9,1.5,1.9,3.5,3.3c6,4.5,16.3,9.7,25.8,9.7h0.2c2.3,0,4.5-0.3,6.7-0.8c3.3-0.9,6-2.5,7.7-4.6c2.2-2.6,2.9-6.2,2-10.3
		l-0.5-2.1c-12.8-57.9-18.8-89.9-17.8-95.1c0.5-2.8,4.9-13,27.8-49.3l1-1.5l-1.2-0.4c-0.3-0.1-0.7-0.2-1.2-0.3s-0.9-0.4-1.1-0.9
		c-0.3-0.5-0.3-1-0.2-1.6c0.2-0.5,0.5-0.9,1-1.2c0.5-0.3,1-0.3,1.6-0.1c9,2.7,14.9,4.6,19.4,6.2l0.9,0.3h0.1l0.9,0.3
		c15.2,5.3,15.7,7,16,7.9c0.2,0.7,0.5,3.9,1.3,12.3l0.7,7.5c1.9,21,5,56,7.2,61.7c1.5,3.9,7.5,14,13.9,24.7l2.1,3.5
		c6.8,11.6,13.9,23.5,15.6,28.5c1.8,4.9,2.9,9.5,3.7,12.6c0.4,1.6,0.9,3.7,1.2,4.6l0.1,0.2l0.2,0.2c0.1,0.1,0.3,0.2,0.4,0.3
		c0.1,0,0.1,0.1,0.3,0.2c1.4,1.2,4.5,3.8,11.3,5.4c3.4,0.7,7.1,1.1,11.2,1.1c1.2,0,2.4,0,3.6-0.1c9.5-0.6,15.5-3.4,18.8-5.7l0.6-0.4
		l-0.3-0.7C407.9,597,399.1,582.6,390.6,568.7z"/>
	<path fill="#5F8EEF" d="M379.7,247.5c1.2,0,1.7-0.1,2.1-0.2l0.2-0.1c2.7-1.7,6.8-12.1,5.9-15V232l-0.1-0.1
		c-0.5-0.8-1.9-1.7-4.4-3.1l-0.9-0.5l-0.5,0.9c-1.9,3.4-6.3,12.4-7.6,16.8l-0.4,1.2l1.2,0.1C377.3,247.4,378.7,247.5,379.7,247.5z"
		/>
	<path fill="#5F8EEF" d="M300.2,428.7c0.7,0.8,2.7,1.9,8.9,1.9c1,0,2.2,0,3.5-0.1c6.8-0.3,15.3-1.5,25.8-3l4.7-0.7
		c3.8-0.5,6.3-0.9,8.6-1.3l0.3-0.1l0.2-0.3c0.3-0.4,0.8-0.6,1.3-0.6h0.1c0.3,0,0.6,0.1,0.9,0.2l0.3,0.2l0.3-0.1
		c3.5-0.7,6.4-1.4,8.6-2c2.6-0.6,4.5-1.2,5.9-1.7c0.3-0.1,0.5-0.1,0.7-0.2c0.4-0.1,0.8-0.2,1.2-0.3l0.9-0.4l-0.3-0.9
		c-1.8-4.8-7.7-16.1-12.8-25l-0.5-0.9l-0.9,0.6c-2.9,1.8-7.9,3-15.2,3.4c-3.8,0.2-7.3,0.3-10.6,0.3c-12,0-20.2-1.2-21-1.4l-0.8-0.1
		L310,397c-2.7,7.1-3.9,7.5-4.5,7.7c-0.3,0.1-0.8,0.2-1.5,0.2c-1.6,0-3.8-0.4-6-0.9l-1.2-0.3v1.3C296.9,407,297.5,424.6,300.2,428.7
		z"/>
	<path fill="#5F8EEF" d="M356.9,241.3c1.4,1,3.1,1.8,5.3,2.7l1.3,0.5l0.1-1.4c0.3-5.4,4.6-14,6.4-17.5l0.8-1.5h-3.5
		c-4.9,0.2-10.1,9.3-12.1,14l-0.1,0.2v0.3C355,239.4,355.6,240.3,356.9,241.3z"/>
	<path fill="#5F8EEF" d="M225.1,171c0.6,0.8,1.5,2.4,2.3,4.3c1.1,2.8,2.2,6.4,3.3,10.7l0.1,0.3c0.2,1.1-0.5,2.2-1.6,2.4l-0.2,0.1
		h-0.1c-0.8,0-1.8-0.5-2-1.5c-0.4-1.9-1.1-4.3-1.7-6.5l-0.5-1.7l-1.2,1.3c-2.8,3-4.9,8-5.3,12.8c-0.3,3.4,0.1,8.1,3.6,11
		c8,6.3,21.8,6.4,21.9,6.4s0.4,0.1,0.6,0.1l0.3,0.1l0.3-0.1c3.5-1.1,7.6-0.4,10.3,0.3l1.6,0.4l-0.4-1.6c-0.4-1.7-1.4-3.7-2.9-6.1
		c-4-6.1-6.9-13.5-7.9-20.2v-0.2l-0.1-0.2c-0.2-0.2-0.2-0.3-0.3-0.5c0,0,0-0.2-0.1-0.3c-1.6-5.3-2.2-10.2-2.5-13.3v-0.2
		c-1.7-6.4-4.4-18.3-2.3-25.6c3.1-10.6,13.6-21.5,15.6-23.6l0.5-0.5l-0.2-0.6c-0.5-1.2-0.7-2.4-0.8-3.5l-0.1-1.6l-1.4,0.9
		c-2.9,1.9-5.3,3.5-6.6,4.4c-0.3,0.2-0.6,0.4-0.8,0.5l-0.3,0.2c-1.1,0.7-2.2,0.4-2.8-0.3c-0.6-0.9-0.4-2.1,0.4-2.8
		c0.2-0.1,0.5-0.3,1.2-0.8c2-1.4,6.1-4.2,11-7.1c4.3-2.6,8.5-4.7,12.2-6.2c9.7-4,18.4-3.9,21.6-3.6c0.1,0,0.1,0,0.2,0
		c1.1,0.2,1.9,1.3,1.7,2.3c0,0.5-0.3,0.9-0.6,1.2c-0.4,0.4-1,0.5-1.5,0.5c-0.2,0-3.9-0.5-9.4,0.4l-1.8,0.3l1.2,1.4
		c0.9,1,1.6,1.9,2.2,2.9l0.3,0.5h0.6c2.8-0.2,12.3-0.4,18.4,2.8l0.3,0.1h0.3c4.2-0.3,8.3,0.3,12.3,1.7l1.3,0.5v-1.4
		c0-5.1-0.6-10.3-1.8-15.7c-2.5-11.1-13.8-24.2-30-26.7c-1.6-0.2-3.1-0.3-4.7-0.3c-13.9,0-29,6.8-43.7,19.7
		c-6.4,5.6-12.6,12.2-18.8,20.2c-8.1,10.4-9.2,24.2-3.3,40C217.3,160.5,223.8,169.3,225.1,171z"/>
	<path fill="#5F8EEF" d="M276.7,392.6l-0.1-0.4l-0.4-0.2c-0.2-0.1-0.4-0.1-0.5-0.2h-0.1h-0.1c-6.3-2.3-10.7-4.4-13.1-6.3l-0.5-0.4
		l-0.5,0.2c-3.3,1.5-17.4,8.1-20.1,11.1l-0.3,0.4l0.1,0.5c0.4,1.8,3.1,5.4,7.1,9.8c2,2.2,4.2,4.3,6.5,6.4c4.4,4.1,11.9,5.9,15.7,6.3
		h0.4l0.3-0.3c2.7-2.5,10.9-13.7,14-18.4l0.6-1l-1.1-0.5c-1.9-0.8-3.8-1.8-5.6-2.9C278,396,277.2,394.6,276.7,392.6z"/>
	<path fill="#5F8EEF" d="M264.7,246.7l-0.7,0.2c-1,0.3-4,1.4-7.5,3.5l-0.6,0.4l0.2,0.7c0.3,0.8,1.1,3.4,4.2,5.4l0.7,0.5l0.6-0.7
		c2.1-2.6,3.9-4.4,5-5.5l0.5-0.5l-0.4-0.7c-0.4-0.7-0.8-1.4-1.2-2L264.7,246.7z"/>
	<path fill="#5F8EEF" d="M247,262.1l-0.9-1.8l-0.9,1.8c-3.3,6.8,0.3,11.1,2.7,13.1l0.8,0.6l0.6-0.6c0.2-0.2,0.3-0.4,0.3-0.5l0.1-0.2
		c0.9-2.1,2-4.2,3.2-6l0.6-1l-1.1-0.5C249.9,265.9,248.1,264.2,247,262.1z"/>
	<path fill="#5F8EEF" d="M445.4,294.2c-2,0.4-6.7,1.7-10.9,5.3c-5.3,4.5-8.6,12.8-9.2,14.3c1,2.8,1.9,5.4,2.6,7.6
		c2.6-5.7,6.7-13.2,12.2-17.6c3.5-2.9,6.3-4.5,8.6-5.4C447.7,297.2,446.6,295.8,445.4,294.2z"/>
	<path fill="#5F8EEF" d="M300.3,267.8c-8,0-14.7-1.4-20.3-4.1c0.7,1.5,1.7,3.2,3.3,4.8c3.8,3.7,9.6,5.8,17.4,6.3
		c1.8,0.1,3.6,0.2,5.6,0.1c15.2-0.5,24.5-7.2,29.6-12.7c4.4-4.8,7.3-10.4,8.8-15.3c-10.2,12.6-23.3,19.6-38.6,20.7
		C304.1,267.7,302.1,267.8,300.3,267.8z"/>
	<path fill="#5F8EEF" d="M230,333.3c10.9,0,28-7.5,30.5-12.2c3-5.6,3.5-10.9,3.5-10.9c0.1-1.1,0.8-2,1.7-2.4
		c-4.8-13.8-1.8-24-1.1-26c0.5-1.6,2.2-2.5,3.8-1.9c1.6,0.6,2.4,2.2,1.9,3.8c0,0.1,0,0.1,0,0.1c-0.4,1.1-3.4,10.3,1.4,23
		c0.2,0.5,0.4,0.9,0.5,1.3c5,14.1,3.4,21.6-2,37.1c-3.2,9.3-4.8,14.1-5.5,16.4c4.4,2.9,10.4,6.8,13.7,7.9c0.8-3,1.5-5.2,1.7-5.9
		c0.3-0.9,0.8-2.6,2.5-2.9c3-2.2,8.7-1.9,13.3-1.2c1.9-4.5,0.6-12.9-0.9-22.4c-1.1-7.3-2.4-15.6-2.9-24.5
		c-0.6-16.4,2.7-27.3,4.7-32.2c-7.8-1-13.9-3.6-18.1-7.9c-5.3-5.4-5.9-11.8-6-13.7c-1.2-1.1-2.3-2.2-3.4-3.5
		c-3.6,3.8-11.5,12.7-15.1,21c-0.4,1.1-0.9,2.3-1.4,3.5c-0.3,0.9-0.7,1.8-1,2.7c-4,10.4-8.5,22.1-19.9,26.2
		c-6.4,2.3-12.4,3.8-17.4,4.4c-2.5,4-3.5,9.3-2.8,15.1c0.6,4.9,2,7.2,3.1,8.4C219.3,334.8,224.6,333.3,230,333.3z"/>
	<path fill="#5F8EEF" d="M200,312.3c-1.8-0.3-3.5-0.5-4.6-0.6c-2.2,1.7-8,7.3-7.8,17.8c0.1,1.9,0.4,3.7,1.1,5.2
		c0.8,2,2.2,3.6,4.1,4.9c3,2,6.4,2.6,8.5,2.7c-1.2-1.9-2.6-5.1-3.7-10.1C196,324.6,198.4,316.4,200,312.3z"/>
</g>
<g>
	<path fill="#D3E4F6" d="M583.1,575.2c-20.9-8.6-55-19.9-109.7-18.1c-42.6,1.6-59.8,7-64,8.6l-1.2,0.4l0.7,1
		c7.9,12.1,11.9,18.8,12.2,21.5c0.4,3.6-1.3,7.8-4.6,11.6c-0.9,1-2,2.1-3.1,3l-0.8,0.6l0.7,0.8c2.8,3.3,12.5,15.3,17.5,29.7
		c2.3,6.5,3.1,13.2,2.6,19.9l-0.1,1.4l1.4-0.4c7.3-2,18-5.2,26.5-9.4c10.6-5.3,13.2-11.2,13.8-13.3c4.9-0.8,33.9-6.1,46.6-12.6
		c7.2-3.7,19.1-6.1,30.6-8.4c10.2-2.1,19.8-4,26.5-6.8c16.7-6.9,18-14.4,18-16.5C596.8,583.3,592.2,578.9,583.1,575.2z"/>
	<path fill="#D3E4F6" d="M373.1,610l-0.6-0.2c-5.8-1.6-9-4-11-5.4l-0.4-0.3l-0.4-0.4l-0.1-0.1c-1.3-0.7-1.8-2.3-3-7.2
		c-0.8-3.2-1.9-7.6-3.5-12.2c-0.3-0.9-0.8-2.1-1.5-3.4l-0.8-1.7l-6.3,2.5c-1.3,0-8.7-0.2-28.7,1.8c-18.7,1.8-38.7,8.8-44.3,10.9
		l-0.4,0.1l-0.2,0.4c-0.1,0.2-0.1,0.3-0.2,0.3l-0.1,0.1c-1.6,1.9-3.5,3.4-5.8,4.5l-0.8,0.4l0.3,1.1c1.4,4.8,5.9,19.4,8.1,27.4
		l0.1,0.4c0.5,1.9,1,3.6,1.1,4.3c0.4,2.4-0.4,5-2.2,7c-2.3,2.7-7.1,5.9-16.8,6c-13.6,0.1-17.3-0.2-24.5-1.9
		c-2.3-0.6-3.1-0.3-5.7,0.6l-0.8,0.2c-4.2,1.3-11.2,3.5-28.8,5c-4.2,0.3-7.8,0.5-10.8,0.5c-13.9,0-24-2.9-28.4-8.1
		c-0.4-0.4-1.2-1.6-1.5-5.6l-0.2-2.7l-1.6,2.2c-3.6,4.8-4.8,9.3-3.5,13.3c1.6,5.1,7.2,9.3,16.6,12.4c29.9,9.8,69,16.1,113,18.2
		c12.6,0.6,23.6,0.8,33.2,0.8c30.1,0,46.3-2.4,54-4.2l1.5-0.3l-0.9-1.2c-3.2-4.4-6.7-12.5-0.7-31.6c1.2-3.6,2.5-7,3.7-10.2l0.6-1.5
		c3.9-10.6,2.9-18.7,2.3-21.6L373.1,610z"/>
</g>
<path fill="#E20142" d="M417.1,589.1L417.1,589.1c-0.4-2.3-6-11.2-15.7-25.8l-0.2-0.3c-14.7-22.6-32.9-50.7-34.8-63.4
	c-2.9-19.4-4.1-68.9-4.2-71v-1.2l-1.2,0.3c-0.5,0.1-1,0.2-1.5,0.3c-1,0.2-2,0.5-3.1,0.7l-0.8,0.1v0.9c0.2,7.2,2,70.6,6.7,83.4
	c2.5,7,16,28.7,27.9,47.8l0.4,0.7c12.5,20,18.8,30.5,21.3,35.8l0.7,1.4l1-1.2C416.1,594.7,417.4,591.5,417.1,589.1z"/>
<g id="vs-skin">
	<path fill="#FACFBD" d="M508.6,317.1c-7.5-0.4-15.8-5.6-16.1-5.8l-0.1-0.1c-0.3-0.2-0.6-0.4-0.7-0.8l-0.2-0.7h-0.7
		c-0.6,0-1.4-0.1-2.1-0.3c-7.1-1.4-24.4,5.3-26.5,8.6l-0.1,0.2c-0.3,0.8-1,1.4-1.9,1.4c-0.1,0-0.2,0-0.2,0l-0.2-0.1
		c-0.5-0.1-1-0.5-1.2-0.9c-0.3-0.4-0.4-1-0.2-1.5c1.4-5.6,22.4-13.5,31.3-11.7c1.4,0.2,2.8,0.3,3.9,0.2c3-0.2,5.7-1.4,7.3-3.3
		c1.6-2,1.9-4.4,0.9-7.5c-0.9-2.6-2.9-4.3-6-5.2c-6.4-1.8-15.8,0.9-23,6.5c-12,9.3-26.2,21.4-26.4,21.6c-0.4,0.3-0.9,0.5-1.4,0.5
		s-1-0.3-1.4-0.7c-0.3-0.4-0.5-0.9-0.5-1.4s0.3-1,0.7-1.4c0.3-0.3,6-5.1,13-10.8l-1.2-1.6c-0.5,0.3-1.2,0.4-1.9,0.2l-0.2-0.1h-0.2
		c-1.3,0-4.3,0.7-9.9,5.2c-2.9,2.4-5.7,6.1-8.5,11.4l-0.8,1.5h1.7c0.3,0,0.5,0.1,0.8,0.3c0.5,0.3,0.8,0.8,0.8,1.4
		c0.1,0.5-0.1,1-0.4,1.4c-2.7,3.7-7.8,12.6-7.8,19.9c0,1.2,0.2,2.5,0.5,3.7c1.4,4.3,4.1,7.4,7.6,8.7c1.1,0.4,2.2,0.6,3.2,0.6
		c1.4,0,2.8-0.4,4.1-1.1c3.8-2.3,3.3-5.9,1.2-13.5c-1.7-6.2-1.2-13.7,1.1-14.9c0.5-0.3,1-0.3,1.5-0.1c0.5,0.2,0.9,0.5,1.1,1
		c0.3,0.7,0.3,1.4-0.1,2l-0.1,0.2c-0.3,0.7-0.6,2.5-0.6,4.6v1h1c0.1,0,0.3,0.1,0.5,0.1c0.8,0.3,5.6,2,9.7-1.7
		c1.4-1.2,2.5-3.1,3.7-5.1l0.4-0.8c2.6-4.7,6.2-11.1,14.5-9.4c4.1,0.8,7.5,2.3,10.9,3.7l0.6,0.2c5,2.1,9.3,4,14.4,3.5
		c2-0.2,3.5-0.8,4.2-2c1.2-1.7,1.1-4.3,0.8-5.8l2.2-1.4L508.6,317.1z"/>
	<path fill="#FACFBD" d="M348.1,188.8l0.1,0.1c0.3,0.4,0.6,0.8,0.8,1.2l0.9,1.4l0.9-1.4c0.9-1.6,2.3-4,2.9-6.9
		c0.9-3.5-0.1-8.6-2.1-11.8l0,0c-0.4-0.6-1.6-2.3-3.3-2.6c-4.1-0.8-6.8,3.8-7,4l-0.1,0.2v0.1l0,0l-0.4,0.4l0.2,0.6
		C343.5,182.5,344.9,184.4,348.1,188.8z"/>
	<path fill="#FACFBD" d="M347.8,195.6c-0.1-0.2-0.2-0.3-0.3-0.4c-0.1-0.2-0.3-0.4-0.4-0.6c-0.4-0.6-0.8-1.1-1.1-1.6
		c-0.4-0.6-0.8-1.1-1.1-1.6c-4.5-6.3-5.8-8.5-10.9-25.7l-0.1-0.2l-0.1-0.1c-0.2-0.2-0.2-0.4-0.3-0.8c0-0.1,0-0.2,0-0.2
		c0-0.1,0-0.2,0-0.3v-0.2c-0.1-0.5-0.2-1-0.4-1.6l-0.1-0.5c-6.6-22.9-20.7-24.7-39.9-20.4c-19.2,4.4-37.2,15.8-41.8,26.6
		c-1.7,4.1-2.2,8.7-1.6,13.7c0.8,6.5,3.6,13.9,7.6,19.9c6.2,9.5,3.1,13.4,2.4,14c-0.6,0.6-1.5,0.8-2.2,0.4c-1.9-0.9-7.7-3-12-1.1
		l-0.1,0.1c-0.1,0.1-0.3,0.2-0.4,0.3c-0.2,0.1-0.4,0.2-0.6,0.4c-1.6,1.1-2.7,2.8-3.5,5.3c-2,6.3-1.7,11.6,0.8,14.9
		c2.6,3.4,6.7,3.6,8.3,3.5c7-0.1,8.1-2.8,8.2-3.1v-0.2c0.1-0.4,0.3-0.8,0.6-1.2l0.7-0.8c0.5-0.5,1-0.7,1.4-0.7h0.4
		c0.6,0.2,1.2,0.6,1.5,1.2l0,0c0.6,1.6,3.6,7.1,8.6,14.8c2,3,4.1,5.3,6.4,7c5.6,4.3,12.7,6.4,22.3,6.4c1.8,0,3.7-0.1,5.7-0.2
		c16.7-1.2,30.3-10.1,40.3-26.3c0.8-1.3,1.6-2.6,2.3-4C357.8,214.9,353.7,204.4,347.8,195.6L347.8,195.6z M285.4,175.5
		c0.3,1.4,0.2,3.3-0.4,4.2c-0.4,0.6-0.9,0.7-1.4,0.7c-0.1,0-0.2-0.1-0.4-0.1c-1.4-0.4-2.1-2.1-2.4-3.2l-0.3-1l-1,0.3
		c-4.9,1.5-9.4,2.8-12.3,3.7c-2.4,0.7-3.2,0.9-3.5,1.1h-0.1c-0.4,0-0.9-0.2-1-0.8c-0.1-0.3,0-0.6,0.1-0.8s0.3-0.4,0.6-0.5l0,0
		c1.8-0.4,11.5-3.4,17.5-5.3c1.4-0.5,2.8-0.9,4.3-1.4c1.4-0.5,2.8-0.9,4.2-1.4l0.4-0.1l0.2-0.4c0.3-0.6,1.4-3.1,2.3-8.1
		c1-6.2-0.7-10.6-0.8-10.8c-0.1-0.3-0.1-0.6,0.2-0.7c0.3-0.1,0.6-0.1,0.7,0.3c0,0,1.9,4.4,1.7,10.5c-0.1,2.5-0.5,4.7-0.8,6.2
		l-0.3,1.7l1.7-0.6c1.4-0.5,2.8-1,4.1-1.5c1.5-0.6,2.9-1.3,4.2-1.8l1.1-0.5c6.2-2.9,10.2-5.5,11.5-6.3c0.1,0,0.1-0.1,0.2-0.1
		l0.3-0.2c0.5-0.3,1.1-0.2,1.4,0.2c0.1,0.2,0.2,0.5,0.2,0.8c0,0.2-0.1,0.4-0.4,0.6l0,0c-0.1,0.1-0.3,0.2-0.5,0.3
		c-1,0.7-3.2,2.2-6.8,4.2l-0.9,0.5l0.6,0.9c0.7,1,1.3,2.5,0.9,3.7c-0.3,0.8-0.9,1.4-1.8,1.6c-1,0.3-1.7,0.2-2.4-0.3
		c-1.1-0.7-1.7-1.7-2.1-2.7l-0.4-0.8l-0.9,0.3c-0.8,0.3-1.6,0.6-2.4,1c-0.3,0.1-0.7,0.3-1,0.4c-3.2,1.3-7.9,3-13.4,4.8l-0.9,0.3
		L285.4,175.5z M327.9,200.1c-1.8,4.9-7,11.1-14.1,13.3c-1.7,0.6-3.5,0.8-5.2,0.8c-3.5,0-6.8-1.1-9.8-3.2c-0.4-0.3-0.5-1-0.2-1.4
		c0.2-0.3,0.5-0.4,0.8-0.4c0.2,0,0.4,0.1,0.6,0.2c4.2,2.9,8.7,3.6,13.3,2.1c6.5-2.1,11.2-7.7,12.8-12c1.9-5,1.7-9.7-0.4-12.8
		c-2-2.9-5.7-4.3-10.9-4.3h-0.2c-12.1,0.1-17,9.5-17.7,11.6l0,0c-0.2,0.5-0.8,0.8-1.3,0.6c-0.3-0.1-0.5-0.3-0.6-0.6
		c-0.1-0.1-0.2-0.4,0-0.7l0.1-0.2l0,0c0.5-1.1,5.5-12.8,19.5-12.9h0.2c5.9,0,10.2,1.7,12.6,5.2C329.7,189.1,330,194.5,327.9,200.1z
		 M337.7,224.8L337.7,224.8c-0.1,0.4-0.4,0.8-0.7,0.9c-0.3,0.1-0.6,0.2-0.9,0l-0.2-0.1c-0.1,0-0.6-0.1-1.8-0.1
		c-2.7,0-7.5,0.6-14.8,3.3c-11.5,4.2-22.9,15.5-24.2,16.8c-0.7,0.7-1.5,0.7-2.1,0.1c-0.3-0.3-0.5-0.6-0.5-1s0.1-0.7,0.5-1.1
		c2.2-2.2,13.5-13.2,25.3-17.5c8-2.9,13-3.4,15.8-3.4c1.8,0,2.6,0.2,2.6,0.2c0.4,0.1,0.8,0.4,1,0.8
		C337.8,224.1,337.8,224.4,337.7,224.8z"/>
	<path fill="#FACFBD" d="M181,300.3c0.4-13.5-3.5-21-6.9-23.3c-1.2-0.8-2.5-1.4-4-1.8l-1.9-0.5l0.7,1.9c3,7.5,5.1,17.2,5.1,17.3
		c0.2,1.1-0.5,2.2-1.6,2.5c-0.1,0-0.2,0-0.4,0c-0.8,0-1.7-0.5-1.9-1.5c-1.2-5.5-4.1-16-6.8-20.8l-0.2-0.3c-0.2-0.4-0.4-0.7-0.7-1.1
		c-2.7-3.4-6.8-4.1-9.6-3.6l-1.6,0.3l1.9,2.5c4.3,6.1,9.9,20.1,10.2,21c0.4,1-0.1,2.2-1.1,2.6h-0.1c-0.3,0.1-0.4,0.1-0.6,0.1
		c-0.8,0-1.5-0.5-1.9-1.3l-0.3-0.6l-0.2-0.4c-3.9-9.5-7.2-16-9.5-19.3c-2.2-3.2-4.9-5.2-7.5-5.5c-1.7-0.2-3.3,0.2-4.6,1.2
		s-2.2,2.3-2.6,3.9l-0.4,1.2l1.2,0.1c3.4,0.3,7.1,2.6,9.9,6.1c2.7,3.4,5.8,8.8,8.8,14.1l0.3,0.6c1.7,3.1,3.1,5.8,3.9,7.4
		c0.6,1.2,0.8,1.5,0.8,1.6c0.3,0.5,0.3,1,0.1,1.5s-0.5,0.9-1,1.1c-0.5,0.3-1,0.3-1.5,0.1c-0.5-0.2-0.9-0.5-1.1-1
		c-0.8-1.7-8.2-16.4-13.3-22.8c-2.7-3.5-6.2-5-8.3-4.7c-0.1,0-0.3,0.1-0.4,0.1l-0.2,0.1c-1.9,0.8-1.7,4.1-1.4,6
		c1.7,10.7,9,17.5,17.1,24.1c6.9,5.7,7.4,11.3,7.1,14.1l0,0c0,0.5-0.3,1.1-0.7,1.5c-0.6,0.6-1.2,0.5-2.6,0.5h-0.5
		c-3-0.2-9.1-0.7-15.5,1.4c-3.1,1-5.1,2.5-6.3,4.7c-1.8,3.3-0.9,7.7,0.1,10.7c1.1,3,3.8,4.6,5.4,5.2c1.9,0.8,4,1.1,6.2,1.1
		c3.8,0,8-1.1,11.9-3.2c9.1-4.7,12.2-8,13.6-9.4c0.7-0.8,1.2-1.2,1.8-1.6c0.6-0.3,1.9-1,12.1-0.8h1.3l-0.3-1.2
		c-0.2-0.8-0.3-1.7-0.3-2.6l0,0c-0.1-4.8,0.8-9,2.7-12.5l0.4-0.7l-0.6-0.5C183.5,314.3,180.8,310.2,181,300.3z"/>
	<path fill="#FACFBD" d="M513.6,293.8l-0.6-0.1c-1.6-0.2-7-0.7-7.5-0.7h-0.7l-1.7,4.1l-1,7l-5.8,3.8l-0.6,3.1l7.1,3.7H514l4.9-9.3
		L513.6,293.8z"/>
</g>
<g>
	<path fill="#808080" d="M185.6,605.4l-0.4-0.6l-0.7,0.3c-12.7,4.5-22.9,13.3-24.2,21c-0.3,1.7-0.5,3.3-0.6,4.6l-0.1,0.8l0.7,0.2
		c0.4,0.1,0.7,0.4,0.9,0.7l0.1,0.2c0.8,1.2,4.9,6.5,17.5,6.5c2.6,0,5.6-0.2,9-0.7c3-0.4,5.9-0.9,8.9-1.5l0.8-0.2v-0.8
		C197.3,622.6,185.7,605.6,185.6,605.4z"/>
	<path fill="#808080" d="M267.1,620c-1.7-5.8-3.6-12.4-5.1-17.9l-0.2-0.9l-0.9,0.2c-2.1,0.5-4.3,0.7-6.3,0.7h-0.3
		c-10.2,0-21.3-5.4-27.6-10l-0.7-0.5l-0.6,0.6c-2.1,2-10.5,8.5-27.6,9.8c-3,0.2-5.7,0.7-8.2,1.3l-1.3,0.4l0.8,1.2
		c1.1,1.7,11,16.8,11.5,29.9v1.2l10.7-2.2c6-1.2,10-2.1,14.7-2.1c3.2,0,6.5,0.4,10.1,0.7l0.6,0.1c6.5,0.7,13.5,1.4,21.2,0.7
		c8.3-0.7,10.8-2.8,11.5-3.7l0.3-0.4l-0.1-0.5C268.9,626.2,268.1,623.2,267.1,620z"/>
	<path fill="#808080" d="M400.3,639.7h-0.6c-16.1,0-25.9,10.4-28.6,13.6l-0.3,0.3v0.4c0.7,7.7,3.7,12.9,8.9,15.4
		c6.6,3.2,13.8,4.7,20.5,4.7c6.6,0,12.7-1.5,17.1-4.6c7.7-5.3,10.7-13.1,11.5-15.3l0.2-0.5l-0.3-0.4
		C426.1,650.2,416.7,640,400.3,639.7z"/>
	<path fill="#808080" d="M399.7,636.8c0.2,0,0.4,0,0.6,0c13.3,0.2,22.3,6.3,27.6,11.3l1.9,1.8l-0.2-2.6c-0.3-4.1-1.1-7.9-2.5-11.6
		c-5-14.4-15.1-26.5-17.1-28.7l-0.5-0.6l-0.7,0.4c-5.2,2.9-11.5,4.5-18.6,4.9c-1.3,0.1-2.4,0.1-3.6,0.1c-2.6,0-5.2-0.2-7.9-0.5
		l-1.3-0.2l0.2,1.3c0.6,4.6,0.6,12-2.9,21.4l-0.6,1.5c-1,2.6-2,5.4-3,8.3l-0.1,0.3l0.1,0.3c0.1,0.4,0.1,0.6,0.1,0.9
		c0,0-0.1,0.6-0.2,1.4l-0.3,2.6l2-1.8C378.1,642.5,387.2,636.8,399.7,636.8z"/>
	<path fill="#808080" d="M345.9,379.7c-6.4,1.8-12.7,2.7-18.7,2.7c-4.3,0-8.2-0.5-11.4-1.4l-1-0.3l-0.2,1c-0.5,2.2-1.1,4.3-1.6,5.9
		c-0.2,0.7-0.4,1.3-0.5,1.8c-0.1,0.3-0.2,0.6-0.3,0.9c-0.1,0.2-0.1,0.5-0.2,0.7l-0.5,1.2l1.3,0.2c2.4,0.3,9.6,1.2,19.5,1.2
		c3.2,0,6.7-0.1,10.3-0.3c8.8-0.6,13-1.8,14.7-4.2c0.7-1.1,0.9-2.4,0.9-3.6c0.1-0.4,0.1-0.8,0.1-1.1c0.1-2.9,0.2-5.1,0.3-6.5
		l0.1-1.4l-1.4,0.4C354.8,377.4,351,378.4,345.9,379.7z"/>
	<path fill="#808080" d="M330.7,147.4l2,3l-0.2-3.6c-0.1-1.1,0-2.3,0-3.5c0-0.7,0-1.3,0-2c0.1-6.2-3.3-13.1-9.2-18.4
		c-2.2-2.1-4.9-3.9-7.8-5.3c-4.8-2.3-9.8-3.2-14.6-2.7c-5.2,0.6-11.7,2.6-18.2,5.5c-19.9,8.7-30.2,20.2-33.2,28
		c-1.8,4.5-2.8,9.7-2.9,15.3l-0.1,4l2-3.5c6.4-11.5,23.9-22.2,43.6-26.7C304.9,134.5,320.8,132.9,330.7,147.4z"/>
	<path fill="#808080" d="M290.7,374.7l-1.2-0.4v1.3c0,1.2-0.1,2.4-0.1,3.5c-0.1,2.8-0.2,5.2-0.1,6.5v0.8l0.8,0.1
		c1.8,0.3,5.4,0.7,7.4,0.9l1,0.1l0.1-1c0.3-2.2,0.6-6.4,0.7-8.6v-0.7l-0.7-0.3C297,376.5,293.9,375.7,290.7,374.7z"/>
	<path fill="#808080" d="M283.9,111.9c0.1,0.3,0.2,0.7,0.2,1v2.4l1.3-0.5c2.9-1.1,5.5-1.9,7.9-2.6l4.5-1.2l-4.6-0.7
		c-3.2-0.5-6.5-0.5-8.7-0.5h-1.3l0.4,1.3C283.8,111.4,283.8,111.7,283.9,111.9z"/>
	<path fill="#808080" d="M270.1,370.9l-0.9-0.5l-0.5,0.9c-2.1,4.1-3.8,8.2-4.1,10l-0.1,0.6l0.5,0.4c1.6,1.2,6,3.3,10.1,4.9l1.3,0.5
		v-1.4c0.1-3.5,0.8-7.3,1.5-10.8l0.2-0.9l-0.8-0.3C275.3,373.7,272.7,372.4,270.1,370.9z"/>
	<path fill="#808080" d="M242.4,159.7l1.4-6.2c0.5-2.1,1.1-4.3,2-6.6c2.5-6.8,8.7-13.8,17.6-20.2l1.5-1.1l-1.8-0.6
		c-1.3-0.5-2.7-1.3-4.2-2.6c-0.2-0.2-0.6-0.5-1.1-0.7l-0.6-0.2l-0.4,0.5c-2.7,2.8-11.8,12.7-14.5,22.1c-0.7,2.5-0.9,5.6-0.5,9.4
		L242.4,159.7z"/>
</g>
<g>
	<path fill="#FFF996" d="M340.5,295l-0.1-0.2l-0.2-0.1c-3-1.7-17.9-1-26.2-0.3l-0.8,0.1l-0.1,0.8c-0.4,5.1-0.4,10.6,0,12.7l0.1,0.7
		l0.7,0.1c0.8,0.1,1.9,0.1,3.3,0.1c6.8,0,19.7-0.7,23.7-1.2l0.8-0.1l0.1-0.8C342.1,304.4,342.1,297.4,340.5,295z"/>
	<path fill="#FFF996" d="M282,112.9c-0.1-0.8-0.5-1.8-1-2.9l-0.1-0.2l-0.2-0.1c-0.1-0.1-0.2-0.2-0.3-0.6v-0.2l-0.1-0.2
		c-1.1-1.7-2.5-3.4-3.7-4.6l-0.4-0.4l-0.6,0.2c-2.2,0.6-4,1.2-5.7,1.9c-3.6,1.6-7.7,3.7-11.8,6.2l-0.4,0.3l-0.1,0.5
		c-0.3,3.4,0.7,6.2,2.8,8.1c2.3,2,4.5,2.6,6.1,2.6c1,0,1.8-0.2,2.2-0.5l0,0c0.1,0,0.1-0.1,0.2-0.1h0.3l0.2-0.1
		c3.7-2.3,7.7-4.4,12-6.2l0.5-0.2l0.1-0.5C282,115.4,282.2,114.4,282,112.9L282,112.9z"/>
</g>
<path fill="none" stroke="#000000" stroke-width="6" stroke-linecap="round" stroke-linejoin="round" stroke-miterlimit="10" d="
	M260.1,236.6c0,0-0.7,4.6-10.2,4.8s-15.1-7.3-11.1-20.9s19.4-6.1,19.4-6.1s2.9-2.9-2.7-11.6c-5.6-8.7-11.2-23.7-6.1-35.6
	c5.1-11.9,23.8-23.3,43.2-27.7s35.2-2.6,42.2,21.8c7,24.3,7.3,22.6,14,32.2c6.6,9.5,11.6,21.1,1.4,40s-25.2,30-44.3,31.3
	s-29.6-4.1-36.3-14.1c-6.6-10-8.8-15-8.8-15L260.1,236.6"/>
<path fill="none" stroke="#000000" stroke-width="6" stroke-linecap="round" stroke-linejoin="round" stroke-miterlimit="10" d="
	M247.3,181.9c0,0-6.1-17.4,0.4-34.3c6.5-17,35.9-32.7,53-34.7s34.2,13.9,34,28.3c-0.3,14.4,0.9,23,0.9,23"/>
<path fill="none" stroke="#000000" stroke-width="6" stroke-linecap="round" stroke-linejoin="round" stroke-miterlimit="10" d="
	M243.9,212.7c0,0-14.6,0-23.1-6.9s-3.2-24.9,4.3-28.9"/>
<path fill="none" stroke="#000000" stroke-width="6" stroke-linecap="round" stroke-linejoin="round" stroke-miterlimit="10" d="
	M229.1,186.9c0,0-2.4-10.9-5.4-14.6s-28.8-38.9-8.9-64.4s42.7-40.7,64-40.7s34,16.7,36.6,28.3s1.7,18.9,1.7,18.9"/>
<path fill="none" stroke="#000000" stroke-width="6" stroke-linecap="round" stroke-linejoin="round" stroke-miterlimit="10" d="
	M245.2,117.9c0,0,12.7-9.3,23.9-14s20.8-3.5,20.8-3.5"/>
<path fill="none" stroke="#000000" stroke-width="4" stroke-linecap="round" stroke-linejoin="round" stroke-miterlimit="10" d="
	M257,110c0,0-2.3,7.1,2.7,11.6c5,4.5,9.4,2.3,9.4,2.3"/>
<path fill="none" stroke="#000000" stroke-width="4" stroke-linecap="round" stroke-linejoin="round" stroke-miterlimit="10" d="
	M276.3,102.4c0,0,6.6,6.1,6.8,10.6c0.3,4.4-1.4,5.5-1.4,5.5"/>
<path fill="none" stroke="#000000" stroke-width="4" stroke-linecap="round" stroke-linejoin="round" stroke-miterlimit="10" d="
	M281.4,109c0,0,12.4-1.2,19.4,2.6"/>
<path fill="none" stroke="#000000" stroke-width="4" stroke-linecap="round" stroke-linejoin="round" stroke-miterlimit="10" d="
	M257.4,120c0,0-12.6,12.1-15.9,23.7c-3.3,11.6,5.5,35.5,5.5,35.5"/>
<path fill="none" stroke="#000000" stroke-width="4" stroke-linecap="round" stroke-linejoin="round" stroke-miterlimit="10" d="
	M263.7,180c0,0,24.3-7,35.5-11.5s17.5-8.9,17.5-8.9"/>
<path fill="none" stroke="#000000" stroke-width="4" stroke-linecap="round" stroke-linejoin="round" stroke-miterlimit="10" d="
	M281.6,175.6c0,0,0.5,3.3,1.9,3.6s1.1-3.6,0.8-4"/>
<path fill="none" stroke="#000000" stroke-width="4" stroke-linecap="round" stroke-linejoin="round" stroke-miterlimit="10" d="
	M304.7,166.8c0,0,1,4.5,3.7,3.7s0.1-4.3,0.1-4.3l-1.7,0.4l1,2.1"/>
<path fill="none" stroke="#000000" stroke-width="3" stroke-linecap="round" stroke-linejoin="round" stroke-miterlimit="10" d="
	M290.2,171.2c0,0,1.6-2.2,2.7-8.7s-0.8-11.1-0.8-11.1s1.9,4.3,1.7,10.3c-0.2,6.1-1.5,8.7-1.5,8.7"/>
<path fill="none" stroke="#000000" stroke-width="4" stroke-linecap="round" stroke-linejoin="round" stroke-miterlimit="10" d="
	M295.8,193.7c0,0,4.4-12.3,18.6-12.3c14.2-0.1,15.6,10,12.5,18.5c-3.1,8.4-15.7,18.6-27.6,10.4"/>
<path fill="none" stroke="#000000" stroke-width="5" stroke-linecap="round" stroke-linejoin="round" stroke-miterlimit="10" d="
	M294,244.8c0,0,12.3-12.7,24.8-17.2s17.5-3.1,17.5-3.1"/>
<path fill="none" stroke="#000000" stroke-width="6" stroke-linecap="round" stroke-linejoin="round" stroke-miterlimit="10" d="
	M339.5,171.8c0,0,3.4-6,9.1-5s8.4,10.9,7,16.9s-5.5,10.7-5.5,10.7"/>
<path fill="none" stroke="#000000" stroke-width="6" stroke-linecap="round" stroke-linejoin="round" stroke-miterlimit="10" d="
	M269.3,251.4c0,0-12.7,12.3-17.6,23.8s-8.4,26.3-20.7,30.7c-12.3,4.4-20.6,5-24.9,4.2s-11.5-1.7-11.5-1.7s-10.3,6.5-10,21
	c0.3,14.6,15.8,16.8,19.6,15.4s14.8-8.5,25.9-8.5c11.1,0,29.8-7.6,33.1-13.8s3.8-12.1,3.8-12.1"/>
<path fill="none" stroke="#000000" stroke-width="6" stroke-linecap="round" stroke-linejoin="round" stroke-miterlimit="10" d="
	M186.8,314.7c0,0-4.3-2.3-4-14.4c0.4-12.1-2.7-21.7-7.9-25s-9.6-2.6-9.6-2.6"/>
<path fill="none" stroke="#000000" stroke-width="6" stroke-linecap="round" stroke-linejoin="round" stroke-miterlimit="10" d="
	M171.9,294.2c0,0-4-17.7-8-22.9s-11.2-5.5-14.6-3.4"/>
<path fill="none" stroke="#000000" stroke-width="6" stroke-linecap="round" stroke-linejoin="round" stroke-miterlimit="10" d="
	M161.2,293.4c0,0-5.7-14.5-10-20.6s-10.3-8.4-14.9-4.7c-4.6,3.6-3.6,8.4-3.6,8.4"/>
<path fill="none" stroke="#000000" stroke-width="6" stroke-linecap="round" stroke-linejoin="round" stroke-miterlimit="10" d="
	M157.5,305.4c0,0-8-16.2-13.5-23.2c-5.4-7-15.7-8.6-13.9,3.1c1.8,11.6,10.1,19.1,17.7,25.4s6.3,12.3,6.3,12.6s-8.8-1.5-17.9,1.4
	s-9.8,10.4-7.3,17.9s14.2,10.7,26.4,4.3c12.2-6.3,13.9-10.1,15.5-11s12.9-0.5,13.1-0.5"/>
<path fill="none" stroke="#000000" stroke-width="6" stroke-linecap="round" stroke-linejoin="round" stroke-miterlimit="10" d="
	M275.9,258.5c0,0-0.9,20.4,30.5,19.4c31.3-1,43.1-27.1,42.6-39.3"/>
<path fill="none" stroke="#000000" stroke-width="6" stroke-linecap="round" stroke-linejoin="round" stroke-miterlimit="10" d="
	M264,244.9c0,0-13.4,3.7-19.7,15.1c-6.4,11.4,3.1,17.4,4.8,18.4"/>
<path fill="none" stroke="#000000" stroke-width="5" stroke-linecap="round" stroke-linejoin="round" stroke-miterlimit="10" d="
	M254.5,250.5c0,0,0.4,5.2,6.2,8.3"/>
<path fill="none" stroke="#000000" stroke-width="5" stroke-linecap="round" stroke-linejoin="round" stroke-miterlimit="10" d="
	M247.3,257.7c0,0,0.3,6.4,7.7,8.5"/>
<path fill="none" stroke="#000000" stroke-width="6" stroke-linecap="round" stroke-linejoin="round" stroke-miterlimit="10" d="
	M267.5,282.8c-0.1,0.3-3.9,10.7,1.4,25s3.8,20.9-1.5,36.3c-5.4,15.4-6.1,18.6-6.1,18.6s12.7,9.1,17.7,10"/>
<path fill="none" stroke="#000000" stroke-width="6" stroke-linecap="round" stroke-linejoin="round" stroke-miterlimit="10" d="
	M283.3,363.6c-0.3,0-8.6,27.2-2.8,31.5s22,8.3,24.3,7.6c2.3-0.8,9.7-25.4,9.2-31.6c-0.5-6.1-27.1-12.1-30.1-7.5"/>
<path fill="none" stroke="#000000" stroke-width="6" stroke-linecap="round" stroke-linejoin="round" stroke-miterlimit="10" d="
	M315.5,378.9c0,0,10.6,4.1,29.9-1s20.4-5.9,20.4-5.9s4.9-33.3-0.1-57.6s-7.8-35.5-6.3-38.7"/>
<path fill="none" stroke="#000000" stroke-width="6" stroke-linecap="round" stroke-linejoin="round" stroke-miterlimit="10" d="
	M350.3,280.6c0,0,8.3-11.1,25-8.9s31.7,5.7,38,19.8c6.4,14,14.2,38.9,14.2,38.9s5.2-17,14.3-24.3s12.3-5.5,12.3-5.5
	s-30.8-40.1-37.1-46.9c-6.3-6.8-24.3-13.3-24.3-13.3"/>
<path fill="none" stroke="#000000" stroke-width="6" stroke-linecap="round" stroke-linejoin="round" stroke-miterlimit="10" d="
	M353,238.3c0,0,6.3-15.7,14.2-16s20.1,5.4,22.3,8.5s-3.1,16.2-6.6,18.2s-30.1-2.6-29.8-10.3"/>
<path fill="none" stroke="#000000" stroke-width="4" stroke-linecap="round" stroke-linejoin="round" stroke-miterlimit="10" d="
	M371.9,224.5c0,0-7.9,14.4-7.2,20.2"/>
<path fill="none" stroke="#000000" stroke-width="4" stroke-linecap="round" stroke-linejoin="round" stroke-miterlimit="10" d="
	M382,227.2c-0.5,0.3-9,16.8-9,20.9"/>
<path fill="none" stroke="#000000" stroke-width="5" stroke-linecap="round" stroke-linejoin="round" stroke-miterlimit="10" d="
	M300.6,278.8c0,0-6.6,11.8-5.8,33.9s7.9,41.2,2.7,49.3"/>
<path fill="none" stroke="#000000" stroke-width="5" stroke-linecap="round" stroke-linejoin="round" stroke-miterlimit="10" d="
	M213.2,310.8c-0.4,0.7-5.2,6.6-3.8,17.8s6.8,11.6,6.8,11.6"/>
<path fill="none" stroke="#000000" stroke-width="5" stroke-linecap="round" stroke-linejoin="round" stroke-miterlimit="10" d="
	M203.5,310.4c0,0-5.6,11.4-3.4,21.2s5.1,11.2,5.1,11.2"/>
<path fill="none" stroke="#000000" stroke-width="5" stroke-linecap="round" stroke-linejoin="round" stroke-miterlimit="10" d="
	M311.7,293.4c0,0-1.4,15.4,0.8,16.6s29.9-0.5,30.5-1.1s1.3-11.6-1.4-14.9s-29.7-0.8-29.7-0.8"/>
<path fill="none" stroke="#000000" stroke-width="5" stroke-linecap="round" stroke-linejoin="round" stroke-miterlimit="10" d="
	M436.5,281.4c-6.2-1.6-18.8,8.6-19.2,16.9"/>
<path fill="none" stroke="#000000" stroke-width="5" stroke-linecap="round" stroke-linejoin="round" stroke-miterlimit="10" d="
	M422.8,313.2c0,0,3.7-10.1,10-15.6c6.3-5.4,13.4-6.1,13.4-6.1"/>
<path fill="none" stroke="#000000" stroke-width="6" stroke-linecap="round" stroke-linejoin="round" stroke-miterlimit="10" d="
	M435.1,322.5c0,0-10.8,15.1-7.5,25.4s12.6,12.6,17.9,9.3s4.1-8.6,2.1-15.7s-0.3-12.3,0.1-12.5"/>
<path fill="none" stroke="#000000" stroke-width="6" stroke-linecap="round" stroke-linejoin="round" stroke-miterlimit="10" d="
	M449.3,337.7c0,0,6.4,2.9,11.9-2s6.8-16.9,16.9-14.8s17.2,8.4,26.6,7.5s6.6-10.8,6.6-10.8"/>
<path fill="none" stroke="#000000" stroke-width="6" stroke-linecap="round" stroke-linejoin="round" stroke-miterlimit="10" d="
	M444.8,316.2c0,0,14.2-12.1,26.4-21.5c12.2-9.4,28.5-10.3,32.1-0.3v0.1c3.5,9.9-6.7,14.6-14.5,13c-7.9-1.6-27.9,6-28.9,10.2"/>
<path fill="none" stroke="#000000" stroke-width="6" stroke-linecap="round" stroke-linejoin="round" stroke-miterlimit="10" d="
	M493.3,309.7c0,0,11.8,7.3,18.9,5.3s9-23.1-7.5-22.3"/>
<path fill="none" stroke="#000000" stroke-width="6" stroke-linecap="round" stroke-linejoin="round" stroke-miterlimit="10" d="
	M267.5,369.4c0,0-5.6,10.7-4.9,13.1c0.8,2.4,13.8,7.3,13.8,7.3"/>
<path fill="none" stroke="#000000" stroke-width="6" stroke-linecap="round" stroke-linejoin="round" stroke-miterlimit="10" d="
	M310.6,394.1c0,0,13.7,2.3,32,1.1c18.4-1.1,17.2-6,17.5-10.9s0.4-8.7,0.4-8.7"/>
<path fill="none" stroke="#000000" stroke-width="4" stroke-linecap="round" stroke-linejoin="round" stroke-miterlimit="10" d="
	M288.6,373.7c0,0-0.7,13.1-0.1,13.7s10.1,1.4,10.7,1.4s1.3-11.5,1.2-11.9c-0.1-0.4-11.4-3.6-11.4-3.6"/>
<path fill="none" stroke="#000000" stroke-width="6" stroke-linecap="round" stroke-linejoin="round" stroke-miterlimit="10" d="
	M262.1,382.9c-0.3,0.1-22.1,9.5-23,13.3s8.6,13.4,14.4,18.7c5.8,5.4,15.7,6.8,17.9,6.8c2.2,0,16.3-20.4,16.8-21.5"/>
<path fill="none" stroke="#000000" stroke-width="6" stroke-linecap="round" stroke-linejoin="round" stroke-miterlimit="10" d="
	M294.8,401.8c0,0,0.3,22.6,3.9,27.9s23.6,2,44.7-0.9c21.1-3,27.8-6.6,31-6.9c3.1-0.3-15.1-31.9-15.1-31.9"/>
<path fill="none" stroke="#000000" stroke-width="6" stroke-linecap="round" stroke-linejoin="round" stroke-miterlimit="10" d="
	M245.3,408.4c0,0-34,62-33.8,69.1c0.3,7.1,0.7,10.6,0.9,11.6s9.2,49.5,10.2,66.5s-1.3,27.2,0.5,30.6c1.8,3.4,17.1,14.2,31.3,14
	c14.2-0.1,20.4-8.3,18.3-18.1c-2.2-9.8-19.8-88.5-18.3-96.4s28.2-49.7,28.2-49.7"/>
<path fill="none" stroke="#000000" stroke-width="6" stroke-linecap="round" stroke-linejoin="round" stroke-miterlimit="10" d="
	M279.4,431.9c0,0,35.2,10.7,36,13.4s5.8,72.8,9.2,81.7s28.3,47,31.7,56.7c3.4,9.7,4.4,17.9,5.6,18.4s7.3,8.5,28.3,7.5
	s29.8-13.8,29.1-20.6c-0.7-6.8-47.7-69.8-50.7-89.7c-3.1-19.9-4.3-74.4-4.3-74.4"/>
<path fill="none" stroke="#000000" stroke-width="6" stroke-linecap="round" stroke-linejoin="round" stroke-miterlimit="10" d="
	M353.7,426.5c0,0,1.7,72.9,6.8,87.1c5.1,14.2,50.7,81.9,50.9,87.5"/>
<path fill="none" stroke="#000000" stroke-width="6" stroke-linecap="round" stroke-linejoin="round" stroke-miterlimit="10" d="
	M224.6,590.2c0,0-7.7,8.4-27.1,10c-19.4,1.5-37.5,14.7-39.3,25.5s-0.5,15.1,0.1,15.7c0.6,0.6,6.3,9.7,37.7,7s29-7.5,35.9-5.9
	c6.9,1.7,10.3,1.9,24,1.8c13.7-0.1,17.7-6.6,17.1-10.6s-9.6-32.9-9.6-32.9"/>
<path fill="none" stroke="#000000" stroke-width="5" stroke-linecap="round" stroke-linejoin="round" stroke-miterlimit="10" d="
	M159.9,633.1c0,0,4.9,10.2,28.1,6.6c23.2-3.6,29.4-6.4,38-6.4s19.1,2.6,32,1.4c12.9-1.1,13.1-5.5,13.1-5.5"/>
<path fill="none" stroke="#000000" stroke-width="5" stroke-linecap="round" stroke-linejoin="round" stroke-miterlimit="10" d="
	M186.6,604.1c0,0,12.8,18.4,12.4,32.4"/>
<path fill="none" stroke="#000000" stroke-width="6" stroke-linecap="round" stroke-linejoin="round" stroke-miterlimit="10" d="
	M374.8,608.5c0,0,3.4,9.9-2,24.5s-14.6,37.3,2.6,47.1c17.2,9.9,39.8,10.2,47.5-1s12.1-27.4,6.3-44.1s-18.4-30.5-18.4-30.5"/>
<path fill="none" stroke="#000000" stroke-width="5" stroke-linecap="round" stroke-linejoin="round" stroke-miterlimit="10" d="
	M369.7,644.7c0,0-3.7,19.7,9.4,26s29.4,6.8,39.1,0s12.4-17.4,12.4-17.4s-10-14.8-30.3-15.1s-31.1,15-31.1,15"/>
<path fill="none" stroke="#000000" stroke-width="14" stroke-linecap="round" stroke-linejoin="round" stroke-miterlimit="10" stroke-opacity="0" d="
	M246.8,156.8c0-2,3.3-17.1,3.3-17.1l6.5-10.4l7.2,1.5l-9.6,19.1l15-8.5l3.9-12.1l11-4.8l6-7.2l-0.4-1.7l4.6,1.7L277,139.1l14.9-7.3
	l8.9-13.2l4.9,0.6c0,0-7.8,13.3-6.1,13.1s10,0.3,10,0.3l4.6-11.6c0,0,4.7,2.9,4.4,3.4s-3.4,5.9-2.8,6.7s7,5,7,5l1.8-5.6l3.6,7.9
	l1.1,2"/>
<path fill="none" stroke="#000000" stroke-width="20" stroke-linecap="round" stroke-linejoin="round" stroke-miterlimit="10" stroke-opacity="0" d="
	M273.9,145.9c-0.3,0.1-17.4,29.3-17.4,29.3l4.2,11.8l25.8-42.8l14.2-3.2l-38.3,56.4l3.7,7l48.2-61.2l4.4,4.1l-52.6,71.5l-16.9,5.5
	v5.3l16.9-4.4l55.6-72.1l2.5,13.6l-52.8,67.5l3.9,8.5c0,0,56.3-67.4,56.4-66.6c0.1,0.8,4.6,8.7,4.6,8.7l9.1-7.8v8.9l-19.1,12.7
	l-41.7,51l11.3,4.5l39.7-54.7l6.2,1.9l-35.5,53.5l15-2.7l24.8-41.8l-2.5,15.1L333,240.7"/>
<path fill="none" stroke="#000000" stroke-width="20" stroke-linecap="round" stroke-linejoin="round" stroke-miterlimit="10" stroke-opacity="0" d="
	M167.1,335.2c1.3-1.2,6.2-5.7,6.2-5.7l1.5-12.2c0,0-23,25.3-25.6,25s-13.4-1.4-13.4-1.4s39.4-36.1,39.1-36.8s-0.8-13.5-0.8-13.5
	L147,308.1l-5.4-2.7c0,0,30.6-25.2,28.4-25.4c-2.2-0.2-12.5-5.2-12.5-5.2L137,295.3l-5.2-12.9l10.4-7.6"/>
<path fill="none" stroke="#000000" stroke-width="20" stroke-linecap="round" stroke-linejoin="round" stroke-miterlimit="10" stroke-opacity="0" d="
	M432.2,350.7c0.6-1.5,9.3-28.2,9.3-28.2l10.6-12.5l21-10.7c0,0-32.7,50.1-32.3,50c0.5-0.2,23.1-23,23.1-23s19.5-37.4,20.7-37.4
	s11.2,0,11.2,0L479,316l5.9,3.8c0,0,13.5-23.3,15.6-23.8s9.7-0.5,9.7-0.5s-15.1,26.7-14.4,26.9c0.8,0.3,9.4,3.6,9.4,3.6l9.2-19.4"/>
<polyline fill="none" stroke="#000000" stroke-width="20" stroke-linecap="round" stroke-linejoin="round" stroke-miterlimit="10" stroke-opacity="0" points="
	267.5,120 266,115.7 275.3,112.7 "/>
<path fill="none" stroke="#000000" stroke-width="20" stroke-linecap="round" stroke-linejoin="round" stroke-miterlimit="10" stroke-opacity="0" d="
	M257.6,202.5c-2.1,0.1-23.6-1.4-23.6-1.4s-8.9-5.4-8.9-6.7s2.8-7.5,2.8-7.5l25.2,4.2l-0.2-13.9l-21.8-4l-4-11.9l15.1-0.1l0.9-8.1
	c0,0-22.4-3.8-23.5-4.7s-1.8-14.2-1.8-14.2l25.2,6.7l4.5-8.8c0,0-29.1-9.2-28.7-9.6c0.5-0.4,7-8.8,7-8.8s37.4,7.9,37.1,7.7
	s6.3-5.9,6.3-5.9l-38.1-10.6l11.8-11.2l38.8,14.2c0,0,15.6,1,15.1,1c-0.4,0-48.3-21.1-48.3-21.1l16.2-5.2l42.5,24.4L304,96
	l-34.1-19.4c0,0,16.7-0.5,17.3,0c0.6,0.5,14.8,10.2,14.8,10.2"/>
<line fill="none" stroke="#000000" stroke-width="20" stroke-linecap="round" stroke-linejoin="round" stroke-miterlimit="10" stroke-opacity="0" x1="319.9" y1="300.5" x2="335.1" y2="300.5"/>
<path fill="none" stroke="#000000" stroke-width="20" stroke-linecap="round" stroke-linejoin="round" stroke-miterlimit="10" stroke-opacity="0" d="
	M271.3,377.7l9.1,4.7l13.8-1.2l23,6.7c0,0,15.4,0,15.9,0s22.3-2.8,22.3-2.8"/>
<path fill="none" stroke="#000000" stroke-width="20" stroke-linecap="round" stroke-linejoin="round" stroke-miterlimit="10" stroke-opacity="0" d="
	M363.2,434.7c0,1.4-0.6,29.8-0.6,29.8s4.4,42,7.5,48.3c3.1,6.3,24.9,38.9,24.6,41.8"/>
<line fill="none" stroke="#000000" stroke-width="14" stroke-linecap="round" stroke-linejoin="round" stroke-miterlimit="10" stroke-opacity="0" x1="394.8" y1="560" x2="413.8" y2="590.2"/>
<path fill="none" stroke="#000000" stroke-width="20" stroke-linecap="round" stroke-linejoin="round" stroke-miterlimit="10" stroke-opacity="0" d="
	M266,252l-16.6,14.3l-56.1,45.3l-4.1,13.9l82.1-64.6l13.1-1.8l-91.1,79h15.8l85.9-76.4l15.7-0.7l-79.6,69.4l26.2-4.9l103.4-86.4
	l4.8-4.9l15.9,3.9c0,0-110.9,96.9-111.1,97.8c-0.2,0.8-4.9,18.6-3.1,18.5s120.2-107.9,120.2-107.9l7.6,3l-122.3,117l25-4.5
	l108.1-105.9l7.6,2.8L305.8,369.5l7.3,9.6c0,0,106.8-111.9,108-110.5s6.1,6.4,6.1,6.4l-92.4,102l12.5,0.5l85.2-87.8l17.1,5
	l-26.5,25.7"/>
<path fill="none" stroke="#000000" stroke-width="20" stroke-linecap="round" stroke-linejoin="round" stroke-miterlimit="10" stroke-opacity="0" d="
	M263.3,385.6c-2.4,1.1-17.4,9.7-18.2,12.4c-0.8,2.6-2.9,13.3-2.9,13.3l34.9-20l21.3,1.3c0,0-60.6,36.3-61.6,38.1
	c-1,1.9-5.3,14.7-5.3,14.7s69-47.2,82.1-47.9c13-0.7,27.6,0.8,27.6,0.8s-118.5,60.1-119,61.1s-12.9,12.3-12.9,12.3l148.4-71.2
	l7.9,9.8c0,0-153.8,68.1-153.7,70.3s4.6,15.6,4.6,15.6s151.7-76.3,151.7-74.4c0,2-12.5,22.1-12.5,22.1s-136,68.3-135.9,68.9
	s-1,12.5-1,12.5l130.5-65.6v11L222.4,538l2.8,13.2l128.5-68.1l4,14.9l-131.9,66.7l0.7,11.7l133.4-64.8l5.4,9.3L234,583.3l10.3,5.7
	l12.2,1c0,0,7.8-4.2,8.5-4.7s1.6-7.8,1.6-7.8l-17.4,5.7l118.7-49.1l3.5,5.5l-32.1,17.7l7.1,7.6l33.8-13.6l5.1,5.3L358,570.5l4.6,8.6
	l26.6-10.4l5.8,9.4l-25.9,11.1v7.7l9.6,2.9c0,0,16.7,2,17.2,1.4s6.6-3.1,6.6-3.1s-1.6-10.4-1.8-10.8c-0.2-0.3-17,5-17,5l8.4,1.7"/>
<path fill="none" stroke="#000000" stroke-width="20" stroke-linecap="round" stroke-linejoin="round" stroke-miterlimit="10" stroke-opacity="0" d="
	M224.2,590.6c-0.5,0.4-55.1,20.4-55.8,20.9c-0.7,0.6-5.2,9.8-5.2,9.8l68.5-24.7l6.7,3.6l-71.8,29l15.8,4.8l70-28.1l5.5,6.4
	l-43.2,18.2h30.4l14.5-1.3l1.2-7.3"/>
<path fill="none" stroke="#000000" stroke-width="20" stroke-linecap="round" stroke-linejoin="round" stroke-miterlimit="10" stroke-opacity="0" d="
	M398.6,608.3c-1,0.2-15.3,6.3-15.3,6.3v11.9l23.4-13.1l7.2,6.7c0,0-37,19.3-36.5,20.7s-0.8,11.1-0.8,11.1l39.7-21.4l3,7.8
	l-38.6,23.9l5.9,6.6l36.7-22.7l-3.1,14l-19.8,11"/>
<path fill="none" stroke="#000000" stroke-width="60" stroke-linecap="round" stroke-linejoin="round" stroke-miterlimit="10" stroke-opacity="0" d="
	M227,590.1c-8,5.3-70.8,53.4-70.8,53.4l22.3,13.5c0,0,103.2-76.1,109.7-76.4c6.4-0.3,42.2-5.4,42.2-5.4L227,671.1l46.1,4.7
	l105.7-115.6h44.1l-87.2,111h37.2l96.4-108.7l34.7,0.7l-54.7,77.7l31.2-2.8l76.9-62.9h13.1l-10.3,26.1"/>
</svg>
