<?xml version="1.0" encoding="utf-8"?>
<!-- Generator: Adobe Illustrator 20.0.0, SVG Export Plug-In . SVG Version: 6.00 Build 0)  -->
<svg isCommex="true" version="1.1" id="Layer_1" xmlns="http://www.w3.org/2000/svg" xmlns:xlink="http://www.w3.org/1999/xlink" x="0px" y="0px"
	 width="576px" height="684px" viewBox="0 0 576 684" enable-background="new 0 0 576 684" xml:space="preserve">
<path fill="none" stroke="#000000" stroke-width="4" stroke-linecap="round" stroke-linejoin="round" stroke-miterlimit="10" d="
	M254,115.7c0,0-3.8,6.2-3.6,13.2"/>
<path fill="none" stroke="#000000" stroke-width="4" stroke-linecap="round" stroke-linejoin="round" stroke-miterlimit="10" d="
	M270.6,109.4c0,0,6,0,9.8,4.4"/>
<path fill="none" stroke="#000000" stroke-width="4" stroke-linecap="round" stroke-linejoin="round" stroke-miterlimit="10" d="
	M256.9,164.3c4.4-1.9,6.3,8.5,3.4,9.7S254,166,256.9,164.3s2.8,5.6,2.7,6.1c-0.1,0.4-0.6,2.6-0.8,2.3c-0.1-0.2-2.1-5-1.8-5
	c2.9,0.1,1.8,1,1.8,1"/>
<path fill="none" stroke="#000000" stroke-width="4" stroke-linecap="round" stroke-linejoin="round" stroke-miterlimit="10" d="
	M280.8,158.5c4.2-3.2,5.9,10,3.4,10.9C280.2,170.7,278.9,158.9,280.8,158.5c2-0.4,2,8.3,1.9,8.3l-1.8-5.1"/>
<path fill="none" stroke="#000000" stroke-width="4" stroke-linecap="round" stroke-linejoin="round" stroke-miterlimit="10" d="
	M259.8,207.5c0,0-16,18.9-13.4,34.9s26.6,29.1,50.6,21.4s30-33.2,25.2-50.8s-23.5-15.8-24.2-15.8"/>
<path fill="none" stroke="#000000" stroke-width="4" stroke-linecap="round" stroke-linejoin="round" stroke-miterlimit="10" d="
	M289.1,326c-0.1-0.9,11.9-11.9,16.2-12.4s14.2-0.9,14.2-0.9s-17.2,1.3-29.6,13.5"/>
<path fill="none" stroke="#000000" stroke-width="4" stroke-linecap="round" stroke-linejoin="round" stroke-miterlimit="10" d="
	M200.4,238.9c0,0,10.4,3.2,18.1,12"/>
<path fill="none" stroke="#000000" stroke-width="4" stroke-linecap="round" stroke-linejoin="round" stroke-miterlimit="10" d="
	M364.5,202c-0.8,0-10,18.7-10.4,29.6"/>
<path fill="none" stroke="#000000" stroke-width="4" stroke-linecap="round" stroke-linejoin="round" stroke-miterlimit="10" d="
	M323.5,229.9"/>
<path fill="none" stroke="#000000" stroke-width="5" stroke-linecap="round" stroke-linejoin="round" stroke-miterlimit="10" d="
	M338.9,389c31.6-25,24.4-93.6,24.4-93.6c-8.5-66.3-19.3-105.8-19.3-105.8c-2.1-54.8-1.2-53.1-11.3-82.7
	c-27.5-28.6-78.6-20.4-78.6-20.4c-45.2,13.2-64.6,56.3-64.6,56.3s-1.5,24,19.9,77s26.7,112.7,56.7,139"/>
<path fill="none" stroke="#000000" stroke-width="5" stroke-linecap="round" stroke-linejoin="round" stroke-miterlimit="10" d="
	M194,212c-25.9-24.4-44.5-64.4-40.9-99.8c0.2-2.1,0.7-4.5,2.5-5.5c2.1-1.2,4.7,0.2,6.6,1.7c4.2,3.5,7.2,8.4,8.5,13.7
	c3.6-17,9.2-33.5,16.6-49.1c6.5-13.7,15.9-27.8,30.6-31.6c0.1,12.9-1.2,25.8-4,38.4c10.1-13.6,20.4-27.3,33.5-38
	s29.5-18.4,46.4-17.8c-7.9,12-17.2,23-27.8,32.7c22.6-16.4,51.1-24.6,78.9-22.6c2.3,0.2,5,0.6,6.2,2.6c1.9,3.1-1.3,6.8-4.1,9.1
	c-10.6,8.5-21.2,16.9-31.8,25.4c12.6-3.7,26.5-3,38.7,2c3.2,1.3,6.5,3.2,7.7,6.4c1.9,4.9-11.4,18.8-14.5,23.1
	c18.1,3.5,17.8,61.4,6.7,76.2"/>
<path fill="none" stroke="#000000" stroke-width="5" stroke-linecap="round" stroke-linejoin="round" stroke-miterlimit="10" d="
	M208,216.1c0,0-11.5-9.1-20.8,3.4s4.1,62.1,42.1,61.8"/>
<path fill="none" stroke="#000000" stroke-width="5" stroke-linecap="round" stroke-linejoin="round" stroke-miterlimit="10" d="
	M346.1,189.7c0,0,10.2-24.1,28-11.1c12.8,10.9,11.4,66.9-14.7,82.1"/>
<path fill="none" stroke="#000000" stroke-width="5" stroke-linecap="round" stroke-linejoin="round" stroke-miterlimit="10" d="
	M238.8,428.1c0.3-12.7,2.7-44.3,0.2-58.3s-18.8-30.3-25.8-35.2c-5.7-7,11.2-22,27.5-17.4"/>
<path fill="none" stroke="#000000" stroke-width="5" stroke-linecap="round" stroke-linejoin="round" stroke-miterlimit="10" d="
	M262,367c0,0,21.2-31.5,34-38.5s54.2-14.5,59.5,7.6c2.3,12.9-2.7,26.3-29,26.8c4.5,5.4,22.8,42.8,12.2,67.3
	c-13.2,11.2-64.5,29-84.8,34.7"/>
<path fill="none" stroke="#000000" stroke-width="5" stroke-linecap="round" stroke-linejoin="round" stroke-miterlimit="10" d="
	M359.1,354.8c0,0,69.4,30.9,70.9,40.2c2.2,13.8,36,228.5,43,248"/>
<path fill="none" stroke="#000000" stroke-width="5" stroke-linecap="round" stroke-linejoin="round" stroke-miterlimit="10" d="
	M394.8,457l18.1,189.1"/>
<path fill="none" stroke="#000000" stroke-width="5" stroke-linecap="round" stroke-linejoin="round" stroke-miterlimit="10" d="
	M214.4,498.1l-3.1,147"/>
<path fill="none" stroke="#000000" stroke-width="5" stroke-linecap="round" stroke-linejoin="round" stroke-miterlimit="10" d="
	M360.8,348.8c3.9,17.6,5.3,35.6,3.2,50.8c-2.1,15.1-4,31.8-14.6,42.8"/>
<path fill="none" stroke="#000000" stroke-width="5" stroke-linecap="round" stroke-linejoin="round" stroke-miterlimit="10" d="
	M340.7,429.1c4.6,3.4,7.4,9,8.7,13.3"/>
<path fill="none" stroke="#000000" stroke-width="5" stroke-linecap="round" stroke-linejoin="round" stroke-miterlimit="10" d="
	M236.6,425.9c4.2,7,7.9,14.3,11.1,21.8c4.4,10.6,7.8,22.1,6.3,33.4"/>
<path fill="none" stroke="#000000" stroke-width="5" stroke-linecap="round" stroke-linejoin="round" stroke-miterlimit="10" d="
	M138.6,472.4c25.1-3.5,90.2-39,98-46.5"/>
<path fill="none" stroke="#000000" stroke-width="5" stroke-linecap="round" stroke-linejoin="round" stroke-miterlimit="10" d="
	M254,481.1c-43.6,13.3-137.2,76.4-159,37.6c-9.2-24.6,17.1-45.5,17.1-45.5c34.3-30.6,81.2-69,87.4-72.4c8.6-4.6,39-16.9,39-16.9"/>
<path fill="none" stroke="#000000" stroke-width="5" stroke-linecap="round" stroke-linejoin="round" stroke-miterlimit="10" d="
	M300.8,449.3c1.8,5.2,4.7,10.2,6.3,14.8c4.1-6.7,5.8-13.4,9-19.9"/>
</svg>
