<?xml version="1.0" encoding="utf-8"?>
<!-- Generator: Adobe Illustrator 15.0.0, SVG Export Plug-In . SVG Version: 6.00 Build 0)  -->
<!DOCTYPE svg PUBLIC "-//W3C//DTD SVG 1.1//EN" "http://www.w3.org/Graphics/SVG/1.1/DTD/svg11.dtd">
<svg version="1.1" id="Layer_1" xmlns="http://www.w3.org/2000/svg" xmlns:xlink="http://www.w3.org/1999/xlink" x="0px" y="0px"
	 width="170.08px" height="170.08px" viewBox="0 0 170.08 170.08" enable-background="new 0 0 170.08 170.08" xml:space="preserve">
<path fill="#FFFFFF" d="M91.187,14.983c2.617-4.838-9.33-6.807-12.106-6.345c-7.151,1.188-8.844,7.692-7.573,14.039
	c-9.511-6.312-25.9,7.636-17.298,16.784c-8.627-0.115-17.138,8.416-18.233,16.496c-1.622,11.957,9.503,12.76,18.871,10.686
	c-5.028,6.673-0.259,16.061,6.213,19.758c6.112,3.49,16.142,3.293,22.02-0.7c4.12-2.797,4.639-6.646,6.347-10.884
	c-1.719,15.593,36.109,17.208,34.453-1.812c1.938,11.609,21.213,9.724,28.439,5.583c12.154-6.966,2.148-20.942-1.406-24.497
	c9.244-1.777,5.497-19.655,3.562-22.796c-1.881-3.057-5.324-7.685-9.631-6.674c-1.922,0.451-3.359,1.407-3.121,3.496
	c6.403-4.424-3.699-12.374-7.955-13.53c-4.406-1.197-16.597-1.177-16.629,5.627c1.438-13.645-25.639-15.332-25.6-2.03"/>
<path fill="#FFFFFF" d="M48.48,98.136c-2.713-3.552-5.514-6.298-10.424-3.537c-5.145,2.892-5.45,9.367,0.807,9.945
	c-3.677,3.173-9.812,12.139-6.961,17.118c3.468,6.058,21.114,1.528,18.209-4.438c-0.207,5.582,11.163,5.104,14.228,3.445
	c4.589-2.482,4.375-7.701,3.206-12.006c16.565-1.538-8.384-21.408-8.594-9.332c-0.597-8.557-12.328,0.795-9.519,2.297"/>
<path fill="#FFFFFF" d="M28.385,142.194c-3.469-3.039-8.944,0.143-9.801,4.037c-1.903,8.654,11.807,9.306,15.202,3.604
	c-1.129,0.174-1.985,1.541-1.959,2.831c0.068,3.403,4.059,4.007,6.634,3.853c5.579-0.338,12.471-10.109,5.573-13.607
	c3.618-2.109,0.689-5.964-2.25-6.794c-2.382-0.673-8.274,0.473-6.778,3.845c-1.318-4.109-8.911,0.085-6.938,3.82"/>
<path fill="none" stroke="#000000" stroke-width="1.4078" stroke-linecap="round" stroke-linejoin="round" stroke-miterlimit="10" d="
	M91.187,14.983c2.617-4.838-9.33-6.807-12.106-6.345c-7.151,1.188-8.844,7.692-7.573,14.039c-9.511-6.312-25.9,7.636-17.298,16.784
	c-8.627-0.115-17.138,8.416-18.233,16.496c-1.622,11.957,9.503,12.76,18.871,10.686c-5.028,6.673-0.259,16.061,6.213,19.758
	c6.112,3.49,16.142,3.293,22.02-0.7c4.12-2.797,4.639-6.646,6.347-10.884c-1.719,15.593,36.109,17.208,34.453-1.812
	c1.938,11.609,21.213,9.724,28.439,5.583c12.154-6.966,2.148-20.942-1.406-24.497c9.244-1.777,5.497-19.655,3.562-22.796
	c-1.881-3.057-5.324-7.685-9.631-6.674c-1.922,0.451-3.359,1.407-3.121,3.496c6.403-4.424-3.699-12.374-7.955-13.53
	c-4.406-1.197-16.597-1.177-16.629,5.627c1.438-13.645-25.639-15.332-25.6-2.03"/>
<path fill="none" stroke="#000000" stroke-width="1.2575" stroke-linecap="round" stroke-linejoin="round" stroke-miterlimit="10" d="
	M48.48,98.136c-2.713-3.552-5.514-6.298-10.424-3.537c-5.145,2.892-5.45,9.367,0.807,9.945c-3.677,3.173-9.812,12.139-6.961,17.118
	c3.468,6.058,21.114,1.528,18.209-4.438c-0.207,5.582,11.163,5.104,14.228,3.445c4.589-2.482,4.375-7.701,3.206-12.006
	c16.565-1.538-8.384-21.408-8.594-9.332c-0.597-8.557-12.328,0.795-9.519,2.297"/>
<path fill="none" stroke="#000000" stroke-width="1.2575" stroke-linecap="round" stroke-linejoin="round" stroke-miterlimit="10" d="
	M28.385,142.194c-3.469-3.039-8.944,0.143-9.801,4.037c-1.903,8.654,11.807,9.306,15.202,3.604
	c-1.129,0.174-1.985,1.541-1.959,2.831c0.068,3.403,4.059,4.007,6.634,3.853c5.579-0.338,12.471-10.109,5.573-13.607
	c3.618-2.109,0.689-5.964-2.25-6.794c-2.382-0.673-8.274,0.473-6.778,3.845c-1.318-4.109-8.911,0.085-6.938,3.82"/>
</svg>
