<?xml version="1.0" encoding="utf-8"?>
<!-- Generator: Adobe Illustrator 25.2.1, SVG Export Plug-In . SVG Version: 6.00 Build 0)  -->
<!DOCTYPE svg PUBLIC "-//W3C//DTD SVG 1.1//EN" "http://www.w3.org/Graphics/SVG/1.1/DTD/svg11.dtd" [
	<!ENTITY ns_extend "http://ns.adobe.com/Extensibility/1.0/">
	<!ENTITY ns_ai "http://ns.adobe.com/AdobeIllustrator/10.0/">
	<!ENTITY ns_graphs "http://ns.adobe.com/Graphs/1.0/">
	<!ENTITY ns_vars "http://ns.adobe.com/Variables/1.0/">
	<!ENTITY ns_imrep "http://ns.adobe.com/ImageReplacement/1.0/">
	<!ENTITY ns_sfw "http://ns.adobe.com/SaveForWeb/1.0/">
	<!ENTITY ns_custom "http://ns.adobe.com/GenericCustomNamespace/1.0/">
	<!ENTITY ns_adobe_xpath "http://ns.adobe.com/XPath/1.0/">
]>
<svg version="1.1" id="Layer_1" xmlns:x="&ns_extend;" xmlns:i="&ns_ai;" xmlns:graph="&ns_graphs;"
	 xmlns="http://www.w3.org/2000/svg" xmlns:xlink="http://www.w3.org/1999/xlink" x="0px" y="0px" width="1000px" height="1000px"
	 viewBox="0 0 1000 1000" enable-background="new 0 0 1000 1000" xml:space="preserve">
<metadata>
	<sfw  xmlns="&ns_sfw;">
		<slices></slices>
		<sliceSourceBounds  bottomLeftOrigin="true" height="869" width="933.2" x="-266.8" y="-233.7"></sliceSourceBounds>
	</sfw>
</metadata>
<g id="vs-outline">
	
		<path fill="none" stroke="#231F20" stroke-width="14.5566" stroke-linecap="round" stroke-linejoin="round" stroke-miterlimit="10" d="
		M511.1,898.8c-6.8-3.2-13.2,1.2-16.4,7.4c-3.2,6.2-3.2,14.2,2.9,18.3c8.2,5.6,17.3-2.3,20.9-11c3.6-8.7,1.6-18.3-12.2-16.1"/>
	
		<path fill="none" stroke="#231F20" stroke-width="14.5566" stroke-linecap="round" stroke-linejoin="round" stroke-miterlimit="10" d="
		M379.1,835.7c-8,0.5-14.6,1.8-20.6,4.5c-6,2.7-11.5,6.9-17.3,12.9c-10.2,10.4-12.4,21.8-8.9,31.9c3.5,10.1,12.6,18.8,24.9,23.9
		c8.7,3.8,17.5,5.4,25.9,4.9c8.4-0.4,16.3-2.9,23-7.3c4.9-3.2,9.3-7.4,12.8-12.6c3.5-5.2,6.1-11.4,7.7-18.4
		c3.6-16.5-2.9-26.4-13.2-32.3c-10.3-5.9-24.2-7.7-35.4-7.9"/>
	
		<path fill="none" stroke="#231F20" stroke-width="14.5566" stroke-linecap="round" stroke-linejoin="round" stroke-miterlimit="10" d="
		M317,665.4c-10.4-1.7-23.8-1.5-36.9,0.2c-13.1,1.7-26,4.9-35.4,9c-11.9,4.9-25.2,14.6-35.4,26.4c-10.2,11.9-17.2,26-16.5,39.5
		c0.6,12.7,6.9,22.5,16.4,30c9.6,7.5,22.5,12.6,36.5,16.1c14,3.5,28.9,5.2,42.6,5.9c13.7,0.7,26.1,0.3,35-0.6
		c16.5-1.5,38.9-8.9,54-21c15.1-12.2,22.9-29.2,10-49.8c-6.6-10.2-16.5-22.1-28.6-32.4C346.6,678.4,332.3,669.5,317,665.4"/>
	
		<path fill="none" stroke="#231F20" stroke-width="14.5566" stroke-linecap="round" stroke-linejoin="round" stroke-miterlimit="10" d="
		M351.5,630c14.8,0.7,29.6,1.5,44.3,2.2c14.7,0.8,29.4,1.6,44,2.6"/>
	
		<path fill="none" stroke="#231F20" stroke-width="14.5566" stroke-linecap="round" stroke-linejoin="round" stroke-miterlimit="10" d="
		M474.7,637.8c14.3,0.2,28.6,0.5,43,0.5c14.4,0.1,28.8-0.1,43.4-0.5"/>
	
		<path fill="none" stroke="#231F20" stroke-width="14.5566" stroke-linecap="round" stroke-linejoin="round" stroke-miterlimit="10" d="
		M599.4,635.3c14.6-0.2,29.1-0.7,43.7-1.4c14.6-0.7,29.1-1.5,43.7-2.5"/>
	
		<path fill="none" stroke="#231F20" stroke-width="14.5566" stroke-linecap="round" stroke-linejoin="round" stroke-miterlimit="10" d="
		M726.6,629.5c14.8-0.7,29.6-1.6,44.4-2.5c14.8-0.9,29.6-1.9,44.4-2.9"/>
	
		<path fill="none" stroke="#231F20" stroke-width="14.5566" stroke-linecap="round" stroke-linejoin="round" stroke-miterlimit="10" d="
		M851.7,621.8c13.3-1,28.6-2.1,42.8-5.7c14.2-3.6,27.3-9.8,36.3-21"/>
	
		<path fill="none" stroke="#231F20" stroke-width="14.5566" stroke-linecap="round" stroke-linejoin="round" stroke-miterlimit="10" d="
		M945.4,556.7c1.9-14.8,2.7-30,3.4-45.1c0.7-15.2,1.5-30.3,3.4-45.1"/>
	
		<path fill="none" stroke="#231F20" stroke-width="14.5566" stroke-linecap="round" stroke-linejoin="round" stroke-miterlimit="10" d="
		M948.8,427.7c0.2-13.1,0.5-26.1,0.8-39c0.3-12.9,0.7-25.8,1.2-38.6"/>
	
		<path fill="none" stroke="#231F20" stroke-width="14.5566" stroke-linecap="round" stroke-linejoin="round" stroke-miterlimit="10" d="
		M951.2,308.3c0-12.9,0.6-26.3,1.1-39.7c0.5-13.4,0.8-26.7,0.4-39.4"/>
	
		<path fill="none" stroke="#231F20" stroke-width="14.5566" stroke-linecap="round" stroke-linejoin="round" stroke-miterlimit="10" d="
		M958.5,188.5c0.2-12.6,1.2-28.9,0.2-44.1c-1-15.2-4.1-29.4-11.8-37.9"/>
	
		<path fill="none" stroke="#231F20" stroke-width="14.5566" stroke-linecap="round" stroke-linejoin="round" stroke-miterlimit="10" d="
		M913.4,91.9c-17.7-5.8-36-9.3-54.5-11.4c-18.5-2.1-37.2-2.7-55.6-2.7"/>
	
		<path fill="none" stroke="#231F20" stroke-width="14.5566" stroke-linecap="round" stroke-linejoin="round" stroke-miterlimit="10" d="
		M768.3,76.9c-20.6,0-41.1,0.4-61.6,0.4c-20.5,0-41-0.4-61.6-1.8"/>
	
		<path fill="none" stroke="#231F20" stroke-width="14.5566" stroke-linecap="round" stroke-linejoin="round" stroke-miterlimit="10" d="
		M609.1,75.4c-11.2,0-22.3-0.1-33.5-0.2c-11.2-0.1-22.3-0.2-33.5-0.2"/>
	
		<path fill="none" stroke="#231F20" stroke-width="14.5566" stroke-linecap="round" stroke-linejoin="round" stroke-miterlimit="10" d="
		M488.8,73.5c-9.5,0.2-18.9,0.4-28.4,0.4c-9.5,0.1-18.9,0.1-28.4,0.1"/>
	
		<path fill="none" stroke="#231F20" stroke-width="14.5566" stroke-linecap="round" stroke-linejoin="round" stroke-miterlimit="10" d="
		M395.1,73.5c-13.3-0.2-26.8-0.5-40.3-0.7c-13.5-0.2-26.9-0.5-40.3-0.7"/>
	
		<path fill="none" stroke="#231F20" stroke-width="14.5566" stroke-linecap="round" stroke-linejoin="round" stroke-miterlimit="10" d="
		M274.3,72.5c-14.1,0.2-28,0.7-41.9,1.5c-13.9,0.8-27.7,1.9-41.5,3.3"/>
	
		<path fill="none" stroke="#231F20" stroke-width="14.5566" stroke-linecap="round" stroke-linejoin="round" stroke-miterlimit="10" d="
		M153.5,82.2c-13.3,2.2-29.5,4.2-43.9,8.2c-14.4,3.9-27.2,9.8-33.7,19.5"/>
	
		<path fill="none" stroke="#231F20" stroke-width="14.5566" stroke-linecap="round" stroke-linejoin="round" stroke-miterlimit="10" d="
		M63.3,142.4c-3.6,13.1-7,26.2-9.6,39.4c-2.6,13.2-4.4,26.6-4.9,40.2"/>
	
		<path fill="none" stroke="#231F20" stroke-width="14.5566" stroke-linecap="round" stroke-linejoin="round" stroke-miterlimit="10" d="
		M43.8,262.2c-1.2,14.1-2.1,28.1-2.6,42.2c-0.5,14.1-0.8,28.1-0.8,42.2"/>
	
		<path fill="none" stroke="#231F20" stroke-width="14.5566" stroke-linecap="round" stroke-linejoin="round" stroke-miterlimit="10" d="
		M41.4,383c0.5,13.6,1.2,27.1,2.1,40.5c0.9,13.5,2,26.9,3.2,40.5"/>
	
		<path fill="none" stroke="#231F20" stroke-width="14.5566" stroke-linecap="round" stroke-linejoin="round" stroke-miterlimit="10" d="
		M52.6,503.8c2.4,13.6,5.1,27.1,8.1,40.5c3,13.4,6.4,26.7,10.3,40.1"/>
	
		<path fill="none" stroke="#231F20" stroke-width="14.5566" stroke-linecap="round" stroke-linejoin="round" stroke-miterlimit="10" d="
		M100.6,609.1c15.8,3.4,31.9,5.2,48.1,6.7c16.2,1.5,32.4,2.7,48.5,4.9"/>
	
		<path fill="none" stroke="#231F20" stroke-width="14.5566" stroke-linecap="round" stroke-linejoin="round" stroke-miterlimit="10" d="
		M235,623.7c13.6,1,27.1,1.8,40.5,2.5c13.5,0.7,26.9,1.3,40.5,1.8"/>
</g>
</svg>
