<?xml version="1.0" encoding="utf-8"?>
<!-- Generator: Adobe Illustrator 25.2.1, SVG Export Plug-In . SVG Version: 6.00 Build 0)  -->
<!DOCTYPE svg PUBLIC "-//W3C//DTD SVG 1.1//EN" "http://www.w3.org/Graphics/SVG/1.1/DTD/svg11.dtd" [
	<!ENTITY ns_extend "http://ns.adobe.com/Extensibility/1.0/">
	<!ENTITY ns_ai "http://ns.adobe.com/AdobeIllustrator/10.0/">
	<!ENTITY ns_graphs "http://ns.adobe.com/Graphs/1.0/">
	<!ENTITY ns_vars "http://ns.adobe.com/Variables/1.0/">
	<!ENTITY ns_imrep "http://ns.adobe.com/ImageReplacement/1.0/">
	<!ENTITY ns_sfw "http://ns.adobe.com/SaveForWeb/1.0/">
	<!ENTITY ns_custom "http://ns.adobe.com/GenericCustomNamespace/1.0/">
	<!ENTITY ns_adobe_xpath "http://ns.adobe.com/XPath/1.0/">
]>
<svg version="1.1" id="Layer_1" xmlns:x="&ns_extend;" xmlns:i="&ns_ai;" xmlns:graph="&ns_graphs;"
	 xmlns="http://www.w3.org/2000/svg" xmlns:xlink="http://www.w3.org/1999/xlink" x="0px" y="0px" width="1000px" height="1000px"
	 viewBox="0 0 1000 1000" enable-background="new 0 0 1000 1000" xml:space="preserve">
<metadata>
	<sfw  xmlns="&ns_sfw;">
		<slices></slices>
		<sliceSourceBounds  bottomLeftOrigin="true" height="928.8" width="660.7" x="-134.5" y="-259"></sliceSourceBounds>
	</sfw>
</metadata>
<g id="vs-outline">
	
		<path fill="none" stroke="#231F20" stroke-width="10.5114" stroke-linecap="round" stroke-linejoin="round" stroke-miterlimit="10" d="
		M515.5,412.1c11.1-0.6,23.7-0.7,37.3-0.1c13.7,0.6,28.4,1.8,43.6,3.9c12.9,1.8,26.2,4.2,39.6,7.4c13.4,3.2,26.9,7.2,40.1,12.1
		c12.9,4.7,25.5,10.3,37.7,16.9c12.2,6.6,23.9,14.1,34.9,22.8c9.2,7.2,17.8,15.2,25.8,24c8,8.8,15.2,18.5,21.7,29
		c4,9.2,7.4,18.2,10.4,26.9c3,8.8,5.5,17.3,7.5,25.6c2,8.3,3.6,16.4,4.7,24.3c1.1,7.9,1.8,15.6,2,23c0.2,8.3-0.1,16.3-0.9,24
		c-0.8,7.7-2.2,15.2-4.1,22.5c-2.2,8.7-5.2,17-8.9,24.9s-8.1,15.6-13.1,22.9c-4.5,6.5-9.6,12.8-15.3,18.8
		c-5.6,6-11.8,11.7-18.4,17.2c-6.9,5.6-14.2,11-22.2,16.1c-7.9,5.1-16.3,9.9-25.3,14.5c-7.3,3.8-15,7.3-23,10.7
		c-8,3.4-16.3,6.6-24.9,9.7c-8.7,3.1-17.8,6-27.1,8.8s-19,5.3-29,7.7c-10.2,2.3-19.6,4.2-28.4,6c-8.8,1.7-17,3.2-24.7,4.4
		c-11.2,1.8-21.3,3.1-30.8,4c-9.4,0.9-18.2,1.3-26.5,1.5c-9.3,0.1-18.2-0.2-27.2-0.8c-8.9-0.6-17.9-1.5-27.4-2.7
		c-7.9-1-16.2-2.1-25.1-3.3c-8.9-1.2-18.5-2.5-28.9-3.8c-2.6,3.2-8,8.5-15.7,15.2s-17.6,14.8-29.2,23.5c-6.2,4.7-13,9.6-20,14.6
		c-7.1,5-14.6,10-22.3,15c-8,5.2-16.2,10.3-24.7,15.2c-8.5,4.9-17.1,9.7-25.8,14.2c-10,5.2-20.2,10-30.3,14.2s-20.2,7.8-30,10.7
		c-3.5,0-7,0-10.5,0s-7,0-10.5,0c0-5.3,8.8-12.3,18-18.4c9.2-6.1,18.8-11.4,20.6-13.1c19.9-11.5,32.3-18.7,41.4-24.6
		c9.1-5.9,15-10.7,21.9-17.4c4.6-4.5,9.7-9.9,16.5-17.2c6.8-7.3,15.4-16.4,27-28.4c1.8-1.8,2.6-4.4,3.1-6.6c0.4-2.2,0.4-3.9,0.4-3.9
		c-7.4-0.7-18.7-2.6-31.7-6.9c-13-4.3-27.8-11-42.2-21.5c-8-5.8-15.8-12.8-23.2-21.2s-14.2-18.2-20.2-29.6c-5-9.5-9.4-20.2-13-32.2
		s-6.4-25.2-8.1-39.8c-1.3-11.1-2-22.9-2.1-35.7c0-12.7,0.6-26.3,2-40.9c1.9-16.1,5.4-30.7,10.2-44.2s10.9-25.6,18-36.6
		c7.9-12.2,17.1-23,27.2-32.6c10.1-9.5,21.1-17.8,32.6-25c13.8-8.6,28.3-15.5,43-21.2c14.7-5.6,29.5-9.9,43.9-13.2
		c16.5-3.7,32.3-6,46.6-7.3c14.2-1.3,26.9-1.5,37-1.1"/>
	
		<path fill="none" stroke="#231F20" stroke-width="10.5114" stroke-linecap="round" stroke-linejoin="round" stroke-miterlimit="10" d="
		M438.8,415.9c6.2,1.1,8.8-3.5,8.6-11.8s-3.2-20.3-8.1-34c-2.7-7.4-5.9-15.4-9.5-23.4c-3.6-8.1-7.7-16.3-12-24.3
		c-7-3-17.6-3.1-30.4-2.6c-12.9,0.5-28.1,1.6-44.5,1c-12.2-0.5-25-1.9-38.1-5.3c-13.1-3.4-26.4-8.7-39.4-16.9
		c-11.2-8.9-21.1-18-29.6-27.3c-8.5-9.3-15.7-18.6-21.6-28c-8.9-14.2-15-28.5-18.4-42.6c-3.4-14.1-4.1-27.9-2.4-41.3
		c1.8-13.7,6.2-26.8,13-39.1s15.9-23.7,27.2-33.9c9.4-8.5,20.4-16.2,32.7-22.9c12.3-6.7,26-12.3,40.9-16.8c14-4.2,29-7.3,45.1-9.2
		c16.1-1.9,33.1-2.6,51-1.8c13.2,0.5,26.9,1.8,41,3.9c14.1,2.1,28.6,5,43.6,8.7c12.4,3.2,23.8,6.9,34.3,11.2s20.2,9.1,28.9,14.4
		c7.6,4.6,14.6,9.5,20.9,14.7c6.3,5.2,12,10.7,17,16.4c5.9,6.8,10.9,13.9,15,21.2s7.3,14.9,9.6,22.5c2.3,7.7,3.8,15.5,4.4,23.3
		c0.6,7.8,0.3,15.7-0.8,23.5c-1.1,7.6-3,15.2-5.7,22.6c-2.7,7.4-6.2,14.7-10.4,21.8c-4.4,7.4-9.7,14.5-15.8,21.2
		c-6.1,6.8-13,13.2-20.8,19.1c-6.6,5.1-13.9,9.9-21.7,14.4c-7.8,4.4-16.2,8.4-25.2,12c-8.1,3.2-16.7,6.1-25.7,8.6
		s-18.5,4.5-28.5,6.1c1.5,4.5,3.9,11.4,6.8,19.4c3,8,6.5,17.1,10.5,26.1c5.2,11.9,11.2,23.5,17.2,32.1s12.2,14,18,13.5"/>
</g>
<g id="vs-reveal">
</g>
</svg>
