<?xml version="1.0" encoding="utf-8"?>
<!-- Generator: Adobe Illustrator 25.2.1, SVG Export Plug-In . SVG Version: 6.00 Build 0)  -->
<!DOCTYPE svg PUBLIC "-//W3C//DTD SVG 1.1//EN" "http://www.w3.org/Graphics/SVG/1.1/DTD/svg11.dtd" [
	<!ENTITY ns_extend "http://ns.adobe.com/Extensibility/1.0/">
	<!ENTITY ns_ai "http://ns.adobe.com/AdobeIllustrator/10.0/">
	<!ENTITY ns_graphs "http://ns.adobe.com/Graphs/1.0/">
	<!ENTITY ns_vars "http://ns.adobe.com/Variables/1.0/">
	<!ENTITY ns_imrep "http://ns.adobe.com/ImageReplacement/1.0/">
	<!ENTITY ns_sfw "http://ns.adobe.com/SaveForWeb/1.0/">
	<!ENTITY ns_custom "http://ns.adobe.com/GenericCustomNamespace/1.0/">
	<!ENTITY ns_adobe_xpath "http://ns.adobe.com/XPath/1.0/">
]>
<svg version="1.1" id="Layer_1" xmlns:x="&ns_extend;" xmlns:i="&ns_ai;" xmlns:graph="&ns_graphs;"
	 xmlns="http://www.w3.org/2000/svg" xmlns:xlink="http://www.w3.org/1999/xlink" x="0px" y="0px" width="1000px" height="1000px"
	 viewBox="0 0 1000 1000" enable-background="new 0 0 1000 1000" xml:space="preserve">
<metadata>
	<sfw  xmlns="&ns_sfw;">
		<slices></slices>
		<sliceSourceBounds  bottomLeftOrigin="true" height="924.6" width="453.4" x="-26.7" y="-263.5"></sliceSourceBounds>
	</sfw>
</metadata>
<g id="vs-outline">
	
		<path fill="none" stroke="#231F20" stroke-width="7.7886" stroke-linecap="round" stroke-linejoin="round" stroke-miterlimit="10" d="
		M718,944.8c-1.8-0.8-3.6-0.7-5.1,0.1c-1.5,0.8-2.8,2.2-3.7,3.9c-0.9,1.7-1.3,3.6-1.1,5.3c0.2,1.8,1,3.4,2.6,4.5
		c2.2,1.5,4.5,1.2,6.5-0.1s3.7-3.5,4.7-5.8c1-2.3,1.2-4.8,0.2-6.5s-3.1-2.7-6.8-2.1"/>
	
		<path fill="none" stroke="#231F20" stroke-width="7.7886" stroke-linecap="round" stroke-linejoin="round" stroke-miterlimit="10" d="
		M647.4,911.1c-2.1,0.1-4.1,0.4-5.9,0.8c-1.8,0.4-3.5,0.9-5.1,1.7c-1.6,0.7-3.1,1.6-4.7,2.8c-1.5,1.1-3,2.5-4.6,4.1
		c-2.7,2.8-4.4,5.7-5.1,8.6c-0.7,2.9-0.6,5.8,0.4,8.5c0.9,2.7,2.6,5.2,4.9,7.4c2.3,2.2,5.1,4,8.5,5.4c2,0.9,4,1.5,6.1,2
		c2,0.4,4,0.7,6,0.7c2,0,3.9-0.2,5.7-0.5c1.9-0.4,3.6-1,5.3-1.7c1.7-0.8,3.3-1.8,4.8-2.9c1.5-1.2,2.8-2.5,4-4s2.3-3.2,3.1-5.1
		c0.9-1.9,1.6-4,2.1-6.2c1-4.4,0.6-8-0.7-10.8c-1.3-2.8-3.6-4.9-6.3-6.5c-2.7-1.6-6-2.6-9.3-3.3s-6.7-0.9-9.6-1"/>
	
		<path fill="none" stroke="#231F20" stroke-width="7.7886" stroke-linecap="round" stroke-linejoin="round" stroke-miterlimit="10" d="
		M614.2,819.7c-2.8-0.5-6-0.6-9.3-0.6s-6.9,0.3-10.4,0.7s-7,1.1-10.2,1.9c-3.2,0.8-6.2,1.8-8.7,2.9c-3.2,1.3-6.6,3.2-9.8,5.7
		c-3.3,2.4-6.4,5.3-9.1,8.5c-2.7,3.2-5,6.7-6.6,10.2c-1.6,3.6-2.4,7.3-2.2,10.9c0.2,3.4,1.1,6.4,2.6,9.1s3.6,5,6.2,7
		c2.6,2,5.6,3.7,8.9,5.1c3.3,1.4,6.9,2.6,10.6,3.5c3.7,0.9,7.6,1.6,11.5,2.1c3.9,0.5,7.7,0.8,11.4,1c3.7,0.2,7.2,0.2,10.3,0.2
		c3.2-0.1,6-0.2,8.4-0.5c4.4-0.4,9.6-1.6,14.7-3.5s10.1-4.5,14.2-7.8c4-3.3,7.1-7.2,8.3-11.6c1.2-4.5,0.5-9.5-2.9-15
		c-1.8-2.7-4-5.6-6.5-8.5c-2.6-2.9-5.5-5.9-8.8-8.7c-3.2-2.8-6.8-5.4-10.5-7.5C622.2,822.7,618.3,820.9,614.2,819.7"/>
	
		<path fill="none" stroke="#231F20" stroke-width="7.7886" stroke-linecap="round" stroke-linejoin="round" stroke-miterlimit="10" d="
		M470.6,42.9c-9.3-0.2-19-0.2-28.8,0.1c-9.8,0.3-19.7,0.8-29.6,1.6c-9.9,0.8-19.7,1.8-29.2,3.1s-18.8,2.9-27.5,4.8s-17,4-24.6,6.5
		s-14.4,5.2-20.4,8.3c-6,3.1-11,6.5-15,10.3s-6.8,7.8-8.2,12.3c-0.7,1.9-1.3,4.6-1.9,7.9c-0.6,3.3-1.1,7.4-1.6,12
		c-0.5,4.7-1,9.9-1.4,15.8s-0.9,12.3-1.2,19.2c-0.4,6.9-0.7,14.4-1.1,22.3c-0.3,7.9-0.6,16.3-0.9,25c-0.3,8.8-0.5,17.9-0.7,27.4
		s-0.4,19.4-0.5,29.5c-0.1,6.3-0.2,12.7-0.3,19.2c-0.1,6.5-0.1,13.1-0.2,19.8s-0.1,13.5-0.1,20.3s-0.1,13.8-0.1,20.7
		c0,7,0,14,0,21.1c0,7.1,0,14.2,0,21.3c0,7.2,0,14.3,0.1,21.5c0,7.2,0.1,14.4,0.1,21.6c0,7.6,0.1,15.2,0.1,22.8s0.1,15.2,0.2,22.8
		c0.1,7.6,0.1,15.1,0.2,22.6c0.1,7.5,0.2,15,0.3,22.4s0.2,14.8,0.3,22c0.1,7.3,0.2,14.5,0.3,21.6c0.1,7.1,0.2,14.1,0.4,21.1
		c0.1,6.9,0.3,13.7,0.4,20.4c0.2,10.5,0.4,20.8,0.7,30.6s0.5,19.4,0.7,28.5s0.5,17.8,0.8,26s0.5,15.9,0.8,23.1
		c0.3,7.2,0.6,13.8,0.8,19.9s0.6,11.5,0.9,16.3c0.3,4.8,0.6,8.9,0.9,12.3s0.6,6.1,0.9,8c0.5,3.2,2.3,6.2,5.4,9
		c3.1,2.8,7.3,5.5,12.6,7.9c5.3,2.5,11.6,4.7,18.8,6.8s15.2,4,24,5.8c8.7,1.7,18.2,3.3,28.1,4.7c9.9,1.4,20.4,2.5,31.2,3.5
		c10.8,1,22,1.8,33.3,2.4c11.3,0.6,22.9,1,34.4,1.2s23.1,0.3,34.5,0.1c11.4-0.2,22.6-0.5,33.5-1.1c10.9-0.6,21.5-1.3,31.5-2.3
		s19.6-2.1,28.5-3.5c8.9-1.4,17.1-2.9,24.5-4.7c7.4-1.8,13.9-3.8,19.5-6c5.5-2.2,10.1-4.6,13.4-7.2s5.5-5.5,6.3-8.5
		c0.4-1.5,0.8-3.7,1.2-6.8c0.4-3,0.8-6.8,1.2-11.2c0.4-4.5,0.8-9.6,1.3-15.3c0.4-5.8,0.8-12.1,1.3-19.1c0.4-6.9,0.8-14.4,1.3-22.4
		c0.4-8,0.8-16.5,1.3-25.4s0.8-18.3,1.2-28c0.4-9.7,0.8-19.9,1.2-30.3c0.3-6.7,0.5-13.6,0.7-20.6s0.5-14.1,0.7-21.3
		c0.2-7.2,0.5-14.5,0.7-21.9s0.4-14.8,0.7-22.4s0.4-15.1,0.6-22.8c0.2-7.6,0.4-15.3,0.6-23s0.4-15.5,0.6-23.2
		c0.2-7.8,0.3-15.5,0.5-23.3c0.2-7.6,0.3-15.2,0.5-22.8s0.3-15.1,0.4-22.7c0.1-7.5,0.2-15,0.4-22.5c0.1-7.5,0.2-14.9,0.3-22.2
		c0.1-7.3,0.2-14.6,0.2-21.8s0.1-14.3,0.2-21.4c0.1-7,0.1-14,0.1-20.8c0-6.8,0.1-13.5,0.1-20.1c0-10.6,0-20.8,0-30.7
		c0-9.9-0.1-19.3-0.2-28.4c-0.1-9-0.3-17.6-0.4-25.7s-0.4-15.7-0.6-22.7c-0.2-7-0.5-13.4-0.9-19.2c-0.3-5.8-0.7-11-1.1-15.4
		c-0.4-4.5-0.9-8.2-1.3-11.3c-0.5-3-1-5.3-1.6-6.7c-2.6-6.5-6.5-12.1-11.5-16.9c-5-4.8-11.1-8.8-18-12.1s-14.8-6-23.2-8.1
		c-8.5-2.2-17.6-3.8-27.3-5.1c-9.6-1.3-19.7-2.2-30.1-2.8c-10.4-0.7-21-1.1-31.6-1.4c-10.7-0.3-21.4-0.6-32-0.9
		c-10.6-0.3-21-0.7-31.1-1.2"/>
</g>
</svg>
