<?xml version="1.0" encoding="utf-8"?>
<!-- Generator: Adobe Illustrator 15.0.0, SVG Export Plug-In . SVG Version: 6.00 Build 0)  -->
<!DOCTYPE svg PUBLIC "-//W3C//DTD SVG 1.1//EN" "http://www.w3.org/Graphics/SVG/1.1/DTD/svg11.dtd">
<svg version="1.1" id="Layer_1" xmlns="http://www.w3.org/2000/svg" xmlns:xlink="http://www.w3.org/1999/xlink" x="0px" y="0px"
	 width="170.08px" height="170.08px" viewBox="0 0 170.08 170.08" enable-background="new 0 0 170.08 170.08" xml:space="preserve">
<path fill="#FFFFFF" d="M152.81,26.766c0.151-10.181-1.008-12.634-1.77-17.726c-3.438-0.174-6.951-0.07-10.41-0.07
	c-24.379,0-21.293-1.292-45.715-0.233C83.927,9.214,73.038,9.671,61.99,9.671c-6.298,0-12.603-0.008-18.907,0
	C39.009,9.676,18.04,10.04,18.04,10.04s1.251,29.237,1.251,35.514c0,10.248,0.24,20.362-1.251,30.486
	c-1.08,7.349-0.011,18.684,0.856,26.025c6.59,1.988,15.726,1.336,22.712,1.912c6.973,0.571,13.947,1.268,20.882,1.422
	c1.085,3.035,0.445,1.433,1.536,4.512c1.864,5.263,6.099,10.436,10.502,13.751c7.415,5.587,18.608,13.147,28.081,13.933
	c-3.81-5.691-8.465-10.148-10.795-17.119c-2.051-6.136-2.599-7.319-2.312-13.709c14.15-0.535,17.104-1.291,31.488-0.727
	c11.393,0.443,9.924-1.381,21.326-1.381c2.428,0,6.817,0.953,8.578-1.003c0.563-0.63,1.346-7.095,1.479-8.074
	c0.582-4.24-0.021-9.039-0.021-13.315c0-18.668,0-39.425,0-56.872"/>
<path fill="none" stroke="#000000" stroke-width="1.5" stroke-linecap="round" stroke-linejoin="round" stroke-miterlimit="10" d="
	M152.81,26.766c0.151-10.181-1.008-12.634-1.77-17.726c-3.438-0.174-6.951-0.07-10.41-0.07c-24.379,0-21.293-1.292-45.715-0.233
	C83.927,9.214,73.038,9.671,61.99,9.671c-6.298,0-12.603-0.008-18.907,0C39.009,9.676,18.04,10.04,18.04,10.04
	s1.251,29.237,1.251,35.514c0,10.248,0.24,20.362-1.251,30.486c-1.08,7.349-0.011,18.684,0.856,26.025
	c6.59,1.988,15.726,1.336,22.712,1.912c6.973,0.571,13.947,1.268,20.882,1.422c1.085,3.035,0.445,1.433,1.536,4.512
	c1.864,5.263,6.099,10.436,10.502,13.751c7.415,5.587,18.608,13.147,28.081,13.933c-3.81-5.691-8.465-10.148-10.795-17.119
	c-2.051-6.136-2.599-7.319-2.312-13.709c14.15-0.535,17.104-1.291,31.488-0.727c11.393,0.443,9.924-1.381,21.326-1.381
	c2.428,0,6.817,0.953,8.578-1.003c0.563-0.63,1.346-7.095,1.479-8.074c0.582-4.24-0.021-9.039-0.021-13.315
	c0-18.668,0-39.425,0-56.872"/>
</svg>
