<?xml version="1.0" encoding="utf-8"?>
<!-- Generator: Adobe Illustrator 25.2.1, SVG Export Plug-In . SVG Version: 6.00 Build 0)  -->
<!DOCTYPE svg PUBLIC "-//W3C//DTD SVG 1.1//EN" "http://www.w3.org/Graphics/SVG/1.1/DTD/svg11.dtd" [
	<!ENTITY ns_extend "http://ns.adobe.com/Extensibility/1.0/">
	<!ENTITY ns_ai "http://ns.adobe.com/AdobeIllustrator/10.0/">
	<!ENTITY ns_graphs "http://ns.adobe.com/Graphs/1.0/">
	<!ENTITY ns_vars "http://ns.adobe.com/Variables/1.0/">
	<!ENTITY ns_imrep "http://ns.adobe.com/ImageReplacement/1.0/">
	<!ENTITY ns_sfw "http://ns.adobe.com/SaveForWeb/1.0/">
	<!ENTITY ns_custom "http://ns.adobe.com/GenericCustomNamespace/1.0/">
	<!ENTITY ns_adobe_xpath "http://ns.adobe.com/XPath/1.0/">
]>
<svg version="1.1" id="Layer_1" xmlns:x="&ns_extend;" xmlns:i="&ns_ai;" xmlns:graph="&ns_graphs;"
	 xmlns="http://www.w3.org/2000/svg" xmlns:xlink="http://www.w3.org/1999/xlink" x="0px" y="0px" width="1000px" height="1000px"
	 viewBox="0 0 1000 1000" enable-background="new 0 0 1000 1000" xml:space="preserve">
<metadata>
	<sfw  xmlns="&ns_sfw;">
		<slices></slices>
		<sliceSourceBounds  bottomLeftOrigin="true" height="930.9" width="812.8" x="-180" y="-273.1"></sliceSourceBounds>
	</sfw>
</metadata>
<g id="vs-primary">
	<polygon fill="#FFFFFF" points="289.3,379.5 297.9,416.8 335.5,428.5 363,426.9 366.8,444.6 355.1,515.4 309.9,671.2 275.7,760 
		217.9,870 180.9,914.2 145.9,935.1 165.8,941.7 194.5,921.2 256.5,848.5 326.6,727.4 391.4,591.8 456.5,431 577.6,425 711.2,422.1 
		830.1,413.3 845.2,407.3 864.5,283.4 870.2,199.3 865.5,96 850.6,81.5 812.7,72.6 718.8,63.4 514.3,63.4 368.3,70.1 292.2,85.9 
		285.2,102.9 279.2,185.4 281.7,284.4 	"/>
</g>
<g id="vs-outline">
	
		<path fill="none" stroke="#231F20" stroke-width="9.4809" stroke-linecap="round" stroke-linejoin="round" stroke-miterlimit="10" d="
		M560.2,63.4c0,0-23.7,0.1-53,0.6c-29.3,0.4-64.2,1.2-86.7,2.3c-32.2,1.6-61.7,4-84.4,7.2c-22.7,3.2-38.7,7.3-43.9,12.3
		c-4.7,4.5-7.9,18-10,36.9c-2,19-2.9,43.5-2.9,70.2c0,17.1,0.3,35.2,0.9,53.2s1.5,36.2,2.5,53.5c1.7,27.9,3.8,53.7,6,73.7
		c2.2,19.9,4.6,34,6.7,38.6c5.5,12,16.2,15.7,28.6,16.4c12.4,0.7,26.5-1.6,39-1.6c5,0,5.2,15.2,1.4,40.4
		c-3.8,25.2-11.6,60.4-22.4,100.2c-5.8,21.4-12.5,44.1-20,67.3c-7.4,23.2-15.6,47-24.5,70.5c-9.8,26.1-20.3,51.9-31.5,76.2
		c-11.1,24.3-22.8,47.2-34.9,67.6c-15.9,26.7-32.4,49-49.2,64.4s-33.9,23.9-50.8,23.1c17,9.9,36.5,5.1,57.2-10.3s42.8-41.3,65-73.4
		c13.3-19.3,26.7-40.8,39.9-63.7c13.2-22.9,26.2-47.1,38.7-71.7c12-23.6,23.7-47.7,34.7-71.3c11-23.6,21.4-46.8,31-68.7
		c15.5-35.5,28.8-67.8,38.9-93.4c10.1-25.6,17.1-44.4,20.1-53.1c0-2.1,14.6-3.3,38-4.2c23.5-0.9,55.9-1.4,91.6-1.9
		c21.8-0.3,44.8-0.7,67.8-1.1c23-0.5,45.9-1,67.5-1.8c32.2-1.1,61.4-2.7,83.4-5c22-2.3,36.9-5.4,40.3-9.6c2.7-3.3,5.7-15.1,8.6-32.5
		c2.9-17.3,5.8-40.1,8.2-65.4c1.8-18.4,3.4-38.2,4.8-58s2.3-39.7,2.9-58.5c0.8-27.1,0.7-51.9-0.6-70.7c-1.3-18.8-3.9-31.8-8.1-35.1
		c-8.4-6.8-25.7-11.5-49-14.7s-52.3-5-84.1-6.1c-26.5-1.2-68.5-1.9-103.8-2.3C588.8,63.6,560.2,63.4,560.2,63.4z"/>
</g>
<g id="vs-reveal">
	
		<path opacity="0" fill="none" stroke="#FF0049" stroke-width="100" stroke-linecap="round" stroke-linejoin="round" stroke-miterlimit="10" d="
		M882.8,92.2c0,0-154.4,2.3-308.5,7c-154.1,4.7-307.8,11.8-306.4,21.4s153.7,20.9,305.8,31.9c152.1,11,304,21.8,304.7,30.5
		c0.7,8.6-150.5,13.6-301.7,18.7C425.6,206.8,274.4,212,275.1,221s148.3,17.9,295.6,27s294.1,18.5,293.4,28.5
		c-0.7,10.1-146.5,16.1-292.1,22.2S280.8,311,280.8,321.6c0,10.6,143.6,16.9,287.3,22.8s287.3,11.3,287.3,19.9
		c0,8.6-129.6,11.2-260.5,15.7s-263,11-268,27.5c-5,16.6,60.1-5,74.3,44.5S378.8,622.1,170,923.1"/>
</g>
</svg>
