<?xml version="1.0" encoding="utf-8"?>
<!-- Generator: Adobe Illustrator 25.2.1, SVG Export Plug-In . SVG Version: 6.00 Build 0)  -->
<!DOCTYPE svg PUBLIC "-//W3C//DTD SVG 1.1//EN" "http://www.w3.org/Graphics/SVG/1.1/DTD/svg11.dtd" [
	<!ENTITY ns_extend "http://ns.adobe.com/Extensibility/1.0/">
	<!ENTITY ns_ai "http://ns.adobe.com/AdobeIllustrator/10.0/">
	<!ENTITY ns_graphs "http://ns.adobe.com/Graphs/1.0/">
	<!ENTITY ns_vars "http://ns.adobe.com/Variables/1.0/">
	<!ENTITY ns_imrep "http://ns.adobe.com/ImageReplacement/1.0/">
	<!ENTITY ns_sfw "http://ns.adobe.com/SaveForWeb/1.0/">
	<!ENTITY ns_custom "http://ns.adobe.com/GenericCustomNamespace/1.0/">
	<!ENTITY ns_adobe_xpath "http://ns.adobe.com/XPath/1.0/">
]>
<svg version="1.1" id="Layer_1" xmlns:x="&ns_extend;" xmlns:i="&ns_ai;" xmlns:graph="&ns_graphs;"
	 xmlns="http://www.w3.org/2000/svg" xmlns:xlink="http://www.w3.org/1999/xlink" x="0px" y="0px" width="1000px" height="1000px"
	 viewBox="0 0 1000 1000" enable-background="new 0 0 1000 1000" xml:space="preserve">
<metadata>
	<sfw  xmlns="&ns_sfw;">
		<slices></slices>
		<sliceSourceBounds  bottomLeftOrigin="true" height="491.1" width="922.9" x="-261.6" y="-35.2"></sliceSourceBounds>
	</sfw>
</metadata>
<g id="vs-outline">
	
		<path fill="none" stroke="#231F20" stroke-width="11.5858" stroke-linecap="round" stroke-linejoin="round" stroke-miterlimit="10" d="
		M575.2,249.9c-8.3,0-16.8-0.1-25.3,0c-8.6,0-17.3,0.1-26,0.1s-17.6,0.2-26.4,0.4c-8.8,0.2-17.7,0.3-26.5,0.6
		c-8.8,0.2-17.6,0.5-26.3,0.8c-8.7,0.3-17.3,0.6-25.8,1c-8.5,0.4-16.9,0.8-25.1,1.3c-8.2,0.5-16.2,1-24.1,1.5
		c-7.8,0.5-15.4,1.1-22.8,1.8c-7.3,0.6-14.4,1.3-21.2,2c-6.8,0.7-13.2,1.5-19.3,2.3c-6.1,0.8-11.8,1.7-17.2,2.6
		c-5.3,0.9-10.3,1.9-14.7,2.9c-4.5,1-8.5,2-12,3.1c-3.5,1.1-6.6,2.2-9,3.4s-4.4,2.4-5.8,3.8c-1.9,1.9-3.7,4.7-5.2,8.5
		c-1.5,3.8-2.9,8.5-4.1,13.9c-1.2,5.4-2.2,11.7-3.1,18.5c-0.9,6.9-1.6,14.4-2.2,22.4s-1.1,16.5-1.4,25.4c-0.4,8.9-0.6,18.2-0.8,27.8
		c-0.2,9.6-0.2,19.4-0.3,29.3c0,9.9,0,20,0.1,30.1c0.1,10.1,0.3,20.1,0.4,30.1c0.2,9.9,0.4,19.8,0.6,29.3c0.2,9.6,0.4,18.9,0.6,27.8
		c0.2,8.9,0.4,17.5,0.6,25.5c0.2,8,0.3,15.6,0.4,22.5s0.1,13.2,0.1,18.7c0,5.5-0.2,10.2-0.4,14.1s-0.5,6.8-0.9,8.7
		c-1,4.5-2.2,8.7-3.6,12.6s-3.1,7.5-4.9,10.9c-1.9,3.3-3.9,6.4-6.2,9.2c-2.3,2.8-4.7,5.4-7.4,7.7c-2.7,2.3-5.5,4.4-8.6,6.3
		s-6.3,3.6-9.7,5.1c-3.4,1.5-7,2.8-10.8,3.9s-7.7,2.1-11.8,2.9c-4.1,0.8-8.4,1.5-12.8,2s-9,0.9-13.7,1.2s-9.6,0.4-14.6,0.5
		c-5,0.1-10.1,0.1-15.4,0c-5.3-0.1-10.6-0.2-16.1-0.5s-11.1-0.5-16.8-0.8c-5.7-0.3-11.6-0.6-17.5-1s-12-0.7-18.1-1
		c3.9,4,7.7,7.7,11.5,11s7.7,6.3,11.6,8.9c3.9,2.6,7.8,5,11.7,7c3.9,2,7.9,3.8,11.9,5.3c4,1.5,8.1,2.8,12.3,3.8
		c4.2,1,8.4,1.9,12.8,2.5s8.8,1.1,13.4,1.4c4.6,0.3,9.3,0.4,14.2,0.5c4.9,0,9.9-0.1,15.1-0.3c5.2-0.2,10.5-0.5,16.1-0.8
		s11.3-0.8,17.2-1.2c5.9-0.4,12.1-0.9,18.4-1.3c6.4-0.5,13-0.9,19.8-1.3c6.8-0.4,13.9-0.8,21.3-1.1c7.4-0.3,15-0.5,22.9-0.7
		c7.9-0.1,16.1-0.2,24.6-0.1c4.4,0,9,0,13.8,0c4.8,0,9.9,0,15.1,0c5.2,0,10.6,0,16.2,0c5.6,0,11.3,0,17.3,0c5.9,0,12,0,18.2,0
		s12.6,0,19.1,0c6.5,0,13.1,0,19.9,0c6.7,0,13.6,0,20.6,0s14,0,21.2,0c7.1,0,14.4,0,21.7,0c7.3,0,14.7,0,22.1-0.1
		c7.4,0,14.9,0,22.4-0.1c7.5,0,15.1-0.1,22.7-0.1c7.6,0,15.2-0.1,22.8-0.2c7.6-0.1,15.3-0.1,22.9-0.2c7.6-0.1,15.2-0.2,22.8-0.3
		c9.6-0.1,19.2-0.3,28.7-0.4c9.5-0.1,19-0.3,28.4-0.5c9.4-0.2,18.7-0.4,27.8-0.6c9.2-0.2,18.2-0.5,27.1-0.7
		c8.9-0.3,17.6-0.5,26.1-0.8c8.5-0.3,16.9-0.6,25-1c8.1-0.3,16.1-0.7,23.8-1.1s15.1-0.8,22.3-1.3s14.1-0.9,20.6-1.4s12.9-1,18.8-1.6
		c5.9-0.6,11.5-1.2,16.8-1.8s10.1-1.3,14.6-2s8.5-1.4,12.2-2.2s6.9-1.6,9.6-2.4c2.8-0.8,5.1-1.7,6.9-2.6s3.1-1.9,4-2.8
		c0.6-0.7,1.2-1.7,1.7-3.1c0.6-1.4,1.2-3.1,1.7-5.1s1.2-4.3,1.7-6.9c0.6-2.6,1.2-5.4,1.7-8.5c0.6-3.1,1.1-6.5,1.7-10.1
		s1.1-7.5,1.7-11.5c0.5-4.1,1.1-8.3,1.6-12.8c0.5-4.5,1.1-9.1,1.6-14c0.5-4.8,1-9.9,1.5-15c0.5-5.2,1-10.5,1.4-15.9
		c0.5-5.4,0.9-11,1.4-16.7c0.4-5.7,0.9-11.5,1.3-17.3c0.4-5.9,0.8-11.8,1.2-17.9c0.4-6,0.7-12.1,1.1-18.2c0.3-6.1,0.7-12.3,1-18.5
		c0.3-6.2,0.6-12.4,0.8-18.6c0.3-6.2,0.5-12.4,0.7-18.6c0.2-6.2,0.4-12.4,0.5-18.5s0.3-12.2,0.4-18.2c0.1-6,0.2-12,0.2-17.9
		c0.1-5.9,0.1-11.7,0.1-17.3c0-5.7,0-11.2-0.1-16.7s-0.2-10.7-0.3-15.9c-0.1-5.2-0.3-10.2-0.5-15c-0.2-4.8-0.4-9.5-0.7-14
		c-0.3-4.5-0.6-8.7-0.9-12.8s-0.7-7.9-1.1-11.5c-0.4-3.6-0.9-7-1.4-10.1s-1-6-1.6-8.5c-0.6-2.6-1.2-4.9-1.9-6.8s-1.4-3.7-2.1-5
		s-1.6-2.4-2.4-3.1c-2.3-1.9-5.3-3.7-8.7-5.3s-7.4-3.2-11.9-4.6c-4.4-1.4-9.4-2.7-14.7-3.9c-5.4-1.2-11.2-2.2-17.4-3.2
		s-12.8-1.8-19.7-2.6s-14.2-1.5-21.8-2.1c-7.6-0.6-15.4-1.2-23.6-1.7s-16.5-0.9-25.1-1.3c-8.6-0.4-17.4-0.7-26.3-0.9
		c-9-0.3-18.1-0.5-27.3-0.7c-9.2-0.2-18.6-0.3-28-0.5c-9.4-0.1-18.9-0.2-28.5-0.3c-9.5-0.1-19.1-0.2-28.6-0.2
		c-9.5-0.1-19.1-0.1-28.5-0.2c-9.5-0.1-18.9-0.2-28.1-0.3c-9.3-0.1-18.5-0.2-27.5-0.4"/>
</g>
</svg>
