<?xml version="1.0" encoding="utf-8"?>
<!-- Generator: Adobe Illustrator 24.3.0, SVG Export Plug-In . SVG Version: 6.00 Build 0)  -->
<svg isCommex="true" version="1.1" id="Layer_1" xmlns="http://www.w3.org/2000/svg" xmlns:xlink="http://www.w3.org/1999/xlink" x="0px" y="0px"
	 width="721.6px" height="500.5px" viewBox="0 0 721.6 500.5" enable-background="new 0 0 721.6 500.5" xml:space="preserve">
<g>
	<path fill="#C6C6C6" d="M79.8,160.2l-0.5,1.9c10.5,3.5,21.8,7.4,32.9,11.2c7.7,2.6,15.1,5.2,21.6,7.4l1.3,0.5L135,170L79.8,160.2z"
		/>
	<path fill="#C6C6C6" d="M176,176.8c-0.4,0.2-0.8,0.3-1.3,0.2l-35.8-6.3l0.1,11.9l3.5,1.2c4,1.4,7.3,2.5,10,3.4
		c18.7,6.4,42.9,12.2,55.7,15.1c0.5,0.1,0.8,0.2,0.9,0.2l0.2,0.1h0.2c0.1,0,0.2,0,0.3,0.1c0.3,0.1,0.7,0.2,1.1,0.3l6.6,2.2l-41-28.6
		L176,176.8z"/>
	<path fill="#C6C6C6" d="M223,195.6c0.8,0.3,1.6,0.4,2.4,0.4c1.3,0,2.4-0.4,3.1-1.1c0.9-0.9,1.2-2.2,0.8-3.6l0,0
		c-0.6-1.9-2.7-3.3-5.4-3.7h-0.1c-0.8-0.2-1.6-0.3-2.2-0.3c-2,0-3.4,0.8-3.9,2.2C217,191.4,218.7,194.2,223,195.6z"/>
	<path fill="#C6C6C6" d="M242.7,188.3c4.6,3,5.8,3.8,6,4.4v0.2l0.1,0.1c0.3,0.5,0.8,1.4,1.4,2.5c0.7,1.3,1.6,2.8,2.6,4.5l0.7,1
		l0.9-0.8c0,0,0.2-0.1,0.3-0.1l9.2-3.9l-15-15.1l-12.3,3.1l1.8,1.3C240,186.7,241.5,187.6,242.7,188.3z"/>
	<path fill="#C6C6C6" d="M245.3,195.1l-0.1-0.2l-0.2-0.1c-1.6-1.1-6.6-4.4-13.6-8.8c-17.5-11.3-48.1-30.8-75.2-48.1l-22.5-14.4
		c-2-1.2-3.9-2.4-5.7-3.6c-1.9-1.2-27.6-16-39.2-20.2L81.5,97L194,173.9c0.1,0.1,0.2,0.2,0.3,0.3l0,0c2.3,2,7.5,7.4,7.5,14.7v0.5
		l36.2,25.2c0.3,0.2,0.5,0.4,0.6,0.6l0.4,0.7l16-3.8l-2.3-3.9C248.2,200.4,246.1,196.8,245.3,195.1z M216.5,189.1
		c0.4-1.6,2.1-3,4.9-3c0.8,0,1.6,0.1,2.6,0.3c3.1,0.5,5.4,2.2,6.2,4.4c0.6,1.7,0.2,3.4-1,4.7l0,0c-0.9,1-2.2,1.5-3.9,1.4
		c-0.8,0-1.6-0.1-2.8-0.5C217.6,194.9,215.8,191.6,216.5,189.1z"/>
</g>
<g id="vs-primary">
	<path fill="#F79645" d="M407.5,156.7c-3.5-5.6-14-18.7-35.7-18.7c-15.6,0-29.7,9.1-44.5,18.8l-0.2,0.1
		c-11.6,7.6-24.7,16.2-39.1,19.3c-16.2,3.4-26.1,4.5-31.7,4.9l-2.2,0.1l13.7,13.9l1.2,1.2h0.4c2.2-0.1,5.5-0.2,9.8-0.2
		c3.6-0.1,13.1-0.1,25.2,0.6c23.7,1.5,39.7,5,47.6,10.5l0.6,0.4l0.6-0.4c4.9-3.6,9.3-6.6,13.3-9.2l2.8-1.9h-3.4
		c-11.3,0.1-18.7-4.1-22.8-7.6c-6.5-5.5-9-12.1-9.1-16.4c-0.3-5.6,2.7-8.8,5.3-10.5l0.2-0.1l0.1-0.2c1.9-2.6,9.3-11.3,26.8-11.9
		c17.8-0.6,22.9,5.5,24.1,7.3l0.3,0.5h0.6c6-0.4,11-0.2,15.1,0.8l2.4,0.6L407.5,156.7z"/>
	<path fill="#F79645" d="M334.6,307.7l-0.4-0.5l-0.6,0.1c-2.7,0.5-5,0.8-6.9,0.8h-0.8c-12-0.4-19.8-12.4-22-16.1l-0.4-0.7l-0.7,0.2
		c-0.5,0.1-0.9,0.2-1.4,0.3l-0.4,0.1c-0.5,0.1-1,0.1-1.5,0.1c-2.6,0-5.4-1-8-3c-3.2-2.5-5.9-5.9-7.6-9.6l-0.4-0.9
		c-0.5-1.3-0.9-2.7-1-4c-1.1-9,1.9-11.8,30-34.6l1.2-1l-52.2-24.1l-24.1,5.7l2,1.3c8.9,5.8,24.3,16.5,27.8,23
		c1.6,3,2.9,7.4,4.1,11.9c1.8,6.5,4.3,15.5,8.9,24.6l0.4,0.9l0,0c2.7,5.2,5.6,9.7,8.9,13.8c13.2,16.4,26.1,26.3,49.8,26.3
		c3.4,0,7.1-0.2,11-0.6l4.2-0.5l-3.9-1.5C341.5,316.2,335.3,308.5,334.6,307.7z"/>
</g>
<g id="vs-skin">
	<path fill="#D3A37F" d="M662.3,209.9c-1.4-8.3-4.1-15-8.1-20.1l-0.4-0.5l-0.6,0.2c-18.7,5.6-46.9,13.4-74.7,19
		c-22.7,4.7-42.2,7.2-56.4,7.2h-0.2c-29.4-3.1-46.1-14.6-60.8-24.8l-2.3-1.6c-3.5-2.4-6.8-4.6-10.1-6.6
		c-12.8-7.6-20.7-11.2-28.3-14.7l-2.2-1c-2.5-1.1-4.9-2.2-7.5-3.4c-0.1-0.1-0.3-0.2-0.4-0.3c-11.3-5.4-31.8-0.5-38.7,1.2
		c-10.1,2.4-21.6,0.8-26.6-1.1l-0.4-0.1l-0.6,0.3c-0.4,0.2-1,0.4-1.6,0.7c-0.1,0.1-0.3,0.1-0.4,0.2l-0.1,0.1l-0.1,0.1
		c-2.6,1.7-3.8,4.1-3.7,7.1c0.2,3.6,2.4,9.1,7.8,13.6c6.6,5.3,15,7.4,25,6.2c0.9-0.1,1.6,0.3,2.1,1l0.5,0.9l0.9-0.5
		c5.5-3.4,9.2-5.4,10.6-6.2c0.4-0.2,0.6-0.3,0.7-0.4c0.4-0.2,0.9-0.3,1.3-0.1c0.5,0.2,1,0.5,1.3,1c0.5,1,0.1,2.2-0.9,2.7
		c-0.1,0.1-13.1,6.8-33.3,21.5c-11.7,8.4-23.7,18.1-35.7,28.7l-2.3,2l-0.1,0.1c-27.3,22.1-30.3,24.8-29.4,31.7
		c0.5,4.1,3.6,9,7.4,11.9c2.5,1.8,4.7,2.5,6.5,2.2c0.6-0.1,1.3-0.3,2.1-0.5c0.6-0.2,1.3-0.3,2.1-0.5c8.2-2.2,23.2-7.3,24.8-7.9l0,0
		c0.5-0.2,1.1-0.1,1.6,0.1s0.8,0.6,1,1.1s0.1,1.1-0.1,1.6s-0.6,0.8-1.1,1l-0.5,0.2c-10.8,3.7-17.4,5.7-21.1,6.8l-1.3,0.4l0.7,1.1
		c1.8,2.9,8.5,12.4,17.7,12.8c2.5,0,5.6-0.4,9.2-1.1c12.7-2.7,28.7-9.7,28.8-9.8c1.1-0.5,2.2,0,2.7,1c0.2,0.5,0.2,1,0.1,1.5
		c-0.2,0.5-0.6,0.9-1.1,1.1c-0.6,0.3-13,5.7-25.4,9l-1.7,0.4l1.2,1.2c3.6,3.7,11.1,10,20,10h1.5c12.5-0.7,29.6-9.4,31.5-10.4
		c0.5-0.3,1.1-0.3,1.6-0.2c0.5,0.1,0.9,0.5,1.2,1c0.3,0.5,0.3,1.1,0.2,1.6c-0.1,0.5-0.5,0.9-1,1.2c-0.1,0.1-12.3,6.7-24.9,9.7
		l-2.7,0.6l2.5,1.2c7.7,3.8,14.8,5.7,21.1,5.7c9.7,0,41.5-17.8,91.9-51.6c1.6-1.1,3.2-2.2,4.6-3.2c1.7-1.2,3.3-2.3,4.8-3.3
		c12.5-8.6,18.8-12.9,31.4-14c11.1-0.9,57.5-5.3,97-10.1c19.8-2.4,34-4.4,43.4-6.1l0.8-0.1v-0.8
		C664.5,228.2,663.8,218.6,662.3,209.9z"/>
</g>
<path fill="none" stroke="#000000" stroke-width="6" stroke-linecap="round" stroke-linejoin="round" stroke-miterlimit="10" d="
	M663.6,184.5c0,0-92.9,29.4-141.6,29.4c-37-4-53.8-21.7-72.5-32.7s-27.4-14-38.5-19.3c-11.2-5.4-29.8-1.5-40.1,1
	c-10.2,2.4-22,0.6-26.3-1.4c0,0-9.2,1.7-8.7,10.5s11.3,24.6,35,21.7"/>
<path fill="none" stroke="#000000" stroke-width="6" stroke-linecap="round" stroke-linejoin="round" stroke-miterlimit="10" d="
	M386.3,188.3c0,0-30.6,15.7-71.7,52.4c-28,22.7-31.2,25.3-30.2,33.5c1,8.1,9.6,16.9,16.2,15.7c6.5-1.1,29.2-8.9,29.2-8.9"/>
<path fill="none" stroke="#000000" stroke-width="6" stroke-linecap="round" stroke-linejoin="round" stroke-miterlimit="10" d="
	M305.2,290c0,0,7.9,15.6,20.8,16.1c12.8,0.5,39-11,39-11"/>
<path fill="none" stroke="#000000" stroke-width="6" stroke-linecap="round" stroke-linejoin="round" stroke-miterlimit="10" d="
	M335.8,306.1c0,0,10.1,13.4,24,13.4s33.9-10.7,33.9-10.7"/>
<path fill="none" stroke="#000000" stroke-width="6" stroke-linecap="round" stroke-linejoin="round" stroke-miterlimit="10" d="
	M361.2,319.5c0,0,14.1,10.3,29.4,10.3s73.6-38.9,93-51.9s25.1-19,39.9-20.2s137.1-12.9,153.7-19.3"/>
<path fill="none" stroke="#000000" stroke-width="6" stroke-linecap="round" stroke-linejoin="round" stroke-miterlimit="10" d="
	M338.1,165.2c0,0,9-13.1,28.4-13.7s22.6,6.9,22.6,6.9"/>
<path fill="none" stroke="#000000" stroke-width="6" stroke-linecap="round" stroke-linejoin="round" stroke-miterlimit="10" d="
	M411.6,159.9c0,0-9.9-23.8-39.8-23.8s-53.9,31.8-84.2,38.1c-30.3,6.3-38.4,4.8-38.4,4.8l19.1,19.4c-1.3-0.2,67.4-3.1,84.2,11.6"/>
<line fill="none" stroke="#000000" stroke-width="6" stroke-linecap="round" stroke-linejoin="round" stroke-miterlimit="10" x1="265.5" y1="197.7" x2="255.5" y2="202.1"/>
<line fill="none" stroke="#000000" stroke-width="6" stroke-linecap="round" stroke-linejoin="round" stroke-miterlimit="10" x1="249.3" y1="178.9" x2="234.5" y2="182.8"/>
<path fill="none" stroke="#000000" stroke-width="6" stroke-linecap="round" stroke-linejoin="round" stroke-miterlimit="10" d="
	M316.1,237.7l-54.3-25.1l-29.4,7c0,0,28.4,17.5,33,26.1s6.1,30.8,22.6,51.5s33.4,32.1,73.1,24.9"/>
<path fill="none" stroke="#000000" stroke-width="6" stroke-linecap="round" stroke-linejoin="round" stroke-miterlimit="10" d="
	M257.5,212.6c0,0-10.9-18.8-10.9-19.1S129,118.2,129,118.2s-31.2-18.1-42-21.1s-25.7-3-25.7-3l175.5,122.3"/>
<path fill="none" stroke="#000000" stroke-width="6" stroke-linecap="round" stroke-linejoin="round" stroke-miterlimit="10" d="
	M175.1,175L42,151.6c0,0,85.7,29.2,109.8,37.5c24.2,8.3,57,15.4,57,15.4s9.1,2.5,13,2.5"/>
<path fill="none" stroke="#000000" stroke-width="3" stroke-linecap="round" stroke-linejoin="round" stroke-miterlimit="10" d="
	M78.8,95.8l115.3,78.8c0,0,8.1,6.5,7.4,15.6"/>
<path fill="none" stroke="#000000" stroke-width="3" stroke-linecap="round" stroke-linejoin="round" stroke-miterlimit="10" d="
	M223.9,187c9,1.3,7.5,11.8-1.1,9.1C214.3,193.3,215.5,184.9,223.9,187z"/>
<line fill="none" stroke="#000000" stroke-width="6" stroke-linecap="round" stroke-linejoin="round" stroke-miterlimit="10" x1="138.9" y1="447.4" x2="136.8" y2="149.4"/>
<line fill="none" stroke="#000000" stroke-width="6" stroke-linecap="round" stroke-linejoin="round" stroke-miterlimit="10" x1="135.8" y1="120" x2="135.7" y2="49.5"/>
<path fill="none" stroke="#000000" stroke-width="30" stroke-linecap="round" stroke-linejoin="round" stroke-miterlimit="10" stroke-opacity="0" d="
	M663.5,191.6l-7.6,48.1L637,192.3v43.5L626.7,202l-12.4,43.3l-17.5-42.6v44.7l-13.9-1.7l-4.7-38.9l-13.6,5.9l2.1,35.7l-22.9,2.5
	l2.4-32.1l-18.3-4.9c0,0-2.4,29-3.4,30.6s-14,13.2-14,13.2l-6.2-43.9l-20.2-5.6v55.6c0,0-13.1,16.7-14.1,16.2s-4.9-79.8-4.9-79.8
	l-15-9.8c0,0,1.8,103.4,0,103.7s-12.5,6.6-12.5,6.6L430.3,183l-12.2-3.9l-1.7,127.2l-20.9,13.4l6.3-146.5h-19.2c0,0-5,0.5-5.8,1
	s-19.3,2-19.3,2s-3.4-0.2-4-0.2s-2.4-2.8-2.4-2.8l18.6,8.2c0,0,6.9,1.5,8.1,1.5s4.7,1.7,4.7,1.7l-2.6,133.7l-18.1-13.1l4.6-84.5
	l-0.9-4.1l-18.2,19.6l4.7,68.2l-14.7-14.1l-0.6-50.9l-13.6,13.3l-15,13.5l-5.8,4.3l-1.5,4.4l8.1,1.4l9.6-1.2l-0.5,10.1
	c0,0,7.2,6.4,7.6,7.1c0.5,0.6,2.8-0.2,2.8-0.2"/>
<path fill="none" stroke="#000000" stroke-width="30" stroke-linecap="round" stroke-linejoin="round" stroke-miterlimit="10" stroke-opacity="0" d="
	M281.8,196.5l-8.6-11.5l-4-6.1l14.2-5l9.2,21l20.9,4.4l-12.7-32.9l3.7-6.1l24,37.4l12.3,5.2l20.2-2.5c0,0-19.2-4-21.8-9
	c-2.6-5-7.2-16.5-7.7-19.6s-4.8-7.7,0-12.7s20.6-7.6,20.6-7.6s20-11.8,32.1-5.4c12.1,6.4,16.5,10.1,16.5,10.1"/>
<path fill="none" stroke="#000000" stroke-width="30" stroke-linecap="round" stroke-linejoin="round" stroke-miterlimit="10" stroke-opacity="0" d="
	M241.9,233.5l27.4-6.2l21.5,3.1l10.2,6.3l-25,7.6c0,0,12,5.2,11.2,6.1c-0.8,0.9-13.8,19.7-13.8,19.7l47.2,44.6l19.7,4.8"/>
<polyline fill="none" stroke="#000000" stroke-width="30" stroke-linecap="round" stroke-linejoin="round" stroke-miterlimit="10" stroke-opacity="0" points="
	249.2,179 253.5,190.2 230,177.1 246.7,202.1 211.2,177.1 82.1,92.3 "/>
<polyline fill="none" stroke="#000000" stroke-width="30" stroke-linecap="round" stroke-linejoin="round" stroke-miterlimit="10" stroke-opacity="0" points="
	213.1,196 115.6,170.5 75,159.2 "/>
</svg>
