<?xml version="1.0" encoding="utf-8"?>
<!-- Generator: Adobe Illustrator 24.3.0, SVG Export Plug-In . SVG Version: 6.00 Build 0)  -->
<svg isCommex="true" version="1.1" id="Layer_2_1_" xmlns="http://www.w3.org/2000/svg" xmlns:xlink="http://www.w3.org/1999/xlink" x="0px" y="0px"
	 width="798.5px" height="995.7px" viewBox="0 0 798.5 995.7" enable-background="new 0 0 798.5 995.7" xml:space="preserve">
<path fill="#FFF996" d="M700.2,282.8l-0.1-2.9c0-0.7,0.2-1.2,0.7-1.6l18-16.3l-1.7-0.5c-0.4-0.1-0.9-0.2-1.3-0.4
	c-1-0.3-2.1-0.6-3.2-0.9c-2-0.6-3.7-1.1-5.1-1.5c-0.6-0.2-1.2-0.4-1.7-0.5l-0.4-0.1c-3.2-1-4.1-1.4-4.1-2.7l0-0.1
	c-0.4-2.4-3.3-15.1-5.1-21.6l-0.6-2.1l-1.2,1.8c-2.6,3.9-6.9,11.3-11.5,19.6c-0.3,0.6-1.1,1-1.9,1c-6.8-0.8-15.2-1.3-19.9-1.3h-2
	l1.2,1.6c2.3,3.1,7.2,8.8,12,13.8c0.6,0.7,0.8,1.6,0.4,2.4c-3.8,7.4-8.1,16.1-10.4,21.3l-0.9,2.1l2.2-0.7c4.2-1.4,11-4.1,16.9-6.7
	c0.3-0.1,0.6-0.1,0.9-0.1h0.2l0.2-0.1c0.2-0.1,0.4-0.2,0.6-0.2c0.8-0.2,1.7,0.1,2.2,0.9c1.3,1.6,9.2,9.6,14.6,14.5l1.8,1.7l-0.1-2.4
	C700.5,295,700.3,287.7,700.2,282.8z"/>
<g id="vs-secondary">
	<path fill="#E6074D" d="M347.7,717.3h-2.6c-11.3,0-20.2-0.8-27.3-2.5c-15.2-3.4-23.1-10.8-24.8-23.4l0-0.2
		c-0.3-2.8-0.2-6.1,0.3-10.6l0-0.1c0-0.2-0.1-0.6-0.5-1l0,0c-4.6-3.6-7.7-7.8-9.3-12.4l-1.9-5.7l-0.1,6
		c-0.4,43.7-3.6,105.7-16.8,152.3l-0.3,1.1l1.1,0.2c1.4,0.2,5.3,0.8,11.6,0.9c0.7,0,1.4,0,2.2,0c7.5,0,18.7-0.9,32.4-4.6
		c7.2-2,14.4-4.6,21.5-7.8l0.3-0.1l0.2-0.3c5.4-8.8,9.7-16.5,12.4-22.2l0.1-0.2l0-0.2c-0.2-10.1,0.9-47.5,1.4-63.4L347.7,717.3z"/>
	<path fill="#E6074D" d="M280.1,602.8l0.1,2.1c0.3,7.1,1.1,23.7,1.2,45.6l0,7l1.9-6.7c1.6-5.4,4.1-9.8,5.2-11.4
		c5.6-8.7,30-38.7,34.8-44.6l1.8-2.2l-2.8,0.6c-11.6,2.5-26.6,6-40,9.1L280.1,602.8z"/>
	<path fill="#E6074D" d="M270.7,514.4c2.9,15.7,5.8,31.4,6.8,36.9l0.2,1.1l1.1-0.3c11.4-3.4,23.8-7.2,33.9-10.5l0.9-0.3l-0.2-0.9
		c-1.4-6.8-9.3-42.8-22.8-87.2c-0.6-2-1.2-3.9-1.8-5.8c-5.8-18.4-11.3-34.3-16.5-47.3l-1.1-2.9l-0.8,3c-0.5,1.9-1.3,3.7-2.5,5.1
		c-3.2,4.1-8.3,6.6-14,6.8h-0.7c-4.8,0-9.4-1.8-12.8-4.9l-3.3-3l1.7,4.1c3.8,9.4,7,16,9.8,20.3l0.4,0.7l0.8-0.3c2-0.8,4-1.6,4.8-1.8
		c1.6-0.5,3-0.4,4.4,0.4c2.6,1.4,4.5,5.1,6.7,13c1.4,5,3.3,10.7,5,15.6c1.7,4.9,2.9,8.3,3.4,10.6c1.1,4.9-1.1,6.4-9.7,9.2l-0.8,0.3
		l0.2,0.9c0.1,0.7,0.3,1.5,0.5,2.4c0.4,1.9,0.9,4.5,1.5,7.9C266.9,494.1,268.7,503.6,270.7,514.4z"/>
</g>
<g>
	<path fill="#97C3FB" d="M622.8,864.4c-7.4-14.8-19.2-32.4-25.6-41.9l-1.6-2.3c-6.7-9.8-10.7-18-11.7-20.2l-0.5-1.1l-1,0.8
		c-27.7,20.9-75.1,27-89,28.3l-0.8,0.1l-0.1,0.8c-0.8,10.9-1.6,29.5,0,33.3l0.2,0.6l0.7,0c4.2,0.1,7.9,0.2,10.7,0.4
		c6.4,0.5,8.1,1.5,8.9,2.4c1.9,2.5,4,8,6,13.4l0.2,0.6c0.4,1,0.8,2,1.1,3c0.7,1.8,1.3,3.4,1.8,4.5l0.8,1.6l1-1.5
		c5.3-8.3,11.7-15.3,18.9-21c18.4-14.2,38.5-13.7,54.1-11.6c9.9,1.4,15.7,5.3,20.2,8.4c1.5,1.1,2.9,2,4.4,2.9l2.9,1.6L622.8,864.4z"
		/>
	<path fill="#97C3FB" d="M490.8,828.2l-1.2,0.1c-4.4,0.3-8.1,0.5-11.5,0.5c-2.2,0-4.6-0.1-7-0.2l-1,0l0,1
		c-0.1,5.5,0.6,24.3,13.4,33.1l0.3,0.2l0.3,0c1.8-0.1,3.7-0.1,5.3-0.1h1.2l-0.2-1.2c-1.3-6.5-0.5-23.3,0.2-32.2L490.8,828.2z"/>
	<path fill="#97C3FB" d="M468.2,829.4l0-1l-1-0.1c-20.3-1.5-40.4-7-58.1-15.9c-13.7-6.9-25.1-15.3-32.1-23.7l-1.2-1.4l-0.5,1.8
		c-2.3,7.9-6,15.3-10.8,21.9c-0.8,1-1.7,2.2-2.6,3.4c-0.7,1-1.5,2-2.3,3.1c-7.9,10.4-19.7,26.1-28.6,40.5l-0.9,1.5h2.1l0.2-0.1
		c4.3-1.6,8-3.5,11.4-5.4l0.1-0.1c10.6-5.6,22.7-12,53.7-7.9c24,3.2,39.5,20.6,48.2,34.6l1.1,1.7l0.7-1.9
		c4.3-11.1,6.2-13.9,6.9-14.6c0.6-0.5,1.9-1.7,20.4-2.7c0.6,0,1.2,0,1.7-0.1c0.5,0,1,0,1.5,0h2.4l-1.7-1.7
		C467.7,850.5,468,832.8,468.2,829.4z"/>
</g>
<g id="vs-primary">
	<path fill="#6495FB" d="M378.6,648.6l9.3-32.9c0.3-1.1,1.4-1.7,2.5-1.4c1,0.3,1.6,1.4,1.4,2.5l-9.2,32.4l1.1,0.2
		c30.6,4.2,72.5,9.5,98.6,10.7c6.2,0.3,11,0.4,14.8,0.4c7.7,0,11-0.5,12.4-0.8l0.5-0.1l0.2-0.5c1.2-3.8,8.2-24.9,14.3-42.5l0.9-2.5
		l-2.3,1.3c-8.4,4.7-23.8,10.4-49.7,10.4c-10-0.1-43.9-1.7-58.7-20.2l-0.2-0.2l-0.3-0.1c-2.2-0.8-4.3-1.7-6.5-2.8l-0.2-0.1h-1.4
		c-4.7,0-17.6-1.1-35.2-11.7c-6-3.6-10.5-6.4-14-8.7c-1-0.6-1.8-1.2-2.7-1.7l-1.1-0.7l-0.4,1.2c-0.9,2.7-3,6.4-7.4,8.1
		c-1.2,0.5-2.6,0.7-4.1,0.8c-1.4,0.1-4.2,0.6-9.4,1.6l-0.4,0.1l-2.2,2.7c-7.9,9.7-32,39.2-37.3,47.6c-1.7,2.6-4.7,7.9-5.6,14.1
		l-0.5,3.6l2.3-2.8c3.3-4.1,9.1-9.7,18.3-13.4c3.2-1.3,6.4-2.2,9.9-2.8c21.9-4.2,43.6,5.1,46,6.1l0.1,0c0.1,0,0.3,0.2,0.4,0.3
		l0.3,0.3l0.4,0c3,0.1,5.4,0.3,7.7,0.7l0.1,0c0.3,0,2.4,0.3,6.4,0.9L378.6,648.6z"/>
	<path fill="#6495FB" d="M668.5,649.6c-22.2-14.7-63.5-64.2-68.1-69.8l-0.5-0.6l-0.7,0.3c-10.7,5.2-17,8.7-18.6,10.5l-0.4,0.5
		l0.3,0.6c0.1,0.3,0.3,0.6,0.4,0.9c0.2,0.5,0.5,1.1,0.8,1.6c3.5,7.4,14.2,30,15.2,44.4c0.9,13-0.9,20.1-1.7,23.2h-0.4v1
		c0,0.5-0.2,1.1-0.6,1.8l-0.4,0.6l0.5,0.6c3.4,3.8,9.9,12.9,16.3,22.2c4.1,5.8,7.9,11.5,10.4,15.3l1.2,1.8l0.6-2.1
		c0.3-1,0.7-2.1,1.1-3c0.1-0.2,0.2-0.5,0.3-0.8c0.1-0.2,0.1-0.4,0.2-0.5l0.1-0.2l0.1-0.1v-0.2c0-0.1,0.1-0.1,0.1-0.2
		c10.6-28,34.7-33.5,41.9-34.6l0.7-0.1l0.1-0.7c0.1-0.6,0.2-1.2,0.3-1.8c0.1-0.6,0.1-1.1,0.2-1.7c0.5-3,0.8-5.6,1.1-8.2l0.1-0.6
		L668.5,649.6z M595.7,662.6c0,0.2-0.1,0.5-0.1,0.7c-0.4-0.1-0.7-0.5-0.7-0.8L595.7,662.6z"/>
	<path fill="#6495FB" d="M580.1,705.3c-3.2-13.2-3.3-21.7-3.2-24.7l0.1-1.8l-1.5,0.8c-6.7,3.6-13.7,6.3-20.9,7.8
		c-17.3,3.8-23.4,4-28.2,4.2c-2.7,0.1-5.2,0.2-9,0.8c-2.3,0.4-5.7,1.1-10.4,2.2l-2.8,0.6c-18.1,4.1-51.8,11.7-108,18.5
		c-1.6,0.2-3.2,0.3-4.8,0.5c-4.7,0.5-9.1,1-13.4,1.4l-0.8,0.1l-0.1,0.7c-0.8,4.1-7.4,40.5-3,59c0.4,1.7,1.2,3.5,2.2,5.3l0.2,0.2
		l0.2,0.1c0,0,0.1,0.2,0.2,0.4l0.1,0.2c5.6,9.1,18.2,19.1,33.7,26.9c12.7,6.4,33.2,14.3,59,15.9c2.9,0.2,5.8,0.3,8.9,0.3
		c4.1,0,8.4-0.2,12.5-0.6c0.2,0,0.4,0,0.6-0.1c0.1,0,0.2,0,0.4,0c22.2-2,42.2-6.3,59.6-12.7c17.9-6.6,27.3-13.3,31.2-16.7l0.2-0.2
		c0.1-0.2,0.3-0.4,0.5-0.5l0.1-0.1c1.7-1.5,3-3,3.8-4.3C591.7,782.4,584.9,725.3,580.1,705.3L580.1,705.3z"/>
</g>
<path fill="#97C3FB" d="M489.5,523.8l-0.1-0.3l-0.2-0.2c-3.9-3.7-10-3.3-12.4-3c-5.5,0.6-9.9,3-11,4.4l-0.2,0.2l0,0.3
	c-0.2,3-1.2,14.4-2,23.5l0,0.5c-0.3,3.2-0.5,6.3-0.8,8.7c-0.2,2.6-0.4,3.9-0.4,4.3l0,0.1c-0.4,4.7,0.8,8.5,3.6,11.2
	c2.8,2.8,7.1,4.2,12.5,4.2c1.2,0,2.5-0.1,3.9-0.2c12.9-1.5,17.3-5.2,17.2-7.9C499.5,566.5,492.1,533.7,489.5,523.8z"/>
<g>
	<path fill="#C4DEFF" d="M344.6,574.5c-1.5-0.1-4.8,0.2-6.1,0.4l-1.5,0.2l0.8,1.3c3.2,5.3,6.4,7.1,7,7.4l0.3,0.1h0.6l0.3-0.2
		c2.2-1.7,3.1-4.2,3.4-6l0.1-0.7l-0.6-0.4C346.7,575.3,345.6,574.6,344.6,574.5z"/>
	<path fill="#C4DEFF" d="M570.9,523.3c-3.4-5.1-2.7-15.1-1.9-20.6l0.1-0.8l-0.8-0.3c-3-1.1-5.4-3.9-6.6-7.6
		c-0.9-3.1-0.6-6.6,0.7-10.8l1.1-3.3l-2.7,2.3c-11.8,10.1-29.6,22.9-47.3,26.7l-0.1,0c-0.1,0-0.2,0-0.3,0.1c-0.2,0-0.4,0.1-0.5,0.1
		c-0.5,0.1-1.1,0.2-1.6,0.3c-0.8,0.2-1.6,0.4-2.2,0.4l-1.2,0.1l3.3,12.7c3.8,14.6,7.7,29.6,10.6,40.4l0.3,1.2l1.1-0.5
		c24.1-11.4,42.7-32.9,47.8-39.2l0.5-0.6L570.9,523.3z"/>
	<path fill="#C4DEFF" d="M437.2,514.5c-22.9,0-51.2-26.9-59.4-35.1l-1.3-1.3l-0.4,1.8c-1.8,9.1,0.9,21.5,8,36.8c0,0,0,0.1,0,0.1
		c0,0.2,0.1,0.4,0.2,0.6l0.1,0.2l0.2,0.1c11.8,8.3,40.5,28.9,52.5,40.2l1.7,1.6l-0.6-45.2H437.2z"/>
	<path fill="#C4DEFF" d="M267.5,459.6l-1.4-4.2c-1.5-4.4-3.2-9.4-4.4-13.9c-1.7-6.3-3.2-9.7-4.8-10.6l-0.2-0.1h-0.2
		c-0.2,0-0.5-0.1-1,0.1c-0.9,0.3-3.9,1.5-8.2,3.1c-5.7,2.3-13.1,5.3-19.7,8l-3.8,1.5c-0.1,0-0.1,0.1-0.2,0.1h-0.4l-0.3,0.3
		c-0.3,0.3-0.5,0.4-0.6,0.4l-0.1,0c-2.5,0.9-5.8,2.4-7.1,3.5l-0.5,0.4l0.2,0.7c0.3,0.9,0.8,2.1,1.3,3.5l1.6,4.1
		c2.3,6,5.2,13.4,5.9,17.6c1.3,7.1,2.7,10.6,4.3,10.6h0.2l0.1,0c1.3-0.3,3.1-0.9,6.1-2.1c0.2-0.1,0.4-0.2,0.6-0.3
		c0.5-0.2,1.1-0.5,1.8-0.7c4.6-1.9,10.3-4.1,17.6-6.6l1.8-0.6c1.4-0.5,2.8-0.9,4-1.3c0.1,0,0.2,0,0.3-0.1l0.2,0
		c5.8-1.8,8.5-2.8,9.3-3.7l0.2-0.3v-0.4c0-0.1,0-0.4-0.1-1C269.6,466,268.7,463.2,267.5,459.6z"/>
</g>
<g id="vs-hair">
	<path fill="#FFF996" d="M569,327.5c-0.2-10.6-2-26.3-9.3-41.2c0-0.1-0.1-0.1-0.1-0.2l0.1-0.1l-0.4-0.7c-0.4-0.7-0.4-1.5,0-2.2
		c0.4-0.7,1.1-1,1.9-0.9c2.8,0.3,6.8,0.2,9.1-0.8l0.9-0.4l-0.3-0.9c-4.4-11.9-27.1-21.3-35.4-23.9c-1-0.4-1.5-1.2-1.5-2.1
		c0.1-1,0.7-1.8,1.7-1.9c4.5-0.8,10.1-2.5,12.2-4.2l1-0.8l-1-0.8c-6.7-5.5-30-10.3-52.5-0.5c-0.8,0.4-1.8,0.1-2.4-0.7
		c-0.5-0.9-0.4-1.9,0.4-2.6c4.4-3.7,6.2-7.1,5.7-8.5l-0.1-0.2l-0.2-0.2c-0.2-0.2-1.2-1-4.2-1c-0.7,0-1.5,0.1-2.5,0.2l-0.6,0.1
		c-15,1.8-38,15.5-41.6,18.2l-0.3,0.3c-0.8,0.5-1.8,0.6-2.5,0.1c-0.7-0.5-1.1-1.3-0.9-2.2c0.1-0.4,0.1-0.6,0.7-1.1l0.1-0.2
		c1.7-2.3,5.8-10.1,5.9-13.3l0-1.2l-1.2,0.2c-8,1.4-33.5,19.7-41.3,34.9c-0.5,0.9-1.4,1.3-2.4,1c-1-0.3-1.5-1.3-1.4-2.3
		c2.3-12.7,0.9-16.9,0.2-18.2l-0.4-0.7l-0.8,0.2c-1.1,0.3-4.4,2.1-10,11.7c-9.7,16.5-17.2,43.7-19.3,51.7l-0.1,0.3
		c-0.3,0.9-1,1.5-1.8,1.6c-0.9,0.1-1.7-0.4-2-1.2c-1-2.1-1.9-3.8-2.6-4.9l-1.2-1.9l-0.6,2.2c-1.9,6.8-3,20.3-0.2,38
		c0.1,0.8-0.2,1.6-0.8,2c-0.7,0.4-1.6,0.4-2.2,0c-2.4-1.5-3.8-2-4.6-2.1l-1-0.2l-0.1,1.1c-0.2,2,0.4,5.5,1.7,10.2
		c3.2,10.8,10.6,27.8,10.9,28.5l0.3,0.8l0.8-0.2c0.7-0.2,1.5-0.3,2.2-0.3c3,0.1,5.3,1.9,6.2,5c0.9,3.1,1.8,5.3,2.9,6.7l1,1.4
		l0.7-1.6c1.1-2.3,2.1-6.6,1.2-13.8h0c0-0.2-0.1-0.5-0.1-1c-3.3-28.9-3.8-47.9-1.4-52.2c4.6-8,28.3-28.9,50.9-43
		c8.2-5.2,16.2-9.5,23.8-12.8c0.1,0,0.1,0,0.2-0.1l0.2-0.1c15.6-6.7,28.7-8.5,38.8-5.4c0.5,0.2,0.9,0.5,1.2,1c0.3,0.5,0.3,1,0.1,1.5
		c-0.2,0.5-0.5,0.9-1,1.2c-0.5,0.3-1,0.3-1.5,0.1c-5.6-1.8-12.3-1.8-20.1,0l-6.2,1.4l6.4,0.6c11.2,1,21,3.2,28.9,6.5
		c19.7,8.3,45.7,32.6,47.2,41.6c0.5,3.1,0.7,11.8,0.8,21.8l0.1,3.8c0.3,15,0.6,28.6,1.3,31.3l0.1,0.2c0.6,1.1,1.6,1.8,2.2,2.2
		l1.4,0.9l0.1-1.7c0.3-4.2,1.7-10.2,9.3-13.6l0.6-0.3l-0.1-0.7C570.2,364.8,569.6,351.8,569,327.5z"/>
</g>
<g>
	<path fill="#808080" d="M349.2,790c-2.8,5.9-7.1,13.3-11.7,21l-0.1,0.3c-0.1,0.6-0.4,1-0.9,1.4l-0.1,0.1l-0.1,0.1
		c-5.6,9-12.5,19.7-21,32.5c-0.5,0.7-1,1.4-1.4,2.1c-0.2,0.3-0.3,0.5-0.5,0.8c-1.5,2.4-2.9,4.6-4.2,6.6l-1.1,1.7
		c-0.3,0.4-0.5,0.9-0.8,1.3c-0.4,0.7-0.8,1.3-1.2,1.9l-0.9,1.3l1.5,0.3c2.4,0.5,5.7,0.9,9.5,0.9c2.4,0,5-0.2,7.7-0.6l0.5-0.1
		l0.2-0.4c9.4-16.3,24.5-36.3,31.7-45.9c1-1.4,1.9-2.7,2.8-3.8c0.7-1,1.4-1.9,2-2.7c5.1-6.8,7.9-13.6,9.3-18l0.4-1.3h-21.5
		L349.2,790z"/>
	<path fill="#808080" d="M372.8,716l-1.3,0.1c-7.4,0.7-13.9,0.9-18.8,1.1l-0.9,0l0,0.9c0,0.5-1.6,50.7-1.5,66.2l0,1h21.9l0.1-0.8
		c0.1-0.6,0.2-1,0.3-1.4l0.1-0.4l-0.2-0.3c-1.2-2.3-2.1-4.2-2.5-6c-4.3-18.3,1.4-52.4,2.6-59.1L372.8,716z"/>
	<path fill="#808080" d="M646.6,865.4c-6.4-12.2-16.7-30.9-25-46l-4.5-8.1l0,0c-6.3-11.5-9.5-17.2-10.3-18.8l-0.3-0.6H605
		c-2.6,0-6.9-0.1-12.9-0.4l-0.1,0c-0.1,0-0.3-0.1-0.5-0.1H591l-0.3,0.4c-0.9,1.4-2,2.7-3.4,3.9l-0.5,0.5l0.3,0.7
		c1.4,3.1,5.4,11.4,12.1,21.1c10.3,15.1,22.9,34.3,29.5,49.2l0.3,0.6h0.7l0.8,0c3.6-0.2,7.5-0.5,11.1-0.7l5.9-0.4L646.6,865.4z"/>
	<path fill="#808080" d="M592.2,786.5l-0.2,1.1l1.1,0c1.9,0,3.7,0.1,5.5,0.2c2.5,0.1,4.7,0.1,6.2,0.1h1.1l-0.1-1.1
		c-0.2-3.8-0.2-10.2-0.1-19.1c0.1-3.8,0.1-8,0.1-12.5c0-6.8,0-14.6-0.1-23.2c-0.4-29.5,0.3-40,0.6-43.3l0-0.4l-0.2-0.3
		c-5.7-8.2-11.4-16.2-14.4-19.6l-0.7-0.8l-0.8,0.7c-2.5,2.3-5.2,4.4-6.2,5.2c-1,0.7-2,1.5-3.1,2.3l-0.4,0.3l0,0.5
		c-0.1,4.8,0.1,14.8,3.3,27.7C587.7,719.5,594.7,768.4,592.2,786.5z"/>
	<path fill="#808080" d="M316,338.2c7.3-11.5,26.1-91.5,2.8-162.3v0c-10.8-32.9-24.5-56.3-40.9-69.7c-3.9-3.1-7.7-5.6-11.3-7.3
		c-11.3-5.6-20.8-4.9-26.8-3.3h-1c-0.1,0-0.1,0-0.1,0l-0.1-0.1l-0.2-0.1c-23.9-9.9-52.1-6.1-79.5,10.7
		c-40.1,24.6-69.2,70.5-72.4,114.1c-4.5,59.5,10.6,102.6,22.3,129.8c1,2.5,2,4.8,3.1,7.2l0.6,1.3c0.9,2.1,1.7,3.9,2.4,5.5
		c7.1,17.4,15.2,24.1,32.2,26.3c1.8,0.2,3.7,0.3,5.7,0.3c15.4,0,36.4-6.5,44.2-14.3l0.1-0.1l0.1-0.1c0,0,0-0.1,0.1-0.1l0.2-0.2
		c0.9-1.1,1.5-2.1,1.9-3l0.1-0.3l-0.1-0.3c-0.5-1.9-2.6-3.3-6.8-6l-0.2-0.1c-8-5.1-21.4-13.8-36.9-38.5l-0.1-0.2
		c-21.7-39.8-27.8-79.7-18-118.7c9.7-38.3,38.1-59.8,67.3-77.3c14.2-8.5,22-16.4,26.1-21.5c3.8-4.9,5.4-8.5,5.7-9.5l0,0
		c0.2-0.7,0.7-1.2,1.4-1.4h0.9l0.1,0L239,99c1,0.3,1.6,1.4,1.4,2.3l0,0.2c-0.6,2.2-1.9,4.7-3.7,7.4l-0.8,1.1l1.3,0.4
		c6.4,1.9,27.9,8.9,38.2,21.1c11.9,14.1,14.4,30.7,16.8,54.6c1.1,10.5,3.2,20.9,5.9,33.4l0.2,0.9c2.4,11.3,4.9,23.1,6.1,34.7
		c2,20.8,0.6,65-8.7,94.1l-0.6,1.8l1.8-0.6C306.2,347.5,312.8,343.3,316,338.2z"/>
</g>
<g id="vs-skin">
	<path fill="#FACFBD" d="M657,519.7c0.6-6.9,1.3-8.1,7.1-15.3c1.2-1.5,2.7-3.4,4.4-5.6c2-2.5,4-5.1,6-7.7c2-2.6,4-5.1,5.9-7.6
		c2.7-3.3,5.4-6.8,7.7-9.9l-0.7-0.6h0.9V470l-1.7,2.3c-11.6,9.2-22.7,10.2-27,10.2h-0.9l-0.1,0.8c-0.5,3.2-1.1,5.5-1.8,7l-0.1,0.3
		c-1.8,4-2.7,6-1.7,29L657,519.7z"/>
	<path fill="#FACFBD" d="M698,461.8c0.8-1,1.4-1.6,1.9-2.1c2.3-2.4,7.4-3.1,12-1.7c1.5,0.4,5.4,1.8,8.9,6.1l1.4,1.7l0.3-2.2
		c0.3-2.2,0.4-4.7,0.2-7v0c-0.4-4.6-2.3-7.9-5.4-9.6c-8.5-5.1-17.7-3.9-20.3-3.1l-0.6,0.2l-0.1,0.6c-0.6,3-1.2,5.8-1.8,8.3l-0.1,0.4
		c-0.3,1.3-0.6,2.5-0.9,3.6c-0.2,0.8-0.4,1.5-0.5,2.2c-0.2,1-0.4,1.9-0.6,2.7c-0.2,0.7-0.3,1.2-0.4,1.7c-0.2,1-0.3,1.8-0.4,2.5
		l-0.5,3.8l2.2-2.7C695.3,465,696.8,463.2,698,461.8z"/>
	<path fill="#FACFBD" d="M750.1,491.4l-1.5-1.8l-0.3,2.3c-1.1,9.2-3.9,17-8.2,22.7l-0.7,1l1.1,0.5c2.3,1.1,7.4,4.4,6.1,11.6
		c-0.8,4.6-3,7.9-6.2,9.3c-0.9,0.4-1.9,0.6-3.1,0.6c-1.7,0-3.4-0.5-5-1.5c-1.9-1.2-2.8-3.9-2.7-7.9c0-1.3,0.1-3,0.4-4.4l0.1-1.2
		h-1.3l-0.2,0.1c-0.8,0.3-1.6,0.4-2.5,0.5l-0.5,0.1l-0.2,0.5c-1.7,3.5-3.7,8.7-3.9,12.1c-0.2,2.4,0.6,6.2,3.5,9.1
		c1.8,1.7,4,2.7,6.6,3.2c1,0.1,2,0.2,3,0.2c0.7,0,1.4,0,2-0.1c12.2-1.1,19.4-19.9,19.3-37.5v0C755.8,500.3,752.7,494.4,750.1,491.4z
		"/>
	<path fill="#FACFBD" d="M730.9,506.6c-2.6,2.1-6.5,2.8-10,1.6l-0.7-0.2l-0.4,0.6c-1.7,2.6-3.8,5-6.2,7.2l-1.2,1.2l1.6,0.5
		c3.3,1.1,6.3,1.6,9.1,1.6c0.4,0,0.8,0,1.1,0c1.2,0,2.3-0.2,3.5-0.4c7.6-1.7,15.7-12.2,16.9-31.9c0.1-1.8,0.1-3.6,0.1-5.6v0
		c-0.1-15.4-8.9-20.7-16.3-22.6l-1.2-0.3l0,1.3c0,2.2-0.3,5.6-1.5,9.7l-0.1,0.2c-0.1,0.2-0.2,0.4-0.4,0.7l-0.3,0.4l0.2,0.5
		c0.6,1.6,1.1,3.5,1.5,5.8c0.6,3.3,0.8,6.6,0.6,9.7l-0.1,0.9l0.9,0.2c0.9,0.2,1.8,0.6,2.7,1.1c2,1.4,3.3,4,3.8,7.7
		C735.1,500.9,733.8,504.4,730.9,506.6z"/>
	<path fill="#FACFBD" d="M722,547.7c-3.7-3.8-4.9-8.8-4.7-12.2c0.2-3.6,1.9-8.1,3.1-11.2l0.5-1.2l-1.3-0.2
		c-5.8-0.7-9.9-2.7-10.4-2.9l-0.6-0.3l-0.5,0.5c-5.3,3.4-8.3,5.8-9.9,7.1l-0.5,0.5l0.2,0.7c0.9,2.5,3.8,10.1,7.4,17
		c0.2,0.4,0.3,0.9,0.2,1.4c-0.2,0.5-0.5,1-1.1,1.3c-0.4,0.2-0.9,0.3-1.4,0.2c-0.5-0.2-1-0.5-1.3-1c-3.9-7.6-6.9-15.7-7.9-18.4
		c-0.2-0.5-0.3-0.8-0.4-0.9c-0.2-0.6,0-1.3,0.3-1.8c0.4-0.5,2.8-3.3,12.3-9.3c0.3-0.2,0.6-0.4,0.9-0.6c0.3-0.2,0.5-0.4,0.9-0.6
		c8.4-6.2,14.1-16.4,15.2-27.3c0.3-3.5,0.2-7-0.4-10.6c-0.5-2.7-1.2-5-2.2-7c-2.1-4.5-5.4-7.6-9.5-8.9c-4.1-1.3-7.1-0.3-8,0.7
		c-0.4,0.4-0.9,0.9-1.5,1.6l-0.3,0.4l0.1,0.5c0.3,2.1,1.3,6.5,3.8,12.6c3.8,9.6,1.5,14.7-3.4,20c-2.3,2.6-4.5,3.9-6.5,3.9l-0.4,0
		c-1.7-0.2-3.1-1.3-4.6-3.5c-1.6-2.4-4.6-6.7-6.6-9.4l-0.8-1l-0.8,1c-3.2,4-6.4,8-10.1,12.9c-1.8,2.3-3.3,4.2-4.5,5.7
		c-5.7,7.3-5.8,7.4-6.4,16.7c-0.1,1-0.2,2.1-0.2,3.3c-0.1,1.4-0.2,3-0.4,4.8c-1,12,2.7,24.9,6,33.5c3.7,9.7,7.8,17.1,10.5,20.8
		l0.1,0.1c0,0.1,0.1,0.3,0.1,0.4l0,0.1c1.4,5.1-1.4,39.8-3.9,61.8l-0.4,3.2c-0.3,2.8-0.6,5.2-0.9,7.2c-0.3,1.9-0.6,3.8-0.8,5.8
		c-2.1,17.7-2.4,36.2-2.4,36.3c0,1.1-0.9,2-2,2s-2-0.9-2-2c0-0.2,0.2-16.4,2-33.1l0.1-1.3l-1.3,0.2c-7.9,1.4-27.4,7.2-36.8,31
		l-0.1,0.4l0.2,0.4c6.8,16.3,18.8,31.7,33,42.4c11.2,8.4,22.5,12.9,32.1,12.9c2.7,0,5.2-0.3,7.6-1c20.9-6.3,18.9-38.9,17.3-65.1
		c-0.1-1.7-0.2-3.2-0.3-4.8l0-0.7c-0.3-4.2-0.5-9.2-0.7-14.4c-0.1-2.5-0.2-5.1-0.4-7.7c-1.1-26.1-2.8-65.6-6.2-77.4
		c0-0.1,0-0.5-0.1-0.6c0.3-4.9,6.2-15.5,16.8-29.8l0.8-1.1l-1.2-0.5C725.3,550.3,723.7,549.2,722,547.7z"/>
	<path fill="#FACFBD" d="M581.1,456.2l-1.1-0.9l-0.5,1.3c-1.4,3.5-3.6,7.6-5.8,11.8c-0.7,1.2-1.4,2.5-2.1,3.8
		c-3.8,7.5-7.5,15.3-6,20.4c1,3.4,2.9,5.3,5.7,5.5h0.4c3,0,7.7-2.4,10.9-9.3c1.4-3.2,2.5-6.5,3.4-9.9c1.9-7.5,2.2-14.6,1.7-16.7
		l0-0.2l-0.1-0.2C587.2,461.5,586.1,460.3,581.1,456.2z"/>
	<path fill="#FACFBD" d="M573.8,501.9l-0.7,0.1l-0.1,0.7c-0.8,5.2-1.4,15,1.4,18.6l0.2,0.2c0.6,0.7,1.3,1,2.4,1
		c1.6,0,3.2-0.5,4.6-1.3c6.6-4,10.5-15.7,11.6-25.6c0.7-7.2-1.1-10.7-2.8-12.4l-1.1-1.1l-0.5,1.5c-0.8,2.3-1.6,4.7-2.6,6.8
		C583.5,496.6,578.8,500.9,573.8,501.9z"/>
	<path fill="#FACFBD" d="M613,521.9c-2.2-0.8-4.9-0.4-7.3,1.1l-0.5,0.3v0.6c0,5,2.9,10.1,4.8,13.5l0.4,0.8c0.7,1.2,1.1,1.9,1.1,2.4
		c0.4,2.5-8.1,13.3-13,15.5c-0.1,0.1-0.3,0.1-0.4,0.1h-0.1c-6.6-0.7-9.6-10.3-10.6-14.4l-0.4-1.7l-1.3,1.3c-0.1,0.1-0.3,0.2-0.4,0.3
		c-0.2,0.1-0.3,0.3-0.5,0.4c-2,1.8-4,3.7-6.1,5.6c-5.8,5.3-11.8,10.8-16,14.8l-0.8,0.8c-10.7,10.2-20.9,19.8-26.5,34.1l-0.6,1.6
		c-0.9,2.5-2.1,5.6-3.3,9.2l0,0.1c-0.1,0.3-0.2,0.6-0.3,0.8l-0.1,0.2c-6.3,18-15.7,46.2-17.3,51l0,0.3c0,0.4-0.1,0.7-0.2,1
		c-0.7,1.5-1.7,3.9-31.5,2.5c-21.1-1-56.5-4.8-102.2-11.2l-5.4-0.8c-2.9-0.4-3.7-0.5-3.9-0.5c-2.7-0.5-5.8-0.7-9-0.7
		c-15.3-0.2-31.5,4-33.9,4.9c-0.9,0.4-2,0.2-2.6-0.6c-0.3-0.4-0.4-0.9-0.4-1.5c0.1-0.5,0.4-1,0.7-1.3c0.8-0.5,9.9-3.3,22.1-4.7
		l5.5-0.6l-5.4-1.3c-7.6-1.9-19.1-3.6-30.6-1.5c-2.8,0.6-5.6,1.4-8.1,2.3l-0.3,0.1l-0.2,0.3c-5.4,9.7-9.4,21.3-10.9,31.7
		c-0.7,4.3-0.9,8.6-0.6,12.3c2.2,15.8,16.2,22.4,47.8,22.4c1.6,0,3.3,0,5.1-0.1c6.9-0.1,15-0.6,24.9-1.4c6.3-0.5,13-1.2,20.6-2.1
		c58.4-6.9,92.5-14.9,108.9-18.7c5.3-1.3,9.3-2.2,12-2.6c4.1-0.7,6.7-0.8,9.5-0.9l0.7,0c4.9-0.3,11-0.6,26.8-4.1
		c10.8-2.3,19.2-6.7,24.2-10c6.4-4,10.4-8.1,11.8-9.7c0.5-0.6,1-1.2,1.3-1.6l0.1-0.2c0.1-0.3,0.2-0.6,0.3-1.1
		c0.7-2.6,2.5-9.4,1.6-22.3c-1-13.5-11.5-35.7-14.9-43c-0.4-1-0.8-1.7-1.1-2.3c-0.3-0.6-0.5-1.1-0.6-1.4c-1.5-4.2,3.9-7.7,21.2-16
		c0.8-0.4,1.6-0.8,2.4-1.3c13.5-8,21.9-24.7,19.9-39.8C619,527.8,616.5,523.2,613,521.9z"/>
	<path fill="#FACFBD" d="M376.6,442.3c0.2,0.3,0.4,0.6,0.4,0.9l0.1,0.4l0.4,0.2c2,1.2,4.2,3,6.8,5.4l0.1,0.1c0,0,0,0,0,0
		c0.5,0.6,1,1.2,1.6,1.8c0.3,0.3,0.5,0.5,0.8,0.8l2.4,2.7l-0.7-3.6c-1.8-9.1-5.1-25.1-6.4-29.4c-1.3-4.4-4.3-6.3-5.5-6.6l0,0
		c-0.8-0.3-1.2-1.1-0.9-2c0.2-0.7,1.1-1.1,1.8-0.9l0,0c1.3,0.5,5.6,2.6,7.4,8.6c2,6.1,7.7,35.3,7.9,36.4l0.1,0.2v0.5l0.3,0.3
		c17.8,15.5,43,24,75,25.4c1.6,0.1,3.1,0.1,4.6,0.1c48.5,0,84.4-34.5,88.4-38.5c0.2-0.2,0.3-0.4,0.3-0.5l0-0.1
		c0.5-0.8,0.9-1.5,1.3-2.2l0.2-0.3l0-0.4c-0.3-2.4-1.7-17.5-1.5-31c0.2-8.8,3.6-15.9,10.2-21.1l0,0c0.1,0,0.2-0.1,0.4-0.3
		c0.5-0.6,1.1-0.6,1.5-0.5c0.7,0.2,1.2,1,1.1,1.7c-0.2,0.7-0.6,1-1.2,1.4l-0.1,0.1c-2.2,1.8-8.8,7.1-9,18.8
		c-0.1,7.3,0.2,16.2,1.1,26.4l0.2,2.1l1.5-1.4c2.1-2,5.2-5,9.8-11.4l0.6-0.9c0.5-0.8,1.1-1.6,1.7-2.4c4.1-6,6.7-15.4,7.2-26
		c0.5-9.9-1.1-18.9-4.2-23.5c-2.4-3.7-5-3.5-6.5-3.1c-1,0.2-2,0.4-2.9,0.7c-8.2,2.7-8.5,8.3-8.7,11.7c-0.1,1.6-0.2,2.6-1.1,3.4
		c-0.8,0.8-1.9,1-3.4,0.9c-2.5-0.4-5.3-2.3-6.8-4.8c-1.3-2.2-1.6-11.4-2-33.6l0-0.5c-0.2-10.5-0.4-21.3-0.9-24.6
		c-1.1-6.5-24.6-30.2-44.8-38.6c-16.5-6.8-37.6-6.8-43.7-6.7l-0.2,0l-0.2,0.1c-7.1,3.1-14.6,7.1-23,12.4
		c-22.7,14.1-45.7,35-49.5,41.6c-2.2,4.1-0.3,32.8,2.1,50.8c1.7,12.7-2.3,18-4,19.7l-0.6-0.9l-0.9,0.6c-0.6,0.4-1.6,0.5-2.2-0.1
		l-0.2-0.2c-1.9-1.6-3.9-3.7-5.7-10.2c-0.3-1.4-1-2.1-2.4-2.1H375c-0.8,0-1.6,0.3-2.8,0.8c-1.2,0.6-5.2,3.1-7.3,9.8
		c-1.7,5-1.7,11.3-0.1,18.2C366.8,427.1,371,435.4,376.6,442.3z M448.5,327.9c4.3-5.3,7.2-11.8,7.7-13.3l0,0c0.2-0.5,0.5-0.9,1-1.1
		c0.5-0.2,1-0.2,1.5-0.1c0.5,0.2,0.9,0.6,1.2,1.1c0.2,0.5,0.2,1,0,1.5l0,0.1c0,0.1-2.8,7.7-8.4,14.4c-0.3,0.4-0.9,0.7-1.5,0.7
		c-0.4,0-0.8-0.1-1.3-0.5C447.9,330,447.8,328.8,448.5,327.9z M478.1,308.5c0-0.5,0.3-1,0.7-1.3c0.4-0.4,1-0.5,1.5-0.5
		c0.8,0.1,8.3,1.3,15.2,12.8c0.5,0.9,0.2,2.1-0.8,2.8c-0.2,0.1-0.6,0.2-0.8,0.3c-0.1,0-0.1,0-0.2,0c-0.6,0-1.2-0.4-1.6-1
		c-5.6-9.4-11.3-10.7-12.2-10.9l0,0C478.8,310.6,478,309.6,478.1,308.5z M481.4,354.3l0.2-0.3l0,0l0.1-0.2c0.2-0.6,0.7-1,1.4-1.1
		c1.7-0.4,2.9,0.7,3.5,1.4c1.8,2.3,2.7,7.6,1.2,10.5c-0.7,1.4-1.9,2.2-3.3,2.2h-0.1c-1.5,0-2.8-0.9-3.5-2.4
		C479.5,361.5,480,356.1,481.4,354.3z M465.6,381.3c0.7,0,1.4,0.4,1.8,1c0.5,0.9,0.2,2.2-0.7,2.7c-1,0.6-25.2,15.3-28.6,27.1
		c-1.6,5.5-0.5,14.3,5.3,21.6c4.6,5.7,13.5,12.3,29.9,11.3c12.5-0.7,21.8-5,27.8-12.8c5.7-7.1,7.9-17.2,6.1-27.1l0-0.2
		c-1.2-10.7-13.8-15.8-15.9-16.3l0,0c-0.5-0.1-0.9-0.4-1.1-0.9c-0.3-0.5-0.3-1-0.2-1.6c0.3-1.1,1.4-1.7,2.5-1.3
		c0.2,0,16.9,5,18.6,19.6c2,11-0.6,22.3-6.9,30.3l0,0c-6.7,8.6-17.3,13.5-30.8,14.1c-1.2,0.1-2.3,0.1-3.4,0.1
		c-12.7,0-23.3-4.6-29.9-12.8c-5.9-7.4-8.2-17.3-5.9-25.2c4-14,30.3-29.3,30.5-29.4C464.9,381.4,465.2,381.3,465.6,381.3z
		 M459.2,357.1l0.2-0.3l0,0l0.1-0.2c0.2-0.6,0.7-1,1.4-1.1c1.7-0.4,2.9,0.7,3.5,1.5c1.8,2.2,2.7,7.5,1.2,10.5
		c-0.7,1.4-2,2.2-3.3,2.2h-0.1c-1.5,0-2.8-0.9-3.5-2.4C457.3,364.3,457.8,358.9,459.2,357.1z M481.1,471.2c0-0.4,0.2-0.8,0.5-1
		c1-0.9,25.5-20.6,49.5-20.6c0.5,0,1,0,1.5,0c0.9,0.1,1.5,0.7,1.5,1.5c0,0.4-0.2,0.8-0.6,1.1c-0.3,0.2-0.6,0.4-1,0.3
		c-22.7-0.9-47.4,18.5-49.1,19.8l0,0c-0.3,0.3-0.6,0.4-1,0.4c-0.4,0-0.8-0.2-1.2-0.6C481.2,471.9,481.1,471.6,481.1,471.2z"/>
	<path fill="#FACFBD" d="M334.5,569.2c0.1,0.5,0.3,0.9,0.5,1.4l0.3,0.7l0.8-0.1c4.1-0.6,7.5-0.8,9.1-0.7c1.7,0.2,2.9,0.9,6.1,2.9
		l0.2,0.2h0.3c0.6,0,1.2,0.4,1.6,1.1l0.1,0.2l0.2,0.1c4.3,2.8,9.9,6.5,19.2,12c7,4.3,14.1,7.4,20.9,9.2l6,1.6l-5.2-3.4
		c-12.2-8.1-23.2-17.6-25.5-20.6c-0.6-0.8-0.5-2.1,0.4-2.8c0.8-0.7,2.1-0.5,2.8,0.4c3.1,4.1,22.7,19.8,36.4,26.8
		c3.3,1.6,5.6,2.5,7.5,3.1l0.2,0c2,0.5,4.7,1.1,7.1,1.1c1,0,2-0.1,2.8-0.4l2.8-0.8l-2.7-1.1c-3.6-1.4-7.7-3.9-12.4-6.9l-1.4-0.9
		c-10.9-6.8-26.1-20.3-34.2-27.7c-0.3-0.3-0.5-0.4-0.5-0.5c-0.8-0.7-0.8-2,0-2.8c0.3-0.4,0.8-0.6,1.3-0.6c0.5,0,1.1,0.2,1.4,0.5
		c0.2,0.2,21,19.5,34.2,27.7c7,4.3,13,8,17.1,8.5c0.6,0.1,1.5,0.2,2.3-0.1c1.5-0.4,2.8-1.6,3.9-3.7c3.3-5.9,1.2-9.9,0.1-11.4
		l-0.4-0.6l-0.7,0.3c-1.4,0.5-2.7,0.7-4.1,0.7c-1.5,0-2.7-0.2-4-0.6c-7.7-2.6-39.4-27.2-49-34.7l-0.1-0.1c-0.4-0.3-0.7-0.8-0.7-1.3
		c-0.1-0.5,0.1-1.1,0.4-1.5c0.3-0.4,0.8-0.7,1.3-0.7c0.5-0.1,1.1,0.1,1.5,0.4c13.8,10.9,41.7,32.1,48,34.3c1.9,0.6,4.1,0.5,6-0.3
		c1-0.4,2-1.2,2.7-2.2c2.2-2.8,1.9-6.9-0.7-10.8c-0.2-0.3-0.5-0.6-0.8-1c-6.3-7.7-34.4-28.3-56.9-44.2c-1.2-0.8-2.3-1.6-3.4-2.4
		c-1.9-1.3-3.7-2.6-5.2-3.6c-0.9-0.7-1.2-1.9-0.6-2.8c0.7-0.9,1.8-1.2,2.8-0.6c0.2,0.1,0.4,0.3,0.6,0.4c0.1,0.1,0.3,0.2,0.4,0.3
		l2.8,2.1l-1.3-3.3c-2.4-6.2-5.3-15.4-5.4-24.4l0-2.2l-1.6,1.5c-2.3,2.1-5.8,5.4-9.3,9.3c-2.2,2.4-5.1,8.5-9,18.5l-0.1,0.2
		c-0.4,2.8-0.7,4.6-0.8,4.8l-0.1,0.3c-0.2,0.8-0.8,1.2-1.2,1.4l-0.4,0.2l-0.1,0.4c-0.5,1.5-1.1,3-1.6,4.4c-0.6,1.7-1.2,3.3-1.7,4.8
		c-3,8.6-4.2,11.6-5,12.8c-2.2,3.3-6.4,4.2-8,4.5l-0.8,0.1l0,0.8c-0.1,2.6-0.4,11.7,2.6,20.9C334.3,568.6,334.4,568.9,334.5,569.2z"
		/>
	<path fill="#FACFBD" d="M300.4,255.3c-1.1-11.6-3.7-23.4-6.4-35.4c-0.1-0.7-0.3-1.4-0.4-2.1c-0.2-0.7-0.3-1.5-0.5-2.2l-2,0.2
		c0.3,9.9-0.9,17-3.6,20.9c-5.2,7.6-13.5,11.1-19.5,12.6l-1.7,0.4l1.2,1.2c1.5,1.5,4.5,4.3,8,6.6c0.7,0.4,1.4,0.8,2.1,1.2
		c0.5,0.3,0.9,0.5,1.4,0.8l0.1,0.1c5.4,3,11.4,6.5,12.6,16.3c2.1,18.2-5.8,30.2-22.2,33.9l-0.1,0c-0.1,0-0.2,0-0.4,0
		c-0.8,0-1.7-0.5-1.9-1.5c-0.2-1.1,0.5-2.2,1.5-2.4c14.4-3.2,21-13.4,19.1-29.5c-0.9-7.9-5.6-10.5-10.7-13.3c-0.5-0.3-1-0.6-1.5-0.9
		c-0.8-0.5-1.5-0.9-2.3-1.4c-5.7-3.7-10.6-9.1-11.6-10.3l-0.3-0.4h-0.2c-14.2-11.9-19.2-37.8-19.7-40.8c-2.4-13.3-2.7-25.4-0.8-35.1
		l0.1-0.4l-7.4-10.6c-0.1-0.2-0.2-0.5-0.2-0.8c0-0.2,0.1-0.4,0.4-0.6c0.2-0.1,0.5-0.2,0.8-0.2c0.2,0,0.4,0.1,0.6,0.4l6.4,9.2
		l0.6-1.9c1.3-4.2,3-7.6,5-10.2l0.4-0.5l-0.3-0.6c-2.1-4.6-3.3-7-3.6-7.6l-0.1-0.1c-0.3-0.4-0.2-1,0.2-1.4c0.2-0.2,0.4-0.3,0.6-0.3
		c0.3,0,0.6,0.1,0.8,0.3c0.2,0.2,0.8,1.3,3.3,6.7l0.5,1.1l1-0.7c0.2-0.2,0.4-0.3,0.7-0.5c0.2-0.2,0.4-0.3,0.6-0.5
		c1.4-1,3-1.8,4.5-2.1l0.8-0.2l-0.1-0.9c-0.4-5-0.9-10.5-1-11.2c-0.1-0.6,0.2-1,0.8-1.1c0.6-0.1,1,0.2,1.2,0.9
		c0.2,0.6,0.7,6.2,1.1,11.2l0.1,0.9h0.9c1.2,0,2.5,0.2,3.8,0.5c0.2,0.1,0.4,0.1,0.5,0.1c0.1,0,0.1,0,0.1,0l1.4,0.7v-9.6
		c0-0.6,0.4-1,1-1s1,0.4,1,1v10.4l0.5,0.3c1.4,0.7,2.7,1.6,3.7,2.5l1.3,1.1l1.3-7.1c0-0.3,0.2-0.5,0.4-0.6c0.2-0.1,0.5-0.2,0.7-0.1
		c0.3,0,0.5,0.2,0.6,0.4c0.1,0.2,0.2,0.5,0.1,0.7l-1.5,8.4l0.3,0.4c3.1,3.4,5.6,7.2,7.3,11.4c1.1,2.5,2.3,5.9,3.6,10.6l2-0.4
		c-2.1-19.5-4.5-35.4-15.4-48.3c-11.2-13.3-38.3-20.4-38.5-20.4l-0.6-0.1l-0.4,0.5c-6.5,7.5-15.2,14.6-26.1,21
		c-18.3,10.9-38.9,24.9-52.5,45.5l-2.3,3.5l3.7-2.1c4.9-2.9,12.7-6,21.9-5.1c4.6,0.5,8.6,1.6,11.8,2.6c0.5,0.2,0.9,0.3,1.3,0.4
		c7.5,2.4,11.6,3.4,15.5-1.1c0.5-0.7,1.4-0.7,2.1-0.2c0.3,0.3,0.5,0.6,0.5,1c0,0.4-0.1,0.8-0.4,1.1c-2.8,3.4-6,4.6-10.7,4l-2.3-0.3
		l1.4,1.9c12.3,16.3,20.5,58.1,19.4,68.7c-1,8.1-7.1,16.8-15.5,22.2c-5.8,3.7-12.2,5.5-18.9,5.5c-4.1,0-8.1-0.6-11.8-1.9l-0.1-0.1
		c-0.1,0-0.2-0.1-0.2-0.1l-0.1-0.1c-15.9-12.1-15.8-43.9-13.2-60.9l0.2-1.1H155c-2.3,0-5.1-0.9-7.7-2.6c0,0-0.1-0.1-0.1-0.1
		c-0.2-0.2-0.4-0.4-0.4-0.7c0-0.2,0-0.5,0.2-0.8c0.2-0.2,0.4-0.3,0.6-0.3c0.3,0,0.6,0,0.8,0.2c0.8,0.6,4.3,2.8,7.6,2.3l0.7-0.1
		l0.1-0.7c0.6-2.5,1-4.4,1.5-5.6l0-0.1c0.1-0.1,0.1-0.3,0.1-0.5v-0.8l-0.8-0.1c-4.6-0.8-6.8-4.4-6.8-4.4c-0.3-0.5-0.1-1.2,0.4-1.5
		c0.4-0.3,1-0.1,1.3,0.3c0.4,0.8,2.5,3.3,6.2,3.7l0.8,0.1l0.3-0.7c0.6-1.6,1.3-3.2,2.1-4.9l0.5-1.1l-1.2-0.3c-3.2-0.7-5-2.4-5.6-3.1
		c-0.4-0.5-0.3-1,0.1-1.4c0.5-0.4,1.1-0.2,1.5,0.2c0.4,0.5,2.2,2,5.5,2.4l0.7,0.1l0.3-0.6c4.2-8,8.6-13.1,13.5-15.8l2.9-1.6
		l-3.3-0.3c-11.8-1.1-21.3,5.5-24,7.5l-0.2,0.2c-0.2,0.1-0.4,0.2-0.8,0.2c-0.3,0-0.4-0.1-0.5-0.1l-0.9-0.6l-0.5,1
		c-3.6,6.7-6.4,14-8.4,21.8c-9.5,37.9-3.5,76.9,17.7,116c14.9,23.9,27.9,32.2,35.6,37.1l0.2,0.1c5.1,3.3,8.5,5.4,8.8,9.8l0,0.2
		c0,0.1,0,0.2-0.1,0.5l0,0.2c0,0.3-0.2,0.6-0.3,0.9c-0.1,0.2-0.1,0.3-0.2,0.5l-0.5,1.2l1.2,0.2c10.7,1.6,18.3,4.5,22.1,8.3
		c2.5,2.5,4.4,4.6,6,6.7c0.9,1.2,1.8,2.3,2.7,3.4c2.3,2.9,4.4,5.6,7.3,8.9c2.7,3,6.7,4.6,11.1,4.6c0.1,0,0.3,0,0.4,0
		c4.5-0.1,8.6-2.1,11.2-5.3c4.3-5.4,1.3-15.4,0.3-18.4l-0.3-0.9l-0.9,0.2c-3.7,0.9-7.5,1.4-11.7,1.4c-2.1,0-5.4-0.1-8.8-0.8
		c-0.1,0-0.1,0-0.2,0c-0.5-0.1-1-0.5-1.2-0.9c-0.3-0.4-0.4-1-0.2-1.5c0.1-0.5,0.5-1,0.9-1.2c0.4-0.3,1-0.4,1.5-0.2
		c0.1,0,10,2.5,21.3-1.1c8.9-2.9,15.9-8.8,20.8-17.6c1.5-2.8,3-6,4.4-9.7C300.9,324,302.6,277.7,300.4,255.3z M237.3,149.4
		c-0.5-0.1-0.9-0.4-1.1-0.9c-0.3-0.5-0.3-1-0.1-1.6c0-0.2,4.8-16.1,15.3-19.4c0.2-0.1,0.4-0.1,0.7-0.1c0.9,0,1.6,0.5,1.9,1.3
		c0.2,0.5,0.1,1.1-0.1,1.6c-0.2,0.5-0.6,0.8-1.1,1l0,0c-8.2,2.6-12.6,16.2-12.8,16.8C239.6,149.2,238.4,149.8,237.3,149.4z
		 M284.2,327.3c-0.3,1.5-1.7,6.7-6.3,12.6c-6.5,8.3-16.2,14.1-28.8,17c-4,0.9-8.1,1.4-12.3,1.4c-24,0-39-16.4-39.2-16.6
		c-0.3-0.3-0.4-0.6-0.4-1c0-0.4,0.2-0.8,0.5-1.1c0.3-0.3,0.6-0.4,1-0.4c0,0,0,0,0,0c0.4,0,0.8,0.2,1.1,0.5
		c1.5,1.6,15.8,15.6,37.2,15.6c3.7,0,7.5-0.4,11.3-1.3c27.7-6.4,32.6-25.4,33-27.2l0,0c0.1-0.9,1-1.3,1.8-1.2
		C283.9,325.7,284.3,326.6,284.2,327.3z"/>
</g>
<path fill="none" stroke="#000000" stroke-width="4" stroke-linecap="round" stroke-linejoin="round" stroke-miterlimit="10" d="
	M201.1,250.6c3.5,0.1,3.6,10.6-0.2,9.8c-3.8-0.8-2.4-9.5,0-9.5s1.4,7.8,0.8,7.9s-1.5-0.8-1.5-1.1s0.6-5.2,0.6-5.2s0,2.6,0.3,3"/>
<path fill="none" stroke="#000000" stroke-width="5" stroke-linecap="round" stroke-linejoin="round" stroke-miterlimit="10" d="
	M186.6,181.1c16.1-0.2,29.7,60.1,28.2,73.7c-1.5,13.6-20.3,32.5-44.2,24.5c-18.2-13.8-14.9-56.5-10.5-68.7
	C164.3,198.3,172.5,179.7,186.6,181.1z"/>
<path fill="none" stroke="#000000" stroke-width="5" stroke-linecap="round" stroke-linejoin="round" stroke-miterlimit="10" d="
	M151.9,186.1c0.3-0.2,11.4-9.4,25.6-7.9s22.8,9.8,29.9,1.4"/>
<path fill="none" stroke="#000000" stroke-width="4" stroke-linecap="round" stroke-linejoin="round" stroke-miterlimit="10" d="
	M156.5,196c0,0,2.3,2.9,7.6,2.9"/>
<path fill="none" stroke="#000000" stroke-width="4" stroke-linecap="round" stroke-linejoin="round" stroke-miterlimit="10" d="
	M151.9,203.5c0,0,2.5,4.1,7.9,4.1"/>
<path fill="none" stroke="#000000" stroke-width="4" stroke-linecap="round" stroke-linejoin="round" stroke-miterlimit="10" d="
	M148,215c0,0,4.7,3.5,9.1,2.3"/>
<path fill="none" stroke="#000000" stroke-width="4" stroke-linecap="round" stroke-linejoin="round" stroke-miterlimit="10" d="
	M271.5,228c3.5,0.1,3.6,10.6-0.2,9.8c-3.8-0.8-2.4-9.5,0-9.5s1.4,7.8,0.8,7.9s-1.5-0.8-1.5-1.1s0.6-5.2,0.6-5.2s0,2.6,0.3,3"/>
<path fill="none" stroke="#000000" stroke-width="5" stroke-linecap="round" stroke-linejoin="round" stroke-miterlimit="10" d="
	M263.5,248.9c0,0,15.2-1.4,23-12.8s0.9-48.6-5.5-63.4s-20-22.7-28.8-16.2s-14,24.1-8.9,53s19.3,40,19.3,40"/>
<line fill="none" stroke="#000000" stroke-width="4" stroke-linecap="round" stroke-linejoin="round" stroke-miterlimit="10" x1="234.4" y1="162.9" x2="241.7" y2="173.4"/>
<path fill="none" stroke="#000000" stroke-width="4" stroke-linecap="round" stroke-linejoin="round" stroke-miterlimit="10" d="
	M244.4,149.9c0.4,0.4,3.8,8,3.8,8"/>
<path fill="none" stroke="#000000" stroke-width="4" stroke-linecap="round" stroke-linejoin="round" stroke-miterlimit="10" d="
	M256.5,140.6c0.2,1,1.2,12.7,1.2,12.7"/>
<line fill="none" stroke="#000000" stroke-width="4" stroke-linecap="round" stroke-linejoin="round" stroke-miterlimit="10" x1="266.3" y1="144.5" x2="266.3" y2="155.6"/>
<line fill="none" stroke="#000000" stroke-width="4" stroke-linecap="round" stroke-linejoin="round" stroke-miterlimit="10" x1="275.2" y1="151.7" x2="273.5" y2="161.3"/>
<path fill="none" stroke="#000000" stroke-width="6" stroke-linecap="round" stroke-linejoin="round" stroke-miterlimit="10" d="
	M238,147.5c0,0,4.5-15.1,14.1-18.1"/>
<path fill="none" stroke="#000000" stroke-width="6" stroke-linecap="round" stroke-linejoin="round" stroke-miterlimit="10" d="
	M263.3,249.4c0,0,5.2,6.1,11.3,10.1c6.1,4,14.1,6.1,15.4,17s-0.1,27.1-20.6,31.7"/>
<path fill="none" stroke="#000000" stroke-width="5" stroke-linecap="round" stroke-linejoin="round" stroke-miterlimit="10" d="
	M198.6,340.6c0,0,19.9,21.6,50,14.7s34.1-28.3,34.1-28.3"/>
<path fill="none" stroke="#000000" stroke-width="6" stroke-linecap="round" stroke-linejoin="round" stroke-miterlimit="10" d="
	M243.6,382.5c0,0,29.3,7.1,44.2-19.7c14.9-26.8,16.8-84.4,14.6-107.7s-9.9-46.8-12.2-69.1c-2.2-22.2-4.5-39.4-16.3-53.4
	s-39.6-21.1-39.6-21.1"/>
<path fill="none" stroke="#000000" stroke-width="6" stroke-linecap="round" stroke-linejoin="round" stroke-miterlimit="10" d="
	M238.6,100.8c0,0-3.8,15.1-32.7,32.3s-56.9,38.6-66.4,76.1c-9.4,37.5-4.1,77.1,17.9,117.5c24.5,39.3,43.8,37.1,44.4,46.2
	c-3.7,12.1-36.8,22.1-54.9,19.7s-26.6-9.8-33.8-27.6c-7.3-17.7-34.3-68.2-28.6-144.8S173.7,66.5,239.2,93.7
	c21.9-6.1,57.5,8.1,81.6,81.6s3.8,153.2-3.1,163.9s-24.1,13.9-24.1,13.9"/>
<path fill="none" stroke="#000000" stroke-width="6" stroke-linecap="round" stroke-linejoin="round" stroke-miterlimit="10" d="
	M198.9,377.6c0.9,0.3,19.2,1.8,25.8,8.4s9.1,11.4,16,18.9s19.6,6.8,25.6-0.8s0-21.7,0-21.7"/>
<path fill="none" stroke="#000000" stroke-width="6" stroke-linecap="round" stroke-linejoin="round" stroke-miterlimit="10" d="
	M268.1,382.4c0,0,34.3,8.5,94.1,37.1"/>
<path fill="none" stroke="#000000" stroke-width="6" stroke-linecap="round" stroke-linejoin="round" stroke-miterlimit="10" d="
	M222,393.9c-0.1,0.4-34.5,41-36.1,47.4c-3.3,16.1,2.4,104,25.8,150.4c11.1,21.8,26.6,18,29.9,17.9s89.1-21.3,99.6-22
	c10.5-0.6,10.5-12,10.5-12"/>
<path fill="none" stroke="#000000" stroke-width="6" stroke-linecap="round" stroke-linejoin="round" stroke-miterlimit="10" d="
	M344,585.7c0,0-7.5-3.5-11.7-16.7c-4.2-13.3-3.1-29.2,0-30.6c3.1-1.4,3.2,4.7,3.2,4.7"/>
<path fill="none" stroke="#000000" stroke-width="6" stroke-linecap="round" stroke-linejoin="round" stroke-miterlimit="10" d="
	M332,537.4c0,0-72.8,24-84.9,24.6c-9.8-15.4-22.1-58.3-23.2-64.9"/>
<path fill="none" stroke="#000000" stroke-width="6" stroke-linecap="round" stroke-linejoin="round" stroke-miterlimit="10" d="
	M332,544.5c0,0,4.7-0.5,6.9-3.6c2.2-3.2,13.3-40.2,20.2-47.9c6.9-7.7,13.4-12.8,13.4-12.8"/>
<path fill="none" stroke="#000000" stroke-width="6" stroke-linecap="round" stroke-linejoin="round" stroke-miterlimit="10" d="
	M373.3,512.4c0,0,59.6,41.2,66.6,51.7s-1.8,19.2-10.2,16.4c-8.4-2.9-48.5-34.6-48.5-34.6"/>
<path fill="none" stroke="#000000" stroke-width="6" stroke-linecap="round" stroke-linejoin="round" stroke-miterlimit="10" d="
	M438.8,580.4c0,0,5.9,5.7,1,14.7c-5,8.9-12.5,4.3-26.1-4.1s-34.5-28-34.5-28"/>
<path fill="none" stroke="#000000" stroke-width="6" stroke-linecap="round" stroke-linejoin="round" stroke-miterlimit="10" d="
	M431.2,600.7c-0.4-0.1-1.3,6.5-15.4,2.6s-41.2-25.6-45-30.6"/>
<path fill="none" stroke="#000000" stroke-width="6" stroke-linecap="round" stroke-linejoin="round" stroke-miterlimit="10" d="
	M407.9,600.1c0,0-14.2,1.7-35.9-11.3s-24.1-15.9-27-16.2s-10.9,1-10.9,1"/>
<line fill="none" stroke="#000000" stroke-width="6" stroke-linecap="round" stroke-linejoin="round" stroke-miterlimit="10" x1="339.8" y1="460.9" x2="373.3" y2="475"/>
<path fill="none" stroke="#000000" stroke-width="6" stroke-linecap="round" stroke-linejoin="round" stroke-miterlimit="10" d="
	M325.1,439.9c0,0,20.4,30.1,24.1,44.4s-0.6,33.3-0.6,33.3"/>
<path fill="none" stroke="#000000" stroke-width="6" stroke-linecap="round" stroke-linejoin="round" stroke-miterlimit="10" d="
	M224.5,387.3c0,0-1.6,10.3-3.1,31.5s0.2,23.9,0.2,23.9s-9.8,3.3-9,6.1s7.8,19,9,25.8c1.2,6.7,2.9,13,7,12.2
	c4.1-0.9,11.7-4.7,26.4-9.7s18-5.1,16.9-9.8s-5.7-16.5-8.3-26s-5-13.1-8.6-12.1s-31.9,12.7-31.9,12.7"/>
<path fill="none" stroke="#000000" stroke-width="6" stroke-linecap="round" stroke-linejoin="round" stroke-miterlimit="10" d="
	M230.5,392.5c0,0,8.9,26.3,16.7,37.9"/>
<path fill="none" stroke="#000000" stroke-width="6" stroke-linecap="round" stroke-linejoin="round" stroke-miterlimit="10" d="
	M261.1,475.6c0.4-0.3,14.7,78.1,14.7,78.1l-40.1-68.4"/>
<path fill="none" stroke="#000000" stroke-width="6" stroke-linecap="round" stroke-linejoin="round" stroke-miterlimit="10" d="
	M268.1,385.9c0,0,8.9,16.3,24.4,66.8c15.4,50.4,23.1,88.7,23.1,88.7"/>
<path fill="none" stroke="#000000" stroke-width="6" stroke-linecap="round" stroke-linejoin="round" stroke-miterlimit="10" d="
	M278,385.3c0,0,31.5,27.4,32.6,43.8c-0.9,5.2-18.3,17.1-17.5,16.8s23.5-2.2,26.4,10c2.9,12.1,8,74.6,2.9,84.6"/>
<path fill="none" stroke="#000000" stroke-width="6" stroke-linecap="round" stroke-linejoin="round" stroke-miterlimit="10" d="
	M278,601.2c0,0,9.6,146.4-19,229.9c-17.9,11-41.4,3.3-56.7-5.9s-28-28.9-28-39.6s15.5-70.1,15.5-70.1"/>
<path fill="none" stroke="#000000" stroke-width="6" stroke-linecap="round" stroke-linejoin="round" stroke-miterlimit="10" d="
	M206.9,581.2c0,0,5.8,48.7,2.4,63.7s-23.4,51.5-22.6,60.7s28.3,31,49,31.8c7.1-2.7,11.3-41.4,11.3-41.4"/>
<path fill="none" stroke="#000000" stroke-width="6" stroke-linecap="round" stroke-linejoin="round" stroke-miterlimit="10" d="
	M261.8,822.3c0,0,30.6,8.1,73.5-11.4"/>
<line fill="none" stroke="#000000" stroke-width="6" stroke-linecap="round" stroke-linejoin="round" stroke-miterlimit="10" x1="220.6" y1="834.3" x2="217.4" y2="854.1"/>
<line fill="none" stroke="#000000" stroke-width="6" stroke-linecap="round" stroke-linejoin="round" stroke-miterlimit="10" x1="277.1" y1="825.1" x2="271.5" y2="850.5"/>
<line fill="none" stroke="#000000" stroke-width="6" stroke-linecap="round" stroke-linejoin="round" stroke-miterlimit="10" x1="312.5" y1="820" x2="309.7" y2="846.5"/>
<path fill="none" stroke="#000000" stroke-width="6" stroke-linecap="round" stroke-linejoin="round" stroke-miterlimit="10" d="
	M461.2,357.4c2.9-0.6,4.5,10.3,0.9,10.2c-3.6-0.1-2.5-10-0.9-9.6s0.7,6.7,0.7,6.7"/>
<path fill="none" stroke="#000000" stroke-width="6" stroke-linecap="round" stroke-linejoin="round" stroke-miterlimit="10" d="
	M483.4,354.6c2.9-0.6,4.5,10.3,0.9,10.2c-3.6-0.1-2.5-10-0.9-9.6s0.7,6.7,0.7,6.7"/>
<path fill="none" stroke="#000000" stroke-width="6" stroke-linecap="round" stroke-linejoin="round" stroke-miterlimit="10" d="
	M458,315.3c0,0-2.8,7.5-7.9,13.9"/>
<path fill="none" stroke="#000000" stroke-width="6" stroke-linecap="round" stroke-linejoin="round" stroke-miterlimit="10" d="
	M479.9,308.6c0,0,7.1,0.8,13.7,11.9"/>
<path fill="none" stroke="#000000" stroke-width="6" stroke-linecap="round" stroke-linejoin="round" stroke-miterlimit="10" d="
	M465.6,383.6c0,0-25.8,15.1-29.6,28.2s6.3,37.3,37.3,35.4s38.9-25.3,35.7-42.4c-1.4-13.3-17.2-18-17.2-18"/>
<path fill="none" stroke="#000000" stroke-width="5" stroke-linecap="round" stroke-linejoin="round" stroke-miterlimit="10" d="
	M482.6,471.3c0,0,25.8-21.1,50.1-20.2"/>
<path fill="none" stroke="#000000" stroke-width="6" stroke-linecap="round" stroke-linejoin="round" stroke-miterlimit="10" d="
	M384.5,401c-1.2-1-3.2-2.5-5.1-9.4s-12.5-3.3-16.3,8.4c-3.8,11.7,0.6,29.6,12,43.5"/>
<path fill="none" stroke="#000000" stroke-width="5" stroke-linecap="round" stroke-linejoin="round" stroke-miterlimit="10" d="
	M377,413.7c0,0,4.6,1.5,6.5,7.7s7.8,36.3,7.8,36.3"/>
<path fill="none" stroke="#000000" stroke-width="6" stroke-linecap="round" stroke-linejoin="round" stroke-miterlimit="10" d="
	M385.1,401.9c0,0,5.9-3.7,4-18.4s-4.7-46.9-1.8-52.1c4.5-7.7,28.3-28.6,50.2-42.3c21.8-13.7,44.8-23.2,61.4-18.1"/>
<path fill="none" stroke="#000000" stroke-width="6" stroke-linecap="round" stroke-linejoin="round" stroke-miterlimit="10" d="
	M461.3,276.5c0,0,25.6-1.3,45.2,6.8c19.5,8.2,44.7,32.2,46,40.1s0.5,54.5,2.6,57.8s5.9,4.7,7.2,3.6s-2.3-13,13.5-16.3
	s17.1,38.9,5.6,55.8c-11.5,16.8-14.7,15.3-17.9,21.3"/>
<path fill="none" stroke="#000000" stroke-width="5" stroke-linecap="round" stroke-linejoin="round" stroke-miterlimit="10" d="
	M573.3,390.3c-0.1,0.5-10,5.9-10.2,20.5c-0.3,14.7,1.5,30.9,1.5,30.9"/>
<path fill="none" stroke="#000000" stroke-width="6" stroke-linecap="round" stroke-linejoin="round" stroke-miterlimit="10" d="
	M370.7,388.5c0,0-8.4-19-11.9-30.6c-3.4-11.6-2.7-17.4,7-11.1c-4.2-26.3,0.3-42.3,2.4-42.8c2.2-0.5,6,8.3,6,8.3s8.3-33.3,19.7-52.6
	s19.2-16.9,14.7,8.3c8.2-16,34.6-35,43.2-36s-3.3,18.4-3.7,18.1c-0.4-0.3,25.8-17,43-19c14.2-1.7,11,6.6,3.4,13.1
	c24.5-10.7,51.1-4.3,56.2,2.5c0.3,5-14.9,7.5-14.9,7.5s34,10.9,37.3,27.3c-3.1,3.7-12.4,2.5-12.4,2.5s9.7,15.5,10.3,43.1
	c0.6,27.7,1.4,40.2,1.4,40.2"/>
<path fill="none" stroke="#000000" stroke-width="6" stroke-linecap="round" stroke-linejoin="round" stroke-miterlimit="10" d="
	M563.1,446.3c0,0-39.7,41.9-95,39.5s-77.2-25.5-85.2-35.1c-5.9-5.7-10.3-7.1-10.3-7.1s-3.8,0.9-1.3,13.6s4.8,17.6,4.8,17.6
	s37.3,40.6,63.8,37.6"/>
<path fill="none" stroke="#000000" stroke-width="6" stroke-linecap="round" stroke-linejoin="round" stroke-miterlimit="10" d="
	M434.5,510.6c0-1.7,0-12.1,0-12.1l5.5,1.4l0.8,63.1"/>
<path fill="none" stroke="#000000" stroke-width="6" stroke-linecap="round" stroke-linejoin="round" stroke-miterlimit="10" d="
	M375.7,474.1c0.3,0.6-8.2,11.7,6.5,43.5"/>
<path fill="none" stroke="#000000" stroke-width="6" stroke-linecap="round" stroke-linejoin="round" stroke-miterlimit="10" d="
	M579.4,428.5c0,0,1.5,13.4-0.8,24.1s-18.3,29.7-14.9,40.7c3.3,11,15.3,8.2,20.7-3.6s6.3-26.4,5-28.6s-9.1-7.9-9.1-7.9"/>
<path fill="none" stroke="#000000" stroke-width="6" stroke-linecap="round" stroke-linejoin="round" stroke-miterlimit="10" d="
	M588.8,479.8c0,0,8,2.2,6.4,16.1c-1.5,13.9-8,28.8-18.3,28.7s-5.6-24.4-5.6-24.4"/>
<line fill="none" stroke="#000000" stroke-width="6" stroke-linecap="round" stroke-linejoin="round" stroke-miterlimit="10" x1="582.9" y1="522.9" x2="582.9" y2="539.2"/>
<path fill="none" stroke="#000000" stroke-width="6" stroke-linecap="round" stroke-linejoin="round" stroke-miterlimit="10" d="
	M569.5,471.3c0,0-29.2,30.3-57.3,35.7c0,0-4.1,1-4.2,0.8s-2.5-9.3-2.5-9.3h3.1l1.3,5.7"/>
<path fill="none" stroke="#000000" stroke-width="6" stroke-linecap="round" stroke-linejoin="round" stroke-miterlimit="10" d="
	M513.2,505.7c-0.3-0.9-2.8-10.8-2.8-10.8l-7.6,3.6c0,0,19.9,78.9,21.6,81.1c4.3-1.5,5.6-0.8,5.2-1.7c-0.4-1-3.3-11.3-3.3-11.3"/>
<path fill="none" stroke="#000000" stroke-width="6" stroke-linecap="round" stroke-linejoin="round" stroke-miterlimit="10" d="
	M573.7,524.2c0,0-21.3,28.2-50.8,41.8"/>
<path fill="none" stroke="#000000" stroke-width="6" stroke-linecap="round" stroke-linejoin="round" stroke-miterlimit="10" d="
	M415.8,603.3c0,0,12.4,19.9,57.6,20.3c42.8,0,56.3-15.7,56.3-15.7"/>
<path fill="none" stroke="#000000" stroke-width="6" stroke-linecap="round" stroke-linejoin="round" stroke-miterlimit="10" d="
	M460.4,562.2c0-0.6,2.9-32.8,3.2-37.2c0.3-4.4,19.3-11.3,27.6-2.5c2.5,8.6,10.3,43.5,10.4,47.1s-4.1,8.2-19,10
	C467.8,581.3,459.4,573.8,460.4,562.2z"/>
<path fill="none" stroke="#000000" stroke-width="6" stroke-linecap="round" stroke-linejoin="round" stroke-miterlimit="10" d="
	M330.4,589.4c0,0-33.6,40.8-40.1,51s-11,26.2,3.6,37.5"/>
<path fill="none" stroke="#000000" stroke-width="6" stroke-linecap="round" stroke-linejoin="round" stroke-miterlimit="10" d="
	M286.3,663.1c-0.3-0.5,8-16.8,30.5-21.1s44.8,6,44.8,6"/>
<line fill="none" stroke="#000000" stroke-width="6" stroke-linecap="round" stroke-linejoin="round" stroke-miterlimit="10" x1="389.9" y1="616.2" x2="380.4" y2="649.5"/>
<path fill="none" stroke="#000000" stroke-width="6" stroke-linecap="round" stroke-linejoin="round" stroke-miterlimit="10" d="
	M326.7,653.9c0.8-0.6,24.9-7.3,44.2-4.4c19.3,2.9,78.7,11,111.2,12.5s29.7-1.8,29.7-1.8s16.1-48.6,21.8-63.6
	c5.7-14.9,16.3-24.7,27.8-35.6c11.5-10.9,34.7-31.9,40.4-37.5c5.7-5.7,17.5-7.3,19.9,10.8s-8.6,36-23.5,43.2S577,588.4,578,591
	c1,2.7,15.4,30.8,16.6,47.2s-2,23.4-1.9,24.1s-13.3,17.4-39.1,23s-26,3.2-37.2,5s-46,12.4-121,21.3c-75.1,8.9-97.6,1.2-100.7-20.6
	c-1.1-13.1,4.3-32.2,12.3-46.2c-16.8,16.4-19.2,21.5-19.2,21.5s6.3,9.3,6,7.9c-0.3-1.4,2.2-14.9,2.2-14.9l-5.1,7.9l1.5,1.5l1-3.2"/>
<path fill="none" stroke="#000000" stroke-width="4" stroke-linecap="round" stroke-linejoin="round" stroke-miterlimit="10" d="
	M587.6,537.8c0,0,2.5,16.5,10.5,17.3c4.8-2.1,12.6-12.5,12.3-14.4s-7.7-11.1-6.2-19.3"/>
<path fill="none" stroke="#000000" stroke-width="6" stroke-linecap="round" stroke-linejoin="round" stroke-miterlimit="10" d="
	M601.2,577.6c0,0,46.2,56.2,69.2,70.8"/>
<path fill="none" stroke="#000000" stroke-width="6" stroke-linecap="round" stroke-linejoin="round" stroke-miterlimit="10" d="
	M668.3,664.6c0,0-31,1.9-42.5,35.4c-5.4,12.1,1.2,16.4,7.6,15.3c-4.3-4.6-7.2-12.8-7.2-12.5s0.3,8.2,0.3,8.2l2.9,2.2l-0.5-1.7"/>
<path fill="none" stroke="#000000" stroke-width="6" stroke-linecap="round" stroke-linejoin="round" stroke-miterlimit="10" d="
	M625.2,712.5c0,0-28-42.4-33.5-47.2"/>
<path fill="none" stroke="#000000" stroke-width="6" stroke-linecap="round" stroke-linejoin="round" stroke-miterlimit="10" d="
	M666.6,701.2c0-1.3,0.5-23.7,3.2-42.4s6.8-65.8,5.3-71.3c-6.8-9.6-18.6-34.3-16.8-55.7c1.7-21.5-0.8-15.2,11.9-31.6
	c12.6-16.4,27.6-35.3,31.3-39.2c3.7-3.8,19.6-3.2,23.1,16.4c3.4,19.5-7.7,35-17.4,41.2s-11.8,8.8-11.8,8.8s3.4,9.9,8.1,19"/>
<path fill="none" stroke="#000000" stroke-width="6" stroke-linecap="round" stroke-linejoin="round" stroke-miterlimit="10" d="
	M664.2,566c0,0-9.6-13.8-10.9-42c-1.3-28.1-0.3-29.9,1.8-34.5s3.2-18.2,4.1-29.4s-2.3-33.9-6.5-46.6s-11.1-31.8,7.8-40
	s36.6,3.1,37.8,29.7s-6.5,52.9-7.9,59.8s-0.1,9-0.1,9"/>
<path fill="none" stroke="#000000" stroke-width="6" stroke-linecap="round" stroke-linejoin="round" stroke-miterlimit="10" d="
	M696.1,442c1.2-0.6,12.2-3.2,22.5,3.2c10.3,6.3,4.9,23.8,4.9,23.8"/>
<path fill="none" stroke="#000000" stroke-width="6" stroke-linecap="round" stroke-linejoin="round" stroke-miterlimit="10" d="
	M725.6,456.2c0.1,0.3,20.9,0.9,21.1,25s-9.1,37.3-18.6,39.5c-9.5,2.1-18.5-2.6-18.5-2.6"/>
<path fill="none" stroke="#000000" stroke-width="6" stroke-linecap="round" stroke-linejoin="round" stroke-miterlimit="10" d="
	M747.8,487.1c0,0,10,4.8,10.1,23.5c0.1,18.8-7.6,38.3-21.2,39.5s-17.8-8.7-17.4-14.5s4.8-14.5,4.8-14.5"/>
<path fill="none" stroke="#000000" stroke-width="6" stroke-linecap="round" stroke-linejoin="round" stroke-miterlimit="10" d="
	M731.2,551.2c0,0-17.8,23.2-18.3,31.2c4.3,15.2,5.9,72.8,7.4,100s5.6,65.5-18.4,72.6s-60.9-20.3-75.4-56.6"/>
<path fill="none" stroke="#000000" stroke-width="4" stroke-linecap="round" stroke-linejoin="round" stroke-miterlimit="10" d="
	M658,481.5c0,0,15.5,1.6,30.9-12.5"/>
<path fill="none" stroke="#000000" stroke-width="4" stroke-linecap="round" stroke-linejoin="round" stroke-miterlimit="10" d="
	M660,442c0,0,9,13,31.6,10.2"/>
<path fill="none" stroke="#000000" stroke-width="4" stroke-linecap="round" stroke-linejoin="round" stroke-miterlimit="10" d="
	M668,448.5c0,0,24.4-10.8,29.6-23.8"/>
<path fill="none" stroke="#000000" stroke-width="4" stroke-linecap="round" stroke-linejoin="round" stroke-miterlimit="10" d="
	M657.1,422.6c0.3,0.4,22.2-7.3,39.1-19.7"/>
<path fill="none" stroke="#000000" stroke-width="4" stroke-linecap="round" stroke-linejoin="round" stroke-miterlimit="10" d="
	M650,387.8c0,0,6.8,7.8,21.7,10.9s23.6-1.9,23.6-1.9"/>
<path fill="none" stroke="#000000" stroke-width="4" stroke-linecap="round" stroke-linejoin="round" stroke-miterlimit="10" d="
	M699.8,462.7c0,0,0.2,5.7,4.1,15.1c3.8,9.4,1.4,14-3.2,18.9s-7.5,4.4-10,0.6s-8.8-12.4-8.8-12.4"/>
<path fill="none" stroke="#000000" stroke-width="4" stroke-linecap="round" stroke-linejoin="round" stroke-miterlimit="10" d="
	M725.1,488.7c0,0,7.1-1.7,8.3,8s-7.5,12.5-12.5,10.5"/>
<path fill="none" stroke="#000000" stroke-width="4" stroke-linecap="round" stroke-linejoin="round" stroke-miterlimit="10" d="
	M737.4,516.1c0,0,9.7,2.2,8,11.4s-8.3,10.6-12.7,7.7c-4.4-3-1.4-15.6-0.4-16.2"/>
<path fill="none" stroke="#000000" stroke-width="6" stroke-linecap="round" stroke-linejoin="round" stroke-miterlimit="10" d="
	M674.9,356.4c0-0.9,9.1-20.8,7.9-22s-19.9-5.5-19.9-5.5l16.8-20.4"/>
<path fill="none" stroke="#000000" stroke-width="6" stroke-linecap="round" stroke-linejoin="round" stroke-miterlimit="10" d="
	M682.7,287.8c0.1,0.5,20.6,20.9,20.3,19.2c-0.3-1.7-0.9-27.2-0.9-27.2l20.8-18.8c0,0-19.7-5.2-19.7-5.7s-5.5-26.4-7.2-26.9
	s-14.9,23.7-14.9,23.7s-21.1-2.2-24-0.9s13.7,18.4,13.7,18.4s-12.4,23.9-12.3,26.2c0.1,2.3,22.6-7.5,22.6-7.5"/>
<path fill="none" stroke="#000000" stroke-width="6" stroke-linecap="round" stroke-linejoin="round" stroke-miterlimit="10" d="
	M375.1,715c0,0-7.9,40.6-3.1,60.9c4.8,20.3,56.9,55.9,119.1,50.4s92.9-27.2,98-35.6s-2.7-67.8-7.1-85.8s-3.3-29.8-3.3-29.8"/>
<path fill="none" stroke="#000000" stroke-width="6" stroke-linecap="round" stroke-linejoin="round" stroke-miterlimit="10" d="
	M374.7,782.3c0,0-1.4,13.4-11.9,27.5s-38.9,50.3-44.3,69.1"/>
<path fill="none" stroke="#000000" stroke-width="6" stroke-linecap="round" stroke-linejoin="round" stroke-miterlimit="10" d="
	M447.4,886.7c0,0,6.3-17.3,8.5-19.3s52.7-4.4,55.7-0.6c3.1,3.8,7.1,18,9.3,21.8"/>
<path fill="none" stroke="#000000" stroke-width="6" stroke-linecap="round" stroke-linejoin="round" stroke-miterlimit="10" d="
	M584.4,795.7c0.3,1.1,4.7,11.4,13,23.5s29.9,43.8,33.2,60"/>
<path fill="none" stroke="#000000" stroke-width="4" stroke-linecap="round" stroke-linejoin="round" stroke-miterlimit="10" d="
	M469.1,827.6c0,0-2.1,25.5,14.4,36.4"/>
<path fill="none" stroke="#000000" stroke-width="4" stroke-linecap="round" stroke-linejoin="round" stroke-miterlimit="10" d="
	M491.9,826.8c0,0-2.4,31,0,36"/>
<path fill="none" stroke="#000000" stroke-width="6" stroke-linecap="round" stroke-linejoin="round" stroke-miterlimit="10" d="
	M349.8,716.2c0,0-1.9,59.9-1.5,71c-6.4,14.3-22.5,38.5-34.7,57c-7.2,10.9-11.7,18.5-16.1,24.3"/>
<path fill="none" stroke="#000000" stroke-width="6" stroke-linecap="round" stroke-linejoin="round" stroke-miterlimit="10" d="
	M349.8,787.4c-0.1,0,22.7,0,22.7,0"/>
<path fill="none" stroke="#000000" stroke-width="6" stroke-linecap="round" stroke-linejoin="round" stroke-miterlimit="10" d="
	M608.4,689c0,0-1,7.6-0.6,43s-0.6,56.5,0.6,59.4s43.3,77.9,45.9,85.3"/>
<path fill="none" stroke="#000000" stroke-width="6" stroke-linecap="round" stroke-linejoin="round" stroke-miterlimit="10" d="
	M592.1,789.5c0,0,14.9,0.6,14.9,0.3"/>
<path fill="none" stroke="#000000" stroke-width="18" stroke-linecap="round" stroke-linejoin="round" stroke-miterlimit="10" stroke-opacity="0" d="
	M190.9,372.3l-6.3,5.6l-15.8,6.2l14.4-15.5l-6.7-5.1l-18.8,22.1l-12.7-1.4l25.6-26.7l-3.2-4.7c0,0-29.5,28.1-30,27.9
	s-6.5-5.3-6.5-5.3s29.1-28.1,28.7-28.5s-6-8.6-6-8.6s-30.7,29.2-30.9,28.9c-0.2-0.3-6.5-14.5-6.5-14.5s33.3-24.4,32.9-24.8
	s-4.6-9.3-4.6-9.3s-33,24.4-33.5,23.9s-4.1-7.1-4.1-7.1l35.7-25.4l-3.8-7.7l-33.2,18.3c0,0-2.3-9.2-2.3-8.2s33.6-16.6,33.1-17.1
	c-0.5-0.6-3.6-10.2-3.6-10.2l-34.9,18.6l-2.2-9.9l35.6-18.7l-1-9.5L94,282.2l-1.2-12.7l34.9-12.6l1.3-10l-36.7,11.5
	c0,0-1-13.7-1.1-13.2c-0.2,0.5,36-10.1,36-10.1l1.5-9.7c0,0-37.3,10.1-37.5,9.4s0-11.7,0-11.7l39.4-7.9l0.8-5.8
	c0,0-41.6,6.3-41.6,5.8s2.1-8.4,2.1-8.4l44-7.6l3.5-11.7l-44.7,7.2c0,0,2.7-10.3,2.6-10.1c-0.1,0.3,47.5-6.3,47.5-6.3l5.8-9.1
	l-52.3,4.7l8.8-11.4l50.7-2.4l11.5-10.2l-52.7,0.8L129,137l47.1,4.4l16.2-9.8l-55-4.6l13.6-11.3l50.1,8.9l12.8-5l-60.3-16.7l17.7-3
	l49,11.8l7.9-5.6L189.7,94l37.6,1.1l13.7,10.2l7.7-5.1l13.9,2.5l-10.7,6.4l7.5,2.5l8.1-2.8l8.2,5.7l-5.8,2.5l10.5,4.9l7,6.5
	l-5.6,1.1L293,136l3.1,7.6l-7.9-0.7l9.8,7.1l6.4,10.4l-8.2-5.3l3.4,13.1l10.6,0.4l3.9,12.3l-14.8-4.2l2.8,14l14.6,3.6l1.7,12.3
	l-20.4-6.4l6.8,16.4l14.6,1.1l1.1,10.5l-15.9-1.2l5.2,11l11.5-0.7v13.9l-10.9-3.7l4.4,7.4l8.3,2l-0.6,13.8l-10.8-8.5l-0.1,15.9
	l9.5,0.4l-1.2,11.3l-6-2.1l-0.9,10.2l5.9,0.3l-1.8,11l-6.3-2.3l-1.9,8.8c0,0,6.5-0.1,6.4,0s-6.4,19.1-6.4,19.1l-1.6-9.2
	c0,0-0.4,8.1-0.6,8.4s-2,6-2,6l-2,3.1"/>
<path fill="none" stroke="#000000" stroke-width="27" stroke-linecap="round" stroke-linejoin="round" stroke-miterlimit="10" stroke-opacity="0" d="
	M238,120.1l-90,77.4l-6.8,24.9l115.9-96l8.5,12.1l-130.4,102l2.9,20.3L276,156.1l5,16.6c0,0-140.1,100.9-139.7,102.9
	s0.7,14.8,0.7,14.8L257.6,215l11.4,4.6l-114.4,88.6l-2,14.8l139.2-104.2l1.9,15L162.8,334.7l11.2,10.9l122.6-95.1l-1.5,16.5
	l-109.3,90.8l10.4,6.3l100.4-77.9v10.7l-85.9,67.9l15.6,5.4l67.8-56.2l-6.8,28.7l-17,21.6l-18.5,7.4c0,0-11.5,3.1-12.2,3.2
	s-9,1.1-9,1.1s18.3,13.9,19.3,14.8s3.8,4.9,3.8,4.9s1.5-6.9,1.3-7.4"/>
<path fill="none" stroke="#000000" stroke-width="20" stroke-linecap="round" stroke-linejoin="round" stroke-miterlimit="10" stroke-opacity="0" d="
	M333.4,552.3c0.4,0.6,10.1-4.9,10.1-4.9l11.7-26.6l11.5-25.8l2,19.5c0,0-32.1,48-30.8,48.3s9.3,2.7,9.3,2.7l29.3-39.2l10.4,7.7
	l-27.3,36l8.5,3.9l27.2-35.9l5.8,6.1l-25.4,37.2l7.4,3.4l28.1-35.7l8.2,10.4c0,0-26.8,30.9-25.8,30.9s14.4,1.1,14.4,1.1l20.7-27.2
	l8.4,8.4L419,594.9l9.6,0.8l5.2-10.1"/>
<path fill="none" stroke="#000000" stroke-width="20" stroke-linecap="round" stroke-linejoin="round" stroke-miterlimit="10" stroke-opacity="0" d="
	M581.2,465.3c0.2,1-6.1,23.4-6.1,23.4h9.8l-4.9,20.8l-1.1,2.9"/>
<polyline fill="none" stroke="#000000" stroke-width="20" stroke-linecap="round" stroke-linejoin="round" stroke-miterlimit="10" stroke-opacity="0" points="
	226.6,446.5 223.9,450.7 227.7,465.1 238.8,448.8 253.2,439.9 230.5,475.6 243.8,471.8 258.2,451.5 262.8,463.6 253.6,467.9 "/>
<path fill="none" stroke="#000000" stroke-width="20" stroke-linecap="round" stroke-linejoin="round" stroke-miterlimit="10" stroke-opacity="0" d="
	M247.2,403.8l-4.7,6.4l2.4,14.5c0,0,9.9-14.5,11-14.7s15.2-6.2,15.2-6.2l-14.3,28.5l6,16.5l18-31.9l6.2,15c0,0-20,37.9-19.7,39.4
	s-1,19.9-1,19.9l25.6-37.5l2.4,12.4L270,504.7c0,0-0.2,20.4,1.3,17.9c1.5-2.6,24.9-40.4,24.9-40.4l11.2,14.8
	c0,0-32.8,40.4-32.4,41.7s3.8,13.4,3.6,12.3s33.9-32.3,33.9-32.3l2.3,18.1c0,0-35.8,64.9-35.1,66.3c0.7,1.3,0,16.3,0,16.3l21.2-25.3
	l18.3-2.3l-36.1,41.9l-6.9,16.9l3.4,26.3l6.9,3.5v26.9l-6.8,23.4c0,0-0.7,11.9-0.6,11.3c0.1-0.6,17.4-29.7,17.4-29.7l5.6,4.8
	l-27.5,41.3l-2.8,10.5l41-46.9l10.1,0.8l-52.2,61.5l-0.7,18.8l64.6-78l5.6-0.4l-69.7,93.6h13.6l57.4-82.9l-2.3,26.2l-38.9,51.3
	l24.5-6.5l10.7-17l4.2-13.6l-21.1,25.5"/>
<path fill="none" stroke="#000000" stroke-width="12" stroke-linecap="round" stroke-linejoin="round" stroke-miterlimit="10" stroke-opacity="0" d="
	M384.1,392.9c0-1-1.8-10.5-1.8-10.5s-7.3-0.5-7.7-0.7c-0.4-0.2-2.6-3.7-2.6-3.7l12-0.7l-0.7-8.5l-14.4,2.3c0,0-2.3-5.5-1.7-5.9
	s15.2-2.3,15-3.1s-0.5-7.9-0.5-7.9s-16.3,4.2-16.8,3.8c-0.5-0.4-3.4-8-3.4-8s18.5-1.9,18.9-1.9s-1.1-8.3-1.1-8.3l-7.9,1.3l-2.1-8.9
	l10.1-0.7l5.6-5.8c0,0-14.7-1.9-15-2.4s0.9-9.5,0.9-9.5l9.7,6.2l9.2-0.2l5.6-4.5c0,0-15-3.4-15.1-3.7c-0.1-0.3,0.3-8.2,0.3-8.2
	s19.1,6.7,19.1,6.3c0.1-0.4,5.4-5.4,5.4-5.4l-20.7-8.5l1.3-8.8l26,14.8l7.8-4.9l-30.6-17.5l3.4-8.6l30.4,20.6c0,0,6.6-2.8,6.1-3.2
	c-0.5-0.4-30.6-21.9-30.6-21.9l5.6-12.1l1.5,11.5l12.4,6.3l16.2,11.3l7.3-0.9l-24.5-19.5l5.2-4.4l22.9,17.9l8.5-1.7l-23.4-20.5
	l6.7-9.2l11.5-7.7l-3.4,9.3l-7.9,7.3l22.9,16.9l9.8,0.3l-21.5-18l11.7-3.4c0,0,19.7,23.1,20.2,23.5s10.5,1.1,10.5,1.1l-23.3-28.1
	l24.2-9.7l3.2-0.7l-6.4,8.7l-9.5,1.8c0,0,18.6,26.9,19.1,26.9s11.8,6.1,11.8,6.1s-19-26.1-18.8-26.3c0.2-0.3,6.3-3.7,6.3-3.7
	s17.5,30.8,17.6,31.1c0.1,0.3,9.5,5.6,9.5,5.6l-19.5-40.1l22.3,0.3l13.5,0.3l3.1,0.8l-27.7,3.8l15.6,38.7l9.9,9.8l-14.2-41.3
	l12.3,5.7l24.2,14.3l1.4,1.2l-26.8-8.3l9.3,31.8l4.9,10.8l-0.7-30l8.9,16.6l3.9,20.2l-0.1,4.2l-7.8-6.7L560,329l5,4.4l-0.4,4.9
	l-5.2-3l-0.1,8.8l7.1,2.9l0.5,7.7l-7.6-5.2l0.1,5.2l5.2,4.2l0.7,5.8l-6-3.6l-0.4,11.9l-0.1,3.6"/>
<path fill="none" stroke="#000000" stroke-width="20" stroke-linecap="round" stroke-linejoin="round" stroke-miterlimit="10" stroke-opacity="0" d="
	M471,269.7l-89.2,78.9l0.3,11.1l91.6-78.4l19.8,1.2L389,374.2l-1.1,14c0,0,115.7-99.6,116.4-99.6s17.6,7.3,17.6,7.3L371.2,404.6
	l1.8,15l156.2-113.9c0,0,7.7,5.6,8.8,6.7S372.5,430.6,372.5,430.6s4.2,8.8,4,9.3s171.2-117.4,171.2-116.4s0,17.9,0,17.9l-160.2,110
	l8.7,8.1l151.5-103.4l5.2,15.3l-145,93.8l12,8l140.7-89.7l14.6-4.7c0,0,1.3,10.4,1.5,9.2s-143,89.1-143,89.1l13.5,2.6L581,395.8
	l-2.9,11.5c0,0-115.9,72.7-114.7,72.7s17.1-0.1,17.6-0.3s94.2-64.4,94.2-64.4l-19.7,28.2l-50.6,33.6"/>
<path fill="none" stroke="#000000" stroke-width="20" stroke-linecap="round" stroke-linejoin="round" stroke-miterlimit="10" stroke-opacity="0" d="
	M316.2,649.5l-12.8,10.8l-3.5,11.5c0,0,28.1-22.7,28.6-22.8s17,2.6,17,2.6l-44.9,35.1l3.3,12.7l54.7-41.5l12.5,0.7l-55.6,46.6
	l17,0.8l49.3-42.9l15.6,0.4l-53.1,43.8c0,0,17.6-0.6,17.4-0.6s45.8-43.6,45.8-43.6l13.4,0.8L376.4,704l24.1-2.7l32.1-34.6l11.9-1
	l-34,34.9l12.4-0.9l32.4-29.4l16.1-0.8l-33.3,27.9l14.3-2.8l31.3-23.8l16.2,0.6l-32.4,22.2l36.6-9.9l11.2-14.7l8.5-9.7l24.7-73
	l62.3-56.7l1.6,8.8l-3.3,12.9l-12.5,13.5l-16.3,12.1l-23.7,14.7l-38.9,91.7l14.6-4.3l32.2-80l5-0.5l-25,79.3l11.4-2.5l20.6-68.2
	l6.1,18.9l-15.3,46.9l11.4-9.4l6.5-5.4l2.2-22.9"/>
<path fill="none" stroke="#000000" stroke-width="20" stroke-linecap="round" stroke-linejoin="round" stroke-miterlimit="10" stroke-opacity="0" d="
	M645.5,682.6c0,0-10.8,16-10.8,16.3s7.7,14.4,7.7,14.4l15.2-34.9l8.8-1.5l-13.7,45.6l10.3,12.9l33.6,17.6l8.6-7.7
	c0,0-40.9-23.1-40.9-23.6s4.6-12.4,4.6-12.4s41.5,23.3,41.7,22.5c0.3-0.8,5.1-11.9,5.1-11.9L677,698.8l-3.1-14.3
	c0,0,43.6,20.6,43.6,19.9s-1.4-16.3-1.4-16.3l-40-17.6l1.6-13.2l36.1,15.2l-1.6-14.2l-32.5-12.6l0.8-10.1l28.9,10.4l1.3-12.9
	l-30.3-6.7l1.6-13c0,0,33.7,8.3,32.8,7.7s-2.8-13.5-2.8-13.5s-26.5-6-26.8-5.9s-1.8-14.7-1.8-14.7l30.1,3.5l-3.6-9.6l-32.9-6.5
	l-5.3-12.8l43.4,7.5l1.8-9.4l-47.8-10.1l-1.4-9.7c0,0,64.1,12.6,64.1,12s11-12,11-12s-75.4-9.1-75.8-10.3c-0.4-1.3-4.9-16-4.9-16
	s88.3,18.8,88.3,18s2.7-14.4,2.7-14.4l-90.3-15l3.4-11.7l86.2,17.9l-14.7-14.8l-71.6-14.3l6.7-10.3l66,13.2l-3.7-12.5l-42.7-8.9
	l1.2-7.3l20.2,6.2c0,0,0.5-4.2,0-4.7s-18.1-6.5-18.1-6.5"/>
<path fill="none" stroke="#000000" stroke-width="12" stroke-linecap="round" stroke-linejoin="round" stroke-miterlimit="10" stroke-opacity="0" d="
	M694.7,239.7l-9.9,17.5l-19.7-1.9l12.2,10.3l-12.2,24.2l15.5-7.9l5.4-0.3c0,0,12,15.3,11.9,14.7c-0.1-0.6,1.5-21.3,1.5-21.3
	s18.1-13.1,16.5-13s-14.2-2.8-14.3-3.7c-0.1-0.9-3.1-11.4-3.1-11.4l-9.5,17.5l-8.9-1.5c0,0-3.8,15.4-3.2,15
	c0.7-0.4,15.1-1.7,15.1-1.7s0,6,0.1,5.3s12.7-17,12.4-17.1s-6.4-3.7-6.4-3.7s-4.1,10.4-5.2,10.4s-10.5-0.8-10.5-0.8l10.9-2.4"/>
<path fill="none" stroke="#000000" stroke-width="20" stroke-linecap="round" stroke-linejoin="round" stroke-miterlimit="10" stroke-opacity="0" d="
	M374.1,492.9l10.4-9.7l14.2,6.3l-20.1,19.4l2.3,13.6l25.3-24.2l16.7,4.5c0,0-33.3,26.7-33.3,26.6c0-0.1,9,8.6,9,8.6l44-33l7.2,9.6
	c0,0-35.6,28.2-35.2,29.9s8.2,11.5,8.6,10.7s20.7-19.5,20.7-19.5l-9.4,24.5l42.5-37.4l12.1,7.9l-28.8,36.6c0,0,2.3,12.6,3,11.9
	s30-26.5,30.6-28.2s4.7,13.7,4.7,13.7s-16.3,9.7-15,10.5c1.3,0.9,15,6,15,6"/>
<path fill="none" stroke="#000000" stroke-width="20" stroke-linecap="round" stroke-linejoin="round" stroke-miterlimit="10" stroke-opacity="0" d="
	M525,504.1l-14.1,14.1l1.7,17.3l36.5-46.7l16-3l-46.5,66.7c0,0,2.7,10.8,4,10.2s43.7-57.9,43.7-57.9v21.1l-16.8,17.7"/>
<path fill="none" stroke="#000000" stroke-width="40" stroke-linecap="round" stroke-linejoin="round" stroke-miterlimit="10" stroke-opacity="0" d="
	M354.5,568.7c-0.3,1-66.3,83.4-66.3,83.4h9.2l60.1-64.5l38.5,1.8c0,0-53.6,46.9-52,48c1.5,1,17.1,13.2,17.1,13.2l54.6-59.4l26,9
	L394,659.4l6.9,9.9l72.7-59.4l23.5,7.6l-38.8,41.8l33.9,8.1l32.7-51.3l57.8-24.3l40.6,37l34.6,40.3c0,0-12.1,16.2-15.8,13
	s-46.8-58.7-46.8-58.7l7.7,25.9l28.9,37.6"/>
<polyline fill="none" stroke="#000000" stroke-width="40" stroke-linecap="round" stroke-linejoin="round" stroke-miterlimit="10" stroke-opacity="0" points="
	422.8,699.8 392.5,725.4 392.5,768.1 392.5,773.9 410.5,737.4 466.5,701 501.8,698.4 403,786.9 422.4,795.7 536.5,685.5 560,685.5 
	561.1,704.5 439.3,803.3 467.6,805.6 566.9,717.1 568.7,744.2 483.5,808.4 514.8,805.1 555.9,792.4 570.5,784.3 570.5,760.7 
	531.9,782.8 555.7,777.5 "/>
<path fill="none" stroke="#000000" stroke-width="40" stroke-linecap="round" stroke-linejoin="round" stroke-miterlimit="10" stroke-opacity="0" d="
	M397.6,786.9l-9.4,21.5L367,834.8l-17.2,22.6l14.7,4.5l52.3-54.8h14.3L408.6,849c0,0,8.4,10,8.4,8.9c0-1,20.7-30.9,21.7-30.4
	s19.7,1.8,19.7,1.8L442,868.5c0,0,10.4,5.3,10.9,4.1s25.3-48.8,25.3-48.8l26.9,0.8l-19.6,39.3l16.1,4.6c0,0,22.9-46.5,25.8-47.6
	s22.2,0,22.2,0s-29.4,69.4-27.3,69.2c2-0.3,29.1-28.2,29.1-28.2l19.1-53.5l8.4,26.4c0,0,12.6,8.8,13.2,11.6s15.6,22.1,15.6,22.1"/>
<polyline fill="none" stroke="#000000" stroke-width="40" stroke-linecap="round" stroke-linejoin="round" stroke-miterlimit="10" stroke-opacity="0" points="
	367.5,712.5 362.2,777.8 315.6,868.5 "/>
<polyline fill="none" stroke="#000000" stroke-width="40" stroke-linecap="round" stroke-linejoin="round" stroke-miterlimit="10" stroke-opacity="0" points="
	591.7,665.4 587.9,803.4 636.3,874 "/>
</svg>
