<?xml version="1.0" encoding="utf-8"?>
<!-- Generator: Adobe Illustrator 21.0.0, SVG Export Plug-In . SVG Version: 6.00 Build 0)  -->
<svg version="1.1" xmlns="http://www.w3.org/2000/svg" xmlns:xlink="http://www.w3.org/1999/xlink" x="0px" y="0px" width="1000px"
	 height="1000px" viewBox="0 0 1000 1000" enable-background="new 0 0 1000 1000" xml:space="preserve">
<g id="vs-highlight">
	<path fill="#27A8CB" d="M215.7,75c-0.3-3.1,25-14.5,50-6c20.1,6.9,36.3,25.3,40.7,47.3c0.7,3.4,5.1,27.5-10.7,49.3
		c-12.5,17.3-30.1,22.5-35.3,24c-13.2,3.7-24.5,2.5-30.7,1.3c2.9-7.6,5.8-15.1,8.7-22.7c4-1.1,17.7-5.5,27.3-19.3
		c10-14.3,9-29.1,8.7-33.3c-0.4-4.6-1.4-17.2-10-26.7C247.8,70.8,216,78.4,215.7,75z"/>
	<path fill="#27A8CB" d="M179.1,212.1c10.5-3.5,22.1,7.1,27,13.5c9.1,11.8,8.4,25.5,8,32.5c-0.1,1.8-1.8,28.5-22.1,46.9
		c-7.4,6.7-10,5.7-20.9,15.3c0,0-10.9,9.5-20.1,22.2c-15.1,20.7-22,47.2-27,65.8C103,485.1,98.5,479.4,94.2,513
		c-2.5,19.7-3,37.4-3.7,62.9c-0.7,25.1-1,37.6,0.4,52.1c2.6,26.3,8.5,45.6,16.7,72.6c6.9,22.6,10.4,34.1,17,48.5
		c5.5,12,20.3,41.8,48,70.2c13.8,14.2,62,63.6,137.4,70.2c38.1,3.3,67.5-5.6,85.7-11.2c27.8-8.5,56.6-17.3,80.2-44.3
		c21.3-24.3,27.5-51,30.1-62.7c6.4-29.1,2.4-52.6-0.1-67.3c-2.2-12.8-4-23-10.2-34.9C485.2,648.6,472,642.9,463,632
		c-11-13.2-19.2-38.2-4.4-89.9c8.1,7.6,16.2,15.2,24.3,22.8c-3,8.6-6.1,21.4-3.8,36.1c2.7,17.8,11.9,28.7,20,41c0,0,21.2,32,30,69
		c10.6,44.7-8.8,85.1-14,96c-25.2,52.4-71.2,74.5-89,83c-71.3,34.1-139.8,16.5-161,10c-65.7-20.2-102.5-64.5-122-88
		c-33.6-40.5-48.2-80.1-55-99c-2.7-7.5-15.5-43.9-20-96c-2.4-27.2-6-99.9,24-186c20.4-58.5,49.2-102.8,73-133c3.6-6.7,6.7-15.1,7-25
		c0.2-5.1-0.6-9.7-2-19c-2.7-17.6-4.8-19.9-3.2-26.1C167.1,226.6,170.2,215.1,179.1,212.1z"/>
	<path fill="#27A8CB" d="M739,55.2c6.2-0.4,6,13.6,18,21.8c16.9,11.5,38.9-1.7,44.9,8c2.9,4.7,0.1,11.5-1.5,15.4
		c-0.4,0.9-5.7,13.5-15.8,15.3c-8.5,1.6-11.5-6.3-33.6-20.9c-14-9.3-19-10.3-21.1-16.8C727,68.4,733.2,55.6,739,55.2z"/>
	<path fill="#27A8CB" d="M859.1,133.2c4.6-0.1,4.1,11.1,13.9,20.8c8.7,8.6,22.3,12.9,34,12c10.9-0.8,15.8-5.8,19-3
		c4.1,3.6,1.7,17.2-6.2,23.2c-13.9,10.3-40-6.4-47.6-11.3c-8.9-5.7-20.4-13.1-21.2-24.8C850.5,142,855,133.2,859.1,133.2z"/>
	<path fill="#27A8CB" d="M505,285.4c-4.7,1.4-3.1,16.9-3,32.6c0.4,47.2-12.9,52.8-12,88c0.4,15.2,1.2,45.3,22,72
		c1.9,2.4,30.4,37.7,76,39c5.9,0.2,32.4,0.9,56-15c18.5-12.4,23.7-27.4,44-31c5.6-1,11.7-1,23-4c10-2.6,22.6-6,22.8-10.8
		c0.2-4.8-12.1-10.2-22.8-11.2c-4.2-0.4-13.9-0.5-28,7c-16.5,8.8-17.8,16.7-31,27c-21.2,16.5-45.8,17.7-53,18c-8.4,0.3-29,0.8-50-12
		c-17.4-10.7-25.9-25-30-32c-11.7-20.2-12.8-38.9-13-43c-0.6-13.5,2.5-14.8,11-52c7.4-32.5,7.9-44,2.9-55.6
		C516.2,293.7,509,284.2,505,285.4z"/>
</g>
<g id="vs-outline">
	<path fill="none" stroke="#000000" stroke-width="18" stroke-linecap="round" stroke-linejoin="round" stroke-miterlimit="10" d="
		M926.8,177c0.9-4.5-2.6-9.5-9.6-19.5c-7.2-10.3-13.5-16.4-15.6-18.4c-7.7-7.4-11.6-11-17.2-12.5c-10.8-2.8-20,2.7-21.1,3.4
		c-1.7,1-12.6,8.1-12.3,18.2c0.1,4.5,2.4,8.6,13.2,18c20.1,17.6,30.2,26.3,43.3,24.5C915.4,189.7,925.2,184.6,926.8,177z"/>
	<path fill="none" stroke="#000000" stroke-width="18" stroke-linecap="round" stroke-linejoin="round" stroke-miterlimit="10" d="
		M928.8,180.7c6,4,14.1,10.2,21.9,19.3c4.7,5.4,15.8,19.5,21.5,39.5c7.6,26.9,1.4,49.8-1.9,61.5c-16,56.3-66.4,90.3-93.7,108.8
		c-49.4,33.3-99.6,48-138.9,54.4"/>
	<path fill="none" stroke="#000000" stroke-width="18" stroke-linecap="round" stroke-linejoin="round" stroke-miterlimit="10" d="
		M909.3,191c7.6,3.5,27.4,13.8,37.5,36.1c6.3,13.9,6.2,26.5,6,35.1c-0.3,21.7-7.5,37.7-12.3,48c-5.6,12.1-14.5,27.1-32.2,45.5
		c-34.1,35.5-71.2,52.6-96.6,64.1c-20.7,9.3-49.7,20.4-86.2,28.1"/>
	<path fill="none" stroke="#000000" stroke-width="18" stroke-linecap="round" stroke-linejoin="round" stroke-miterlimit="10" d="
		M743.1,46.1c4.2-1.7,9.8,0.9,20.9,6.1c11.4,5.3,18.5,10.4,20.8,12.1c8.6,6.3,12.9,9.5,15.3,14.8c4.6,10.2,0.8,20.1,0.4,21.4
		c-0.7,1.8-5.8,13.8-15.8,15.3c-4.5,0.7-8.9-0.9-20.1-9.9c-20.8-16.8-31.2-25.2-31.7-38.3C732.6,59.5,735.9,49,743.1,46.1z"/>
	<path fill="none" stroke="#000000" stroke-width="18" stroke-linecap="round" stroke-linejoin="round" stroke-miterlimit="10" d="
		M739.1,44.8c-5-5.2-12.5-12.1-22.9-18.2c-6.2-3.7-21.9-12.2-42.7-14.3c-27.8-2.8-49.3,7.3-60.3,12.6
		C560.7,50.4,536,106,522.6,136.1c-24.2,54.4-29.8,106.5-29.3,146.3"/>
	<path fill="none" stroke="#000000" stroke-width="18" stroke-linecap="round" stroke-linejoin="round" stroke-miterlimit="10" d="
		M732.4,65.7c-4.8-6.9-18.4-24.5-42.1-30.6c-14.8-3.8-27.2-1.4-35.6,0.2c-21.3,4.1-35.8,14-45.1,20.5c-10.9,7.6-24.2,19.1-39.2,39.7
		c-28.8,39.6-39.2,78.6-46.3,106.2c-5.1,19.9-10.6,47.7-12.3,81.6"/>
	<path fill="none" stroke="#000000" stroke-width="18" stroke-linecap="round" stroke-linejoin="round" stroke-miterlimit="10" d="
		M725.6,447.9c2.1,1.1,6.7,3.5,8.3,8.2c2.8,8.6-6.8,18.5-11.9,23.6c-5.2,5.3-15.1,14-35.5,22.2c-21.7,8.7-28.1,5.9-41.5,14.9
		c-9.6,6.5-10.9,10.9-19.4,19.6c-23.9,24.3-55.2,31.1-76.8,35.7c-21.4,4.6-32.1,7-45.1,3.3c-30.7-8.7-44.6-39.5-47.2-45.4
		c-11.4-25.3-7.6-48.7-4-71c1.8-11.3,6-37.1,18.8-55.8c1.3-1.9,3.4-4.7,5.1-9.2c4.6-11.9,1.5-20.9-0.1-36c-0.6-5.9-1.9-18.5-0.1-33
		c2-16,3.6-28.5,13.5-35.2c7.6-5.1,19.7-6.5,26.8-0.8c2.9,2.3,6.8,7.4,5.9,29c-0.8,20.5-5,33.1-9.4,52.3
		c-5.4,23.8-8.1,35.7-7.6,44.6c2.1,36.4,29.5,60,31.6,61.8c18.4,15.4,37.9,18.7,44.8,19.7c6.7,1,23.7,3.5,42.9-3.4
		c8.8-3.2,14.7-7.1,25.1-14c18.4-12.3,17.5-15.7,30.2-23.1C685.9,452.7,708.8,439.4,725.6,447.9z"/>
	<path fill="none" stroke="#000000" stroke-width="18" stroke-linecap="round" stroke-linejoin="round" stroke-miterlimit="10" d="
		M485.7,462.9c1.1-0.2,3.1-0.1,10.8,7.8c13.9,14.2,14.2,20.5,23.3,28.8c8.7,8.1,18.6,11.7,26.2,14.5c14.7,5.4,24.2,4.8,26,10.6
		c1.5,4.8-3.4,10.3-5,12.1c-1.3,1.5-5.5,5.8-18.2,8.6c-3.1,0.7-12.3,2.5-28.5,1.1c-12.5-1.1-18.7-1.6-23.7-4.5
		c-13.1-7.3-16.9-22.9-18.7-30.5C472.7,490,477.5,464.3,485.7,462.9z"/>
	<path fill="none" stroke="#000000" stroke-width="18" stroke-linecap="round" stroke-linejoin="round" stroke-miterlimit="10" d="
		M495.6,572.5c-0.1,10.9,1.1,27.3,9,44.5c8.9,19.5,18.8,23.9,30,45c10.7,20.1,13.5,38.1,15.1,48.7c5.2,35.9-3.4,64.3-7.6,77.3
		c-1.5,4.6-17.8,54.2-61.5,91.5c-64.8,55.3-159.6,57.7-228,36c-111.8-35.5-158.2-136.9-172.5-168c-22.9-50-27.3-93-30-121.5
		c-8.8-93.5,14.1-185.2,43.5-244.5c14.3-28.7,36.9-63.7,48-100.5c1.7-5.6,6.4-22.4,18-42c7.2-12.3,14.6-21.4,19.5-27
		c5.4,1.1,15.5,4,25.5,12c7.9,6.4,12.5,13.5,15,18c-3.9,13.5-11.1,32.8-25.5,52.5c-10,13.7-17.5,19.4-27,30
		c-18.4,20.5-26.8,39.9-39,69c-16.4,39.1-36.8,87.5-42,156c-2.5,33.2-6.1,87.9,16.5,153c8.7,25,27,76,75,121.5
		c15.9,15.1,42.4,39.6,85.5,54c17.9,6,59.9,17.3,111,6c13.6-3,42.2-9.6,72-31.5c14.1-10.3,40.8-30.4,55.5-67.5
		c2.2-5.6,21.5-56.2,0-106.5c-13.2-30.8-29.6-33.2-40.5-64.5c-9.6-27.8-6.5-54.2-2.5-72"/>
	<path fill="none" stroke="#000000" stroke-width="18" stroke-linecap="round" stroke-linejoin="round" stroke-miterlimit="10" d="
		M195,189.7c-5.7-4.9-21.7-20.2-26-45.3c-6.6-38.9,21.1-66.5,24-69.3c18.4-17.8,40-21.1,46.7-22c6.1-0.8,23-2.9,42,4.7
		c39.1,15.6,49.2,57,50,60.7c1.1,5,7.2,34.3-10,63.3c-4,6.8-14.7,24.1-36.7,33.3c-29.2,12.3-56.2,1-61.3-1.3"/>
	<path fill="none" stroke="#000000" stroke-width="18" stroke-linecap="round" stroke-linejoin="round" stroke-miterlimit="10" d="
		M188.3,207.7c2.6-1.8,5.4-3.9,8-6.7c11.8-12.2,14.1-27.6,14.7-34.7"/>
	<path fill="none" stroke="#000000" stroke-width="18" stroke-linecap="round" stroke-linejoin="round" stroke-miterlimit="10" d="
		M216.3,230.3c0.5-8.8,2.2-21,7.3-34.7c4.2-11.3,9.5-20.2,14-26.7"/>
	<path fill="none" stroke="#000000" stroke-width="18" stroke-linecap="round" stroke-linejoin="round" stroke-miterlimit="10" d="
		M225.7,75.7c-20.6,4.2-29.7,22.2-32,26.7c-1.7,3.4-12.5,24.6-2,43.3c11.4,20.4,42.2,27.5,62.7,15.3c18.8-11.2,21-34.1,21.3-38
		c0.4-5.2,1.8-23.3-12-36.7C248.3,71.4,227.6,75.3,225.7,75.7z"/>
</g>
<g id="vs-h-reveal">
	<path opacity="0" fill="none" stroke="#000000" stroke-width="66" stroke-linejoin="round" stroke-miterlimit="10" d="M708.6,8.5
		C675.4,6,642,7.7,609.3,13.7c-6.4,1.2-14.5,4.9-13.2,11.3c40.4-1.6,80.9-2,121.4-1.3c12.1,0.2,27.4,3,30.2,14.8
		c-43.4-2-86.9-1.3-130.3,2c-25.1,1.9-53.6,6.8-66.8,28.2c58.8,1.9,117.7,1.6,176.5-1c24.2-1.1,52.6-0.6,66.9,19
		c-49.3,1.4-98.6,1.7-147.9,0.7c-42.4-0.8-86.6-2.2-125.3,15.1c-4.6,2.1-9.8,5.6-9.3,10.7c0.6,6.2,8.8,7.8,15,7.8
		c104.9-0.2,209.8-0.4,314.7-0.6c16.6,0,36.1,1.4,45,15.4c-118-0.4-235.9-0.2-353.9,0.7c-8.4,0.1-17.2,0.2-24.7,3.9
		c-7.6,3.7-13.7,11.9-12,20.2c135.6-0.9,271.3-1.9,406.9-2.8c13.9-0.1,30.9,1.6,36.7,14.3c-7.3,7.7-19,9-29.6,9.7
		c-131.1,9-262.6,11.4-394,6.9c-5.9-0.2-12.1-0.4-17.5,2c-5.5,2.3-10,8-9,13.9c1.6,9.3,13.8,11.4,23.2,11.4
		c97.5-0.4,195-0.7,292.5-1.1c24.4-0.1,48.9-0.2,73,3.8c16.7,2.8,33.1,7.5,50,9.3c11.5,1.2,23.4,1.2,34,5.8s19.7,15.5,17.4,26.8
		c-159.1,3.9-318.3,2-477.3-5.8c-3.9-0.2-8.1-0.3-11.5,1.8c-6.7,4.2-5.5,15.2,0.4,20.6c5.9,5.3,14.3,6.5,22.3,7.3
		c143.5,15,288.9-2.7,432.6,10.9c14.9,1.4,33.9,7.3,34.3,22.3c-43,8.9-86.2,17.8-130.1,18.5c-47.9,0.8-95.3-8.3-142.9-13.4
		c-75.3-8.1-151.3-6.4-227-4.7c-4.2,0.1-8.7,0.3-12.2,2.7c-3.5,2.4-5.1,7.9-2.1,10.9c16.1,6.6,34.2,5.3,51.6,5.1
		c47.7-0.4,94.8,8.3,142.1,14.9c85.6,11.9,172.3,16.6,258.7,14.1c5.3-0.2,10.9-0.3,15.7,1.9s8.9,7.4,7.8,12.6
		c-0.8,3.9-4.1,6.8-7.6,8.7c-9.9,5.5-21.9,5.6-33.3,5.5c-157.5-1.3-314.9-2.6-472.4-3.9c-3.7,8.3,7.6,15.1,16.5,16.8
		c26.2,5.2,53,6.2,79.8,7.1c79,2.6,157.9,4.3,236.9,4.9c12.6,0.1,25.5,0.2,37.4,4.3c11.9,4.1,22.9,13,26.2,25.1
		c-41.9,2.1-85.8,3.1-131.4,2.6c-91.5-0.9-176.3-7.5-253.4-17.2c-9.7-3.9-20.3,1.8-22.5,10.5c-2.1,8.3,3.7,17.8,13.5,19.7
		c105.9,23,156.9,24.7,183.4,20.4c5.8-0.9,24.9-2.2,46.8,4.1c15.1,4.4,29.5,14.3,34.9,29.1c-74.6-4.7-149.2-9.5-223.8-14.2
		c-7.6-0.5-15.7-0.8-22.2,3.1s-9.8,13.9-4.4,19.2c2.6,2.5,6.3,3.4,9.9,4.1c41.8,8.1,84.6,10.9,127.1,8.2c10-0.6,20.5-1.5,29.7,2.5
		c9.2,4,16.3,14.9,12.5,24.1c-58.9,1.2-117.8,1.6-176.7,1.1c-3.6,7,2.1,15.8,9.4,18.7c7.3,2.8,15.5,1.5,23.3,0.2
		c24.8-3.9,54.8-3.9,69.5,16.5c-29.8,0.3-59.6,0.6-89.4,1c-4.1,10.1,12.2,14.6,23,14.6c22.3,0.1,44.3,9.1,60.4,24.6
		c-23.5-1.4-47.1-2.8-70.6-4.1c11.8,31.6,70.8,13.3,86.4,43.3c-17.9,0-35.8-0.1-53.7-0.1c16.4,9,32.8,17.9,49.2,26.9
		c-19.8,8.1-42.1,10.3-63.1,6.2c-2.8,13.4,11.7,24.2,25.1,26.9c13.4,2.7,28.2,1.7,39.6,9.3c-16.6,3.4-33.6,5.3-50.6,5.8
		c11,16.8,28,29.5,47.2,35.2c-21.5,3.6-43.4,4.7-65.2,3.4c1.4,15.1,20.5,20.6,35.6,20.6c15.1,0.1,33.4,0,41.2,13
		c-34.4,2.2-68.9,3.6-103.4,4.1c-1.7,10.4,5.1,20.6,14,26.2s19.6,7.4,29.9,9.2c-41.9,3.1-84,2-125.7-3.4c4.1,15,23.4,19,38.9,18.8
		c15.6-0.2,34-0.4,43.1,12.2c-64.8,21.3-133-14.2-200.5-24.1c-0.5,11.7,12.7,18.7,23.7,22.6c30,10.7,60,21.4,90,32.1
		c-26.5,2.8-52.7-6.5-77.7-15.7c-38-13.9-75.9-27.7-113.9-41.6c24.3-1.3,48.9,1.7,72.2,8.8c-12.3-19.1-37.2-24.2-59-30.3
		c-35.1-9.8-68.2-26.5-97-48.7c20.1,10.3,40.9,19.2,62.2,26.5c4.4,1.5,10,2.7,13.2-0.6c5.3-5.5-2.2-13.9-8.9-17.6
		c-36.1-20-73.6-37.5-112.1-52.1c25.5-1.8,51.2,1.2,75.6,8.9c3.1-15.6-13.2-28.3-28.4-32.8c-15.3-4.5-32.7-5.8-43.9-17.2
		c8.3-12.4,30.8,0.4,41.7-9.7c8.9-8.2,1.3-23.9-9.4-29.7c-10.7-5.7-23.7-6.5-33.8-13.2c-2.1-1.4-4.2-3.2-5-5.7
		c-2.9-8.7,10.5-13.3,19.5-11.6s21.6,2.8,24.3-6c2.3-7.6-6-13.8-13-17.4c-14.7-7.6-29.5-15.2-44.2-22.8c23-4.8,46-9.5,69.1-14.3
		c-13.1-21.6-32.1-39.6-54.4-51.6c-1.1-11.3,13.1-17,24.2-18.7c11.2-1.7,25.4-6.2,25.7-17.5c0.4-18.1-35.9-22.1-31.8-39.7
		c12.4-9.7,36.6,3,43.8-11c5.4-10.6-8-21.5-19.8-23.2s-25.6-0.3-33.8-8.9c24.8,0,49.5-0.1,74.3-0.1c6.9,0,14.2-0.1,20.1-3.8
		c11.9-7.4,11.5-26.4,2.1-36.8c-9.4-10.4-24.3-13.8-38.4-14.4s-28.2,1-42-2c24.6-29.4,71.3-18.5,108.6-27.4
		c5.1-1.2,11.3-4.4,10.8-9.7c-0.4-4.1-4.7-6.6-8.5-8.3c-21.1-9.6-42.3-19.2-63.4-28.8c18.9-2.8,37.8-5.6,56.6-8.4
		c9.8-1.4,22.8-8.1,18.9-17.2c-1.9-4.3-6.9-6.2-11.4-7.5c-13.7-4.1-27.4-8.3-41.1-12.4c21.5,0.8,43,1.7,64.5,2.5c3,0.1,6.2,0.2,9-1
		c9.3-3.9,7.4-19.1-0.9-24.9s-19.2-5.5-29.3-6.3s-21.5-3.8-25.9-12.9c48.2,5.4,96.3,10.9,144.5,16.3c-40.4-5.5-80.8-10.9-121.2-16.4
		c-14.8-2-34.3-10.5-30.3-24.9c58.5-2.4,117.4,3.2,174.4,16.7c-60.9-27.8-124.1-50.6-188.7-68.1c126,21,189.2,30.8,189.4,29.3
		c0.3-1.4-58.9-13.5-177.5-36.2c29.8,0.1,60.5-0.2,92.2-1.2c32.1-1,63.2-2.6,93.2-4.7c-105.8-7.4-158.7-14.5-158.7-21.4
		c0-6.2,44.4-12.2,133.1-17.9c-33.5-4.7-67-9.5-100.5-14.2"/>
</g>
</svg>
