<?xml version="1.0" encoding="utf-8"?>
<!-- Generator: Adobe Illustrator 24.3.0, SVG Export Plug-In . SVG Version: 6.00 Build 0)  -->
<svg isCommex="true" version="1.1" id="Layer_1" xmlns="http://www.w3.org/2000/svg" xmlns:xlink="http://www.w3.org/1999/xlink" x="0px" y="0px"
	 width="1345.2px" height="1126px" viewBox="0 0 1345.2 1126" enable-background="new 0 0 1345.2 1126" xml:space="preserve">
<g>
	<path fill="#C4DEFF" d="M791,904.3c-0.9-0.7-1.8-1.4-2.8-2.1l-0.8-0.6l-0.6,0.8c-1.2,1.7-2.9,4-5,6.7l-0.5,0.7l0.4,0.6
		c0.4,0.6,1.1,1.5,2.1,2.7c2,2.3,4.1,3.8,6.2,4.5c0.5,0.2,0.9,0.2,1.4,0.2c1.9,0,4-1.1,6.1-3.3l2.4-2.4h-2
		C795.6,909.1,793.2,906,791,904.3z"/>
	<path fill="#C4DEFF" d="M827,912c-7.8-7.7-14.9-17.8-20.8-26.8l-1-1.4c-2.7-3.9-5.1-7.2-6.8-9.2c-0.8-1-2.1-2.2-4-3.5l-0.3-0.2
		c-1.4-1.1-3.2-2.2-5.3-3.5l-0.4-0.2c-6-3.6-13.6-7.8-22.1-11.9c-1.2-0.6-2.4-1.2-3.7-1.8c-8.2-3.9-32.4,9.3-41.4,20.5
		c-2,2.5-3.8,4.3-5.4,5.9c-6.3,6-11.8,8.5-14.1,9.4h-0.5l-0.1,0.1c-0.2,0-0.4,0.1-0.6,0.1c-1.7,0.3-5.6,1-8.8,0.9
		c-0.9,0-1.9,0.5-2.9,1.3c-2.6,2.3-4.2,6.5-4.4,11.7c-0.3,5.5,3.9,10.4,7.4,13.5l0.3,0.2h0.4c1.6,0,3.8,0.2,7.1,0.5
		c4.2,0.4,12.5,3.5,21.3,6.8c8.5,3.2,20.3,7.6,27.4,8.8l0.1,0l0.1,0c9.3-0.7,26.1-21,34.6-32.9l0.7-0.9l-1-0.5
		c-2.6-1.4-6-3.1-7.2-3.4l0,0c-0.5-0.2-0.8-0.6-1-1.1c-0.2-0.5-0.2-1.1,0-1.5c0.4-1,1.6-1.4,2.5-1.1c0,0,0.1,0.1,0.3,0.1
		c4.8,2,8.3,4,10.4,5.3c1.8,1.1,3.8,2.4,5.6,3.9c2.4,1.9,4.9,5.1,7.6,8.7c0.2,0.2,0.3,0.5,0.5,0.7c0.4,0.6,0.9,1.2,1.4,1.8
		c3.3,4.2,7.2,8.8,11.6,11.8c0.1,0.1,0.2,0.1,0.2,0.2l0.4,0.3h0.1c0.9,0.6,1.9,1.1,2.9,1.5c5.5,2.3,10.4,0.6,12.2-2.3
		C832.7,920.8,831.4,916.4,827,912L827,912z"/>
	<path fill="#C4DEFF" d="M815.1,924.5C815,924.5,815,924.4,815.1,924.5L815.1,924.5C815,924.4,815.1,924.5,815.1,924.5z"/>
	<path fill="#C4DEFF" d="M968.7,405.2l-0.1-0.5l-0.5-0.2c-2.5-1-4.9-2.2-7-3.6c-0.1-0.1-0.2-0.1-0.2-0.1c-0.9-0.7-1.1-1.9-0.5-2.8
		c0.7-0.9,1.9-1.2,2.8-0.5l0-0.1c1.8,1.6,7.7,3.9,7.7,3.9c4.5,1.8,9,2.8,13.5,3.2c6.7,0.5,12.3-0.8,15.7-3.8c2-1.7,3-3.8,3.1-6.1
		c0.1-2.2-0.6-3.6-2.4-4.8c-1-0.7-2.3-1.3-4.1-2.2c-0.8-0.4-1.6-0.8-2.7-1.3c-2.4-1-4.9-2.1-7.3-3.3c-4.5-2.2-9.1-5.2-13.1-7.9
		l-1.8-1.2c-3.1-2-6.3-4.1-7.8-4.6l-0.5-0.2l-0.4,0.3c-1.8,1.3-6.3,5.6-11.2,11.2c-4.2,4.8-10,12-13.7,19.1c-3,5.7-4.5,11.9-5,20
		c-0.2,3.3-0.3,6.7-0.3,10.1c0,0.9,0,1.7-0.1,2.6c-0.1,3.3-0.1,6.8-0.4,10.3c-0.7,8.5-1.7,14.1-2.8,16.7l-0.1,0.2l0,0.2
		c0.2,4.3,1,7.5,2.5,10c1.6,2.6,6.1,5,10.3,5.6c0.6,0.1,1.2,0.1,1.9,0.1c1.4,0,2.9-0.3,4.2-1.1l0.4-0.2l0.1-0.4
		c0.6-3.5,1.1-6.3,2.8-7.7l0.2-0.2c1.5-2,5.2-5.5,12.3-6c5.8-0.4,12.8-0.3,15.1-0.2l1.3,0l-0.3-1.2C976,439,971.2,416.7,968.7,405.2
		z"/>
	<path fill="#C4DEFF" d="M1010.3,429.6c-7.6-1.8-16.2-0.8-21.6,2.4c-1.4,0.9-2.2,1.6-2.9,2.5c-1.9,2.4-2.1,5.3-0.4,8.5
		c5.1,10,20.2,8.1,24.7,7.3l0.2,0c1.1-0.2,2.2,0.5,2.4,1.5c0.1,0.7,0,1.3-0.4,1.8l-0.3,0.4l0.9,4.9l1.1-0.4
		c7.9-2.8,12.8-9.3,14-14.1c0.3-1.7,0-3.5-1-5.2C1025.7,436.8,1021.7,432.4,1010.3,429.6z"/>
	<path fill="#C4DEFF" d="M1027.4,412.8c-4.9-3.6-32.6-5.3-41.6,3c-2.7,2.6-3.9,4.9-3.8,7.2c0.2,3,2.8,5.1,3.2,5.5l0.7,0.7l0.7-0.4
		c6.3-3.8,15.9-5,24.6-2.9c6.2,1.4,11.3,3.7,15.1,6.6l0.5,0.4l0.6-0.3c0.2-0.1,0.4-0.3,0.5-0.4l0.1-0.1c1-0.7,1.9-2.9,2.4-5.8
		c0.2-1.2,0.3-2.5,0.3-4C1030.7,417.7,1029.4,414,1027.4,412.8z"/>
	<path fill="#C4DEFF" d="M1031.8,391.4L1031.8,391.4c-1.8-5.5-5.4-5.6-12.7-5.8h-1.8c-4.7-0.1-8.4,1.5-10.6,2.9l-0.8,0.5l0.4,0.8
		c0.8,1.4,1.1,3,1,5c-0.2,3.4-1.7,6.5-4.5,8.9c-0.1,0.1-0.1,0.1-0.2,0.2c-0.1,0.1-0.3,0.2-0.4,0.3l-1.9,1.9l2.7-0.2
		c9.6-0.9,20.2,0.3,25.4,2.7l1,0.5l0.4-1c0.7-1.9,1.9-5.7,2.4-9.6C1032.5,395.6,1032.3,393.2,1031.8,391.4z"/>
	<path fill="#C4DEFF" d="M988.6,379.8c2.1,1,4.2,1.9,6,2.7l1,0.4c2.2,0.9,4.6,1.9,6.7,3.1l0.6,0.4l0.5-0.4c0.6-0.4,5.7-4.3,13.5-4.3
		l2.2,0c0.8,0,1.7,0.1,2.5,0.1c0.8,0,1.6,0,2.4,0.1l1.5,0.1l-0.5-1.4c0-0.1,0-0.2-0.1-0.4c0.5-9.1-0.5-14.1-3.4-16.7
		c-2.7-2.4-7.3-3-14.2-1.7c-6,1-11.6,2.7-15.4,3.9c-7.7,2.7-12.9,5.2-14.3,5.8l-1.6,0.8l1.5,1C981.3,375.7,984.9,378,988.6,379.8z"
		/>
	<path fill="#C4DEFF" d="M979.7,427.9l-2.9-4.1l3.1,13.9l1.2-2.9c0.2-0.4,0.8-1.7,1.3-2.3l0.7-0.8l-0.8-0.7
		C981.4,430.3,980.1,428.5,979.7,427.9z"/>
</g>
<g>
	<path fill="#4ACFCB" d="M701.8,669.9l-0.2,0.2c-0.1,0.1-4.7,5.8-1.5,11.6c0.3,0.6,0.6,1.1,0.9,1.7c0.4,0.6,0.7,1.2,0.9,1.7l1.2,2.3
		l0.7-2.5c1.9-6.8,2.8-9.3,3.2-10.2c0.6-1.3,1.6-2.5,3.1-4l2.1-2.1l-2.9,0.4c-1.5,0.2-3.2,0.4-4.8,0.6L701.8,669.9z"/>
	<path fill="#4ACFCB" d="M740.6,656.7c16.9-6.6,24.7-23.2,32.9-40.8l0.1-0.4c2.9-6.2,5.6-12.7,8.1-20l0.2-0.6l-0.4-0.4
		c-0.1-0.1-0.1-0.2-0.2-0.3l0-0.1c-2.8-4-13-17.4-26.2-20.6l-0.4-0.1c-0.7-0.2-1.3-0.3-2-0.4c-17.1-2.4-64.2,3.8-71.2,6.9l-0.4,0.2
		l-0.1,0.4c-3.6,9.8-23.9,55.9-24.8,57.9l-0.1,0.2l-0.4,0.4l0.4,0.7c0.4,0.8,0.9,1.6,1.4,2.4l0.5,0.9l0.2,0.3c0.5,0.9,1,1.8,1.6,2.7
		c0.3,0.5,0.6,1.1,1,1.6c1.2,2,2.7,4,4.3,5.8l0.3,0.3h0c7.4,7.9,17.8,12.6,28,12.6c0.2,0,0.4,0,0.6,0l5.9-0.3
		c6.6-0.4,13.3-1.3,20.4-2.9C727.5,661.3,734.2,659.2,740.6,656.7z M761.7,605.9c0.3-2.8-0.9-10.5-1.9-16.5
		c-0.2-0.8,0.3-1.5,1.2-1.7c0.1,0,0.2,0,0.3,0c0.2,0,0.5,0.1,0.7,0.2c0.4,0.2,0.6,0.6,0.7,1.1c0.3,1.3,2.4,13,2,17.2l0,0
		c-0.4,5.3-11.2,12.8-18.5,16c-6.2,2.8-17.2,8.9-19,10l0,0c-0.2,0.1-0.6,0.2-0.9,0.2c-0.5,0-1-0.3-1.3-0.8c-0.4-0.7-0.2-1.6,0.6-2
		c0.1-0.1,11.6-6.8,19.4-10.1C752.9,615.7,761.4,608.9,761.7,605.9z"/>
	<path fill="#4ACFCB" d="M595.2,562.7l1.9,1.4l-0.3-2.3c-0.5-3.8,0-11.7,8.7-21.9c1.1-1.3,2.3-2.7,3.6-4.1
		c5-5.6,13.2-14.3,25.7-25.1c12.6-10.9,27.8-22.6,46.5-35.6c18.2-12.7,35.6-23,51.9-30.8l0.4-0.2c13.5-6.5,25.6-10.8,34-12.2
		c1.2-0.1,2.2,0.6,2.4,1.6c0.1,1.2-0.6,2.2-1.7,2.4c-5.2,1-11.3,2.8-18.2,5.4l-5.3,2.1l5.7-0.1c7-0.1,20.7-0.1,33.7,2.2
		c17.2,2.9,23,7.2,24.9,9.5l0.3,0.4h0.5c0.6,0,1.2,0.4,1.5,1l0.1,0.1c0,0,3.2,5.5,4.3,16.3l0.4,4.2l1.5-3.9c1-2.7,3.4-9.2,3.6-11.6
		l0-0.1l0-0.1c-0.3-1.7-2.2-6-7.1-15.9L814,445l-0.1-0.1c0,0-0.1-0.1-0.2-0.3l-0.1-0.1c-4.3-8.6-10.2-19.7-15.7-29.7l-0.2-0.2
		c-0.1-0.1-0.2-0.3-0.3-0.4l-0.1-0.2c-4.3-7.9-8.2-14.7-9.5-16.7l-0.2-0.2l-0.3-0.1c-2.8-1.3-15.6-4.3-29.7-7l-0.1,0
		c-0.1,0-0.2-0.1-0.4-0.1c-13.6-2.6-28.2-4.7-39.9-5.7c-2.5-0.2-5-0.4-7.4-0.5c-18.1-0.8-20.1,1.2-27.9,8.7
		c-3.4,3.4-9.2,9.2-19.5,16.5l-6.6,4.7c-25.6,18.3-57.5,41.1-61.2,49.2c-4,8.8-5.3,88.4-3.9,94.8C591.4,559.3,592.9,561,595.2,562.7
		z"/>
	<path fill="#4ACFCB" d="M955,469.7l-1.2-0.8l-0.3,1.3c-0.1,0.3-0.2,0.8-0.3,1.2c-0.3,1.1-0.6,2.6-1,3.8l-0.1,0.2v0.3
		c-0.1,0.4-0.3,0.7-0.5,1c-2.3,2.4-5.8,3.4-10.1,2.8c-5.6-0.7-11-3.7-13.3-7.4c-2.3-3.9-2.8-8.3-3.1-12.8c0-0.5,0-1.1-0.1-1.6
		c0-0.5,0-1,0-1.5c0-0.3,0-0.7-0.1-1c0-0.3,0-0.6,0-0.9v-1.4l-1.3,0.4c-1.4,0.4-3.5,1.4-6,3.4c-4.1,3.3-6.6,7.5-6.9,11.2
		c-0.3,6.4,2.1,12.6,3.6,15.7l0.1,0.3c0.6,1,0.2,2.2-0.8,2.8c-0.7,0.4-1.6,0.3-2.3-0.3l-0.7-0.6l-0.7,0.7c-8.4,9-9.2,28.2-9.6,37.4
		c-0.1,1.9-0.2,3.5-0.3,4.7l0,0.3c-0.1,0.8-0.2,1.5-0.2,2.1c-0.5,7.6-1,11.4-8.2,22.5c-5.7,8.9-7.8,17.2-9,22.1
		c-0.5,2.1-0.9,3.5-1.3,4.5c-0.8,1.9-2.2,3.4-4.2,5.6l-0.5,0.5c-2.3,2.6-5.6,6.2-9.8,12.3c-7.5,10.8-14.2,11.2-18.6,11.5
		c-1,0-1.7,0.1-2.4,0.2c-2.5,0.4-9.7,4.9-19.8,11.5c-1.1,0.7-2.2,1.4-3.3,2.1c-3.2,2-6.4,4.2-9.7,6.1c-13.5,8.4-30.2,13.3-39,13.6
		c-3.5,0.2-9.9,4.3-17.9,9.7c-5.5,3.7-11.8,8-17.1,10.2c-10,4.2-16,4.5-17.6,4.5h-0.4l-0.3,0.3c-0.2,0.2-0.4,0.3-0.7,0.5
		c-0.8,0.3-7.6,3.5-9.7,7.7c-0.8,1.8-2.7,8.3-5,16.6c-3.2,12.2-7,27.3-7.4,29.2c-0.8,4.6-4.1,18-8,20c-0.6,0.3-1,0.4-1.5,0.4
		c-0.5,0-0.7,0-1.1-0.1c-2.8-1-5-5.4-8.9-13.7l-1-2.1c-1.6-3.4-3.3-6.9-5.2-10.2c-5.6-9.9-24.6-29.6-30.4-35.4l-1-1l-0.6,1.3
		c-1.4,3.1-5.7,10.9-14.5,15.3c-4.1,2-9.2,3.6-14.6,5.3l-0.2,0c-10.1,3-22.6,6.8-34.1,15.6c-16.4,12.4-21.9,37.3-21.9,46.8
		c0,10-1.7,24.9-5.5,34.1c-4.2,10.5-13.1,39.6-11.8,57.6c1.7,24.3,10.2,38.7,25.2,42.6c1.4,0.4,2.9,0.6,4.3,0.9l0.7,0.1
		c5.7,1,11.3,1.2,17.3,1.4l2.5,0.1c11.6,0.4,24.8,0.8,39.9,6.7c9.5,3.6,17.4,7.2,24.5,10.4l0.9,0.4c10.5,4.7,17.5,7.7,21.2,7.7
		c0.5,0,0.9-0.1,1.2-0.2c4.2-1.2,10.8-3.8,13.5-4.8l1.5-0.6l-1.2-1.1c-3.3-3-8.9-9.1-8.6-16.4c0.2-6.1,2.3-11.4,5.7-14.5
		c1.8-1.6,3.8-2.4,5.8-2.3c1.5,0.1,3.6-0.1,5.4-0.4l1.1-0.2l-0.3-1c-1.7-6.3-5.2-14.6-11.5-18.5c-10.2-6.2-23-9-36.2-7.8
		c-14,1.2-21.2-0.1-34.8-2.8c-1.7-0.4-3.2-0.7-4.6-0.9l-1-0.2c-9.3-1.7-12.4-2.3-13.9-9c-0.8-3.4-0.8-11.8,9.5-45.4
		c3.7-12.4,3.8-19.9,3.9-25l0-1c0.1-2.7,0.1-5,0.7-7.2c1-3.9,2.4-8.2,4.2-12.8c0.1-0.2,0.1-0.4,0.1-0.4c0,0,0,0,0,0
		c0.4-1,1.6-1.4,2.6-1c1,0.4,1.4,1.6,1,2.6c0,0.1-2.5,6.2-4.1,12.5c-0.5,1.8-0.5,3.8-0.6,6.1l0,1.1c-0.1,5.2-0.2,13.1-4.2,26
		c-7.2,23.5-10.5,38.5-9.4,43.4c0.7,3.9,1.6,4.2,10.7,5.9c0.8,0.2,1.7,0.3,2.6,0.5c0.9,0.2,1.9,0.4,3,0.6c13.5,2.7,20,3.8,33.8,2.7
		c14-1.2,27.7,1.8,38.6,8.5c7.4,4.5,11.3,13.7,13.3,20.6l0.3,1.2l1.1-0.6c2.8-1.5,5.5-3.5,8.1-5.8l0.5-0.4l-0.2-0.6
		c-5.8-20.1,1.8-49,5.4-60.4l0.6-1.9L716,816c-4.2,1.4-8.7,2.4-13.9,2.9h-0.2c-1,0-1.9-0.8-2-1.8c-0.1-1.1,0.8-2.1,1.8-2.2
		c6.7-0.8,12.9-2.4,18.4-4.8c15.1-6.6,21.1-17.3,21.6-21.4c0.2-2.4-1.9-10.3-4.8-21.1l-0.6-2.4c-2.6-9.7-5.1-18.8-5.2-23.3
		c-0.4-10.3,10.7-23.9,15.8-28.5c4.2-3.8,9.1-3.9,13.5-4l0.4,0c0.6,0,1.1-0.1,1.7-0.1c1.1,0,2.3-0.1,3.4-0.2
		c2.5-0.2,7.9-3.4,17.2-8.9l0.3-0.2c13.2-7.9,28-16.5,47.5-25.9c24.3-11.7,43.3-17.8,58.6-22.8l0.8-0.3c1.4-0.5,2.8-0.9,4.2-1.4
		c6.5-2.1,12-4,17.3-6.2c19.2-10,23.9-48.4,26.4-69.1l0-0.2c2.6-20.9,7.3-46.7,12.1-57c1.2-2.6,2.5-5.1,4.2-8.3l0.3-0.5
		c2.7-5.3,5.3-10.3,7-16.7C964.1,482.4,957.8,471.4,955,469.7z M674.1,817.2L674.1,817.2c-7.9,2.5-15,3.7-21.9,3.6
		c-18.5,0-27-9.2-28.5-11.1c-0.3-0.4-0.4-0.9-0.4-1.5c0.1-0.5,0.4-1,0.8-1.3c0.3-0.3,0.7-0.4,1.2-0.4c0.1,0,0.2,0,0.3,0
		c0.5,0.1,1,0.4,1.4,0.9c2.3,2.7,15.1,15.5,45.9,6c1.1-0.3,2.2,0.3,2.5,1.3C675.8,815.8,675.2,816.9,674.1,817.2z"/>
</g>
<g>
	<path fill="#97C3FB" d="M1149.6,893.3c-2.8-2.6-2.5-4.1-1.5-7.4l0-0.1c0.4-1.3,0.9-2.9,1.4-5.3c1.3-5.9-0.6-7.7-3.8-10.6
		c-0.3-0.3-0.5-0.5-0.8-0.7c-0.2-0.2-0.5-0.4-0.7-0.7c-3.7-3.6-4-6.2-4.7-11.4c-0.1-0.8-0.2-1.5-0.3-2.5c-0.1-0.4-0.1-0.9-0.2-1.4
		c-1-6.2-4.2-9.5-10.4-10.9c-6.5-1.4-7.7-6-9-10.8l-0.4-1.5c-0.7-3.2-3.1-3.5-9.2-3.4h-1.7c-6,0-8.8-2.3-12.1-4.9
		c-0.3-0.2-0.6-0.5-0.9-0.7c-0.5-0.4-1.1-0.9-1.7-1.3c-2.9-2.1-10.9,4-14.2,7.1c-0.2,0.2-0.4,0.3-0.5,0.4l-0.7,0.2v0.7
		c0,0.1,0,0.2,0,0.3c0,0.2-0.1,0.4-0.1,0.6v1h1c0.1,0,0.3,0.1,0.5,0.2c4.6,2.5,9.1,5.6,13.4,9l2.6,2.1l-1-3.2
		c-1.6-4.9-3.5-7.4-4.6-8.4l1.8-3.6c2.1,1.6,6.6,6.5,8.4,19.4c0.6,5,0.9,9.5,0.8,14.1c-0.2,16.4-1,27.1-1.4,31.9l-0.4,4.5l2.3-3.9
		c5-8.6,8-14.4,8-14.4c0.3-0.5,0.7-0.9,1.2-1c0.5-0.2,1.1-0.1,1.6,0.2c0.5,0.2,0.8,0.6,1,1.1c0.2,0.5,0.1,1-0.2,1.6
		c-0.3,0.8-5.7,10.9-13.4,23.6c-8.9,14.7-17,26.1-23.9,33.6l-0.8,0.9l1.1,0.6c17,10.1,32.7,21.3,46.7,33.1l1.1,0.9l0.5-1.3
		c1.1-2.8,4.1-9.4,8.8-11.1c4.7-1.6,4.9-2.1,5.5-8.2c0.6-5.2,1.4-6.6,2.6-8.2c0.3-0.4,0.7-0.9,1-1.5c0.4-0.8,1-1.5,1.5-2.2
		c0.2-0.2,0.3-0.4,0.5-0.6l0.2-0.3c1.5-1.8,3-3.7,3.5-7.7c0.3-2,0.2-3.3,0-4.8c-0.4-3.2-0.4-5.5,2.7-11.4
		C1154.8,906.9,1152,895.4,1149.6,893.3z"/>
	<path fill="#97C3FB" d="M1122.9,976.9c-15-13.1-32.6-25.6-52.4-37.1c-29.1-17-61.3-31-95.7-41.5c-14.4-4.4-28.1-8.1-40.6-11.1
		c-58.4-14.1-94.9-14.5-111.5-13.4l-4.3,0.3l4,1.7c48,19.9,102.3,67.5,126.5,110.9c0.3,0.6,0.3,1.4-0.1,2c-0.4,0.6-1.1,1-1.8,1
		c-70.4-2.8-178.1,35.3-179.2,35.7c-0.4,0.2-0.9,0.3-1.6,0.3c-3.7,0-8.6-5.1-16.6-13.6c-10.7-11.4-30.7-32.5-63.3-55.4
		c-54.1-37.9-115.9-51.1-116.5-51.2c-0.4-0.1-0.7-0.2-0.9-0.4l-0.5-0.5l-0.6,0.3l-0.1,0c-52.9,7.4-122.5,35.7-171.6,58.2l-1.4,0.6
		l1.1,1c1.2,1.1,3.1,1.4,6.2,0.9c43.7-8.2,85.5-6.2,124.2,6.1c34.5,10.9,67.7,30.1,98.6,57.1c59.2,51.6,109.9,76.9,159.5,79.6
		c3.1,0.2,6.4,0.3,9.9,0.3c51,0,137.1-18.5,194.7-49c54.9-29,141.7-60.2,151.5-63.6l1.4-0.5l-1-1.1
		C1135.9,988.8,1129.8,983,1122.9,976.9z"/>
	<path fill="#97C3FB" d="M570.2,494.4c-3,0.4-8.5,1.9-12.7,6.4c-4,4.2-6,10.3-5.8,18l0,0.9l0.8,0.1c0.3,0,0.6,0.1,0.9,0.1
		c4.9,0,12.3-4.6,15.9-11.8c1.7-3.5,2.4-7.7,1.9-12.7l-0.1-1.1L570.2,494.4z"/>
	<path fill="#97C3FB" d="M416.9,462.3l0.2,0.2c1,1.2,9.6,12,15.6,13.8l2.3,0.7l-1.1-2.1c-1.4-2.8-3-9.5,3-22.4
		c7.1-15.2,36.1-60.5,61.7-63.6l2.1-0.3l-1.5-1.5c-7.3-7-10.5-9.7-11.8-10.8l-0.4-0.3l-0.5,0.1c-2.5,0.7-9.1,2.8-18,8.6
		c-10.8,7-21.1,16.9-30.5,29.2c-21.9,28.6-21.7,44-21.1,48.1L416.9,462.3z"/>
	<path fill="#97C3FB" d="M438.8,453.6c-7.1,15.3-3.5,21-1.6,22.8l0.4,0.3l0.5-0.1c8.1-1.4,25.6-8.5,31.2-19.3
		c0.1-0.1,0.1-0.2,0.1-0.2l0.7-0.7l-0.8-0.7c-4.4-4.1-7.8-7.5-9.9-9.7c-0.3-0.3-0.5-0.8-0.5-1.3c-1.1-15.8,12.3-24.6,19.6-27
		c0.4-0.2,0.8-0.1,1.3,0l0.4,0.1l0.4-0.2c0.5-0.2,1.3-0.2,1.9,0.3l10.3,8l0.6-1.1c3.1-5.9,10.1-21.1,9.1-33.2l-0.1-0.9l-0.9,0
		c-0.1,0-0.1,0-0.2,0C477.1,390.7,447.2,435,438.8,453.6z"/>
	<path fill="#97C3FB" d="M479.7,421.4c-0.7,0.2-17.2,5.9-16.9,21.8l0,0.4l0.3,0.3c7.5,7.9,24,22.9,44.2,40.2
		c4.9,4.2,10.6,9.1,15.9,13.5c11,9.2,20.3,16.7,24.9,20l1.5,1.1l0.1-1.9c0.2-7.2,2.3-13,6.3-17.3c4.4-4.7,10.3-6.4,13.3-6.9l2.2-0.4
		l-43.1-33.6h-0.2c0,0-0.1,0-0.1,0l-47.8-37.3L479.7,421.4z"/>
	<path fill="#97C3FB" d="M976.2,421l1.1,5.2l0.9-5.3c0.5-2.8,2.2-5.6,5-8.3c0.8-0.8,1.9-1.6,3.1-2.2l3.5-1.9h-4c-0.2,0-0.4,0-0.7,0
		c-0.3,0-0.7-0.1-1-0.1c-3.6-0.2-7-1-9.5-1.7l-1.6-0.4l0.7,3.4C974.5,412.8,975.3,416.6,976.2,421z"/>
	<path fill="#97C3FB" d="M1022.6,328.5l-1.1,1.9c-5.8-6.5-25.8-6.8-32.1-6.7c-17.4,0.2-36,3.4-48.5,8.5
		c-18.3,7.5-22.6,15.8-23.6,20.1l-0.2,0.7l0.6,0.4c1.3,0.8,3.1,2,5.8,3.4c6.6,2.9,15,3.6,21.9,3.6c5,0,9.2-0.4,11.3-0.6l1.1-0.1
		l-3.5-14.1c-0.1-0.3-0.1-0.7,0.1-1.1c0.5-1.2,4.9-11.3,18.2-11.3c14.3,0,16.1,6.6,16.1,6.6l2.3,11.8l1-0.3
		c5.4-1.3,23.6-6.7,30.4-18.5l-0.8-0.5h0.9V328.5z"/>
	<path fill="#97C3FB" d="M914.3,354.8l1.3-4.3c1.3-4.3,6.3-12.7,24.4-20.2c10.9-4.5,27.7-7.7,43.7-8.6c17.3-0.9,30.9,1.1,37.2,5.6
		l1.8,1.3l-2.3-18.7l-0.4-0.3c-3.2-1.9-20.6-11.3-53.2-5.6c-37.1,6.4-53.2,19.9-55.2,25.3l-0.1,0.2v0.2c0,6.1,1.9,20,2,20.6
		L914.3,354.8z"/>
	<path fill="#97C3FB" d="M983.8,456.9c0.3,1.5,0.6,2.9,0.9,4.4l0.1,0.3l0,0c0.9,4.3,1.7,8.5,2.4,11.8l0.3,1.7l1.3-1.1
		c3.6-3,11-7.6,20.5-4.5l1.6,0.5l-3-15.3l-0.9,0.1c-6,0.6-17,0.5-23.1-6.6l-2.5-2.8l0.7,3.7C982.7,451.8,983.3,454.4,983.8,456.9z"
		/>
	<path fill="#97C3FB" d="M997.7,482.3c0.3,0,0.7,0,1,0c5.9-0.7,10.6-6.2,12.4-8.6l0.8-1l-1.2-0.5c-11.3-4.9-19.7,2.3-22,4.6
		l-0.7,0.7l0.8,0.7C991.8,481,994.7,482.3,997.7,482.3z"/>
	<path fill="#97C3FB" d="M989,362.4l-4.2-21.5l-0.1-0.2c-0.7-1.1-3.4-3.6-12.1-3.6c-8.4,0-12.4,4.9-14,7.8l-0.2,0.3l4.8,20l0.7,0.1
		c1.9,0.3,4.4,1.8,7.9,4l0.7,0.4l0.5-0.5c0.1,0,0.2-0.1,0.3-0.2c0.6-0.4,6.3-3.4,14.9-6.4L989,362.4z"/>
</g>
<path fill="none" stroke="#000000" stroke-width="5" stroke-linecap="round" stroke-linejoin="round" stroke-miterlimit="10" d="
	M713.5,552.5c1.4,0.4-0.2,5.2-2.2,4.3s0.7-3.9,1.3-3.6"/>
<path fill="none" stroke="#000000" stroke-width="5" stroke-linecap="round" stroke-linejoin="round" stroke-miterlimit="10" d="
	M678.8,554.4c0,0,0.9-31.9,12.7-55.9c11.8-24,35.5-30.8,42.4-20.9s9.2,24.8,5.4,43.5c-3.8,18.7-8.4,30.2-14.8,34.7
	s-35.8,10.5-45.7,0"/>
<path fill="none" stroke="#000000" stroke-width="4" stroke-linecap="round" stroke-linejoin="round" stroke-miterlimit="10" d="
	M713,465.3c0,0-2.3,9.8-9.8,17.5"/>
<path fill="none" stroke="#000000" stroke-width="4" stroke-linecap="round" stroke-linejoin="round" stroke-miterlimit="10" d="
	M725.8,462.8c0,0-2.3,8.5-9.3,11.9"/>
<path fill="none" stroke="#000000" stroke-width="4" stroke-linecap="round" stroke-linejoin="round" stroke-miterlimit="10" d="
	M741.4,459.9c0,0-3.4,11.3-11,13.8"/>
<path fill="none" stroke="#000000" stroke-width="4" stroke-linecap="round" stroke-linejoin="round" stroke-miterlimit="10" d="
	M747.6,470c0,0-5.3,10.5-11.8,10.5"/>
<path fill="none" stroke="#000000" stroke-width="4" stroke-linecap="round" stroke-linejoin="round" stroke-miterlimit="10" d="
	M749.8,483.5c0,0-4.6,6.3-10.3,5"/>
<path fill="none" stroke="#000000" stroke-width="4" stroke-linecap="round" stroke-linejoin="round" stroke-miterlimit="10" d="
	M744.6,495.8c0,0-0.8,1.9-2.3,1.9"/>
<path fill="none" stroke="#000000" stroke-width="6" stroke-linecap="round" stroke-linejoin="round" stroke-miterlimit="10" d="
	M724.4,454c0,0,7.3-2.6,12.8,0.5"/>
<path fill="none" stroke="#000000" stroke-width="5" stroke-linecap="round" stroke-linejoin="round" stroke-miterlimit="10" d="
	M772.5,553.7c2.5,0.5,2.8,5.6-0.5,4.5s-1.3-3.1-0.4-3.4"/>
<path fill="none" stroke="#000000" stroke-width="5" stroke-linecap="round" stroke-linejoin="round" stroke-miterlimit="10" d="
	M755.5,570.9c0,0-4.7-16.7-1.3-35.2s14.4-47.6,29.7-53.7s19,7.2,17.4,26.8c-1.6,19.6-11.1,49.2-17.8,51.1
	c-6.8,1.9-26.2-1.9-26.2-1.9l-3.1-1.2"/>
<path fill="none" stroke="#000000" stroke-width="4" stroke-linecap="round" stroke-linejoin="round" stroke-miterlimit="10" d="
	M784.6,470.8c0,0-2.4,9.9-6,14.5"/>
<path fill="none" stroke="#000000" stroke-width="4" stroke-linecap="round" stroke-linejoin="round" stroke-miterlimit="10" d="
	M798.3,470.3c0,0-3.7,7.9-9.2,10.3"/>
<path fill="none" stroke="#000000" stroke-width="4" stroke-linecap="round" stroke-linejoin="round" stroke-miterlimit="10" d="
	M806.6,475.2c0,0-5.4,7.2-8.3,8.1"/>
<path fill="none" stroke="#000000" stroke-width="4" stroke-linecap="round" stroke-linejoin="round" stroke-miterlimit="10" d="
	M807.5,486.6c0,0-2.3,2.7-4.5,2.6"/>
<path fill="none" stroke="#000000" stroke-width="6" stroke-linecap="round" stroke-linejoin="round" stroke-miterlimit="10" d="
	M791.9,462.8c0,0,8.6-2.4,12.2,2.4"/>
<path fill="none" stroke="#000000" stroke-width="5" stroke-linecap="round" stroke-linejoin="round" stroke-miterlimit="10" d="
	M761.2,589.2c0,0,2.3,12.7,1.9,16.9c-0.3,4.1-10.1,11.4-17.7,14.7c-7.6,3.3-19.3,10.1-19.3,10.1"/>
<path fill="none" stroke="#000000" stroke-width="6" stroke-linecap="round" stroke-linejoin="round" stroke-miterlimit="10" d="
	M809.6,457.1c0,0,10.1,18.1-0.2,50.2s-14.8,41-17.5,56.9s-7.9,34.2-16.4,52.3s-16.4,35.2-34.2,42.1s-33,9.3-47.4,9.6
	s-28.1-8.1-35-19.9c-6.9-11.8-16.2-26.9-21.9-35.5s-11.8-20.5-11.8-22.2"/>
<path fill="none" stroke="#000000" stroke-width="6" stroke-linecap="round" stroke-linejoin="round" stroke-miterlimit="10" d="
	M626.5,579c0,0,0.9,10.7-8.9,10.1s-17.1-16.3-18.1-23.2"/>
<path fill="none" stroke="#000000" stroke-width="6" stroke-linecap="round" stroke-linejoin="round" stroke-miterlimit="10" d="
	M636.1,512.1c0,0-8.6,20.8-8.6,30.9c2.8-22.3,2.6-24.2,2.6-24.2"/>
<path fill="none" stroke="#000000" stroke-width="5" stroke-linecap="round" stroke-linejoin="round" stroke-miterlimit="10" d="
	M611.3,537.4c0,0,8.3,7.9,5.5,24.3"/>
<path fill="none" stroke="#000000" stroke-width="6" stroke-linecap="round" stroke-linejoin="round" stroke-miterlimit="10" d="
	M599.5,564.4c0,0-4.7-9.2,7.5-23.4s31.6-34.1,75.4-64.5c43.8-30.4,73.4-40.7,85.5-42.8"/>
<path fill="none" stroke="#000000" stroke-width="6" stroke-linecap="round" stroke-linejoin="round" stroke-miterlimit="10" d="
	M734.2,445.8c0,0,27.1-2.5,49.7,1.4c22.6,3.9,24.4,9.9,24.4,9.9"/>
<line fill="none" stroke="#000000" stroke-width="6" stroke-linecap="round" stroke-linejoin="round" stroke-miterlimit="10" x1="626.1" y1="523.2" x2="678.8" y2="575.9"/>
<path fill="none" stroke="#000000" stroke-width="6" stroke-linecap="round" stroke-linejoin="round" stroke-miterlimit="10" d="
	M654.4,637.4c0,0,22.8-51.8,25.1-58.7c3.2-3.7,56.3-10.3,73.5-7.8s30,22.2,30,22.2"/>
<path fill="none" stroke="#000000" stroke-width="6" stroke-linecap="round" stroke-linejoin="round" stroke-miterlimit="10" d="
	M598.6,566.9c0,0-8.2-3.5-9.7-9s-0.3-86.8,4-96.2c4.3-9.3,39.4-33.9,68.5-54.7c29-20.8,19.9-26.8,48.6-25.5
	c28.6,1.2,77.1,11.6,79.2,13.9c2.2,2.3,34.1,61,34.1,65.7s-8.3,23.4-8.3,23.4"/>
<path fill="none" stroke="#000000" stroke-width="6" stroke-linecap="round" stroke-linejoin="round" stroke-miterlimit="10" d="
	M621,590.5c0,0-4.5,10.5-3.6,20.6c0.8,10.1-2.9,23.3-13.2,21.6s-8.5-13-8.5-13"/>
<path fill="none" stroke="#000000" stroke-width="6" stroke-linecap="round" stroke-linejoin="round" stroke-miterlimit="10" d="
	M622.1,593.4c0,0-0.8,11.7,4,24.6c4.8,13,0.5,25,0.5,25"/>
<path fill="none" stroke="#000000" stroke-width="6" stroke-linecap="round" stroke-linejoin="round" stroke-miterlimit="10" d="
	M637.9,614.2c0,0,2.5,14.1-7.4,24.6c-9.9,10.4-17.5,17.3-17.5,17.3"/>
<path fill="none" stroke="#000000" stroke-width="6" stroke-linecap="round" stroke-linejoin="round" stroke-miterlimit="10" d="
	M656.3,643.9c0,0,5.4,16.2,3.7,25.4s-9.5,13.5-9.5,13.5"/>
<path fill="none" stroke="#000000" stroke-width="6" stroke-linecap="round" stroke-linejoin="round" stroke-miterlimit="10" d="
	M663.6,654.7c0,0-2.8,14.5-4.5,17.9"/>
<polyline fill="none" stroke="#000000" stroke-width="6" stroke-linecap="round" stroke-linejoin="round" stroke-miterlimit="10" points="
	660.3,671.7 671.3,662.9 663.6,660.4 663.6,660.9 664.3,663.6 "/>
<path fill="none" stroke="#000000" stroke-width="6" stroke-linecap="round" stroke-linejoin="round" stroke-miterlimit="10" d="
	M699.9,669c0,0-5.4,6.9-1.5,13.8c3.9,6.9,5,9.7,5,9.7"/>
<path fill="none" stroke="#000000" stroke-width="6" stroke-linecap="round" stroke-linejoin="round" stroke-miterlimit="10" d="
	M719.7,667c0,0-8.2,3.4-10.7,8.6s-12.5,45.7-12.6,46.3s-3.7,17-7,18.7s-8.1-12.7-15-24.9s-33-38.2-33-38.2"/>
<path fill="none" stroke="#000000" stroke-width="6" stroke-linecap="round" stroke-linejoin="round" stroke-miterlimit="10" d="
	M640.2,677.5c0,0-3.6,11.9-15,17.7s-31.4,7.7-49.2,21.1c-17.8,13.4-22.7,39.8-22.7,48.4c0,8.6-1.5,23.7-5.4,33.4
	c-3.9,9.6-13.3,39.4-11.9,58.6s7.3,39.3,26.6,44.4c19.3,5,38.6-0.9,64.3,9.1s42.6,20.2,49,18.3s18.5-6.9,18.5-6.9
	s-12.3-7.9-11.8-17.9s5.6-15.1,9.4-14.9c3.8,0.2,9.1-1,9.1-1s-2.9-16.5-13.2-22.8s-23.5-9.3-37.4-8.1c-13.9,1.1-20.5,0-34.3-2.8
	s-16.5-2.2-17.9-8.5s3.7-25.4,9.5-44.4s3.1-26.6,4.7-33.2s4.3-12.8,4.3-12.8"/>
<path fill="none" stroke="#000000" stroke-width="6" stroke-linecap="round" stroke-linejoin="round" stroke-miterlimit="10" d="
	M700.9,887.6c0,0,9.1-2.8,18.7-14.8c9.6-12,34.7-25.3,43.8-21s30.6,15.1,36.3,21.7s16.5,25,28.7,37s0.8,22.2-10.7,17.5
	s-19-20.2-25.3-25.3s-15.8-9.1-15.8-9.1"/>
<path fill="none" stroke="#000000" stroke-width="6" stroke-linecap="round" stroke-linejoin="round" stroke-miterlimit="10" d="
	M786.9,898.9c0,0-24.6,36-38.4,36.5c-13.3-1.9-40.5-14.8-49-15.6s-7.9-0.4-7.9-0.4"/>
<path fill="none" stroke="#000000" stroke-width="6" stroke-linecap="round" stroke-linejoin="round" stroke-miterlimit="10" d="
	M779.7,911c0,0,3.8,6.4,9.6,8.5s11.1-5.2,11.1-5.2"/>
<path fill="none" stroke="#000000" stroke-width="6" stroke-linecap="round" stroke-linejoin="round" stroke-miterlimit="10" d="
	M767.3,852.2c0,0-15.5-37.8-16.3-42.8c-0.8-4.9,5.8-14.2,12.5-11.6c6.4,4.1,26,68,26,68"/>
<path fill="none" stroke="#000000" stroke-width="6" stroke-linecap="round" stroke-linejoin="round" stroke-miterlimit="10" d="
	M814.1,926.1l20.9,53.2c0,0-20.6-11-23.6-15.2s-13.1-28.8-13.8-31.4c-0.7-2.6,2.7-11.1,1.3-16.6"/>
<line fill="none" stroke="#000000" stroke-width="4" stroke-linecap="round" stroke-linejoin="round" stroke-miterlimit="10" x1="808.6" y1="935.4" x2="816.2" y2="951.4"/>
<path fill="none" stroke="#000000" stroke-width="6" stroke-linecap="round" stroke-linejoin="round" stroke-miterlimit="10" d="
	M720.9,666.1c0,0,6.3,0.5,17.8-4.3s28.3-19.7,35.8-19.9s23.8-4.5,38.1-13.3c14.2-8.8,29-19.4,33.5-20.2s11.4,1,19.6-10.9
	c8.3-11.9,12.8-14.8,14.3-18.2s2.5-14.6,10.5-26.9c8-12.4,7.5-15.1,8.1-24c0.7-8.8,0-33.9,11.3-44.3"/>
<path fill="none" stroke="#000000" stroke-width="6" stroke-linecap="round" stroke-linejoin="round" stroke-miterlimit="10" d="
	M913.1,484.8c0,0-4.4-8.3-3.9-17.1c0.5-8.8,11.8-17.7,17.9-16.7c0.6,7.7,0,14.6,3.2,20s15.1,9.4,20.2,4.3c0.9-5.6,1.5-9.4,5.3-7.4
	s10.4,14.4,7.8,24.4s-7.3,16.6-11.6,25.8c-4.2,9.2-9.2,33.6-11.9,56.4c-2.8,22.8-7.6,60.5-27.6,70.9c-18.8,7.7-43.2,12.5-80.9,30.5
	s-59,34.4-65.6,35.2s-12.7-0.9-17.9,3.8s-15.5,17.7-15.1,26.9s11.4,41.2,10.7,47.1c-0.7,6-11.7,24.5-41.8,27.9"/>
<path fill="none" stroke="#000000" stroke-width="6" stroke-linecap="round" stroke-linejoin="round" stroke-miterlimit="10" d="
	M720.8,812.6c0,0-14.8,41.2-6.4,66"/>
<path fill="none" stroke="#000000" stroke-width="6" stroke-linecap="round" stroke-linejoin="round" stroke-miterlimit="10" d="
	M625.4,808.6c0,0,13.3,17.5,48.2,6.8"/>
<path fill="none" stroke="#000000" stroke-width="6" stroke-linecap="round" stroke-linejoin="round" stroke-miterlimit="10" d="
	M927.6,459.2c0,0,1.6-1.3,2.9-16.5c1.3-15.2-1.4-29.8,6-43.8c7.3-14,23.8-30.5,26.5-31.5c2.6-1,14.1,8.8,24.8,14.1
	c10.7,5.3,18.1,6,17.7,13.3c-0.5,7.3-8.3,12.7-21,11.8s-22.2-7.3-22.2-7.3"/>
<path fill="none" stroke="#000000" stroke-width="6" stroke-linecap="round" stroke-linejoin="round" stroke-miterlimit="10" d="
	M974.1,370.9c0,0,15.3-8.3,32.9-11.2c17.6-2.9,21,5.3,20,20.6"/>
<path fill="none" stroke="#000000" stroke-width="6" stroke-linecap="round" stroke-linejoin="round" stroke-miterlimit="10" d="
	M1004,388c0,0,5.4-4.5,13.4-4.4s13.9-0.4,16.3,7.1s-2.4,19.2-2.4,19.2"/>
<path fill="none" stroke="#000000" stroke-width="6" stroke-linecap="round" stroke-linejoin="round" stroke-miterlimit="10" d="
	M984.2,430c0,0-9.5-6.7,0.4-15.8c9.9-9.1,38.2-7.3,44.1-3.1c5.9,4.2,4.7,19.6,0.5,22.6"/>
<path fill="none" stroke="#000000" stroke-width="6" stroke-linecap="round" stroke-linejoin="round" stroke-miterlimit="10" d="
	M1010.7,452.3c0,0-20.6,4.7-27.2-8.3s11.9-19.9,27.2-16.3c15.2,3.7,20.8,11,19.3,17.1s-7.8,13.3-16.7,15.9"/>
<path fill="none" stroke="#000000" stroke-width="6" stroke-linecap="round" stroke-linejoin="round" stroke-miterlimit="10" d="
	M1009.9,454l3.8,19.5c0,0-12.7,20.6-27.5,4.9c-4.8-24.8-15.8-75.1-15.8-75.1"/>
<path fill="none" stroke="#000000" stroke-width="6" stroke-linecap="round" stroke-linejoin="round" stroke-miterlimit="10" d="
	M953.1,467.5c0,0,2.7-4.9,11.1-5.6s18.7,0,18.7,0"/>
<path fill="none" stroke="#000000" stroke-width="4" stroke-linecap="round" stroke-linejoin="round" stroke-miterlimit="10" d="
	M987.2,476.9c0,0,10.9-13.1,26.3-4.5"/>
<path fill="none" stroke="#000000" stroke-width="6" stroke-linecap="round" stroke-linejoin="round" stroke-miterlimit="10" d="
	M961.6,366.8l-5.3-21.8c0,0,3.7-9.9,16.3-9.9s14.2,5.3,14.2,5.3l4.3,22.2"/>
<path fill="none" stroke="#000000" stroke-width="6" stroke-linecap="round" stroke-linejoin="round" stroke-miterlimit="10" d="
	M958.7,361.5c0,0-21.9,3.3-36.1-3c-9.5-5.1-10.8-6.8-10.8-6.8s-2.2-16.2-2.2-22.4c1.7-6.5,18.6-20.6,56.9-27.2
	c38.3-6.6,56,6.6,56,6.6l2.8,23c0,0-5.5,15.5-35.4,22"/>
<path fill="none" stroke="#000000" stroke-width="4" stroke-linecap="round" stroke-linejoin="round" stroke-miterlimit="10" d="
	M916,354.7c0,0-2-12.7,24.4-23.4c26.4-10.7,76.5-12.3,82.9,0"/>
<path fill="none" stroke="#000000" stroke-width="6" stroke-linecap="round" stroke-linejoin="round" stroke-miterlimit="10" d="
	M319.4,998.5c0,0,150.6-82.1,248.2-95.8"/>
<path fill="none" stroke="#000000" stroke-width="6" stroke-linecap="round" stroke-linejoin="round" stroke-miterlimit="10" d="
	M570.4,903.3c0,0,61.9,12.7,117.2,51.5s72.8,71.2,79.7,68.5c6.9-2.8,111.4-38.5,179.9-35.8C917.9,935,845.3,878.1,795.4,869.7"/>
<path fill="none" stroke="#000000" stroke-width="6" stroke-linecap="round" stroke-linejoin="round" stroke-miterlimit="10" d="
	M809.9,873.3c0,0,50.7-11.7,165.4,23.2s174.6,98.6,182.8,117.9"/>
<path fill="none" stroke="#000000" stroke-width="6" stroke-linecap="round" stroke-linejoin="round" stroke-miterlimit="10" d="
	M1098,846.1c-0.5-0.3-8.6-8.1-19.3-14"/>
<path fill="none" stroke="#000000" stroke-width="6" stroke-linecap="round" stroke-linejoin="round" stroke-miterlimit="10" d="
	M1075.2,837.5c0,0,4-24.8-1.7-42.2s-16.4-24.1-34.2-16.9c-17.8,7.2-29.6,42.2-29.6,42.2"/>
<path fill="none" stroke="#000000" stroke-width="6" stroke-linecap="round" stroke-linejoin="round" stroke-miterlimit="10" d="
	M1028.7,854.7c0,0-10.7-32.3-29.8-35c-19.1-2.6-36.3,7.8-42.3,29.9s-12.2,32-21.7,35.4"/>
<path fill="none" stroke="#000000" stroke-width="6" stroke-linecap="round" stroke-linejoin="round" stroke-miterlimit="10" d="
	M1030.3,815.5c1.4,0.1-0.2,8.1-1,7.6c-0.8-0.6,0-6.4,0-6.4"/>
<path fill="none" stroke="#000000" stroke-width="6" stroke-linecap="round" stroke-linejoin="round" stroke-miterlimit="10" d="
	M1048.9,822.6c2.9,0.5,0.9,9.9-0.5,9.5c-1.4-0.3,1-7.6,1-7.6"/>
<path fill="none" stroke="#000000" stroke-width="6" stroke-linecap="round" stroke-linejoin="round" stroke-miterlimit="10" d="
	M1090.2,827.4c0,0,9.3,4.8,8.9,32.2c-0.3,27.4-2.4,41.3-2.4,41.3"/>
<path fill="none" stroke="#000000" stroke-width="6" stroke-linecap="round" stroke-linejoin="round" stroke-miterlimit="10" d="
	M1111.4,878.5c0,0-21.6,41.3-39.7,59.5"/>
<path fill="none" stroke="#000000" stroke-width="6" stroke-linecap="round" stroke-linejoin="round" stroke-miterlimit="10" d="
	M1078,825.5c0,0,11.6-11,16.7-7.2c5.2,3.8,7.1,6.5,13.5,6.5s11.5-0.6,12.8,4.8c1.4,5.4,1.9,9.5,7.8,10.8c5.8,1.3,10.7,4.4,11.9,12.6
	s0.8,10.3,4.7,14.1c3.9,3.8,7.6,5.8,5.8,13.9c-1.7,8-3.6,8.1-0.6,10.9c3,2.8,6.1,15.2,1.4,24.1c-4.7,8.8-1.5,8.8-2.4,15.5
	c-0.9,6.6-4.4,8.5-6,11.4s-2.6,2-3.3,8.9c-0.7,6.9-1.3,8-6.8,10c-5.5,1.9-8.7,13-8.7,13"/>
<path fill="none" stroke="#000000" stroke-width="6" stroke-linecap="round" stroke-linejoin="round" stroke-miterlimit="10" d="
	M717.6,381.9c0,0-19-28.7,36.8-76.9c55.7-48.2,255.2-122.2,419.4-57.1c10.6,4.2,19.4,14.7,24.2,21.7c11.5,17.1,11.9,42.1,3.1,61.1
	c-6.4,13.9-16,22.5-26.8,31.8c-31.2,27.1-99.1,58.6-141.5,64.1"/>
<path fill="none" stroke="#000000" stroke-width="6" stroke-linecap="round" stroke-linejoin="round" stroke-miterlimit="10" d="
	M815.5,443.8c0,0,52.2,9.2,112,2.3"/>
<path fill="none" stroke="#000000" stroke-width="6" stroke-linecap="round" stroke-linejoin="round" stroke-miterlimit="10" d="
	M734.7,324.6c0,0-3-57.8,137.7-113.3c162.8-53.2,283.3-5.8,293.7,33.8"/>
<path fill="none" stroke="#000000" stroke-width="6" stroke-linecap="round" stroke-linejoin="round" stroke-miterlimit="10" d="
	M929.6,419.5c0,0-68.6,7-130.2-6.3"/>
<path fill="none" stroke="#000000" stroke-width="6" stroke-linecap="round" stroke-linejoin="round" stroke-miterlimit="10" d="
	M757.9,387.7c0,0-23.8-30.6,29.4-66c53.2-35.5,164-72.4,278.2-65.6c114.2,6.8,119.2,52.2,85.3,86.7s-116.5,56-116.5,56"/>
<path fill="none" stroke="#000000" stroke-width="4" stroke-linecap="round" stroke-linejoin="round" stroke-miterlimit="10" d="
	M950.4,379.4c0,0-17.9-8.8-60.1-2.8c-42.2,6-47.8,22.3-20.9,27.7c26.9,5.4,63.1-1.2,63.1-1.2"/>
<path fill="none" stroke="#000000" stroke-width="4" stroke-linecap="round" stroke-linejoin="round" stroke-miterlimit="10" d="
	M897.4,343.4c2.1,23.4-113.4,47-123.5,22.9C763.7,342.2,883.5,322.7,897.4,343.4z"/>
<path fill="none" stroke="#000000" stroke-width="4" stroke-linecap="round" stroke-linejoin="round" stroke-miterlimit="10" d="
	M939,290.4c1.6,15.4-72,46.8-103.6,30.7C828.9,304.6,916,275.3,939,290.4z"/>
<path fill="none" stroke="#000000" stroke-width="4" stroke-linecap="round" stroke-linejoin="round" stroke-miterlimit="10" d="
	M960.9,286.2c2.8,21.9,106.9,10.5,107.8-9.7C1069.7,256.3,956.9,267.5,960.9,286.2z"/>
<path fill="none" stroke="#000000" stroke-width="4" stroke-linecap="round" stroke-linejoin="round" stroke-miterlimit="10" d="
	M1034.3,324.6c3.1,23.1,129.4,5.6,125.7-21.3C1155.8,280.6,1031.2,301.5,1034.3,324.6z"/>
<path fill="none" stroke="#000000" stroke-width="4" stroke-linecap="round" stroke-linejoin="round" stroke-miterlimit="10" d="
	M1021,359c0,0,22-10.2,44.5-11.7s39.1,0,36.8,8.6c-2.3,8.6-33,24-75.2,21.9"/>
<path fill="none" stroke="#000000" stroke-width="6" stroke-linecap="round" stroke-linejoin="round" stroke-miterlimit="10" d="
	M1205.2,278.4l71.1-13.5c0,0,10.4,2.6,11.8,16.5s-4.7,17.9-4.7,17.9l-77.7,16.8"/>
<path fill="none" stroke="#000000" stroke-width="5" stroke-linecap="round" stroke-linejoin="round" stroke-miterlimit="10" d="
	M1225.8,274.5c0,0,12,5.8,12,16.1s-4.3,18.1-4.3,18.1"/>
<path fill="none" stroke="#000000" stroke-width="6" stroke-linecap="round" stroke-linejoin="round" stroke-miterlimit="10" d="
	M1223.6,274.5c0,0-5.2-34.6-28.6-63.8s-79.8-64.2-195-54.4"/>
<path fill="none" stroke="#000000" stroke-width="6" stroke-linecap="round" stroke-linejoin="round" stroke-miterlimit="10" d="
	M1001.3,125.1c0,0,103-14.4,176.7,29.5s78,95.4,80.1,111.2"/>
<path fill="none" stroke="#000000" stroke-width="6" stroke-linecap="round" stroke-linejoin="round" stroke-miterlimit="10" d="
	M966.8,96.5c0,0,0.8,20.5,1.2,21.9s8.5,1.8,17.9,1.6c9.4-0.2,13.3,2.6,14.7,7.5c1.4,4.9,5,27.1-5.8,32.8c-16.6-0.6-31,2-42.6,0
	s-19.7-11.3-19.9-30.7S931.2,99,931.2,99s3.8-7.6,18.8-7.8C964.9,91,966.8,96.5,966.8,96.5z"/>
<line fill="none" stroke="#000000" stroke-width="6" stroke-linecap="round" stroke-linejoin="round" stroke-miterlimit="10" x1="959.3" y1="54.9" x2="960.8" y2="91.1"/>
<line fill="none" stroke="#000000" stroke-width="6" stroke-linecap="round" stroke-linejoin="round" stroke-miterlimit="10" x1="932.7" y1="59.3" x2="934.7" y2="93.4"/>
<path fill="none" stroke="#000000" stroke-width="6" stroke-linecap="round" stroke-linejoin="round" stroke-miterlimit="10" d="
	M493.8,428.2c0,0,13.1-22.3,10.4-39c-12.8-12.5-16.7-15.3-16.7-15.3s-24.8,4.3-51.2,38.8s-21.2,50.4-21.2,50.4s11,14.5,18.5,15.4
	s30.7-7.6,37.5-20.6"/>
<path fill="none" stroke="#000000" stroke-width="6" stroke-linecap="round" stroke-linejoin="round" stroke-miterlimit="10" d="
	M479.1,419.5c0,0-19.4,6.6-18.2,24.9c17,18,82.7,73.8,89,76.7c6.3,2.9,17-3.5,21.2-12.2c4.3-8.7,1.2-18.6,1.2-18.6l-91.1-70.8"/>
<path fill="none" stroke="#000000" stroke-width="4" stroke-linecap="round" stroke-linejoin="round" stroke-miterlimit="10" d="
	M437.1,477.4c0,0-8.5-4.6,0.7-24.4s40.7-65.7,65.6-63.2"/>
<path fill="none" stroke="#000000" stroke-width="4" stroke-linecap="round" stroke-linejoin="round" stroke-miterlimit="10" d="
	M571.8,493.2c0,0-22.1,0.6-21.2,26"/>
<path fill="none" stroke="#000000" stroke-width="6" stroke-linecap="round" stroke-linejoin="round" stroke-miterlimit="10" d="
	M547,467.2c0,0,39.7-55,66-111c26.3-55.9,28.1-104.3,20.5-122.3c-12.8-17.7-23.9-29.7-44.7-33c-20.8-3.4-80.7,2.8-167.2,79.5
	S242.3,495.6,254.7,597.9c7.8,19.7,32.4,35,47.1,36.8c14.7,1.8,123-20.6,220.1-135.7"/>
<path fill="none" stroke="#000000" stroke-width="6" stroke-linecap="round" stroke-linejoin="round" stroke-miterlimit="10" d="
	M506.2,485.6c0,0-104.5,137.2-186.3,99.9c-56.4-54.1,65.6-209.6,133-275.2s123.6-75.7,145.7-59.6c22.1,16.1,19.4,102.3-68.9,206.4"
	/>
<path fill="none" stroke="#000000" stroke-width="4" stroke-linecap="round" stroke-linejoin="round" stroke-miterlimit="10" d="
	M475.5,477.4c16.5,12.3-56.9,88.4-68.8,75.1C394.8,539.2,450.5,467.6,475.5,477.4z"/>
<path fill="none" stroke="#000000" stroke-width="4" stroke-linecap="round" stroke-linejoin="round" stroke-miterlimit="10" d="
	M412.9,476.5c19.5,16.8-61.7,113.2-78.6,98.9C317.3,561.2,387.9,468.3,412.9,476.5z"/>
<path fill="none" stroke="#000000" stroke-width="4" stroke-linecap="round" stroke-linejoin="round" stroke-miterlimit="10" d="
	M409,408.5c19.1,15.8-57.3,115.1-73.6,101.1C319.2,495.6,381.8,397.7,409,408.5z"/>
<path fill="none" stroke="#000000" stroke-width="4" stroke-linecap="round" stroke-linejoin="round" stroke-miterlimit="10" d="
	M500.8,298.1c15,13.5-57.2,111-78.9,97.5S483.1,281.3,500.8,298.1z"/>
<path fill="none" stroke="#000000" stroke-width="4" stroke-linecap="round" stroke-linejoin="round" stroke-miterlimit="10" d="
	M500.2,368.4c26.6,18.3,88.1-81.9,78-98.1S494.7,328.1,500.2,368.4z"/>
<path fill="none" stroke="#000000" stroke-width="4" stroke-linecap="round" stroke-linejoin="round" stroke-miterlimit="10" d="
	M502.9,433.7c0,0,18.9-61.1,56.6-73.6c13.5-2.8,8.5,16.5,0,31.2s-35.6,51.1-46.9,52.5"/>
<path fill="none" stroke="#000000" stroke-width="6" stroke-linecap="round" stroke-linejoin="round" stroke-miterlimit="10" d="
	M253.6,582.4c0,0-22.4-31.6-16.3-110.2s72.1-210,204.2-258.8c71.6-24.1,109.7-11.5,109.7-11.5"/>
<path fill="none" stroke="#000000" stroke-width="6" stroke-linecap="round" stroke-linejoin="round" stroke-miterlimit="10" d="
	M249.5,578c0,0-9.6-2.8-14.4,2.4c-4.7,5.2-7.6,29,2.3,36.8c17.1,1.2,31.8,0.5,31.8,0.5"/>
<path fill="none" stroke="#000000" stroke-width="6" stroke-linecap="round" stroke-linejoin="round" stroke-miterlimit="10" d="
	M233.3,583.7c0,0-36.6,7.7-66.6-35.2s-22.9-66.3-22.9-66.3"/>
<path fill="none" stroke="#000000" stroke-width="6" stroke-linecap="round" stroke-linejoin="round" stroke-miterlimit="10" d="
	M113.2,482.3c0,0-4.1,55,32.8,91.5s84.8,37.6,84.8,37.6"/>
<path fill="none" stroke="#000000" stroke-width="6" stroke-linecap="round" stroke-linejoin="round" stroke-miterlimit="10" d="
	M101.7,428.8l41.3,0.7c0,0,10.1,1.3,10.2,11.2c0.1,10-0.8,33.8-2.9,35.9c-2.1,2.1-3.9,5.3-13.2,4.8s-93.4-1.7-93.4-1.7
	s-11-3.2-11.8-23.5s6.6-26.1,10.9-27.4s18.5-1.2,18.5-1.2"/>
<path fill="none" stroke="#000000" stroke-width="4" stroke-linecap="round" stroke-linejoin="round" stroke-miterlimit="10" d="
	M119,429.1c0,0-17.1,15.3-3.1,50.5"/>
<path fill="none" stroke="#000000" stroke-width="6" stroke-linecap="round" stroke-linejoin="round" stroke-miterlimit="10" d="
	M291.4,195.2c0,0-120.6-14.2-190.3,79.8c-54.4,95.8-35.3,159-35.3,159s3.7,7.7,16.7,7.4c13.1-0.3,15.9-13.8,15.9-13.8
	s-3.3-59,21-110.8s83.9-99.1,172-88.5"/>
<path fill="none" stroke="#000000" stroke-width="6" stroke-linecap="round" stroke-linejoin="round" stroke-miterlimit="10" d="
	M341.6,188.4c0,0-40.4,1.2-41.6,2.1c-1.2,0.9-6.3,4.7-6.9,19.3c-0.6,14.5,1.2,19,5,21.9s58.4,0.6,68.3-1.5s15.4-6,17-15.9s0-72,0-72
	s-5.4-10.5-22-9.3s-19.9,14.1-19.9,14.1s1.7,38.9,0.3,40.2"/>
<line fill="none" stroke="#000000" stroke-width="6" stroke-linecap="round" stroke-linejoin="round" stroke-miterlimit="10" x1="346.6" y1="137.6" x2="345.6" y2="55.1"/>
<line fill="none" stroke="#000000" stroke-width="6" stroke-linecap="round" stroke-linejoin="round" stroke-miterlimit="10" x1="376.5" y1="51.4" x2="377.4" y2="134.1"/>
<path fill="none" stroke="#000000" stroke-width="24" stroke-linecap="round" stroke-linejoin="round" stroke-miterlimit="10" stroke-opacity="0" d="
	M599.5,458l-8.2,37.4l-4.5,42l32.4-96l-23.4,120.3l36.1-129.8l-14.5,90c0,0,3.7-5.8,4.7-6.6s23-92.9,23-92.9l20.8-9.1l-22.3,88.6
	l11.9-9.4l27.8-104.2H697c0,0-12.3,83.1-16.3,85.9s7.9-5.4,7.9-5.4l21.2-84.3l20.6,1.9L708,459.9l6-8.9l27.7-59.4H753L741.1,436
	l-3.8,9l15.3,1.2l17.7-53l10.6,3.7l-9.6,41.4l10.3,3.1l7.6-28.2c0,0-2.3,30.4,0,33s10.3-10.7,10.3-10.7v-9.2l2.3,17.4l6.5-7.7
	l4,19.6l7.1,9.5"/>
<path fill="none" stroke="#000000" stroke-width="24" stroke-linecap="round" stroke-linejoin="round" stroke-miterlimit="10" stroke-opacity="0" d="
	M687.2,577.5l-25.9,61.7l8.2,15.5l36.2-77.2l10.6-2.4l-37.5,83.6h20.3l34.4-85.1l22-6.7L714,658.6l20.9-10.5l30.9-75.9l4.5,3.7
	l-23,69.5c0,0,14.7-22,16-22.9c1.2-0.9,12.2-30.5,12.2-30.5"/>
<path fill="none" stroke="#000000" stroke-width="24" stroke-linecap="round" stroke-linejoin="round" stroke-miterlimit="10" stroke-opacity="0" d="
	M570.4,714.6c0,0-32.7,40.1-31.6,40.1c1.2,0,46.5-44.5,46.5-44.5l-39.9,63.1l-3,19.9l70.9-93.8l24-10.7L535.8,825.6
	c0,0-1.6,16.3-1.6,18.6s119.9-146.1,119.9-146.1l8.6,7L543.4,863.6l4.4,16.5l118.5-155.5l11.6,4.7L561.8,883.6L559,888l9.9,2.2
	l119-155.6l6.9,6.2L587,893.2h-1.6l16.1,1.7l105-150.9l-88.1,155l14.9,8.1l76.8-138.3l-60.6,145.1l9.7,1.6l14.3,4.4h5.2l-7.8-11.5
	c0,0,0.5-8.9,2.6-14.2s7-15.5,7-15.5l5-6.1l4.7,6.1l9.5-4.2l5.9-6.2l-14.7-5l25.4-91.6l-11.5,85.5l27.4-85.1l-1.8,30.5l10.1-13.3
	l-7.8-28l-12.9-8.9l-19.4-19.5l6-58.6l12.4-6.1l-9.2,66.1l14.2,7.6c0,0,10-65.6,10.2-66.3s12.3-17.9,12.3-17.9l-4.2,63.6l21.2-5.6
	l4.7-69.2l12.9-2.6V702l15.1-7.4l-2.4-53.9l13.2-5.5c0,0,0.5,40.9,0,42.3c-0.5,1.4,11-3,11-3l5.6-50.9l14.6-9.3l-4.9,44.4v9.6
	l16.6-6.4l-1.8-36.2l4.9-18.1h12c0,0-2.8,51.9-2.8,52.9s20.2-2.9,20.2-2.9l-3.7-63.1l9.1-30c0,0,5.7,80.7,6.5,82.3
	s20.4,0.7,20.4,0.7l-18.1-105.6l5.9-24.3L925.9,621l9.2-31.9l-27.3-97.5l9.3-28l2.8,19.7l23.2,70.4l7.8-24.6l-18.1-43l25.2,24.6
	l-1.8-17.9l-4.8-6.3l7.6-3.3l4-4"/>
<path fill="none" stroke="#000000" stroke-width="24" stroke-linecap="round" stroke-linejoin="round" stroke-miterlimit="10" stroke-opacity="0" d="
	M691.7,881.5c0,0-11.4,24.1-7.7,21.5s31.7-30.1,33-27s-31.3,42-27.8,41.2s44.9-53.1,44.9-53.1S711.4,920,711,919.9
	c-0.5-0.2,7.5,9.4,9.9,5.7c2.3-3.7,22.5-61.8,24.6-63.3s15-2.4,15-2.4s-23.8,58.8-23.8,60.1s7.3,9.4,7.3,9.4l30.3-68.7l12.7,18
	l-31.1,46.9l14.5-3.4l28.6-44.9l9.7,13.6l-18.3,25.9l22.1-13.7l3.8,18.2l10.2-5.8l4.2,13.1"/>
<path fill="none" stroke="#000000" stroke-width="24" stroke-linecap="round" stroke-linejoin="round" stroke-miterlimit="10" stroke-opacity="0" d="
	M968,454.2l-25.4,15.3l-7.3-15.3V449l30-7l1.1-9.4l-34.2,3l-1.7-14.8l32.3-3.5l-2.1-7.3c0,0-24.9-1.4-24.7-2.2s2.8-13.2,2.8-13.2
	l14.2-2.8l3.2-6.6l10.2-4.3l0.9,12.8l18.5,1.1l-6.5-16.1l33.1-10.3l4.5,9.5c0,0-21.5,10.3-21.5,10.9s-0.1,10-0.1,10l31.7-11.4
	l2.5,15.9l-31,9.9l-4.5,8.1l34.5-2.3c0,0-2,14.1-2.6,14.7c-0.7,0.6-25-0.6-25-0.6l-7.1,4.2l3.3,2.3l16.4,2.8l10.5,0.2l-3.1,10.5"/>
<path fill="none" stroke="#000000" stroke-width="24" stroke-linecap="round" stroke-linejoin="round" stroke-miterlimit="10" stroke-opacity="0" d="
	M1004.1,482.7c-0.1-1-12-4.8-12-4.8l19.2-8.3c0,0-19-0.4-19.2-0.7c-0.2-0.3,11-8.5,10.3-8.6s-14.4-3.4-14.4-3.4l-4.8-16.9l-6.8-31.6
	l7.8,1.2l-0.6-48.3l-15,4.8l17.1-16.3l-40.7,9.5l-14.3-4.6l80.7-12.8l0.9-10.7l-88.9,17.6L917,338l101-17.4l-3.2-9.3l-93.1,14.3
	l5.1-7.7l65.2-13.2"/>
<path fill="none" stroke="#000000" stroke-width="24" stroke-linecap="round" stroke-linejoin="round" stroke-miterlimit="10" stroke-opacity="0" d="
	M416.5,448.3l1.2,18.1l4.8,0.9c0,0,8.1-29.9,8.3-30.6c0.2-0.7,6-17.2,6-17.2s-1,61.2,0,60.1s9.4-6.5,9.4-6.5l5.7-70.1l10.3-8.9
	l-2.6,72l7.1-6.7l10-69.6l9.9-7.4l-3.4,83.1c0,0,9.2,6.4,9.2,5.3c0-1.2,9.2-79,9.2-79l1.4,56.5l-1.3,30.6l15.6,12.4l-0.7-38.4
	l15.9,15.1l-3,27.5l10.3,14.5l4.8-32.4l6.6,1.3V518l16.6-1.1l-2.7-24.2l2.7-0.7"/>
<path fill="none" stroke="#000000" stroke-width="24" stroke-linecap="round" stroke-linejoin="round" stroke-miterlimit="10" stroke-opacity="0" d="
	M402,964.4c0,0-8.6,7.2-5.3,4.8s19.8-22.6,19.8-22.6s-4.6,20.5-3.7,19.6s23.5-31.2,23.5-31.2l-1.5,19.6l17.4-26v28.1l18.6-34.2
	c0,0,0.3,37.3,1.2,36.1c0.9-1.2,17.1-38.6,17.1-38.6l-2.8,41.8l13.2,3.6l11.3-56.9l16.5-1.8L513.5,973l8.9,1.5l16.3-61.1l15-8.3
	l-18,69.4l9.3,2.8l22.5-65.4l14,3.7l-18.6,72.8l10.9,2.8c0,0,22-70.7,24-73.4c2-2.8,13.5,5.8,13.5,5.8s-20.4,73.6-21.4,75.1
	s7,13.5,7,13.5s31.3-86.4,31.2-86.5c-0.1,0,10.3,4.6,11.9,5.3c1.6,0.8-27.5,88.8-27.5,88.8s9.2,12.8,10.1,13.1
	c0.9,0.3,31.2-90.2,31.2-90.2s6-4.2,6.1-1.6c0.1,2.5-19.7,98.9-19.7,98.9l10.9,13.7l24.8-99.1l16,12.5l-26.7,99.4l10.4,3.7
	l25.5-101.7l9.6,11c0,0-17.7,88.9-17.7,90.8c0,1.8,12.8,11,12.8,11S727,980.5,726,982.5c-1,2.1,5.5,12.3,7.2,13.9
	s-16.1,96.5-15.2,96.5s15.3,4.9,15.3,4.9l16.8-88.4l13.8,6.4l-16.5,91.8h9.7l21.6-88l16.2-5.1l-19.4,92.1l14.7,1l26.2-93.1l18.7-6.9
	l-26.4,96l17.2,2.2L853,998.9l14.3-3l-24.2,107.5l17.2-4.6l19.9-102.4l10.8-4.8l-14.4,105.6l14.4-6.1c0,0,13.9-94.2,14.9-95.4
	c0.9-1.2,12.8-4.5,12.8-4.5l-15,99.4l21.1-1.6c0,0,6.1-96.6,7-96.6s12.8-1.5,12.8-1.5l-2.6,87.8c0,0,19-16.6,19.1-15.7
	s0-76.4,0-76.4L830.6,875.9l18.1-4.6l-1,15.9l18.1-12.8l4.3,24.5l13.1-18.4c0,0-2.9,36.5,0,34.9s19-29.1,19-29.1s-9.2,47-7.6,46.1
	c1.5-0.9,25.7-42.3,25.7-42.3l-1.5,56.5l22-61.5h8.9L939.6,957l13.1,7.9l11.5-68.9l14.2-0.6l-12.8,75.1c0,0,7.5,95.7,8.2,95.4
	c0.6-0.3,10.3-5,10.3-5l-6.6-114.4l15.9-43.6l11,5.3l-15.3,54.1c0,0,11.1,87.4,10.9,87.1s13.8-3.5,13.8-3.5l-4.1-81.5l11.2-48.5
	l12.7,2.3l-10.9,49.6l7.2,73.4l15.4-6.4c0,0-6.1-77-6.1-78.3c0-1.2,3.9-27.4,3.9-27.4l8.7,3.2l1.5,75.6l7.8,17.4l15.4-1.9l-6.7-80.6
	l6.7-13.6l13.7,83.4l12-7.9l-16.2-79.1c0,0,27.4,67.8,28,69.3c0.7,1.5,24.6-1.6,24.6-1.6l-47.1-81.1l47.1,46.7l1.5-19.7l-37.4-45.2
	c0,0-3.9-10.5-1.5-9s45.5,46.7,45.6,41.4s2.8-25.7,2.8-25.7l-53.8-29.4l3.3-9.2l44.7,16.4l-5.1-19.2l-50.4-13.2c0,0,39.3,0.1,40-2.8
	c0.6-2.9-4.8-11-14.2-11.2c-9.4-0.2-32,0.1-30.8,0s33.1-4.8,33.1-4.8s-18.9-10.7-20.2-9.9s-18.1,14.7-18.1,14.7"/>
</svg>
