<?xml version="1.0" encoding="utf-8"?>
<!-- Generator: Adobe Illustrator 24.3.0, SVG Export Plug-In . SVG Version: 6.00 Build 0)  -->
<svg isCommex="true" version="1.1" id="Layer_3" xmlns="http://www.w3.org/2000/svg" xmlns:xlink="http://www.w3.org/1999/xlink" x="0px" y="0px"
	 width="1315.8px" height="629.4px" viewBox="0 0 1315.8 629.4" enable-background="new 0 0 1315.8 629.4" xml:space="preserve">
<g>
	<path fill="#C4DEFF" d="M869.5,163.9l-0.3,1c-11.3,34.7-35.6,108.1-62,187.2C784.4,420,769.5,464.4,758.6,496
		c-6.8,20-12.4,35.8-16.6,47.3c-1.7,4.8-3.4,9.3-5,13.3l0,0.1c-1.6,4-2.5,6.1-4.3,6.1c-0.2,0-0.4,0-0.6,0l-0.1,0
		c-194-42.6-311.7-66.1-393.4-78.7l-2.2-0.3l1.3,1.9c0.9,1.3,1.9,2.3,3.3,3.1l0.1,0.1c6,2.6,96.8,22.7,198.3,43.9
		c110.2,23,186.7,37.6,199.9,38.2l0.7,0l0.2-0.7c5.6-15.8,36.4-108.9,63.3-190.7l22.8-69.2c22.9-69.4,42.6-129.3,47.3-143.6l0.3-0.9
		L869.5,163.9z"/>
	<path fill="#C4DEFF" d="M731.2,557.4l0.3-0.7c4-9,19.8-53,72.5-210.8c27.8-83.2,54.1-163,61.5-185.5c1.5-4.4,2.7-8.2,3.7-11.3
		c0.9-2.9,1.7-5.1,2.2-6.7l0.4-1.1l-1.1-0.2c-1.7-0.4-3.8-0.6-5.8-0.7l-0.8,0l-0.2,0.8c-3.5,12.3-8.8,29.4-15.6,50.9
		c-10.8,34-26.3,81.3-47.4,144.5c-34.1,102.4-69.6,206.3-70.2,207.8c-0.4,1.1-1.3,1.7-2.4,1.7c-0.3,0-0.3,0-0.5,0l-0.1,0
		c-0.2,0-1-0.2-2.4-0.5C671.1,533,397.3,472.2,334.3,475l-1.5,0.1l0.7,1.4c0.1,0.3,0.2,0.6,0.3,1l0.1,0.7l0.7,0.1
		c83,12.5,197.7,35.4,395.8,78.9L731.2,557.4z"/>
</g>
<g id="vs-secondary">
	<path fill="#6495FB" d="M1222.9,285.2c-3.1-17.5-10.3-28-15.9-33.7l-0.4-0.5l-0.6,0.2c-0.2,0.1-0.3,0.1-0.5,0.2
		c-0.1,0.1-0.3,0.1-0.5,0.2c-1.7,0.5-216.8,60.5-226.4,63.4c-1.3,0.4-2.6,1.2-3.7,2.2l-2,1.8h2.7c1.7,0,3.7-0.1,5.8-0.3l0.1,0
		c0.3-0.1,0.6,0,0.9,0.1l0,0c15.5,5.9,15.4,33.9,14.6,45.6c-0.2,3-0.4,5.2-0.6,6.3l0,0.2c-0.2,1.3-1.3,2.3-2.5,2.3h-0.3
		c-1.3-0.2-2.2-1.4-2.1-2.8l0-0.1c0-0.1,0-0.2,0-0.3c0-0.2,0.1-0.4,0.1-0.6v-2.4l-1.7,1.7c-1.1,1.1-2.5,2.8-3.8,4.4l-0.4,0.5
		l0.4,0.6c1.3,2.1,4.7,6.4,11.3,6.4c1.2,0,2.4-0.1,3.8-0.4c0.6-0.2,12.7-3.3,31.2-8.1c51.9-13.4,160-41.4,188.6-48.8l0.6-0.2
		l0.1-0.6C1224.6,309.7,1225,297.1,1222.9,285.2z"/>
</g>
<g id="vs-primary">
	<path fill="#8CD96F" d="M305.4,323.4c-0.1-0.4-0.1-0.7-0.2-1.1c-0.1-0.3-0.1-0.7-0.2-1l-0.1-0.9l-29.3,1.7
		c-57.8,3.4-145.2,8.5-171.6,10.3l-0.7,0l-0.2,0.7c-3.2,10.8-7,32.8,2.8,58.3l0.3,0.7l0.8-0.1c32.4-2.9,178.6-16.6,200.2-18.7
		l0.8-0.1l0.1-0.7C310.1,361.7,307.5,334.2,305.4,323.4z"/>
</g>
<path fill="#E20142" d="M752.5,188.8c-5.6-3-13.1-3.2-22.5-0.5c-7.3,2.1-14.1,5.6-17.7,7.9c-1.1,0.6-2.3,0.8-3.4,0.4
	c-1.2-0.4-2.1-1.3-2.5-2.4c-2.7-7.1-10.8-13-20.5-15c-2.9-0.6-5.5-0.8-8-0.8c-10.4,0-20.3,4.3-27.9,12c-19.4,19.5-8.4,39.2-6,42.9
	c0.7,1.2,26.9,44.9,35.9,60.1l0.5,0.9l0.9-0.6c5.9-4,18.1-12,31.8-21c2.7-1.8,5.6-3.5,8.6-5.3c1.4-0.8,2.8-1.7,4.2-2.5l0.6-0.4
	c15.5-9.3,33.1-19.9,39.1-32.5C773.4,215.6,767.7,197.1,752.5,188.8z M697.8,262.1l-14.2-1.8l6.4-19.6l-17.2-2.6l3.6-12.8l17.4,1.9
	l5.6-18.6l13.2,1.4l-5.8,20l17.6,2.4l-3.8,13.5l-17.6-3L697.8,262.1z"/>
<g id="vs-skin">
	<path fill="#FCD9CA" d="M981.4,323.8l-0.2-0.1l-0.3,0c-3.4,0.2-7.1,0.4-10.9,0.1c-3.4-0.2-8.2-0.8-10.5-2.7
		c-0.6-0.6-1.6-1.6-3.1-3.3c-4.7-5.3-14.5-16.3-25.3-21.8c-0.2-0.1-0.3-0.1-0.4-0.3c-6.7-5.6-5.9-17.7-4.9-24.3l0.1-0.5
		c3.1-18.7,1.7-29.5-4.4-33c-4.8-2.8-13-4.2-20.4-0.7c-8,3.7-13.4,12-15.6,24.2c-3.5,19,3.7,27.5,10.7,35.7l0.2,0.3
		c3.7,4.4,7.2,8.5,8.7,14c0.2,0.6,0.1,1.3-0.2,1.9c-6.9,11.9-41.8,38.7-56.4,41.5c-3.6,0.6-8.4,1.4-13.4,2.2l-2.1,0.3
		c-5.1,0.8-10.8,1.7-16.1,2.7c-0.4,0.1-0.7,0.1-1.1,0l-0.9-0.2l-0.3,0.9c-0.9,2.7-1.7,5.3-2.6,8c-0.9,2.6-1.7,5.3-2.6,7.9l-0.5,1.5
		l1.6-0.2c4.5-0.6,9.3-1.1,14.3-1.3c10.7-0.3,24.9-4.5,42.3-12.6l1.3-0.6l-1-1c-0.2-0.2-0.4-0.4-0.6-0.6l-0.1-0.1
		c-0.4-0.5-0.7-1.1-0.6-1.7c0-0.7,0.3-1.3,0.9-1.7c0.5-0.4,1.1-0.7,1.7-0.6c0.7,0,1.3,0.3,1.7,0.9c0,0,1,1.1,1.9,2.2
		c2.4,2.8,3,3.7,1.9,5.3c-0.2,0.4-0.7,0.8-1.2,0.9l-0.2,0l-0.2,0.2c-0.1,0-0.2,0.1-0.3,0.1c-0.2,0.1-0.5,0.2-0.7,0.3
		c-19.1,9.1-34.9,13.9-46.7,14.2c-5.4,0.2-10.8,0.8-16,1.6h-1.6l-0.2,0.7c-1.5,4.3-2.9,8.6-4.3,12.8l-0.5,1.5l1.5-0.1
		c4.5-0.3,9.3,0.1,14.3,0.5l2.7,0.2c3.7,0.3,7.5,0.5,11.5,0.5c14.9,0,41.4-13.1,52.2-18.7l1.2-0.6l-1-1c-0.4-0.4-0.7-1.1-0.7-1.7
		c0-0.7,0.3-1.3,0.8-1.7c0.4-0.4,1-0.7,1.7-0.7c0.7,0,1.3,0.3,1.7,0.8l3.2,3.3c0.5,0.5,0.8,1.3,0.6,2.1c-0.1,0.7-0.5,1.5-1.2,1.8
		c-1.6,0.9-38.6,21.6-58.7,21.6c-4.3,0-8.8-0.2-14.1-0.7c-5.5-0.5-10.9-0.9-15.6-0.4c-0.3,0.1-0.6,0-1-0.1l-0.9-0.2l-0.3,0.9
		c-1,2.9-1.9,5.9-2.9,8.8c-1.9,5.8-3.8,11.6-5.7,17.3l-0.4,1.1l1.2,0.2c0.6,0.1,1,0.2,1.3,0.6c1.8,1.6,3,2.5,4.1,3l1.3,0.6l0.1-1.4
		c0.5-5.4,3.2-10.9,7-14.5c6.5-6,21.9-5.7,38.3-5.4l0.1,0c4.2,0.1,8.5,0.1,12.7,0.1c15.7-0.2,30.6-10.3,34.8-13.5l0.2-0.2
		c1.1-0.8,2.6-0.6,3.5,0.4c0.4,0.5,0.6,1.2,0.5,1.8c-0.1,0.7-0.4,1.3-0.9,1.7l-0.1,0.1c-3.1,2.4-19.8,14.4-38,14.6
		c-4.2,0.1-8.6,0-12.9-0.1l-0.7,0c-14.4-0.2-29.3-0.4-34.2,4.1c-3.3,3-6.3,8.9-5.4,14.4c0,0.3,0,0.6,0.1,1c0.9,3.8,3.6,6.4,8.1,7.8
		c2,0.6,5,0.9,8.8,0.9c21.8,0,69.1-9.5,89.7-22c24.6-15.1,51.7-32.8,65.9-49.7c1.1-1.3,2.2-2.5,3.2-3.8l0.1-0.2
		c0.1-0.1,0.2-0.3,0.3-0.4c0-0.1,0.1-0.1,0.2-0.3c4.4-5.3,7.2-8.8,10.2-9.3l0.8-0.1l0-0.8C993,333.5,985.8,325.9,981.4,323.8z
		 M953.8,336.5c0,0.8-0.6,1.4-1.4,1.5l-0.1,0c-2.3,0.5-22.7,5.5-30.7,24c-0.2,0.6-0.8,0.9-1.4,0.9c-0.1,0-0.3,0-0.6-0.1
		c-0.8-0.4-1.1-1.3-0.8-2.1c8.5-19.8,31.2-25.7,33.4-25.7C953.1,335,953.8,335.6,953.8,336.5z"/>
	<path fill="#FCD9CA" d="M436,256.5c-4.8-3.8-11.9-5-21.7-3.8c-0.4,0.1-0.9,0.1-1.3,0.2c-0.4,0.1-0.8,0.1-1.2,0.2
		c-21,3.4-50.6,39.9-50.8,40.3c-0.8,1.1-2.4,1.2-3.5,0.3c-1.1-0.8-1.2-2.4-0.3-3.5c3.2-3.9,31.9-38.6,53.8-42.1l0.3-0.1l0.5,0
		l14.6-35.4l-2.3,1c-10,4.5-35.1,16.5-50.7,31.7c-13.3,13-45.2,76.6-45.5,77.3c-0.3,0.8-1.1,1.2-2,1.3c-6.7,0.4-11.4,0.8-13.9,1.1
		l-1,0.1l0.2,1c0.8,4.9,1.4,10.5,1.9,16.5c0.3,3.1,0.8,9.4,0.9,16.3l0,0.8l0.7,0.2c2.2,0.6,6.4,1.6,9.4,2.2l0.2,0l0.2,0
		c31.1-6.1,43.8-16,48.9-23.3l0.1-0.3c0.7-2.2,1.5-4.3,2.3-6.6l1.4-3.9l-1.5,0.1c-2.5,0.2-4.1,0.3-4.8,0.4l-0.5,0
		c-1.3,0-2.4-1-2.5-2.3c-0.2-1.5,1.1-2.6,2.3-2.7c0.1,0,0.2,0,0.4,0c1.2-0.1,4.7-0.3,9.7-0.6c4.3-0.3,15.7-1,29.2-1.1
		c7-0.1,14.3-3.9,20.5-10.6c9-9.7,14.5-24.1,13.7-35.7C443.2,266.3,440.6,260.1,436,256.5z M428.1,293.5L428.1,293.5
		c-0.1,0.6-0.5,1.1-1.2,1.2c-4.2,1-9.2,1.9-13.4,2.4c-1.9,0.3-3.6,0.4-5.1,0.4c-2.8,0-3.4-0.6-3.9-1.1c-0.3-0.5-1-1.6,1.2-15.8
		c1.8-12.3,2.9-15.4,3.4-16c0.2-0.3,0.5-0.6,0.9-0.6c7.2-1.6,11.6-2.2,14.3-2.2c2.3,0,3.4,0.4,3.9,0.7c0.5,0.3,0.9,0.9,0.9,1.5
		C429.6,266.7,429.5,286.1,428.1,293.5z"/>
</g>
<path fill="none" stroke="#000000" stroke-width="7" stroke-linecap="round" stroke-linejoin="round" stroke-miterlimit="10" d="
	M95.8,330.7c2.5-0.8,210.3-12.7,210.3-12.7c2-2.2,7.9,45.8,3.8,57.8"/>
<path fill="none" stroke="#000000" stroke-width="7" stroke-linecap="round" stroke-linejoin="round" stroke-miterlimit="10" d="
	M309.9,375.8c0,0-208.3,19.5-209,19.5"/>
<path fill="none" stroke="#000000" stroke-width="7" stroke-linecap="round" stroke-linejoin="round" stroke-miterlimit="10" d="
	M309,323.1c2.3-0.8,16.6-1.6,16.6-1.6s32.3-64.6,46-78c21-20.3,58.3-35.3,59.1-35.3"/>
<path fill="none" stroke="#000000" stroke-width="7" stroke-linecap="round" stroke-linejoin="round" stroke-miterlimit="10" d="
	M359,291.7c0,0,30.2-37.6,52.3-41.2c22.1-3.6,33.6,3.8,35,24.8s-16,48.8-36.7,49.1c-20.7,0.3-39.2,1.7-39.2,1.7"/>
<path fill="none" stroke="#000000" stroke-width="7" stroke-linecap="round" stroke-linejoin="round" stroke-miterlimit="10" d="
	M312.2,366.9c-0.8-0.3,49.5-4.8,63.9-27.7"/>
<path fill="none" stroke="#000000" stroke-width="7" stroke-linecap="round" stroke-linejoin="round" stroke-miterlimit="10" d="
	M312.2,362.1c1.8,0.6,11.2,2.6,11.2,2.6s-9.9-1-10.2-0.9"/>
<path fill="none" stroke="#000000" stroke-width="7" stroke-linecap="round" stroke-linejoin="round" stroke-miterlimit="10" d="
	M413.8,249.7l70.5-171.4c0,0,108.3-20.9,381.2,43.6c6.6,1.5-137,421.5-137,421.5s-334.9-76.6-397.7-70.7"/>
<path fill="none" stroke="#000000" stroke-width="7" stroke-linecap="round" stroke-linejoin="round" stroke-miterlimit="10" d="
	M380.5,326.1c0,0-50.9,143.4-50.9,144s1.7,15.9,10.2,20.6c8.5,4.8,397.5,87.4,402,82.1C746.6,560.3,877,163.9,877,163.9l-7.5-2.8"/>
<path fill="none" stroke="#000000" stroke-width="7" stroke-linecap="round" stroke-linejoin="round" stroke-miterlimit="10" d="
	M864.2,137.7c0,0,11.1,0.6,10.5,2.6S736.5,561,732.4,560.1c-207.5-45.6-319.6-67.6-398.5-79.5"/>
<path fill="none" stroke="#000000" stroke-width="5" stroke-linecap="round" stroke-linejoin="round" stroke-miterlimit="10" d="
	M410.4,265.3c0,0,17-3.8,17.3-1.2s0.3,22-1.1,29.1c-8.3,2-19.9,3.5-20.7,2.2C405.1,294.2,408.9,267.5,410.4,265.3"/>
<path fill="none" stroke="#000000" stroke-width="7" stroke-linecap="round" stroke-linejoin="round" stroke-miterlimit="10" d="
	M1228.8,323.8c0,0-224.7,58.2-227.2,58.8c-13.8,3.1-18.5-8.8-18.5-8.8"/>
<path fill="none" stroke="#000000" stroke-width="7" stroke-linecap="round" stroke-linejoin="round" stroke-miterlimit="10" d="
	M970.6,319.3c0,0,1.4-4.8,7.4-6.6c9.7-3,226.4-63.5,226.4-63.5"/>
<path fill="none" stroke="#000000" stroke-width="7" stroke-linecap="round" stroke-linejoin="round" stroke-miterlimit="10" d="
	M994,370.7c0.2-1.4,5.2-42.7-12.4-49.5c-9.5,0.8-17.8,0.2-20.2-1.9c-2.5-2.1-14.7-18.2-28.9-25.4c-5.4-4.4-5.2-14.7-4-22
	c1.2-7.2,5.2-29.8-5.5-36.1s-34.2-5.5-39.8,25.2s15.6,36.3,19.7,51.1c-6.9,11.9-41.5,37.9-54.7,40.4c-7.8,1.4-20.4,3.2-31.5,5.3"/>
<path fill="none" stroke="#000000" stroke-width="7" stroke-linecap="round" stroke-linejoin="round" stroke-miterlimit="10" d="
	M868.8,360c0,0,3.9,4.5,3.7,4.4c-0.2-0.2-27.2,14.2-47.3,14.7c-5.6,0.2-11.2,0.8-16.5,1.6"/>
<path fill="none" stroke="#000000" stroke-width="7" stroke-linecap="round" stroke-linejoin="round" stroke-miterlimit="10" d="
	M792.5,433.6c3.7,3.3,6.2,4.6,9.1,4.5"/>
<path fill="none" stroke="#000000" stroke-width="7" stroke-linecap="round" stroke-linejoin="round" stroke-miterlimit="10" d="
	M886.8,377.3l3.2,3.3c0,0-37.7,21.2-57.4,21.2c-11.4,0-21.4-2-29.9-1.1"/>
<path fill="none" stroke="#000000" stroke-width="7" stroke-linecap="round" stroke-linejoin="round" stroke-miterlimit="10" d="
	M894.3,402.6c0,0-17.5,13.9-36.5,14.2c-19,0.2-42.1-2.2-49.4,4.6c-7.2,6.8-10.9,22.9,3.8,27.4c14.7,4.6,76.5-6.6,100.6-21.3
	c24-14.7,51.8-32.7,66.5-50.2c5.9-7,10.3-13.3,12.9-13.2"/>
<path fill="none" stroke="#000000" stroke-width="5.0971" stroke-linecap="round" stroke-linejoin="round" stroke-miterlimit="10" d="
	M952.3,336.4c-0.8,0-23.5,5.2-31.9,24.8"/>
<path fill="none" stroke="#000000" stroke-width="10" stroke-linecap="round" stroke-linejoin="round" stroke-miterlimit="10" d="
	M586.3,145.3c47.7,18.6,19.9,93.6-36.7,83.2C497.1,214.1,524.3,128.2,586.3,145.3z"/>
<path fill="none" stroke="#000000" stroke-width="10" stroke-linecap="round" stroke-linejoin="round" stroke-miterlimit="10" d="
	M464.8,276.2c0,0,24.6-43.7,65.4-46.8c40.7-3.1,62.3,13.8,71.7,33.8c9.4,20.1,5.5,34.4,5.5,34.4"/>
<path fill="none" stroke="#000000" stroke-width="10" stroke-linecap="round" stroke-linejoin="round" stroke-miterlimit="10" d="
	M709.9,192.9c0,0,26.8-17.1,44.5-7.6s23.3,30.6,14.8,48.4s-36.3,30.8-54.1,42.4S679,299.9,679,299.9s-37.5-62.8-38.5-64.4
	s-16.3-25,6.5-47.9C669.8,164.7,703.2,175,709.9,192.9z"/>
<path fill="none" stroke="#000000" stroke-width="20" stroke-linecap="round" stroke-linejoin="round" stroke-miterlimit="10" stroke-opacity="0" d="
	M323.4,321.5l-5.6,5.7v14.7l62.1-101.1l18.4-10.5L320,355l1,5.4l14.6-7.4l79.7-134.2l9.2-4.3c0,0-74.5,137.5-73.6,137.2
	s18.9-12.5,18.9-12.5s43.8-87.8,47-87.8s9.4-1.4,9.4-1.4l-31,68c0,0,6.4,3.1,7.9,3.1c1.6,0,28.5-68,32.2-63.7
	c3.7,4.3,5.6,8.4,5.6,8.4l-26.2,55.8l11.7-3.6l16.3-42.3"/>
<path fill="none" stroke="#000000" stroke-width="20" stroke-linecap="round" stroke-linejoin="round" stroke-miterlimit="10" stroke-opacity="0" d="
	M95.8,339.7c0,0,203.2-18.6,203.9-16.6s3,8.3,3,8.3s-203.1,21.2-204,21.7s-3.6,12.4-2.9,11.6s205.7-24.4,206.9-20.9s0,11.2,0,11.2
	l-201.8,22.3l4.4,9.5l200-17.8"/>
<path fill="none" stroke="#000000" stroke-width="20" stroke-linecap="round" stroke-linejoin="round" stroke-miterlimit="10" stroke-opacity="0" d="
	M917.7,230.9L890,263.6c0,0,1.9,18,2.1,14.7c0.2-3.4,29.6-41.1,29.6-41.1l4.2,10c0,0-30.7,52.5-30.6,52.7s3,9.8,4.6,9.3
	s28.3-36.1,28.3-36.1v18.3c0,0-107.8,70.4-108.4,72.7c-0.6,2.2-4.9,13.2-4.9,13.2s125.3-74.1,126.3-73.2s4.3,5.1,4.3,5.1
	s-132.7,74.5-133,78.2s-3.9,14.4-3.9,14.4s142.4-79.3,142.4-78s8.6,7.1,8.6,7.1s-155,78-155.3,82.5c-0.3,4.6-1.6,15.3-1.6,15.3
	l167.9-98.9l10.4,1.4l2.1,8.3L812.9,441h13.5l156.8-92l1.3,9.4l-140.6,82.5c0,0,19.3-3.5,20.5-2.8s106.4-58.4,106.4-58.4
	s-56.3,44.7-58.7,44.1s-8.8,4.7-10.4,5.4"/>
<path fill="none" stroke="#000000" stroke-width="20" stroke-linecap="round" stroke-linejoin="round" stroke-miterlimit="10" stroke-opacity="0" d="
	M1206.7,256.6c-0.6,3.1-229.3,60.8-227.2,62.7c2.1,1.9,11.8,9.4,11.8,9.4s221.9-68.6,224.2-63.4c2.3,5.2,4.2,10.5,4.2,10.5
	S997,339.3,997.3,341.2s0.9,7.7,0.9,7.7s229.7-65.2,229.1-62.7s-3.9,11-3.9,11s-221.4,61.1-225.1,65.1c-3.7,3.9-8,6-7.6,8.1
	s230.5-60.6,230.5-60.6l-9.8,11.6c0,0-219.2,58.3-216.4,58.3"/>
<path fill="none" stroke="#000000" stroke-width="20" stroke-linecap="round" stroke-linejoin="round" stroke-miterlimit="10" stroke-opacity="0" d="
	M703.8,200c0,0-10.8-21.9-34.3-15s-29.7,25.7-24.9,35.3c4.7,9.6,39.3,65.4,39.7,65c0.5-0.5,66.8-41.7,76.4-57.2
	c9.6-15.4-9.5-35.6-24.3-33.6s-28.9,7.9-29.4,8.3s-28.1-7.2-37.6-2.9S655.8,213,655.8,213l34.1,51.1c0,0,67.6-36.2,65.3-46.5
	c-2.3-10.2-44.3-2.4-48.6-1.4s-32.3-7.2-32.7-3.7c0,0,18.3,35.8,20.8,34.1c2.4-1.7,42.3-24.5,40.7-23.8s-30.3,8.7-30.3,8.7
	l-17.4-7.6c0,0,8.1,10.1,9.3,9.8"/>
<path fill="none" stroke="#000000" stroke-width="20" stroke-linecap="round" stroke-linejoin="round" stroke-miterlimit="10" stroke-opacity="0" d="
	M334.3,476l214.4,34.8l178.9,38.5l137.3-408l2.2,33.1L730.6,568.7c0,0-279.9-56-284.3-57c-4.4-1-102.2-23.2-102.2-23.2"/>
</svg>
