<?xml version="1.0" encoding="utf-8"?>
<!-- Generator: Adobe Illustrator 19.1.0, SVG Export Plug-In . SVG Version: 6.00 Build 0)  -->
<svg version="1.1" id="Layer_1" xmlns="http://www.w3.org/2000/svg" xmlns:xlink="http://www.w3.org/1999/xlink" x="0px" y="0px"
	 width="480px" height="640px" viewBox="0 0 480 640" enable-background="new 0 0 480 640" xml:space="preserve">
<g id="Layer_2">
	<path fill="#51514F" d="M196.1,111.7c0,0.1-0.1,0.1-0.1,0.2c-0.1,0-0.2,0-0.3,0c-1.2,0.3-2.3,2.2-3.2,3c-0.8,0.7-1.5,1.5-2.3,2.3
		c-0.2,0-0.4,0-0.5,0.2c-1.4,1.1-2.5,2.8-3.5,4.2c-1.2,1.6-2.2,3.1-2.9,5c-0.1,0.3-0.2,0.6-0.3,0.8c-1.1,1.6-2.1,3.2-2.4,4.8
		c-0.1,0.3-0.6,0.9-0.3,1.1c-0.6,1.5-0.8,1.5-1.3,3c0,0-0.3,1.2-0.3,1.3c-1.3,1.2-1.1,4.1,0.5,5.2c0.3,0.2,1.7,0.6,2,0.7
		c1.4,0.5,2.7,0.5,4,0.3c0.2,0.4,0.6,0.3,1.2,0.2c7.3-2,7.4-5,7.8-6.5c0-0.1,0-0.2,0-0.3c0.1-0.1,0.2-0.2,0.2-0.3c0,0,0,0,0-0.1
		c0.3-0.1,0.5-0.3,0.5-0.6s0.1-0.6,0.1-0.8c0.1-0.1,0.1-0.1,0.1-0.2c0.4-1.2,0.5-2.6,0.5-4c0.1-0.6,0.2-1.2,0.2-1.8
		c0.1-0.1,0.3-0.3,0.3-0.5c0-1.6,0.4-3.3,0.2-4.9c0-0.1-0.1-0.2-0.1-0.2c0.1-1.5,0.2-3,0.4-4.5c0.2-1,0.3-2.1,0.3-3.1
		c0-1.4,0.4-2.8,0.5-4.2C197.5,111.1,196.3,111,196.1,111.7z"/>
	<path fill="#51514F" d="M391.9,200.1c-1,0.4-9.3-2.7-9.6-3.1c-0.4-0.7-0.6-1.4-1-2c-0.8-1.5-0.5-2.6-1.6-3.9
		c-0.1-0.5-0.3-1.6-0.4-2.1c0.7-2.3,0-4.6-0.8-6.7c-0.3-0.8-1.3-0.6-1.5,0l0,0c-0.1,0.2-0.2,0.4-0.2,0.6c0,0-0.1,0-0.1,0.1
		c-3.6,2.8-7,7.2-9.7,10.8c-0.9,1.2-1.8,2.5-2.7,3.9c-3.8,3.8-8,7.3-10.9,11.8c-0.3,0.5-0.4,0.9-0.4,1.4c-0.7,0.6-1.3,1.3-2,2
		c-1.1,1.1-2.4,2.2-3.6,3.2c-0.6-3.3-1.2-6.6-2-9.9c-0.7-3-0.6-5.9-0.9-9v-0.1c0.4-3.3-0.2-6.9-0.7-10.2c-0.3-2.4-0.4-5-0.8-7.4
		c0.1-0.4,0.3-0.8,0.4-1.2c0.8-2.8,0.4-5.7,0.6-8.6c0.2-2.3,0.5-4.4,0.5-6.7c-0.1-4.9-0.6-9.5-1.9-14.3c-1-3.8-3-7.5-4.9-10.9
		c-1-1.7-1.9-3.4-3-5c-0.3-0.4-0.5-0.7-0.8-1.1c-0.2-0.6-0.5-1.1-1-1.6c-1.2-1.1-2.3-2.3-3.6-3.3c-0.8-0.9-2-1.4-3.2-1.4
		c-0.2-0.2-0.4-0.3-0.7-0.4c-2.2-1.4-5.6-2.6-7.9-3.8c-4.3-2.2-13.2-6.2-13.9-5.8c-1.7-0.8-4.3,0.8-3.5,2.8c0.5,1.1,1,2.3,1.6,3.4
		c0.4,1.3,0.6,2.9,0.9,3.7v0.1c-2.1-2.8-4.2-5.6-6-8.6c-0.2-0.3-0.5-0.5-0.8-0.6c-0.5-1.7-1.1-3.3-2-4.7c-0.2-0.4-0.9-0.5-1.1,0
		c-2.2,5.1,0.3,11.6,1.8,16.7c0.1,0.4-0.9,0.9-0.8,1.2c-0.2,0.1-0.3,0.1-0.5,0.2c-0.8-0.7-1.6-1.4-2.4-2c-0.9-0.7-2-1.5-2-1.5
		c-0.2-0.2-0.8-0.8-1-1c-0.1-0.8-1-0.8-1.2-1.5c-0.3-1-1.8-1-2.1,0c-0.4,1.6-0.7,3.4,0,4.9c-0.5,2.2-1.3,4.5-1.8,6.2
		c-0.9,3-1.2,6.2-2.1,9.1c-1,3.2-2.1,5.8-3.5,8.7c-0.1,0.3-0.3,0.6-0.4,0.9c0,0,0-0.1-0.1-0.1c-0.6-0.8-1.7-0.3-2.1,0.3
		c-1.7,2.3-3.8,4.9-4.9,7.6c-1,2.4-1.2,4.9-1.8,7.3c-1.5,5.8-3.9,11.2-4.7,17.2c-0.9,6.8-0.9,13.5-3.5,20c-1.7,4.2-3.1,8.2-5.3,13.4
		c-0.4,0.5-0.7,0.9-1.1,1.4c-3.2,4-6.1,8.1-9.4,12c-1.8,2.2-3.6,4.3-5.5,6.5c-0.5-1.7-1.1-3.4-1.9-5c-0.6-2.6-0.2-5.4-1.1-8
		c-1.4-4.5-3.7-8.4-5.6-12.7c-0.8-1.8-1.5-3.6-2.1-5.5c0.4-0.5-1.2-2.2-1.2-3c-0.3-5.2-0.8-9.7-2.3-15c0-0.9,0-1.8,0.1-2.6
		c0.3-6,1.3-11.9,1.1-17.9c-0.2-6.1-1.2-11.8-0.5-17.9c0.2-1.5,0.1-3.1,0-4.6c1.4-3.9-0.5-7.7-1.4-11.8c-0.4-1.7-2.4-2.5-3.9-1.9
		c-0.3-0.6-0.6-1.1-1-1.6s-1-0.7-1.5-0.7c-0.4-0.9-0.9-1.8-1.4-2.7c-0.6-1.1-2.4-0.6-2.4,0.7c0,8.1-1.5,16.7-2.9,24.7
		c-0.1,0.7-0.3,1.5-0.5,2.2c-0.3,0.4-0.6,0.9-0.8,1.5c-0.1,0.4-0.2,0.9-0.3,1.3c-1.1,0.3-2.2,0.9-2.7,1.9c-0.9,1.5-1.1,3.5-1,5.5
		c-1.2,2.3-1.8,4.3-1.8,7.4c0,0.9,0,1.7,0.1,2.6c-0.4-0.6-0.9-1-1.6-1.1c-0.1,0-0.2,0-0.3,0c-0.3-1.1-0.5-2.3-0.7-3.3
		c-0.9-5-0.5-11.6-2.5-16.2c-0.2-0.4-0.8-0.5-1.1-0.3c-1.1,0.6-1.9,1.5-2.9,2.2c-0.3-0.1-0.6-0.1-0.9-0.1c-2.3,0.4-4.4,1.8-6.8,2.1
		c-0.8,0.1-1.3,0.1-1.8,0.2c-0.5-0.4-1-0.6-1.6-0.6c-0.7,0-1.5-0.1-2.3-0.3c1.8-1.3,5.2-1.1,5.2-4c0-0.8-0.7-1.3-1.4-1.1
		c-0.1,0.1-0.3,0.3-0.4,0.4c0,0,0-0.1-0.1-0.1s-0.1,0.1-0.2,0.1c-0.2-0.7-0.9-1.3-1.6-1.4c-1.5-0.3-2.5-1.3-3.9-1.9
		c-0.5-0.2-1-0.2-1.5,0v-0.1c-0.2-1.1-1.7-0.9-2,0c-0.1,0.4-0.2,0.9-0.2,1.3c-0.8,4.4-2.9,8.3-4.2,12.6c-1.2,3.7-2,7.5-3.1,11.3
		c-1.5,5-2.8,9.7-5.3,14.4c-0.4,0.7-0.7,1.5-1.1,2.2c-2-2-3.9-4-5.6-6.2c-1.9-2.4-4.2-4.4-6.3-6.7c-1.9-2.1-3.4-4.3-5.7-6
		c-2-1.4-4.3-2.7-6.3-4c-1.4-0.9-6.2-3.1-6.2-3.3c-0.4-1.3-2.3-0.8-2.1,0.6c0.9,5.2,0.3,9.5-3.2,13.9c-1.7,2.1-5.2,4.1-6,6.8
		c-1.2,0.5-5.4,1.7-6.1,2.2c-0.4,0.3-0.4,0.8,0,1.1c0.6,0.3,0.9,1,1.5,1.3l0,0c-0.1,1.6,0.9,2.4,2.2,3.3c0.9,2.2,2.6,3.2,4.2,4.8
		c0.7,0.7,1.5,1.4,2.3,2.1c0.4,1,0.8,2,1.5,2.8c0.6,0.7,1.3,1.5,2.2,2.2c1.3,2.2,2.6,4.4,4.1,6.3c1.6,2.1,3.6,3.7,5,5.8
		c1.6,2.3,3.2,3.1,5.3,4.7c2,1.5,3.7,3.6,5.7,5.2c1.1,0.8,2.4,1.6,3.9,2.2c3.2,2.8,7.2,5.1,11.2,6.2c5.8,1.5,11.3-1.4,15.6-5.1
		c4.8-4.2,9.9-8.1,14.3-12.6c0.2-0.2,0.4-0.4,0.6-0.7c0,0.2,0.1,0.5,0.1,0.7c-0.1,1.6-0.5,3.4-0.6,4.9c0,1.4,0,2.8,0,4.2
		c-0.2,0.5-0.3,1-0.5,1.5c-0.3,0.4-0.5,0.9-0.5,1.4c0,0.4-0.1,0.8-0.2,1.1c0,0.1,0,0.2,0,0.2c-0.4,2-1,4-1.5,6.1
		c-0.5,1.3-0.9,2.6-1.3,3.8c-1.2,3.7-2.5,7.4-4,11c-1.1,2.7-2.5,5.2-3.5,8c-0.5,1.4-0.8,2.7-1,4.1c-0.6,0.8-1.4,1.6-1.9,2.4
		c-1.1,1.7-1.9,3.6-2.7,5.5c-1.3,3.5-3.2,7.2-3.1,11.1c0,0.3,0.1,0.6,0.2,0.9c-0.3,1.1-0.6,2.2-0.9,3.4c-0.5,1.4-1,2.9-1.4,4.3
		c-0.4,0.8-0.7,1.6-0.7,2.5l0,0c-0.3,1.2-0.5,2.7-0.7,4.3c-0.6,0.4-1,0.9-1.3,1.7c-5.4,15.2-7.8,31.1-12,46.6
		c-0.8,3-1.4,5.1,1.3,7.1c2.3,1.7,5.3,3.1,7.8,4.2c0.5,0.2,0.9,0.4,1.4,0.6c1.2,1.1,2.7,2,4.2,2.8c-1.1,2.8-1.8,5.9-2.2,9
		c-1.3,3.1-2.7,6.2-3.4,9.2c-1,4-2.2,7.9-2.5,12c-0.3,3.9-1.7,7.5-2.2,11.5c-0.7,6.6-1.9,11.1-2.6,16.9v0.1c-1.4,5-3.6,9.8-4.2,15
		c-0.5,4.1-0.2,7.9-1.2,11.9c-0.7,2.8-1.2,7.4-1.6,9.4c-0.4,2-1.5,6.3-2.2,9.2c-0.5,2.1-0.5,4-0.4,6c-0.1,0.2-0.1,0.3-0.2,0.5
		c-1.3,5.4-1.4,11.8-2.8,17.1c-1,3.9-1,5.2-1.1,11.2c-0.4,5.7-2,11.7-1.8,17.5c-0.4,0.3-0.5,3.1-0.5,3.6c0.1,3.7-0.4,4-1,8.9
		c-0.2,1.7,0.1,4.6,0.7,7.1c-0.1,0.7-0.1,1.5-0.2,2.2c-0.4,5-1.2,10-0.9,15c0.2,3.7-0.3,8.2,1.2,11.7c0.1,0.2,0.2,0.4,0.3,0.5
		c0.1,0.4,0.4,0.8,0.7,1c2.3,1.7,5.4,1.5,8.1,2.1c4,0.9,7.5,2,11.6,2.3c0.8,0.1,14.7-0.2,15.1-0.5c0.3-0.3,1.4-1.3,0.9-1
		c0.4-0.2,0.7-0.5,1-0.8c1.7-1.1,3-2.5,3.7-4.5c1.2-3.3,0.8-6.6,0.2-10s0.5-17,1-20.3c0.5-3.5,1.4-18.8,1.5-19.8
		c0.5-6.6,1-13.4,2-20c0.1-0.5,0.2-1.1,0.3-1.7c0.3-0.4,0.5-0.9,0.7-1.4c0.7-2.5,1.2-5.3,1.6-8.1c0.4-0.6,0.6-1.4,0.7-2.2
		c0.3-2.7,0.9-5.3,1.3-8c0.8-3.2,1.7-6.4,2.4-9.8c1-4.6,1.8-9.2,2.6-13.8c2.7-3.2,3.4-9,4.2-12.6c1-4.5,2.1-9,2.6-13.5
		c0.5-0.5,0.9-1.1,1.1-1.7c1-3,2.6-4.9,2.1-8c0.8-2.4,1.1-5.3,1.8-7.7c1.8-5.6,3.4-11.1,4.8-16.8c0.6-2.4,1.2-4.9,1.9-7.4
		c2.5-6.5,5.5-12.7,7.9-19.3c2.3-6.6,4-13.3,6.3-19.9c1.4-4,2.6-8,3.8-12.1c0.4-1.5,1-3.1,1.4-4.7c0.3,0,0.5,0.1,0.8,0.1
		c0.4,0.2,0.9,0.3,1.3,0.4c0.3,5.4,1,10.8,1.9,16.1c1.2,7.3,1.2,14.9,1.6,22.4c0.4,7.8,1.1,15.6,1.6,23.3c0.2,2.7,0.1,5.4,0.1,8
		c0.2,2.2,0.4,4.4,0.5,6.5c0.2,2.3,0.4,4.6,0.6,6.9c0.2,0.8,0.4,1.6,0.6,2.4c-0.1,0.3-0.1,0.7-0.2,1.1c0,0.1,0,0.1,0,0.2
		c0.4,2.5,0.8,5,1.1,7.5c0.7,5.4,1.1,10.9,1.4,16.3c0.2,0,0.4,0.1,0.5,0.3c0.4,2,0.5,4.1,0.5,6.1c0.2,2.1,0.3,4.1,0.5,6.2
		c0.2,0.7,0.5,1.4,0.8,2c0.2,1.2,0.3,2.4,0.4,3.6c0.2,3,0.7,7.3,1,10.3c0.3,4.7,0.4,8.2,1.1,12.8c1.5,9.8,1.8,19.4,3.6,29.2
		c1.8,9.9,2.3,20.7,4.3,30.7c0.9,4.6,1.8,9.4,2.5,14c0.4,2.6,0.7,4.3,1.3,6.9c0.6,2.4,0.3,4.6,1.7,6.7c1.1,1.7,2.5,2.8,4.1,2.2
		c2.3,0.7,4.8,0.5,7.1,0.4c2.2-0.1,4.5-0.4,6.7-0.5c2.8-0.1,5.4,0.6,8.2,0.6c5.1,0,9.8-0.4,14.9-1c1.7-0.2,3.4-0.2,5-0.4
		c1.1,0.5,2.5,0.6,3.7-0.3c2.2-1.6,3.4-2.9,3.5-5.7c0-0.4-0.1-0.8-0.2-1.2c0.4-3.4,0-7.1-0.5-9.9c-0.9-5.2-1.3-10.5-1.9-15.7
		c-0.4-3.4-1.1-6.8-1.8-10.1c0-1.4-0.1-2.8-0.1-4.1c-0.1-5.7-1-11.4-1.5-17c-0.5-5.2-1.7-10.4-2.1-15.6c-0.3-5-0.5-10.6-1.5-15.7
		c-0.1-3.9-0.3-7.8-0.7-11.6c-0.3-2.7-0.7-5.4-1-8.2c-0.1-1.1-0.2-2.2-0.4-3.3c-0.2-1.4-0.3-2.8-0.4-4.2c-0.3-3.1-0.1-6.2-0.5-9.2
		c-0.4-3.4-1.6-6.9-1.5-10.4c0-0.6-0.1-1.1-0.3-1.6c-1.3-16.6-2.1-33.4-2.2-50c5.2-0.8,10.9-3.5,14.9-6.6c5.8-4.5,3.9-13.6,3.1-19.9
		c-0.8-6-1-12.2-1.9-18.3c0.2-2.5,0.2-5.1-0.2-7.6c-0.9-6-3.9-11.6-4.7-17.7c-0.1-0.4-0.2-0.8-0.4-1.2c0-0.2,0-0.5-0.1-0.7
		c-0.1-0.5-0.2-1-0.3-1.6c-1-4.7-2.9-9.2-3.7-14c-1.1-6.4-3.2-11.4-5.2-17.5c-1.7-5.2-4.3-11.5-5-16.9c-0.3-2.6-0.6-4.6-0.7-7.2
		c0.4-0.5,0-1.8,0.3-2.5c0.5-1.4,0.9-2.9,0.9-5.4c1.2-1.2,2.4-3.6,3.4-5.1c1.3-1.9,3.5-4.2,4.6-6.1c2.7-4.7,4.5-8.8,7.6-13.2
		c1,2.7,2.6,5.5,4.3,7.9c0.8,1.8,1.6,3.7,2.5,5.5c0.5,1.5,1.2,2.9,1.9,4.4c1.4,3.5,2.8,7.1,4.9,10.2c0.1,0.2,0.3,0.4,0.4,0.5
		c0.3,0.4,0.5,0.8,0.8,1.1c0.4,0.6,0.8,1.3,1.3,1.9c1.5,2.3,2.8,4.5,4.3,6.8c2.2,3.5,5.3,7.5,9,9.5c1.1,0.6,2.3,0.6,3.4,0.3
		c4,0,7.5-5.7,9.6-8.3c4-5,7.6-10.1,11.4-15.4c3.6-5,7-10.2,10.6-15.3c1.6-2.2,3.8-4.8,5.7-7.4c1.6-1.4,2.8-3.3,3.9-5.2
		c1.9-1.9,4.1-4.1,4.8-6.6c0.1-0.3,3.8-5,3.8-5.2C395.3,199.4,392.7,199.8,391.9,200.1z M234.5,299.8c-2.5-0.4-6.8,0.4-8.6-0.9l0,0
		c-0.3-0.1-0.5-0.3-0.9-0.4h-0.1c0-0.3,0-0.6,0-0.8c0.5-0.7,0.8-1.5,0.9-2.5c0-0.4,0.1-0.9,0.2-1.3c0.1-0.2,0.2-0.5,0.3-0.9
		c0.4-1.1,0.9-2.1,1.2-3.2c0.7-2.3,1.7-4.6,2.3-6.9c0.5-2,0.6-4,1.1-6c0.5-2.2,1.5-4.2,1.9-6.4c0.5-2.9,1.5-5.7,2.5-8.5
		c0.1,5,1.1,10.2,1.8,15.2c0.9,6.8,2.2,13.6,2.4,20.5c0,1.1,0,2.2,0.1,3.3C237.9,300.7,236.3,300.1,234.5,299.8z"/>
	<path fill="#B5E3F7" d="M285.9,122.3c0-0.2-1.2-0.8-1.2-1c-0.1-0.8-0.6-1.2-1.2-1.4c0-0.2,0-0.5-0.1-0.8c-0.3-1.9-1.2-3.9-1.8-5.8
		c-0.5-1.6-0.8-3.6-2-4.7c-0.8,0.2-1.1,0.2-1.8,0.4c-0.8,1.6-1.7,3.1-2.8,4.5c-0.4,0.8-0.8,1.5-1.3,2.1c-0.1,0.2-0.2,0.4-0.2,0.6
		c0,0.3,0,0.6,0,0.9s-0.1,0.5-0.3,0.7c-1.1,1.1-2.2,2.1-3.5,3.1c-1.4,1-2.8,2.1-4.1,3.1c-0.1,0.1-0.3,0.2-0.5,0.2
		c-1.3,0.2-2.7,0.6-3.9,1.2c-6,2.5-6.2,8.5-6.9,14.1c-0.9,7.1-3.1,13.8-5.1,20.7c-0.9,3.2-1.9,6.5-2.8,9.7c-0.2,0.8-0.4,1.6-0.6,2.4
		c0,0.1,0,0.1-0.1,0.2c-0.4,0.9-0.7,1.8-0.9,2.8c0,0.1-0.1,0.2-0.2,0.3c-0.5,0.7-0.9,1.4-1.3,2.1c-0.1-1.3-0.3-2.5-0.5-3.7
		c0-0.2,0-0.4,0.1-0.5c0.1-0.3,0.2-0.6,0.2-1c-0.1-1.5-0.2-3.1-0.3-4.6v-0.1c0.2-3.2-0.2-6.4-0.6-9.6c0.1-0.8,0.3-2.1,0.5-2.9
		c0.2-0.5,0.2-1.1,0-1.7c-0.9-2.5-1.1-5.2-1.9-7.7c0-0.1-0.1-0.2-0.1-0.3c0-1-0.1-1.8-0.4-2.8c-0.1-0.3-0.4-1.1-0.6-1.9
		c0.1-0.2,0.1-0.5,0-0.8c-0.1-0.9-0.2-1.5-0.7-2.3c-0.2-0.4-0.5-0.7-0.8-0.8c-0.2-0.1-0.3-0.2-0.4-0.4c-0.6-1-1.3-2-2.1-2.8
		c-0.3-0.3-1.5-2.3-1.9-2.8c-0.2-0.2-0.7-1.6-0.9-1.7c-0.6-1.6-3.8-12.8-3.8-12.9c-0.3-3.1-3.2-5.2-7-10.8c-0.4-0.6-1.4,0-1.3,0.7
		c1.3,5,3.7,9.1,4.4,14.3c0.2,1.9,0.6,3.8,1.1,5.8l0,0c0,0.5,0,1,0,1.4c0,0.2,0,0.3-0.1,0.5c-0.4,0.9-0.3,1.9-0.3,2.9
		c0.1,2.9-0.6,6.3-0.6,9.3c0,0.4,0.9,0.3,1.1,0.6c0.1,0.1,0.2,0.3,0.2,0.5c0,0.5,0.1,1,0.1,1.5c0,0.1,0,0.1,0,0.2
		c-0.5,5.5-1,10.9-1,16.4c-0.7,9.5-0.3,19.1-0.2,28.7c0.1,8.1,1.2,16.6,4.7,24c1.9,4,2.9,8.1,4.4,12.2c1.2,3.1,1.4,7.1,3.2,10
		l0.1,0.1c-0.1,0.3-0.2,0.6-0.3,0.9c-0.4,1.8,2.5,3.9,3.4,2.1c2-3.6,4.3-5,6.9-8.3l1.3-2.6c1.7-1.6,2-3.8,3-6c0-0.1,0.1-0.1,0.1-0.2
		c0.2-0.3,0.5-0.6,0.7-1c1.7-2.6,3.3-5.3,4.6-8.1c2.5-5.2,3-11.7,3.7-17.3c0.4-3.5,0.8-7,1.1-10.5c0-0.1,0-0.2,0.1-0.2
		c3.2-9.6,4.4-20,10.5-28.4c1-1.4,2.8-3.3,4.2-5.2c0.6-0.3,1-0.8,1.2-1.6c0.1-0.4,0.2-0.9,0.4-1.3c0.1-0.3,0.2-0.6,0.3-0.9
		c1.1-3.5,2.5-6.8,3.1-10.6C282.8,131.4,285.9,122.3,285.9,122.3z"/>
	<path fill="#B5E3F7" d="M239.3,298.4c-0.2-1.7-0.5-3.4-0.7-5.2c0.3-2.9,0.5-6.4-0.5-8.9c-0.2-0.4-0.5-0.8-0.8-1c0-0.7,0-1.3,0-1.9
		c-0.2-4.1,0.2-8.3-1-12.2c-0.1-0.2-0.2-0.4-0.4-0.6c0-0.7,0-1.3,0-2c-0.1-0.8-1.3-1.1-1.5-0.2c-1.7,4.8-2.7,9.7-3.6,14.7
		c-0.9,4.8-3.4,9.6-3.6,14.3c0,0.1,0,0.2,0,0.3c-0.2,0.1-0.4,0.3-0.6,0.4c-0.5,0.3-0.8,1.1-0.4,1.7c1.8,2.4,8,4.1,11.4,3
		c0.6,0.3,1.5,0.1,1.8-0.5C239.7,299.5,239.6,298.9,239.3,298.4z"/>
	<path fill="#B5E3F7" d="M128,165.8c0-0.9-0.7-1.5-1.5-1.7c-0.2-1-0.9-1.6-1.7-1.8c-0.4-0.6-0.9-1.2-1.3-1.6c-1-1.3-3-0.9-3.1,0.8
		c-0.1,3.1-1.1,6.5-1.3,9.7c-0.2,2.7-1.4,4.8-2.2,7.3c-0.5,0.6-0.9,0.2-1.4,0.8c0,0-2.6-0.6-3.8-1.4c-0.9-0.6-1.9,0.2-2,1.2
		c-0.1,1.1-0.1,2,0.2,3c0.2,0.7,0.8,0.9,1.5,0.8c0.4,0,0.6-0.1,0.8-0.1c0.2,0.9,0.5,1.9,1.1,2.5c0.3,0.4,1.8,1.2,1.7,1
		c0.5,0.8,1.9,1.2,2.6,0.3c0.2-0.3,0.4-0.5,0.7-0.7c3.4,0.4,6.8-3.1,8.4-7.7c0.8-1.7,1.1-3.5,1.4-5.2
		C128.6,170.5,128,165.9,128,165.8z"/>
	<path fill="#B5E3F7" d="M403.2,189.4c-2-0.2-4.6-0.5-6.7-0.2l0,0c-0.3-0.3-0.7-0.3-1-0.1c-0.6,0.3-0.7,0.5-1.1,1.1
		c-0.2,0.3-0.2,0.7,0,1c-0.3,0.2-0.5,0.4-0.7,0.6c-0.7,0.3-1.3,0-1.9,0.5c-0.5-0.1-1.3-0.2-1.9-0.3c-1.5-0.6-1.4-0.5-2.5-1.7
		c-0.4-0.5-1.7-1.4-2.1-1.3c-1.2-1.5-2.5-2.4-3.7-3.5c-1.2-1.2-2.9,0.3-2.2,1.7c0.3,0.6-0.3,1.5,0,2.1c0.1,0.5,0.4,2,0.4,2.1
		c-0.6,4,3.9,6.4,7.2,7.7c2.5,1,7.4,1,7.9-1.9c0.2,0,0.4-0.1,0.6-0.1c0.9-0.2,1.7-0.6,2.5-1.1c0.5-0.4,1.1-1.4,1.7-1.5
		c0.9-0.2,1.1-1.3,0.7-1.9c0.5-0.2,1-0.4,1.5-0.5c0.4,0,2.5-0.5,2.9-0.6C406.3,191.2,404.6,189.5,403.2,189.4z"/>
	<path fill="#1B1D1E" d="M179.7,578.4c-0.4-4.2-2.6-4.6-6.3-4.4c-2,0.1-4,0.2-6,0.3c-2.2,0.1-3.6-0.4-5.8-0.7
		c-3.8-0.7-7.4-1.3-11.1-1.8c-2.1-0.2-5.7-1.1-7.7-0.5c-2.2,0.6-2.9,3-4.9,4.2c-0.4,0.2-0.7,0.4-1.1,0.7c-0.2,0.1-0.3,0.1-0.5,0.2
		c-6,3.2-12.1,5.3-18.5,7.3c-2.8,0.9-7.6,2.1-11.5,2.9c-3.7,1-6.9,2.7-6.1,7c0.1,0.4,0.1,1,0.8,1.7c0.8,0.8,1.5,1,2.2,1.2
		c4.1,0.9,8.9,0.2,13.1,0.5c7.9,0.6,15.9,0,23.9-0.2c4.7-0.1,9.1-1.4,13.8-1.6c2.6-0.1,4.4-0.2,6.8-1.3c1.6-0.8,3.2-1.7,4.9-2.2
		c1-0.3,2.9-0.2,2.5-0.9c0.5,1,1.7,1.7,2.8,1.6c3.6-0.2,6.3,2.1,7.9-2.3C180.3,586.5,180.1,582.1,179.7,578.4z"/>
	<path fill="#1B1D1E" d="M334.6,604.8c-3.4-3.3-6.6-6.1-9.9-9.5c-3.7-3.6-7-6.9-10.4-11c-2.7-3.7-6-6.6-8.1-9.8
		c-0.3-0.4-0.6-0.8-1-1c-0.2-0.9-0.8-1.6-1.9-1.9c-0.4-0.1-0.7-0.2-1.1-0.3c-0.5-0.1-1-0.1-1.4,0.1c-1.1-0.2-2.5,0.6-3.7,0.5
		c-2.2-0.3-4.7-0.3-6.9,0c-3.9,0.6-7.2-0.4-11,0.2c-1.8,0.3-2.5,0.6-2.8,2.5c-0.1,0.5-0.1,1-0.1,1.6c-0.6,1.1-1.3,2.3-1.6,3.6
		c-0.7,3.3-0.5,7.5-0.1,10.8c0.4,2.8,1.3,6.2,4.2,7.1c3.3,1,6.7-1.8,9.6,0.5c2.2,1.6,4.4,4.5,6.2,6.6c2.3,2.7,4.8,5.6,7.8,7.4
		c2.8,1.7,5.9,3,8.7,4.8c3.2,2,5.9,3.9,9.8,4.1c1.2,0.1,15.4-1.1,15.8-1c2.4,0.3,4.5-2.3,4.5-4.5C341,611.2,337.5,607.6,334.6,604.8
		z"/>
	<path fill="#F7DAE9" d="M280,69.6c-1.4-10.2-4.9-20.5-10.7-28.9c-0.5-0.8-1.3-1.3-2-1.5c-1.8-2.5-4-3.3-6.6-4.6
		c-2.3-1.2-2.3-2-5.2-2.7c-1-0.3-2.1-0.9-3.1-1.2c-0.5-0.1-1.1-0.2-1.6-0.4c0-0.1,0-0.1-0.1-0.2c-0.7-2-3.2-1.9-4.3,1.1
		c-3.1,8.2-13.1,9.8-16.8,17.4c-1.8,3.7-3.4,7.8-4.3,11.8c-0.8,3.4-1.8,7.6-1.5,11.2c0,0.1,0,0.2,0,0.3c-0.1,1.5-0.1,3-0.1,4.6
		c-0.2,3.5-0.5,7-0.9,10.6c-0.2,1.6-0.2,3-0.4,4.5c-1.4,2-2.7,4.7-2.5,7.2c0,0,0.5,1.9,0.7,2.4c0.4,2.2,1.6,3.2,2.9,4.8
		c1.4,1.8,3.2,5.7,5.7,7.6c-0.5,3.8,0.8,7.9,2.2,11.5c0.3,0.7,0.8,1.5,1.2,2.2c0.2,2.9,2.4,5,4.2,7.2c2.6,3.2,3.9,6.1,4.7,10.2
		c0.8,4.8,1.3,8.7,1.5,13.6c0.2,4.4,1,7.8,0.9,12.1c-0.2,0.9-0.3,1.9,0,2.7c0.4,1.4,2.4,1,2.5-0.3c0.1-1.1,0.2-2.3,0.2-3.4
		c0.3-1,0.7-1.9,0.8-2.5c0.5-1.8,0.8-3.8,1.4-5.6c1.5-4.1,2.7-8.3,3.5-12.6c0.7-3.7,1.1-7.3,1.4-11c0.3-3.2,1.3-9.6,4.6-11.4
		c0.4-0.1,0.8-0.3,1.3-0.5c0.8-0.2,3.1-0.5,3.3-1.2c1.5-0.6,2.7-1.2,4-2c2-1.1,3-2.2,4.7-3.8c2.8-2.7,4.4-5.8,4.8-9.9
		c4.2-2.3,3.2-4.4,3.5-5.9c0.9-5,1.4-11,1.5-16.1C281.2,81.2,280.8,75.6,280,69.6z"/>
	<path fill="#F7DAE9" d="M453.3,176.3c-0.6-0.9-0.8-1.5-1.7-2c-0.9-0.5-4.3,0.6-4.5,0.5c0,0-0.1,0-0.1-0.1c0.7-0.4,1.4-0.9,1.9-1.4
		c1.3-1.3,0.3-3.3-1.4-3.4c-2.1-0.2-4-1-6.1-0.7c-1.8,0.2-3.6,1-5.4,1.2c-1.4,0.2-6.6-0.3-8.3,0c-0.4-0.5-2.6,0.5-3.3,0.4
		c-2.6-0.4-9.8-1.3-10.6-1.6c1.9-0.9,4.1-1.3,5.8-2.1c2.4-1.1,5-2.4,6.7-4.3c1.6-1.8,0.4-4.1-1.8-4.4c-2.9-0.4-5.5,1.3-8.1,2.4
		c-1.6,0.7-3.3,1.3-4.8,2c-0.4,0.2-1.7,0.4-2.2,0.4c-3.4,0.1-7,2.3-9.9,3.9c-3.5,1.9-7,4.7-9.3,7.9c-0.5,0.7-5.3,6.7-7.4,8.4
		c-1.1,0.9-0.6,2.6,0.4,3.2c1,0.6,1.3,1.8,2.2,2.5c0.3,0.2,0.9,0.4,1.5,0.6c0.7,0.7,1.5,1.4,2.5,1.8c0.4,0.1,0.7,0.1,1.1,0
		c0.4,0.1,0.8,0,1.2-0.3c1.9-1.6,2.3-3.2,4.9-3.8c3.8-0.9,7-1.3,10.9-1.2c3.3,0.1,6.6,0.1,9.9,0c1.2,0,2.5-0.1,3.7-0.2
		c0.3,0.3,0.6,0.5,1,0.6c3.5,1.1,8.5-0.3,12.2-0.7c1.2-0.1,1.9-0.8,2.3-1.7c1.3-0.1,2.5-0.3,3.8-0.3c1.5,0,3.1,0.1,4.6-0.1
		c0.4,0,0.8,0,1.2-0.3l0,0c0.9-0.3,2.4-0.5,2.5-1.5c0,0,1.3-2.2,2.4-2.7C452.3,179,453.9,177.2,453.3,176.3z"/>
	<path fill="#F7DAE9" d="M115.7,161.3c-1.7-2.6-3-5-6.2-5.7c-1-0.2-1.3-0.8-2.4-0.7c-0.4-0.5-1.8-0.4-2.5-0.5
		c-2.2-0.2-4.3-0.3-6.5-0.3c-3.1,0-5.1-0.9-7.8-2.2c-2.7-1.4-5.9-2.7-9-2.6c-0.2-0.1-0.3-0.2-0.6-0.3c-2.2-0.8-4.7,0.9-4.1,3.4
		c0.7,3,5.1,2.9,7.4,3.4c3.4,0.7,6.3,2.3,9.4,3.4c-1.1,0.5-2.2,1.1-3.4,1.5c-2,0.7-3.9,0.8-5.9,1.1c-2.3,0.3-4.4,1.2-6.6,1.6
		c-2.5,0.4-5.3,0.7-7.8,1c-2.5,0.2-4.5-0.6-6.8-0.6s-5.9,0.8-7.6,2.3c-0.5,0.5-0.6,1.3-0.4,1.9c-0.1,0.1-0.3,0.3-0.5,0.4
		c-0.3,0.3-0.5,0.7-0.5,1.1c-0.5,0-0.9,0.1-1.5,0.6c-1.4,1-1.1,3.8,1,3.6c0.1,0,0.1,0,0.1,0c0.4,0.3,0.9,0.6,1.3,0.7
		c1.1,0.4,2.5,0.3,3.7,0c0.3-0.1,0.6-0.2,0.9-0.3c-0.2,0.2-0.4,0.4-0.6,0.7c-0.5,0.8-0.1,1.8,0.6,2.3c1.7,1.2,4.7,0.5,7.3,0.3
		c0,0.5,0.2,1,0.5,1.3c-0.1,0.1-0.1,0.3-0.2,0.4c-0.4,0.9,0.6,2.3,1.6,2.1c1.6-0.2,3.2-0.4,4.8-0.7c0.5,0.9,1.4,1.4,2.7,1.1
		c2.3-0.7,4.7-0.6,7-1.4c0.3-0.1,0.7-0.3,1-0.4c0.6-0.2,1.3-0.4,1.9-0.6c0.3,0,0.6-0.1,0.8-0.1c0.1,0,0.1,0,0.2,0
		c3.1,0.1,6.5-1.2,9.7-2.7c0.4,0.3,1,0.5,1.6,0.4c1.5-0.2,2.8-0.7,4.2-1.1c0.2,0.2,0.6,0.4,1,0.5c3.9,0.5,7.3-0.1,10.7,1.9
		c1.8,1.1,4-0.6,3.3-2.2c-0.1-0.3,0-0.8,0.1-1.4c0.2-0.3,0.5-0.8,0.6-1.2c0.2-0.9,0.4-1.8,0.4-2.7c0.3-1.1,0.3-3.7,0.4-4.2
		C119.2,163.3,117.3,163.7,115.7,161.3z"/>
	<g>
		<path fill="#F7F189" d="M299.3,117.2C299.1,117.7,299.4,117.2,299.3,117.2L299.3,117.2z"/>
		<path fill="#F7F189" d="M315.2,118.5c-2.5-3.9-6.6-6.9-9.7-10.4l-0.1-0.1c-0.5-1.1-1.3-2.3-1.9-3.6c-1-2.1-2.6-4.1-4-6.2
			c0-0.2,0-0.5-0.1-0.8c-2.5-8.1-3.3-16.4-5.2-24.6c-1-4.3-2.3-8.5-3.7-12.6c-1.1-3.3-1.8-9.2-4.6-11.6c-0.2-0.1-0.3-0.3-0.5-0.4
			c-0.4-1-0.8-2-1.2-3c-1.8-4.3-3.6-7.4-7.1-10.5c-7.4-6.5-17.7-10.7-26.8-14.1c-0.4-0.2-1-0.2-1.6-0.1c-1.2-0.5-2.4-1-3.7-1.1
			c-2.6-0.4-5.8,0-8.4,0.5c-3.9,0.9-7.8,2.1-11.2,4.1c-3.7,0-7.3,4.5-9.6,6.9c-3.1,3.4-5.6,7.1-7.2,11.4c-2.2,5.8-4.2,11.9-5.7,17.8
			c-0.9,3.3-1.4,7-1.2,10.6c-0.9,4.8-1.9,9.6-2.5,14.4c-0.4,3.3-0.9,8.4,0,12.1c-1.1,7.8-1.1,15.7-1.7,23.5
			c-0.8,10.3-2.8,24.6-16.1,23.7c-2.3-0.9-4.3-2-6.6-3.5c-0.3-0.2-0.7-0.1-0.9,0.1c-0.9-0.9-1.7-1.8-2.2-2.4c-0.2-0.2-0.6,0-0.5,0.3
			c0,0.1,0.1,0.3,0.1,0.4c0.1,0.3,0.6,0.3,0.6-0.1c0.2,2.2,2.8,5.8,5.1,7.1c-0.5,0.1-0.8,0.3-1.3,0.4c-0.8,0.1-1,1.3-0.5,1.8
			c1.6,1.4,3.6,2.5,5.7,2.8l0,0c0.2,0.3,0.6,0.6,1,0.7c2.3,0.5,4.5,0.8,6.7,0.3c0.1,0,0.2,0,0.2,0s-0.1,0-0.1,0.1
			c-0.9,0.7-1.9,1.5-2.8,2.2c-0.7,0.5-1.7,1.5-2.5,1.8c-0.7,0.3-0.5,1.5,0.2,1.7c1.2,0.3,1.7-0.1,2.7-0.5c0.8-0.3,1.6-0.6,2.3-0.9
			c0.1,0,0.2,0,0.3,0c0.7,0,1.3,0.4,2,0.3c0.9-0.1,1.8-0.5,2.6-1c1.7-1,3.1-2.4,4.5-3.7c0.2-0.2,0.4-0.3,0.5-0.5
			c0,0.3,0.1,0.7,0.1,1c0,3.1,0.7,6.2,1.3,9.4c0,2.7,0.1,5.4,0.3,8.2l0,0c0.1,1.2,1.7,1.6,2.1,0.3c0.8-2.6,1.3-5.2,1.6-7.9
			c0.9,0,1.8-0.4,2.4-1.3c0,0,0,0,0.1,0c0-0.1,0.1-0.2,0.1-0.3c0.1-0.1,0.1-0.2,0.2-0.3c1.8-4.8,2.7-9.7,3.5-14.6
			c0.2-0.4,0.3-0.7,0.5-1.2c0.8-2.5,1.6-5,2.2-7.6c0.7-3.2,1.2-6.7,0.2-9.8c0.4-2.1,0.6-4.3,0.7-6.5c0.6,1.8,1.3,3.4,2.1,5.1
			c-0.3,0.5-0.5,1.2-0.3,1.8c0.9,2.8,3,3.8,5.4,3.3c0,0,0,0,0.1,0.1c0.5,0.5,1.3,0.5,1.9,0.1c0.1,0.4,0.1,0.9,0.1,1c0,0,0,0,0,0.1
			c0,1,1.4,0.9,1.5,0c0.2-2.4-0.1-4.8-0.5-7.2c0.1-0.1,0.1-0.3,0.1-0.4c0.2-1.4,0-2.8-0.4-4.1c0.2-0.4,0.4-0.9,0.3-1.5
			c-0.4-2.5-1.8-4.4-2.2-6.8c-0.1-0.5-0.4-0.8-0.7-1c-1.3-3.5-2.6-7-3.3-10.6c3.4-5.8,3.6-13.2,4.1-19.8c0.5-7.2,0.1-14.1,2.7-21
			c1.3-3.4,2.2-7,3.6-10.4c1.7-4.3,5.3-5.4,8.4-8.5c2.1-2.1,4.5-3.6,6.6-5.7c1.2-1.2,2.5-2.6,3.5-4c0.6-0.8,1-2.3,1.7-3.5
			c1.9,3.1,9.1,5.1,11.4,6.2c6.7,3.1,11.7,9.5,15.3,15.8c0.8,1.4,1.5,2.8,2.1,4.2c-0.4,0.5-0.6,1.2-0.6,1.9c0.2,2.5,1.2,5.1,2.1,7.5
			c0.3,0.7,0.5,1.4,0.8,2c0.5,2.5,0.8,5,1.2,7.3c0.7,4.5,1.1,8.8,0.9,13.3c-0.1,2.5-0.1,5.1-0.2,7.6c-0.5,0.3-0.8,0.8-0.9,1.5
			c0,0.2,0,0.4-0.1,0.7l0,0c0,0.1,0,0.3,0,0.4c-0.3,2.7-0.2,5.5-0.1,8.2c0,0.3,0,0.5,0,0.8c0,0.1-0.1,0.1-0.1,0.2
			c-2.1,4.7,0.5,9.8,3.9,13.4c1.7,1.8,3,4,4.8,5.8c0.5,0.5,1.5,1.2,2.3,1.9c0.4,0.7,0.9,1.3,1.4,1.9c0.3,0.3,0.9,0.2,1.1-0.1
			c0.6-1,0.2-1.7-0.2-2.7c-0.5-1.3-1-2.6-1.5-3.9c0.1-1.5,0.4-3,0.1-4.5c-0.2-1.6-0.5-3.2-0.7-4.8c0-1.4,0-2.9,0-4.3
			c0-0.1,0.1-0.2,0.1-0.3c0.3-0.9,0.5-1.8,0.6-2.7c0.1,0.2,0.3,0.5,0.4,0.8c0.8,1.8,1,3.8,2,5.2c0.8,2.6,1.9,5.2,4,6.8
			c0.2,0.2,0.6,0,0.6-0.3c0-0.2,0.1-0.3,0.1-0.5c0.1-0.3-0.3-0.5-0.5-0.3c0.4-0.3,0.5-0.4,0.6-0.4v-0.1c0.2-0.4-0.2-1.7-0.3-2.3
			c-0.1-0.9-0.3-1.8-0.4-2.6c0.5,0.7,0.9,1.3,1.5,1.8c0.4,0.3,1,0.5,1.5,0.6c0.6,0.4,1.2,0.7,1.9,1c0.4,0.2,0.7,0.2,1.1,0.1
			c1.6,1.1,3.3,2.1,5.4,1.7c0.2,0,0.3-0.1,0.4-0.2c1.4,0.8,2.8,1.5,4.2,2C315,119.4,315.5,118.8,315.2,118.5z M178.4,147.3
			c0-0.1-0.1-0.2-0.1-0.3s-0.1-0.1-0.1-0.2h0.1c0.4,0.2,0.7,0.4,1.1,0.6c0,0,0.1,0,0.1,0.1C179.1,147.4,178.8,147.4,178.4,147.3z"/>
	</g>
</g>
<g id="Layer_3">
	<path fill="none" stroke="#000000" stroke-width="2" stroke-linecap="round" stroke-linejoin="round" stroke-miterlimit="10" d="
		M299.2,114.1c0,0,9.7,3.1,24.4,9c6.9,2.8,12.4,8.4,15,15.3c2,5.4,4.2,11.3,4.8,13.6c1.3,4.8,2.7,14.2,0.9,20.7
		c-1.8,6.6,1.5,35.8,4.1,42.8"/>
	<path fill="none" stroke="#000000" stroke-width="2" stroke-linecap="round" stroke-linejoin="round" stroke-miterlimit="10" d="
		M342.4,222.3c0,0,27.1-29.8,35.5-41.1c0.5-0.6,1.5-0.2,1.4,0.6c-0.5,4.8-0.5,13.4,5.9,16.2c9.1,4,11.5,0,11.5,0
		s-45.3,65.4-51.2,65.4c-6.8,0-19.2-18.2-25.7-33.9c-6.5-15.8-6.5-14.6-6.8-14.2"/>
	<path fill="none" stroke="#000000" stroke-width="2" stroke-linecap="round" stroke-linejoin="round" stroke-miterlimit="10" d="
		M392.8,199.4c0-0.3,8.5-7.4,13.3-8.7s-10.1-2.5-10.1-2.5"/>
	<path fill="none" stroke="#000000" stroke-width="2" stroke-linecap="round" stroke-linejoin="round" stroke-miterlimit="10" d="
		M403.9,189.2c0,0-14.6,9.2-24.3-6.8"/>
	<path fill="none" stroke="#000000" stroke-width="2" stroke-linecap="round" stroke-linejoin="round" stroke-miterlimit="10" d="
		M381.7,185.4c0.1-0.4,5.2-6.9,8.2-10.2c3-3.2,6.4-7.7,15.2-10.7c8.9-2.9,9.8-2.1,13.7-5c3.9-3,9.3-1.4,8.9,2s-10,4.8-13.3,7.5"/>
	<path fill="none" stroke="#000000" stroke-width="2" stroke-linecap="round" stroke-linejoin="round" stroke-miterlimit="10" d="
		M411,168.3c0,0,8.6,3,21.6,2.1c14.9-1,15.8-1.7,16.8,1s-2,3-6.5,3"/>
	<path fill="none" stroke="#000000" stroke-width="2" stroke-linecap="round" stroke-linejoin="round" stroke-miterlimit="10" d="
		M424.8,173.6c0,0,19.5,1.1,22.9,0.6c1.7-0.3,5.5-0.5,5.6,2.5c0.2,3.8-3.9,3.6-3.9,3.6"/>
	<path fill="none" stroke="#000000" stroke-width="2" stroke-linecap="round" stroke-linejoin="round" stroke-miterlimit="10" d="
		M419.2,176.3c0,0,6.9,0.6,12.2,1.3c2.7,0.4,5.6,1.1,8.2,0.6c2.2-0.4,5.1-0.1,7.3-0.1c1.8,0,2.9,2.3,2.2,3.9
		c-0.4,0.9-1.3,1.6-3.1,1.8c-2.4,0.4-3.8,0.3-7.4,0"/>
	<path fill="none" stroke="#000000" stroke-width="2" stroke-linecap="round" stroke-linejoin="round" stroke-miterlimit="10" d="
		M414.8,180.3c0,0,12,1.9,19.4,1.8c7.4-0.2,2.2,4.4-0.5,4.6s-22.3-0.4-27.5-0.2s-9.9-1.1-12.9,4.7"/>
	<path fill="none" stroke="#000000" stroke-width="2" stroke-linecap="round" stroke-linejoin="round" stroke-miterlimit="10" d="
		M333.6,163.6c0,0-14.4,48.1-34.3,72.8c0,0-8.2,6.8,2.8,34.6s20.9,87.6,16.1,97.1s-56.6,11.5-74.4,3.1c0,0-4.2-93.1-8.4-107.8"/>
	<path fill="none" stroke="#000000" stroke-width="2" stroke-linecap="round" stroke-linejoin="round" stroke-miterlimit="10" d="
		M276,151.4c0,0-10,9.5-13.7,40.6s-24.1,48.1-24.1,48.1s59.1-51,66.3-83.4c0,0-15.2-15-19.8-31.2"/>
	<path fill="none" stroke="#000000" stroke-width="2" stroke-linecap="round" stroke-linejoin="round" stroke-miterlimit="10" d="
		M300.4,115.7l8.7,13.2c0.9,1.4,0.5,3.3-0.9,4.2l-15.3,9.4"/>
	<path fill="none" stroke="#000000" stroke-width="2" stroke-linecap="round" stroke-linejoin="round" stroke-miterlimit="10" d="
		M238.1,240.1c0,0,7-21.6,5.5-61c-1.3-33.8-1.9-37.9-7.4-44.9c-2.7-3.4-4.7-7.3-5.9-11.5c-0.8-2.9-1.5-6-1.3-8.2"/>
	<path fill="none" stroke="#000000" stroke-width="2" stroke-linecap="round" stroke-linejoin="round" stroke-miterlimit="10" d="
		M234,131c0,0-6.3-1.2-8.3,16.7c0,0-0.1-6.7-1-11.3"/>
	<path fill="none" stroke="#000000" stroke-width="2" stroke-linecap="round" stroke-linejoin="round" stroke-miterlimit="10" d="
		M225.7,147.8c0,0-4.9,46.3,4.3,65s8,27.4,8,27.4s-4.4-13.8-19.4-26.5c-14.9-12.7-15.8-43.9-15.8-43.9"/>
	<path fill="none" stroke="#000000" stroke-width="2" stroke-linecap="round" stroke-linejoin="round" stroke-miterlimit="10" d="
		M243.6,179.1c0,0,9.9-29.1,10.2-41.9s12.8-14.7,16.5-8.7c3.7,6.1,7.1,19.9,6.1,25.2c-1,5.2,9.3-19.7,7.6-27.4"/>
	<path fill="none" stroke="#000000" stroke-width="2" stroke-linecap="round" stroke-linejoin="round" stroke-miterlimit="10" d="
		M260.7,125.8c0,0,14.3-4.9,15.5-16.6"/>
	<path fill="none" stroke="#000000" stroke-width="2" stroke-linecap="round" stroke-linejoin="round" stroke-miterlimit="10" d="
		M238.1,240.1c0,0,4.6,2.4-7.3,37.2c0,0-19.2,77.3-21.7,90.3s-42.1-4-54.3-13.5c0,0,9.5-47.1,18.7-72s21.5-51.6,19.9-64.9
		c-1.6-13.3-13.3-30-9.6-53.2"/>
	<path fill="none" stroke="#000000" stroke-width="2" stroke-linecap="round" stroke-linejoin="round" stroke-miterlimit="10" d="
		M197.8,110.2c0,0-14.5,6.8-20.6,31.6"/>
	<path fill="none" stroke="#000000" stroke-width="2" stroke-linecap="round" stroke-linejoin="round" stroke-miterlimit="10" d="
		M174.9,148.3c-0.6,1-8.2,33.6-14.7,43.6"/>
	<path fill="none" stroke="#000000" stroke-width="2" stroke-linecap="round" stroke-linejoin="round" stroke-miterlimit="10" d="
		M164,198.2c0,0-10.1-20.3-35.4-34.2c0,0,3.3,22.2-17.2,25c0,0,14,14.6,18.8,22.2c2.9,4.5,25.6,27.8,37.4,25.8s25.9-19.7,25.9-19.7"
		/>
	<path fill="none" stroke="#000000" stroke-width="2" stroke-linecap="round" stroke-linejoin="round" stroke-miterlimit="10" d="
		M128.7,165.7c-0.4,0-4.9-7.2-7.9-6.3c-3.7,1.1,1.2,21.9-10.9,24.7c0,0,5.1,0.9,5.1,4"/>
	<path fill="none" stroke="#000000" stroke-width="2" stroke-linecap="round" stroke-linejoin="round" stroke-miterlimit="10" d="
		M109.9,184.2c0,0-1.4-4.2-0.5-6.8"/>
	<path fill="none" stroke="#000000" stroke-width="2" stroke-linecap="round" stroke-linejoin="round" stroke-miterlimit="10" d="
		M116,179.6c0,0-9.1-6-22.1-1.6s-23.5,3.7-25.4,3.7c0,0,0,0-0.1,0c-3.4-0.3-3.4-5.2,0-5.6c0.5,0,1.1-0.1,1.7-0.1
		c7.7-0.2,20.6-2.7,21.8-4.1"/>
	<path fill="none" stroke="#000000" stroke-width="2" stroke-linecap="round" stroke-linejoin="round" stroke-miterlimit="10" d="
		M87.3,169.2l-2.9,0.8c-5.1,1.3-10.2,2.2-15.5,2.6l-8.1,0.7c-1.3,0.4-2.3,1.4-2.6,2.8c-0.3,1.6,1.7,2.5,7.7,1.9"/>
	<path fill="none" stroke="#000000" stroke-width="2" stroke-linecap="round" stroke-linejoin="round" stroke-miterlimit="10" d="
		M58.8,174.6c-1,0.1-4.4,0.6-7-0.5c-1.1-0.5-0.8-4.9,2.4-4.9c20.1-0.4,28.2-2.3,28.2-2.3"/>
	<path fill="none" stroke="#000000" stroke-width="2" stroke-linecap="round" stroke-linejoin="round" stroke-miterlimit="10" d="
		M54.2,169.2c-1.8-6.4,8.8-4.9,8.8-4.9s18.4-0.9,25.2-2.9c6.8-2,7.4-2.8,7.4-2.8"/>
	<path fill="none" stroke="#000000" stroke-width="2" stroke-linecap="round" stroke-linejoin="round" stroke-miterlimit="10" d="
		M93.1,159.2c0,0-3.7-3.3-9.9-3.4c-6.2-0.1-7.5-2.4-5.9-5.6c1.5-3.3,8.7-1.9,13.2,1.1s11.3,2.6,13.1,2.6c1.9,0,9.7,1.1,12.5,6.8
		c0,0,1.3,2.9,2.5,3.4"/>
	<path fill="none" stroke="#000000" stroke-width="2" stroke-linecap="round" stroke-linejoin="round" stroke-miterlimit="10" d="
		M235.2,263.5c0,0-1.5,32.5-1.8,36.9"/>
	<path fill="none" stroke="#000000" stroke-width="2" stroke-linecap="round" stroke-linejoin="round" stroke-miterlimit="10" d="
		M225.5,298.6c0.3,0.3,8.2,2.7,13.8,2.2"/>
	<path fill="none" stroke="#000000" stroke-width="2" stroke-linecap="round" stroke-linejoin="round" stroke-miterlimit="10" d="
		M169.9,363c0,0-36,136.1-29,207c0,0,17.8,5.4,34.3,3.8c5.2-0.5,8.9-5.1,8.3-10.3c-2.3-20.4-1.6-83,50.9-234.3"/>
	<path fill="none" stroke="#000000" stroke-width="2" stroke-linecap="round" stroke-linejoin="round" stroke-miterlimit="10" d="
		M230.7,326.5c0,0,3.9,4.1,8.5,2.6"/>
	<path fill="none" stroke="#000000" stroke-width="2" stroke-linecap="round" stroke-linejoin="round" stroke-miterlimit="10" d="
		M237,329.4c0,0,15.7,208.3,27.6,241.3c0,0,33.7,2.8,49.2-0.9c2.5-0.6,4.1-2.9,3.8-5.5c-3.2-24.5-17.2-160.2-17.9-189.2"/>
	<path fill="none" stroke="#000000" stroke-width="2" stroke-linecap="round" stroke-linejoin="round" stroke-miterlimit="10" d="
		M142.8,571.3c0,0-14.6,11.6-32.5,14.4s-8,11.4-8,11.4s42.9,3.2,62.9-5.7l3.1-0.2c0,0,4.5,2,8.4,2s3.2-15.8,1.3-19.8"/>
	<path fill="none" stroke="#000000" stroke-width="2" stroke-linecap="round" stroke-linejoin="round" stroke-miterlimit="10" d="
		M277.1,571.7c-4.4,6.2-1.9,22.4-1.6,24.2s8.5,2.7,10.6,1.2c2.2-1.4,14.9,20.9,33.4,23.2s22-2.4,22-4.7c0-2.2-2.7-6.2-2.7-6.2
		s-34.4-33.4-34.7-38.3"/>
	
		<circle fill="none" stroke="#000000" stroke-width="2" stroke-linecap="round" stroke-linejoin="round" stroke-miterlimit="10" cx="232.6" cy="245.3" r="3.3"/>
	
		<circle fill="none" stroke="#000000" stroke-width="2" stroke-linecap="round" stroke-linejoin="round" stroke-miterlimit="10" cx="237.4" cy="213.2" r="1.3"/>
	
		<circle fill="none" stroke="#000000" stroke-width="2" stroke-linecap="round" stroke-linejoin="round" stroke-miterlimit="10" cx="238.4" cy="187.2" r="1.3"/>
	
		<circle fill="none" stroke="#000000" stroke-width="2" stroke-linecap="round" stroke-linejoin="round" stroke-miterlimit="10" cx="238.4" cy="160.2" r="1.3"/>
	<path fill="none" stroke="#000000" stroke-width="2" stroke-linecap="round" stroke-linejoin="round" stroke-miterlimit="10" d="
		M219.7,99.6c0,0,13.9,42.4,59.1,7.6"/>
	<path fill="none" stroke="#000000" stroke-width="2" stroke-linecap="round" stroke-linejoin="round" stroke-miterlimit="10" d="
		M298.7,101.3c0,0-3.5,7.4,4.4,24.1c0,0-6.9-7.9-10.7-18.1"/>
	<path fill="none" stroke="#000000" stroke-width="2" stroke-linecap="round" stroke-linejoin="round" stroke-miterlimit="10" d="
		M293.8,96.7c0,0-4.7,19,2.3,34.8c0,0-21.6-12.6-15.7-34.8c0,0,6.6-53.3-24.2-64.1c0,0-5.8-1.4-7.8-3.9"/>
	<path fill="none" stroke="#000000" stroke-width="2" stroke-linecap="round" stroke-linejoin="round" stroke-miterlimit="10" d="
		M249,26.4c0,0-3.3,8.7-13.6,15.9c-10.3,7.3-12.9,33.8-12.8,42.7c0.1,8.9-4.1,15.9-3.8,16.6c0.2,0.7,10.1,25.3,5.8,37.2
		c0,0-1.3-8.7-6.1-17"/>
	<path fill="none" stroke="#000000" stroke-width="2" stroke-linecap="round" stroke-linejoin="round" stroke-miterlimit="10" d="
		M223.2,133c0,0-8.2-0.4-9.2-10.2"/>
	<path fill="none" stroke="#000000" stroke-width="2" stroke-linecap="round" stroke-linejoin="round" stroke-miterlimit="10" d="
		M214.9,106.9c0,0-0.8,23.1-3,34.7c-1.6,8.4-2.1,17.9-8.1,24.3"/>
	<path fill="none" stroke="#000000" stroke-width="2" stroke-linecap="round" stroke-linejoin="round" stroke-miterlimit="10" d="
		M208.8,127.4c0,0-2.9,39.5-8.1,47.7c0,0-1.6-15.8-2.4-21.9"/>
	<path fill="none" stroke="#000000" stroke-width="2" stroke-linecap="round" stroke-linejoin="round" stroke-miterlimit="10" d="
		M200.2,150.3c-0.2,0.7-3.8,9.4-21.2,8c0,0,5.2-0.8,8.8-4.6"/>
	<path fill="none" stroke="#000000" stroke-width="2" stroke-linecap="round" stroke-linejoin="round" stroke-miterlimit="10" d="
		M197.6,146.6c-0.1,0.1-9.2,15.1-24.9-0.3l4.9,0.5c0,0-6.7-2.3-7.7-11.4c0,0,15.5,19,25.4,1.5c0,0,2.6-21.3,2.9-37.3
		c0.2-16,4.1-63.7,23.1-73.4s23.1-10.3,47.8,2.5s26.1,57,31.1,68.8c1.2,2.7,5.1,14.6,23.2,25.6"/>
	<path fill="none" stroke="#000000" stroke-width="2" stroke-linecap="round" stroke-linejoin="round" stroke-miterlimit="10" d="
		M225.7,65.7c0,0,5.4-3.2,10.2-2.6"/>
	<path fill="none" stroke="#000000" stroke-width="2" stroke-linecap="round" stroke-linejoin="round" stroke-miterlimit="10" d="
		M250.5,52.5c0,0,14.9-2.7,21.3,8.6"/>
	<path fill="none" stroke="#000000" stroke-width="2" stroke-linecap="round" stroke-linejoin="round" stroke-miterlimit="10" d="
		M224.7,73.8c0,0,4.3-7.7,13.4-2.5"/>
	<path fill="none" stroke="#000000" stroke-width="2" stroke-linecap="round" stroke-linejoin="round" stroke-miterlimit="10" d="
		M251.6,67.1c0,0,4.9-8,13.3-3.3"/>
	<circle stroke="#000000" stroke-linecap="round" stroke-linejoin="round" stroke-miterlimit="10" cx="231.4" cy="72.5" r="2.9"/>
	<circle stroke="#000000" stroke-linecap="round" stroke-linejoin="round" stroke-miterlimit="10" cx="258.8" cy="65.9" r="2.9"/>
	<path fill="none" stroke="#000000" stroke-width="2" stroke-linecap="round" stroke-linejoin="round" stroke-miterlimit="10" d="
		M226.6,75.3c0,0,4.6,3.7,9.9-1.4"/>
	<path fill="none" stroke="#000000" stroke-width="2" stroke-linecap="round" stroke-linejoin="round" stroke-miterlimit="10" d="
		M254.8,69.4c0,0,6.1,3.1,9.2-2.3"/>
	<path fill="none" stroke="#000000" stroke-width="2" stroke-linecap="round" stroke-linejoin="round" stroke-miterlimit="10" d="
		M243.4,79.3c-0.2,0-3.8,13.3,7.5,10.3"/>
	<path fill="none" stroke="#000000" stroke-width="2" stroke-linecap="round" stroke-linejoin="round" stroke-miterlimit="10" d="
		M252.9,87c0,0,0.8-0.8,1.2,0.2"/>
	<path fill="none" stroke="#000000" stroke-width="2" stroke-linecap="round" stroke-linejoin="round" stroke-miterlimit="10" d="
		M236.8,99.5c0,0,5.2,4.5,15.5-0.8c0,0,5.6-2.6,11.7,0.7"/>
</g>
<g id="Layer_2_1_">
	
		<path opacity="0" fill="none" stroke="#7DFF6A" stroke-width="25" stroke-linecap="round" stroke-linejoin="round" stroke-miterlimit="10" d="
		M206.8,34.5c17.3-6,35.1-10.9,53.1-14.6c-18.9,7.9-37.7,15.8-56.6,23.7c22.3-4.7,44.7-9.3,67.3-12.2C246,40,221.8,49.6,198.1,60.4
		c28.3-8.1,57-14.8,86-20c-30.6,12.5-61.2,24.9-91.8,37.4c32.9-7.8,65.8-15.5,98.7-23.3c-33.4,12.5-66.7,25-100.1,37.5
		c35.2-8.6,70.4-17.2,105.6-25.8c-35.6,13.8-71.3,27.6-108,38.4c37.5-8,75.1-16,112.6-23.9c-35.1,15.4-70.4,30.9-106.9,42.6
		c36.7-7.2,73.1-15.5,109.3-24.7c-25.4,8.6-50.3,18.3-74.9,29.1c14.5-3,29.1-6,43.6-9c-13.6,5.5-26.8,12-39.4,19.5
		c8.3-2.9,17-4.7,25.8-5.5c-8.1,5-16.2,10-24.4,15.1c6-0.6,11.9-1.2,17.9-1.9c-4.3,4.2-8.5,8.3-12.8,12.5c4.1-0.2,8.2-0.5,12.2-0.7
		c-4,3.6-7.6,7.7-10.7,12.1c1.8,0.3,3.6-1.8,3-3.5"/>
	
		<path opacity="0" fill="none" stroke="#7DFF6A" stroke-width="25" stroke-linecap="round" stroke-linejoin="round" stroke-miterlimit="10" d="
		M51.2,177.3c2.2-5.5,4.4-11.1,6.6-16.6c0.1,8.2,1.2,16.4,3.2,24.3c2.4-9.2,4.9-18.5,7.5-27.6c0.8,9.2,1.6,18.5,2.4,27.7
		c3.6-12.3,7.2-24.7,10.8-37c-0.3,12.6,0.3,25.3,1.7,37.8c4.2-10.6,8.4-21.1,12.7-31.7c-0.4,10.3-0.8,20.7-1.2,31
		c3.8-12,9.3-23.5,16.3-33.9c-2,13.9-4,27.9-5.9,41.8c5.8-11.5,12.7-22.5,20.5-32.8c-5.7,16.3-9.6,33.3-11.5,50.5
		c7.3-12.9,14.7-25.9,22-38.8c-2,15.3-3,30.8-3.1,46.3c4.4-14.5,8.9-29.2,17.8-41.4c-2.2,18.2-3.3,36.5-3.3,54.8
		c3.2-16.4,6.4-33.1,14-48c0.3,19.7,0.6,39.3,0.8,59"/>
	
		<path opacity="0" fill="none" stroke="#7DFF6A" stroke-width="25" stroke-linecap="round" stroke-linejoin="round" stroke-miterlimit="10" d="
		M164.7,138.7c7.4-2.4,14.9-4.8,22.3-7.1c-7.4,4.1-14.9,8.2-22.3,12.3c17.1-2.8,34.1-5.6,51.2-8.5c-19.3,6.4-38.3,13.4-57.1,21.1
		c21.5-4,43-8,64.4-12c-19.9,9.7-40.3,18.4-61.1,26.2c23.1-5.3,46.4-9.8,69.8-13.7C211.8,168.7,191,179,169.6,188
		c19.4-4.6,38.9-9.1,58.8-10.6c-17.6,7.3-34.7,15.9-51.1,25.7c17.5-4.5,34.9-9,52.4-13.6c-21.3,11-42.6,22-63.9,33
		c25.3-5.8,50.7-11.6,76-17.4c-21.8,11.1-43.5,22.1-65.3,33.2c19.1-3.5,38.3-6.9,57.4-10.4c-15.5,7.1-31.1,14.3-46.6,21.4
		c17.9-4.1,36.4-5.9,54.8-5.5c-22.6,6.6-44.5,15.5-65.2,26.7c19.8-4.6,40-7.6,60.3-8.9c-24.6,8.7-48.3,19.9-70.6,33.6
		c21.8-6.1,43.7-12.2,66.2-13.6c-25.3,12.6-52.1,27.2-78,38.4c23.2-6.6,47.6-15.8,70.9-22c-22.7,16.3-48.9,36.8-73.2,50.7
		c19.6-4.4,41.2-16.8,60-23.9c-14.2,11.6-28.3,23.2-42.5,34.7c13.5-6,27-12,40.5-18c-9.9,8.6-18.8,18.2-26.7,28.6
		c7.8-3.1,29.3-13.1,37.1-16.1c1.3,1.6-14.5,10.4-15.8,12c-1.3,1.5,7.7,7.9,9,6.4"/>
	
		<path opacity="0" fill="none" stroke="#7DFF6A" stroke-width="25" stroke-linecap="round" stroke-linejoin="round" stroke-miterlimit="10" d="
		M282.7,120c9.6-2.6,19.4-4.5,29.3-5.7c-14.6,5-29.3,10-43.9,15c20.9-2.9,42.1-4.4,63.2-4.5c-24.8,7.4-49.7,14.8-74.5,22.3
		c25.5-2.7,50.9-5.3,76.4-8c-27.5,7.9-54.7,16.5-81.6,26c32.3-5.6,64.7-10.3,97.3-13.9c-39,12.4-78,24.9-116.9,37.3
		c37.1-8.2,74.7-14.2,112.2-20.1c-41.3,15-83,29-125,41.9c37.2-8.4,75.5-11.9,113.7-10.5c-30.5,10.8-61,21.6-91.4,32.3
		c24.1-2.4,48.1-4.7,72.2-7.1c-24.4,10.5-49.3,19.9-74.7,28c22.2-3.8,44.8-6.7,67.2-4.7c-22.1,11.5-46.1,19.4-70.7,23.4"/>
	
		<path opacity="0" fill="none" stroke="#7DFF6A" stroke-width="25" stroke-linecap="round" stroke-linejoin="round" stroke-miterlimit="10" d="
		M346.4,175.7c-8.4,9.7-12.4,22.4-16.2,34.6c-2.8,9-5.6,18.1-8.4,27.1c8.7-14.2,17.4-28.4,26.2-42.6c-8.1,17.5-14.6,35.7-19.5,54.3
		c7.7-12.3,15.4-24.5,23.1-36.8c-0.7-0.3-1.4-0.7-2.1-1"/>
	
		<path opacity="0" fill="none" stroke="#7DFF6A" stroke-width="25" stroke-linecap="round" stroke-linejoin="round" stroke-miterlimit="10" d="
		M338.7,252.7c4.2,5.1,9.1,9.6,14.5,13.4c-4-6.4-8-12.8-11.9-19.2c4.4,5,10.1,8.8,16.4,11.1c-4.4-7.4-8.8-14.9-13.2-22.3
		c5.6,5.6,12.2,10.2,19.4,13.5c-4.9-8.1-9.8-16.2-14.7-24.4c8.7-0.2,11.7,14.3,20.4,14.6c-6.1-10.1-12.6-20-19.5-29.5
		c8.4,7.1,16.8,14.2,25.2,21.3c-5-11.2-10.1-22.4-15.1-33.5c5.7,7.6,12.6,14.4,20.2,20.2c-2.9-10.1-5.8-20.3-8.8-30.4
		c4.1,7.4,9.1,14.3,14.8,20.5c-2.5-11-5-21.9-7.5-32.9c3.9,8.6,9.2,16.7,15.5,23.8c-1.4-10.5-2.8-21.1-4.3-31.6
		c3.8,7.7,7.6,15.3,11.3,23c0.5-10.8,0.3-21.7-0.7-32.5c4.7,10.9,9.4,21.9,14.1,32.8c0-11.5,0.1-22.9,0.1-34.4
		c3.2,11.9,8,23.3,14.3,33.8c-0.4-9.8-0.9-19.6-1.3-29.5c2.6,11.4,7.4,22.3,14.2,31.9c2-8.8,2-18.1,0-26.9c1.8,7.5,5,14.7,9.5,21
		c1.5-3.2,2.9-6.3,4.4-9.5"/>
	
		<path opacity="0" fill="none" stroke="#7DFF6A" stroke-width="25" stroke-linecap="round" stroke-linejoin="round" stroke-miterlimit="10" d="
		M237.1,286.3c25.1-5.1,50.2-10.2,75.2-15.2c-28.7,10.1-57.4,20.2-86.1,30.3c27.9-6.2,56.4-10,84.9-11.1
		c-32,7.7-63.5,17.3-94.4,28.8c32.9-5,65.9-10.1,98.8-15.1c-35.4,10.8-70.8,21.7-106.2,32.5c36.1-5.8,72.2-11.7,108.2-17.5
		c-27.4,8.8-54.8,17.6-82.1,26.4c25.7-4.9,51.7-8.2,77.8-9.6c-25.6,7.7-51.1,15.5-76.7,23.2c29.4-4.2,59-7.4,88.7-9.6
		c-28.8,7.6-57.4,15.8-85.9,24.5c24.9-2.4,49.8-4.8,74.7-7.2c-22.1,7.4-44.1,14.8-66.2,22.2c20.1-3.2,40.5-4.5,60.9-4
		c-22.7,7.4-45.1,16-67,25.6c22.8-2.3,45.7-2.3,68.5,0c-22.2,8.9-43.5,4.5-65.7,13.3c20.7-0.6,40.5,12.1,61.2,11.5
		c-17.5,8.8-45.2,2.5-62.7,11.2c15.6,2.6,47.2,9.3,63,8.6c2.1,2.2-1.3,13.5,0.7,15.8c-16.2,3.5-41.5-7.5-57.1-2.3
		c17.2-1.2,43.8,14.2,61,15.5c-19,7-44.5-1-63.5,6c18.7-0.3,44,15.9,62.5,18.4c-17,4.8-40.7-5.5-57.7-0.7
		c18.5-0.5,43.6,14.1,62.1,13.6c-18.7,6.6-43.9-1.8-62.5,4.8c13.7-0.9,33.9,13.2,47.6,12.3c5.1-0.3,10.7-0.6,14.9,2.3
		c-17.3,4.9-41.1-5.2-58.4-0.3c18.8-0.1,44.3,14.8,63.1,14.7c-17.6,5.9-41.8-3.3-59.4,2.5c16.9-2.8,40.6,10.7,57.7,10.2
		c-16.9,2.5-39.9-7.5-55.2,0.2c12.5-4,32.6,10.4,45.4,13c-12.2,3.7-26.8,3.3-39,7c17.3-2.5,37.2,0.8,54.6,1.7
		c-14,1.5-27.7,5.1-40.7,10.5c12.1-1.2,24.2-2.3,36.2-3.5c5.2-0.5,10.6-0.9,15.3,1.3c-13.4,6.3-27.2,11.8-41.3,16.3
		c15-3.6,30.5-4.8,45.9-3.6c-10.5,1.9-20.7,5.7-29.9,11.1c13.4-0.1,26.7-1.5,39.8-4.2"/>
	
		<path opacity="0" fill="none" stroke="#7DFF6A" stroke-width="25" stroke-linecap="round" stroke-linejoin="round" stroke-miterlimit="10" d="
		M160.7,375.7c18.9,0.9,37.8,2.9,56.5,5.9c-18.6,2.1-37.2,4.3-55.7,6.4c16.3,3.2,32.5,6.8,48.6,11c-15.6,8.6-36.2-1.6-52.4,5.8
		c16.7,2.4,33.1,6.4,49.1,11.7c-19.2,6.8-41.3-0.9-60.4,6.3c7.9,1.6,15.9,3.2,23.8,4.8c11.3,2.3,22.7,4.6,33.1,9.6
		c-19.1,0.1-38.2,2.4-56.9,6.9c18.1,2.6,35.9,7,53.1,12.9c-18.5,0-37.4,0-55,5.8c12.8,0.2,25.5,1.8,38,4.5c5,1.1,10.7,3.2,12,8.1
		c-17.4,2-34.9,4-52.3,6c16.5,0.1,34.4,0.7,47.2,11.1c-17,1.9-34.1,3.7-51.1,5.6c17.9,0.1,36.8,0.4,52.4,9.2
		c-17.9-2.4-36.6,0.2-53.1,7.5c18.8,0,38.6,0.2,55.2,9.1c-14.8,6.6-31.9,2.6-48,3.5c-3.6,0.2-8.4,2.1-7.6,5.6
		c16.3,0.9,33.4,1.9,47.5,10.3c-11-0.7-21.9-1.5-32.9-2.2c-5.4-0.4-11.6-0.4-15.1,3.8c17.5,5.7,38.4,1.8,53.1,12.9
		c-9.9,2.1-20.2,0.8-30.4,0.5c-10.2-0.3-21,0.8-29.1,7c8.1,1.4,16.3,0.2,24.5,0.2c8.2,0,16.9,1.4,23.1,6.8
		c-27.8-0.8-55.8,5.5-80.6,18.1c32.5-9.3,65.7-15.7,99.3-19.2c-31.4,16-65.9,26.1-101,29.5c24.3-1.6,48.6-3.1,72.9-4.7
		c9.7-0.6,21.7-2.9,24.6-12.2c-1.5-0.6-3-1.1-4.5-1.7"/>
</g>
</svg>
