<?xml version="1.0" encoding="utf-8"?>
<!-- Generator: Adobe Illustrator 25.2.1, SVG Export Plug-In . SVG Version: 6.00 Build 0)  -->
<svg version="1.1" id="Layer_1" xmlns="http://www.w3.org/2000/svg" xmlns:xlink="http://www.w3.org/1999/xlink" x="0px" y="0px"
	 width="1000px" height="1000px" viewBox="0 0 1000 1000" enable-background="new 0 0 1000 1000" xml:space="preserve">
<g id="vs-highlight">
	<path fill="#5DBFD9" d="M578.9,291.5"/>
	<path fill="#5DBFD9" d="M424.7,303.9c0.2,17,2.2,30.8,4.2,40.6c3,15,5.6,19.4,7.3,21.9c7.4,10.8,18.8,15.2,28.2,18.8
		c14,5.2,25.9,6,30.2,6.2c35.9,2,71.3,2,86.5,2c-2.9,4.3-3.8,7.8-4.2,10.4c-0.2,2.3-0.1,5.2-2,7.3c0,0-1.2,1.3-3.1,2
		c-5.8,2.2-141,3.8-173,4.2c-2.8-1.1-5.5-2-8.4-3.1c1.2-0.1,3.7-0.4,6.2-2c4.2-2.8,5-7.4,5.2-8.4c5.2-32.6,10.4-65.3,15.6-97.9
		C419.8,305.3,422.3,304.7,424.7,303.9z"/>
	<path fill="#5DBFD9" d="M839.4,489.4c-197.2,1.8-394.6,3.5-591.8,5.2C230.3,573,212.9,651.6,195.5,730c-3.5,0-6.9,0-10.4,0
		c0-85.8,0-171.6,0-257.4c218.1,0,436.2,0,654.3,0C839.4,478.3,839.4,483.9,839.4,489.4z"/>
</g>
<g id="vs-outline_1_">
	
		<path fill="none" stroke="#000000" stroke-width="6.2516" stroke-linecap="round" stroke-linejoin="round" stroke-miterlimit="10" d="
		M406,372l-129.7,0.2c-6.2,0-12.5,0-18.8,0c-29.4,27.3-58.7,54.5-88.1,81.8c0,6.2,0,12.5,0,18.8c225.4,0,450.9,0,676.2,0
		c0-6.7,0-13.2,0-19.9c-17.7-26-35.5-52.1-53.2-78.1c-68.4,0-136.9,0-205.4,0"/>
	
		<path fill="none" stroke="#000000" stroke-width="6.2516" stroke-linecap="round" stroke-linejoin="round" stroke-miterlimit="10" d="
		M169.4,453.9c225.4,0,450.9,0,676.2,0"/>
	
		<path fill="none" stroke="#000000" stroke-width="6.2516" stroke-linecap="round" stroke-linejoin="round" stroke-miterlimit="10" d="
		M185.1,472.8c0,85.9,0,171.7,0,257.5c218.1,0,436.2,0,654.3,0c0-85.9,0-171.7,0-257.5"/>
	
		<path fill="none" stroke="#000000" stroke-width="6.2516" stroke-linecap="round" stroke-linejoin="round" stroke-miterlimit="10" d="
		M368.4,387.3c10.4,6,20.8,11.7,31.3,17.7c5.5-32,11.1-63.9,16.7-95.9c0.4-1.1,1.2-3.2,3.1-5.2c0.8-0.8,2.5-2.3,5.2-3.1
		c57.3,0.4,114.7,0.7,171.9,1.1c0.6,0.1,2.8,0.4,4.2,2c1.8,2,1.9,5.5,0,8.4c-7.3,30-14.6,59.7-21.9,89.6c-1.1,0.8-2.4,2.2-3.1,4.2
		c-1,2.4-0.4,3.7-1.1,5.2c-0.7,1.4-2.8,2.9-8.4,3.1c-54.9,1.3-109.8,2.8-164.6,4.2c-1.8-0.7-3.5-1.3-5.2-2
		c-8.6-7.3-17.4-14.6-26-21.9C369.9,392.2,369.1,389.7,368.4,387.3c9.3-1.1,20.8-2,30.2-3.1"/>
	
		<path fill="none" stroke="#000000" stroke-width="6.2516" stroke-linecap="round" stroke-linejoin="round" stroke-miterlimit="10" d="
		M399.7,405.1c59.7-1.1,119.5-2,179.2-3.1"/>
</g>
<g id="vs-h-reveal">
	
		<path opacity="0" fill="none" stroke="#000000" stroke-width="98.9848" stroke-linecap="round" stroke-linejoin="round" stroke-miterlimit="10" d="
		M392.1,306.4c129.9-0.4,255.9,29,187.2,29.4C346.1,337,351.8,335.4,396,348c74.8,21.3,265.4-0.9,221,33c-17,13-233-2-233,30
		c0,25-31.7,7,213.3,7c41.9,0-403.9,51.9-400,52.6c49.8,8.7,285.8,8.3,511.1,8c46.8,0,94.3,0,139.6,11.9c9.3,2.5-624,9.7-627.4,18.8
		c-47.7,0.6,68.7,1.2,20.8,2C135,516,204,536,205.7,532.5c28.4,0,58.7,0.7,81.6,17.5c-14.4,12.9-35.6,13.8-55,14
		c-40.3-0.1,4.5,23.8,1.2,30.8c-6.4,13.6-37.5-9.2-48.9,35.2c-9.8,38.2,47.8-0.2,45.1,15.1c-3.7,20.8-91.8,30-22.2,37
		c60.6,6.1,23.5,21.8-12.2,28.5c-76.9,14.4-24,19.4,32.6,19.3"/>
</g>
</svg>
