<?xml version="1.0" encoding="utf-8"?>
<!-- Generator: Adobe Illustrator 15.0.0, SVG Export Plug-In . SVG Version: 6.00 Build 0)  -->
<!DOCTYPE svg PUBLIC "-//W3C//DTD SVG 1.1//EN" "http://www.w3.org/Graphics/SVG/1.1/DTD/svg11.dtd">
<svg version="1.1" id="Layer_1" xmlns="http://www.w3.org/2000/svg" xmlns:xlink="http://www.w3.org/1999/xlink" x="0px" y="0px"
	 width="270px" height="403px" viewBox="0 0 270 403" enable-background="new 0 0 270 403" xml:space="preserve">
<polygon fill="#363F3A" points="89.25,327.5 81.25,339.5 91.75,337 "/>
<path fill="#363F3A" d="M181.25,341c1.5-0.5,11-10.5,11-10.5l-6.5-8.5L181.25,341z"/>
<path fill="#909491" d="M82.25,294l6,53.5c0,0-3,5.5-1,9s1,5.5,24,6s62,1.5,68-4.5s10-39.5,10-39.5l1-22L82.25,294z"/>
<path fill="#FFFFFF" d="M68.75,71.5c1.5,0.5,5.5,5,7,11.5s-21.5,10-23,7s-4-8.5-4-8.5L68.75,71.5z"/>
<path fill="#FFFFFF" d="M209.75,76c-2.059-0.128-8,9.5-1.5,14s15.5,12,16.5,2.5S225.75,77,209.75,76z"/>
<rect x="97.25" y="163" fill="#FFFFFF" width="72.5" height="126"/>
<path fill="#E7CFB6" d="M225.75,83c0,0,1.5-16,2-21.5s-4.5-10-4.5-10s-5-7-8-6.5s-10,1-7.5,10.5s7,21.5,5.5,22S225.75,83,225.75,83z
	"/>
<path fill="#E7CFB6" d="M72.75,72.5c0,0-6-2.5-5-9s8.5-10.5,6-18S73.25,34,73.25,34l-6,12.5c0,0-0.5-7-3-6.5s-3,6-3,6
	s-4.5-3.5-5.5-1s-0.5,7-0.5,9s-3.5,11-1.5,14s1,12,1,12L72.75,72.5z"/>
<path fill="#E7CFB6" d="M118.25,165.5c0,0,4.375,6.188,7,17.5s-5,17.5,7,28.5c5.277,4.838,13.5-33.5,15.5-40.5s3.5-14.5,3.5-14.5
	s0.5-14-7-16.5c-3.182-1.061-24-2.5-27.5,4.5S112.25,158,118.25,165.5z"/>
<path fill="#AE7A2A" d="M156.25,154.5c0,0,4-19.5-7.5-32.5s-29-3.5-35.5,8s-6.5,32.5-6.5,32.5s4.5,65,4.5,63s6-17.5,6.5-23
	s0-32.5,0-32.5s-4-19.5-1-25.5s15-5,15-5s16.5-0.5,18,5c0.613,2.248,2.373,10.581,1.5,25c-1.262,20.855-5.5,49.5-5.5,49.5
	S156.75,162,156.25,154.5z"/>
<path fill="#363F3A" d="M183.75,267.5c0,0-14-28-12-39s-1-26.5,0.5-31.5s14-19.5,15-29s11-17,14.5-23.5s0.5-19,5.5-24
	s15.5-22.5,15.5-22.5l-16.5-12.5c0,0-14,33.5-24,47s-16.5,25.5-18,25s-6.5-1.5-7.5,2s-11.5,55-7,66s16.5,21.5,16.5,21.5l-3,29.5
	c0,0-20.5,0.5-33-1s-28.5-2-28.5-2l-2-30.5l11-21c0,0,2-40.5-1-50s-3-9.5-3-9.5s-5.5-4-6.5-10s0.5-16-6-20.5s-8-16.5-11.5-26.5
	s-7-22.5-7-22.5l-23,7c0,0,16.5,27.5,16.5,33.5s5,21.5,7,27.5s20.5,50,18.5,63.5s-15,47.5-15,47.5s-17.5-14-24.5-6.5
	s-13,21.5-4.5,28.5s34.5,39.5,34.5,39.5s-2-28-0.5-28.5s25.5,0.5,25.5,0.5l80,1l-0.5,19c0,0,27-20.5,27.5-33
	S221.25,259,183.75,267.5z"/>
<path fill="none" stroke="#000000" stroke-width="1.5" stroke-linecap="round" stroke-linejoin="round" stroke-miterlimit="10" d="
	M212.917,77.667c-0.69-1.542,1.248-5.301,1-7.667c-0.276-2.636-1.552-4.164-2.741-6.576c-2.926-5.934-3.496-13.039-0.201-19.031
	c2.797,0.015,1.953,7.728,3.525,9.957c2.052,2.908,5.529,4.461,7.417,7.65"/>
<path fill="none" stroke="#000000" stroke-width="1.5" stroke-linecap="round" stroke-linejoin="round" stroke-miterlimit="10" d="
	M223.917,83c5.308-6.212,3.248-14.695,3.333-22.259c0.016-1.299,1.555-10.339-2.016-8.691c-1.195,0.552-1.479,5.297-0.733,6.291
	c1.218,1.622,3.015,1.023,2.416-1.341"/>
<path fill="none" stroke="#000000" stroke-width="1.5" stroke-linecap="round" stroke-linejoin="round" stroke-miterlimit="10" d="
	M215.917,46c0.961,2.617,0.843,12.63,5.272,11.617c1.123-0.257-0.535-7.842-1.156-8.542c-3.771-4.245-2.229,3.752-3.783,5.29
	c-2.113-1.285-2.111-5.275-1.333-7.366"/>
<path fill="none" stroke="#000000" stroke-width="1.5" stroke-linecap="round" stroke-linejoin="round" stroke-miterlimit="10" d="
	M72.25,73.333c-1.895-1.083-4.643-5.848-4.999-8c-0.634-3.83,2.706-7.108,4.265-10.276c1.674-3.404,1.944-6.747,1.401-10.39
	c-0.48-3.226,0.011-6.457-0.383-9.623c-3.326,0.985-3.188,5.461-3.617,8.29c-0.58,3.83-4.819,4.848-5.334,8.333"/>
<path fill="none" stroke="#000000" stroke-width="1.5" stroke-linecap="round" stroke-linejoin="round" stroke-miterlimit="10" d="
	M58.583,44.667c3.229-0.395,3.288,3.284,2.878,5.55c-2.616-1.659,2.992-6.388,2.981-3.421c-2.099-0.786-3.439-3.522-1.859-5.462"/>
<path fill="none" stroke="#000000" stroke-width="1.5" stroke-linecap="round" stroke-linejoin="round" stroke-miterlimit="10" d="
	M54.917,47.667c-0.191,1.803-0.071,4.391,2.023,4.629c1.128-1.952-0.987-4.75-3.023-3.963"/>
<path fill="none" stroke="#000000" stroke-width="1.5" stroke-linecap="round" stroke-linejoin="round" stroke-miterlimit="10" d="
	M49.25,81.667c3.909-2.513,9.936-3.658,14.434-5.275c3.122-1.124,6.214-2.711,9.399-3.536c0.509,5.967,3.219,11.045,5.357,16.537
	c2.895,7.433,3.387,15.399,5.551,23.024c1.181,4.161,2.631,8.339,4.268,12.257c1.484,3.552,2.979,4.855,5.659,7.335
	c5.411,5.009,5.071,12.886,5.926,19.675c0.322,2.558,0.428,7.334,2.074,8.656c1.841,1.478,4.592,0.529,6.332,2.994"/>
<path fill="none" stroke="#000000" stroke-width="1.5" stroke-linecap="round" stroke-linejoin="round" stroke-miterlimit="10" d="
	M91.583,177c2.506-5.448,6.55-10.453,7-17.333"/>
<path fill="none" stroke="#000000" stroke-width="1.5" stroke-linecap="round" stroke-linejoin="round" stroke-miterlimit="10" d="
	M53.917,91c0.665,2.937,2.999,5.634,4.017,8.576c1.345,3.884,2.642,7.498,4.566,11.182c2.772,5.306,5.881,10.168,6.425,16.234
	c0.423,4.715,0.323,6.8,2.585,11.008c2.249,4.183,3.746,7.768,4.481,12.425c1.331,8.436,4.648,15.548,7.834,23.485
	c2.858,7.12,6.964,15.473,8.018,23.083c1.309,9.452,2.752,19.844,1.081,29.427c-1.416,8.113-4.066,15.491-6.673,23.182
	c-0.771,2.275-6.241,13.547-7.668,12.399"/>
<path fill="none" stroke="#000000" stroke-width="1.5" stroke-linecap="round" stroke-linejoin="round" stroke-miterlimit="10" d="
	M48.583,81.333C49.05,88.408,52.75,91,59.169,89.4c4.124-1.028,6.714-0.684,10.581-2.9c1.733-0.993,4.742-0.149,4.5-2.5"/>
<path fill="none" stroke="#000000" stroke-width="1.5" stroke-linecap="round" stroke-linejoin="round" stroke-miterlimit="10" d="
	M131.25,138.667c-0.002-4.024,0.421-7.867,1.333-11.741c0.814-3.46,3.112-6.926,3.667-10.259"/>
<path fill="none" stroke="#000000" stroke-width="1.5" stroke-linecap="round" stroke-linejoin="round" stroke-miterlimit="10" d="
	M108.917,160.667c0-10.677,0.022-21.827,5.649-31.342c4.088-6.914,12.891-13.757,21.292-13.267c0.09,0.375,0.235,0.609,0.393,0.942"
	/>
<path fill="none" stroke="#000000" stroke-width="1.5" stroke-linecap="round" stroke-linejoin="round" stroke-miterlimit="10" d="
	M136.917,139.667c7.259-0.004,15.074,3.279,17,11"/>
<path fill="none" stroke="#000000" stroke-width="1.5" stroke-linecap="round" stroke-linejoin="round" stroke-miterlimit="10" d="
	M150.25,129c0.271,4.012,2.641,7.923,3.352,11.926c0.707,3.993,0.389,8.398-0.009,12.408c-0.776,7.857,0.216,16.415-1.751,24.092
	c-2.089,8.155-5.5,14.809-5.592,23.483c-0.057,5.245,1.506,14.981-1.333,19.425"/>
<path fill="none" stroke="#000000" stroke-width="1.5" stroke-linecap="round" stroke-linejoin="round" stroke-miterlimit="10" d="
	M137.25,115.667c-0.3,0.007-0.602,0.002-0.898-0.008c9.441,2.251,14.147,5.119,17.656,14.341c3.9,10.247,3.559,22.899,2.159,33.585
	c-1.526,11.663-3.808,23.146-5.824,34.756c-0.794,4.571-1.885,9.12-3.101,13.576c-0.708,2.594-1.369,7.452-2.992,9.417"/>
<path fill="none" stroke="#000000" stroke-width="1.5" stroke-linecap="round" stroke-linejoin="round" stroke-miterlimit="10" d="
	M108.917,159.667c-1.467,4.505-0.048,11.147,0.592,15.741c0.839,6.027,1.415,12.214,1.408,18.325
	c-0.007,5.633,0.094,11.134,0.592,16.676c0.193,2.151,0.876,12.015-0.592,12.592"/>
<path fill="none" stroke="#000000" stroke-width="1.5" stroke-linecap="round" stroke-linejoin="round" stroke-miterlimit="10" d="
	M115.917,165c-1.655,3.899,1.077,9.338,2.091,13.334c1.294,5.097,0.799,10.358,0.575,15.647c-0.259,6.098-2.646,12.473-4.091,18.451
	c-0.898,3.713-2.697,8.828-2.575,12.568"/>
<path fill="none" stroke="#000000" stroke-width="1.5" stroke-linecap="round" stroke-linejoin="round" stroke-miterlimit="10" d="
	M129.917,138.667c-2.712,0.858-5.079,0.009-7.685,1.75c-2.167,1.449-5.268,4.263-6.575,6.317
	c-4.476,7.031-0.699,14.568,2.926,20.926c2.731,4.79,4.367,11.414,9.019,14.582c6.041,4.114,12.632-1.426,15.923-6.573
	c2.623-4.104,7.414-9.925,7.732-15.009c0.153-2.455,0.835-13.558-1.341-14.326"/>
<path fill="none" stroke="#000000" stroke-width="1.5" stroke-linecap="round" stroke-linejoin="round" stroke-miterlimit="10" d="
	M172.917,205.334c-3.199-7.827,3.253-14.966,7.999-20.334c7.408-8.379,4.011-19.613,8.752-29c1.661-3.289,5.703-5,8.207-7.399
	c3.045-2.919,5.129-6.524,6.133-10.618c1.03-4.198,0.605-8.809,1.836-12.907c1.18-3.925,5.756-7.012,8.324-10.318
	c3.719-4.786,7.721-10.97,9.039-16.699c-8.047,0.129-11.742-7.536-17.216-11.689c-0.329,0.986-0.979,1.682-1.408,2.631"/>
<path fill="none" stroke="#000000" stroke-width="1.5" stroke-linecap="round" stroke-linejoin="round" stroke-miterlimit="10" d="
	M156.917,161.333c-0.707-1.679,2.176-5.013,4.333-5.35c3.494-0.544,3.005,2.298,5.918-1.56c4.244-5.621,7.934-12.047,12.014-17.856
	c2.573-3.663,5.364-7.317,7.811-11.144c3.042-4.762,4.552-10.143,7.259-15.097c2.108-3.859,4.521-7.296,6.085-11.393
	c0.773-2.027,1.301-5.744,1.915-6.935"/>
<path fill="none" stroke="#000000" stroke-width="1.5" stroke-linecap="round" stroke-linejoin="round" stroke-miterlimit="10" d="
	M222.583,49.667c-0.276-0.251-0.197-0.567-0.666-0.707c-1.171,1.342-3.345,9.272-0.325,9.046c2.174-0.163,2.361-7.911-0.342-8.006"
	/>
<path fill="none" stroke="#000000" stroke-width="1.5" stroke-linecap="round" stroke-linejoin="round" stroke-miterlimit="10" d="
	M57.25,43.667c-1.745-0.139-1.426,6.231,1.333,6.598c4.192,0.557,0.619-5.303-1-6.265"/>
<path fill="none" stroke="#000000" stroke-width="1.5" stroke-linecap="round" stroke-linejoin="round" stroke-miterlimit="10" d="
	M63.583,40c-0.557,1.252-0.571,7.36,2.601,5.617c2.633-1.448-0.827-7.811-3.934-5.95"/>
<path fill="none" stroke="#000000" stroke-width="1.5" stroke-linecap="round" stroke-linejoin="round" stroke-miterlimit="10" d="
	M55.917,79c-0.086-2.163,1.078-4.104,0.674-6.333c-0.419-2.31-2.469-3.994-3.09-6.333c-1.281-4.832,1.016-9.15,4.082-12.667"/>
<path fill="none" stroke="#000000" stroke-width="1.5" stroke-linecap="round" stroke-linejoin="round" stroke-miterlimit="10" d="
	M209.917,76c5.332,3.575,11.406,5.736,17.281,8.057c-1.323,4.549-1.468,9.256-5.615,12.61"/>
<path fill="none" stroke="#000000" stroke-width="1.5" stroke-linecap="round" stroke-linejoin="round" stroke-miterlimit="10" d="
	M206.25,85.667c-0.113-3.152,1.029-5.956,3-8.333"/>
<path fill="none" stroke="#000000" stroke-width="1.5" stroke-linecap="round" stroke-linejoin="round" stroke-miterlimit="10" d="
	M160.917,239c-4.724-4.134-9.134-8.357-10.75-14.717c-2.051-8.071-0.181-17.182,1.073-25.2c0.863-5.522,1.119-10.956,2.435-16.359
	c0.615-2.529,0.794-4.244,0.558-6.706c-0.229-2.385-0.95-5.472,0.352-7.684"/>
<path fill="none" stroke="#000000" stroke-width="1.5" stroke-linecap="round" stroke-linejoin="round" stroke-miterlimit="10" d="
	M162.25,157c-1.631,6.657-2.927,15.457-1.926,22.334c1.32,9.079,3.685,15.161,0.925,24.333c-1.987,6.604-2.599,13.086-3.749,19.757
	c-0.717,4.154-0.57,8.652,3.083,11.576"/>
<path fill="none" stroke="#000000" stroke-width="1.5" stroke-linecap="round" stroke-linejoin="round" stroke-miterlimit="10" d="
	M178.583,273.667c-3.797-7.007-5.774-14.778-9.665-21.683c-2.436-4.319-4.234-11.244-9.001-13.317"/>
<path fill="none" stroke="#000000" stroke-width="1.5" stroke-linecap="round" stroke-linejoin="round" stroke-miterlimit="10" d="
	M182.583,266.334c-2.417-5.854-4.087-11.705-6.233-17.676c-1.933-5.37-4.326-10.174-5.182-15.975
	c-0.736-5.004,0.738-9.386,1.405-14.26c0.631-4.602,0.679-9.438,0.677-14.091"/>
<path fill="none" stroke="#000000" stroke-width="1.5" stroke-linecap="round" stroke-linejoin="round" stroke-miterlimit="10" d="
	M79.583,265c4.261-7.771,11.847-14.195,17.741-20.658c3.617-3.966,6.592-7.926,8.981-12.75c1.59-3.21,4.628-8.088,5.277-11.592"/>
<path fill="none" stroke="#000000" stroke-width="1.5" stroke-linecap="round" stroke-linejoin="round" stroke-miterlimit="10" d="
	M90.583,275c0-7.418-3.068-18.559,1-25"/>
<path fill="none" stroke="#000000" stroke-width="1.5" stroke-linecap="round" stroke-linejoin="round" stroke-miterlimit="10" d="
	M99.583,276.667c3.021-8.14,1.051-26.55-0.333-33.167"/>
<path fill="none" stroke="#000000" stroke-width="1.5" stroke-linecap="round" stroke-linejoin="round" stroke-miterlimit="10" d="
	M162.916,278c-0.073-3.414-0.031-4.365,0.668-8.352c1.166-6.648,0.091-20.196,2.666-22.148"/>
<path fill="none" stroke="#000000" stroke-width="1.5" stroke-linecap="round" stroke-linejoin="round" stroke-miterlimit="10" d="
	M111.583,295.334c-6.387-4.799-13.307-9.582-19.593-14.593c-7.703-6.142-13.776-12.774-23.407-16.074"/>
<path fill="none" stroke="#000000" stroke-width="1.5" stroke-linecap="round" stroke-linejoin="round" stroke-miterlimit="10" d="
	M70.25,274c4.867-0.124,10.738,3.541,14.919,5.592c2.08,1.021,8.981,2.354,9.747,4.075"/>
<path fill="none" stroke="#000000" stroke-width="1.5" stroke-linecap="round" stroke-linejoin="round" stroke-miterlimit="10" d="
	M48.916,266.334c-5.232,0.229-1.046,12.439,0.409,14.926c2.883,4.924,7.229,8.572,11.331,12.408
	c9.112,8.523,17.021,17.368,24.26,27.332"/>
<path fill="none" stroke="#000000" stroke-width="1.5" stroke-linecap="round" stroke-linejoin="round" stroke-miterlimit="10" d="
	M60.916,280.334c-0.904,1.9,2.906,10.036,3.926,12.684c0.768,1.991,1.876,3.955,3.074,5.649"/>
<path fill="none" stroke="#000000" stroke-width="1.5" stroke-linecap="round" stroke-linejoin="round" stroke-miterlimit="10" d="
	M48.25,265.667c-0.362-1.769,5.082-8.674,7.333-10.09c4.305-2.709,9.354-1.981,13.731-0.485c7.655,2.614,13.034,8.723,18.936,13.575
	"/>
<path fill="none" stroke="#000000" stroke-width="1.5" stroke-linecap="round" stroke-linejoin="round" stroke-miterlimit="10" d="
	M68.583,263c3.594-0.63,11.159,3.336,14,5.659c3.239,2.647,6.574,7.343,8.333,11.008"/>
<path fill="none" stroke="#000000" stroke-width="1.5" stroke-linecap="round" stroke-linejoin="round" stroke-miterlimit="10" d="
	M94.916,283.667c-0.033-2.062,3.208-6.508,5.066-7.601c2.505-1.469,7.073-1.037,9.925-1.066c8.017-0.084,15.967-0.716,23.935-0.333
	c7.416,0.356,14.579,0.666,21.99,1c5.336,0.24,10.301,4.197,9.945,10.358c-0.064-0.01-0.131-0.018-0.194-0.025"/>
<path fill="none" stroke="#000000" stroke-width="1.5" stroke-linecap="round" stroke-linejoin="round" stroke-miterlimit="10" d="
	M104.583,276.667c-2.906,1.065-4.926,5.747-3.667,8.333"/>
<path fill="none" stroke="#000000" stroke-width="1.5" stroke-linecap="round" stroke-linejoin="round" stroke-miterlimit="10" d="
	M155.25,289.334c-0.008-2.882,0.328-10.387-3-11.334"/>
<path fill="none" stroke="#000000" stroke-width="1.5" stroke-linecap="round" stroke-linejoin="round" stroke-miterlimit="10" d="
	M104.583,287c-0.246-3.236,0.497-7.114,2.667-9.333"/>
<path fill="none" stroke="#000000" stroke-width="1.5" stroke-linecap="round" stroke-linejoin="round" stroke-miterlimit="10" d="
	M154.916,276.334c3.177,0.473,3.254,6.45,4,9"/>
<path fill="none" stroke="#000000" stroke-width="1.5" stroke-linecap="round" stroke-linejoin="round" stroke-miterlimit="10" d="
	M145.583,296c7.368-5.712,16.187-9.312,23.093-15.665c5.48-5.042,11.626-12.463,18.866-14.669c4.644-1.415,9.53-0.762,14.324-1
	c3.804-0.189,7.061-1.094,10.143,1.335c6.898,5.438,7.769,12.78,3.99,20.313c-3.978,7.93-8.728,14.156-15.416,20.02
	c-4.421,3.874-7.556,5.046-10.833,9.666"/>
<path fill="none" stroke="#000000" stroke-width="1.5" stroke-linecap="round" stroke-linejoin="round" stroke-miterlimit="10" d="
	M104.25,287c5.586-2.578,15.834-0.271,22.25,0.074c9.332,0.501,19.713,4.115,29.083,1.926"/>
<path fill="none" stroke="#000000" stroke-width="1.5" stroke-linecap="round" stroke-linejoin="round" stroke-miterlimit="10" d="
	M88.916,295.334c-1.334,0.092-2.624-0.117-3.897-0.326c5.533-1.613,12.822-0.335,18.564-0.007c4.773,0.272,9.561,0.433,14.351,0.647
	c4.167,0.188,8.187,1.113,12.325,1.352c5.546,0.316,11.251-0.59,16.755-1.073c7.978-0.698,16.889-1.377,24.92-0.61
	c6.553,0.627,12.89,0.031,19.605,0.402c-0.518,4.156-1.96,7.858-1.956,12.266c0.005,5.469,0.031,10.894-0.749,16.283
	c-0.688,4.752-2.484,9.321-3.261,14.059c-0.653,3.994-0.347,8.16-1.665,12.009c-0.627,1.829,0.248,1.876-1.658,2.664
	c-1.311,0.541-4.887-0.595-6.334-0.672c-8.169-0.438-16.385-0.326-24.592-0.326c-14.79,0-29.584,1.382-44.407,0.675
	c-4.794-0.229-10.222-0.054-14.399-1.926c-0.865-0.389-3.765-1.43-4.293-2.074c-1.728-2.107-1.127-8.27-1.234-11.029
	c-0.512-13.182-1.74-27.553-1.74-39.979"/>
<path fill="none" stroke="#000000" stroke-width="1.5" stroke-linecap="round" stroke-linejoin="round" stroke-miterlimit="10" d="
	M141.916,277.667c-0.407,0.401-1.02,0.163-0.615,1.282c1.533-0.092,1.475-0.031,1.564-1.564c-1.455-0.039-1.533-0.125-1.906,1.232
	c0.688,0.262,0.973-0.206,1.291-0.283"/>
<path fill="none" stroke="#000000" stroke-width="1.5" stroke-linecap="round" stroke-linejoin="round" stroke-miterlimit="10" d="
	M141.583,284.334c0.065-0.073-0.462-0.1-0.282,0.949c1.18,0.271,1.053-0.248,1.282-0.616"/>
<path fill="none" stroke="#000000" stroke-width="1.5" stroke-linecap="round" stroke-linejoin="round" stroke-miterlimit="10" d="
	M125.25,182.667c0.203,6.732,4.564,10.497-0.408,15.984c-3.123,3.447-6.372,11.217-3.008,15.44c1.782,2.237,3.583,1.944,6.065,1.566
	c3.917-0.597,4.733-0.251,5.943,4.01c1.1,3.872,0.789,8.282,1.147,12.333c0.552,6.23,1.068,12.459,1.945,18.667
	c0.922,6.549,1.616,16.885-1.02,22.667"/>
<path fill="none" stroke="#000000" stroke-width="1.5" stroke-linecap="round" stroke-linejoin="round" stroke-miterlimit="10" d="
	M142.916,184.667c-0.24,6.472-4.818,12.074-6.084,18.407c-0.542,2.714-0.512,5.66-1.23,8.275c-0.538,1.959-1.732,3.661-2.019,5.649"
	/>
<path fill="none" stroke="#000000" stroke-width="1.5" stroke-linecap="round" stroke-linejoin="round" stroke-miterlimit="10" d="
	M138.916,217c-0.602,1.898,5-10.333,5.667-20.333"/>
<path fill="none" stroke="#000000" stroke-width="1.5" stroke-linecap="round" stroke-linejoin="round" stroke-miterlimit="10" d="
	M133.583,217.667c1.284-0.571,3.687-0.44,5.333-0.667"/>
<path fill="none" stroke="#000000" stroke-width="1.5" stroke-linecap="round" stroke-linejoin="round" stroke-miterlimit="10" d="
	M134.916,207.667c-0.983,3.017-2.889,4.969-2.648,8.549c-1.297-2.421-1.667-5.344-3.102-7.872c-1.574-2.775-3.748-5.34-5.583-8.01"
	/>
<path fill="none" stroke="#000000" stroke-linecap="round" stroke-linejoin="round" stroke-miterlimit="10" d="M131.25,222
	c-0.02,0.484-0.536,0.645-0.283,1.29c0.51-0.021,0.44-0.06,0.906-0.272c0.242-0.494-0.292-0.676-0.29-0.684"/>
<path fill="none" stroke="#000000" stroke-width="1.5" stroke-linecap="round" stroke-linejoin="round" stroke-miterlimit="10" d="
	M131.583,232.667c0.024-0.133-0.584-1.058-0.258-0.04c0.716-0.77-0.017-0.598-0.409-0.96"/>
<path fill="none" stroke="#000000" stroke-width="1.5" stroke-linecap="round" stroke-linejoin="round" stroke-miterlimit="10" d="
	M132.583,240.667c-0.078-0.069-0.385,0.456,0.642,0.258C133.139,240.404,132.851,240.909,132.583,240.667"/>
<path fill="none" stroke="#000000" stroke-width="1.5" stroke-linecap="round" stroke-linejoin="round" stroke-miterlimit="10" d="
	M133.916,249.334c-0.111,0-0.222,0-0.333,0"/>
<path fill="none" stroke="#000000" stroke-width="1.5" stroke-linecap="round" stroke-linejoin="round" stroke-miterlimit="10" d="
	M133.583,257c0-0.111,0-0.223,0-0.333"/>
<path fill="none" stroke="#000000" stroke-width="1.5" stroke-linecap="round" stroke-linejoin="round" stroke-miterlimit="10" d="
	M133.916,265.667c0,0.11,0,0.222,0,0.333"/>
<path fill="none" stroke="#000000" stroke-width="1.5" stroke-linecap="round" stroke-linejoin="round" stroke-miterlimit="10" d="
	M132.25,272.334c-0.026-0.249,0.084-0.359,0.333-0.334"/>
<path fill="none" stroke="#000000" stroke-width="1.5" stroke-linecap="round" stroke-linejoin="round" stroke-miterlimit="10" d="
	M119.916,203.667c-0.289-1.665-0.311-3.404-0.925-4.907c-0.427,3.699,3.191,6.899,1.925,10.907"/>
<path fill="none" stroke="#000000" stroke-width="1.5" stroke-linecap="round" stroke-linejoin="round" stroke-miterlimit="10" d="
	M85.25,330.334c-0.865,3.468-4.524,5.889-3.949,9.623c1.464-0.256,3.067-0.998,4.282-1.957"/>
<path fill="none" stroke="#000000" stroke-width="1.5" stroke-linecap="round" stroke-linejoin="round" stroke-miterlimit="10" d="
	M189.25,325c0.58,2.46,2.857,4.73,4.289,6.602c-2.74,1.955-7.658,6.701-8.623,9.732"/>
<path fill="none" stroke="#000000" stroke-width="1.5" stroke-linecap="round" stroke-linejoin="round" stroke-miterlimit="10" d="
	M87.583,352.334c6.027-1.814,15.683-1.713,22-0.925c9.828,1.227,18.853,1.235,28.69,0.25c15.641-1.568,30.953-0.718,46.26,0.058
	c1.193,8.213-13.336,9.571-18.949,9.958c-11.509,0.793-23.512,1.142-35.075,0.658c-9.674-0.403-19.291,0.001-28.992,0.001
	c-6.104,0-13.836,1.294-14.85-6.334c-0.229-1.721-0.688-3.498,1.583-4"/>
<path fill="none" stroke="#000000" stroke-width="1.5" stroke-linecap="round" stroke-linejoin="round" stroke-miterlimit="10" d="
	M134.25,322.667c-0.541-0.142-1.375-0.01-1.933,0.026c-2.795,7.092,9.25,7.957,8.596,1.565c-0.325-3.181-6.473-5.647-9.043-3.973
	c-2.829,1.845-1.417,7.537,1.38,8.713"/>
<path fill="none" stroke="#000000" stroke-width="1.5" stroke-linecap="round" stroke-linejoin="round" stroke-miterlimit="10" d="
	M97.916,350.334c-0.189-0.993-0.418-2.02-0.666-3"/>
<path fill="none" stroke="#000000" stroke-width="1.5" stroke-linecap="round" stroke-linejoin="round" stroke-miterlimit="10" d="
	M167.583,348c-0.092,0.309,0.181,1.779,0.667,2.667"/>
<path fill="none" stroke="#000000" stroke-width="1.5" stroke-linecap="round" stroke-linejoin="round" stroke-miterlimit="10" d="
	M175.25,347.667c-0.246,0.499-0.542,1.526-0.667,2.333"/>
<path fill="none" stroke="#000000" stroke-width="1.5" stroke-linecap="round" stroke-linejoin="round" stroke-miterlimit="10" d="
	M92.25,347.667c-0.121,0.599-0.013,1.179,0.333,1.667"/>
</svg>
