<?xml version="1.0" encoding="utf-8"?>
<!-- Generator: Adobe Illustrator 16.0.0, SVG Export Plug-In . SVG Version: 6.00 Build 0)  -->
<!DOCTYPE svg PUBLIC "-//W3C//DTD SVG 1.1//EN" "http://www.w3.org/Graphics/SVG/1.1/DTD/svg11.dtd">
<svg version="1.1" xmlns="http://www.w3.org/2000/svg" xmlns:xlink="http://www.w3.org/1999/xlink" x="0px" y="0px" width="400px"
	 height="400px" viewBox="0 0 400 400" enable-background="new 0 0 400 400" xml:space="preserve">
<g id="Layer_2">
	<path fill="none" stroke="#DDBC9B" stroke-width="14" stroke-linecap="round" stroke-linejoin="round" stroke-miterlimit="10" d="
		M81,147.667c-0.133-0.52,0.625,0.426-0.25,0.333c-1.949,3-1.244,7.216-1.508,10.661c-0.386,5.042-0.028,27.762-1.242,32.673
		c4.301-7.842,11.195-50.174,19.333-55.333c0.439,1.567-4.999,15.965-5.371,17.692c-1.452,6.746-3.677,13.327-5.221,20.062
		c-2.301,10.036-6.021,27-7.075,37.247c2.542-11.209,5.374-28.285,9.97-39.052c3.065-7.182,15.449-29.784,21.697-34.948
		c-6.208,11.691-18.997,36.112-22.382,48.925c-3.251,12.303-5.492,24.871-6.988,37.498c-0.598,5.047-0.813,10.209-2.012,15.159
		c1.474-3.368,1.109-8.037,1.363-11.609c0.862-12.135,2.552-23.889,6.204-35.55c4.716-15.063,21.661-37.72,32.149-49.756
		c-0.16,3.847-13.073,15.143-14.606,18.567c-5.839,13.046-10.918,26.507-15.115,40.174c-5.904,19.225-10.581,40.48-10.644,60.687
		c3.67-14.055,2.148-29.674,4.74-44.065c2.238-12.425,6.715-24.315,12.586-35.466c5.854-11.119,25.143-32.888,34.038-41.897
		c-1.723,4.429-17.383,18.489-19.683,22.668c-6.366,11.57-11.85,23.507-16.272,35.959c-10.668,30.039-2.579,72.08-5.711,103.373
		c-13-38.667-3.58-63.906,5.701-87.97c7.275-18.864,25.964-42.369,38.633-58.364c-1.784,3.984-13.3,11.005-15.367,14.844
		c-9.737,18.083-16.978,37.468-21.368,57.506c-3.78,17.253-5.441,34.653-4.48,52.313c0.287,5.271-0.24,13.552,2.629,18.289
		c3.239-3.103,1.512-11.771,1.35-15.835c-0.588-14.682-1.505-29.386-0.153-44.062c2.171-23.566,10.137-46.14,21.58-66.763
		c5.021-9.048,9.042-25.052,17.143-31.96c-1.162,6.356,15.805-1.381,13,4.333c-8.851,18.032-35.494,54.838-40.303,74.333
		c-5.575,22.597-8.418,45.806-9.727,69.014c-0.424,7.526,13.029,22.653-2.304,17.987c1.219-4.866,1.288-5.28,1.311-10.242
		c0.071-15.549,1.944-30.983,5.324-46.156c4.502-20.211,11.972-40.078,22.14-58.129c5.513-9.787,24.536-30.753,33.559-38.14
		c-2.368,5.36-18.088,17.733-20.667,23.023c-8.544,17.529-15.406,35.566-20.084,54.523C110.521,256.129,121.333,310,106,307.667
		c0.087-9.942,0.317-16.266,1.239-26.184c1.913-20.584,6.64-41.008,13.38-60.524c9.853-28.533,12.044-58.095,32.714-80.625
		c-1.602,4.554,27.3-2.878,25,1.333c-7.767,14.222-33.437,39.475-39.231,54.6c-10.774,28.119-15.621,59.639-17.675,89.594
		c-0.597,8.708-7.838,14.404-7.76,23.14c0.014,1.517,12.516-2.026,13-0.666c2.709-8.516-5.343-12.15-4.919-20.978
		c1.037-21.614,6.03-43.418,13.222-63.771c7.532-21.315,17.75-41.352,30.031-60.313c4.29-6.623-2.463-9.444,4.333-13.939
		c-4.524,8.913,1.979,9.885-2.531,18.815c-11.129,22.04-19.987,45.18-25.75,69.191c-4.578,19.073-7.282,38.819-8.964,58.358
		c-0.595,6.906,1.461,8.083,2.913,14.969c1.079-4.822-3.05-2.827-2.972-7.724c0.441-27.596,4.91-54.687,14.936-80.435
		c8.087-20.77,24.448-59.016,37.369-77.175c3.203-4.501,2.972-1.252,9.333-2.667c-0.655,5.9-3.893,15.834-6.607,20.931
		c-7.846,14.731-15.202,29.959-21.299,45.5c-7.445,18.978-12.998,38.748-16.806,58.766c-2.342,12.312-3.727,24.728-4.511,37.232
		c-0.365,5.826-1.615,0.342-0.443,6.239c3.775-5.139,2.749-4.949,3.304-10.891c2.053-21.986,5.072-43.484,11.339-64.732
		c5.693-19.302,13.562-37.353,23.108-55.03c4.705-8.712,17.583-21.309,23.916-29.014c-2.829,7.062-15.82,16.711-19.142,23.576
		c-9.325,19.269-16.56,38.585-21.534,59.438c-4.822,20.215-7.241,40.952-8.31,61.687c-0.436,8.471-5.784,6.613-3.681,14.967
		c3.263-4.202,5.28-3.492,5.369-8.369c0.348-19.062,7.05-38.1,11.63-56.631c6.119-24.759,15.293-49.115,28.333-71
		c4.418-7.416,0.142-28.036,5.667-34.667c2.201-2.642,11.507,1.532,15,0.333c1.541,6.147-8.392,18.272-10.667,23
		c-10.44,21.693-18.286,49.161-25.124,72.303c-6.425,21.745-29.881,79.396-14.542,62.697c1.316-1.433-12.561,1.462-13,10.667
		c-0.124,2.6,17.061,1.201,17.333-5.333c1.001-23.99,2.003-39.321,8.697-62.376c6.363-21.915,15.203-43.305,26.938-62.915
		c5.429-9.072,12.522-32.949,21.032-39.709c-2.238,6.404-8.566,23.785-11.962,29.681c-10.78,18.72-19.741,38.604-25.995,59.295
		c-7.031,23.263-11.481,47.388-12.993,71.648c-0.51,8.183-1.067,1.178-0.717,9.376c0.156,3.663,6.29,5.541,6.333-2
		c0.175-30.861,3.524-59.538,14.027-88.455c8.94-24.615,21.532-57.395,37.973-77.879c3.396-4.232,2.026,1.796,8.333,2.333
		c-0.333,1.881,3.5,2.783,2.333,4.333c-5.019,8.77-3.298,5.794-8.308,14.578c-13.865,24.312-25.453,50.021-33.004,77.052
		c-5.923,21.205-9.354,43.451-11.054,65.383c-0.763,9.845-4.179-23.206,0.901-49.002c5.073-25.764,14.23-50.042,27.129-72.926
		c6.279-11.14,18.172-41.955,30.002-49.085c2.155,2.769-14.367,35.644-15.656,37.945c-10.526,18.783-19.923,37.857-26.665,58.358
		c-6.487,19.726-11.345,39.929-14.724,60.407c-1.137,6.893-3.318,14.944-2.687,21.977c2.48-6.503,2.819-15.324,3.783-21.852
		c3.885-26.333,9.917-51.546,19.078-76.623c7.394-20.244,17.698-38.367,30.153-55.96c3.896-5.954,10.771-14.829,15.718-19.919
		c1.757-1.836,9.161,0.766,12,0c-0.589,1.997-0.98,9.704-2.334,11.333c-4.766,7.646-16.582,5.56-21.112,13.354
		c-11.863,20.414-22.024,41.744-29.899,64.023c-10.104,28.587-17.98,53.173-19.654,83.623c2.332-7.094,2.931-7.834,4.11-15.089
		c3.941-24.242,9.596-48.316,17.741-71.524c5.485-15.629,12.609-30.725,20.843-45.088c5.803-10.123,11.978-21.359,20.412-29.616
		c1.036,2.598-7.837,15.014-8.721,16.646c-7.997,14.762-15.517,29.877-21.747,45.475c-8.439,21.126-14.564,42.716-18.945,65.045
		c-0.149,0.763-8.358,31.648-3.476,34.688c5.137-7.688,5.772-21.398,7.684-29.851c5.148-22.761,11.571-44.87,20.513-66.467
		c7.453-18.001,16.503-35.225,26.926-51.681c6.804-10.742,10.301-17.485,19.327-26.54c-1.279,2.962,16.621-0.335,15,2
		c-9.211,13.277-35.35,30.727-42.872,45.016c-10.527,19.999-17.505,40.752-23.698,62.534c-6.098,20.968-10.801,42.235-14.108,63.802
		c-0.996,4.671,6.351-3.06,6.679,1.648c3.444-7.507-3.637-6.143-2.021-13.921c4.342-20.907,10.631-40.884,18.319-60.837
		c13.302-34.522,45.414-66.819,70.368-94.243c-0.089,3.481-24.017,14.368-25.659,16.665c-13.283,18.566-24.838,38.39-33.951,59.336
		c-6.976,16.029-12.836,32.764-17.113,49.722c-0.636,2.518-9.896,41.938-5.942,42.944c5.07-8.355,9.584-33.66,12.751-42.72
		c6.672-19.087,13.935-37.986,23.3-55.935c10.013-19.19,42.394-45.648,56.615-62.012c0.68,1.485-30.945,23.331-31.243,23.785
		c-9.834,14.982-18.526,30.892-26.042,47.153c-13.195,28.553-21.988,58.791-29.409,89.28c0.375,0.071,3.993-15.064,4.061-15.327
		c4.58-17.67,10.496-34.681,17.906-51.375c6.797-15.314,14.769-29.908,24.068-43.85c5.354-8.025,28.223-28.588,36.326-34.333
		c-2.924,7.245-2.72,12.592-7,19c-9.47,14.178-41.021,39.653-48.315,55.068c-6.925,14.636-13.026,29.804-17.65,45.33
		c-1.863,6.26-6.127,18.768-5.034,25.603c3.234-3.418,3.825-12.609,5.325-16.778c4.652-12.928,9.972-25.55,16.21-37.799
		c6.773-13.3,14.355-26.501,23.271-38.497c3.954-5.318,30.783-31.2,36.193-35.259c-0.469,1.811-0.165,31.159-1.333,32.667
		c-5.681,9.592-14.707,13.069-18,18.333c-8.244,13.179-34.525,21.388-40.922,35.598c-0.474,1.053-13.63,36.639-13.078,42.736
		c8.155-12.571,13.754-36.169,21.32-49.15c7.876-13.513,33.705-50.88,45.013-61.85c-0.921,2.324,8.325,29.204,7,31.333
		c-6.184,9.944-40.302,18.914-46.086,29.107c-4.268,7.52-8.173,15.164-11.697,23.059c-1.854,4.153-7.282,21.862-7.884,26.501
		c1.774-1.063,5.084-15.365,6.332-17.23c4.904-7.336,8.804-15.272,13.346-22.829c6.074-10.105,20.557-22.221,29.322-30.273
		c1.334,31.666-21.564,21.475-27.672,32.307c-3.66,6.49-7.173,13.069-10.444,19.766c-1.334,2.731-2.874,16.808-2.884,19.928
		c3.39-2.685,12.751-9.127,15-12.667c2.722-4.383-2.501-17.593,0.488-21.799c4.316-6.081,38.034-34.834,45.179-38.201
		c4,39.333-20.434,46.325-25.333,56c-1.656,3.269-27.234,13.66-25,17.333c29.667-1,9.843-25.351,12.666-28.667
		c4.055-4.763,23.705-23.448,28.334-27.666c-1.47,8.625-31.667,57-15.667,56c4.446-0.393,21.673-41.54,25-34.667
		c1.435,2.964-16.003,31.135-14,34.334c0.952,1.521,10.396-17.444,11.667-16.334c2.984,2.608-2.662,13.021-0.334,16.334"/>
	<path fill="none" stroke="#DDBC9B" stroke-width="9" stroke-linecap="round" stroke-linejoin="round" stroke-miterlimit="10" d="
		M96,131.25c3.288,1.881,9.965-0.118,13.75,0.25c3.916,0.381,7.097,1.362,10.934,0.626c9.855-1.891,20.04,0.796,29.823-0.119
		c7.883-0.737,16.237-0.332,24.175,0.048c6.314,0.303,12.844-0.472,19.1,0.194c3.69,0.393,7.206,0.598,10.914,0.25
		c13.791-1.295,23.859-0.4,31.555-0.5c5.907-0.077,22.917-2.667,25.417-2c1.579-6.9-3.619-10.123,0.906-16.536
		c0.406,2.879-1.164,6.813-1.572,9.767c-0.528,3.824-2.192,3.722-3.834,7.27c-0.771-2.405,1.807-1.56,2.268-3.88
		c1.237-6.225,3.099-10.574,7.065-15.62c-0.45,6.69-2.07,11.554-2.217,18.257c2.604-5.593,2.319-16.944,9.213-19.653
		c1.104,2.567-0.485,6.902-0.958,9.542c-0.806,4.493-2.099,7.057-2.538,11.604c-0.147-6.388,3.493-16.352,9.471-19.773
		c0.323,6.725-5.643,13.439-4.713,20.316c2.672-6.458,3.344-15.442,9.287-20.071c0.509,1.766-1.092,4.913-1.602,6.777
		c-1.166,4.271-1.568,8.812-2.872,13.013c0.834-6.317,3.156-18.095,10.179-20.512c1.692,2.452-0.021,5.483-0.739,8.046
		c-1.166,4.167-2.198,8.377-3.583,12.478c0.682-6.273,5.217-19.628,12.572-21.774c0.547,2.894-1.983,6.211-2.744,8.983
		c-1.101,4.006-2.369,7.97-3.427,11.984c2.193-6.987,4.459-16.38,10.599-20.94c1.312,2.158-1.18,7.546-1.734,9.825
		c-1.014,4.165-2.56,8.406-3.239,12.628c1.893-7.763,4.569-16.475,10.859-21.858c-0.512,7.171-5.073,14.1-6.211,21.262
		c3.235-5.015,6.75-19.114,13.897-20.135c-0.404,4.045-3.102,8.831-4.263,12.687c-1.068,3.548-2.178,7.111-3.477,10.55
		c2.354-4.305,3.838-9.023,6.47-13.22c1.896-3.021,5.791-9.599,9.682-9.964c-0.926,3.83-3.366,7.475-4.856,11.124
		c-1.735,4.249-3.25,8.661-5.257,12.791c1.507-2.656,2.659-5.516,4.061-8.231c2.096-4.061,6.514-13.267,11.261-14.523
		c-4.728,8.438-7.779,17.377-11.938,26.042c4.726-7.518,7.704-15.471,14.293-21.708c-0.303,3.551-3.262,7.677-4.543,11.052
		c-1.591,4.191-2.942,8.598-4.972,12.609c2.44-5.447,4.112-11.708,7.803-16.475c-2.184,5.121-3.798,10.65-5.229,16.024
		c-0.812,3.051-1.168,5.809-1.034,8.992c3.167-3.961-0.694-10.748,1.824-15.167c0.866,3.901,0.009,8.44-0.087,12.404
		c-0.146,6.065-0.41,12.201-0.188,18.266c0.27,7.329,2.714,14.18,3.449,21.447c1.152,11.386-0.443,31.386-0.999,42.799
		c-0.589-1.109-0.312-14.64-0.5-16c-0.842-6.099-0.308-8.619-0.45-14.781c-0.567-24.49,1.781-48.781,2.2-73.219"/>
	<g>
		<g>
			<path fill="#CFAE91" d="M76.841,278.738c-2.723,4.97,1.118,12.264,3.221,16.779c2.144,4.604,5.623,12.188,10.94,13.894
				c3.079,0.986,4.387-3.842,1.329-4.822c-3.35-1.073-6.043-7.79-7.473-10.608c-1.281-2.526-5.332-9.741-3.7-12.719
				C82.709,278.433,78.391,275.91,76.841,278.738L76.841,278.738z"/>
		</g>
	</g>
	<g>
		<g>
			<path fill="#CFAE91" d="M78.167,282.667c0.507,14.464,18.471,35.576,34.095,27.825c2.889-1.433,0.355-5.745-2.523-4.316
				c-11.857,5.882-26.207-13.107-26.571-23.509C83.054,279.452,78.054,279.441,78.167,282.667L78.167,282.667z"/>
		</g>
	</g>
	<g>
		<g>
			<path fill="#CFAE91" d="M81.262,276.176c-3.57-2.438-7.438-0.933-6.069,3.75c1.563,5.348,5.391,9.508,9.586,12.925
				c13.834,11.268,32.27,14.409,48.556,20.561c0.443-1.607,0.886-3.215,1.329-4.822c-10.977-1.502-21.583-4.919-32.665-5.755
				c-2.796-0.211-3.446,4.449-0.665,4.911c10.834,1.796,21.615,4.238,32.665,3.422c3.189-0.235,3.252-4.898,0-5
				c-13.548-0.423-26.91-2.626-40.333-4.333c-2.839-0.361-3.338,4.232-0.665,4.911c10.463,2.655,21.061,4.676,31.667,6.666
				c3.149,0.59,4.497-4.219,1.329-4.822c-12.989-2.474-26.63-5.176-37.736-12.747c-0.42,1.553-0.841,3.105-1.262,4.658
				c10.34,1.253,19.936,5.819,29.669,9.245c0.443-1.607,0.886-3.215,1.329-4.822c-12.481-3.248-25.026-9.112-33.897-18.69
				c-0.811,1.393-1.622,2.785-2.432,4.179c10.956,4.354,19.126,14.155,31.331,15.423c3.206,0.333,3.174-4.67,0-5
				c-11.235-1.167-19.777-11.181-30.002-15.245c-2.482-0.986-3.989,2.498-2.432,4.179c9.429,10.181,22.83,16.523,36.103,19.978
				c3.154,0.82,4.339-3.763,1.329-4.822c-10.23-3.6-20.135-8.106-30.998-9.423c-2.691-0.326-3.093,3.41-1.262,4.658
				c11.457,7.812,25.531,10.7,38.931,13.253c0.443-1.607,0.886-3.215,1.329-4.822c-10.606-1.989-21.203-4.01-31.667-6.666
				c-0.222,1.638-0.443,3.274-0.665,4.911c13.424,1.707,26.784,3.91,40.333,4.333c0-1.667,0-3.333,0-5
				c-10.615,0.784-20.926-1.518-31.335-3.244c-0.222,1.638-0.443,3.274-0.665,4.911c10.625,0.802,20.806,4.136,31.335,5.577
				c3.16,0.432,4.401-3.662,1.329-4.822c-11.673-4.408-23.911-7.258-35.242-12.563c-5.805-2.719-11.099-6.281-15.655-10.793
				c-0.962-0.953-1.614-2.356-2.275-3.519c-0.429-0.753-0.804-1.532-1.172-2.315c-0.199-0.456-0.359-0.926-0.483-1.407
				c-2.262,1.018-2.628,1.852-1.099,2.501C81.41,282.315,83.907,277.98,81.262,276.176L81.262,276.176z"/>
		</g>
	</g>
	<g>
		<g>
			<path fill="#CFAE91" d="M74.923,275.332c1.65,9.553,14.456,13.932,21.964,17.819c13.617,7.052,28.5,11.166,43.449,14.26
				c3.139,0.649,4.485-4.117,1.329-4.822c-16.464-3.678-32.549-8.726-48.667-13.666c-2.692-0.825-4.467,3.275-1.926,4.569
				c12.681,6.462,26.747,8.85,40.264,12.919c3.099,0.933,4.395-3.866,1.329-4.822c-8.101-2.524-16.259-4.851-24.157-7.977
				c-8.424-3.335-15.336-9.19-23.579-12.771c-2.37-1.029-5.431,1.986-3.029,3.926c17.162,13.861,41.267,13.55,58.333,27.334
				c0.589-1.423,1.178-2.845,1.768-4.268c-13.158,1.439-25.838-5.218-38.002-9.245c-0.443,1.607-0.886,3.215-1.329,4.822
				c12.57,2.711,25.165,5.315,37.667,8.334c0.222-1.638,0.443-3.274,0.665-4.911c-10.692-0.722-21.116-2.693-31.335-5.911
				c-0.443,1.607-0.886,3.215-1.329,4.822c20.605,2.8,41.049,8.53,61.998,6.089c2.606-0.304,3.633-4.234,0.665-4.911
				c-16.194-3.688-32.886-3.133-49.331-4.756c-2.912-0.287-3.249,4.106-0.665,4.911c22.037,6.859,45.557,5.455,68.331,5.422
				c3.273-0.005,3.16-4.719,0-5c-17.693-1.577-35.603-0.825-53.002-4.911c-0.222,1.638-0.443,3.274-0.665,4.911
				c23.947,2.275,48.01,2.703,72,4.334c0-1.667,0-3.333,0-5c-20.129,0.537-40.236-2.859-60.333-0.667
				c-2.794,0.305-3.418,3.93-0.665,4.911c10.507,3.742,22.463,2.422,33.421,2.488c14.64,0.087,29.27-0.699,43.91-0.732
				c-0.222-1.637-0.443-3.273-0.665-4.911c-14.461,2.697-29.183,3.311-43.86,3.642c-14.325,0.323-29.853,1.861-43.811-1.976
				c0,1.607,0,3.215,0,4.822c6.471-1.901,13.367-0.942,19.954-0.202c7.858,0.884,15.623,1.136,23.534,0.994
				c17.759-0.318,35.434-2.434,53.182-3.036c-0.222-1.637-0.443-3.273-0.665-4.911c-17.131,3.742-34.633,1.979-52.002,1.911
				c-2.812-0.011-3.421,4.213-0.665,4.911c27.992,7.087,57.16,3.2,85.33-0.667c2.803-0.386,2.12-5.067-0.665-4.911
				c-22.503,1.259-44.994,0.277-67.333-2.666c-2.881-0.38-3.266,4.139-0.665,4.911c13.663,4.053,28.291,3.701,42.411,3.772
				c14.258,0.071,28.685,0.166,42.585-3.439c2.956-0.768,1.948-4.567-0.665-4.911c-9.114-1.199-18.217,0.238-27.333,0.667
				c-9.987,0.47-20.006-0.273-30,0c-2.729,0.075-3.522,4.353-0.665,4.911c16.418,3.207,33.07,3.589,49.723,2.431
				c7.773-0.54,15.514-1.492,23.23-2.562c8.814-1.221,17.75-4.117,26.714-2.869c-0.198-1.523-0.397-3.047-0.597-4.569
				c-2.282,1.462-5.622,3.125-6.117,6.092c-0.603,3.609,3.455,5.407,6.117,6.559c0.421-1.554,0.841-3.106,1.262-4.659
				c-12.991,0.892-26.048-0.225-39,1.333c-2.546,0.307-3.691,4.404-0.665,4.911c11.332,1.895,22.624,0.196,33.998-0.244
				c3.213-0.124,3.233-4.952,0-5c-20.118-0.299-40.254,0.241-60.333-1.333c0,1.667,0,3.333,0,5
				c20.622,0.092,41.35,2.734,61.665-2.089c3.136-0.745,1.806-5.566-1.33-4.822c-19.843,4.712-40.191,2-60.335,1.911
				c-3.263-0.015-3.173,4.751,0,5c20.079,1.574,40.215,1.034,60.333,1.333c0-1.667,0-3.333,0-5
				c-10.863,0.421-21.845,2.232-32.668,0.422c-0.222,1.638-0.443,3.274-0.665,4.911c12.952-1.558,26.009-0.441,39-1.333
				c2.215-0.152,3.75-3.583,1.262-4.659c-0.202-0.087-3.315-1.817-3.61-1.468c0.906-1.071,2.447-1.802,3.61-2.548
				c1.616-1.035,1.713-4.247-0.597-4.569c-6.976-0.971-13.714,0.091-20.577,1.385c-8.899,1.678-17.892,2.755-26.909,3.565
				c-17.391,1.564-35.006,1.406-52.181-1.95c-0.222,1.638-0.443,3.274-0.665,4.911c10.001-0.274,19.999,0.273,30,0
				c9.154-0.25,18.174-1.873,27.333-0.667c-0.222-1.637-0.443-3.273-0.665-4.911c-13.466,3.494-27.444,3.335-41.255,3.262
				c-13.677-0.073-27.852,0.33-41.082-3.595c-0.222,1.638-0.443,3.274-0.665,4.911c22.339,2.943,44.831,3.925,67.333,2.666
				c-0.222-1.637-0.443-3.273-0.665-4.911c-27.24,3.74-55.605,7.52-82.67,0.667c-0.222,1.638-0.443,3.274-0.665,4.911
				c17.845,0.068,35.732,1.755,53.332-2.089c2.768-0.605,2.14-5.007-0.665-4.911c-18.407,0.625-36.731,2.741-55.152,3.071
				c-7.786,0.14-15.4-0.336-23.127-1.205c-6.557-0.737-13.301-1.329-19.72,0.556c-2.358,0.693-2.417,4.157,0,4.822
				c13.922,3.826,29.072,2.46,43.348,2.19c15.72-0.297,31.495-0.969,46.982-3.856c2.828-0.528,2.093-4.917-0.665-4.911
				c-13.365,0.03-26.719,0.626-40.083,0.728c-11.528,0.087-24.897,1.62-35.918-2.306c-0.222,1.638-0.443,3.274-0.665,4.911
				c20.097-2.192,40.205,1.204,60.333,0.667c3.249-0.087,3.193-4.783,0-5c-23.99-1.631-48.053-2.059-72-4.334
				c-2.833-0.27-3.374,4.274-0.665,4.911c17.843,4.188,36.188,3.471,54.331,5.089c0-1.667,0-3.333,0-5
				c-22.332,0.032-45.393,1.482-67.002-5.244c-0.222,1.638-0.443,3.274-0.665,4.911c15.993,1.578,32.254,0.99,48.002,4.578
				c0.222-1.638,0.443-3.274,0.665-4.911c-20.52,2.391-40.485-3.168-60.669-5.911c-3.107-0.422-4.496,3.825-1.329,4.822
				c10.64,3.35,21.539,5.338,32.665,6.089c2.837,0.191,3.379-4.256,0.665-4.911c-12.502-3.018-25.096-5.622-37.667-8.334
				c-3.155-0.681-4.392,3.808-1.329,4.822c12.606,4.173,25.684,10.916,39.331,9.423c1.887-0.206,3.669-2.732,1.768-4.268
				c-17.162-13.861-41.267-13.55-58.333-27.334c-1.01,1.309-2.02,2.617-3.029,3.926c7.868,3.418,14.602,8.875,22.505,12.329
				c8.527,3.727,17.561,6.16,26.425,8.924c0.443-1.607,0.886-3.215,1.329-4.822c-13.077-3.937-26.803-6.164-39.069-12.413
				c-0.642,1.522-1.284,3.046-1.926,4.569c16.117,4.94,32.202,9.988,48.667,13.666c0.443-1.607,0.886-3.215,1.329-4.822
				c-12.853-2.659-25.507-6.074-37.508-11.464c-4.579-2.056-9.018-4.477-13.467-6.799c-4.239-2.213-10.053-5.156-10.945-10.324
				C79.196,270.829,74.378,272.179,74.923,275.332L74.923,275.332z"/>
		</g>
	</g>
	<g>
		<g>
			<path fill="#CFAE91" d="M292.334,306.5c-0.444,0-0.89,0-1.334,0c-3.253,0-3.187,4.789,0,5c5.569,0.369,11.062,1.733,16.592,2.464
				c4.912,0.649,10.747,1.622,15.337-0.806c2.852-1.507,0.324-5.823-2.523-4.316c-3.985,2.106-10.519,0.47-14.687-0.161
				c-4.894-0.742-9.771-1.853-14.719-2.181c0,1.667,0,3.333,0,5c0.444,0,0.89,0,1.334,0C295.559,311.5,295.559,306.5,292.334,306.5
				L292.334,306.5z"/>
		</g>
	</g>
	<g>
		<g>
			<path fill="#CFAE91" d="M74.923,265.665c1.421,8.68,7.157,16.448,12.93,22.806c5.461,6.015,12.783,11.925,21.147,12.696
				c3.211,0.296,3.183-4.706,0-5c-7.419-0.685-13.783-7.016-18.514-12.226c-4.906-5.403-9.542-12.277-10.742-19.606
				C79.224,261.159,74.406,262.512,74.923,265.665L74.923,265.665z"/>
		</g>
	</g>
	<g>
		<g>
			<path fill="#CFAE91" d="M74.841,256.405c-3.296,4.849,1.087,11.072,3.979,14.929c4.592,6.125,10.23,11.48,15.931,16.56
				C111.146,302.5,135.034,311.355,157,309.5c3.188-0.27,3.215-5.271,0-5c-19.876,1.679-42.156-5.8-57.288-18.892
				c-4.466-3.864-8.744-7.954-12.746-12.298c-2.271-2.465-10.44-10.509-7.808-14.382C80.977,256.254,76.643,253.756,74.841,256.405
				L74.841,256.405z"/>
		</g>
	</g>
	<g>
		<g>
			<path fill="#CFAE91" d="M316.335,307.589c-5.822,0.905-11.916-1.079-17.796-0.665c-5.326,0.376-13.733,3.565-18.61,0.584
				c-0.421,1.554-0.841,3.106-1.262,4.659c4.225,0.188,8.171,1.738,12.356,2.165c4.643,0.474,9.385-0.21,13.976-0.921
				c3.178-0.493,1.823-5.311-1.33-4.822c-4.446,0.689-9.109,1.301-13.583,0.571c-3.856-0.628-7.486-1.817-11.419-1.993
				c-2.565-0.114-3.305,3.41-1.262,4.659c5.398,3.299,13.178,1.094,19.011,0.33c7.088-0.928,14.207,1.349,21.249,0.255
				C320.843,311.917,319.488,307.1,316.335,307.589L316.335,307.589z"/>
		</g>
	</g>
	<g>
		<g>
			<path fill="#CFAE91" d="M72.833,245.334c1.113,17.895,15.865,32.957,28.824,43.841c7.061,5.93,14.99,10.099,23.155,14.263
				c7.904,4.031,16.756,8.203,25.855,7.062c3.155-0.396,3.194-5.4,0-5c-8.298,1.04-16.107-2.754-23.332-6.38
				c-7.817-3.924-15.327-7.937-22.143-13.481c-11.872-9.656-26.352-24.107-27.359-40.305
				C77.634,242.132,72.633,242.112,72.833,245.334L72.833,245.334z"/>
		</g>
	</g>
	<g>
		<g>
			<path fill="#CFAE91" d="M330.745,226.999c2.485-12.23,0.536-24.895,0.008-37.232c-0.315-7.355-0.379-14.841-0.285-22.202
				c0.088-6.875,0.754-13.701,0.032-20.565c-0.332-3.155-4.864-3.279-5,0c-0.386,9.344-1.202,18.658-0.333,28
				c0.296,3.182,5.299,3.211,5,0c-0.869-9.342-0.053-18.656,0.333-28c-1.667,0-3.333,0-5,0c0.659,6.271,0.233,12.546,0.014,18.831
				c-0.234,6.697,0.131,13.434,0.164,20.136c0.064,13.13,2.889,26.695,0.245,39.702
				C325.283,228.816,330.103,230.157,330.745,226.999L330.745,226.999z"/>
		</g>
	</g>
	<g>
		<g>
			<path fill="#CFAE91" d="M320.834,142c0.406,6.074,1.392,12.068,2.755,17.998c0.723,3.142,5.544,1.809,4.822-1.329
				c-1.266-5.5-2.201-11.034-2.577-16.668C325.62,138.801,320.619,138.78,320.834,142L320.834,142z"/>
		</g>
	</g>
	<g>
		<g>
			<path fill="#CFAE91" d="M96,134.167c6.204-0.022,12.387-0.252,18.571-0.76c6.595-0.542,13.119-1.901,19.751-1.756
				c3.966,0.087,7.601,1.23,11.393,2.225c1.779,0.466,5.282,1.746,6.72-0.107c1.951-2.514-1.561-6.08-3.535-3.535
				c0.962-1.24-0.279-0.785-1.855-1.179c-1.664-0.416-3.313-0.893-4.971-1.331c-3.593-0.95-7.344-1.136-11.043-1.086
				c-5.496,0.075-10.985,1.268-16.458,1.77c-6.173,0.566-12.375,0.737-18.571,0.76C92.776,129.179,92.775,134.179,96,134.167
				L96,134.167z"/>
		</g>
	</g>
	<g>
		<g>
			<path fill="#CFAE91" d="M131.405,132.492c5.239,3.142,11.476,2.796,17.322,1.995c8.989-1.232,16.84-2.364,25.942-1.076
				c4.329,0.613,8.617,1.157,12.998,1.089c4.683-0.073,9.249-1.202,13.9-1.61c5.183-0.455,10.357,1.049,15.435,1.854
				c4.662,0.738,9.502,0.249,14.165-0.202c19.324-1.871,39.027-1.432,58.434-1.014c13.96,0.301,30.339,1.324,35.988,16.47
				c1.117,2.993,5.951,1.698,4.822-1.329c-4.901-13.138-16.14-18.073-29.343-19.539c-18.582-2.063-37.745-0.648-56.401-0.63
				c-10.752,0.01-20.858,2.521-31.603,0.497c-4.423-0.833-8.741-1.348-13.244-0.953c-5.296,0.464-10.346,1.587-15.707,1.433
				c-8.606-0.248-16.761-2.763-25.431-1.551c-7.583,1.06-17.67,4.497-24.754,0.249C131.156,126.513,128.644,130.836,131.405,132.492
				L131.405,132.492z"/>
		</g>
	</g>
	<g>
		<g>
			<path fill="#CFAE91" d="M318.232,136.435c4.093,4.204,6.629,9.381,9.943,14.161c1.822,2.63,6.159,0.134,4.316-2.523
				c-3.562-5.138-6.322-10.652-10.725-15.172C319.516,130.586,315.982,134.125,318.232,136.435L318.232,136.435z"/>
		</g>
	</g>
	<g>
		<g>
			<path fill="#CFAE91" d="M255.332,130.744c6.269-2.055,13.101-0.592,19.539-0.272c8.371,0.416,16.611,0.519,24.941,1.664
				c6.26,0.86,12.833,0.56,18.934,2.249c7.197,1.993,9.746,9.831,11.177,16.281c0.699,3.147,5.519,1.812,4.822-1.329
				c-1.403-6.322-3.619-12.497-8.813-16.673c-5.503-4.424-12.836-4.349-19.528-4.749c-9.446-0.565-18.701-2.247-28.212-2.403
				c-7.941-0.131-16.468-2.119-24.189,0.412C250.953,126.922,252.259,131.751,255.332,130.744L255.332,130.744z"/>
		</g>
	</g>
	<g>
		<g>
			<path fill="#CFAE91" d="M72.923,216.669c-1.534,9.474,1.133,19.149,3.496,28.281c2.393,9.247,6.971,17.456,13.194,24.645
				c11.928,13.778,29.612,25.565,47.722,28.816c3.152,0.565,4.5-4.253,1.329-4.822c-16.687-2.995-31.903-13.34-43.517-25.348
				c-6.386-6.603-10.728-14.237-13.446-22.995c-2.592-8.35-5.374-18.502-3.958-27.247C78.255,214.846,73.437,213.493,72.923,216.669
				L72.923,216.669z"/>
		</g>
	</g>
	<g>
		<g>
			<path fill="#CFAE91" d="M74.179,256.996c1.307,8.262,7.34,15.109,13.138,20.735c6.336,6.147,13.756,11.509,21.375,15.941
				c19.422,11.296,43.269,12.851,65.145,15.001c48.152,4.733,97.831,8.302,145.826,0.481c4.828-0.787,4.757-8.792,0-9.643
				c-0.821-0.068-1.6-0.291-2.334-0.667c-6.01-2.36-8.59,7.313-2.658,9.643c0.734,0.377,1.513,0.599,2.334,0.667
				c0-3.214,0-6.429,0-9.643c-44.13,7.19-89.572,3.744-133.875,0.005c-20.904-1.765-43.921-2.746-63.331-11.384
				c-8.068-3.591-15.486-8.837-22.186-14.55c-5.858-4.996-12.533-11.296-13.791-19.246
				C82.816,247.982,73.181,250.689,74.179,256.996L74.179,256.996z"/>
		</g>
	</g>
	<g>
		<g>
			<path fill="#CFAE91" d="M318.072,144.508c-4.008,2.707-3.591,9.736-3.708,13.94c-0.187,6.639,0.41,13.253,0.47,19.886
				c0.028,3.223,5.029,3.226,5,0c-0.042-4.746-0.383-9.489-0.475-14.236c-0.058-2.949-0.024-5.899,0.134-8.845
				c0.062-1.177,0.007-5.688,1.103-6.428C323.252,147.031,320.753,142.697,318.072,144.508L318.072,144.508z"/>
		</g>
	</g>
	<g>
		<g>
			<path fill="#CFAE91" d="M324.167,156c0.075-1.853,0.342-3.568,0.911-5.335c-1.607,0-3.215,0-4.822,0
				c2.399,6.542,1.918,13.548,1.672,20.392c-0.283,7.848,0.103,15.865-1.339,23.612c1.638,0.222,3.274,0.443,4.911,0.665
				c-1.491-14.426,0.825-28.907-0.666-43.333c-0.2-1.941-2.699-3.603-4.268-1.768c-4.178,4.887-4.292,11.911-4.615,18.028
				c-0.457,8.629,0.779,18.129-2.028,26.408c1.607,0,3.215,0,4.822,0c-1.477-7.081-1.521-14.21-0.334-21.338
				c0.855-5.136,2.852-10.065,2.756-15.331c-0.043-2.395-3.467-3.535-4.659-1.262c-6.811,12.993-0.556,28.015-5.919,41.264
				c1.607,0,3.215,0,4.822,0c-1.492-7.958-1.026-16.66,2.415-24.074c-1.523-0.199-3.047-0.398-4.57-0.597
				c1.19,6.941,0.284,14.027-0.089,21.002c-0.421,7.872-0.111,15.659-2.244,23.334c1.607,0,3.215,0,4.822,0
				c-2.453-6.84-0.979-14.46,0.096-21.439c1.165-7.564,1.188-15.325,3.904-22.564c-1.638-0.222-3.274-0.443-4.911-0.665
				c1.128,18.737-4.067,37.276-1.667,56c0.322,2.516,4.469,3.715,4.911,0.665c1.714-11.84-3.055-27.146,5.023-37.231
				c-1.309-0.168-2.617-0.337-3.926-0.506c2.908,4.692,0.939,12.253,0.678,17.466c-0.423,8.418-0.682,16.85-1.02,25.272
				c1.667,0,3.333,0,5,0c-0.038-13.606-0.767-27.229,3.577-40.336c-1.638-0.222-3.274-0.443-4.911-0.665
				c0.282,12.024-0.328,24.021-1.333,36c1.667,0,3.333,0,5,0c0.218-10.453-1.165-20.956,0.578-31.336
				c-1.638-0.222-3.274-0.443-4.911-0.665c0.221,13.016-1.522,25.987-0.667,39c0.21,3.2,5.212,3.221,5,0
				c-0.855-13.014,0.888-25.984,0.667-39c-0.046-2.727-4.43-3.527-4.911-0.665c-1.824,10.865-0.528,21.727-0.756,32.665
				c-0.068,3.265,4.734,3.165,5,0c1.005-11.979,1.615-23.977,1.333-36c-0.067-2.88-4.027-3.329-4.911-0.665
				c-4.481,13.523-3.794,27.619-3.755,41.665c0.009,3.235,4.871,3.209,5,0c0.366-9.139,0.528-18.318,1.148-27.442
				c0.389-5.712,1.711-12.657-1.49-17.82c-0.774-1.25-2.882-1.81-3.926-0.506c-9.242,11.538-4.37,26.035-6.311,39.436
				c1.638,0.222,3.274,0.443,4.911,0.665c-2.4-18.724,2.795-37.263,1.667-56c-0.175-2.9-3.923-3.299-4.911-0.665
				c-3.025,8.065-3.058,16.954-4.336,25.398c-1.056,6.98-2.104,14.459,0.336,21.264c0.808,2.25,4.124,2.51,4.822,0
				c2.089-7.522,2.133-15.259,2.359-23.007c0.235-8.049,1.347-15.978-0.026-23.989c-0.356-2.078-3.688-2.499-4.57-0.597
				c-4.049,8.726-4.679,18.541-2.919,27.926c0.508,2.708,3.999,2.032,4.822,0c5.187-12.815-1.056-27.726,5.415-40.069
				c-1.554-0.42-3.106-0.841-4.659-1.262c0.11,6.088-2.538,12.039-3.187,18.094c-0.719,6.709-0.435,13.299,0.942,19.904
				c0.539,2.581,4.081,2.184,4.822,0c2.325-6.859,1.807-14.255,1.89-21.39c0.07-6.019-0.645-16.031,3.467-20.841
				c-1.423-0.589-2.845-1.178-4.268-1.768c1.491,14.426-0.825,28.907,0.666,43.333c0.269,2.594,4.355,3.648,4.911,0.665
				c1.526-8.209,1.249-16.627,1.517-24.941c0.234-7.282,0.703-14.76-1.85-21.721c-0.846-2.305-4.032-2.451-4.822,0
				c-0.711,2.208-0.995,4.35-1.089,6.665C319.037,159.226,324.037,159.213,324.167,156L324.167,156z"/>
		</g>
	</g>
	<g>
		<g>
			<path fill="#CFAE91" d="M324.411,196.998c0.291-1.346,0.407-2.618,0.423-3.998c0.031-2.77-4.372-3.479-4.911-0.665
				c-3.641,19.028-2.787,38.399-2.756,57.665c1.667,0,3.333,0,5,0c-1.258-10.073-1.331-20.196-1.333-30.333
				c0-2.767-4.333-3.48-4.911-0.665c-2.261,11.019-1.16,22.181-1.089,33.331c1.667,0,3.333,0,5,0
				c-1.578-11.864-1.937-23.755-0.667-35.666c0.344-3.221-4.619-3.145-5,0c-1.582,13.07-1.327,26.198-1,39.333c1.667,0,3.333,0,5,0
				c-0.718-8.449-1.852-16.85-1-25.333c-1.637,0.222-3.273,0.443-4.911,0.665c2.377,12.477,1.6,25.276,3.646,37.804
				c0.999,6.116,2.991,12.047,3.811,18.196c0.83,6.234,0.886,12.494,2.211,18.666c0.589,2.738,5.139,2.154,4.911-0.665
				c-1.979-24.539-4.472-49.234-0.089-73.668c-1.638-0.222-3.274-0.443-4.911-0.665c-0.564,16.586,1.273,33.1,1.666,49.667
				c1.637-0.222,3.273-0.443,4.911-0.665c-2.662-8.858-3.243-18.6-1.333-27.67c-1.607,0-3.215,0-4.822,0
				c3.046,17.085,4.013,35.53-1,52.336c1.638,0.222,3.274,0.443,4.911,0.665c-0.062-0.996-0.276-1.684-0.675-2.595
				c-1.288-2.948-5.595-0.4-4.316,2.523c-0.003,0.023-0.006,0.048-0.009,0.071c0.174,2.784,4.082,3.444,4.911,0.665
				c5.278-17.7,4.205-37.012,1-54.996c-0.435-2.435-4.326-2.354-4.822,0c-2.094,9.948-1.592,20.596,1.333,30.33
				c0.8,2.661,4.979,2.216,4.911-0.665c-0.393-16.567-2.23-33.081-1.666-49.667c0.095-2.782-4.408-3.466-4.911-0.665
				c-4.47,24.922-2.108,49.961-0.089,74.998c1.637-0.222,3.273-0.443,4.911-0.665c-1.356-6.313-1.427-12.782-2.277-19.168
				c-0.708-5.317-2.194-10.604-3.39-15.832c-2.966-12.964-1.509-26.588-4-39.666c-0.567-2.975-4.649-1.938-4.911,0.665
				c-0.852,8.483,0.282,16.884,1,25.333c0.269,3.164,5.081,3.264,5,0c-0.327-13.135-0.582-26.263,1-39.333c-1.667,0-3.333,0-5,0
				c-1.27,11.911-0.911,23.802,0.667,35.666c0.411,3.087,5.021,3.325,5,0c-0.068-10.668-1.253-21.46,0.911-32.001
				c-1.638-0.222-3.274-0.443-4.911-0.665c0.002,10.137,0.075,20.26,1.333,30.333c0.388,3.104,5.005,3.314,5,0
				c-0.03-18.794-0.975-37.771,2.578-56.335c-1.638-0.222-3.274-0.443-4.911-0.665c0.038,0.899-0.043,1.789-0.245,2.669
				C318.909,198.812,323.729,200.149,324.411,196.998L324.411,196.998z"/>
		</g>
	</g>
	<g>
		<g>
			<path fill="#CFAE91" d="M324.167,304.333c-0.332-22.808,1.889-45.705-0.021-68.472c-0.916-10.918-2.819-21.754-3.384-32.699
				c-0.592-11.494,0.494-23-0.263-34.496c-0.176-2.665-4.362-3.584-4.911-0.665c-2.09,11.133-2.68,23.004-2.007,34.311
				c0.479,8.021,4.803,19.025,0.26,26.426c1.438,0,2.878,0,4.316,0c-4.836-7.663-3.162-19.589-1.747-28.074
				c-1.638-0.222-3.274-0.443-4.911-0.665c0.209,9.029-1.771,18.136,2.342,26.595c1.409,2.899,5.72,0.363,4.316-2.523
				c-3.602-7.412-1.476-16.16-1.658-24.071c-0.062-2.719-4.433-3.536-4.911-0.665c-1.645,9.869-3.387,22.992,2.253,31.926
				c1.009,1.599,3.315,1.632,4.316,0c4.558-7.421,1.868-17.498,0.79-25.539c-1.567-11.691-0.705-24.847,1.463-36.392
				c-1.638-0.222-3.274-0.443-4.911-0.665c0.714,10.846-0.055,21.702,0.192,32.558c0.265,11.581,2.401,23.11,3.454,34.637
				c2.076,22.732-0.312,45.688,0.021,68.472C319.214,307.555,324.214,307.559,324.167,304.333L324.167,304.333z"/>
		</g>
	</g>
	<g>
		<g>
			<path fill="#CFAE91" d="M95.998,135.256c-1.284-0.267-2.441-0.526-3.667-1c-0.443,1.607-0.886,3.214-1.329,4.821
				c3.862,0.922,7.76,1.629,11.667,2.333c0-1.607,0-3.214,0-4.821c-2.447,0.338-4.9-0.272-7.335-0.423c-3.284-0.203-3.108,4.612,0,5
				c2.776,0.347,5.553,0.685,8.333,1c2.808,0.318,3.406-4.357,0.665-4.911c-3.311-0.669-6.526-1.402-9.667-2.667
				c0,1.607,0,3.214,0,4.821c7.78-1.055,15.553,0.611,23.335,0.756c2.8,0.052,3.438-4.283,0.665-4.911
				c-7.111-1.608-14.358-2.482-21.333-4.667c-0.222,1.637-0.443,3.274-0.665,4.911c11.966,0.608,23.218,6.031,35.333,5
				c2.678-0.228,3.564-4.215,0.665-4.911c-10.448-2.508-21.343-2.229-31.667-5.333c-0.222,1.637-0.443,3.274-0.665,4.911
				c8.912,0.749,17.687,2.311,26.335,4.578c0.222-1.637,0.443-3.274,0.665-4.911c-5.353,0.191-10.679,0.082-16.011-0.443
				c-5.306-0.522-9.656-2.186-14.546-4.035c-4.854-1.835-13.249,5.988-7.287,9.726c4.878,3.058,12.533,3.343,18.153,4.024
				c5.789,0.702,15.042,1.611,19.125-3.671c0.898-1.161,1.1-3.164-0.506-3.926c-4.33-2.056-8.912-2.529-13.597-3.252
				c-3.114-0.48-4.534,4.151-1.329,4.821c5.576,1.167,11.072,2.684,16.66,3.811c5.715,1.152,12.729,2.887,18.495,1.187
				c4.226-1.246,4.879-6.364,0.968-8.437c-4.603-2.44-11.113-1.526-16.125-1.471c-2.733,0.03-3.522,4.443-0.665,4.911
				c7.951,1.302,15.978,1.752,23.998,2.423c-0.222-1.637-0.443-3.274-0.665-4.911c-10.101,1.458-20.255,0.264-30.335-0.756
				c0,1.667,0,3.333,0,5c11.603-0.288,23.216,0.301,34.668,2.244c0.222-1.637,0.443-3.274,0.665-4.911
				c-11.161-0.4-22.14-2.003-33.002-4.577c-0.222,1.637-0.443,3.274-0.665,4.911c14.371-0.231,28.65,1.593,43,2c0-1.667,0-3.333,0-5
				c-9.726,0.227-19.347-0.982-29-2c0,1.667,0,3.333,0,5c12.796-0.318,25.647-0.325,38.335,1.577
				c0.222-1.637,0.443-3.274,0.665-4.911c-18.517,1.677-38.128,0.672-55.669-5.911c-0.443,1.607-0.886,3.214-1.329,4.821
				c12.129,2.235,24.491,2.459,36.667,4.333c0-1.607,0-3.214,0-4.821c-13.014,1.8-26.144-0.352-39.004-2.333
				c-3.104-0.479-4.523,4.002-1.329,4.821c11.842,3.038,23.796,3.401,35.847,4.934c8.783,1.117,18.656,3.206,27.08-0.519
				c2.225-0.984,1.141-3.872-0.597-4.569c-6.591-2.647-13.681-2.78-20.665-3.423c-3.23-0.297-3.152,4.651,0,5
				c5.952,0.658,11.88,1.323,17.669,2.911c0-1.607,0-3.214,0-4.821c-7.713,1.082-15.408-1.432-23,1
				c-2.469,0.791-2.286,3.962,0,4.821c10.287,3.868,21.225,0.802,31.808,0.145c12.613-0.784,25.231,1.048,37.856,0.278
				c2.687-0.164,3.562-4.315,0.665-4.911c-14.495-2.98-29.354-1.848-43.999-3.423c0,1.667,0,3.333,0,5
				c14.114,0.03,28.219,0.637,42.333,0.667c3.228,0.007,3.22-4.936,0-5c-11.461-0.229-22.915,1.163-34.333-0.333
				c0,1.667,0,3.333,0,5c12.756,1.554,26.858,4.875,39.332,0.244c2.296-0.853,2.459-4.031,0-4.821
				c-6.482-2.083-13.354-1.718-20.062-1.376c-7.872,0.401-15.668,0.176-23.533-0.356c-3.405-0.23-9.933-2.198-12.816,0.516
				c-2.986,2.812-0.901,6.479,2.4,7.689c4.292,1.574,9.058,1.825,13.575,2.307c8.754,0.934,17.567,1.21,26.363,0.922
				c8.644-0.284,16.993-2.281,25.583-3.023c8.899-0.769,17.586,1.903,26.491,0.476c2.875-0.46,2.05-4.845-0.665-4.911
				c-13.776-0.335-27.553-0.651-41.333-0.667c-2.764-0.003-3.485,4.354-0.665,4.911c15.27,3.017,30.819,3.733,46.332,4.422
				c2.798,0.124,3.443-4.362,0.665-4.911c-9.552-1.887-21.387,0.759-29.737-5.081c-0.421,1.553-0.841,3.106-1.262,4.659
				c11.307-0.822,22.429,1.547,33.667,2.333c0-1.667,0-3.333,0-5c-11.757-0.084-23.381-1.587-35.002-3.244
				c-3.12-0.445-4.539,4.254-1.33,4.821c12.176,2.153,24.642,3.388,36.999,2.422c2.621-0.205,3.625-4.481,0.665-4.911
				c-13.213-1.916-26.548-5.659-39.999-4.422c-2.759,0.253-3.467,4.032-0.665,4.911c9.933,3.114,20.401,3.361,30.726,3.485
				c12.113,0.146,24.157,0.351,36.273,0.271c0-1.667,0-3.333,0-5c-11.799,1.299-24.849,1.319-35.738-3.992
				c-0.421,1.553-0.841,3.106-1.262,4.659c5.771,0.414,11.378,1.599,17.001,2.911c0.222-1.637,0.443-3.274,0.665-4.911
				c-7.748-0.177-15.239-2.031-22.998-0.911c-2.92,0.422-2.001,4.771,0.665,4.911c8.746,0.46,17.174,2.598,25.668,4.578
				c0.222-1.637,0.443-3.274,0.665-4.911c-4.458,0.209-8.879-0.257-13.333-0.333c0,1.667,0,3.333,0,5
				c7.475-0.306,14.897-0.784,22.379-0.263c7.043,0.49,19.514,2.013,19.121,11.429c1.637-0.222,3.273-0.443,4.911-0.665
				c-2.494-6.694-4.572-12.511-11.237-15.979c-6.979-3.631-15.193-4.975-22.842-6.434c-2.635-0.502-4.604,3.217-1.927,4.569
				c10.892,5.501,23.106,6.182,34.93,8.252c3.153,0.552,4.502-4.266,1.33-4.821c-11.312-1.98-23.314-2.484-33.736-7.748
				c-0.642,1.523-1.284,3.046-1.927,4.569c5.806,1.107,11.581,2.305,17.206,4.142c3.468,1.132,7.108,2.629,9.372,5.617
				c1.998,2.637,2.87,6.104,4.009,9.162c0.974,2.611,4.789,2.255,4.911-0.665c0.863-20.716-33.75-16.688-46.5-16.167
				c-3.212,0.131-3.233,4.944,0,5c4.454,0.077,8.875,0.542,13.333,0.333c2.731-0.128,3.513-4.247,0.665-4.911
				c-8.935-2.082-17.803-4.272-26.998-4.756c0.222,1.637,0.443,3.274,0.665,4.911c7.227-1.044,14.443,0.925,21.668,1.089
				c2.809,0.064,3.426-4.266,0.665-4.911c-6.061-1.414-12.114-2.644-18.331-3.089c-2.445-0.175-3.471,3.582-1.262,4.659
				c11.734,5.724,25.505,6.08,38.262,4.675c3.127-0.344,3.295-5.022,0-5c-10.979,0.073-21.885-0.113-32.859-0.236
				c-11.014-0.124-22.194-0.013-32.81-3.341c-0.222,1.637-0.443,3.274-0.665,4.911c13.026-1.198,25.871,2.388,38.669,4.244
				c0.222-1.637,0.443-3.274,0.665-4.911c-11.911,0.931-23.931-0.168-35.669-2.244c-0.443,1.607-0.887,3.214-1.33,4.821
				c12.061,1.719,24.13,3.335,36.332,3.422c3.255,0.023,3.182-4.777,0-5c-11.238-0.786-22.36-3.155-33.667-2.333
				c-2.543,0.185-3.331,3.212-1.262,4.659c8.958,6.265,20.8,3.583,30.931,5.585c0.222-1.637,0.443-3.274,0.665-4.911
				c-15.064-0.669-30.174-1.314-45.002-4.244c-0.222,1.637-0.443,3.274-0.665,4.911c13.78,0.015,27.557,0.331,41.333,0.667
				c-0.222-1.637-0.443-3.274-0.665-4.911c-7.181,1.15-14.323-0.648-21.509-0.793c-6.291-0.126-12.639,1.287-18.819,2.272
				c-13.029,2.079-26.834,1.104-39.875-0.379c-1.761-0.2-3.513-0.419-5.259-0.725c-1.03-0.181-2.033-0.449-3.035-0.744
				c-2.205-0.647-0.443,0.572,0.433,0.584c5.034,0.072,10.105,0.896,15.149,1.103c5.969,0.246,11.806,0.195,17.772-0.109
				c5.75-0.293,11.599-0.503,17.143,1.279c0-1.607,0-3.214,0-4.821c-11.981,4.448-25.745,1.071-38.001-0.422
				c-3.208-0.391-3.14,4.589,0,5c11.418,1.496,22.873,0.104,34.333,0.333c0-1.667,0-3.333,0-5
				c-14.114-0.03-28.219-0.637-42.333-0.667c-3.293-0.007-3.132,4.663,0,5c14.188,1.526,28.632,0.358,42.668,3.244
				c0.222-1.637,0.443-3.274,0.665-4.911c-11.36,0.693-22.696-0.51-34.06-0.406c-11.276,0.104-23.364,4.265-34.276,0.162
				c0,1.607,0,3.214,0,4.821c7.424-2.378,15.37,0.07,23-1c2.562-0.359,2.212-4.214,0-4.821c-6.215-1.705-12.609-2.383-18.998-3.089
				c0,1.667,0,3.333,0,5c6.564,0.604,13.142,0.757,19.335,3.244c-0.199-1.523-0.398-3.046-0.597-4.569
				c-7.599,3.36-17.887,0.684-25.772-0.319c-11.204-1.425-22.283-1.773-33.301-4.6c-0.443,1.607-0.886,3.214-1.329,4.821
				c13.828,2.13,27.683,4.267,41.663,2.333c2.413-0.333,2.382-4.455,0-4.821c-12.174-1.875-24.545-2.1-36.667-4.333
				c-3.186-0.587-4.348,3.688-1.329,4.821c17.897,6.717,38.106,7.8,56.998,6.089c2.599-0.235,3.645-4.464,0.665-4.911
				c-13.151-1.972-26.396-2.086-39.665-1.756c-3.287,0.082-3.145,4.668,0,5c9.653,1.018,19.274,2.227,29,2
				c3.226-0.075,3.221-4.909,0-5c-14.35-0.407-28.629-2.231-43-2c-2.775,0.044-3.466,4.247-0.665,4.911
				c11.288,2.675,22.733,4.339,34.331,4.756c2.78,0.1,3.471-4.435,0.665-4.911c-11.898-2.019-23.939-2.722-35.998-2.422
				c-3.282,0.082-3.151,4.681,0,5c10.595,1.072,21.06,2.107,31.665,0.577c2.97-0.429,1.945-4.692-0.665-4.911
				c-7.57-0.633-15.163-1.015-22.669-2.244c-0.222,1.637-0.443,3.274-0.665,4.911c3.75-0.042,7.53-0.262,11.26,0.256
				c0.79,0.11,1.552,0.312,2.314,0.539c1.063,0.318,0.729-0.849-0.291-0.548c-1.724,0.508-3.775,0.248-5.535,0.129
				c-8.983-0.609-17.652-3.453-26.418-5.287c-0.443,1.607-0.886,3.214-1.329,4.821c4.172,0.644,8.536,0.912,12.403,2.748
				c-0.169-1.309-0.337-2.618-0.506-3.926c-2.788,3.605-9.322,2.724-13.313,2.431c-4.454-0.327-8.905-1.211-13.292-2.023
				c-1-0.185-1.974-0.447-2.948-0.733c-3.569-1.046,3.948-0.312,3.049-0.792c2.809,1.5,5.906,2.198,9.008,2.812
				c7.069,1.399,14.422,1.496,21.598,1.24c2.777-0.099,3.459-4.178,0.665-4.911c-9.077-2.379-18.313-3.971-27.665-4.756
				c-2.9-0.244-3.276,4.125-0.665,4.911c10.332,3.108,21.216,2.825,31.667,5.333c0.222-1.637,0.443-3.274,0.665-4.911
				c-12.053,1.026-23.384-4.393-35.333-5c-2.911-0.148-3.277,4.092-0.665,4.911c6.975,2.185,14.222,3.058,21.333,4.667
				c0.222-1.637,0.443-3.274,0.665-4.911c-8.292-0.154-16.375-1.701-24.665-0.577c-2.76,0.374-1.967,4.03,0,4.821
				c3.141,1.264,6.356,1.998,9.667,2.667c0.222-1.637,0.443-3.274,0.665-4.911c-2.78-0.315-5.557-0.653-8.333-1c0,1.667,0,3.333,0,5
				c2.98,0.184,5.688,0.656,8.665,0.244c2.44-0.337,2.352-4.397,0-4.821c-3.907-0.704-7.804-1.411-11.667-2.333
				c-3.194-0.763-4.286,3.679-1.329,4.821c1.226,0.474,2.382,0.733,3.667,1C97.815,140.731,99.154,135.912,95.998,135.256
				L95.998,135.256z"/>
		</g>
	</g>
	<g>
		<g>
			<path fill="#CFAE91" d="M308.738,140.159c10.467,7.457,10.257,22.195,5.438,32.913c1.522,0.199,3.046,0.398,4.569,0.597
				c-0.696-4.763,0.175-9.554-0.245-14.335c-0.278-3.161-4.997-3.271-5,0c-0.005,5.755-0.098,11.4-1.577,17.002
				c1.607,0,3.215,0,4.822,0c-1.774-10.152-0.65-20.436-0.578-30.669c0.022-3.241-4.839-3.201-5,0
				c-0.372,7.376-0.849,14.68,0.422,21.998c0.429,2.468,4.284,2.318,4.822,0c3.005-12.962,2.27-30.201-13.412-33.742
				c0,1.607,0,3.214,0,4.821c1.08-0.422,2.199-0.508,3.333-0.667c3.182-0.446,1.822-5.263-1.33-4.821
				c-1.36,0.19-2.098,0.185-3.333,0.667c-2.114,0.826-2.636,4.226,0,4.821c12.759,2.881,12.297,17.34,9.92,27.591
				c1.607,0,3.215,0,4.822,0c-1.188-6.837-0.591-13.783-0.244-20.669c-1.667,0-3.333,0-5,0c-0.075,10.719-1.103,21.365,0.756,31.998
				c0.439,2.512,4.223,2.269,4.822,0c1.591-6.025,1.749-12.13,1.755-18.331c-1.667,0-3.333,0-5,0
				c0.461,5.244-0.342,10.431,0.423,15.665c0.306,2.089,3.72,2.487,4.569,0.597c6.036-13.421,5.673-30.561-7.23-39.754
				C308.63,133.966,306.137,138.305,308.738,140.159L308.738,140.159z"/>
		</g>
	</g>
	<g>
		<g>
			<path fill="#CFAE91" d="M317.923,143.665c0.709,2.977,1.172,5.937,1.244,9.002c1.423-0.589,2.845-1.179,4.268-1.768
				c-2.188-2.34-4.49-4.456-7.099-6.317c-2.917-2.082-6.26-3.201-8.901-5.683c-2.361-2.219-5.684,1.143-3.535,3.535
				c4.553,5.071,9.499,9.122,8.601,16.566c-0.386,3.197,4.618,3.159,5,0c1.066-8.836-4.641-14.061-10.065-20.101
				c-1.179,1.178-2.356,2.357-3.535,3.535c2.266,2.129,4.721,3.394,7.403,4.892c3.309,1.849,6.023,4.355,8.597,7.108
				c1.484,1.588,4.318,0.38,4.268-1.768c-0.083-3.498-0.613-6.93-1.422-10.331C321.998,139.199,317.178,140.53,317.923,143.665
				L317.923,143.665z"/>
		</g>
	</g>
	<g>
		<g>
			<path fill="#CFAE91" d="M314.492,148.072c-1.322-2.979-3.331-5.236-6.235-6.736c-3.141-1.623-6.603-2.321-9.661-4.161
				c-2.77-1.667-5.282,2.658-2.523,4.317c5.044,3.035,11.478,3.19,14.104,9.103C311.481,153.537,315.789,150.991,314.492,148.072
				L314.492,148.072z"/>
		</g>
	</g>
	<g>
		<g>
			<path fill="#CFAE91" d="M314.256,269.332c0.6,3.424,0.887,6.859,0.911,10.335c0.022,3.223,5.022,3.226,5,0
				c-0.027-3.922-0.414-7.803-1.089-11.665C318.522,264.83,313.705,266.179,314.256,269.332L314.256,269.332z"/>
		</g>
	</g>
	<g>
		<g>
			<path fill="#B79B84" d="M90.002,142.077c10.263,1.928,20.632,1.335,31.011,1.173c11.164-0.175,22.062,2.064,33.172,2.287
				c5.455,0.11,10.93-0.797,16.331-1.437c5.628-0.666,11.283-0.733,16.942-0.861c11.748-0.266,23.5-0.304,35.25-0.286
				c21.841,0.035,43.895-0.646,65.708,0.463c8.64,0.439,18.2,0.952,21.526,10.143c2.472,6.828,2.128,14.629,1.891,21.774
				c-0.094,2.812,4.281,3.422,4.911,0.665c0.183-0.899,0.404-1.788,0.666-2.667c0.857-3.114-3.967-4.434-4.822-1.329
				c-0.261,0.879-0.483,1.768-0.666,2.667c1.638,0.222,3.274,0.443,4.911,0.665c0.393-11.823,0.931-29.941-12.801-34.51
				c-8.849-2.944-18.891-2.669-28.091-2.666c-12.522,0.004-25.045-0.066-37.567-0.139c-24.983-0.146-50.208-0.919-75.056,1.938
				c-11.842,1.362-23.351-1.122-35.158-1.649c-12.295-0.548-24.633,1.237-36.829-1.053
				C88.181,136.664,86.836,141.482,90.002,142.077L90.002,142.077z"/>
		</g>
	</g>
	<g>
		<g>
			<path fill="#B79B84" d="M310.923,157.335c-2.306,14.17-1.165,28.463,0.244,42.665c0.312,3.146,5,3.283,5,0
				c0-0.556,0-1.111,0-1.667c0-3.224-5-3.224-5,0c0,0.556,0,1.111,0,1.667c1.667,0,3.333,0,5,0
				c-1.358-13.696-2.648-27.66-0.422-41.335C316.258,155.511,311.44,154.159,310.923,157.335L310.923,157.335z"/>
		</g>
	</g>
	<g>
		<g>
			<path fill="#B79B84" d="M312.834,171.667c0.188,23.711-1.959,47.408-0.541,71.11c0.657,10.994,2.64,21.748,4.511,32.58
				c1.926,11.146,3.815,22.303,6.452,33.309c0.752,3.135,5.573,1.805,4.822-1.33c-5.173-21.583-9.575-44.32-10.9-66.48
				c-1.378-23.043,0.838-46.134,0.656-69.188C317.809,168.443,312.809,168.441,312.834,171.667L312.834,171.667z"/>
		</g>
	</g>
	<g>
		<g>
			<path fill="#B79B84" d="M313.5,255.667c0.911,16.363,7.739,31.664,8.667,48c0.182,3.205,5.183,3.223,5,0
				c-0.929-16.355-7.757-31.656-8.667-48C318.321,252.461,313.32,252.444,313.5,255.667L313.5,255.667z"/>
		</g>
	</g>
</g>
<g id="Layer_1">
	<path fill="none" stroke="#000000" stroke-width="4" stroke-linecap="round" stroke-linejoin="round" stroke-miterlimit="10" d="
		M261.584,107.75c9.252-0.423,30.428-0.761,39.693-1.177c11.928-0.535,26.473-0.136,28.785,0.989
		c2.688,1.875,6.537,5.162,5.977,8.852c-1.354,8.933-1.53,17.921-2.23,26.875c-1.735,22.206-1.654,44.654-3.075,66.936
		c-1.667,26.129-1.286,61.622-1.983,87.775c-0.328,12.314-2.208,23.901-3.562,18.875c-2.05-7.609-4.962-17.665-7.189-25.263
		c-9.192-31.36-8.998-66.303-8.998-98.803c0-8.61,0.004-17.25,0.398-25.85c0.27-5.863,1.698-13.812-1.941-18.795
		c-2.758-3.774-6.9-3.251-11.065-3.746c-15.178-1.802-30.059-1.91-45.293-1.95c-25.542-0.067-99.13,2.773-124.742,1.226
		c-14.413-0.871-27.98-1.298-42.376-0.635c-6.488,0.299-11.044,0.278-10.153,7.248c2.077,16.236-8.161,112.026,9.275,150.721
		c1.693,3.759,0.829,6.243,4.897,7.972c5.425,2.305,12.65,3.447,18.449,5c12.197,3.266,216.285,6.234,219.285,4.388"/>
	<path fill="none" stroke="#000000" stroke-width="4" stroke-linecap="round" stroke-linejoin="round" stroke-miterlimit="10" d="
		M261.653,107.775c-5.621,5.46-4.243,12.974-8.979,18.815c-3.667,4.524-135.943,1.927-145.341,2.409
		c-13,0.667-18.667-4.667-19.333,13"/>
</g>
</svg>
