<?xml version="1.0" encoding="utf-8"?>
<!-- Generator: Adobe Illustrator 25.2.1, SVG Export Plug-In . SVG Version: 6.00 Build 0)  -->
<svg version="1.1" id="Layer_1" xmlns="http://www.w3.org/2000/svg" xmlns:xlink="http://www.w3.org/1999/xlink" x="0px" y="0px"
	 width="1000px" height="1000px" viewBox="0 0 1000 1000" enable-background="new 0 0 1000 1000" xml:space="preserve">
<path fill="#FFFFFF" d="M861.8,459.8c-8.2,5.2-535.6,2-555.7-0.5c-3-14.9-0.6-70.9-0.7-86.6c-11.9,9.1-64.2,37.5-75.9,47.5
	c-14.5,12.4-75.2,50.9-91.2,66.8c23.5,20,135.6,130,164.3,140.3c3.2-14.8,3.3-74.9,3.1-89.4c17.4-3.8,545,5.6,551.5-3.1L861.8,459.8
	z"/>
<path fill="none" stroke="#000000" stroke-width="12.5121" stroke-linecap="round" stroke-linejoin="round" stroke-miterlimit="10" d="
	M861.8,459.8c-8.2,5.2-535.6,2-555.7-0.5c-3-14.9-0.6-70.9-0.7-86.6c-11.9,9.1-64.2,37.5-75.9,47.5c-14.5,12.4-75.2,50.9-91.2,66.8
	c23.5,20,135.6,130,164.3,140.3c3.2-14.8,3.3-74.9,3.1-89.4c17.4-3.8,545,5.6,551.5-3.1L861.8,459.8z"/>
</svg>
