<?xml version="1.0" encoding="utf-8"?>
<!-- Generator: Adobe Illustrator 25.2.1, SVG Export Plug-In . SVG Version: 6.00 Build 0)  -->
<!DOCTYPE svg PUBLIC "-//W3C//DTD SVG 1.1//EN" "http://www.w3.org/Graphics/SVG/1.1/DTD/svg11.dtd" [
	<!ENTITY ns_extend "http://ns.adobe.com/Extensibility/1.0/">
	<!ENTITY ns_ai "http://ns.adobe.com/AdobeIllustrator/10.0/">
	<!ENTITY ns_graphs "http://ns.adobe.com/Graphs/1.0/">
	<!ENTITY ns_vars "http://ns.adobe.com/Variables/1.0/">
	<!ENTITY ns_imrep "http://ns.adobe.com/ImageReplacement/1.0/">
	<!ENTITY ns_sfw "http://ns.adobe.com/SaveForWeb/1.0/">
	<!ENTITY ns_custom "http://ns.adobe.com/GenericCustomNamespace/1.0/">
	<!ENTITY ns_adobe_xpath "http://ns.adobe.com/XPath/1.0/">
]>
<svg version="1.1"
	 id="vs-outline" xmlns:x="&ns_extend;" xmlns:i="&ns_ai;" xmlns:graph="&ns_graphs;" xmlns:cc="http://creativecommons.org/ns#" xmlns:dc="http://purl.org/dc/elements/1.1/" xmlns:rdf="http://www.w3.org/1999/02/22-rdf-syntax-ns#" xmlns:svg="http://www.w3.org/2000/svg"
	 xmlns="http://www.w3.org/2000/svg" xmlns:xlink="http://www.w3.org/1999/xlink" x="0px" y="0px" width="1000px" height="1000px"
	 viewBox="0 0 1000 1000" enable-background="new 0 0 1000 1000" xml:space="preserve">
<metadata>
	<sfw  xmlns="&ns_sfw;">
		<slices></slices>
		<sliceSourceBounds  bottomLeftOrigin="true" height="858.8" width="667.8" x="-127.5" y="-230.5"></sliceSourceBounds>
	</sfw>
</metadata>
<path id="path3" fill="none" stroke="#231F20" stroke-width="20" stroke-linecap="round" stroke-linejoin="round" stroke-miterlimit="10" d="
	M264,792c0.2-1,1-5.2,1.2-6.2c0.2-1,1.8-5.2,2-6.2c0.2-1,2-5.2,2.3-6.2c0.5-1,2-5,2.2-6c1-2.8,2-5.3,3.2-8c1-2.8,2.2-5.2,3.2-8
	c1-2.8,2.2-5.3,3.2-8c1-2.8,2.3-5.2,3.3-8c1-2.8,2.2-5.3,3.2-8c1-2.8,2.2-5.2,3.3-8c1-2.8,2.2-5.3,3.2-8c1-2.8,2.2-5.2,3.2-8
	c4-9.8,8.2-19.5,12.5-29c4.2-9.7,8.8-19.2,13.2-28.8c4.5-9.5,9.2-19,14-28.2c4.7-9.2,9.7-18.8,14.7-27.8s10.3-18.5,15.3-27.5
	c5.2-9,10.5-18.2,16-27.2c5.5-9,11-18,16.8-26.7c5.8-9,11.5-17.8,17.2-26.5c7-10.5,14.2-21,21.5-31.2c7.3-10.2,14.8-20.8,22.5-31
	C469.2,409,477,399,485,389c8-10,16.2-19.7,24.5-29.5c8.3-9.7,16.7-19.2,25.5-28.8s17.5-18.5,26.5-27.8c9-9.2,18.2-17.8,27.5-26.5
	c9.2-8.8,18.8-17,28.2-25c3-2.5,6.8-5.5,10.8-9c4.2-3.5,9-7.2,14.2-11.2s10.8-8.5,16.5-12.8c5.8-4.5,11.8-9,17.8-13.5
	c6-4.5,12.2-9,18.2-13.2s12-8.5,17.5-12.3c5.8-3.8,11-7.5,16-10.5c5-3.3,9.5-5.8,13.5-8"/>
<path id="path5" fill="none" stroke="#231F20" stroke-width="20" stroke-linecap="round" stroke-linejoin="round" stroke-miterlimit="10" d="
	M591.5,156.3c18-4,36-8.5,54-13.2c18-4.8,35.7-10.2,53.5-16c17.8-5.8,35.3-12,52.5-18.8c17.2-6.8,34.3-14,51-21.8
	c1.2-0.5,3-1.2,5.2-2c2.2-0.8,4.8-1.5,7.2-2s5-0.8,7.2-0.8c2.2,0.2,4,0.8,5.2,2c2.2,2,3,4.8,2.8,8.2c0,3.5-1,7.2-2.2,11.2
	c-1.2,3.8-3,7.7-4.5,11c-1.5,3.2-3,6-4,7.5c-8.5,15-16,29.2-22.5,43.2s-12.5,27.8-18,41.5c-5.2,13.8-10.2,27.5-14.7,41.8
	c-4.5,14-8.5,28.5-12.5,43.5"/>
<path id="path7" fill="none" stroke="#231F20" stroke-width="20" stroke-linecap="round" stroke-linejoin="round" stroke-miterlimit="10" d="
	M398,790c-16.5,8.5-32.8,17.2-49,26.5c-16.2,9.3-32.2,18.8-47.8,29c-15.8,10-31,20.5-46.2,31.5c-15,10.7-29.8,22.2-43.8,33.8
	c-1,1-2.8,2-4.5,3.2c-2,1.2-4.2,2.5-6.5,3.8c-2.2,1-4.8,2-6.8,2.5c-2.2,0.5-4,0.2-5.5-0.5c-2.5-1.2-4-4-4.8-7.2
	c-0.8-3.2-1-7.2-0.5-11.5c0.2-4,1-8.2,1.8-11.8c0.7-3.5,1.5-6.5,2-8.2c4.5-16.5,8-32.2,11-47.5c3-15.3,5.2-30,7-44.8s3-29.3,3.8-44
	c0.8-14.8,1-29.8,1.2-45.5"/>
</svg>
