<?xml version="1.0" encoding="utf-8"?>
<!-- Generator: Adobe Illustrator 25.2.1, SVG Export Plug-In . SVG Version: 6.00 Build 0)  -->
<!DOCTYPE svg PUBLIC "-//W3C//DTD SVG 1.1//EN" "http://www.w3.org/Graphics/SVG/1.1/DTD/svg11.dtd" [
	<!ENTITY ns_extend "http://ns.adobe.com/Extensibility/1.0/">
	<!ENTITY ns_ai "http://ns.adobe.com/AdobeIllustrator/10.0/">
	<!ENTITY ns_graphs "http://ns.adobe.com/Graphs/1.0/">
	<!ENTITY ns_vars "http://ns.adobe.com/Variables/1.0/">
	<!ENTITY ns_imrep "http://ns.adobe.com/ImageReplacement/1.0/">
	<!ENTITY ns_sfw "http://ns.adobe.com/SaveForWeb/1.0/">
	<!ENTITY ns_custom "http://ns.adobe.com/GenericCustomNamespace/1.0/">
	<!ENTITY ns_adobe_xpath "http://ns.adobe.com/XPath/1.0/">
]>
<svg version="1.1"
	 id="svg2" xmlns:x="&ns_extend;" xmlns:i="&ns_ai;" xmlns:graph="&ns_graphs;" xmlns:cc="http://creativecommons.org/ns#" xmlns:dc="http://purl.org/dc/elements/1.1/" xmlns:rdf="http://www.w3.org/1999/02/22-rdf-syntax-ns#" xmlns:svg="http://www.w3.org/2000/svg"
	 xmlns="http://www.w3.org/2000/svg" xmlns:xlink="http://www.w3.org/1999/xlink" x="0px" y="0px" width="1000px" height="1000px"
	 viewBox="0 0 1000 1000" enable-background="new 0 0 1000 1000" xml:space="preserve">
<svg:metadata  id="metadata81">
	<rdf:RDF>
		<cc:Work  rdf:about="">
			<dc:format>image/svg+xml</dc:format>
			<dc:type  rdf:resource="http://purl.org/dc/dcmitype/StillImage"></dc:type>
		</cc:Work>
	</rdf:RDF>
</svg:metadata>
<metadata>
	<sfw  xmlns="&ns_sfw;">
		<slices></slices>
		<sliceSourceBounds  bottomLeftOrigin="true" height="836.9" width="881.9" x="-243.4" y="-214.8"></sliceSourceBounds>
	</sfw>
</metadata>
<g id="vs-primary">
	<path fill="#EAE3D3" d="M874.9,624.3c8.4-21,16.4-41.8,20.2-64.2c8-44.6,3-92.6-14-135c-9.4-23.6-22.6-45.4-38-65.4
		c-1.8-3.4-3.6-6.8-5.6-10c-2.2-3.6-5-5.6-8-6.6c-8.4-9.4-17-18.4-26.2-27.2c-10.5-9.9-25.1-0.5-25.8,10.4c-21.9-21-49-37.1-76.6-49
		c-22.4-9.7-46.5-17.8-70.9-21.9c5.6-1.2,10.7-3.5,14.5-7.3c13-13.2,11-36.6,11-53.6c0-12.6-12.8-17-21.8-13
		c-2.2-0.6-4.4-0.6-6.4-0.2c-8.4-11.8-24.3-28.1-33.9-38.6c-10.4-11.4-24.5,7.4-20.5,21.4c3.1,11.4,1.3,25.4,0.1,39
		c-4-25-7.5-50-9.1-75.2c-0.8-12.8-20.8-12.8-20,0c0.2,1.8,0.2,3.4,0.4,5.2c-1,0.6-2,1.4-2.8,2.4c-27.6,34.6-52.8,70.6-77.2,107.4
		c-11.4,17-23,34.2-33.6,51.8c-10,16.6-16.6,34.6-13.4,54c0.1,0.4,0.2,0.9,0.2,1.3c-1.4-2.7-2.7-5.3-3.8-8.1c-5.4-13-1-21.8,6.4-33
		c7-10.8-1.4-20.6-11.4-21.6c-7.8-15.4-34.2-7.6-28,10c1.4,4.2,3,8,5,11.6c-2.2,5.2-4,10.6-4.6,16.4c0,0.2,0,0.5-0.1,0.7
		c-3-15.9-6.5-31.7-10.7-47.3c-3.2-11.6-15.6-12.8-23.2-7.8c-3.2-3.4-8-5-13.8-2.8c-12.6,4.6-24.6,10.2-36.2,16.4
		c-25.4,1.8-50.6,3.8-74,15.8c-28.4,14.6-39.2,43.4-50.2,71.2c-0.6-0.2-1.4-0.6-2.2-0.8c-7.2-2-17.2,2.4-18.4,10.4
		c-5.8,38-22,73.6-28.6,111.4c-3,17.2-10.2,33.4-13.2,50.6c-2.4,14-1.2,28.2-1.4,42.2c-0.4,50.6-4.2,118,42,151.2
		c2.4,1.8,4.8,2.6,7.2,2.8c-0.4,4,1,8,4.4,11c19,15.4,40.2,27,61.8,38.4c4.6,2.4,9,2.4,12.6,0.8l1,0.6c2.2,1.8,4.2,3.8,6.4,5.6
		c1,3,3.2,5.6,6.6,7.6c1.2,0.6,2.4,1.4,3.6,1.8c4,2,9.2,2.6,13.4,1c14.6,7.2,29.6,13.2,45.6,17.2c29.4,7.2,60.8,6.2,90.8,6
		c1.1,0,2.2,0,3.3,0c-5.6,1.3-11.1,3-16.5,5.2c-7.6,3.2-12.8,9.8-10.4,18.4c2,7.2,10.8,13.6,18.4,10.4c14.4-6,29.8-7,45.2-7.6
		c15.6-0.6,28.3,4.2,43.7,2.6c1.2,4.6,6.7,2.4,12.3,3.6c6.2,1.4,12.4,1.8,18.6,1.8c1.4,0,2.6-0.2,3.8-0.4c12.4-0.2,24.6-2,36.8-4.6
		c10-2,19.2-3.4,29.4-3.6c10.8,0,20.4-1.6,30.4-5.2c11.8-4.4,25-6.1,35.8-12.5c23-6.2,43.4-17.3,65.8-24.5
		c33.4-10.6,66.6-24.2,93.8-47c7.6-6.4,5.6-15,0-20.4c8-4,16.2-8,24.4-11.6c13-27.2,30-52.6,39.8-81.2c-4-2.6-9.2-3.4-13.8-2
		c0.8-2.4,1.4-4.8,2.2-7.2C870.3,637.1,872.7,630.7,874.9,624.3z M804.5,656.2c0.6-1.7,1.2-3.4,1.8-5.1c-0.5,2.2-0.9,4.3-1.4,6.4
		C804.8,657.1,804.6,656.7,804.5,656.2z M817.7,375.2c2,4,3.8,8,5.6,12c-1,0.3-2,0.8-3,1.3c-3.7-8.9-8.2-17.5-13.3-25.9
		C810.6,366.8,814.2,370.9,817.7,375.2z M572.5,424.4c1.7,1.5,3.8,2.6,6.6,3.3c1.2,0.2,2.6,0.6,3.8,1v0.2c-0.8-0.2-1.6-0.4-2.4-0.6
		c-3.8-0.9-6.2-0.5-8.1,0.9C572.4,427.6,572.5,426,572.5,424.4z M572.8,403c0-3.8,0-7.5,0-11.3c14.1-5.9,28.4-10.4,43.8-10.2
		c-10.4,3-12.2,17.1-5.5,24.6c-8.3-3.2-16.6-5.7-24.1-7.4C581,397.3,576.1,399.4,572.8,403z M595.7,252.7c-2,0-3.9,0.1-5.9,0.2
		c-3.2,0.2-6,1.2-8.2,2.8c-0.7-4.5-1.5-9-2.2-13.4C583,246.7,588.2,250.3,595.7,252.7z M387.4,394.7c-0.2,1.3-0.3,2.6-0.2,3.8
		c-1.1-0.2-2.2-0.4-3.3-0.6C385.3,397,386.5,395.9,387.4,394.7z M394.1,381.4c-1.3,1.3-2.5,2.9-3.5,4.6c0.1-1.6,0-3.2-0.3-4.8
		c-0.2-1.1-0.3-2.2-0.5-3.3C391.1,379.2,392.6,380.3,394.1,381.4z M240.9,606.2c-8.5-23.7-4.3-48.6,4.6-71.4
		c0.1,0.4,0.3,0.8,0.4,1.2c0,6.8,0.6,13.6,1.8,20.2c8,44.4,21.6,84.9,54.1,113.4c-7.2-4.4-7.4-9.7-14.3-14.4
		C269.5,643,248.7,627.4,240.9,606.2z M379.7,703.2c5.2-1.9,9.4-6.4,9.5-13.5c0.2-23.8-18.6-42.4-32.6-59.4c-1.8-2.2-3.6-4.4-5-6.6
		c0-0.6-0.2-1.2-0.2-1.8c-4-22.6-13.4-46.6-5.4-69.4c0.8-2.6,1-4.8,0.8-7c8.6-20.8,25.8-35.6,45.4-46.8
		c10.8-6.2,20.8-15.4,32.6-19.8c6-2.2,13.6-0.6,20-1c7.6-0.4,14.8-2.6,21-7.2c7.2-6.4,9.8-16.4,2.6-24c-8.4-9-18.5-16.8-28.9-23.6
		c4-1,20.5,3,22.8-0.4c2.6-2.1-8.3-11.8-7.6-15.2c8.6,8.2,17.5,15.9,25.4,23.2c31,28.8,49.2,67,66.6,105c1.6,3.6,4.6,5.2,7.4,5.2
		c1.2,4.6,2.4,9.2,3.4,13.8c2.8,12.6,22.2,7.2,19.2-5.4c-4-17.8-11-35-10.4-53.4c0.6-1.2,1.2-2.4,1.4-4c1.5-11,2.5-22.1,3.3-33.2
		c2.6,4.7,5.5,9.5,6.7,14.6c-0.8,17.4-8.8,38.8,1.4,55.8c-0.2,2.2-0.4,4.2-0.4,6.4c-0.6,11-0.8,25.8,8.6,33.6
		c16,13.2,39.6,15.4,58.6,22.6c11.4,4.2,20.8-8.2,18.4-18.4c-9-39.4,9.8-80-0.6-119.6c-5.1-19.4-22.3-33.4-41.4-42.7
		c9.2,0.7,17.2,8.4,25.2,12.5c17.2,9,40.1-8.5,22.9-17.3c-13.1-6.9-31.7-24-46.9-25.1c3.7-1,6.4-3.3,8-6.3c5.2,1,10.4,2.2,15.6,3.8
		c3.8,1.4,7.6,3,11.2,4.8c0.2,2.2,0.8,4.6,2.2,6.8c8,13,20.4,21,31,31.6c1.2,1.2,2.2,2.4,3.2,3.6c7.8,20,9.6,42.8,9.6,64.6
		c0.2,37.4-5.8,74.4-7,111.6c-2.2,0.6-4.4,1.8-6.6,3.8c-25.4,24.2-49.6,49.8-70.2,78c-4.2,1.8-8.6,3.6-12.8,5.2
		c-54,20.8-110.6,35.4-168.8,28.8C418.8,715,399,710,379.7,703.2z M732.7,755.6c-7.4,4.2-15,8.2-22.4,12.2
		c-16.8,9-34,16.6-50.4,26.4c-6,3.6-12,7.4-18.2,11.2c-11.8,3.2-23.8,6-35.6,8.4c-16.9,3.4-33.4,3.9-50.5,4.2
		c38.6-9.8,75.5-18.6,112-36.1c26.1-12.5,54-31.4,77.5-48.6C738.5,739.4,734.2,746.6,732.7,755.6z M755.3,725.4
		c-0.5,0.3-1,0.7-1.5,1c2.2-1.9,4.3-3.8,6.3-5.8c6.7-4.7,12.8-10,18.3-16.1c0.1,0.6,0.2,1.3,0.3,1.9
		C771.3,713.2,763.9,720,755.3,725.4z M818.3,606.1c4.2-20.6,7-41.6,9.4-62.3c1-0.6,1.9-1.3,2.7-2.1c-0.2,11.1-0.1,22.3,0.1,33.5
		C826.5,585.6,822.2,595.7,818.3,606.1z"/>
</g>
<g id="vs-shade" opacity="0.4">
	<path id="path7_1_" d="M674,406.8c-13.6-7.2-36.1-25.4-52.3-26c-19.4-0.8-19.2,29.2,0,30c9.4,0.4,17.6,8.4,25.8,12.6
		C664.7,432.5,691.2,415.6,674,406.8z"/>
	<path id="path9_1_" d="M468.5,446.6c-12.4-13.2-28.2-23.8-43.8-32.6c-15.4-8.8-33.8-17.4-52-17c-5.2,0.2-9,2.4-11.4,5.6
		c-4.6-0.8-9.6,0.4-12.6,4.2c-2.4,3-8.9-1.2-11.7,1.4c-5.2-0.4-6.3,6.4-12.3,8.2c-10.6,3-19.8,10.2-30.6,12
		c-11.6,2-20.2,3.7-15.4,11.5c-0.2,0.2-1.2,10.6-1.4,10.8c-4-5.4-3.6-8.5-10.8-3.5c-16.4,11.4-25.8,25.4-28.4,45.4
		c-1.8,14.6,2.8,29.4,7.8,43.4c0,6.8-5.8,16.1-4.6,22.7c11.2,62.2,53.4,112.7,112,138.5c3,1.2,6,2,9,1.8c7.6,9.2,26.8,6,27-9.4
		c0.2-23.8-18.6-42.4-32.6-59.4c-1.8-2.2-3.6-4.4-5-6.6c0-0.6-0.2-1.2-0.2-1.8c-4-22.6-13.4-46.6-5.4-69.4c0.8-2.6,1-4.8,0.8-7
		c8.6-20.8,25.8-35.6,45.4-46.8c10.8-6.2,20.8-15.4,32.6-19.8c6-2.2,13.6-0.6,20-1c7.6-0.4,14.8-2.6,21-7.2
		C473.1,464.2,475.7,454.2,468.5,446.6z"/>
	<path id="path11_1_" d="M655.5,194.4c0-12.6-12.8-17-21.8-13c-2.2-0.6-4.4-0.6-6.4-0.2c-8.4-11.8-29.4-30.9-39-41.5
		c-10.4-11.4-19.4,10.3-15.4,24.3c8.2,29.6-17.8,77.4,24.8,89.2c14,4,35.6,6,46.8-5.2C657.5,234.9,655.5,211.4,655.5,194.4z"/>
	<path id="path13_1_" d="M663.7,453.6c-8.2-31.4-48.2-48.6-76.6-55c-18.8-4.2-26.8,24.8-8,29c1.2,0.2,2.6,0.6,3.8,1v0.2
		c-0.8-0.2-1.6-0.4-2.4-0.6c-8.6-2-10.4,2.6-13.4,10.4c-4.6,12.2,7.6,22.4,10.6,34.6c-0.8,17.4-8.8,38.8,1.4,55.8
		c-0.2,2.2-0.4,4.2-0.4,6.4c-0.6,11-0.8,25.8,8.6,33.6c16,13.2,39.6,15.4,58.6,22.6c11.4,4.2,20.8-8.2,18.4-18.4
		C655.3,533.8,674.1,493.2,663.7,453.6z"/>
	<path id="path15_1_" d="M453.5,397.6c-6.2-12.8-16.4-20.8-27-28.4c-0.6-1.8-1.2-3.4-2-5.2c-3.2-7.6-7.6-14.6-10.8-22.2
		c-5.4-13-1-21.8,6.4-33c7-10.8-1.4-20.6-11.4-21.6c-7.8-15.4-34.2-7.6-28,10c1.4,4.2,3,8,5,11.6c-2.2,5.2-4,10.6-4.6,16.4
		c-1,8.6,0.8,16.6,3.8,24.4c-5.8,5.2-8.2,14.6-1.6,22c3.2,3.6,6.8,6.8,10.8,9.8c-3.2,3.2-5.6,7.6-6.6,13c-2,11.6,6.6,20.8,18.4,18.4
		c3.4-0.6,6.4-1.6,9-3c3.8,3,7.4,6.6,11,9.8c8.4,7.2,27.3,10,32.1,3C462.8,418.7,456.9,405.1,453.5,397.6z"/>
	<path id="path17_1_" d="M881.1,425.1c-9.4-23.6-22.6-45.4-38-65.4c-1.8-3.4-3.6-6.8-5.6-10c-2.2-3.6-5-5.6-8-6.6
		c-8.4-9.4-17-18.4-26.2-27.2c-14-13.2-35.4,8-21.2,21.2c12.6,12,24.6,24.6,35.6,38.2c2,4,3.8,8,5.6,12c-7,2.2-12.6,8.8-10.4,17.8
		c5.6,23.2,17,44.6,24.2,67.2c-7,33.8-7.2,68.2-6.6,103c-4.6,12-9.6,23.6-14,35.8c-6.2,17-8.8,35.2-13,52.8c-6.4-2-13.4,1-17.2,6.8
		c-6.8,10.8-9.6,23.4-7.6,35.8c-7.4,6.8-14.8,13.6-23.4,19c-12.2,7.8-20.4,17-22.6,30.2c-7.4,4.2-15,8.2-22.4,12.2
		c-16.8,9-34,16.6-50.4,26.4c-6,3.6-12,7.4-18.2,11.2c-11.8,3.2-23.8,6-35.6,8.4c-17.8,3.6-35.2,4-53.4,4.2
		c-20.8,0.4-41.8,1.6-62.4,4.2c-32.2,3.8-68.8-0.4-99,12.2c-7.6,3.2-12.8,9.8-10.4,18.4c2,7.2,10.8,13.6,18.4,10.4
		c14.4-6,29.8-7,45.2-7.6c15.6-0.6,26.2,6.4,41.6,4.8c1.2,4.6,8.8,0.2,14.4,1.4c6.2,1.4,12.4,1.8,18.6,1.8c1.4,0,2.6-0.2,3.8-0.4
		c12.4-0.2,24.6-2,36.8-4.6c10-2,19.2-3.4,29.4-3.6c10.8,0,20.4-1.6,30.4-5.2c11.8-4.4,22.6-10.2,33.4-16.6
		c23-6.2,45.8-13.2,68.2-20.4c33.4-10.6,66.6-24.2,93.8-47c7.6-6.4,5.6-15,0-20.4c8-4,16.2-8,24.4-11.6c13-27.2,30-52.6,39.8-81.2
		c-4-2.6-9.2-3.4-13.8-2c0.8-2.4,1.4-4.8,2.2-7.2c2.8-6.4,5.2-12.8,7.4-19.2c8.4-21,16.4-41.8,20.2-64.2
		C903.1,515.5,898.1,467.5,881.1,425.1z"/>
</g>
<g id="vs-outline">
	
		<path id="path20" fill="none" stroke="#231F20" stroke-width="20.5624" stroke-linecap="round" stroke-linejoin="round" stroke-miterlimit="10" d="
		M405.5,329.9c14-20,143.8-214,161-223c4.4,12,10.2,121.8,11,147c45-7,155.6-5,221,105.4c52.8,89.2,28.4,245.4-3,305.6
		c-39.2,75.2-140,169.6-347,171c-288,2-338-135-340-237c-6-303,183.4-325,264.6-335c5.4-0.6,12.2,99.2,13.4,130
		c-49.4,0-151,33-145,159c11.2,235.8,436.6,189.4,455,25c26-232-92-194-119-190c-4.6,0.6,2.4,183.8-4,185
		c-5.4,1-153-223.6-168.6-243.8"/>
	
		<path id="path22" fill="none" stroke="#231F20" stroke-width="20.5624" stroke-linecap="round" stroke-linejoin="round" stroke-miterlimit="10" d="
		M568.5,106.4c8.8,27.6,58.4,66,82.6,82.6"/>
	
		<path id="path24" fill="none" stroke="#231F20" stroke-width="20.5624" stroke-linecap="round" stroke-linejoin="round" stroke-miterlimit="10" d="
		M651.1,190.4c8.2,13.6,2.8,40.4,5.4,58.6"/>
	
		<path id="path26" fill="none" stroke="#231F20" stroke-width="20.5624" stroke-linecap="round" stroke-linejoin="round" stroke-miterlimit="10" d="
		M573.9,573.2c57.4,9.4,56,13.4,92,20"/>
	
		<path id="path30" fill="none" stroke="#231F20" stroke-width="20.5624" stroke-linecap="round" stroke-linejoin="round" stroke-miterlimit="10" d="
		M667.1,591.8c-4-58.8-4-89.4-10.6-161.4"/>
	
		<path id="path28" fill="none" stroke="#231F20" stroke-width="20.5624" stroke-linecap="round" stroke-linejoin="round" stroke-miterlimit="10" d="
		M648.5,427.9c-23.2-9.4-44.8-29.4-69.4-34.6"/>
	
		<path id="path32" fill="none" stroke="#231F20" stroke-width="20.5624" stroke-linecap="round" stroke-linejoin="round" stroke-miterlimit="10" d="
		M651.1,429.2c13.4,2.8,22.6-0.6,34.6,5.4"/>
	
		<path id="path34" fill="none" stroke="#231F20" stroke-width="20.5624" stroke-linecap="round" stroke-linejoin="round" stroke-miterlimit="10" d="
		M716.5,277.2c100,37.4,154.6,91,169.4,170.6c13.4,72.4-4.8,222.8-46.4,280.8c-119,165.8-463,160.6-587,79.2"/>
	
		<path id="path36" fill="none" stroke="#231F20" stroke-width="20.5624" stroke-linecap="round" stroke-linejoin="round" stroke-miterlimit="10" d="
		M376.5,263.9c25.4,12,32.8,18.8,50.6,29.4"/>
	
		<path id="path38" fill="none" stroke="#231F20" stroke-width="20.5624" stroke-linecap="round" stroke-linejoin="round" stroke-miterlimit="10" d="
		M387.1,395.9c34,15.6,69.8,35.4,100,56"/>
	
		<path id="path40" fill="none" stroke="#231F20" stroke-width="20.5624" stroke-linecap="round" stroke-linejoin="round" stroke-miterlimit="10" d="
		M481.9,458.5c-47.6,10.8-115,43.2-126.6,88c-14.2,54.4,5.8,109.6,46.6,161.4"/>
	
		<path id="path42" fill="none" stroke="#231F20" stroke-width="6" stroke-linecap="round" stroke-linejoin="round" stroke-miterlimit="10" d="
		M580.5,463.9c13.4-16,28.4-33.2,49-40"/>
	
		<path id="path44" fill="none" stroke="#231F20" stroke-width="6" stroke-linecap="round" stroke-linejoin="round" stroke-miterlimit="10" d="
		M581.5,517.8c20-25.6,56.4-47.8,79-71"/>
	
		<path id="path46" fill="none" stroke="#231F20" stroke-width="6" stroke-linecap="round" stroke-linejoin="round" stroke-miterlimit="10" d="
		M585.5,558.8c23-23.6,48.8-43.8,73-66"/>
	
		<path id="path48" fill="none" stroke="#231F20" stroke-width="6" stroke-linecap="round" stroke-linejoin="round" stroke-miterlimit="10" d="
		M623.5,572.8c15.2-13.2,31.2-25.4,47.4-37.4"/>
	
		<path id="path50" fill="none" stroke="#231F20" stroke-width="6" stroke-linecap="round" stroke-linejoin="round" stroke-miterlimit="10" d="
		M395.5,407.9c-40.4,15.4-98.4,36-134,62"/>
	
		<path id="path52" fill="none" stroke="#231F20" stroke-width="6" stroke-linecap="round" stroke-linejoin="round" stroke-miterlimit="10" d="
		M436.5,425.9c-30.8,3.8-62.4,23-90,36.2c-31,14.8-63.8,27.4-94,42.8"/>
	
		<path id="path54_1_" fill="none" stroke="#231F20" stroke-width="6" stroke-linecap="round" stroke-linejoin="round" stroke-miterlimit="10" d="
		M472.5,443.1c-81.5,10.8-156.2,70.3-234,88.8"/>
	
		<path id="path56" fill="none" stroke="#231F20" stroke-width="6" stroke-linecap="round" stroke-linejoin="round" stroke-miterlimit="10" d="
		M387.5,507.9c-33.8,7-92.2,42.4-126,51"/>
	
		<path id="path58" fill="none" stroke="#231F20" stroke-width="6" stroke-linecap="round" stroke-linejoin="round" stroke-miterlimit="10" d="
		M349.5,552.8c-11,3.6-20.4,11.6-33,12"/>
	
		<path id="path60" fill="none" stroke="#231F20" stroke-width="6" stroke-linecap="round" stroke-linejoin="round" stroke-miterlimit="10" d="
		M449.5,835.8c19,11.2,30.2,18.6,48,32"/>
	
		<path id="path62" fill="none" stroke="#231F20" stroke-width="6" stroke-linecap="round" stroke-linejoin="round" stroke-miterlimit="10" d="
		M524.5,827.8c16.8,13,35,24.2,52,37"/>
	
		<path id="path64" fill="none" stroke="#231F20" stroke-width="6" stroke-linecap="round" stroke-linejoin="round" stroke-miterlimit="10" d="
		M612.5,809.8c13.2,10,28.6,17.6,43,26"/>
	
		<path id="path66" fill="none" stroke="#231F20" stroke-width="6" stroke-linecap="round" stroke-linejoin="round" stroke-miterlimit="10" d="
		M689.5,780.8c15.2,13.6,38.6,20.4,57,29"/>
	
		<path id="path68" fill="none" stroke="#231F20" stroke-width="6" stroke-linecap="round" stroke-linejoin="round" stroke-miterlimit="10" d="
		M749.5,739.8c13,8.2,42,17,56,24"/>
	
		<path id="path70" fill="none" stroke="#231F20" stroke-width="6" stroke-linecap="round" stroke-linejoin="round" stroke-miterlimit="10" d="
		M781.5,695.8c13.8,4,27.6,8.4,42,10"/>
	
		<path id="path72" fill="none" stroke="#231F20" stroke-width="6" stroke-linecap="round" stroke-linejoin="round" stroke-miterlimit="10" d="
		M806.5,647.8c9.4,3.6,19.8,4.6,30,4"/>
</g>
<g id="vs-reveal">
	
		<path opacity="0" fill="none" stroke="#00A79D" stroke-width="100" stroke-linecap="round" stroke-linejoin="round" stroke-miterlimit="10" d="
		M372.3,231.9c0,0,62.6,244.1,47.5,257c-15.1,13-114.5-218.2-140.4-213.8c-25.9,4.3,112.3,248.4,99.4,257
		c-13,8.6-157.7-233.3-172.8-213.8c-15.1,19.4,159.8,229,146.9,244.1S152,374.4,141.2,398.2C130.4,422,355,586.1,348.5,605.6
		c-6.5,19.4-226.8-133.9-233.3-108c-6.5,25.9,250.6,136.1,250.6,155.5s-257-69.1-259.2-47.5c-2.2,21.6,276.5,82.1,280.8,97.2
		s-252.7-21.6-254.9,0c-2.2,21.6,306.7,4.3,313.2,19.4s-250.6,60.5-229,75.6s265.7-84.2,285.1-75.6S320.4,845.3,350.7,849.6
		c30.2,4.3,183.6-142.6,205.2-142.6s-103.7,157.7-84.2,157.7c19.4,0,120.8-173.3,136-176.3S551.6,854,571,856.1
		c19.4,2.2,58.3-185.8,71.3-185.8c13,0,6.5,170.6,21.6,168.5c15.1-2.2-19.4-183.6-2.2-192.2C679,638,733,800,746,795.6
		c13-4.3-54-170.6-45.4-185.8c8.6-15.1,114.5,157.7,121,144.7c6.5-13-118.8-190.1-105.8-198.7c13-8.6,133.9,127.4,149,114.5
		c15.1-13-153.4-153.4-153.4-168.5s170.6,90.7,172.8,67c2.2-23.8-181.4-95-183.6-110.2c-2.2-15.1,187.9,21.6,187.9,4.3
		s-185.8-36.7-185.8-51.8s170.6-34.6,172.8-51.8s-164.2,51.8-170.6,38.9c-6.5-13,116.6-95,103.7-105.8
		c-13-10.8-99.4,90.7-114.5,90.7s75.6-131.8,30.2-140.4C679,234,679,592.6,655.2,588.3c-23.8-4.3,8.6-421.2-17.3-423.4
		c-25.9-2.2-34.6,419-54,421.2c-19.4,2.2-15.4-460.8-40.1-458.3s-9.6,380.5-31.2,382.7c-21.6,2.2-54-239.8-54-239.8"/>
</g>
</svg>
