<?xml version="1.0" encoding="utf-8"?>
<!-- Generator: Adobe Illustrator 22.0.1, SVG Export Plug-In . SVG Version: 6.00 Build 0)  -->
<svg version="1.1" id="Layer_1" xmlns="http://www.w3.org/2000/svg" xmlns:xlink="http://www.w3.org/1999/xlink" x="0px" y="0px"
	 width="1000px" height="1000px" viewBox="0 0 1000 1000" enable-background="new 0 0 1000 1000" xml:space="preserve">
<g id="vs-primary">
	<path fill="#FFFFFF" d="M741.6,182.1v576.6c0,21.1-8,40.4-21.2,54.9c-14.9,16.4-36.5,26.7-60.4,26.7H405.2
		c-45,0-81.6-36.5-81.6-81.6V182.1c0-14.9,4-28.8,10.9-40.8c14.1-24.4,40.5-40.8,70.7-40.8H660C705.1,100.5,741.6,137,741.6,182.1z"
		/>
</g>
<g id="vs-colour">
	<path fill="#4A4A51" d="M381.3,247.8c0,4.7-3.8,8.4-8.4,8.4c-1.9,0-3.7-0.7-5.1-1.7c-0.2-0.2-0.5,0.1-0.3,0.3
		c2.2,3.7,5.5,6.7,9.5,8.4c0.6,0.3,0.4,1.2-0.2,1.2h-23.9c-0.7,0-0.8-0.9-0.2-1.2c4-1.7,7.3-4.7,9.5-8.4c0.1-0.2-0.1-0.4-0.3-0.3
		c-1.5,1.2-3.5,1.8-5.6,1.7c-4.2-0.2-7.9-4-7.9-7.8c0-8.7,17-21.1,17-21.1S381.3,239.3,381.3,247.8z"/>
	<path fill="#4A4A51" d="M684.4,684c0-4.7,3.8-8.4,8.4-8.4c1.9,0,3.7,0.7,5.1,1.7c0.2,0.2,0.5-0.1,0.3-0.3c-2.2-3.7-5.5-6.7-9.5-8.4
		c-0.6-0.3-0.4-1.2,0.2-1.2h23.9c0.7,0,0.8,0.9,0.2,1.2c-4,1.7-7.3,4.7-9.5,8.4c-0.1,0.2,0.1,0.4,0.3,0.3c1.5-1.2,3.5-1.8,5.6-1.7
		c4.2,0.2,7.9,4,7.9,7.8c0,8.7-17,21.1-17,21.1S684.4,692.5,684.4,684z"/>
	<path fill="#4A4A51" d="M493.1,308c0,9.3-7.6,16.9-16.9,16.9c-3.9,0-7.4-1.3-10.3-3.5c-0.4-0.3-0.9,0.2-0.7,0.6
		c4.3,7.5,11,13.4,19,16.8c1.2,0.5,0.9,2.3-0.5,2.3H436c-1.3,0-1.7-1.8-0.5-2.3c8-3.4,14.7-9.3,19-16.8c0.2-0.4-0.3-0.9-0.7-0.6
		c-3.1,2.4-7,3.7-11.2,3.5c-8.4-0.5-15.9-8-15.9-15.6c0-17.3,33.9-42.2,33.9-42.2S493.1,290.9,493.1,308z"/>
	<path fill="#4A4A51" d="M635,308c0,9.3-7.6,16.9-16.9,16.9c-3.9,0-7.4-1.3-10.3-3.5c-0.4-0.3-0.9,0.2-0.7,0.6
		c4.3,7.5,11,13.4,19,16.8c1.2,0.5,0.9,2.3-0.5,2.3H578c-1.3,0-1.7-1.8-0.5-2.3c8-3.4,14.7-9.3,19-16.8c0.2-0.4-0.3-0.9-0.7-0.6
		c-3.1,2.4-7,3.7-11.2,3.5c-8.4-0.5-15.9-8-15.9-15.6c0-17.3,33.9-42.2,33.9-42.2S635,290.9,635,308z"/>
	<path fill="#4A4A51" d="M569.8,636.3c0-9.3,7.6-16.9,16.9-16.9c3.9,0,7.4,1.3,10.3,3.5c0.4,0.3,0.9-0.2,0.7-0.6
		c-4.3-7.5-11-13.4-19-16.8c-1.2-0.5-0.9-2.3,0.5-2.3H627c1.3,0,1.7,1.8,0.5,2.3c-8,3.4-14.7,9.3-19,16.8c-0.2,0.4,0.3,0.9,0.7,0.6
		c3.1-2.4,7-3.7,11.2-3.5c8.4,0.5,15.9,8,15.9,15.6c0,17.3-33.9,42.2-33.9,42.2S569.8,653.4,569.8,636.3z"/>
	<path fill="#4A4A51" d="M427.9,636.3c0-9.3,7.6-16.9,16.9-16.9c3.9,0,7.4,1.3,10.3,3.5c0.4,0.3,0.9-0.2,0.7-0.6
		c-4.3-7.5-11-13.4-19-16.8c-1.2-0.5-0.9-2.3,0.5-2.3h47.8c1.3,0,1.7,1.8,0.5,2.3c-8,3.4-14.7,9.3-19,16.8c-0.2,0.4,0.3,0.9,0.7,0.6
		c3.1-2.4,7-3.7,11.2-3.5c8.4,0.5,15.9,8,15.9,15.6c0,17.3-33.9,42.2-33.9,42.2S427.9,653.4,427.9,636.3z"/>
</g>
<g id="vs-shade">
	<path opacity="0.3" fill="#020202" enable-background="new    " d="M741,763.3v19.3c0,5-0.4,9.9-1.3,14.6
		c-7,37.4-40.2,65.7-80.2,65.7H404.6c-45.1,0-81.6-36-81.6-80.3V214.8c0-3.5,0.2-7,0.7-10.3v548.3c0,45,36.5,81.6,81.6,81.6h254.9
		c40,0,73.3-28.8,80.2-66.7C740.6,766.2,740.8,764.8,741,763.3z"/>
	<path opacity="0.2" fill="#B2B2B2" enable-background="new    " d="M720.5,810c-14.9,16.4-36.5,26.7-60.4,26.7H405.2
		c-45,0-81.6-36.5-81.6-81.6V178.6c0-14.9,4-28.8,10.9-40.8l37.2,457.6c7.4,91.3,74.3,166,162.6,181.6L720.5,810z"/>
</g>
<g id="vs-outline">
	<path fill="none" stroke="#000000" stroke-width="15" stroke-linecap="round" stroke-linejoin="round" stroke-miterlimit="10" d="
		M660.3,841h-74.1H479.4h-74c-14.7,0-28.4-3.9-40.3-10.7c-11.7-6.7-21.6-16.2-28.8-27.5c-7.9-12.6-12.5-27.4-12.5-43.4V658V466.9
		V293V182.9c0-15.3,4.2-29.6,11.6-41.9c6.2-10.3,14.5-19.1,24.4-25.8c13-8.8,28.7-13.9,45.6-13.9h74h114.2h66.7
		c13.2,0,25.7,3.1,36.7,8.7c14.2,7.1,26,18.3,33.9,32c7,12,11,26,11,40.9v121.7v162.3v198.4v94.2c0,12.7-2.9,24.7-8.1,35.4
		c-6.6,13.7-16.9,25.2-29.6,33.3C691.5,836.3,676.5,841,660.3,841z"/>
	<path fill="none" stroke="#000000" stroke-width="4" stroke-miterlimit="10" d="M381.3,247.8c0,4.7-3.8,8.4-8.4,8.4
		c-1.4,0-2.7-0.3-3.8-0.9c-0.5-0.3-1.1,0.4-0.8,0.9c2.1,3.1,5.1,5.5,8.6,7c0.6,0.3,0.4,1.2-0.2,1.2h-23.9c-0.7,0-0.8-0.9-0.2-1.2
		c3.5-1.5,6.4-3.9,8.6-6.9c0.3-0.5-0.2-1.2-0.7-0.9c-1.3,0.6-2.7,1-4.3,0.9c-4.2-0.2-7.9-4-7.9-7.8c0-4.1,3.8-9,7.7-13
		c4.5-4.6,9.2-8,9.2-8s3.3,2.4,6.9,5.9C376.5,237.4,381.3,243.2,381.3,247.8z"/>
	
		<polyline fill="none" stroke="#000000" stroke-width="6" stroke-linecap="round" stroke-linejoin="round" stroke-miterlimit="10" points="
		378.4,202.1 374.1,202.1 356.4,202.1 350.5,202.1 354.1,197.4 366.2,180.9 370.6,175.1 370.5,182.5 370.2,209.9 370.1,215.4 	"/>
	<path fill="none" stroke="#000000" stroke-width="4" stroke-miterlimit="10" d="M684.4,684c0-4.7,3.8-8.4,8.4-8.4
		c1.2,0,2.4,0.3,3.5,0.8c0.6,0.3,1.3-0.4,0.9-1c-2.1-2.9-5-5.3-8.4-6.7c-0.6-0.3-0.4-1.2,0.2-1.2h23.9c0.7,0,0.8,0.9,0.2,1.2
		c-3.4,1.4-6.3,3.8-8.4,6.7c-0.4,0.6,0.2,1.3,0.8,1c1.2-0.5,2.6-0.8,4-0.7c4.2,0.2,7.9,4,7.9,7.8c0,4.6-4.8,10.3-9.4,14.6
		c-3.9,3.8-7.6,6.4-7.6,6.4s-4.6-3.4-8.8-7.8C688,692.8,684.4,688,684.4,684z"/>
	
		<polyline fill="none" stroke="#000000" stroke-width="6" stroke-linecap="round" stroke-linejoin="round" stroke-miterlimit="10" points="
		685.3,735 689.6,735 707.2,735 713.1,735 709.6,739.7 697.4,756.1 693.1,761.9 693.2,754.5 693.5,727.2 693.6,721.6 	"/>
	<path fill="none" stroke="#000000" stroke-width="6" stroke-miterlimit="10" d="M493.1,308c0,9.3-7.6,16.9-16.9,16.9
		c-3.9,0-7.4-1.3-10.3-3.5c-0.4-0.3-0.9,0.2-0.7,0.6c4.3,7.5,11,13.4,19,16.8c1.2,0.5,0.9,2.3-0.5,2.3H436c-1.3,0-1.7-1.8-0.5-2.3
		c8-3.4,14.7-9.3,19-16.8c0.2-0.4-0.3-0.9-0.7-0.6c-3.1,2.4-7,3.7-11.2,3.5c-8.4-0.5-15.9-8-15.9-15.6c0-8.9,9-19.8,17.7-28.3
		c8.2-8,16.2-13.9,16.2-13.9s7.4,5.5,15.1,13C484.3,288.3,493.1,299,493.1,308z"/>
	<path fill="none" stroke="#000000" stroke-width="6" stroke-miterlimit="10" d="M635,308c0,9.3-7.6,16.9-16.9,16.9
		c-3.9,0-7.4-1.3-10.3-3.5c-0.4-0.3-0.9,0.2-0.7,0.6c4.3,7.5,11,13.4,19,16.8c1.2,0.5,0.9,2.3-0.5,2.3H578c-1.3,0-1.7-1.8-0.5-2.3
		c8-3.4,14.7-9.3,19-16.8c0.2-0.4-0.3-0.9-0.7-0.6c-3.1,2.4-7,3.7-11.2,3.5c-8.4-0.5-15.9-8-15.9-15.6c0-9,9.1-20,17.9-28.5
		c8.2-7.9,16-13.7,16-13.7s6.6,4.8,13.8,11.7C625.2,287.1,635,298.6,635,308z"/>
	<path fill="none" stroke="#000000" stroke-width="6" stroke-miterlimit="10" d="M427.9,636.3c0-9.3,7.6-16.9,16.9-16.9
		c3.9,0,7.4,1.3,10.3,3.5c0.4,0.3,0.9-0.2,0.7-0.6c-4.3-7.5-11-13.4-19-16.8c-1.2-0.5-0.9-2.3,0.5-2.3h47.8c1.3,0,1.7,1.8,0.5,2.3
		c-8,3.4-14.7,9.3-19,16.8c-0.2,0.4,0.3,0.9,0.7,0.6c3.1-2.4,7-3.7,11.2-3.5c8.4,0.5,15.9,8,15.9,15.6c0,8-7.1,17.5-14.9,25.5
		c-9.1,9.4-19,16.7-19,16.7s-10.9-8-20-18.1C433.6,651.9,427.9,643.5,427.9,636.3z"/>
	<path fill="none" stroke="#000000" stroke-width="6" stroke-miterlimit="10" d="M569.8,636.3c0-9.3,7.6-16.9,16.9-16.9
		c3.9,0,7.4,1.3,10.3,3.5c0.4,0.3,0.9-0.2,0.7-0.6c-4.3-7.5-11-13.4-19-16.8c-1.2-0.5-0.9-2.3,0.5-2.3H627c1.3,0,1.7,1.8,0.5,2.3
		c-8,3.4-14.7,9.3-19,16.8c-0.2,0.4,0.3,0.9,0.7,0.6c3.1-2.4,7-3.7,11.2-3.5c8.4,0.5,15.9,8,15.9,15.6c0,8.8-8.7,19.5-17.3,27.9
		c-8.4,8.2-16.6,14.2-16.6,14.2s-9.8-7.2-18.6-16.6C576.3,653.1,569.8,644,569.8,636.3z"/>
</g>
<g id="vs-reveal">
	
		<path fill="none" stroke="#B2B2B2" stroke-width="70" stroke-linecap="round" stroke-linejoin="round" stroke-miterlimit="10" stroke-opacity="0" d="
		M780.9,108.2c15.3,16.6-129.3-0.9-265.5-8.7c-77-4.4-151.3-5.7-192.5,4.1c-10,2.4-18.1,5.4-23.8,9.3c-6.3,4.3-9.6,9.5-9.3,15.9
		c0.3,5.7,2.4,10.5,6.2,14.5c3.5,3.7,8.4,6.7,14.6,9.2c51.7,20.7,190.2,0.3,305.6-9.4c58.1-4.9,110.4-7,142.9,0.1
		c10.4,2.3,18.8,5.6,24.6,10s9.2,10.1,9.5,17.1c0.3,6.7-2.1,12.1-7,16.4c-4.2,3.7-10.2,6.6-17.6,8.9c-46.9,13.9-153.2,0.8-253.8-7.6
		c-90.5-7.6-176.5-11.4-210.2,11.7c-4.5,3.1-8.1,6.6-10.6,10.7s-4,8.7-4.4,13.9c-0.2,3.7,0.6,6.8,2.4,9.5c2.5,3.7,6.9,6.5,12.9,8.6
		c43.5,15,171.6-9.4,284.1-21c76-7.8,144.9-9.8,175.8,10c5.4,3.5,9.7,7.7,12.6,12.6c2.5,4.2,4,9,4.4,14.4c0.4,4.7-1.5,8.5-5.4,11.6
		c-3.3,2.7-8,4.8-13.9,6.5c-43.8,12.7-154.8,1.6-256.7-3c-79.5-3.6-153.4-3.2-185.6,15.4c-5,2.9-9.1,6.3-11.9,10.1
		c-3.5,4.7-5.2,10.1-5.1,16.3c0.1,4.1,1.9,7.5,5.3,10.3c2.9,2.4,6.9,4.4,11.9,6c42.2,13.4,155.1-0.3,257.8-7.6
		c74-5.3,142.7-7.3,175.9,6.5c6.7,2.8,12,6.2,15.6,10.5s5.5,9.2,5.4,15c-0.1,4.8-1.8,8.9-5.1,12.4c-2.9,3.1-6.9,5.6-12,7.8
		c-41.5,17.5-151.9,5.9-253.6,0.1c-86-5-165.9-5.9-192.8,18c-3,2.6-5.3,5.6-6.9,8.8s-2.5,6.9-2.7,10.8c-0.1,2.6,0.3,4.9,1.1,7.1
		c1.4,3.7,4.1,6.7,7.9,9.2c35.4,23.2,168.5-0.1,282.4-10.6c72.6-6.7,137.3-8.3,164.1,10.6c4.5,3.2,7.9,6.9,10.1,11.2
		s3.2,9.4,2.9,15.1c-0.3,4.5-2.6,8.2-6.7,11.2c-2.9,2.1-6.6,3.9-11.1,5.3c-42.9,14.1-155.9,1.8-259.6-3.8
		c-77.4-4.2-149.6-4.7-183.5,12.2c-6.3,3.1-11.2,6.8-14.6,11.2c-3.5,4.4-5.4,9.5-5.5,15.4c-0.1,3.6,0.9,6.7,2.9,9.4
		c2.3,3.1,5.8,5.7,10.4,7.9c39.5,18.8,160.2,7.5,271.9,0.6c81.4-5.1,158-7.8,195.1,5.1c8,2.8,14.2,6.3,18.2,10.7
		c3.2,3.6,5,7.7,5.1,12.5c0.1,5.2-1.9,9.5-5.9,13.1c-3.6,3.3-8.9,6-15.5,8.1c-48.8,15.8-172.6,3-282.5-3
		c-80.1-4.3-152.9-5-183.9,11.8c-4.9,2.7-8.8,5.8-11.5,9.4c-2.9,3.9-4.4,8.4-4.3,13.5c0.1,4.3,1.3,8.2,3.5,11.5
		c2.3,3.5,5.6,6.4,10,8.9c47.7,27.8,212.7,2.7,340.5-9c51.3-4.7,96.7-7.2,126-3.2c11.9,1.6,21.2,4.3,27.2,8.3
		c5.2,3.5,7.9,8.1,7.7,13.8c-0.2,4.9-2.6,9-6.8,12.6c-4.7,4-11.9,7.3-21,9.9c-58.1,16.6-196.9,6.5-313.6,2.4
		c-65.6-2.3-124.2-2.7-157.6,4.6c-9.8,2.1-17.5,4.9-22.5,8.6c-4.8,3.4-7.2,7.6-6.7,12.7c0.4,4.9,3.4,8.7,8.7,11.6
		c4.3,2.3,10.1,4.1,17.1,5.3c58.8,10.1,206.9-15.6,329.1-24.3c71.9-5.1,134.8-4.4,165.2,12.9c7.8,4.5,13.5,10,16.7,16.9
		c2.1,4.6,3.1,9.8,2.7,15.6c-0.3,5.2-3.8,9.3-10,12.5c-5.5,2.8-13.1,4.9-22.4,6.3c-58.4,9.1-185.9-5.2-300.6-12.8
		c-75.6-5-145.7-7.1-186.7,2.3c-12.6,2.9-22.5,6.9-29,12.3c-7.3,6-10.2,13.8-7.7,23.6c1,4.2,3.9,7.7,8.4,10.6c6.2,4,15.4,7,27.1,9.1
		c60.4,10.8,186.7-1.6,298.7-8c75.7-4.4,144.9-6,182.9,4.2c9.6,2.6,17.2,5.9,22.4,10.1c5.5,4.5,8.3,10,7.9,16.8
		c-0.4,5.5-2.6,10.1-6.5,14c-5.9,5.9-15.7,10.1-28.6,13c-52.7,11.8-157,1.9-258.7-1.1c-64.9-1.9-128.8-1.1-177.5,10
		c-7.2,1.6-14.1,3.5-20.6,5.6c-7.3,2.4-14.2,5.1-20.5,8.1"/>
</g>
</svg>
