<?xml version="1.0" encoding="utf-8"?>
<!-- Generator: Adobe Illustrator 22.0.1, SVG Export Plug-In . SVG Version: 6.00 Build 0)  -->
<svg version="1.1" id="Layer_1" xmlns="http://www.w3.org/2000/svg" xmlns:xlink="http://www.w3.org/1999/xlink" x="0px" y="0px"
	 width="1000px" height="1000px" viewBox="0 0 1000 1000" enable-background="new 0 0 1000 1000" xml:space="preserve">
<g id="vs-primary">
	<path fill="#FFFFFF" d="M715.6,219.5v576.6c0,21.1-8,40.4-21.2,54.9c-14.9,16.4-36.5,26.7-60.4,26.7H379.1
		c-45,0-81.6-36.5-81.6-81.6V219.5c0-14.9,4-28.8,10.9-40.8c14.1-24.4,40.5-40.8,70.7-40.8H634C679.1,137.9,715.6,174.5,715.6,219.5
		z"/>
</g>
<g id="vs-colour_1_">
	<path fill="#FF5648" d="M353,286.1c-3.7,2.6-13,14.2-15.1,18.8c-2.1-4.6-11.6-16.3-15.2-18.8c3.6-2.5,13.1-14.3,15.2-18.9
		C340,271.8,349.4,283.5,353,286.1z"/>
	<path fill="#FF5648" d="M689,726.2c-3.7,2.6-13,14.2-15.1,18.8c-2.1-4.6-11.6-16.3-15.2-18.8c3.6-2.5,13.1-14.3,15.2-18.9
		C676,711.9,685.3,723.6,689,726.2z"/>
	<path fill="#FF5648" d="M537.6,508.4c-7.4,5.3-26,28.5-30.1,37.6c-4.2-9.1-23.2-32.5-30.4-37.6c7.2-5.1,26.2-28.6,30.4-37.7
		C511.6,479.7,530.2,503.1,537.6,508.4z"/>
	<path fill="#FF5648" d="M537.6,342.6c-7.4,5.3-26,28.5-30.1,37.6c-4.2-9.1-23.2-32.5-30.4-37.6c7.2-5.1,26.2-28.6,30.4-37.7
		C511.6,313.9,530.2,337.3,537.6,342.6z"/>
	<path fill="#FF5648" d="M537.6,669.8c-7.4,5.3-26,28.5-30.1,37.6c-4.2-9.1-23.2-32.5-30.4-37.6c7.2-5.1,26.2-28.6,30.4-37.7
		C511.6,641.1,530.2,664.5,537.6,669.8z"/>
</g>
<g id="vs-shade_1_">
	<path opacity="0.3" fill="#020202" enable-background="new    " d="M714.9,800.5v19.3c0,5-0.4,9.9-1.3,14.6
		c-7,37.4-40.2,65.7-80.2,65.7H378.5c-45.1,0-81.6-36-81.6-80.3V252c0-3.5,0.2-7,0.7-10.3V790c0,45,36.5,81.6,81.6,81.6H634
		c40,0,73.3-28.8,80.2-66.7C714.5,803.4,714.8,802,714.9,800.5z"/>
	<path opacity="0.2" fill="#B2B2B2" enable-background="new    " d="M694.4,847.2c-14.9,16.4-36.5,26.7-60.4,26.7H379.2
		c-45,0-81.6-36.5-81.6-81.6V215.8c0-14.9,4-28.8,10.9-40.8l37.2,457.6c7.4,91.3,74.3,166,162.6,181.6L694.4,847.2z"/>
</g>
<g id="vs-outline_1_">
	<path fill="none" stroke="#000000" stroke-width="15" stroke-linecap="round" stroke-linejoin="round" stroke-miterlimit="10" d="
		M634.2,878.2h-37h-37h-53.4h-53.4h-37h-37c-7.4,0-14.5-1-21.2-2.8c-6.7-1.8-13.1-4.5-19.1-7.9c-5.9-3.3-11.3-7.4-16.1-12
		c-4.8-4.6-9.1-9.8-12.7-15.5c-3.9-6.3-7.1-13.2-9.2-20.4c-2.1-7.3-3.3-15-3.3-23v-50.7v-50.7v-95.5v-95.6v-86.9v-87v-55v-55.1
		c0-7.6,1.1-15.1,3-22.1c2-7,4.9-13.7,8.6-19.8c3.1-5.1,6.7-9.9,10.8-14.3c4.1-4.3,8.6-8.2,13.6-11.6c6.5-4.4,13.7-7.9,21.3-10.3
		c7.7-2.4,15.8-3.6,24.3-3.6h37h37h57.1h57.1H601h33.3c6.6,0,13,0.8,19.2,2.3c6.2,1.5,12,3.7,17.5,6.4c7.1,3.6,13.6,8.1,19.3,13.5
		c5.7,5.4,10.6,11.6,14.6,18.5c3.5,6,6.3,12.5,8.1,19.4s2.9,14.1,2.9,21.5V281v60.8v81.1v81.1v99.2v99.2v47.1v47.1
		c0,6.4-0.7,12.5-2.1,18.5s-3.4,11.6-6,17c-3.3,6.9-7.5,13.2-12.5,18.8c-5,5.6-10.7,10.5-17.1,14.5s-13.3,7.3-20.7,9.4
		C650.1,877,642.3,878.2,634.2,878.2z"/>
	<path fill="none" stroke="#000000" stroke-width="4" stroke-linecap="round" stroke-linejoin="round" stroke-miterlimit="10" d="
		M353,286.1c-1.9,1.3-5.1,4.9-8.1,8.6c-3.1,3.8-5.9,7.9-7,10.1c-1.1-2.3-4-6.4-7-10.2s-6.4-7.4-8.2-8.6c1.8-1.3,5.1-4.8,8.2-8.7
		c3.1-3.8,6-7.9,7-10.2c1.1,2.3,3.9,6.4,7,10.2C348,281.2,351.2,284.8,353,286.1z"/>
	<path fill="none" stroke="#000000" stroke-width="6" stroke-linecap="round" stroke-linejoin="round" stroke-miterlimit="10" d="
		M328.2,215.9c0,0,0.5-0.1,1.4-0.1c0.9-0.1,2.1-0.2,3.5-0.2c2.6,0,5.6,0.2,8.1,1c2.4,0.8,4.2,2.1,4.2,4.4c0,1.3-0.3,2.5-0.7,3.5
		c-0.5,1-1.1,1.9-1.9,2.7c-1.3,1.4-2.8,2.3-3.9,2.9c-1.2,0.6-2.1,0.9-2.1,0.9s1.2,0.2,2.9,0.9s3.6,1.8,5.3,3.6
		c0.8,0.9,1.4,2,1.9,3.3s0.8,2.8,0.8,4.6c0,3.3-1.8,5.3-4.4,6.5c-2.5,1.2-5.8,1.6-8.5,1.7c-1.8,0.1-3.4,0-4.5-0.1
		c-1.2-0.1-1.9-0.2-1.9-0.2"/>
	<path fill="none" stroke="#000000" stroke-width="4" stroke-linecap="round" stroke-linejoin="round" stroke-miterlimit="10" d="
		M689,726.2c-1.8,1.3-5.1,4.8-8.2,8.6c-3,3.8-5.9,7.9-6.9,10.2c-1-2.3-3.9-6.4-7-10.2s-6.4-7.4-8.2-8.6c1.8-1.3,5.1-4.8,8.2-8.7
		c3.1-3.8,6-7.9,7-10.2c1,2.3,3.9,6.4,6.9,10.2C683.9,721.3,687.2,724.9,689,726.2z"/>
	<path fill="none" stroke="#000000" stroke-width="6" stroke-linecap="round" stroke-linejoin="round" stroke-miterlimit="10" d="
		M683.6,795.4c0,0-0.5,0.1-1.4,0.2c-0.9,0.1-2.1,0.1-3.5,0.1c-2.5,0-5.6-0.2-8.1-1c-2.4-0.8-4.2-2.1-4.2-4.4c0-1.3,0.3-2.5,0.7-3.5
		c0.5-1,1.1-1.9,1.9-2.7c1.3-1.3,2.8-2.3,3.9-2.9c1.2-0.6,2.1-0.9,2.1-0.9s-1.2-0.2-2.9-0.9s-3.6-1.8-5.2-3.6
		c-0.8-0.9-1.4-2-1.9-3.3c-0.5-1.3-0.8-2.8-0.8-4.6c0-3.3,1.8-5.3,4.3-6.5c2.5-1.2,5.8-1.6,8.6-1.7c1.8,0,3.3,0,4.5,0.1
		c1.2,0.1,1.9,0.2,1.9,0.2"/>
	<path fill="none" stroke="#000000" stroke-width="6" stroke-linecap="round" stroke-linejoin="round" stroke-miterlimit="10" d="
		M537.6,342.6c-3.7,2.6-10.2,9.8-16.3,17.4c-6.1,7.6-11.8,15.7-13.8,20.2c-2.1-4.5-7.9-12.7-14.1-20.3c-6.2-7.6-12.7-14.8-16.3-17.3
		c3.6-2.6,10.2-9.7,16.3-17.4s12-15.8,14.1-20.4c2.1,4.5,7.7,12.6,13.8,20.2C527.4,332.8,533.9,340,537.6,342.6z"/>
	<path fill="none" stroke="#000000" stroke-width="6" stroke-linecap="round" stroke-linejoin="round" stroke-miterlimit="10" d="
		M537.6,508.4c-3.7,2.6-10.2,9.8-16.3,17.4c-6.1,7.6-11.8,15.7-13.8,20.2c-2.1-4.5-7.9-12.7-14.1-20.3c-6.2-7.6-12.7-14.8-16.3-17.3
		c3.6-2.6,10.2-9.7,16.3-17.4s12-15.8,14.1-20.4c2.1,4.5,7.7,12.6,13.8,20.2S533.9,505.8,537.6,508.4z"/>
	<path fill="none" stroke="#000000" stroke-width="6" stroke-linecap="round" stroke-linejoin="round" stroke-miterlimit="10" d="
		M537.6,669.8c-3.7,2.6-10.2,9.8-16.3,17.4c-6.1,7.6-11.8,15.7-13.8,20.2c-2.1-4.5-7.9-12.7-14.1-20.3c-6.2-7.6-12.7-14.8-16.3-17.3
		c3.6-2.5,10.2-9.7,16.3-17.3c6.2-7.7,12-15.8,14.1-20.4c2.1,4.5,7.7,12.6,13.8,20.2S533.9,667.2,537.6,669.8z"/>
</g>
<g id="vs-reveal_1_">
	
		<path fill="none" stroke="#B2B2B2" stroke-width="70" stroke-linecap="round" stroke-linejoin="round" stroke-miterlimit="10" stroke-opacity="0" d="
		M743,138.9c15.3,16.6-129.3-0.9-265.5-8.7c-77-4.4-151.3-5.7-192.5,4.1c-10,2.4-18.1,5.4-23.8,9.3c-6.3,4.3-9.6,9.5-9.3,15.9
		c0.3,5.7,2.4,10.5,6.2,14.5c3.5,3.7,8.4,6.7,14.6,9.2c51.7,20.7,190.2,0.3,305.6-9.4c58.1-4.9,110.4-7,142.9,0.1
		c10.4,2.3,18.8,5.6,24.6,10s9.2,10.1,9.5,17.1c0.3,6.7-2.1,12.1-7,16.4c-4.2,3.7-10.2,6.6-17.6,8.9c-46.9,13.9-153.2,0.8-253.8-7.6
		c-90.5-7.6-176.5-11.4-210.2,11.7c-4.5,3.1-8.1,6.6-10.6,10.7c-2.5,4.1-4,8.7-4.4,13.9c-0.2,3.7,0.6,6.8,2.4,9.5
		c2.5,3.7,6.9,6.5,12.9,8.6c43.5,15,171.6-9.4,284.1-21c76-7.8,144.9-9.8,175.8,10c5.4,3.5,9.7,7.7,12.6,12.6c2.5,4.2,4,9,4.4,14.4
		c0.4,4.7-1.5,8.5-5.4,11.6c-3.3,2.7-8,4.8-13.9,6.5c-43.8,12.7-154.8,1.6-256.7-3c-79.5-3.6-153.4-3.2-185.6,15.4
		c-5,2.9-9.1,6.3-11.9,10.1c-3.5,4.7-5.2,10.1-5.1,16.3c0.1,4.1,1.9,7.5,5.3,10.3c2.9,2.4,6.9,4.4,11.9,6
		c42.2,13.4,155.1-0.3,257.8-7.6c74-5.3,142.7-7.3,175.9,6.5c6.7,2.8,12,6.2,15.6,10.5c3.6,4.2,5.5,9.2,5.4,15
		c-0.1,4.8-1.8,8.9-5.1,12.4c-2.9,3.1-6.9,5.6-12,7.8c-41.5,17.5-151.9,5.9-253.6,0.1c-86-5-165.9-5.9-192.8,18
		c-3,2.6-5.3,5.6-6.9,8.8c-1.6,3.3-2.5,6.9-2.7,10.8c-0.1,2.6,0.3,4.9,1.1,7.1c1.4,3.7,4.1,6.7,7.9,9.2
		c35.4,23.2,168.5-0.1,282.4-10.6c72.6-6.7,137.3-8.3,164.1,10.6c4.5,3.2,7.9,6.9,10.1,11.2s3.2,9.4,2.9,15.1
		c-0.3,4.5-2.6,8.2-6.7,11.2c-2.9,2.1-6.6,3.9-11.1,5.3c-42.9,14.1-155.9,1.8-259.6-3.8c-77.4-4.2-149.6-4.7-183.5,12.2
		c-6.3,3.1-11.2,6.8-14.6,11.2c-3.5,4.4-5.4,9.5-5.5,15.4c-0.1,3.6,0.9,6.7,2.9,9.4c2.3,3.1,5.8,5.7,10.4,7.9
		c39.5,18.8,160.2,7.5,271.9,0.6c81.4-5.1,158-7.8,195.1,5.1c8,2.8,14.2,6.3,18.2,10.7c3.2,3.6,5,7.7,5.1,12.5
		c0.1,5.2-1.9,9.5-5.9,13.1c-3.6,3.3-8.9,6-15.5,8.1c-48.8,15.8-172.6,3-282.5-3c-80.1-4.3-152.9-5-183.9,11.8
		c-4.9,2.7-8.8,5.8-11.5,9.4c-2.9,3.9-4.4,8.4-4.3,13.5c0.1,4.3,1.3,8.2,3.5,11.5c2.3,3.5,5.6,6.4,10,8.9
		c47.7,27.8,212.7,2.7,340.5-9c51.3-4.7,96.7-7.2,126-3.2c11.9,1.6,21.2,4.3,27.2,8.3c5.2,3.5,7.9,8.1,7.7,13.8
		c-0.2,4.9-2.6,9-6.8,12.6c-4.7,4-11.9,7.3-21,9.9c-58.1,16.6-196.9,6.5-313.6,2.4c-65.6-2.3-124.2-2.7-157.6,4.6
		c-9.8,2.1-17.5,4.9-22.5,8.6c-4.8,3.4-7.2,7.6-6.7,12.7c0.4,4.9,3.4,8.7,8.7,11.6c4.3,2.3,10.1,4.1,17.1,5.3
		c58.8,10.1,206.9-15.6,329.1-24.3c71.9-5.1,134.8-4.4,165.2,12.9c7.8,4.5,13.5,10,16.7,16.9c2.1,4.6,3.1,9.8,2.7,15.6
		c-0.3,5.2-3.8,9.3-10,12.5c-5.5,2.8-13.1,4.9-22.4,6.3c-58.4,9.1-185.9-5.2-300.6-12.8c-75.6-5-145.7-7.1-186.7,2.3
		c-12.6,2.9-22.5,6.9-29,12.3c-7.3,6-10.2,13.8-7.7,23.6c1,4.2,3.9,7.7,8.4,10.6c6.2,4,15.4,7,27.1,9.1c60.4,10.8,186.7-1.6,298.7-8
		c75.7-4.4,144.9-6,182.9,4.2c9.6,2.6,17.2,5.9,22.4,10.1c5.5,4.5,8.3,10,7.9,16.8c-0.4,5.5-2.6,10.1-6.5,14
		c-5.9,5.9-15.7,10.1-28.6,13c-52.7,11.8-157,1.9-258.7-1.1c-64.9-1.9-128.8-1.1-177.5,10c-7.2,1.6-14.1,3.5-20.6,5.6
		c-7.3,2.4-14.2,5.1-20.5,8.1"/>
</g>
</svg>
