<?xml version="1.0" encoding="utf-8"?>
<!-- Generator: Adobe Illustrator 22.1.0, SVG Export Plug-In . SVG Version: 6.00 Build 0)  -->
<svg version="1.1" id="Layer_1" xmlns="http://www.w3.org/2000/svg" xmlns:xlink="http://www.w3.org/1999/xlink" x="0px" y="0px"
	 width="900px" height="900px" viewBox="0 0 900 900" enable-background="new 0 0 900 900" xml:space="preserve">
<g id="vs-highlight">
	<g>
		<path fill="#5DBFD9" d="M170.7,668.9c2.4-4.3,3.1-9.5,1.5-14.5l-8.1-25.1c-3.1-9.5-13.3-14.8-22.9-11.7
			c-9.5,3.1-14.8,13.3-11.7,22.9l8.1,25.1c1.4,4.2,4.2,7.6,7.7,9.8c-1.6,2.9-2.5,6.2-2.3,9.8l1.8,36.3c0.5,9.7,8.5,17.3,18.1,17.3
			c0.3,0,0.6,0,0.9,0c10-0.5,17.7-9,17.2-19l-1.8-36.3C178.9,677.2,175.6,671.9,170.7,668.9z"/>
		<path fill="#5DBFD9" d="M791.4,669c-8.5-5.4-19.7-2.9-25.1,5.6l-17.1,26.9c-5.4,8.5-2.9,19.7,5.6,25.1c3,1.9,6.4,2.8,9.7,2.8
			c6,0,11.9-3,15.3-8.4l17.2-27C802.4,685.6,799.9,674.4,791.4,669z"/>
		<path fill="#5DBFD9" d="M672.6,672.3l-395.5-7.1c-10-0.2-18.3,7.8-18.5,17.8s7.8,18.3,17.8,18.5l395.5,7.1c0.1,0,0.2,0,0.3,0
			c9.9,0,18-7.9,18.1-17.8C690.6,680.8,682.7,672.5,672.6,672.3z"/>
		<path fill="#5DBFD9" d="M627.6,738.1c-0.5-5.2-4.8-9.1-10-9.1h-0.1l-289.7,2.6c-5.5,0-10,4.6-9.9,10.1c0,5.5,4.6,9.9,10.1,9.9
			l59.1-0.5l2.6,91.3c0.2,5.4,4.6,9.7,10,9.7c0.1,0,0.2,0,0.3,0c5.5-0.2,9.9-4.8,9.7-10.3l-2.6-90.9l94.8-0.9l3.6,80.8
			c0.2,5.4,4.7,9.6,10,9.6c0.1,0,0.3,0,0.4,0c5.5-0.2,9.8-4.9,9.5-10.4l-3.5-80.1l86.6-0.8l7.3,82.2c0.5,5.2,4.8,9.1,9.9,9.1
			c0.3,0,0.6,0,0.9,0c5.5-0.5,9.6-5.3,9.1-10.8L627.6,738.1z"/>
		<path fill="#5DBFD9" d="M732.5,521.7L217.7,519h-0.1c-4.3,0-8.2,1.5-11.3,4c3-3.5,4.7-8.1,4.3-13.1l-7.1-101.3
			c-0.7-10-9.4-17.6-19.4-16.8c-10,0.7-17.5,9.4-16.8,19.4l7.1,101.3c0.7,9.6,8.6,16.9,18.1,16.9c0.4,0,0.9,0,1.3,0
			c3.8-0.3,7.3-1.7,10-3.9c-2.5,2.9-4.1,6.6-4.3,10.7l-4.4,74.4c-0.6,10,7,18.6,17.1,19.2c0.4,0,0.7,0,1.1,0
			c9.5,0,17.5-7.4,18.1-17.1l3.4-57.2l497.6,2.6h0.1c10,0,18.1-8.1,18.2-18.1C750.6,530,742.5,521.8,732.5,521.7z"/>
		<path fill="#5DBFD9" d="M240.3,336.4h0.1l60.2-0.6l38.2,69.6c2.4,4.5,7.1,7,11.8,7c2.2,0,4.4-0.5,6.5-1.7
			c6.5-3.6,8.9-11.7,5.3-18.3l-31.3-57l91.2-0.9c0.5,1.9,1.4,3.6,2.8,5.2l60.5,69.3c2.7,3,6.4,4.6,10.1,4.6c3.1,0,6.3-1.1,8.8-3.3
			c5.6-4.9,6.2-13.4,1.3-19L456,334.2l113.8-1.1c0.3,0.9,0.7,1.8,1.2,2.6l35,59.9c2.5,4.3,7,6.7,11.6,6.7c2.3,0,4.6-0.6,6.8-1.8
			c6.4-3.7,8.6-12,4.8-18.4l-28.8-49.2l92.1-0.9l-54.8,54.8c-5.3,5.3-5.3,13.8,0,19c2.6,2.6,6.1,3.9,9.5,3.9s6.9-1.3,9.5-3.9
			l68.6-68.6c4.4-4.4,5.1-10.9,2.2-16.1c0.2-1,0.3-2,0.3-3c-0.1-7.4-6.1-13.3-13.4-13.3h-0.1L585.1,306c0.5-3.3-0.2-6.7-2.2-9.7
			l-36.5-53l112.2,0.2l0,0c7.4,0,13.4-6,13.5-13.4c0-7.4-6-13.5-13.4-13.5L527,216.4c-0.7-1.5-1.6-2.9-2.9-4.1l-57.2-55.2
			c-5.3-5.2-13.9-5-19,0.3c-5.2,5.3-5,13.9,0.3,19l41.3,39.9l-95.2-0.2c0.1-3.1-0.9-6.2-3-8.8l-26.9-32.9
			c-4.7-5.8-13.2-6.6-18.9-1.9c-5.8,4.7-6.6,13.2-1.9,18.9l20.1,24.6l-87-0.2l0,0c-4.3,0-8.3,2-10.8,5.5c-2.5,3.4-3.3,7.9-2,12
			c0.1,0.2,6.3,20.3,12.7,40.2c3.8,11.7,6.9,21.2,9.2,28c1,2.8,1.8,5.3,2.6,7.4l-48.2,0.5c-7.4,0.1-13.4,6.2-13.3,13.6
			C226.9,330.4,232.9,336.4,240.3,336.4z M557.1,306.3l-115.7,1.1c0-1.9-0.4-3.8-1.2-5.6l-26.8-58.7l100.4,0.2L557.1,306.3z
			 M314.8,302.8c-2.4-5.7-11.1-32.1-19.9-59.9l88.8,0.2l29.6,64.7l-96.4,1C316.6,306.6,315.9,304.5,314.8,302.8z"/>
		<path fill="#5DBFD9" d="M479.1,119c4.2,0,8.6-0.3,13.1-1c4.4-0.6,7.5-4.7,6.8-9.2c-0.6-4.4-4.7-7.5-9.2-6.8
			c-18.3,2.7-33.2-1.1-43.1-10.8C438,82.6,434,70,435.8,56.8c0.6-4.4-2.5-8.5-6.9-9.1s-8.5,2.5-9.1,6.9c-2.4,18.3,3.2,35.8,15.6,48
			C446.3,113.4,461.5,119,479.1,119z"/>
	</g>
</g>
<g id="vs-outline">
	
		<polygon id="XMLID_2_" fill="none" stroke="#000000" stroke-width="26.9018" stroke-linecap="round" stroke-linejoin="round" stroke-miterlimit="10" points="
		174.4,403.9 778.2,406.3 776.3,523.3 171.5,521.3 	"/>
	
		<polyline id="XMLID_3_" fill="none" stroke="#000000" stroke-width="26.9018" stroke-linecap="round" stroke-linejoin="round" stroke-miterlimit="10" points="
		200.8,533 191.7,622.2 745.4,624.2 737.3,531.1 	"/>
	
		<polyline id="XMLID_4_" fill="none" stroke="#000000" stroke-width="26.9018" stroke-linecap="round" stroke-linejoin="round" stroke-miterlimit="10" points="
		191.7,622.2 135.1,621.5 131.6,669 804.1,672.6 803.7,623.3 745.4,624.2 	"/>
	
		<polyline id="XMLID_5_" fill="none" stroke="#000000" stroke-width="26.9018" stroke-linecap="round" stroke-linejoin="round" stroke-miterlimit="10" points="
		263.4,676.2 258.9,840.7 684.8,841.6 681.2,678 	"/>
	
		<line id="XMLID_6_" fill="none" stroke="#000000" stroke-width="26.9018" stroke-linecap="round" stroke-linejoin="round" stroke-miterlimit="10" x1="150.4" y1="678.9" x2="145.5" y2="840.3"/>
	
		<line id="XMLID_7_" fill="none" stroke="#000000" stroke-width="26.9018" stroke-linecap="round" stroke-linejoin="round" stroke-miterlimit="10" x1="180.4" y1="674.4" x2="178.2" y2="840.7"/>
	
		<line id="XMLID_8_" fill="none" stroke="#000000" stroke-width="26.9018" stroke-linecap="round" stroke-linejoin="round" stroke-miterlimit="10" x1="110" y1="844.8" x2="840" y2="845.7"/>
	
		<line id="XMLID_9_" fill="none" stroke="#000000" stroke-width="26.9018" stroke-linecap="round" stroke-linejoin="round" stroke-miterlimit="10" x1="791.5" y1="836.7" x2="789.3" y2="677.1"/>
	
		<line id="XMLID_10_" fill="none" stroke="#000000" stroke-width="26.9018" stroke-linecap="round" stroke-linejoin="round" stroke-miterlimit="10" x1="755.7" y1="678" x2="756.6" y2="835.8"/>
	
		<polyline id="XMLID_11_" fill="none" stroke="#000000" stroke-width="26.9018" stroke-linecap="round" stroke-linejoin="round" stroke-miterlimit="10" points="
		308.9,833.3 312.2,723 633.7,722.4 637.1,840.7 	"/>
	
		<line id="XMLID_12_" fill="none" stroke="#000000" stroke-width="26.9018" stroke-linecap="round" stroke-linejoin="round" stroke-miterlimit="10" x1="413.6" y1="729.1" x2="414" y2="833.6"/>
	
		<line id="XMLID_13_" fill="none" stroke="#000000" stroke-width="26.9018" stroke-linecap="round" stroke-linejoin="round" stroke-miterlimit="10" x1="527.9" y1="729.5" x2="531.5" y2="842.5"/>
	
		<line id="XMLID_14_" fill="none" stroke="#000000" stroke-width="13.4509" stroke-linecap="round" stroke-linejoin="round" stroke-miterlimit="10" x1="363.8" y1="730.9" x2="363.8" y2="832.2"/>
	
		<line id="XMLID_15_" fill="none" stroke="#000000" stroke-width="13.4509" stroke-linecap="round" stroke-linejoin="round" stroke-miterlimit="10" x1="473.2" y1="727.7" x2="475.9" y2="839.8"/>
	
		<line id="XMLID_16_" fill="none" stroke="#000000" stroke-width="13.4509" stroke-linecap="round" stroke-linejoin="round" stroke-miterlimit="10" x1="584.4" y1="732.7" x2="586.2" y2="835.4"/>
	
		<line id="XMLID_17_" fill="none" stroke="#000000" stroke-width="13.4509" stroke-linecap="round" stroke-linejoin="round" stroke-miterlimit="10" x1="349.9" y1="775.3" x2="349.5" y2="790.5"/>
	
		<line id="XMLID_18_" fill="none" stroke="#000000" stroke-width="13.4509" stroke-linecap="round" stroke-linejoin="round" stroke-miterlimit="10" x1="377.7" y1="776.6" x2="378.2" y2="789.6"/>
	
		<line id="XMLID_19_" fill="none" stroke="#000000" stroke-width="13.4509" stroke-linecap="round" stroke-linejoin="round" stroke-miterlimit="10" x1="459.8" y1="775.7" x2="460.2" y2="791"/>
	
		<line id="XMLID_20_" fill="none" stroke="#000000" stroke-width="13.4509" stroke-linecap="round" stroke-linejoin="round" stroke-miterlimit="10" x1="489.8" y1="791.4" x2="489.8" y2="776.2"/>
	
		<line id="XMLID_21_" fill="none" stroke="#000000" stroke-width="13.4509" stroke-linecap="round" stroke-linejoin="round" stroke-miterlimit="10" x1="570.5" y1="775.3" x2="570.5" y2="792.3"/>
	
		<line id="XMLID_22_" fill="none" stroke="#000000" stroke-width="13.4509" stroke-linecap="round" stroke-linejoin="round" stroke-miterlimit="10" x1="601" y1="791.4" x2="601" y2="774.8"/>
	
		<path id="XMLID_1_" fill="none" stroke="#000000" stroke-width="26.9018" stroke-linecap="round" stroke-linejoin="round" stroke-miterlimit="10" d="
		M222.1,398.2c0-149.3,69.9-248.8,255.6-248.8s248.8,138.5,252.9,244.8"/>
	
		<polyline id="XMLID_24_" fill="none" stroke="#000000" stroke-width="13.4509" stroke-linecap="round" stroke-linejoin="round" stroke-miterlimit="10" points="
		235.6,388.3 310,314.8 366.5,395.5 439.1,317.5 501,395.5 588,314.8 636.4,394.6 711.7,310.3 229.3,312.1 	"/>
	
		<polyline id="XMLID_23_" fill="none" stroke="#000000" stroke-width="13.4509" stroke-linecap="round" stroke-linejoin="round" stroke-miterlimit="10" points="
		279.5,229.6 310,309.4 398.8,222.4 440.9,312.1 529.7,224.2 585.3,304 648.1,222.9 284.9,219.8 	"/>
	
		<polyline id="XMLID_26_" fill="none" stroke="#000000" stroke-width="13.4509" stroke-linecap="round" stroke-linejoin="round" stroke-miterlimit="10" points="
		587.1,165.1 527,217.1 460.7,152.5 400.6,214.4 362,171.3 	"/>
	
		<line id="XMLID_27_" fill="none" stroke="#000000" stroke-width="13.4509" stroke-linecap="round" stroke-linejoin="round" stroke-miterlimit="10" x1="471.6" y1="142" x2="468.9" y2="123.1"/>
	
		<path id="XMLID_25_" fill="none" stroke="#000000" stroke-width="13.4509" stroke-linecap="round" stroke-linejoin="round" stroke-miterlimit="10" d="
		M460.2,35c57.1-3.3,76,78.2,12.1,83.4C406.4,123.8,402.4,38.4,460.2,35z"/>
	
		<path id="XMLID_28_" fill="none" stroke="#000000" stroke-width="13.4509" stroke-linecap="round" stroke-linejoin="round" stroke-miterlimit="10" d="
		M415.5,79.4c-19.8,11.4-31.3,55.5,61.2,11.1s47.4-60.5,24.5-43"/>
</g>
<g id="vs-h-reveal" opacity="0">
	
		<line id="XMLID_30_" fill="none" stroke="#5DBFD9" stroke-width="36.3175" stroke-linecap="round" stroke-linejoin="round" stroke-miterlimit="10" stroke-opacity="0" x1="161.1" y1="684.3" x2="162.9" y2="720.6"/>
	
		<line id="XMLID_31_" fill="none" stroke="#5DBFD9" stroke-width="36.3175" stroke-linecap="round" stroke-linejoin="round" stroke-miterlimit="10" stroke-opacity="0" x1="781.7" y1="684.3" x2="764.6" y2="711.2"/>
	
		<line id="XMLID_32_" fill="none" stroke="#5DBFD9" stroke-width="36.3175" stroke-linecap="round" stroke-linejoin="round" stroke-miterlimit="10" stroke-opacity="0" x1="276.8" y1="683.4" x2="672.3" y2="690.5"/>
	
		<polyline id="XMLID_29_" fill="none" stroke="#5DBFD9" stroke-width="20" stroke-linecap="round" stroke-linejoin="round" stroke-miterlimit="10" stroke-opacity="0" points="
		327.9,741.6 617.6,739 625.7,830.4 	"/>
	
		<line id="XMLID_34_" fill="none" stroke="#5DBFD9" stroke-width="20" stroke-linecap="round" stroke-linejoin="round" stroke-miterlimit="10" stroke-opacity="0" x1="511.8" y1="748.8" x2="515.4" y2="830.4"/>
	
		<line id="XMLID_35_" fill="none" stroke="#5DBFD9" stroke-width="20" stroke-linecap="round" stroke-linejoin="round" stroke-miterlimit="10" stroke-opacity="0" x1="397" y1="747.9" x2="399.7" y2="842.1"/>
	
		<line id="XMLID_36_" fill="none" stroke="#5DBFD9" stroke-width="36.3175" stroke-linecap="round" stroke-linejoin="round" stroke-miterlimit="10" stroke-opacity="0" x1="154.9" y1="660" x2="146.8" y2="634.9"/>
	
		<polyline id="XMLID_33_" fill="none" stroke="#5DBFD9" stroke-width="36.3175" stroke-linecap="round" stroke-linejoin="round" stroke-miterlimit="10" stroke-opacity="0" points="
		213.2,611.6 217.6,537.2 732.4,539.9 	"/>
	
		<line id="XMLID_38_" fill="none" stroke="#5DBFD9" stroke-width="36.3175" stroke-linecap="round" stroke-linejoin="round" stroke-miterlimit="10" stroke-opacity="0" x1="192.5" y1="511.2" x2="185.4" y2="409.9"/>
	
		<line id="XMLID_39_" fill="none" stroke="#5DBFD9" stroke-width="26.9018" stroke-linecap="round" stroke-linejoin="round" stroke-miterlimit="10" stroke-opacity="0" x1="240.3" y1="322.9" x2="714.4" y2="318.2"/>
	
		<line id="XMLID_40_" fill="none" stroke="#5DBFD9" stroke-width="26.9018" stroke-linecap="round" stroke-linejoin="round" stroke-miterlimit="10" stroke-opacity="0" x1="715.8" y1="327.6" x2="647.2" y2="396.2"/>
	
		<line id="XMLID_41_" fill="none" stroke="#5DBFD9" stroke-width="26.9018" stroke-linecap="round" stroke-linejoin="round" stroke-miterlimit="10" stroke-opacity="0" x1="617.6" y1="388.8" x2="582.6" y2="328.9"/>
	
		<line id="XMLID_42_" fill="none" stroke="#5DBFD9" stroke-width="26.9018" stroke-linecap="round" stroke-linejoin="round" stroke-miterlimit="10" stroke-opacity="0" x1="495.8" y1="400.2" x2="435.3" y2="330.9"/>
	
		<line id="XMLID_43_" fill="none" stroke="#5DBFD9" stroke-width="26.9018" stroke-linecap="round" stroke-linejoin="round" stroke-miterlimit="10" stroke-opacity="0" x1="350.6" y1="398.9" x2="312.2" y2="328.9"/>
	
		<path id="XMLID_37_" fill="none" stroke="#5DBFD9" stroke-width="26.9018" stroke-linecap="round" stroke-linejoin="round" stroke-miterlimit="10" stroke-opacity="0" d="
		M303.5,310.1c-2-0.7-26.9-80.7-26.9-80.7l382,0.7"/>
	
		<line id="XMLID_45_" fill="none" stroke="#5DBFD9" stroke-width="26.9018" stroke-linecap="round" stroke-linejoin="round" stroke-miterlimit="10" stroke-opacity="0" x1="571.8" y1="304" x2="522.8" y2="232.8"/>
	
		<line id="XMLID_46_" fill="none" stroke="#5DBFD9" stroke-width="26.9018" stroke-linecap="round" stroke-linejoin="round" stroke-miterlimit="10" stroke-opacity="0" x1="427.9" y1="307.4" x2="395" y2="235.4"/>
	
		<line id="XMLID_47_" fill="none" stroke="#5DBFD9" stroke-width="26.9018" stroke-linecap="round" stroke-linejoin="round" stroke-miterlimit="10" stroke-opacity="0" x1="380.8" y1="215.9" x2="353.9" y2="183"/>
	
		<line id="XMLID_48_" fill="none" stroke="#5DBFD9" stroke-width="26.9018" stroke-linecap="round" stroke-linejoin="round" stroke-miterlimit="10" stroke-opacity="0" x1="514.7" y1="222" x2="457.5" y2="166.8"/>
	
		<path id="XMLID_49_" fill="none" stroke="#5DBFD9" stroke-width="16.1411" stroke-linecap="round" stroke-linejoin="round" stroke-miterlimit="10" stroke-opacity="0" d="
		M427.9,55.7c-4,30,17.5,61,63.2,54.3"/>
</g>
</svg>
