<?xml version="1.0" encoding="utf-8"?>
<!-- Generator: Adobe Illustrator 22.1.0, SVG Export Plug-In . SVG Version: 6.00 Build 0)  -->
<svg version="1.1" id="Layer_1" xmlns="http://www.w3.org/2000/svg" xmlns:xlink="http://www.w3.org/1999/xlink" x="0px" y="0px"
	 width="900px" height="900px" viewBox="0 0 900 900" enable-background="new 0 0 900 900" xml:space="preserve">
<g id="Layer_2">
	<polygon fill="#BFBDC6" points="93.1,66.1 153.1,63.1 172.6,231.1 714.1,207.1 751.5,99.3 760.6,66.1 814.6,66.1 813.1,277.6 
		840.1,855.1 90.5,842.5 102.7,267.6 	"/>
</g>
<g id="Layer_3">
	<polygon fill="#E8863D" points="160.6,87.1 751.5,99.3 747.3,274.2 164.6,274.2 	"/>
</g>
<g id="vs-colour">
	<path fill="#5679E8" d="M561,456.9l5.3,348.8l192.7,0.7l6.9-347.5L561,456.9z M623,547h80.7l0.7,56l-76.7-2.7L623,547z M620.3,767
		l12.7-44l56,14l18.7,5.3L620.3,767z"/>
	<polygon fill="#27A8CB" points="602.8,492.5 732,497 730,685 592,685 587,496 	"/>
	<path fill="#FF5648" d="M175,363l72.1-1.6c0,0,2.9,15-5.7,46.1c-8.7,31.3-39.1,58.4-39.1,58.4L126,462l34-42L175,363z"/>
	<path fill="#FF5648" d="M315.4,365.8l74,0.3L395,409c0,0,26,51,37,56s-114,6-114,6L315.4,365.8z"/>
	<path fill="#D4D3E5" d="M239,361.7l76.4,4.2l0.8,99.1l-108.8-0.9c0,0,33.7-38.8,34-56.6s4.4-38.5,4.4-38.5L239,361.7z"/>
	<path fill="#D4D3E5" d="M389.4,366.1L465,361c0,0,7.3,88,38,100l-71,4c0,0-27-25.3-31.7-40C395.7,410.3,389.4,366.1,389.4,366.1z"
		/>
	<polygon fill="#D4D3E5" points="557.7,310.3 761,310.3 763.7,425 565,422.3 	"/>
	<polygon fill="#FF5648" points="557.7,310.3 761,310.3 764.5,425.1 565,422.3 	"/>
	<polygon fill="#FFFFFF" points="597,346.5 621.5,344 693.5,345.5 745,342 746.5,362.5 686.5,358.5 683.5,362 682,390.5 584,388.5 	
		"/>
	<path opacity="0.4" enable-background="new    " d="M592,352.3c-13-0.3-20.2,44.8-16.5,49.2s103.8-0.8,109.2-1.5
		c5.3-0.7-3.3-34-3.3-34s8.7,3.7,16.3,4c7.7,0.3,42,4.7,46.7,1.7s0-8,0-8l-38.1-4.7l-8.8-11.2L689,347l-4,14.2l-4.3,32.4l-97-2
		L592,352.3z"/>
	<path opacity="0.4" enable-background="new    " d="M158,251c109,4,505,6,544-3c39-9,49.5-148.7,49.5-148.7L755,134l-1,146
		l-589.4-5.8L158,251z"/>
	<polygon fill="#27A8CB" points="595,715.7 737.7,715.7 737.7,747 737,783.7 596.3,785 	"/>
	<g opacity="0.4">
		<path d="M111,275.7c0.1,0,0.2,0,0.2,0c4.6-0.1,8.2-3.9,8-8.5l-5.5-191.3c-0.1-4.6-3.9-8.2-8.5-8c-4.6,0.1-8.2,3.9-8,8.5l5.5,191.3
			C102.9,272.1,106.5,275.7,111,275.7z"/>
		<path d="M114.4,276.9c-4.6-0.2-8.4,3.5-8.5,8L90.5,842.5c-0.1,4.6,3.5,8.4,8,8.5c0.1,0,0.2,0,0.2,0c4.5,0,8.1-3.6,8.3-8
			l15.4-557.5C122.6,280.9,119,277.1,114.4,276.9z"/>
		<path d="M500.5,449.9l-86.9-0.7c-25.1-19.3-24.6-58.6-24.3-78.1c0-1.9,0.1-3.5,0.1-5c0-4.6-3.7-8.3-8.3-8.3s-8.3,3.7-8.3,8.3
			c0,1.4,0,3-0.1,4.7c-0.3,17.4-0.8,52.9,17.7,78.2l-73.5-0.6l-2.6-82.6c-0.1-4.6-4-8.1-8.5-8c-4.6,0.1-8.1,4-8,8.5l2.6,81.9
			l-76.6-0.6c9.8-11.9,16.7-25.4,20.4-40.2c4.6-18.1,3.5-34.6,2.8-44.4l-0.1-1.7c-0.3-4.6-4.2-8-8.8-7.7s-8,4.2-7.7,8.8l0.1,1.7
			c1.2,18.9,3.5,53.5-29.4,83.4l-58.7-0.5c-4.5,0-8.3,3.6-8.3,8.2s3.6,8.3,8.2,8.3l23.7,0.2c-2.1,2-3.2,4.8-2.9,7.9l3,26.6
			c0.5,4.8,4.6,8.4,9.4,8.4l0,0l118.1-0.6c2.7,0,5.2-1.2,7-3.2c1.5-1.7,2.4-3.9,2.4-6.1c0.4-0.6,2.8-3,12-3.8
			c13.5-1.1,17.7,5.5,18.3,6.7c1.3,3.7,4.7,5.7,8.7,5.7h0.1l129-1.2c4.4,0,8.1-3.1,9.1-7.3l3.8-16.2c0.7-2.8,0-5.8-1.8-8.1
			c-1.8-2.3-4.5-3.6-7.5-3.6L181.9,471l-0.2-1.7c-0.3-2.2-1.3-4.2-2.8-5.7L197,464c1.5,1.2,3.3,1.9,5.2,1.9c1.8,0,3.6-0.6,5.1-1.8
			l94.7,0.8c1.5,2.4,4.1,4,7.1,4c0.1,0,0.2,0,0.3,0c2.9-0.1,5.3-1.6,6.8-3.9l92.2,0.7c1.2,0.7,2.4,1.4,3.6,2.1c1.3,0.7,2.6,1,4,1
			c2.4,0,4.8-1.1,6.4-3l78.1,0.6c0,0,0,0,0.1,0c4.5,0,8.2-3.7,8.3-8.2C508.7,453.7,505,450,500.5,449.9z"/>
		<path d="M471.4,515.9c-4,0.2-7.5,2-9.9,4.8l-57.4,0.6c-7.4-2.8-16.3-3.6-26.9-2.2c-5.3,0.7-10.1,1.8-13.2,2.6l-9.3,0.1
			c-1.4,0-2.8,0.5-3.8,1.4c-0.7-2.4-2.9-4.2-5.6-4.2c-3.3-0.1-5.9,2.6-6,5.8l-0.4,28c0,1.2,0.3,2.4,1,3.3c2.2,3.3,5.1,24.1,6.2,48.1
			c-0.2,0.2-0.3,0.5-0.5,0.7l-10.2,9.9c-1.9-0.8-3.8-1.9-5.5-3.3c-1.1-0.9-2.5-1.2-3.8-1.2c-0.2-3.4-0.6-6.5-1-9.3
			c0.1-0.1,0.3-0.2,0.4-0.3c2.3-1.9,5.1-4.3,2.9-48.1c0-0.2,0-0.4-0.1-0.6c-0.1-0.7-2.7-17.9-4.4-25.9c-0.6-3.2-2.4-5.7-5-7.4
			c-5.9-3.9-14.7-2-20.5-0.7c-0.6,0.1-1.1,0.2-1.6,0.3c-1.5,0.3-2.8,1.2-3.6,2.4c-2.9-2-6.4-3.2-10.2-3.3l-102-2
			c-10.2-0.2-18.8,7.8-19.2,18l-7.9,163.4c-0.1,3.1,0.5,6.1,1.8,8.9c-0.8,0.3-1.5,0.6-2.3,1c-7.5,4-30.4,19.4-26.4,26.9l14,26
			c2.8,5.2,351.8-1.3,357.3-1.3c2.4,0,3-16.1,5.3-17.3c7.5-4-318.7,4.8-322.7-2.7l-5-21.7l107.1-2.2c5.1-0.1,9.7-2.2,13-5.6
			c0,0.6,0.1,1.2,0.4,1.8c0.9,2.4,3.1,3.9,5.5,3.9c0.7,0,1.4-0.1,2-0.4l16-5.9c1.9,1.6,4.2,2.7,6.8,3.2c0.7,0.1,11.5,1.9,26.6,3.6
			c2.7,2,5.5,3.6,8.4,4.9c3.1,1.4,6.3,2.1,9.5,2.1c5,0,9.9-1.7,13.9-4.7c26.9,1,46.1-1.4,58.7-7.3c3.1,6.4,8,11.7,16,12.9
			c0.8,0.1,1.6,0.2,2.4,0.2c4.3,0,8.4-1.6,11.7-4.7c7.2-6.5,14.2-20,14.2-104.7c0-42.6-1.9-84-1.9-84.4
			C485.9,521.6,479.3,515.6,471.4,515.9z M235.7,651.1c-3.9,3.3-6.1,7.9-6.5,12.6c-13.7-2.8-23.9-6.5-27.6-8.3
			c-2.1-2.3-4.7-4-7.6-4.9l3.7-77.2c4.3-0.6,8.5-2.6,11.6-6.1c0.7-0.8,2.5-2.3,6.1-3.6c1.7,2.5,4,4.7,6.9,6.2
			c12.5,6.5,17.4,21,19.4,32C245.9,625.3,239.5,646.9,235.7,651.1z M318.9,668.5c-0.8,15.1-3.9,25.4-5.4,29.6l-13.5,5
			c1.1-2.4,1.6-5.1,1.6-7.9c-0.1-3.2-0.9-6.1-2.4-8.7c3.1-5.7,4-11.9,3.5-17.5c-3.8-37.9-3.1-118.5-3.1-119.3c0-1.3-0.1-2.7-0.4-3.9
			c1.5-2.6,2.3-5.6,2.4-8.8c0-2.5-0.4-4.8-1.2-7c0.2,0,0.4-0.1,0.6-0.1c6.2-1.3,10.1-1.7,11.4-1c1.4,7.1,3.8,22.6,4.2,25
			c0.4,9.2,0.7,19.4,0.7,27.3c-1.2-0.4-2.5-0.4-3.8,0c-3,1-4.6,4.2-3.7,7.2c0.5,1.7,1,3.3,1.5,4.6c1.5,5.4,3.9,16.2,3.4,31
			c-0.3,7.8-1.2,11.6-1.8,13.2c-2,0.2-3.8,1.4-4.7,3.2c-1.3,2.6-0.5,5.9,2,7.5c0.5,0.3,1,0.6,1.6,0.8
			C313.3,649.4,319.7,653.7,318.9,668.5z M326.4,623.6c0-0.1,0-0.1,0-0.2c0,0,0.1,0,0.1,0.1L326.4,623.6z M329.2,683.3
			c0.1-0.3,0.1-0.7,0.2-1c0.2,0.3,0.3,0.7,0.5,1C329.6,683.3,329.4,683.3,329.2,683.3z M419.4,532.9c0,0.1-0.1,0.1-0.1,0.2
			c0-0.1-0.1-0.1-0.1-0.2H419.4z M448.5,557.3c-2.3,0.3-4.2,1.9-4.9,4.2l-0.3,1c-1.4,2-2.3,4.3-2.6,6.9c0,0.2-0.1,1-0.2,2.3
			l-7.9,26.4c-0.5,1.6-0.3,3.3,0.6,4.8c0.1,0.1,2.4,4,4.5,10.3c-0.4,8.1-0.7,16.7-0.9,25.3c-0.1,6.2-0.2,11.9-0.1,17.4
			c-0.2,0.4-0.4,0.8-0.6,1.2c-6.9,13.7-10.2,19.2-11.7,21.4c-0.6,0.2-1.1,0.5-1.6,1c-0.8,0.5-10,5.9-30.4-0.5
			c-11.5-3.6-18.7-9.6-21.5-17.6c-1.9-5.6-1.4-11.6,0.3-16.9l8.2-7.9c1.1-1.1,2.1-2.3,3-3.5c4.6-6.8,12-17.7,19.2-29.3
			c5.4-5.1,11-9.1,16.3-10.8c1.8-0.6,3.3-2,3.9-3.8l11-32.7c0.7-2.2,0.1-4.7-1.6-6.3c-1.1-1-4.2-4.6-4-7.3c0.1-1.2,1-2.4,2.8-3.5
			c2.2-1.4,3.1-4.1,2.4-6.5l13.3-0.1c-1.7,1.8-2.2,4.5-1,6.8c1.4,2.8,4.8,4,7.7,2.7l1.9-0.9c1.4-0.5,3-0.9,4-0.7
			c0.1,3.1,0.3,6.7,0.4,10.9C455.9,556,450,557.1,448.5,557.3z"/>
		<path d="M745.9,421l-182.4-3.9l-5.8-90.2c-0.4-6.5,3.8-10.9-2.7-10.4c-6.5,0.4-20.4-0.5-20,6l5.6,107c0.4,6.1,5.4,10.9,11.5,11.1
			c0,0,164.4,5.5,199.9,0.5c6.3-0.9,5.9-4.6,6-11C758.1,423.5,752.4,421.1,745.9,421z"/>
		<path d="M709.1,517.7l1.6,159.7c0.1,6.5,5.3,11.7,11.8,11.7h0.1c6.5-0.1,11.8-5.4,11.7-11.9L732.6,506
			c-0.1-6.4-5.2-11.6-11.6-11.7l-118.2-1.8c-6.5-0.1-11.9,5.1-12,11.6s5.1,11.9,11.6,12L709.1,517.7z"/>
		<path d="M725.7,715.8L607,714c-0.1,0-0.1,0-0.2,0c-6.4,0-11.7,5.2-11.8,11.6c-0.1,6.5,5.1,11.9,11.6,12l107.5,1.6l1.3,37.8
			c0.2,6.4,5.5,11.4,11.8,11.4c0.1,0,0.3,0,0.4,0c6.5-0.2,11.6-5.7,11.4-12.2l-1.7-49C737.1,720.9,732,715.9,725.7,715.8z"/>
		<path d="M564.7,812.6c-1-6.4-7.1-10.8-13.5-9.8s-10.8,7.1-9.8,13.5l4.1,26c0.9,5.8,5.9,10,11.7,10c0.6,0,1.2,0,1.9-0.1
			c6.4-1,10.8-7.1,9.8-13.5L564.7,812.6z"/>
	</g>
	<path fill="#FF5648" d="M211,562.3c26.7-8.6,55.3,98,12,100.7S190.3,569,211,562.3z"/>
	<path fill="#D4D3E5" d="M219,625.5c13,0.7,9.5,19,5,19S209.5,625,219,625.5z"/>
	<path fill="#FF5648" d="M417.9,592.9c6.6,1.1,17.6,4.6,18.1,14.6s4.5,23.5,4.5,23.5l-9.5,46c0,0-8.5,11.5-34.5,2.5
		s-29.6-30.7-25.3-35.1S404,598,404,598L417.9,592.9z"/>
	<path fill="#FF5648" d="M306.5,702.5l7.1-4.4l1.9-45.1l-7.4-12.8l4.7-3.2l0.7-40.4l-7-11l6.9-4.6l1.1-47.9L304,521l16-15.5l13-1
		c0,0-7.5-15-21.5-12S299,508,299,508l2,17.5l-3.5,11.5l-1.5,40.5l7,10l-4,14.5l-1.5,33l4.5,9.5l-3.5,8.5v42.5L306.5,702.5z"/>
	<path fill="#FF5648" d="M322.5,522.5l14.5-1l-2,32l6.5,7l4,50c0,0-12.6,11.1-15.6,1.1s-1.9-52.1-1.9-52.1l4-10l-7-5L322.5,522.5z"
		/>
	<polygon fill="#D4D3E5" points="161.5,510 175.6,506.7 293.7,506 298.5,518.1 166,518 	"/>
	<polygon fill="#D4D3E5" points="320,505.5 312,516.5 483.5,519 482.5,507 	"/>
	<path fill="#D4D3E5" d="M433.5,533.8c4.5-1.8,11.2,5.6,11.2,5.6s13.8-0.5,14.3,6.5s-10.5,11.3-10.5,11.3L432.6,598l-10.7-9l11-32.7
		l-5.6-13.5L433.5,533.8z"/>
	<polygon opacity="0.4" enable-background="new    " points="337,521.5 336,547 325.7,548.7 322.5,522.5 	"/>
	<polygon opacity="0.4" enable-background="new    " points="312.3,572.8 312.3,583.7 301.7,587.7 297.8,573.8 	"/>
	<polygon opacity="0.4" enable-background="new    " points="341.7,557.5 344.3,613.3 329.7,615.3 327.2,558.5 	"/>
	<polygon opacity="0.4" enable-background="new    " points="312.7,628.8 310.7,643.7 302.7,643.7 298.2,629.8 	"/>
	<polygon opacity="0.4" enable-background="new    " points="315.3,690.2 311.7,702.3 304,701.3 300.8,691.2 	"/>
	<polygon opacity="0.4" enable-background="new    " points="227.7,580.3 224.3,596.3 219,595.3 218.5,580.8 	"/>
	<path opacity="0.4" enable-background="new    " d="M374,648.7c2.2-8.9,32-0.7,36.3,0.3s26,12.3,17.3,28s-35.3,1.9-35.3,1.9
		S369.3,667.3,374,648.7z"/>
	<polygon opacity="0.4" enable-background="new    " points="430.3,569 438.3,578.3 440.5,571.7 432.7,561 	"/>
	<path opacity="0.4" enable-background="new    " d="M435,605.3c2.7,12.7-16.7,48-16.7,48l13.7,15l4.7-12.5l3.8-24.8L435,605.3z"/>
	<path opacity="0.4" fill="#FFFFFF" enable-background="new    " d="M161.7,113c0,0,540,6.7,559.3,5.3c19.3-1.3,22-16,22-16
		l-585.3-10L161.7,113z"/>
	<polygon opacity="0.4" fill="#FFFFFF" enable-background="new    " points="131.7,72.3 144.3,271.7 157,272.3 153.1,63.1 	"/>
	<polygon opacity="0.4" fill="#FFFFFF" enable-background="new    " points="763.7,71.7 801,85 799.7,275 813.1,277.6 814.6,66.1 
		760.6,66.1 	"/>
	<polygon opacity="0.4" fill="#FFFFFF" enable-background="new    " points="796.3,283.7 822.3,849 841,849 811.7,271 	"/>
	<polygon opacity="0.4" fill="#FFFFFF" enable-background="new    " points="561.7,322.3 761,327.7 761,310.3 557.7,310.3 	"/>
	<path opacity="0.4" fill="#FFFFFF" enable-background="new    " d="M586.3,813c-4,5.3-9.3,12,10.7,12s185.3-1.3,185.3-1.3l10,28.7
		l4-42L586.3,813z"/>
	<path opacity="0.4" fill="#FFFFFF" enable-background="new    " d="M405,366.3c0.7,14,44.7,10.7,44.7,10.7s16.7,70,30.7,68L465,361
		L405,366.3z"/>
	<path opacity="0.4" fill="#FFFFFF" enable-background="new    " d="M328.5,366.5c0,0,8,51-1.5,67.5c-6.3,10.9-9,5.5-9,5.5
		l-3.6-73.7L328.5,366.5z"/>
	<path opacity="0.4" fill="#FFFFFF" enable-background="new    " d="M260.5,365c0,14.5-11.5,69-19.5,70.5s-11.5-2.5-11.5-2.5
		s13.5-27,13.5-34s4.5-41.5,4.5-41.5L260.5,365z"/>
	<path opacity="0.4" fill="#FFFFFF" enable-background="new    " d="M186.5,363c0,14.5-8.5,69.5-31,70l8.5-45.5l13-30.5L186.5,363z"
		/>
	<path opacity="0.4" fill="#FFFFFF" enable-background="new    " d="M402,366.3c1.3,14.7,8,53,17.7,63.7s-1,17.7-6.7,14
		s-16.7-26-17.3-37.7c-0.7-11.7-4.3-42.7-4.3-42.7L402,366.3z"/>
	<path opacity="0.4" fill="#FFFFFF" enable-background="new    " d="M211,559.3c3.7,10.7-16,80.3-14.7,83.3s-3-52.3-3-52.3
		L211,559.3z"/>
	<path opacity="0.4" fill="#FFFFFF" enable-background="new    " d="M387.3,641.7c11.3-23.3,21.3-36.3,25.3-35s-19.3,35.7-19.3,35.7
		L387.3,641.7z"/>
	<polygon opacity="0.4" fill="#FFFFFF" enable-background="new    " points="598.3,521 691.7,684.3 674.3,685 591,549.7 	"/>
	<path opacity="0.4" fill="#FFFFFF" enable-background="new    " d="M651.7,682.8L594.3,593l-1.3,26.7l43.4,64.3
		C641.5,683.6,646.6,683,651.7,682.8z"/>
	<path opacity="0.4" fill="#FFFFFF" enable-background="new    " d="M668,717.6c-4.5,1.2-10,1.1-14.2,1.1l43.9,65l11.3-2L668,717.6z
		"/>
	<path opacity="0.4" fill="#FFFFFF" enable-background="new    " d="M300.7,502.9c8.3,0.4,26.9-5.9,26.9-5.9l-12.5-4L300.7,502.9z"
		/>
	<path opacity="0.4" fill="#FFFFFF" enable-background="new    " d="M302.5,532c0.6-2.2,3.2,6,3.2,12s-1.8,26-4.5,26
		S301.5,535.5,302.5,532z"/>
	<polygon opacity="0.4" fill="#FFFFFF" enable-background="new    " points="267,464 479,676 485,721 232.5,468.5 194.7,468.5 
		440,713.8 409,713 161,465 	"/>
</g>
<g id="vs-outline">
	
		<polygon id="XMLID_1_" fill="none" stroke="#000000" stroke-width="16.5378" stroke-linecap="round" stroke-linejoin="round" stroke-miterlimit="10" points="
		85.8,844.9 839,853.1 817,276.9 98.4,276.9 	"/>
	
		<polyline id="XMLID_3_" fill="none" stroke="#000000" stroke-width="16.5378" stroke-linecap="round" stroke-linejoin="round" stroke-miterlimit="10" points="
		797.1,852.5 801.8,807.2 541.2,808.1 545,844 	"/>
	
		<polyline id="XMLID_4_" fill="none" stroke="#000000" stroke-width="16.5378" stroke-linecap="round" stroke-linejoin="round" stroke-miterlimit="10" points="
		765.9,805.3 765.9,458.8 561,456.9 559.2,801.5 	"/>
	
		<polygon id="XMLID_2_" fill="none" stroke="#000000" stroke-width="16.5378" stroke-linecap="round" stroke-linejoin="round" stroke-miterlimit="10" points="
		503.2,716.8 502.5,741.6 153.4,739.5 136.4,715.4 	"/>
	
		<line id="XMLID_8_" fill="none" stroke="#000000" stroke-width="16.5378" stroke-linecap="round" stroke-linejoin="round" stroke-miterlimit="10" x1="160.5" y1="471.8" x2="157.7" y2="710.4"/>
	
		<line id="XMLID_7_" fill="none" stroke="#000000" stroke-width="16.5378" stroke-linecap="round" stroke-linejoin="round" stroke-miterlimit="10" x1="484.8" y1="707.6" x2="485.5" y2="475.3"/>
	
		<path id="XMLID_5_" fill="none" stroke="#000000" stroke-width="16.5378" stroke-linecap="round" stroke-linejoin="round" stroke-miterlimit="10" d="
		M466.6,360.6c0,0,4.7,97.7,50.3,104.1H120.4c0,0,45.8-34,52.4-104.8L466.6,360.6z"/>
	
		<polygon id="XMLID_6_" fill="none" stroke="#000000" stroke-width="16.5378" stroke-linecap="round" stroke-linejoin="round" stroke-miterlimit="10" points="
		592,491.9 735.5,494.8 733.7,685 594.4,685 	"/>
	
		<polygon id="XMLID_9_" fill="none" stroke="#000000" stroke-width="16.5378" stroke-linecap="round" stroke-linejoin="round" stroke-miterlimit="10" points="
		594.4,714.6 595.5,783.7 736.1,781.9 738.5,716.3 	"/>
	
		<line id="XMLID_11_" fill="none" stroke="#000000" stroke-width="16.5378" stroke-linecap="round" stroke-linejoin="round" stroke-miterlimit="10" x1="615" y1="606.5" x2="615" y2="646"/>
	
		<path id="XMLID_14_" fill="none" stroke="#000000" stroke-width="8.2689" stroke-linecap="round" stroke-linejoin="round" stroke-miterlimit="10" d="
		M438.6,464.7c-26-14.2-47.6-33.1-47.6-97.7"/>
	
		<line id="XMLID_15_" fill="none" stroke="#000000" stroke-width="8.2689" stroke-linecap="round" stroke-linejoin="round" stroke-miterlimit="10" x1="316.6" y1="363.9" x2="317.3" y2="461.6"/>
	
		<path id="XMLID_16_" fill="none" stroke="#000000" stroke-width="8.2689" stroke-linecap="round" stroke-linejoin="round" stroke-miterlimit="10" d="
		M201.6,463.9c0,0,43.7-27.6,45.3-99.2"/>
	
		<path id="XMLID_18_" fill="none" stroke="#000000" stroke-width="8.2689" stroke-linecap="round" stroke-linejoin="round" stroke-miterlimit="10" d="
		M420.2,590.7l14.4-39c0,0-14.3-6.5-3.1-15.1c6-4.6,13.3,1.3,16.4,6.3c0.5,0.7,13.6-6.7,12.7,8.3c-0.5,8.7-12.9,5.2-12.9,5.2
		l-16,42.9"/>
	
		<path id="XMLID_17_" fill="none" stroke="#000000" stroke-width="8.2689" stroke-linecap="round" stroke-linejoin="round" stroke-miterlimit="10" d="
		M428.8,678.1c18.4-38.2,14.3-74.9-3.8-83.5c-22-10.5-51.1,47.4-52.3,55.8"/>
	
		<path id="XMLID_10_" fill="none" stroke="#000000" stroke-width="8.2689" stroke-linecap="round" stroke-linejoin="round" stroke-miterlimit="10" d="
		M373.6,648.5c10.5-18.4,63.8,7.2,55.5,27.8S360.5,671.5,373.6,648.5z"/>
	
		<line id="XMLID_20_" fill="none" stroke="#000000" stroke-width="8.2689" stroke-linecap="round" stroke-linejoin="round" stroke-miterlimit="10" x1="395.1" y1="662" x2="397.2" y2="663"/>
	
		<path id="XMLID_19_" fill="none" stroke="#000000" stroke-width="8.2689" stroke-linecap="round" stroke-linejoin="round" stroke-miterlimit="10" d="
		M214,560.1c19.4-1.3,54.9,92.7,9.7,103.1S187.4,561.9,214,560.1z"/>
	
		<path id="XMLID_21_" fill="none" stroke="#000000" stroke-width="8.2689" stroke-linecap="round" stroke-linejoin="round" stroke-miterlimit="10" d="
		M219.3,627.4c11.9-2.3,11.8,16.2,3.5,15.7C214.6,642.5,213.1,628.6,219.3,627.4z"/>
	
		<line id="XMLID_28_" fill="none" stroke="#000000" stroke-width="8.2689" stroke-linecap="round" stroke-linejoin="round" stroke-miterlimit="10" x1="296.7" y1="506.7" x2="165" y2="506.9"/>
	
		<line id="XMLID_26_" fill="none" stroke="#000000" stroke-width="8.2689" stroke-linecap="round" stroke-linejoin="round" stroke-miterlimit="10" x1="480" y1="506.5" x2="322.7" y2="506.7"/>
	
		<line id="XMLID_29_" fill="none" stroke="#000000" stroke-width="8.2689" stroke-linecap="round" stroke-linejoin="round" stroke-miterlimit="10" x1="313.6" y1="519.7" x2="481.5" y2="519.5"/>
	
		<line id="XMLID_13_" fill="none" stroke="#000000" stroke-width="8.2689" stroke-linecap="round" stroke-linejoin="round" stroke-miterlimit="10" x1="166.5" y1="519.8" x2="301.8" y2="519.7"/>
	
		<path id="XMLID_23_" fill="none" stroke="#000000" stroke-width="8.2689" stroke-linecap="round" stroke-linejoin="round" stroke-miterlimit="10" d="
		M209.5,520.2l-0.4,20.9c0,0,24.4-4,24.4,20.1c0,13.8-11,20.9-11,20.9"/>
	
		<path id="XMLID_12_" fill="none" stroke="#000000" stroke-width="8.2689" stroke-linecap="round" stroke-linejoin="round" stroke-miterlimit="10" d="
		M315.3,656.4c0-11.5-15.9-19.2-16.2-3.2c-0.3,15.9-0.3,29.6-0.3,39.9c0,12.1,17.1,12.1,16.5-0.3
		C314.7,680.3,315.3,656.4,315.3,656.4z"/>
	
		<path id="XMLID_24_" fill="none" stroke="#000000" stroke-width="8.2689" stroke-linecap="round" stroke-linejoin="round" stroke-miterlimit="10" d="
		M314.1,540.3c2.4-14.2-15.9-19.2-16.2-3.2s-2.4,27.5-2.4,37.8c0,12.1,19.2,14.2,18.6,1.8C313.5,564.2,314.1,540.3,314.1,540.3z"/>
	
		<path id="XMLID_25_" fill="none" stroke="#000000" stroke-width="8.2689" stroke-linecap="round" stroke-linejoin="round" stroke-miterlimit="10" d="
		M313.5,600c0-11.5-12.2-16.7-14.2-0.9c-2.1,16.2-2.4,22.5-2.4,32.8c0,12.1,17.1,12.1,16.5-0.3C312.9,619.2,313.5,600,313.5,600z"/>
	
		<path id="XMLID_27_" fill="none" stroke="#000000" stroke-width="8.2689" stroke-linecap="round" stroke-linejoin="round" stroke-miterlimit="10" d="
		M332.1,503.9c0.8-14.2-30.7-17-33.1,3.6c-2.4,20.6,11.5,12.8,13,7.7c3.2-10.9,10-10.3,10-10.3"/>
	
		<path id="XMLID_22_" fill="none" stroke="#000000" stroke-width="8.2689" stroke-linecap="round" stroke-linejoin="round" stroke-miterlimit="10" d="
		M336.6,521.6c1,21.7,2.2,27.8-4.1,28.5c-6.3,0.8-9.6-8.7-9.6-27.8"/>
	
		<path id="XMLID_31_" fill="none" stroke="#000000" stroke-width="8.2689" stroke-linecap="round" stroke-linejoin="round" stroke-miterlimit="10" d="
		M333.3,555.5c4.9-1.6,10,3.5,10.4,10s0.4,36.4,1,43.5s-15.4,13-15.8-0.4s-3-35.8-1.6-44.7C328.8,555.1,333.3,555.5,333.3,555.5z"/>
	
		<path id="XMLID_32_" fill="none" stroke="#000000" stroke-width="4.7251" stroke-linecap="round" stroke-linejoin="round" stroke-miterlimit="10" d="
		M431.1,552.9c0,6.3,13.4,29.5,17.3,7.5"/>
	
		<line id="XMLID_33_" fill="none" stroke="#000000" stroke-width="4.7251" stroke-linecap="round" stroke-linejoin="round" stroke-miterlimit="10" x1="445.3" y1="536.4" x2="443" y2="519.5"/>
	
		<path id="XMLID_34_" fill="none" stroke="#000000" stroke-width="4.7251" stroke-linecap="round" stroke-linejoin="round" stroke-miterlimit="10" d="
		M437.8,503.3c-4.7-5.9-2.8,30.7-2.8,30.7"/>
	
		<polygon id="XMLID_30_" fill="none" stroke="#000000" stroke-width="16.5378" stroke-linecap="round" stroke-linejoin="round" stroke-miterlimit="10" points="
		560.1,422.8 764.5,425.1 766.8,309.4 556,310 	"/>
	
		<path id="XMLID_36_" fill="none" stroke="#000000" stroke-width="8.2689" stroke-linecap="round" stroke-linejoin="round" stroke-miterlimit="10" d="
		M596.1,347c-5.9,9.8-13,43.7-13,43.7l98,0.4L682,360h6.3v-14.2C688.3,345.8,602,337.1,596.1,347z"/>
	
		<polyline id="XMLID_37_" fill="none" stroke="#000000" stroke-width="8.2689" stroke-linecap="round" stroke-linejoin="round" stroke-miterlimit="10" points="
		691.8,346.6 741.3,344.5 746.3,341.6 746.9,365.8 741.3,361.9 689.9,358.7 	"/>
	
		<path id="XMLID_35_" fill="none" stroke="#000000" stroke-width="4.7251" stroke-linecap="round" stroke-linejoin="round" stroke-miterlimit="10" d="
		M604.1,353.4c4.3-0.1,3.3,6.3,0.6,7.4C600.7,362.4,598.3,353.5,604.1,353.4z"/>
	
		<polyline id="XMLID_39_" fill="none" stroke="#000000" stroke-width="16.5378" stroke-linecap="round" stroke-linejoin="round" stroke-miterlimit="10" points="
		817,276.9 818.2,65.1 759.9,65.1 756,273.7 	"/>
	
		<line id="XMLID_40_" fill="none" stroke="#000000" stroke-width="16.5378" stroke-linecap="round" stroke-linejoin="round" stroke-miterlimit="10" x1="752.8" y1="99.7" x2="163" y2="92.6"/>
	
		<polyline id="XMLID_41_" fill="none" stroke="#000000" stroke-width="16.5378" stroke-linecap="round" stroke-linejoin="round" stroke-miterlimit="10" points="
		157.5,272.2 155.1,64.3 93.7,66.6 98.4,276.9 	"/>
</g>
<g id="vs-reveal">
	
		<path fill="none" stroke="#00CFFF" stroke-width="80" stroke-linecap="round" stroke-linejoin="round" stroke-miterlimit="10" stroke-opacity="0" d="
		M333.1,106.6c-99,0-237-43.5-231,15c10.6,103,316.5-43.5,385.5-30c74.3,14.5-393,88.5-393,133.5c0,93,498-121.5,553.5-121.5
		s-552,157.5-552,232.5s700.5-283.5,709.5-243s-715.5,288-715.5,360s699-333,699-283.5s-685.5,339-687,385.5s706.5-370.5,706.5-297
		s-714,325.5-708,394.5c9.6,110.6,715.5-351,715.5-289.5s-735,318-735,382.5s744-316.5,744-283.5S82.8,807.6,100.6,817.6
		c85.5,48,729-337.5,729-276s-651,293.9-574.5,292.5c168-3,573-274.5,573-187.5S327.3,829.8,430.6,837.1c214.5,15,396-183,396-117
		s-267,99-193.5,111s202.5,39,195,10.5s-43.5-43.5-43.5-43.5"/>
</g>
</svg>
