<?xml version="1.0" encoding="utf-8"?>
<!-- Generator: Adobe Illustrator 22.1.0, SVG Export Plug-In . SVG Version: 6.00 Build 0)  -->
<svg version="1.1" id="Layer_1" xmlns="http://www.w3.org/2000/svg" xmlns:xlink="http://www.w3.org/1999/xlink" x="0px" y="0px"
	 width="900px" height="900px" viewBox="0 0 900 900" enable-background="new 0 0 900 900" xml:space="preserve">
<g id="vs-highlight">
	<g>
		<path fill="#5DBFD9" d="M394.2,570.1c1.6,1.9,3.9,2.9,6.2,2.9c1.8,0,3.6-0.6,5.1-1.9c0.7-0.6,1.3-1.4,1.8-2.2
			c2.2,3,4.6,5.4,7.1,7.1c18.2,12.9,35.5,14.3,44.7,14.3c1.5,0,2.7,0,3.7-0.1c0.6,0,1.1,0,1.5,0c4.4,0,8-3.6,8-8s-3.6-8-8-8
			c-0.5,0-1.2,0-1.9,0c-6.6,0.2-22,0.6-38.7-11.3c-3.1-2.2-11-10.8-17.5-43c-3.8-18.8-5.1-36.2-5.1-36.3c-0.3-4.4-4.2-7.7-8.6-7.4
			c-4.4,0.3-7.7,4.2-7.4,8.6c0.1,0.7,1.4,18.4,5.4,38.2c1,5,2.1,9.7,3.2,14.1c-1.3-0.9-2.9-1.4-4.6-1.4H389L278.2,537
			c-1.8,0-3.5,0.6-4.8,1.7c-1-0.3-2.1-0.4-3.2-0.3l-21,2c-4.1,0.4-7.3,3.9-7.2,8l1.7,287.4c0,4.4,3.6,8,8,8l0,0c4.4,0,8-3.6,8-8
			L258,555.6l13.7-1.3c1.6-0.1,3-0.7,4.1-1.6c0.8,0.2,1.6,0.4,2.4,0.4h0.1l104.7-1.2C384.8,556.4,388.1,562.9,394.2,570.1z"/>
		<path fill="#5DBFD9" d="M663.7,531L663.7,531l-137.4,0.7c-4.4,0-8,3.6-8,8s3.6,8,8,8l0,0l103.4-0.5l10,288.1
			c0.1,4.3,3.7,7.7,8,7.7c0.1,0,0.2,0,0.3,0c4.4-0.2,7.9-3.9,7.7-8.3l-9.9-287.6l18-0.1c4.4,0,8-3.6,8-8
			C671.7,534.6,668.1,531,663.7,531z"/>
		<path fill="#5DBFD9" d="M241.7,496c-0.2-4.4-3.9-7.9-8.3-7.7c-4.4,0.2-7.9,3.9-7.7,8.3L227,530c0.2,4.3,3.7,7.7,8,7.7
			c0.1,0,0.2,0,0.3,0c4.4-0.2,7.9-3.9,7.7-8.3L241.7,496z"/>
		<path fill="#5DBFD9" d="M242,268.1c-1.5,1.5-2.3,3.6-2.3,5.8l4,209.3c0.1,4.4,3.6,7.8,8,7.8c0.1,0,0.1,0,0.2,0
			c4.4-0.1,7.9-3.7,7.8-8.2l-3.8-201.2L623,281c1.5,0,2.8-0.4,4-1.1l0.7,199.1c0,4.4,3.6,8,8,8l0,0c4.4,0,8-3.6,8-8L643,283.5
			l18.9-0.5c4.4-0.1,7.9-3.8,7.8-8.2c-0.1-4.4-3.8-7.9-8.2-7.8l-26.7,0.7c-1.8,0-3.4,0.7-4.7,1.7c-1.3-2.6-4-4.4-7.1-4.4l0,0
			l-375.3,0.7C245.5,265.7,243.5,266.6,242,268.1z"/>
		<path fill="#5DBFD9" d="M389.3,292.2c-7.2-3.9-16.2-5.2-26.6-3.8c-7.4,1-12.9,3-13.2,3.1c-4.1,1.5-6.3,6.1-4.7,10.2
			c1.5,4.1,6.1,6.3,10.2,4.8c4.5-1.6,18.1-4.9,26.7-0.2c4.1,2.2,6.7,6.1,8,11.8c0.9,3.7,4.1,6.2,7.8,6.2c0.6,0,1.2-0.1,1.8-0.2
			c4.3-1,7-5.3,6-9.6C403,304.3,397.5,296.6,389.3,292.2z"/>
		<path fill="#5DBFD9" d="M397.5,336.3c-4.4,0.1-7.9,3.8-7.8,8.2l0.6,27.4c0.1,4.4,3.7,7.8,8,7.8c0.1,0,0.1,0,0.2,0
			c4.4-0.1,7.9-3.8,7.8-8.2l-0.6-27.4C405.6,339.7,401.9,336.2,397.5,336.3z"/>
		<path fill="#5DBFD9" d="M391.3,390.9l1,34.3c0.1,4.3,3.7,7.8,8,7.8c0.1,0,0.2,0,0.2,0c4.4-0.1,7.9-3.8,7.8-8.2l-1-34.3
			c-0.1-4.4-3.8-7.9-8.2-7.8C394.7,382.8,391.2,386.5,391.3,390.9z"/>
		<path fill="#5DBFD9" d="M328.9,431.9c-0.6-4.4-4.7-7.4-9.1-6.8s-7.4,4.7-6.8,9.1l2.5,17.5c0.6,3.9,3.9,6.8,7.8,6.9l90.5,1h0.1
			c4.4,0,7.9-3.5,8-7.9c0-4.4-3.5-8-7.9-8.1l-83.6-0.9L328.9,431.9z"/>
		<path fill="#5DBFD9" d="M598.4,459.5C598.4,459.5,598.5,459.5,598.4,459.5c4.5,0,8-3.5,8.1-7.9c0-4.4-3.5-8-7.9-8.1l-93.8-0.9
			l-0.8-9.3c-0.4-4.4-4.3-7.6-8.7-7.2c-4.4,0.4-7.6,4.3-7.2,8.7l1.5,16.5c0.4,4.1,3.8,7.2,7.9,7.3L598.4,459.5z"/>
		<path fill="#5DBFD9" d="M579.8,326.8c4.3-1,7-5.3,6-9.6c-2.4-10.6-7.8-18.3-16-23.1c-15.2-8.8-34.3-3-35.1-2.8
			c-4.2,1.3-6.6,5.8-5.3,10s5.8,6.6,10,5.3c0.1,0,13.3-3.9,22.4,1.3c4.3,2.5,7,6.6,8.4,12.8c0.8,3.7,4.1,6.2,7.8,6.2
			C578.6,327,579.2,326.9,579.8,326.8z"/>
		<path fill="#5DBFD9" d="M579.5,379.5c0.1,0,0.1,0,0.2,0c4.4-0.1,7.9-3.7,7.8-8.1l-0.5-26.5c-0.1-4.4-3.6-7.8-8-7.8
			c-0.1,0-0.1,0-0.2,0c-4.4,0.1-7.9,3.7-7.8,8.1l0.5,26.5C571.6,376,575.1,379.5,579.5,379.5z"/>
		<path fill="#5DBFD9" d="M580,427.5c0.1,0,0.2,0,0.3,0c4.4-0.2,7.9-3.9,7.7-8.3l-1-28c-0.2-4.4-3.9-7.9-8.3-7.7
			c-4.4,0.2-7.9,3.9-7.7,8.3l1,28C572.2,424.1,575.7,427.5,580,427.5z"/>
		<path fill="#5DBFD9" d="M227,228.8c-0.1-4.4-3.8-7.9-8.2-7.8c-4.4,0.1-7.9,3.8-7.8,8.2l0.7,30c0.1,4.4,3.7,7.8,8,7.8
			c0.1,0,0.1,0,0.2,0c4.4-0.1,7.9-3.8,7.8-8.2L227,228.8z"/>
		<path fill="#5DBFD9" d="M241,224.3h0.1c4.4-0.1,7.9-3.7,7.9-8.1l-0.7-44.6c-0.1-4.4-3.7-7.9-8.1-7.9c-4.4,0.1-7.9,3.7-7.9,8.1
			l0.7,44.6C233.1,220.8,236.6,224.3,241,224.3z"/>
		<path fill="#5DBFD9" d="M427,191c2,0,4.1-0.8,5.7-2.3c0.4-0.4,3.9-4,6.8-9.5c4.3-8.1,5.1-16.2,2.4-23.6c-2.5-6.7,3.7-16.5,6-19.5
			c2.8-3.4,2.3-8.4-1.2-11.2c-3.4-2.8-8.5-2.3-11.3,1.1c-0.4,0.5-3.7,4.6-6.5,10.6c-4.1,8.8-4.8,17.3-2.1,24.4
			c2.7,7.6-5.5,16.3-5.5,16.3c-3.1,3.1-3.1,8.2,0,11.3C422.9,190.2,425,191,427,191z"/>
		<path fill="#5DBFD9" d="M417.3,798.8c-2-0.2-3.9,0.2-5.4,1.3c-1.5-0.9-3.4-1.2-5.2-0.9c-4.4,0.7-7.3,4.8-6.6,9.2l4.7,28.3
			c0.6,3.9,4,6.7,7.9,6.7c0.1,0,0.1,0,0.2,0c4-0.1,7.3-3.1,7.8-7l3.6-28.6C424.8,803.3,421.7,799.3,417.3,798.8z"/>
		<path fill="#5DBFD9" d="M566,795.1c-2.6-0.4-5,0.5-6.8,2.1c-1.3-0.5-2.7-0.7-4.1-0.4c-4.4,0.7-7.4,4.8-6.7,9.1l4,26
			c0.6,3.9,3.9,6.8,7.9,6.8l0,0c3.9,0,7.3-2.9,7.9-6.7l4.4-27.7C573.3,799.9,570.3,795.8,566,795.1z"/>
		<path fill="#5DBFD9" d="M431.9,648.5c-7.6-0.1-15-0.1-20.6,0l0.8-14.4c0.2-4.4-3.2-8.2-7.6-8.4s-8.2,3.2-8.4,7.6l-1,19.1
			c-0.9,1.3-1.4,2.9-1.3,4.6c0,1.2,0.4,2.3,0.9,3.4l-5.6,105c-0.1,2.2,0.7,4.2,2,5.8c-0.9-0.4-1.9-0.7-2.9-0.7
			c-4.4-0.2-8.2,3.2-8.4,7.6l-0.7,13.7c-0.2,4.4,3.2,8.2,7.6,8.4c0.1,0,0.3,0,0.4,0c4.2,0,7.8-3.3,8-7.6l0.7-13.7
			c0.1-2.2-0.7-4.2-2-5.7c0.9,0.4,1.9,0.7,2.9,0.7c0.1,0,0.3,0,0.4,0c4.2,0,7.8-3.3,8-7.6l5.4-101.6c19.3-0.4,39.7,0.2,46.9,1.7
			c0.9,6,1.3,20.5,1.1,32.6c-0.1,4.4,3.4,8.1,7.8,8.2c0.1,0,0.1,0,0.2,0c4.3,0,7.9-3.5,8-7.8c0.3-12.8,0.2-35.3-3.1-42.1
			C468.4,651.5,462,648.9,431.9,648.5z"/>
		<path fill="#5DBFD9" d="M565.9,648.7l-64,0.6c-4.4,0-8,3.7-7.9,8.1c0,4.4,3.6,7.9,8,7.9h0.1l64-0.6c4.4,0,8-3.7,7.9-8.1
			C574,652.2,570.3,648.7,565.9,648.7z"/>
		<path fill="#5DBFD9" d="M452.6,727.8c-2.5,0-4.5,2.1-4.4,4.6l0.6,33.7c0,2.5,2,4.4,4.5,4.4h0.1c2.5,0,4.5-2.1,4.4-4.6l-0.6-33.7
			C457.2,729.7,455.1,727.7,452.6,727.8z"/>
		<path fill="#5DBFD9" d="M466,724.8c-2.5,0.2-4.3,2.3-4.2,4.8l2.7,36.4c0.2,2.4,2.1,4.2,4.5,4.2c0.1,0,0.2,0,0.3,0
			c2.5-0.2,4.3-2.3,4.2-4.8l-2.7-36.4C470.6,726.5,468.5,724.6,466,724.8z"/>
		<path fill="#5DBFD9" d="M483,724.8L483,724.8c-2.5,0-4.5,2.1-4.5,4.5l0.3,35.7c0,2.5,2,4.5,4.5,4.5l0,0c2.5,0,4.5-2.1,4.5-4.5
			l-0.3-35.7C487.5,726.8,485.5,724.8,483,724.8z"/>
		<path fill="#5DBFD9" d="M499.8,725.2c-2.5,0.1-4.4,2.2-4.3,4.7l1.7,35.6c0.1,2.4,2.1,4.3,4.5,4.3c0.1,0,0.1,0,0.2,0
			c2.5-0.1,4.4-2.2,4.3-4.7l-1.7-35.6C504.4,727,502.3,725.1,499.8,725.2z"/>
		<path fill="#5DBFD9" d="M512.1,726.5c-2.5,0.1-4.4,2.2-4.3,4.7l1.4,34.3c0.1,2.4,2.1,4.3,4.5,4.3c0.1,0,0.1,0,0.2,0
			c2.5-0.1,4.4-2.2,4.3-4.7l-1.4-34.3C516.7,728.3,514.6,726.4,512.1,726.5z"/>
	</g>
</g>
<g id="vs-outline">
	
		<polygon id="XMLID_1_" fill="none" stroke="#000000" stroke-width="14" stroke-linecap="round" stroke-linejoin="round" stroke-miterlimit="10" points="
		245.7,837.5 240.3,538 274.3,538 279,837.9 	"/>
	
		<polyline id="XMLID_2_" fill="none" stroke="#000000" stroke-width="14" stroke-linecap="round" stroke-linejoin="round" stroke-miterlimit="10" points="
		391,534 221.3,536 221.3,490 382,489 	"/>
	
		<path id="XMLID_4_" fill="none" stroke="#000000" stroke-width="14" stroke-linecap="round" stroke-linejoin="round" stroke-miterlimit="10" d="
		M386.7,465.7l143.7-1c0,0,2,14.7,1.3,28c-2.1,42-32,98.7-76.7,98.7s-68.5-61.3-69-96C385.7,472,386.7,465.7,386.7,465.7z"/>
	
		<path id="XMLID_3_" fill="none" stroke="#000000" stroke-width="8" stroke-linecap="round" stroke-linejoin="round" stroke-miterlimit="10" d="
		M456.1,488.4c0,0-43,46.3-8.1,69.9c27.8,18.8,46-26.3,31.8-40.7c0,0-5.6,13.9-12,15.1c-4.7,0.8-9.4-10.2-1-21.2
		C474,501.9,456.1,488.4,456.1,488.4z"/>
	
		<path id="XMLID_6_" fill="none" stroke="#000000" stroke-width="8" stroke-linecap="round" stroke-linejoin="round" stroke-miterlimit="10" d="
		M400.3,481c0-0.5,118.3-2.3,118.3-2c-0.3,24.3-16,96.9-62.3,98C413,578,401,506,400.3,481z"/>
	
		<line id="XMLID_7_" fill="none" stroke="#000000" stroke-width="8" stroke-linecap="round" stroke-linejoin="round" stroke-miterlimit="10" x1="525" y1="468" x2="519.7" y2="480"/>
	
		<line id="XMLID_8_" fill="none" stroke="#000000" stroke-width="8" stroke-linecap="round" stroke-linejoin="round" stroke-miterlimit="10" x1="387.3" y1="471.7" x2="400.3" y2="481"/>
	
		<polyline id="XMLID_9_" fill="none" stroke="#000000" stroke-width="14" stroke-linecap="round" stroke-linejoin="round" stroke-miterlimit="10" points="
		534,484 692.5,483.5 695,528 529,530 	"/>
	
		<polyline id="XMLID_10_" fill="none" stroke="#000000" stroke-width="14" stroke-linecap="round" stroke-linejoin="round" stroke-miterlimit="10" points="
		670,535 675,837 638,837 632,534 	"/>
	
		<line id="XMLID_11_" fill="none" stroke="#000000" stroke-width="8" stroke-linecap="round" stroke-linejoin="round" stroke-miterlimit="10" x1="633.7" y1="568" x2="505.7" y2="568.7"/>
	
		<line id="XMLID_12_" fill="none" stroke="#000000" stroke-width="8" stroke-linecap="round" stroke-linejoin="round" stroke-miterlimit="10" x1="410.3" y1="571.7" x2="280.3" y2="573.3"/>
	
		<line id="XMLID_13_" fill="none" stroke="#000000" stroke-width="14" stroke-linecap="round" stroke-linejoin="round" stroke-miterlimit="10" x1="628.3" y1="480.3" x2="627.3" y2="265.3"/>
	
		<polygon id="XMLID_5_" fill="none" stroke="#000000" stroke-width="14" stroke-linecap="round" stroke-linejoin="round" stroke-miterlimit="10" points="
		693,265 692,218 212,221 211,263 	"/>
	
		<line id="XMLID_15_" fill="none" stroke="#000000" stroke-width="14" stroke-linecap="round" stroke-linejoin="round" stroke-miterlimit="10" x1="665.7" y1="270" x2="669.7" y2="478"/>
	
		<line id="XMLID_16_" fill="none" stroke="#000000" stroke-width="14" stroke-linecap="round" stroke-linejoin="round" stroke-miterlimit="10" x1="280.3" y1="268" x2="281" y2="484"/>
	
		<line id="XMLID_17_" fill="none" stroke="#000000" stroke-width="14" stroke-linecap="round" stroke-linejoin="round" stroke-miterlimit="10" x1="241.7" y1="484" x2="239.7" y2="269.3"/>
	
		<path id="XMLID_18_" fill="none" stroke="#000000" stroke-width="14" stroke-linecap="round" stroke-linejoin="round" stroke-miterlimit="10" d="
		M232,215l1-53c0,0,34.7,3.7,57-26c19.6-26,19-69,19-69l296,1c0,0-4,42,21,67c17.3,17.3,48,23,48,23v53"/>
	
		<path id="XMLID_19_" fill="none" stroke="#000000" stroke-width="14" stroke-linecap="round" stroke-linejoin="round" stroke-miterlimit="10" d="
		M277,217l-1-29c0,0,24.3,3.7,49-25.7c16.5-19.6,20-53.3,20-53.3h221c0,0,4.4,29.7,20,47c18,20,43,29,43,29l1,26"/>
	
		<path id="XMLID_20_" fill="none" stroke="#000000" stroke-width="14" stroke-linecap="round" stroke-linejoin="round" stroke-miterlimit="10" d="
		M451.5,114.5l-2,12.4c0,4.5,5.6,8.1,10.1,8.1l0,0c4.4,0,10-3.5,10.1-7.9l-1.7-14.6"/>
	
		<path id="XMLID_21_" fill="none" stroke="#000000" stroke-width="14" stroke-linecap="round" stroke-linejoin="round" stroke-miterlimit="10" d="
		M450,124c-11-1.7-25,3-24.7,31c0.3,22.4-12.7,34-12.7,34l91.7-0.3c0,0-11.7-8.7-13.3-31.7c-1.2-17-2.7-33.3-21.3-33.7"/>
	
		<path id="XMLID_14_" fill="none" stroke="#000000" stroke-width="9" stroke-linecap="round" stroke-linejoin="round" stroke-miterlimit="10" d="
		M444.8,193.3c-1,6.8,4.2,10.5,14.3,10.5c7.1,0,13.6-4,12.5-10"/>
	
		<polygon id="XMLID_22_" fill="none" stroke="#000000" stroke-width="14" stroke-linecap="round" stroke-linejoin="round" stroke-miterlimit="10" points="
		602,426.5 505,425.5 504.5,444 604.5,445 	"/>
	
		<path id="XMLID_23_" fill="none" stroke="#000000" stroke-width="14" stroke-linecap="round" stroke-linejoin="round" stroke-miterlimit="10" d="
		M588,424.5c0,0,0.5-59.5,0.5-93s-15.5-48.3-36-48c-31,0.5-37.5,27-38,49S515,424,515,424"/>
	
		<line id="XMLID_25_" fill="none" stroke="#000000" stroke-width="14" stroke-linecap="round" stroke-linejoin="round" stroke-miterlimit="10" x1="587.5" y1="326.5" x2="517.5" y2="326.5"/>
	
		<polyline id="XMLID_24_" fill="none" stroke="#000000" stroke-width="7" stroke-linecap="round" stroke-linejoin="round" stroke-miterlimit="10" points="
		572.5,294 552.5,327 530.5,295 	"/>
	
		<line id="XMLID_27_" fill="none" stroke="#000000" stroke-width="7" stroke-linecap="round" stroke-linejoin="round" stroke-miterlimit="10" x1="553.5" y1="287" x2="552.5" y2="327"/>
	
		<line id="XMLID_28_" fill="none" stroke="#000000" stroke-width="7" stroke-linecap="round" stroke-linejoin="round" stroke-miterlimit="10" x1="520.5" y1="375.5" x2="586" y2="376.5"/>
	
		<line id="XMLID_29_" fill="none" stroke="#000000" stroke-width="7" stroke-linecap="round" stroke-linejoin="round" stroke-miterlimit="10" x1="587" y1="386" x2="519" y2="385"/>
	
		<line id="XMLID_30_" fill="none" stroke="#000000" stroke-width="7" stroke-linecap="round" stroke-linejoin="round" stroke-miterlimit="10" x1="518" y1="339.5" x2="589.5" y2="340"/>
	
		<line id="XMLID_31_" fill="none" stroke="#000000" stroke-width="7" stroke-linecap="round" stroke-linejoin="round" stroke-miterlimit="10" x1="553" y1="341" x2="553.5" y2="373"/>
	
		<line id="XMLID_32_" fill="none" stroke="#000000" stroke-width="7" stroke-linecap="round" stroke-linejoin="round" stroke-miterlimit="10" x1="554.5" y1="386.5" x2="556" y2="423"/>
	
		<polygon id="XMLID_41_" fill="none" stroke="#000000" stroke-width="14" stroke-linecap="round" stroke-linejoin="round" stroke-miterlimit="10" points="
		422,426.5 325,425.5 327.5,444 420.5,445 	"/>
	
		<path id="XMLID_40_" fill="none" stroke="#000000" stroke-width="14" stroke-linecap="round" stroke-linejoin="round" stroke-miterlimit="10" d="
		M408,424.5c0,0,0.5-59.5,0.5-93s-15.5-48.3-36-48c-31,0.5-37.5,27-38,49S337,424,337,424"/>
	
		<line id="XMLID_39_" fill="none" stroke="#000000" stroke-width="14" stroke-linecap="round" stroke-linejoin="round" stroke-miterlimit="10" x1="407.5" y1="324.5" x2="337.5" y2="326.5"/>
	
		<polyline id="XMLID_38_" fill="none" stroke="#000000" stroke-width="7" stroke-linecap="round" stroke-linejoin="round" stroke-miterlimit="10" points="
		395.3,297.3 372.5,326 346.3,298.7 	"/>
	
		<line id="XMLID_37_" fill="none" stroke="#000000" stroke-width="7" stroke-linecap="round" stroke-linejoin="round" stroke-miterlimit="10" x1="370.5" y1="287" x2="372.5" y2="327"/>
	
		<line id="XMLID_36_" fill="none" stroke="#000000" stroke-width="7" stroke-linecap="round" stroke-linejoin="round" stroke-miterlimit="10" x1="340.5" y1="377.5" x2="406" y2="376.5"/>
	
		<line id="XMLID_35_" fill="none" stroke="#000000" stroke-width="7" stroke-linecap="round" stroke-linejoin="round" stroke-miterlimit="10" x1="407" y1="386" x2="339" y2="385"/>
	
		<line id="XMLID_34_" fill="none" stroke="#000000" stroke-width="7" stroke-linecap="round" stroke-linejoin="round" stroke-miterlimit="10" x1="338" y1="339.5" x2="409.5" y2="340"/>
	
		<line id="XMLID_33_" fill="none" stroke="#000000" stroke-width="7" stroke-linecap="round" stroke-linejoin="round" stroke-miterlimit="10" x1="373" y1="341" x2="372.5" y2="373"/>
	
		<line id="XMLID_26_" fill="none" stroke="#000000" stroke-width="7" stroke-linecap="round" stroke-linejoin="round" stroke-miterlimit="10" x1="371.5" y1="386.5" x2="373" y2="423"/>
	
		<line id="XMLID_43_" fill="none" stroke="#000000" stroke-width="14" stroke-linecap="round" stroke-linejoin="round" stroke-miterlimit="10" x1="667.3" y1="837.7" x2="245.7" y2="837.7"/>
	
		<polygon id="XMLID_42_" fill="none" stroke="#000000" stroke-width="14" stroke-linecap="round" stroke-linejoin="round" stroke-miterlimit="10" points="
		379.7,770.3 591,771 594.3,796.3 373,797 	"/>
	
		<line id="XMLID_45_" fill="none" stroke="#000000" stroke-width="14" stroke-linecap="round" stroke-linejoin="round" stroke-miterlimit="10" x1="573" y1="802.3" x2="572.3" y2="833"/>
	
		<line id="XMLID_46_" fill="none" stroke="#000000" stroke-width="14" stroke-linecap="round" stroke-linejoin="round" stroke-miterlimit="10" x1="547.7" y1="836.3" x2="546.3" y2="799.7"/>
	
		<line id="XMLID_47_" fill="none" stroke="#000000" stroke-width="14" stroke-linecap="round" stroke-linejoin="round" stroke-miterlimit="10" x1="425.3" y1="802.3" x2="424.7" y2="834.3"/>
	
		<line id="XMLID_48_" fill="none" stroke="#000000" stroke-width="14" stroke-linecap="round" stroke-linejoin="round" stroke-miterlimit="10" x1="398" y1="830.3" x2="398.3" y2="799"/>
	
		<polygon id="XMLID_44_" fill="none" stroke="#000000" stroke-width="7" stroke-linecap="round" stroke-linejoin="round" stroke-miterlimit="10" points="
		461,778.5 460,789 501.5,789.5 501.5,777 	"/>
	
		<path id="XMLID_49_" fill="none" stroke="#000000" stroke-width="7" stroke-linecap="round" stroke-linejoin="round" stroke-miterlimit="10" d="
		M566.5,777c9.1-1.1,11,13,0.5,13.5S558.5,778,566.5,777z"/>
	
		<path id="XMLID_50_" fill="none" stroke="#000000" stroke-width="7" stroke-linecap="round" stroke-linejoin="round" stroke-miterlimit="10" d="
		M397.5,776c7.1-0.4,8,12,1.5,13.5S389,776.5,397.5,776z"/>
	
		<polyline id="XMLID_52_" fill="none" stroke="#000000" stroke-width="14" stroke-linecap="round" stroke-linejoin="round" stroke-miterlimit="10" points="
		577.5,764 573.5,624.5 389.5,626 387,761 	"/>
	
		<path id="XMLID_53_" fill="none" stroke="#000000" stroke-width="14" stroke-linecap="round" stroke-linejoin="round" stroke-miterlimit="10" d="
		M394,649c0,0,71-1,74.5,1s7.5,44.5,3,49s-79,5-79,5"/>
	
		<path id="XMLID_51_" fill="none" stroke="#000000" stroke-width="14" stroke-linecap="round" stroke-linejoin="round" stroke-miterlimit="10" d="
		M571,649c0,0-71-1-74.5,1s-7.5,44.5-3,49s79,5,79,5"/>
	
		<line id="XMLID_55_" fill="none" stroke="#000000" stroke-width="7" stroke-linecap="round" stroke-linejoin="round" stroke-miterlimit="10" x1="392.7" y1="716.7" x2="571.3" y2="717.7"/>
	
		<path id="XMLID_56_" fill="none" stroke="#000000" stroke-width="7" stroke-linecap="round" stroke-linejoin="round" stroke-miterlimit="10" d="
		M443.3,767.8c0,0-4.3-33.3,1.5-37.5s62-5.5,68-2s2.3,41,2.3,41"/>
	
		<path id="XMLID_54_" fill="none" stroke="#000000" stroke-width="7" stroke-linecap="round" stroke-linejoin="round" stroke-miterlimit="10" d="
		M543.3,734.3c16.7,0.6,10.7,17.7,1,18.3C534.7,753.3,533.3,734,543.3,734.3z"/>
	
		<path id="XMLID_57_" fill="none" stroke="#000000" stroke-width="7" stroke-linecap="round" stroke-linejoin="round" stroke-miterlimit="10" d="
		M413,732c12.7,0,13,18.3,2.7,19C405.3,751.7,402.3,732,413,732z"/>
	
		<line id="XMLID_59_" fill="none" stroke="#000000" stroke-width="7" stroke-linecap="round" stroke-linejoin="round" stroke-miterlimit="10" x1="454.3" y1="729.3" x2="454.7" y2="766.7"/>
	
		<line id="XMLID_60_" fill="none" stroke="#000000" stroke-width="7" stroke-linecap="round" stroke-linejoin="round" stroke-miterlimit="10" x1="469.7" y1="729.3" x2="471.3" y2="767.7"/>
	
		<line id="XMLID_61_" fill="none" stroke="#000000" stroke-width="7" stroke-linecap="round" stroke-linejoin="round" stroke-miterlimit="10" x1="485" y1="728" x2="484.7" y2="767"/>
	
		<line id="XMLID_62_" fill="none" stroke="#000000" stroke-width="7" stroke-linecap="round" stroke-linejoin="round" stroke-miterlimit="10" x1="501.7" y1="728.7" x2="503" y2="767.7"/>
	
		<path id="XMLID_58_" fill="none" stroke="#000000" stroke-width="7" stroke-linecap="round" stroke-linejoin="round" stroke-miterlimit="10" d="
		M399.3,623.3c0-7.7,1-11.7,6.3-11.7s6.7,11.3,6.7,11.3"/>
	
		<path id="XMLID_63_" fill="none" stroke="#000000" stroke-width="7" stroke-linecap="round" stroke-linejoin="round" stroke-miterlimit="10" d="
		M561.3,621.3c0-3.3,4.3-11.7-0.3-11.7s-8,9.3-8,9.3"/>
	
		<polygon id="XMLID_64_" fill="none" stroke="#000000" stroke-width="7" stroke-linecap="round" stroke-linejoin="round" stroke-miterlimit="10" points="
		444.3,607.7 444.3,621.7 460,621 459.7,608 	"/>
	
		<line id="XMLID_66_" fill="none" stroke="#000000" stroke-width="7" stroke-linecap="round" stroke-linejoin="round" stroke-miterlimit="10" x1="463.7" y1="613.7" x2="506.7" y2="612.7"/>
	
		<polyline id="XMLID_67_" fill="none" stroke="#000000" stroke-width="7" stroke-linecap="round" stroke-linejoin="round" stroke-miterlimit="10" points="
		508,619.3 507.3,606.7 521.7,606 522.7,621 	"/>
</g>
<g id="vs-h-reveal">
	
		<polyline id="XMLID_96_" fill="none" stroke="#5DBFD9" stroke-width="16" stroke-linecap="round" stroke-linejoin="round" stroke-miterlimit="10" stroke-opacity="0" points="
		271,546.3 250,548.3 251.7,835.7 	"/>
	
		<path id="XMLID_95_" fill="none" stroke="#5DBFD9" stroke-width="16" stroke-linecap="round" stroke-linejoin="round" stroke-miterlimit="10" stroke-opacity="0" d="
		M278.3,545l110.7-1.3c0,0,1.3,9.3,11.3,21.3"/>
	
		<line id="XMLID_94_" fill="none" stroke="#5DBFD9" stroke-width="16" stroke-linecap="round" stroke-linejoin="round" stroke-miterlimit="10" stroke-opacity="0" x1="526.3" y1="539.7" x2="663.7" y2="539"/>
	
		<line id="XMLID_93_" fill="none" stroke="#5DBFD9" stroke-width="16" stroke-linecap="round" stroke-linejoin="round" stroke-miterlimit="10" stroke-opacity="0" x1="637.7" y1="545.7" x2="647.7" y2="835"/>
	
		<path id="XMLID_92_" fill="none" stroke="#5DBFD9" stroke-width="16" stroke-linecap="round" stroke-linejoin="round" stroke-miterlimit="10" stroke-opacity="0" d="
		M393,484.3c0,0,5.3,70.7,26,85.3c20.7,14.7,40,12.7,45.3,12.7"/>
	
		<line id="XMLID_91_" fill="none" stroke="#5DBFD9" stroke-width="16" stroke-linecap="round" stroke-linejoin="round" stroke-miterlimit="10" stroke-opacity="0" x1="233.7" y1="496.3" x2="235" y2="529.7"/>
	
		<polyline id="XMLID_90_" fill="none" stroke="#5DBFD9" stroke-width="16" stroke-linecap="round" stroke-linejoin="round" stroke-miterlimit="10" stroke-opacity="0" points="
		251.7,483 247.7,273.7 623,273 	"/>
	
		<path id="XMLID_89_" fill="none" stroke="#5DBFD9" stroke-width="16" stroke-linecap="round" stroke-linejoin="round" stroke-miterlimit="10" stroke-opacity="0" d="
		M352.3,299c0,0,38-14,45.3,17.3"/>
	
		<line id="XMLID_88_" fill="none" stroke="#5DBFD9" stroke-width="16" stroke-linecap="round" stroke-linejoin="round" stroke-miterlimit="10" stroke-opacity="0" x1="397.7" y1="344.3" x2="398.3" y2="371.7"/>
	
		<line id="XMLID_87_" fill="none" stroke="#5DBFD9" stroke-width="16" stroke-linecap="round" stroke-linejoin="round" stroke-miterlimit="10" stroke-opacity="0" x1="399.3" y1="390.7" x2="400.3" y2="425"/>
	
		<polyline id="XMLID_86_" fill="none" stroke="#5DBFD9" stroke-width="16" stroke-linecap="round" stroke-linejoin="round" stroke-miterlimit="10" stroke-opacity="0" points="
		321,433 323.5,450.5 414,451.5 	"/>
	
		<polyline id="XMLID_85_" fill="none" stroke="#5DBFD9" stroke-width="16" stroke-linecap="round" stroke-linejoin="round" stroke-miterlimit="10" stroke-opacity="0" points="
		496,434 497.5,450.5 598.5,451.5 	"/>
	
		<path id="XMLID_84_" fill="none" stroke="#5DBFD9" stroke-width="16" stroke-linecap="round" stroke-linejoin="round" stroke-miterlimit="10" stroke-opacity="0" d="
		M537,299c0,0,34-10.5,41,20"/>
	
		<line id="XMLID_83_" fill="none" stroke="#5DBFD9" stroke-width="16" stroke-linecap="round" stroke-linejoin="round" stroke-miterlimit="10" stroke-opacity="0" x1="579" y1="345" x2="579.5" y2="371.5"/>
	
		<line id="XMLID_82_" fill="none" stroke="#5DBFD9" stroke-width="16" stroke-linecap="round" stroke-linejoin="round" stroke-miterlimit="10" stroke-opacity="0" x1="579" y1="391.5" x2="580" y2="419.5"/>
	
		<polyline id="XMLID_81_" fill="none" stroke="#5DBFD9" stroke-width="16" stroke-linecap="round" stroke-linejoin="round" stroke-miterlimit="10" stroke-opacity="0" points="
		661.7,275 635,275.7 635.7,479 	"/>
	
		<line id="XMLID_80_" fill="none" stroke="#5DBFD9" stroke-width="16" stroke-linecap="round" stroke-linejoin="round" stroke-miterlimit="10" stroke-opacity="0" x1="219" y1="229" x2="219.7" y2="259"/>
	
		<line id="XMLID_79_" fill="none" stroke="#5DBFD9" stroke-width="16" stroke-linecap="round" stroke-linejoin="round" stroke-miterlimit="10" stroke-opacity="0" x1="240.3" y1="171.7" x2="241" y2="216.3"/>
	
		<path id="XMLID_78_" fill="none" stroke="#5DBFD9" stroke-width="16" stroke-linecap="round" stroke-linejoin="round" stroke-miterlimit="10" stroke-opacity="0" d="
		M441.7,131c0,0-12,14.7-7.3,27.3C439,171,427,183,427,183"/>
	
		<line id="XMLID_77_" fill="none" stroke="#5DBFD9" stroke-width="16" stroke-linecap="round" stroke-linejoin="round" stroke-miterlimit="10" stroke-opacity="0" x1="404" y1="633.7" x2="397" y2="765.7"/>
	
		<line id="XMLID_76_" fill="none" stroke="#5DBFD9" stroke-width="16" stroke-linecap="round" stroke-linejoin="round" stroke-miterlimit="10" stroke-opacity="0" x1="387.7" y1="778.3" x2="387" y2="792"/>
	
		<polyline id="XMLID_75_" fill="none" stroke="#5DBFD9" stroke-width="16" stroke-linecap="round" stroke-linejoin="round" stroke-miterlimit="10" stroke-opacity="0" points="
		408,807 412.7,835.3 416.3,806.7 	"/>
	
		<polyline id="XMLID_74_" fill="none" stroke="#5DBFD9" stroke-width="16" stroke-linecap="round" stroke-linejoin="round" stroke-miterlimit="10" stroke-opacity="0" points="
		556.3,804.7 560.3,830.7 564.7,803 	"/>
	
		<path id="XMLID_73_" fill="none" stroke="#5DBFD9" stroke-width="16" stroke-linecap="round" stroke-linejoin="round" stroke-miterlimit="10" stroke-opacity="0" d="
		M401.7,656.7c0,0,59.3-2,62.3,4s2.3,38.3,2.3,38.3"/>
	
		<line id="XMLID_72_" fill="none" stroke="#5DBFD9" stroke-width="16" stroke-linecap="round" stroke-linejoin="round" stroke-miterlimit="10" stroke-opacity="0" x1="502" y1="657.3" x2="566" y2="656.7"/>
	
		<line id="XMLID_71_" fill="none" stroke="#5DBFD9" stroke-width="9" stroke-linecap="round" stroke-linejoin="round" stroke-miterlimit="10" stroke-opacity="0" x1="452.7" y1="732.3" x2="453.3" y2="766"/>
	
		<line id="XMLID_70_" fill="none" stroke="#5DBFD9" stroke-width="9" stroke-linecap="round" stroke-linejoin="round" stroke-miterlimit="10" stroke-opacity="0" x1="466.3" y1="729.3" x2="469" y2="765.7"/>
	
		<line id="XMLID_69_" fill="none" stroke="#5DBFD9" stroke-width="9" stroke-linecap="round" stroke-linejoin="round" stroke-miterlimit="10" stroke-opacity="0" x1="483" y1="729.3" x2="483.3" y2="765"/>
	
		<line id="XMLID_68_" fill="none" stroke="#5DBFD9" stroke-width="9" stroke-linecap="round" stroke-linejoin="round" stroke-miterlimit="10" stroke-opacity="0" x1="500" y1="729.7" x2="501.7" y2="765.3"/>
	
		<line id="XMLID_65_" fill="none" stroke="#5DBFD9" stroke-width="9" stroke-linecap="round" stroke-linejoin="round" stroke-miterlimit="10" stroke-opacity="0" x1="512.3" y1="731" x2="513.7" y2="765.3"/>
</g>
</svg>
