<?xml version="1.0" encoding="utf-8"?>
<!-- Generator: Adobe Illustrator 24.0.0, SVG Export Plug-In . SVG Version: 6.00 Build 0)  -->
<svg version="1.1" id="Layer_1" xmlns="http://www.w3.org/2000/svg" xmlns:xlink="http://www.w3.org/1999/xlink" x="0px" y="0px"
	 width="1000px" height="1000px" viewBox="0 0 1000 1000" enable-background="new 0 0 1000 1000" xml:space="preserve">
<g id="vs-highlight">
	<path fill="#5DBFD9" d="M456.9,168.1c33.2-2.8,98.4-3.6,171.4,27c26.9,11.3,91.1,39.2,141.8,107.4c65.9,88.4,63.9,183.8,63,210
		s-8.3,151.9-114.3,245.2c-14.4,12.7-106.6,91.2-239.7,83.2c-13.5-0.8-83.2-5.8-157.2-51.7c-22.3-13.9-86.9-54.9-127.5-137
		c-6.1-12.4-61.9-129.4-14.7-259.6c43.7-120.7,159.5-206.9,297-223.8c1.8,10.6,3.6,21.2,5.4,31.8c-21,0.9-51.9,4.4-87,16.8
		c-15,5.3-82.8,30.7-138,100.2c-15.5,19.5-54.9,70.4-65.4,148.8c-10.4,77.7,13.3,139.3,28.2,169.8c38.7,79.2,100.6,116.9,123,130.2
		c62.9,37.3,120.5,42.3,132.6,43.2c20.5,1.5,66.3,2.8,120-16.2c72.3-25.5,116-72.5,136.4-98.4c10.1-12.9,39.2-52.2,55.2-111.6
		c10-37.3,10.8-67.8,10.8-80.4c-0.1-98.2-50-168.4-57.6-178.8c-62.6-85.7-151-109.9-180.6-116.4c-45.9-10.2-85.1-7.6-110.1-4.1
		C451.9,191.7,454.4,179.9,456.9,168.1z"/>
	<path fill="#5DBFD9" d="M502.1,490.7c1,0.3,6.5,2.1,9.8,7.8c3.6,6.2,2.9,14.2-1.2,19.6c-2.9,3.7-6.5,5.1-7.8,5.5
		c-1.2,0.4-8.6,3-15.6-1.5c-6.5-4.2-7.7-11.2-7.8-12.2c-0.1-0.8-1.1-8.5,4.6-14.5C488.8,490.4,495.9,488.8,502.1,490.7z"/>
	<path fill="#5DBFD9" d="M530.7,86.7c-0.5,0-8.2,0.1-12.8,6.4c-4.3,5.9-4.5,15,1.4,21c5.8,5.8,15,6.3,21.4,1.2
		c6.7-5.4,7.5-14.8,3.5-21.2C541.5,89.7,536.3,86.7,530.7,86.7z"/>
	<path fill="#5DBFD9" d="M462.1,86.7c-0.5,0-8.2,0.1-12.8,6.4c-4.3,5.9-4.5,15,1.4,21c5.8,5.8,15,6.3,21.4,1.2
		c6.7-5.4,7.5-14.8,3.5-21.2C472.8,89.7,467.6,86.7,462.1,86.7z"/>
	<path fill="#5DBFD9" d="M392.6,94.4c-0.5,0-8.2,0.1-12.8,6.4c-4.3,5.8-4.5,15,1.4,21c5.8,5.8,15,6.3,21.4,1.2
		c6.7-5.4,7.5-14.8,3.5-21.2C403.3,97.3,398.2,94.4,392.6,94.4z"/>
	<path fill="#5DBFD9" d="M325.4,123.2c-0.5,0-8.2,0.1-12.8,6.4c-4.3,5.8-4.5,15,1.4,21c5.8,5.8,15,6.3,21.4,1.2
		c6.7-5.4,7.5-14.8,3.5-21.2C336.1,126,330.9,123.2,325.4,123.2z"/>
	<path fill="#5DBFD9" d="M598.6,99.8c-0.5,0-8.2,0.1-12.8,6.4c-4.3,5.8-4.5,15,1.4,21c5.8,5.8,15,6.3,21.4,1.2
		c6.7-5.4,7.5-14.8,3.5-21.2C609.3,102.7,604.2,99.8,598.6,99.8z"/>
	<path fill="#5DBFD9" d="M667,121.4c-0.5,0-8.2,0.1-12.8,6.4c-4.3,5.8-4.5,15,1.4,21c5.8,5.8,15,6.3,21.4,1.2
		c6.7-5.4,7.5-14.8,3.5-21.2C677.7,124.2,672.6,121.4,667,121.4z"/>
	<path fill="#5DBFD9" d="M727,157.1c-0.5,0-8.2,0.1-12.8,6.4c-4.3,5.9-4.5,15,1.4,21c5.8,5.8,15,6.3,21.4,1.2
		c6.7-5.4,7.5-14.8,3.5-21.1C737.7,160,732.6,157.1,727,157.1z"/>
	<path fill="#5DBFD9" d="M783,201.4c-0.5,0-8.2,0.1-12.8,6.4c-4.3,5.9-4.5,15,1.4,21c5.8,5.8,15,6.3,21.4,1.2
		c6.7-5.4,7.5-14.8,3.5-21.2C793.7,204.3,788.5,201.4,783,201.4z"/>
	<path fill="#5DBFD9" d="M825.4,252.8c-0.5,0-8.2,0.1-12.8,6.4c-4.3,5.9-4.5,15,1.4,21c5.8,5.8,15,6.3,21.4,1.2
		c6.7-5.4,7.5-14.8,3.5-21.1C836.1,255.7,830.9,252.8,825.4,252.8z"/>
	<path fill="#5DBFD9" d="M863.2,314.7c-0.5,0-8.2,0.1-12.8,6.4c-4.3,5.8-4.5,15,1.4,21c5.8,5.8,15,6.3,21.4,1.2
		c6.7-5.4,7.5-14.8,3.5-21.1C873.9,317.6,868.7,314.7,863.2,314.7z"/>
	<path fill="#5DBFD9" d="M889.2,383.3c-0.5,0-8.2,0.1-12.8,6.4c-4.3,5.9-4.5,15,1.4,21c5.8,5.8,15,6.3,21.4,1.2
		c6.7-5.4,7.5-14.8,3.5-21.1C899.9,386.1,894.8,383.3,889.2,383.3z"/>
	<path fill="#5DBFD9" d="M902,451.7c-0.5,0-8.2,0.1-12.8,6.4c-4.3,5.9-4.5,15,1.4,21c5.8,5.8,15,6.3,21.4,1.2
		c6.7-5.4,7.5-14.8,3.5-21.1C912.7,454.6,907.6,451.7,902,451.7z"/>
	<path fill="#5DBFD9" d="M902,520.3c-0.5,0-8.2,0.1-12.8,6.4c-4.3,5.8-4.5,15,1.4,21c5.8,5.8,15,6.3,21.4,1.2
		c6.7-5.4,7.5-14.8,3.5-21.1C912.7,523.2,907.6,520.3,902,520.3z"/>
	<path fill="#5DBFD9" d="M889.2,595.1c-0.5,0-8.2,0.1-12.8,6.4c-4.3,5.8-4.5,15,1.4,21c5.8,5.8,15,6.3,21.4,1.2
		c6.7-5.4,7.5-14.8,3.5-21.1C899.9,598,894.8,595.1,889.2,595.1z"/>
	<path fill="#5DBFD9" d="M859.8,662.7c-0.5,0-8.2,0.1-12.8,6.4c-4.3,5.8-4.5,15,1.4,21c5.8,5.8,15,6.3,21.4,1.2
		c6.7-5.4,7.5-14.8,3.5-21.1C870.5,665.7,865.3,662.7,859.8,662.7z"/>
	<path fill="#5DBFD9" d="M822.1,722.3c-0.5,0-8.2,0.1-12.8,6.4c-4.3,5.8-4.5,15,1.4,21c5.8,5.8,15,6.3,21.4,1.2
		c6.7-5.4,7.5-14.8,3.5-21.1C832.8,725.2,827.7,722.3,822.1,722.3z"/>
	<path fill="#5DBFD9" d="M777.9,772.7c-0.5,0-8.2,0.1-12.8,6.4c-4.3,5.8-4.5,15,1.4,21c5.8,5.8,15,6.3,21.4,1.2
		c6.7-5.4,7.5-14.8,3.5-21.2C788.6,775.6,783.4,772.7,777.9,772.7z"/>
	<path fill="#5DBFD9" d="M720.1,819.7c-0.5,0-8.2,0.1-12.8,6.4c-4.3,5.8-4.5,15,1.4,21c5.8,5.8,15,6.3,21.4,1.2
		c6.7-5.4,7.5-14.8,3.5-21.1C730.8,822.5,725.6,819.7,720.1,819.7z"/>
	<path fill="#5DBFD9" d="M659.2,860.5c-0.5,0-8.2,0.1-12.8,6.4c-4.3,5.8-4.5,15,1.4,21c5.8,5.8,15,6.3,21.4,1.2
		c6.7-5.4,7.5-14.8,3.5-21.1C669.9,863.4,664.7,860.5,659.2,860.5z"/>
	<path fill="#5DBFD9" d="M601.8,879.5c-0.5,0-8.2,0.1-12.8,6.4c-4.3,5.9-4.5,15,1.4,21c5.8,5.8,15,6.3,21.4,1.2
		c6.7-5.4,7.5-14.8,3.5-21.2C612.5,882.4,607.3,879.5,601.8,879.5z"/>
	<path fill="#5DBFD9" d="M533.7,889.1c-0.5,0-8.2,0.1-12.8,6.4c-4.3,5.9-4.5,15,1.4,21c5.8,5.8,15,6.3,21.4,1.2
		c6.7-5.4,7.5-14.8,3.5-21.2C544.4,891.9,539.2,889.1,533.7,889.1z"/>
	<path fill="#5DBFD9" d="M460.3,889.2c-0.5,0-8.2,0.1-12.8,6.4c-4.3,5.8-4.5,15,1.4,21c5.8,5.8,15,6.3,21.4,1.2
		c6.7-5.4,7.5-14.8,3.5-21.1C471,892.1,465.9,889.2,460.3,889.2z"/>
	<path fill="#5DBFD9" d="M393,876.5c-0.5,0-8.2,0.1-12.8,6.4c-4.3,5.9-4.5,15,1.4,21c5.8,5.8,15,6.3,21.4,1.2
		c6.7-5.4,7.5-14.8,3.5-21.2C403.8,879.5,398.5,876.5,393,876.5z"/>
	<path fill="#5DBFD9" d="M325.6,857.1c-0.5,0-8.2,0.1-12.8,6.4c-4.3,5.8-4.5,15,1.4,21c5.8,5.8,15,6.3,21.4,1.2
		c6.7-5.4,7.5-14.8,3.5-21.2C336.3,860.1,331.2,857.2,325.6,857.1z"/>
	<path fill="#5DBFD9" d="M263.2,814.7c-0.5,0-8.2,0.1-12.8,6.4c-4.3,5.9-4.5,15,1.4,21c5.8,5.8,15,6.3,21.4,1.2
		c6.7-5.4,7.5-14.8,3.5-21.2C273.9,817.6,268.7,814.7,263.2,814.7z"/>
	<path fill="#5DBFD9" d="M209.7,772.7c-0.5,0-8.2,0.1-12.8,6.4c-4.3,5.8-4.5,15,1.4,21c5.8,5.8,15,6.3,21.4,1.2
		c6.7-5.4,7.5-14.8,3.5-21.2C220.4,775.6,215.3,772.7,209.7,772.7z"/>
	<path fill="#5DBFD9" d="M164.3,719c-0.5,0-8.2,0.1-12.8,6.4c-4.3,5.8-4.5,15,1.4,21c5.8,5.8,15,6.3,21.4,1.2
		c6.7-5.4,7.5-14.8,3.5-21.1C175,721.8,169.8,719,164.3,719z"/>
	<path fill="#5DBFD9" d="M128.9,659c-0.5,0-8.2,0.1-12.8,6.4c-4.3,5.9-4.5,15,1.4,21c5.8,5.8,15,6.3,21.4,1.2
		c6.7-5.4,7.5-14.8,3.5-21.2C139.6,661.9,134.5,659,128.9,659z"/>
	<path fill="#5DBFD9" d="M104,592.1c-0.5,0-8.2,0.1-12.8,6.4c-4.3,5.9-4.5,15,1.4,21c5.8,5.8,15,6.3,21.4,1.2
		c6.7-5.4,7.5-14.8,3.5-21.2C114.7,594.9,109.5,592.1,104,592.1z"/>
	<path fill="#5DBFD9" d="M91,519.2c-0.5,0-8.2,0.1-12.8,6.4c-4.3,5.8-4.5,15,1.4,21c5.8,5.8,15,6.3,21.4,1.2
		c6.7-5.4,7.5-14.8,3.5-21.1C101.7,522.1,96.6,519.2,91,519.2z"/>
	<path fill="#5DBFD9" d="M91,449.1c-0.5,0-8.2,0.1-12.8,6.4c-4.3,5.8-4.5,15,1.4,21c5.8,5.8,15,6.3,21.4,1.2
		c6.7-5.4,7.5-14.8,3.5-21.1C101.7,452.1,96.6,449.1,91,449.1z"/>
	<path fill="#5DBFD9" d="M106.9,378.8c-0.5,0-8.2,0.1-12.8,6.4c-4.3,5.9-4.5,15,1.4,21c5.8,5.8,15,6.3,21.4,1.2
		c6.7-5.4,7.5-14.8,3.5-21.1C117.6,381.6,112.5,378.8,106.9,378.8z"/>
	<path fill="#5DBFD9" d="M131.2,313.7c-0.5,0-8.2,0.1-12.8,6.4c-4.3,5.9-4.5,15,1.4,21c5.8,5.8,15,6.3,21.4,1.2
		c6.7-5.4,7.5-14.8,3.5-21.1C141.9,316.6,136.8,313.7,131.2,313.7z"/>
	<path fill="#5DBFD9" d="M165.4,255.4c-0.5,0-8.2,0.1-12.8,6.4c-4.3,5.9-4.5,15,1.4,21c5.8,5.8,15,6.3,21.4,1.2
		c6.7-5.4,7.5-14.8,3.5-21.1C176.1,258.2,171,255.4,165.4,255.4z"/>
	<path fill="#5DBFD9" d="M214.8,201.4c-0.5,0-8.2,0.1-12.8,6.4c-4.3,5.9-4.5,15,1.4,21c5.8,5.8,15,6.3,21.4,1.2
		c6.7-5.4,7.5-14.8,3.5-21.2C225.5,204.3,220.3,201.4,214.8,201.4z"/>
	<path fill="#5DBFD9" d="M265.1,157.1c-0.5,0-8.2,0.1-12.8,6.4c-4.3,5.9-4.5,15,1.4,21c5.8,5.8,15,6.3,21.4,1.2
		c6.7-5.4,7.5-14.8,3.5-21.1C275.8,160,270.6,157.1,265.1,157.1z"/>
</g>
<g id="vs-outline">
	<circle fill="none" stroke="#000000" stroke-width="10.8" stroke-miterlimit="10" cx="496.8" cy="504.8" r="336.4"/>
	<circle fill="none" stroke="#000000" stroke-width="16.2" stroke-miterlimit="10" cx="497.3" cy="504.8" r="376"/>
	<circle fill="none" stroke="#000000" stroke-width="3.3229" stroke-miterlimit="10" cx="496.8" cy="507.4" r="14.4"/>
	<ellipse fill="none" stroke="#000000" stroke-width="3.24" stroke-miterlimit="10" cx="496.8" cy="507.4" rx="9.3" ry="9.3"/>
	
		<path fill="none" stroke="#000000" stroke-width="10.8" stroke-linecap="round" stroke-linejoin="round" stroke-miterlimit="10" d="
		M160.5,502.2c-17.8,10.4-35.5,20.8-53.4,31.2c19.3,8.5,38.5,17.2,57.8,25.7c-15,14.4-30.1,28.8-45.2,43.2
		c20.2,5.5,40.4,11.1,60.7,16.6c-12.2,15.7-24.4,31.3-36.6,47.1c20.2,1.6,40.3,3.1,60.5,4.8c-8.7,17.8-17.5,35.6-26.3,53.5
		c19-1.2,38-2.4,57-3.6c-4.6,18.4-9.2,36.8-13.8,55.2c18-4.6,36-9.2,54-13.8c-1.2,18.8-2.4,37.6-3.6,56.4
		c17.2-7.2,34.4-14.4,51.6-21.6c2.8,20.4,5.6,40.8,8.4,61.2c14.8-12,29.6-24,44.4-36c6.4,19.2,12.8,38.4,19.2,57.6
		c14.7-14.5,29.2-28.9,43.9-43.4c7.9,17.6,15.9,35.4,23.9,53c10.4-16,20.8-32,31.2-48.1c11.6,16,23.2,32,34.8,48.1
		c7.3-17.5,14.6-34.9,21.9-52.4c15.7,12.1,31.4,24.1,47.1,36.2c3.2-16.8,6.5-33.7,9.7-50.5c13.9,8.7,27.9,17.5,41.9,26.2
		c3-16.3,6-32.6,9-48.9c17.5,7.6,35.2,15.2,52.7,22.8c-0.9-17.8-1.8-35.6-2.7-53.5c17.9,2,35.8,4,53.7,6
		c-3.2-17.3-6.5-34.6-9.8-51.8c17.6,2.2,35.3,4.6,53,6.8c-5.4-19.7-10.8-39.5-16.2-59.2c17-0.1,33.9-0.1,50.9-0.2
		c-8.1-15.3-16.3-30.7-24.4-46c17.7-5.2,35.5-10.5,53.2-15.8c-12.7-14.8-25.4-29.8-38.2-44.6c15.9-10.3,31.9-20.6,47.7-31
		c-15.2-8.6-30.3-17.2-45.5-25.8c16.4-11.6,32.8-23.2,49.1-34.7c-16.8-8.4-33.6-16.8-50.4-25.2c12.8-13.8,25.6-27.6,38.4-41.4
		c-17.8-5.4-35.6-10.8-53.4-16.2c11.2-16.2,22.4-32.4,33.6-48.5c-20.4-1-40.8-2-61.2-3c7.8-19.8,15.6-39.7,23.4-59.5
		c-19.3,3.2-38.6,6.6-58,9.8c4.5-20.1,9-40.1,13.6-60.2c-18.4,6.1-36.9,12.2-55.4,18.4c1.4-19.7,3-39.4,4.4-59.1
		c-17.6,8.5-35.2,16.9-52.7,25.4c-1-20.2-2.1-40.5-3.1-60.8c-16.5,12.1-33,24.1-49.5,36.3c-5.3-18.9-10.6-37.8-15.9-56.6
		c-12.6,13-25.2,26-37.8,39c-9.2-17.2-18.4-34.4-27.6-51.6c-10.4,16.4-20.8,32.7-31.2,49.1c-11.3-16.8-22.9-33.4-34.6-50
		c-7.6,18-15.1,36-22.7,54.1c-14.2-14.9-28.4-29.6-42.8-44.5c-5.1,18.9-10.3,37.8-15.4,56.7c-16.4-11-32.8-22-49.1-32.9
		c-1.4,20.1-3,40.1-4.4,60.2c-18.2-9-36.5-18-54.6-27.1c0.6,18.4,1.2,36.8,1.8,55.2c-17.5-4.4-35-8.8-52.5-13.2
		c3.7,18.6,7.4,37.3,11.1,55.9c-19.6-1.6-39.2-3.2-58.8-4.8c8.2,18.6,16.4,37.2,24.6,55.8c-18.8,1.6-37.6,3.2-56.4,4.8
		c11,16.3,22,32.6,32.9,48.9c-19.6,4.3-39.2,8.6-58.8,13c14.6,14.2,29.2,28.4,43.8,42.6c-18.6,7.6-37.2,15.2-55.8,22.8
		C125.3,478.2,142.8,490.3,160.5,502.2z"/>
	
		<circle fill="none" stroke="#000000" stroke-width="10.8" stroke-linecap="round" stroke-linejoin="round" stroke-miterlimit="10" cx="163.4" cy="271.4" r="16"/>
	
		<circle fill="none" stroke="#000000" stroke-width="10.8" stroke-linecap="round" stroke-linejoin="round" stroke-miterlimit="10" cx="212.6" cy="217.5" r="16"/>
	
		<circle fill="none" stroke="#000000" stroke-width="10.8" stroke-linecap="round" stroke-linejoin="round" stroke-miterlimit="10" cx="265.1" cy="173.1" r="16"/>
	
		<circle fill="none" stroke="#000000" stroke-width="10.8" stroke-linecap="round" stroke-linejoin="round" stroke-miterlimit="10" cx="325.4" cy="139.2" r="16"/>
	
		<circle fill="none" stroke="#000000" stroke-width="10.8" stroke-linecap="round" stroke-linejoin="round" stroke-miterlimit="10" cx="392.6" cy="112.7" r="16"/>
	
		<circle fill="none" stroke="#000000" stroke-width="10.8" stroke-linecap="round" stroke-linejoin="round" stroke-miterlimit="10" cx="462.1" cy="102.8" r="16"/>
	
		<circle fill="none" stroke="#000000" stroke-width="10.8" stroke-linecap="round" stroke-linejoin="round" stroke-miterlimit="10" cx="530.7" cy="102.8" r="16"/>
	
		<circle fill="none" stroke="#000000" stroke-width="10.8" stroke-linecap="round" stroke-linejoin="round" stroke-miterlimit="10" cx="598.6" cy="115.9" r="16"/>
	
		<circle fill="none" stroke="#000000" stroke-width="10.8" stroke-linecap="round" stroke-linejoin="round" stroke-miterlimit="10" cx="667" cy="137.4" r="16"/>
	
		<circle fill="none" stroke="#000000" stroke-width="10.8" stroke-linecap="round" stroke-linejoin="round" stroke-miterlimit="10" cx="727" cy="173.1" r="16"/>
	
		<circle fill="none" stroke="#000000" stroke-width="10.8" stroke-linecap="round" stroke-linejoin="round" stroke-miterlimit="10" cx="783" cy="217.5" r="16"/>
	
		<circle fill="none" stroke="#000000" stroke-width="10.8" stroke-linecap="round" stroke-linejoin="round" stroke-miterlimit="10" cx="825.4" cy="268.9" r="16"/>
	
		<circle fill="none" stroke="#000000" stroke-width="10.8" stroke-linecap="round" stroke-linejoin="round" stroke-miterlimit="10" cx="863.2" cy="332.4" r="16"/>
	
		<circle fill="none" stroke="#000000" stroke-width="10.8" stroke-linecap="round" stroke-linejoin="round" stroke-miterlimit="10" cx="886" cy="400.4" r="16"/>
	
		<circle fill="none" stroke="#000000" stroke-width="10.8" stroke-linecap="round" stroke-linejoin="round" stroke-miterlimit="10" cx="899.1" cy="468.3" r="16"/>
	
		<circle fill="none" stroke="#000000" stroke-width="10.8" stroke-linecap="round" stroke-linejoin="round" stroke-miterlimit="10" cx="899.1" cy="536.3" r="16"/>
	
		<circle fill="none" stroke="#000000" stroke-width="10.8" stroke-linecap="round" stroke-linejoin="round" stroke-miterlimit="10" cx="886" cy="612.8" r="16"/>
	
		<circle fill="none" stroke="#000000" stroke-width="10.8" stroke-linecap="round" stroke-linejoin="round" stroke-miterlimit="10" cx="859.8" cy="678.8" r="16"/>
	
		<circle fill="none" stroke="#000000" stroke-width="10.8" stroke-linecap="round" stroke-linejoin="round" stroke-miterlimit="10" cx="822.1" cy="738.3" r="16"/>
	
		<circle fill="none" stroke="#000000" stroke-width="10.8" stroke-linecap="round" stroke-linejoin="round" stroke-miterlimit="10" cx="777.9" cy="788.7" r="16"/>
	
		<circle fill="none" stroke="#000000" stroke-width="10.8" stroke-linecap="round" stroke-linejoin="round" stroke-miterlimit="10" cx="720.1" cy="835.7" r="16"/>
	
		<circle fill="none" stroke="#000000" stroke-width="10.8" stroke-linecap="round" stroke-linejoin="round" stroke-miterlimit="10" cx="659.2" cy="873.2" r="16"/>
	
		<circle fill="none" stroke="#000000" stroke-width="10.8" stroke-linecap="round" stroke-linejoin="round" stroke-miterlimit="10" cx="601.8" cy="892.7" r="16"/>
	
		<circle fill="none" stroke="#000000" stroke-width="10.8" stroke-linecap="round" stroke-linejoin="round" stroke-miterlimit="10" cx="533.7" cy="905.3" r="16"/>
	
		<circle fill="none" stroke="#000000" stroke-width="10.8" stroke-linecap="round" stroke-linejoin="round" stroke-miterlimit="10" cx="460.3" cy="905.3" r="16"/>
	
		<circle fill="none" stroke="#000000" stroke-width="10.8" stroke-linecap="round" stroke-linejoin="round" stroke-miterlimit="10" cx="393" cy="893.6" r="16"/>
	
		<circle fill="none" stroke="#000000" stroke-width="10.8" stroke-linecap="round" stroke-linejoin="round" stroke-miterlimit="10" cx="325.6" cy="873.2" r="16"/>
	
		<circle fill="none" stroke="#000000" stroke-width="10.8" stroke-linecap="round" stroke-linejoin="round" stroke-miterlimit="10" cx="263.2" cy="832.9" r="16"/>
	
		<circle fill="none" stroke="#000000" stroke-width="10.8" stroke-linecap="round" stroke-linejoin="round" stroke-miterlimit="10" cx="209.7" cy="788.7" r="16"/>
	
		<circle fill="none" stroke="#000000" stroke-width="10.8" stroke-linecap="round" stroke-linejoin="round" stroke-miterlimit="10" cx="164.3" cy="735" r="16"/>
	
		<circle fill="none" stroke="#000000" stroke-width="10.8" stroke-linecap="round" stroke-linejoin="round" stroke-miterlimit="10" cx="128.9" cy="675" r="16"/>
	
		<circle fill="none" stroke="#000000" stroke-width="10.8" stroke-linecap="round" stroke-linejoin="round" stroke-miterlimit="10" cx="104" cy="608.7" r="16"/>
	
		<circle fill="none" stroke="#000000" stroke-width="10.8" stroke-linecap="round" stroke-linejoin="round" stroke-miterlimit="10" cx="91" cy="535.6" r="16"/>
	
		<circle fill="none" stroke="#000000" stroke-width="10.8" stroke-linecap="round" stroke-linejoin="round" stroke-miterlimit="10" cx="91" cy="465.2" r="16"/>
	
		<circle fill="none" stroke="#000000" stroke-width="10.8" stroke-linecap="round" stroke-linejoin="round" stroke-miterlimit="10" cx="107.1" cy="394.8" r="16"/>
	
		<circle fill="none" stroke="#000000" stroke-width="10.8" stroke-linecap="round" stroke-linejoin="round" stroke-miterlimit="10" cx="131.2" cy="329.7" r="16"/>
	<path fill="none" stroke="#000000" stroke-width="8.1" stroke-linecap="round" stroke-linejoin="round" stroke-miterlimit="10" d="
		M303,273.5c51.8,62.7,166.7,202.2,182.2,221"/>
	<path fill="none" stroke="#000000" stroke-width="8.1" stroke-linecap="round" stroke-linejoin="round" stroke-miterlimit="10" d="
		M346.1,243.7c39.5,70.1,129.2,227.5,141,248.5"/>
	<path fill="none" stroke="#000000" stroke-width="8.1" stroke-linecap="round" stroke-linejoin="round" stroke-miterlimit="10" d="
		M394,221.6c26.6,75.8,87.9,246.4,95.9,269.1"/>
	<path fill="none" stroke="#000000" stroke-width="8.1" stroke-linecap="round" stroke-linejoin="round" stroke-miterlimit="10" d="
		M445.5,212.4c13.3,78.8,43.9,254.6,47.9,278.3"/>
	<path fill="none" stroke="#000000" stroke-width="8.1" stroke-linecap="round" stroke-linejoin="round" stroke-miterlimit="10" d="
		M497.6,204.2c-0.8,81.4-1.1,261.8-1.3,286.2"/>
	<path fill="none" stroke="#000000" stroke-width="8.1" stroke-linecap="round" stroke-linejoin="round" stroke-miterlimit="10" d="
		M550.4,206.6c-15.3,79.8-46.7,259.2-51.3,283.2"/>
	<path fill="none" stroke="#000000" stroke-width="8.1" stroke-linecap="round" stroke-linejoin="round" stroke-miterlimit="10" d="
		M598.5,222.3c-28.2,76.3-88.1,246.2-96.6,269.1"/>
	<path fill="none" stroke="#000000" stroke-width="8.1" stroke-linecap="round" stroke-linejoin="round" stroke-miterlimit="10" d="
		M643.4,246.9c-40.2,69.5-126.8,224.8-138.8,245.6"/>
	<path fill="none" stroke="#000000" stroke-width="8.1" stroke-linecap="round" stroke-linejoin="round" stroke-miterlimit="10" d="
		M688.9,274.6C636.5,336.8,523,475.7,507.2,494.4"/>
	<path fill="none" stroke="#000000" stroke-width="8.1" stroke-linecap="round" stroke-linejoin="round" stroke-miterlimit="10" d="
		M726.4,312.2c-62.6,51.9-198.3,168.6-217.1,184.2"/>
	<path fill="none" stroke="#000000" stroke-width="8.1" stroke-linecap="round" stroke-linejoin="round" stroke-miterlimit="10" d="
		M756.2,354.6c-70.5,40.7-223.9,132.2-245,144.4"/>
	<path fill="none" stroke="#000000" stroke-width="8.1" stroke-linecap="round" stroke-linejoin="round" stroke-miterlimit="10" d="
		M776.2,402.9c-74.9,27.1-240.6,90.2-263,98.4"/>
	<path fill="none" stroke="#000000" stroke-width="8.1" stroke-linecap="round" stroke-linejoin="round" stroke-miterlimit="10" d="
		M789.7,453.4c-77.9,13.6-251.9,46.8-275.2,50.9"/>
	<path fill="none" stroke="#000000" stroke-width="8.1" stroke-linecap="round" stroke-linejoin="round" stroke-miterlimit="10" d="
		M796.7,502.9c-80.5,0.5-258.3,4.3-282.4,4.4"/>
	<path fill="none" stroke="#000000" stroke-width="8.1" stroke-linecap="round" stroke-linejoin="round" stroke-miterlimit="10" d="
		M792.2,558c-78.8-14.5-254.1-43.3-277.8-47.6"/>
	<path fill="none" stroke="#000000" stroke-width="8.1" stroke-linecap="round" stroke-linejoin="round" stroke-miterlimit="10" d="
		M778.9,608.3c-75.6-27.4-242.9-86.2-265.5-94.4"/>
	<path fill="none" stroke="#000000" stroke-width="8.1" stroke-linecap="round" stroke-linejoin="round" stroke-miterlimit="10" d="
		M757.5,654.7c-70.6-40.5-224.8-126.6-246-138.8"/>
	<path fill="none" stroke="#000000" stroke-width="8.1" stroke-linecap="round" stroke-linejoin="round" stroke-miterlimit="10" d="
		M724.4,701.6c-60.7-52.8-195.8-166.8-214-182.7"/>
	<path fill="none" stroke="#000000" stroke-width="8.1" stroke-linecap="round" stroke-linejoin="round" stroke-miterlimit="10" d="
		M682.1,742.4c-49.5-63.5-159.4-201.8-174.3-220.8"/>
	<path fill="none" stroke="#000000" stroke-width="8.1" stroke-linecap="round" stroke-linejoin="round" stroke-miterlimit="10" d="
		M642.7,768.7c-39.1-70-125.6-224.1-137.3-245.1"/>
	<path fill="none" stroke="#000000" stroke-width="8.1" stroke-linecap="round" stroke-linejoin="round" stroke-miterlimit="10" d="
		M594.6,790.4c-25.8-77.2-84-243.6-91.7-266.8"/>
	<path fill="none" stroke="#000000" stroke-width="8.1" stroke-linecap="round" stroke-linejoin="round" stroke-miterlimit="10" d="
		M543.6,803.4c-11.3-80.6-39.6-254.8-43-279"/>
	<path fill="none" stroke="#000000" stroke-width="8.1" stroke-linecap="round" stroke-linejoin="round" stroke-miterlimit="10" d="
		M492.9,807.2c0-80.5,2.7-257.3,2.7-281.5"/>
	<path fill="none" stroke="#000000" stroke-width="8.1" stroke-linecap="round" stroke-linejoin="round" stroke-miterlimit="10" d="
		M443.4,802.7c12.7-81.2,45-254.6,48.8-279"/>
	<path fill="none" stroke="#000000" stroke-width="8.1" stroke-linecap="round" stroke-linejoin="round" stroke-miterlimit="10" d="
		M387.2,787.3c29.5-75.8,94.4-240.6,103.3-263.3"/>
	<path fill="none" stroke="#000000" stroke-width="8.1" stroke-linecap="round" stroke-linejoin="round" stroke-miterlimit="10" d="
		M341.4,765c40.8-69.3,133.2-221.1,145.5-241.9"/>
	<path fill="none" stroke="#000000" stroke-width="8.1" stroke-linecap="round" stroke-linejoin="round" stroke-miterlimit="10" d="
		M299.2,731.4c52.2-60,169.6-192,185.2-210.1"/>
	<path fill="none" stroke="#000000" stroke-width="8.1" stroke-linecap="round" stroke-linejoin="round" stroke-miterlimit="10" d="
		M262.1,696.9c61.8-51.4,201.4-162.7,219.9-178.1"/>
	<path fill="none" stroke="#000000" stroke-width="8.1" stroke-linecap="round" stroke-linejoin="round" stroke-miterlimit="10" d="
		M231.9,656.6c69.6-41,227.1-128.2,248-140.5"/>
	<path fill="none" stroke="#000000" stroke-width="8.1" stroke-linecap="round" stroke-linejoin="round" stroke-miterlimit="10" d="
		M211.6,608.1c76.3-28.1,245.4-86.5,268.3-95"/>
	<path fill="none" stroke="#000000" stroke-width="8.1" stroke-linecap="round" stroke-linejoin="round" stroke-miterlimit="10" d="
		M198.1,557c80.2-13.8,257.1-42.2,281.2-46.3"/>
	<path fill="none" stroke="#000000" stroke-width="8.1" stroke-linecap="round" stroke-linejoin="round" stroke-miterlimit="10" d="
		M195.9,506.1c80.6-0.1,259,1.6,283.1,1.6"/>
	<path fill="none" stroke="#000000" stroke-width="8.1" stroke-linecap="round" stroke-linejoin="round" stroke-miterlimit="10" d="
		M196.5,450.7c80.7,14.9,258.6,49.5,282.8,53.9"/>
	<path fill="none" stroke="#000000" stroke-width="8.1" stroke-linecap="round" stroke-linejoin="round" stroke-miterlimit="10" d="
		M214.8,401.8c74.6,27.3,242.1,91,264.5,99.2"/>
	<path fill="none" stroke="#000000" stroke-width="8.1" stroke-linecap="round" stroke-linejoin="round" stroke-miterlimit="10" d="
		M236.8,355.5c68.9,39.9,223.3,131,244,143"/>
	<path fill="none" stroke="#000000" stroke-width="8.1" stroke-linecap="round" stroke-linejoin="round" stroke-miterlimit="10" d="
		M266.5,309.4c61.7,52.9,198.2,171.2,216.7,187.1"/>
	<path fill="none" stroke="#000000" stroke-width="8.1" stroke-linecap="round" stroke-linejoin="round" stroke-miterlimit="10" d="
		M504.5,526.5c6.7,35.9,62.8,281,85,400.5c-8,0-16.1,0-24.1,0C545,807.5,505.1,562.4,499,526.5"/>
	<path fill="none" stroke="#000000" stroke-width="8.1" stroke-linecap="round" stroke-linejoin="round" stroke-miterlimit="10" d="
		M492.7,527.3c-5.1,35.7-43.7,281.5-60.8,400.4c-10.2,0.2-20.4,0.4-30.6,0.6c22.7-123,80.4-367.7,87.2-404.6"/>
	
		<path fill="none" stroke="#000000" stroke-width="13.5" stroke-linecap="round" stroke-linejoin="round" stroke-miterlimit="10" d="
		M157.5,928.1c216.2,0,432.4,0,648.5,0"/>
	<circle fill="none" stroke="#000000" stroke-width="10.8" stroke-miterlimit="10" cx="495" cy="504.4" r="304"/>
	<line fill="none" stroke="#000000" stroke-width="3.3229" stroke-miterlimit="10" x1="448.7" y1="102.4" x2="475.5" y2="102.4"/>
	<line fill="none" stroke="#000000" stroke-width="3.3229" stroke-miterlimit="10" x1="516.6" y1="102.9" x2="543.4" y2="102.9"/>
	<line fill="none" stroke="#000000" stroke-width="3.3229" stroke-miterlimit="10" x1="584.9" y1="116.2" x2="611.7" y2="116.2"/>
	<line fill="none" stroke="#000000" stroke-width="3.3229" stroke-miterlimit="10" x1="652.1" y1="137.6" x2="678.9" y2="137.6"/>
	<line fill="none" stroke="#000000" stroke-width="3.3229" stroke-miterlimit="10" x1="713.7" y1="173.3" x2="740.5" y2="173.3"/>
	<line fill="none" stroke="#000000" stroke-width="3.3229" stroke-miterlimit="10" x1="768.8" y1="217.8" x2="795.7" y2="217.8"/>
	<line fill="none" stroke="#000000" stroke-width="3.3229" stroke-miterlimit="10" x1="811.6" y1="269" x2="838.5" y2="269"/>
	<line fill="none" stroke="#000000" stroke-width="3.3229" stroke-miterlimit="10" x1="849.9" y1="333" x2="876.8" y2="333"/>
	<line fill="none" stroke="#000000" stroke-width="3.3229" stroke-miterlimit="10" x1="872.1" y1="400.4" x2="898.9" y2="400.4"/>
	<line fill="none" stroke="#000000" stroke-width="3.3229" stroke-miterlimit="10" x1="885" y1="468.5" x2="911.9" y2="468.5"/>
	<line fill="none" stroke="#000000" stroke-width="3.3229" stroke-miterlimit="10" x1="885.4" y1="536.1" x2="912.2" y2="536.1"/>
	<line fill="none" stroke="#000000" stroke-width="3.3229" stroke-miterlimit="10" x1="872.3" y1="612.7" x2="899.1" y2="612.7"/>
	<line fill="none" stroke="#000000" stroke-width="3.3229" stroke-miterlimit="10" x1="846.2" y1="678.4" x2="873" y2="678.4"/>
	<line fill="none" stroke="#000000" stroke-width="3.3229" stroke-miterlimit="10" x1="808.1" y1="738.1" x2="834.9" y2="738.1"/>
	<line fill="none" stroke="#000000" stroke-width="3.3229" stroke-miterlimit="10" x1="764.5" y1="789" x2="791.4" y2="789"/>
	<line fill="none" stroke="#000000" stroke-width="3.3229" stroke-miterlimit="10" x1="705.8" y1="836.1" x2="732.6" y2="836.1"/>
	<line fill="none" stroke="#000000" stroke-width="3.3229" stroke-miterlimit="10" x1="645.9" y1="874" x2="672.7" y2="874"/>
	<line fill="none" stroke="#000000" stroke-width="3.3229" stroke-miterlimit="10" x1="587.5" y1="893.3" x2="614.4" y2="893.3"/>
	<line fill="none" stroke="#000000" stroke-width="3.3229" stroke-miterlimit="10" x1="518.4" y1="905.1" x2="545.3" y2="905.1"/>
	<line fill="none" stroke="#000000" stroke-width="3.3229" stroke-miterlimit="10" x1="447.3" y1="904.6" x2="474.1" y2="904.6"/>
	<line fill="none" stroke="#000000" stroke-width="3.3229" stroke-miterlimit="10" x1="379.3" y1="893.5" x2="406.2" y2="893.5"/>
	<line fill="none" stroke="#000000" stroke-width="3.3229" stroke-miterlimit="10" x1="312.1" y1="873.8" x2="339" y2="873.8"/>
	<line fill="none" stroke="#000000" stroke-width="3.3229" stroke-miterlimit="10" x1="249.5" y1="833.6" x2="276.3" y2="833.6"/>
	<line fill="none" stroke="#000000" stroke-width="3.3229" stroke-miterlimit="10" x1="195.4" y1="789.7" x2="222.2" y2="789.7"/>
	<line fill="none" stroke="#000000" stroke-width="3.3229" stroke-miterlimit="10" x1="150.9" y1="736.2" x2="177.7" y2="736.2"/>
	<line fill="none" stroke="#000000" stroke-width="3.3229" stroke-miterlimit="10" x1="114.9" y1="675" x2="141.7" y2="675"/>
	<line fill="none" stroke="#000000" stroke-width="3.3229" stroke-miterlimit="10" x1="90.1" y1="609.6" x2="116.9" y2="609.6"/>
	<line fill="none" stroke="#000000" stroke-width="3.3229" stroke-miterlimit="10" x1="77.9" y1="535.5" x2="104.7" y2="535.5"/>
	<line fill="none" stroke="#000000" stroke-width="3.3229" stroke-miterlimit="10" x1="76.4" y1="466.1" x2="103.2" y2="466.1"/>
	<line fill="none" stroke="#000000" stroke-width="3.3229" stroke-miterlimit="10" x1="93.3" y1="395.5" x2="120.1" y2="395.5"/>
	<line fill="none" stroke="#000000" stroke-width="3.3229" stroke-miterlimit="10" x1="116.9" y1="329.4" x2="143.8" y2="329.4"/>
	<line fill="none" stroke="#000000" stroke-width="3.3229" stroke-miterlimit="10" x1="150" y1="272.1" x2="176.8" y2="272.1"/>
	<line fill="none" stroke="#000000" stroke-width="3.3229" stroke-miterlimit="10" x1="197.8" y1="218.3" x2="224.7" y2="218.3"/>
	<line fill="none" stroke="#000000" stroke-width="3.3229" stroke-miterlimit="10" x1="251.1" y1="173.1" x2="278" y2="173.1"/>
	<line fill="none" stroke="#000000" stroke-width="3.3229" stroke-miterlimit="10" x1="311.8" y1="139.5" x2="338.6" y2="139.5"/>
	<line fill="none" stroke="#000000" stroke-width="3.3229" stroke-miterlimit="10" x1="379.5" y1="113.4" x2="406.4" y2="113.4"/>
</g>
<g id="vs-reveal" display="none">
	<path display="inline" fill="none" stroke="#000000" stroke-width="105.3" stroke-miterlimit="10" stroke-opacity="0" d="
		M554.8,94.8c-67.6-2.8-135.4-2.1-203,2c-8.7,0.5-19.9,3.2-21,11.9c99.2,1.8,198.4,3.5,297.5,5.3c14.8,0.3,31.7,1.3,41.3,12.7
		c-155.1-2.8-312.5-5.4-462.4,34.4c171.2,24.8,344.6-29.3,517.5-21.5c8.5,0.4,17.6,1.2,24.2,6.5c6.6,5.3,8.8,16.9,2.1,22.1
		c-3.6,2.7-8.5,2.9-13,3c-166.6,2.3-333.3,4.6-499.9,6.9c-24.8,0.4-55.2,4.1-64.8,27.1c206.1,4.2,412.3,3.3,618.3-2.7
		c10.3-0.3,25.2,6.5,19.7,15.2c-37.2,10.6-76.3,11.5-115,12.4c-182.3,4-364.8,7.9-547.1,11.9c-11.2,0.3-25.3,2.7-27.9,13.6
		c8.4,8.4,21.5,9,33.4,9.2c219.6,3,439.3,3,658.9,0.1c9-0.1,18.5-0.2,26.5,4c8,4.1,14,13.8,10.8,22.1c-3.8,10.1-16.9,12.2-27.7,12.7
		c-236.9,9.8-474.6-7-711.1,8.6c-29.5,2,3.9,10.3-2.4,39.1c100.2,9.4,131.1,3.9,231.6,0.9c100.1-3,200.2-3.4,300.3-3.8
		c70.7-0.3,141.8-0.6,212,8.5c19.7,2.6,42.2,7.9,51.1,25.7c-216,12.5-432.5,16.7-648.7,12.8c-62.4-1.4-126.1-3-185.5,16.3
		c-2.3,7.9-4.8,15.9-7.1,23.9c255.1,0,510.2-0.1,765.3-0.1c17.8,0,36,0.1,52.8,5.8c16.9,5.7,32.6,18,37.4,35.2
		c-149.1-1.8-298.3-5.6-447.3-11.2c-136.4-5.2-274-12-408.1,12.4c-10.3,1.9,6.1,9.3,10.3,19c40.7,5.7,52,5.7,93,5.8
		c227.5,0.1,455.1,0.1,682.7,0.2c19.3,0,39.1,0.1,57.5,6s-14.4,18.9-8.3,37.3c-277.4-1.3-504.7-2.7-782-4.1
		c-13.7-0.1-27.8,0-40.1,5.8s-2.4,19,0.2,32.4c34.1,7.2,49.2,7.2,84,7.2c254.6-0.2,459.1-0.4,713.7-0.5c7.9,0,16.3,0.1,23,4.1
		c6.8,4,11.1,13.5,6.8,20.2c-31.7,9.4-15.4,9.3-48.5,9c-211.3-1.6-422.7-1.7-634,3c-53.9,1.2-68.8,2.9-119.6,21.1
		c10.2,19.4-3.7,22.1,18.1,22.5c241.3,3.7,482.6,7.4,723.8,11.1c15.8,0.3,37.7,8.1,33.3,23.3c-3.1,10.2-16.2,12.5-26.8,13
		c-244.3,10-488.7,16.2-733.1,18.6c-8.2,12.1-0.4,29.9,12.2,37.4c12.6,7.6,28.1,7.7,42.8,7.7c192.3,0,384.6,0,576.9-0.1
		c19.7,0,41.7,0.9,55.6,14.8c-37.1,15.3-79.1,9-119,4.6c-140.9-15.8-283.3-5.7-424.7,4.4c-22.1,1.6-45.7,3.7-63.4,17.1
		c26.5,5.5,53.6,5.7,80.6,5.9c102.2,0.5,204.4,1,306.6,1.4c55.8,0.3,113.1,0.8,164.9,21.7c-20.4,14.2-47.5,12.2-72.3,10.2
		c-124.4-10.5-249.7-9.8-373.9,2.3c-8.1,0.8-18.5,4.1-18.3,12.3c0.6,10.5,14.6,13.4,25,13.3c125.4-0.9,250.7-1.7,376.1-2.6
		c-7.4,13.6-25.2,16.9-40.7,18c-95.4,6.8-193-10.5-286,11.8c-1.7,15.2,18.6,21.8,33.9,22.7c64.9,3.7,130,5.1,194.9,4.2"/>
</g>
</svg>
