<?xml version="1.0" encoding="utf-8"?>
<!-- Generator: Adobe Illustrator 22.1.0, SVG Export Plug-In . SVG Version: 6.00 Build 0)  -->
<svg version="1.1" id="Layer_1" xmlns="http://www.w3.org/2000/svg" xmlns:xlink="http://www.w3.org/1999/xlink" x="0px" y="0px"
	 width="900px" height="900px" viewBox="0 0 900 900" enable-background="new 0 0 900 900" xml:space="preserve">
<g id="vs-highlight">
	<g>
		<path fill="#5DBFD9" d="M364,369.6c0-3.3-2.7-5.9-6.1-5.9l-68,0.6c-3.3,0-6,2.7-5.9,6.1c0,3.3,2.7,5.9,6,5.9c0,0,0,0,0.1,0l68-0.6
			C361.4,375.7,364,373,364,369.6z"/>
		<path fill="#5DBFD9" d="M242.5,366.3l-39.3-1c-1.6,0-3.2,0.6-4.3,1.7s-1.8,2.7-1.8,4.3l-0.3,249.4c0,3.3,2.7,6,6,6l0,0
			c3.3,0,6-2.7,6-6l0.3-243.3l33.2,0.8c3.3,0.1,6.1-2.5,6.2-5.8C248.4,369.1,245.8,366.4,242.5,366.3z"/>
		<path fill="#5DBFD9" d="M656.3,388L656.3,388L355,388.3c-3.3,0-6,2.7-6,6s2.7,6,6,6l0,0l301.3-0.3c3.3,0,6-2.7,6-6
			S659.6,388,656.3,388z"/>
		<path fill="#5DBFD9" d="M506.6,307l98,66.7c1,0.7,2.2,1,3.4,1c1.9,0,3.8-0.9,5-2.6c1.9-2.7,1.2-6.5-1.6-8.3l-98-66.7
			c-2.7-1.9-6.5-1.2-8.3,1.6S503.9,305.1,506.6,307z"/>
		<path fill="#5DBFD9" d="M732,361.7l-62.7-0.4l0,0c-3.3,0-6,2.7-6,6s2.6,6,6,6l62.7,0.4l0,0c3.3,0,6-2.7,6-6
			C738,364.4,735.4,361.7,732,361.7z"/>
		<path fill="#5DBFD9" d="M818.6,363l-39-2c-3.3-0.2-6.1,2.4-6.3,5.7c-0.2,3.3,2.4,6.1,5.7,6.3l39,2c0.1,0,0.2,0,0.3,0
			c3.2,0,5.8-2.5,6-5.7C824.5,366,821.9,363.2,818.6,363z"/>
		<path fill="#5DBFD9" d="M618,428.7L618,428.7c-3.3,0-6,2.7-6,6l0.7,142c0,3.3,2.7,6,6,6l0,0c3.3,0,6-2.7,6-6l-0.7-142
			C624,431.4,621.3,428.7,618,428.7z"/>
		<path fill="#5DBFD9" d="M609.1,418l9.4,0.3c0.1,0,0.1,0,0.2,0c3.2,0,5.9-2.6,6-5.8c0.1-3.3-2.5-6.1-5.8-6.2l-9.4-0.3
			c-3.3-0.1-6.1,2.5-6.2,5.8C603.2,415.1,605.8,417.9,609.1,418z"/>
		<path fill="#5DBFD9" d="M608.1,590.1l-3.3,0.7c-3.2,0.7-5.3,3.9-4.6,7.1c0.6,2.8,3.1,4.8,5.9,4.8c0.4,0,0.8,0,1.3-0.1l3.3-0.7
			c3.2-0.7,5.3-3.9,4.6-7.1C614.5,591.5,611.3,589.4,608.1,590.1z"/>
		<path fill="#5DBFD9" d="M456.8,617.2c-0.8-3.2-4.1-5.2-7.3-4.4c-3.2,0.8-5.2,4.1-4.4,7.3l1,4c0.7,2.7,3.1,4.5,5.8,4.5
			c0.5,0,1-0.1,1.5-0.2c3.2-0.8,5.2-4.1,4.4-7.3L456.8,617.2z"/>
		<path fill="#5DBFD9" d="M464,600.3c-3.3,0-6,2.7-6,6v5.4c0,3.3,2.7,6,6,6s6-2.7,6-6v-5.4C470,603,467.3,600.3,464,600.3z"/>
		<path fill="#5DBFD9" d="M383.3,406h-10.6c-3.3,0-6,2.7-6,6s2.7,6,6,6h10.6c3.3,0,6-2.7,6-6S386.6,406,383.3,406z"/>
		<path fill="#5DBFD9" d="M380.3,426.3C380.3,426.3,380.2,426.3,380.3,426.3c-3.4,0-6,2.8-6,6.1l2,146.7c0,3.3,2.7,5.9,6,5.9h0.1
			c3.3,0,6-2.8,5.9-6.1l-2-146.7C386.3,428.9,383.6,426.3,380.3,426.3z"/>
		<path fill="#5DBFD9" d="M373.3,591h-3c-3.3,0-6,2.7-6,6s2.7,6,6,6h3c3.3,0,6-2.7,6-6S376.6,591,373.3,591z"/>
		<path fill="#5DBFD9" d="M555.9,527.2c-1.5-1.1-3.4-1.5-5.1-1c-0.9,0.3-2,0.5-2.9,0.7c-6.1-12.7-13.8-20.7-22.9-23.6
			c-10.4-3.4-18.3,1-19.2,1.6c-2.9,1.7-3.8,5.4-2.1,8.2c1.7,2.9,5.4,3.8,8.2,2.1c0,0,4.1-2.2,9.4-0.5c6.4,2.1,12.4,9.3,17.3,20.7
			c0,0,0,0.1,0.1,0.1c1.5,3.3,4.6,4.1,8,3.8l1.8,57.9c0.1,3.2,2.8,5.8,6,5.8c0.1,0,0.1,0,0.2,0c3.3-0.1,5.9-2.9,5.8-6.2l-2-65
			C558.2,530,557.3,528.3,555.9,527.2z"/>
		<path fill="#5DBFD9" d="M204.6,311.1c-3.2-1-6.5,0.7-7.5,3.9l-14.3,44.7c-1,3.2,0.7,6.5,3.9,7.5c0.6,0.2,1.2,0.3,1.8,0.3
			c2.5,0,4.9-1.6,5.7-4.2l14.3-44.7C209.5,315.5,207.8,312.1,204.6,311.1z"/>
		<path fill="#5DBFD9" d="M216.5,309c0.4,3.1,3,5.3,6,5.3c0.2,0,0.5,0,0.7,0c3.3-0.4,5.6-3.4,5.3-6.7l-1-8.5c0-0.1,0-0.2-0.1-0.3
			c0.5,0.1,1,0.2,1.6,0.2c0.1,0,0.3,0,0.4,0c3.3-0.2,5.8-3.1,5.6-6.4l-1-16c-0.2-3.3-3.1-5.8-6.4-5.6c-3.3,0.2-5.8,3.1-5.6,6.4l1,16
			c0,0.2,0,0.4,0.1,0.6c-0.7-0.2-1.5-0.3-2.3-0.2c-3.3,0.4-5.6,3.4-5.3,6.7L216.5,309z"/>
		<path fill="#5DBFD9" d="M262.8,267c-3.3-0.2-6.1,2.4-6.3,5.7l-1,20.3c-0.2,3.3,2.4,6.1,5.7,6.3c0.1,0,0.2,0,0.3,0
			c3.2,0,5.8-2.5,6-5.7l1-20.3C268.7,270,266.1,267.2,262.8,267z"/>
		<path fill="#5DBFD9" d="M296.8,299.8c0.1,0,0.2,0,0.3,0c3.3-0.2,5.9-3,5.7-6.3l-0.8-16c-0.2-3.3-3-5.9-6.3-5.7
			c-3.3,0.2-5.9,3-5.7,6.3l0.8,16C291,297.3,293.6,299.8,296.8,299.8z"/>
		<path fill="#5DBFD9" d="M705.7,311.9c0.4,0.1,0.7,0.1,1.1,0.1c2.8,0,5.4-2,5.9-4.9l0.5-2.7c0.6-3.3-1.5-6.4-4.8-7s-6.4,1.5-7,4.8
			l-0.5,2.7C700.3,308.2,702.4,311.3,705.7,311.9z"/>
		<path fill="#5DBFD9" d="M716,300C716,300,716.1,300,716,300c3.4,0,6-2.8,6-6.1l-0.2-15.7c0-3.3-2.7-5.9-6-5.9h-0.1
			c-3.3,0-6,2.8-5.9,6.1l0.2,15.7C710,297.4,712.7,300,716,300z"/>
		<path fill="#5DBFD9" d="M749.6,271.3c-3.3,0.1-5.9,2.9-5.8,6.2l0.7,18.2c0.1,3.2,2.8,5.8,6,5.8c0.1,0,0.2,0,0.2,0
			c3.3-0.1,5.9-2.9,5.8-6.2l-0.7-18.2C755.7,273.8,752.9,271.2,749.6,271.3z"/>
		<path fill="#5DBFD9" d="M783.5,301.8c0.1,0,0.1,0,0.2,0c3.3-0.1,5.9-2.9,5.8-6.2l-0.5-17c-0.1-3.3-2.8-5.9-6.2-5.8
			c-3.3,0.1-5.9,2.9-5.8,6.2l0.5,17C777.6,299.2,780.3,301.8,783.5,301.8z"/>
	</g>
</g>
<g id="vs-outline">
	
		<polygon id="XMLID_2_" fill="none" stroke="#000000" stroke-width="8" stroke-linecap="round" stroke-linejoin="round" stroke-miterlimit="10" points="
		329,392.3 514.3,262.9 697.9,391.9 	"/>
	
		<polygon id="XMLID_3_" fill="none" stroke="#000000" stroke-width="8" stroke-linecap="round" stroke-linejoin="round" stroke-miterlimit="10" points="
		404.7,370.7 513.7,296.7 621.3,370.7 	"/>
	
		<polyline id="XMLID_4_" fill="none" stroke="#000000" stroke-width="8" stroke-linecap="round" stroke-linejoin="round" stroke-miterlimit="10" points="
		352.3,393.7 357,407 656.3,406.7 663.3,393.3 	"/>
	
		<polyline id="XMLID_5_" fill="none" stroke="#000000" stroke-width="8" stroke-linecap="round" stroke-linejoin="round" stroke-miterlimit="10" points="
		368.8,409.7 373.5,419.5 368.2,429.7 411.8,429.3 405.2,419.8 411.8,408.5 	"/>
	
		<line id="XMLID_6_" fill="none" stroke="#000000" stroke-width="4" stroke-linecap="round" stroke-linejoin="round" stroke-miterlimit="10" x1="374.7" y1="418.7" x2="404.3" y2="419"/>
	
		<line id="XMLID_7_" fill="none" stroke="#000000" stroke-width="8" stroke-linecap="round" stroke-linejoin="round" stroke-miterlimit="10" x1="376" y1="431" x2="377" y2="578.3"/>
	
		<path id="XMLID_1_" fill="none" stroke="#000000" stroke-width="8" stroke-linecap="round" stroke-linejoin="round" stroke-miterlimit="10" d="
		M367.5,591.2c0,0,6.2,0,6.2-8.7h37.5c0,0,1.2,8.7,5.7,8.3l0.2,10.8l-49.8,0.3L367.5,591.2z"/>
	
		<line id="XMLID_9_" fill="none" stroke="#000000" stroke-width="4" stroke-linecap="round" stroke-linejoin="round" stroke-miterlimit="10" x1="368.7" y1="592" x2="417.8" y2="592"/>
	
		<line id="XMLID_10_" fill="none" stroke="#000000" stroke-width="8" stroke-linecap="round" stroke-linejoin="round" stroke-miterlimit="10" x1="407" y1="581.7" x2="405.2" y2="431"/>
	
		<polyline id="XMLID_11_" fill="none" stroke="#000000" stroke-width="4" stroke-linecap="round" stroke-linejoin="round" stroke-miterlimit="10" points="
		395.5,430.8 397,580.7 387.3,581.8 386.8,430 	"/>
	
		<polyline id="XMLID_31_" fill="none" stroke="#000000" stroke-width="8" stroke-linecap="round" stroke-linejoin="round" stroke-miterlimit="10" points="
		604.8,409.7 609.5,419.5 604.2,429.7 647.8,429.3 641.2,419.8 647.8,408.5 	"/>
	
		<line id="XMLID_30_" fill="none" stroke="#000000" stroke-width="4" stroke-linecap="round" stroke-linejoin="round" stroke-miterlimit="10" x1="610.7" y1="418.7" x2="640.3" y2="419"/>
	
		<line id="XMLID_29_" fill="none" stroke="#000000" stroke-width="8" stroke-linecap="round" stroke-linejoin="round" stroke-miterlimit="10" x1="612" y1="431" x2="613" y2="578.3"/>
	
		<path id="XMLID_28_" fill="none" stroke="#000000" stroke-width="8" stroke-linecap="round" stroke-linejoin="round" stroke-miterlimit="10" d="
		M603.5,591.2c0,0,6.2,0,6.2-8.7h37.5c0,0,1.2,8.7,5.7,8.3l0.2,10.8l-49.8,0.3L603.5,591.2z"/>
	
		<line id="XMLID_27_" fill="none" stroke="#000000" stroke-width="4" stroke-linecap="round" stroke-linejoin="round" stroke-miterlimit="10" x1="604.7" y1="592" x2="653.8" y2="592"/>
	
		<line id="XMLID_26_" fill="none" stroke="#000000" stroke-width="8" stroke-linecap="round" stroke-linejoin="round" stroke-miterlimit="10" x1="643" y1="581.7" x2="641.2" y2="431"/>
	
		<polyline id="XMLID_25_" fill="none" stroke="#000000" stroke-width="4" stroke-linecap="round" stroke-linejoin="round" stroke-miterlimit="10" points="
		631.5,430.8 633,580.7 623.3,581.8 622.8,430 	"/>
	
		<line id="XMLID_12_" fill="none" stroke="#000000" stroke-width="8" stroke-linecap="round" stroke-linejoin="round" stroke-miterlimit="10" x1="558.5" y1="601" x2="558.5" y2="531"/>
	
		<path id="XMLID_13_" fill="none" stroke="#000000" stroke-width="8" stroke-linecap="round" stroke-linejoin="round" stroke-miterlimit="10" d="
		M570,529.5l-22.8,0.2c0,0-8.5-23.2-30-23.7c-23.8-0.5-30.3,24.3-30.3,24.3l-21.5,0.2c0,0,6.8-41.2,49.5-41.5
		C564,488.7,570,529.5,570,529.5z"/>
	
		<line id="XMLID_14_" fill="none" stroke="#000000" stroke-width="8" stroke-linecap="round" stroke-linejoin="round" stroke-miterlimit="10" x1="474.5" y1="534.5" x2="474" y2="602"/>
	
		<polygon id="XMLID_8_" fill="none" stroke="#000000" stroke-width="8" stroke-linecap="round" stroke-linejoin="round" stroke-miterlimit="10" points="
		686.5,625 685,603 334.5,603.5 330.5,626.5 	"/>
	
		<path id="XMLID_16_" fill="none" stroke="#000000" stroke-width="8" stroke-linecap="round" stroke-linejoin="round" stroke-miterlimit="10" d="
		M541,600.5l1.2-47.7c0,0,2.7-24-28-24.2c-25.3-0.1-25.7,23.5-25.7,23.5l-0.5,48.7"/>
	
		<line id="XMLID_17_" fill="none" stroke="#000000" stroke-width="4" stroke-linecap="round" stroke-linejoin="round" stroke-miterlimit="10" x1="516" y1="530.8" x2="515.5" y2="600.8"/>
	
		<path id="XMLID_15_" fill="none" stroke="#000000" stroke-width="4" stroke-linecap="round" stroke-linejoin="round" stroke-miterlimit="10" d="
		M495.3,572l13.8,0.3l0.2-33.3c0,0-10.2-0.2-12.3,9.7C495.7,554.4,495.3,572,495.3,572z"/>
	
		<path id="XMLID_18_" fill="none" stroke="#000000" stroke-width="4" stroke-linecap="round" stroke-linejoin="round" stroke-miterlimit="10" d="
		M521,538.8c0,0,12,0,12.3,8.5s-0.3,24.5-0.3,24.5l-12.5-0.2L521,538.8z"/>
	
		<polyline id="XMLID_20_" fill="none" stroke="#000000" stroke-width="8" stroke-linecap="round" stroke-linejoin="round" stroke-miterlimit="10" points="
		444.7,626 444.3,615.7 589.3,614.7 590,623.7 	"/>
	
		<line id="XMLID_21_" fill="none" stroke="#000000" stroke-width="8" stroke-linecap="round" stroke-linejoin="round" stroke-miterlimit="10" x1="457.3" y1="603.7" x2="457.3" y2="612.7"/>
	
		<line id="XMLID_22_" fill="none" stroke="#000000" stroke-width="8" stroke-linecap="round" stroke-linejoin="round" stroke-miterlimit="10" x1="574.3" y1="604.3" x2="574.3" y2="612.3"/>
	
		<path id="XMLID_19_" fill="none" stroke="#000000" stroke-width="4" stroke-linecap="round" stroke-linejoin="round" stroke-miterlimit="10" d="
		M506.8,579c2.9-0.3,2.3,4.5,0.3,4S503.1,579.4,506.8,579z"/>
	
		<path id="XMLID_23_" fill="none" stroke="#000000" stroke-width="4" stroke-linecap="round" stroke-linejoin="round" stroke-miterlimit="10" d="
		M522.4,579.1c3.1,0.2,2.3,4-0.3,3.9S520.5,579,522.4,579.1z"/>
	
		<path id="XMLID_24_" fill="none" stroke="#000000" stroke-width="8" stroke-linecap="round" stroke-linejoin="round" stroke-miterlimit="10" d="
		M447.7,446.3c0,0-1.3-20.3,17.7-20.3c19.4,0,20,19.6,20,19.6l0.7,33.7l-40,1.3L447.7,446.3z"/>
	
		<path id="XMLID_32_" fill="none" stroke="#000000" stroke-width="8" stroke-linecap="round" stroke-linejoin="round" stroke-miterlimit="10" d="
		M531.3,442.7c0,0,1.7-20.3,20.7-20.3c19.4,0,20,19.6,20,19.6l0.7,33.3l-40-1.3L531.3,442.7z"/>
	
		<line id="XMLID_34_" fill="none" stroke="#000000" stroke-width="8" stroke-linecap="round" stroke-linejoin="round" stroke-miterlimit="10" x1="482" y1="444.7" x2="451.3" y2="446.3"/>
	
		<polyline id="XMLID_33_" fill="none" stroke="#000000" stroke-width="8" stroke-linecap="round" stroke-linejoin="round" stroke-miterlimit="10" points="
		465,479 465.3,446.3 475,431 	"/>
	
		<line id="XMLID_36_" fill="none" stroke="#000000" stroke-width="8" stroke-linecap="round" stroke-linejoin="round" stroke-miterlimit="10" x1="453" y1="430.3" x2="465.3" y2="446.3"/>
	
		<line id="XMLID_37_" fill="none" stroke="#000000" stroke-width="8" stroke-linecap="round" stroke-linejoin="round" stroke-miterlimit="10" x1="550.7" y1="474.7" x2="551" y2="442.3"/>
	
		<line id="XMLID_38_" fill="none" stroke="#000000" stroke-width="8" stroke-linecap="round" stroke-linejoin="round" stroke-miterlimit="10" x1="572" y1="442" x2="536.3" y2="441.3"/>
	
		<polyline id="XMLID_35_" fill="none" stroke="#000000" stroke-width="8" stroke-linecap="round" stroke-linejoin="round" stroke-miterlimit="10" points="
		563.3,427.7 551.7,444 541.7,427 	"/>
	
		<path id="XMLID_39_" fill="none" stroke="#000000" stroke-width="8" stroke-linecap="round" stroke-linejoin="round" stroke-miterlimit="10" d="
		M589,312.3h234.7l15.3,50l-63.3,0.7c0,0,3.3-36-20-34.7s-21.4,33.2-21.4,33.2l-78.6-0.5"/>
	
		<path id="XMLID_40_" fill="none" stroke="#000000" stroke-width="8" stroke-linecap="round" stroke-linejoin="round" stroke-miterlimit="10" d="
		M441,310.3l-245.7,3l-15.3,52l65.3-1.3c0,0-3.3-36,20-34.7s18.7,33.3,18.7,33.3l83.3-0.7"/>
	
		<polyline id="XMLID_41_" fill="none" stroke="#000000" stroke-width="8" stroke-linecap="round" stroke-linejoin="round" stroke-miterlimit="10" points="
		196.3,367 196,623.7 330.5,626.5 	"/>
	
		<polyline id="XMLID_43_" fill="none" stroke="#000000" stroke-width="8" stroke-linecap="round" stroke-linejoin="round" stroke-miterlimit="10" points="
		244.7,362.7 246.3,393.3 284,394 284,362.7 	"/>
	
		<polyline id="XMLID_42_" fill="none" stroke="#000000" stroke-width="8" stroke-linecap="round" stroke-linejoin="round" stroke-miterlimit="10" points="
		265.3,391 264.3,353.7 280.7,339 	"/>
	
		<polyline id="XMLID_44_" fill="none" stroke="#000000" stroke-width="8" stroke-linecap="round" stroke-linejoin="round" stroke-miterlimit="10" points="
		284.3,353.3 264.3,353.7 253,337.7 	"/>
	
		<line id="XMLID_46_" fill="none" stroke="#000000" stroke-width="8" stroke-linecap="round" stroke-linejoin="round" stroke-miterlimit="10" x1="246" y1="355.3" x2="264.3" y2="353.7"/>
	
		<path id="XMLID_45_" fill="none" stroke="#000000" stroke-width="8" stroke-linecap="round" stroke-linejoin="round" stroke-miterlimit="10" d="
		M344.7,456.3c0,0,2.4-26.8-23.3-26c-21.3,0.7-19.7,20.2-19.7,20.2l-1.6,93.8l45.7,1L344.7,456.3z"/>
	
		<circle id="XMLID_47_" fill="none" stroke="#000000" stroke-width="6.0561" stroke-linecap="round" stroke-linejoin="round" stroke-miterlimit="10" cx="322.7" cy="451.3" r="19.7"/>
	
		<line id="XMLID_49_" fill="none" stroke="#000000" stroke-width="6.0561" stroke-linecap="round" stroke-linejoin="round" stroke-miterlimit="10" x1="322" y1="473.7" x2="321" y2="542.3"/>
	
		<line id="XMLID_50_" fill="none" stroke="#000000" stroke-width="6.0561" stroke-linecap="round" stroke-linejoin="round" stroke-miterlimit="10" x1="305.3" y1="490.3" x2="343.4" y2="490.9"/>
	
		<line id="XMLID_51_" fill="none" stroke="#000000" stroke-width="6.0561" stroke-linecap="round" stroke-linejoin="round" stroke-miterlimit="10" x1="304" y1="518" x2="344" y2="518.3"/>
	
		<path id="XMLID_55_" fill="none" stroke="#000000" stroke-width="8" stroke-linecap="round" stroke-linejoin="round" stroke-miterlimit="10" d="
		M266,456c0,0,2.4-26.8-23.3-26c-21.3,0.7-18.7,28-18.7,28l1.3,86l41.7,1L266,456z"/>
	
		<circle id="XMLID_54_" fill="none" stroke="#000000" stroke-width="6.0561" stroke-linecap="round" stroke-linejoin="round" stroke-miterlimit="10" cx="244" cy="451" r="19.7"/>
	
		<line id="XMLID_53_" fill="none" stroke="#000000" stroke-width="6.0561" stroke-linecap="round" stroke-linejoin="round" stroke-miterlimit="10" x1="243.3" y1="473.3" x2="245" y2="541.7"/>
	
		<line id="XMLID_52_" fill="none" stroke="#000000" stroke-width="6.0561" stroke-linecap="round" stroke-linejoin="round" stroke-miterlimit="10" x1="226.7" y1="490" x2="263.7" y2="490.3"/>
	
		<line id="XMLID_48_" fill="none" stroke="#000000" stroke-width="6.0561" stroke-linecap="round" stroke-linejoin="round" stroke-miterlimit="10" x1="225.3" y1="517.7" x2="265.3" y2="518"/>
	
		<polyline id="XMLID_56_" fill="none" stroke="#000000" stroke-width="8" stroke-linecap="round" stroke-linejoin="round" stroke-miterlimit="10" points="
		820.8,363.8 821.5,626 686.5,625 	"/>
	
		<polyline id="XMLID_58_" fill="none" stroke="#000000" stroke-width="8" stroke-linecap="round" stroke-linejoin="round" stroke-miterlimit="10" points="
		734.5,361.8 735.5,398.3 775.8,399.5 775.7,363 	"/>
	
		<line id="XMLID_59_" fill="none" stroke="#000000" stroke-width="8" stroke-linecap="round" stroke-linejoin="round" stroke-miterlimit="10" x1="773.3" y1="350" x2="739" y2="350.5"/>
	
		<polyline id="XMLID_57_" fill="none" stroke="#000000" stroke-width="8" stroke-linecap="round" stroke-linejoin="round" stroke-miterlimit="10" points="
		766.5,333 755.5,349.8 756.8,397.8 	"/>
	
		<line id="XMLID_61_" fill="none" stroke="#000000" stroke-width="8" stroke-linecap="round" stroke-linejoin="round" stroke-miterlimit="10" x1="741.3" y1="336.3" x2="755.5" y2="349.8"/>
	
		<path id="XMLID_70_" fill="none" stroke="#000000" stroke-width="8" stroke-linecap="round" stroke-linejoin="round" stroke-miterlimit="10" d="
		M793.3,478.7c0,0,2.4-26.8-23.3-26c-21.3,0.7-19.7,20.2-19.7,20.2l-1.6,93.8l45.7,1L793.3,478.7z"/>
	
		<circle id="XMLID_69_" fill="none" stroke="#000000" stroke-width="6.0561" stroke-linecap="round" stroke-linejoin="round" stroke-miterlimit="10" cx="771.3" cy="473.7" r="19.7"/>
	
		<line id="XMLID_68_" fill="none" stroke="#000000" stroke-width="6.0561" stroke-linecap="round" stroke-linejoin="round" stroke-miterlimit="10" x1="770.7" y1="496" x2="769.7" y2="564.6"/>
	
		<line id="XMLID_67_" fill="none" stroke="#000000" stroke-width="6.0561" stroke-linecap="round" stroke-linejoin="round" stroke-miterlimit="10" x1="754" y1="512.7" x2="792" y2="513.2"/>
	
		<line id="XMLID_66_" fill="none" stroke="#000000" stroke-width="6.0561" stroke-linecap="round" stroke-linejoin="round" stroke-miterlimit="10" x1="752.7" y1="540.3" x2="792.7" y2="540.7"/>
	
		<path id="XMLID_65_" fill="none" stroke="#000000" stroke-width="8" stroke-linecap="round" stroke-linejoin="round" stroke-miterlimit="10" d="
		M714.7,478.3c0,0,2.4-26.8-23.3-26c-21.3,0.7-18.7,28-18.7,28l1.3,86l41.7,1L714.7,478.3z"/>
	
		<circle id="XMLID_64_" fill="none" stroke="#000000" stroke-width="6.0561" stroke-linecap="round" stroke-linejoin="round" stroke-miterlimit="10" cx="692.7" cy="473.3" r="19.7"/>
	
		<line id="XMLID_63_" fill="none" stroke="#000000" stroke-width="6.0561" stroke-linecap="round" stroke-linejoin="round" stroke-miterlimit="10" x1="692" y1="495.7" x2="693.7" y2="564"/>
	
		<line id="XMLID_62_" fill="none" stroke="#000000" stroke-width="6.0561" stroke-linecap="round" stroke-linejoin="round" stroke-miterlimit="10" x1="675.3" y1="512.3" x2="712.3" y2="512.7"/>
	
		<line id="XMLID_60_" fill="none" stroke="#000000" stroke-width="6.0561" stroke-linecap="round" stroke-linejoin="round" stroke-miterlimit="10" x1="674" y1="540" x2="714" y2="540.3"/>
	
		<polyline id="XMLID_72_" fill="none" stroke="#000000" stroke-width="8" stroke-linecap="round" stroke-linejoin="round" stroke-miterlimit="10" points="
		811.7,308.7 812,298.3 703,298.3 702.7,312 	"/>
	
		<polyline id="XMLID_73_" fill="none" stroke="#000000" stroke-width="8" stroke-linecap="round" stroke-linejoin="round" stroke-miterlimit="10" points="
		713,297.3 713.3,267.5 735.2,268.2 735.3,297.2 	"/>
	
		<polyline id="XMLID_71_" fill="none" stroke="#000000" stroke-width="8" stroke-linecap="round" stroke-linejoin="round" stroke-miterlimit="10" points="
		746.8,296.2 747.2,268.3 769,267 769.2,296 	"/>
	
		<polyline id="XMLID_75_" fill="none" stroke="#000000" stroke-width="8" stroke-linecap="round" stroke-linejoin="round" stroke-miterlimit="10" points="
		780.3,295.8 780,268.5 802.3,269.7 801.8,296.3 	"/>
	
		<polyline id="XMLID_78_" fill="none" stroke="#000000" stroke-width="8" stroke-linecap="round" stroke-linejoin="round" stroke-miterlimit="10" points="
		323.7,308.2 324,297.8 215,297.8 214.7,311.5 	"/>
	
		<polyline id="XMLID_77_" fill="none" stroke="#000000" stroke-width="8" stroke-linecap="round" stroke-linejoin="round" stroke-miterlimit="10" points="
		225,296.8 225.3,267 247.2,267.7 247.3,296.7 	"/>
	
		<polyline id="XMLID_76_" fill="none" stroke="#000000" stroke-width="8" stroke-linecap="round" stroke-linejoin="round" stroke-miterlimit="10" points="
		258.8,295.7 259.2,263.8 281,266.5 281.2,295.5 	"/>
	
		<polyline id="XMLID_74_" fill="none" stroke="#000000" stroke-width="8" stroke-linecap="round" stroke-linejoin="round" stroke-miterlimit="10" points="
		292.3,295.3 292,270 314.3,269.2 313.8,295.8 	"/>
</g>
<g id="vs-h-reveal" opacity="0">
	
		<line id="XMLID_80_" fill="none" stroke="#5DBFD9" stroke-width="12" stroke-linecap="round" stroke-linejoin="round" stroke-miterlimit="10" stroke-opacity="0" x1="358" y1="369.7" x2="290" y2="370.3"/>
	
		<polyline id="XMLID_79_" fill="none" stroke="#5DBFD9" stroke-width="12" stroke-linecap="round" stroke-linejoin="round" stroke-miterlimit="10" stroke-opacity="0" points="
		242.3,372.3 203,371.3 202.7,620.7 	"/>
	
		<line id="XMLID_82_" fill="none" stroke="#5DBFD9" stroke-width="12" stroke-linecap="round" stroke-linejoin="round" stroke-miterlimit="10" stroke-opacity="0" x1="355" y1="394.3" x2="656.3" y2="394"/>
	
		<line id="XMLID_83_" fill="none" stroke="#5DBFD9" stroke-width="12" stroke-linecap="round" stroke-linejoin="round" stroke-miterlimit="10" stroke-opacity="0" x1="510" y1="302" x2="608" y2="368.7"/>
	
		<line id="XMLID_84_" fill="none" stroke="#5DBFD9" stroke-width="12" stroke-linecap="round" stroke-linejoin="round" stroke-miterlimit="10" stroke-opacity="0" x1="669.3" y1="367.3" x2="732" y2="367.7"/>
	
		<line id="XMLID_85_" fill="none" stroke="#5DBFD9" stroke-width="12" stroke-linecap="round" stroke-linejoin="round" stroke-miterlimit="10" stroke-opacity="0" x1="779.3" y1="367" x2="818.3" y2="369"/>
	
		<line id="XMLID_81_" fill="none" stroke="#5DBFD9" stroke-width="12" stroke-linecap="round" stroke-linejoin="round" stroke-miterlimit="10" stroke-opacity="0" x1="618" y1="434.7" x2="618.7" y2="576.7"/>
	
		<line id="XMLID_87_" fill="none" stroke="#5DBFD9" stroke-width="12" stroke-linecap="round" stroke-linejoin="round" stroke-miterlimit="10" stroke-opacity="0" x1="609.3" y1="412" x2="618.7" y2="412.3"/>
	
		<line id="XMLID_88_" fill="none" stroke="#5DBFD9" stroke-width="12" stroke-linecap="round" stroke-linejoin="round" stroke-miterlimit="10" stroke-opacity="0" x1="606" y1="596.7" x2="609.3" y2="596"/>
	
		<line id="XMLID_89_" fill="none" stroke="#5DBFD9" stroke-width="12" stroke-linecap="round" stroke-linejoin="round" stroke-miterlimit="10" stroke-opacity="0" x1="451" y1="618.7" x2="452" y2="622.7"/>
	
		<line id="XMLID_90_" fill="none" stroke="#5DBFD9" stroke-width="12" stroke-linecap="round" stroke-linejoin="round" stroke-miterlimit="10" stroke-opacity="0" x1="464" y1="606.3" x2="464" y2="611.7"/>
	
		<line id="XMLID_91_" fill="none" stroke="#5DBFD9" stroke-width="12" stroke-linecap="round" stroke-linejoin="round" stroke-miterlimit="10" stroke-opacity="0" x1="372.7" y1="412" x2="383.3" y2="412"/>
	
		<line id="XMLID_92_" fill="none" stroke="#5DBFD9" stroke-width="12" stroke-linecap="round" stroke-linejoin="round" stroke-miterlimit="10" stroke-opacity="0" x1="380.3" y1="432.3" x2="382.3" y2="579"/>
	
		<line id="XMLID_93_" fill="none" stroke="#5DBFD9" stroke-width="12" stroke-linecap="round" stroke-linejoin="round" stroke-miterlimit="10" stroke-opacity="0" x1="370.3" y1="597" x2="373.3" y2="597"/>
	
		<path id="XMLID_94_" fill="none" stroke="#5DBFD9" stroke-width="12" stroke-linecap="round" stroke-linejoin="round" stroke-miterlimit="10" stroke-opacity="0" d="
		M508.7,510c0,0,20.3-12,35.3,23c0.5,1.1,8.3-1,8.3-1l2,65"/>
	
		<line id="XMLID_95_" fill="none" stroke="#5DBFD9" stroke-width="12" stroke-linecap="round" stroke-linejoin="round" stroke-miterlimit="10" stroke-opacity="0" x1="202.8" y1="316.8" x2="188.5" y2="361.5"/>
	
		<line id="XMLID_96_" fill="none" stroke="#5DBFD9" stroke-width="12" stroke-linecap="round" stroke-linejoin="round" stroke-miterlimit="10" stroke-opacity="0" x1="221.5" y1="299.8" x2="222.5" y2="308.3"/>
	
		<line id="XMLID_97_" fill="none" stroke="#5DBFD9" stroke-width="12" stroke-linecap="round" stroke-linejoin="round" stroke-miterlimit="10" stroke-opacity="0" x1="228" y1="277" x2="229" y2="293"/>
	
		<line id="XMLID_98_" fill="none" stroke="#5DBFD9" stroke-width="12" stroke-linecap="round" stroke-linejoin="round" stroke-miterlimit="10" stroke-opacity="0" x1="262.5" y1="273" x2="261.5" y2="293.3"/>
	
		<line id="XMLID_99_" fill="none" stroke="#5DBFD9" stroke-width="12" stroke-linecap="round" stroke-linejoin="round" stroke-miterlimit="10" stroke-opacity="0" x1="296" y1="277.8" x2="296.8" y2="293.8"/>
	
		<line id="XMLID_100_" fill="none" stroke="#5DBFD9" stroke-width="12" stroke-linecap="round" stroke-linejoin="round" stroke-miterlimit="10" stroke-opacity="0" x1="707.3" y1="303.3" x2="706.8" y2="306"/>
	
		<line id="XMLID_101_" fill="none" stroke="#5DBFD9" stroke-width="12" stroke-linecap="round" stroke-linejoin="round" stroke-miterlimit="10" stroke-opacity="0" x1="715.8" y1="278.3" x2="716" y2="294"/>
	
		<line id="XMLID_102_" fill="none" stroke="#5DBFD9" stroke-width="12" stroke-linecap="round" stroke-linejoin="round" stroke-miterlimit="10" stroke-opacity="0" x1="749.8" y1="277.3" x2="750.5" y2="295.5"/>
	
		<line id="XMLID_103_" fill="none" stroke="#5DBFD9" stroke-width="12" stroke-linecap="round" stroke-linejoin="round" stroke-miterlimit="10" stroke-opacity="0" x1="783" y1="278.8" x2="783.5" y2="295.8"/>
</g>
</svg>
