<?xml version="1.0" encoding="utf-8"?>
<!-- Generator: Adobe Illustrator 22.1.0, SVG Export Plug-In . SVG Version: 6.00 Build 0)  -->
<svg version="1.1" id="Layer_1" xmlns="http://www.w3.org/2000/svg" xmlns:xlink="http://www.w3.org/1999/xlink" x="0px" y="0px"
	 width="1300px" height="1300px" viewBox="0 0 1300 1300" enable-background="new 0 0 1300 1300" xml:space="preserve">
<g id="vs-highlight">
	<path fill="#5DBFD9" d="M1214.1,933.1L1214.1,933.1L52.6,931.6c-3.9,0-7.6-1.6-10.4-4.4c-2.7-2.8-4.2-6.6-4.1-10.5l12-480
		c0.2-8,6.9-14.3,14.9-14.1c8,0.2,14.3,6.9,14.1,14.9L67.5,902.7l1146.7,1.5c8,0,14.5,6.5,14.5,14.5
		C1228.6,926.6,1222.1,933.1,1214.1,933.1z"/>
	<path fill="#5DBFD9" d="M1087,866.8c-6.6,0-12.4-4.5-14.1-10.9l-8.5-33.5l-192,1.9h-0.1c-7.9,0-14.4-6.4-14.5-14.4
		s6.3-14.6,14.4-14.6l203.4-2h0.1c6.6,0,12.4,4.5,14.1,10.9l8.5,33.6l124.7-0.5c0,0,0,0,0.1,0c8,0,14.5,6.4,14.5,14.4
		s-6.4,14.5-14.4,14.6L1087,866.8C1087.1,866.8,1087,866.8,1087,866.8z"/>
	<path fill="#5DBFD9" d="M1217.7,852.2L1217.7,852.2c-8,0-14.5-6.5-14.5-14.5l0.6-351.4c0-8,6.5-14.5,14.5-14.5l0,0
		c8,0,14.5,6.5,14.5,14.5l-0.6,351.4C1232.2,845.7,1225.7,852.2,1217.7,852.2z"/>
	<path fill="#5DBFD9" d="M1020.3,464.7L1020.3,464.7l-351.4-1.4c-10.5,0-19-8.6-18.9-19.1c0-10.5,8.5-18.9,19-18.9h0.1l351.3,1.4
		c10.5,0,19,8.6,18.9,19.1C1039.3,456.2,1030.8,464.7,1020.3,464.7z"/>
	<path fill="#5DBFD9" d="M484.3,468c-0.1,0-0.1,0-0.2,0l-164-1.3c-11.6-0.1-20.9-9.6-20.8-21.2c0.1-11.6,9.6-20.9,21.2-20.8l164,1.3
		c11.6,0.1,20.9,9.6,20.8,21.2C505.2,458.7,495.8,468,484.3,468z"/>
	<path fill="#5DBFD9" d="M120.3,791.2c-6.3,0-11.4-5.1-11.5-11.4l-3.3-286.7c-0.1-6.4,5-11.6,11.4-11.6c6.3-0.1,11.6,5,11.6,11.4
		l3.3,286.7c0.1,6.4-5,11.6-11.4,11.6C120.4,791.2,120.4,791.2,120.3,791.2z"/>
	<path fill="#5DBFD9" d="M316.4,673.3c-25.2,0-39.2-16.7-42.1-35c-3.7-23.6,10.3-51.7,37.1-56.1c20-3.3,37.7,2.6,48.7,16
		c10,12.2,12.6,29,7,43.8c-6.2,16.3-21.1,27.4-40.9,30.5C322.6,673,319.4,673.3,316.4,673.3z M322,611.3c-1.9,0-3.8,0.2-5.9,0.5l0,0
		c-8.6,1.4-13.6,12.9-12.2,21.8c0.8,5,3.5,11.4,17.6,9.3c9-1.4,15.2-5.5,17.5-11.5c1.8-4.8,1-10.2-2.2-14.1
		C333.6,613.3,328.5,611.3,322,611.3z M313.7,597L313.7,597L313.7,597z"/>
	<path fill="#5DBFD9" d="M329,832c-1.8,0-3.6-0.3-5.3-1c-7.7-2.9-11.6-11.6-8.7-19.3c2.3-6,8.1-20.7,12.6-26.9
		c22.2-30.4,94-60,107.8-65.5c13.5-9,26.9-20,29.2-24.1c2.8-5.7,5.9-9.8,8.7-12.9l-1.8-19c-2.9-1-6-2.4-9.1-4.3
		c-8.4-5.1-22.4-17.7-22-44.8c0.3-18.1,1.2-24.5,1.9-27.2l7.8-41.6c-1.3-5.2-3.5-15.7-4.6-26.8c-1-9.7-3.9-39.3,16.4-49.2
		c14-6.8,31.1-15.7,37-18.7c2.4-2.4,6.7-6.6,11.8-10.7c12.1-10,21.6-14.1,30.2-13.1c4.6-4.9,11-10.9,18.6-15.6
		c17-10.4,35.1-10.8,50.9-1.1c23.4,14.3,32.8,26.8,36.4,35.3c3.7,2.6,9,6.4,14.2,10.9c4.3,3.7,14.8,12.8,18.1,24
		c7.3,4.6,17.9,12.9,26.6,25.8c22.5,33.6,15,72.2,3.9,100.1c2.6,17.7,9.6,82.5-17.2,126.5c-4.3,7.1-13.5,9.3-20.6,5
		s-9.3-13.5-5-20.6c24.6-40.5,12.7-109.3,12.6-110c-0.5-2.9-0.2-5.9,1-8.6c13.2-30.9,13.4-56.4,0.4-75.7
		c-9.1-13.6-21.9-19.6-22.1-19.6c-6.3-2.7-9.8-9.2-9-15.6c-3-4.6-13.5-13.5-23.6-20c-3.6-2.3-6.1-6-6.8-10.2
		c-0.6-1.4-4.8-9.6-24.5-21.6c-4.1-2.5-14.9-9.1-36.9,17.4c-2.7,3.2-7.6,9.2-16.5,7.6c-1.9-0.4-3.7-1.1-5.3-2.1
		c-4.6,3-11.6,8.9-17,14.7c-1.1,1.2-2.5,2.2-3.9,3c-0.9,0.5-21.5,11.2-38.8,19.7c-0.9,2.2-2.2,9.4-0.3,23.9
		c1.5,11.4,4.1,21.1,4.1,21.2c0.6,2.2,0.7,4.5,0.3,6.7l-8.5,45.5c-0.1,0.3-0.1,0.6-0.2,0.9c-0.1,0.9-0.8,5.8-1,20.6
		c-0.2,13.4,5.2,17.1,7,18.3c3.6,2.5,7.7,2.9,8.4,3c0.1,0,0.1,0,0.2,0c7.7,0,13.7,5.9,14.4,13.6l3.5,38c0.6,6.2-2.7,12-8.2,14.8
		c-0.5,0.5-2.3,2.2-4.3,6.3c-6.6,13.2-30.7,30-40.8,36.5c-0.9,0.6-1.8,1-2.8,1.4c-29.9,11.7-82.4,37.2-96,55.9l-0.1,0.1
		c-1.4,2.1-5.5,11.3-8.7,19.7C340.8,828.3,335.1,832,329,832z M494.2,703.1L494.2,703.1L494.2,703.1z M494.2,703.1L494.2,703.1
		L494.2,703.1z M471.3,595.1c0,0.1-0.1,0.2-0.1,0.3C471.2,595.3,471.3,595.2,471.3,595.1z M471.3,595.1L471.3,595.1L471.3,595.1z
		 M471.6,594L471.6,594L471.6,594z M619,455.7L619,455.7L619,455.7z M619,455.6L619,455.6L619,455.6z M619,455.6L619,455.6
		L619,455.6z M619,455.6L619,455.6L619,455.6z"/>
	<path fill="#5DBFD9" d="M803,807c-3.9,0-7.7-1.5-10.7-4.5L761,770.7l-75.9-9.8c-8.2-1.1-14-8.6-12.9-16.8c1.1-8.2,8.6-14,16.8-12.9
		l81,10.5c3.3,0.4,6.4,2,8.8,4.3l35,35.5c5.8,5.9,5.7,15.4-0.2,21.2C810.6,805.5,806.8,807,803,807z"/>
</g>
<g id="vs-outline">
	
		<polygon id="XMLID_1_" fill="none" stroke="#000000" stroke-width="15" stroke-linecap="round" stroke-linejoin="round" stroke-miterlimit="10" points="
		72.7,402 94.4,401.9 217.6,401.6 549.5,400.8 1272.7,399.1 1259.7,909.2 68.3,907.8 70.8,625.2 71.8,509.2 72.5,420.8 	"/>
	
		<path id="XMLID_3_" fill="none" stroke="#000000" stroke-width="10" stroke-linecap="round" stroke-linejoin="round" stroke-miterlimit="10" d="
		M630.3,491c39.3,2.7,68,35.3,49,113.3c0,0,11.7,34.7-3,73.3"/>
	
		<path id="XMLID_5_" fill="none" stroke="#000000" stroke-width="10" stroke-linecap="round" stroke-linejoin="round" stroke-miterlimit="10" d="
		M496.3,635l4.2,60c0,0,68.5,70,123.5,62s51.5-59.5,50.5-72S651,651.6,638,651c-76-3.5-91.5,48-91.5,48s-15-29.5-15-42.5s-16-8-16-8
		l-12.3-22"/>
	
		<path id="XMLID_2_" fill="none" stroke="#000000" stroke-width="10" stroke-linecap="round" stroke-linejoin="round" stroke-miterlimit="10" d="
		M503,596.5c-5.3-18.3-39.2-24.1-34.3,19.2c4.3,38.2,35,13.2,36.7,7.2"/>
	
		<path id="XMLID_6_" fill="none" stroke="#000000" stroke-width="5" stroke-linecap="round" stroke-linejoin="round" stroke-miterlimit="10" d="
		M496.5,613.2c-2.2-14.8-14-23.2-17.5-11.7"/>
	
		<path id="XMLID_7_" fill="none" stroke="#000000" stroke-width="5" stroke-linecap="round" stroke-linejoin="round" stroke-miterlimit="10" d="
		M484.7,598.2c-7.7,11.7,2,24.3,10,13.8"/>
	
		<path id="XMLID_8_" fill="none" stroke="#000000" stroke-width="10" stroke-linecap="round" stroke-linejoin="round" stroke-miterlimit="10" d="
		M493.3,582.3c8.3-0.8,22.8-37.5,16.8-47.3c0,0,36.3-33.3,36.3-44.8c0,0,19.5-7.5,30.3-6.5"/>
	
		<path id="XMLID_9_" fill="none" stroke="#000000" stroke-width="10" stroke-linecap="round" stroke-linejoin="round" stroke-miterlimit="10" d="
		M648.8,493c2.5-24.3-27.3-32-27.3-32s1.6-23-34.3-22.8c-33,0.3-34.5,19.5-34.5,19.5s-29.7-2.2-38.5,15.3c0,0-32.3,6.5-40.5,36
		c-6.5,23.2,2.5,35.5,2.5,35.5s-9.8,33.3-1.8,39.8"/>
	
		<path id="XMLID_4_" fill="none" stroke="#000000" stroke-width="10" stroke-linecap="round" stroke-linejoin="round" stroke-miterlimit="10" d="
		M577,476.5c7.8,16.8,15,25.5,38.3,26.8c23.3,1.3,12-24.3,12-24.3"/>
	
		<path id="XMLID_10_" fill="none" stroke="#000000" stroke-width="10" stroke-linecap="round" stroke-linejoin="round" stroke-miterlimit="10" d="
		M641.8,580.3c12-0.8,3,25.3,0.5,26C639.8,607,634.5,580.8,641.8,580.3z"/>
	
		<path id="XMLID_11_" fill="none" stroke="#000000" stroke-width="10" stroke-linecap="round" stroke-linejoin="round" stroke-miterlimit="10" d="
		M581.5,582.3c9.4-1.4,2.6,29,0.3,25.8C580.5,606.3,573,583.5,581.5,582.3z"/>
	
		<path id="XMLID_12_" fill="none" stroke="#000000" stroke-width="10" stroke-linecap="round" stroke-linejoin="round" stroke-miterlimit="10" d="
		M624.3,601.3c5.8,11.3,9.8,39.3,9.8,39.3s-21,14.3-34.8,0.3"/>
	
		<path id="XMLID_13_" fill="none" stroke="#000000" stroke-width="10" stroke-linecap="round" stroke-linejoin="round" stroke-miterlimit="10" d="
		M600.3,569.5c-8-1.5-26.3,0.3-26.3,0.3l-26.8,15.8"/>
	
		<path id="XMLID_14_" fill="none" stroke="#000000" stroke-width="10" stroke-linecap="round" stroke-linejoin="round" stroke-miterlimit="10" d="
		M637.8,567.5c5.3,0,18.5,2,18.5,2l16,12.3"/>
	
		<path id="XMLID_16_" fill="none" stroke="#000000" stroke-width="10" stroke-linecap="round" stroke-linejoin="round" stroke-miterlimit="10" d="
		M593,680c6.3-4.8,46.3-2,46.3-2"/>
	
		<path id="XMLID_15_" fill="none" stroke="#000000" stroke-width="8" stroke-linecap="round" stroke-linejoin="round" stroke-miterlimit="10" d="
		M499,695.7c-18.3,6-6.3,31.3-6.3,31.3l118.7,46.3"/>
	
		<polyline id="XMLID_17_" fill="none" stroke="#000000" stroke-width="8" stroke-linecap="round" stroke-linejoin="round" stroke-miterlimit="10" points="
		667,731.7 685,739 631.7,770.3 	"/>
	
		<path id="XMLID_18_" fill="none" stroke="#000000" stroke-width="8" stroke-linecap="round" stroke-linejoin="round" stroke-miterlimit="10" d="
		M611,774.3c21.7-1.7,25-4.3,29.7,7.3c4.7,11.7,9,13-6.7,12.7s-20,1.3-22-10.7S611,774.3,611,774.3z"/>
	
		<polyline id="XMLID_19_" fill="none" stroke="#000000" stroke-width="8" stroke-linecap="round" stroke-linejoin="round" stroke-miterlimit="10" points="
		640.3,776.3 669.3,769.7 693.3,784.3 680.3,799.3 647.7,790.3 	"/>
	
		<polyline id="XMLID_20_" fill="none" stroke="#000000" stroke-width="8" stroke-linecap="round" stroke-linejoin="round" stroke-miterlimit="10" points="
		608.3,775 579.3,770.7 565,786 584.3,798.3 612.7,791.3 	"/>
	
		<path id="XMLID_22_" fill="none" stroke="#000000" stroke-width="8" stroke-linecap="round" stroke-linejoin="round" stroke-miterlimit="10" d="
		M507.3,737.3C546.7,763,612,863,612,863"/>
	
		<path id="XMLID_23_" fill="none" stroke="#000000" stroke-width="8" stroke-linecap="round" stroke-linejoin="round" stroke-miterlimit="10" d="
		M608,794.7c0,0,34.7,50,38.3,59"/>
	
		<path id="XMLID_24_" fill="none" stroke="#000000" stroke-width="8" stroke-linecap="round" stroke-linejoin="round" stroke-miterlimit="10" d="
		M656,795.7c7.7,10.3,23.7,53,23.7,53"/>
	
		<path id="XMLID_25_" fill="none" stroke="#000000" stroke-width="8" stroke-linecap="round" stroke-linejoin="round" stroke-miterlimit="10" d="
		M683,799.3c0,0,30.3,42.3,32.7,49.7"/>
	
		<line id="XMLID_26_" fill="none" stroke="#000000" stroke-width="8" stroke-linecap="round" stroke-linejoin="round" stroke-miterlimit="10" x1="665.3" y1="767.3" x2="657.7" y2="757.3"/>
	
		<path id="XMLID_27_" fill="none" stroke="#000000" stroke-width="8" stroke-linecap="round" stroke-linejoin="round" stroke-miterlimit="10" d="
		M486.5,719c-11.5,18.5-34.5,0-34,39s7.5,73.5,7.5,73.5s23-20,40.5-2.5"/>
	
		<path id="XMLID_21_" fill="none" stroke="#000000" stroke-width="10" stroke-linecap="round" stroke-linejoin="round" stroke-miterlimit="10" d="
		M449.5,746.5c-56,15.5-97.5,49-100,53s-10,21.5-10,21.5"/>
	
		<path id="XMLID_28_" fill="none" stroke="#000000" stroke-width="10" stroke-linecap="round" stroke-linejoin="round" stroke-miterlimit="10" d="
		M664.5,755c25-2.5,103.5,17,103.5,17l39.5,43.5"/>
	
		<polyline id="XMLID_29_" fill="none" stroke="#000000" stroke-width="10" stroke-linecap="round" stroke-linejoin="round" stroke-miterlimit="10" points="
		338.8,848.7 313.3,848.2 314.8,883.2 	"/>
	
		<line id="XMLID_31_" fill="none" stroke="#000000" stroke-width="10" stroke-linecap="round" stroke-linejoin="round" stroke-miterlimit="10" x1="317.8" y1="865.2" x2="330.3" y2="864.7"/>
	
		<line id="XMLID_32_" fill="none" stroke="#000000" stroke-width="10" stroke-linecap="round" stroke-linejoin="round" stroke-miterlimit="10" x1="361.3" y1="845.7" x2="359.8" y2="884.7"/>
	
		<polyline id="XMLID_30_" fill="none" stroke="#000000" stroke-width="10" stroke-linecap="round" stroke-linejoin="round" stroke-miterlimit="10" points="
		415.3,847.7 399.3,847.2 398.8,884.7 	"/>
	
		<line id="XMLID_34_" fill="none" stroke="#000000" stroke-width="10" stroke-linecap="round" stroke-linejoin="round" stroke-miterlimit="10" x1="411.3" y1="869.7" x2="401.8" y2="869.2"/>
	
		<line id="XMLID_35_" fill="none" stroke="#000000" stroke-width="10" stroke-linecap="round" stroke-linejoin="round" stroke-miterlimit="10" x1="436.8" y1="847.2" x2="474.3" y2="848.7"/>
	
		<line id="XMLID_36_" fill="none" stroke="#000000" stroke-width="10" stroke-linecap="round" stroke-linejoin="round" stroke-miterlimit="10" x1="455.8" y1="852.7" x2="456.8" y2="883.7"/>
	
		<polyline id="XMLID_38_" fill="none" stroke="#000000" stroke-width="10" stroke-linecap="round" stroke-linejoin="round" stroke-miterlimit="10" points="
		528.5,846.8 510.3,865.2 493,845.8 	"/>
	
		<line id="XMLID_37_" fill="none" stroke="#000000" stroke-width="10" stroke-linecap="round" stroke-linejoin="round" stroke-miterlimit="10" x1="509.8" y1="884.7" x2="510.3" y2="865.2"/>
	
		<path id="XMLID_39_" fill="none" stroke="#000000" stroke-width="10" stroke-linecap="round" stroke-linejoin="round" stroke-miterlimit="10" d="
		M739,845.3l-2,41c0,0,30.7,2.3,32.7-18S739,845.3,739,845.3z"/>
	
		<path id="XMLID_33_" fill="none" stroke="#000000" stroke-width="10" stroke-linecap="round" stroke-linejoin="round" stroke-miterlimit="10" d="
		M799,847c24.3,1.4,18,38,0.7,38.7C785.6,886.2,781.7,846,799,847z"/>
	
		<polyline id="XMLID_40_" fill="none" stroke="#000000" stroke-width="10" stroke-linecap="round" stroke-linejoin="round" stroke-miterlimit="10" points="
		834.7,847.3 833.7,886 858.3,884.7 	"/>
	
		<polyline id="XMLID_41_" fill="none" stroke="#000000" stroke-width="10" stroke-linecap="round" stroke-linejoin="round" stroke-miterlimit="10" points="
		875.3,847.3 875,885 897.3,884.3 	"/>
	
		<polyline id="XMLID_42_" fill="none" stroke="#000000" stroke-width="10" stroke-linecap="round" stroke-linejoin="round" stroke-miterlimit="10" points="
		922,887 930,848.3 944,887 	"/>
	
		<line id="XMLID_44_" fill="none" stroke="#000000" stroke-width="10" stroke-linecap="round" stroke-linejoin="round" stroke-miterlimit="10" x1="939" y1="879.3" x2="924.3" y2="879"/>
	
		<path id="XMLID_45_" fill="none" stroke="#000000" stroke-width="10" stroke-linecap="round" stroke-linejoin="round" stroke-miterlimit="10" d="
		M964.7,886v-36.7c0,0,26-5.7,26.7,10.7c0.7,16.3-23,10.3-23,10.3"/>
	
		<line id="XMLID_46_" fill="none" stroke="#000000" stroke-width="10" stroke-linecap="round" stroke-linejoin="round" stroke-miterlimit="10" x1="984.7" y1="873" x2="993" y2="886"/>
	
		<path id="XMLID_47_" fill="none" stroke="#000000" stroke-width="10" stroke-linecap="round" stroke-linejoin="round" stroke-miterlimit="10" d="
		M1040.3,856c-5-12.7-26.7-10.7-26.7,2s25.7,4,26.7,18c0.9,12.7-24,21.7-25.7,2.7"/>
	
		<polyline id="XMLID_43_" fill="none" stroke="#000000" stroke-width="10" stroke-linecap="round" stroke-linejoin="round" stroke-miterlimit="10" points="
		857,822 1068,819 1070,864 1235,867 1235,434.7 	"/>
	
		<line id="XMLID_49_" fill="none" stroke="#000000" stroke-width="10" stroke-linecap="round" stroke-linejoin="round" stroke-miterlimit="10" x1="1200" y1="835" x2="1204" y2="494"/>
	
		<path id="XMLID_48_" fill="none" stroke="#000000" stroke-width="14" stroke-linecap="round" stroke-linejoin="round" stroke-miterlimit="10" d="
		M1114.3,437.7l-52,1.3l0.8,18.7c0,0,51.8-4.6,50.3,16.3c-1.5,21.5-44,27.7-48.7,6.3"/>
	
		<path id="XMLID_50_" fill="none" stroke="#000000" stroke-width="14" stroke-linecap="round" stroke-linejoin="round" stroke-miterlimit="10" d="
		M1162,438c44.5,0.9,41.5,59.5-0.5,59.5S1136.5,437.5,1162,438z"/>
	
		<line id="XMLID_52_" fill="none" stroke="#000000" stroke-width="10" stroke-linecap="round" stroke-linejoin="round" stroke-miterlimit="10" x1="1027.7" y1="425.7" x2="651.7" y2="427.7"/>
	
		<line id="XMLID_53_" fill="none" stroke="#000000" stroke-width="10" stroke-linecap="round" stroke-linejoin="round" stroke-miterlimit="10" x1="669.7" y1="468.3" x2="1024.3" y2="467"/>
	
		<polyline id="XMLID_51_" fill="none" stroke="#000000" stroke-width="10" stroke-linecap="round" stroke-linejoin="round" stroke-miterlimit="10" points="
		876.3,685.7 873,582.3 893.7,583.7 	"/>
	
		<line id="XMLID_55_" fill="none" stroke="#000000" stroke-width="10" stroke-linecap="round" stroke-linejoin="round" stroke-miterlimit="10" x1="887.7" y1="637.7" x2="878.3" y2="638.3"/>
	
		<line id="XMLID_56_" fill="none" stroke="#000000" stroke-width="10" stroke-linecap="round" stroke-linejoin="round" stroke-miterlimit="10" x1="913" y1="583.7" x2="913.7" y2="687.7"/>
	
		<polyline id="XMLID_54_" fill="none" stroke="#000000" stroke-width="10" stroke-linecap="round" stroke-linejoin="round" stroke-miterlimit="10" points="
		955,583.7 937.7,581.7 937,689 	"/>
	
		<line id="XMLID_58_" fill="none" stroke="#000000" stroke-width="10" stroke-linecap="round" stroke-linejoin="round" stroke-miterlimit="10" x1="954.3" y1="637.7" x2="938.3" y2="637.7"/>
	
		<line id="XMLID_59_" fill="none" stroke="#000000" stroke-width="10" stroke-linecap="round" stroke-linejoin="round" stroke-miterlimit="10" x1="967.7" y1="581.7" x2="994.3" y2="581"/>
	
		<line id="XMLID_60_" fill="none" stroke="#000000" stroke-width="10" stroke-linecap="round" stroke-linejoin="round" stroke-miterlimit="10" x1="981" y1="583.7" x2="981" y2="686.3"/>
	
		<polyline id="XMLID_62_" fill="none" stroke="#000000" stroke-width="10" stroke-linecap="round" stroke-linejoin="round" stroke-miterlimit="10" points="
		1038.3,579.7 1021.7,635 1010.3,577.7 	"/>
	
		<line id="XMLID_61_" fill="none" stroke="#000000" stroke-width="10" stroke-linecap="round" stroke-linejoin="round" stroke-miterlimit="10" x1="1020.3" y1="689" x2="1021.7" y2="635"/>
	
		<path id="XMLID_57_" fill="none" stroke="#000000" stroke-width="14" stroke-linecap="round" stroke-linejoin="round" stroke-miterlimit="10" d="
		M1120.3,771l-30.7-0.7v12c0,0,32.7-9.3,33.3,11.3c0.7,20.7-31.3,21.3-32,9.3"/>
	
		<path id="XMLID_63_" fill="none" stroke="#000000" stroke-width="14" stroke-linecap="round" stroke-linejoin="round" stroke-miterlimit="10" d="
		M1155.7,770.3c19.3,0,19.3,40.7,2,40.7C1140.3,811,1133,770.3,1155.7,770.3z"/>
	
		<line id="XMLID_65_" fill="none" stroke="#000000" stroke-width="10" stroke-linecap="round" stroke-linejoin="round" stroke-miterlimit="10" x1="516.3" y1="423" x2="305.7" y2="426.3"/>
	
		<line id="XMLID_66_" fill="none" stroke="#000000" stroke-width="10" stroke-linecap="round" stroke-linejoin="round" stroke-miterlimit="10" x1="309.7" y1="470.3" x2="481.7" y2="467"/>
	
		<path id="XMLID_64_" fill="none" stroke="#000000" stroke-width="14" stroke-linecap="round" stroke-linejoin="round" stroke-miterlimit="10" d="
		M177.7,433.7l-49.3,3.3v8c0,0,45.3-8,51.3,12.7c6,20.7-41.3,16.7-44.7,10"/>
	
		<path id="XMLID_67_" fill="none" stroke="#000000" stroke-width="14" stroke-linecap="round" stroke-linejoin="round" stroke-miterlimit="10" d="
		M240.3,432.3c31.3-0.5,38.7,46,3.3,43.3C208.3,473,196.3,433,240.3,432.3z"/>
	
		<line id="XMLID_69_" fill="none" stroke="#000000" stroke-width="10" stroke-linecap="round" stroke-linejoin="round" stroke-miterlimit="10" x1="103.7" y1="466.3" x2="104.3" y2="785.7"/>
	
		<line id="XMLID_70_" fill="none" stroke="#000000" stroke-width="10" stroke-linecap="round" stroke-linejoin="round" stroke-miterlimit="10" x1="129" y1="785" x2="127.7" y2="491.7"/>
	
		<path id="XMLID_68_" fill="none" stroke="#000000" stroke-width="14" stroke-linecap="round" stroke-linejoin="round" stroke-miterlimit="10" d="
		M165.7,805l-53.3-0.7l4.7,24c0,0,46-18.7,48.7,9.3s-34,38-47.3,17.3"/>
	
		<path id="XMLID_71_" fill="none" stroke="#000000" stroke-width="14" stroke-linecap="round" stroke-linejoin="round" stroke-miterlimit="10" d="
		M213,803.7c31.3-1.5,42,54,0.7,56.7C172.3,863,171,805.7,213,803.7z"/>
	
		<path id="XMLID_72_" fill="none" stroke="#000000" stroke-width="10" stroke-linecap="round" stroke-linejoin="round" stroke-miterlimit="10" d="
		M316.3,577c70.6-3.7,71.3,94.7,2,97.3C249,677,265,579.7,316.3,577z"/>
	
		<path id="XMLID_73_" fill="none" stroke="#000000" stroke-width="14" stroke-linecap="round" stroke-linejoin="round" stroke-miterlimit="10" d="
		M319,611.7c28.7,0,18.7,29.3,1.3,29.3S300.3,611.7,319,611.7z"/>
</g>
<g id="vs-h-reveal">
	
		<polyline id="XMLID_91_" fill="none" stroke="#5DBFD9" stroke-width="29" stroke-linecap="round" stroke-linejoin="round" stroke-miterlimit="10" stroke-opacity="0" points="
		64.6,437.1 52.6,917.1 1214.1,918.6 	"/>
	
		<polyline id="XMLID_90_" fill="none" stroke="#5DBFD9" stroke-width="29" stroke-linecap="round" stroke-linejoin="round" stroke-miterlimit="10" stroke-opacity="0" points="
		872.3,809.7 1075.7,807.7 1087,852.3 1223,851.7 	"/>
	
		<line id="XMLID_89_" fill="none" stroke="#5DBFD9" stroke-width="29" stroke-linecap="round" stroke-linejoin="round" stroke-miterlimit="10" stroke-opacity="0" x1="1217.7" y1="837.7" x2="1218.3" y2="486.3"/>
	
		<line id="XMLID_88_" fill="none" stroke="#5DBFD9" stroke-width="38" stroke-linecap="round" stroke-linejoin="round" stroke-miterlimit="10" stroke-opacity="0" x1="1020.3" y1="445.7" x2="669" y2="444.3"/>
	
		<line id="XMLID_87_" fill="none" stroke="#5DBFD9" stroke-width="42" stroke-linecap="round" stroke-linejoin="round" stroke-miterlimit="10" stroke-opacity="0" x1="484.3" y1="447" x2="320.3" y2="445.7"/>
	
		<line id="XMLID_86_" fill="none" stroke="#5DBFD9" stroke-width="23" stroke-linecap="round" stroke-linejoin="round" stroke-miterlimit="10" stroke-opacity="0" x1="117" y1="493" x2="120.3" y2="779.7"/>
	
		<path id="XMLID_85_" fill="none" stroke="#5DBFD9" stroke-width="30" stroke-linecap="round" stroke-linejoin="round" stroke-miterlimit="10" stroke-opacity="0" d="
		M313.7,597c48.2-7.9,57.3,53.3,10,60.7C276.3,665,281,602.3,313.7,597z"/>
	
		<path id="XMLID_84_" fill="none" stroke="#5DBFD9" stroke-width="30" stroke-linecap="round" stroke-linejoin="round" stroke-miterlimit="10" stroke-opacity="0" d="
		M329,817c0,0,6.9-18.2,10.7-23.3c21.3-29.2,102.7-61,102.7-61S472.5,713,478,702s11-13,11-13l-3.5-38c0,0-30.5-0.5-30-36.5
		c0.3-20.5,1.5-24,1.5-24l8.5-45.5c0,0-14.5-53.5,3-62s39.5-20,39.5-20s30.8-32.5,36-17c0.5,1.5,27.5-42,58.5-23s31.5,32,31.5,32
		s35.5,22.5,30.5,34.5c0,0,66.5,28.5,29.5,115c0,0,13.5,74.5-14.5,120.5"/>
	
		<polyline id="XMLID_83_" fill="none" stroke="#5DBFD9" stroke-width="30" stroke-linecap="round" stroke-linejoin="round" stroke-miterlimit="10" stroke-opacity="0" points="
		687,746 768,756.5 803,792 	"/>
</g>
</svg>
