<?xml version="1.0" encoding="utf-8"?>
<!-- Generator: Adobe Illustrator 24.3.0, SVG Export Plug-In . SVG Version: 6.00 Build 0)  -->
<svg isCommex="true" version="1.1" id="Layer_3" xmlns="http://www.w3.org/2000/svg" xmlns:xlink="http://www.w3.org/1999/xlink" x="0px" y="0px"
	 width="447.9px" height="510.8px" viewBox="0 0 447.9 510.8" enable-background="new 0 0 447.9 510.8" xml:space="preserve">
<g id="vs-primary">
	<path fill="#E6074D" d="M278.9,329.8c-6-5.2-12.9-8.8-15.5-10.1l-1.2-0.6l-0.2,1.3c-0.8,5.2-2.1,10.2-3.8,15.2
		c-5,15.1-12.1,26.3-15,30.5l-0.4,0.6l0.4,0.6c0.3,0.5,0.9,1.3,1.4,1.9c0.9,1.2,0.6,3-0.7,3.9c-0.4,0.4-1,0.6-1.6,0.6
		c-0.9,0-1.6-0.4-2.2-1.1c-19.6-26-31.6-48.8-38.2-63.4l-0.5-1l-3.1,1.7l-0.1,0.1c-1,0.8-2.3,1.6-3.9,2.3l-0.1,0.1
		c-9,5.4-15.6,10-19.1,13.2c-2.3,2-3.7,5-5.2,8.2l-0.2,0.4c-0.4,0.9-0.8,1.8-1.2,2.6c-16.3,34.5-26.9,71.3-31.3,109.5
		c-0.1,1.4-1.3,2.5-2.8,2.5l-0.2,2c1.2,0.2,28.5,5.3,39.7-1.9l0.2-0.1l1.2,0.9c5.1,4.1,13,10.5,35.6,10.5c4.4,0,9.3-0.2,14.8-0.8
		c32.9-3.2,48.1-12.2,49.7-13.2l0.6-0.4l-0.1-0.6c-0.3-1.8-0.6-3.7-0.7-5.6l-0.2-2.9l-1.7,2.4c-1.5,2.1-3,4.1-4.3,5.7
		c-0.6,0.7-1.4,1.1-2.3,1.1c-0.7,0-1.3-0.2-1.9-0.5c-1.1-1.1-1.3-2.7-0.4-3.9c1.4-1.7,2.6-3.4,3.7-4.9l0.1-0.1
		c0-0.1,0.1-0.2,0.1-0.2l0.1-0.1c0.6-1,1.2-2,2-2.8l0.1-0.1c2.9-4.8,4.8-9.2,5.7-13.5c1-4.6,1.2-9.9,0.5-15.4v-0.2
		c-0.6-2-1.4-4-2.4-6.6l-0.2-0.4c-2-5.2-4.1-10.7-4.2-16.5c0-1.6,1.3-2.9,2.9-2.9c1.5,0,2.8,1.3,2.8,2.8c0,3.5,1,7,2.1,9.9l1.1,3.1
		l0.8-3.2c3.1-11.7,8.2-33,8.3-44.3C288.2,340.6,285.1,335.2,278.9,329.8z M209.5,442.7L209.5,442.7c0,1.5-1.3,2.6-2.8,2.6h-0.2
		c-6.6-0.3-12.9-3.2-17.3-7.9c-1-1.2-1-3,0.1-4c0.6-0.5,1.3-0.7,2-0.7c0.8,0,1.5,0.3,2,0.9c3.5,3.7,8.4,5.9,13.5,6.1
		c0.7,0,1.4,0.4,1.9,0.9C209.3,441.2,209.5,441.9,209.5,442.7z M174.9,447.9l-0.8-0.7c-0.5-0.4-0.8-1-0.9-1.6
		c-2.7-17.4-1.4-35.8,3.7-53.1c0.2-0.7,0.7-1.3,1.4-1.7c0.7-0.4,1.4-0.5,2.1-0.2c0.7,0.2,1.3,0.7,1.7,1.4c0.4,0.7,0.5,1.4,0.2,2.1
		c-4.9,16.4-6.2,33.9-3.5,50.6c0.1,0.7-0.1,1.5-0.5,2.1s-1.1,1-1.8,1.1L174.9,447.9L174.9,447.9z"/>
</g>
<g id="vs-hair">
	<path fill="#808080" d="M355.1,203.3L355,203c-0.7-1.5-1.4-3.1-2.1-5c-3.4-8.6-3.7-18.2-4.1-30.5v-0.2c-0.3-11.1-0.6-24.9-4-42.1
		c-5.1-25.9-33.1-41.6-44.9-47.1l-1.6-0.8l0.2,1.8c0.1,0.6,0.1,1.1,0.1,1.3c0,0.3,0,0.3,0,0.5l-0.2,0.7L299,82
		c11.6,8.6,21.5,23,25.3,36.6c0.5,1.7,0.9,3.6,1.3,5.6c1.2,8.2,1.6,13.4,1.7,16.4l0.1,2.3l1.6-1.6c0.2-0.2,0.4-0.4,0.6-0.7
		c0.1-0.1,0.2-0.1,0.3,0l0.1,0.1c0,0,0.1,0.2,0.1,0.3s-0.1,0.2-0.2,0.3c-0.4,0.6-1.1,1.8-2,3.1l-0.3,0.4l0.2,0.5
		c0.3,0.9,0.6,2.1,0.8,3.2l0.2,1.3l1.2-0.6c3.1-1.4,6.3-4.9,7.3-6.2c0.2-0.1,0.4-0.1,0.4-0.1c0.3,0.2,0.2,0.4,0.1,0.5
		c-0.3,0.4-4.2,5.9-6.9,7.8l-0.4,0.4c-0.2,0.2-0.5,0.4-0.8,0.5l-0.8,0.4v0.9c-0.2,0.6-0.4,1.1-0.7,1.3l-2.1,2.1l3.4-0.5
		c0.6-0.1,1.4-0.2,2.1-0.4c2.9-0.7,5.2-1.7,6.2-2.2l0.3-0.1c0.1,0,0.4-0.2,0.5,0c0.1,0.1,0,0.3,0,0.3s-2.6,2.3-9.6,4.7
		c-0.2,0.1-0.5,0.1-0.7,0.2c-0.2,0.1-0.3,0.1-0.5,0.2l-1.2,0.3l0.6,1.1c0,0.1,0.1,0.2,0.1,0.3c0.1,0.2,0.1,0.3,0.1,0.3
		c1,3,9.7,30.6,1,65.7c-9.5,38.8-35.3,66.3-49.2,74.5c-6.1,3.5-10.8,5.7-15.3,7l-0.7,0.2v0.8c0,1,0,2.1-0.1,3.4v0.5l0.3,0.3
		c0.2,0.2,0.4,0.3,0.6,0.3c0.1,0,0.1,0.1,0.2,0.1c7.1,3.3,30.2,15.3,30,32.1c-0.2,14.8-8.3,45.5-11.4,56v0.7v0.1
		c0.8,6.6,0.6,13-0.5,18c-0.4,1.8-0.9,3.6-1.5,5.2l-0.6,1.8l1.9-0.6c2.7-0.8,5.6-1.5,8.8-2.3l2.4-0.6c13.5-3.2,28.9-6.9,35.7-18.4
		c7.9-13.3,3.6-23.9-2.9-40c-2.8-6.7-5.5-13.4-7.7-21c-0.8-2.6-1.6-5.4-2.2-8.2c-3-13-0.4-24.2,8-35.4l1.6-2.1l-2.6,0.5
		c-3.3,0.7-9.5,2.4-14.6,6.5c-4.1,3.5-7.3,8.2-8.8,10.6c-2.2,3.6-3.6,6.5-4.1,7.5c-0.1,0.3-0.5,0.5-0.8,0.5c-0.1,0-0.1,0-0.3-0.1
		h-0.1c-0.5-0.3-0.7-0.7-0.5-1.3c0.1-0.4,1.6-3.7,4.2-7.9c3-5.2,8.8-14.5,14.4-17.7c5.7-3.2,13.3-4.6,18.6-5.2h0.3l0.2-0.2
		c2.5-2.5,5.2-4.9,7.8-7.3l1.9-1.8c5.7-5.1,12.2-11,17.1-17.2C373.7,247.3,362.1,219.7,355.1,203.3z"/>
	<path fill="#808080" d="M271.5,71L271.5,71c1.1,0.2,2,0.4,2.9,0.6l3.5,0.8l-2.6-2.5c-13.1-12.5-35.1-13.8-35.3-13.8
		c-0.4,0-0.8-0.2-1.1-0.5s-0.4-0.7-0.4-1.1c0-0.4,0.2-0.8,0.5-1.1s0.7-0.4,1.2-0.4c0.3,0,29.5,1.2,42.4,20.7l0.2,0.3l0.3,0.1
		c1.6,0.5,3.4,1.1,5,1.9c1,0.4,1.9,0.8,2.8,1.3l1.7,0.9l-0.3-1.9c-1.1-6.6-5.4-22.9-22.7-31.5C245.2,32.5,198.9,34,168.8,55.7
		c-32.1,23.4-36.9,54.5-39,84.2c-1.4,17.6-2.8,31-4.5,42.2v0.2c0,0.1,0,0.2,0,0.3l-0.1,0.2c-0.1,0.2-0.1,0.4-0.1,0.7
		c0,0.1,0,0.3-0.1,0.4v0.2c0,0.3-0.1,0.5-0.1,0.5l-0.1,0.2v0.2c-1,7.7-2.4,15.8-6.1,22.3c-4.5,7.6-11.3,8.2-11.3,8.2h-0.2
		c-0.4,0-0.9-0.4-0.9-0.7c0-0.4,0.2-0.9,0.7-1l0.2-0.1c2.1-0.7,7.3-3.4,9.3-12.6c0.1-0.6,0.3-1.2,0.4-1.8c0.2-0.8,0.4-1.7,0.6-2.7
		c0.3-1.3,0.5-2.6,0.9-3.9c0.2-0.8,0.4-1.6,0.5-2.5l0.6-2.9l-2.3,1.9c-7.6,6.5-17.3,17.7-20.6,34.5c-6.5,32.2,10.7,60.8,18.4,71.6
		c15.1,21.2,21.2,37.7,18,49c-1.3,5.1-4.7,10.1-8,14.9l-0.2,0.3c-4.2,6.1-8.1,11.8-6.7,15.9c2.8,9.2,3.5,14.4-0.3,20.6
		c-0.5,1-1.2,1.9-2.1,3.1l-0.2,0.3c-2.8,4.2-6,8.9-5,16.3c1.4,11.2,13.4,18.9,20.4,22.6l1.3,0.6l0.2-1.4
		c5-36.1,15.3-70.8,30.7-103.2c0.1-0.3,0.3-0.7,0.4-1c0.2-0.5,0.4-1,0.7-1.5l0.3-0.6c1.6-3.3,3.3-7,6.4-9.7c1.6-1.5,3.5-3.1,5.8-4.6
		l2.1-1.5l-2.5-0.3c-3.5-0.5-6.9-1.6-10.1-3.4c-0.4-0.2-0.6-0.7-0.4-1.1c0.2-0.4,0.7-0.7,1.1-0.5c0.3,0.1,8,2.1,16.6-0.3
		c7.8-2.2,13.5-6.4,14.5-7.2l0.5-0.4l-0.1-0.6c-0.1-0.6,0-1.2,0.3-1.9l0.1-0.2v-0.2c0.5-4.4,0.4-11.1,0.3-14.3v-1l-0.4-0.3
		c-14.5-10.8-24.4-22.1-30.2-34.6l-0.6-1.3l-1,1c-6.4,6.5-14.1,9.8-22.8,9.8c-2.8,0-6-0.4-9.3-1.2h-0.1c-0.1,0-0.3-0.1-0.5-0.1
		s-0.4,0-0.4,0c-0.5-0.2-0.8-0.6-0.7-1.1c0-0.5,0.4-0.8,0.9-0.8c0.3,0,0.5,0,0.8,0.1h0.1c1.4,0.2,6.8,0.5,17.1-3.2
		c5.1-1.8,9.8-5.5,13.9-10.7l0.1-0.1l0.1-0.2c0.1-0.3,0.2-0.5,0.2-0.7l0.1-0.2v-0.2c0-0.4,0.2-0.9,0.5-1.4c2.6-3.6,4.7-7.5,6.4-11.6
		c11.9-27.9,7.9-47.2,6.2-55.5v-0.2c-0.5-2-0.8-3.3-0.8-4.4c-0.1-3.9-0.1-5.5-0.1-6v-0.6l-0.5-0.3c-3.9-2.3-4.5-2.7-4.5-2.7l-1-1.2
		c-3-1.3-5.6-2.9-8.1-4.9c-5.8-4.8-6.6-6.3-6.6-6.4l-0.1-0.1c0-0.1-0.1-0.2,0.1-0.3c0.2-0.1,0.3-0.1,0.4,0l0,0
		c1.3,1.8,7.3,5.9,9.6,7.3c2.4,1.6,6.4,3.8,6.4,3.8l4.8-3.3l-1.5-0.9c-3.3-1.8-6.1-3.6-7.3-4.7c-1.3-1.2-3.1-2.8-3-3.3
		c0.1-0.1,0.6-0.3,0.6-0.3c1.7,2,12.8,8.4,12.8,8.4l3.6-1.8l-0.6-0.9c-0.6-0.9-2-3.3-3-7l-0.6-2.9c-0.4-2.8-0.5-5.6-0.1-8.5
		c0.3-2.8,1.5-6.7,3.4-11.1c2.7-6.3,13.1-27.7,33.8-40.4c2.9-1.8,5.8-3.3,8.6-4.4l-0.6-1.9c-6.4,1.2-12.5,2.9-17.7,4.9l-0.2,0.1
		c-0.3,0.1-0.6,0.1-0.7,0.1c-0.5,0-1.2-0.4-1.4-0.9c-0.4-0.8,0-1.7,0.8-2.1c0.1-0.1,14.6-6.6,36.3-7c9-0.2,17.1,0.5,24.2,2
		C268.6,70.1,270.3,70.6,271.5,71z"/>
</g>
<g id="vs-skin">
	<path fill="#FACFBD" d="M252.7,309.6c-7.6,0-15.5-2.5-24.3-7.6c-1.1-0.6-2.2-1.2-3.3-1.9c-2.3-1.3-4.7-2.7-7.2-4.2l-0.2-0.1h-0.3
		c-0.9-0.2-2.4-0.2-2.9-0.2c-2.8,0-6.8,0.7-9.5,3.5l-0.3,0.3v0.4c0,0.1,0,0.3,0,0.4c0,0.2-0.1,0.4-0.1,0.7v0.2l0.1,0.2
		c2.7,6.6,13,30.3,33.6,59.3l0.8,1.2l0.8-1.2c1.9-2.8,8.3-13,12.8-26.8c3.5-10.6,4.3-18.4,4.4-23.2v-1.2l-1.2,0.2
		C255,309.7,254,309.7,252.7,309.6z"/>
	<path fill="#FACFBD" d="M321.8,163.1c-0.1-0.2-0.1-0.4-0.1-0.6l-0.1-2.1l-1.6,1.4c0,0-0.2,0.1-0.3,0.1l-0.2,0.1
		c-4.3,2-13.9,3.6-26.9,4.5l-1,0.1l-0.1,0.9c-0.2,2.7,0.3,5.3,1.6,7.5c0.8,1.4,1.8,2.7,2.7,4.1c0.3,0.5,0.7,1,1,1.5
		c3,4.2,6.4,9,7.3,14.8c0.5,3.8-1.9,8.9-6.2,13.1c-5.1,4.9-11.7,7.7-18.1,7.7c-1.3,0-2.5-0.1-3.6-0.3c-0.3-0.1-0.5-0.2-0.7-0.4
		c-0.1-0.2-0.2-0.4-0.1-0.6c0.1-0.3,0.2-0.5,0.4-0.7c0.2-0.1,0.4-0.2,0.6-0.1c6.9,1.2,14.4-1.5,20.1-7c3.9-3.9,6.1-8.5,5.7-11.6
		c-0.7-5.2-3.7-9.4-6.8-13.9l-0.1-0.2c-1.5-2-2.8-3.9-3.8-5.7c-3.6-6-2.2-14.3,3.8-22.6c4.5-6.1,12.8-7.6,19.2-6.4
		c1.2,0.1,3.7,0.1,6.2-0.2l0.9-0.1v-0.9c0-0.2,0-0.4,0-0.6c0-0.3,0-0.4,0-0.6v-1.6c0-2.8-0.3-8.2-1.7-17.7c-0.3-1.7-0.8-3.7-1.4-5.9
		l-0.1-0.5l-0.5-0.2c-3.4-1.2-6.9-1.5-10.9-0.8c-8.8,0.6-14.8,7.3-16.4,9.4c-0.3,0.4-0.8,0.6-1.3,0.6c-0.3,0-0.6-0.1-0.9-0.3
		c-0.7-0.5-0.8-1.5-0.4-2.2c0.8-1,7.8-10,18.9-10.7c3.2-0.2,6,0,8.3,0.5l1.9,0.4l-0.8-1.8c-6.4-14.4-18.2-26.9-30.2-31.9
		c-1.3-0.6-2.8-1.1-4.2-1.6c-8.2-2.9-36.9-11.3-61.6,3.9c-10.8,6.7-20.9,17.7-27.8,30.1l-1.5,2.6l2.8-1.3c4.9-2.2,12.4-4.7,20.7-4.1
		c15.2,1.2,23.7,11.7,24.1,12.1c0.5,0.7,0.4,1.6-0.3,2.2c-0.3,0.3-0.6,0.4-1,0.4c-0.5,0-0.9-0.2-1.2-0.5l-0.1,0.1
		c-1.6-2.3-9.7-10.1-21.8-11c-11.9-0.9-22.4,5.2-25.3,7.2l-0.3,0.2l-0.1,0.3c-1.6,4-2.6,7.2-2.9,9.5c-1.2,9,2.8,14.7,3,14.9l0.1,0.1
		c0.1,0.1,0.1,0.2,0.2,0.3l0.4,0.8l0.8-0.3c1.5-0.5,3.1-1.1,4.9-1.4c8.7-1.6,17.5,0.5,20,1.2l0.2,0.1c0.1,0,0.3,0.2,0.4,0.4l0.2,0.4
		l0.5,0.1c3.1,0.6,5.9,1.6,8.5,2.8c10.3,4.9,20.7,19.3,20.8,19.5c0.3,0.4,0.2,1.1-0.2,1.3c-0.4,0.3-0.8,0.1-1.1-0.1l-0.2-0.1h-0.2
		c-1.4-0.2-4.6-2.4-6.3-3.6l-0.7-0.5l-0.5,0.2c-3,1-13.6,4.3-25.4,4.3c-2,0-3.9-0.1-5.8-0.3c-3.9-0.4-7.8-1.6-11.7-3.5l-0.2-0.1
		h-0.2c-0.1,0-0.1,0-0.2,0c0,0-0.2-0.1-0.3-0.2c-0.9-0.4-3.6-1.7-6.6-3.2l-1.5-0.7v3.2c0,0.5,0.2,1.4,0.6,3.4
		c1.9,8.7,6.3,29.2-6.4,59c-1.9,4.6-4.1,8.6-6.5,11.9l-0.3,0.4l0.2,0.5c8.2,22.3,28.6,36.9,47.4,48.2c1.2,0.7,2.4,1.4,3.6,2.1
		c1.6,0.9,3.2,1.9,4.8,2.8c0.5,0.3,1.1,0.6,1.6,0.9c0.6,0.3,1.1,0.7,1.6,0.9c7.9,4.6,14.8,6.8,21.5,6.8c2.1,0,4.1-0.2,6.2-0.6
		c5-1,10.2-3.2,16.9-7.2c14.2-8.4,38-36,46.7-71C331.1,191.4,322.2,164.2,321.8,163.1z M243.8,272.2c0.1-0.1,0.2-0.1,0.3-0.1h0.1
		l0.3,0.2c11.4,8.4,26.4,2.4,30.7,0.4c0.1,0,0.3,0,0.4,0.2c0,0.1,0,0.3-0.1,0.4c-5.7,2.7-11.2,4.1-16.5,4.1c-9.6,0-14.9-4.7-15-4.7
		C243.8,272.5,243.7,272.3,243.8,272.2z M216.4,233.8L216.4,233.8L216.4,233.8C216.3,233.8,216.3,233.8,216.4,233.8l-0.5,0.2
		l-0.4-0.3v-1c0,0,0,0-0.1,0h-0.5l-0.2,0.3c-0.1,0.1-0.2,0.2-0.2,0.3c-0.2,0.2-0.5,0.4-0.8,0.4c-0.2,0-0.3,0-0.5-0.2
		c-0.3-0.1-0.4-0.4-0.4-0.5c-0.1-0.2,0-0.5,0.1-0.7c0.4-0.9,1-2.5,1.4-3.8l0.3-0.8c0.1-0.3,0.2-0.6,0.2-0.8s0.1-0.3,0.1-0.4
		c0.2-0.5,0.7-0.7,1.2-0.5s0.7,0.7,0.5,1.2l-0.1,0.1v0.2l-0.4,0.9l0.9,0.4c8.1,4.1,29.2,13.3,49.7,11.8c22-1.7,31.2-7.2,32.9-8.3
		l0.6-0.4l-0.2-0.7c0-0.1,0-0.2-0.1-0.4c-0.1-0.6,0.4-1,0.8-1c0.6-0.1,1,0.4,1,0.8v0.1c0,0.1,0.1,0.2,0.1,0.4c0.1,0.5,0.2,1,0.4,1.3
		c0.2,0.4,0.1,1-0.4,1.2c-0.1,0-0.3,0-0.5,0h-0.8l-0.3,0.2c-0.4,0.3-1,0.7-2,1.2l-0.6,0.3v0.5c0,0.1-0.1,0.2-0.1,0.3
		c-0.2,0.5-1.1,2.4-2.2,4.7c-0.6,1.2-1.2,2.6-2,4.1l-0.1,0.1c-3.9,8.1-7,14.5-22.5,17c-4,0.7-8.1,1-12.1,1c-9.7,0-18.3-2.1-25.6-6.2
		C224.8,252.1,218.5,238.4,216.4,233.8v-0.2C216.4,233.6,216.4,233.7,216.4,233.8z M216.3,233.9c0,0,0,0.1,0,0.2V233.9L216.3,233.9z
		 M216.1,234.3l-0.3-0.2l0.4-0.1C216.3,234.1,216.2,234.2,216.1,234.3z M216.3,234.2c0,0.1-0.1,0.1-0.1,0.2l0,0L216.3,234.2z"/>
</g>
<path fill="none" stroke="#000000" stroke-width="3.8148" stroke-linecap="round" stroke-linejoin="round" stroke-miterlimit="10" d="
	M244.9,170.6c0,0-10.4-14.4-20.5-19.2s-19.7-3.7-28.9-1.4s-12.8,9.4-12.8,9.4s9.9,9.5,22.6,10.9c12.7,1.4,27.7-2.4,34.1-5.3"/>
<path fill="none" stroke="#000000" stroke-width="3.8148" stroke-linecap="round" stroke-linejoin="round" stroke-miterlimit="10" d="
	M237.3,166.2c0,0,5.2,3.8,6.9,4.1"/>
<path fill="none" stroke="#000000" stroke-width="3.8148" stroke-linecap="round" stroke-linejoin="round" stroke-miterlimit="10" d="
	M193.3,166.8c0,0-6.9-3.1-12.5-6.2s-6.6-3.9-6.6-3.9s11.2-8.4,21-10.2s22,2.4,22,2.4"/>
<path fill="none" stroke="#000000" stroke-width="3.8148" stroke-linecap="round" stroke-linejoin="round" stroke-miterlimit="10" d="
	M190.8,149.1c0,0-7.2,4.6-8.4,6.5c-1.1,1.9-1.8,3.1-1.8,3.1s-4.1-1.1-3.7-1.7s7.5-5,7.5-5"/>
<path fill="none" stroke="#000000" stroke-width="7" stroke-linecap="round" stroke-linejoin="round" stroke-miterlimit="10" d="
	M205.3,161.2c0,0,3.2,0.8,4.1-1.4c0.9-2.2,0.4-2.9,0.4-2.9s2.7,1,1.8,4.1s-4.1,2.9-6.1,0.5"/>
<path fill="none" stroke="#000000" stroke-width="5" stroke-linecap="round" stroke-linejoin="round" stroke-miterlimit="10" d="
	M300.7,157.9c0,0,3.2,0.8,4.1-1.4s0.4-2.9,0.4-2.9s2.7,1,1.8,4.1s-4.1,2.9-6.1,0.5"/>
<path fill="none" stroke="#000000" stroke-width="2.5432" stroke-linecap="round" stroke-linejoin="round" stroke-miterlimit="10" d="
	M176,158.4c-0.6-0.8-5.3-1.5-11.2-6.4s-6.6-6.4-6.6-6.4s2.7,2.8,9.7,7.2s10.2,5.3,10.7,5.3"/>
<path fill="none" stroke="#000000" stroke-width="2.5432" stroke-linecap="round" stroke-linejoin="round" stroke-miterlimit="10" d="
	M182.4,153.6c0,0-10.3-5.3-13.4-8c-3.1-2.7-2.9-3.1-2.9-3.1s7.6,6.4,14.1,8.6"/>
<path fill="none" stroke="#000000" stroke-width="2.5432" stroke-linecap="round" stroke-linejoin="round" stroke-miterlimit="10" d="
	M186.1,149.1c0,0-6.4-2.9-8.3-6.2c-1.8-3.2-1.8-3.2-1.8-3.2s3.9,6.4,9.7,8.3"/>
<path fill="none" stroke="#000000" stroke-width="3.8148" stroke-linecap="round" stroke-linejoin="round" stroke-miterlimit="10" d="
	M291.9,165.3c0,0,19.8-1,27.1-4.5s6.2-8.8-0.3-12s-17.5-2.3-22.6,4.6c-5,6.9-7.6,15.1-3.8,21.6s9.8,12.3,10.9,20.1
	s-11.7,22.1-26.8,19.6"/>
<path fill="none" stroke="#000000" stroke-width="2.5432" stroke-linecap="round" stroke-linejoin="round" stroke-miterlimit="10" d="
	M314.1,146.8c0,0,3.9,0.3,7.9-0.4s7.8-5.7,7.8-5.7s-2.4,4.5-4.8,6.4s-4.1,1.4-4.1,1.4l1-0.8"/>
<path fill="none" stroke="#000000" stroke-width="2.5432" stroke-linecap="round" stroke-linejoin="round" stroke-miterlimit="10" d="
	M323,149.4c0.3,0.1,1.5,1.5,5.6,0.5s8.8-6.9,8.8-6.9s-4.2,6-7,7.9c-0.1,0.1-0.3,0.1-0.3,0.3c-2.7,1.8-5,1.1-5,1.1s0.4-0.5,0.5-0.6"
	/>
<path fill="none" stroke="#000000" stroke-width="2.5432" stroke-linecap="round" stroke-linejoin="round" stroke-miterlimit="10" d="
	M325,156.4c0,0,2.4,0.6,6.2-0.3s6.9-2.5,6.7-2.4c-0.1,0.1-2.8,2.3-9.5,4.6s-7.6,2.3-7.6,2.3l6.6-3.1h-2.8"/>
<path fill="none" stroke="#000000" stroke-width="2.5432" stroke-linecap="round" stroke-linejoin="round" stroke-miterlimit="10" d="
	M323.9,148.6c0,0,3.3,2.8,3.3,4.8s-0.5,2.8-0.5,2.8l-0.6-1.7"/>
<path fill="none" stroke="#000000" stroke-width="5.0864" stroke-linecap="round" stroke-linejoin="round" stroke-miterlimit="10" d="
	M289.3,125.5c0,0,6.9-9.4,17.7-10s15.4,3.6,15.4,3.8"/>
<path fill="none" stroke="#000000" stroke-width="5.0864" stroke-linecap="round" stroke-linejoin="round" stroke-miterlimit="10" d="
	M187.2,120.3c0,0,12.6-9.2,27.2-8s23,11.6,23,11.6"/>
<path fill="none" stroke="#000000" stroke-width="3.8148" stroke-linecap="round" stroke-linejoin="round" stroke-miterlimit="10" d="
	M215.6,226.7c-0.3,0.6-1.3,4.5-2.2,6"/>
<path fill="none" stroke="#000000" stroke-width="3.8148" stroke-linecap="round" stroke-linejoin="round" stroke-miterlimit="10" d="
	M215.1,228.9c0,0,26.1,14.5,51.5,12.6c25.3-1.9,34-8.9,34-8.9"/>
<path fill="none" stroke="#000000" stroke-width="3.8148" stroke-linecap="round" stroke-linejoin="round" stroke-miterlimit="10" d="
	M300.7,230.6c0,0,0.1,1.3,0.5,2.2"/>
<path fill="none" stroke="#000000" stroke-width="3.8148" stroke-linecap="round" stroke-linejoin="round" stroke-miterlimit="10" d="
	M216.7,232.2c0.3,0,7.2,18.4,17,23.9s22,7.5,37.1,5.1c15-2.4,18.1-8.6,21.9-16.7s4.1-8.8,4.1-8.8l-5.7,3.9l-0.5,7.5"/>
<path fill="none" stroke="#000000" stroke-width="3.8148" stroke-linecap="round" stroke-linejoin="round" stroke-miterlimit="10" d="
	M226.3,235.2l-1.8,9.9c0,0-0.1-5.3-0.6-6.6s-2.5-3.9-2.5-3.9l-2.3-1.1l5.3,2.3"/>
<path fill="none" stroke="#000000" stroke-width="2.5432" stroke-linecap="round" stroke-linejoin="round" stroke-miterlimit="10" d="
	M244.1,272.3c0,0,11.3,10,31.2,0.6"/>
<path fill="none" stroke="#000000" stroke-width="7.6296" stroke-linecap="round" stroke-linejoin="round" stroke-miterlimit="10" d="
	M169.4,240.4c2.4-3.3,4.7-7.4,6.7-12.2c14.9-34.7,5.7-56.3,5.6-61.3s-0.1-6.1-0.1-6.1"/>
<path fill="none" stroke="#000000" stroke-width="3.8148" stroke-linecap="round" stroke-linejoin="round" stroke-miterlimit="10" d="
	M170.5,243.2c-14.8,20.6-34.8,13-36.2,13c0,0,5.6,1.5,18.2-3.1c12.6-4.6,18.8-17.9,19.8-19.6"/>
<path fill="none" stroke="#000000" stroke-width="7.6296" stroke-linecap="round" stroke-linejoin="round" stroke-miterlimit="10" d="
	M186.4,147.6c0,0-5-6.5-3.6-17c1.4-10.6,14.4-36.2,36-49.6s49-10.6,68.3-2.5s33.3,30.8,35.6,46.2c2.3,15.5,1.7,20,1.7,20
	s1.9,4.5,1.3,8.1"/>
<path fill="none" stroke="#000000" stroke-width="7.6296" stroke-linecap="round" stroke-linejoin="round" stroke-miterlimit="10" d="
	M169,241.8c10.2,29.8,41.1,46.3,60.9,57.9s32.6,7.8,47.4-1s39-36.6,47.9-72.7s-0.9-64.1-0.9-64.1"/>
<path fill="none" stroke="#000000" stroke-width="5.0864" stroke-linecap="round" stroke-linejoin="round" stroke-miterlimit="10" d="
	M206.7,75.9c0,0,14.6-6.5,35.7-6.9s31.7,3.9,31.9,4.8"/>
<path fill="none" stroke="#000000" stroke-width="5.0864" stroke-linecap="round" stroke-linejoin="round" stroke-miterlimit="10" d="
	M240.2,54.4c0,0,31.5,1.5,42.7,22.6"/>
<path fill="none" stroke="#000000" stroke-width="3.8148" stroke-linecap="round" stroke-linejoin="round" stroke-miterlimit="10" d="
	M121.7,181.4c-1.1,7.4-3.1,15-4.1,19.8c-2.5,11.7-10.2,13.4-10.2,13.4s6.5-0.5,10.7-7.8s5.2-16.7,6.4-24.7"/>
<path fill="none" stroke="#000000" stroke-width="7.6296" stroke-linecap="round" stroke-linejoin="round" stroke-miterlimit="10" d="
	M295.8,80.5c0,0-0.5-26.2-24.8-38.4s-71.5-12.2-103.5,11.2s-37.9,53.9-40.2,86.3c-1.4,19.2-3.1,33.2-4.7,43.9"/>
<path fill="none" stroke="#000000" stroke-width="7.6296" stroke-linecap="round" stroke-linejoin="round" stroke-miterlimit="10" d="
	M122.8,181.9c0,0-23,12.6-28.7,41.2s6.2,56.1,18.8,73.8s20.9,35.1,17.7,46.5s-17.9,23.5-15,32.8s3.1,13.2,0,18.3s-9,10.8-7.6,21.5
	c2.2,16.9,25.2,26.2,25.2,26.2"/>
<path fill="none" stroke="#000000" stroke-width="3.8148" stroke-linecap="round" stroke-linejoin="round" stroke-miterlimit="10" d="
	M201.1,305c-1.3,5.2-18.4,14.5-34.3,5.7c0,0,8,2.3,17.2-0.3s15.9-8.1,15.9-8.1l1,1.7c0,0-3.4,4.1-3.7,4.2s-3.3,0.9-3.3,0.9"/>
<path fill="none" stroke="#000000" stroke-width="7.6296" stroke-linecap="round" stroke-linejoin="round" stroke-miterlimit="10" d="
	M202.2,284.7c0,0,0.5,12.6-0.8,17.8"/>
<path fill="none" stroke="#000000" stroke-width="7.6296" stroke-linecap="round" stroke-linejoin="round" stroke-miterlimit="10" d="
	M201.4,301c0,0,11.6,31.2,40.8,69.9"/>
<path fill="none" stroke="#000000" stroke-width="7.6296" stroke-linecap="round" stroke-linejoin="round" stroke-miterlimit="10" d="
	M259.8,306.8c0,0,1.4,10-4.5,27.8c-5.8,17.8-14.8,30-14.8,30"/>
<path fill="none" stroke="#000000" stroke-width="7.6296" stroke-linecap="round" stroke-linejoin="round" stroke-miterlimit="10" d="
	M202.9,297.3c5.6-6,15.1-4.2,15.1-4.2l-12.8-3.4"/>
<path fill="none" stroke="#000000" stroke-width="7.6296" stroke-linecap="round" stroke-linejoin="round" stroke-miterlimit="10" d="
	M262.3,316.1c0,0,28.7,12.3,28.6,29.6c-0.1,17.3-11.4,56.1-11.4,56.1c0.9,5.8,1,12.5-0.3,18.2c-1.8,8.6-6.9,16.1-12.3,23"/>
<path fill="none" stroke="#000000" stroke-width="7.6296" stroke-linecap="round" stroke-linejoin="round" stroke-miterlimit="10" d="
	M201.1,305c-11.1,6.2-22.5,13.4-28.1,18.4c-3.4,3.1-5.1,7.8-7.1,12c-16.4,34.7-27.1,72.2-31.5,110.4"/>
<path fill="none" stroke="#000000" stroke-width="7.6296" stroke-linecap="round" stroke-linejoin="round" stroke-miterlimit="10" d="
	M179.5,393.2c-5,16.8-6.2,34.6-3.6,51.9"/>
<path fill="none" stroke="#000000" stroke-width="7.6296" stroke-linecap="round" stroke-linejoin="round" stroke-miterlimit="10" d="
	M273,380.3c0.1,7.9,4.2,15.1,6.6,22.8"/>
<path fill="none" stroke="#000000" stroke-width="7.6296" stroke-linecap="round" stroke-linejoin="round" stroke-miterlimit="10" d="
	M278.1,431.2c-0.5,6.4,0.1,12.8,2,18.9"/>
<path fill="none" stroke="#000000" stroke-width="7.6296" stroke-linecap="round" stroke-linejoin="round" stroke-miterlimit="10" d="
	M191.4,435.5c3.9,4.2,9.5,6.7,15.4,7"/>
<path fill="none" stroke="#000000" stroke-width="7.6296" stroke-linecap="round" stroke-linejoin="round" stroke-miterlimit="10" d="
	M296.1,73.3c0,0,44.6,16.8,51.4,51.2c6.7,34.5,1.5,56,8,72.2c6.6,16.3,23.1,48.7,5.5,71c-17.5,22.3-49.8,35.4-42.3,68.3
	c7.4,32.8,25.4,49.2,12.3,71.2s-53.7,17.3-59.8,29.8"/>
<path fill="none" stroke="#000000" stroke-width="3.8148" stroke-linecap="round" stroke-linejoin="round" stroke-miterlimit="10" d="
	M334.3,293.3c0,0-12.7,0.5-21.2,5.3s-18.3,25.3-18.3,25.3s4.8-11.6,13.1-18.4S328,298,328,298l1.4-2.7l-7.1,0.9"/>
<path fill="none" stroke="#000000" stroke-width="28" stroke-linecap="round" stroke-linejoin="round" stroke-miterlimit="10" stroke-opacity="0" d="
	M118.7,433.3c2.5-2.4,4.1-7.1,4.1-7.1s5.3-11,4.8-11.7c-0.5-0.7-11-1.8-11-1.8l-0.3-19.5c0,0,12.5,7.5,13.2,3.4s5-22.8,5-22.8
	s-15.6-1-16.2-4.5c-0.6-3.4,3.4-22,3.4-22s20.6,11.9,20.6,10.8s5-19.5,5-19.5s-14.2-9.2-16.5-11.5c-2.3-2.2-9.9-15.1-9.9-15.1
	l34.2,14.4l11.6-17.5c0,0-58.2-11-58.6-11.6c-0.5-0.7-0.8-5-0.8-5l79.9,5l-0.7-7.6c0,0-81-14.2-83.7-15s-5.9-9.5-5.9-9.5
	s83.9,12.4,81.6,11.7c-2.3-0.7-10.9-11.7-10.9-11.7l-12.8-12.5l-58-7.6l6.9-23.4l52.6,11.8l8.6-13c0,0-61-11.2-57.6-16.2
	s8.6-15.1,8.6-15.1l52.4,17.1l2.6-19.1l-37.8-9.6l-6.2-14.2c0,0,45.7,9.2,45.4,8.4s-3.5-17.8-3.5-17.8s-42.2-6.7-42.1-8
	s-2.3-10.6-2.3-10.6l47.4,11.9l-2.5-17.1c0,0-34.5-7.6-34.5-8.4s0.1-13,0.1-13s37.2,6.6,37.5,6.1s5.4-8.4,5.4-8.4s-30.7-7.5-30-10.5
	s5.8-21.6,5.8-21.6s32.6,17.4,32.6,16.8s11.5-12.1,11.5-12.1s-27.2-17.4-26.9-18.5s12.5-10.4,12.5-10.4L213.9,69l17-7.3
	c0,0-32.6-21.1-29.5-21.4c3.1-0.3,21.2-4.3,21.2-4.3l28.5,22.9l11.7,1c0,0-12-21.4-10.4-20s28.9,21,28.9,21l7,5.4
	c0,0,38.4,23.4,46,43.4s4.1,43.9,4.1,43.9l7.9,43.8l-1.7,13.1l18.5,6l2.3,10.7c0,0-25.5-3.7-26-3.5s-3.8,16.5-3.8,16.5
	s25.8,3.6,25.8,4.2s0.3,10.8,0.3,10.8s-31.5-3.5-31.9-3.3s-6.7,14.2-6.7,14.2s37.5,6.3,35.9,7.2s-4.5,6.2-7.9,7.2
	c-3.5,1-36.8-2.8-36.8-2.8s-14.7,16.5-14.7,17.1s18,6.2,18,6.2s2.4,0.4,0.8,0.9c-1.6,0.6-26.5,7.8-26.5,7.8l-14.2,2.5l-1.7-0.6
	l46,8.6c0,0,4.1,7.2,3,7.2s-28.5-1.2-28.5-1.2l10.7,22.9l10.6-1.3l13.4,16.9h-28.7l-2.8,18.4l26.4-1.7l0.9,12.5c0,0-30.7,0.2-31,1.8
	c-0.3,1.7-2.3,10.4-1.5,10.4s26,1.5,26,1.5s-27.7,12.5-28.3,12.8"/>
<path fill="none" stroke="#000000" stroke-width="28" stroke-linecap="round" stroke-linejoin="round" stroke-miterlimit="10" stroke-opacity="0" d="
	M250.2,72.4c-9.6,4.8-63,36.7-63,36.7s-5.2,27.9-3.4,23.6c1.8-4.4,92.6-56.9,97.2-54.6s19.2,8.6,19.2,8.6l-118.5,70.1l-0.4,24.2
	c0,0,132-79.3,132.8-77.9s3.8,17.4,3.8,17.4s-135.4,73.7-140.7,85.6s-19.2,34.5-9.5,28.4s155.5-99.9,155.3-99.2
	c-0.2,0.7,7.7,18.6,5.9,18.4s-159.3,94.6-157.7,97.9c1.6,3.2,8.6,14.5,8.8,12.5s143-82.6,143-82.6v15.7c0,0-130.6,71.4-125.5,77.2
	s11.7,12.9,11.7,12.9L326.7,219l-22.1,28.3c0,0-94.6,50.8-93.8,51.5c0.7,0.7,10.9,11,10.9,11s74.3-41.4,74.4-41.7
	c0.1-0.3-49.4,38.8-49.4,38.8s-24.6,14.5-24.3,14.8c0.2,0.3,6.1,10.3,6.1,10.3l18.2-10.8c0,0-4.4,17.7-5.2,18.5s-3.6,7.2-3.6,7.2
	l-1.7-7.1"/>
<path fill="none" stroke="#000000" stroke-width="28" stroke-linecap="round" stroke-linejoin="round" stroke-miterlimit="10" stroke-opacity="0" d="
	M206.8,313.3c-3.9,0.4-40.9,21.9-42.4,25.3s-16.2,26.9-13.3,26s70.7-38.3,70.7-38.3l17.4,2l27.7-5.6c0,0-120.4,56.1-121.9,62.1
	s-5.5,21.3-5.5,21.3s142.8-76.6,144.3-71.8c1.5,4.7,7.6,14.1,7.6,14.1l-151.9,79.2l-2.1,15.5l148.9-67.6l-6.2,9.8l-122.9,60.5h15.1
	l103-34.8l0.6,6.1c0,0-95.6,31.8-84.5,35.5s33.7,8.3,33.7,8.3s49.4-21.8,51.2-21.8"/>
</svg>
