<?xml version="1.0" encoding="utf-8"?>
<!-- Generator: Adobe Illustrator 25.1.0, SVG Export Plug-In . SVG Version: 6.00 Build 0)  -->
<svg version="1.1" id="Layer_1" xmlns="http://www.w3.org/2000/svg" xmlns:xlink="http://www.w3.org/1999/xlink" x="0px" y="0px"
	 width="1000px" height="1000px" viewBox="0 0 1000 1000" enable-background="new 0 0 1000 1000" xml:space="preserve">
<g id="vs-hair">
	<path fill="#D6D6D6" d="M462.3,138.4l-0.5-24c-13-1.6-22.4-6.1-19.3-21.2c7.7-14.2,17-19,27.9-15l51.7,12.4c0,0,27.1,6.5,39.3,2.2
		c12.2-4.3,8.4-14.8,9.7-19.2c1.7-5.9-35.6-26-39.1-24.3c0,0-26.3-1.7-51.1,2.7c-24.8,4.4-42,10.7-42,10.7l-10.3,20l-2.2,37v30.9
		l4.7,19.1l12.3,13.1l11.5,2.2l0.2-23.8l-12.8-7.3l-0.1-13.6l7.4-2.1l8,4.5L462.3,138.4z"/>
</g>
<g id="vs-skin">
	<path fill="#F9D8B4" d="M554.6,343l10.2,43.9c0,0,1.7-1.5,27.8-4.5c7.4-0.8-2.8-41-2.8-41L554.6,343z"/>
	<polygon fill="#F9D8B4" points="451,341.4 445.5,382.8 385.7,402.2 375.6,397.5 365.5,395 357.3,388.9 353.2,384.4 370.3,363.9 
		398.7,348.9 431.7,341.1 	"/>
	<path fill="#F9D8B4" d="M429.3,906.9c0,0.9,0.4,25.9,0.4,25.9h26.2l-1.8-25.9H429.3z"/>
	<polygon fill="#F9D8B4" points="520.8,909.2 546.6,906.1 546,929.4 521.5,929.4 	"/>
	<path fill="#F9D8B4" d="M456.9,210.7c24.4,5,47.3,6.1,67.6,0.9l-0.6-13l26.4-6.9c8.2-7.3,12.6-20.2,12.2-40l-0.8-43.9l-4.4-14.1
		c-22.7-0.1-43.7-3.6-62.9-10.7c-28.7-9.1-45.6-7-50.6,6.5c-4.7,17,1.4,23.7,14.1,23.9l5.3,3.6l-2,24.1l-8-0.2l-9-3.8l-4.2,12.3
		l6.3,8.2l8.9,3.7L456.9,210.7z"/>
</g>
<g id="vs-colour">
	<path fill="#FFFFFF" d="M429.3,935.9v11.5c0,0,61.3,5.2,61.3-4.3C490.6,933.7,429.3,935.9,429.3,935.9z"/>
</g>
<g id="vs-colour_1_">
	<path fill="#FFFFFF" d="M520.8,931.5v12.6c0,0,57.8,5.7,57.8-4.7S520.8,931.5,520.8,931.5z"/>
</g>
<g id="vs-secondary">
	<path fill="#5F5F5F" d="M460.8,442.3l90.5,0.3l32.6,9c-0.4,161.8-4.7,313.7-16.4,448.1l-60,8.2l8.7-359.4
		c-24.4,57.4-33,128.6-34.8,205.7l-6.6,151.2l-59.7-1l2.4-454C433.4,449.7,447.9,447.3,460.8,442.3z"/>
</g>
<g id="vs-primary">
	<path fill="#FF5648" d="M649,310.7c-13.1-53.3-47.3-87.2-120.9-84.9l-2.3-11.7c-23.7,3.1-46.7,3.2-68.6-1l-2.1,13.8
		c-33.7-2.4-67.4,25-67.4,25c-25.7,18.5-38.5,54.2-47.9,94.3c-7.2,38.9-0.5,72.9,38.6,95.1c27.3,12.6,56.2,12.2,86.6-0.9l81.8-1.6
		c0,0,21.8,15.4,47.7,10.8c25.8-4.7,38.2-27.5,50-42.3c11.8-14.8,13.1-64,13.1-64L649,310.7z M445.5,382.8l-59.8,19.4l-10.1-4.7
		l-10.1-2.6l-8.2-6.1l-4.1-4.4l17.2-20.5l28.4-15l33-7.8l19.2,0.3L445.5,382.8z M592.7,382.5c-26.1,3-27.8,4.5-27.8,4.5l-10.2-44
		l35.3-1.5C589.9,341.5,600.1,381.7,592.7,382.5z"/>
</g>
<g id="vs-outline">
	<path fill="none" stroke="#120606" stroke-width="7" stroke-linecap="round" stroke-linejoin="round" stroke-miterlimit="10" d="
		M525.3,196.7l0.4,4.8l0.6,6.7l0.4,4.7c-3.4,0.6-6.9,1-10.3,1.4c-4.5,0.5-9,0.8-13.6,1c-8.8,0.3-17.6,0-26.6-0.8
		c-4.4-0.4-8.9-1-13.3-1.6c-2.6-0.4-5.1-0.8-7.7-1.3v-6.9V194v-6.9c-6.5-1.4-12.2-4-16.9-8.3c-6.1-5.6-10.5-14.1-12.3-26.8
		c-1.1-7.7-1.2-16.9-0.3-27.9c0.1-9.4,0.2-18.7,0.9-27.3c1.1-12.1,3.4-22.8,8.6-30c3.4-4.8,8.1-8.1,14.5-9.3
		c17.4-3.8,33.4-6.4,47.7-7.6c15.5-1.3,29.1-1,40.4,1.3c15.1,3.1,26.1,9.7,31.9,20.7c2.9,8.7,1.7,14.6-2.9,18.2
		c-6,4.6-17.6,5.3-33.5,3.1l-32.5-7.9l-28.7-7c-6.4-1.2-12.1-1.2-16.9,0.5c-4.8,1.7-8.6,5.1-11.2,10.5c-2.2,4.6-2.7,10.1-0.9,14.8
		c2.7,6.8,8.9,10.2,20.2,8.7v29.1h-10c0,0-2.8-6.4-8.2-4c-5.4,2.4-4.9,11.1-4.9,11.1s1.5,9.3,14.3,9l0.2,9.4l0.2,10.5l0.2,9"/>
	<path fill="none" stroke="#120606" stroke-width="7" stroke-linecap="round" stroke-linejoin="round" stroke-miterlimit="10" d="
		M508,201.6c2.4-0.7,4.7-1.4,7.1-2c4.7-1.3,9.4-2.6,13.8-3.8c5.4-1.4,10.7-2.7,15.5-3.7c8.1-1.7,14.3-8.2,15.5-16.4
		c2.7-19.6,4.1-38.2,3.1-55.3c-0.4-6-1-11.9-2-17.5c-0.5-2.8-1.1-5.6-1.8-8.3"/>
	<path fill="none" stroke="#120606" stroke-width="7" stroke-linecap="round" stroke-linejoin="round" stroke-miterlimit="10" d="
		M486.1,116.9c0,0,4-2.6,11.3-3.1"/>
	
		<line fill="none" stroke="#120606" stroke-width="7" stroke-linecap="round" stroke-linejoin="round" stroke-miterlimit="10" x1="535.6" y1="112" x2="542.8" y2="111.2"/>
	<path fill="none" stroke="#120606" stroke-width="7" stroke-linecap="round" stroke-linejoin="round" stroke-miterlimit="10" d="
		M490.4,130.7l8.1-1.4c0,0,0.9,7.7-3.2,7.7C491.1,137,490.4,130.7,490.4,130.7z"/>
	<path fill="none" stroke="#120606" stroke-width="7" stroke-linecap="round" stroke-linejoin="round" stroke-miterlimit="10" d="
		M538.4,128.3h8c0,0-0.3,7-3.7,7C539.3,135.3,538.4,128.3,538.4,128.3z"/>
	<path fill="none" stroke="#120606" stroke-width="7" stroke-linecap="round" stroke-linejoin="round" stroke-miterlimit="10" d="
		M519.5,124.1c0,0-14,32.6,1.7,32.6C536.9,156.7,519.5,124.1,519.5,124.1z"/>
	
		<path fill="none" stroke="#120606" stroke-width="5.25" stroke-linecap="round" stroke-linejoin="round" stroke-miterlimit="10" d="
		M482.6,142.1c0,0,7.5,14.1,18.1,3.6"/>
	
		<path fill="none" stroke="#120606" stroke-width="5.25" stroke-linecap="round" stroke-linejoin="round" stroke-miterlimit="10" d="
		M486.1,156.7c0,0,4.4,3.5,10.8,0"/>
	
		<path fill="none" stroke="#120606" stroke-width="5.25" stroke-linecap="round" stroke-linejoin="round" stroke-miterlimit="10" d="
		M537.8,145.4c0,0,5.4,4.9,12.4-1.4"/>
	
		<path fill="none" stroke="#120606" stroke-width="5.25" stroke-linecap="round" stroke-linejoin="round" stroke-miterlimit="10" d="
		M541,154.4c0,0,5.1,2.9,9.8-0.5"/>
	<path fill="none" stroke="#120606" stroke-width="7" stroke-linecap="round" stroke-linejoin="round" stroke-miterlimit="10" d="
		M510.9,175.2c0,0,13.6,1,28.6-2.7"/>
	<path fill="none" stroke="#120606" stroke-width="7" stroke-linecap="round" stroke-linejoin="round" stroke-miterlimit="10" d="
		M394.8,350l2.7-10.2"/>
	<path fill="none" stroke="#120606" stroke-width="7" stroke-linecap="round" stroke-linejoin="round" stroke-miterlimit="10" d="
		M592.7,350l-1.3-7l-2.8-14.5l-1.4-7.3"/>
	<path fill="none" stroke="#120606" stroke-width="7" stroke-linecap="round" stroke-linejoin="round" stroke-miterlimit="10" d="
		M455.1,211.6v15.2c-4.9,0.4-9.7,0.9-14.2,1.7c-4.9,0.8-9.6,1.9-14.1,3.1c-26.7,7.6-46.4,22.9-60.5,43.7
		c-11.6,17.1-19.6,37.9-24.7,61.2c-1.3,5.8-2.3,11.7-3.3,17.7c0,0,0,0.1,0,0.1c-1,6.8-1.2,13.6-0.5,20.5l1,11.1
		c1.4,8.6,3.6,16.7,7,24c6.1,13.1,15.9,23.8,31.3,30.7c10.3,4.7,23.2,7.6,39.1,8.6c0,0,14.6,2.3,40.8-6.5
		c14.6-4.9,32.7-13.2,53.9-27.2c14.4-9.5,26.5-16.3,36.5-21.2c10.6-5.2,19-8.2,25.4-10c12.6-3.4,17.8-1.9,17.8-1.9"/>
	<path fill="none" stroke="#120606" stroke-width="7" stroke-linecap="round" stroke-linejoin="round" stroke-miterlimit="10" d="
		M590.7,340.3c0,0-64-1-104.6,26.2c-40.6,27.3-67.1,24.3-67.1,24.3"/>
	<path fill="none" stroke="#120606" stroke-width="7" stroke-linecap="round" stroke-linejoin="round" stroke-miterlimit="10" d="
		M526.7,213l0.6,5.8l0.8,7c3.9-0.2,7.7-0.2,11.4-0.1c11.1,0.2,21.2,1.3,30.5,3.3c50.5,11,73.9,48,84.1,97.6c0.8,3.6,1.4,7.3,2,11.1
		c0,0,0,0.1,0,0.1c1,6.1,1,12.2,0.2,18.3l-1.3,9.6c-1.2,7.3-2.7,14.2-4.4,20.6c-5.9,21.9-15,38.9-28.2,49.8
		c-10.2,8.5-22.9,13.2-38.6,13.6c-16.2-1.8-35.6-8.3-56.2-16.7c-3.4-1.4-6.8-2.8-10.3-4.3c-4.2-1.8-8.4-3.6-12.6-5.5"/>
	<path fill="none" stroke="#120606" stroke-width="7" stroke-linecap="round" stroke-linejoin="round" stroke-miterlimit="10" d="
		M592.7,350c0.6,3.5,1,6.7,1.3,9.8c0.5,5.6,0.6,10.6,0.2,14.8c-1.4,14.9-8.3,21.9-18.4,24.2c-5,0.6-9.1,0.4-12.4-0.5
		c-4.5-1.1-7.8-3.4-10.3-6.3"/>
	<path fill="none" stroke="#120606" stroke-width="7" stroke-linecap="round" stroke-linejoin="round" stroke-miterlimit="10" d="
		M503.2,357.1c-5.8-3.4-11.6-6.2-17.4-8.6c-25.4-10.3-50.8-11.1-76.2-3.7c-4.9,1.4-9.9,3.1-14.8,5.2c-14.8,5.2-24.4,13.9-24.4,13.9
		l-6.2,6.9l-6.8,7.6c0,0-10.6,9.9,0,10.4c8-2.1,15.9-11,24.6-16.5c2.7-1.7,5.4-3,8.3-3.8"/>
	<path fill="none" stroke="#120606" stroke-width="7" stroke-linecap="round" stroke-linejoin="round" stroke-miterlimit="10" d="
		M360.2,388.8c0,0-2,5.1,1.9,5.6c1.2,0.2,4.5-1.4,8.5-3.6c4.6-2.5,10.2-5.9,14.5-8.7c4.1-2.6,7.2-4.6,7.2-4.6"/>
	<path fill="none" stroke="#120606" stroke-width="7" stroke-linecap="round" stroke-linejoin="round" stroke-miterlimit="10" d="
		M368.9,394.5c0,0-2.4,3.4,1.7,4.7c1.3,0.4,4.8-0.9,9-2.8c6-2.7,13.4-6.8,18-9.4c2.6-1.5,4.3-2.5,4.3-2.5"/>
	<path fill="none" stroke="#120606" stroke-width="7" stroke-linecap="round" stroke-linejoin="round" stroke-miterlimit="10" d="
		M383.4,396.5c0,0-2.7,4.3-0.7,6.1c0.5,0.4,3.3-0.4,7.5-2c1.8-0.7,4-1.5,6.3-2.3c11.8-4.5,29-11.2,41.9-13.9c4.9-1,9.2-1.5,12.4-1"
		/>
	
		<line fill="none" stroke="#120606" stroke-width="7" stroke-linecap="round" stroke-linejoin="round" stroke-miterlimit="10" x1="553.1" y1="343.3" x2="562.4" y2="387.9"/>
	
		<line fill="none" stroke="#120606" stroke-width="7" stroke-linecap="round" stroke-linejoin="round" stroke-miterlimit="10" x1="452.9" y1="340.4" x2="447.7" y2="383.2"/>
	
		<polyline fill="none" stroke="#120606" stroke-width="7" stroke-linecap="round" stroke-linejoin="round" stroke-miterlimit="10" points="
		463.8,441.2 483,441 529.7,440.6 547.5,440.4 	"/>
	<path fill="none" stroke="#120606" stroke-width="7" stroke-linecap="round" stroke-linejoin="round" stroke-miterlimit="10" d="
		M416.3,449.3l-0.1,23.5l-0.1,41.8l-0.2,101l-0.2,86.6l-0.2,78.4L415.3,884l0,11.8l0,10l8,0.1l12.4,0.2l25.7,0.4l7.2,0.1l7.2,0.1
		c0.2-3.7,0.4-7.5,0.6-11.3c0.3-6,0.6-12.1,0.8-18.1c1.3-31.5,2.2-63.7,3.3-95.5c0.9-25.8,2-51.3,3.8-75.8
		c2.3-31.4,5.5-61.3,10.8-88.3c5.2-26.7,12.2-50.6,22.1-70.6c2.7-5.5,5.7-10.7,8.8-15.6c2.7-4.2,5.6-8.2,8.7-11.9"/>
	<path fill="none" stroke="#120606" stroke-width="7" stroke-linecap="round" stroke-linejoin="round" stroke-miterlimit="10" d="
		M518.8,546.3l-0.4,13.2l-0.5,15.3l-1.2,37.8l-1.6,50.1l-2.4,78.6l-4.4,143.3l-0.4,13.1l-0.4,11.6l5.4-0.7l12.6-1.7l26.5-3.6
		l8.4-1.1l7.9-1.1c0.3-3.2,0.5-6.4,0.8-9.5c0.3-3.2,0.5-6.4,0.8-9.6c3.2-40.7,5.8-82.6,7.8-125.6c1.4-30,2.6-60.5,3.5-91.5
		c0.5-17.2,0.9-34.6,1.3-52.2c0.9-45.5,1.4-92,1.4-139.4c0-3.8,0-7.6,0-11.4c0-4.1,0-8.2,0-12.4"/>
	<path fill="none" stroke="#120606" stroke-width="7" stroke-linecap="round" stroke-linejoin="round" stroke-miterlimit="10" d="
		M427.2,906.3v8.3v27.6v7.2c0,0,6,0.6,14.4,1c11.2,0.6,26.7,1,37.6-0.4c7.7-1,13.2-3,13.2-6.5c0-3.4-5.1-5.6-12.4-6.9
		c-11-2-27.1-2.1-38.1-1.9c-7.4,0.2-12.5,0.5-12.5,0.5"/>
	<path fill="none" stroke="#120606" stroke-width="7" stroke-linecap="round" stroke-linejoin="round" stroke-miterlimit="10" d="
		M457.1,933.6c0.1-0.3,0-2.7-0.1-6c-0.1-4.3-0.4-10-0.5-14.3c-0.2-3.7-0.3-6.3-0.3-6.3"/>
	<path fill="none" stroke="#120606" stroke-width="7" stroke-linecap="round" stroke-linejoin="round" stroke-miterlimit="10" d="
		M519.8,909.2v8.9v22.1v6.6c0,0,5.1,0.2,12.2,0.2c11.2,0,27.6-0.5,37.8-2.9c5.6-1.3,9.3-3.2,9.3-5.9c0-2.9-4.3-4.8-10.6-6
		c-10.1-1.9-25.4-2-35.7-1.8c-6.6,0.1-11.2,0.4-11.2,0.4"/>
	<path fill="none" stroke="#120606" stroke-width="7" stroke-linecap="round" stroke-linejoin="round" stroke-miterlimit="10" d="
		M547.6,929.4c-0.2,0.3,0.8-24.6,0.8-24.6"/>
</g>
<g id="vs-reveal">
	<path fill="none" stroke="#F9D8B4" stroke-width="70" stroke-miterlimit="10" stroke-opacity="0" d="M342.2,61.4
		c6.2,0,12.4,0,18.4,0.1c48,0.2,88.7,1.1,123.2,2.4c79.7,3,126.5,8.4,154,13.7c5.6,1.1,8.2,4.5,8.1,7.9c-0.1,4.1-3.9,8.1-10.7,8.1
		c-55.8,0.3-102,1.3-140.3,2.8c-69.1,2.7-112.3,7.2-138.9,12c-16.2,2.9-26.3,6-32.3,8.9c-16.4,7.9-3.4,14.8-3.4,14.8
		c35.5,19.2,120.5,17.7,201.4,16.4c61.9-1,121.4-2,154.1,6.4c16.4,4.2,26.1,10.7,26.1,20.8c0,9-7.8,15.3-21.3,19.6
		c-34.6,11.1-106.4,9.2-178.2,7.7c-72.4-1.5-144.8-2.7-179,10.1c-12.9,4.8-20.3,11.6-20.4,21.2c0,9.5,7.4,16,20.2,20.4
		c35.9,12.1,114.2,7.1,190.3,2.2c70.5-4.6,139.1-8.9,170.5,0.8c11.3,3.5,17.7,8.7,17.7,16.5c0,7.6-6.2,13.6-17.1,18.3
		c-32.9,14.3-108.2,17.4-183.2,20.8c-72.1,3.2-144,6.7-178.1,20.3c-12.9,5.2-20.3,11.8-20.4,20.4c0,9.5,8.9,15.7,24.1,19.6
		c36.4,9.4,108.9,5.7,180.5,1.7c70-3.9,139.2-8,172.9-0.2c13.5,3.1,21.3,8.1,21.2,15.7c0,7-6.6,12.4-18.1,16.7
		c-37.2,13.7-125.7,14.8-208,16.7c-57.7,1.3-112.4,3.1-144.2,9.7c-17.8,3.7-28.5,9-28.5,16.7c0,7.7,10.6,12.5,28.5,15.4
		c36.4,6,102.8,4,169.3,1.7c72.3-2.4,144.8-5.2,179.6,1.7c13.5,2.6,21.3,6.7,21.3,12.8s-7.8,10.9-21.3,14.8
		c-36.5,10.6-114.2,14.6-189.8,19.6c-63.6,4.2-125.6,9-160,19.1c-17.4,5.1-27.8,11.4-27.8,19.7c0,8.5,10.9,13.2,29,15.6
		c37.7,4.9,107.1-0.8,175.6-5.3c70-4.6,139.1-8,172.9,2.3c13.5,4.1,21.3,10.3,21.2,19.5c0,9.2-7.8,16.2-21.3,21.4
		c-36.9,14.5-116.1,16.5-192.4,18c-60.3,1.2-118.8,2.2-153.4,8.9c-19.8,3.8-31.7,9.5-31.8,18.1s11.9,13.8,31.7,16.8
		c38.3,5.8,106.1,3.3,173.1,2.1c67-1.1,133.1-1,168.2,10.2c16.2,5.1,25.8,12.6,25.8,23.3c0,10.3-8.8,17.4-23.8,22.4
		C640.2,741,564.6,739.6,491,738c-61.4-1.3-121.5-2.6-156.8,3.9c-19.8,3.6-31.7,9.8-31.8,19.8c0,10,11.9,16.8,31.7,21.5
		c38.3,8.9,106,9.6,172.8,9.1c64.6-0.4,128.3-1.9,164.4,2.1c18.6,2.1,29.8,5.6,29.8,11.5c0,5.9-11.2,10.3-29.8,13.8
		c-39,7.3-110.6,10.3-180.4,13.9c-61.5,3.2-121.6,6.8-156.9,14.2c-19.8,4.1-31.7,9.5-31.8,16.5c0,7.4,13.1,12,34.5,15
		c41.5,5.7,114.3,5,184,5.4c57.2,0.4,112.4,1.5,146.2,7.5c21.1,3.8,34,9.5,34,18.1c0,8.8-13.6,13.6-35.6,16
		c-40.9,4.3-111.2,0.3-179.2-1.7c-57.6-1.8-113.4-2-148.2,5.3c-22.2,4.7-35.8,12.6-35.8,25.2"/>
</g>
</svg>
