<?xml version="1.0" encoding="utf-8"?>
<!-- Generator: Adobe Illustrator 24.0.3, SVG Export Plug-In . SVG Version: 6.00 Build 0)  -->
<svg version="1.1" id="Layer_1" xmlns="http://www.w3.org/2000/svg" xmlns:xlink="http://www.w3.org/1999/xlink" x="0px" y="0px"
	 width="1000px" height="1000px" viewBox="0 0 1000 1000" enable-background="new 0 0 1000 1000" xml:space="preserve">
<g>
	<path fill="none" stroke="#000000" stroke-width="5" stroke-linecap="round" stroke-linejoin="round" stroke-miterlimit="10" d="
		M352.5,198.3c1.8,5.1,6.8,33.8,11.9,44"/>
	<path fill="none" stroke="#000000" stroke-width="5" stroke-linecap="round" stroke-linejoin="round" stroke-miterlimit="10" d="
		M364.4,238.9c5.1,20.3,44,47.3,62.6,64.4"/>
	<path fill="none" stroke="#000000" stroke-width="5" stroke-linecap="round" stroke-linejoin="round" stroke-miterlimit="10" d="
		M427,299.9c8.5,11.9,72.8-54.1,77.9-69.4"/>
	<path fill="none" stroke="#000000" stroke-width="5" stroke-linecap="round" stroke-linejoin="round" stroke-miterlimit="10" d="
		M506.5,200.1c3.4-6.8-3.4,27-5.1,35.6"/>
	<path fill="none" stroke="#000000" stroke-width="5" stroke-linecap="round" stroke-linejoin="round" stroke-miterlimit="10" d="
		M509.9,188.2c11.9-40.6,38.9,45.7-3.4,35.6"/>
	<path fill="none" stroke="#000000" stroke-width="5" stroke-linecap="round" stroke-linejoin="round" stroke-miterlimit="10" d="
		M349.1,186.4c-10.1-15.3-45.7,35.6,1.8,44"/>
	<path fill="none" stroke="#000000" stroke-width="5" stroke-linecap="round" stroke-linejoin="round" stroke-miterlimit="10" d="
		M335.6,201.7c3.4-3.4,11.9-1.8,16.9,1.8"/>
	<path fill="none" stroke="#000000" stroke-width="5" stroke-linecap="round" stroke-linejoin="round" stroke-miterlimit="10" d="
		M354.3,205.1c-5.1,0-10.1,1.8-13.5,5.1"/>
	<path fill="none" stroke="#000000" stroke-width="5" stroke-linecap="round" stroke-linejoin="round" stroke-miterlimit="10" d="
		M525.2,200.1c-8.5-3.4-13.5-3.4-16.9,5.1"/>
	<path fill="none" stroke="#000000" stroke-width="5" stroke-linecap="round" stroke-linejoin="round" stroke-miterlimit="10" d="
		M511.6,205.1c1.8-3.4,5.1,1.8,10.1,6.8"/>
	<path fill="none" stroke="#000000" stroke-width="5" stroke-linecap="round" stroke-linejoin="round" stroke-miterlimit="10" d="
		M355.9,227.1c3.4-6.8-3.4-1.8-6.8,1.8"/>
	<path fill="none" stroke="#000000" stroke-width="5" stroke-linecap="round" stroke-linejoin="round" stroke-miterlimit="10" d="
		M393.1,139.1c15.3,8.5,38.9,0,55.8-8.5"/>
	<path fill="none" stroke="#000000" stroke-width="5" stroke-linecap="round" stroke-linejoin="round" stroke-miterlimit="10" d="
		M445.6,134.1c-3.4,0,25.4,40.6,45.7,42.3c23.7,1.8,66-16.9,66-44c-5.1,8.5-11.9,10.1-20.3,13.5"/>
	<path fill="none" stroke="#000000" stroke-width="5" stroke-linecap="round" stroke-linejoin="round" stroke-miterlimit="10" d="
		M548.9,142.5c5.1-11.9,8.5-23.7,11.9-35.6C559,112,554,112,550.6,117"/>
	<path fill="none" stroke="#000000" stroke-width="5" stroke-linecap="round" stroke-linejoin="round" stroke-miterlimit="10" d="
		M553.9,108.7c1.8-5.1,0-8.5,1.8-13.5c-6.8,6.8-13.5,8.5-22,10.1"/>
	<path fill="none" stroke="#000000" stroke-width="5" stroke-linecap="round" stroke-linejoin="round" stroke-miterlimit="10" d="
		M526.8,95.1c1.8-3.4,10.1-10.1,13.5-15.3c5.1,10.1,1.8,22-5.1,30.4"/>
	<path fill="none" stroke="#000000" stroke-width="5" stroke-linecap="round" stroke-linejoin="round" stroke-miterlimit="10" d="
		M516.7,90c5.1-6.8,11.9-16.9,13.5-25.4c1.8,10.1,1.8,22-5.1,32.2"/>
	<path fill="none" stroke="#000000" stroke-width="5" stroke-linecap="round" stroke-linejoin="round" stroke-miterlimit="10" d="
		M511.6,78.6C493.8,71.5,476,57.2,455,54.3c-29.1-4.3-77.6,7.1-87.3,35.7"/>
	<path fill="none" stroke="#000000" stroke-width="5" stroke-linecap="round" stroke-linejoin="round" stroke-miterlimit="10" d="
		M361,95.1c-13.5-1.8-27,1.8-28.8,16.9"/>
	<path fill="none" stroke="#000000" stroke-width="5" stroke-linecap="round" stroke-linejoin="round" stroke-miterlimit="10" d="
		M504.8,86.6c3.4-3.4,8.5-18.7,8.5-27c3.4,8.5,3.4,15.3,5.1,23.7"/>
	<path fill="none" stroke="#000000" stroke-width="5" stroke-linecap="round" stroke-linejoin="round" stroke-miterlimit="10" d="
		M389.7,137.5c0,13.5-38.9,32.2-49.1,33.8"/>
	<path fill="none" stroke="#000000" stroke-width="5" stroke-linecap="round" stroke-linejoin="round" stroke-miterlimit="10" d="
		M349.1,174.6c1.8-10.1,3.4,5.1,5.1,8.5"/>
	<path fill="none" stroke="#000000" stroke-width="5" stroke-linecap="round" stroke-linejoin="round" stroke-miterlimit="10" d="
		M333.9,112c0-1.8,0,13.5,1.8,18.7"/>
	<path fill="none" stroke="#000000" stroke-width="5" stroke-linecap="round" stroke-linejoin="round" stroke-miterlimit="10" d="
		M335.6,130.7c-5.1,5.1-10.1,13.5-11.9,22"/>
	<path fill="none" stroke="#000000" stroke-width="5" stroke-linecap="round" stroke-linejoin="round" stroke-miterlimit="10" d="
		M323.7,149.2c1.8,5.1-1.8,11.9,6.8,16.9c-1.8,3.4-3.4,5.1-5.1,8.5c5.1,1.8,11.9,3.4,18.7,3.4"/>
	<path fill="none" stroke="#000000" stroke-width="5" stroke-linecap="round" stroke-linejoin="round" stroke-miterlimit="10" d="
		M330.5,178c-1.8,1.8-1.8,5.1,0,6.8"/>
	<path fill="none" stroke="#000000" stroke-width="5" stroke-linecap="round" stroke-linejoin="round" stroke-miterlimit="10" d="
		M509.9,184.8c-1.8-1.8-3.4-6.8-3.4,1.8"/>
	<path fill="none" stroke="#000000" stroke-width="5" stroke-linecap="round" stroke-linejoin="round" stroke-miterlimit="10" d="
		M369.4,198.3c8.5-10.1,32.2-11.9,45.7-8.5"/>
	<path fill="none" stroke="#000000" stroke-width="5" stroke-linecap="round" stroke-linejoin="round" stroke-miterlimit="10" d="
		M396.5,196.7c0-1.8,3.4-3.4,0-5.1c-8.5,6.8-15.3,42.3,3.4,32.2c11.9-8.5,3.4-27-5.1-28.8"/>
	<path fill="none" stroke="#000000" stroke-width="5" stroke-linecap="round" stroke-linejoin="round" stroke-miterlimit="10" d="
		M389.7,210.2c3.4,3.4,10.1,1.8,13.5-3.4"/>
	<path fill="none" stroke="#000000" stroke-width="5" stroke-linecap="round" stroke-linejoin="round" stroke-miterlimit="10" d="
		M393.1,215.2c0,0-3.4,0,0,1.8c1.8,0,1.8-3.4,1.8-3.4c-1.8-1.8-3.4,5.1-3.4,5.1c3.4-1.8,6.8-1.8,10.1-5.1c-1.8,1.8-6.8,6.8-6.8,6.8
		c10.1-6.8,6.8-3.4,8.5,0"/>
	<path fill="none" stroke="#000000" stroke-width="5" stroke-linecap="round" stroke-linejoin="round" stroke-miterlimit="10" d="
		M445.6,191.5c3.4-1.8,18.7-5.1,27,0"/>
	<path fill="none" stroke="#000000" stroke-width="5" stroke-linecap="round" stroke-linejoin="round" stroke-miterlimit="10" d="
		M457.5,193.3c0,0-11.9,23.7-1.8,30.4c13.5,6.8,10.1-28.8,3.4-33.8"/>
	<path fill="none" stroke="#000000" stroke-width="5" stroke-linecap="round" stroke-linejoin="round" stroke-miterlimit="10" d="
		M455.7,205.1c-1.8-1.8-1.8,5.1-1.8,6.8c1.8-1.8,6.8,0,8.5,0c0,0,1.8-3.4,1.8-5.1l-8.5,10.1c0,1.8,8.5-6.8,6.8-6.8l-6.8,10.1
		c0,0,10.1-6.8,8.5-5.1c-1.8,0-5.1,5.1-5.1,5.1"/>
	<path fill="none" stroke="#000000" stroke-width="5" stroke-linecap="round" stroke-linejoin="round" stroke-miterlimit="10" d="
		M398.2,176.3c-3.4,0-28.8-3.4-38.9,3.4"/>
	<path fill="none" stroke="#000000" stroke-width="5" stroke-linecap="round" stroke-linejoin="round" stroke-miterlimit="10" d="
		M438.8,172.9c3.4,0,25.4-3.4,35.6-3.4"/>
	<path fill="none" stroke="#000000" stroke-width="5" stroke-linecap="round" stroke-linejoin="round" stroke-miterlimit="10" d="
		M438.8,218.6c0,5.1,3.4,8.5,6.8,11.9"/>
	<path fill="none" stroke="#000000" stroke-width="5" stroke-linecap="round" stroke-linejoin="round" stroke-miterlimit="10" d="
		M433.8,237.3c0,5.1,8.5-1.8,13.5-5.1"/>
	<path fill="none" stroke="#000000" stroke-width="5" stroke-linecap="round" stroke-linejoin="round" stroke-miterlimit="10" d="
		M405,247.4c6.8,10.1,44,5.1,57.5-1.8"/>
	<path fill="none" stroke="#000000" stroke-width="5" stroke-linecap="round" stroke-linejoin="round" stroke-miterlimit="10" d="
		M405,250.8c-1.8,23.7,15.3,33.8,37.2,32.2"/>
	<path fill="none" stroke="#000000" stroke-width="5" stroke-linecap="round" stroke-linejoin="round" stroke-miterlimit="10" d="
		M457.5,255.9c6.8-3.4-3.4,27-25.4,25.4"/>
	<path fill="none" stroke="#000000" stroke-width="5" stroke-linecap="round" stroke-linejoin="round" stroke-miterlimit="10" d="
		M411.8,291.3c1.8,3.4,6.8,22,15.3,27"/>
	<path fill="none" stroke="#000000" stroke-width="5" stroke-linecap="round" stroke-linejoin="round" stroke-miterlimit="10" d="
		M428.7,316.8c11.9-3.4,18.7-13.5,23.7-25.4"/>
	<path fill="none" stroke="#000000" stroke-width="5" stroke-linecap="round" stroke-linejoin="round" stroke-miterlimit="10" d="
		M427,320.1c0,5.1,11.9,16.9,18.7,25.4"/>
	<path fill="none" stroke="#000000" stroke-width="5" stroke-linecap="round" stroke-linejoin="round" stroke-miterlimit="10" d="
		M442.2,347.2c8.5-10.1,18.7-18.7,25.4-30.4"/>
	<path fill="none" stroke="#000000" stroke-width="5" stroke-linecap="round" stroke-linejoin="round" stroke-miterlimit="10" d="
		M455.7,296.5c-1.8,8.5,10.1,18.7,18.7,18.7"/>
	<path fill="none" stroke="#000000" stroke-width="5" stroke-linecap="round" stroke-linejoin="round" stroke-miterlimit="10" d="
		M403.4,343.8c5.1-8.5,11.9-16.9,16.9-25.4"/>
	<path fill="none" stroke="#000000" stroke-width="5" stroke-linecap="round" stroke-linejoin="round" stroke-miterlimit="10" d="
		M389.7,316.8c8.5-5.1,16.9-11.9,23.7-18.7"/>
	<path fill="none" stroke="#000000" stroke-width="5" stroke-linecap="round" stroke-linejoin="round" stroke-miterlimit="10" d="
		M389.7,315c0,0,8.5,20.3,13.5,27"/>
	<path fill="none" stroke="#000000" stroke-width="5" stroke-linecap="round" stroke-linejoin="round" stroke-miterlimit="10" d="
		M410.1,340.4c1.8,1.8,15.3,5.1,25.4,0"/>
	<path fill="none" stroke="#000000" stroke-width="5" stroke-linecap="round" stroke-linejoin="round" stroke-miterlimit="10" d="
		M413.5,343.8c0,3.4,0,5.1,0,8.5c11.9,3.4,18.7,0,22-11.9"/>
	<path fill="none" stroke="#000000" stroke-width="5" stroke-linecap="round" stroke-linejoin="round" stroke-miterlimit="10" d="
		M455.7,337.1c8.5,27-15.3,86.3-30.4,111.7"/>
	<path fill="none" stroke="#000000" stroke-width="5" stroke-linecap="round" stroke-linejoin="round" stroke-miterlimit="10" d="
		M398.2,332c3.4,6.8,3.4,38.9,6.8,52.5c3.4,20.3,11.9,38.9,20.3,55.8"/>
	<path fill="none" stroke="#000000" stroke-width="5" stroke-linecap="round" stroke-linejoin="round" stroke-miterlimit="10" d="
		M416.9,352.3c-1.8,13.5-8.5,25.4-11.9,38.9"/>
	<path fill="none" stroke="#000000" stroke-width="5" stroke-linecap="round" stroke-linejoin="round" stroke-miterlimit="10" d="
		M435.4,348.9c0,11.9,11.9,28.8,13.5,44"/>
	<path fill="none" stroke="#000000" stroke-width="5" stroke-linecap="round" stroke-linejoin="round" stroke-miterlimit="10" d="
		M459.1,304.9c13.5,15.3,32.2,28.8,37.2,50.7"/>
	<path fill="none" stroke="#000000" stroke-width="5" stroke-linecap="round" stroke-linejoin="round" stroke-miterlimit="10" d="
		M455.7,376c15.3-5.1,32.2-15.3,45.7-23.7"/>
	<path fill="none" stroke="#000000" stroke-width="5" stroke-linecap="round" stroke-linejoin="round" stroke-miterlimit="10" d="
		M481.1,365.9c0,3.4,5.1,10.1,11.9,13.5"/>
	<path fill="none" stroke="#000000" stroke-width="5" stroke-linecap="round" stroke-linejoin="round" stroke-miterlimit="10" d="
		M425.3,443.7c16.9,8.5,60.9-40.6,64.4-62.6"/>
	<path fill="none" stroke="#000000" stroke-width="5" stroke-linecap="round" stroke-linejoin="round" stroke-miterlimit="10" d="
		M393.1,316.8c-1.8-6.8-20.3,22-25.4,30.4"/>
	<path fill="none" stroke="#000000" stroke-width="5" stroke-linecap="round" stroke-linejoin="round" stroke-miterlimit="10" d="
		M369.4,347.2c-3.4,5.1,23.7,22,30.4,33.8"/>
	<path fill="none" stroke="#000000" stroke-width="5" stroke-linecap="round" stroke-linejoin="round" stroke-miterlimit="10" d="
		M384.7,367.5c-3.4-5.1-10.1,16.9-15.3,27"/>
	<path fill="none" stroke="#000000" stroke-width="5" stroke-linecap="round" stroke-linejoin="round" stroke-miterlimit="10" d="
		M369.4,389.5c5.1,20.3,38.9,55.8,60.9,59.2"/>
	<path fill="none" stroke="#000000" stroke-width="5" stroke-linecap="round" stroke-linejoin="round" stroke-miterlimit="10" d="
		M430.4,445.4c-3.4,22,1.8,60.9,1.8,89.7"/>
	<path fill="none" stroke="#000000" stroke-width="5" stroke-linecap="round" stroke-linejoin="round" stroke-miterlimit="10" d="
		M347.5,328.7c13.6,0,30.3-6.8,44-11.9"/>
	<path fill="none" stroke="#000000" stroke-width="5" stroke-linecap="round" stroke-linejoin="round" stroke-miterlimit="10" d="
		M345.8,330.3c8.5,33.8,15.3,67.7,15.3,103.2"/>
	<path fill="none" stroke="#000000" stroke-width="5" stroke-linecap="round" stroke-linejoin="round" stroke-miterlimit="10" d="
		M467.6,313.4c8.5,5.1,38.9,6.8,54.1,10.1"/>
	<path fill="none" stroke="#000000" stroke-width="5" stroke-linecap="round" stroke-linejoin="round" stroke-miterlimit="10" d="
		M521.7,320.1c-15.3,37.2-25.4,84.6-23.7,123.5"/>
	<path fill="none" stroke="#000000" stroke-width="5" stroke-linecap="round" stroke-linejoin="round" stroke-miterlimit="10" d="
		M357.7,431.8c3.4,6.8,5.1,13.5,8.5,20.3"/>
	<path fill="none" stroke="#000000" stroke-width="5" stroke-linecap="round" stroke-linejoin="round" stroke-miterlimit="10" d="
		M366,450.5c0,27-1.8,54.1-3.4,82.9"/>
	<path fill="none" stroke="#000000" stroke-width="5" stroke-linecap="round" stroke-linejoin="round" stroke-miterlimit="10" d="
		M361,530c11.9,5.1,23.7,3.4,37.2,3.4"/>
	<path fill="none" stroke="#000000" stroke-width="5" stroke-linecap="round" stroke-linejoin="round" stroke-miterlimit="10" d="
		M359.3,530c0,3.4,0,5.1-1.8,8.5c11.9,0,25.4,1.8,37.2,3.4"/>
	<path fill="none" stroke="#000000" stroke-width="5" stroke-linecap="round" stroke-linejoin="round" stroke-miterlimit="10" d="
		M398.2,530c0,3.4,0,5.1,0,8.5"/>
	<path fill="none" stroke="#000000" stroke-width="5" stroke-linecap="round" stroke-linejoin="round" stroke-miterlimit="10" d="
		M361,533.4c5.1-1.8-5.1,35.6-6.8,45.7"/>
	<path fill="none" stroke="#000000" stroke-width="5" stroke-linecap="round" stroke-linejoin="round" stroke-miterlimit="10" d="
		M355.9,579.1c10.1,5.1,44,8.5,60.9,6.8"/>
	<path fill="none" stroke="#000000" stroke-width="5" stroke-linecap="round" stroke-linejoin="round" stroke-miterlimit="10" d="
		M420.3,589.2c0,0,5.1-8.5,11.9-16.9"/>
	<path fill="none" stroke="#000000" stroke-width="5" stroke-linecap="round" stroke-linejoin="round" stroke-miterlimit="10" d="
		M433.8,530c0-10.1,0,37.2,0,45.7"/>
	<path fill="none" stroke="#000000" stroke-width="5" stroke-linecap="round" stroke-linejoin="round" stroke-miterlimit="10" d="
		M435.4,575.7c-1.8-6.8,5.1,11.9,6.8,13.5"/>
	<path fill="none" stroke="#000000" stroke-width="5" stroke-linecap="round" stroke-linejoin="round" stroke-miterlimit="10" d="
		M443.9,590.9c13.5-3.4,45.7-3.4,64.4-11.9"/>
	<path fill="none" stroke="#000000" stroke-width="5" stroke-linecap="round" stroke-linejoin="round" stroke-miterlimit="10" d="
		M496.4,448.7c3.4,0-1.8,1.8-3.4,3.4"/>
	<path fill="none" stroke="#000000" stroke-width="5" stroke-linecap="round" stroke-linejoin="round" stroke-miterlimit="10" d="
		M498,447.1c1.8,1.8-1.8,5.1-5.1,8.5"/>
	<path fill="none" stroke="#000000" stroke-width="5" stroke-linecap="round" stroke-linejoin="round" stroke-miterlimit="10" d="
		M493,452.1c1.8,40.6,5.1,82.9,15.3,120.1"/>
	<path fill="none" stroke="#000000" stroke-width="5" stroke-linecap="round" stroke-linejoin="round" stroke-miterlimit="10" d="
		M469.4,526.6c1.8-1.8,16.9-3.4,25.4-1.8"/>
	<path fill="none" stroke="#000000" stroke-width="5" stroke-linecap="round" stroke-linejoin="round" stroke-miterlimit="10" d="
		M469.4,524.9c-1.8,1.8-1.8,10.1-1.8,13.5c8.5,0,18.7,0,27,0"/>
	<path fill="none" stroke="#000000" stroke-width="5" stroke-linecap="round" stroke-linejoin="round" stroke-miterlimit="10" d="
		M493,469c1.8,1.8,3.4,3.4,5.1,5.1"/>
	<path fill="none" stroke="#000000" stroke-width="5" stroke-linecap="round" stroke-linejoin="round" stroke-miterlimit="10" d="
		M493,472.4c3.4,0,6.8,1.8,8.5,5.1"/>
	<path fill="none" stroke="#000000" stroke-width="5" stroke-linecap="round" stroke-linejoin="round" stroke-miterlimit="10" d="
		M372.6,583.6c-3.9,22.3-0.8,47.5-1.1,71.2c-3.1,34.1-9.5,70-14.4,104.2c-6.3,39.3-8.6,88.7-25.3,123.5"/>
	<path fill="none" stroke="#000000" stroke-width="5" stroke-linecap="round" stroke-linejoin="round" stroke-miterlimit="10" d="
		M500.5,581.6c1.3,89.3-7.3,202.5,25.5,287.9"/>
	<path fill="none" stroke="#000000" stroke-width="5" stroke-linecap="round" stroke-linejoin="round" stroke-miterlimit="10" d="
		M333.5,884c3.3-1.9-6.5,5.5-8.1,5.5c7,4.6,8.5,1.3,15.3,0.9"/>
	<path fill="none" stroke="#000000" stroke-width="5" stroke-linecap="round" stroke-linejoin="round" stroke-miterlimit="10" d="
		M331,899.4c2.4-17,55.2-11.5,74-9.3"/>
	<path fill="none" stroke="#000000" stroke-width="5" stroke-linecap="round" stroke-linejoin="round" stroke-miterlimit="10" d="
		M431.5,638.2c25.7,79.3,31.1,177.6,32.2,260.7"/>
	<path fill="none" stroke="#000000" stroke-width="5" stroke-linecap="round" stroke-linejoin="round" stroke-miterlimit="10" d="
		M462,900.5c1.8-1.6-1.8,1.6-3.5,3.3c5,1.9,15,4,21.9,2.6"/>
	<path fill="none" stroke="#000000" stroke-width="5" stroke-linecap="round" stroke-linejoin="round" stroke-miterlimit="10" d="
		M465,909.2c27.2-0.5,51.6-16.3,78.6-16.8"/>
	<path fill="none" stroke="#000000" stroke-width="5" stroke-linecap="round" stroke-linejoin="round" stroke-miterlimit="10" d="
		M527.7,871.2c-11.6-5.6,8.3,5.5,11.5,7.3c-3.5,3.3-3.6,4.9-5.4,8.3c1.6,1.8,6.6,2,8.3,3.8"/>
	<path fill="none" stroke="#000000" stroke-width="5" stroke-linecap="round" stroke-linejoin="round" stroke-miterlimit="10" d="
		M427.9,643.2c1.3-1.6,2.5-1.8,3.6-5c-20.7,29.9-20.3,108.1-22,148c-0.6,35.2-1.4,70.2,0.6,105.3"/>
	<path fill="none" stroke="#000000" stroke-width="5" stroke-linecap="round" stroke-linejoin="round" stroke-miterlimit="10" d="
		M432,584.1c-1.8-1.8-3.4,44-3.4,57.5"/>
	<path fill="none" stroke="#000000" stroke-width="5" stroke-linecap="round" stroke-linejoin="round" stroke-miterlimit="10" d="
		M437.2,592.6c0-1.8,1.8-5.1,1.8-6.8c-1.8,16.9-6.8,35.6-3.4,52.5c-1.8-1.8-5.1,0-8.5-1.8"/>
	<path fill="none" stroke="#000000" stroke-width="5" stroke-linecap="round" stroke-linejoin="round" stroke-miterlimit="10" d="
		M299.1,935.1c12.3-22.7,62.6-32.3,84.4-6.4"/>
	<path fill="none" stroke="#000000" stroke-width="5" stroke-linecap="round" stroke-linejoin="round" stroke-miterlimit="10" d="
		M295.8,937c8.6,33.4,72.5,23,86.1-4.9"/>
	<path fill="none" stroke="#000000" stroke-width="5" stroke-linecap="round" stroke-linejoin="round" stroke-miterlimit="10" d="
		M378.6,932.3c1.4-5.1,14-22.8,20.5-26.5"/>
	<path fill="none" stroke="#000000" stroke-width="5" stroke-linecap="round" stroke-linejoin="round" stroke-miterlimit="10" d="
		M394.5,912.8c-4.6,7,3.5,3.1,10.1-0.6"/>
	<path fill="none" stroke="#000000" stroke-width="5" stroke-linecap="round" stroke-linejoin="round" stroke-miterlimit="10" d="
		M408.5,891.6c2,5,2.4,11.8,2.8,18.5"/>
	<path fill="none" stroke="#000000" stroke-width="5" stroke-linecap="round" stroke-linejoin="round" stroke-miterlimit="10" d="
		M399.6,914.2c5-0.2,8.4-0.5,13.4-2.5"/>
	<path fill="none" stroke="#000000" stroke-width="5" stroke-linecap="round" stroke-linejoin="round" stroke-miterlimit="10" d="
		M323.2,913.4c-6.1,12.1,15.9-17.8,19.2-21.4"/>
	<path fill="none" stroke="#000000" stroke-width="5" stroke-linecap="round" stroke-linejoin="round" stroke-miterlimit="10" d="
		M342.6,895.4c1.6-1.8,16.8-2.6,25.4,0.2"/>
	<path fill="none" stroke="#000000" stroke-width="5" stroke-linecap="round" stroke-linejoin="round" stroke-miterlimit="10" d="
		M376.4,895.1c-6.5,5.5-11,14.1-14,22.8"/>
	<path fill="none" stroke="#000000" stroke-width="5" stroke-linecap="round" stroke-linejoin="round" stroke-miterlimit="10" d="
		M330.7,896c-6.4,7.1-12.5,17.7-20.7,24.9"/>
	<path fill="none" stroke="#000000" stroke-width="5" stroke-linecap="round" stroke-linejoin="round" stroke-miterlimit="10" d="
		M509.8,929.7c4-15,40.1-25.3,56.3-11"/>
	<path fill="none" stroke="#000000" stroke-width="5" stroke-linecap="round" stroke-linejoin="round" stroke-miterlimit="10" d="
		M511.7,926.5c0,0-10.8,13-12.6,18"/>
	<path fill="none" stroke="#000000" stroke-width="5" stroke-linecap="round" stroke-linejoin="round" stroke-miterlimit="10" d="
		M499,944.5c7.8,15.7,63.1,28.2,74.5,1.6"/>
	<path fill="none" stroke="#000000" stroke-width="5" stroke-linecap="round" stroke-linejoin="round" stroke-miterlimit="10" d="
		M569.4,923.9c0,0,6.1,15.5,5.6,25.7"/>
	<path fill="none" stroke="#000000" stroke-width="5" stroke-linecap="round" stroke-linejoin="round" stroke-miterlimit="10" d="
		M473.4,911.2c-4.9-3.6-1.9,5-2.1,10"/>
	<path fill="none" stroke="#000000" stroke-width="5" stroke-linecap="round" stroke-linejoin="round" stroke-miterlimit="10" d="
		M469.6,921.2c3.4,0.1,6.8,0.3,10,2.1"/>
	
		<line fill="none" stroke="#000000" stroke-width="5" stroke-linecap="round" stroke-linejoin="round" stroke-miterlimit="10" x1="481.5" y1="920.1" x2="481.4" y2="921.7"/>
	<path fill="none" stroke="#000000" stroke-width="5" stroke-linecap="round" stroke-linejoin="round" stroke-miterlimit="10" d="
		M481.5,920.1c-8-10.5,14.6,14.2,17.8,19.4"/>
	<path fill="none" stroke="#000000" stroke-width="5" stroke-linecap="round" stroke-linejoin="round" stroke-miterlimit="10" d="
		M509.3,902.7c-3.3-3.5,7.9,12.3,11.1,15.8"/>
	<path fill="none" stroke="#000000" stroke-width="5" stroke-linecap="round" stroke-linejoin="round" stroke-miterlimit="10" d="
		M510.9,904.4c6.9-1.4,17.2-4.4,25.5-4"/>
	<path fill="none" stroke="#000000" stroke-width="5" stroke-linecap="round" stroke-linejoin="round" stroke-miterlimit="10" d="
		M531.6,898.5c10.3-1.3,18.3,7.6,26.3,18.2"/>
	<path fill="none" stroke="#000000" stroke-width="5" stroke-linecap="round" stroke-linejoin="round" stroke-miterlimit="10" d="
		M537,890.3c8.1,7.1,19.7,16.2,27.7,24.9"/>
	<path fill="none" stroke="#000000" stroke-width="5" stroke-linecap="round" stroke-linejoin="round" stroke-miterlimit="10" d="
		M566,922.1c-4.9-5.3,4.8,8.6,6.3,12.1"/>
	<path fill="none" stroke="#000000" stroke-width="5" stroke-linecap="round" stroke-linejoin="round" stroke-miterlimit="10" d="
		M569.2,777.1"/>
	<path fill="none" stroke="#000000" stroke-width="5" stroke-linecap="round" stroke-linejoin="round" stroke-miterlimit="10" d="
		M413.5,269.4c3.4-10.1,33.8-6.8,47.3-5.1"/>
	<path fill="none" stroke="#000000" stroke-width="5" stroke-linecap="round" stroke-linejoin="round" stroke-miterlimit="10" d="
		M367.8,85c-3.4-8.5-6.8-15.3-5.1-25.4c-3.4,8.5-3.4,16.9-3.4,27"/>
	<path fill="none" stroke="#000000" stroke-width="5" stroke-linecap="round" stroke-linejoin="round" stroke-miterlimit="10" d="
		M355.9,83.2c-5.1-1.8-11.9-1.8-16.9-3.4c5.1,3.4,10.1,6.8,16.9,11.9"/>
	<path fill="none" stroke="#000000" stroke-width="5" stroke-linecap="round" stroke-linejoin="round" stroke-miterlimit="10" d="
		M528.2,330.3c-1.5-1.5-3.1-4.6-1.5-1.5c6.1,13.9,13.9,27.8,23.2,40.1"/>
	<path fill="none" stroke="#000000" stroke-width="5" stroke-linecap="round" stroke-linejoin="round" stroke-miterlimit="10" d="
		M546.7,362.7c0,7.8,10.8,26.2,13.9,38.6"/>
	<path fill="none" stroke="#000000" stroke-width="5" stroke-linecap="round" stroke-linejoin="round" stroke-miterlimit="10" d="
		M501.4,392.9c3.4,12.3,24.2,30.3,27.5,48.3"/>
	<path fill="none" stroke="#000000" stroke-width="5" stroke-linecap="round" stroke-linejoin="round" stroke-miterlimit="10" d="
		M615.4,295.7c-40.6,66-79.5,135.4-118.5,199.7"/>
	<path fill="none" stroke="#000000" stroke-width="5" stroke-linecap="round" stroke-linejoin="round" stroke-miterlimit="10" d="
		M512.1,612.2c5.1,30.2,8.5,79.1,8.5,116.7"/>
	<path fill="none" stroke="#000000" stroke-width="5" stroke-linecap="round" stroke-linejoin="round" stroke-miterlimit="10" d="
		M513.8,612.2c-5.1,0-11.9,3.4-15.3,6.8"/>
	<path fill="none" stroke="#000000" stroke-width="5" stroke-linecap="round" stroke-linejoin="round" stroke-miterlimit="10" d="
		M698.3,317.8c1.8,0,20.3,3.4,27,6.8"/>
	<path fill="none" stroke="#000000" stroke-width="5" stroke-linecap="round" stroke-linejoin="round" stroke-miterlimit="10" d="
		M588.2,283.8c1.8,1.8,18.7,8.5,27,10.1"/>
	<path fill="none" stroke="#000000" stroke-width="5" stroke-linecap="round" stroke-linejoin="round" stroke-miterlimit="10" d="
		M586.6,282.2c38.9-40.6,88-74.5,128.6-111.7"/>
	<path fill="none" stroke="#000000" stroke-width="5" stroke-linecap="round" stroke-linejoin="round" stroke-miterlimit="10" d="
		M716.8,168.8c10.1,52.5,8.5,108.3,16.9,159"/>
	<path fill="none" stroke="#000000" stroke-width="5" stroke-linecap="round" stroke-linejoin="round" stroke-miterlimit="10" d="
		M725.3,324.5c3.4,1.8,6.8,3.4,10.1,5.1"/>
	<path fill="none" stroke="#000000" stroke-width="5" stroke-linecap="round" stroke-linejoin="round" stroke-miterlimit="10" d="
		M718.5,167.1c-3.4,1.8,3.4,5.1,6.8,6.8"/>
	<path fill="none" stroke="#000000" stroke-width="5" stroke-linecap="round" stroke-linejoin="round" stroke-miterlimit="10" d="
		M725.3,177.3c-1.8,5.1,8.5,72.8,10.1,91.4c5.1,28.8,8.5,57.5,13.5,86.3"/>
	<path fill="none" stroke="#000000" stroke-width="5" stroke-linecap="round" stroke-linejoin="round" stroke-miterlimit="10" d="
		M733.8,326.2c3.4,8.5,8.5,18.7,13.5,27"/>
	<path fill="none" stroke="#000000" stroke-width="5" stroke-linecap="round" stroke-linejoin="round" stroke-miterlimit="10" d="
		M701.6,321.1c-3.4-6.8,1.8,6.8,3.4,8.5"/>
	<path fill="none" stroke="#000000" stroke-width="5" stroke-linecap="round" stroke-linejoin="round" stroke-miterlimit="10" d="
		M706.6,332.9c16.9,1.8,30.4,13.5,45.7,23.7"/>
	<path fill="none" stroke="#000000" stroke-width="5" stroke-linecap="round" stroke-linejoin="round" stroke-miterlimit="10" d="
		M699.9,319.4c-10.1,33.8-28.8,84.6-47.3,120.1"/>
	<path fill="none" stroke="#000000" stroke-width="5" stroke-linecap="round" stroke-linejoin="round" stroke-miterlimit="10" d="
		M654.2,439.6c-5.1-5.1-20.3-11.9-27-5.1c-18.7,20.3,22,27,32.2,32.2"/>
	<path fill="none" stroke="#000000" stroke-width="5" stroke-linecap="round" stroke-linejoin="round" stroke-miterlimit="10" d="
		M650.8,437.9c8.5,0,27,15.3,10.1,27"/>
	<path fill="none" stroke="#000000" stroke-width="5" stroke-linecap="round" stroke-linejoin="round" stroke-miterlimit="10" d="
		M647.4,470c11.9-5.1-11.9,0-16.9,0c-13.5,0-33.8-6.8-27,15.3"/>
	<path fill="none" stroke="#000000" stroke-width="5" stroke-linecap="round" stroke-linejoin="round" stroke-miterlimit="10" d="
		M600.1,473.4c-3.4,6.8-3.4,15.3,0,20.3"/>
	<path fill="none" stroke="#000000" stroke-width="5" stroke-linecap="round" stroke-linejoin="round" stroke-miterlimit="10" d="
		M601.7,490.3c8.5,6.8,33.8,11.9,50.7,6.8"/>
	<path fill="none" stroke="#000000" stroke-width="5" stroke-linecap="round" stroke-linejoin="round" stroke-miterlimit="10" d="
		M652.5,470c6.8,6.8,6.8,16.9,1.8,27"/>
	<path fill="none" stroke="#000000" stroke-width="5" stroke-linecap="round" stroke-linejoin="round" stroke-miterlimit="10" d="
		M603.5,488.6c-3.4-1.8-6.8,16.9-8.5,27c18.7,0,33.8,13.5,54.1,5.1"/>
	<path fill="none" stroke="#000000" stroke-width="5" stroke-linecap="round" stroke-linejoin="round" stroke-miterlimit="10" d="
		M652.5,500.5c3.4,1.8,3.4,10.1,0,18.7"/>
	<path fill="none" stroke="#000000" stroke-width="5" stroke-linecap="round" stroke-linejoin="round" stroke-miterlimit="10" d="
		M620.4,520.7c-32.2,67.7-67.7,143.9-94.8,208.1"/>
	<path fill="none" stroke="#000000" stroke-width="5" stroke-linecap="round" stroke-linejoin="round" stroke-miterlimit="10" d="
		M623.7,529.3c-10.1-6.8,5.1,35.6,15.3,42.3"/>
	<path fill="none" stroke="#000000" stroke-width="5" stroke-linecap="round" stroke-linejoin="round" stroke-miterlimit="10" d="
		M642.4,522.5c-1.8,16.9,23.7,44-8.5,50.7"/>
	<path fill="none" stroke="#000000" stroke-width="5" stroke-linecap="round" stroke-linejoin="round" stroke-miterlimit="10" d="
		M588.2,283.8c1.8,6.8,3.4,11.9,3.4,18.7"/>
	<path fill="none" stroke="#000000" stroke-width="5" stroke-linecap="round" stroke-linejoin="round" stroke-miterlimit="10" d="
		M593.3,304.1c-1.8-6.8,8.5,1.8,15.3,6.8"/>
	<path fill="none" stroke="#000000" stroke-width="5" stroke-linecap="round" stroke-linejoin="round" stroke-miterlimit="10" d="
		M706.6,334.7c-11.9,33.8-33.8,74.5-45.7,111.7"/>
	<path fill="none" stroke="#000000" stroke-width="5" stroke-linecap="round" stroke-linejoin="round" stroke-miterlimit="10" d="
		M622.1,542.8c-18.7,38.9-35.6,77.9-54.1,115.1c-11.9,25.4-22,60.9-35.6,79.5"/>
	<path fill="none" stroke="#000000" stroke-width="5" stroke-linecap="round" stroke-linejoin="round" stroke-miterlimit="10" d="
		M520.6,728.9c5.1,1.8,10.1,3.4,13.5,5.1"/>
	<path fill="none" stroke="#000000" stroke-width="5" stroke-linecap="round" stroke-linejoin="round" stroke-miterlimit="10" d="
		M503.7,625.7c-1.8,3.4,6.8,0,11.9-1.8"/>
	<path fill="none" stroke="#000000" stroke-width="5" stroke-linecap="round" stroke-linejoin="round" stroke-miterlimit="10" d="
		M321.3,367.1c-5.1-5.1-15.3-10.1-22-13.5"/>
	<path fill="none" stroke="#000000" stroke-width="5" stroke-linecap="round" stroke-linejoin="round" stroke-miterlimit="10" d="
		M299.3,353.6c-5.1,1.8-27,10.1-35.6,18.7"/>
	<path fill="none" stroke="#000000" stroke-width="5" stroke-linecap="round" stroke-linejoin="round" stroke-miterlimit="10" d="
		M326.5,368.9c5.1,6.8,6.8,13.5,0,18.7"/>
	<path fill="none" stroke="#000000" stroke-width="5" stroke-linecap="round" stroke-linejoin="round" stroke-miterlimit="10" d="
		M324.7,389.1c1.8,1.8,5.1,5.1,5.1,8.5c-11.9,10.1,5.1,22-11.9,25.4"/>
	<path fill="none" stroke="#000000" stroke-width="5" stroke-linecap="round" stroke-linejoin="round" stroke-miterlimit="10" d="
		M319.7,428.1c0,1.8-5.1,3.4-1.8,10.1c-5.1,0-8.5,0-13.5,0"/>
	<path fill="none" stroke="#000000" stroke-width="5" stroke-linecap="round" stroke-linejoin="round" stroke-miterlimit="10" d="
		M306.1,438.2c3.4,3.4-20.3-1.8-27-3.4"/>
	<path fill="none" stroke="#000000" stroke-width="5" stroke-linecap="round" stroke-linejoin="round" stroke-miterlimit="10" d="
		M260.5,372.2c-8.5,20.3-16.9,54.1,3.4,69.4"/>
	<path fill="none" stroke="#000000" stroke-width="5" stroke-linecap="round" stroke-linejoin="round" stroke-miterlimit="10" d="
		M272.3,439.9c-1.8-1.8-6.8-1.8-10.1,1.8"/>
	<path fill="none" stroke="#000000" stroke-width="5" stroke-linecap="round" stroke-linejoin="round" stroke-miterlimit="10" d="
		M304.4,352c1.8-16.9-5.1-44-27-42.3"/>
	<path fill="none" stroke="#000000" stroke-width="5" stroke-linecap="round" stroke-linejoin="round" stroke-miterlimit="10" d="
		M280.8,307.9c-3.4,3.4-8.5,8.5-10.1,11.9"/>
	<path fill="none" stroke="#000000" stroke-width="5" stroke-linecap="round" stroke-linejoin="round" stroke-miterlimit="10" d="
		M270.6,321.4c6.8-1.8,8.5,28.8,3.4,40.6"/>
	<path fill="none" stroke="#000000" stroke-width="5" stroke-linecap="round" stroke-linejoin="round" stroke-miterlimit="10" d="
		M292.5,441.6c-8.5,3.4-16.9,3.4-25.4,0"/>
	<path fill="none" stroke="#000000" stroke-width="5" stroke-linecap="round" stroke-linejoin="round" stroke-miterlimit="10" d="
		M301.1,438.2c-1.8,1.8,1.8,6.8,5.1,10.1"/>
	<path fill="none" stroke="#000000" stroke-width="5" stroke-linecap="round" stroke-linejoin="round" stroke-miterlimit="10" d="
		M304.4,448.4c0,20.3-28.8,33.8-49.1,35.6"/>
	<path fill="none" stroke="#000000" stroke-width="5" stroke-linecap="round" stroke-linejoin="round" stroke-miterlimit="10" d="
		M255.4,439.9c-5.1,10.1-10.1,27-3.4,38.9"/>
	<path fill="none" stroke="#000000" stroke-width="5" stroke-linecap="round" stroke-linejoin="round" stroke-miterlimit="10" d="
		M340,340.1c6.8-5.1-8.5,22-11.9,27"/>
	<path fill="none" stroke="#000000" stroke-width="5" stroke-linecap="round" stroke-linejoin="round" stroke-miterlimit="10" d="
		M361.9,426.3c3.4,5.1-37.2,54.1-40.6,71.1"/>
	<path fill="none" stroke="#000000" stroke-width="5" stroke-linecap="round" stroke-linejoin="round" stroke-miterlimit="10" d="
		M323.1,497.5c0,0-1.8,5.1,0,8.5c-5.1,1.8-11.9,5.1-16.9,6.8"/>
	<path fill="none" stroke="#000000" stroke-width="5" stroke-linecap="round" stroke-linejoin="round" stroke-miterlimit="10" d="
		M316.3,507.6c0,1.8-6.8,11.9-13.5,16.9"/>
	<path fill="none" stroke="#000000" stroke-width="5" stroke-linecap="round" stroke-linejoin="round" stroke-miterlimit="10" d="
		M250.3,478.8c0,11.9,18.7,42.3,32.2,54.1"/>
	<path fill="none" stroke="#000000" stroke-width="5" stroke-linecap="round" stroke-linejoin="round" stroke-miterlimit="10" d="
		M302.7,527.9c-5.1,5.1-13.5,6.8-20.3,6.8"/>
	<path fill="none" stroke="#000000" stroke-width="5" stroke-linecap="round" stroke-linejoin="round" stroke-miterlimit="10" d="
		M304.4,455.1c0-11.9,5.1,35.6,6.8,44"/>
	<path fill="none" stroke="#000000" stroke-width="5" stroke-linecap="round" stroke-linejoin="round" stroke-miterlimit="10" d="
		M294.3,438.2c3.4,6.8,5.1,13.5,6.8,20.3"/>
</g>
</svg>
