<?xml version="1.0" encoding="utf-8"?>
<!-- Generator: Adobe Illustrator 24.3.0, SVG Export Plug-In . SVG Version: 6.00 Build 0)  -->
<svg isCommex="true" version="1.1" id="Layer_3" xmlns="http://www.w3.org/2000/svg" xmlns:xlink="http://www.w3.org/1999/xlink" x="0px" y="0px"
	 width="656.4px" height="1062.1px" viewBox="0 0 656.4 1062.1" enable-background="new 0 0 656.4 1062.1" xml:space="preserve">
<path fill="#808080" d="M422.1,319.2L422.1,319.2c-1-5.9-3.1-9-6.2-9.1c-0.4,0-0.8,0-1.1,0c-18.6,0-20.7,23.4-20.8,24.5v1.4l0.6,0.3
	c1.8,0.8,4.4,2,7,3.9c1.8,1.3,3.3,3.5,4.7,5.7l0.5,0.7c0.2,0.3,0.4,0.6,0.6,0.9c1.1,1.6,1.9,2.8,2.6,3.3l0.5,0.3l0.5-0.2
	C417.4,348.2,423.9,332.7,422.1,319.2z"/>
<g id="vs-hair">
	<path fill="#AA8265" d="M591.4,224.9c-0.3-1.4-3.1-5-5.7-7.6l-0.6-0.7l-0.7,0.6c-3.3,2.7-7,5.4-10.4,8
		c-9.5,6.9-17.7,13.3-22.5,20.4l-0.2,0.2l0,0.3c-0.1,3.6,0.1,8.1,0.7,12.9l0.2,2l1.5-1.5c2.3-2.3,6.8-6.5,10.7-8.4
		c1.9-1,4-1.6,5.8-2.3c0.3-0.1,0.6-0.2,0.9-0.3c3.8-1.4,5-2,5.1-3c0.3-1.7-0.5-2.6-1.6-4c-0.8-0.8-1.2-1.5-1.5-2.3
		c-1-3.4,2.6-4.8,9.1-7.1l0.2-0.1c0.4-0.1,0.8-0.3,1.2-0.4c0.4-0.2,0.9-0.3,1.2-0.4c5.6-2,6.4-4.3,6.4-6.2L591.4,224.9z"/>
	<path fill="#AA8265" d="M541.8,128.1L541.8,128.1c-1.7-3.3-11.5-6.1-27.2-1.5c-1,0.3-2.1-0.1-2.7-0.8c-2.1-2.8,0.4-7.3,2.9-12
		c0.1-0.2,0.2-0.4,0.3-0.6c0.1-0.1,0.1-0.2,0.2-0.3l0.9-1.3l-1.5-0.2c-4.3-0.7-27.3-3.4-52.9,8.6c-1,0.4-2.2,0.2-2.9-0.5
		c-0.7-0.8-1-2-0.5-2.9c0.4-0.8,0.8-1.6,1.1-2.4c0.9-1.6,2.5-4.9,3-6.8l0.4-1.5l-1.5,0.3c-8.1,1.3-16.5,6.5-24.9,15.3
		c-5.9,6.2-9.8,12.3-10.9,14l-0.1,0.1c-0.6,1-1.8,1.5-2.9,1.1c-1.1-0.3-1.8-1.3-1.7-2.5c0.1-2.1-0.2-8.1-2.1-9.8
		c-0.4-0.4-0.9-0.5-1.5-0.4c-5,0.7-19.9,23.1-22.2,45.8c-0.1,1.1-1,2-2.2,2.2c-1.1,0.2-2.1-0.5-2.6-1.6c-1.6-4.3-4.3-7.2-6.5-7
		c-2.3,0.2-4.5,3.4-5.8,8.6c-3.2,12.6,5.6,30.4,6.6,32.4c0.3,0.6,0.3,0.8,0.3,0.9v0.4l0.3,0.3c0.9,0.9,1.8,1.9,2.4,2.7l0.9,1.2
		l0.7-1.3c0.2-0.4,0.4-0.7,0.6-1c0.2-0.3,0.3-0.6,0.5-1c3.7-6.8,6.5-13.2,8.9-18.9c6.7-15.5,12.6-28.8,30-39.4
		c21.9-13.4,51.2-13.9,56.8-13.9l0.2,0c1.3,0,2.4,1.1,2.4,2.4c0,0.1,0.5,12.1,6.7,12.6c5.8,0.4,12.3-2.6,15.8-4.3
		c2-0.9,2.7-1.2,3.6-1.2c2.4,0,12.8,7.1,20.6,18.3l2.1,3l-0.3-3.6c-0.3-4.6-0.6-10.9,0.5-18.7c0.6-5,2.1-9.3,4.3-12.8l0.4-0.7
		l-0.6-0.6C541.9,128.3,541.9,128.2,541.8,128.1z M540.9,128.5L540.9,128.5L540.9,128.5L540.9,128.5z"/>
</g>
<g>
	<path fill="#FFCE35" d="M275.4,714.4c0.4,7.9,2.4,14.2,6.1,19.4l0.2,0.3l0.4,0.1c3.1,0.7,6,1,8.7,1c11.1,0,19.1-5.4,24.3-10.5
		l1.2-1.2L275.3,713L275.4,714.4z"/>
	<path fill="#FFCE35" d="M278,692.2c-1.6,6.5-2.4,12-2.6,16.9l0,0.8l43,11.1l0.4-0.5c3.8-4.8,6-9.6,7.1-12.7l0.1-0.3
		c0.6-1.4,1.2-3.1,2.1-4.7l0.7-1.2l-50.6-10.3L278,692.2z"/>
	<path fill="#FFCE35" d="M286.1,669c-2.7,6.2-5,12.4-6.7,18.2l-0.3,1l49.7,10.1c0.2,0.1,0.5,0.2,0.6,0.2l0.8,0.4l0.5-0.8
		c2.7-4.6,6.3-10,10.9-16.4l0.9-1.2l-56.1-12.3L286.1,669z"/>
	<path fill="#FFCE35" d="M294.3,653.3l-0.7-0.1l-0.3,0.7c-1.7,3.3-3.4,6.9-5.1,10.5l-0.5,1.1l56.9,12.5l0.4-0.5
		c2.8-3.8,5.9-7.9,8.9-11.7l1-1.3l-1.6-0.3C329.4,659.8,300,654.3,294.3,653.3z"/>
	<path fill="#FFCE35" d="M307,630.3l-0.7,0.7c-0.3,0.3-0.6,0.7-0.6,0.9l-0.1,0.2c-2.4,3.9-6.1,9.9-9.9,17.1l-0.6,1.2l1.4,0.2
		c7.8,1.4,27.9,5.1,59.8,11.1l0.6,0.1l0.4-0.5c5.6-7,9.5-11.9,12.8-15.9l1.1-1.3l-63.4-13.3L307,630.3z"/>
	<path fill="#FFCE35" d="M321.5,612.2l-0.1,0l-0.6-0.6l-0.7,0.8c-3.8,4.4-7.4,9.1-11,14.3l-0.8,1.2l64.8,13.5l1.4-1.7
		c2.8-3.4,5.7-7.9,8.2-12.7l0.7-1.3l-1.4-0.2C379.3,625.3,366.6,622.7,321.5,612.2z"/>
	<path fill="#FFCE35" d="M387.3,604l0-0.7l-43.5-12.6l-0.4,0.3c-6.5,4.5-13.2,10.6-19.5,17.4l-1.2,1.3l1.7,0.4
		c26.3,6,54.7,12.4,57.5,12.8l0.1,0c0.4,0,0.8,0.2,1.1,0.5l1,1l0.6-1.4c0.1-0.3,0.3-0.7,0.4-1c0.2-0.3,0.3-0.7,0.5-1l0.1-0.2
		C386.4,617.5,387.5,610.9,387.3,604z"/>
	<path fill="#FFCE35" d="M386.8,598.6c-1.1-8.7-4.6-14.4-10.3-16.9c-6.9-3-16.5-1.1-27.6,5.5l-2,1.2l40.1,11.8L386.8,598.6z"/>
</g>
<g>
	<path fill="#F79645" d="M274.2,897.4c-0.9-0.4-1.9-0.8-2.9-1.2c-0.4-0.2-0.9-0.3-1.4-0.5l0,0c-2.6-1-5-1.7-7.3-2.1
		c-5.6-1.2-11.4-1.5-17.1-0.8l-2.3,0.3l1.7,1.5c1.9,1.6,5.7,5.1,9,9.8c2.1,3,5,4.7,8,4.7c0.2,0,0.4,0,0.6,0
		c4.2-0.3,8.4-3.8,12.1-10.2l0.6-1L274.2,897.4z"/>
	<path fill="#F79645" d="M253.3,887.4h0.7c0.9,0,1.8,0.1,2.7,0.2l1.9,0.2l-0.5-1.5c-5.1-13.9,1.6-35.1,3-39.2l0.3-0.8l-0.8-0.4
		c-0.4-0.2-0.8-0.4-1.2-0.5c-0.3-0.1-0.6-0.2-0.8-0.3l-0.9-0.4l-0.4,0.9c-2.9,6.3-6.4,16-6.5,26.8c0,4.9,0.8,9.7,2.4,14.4
		L253.3,887.4z"/>
	<path fill="#F79645" d="M236.9,820.8l-0.2-1l-1,0.2c-4.7,1-10.7,1.1-16.4,1.1c-0.7,0-1.3,0-2,0.1c-0.6,0-1.3,0-1.9,0h-0.3l-0.3,0.2
		c-4.3,2.9-14.4,10.8-14.4,22.7l0,0.5c0.2,6.4,0.8,11.1,1.3,15.2l0,0.3c0.8,6.5,1.3,11.7,0.1,19.7c-0.5,3.8-1.8,7.3-3,10.6l-0.4,1
		c-2.8,8-5.3,14.9,1.7,23.9c1.1,1.5,2.4,2.9,4,4.1l1.2,0.9l0.4-1.4c0.9-3.1,4.5-13.5,12.5-19.3l0.4-0.3v-0.5c0-1,0.5-1.9,1.2-2.4
		l0.2-0.2c0.9-0.5,4.4-2.7,9.7-4.9l0.8-0.3l-0.2-0.9c-1.6-6.1-2.2-12.2-1.9-18.6c0.4-7.5,2.2-15.4,5.2-22.9c3.1-7.8,7-13.7,8.3-15.6
		l0.4-0.6l-0.4-0.6C239.4,828.5,237.7,824.7,236.9,820.8z"/>
</g>
<g id="vs-secondary">
	<path fill="#9DC1ED" d="M329.6,709c-2.1,5.5-5.1,10.7-8.9,15.2c-7.4,8.9-17.3,14.2-27.7,14.9l-1.9,0.1v1.5c0,0,0,0,0,0.1
		c-1,2.5-6.2,15-18.3,33.1c-10.6,15.8-21.3,22.6-26.4,25.8l-0.6,0.4c-0.8,0.5-1.4,0.8-1.7,1.2l-0.3,0.4c-1,1.6-4.2,7.6-3.6,15.2
		c0.5,5.4,2.7,10.4,6.5,14.8l0.3,0.3l0.1,0.1c0.1,0.1,0.1,0.2,0.2,0.2c4.7,5.2,10.8,8.9,17.8,10.6c3,0.7,6.3,1.1,9.4,1.1
		c3.6,0,6.9-0.5,8.6-1.4c2.8-1.3,4.2-4.8,8.5-15.2c1.9-4.6,3.7-9.1,5.8-13.9c5.7-13.2,23.7-41.2,38.1-63.7l1.8-2.8
		c7.9-12.3,14.1-22.1,15.1-24.6c1.9-5,11.3-42.2,16.6-63.4l2.2-8.8l-5.7,7.1C344.6,683.2,332.9,700.1,329.6,709z"/>
	<path fill="#9DC1ED" d="M396.5,535.7L396.5,535.7c-19.1-14.9-49.5-22.8-49.8-22.9l-2.3-0.6l-0.2,2.3c-2,24.7-3.6,41.7-4.3,46.7
		l-0.5,3.4l3.2-1.3c13.1-5.2,24.6-5.4,34.4-0.8c3.4,1.6,6.4,3.6,9,5.9l2.4,2.2l9.1-34.2L396.5,535.7z"/>
	<path fill="#9DC1ED" d="M266.9,587.9h1.5l0.5-1.3c12.2-35.6,24.4-70.4,25.4-73.2c0.3-0.8,1.2-1.3,1.9-1c0.8,0.3,1.2,1.2,1,1.8
		c-0.2,0.6-5.9,16.7-19.6,56.3l-7,20.2c-10.3,29.7-17.2,50.1-20.7,60.7l-2.4,7.3l5.6-5.2c2.3-2.1,5.1-4.3,8.3-6.4
		c5.6-3.7,12-6.8,13.6-7.2c0.2,0,0.4,0.1,0.7,0.1h1.3l0.5-1.2c10-21.7,27-51.1,50.9-68.1l0.3-0.2c2.5-1.6,5.1-3.1,7.8-4.4l2.1-1.1
		l-1.4-1.9c-0.2-0.3-0.4-0.7-0.3-1.2c1.1-5.7,8.1-89.2,8.1-96.1c0-2-2.2-4-3.4-5.1c-5.9-4.8-18-8.7-30.7-6.2
		c-14.9,3.1-56.5,43.5-71.3,58.7c-0.6,0.6-1.6,0.6-2.2,0.1c-0.3-0.3-0.5-0.7-0.5-1.1c0-0.4,0.1-0.8,0.5-1.1c0.3-0.3,0.7-0.7,1.2-1.3
		c0.6-0.6,1.3-1.3,2-2.1l4.3-4.6l-6.1,1.2c-2.2,0.4-5.5,1.2-8.8,2.6l-0.9,0.4l-0.3,0.9c-3.1,10.7-8.2,30.7-8.1,44.4
		c0,9,4.9,18.9,12.9,25.8C240,584.2,250.8,590.2,266.9,587.9z"/>
	<path fill="#9DC1ED" d="M246.5,667.4l-0.1,0.2c-0.5,1.9-1.5,6.5,0.9,9.2c1.7,2,4.9,3.1,9.5,3.1c1,0,2.1-0.1,3.3-0.2l0.2,0l0,0
		c0.2,0,0.3,0,0.5,0h1.5l0.4-1.5c0.4-1.4,0.8-2.8,1.2-4c2-6.1,5.2-15.6,9.9-26.7l2.1-5.1L271,645
		C266.5,647.3,251.4,655.8,246.5,667.4z"/>
</g>
<g id="vs-primary">
	<path fill="#8CD96F" d="M535.6,382.8c-4.8,1.5-9,2.4-11.7,2.9l-1.5,0.3l0.9,1.3c0.8,1.1,1.5,2,2.2,2.7l0.1,0.1
		c1.4,1.4,2.9,2.2,4.3,2.5c0.2,0,0.4,0.1,0.7,0.1c0.6,0,1.2-0.2,1.6-0.3c2.3-0.9,4.1-4,4.7-8.3l0.2-1.6L535.6,382.8z"/>
	<path fill="#8CD96F" d="M516.4,384.9c-4.6-11.8-3.1-28.9-0.8-45.5c0.2-1.6,0.4-3.2,0.6-4.7c0.3-2.4,0.6-4.8,0.9-7l0.3-2.1l-1.8,1.2
		c-19.8,12.7-56.7,28-58.2,28.6c-0.2,0.1-0.4,0.1-0.6,0.1h-0.3l-0.3,0.2c-13.8,10-26.2,17.9-36.7,23.5l-0.6,0.3l0.1,0.7
		c0.1,0.4,0.2,1,0,1.5c-3.9,15.5-14.3,32-31.6,32l-0.8,0c-13.6-0.5-25-11.5-27.9-26.7c-1.2-6.5-4.5-28.9,4.6-43.2l0.2-0.3l-0.1-0.4
		c-1.8-8.6-3-16.9-3.8-25.3l0-0.5l-0.4-0.3c-0.3-0.2-0.5-0.3-0.7-0.6c-17.4-17.4-54.2-52.2-69.6-58.9l-1.6-0.7l0.2,1.7
		c0.7,5.8,1.1,11.3,1,16.9c-0.1,7.1-0.7,13.3-1.7,19.1c-2.4,14.1-8.7,23.3-13.6,28.5l-1,1.1l1.3,0.6c13.7,5.7,39,17.4,53.4,32.3
		c0.4,0.4,0.7,1.1,0.7,1.7c0,0.7-0.3,1.3-0.7,1.7l-0.1,0.1c-0.5,0.6-1.2,0.7-1.6,0.7c-0.6,0-1.3-0.3-1.8-0.8l-1.7-1.7l-0.7,0.6
		c-8.5,7.2-83.6,72.6-102.1,147.4l-0.6,2.6l2.2-1.5c2-1.4,4.2-2.5,6.1-3.4c9.6-4.4,19.6-4.9,19.7-4.9c0.4,0,0.5,0,0.7,0l0.6,0.2
		l0.4-0.4C288,460,304,452,310,450.8c13.9-2.9,27.4,1.5,34.1,6.9c3.2,2.6,4.9,5.4,4.9,8.1c0,3-1.3,20.6-3.1,41.8l-0.1,1.1h1.1
		c0.3,0,0.3,0,0.6,0.1c0.3,0.1,32.8,8.2,53.1,25l0.2,0.1l0.2,0.2c1.7,1.5,3.4,3,4.8,4.5l1.6,1.7l0.1-2.4
		c0.5-12.1,2.6-43.6,10.7-75.1c9.9-38.6,20.9-52.4,22.1-53.9c0.3-0.4,0.8-0.7,1.4-0.8l80.4-14.5l-1.2-1.3
		C519.1,390.4,517.5,387.8,516.4,384.9z"/>
	<path fill="#8CD96F" d="M282.4,272.8l1.2,0.2l0-1.2c-0.1-6.1-0.7-11.2-1.1-14.3l-0.1-1l-1,0.1c-8.5,1.2-13.9,8.7-16.3,13l-0.8,1.4
		l1.6,0.1C272.6,271.4,279.7,272.4,282.4,272.8z"/>
</g>
<g id="vs-skin">
	<path fill="#FCD9CA" d="M606.6,155.6L606.6,155.6c-0.8-5-3.3-8.2-7.5-9.6c-0.6-0.2-1.1-0.2-1.5-0.2c0,0,0,0,0,0
		c-1.7-0.1-3.4,0.4-4.2,1.4c-1.5,2-2.8,11.3-4,21.4l-0.1,0.4c-1,8.4-1.8,14.7-3,18.2c-0.2,0.6-0.6,1.1-1.2,1.4
		c-0.6,0.3-1.3,0.4-1.9,0.1c-0.6-0.2-1.1-0.6-1.4-1.2s-0.4-1.3-0.1-1.9c1-2.9,1.8-8.9,2.7-17.2c1.5-12.4,2.7-21.4,5.1-24.4
		c1.2-1.5,3.1-2.7,5.4-3.1l0.8-0.2l0-0.8c0.1-1.8,0.4-10.9-3.8-15c-1.6-1.8-3.8-2.4-6.8-2.1c-1.3,0.2-2.5,0.5-3.7,1
		c-1.4,0.6-2.6,1.6-3.7,2.9c-4.9,6.3-3.3,18.4-2.7,22c1.1,6.7-1.7,34.2-1.7,34.4c-0.1,1.3-1.2,2.2-2.5,2.2h-0.3
		c-0.6-0.1-1.2-0.4-1.6-0.9c-0.4-0.5-0.6-1.1-0.5-1.8c1-9.4,2.6-28.5,1.8-33.2c-1.1-6.5-2-18.6,3.6-25.8c0.7-1,1.7-1.9,2.7-2.7
		l1.1-0.8l-1.1-0.8c-1-0.8-3.8-2.7-7.1-2.8c-2.3,0-4.5,0.9-6.3,2.8c-1.5,1.4-2.6,3.5-3.5,6.4c-2.6,9.1-0.6,22.8,0.5,31l0.2,1.6
		c0.2,1,0.3,2,0.4,2.8c1.2,9.3-2,21.1-2.5,22.5l0,0.1c-0.3,1-1.3,1.8-2.3,1.8c-0.2,0-0.5,0-0.7,0c-1.3-0.4-2.1-1.8-1.7-3.2l0.1-0.3
		c1-3.7,3.2-12.9,2.3-20.2c-0.1-0.7-0.2-1.5-0.3-2.4l-0.2-1.1c-1.1-7-3-19.9-1.3-30.3l0.3-1.7l-1.6,0.5c-3.1,1.1-8.6,4.6-10.2,16.1
		c-1.4,10.7-0.5,18.5,0.4,26.1l0.1,1.3c0.6,5,1.1,9.7,0.9,14.7c-0.7,13.7-10.4,24.4-14.1,28.6c-0.8,0.9-2.1,1.1-3,0.5
		c-1.8-1.1-3.1-3.1-3.8-5.8c-1-4-0.4-8.4,1.6-11.8c1.6-2.9,2.5-7.7,0.8-11c-1.1-2.2-3.1-3.5-6.2-3.9c-3.4-0.5-6.4,1.9-7.8,3.4
		c-6.2,6.2-9.7,18.1-8.5,28.8c1.6,12.9,7.7,19.3,13.6,25.5l1.1,1.1c1.3,1.4,2.7,2.8,4,4.4c0.3,0.4,0.5,0.8,0.5,1.2
		c1,5.3,2.2,15.4,3.6,30.9c0.7,8.1,1.5,18.9,1.7,24.8c0.3,6.3,0,15.4-0.8,23.1c-1.5,15-3.4,16.3-4.4,17c-0.4,0.2-0.8,0.4-1.3,0.5
		l-0.7,0.1l-0.1,0.7c-1.6,12.6-2.8,26.9,0.1,37.1l0.2,0.9l0.9-0.1c4-0.7,10.1-1.9,16.2-4.1c12.4-4.6,19.7-11.1,21.7-19.2l0-0.2
		c1.3-15.1-3.1-41.1-7-64.2c-2-11.6-3.3-19.8-4.3-26.9c-1.4-10.2-1.8-16.9-1.5-21.6c0-0.3,0.1-0.7,0.3-1.1
		c5.3-8.4,14.6-15.4,23.7-22.2l0.6-0.4c0.8-0.6,1.7-1.3,2.5-1.9c3.5-2.7,6.9-5.2,9.9-7.8c0.2-0.1,0.3-0.2,0.4-0.2
		c2.6-2.4,5.3-4.9,7-7.5C599.4,190.9,608.3,167.1,606.6,155.6z M532.1,234.2c0.6-7,7.2-12.2,10-14.2l0.1-0.1
		c0.9-0.5,2.1-0.2,2.7,0.7c0.6,0.9,0.3,2.1-0.6,2.7c-1.2,0.7-3.1,2.2-4.7,4c-2.2,2.5-3.4,4.8-3.5,7c-0.1,1.1-1,1.9-2,1.9l-0.2,0
		C532.9,236.2,532,235.2,532.1,234.2z"/>
	<path fill="#FCD9CA" d="M518.5,276.5c0.2-0.7,0.7-1.2,1.4-1.5l0.7-0.3l-0.1-0.7c-1.2-12.8-2.3-21.3-3.1-26l0-0.3l-0.2-0.2
		c-1-1.3-2.1-2.4-3.2-3.6c-0.3-0.4-0.7-0.7-1-1.1l-0.2-0.3c-6-6.5-12.9-13.9-14.6-28.1c-1.5-12.1,2.6-25.7,9.9-33
		c3.7-3.7,7.8-5.4,12-4.8c5.9,0.7,8.7,4,10,6.6c2.6,5.4,1.3,12-1.1,15.9c-1.6,2.8-1.5,5.6-1.2,7.1l0.4,2.2l1.4-1.7
		c6.1-7.5,9.3-14.8,9.7-21.9c0.2-3.4-0.1-6.8-0.5-10.8l-0.1-0.9h-0.9c-0.9,0-1.7-0.6-1.9-1.5l-0.1-0.1
		c-5.5-11.9-15.7-20.2-20.3-22.9l-0.4-0.2l-0.4,0.1c-0.2,0.1-0.4,0.2-0.6,0.3c-0.1,0.1-0.2,0.1-0.3,0.1l-0.1,0
		c-3.3,1.6-11,5.2-18.3,4.7c-8.5-0.5-10.6-10.9-11.1-14l-0.1-0.9l-0.9,0c-7.2,0.2-32.3,1.6-51.1,13c-16,9.7-21.3,21.8-27.9,37
		l-1.1,2.5c-2.4,5.4-4.8,11-8.1,16.9c-0.6,1-1.1,1.9-1.7,2.9c-0.5,1-1.1,1.9-1.7,2.9c-1.2,2-2.4,4.2-3.6,6.2
		c-3.7,6.4-7.6,13-11.1,20.1c-8.8,17.9-12.8,34.7-12.9,54.4c0,7.5,0.2,13.9,0.7,19.6c0.8,9.9,2.1,19.4,4.2,28.9
		c1.9,8.5,3.9,14.3,4.7,15.8l0,0c0.5,1.3-0.1,2.7-1.3,3.3c-0.4,0.2-0.7,0.2-1,0.2c-1,0-1.9-0.6-2.3-1.5l-0.1-0.1
		c-0.2-0.3-1.1-2.6-2.4-7l-0.9-3.2l-1,3.2c-1.9,6.2-3.5,16.8-0.6,32.1c2.4,12.8,11.9,22.1,23.1,22.5c0.3,0,0.5,0,0.8,0
		c11.4,0,20.6-8.8,25.5-24.4l0.7-2.2l-2.1,1c-2.6,1.2-4.3,1.8-5,2c-0.2,0.1-0.3,0.1-0.3,0.1c-0.3,0.1-0.6,0.1-0.7,0.1
		c-1.1,0-2-0.7-2.3-1.8c-0.4-1.3,0.3-2.7,1.7-3.1l0.1-0.1c2.9-1,18.7-7.3,49.2-29.6c3.8-2.7,7.8-5.7,11.1-8.3
		c10.6-8.2,20.1-17.1,28.1-26.4c16.4-19.1,22.9-34.9,24.4-39.3L518.5,276.5z M498.8,178.7c-1.1,0-1.9-0.8-2-1.9l0-0.2
		c-0.3-1.5-2.8-5.6-3.1-6.1c-0.6-0.9-0.3-2.1,0.7-2.7c0.3-0.2,0.7-0.3,1-0.3c0.7,0,1.3,0.3,1.7,1c2.5,4.1,3.8,6.8,3.8,8.2
		C500.8,177.7,499.8,178.7,498.8,178.7z M478,219.3L478,219.3c-1.3,3.4-2.6,5.1-4,5.1c-0.1,0-0.1,0-0.2,0c-0.1,0-0.2,0-0.4-0.1
		c-0.9-0.2-1.6-0.9-1.8-1.9c-0.4-1.6,0.7-6.8,2.6-8.1c0.2-0.2,0.5-0.3,0.8-0.4l0.2-0.1l0.2-0.1c0.6-0.5,1.5-0.5,2.2-0.1
		C479.4,214.6,478.8,217.2,478,219.3z M423.4,340.3c-2.8,7.9-7.1,13.1-12.1,14.6c-0.2,0-0.4,0.1-0.7,0.2h-0.2
		c-3.1,0-5.1-3.1-7.2-6.3c-1.3-2.1-2.7-4.2-4.2-5.3c-3.7-2.7-7.5-3.9-7.7-3.9c-0.8-0.3-1.4-0.9-1.4-1.8l-0.2-2.8l0-0.3
		c0.8-10,6.9-28.4,24.7-28.4c0.4,0,0.9,0,1.4,0c5.4,0.1,9.1,4.6,10.1,12.4C426.9,325,425.9,333.3,423.4,340.3z M468.2,255.6
		c-3.5,14.1-11.8,31.7-31,35.1c-1.7,0.3-3.5,0.4-5.5,0.4c-14.4,0-27.5-8.4-32.6-16.3c-5.3-8.2-6.4-19.4-3.1-30.1
		c2.8-9,8.2-15.9,14.3-18.6c3.1-1.4,7-1.9,11-1.9c12.8,0,27.4,5.3,27.6,5.4c0.5,0.2,0.9,0.5,1.1,0.9c0.2,0.5,0.3,1,0,1.6
		c-0.2,0.5-0.5,0.9-0.9,1.1c-0.5,0.2-1,0.2-1.6,0c-6.7-2.4-26.1-7.8-35.6-3.7c-5.1,2.2-9.7,8.4-12.1,16.1c-3,9.5-2,19.5,2.6,26.8
		c5.5,8.6,20.4,16.3,34,14.1c13.5-2.3,23.1-13.4,27.8-32c0.1-0.5,0.5-1,0.9-1.2c0.4-0.3,1-0.4,1.5-0.2
		C467.8,253.4,468.5,254.5,468.2,255.6L468.2,255.6z M457.9,206.9L457.9,206.9c-0.4,1.3-2.5,5.9-5.3,5.9c-0.3,0-0.5,0-0.7-0.1
		c-1.1-0.3-1.9-1.2-2.1-2.3c-0.3-2.1,1.7-6.4,3.6-7.6c0.2-0.1,0.4-0.2,0.7-0.3l0.3-0.1l0.2-0.2c0.3-0.4,0.9-0.6,1.4-0.6
		c0.3,0,0.6,0.1,0.9,0.2C458.4,202.6,458.7,204.3,457.9,206.9z M470.6,168.7L470.6,168.7c-0.4,0.4-1.1,0.7-1.6,0.7
		c-0.5,0-1-0.2-1.3-0.4c-0.8-0.8-0.9-2-0.2-2.9c0-0.1,4.6-5.4,12.8-6.7c0.1,0,0.2,0,0.3,0c0.4,0,0.8,0.1,1.1,0.4
		c0.4,0.3,0.7,0.8,0.8,1.3c0.2,1-0.6,2-1.7,2.2C475.7,164.1,471.7,167.1,470.6,168.7z"/>
	<path fill="#FCD9CA" d="M521.3,309.8l1,0.1l0-1c0.1-2.4,0.1-4.7,0-6.9c-0.1-4.1-0.6-10.2-1-15.1l-0.3-3.6l-1.6,3.3
		c-3.3,6.7-9.2,17.2-18.8,29l-1.1,1.4l1.8,0.2c0.7,0.1,1.7,0.2,2.9,0.2c4.1,0,10.4-1.1,14.8-6.5
		C519.6,310.1,520.5,309.7,521.3,309.8z"/>
	<path fill="#FCD9CA" d="M364.7,257l0.3-0.8c1.7-5.3,3.8-10.5,6.5-16.1l0.1-0.3l-1.6-9.3c-0.1-0.5,0-1,0.3-1.5
		c0.3-0.4,0.8-0.7,1.3-0.8c1.1-0.2,2.1,0.5,2.3,1.6l0.6,4.2l1.4-2.6c2.1-3.8,4.2-7.4,6.2-10.9l1.5-2.5c0.3-0.5,0.6-1,0.9-1.6
		c0.3-0.5,0.6-1,0.9-1.5l0.4-0.7l-0.6-0.6c-0.2-0.2-0.4-0.5-0.6-0.7c-0.8-1.4-7.7-12.3-19.7-6.1c-7.9,4.1-11.2,22.5-8.8,36.3
		c1.3,7.8,4.2,13,7.7,13.7L364.7,257z"/>
	<path fill="#FCD9CA" d="M261.7,276.2c-3.6,0-5.4,0.2-6.5,0.6l-0.1,0.1c-2.3,1.3-15,12.6-29,25c-35,31.2-62.4,55.3-70.9,58.4
		l-1.2,0.4l0.7,1c4.3,6.7,6.7,12.3,6.7,12.4c0.3,0.6,0.3,1.3,0.1,1.9c-0.2,0.6-0.7,1.1-1.4,1.4c-1.3,0.6-2.7,0-3.2-1.2
		c-0.1-0.2-10.7-24.4-24.8-29.2c-7.2-2.5-13.8-2.1-18,1.1c-3,2.3-4.5,5.8-4.3,9.9c0.3,6.9,2.9,7.5,7.6,8.7l0.9,0.3
		c1.4,0.4,3.1,0.9,4.6,1.6c3.5,1.6,13.5,5.9,15.6,6.6l0,0c0.6,0.2,1.1,0.7,1.4,1.3c0.3,0.6,0.3,1.3,0.1,1.9c-0.4,1-1.3,1.6-2.4,1.6
		c-0.3,0-0.6-0.1-0.9-0.2l-0.2-0.1c-0.6-0.2-9-3.6-15.8-6.6c-1.6-0.7-3.1-1.1-4.8-1.6c-0.3-0.1-0.6-0.1-0.8-0.2l0.2-0.2l-1.6-0.5
		c-4.4-1.4-8.6-3.8-9.1-12.6c-0.3-5.8,2-10.8,6.3-14.2c2.3-1.8,5.2-2.9,8.6-3.4l1.4-0.2l-0.6-1.2c-3.6-7.2-8.6-10.8-12.2-12.4
		c-0.2-0.1-0.4-0.2-0.6-0.3c-0.5-0.2-0.9-0.5-1.3-0.8l-0.4-0.4l-0.5,0.1c-9.1-4.7-13.9-9.6-9.9-19.6c0.3-0.9,0.8-1.7,1.4-2.7
		l0.5-0.8l-0.7-0.6c-5.9-4.5-17.8-5.5-25.4-2.1c-4.6,2.1-7,5.2-7.1,9.3c-0.2,8.2,3.1,12.4,5,14.1c2.8,2.5,6.1,3.3,8.1,2.9
		c5.7-0.9,21.6,1.3,23.5,1.6c0.4,0.1,0.8,0.3,1.2,0.6l0.4,0.3l0.2,0c0.4,0.5,0.6,1.1,0.5,1.8c-0.2,1.2-1.3,2.2-2.5,2.2h-0.4
		c-6.5-0.8-17.9-2.2-22-1.6c-3.9,0.6-8.6-1.1-12.1-4.1c-0.8-0.8-1.6-1.6-2.5-2.8l-0.5-0.6l-0.7,0.3c-0.5,0.2-1.1,0.3-1.6,0.2
		c-3.7-0.7-8.5,0.6-12.2,3.4c-3.6,2.9-5.7,6.5-5.9,10.5c-0.2,4.4,2.7,6.9,4.5,8c4.2,2.7,10.2,3.2,14,1.2c6.2-3.3,15.4-5.1,20.1-2.5
		c1.7,0.9,2.7,2.5,2.8,4.4c0.2,3.6-4,5.7-9.9,8.5l-0.6,0.3c-6,2.9-14.1,6.9-15.7,12.4c-0.9,3.2-0.7,5.6,0.4,7.3
		c1.6,2.3,5.3,3.7,10.4,4c0.1,0,0.2,0,0.2,0c2.6,0,7.8-1.7,13.3-3.6c7.6-2.6,17.9-6.1,26.5-5.7c0.9,0.1,1.8,0.2,2.8,0.4l-0.1,0.1
		l1.6,0.5c9.6,2.9,16.1,13.7,19.6,19.5l0.4,0.7c0.6,0.9,1.1,1.9,1.5,2.4l0.2,0.2l0.2,0.1c1.4,0.6,4.8,1,8.8,1
		c6.8,0,15.6-1.2,19.9-4.9c2.7-2.2,7.7-6.7,13.9-12.3l3.6-3.2c12.3-11,27.5-24.7,41.4-35.9c23.5-19,44.4-22.1,44.7-22.1
		c0.8-0.2,1.6,0.3,2,0.6l0.8,0.6l0.6-0.7c6-7.1,9.8-15.5,11.4-24.9c0.8-4.6,1.3-9.3,1.5-14.9l0-0.9l-0.9-0.1
		C275,276.8,267,276.1,261.7,276.2z"/>
	<path fill="#FCD9CA" d="M110.2,322c9.6,4.6,13.9,13.2,14.9,15.7c0,0.1,0.1,0.2,0.1,0.2c0.2,0.4,0.2,0.9,0.1,1.3l-0.2,1.1l1.1,0.1
		c2.3,0.2,4.7,0.7,7.4,1.7c4.2,1.4,8.5,4.4,12.8,8.8l2.5,2.6l-0.8-3.5c-2.6-11.6-8.5-32.3-19.5-40.7h0c-8.4-6.4-16.2-9-22-7.5
		c-3.1,0.9-5.3,2.9-6.4,5.8C97.5,314.2,99.4,317,110.2,322z"/>
</g>
<path fill="none" stroke="#000000" stroke-width="6" stroke-linecap="round" stroke-linejoin="round" stroke-miterlimit="10" d="
	M468.9,167.4c0,0,4.2-4.9,11.6-6.1"/>
<path fill="none" stroke="#000000" stroke-width="6" stroke-linecap="round" stroke-linejoin="round" stroke-miterlimit="10" d="
	M495.3,169.5c0,0,3.4,5.6,3.4,7.1"/>
<path fill="none" stroke="#000000" stroke-width="6" stroke-linecap="round" stroke-linejoin="round" stroke-miterlimit="10" d="
	M456,203.7c1.5,0.7-1.9,7.6-3.7,7.2s1.5-7.1,2.8-6.3"/>
<path fill="none" stroke="#000000" stroke-width="6" stroke-linecap="round" stroke-linejoin="round" stroke-miterlimit="10" d="
	M476.6,215.2c0.9,0.5-1.8,7.3-2.8,7.1s0.8-7.3,2-6.5"/>
<path fill="none" stroke="#000000" stroke-width="6" stroke-linecap="round" stroke-linejoin="round" stroke-miterlimit="10" d="
	M448.3,231.3c0,0-24.7-8.9-37.1-3.6c-12.4,5.4-20.6,29.7-10.4,45.8s53,31.2,65.5-18.5"/>
<path fill="none" stroke="#000000" stroke-width="6" stroke-linecap="round" stroke-linejoin="round" stroke-miterlimit="10" d="
	M391.8,334.6c0,0,2.1-27.5,24-26.5c14.6,0.2,9.1,40.7-5,44.8c-3.7,0.3-6.3-8.2-10.4-11.2s-8.3-4.2-8.3-4.2L391.8,334.6z"/>
<path fill="none" stroke="#000000" stroke-width="7" stroke-linecap="round" stroke-linejoin="round" stroke-miterlimit="10" d="
	M371.1,360.1c0,0-9.9-23.7-9.8-65.3c0.2-41.6,18.2-63.9,31.2-87.6s14.7-43.1,38.1-57.3s55.6-13.5,55.6-13.5s0.4,14.4,9.1,15
	s18.3-5.5,19.5-5.5s15.6,9,22.9,24.8"/>
<path fill="none" stroke="#000000" stroke-width="7" stroke-linecap="round" stroke-linejoin="round" stroke-miterlimit="10" d="
	M520.7,277.3c0,0-11,34.5-53.5,67.1s-61.3,38.4-61.3,38.4"/>
<path fill="none" stroke="#000000" stroke-width="7" stroke-linecap="round" stroke-linejoin="round" stroke-miterlimit="10" d="
	M386.9,211.6c0,0-8.4-14.8-23.2-7c-14.8,7.7-14.2,52.7,0,54.7"/>
<line fill="none" stroke="#000000" stroke-width="6" stroke-linecap="round" stroke-linejoin="round" stroke-miterlimit="10" x1="371.8" y1="230" x2="373.4" y2="238.9"/>
<path fill="none" stroke="#000000" stroke-width="7" stroke-linecap="round" stroke-linejoin="round" stroke-miterlimit="10" d="
	M382.4,205.1c0,0-10.3-19.9-6.8-34.2c3.6-14.2,12.8-13.1,17.1-1.7c2.3-22.7,17.3-47.1,24.3-48s6.3,12.8,6.3,12.8
	s16.5-27.6,38.3-30.6c7.1-0.3,1.5,8.7-1,14.1c29.6-13.9,58.4-9.1,58.7-7.6c0.1,1.9-7.2,11.8-5.4,14.2c16.6-4.8,27.7-2.1,30.2,2.8"/>
<path fill="none" stroke="#000000" stroke-width="7" stroke-linecap="round" stroke-linejoin="round" stroke-miterlimit="10" d="
	M497.6,318.9c0,0,14.7,4.3,23.5-6.6"/>
<path fill="none" stroke="#000000" stroke-width="7" stroke-linecap="round" stroke-linejoin="round" stroke-miterlimit="10" d="
	M456.4,353c0,0,46.1-19,63.3-32.2c2.6,4.8-12.5,56,4.2,71c6.6,6.6,15.2,3.2,15.8-10.9"/>
<path fill="none" stroke="#000000" stroke-width="7" stroke-linecap="round" stroke-linejoin="round" stroke-miterlimit="10" d="
	M519.6,383.8c0,0,37.1-4.1,42.1-25.8c2.5-28.3-14.4-92-12.8-112.9c7.7-12.2,25.1-21.9,36.5-32.1c2.9-2.6,5.4-5.2,7.3-7.9
	c9.2-13.3,18.2-37.5,16.4-49.9s-13.9-14.2-17.5-9.5c-3.7,4.7-4.8,33-7.5,40.8"/>
<path fill="none" stroke="#000000" stroke-width="7" stroke-linecap="round" stroke-linejoin="round" stroke-miterlimit="10" d="
	M598.2,141.7c0,0,2.4-22.7-13.2-21.2s-13.3,22.4-12.3,28.7S571,183,571,183"/>
<path fill="none" stroke="#000000" stroke-width="7" stroke-linecap="round" stroke-linejoin="round" stroke-miterlimit="10" d="
	M581,119.9c0,0-10.3-11.4-19.5-2.3s-4.2,34.3-3,43.8c1.3,9.5-2.5,21.6-2.5,21.6"/>
<path fill="none" stroke="#000000" stroke-width="7" stroke-linecap="round" stroke-linejoin="round" stroke-miterlimit="10" d="
	M555.4,123.9c0,0-12.6-0.2-15.1,18.8s2.1,29.8,1.4,42.3c-0.7,12.5-9.3,22.4-13.5,27.1c-2.9-1.6-4.6-8.7-1.4-14.1
	c3.2-5.4,4.1-17.3-7.1-18.7s-21.2,17.7-19.1,35s12,23.6,19.1,32.3c2.1,11,4.9,43.2,5.3,55.3c0.5,12-1.2,35.9-4.2,38.1"/>
<path fill="none" stroke="#000000" stroke-width="6" stroke-linecap="round" stroke-linejoin="round" stroke-miterlimit="10" d="
	M543.3,221.6c0,0-8.6,5.4-9.2,12.7"/>
<path fill="none" stroke="#000000" stroke-width="7" stroke-linecap="round" stroke-linejoin="round" stroke-miterlimit="10" d="
	M585.9,214c0,0,8,7.5,8,11.1s-2.2,6.5-8,8.6s-10.7,3.4-10.2,4.9s3.7,3.2,3.1,7.3s-7.2,4.7-13.3,7.6c-6.1,2.9-14.3,12.5-14.3,12.5"/>
<path fill="none" stroke="#000000" stroke-width="7" stroke-linecap="round" stroke-linejoin="round" stroke-miterlimit="10" d="
	M529.5,395l-87.3,15.8c0,0-11.2,12.7-21.6,52.9S409.9,543,409.9,543"/>
<path fill="none" stroke="#000000" stroke-width="7" stroke-linecap="round" stroke-linejoin="round" stroke-miterlimit="10" d="
	M346.8,511.3c0,0,49.5,12.7,63.1,37c3.2,5.5-0.9,7.5-14.5,5.8c4-13,5.4-15.3,5.4-15.3l6.6,10.2l-5.5,1.2l1.1-3.8"/>
<path fill="none" stroke="#000000" stroke-width="7" stroke-linecap="round" stroke-linejoin="round" stroke-miterlimit="10" d="
	M366.4,344c0,0-10.6,12.7-5,42.6s44.5,37.6,55.3-5.5"/>
<path fill="none" stroke="#000000" stroke-width="7" stroke-linecap="round" stroke-linejoin="round" stroke-miterlimit="10" d="
	M360.4,314.8c0,0-58.9-59.4-75-60.8c-16.3-1.4-23.8,16.9-23.8,16.9"/>
<path fill="none" stroke="#000000" stroke-width="7" stroke-linecap="round" stroke-linejoin="round" stroke-miterlimit="10" d="
	M284.5,254.5c0,0,3.7,18.5,0,39.8s-17,30.8-17,30.8s38.6,14.1,57.7,33.7"/>
<path fill="none" stroke="#000000" stroke-width="7" stroke-linecap="round" stroke-linejoin="round" stroke-miterlimit="10" d="
	M284.2,275.6c0,0-24.8-3.7-30.3-1.3c-5.5,2.4-88,80.3-100.1,83.5"/>
<path fill="none" stroke="#000000" stroke-width="7" stroke-linecap="round" stroke-linejoin="round" stroke-miterlimit="10" d="
	M267.5,320.7c0,0-20.5,3.1-43.4,21.6s-50.6,44.5-58.9,51.4c-8.3,6.9-29.8,6.3-32.3,3.5s-10.7-22.1-24.3-22.7s-32.9,9.7-40.1,9.3
	s-16.4-3.3-13.1-14.6c3.3-11.2,26.3-15.6,26-20.4c-0.2-4.8-11.5-3.9-19.1,0.2c-7.7,4.1-22.8-0.5-22.1-11.6s12.6-17.9,21.1-16.2"/>
<path fill="none" stroke="#000000" stroke-width="7" stroke-linecap="round" stroke-linejoin="round" stroke-miterlimit="10" d="
	M100.6,329.8c0,0-17.2-2.4-22.8-1.6s-16.4-4.1-15.9-19.6s27.2-17.2,37.3-8.5"/>
<path fill="none" stroke="#000000" stroke-width="7" stroke-linecap="round" stroke-linejoin="round" stroke-miterlimit="10" d="
	M151.9,356.6c0,0-5.5-36.8-21.8-49.3s-28.4-9.9-32.2-0.8s1,12.8,11.2,17.7c10.2,4.8,13.8,14.4,13.8,14.4"/>
<path fill="none" stroke="#000000" stroke-width="7" stroke-linecap="round" stroke-linejoin="round" stroke-miterlimit="10" d="
	M159,374.9c0,0-10.9-25.2-26.3-30.5s-26.3,1.9-25.7,13.5c0.6,11.5,7.9,9.6,14.7,12.7c6.8,3.1,15.7,6.6,15.7,6.6"/>
<path fill="none" stroke="#000000" stroke-width="7" stroke-linecap="round" stroke-linejoin="round" stroke-miterlimit="10" d="
	M399.6,95.2c0,0,2.9-20.3-3.9-30.7s-16.2-6.8-16.2,2.9c0,9.6,17,16.3,19.3,27.8"/>
<path fill="none" stroke="#000000" stroke-width="7" stroke-linecap="round" stroke-linejoin="round" stroke-miterlimit="10" d="
	M320.5,356.6c0,0-91.3,74.6-106.2,159.8"/>
<path fill="none" stroke="#000000" stroke-width="7" stroke-linecap="round" stroke-linejoin="round" stroke-miterlimit="10" d="
	M246.4,502.1c0,0-14.7,0.7-25,8.1c-3.1,2.2-5.8,5.1-7.6,8.7c3.7,4.4,6.8,3.9,6.8,3.9l1.8-9.9l-5.5,7.5"/>
<path fill="none" stroke="#000000" stroke-width="7" stroke-linecap="round" stroke-linejoin="round" stroke-miterlimit="10" d="
	M238.4,512.5c0,0,53.7-55.3,72.1-59.2c18.5-3.9,36,5.8,36,12.6s-7,89.9-8.1,96.3"/>
<path fill="none" stroke="#000000" stroke-width="7" stroke-linecap="round" stroke-linejoin="round" stroke-miterlimit="10" d="
	M295.7,513.9l-50.8,153.2"/>
<path fill="none" stroke="#000000" stroke-width="7" stroke-linecap="round" stroke-linejoin="round" stroke-miterlimit="10" d="
	M275.2,641.4c-0.3,0-23.8,10-30.3,25.7c-1.8,7-1.1,15.6,15.1,14.2"/>
<path fill="none" stroke="#000000" stroke-width="7" stroke-linecap="round" stroke-linejoin="round" stroke-miterlimit="10" d="
	M227.7,507.3c0,0-8.5,27.9-8.4,45.8c0.1,17.9,18.4,40.6,48,36.4"/>
<path fill="none" stroke="#000000" stroke-width="7" stroke-linecap="round" stroke-linejoin="round" stroke-miterlimit="10" d="
	M376.4,564c34.5,16.4,12.4,62.1,0,77.4s-42.4,51.5-48.2,67.1s-22.2,34.2-47.2,28s-24.3-34.6-15.8-61.7c8.5-27.1,29.8-78.6,64.2-103
	C351.9,558.1,366.6,559.3,376.4,564z"/>
<line fill="none" stroke="#000000" stroke-width="7" stroke-linecap="round" stroke-linejoin="round" stroke-miterlimit="10" x1="399.3" y1="536" x2="389.8" y2="571.7"/>
<path fill="none" stroke="#000000" stroke-width="7" stroke-linecap="round" stroke-linejoin="round" stroke-miterlimit="10" d="
	M373.6,646.7c0,0-17,69.1-19.8,76.4c-2.9,7.2-45.9,69.8-55,91.1c-9.2,21.3-10.4,27.6-15,29.8s-24.4,4-37.6-10.8s-5-30.8-3.1-32.9
	c1.9-2.1,15.4-7.5,28.7-27.3s18.2-32.9,18.2-32.9"/>
<path fill="none" stroke="#000000" stroke-width="5" stroke-linecap="round" stroke-linejoin="round" stroke-miterlimit="10" d="
	M386.3,625.6c0,0,9.6-37.2-9.2-45.3s-51.4,17.4-72.6,50.8c-21.2,33.5-41.3,79.9-24,103.8"/>
<line fill="none" stroke="#000000" stroke-width="5" stroke-linecap="round" stroke-linejoin="round" stroke-miterlimit="10" x1="343.5" y1="588.9" x2="388.7" y2="602.1"/>
<path fill="none" stroke="#000000" stroke-width="5" stroke-linecap="round" stroke-linejoin="round" stroke-miterlimit="10" d="
	M321.8,610.8c0,0,59.3,13.6,60.2,13.4"/>
<line fill="none" stroke="#000000" stroke-width="5" stroke-linecap="round" stroke-linejoin="round" stroke-miterlimit="10" x1="307.7" y1="629.4" x2="372.9" y2="643"/>
<path fill="none" stroke="#000000" stroke-width="5" stroke-linecap="round" stroke-linejoin="round" stroke-miterlimit="10" d="
	M293.4,651.6c0.5-0.1,63.3,11.7,63.3,11.7"/>
<line fill="none" stroke="#000000" stroke-width="5" stroke-linecap="round" stroke-linejoin="round" stroke-miterlimit="10" x1="286.5" y1="666.8" x2="343.5" y2="679.3"/>
<line fill="none" stroke="#000000" stroke-width="5" stroke-linecap="round" stroke-linejoin="round" stroke-miterlimit="10" x1="278.2" y1="689.7" x2="328.5" y2="699.9"/>
<line fill="none" stroke="#000000" stroke-width="5" stroke-linecap="round" stroke-linejoin="round" stroke-miterlimit="10" x1="275.2" y1="711.4" x2="318.4" y2="722.5"/>
<path fill="none" stroke="#000000" stroke-width="7" stroke-linecap="round" stroke-linejoin="round" stroke-miterlimit="10" d="
	M264.3,845.5c0,0-11.9,31.8-0.9,45.1"/>
<path fill="none" stroke="#000000" stroke-width="7" stroke-linecap="round" stroke-linejoin="round" stroke-miterlimit="10" d="
	M221,898.7c0.8-0.5,22.9-15.6,49.8-5.4c26.9,10.2,32.3,22.6,29.5,47.1c-26.6,7.9-79.8,2.6-94.2,0S181.3,924.5,181,911
	s9.6-23.1,4.6-41.9c-5-18.8-3.7-40.7,11.3-48.3c12.2-3.7,31.5-0.8,40.5-4"/>
<path fill="none" stroke="#000000" stroke-width="7" stroke-linecap="round" stroke-linejoin="round" stroke-miterlimit="10" d="
	M189.1,933.9l-9.3-9.3c0,0,6,12.6,5.4,12.4s-13.5-13.3-13.5-13.3l6.8,15.2l-9.5-11.7c0,0,4.5,6.8,1.6,4.8c-2.9-1.9-10-6.5-10-6.5
	l1.7,5.2l-10.9-3.9l-4.5-0.2l-15.9-2.9"/>
<path fill="none" stroke="#000000" stroke-width="5" stroke-linecap="round" stroke-linejoin="round" stroke-miterlimit="10" d="
	M216.3,818.7c0,0-17.8,9.3-17.4,26s3.6,21.5,1.5,34.9c-2.1,13.5-12.1,22.8-1.5,36.7s30,10.8,50.5,10.4s50.7-1.7,50.7-1.7"/>
<path fill="none" stroke="#000000" stroke-width="5" stroke-linecap="round" stroke-linejoin="round" stroke-miterlimit="10" d="
	M206.6,921.1c0,0,3.3-14.7,13.6-21"/>
<path fill="none" stroke="#000000" stroke-width="5" stroke-linecap="round" stroke-linejoin="round" stroke-miterlimit="10" d="
	M240.2,892.4c0,0,7.3,5.3,12.6,12.7s15.8,9.1,24.4-7.9"/>
<path fill="none" stroke="#000000" stroke-width="5" stroke-linecap="round" stroke-linejoin="round" stroke-miterlimit="10" d="
	M257,842.8c0,0-13.9,24-4.2,47"/>
<path fill="none" stroke="#000000" stroke-width="5" stroke-linecap="round" stroke-linejoin="round" stroke-miterlimit="10" d="
	M244.9,831.8c0,0-21.6,27.1-13,58.7"/>
<line fill="none" stroke="#000000" stroke-width="5" stroke-linecap="round" stroke-linejoin="round" stroke-miterlimit="10" x1="240.2" y1="842.8" x2="253.1" y2="848.2"/>
<path fill="none" stroke="#000000" stroke-width="5" stroke-linecap="round" stroke-linejoin="round" stroke-miterlimit="10" d="
	M235.1,849.4c0.3,0.6,15.1,6.8,15.1,6.8"/>
<path fill="none" stroke="#000000" stroke-width="5" stroke-linecap="round" stroke-linejoin="round" stroke-miterlimit="10" d="
	M232.9,860.2c0.2,0.1,15.4,3.2,15.4,3.2"/>
<path fill="none" stroke="#000000" stroke-width="5" stroke-linecap="round" stroke-linejoin="round" stroke-miterlimit="10" d="
	M230.9,871.8c0.4,0.1,16.9,0.6,16.9,0.6"/>
<path fill="none" stroke="#000000" stroke-width="5" stroke-linecap="round" stroke-linejoin="round" stroke-miterlimit="10" d="
	M231.3,882.7c0.2,0,9.8-3,17.4-0.7"/>
<path fill="none" stroke="#000000" stroke-width="18" stroke-linecap="round" stroke-linejoin="round" stroke-miterlimit="10" stroke-opacity="0" d="
	M386.9,199.5c0.8-1.1,0-7.3,0-7.3s4.4-0.9,4-1.8c-0.5-0.9-9.6-9.9-9.6-10.6s0.9-6.6,0.9-6.6l14,8c0,0,2.7-7.2,2.2-8
	c-0.5-0.9-11.5-10-11.5-10l18,1.3l-2.3-10.1c0,0,0.2-15.6,1.1-15.6s7.3,13.3,8,12.8s7.8-2.8,7.8-3.9s-7.3-18.3-6.3-19.4
	c1-1.1,5.4-2.8,5.4-2.8s8.5,14.5,9.4,14.3s8.3-3.4,8.3-3.4l-5-14.7l11.4-7.6l8.1,18.8c0,0,8.1-1.4,9.1-2.8c0.9-1.4-3-18.6-3.5-20.2
	s8.3-1.6,8.3-1.6l5.9,18.8h6.2c0,0,5.8,0.7,5.3-0.2s-4.8-11.9-3.9-12.9c0.9-1.1,11.2-2.9,11.2-2.9l2.9,22c0,0,3.8,9.5,4.7,9.1
	s7,0.9,6.6,0s-0.5-30.8,0-30.8s8.7,1.6,8.7,1.6s-0.2,23.8,0.9,24.2s3.9,2.2,5,1.5s4.6-14.8,4.6-14.8h5.7c0,0,8.4-1.5,6.9,0
	s-5.3,11.6-5.3,12.5s0.9,8.7,0.8,9.4s1.7,6.9,1.7,6.9"/>
<path fill="none" stroke="#000000" stroke-width="18" stroke-linecap="round" stroke-linejoin="round" stroke-miterlimit="10" stroke-opacity="0" d="
	M589.3,223.1c-2.9,1.3-33.3,21.7-33.3,21.7l1.4,10.1l17.9-10.3"/>
<path fill="none" stroke="#000000" stroke-width="18" stroke-linecap="round" stroke-linejoin="round" stroke-miterlimit="10" stroke-opacity="0" d="
	M400.6,332.9c0.2-2.6,3.6-12.1,3.6-12.1l9.5-3l0.8,8.3l-4.2,15.5l-1.6-16.4"/>
<path fill="none" stroke="#000000" stroke-width="14" stroke-linecap="round" stroke-linejoin="round" stroke-miterlimit="10" stroke-opacity="0" d="
	M485.2,142.3c-1.4,0.5-70.7,19-70.7,19v8.2l85.8-17.8l17.9,2.5l16.6,17.8v11v7.1l-0.7,6.4l-4.4,6.5"/>
<path fill="none" stroke="#000000" stroke-width="14" stroke-linecap="round" stroke-linejoin="round" stroke-miterlimit="10" stroke-opacity="0" d="
	M526.6,176.6L509.9,160l-98.4,19.7l-4.6,5.3c0,0,101.5-16.3,102.9-15.5s3,3.6,3,3.6S366.6,199,366.3,200.6c-0.2,1.6-3,6.6-3,6.6
	l140.3-25.6l-3.3,6.4c0,0-138.8,26-139,27.2s-2.1,7.1-2.1,7.1s138.4-25.8,137.8-25.1s0,6.5,0,6.5s-138.9,24.6-139.2,27.2
	s-1.1,9.9-1.1,9.9l136.8-27l3.4,8.5l-135.7,29.4l4.4,10.1c0,0,133.3-28.9,134.6-28.4s5.4,8.3,5.4,8.3l-135.7,30.5l-2.5,9.6
	c0,0,146.5-34.3,146.5-33.1s1.6,10.6,1.6,10.6L362.3,292l0.9,6.7c0,0,152.5-31.6,152.5-29.6s-0.7,9.2-0.7,9.2L369.7,308v7.9
	l144.8-27c0,0,1.5,6.3,1.6,6.1c0.1-0.2-144.3,31.5-144.3,31.5l1.6,10.8l144.3-35.7c0,0,0.7,6-1.1,6.5s-12.9,5.3-12.9,5.3L376,345.3
	l1.1,6.4l102.7-22.5l-13.5,6.9l-97.4,21.8l-1.1,9.6l90.3-20.5l-24.8,10.9c0,0-65.7,18.1-66,19s0.8,8.6,0.8,8.6l61.1-18.8l-28.6,12.7
	L370,392.9l5,6.1l33.2-13.3l-9.5,12.6c0,0-18.3,6.2-17.3,5.2c1.1-0.9,11.3-6,11.3-6"/>
<path fill="none" stroke="#000000" stroke-width="14" stroke-linecap="round" stroke-linejoin="round" stroke-miterlimit="10" stroke-opacity="0" d="
	M277.1,281.5l-2.1,20.8l-6.4,12.4c0,0,5-34.2,2.3-34.9s-11.7-2.5-11.5-1.6s1.1,37.3,1.1,37.3l-7.1,3.3l-4-36.4l-4.7,1.8l1.1,41.9
	l-6.4,1.4c-0.1,0-3.3-33.5-3.3-33.5l-7.4,6.6c0,0,3.2,27.7,2.4,30.1s-4.8,7.8-4.8,7.8l-5.7-32l-7.2,2.7c0,0,4.3,31.7,3.6,33.2
	s-7.9,14-7.7,12s-2.2-34.6-2.2-34.6s-8.5,9-8.9,9.8c-0.5,0.8,1.2,28.8,1,29s-6.4,5.6-6.4,5.6l-2.4-28l-6.3,3.6v29.6
	c0,0-4.8,6.4-5.1,5.5s-2.6-28.6-2.6-28.6l-6.4,0.3c0,0,3.3,35.2,1.7,36.6s-4.6,3.4-4.9,2.3c-0.2-1.1,0.5-26.6-2.8-27.9
	c-3.2-1.3-5.1-1.2-5.1-1.2s3.6,38.8,3.2,39c-0.4,0.2-6.8,0-6.8,0s-13-69.8-15.4-71.4s-8.5-13.1-8.5-13.1s15.6,84.7,13.1,84.6
	s-12.9,2.3-11.6-0.1c1.3-2.4-10.5-90.7-13.5-93.2s-8.7-4.1-8.7-4.1l16.4,84l-7.6-2.3l-19.4-83.4h-3.5l8.9,72.2l-4.9,4.1l-14.2-76.8
	l-3.2-1.3l9.2,80.9c0,0-6.4,4.7-7,2.3c-0.6-2.4-9-82.7-9.8-82.5c-0.8,0.2-6.8,4.4-6.8,4.4l9.1,78.1l-9.3,5.8l-4.9-65.1l-4.7,0.4
	l1.4,60.9c0,0-4.1-60.2-5-59.4c-0.9,0.8-3.6,25.7-4.9,25.2c-1.3-0.6-6.6-15-6.6-15v12.8"/>
<path fill="none" stroke="#000000" stroke-width="14" stroke-linecap="round" stroke-linejoin="round" stroke-miterlimit="10" stroke-opacity="0" d="
	M521.5,375.1c4-0.9,23.7-4.6,23.7-4.6l7.1-10.4l-30.8,7.5l2.6-9.7l32.8-5l1.3-8.1l-34,3.7v-13.1c0,0,33.3,0.4,33.2-1
	c-0.2-1.4-1.3-10.2-1.3-10.2s-23.9,1.9-24.8,0c-0.9-1.9-5.4-12.8-2.8-13.2s23.9,1.2,23.9,1.2s-1.6-6.2-2.3-7.1s-18.1-3.3-18.3-3.6
	s-3-5.4-0.7-5.6s17.2,0,17.2,0s1.4-9-0.2-9.1s-14-1.7-15.1-1.7s-3.3-3.4-3.3-3.4s18.3-3,16.8-6.2c-1.6-3.2-0.9-9.6-0.9-9.6
	l-21.3,3.4l3.8-10.8l11.8-1c0,0,2.8-11.1,1.6-11.3s-12.4,4.2-13.4,2s-5.6-8.5-3.8-8.2s24,0,24,0s-29.7-6.1-30.6-7.1
	c-0.9-0.9-10.5-8.7-6-8.5c4.6,0.2,45.6,6.2,46.6,5.4c1.1-0.9,10.9-5.7,8.6-5.4c-2.3,0.3-60.5-8.9-60.5-9.2s0-7.5,0-7.5
	s68.8,10.5,69.5,10.3s5.3-5.7,5.3-5.7s-70-11.7-69.5-12.8s2.5-9.6,2.5-9.6s75.6,16.6,76.4,13.9s4.8-9.7,4.8-9.7s-82.2-10.6-79.1-11
	s35.2-2.1,35.2-2.1s45.5,6.2,47.1,4.4s6-6.9,1.9-7.6s-51.4-3.8-51.6-5c-0.2-1.2-0.2-11.4-0.2-11.4l57.4,7c0,0,1-8,0-8.3
	c-1-0.2-59.5-7.3-59.5-7.3v-6.6c0,0,56.8,6.3,57.4,4.5s-9-12.8-9-13.4s-45.6,0.3-45.9,0s-0.9-5.7-0.9-5.7l44.2-1.3
	c0,0,0.2-4.8-2.9-6.3c-3.1-1.5-25.7-3.9-24.9-4.5"/>
<path fill="none" stroke="#000000" stroke-width="22" stroke-linecap="round" stroke-linejoin="round" stroke-miterlimit="10" stroke-opacity="0" d="
	M295.4,262.5c-1.6-1-51.1,9.3-51.1,9.3s68.1-6.5,73.7-1.9s15.6,14.4,15.6,14.4s-46.5-2.1-46.5,0s-2.9,14.4-2.9,14.4h65.5l7,12.4
	l-78.6,1l-2.4,15.5l87.6-3.6c0,0,157.6,1.2,157.7,2.1s-0.3,13.8-0.3,13.8H299.4c0,0,6.9,12.1,7.9,12.9c0.9,0.8,209,3.5,209,3.2
	s2.8,4,2.8,4s-213.3,4.9-214.6,6.7c-1.2,1.8-8.1,13.1-8.1,13.1s223.2-3,227.8-2.3s13.6,10.1,13.6,10.1l-13.6,7.3h-238l-7.6,8.6
	c0,0,172.3,5.6,169.8,6.1s-17,11.3-17,11.3L265,414.5l-6.1,14l164,5.6c0,0,1.8,11.2-0.2,10.2S255,438.4,255,438.4l-31.6,56.3
	l-0.6,3.6c0,0,10.8-5.5,12.3-6.4s27.2-47.6,27.2-47.6h14.8l-33.8,48.5l55.1-48.5c0,0,37.9-10.3,55.3,9c4.9,6.2,3.1,36.4,3.1,36.4
	l-1.5,12.3l9.8,5.2c0,0-0.2-49,5-51.5c5.1-2.5,13.1-3.4,13.1-3.4l-4.2,60.1l9.9,6.3c0,0,8.1-67.4,10.5-66.4s12.8,0,12.8,0l-9.8,68.8
	l5.2,11.8"/>
<path fill="none" stroke="#000000" stroke-width="22" stroke-linecap="round" stroke-linejoin="round" stroke-miterlimit="10" stroke-opacity="0" d="
	M246.4,502.1c-1.2,0.1-21.4,14.5-22.8,20.7c-1.4,6.2-1.9,23.5-0.8,20.2s76.5-78,76.5-78l19.1-4c0,0-93.1,95.1-91.9,98.1
	c1.2,3.1,4.9,12.1,4.9,12.1S332,459.4,334.1,460.9s8.8,4.9,8.8,4.9l-96.9,118l5.8,5c0,0,90-105.7,93.1-100.7s6.9,17.4,6.9,17.4
	l-93.9,94.8c0,0,1.2,18.9,1.8,17s94.9-100.1,96.8-99.5s25.3,12.4,25.3,12.4l13.3,6.9l-5.5,23.5c0,0-9.9-4.1-10.9-5.2
	c-1.1-1.1,1.4-17.6,1.4-17.6l-9.3-2l-6,19.8l-8.3-22.8l-14.8,27.8l-89.2,77.9l-1.9,5.7l24.5-12.7c0,0-28.7,35.1-27.5,35.1
	s19.5-8.2,19.5-8.2l-11.5,21.9"/>
<path fill="none" stroke="#000000" stroke-width="22" stroke-linecap="round" stroke-linejoin="round" stroke-miterlimit="10" stroke-opacity="0" d="
	M367,665.6c-2,1.1-16.9,24.1-16.9,24.1l-15.4,27.2c0,0,18.8-19.9,17.2-17s-10.1,28.6-10.1,28.6s-13.2,2.3-14.5,2.3
	s-29.4,18.1-30.5,18.1s37.7-6.4,37.7-6.4s-3.7,10.5-6,10.8s-43.5,8.4-45.6,8.4c-2.1,0.1-7.7,6.2-7.7,6.2l49.8-2.4l-6.6,13.3l-53.2,3
	l-3.7,8h46.6l-7.1,18.6l-49.3-5.7l-5.1,9.2c0,0,42,3.7,41.5,7s-2.1,9.5-2.1,9.5l-35.9-8c0,0,12.3,8.7,14.1,9.6
	c1.8,0.9,8.7,4.1,8.7,4.1l9.4,1.8"/>
<path fill="none" stroke="#000000" stroke-width="22" stroke-linecap="round" stroke-linejoin="round" stroke-miterlimit="10" stroke-opacity="0" d="
	M372.9,579.1c-4.1-0.3-37.8,16.1-40.1,18.3c-2.3,2.1-11,13.4-11,13.4L382,590l9.3,12.1L310,629.4c0,0-14.6,13.4-8.2,13.6
	c6.5,0.2,83.3-24.2,83.3-24.2l-8.2,16c0,0-81.5,20.5-82.8,23.8s-5.1,14.5-5.1,14.5s71.1-23.2,69.8-21.1S343,666.8,343,666.8
	s-55.2,17.1-58.3,21.6s-9,14.1-5.5,13.9c3.4-0.2,58-23.8,57.3-20.9c-0.7,3-5.9,16.5-6.7,16.2s-51.6,16.6-51.6,16.6s-0.8,9.9,1,10
	s39.2-10.7,39.2-10.7s-4.2,11.7-8.4,12.4s-21,4.4-21,4.4"/>
<path fill="none" stroke="#000000" stroke-width="22" stroke-linecap="round" stroke-linejoin="round" stroke-miterlimit="10" stroke-opacity="0" d="
	M236.2,822.4c-2.1-1.1-27.9,5.8-27.9,5.8l-4.1,7.6c0,0,43-7.3,44.1-6.8c1.1,0.6,1.9,3.5,1.9,3.5l-46,18.7l1.4,10
	c0,0,60.2-14.9,57.4-11.8s-5.9,11.5-7.1,11.8c-1.2,0.3-53.7,14.1-53.7,14.1l-0.7,10.6c0,0,57.3-14.4,57.3-12.8
	c0,1.5,1.4,7.7,1.4,7.7l-57,17.7l2,19.2l62.5-24.2c0,0-14,12.9-11.6,11.7s11.6-5,11.6-5"/>
</svg>
