<?xml version="1.0" encoding="utf-8"?>
<!-- Generator: Adobe Illustrator 25.2.1, SVG Export Plug-In . SVG Version: 6.00 Build 0)  -->
<svg version="1.1" id="Layer_2_1_" xmlns="http://www.w3.org/2000/svg" xmlns:xlink="http://www.w3.org/1999/xlink" x="0px" y="0px"
	 width="315px" height="402px" viewBox="0 0 315 402" enable-background="new 0 0 315 402" xml:space="preserve">
<g id="vs-colour">
	<path fill="#43775E" d="M108.6,354.6c14.4,13.4,9.7,33.4,9.7,33.4s-19.7-1.7-42.4-15.5c-27.4-14.7-43.3-39.2-43.3-39.2
		s12.7-28,63.5,14.3"/>
	<path fill="#43775E" d="M202.7,290c11.3-12.7,23-10.3,23-10.3s0.1,22.3-6.3,43.3c-7.7,25-22,43-22,43s-31.2-4.6,1-60.7"/>
	<polygon fill="#FFFFFF" points="283.4,289.3 288.7,292.6 294,291.2 299.3,295.3 298.6,299.6 295.5,302 300.7,304.6 301.9,309.4 
		297.4,313.8 291.2,311.7 289.7,316.6 284.2,317.6 281.3,315.2 280.3,309.7 275.5,310.2 272.6,306.8 272.6,302 277.2,301 
		277.2,296.5 278.4,292.2 	"/>
	<polygon fill="#FFFFFF" points="151.2,37 155.3,39.2 156.7,44.5 156.5,49.5 153.4,56.7 150.5,61 144.5,64.6 141.1,64.6 138.7,63.4 
		136.3,59.1 136.1,53.6 139.7,45 143.5,40.2 148.1,37 	"/>
</g>
<g id="vs-secondary">
	<polygon fill="#5D8293" points="98.3,238.3 213,232.7 216,240.3 212.7,249.3 205.3,256.3 194,264.3 187.3,268 181.3,295.3 
		188.3,291.7 202.3,285 200.7,294.7 198.7,303.3 195,310 183.3,316.7 174.7,320.3 166.7,322 160,321.7 156.7,318 156.3,304.7 
		158.7,290 162.7,278.7 160.3,277 160,274.7 143.7,272.3 136.3,270.3 129.3,287.7 123.3,307 120,323.3 119.3,338.7 121,354.3 
		108.7,353.3 102.3,349.7 93.7,344 95,324.7 97.7,306.7 101.3,294.3 107.7,278.7 112.3,268 110.7,265.7 110,263.3 113,261.3 
		105.3,257.3 99.3,251.7 97.7,245 	"/>
</g>
<g id="vs-primary">
	<polygon fill="#F2E29E" points="124.3,155.3 134,146.3 142.7,139 150,133.7 155.3,130.3 161.7,128 165.3,129 166.3,136.7 
		178.7,126.7 192.3,114.7 198.7,123 205.7,138.7 193,148.3 176,161 188.3,189 199,206 208.7,220 213.3,228.7 213,233.3 203.3,241 
		181.3,248.3 159.3,252 133,250.7 111,245.7 101.7,240.3 99,238.7 98.3,233.7 106.3,222.7 104.7,218.7 105.7,214.7 108.3,213.7 
		109,201 112.7,182 115,173.7 84,169 82,154 82.7,135 101,142 116,150 	"/>
</g>
<g id="vs-skin">
	<path fill="#BCA884" d="M188.5,25l-4.5-8.5l1.5-4.5l-1-5L179,6.5l1,7.5l-8.5,2l-7,2l-9,6.5L146,36l-2,3.3c2.7-2.1,5.7-2.8,8.3-1.8
		c4.7,2,6,9.5,2.9,16.8s-9.4,11.6-14.1,9.6c-3.9-1.7-5.4-7.1-4.1-13.1l-0.9,1.5c0,0-2.3-3-3.3-3.3s-8.3-8.3-8.3-8.3l-11.7-9l-10.7-4
		L94.7,27l-6,3.7l-3.7,6l1,8l2.7,7.7l10,11.3l16.7,8.3l13.3,4.7l-4,13c0,0-4.3,10.3-5.3,10s-7.7,9-7.7,9l5,1l5.3-0.3l8-3.7l4.7-4.3
		l1,11.3l-3.3,6.7l-6,6.3l-6,2.3l0.7,10.3l1.7,8.3l3.3,6l6.3-6l11-8.3L157,129l-4.3-15l0.7-6.7l6.7,2.3l9.7,1.3l8-5.3l4.3-6.3
		l-0.3-8.3l-4.3-5.3l-12.7-1L168,81l7-9.5l8-10.5l7-14.5l3-11.5L188.5,25z"/>
	<path fill="#BCA884" d="M20.7,212.7l-5-5.3l-5-6.7l-0.7-5l4-5.3l9-3.3l13.3-1.7h12l13-0.3l4.3-14.3l4.3-14l2-5.7l3.3-5l0.3-3.3
		l3-2.7l3.3-0.7l-0.3,20.3L79,172.3c0,0-3.3,8.3-3.3,9.3s-3,7-3,7l1.7,6l-2,6l-8.3,2.7L51.3,204l-0.3,3.7l-4,6.3
		c0,0,9.3-3.7,10.3-3.3s6.3,0,6.3,0l2.7,2.7l-1,5.7l-4.7,5l-6.3,2.7l-10.7,0.7l-6.3-1.7L35,222l-6-1l-4.7-3L20.7,212.7z"/>
	<polygon fill="#BCA884" points="198.3,118.7 203.7,115 211,111.7 215.7,110.3 218.3,108.3 221.3,108 221.3,112.3 223,117.7 
		229,148.7 234.7,144 245.3,137 253,133.7 260.7,132 266,134.7 268,139.7 272.7,142 275.7,149.3 280.3,152.7 279.7,158 271,170.3 
		262.7,175.7 256,178.7 248.7,179.3 245.3,176.3 249.7,168 241.7,172 232.3,175.3 226.3,175.3 221.7,172.3 220.3,165.7 220.3,156.3 
		215,131.3 205,136 200.3,126 	"/>
</g>
<g id="vs-shade">
	<path opacity="0.35" fill="#FFFFFF" enable-background="new    " d="M161.7,84.7c0,0,43.7-47.7,17.3-68.3l5.7,2l3.9,3.6l4.7,13.7
		l-3.4,12.1l-3.9,7.5l-5.2,8.2l-7.5,11.9L166,84"/>
	<path opacity="0.22" enable-background="new    " d="M118.5,176c-1.3,14.5-9.5,35.3,11.1,42.5c-3.8,1.6-8.4,1.1-11.5,4
		c1.2,2.1,7.7,2.9,7.9,5c0.2,2.8-8.6,2-10.9,3.5c3.5,6.1,13.8,10.6,14.4,18.4c-6.4,1.2-20.2-3.1-25.9-6.6c-4.4-2.7-6.1-4.8-4.6-9.9
		c1.1-3.6,3.5-9.9,7.4-11c-2.7-2.7-4.7-8.7,1.6-7.6c0.7-14.1,2.6-27.2,6.6-40.4"/>
	<polygon opacity="0.22" enable-background="new    " points="83,159.7 113.5,169 115.3,173.3 84.5,169 	"/>
	<polygon opacity="0.22" enable-background="new    " points="173.3,151.7 202,127.5 205.5,139 176,161 	"/>
	<path opacity="0.22" enable-background="new    " d="M160.3,105.3c-2.6-0.7-5-3.7-3.7-6.3c1-2,4.1-2.7,6-3.4c4-1.4,11.9-4.4,12,2.6
		c-3.4-4.1-18,1.9-14.4,6.8"/>
	<path opacity="0.22" enable-background="new    " d="M220.3,157.7c0.9,2.4,1.1,5.3,3.4,7.3c3.5,3.1,7.7,3.1,12,2.7
		c8.1-0.8,15.8-4.1,23.1-6.3c-2.5,1.2-5.6,2.8-6.5,5.7c-1.1,3.8,0,9.4,2.6,12.3c-2.2,0.1-7.1,0.8-8.6-1.3c-1.4-2.1,0.8-7.9,2-9.2
		c-3.6,4.2-15.5,7.7-21.1,7c-7.2-0.9-8.4-8.7-8-15.7"/>
	<path opacity="0.22" enable-background="new    " d="M250.7,150.3c6.4-2.6,18.4-6.1,23.7-1c-6.7,0-13.8,1-20.1,3.2
		c-0.5-1.2-1.3-1.3-2.3-1.9"/>
	<path opacity="0.22" enable-background="new    " d="M32.7,201c-2.5,3.6-7.9,22.1,1.2,20.3c-1.2-5.8,1.3-11.1,1.5-16.6"/>
	<path opacity="0.22" enable-background="new    " d="M20,197c-3.3,3.9-3.4,9-2.3,13.6c1.2,0.6,2.4,1.7,3.6,2.4
		c1.5-3.8,2.6-10.5,2.9-14.6c-1.9,0.1-3.6-0.2-4.6-2.1"/>
	<path opacity="0.35" fill="#FFFFFF" enable-background="new    " d="M188.7,266.7c4.1-3.8,9.8-5.3,13-10.3
		c3.2-5.1,3.6-10.5,0.4-15.6c4.5-1.8,8.8-4.3,12.8-7c0.3,5,1,8.9-1.6,13.2c-3.8,6.4-9.5,10.5-16,14.3"/>
	<path opacity="0.35" fill="#FFFFFF" enable-background="new    " d="M126.7,266c6.3,2.3,22.2,4.3,27.3,4.3c8.7,0,18.5-0.8,24.9-7
		c1.8,17.4-30.9,9-42.9,7.6"/>
	<polyline opacity="0.35" fill="#FFFFFF" enable-background="new    " points="72.3,331.7 71.7,337.7 75.3,344.7 83.7,349.3 
		95.3,351.7 105,352.7 94.3,346 81.3,336.7 74,331 	"/>
	<polyline opacity="0.35" fill="#FFFFFF" enable-background="new    " points="201.7,297 202,307.7 200.3,316.3 198,322 194,325 
		189,325.3 196.3,307.3 	"/>
	<path opacity="0.35" fill="#FFFFFF" enable-background="new    " d="M101.7,299.3c3.8-6.1,9.9-10.8,15.3-15.3"/>
	<path opacity="0.35" fill="#FFFFFF" enable-background="new    " d="M106.7,296.3c7.1-5,12.7-12.1,20.3-16.7"/>
	<path opacity="0.35" fill="#FFFFFF" enable-background="new    " d="M118.3,288.3c4.6-3.3,9.1-6.2,14-9"/>
	<path opacity="0.35" fill="#FFFFFF" enable-background="new    " d="M155.3,303.3c4.2-5.4,9.6-9.5,14.3-14.3"/>
	<path opacity="0.35" fill="#FFFFFF" enable-background="new    " d="M163,298.3c4.1-5.2,10.8-10,16.7-13"/>
	<path opacity="0.35" fill="#FFFFFF" enable-background="new    " d="M171,295.7c3.1-3.3,7.3-6.7,11.7-8.3"/>
	<path opacity="0.35" fill="#FFFFFF" enable-background="new    " d="M103.7,242c-1.9,6.7,4.6,15,9.2,19.3
		C105.2,259.2,94,247.7,98,239"/>
	<path opacity="0.22" enable-background="new    " d="M124,155.7c5.6-7.3,14.6-14.1,22.3-19.3c4-2.7,9-7.2,13.7-8
		c5.6-0.9,4.7,4.7,5.6,8.6c-6,0.2-14.2,4.7-19.6,7.3c-6,2.8-14,7.6-18.3,12.4"/>
	<path opacity="0.22" enable-background="new    " d="M109,245.5c-0.8,4.2,2.9,7.2,5.3,10c-5-2.2-9-7.3-9.3-13"/>
	<path opacity="0.22" enable-background="new    " d="M35.3,336.7c5.2-6.6,9.6-8.6,19-7.9c-3.2,1.9-5.2,6.8-2.6,10.2
		c3.6,4.6,13-1.6,10.3-5.7c2.4,1.5,4.5,3.4,6.9,4.9c3,17.3,29.2,19.4,36.7,17.9c2.3,5.1,6.1,9.9,7.3,15.6c-3.3-1.5-6.6-2.4-10.2-2.3
		c3,1,5.7,3.4,8.1,5.4c-2.6-0.8-4.7-2.9-7.5-2.6c-0.7,4.5,7.1,9.3,3.6,13.6c-4.4-1.3-7.8-1.9-11.9-3.6c-5.9-2.5-13.3-6.7-19.3-9.7
		c-14.8-7.4-25.5-19.8-37.3-31"/>
	<path opacity="0.22" enable-background="new    " d="M199.3,363.3c-10.3-2.6-15-16.2-11-25.2c-0.6,3.7,3.4,11,6,6.9
		c5.9-9-2.9-9.2-4.9-13.1c19.2-9.2,16.4-30.3,14.2-36.2c3.3-4.3,3.8-5.4,6.6-7.2c-0.8,2.6-0.9,5.8-0.2,8.5c1.9-2,4-7.4,4.8-10.2
		c-0.8,2.2-0.7,5.8,0.5,7.8c3-4.2,6.2-8.1,9.9-11.5c-1.8,11.2-0.4,21.7-3.6,32.6c-3.6,12.3-8.4,23.9-14.3,35.3
		C204.9,355.7,202.7,359.2,199.3,363.3"/>
	<path opacity="0.22" enable-background="new    " d="M274,302c1.1-1,2.2-1.7,3.6-2c-1.3-3.8-1.7-8,2.7-9.9c4.4-1.8,6.9,0.9,8.3,4.8
		c0.1-1.1,0.6-1.6,1-2.5c3.3-1.3,6.6-1.6,8.6,1.9c1.7,3,0.9,6.1-1.7,7.3c4,1.1,6.8,5.7,4.3,9.6c-2.3,3.7-6.5,2.3-9.5,0.8
		c0.5,7-8.1,6.2-10.4,1.6c-0.9-1.7,0-2.1-1.8-3c-1.6-0.8-3.1,0.2-4.7-0.9c-2.7-1.9-3.3-7.5,0.7-8.7"/>
	<path opacity="0.22" enable-background="new    " d="M136,51.7c0.9,0.6-0.1,8.4,2.3,10.9c4.7,4.7,13-0.9,16.3-7.9
		c5.3,20-17.8,22-18.7,19.7C133.8,68,132.2,57.1,136,51.7"/>
	<path opacity="0.22" enable-background="new    " d="M201.3,117.3c0,0,3.6,3.1,6,7.3c2,3.6,3,8.3,3,8.3l-6,2.3l-3.7-9.7l-3.3-6"/>
	<path opacity="0.22" enable-background="new    " d="M156,305.7c-2.4,18.8,41.4-2.4,45.6-6.6c-3,4.2-3.4,9.5-8.3,12
		c-4.4,2.2-9.1,4.1-13.6,6c-5.9,2.6-25.5,9.1-24.3-3.1"/>
	<path opacity="0.22" enable-background="new    " d="M132.7,270c-22.7,41.7-22,83-22,83l10,2.3l-1-29l1.7-6.7l10-36.3L136,271"/>
	<path opacity="0.22" enable-background="new    " d="M162.7,223.3c0,0,9.2-7.7,19-11.3c9.5-3.5,19.7-3,19.7-3s-7.7-4.3-20.7,0
		C170,213,162.7,223.3,162.7,223.3z"/>
</g>
<g id="vs-outline">
	<path fill="none" stroke="#000000" stroke-width="2" stroke-linecap="round" stroke-linejoin="round" d="M134,51
		c-48.9-58-78.5,7-5,26c0,0-6,23.5-18,32c0,0,13,5,24-7.7c4,20.7-14.5,27.2-14.5,27.2s-1.2,15.2,4.8,24.5"/>
	<path d="M145.3,54.3c-0.9,0.1-1.8,0.1-2.6-0.2s1.4-4.4,0.7-4.9c-0.6-0.5-3.9,2.6-4.3,1.8c-0.2-0.5-0.4-1-0.4-1.5
		c-0.5-3.1,1.6-6.1,4.7-6.6c3.1-0.5,6.1,1.6,6.6,4.7C150.5,50.9,148.4,53.8,145.3,54.3z"/>
	<path fill="none" stroke="#000000" stroke-width="1.5" stroke-linecap="round" stroke-linejoin="round" stroke-miterlimit="10" d="
		M144.3,53.6c-0.4,0-0.7,0-1-0.1c0.1-0.4,0.3-1.1,0.4-1.6c0.5-1.5,0.9-2.8,0.1-3.3c-0.1-0.1-0.3-0.2-0.6-0.2c-0.6,0-1.3,0.4-2.3,1.1
		c-0.4,0.2-0.9,0.6-1.3,0.8c-0.1-0.3-0.2-0.5-0.2-0.8v-0.1l0-0.1c-0.4-2.7,1.4-5.3,4.1-5.7c0.3,0,0.5-0.1,0.8-0.1
		c2.4,0,4.6,1.8,4.9,4.1c0.4,2.8-1.4,5.4-4.1,5.8C144.9,53.6,144.6,53.6,144.3,53.6z"/>
	<path fill="none" stroke="#000000" stroke-width="3" stroke-linecap="round" stroke-linejoin="round" stroke-miterlimit="10" d="
		M140.8,48.1c3.7-6,9.5,0,4.8,4c0.8-3.2-0.3-4.9-3.2-5.2"/>
	
		<ellipse transform="matrix(0.4247 -0.9053 0.9053 0.4247 38.1622 161.9485)" fill="none" stroke="#000000" stroke-width="1" stroke-linecap="round" stroke-linejoin="round" stroke-miterlimit="3.9998" cx="146.5" cy="50.9" rx="14.6" ry="8.8"/>
	<path fill="none" stroke="#000000" stroke-width="1.9342" stroke-linecap="round" stroke-linejoin="round" d="M185,7
		c0,0,2.5,4.5-1,10c14,18,12.8,28-17.5,65.5"/>
	<path fill="none" stroke="#000000" stroke-width="1.9342" stroke-linecap="round" stroke-linejoin="round" d="M179,6.5
		c0,0,0,8.5,2,8.5c-12.5-0.5-22,4.5-32.5,18"/>
	
		<line fill="none" stroke="#000000" stroke-width="3" stroke-linecap="round" stroke-linejoin="round" x1="150.9" y1="26.5" x2="161.1" y2="37.2"/>
	<path fill="none" stroke="#000000" stroke-linecap="round" stroke-linejoin="round" d="M140.5,68.2c2.5,1.8,11.6-0.7,12-3.6
		c-1.1,3.2-4.3,5.7-7,7.2c2.3-0.6,4.6-1.3,6.6-2.6"/>
	<path fill="none" stroke="#000000" stroke-width="2" stroke-linecap="round" stroke-linejoin="round" d="M156.5,128
		c-5.5-12.5-2.8-20.3-2.8-20.3c28.5,14.8,42.8-28.7,10.3-22.2"/>
	<path fill="none" stroke="#000000" stroke-width="1.5" stroke-linecap="round" stroke-linejoin="round" d="M173.9,97.9
		c0,0,2.1-2.2-1.7-4.1s-16.1,3-15.4,7.5c0.5,3.1,4.2,3.9,4.2,3.9"/>
	<path fill="none" stroke="#000000" stroke-width="1.5" stroke-linecap="round" stroke-linejoin="round" d="M164.4,94.7
		c0.6,0.5,2.1,4,2.5,5.6c-1.5-1.7-3.3-3.3-5.3-4.5"/>
	<path fill="none" stroke="#000000" stroke-width="2" stroke-linecap="round" stroke-linejoin="round" d="M124.3,155
		c7-7.7,29.1-26.1,36.7-27s4.3,9.3,4.3,9.3"/>
	<path fill="none" stroke="#000000" stroke-width="2" stroke-linecap="round" stroke-linejoin="round" d="M172,149
		c4.2,17.1,14.6,38.7,25,54.5c9.5,14.4,19.5,23.5,16,30.2c-14,16.7-79.2,28-114,6c-4.8-3,6.3-15.7,7.5-18.2c-4.5-4.2-0.8-8.5,2.5-7
		c-2.5-14.5,6-40.8,6-40.8s-29.5-4.2-31-4.2c-0.7,0-2.1-9.1-2.3-17.8c-0.2-8.8,0.7-17.3,0.7-17.3s13.2,5,25,11
		c10.6,5.4,19.8,12,19.8,12s10.9-8.7,21.2-14c9.4-4.9,18.3-6.5,18.3-6.5L193,114c0,0,4.7,5.7,8,12.3c3.1,6.2,4.7,13.3,4.7,13.3
		l-29,20.3"/>
	<path fill="none" stroke="#000000" stroke-width="2" stroke-linecap="round" stroke-linejoin="round" d="M81.5,140
		c-1.7-0.1-7.8-1-5.7,6.1C72,143,64.6,175.6,61,185c-4.1,0.9-79.5-6.5-39,29.3"/>
	<path fill="none" stroke="#000000" stroke-width="2" stroke-linecap="round" stroke-linejoin="round" d="M24,200.3
		c0,0-9,19.2,9,21.3"/>
	<path fill="none" stroke="#000000" stroke-width="2" stroke-linecap="round" stroke-linejoin="round" d="M81.7,158.3
		c0,0-1,15-9.2,30.2c9.8,19.8-22.7,13.6-21.8,15.8C53,210,46,214.5,46,214.5s19.9-8.4,20.5-0.5c1,13.5-25.2,16-30,11s-0.8-20-0.8-20
		"/>
	<path fill="none" stroke="#000000" stroke-width="2" stroke-linecap="round" stroke-linejoin="round" d="M198,119
		c8.3-7,17.8-8.4,17.8-8.4c2.8-4.3,8.5-3,5.5,2c3,3,6.7,35.7,8.3,41.3"/>
	<path fill="none" stroke="#000000" stroke-width="2" stroke-linecap="round" stroke-linejoin="round" d="M205.7,135.7l9-4.3
		c0,0,4.3,22.7,5.3,26.7c0.3,1.3-1.3,12,3,15.7c11.6,9.8,37.3-16.7,42-12.7"/>
	<path fill="none" stroke="#000000" stroke-width="2" stroke-linecap="round" stroke-linejoin="round" d="M229.7,148.3
		c0,0,32.3-28.7,38.3-9.3"/>
	<path fill="none" stroke="#000000" stroke-width="2" stroke-linecap="round" stroke-linejoin="round" d="M250,145.3
		c0,0,24-14.3,25.3,4"/>
	<path fill="none" stroke="#000000" stroke-width="2" stroke-linecap="round" stroke-linejoin="round" d="M252.3,154
		c0,0,24.3-8.7,28-0.7s-26.7,34.3-33.7,24.7c-4.1-5.7,10-14.3,10-14.3"/>
	<line fill="none" stroke="#000000" stroke-linecap="round" stroke-linejoin="round" x1="91" y1="138.3" x2="92.3" y2="170"/>
	<line fill="none" stroke="#000000" stroke-linecap="round" stroke-linejoin="round" x1="187.3" y1="120.3" x2="198.3" y2="144.7"/>
	<path fill="none" stroke="#000000" stroke-linecap="round" stroke-linejoin="round" d="M113.7,169c0.4,3.4,3.1,6.6,5.3,9"/>
	<path fill="none" stroke="#000000" stroke-linecap="round" stroke-linejoin="round" d="M105.7,221c1.2,0.8,2.3,1.8,3.2,2.9
		c-1.5-0.8-2.6-1.8-3.9-2.9"/>
	<path fill="none" stroke="#000000" stroke-linecap="round" stroke-linejoin="round" d="M108.7,214.3c1.3-0.1,2.7,0,3.9,0.4
		c-1.3,0.2-2.5-0.1-3.9-0.1"/>
	<path fill="none" stroke="#000000" stroke-linecap="round" stroke-linejoin="round" d="M171.3,152.7c1.9-1.5,4.5-2.2,6.7-3.3"/>
	<path fill="none" stroke="#000000" stroke-linecap="round" stroke-linejoin="round" d="M147.7,123.3c2.1-1.5,4.4-2.5,6.7-3.7"/>
	<path fill="none" stroke="#000000" stroke-width="2" stroke-linecap="round" stroke-linejoin="round" d="M97.5,244
		c0,10,10.6,15.6,15.9,17.2c1.8,0.6-4.1,0.8-3.4,3.4s4.1,1.3,2.7,3.7c-3.5,5.7-8.7,14.9-12.7,30c-6.5,24.4-6.3,46-6.3,46
		s5.4,5.5,11.7,8c7.3,2.9,15.7,3,15.7,3s-4-20.4,1-42.7c4.7-21.2,14-41.7,14-41.7s30.3,7.5,40,0.7"/>
	<path fill="none" stroke="#000000" stroke-width="2" stroke-linecap="round" stroke-linejoin="round" d="M215,237
		c5.5,14.8-28,31-28,31l-6.5,27.5l21.5-10.8c0,0,0.5,8.4-1.7,15c-2.1,6.6-6.8,11.3-6.8,11.3s-32.2,19.3-36.5,7s5.3-38.7,5.3-38.7"/>
	<path fill="none" stroke="#000000" stroke-width="2" stroke-linecap="round" stroke-linejoin="round" d="M108.6,354.6
		c14.4,13.4,9.7,33.4,9.7,33.4s-19.7-1.7-42.4-15.5c-27.4-14.7-43.3-39.2-43.3-39.2s12.7-28,63.5,14.3"/>
	<path fill="none" stroke="#000000" stroke-width="2" stroke-linecap="round" stroke-linejoin="round" d="M202.7,290
		c11.3-12.7,23-10.3,23-10.3s0.1,22.3-6.3,43.3c-7.7,25-22,43-22,43s-31.2-4.6,1-60.7"/>
	<path fill="none" stroke="#000000" stroke-linecap="round" stroke-linejoin="round" d="M159.7,277.3c1.1-0.1,2.3,0,3.3,0.3"/>
	<path fill="none" stroke="#000000" stroke-linecap="round" stroke-linejoin="round" d="M20.7,193.7c-1.9,1.3,0.5,6.7,4.7,5"/>
	<path fill="none" stroke="#000000" stroke-linecap="round" stroke-linejoin="round" d="M33.3,199.7c-1.8,3.1,3.6,5.4,6,4.3"/>
	<path fill="none" stroke="#000000" stroke-linecap="round" stroke-linejoin="round" d="M147.5,263.8c5.4-3.1,12.9-4.3,19-4.5"/>
	<path fill="none" stroke="#000000" stroke-linecap="round" stroke-linejoin="round" d="M185.5,254.6c4.8-2.1,12.3-4.7,17.9-5.5"/>
	<path fill="none" stroke="#000000" stroke-linecap="round" stroke-linejoin="round" d="M192,289.3c0,0,0.6,6.5-1,12.7
		c-1.7,6.6-5.7,13-5.7,13"/>
	<path fill="none" stroke="#000000" stroke-linecap="round" stroke-linejoin="round" d="M94,333.3c0,0,5,5.9,11.5,8.7
		c6.3,2.7,14.2,2.3,14.2,2.3"/>
	<path fill="none" stroke="#000000" stroke-linecap="round" stroke-linejoin="round" d="M162.3,224c7.3-8.9,32.7-19.7,43.3-13.3"/>
	<path fill="none" stroke="#000000" stroke-width="1.5" stroke-linecap="round" stroke-linejoin="round" d="M119.3,381.7
		c0,0-48-5.3-81.2-52.7"/>
	<path fill="none" stroke="#000000" stroke-width="1.5" stroke-linecap="round" stroke-linejoin="round" d="M220.7,280.7
		c-0.3,35.7-18.3,75-29.7,82.7"/>
	<path fill="none" stroke="#000000" stroke-linecap="round" stroke-linejoin="round" d="M129,71.3c0.6,1.7,1.5,3.3,2.7,4.7"/>
	<path fill="none" stroke="#000000" stroke-linecap="round" stroke-linejoin="round" d="M213.3,131c1.5-0.2,3-0.9,4.2-1.7
		c-1.4,0.9-2.8,1.8-4.2,2.7"/>
	<path fill="none" stroke="#000000" stroke-linecap="round" stroke-linejoin="round" d="M229.3,154.7c-0.4,0.1-0.6,0-0.7-0.3
		c1.6-0.7,3.3-1.2,5-1.3"/>
	<path fill="none" stroke="#000000" stroke-linecap="round" stroke-linejoin="round" d="M244,145c2.3-1.9,7-4,6,1"/>
	<path fill="none" stroke="#000000" stroke-linecap="round" stroke-linejoin="round" d="M247.3,153c0.9-3.2,6.9-3.7,6,1"/>
	<path fill="none" stroke="#000000" stroke-linecap="round" stroke-linejoin="round" d="M138.5,48.5c-4.8,4-5.6,18.8-3,24"/>
	<path fill="none" stroke="#000000" stroke-linecap="round" stroke-linejoin="round" d="M132,98c0.5,0.8,4.9,2.8,6.5,4"/>
	
		<circle fill="none" stroke="#000000" stroke-width="2" stroke-linecap="round" stroke-linejoin="round" cx="161" cy="265.5" r="1.8"/>
	
		<circle fill="none" stroke="#000000" stroke-width="2" stroke-linecap="round" stroke-linejoin="round" cx="196.5" cy="256.5" r="1.5"/>
	<path fill="none" stroke="#000000" stroke-linecap="round" stroke-linejoin="round" d="M73,332c0,0-11,18,32.4,20.9"/>
	<path fill="none" stroke="#000000" stroke-linecap="round" stroke-linejoin="round" d="M71.7,331c0,0-17,6.7-13.7,19.3"/>
	<path fill="none" stroke="#000000" stroke-linecap="round" stroke-linejoin="round" d="M69.3,330C52.2,335.4,53,347.3,53,347.3"/>
	<path fill="none" stroke="#000000" stroke-linecap="round" stroke-linejoin="round" d="M201.5,297.3c0,0,2.8,30.8-13.3,29"/>
	<path fill="none" stroke="#000000" stroke-linecap="round" stroke-linejoin="round" d="M187.3,330.7c0,0,2.7,17.3,13.3,20.7"/>
	<path fill="none" stroke="#000000" stroke-linecap="round" stroke-linejoin="round" d="M186,334c0,0,0.5,15.5,12.7,20.7"/>
	<line fill="none" stroke="#000000" stroke-linecap="round" stroke-linejoin="round" x1="74" y1="342.8" x2="83.3" y2="338"/>
	<line fill="none" stroke="#000000" stroke-linecap="round" stroke-linejoin="round" x1="81.8" y1="348" x2="90.3" y2="343"/>
	<line fill="none" stroke="#000000" stroke-linecap="round" stroke-linejoin="round" x1="192.5" y1="317.3" x2="196.8" y2="323"/>
	<line fill="none" stroke="#000000" stroke-linecap="round" stroke-linejoin="round" x1="196.5" y1="310" x2="200.8" y2="313.5"/>
	<path fill="none" stroke="#000000" stroke-width="2" stroke-linecap="round" stroke-linejoin="round" d="M278.5,300.3
		c-8.8-0.3-7.5,14,2.7,9.3c-3.3,10.5,11,10.8,10,2c8.8,7.3,16.5-7.8,4.3-9.7c10.8-6.5-5.5-16.3-7-6.7
		C288.5,285.5,271.7,289.8,278.5,300.3z"/>
	<path fill="none" stroke="#000000" stroke-linecap="round" stroke-linejoin="round" d="M283,297c-3.4-1-6.7,5.1-3,7"/>
	<path fill="none" stroke="#000000" stroke-linecap="round" stroke-linejoin="round" d="M286.8,309c1,2.5,5.7,2.9,5.7-0.3"/>
	<path fill="none" stroke="#000000" stroke-width="2" stroke-linecap="round" stroke-linejoin="round" d="M235,319.5
		c6.5-8,17-11,31.8-6.3"/>
	<path fill="none" stroke="#000000" stroke-width="2" stroke-linecap="round" stroke-linejoin="round" d="M231.5,305
		c5.4-7.5,17-17,36-11.5"/>
	<path fill="none" stroke="#000000" stroke-width="2" stroke-linecap="round" stroke-linejoin="round" d="M251.5,298.5
		c-0.2,1.6,0.4,3,1.5,4"/>
	<path fill="none" stroke="#000000" stroke-width="2" stroke-linecap="round" stroke-linejoin="round" d="M256.5,298.5
		c0.6,1.6,1.4,3.2,2.5,4.5"/>
	<path fill="none" stroke="#000000" stroke-width="2" stroke-linecap="round" stroke-linejoin="round" d="M263,301
		c1.1,1.2,2.2,2.6,3,4"/>
</g>
<g id="vs-reveal">
	
		<polyline fill="none" stroke="#FF5F7C" stroke-width="30" stroke-linecap="round" stroke-linejoin="round" stroke-opacity="0" points="
		185,15 162.8,18.5 140.5,22 118.3,25.5 96,29 120,29.8 144,30.5 168,31.3 192,32 166.3,35.5 140.5,39 114.8,42.5 89,46 113.8,47.8 
		138.5,49.5 163.3,51.3 188,53 166,55.5 144,58 122,60.5 100,63 118.5,65.5 137,68 155.5,70.5 174,73 162,77 150,81 138,85 126,89 
		140.3,90.3 154.5,91.5 168.8,92.8 183,94 165.3,97.3 147.5,100.5 129.8,103.8 112,107 139.8,108.5 167.5,110 195.3,111.5 223,113 
		198,116.8 173,120.5 148,124.3 123,128 160,131.3 197,134.5 234,137.8 271,141 222.5,141.5 174,142 125.5,142.5 77,143 
		127.3,147.3 177.5,151.5 227.8,155.8 278,160 226,161.3 174,162.5 122,163.8 70,165 116.8,168.3 163.5,171.5 210.3,174.8 257,178 
		197.3,180.3 137.5,182.5 77.8,184.8 18,187 62.3,190 106.5,193 150.8,196 195,199 150,200.3 105,201.5 60,202.8 15,204 63.8,208.8 
		112.5,213.5 161.3,218.3 210,223 167.3,223.3 124.5,223.5 81.8,223.8 39,224 83,228.8 127,233.5 171,238.3 215,243 186.8,245 
		158.5,247 130.3,249 102,251 124.5,254.8 147,258.5 169.5,262.3 192,266 172.3,267.3 152.5,268.5 132.8,269.8 113,271 140.8,273 
		168.5,275 196.3,277 224,279 193.5,282 163,285 132.5,288 102,291 151.5,294 201,297 250.5,300 300,303 249.8,304.5 199.5,306 
		149.3,307.5 99,309 146.5,311.8 194,314.5 241.5,317.3 289,320 240.3,321.5 191.5,323 142.8,324.5 94,326 124,329.3 154,332.5 
		184,335.8 214,339 168.8,337.8 123.5,336.5 78.3,335.3 33,334 75.3,340 117.5,346 159.8,352 202,358 164.3,357.5 126.5,357 
		88.8,356.5 51,356 67.8,359 84.5,362 101.3,365 118,368 109,372.5 100,377 91,381.5 82,386 92.5,386.3 103,386.5 113.5,386.8 
		124,387 	"/>
</g>
</svg>
