<?xml version="1.0" encoding="utf-8"?>
<!-- Generator: Adobe Illustrator 24.3.0, SVG Export Plug-In . SVG Version: 6.00 Build 0)  -->
<svg isCommex="true" version="1.1" id="Layer_2_1_" xmlns="http://www.w3.org/2000/svg" xmlns:xlink="http://www.w3.org/1999/xlink" x="0px" y="0px"
	 width="879.3px" height="892px" viewBox="0 0 879.3 892" enable-background="new 0 0 879.3 892" xml:space="preserve">
<g id="vs-hair">
	<path id="_x3C_Path_x3E_" fill="#D3A37F" d="M703.7,305.7c-8.3,7.6-18.3,12.2-28.9,13h-0.2c-0.8,0-1.5-0.4-1.8-1.1
		c-0.4-0.9-0.2-1.7,0.4-2.3c7.1-7.1,13.2-21.1,16.6-38.3c2.7-13.4,5-34.8,1.2-61.1c-7-48.1-40.2-80.1-91.1-87.6
		c-44.5-6.7-75.2,13.1-83.5,19.4l-0.1,0.1c-0.1,0.1-0.2,0.2-0.4,0.3s-0.4,0.3-0.6,0.5c-10.4,8-14.7,15-15.2,18.9
		c-1.3,9,1.4,13.3,4,17.2c1.6,2.3,3,4.5,2.9,7.3c0,2.6-1.2,4.7-2.4,6.8c-2.3,4.2-5.5,9.9-5.5,23.9c0,13.2,4.6,19.3,9.1,25.2
		c2.5,3.3,5.4,6.9,6.8,11.8c0.8,2.6,1.8,5.3,3.2,8l2.8,5.9l-0.9-6.4c-1.4-10-1.7-19.7-1.9-27.5v-1c0-1.2-0.1-2.4-0.1-3.6
		c0-1.3-0.1-2.5-0.1-3.6c-0.3-6-1.3-10-2.4-14.2l-0.3-1c-1.6-6.1-3.2-12.4-2.3-24.4c0.7-8.5,3.9-15.8,9.3-21.1l3.7-3.6l-4.7,1.9
		c-1.8,0.7-2.9,1.5-3,1.5c-1,0.6-2.2,0.4-2.8-0.5c-0.6-1-0.4-2.2,0.6-2.9c0.1-0.1,7.7-5.3,17.7-3.7c3.7,0.5,7.4,2.1,10.9,4.4
		c14.2,9.7,24.3,23.6,36.9,42.2c10.5,15.4,19.5,24.3,34.3,24.3c0.3,0,0.5,0,0.8,0c2.3,0,4.8-0.3,7.8-0.8c18.2-3.5,33.7-20,36.6-23.2
		l0.1-0.1c0.3-0.4,0.8-0.6,1.3-0.7c0.5-0.1,1.1,0.1,1.5,0.5c0.4,0.3,0.6,0.8,0.7,1.3c0,0.5-0.1,1.1-0.5,1.5l-0.1,0.1
		c-3,3.5-19.2,20.9-39,24.6c-2.1,0.4-3.9,0.7-5.4,0.8l-1,0.1l0.1,1c0.1,0.7,0.3,3.1,1.5,6.1c2.1,5,5.7,7.9,10.6,8.6
		c3,0.4,6.9,0.1,11.2-1c10.2-2.4,22.1-8.1,26.9-10.8c0.5-0.3,1.1-0.3,1.6-0.2s0.9,0.5,1.2,1c0.6,1,0.2,2.2-0.8,2.7l-0.4,0.2
		c-8.7,4.5-17.5,8.2-24.8,10.2l-0.9,0.3l0.2,0.9c0.4,1.6,3.5,16-4.6,24.5c-3.7,3.8-9,5.8-16,5.8h-1.1l-0.3,0.6
		c-3.3,7.5-4.7,23.7-1.3,37.6c1.4,5.9,3.7,11.2,6.5,15.4c6,8.9,14.9,13.4,26.3,13.4c1.8,0,3.7-0.1,5.6-0.3c4.3-0.5,8.2-1.4,12-2.7
		c12.8-4.4,22.2-13.6,28.1-27.1c2.9-6.8,4.4-13.5,5.2-17.9l0.5-2.9L703.7,305.7z"/>
</g>
<path fill="#5A77BA" d="M786.5,687.1c-0.1-8.5-3.2-36.2-16.2-62.9l0,0c-9.3-18.9-21.7-48.8-29.9-68.6l-3.8-9.2l-0.4,4
	c-1.8,20-7.7,37.8-17.7,53c-0.7,0.9-1.9,1.1-2.9,0.6c-0.5-0.3-0.8-0.7-0.9-1.2c-0.1-0.5,0-1,0.3-1.5c12-18.2,17.9-40.1,17.6-65
	c-0.3-29.8-9.4-52.7-9.5-52.8c0-0.1-0.1-0.1-0.1-0.2V483l-1-1l-0.5,0.1c-3.6,0.5-23,3.8-49.6,18.4c-17.6,9.6-31.8,22.2-40.5,31.1
	l-0.6,0.6l0.5,0.7c0.2,0.3,0.3,0.6,0.4,1c0,0.1,0.1,1,0.3,2.4c3.5,28.5,6.7,50.3,9.6,64.8c0.1,0.4,0.2,0.7,0.2,1.1
	c0.1,0.4,0.2,0.8,0.3,1.2c5.2,25.2,16.1,115.4,15.9,128.1c-0.1,7.6,0.8,9.2,1.5,9.7c0.4,0.3,0.9,0.4,1.7,0.4c0.5,0,1.1,0,1.8-0.1
	h0.4l0.3-0.3c1.1-1.1,2.4-2.1,3.5-3l0.3-0.2c9.9-7.6,30-17.5,58-28.5c14.4-5.6,30.1-11.4,43-15.7c6.4-2.1,13.5-4.5,17.6-5.7l0.7-0.2
	L786.5,687.1z"/>
<g id="vs-primary">
	<path fill="#6495FB" d="M550.2,396.1l0.3,0.3h0.4c1.8,0,3.4,0.2,4.7,0.5l1.1,0.3l0.1-1.2c0.1-1.2,0.2-2.3,0.2-3.5
		c0.1-1.2,0.2-2.4,0.3-3.6c1-14.3,1.8-26.6,9.7-36.4c1-1.2,2.1-2.4,3.2-3.5l3.1-3.1L544.4,356l-0.3,1c-0.3,0.9-0.7,2.2-1,3.8
		c-2.6,11.8-1.5,22.1,3,29.8C547.2,392.7,548.6,394.5,550.2,396.1z"/>
	<path fill="#6495FB" d="M719.2,476.8c-3.1-4.8-7.9-11.8-13.4-19.7c-14.4-20.8-34.2-49.4-37.1-59.4c-3.1-11.9,0.4-32.1,2.1-40.2
		l0.3-1.6l-1.6,0.4c-3,0.8-6,1.4-9.3,1.8c-1.9,0.3-3.8,0.4-6,0.4c-12.7,0-23-5.2-29.8-15.2c-2.7-3.9-4.9-8.5-6.5-14.1l-0.3-1l-1,0.3
		c-4.3,1.3-26.5,8.6-40.4,19.7c-2.4,2-4.7,4.2-6.7,6.6c-7,8.8-7.8,20-8.8,34.2v0.3c-0.9,11.9-1.9,25.4-6.7,40.8
		c-5.3,15.3-8,20.7-9,22.8v0.1c-0.1,0.3-0.2,0.6-0.3,0.8c-0.1,0.2-0.2,0.4-0.3,0.6l-0.1,0.3l0.1,0.3c0.7,1.8,3.7,7.2,9.8,10.5
		c3.4,1.8,7,2.7,10.8,2.7h1.1c4.7-0.2,8.3-0.5,11-0.7l0.7-0.1c2.3-0.2,4-0.4,5.2-0.6l0.7-0.1l6.9-65.6c0.1-1.2,1.1-2,2.2-1.8
		c0.6,0.1,1.1,0.3,1.4,0.8c0.3,0.4,0.5,0.9,0.4,1.4l-6,57.3l1.4-0.4c5.8-1.7,10.4-1.4,14.2,1.2c6.4,4.3,9.6,14.6,10.1,32.5v0.5
		c0.1,2,0.1,4.1,0.1,6.2c-0.1,17.7,3.6,30.3,5.9,36.3l0.6,1.5l1.1-1.2c1.1-1.2,2.4-2.6,4-4.3c9.3-9.8,24.5-23.6,44-34.3
		c22.7-12.4,40.1-16.9,48.5-18.5l1.5-0.3L719.2,476.8z M677.5,450.7L677.5,450.7c-0.2,0.2-0.5,0.3-0.8,0.3c-0.6,0-1-0.4-1.2-0.6
		c-10.9-14.2-26.6-52.7-31.1-64.2l-0.2-0.4c-0.1-0.3-0.1-0.7,0-1.1c0.2-0.4,0.4-0.7,0.8-0.8c0.2-0.1,0.4-0.1,0.6-0.1
		c0.2,0,0.4,0,0.6,0.1c0.3,0.2,0.6,0.4,0.8,0.8v0.1c2,5,19.4,49,30.8,63.7C678.3,449.3,678.1,450.2,677.5,450.7z"/>
</g>
<g>
	<path fill="#BFD6F3" d="M626.6,581c-101.9,23.6-136.4,31.6-147.8,34.2c-3.1,0.7-4.6,1.1-5.4,1.2l-0.8,0.2v0.8
		c0.1,4-0.5,9.6-1.9,17.7l-0.3,1.5l1.5-0.3c6-1.3,12.2-2.7,18.5-4.1c5.5-1.2,11.1-2.5,16.6-3.7c40.4-9,72.9-16.2,90.3-20
		c0.3-0.1,0.5-0.1,0.7-0.2c0.2,0,0.4-0.1,0.6-0.1h0.2c12-2.7,21.8-4.8,28.1-6.2l0.8-0.2v-21.1L626.6,581z"/>
	<path fill="#BFD6F3" d="M407.2,629.5l-28.9,6.7h-0.6l-21.7-4.9l-0.1,1.1c-0.4,4.7-0.1,11.8,0.7,19.4l0.1,0.7l19.8,5.1l0.3-0.1
		c1.6-0.4,6-1.4,12.7-2.9c4.5-1,10-2.2,16.2-3.6l0.7-0.2v-0.7c0.3-4.5,0.8-13,0.7-19.4L407.2,629.5z"/>
	<path fill="#BFD6F3" d="M60.4,552.8h-8.9l6.9,1.8v20l210,54.7l0.1-3.7c0.1-4.4,0.2-11,0.6-17.2l0.1-0.8L60.4,553.1V552.8z"/>
</g>
<g>
	<path fill="#D3A37F" d="M370.8,589c0.2,0.4,0.4,0.9,0.8,1.4l0.4,0.5l0.6-0.1c2.6-0.6,7.8-2.4,9.5-5c0.6-0.8,0.6-1.6,0.4-2.1
		c-1-3.6-11-3.7-13-3.6h-1.1l0.1,1.1C368.9,584.2,369.7,586.9,370.8,589z"/>
	<path fill="#D3A37F" d="M320,647l-5.9-1.4l-0.1,1.1c-2.3,20.9-1.9,33.1,1.1,36.3c0.4,0.4,0.8,0.5,1.1,0.5c0.5,0,1-0.3,1.3-0.7
		c4.1-4.6,3.5-24.2,2.6-35.1L320,647z"/>
	<path fill="#D3A37F" d="M405.1,664.2c-0.1-3.3-0.1-5.8-0.1-7.8v-1.3l-1.2,0.3c-0.9,0.2-1.8,0.4-2.7,0.6c-0.9,0.2-1.7,0.4-2.5,0.6
		l-0.7,0.2l-0.1,0.7c-0.4,4.5-1.5,18.2-2.4,29.9c-0.7,9.3-0.5,14.2,0.5,17.4c1,3,2.8,4.7,5.8,5.3l0.6,0.1l0.4-0.5
		c1.3-1.6,2.3-7,2.6-15.2c0.3-7.9,0.1-17.5-0.1-26L405.1,664.2z"/>
	<path fill="#D3A37F" d="M439.4,647.6l-1,0.2c-3,0.6-5.7,1.2-8.5,1.9l-0.6,0.2l-0.1,0.6c-0.6,3.4-1.2,10.5,1,13.7
		c0.6,0.7,1.2,1.2,2.2,1.3c0.3,0.1,0.5,0.1,0.8,0.1c1.2,0,2.3-0.6,3.3-1.8c2.7-3.2,4.1-10.1,3.1-15.2L439.4,647.6z"/>
	<path fill="#D3A37F" d="M469.4,613l-0.1-0.4l-0.3-0.2c-2.3-1.2-12.8-3-24.3-5l-0.7-0.1c-8.3-1.4-16.1-2.8-19.7-3.8
		c-2.4-0.8-3.9-2.1-4.2-3.9c-0.8-3.6,3.6-8,6.9-10.9l0.3-0.3V588c0-0.5-0.2-1-0.6-1.5c-0.9-1.1-3-2.5-7.5-2.6
		c-0.8-0.1-1.7-0.1-2.6-0.1h-1v1c-0.2,9-1,34.2-1.3,36.4c-0.2,2-2.2,4.6-4,6.3l-0.6,0.5l0.3,0.7v0.1c0.2,5.7-0.2,14.4-0.6,20.1
		l-0.1,1.3l1.3-0.3c4.4-1,9-2,13.9-3.1l2.7-0.6c10.4-2.3,24.4-5.5,39.5-8.8l0.7-0.1l0.1-0.7C468.9,629.1,470.6,616.1,469.4,613z
		 M418,627c-0.5,0-0.9-0.4-1-0.9c0-0.3,0-0.5,0.1-0.7s0.4-0.4,0.6-0.4l42.7-7.6c0.1,0,0.1,0,0.2,0c0.5,0,0.9,0.3,0.9,0.8
		c0,0.3,0,0.5-0.1,0.7s-0.4,0.4-0.6,0.4l-42.6,7.7H418z"/>
	<path fill="#D3A37F" d="M401.8,623.7l1.4-40.4h-1c-1.7-0.1-4-0.1-5.3,0l-0.6,0.1l-0.2,0.6c-4.2,13-13.4,17.4-13.5,17.5l-0.2,0.1
		c-0.1,0.1-0.2,0.1-0.3,0.1h-0.2c-0.1,0-8.8,1.3-18.9,1.3c-5.7,0-13.8-0.5-20.3-2.6c-7.8-2.7-16.6-5.7-22.7-12.7l-0.4-0.4l-0.5,0.1
		c-0.9,0.1-1.8,0.2-2.8,0.2h-1v1c0.4,17,0.4,25.5,0,28.3l-0.1,0.9l28.9,7.4c0.2,0,0.4,0.2,0.5,0.4c0.1,0.1,0.2,0.4,0.1,0.8
		c-0.1,0.4-0.4,0.7-0.9,0.7c-0.1,0-0.2-0.1-0.4-0.1l-30.1-7.8l-28.9-7.4c-0.2,0-0.4-0.2-0.5-0.4c-0.1-0.1-0.2-0.4-0.1-0.8
		c0-0.2,0.2-0.4,0.4-0.5c0.1-0.1,0.4-0.2,0.8-0.1l18.7,4.8l-0.3-1.5c-0.6-3.4-0.9-11-1.1-24v-1.1l-1.1,0.1c-15,1.3-24,3.8-27.4,7.6
		l-0.2,0.2l-0.1,0.2c-1.7,6.8-2,26.1-2.1,32.4v1.6l5.5,1.4l0,0c0.1,0,0.2,0.1,0.4,0.1l76.3,19.8l-0.2-1.4
		c-1.6-14.6-0.6-24.3,2.7-26.8c5-3.8,26.6-6.4,44.4-0.2L401.8,623.7z"/>
</g>
<path fill="#77B85F" d="M385.5,541.9l-0.1-0.2l-0.2-0.1c-0.1-0.1-0.3-0.1-0.6-0.2c-0.2-0.1-0.4-0.1-0.6-0.2l-0.2-0.1h-0.2
	c-0.5,0-1.1,0.1-1.8,0.4c-1.9,0.7-5.5,3.1-9,12.3c-2.9,7.8-4.5,15.5-4.5,22.4v1h1c5.5-0.2,14.9,0.3,16.2,5.9
	c0.3,1.4,0.1,2.9-0.8,4.2c-1.4,2.1-4.3,4-8.7,5.6l-1.9,0.7l1.7,1.1c1,0.7,2.3,1.2,3.4,1.5c0.5,0.2,0.8,0.4,1,0.7l0.6,0.7l0.8-0.5
	c2.7-1.8,11.5-8.8,12.3-25.3C394.7,553.8,387,543.7,385.5,541.9z"/>
<g>
	<path fill="#8CD96F" d="M347.3,535.6l1.2-0.3c6.7-1.5,16.2-1.4,28.1,0.3l1.4,0.2l-0.3-1.4c-1.4-6.8-5.9-14.1-14.5-14.1
		c-0.4,0-0.9,0-1.4,0.1c-14,1.1-14.9,6.7-14.6,13.9L347.3,535.6z"/>
	<path fill="#8CD96F" d="M359.7,538.3c-5.7,0-10.1,0.6-13.3,1.8h-0.1c-0.1,0-0.2,0.1-0.3,0.1c-0.2,0.1-0.3,0.1-0.3,0.1
		c-16.1,6.3-30.7,14.2-28.7,29.9c0.7,5.9,2.5,10.5,5.4,14.1c4.8,6,12.5,9,21.4,12c5.2,1.8,12.3,2.3,18.8,2.3c3.1,0,6-0.1,8.7-0.3
		l2.6-0.2l-2-1.6c-1.8-1.5-3.3-3.4-4.5-5.8c-5.4-10.8-2.5-27.5,1.7-38.5c1.8-4.7,3.9-8.5,6.5-11.3l1.3-1.4l-1.9-0.3
		C369,538.7,364.1,538.3,359.7,538.3z"/>
</g>
<g id="vs-secondary">
	<path fill="#FFF996" d="M374.9,369.2c-4.8-12.4-9.1-35.3-10.7-44.5l-0.9-5.3l-1,5.3c-3.6,18.3-8.8,28.6-15.4,30.7l-0.2,0.1
		c-0.3,0.1-0.4,0.1-0.6,0.1h-0.4c-6.1-1.1-7.3-7.8-8.2-12.8l-0.2-0.9c-0.4-2-0.7-3.4-1.1-4.1l-0.1-0.2l-0.2-0.1
		c-0.7-0.6-1.2-1.7-0.6-2.7c0.5-0.9,1.8-1.3,2.7-0.7c2.1,1.2,2.6,4,3.2,7.4l0.1,0.5c0.9,4.9,1.7,8.2,4.1,9.3l0.5,0.2l0.4-0.2
		c3.8-2.1,7.1-8.6,9.9-19.3c2.9-11.3,4.3-23.5,4.9-29.8l0.3-2.9l-2,2.1c-15.5,16.7-27,26.2-29.2,27.9l-0.2,0.1l-11.4,20.5
		c-0.2,0.4-0.5,0.6-0.9,0.9l-0.5,0.3v0.7c0.7,12.6,1.1,24.9,1.1,25c0,0.5-0.1,1-0.5,1.3c-0.4,0.4-0.9,0.7-1.4,0.7h-0.1
		c-1.1,0-1.9-0.9-2-1.9c-0.8-20.9-2.1-44.1-3.2-49l-0.1-0.5l-1.1-0.5c-15.4-7.1-27.1-17.7-34.7-31.5c-1.2-2-2.3-4.2-3.6-6.9L270,285
		l-0.3,3.9c-0.4,4.8,0.1,13.2,4.3,26c6,18,15.7,28.8,20.9,33.7l1.1,1l6.4-15.4c0.2-0.5,0.6-0.8,1.1-1s1.1-0.2,1.5,0
		c1,0.4,1.4,1.6,1,2.6l-7.3,17.9c-0.2,0.5-0.6,0.9-1.4,1.1c-0.1,0-0.3,0-0.4,0c-0.5,0-0.8-0.1-1.1-0.3c-1.7-1.2-16.8-12.6-25.3-38.3
		c-3.8-11.3-5.3-21-4.6-28.8l0.2-1.9l-1.6,0.9c-6.9,3.7-13.5,9.1-19,15.7c-10.7,13-15,21.4-17.9,34.3c-3.2,14.8-26,49.3-31.5,56.7
		c-2.3,3.1-6.5,8.9-11.1,15.2c-8.7,11.9-18.6,25.4-21.5,29.4l-0.3,0.4l0.1,0.5c1.2,4.4,2.8,8.7,4.8,12.8c3.6,7.6,10,18,20.5,24.1
		c16.5,9.5,33.1,15.6,49.4,18.1c5.6,0.9,11.5,1.3,17.5,1.3c0.6,0,1.3,0,1.9,0c9-0.1,18.2-1.3,27.9-3.7l7.1-2l0.2-0.5
		c3.4-9,7.8-22.3,10.8-31.1l2-5.8l-2.3,1.3c-2,1.2-3.8,1.9-5.2,2.2h-0.7c-3.1-0.4-7-3.1-10.1-7c-2.2-2.9-3.6-6.1-4.1-9.1l-0.2-1.2
		l-1.2,0.4c-3.6,1.3-7.2,2.2-10.9,2.5h-0.3c-0.8,0-1.6-0.6-1.9-1.4c-2.9-7.9-9-30.5-14.7-54.9c-6.3-26.9-9.9-46.6-9.8-52.6
		c0-1,0.9-1.9,2-1.9l0,0c1.1,0.1,2,1,2,2.1c-0.3,11.3,16.1,82.3,23.4,103.7l0.3,0.8l0.8-0.1c3.8-0.6,7.6-1.8,11.4-3.7
		c12.5-6.2,21.2-17.8,25.3-24.2c0.1-0.2,0.2-0.4,0.3-0.5c0.2-0.3,0.4-0.6,0.5-0.8l0.2-0.4l-0.2-0.4c-0.8-1.7-2.3-4.5-4.2-8.2
		c-2.2-4.2-4.9-9.4-7.6-14.6c-12.7-24.4-13-25.2-12.4-26.5c0.5-0.9,1.7-1.3,2.7-0.9c0.5,0.3,0.9,0.8,1.1,1.3v0.1
		c1.2,3,14.4,28.6,23.4,45.9l0.6,1.1l0.9-0.8c1.2-1,2.6-2.2,4.3-3.6l2.1-1.7l0.1-0.4c1.6-9.7,8.7-27.6,10.9-32.9l0.3-0.8
		c0.1-0.4,0.3-0.7,0.3-0.8c0.2-0.4,0.3-0.7,0.6-1c0.7-0.7,1.8-0.8,2.5-0.3c1.3,0.9,1.2,1.7,0,4.4c-0.4,1.1-0.8,2.1-1.2,3.1l-0.2,0.6
		l0.4,0.5c0,0,0.1,0.2,0.1,0.3l5.2,11.8l1-0.8c7.7-6.3,12.1-9.7,12.9-10.2c0.7-0.4,4.1-1.3,19.8-1.7h1.4L374.9,369.2z"/>
</g>
<path fill="#808080" d="M423.5,162.6c-1.3-1.1-4.5-3.1-7.9-4.5c-0.6-0.2-1-0.7-1.1-1.4c-0.1-0.6,0-1.3,0.5-1.7
	c2.8-3,7.5-9.1,7.8-12.4c0.4-2.5-5.4-5.3-8.1-6.1l0,0c-0.8-0.2-1.2-0.8-1.2-1.8v-0.2c-0.1-0.7,0.1-1.5,0.6-1.9
	c1.6-1.3,6-5.9,6.3-10.3c0-0.3-0.1-0.7-0.5-1.1c-2.2-2.3-9.8-3-12.6-3.1c-0.7,0-1.3-0.3-1.6-0.9c-0.4-0.7-0.4-1.4-0.1-1.9
	c1.7-3.2,3-6.6,3.5-8.5l0.3-1l-1-0.2c-2.4-0.5-7.2-0.8-14.8-0.9h-0.2c-3.6-0.1-4.5-0.3-4.5-2.1c0-0.4,0-0.6,0.3-1.4
	c1.7-4.5,2.7-8,2.9-10.5l0.1-1.3l-1.3,0.2c-2.6,0.4-8.1,2.7-13.1,5.3c-0.6,0.3-1.4,0.3-2-0.1c-0.6-0.3-1-1-1-1.7
	c-0.1-3.7-0.5-7.4-0.9-9.4l-0.2-1.3l-1.2,0.5c-2.9,1.3-8.6,4.4-13.2,7.4c-0.5,0.3-1.1,0.4-1.8,0.2c-0.6-0.2-0.9-0.6-1.1-1.2
	c-0.4-1.6-1-3.5-1.8-5.8l-0.5-1.4l-1.1,1c-2.8,2.5-7.6,6.9-11.8,10.9c-0.5,0.5-1.3,0.7-2,0.5c-0.6-0.2-1.2-0.8-1.3-1.5
	c-0.6-3.3-2.3-8.4-3.9-9.5l-0.5-0.3l-0.5,0.3c-1.7,1.1-4.2,5.9-5.5,9.9c-0.2,0.6-0.8,1.2-1.4,1.3c-0.7,0.1-1.4-0.1-1.9-0.6
	c-3.3-3.5-7.5-7.3-9.5-8.6L314,85l-0.6,0.6c-1.6,1.7-4.6,6.6-7.1,11.3c-0.3,0.5-0.8,0.9-1.4,1.1c-0.8,0.2-1.4-0.2-1.7-0.5
	c-3.3-3-6.9-5.7-8.8-6.7l-0.9-0.5l-0.5,1c-1.4,2.7-3.2,9.4-4.5,14.8c-0.1,0.6-0.6,1.1-1.1,1.4c-0.6,0.2-1.2,0.2-1.8-0.1
	c-4.6-2.5-10.3-5-13-6L271,101l-0.1,1.3c-0.3,3.6,0.4,11,1.2,16.3c0.1,0.7-0.1,1.3-0.6,1.8c-0.4,0.4-1.1,0.7-1.7,0.5l-14-2.5
	l3.1,14.8c0.1,0.6,0,1.2-0.4,1.7c-0.3,0.4-0.9,0.7-1.5,0.7h-11.8l6.4,14.8c0.2,0.7,0.2,1.3-0.1,1.9c-0.3,0.6-0.8,0.9-1.5,1
	l-14.6,1.5l9.7,15.1c0.5,0.9,0.3,1.6,0.1,2.1c-0.3,0.6-1,1-1.7,1H233l12.6,13.6c0.4,0.5,0.6,1.1,0.6,1.6l-0.1,0.7l0.7,0.3
	c3,1.3,5.7,3.6,7.6,5.1l1.6,1.4v-2.1c0.3-16.5,2-45.9,9.5-57.6c11-17.3,58.7-38,96.7-31c17.3,3.2,29.5,10.3,36.2,21.1
	c6.9,10.9,8,25.1,3.4,42.2c-2.8,10.5-4.7,18.7-5.4,23.9l-0.3,2.1l1.8-1.1c2.6-1.5,6.8-3.4,11.8-3.4h0.6l0.3-0.5
	c0-0.1,0.2-0.2,0.3-0.3c3.4-3.1,6.8-6.9,7.8-8.6l0.4-0.8l-0.7-0.5c-0.6-0.5-1.9-1-3.6-1.5c-0.8-0.3-1.4-0.5-1.8-1.1
	c-0.9-1.4-0.5-2,2.4-4.6l0.2-0.2c1.9-1.7,6.4-5.6,8-7.7l0.6-0.8L423.5,162.6z"/>
<g id="vs-skin">
	<path fill="#FCD9CA" d="M735.5,780.9c-1.4-17.1-9.9-60.7-10.8-65.6l-0.2-1.2l-1.1,0.4c-12.7,5.1-23.7,9.9-32.6,14.2l-0.7,0.4
		l0.2,0.8c0.1,0.5,12.3,47.5,20.6,66.9c7.8,18.2,16,33.2,16.9,34.9l0.8,1.4l0.9-1.3c3.8-5.2,8.5-8.6,11.9-10.4l0.7-0.4l-0.3-0.8
		C739.6,813.6,736.8,796.3,735.5,780.9z"/>
	<path fill="#FCD9CA" d="M781.7,810.4c-1.5-9.5-5.9-38.4-6.5-56.1c-0.7-19.4-6.9-51.4-7.6-55l-0.2-1.1l-1.1,0.4
		c-9,3-19.9,7-32.2,11.7l-0.8,0.3l0.2,0.9c2.2,8.2,13.4,49.9,19.6,61.1c6.3,11.5,15.9,34.5,18.2,42.6l0.3,1.2l1.1-0.6
		c2.6-1.5,5.3-2.3,8.4-2.6l1.1-0.1L781.7,810.4z"/>
	<path fill="#FCD9CA" d="M566.5,472.4h-1.4c-3.7,0-7.2-0.7-10.4-2.1l-0.8-0.3l-0.5,0.7c-1.5,2.2-5,8.3-5.6,18.5
		c-0.6,12.2-0.1,49.9,0.2,65.6c0,0.7,0,1.1,0,1.1c0,0.8-0.5,1.6-1.2,1.9c-14.6,6.4-16.2,6.9-16.9,6.9c-1.1,0-2-0.9-2-2
		c0-0.9,0.7-1.7,1.6-1.9h0.1c0.8-0.3,4.1-1.7,8.4-3.5l2.3-1l-2.4-0.8c-4.1-1.4-24.7-8.8-33.3-10.7c-3.6-0.8-8.2-0.4-14.2,1.2l-5,1.3
		l5.1,0.6c6.9,0.8,12.3,2.2,14.5,3.1c0.5,0.2,0.8,0.6,1,1.1s0.2,1.1,0,1.5c-0.4,1-1.6,1.4-2.6,1.1c-4.7-2-15.1-3.6-24.2-3.6
		c-5.1,0-14.3,0.6-17.6,4.6c-1.6,2-2.3,3.5-1.9,4.6c0.6,1.6,3.6,2.5,4.9,2.7h0.1c0.1,0,0.3,0.1,0.5,0.1h0.4l0.3-0.3
		c2.8-2.6,7.3-4.3,12.7-4.7c12.2-1,25.2,3.2,26.7,3.7c1,0.3,1.6,1.4,1.2,2.5c-0.2,0.5-0.5,0.9-1,1.1c-0.5,0.2-1,0.3-1.6,0.1l0,0
		c-2.4-1-14.3-4.4-25-3.5c-6.7,0.5-9.6,2.9-10.5,3.9c-0.6,0.6-1,1.3-1.2,1.8c-0.6,2.1,1.5,3.8,2.5,4.5c3.7,2.6,14.2,2.4,24.4,2.2
		h0.8c8-0.2,16.2-0.4,22.9,0.6c5.6,0.8,10.7,1.9,15.4,2.9c6.1,1.4,10.8,2.4,14.7,2.4c1.6,0,3.1-0.2,4.4-0.6c0.8-0.3,3.9-2.5,8.6-19
		c0.2-0.7,0.4-1.3,0.6-2c0.2-0.7,0.3-1.3,0.5-2v-0.3c0-0.1,0-0.1,0.1-0.3l0.1-0.2c2.2-8,4.2-17,5.9-24.9l1-4.5
		c0.6-2.9,1.2-5.6,1.8-8.1c1.8-8,4.2-22.5,5.1-45.5v-1.1l-1.1,0.1C572.6,472,569.8,472.2,566.5,472.4z"/>
	<path fill="#FCD9CA" d="M406.8,286.2l-1.9,1.6l2.5,0.2c4.9,0.3,10.4,1.5,15.8,3.3c15.2,5.3,21.3,5.2,22.3,5.2h0.1l0.5,0.1
		c0.8,0.1,1.4,0.8,1.6,1.7c0.2,1-0.6,2-1.7,2.2s-7.4,0.6-24.4-5.4c-7.1-2.4-13.7-3.4-18.7-2.9c-3.2,0.3-5.4,1.2-6.5,2.4
		c-0.9,0.9-1.2,2-0.9,3.5l0.2,1.3l1.2-0.6c0.1,0,0.2-0.1,0.3-0.1c0.2-0.1,0.3-0.1,0.4-0.2c6.1-2.6,15.8,0.9,21.1,3.3
		c11.3,5,23.6,4.9,25.1,4.9c0.5,0,1,0.1,1.3,0.5c0.4,0.4,0.7,0.9,0.7,1.5s-0.2,1.1-0.5,1.5c-0.4,0.4-0.9,0.6-1.4,0.6h-0.1
		c-3.4,0-15.3-0.2-26.7-5.2c-8-3.5-14.6-4.8-17.9-3.3c-1.4,0.5-1.9,1.5-2.1,2.1c-0.7,2-0.5,4.2,0.7,6.1c1.4,2.4,3.9,4,7,4.6
		c0.6,0.1,1.2,0.5,1.4,1.1l0.7,1.4l1-1.2c0.9-1.1,2.1-1.9,3.5-2.4c5.4-2,13.4,0.5,19.1,3.4c7.2,3.7,21.3,2.3,21.4,2.3
		c1.1-0.1,2.1,0.8,2.2,1.8c0.1,1.1-0.8,2.1-1.8,2.2c-0.1,0-0.2,0-0.4,0c-10.2,0.8-18.5-0.2-23.3-2.8c-6-3.2-12.3-4.5-15.7-3.3
		c-1.2,0.4-1.9,1.1-2.3,2.2v0.2c-0.2,0.8,0,1.6,0.6,2.5c2.7,4.2,12.6,9.1,23.1,9.7c4.6,0.2,10.7,0,17.3-0.2h0.7
		c16.4-0.5,26.6-0.6,29.5,2.2c3.7,3.7,4.3,11.7,1.7,26.7c-0.4,2.6-1.1,5.2-1.8,7.7c-2.4,8.7-4.8,17.7,3.2,25.8l0.1,0.1l0.2,0.1
		c2.8,1.2,7.3,1.7,12.6,1.7c13,0,31.1-3.1,42.2-5.5l1.2-0.3l-0.5-1.1c-3.1-7.1-4-15.5-2.5-24.8l0.3-1.8l-1.7,0.7
		c-10,4.4-22.3,9.1-27.1,9.2h-0.5c-9.2-1.1-8.4-15.4-8.1-22.2c0.8-15.5-0.2-36.2-2.8-39.7c-0.8-1-1.5-1.8-2.2-2.4l-0.5-0.5
		c-2.3-2.2-3.9-4-4.6-9.6c-0.8-6.8-1-21.3,1.7-25.8c1-1.8,1.8-7.1-0.3-10.6c-1.5-2.6-4.2-3.7-8.3-3.5c-4.6,0.2-8.2,2-10.6,5.4
		c-3.4,4.5-3.7,10.3-3.1,12.8c3.3,13.5,1.2,15.5,0.5,16.3c-1.8,1.8-11.7,3.1-23,1.3v-0.1l-1-0.2c-2.5-0.5-5.2-1.1-7.7-1.9
		c-1.1-0.5-2.2-0.9-3.4-1.3c-0.9-0.3-1.8-0.7-2.7-1C423.4,285.9,412.3,281.6,406.8,286.2z M458.7,312.2L458.7,312.2
		c0.2-0.1,7.1-5.5,14.2-4.2c3.6,0.7,6.5,2.7,8.7,6.1c0.5,0.8,0.2,1.7-0.5,2.1l0,0c-0.2,0.1-0.4,0.2-0.7,0.2c-0.5,0-1-0.3-1.3-0.7
		c-1.9-2.7-4.1-4.3-6.8-4.7c-0.6-0.1-1.2-0.1-1.7-0.1c-4.9,0-9.4,3.1-10.2,3.7l0,0c-0.7,0.5-1.6,0.4-2.1-0.3
		C457.9,313.6,458,312.7,458.7,312.2z"/>
	<path fill="#FCD9CA" d="M640.7,257.2l-1,0.2c-2.3,0.5-4.5,0.7-6.6,0.6c-1.1,0-2.1,0-3.2-0.2c-10.6-1.6-15-11.1-15.5-18.8l-0.1-0.9
		h-0.9c-11.1-0.6-21.4-5.2-35.4-26c-11.9-17.6-22-31.7-35.9-41.3c-2.7-1.8-5.4-3-8-3.5l-0.3-0.1l-0.3,0.1
		c-5.8,2.6-15.6,9.1-16.6,24.2c-0.8,11.6,0.7,17.4,2.3,23.4c1.1,4.2,2.4,8.9,2.7,15.8c0.1,1.1,0.1,2.4,0.1,3.6c0,1.2,0,2.4,0.1,3.6
		c0,3.3,0.1,6.9,0.3,10.9l0.2,3.8l1.7-3.4c0.6-1.2,1.4-2.1,2.1-2.9c5.5-5.6,13.4-12.3,16.3-14.8c0.9-0.8,1.2-1,1.2-1.1
		c0.3-0.3,0.6-0.4,1-0.3c0.4,0,0.8,0.2,1,0.6c0.3,0.3,0.4,0.6,0.3,1c0,0.4-0.2,0.8-0.6,1.1l-0.3,0.3c-7.1,6-13.2,11.5-17,15.3
		c-2.1,2.1-3.2,5.6-3,9.5v0.2c0.1,0.8,0.2,1.8,0.4,2.7c1,4.7,3.8,8.6,7.1,9.8c6.2,2.3,15.7,3.9,21.9,0.4c3.2-1.8,5.1-4.6,6-8.7
		c0.1-0.4,0.3-0.7,0.7-0.9c0.3-0.2,0.8-0.3,1.1-0.2c0.8,0.2,1.3,1,1.1,1.8c-1,4.9-3.6,8.5-7.5,10.6c-2.9,1.6-6.3,2.4-10.4,2.4
		c-6.2,0-11.9-1.8-14-2.5c-2.2-0.8-4.2-2.5-5.8-4.7l-2.5-3.5l0.7,4.2c0.7,4.7,1.7,9.3,3,13.7c1.5,5.4,3.7,10.8,6.4,15.8
		c11.9,21.9,38.1,39.4,41.1,41.4l2.9,2.1l0.6-0.4c15.4-10.5,35.8-16.8,38-17.5l0.9-0.3l-0.2-0.9c-2.7-13.6-1.3-27.5,1.4-35.3
		l0.4-1.2l-1.3-0.1c-1-0.1-2-0.3-3.1-0.5c-1-0.2-1.7-1.2-1.5-2.3c0.1-0.5,0.4-1,0.8-1.3c0.4-0.3,1-0.4,1.5-0.3
		c2.4,0.5,4.7,0.8,6.7,0.9c6.8,0.4,12-1.1,15.3-4.5c5.8-6,4.4-16.5,3.6-20.8L640.7,257.2z M560.8,217.1c0.5,2.3,1.4,7.7-1.7,8.6
		c-0.1,0-0.5,0-0.7,0c-0.5,0-0.9-0.1-1.3-0.4c-1.2-0.8-2.1-2.7-2.8-5.8l-0.2-1l-1,0.3c-3.6,0.9-7.1,1.6-10.5,2l-0.9,0.1v0.9
		c0,1.7-0.3,4.7-2.6,5.1H539c-0.1,0-0.2,0-0.5,0c-0.5,0-1-0.1-1.5-0.4c-0.7-0.5-1.7-1.5-2.3-4.2l-0.2-0.8l-0.9,0.1
		c-3.6,0.3-6.2,0.3-7,0.3s-1.5-0.7-1.5-1.5s0.7-1.5,1.5-1.5c3.9,0,10.8-0.4,17.4-1.4l1.1-0.2l-0.3-1.1c-1.9-6.8-0.3-14.6-0.3-14.7
		v-0.1c0.1-0.5,0.3-0.8,0.6-0.9c0.3-0.2,0.8-0.3,1.2-0.2s0.7,0.3,1,0.6c0.2,0.3,0.3,0.7,0.2,1.1v0.3c-0.3,2.2-0.5,4.4-0.5,6.4
		c0,2.8,0.3,5.2,0.9,7.2l0.3,0.9l0.9-0.2c7.8-1.6,13.1-3.9,15.6-6.7c0.3-0.3,0.6-0.5,1-0.5s0.8,0.1,1.1,0.4c0.3,0.3,0.5,0.6,0.5,1
		s-0.1,0.8-0.3,1l0,0c-1.3,1.5-3.3,2.9-5.7,4.3l-0.7,0.4L560.8,217.1z M555.4,305.2c-0.2-1.7,0.2-5.2,4.8-9.3
		c2.7-2.5,17.4-14.3,23-11.2c2.9,1.7,4.1,9.8,3.1,21.6c-0.1,0.6-0.3,1-0.6,1.1c-0.4,0.3-1,0.3-1.4,0.1c-0.1-0.1-13.1-6.2-25.7,0.4
		c-0.9,0.4-1.7,0.1-2-0.6l-0.1-0.1c-0.2-0.4-0.2-0.6-0.2-0.8l0.4-1.9L555.4,305.2z"/>
	<path fill="#FCD9CA" d="M465.2,506.9l0.1-0.2v-0.2c0-0.5-0.4-2.5-5.2-6.1c-10.6-7.9-36.8-9.5-37-9.5l0,0c-1.1-0.1-1.9-1-1.9-2.1
		c0.1-1.1,1-1.9,2.2-1.9c0.3,0,27.6,1.6,39.2,10.2l0.1,0.1c1.7,1.3,5.6,4.3,6.5,7.7l0.2,0.8h0.8c0.4,0,0.8,0,1,0.1l0.4,0.2l0.4-0.1
		c0.5-0.1,1.9-0.5,4.4-1.9c0.7-0.4,1.5-1.1,1.5-2.5c0-3.4-4-8-9.7-11.3l-0.4,0.7l0.4-0.7c-5.1-2.9-14.3-5.4-21.2-7
		c-2.1-0.5-11.4-2.6-14.2-2.6v-0.1c-0.5-0.1-1-0.4-1.3-0.8s-0.4-1-0.3-1.5c0.1-0.9,0.9-1.6,1.9-1.6h1v-0.1c0.1,0,0.2,0,0.3,0.1
		c11,2.1,20.1,4.3,26.9,6.6l3.7,1.2l-2.6-2.9c-2.2-2.4-5.7-5.4-9.9-6.1c-6.3-1.1-12.8-1.8-19.2-2.1h-1v0.3
		c-8.4-0.3-17.2,0.2-26.1,1.6c-0.6,0.1-1.1-0.1-1.6-0.4c-5.3-4-11.2-25.4-15-44.1l-0.4-1.8l-1.3,1.3c-3.8,3.7-7.8,7-11,9.1l-0.5,0.3
		v0.6c0.3,6.2,7.4,30.6,9.9,38.8c0.2,0.9-0.1,1.7-0.8,2.2c-3.2,2.2-9.4,7.9-10.2,13.8c-0.1,0.5-0.1,1-0.1,1.4
		c0,4.7,3.2,11.2,7.9,15.7c3.8,3.7,7.9,5.7,11.7,5.7c4.3,0,7.6-1.5,9.6-4.3c2-2.9,2.3-6.9,0.9-10.7c-0.8-2.1-2.2-4-3.8-5.6
		c-3.5-3.3-7.9-5.1-9.1-5.4h-0.1c-0.9-0.1-1.5-0.9-1.5-1.9c0-1.1,0.9-2,2-2c0.8,0,5.9,1.8,10.5,5.6l0.3,0.2h0.5
		c1,0.2,9.3,2,12.8,3.8c3.9,2,26.3,12.4,37.8,12.4h0.2C462.3,509.7,464.9,507.9,465.2,506.9z"/>
	<path fill="#FCD9CA" d="M392.2,418.9c1-3.6,0.4-19.4-0.1-27.3c-0.1-1.2,0.7-2.1,1.9-2.1c1.1-0.1,2.1,0.7,2.1,1.9v0.3
		c0,0.1,0,0.5,0,0.8v0.5l0.3,0.3c1.5,1.3,9.6,7.6,26.2,8c9.7,0.2,14.1-4.3,16-8.1c2.4-4.7,1.8-9.6,0.8-10.9l-0.1-0.1
		c-0.9-0.8-3.5-3.3-38.5-6.4c-1.1-0.2-2.2-0.2-3-0.3l-0.8-0.1c-3.7-0.4-10.8-0.5-19.4-0.4c-8.9,0.1-19.2,0.5-21.7,1.2l-0.2,0.1
		c-1.3,0.8-6.9,5.4-14.6,11.7c-3.6,3-7.6,6.2-11.3,9.3c-1.9,1.6-3.8,3.1-5.5,4.6c-2,1.7-3.8,3.2-5.5,4.6c-3.1,2.6-5.3,4.4-6.1,5.1
		l-0.2,0.2c-4,6.3-12.7,17.9-25.3,24.7l-0.5,0.3v0.6c0,3.8,1.9,7.1,3.5,9.2c2.3,3.1,5.1,4.9,6.9,5.4l0.2,0.1l0.2-0.1
		c2.1-0.5,4.9-2.3,8.5-5.1c7.8-6.2,19.3-17.6,35.3-34.9c3.7-4,4.3-4.5,4.6-4.9c1.8-1.3,3.7-0.2,11.5,8.6c3.5,3.9,6.8,7.8,7.5,8.8
		l0.2,0.3c0.5,0.6,0.6,1.5,0.2,2.3c-0.3,0.7-1.1,1.1-1.9,1l-3.9-0.3l-0.3,0.2c-0.7,0.5-2.2,1.9-2.5,4.3v0.2l0.1,0.2
		c0.9,2.6,9.8,6.4,13.6,5.8c2.9-0.6,12.2-8.5,17-13.4C390.6,421.8,391.9,420.1,392.2,418.9z"/>
	<path fill="#FCD9CA" d="M311.9,323.8l0.1,0.1c0.9,0.4,1.4,0.6,1.8,0.9c1,0.7,2,1.3,3,17.2l0.2,3.4l9.8-17.7
		c0.3-0.5,0.5-0.6,0.5-0.6l0.2-0.1v-0.1c0.1-0.1,0.3-0.3,0.6-0.5c13.9-11.6,25.7-24.1,33.2-32.5c0.6-0.5,1-1,1.4-1.5
		c19.3-21.8,22-53.3,21.9-53.5c0.1-1,0.8-1.9,2.1-1.9c0.1,0,6.6,0.2,20.8-0.6c6.6-0.4,14.1-7.2,17.3-15.7c1.4-3.9,3.9-13.7-3.5-21.1
		c-3-3-6.2-4.8-9.6-5.4c-8.5-1.4-15.5,5.3-16.3,6.1c-0.5,0.5-1.1,0.7-1.7,0.6c-0.6-0.1-1.1-0.4-1.5-0.9c-1-1.6-0.8-8.6,5.6-32.4
		c4.3-16,3.3-29.2-2.9-39.1c-6.1-9.8-17.4-16.3-33.6-19.3c-38.3-7.1-83.6,15-92.6,29.1c-8.9,14-9,57.7-9,62.6c0,0.9-0.5,1.7-1.4,2
		c-0.8,0.3-1.6,0.1-2.2-0.6c-1.2-1.4-7.7-8.6-13.6-10.1h-0.6c-2.3,0-6.6,2.4-10.2,6.9c-2.4,2.9-9.5,13.6-2.6,27.2
		c9.5,18.6,25.9,14.5,27.8,14c0.1,0,0.3,0,0.6,0c0.4,0,0.7,0.1,1,0.3c0.5,0.3,0.8,0.7,0.9,1.3v0.1c0,0.1,0.1,0.3,0.2,0.6
		c3.5,13.2,7.8,26,12.4,37c2.1,5.1,4.4,9.9,6.8,14.5C289.5,313.2,306.4,321.2,311.9,323.8z M338.3,156.5c0.3,4.5-0.2,7.7-1.3,9
		c-0.6,0.7-1.3,0.9-1.8,1h-0.1c-0.6,0-1.2-0.3-1.7-0.8s-1.4-2.3-0.2-9l0.2-1.1l-1.1-0.1c-3.9-0.2-7.1-0.4-10.1-0.8l-1.4-0.2l0.3,1.4
		c0.5,2.2,0.5,4.5,0.5,4.5c-0.1,2.9-1.7,3.4-2.1,3.4h-0.4c-0.1,0-0.3-0.1-0.4-0.1c-0.9-0.2-1.5-0.9-1.8-1.4
		c-0.8-1.4-0.8-3.8-0.1-7.3l0.2-1l-1-0.2c-9.6-1.6-15.4-3.4-15.5-3.5c-0.8-0.2-1.2-1.1-0.9-1.9c0.1-0.4,0.4-0.7,0.7-0.8
		c0.4-0.2,0.8-0.2,1.1-0.1l0,0c1.9,0.8,9.6,2.6,17.6,3.8c1.8,0.3,3.7,0.5,5.6,0.7l1.3,0.1l-0.3-1.3c-1.1-5.8,0.5-14.3,0.5-14.5
		c0.1-0.8,0.9-1.3,1.8-1.2c0.8,0.1,1.3,0.9,1.2,1.7c0,0.1-1.8,10.3-0.2,14.9l0.2,0.6h0.7c1.9,0.1,3.8,0.2,5.7,0.2
		c9.5,0.1,18.3-0.9,26.1-2.9c0.8-0.2,1.6,0.3,1.8,1c0.2,0.9-0.3,1.7-1,1.9l0,0c-7.6,1.9-15.5,2.9-22.9,2.8h-1.1L338.3,156.5z
		 M298.1,264.6c0.2-0.4,0.4-0.7,0.8-0.8c0.3-0.1,27.7-11.1,42.1-8.3c1.5,0.3,14.6,3.1,16.9,15c0.1,0.4,0,0.8-0.3,1.2
		c-0.2,0.3-0.5,0.5-0.9,0.6c-0.2,0-0.3,0-0.5,0.1c-0.6-0.1-1.2-0.6-1.3-1.2v-0.1c-0.4-1.7-2.9-10.2-14.5-12.4
		c-1.5-0.3-3.1-0.4-4.8-0.4c-12.2,0-29.8,6.3-35.5,8.5l-0.2,0.1c-0.4,0.2-0.8,0.1-1.2,0c-0.4-0.2-0.7-0.4-0.8-0.8
		C298,265.4,298,265,298.1,264.6z M283.2,187.7c7.4-13.7,38.9-16.3,39.2-16.3h0.1c0.8,0,1.5,0.6,1.5,1.4c0,0.4-0.1,0.8-0.4,1.1
		s-0.6,0.5-1,0.5c-10.4,0.9-31.5,5.1-36.7,14.7c-3.4,6.5-4.8,16.8-0.2,25.3c1.4,2.6,3.2,4.9,5.5,6.8c4.9,4.2,11.9,6.7,20.8,7.5
		c13.8,1.2,26-3.3,32.9-12.1c1.3-1.6,2.3-3.3,3-4.9c3-6.8,1.9-13.6-2.9-18.2c-0.3-0.2-0.4-0.6-0.4-1s0.1-0.8,0.4-1.1
		c0.5-0.6,1.5-0.6,2.1,0c5.8,5.4,7.2,13.7,3.7,21.5c-0.9,1.8-1.8,3.3-2.7,4.7l-0.2,0.3v0.3c0,0.9-0.2,21.4,4.1,26.1
		c0.4,0.4,0.3,1-0.1,1.3c-0.2,0.2-0.5,0.2-0.8,0.2H351c-0.3,0-0.6-0.1-0.8-0.3c-2.7-2.9-4.4-11.5-4.5-22.9v-2.3l-1.7,1.5
		c-6.9,6.5-16.7,10-27.6,10c-1.6,0-3.2-0.1-4.7-0.2c-9.1-0.9-16.4-3.5-21.8-7.7l-1.6-1.2v2c-0.3,10.4-0.5,23.5,0.1,26.9
		c0.1,0.5-0.2,1-0.7,1.1h-0.2c-0.5,0-0.9-0.3-1-0.8c-0.5-3-0.5-12.5,0-28.2c0-1,0-1.6,0-1.8c0-0.1,0-0.1,0.1-0.3l0.3-0.7l-0.4-0.4
		c-1.2-1.4-2.3-2.9-3.4-4.8C277.8,206.3,279.3,194.8,283.2,187.7z M397.2,218.9c1.7-3.3,6.3-8.7,12.3-8.7c1,0,2.1,0.2,3.2,0.5
		c0.7,0.2,1.2,1,0.9,1.8c-0.4,0.9-1.3,1.2-1.9,1.1c-2.5-0.8-5.1-0.2-7.5,1.6c-2.2,1.6-4,4.1-4.5,5.2l0,0c-0.3,0.6-1.3,0.9-2,0.6
		C397.1,220.5,396.8,219.6,397.2,218.9z M241.6,212.3c0.1-0.8,0.8-1.4,1.7-1.4c0.1,0,8.6,0.5,14,10.8c0.2,0.3,0.2,0.7,0.1,1.1
		c-0.1,0.4-0.4,0.7-0.7,0.9l-0.1,0.1c-0.1,0.1-0.4,0.1-0.7,0.1s-1-0.1-1.3-0.8c-4.6-8.8-11.6-9.2-11.6-9.2
		C242.1,213.8,241.5,213.1,241.6,212.3z"/>
</g>
<path fill="none" stroke="#000000" stroke-width="5" stroke-linecap="round" stroke-linejoin="round" stroke-miterlimit="10" d="
	M327.3,136.5c0,0-1.9,10.8,0,15.8"/>
<path fill="none" stroke="#000000" stroke-width="5" stroke-linecap="round" stroke-linejoin="round" stroke-miterlimit="10" d="
	M300.6,149c0,0,31.4,9.9,61.2,2.1"/>
<path fill="none" stroke="#000000" stroke-width="5" stroke-linecap="round" stroke-linejoin="round" stroke-miterlimit="10" d="
	M318.4,153.3c0,0-2.6,8.4,0.4,9.1c2.3-0.4,0.2-8.2,0-7.9"/>
<path fill="none" stroke="#000000" stroke-width="5" stroke-linecap="round" stroke-linejoin="round" stroke-miterlimit="10" d="
	M335,154.5c0,0-2.4,10.8,0,10.6s1.5-9.4,1.5-9.4"/>
<path fill="none" stroke="#000000" stroke-width="5" stroke-linecap="round" stroke-linejoin="round" stroke-miterlimit="10" d="
	M322.6,173c0,0-31,2.4-37.9,15.5s-5.3,39,27.3,41.8c32.6,2.9,47.9-24.9,34.1-37.7"/>
<path fill="none" stroke="#000000" stroke-width="4" stroke-linecap="round" stroke-linejoin="round" stroke-miterlimit="10" d="
	M287.5,222.4c0,0-0.9,24.5,0,29.7"/>
<path fill="none" stroke="#000000" stroke-width="4" stroke-linecap="round" stroke-linejoin="round" stroke-miterlimit="10" d="
	M346.9,218.2c0,0-0.5,21.6,4.3,26.8"/>
<path fill="none" stroke="#000000" stroke-width="5" stroke-linecap="round" stroke-linejoin="round" stroke-miterlimit="10" d="
	M299.5,265.2c0,0,27.4-10.9,41.3-8.3c13.9,2.6,15.7,13.8,15.7,13.8"/>
<path fill="none" stroke="#000000" stroke-width="5" stroke-linecap="round" stroke-linejoin="round" stroke-miterlimit="10" d="
	M243.2,212.4c0,0,7.8,0.5,12.8,10"/>
<path fill="none" stroke="#000000" stroke-width="5" stroke-linecap="round" stroke-linejoin="round" stroke-miterlimit="10" d="
	M398.4,219.5c0,0,5.4-10.1,13.8-7.5"/>
<path fill="none" stroke="#000000" stroke-width="6" stroke-linecap="round" stroke-linejoin="round" stroke-miterlimit="10" d="
	M316.6,377.2c0,0-1.7-49.5-3.8-50.9s-23.1-8.7-35.5-31.5s-19.7-52.7-19.7-52.7s-19.4,6-30.1-15c-10.7-20.9,8.4-38.7,15.7-36.8
	c7.3,1.8,14.7,10.9,14.7,10.9s-0.5-48.5,9.3-63.7s56.1-37.1,94.6-30s45.6,32.8,38.1,60.8s-5.8,30.8-5.8,30.8s14.7-14.8,28.8-0.8
	c14.1,14-0.5,39.4-15.1,40.2c-14.7,0.8-21,0.6-21,0.6s-2.6,32.2-22.4,54.6c-19.9,22.5-35.6,34.9-35.6,34.9l-11.6,20.9"/>
<path fill="none" stroke="#000000" stroke-width="6" stroke-linecap="round" stroke-linejoin="round" stroke-miterlimit="10" d="
	M244.1,188.1l-15.7-17h14.8l-11.5-17.9l17.9-1.7l-7.6-17.7h14.8l-3.7-17.6l16.8,2.9c0,0-2.9-19.6,0-19.9s16.1,6.6,16.1,6.6
	s3.8-16.6,6.1-17.3c2.3-0.8,11.8,7.8,11.8,7.8s6.6-13,9.2-13.1s11.8,9.8,11.8,9.8s3.9-11.9,8.2-11.4c4.3,0.5,6.2,11.3,6.2,11.3
	s14.5-13.8,15.1-13.5s3.4,9.6,3.4,9.6s14.7-9.1,16.4-8.3c1.8,0.8,2.2,12.5,2.2,12.5s15.1-7.9,16.9-4.8s-2.8,14.1-2.8,14.3
	s19.7-0.2,20.4,2.2c0.7,2.4-3.8,11.4-3.8,11.4s15.3,0.2,15.1,6.3c-0.2,6.1-7,11.7-7,11.7s10.1,3.1,9.5,8.3
	c-0.6,5.1-8.3,13.5-8.3,13.5s10.3,4.4,9.8,7.2s-11.7,11.7-11.5,11.9s6.1,1.5,6.3,4.3c0.2,2.8-8.8,10.9-8.8,10.9"/>
<path fill="none" stroke="#000000" stroke-width="6" stroke-linecap="round" stroke-linejoin="round" stroke-miterlimit="10" d="
	M363.8,295.8c0,0-2.9,52.7-17.6,58.2c-7.9-1.4-5.5-15.7-9-17.7"/>
<path fill="none" stroke="#000000" stroke-width="6" stroke-linecap="round" stroke-linejoin="round" stroke-miterlimit="10" d="
	M363.8,310.4c0,0,7,45.6,14.1,60.7"/>
<path fill="none" stroke="#000000" stroke-width="6" stroke-linecap="round" stroke-linejoin="round" stroke-miterlimit="10" d="
	M304.5,335.2l-7.3,17.9c0,0-15.9-11.2-24.6-37.3c-8.7-26.1-2.3-35.7-2.3-35.7"/>
<path fill="none" stroke="#000000" stroke-width="6" stroke-linecap="round" stroke-linejoin="round" stroke-miterlimit="10" d="
	M268,282.9c-1.4,0.6-13,5-23.9,18.2c-10.9,13.1-15.4,21.7-18.3,35.2s-23.8,46-31.2,55.9c-7.3,9.9-33.5,45.7-33.5,45.7
	s6.1,27.7,26.6,39.6s57.8,28.9,106.4,13.6c5.5-14.7,14.5-42.2,14.5-42.2"/>
<path fill="none" stroke="#000000" stroke-width="6" stroke-linecap="round" stroke-linejoin="round" stroke-miterlimit="10" d="
	M288,358.4c-0.3,0.6,24.9,48.9,24.9,48.9s-15.4,29.4-42.2,31.9c-6.1-16.5-24.6-93.9-24.3-106.7"/>
<path fill="none" stroke="#000000" stroke-width="6" stroke-linecap="round" stroke-linejoin="round" stroke-miterlimit="10" d="
	M311.3,410.1c0.4-0.7,41.1-34.6,43.8-36.1s33.3-2,42.3-1.1s40.4,3.4,43.7,7.8c3.4,4.4,1.2,22.8-18.5,22.3s-28-9-28-9"/>
<path fill="none" stroke="#000000" stroke-width="6" stroke-linecap="round" stroke-linejoin="round" stroke-miterlimit="10" d="
	M394.1,391.3c0,0,1.4,22.9,0,28c-1.4,5-18.8,20.2-23.2,20.8s-16.2-3.8-15.9-8.3c0.3-4.4,4.3-6.6,4.3-6.6l4.6,0.5
	c0,0-15-18.3-16.5-17.3c-1.5,1.1-38.1,43.3-49.7,45.2c-5-0.6-13.8-9.5-12.5-18.6"/>
<path fill="none" stroke="#000000" stroke-width="6" stroke-linecap="round" stroke-linejoin="round" stroke-miterlimit="10" d="
	M334.8,364.5c0.2-0.2-10.4,24.6-11.6,35.5"/>
<line fill="none" stroke="#000000" stroke-width="6" stroke-linecap="round" stroke-linejoin="round" stroke-miterlimit="10" x1="333.3" y1="372.5" x2="339" y2="385.5"/>
<path fill="none" stroke="#000000" stroke-width="6" stroke-linecap="round" stroke-linejoin="round" stroke-miterlimit="10" d="
	M390.7,426.2c0,0,8,41.5,15.1,46.9c20.8-3.4,37.5-1.3,46.9,0.4c9.5,1.7,16.4,13.6,16.4,13.6"/>
<path fill="none" stroke="#000000" stroke-width="6" stroke-linecap="round" stroke-linejoin="round" stroke-miterlimit="10" d="
	M433.2,478.4c0,0,26,4.6,35.8,10.2c9.9,5.6,13.8,14.2,8.2,17.4c-5.7,3.1-6.7,2-6.7,2"/>
<path fill="none" stroke="#000000" stroke-width="6" stroke-linecap="round" stroke-linejoin="round" stroke-miterlimit="10" d="
	M423.2,489.1c0,0,27.1,1.6,38.1,9.9c11.1,8.3,5.5,12.8-6.6,12.9c-12.2,0.2-35.5-10.9-38.9-12.6c-3.4-1.8-12.5-3.7-12.5-3.7"/>
<path fill="none" stroke="#000000" stroke-width="6" stroke-linecap="round" stroke-linejoin="round" stroke-miterlimit="10" d="
	M392.7,489.8c0.4,0,11.4,3.7,14.5,12.3s-1.2,17.7-12.4,17.7c-11.2,0.1-21.6-14.4-21.6-23.5s11.2-16.9,11.2-16.9s-9.7-31.8-10-39.4"
	/>
<path fill="none" stroke="#000000" stroke-width="6" stroke-linecap="round" stroke-linejoin="round" stroke-miterlimit="10" d="
	M286.1,493.4c0,0-1.6,12-6.4,15.5"/>
<path fill="none" stroke="#000000" stroke-width="6" stroke-linecap="round" stroke-linejoin="round" stroke-miterlimit="10" d="
	M165.1,452.6c0,0-27.7,65.4-32.3,81.5"/>
<path fill="none" stroke="#000000" stroke-width="6" stroke-linecap="round" stroke-linejoin="round" stroke-miterlimit="10" d="
	M372.2,494.4L56.3,550.1v26.1l320.1,83.3c0,0,263.5-58.7,262.6-58.1"/>
<line fill="none" stroke="#000000" stroke-width="5" stroke-linecap="round" stroke-linejoin="round" stroke-miterlimit="10" x1="237.7" y1="497.2" x2="231.5" y2="517"/>
<path fill="none" stroke="#000000" stroke-width="5" stroke-linecap="round" stroke-linejoin="round" stroke-miterlimit="10" d="
	M257.9,498.4c0,0-6.8,12.5-16.9,18.6"/>
<line fill="none" stroke="#000000" stroke-width="4" stroke-linecap="round" stroke-linejoin="round" stroke-miterlimit="10" x1="57" y1="551.2" x2="268.9" y2="606.5"/>
<line fill="none" stroke="#000000" stroke-width="4" stroke-linecap="round" stroke-linejoin="round" stroke-miterlimit="10" x1="284.6" y1="610.8" x2="343.7" y2="625.9"/>
<polyline fill="none" stroke="#000000" stroke-width="4" stroke-linecap="round" stroke-linejoin="round" stroke-miterlimit="10" points="
	356.9,630.4 378,635.2 405.9,628.8 "/>
<line fill="none" stroke="#000000" stroke-width="4" stroke-linecap="round" stroke-linejoin="round" stroke-miterlimit="10" x1="418" y1="625.9" x2="460.7" y2="618.4"/>
<path fill="none" stroke="#000000" stroke-width="4" stroke-linecap="round" stroke-linejoin="round" stroke-miterlimit="10" d="
	M473.1,615.5c0.7,0,161.9-37.4,161.9-37.4"/>
<path fill="none" stroke="#000000" stroke-width="6" stroke-linecap="round" stroke-linejoin="round" stroke-miterlimit="10" d="
	M466.1,480.7c0.5,0,40.2-7,40.2-7l39.9,5.7"/>
<line fill="none" stroke="#000000" stroke-width="6" stroke-linecap="round" stroke-linejoin="round" stroke-miterlimit="10" x1="197.1" y1="614.5" x2="197.6" y2="665.5"/>
<line fill="none" stroke="#000000" stroke-width="4" stroke-linecap="round" stroke-linejoin="round" stroke-miterlimit="10" x1="262.8" y1="631.4" x2="263.7" y2="694.7"/>
<line fill="none" stroke="#000000" stroke-width="6" stroke-linecap="round" stroke-linejoin="round" stroke-miterlimit="10" x1="276.5" y1="633.6" x2="276.5" y2="694.7"/>
<path fill="none" stroke="#000000" stroke-width="6" stroke-linecap="round" stroke-linejoin="round" stroke-miterlimit="10" d="
	M599.3,610.1c-0.1,7.3-1.2,44.4-1.2,44.4"/>
<path fill="none" stroke="#000000" stroke-width="6" stroke-linecap="round" stroke-linejoin="round" stroke-miterlimit="10" d="
	M601.1,616.3c0,0,12.4-7.3,22.3-6.2c9.9,1,16.6,7.6,16.6,7.6l-5.1-14.1c0,0-10.9,2.9-10,3.5s8.9,3.5,8.9,3.5l0.5-2.6"/>
<polyline fill="none" stroke="#000000" stroke-width="6" stroke-linecap="round" stroke-linejoin="round" stroke-miterlimit="10" points="
	629.8,602.1 629.8,582.4 631.7,581.6 633.2,600.4 638.2,599.5 634.1,579.8 "/>
<path fill="none" stroke="#000000" stroke-width="6" stroke-linecap="round" stroke-linejoin="round" stroke-miterlimit="10" d="
	M379.9,534.8c0,0-2.4-17.6-18-16.4c-15.6,1.2-17,7.8-16.5,17.3"/>
<path fill="none" stroke="#000000" stroke-width="6" stroke-linecap="round" stroke-linejoin="round" stroke-miterlimit="10" d="
	M384.3,539.1c0,0-26.1-5.8-39.4-0.6s-32.3,13.8-30,32.1s14.4,22.9,28.1,27.7c13.8,4.7,38.4,1.2,38.4,1.2s13.6-6.6,14.5-27.7
	c0.9-21.1-9.3-31.8-9.3-31.8s-8.7-5.5-15.7,13.1s-7.2,40.8,7.9,44.9"/>
<path fill="none" stroke="#000000" stroke-width="5" stroke-linecap="round" stroke-linejoin="round" stroke-miterlimit="10" d="
	M367,578.9c0,0,15.6-1.5,17,4.6s-11.8,9-11.8,9"/>
<path fill="none" stroke="#000000" stroke-width="6" stroke-linecap="round" stroke-linejoin="round" stroke-miterlimit="10" d="
	M495.5,533.5l-97.9,22.3L502,595.1c0,0,40.1-10,40.1-9.5"/>
<path fill="none" stroke="#000000" stroke-width="5" stroke-linecap="round" stroke-linejoin="round" stroke-miterlimit="10" d="
	M318.9,585.6c0.6,0.5-38.7-0.4-46.8,9.6c-2.1,7.8-2.3,35.5-2.3,35.5"/>
<path fill="none" stroke="#000000" stroke-width="5" stroke-linecap="round" stroke-linejoin="round" stroke-miterlimit="10" d="
	M303.7,586.4c0,0,0.2,26.2,1.4,28.1"/>
<path fill="none" stroke="#000000" stroke-width="5" stroke-linecap="round" stroke-linejoin="round" stroke-miterlimit="10" d="
	M313.5,587.1c0,0,0.8,29,0,30"/>
<path fill="none" stroke="#000000" stroke-width="5" stroke-linecap="round" stroke-linejoin="round" stroke-miterlimit="10" d="
	M312.8,643.8c0.2,0.8-5.7,41.3,3.5,41.1s5.1-39.7,5.1-39.7"/>
<path fill="none" stroke="#000000" stroke-width="5" stroke-linecap="round" stroke-linejoin="round" stroke-miterlimit="10" d="
	M355.4,654.1c0,0-3.4-25.7,1.6-29.5s33.3-7.2,51.7,4.2c0.3,8.5-0.8,22.4-0.8,22.4"/>
<path fill="none" stroke="#000000" stroke-width="5" stroke-linecap="round" stroke-linejoin="round" stroke-miterlimit="10" d="
	M427.9,649.3c0,0-3.4,16.5,4.3,17.7c7.6,1.2,10.9-13.3,8.4-20.5"/>
<path fill="none" stroke="#000000" stroke-width="5" stroke-linecap="round" stroke-linejoin="round" stroke-miterlimit="10" d="
	M468.8,638.2c0,0,4.5-24,1.5-26.6c-3.1-2.6-36.7-6.9-45.2-9.5c-8.6-2.6,2.1-11.3,3.5-12.5s0.6-6.9-9.2-7.2
	c-9.8-0.3-23.3-0.8-23.3-0.8"/>
<line fill="none" stroke="#000000" stroke-width="5" stroke-linecap="round" stroke-linejoin="round" stroke-miterlimit="10" x1="404.6" y1="581.6" x2="403.1" y2="624.7"/>
<path fill="none" stroke="#000000" stroke-width="5" stroke-linecap="round" stroke-linejoin="round" stroke-miterlimit="10" d="
	M414.3,582.2c0,0-1.1,36.2-1.4,38.7s-4.2,6.1-4.2,6.1"/>
<path fill="none" stroke="#000000" stroke-width="5" stroke-linecap="round" stroke-linejoin="round" stroke-miterlimit="10" d="
	M396.5,656.1c0,0-1.4,16.6-2.5,31.3s-0.6,23,7.9,24.3s3.6-52.2,4.9-58.2"/>
<path fill="none" stroke="#000000" stroke-width="5" stroke-linecap="round" stroke-linejoin="round" stroke-miterlimit="10" d="
	M546.2,201.7c0,0-1.7,8.8,0.7,15.5"/>
<path fill="none" stroke="#000000" stroke-width="5" stroke-linecap="round" stroke-linejoin="round" stroke-miterlimit="10" d="
	M526.7,220.3c0,0,31.1-0.1,39.2-9.5"/>
<path fill="none" stroke="#000000" stroke-width="5" stroke-linecap="round" stroke-linejoin="round" stroke-miterlimit="10" d="
	M536.2,221.7c0,0,0.8,4.1,2.5,3.7s1.4-4.7,1.4-4.7"/>
<path fill="none" stroke="#000000" stroke-width="5" stroke-linecap="round" stroke-linejoin="round" stroke-miterlimit="10" d="
	M555.4,217.8c0,0,1,7,3.2,6.4s0.6-7.2,0.6-7.2"/>
<path fill="none" stroke="#000000" stroke-width="5" stroke-linecap="round" stroke-linejoin="round" stroke-miterlimit="10" d="
	M544.8,231.9c0,0-10.6,8.9-17.4,15.7c-6.8,6.9-2.9,21.9,5,24.8s26.6,6.3,30-9.3"/>
<path fill="none" stroke="#000000" stroke-width="5" stroke-linecap="round" stroke-linejoin="round" stroke-miterlimit="10" d="
	M557,305.8c0,0-1.3-3.9,4.1-8.8s17.5-13.1,21.3-10.9c3.8,2.1,2.4,20.2,2.4,20.2s-13.6-6.5-27,0.5"/>
<path fill="none" stroke="#000000" stroke-width="6" stroke-linecap="round" stroke-linejoin="round" stroke-miterlimit="10" d="
	M642.7,257.4c0,0,8.7,34.5-27.9,27.2"/>
<path fill="none" stroke="#000000" stroke-width="6" stroke-linecap="round" stroke-linejoin="round" stroke-miterlimit="10" d="
	M533.1,165.5c-0.8,0.5-16.9,5.9-18.3,26.1c-1.4,20.4,4.2,23.6,4.9,39.4s-0.6,45.5,12.3,69.1c12.8,23.6,41.8,42.1,41.8,42.1l2.6,1.9"
	/>
<path fill="none" stroke="#000000" stroke-width="6" stroke-linecap="round" stroke-linejoin="round" stroke-miterlimit="10" d="
	M516.8,168.7c0,0,12.6-8.7,26.3,0.7s23.5,22.7,36.4,41.7c13,19,24.1,28.2,44.8,24.3c20.8-3.9,37.8-24,37.8-24"/>
<path fill="none" stroke="#000000" stroke-width="6" stroke-linecap="round" stroke-linejoin="round" stroke-miterlimit="10" d="
	M616.2,237.8c0,0,0.1,16.1,13.9,18.1c13.8,2,39.4-12,39.4-12"/>
<path fill="none" stroke="#000000" stroke-width="6" stroke-linecap="round" stroke-linejoin="round" stroke-miterlimit="10" d="
	M525.4,284.1c0,0-8.8-11.9-12.6-24c-3.8-12.2-16.1-15.7-16.1-37.6s7.8-24.8,7.9-30.7c0.1-6-9.2-9.3-6.9-24.8
	c2.3-15.5,45.2-49.3,102-40.8c56.9,8.5,86.4,45.3,92.9,89.4s-3.7,86.5-18.3,101.2c27.7-2.3,43.3-27.8,46.3-45.2"/>
<path fill="none" stroke="#000000" stroke-width="6" stroke-linecap="round" stroke-linejoin="round" stroke-miterlimit="10" d="
	M708.3,298c0,0-0.5,52.8-47.9,58.3c-47.5,5.5-46.5-55.7-38.8-70.4"/>
<path fill="none" stroke="#000000" stroke-width="6" stroke-linecap="round" stroke-linejoin="round" stroke-miterlimit="10" d="
	M617.6,326.6c0,0-35.6,10.3-49.1,27.1s-5.2,42-15.9,76c-7.6,21.9-9.6,23.2-9.8,25.1s7.2,16.4,23.8,15.6c16.7-0.8,19.3-1.8,19.3-1.8
	l7-67.1"/>
<path fill="none" stroke="#000000" stroke-width="6" stroke-linecap="round" stroke-linejoin="round" stroke-miterlimit="10" d="
	M573.8,343.4l-31,11c0,0-10.7,27.2,6.7,44c5.4-0.1,7.3,0.9,7.3,0.9"/>
<path fill="none" stroke="#000000" stroke-width="6" stroke-linecap="round" stroke-linejoin="round" stroke-miterlimit="10" d="
	M539.6,360c0,0-24.7,11.1-30.1,10.5s-7-7.1-6.3-20.2s0.2-36.3-3.2-40.9c-3.4-4.6-6-4-6.9-11.6s-0.8-20.9,1.4-24.5
	s3.4-17.8-10.4-17.1c-13.9,0.7-17,14.7-15.5,20.8c1.5,6.1,2.5,12.8,1,14.3s-17.2,3.1-29.8-1.4s-27.9-12.2-35-4.6
	c0,0-1.9,1.5-1.9,3.1"/>
<path fill="none" stroke="#000000" stroke-width="6" stroke-linecap="round" stroke-linejoin="round" stroke-miterlimit="10" d="
	M446,298.5c0,0-5.6,0.9-23.4-5.3c-17.8-6.2-32.6-3.3-28.1,7.3"/>
<path fill="none" stroke="#000000" stroke-width="6" stroke-linecap="round" stroke-linejoin="round" stroke-miterlimit="10" d="
	M444,308.6c0,0-13.5,0.5-25.9-5s-20.8-5.4-22.6,0c-1.8,5.4,1.7,11.9,9.3,13.3"/>
<path fill="none" stroke="#000000" stroke-width="6" stroke-linecap="round" stroke-linejoin="round" stroke-miterlimit="10" d="
	M452.4,321.4c0,0-14.8,1.6-22.6-2.5c-7.8-4.1-18.5-6.3-20.9,0s11.8,14.3,25.5,15s42.4-2.2,46.1,1.5s3.1,13.5,1.1,25
	c-1.9,11.5-9.4,24.3,2.3,35.7c13.4,6.8,60.4-4.2,60.4-4.2"/>
<path fill="none" stroke="#000000" stroke-width="5" stroke-linecap="round" stroke-linejoin="round" stroke-miterlimit="10" d="
	M459.5,313.4c0,0,13.2-10,20.9,1.5"/>
<path fill="none" stroke="#000000" stroke-width="6" stroke-linecap="round" stroke-linejoin="round" stroke-miterlimit="10" d="
	M465.6,385.3c0,0,3.4,8.4,0,14.8"/>
<path fill="none" stroke="#000000" stroke-width="6" stroke-linecap="round" stroke-linejoin="round" stroke-miterlimit="10" d="
	M452.9,383.5c0,0,4.4,11.5,0,16.5"/>
<path fill="none" stroke="#000000" stroke-width="6" stroke-linecap="round" stroke-linejoin="round" stroke-miterlimit="10" d="
	M673.7,355.2c0,0-6.6,28-2.8,42.2s46.9,72,53,83.3"/>
<path fill="none" stroke="#000000" stroke-width="6" stroke-linecap="round" stroke-linejoin="round" stroke-miterlimit="10" d="
	M722.4,479.7c0,0-20.9,2.1-51.4,18.8s-50.4,41.8-50.4,41.8s-8.1-15.4-7.9-41.6c0.2-26.1-4-45.7-24-37.6"/>
<path fill="none" stroke="#000000" stroke-width="6" stroke-linecap="round" stroke-linejoin="round" stroke-miterlimit="10" d="
	M578.6,470.4c0,0-0.5,27.3-5.2,48.4s-12.4,60.4-20,62.8s-19.4-2.4-35.3-4.6c-15.9-2.3-41.6,2-49-3.2s-2.2-12.8,10.2-13.9
	c12.4-1.1,25.8,3.5,25.8,3.5"/>
<path fill="none" stroke="#000000" stroke-width="6" stroke-linecap="round" stroke-linejoin="round" stroke-miterlimit="10" d="
	M464.9,564.8c0,0-11.5-1.8-4.2-10.5s36.5-4.7,44.1-1.5"/>
<path fill="none" stroke="#000000" stroke-width="6" stroke-linecap="round" stroke-linejoin="round" stroke-miterlimit="10" d="
	M479.8,547.5c1-0.2,15.7-7.2,25.8-4.9s36.7,11.9,36.7,11.9"/>
<path fill="none" stroke="#000000" stroke-width="6" stroke-linecap="round" stroke-linejoin="round" stroke-miterlimit="10" d="
	M530.3,562.7c0.8,0,16.1-6.7,16.1-6.7s-0.9-52-0.2-66.9c0.8-14.9,7.6-21.6,7.6-21.6"/>
<line fill="none" stroke="#000000" stroke-width="6" stroke-linecap="round" stroke-linejoin="round" stroke-miterlimit="10" x1="580.2" y1="485.5" x2="612.6" y2="492.3"/>
<path fill="none" stroke="#000000" stroke-width="6" stroke-linecap="round" stroke-linejoin="round" stroke-miterlimit="10" d="
	M581,560.9c0.9,0.1,29.9,7.8,29.9,7.8l-68.8,16.9"/>
<path fill="none" stroke="#000000" stroke-width="5" stroke-linecap="round" stroke-linejoin="round" stroke-miterlimit="10" d="
	M645.6,385.3c0,0,18.8,48.3,31,64.2"/>
<path fill="none" stroke="#000000" stroke-width="6" stroke-linecap="round" stroke-linejoin="round" stroke-miterlimit="10" d="
	M725.2,482.6c0,0,26.6,66.6-8.3,119.5"/>
<path fill="none" stroke="#000000" stroke-width="6" stroke-linecap="round" stroke-linejoin="round" stroke-miterlimit="10" d="
	M734.9,536.1c0,0,22.7,57.6,37.1,87.2c14.4,29.6,17,60.8,16.3,66c-15.6,4.6-106.6,35.1-124.1,53.9c-6,0.7-8.5,0.5-8.3-11.9
	s-10.5-102.1-15.8-127.6s-10.4-69.8-10.4-69.8"/>
<line fill="none" stroke="#000000" stroke-width="6" stroke-linecap="round" stroke-linejoin="round" stroke-miterlimit="10" x1="668.5" y1="739.4" x2="684.8" y2="732.7"/>
<path fill="none" stroke="#000000" stroke-width="6" stroke-linecap="round" stroke-linejoin="round" stroke-miterlimit="10" d="
	M688,729c0,0,12.7,48.8,21.1,68.7c8.5,19.8,17.6,36.2,17.6,36.2"/>
<path fill="none" stroke="#000000" stroke-width="6" stroke-linecap="round" stroke-linejoin="round" stroke-miterlimit="10" d="
	M744.4,821.3c-1.8-3.2-5.3-21.6-6.9-40.6S726,711.3,726,711.3"/>
<path fill="none" stroke="#000000" stroke-width="6" stroke-linecap="round" stroke-linejoin="round" stroke-miterlimit="10" d="
	M731.1,710.4c0,0,13.2,50.4,20.2,63.2s18,39.6,18.5,44"/>
<path fill="none" stroke="#000000" stroke-width="6" stroke-linecap="round" stroke-linejoin="round" stroke-miterlimit="10" d="
	M784.3,813.6c0,0-6.3-37.9-7.1-59.4c-0.8-21.4-8.2-58.6-8.2-58.6"/>
<line fill="none" stroke="#000000" stroke-width="6" stroke-linecap="round" stroke-linejoin="round" stroke-miterlimit="10" x1="771.4" y1="700.7" x2="787.5" y2="689.5"/>
<path fill="none" stroke="#000000" stroke-width="13" stroke-linecap="round" stroke-linejoin="round" stroke-miterlimit="10" stroke-opacity="0" d="
	M237.4,174.1l14.7,14.1c0,0-1.9-11.2-2.6-11.5c-0.6-0.2-14.7-18.7-14.7-18.7l2.6-2.5l16.5,16.1l-0.2-12c0,0-6.6-3.1-6.6-4.1
	s-2.7-20.1-2.7-20.1l10.1,15.3l0.8-7.3l-5-8.6l3-7.4l6,9.6l4.2-6.9l-4.6-11.8l7.9-1.4l3.9,6.4l4.8-4.8l-3.1-16.1l4.9-0.1l5.8,13.8
	l5.7-1l-1.6-9.1l3.6-10.7l4.7,16.6l5-4.1L296,94.4h5.7l4.4,13.1l5.2-1.9l-4.5-13.1l6.5-5.8l5.2,17.3l4.9-0.6l1.4-9.3l6.3-8v15.2
	l5.2-0.3l-0.4-10.9l6.1,0.1l0.9,11.1l5.2,0.1l1.1-13.6l5.1-4v18.4l4.1,0.6c0,0,3-12.7,3.4-13s7.4-2.7,7.4-2.7s-4.7,16.5-4.4,16.6
	c0.3,0.1,5.6,1.3,5.6,1.3l4.4-12.4l5.2-1.2l-3.4,15.7l5,1.7l7.6-15.7l1.1,8l-2.1,7.7c0,0,4.6,6.3,4.7,5.8s5.9-9,5.9-9l6.8-0.9
	l-7.6,13.2l5.3,8l5.6-8.4c0,0,9.3,1.9,8.1,2.3c-1.2,0.4-10.8,11.2-10.8,11.2l0.7,6.8l10.2-5c0,0,5.2,6.4,4.1,7s-11.8,5.2-11.8,5.2
	l-0.2,6.8l9.1-2.9l-3.5,5.9l-8.3,5.5l-1,5l12.4-2.3l-3.3,4.3l-10,3.7c0,0-3.2,7.7-2.5,7.7c0.8,0,7.9-2.7,7.9-2.7l5.6,3.5l-9.4,7.4
	l-6.8,1.5"/>
<path fill="none" stroke="#000000" stroke-width="21" stroke-linecap="round" stroke-linejoin="round" stroke-miterlimit="10" stroke-opacity="0" d="
	M346.9,102.8c-24.1,5.9-82.8,41.6-82.8,41.6v12.3c0,0,99-47.4,100.3-47.9s22.9,4.7,22.9,4.7L237.9,186l-5.2,13.7l156.8-65.6l7,7.3
	l-163.8,74.2l2.6,9.4c0,0,155.1-78.4,156.7-67.1c1.5,11.3,1.5,11.3,1.5,11.3S231,232.4,244.3,237.3s164.3-55.2,164.3-55.2l-7.5,15.3
	L268,252.1l1.2,8.8l149.7-58.3l1.9,10.3l-141.2,57.8l2.1,9.4c0,0,140.1-55.6,136.4-54S374,255.5,374,255.5l-89.1,34l4.9,9.9
	c0,0,81.3-31,81-30.7S359,286,359,286l-56.7,21.4l10.5,4l37.6-15.5l-24,19.2l-9.2,5.3l3.8,2.3"/>
<line fill="none" stroke="#000000" stroke-width="12" stroke-linecap="round" stroke-linejoin="round" stroke-miterlimit="10" stroke-opacity="0" x1="320.1" y1="329.1" x2="318.1" y2="338.8"/>
<path fill="none" stroke="#000000" stroke-width="12" stroke-linecap="round" stroke-linejoin="round" stroke-miterlimit="10" stroke-opacity="0" d="
	M292.1,438.8c0.3,0.2,7.1,7.1,7.1,7.1l7.8-4.3l-9.3-8.1l6.5-4.1c0,0,7.5,8.9,8.3,7.6c0.8-1.2,5.9-5,5.9-5s-9.1-8.1-8.4-9.6
	s4.2-7.1,4.2-7.1l8.1,12.3l6-4.6l-9-12.5l8.1-7.6c0,0,6.5,13.9,7.4,12.5s3.6-5.8,3.6-5.8l-5.5-9.6l7-5.7l6.3,11.4
	c0,0-2.3-17.4-1.9-16.8s17.6,25.2,19,28s6.8,11.6,6.8,11.6l-9.2,2.9l6.7,4l11.2-6L350.6,385l3.5-3.4c0,0,28.8,40.3,29.4,39.8
	s3.6-3.8,3.6-3.8S356.3,378,360.5,378s7.3,0,7.3,0s22.2,32,22.2,31.4c0.1-0.6,0.7-6.4,0.7-6.4s-18.2-25.1-17-25s9.4,0,9.4,0
	l15.6,18.3h2.7l-11.2-19.1h6.1l14.3,20.1l5.7,1.9c0,0-18.8-22.2-12.5-22s6.3,0.2,6.3,0.2s13.2,22.9,15,22.7s3-0.4,3-0.4l-7-19.3
	l6.2,0.6l6.8,13.9l5.7-3.6l-4.1-8.8"/>
<path fill="none" stroke="#000000" stroke-width="12" stroke-linecap="round" stroke-linejoin="round" stroke-miterlimit="10" stroke-opacity="0" d="
	M388.9,433.2c0,0.1-12.4,8.6-12.4,8.6l2.2,6.4l13.4-8.5l2.6,6.2l-13.3,10.8l3.2,7.2l10.9-8.3l3.1,5.5l-14.8,13.3v4.1l13.1-7.9l8.5,3
	c0,0-30.5,14.3-29.6,20.7s0.7,6.4,0.7,6.4s41.3-28.6,44.6-28.5c3.3,0.1,8.2-0.7,8.2-0.7l-49.4,35l4.7,5.6l51.5-40.4l5.7,1L391,515.4
	l7.6-1.9l50.4-39l8.6,1.7l-31.2,23.6l4.6,3.1c0,0,28.2-21.4,29.5-20.8c1.4,0.7,6.7,3.7,6.7,3.7L440.3,505l6.9,2l21.8-14.2l5.5,3.2
	l-14.1,10.8l10.1-1.7l4.3-3.1"/>
<path fill="none" stroke="#000000" stroke-width="20" stroke-linecap="round" stroke-linejoin="round" stroke-miterlimit="10" stroke-opacity="0" d="
	M266.1,285.2c-1,2.2-52.6,83.4-52.6,83.4s-47.5,63.1-46,65.6s4.9,9.5,4.9,9.5s99.1-154.8,101.2-153.4s7.5,5.1,7.5,5.1L175.8,452.5
	l5.2,8.6c0,0,100.3-150.6,104.1-150.8s7.1,2.9,7.1,2.9L190.8,469.1l11.5,5.7c0,0,96.6-150.1,97.1-150c0.5,0,5.8,3,5.8,3
	s-94.8,151.6-94,151.8s9.2,2.9,9.2,2.9s95.4-147.7,96.2-148.6c0.7-0.9,46.2-31.8,45.6-31.3s-46.4,52.3-46.4,52.3
	s-84.3,129.2-82.5,129.3c1.8,0.2,12.2,1.8,12.2,1.8l95.6-143l21-17l6.3,38.4l-6.3,2.9l-11.4-22.7l-4.1,2.5l4,23.3l-4.3,6.7l-10-14
	L335,371l-23.5,31.8l-54.8,84.8l13.8-0.2c0,0,20.9-39.4,21.9-39.6c0.9-0.2,6.7-0.6,6.7-0.6L282.4,485h5.7l13.5-24.2"/>
<path fill="none" stroke="#000000" stroke-width="20" stroke-linecap="round" stroke-linejoin="round" stroke-miterlimit="10" stroke-opacity="0" d="
	M167.5,457.3c-0.1,3.6-31.3,80-31.3,80h9.6l32.3-63.1l9.6,3.3c0,0-20.8,46.9-20.2,47.2c0.6,0.2,17.9,2.7,17.9,2.7
	s12.1-41.1,12.8-40.8c0.8,0.4,8.7,0.6,8.7,0.6l-10.4,38.2l11.6-0.9l9-33.5l15.3,0.8l-11,26.2l20.8-22.3l-2.8,14.9l14.2-12.3
	l-2.2,12.8l23.1-10c0,0-13.9,19.4-1.3,10.7c12.6-8.7,12.6-8.7,12.6-8.7"/>
<path fill="none" stroke="#000000" stroke-width="20" stroke-linecap="round" stroke-linejoin="round" stroke-miterlimit="10" stroke-opacity="0" d="
	M513.4,266.1c-1.2-2.4-3.3-34.1-3.5-34.2c-0.2,0-2.4-10.3-2.4-10.3s-3.3-16.4-1.5-28.4c1.8-12.1,5.5-18.8,5.5-18.8s6.8-8.7,6.2-8.9
	c-0.7-0.2-13.4,1.6-13.4,1.6l2.7-6l55.6-37.7l11.3,0.8l-48.4,32.1l12.6,1l54.6-30.6l11.5-0.3l-56.1,35.2l9.7,5.8
	c0,0,61.3-37,61.4-36.9s11.6,3,11.6,3l-67,41.7l9.7,10.3l64.4-43l9.3,2.4l-69,49.1l4.9,6l75.8-45.7l9.6,5.8l-80,49.5l5.6,7.1
	l77.5-45.5l5.3,4.9l-74.7,46.7l9.3,4.1c0,0,66.4-43.1,68-42.2s4.7,3.4,4.7,3.4s-58.7,43.1-59,44.3s0.6,8.4,0.6,8.4
	s60.4-41.9,61.3-38.5c0.8,3.3,2,8.5,2,8.5l-58.5,36.7l11.5,0.2l52.9-29l0.9,9.7c0,0-43.5,27.5-43.8,28.2c-0.3,0.7-1.3,7.6-1.3,7.6
	l41.2-21.3l-3.1,12l-39.1,18.9l-1,4.8c0,0,40-10.7,40-9.9c0,0.8-0.8,9.9-0.8,9.9l-46.3,12l-14.8,6.2l-1.7,9.9l55.7-16.4l-1.6,5.6
	l-50.1,21c0,0,1.8,6.8,2,7.2c0.1,0.5,48.6-15.9,49.4-15.7c0.8,0.2,19.3-1.9,19.5-2s0,6.4,0,6.4l-66.8,19.5l4.4,5.7l61.7-17.7
	l-8.1,7.3l-47.5,16.2l8.2,3l17.9-3l24.4-12.5c0,0-23.5,7.7-21.7,6.8"/>
<path fill="none" stroke="#000000" stroke-width="27" stroke-linecap="round" stroke-linejoin="round" stroke-miterlimit="10" stroke-opacity="0" d="
	M542.6,169.1c-3,1.4-25.8,12.5-25.8,12.5l-1.6,6.8l33.3-13l11.3,6.2l-42.1,22.6l1.3,10.1l44.5-20.8l8.5,5.8l-51.1,29.5l0.3,12
	l58.6-29.1l7.8,10.2c0,0-61.2,35.1-61.1,36.1s-0.5,12.5-0.5,12.5s64.1-39.8,72.8-36.6s8.7,3.2,8.7,3.2s-83.4,44.6-81,46.2
	c2.3,1.6,5.7,8.4,5.7,8.4l82.7-44l10.3,8.5l-80.8,46.1l4,7c0,0,91.3-46.8,90.5-46.5S625.4,274,625.4,274L558,321.4l8.1,8.1
	l37.1-27.2l7.6,12.8l-27.4,13.2l-8.6,5.5"/>
<path fill="none" stroke="#000000" stroke-width="27" stroke-linecap="round" stroke-linejoin="round" stroke-miterlimit="10" stroke-opacity="0" d="
	M527.2,367.7v15.9l0.8,6.3l-11.4,1.6c0,0,0.4-19.9,0-19.5s-4.7-0.7-4.7-0.7s-13.9,20.3-14.3,20.2s-9.2,0-9.2,0l16.3-20.2
	c0,0-19.1,8.2-19.1,7.7s-0.8-9.1-0.8-9.1l13-6.6c0,0-0.3,2.1,1.3-3.6c1.6-5.6,1.6-6.1,1.6-6.1l-13.5,2.9l1.3-7.6l7.8-2.9l0.1-18.8
	l-14,8.4l-5.3-2.1l23.7-15c0,0-11-19.9-11.5-19.7c-0.5,0.2-32.8,29.5-33.5,29.5s-13.9-1.7-13.9-1.7l44-44.9c0,0,2.3-12.8,0.3-13.8
	c-1.9-0.9-7.8-3-7.8-3l-5.3,12.5l-50.6,49.8l-10.5-5.4l36.9-33.6l-19-0.9l-23.5,22l-4.1-2.6l17.5-19.4
	c-16.3,11.3-16.3,11.3-16.3,11.3l-7.8,0.8"/>
<path fill="none" stroke="#000000" stroke-width="27" stroke-linecap="round" stroke-linejoin="round" stroke-miterlimit="10" stroke-opacity="0" d="
	M550.5,479.7l17.5,2.1l5.4-0.5l-3.6,16.3l-19.4-1.3l2.3,12l13.3,4.5c0,0-2.5,10.8-3.4,10.8s-9.4,0-9.4,0l-0.7,12.3l8.8,0.5
	l-3.1,15.1l-11.9,22.6l-10.8,1c0,0,8.1-20.6,6.5-20.6s-13.5-1.4-13.5-1.4s-1.9,17-4.5,17.1c-2.5,0.1-12.3,2.1-12.3,2.1
	s10.2-17.5,0.8-21.3c-9.4-3.8-9.4-3.8-9.4-3.8l-8.6,24.8l-11.2,0.5l6.2-21.6l-15.6,18.2c0,0,8.8-21.1-0.9-16.7
	c-9.7,4.4-9.7,4.4-9.7,4.4"/>
<path fill="none" stroke="#000000" stroke-width="27" stroke-linecap="round" stroke-linejoin="round" stroke-miterlimit="10" stroke-opacity="0" d="
	M692.9,746.9l1.7-9.7c0,0,73.9-28.1,74.1-26.8s2.8,8.7,2.8,8.7s-67.2,30.5-68.4,33.2s-1.6,13.9-1.6,13.9l72.7-30.2l2.5,13.3
	c0,0-68.2,24.2-67.6,33s1.6,8.5,1.6,8.5s63.6-33.9,64.1-27.9s0.5,6,0.5,6l-61.1,32.9l2.9,6.4l60.9-29.3l6.3,10.8
	c0,0-57.2,24.3-53.2,29.6c4,5.2,4,5.2,4,5.2l44.4-18.8l-5.1,6.4"/>
<path fill="none" stroke="#000000" stroke-width="27" stroke-linecap="round" stroke-linejoin="round" stroke-miterlimit="10" stroke-opacity="0" d="
	M620.6,333.7c-5.8,3.1-75,33-75,33l-0.1,13.1l81.8-31.6h8.7c0,0-89.2,36.2-85.1,47.2s4,11,4,11l96.6-52.8l15.6,4.2l-110.3,69.3
	l-3.1,15.3l113-63.6v12.6l-114.6,64.1l10.2,5.8L661,411l18.9,3.7l-76.1,46.6l5.6,12.2l73.6-41.7l9.4,11.7c0,0-75.3,50.2-74.9,50.7
	s0,10.8,0,10.8l85.7-45.9l7.3,9.2c0,0-13.2,1.4-40.9,15.8s-50.9,42-50.9,42"/>
<path fill="none" stroke="#000000" stroke-width="27" stroke-linecap="round" stroke-linejoin="round" stroke-miterlimit="10" stroke-opacity="0" d="
	M718.4,483.6c-9.1,8.8-88.2,46.1-86.4,52.8s0,12.8,0,12.8l93.9-54.8l6.7,16.7L639,564.2l6.6,15c0,0,81.2-49.7,83.6-47.8
	s5.2,11,5.2,11s-89.2,51.6-88.8,54.5s1.6,18.7,1.6,18.7l97.2-55.8l9.5,17.2c0,0-102.1,56.1-102.4,58.4c-0.3,2.3-2.1,19.2-2.1,19.2
	S760,597,760.6,598.3s3.5,8,3.5,8s-108.5,68-108.6,69.2s1.5,16.8,1.5,16.8l109.5-66.6l7.6,13l-116.8,71.7l-1.8,14.9l121.1-70.8
	l2.8,12.7c0,0-134.2,75.3-120.5,67.3s88.9-43.4,102.7-47.1c13.8-3.7,17.9-4.6,17.9-4.6"/>
<path fill="none" stroke="#000000" stroke-width="27" stroke-linecap="round" stroke-linejoin="round" stroke-miterlimit="10" stroke-opacity="0" d="
	M365.8,521.6c0,0-33.9,8.8-15.1,8.3s22.6-0.7,22.6-0.7L320.6,558l40-10.2l-38.2,23.4l6.3,5.7l26.7-13.1l-2.7,9.9l-11.4,8.6l9.6,6.8
	c0,0,3.7-5.8,3.3-5.5c-0.3,0.3,2.6,6.6,2.6,6.6"/>
<path fill="none" stroke="#000000" stroke-width="13" stroke-linecap="round" stroke-linejoin="round" stroke-miterlimit="10" stroke-opacity="0" d="
	M365.9,595.1c0.8,0.3,2.2,1.1,2.2,1.1"/>
<path fill="none" stroke="#000000" stroke-width="13" stroke-linecap="round" stroke-linejoin="round" stroke-miterlimit="10" stroke-opacity="0" d="
	M381.1,542.9c-1.1,0.8-5.6,6.7-5.6,6.7H387l3,2.8c0,0-15.8,6.1-16.2,6.6s-3.2,5.3-3.2,5.3s18.2-9.8,19.4-5.3
	c1.2,4.5,1.2,4.5,1.2,4.5l-21.7,8.7l7.9,1.9l10.9-2.8l-0.7,5.2c0,0,1.4,4.8,0.5,9.1c-0.9,4.4-8.5,8.9-8.5,8.9s-8.3-8.6-7.9-9
	c0.3-0.5,7-2,7-2"/>
<path fill="none" stroke="#000000" stroke-width="27" stroke-linecap="round" stroke-linejoin="round" stroke-miterlimit="10" stroke-opacity="0" d="
	M319.8,585.4c-0.9,0.2-36.1,9.7-36.1,9.7l0.9,15.7V628l15.2,2.7l1.4-21.4l12.5-6.3c0,0,3,80.9,4.1,77.6c1-3.3,13.4-84.4,13.4-84.4
	l1.5,48.9l7.4,1.9l2.1-34.6l12.1-2.6l16.7-1.1h26.6l1.1-23.2l24.4-0.2l4.1,7.8l-20.9,2.4l-3.1,17.9l22.6-2.8c0,0,34.8-2.8,33.8-2.1
	c-0.9,0.6-3.5,21.3-3.5,21.3s-7.2-11-7.9-11.5c-0.8-0.6-7.5-1.1-7.5-1.1l-3.1,42.8l-7.9,1.9l-3.4-39.5l-6.7-0.3l2.1,26.7l1.4,13
	l-15,2.8l-4.2,33.9"/>
<polyline fill="none" stroke="#000000" stroke-width="27" stroke-linecap="round" stroke-linejoin="round" stroke-miterlimit="10" stroke-opacity="0" points="
	59.4,561.6 376.8,648.8 628,590.9 "/>
<path fill="#9D9D9C" stroke="#9D9D9C" stroke-width="2" stroke-miterlimit="10" d="M282.2,497.4c-1,3.8-2.5,7.7-4.3,9
	c-0.6,0.5-1,1.1-1.2,1.8l-26.7,4.7c5.2-5.2,8.6-10.9,9.7-12.7C267.2,499.9,274.7,499,282.2,497.4z"/>
<path fill="#9D9D9C" stroke="#9D9D9C" stroke-width="2" stroke-miterlimit="10" d="M253.8,500.3c-2.5,3.9-7.5,10.5-13.8,14.4l-5.5,1
	l5.1-16.4C244.4,499.8,249.1,500.2,253.8,500.3z"/>
<path fill="#9D9D9C" stroke="#9D9D9C" stroke-width="2" stroke-miterlimit="10" d="M234.7,498.5l-5.6,17.8c0,0.1-0.1,0.2-0.1,0.4
	l-92.8,16.4c4.9-15.5,23.6-60.3,29.7-74.7c4.4,7.9,10.9,16.3,20.3,21.8C202.4,489.5,218.5,495.6,234.7,498.5z"/>
</svg>
