<?xml version="1.0" encoding="utf-8"?>
<!-- Generator: Adobe Illustrator 24.3.0, SVG Export Plug-In . SVG Version: 6.00 Build 0)  -->
<svg isCommex="true" version="1.1" id="Layer_2_1_" xmlns="http://www.w3.org/2000/svg" xmlns:xlink="http://www.w3.org/1999/xlink" x="0px" y="0px"
	 width="466.8px" height="849px" viewBox="0 0 466.8 849" enable-background="new 0 0 466.8 849" xml:space="preserve">
<g id="vs-secondary">
	<path fill="#9DC1ED" d="M241.9,506.8c-0.8-4.1-2.3-12.3-2.6-21.9c0-11.2,1.9-24.6,2.8-29.8l0.2-1l-1-0.1c-27.5-3-58.1-0.3-63.9,0.3
		l-1,0.1l0.1,1c4.2,62,9.9,145.1,10.7,149.9l0,0.1c0.2,0.8,0.9,3.3-14.8,21.7c-10,11.6-20.1,21.8-27,27.2
		c-10.6,8.3-19.7,13.3-25.6,16.3c-0.6,0.3-1.2,0.6-1.8,0.9l-0.5,0.3v0.6c0,2.2,0.3,5.8,1.2,9.4c1.1,4.5,3.3,10.7,7.6,14.5
		c5.5,5.1,15.6,8.7,23.3,10.4c2.5,0.6,4.3,0.8,5.3,0.8h0.5l0.3-0.3c0.6-0.6,1.4-1.5,2.3-2.6c12.9-15.2,30.6-35.8,35.5-39.4
		c6.2-4.5,31.5-35.1,33.6-39.4l0.1-0.2v-0.1c0-0.1,0.1-0.3,0.1-0.5c0.5-4,0.2-19.8-0.1-35.1l-0.1-4.4c-0.1-3.5-0.1-7.1-0.2-10.7
		c-0.2-9.7-0.3-18.8-0.3-26.5c0-21.4-1.7-36.9-2.2-41.2c-0.3-2.4-0.5-3.8-0.5-3.9c-0.1-0.5,0-1,0.4-1.4c0.3-0.4,0.8-0.7,1.4-0.8
		c0.5-0.1,1,0,1.4,0.4c0.4,0.3,0.7,0.8,0.8,1.3l0.1,0.9h0.1c0,0.1,0,0.1,0,0.2l0.1,0.8h0.8c0.1,0,0.2,0,0.3,0l13,4.2L241.9,506.8z"
		/>
	<path fill="#9DC1ED" d="M243.6,505.3l0.5,2.4l1.3-2c1.8-2.7,5-7.8,9.9-16.4c6.4-11.1,10.3-22.7,12.1-28.6l0.3-0.9l-0.9-0.3
		c-6.9-2.4-13.9-4.2-20.3-5.2l-0.2,0c-0.1,0-0.2,0-0.4,0c-0.2,0-0.4-0.1-0.6-0.1h-0.8l-0.1,0.8c-0.3,1.7-2.8,16.9-2.8,29.8
		C241.6,494,242.9,501.6,243.6,505.3z"/>
	<path fill="#9DC1ED" d="M276.3,621.9c1.1-9.3,23-87.1,24.7-92.9c0.1-0.1,0.2-0.3,0.2-0.5l15.7-44.1l-0.7-0.4
		c-5.4-3.4-24.6-15.2-45.5-23l-1-0.4l-0.3,1c-1.4,4.7-5.4,16.9-12.2,28.8c-6,10.4-9.6,15.8-11.2,18l-0.8,1.1l19,6.2l0.3-0.9
		c0.2-0.6,0.4-1.1,0.6-1.5c0.1-0.3,0.2-0.5,0.2-0.6c0.3-1,1.5-1.5,2.6-1.2c0.5,0.2,0.9,0.5,1.1,0.9c0.2,0.5,0.2,1,0.1,1.5
		c-0.2,0.5-0.9,2.4-1.7,4.7c-8,22.2-31.2,87.7-33.5,96.8c-1.2,4.2-1.8,7.2-2,9.4c-0.4,3.3,0.1,5.1,0.9,7.8l0.1,0.2
		c0.5,1.4,3.9,7.7,9.8,18.1c13.5,23.9,23.8,42.8,25,50.4c1.6,10.6,3.9,12.9,6,13.8c1.3,0.5,4.1,1.6,7.7,2.2c2.2,0.3,4.4,0.5,6.3,0.5
		c4.5,0,8.3-0.9,11.4-2.6c3.5-2,7.1-6.1,10.6-12c2.6-4.4,4.1-8.3,4.7-9.8l0.2-0.5l-0.3-0.4C289.8,654.5,275.6,628.1,276.3,621.9z"/>
</g>
<g id="vs-primary">
	<path fill="#8CD96F" d="M328.1,726.6c-4.3-8.4-11.9-15.6-15.2-18.7l-0.9-0.8l-0.7,1c-3.1,4.7-6.7,8.2-10.3,10.3
		c-3.6,2.1-8.1,3.2-13.3,3.2c-1.5,0-2.8,0-4.2-0.2l-0.6-0.1l-0.3,0.5c-0.3,0.5-0.7,0.8-1,0.9l-0.2,0.1c-0.1,0-8.6,4.8-12.3,10
		c-1.9,2.8-11.8,16.9-22.8,21.7c-1.7,0.7-3.7,1.5-5.6,2.3c-1,0.3-1.8,0.6-2.7,1l-3.5,1.5l3.8,0.4c7.2,0.7,18.3,2.6,30,7.3
		c13.6,5.5,18.4,14.1,20.1,18.7l0.5,1.5l1.3-1.3l0.1-0.2c2.1-4.3,3.8-9.5,5.3-14.4c1.6-4.8,3.1-9.4,4.9-13.2c3.8-8,5.5-9.7,12.9-13
		c6.3-2.8,13.5-10.1,14.8-17.4l0-0.2C328.4,727.2,328.2,726.9,328.1,726.6L328.1,726.6z"/>
	<path fill="#8CD96F" d="M153.1,734.7L153.1,734.7c-2.6-5.8-4.8-14.4-6.2-24.1l-0.1-0.7l-0.6-0.2c-9.2-2.4-17.6-6.4-22.4-10.8
		c-4-3.5-6.4-9-7.7-12.9l-0.4-1.3l-1.1,0.8c-6.5,4.8-19.2,14.6-25.7,20.5l-0.3,0.3l0,0.4c-0.1,1.6-0.7,9.9,2,14.4
		c0.3,0.4,0.5,0.8,0.7,1.2c0.3,0.5,0.5,0.9,0.8,1.3c2.6,4.1,4.7,7.3,3.9,17.9c-0.2,2-0.5,4.2-0.8,6.5l-0.2,1.2
		c-0.7,3.9-1.3,8.4-1.2,12.4l0.1,2.2l1.6-1.5c5.4-5.1,17.2-14,35.7-17.1c14.3-2.3,23.8-1.6,29.3-0.6l6.4,1.2l-5.8-3.1
		C158.3,741.2,155,739,153.1,734.7z"/>
	<path fill="#8CD96F" d="M331.9,413.9l-1.8-2.9l-0.6,0c-8.2,0.6-17.6,1.3-20.3,2c-3.5,0.9-9.7,1.2-13.5,1.4c-0.9,0.1-2,0.2-2.7,0.2
		h-0.5l-0.3,0.4c-4.9,6.4-22.5,26-25.3,27.4c-0.8,0.4-1.6,0.6-2.5,0.6c-2.1,0-4.5-1.1-6.5-3c-2.5-2.4-3.4-5.1-2.5-7.2
		c0.7-1.5,5.5-9,7-11.5l3.5-5.5l-5,4.2c-7.7,6.6-13.5,10.8-16.1,11.8c-3.9,1.6-7.7,0.8-10.2-2.1c-2.2-2.7-2.5-6.5-0.6-9.7
		c1.3-2.2,4.9-6.6,9.9-12.1l4.3-4.7l-6.9,4c-5.7,3.3-10.6,6.2-11.5,6.5c-1.8,0.7-4.5,0.2-6.6-1.3l-0.9-0.6l-0.5,1
		c-1.5,2.6-3.3,4.1-5.6,4.7c-0.6,0.2-1.3,0.3-2,0.3c-3.1,0-7-1.7-11.7-5.3c-3.3-2.5-5.9-6.1-7.9-11.1l-1-2.6l-16.5,51.1l1.5-0.1
		c14.3-1.2,41.8-2.7,65.2,0.1c1,0.2,1.9,0.3,2.7,0.4l0.2,0c6.9,1,14.7,3,23.1,6.1c20.5,7.4,40,19,47.4,23.7l1.2,0.7l15.9-61.5l0,0
		c0.1-0.1,0.1-0.3,0.1-0.5v-0.3l-0.4-0.7C333.1,415.8,332.5,414.5,331.9,413.9z"/>
	<path fill="#8CD96F" d="M211.4,386.2c1.2,3,3.5,6,5.9,9c0.9,1.2,2,2.6,3.2,4.3l0.9,1.3l0.8-1.4c0.6-1.2,1.5-2.5,2.5-4l0.5-0.7
		l-0.4-0.4c-0.1-0.3-0.2-1.2-0.4-2.9l-0.1-0.6l-0.6-0.2c-3-1-6.8-3.4-11.4-7.1l-3-2.4l1.4,3.6c0.1,0.2,0.2,0.5,0.3,0.8
		C211.2,385.6,211.3,385.9,211.4,386.2z"/>
	<path fill="#8CD96F" d="M147.4,429.5c5.7,0,30.5-21.9,44.8-35.8l0.4-0.4l-0.1-0.5c-0.2-1.3-0.3-2.4-0.4-3.4l-0.1-1.1l-0.5-0.2
		c-1.5-0.6-6.9-3-15.7-6.8c-1-0.4-1.9-0.8-2.8-1.2l-1.2-0.5l-0.2,1.3c-0.8,6-1.8,14.4-1.9,15.5c-0.1,1.1-0.9,2-2,2c-1.1,0-2-0.9-2-2
		c0-0.3,0.3-2.8,2-16.2l0.2-1.8l-1.6,0.7c-2.1,0.9-4.7,1.4-7.8,1.4c-0.7,0-1.4,0-2.4-0.1c-3.9-0.2-7-2.1-8.7-5.4
		c-0.2-0.4-0.4-0.8-0.6-1.4l-0.7-2.2l-1.1,2.1c-7.8,14.8-12.4,25.5-13.9,32.4c-1.6,6.9,0.9,12.1,3.2,15.2
		C138,426.4,143.7,429.2,147.4,429.5z"/>
	<path fill="#8CD96F" d="M394.8,407.5L394.8,407.5c-1.2-31.8-7.9-100.9-10.9-112.1c-2.3-9.5-16.6-23.2-18.2-24.7l-0.8-0.8l-0.7,0.9
		c-0.3,0.4-0.6,0.8-0.9,1.2c-0.4,0.5-0.7,1-1.2,1.6l-0.2,0.3v0.4c0,0.4,0,0.5-0.1,0.7c0,0.2-5.3,17.1-17.1,34.7
		c-11,16.2-30.9,32.1-34.9,35.2c-0.3,0.2-0.8,0.4-1.2,0.4c-0.4,0-1-0.1-1.5-0.7l-0.1-0.1c-1.8-2.3-3.1-4.7-3.7-6.5l0-0.1
		c-0.8-1.6-6-6.5-9.4-9.4c-0.4-0.3-0.7-0.8-0.7-1.3c-0.1-0.5,0.1-1.1,0.5-1.5c0.3-0.4,0.8-0.7,1.3-0.7c0.5-0.1,1.1,0.1,1.5,0.5
		c6.1,5.1,10,9.3,10.7,11.3c0.3,1,0.9,2.1,1.3,2.8l0.6,1l0.9-0.7c5-4,22.2-18.3,31.4-32.2c3.9-5.9,7.6-12.4,11.1-19.9l2.3-4.9
		l-3.9,3.8c-4.1,4-8.7,7.8-13.8,11.5c-19.9,14.2-43.7,18.7-48.3,19.4l-0.4,0.1l-0.2,0.3c-0.8,0.9-2.2,2.5-3.7,4.3l-1.2,1.4
		c-0.6,0.6-1.1,1.3-1.7,2c-0.8,0.9-1.6,1.8-2.2,2.5c-1.5,1.7-2.4,2.7-3.4,2.7c-0.2,0-0.5,0-0.9-0.3c-0.8-0.4-1.2-1.3-1.1-2.1l0-0.2
		c0-1.8-0.7-12.9-1.2-14.9l-0.1-0.2c-0.4-0.7-2.1-3.5-3.4-5.6c-1.4-2.1-2.9-4.6-4.1-6.5c-2.4-4.3-7.2-18.5-9.3-31.2l-0.9-5.3
		l-1.1,5.2c-1.8,8.6-2.8,15.6-3,21.5c-0.8,22,0.4,29.1,1.2,31.3l0.4,1.1l1-0.5c1.7-0.9,4.6-3.4,6.9-6c0.3-0.4,0.8-0.6,1.3-0.7
		c0.5,0,1.1,0.1,1.5,0.5c0.8,0.8,0.9,2,0.2,2.8c-3,3.5-7.7,7.6-11.2,7.6c-0.9,0-1.8-0.4-2.5-1.1c-2-2-3.9-7.7-2.8-35.2
		c0.5-15.7,6.2-35.5,7.4-39.3l0.1-0.2l0-0.2c-0.1-1.4-0.1-2.9-0.1-4.3v-1.2l-1.2,0.2c-1,0.2-4.8,1-10.5,3.9
		c-5,2.6-12.2,11.2-12.5,11.6l-26.5,34.5c-0.2,0.2-15.6,23.1-23.4,35.1l-1.9,3l3.2-1.5c1.5-0.7,3.1-1.3,4.9-1.8
		c9.2-2.6,21.1-3.2,31-1.6l0.8,0.1l9.8-23.6c0.4-1,1.6-1.4,2.6-1c0.5,0.2,0.8,0.6,1,1.1c0.2,0.5,0.2,1.1,0,1.5l-9.5,22.9l1,0.3
		c2.2,0.7,3.7,1.3,5,1.9c7.6,3.5,18.4,19.3,23,27.1l0.5,0.8l0.8-0.4c12.3-5.5,23.9-9.1,30.9-9.6c14.8-1.1,31.8,5.4,39,9.8
		c5.3,3.1,15.8,11.4,20.1,14.8l1.2,1l11.2-44.7c0.2-0.9,1.1-1.5,2.1-1.4c1,0.1,1.8,0.9,1.8,1.9l2.7,67c0,0.5-0.1,0.8-0.3,1.1
		l-0.3,0.5l19.6,31c0.6,0.9,0.3,2.1-0.6,2.7l-0.1,0.1c-0.3,0.2-0.5,0.3-1,0.3c-0.5,0-1.2-0.3-1.7-0.9l-28.8-45.6l0.9,5.1
		c0.4,2.3,0.6,4.6,0.4,6.7c-0.6,8.3-6.3,11-9.2,11.3l-0.2,0c-0.5,0.1-1.1,0.1-1.7,0.1c-0.6,0-1.2,0-1.8,0.1l-1.5,0.1l0.7,1.3
		c0.2,0.4,1.5,2.7,3.2,5.8c6.5,11.8,20.6,36.7,23.4,41.7c2.4,4.2,9.2,9.7,15.4,11.1c0.9,0.2,1.8,0.3,2.6,0.3c1.6,0,3-0.4,4.1-1.1
		C390.5,465.6,396,441.1,394.8,407.5z"/>
</g>
<g id="vs-hair">
	<path fill="#808080" d="M423.4,148.4c0.1-0.3,0.3-0.6,0.3-1l0.1-0.4c0.4-1.2,1-2.8,1.7-3.8l0.1-0.3c3.2-5.1,4.3-9.3,3.2-13.1l0,0
		c-0.9-2.9-4.3-7-7.6-10.9l-1.1-1.4c-3.8-4.4-6.2-7.2-6.6-9.4c-0.2-1-0.2-2.3-0.1-4c0.2-5.1,0-9.1-3.9-10.3l-1.7-0.5
		c-18.6-5.7-23-7.8-22.6-11c0.1-0.2,0.1-0.4,0.1-0.6c0-0.1,0-0.2,0.1-0.4c0.9-4.9,1-9.6-4.6-11.2c-7.6-2.1-24-1.5-28.8-1.3l-0.3,0
		c-0.7,0.1-1.2-0.2-1.6-0.7c-0.4-0.5-0.5-1.2-0.3-1.8c0.3-1,0.6-2.3,0.7-3.4l0.1-1l-1-0.1c-1.4-0.2-5-0.3-13,1
		c-10.1,1.7-23.5,8.8-27.4,10.9l-0.1,0.1c-0.6,0.3-1.3,0.3-1.9,0c-0.6-0.3-1-1-1.1-1.7l0-0.2c-0.2-0.8-0.6-2.8-2-3.3
		c-1.9-0.6-2.5-0.3-9.2,7c-6.2,6.8-18.3,26.6-19.4,28.4c-0.3,0.4-0.8,0.9-1.4,1l-0.1,0c-0.2,0-4.3,1.1-9,7.7
		c-3.4,4.9-2.9,15.6-2.3,23.2l0,0.5c0.2,2.6,0.2,3.8,0.1,4.6c-0.3,1.4-1.2,2.4-2.3,3.6l-0.3,0.4c-1.4,1.6-3.1,3.6-4.8,7.1
		c-2.1,4.6,1.5,21.8,3.5,29.4l0.1,0.2c0.1,0.1,0.1,0.4,0,0.6l-0.2,1l1.2,0.3c0.8,0.2,1.6,0.4,2.2,0.7l1.1,0.5l0.3-1.2
		c2.1-7.6,3.8-13.2,3.9-13.6c0.1-0.1,0.1-0.2,0.1-0.4l0.2-0.2l0-0.4c-0.4-8.5-0.7-24.4,2.2-34.3c4.4-15.3,17.9-51.4,46.4-55.7
		c28.1-4.2,61.8,5.5,75.6,17.3c14.1,12,19.9,36.8,18.3,53.9c-1.5,16-6.4,31.8-13,42.3c-6.8,10.7-7.9,15.7-7.9,17.7
		c0,1.3,0.3,2.7,0.8,3.8l0.4,1l0.9-0.5c2.6-1.3,5.4-2,8.2-2h0.6l0.3-0.5c0.5-0.9,1.4-1.6,2.7-2.7c2.1-1.6,5.5-4.3,9.5-9.7
		c5.4-7.3,4.6-17.1,4.4-19c-0.1-0.8,0.3-1.6,0.9-2l0,0c1.9-1.1,7.9-6.2,9.1-12.4c1.1-5.8-2.3-12.5-3.4-14.7
		C423.2,150.3,422.8,149.4,423.4,148.4z"/>
</g>
<g id="vs-skin">
	<path fill="#D3A37F" d="M341.1,380.9c-0.2-0.4-0.3-0.8-0.3-1.5l-0.1-0.9l-0.3-0.3c-4.4-3.5-15.2-12-20.3-15.1
		c-6.7-4.1-22.6-10.2-36.6-9.1c-8.3,0.6-22.1,5.9-32.3,10.6c-5.1,2.3-9.1,4.4-12.2,6.2c-2.9,1.7-5.3,3.4-6.7,4.6
		c-1,0.9-1.7,2-2.1,2.8c-1.9,3.6-2.1,7.9-2,10.2l0.1,2.2l1.6-1.5c2.2-2.1,4.7-4,7.4-5.7c8.8-5.3,37.5-16.5,39.1-16.8
		c0.5-0.1,1,0,1.4,0.4c0.4,0.3,0.7,0.8,0.8,1.3c0.1,1-0.5,1.9-1.5,2.2c-2.2,0.7-29.2,11.1-37.6,16.3c-3.7,2.3-7.1,5.3-9.9,8.7
		c-2.6,3.2-4.4,6.4-5.2,9.1c-0.1,0.5-0.1,0.9-0.1,1.3l0,0.2c0.1,0.7,0.4,1.4,0.9,2c1.1,1.2,2.6,1.6,3.3,1.6h0.2l0.2-0.1
		c2.4-1.1,24-13.9,39.8-23.3l3.1-1.8c1-0.5,2.2-0.3,2.8,0.7c0.6,0.9,0.4,2.1-0.5,2.7l-0.4,0.3v0c-1.3,1-6.2,4.4-11.5,8
		c-5.9,4.1-21.1,20.7-24.1,25.9c-0.9,1.8-0.8,3.6,0.3,5.1c1.3,1.5,3.3,1.9,5.7,1c6.1-2.4,30.6-25,31.6-26c0.8-0.7,1.9-0.7,2.7-0.1
		c0.8,0.7,1,1.8,0.4,2.7c-6.7,10.2-17.3,26.6-18.9,29.5l-0.2,0.3l0.1,0.3c0.2,0.9,1.3,2.2,2.6,3.1c0.3,0.2,1.6,1,2.6,1
		c0.2,0,0.5,0,0.7-0.1c3.3-1.9,22.6-24.7,24.4-26.8l0.1-0.2c0.4-1,1.3-1.1,5.8-1.3c3.8-0.2,9.6-0.5,12.6-1.2c3.3-0.8,14-1.7,23-2.3
		c4-0.3,7.3-0.5,8.2-0.5l0.1,0c0.9-0.1,5.2-1,5.7-7.6C346.2,391.4,341.9,382.4,341.1,380.9L341.1,380.9z"/>
	<path fill="#D3A37F" d="M203.8,372.6c0.8-0.5,1.8-0.4,2.5,0.3c3.7,3.5,11.3,10.3,16.8,13.1l1.3,0.7l0.2-1.4
		c0.2-1.7,0.5-3.7,1.1-5.7l0.2-0.6l-14.7-15.4c-0.4-0.4-0.6-0.9-0.5-1.4c0-0.5,0.2-1,0.6-1.3c0.4-0.4,0.9-0.6,1.4-0.5
		c0.5,0,1,0.2,1.4,0.6l13.7,14.4l0.7-0.9c0.4-0.5,0.8-1,1.2-1.4c1.2-1.1,3.2-2.6,6.2-4.5l1.1-0.7l-0.9-0.9
		c-1.8-1.8-6.6-6.6-19.1-19.3c-0.4-0.3-0.6-0.8-0.6-1.3c0-0.5,0.2-1.1,0.6-1.5c0.3-0.4,0.8-0.6,1.3-0.6c0.6,0,1.1,0.2,1.5,0.6
		c7.1,7.3,17.7,17.9,19.8,20c0.1,0.1,0.1,0.1,0.2,0.2l0.4,0.8l0.9-0.5c1.9-1,3.8-2,5.9-3l1-0.5l-0.6-0.9
		c-3.3-5.5-14.2-21.9-20.8-25.2c-1.7-0.9-3.9-1.6-6.3-2.1l-0.3-0.1l-0.3,0.2c0,0-0.1,0-0.1,0c-0.4,0-0.7,0-0.8-0.1l-0.1-0.1
		c-0.1,0-0.1-0.1-0.2-0.1c-0.1,0-0.2-0.1-0.2-0.1l-0.3-0.1c-7.5-1.4-19.4-1.9-30.3,1.2c-3.9,1.1-8.5,3.4-14.1,7
		c-10.2,6.7-19.5,15.6-21.7,19.1c-0.6,1-1.1,2.2-1.4,3.4c-0.9,3.5-0.7,6.9,0.5,9.1c1.1,2.1,2.8,3.1,5.3,3.2c2.9,0.2,5.2,0,6.9-0.5
		l1.7-0.6l-1.4-1.1c-2-1.7-3-3-3.4-3.6c-0.3-0.4-0.4-0.9-0.3-1.4c0.1-0.5,0.4-1,0.9-1.3c0.4-0.3,0.9-0.4,1.4-0.3
		c0.5,0.1,1,0.4,1.3,0.9l0.1,0.2c1,1.2,2.3,2.5,3.9,3.7c2.4,1.9,5.7,3.6,9.7,5.3c8.6,3.5,14.4,6,16.6,7c0.6,0.3,0.9,0.4,1.1,0.5
		c0.7,0.3,1.2,1.1,1.2,1.8c0,0,0.1,3.2,1,7.4c1.6,6.9,4.4,11.9,8.3,14.9c4,3,7.1,4.5,9.2,4.5c0.4,0,0.7,0,1.1-0.1
		c1.5-0.3,2.8-1.7,4-4.3c0.3-0.6,0.4-1.4,0.3-2.1c-0.3-2.7-2.8-5.9-5.5-9.3l-0.8-1.1c-2.2-2.8-4.4-5.8-5.6-9
		c-2.4-6.2-3.9-10.2-4.5-11.9c-0.2-0.6-0.4-1-0.4-1c0,0,0,0,0,0C202.7,374,203,373,203.8,372.6z"/>
	<path fill="#D3A37F" d="M254.8,233.7l0.2-4c0.4-7.5,1.1-13.4,1.9-17.5c1.2-6.1,3.7-15.7,5.6-22.4l0.2-0.7l-0.6-0.4
		c-1.1-0.7-3.2-1.3-5.8-0.7c-2.2,0.4-7.5,2.4-9.1,11.3c-2.3,11.6,4,26.5,6,30.8L254.8,233.7z"/>
	<path fill="#D3A37F" d="M410.9,222.2L410.9,222.2c-2-2.8-5.2-4.6-9-5.3c-0.7-0.1-1.3-0.1-2-0.1c-3.6,0-6.3,1.4-8.1,2.6
		c-2.9,2.1-4.6,4.6-4.6,4.6c-0.7,1-1.9,1.2-2.8,0.6c-0.9-0.6-1.2-1.8-0.5-2.8c0.2-0.3,1.2-2,3.1-3.6l0.6-0.5l-0.3-0.7
		c-1.1-2.1-1.6-4.3-1.6-6.5c0-4.4,2.8-11.1,8.4-19.9c4.9-7.6,10.7-22.3,12.5-40.4c1.5-16.3-3.9-39.5-16.8-50.6
		c-12.8-11-45.7-20.5-72.4-16.4c-11.4,1.7-21.5,9.3-29.9,22.6c-7.2,11.2-11.3,23.8-13.2,30.2c-2.5,8.6-2.4,22.5-2.1,30l0.1,2.4
		l1.6-1.8c1.1-1.2,2.4-2.3,3.8-3.3c5.5-3.7,11.9-5.2,16.8-3.9c4.9,1.3,12.4,4,21.1,7.7l0.4,0.2c0.5,0.2,0.9,0.6,1.1,1
		c0.2,0.5,0.2,1-0.1,1.6c-0.2,0.5-0.6,0.9-1,1.1c-0.5,0.2-1,0.2-1.5,0c-0.1,0-13.1-5.6-21-7.7c-3.1-0.9-8.5-0.2-13.6,3.3
		c-3,2.1-5.4,4.8-7.2,7.9c-1.9,3.3-3.1,7.1-3.5,11.3c-2.3,18.5,7.3,33.8,22.6,36.3c15,2.5,30.2-5.3,34.7-17.8
		c0.2-0.5,0.5-0.9,0.9-1.1c0.5-0.2,1-0.3,1.6,0c0.5,0.2,0.9,0.5,1.1,0.9c0.2,0.5,0.3,1,0,1.6c-4.4,12.3-18,20.8-33,20.8
		c-1.8,0-3.7-0.2-6-0.5c-12.9-2.1-22.7-12.1-25.5-26.2l-0.8-4.2l-1.1,4.2c-1.3,5-2.4,9.6-3.1,13.1c-1.2,6.3-2,16.1-2.1,26.9
		c-0.1,3.1-0.1,6.2,0,9.1l0,0.2l0.1,0.2c0.3,0.5,0.4,1.1,0.2,1.6c0,0-0.1,0.3-0.2,0.8l0,0.1l0,0.1c0.1,4.6,0.4,9,0.8,12.8
		c1.5,12.8,7.1,29.9,9.4,34c1,1.6,2.2,3.6,3.4,5.5l1.3,2.1c1.7,2.6,2.7,4.4,3.1,5.3c0.3,0.7,0.8,3.9,1.2,9.4l0.2,2.4l1.6-1.8
		c1.9-2.2,4.2-4.9,6.3-7.4c0.4-0.4,0.9-0.7,1.3-0.7l0,0c2.1-0.3,27.5-4.4,47.6-18.9c9-6.4,16.8-13.9,23.3-22.3
		c2.6-3.3,4.8-6.6,6.6-9.7c0,0,0-0.1,0-0.1c0.2-0.2,0.4-0.5,0.4-0.8c0-0.5,0.1-0.8,0.3-1.1c0.2-0.4,0.7-0.8,1.2-0.9
		c0.5-0.1,1.1-0.1,1.5,0.2c2.7,1.6,13.8,6.9,19.9,4.3c7.3-3.2,20.8-16.8,24.5-29.1C413.9,230.1,413.4,225.7,410.9,222.2z
		 M350.3,118.9h-0.2c-0.5,0-0.9-0.3-1-0.8c-1-5-2.6-8.8-2.7-9c-0.1-0.2-0.1-0.5,0-0.8c0.1-0.3,0.3-0.4,0.5-0.5
		c0.1,0,0.2-0.1,0.3-0.1c0.4,0,0.8,0.2,1,0.7c0,0,1.6,3.9,2.7,9.4c0,0.2,0,0.5-0.2,0.7C350.8,118.6,350.6,118.8,350.3,118.9z
		 M293.1,267.6c0,0.1,0.1,0.3,0.1,0.7c0.2,5.1-0.6,8.3-2.2,9.3c-0.4,0.2-0.9,0.4-1.3,0.4c-0.5,0-1.1-0.2-1.6-0.6
		c-2.1-1.8-0.8-8.7,0.1-10.4c0.8-1.7,1.9-2,2.6-2c0.1,0,0.3,0,0.3,0c1.1,0.2,1.8,1,1.8,2v0.3L293.1,267.6z M289.2,293.9
		c-6-0.5-8.6-6.3-8.6-7.2c0-0.6,0.4-1,1-1c0.5,0,0.8,0.3,0.9,0.7l0.1,0.3c1.5,3,3.9,4.9,6.7,5.1c2.1,0.2,4.4-0.8,6.6-2.9
		c0,0,2.1-1.9,2.7-3.1l0,0c0.3-0.4,1-0.5,1.4-0.3c0.5,0.4,0.6,1,0.3,1.5l0,0c0,0.1-4.7,6.9-10.5,6.9L289.2,293.9z M313.6,143.9
		L313.6,143.9c-0.2,0.3-0.2,0.6-0.2,0.7c0,0.3,0,0.3-0.1,0.5c-0.4,1.4-2.2,3.8-4,4.2c-0.1,0-0.3,0-0.5,0c-0.6,0-1.1-0.2-1.4-0.6
		c-1.1-1.1-0.5-3.4,0.7-5c0.9-1.1,2-1.7,3.2-1.7c0.6,0,1.2,0.1,1.7,0.4C313.7,142.7,313.9,143.3,313.6,143.9z M335.4,150.8
		c0.2,0.3,0.2,0.6,0.2,0.7c-0.7,3.9-1.8,4.9-2.4,5.2c-0.3,0.1-0.5,0.2-0.8,0.2c-0.3,0-0.6-0.1-0.9-0.2c-0.5-0.3-1.2-0.9-1-2.6
		c0.2-1.6,1.7-4.9,3.1-5.3c0.1,0,0.2,0,0.2,0c0.4,0,0.8,0.2,1,0.7c0.1,0.2,0.2,0.4,0.1,0.5l-0.1,0.5L335.4,150.8z M317.4,111.1
		c0.2-0.7,1.5-3.4,12.1-8.6c0.2-0.1,0.5-0.1,0.8-0.1c0.3,0.1,0.5,0.3,0.6,0.5c0.3,0.5,0.1,1.1-0.5,1.4c-4.5,2.3-9.8,5.5-10.9,7
		l-0.1,0.2l0,0.2c-0.1,0.4-0.4,0.7-0.8,0.7c-0.1,0-0.2-0.1-0.3-0.1C317.6,112.1,317.3,111.6,317.4,111.1z M400.4,234.5
		c-5.3,1.7-17.8,6.9-19.5,17.2c-0.1,0.4-0.6,0.8-1,0.8h-0.2c-0.5-0.1-0.8-0.6-0.7-1.1c0.5-3,3.6-13.1,20.9-18.8
		c0.3-0.1,0.6,0,0.8,0.1c0.1,0.1,0.3,0.2,0.4,0.5C401.2,233.6,401,234.2,400.4,234.5z"/>
</g>
<path fill="none" stroke="#000000" stroke-width="4" stroke-linecap="round" stroke-linejoin="round" stroke-miterlimit="10" d="
	M329.9,103.4c0,0-11,5.5-11.5,7.9"/>
<path fill="none" stroke="#000000" stroke-width="4" stroke-linecap="round" stroke-linejoin="round" stroke-miterlimit="10" d="
	M347.3,108.7c0,0,1.7,4,2.7,9.2"/>
<path fill="none" stroke="#000000" stroke-width="4" stroke-linecap="round" stroke-linejoin="round" stroke-miterlimit="10" d="
	M312.7,143.4c-3.4-1.7-5.4,3.7-4.4,4.8s3.6-1.7,4-3.2"/>
<path fill="none" stroke="#000000" stroke-width="4" stroke-linecap="round" stroke-linejoin="round" stroke-miterlimit="10" d="
	M334.2,149.9c-0.6-1-3.8,5-2.2,5.9s2.6-4.5,2.6-4.5"/>
<path fill="none" stroke="#000000" stroke-width="6" stroke-linecap="round" stroke-linejoin="round" stroke-miterlimit="10" d="
	M315.3,169.5c0,0-13-5.6-21.2-7.7c-8.2-2.1-24.4,4.3-26.8,24.2c-2.4,19.8,8,35.8,24.3,38.5s32.2-6.1,36.9-19.1"/>
<path fill="none" stroke="#000000" stroke-width="6" stroke-linecap="round" stroke-linejoin="round" stroke-miterlimit="10" d="
	M270.6,173.7c0,0-2-24.8,1.8-38s16.7-50,44.8-54.2c28.1-4.3,61.1,5.8,74,16.9s19.2,34.4,17.5,52.3s-7.3,32.9-12.8,41.4
	s-8.2,14.9-8.2,18.8c0,4,2.2,7,2.2,7"/>
<path fill="none" stroke="#000000" stroke-width="6" stroke-linecap="round" stroke-linejoin="round" stroke-miterlimit="10" d="
	M385.6,223.1c0,0,5.2-8.2,14.4-8.2s18.3,7.9,14.4,20.7c-3.8,12.8-17.6,26.9-25.5,30.4s-21.7-4.3-21.7-4.3"/>
<path fill="none" stroke="#000000" stroke-width="6" stroke-linecap="round" stroke-linejoin="round" stroke-miterlimit="10" d="
	M270,170.8c0,0-8.7,28.8-11.2,41.9s-2.7,39.5-1.2,52.4c1.5,12.9,7.1,30.3,9.7,34.7c2.6,4.4,7,10.9,7.7,12.6s1.5,15.3,1.4,16
	c-0.2,0.7,11.4-12.9,11.4-12.9s26.9-3.7,48.5-19.2s30.6-33,30.6-33"/>
<path fill="none" stroke="#000000" stroke-width="6" stroke-linecap="round" stroke-linejoin="round" stroke-miterlimit="10" d="
	M290.9,266.9c-1.7-0.3-2.6,10-1,8.9s1.3-7.6,1.3-7.6"/>
<path fill="none" stroke="#000000" stroke-width="4" stroke-linecap="round" stroke-linejoin="round" stroke-miterlimit="10" d="
	M281.6,286.6c0,0.3,2.1,5.7,7.7,6.2c5.6,0.4,10.2-6.4,10.2-6.4"/>
<path fill="none" stroke="#000000" stroke-width="4" stroke-linecap="round" stroke-linejoin="round" stroke-miterlimit="10" d="
	M400,233.5c-8.2,2.7-18.6,8.5-20.3,18"/>
<path fill="none" stroke="#000000" stroke-width="6" stroke-linecap="round" stroke-linejoin="round" stroke-miterlimit="10" d="
	M264.2,188.1c-2.8-4-16.2-4.5-19.1,10.9s7.8,37.1,11.5,41"/>
<path fill="none" stroke="#000000" stroke-width="6" stroke-linecap="round" stroke-linejoin="round" stroke-miterlimit="10" d="
	M257.4,182.4c0,0-6.5-24-3.4-30.8s6.6-8.4,7.1-10.7s-3.1-21.2,2.4-29s10.3-8.6,10.3-8.6s13-21.4,19.7-28.7s8-8.6,11.2-7.5
	s3.4,5.2,3.4,5.2s16.3-9.2,28.2-11.2s15.4-1,16.1,0.1s-0.8,5.9-0.8,5.9s20.6-1,29.6,1.4s6.3,11.9,5.9,14.3s15.6,7.1,23,9.4
	s4.7,12,5.4,15.8s13.3,14.6,15.2,21.3c1.9,6.8-2.7,13.5-3.6,14.9s-1.9,4.7-2.2,5.1s5.6,9.3,4.2,17.4c-1.4,8-9.8,13.8-9.8,13.8
	s1.8,11.7-4.7,20.6c-6.5,8.8-11.9,10.9-12.1,12.4"/>
<path fill="none" stroke="#000000" stroke-width="6" stroke-linecap="round" stroke-linejoin="round" stroke-miterlimit="10" d="
	M257,250.5c0,0-7.1,23.1-7.8,40.5s-0.5,34.2,3.2,34.2c3.7,0,9.7-7,9.7-7"/>
<path fill="none" stroke="#000000" stroke-width="6" stroke-linecap="round" stroke-linejoin="round" stroke-miterlimit="10" d="
	M295.5,326.9c0,0,9.2,7.7,10,10.4s3.4,6,3.4,6s22.8-17.4,34.4-34.7s16.9-34.2,16.9-34.2"/>
<path fill="none" stroke="#000000" stroke-width="6" stroke-linecap="round" stroke-linejoin="round" stroke-miterlimit="10" d="
	M172.5,339.9c4.3-7.7,30.3-46,30.3-46l24.2-31.5c0,0,7.3-10.5,14.9-14.4c7.7-4,12.5-4.3,12.5-4.3"/>
<path fill="none" stroke="#000000" stroke-width="6" stroke-linecap="round" stroke-linejoin="round" stroke-miterlimit="10" d="
	M161.7,369.6c0,0,3.4,5.3,14.6,9.9s17.5,7.5,17.5,7.5s0.3,16.5,10,23.8s14.4,5.8,17.4-0.8s-8.4-14.6-11.7-23s-4.9-12.8-4.9-12.8
	s13,12.6,20.6,14.7"/>
<path fill="none" stroke="#000000" stroke-width="6" stroke-linecap="round" stroke-linejoin="round" stroke-miterlimit="10" d="
	M167,375.6c0,0-1,3.6-11,2.9s-9.4-13.1-6-18.8s23.2-23.2,37-27.1s31.4-2.8,40.3,1.4c8.9,4.2,22.6,27.1,22.7,27.4"/>
<path fill="none" stroke="#000000" stroke-width="6" stroke-linecap="round" stroke-linejoin="round" stroke-miterlimit="10" d="
	M218.4,346.1c0,0,19.5,19.8,20,20.2"/>
<line fill="none" stroke="#000000" stroke-width="6" stroke-linecap="round" stroke-linejoin="round" stroke-miterlimit="10" x1="212.5" y1="362" x2="227.2" y2="377.5"/>
<path fill="none" stroke="#000000" stroke-width="6" stroke-linecap="round" stroke-linejoin="round" stroke-miterlimit="10" d="
	M169.7,378.2c0,0-2.3,17.4-2.3,18.1"/>
<path fill="none" stroke="#000000" stroke-width="6" stroke-linecap="round" stroke-linejoin="round" stroke-miterlimit="10" d="
	M148,363.6c0,0-15.7,26.8-19,41.9s10,25.3,18.1,26c8.2,0.8,46.7-36.5,46.7-36.5"/>
<line fill="none" stroke="#000000" stroke-width="6" stroke-linecap="round" stroke-linejoin="round" stroke-miterlimit="10" x1="230" y1="306.5" x2="219.4" y2="331.9"/>
<path fill="none" stroke="#000000" stroke-width="6" stroke-linecap="round" stroke-linejoin="round" stroke-miterlimit="10" d="
	M366.2,268.2c0,0,17.2,15.5,19.9,26.7c2.7,11.2,9.5,80.9,10.7,112.5s-3.7,58.9-11.2,64.2c-7.5,5.3-21.1-4.3-24.9-10.9
	c-3.7-6.6-26.7-47.5-26.7-47.5l-2.5-4.1"/>
<line fill="none" stroke="#000000" stroke-width="6" stroke-linecap="round" stroke-linejoin="round" stroke-miterlimit="10" x1="346.6" y1="381.2" x2="378.7" y2="432.1"/>
<polyline fill="none" stroke="#000000" stroke-width="6" stroke-linecap="round" stroke-linejoin="round" stroke-miterlimit="10" points="
	345.8,375.3 356.7,331.5 359.4,398.5 "/>
<path fill="none" stroke="#000000" stroke-width="6" stroke-linecap="round" stroke-linejoin="round" stroke-miterlimit="10" d="
	M342.8,380c0,0,5.4,10.3,4.7,19.1c-0.6,8.8-7.5,9.4-7.5,9.4s-25.9,1.4-31,2.7s-17.1,1.3-17.2,1.7s-22,26-25.4,27.8s-10-3.9-8.7-7
	c1.4-3.1,19.1-30,19.1-30s-25.4,23.7-32.3,26.4s-11.6-3.7-8.4-9c3.1-5.3,18.7-22.3,24.7-26.4s11.9-8.3,11.9-8.3
	s-40.8,24.3-43.3,25.4c-2.6,1-8.7-2.2-7.1-7.7c1.6-5.4,7.2-13.4,16-18.8s37.6-16.4,38.2-16.5"/>
<path fill="none" stroke="#000000" stroke-width="6" stroke-linecap="round" stroke-linejoin="round" stroke-miterlimit="10" d="
	M226.8,394.2c0,0-2.8-13.3,4.2-20s38.2-21,52.5-22s30.7,5.2,37.8,9.4c7.1,4.3,24.3,18.3,24.3,18.3"/>
<path fill="none" stroke="#000000" stroke-width="6" stroke-linecap="round" stroke-linejoin="round" stroke-miterlimit="10" d="
	M336.5,419.7l-16.6,64.2c0,0-40.7-27.2-73.1-31.7s-72.3,0-72.3,0l17.6-54.5"/>
<path fill="none" stroke="#000000" stroke-width="6" stroke-linecap="round" stroke-linejoin="round" stroke-miterlimit="10" d="
	M174.5,452.3c0,0,10.1,150.4,10.9,153.3c0.9,2.9-25.5,34.7-41,46.8s-27.6,16.9-28.4,17.9c-0.9,1,0,18.9,9.2,27.2
	s30.1,13.1,31.7,11.4s31.7-37.8,38-42.4c6.3-4.6,33.2-36.9,34.4-40.5s-0.5-51.1-0.5-78.1s-2.7-45.3-2.7-45.3"/>
<line fill="none" stroke="#000000" stroke-width="6" stroke-linecap="round" stroke-linejoin="round" stroke-miterlimit="10" x1="228.8" y1="506.1" x2="264.2" y2="517.7"/>
<path fill="none" stroke="#000000" stroke-width="6" stroke-linecap="round" stroke-linejoin="round" stroke-miterlimit="10" d="
	M267.3,513.3c0,0-32.3,90.6-35.2,101.6s-2.6,13.1-1,18.4s32.9,56,34.7,68.3c1.9,12.3,4.9,14.3,7.1,15.3s16.7,6,27.2,0
	s16.7-24.2,16.7-24.2s-39.5-61.3-38.5-70.6s24.7-92.8,24.7-92.8l16.2-45.4"/>
<path fill="none" stroke="#000000" stroke-width="4" stroke-linecap="round" stroke-linejoin="round" stroke-miterlimit="10" d="
	M243.6,453c0,0-3.1,17.5-3.1,31.7s3.1,25.1,3.1,25.1s3.8-4.6,12.6-20c8.8-15.4,12.9-31.4,12.9-31.4"/>
<path fill="none" stroke="#000000" stroke-width="6" stroke-linecap="round" stroke-linejoin="round" stroke-miterlimit="10" d="
	M115.9,682c0,0-26.7,19.9-31.8,25.9s-5.6,15.5-1.7,19.7c3.9,4.3,2,15.1-0.9,27.4c-2.9,12.3,2.2,25,23.7,32.3
	c21.4,7.3,43.6,7.5,56.2-3.2s17-25.4,13.4-34s-15.5-6.3-19.9-16.2s-6.1-24.2-6.1-24.2"/>
<path fill="none" stroke="#000000" stroke-width="4" stroke-linecap="round" stroke-linejoin="round" stroke-miterlimit="10" d="
	M87.7,704.8c0,0-1.5,11.1,1.9,16.9c3.4,5.8,6.1,7.7,5.3,19.7c-0.9,12.1-7.3,30,7.5,35.2c14.8,5.3,34.7,8.7,47.8,1.4
	s19.4-22.3,19.4-32.5"/>
<path fill="none" stroke="#000000" stroke-width="4" stroke-linecap="round" stroke-linejoin="round" stroke-miterlimit="10" d="
	M93.5,765.7c0,0,12.8-15.3,37.8-19.6s35.7,1.4,35.7,1.4"/>
<path fill="none" stroke="#000000" stroke-width="6" stroke-linecap="round" stroke-linejoin="round" stroke-miterlimit="10" d="
	M281,721c-0.3,0-9.5,5.1-13.4,10.8s-12.8,16.9-22,21s-25.4,8.5-30.7,19.7s-4.4,23.1,10.6,27.7c15,4.6,44.9,9.4,64.2,2
	s16.9-25.9,22.6-36.4c5.8-10.6,14.6-16.3,17.9-19.6c3.2-3.2,5.6-9.2-0.2-20.6c-5.8-11.4-17.5-20.6-17.5-20.6"/>
<path fill="none" stroke="#000000" stroke-width="4" stroke-linecap="round" stroke-linejoin="round" stroke-miterlimit="10" d="
	M235.4,757.2c0,0-15.7,11.7-15.1,19.1c0.5,7.3,17,18.4,32.9,19.4s34.2-1.2,38.3-9.4c4.1-8.2,6.5-19.7,10.2-27.6
	c3.7-7.8,5.3-9.4,12.4-12.6c7.1-3.2,14.5-11.2,15.5-18.9"/>
<path fill="none" stroke="#000000" stroke-width="4" stroke-linecap="round" stroke-linejoin="round" stroke-miterlimit="10" d="
	M233.9,760.6c0,0,16.3,0.2,34.2,7.5s20.1,19.9,20.1,19.9"/>
<path fill="none" stroke="#000000" stroke-width="4" stroke-linecap="round" stroke-linejoin="round" stroke-miterlimit="10" d="
	M304.7,787.9c0,0,7.9-9.4,14.6-14.6c6.6-5.2,12.9-9,12.9-9l-7.1,3.1l-1.6-2.4l-2.6,4.2c0,0,1.9-3.1,1-2.1c-0.9,0.9-1.9,3.1-4.3,4.8
	s-6,4.3-6,4.3l0.5-6.6c0,0,4.8-1.2,6.6-1.2"/>
<line fill="none" stroke="#000000" stroke-width="4" stroke-linecap="round" stroke-linejoin="round" stroke-miterlimit="10" x1="317.6" y1="769.3" x2="313.1" y2="772.4"/>
<path fill="none" stroke="#000000" stroke-width="18" stroke-linecap="round" stroke-linejoin="round" stroke-miterlimit="10" stroke-opacity="0" d="
	M259.3,178.5c-0.2-0.8-0.9-30.7-0.9-30.7s3.7-25,14.4-42.3S290,75,315.3,72s41.1,0,41.1,0s23.4,5.7,34.5,12.6
	c11.2,6.9,25.1,27.4,26,42.4s0,38.4,0,38.4l9.6-35.5l-6.9,40.1l-8.1,2.3c0,0-3.1,15.3-8.1,22.6s-8.6,11.9-8.6,11.9l7.2-4.7
	l12.1-12.7"/>
<path fill="none" stroke="#000000" stroke-width="18" stroke-linecap="round" stroke-linejoin="round" stroke-miterlimit="10" stroke-opacity="0" d="
	M336.6,86.4l-42.4,10.4l-14.6,12.3l80.6-20.6l19.5,4L277,122.3l-0.4,8.8l115.2-27.7l10.2,7.9l-127.4,31.8l-0.3,7.3
	c0,0,118.2-29.7,125.6-25.2s4.6,6.9,4.6,6.9l-145.2,33.5l-1.3,7c0,0,149.4-35.1,149.1-26.9c-0.3,8.3-0.3,7.1-0.3,7.1l-151.3,37.8
	l-6.6,11.5c0,0,161-50.6,158-39.1s-4.8,11.1-4.8,11.1l-148.9,38.7l-2.9,7.2L400,185.7l-6,9.5c0,0-137.7,31.3-137.3,32.4
	c0.4,1.1,4.8,8.9,4.8,8.9L389.8,211l3.1,3.9l-128.8,32.8l1.7,9.2c0,0,137.4-36.7,139.6-35.1c2.3,1.6,3.4,5.7,3.4,5.7
	s-141,38.7-142,39.5c-1,0.7,0,9,0,9l136.6-35.9c0,0-11.9,10.5-12.3,11.5s-3.3,6.3-7.5,6.3c-4.1,0-16.6-0.7-16.6-0.7l-4.7,0.5
	l-91.9,27.6l2.3,9.7c0,0,84.9-28.5,83.8-28S342,278.4,342,278.4L278.7,301l2.7,5.8c0,0,60.7-24.5,59.5-23.2
	c-1.2,1.2-28.3,15.6-28.3,15.6l-13.3,5.8l-18.7,4l0.8,4"/>
<path fill="none" stroke="#000000" stroke-width="18" stroke-linecap="round" stroke-linejoin="round" stroke-miterlimit="10" stroke-opacity="0" d="
	M154.7,362.6c0.7-0.8,33.9-22.7,33.9-22.7l17.4-3.4l-48.2,33.2h16.6c0,0,42.2-30.7,43.3-30.3c1.1,0.3,5.5,1.4,5.5,1.4
	s-43.7,32.9-39.9,34.1c3.8,1.1,10.1,3.4,10.1,3.4s5.4,1.1,5.3,2.1s7.5,18.6,7.5,18.6l5.5,6.5"/>
<path fill="none" stroke="#000000" stroke-width="18" stroke-linecap="round" stroke-linejoin="round" stroke-miterlimit="10" stroke-opacity="0" d="
	M200,372.9c1.5-1.2,31-25.9,31-25.9l5.8,8.7l-25.1,17.5c0,0,7.5,5,9.4,5.1s20.2-13.2,20.2-13.2l4.1,3.4l-9.2,16.9l-1.9,13.1
	c0,0-5.4,5.3-4.5,5c0.9-0.2,28.2-35.4,28.2-35.4l13.8-4.5l-25.9,33l39-36.5l10.6,1.1l-34.8,43.1l-18.1,18.8c0,0,63.2-58.8,63.7-58.8
	s6.9,1.8,6.9,1.8l-29.8,37.8l-17.5,29l32.8-39.9l21.4-23.4l4.8,3.5c0,0-25.7,30.5-25.3,30.5c0.3,0,11-1.9,11-1.9l19.5-22.1l6.5,3
	c0,0-17.5,19.7-16.2,19.1s12.3,0,12.3,0s7.3-10.6,7.3-10.2c0,0.3-1.4,8.1-1.4,8.1"/>
<path fill="none" stroke="#000000" stroke-width="18" stroke-linecap="round" stroke-linejoin="round" stroke-miterlimit="10" stroke-opacity="0" d="
	M246.6,243.7c-1.9,3-113.4,159.9-113.4,159.9l-1.1,12L254.4,253l2.3,10.9l-116.6,163l12.1-5c0,0,106.7-141.2,107.1-140.6
	c0.4,0.7,8.1,11.9,8.1,11.9l-94.7,120.9L271,306.4l0.9,6.9l-78.1,100.5c0,0-12.2,28.9-11.6,28.7c0.7-0.2,11.2-1.8,11.2-1.8
	l80.8-116.8l14-4.8L204.7,441l12.2,1.5c0,0,87.6-124.6,87.6-125.7s17.9-5.9,17.9-5.9S227,442.1,229.8,442.5s14.9,1.8,14.9,1.8
	l102.9-156.4l15.3-13.7l8.1,3.3L256.7,446.3l13.3,3.9l107.6-162.3l5.3,7.8c0,0-102.7,156.8-101.6,157.4s8.9,4.3,8.9,4.3
	s91.7-143.3,92.7-142.2c0.9,1.1,5.9,15.1,5.9,15.1s-91.7,131.9-89.4,133.3s9.4,5.5,9.4,5.5s77.7-128.2,78.4-118.8s0.7,9.4,0.7,9.4
	s-68.1,113.2-66.7,113.5c1.4,0.4,69.5-96.3,69.5-95.6s3.3,12.5,3.3,12.5l-37.2,57.8l2.7,10.6l34.6-54.5l-0.1,19.3
	c0,0-24.7,34.6-24.3,37.4c0.5,2.8,3.3,7.4,3.3,7.4l19.5-25.5l-12.3,28.9"/>
<path fill="none" stroke="#000000" stroke-width="18" stroke-linecap="round" stroke-linejoin="round" stroke-miterlimit="10" stroke-opacity="0" d="
	M180.9,452.3c0,0,11.6,149.9,11,153.2c-0.6,3.4-68.5,68.5-68.5,68.5l1.5,8l77.3-71.9c0,0-7.7-153.8-6.7-155s9.2-2.8,9.2-2.8
	s7.4,159.4,7.2,160.6c-0.2,1.2-81.7,79.8-81.7,79.8l11.8,2.4l71.5-75.8l-63,78.9l4.3,1.8l65.4-76.7V458.5c0,0,8-9.5,6.8-3.4
	s0.9,46.1,1.8,47.2s12.1,4.7,12.1,4.7l-2.9-49.3h14.1l-1.7,50.4l4.1,2.4l7.8-50.3l13,3.5l-16.8,50l28.9-45.7
	c0,0-52.1,163.7-51.7,163.7s36.4,79.3,36.4,79.3l10.8,1.3l-32.8-81.1c0,0,44-154.5,46.5-154.1c2.5,0.5-34.2,149.3-33.9,150.4
	c0.2,1.1,29.4,81.6,30.3,81.1c0.9-0.6,6.6-7.5,6.6-7.5s-27-72.2-26.9-68.6c0.1,3.7,35.6,63.3,35.6,63.3l-32.7-76.5l34.5-138.1"/>
<path fill="none" stroke="#000000" stroke-width="18" stroke-linecap="round" stroke-linejoin="round" stroke-miterlimit="10" stroke-opacity="0" d="
	M117.1,688.4c-0.7,1.4-23.6,19-23.6,19l-2.2,13.2l30.9-19.6l8.1,2.1l-39.5,27.7l0.7,10.3l50.4-28.8l2.1,13.6l-47.7,29.5
	c0,0,37.2-19.4,49.5-18.3c12.3,1.1,12.6,5,12.6,5"/>
<path fill="none" stroke="#000000" stroke-width="18" stroke-linecap="round" stroke-linejoin="round" stroke-miterlimit="10" stroke-opacity="0" d="
	M287.3,719.8c-8.5,5.8-43.7,41.6-42.4,40.8s12,3.7,12,3.7l60.7-51.9l3.8,4.4l-47.2,52l3.2,3.6l47.7-45.2l-35.3,47.1l-3,9.7"/>
</svg>
