<?xml version="1.0" encoding="utf-8"?>
<!-- Generator: Adobe Illustrator 21.1.0, SVG Export Plug-In . SVG Version: 6.00 Build 0)  -->
<svg version="1.1" xmlns="http://www.w3.org/2000/svg" xmlns:xlink="http://www.w3.org/1999/xlink" x="0px" y="0px" width="1000px"
	 height="1000px" viewBox="0 0 1000 1000" enable-background="new 0 0 1000 1000" xml:space="preserve">
<g id="vs-highlight">
	<path fill="#5DBFD9" d="M454.4,45.3c0.9,1-2.3,3.7-1.3,6.3c1,2.5,5.4,3.8,8.8,2.6c2-0.7,3.2-2.1,3.6-2.6c1.5-1.9,0.9-3,2.8-6.3
		c0.8-1.4,1.8-2.8,1.8-2.8c1.2-1.7,1.8-2.2,2.1-3.3c0.3-0.8,0.2-1.5,0.2-3c-0.2-3.6-0.9-4.6-0.3-5.1c0.8-0.8,2.9,1,6.1,1.8
		c5.7,1.4,9.9-1.8,10.6-0.7c0.6,1.1-2.5,4.8-6.1,7.1c-1.7,1.1-3.1,1.6-4.1,3.3c-1.1,1.8-1.1,4.2-0.5,4.5c0.7,0.3,1.6-1.8,4.3-2.8
		c1.3-0.5,3.4-0.9,3.8-0.2c0.4,0.7-1.1,1.8-2.3,4.6c-0.6,1.4-1.7,4.3-1,4.8c0.9,0.6,3.8-4.4,10.6-8.1c2.3-1.2,4.5-2.1,5.6-2.5
		c1.2-0.5,4-1.5,7.4-2.1c5.6-1.1,11.3-1,11.4-0.2c0.1,0.8-5.8,1.8-5.8,3.5c0,0.9,1.9,1.1,4.5,2.8c2.9,2,4.9,5.1,4.5,5.6
		c-0.5,0.6-3.1-1.6-9.2-3.6c-1.3-0.4-3-0.9-5.1-1.2c-2.7-0.3-4.3-0.1-4.8,0c-1.7,0.3-2.8,0.4-4,1.3c-0.8,0.7-0.7,1-2.4,3.5
		c-1.1,1.6-1.7,2.5-2.3,3.1c-2,1.8-3.8,1.7-3.8,2.3c-0.1,1.3,6.7,0.6,9.6,4.6c1.8,2.4,0.7,4.7,3.1,6.6c0.3,0.3,2.2,1.8,4.1,1.3
		c2.3-0.6,2.3-3.4,4.8-4.1c1.7-0.5,3.9,0.1,4.3,1.2c0.5,1.3-1.9,2.4-3.3,6.1c-0.2,0.6-0.4,1.7-0.8,3.8c-0.8,4.5-0.9,5.6-1.5,9.1
		c-1,5.3-1.3,4.8-1.2,6.1c0.4,3.5,2.7,3.9,3.5,7.8c0.7,3.4-0.7,5,0.3,5.8c1.7,1.3,7.5-1.1,9.1-5.3c1-2.7-0.5-4.2,0.7-7.3
		c0.9-2.4,2.5-3.4,4.1-5c4.9-4.7,6.3-10.9,7.3-14.9c1.9-8-0.4-12.4,1-12.9c2.3-0.8,11.4,9.7,9.1,18.3c-1.4,5.3-5.7,4.5-8.9,11.1
		c-3.2,6.8,0.6,9.3-2.9,19.6c-1.8,5.4-4.5,9.6-4.8,10.1c-2.6,4-3.5,3.9-5.5,7.3c-3.4,5.7-1.5,7.2-4.6,12c-0.8,1.3-3.9,6.1-9.6,8.5
		c-3.2,1.3-4.4,0.8-5.5,2.2c-1.8,2.3-0.3,6.1,2.4,13.2c1.4,3.8,2.5,5.4,3.7,6.8c1.9,2.1,3,2.1,4.3,3.5c2,2.1,2.7,5.3,1.7,14
		c-1.1,9.3-1.6,14-3.3,16.8c-3.3,5.5-9.8,7.7-22.8,11.9c-13.4,4.4-20.3,6.6-30.5,6.4c-6.8-0.1-15-0.4-22.8-5.6
		c-7.9-5.2-12-13.1-11.4-13.7c0.6-0.5,4.4,5,12.4,8.6c5.4,2.4,9.8,2.6,17.8,3c5.4,0.3,12.8,0.6,22.1-1.5c3.3-0.7,9.9-2.4,17.2-6.4
		c7.1-3.9,8.6-6.6,9.2-8.4c0.2-0.4,1.9-5.4-0.7-9.4c-2.3-3.6-5.5-2.2-8.9-5.9c-1.4-1.5-0.4-1.2-4.1-10.9c-2-5.1-2.7-6.4-3-9.4
		c-0.2-2.2,0.1-2.9-0.5-3.5c-1.9-1.6-6.4,4-14.9,6.3c-3.7,1-8.3,1.3-17.5,2c-3,0.2-5.7,0.3-6.8,2.1c-0.6,1-0.5,2.2,1.5,7.4
		c2.6,6.8,5.1,11.7,5.1,11.7c2.6,5,3.8,6.9,3.3,7.3c-0.6,0.5-3.5-1.8-7.9-5.3c-4.4-3.5-5.2-4.6-7.8-5.6c-2.3-0.9-2.6-0.4-6.8-1.3
		c-5.9-1.2-9.8-2.1-11.4-5.1c-1-1.8-1.4-4.9,0.2-6.8c3.1-3.8,11.2,1.3,14.9-2.3c3.4-3.3-0.9-9.9,2.1-12.6c2.7-2.3,6.8,2,15,2.6
		c9.7,0.7,17.3-4.3,22.8-7.9c3.7-2.5,9.1-6.7,8.3-8.4c-0.9-1.9-8.4,0.6-9.1-1.2c-0.5-1.2,2.9-3.2,7.4-7.8c3.7-3.8,6-6.1,7.6-9.6
		c1.9-4.3,2.1-8.8,2.4-15.4c0.1-3,0-4.8,0.9-7.4c1.2-3.2,2.4-3.4,3.5-6.6c0.3-1,1.3-4.2,0.5-7.9c-0.2-1-0.6-2.3-3.8-7.3
		c-3-4.6-4.5-7-6.9-9.7c-2.8-3.1-4.2-4.8-6.8-6.3c-3.7-2.2-7-2.5-11.6-3c-3.4-0.3-8.9-0.8-15.4,1.2c-3.3,1-6,1.8-8.3,4.3
		c-2.2,2.3-2.3,4.3-4,8.6c-1.7,4.2-2.5,4.6-5.7,10.5c-6.4,11.8-7,17-8.6,16.8c-1.9-0.2-3.5-8.4-2-16c1.1-5.5,2.9-5.8,4.8-12.9
		c2.1-7.7,0.3-8.6,2.5-13.2c2.4-5.3,6.6-8.1,11.2-11.2C447.7,47,453.4,44.1,454.4,45.3z"/>
	<path fill="#5DBFD9" d="M462.1,99.9c-0.9-0.8-1.1-1.4-1.9-1.7c-0.5-0.2-1.3-0.4-1.7-0.1c-0.2,0.3,0,0.6,0,1.5c0,0.6,0,1.2-0.3,1.6
		c-0.6,0.8-1.8,0.5-1.9,0.9c-0.1,0.4,1.3,0.6,1.7,1.7c0,0.1,0.1,0.2,0.1,0.3c0.1,0.8-0.2,1.2-0.4,1.8c-0.2,0.8,0.1,1.5,0.3,2.2
		c0.3,0.8,0.5,1.4,1,1.5c0.9,0.2,1.5-1.7,2.6-1.6c1.1,0.1,1.4,1.3,2.5,2.6c2.5,3.2,6.6,4.1,7.6,4.3c1.1,0.2,0.6,0,5.2,0.2
		c2.7,0.2,4.7,0.4,4.8,0.1c0.1-0.4-4-0.8-5.5-3.6c-0.6-1.1-0.5-2.2-0.5-2.5c0.1-1.5,0.8-2.7,1.6-3.5c2.4-2.3,7-0.7,7-1
		c0-0.3-3.8-1.9-9-1.7c-2.6,0.1-3,0.5-5.2,0.2c0,0-3.4-0.4-6.4-2.2C462.9,100.5,462.6,100.3,462.1,99.9z"/>
	<path fill="#5DBFD9" d="M451.9,93.8c0.9,1.4,1.2,2.7,1.3,3.6c0.2,1,0.6,2.9-0.3,3.6c-0.3,0.2-0.4,0.1-0.8,0.2
		c-1.1,0.5-0.7,1.8-1.7,3.2c-0.4,0.6-0.4,0.3-1.7,1.6c-0.7,0.7-1.2,1.2-1.3,1.2c-0.2-0.1,0.4-1.1,0.2-2.5c-0.1-0.4-0.1-0.6-0.2-0.8
		c-0.5-0.9-1.9-0.9-2.5-1c-1.6-0.2-2.6-0.9-4.7-2.5c-0.6-0.4-4.9-3.7-4.5-7.8c0.1-1.5,0.8-2.8,1.4-3.7c1.1-1.9,2.5-3,3.2-3.6
		c0.7-0.5,1-0.8,1.2-0.8c1.8-0.3,2.6,3,6.4,6C449.7,92,450.7,92.1,451.9,93.8z"/>
	<path fill="#5DBFD9" d="M429.6,129.8c1,1.7,1.3,2.1,1.5,3c0.4,1.9-0.4,2.5,0.1,3.7c0.3,0.9,0.9,1.1,4.2,3.1
		c2.3,1.4,3.4,2.1,4.1,2.6c1.9,1.5,2.8,2.8,3.4,2.6c0.5-0.3,0-1.4,0.8-2.5c0.5-0.7,1-0.5,1.7-1.2c0.8-0.9,0.5-1.5,1.1-1.8
		c0.8-0.5,1.9,0.5,3.9,1.3c1.4,0.6,4.1,1.4,4.5,0.8c0.5-0.8-3.7-5-8.4-7.8c-3.4-2.1-3.7-1.4-6.3-3.3c-1.6-1.2-3-2.6-5.4-2.8
		c-1-0.1-1,0.1-2,0.1c-3.3-0.2-5.2-2.9-5.5-2.6C426.8,125.2,427.7,126.7,429.6,129.8z"/>
	<path fill="#5DBFD9" d="M503.6,17.2c1.1,0.8,0.8,1.1,2.7,3.2c1.8,2,3.5,3.9,5.9,5.2c1.5,0.8,4.9,2.6,7.2,1.2c2-1.2,0.8-3.6,3.2-5.9
		c1.5-1.5,3.4-1.9,5.7-2.5c1.8-0.4,3.5-0.8,4.2,0c0.3,0.3,0.4,0.8-0.2,3.7c-0.8,3.5-1.2,3.7-1.2,5c0,2.5,1.5,3.1,1.7,5.2
		c0.3,2.7-1.7,5.7-3.5,6.9c-3.7,2.6-9.8-0.1-21.8-5.7c-9.9-4.6-12.5-7-13.6-10.2c-0.1-0.2-1.8-5.2,0.5-7.4
		C496.6,14,501.1,15.1,503.6,17.2z"/>
	<path fill="#5DBFD9" d="M544.3,271.3c0.6-2.4-0.5-2.7-1.3-8.6c-0.8-5.7,0.2-6.1-0.3-11.9c-0.3-3.2-0.6-3.2-2.8-14
		c-1.2-5.9-1.8-8.9-2-10.2c-1.1-9.9,1.4-16.3,0.7-16.5c-0.7-0.2-4.4,6.5-4.5,14.9c0,5.5,1.5,9.5,0.8,9.7c-0.7,0.2-2.9-4-4.3-7.3
		c-2.8-6.7-3.2-11.3-3.8-11.2c-0.6,0.1-0.7,6.1,0,12.1c0.4,3.7,0.8,4.3,1.7,9.7c0.7,4.4,1.1,7.3,1.3,10.7c0.3,6.4-0.8,5.7-1.2,16
		c-0.2,4.6-0.1,8.1-1.5,12.1c-0.9,2.4-2.1,4.8-2.1,4.8c-1,1.8-1.8,3.3-2.8,4.5c-2.5,2.8-6.1,3.3-11.4,4.1c-3.4,0.5-3.6,0.2-8.6,0.7
		c-4.2,0.4-10.5,1-10.6,2c0,1.1,7.3,2.1,8.4,2.3c2.6,0.4,3.6,0.3,7.6,0.8c4.2,0.5,6.3,0.8,6.3,1c0,0.9-19.7,2.8-41.6,1.5
		c-5-0.3-10.8-0.7-18.5-1.8c-13.3-2-20-3-23.5-3.8c-2-0.5-6-1.5-6.3-0.8c-0.2,0.5,1.9,1.8,5.9,4.5c3.1,2,4.1,2.5,4,2.8
		c-0.2,0.7-5.7-2-13.5-2.1c-4.9-0.1-5.6,0.9-8.8,0c-2.4-0.7-3.6-1.6-8.3-3.1c-2.7-0.9-2.6-0.6-3.1-1c-2.6-1.7-3-5.6-3.3-13.2
		c-0.4-8.8-0.3-11.2-0.3-11.2c0.3-22.4-0.9-25.3,2.1-30.6c1.7-2.9,3-3.6,4.8-7.6c3-6.5,3.1-12.5,2.8-12.6c-0.2,0-0.2,4.6-3.5,8.8
		c-1.8,2.2-3,2.5-5.1,5.5c-1.5,2.2-2,4.6-2.8,4.5c-0.4-0.1-0.7-0.7-0.8-1.3c-1-3.7,0.8-7.2,1.2-10.1c0.8-5.9-3.6-11.5-4.5-11.2
		c-0.8,0.2,1.7,6.5,0.3,15.4c-0.7,4.4-1.9,6.3-3.1,10.1c-0.7,2.1-2.1,6.7-2.3,21.6c-0.3,21.5,2.2,29.8,1.2,41
		c-0.2,2.2-0.6,5-0.2,8.9c0.6,4.9,1.8,6,1.7,9.9c-0.1,3.6-1.3,6.4-2.1,8.4c-2,4.9-4.6,7.5-4.1,7.9c0.5,0.4,3.3-3,9.1-5.5
		c2.7-1.1,4.6-1.4,5.1-1.5c3.6-0.5,6.4,0.4,7.4,0.7c9.5,2.7,33.7,8.6,33.9,8.1c0.2-0.4-17.4-10.6-27.6-13c-1-0.2-4.2-1-4.6-2.8
		c-0.2-0.9,0.3-1.9,2-3.6c3.4-3.5,7-5.1,8.4-5.8c2.7-1.2,6.6-2.9,11.2-3.8c8.6-1.6,15.7,0.6,24.8,2.8c0,0,15.8,3.8,33,5.9
		c13.8,1.7,20.8,2.6,26.1,1.7c9.3-1.6,17.6-5.5,24.8-1.2c0.6,0.4,3.6,2.2,3.3,3.1c-0.6,1.8-12.9,1.1-15-4.1
		c-0.3-0.8-0.3-1.9-0.2-4.1c0.2-4.1,1-7.2,1.3-8.6c2.7-10.9,1.9-9.4,2.8-11.9c1-2.9,2.6-7.4,6.3-11.7
		C539.3,275.6,543.2,275.7,544.3,271.3z"/>
	<path fill="#5DBFD9" d="M444.2,336.3c0.9-1.8,16.4,5.7,44.4,12.7c12.5,3.1,18.9,4.7,26.3,4.8c6.9,0.1,9.9-0.8,15.7,1
		c4.7,1.5,7.5,3.6,14.9,5.3c5.9,1.4,7.7,0.8,8.8,0.2c3.2-1.9,3.2-6.1,4.1-10.4c2.6-11.5,11.3-21.1,13.4-20.3
		c2.3,0.9,0.7,16.6-7.8,27.9c-1.9,2.5-6.1,8-13.7,10.9c-2.5,1-4.7,1.4-6.3,1.7c1.6,8.6,1.9,15.3,1.8,20c-0.1,3.5-0.3,4.7,0.4,7
		c1.8,6.3,6.6,6.8,8.9,13.5c0.5,1.4,1.6,4.7,0.5,8.6c-0.2,0.7-1.1,3.7-4.2,6.6c-4.9,4.7-11.4,5.3-13.9,5.6c-12,1.4-7.9,3.8-30.6,8.4
		c-11.8,2.4-32.7,6.5-60,5.1c-17.3-0.9-32.3-3.7-32.2-4.6c0.1-1.1,20.3,1.7,49.9-1.5c14-1.5,26.9-4,33.7-5.3
		c22.2-4.3,17.4-5,26.6-5.9c2.8-0.3,9.8-0.9,17.5-5c0.6-0.3,6.5-3.4,6.1-4.6c-0.4-1-5.5,0-15.5,2c-19.9,4-23.1,4.7-27.4,5.5
		c-14,2.4-25.1,2.8-25.1,2.5c-0.1-0.5,20.1-3.9,38-8.1c0,0,5.2-1.2,14.4-5c8.7-3.5,8.8-4.6,8.8-5c-0.1-0.3-0.5-1.4-8.1-1.5
		c-20.7-0.2-27.6,8.1-42.8,6.1c-6-0.8-6.5-2.3-15.5-3.5c-6.8-0.9-12.3-0.8-17.5-0.7c-12.6,0.3-18.6,1.7-18.7,1.2
		c-0.2-0.8,13.7-7.4,30.4-5.9c9.5,0.9,11.3,3.6,20.8,3c10.3-0.6,18.8-4.1,18.8-4.1c2.5-1,4.4-2,9.4-4c4.6-1.8,5.8-2,8.4-3.3
		c4.3-2.1,9-5.5,8.6-6.3c-0.8-1.7-24.3,9.4-26.1,6.3c-1.1-2,6.6-9.5,10.9-13.7c3.9-3.8,5.9-5.2,5.5-6.1c-0.9-2.1-10.6,2.6-24.3,1.2
		c-4.4-0.5-3.9-1-13.2-3.1c-3.5-0.8-26.4-6-27.4-3.1c-0.5,1.4,4.4,4.4,8.6,6.9c7.8,4.7,13.2,6.1,13,6.8c-0.2,0.8-8.5-0.2-16.8-2.6
		c-5.3-1.6-6.6-2.5-12.9-4.1c-5-1.3-3.8-0.5-9.9-2c-3.4-0.8-5.7-1.5-8.9-1c-2,0.3-4,0.6-4.3,1.7c-0.5,1.8,4.9,4.7,19.5,12.7
		c12.6,6.9,14.5,8,14.4,8.4c-0.4,1-10.4-0.2-19.8-5.6c-6.2-3.6-7.8-6.5-14.5-8.9c-4-1.4-4.7-0.9-9.7-2.8c-2.8-1.1-4.3-1.9-5.8-1.2
		c-1.2,0.6-1.1,1.7-3.1,5.1c-1.6,2.6-2.2,2.9-2.1,3.8c0.2,2.1,4,3.3,7.3,4.5c8.6,3.2,16.1,7.8,15.9,8.6c-0.3,0.8-8.3,0-15.7-3.1
		c-3.1-1.3-4.9-1.7-8.6-2.5c-3.3-0.7-4.4-0.7-5.1,0c-0.4,0.4-0.9,1.3,0,6.9c0.7,4.6,1.3,5.8,0.5,6.8c-1.4,1.8-5,0.3-5.5,1.3
		c-0.6,1.2,3.3,4.9,8.4,7.6c6.3,3.3,11.3,3.4,22.1,4.3c12.5,1.1,20.6,1.8,20.6,2.6c0,1-11.8,4.7-24.8,2c-4.2-0.9-9.7-2.6-24.4-6.1
		c-0.7-0.2-6.9-1.6-7.4-0.3c-0.5,1.3,5.4,4.2,4.8,6.4c-0.3,1-1.7,1.1-4.6,2.1c-6.1,2.1-8.3,4.4-9.1,3.6c-1-1,3.9-4.7,4-10.4
		c0.1-5.7-4.8-7.2-4.1-12.1c0.5-3.5,3-3.3,6.5-9.5c2-3.7,2.9-6.8,3.6-9.5c1.3-4.8,1.5-8.5,1.7-12.1c0.3-5.6,0.4-8.4-0.3-9.5
		c-3.3-5-12.6,0.2-23.5-5.2c-5.7-2.8-10.4-7.8-9.6-9.6c1-2,9.3,1.1,20,3.1c22.5,4.4,41,1.3,49.2,0c8-1.3,19.2-3.9,32-9.2
		C446.5,340.2,443.7,337.2,444.2,336.3z"/>
	<path fill="#5DBFD9" d="M436.3,282.3c12.1,0.7,5.2,0,20.6,0.8c21.5,1.2,32.3,1.8,32.4,2.5c0.1,2-22.5,8.5-46.6,3.5
		c-9.3-2-19.4-5.8-19.2-6.9C423.7,281.5,427.3,281.8,436.3,282.3z"/>
	<path fill="#5DBFD9" d="M489.6,446.3c0.2,1.2-18.8,5.7-41,6.9c-10.1,0.6-18.8,0.3-26.5-0.3c-4.9-0.4-41.7-3.7-42.3-12
		c-0.1-2,1.9-3.6,2.5-4.1c5.4-4.4,15.4-0.1,21.3,2.1c7.4,2.8,18.1,4.4,39.5,7.6C470.3,450.6,489.4,445.1,489.6,446.3z"/>
	<path fill="#5DBFD9" d="M432.3,518.8c0.2-0.5,7.6,2.5,20.1,5.6c11.1,2.7,15.9,3,19.5,3c4.4-0.1,8.6-0.6,11.2-1
		c5.9-0.8,10.1-1.8,12.2-2.3c13.7-3.1,28.9-3.8,29.1-3c0.1,0.6-8.2,1.6-22.1,6.3c-6,2-7.3,2.8-12.9,4.3c-6.2,1.7-9.6,2.2-9.6,3
		c0,0.6,2.1,1.1,12.6,2.3c13.2,1.5,16.5,1.3,16.5,2c0.1,1.4-14.6,6.6-22.5,3.3c-0.7-0.3-2.5-1.1-3.6-0.3c-1.8,1.2-0.8,5.8-0.7,6.6
		c1,4.4,3.3,6.4,2.6,7.3c-0.8,1-4-2-5.9-1.3c-5.2,1.8,0.6,26.9,4.3,63.4c1.5,15,1.3,18.8,3.3,29.4c3.4,18,5,27.1,5.6,28.2
		c1.4,3,4.3,8.5,2,12.4c-1.1,1.9-2.7,2.1-5.3,5.6c-1.4,1.9-2.8,3.8-3,6.3c-0.2,1.9,0.5,3,2.3,6.9c3.9,8.2,1,2.7,5.3,11.2
		c3.7,7.5,4.1,8,5,8.3c4.6,1.6,9.2-7.7,12.9-6.6c4.5,1.4,3.1,16.8,2.6,42.6c-0.1,4.8,1.4,14.5-0.2,22.6c-0.2,0.8-0.6,2.8-0.7,5.5
		c-0.3,5.2,0.5,9.3,1.1,11.7c2.2,9.3,7.2,20.3,9.5,25.4c5.6,12.9,9.2,24.5,8.8,24.6c-0.4,0.2-9.2-21.2-24.1-54.2
		c-6.6-14.6-14.8-32.5-24.8-46.6c-7.9-11.2-11.9-16.8-16.2-20.1c-2.9-2.2-5.6-3.9-7.3-7.6c-2.4-5.4-0.1-10,1-16.8
		c1.2-8-0.2-12.4-1.3-21.1c-3.1-24.5,2.1-39.7-0.3-81.9c-1.5-25.6-4-30.8-0.3-40.6c1-2.6,3.8-9.4,1-12.2c-1.7-1.8-4.6-1-9.2-0.7
		c-11.4,0.8-20.8-2.2-20.8-3c0-0.7,7.9-0.1,19.5-2.3c1.3-0.3,14.7-2.9,14.5-5c-0.2-2.1-14-0.4-31.7-6.6c-9.2-3.2-17.1-7.7-16.8-8.5
		c0.3-0.7,6.8,1.5,19.4,4.2c8.1,1.7,21.2,4.6,21.7,3C457.4,529.9,431.9,519.7,432.3,518.8z"/>
	<path fill="#5DBFD9" d="M428.7,741.5c0.6-0.3,1.5,0.1,7.6,4c5.5,3.4,6,3.9,7.3,4c4.6,0.3,6.4-5.1,9.2-4.6
		c4.1,0.6,4.5,12.2,7.9,24.1c1.5,5.3,4.9,11.8,11.6,24.4c8.2,15.5,16.3,31.1,24.4,46.6c13.6,25.9,16.1,31.4,17.8,39.6
		c2.6,12.5,3.9,18.8,4,22.1c0.1,5.3,0.9,9.3,2.6,17.2c0.4,1.9,1.1,4.7,3.3,5.9c2.5,1.5,5.8,0.3,7.1-0.2c4.7-1.7,6.3-5.1,7.3-4.6
		c1.1,0.6-0.1,5.2-1.9,9.1c-0.5,1.1-2.4,5-7.3,10.2c-4.6,4.9-7.5,6.5-6.9,8.3c0.5,1.6,3.2,2.1,4.6,2.3c4.1,0.7,6.2-0.9,12.6-2
		c3.5-0.6,7.2-1.3,7.6-0.3c0.5,1.3-4.8,6.2-11.6,7.9c-4.4,1.1-6.6,0.1-9.2,2.3c-3,2.5-3.3,6.3-3.3,6.6c-0.2,3.6,2,6.9,4.3,8.6
		c7.5,5.4,20.7-3.3,21.6-1.4c0.7,1.3-5,6.2-11.7,9c-3.6,1.5-6.9,2.9-11,2.5c-8.7-0.9-15.3-9.2-17.4-16.7c-1.1-3.6-0.8-6.8-0.3-13.2
		c0.7-9.2,2.2-11.8,3.3-19.2c0.7-4.7,0.3-4.8-0.3-27.7c-0.4-15.6-0.2-16.5-1-19.5c-2.7-10.3-9.4-17.6-14.9-22.1
		c-2.4,13.9-6.1,23.9-9.2,30.7c-3.1,6.7-7.3,14.1-6,21.8c0.2,1.4,1,4.5,0.6,8.8c-0.5,4.8-1.9,5.4-2,8.3c-0.2,5.4,4.3,7.1,9.7,15.9
		c4.1,6.7,2.4,7.2,6.4,13.6c5.6,9,12.2,13.4,11.6,14.1c-0.4,0.5-3.4-1.6-12-5.9c-4.6-2.3-7-3.5-8.9-4c-5.4-1.4-8.7-0.5-9.6-2.3
		c-0.8-1.5,1.2-2.7,2-6.6c0.1-0.5,1.3-7-2-9.9c-2.5-2.2-5.3-0.4-7.3-2.3c-2.4-2.4-0.4-7.9,0.7-11.6c0.3-1,1-8.9,2.3-24.8
		c0.9-10.3,0.2-17.7-1-30.7c-2.1-23.4-4.9-20.9-6.6-41.9c-0.7-8.9-0.8-16.5-4.6-26.8c-1.7-4.4-3.3-7.4-6.6-13.2
		c-11.9-21.1-19.4-27.4-24-43.2C429.3,754.1,426.1,742.7,428.7,741.5z"/>
</g>
<g id="vs-outline">
	<path fill="none" stroke="#000000" stroke-width="11" stroke-linecap="round" stroke-linejoin="round" stroke-miterlimit="10" d="
		M425.4,100.7c-1.1-3.7-1.3-7-1.3-9.2c0-3,0-6.5,1.7-10.2c1.9-4.4,3.9-4,5-7.6c1.4-4.6-1.4-6.4,0.3-9.9c1.4-3,3.6-1.9,7.3-5.9
		c2.5-2.7,2.3-4,5.3-7.9c1.9-2.5,3-3.8,5-5.3c3.3-2.5,5.3-2.6,5.9-4.6c0.7-2.2-1.3-3.7-0.3-5c0.9-1.2,2.9-0.2,6.3-1.3
		c1-0.3,1.9-0.9,3.6-2c5.3-3.3,5.1-4.2,6.9-4.6c3-0.6,4,1.9,8.6,2.6c2.7,0.4,3.3-0.3,8.3-1c7.8-1.1,12-1.7,15.2,0.7
		c3.1,2.3,2.8,5.6,5.9,6.3c1.8,0.4,2.7-0.6,5,0c2,0.5,2.5,1.6,4.3,3c3.8,2.9,5.7,1.1,9.6,3.6c0.5,0.3,5.3,3.6,5,7.3
		c-0.2,1.7-1.3,2.2-1.3,4c0,2.3,2,4,3,5c3.8,3.6,4.9,8.6,6.3,14.5c1,4.2,2.8,12.2-1,15.5c-2.4,2.1-5.6,1.1-6.9,3.6
		c-0.8,1.5,0,2.4-0.3,5.6c-0.3,2.5-1,3.6-1.7,5.6c-1.9,5.6,0.2,6.5-1.3,11.6c-1.2,3.9-3.4,6.8-6.3,10.6c-2.1,2.8-2.1,2.2-3,3.6
		c-3.3,5.4-0.7,9.5-3,13.5c-1.1,1.9-3.3,4.1-8.6,5.3c-2.8,0.2-5.5,0.4-8.3,0.7c0.3,3.1,1,7.5,3,12.6c1.3,3.3,1.9,5,3.3,6.6
		c3.5,4,8.3,4.2,17.8,5.9c5.2,1,10.4,2,15.5,3.6c4.9,1.6,13.6,4.5,20.1,11.2c5.8,5.9,7.4,12.3,9.9,21.8c3,11.3,3.1,20.6,3.3,37
		c0.1,7.9-0.2,7.6,0,14.5c0.4,14.6,1.7,17.7,2.3,28.7c0.5,8,1.6,27.9-4.3,44.9c-1.6,4.5-2.7,6.2-4.6,12.6
		c-1.9,6.3-2.5,10.4-5.9,15.2c-2.6,3.6-4.6,4.6-5.3,5c-4.4,2.2-9,0.9-10.6,0.3"/>
	<path fill="none" stroke="#000000" stroke-width="11" stroke-linecap="round" stroke-linejoin="round" stroke-miterlimit="10" d="
		M425.4,101.5c-1.2,5-1.4,9-1.3,11.9c0.1,4.1,0.8,5.8,1,12.2c0.1,3.4,0,6.6,0,6.9c-0.1,5.1-0.5,5.9-0.3,9.2c0.2,4.7,1.1,7,1.3,7.6
		c0.5,1.2,1.2,2.8,2.5,4.5c2.2,2.9,4.7,4.5,6.4,5.5c0.8,0.6,1.7,1.1,2.5,1.7c0.3,1.2,0.9,4.2-0.7,6.6c-1.3,2.1-3.6,2.8-6.6,3.5
		c-6.7,1.5-11.6,1.6-15.9,1.8c-4.5,0.3-7.8,0.7-14.4,1.7c-8.1,1.1-12.1,1.7-16,3c-3.9,1.2-9.4,3.6-15.5,8.3"/>
	<path fill="none" stroke="#000000" stroke-width="8" stroke-linecap="round" stroke-linejoin="round" stroke-miterlimit="10" d="
		M427.5,102.1c2.5-4.4,4.3-7.7,5.6-10.1c1-1.8,1.9-3.4,3.3-5.8c1.9-3.1,2-3,2.8-4.5c1.7-3.2,1.3-4.2,3-8.9c1.5-4.2,2.2-6.3,4.1-8.1
		c2.2-2.1,4.8-2.8,6.6-3.3c2.8-0.8,4.4-0.5,5.1-0.3c1,0.2,1.1,0.5,1.8,0.7c3.9,1.2,6.8-3.6,10.1-2.6c2.4,0.7,2.6,3.8,4.5,3.6
		c1.8-0.1,2.4-3.2,3.8-3.1c1.2,0.1,1.1,2.5,3.3,5.5c2.1,2.9,5.2,4.5,6.1,5c2.3,1.2,2.9,0.9,3.8,2c1.6,2,0.1,3.7,1.5,6.3
		c1.4,2.6,3.5,2,5.1,4.6c1.2,2,1,4.1,0.8,6.4c-0.4,4.8-2.3,5.4-2.3,9.1c0,3.2,1.4,3,2.1,7.6c0.1,0.7,0.2,1.6,0,9.7
		c-0.2,6.2-0.3,5.9-0.2,6.8c0.3,3.3,1.1,5,1.2,9.1c0,2.5-0.2,3.4-0.8,4.1c-1.3,1.5-2.8,0.6-4.1,2c-2.1,2.1-0.5,6.6-0.2,7.8
		c0.4,1.1,0.6,1.8,1.3,2.5c2.1,1.9,5.8,0.7,6.2,0.6"/>
	<path fill="none" stroke="#000000" stroke-width="11" stroke-linecap="round" stroke-linejoin="round" stroke-miterlimit="10" d="
		M493.6,26.6c-2.5-8-1.6-10.9,0-11.9c2.4-1.5,6.6,1.1,11.2-1.4c1.5-0.8,1.2-1.2,2.8-2c2.6-1.3,4.9-1,10.2-0.6
		c9,0.7,9.1,0.4,10.9,1.1c1.4,0.5,5,1.9,6.9,5.1c1.7,2.8,0.2,3.8,1.7,6.8c2.2,4.7,6.9,4.2,7.9,8c0.5,1.7-0.4,2-2.5,8.4
		c-1.5,4.9-0.9,6.3-2.5,8.3c-1.8,2.3-4.6,3.4-6.6,3.9"/>
	<path fill="none" stroke="#000000" stroke-width="6" stroke-linecap="round" stroke-linejoin="round" stroke-miterlimit="10" d="
		M462.4,100.8c0.5,0.4,1.3,0.9,2.4,1.2c1.6,0.5,2.6,0.2,6,0c5.8-0.3,4.1-0.1,5.9-0.2c2.4-0.2,3-0.3,4,0c1.2,0.3,2,1,3.6,2.2
		c0.9,0.7,2,1.6,3.1,3.1c0.6,0.8,1,1.5,1.2,2"/>
	<path fill="none" stroke="#000000" stroke-width="6" stroke-linecap="round" stroke-linejoin="round" stroke-miterlimit="10" d="
		M451.2,95.6L451.2,95.6c-0.9-1.3-1.6-2.4-2.2-3.3c-2.7-3.9-3.3-4.9-4.5-5.9c-0.7-0.7-1.9-1.6-3.5-2.6"/>
	<path fill="none" stroke="#000000" stroke-width="6" stroke-linecap="round" stroke-linejoin="round" stroke-miterlimit="10" d="
		M466.2,107.5c0.6-0.2,1.4-0.5,2.4-0.6c2.2-0.2,3.8,0.6,7.1,2.2c1.8,0.9,2.3,1.3,2.6,1.7c0.4,0.5,0.6,1,1.2,1.6
		c0.5,0.4,1,0.7,1.3,0.8"/>
	<path fill="none" stroke="#000000" stroke-width="6" stroke-linecap="round" stroke-linejoin="round" stroke-miterlimit="10" d="
		M468.1,108.7c0.2,0.3,0.6,0.8,1.2,1.2c0.9,0.6,1.7,0.7,2.3,0.7c1.5,0.2,3.3,0.4,5.3,0.6"/>
	<path fill="none" stroke="#000000" stroke-width="6" stroke-linecap="round" stroke-linejoin="round" stroke-miterlimit="10" d="
		M448.3,99.7c-0.3-0.6-0.7-1.5-1.4-2.4c-1-1.3-2.1-2.1-2.7-2.5c-1.4-0.9-2-0.8-3.8-1.8c-0.9-0.5-1.6-1-2-1.3"/>
	<path fill="none" stroke="#000000" stroke-width="6" stroke-linecap="round" stroke-linejoin="round" stroke-miterlimit="10" d="
		M447.1,99.3c-0.8,0-2-0.2-3.1-1c-0.7-0.5-1-0.9-2.2-2.4c-0.5-0.7-1.4-1.7-2.4-2.9"/>
	<path fill="none" stroke="#000000" stroke-width="6" stroke-linecap="round" stroke-linejoin="round" stroke-miterlimit="10" d="
		M440.6,116.3c-0.2,0.4-0.6,1.3-0.5,2.4c0,0.3,0.1,1.7,1.2,2.9c0.5,0.5,0.6,0.4,2.1,1.3c1.6,1,1.5,1.2,2.3,1.6c0.9,0.4,1,0.1,3,0.4
		c2.1,0.3,2.4,0.6,3.6,0.5c1-0.1,1.8-0.5,2.2-0.8"/>
	<path fill="none" stroke="#000000" stroke-width="6" stroke-linecap="round" stroke-linejoin="round" stroke-miterlimit="10" d="
		M433,127.3c4.3,0.1,5.8,1.1,6.4,2.1c0.2,0.3,0.5,0.9,1.2,1.4c0.9,0.7,1.6,0.7,2.6,1.1c1.1,0.4,1.3,0.9,2.6,2.1
		c2.2,1.9,2.9,1.7,5.1,3.5c0.7,0.6,1.8,1.5,2.9,2.8"/>
	<path fill="none" stroke="#000000" stroke-width="6" stroke-linecap="round" stroke-linejoin="round" stroke-miterlimit="10" d="
		M435.5,133.3c0.6,0.8,1.5,1.9,2.9,2.9c2.9,2,5.9,2,7,1.9"/>
	<path fill="none" stroke="#000000" stroke-width="8" stroke-linecap="round" stroke-linejoin="round" stroke-miterlimit="10" d="
		M437.1,159.5c2,0.6,5,1.3,8.5,1.6c2.4,0.2,5.4,0.2,11.6-0.7c4.1-0.6,9.4-1.6,15.7-3.3"/>
	<path fill="none" stroke="#000000" stroke-width="11" stroke-linecap="round" stroke-linejoin="round" stroke-miterlimit="10" d="
		M368.4,185.7c-2.4,2.9-5.6,7.4-7.7,13.5c-1.3,3.9-1.6,6.7-2.2,15.1c-1.1,13.7-1.6,20.5-1.7,22.8c-0.6,15.1,0.4,13.9-0.2,24
		c-0.8,13.5-2.5,14.2-3,27c-0.3,8.5,0.2,15.3,0.5,19.6c0.6,8.8,1.7,15.8,2.5,20.1c0.4,2.1,1.2,5.8,2.7,13.1
		c0.6,2.6,1.6,7.5,3.5,13.6c1.9,6.3,2.8,7.9,4.2,9.2c1.2,1.2,3.1,2.4,8.7,3.5c3.8,0.7,9.5,1.4,16.6,0.7c1,1.3,2.3,3.5,3.2,6.4
		c0.9,2.8,1.9,6.2,0.7,9.7c-1.1,3.2-3,3.4-3.5,6.7c-0.3,2.3,0.5,2.8,0.2,5c-0.3,2.2-1.4,3.6-4.2,6.9c-6.5,7.6-7.3,8-7.2,9.4
		c0.2,3.6,5.8,4.8,5.5,7.9c-0.2,1.8-2.2,1.9-4.2,4.7c-1.6,2.1-1.8,4.1-2.5,8.2c-1.8,10.9-1.7,7.6-2.2,12.6c-0.9,8-0.9,14.2-1,17.6
		c-0.2,14.7-1.1,15.7-1.3,27.5c-0.3,13.4,0.7,23.4,1.6,33c0.5,5,1.6,16.2,7.4,48.3c2.7,14.6,5.1,27.1,7.4,38.6
		c3,14.9,7.2,35.1,12.6,59.2c0.9,3.5,2.4,8.8,4,15.4c3,12.2,4.3,18.7,5.7,24.8c1.9,8.1,5.1,22.1,11.1,36.7c3.9,9.4,9,17.8,19.1,34.2
		c3.5,5.6,10.5,17,20.8,32.2c13.2,19.6,23.8,33.7,30.2,45.8c3.1,5.9,4.7,10.1,8.2,15.6c0.6,1,2.5,3.9,4.2,8.2c0,0,0.9,2.3,1.5,4.5
		c1.8,6.7,0.5,11.5,0.5,20.1c0,0.4,0-0.1,1,12.6c0.3,4.4,0.7,9.4,1,15.9c0.3,6.1,0.2,7.8,0,9.4c-0.4,3.9-1,4.6-1.5,9.2
		c-0.4,4-0.7,6.4-0.2,9.4c0.8,5.2,3.4,8.9,4.5,10.4c1.9,2.7,5.4,7.6,11.9,9.2c4.9,1.2,8.9-0.1,10.2-0.5c5.2-1.7,8.1-5.3,10.7-8.4
		c3.5-4.3,5-8.2,6.7-12.4c2.4-6.2,3.8-9.7,3.7-14.4c-0.1-5.5-2-5.9-5-17.1c-1.2-4.5-2-7.5-2.2-11.6c-0.1-1.5-0.3-5.4,1.5-14.9
		c2-10.7,3.7-13.5,4.7-22.3c0.1-1.3,0.7-6.1-0.5-11.9c-0.5-2.7-1.1-3.9-1.2-4.2c-0.6-1.3-2.1-4.1-7.7-7.7c-2.7-1.8-7.1-4.1-13.1-5.7
		c-12.9-27.8-19.2-45.7-22.5-57.2c-0.4-1.4-3.5-12.1-8.4-29c-3.3-11.5-5-17.2-5.5-18.6c-3.3-10.7-9.8-25.7-23.5-43.6
		c-0.5-5.5-1.3-13.8-2-23.8c-0.6-8.6-2.4-35.4-2.5-71.6c0-17.6,0.3-26.7,0-52.5c-0.1-6.2-0.2-11.4-0.2-14.9"/>
	<path fill="none" stroke="#000000" stroke-width="11" stroke-linecap="round" stroke-linejoin="round" stroke-miterlimit="10" d="
		M542.5,369.7c0.4,5.9,1.1,10.6,1.7,13.9c1.4,7.4,2.6,8.8,2,12.6c-0.2,1.3-0.6,3,0.2,4.7c0.9,1.8,2.3,1.7,4.2,3.7
		c0.4,0.4,0.8,0.9,3.5,6.4c2.2,4.5,2.4,5.2,2.2,6.2c-0.3,1.9-1.7,2.2-2.5,4.2c-1,2.5,0,4.8,0.7,7.2c1.5,4.7,0.3,3.9,2,12.6
		c1.5,7.7,2.7,9.6,4.2,15.6c0.5,2.1,1.4,6,2.5,24c0.1,1.4,0.9,14.5,1,20.8c0.4,23.8-7.2,51-8.7,56c-12.8,44.7-30.4,101.6-35.4,127.8
		c-2,10.3-3.9,25.6-4.7,36.4c-0.4,5.1-0.5,9-0.5,10.4c-0.2,9.7,0.4,16.7,0.5,18.6c0.5,7.2,0.3,19.6-3,42.6"/>
	<path fill="none" stroke="#000000" stroke-width="11" stroke-linecap="round" stroke-linejoin="round" stroke-miterlimit="10" d="
		M454.6,800c-0.4,17.7-0.6,32-0.7,41.9c-0.1,9.4-0.7,18.8-0.5,28.2c0,2.3,0.4,16.7-1,30c-0.6,5.4-1.2,8.9-3,12.6
		c-2,4.2-3.4,4.7-4.2,8.2c-1,4.4,0.8,6,1.2,12.4c0.4,5.1-0.8,4.2-1.2,13.6c-0.2,4.4-0.1,8.1,0,14.1c0.1,3.2,0.2,5.8,0.2,7.7
		c0.5,1.1,1.4,2.5,3,3.7c2.3,1.8,4,1.5,6.1,3c2.2,1.6,2.7,3.8,3.3,5.2c2.7,5.8,12.7,7.3,18.3,8.2c12.1,1.8,22.4-1.1,28.5-3.5
		c0.3-0.4,0.8-1,1.2-1.7c1.6-2.9,1.2-5.9,1-7.2c-0.3-2-1-3.7-9.2-14.1c-1.8-2.4-3.2-4.1-5.2-6.9c-1.2-1.7-1.9-2.8-3.5-5.2
		c-7.2-11-5.4-9.5-7.7-12.4c-0.9-1.1-1.7-2-2-3.5c-0.5-2.4,0.8-4.1,1.5-6.2c1.1-3.2,0.3-5.1,0-9.4c-0.3-5.1,0.5-9.1,2.2-17.1
		c1.1-5.2,2.3-8.8,3.7-13.1c2-6.1,4.8-14.6,8.7-26.8"/>
	<path fill="none" stroke="#000000" stroke-width="9" stroke-linecap="round" stroke-linejoin="round" stroke-miterlimit="10" d="
		M419.7,173.7c-1.2,13.4,0.5,23.3,2,29.2c1,3.9,2,6.8,4.2,9.7c4.6,6.1,11.2,8.1,14.9,9.2c4,1.2,8.4,1.7,20.6,0.7
		c15.3-1.2,23-1.9,32.9-5.7c8.2-3.1,13.7-5.3,17.8-11.1c4.8-6.8,4.9-14.7,5-18.6c0.1-6.7-1.4-12-2.6-15.3"/>
	<path fill="none" stroke="#000000" stroke-width="9" stroke-linecap="round" stroke-linejoin="round" stroke-miterlimit="10" d="
		M392.9,242.9c-1.2,7.9-3,21.3-2.5,32.9c0,1,0.2,4.2,0.5,8.2c0.5,7.1,1.2,12,1.7,16.8c0.6,4.8,1.4,11.8,2.2,20.6
		c6.7,2,16.5,5.1,28.2,9.7c7.2,2.8,12.3,5.1,17.6,7.4c21.3,9.4,38.8,16.8,40.6,17.6c13.5,5.7,34.1,11.5,64.9,11.6"/>
	<path fill="none" stroke="#000000" stroke-width="9" stroke-linecap="round" stroke-linejoin="round" stroke-miterlimit="10" d="
		M389.9,367.2c16.5,1.2,35.9,1.5,57.5-0.5c16.3-1.5,31.1-4,44.1-6.9"/>
	<path fill="none" stroke="#000000" stroke-width="9" stroke-linecap="round" stroke-linejoin="round" stroke-miterlimit="10" d="
		M395.6,308.3c1.6,0,4.2-0.1,7.4-0.5c6.6-0.9,8.8-2.3,15.9-3.2c2-0.3,4.6-0.6,7.9-0.5c6.5,0.2,11.3,1.7,12.9,2.2
		c9.2,2.9,31.7,8.2,48.3,10.2c15.8,1.9,18.7-0.2,36.9,2.7c7.1,1.2,12.9,2.5,16.8,3.5"/>
	<path fill="none" stroke="#000000" stroke-width="8" stroke-linecap="round" stroke-linejoin="round" stroke-miterlimit="10" d="
		M510.6,314.5c3.4-5.2,6.6-8.7,8.9-10.9c1.6-1.5,3.5-3.1,5.6-6.1c1.1-1.5,2.4-3.4,3.5-6.1c0.6-1.6,0.8-2.5,1.8-5
		c0.7-1.8,1.1-2.6,1.7-3.5c1-1.6,2.7-2.6,5.9-4.5c7.5-4.4,8.3-4.7,9.1-5.1c3.1-1.4,3.2-1.2,5.3-2.3c2.2-1.2,3-2,4.1-1.8
		c1.5,0.3,2.7,2.1,2.8,3.8c0.1,1.8-1.1,3.2-2.1,4.3c-1.5,1.6-3,2.2-4.8,3c-1.8,0.8-4.4,2.1-7.6,4"/>
	<path fill="none" stroke="#000000" stroke-width="8" stroke-linecap="round" stroke-linejoin="round" stroke-miterlimit="10" d="
		M553.5,281c2.9-0.1,5.4-0.3,7.4-0.3c2.7-0.1,4.4-0.2,6.3-0.2c1,0,1.9,0,2.5,0"/>
	<path fill="none" stroke="#000000" stroke-width="8" stroke-linecap="round" stroke-linejoin="round" stroke-miterlimit="10" d="
		M573.5,298.2c-1.8,0.8-3.6,1.5-5.5,2.3c0.2,1.1,0.4,2.8-0.5,4.5c-0.9,1.7-2.3,2.4-5.1,3.8c-2.2,1.1-4.3,2.5-6.6,3.5
		c-3.1,1.4-7.4,4-13,9.9"/>
	<path fill="none" stroke="#000000" stroke-width="7" stroke-linecap="round" stroke-linejoin="round" stroke-miterlimit="10" d="
		M531.6,301.2c3.3-3.2,5-6,5.9-8.1c0.5-1.1,1.2-2.7,2.6-4.5c1.4-1.6,2.9-2.7,4-3.3"/>
	<path fill="none" stroke="#000000" stroke-width="7" stroke-linecap="round" stroke-linejoin="round" stroke-miterlimit="10" d="
		M536.7,305c2.3-2.5,4.5-5.1,6.8-7.6c1.3-0.8,3.5-2,6.3-3.1c2.8-1.2,5.3-1.9,13.2-3.8c2.6-0.6,6-1.4,10.1-2.3"/>
	<path fill="none" stroke="#000000" stroke-width="7" stroke-linecap="round" stroke-linejoin="round" stroke-miterlimit="10" d="
		M540.8,309.7c1.1-0.8,2.6-1.9,4.5-3c0.6-0.4,2.8-1.5,6.1-2.6c2.1-0.7,3.5-1,5.8-1.5c2.3-0.5,5.6-1.3,9.7-2.3"/>
	<path fill="none" stroke="#000000" stroke-width="8" stroke-linecap="round" stroke-linejoin="round" stroke-miterlimit="10" d="
		M535.2,240.4c0.4,2.6,0.7,5.9,0.8,9.9c0.1,2.3,0,4,0,5.8c-0.1,4.4-0.3,7.1-0.5,10.2c-0.2,2.8-0.3,6.8-0.3,11.7"/>
	<path fill="none" stroke="#000000" stroke-width="8" stroke-linecap="round" stroke-linejoin="round" stroke-miterlimit="10" d="
		M380,434.3c16.4,5.1,37.4,9.9,61.8,11.2c49.3,2.6,88.8-10,112-19.6"/>
	<path fill="none" stroke="#000000" stroke-width="8" stroke-linecap="round" stroke-linejoin="round" stroke-miterlimit="10" d="
		M382.4,443.5c24.6,7.5,60.7,15.3,104.4,13.5c27.3-1.1,50.8-5.7,69.5-10.8"/>
	<path fill="none" stroke="#000000" stroke-width="8" stroke-linecap="round" stroke-linejoin="round" stroke-miterlimit="10" d="
		M448.2,951.1c1.8,0.4,3.3,0.4,4.2,0.2c3.4-0.4,4.6-2.2,10.4-4.7c1.9-0.8,2.8-1.3,4-1.5c2.9-0.6,4.6,0,8.4,0.2
		c1.5,0.1,3.6,0.2,6.2,0"/>
	<path fill="none" stroke="#000000" stroke-width="8" stroke-linecap="round" stroke-linejoin="round" stroke-miterlimit="10" d="
		M515,926.1c6.8,0.9,11.9-0.2,14.9-1c4.1-1.2,6.1-2.5,6.9-3.2c2.8-2.2,4.2-4.7,5-6.2c2.8-5.4,2.8-10.7,2.7-15.4
		c0-1.8-0.3-3.9-0.7-7.9c-1.3-11.1-1.9-16.6-2-16.8c-0.8-4.8-2.2-11.5-5.2-19.6"/>
	<path fill="none" stroke="#000000" stroke-width="8" stroke-linecap="round" stroke-linejoin="round" stroke-miterlimit="10" d="
		M408.8,685.1c5-2.8,12.5-6.2,22-8.2c12.3-2.5,22.1-1.5,25.8-1c6.6,0.9,12,2.5,15.9,4"/>
	<path fill="none" stroke="#000000" stroke-width="8" stroke-linecap="round" stroke-linejoin="round" stroke-miterlimit="10" d="
		M471.9,671.5c5.9,2.1,16.3,5,29.3,3.9c9.9-0.8,17.7-3.7,22.7-6"/>
	<path fill="none" stroke="#000000" stroke-width="9" stroke-linecap="round" stroke-linejoin="round" stroke-miterlimit="10" d="
		M392,316.5c-2.4,2.8-7.4,8-15.5,11.5c-8.2,3.6-15.6,3.6-19.3,3.4"/>
	<path fill="none" stroke="#000000" stroke-width="9" stroke-linecap="round" stroke-linejoin="round" stroke-miterlimit="10" d="
		M544,325.5c2.6,2.8,6.2,7.5,8.5,14c4.5,12.7,1.3,24-0.1,27.9"/>
</g>
<g id="vs-h-reveal">
	
		<path opacity="0" fill="none" stroke="#000000" stroke-width="71" stroke-linecap="round" stroke-linejoin="round" stroke-miterlimit="10" d="
		M532.9,19.2c-13.7-4.7-29.2-4-42.3,2.1c11.5,5.2,24.9,1.1,37.5,0.7s28.3,6.9,27.3,19.5c-30.9-0.9-61.9-1.8-92.8-2.7
		c-5.6-0.2-11.5-0.3-16.3,2.6c-4.8,2.8-7.7,9.7-4.5,14.2c37.2-2,79.1-2.4,106.1,23.4c-36.7,0.1-73.3,0.1-110,0.2
		c-6.3,0-13,0.1-18.3,3.5c-5.3,3.4-8.1,11.4-4,16.1c23.3-1.3,46.7-0.4,69.8,2.7c13.2,1.7,29.7,8.2,29.1,21.5
		c-33.7-0.6-67.5-1.2-101.2-1.9c-2.1,7.1,3.7,14.5,10.6,17c6.9,2.6,14.5,1.7,21.9,1.1c15.9-1.3,32-0.8,47.8,1.2
		c5.6,0.7,11.5,1.8,15.8,5.4c4.3,3.6,6.3,10.7,2.7,15c-52.9-6.7-106.8-5.2-159.2,4.3c-4.9,5.6-1.5,15,4.8,18.9
		c6.3,3.9,14.1,3.9,21.5,3.8c33.5-0.6,67-1.3,100.5-1.9c32.3-0.6,70.4,1.6,88.2,28.6c-61.9,0.1-123.8,0.3-185.7,0.4
		c-12.7,0-30.4,5.8-27.6,18.2c2,8.5,12.6,11.2,21.3,12c39.5,3.9,79.3,5.1,119,3.5c26.8-1,59.8,0,71.9,23.9
		c-61.8,3.6-123.8,3.5-185.7-0.3c-11.5-0.7-28,3.7-25.6,15c1.6,7.6,11,10,18.7,10.8c49.4,5.4,99.2,6.6,148.8,3.7
		c10.6-0.6,21.6-1.4,31.4,2.7c9.8,4.1,17.8,14.6,15.2,24.9c-67.7-0.8-135.5-1.6-203.2-2.4c-7.5-0.1-16.9,1.2-18.9,8.4
		c-2.8,10.1,11.7,15.2,22.2,15.3c61.6,0.7,123.2,1.3,184.7,2c4.1,0,8.9,0.4,11.3,3.7c5.4,7.4-6.7,14.9-15.8,16.1
		c-60.5,7.7-121.8,9.4-182.6,5.2c-4.5,6.1,4.9,12.9,12.3,14.7c32.1,7.5,65.1,11.2,98,10.9c22.2-0.2,44.6-2.2,66.4,1.6
		c6.9,1.2,15.4,5.7,13.7,12.5c-1.3,5.3-8,6.8-13.5,7.2c-47.4,3.2-96.3-6-141.8,7.7c-11.6,3.5-25.1,14.1-19.6,24.9
		c51.4,1.7,102.8,3.4,154.3,5.1c7.5,0.2,15.3,0.6,21.5,4.8c6.2,4.2,9.5,13.5,4.7,19.3c-70.1,14.5-145.6-8.5-213.3,15
		c0.6,17.1,23.5,22.1,40.6,21.9c30.5-0.3,60.9-0.6,91.4-0.9c23.4-0.2,49.3,0.5,66.2,16.8c2.1,2,4,4.3,4.8,7.1
		c3,11.3-13.3,16.9-25,17c-35.3,0.3-70.7,0.6-106,0.9c-7.1,0.1-14.5,0.2-20.8,3.5c-6.3,3.3-11,10.8-8.7,17.5
		c31.7,10.3,65.1,15,98.4,13.8c20.1-0.7,43.8-2.2,56.6,13.4c-42.2,27.3-99.1,13.7-146,31.6c-7,2.7-15.1,9.9-10.9,16.2
		c2.5,3.7,7.8,4,12.3,3.8c23.6-0.8,47.3-1.7,70.9-2.5c21.3-0.7,48.7,2.8,54,23.4c-33.9,0.1-67.8,0.3-101.8,0.4
		c-9.6,0-20.6,0.7-26.4,8.3c-7.3,9.5-1.2,24.3,9.2,30.2c10.4,5.9,23.1,5.4,35,4.6c17.9-1.3,36-3,53.7-0.1c11,1.8,24.2,9,22.2,20
		c-36.5,1.2-73,1.4-109.5,0.5c-2.5,17.1,12.7,32.5,29.2,37.3c16.6,4.8,34.2,1.8,51.4,0.1c17.2-1.7,35.7-1.7,50.1,7.9
		c-41.4,5.4-82.9,10.9-124.3,16.3c39.2,14.9,81.3,22,123.2,20.5c-31.8,3.7-63.7,7.5-95.5,11.2c38.4,5.2,76.3,13.4,113.4,24.4
		c-43.6,1-87.2,4.7-130.4,11.1c46.6,10.8,93.3,21.5,139.9,32.3c-41.3,15.9-93.7-7.8-129.6,18.2c44.7-2.6,90.3-5,133.4,7.1
		c-43.3,0-86.6,4.3-129.1,12.6c36.9,6.4,72.9,17.6,106.9,33.2c-28,0-55.9,0.1-83.9,0.1"/>
</g>
</svg>
