<?xml version="1.0" encoding="utf-8"?>
<!-- Generator: Adobe Illustrator 28.5.0, SVG Export Plug-In . SVG Version: 9.03 Build 54727)  -->
<svg isCommex="true" version="1.0" xmlns="http://www.w3.org/2000/svg" xmlns:xlink="http://www.w3.org/1999/xlink" x="0px" y="0px" width="998px"
	 height="1126px" viewBox="0 0 998 1126" enable-background="new 0 0 998 1126" xml:space="preserve">
<g id="Layer_3">
	<g>
		<path fill="#CCCCCC" d="M862.3,1038.6c-0.4-0.6-0.6-1.3-0.7-2.1L857,871.3l-1.1,0.2c-3.3,0.5-6.9,0.8-10.5,0.9
			c-4.9,0.2-12.9,0.4-24.4,0.7l-1.1,0l0.2,1.1c2.1,13.2,20.3,130.6,25.9,171.6l0.2,1.1l1.1-0.3c4-1,9.8-2.9,15-6.6l0.8-0.6
			L862.3,1038.6z"/>
		<path fill="#CCCCCC" d="M740.9,991.1l-2.1-116.2l-1,0c-5.6,0.1-11.2,0.2-17,0.4l-1,0l0,1c1.4,41.3,4.1,105.6,5.6,113.6l0.1,0.3
			c0.3,0.6,0.5,1.4,0.4,2.1l-0.1,1.1h15.6L741,992C741,991.7,740.9,991.4,740.9,991.1z"/>
		<path fill="#CCCCCC" d="M464.8,880.4l-1,0l-2.4,102.9l0,0.2l0.1,0.2c8.5,24.6,15.6,45,21.2,60.5l1.7,4.7l0.3-5
			c2.1-42,7.2-141.9,8.2-163l0-1.1l-1.1,0C481.8,880.1,472.7,880.2,464.8,880.4z"/>
	</g>
	<g id="vs-secondary">
		<path fill="#97C3FB" d="M331.3,903.3c-8.1-0.3-17.5-1-28.1-2c-19.6-1.9-22-5.4-29-20.1l-0.7-1.4c-4.5-9.5-9.7-20.3-13.4-30.3
			l-2.2-5.9l0.3,6.3c0.2,5,0.8,9.4,1.8,13c2.7,9.9,7,19.2,10.9,27.4l0.1,0.3c3.9,8.4,7,15,7.4,20.3c0.2,3.4-1.3,6.9-4.6,10.3
			l-0.3,0.3l-2.7,116.5l0.7,0.2c8.3,3.1,24.2,8.4,37,8.5c0.4,0,0.9,0,1.3,0c10.6,0,21.6-1.4,29.2-2.5l0.8-0.1l5.5-80.4
			c0.1-1,0.5-1.9,1.2-2.6l0.4-0.4l-14.8-57.2L331.3,903.3z"/>
		<path fill="#97C3FB" d="M818,675.9c-19,4.1-46.9,9.5-72.3,11.8c-5.6,0.5-12,0.8-19.1,0.8c-40.5,0-90.7-8.5-96.3-9.5l-0.8-0.1
			l-0.3,0.7c-15,37.1-18.7,38-20.7,38.5c-3.6,0.9-139.9,11.8-255.6,21l-1.1,0.1l0.2,1.1c2.2,11.4,6.6,34.6,11,61.6
			c0.5,3,0.9,5.9,1.4,8.9l0.1,1l1-0.2c4.8-0.8,10,0.3,14.8,3.1c7.1,4.2,11.5,11.3,11.7,18.9c0.5,14.6-19.8,58.8-25.2,64.9
			c-1.3,1.5-4.2,4.9-25.3,5l-1.3,0l39.5,152.6c0.2,0.7,0.2,1.5-0.1,2.2l-0.3,1l1,0.3c9.3,2.6,23.7,5.4,41.5,5.4c2.1,0,4.3,0,6.5-0.1
			c19.7-0.8,33-4.1,40.7-6.8c2.8-1,5.5-2.1,7.8-3.2l0.8-0.4l-0.3-0.8c-3.5-9.8-10.4-29.3-23.5-67l-0.1-0.2c-0.3-0.4-0.4-0.9-0.5-1.4
			l-9.3-26.9c-24.3-71-40.8-129.5-46.8-152.8c-2.3-9.1-2.4-10.3-2.4-10.5c0-2.2,1.8-4,4-4c1.5,0,3,0.9,3.6,2.3l0.6,1.3l1-1
			c6.1-5.9,14.4-9,24.9-9c45.8,0,276.9,0,326.3-0.4c39.9-0.2,60.9-18.3,62.3-53.9c0.9-23.7,1.4-48.5,1.5-53.2l0-1.3L818,675.9z"/>
	</g>
	<g id="vs-primary">
		<path fill="#517AD0" d="M540.1,392.4l-0.2-1.5l-1.3,0.7c-3.4,1.9-6.8,4-10,6.3l-2.9,2.1l5.3-0.4c0.4,5.2,2.3,30.2,3.7,47.9
			c0.7,9.5,1.5,17.6,2,22.7l0.2,2.5l13-16.8c0.9-1.1,2.2-1.7,3.6-1.5c1.4,0.2,2.6,1,3.2,2.3c0.6,1.2,13.9,29.8,18.3,55.2
			c2.1,12.2,3.5,20.9,4.3,26.1l0.6,4.1l1.3-3.9c4.4-12.9,8.2-24.7,11.2-35c1.4-4.8,2.7-9.9,3.8-15.2l0.2-1l-1.1-0.2
			c-0.5-0.1-1-0.2-1.4-0.5c-0.4-0.2-9.2-5.7-21.8-20.1c-12.5-14.2-22.4-26.4-26.5-42.7C542.9,412.6,541,399.3,540.1,392.4z"/>
		<path fill="#517AD0" d="M573.9,385.2c-1-3.2-2.3-4.1-3.2-4.5c-3.6-1.5-10.9,0.5-22.5,6.1l-0.6,0.3l0.1,0.7
			c0.4,3.3,2.5,20.5,5.9,33.6c3.7,14.6,12.6,25.5,24.8,39.4c9.1,10.3,15.9,15.7,18.5,17.5l1.3,0.9l0.3-1.6c0.3-1.7,0.6-3.4,0.9-5.1
			l0.1-0.3l-0.2-0.3c-5.9-11.4-17.8-34.1-20.8-38.8c-4.4-7.1-5-21.7-5-23.3c0-0.3,0-0.7,0.1-1l0.1-0.4l-0.2-0.4
			c-0.7-1.1-0.8-2.4-0.4-3.5C572.8,404.5,576.7,394.3,573.9,385.2z"/>
		<path fill="#517AD0" d="M814.4,517.6c-23.9-88.1-44.9-141.1-100.1-204.1c-3.7-4.2-7.4-8.3-11.1-12.2
			c-24.1-25.2-47.1-41.7-62.2-51.1c-12.5-7.9-22.6-12.7-28.8-15.5l-2-0.9l0.6,2.1c3,10.1,5.2,22.5,6.7,36.9
			c4.3,42.3,3.4,72.8,3.3,74.1c-0.1,2.2-1.8,3.9-4,3.9l-0.2,0c-2.2-0.1-3.9-1.9-3.8-4.2c0-1.3,1-31.2-3.3-73
			c-1.2-12-6.3-51.9-20.4-59.9c-5.6-3.2-40.6-8.5-51.7-9.3l-0.8-0.1l-0.2,0.8c-2,7.5-5.3,28.5-7.8,46l-0.1,0.9l0.9,0.2
			c7.6,1.5,14.1,2.9,18.9,3.9l1.6,0.3l-0.4-1.6c-0.8-3-1.3-6.8-1.6-11.3c-0.5-7.4,1.5-11.8,5.5-12.4c4.2-0.6,8.9,2.2,14.9,27.3
			c7.9,32.6,18.3,107,18.3,130.4c0,11.9-1.5,18.3-4.8,20.6l-0.4,0.3l0,0.5c0.1,2.9,0.5,6.2,1,9.1c0.7,4.3,1.6,7.4,2.8,9.2
			c2.5,3.9,10.2,18.4,14.5,26.7l1.5,2.9l0.4-3.3c3.2-29.8,2.6-55.5,2.5-55.7c0-1.1,0.3-2.1,1.1-2.8c0.7-0.8,1.7-1.2,2.8-1.3
			c1.1,0,2.1,0.3,2.8,1.1c0.8,0.7,1.2,1.7,1.3,2.8c0.1,3.7,0.8,37.3-4.6,72.8c-1.9,12.2-4.3,23.4-7.2,33.4
			c-11.8,40.4-31.7,91-35.5,100.8l-0.2,0.5l0.3,0.4c6.6,9,29.6,39.1,50.2,46.1c17.7,6.1,32.3,7.8,39.5,8.4l0.9,0.1l0.2-0.9
			c4-23,17.4-103.5,23.3-170.9c6.6-74.5,6.6-96.7,6.6-99c0-2.2,1.7-4,3.9-4.1c1.1,0,2.1,0.4,2.9,1.1c0.8,0.7,1.2,1.7,1.2,2.8
			c0,2.3,0.1,24.4-6.6,99.8c-6.9,78.1-24,175-24.2,175.9c-0.3,1.9-2,3.3-3.9,3.3c-0.4,0-9.6,0-23.6-2.9l-1-0.2l-0.2,1
			c0,0.3-0.1,0.5-0.2,0.8l-0.3,0.7c-0.1,0.3-0.2,0.6-0.3,0.9l-0.5,1.2l1.2,0.2c10.2,1.7,56.5,9,93.1,9c6.4,0,12.5-0.2,18-0.7
			c35.6-3.3,76.4-12.7,88-15.5l0.7-0.2l0-0.8C834.5,648.5,835.1,594.3,814.4,517.6z"/>
		<path fill="#517AD0" d="M552.8,467.7l-0.7-1.6l-15,19.3c-1,1.3-2.7,1.8-4.2,1.4c-1.6-0.4-2.7-1.8-2.9-3.4c0-0.1-1.8-15.2-3.3-35.3
			c-1.1-15-2.7-35-3.4-44.1l-0.1-2l-1.5,1.3c-0.7,0.6-1.5,1.3-2.2,1.9l-0.2,0.2l-0.1,0.3c-0.1,0.4-0.3,0.8-0.5,1.2
			c-1.7,2.7-16.9,27.3-27.5,55.8c-10.5,28.1-55.8,90.7-64.8,103l-0.4,0.6l0.4,0.6c1.9,2.9,5,7.5,9.3,12.6
			c7.2,8.6,14.9,15.6,22.8,20.6c12.9,8.2,22.1,10.9,27.5,11.8c1.6,0.3,3.1,0.4,4.5,0.4c1.4,0,2.6-0.1,3.6-0.4c2.4-0.6,3-1.8,3.2-2.2
			c3.6-6.8,40.7-82.7,56.5-114.9l0.9-1.9c0.9-1.8,3-2.7,4.9-2l1.9,0.7l-0.6-1.9C558.1,480.8,554.9,472.8,552.8,467.7z"/>
	</g>
	<g id="vs-skin">
		<path fill="#D3A37F" d="M625.4,664.7c-4.4-1.1-8.7-2.4-13-3.9c-14.7-5-29.9-19.9-40.1-31.4l-0.7-0.8l-0.8,0.7
			c-4.1,3.8-14.3,12.2-32.1,26.5c-0.4,0.3-0.9,0.6-1.4,0.7c-0.2,0.1-26.6,7.7-74.8,17.5c-15.5,3.2-31.5,6.2-47.4,9
			c-54,9.5-103,26.1-127.4,35.1l-0.3,0.1c-0.3,0.2-0.7,0.4-1.1,0.6c-0.3,0.1-0.6,0.2-0.9,0.2l-0.3,0.1c-9.3,3.5-14.7,5.8-14.8,5.8
			c-0.3,0.1-0.5,0.2-0.8,0.2l-0.4,0.1l-0.2,0.4c-0.3,0.4-0.6,0.8-1.1,1.1c-5.4,4.2-39.3,64.7-42.2,106.3
			c-1.3,18.1,0.6,39.3,5.1,58.3c4.4,18.4,10,29.2,13.3,31.4c1.3,0.9,3.1,1.3,5.2,1.3c3.8,0,8.7-1.4,13.2-4c1.4-0.8,2.6-1.6,3.7-2.6
			c2.6-2.1,4.3-4.4,4.1-5.8c-0.3-3.8-3.4-10.4-6.6-17.4l-0.1-0.2c-3.8-8.1-8.5-18.1-11.4-28.8c-5.5-20.2,0.9-55.4,1.7-59.3
			c0.4-2.1,2.3-3.5,4.4-3.2c2.1,0.3,3.6,2.1,3.5,4.2l-0.4,8c0,2.2,0.3,10.2,2.5,20.3c2.5,11.3,10.3,27.8,16.7,41.1l0.8,1.6
			c6.7,14.1,7.6,14.2,22.5,15.6c12.3,1.2,23,1.9,31.9,2.1c19.3,0.4,24.1-1.7,24.9-2.1l0.2-0.1l0.1-0.1c4.4-5.3,23.4-47.3,23-59.2
			c-0.2-4.9-3.1-9.5-7.8-12.3c-3.2-1.9-6.8-2.6-9.8-2l-0.9,0.2l0.1,0.9c2.8,23.8,1.3,32.3,1.3,32.4c-0.3,1.9-2,3.3-3.9,3.3
			c-0.2,0-0.5,0-0.7-0.1c-1.1-0.2-2-0.8-2.6-1.7c-0.6-0.9-0.8-1.9-0.6-3c0.1-0.4,1.3-9.6-1.9-34.2c-0.6-4.4-1.3-9.2-2.1-14.2
			c-6.1-37.2-12-66.5-12-66.8c-0.2-1.1,0-2.3,0.7-3.2c0.7-0.9,1.7-1.5,2.9-1.6c9.7-0.8,238.7-18.8,258.8-21.1l0.4,0l0.3-0.4
			c3.5-4.8,12.9-26.2,19.9-44.1l0.4-1L625.4,664.7z"/>
		<path fill="#D3A37F" d="M287.5,709.6l1-0.4c24.1-8.8,72.4-24.9,125.2-34.2c14.4-2.5,28.8-5.2,42.9-8.1l0.6-0.1l0.2-0.5
			c0.1-0.2,0.1-0.3,0.2-0.5l22.4-47l-1.1-0.3c-7.5-2.2-16-6.2-24.7-11.7c-7.1-4.5-14-10.3-20.6-17.5l-0.9-1l-0.7,1.1
			c-3.4,5.5-10.3,16.4-23.7,37.4c-22.9,35.7-45,46.9-46,47.3c-1.2,0.6-2.7,0.5-3.9-0.2c-0.4-0.3-0.8-0.6-1.2-1.1
			c-0.3-0.5-3.3-4.2-26.2-32.2c-25.6-31.4-86.5-168.1-93.3-183.6l-0.2-0.5l-0.5-0.1c-0.7-0.1-1.4-0.3-2-0.4l-0.7-0.2l-0.4,0.6
			c-4.8,7-12.1,8.7-16.1,9.1l-0.8,0.1l-0.1,0.8c-0.5,3.3-1.2,6.6-2,9.4c-4.1,13.1-11.2,16.3-16.6,16.7c-0.4,0-0.8,0-1.2,0
			c-11.8,0-24.9-12.5-31.8-19.9l-0.7-0.8l-0.7,0.8c-3.6,3.8-9.4,8.3-16.6,7.8c-3.8-0.3-9.6-2.8-21.5-20.1
			c-6.3-9.2-11.3-18.1-11.3-18.2c-0.1-0.3-0.3-0.5-0.3-0.8l-0.2-0.5l-0.5-0.2c-1.9-0.6-3-2.4-2.8-4.3l0.1-0.4
			c1.3-9.1,5.9-40.4,10.5-61.2c3.3-14.9,3.2-24.2-0.3-29.3c-2.1-3-5.8-4.9-11.2-5.6c-4.4-0.6-9.8,2.3-14.5,7.8
			c-9.3,10.8-17.1,32.8-11.3,62.4c0.7,3.5,1.5,7,2.6,10.6c15.6,53.2,20.8,56.4,25.9,59.3c5.3,3.1,25.8,8.4,61.1,15.8
			c26.7,5.6,40.8,5.6,40.9,5.6c1.7,0,3.2,1.1,3.8,2.6l0.1,0.4c6.4,17.7,38.5,107.1,43.4,128.3L287.5,709.6z"/>
		<path fill="#D3A37F" d="M89.3,342.7c4.6-5.4,9.9-8.9,15.3-10.2l1.6-0.4l-1.1-1.3c-4.6-5.1-11.3-7.8-18.1-7.4l0,0
			c-8.7,0.7-15.5,6.6-19.2,16.6c-0.3,0.8-0.5,1.6-0.8,2.4c-5.3,17.4-3.1,40,5.4,55l2.1,3.8l-0.3-4.4c-0.5-7.6-0.1-15.1,1-22.1
			C77.5,362.1,82.5,350.6,89.3,342.7z"/>
		<path fill="#D3A37F" d="M80.4,316.6l1.2-0.4l-0.7-1.1c-2.9-4.9-4.1-9.9-3.5-14.9c0.4-3.1,1.4-6.2,3.1-9.2l0.6-1.1l-1.2-0.4
			c-5-1.4-10.2-0.1-14.4,3.6c-10,8.9-8.6,25.2-4,37.5l0.7,2.1l1.1-2C67.4,323.7,73.3,318.8,80.4,316.6z"/>
		<path fill="#D3A37F" d="M237.6,447.4l-0.2,1l1,0.2c1.6,0.3,3.4,0.5,5.3,0.6c5.6,0.3,14.5-0.2,25.5-4.5c4.7-1.9,9.9-3.7,15.2-5.6
			c18.4-6.4,32.9-9.9,37.9-9.4c2.2,0.3,3.8,2.3,3.5,4.4c-0.3,2.2-2.3,3.8-4.4,3.5c-3.1-0.4-15.8,2.8-30.2,7.6l-0.7,0.2l0,0.7
			c0.1,2,0.2,5.5,0.4,9l0,0.1c0.6,10.7,1.3,25.4,0.9,32.6c-0.1,2.5-0.6,5-1.1,7.4l0,0.1c-1.7,9-2.9,15.5,10.5,22.2
			c8.2,4.2,20.2,6.6,32.2,6.6c2.6,0,5.1-0.1,7.6-0.3c16.9-1.5,30.4-7.9,38-17.8c17-22.1,0.2-57.1,0-57.5c-0.4-0.8-0.5-1.6-0.3-2.4
			l0.2-1.1l-1.1-0.1c-4.9-0.5-7.7-0.5-7.7-0.5c-2.2,0-4-1.8-4-4s1.8-4,4-4c0.8,0,20.2,0.1,45.9,9.5c22.5,8.2,50.5,4,65-9.7
			c5-4.7,9.4-10.1,14.1-15.9c4.8-5.9,10.3-12.7,17.1-19.2c7.2-7,14.9-12.6,23.5-17.1c1.7-0.9,3.6-1.9,5.6-2.9
			c16.5-8.3,25.9-10.6,32.5-8c0.9,0.3,1.7,0.8,2.5,1.4l1.8,1.3l-0.2-2.2c-2.5-29.8-9.9-80.1-16-107.7l-0.3-1.4l-1.2,0.8
			c-1.5,1-3.4,1.1-5.3,0.5c-2.1-0.7-18.6-4-32-6.7c-10.4-2.1-21.2-4.2-29.5-5.8l-0.7-0.1l-0.4,0.6c-2.6,4.6-6.4,8.3-11.3,11.2
			l-1,0.6l0.8,0.9c2.7,3.1,4.2,6.7,4.2,10.3c0.1,3.7-1.5,10.8-12.2,16.8c-11.9,6.6-26.4,8.6-34,9.1l-1.2,0.1l0.3,1.1
			c3.8,16.5,3.4,33-1.1,45.3c-0.4,1-1.1,1.8-2.1,2.3c-1,0.5-2.1,0.5-3.1,0.1c-2.1-0.7-3.2-3-2.4-5.1c4.3-12,4.2-30-0.4-45.7
			c-1.5-5-3.4-9.9-5.7-14.5c-5.5-11-16.1-25.4-35-31.1c-24.4-7.4-46.6-6.1-59.3,3.4c-8.2,6.1-12.2,15.2-12.1,26.9
			c0.4,30.8,24.9,38,26,38.3c1.1,0.3,2,1,2.6,2.1c0.5,1,0.6,2.2,0.1,3.3c-0.2,0.5-4.6,11.1-20,15.3c-8.7,2.4-17.5,2.7-23.4,2.5l-1,0
			l0,1c-0.2,6.4-2,16-9.4,26c-7.9,10.5-20.8,14.1-30.3,15.2l-1.2,0.1l0.4,1.2c0.1,0.4,0.3,0.7,0.4,1.2c2.1,6.8,1.3,13.2-2.3,18.6
			c-5.6,8.1-17.3,13-23.8,15.2l-1,0.4l0.4,1C236.4,432.1,238.9,439.8,237.6,447.4z M373.9,310.2l0.8,0.6l0.6-0.8
			c4.5-6.1,15.7-14.8,28.9-8.9c1.8,0.8,2.5,2.9,1.8,4.6c-0.8,1.8-2.9,2.6-4.6,1.8c-9.9-4.5-17.7,3.5-19.8,6l-0.8,1l1.2,0.6
			c7.2,3.5,15.9,5.6,25.8,6.4c0.9,0.1,1.8,0.5,2.4,1.2c0.6,0.7,0.9,1.6,0.8,2.5c-0.1,1.8-1.7,3.2-3.5,3.2c-0.1,0-0.2,0-0.3,0
			c-28.4-2.1-46.9-14.5-55.1-36.8l-0.1-0.3c-0.1-0.3-0.2-0.6-0.3-0.8c-0.9-1.7-0.2-3.8,1.5-4.7c0.5-0.3,1.1-0.4,1.7-0.4
			c0.3,0,0.7,0,1,0.1c0.9,0.3,1.6,0.9,2.1,1.7c0.3,0.5,0.5,1,0.8,2C361.8,298,366.9,305,373.9,310.2z"/>
	</g>
	<path fill="#4E4E4E" d="M912,213L912,213c-23.1-16.3-72.6-21-135.9-12.9c-22.5,2.9-38.3,9.6-48.2,20.5
		c-9.4,10.4-11.6,22.9-12.4,31.4c-2,20.6-4.3,41.4-4.7,45.3l-0.1,0.5l0.3,0.3c3.1,3.3,6.2,6.7,9.2,10.1
		c56.2,64.1,77.6,117.9,101.8,207.2c24.8,91.4,19.7,149.8,19.4,152.2c-0.2,1.7-1.4,3.1-3,3.5c-0.2,0.1-4.1,1-10.5,2.5l-0.8,0.2
		l0,0.8c0,0.3-0.4,28.3-1.5,55.8c-0.7,17.3-5.8,31.3-15.1,41.6c-11.9,13.1-30.5,19.9-55.2,20c-49.4,0.4-280.5,0.4-326.4,0.4
		c-16.6,0-22,9.4-23.3,12.3l-0.1,0.3l0.1,0.3c2.2,8.7,8.6,32.5,19.2,67.3l0.3,1l1-0.4c0.4-0.1,0.8-0.2,1.2-0.2
		c0.6,0,12.7-0.2,32.4-0.6l2.8-0.1c9.8-0.2,21.4-0.4,34.2-0.7c45-0.9,159-3.1,245.7-5c31.3-0.7,55-1.2,72.4-1.6
		c14.2-0.3,24.3-0.6,30.1-0.8c41.4-1.4,45.4-25,49.3-47.8c0.6-3.6,1.1-6.8,1.8-9.9C901,785.1,940,451,942.8,374.6
		C946.2,285.5,935.5,229.6,912,213z"/>
	<g id="vs-hair">
		<path fill="#4E4E4E" d="M430.3,282.8c1.8,3.6,3.4,7.5,4.8,11.5l0.2,0.7l0.8,0c4.6-0.2,20.6-1.5,32.7-8.2c5.3-2.9,8.1-6.4,8.1-9.7
			c0-3.2-2.7-6.5-6.9-8.7c-1.4-0.7-2.3-2.2-2.1-3.8c0.1-1.6,1.2-3,2.7-3.5c14.8-5.1,20.2-15.5,18-34.8c-0.3-2.9-1.5-5.1-3.8-6.8
			c-7-5.2-21.7-4-26.8-3.1c-1.7,0.3-3.4-0.5-4.3-2.1c-4.2-8.1-17.8-30.2-30.4-34.5c-15.1-5.1-32,4.2-32.1,4.3
			c-1.7,0.9-3.8,0.5-5.1-1c-0.2-0.3-24.9-30.8-35.2-40.4c-3.5-3.3-11.5,1.6-20.1,7.3c-7.6,5.1-14.2,9.5-19,5.6
			c-4.2-3.5-29.4-15.8-47.9-24.7c-2.5-1.2-4.5-2.2-5.9-2.9c-2.3-1.1-5.1,2.7-8.6,8c-3.3,4.9-7,10.5-12.4,8.7
			c-2.2-0.7-5.4-2.6-9.7-5.1l-0.3-0.2c-7.9-4.7-20-11.7-28.7-12.6c-9.4-0.9-19.5,11.7-22.6,16.6c-0.9,1.5-2.8,2.2-4.5,1.7
			c-6-1.7-17.2-3.3-21.9-0.4c-4.3,2.6-4.1,14.1-3.4,19.3c0.2,1.3-0.3,2.6-1.2,3.4c-0.9,0.9-2.2,1.3-3.5,1.1
			c-5.1-0.9-19.9-1.9-21.5,4.9c-0.9,3.7-0.8,6.9-0.7,9.7c0.2,5.5,0.5,12.3-10,14.7c-6.6,1.5-15.1,6.3-18,12
			c-1.2,2.4-1.3,4.7-0.3,7.1c8.3,19.5,9,21.6,8.6,23.7c-0.3,1.9-1.5,2.8-3.9,4.5c-4.5,3.3-13.9,10.1-12.7,18.4
			c1.7,11.5,8.6,19.3,9.4,20.2c0.8,0.8,1.2,1.9,1.1,3.1c-0.1,1.1-0.6,2.2-1.4,2.8c-0.1,0-5.8,4.7-6.6,11.6
			c-0.4,4.3,1.1,8.7,4.7,13.1c0.2,0.2,0.3,0.5,0.5,0.7l0.2,0.5l0.6,0.1c10,0.9,19.1,6.9,23.7,15.6c0.2,0.4,0.4,0.8,0.4,1.3l0.1,0.6
			l0.6,0.2c5,1.5,8.9,4.1,11.5,7.9c5,7.1,5.5,18.1,1.6,35.6c-4.6,20.9-9.3,52.7-10.2,58.9l-0.1,0.8l0.7,0.3c0.8,0.4,1.5,1,1.9,1.7
			c8.8,15.8,21.3,33.3,26.4,34.2c6,0.4,11.6-6.4,13.2-9.1c0.7-1.1,1.9-1.8,3.2-1.9c1.3-0.1,2.6,0.5,3.4,1.5
			c7.1,8.8,20.6,21.6,29.4,21.6c0.2,0,0.5,0,0.7,0c8.8-0.7,11.4-17,11.7-23.2c0-1.1,0.6-2.2,1.4-2.9c0.9-0.7,2-1,3.1-0.9
			c0.4,0.1,10.7,1.2,14.7-8.1l0.1-0.2v0c4.1-9.9-4-23.2-4.4-23.7c-0.7-1.1-0.8-2.5-0.3-3.7c0.5-1.2,1.5-2.1,2.8-2.4
			c5.2-1.3,19.9-6.2,25.1-13.7c5.5-8-1.6-17.6-1.7-17.7c-0.9-1.2-1-2.9-0.3-4.3c0.7-1.4,2.1-2.2,3.7-2.1c2.2,0,22.2,0,31.5-12.5
			c9.8-13.1,7.7-25.3,7.6-25.8c-0.2-1.3,0.1-2.6,1-3.5c0.9-0.9,2.2-1.4,3.5-1.2c1.4,0.2,14.1,1.4,26-1.9c4.6-1.2,8.4-3.3,11.3-6.1
			l1-1l-1.3-0.6c-3.5-1.7-6.7-3.9-9.6-6.4c-7.2-6.2-15.8-17.6-16-37.1c-0.2-14.2,5.1-25.8,15.3-33.4c15-11.3,39.2-13,66.5-4.7
			C407.6,252.8,421.4,264.9,430.3,282.8z"/>
	</g>
</g>
<g id="Layer_2">
	<path fill="none" stroke="#000000" stroke-width="10" stroke-linecap="round" stroke-linejoin="round" stroke-miterlimit="10" d="
		M118.1,440.4c0,0,19.8,35.6,29.6,36.2s16.9-11,16.9-11s19.3,24.1,33.6,23s15.4-27,15.4-27s13.6,1.8,18.9-10.5
		c5.3-12.3-4.6-27.7-4.6-27.7s20.2-4.8,27.4-15.4c7.2-10.5-1.8-22.4-1.8-22.4s23.7,0.9,34.9-14c11.2-14.9,8.3-29,8.3-29
		s14,1.8,27.7-2c13.6-3.7,17.3-12.9,17.3-12.9s-28.5-7.5-29-42.1s34-47.2,76.6-34.2c42.6,12.9,53.6,69.1,43.7,96.6"/>
	<path fill="none" stroke="#000000" stroke-width="10" stroke-linecap="round" stroke-linejoin="round" stroke-miterlimit="10" d="
		M434.8,299c0,0,20.6-0.2,36-8.8c15.4-8.6,11.2-20.2,1.1-25.5c17.8-6.1,22.8-19.8,20.6-39.1c-2.2-19.3-35.3-13.4-35.3-13.4
		s-15.8-30.7-32.7-36.4c-16.9-5.7-35.3,4.6-35.3,4.6s-25-30.9-35.6-40.8c-10.5-9.9-33.4,17.6-39.3,12.7
		c-5.9-4.8-44.8-23.3-54.6-28.1c-9.9-4.8-15.6,18.4-21.5,16.5c-5.9-2-25.5-16.7-39.5-18c-14-1.3-26.3,18.4-26.3,18.4s-17.1-4.8-25,0
		c-7.9,4.8-5.3,23.3-5.3,23.3s-23.3-4.2-26.1,7.9s3.5,18.9-7.7,21.5c-11.2,2.6-26.1,12.7-21.1,24.6c5,11.9,8.6,20.2,8.3,21.5
		c-0.2,1.3-18.7,10.5-16.7,24.1c2,13.6,10.5,22.4,10.5,22.4s-16.5,12.9-2.4,30.3"/>
	<path fill="none" stroke="#000000" stroke-width="10" stroke-linecap="round" stroke-linejoin="round" stroke-miterlimit="10" d="
		M84.5,287.2c-17.1-8.8-39.7,10.5-26.8,45l3.1,7.7"/>
	<path fill="none" stroke="#000000" stroke-width="10" stroke-linecap="round" stroke-linejoin="round" stroke-miterlimit="10" d="
		M111.5,333c-9.2-17.1-37.7-21.1-47.4,5.7S63,398,78.4,411.4"/>
	<path fill="none" stroke="#000000" stroke-width="10" stroke-linecap="round" stroke-linejoin="round" stroke-miterlimit="10" d="
		M114.8,437.1c0,0,5.3-37.5,10.5-61.2c5.3-23.7,3.1-37.3-14.9-39.7s-42.8,34-27.7,85.8s20.6,57.5,27.7,61.7s34.9,10.5,62.3,16.2
		s41.7,5.7,41.7,5.7s38.4,106.2,43.5,128.4l27.2,81"/>
	<path fill="none" stroke="#000000" stroke-width="10" stroke-linecap="round" stroke-linejoin="round" stroke-miterlimit="10" d="
		M232.5,451.1c0,0,15.1,6.4,38.2-2.6c23-9,45.6-15.4,51.1-14.7"/>
	<path fill="none" stroke="#000000" stroke-width="10" stroke-linecap="round" stroke-linejoin="round" stroke-miterlimit="10" d="
		M370.1,440.6c1.8,0,20.4,0.4,44.6,9.2c24.1,8.8,53.3,4.4,69.1-10.5c15.8-14.9,25.9-36.7,53.8-51.6c27.9-14.9,36.9-14.3,40.2-3.7
		c3.3,10.5-1.1,21.9-1.1,21.9s5.9,6.6,5.9-16.9s-10.5-97.7-18.2-129.5s-13.2-26.8-12.5-16c0.7,10.5,2.6,13.8,2.6,13.8l4.8-0.7
		c0,0,0.9,6.8-3.1,5.5c-4-1.3-62.3-12.7-62.3-12.7"/>
	<path fill="none" stroke="#000000" stroke-width="9" stroke-linecap="round" stroke-linejoin="round" stroke-miterlimit="10" d="
		M354.7,288.9c1.5,2.9,7.9,32.7,52.7,36"/>
	<path fill="none" stroke="#000000" stroke-width="9" stroke-linecap="round" stroke-linejoin="round" stroke-miterlimit="10" d="
		M377.7,312.6c0,0,10.3-14.9,25-8.3"/>
	<path fill="none" stroke="#000000" stroke-width="10" stroke-linecap="round" stroke-linejoin="round" stroke-miterlimit="10" d="
		M286.4,444.3c-0.4,0.4,2,32.3,1.3,43.5c-0.7,11.4-8.6,23.5,11.6,33.6c20.2,10.3,64.1,11.6,82.7-12.7s0.4-61.7,0.4-61.7"/>
	<path fill="none" stroke="#000000" stroke-width="10" stroke-linecap="round" stroke-linejoin="round" stroke-miterlimit="10" d="
		M241.4,455.3c0,0,66.5,150.6,92.8,182.8c26.3,32.3,26.3,32.5,26.3,32.5s21.7-10.5,44.3-45.9s26.8-42.4,26.8-42.4"/>
	<path fill="none" stroke="#000000" stroke-width="10" stroke-linecap="round" stroke-linejoin="round" stroke-miterlimit="10" d="
		M515.3,404.8c0,0-16.5,25.9-27.9,56.6c-11.4,30.7-66.3,104.7-66.3,104.7s13.2,23.5,35.1,37.3c21.9,13.8,40.2,16.5,44.6,8.1
		s57.5-117,57.5-117"/>
	<path fill="none" stroke="#000000" stroke-width="10" stroke-linecap="round" stroke-linejoin="round" stroke-miterlimit="10" d="
		M527,398.9c0,0,2.2,29,3.7,48.9c1.5,20.2,3.3,35.1,3.3,35.1l19.1-24.6c0,0,13.6,29.2,18,54.2c4.4,24.8,5.9,38,5.9,38"/>
	<path fill="none" stroke="#000000" stroke-width="10" stroke-linecap="round" stroke-linejoin="round" stroke-miterlimit="10" d="
		M543.4,386.6c0,0,2.2,20.4,6.1,35.8c4,15.4,13.2,26.8,25.7,41c12.5,14.3,20.8,19.3,20.8,19.3"/>
	<path fill="none" stroke="#000000" stroke-width="10" stroke-linecap="round" stroke-linejoin="round" stroke-miterlimit="10" d="
		M577.2,409.6c0,0,0.4,14.9,4.4,21.3c4,6.1,21.5,40.2,21.5,40.2"/>
	<path fill="none" stroke="#000000" stroke-width="10" stroke-linecap="round" stroke-linejoin="round" stroke-miterlimit="10" d="
		M608,399.3c0,0,1.8,59.3-11.6,104.9c-13.4,45.6-36.4,102.9-36.4,102.9s28.1,41,53.8,49.8c25.7,8.8,45,8.8,45,8.8
		s17.1-96.6,24.1-175.6s6.6-99.4,6.6-99.4"/>
	<path fill="none" stroke="#000000" stroke-width="10" stroke-linecap="round" stroke-linejoin="round" stroke-miterlimit="10" d="
		M524.1,253.8c0,0,7.2-52.7,9.9-53.3s49.4,5.5,57.1,9.9s18,19.8,22.4,63c4.4,43.2,3.3,73.5,3.3,73.5"/>
	<path fill="none" stroke="#000000" stroke-width="10" stroke-linecap="round" stroke-linejoin="round" stroke-miterlimit="10" d="
		M609.1,229.2c0,0,53.8,19.3,108.2,81.6c54.4,62.1,76.2,114.1,101,205.6c24.8,91.5,19.3,150.8,19.3,150.8s-49.4,12.5-92.2,16.5
		S630.6,675,630.6,675"/>
	<path fill="none" stroke="#000000" stroke-width="10" stroke-linecap="round" stroke-linejoin="round" stroke-miterlimit="10" d="
		M569.8,624.7c-0.7,1.5-33.6,27.9-33.6,27.9s-43.2,12.5-121.8,26.3s-145.5,42.1-145.5,42.1"/>
	
		<line fill="none" stroke="#000000" stroke-width="10" stroke-linecap="round" stroke-linejoin="round" stroke-miterlimit="10" x1="484.6" y1="618.4" x2="461.1" y2="667.5"/>
	<path fill="none" stroke="#000000" stroke-width="10" stroke-linecap="round" stroke-linejoin="round" stroke-miterlimit="10" d="
		M629.9,667.1c0,0-18,46.1-22.4,47.2S347,735.6,347,735.6s5.9,29.2,12.1,66.9s4,49.8,4,49.8"/>
	<path fill="none" stroke="#000000" stroke-width="10" stroke-linecap="round" stroke-linejoin="round" stroke-miterlimit="10" d="
		M362.4,816.8c9.9-5,25.2,3.7,25.7,16.9c0.4,13.2-19.1,56.4-24.1,62.1c-5,5.9-42.1,3.3-60.4,1.5c-18.2-1.8-19.3-4.4-25.9-18.2
		c-6.6-13.8-14.9-31.2-17.6-43.2c-2.6-12.1-2.6-21.3-2.6-21.3l0.4-8.1c0,0-7.2,37.3-1.8,57.5s17.6,38,18.2,47.2
		s-22.4,21.5-32.5,14.7c-10.1-6.8-23-52.2-20.2-93.3c2.9-41,36.4-104,43.9-109.3"/>
	<path fill="none" stroke="#000000" stroke-width="10" stroke-linecap="round" stroke-linejoin="round" stroke-miterlimit="10" d="
		M823.3,673.7c0,0-0.4,29.2-1.5,56.6c-1.1,27.4-14.3,57.5-66.3,57.7c-52,0.4-304,0.4-326.4,0.4s-27.4,15.8-27.4,15.8"/>
	<path fill="none" stroke="#000000" stroke-width="10" stroke-linecap="round" stroke-linejoin="round" stroke-miterlimit="10" d="
		M399,794.8c0,1.8,16.9,68.5,48.9,162c32.3,93.7,37.7,107.5,37.7,107.5"/>
	
		<line fill="none" stroke="#000000" stroke-width="10" stroke-linecap="round" stroke-linejoin="round" stroke-miterlimit="10" x1="335.8" y1="901.9" x2="376" y2="1057.1"/>
	
		<line fill="none" stroke="#000000" stroke-width="10" stroke-linecap="round" stroke-linejoin="round" stroke-miterlimit="10" x1="350.1" y1="959" x2="343.7" y2="1043.9"/>
	
		<line fill="none" stroke="#000000" stroke-width="10" stroke-linecap="round" stroke-linejoin="round" stroke-miterlimit="10" x1="269.5" y1="920.6" x2="266.7" y2="1042.8"/>
	<path fill="none" stroke="#000000" stroke-width="10" stroke-linecap="round" stroke-linejoin="round" stroke-miterlimit="10" d="
		M427.6,877.1c0,0,366.1-7,417.7-8.8c51.6-1.8,49.8-38,54.9-60.8c5-22.6,43.9-356.6,46.7-432.8s-4-144.9-32.5-165
		s-87.3-20.2-138.7-13.6c-51.4,6.6-61.9,32.5-64.1,55.5c-2.2,23-4.8,46.5-4.8,46.5"/>
	
		<line fill="none" stroke="#000000" stroke-width="10" stroke-linecap="round" stroke-linejoin="round" stroke-miterlimit="10" x1="459.8" y1="879.1" x2="457.4" y2="984.4"/>
	<path fill="none" stroke="#000000" stroke-width="10" stroke-linecap="round" stroke-linejoin="round" stroke-miterlimit="10" d="
		M496.9,877.1c0,4-9,180.4-9,180.4"/>
	<path fill="none" stroke="#000000" stroke-width="10" stroke-linecap="round" stroke-linejoin="round" stroke-miterlimit="10" d="
		M815.4,870.7c0,0,28.1,180.8,28.1,188.7"/>
	
		<line fill="none" stroke="#000000" stroke-width="10" stroke-linecap="round" stroke-linejoin="round" stroke-miterlimit="10" x1="861" y1="871.6" x2="865.6" y2="1036.4"/>
	
		<line fill="none" stroke="#000000" stroke-width="10" stroke-linecap="round" stroke-linejoin="round" stroke-miterlimit="10" x1="742.7" y1="872.5" x2="744.9" y2="991"/>
	<path fill="none" stroke="#000000" stroke-width="10" stroke-linecap="round" stroke-linejoin="round" stroke-miterlimit="10" d="
		M715.7,875.4c0,0,4,116.1,6.1,116.5"/>
</g>
<g id="Layer_4">
	
		<polyline opacity="0" fill="none" stroke="#000000" stroke-width="29" stroke-linecap="round" stroke-linejoin="round" stroke-miterlimit="10" points="
		210,126.7 99.9,192.2 97.2,217.1 232.5,142.5 281,142.3 92.7,252 90.8,268 307.3,145.2 364,140.1 97,285.4 97.7,311 361.8,159.4 
		382.4,172.3 118.1,319.4 136.6,336 407.4,183.3 442.1,196.2 476.3,224 480,242.2 410.9,200.4 409,206.2 467.9,256 462.4,261.4 
		468.3,277.1 398.5,208.4 381,216 454.1,278.5 450.5,281.8 442.1,285.1 427.6,263.6 396,241.8 364.7,228.8 336.6,235.3 306.6,250.5 
		142.1,355.9 136.6,378.4 304.1,270.2 296.8,300.3 135.2,402.1 131.2,422.4 303.3,312.6 319.7,330.8 295.3,332.9 273.9,352.6 
		132.2,438.3 139.1,447.4 277.1,360.6 238,381 244.1,397.3 241.4,404.8 148.6,457.6 149.3,461.6 174.7,453.3 195.5,475.8 
		198.4,455.3 208.5,440.2 218,443.5 216.9,431.8 	"/>
	
		<polyline opacity="0" fill="none" stroke="#000000" stroke-width="39" stroke-linecap="round" stroke-linejoin="round" stroke-miterlimit="10" points="
		370.1,247.2 285.8,302.6 285.8,336 401.7,261.5 427.6,263.6 228.7,401.4 241.4,434.7 442.1,285.1 489.8,264 273.4,444.3 
		287.6,471.1 512,273.7 531.1,273.7 299.5,493.4 313.7,510.6 552,277.1 552,294 343.1,510.6 444.5,442.5 558.4,316.8 559.9,350.1 
		566,358.8 533.3,367.5 504.4,390.9 480,418.7 470.6,440.4 	"/>
	
		<path opacity="0" fill="none" stroke="#000000" stroke-width="60" stroke-linecap="round" stroke-linejoin="round" stroke-miterlimit="10" d="
		M85.3,301.2l-22,29.7l31.3-2.5c0,0-25.3,52-20,51.8c5.3-0.2,43.5-22.2,43.5-22.2l-27.3,71.7h15.4l5.3,23.6l49.3,22.5l43.3,20.3
		l17.1-16.9l31.9,28l-19.5,27.5h59.5l-44.1,44l55.6-4.9l-35.1,60.5l50.4-17.9l-48.2,46.4l149.4-44.3l39.9,20l-45.3,15.5l-120.1,30.7
		l-33.5,25.1l296.1-60.6l24.1,24.7l16.7,4.7l-9,10.4l-54.2,1.1l-116.7,14.7l-88.1,5.1L232,745.9l-3.8,22.3l93.2-19.6l9.9,40.9
		l4.6,45.2l23.6,8.8l-9.3,26.7l-47.7-4.5l-13.2-34.3l2.2-33.2l-46.9-3.4L225.3,807l0.1,42.5c0,0,9.8,39.8,9.8,41.4
		c0,1.6,6.2,11,6.2,11"/>
	
		<path opacity="0" fill="none" stroke="#000000" stroke-width="60" stroke-linecap="round" stroke-linejoin="round" stroke-miterlimit="10" d="
		M536.8,242.2c3.3-3.3,24.8-29.4,24.8-29.4l28.6,14.7l-50.1,57.9l18.3,31.4c0,0,57.7-58.3,62.6-57.4c4.9,0.8,38.4,26.1,38.4,26.1
		L508.6,404.8l-20.2,74.4l192.7-166.6l25.6,27.4L436.4,569.1l25,26.2l262.1-230.8l17,29.4l-256,221.8l88.7-20.7l185.2-176.5
		l11.4,38.4L590.2,624.7l53.4,14.4l137.9-150.5l10.4,30L649.1,650l47.4,3.3l100.8-105.7l4.9,28.9l-82.8,82.3l53.9-10.9l37.1-2.2
		l-4.4-38.1l-22.9,21"/>
	
		<polyline opacity="0" fill="none" stroke="#000000" stroke-width="60" stroke-linecap="round" stroke-linejoin="round" stroke-miterlimit="10" points="
		796.2,731.2 773.3,755.7 715.7,755.7 788.5,709.6 796.2,675.6 727.5,709.6 692.7,755.7 666,759.7 693.2,709.6 674.5,704.5 
		644.2,757.4 590.2,759.7 645.8,680.5 573.4,735 558.4,761.7 507.4,759.7 533.5,732.3 485.7,731.2 472.9,761.7 449.1,761.7 
		453.5,739 409.9,745.4 370.1,749.2 413.7,765 356.5,786.8 368.5,808.6 244.8,873.7 261.7,907.8 376,829.3 391.9,871.6 260,967.3 
		266.7,993.3 401.7,907.2 409.9,938.8 268.9,1027.1 314,1039.6 419.3,959.1 427.6,981.7 388.1,1026 391.9,1042.8 436.4,1015.6 
		449.6,1043.9 412,1059.5 	"/>
	
		<path opacity="0" fill="none" stroke="#000000" stroke-width="100" stroke-linecap="round" stroke-linejoin="round" stroke-miterlimit="10" d="
		M796.2,215.8l-100.5,51.5l9.8,54.8l173.3-106.3l42.5,53.1l-158.5,96l8.1,44.8l164.3-81.2l-5.7,67.2l-121.8,83.6l12.2,55.7
		l113.9-50.3l-98.8,116.9l54.5,4.1c0,0-62.7,83.4-59.9,84.2c2.7,0.8,59.9-5.3,59.9-5.3L861,776.2h-50.7l42.2,36.2l-69.5,4.1l-180,9
		l-151-3.3l-61.6,3.3"/>
	
		<polyline opacity="0" fill="none" stroke="#000000" stroke-width="100" stroke-linecap="round" stroke-linejoin="round" stroke-miterlimit="10" points="
		480,874.9 477.1,923.8 461.4,1029.8 	"/>
	
		<polyline opacity="0" fill="none" stroke="#000000" stroke-width="100" stroke-linecap="round" stroke-linejoin="round" stroke-miterlimit="10" points="
		715.7,867.4 721.9,901.9 715.7,971.8 	"/>
	
		<polyline opacity="0" fill="none" stroke="#000000" stroke-width="100" stroke-linecap="round" stroke-linejoin="round" stroke-miterlimit="10" points="
		838,870.3 846.9,927.8 846.9,1025.7 	"/>
</g>
</svg>
