<?xml version="1.0" encoding="utf-8"?>
<!-- Generator: Adobe Illustrator 24.3.0, SVG Export Plug-In . SVG Version: 6.00 Build 0)  -->
<svg isCommex="true" version="1.1" id="Layer_3" xmlns="http://www.w3.org/2000/svg" xmlns:xlink="http://www.w3.org/1999/xlink" x="0px" y="0px"
	 width="483.7px" height="460px" viewBox="0 0 483.7 460" enable-background="new 0 0 483.7 460" xml:space="preserve">
<path fill="#808080" d="M275.3,282.7c-3.1-5.3-10.2-8.6-12.7-9.3l-0.4-0.1l-0.4,0.2c-3.8,2.1-8.2,3.4-13.2,3.9l-0.8,0.1l-0.1,0.8
	c-0.2,3.5-1.5,9.6-7.5,11.5c-1.8,0.5-4.5,1.1-8.6,1.8l-0.6,0.1l-0.2,0.5c-0.2,0.5-0.5,1.5-0.8,2.5c-0.1,0.2-0.1,0.3-0.1,0.4
	c0,0,0,0.1,0,0.1l-0.8,1.5l1.7-0.1c8.4-0.4,11.5,4.4,12.1,5.3l0.3,0.5l0.6,0c1.4-0.1,3,0,5.2,0.2c4.1,0.5,7.5,0.8,10.5,0.8
	c10.1,0,14-3.4,16.7-12.3C277.1,288.1,276.8,285.3,275.3,282.7z"/>
<path fill="#FFBEBD" d="M239.3,302.1c-1.6-1.5-5.4-3.7-12.9-1.7c-9.9,2.5-14.7,9.2-16,11.1l-0.4,0.7l0.6,0.6
	c2.2,2.1,5.7,3.1,10.6,3.1c0.4,0,0.9,0,1.4,0c5.8-0.2,7.8-2.9,10.1-5.9l0.2-0.3c1.6-2.2,3.2-4.5,6.2-5.8l1.3-0.6L239.3,302.1z"/>
<g id="vs-primary">
	<path fill="#97C3FB" d="M380.8,206.1c-3.3-3.7-7.4-7.1-11.7-9.6c-5.6-3.3-9.8-3.1-12.4-2.4c-1.7,0.3-2.8,1-3.3,1.3l-0.2,0.1
		l-0.8,1.6c-3.1,6.1-12.5,24.6-21.5,38.1c-4.2,6.4-13.1,19.2-31.4,44c-0.5,0.6-0.8,1.1-0.9,1.3l-0.8,0.8l0.4,0.7
		c3.1,5.4,7.4,14.4,9.9,26.5c3.5,17,3.6,29.8,3.6,31.2c0,0.7-0.4,1.2-0.7,1.5c-0.4,0.3-0.8,0.5-1.3,0.5c-0.1,0-0.1,0-0.2,0
		c-0.1,0-0.2-0.1-0.4-0.1l-22.4-4.9c-1.1-0.3-1.8-1.4-1.6-2.4c0.3-1.1,1.4-1.8,2.4-1.6l20,4.4l-0.1-1.3c-0.2-3.5-0.8-14.2-3.4-26.6
		c-2.1-10.2-5.6-18.2-8.2-23.1l-1.7-3.2l-0.2,3.6c-0.3,7.3-0.9,16.6-2.2,22.9c-1,5.4-4.5,10.9-10.2,16.4l-0.3,0.3v0.4
		c0,0.1,0,0.4-0.1,0.7l0,0c-0.4,1.2-3.3,10.9-2.9,22.5c0.5,11.6-1,19.6-1.2,20.6l0,0.1c-0.1,0.7-0.7,1.3-1.5,1.5l-0.1,0
		c-0.1,0-0.2,0-0.3,0c-0.7,0-1.2-0.4-1.5-0.7l-24.8-30.3l-0.4,0c-20.5-1.6-37.3-5.7-47.2-11.4c-0.2-0.1-0.4-0.3-0.8-0.3h-2l1.2,1.6
		c5.4,7.2,11.5,15.4,15.3,19.9c3.6,4.2,7.1,7.8,10.8,11.2l0.8,0.7l10.9-13.9c0.6-0.8,1.9-1,2.8-0.3c0.4,0.3,0.7,0.8,0.7,1.3
		c0.1,0.5-0.1,1.1-0.4,1.5l-12.1,15.5c-0.4,0.5-1,0.8-1.6,0.8c-0.4,0-0.9-0.1-1.2-0.4c-0.1,0-0.1-0.1-0.2-0.2
		c-4-3.2-8.8-8-13.5-13.6c-6.6-7.7-19.5-25.4-26.6-35.3l-0.4-0.6c-0.2-0.4-0.4-0.8-0.4-1.2V316l-0.2-0.3c-1-1.3-1.9-2.6-2.6-3.8
		l-0.3-0.5H181c0,0,0,0,0,0c-1-0.7-8.7-5.9-24.1-18.1c-11.2-8.9-23.2-20.5-29.4-26.7l-1.1-1.1l-0.5,1.5c-0.1,0.2-0.1,0.4-0.1,0.6
		c0,0.1,0,0.2-0.1,0.4c-1,4.2-7,16.5-17,26.9c-3,3.1-5.5,5.4-7.6,7.1l-1.2,0.9l95.5,53.5c0.6,0.3,1,1,1,1.7l0.2,48.2
		c0,0.2-0.1,0.5-0.2,0.8l-0.4,0.9l0.8,0.5c3.5,2,10.6,4.3,24.4,4.3c8.5,0,19.6-0.9,34-3.4c49.7-8.7,80.1-31.1,93.8-43.6l0.6-0.5
		l-0.3-0.7c-1.9-3.8-7.5-16.3-12.4-27.3l-1.1-2.5c-11.5-26-12.4-28.7-12.4-29.3c0-0.8,0.7-2.2,9.9-13.7c4.8-6,12.3-15.1,19.4-22.7
		c13.2-14.4,34.5-44.6,34.9-50.6C387.4,215.4,385,210.8,380.8,206.1z"/>
</g>
<g id="vs-skin">
	<path fill="#FCD9CA" d="M389.5,154.2c-7.2-2.4-28.7,4.5-41.7,10.2c-4.7,2-10.2,5.2-16.2,8.5l-1.2,0.7
		c-11.7,6.6-22.8,12.8-28.8,12.4c-9.6-0.6-13.2-16.1-17.1-32.6l-0.4-1.6c-1.7-7.3-6.5-15.3-13.3-21.9c-6.4-6.3-13.6-10.4-19.2-11.1
		c-7.2-0.9-12.2,2.8-14.3,6.2c-1.1,2-1.3,3.9-0.6,5c1.3,1.7,3.6,2.8,6.8,4c3.6,1.4,7.4,3,10.9,6.1c7.2,6.3,14.5,19.4,18.9,29.6
		c3.7,8.7,6.4,17.6,9.3,27.1c0,0.1,0.1,0.3,0.1,0.5c0.1,0.2,0.1,0.4,0.2,0.5l0.1,0.4l0.4,0.2c0.6,0.3,1.1,0.9,1.1,1.5l0.1,0.4
		l0.2,0.3c0.8,0.8,2.6,1.8,6.7,1.8c2.5,0,5.8-0.4,10.2-1.3c18.1-4,58.1-14,62.6-15.1l0.1,0c0.5-0.1,1,0,1.5,0.2
		c0.5,0.3,0.8,0.7,0.9,1.3c0.2,0.6,0,1.4-0.4,1.8l-1.1,1.1l1.4,0.6c1.2,0.5,2.5,1.1,4,1.9c3.8,2.2,7.7,5.2,10.9,8.4l1,1l0.6-1.2
		c3.5-7.3,10.1-21.5,12.2-28.3C397.8,165.4,396.9,156.6,389.5,154.2z"/>
	<path fill="#FCD9CA" d="M289.7,256c-0.7-14.3-5.1-39.2-8.9-51c-0.2-0.7-0.4-1.4-0.6-2.1c-0.1-0.5-0.3-0.9-0.4-1.4
		c-0.2-0.6-0.3-1.1-0.5-1.7c-0.2-0.5-0.3-1.1-0.5-1.6l0-0.1c-3-9.8-5.6-18.3-9.1-26.6c-3.9-9.2-11-22.1-17.9-28.2
		c-3-2.6-6.3-4-9.5-5.3L242,138c-2.6-1.1-5.6-2.3-7.6-4.4l-0.3-0.3l-0.4,0c-12.5-0.5-17-2-18.6-3.3l-0.7-0.6l-0.5,0.5
		c-5.1,1.1-8.5,1.6-10.5,1.6c-1.4,0-1.7-0.2-2-0.3l-0.2-0.1h-0.1c0,0-0.1,0-0.1,0c-0.2-0.1-0.3-0.2-0.5-0.3
		c-0.3-0.1-0.5-0.3-0.7-0.4l-0.7-0.5l-0.6,0.6c-0.3,0.3-0.7,0.5-1.2,0.5c-0.6,0-1.3-0.5-1.4-1.2l-0.2-0.9l-3.6,0.7l0.4,1.1
		c0.3,0.9,1,2.5,1,2.8c0,0.3-0.1,0.6-0.3,0.9l-0.7,1l1.1,0.5c1.3,0.6,2.1,1.2,2.7,2.1c2.1,2.9,1.1,7.2,0,10.6
		c-1.5,4.4-5.4,7.2-11.1,11c-4.2,2.8-9.5,6.4-13.6,11.6c-6.9,9-6.6,31.4-6.4,44.7l0,0.4c0.1,2.1,0.1,4,0.1,5.7c0,1.2,0,2.2,0.1,3.2
		c0,0.9,0,1.7,0,2.5c0.2,8.6,0.1,12.4-5.5,14.2c-1.6,0.5-5,1.1-10.8,2.1l-2.7,0.5h-1.2l0.1,1.1c0.4,3.6,1.5,13.1,5.1,22.1
		c3.4,8.4,16.1,9.6,23.3,9.6h1.1l-0.1-1.1c-0.5-4.4-1.2-7.3-2.3-9.6c-1.7-3.6-10.6-13.3-11.6-14.4c-0.4-0.4-0.6-0.9-0.6-1.4
		c0-0.5,0.2-1,0.7-1.4c0.4-0.4,0.8-0.6,1.4-0.6c0.5,0,1,0.2,1.3,0.6c0.2,0.2,0.6,0.6,1.1,1.3c2.6,2.9,9.4,10.5,11.1,14.1
		c1.5,3.1,2.3,6.9,3,14.2c0.3,3.3,0.6,7.5,0.9,12.6c0.4,6.9,1.8,12.2,4.4,16.9c3.5,6.5,9.5,12,18.8,17.4
		c15.8,9.2,44.9,10.8,46.7,10.9c1,0.1,1.3,0.4,1.5,0.7l22.6,27.6l0.2-2.5c0.2-3.3,0.4-7.8,0.2-13c-0.2-5.4,0.3-11.2,1.4-17.1
		l0.4-2.4l-2,1.4c-1.5,1.1-2.4,1.5-2.4,1.6c-0.3,0.2-0.6,0.3-1,0.3c-0.6,0-1.4-0.3-1.7-1c-0.5-0.9-0.2-2.2,0.7-2.7l0.1-0.1
		c0,0,0.1-0.1,0.2-0.1c4.7-3,15.8-11.1,17.7-20.9c1.2-6.1,2-16.3,2.2-27.9C290.1,271.9,290,262.7,289.7,256L289.7,256z M245.7,149.8
		L245.7,149.8c-0.3,0.5-0.9,0.8-1.7,0.7c-0.4,0-0.8-0.1-1.1-0.3c-4.3-2.9-7.6-3.1-8.3-3.1c-1.1,0-2-0.9-2-1.9c0-1.2,0.9-2.1,1.9-2.1
		c0.8,0,5.3,0.2,10.6,3.8C246.1,147.6,246.3,148.8,245.7,149.8z M267,270.5l-1.1,1l1.3,0.7c2.4,1.2,6.9,3.9,9.8,7.7
		c2.8,3.8,3.6,8,2.3,12.3c-4.3,14.4-12.9,15.9-30.4,13.7c-2.9-0.4-5.1-0.3-6.9,0.2c-3.2,0.9-4.8,3.1-6.6,5.6
		c-2.3,3.2-5.1,7.2-12.6,7.5h-1.4c-6.4,0-11-1.7-13.6-4.9l-0.1-0.1c-0.4-0.4-0.7-0.9-1-1.6c-1.8-3.4-1.9-8-0.4-13.7
		c2.6-9.9,14.7-20.9,18.3-24.1l1-0.9l-1.2-0.7c-2.6-1.6-4.8-3.7-6.3-6.3c-2.7-4.6-3.1-10.6-1.1-16.5c0.2-0.5,0.5-0.9,1-1.1
		c0.3-0.1,0.5-0.2,0.8-0.2c0.2,0,0.5,0,0.7,0.1c1,0.3,1.5,1.5,1.2,2.5c-0.8,2.2-2.2,7.9,0.8,13c1.5,2.6,4,4.6,7.4,6.1
		c2.3,1,4.5,1.6,6.9,2c10.4,1.7,18.2,0.6,25.2-3.4c3.7-2.1,7.3-5,11.9-9.8c5-5.2,7.5-13.4,6.8-22.1c-0.5-6.9-3.1-12.7-6.6-15.3
		c-7.8-5.8-23.6-3.1-24.3-3l-0.1,0c-0.2,0.1-0.5,0.1-0.9,0.3c-2.5,0.8-8.4,2.6-13.1,3c-2.4,0.2-6.2,0.4-10.8,0c-0.2,0-0.3,0-0.3,0
		c-0.3,0-0.4-0.1-0.5-0.1l-0.9-0.6l-0.5,0.9c-3.3,5.2-7.9,8.4-13.7,9.5c-3.2,0.5-5.8,0.8-8.1,0.8c-12.6,0-20.3-6.9-24.3-21.9
		c-2.4-8.7-1.2-17.7,3.4-25.2c3.6-5.6,8.6-9.5,13.4-10.6c1.1-0.3,2.4-0.4,4-0.4c4.9,0,11,1.5,16.4,3.9l1.1,0.5l0.3-1.2
		c3-13.3,17.2-23.1,30.4-21c13.3,2.1,22.4,16.2,23.1,35.7c0.3,8.9-2.5,15.4-8.8,19.6l-2.6,1.8l3.1,0.1c4.8,0.1,11.4,0.9,16.2,4.5
		c4.5,3.3,7.5,10.1,8.2,18.2c0.8,9.9-2.2,19.3-7.9,25.1C273.3,265,270.5,267.6,267,270.5z M191.2,158.7c0.5,0,1.1,0.2,1.5,0.6
		c0.7,0.8,0.7,2.1-0.1,2.8l0,0c-6.2,6-7.3,7.6-7.7,8.4c-0.3,0.8-1,1.4-1.9,1.4c-0.3,0-0.3,0-0.5-0.1c-1.1-0.3-1.7-1.4-1.4-2.5
		c0.7-2.7,6.9-8.4,8.9-10.2C190.2,158.9,190.7,158.7,191.2,158.7z"/>
	<path fill="#FCD9CA" d="M217.6,126.7c1.9,1.4,11,2.1,13.7,2.3l1,0.1l0.1-1c0.1-1.6,0.7-3.5,1.7-5c0.8-1.3,2.3-3.2,4.8-5l1.5-1.1
		l-1.8-0.7c-6.7-2.6-15.5-4.6-19.7,0.6C216.4,120,214.8,124.3,217.6,126.7z"/>
	<path fill="#FCD9CA" d="M203.5,127.3c1.4,0,5-0.5,8.1-1.2l1-0.2l-0.2-1c-0.4-2.1,0-4.3,1.1-6.8l0.6-1.2l-1.3-0.2
		c-2.7-0.5-5-0.2-6.4,0.8c-1.9,1.1-3.2,3.1-3.9,5.9c-0.4,1.5-0.4,2.4-0.4,2.8v1h0.9C203.1,127.2,203.3,127.3,203.5,127.3z"/>
	<path fill="#FCD9CA" d="M148.3,240c4.8-0.8,9-1.5,10.4-2c2.7-0.8,3-1.9,2.8-10.4c-0.1-1.7-0.1-3.6-0.1-5.7c0-0.8,0-1.6,0-2.4
		c0-1-0.1-2-0.1-3.2l0-0.5c-0.2-14.8-0.5-37,7.3-47.1c4.5-5.7,10.1-9.5,14.6-12.5c4.3-2.9,8.4-5.6,9.5-8.9c1.1-3.4,1.3-5.8,0.6-6.9
		c-0.3-0.6-1.2-1.2-3.5-1.1h-0.9c-6.1,0-18.9,7.1-24,16.9c-4.9,9.3-7.9,20.9-8.3,22.7l0,0c-0.3,1.1-1.3,1.7-2.4,1.5
		c-1.1-0.3-1.7-1.3-1.5-2.5c0.2-1.3,3.4-13.7,8.6-23.7c5-9.5,17.1-17.4,25.2-18.9l1.9-0.3l-1.4-1.4c-1-1-3.2-2.6-7.2-2.5
		c-5,0.2-11.5,4.1-17.4,10.4l-0.2,0.2l-0.1,0.3c-0.1,0.6-0.6,1-1,1.2H161l-0.3,0.3c-2.8,3.2-5.3,6.7-7.4,10.4
		c-8.3,14.1-8.5,38-8.5,38.2c0,1.1-0.9,2-2,2s-2-0.9-2-2c0-0.2,0.1-24.9,9-40.1c0.1-0.1,0.1-0.2,0.2-0.3c0,0,0,0.1-0.1,0.1l-1.3-1.5
		c-5.6,3.9-9.2,8-10.9,12c-1.6,4-2.7,7.2-3.5,10.1c-2.8,9.9-3.1,18.2-0.8,26c2.8,9.7,5.6,18.3,6.6,21.5c0.3,0.8,0.4,1.3,0.5,1.4
		c0.1,0.7,0.1,1.3-0.2,1.8c-0.2,0.4-0.7,0.8-1.3,0.9c-0.2,0-0.6,0.1-1.8,0.3c-17.2,3.3-31,5.4-41.2,6.5
		c-19.6,1.9-33.8,7.3-35.4,13.6c-1.9,7.5,0,12.6,7.1,18.8c5.5,4.8,22.1,18.6,31,26l5.2,4.3l1.6-1.6c9.7-10.1,15.4-22,16-25.2
		c0.2-0.9,0.3-1.7,0.3-2.5v-1.4l-1.3,0.4c-0.3,0.1-0.6,0.1-0.8,0.1c-0.5,0-1.2-0.3-1.5-0.7c-2.9-3.6-7.2-10.3-4.1-14.4
		c1.9-2.5,10.7-4.4,27.5-7.2l0.2,0l0.2-0.1c0.3-0.2,0.6-0.3,0.9-0.3c0.1,0,0.3,0,0.4,0l0.3,0.2l0.3-0.1c0.5-0.1,1.1-0.2,1.7-0.3
		L148.3,240z"/>
</g>
<path fill="none" stroke="#000000" stroke-width="5" stroke-linecap="round" stroke-linejoin="round" stroke-miterlimit="10" d="
	M192.7,176.8c-9.3,1.9-20.3,16.5-15.6,34s14.6,23,30.6,19.9s18.8-23.1,18.8-34.9S203.8,174.5,192.7,176.8z"/>
<path fill="none" stroke="#000000" stroke-width="5" stroke-linecap="round" stroke-linejoin="round" stroke-miterlimit="10" d="
	M214.6,203.4c-1.8,0-1.8,5.5,0.4,5.1S214.6,203.4,214.6,203.4z"/>
<path fill="none" stroke="#000000" stroke-width="5" stroke-linecap="round" stroke-linejoin="round" stroke-miterlimit="10" d="
	M223.8,219.5c0,0,9.8,1.8,19.3-1.7c9.4-3.4,23.7-6,23.1-24.8s-9.2-32.3-21.8-34.3s-26.6,7.8-28.9,20.8"/>
<path fill="none" stroke="#000000" stroke-width="5" stroke-linecap="round" stroke-linejoin="round" stroke-miterlimit="10" d="
	M236.1,195.8c-0.7,0-0.6,6.1,0.9,5s0.3-4.7,0.3-4.7"/>
<path fill="none" stroke="#000000" stroke-width="6" stroke-linecap="round" stroke-linejoin="round" stroke-miterlimit="10" d="
	M218.9,250.8c-2.9,8.2-1.5,20.8,16.7,23.8c18.2,3.1,27.9-2.5,38.9-13.7c11-11.2,8.9-33.7,0-40.3s-26-3.3-26-3.3s-7.9,2.7-13.7,3.2
	s-10.6,0-10.6,0"/>
<path fill="none" stroke="#000000" stroke-width="5" stroke-linecap="round" stroke-linejoin="round" stroke-miterlimit="10" d="
	M227.4,274c0,0-16.7,13.4-19.7,25s0.5,18.9,15,18.4s8.9-15.5,26.4-13.3s24.9,0.5,28.8-12.6s-14.6-19.9-15.7-19.9"/>
<path fill="none" stroke="#000000" stroke-width="5" stroke-linecap="round" stroke-linejoin="round" stroke-miterlimit="10" d="
	M212.1,292.6c0,0,20.9-2.1,27.7-4.3c6.8-2.1,6.5-11.1,6.5-11.1"/>
<path fill="none" stroke="#000000" stroke-width="5" stroke-linecap="round" stroke-linejoin="round" stroke-miterlimit="10" d="
	M208.7,311.4c0,0,4.9-9.4,17.3-12.5c12.3-3.1,15.8,3.9,15.8,3.9"/>
<path fill="none" stroke="#000000" stroke-width="5" stroke-linecap="round" stroke-linejoin="round" stroke-miterlimit="10" d="
	M229.7,291.5c-0.1,0.3-1.7,5.4-1.7,5.4s-8.3-0.1-11.2,1.7s-6.6,6.6-6.6,6.6s-0.2-7,0.1-7.2s16.3-4.1,16.3-4.1"/>
<path fill="none" stroke="#000000" stroke-width="6" stroke-linecap="round" stroke-linejoin="round" stroke-miterlimit="10" d="
	M270.6,331.3c0,0,16.5-9.5,19.1-22.5c2.6-12.9,2.7-39.3,2-52.9c-0.7-13.6-4.9-38.8-8.9-51.6c-3.9-12.8-6.8-23.3-11.2-33.7
	s-11.6-23-18.4-28.9c-6.8-6-14.8-6-18-10.6c-3.2-4.6,3.9-15.8,16.9-14.3c12.9,1.5,30.5,18.4,34.2,34.6s7.1,32.2,15.7,32.7
	s31.1-15.1,45.1-21.4c14-6.3,35.4-12.9,43.1-10.4c7.7,2.6,10.2,11.6,7.3,20.9s-13.4,31.1-13.4,31.1"/>
<path fill="none" stroke="#000000" stroke-width="6" stroke-linecap="round" stroke-linejoin="round" stroke-miterlimit="10" d="
	M282.7,200.4c0,0,0.2,7,19.6,2.7s62.8-15.1,62.8-15.1"/>
<path fill="none" stroke="#000000" stroke-width="6" stroke-linecap="round" stroke-linejoin="round" stroke-miterlimit="10" d="
	M296.6,279.2c0,0,21.6-29.3,32.3-45.3s22.3-39.8,22.3-39.8s7.3-6.1,18.6,0.5c11.2,6.6,19.7,17,19.4,23.8s-22.3,37.6-35.4,51.9
	S325,304.7,325,305.4s24,55.7,26,58.7"/>
<path fill="none" stroke="#000000" stroke-width="6" stroke-linecap="round" stroke-linejoin="round" stroke-miterlimit="10" d="
	M294.8,280.6c0,0,7.5,10.6,11.1,28.1s3.6,30.8,3.6,30.8l-22.5-4.9"/>
<path fill="none" stroke="#000000" stroke-width="6" stroke-linecap="round" stroke-linejoin="round" stroke-miterlimit="10" d="
	M279.1,326.4c0,0-3.4,10.6-2.9,23.1c0.5,12.6-1.2,20.3-1.2,20.3l-25.4-31c0,0-31-1.5-47.7-11.2s-23.1-19.9-24.2-35.9
	s-1.7-21.8-3.7-26c-2-4.3-11.9-14.8-11.9-14.8"/>
<path fill="none" stroke="#000000" stroke-width="6" stroke-linecap="round" stroke-linejoin="round" stroke-miterlimit="10" d="
	M119.8,261.5c0,0-6.8-8.3-4.1-11.9s38.3-8,43.6-9.7s4.1-5.6,4.1-18s-1.8-41,6.8-52.1s21.8-14.3,24.4-22s1-10.9-5.6-10.9
	s-20.3,7.5-25.8,18s-8.4,23.2-8.4,23.2"/>
<path fill="none" stroke="#000000" stroke-width="6" stroke-linecap="round" stroke-linejoin="round" stroke-miterlimit="10" d="
	M142.7,192.1c0,0,0.1-24.4,8.8-39.2s20.2-23.6,28.3-23.9c8.2-0.3,10.9,6.1,10.9,6.1"/>
<path fill="none" stroke="#000000" stroke-width="6" stroke-linecap="round" stroke-linejoin="round" stroke-miterlimit="10" d="
	M160.3,141.3c0,0-19.7,8.3-24.5,20.3s-8,24.8-4.3,37.4c3.7,12.6,7.1,23.1,7.1,23.1s-24.5,5-42.8,6.8s-35.1,6.9-37.1,15.1
	c-2,8.2,0.1,14.2,7.8,20.8s36.6,30.6,36.6,30.6"/>
<path fill="none" stroke="#000000" stroke-width="6" stroke-linecap="round" stroke-linejoin="round" stroke-miterlimit="10" d="
	M95.5,291.8c-0.4,0.4-5.1,6.9-2.8,9.3c2.3,2.4,4.5,2.4,14.3-7.8s15.7-22.2,16.6-26s0.1-7.5,0.1-7.5s18,18.9,34.3,31.8
	s24.1,18,24.1,18"/>
<path fill="none" stroke="#000000" stroke-width="6" stroke-linecap="round" stroke-linejoin="round" stroke-miterlimit="10" d="
	M99.5,294.2c0,0-4.1,4.3-3.8,4.3s4.9-2.6,4.9-2.6"/>
<path fill="none" stroke="#000000" stroke-width="6" stroke-linecap="round" stroke-linejoin="round" stroke-miterlimit="10" d="
	M143.1,242.7c0,0,0.4,13.1,5.4,25.7s26.9,10.9,26.9,10.9"/>
<path fill="none" stroke="#000000" stroke-width="6" stroke-linecap="round" stroke-linejoin="round" stroke-miterlimit="10" d="
	M186.4,316c0,0,18.7,26.2,26.9,35.7s13.4,13.4,13.4,13.4l12.1-15.5"/>
<polyline fill="none" stroke="#000000" stroke-width="6" stroke-linecap="round" stroke-linejoin="round" stroke-miterlimit="10" points="
	96,303.1 194.2,358.1 194.4,406.2 "/>
<path fill="none" stroke="#000000" stroke-width="6" stroke-linecap="round" stroke-linejoin="round" stroke-miterlimit="10" d="
	M191.2,160.7c0,0-7.7,7-8.3,9.3"/>
<path fill="none" stroke="#000000" stroke-width="6" stroke-linecap="round" stroke-linejoin="round" stroke-miterlimit="10" d="
	M234.6,145.2c0,0,4.2-0.1,9.4,3.4"/>
<path fill="none" stroke="#000000" stroke-width="6" stroke-linecap="round" stroke-linejoin="round" stroke-miterlimit="10" d="
	M242,115.4c-12.2-5.2-20.6-4.9-24.6,0.3s-4.2,9.9-1.1,12.5s18.9,3,18.9,3"/>
<path fill="none" stroke="#000000" stroke-width="6" stroke-linecap="round" stroke-linejoin="round" stroke-miterlimit="10" d="
	M216.1,115.5c-10.3-3.1-14.3,1.8-15.7,7.4c-1.4,5.6,0.7,5.6,2,6.3c1.4,0.7,11.1-1.4,11.1-1.4"/>
<path fill="none" stroke="#000000" stroke-width="5" stroke-linecap="round" stroke-linejoin="round" stroke-miterlimit="10" d="
	M171.3,82.7c0,0,20.9,50.4,20.9,50.6"/>
<path fill="none" stroke="#000000" stroke-width="5" stroke-linecap="round" stroke-linejoin="round" stroke-miterlimit="10" d="
	M197.6,129.3c0,0-1.7-53.3-1.7-56.9"/>
<path fill="none" stroke="#000000" stroke-width="5" stroke-linecap="round" stroke-linejoin="round" stroke-miterlimit="10" d="
	M112.5,99.2c0,0,43.6,22.3,49.5,36.8"/>
<path fill="none" stroke="#000000" stroke-width="5" stroke-linecap="round" stroke-linejoin="round" stroke-miterlimit="10" d="
	M97.7,151.8c1-0.3,40.9-6.5,50.9-4.9"/>
<path fill="none" stroke="#000000" stroke-width="5" stroke-linecap="round" stroke-linejoin="round" stroke-miterlimit="10" d="
	M89.2,182.9c0,0,36.1-11.4,41.7-11.4"/>
<path fill="none" stroke="#000000" stroke-width="5" stroke-linecap="round" stroke-linejoin="round" stroke-miterlimit="10" d="
	M248.5,115.2c0,0,26.9-46.6,33.4-50.7"/>
<path fill="none" stroke="#000000" stroke-width="5" stroke-linecap="round" stroke-linejoin="round" stroke-miterlimit="10" d="
	M266,121c0,0,33-14,45.1-14.1"/>
<line fill="none" stroke="#000000" stroke-width="5" stroke-linecap="round" stroke-linejoin="round" stroke-miterlimit="10" x1="270" y1="106.3" x2="262.1" y2="119.4"/>
<path fill="none" stroke="#000000" stroke-width="5" stroke-linecap="round" stroke-linejoin="round" stroke-miterlimit="10" d="
	M132.6,66.7c0,0-15.7-17.4-23.7-18.1c-8-0.8-15.3,6.8-13,13.5c2.3,6.8,22.3,6,28.5,7.1C130.4,70.4,132.6,66.7,132.6,66.7z"/>
<path fill="none" stroke="#000000" stroke-width="5" stroke-linecap="round" stroke-linejoin="round" stroke-miterlimit="10" d="
	M232.3,62.3c0,0-0.5-28.1,12.1-31.4s11.6,5.9,8.2,12.3S240.1,58.8,238,61.1c-2,2.3-4.9,2.6-4.9,2.6"/>
<path fill="none" stroke="#000000" stroke-width="14" stroke-linecap="round" stroke-linejoin="round" stroke-miterlimit="10" stroke-opacity="0" d="
	M213.8,308.7c2.9,0.9,11.1,0,11.1,0l4.3-3.1l4-2.5c0,0,2.7-13.8,3-13.9s9.1-4.5,9.1-4.5l-2.8,13.7h10.3l0.4-16.7l7.5-2.3l-0.7,18.7
	l5.3-1.4l1.3-15.8l5,5.5l-1.6,8.1"/>
<path fill="none" stroke="#000000" stroke-width="17" stroke-linecap="round" stroke-linejoin="round" stroke-miterlimit="10" stroke-opacity="0" d="
	M199.9,134.8l12.7,2.8c0,0-7.4,10.7-7.7,11.1c-0.3,0.4-10.7,12.1-10.7,12.1s26.6-22.9,28.3-22.9s12,2.1,12,2.1l-57.4,33l-2.3,8.4
	c0,0,67.9-38.5,69.9-37.6s7,8,7,8s-78.9,37.1-78.9,37.4c0,0.3,0,10.7,0,10.7l84.8-38.1l5.4,8.7l-91.7,39.2v11.2
	c0,0,95.6-40.3,95.7-39.8s3.2,12.7,3.2,12.7l-96.7,36l-2.2,10.7c0,0,103-38.9,103.4-36.1c0.5,2.9,3.7,10.4,3.7,10.4l-114,34
	l-18.8,3.9l1.5,8.3l135.6-33.4l4.5,13.8c0,0-135.1,28.3-130.7,29.2s11.5,3.6,11.5,3.6l116.9-21.7v6.6c0,0-101.1,21.6-101.6,22.5
	s0.8,9,0.8,9l99.4-19.7l-1.5,8.4c0,0-98.2,20.2-97.3,21.2s6,7.1,6,7.1l91.3-19.3l0.7,10c0,0-86.7,16.8-85,17.7s12.4,6.3,12.4,6.3
	l71.8-14.6l-4.5,10.7l-57.6,8.1l14.5,3.2l34.2-6.3l-0.2,10.1l-12.5,1.7l2.3,3.2l10.1,13l2,3.3l-1.2-16.1"/>
<path fill="none" stroke="#000000" stroke-width="17" stroke-linecap="round" stroke-linejoin="round" stroke-miterlimit="10" stroke-opacity="0" d="
	M92.1,284.7c3,0.2,11.6,0,11.6,0l7.6-10.1c0,0-28.7,0.9-29,0.6s-5.1-5.2-5.1-5.2l39.7-3.2l-1.8-6.7l-45.4,0.5l-4.6-6l47.1-1.7
	l-48.1-5.5l1.8-8.9l51.5,1.4l9.4,0.5l22.7-3.7l-38.5-5l4-2.1l42,2.1l2.1-11.6c0,0-17.7,1.4-18.1,0s-3.3-10.4-3.3-10.4l19.5,1.2
	l-3-9.4l-20-3.2l-1.2-6.1h26.1V182l-25.5-3.3l0.9-10.7c0,0,30.9,3.5,31.2,2.9s2.4-7.1,2.4-7.1s-25.6-5.2-25.6-6.1
	c0-0.9,6.7-4.8,6.7-4.8l25.4,3.1l7-5.9l-19.7-4.7l3.5-5.5l19,3.4l5,0.9l-1.5-7.3l-7.2-2.2"/>
<path fill="none" stroke="#000000" stroke-width="17" stroke-linecap="round" stroke-linejoin="round" stroke-miterlimit="10" stroke-opacity="0" d="
	M381.3,194.7c0.9-0.9,7.9-3.8,7.9-3.8l2.6-10.9l-21.9,7.4c0,0,28-18,24.3-18s-62.1,21.4-62.1,21.4l-46.4,9.2l-1.7-2.3l113.6-38
	l-3.8-3.5L284,188.1c0,0-5.6-11.7-4.7-12.4c0.9-0.8,7.9-2,7.9-2v-7.3l-2.3-7.8l-11.8,6.5l-3.4-3.8c0,0,17.2-11.4,16.2-11.5
	s-3-4.4-3.2-4.5s-20.2,8-20.2,8l0.4-8l17.6-7l-3.4-4.7l-9.3-5.1l-15.8,9.9l-2.7-2.8l9.2-10.7l-4.5-4.4l-14.7,7.7l-1.9-11.3
	l-13.5,11.3l5.9-16.2l-12.6,11.2l0.5-10.8l-9.8,13.6l-2.2-9.1"/>
<path fill="none" stroke="#000000" stroke-width="30" stroke-linecap="round" stroke-linejoin="round" stroke-miterlimit="10" stroke-opacity="0" d="
	M133,266.8c-1.2,1.2-28.8,40.9-28.8,40.9l6.8,6.1l22.9-34.4l14.9,5.5l-22,33.5l13.3,9.5l17.6-29.3l12.7,2.7l-14,28.8l8.3,8.2
	l20.3-24.7l11.8,3.9c0,0-17,25.9-14.7,27.5s5.7,6.2,5.7,6.2l27.7-21.1l16.4,3.7l-34.7,34.3l-1.5,19.5l62-48.1L365,195.7l10.3,5.7
	L273.2,349.7c0,0-74.6,56-70.5,55.1s17.9,2.3,17.9,2.3l63.3-42c0,0,103.6-149.4,102.3-147.7c-1.4,1.7-48.2,109.7-48.2,109.7
	l-39.8,44.7l-46,33l32.7-12.2l53.3-42.4l11.7,4.4l-39.4,32.5"/>
</svg>
