<?xml version="1.0" encoding="utf-8"?>
<!-- Generator: Adobe Illustrator 24.3.0, SVG Export Plug-In . SVG Version: 6.00 Build 0)  -->
<svg isCommex="true" version="1.1" id="Layer_1" xmlns="http://www.w3.org/2000/svg" xmlns:xlink="http://www.w3.org/1999/xlink" x="0px" y="0px"
	 width="543.7px" height="686.8px" viewBox="0 0 543.7 686.8" enable-background="new 0 0 543.7 686.8" xml:space="preserve">
<g id="vs-secondary">
	<path fill="#5A77BA" d="M398.7,424.9l-0.6-1.9l-1.2,1.7c-2.9,4.2-6.3,7.4-8.3,7.8c-1.6,0.4-3.9-0.2-7.7-1.2
		c-3.3-0.9-8.3-2.2-12.3-2c-6.1,0.3-14.4,7.4-14.7,7.7l-0.2,0.2c-2,3-4,6.4-6.2,10.5c-7.5,14.5-15.7,41.4-19.2,52.9l-0.1,0.5
		c-0.2,0.5-0.3,1-0.4,1.4c-0.1,0.3-0.2,0.6-0.3,0.9l-0.3,0.8l0.7,0.4c6.2,3.7,13.6,6.5,21.9,8.3c2.6,0.6,5.7,0.9,9.2,0.9
		c1,0,2,0,3.1-0.1h1.5l-0.7-1.4c0-0.1,0-0.1,0-0.2c-0.4-18.4,3.5-40.4,4.7-46.8l0.1-0.3c0.2-1,1.2-1.7,2.3-1.5
		c1,0.2,1.7,1.2,1.5,2.3l0,0c-0.4,2-5.1,26.2-4.7,46.2v1.4l1.1-0.1c15.3-1.7,32.9-7.2,43.5-12l0.6-0.3v-0.6
		C413.1,475.8,405.3,445.8,398.7,424.9z M396.7,457.1c-0.2-0.6,0.1-1.1,0.7-1.3c0.6-0.2,1.1,0.1,1.3,0.7c0,0.1,0.1,0.4,0.2,0.8
		c5.2,20.1,7.4,35.8,6.3,43.1c-0.1,0.5-0.5,0.9-1.1,0.9h-0.2c-0.4-0.1-0.8-0.6-0.7-1.1C405.1,487.9,396.7,457.3,396.7,457.1z"/>
</g>
<g id="vs-primary">
	<path fill="#8CD96F" d="M265,482.5c-11.9-21.9-20.4-59.9-24.5-78.1c-0.9-3.9-1.7-7.6-2.5-9.9c-3-11.8-11.1-11.6-12-11.6
		c-0.3,0-0.6,0-0.7,0l-0.5-0.2l-0.4,0.4c-3.1,2.7-6.2,5-9.2,6.8l-0.7,0.4l0.3,0.8c2.9,7.3,1.6,17.1-2.9,22.8
		c-2.7,3.4-6.3,5.1-10.5,5.1c-1,0-2.2-0.2-3.3-0.4c-11.4-2.3-15.9-13.7-17.6-20.3l-0.2-0.8l-0.9,0.1c-1.7,0.2-3.6,0.4-5.7,0.4
		c-2,0-3.9-0.1-5.8-0.4c-5.3-0.7-12.6-4.3-20.5-10.4l-0.5-0.4l-0.6,0.3c-5.3,3-17.8,11.3-19.4,22c-1,6.4-3,13.5-4.9,20.3l-1,2.6
		c-2,7-4.1,14.2-4.1,17.8v1h1c4.9,0,13,0.5,23.5,3.2c1.6,0.4,3.4,1,5.2,1.5l2.3,0.7v-1.3c0.1-2.9,5.1-16.1,9.8-27
		c0.6-1.3,2-1.9,3.3-1.4c0.6,0.3,1.1,0.8,1.4,1.4c0.3,0.6,0.3,1.3,0,1.9c-3.3,7.9-8.9,22.1-9.4,25v0.3c0,0.5-0.2,1-0.6,1.5l-0.9,1.1
		l1.3,0.5c4.9,1.9,10,4.2,15.3,6.7l4.7,2.1c11.1,5.1,23.6,10.9,36.6,14.8c8.8,2.8,17.2,4.5,25.2,5.2l1.1,0.1V486
		c-0.5-14.3-2.4-24-4.4-34.3c-1.1-5.7-2-10.6-2.9-16.3v-0.6c0.4-4.7-0.1-13.9-1.4-26.6c0-0.3-0.1-0.5-0.1-0.5v-0.1
		c-0.1-1.4,0.9-2.7,2.2-2.8c1.4-0.1,2.7,0.9,2.8,2.2c0.2,1.4,2.2,19.3,1.5,27.8v0.1v0.1c1,6,1.9,11,2.8,15.6v0.2
		c2.1,10.6,4,20.6,4.5,35.4v1h1c0.3,0,0.7,0,1,0c7.8,0,14.7-1.1,20.6-3.4l1.1-0.4L265,482.5z"/>
</g>
<path fill="#808080" d="M264.1,206.3l0.1-1l-0.1-0.2c-1.7-4.8-1.3-6.5,0.2-9.6c0.5-1.1,1.1-2.4,1.7-4.7c1.4-5.4-2.4-9.7-5.8-12.8
	c-2.9-2.7-2.9-8.1-2.9-12.9c0-1.3,0-2.6-0.1-3.5v-0.4L257,161c-0.9-0.8-3-1.6-5.6-2.5c-0.4-0.1-0.7-0.3-1.1-0.4
	c-4.5-1.5-7-2.5-7.8-4.8c-0.1-0.3-0.2-0.7-0.3-1c-1.2-4.3-2.8-8.3-6.2-8.4c-0.9-0.1-1.7,0-2.4,0c-0.3,0-0.6,0-1,0
	c-4.5,0.2-7.5-0.2-10.8-6.5c-2.3-4.6-7-4.3-14-3.2l-2.5,0.4c-5.8,0.9-7.5,0.9-13.2-3.8c-4-3.3-12.1,0.1-16.2,3.1
	c-5.6,4-13.2,1.9-18.2-2c-2-1.4-8.4,1-17.7,9.9c-5.4,5.2-9,4.8-13.4,3.7l-0.3-0.1c-1.3-0.3-2.6-0.6-4.1-0.7
	c-3.8-0.2-7.2,4.9-10.1,14.9c-1.7,6-3.5,7.2-6.9,8.3c-1.2,0.4-2.6,0.9-4.5,2.1c-4.5,2.8-5.1,11.4-5.4,15.9c0,0.4-0.1,0.8-0.1,1.2
	s0,0.7-0.1,1.1c-0.3,3.7-3.3,6.3-5.9,8.6l-0.9,0.8c-1.3,1.1-2.6,2.2-3.2,3.3c-0.8,1.8,0.1,8.7,4.1,19.9c1.6,4.5,0.2,6.6-1.4,9
	c-1,1.5-2.3,3.4-3.4,6.8c-1.7,4.9,1.1,8.3,5.2,12.5c1.2,1.2,2.3,2.3,2.9,3.4c1.6,2.8,0.7,5.1-0.1,7.2v0.1c-0.7,1.9-1.4,3.9-0.8,7.1
	c0.9,4.1,8.8,8,13.3,9.6l1.4,0.5l-0.1-1.5c-0.7-12.8-3.1-22.9-5.5-33.7c-0.5-2.2-1-4.5-1.6-6.9c-0.2-1.1-0.5-2.2-0.7-3.4
	c-3.5-16.6,0.2-41,5.5-45.8c0.2-0.2,0.5-0.4,0.7-0.4h0.1c7.4-2.5,19-11.9,23.7-18.1c0.6-0.7,1.5-1.1,2.4-0.9
	c9,1.3,16.8-1.5,26.9-9.4c0.7-0.6,1.7-0.7,2.6-0.2c11.6,5.8,24.2-1,25.9-2.1l0,0c0.9-0.6,2.1-0.5,2.9,0.2c1.6,1.4,7.3,5.3,12.1,4.1
	c6.5-1.6,9.5-2.1,9.8-2.2h0.2c1-0.2,2.1,0.4,2.6,1.3c1.2,2.7,4,6.6,6.3,6.9c4.1,0.5,10.2-1,10.2-1c1.3-0.3,2.7,0.5,3,1.7
	c1,3.3,3.6,8.7,6.5,10.1c0.7,0.3,1.4,0.7,2,0.9c3.1,1.5,3.6,1.8,5.3,4.6l0.2,0.3c2.7,4.4,5.4,22.3,4.7,37.8l-0.1,3.4
	c-0.5,9.7-0.9,18.9-0.2,28.8l0.1,1.2l1.1-0.3c1.9-0.5,3.7-0.7,5.5-0.7h0.5l0.3-0.4c0.2-0.3,0.4-0.6,0.7-0.7
	c1.6-1.1,4.7-7.6,3.5-14.4c-1-5.7-0.4-7.1,0.8-9.4c0.5-0.8,1-2,1.7-4.2C267.7,216.8,266.2,212.1,264.1,206.3z"/>
<g id="vs-skin">
	<path fill="#FACFBD" d="M479,284.6L479,284.6c-1.4-3.4-3.5-5.5-6.4-6.1c-6.2-1.9-16.3,1.5-27.9,9.3c-0.6,0.4-1.3,0.5-2.1,0.1
		c-0.8-0.3-1-1.1-1.1-1.6c-1-10.8,0.3-15,2.1-20.2c0.2-0.5,0.3-1,0.5-1.5c0.6-1.9,1.3-4,1.8-6.7c2-9.1,3-25.1,2.3-35.7l-0.2-2.5
		l-1.6,1.9c-3,3.6-6.6,5.2-6.7,5.2c-0.6,0.3-1.3,0.2-1.8-0.1c-0.6-0.4-1-1-1-1.7c0-0.1-0.2-7.9-0.5-16.2h0.1v-1
		c-0.1-5.4-0.4-9.6-0.7-12.6c-0.2-8.7-11-18.9-13.1-20.9l-1.6-1.4L421,175c-0.1,1.1-0.2,2.6-0.4,4.3c-0.1,1-0.2,2-0.3,3.1
		c-0.1,0.6-0.5,1.3-1.2,1.6H419l0,0h-0.4c-0.5,0-0.8-0.1-1.1-0.3c-1.2-0.8-7.5-5.1-10.9-10.9c-2.3-3.9-10.6-9.1-13.2-10.6l-1.6-0.9
		v1.8c0.1,3.6,0.1,9.1,0,16.9c0,0.7-0.3,1.2-0.7,1.6c-0.6,0.4-1.3,0.5-1.9,0.3c-4-1.3-8.1-5.1-11.8-10.8l-0.3-0.5H377
		c-3.4-5.3-5.9-11.2-7.4-15.2l-0.3-0.9l-0.9,0.3c-10,3.1-27.6,9.8-33.6,19.9c-4.9,8.3-5.8,18-6.3,27.3l-0.2,4.4l2.1-3.9
		c2.9-5.3,6.6-10.1,11.1-14.1l0.6-0.6l-0.5-0.7c-2.9-4.4-1-10.2-0.1-12.5v-0.1c0.2-0.5,0.8-0.8,1.4-0.5c0.2,0.1,0.4,0.3,0.5,0.5
		c0.1,0.1,0.1,0.4-0.1,0.7c-0.1,0.2-2.6,6-0.5,10.1l0.6,1.1l1-0.8c2.2-1.8,4.4-3.4,6.6-4.8l0.6-0.4l-0.2-0.7
		c-0.7-2.2-0.3-6,0.9-10.5c0.2-0.6,0.7-0.9,1.3-0.7c0.3,0.1,0.5,0.3,0.6,0.5s0.2,0.5,0.1,0.8c-0.9,2.9-1.3,6.2-1.1,8.2l0.2,1.5
		l1.3-0.8c5-2.9,10.6-5.3,15.7-6.9l0.2-0.1c0.9-0.2,1.8,0.1,2.3,0.8l0.2,0.2c0,0.1,0.1,0.2,0.1,0.2c0.1,0.5,0.1,1.1-0.2,1.6
		c-0.3,0.5-0.7,0.8-1.2,0.9l-0.8,0.2v0.1c0,0-0.1,0-0.2,0.1c-0.7,0.2-1.9,0.6-3.3,1.2c-3.3,1.3-6.6,2.9-9.8,4.7l-1,0.6l0.7,0.9
		c9.1,11.4,12.7,32,9.7,55.3c-2.4,17.9-9.9,39.7-18.9,44.9l-0.2,0.2c-1,1-3.9,3.5-10.5,4c-1.6,0.1-2.4,0.9-2.8,1.5
		c-1.9,2.5-2,8-0.5,15.2c1.3,6,7.7,9.6,9.4,10.2l0,0c1,0.4,1.4,1.6,1,2.6c-0.3,0.8-1,1.3-1.9,1.3c-0.2,0-0.5,0-0.7-0.1l-0.2-0.1
		c-0.1,0-9.6-4-11.6-13.1c-1.1-4.9-2.4-13.7,1.1-18.5c0.7-0.9,1.6-1.6,2.5-2.1l1.7-0.9l-1.8-0.8c-2.8-1.3-5-2.9-6.5-4l-0.5-0.4
		c-0.1-0.1-0.2-0.1-0.3-0.2c-0.2-0.1-0.3-0.2-0.4-0.3c-0.6-0.4-1.5-1.2-2.7-9c-0.7-5.1-1.2-11.2-1.4-17.2l-0.3-8.2l-1.7,8
		c-1.2,5.4-2.5,11.7-3.3,16.5c-0.1,0.6-0.2,1.2-0.3,1.7c-1.4,9.1-2.1,26.5-1.6,42.5c0.3,10.3,1.3,24.8,3.9,35.5
		c4.7,18.6,21.8,29,34.3,36.6l1.1,0.7c1.6,0.9,3.1,1.8,4.4,2.7c11.3,7.4,15.8,22,16.6,24.9c0.3,1.1-0.4,2.2-1.5,2.5l-0.2,0.1
		c-0.1,0-0.2,0-0.3,0c-0.5,0-1-0.2-1.3-0.5l-0.8-0.8l-0.7,0.8c-2.3,2.7-5.2,6-8.2,10l-2.1,2.7l3.2-1.1c1.7-0.6,3.3-1,4.8-1
		c4.2-0.2,9,1,12.9,2l0.5,0.1c1.1,0.3,4.6,1.1,5.8,1.1h0.2l0.2-0.1c2.2-1,7.2-7.6,7.7-10.1c0-0.1,0.1-0.2,0.1-0.3
		c0.1-0.1,0.1-0.3,0.2-0.5l0.1-0.3l-0.1-0.3c-0.5-1.3-1-2.6-1.6-4l-0.1-0.1c-2.6-6.7-5.6-14.2-4.4-25c1.1-9.7,16.5-26.1,30.6-38.2
		l0.3-0.2l0.1-0.4c0.8-6,8-13.7,14.2-17.5c3.5-2.1,6.3-2.7,8.4-1.8l0.2,0.1h0.2c0.1,0,0.3,0.1,0.5,0.2c1.2,0.7,2,1.4,2.6,2.3
		l0.6,0.9l1.8-1.3c2.8-1.9,5.7-4.1,8.7-6.5l1-0.8l-1-0.8c-1.5-1.1-2.5-1.7-2.6-1.8c-0.4-0.2-0.6-0.9-0.3-1.3
		c0.1-0.2,0.3-0.4,0.6-0.4c0.2,0,0.4-0.1,0.7,0.1c0.1,0.1,0.2,0.2,0.5,0.3c0.6,0.4,1.7,1.1,3.1,2.2l0.6,0.5l0.6-0.5
		c7.2-6.2,12.2-11.9,15.2-17.2C480.7,298,481.6,291,479,284.6z M466.3,301.3L466.3,301.3c0,1.2-1.1,2-2.1,2
		c-6.7-0.3-15.9,9.4-18.9,13.1c-0.4,0.5-1,0.8-1.6,0.8c-0.5,0-0.9-0.1-1.3-0.4c-0.8-0.6-1-1.9-0.3-2.8c0.1-0.1,11.3-14.7,21.8-14.7
		c0.2,0,0.3,0,0.5,0c0.5,0,1,0.2,1.4,0.6C466.2,300.2,466.3,300.8,466.3,301.3z M368.7,356.4c-0.4,0.5-1,0.7-1.5,0.8
		c-0.5,0-0.9-0.2-1.2-0.4c-10.4-8.2-29.1-9.7-29.3-9.7l0,0c-0.5,0-1-0.3-1.3-0.7c-0.4-0.4-0.5-0.9-0.5-1.5c0-0.5,0.3-1,0.7-1.4
		c0.4-0.3,0.9-0.5,1.5-0.5c0.2,0,20,1.5,31.3,10.5C369.2,354.3,369.4,355.6,368.7,356.4z M423,188.6c-1.1,1.3-3.4,4.7-3.5,6.7
		c0,0,0,0.1-0.1,0.2l-0.4,0.6l0.4,0.6c1,1.4,2.3,3.3,3.4,5.4l0.7,1.4l0.9-1.2c1.6-2.1,3.8-3.9,4.2-4.2c0.5-0.4,1.1-0.3,1.4,0.2
		c0.2,0.2,0.2,0.4,0.2,0.7s-0.2,0.5-0.4,0.7c-1.8,1.4-4.8,4.3-5.2,5.9l-0.1,0.4l0.2,0.3c0.6,1.1,1.1,2.4,1.7,4.1l0.6,1.6l1.1-1.3
		c1.7-2,3.7-3.2,4-3.4c0.5-0.3,1.1-0.2,1.4,0.3c0,0.1,0,0.1,0.1,0.1v0.4c0,0.4-0.1,0.7-0.4,0.8c-0.6,0.3-1.6,1.2-2.7,2.2
		c-1.3,1.3-2.1,2.5-2.3,3.6L428,215l0.1,0.5c0.4,1.7,0.6,3.3,0.8,5c1.7,18.5-4,57-12.9,63.8c-4.5,3.4-10.7,3.9-13.9,3.9
		c-1.8,0-3.6-0.2-5.4-0.5c-6.1-1.1-10.8-3.5-13-6.8c-5.2-7.7-1.7-43.6,4.4-58.9c3.9-9.7,12.5-26.7,18.9-32.2l0.8-0.7l-0.8-0.8
		c-0.9-0.9-1.5-1.4-1.5-1.4c-0.8-0.8-0.9-2-0.2-2.8c0.8-0.8,2-0.9,2.9-0.2c0.4,0.3,4.2,3.6,8.3,8.8l1,1.3l0.7-1.5
		c0.8-1.9,2.1-3.7,2.8-4.6l0.3-0.3c0.3-0.4,0.9-0.6,1.4-0.2C423.2,187.6,423.4,188.2,423,188.6z"/>
	<path fill="#FACFBD" d="M307.6,270.1c-2.8,1.7-4.7,5.8-5.5,11.6c-1.8,12.8,5,22.6,7.1,25.4l1.8,2.4v-3c-0.2-15.6,0.6-29.5,1.6-36.2
		l0.2-1.1h-1.1C310.6,269.1,309.1,269.2,307.6,270.1z"/>
	<path fill="#FACFBD" d="M253.3,257.4l-0.9,0.2l0.1,0.9c0.4,3.7,1.1,7.5,1.7,10.4c1.7,8.3,3.6,21.6,3.1,37.5l-0.1,3.5l1.9-2.9
		c3.9-5.9,7.3-14.7,9.1-24.1c2.3-11.4,1.4-19.2-0.5-21.9C265.9,258.3,261.9,255.4,253.3,257.4z"/>
	<path fill="#FACFBD" d="M247,256.7v-0.3c-1.3-12.5-0.8-23.3-0.2-34.8l0.1-2.4c0.8-16.7-2.4-32.4-4-34.9l-0.2-0.3
		c-0.3-0.6-0.8-1.4-1.1-1.6c-0.5-0.5-1.7-1-2.1-1.1c-0.3-0.2-0.7-0.4-1.2-0.6c-0.2-0.1-0.5-0.2-0.8-0.4c-4.4-2.1-7.1-7.9-8.1-10.3
		l-0.3-0.7l-0.8,0.1c-2.5,0.4-6.1,0.9-9,0.5c-4.1-0.6-7.3-4.8-8.9-7.3L210,162l-0.7,0.1c-1.9,0.4-4.3,0.9-7.2,1.6
		c-5.9,1.5-11.7-1.7-14.7-3.7l-0.5-0.3l-0.5,0.3c-4.3,2.1-15.4,6.6-26.7,2.1l-0.5-0.2l-0.4,0.3c-6.5,4.9-15.4,10.3-27,9.3h-0.5
		l-0.3,0.4c-5.6,6.5-16.2,15-24,18l-0.3,0.1l-0.2,0.3c-2.6,3.9-6.9,24.3-3.4,40.4c0.3,1.5,0.7,2.9,1,4.3c0.5,2,0.9,4,1.3,5.9
		l0.2,0.9c2.6,11.6,4.9,21.6,5.6,34.7v0.6c0.1,1.8,0.2,3.9,0.4,6c0.5,7.2,2.1,26,5.9,44.3c2.1,10.5,4.6,18.9,7.4,25
		c4.7,10.4,13.5,21.3,24.2,29.8c7.3,5.9,14.5,9.8,19.3,10.4c1.7,0.2,3.4,0.3,5,0.3c2.8,0,5.5-0.3,8.2-0.9c1.2-0.3,2.3-0.6,3.1-0.9
		c0.3-0.1,0.7-0.2,1-0.3c1.1-0.4,1.9-0.7,2.6-0.7c0.7-0.1,1.3,0.1,1.8,0.6l1.7,1.4v-1.4c1.9,0.1,6.3-0.1,14.1-2
		c4.6-1.3,10.7-5.2,16.7-10.8c11.7-10.7,20.9-25.1,24.6-38.5c2.2-8,3.7-16.2,4.4-24.5c1.7-18.3-0.5-34.5-2.5-44.8
		C248,265.1,247.4,260.5,247,256.7z M199.6,369.7L199.6,369.7c-0.4,5.1-1.1,8.9-2,10.4c-0.2,0.3-0.4,0.5-0.8,0.5
		c-0.1,0-0.3-0.1-0.4-0.1l-0.1-0.1c-0.3-0.1-0.4-0.4-0.4-0.5c-0.1-0.3,0-0.5,0.1-0.7c1-1.5,1.5-6.9,1.7-9.5c0-0.2,0.1-0.5,0.3-0.7
		s0.4-0.2,0.7-0.2h0.1c0.2,0,0.5,0.1,0.7,0.3C199.5,369.2,199.6,369.5,199.6,369.7z M188.4,239.3c0.4,1.1,1.3,3.8,0.4,5.8
		c-0.5,1.2-1.7,1.9-3.1,1.9h-0.3c-1.4,0-2.4-0.8-3-1.5c-1.1-1.2-1.4-3-1.6-4.4l-0.1-1.1l-1.1,0.2c-1.4,0.3-2.9,0.6-4.5,0.9
		c-2.5,0.5-4.8,0.8-7.1,1l-1.5,0.2l0.2,1c0.3,1.5,0.4,4.4-2,6.1c-0.2,0.2-0.4,0.2-0.9,0.3h-0.1c-0.1,0-0.2,0-0.5,0
		c-1.1,0-2.1-0.4-2.9-1.1c-1.4-1.3-1.9-3.5-2.1-5.1l-0.1-0.9h-0.9c-12-0.1-17.5-3.1-17.6-3.2c-1-0.6-1.3-1.8-0.8-2.8
		c0.2-0.4,0.6-0.8,1.1-0.9c0.2-0.1,0.4-0.1,0.6-0.1c0.3,0,0.6,0.1,0.9,0.2l0,0c1.3,0.7,7.4,3,18.4,2.7c3.6-0.1,7.3-0.5,11.1-1
		l0.7-0.1l0.1-0.7c0.3-2,0.4-12.2,0.3-20.9c0-1.1,0.9-2,2-2s2,0.9,2,2c0.1,10,0,16.4-0.2,19.6l-0.1,1.3l1.3-0.2
		c1.6-0.3,3.3-0.6,4.9-1c17.1-3.9,27.2-9.5,28.7-10.4l0,0c0.9-0.6,2.1-0.3,2.7,0.7c0.6,0.9,0.3,2.1-0.7,2.7h-0.1
		c-1.1,0.8-9.6,5.5-23.6,9l-1.1,0.3L188.4,239.3z M172.6,325.1c-5.3,0-10.8-0.9-15.9-2.6c-12-4.1-19.8-11.8-20.7-20.5
		c-1.8-15.9,4-27.6,17.3-34.8c8.6-4.6,14-9.5,14.2-9.8c0.4-0.4,0.8-0.6,1.3-0.6l0,0c0.5,0,1,0.2,1.4,0.7c0.4,0.4,0.6,0.9,0.6,1.4
		s-0.2,1-0.7,1.4c-0.1,0-5.6,5.2-15.1,10.3c-12,6.5-16.9,16.3-15.2,30.8c0.9,7.1,7.8,13.6,18.1,17.1c10.6,3.6,25.6,3.8,33.4-4.1
		c12.9-13.2,4.4-30.1,3.4-32c-0.5-0.9-0.2-2.2,0.7-2.7s2.2-0.2,2.7,0.7l0.1,0.1c0.7,1.2,11.2,21.1-4,36.7l0,0
		C188,323.6,179,325,172.6,325.1z M159.4,353.7c1.9-1.7,11.7-9.3,26.3-9.3c1.3,0,2.6,0.1,3.9,0.2c13.2,1.2,18.3,2.7,20.1,3.5
		l-2.4,3.4c-1.8-0.6-6.6-1.8-18.1-2.9c-16.2-1.4-27.1,8.1-27.1,8.1c-0.4,0.4-0.9,0.6-1.4,0.6c-0.4,0-1-0.1-1.5-0.7
		c-0.3-0.4-0.5-0.9-0.5-1.4C158.8,354.6,159,354.1,159.4,353.7z M191.1,380.1c-0.1,0.2-0.3,0.4-0.5,0.5c-0.1,0-0.3,0.1-0.4,0.1
		c-0.2,0-0.8,0-0.9-0.6c-0.4-1.5-0.4-8.1-0.4-10.3c0-0.6,0.4-1,1-1s1,0.4,1,1c0,0.3,0,8.3,0.3,9.7
		C191.2,379.6,191.2,379.8,191.1,380.1z M174,371c0.1,0,0.2,0,0.2,0c0.5,0,0.9,0.3,1,0.8c0.6,2.6,2.4,8.1,4.4,10
		c0.2,0.2,0.3,0.4,0.3,0.7c0,0.1,0,0.4-0.3,0.7l0,0c-0.1,0.1-0.3,0.3-0.5,0.2h-0.2c-0.4,0-0.6-0.1-0.7-0.2c-2.7-2.5-4.7-9.3-5-10.9
		C173.2,371.7,173.5,371.1,174,371z M182.3,367.5C182.3,367.5,182.4,367.5,182.3,367.5c0.4,0,0.6,0.1,0.7,0.2
		c0.2,0.2,0.3,0.4,0.3,0.7c0.2,3.6,1,9.8,2,11.2c0.2,0.2,0.3,0.5,0.2,0.8c0,0.2-0.1,0.5-0.4,0.6c-0.2,0.1-0.3,0.2-0.4,0.2h-0.2
		c-0.3,0-0.6-0.1-0.8-0.4c-1.1-1.3-2.1-6.1-2.5-12.2C181.3,368,181.7,367.5,182.3,367.5z"/>
	<path fill="#FACFBD" d="M210.2,392.5l-0.9,0.3c-0.7,0.2-1.3,0.4-1.8,0.6c-10.7,2.9-15.8,2.5-17.6,2.2v-0.7l-1.7,0.6
		c-0.2,0.1-0.5,0.2-0.8,0.3c-0.4,0.1-0.9,0.2-1.4,0.4l-0.8,0.3l0.2,0.8c0.4,1.6,1.1,3.4,2.1,5.8c2.8,5.9,6.8,9.6,11.7,10.7
		c0.8,0.2,1.6,0.2,2.3,0.2c2.6,0,4.8-1.1,6.6-3.3c3.2-4,4.3-11.6,2.5-17.2L210.2,392.5z"/>
	<path fill="#FACFBD" d="M107,286.5V286l-0.4-0.3c-0.5-0.3-5.1-3-9.4-2.8c-1,0-1.9,0.1-2.7,0.4c-2,0.7-3.5,2.2-4.5,4.7
		c-2.1,5.3-1.1,13.1,2.5,20.3c4.1,7.9,10.5,13.9,18.1,16.8l1.7,0.6l-0.3-1.8C109.3,310.1,107.8,295.9,107,286.5z"/>
</g>
<g id="vs-hair">
	<path fill="#97C3FB" d="M499.9,238.5c2.6-12.8,0.1-25.8-1.1-30.7l-0.7-2.7l-1.2,2.6c-0.9,1.9-1.7,3.8-2,4.8l-0.1,0.2v0.2
		c0.3,2.4,0.3,3.8,0.3,4.2c0,0.5-0.2,1-0.5,1.4c-0.4,0.4-0.9,0.6-1.4,0.6h-0.1c-1.1,0-2-0.9-2-1.9c0-0.3,0-1.7-0.3-4.3
		c-0.7-6.1-2.7-18.5-8.4-33.7c-4.9-13-9.4-19.3-12.4-22.3l-2-2l0.3,2.9c0.5,4,1.4,10.4,2.5,16.7v0.1c1.3,3.9,1.9,6.7,2.1,7.9
		c0.1,0.2,0.1,0.4,0.1,0.5c0.1,0.5,0,1-0.3,1.5c-0.3,0.4-0.7,0.7-1.2,0.8h-0.4c-0.9,0-1.7-0.7-1.9-1.7l0,0c-0.1-0.8-0.8-3.8-2.2-7.9
		c-4-11.4-9.5-21.5-16.5-29.8c-7.8-9.5-16.2-14.6-21.9-17.2l-3.3-1.5l2.1,3c4,5.7,5.8,10.4,5.8,10.5c0.4,1.1-0.1,2.2-1.1,2.6
		c-1.1,0.4-2.2-0.1-2.6-1.1l-0.2-0.3c-2.9-6.6-7.1-12.6-11.8-16.9c-0.9-0.9-2.1-1.9-3.3-2.8c-7.8-5.7-22.8-10.5-30.5-12.3l-2.2-0.5
		l1.1,2c2,3.5,5.5,8.4,10.5,14.5c0.6,0.8,0.5,2-0.1,2.7c-0.7,0.7-1.8,0.8-2.6,0.2c-11.5-8.4-31.1-16.7-44.8-15.4
		c-7.5,0.7-11,3.4-11.8,4.8l-0.6,0.9l1,0.5c0.6,0.3,1.5,0.5,2.9,0.6c10.5,0.5,17.4,7.2,17.5,7.3c0.6,0.5,0.8,1.4,0.4,2.2
		c-0.3,0.8-1.1,1.3-2,1.2c-1.4-0.1-14.2-0.3-29.2,6.1c-9.4,4-14.3,9.4-15.6,12.9l-0.6,1.5l1.6-0.1c1.6-0.1,3.4-0.3,5-0.6
		c10.2-1.4,15.2-2,16.4,0.9c1.1,2.6-1,4.1-4.8,6.6l-0.2,0.1c-3.8,2.5-10.2,6.6-19.4,14.8c-13.8,12.4-14.6,24.2-14.5,27.6v1.6
		l1.4-0.8c3.7-1.9,11-6.7,17.5-11.3c0.7-0.5,1.8-0.5,2.4,0.1c0.8,0.7,1,1.7,0.5,2.5l0,0c-1,1.7-6.5,12.9-10.7,25.3
		c-1.8,5.2-2.5,10.8-2.1,16.7l0.2,3.1l2.5-4c0.5-0.9,1.6-1.3,2.5-0.9c0.9,0.4,1.4,1.4,1.1,2.4c0,0.1-0.9,3.2-1.4,12
		c-0.3,5.6,3.5,12.2,5.8,15.6l1.4,2l0.5-2.4c1-5.5,2.5-12,3.9-18.3c0.5-2.1,0.9-4.2,1.4-6.2c1.4-6,2.6-11.9,3.6-16.6l0.2-1.1
		c0.1-0.6,0.2-1.2,0.3-1.8c0.2-0.9,0.3-1.7,0.5-2.4c0.5-3.2,0.7-7.2,0.9-11v-0.1c0.5-9.8,1.1-22.1,7.1-32.3
		c8.6-14.7,38.2-22.3,38.5-22.3c1-0.3,2.1,0.3,2.4,1.3c1.5,4.7,6.9,18.2,13.7,24.1l1.6,1.4v-2.2c0.1-11.4,0-16.7,0-16.7
		c0-0.7,0.4-1.4,1-1.8c0.6-0.4,1.3-0.4,2,0c1.8,0.9,15.7,8.5,19.3,14.6c1.2,2.1,3.1,4.3,5.4,6.3l1.5,1.3l0.2-2
		c0.3-3.1,0.5-5.8,0.5-6.7V170c-0.1-0.5,0.1-1.1,0.4-1.5c0.3-0.5,0.8-0.7,1.3-0.8c0.7-0.1,1.7-0.2,5.5,3c5.5,4.7,15,15.2,15.4,24.5
		c0.2,5.8,0.5,13.4,0.6,19.6l0.2,7.2l1.6-1.6c1.6-1.6,3.6-4.3,4.2-8c0.1-0.9,0.9-1.6,1.8-1.7c0.9-0.1,1.7,0.5,2.1,1.3
		c3.3,9.4,1.9,34.9-0.7,46.8c-0.7,3.1-1.4,5.7-2.4,8.6c-1.5,4.4-2.4,7.5-2.3,13.5v1.7l1.5-0.9c11.3-6.8,20.4-9.1,27-7.1
		c4,1.2,7,4.1,8.9,8.5c2,4.9,2.3,10,0.9,15.3l-1.2,4.3l2.9-3.4c6.9-8.1,12.9-22.6,13.7-33.1c0.3-3.4,0.2-6-0.1-7.8l-0.4-2.2
		l-1.3,1.8c-0.9,1.1-1.6,1.8-2.1,2.2l-1.7-3.8c0.6-0.6,1.4-1.8,2.1-3.9C497.2,249,498.7,244.2,499.9,238.5z"/>
</g>
<path fill="none" stroke="#000000" stroke-width="6" stroke-linecap="round" stroke-linejoin="round" stroke-miterlimit="10" d="
	M174.2,216.3c0,0,0.2,20.3-0.5,21.8"/>
<path fill="none" stroke="#000000" stroke-width="6" stroke-linecap="round" stroke-linejoin="round" stroke-miterlimit="10" d="
	M140.6,238.1c0,0,10.4,5.6,34.2,1.4c23.8-4.2,36.9-12.3,36.9-12.3"/>
<path fill="none" stroke="#000000" stroke-width="6" stroke-linecap="round" stroke-linejoin="round" stroke-miterlimit="10" d="
	M160.2,241.3c0,0-0.5,7.3,3.4,6.8c2.7-1.9,0.4-6,0.4-6l-0.8,2.9"/>
<path fill="none" stroke="#000000" stroke-width="6" stroke-linecap="round" stroke-linejoin="round" stroke-miterlimit="10" d="
	M182.8,239c0,0-0.6,6.1,2.8,6.2c3.3,0.2,0.6-6.1,0-6.8s-0.6,3.8-0.6,3.8"/>
<path fill="none" stroke="#000000" stroke-width="6" stroke-linecap="round" stroke-linejoin="round" stroke-miterlimit="10" d="
	M168.9,258.7c0,0-5.5,5.2-14.7,10.1s-18.5,13.9-16.3,32.8s40.1,29.2,54.9,14.2c14.8-15,3.7-34.4,3.7-34.4"/>
<path fill="none" stroke="#000000" stroke-width="6" stroke-linecap="round" stroke-linejoin="round" stroke-miterlimit="10" d="
	M160.7,355.2c0,0,11.4-10.2,28.7-8.6s20.1,3.6,20.1,3.6"/>
<path fill="none" stroke="#000000" stroke-width="4" stroke-linecap="round" stroke-linejoin="round" stroke-miterlimit="10" d="
	M174.3,372c0,0,1.9,7.9,4.7,10.4"/>
<path fill="none" stroke="#000000" stroke-width="4" stroke-linecap="round" stroke-linejoin="round" stroke-miterlimit="10" d="
	M182.2,368.5c0,0,0.7,9.9,2.2,11.8"/>
<path fill="none" stroke="#000000" stroke-width="4" stroke-linecap="round" stroke-linejoin="round" stroke-miterlimit="10" d="
	M189.9,369.7c0,0-0.1,8.5,0.3,9.9"/>
<path fill="none" stroke="#000000" stroke-width="4" stroke-linecap="round" stroke-linejoin="round" stroke-miterlimit="10" d="
	M198.6,369.7c0,0-0.5,7.7-1.8,9.9"/>
<path fill="none" stroke="#000000" stroke-width="7" stroke-linecap="round" stroke-linejoin="round" stroke-miterlimit="10" d="
	M188.6,392.6c-2.1,0.2-8.3,4-20.3,2.5s-36.2-20.8-45.5-41.6s-13.1-60-14-76.9c-0.9-17-4.4-28.9-7.9-45.4s0.7-39.8,4.7-43.3
	c7.9-2.6,19.8-12.4,24.9-19c11.1,1.6,19.8-2.9,28.8-9.9c13.8,6.9,28.3-2.2,28.3-2.2s7.5,6.3,14.3,4.6s9.7-2.2,9.7-2.2
	s3.7,7.7,8.3,8.3s11.1-1,11.1-1s2.9,9.3,7.9,11.7s4.4,1.7,6.4,4.8c2,3.2,5.1,19.4,4.3,36.3s-1.7,31.1,2.2,50.2s5.2,44.9-1.9,70.4
	c-7.1,25.5-30.5,47.6-43.1,51s-16.9,2.1-16.9,2.1"/>
<path fill="none" stroke="#000000" stroke-width="7" stroke-linecap="round" stroke-linejoin="round" stroke-miterlimit="10" d="
	M249.7,256.1c0.7-0.5,14-5.7,20.2,3.5c6.3,9.2-1.4,46.5-15,55.5"/>
<path fill="none" stroke="#000000" stroke-width="7" stroke-linecap="round" stroke-linejoin="round" stroke-miterlimit="10" d="
	M107.8,283.6c0,0-15-9.2-20.2,3.3s5.2,36.6,25.8,41.6"/>
<path fill="none" stroke="#000000" stroke-width="7" stroke-linecap="round" stroke-linejoin="round" stroke-miterlimit="10" d="
	M106.2,279.7c0,0-15.5-4.6-17.1-12.2s3.4-10.1,1.3-13.6c-2.2-3.6-11.5-9.2-8.4-18.1c3.1-8.9,6.8-8.6,4.8-14.2
	c-1.9-5.6-6-18.2-3.9-22s9.1-6.9,9.5-11.7c0.5-4.8,0.3-16.1,6.6-20.1s8-0.9,10.3-8.9s6-17,12.6-16.7c6.6,0.2,9.2,4.2,16.1-2.3
	s16.4-13.5,21-10c4.6,3.6,10.9,5,15.2,1.9s13.8-7.4,19.3-2.9c5.5,4.5,6.2,3.9,12.7,3s14.1-2.4,17.5,4.5s5.5,4.9,11.9,5.2
	c6.4,0.2,8,8.7,8.8,11.2s14.3,4.4,14.8,8.3c0.5,3.9-0.7,12.6,2.2,15.2c2.9,2.6,8.4,8,6.5,15.2c-1.8,7.2-4.2,6.3-1.9,13
	c2.3,6.6,4.3,11.9,2.3,18.7s-3.8,4.6-2.4,12.5s-2.2,15.1-4.5,16.9"/>
<path fill="none" stroke="#000000" stroke-width="7" stroke-linecap="round" stroke-linejoin="round" stroke-miterlimit="10" d="
	M146,384.4c0,0-19.5,9.7-21.6,24.3s-9.9,33.6-9.8,41.2"/>
<path fill="none" stroke="#000000" stroke-width="7" stroke-linecap="round" stroke-linejoin="round" stroke-miterlimit="10" d="
	M161.2,428.8c0,0-9.6,22.9-9.6,26.1"/>
<path fill="none" stroke="#000000" stroke-width="7" stroke-linecap="round" stroke-linejoin="round" stroke-miterlimit="10" d="
	M182.2,394.5c0,0,2.5,18.8,16.4,21.6c13.8,2.9,18-15.7,13.5-25.3"/>
<path fill="none" stroke="#000000" stroke-width="7" stroke-linecap="round" stroke-linejoin="round" stroke-miterlimit="10" d="
	M225.9,380.3c0,0,11-1.1,14.7,13.5s13.4,66.3,28.5,91"/>
<path fill="none" stroke="#000000" stroke-width="7" stroke-linecap="round" stroke-linejoin="round" stroke-miterlimit="10" d="
	M230.5,407.3c0,0,2.3,19.3,1.5,27.7c2.8,18.3,6.8,29.8,7.5,52.3"/>
<path fill="none" stroke="#000000" stroke-width="6" stroke-linecap="round" stroke-linejoin="round" stroke-miterlimit="10" d="
	M371.4,173.5c0,0-30.7,8.7-41.1,34.4s-4.9,67-2.9,68.3s9.6,8.1,18.2,6.1s17.1-24.5,19.7-44.2s0.9-43-10.5-55.3"/>
<path fill="none" stroke="#000000" stroke-width="4" stroke-linecap="round" stroke-linejoin="round" stroke-miterlimit="10" d="
	M353.6,169.4c0,0-2.3,7.9-0.6,10.7"/>
<path fill="none" stroke="#000000" stroke-width="4" stroke-linecap="round" stroke-linejoin="round" stroke-miterlimit="10" d="
	M342.8,174.7c0,0-3.2,7.1,0,11.8"/>
<path fill="none" stroke="#000000" stroke-width="6" stroke-linecap="round" stroke-linejoin="round" stroke-miterlimit="10" d="
	M340.2,265.5c1.4-0.1,0.7,4.5-0.3,3.9c-1-0.7-0.8-2.3,0-2.9"/>
<path fill="none" stroke="#000000" stroke-width="6" stroke-linecap="round" stroke-linejoin="round" stroke-miterlimit="10" d="
	M347,281.8c0,0-2.1,3.2-9.5,3.7s-6.9,11-5.1,19.1s10.5,11.7,10.5,11.7"/>
<path fill="none" stroke="#000000" stroke-width="6" stroke-linecap="round" stroke-linejoin="round" stroke-miterlimit="10" d="
	M407,185.3c0,0,18.3,15.8,20.2,35.2s-4.1,56-12.1,62c-7.9,6-25.1,3.7-29.5-2.8c-4.4-6.6-1.8-41,4.6-57c6.4-16.1,16.7-32.3,20.5-32.7
	"/>
<path fill="none" stroke="#000000" stroke-width="6" stroke-linecap="round" stroke-linejoin="round" stroke-miterlimit="10" d="
	M397,269.2c2.8,0.3,1.4,6.9-1.3,6.3c-2.6-0.6-0.9-6.2,0.5-5.6s0,3.4,0,3.4"/>
<path fill="none" stroke="#000000" stroke-width="4" stroke-linecap="round" stroke-linejoin="round" stroke-miterlimit="10" d="
	M422.4,187.8c0,0-3.6,4.5-3.8,7.1"/>
<path fill="none" stroke="#000000" stroke-width="4" stroke-linecap="round" stroke-linejoin="round" stroke-miterlimit="10" d="
	M429.5,198.7c0,0-5.5,4.3-5.6,6.9"/>
<path fill="none" stroke="#000000" stroke-width="4" stroke-linecap="round" stroke-linejoin="round" stroke-miterlimit="10" d="
	M433,207.9c0,0-4.8,3-5.5,6.5"/>
<path fill="none" stroke="#000000" stroke-width="6" stroke-linecap="round" stroke-linejoin="round" stroke-miterlimit="10" d="
	M443.7,315.2c0,0,11.3-14.4,20.6-13.9"/>
<path fill="none" stroke="#000000" stroke-width="6" stroke-linecap="round" stroke-linejoin="round" stroke-miterlimit="10" d="
	M336.9,345.1c0,0,19.4,1.5,30.3,10.1"/>
<path fill="none" stroke="#000000" stroke-width="6" stroke-linecap="round" stroke-linejoin="round" stroke-miterlimit="10" d="
	M373.3,413.2c0,0-4.1-16.1-15.7-23.7c-11.7-7.6-34.8-18.8-40.5-41.2s-4.5-64.8-2.3-78.8c2.2-14,9.2-42.1,11-53.1s-0.5-28.9,7.7-42.8
	c8.1-13.9,37.3-21.4,37.3-21.4s8,24.3,19.3,28c0.1-15.4,0-22,0-22s15,7.9,18.5,13.9s10.3,10.2,10.3,10.2s1.2-11.5,1-12.7
	c1.8-0.2,18.1,14.1,18.6,25.6s0.9,30,0.9,30s8.4-3.8,9.7-12.6c3.2,9.1,1.7,34.3-0.8,45.8c-2.5,11.5-5.7,13.3-4.4,27.9
	c16.1-10.8,31.9-15.2,37.1-2.2s-1.8,29.2-30.4,49.4l-2.8,2.1"/>
<path fill="none" stroke="#000000" stroke-width="6" stroke-linecap="round" stroke-linejoin="round" stroke-miterlimit="10" d="
	M313.5,267.5c0,0-10.9-3.7-13.4,14.1c-2.5,17.8,10.2,30.7,11.6,30.7"/>
<path fill="none" stroke="#000000" stroke-width="6" stroke-linecap="round" stroke-linejoin="round" stroke-miterlimit="10" d="
	M312.9,267.1c0,0-9.2-10.7-8.6-20.1c0.6-9.4,1.5-12.5,1.5-12.5L301,243c0,0-4.1-11.9,0.6-25.9s10.8-25.6,10.8-25.6
	S292.2,205.7,291,204c-1.3-1.7-2.6-17.4,14.5-32.8s24.9-16.7,23.8-19.1s-17.1,1.1-21.3,1.1s-1-11.2,15.5-18.2s30.2-6.3,30.2-6.3
	s-6.5-6.3-16.1-6.7c-9.6-0.5-6.3-9.5,8.4-10.9s34.5,7.2,46.2,15.7c-10.2-12.7-13.5-18.8-12.1-19.7s24.9,5,35.9,13.1
	s15.9,20.9,15.9,20.9"/>
<path fill="none" stroke="#000000" stroke-width="6" stroke-linecap="round" stroke-linejoin="round" stroke-miterlimit="10" d="
	M419.4,123.2c0,0,17.7,2.6,33.2,21.2s19.1,38.7,19.1,38.7"/>
<path fill="none" stroke="#000000" stroke-width="6" stroke-linecap="round" stroke-linejoin="round" stroke-miterlimit="10" d="
	M469.4,174.8c0,0-4-22.5-2.6-22.8s9.6,3.8,18,26.3s8.9,38.7,8.9,38.7"/>
<path fill="none" stroke="#000000" stroke-width="6" stroke-linecap="round" stroke-linejoin="round" stroke-miterlimit="10" d="
	M493.3,212.6c-0.1-1.1,5.1-12.7,6-11.3s6.7,19.9,3.1,37.6c-3.7,17.7-9.1,20-9.1,20"/>
<path fill="none" stroke="#000000" stroke-width="6" stroke-linecap="round" stroke-linejoin="round" stroke-miterlimit="10" d="
	M497.6,253.7c0,0,4.5-0.9,3.4,12.7s-11.2,35.8-22.2,40.6"/>
<path fill="none" stroke="#000000" stroke-width="6" stroke-linecap="round" stroke-linejoin="round" stroke-miterlimit="10" d="
	M443.4,331.7c8.1,4-4.3,27.1-17,22.8s10.9-26.7,16.6-22.8"/>
<path fill="none" stroke="#000000" stroke-width="6" stroke-linecap="round" stroke-linejoin="round" stroke-miterlimit="10" d="
	M422.7,350.2c0,0-29.3,24.8-30.8,37.8s3.4,21.1,6.2,29.2c2.8,8.1,17.8,51.8,15.8,85.3"/>
<path fill="none" stroke="#000000" stroke-width="6" stroke-linecap="round" stroke-linejoin="round" stroke-miterlimit="10" d="
	M371.4,410.7c0,0-15.7,16.7-25.8,36.1c-10.1,19.4-20.8,59-21.4,59.8"/>
<path fill="none" stroke="#000000" stroke-width="6" stroke-linecap="round" stroke-linejoin="round" stroke-miterlimit="10" d="
	M352,435.8c0,0,9-8.2,16.3-8.5s16.9,3.8,19.8,3.2c2.9-0.6,9-8.6,9.6-11.9"/>
<path fill="none" stroke="#000000" stroke-width="6" stroke-linecap="round" stroke-linejoin="round" stroke-miterlimit="10" d="
	M369.6,465.4c0,0-5.2,25.7-4.7,46.6"/>
<path fill="none" stroke="#000000" stroke-width="4" stroke-linecap="round" stroke-linejoin="round" stroke-miterlimit="10" d="
	M397.7,456.9c0,0,8.4,31,6.5,43.4"/>
<path fill="none" stroke="#000000" stroke-width="4" stroke-linecap="round" stroke-linejoin="round" stroke-miterlimit="10" d="
	M303.3,305.2c0,0-15.4,9.1-11,19.5s20.3-2.5,20.3-2.5"/>
<path fill="none" stroke="#000000" stroke-width="4" stroke-linecap="round" stroke-linejoin="round" stroke-miterlimit="10" d="
	M455.7,320.9c0,0,11.6,6.6,12.6,16.6c1,9.9-7.6,9.5-11.6,4.8s-6.5-10.1-6.5-10.1"/>
<path fill="none" stroke="#000000" stroke-width="21" stroke-linecap="round" stroke-linejoin="round" stroke-miterlimit="10" stroke-opacity="0" d="
	M98.8,269.7c-1.5-4.8-8.5-31.6-8.5-31.6c-1.1-1-0.6-15.3-0.6-15.3s0.3-24.1,6.1-36.6c5.8-12.5,19.1-18.7,19.4-19.1s8-3.8,8-3.8
	l-1.5-14.4l3.5-2.8c0,0,7.4,13.5,8.4,13.3s7.2-0.5,7.2-0.5s-4.7-12.5-2-14.9s8.5-8.5,8.5-8.5s1.8,19.6,3.3,18.3s6.6-2.8,6.6-2.8
	l2.9-16.5c0,0,8-0.6,7.6,0.5c-0.3,1-5,17.1,0,16.5s10-0.8,10-0.8s-1.7-16-0.7-16.7c1-0.6,9.1-5.8,9.1-2.1s1.4,14,1.4,14
	s11.4,5.3,11.4,4.9s0-12.2,0.8-12.3s9.2-1.6,9.2-1.6s1,9.3,1.1,9.6s10,10.2,10,10.2l2.3-15.3c0,0,15.3,1.9,14.7,2.6
	c-0.6,0.7-4.1,14.4-4.1,14.4l7.5,2.4c0,0,13.9,2.5,13.3,2.9c-0.6,0.3-8,4.6-8,5.2c0,0.6,9.2,8,9.2,8s3.3,6.4,6,18.6
	c2.6,12.2,0,35.2,0,35.2l-2.9,12.8"/>
<path fill="none" stroke="#000000" stroke-width="26" stroke-linecap="round" stroke-linejoin="round" stroke-miterlimit="10" stroke-opacity="0" d="
	M137,170.6c-3.5,2.1-31.2,24.5-31.2,24.5v22.7c0,0,60.3-55,61.9-55s19.4-1.8,19.4-1.8s-85.9,75.5-85.9,77.3s1.7,9.8,1.7,9.8
	L205.8,164l21.2,3.2c0,0-136,120.4-136.2,121.1s4,10.8,4,10.8S236,180.8,237.2,181.3s5.1,10.2,5.1,10.2S99.3,313,99.6,313.7
	s9.4,10.4,9.4,10.4s132.3-113.6,133.2-112.6c0.9,0.9,3.2,16.5,3.2,16.5s-116.3,96-118.1,102.2s0,17.2,0,17.2l122-95.2l8.7,5.5
	c0,0-126.8,98.6-121.7,101.8c5,3.2,9.7,8.1,9.7,8.1s121-102.6,119.8-98c-1.3,4.6-6.8,21.3-6.8,21.3s-104.1,84.3-102.6,84.8
	s7.9,4,7.9,4s102.7-81.6,95.2-73.4s-16.3,22.1-16.3,22.1l-70.3,53.9c0,0,17.1-0.5,17.8-0.9s53.1-46.4,51.9-43.9
	c-1.2,2.4-32.2,35.5-32.2,35.5s-9.8,11.8-9.7,12.1c0.1,0.3-5.8,6.9-5.8,6.9l5.8,9.2"/>
<path fill="none" stroke="#000000" stroke-width="26" stroke-linecap="round" stroke-linejoin="round" stroke-miterlimit="10" stroke-opacity="0" d="
	M153.7,388.6c-6.4,6.2-25,22.1-25,22.1l-4.1,18.2l40.4-32.7l16,1.2l-55.8,48.9l15.1,3.6c0,0,87.4-66.9,89.1-64.5s9,8.3,9,8.3
	l-80.1,61.2l9.4,5l73.3-48.6l4.6,8.1l-61.2,47.1l10.4,4.9l52.7-30.4l3.7,6.4l-38.1,28.2l8.9,4.3c0,0,38.5-22.9,39.1-21.1
	s4.5,6.1,3,6.9s-25.2,19.6-22.8,19.3s18.7-0.5,18.7-0.5l6.8-8.1"/>
<path fill="none" stroke="#000000" stroke-width="26" stroke-linecap="round" stroke-linejoin="round" stroke-miterlimit="10" stroke-opacity="0" d="
	M302.8,254.2c-0.1-1.7,7.1-39.3,7.1-39.3l4.1-32.4l-15.8,12.2l21.7-21.9l12.1-17.2l10.8-6.7c0,0-29.8-4.1-29.1-4.7
	c0.7-0.6,17.4-7,17.4-7s20.9-5.6,20-5.5c-0.8,0,5.6,12.4,5.6,12.4s9.5-1.5,8.7-2s-23.6-23.5-22.6-23.8c0.9-0.3,15-0.3,16.7,0.2
	s11.9,6.9,11.9,6.9l9.6,24"/>
<line fill="none" stroke="#000000" stroke-width="15" stroke-linecap="round" stroke-linejoin="round" stroke-miterlimit="10" stroke-opacity="0" x1="382.3" y1="159.1" x2="385" y2="169.4"/>
<path fill="none" stroke="#000000" stroke-width="26" stroke-linecap="round" stroke-linejoin="round" stroke-miterlimit="10" stroke-opacity="0" d="
	M381.9,110.7c0.5,0.9,21.2,41.5,21.2,41.5l13.2,9.7"/>
<path fill="none" stroke="#000000" stroke-width="15" stroke-linecap="round" stroke-linejoin="round" stroke-miterlimit="10" stroke-opacity="0" d="
	M412.9,165.5c0.2,0.9,1.5,4.4,1.5,4.4"/>
<path fill="none" stroke="#000000" stroke-width="26" stroke-linecap="round" stroke-linejoin="round" stroke-miterlimit="10" stroke-opacity="0" d="
	M415.7,156.3c-0.6-0.6-15.2-39.2-13.1-37.5c2.2,1.7,24.3,32.8,24,33.8s7,12.9,7,12.9s-5-36-3-32.3s10.8,14.6,10.8,14.6
	s11.7,9.2,10.7,9.3s-11.7,18-11.7,18L450,192c0,0,20-28.1,20.1-27.8c0,0.3,6.4,1.3,6.4,1.3l4.1,9.6l-27.4,27.6"/>
<path fill="none" stroke="#000000" stroke-width="15" stroke-linecap="round" stroke-linejoin="round" stroke-miterlimit="10" stroke-opacity="0" d="
	M444.5,204.7c0,1.2-0.3,5.1-0.3,5.1v3.5"/>
<path fill="none" stroke="#000000" stroke-width="26" stroke-linecap="round" stroke-linejoin="round" stroke-miterlimit="10" stroke-opacity="0" d="
	M461.7,204.7l28.9-10.7l-30.3,21.7l2.8,19.9c0,0,31.3-21.2,32.1-19.4c0.8,1.9,3.3,17.3,3.3,17.3s-35.6,16.5-35.6,17
	s-6.1,15.2-6.1,15.2"/>
<path fill="none" stroke="#000000" stroke-width="15" stroke-linecap="round" stroke-linejoin="round" stroke-miterlimit="10" stroke-opacity="0" d="
	M452,272.4c-0.2,0.1-3.5,5.1-3.5,5.1"/>
<path fill="none" stroke="#000000" stroke-width="26" stroke-linecap="round" stroke-linejoin="round" stroke-miterlimit="10" stroke-opacity="0" d="
	M465.6,262.5c2.2,0,18.6-4.5,18.6-4.5s11.1-4.4,12.6-4.3s6,4.1,4.1,4.7s-16.4,8.7-16.4,8.7s6.2,6.1,6.8,7.3c0.6,1.1,4,10.5,4,10.5
	s-1.5,15-0.8,14.8"/>
<path fill="none" stroke="#000000" stroke-width="26" stroke-linecap="round" stroke-linejoin="round" stroke-miterlimit="10" stroke-opacity="0" d="
	M370.1,155.7c-4,0.9-35.5,25-36.2,27.4s-20.6,26.5-8.1,19.1c12.6-7.5,64.3-35.9,64.3-35.9l17,4.6l-49,32.8c0,0-51.3,62.7-51,63.5
	s-0.6,9.6-0.6,9.6l106.3-95.2l21.4-4.9l4.9,11.2c0,0-135.7,99.8-132,109.2c3.7,9.4,4.4,10,4.4,10s128.2-101.7,131.2-95.9
	s5.7,15.2,5.7,15.2s-131.1,88.8-131.7,98.4s-0.8,17.4-0.8,17.4l132.6-97.3l-7.8,18.1c0,0-115.4,89.6-116.5,91s7.1,9.6,7.1,9.6
	s114.9-78.9,116.1-79.6s20,0,20,0S339,372.3,344.1,374.4c5,2,11.9,10.1,11.9,10.1l120.2-91.1l-53.3,52l-49.6,48l0.4,11
	c0,0,17.1-8.2,17.9-6.9c0.8,1.2-1.1,13.1-1.1,13.1l-6.9,5.1h-13.8h-7.3"/>
<path fill="none" stroke="#000000" stroke-width="26" stroke-linecap="round" stroke-linejoin="round" stroke-miterlimit="10" stroke-opacity="0" d="
	M372.4,427.4c-1.6,0-21.4,9.9-22.4,11.6s-6.5,15.8-6.5,15.8l67.6-29.6l-1.6,16c0,0-69.9,37.1-70.6,38.8c-0.7,1.6-3.9,15.8-3.9,15.8
	l71.4-31.6l4.7,12.8c0,0-65.3,29.9-64.4,29.6s5.7,2.3,6.9,2.3s46.1-11,47.4-11.5c1.3-0.4,6.1-2.5,6.1-2.5"/>
</svg>
