<?xml version="1.0" encoding="utf-8"?>
<!-- Generator: Adobe Illustrator 24.3.0, SVG Export Plug-In . SVG Version: 6.00 Build 0)  -->
<svg isCommex="true" version="1.1" id="Layer_2_1_" xmlns="http://www.w3.org/2000/svg" xmlns:xlink="http://www.w3.org/1999/xlink" x="0px" y="0px"
	 width="615.3px" height="632px" viewBox="0 0 615.3 632" enable-background="new 0 0 615.3 632" xml:space="preserve">
<g id="vs-secondary">
	<path fill="#5A77BA" d="M277.5,501c-0.1-27.3-8.4-40.6-10.1-43l-0.5-0.7l-0.8,0.4c-6.1,3.2-28.2,13.7-57.9,13.7
		c-7.6,0-15.3-0.7-22.9-2.2l-1.8-0.3l0.6,1.7c3.6,9.6,9.5,28.1,8,44.9l-0.1,0.8l0.7,0.3c4.6,1.7,10.8,2.5,18.4,2.5
		c5.6,0,12.1-0.5,19.3-1.4c21.5-2.8,37.1-10.1,46.5-15.7l0.5-0.3L277.5,501z M247,482.8l-0.1-0.2c-0.2-0.7-0.1-1.3,0.1-1.7
		c0.3-0.5,0.8-0.9,1.3-1l7.6-2.1c1.1-0.3,2.2,0.4,2.5,1.4c0.3,1.1-0.3,2.2-1.4,2.5l-5.7,1.6l0.3,1c0.9,3.1,3.9,13.9,3,23.7
		c-0.1,1-1,1.8-2,1.8h-0.2c-0.6-0.1-1-0.4-1.4-0.8c-0.3-0.4-0.5-0.9-0.4-1.4C251.5,498.2,248.4,487.1,247,482.8z"/>
</g>
<g id="vs-primary">
	<path fill="#6495FB" d="M312.2,322.4l-0.7-0.3l-0.5,0.5c-3,3.2-6.4,6.4-10.7,10.2l-1.2,1.1l1.5,0.6c0.3,0.1,0.6,0.3,0.9,0.6
		c0.7,0.8,0.7,2-0.1,2.7c0,0-0.1,0.1-0.2,0.1c-3.2,2.3-7,3.6-10.8,3.6c-5.8,0-11.7-2.8-17.5-8.2c-12.2-11.6-16.5-30.3-17.8-37.8
		c-0.2-0.6-0.3-1.2-0.3-1.7l-0.1-0.9l-0.5-0.2c-2.8-1.1-10.1-3.3-17.6,0.1c-9.3,4.3-16.2,15.3-20.4,32.9c-0.1,0.7-0.6,1.2-1.3,1.4
		l-0.3,0.1l-0.2,0.3c-5.3,7.1-10,14.1-14,20.8l-0.6,0.9l0.1,0.1c-22.1,36.7-31.7,73.1-29.3,111.2l0,0.7l0.6,0.2
		c3.8,1.2,7.2,2.2,10.3,2.9c8.6,2.1,17.6,3.1,26.7,3.1c9.5,0,19.1-1.1,28.6-3.3c18.4-4.2,29.1-10.7,32-12.6c0.7-0.5,1.4-1,1.9-1.4
		l0.4-0.4l-0.1-0.6c-1-7.1,0.3-22.1,1.8-32.8l0.3-2.4l-1.9,1.5c-17,13-42.1,30.8-45.4,32.1c-2.6,1-5.3,0.6-7.7-0.8
		c-6.3-3.8-11.2-15.3-14.3-34.1c-5.8-35.2,0.9-61.4,1-61.6c0.1-0.2,0.2-0.4,0.2-0.6l0.2-0.3c0.5-0.4,1.1-0.6,1.8-0.4
		c0.5,0.1,1,0.5,1.2,0.9c0.3,0.4,0.4,1,0.2,1.5l0,0c-0.6,2.6-6.2,28-0.9,60c3.6,22,8.7,29.1,12.3,31.3c0.9,0.6,1.8,0.9,2.8,0.9
		c0.6,0,1.1-0.1,1.8-0.3c3.4-1.5,42.6-29.4,55.3-40.1l0.7-0.6l-0.5-0.7c-3.9-6.2-3.9-15.8-2.8-22.1l0.4-2.1l-1.8,1
		c-16.3,9.1-37.1,25.6-38.7,26.9l0,0c-0.9,0.7-2.2,0.5-2.8-0.3c-0.3-0.4-0.5-1-0.4-1.5c0.1-0.5,0.3-1,0.7-1.3l0.1-0.1
		c0,0,0.1-0.1,0.2-0.2c0.2-0.1,0.4-0.3,0.6-0.5l0.5-0.4l-0.5-1.5c-4.1-24.5,4.4-55.4,6.1-61.4l0-0.2c0.2-0.5,0.5-0.9,1-1.2
		c0.5-0.3,1-0.3,1.6-0.1c0.5,0.1,0.9,0.4,1.1,0.9c0.3,0.5,0.3,1,0.2,1.6l0,0.2c0,0.1-0.1,0.3-0.1,0.5c-2.8,10.1-9,35.9-6.1,56.8
		l0.2,1.7l1.4-1c17.2-13,30.6-21.8,39.9-26l0.1-0.1c0.3-0.2,0.6-0.2,0.9-0.2l0.3,0.1l0.3-0.1c0.5-0.2,1-0.4,1.6-0.7
		c0.2-0.1,0.5-0.2,0.8-0.3l0.5-0.2l0.1-0.6c0.6-5.9,7.5-17.9,10.5-22.8c0.3-0.4,0.7-0.8,1.2-0.9c0.5-0.1,1,0,1.5,0.3
		c0.4,0.3,0.8,0.7,0.9,1.2c0.1,0.5,0,1-0.2,1.5c-3.7,6-7.2,12.9-8.9,17.3l-0.8,2.2l2.1-0.9c4.8-2,10.3-4.2,15.3-6.2l0.7-0.3
		l-0.1-0.8c-0.8-6.1,2.1-11,4.9-15.7l0.1-0.2c2.1-3.6,4.3-7.3,4.9-11.7C318.3,326.1,314.1,323.3,312.2,322.4z"/>
	<path fill="#6495FB" d="M285.9,404.3l-1.2-0.3v1c-1.5,1.5-4.3,3.7-6.9,5.7l-0.4,0.4v0.5l0,0.3c0.6,1.9,2.2,3.6,4.4,4.7
		c1.8,0.9,3.9,1.4,5.8,1.4c1.2,0,2.4-0.2,3.4-0.6c6.3-2.5,10.5-6.8,12.5-9.2l1.2-1.5l-1.9-0.1C297.9,406.3,291,405.6,285.9,404.3z"
		/>
</g>
<g id="vs-hair">
	<path fill="#FFF996" d="M397.2,170.1c-1.7-3.5-6.1-4.3-10.3-4.7c-0.9,0-1.7-0.7-1.9-1.6c-0.2-0.9,0.3-1.8,1.1-2.2
		c4.1-1.8,9.4-9.4,10.5-16.9c0.8-5.2-0.5-9.3-3.7-12.1c-2.9-2.6-5.4-3.6-7.5-2.9l-0.4,0.1l-0.2,0.4c-2.8,5.7-4.4,5.9-5,5.9
		c-0.7,0.1-1.6-0.2-2.1-1c-1.2-2,1.9-6.3,3.6-7.7c0.2-0.2,0.2-0.2,0.2-0.2l0.3-0.2l0.1-0.3c0.8-1.9,1.6-3.9,2.4-6.3
		c2.5-7.2,1.2-17.2-2.9-22.8c-2.1-2.9-4.7-4.3-7.5-4.2c-6.4,0.3-11.5,9-12.8,11.6l-0.1,0.2l0,0.2c-0.2,3.6-1.2,6.5-2.6,7.3
		c-0.8,0.5-1.9,0.5-2.6,0c-1.3-1-0.9-2.8-0.4-4.4l0-0.2c0.3-1.1,0.9-2.4,1.5-3.8l0.1-0.2V104c0-2.3-0.3-6.8-2.2-10.3
		c-1.8-3.2-4.6-4.8-8.5-4.8c-4.2,0-7.6,1.6-10.6,4.8c-4.6,5.2-5.8,12.5-6,14.6l0,0.1l0,0.1c0.2,1.1,0.1,2.4-0.1,4.1
		c-0.1,1-1,1.8-2,1.7c-1,0-1.8-0.7-1.9-1.8c-0.2-1-0.2-2.3,0-3.9l0-0.1l0-0.1c-1.1-7.8-10.1-10.1-13.9-10.6c-0.7-0.1-1.3-0.1-2-0.1
		h-1l0,1.4c0.5,8.3-2.7,12.6-5.6,13.7c-2,0.8-4.1,0.3-5.4-1.3c-2.1-2.5-1-7.3,0.8-10.7c1-1.8,2.4-3.4,4.1-4.7l0.8-0.6l-0.6-0.8
		c-2.1-2.9-5.8-5.4-9.9-6.9c-2.2-0.8-9.6-2.9-13.8,1.9c-2,2.3-3.4,4.8-4.2,7.5l-0.2,0.7l0.6,0.4c0.3,0.2,0.7,0.6,0.9,1
		c4.8,5.6,3.9,10.4,1.7,12.8c-1.5,1.6-3.7,1.9-5.2,0.7c-0.9-0.8-2.1-2.6-2.6-7.1c-0.2-1.8-0.1-3.6,0.1-5.3l0.1-0.8l-0.7-0.3
		c-1.9-0.8-4.3-1-6.8-0.7c-5.3,0.9-9.6,4-11.5,8.3c-1.1,2.3-1.3,4.8-0.8,7.4l0.1,0.7l0.7,0.1c3.3,0.4,5.9,2.4,7,5.2
		c0.9,2.3,0.3,4.4-1.4,5.2c-2,1-4.2-0.6-5.8-2c-1-0.9-1.9-2.1-2.7-3.5l-0.4-0.7l-0.8,0.2c-5.9,1.9-9,12.9-9,20.2v0.7l0.7,0.2
		c5.8,1.8,8.6,5.1,9.2,7.3c0.2,1,0.4,2.9-1.3,4.2c-1.3,1.1-3.4,1.3-5.4,0.6c-3.1-1.1-5.5-4.1-6.7-8.3l-0.2-0.7l-0.7-0.1
		c-0.1,0-0.1,0-0.2,0c-0.2,0-0.3-0.1-0.5-0.1c-4.1-0.4-8.2,0.9-11,3.6c-2.3,2.1-3.9,5-4.9,8.7l-0.2,0.8l0.7,0.4
		c5.6,3.1,10.2,8.3,11.8,13.1c0.9,2.9,0.6,5.5-0.9,7.3c-2.3,2.8-5.7,3.8-8.9,2.7c-2.7-0.9-7.1-4.2-7.4-15.9c-0.1-1.6,0-3.1,0.1-4.4
		l0.1-0.8l-1.7-0.6c-8.7-2.2-14,4-18.4,11.1c-0.7,1.1-1.4,2.3-2.1,3.6c-1.8,3.4-1.9,5.8-0.2,7.9l0.4,0.5l0.6-0.2
		c2.3-0.7,4.6-0.9,6.8-0.6c2.3,0.3,4.6,0.8,5,2.6c0.1,0.8,0.1,2-1.3,2.9c-1.9,1.3-8,2.6-10.5,0.9l-0.6-0.3c-0.1,0-0.1-0.1-0.2-0.1
		c-0.1-0.1-0.3-0.2-0.5-0.3l-0.4-0.2l-0.4,0.2c-6.2,3-10.6,9.5-11.8,17.2c-0.8,5.3-0.2,9.2,1.9,11.7c2.3,2.7,6.5,4.1,12.8,4.1
		c0.6,0,1.4,0,2.1-0.1l0.4-0.1l0.2-0.3c0.2-0.2,0.3-0.4,0.4-0.6c0.2-0.3,0.4-0.5,0.6-0.8c2-2.4,5.8-6.3,9.3-6.2
		c2.7,0.1,3.6,1.8,3.6,3.3c-0.1,2.9-4.5,7-11.6,8.3l-0.4,0.1l-0.2,0.4c-2.2,3.5-5.8,10.3-4.4,16.2c1,4.3,3.9,7.4,7.8,8.2
		c4.7,1.1,9.6-1,13.5-5.7l0.1-0.2c0,0,0.1-0.1,0.2-0.3c0.7-0.8,2-0.9,2.8-0.2c0.8,0.7,0.9,1.9,0.3,2.8l-0.2,0.2l-0.1,0.2
		c-1.2,1.9-2.7,8.6-1.1,14.4c1.1,3.9,3.5,6.5,6.9,7.5c1.8,0.5,3.4,0.7,4.9,0.7c6,0,9.3-3.6,10.3-4.9l0.4-0.5l-0.3-0.6
		c-1.6-2.9-2.7-6.4-3.2-10c-1.8-12.5,2.9-26.6,10.8-32.8c9.6-7.4,18.9-2.1,22.4,0.5l0.4,0.3l0.5-0.2c3.4-1.3,5.8-5.4,6.3-10.6
		c0.5-5.3-1.1-10.1-4.1-12c-0.7-0.4-1.1-1.1-1-1.9c0.1-0.8,0.5-1.5,1.2-1.8l0.1,0c1-0.5,3.6-1.9,9.5-28.3c0.3-1.1,1.4-1.8,2.4-1.6
		c14,3.1,26.2-10.3,35.3-22.4c0.4-0.5,1-0.8,1.8-0.8c0.7,0.1,1.3,0.5,1.6,1.1c1.2,2.6,4.7,3.6,6.1,3.8c7,1.6,16.8-0.4,20.2-3.2
		c0.6-0.5,1.4-0.6,2.1-0.2c0.6,0.4,1.2,1.2,1,2c-0.6,4.8,4.6,6.9,7.8,7.4l1,0.2c4.5,0.7,5.3,1.7,5.6,6.9l0,0.1c0,0.2,0,0.4-0.2,0.8
		c-3.5,6.8-2.5,17.8-2.4,18.2c0,0.7-0.1,1.1-0.3,1.4l-0.4,0.6l0.5,0.6c2,2.3,3.6,5.4,4.9,9.3l0.3,0.7h0.7c1.3,0.2,19.9,2.2,25.6-6.2
		C397.8,178.4,398.9,173.3,397.2,170.1z"/>
	<path fill="#FFF996" d="M223,176.8c0.6,0,1.3-0.2,1.9-0.5c1.3-0.8,2-2.3,1.7-3.5c0-0.1-0.1-0.3-0.1-0.4c-0.4-1.8-1.3-5.7-8-10.2
		l-1.5-1l-0.1,1.8c0,1-0.2,9.4,2.9,12.5C220.8,176.3,221.9,176.8,223,176.8z"/>
	<path fill="#FFF996" d="M301,107.8l-0.1,2.3l1.7-1.6c2.3-2.1,2.3-6.4,2.3-6.5v-2.9l-1.8,2.3C303.1,101.5,301.1,104.1,301,107.8z"/>
</g>
<g id="vs-skin">
	<path fill="#FACFBD" d="M411,350.4L411,350.4c-4.6-5.5-17.7-6.7-17.9-6.8c-1.1-0.1-1.9-0.9-1.9-1.9c0.1-1.1,0.9-1.9,1.9-2
		c4.3-0.2,14.1-1,17.1-2.7c1-0.5,1.3-2.1,1.1-3.5c-0.3-3.1-2.8-7-7.5-8.6c-1-0.4-2.2-0.6-3.6-0.5c-7.3,0.3-17.9,6.7-21,8.9l-0.6,0.4
		l0.2,0.7c1.4,4.9,0.3,10-2.8,13.3c-3.8,4-10,5.1-17.8,3.3c-1.1-0.3-1.8-1.4-1.6-2.4c0.1-0.6,0.5-1.1,0.9-1.3
		c0.4-0.3,0.9-0.3,1.5-0.2c6.4,1.5,11.3,0.7,14-2.2c2.6-2.7,2.7-6.7,1.9-9.7c0-0.4-0.2-0.9-0.5-1.2c-0.3-0.4-0.9-1-1.9-1.4
		c-4.3-1.8-12.6,0.2-18.3,3.2c-0.3,0.1-0.5,0.3-0.6,0.4c0,0-0.1,0.1-0.2,0.1c-6.3,3.7-12.4,18.2-13.1,19.9l-0.4,1l1.1,0.3
		c5.2,1.5,18,5.8,25.9,11.6l0.5,0.4l8.3-3.9c0.4-0.2,0.9-0.2,1.5,0c0.6,0.2,0.9,0.5,1.1,1.1c1.6,3.7,7.1,13.3,13.5,13.4
		c3.5,0,4.8-2.8,5.2-4c1.2-3.9-0.1-9.9-6-14.6c-0.6-0.4-1.1-0.8-1.5-1.2c-0.4-0.3-0.7-0.8-0.7-1.3c-0.1-0.5,0.1-1,0.4-1.4
		c0.7-0.8,1.9-1,2.8-0.4c0.4,0.3,0.9,0.7,1.4,1.1c4.8,3.3,10.9,4.5,14.8,2.9c2.5-1,3.9-3.2,4.2-6.3
		C412.5,353.1,412.1,351.7,411,350.4z"/>
	<path fill="#FACFBD" d="M357.8,329.8l3.7-1c5-1.3,9.4-1.3,12.6,0c0.7,0.3,1.4,0.7,1.8,1l0.6,0.4l0.6-0.4c3-2.2,7.8-4.7,8.8-5.2
		l0.2-0.1c4.7-2.2,8.5-3.5,11.8-4l0.4-0.1l0.2-0.4c0.1-0.2,0.3-0.4,0.5-0.5c1.1-0.7,3.4-2.6,3.7-4.6l0-0.1c0-0.6-0.1-1.2-0.8-2
		c-3.1-3.7-13.6-3.4-27.5,4.2c-4.9,2.7-9.5,6-13.8,10.3L357.8,329.8z"/>
	<path fill="#FACFBD" d="M365.9,373.7c-6-5.3-20.6-10.7-28.9-13c-2.7-0.8-5-1.3-6.9-1.5c-0.9-0.1-3.5-0.4-19.4,5.6
		c-8.3,3.2-18.5,7.4-27.2,11.3c-0.1,0-0.1,0-0.2,0.1h-0.5l-0.3,0.6c-2.1,4.8-3,15.8,0.3,22.5l0.3,0.6h0.6c0.1,0,0.2,0,0.2,0l0.1,0
		c6.5,2.3,20.1,3.1,24.2,3.3c2.9,0.2,4.9,0.2,5.1,0.2c0.4,0,1.2,0.1,1.6,0.7c0.4,0.6,0.5,1.3,0.3,1.9l0,0.1
		c-0.7,2.1-2.5,7.5-4.4,12.3c-1.3,3.3-1.8,10.5,0.9,14.7c1.3,2.1,3.2,3.2,5.8,3.3c0.7,0,1.8,0,3-1.2c4.4-3.9,6.3-16.9,6.5-24.1
		c0-0.9,0.9-1.8,1.9-1.9c1.1-0.1,2,0.7,2.1,1.7c1.6,10,4.5,21.5,6.7,23.5l0.2,0.2l0.2,0.1c0.7,0.2,2.6,0.7,4.4-0.3l0.1-0.1
		c0.1,0,0.2-0.1,0.3-0.2c2.3-1.5,3.6-5,3.7-9.8c0.4-10-5.5-20.8-6.6-22.5l0,0c-0.6-1-0.3-2.2,0.6-2.8c0.9-0.5,2.2-0.3,2.8,0.5
		c2.6,3.7,11.1,14.3,15.6,15.1c1.9,0.4,3.6-0.2,5.1-1.7c2.4-2.5,3.2-6.8,2.3-11.6c-0.6-3.7-4.7-7.9-12.1-12.5l-0.1-0.1
		c-5.4-2.5-9.4-4.7-9.7-5c-0.9-0.5-1.3-1.6-0.8-2.6c0.5-0.9,1.5-1.3,2.5-0.9c0.8,0.3,5.1,2.1,9.8,5l0.1,0.1c2.8,1.3,5.4,2.3,7.7,3.1
		l0.2,0.1l0.2,0c2-0.2,3.6-0.9,4.6-2.2c1.4-2,1.4-5.2,0-9.2C368.2,376,367.3,374.9,365.9,373.7z"/>
	<path fill="#FACFBD" d="M290,337.4l0.2-0.8c0.2-0.6,0.4-0.9,0.7-1.1l0.3-0.2c3.2-2.5,11.3-9.3,18.2-16.9c6.3-7,10.1-13,11.3-17.9
		c4.2-15.9,8.9-23.4,8.9-23.5l0.5-0.6l-0.5-0.6c-3.5-4.6-4.8-8.8-4.8-8.9c-0.2-0.5-0.1-1.1,0.1-1.6c0.2-0.5,0.6-0.8,1.1-1
		c1.1-0.3,2.2,0.2,2.5,1.2l0.1,0.3c5.9,14.5,15.8,16.2,18.7,16.4c6.1,0.3,12.7-3.9,16.7-10.8c3.5-5.9,5.5-14.7,0.8-21.9
		c-5.1-7.9-16.2-10.9-31.3-8.3c-0.2,0-0.4,0.1-0.4,0.1l-0.3,0c-0.7,0.2-1.4,0-1.9-0.6l-0.7-0.8l-0.8,0.8c-4.6,4.6-10,7-15.6,7
		c-1.5,0-2.8-0.1-4-0.4c-9.1-1.8-15.2-6.2-18.1-13c-2.6-6.2-3.3-21.1,5.9-34.9c5.1-7.7,15.7-23.8,32.1-17l0.6,0.3l0.5-0.5
		c4.2-4.6,14.5-11.2,26-6.4l1.4,0.6l0-1.5c-0.1-4.8,0.3-11.6,2.7-17l0.1-0.2v-0.2c0-0.3,0-0.6-0.1-0.9c0-0.1,0-0.2,0-0.3v-1h-1
		c-0.2,0-0.5-0.1-0.8-0.1l-1.3-0.3c-5.1-0.8-9.1-3.6-10.5-7.2l-0.4-0.9l-0.9,0.4c-5.8,2.3-13.8,3-19.5,1.8c-2.5-0.6-4.6-1.6-6.3-2.9
		l-0.8-0.7l-0.6,0.8c-7.7,9.8-19.7,22.8-34.3,21.3l-0.9-0.1l-0.2,0.9c-3.2,14.2-5.8,22.2-8.4,26l-0.4,0.6l0.5,0.6
		c2.8,3.2,4,8.2,3.5,13.6c-0.6,5.6-3,10.3-6.6,12.8l-0.8,0.6l0.6,0.8c0.6,0.9,0.5,2.1-0.3,2.8c-0.8,0.7-2.1,0.6-2.8-0.3
		c-0.1-0.1-10.4-12.4-21.2-4c-6.7,5.2-10.8,18.2-9.3,29c0.3,2.5,1.4,7.3,4.5,11.1c1.7,2.2,3.8,3.8,6.3,4.7
		c5.5,2.2,10.9,2.4,15.9,0.4c6.2-2.5,9.5-7.4,9.6-7.5c0.7-0.9,1.9-1.2,2.9-0.6c0.9,0.6,1.2,1.8,0.6,2.7c-2,3-5.3,6-8.9,7.9l-0.6,0.3
		l0,0.7c0.2,2.9,0.8,17.6-8.1,25.9c-0.2,0.2-0.2,0.2-0.2,0.2l-0.7,0.3l0.2,0.8c1.8,8.2,6.2,23.3,16.1,32.7c4.4,4.2,8.9,6.6,13.4,7.1
		L290,337.4z M304.4,309.4c0.5-3.9,1.6-6.6,3-7l0.2-0.1l0.2-0.2c0.5-0.4,1.2-0.6,1.7-0.3c1.4,0.7,1.2,2.3,0.3,4.8l0,0
		c-1.6,4.6-2.8,5.3-3.7,5.3c-0.1,0-0.3-0.1-0.4-0.1C305.1,311.8,304.2,311.4,304.4,309.4z M324.1,159.6c0.3,0.3,0.5,0.6,0.5,1
		c0,0.4-0.1,0.8-0.4,1.1c-0.3,0.3-0.6,0.5-1,0.5l0,0c-6.1,0.5-10.2,5.3-11.1,7.1l0,0c-0.4,0.6-0.9,0.7-1.4,0.7
		c-0.4,0-0.5-0.1-0.7-0.2l-0.1-0.1c-0.4-0.2-0.6-0.5-0.7-0.9c-0.1-0.4,0-0.7,0.1-1.1c0-0.1,0.1-0.1,0.2-0.2c3.6-5,8.4-7.9,13.5-8.3
		C323.4,159.2,323.8,159.3,324.1,159.6z M354.4,162.6c0,0.4-0.3,0.7-0.6,1l-0.1,0.1c-0.2,0.2-0.5,0.3-0.7,0.2l-0.2,0
		c-0.6,0-1-0.4-1.2-0.6c-0.9-1.2-2.4-1.5-3.6-1.5c-1,0-1.8,0.2-2,0.2c-0.4,0.1-0.8,0.1-1.1-0.1c-0.4-0.2-0.6-0.5-0.7-0.8
		c-0.2-0.9,0.3-1.7,1.1-1.9c0.6-0.1,5.9-1.4,8.8,2.4C354.3,161.9,354.4,162.2,354.4,162.6z M253.5,239.5c-0.1-0.4,0-0.8,0.3-1.1
		c0.2-0.3,0.6-0.5,1-0.5c3.8-0.3,10.5,1.8,11.7,11.3c0.1,0.8-0.4,1.5-1.2,1.7c-0.1,0-0.3,0-0.4,0.1c-0.7-0.1-1.2-0.6-1.3-1.3
		c-1.1-8.1-6.4-8.8-8-8.8c-0.2,0-0.4,0-0.4,0C254.3,241,253.6,240.4,253.5,239.5z"/>
</g>
<path fill="none" stroke="#000000" stroke-width="5" stroke-linecap="round" stroke-linejoin="round" stroke-miterlimit="10" d="
	M310.7,168.5c0,0,4.4-7.2,12.4-7.8"/>
<path fill="none" stroke="#000000" stroke-width="5" stroke-linecap="round" stroke-linejoin="round" stroke-miterlimit="10" d="
	M345.7,160.7c0,0,4.8-1.3,7.2,1.8"/>
<path fill="none" stroke="#000000" stroke-width="5" stroke-linecap="round" stroke-linejoin="round" stroke-miterlimit="10" d="
	M325.8,213c1.7,0.1,0.7,6.4-1,6.2c-1.7-0.1-0.5-6,0.4-5.4s0.1,2.3,0.1,2.3"/>
<path fill="none" stroke="#000000" stroke-width="5" stroke-linecap="round" stroke-linejoin="round" stroke-miterlimit="10" d="
	M330.2,184c21.4,8.5,9.4,67.4-19.4,61.8c-28.8-5.6-17.3-36.3-11.2-45.5C305.6,191.1,315.4,177.5,330.2,184z"/>
<path fill="none" stroke="#000000" stroke-width="5" stroke-linecap="round" stroke-linejoin="round" stroke-miterlimit="10" d="
	M351.1,210.5c1.7,0.1,1.7,5.8,0.8,6.3s-0.8-4.7-0.8-4.7"/>
<path fill="none" stroke="#000000" stroke-width="5" stroke-linecap="round" stroke-linejoin="round" stroke-miterlimit="10" d="
	M332.2,183.7c0,0,10.7-12.5,25-6.3s17.8,46.7-6.1,59.7"/>
<path fill="none" stroke="#000000" stroke-width="5" stroke-linecap="round" stroke-linejoin="round" stroke-miterlimit="10" d="
	M255,239.4c0,0,8.6-0.8,10.1,10"/>
<path fill="none" stroke="#000000" stroke-width="5" stroke-linecap="round" stroke-linejoin="round" stroke-miterlimit="10" d="
	M308.8,303.2c0.8,0.4-2,7.3-2.7,7.1c-0.7-0.2,1.1-6.6,1.7-6.6"/>
<path fill="none" stroke="#000000" stroke-width="6" stroke-linecap="round" stroke-linejoin="round" stroke-miterlimit="10" d="
	M333,239.4c0,0,24.2-5.7,33.6,9c9.5,14.8-4.6,36.8-19.3,35.8s-20.5-18-20.5-18"/>
<path fill="none" stroke="#000000" stroke-width="6" stroke-linecap="round" stroke-linejoin="round" stroke-miterlimit="10" d="
	M331.6,277.9c0,0-4.7,7.4-8.7,23S292.4,337,292.4,337"/>
<path fill="none" stroke="#000000" stroke-width="6" stroke-linecap="round" stroke-linejoin="round" stroke-miterlimit="10" d="
	M361.1,177.5c0,0-1.4-11.8,2.6-19.4c-0.2-4.8-0.6-4.4-5-5.2s-10.2-3.6-9.5-9.6c-5.7,4.7-25.3,7-29.3-1.4
	c-9.1,12.2-21.9,26.6-37.4,23.2c-3.7,16.7-7.1,28.3-10.7,29.8c7.9,4.7,6.6,22.9-2.8,26.2"/>
<path fill="none" stroke="#000000" stroke-width="6" stroke-linecap="round" stroke-linejoin="round" stroke-miterlimit="10" d="
	M270.6,224.3c0,0-11.5-13.8-23.9-4.2s-16.1,41,2,48.2c18,7.2,28-7.9,28-7.9"/>
<path fill="none" stroke="#000000" stroke-width="6" stroke-linecap="round" stroke-linejoin="round" stroke-miterlimit="10" d="
	M266.7,269.6c0,0,1.9,16.5-7.4,25.2"/>
<path fill="none" stroke="#000000" stroke-width="6" stroke-linecap="round" stroke-linejoin="round" stroke-miterlimit="10" d="
	M239.7,263c0,0-5.5,8.9-17.7,5.4s-9.6-22-6.4-25.5c-9.1,11.5-22.6,7.9-25.1-3c-2.4-10.9,9.9-26.8,14.9-26.6s-1.5,8.2-13,8.1
	s-18.7-4.3-16.6-18c2.1-13.8,13.2-21.6,22.3-20.6s-2.9,4.4-5.3,2.8c-2.4-1.7-8.6-5.1-3.8-13.4c4.7-8.3,11.2-18.6,22.8-15.6
	s19.6,15.1,15.8,19.5c-3.7,4.4-12.4,4.1-12.8-11.9c-0.4-16,8.9-23.5,19-22.5c10.1,1.1,14.6,7.1,12.2,8.9s-7.6-0.3-9.1-7.2
	s1.8-23.2,10.2-25.7c8.3-2.5,11.5,5,9.2,6.1c-2.2,1.1-11.1-7.6-6.6-17.6c4.4-9.9,19.2-12.8,25.4-5.6c6.2,7.2,1.3,12.2-0.8,10.6
	s-4.4-13.6,3.7-22.8s28.4,0.5,29,10.7s-5,13.9-7.4,11s1.7-16,12.7-14.3s16.9,7.9,15.6,16.7c-0.7-5.8,3.3-25.5,18.7-25.5
	s13.5,22.6,11,24.2s5.5-19.3,16.5-19.7s16.7,17.6,12.5,29.7s-6.6,13.3-6.9,12.9c-0.3-0.4,4.1-12.4,14.8-3
	c10.7,9.4,0.5,28.8-7.2,32.3c14.2,0.4,15.3,11,8.6,20.9c-6.6,9.9-27.5,7.1-27.5,7.1"/>
<path fill="none" stroke="#000000" stroke-width="6" stroke-linecap="round" stroke-linejoin="round" stroke-miterlimit="10" d="
	M300.4,336.2c0,0-10.8,9.6-25.8-4.5s-17.8-40.3-17.8-40.3s-30.3-16.5-42.3,33.6"/>
<path fill="none" stroke="#000000" stroke-width="6" stroke-linecap="round" stroke-linejoin="round" stroke-miterlimit="10" d="
	M243.7,339.4c0,0-10.5,34.4-6.1,60.7"/>
<path fill="none" stroke="#000000" stroke-width="6" stroke-linecap="round" stroke-linejoin="round" stroke-miterlimit="10" d="
	M206.7,351.3c0,0-6.6,26.4-0.9,60.8s15.6,34.8,19.5,33.4s49.4-34.2,58.1-42.3c-6.4-6.6-5.4-23.7-1.8-29.2
	c-17.7,8.1-45.6,30.5-45.6,30.5"/>
<path fill="none" stroke="#000000" stroke-width="6" stroke-linecap="round" stroke-linejoin="round" stroke-miterlimit="10" d="
	M282.6,374c0,0,40.1-17.9,47.8-17s36.8,10.1,40,19.3c3.2,9.2-0.7,14.1-7.1,14.1c-9.2-3.2-18.2-8.5-18.2-8.5s20.9,8.7,22.8,18.8
	s-3.3,16.7-9.6,15.7s-17-15.9-17-15.9s7.3,11.9,7,23.6s-6.9,13.8-11.4,12c-4.5-1.7-8.1-25.2-8.1-25.2s-0.9,27.7-11.6,27.2
	c-10.7-0.6-10.7-15.1-8.4-20.8c2.3-5.6,4.4-12.3,4.4-12.3s-21.2-0.5-29.8-3.6"/>
<path fill="none" stroke="#000000" stroke-width="6" stroke-linecap="round" stroke-linejoin="round" stroke-miterlimit="10" d="
	M311.3,319.9c0,0,9.6,2.4,8,13.5s-11.8,17.6-9.7,28"/>
<path fill="none" stroke="#000000" stroke-width="6" stroke-linecap="round" stroke-linejoin="round" stroke-miterlimit="10" d="
	M297.4,348.4c0,0-10.5,17.4-10.2,22.8"/>
<path fill="none" stroke="#000000" stroke-width="6" stroke-linecap="round" stroke-linejoin="round" stroke-miterlimit="10" d="
	M337.7,357c0,0,7-18.1,14.7-22.4c7.7-4.4,22.2-7.6,24.4,0s-1.7,18.2-18.3,14.4"/>
<path fill="none" stroke="#000000" stroke-width="6" stroke-linecap="round" stroke-linejoin="round" stroke-miterlimit="10" d="
	M353,333c0,0,6.6-10.1,20.4-17.7s25.8-8.8,30-3.9c4.3,4.9-3.2,9.9-3.2,9.9"/>
<path fill="none" stroke="#000000" stroke-width="6" stroke-linecap="round" stroke-linejoin="round" stroke-miterlimit="10" d="
	M376.3,333c0.3-0.8,18.6-13.4,27.9-10.2c9.3,3.2,10.9,13.4,6.7,15.7c-4.2,2.4-18,3-18,3s22.6,1.9,21.5,13.5s-15.3,10.6-23.7,3.7
	c12.7,8.9,9.9,23.5,0.9,23.2c-9-0.2-15.3-14.6-15.3-14.6l-8.4,4"/>
<path fill="none" stroke="#000000" stroke-width="6" stroke-linecap="round" stroke-linejoin="round" stroke-miterlimit="10" d="
	M307.9,405.6c0,0-5.5,9.6-16.2,13.6c-5.7,2.1-14.4-0.9-16.2-6.8"/>
<path fill="none" stroke="#000000" stroke-width="6" stroke-linecap="round" stroke-linejoin="round" stroke-miterlimit="10" d="
	M275.4,413.6c0,0-4,28.5-2,37c-7.1,7.1-54.2,30.3-104.8,12.1c-3.8-52.4,15.4-97.3,44.3-136.5"/>
<path fill="none" stroke="#000000" stroke-width="6" stroke-linecap="round" stroke-linejoin="round" stroke-miterlimit="10" d="
	M268.4,456c0,0,11.6,14.1,11.1,47.6"/>
<path fill="none" stroke="#000000" stroke-width="6" stroke-linecap="round" stroke-linejoin="round" stroke-miterlimit="10" d="
	M180.7,467.4c0,0,11.7,26.6,9.4,49.1"/>
<path fill="none" stroke="#000000" stroke-width="6" stroke-linecap="round" stroke-linejoin="round" stroke-miterlimit="10" d="
	M256.5,479.8l-7.6,2.1c0,0,4.9,14,3.8,25.9"/>
<line fill="none" stroke="#000000" stroke-width="6" stroke-linecap="round" stroke-linejoin="round" stroke-miterlimit="10" x1="427.9" y1="117.5" x2="451.5" y2="103"/>
<line fill="none" stroke="#000000" stroke-width="6" stroke-linecap="round" stroke-linejoin="round" stroke-miterlimit="10" x1="441.8" y1="160.7" x2="460.9" y2="156"/>
<line fill="none" stroke="#000000" stroke-width="6" stroke-linecap="round" stroke-linejoin="round" stroke-miterlimit="10" x1="440.7" y1="200.7" x2="470.3" y2="210.5"/>
<path fill="none" stroke="#000000" stroke-width="6" stroke-linecap="round" stroke-linejoin="round" stroke-miterlimit="10" d="
	M493,291.3v-31c0,0-27.1,18.3-62.6,37.6c8.3,26.6,2.5,78.6-22,115.6c19.5-10.1,26.8-19,26.8-19"/>
<path fill="none" stroke="#000000" stroke-width="6" stroke-linecap="round" stroke-linejoin="round" stroke-miterlimit="10" d="
	M515.2,273.4c0,0-18.3,27.3-66,44.3c3,44.9-24.3,111.7-31.4,122.7c33-10.3,70.2-40.2,70.2-40.2S517.5,320.6,515.2,273.4z"/>
<path fill="none" stroke="#000000" stroke-width="24" stroke-linecap="round" stroke-linejoin="round" stroke-miterlimit="10" stroke-opacity="0" d="
	M227.5,266.3c-1.1-1.4-5.7-22.8-5.7-22.8l1.8-9.3c0,0-25.9,13.1-27.3,9.3c-1.4-3.8-4.6-10.4-4.1-11.1s34.4-7.6,35.3-9.2
	c0.9-1.6,2.8-6.5,2.8-6.5s-42.6-1.3-44.5-6.1c-1.8-4.8-3.9-15.6-3.9-15.6s52.7,16.5,54.4,16s9.1-3.7,9.1-3.7l9.7-1l10.1,1.4
	c0,0-77.5-29.8-76.9-30.8c0.7-1,7.8-12.4,7.8-12.4s67.9,28.8,67.9,27.8s1.2-8.4,1.2-8.4l-45.8-29.8l4.2-7.9c0,0,48.1,30,47.3,26.3
	s0.9-11,0.9-11l-32.1-21.7l0.1-14.4c0,0,46.7,29.2,47.9,28.9s7.8-2.9,7.8-2.9l-40.2-41l0.5-7.3c0,0,45.8,40.9,47.1,39.4s9-7,9-7
	l-33.2-38.4l6.1-9.3l14.1,1.7l30.7,47.1l9-2.4c0,0-13.3-28.9-12.9-30c0.4-1,12.9-15.7,12.9-15.7l13.6,43.7c0,0,7.2,11.9,7.2,10.7
	s0-47.4,0-47.4s15.9,0.2,15.9,0.6s0.8,11.3,0.8,13.1c0,1.8-2,39.6-2,39.6s1.2,11.3,1.1,11.9c-0.2,0.6-1.8,16.4-1.8,16.4
	s20.5-42,20.2-39.1s-0.6,20.8-1.2,21.5s-1.2,15.7-7.4,20.9c-6.1,5.2-8.4,6.6-8.4,6.6l15.4-11.2"/>
<path fill="none" stroke="#000000" stroke-width="24" stroke-linecap="round" stroke-linejoin="round" stroke-miterlimit="10" stroke-opacity="0" d="
	M327.1,146.7c-5.8,1.1-58.6,42.3-58.1,43.2c0.6,0.9-3.1,16.5,0,12.8s77-54.8,78.3-53.2c1.3,1.7,8.2,8.2,8.1,8.2
	c-0.2,0-109,73.1-110.3,75.2c-1.2,2.1-4.9,16.9-3.7,15.2S355.3,174,355.3,174s-12.7,23.6-15,24.6s-98.3,64.9-96.7,64.6
	s5.7,2.2,5.7,2.2l48.9-26.1c0,0,37.2-11.9,34.9-9.3s-54.7,37.7-56.5,39.2c-1.8,1.4-7.7,17-7.7,17s68.8-50.9,72.1-47.9
	c3.3,2.9,14.7,5.4,14.3,6.1c-0.4,0.7-84.4,52.8-84.4,52.8l1,9.6l101.5-49.3l-21.7,26.2l-74.3,31.8l8.9,10.6l22-20.1"/>
<path fill="none" stroke="#000000" stroke-width="24" stroke-linecap="round" stroke-linejoin="round" stroke-miterlimit="10" stroke-opacity="0" d="
	M292.3,381.9l0.1,9.5l13.5,0.8v-15.1l13.5-7.3v40.9c0,0-1.9,19.1-1.5,19.3c0.5,0.2,12.5-2.6,12.5-2.6s-0.2-59,2-57.6
	s9.6,5.1,9.6,5.1l1.2,52.6l10.7-14.7c0,0-2.4-37.2-1.1-35.9s9.2,8.9,9.2,8.9"/>
<path fill="none" stroke="#000000" stroke-width="24" stroke-linecap="round" stroke-linejoin="round" stroke-miterlimit="10" stroke-opacity="0" d="
	M345.1,362.4c0.8-2.6,5.5-25.8,6.9-26.1s3.8-1.5,3.8-1.5s0.1,30.7,1.7,32.1s8.3,5.7,8.3,5.7l0.8-47.2l10.6-7.2l2.6,49.5
	c0,0,6.2,14.1,6.8,9.2c0.6-5,6.2-62.7,6.2-62.7l7.8-1.1c0,0,1.7,52.6,2.8,52.6s4.9-0.9,4.9-0.9l3-36.2"/>
<path fill="none" stroke="#000000" stroke-width="24" stroke-linecap="round" stroke-linejoin="round" stroke-miterlimit="10" stroke-opacity="0" d="
	M250.9,289.4c-4.9,2.7-68.9,73.5-72.1,78.3c-3.2,4.8-10.7,21.1-10.7,21.1l102.4-99.9l-0.9,18c0,0-85.7,96.6-88.9,101.7
	s-10.9,18.3-9.5,18.3s100.6-90.1,102.7-89.8c2.1,0.3,9.4,3.6,9.4,3.6S177,443.7,177,445.9s1.4,5.6,1.4,5.6S317,321.9,314.4,330
	c-2.6,8-7,18.7-7,18.7S176,453.9,185.1,453.9s14.1,3.5,14.1,3.5s79.9-74.8,81.2-73.1s5.5,8.1,5.5,8.1L213,458.6l13.1-3.8l10.4-1.4
	c0,0,45.3-43.4,47.7-44s17.1-5.1,17.1-5.1l0.1,4.7l-38.8,36.8l-12.8,6"/>
<path fill="none" stroke="#000000" stroke-width="24" stroke-linecap="round" stroke-linejoin="round" stroke-miterlimit="10" stroke-opacity="0" d="
	M191.3,470.3c-0.2,1.7-5.5,7.1-4.4,9.5s2.3,13.7,3.5,11.4c1.2-2.3,9.7-22.7,17.6-23.8c7.8-1.2,12.5-3.7,12.5-2.6
	s-31.8,33.8-30.1,38.8s0,7.2,3,8.4c3,1.2,5.2,2.5,5.2,2.5s30.9-46.4,37.2-48c6.2-1.5,13.1-4.2,13.1-4.2s-34.8,45.9-35.4,47.7
	c-0.6,1.8,6.6,3.4,7,3.4s34.1-53.7,39.7-53c5.7,0.6,9.3,1.2,9.3,1.2S232.8,513,235,512.8s3.7-0.2,5.2-0.8s31.9-42.2,33.7-38.2
	s-16.6,34.2-15.1,33c1.4-1.2,6.8-2.1,7.7-2.6s12.3-15.9,12.3-15.9"/>
</svg>
