<?xml version="1.0" encoding="utf-8"?>
<!-- Generator: Adobe Illustrator 24.0.3, SVG Export Plug-In . SVG Version: 6.00 Build 0)  -->
<svg version="1.1" id="Layer_1" xmlns="http://www.w3.org/2000/svg" xmlns:xlink="http://www.w3.org/1999/xlink" x="0px" y="0px"
	 width="1000px" height="1000px" viewBox="0 0 1000 1000" enable-background="new 0 0 1000 1000" xml:space="preserve">
<g>
	<path fill="none" stroke="#000000" stroke-width="5" stroke-linecap="round" stroke-linejoin="round" stroke-miterlimit="10" d="
		M394.6,256c23.4,51,38.2,82.9,93.6,99.9"/>
	<path fill="none" stroke="#000000" stroke-width="5" stroke-linecap="round" stroke-linejoin="round" stroke-miterlimit="10" d="
		M483.8,353.9c46.7,21.2,85.1-61.7,85.1-102.1"/>
	<path fill="none" stroke="#000000" stroke-width="5" stroke-linecap="round" stroke-linejoin="round" stroke-miterlimit="10" d="
		M575.2,226.2c10.7-38.2,51,40.4-4.2,46.7"/>
	<path fill="none" stroke="#000000" stroke-width="5" stroke-linecap="round" stroke-linejoin="round" stroke-miterlimit="10" d="
		M590.2,236.9c0-2.2,0-6.5-2.2-8.5c-8.5,2.2-10.7,6.5-12.7,14.9"/>
	<path fill="none" stroke="#000000" stroke-width="5" stroke-linecap="round" stroke-linejoin="round" stroke-miterlimit="10" d="
		M579.5,236.9c4.2,2.2,6.5,8.5,4.2,14.9"/>
	<path fill="none" stroke="#000000" stroke-width="5" stroke-linecap="round" stroke-linejoin="round" stroke-miterlimit="10" d="
		M390.3,247.5c-25.5-51-25.5,91.4,15,36.2"/>
	<path fill="none" stroke="#000000" stroke-width="5" stroke-linecap="round" stroke-linejoin="round" stroke-miterlimit="10" d="
		M381.8,260.2c6.5-2.2,12.7-2.2,19.2,0"/>
	<path fill="none" stroke="#000000" stroke-width="5" stroke-linecap="round" stroke-linejoin="round" stroke-miterlimit="10" d="
		M394.6,262.4c-6.5,4.2-8.5,15-4.2,23.4"/>
	<path fill="none" stroke="#000000" stroke-width="5" stroke-linecap="round" stroke-linejoin="round" stroke-miterlimit="10" d="
		M456.3,205c23.4-8.5,55.2-10.7,76.5-27.7"/>
	<path fill="none" stroke="#000000" stroke-width="5" stroke-linecap="round" stroke-linejoin="round" stroke-miterlimit="10" d="
		M532.7,181.5c-2.2,8.5-4.2,14.9-8.5,23.4"/>
	<path fill="none" stroke="#000000" stroke-width="5" stroke-linecap="round" stroke-linejoin="round" stroke-miterlimit="10" d="
		M530.7,202.9c6.5-4.2,12.7-6.5,21.2-8.5c-4.2,8.5-2.2,19.2-6.5,27.7"/>
	<path fill="none" stroke="#000000" stroke-width="5" stroke-linecap="round" stroke-linejoin="round" stroke-miterlimit="10" d="
		M549.7,217.7c4.2-4.2,12.7-6.5,19.2-10.7c2.2,6.5,4.2,14.9,2.2,21.2"/>
	<path fill="none" stroke="#000000" stroke-width="5" stroke-linecap="round" stroke-linejoin="round" stroke-miterlimit="10" d="
		M447.8,202.9c4.2-2.2,12.7-10.7,15-21.2c-15,8.5-27.7,23.4-44.7,31.9"/>
	<path fill="none" stroke="#000000" stroke-width="5" stroke-linecap="round" stroke-linejoin="round" stroke-miterlimit="10" d="
		M413.6,205c-2.2-2.2-10.7-4.2-12.7-8.5c0,4.2-6.5,17-4.2,27.7c-4.2-2.2-12.7-2.2-17-4.2c4.2,6.5,10.7,14.9,17,23.4"/>
	<path fill="none" stroke="#000000" stroke-width="5" stroke-linecap="round" stroke-linejoin="round" stroke-miterlimit="10" d="
		M424.3,258.2c-2.2-12.7,23.4-29.7,34-8.5"/>
	<path fill="none" stroke="#000000" stroke-width="5" stroke-linecap="round" stroke-linejoin="round" stroke-miterlimit="10" d="
		M443.5,249.7c-4.2,0-4.2,21.2,6.5,31.9c8.5-10.7,8.5-36.2,0-34"/>
	<path fill="none" stroke="#000000" stroke-width="5" stroke-linecap="round" stroke-linejoin="round" stroke-miterlimit="10" d="
		M449.8,268.9c-4.2,4.2-6.5,2.2,4.2,0c0,2.2-2.2,6.5-2.2,10.7c2.2,2.2,4.2-6.5,4.2-8.5c-4.2,0-8.5,6.5-12.7,8.5c2.2,0,8.5,0,8.5,0"
		/>
	<path fill="none" stroke="#000000" stroke-width="5" stroke-linecap="round" stroke-linejoin="round" stroke-miterlimit="10" d="
		M522.2,241.2c6.5-12.7,17-14.9,27.7-6.5"/>
	<path fill="none" stroke="#000000" stroke-width="5" stroke-linecap="round" stroke-linejoin="round" stroke-miterlimit="10" d="
		M524.2,241.2c4.2-8.5-2.2,21.2,6.5,29.7c12.7-8.5,10.7-25.5,0-36.2"/>
	<path fill="none" stroke="#000000" stroke-width="5" stroke-linecap="round" stroke-linejoin="round" stroke-miterlimit="10" d="
		M530.7,258.2c-2.2,0,0,0,0,6.5c0,0,2.2,0,4.2,0c2.2,4.2,0-12.7,0-8.5c2.2-4.2-10.7,10.7-6.5,8.5c-2.2,2.2,15-2.2,8.5-4.2
		c-4.2,4.2-4.2,6.5-2.2,10.7"/>
	<path fill="none" stroke="#000000" stroke-width="5" stroke-linecap="round" stroke-linejoin="round" stroke-miterlimit="10" d="
		M413.6,230.5c10.7-10.7,25.5-17,40.4-19.2"/>
	<path fill="none" stroke="#000000" stroke-width="5" stroke-linecap="round" stroke-linejoin="round" stroke-miterlimit="10" d="
		M520,215.7c10.7-4.2,23.4-6.5,34-2.2"/>
	<path fill="none" stroke="#000000" stroke-width="5" stroke-linecap="round" stroke-linejoin="round" stroke-miterlimit="10" d="
		M517.8,287.9c15,12.7-2.2,19.2-19.2,17"/>
	<path fill="none" stroke="#000000" stroke-width="5" stroke-linecap="round" stroke-linejoin="round" stroke-miterlimit="10" d="
		M483.8,294.4c-2.2,8.5,4.2,10.7,14.9,10.7"/>
	<path fill="none" stroke="#000000" stroke-width="5" stroke-linecap="round" stroke-linejoin="round" stroke-miterlimit="10" d="
		M458.3,309.2c2.2,0-2.2,6.5-4.2,10.7"/>
	<path fill="none" stroke="#000000" stroke-width="5" stroke-linecap="round" stroke-linejoin="round" stroke-miterlimit="10" d="
		M456.3,313.4c10.7,8.5,63.7,4.2,80.9-4.2"/>
	<path fill="none" stroke="#000000" stroke-width="5" stroke-linecap="round" stroke-linejoin="round" stroke-miterlimit="10" d="
		M537,304.9c2.2,2.2,4.2,6.5,4.2,10.7"/>
	<path fill="none" stroke="#000000" stroke-width="5" stroke-linecap="round" stroke-linejoin="round" stroke-miterlimit="10" d="
		M460.5,317.7c17,25.5,70.2,31.9,76.5-8.5"/>
	<path fill="none" stroke="#000000" stroke-width="5" stroke-linecap="round" stroke-linejoin="round" stroke-miterlimit="10" d="
		M481.7,332.6c4.2-6.5,29.7-10.7,42.5,0"/>
	<path fill="none" stroke="#000000" stroke-width="5" stroke-linecap="round" stroke-linejoin="round" stroke-miterlimit="10" d="
		M585.9,211.4c10.7-2.2-2.2-57.4-10.7-70.2c-19.2-29.7-63.7-31.9-95.7-29.7"/>
	<path fill="none" stroke="#000000" stroke-width="5" stroke-linecap="round" stroke-linejoin="round" stroke-miterlimit="10" d="
		M477.5,109.3c-2.2-2.2,6.5-27.7,10.7-38.2c-10.7,8.5-19.2,21.2-21.2,36.2"/>
	<path fill="none" stroke="#000000" stroke-width="5" stroke-linecap="round" stroke-linejoin="round" stroke-miterlimit="10" d="
		M464.7,102.8C454,96.3,445.5,90.1,437,83.6c10.7,8.5,21.2,19.2,23.4,34"/>
	<path fill="none" stroke="#000000" stroke-width="5" stroke-linecap="round" stroke-linejoin="round" stroke-miterlimit="10" d="
		M458.3,117.8c-12.7-10.7-53.2,14.9-65.9,27.7c-25.5,25.5-14.8,59.5-19,93.5"/>
	<path fill="none" stroke="#000000" stroke-width="5" stroke-linecap="round" stroke-linejoin="round" stroke-miterlimit="10" d="
		M477.5,358.1c2.2,0,4.2-2.2,8.5-2.2c0,10.7-4.2,15-10.7,23.4"/>
	<path fill="none" stroke="#000000" stroke-width="5" stroke-linecap="round" stroke-linejoin="round" stroke-miterlimit="10" d="
		M477.5,375.1c8.5,6.5,34,8.5,46.7-6.5"/>
	<path fill="none" stroke="#000000" stroke-width="5" stroke-linecap="round" stroke-linejoin="round" stroke-miterlimit="10" d="
		M520,356.1c-4.2,2.2-2.2,12.7,2.2,23.4"/>
	
		<line fill="none" stroke="#000000" stroke-width="5" stroke-linecap="round" stroke-linejoin="round" stroke-miterlimit="10" x1="477.5" y1="375.1" x2="475.3" y2="373.1"/>
	<path fill="none" stroke="#000000" stroke-width="5" stroke-linecap="round" stroke-linejoin="round" stroke-miterlimit="10" d="
		M479.5,375.1c-2.2-2.2-4.2-4.2-6.5-4.2c0,14.9,10.7,27.7,14.9,42.5"/>
	<path fill="none" stroke="#000000" stroke-width="5" stroke-linecap="round" stroke-linejoin="round" stroke-miterlimit="10" d="
		M488,413.3c2.2-10.7,6.5-19.2,17-23.4c2.2,6.5,10.7,12.7,14.9,19.2c2.2-12.7,4.2-25.5,8.5-38.2"/>
	<path fill="none" stroke="#000000" stroke-width="5" stroke-linecap="round" stroke-linejoin="round" stroke-miterlimit="10" d="
		M443.5,396.3c-2.2,2.2-4.2,2.2-8.5,2.2l0,0c17-4.2,31.9-19.2,48.9-21.2"/>
	<path fill="none" stroke="#000000" stroke-width="5" stroke-linecap="round" stroke-linejoin="round" stroke-miterlimit="10" d="
		M437.1,402.8c-12.7,46.7,12.7,112.7-6.5,159.6"/>
	<path fill="none" stroke="#000000" stroke-width="5" stroke-linecap="round" stroke-linejoin="round" stroke-miterlimit="10" d="
		M432.8,553.7c0,42.5,87.2,31.9,112.7,19.2"/>
	<path fill="none" stroke="#000000" stroke-width="5" stroke-linecap="round" stroke-linejoin="round" stroke-miterlimit="10" d="
		M532.7,373.1c2.2,6.5,21.2,15,34,19.2"/>
	<path fill="none" stroke="#000000" stroke-width="5" stroke-linecap="round" stroke-linejoin="round" stroke-miterlimit="10" d="
		M566.7,390c-12.7,44.7,19.2,159.4-19,189.2"/>
	<path fill="none" stroke="#000000" stroke-width="5" stroke-linecap="round" stroke-linejoin="round" stroke-miterlimit="10" d="
		M609.4,456c0-12.7,15-21.2,31.9-23.4"/>
	<path fill="none" stroke="#000000" stroke-width="5" stroke-linecap="round" stroke-linejoin="round" stroke-miterlimit="10" d="
		M636.9,432.5c19.2,2.2,38.2,8.5,59.5-6.5"/>
	<path fill="none" stroke="#000000" stroke-width="5" stroke-linecap="round" stroke-linejoin="round" stroke-miterlimit="10" d="
		M694.4,428.3c23.4,4.2-4.2,29.7-21.2,34"/>
	<path fill="none" stroke="#000000" stroke-width="5" stroke-linecap="round" stroke-linejoin="round" stroke-miterlimit="10" d="
		M677.4,456c17,2.2,61.7,10.7,51,34"/>
	<path fill="none" stroke="#000000" stroke-width="5" stroke-linecap="round" stroke-linejoin="round" stroke-miterlimit="10" d="
		M696.6,487.8c2.2,0,25.5,6.5,36.2,6.5"/>
	<path fill="none" stroke="#000000" stroke-width="5" stroke-linecap="round" stroke-linejoin="round" stroke-miterlimit="10" d="
		M698.6,485.7c27.7,10.7,21.2,46.7-4.2,27.7"/>
	<path fill="none" stroke="#000000" stroke-width="5" stroke-linecap="round" stroke-linejoin="round" stroke-miterlimit="10" d="
		M692.3,517.7c19.2,23.4-15,25.5-27.7,2.2"/>
	<path fill="none" stroke="#000000" stroke-width="5" stroke-linecap="round" stroke-linejoin="round" stroke-miterlimit="10" d="
		M643.4,492c10.7-10.7,19.2-25.5,23.4-40.4c2.2,2.2,10.7,4.2,14.9,6.5"/>
	<path fill="none" stroke="#000000" stroke-width="5" stroke-linecap="round" stroke-linejoin="round" stroke-miterlimit="10" d="
		M666.7,519.7c2.2,6.5-4.2,40.4-19.2,10.7"/>
	<path fill="none" stroke="#000000" stroke-width="5" stroke-linecap="round" stroke-linejoin="round" stroke-miterlimit="10" d="
		M602.9,490c19.2,6.5,31.9,23.4,40.4,40.4"/>
	<path fill="none" stroke="#000000" stroke-width="5" stroke-linecap="round" stroke-linejoin="round" stroke-miterlimit="10" d="
		M611.4,460.2c-10.7,4.2-14.9,17-12.7,29.7"/>
	<path fill="none" stroke="#000000" stroke-width="5" stroke-linecap="round" stroke-linejoin="round" stroke-miterlimit="10" d="
		M647.6,496.3c0-8.5,17,19.2,23.4,27.7"/>
	<path fill="none" stroke="#000000" stroke-width="5" stroke-linecap="round" stroke-linejoin="round" stroke-miterlimit="10" d="
		M656.1,481.5c-15,0,25.5,19.2,34,27.7"/>
	<path fill="none" stroke="#000000" stroke-width="5" stroke-linecap="round" stroke-linejoin="round" stroke-miterlimit="10" d="
		M666.7,473c-15-8.5,34,17,40.4,19.2"/>
	<path fill="none" stroke="#000000" stroke-width="5" stroke-linecap="round" stroke-linejoin="round" stroke-miterlimit="10" d="
		M566.7,387.8c6.5,6.5,12.7,8.5,21.2,6.5"/>
	<path fill="none" stroke="#000000" stroke-width="5" stroke-linecap="round" stroke-linejoin="round" stroke-miterlimit="10" d="
		M575.2,394.3c21.2,4.2,31.9,34,36.2,51"/>
	<path fill="none" stroke="#000000" stroke-width="5" stroke-linecap="round" stroke-linejoin="round" stroke-miterlimit="10" d="
		M566.7,483.5c0,2.2,8.5,19.2,17,27.7c8.5-8.5,19.2-15,29.7-21.2"/>
	<path fill="none" stroke="#000000" stroke-width="5" stroke-linecap="round" stroke-linejoin="round" stroke-miterlimit="10" d="
		M590.2,511.2c2.2,4.2,10.7,36.2,17,48.9"/>
	<path fill="none" stroke="#000000" stroke-width="5" stroke-linecap="round" stroke-linejoin="round" stroke-miterlimit="10" d="
		M600.9,558c10.7,6.5,25.5,6.5,31.9-4.2"/>
	<path fill="none" stroke="#000000" stroke-width="5" stroke-linecap="round" stroke-linejoin="round" stroke-miterlimit="10" d="
		M639.1,524c0,10.7,4.2,27.7-6.5,38.2"/>
	<path fill="none" stroke="#000000" stroke-width="5" stroke-linecap="round" stroke-linejoin="round" stroke-miterlimit="10" d="
		M609.4,526.2c-2.2-6.5,0-21.2,6.5-29.7"/>
	<path fill="none" stroke="#000000" stroke-width="5" stroke-linecap="round" stroke-linejoin="round" stroke-miterlimit="10" d="
		M439.1,577.2c-15,42.5-17,121.2-19.2,172.3"/>
	<path fill="none" stroke="#000000" stroke-width="5" stroke-linecap="round" stroke-linejoin="round" stroke-miterlimit="10" d="
		M415.8,749.5c17,21.2,72.2,21.2,97.9,10.7"/>
	<path fill="none" stroke="#000000" stroke-width="5" stroke-linecap="round" stroke-linejoin="round" stroke-miterlimit="10" d="
		M564.7,577.2c-10.7-2.2,2.2,70.2,6.5,85.1c4.2,29.7,17,65.9,12.7,95.7"/>
	<path fill="none" stroke="#000000" stroke-width="5" stroke-linecap="round" stroke-linejoin="round" stroke-miterlimit="10" d="
		M507.2,758c-2.2,6.5,57.4,6.5,72.2-2.2"/>
	<path fill="none" stroke="#000000" stroke-width="5" stroke-linecap="round" stroke-linejoin="round" stroke-miterlimit="10" d="
		M498.7,662.3c-2.2-19.2,4.2,31.9,4.2,38.2c0,21.2,0,40.4,4.2,61.7"/>
	<path fill="none" stroke="#000000" stroke-width="5" stroke-linecap="round" stroke-linejoin="round" stroke-miterlimit="10" d="
		M473.2,653.6c6.5,4.2,36.2,6.5,51-2.2"/>
	<path fill="none" stroke="#000000" stroke-width="5" stroke-linecap="round" stroke-linejoin="round" stroke-miterlimit="10" d="
		M437.1,764.3c2.2,21.2-4.2,55.2,6.5,72.2"/>
	<path fill="none" stroke="#000000" stroke-width="5" stroke-linecap="round" stroke-linejoin="round" stroke-miterlimit="10" d="
		M494.5,770.7c0,0-2.2,48.9-2.2,65.9"/>
	<path fill="none" stroke="#000000" stroke-width="5" stroke-linecap="round" stroke-linejoin="round" stroke-miterlimit="10" d="
		M437.1,834.5c2.2,10.7-15,42.5-21.2,59.5"/>
	<path fill="none" stroke="#000000" stroke-width="5" stroke-linecap="round" stroke-linejoin="round" stroke-miterlimit="10" d="
		M439.1,891.9c-2.2-2.2,4.2-6.5,0-6.5c-2.2,17,4.2,17,15,6.5c-2.2-4.2-4.2-2.2-8.5-4.2"/>
	<path fill="none" stroke="#000000" stroke-width="5" stroke-linecap="round" stroke-linejoin="round" stroke-miterlimit="10" d="
		M439.1,891.9c-4.2,4.2-10.7,10.7-17,17"/>
	<path fill="none" stroke="#000000" stroke-width="5" stroke-linecap="round" stroke-linejoin="round" stroke-miterlimit="10" d="
		M441.3,902.6c-4.2,0-8.5,4.2-10.7,10.7"/>
	<path fill="none" stroke="#000000" stroke-width="5" stroke-linecap="round" stroke-linejoin="round" stroke-miterlimit="10" d="
		M445.5,900.4c6.5-2.2,8.5,6.5,10.7,15"/>
	<path fill="none" stroke="#000000" stroke-width="5" stroke-linecap="round" stroke-linejoin="round" stroke-miterlimit="10" d="
		M449.8,896.2c8.5,0,12.7,10.7,10.7,21.2"/>
	<path fill="none" stroke="#000000" stroke-width="5" stroke-linecap="round" stroke-linejoin="round" stroke-miterlimit="10" d="
		M417.9,885.5c-2.2,2.2-2.2,8.5-2.2,10.7c-2.2,0-6.5,2.2-8.5,2.2c-2.2,6.5,2.2,8.5,4.2,15"/>
	<path fill="none" stroke="#000000" stroke-width="5" stroke-linecap="round" stroke-linejoin="round" stroke-miterlimit="10" d="
		M407.3,904.7c10.7,21.2,42.5,21.2,61.7,8.5"/>
	<path fill="none" stroke="#000000" stroke-width="5" stroke-linecap="round" stroke-linejoin="round" stroke-miterlimit="10" d="
		M411.6,908.9c-4.2-4.2-2.2,10.7-2.2,17"/>
	<path fill="none" stroke="#000000" stroke-width="5" stroke-linecap="round" stroke-linejoin="round" stroke-miterlimit="10" d="
		M407.3,925.9c19.2,10.7,61.7,12.7,78.7-2.2"/>
	<path fill="none" stroke="#000000" stroke-width="5" stroke-linecap="round" stroke-linejoin="round" stroke-miterlimit="10" d="
		M460.5,913.1c6.5-2.2,12.7-2.2,19.2-4.2"/>
	<path fill="none" stroke="#000000" stroke-width="5" stroke-linecap="round" stroke-linejoin="round" stroke-miterlimit="10" d="
		M469,913.1c21.2-6.5,34-38.2,38.2-59.5"/>
	<path fill="none" stroke="#000000" stroke-width="5" stroke-linecap="round" stroke-linejoin="round" stroke-miterlimit="10" d="
		M494.5,834.5c-4.2,10.7,0,19.2,8.5,25.5"/>
	<path fill="none" stroke="#000000" stroke-width="5" stroke-linecap="round" stroke-linejoin="round" stroke-miterlimit="10" d="
		M505,864.2c0-2.2-4.2-6.5,0-4.2c2.2,6.5,2.2,12.7,4.2,21.2"/>
	<path fill="none" stroke="#000000" stroke-width="5" stroke-linecap="round" stroke-linejoin="round" stroke-miterlimit="10" d="
		M477.5,925.9c12.7-17,29.7-36.2,38.2-57.4"/>
	<path fill="none" stroke="#000000" stroke-width="5" stroke-linecap="round" stroke-linejoin="round" stroke-miterlimit="10" d="
		M424.3,883.4"/>
	<path fill="none" stroke="#000000" stroke-width="5" stroke-linecap="round" stroke-linejoin="round" stroke-miterlimit="10" d="
		M424.3,883.4c-2.2-2.2-4.2-4.2-4.2-8.5c8.5,4.2,19.2,12.7,27.7,19.2"/>
	<path fill="none" stroke="#000000" stroke-width="5" stroke-linecap="round" stroke-linejoin="round" stroke-miterlimit="10" d="
		M426.4,868.5c8.5,4.2,17,12.7,23.4,21.2"/>
	<path fill="none" stroke="#000000" stroke-width="5" stroke-linecap="round" stroke-linejoin="round" stroke-miterlimit="10" d="
		M443.5,891.9c15-8.5,36.2-10.7,48.9,0"/>
	<path fill="none" stroke="#000000" stroke-width="5" stroke-linecap="round" stroke-linejoin="round" stroke-miterlimit="10" d="
		M449.8,887.7c6.5-8.5,36.2-15,51-6.5"/>
	<path fill="none" stroke="#000000" stroke-width="5" stroke-linecap="round" stroke-linejoin="round" stroke-miterlimit="10" d="
		M517.8,755.8c6.5,25.5-2.2,59.5,8.5,82.9"/>
	<path fill="none" stroke="#000000" stroke-width="5" stroke-linecap="round" stroke-linejoin="round" stroke-miterlimit="10" d="
		M573.2,762.2c-4.2,8.5-2.2,48.9-2.2,65.9"/>
	<path fill="none" stroke="#000000" stroke-width="5" stroke-linecap="round" stroke-linejoin="round" stroke-miterlimit="10" d="
		M573.2,826c6.5,12.7,15,25.5,23.4,38.2"/>
	<path fill="none" stroke="#000000" stroke-width="5" stroke-linecap="round" stroke-linejoin="round" stroke-miterlimit="10" d="
		M522.2,823.9c2.2,12.7,2.2,27.7,2.2,40.4"/>
	<path fill="none" stroke="#000000" stroke-width="5" stroke-linecap="round" stroke-linejoin="round" stroke-miterlimit="10" d="
		M526.4,860c8.5,6.5,27.7,29.7,29.7,48.9"/>
	<path fill="none" stroke="#000000" stroke-width="5" stroke-linecap="round" stroke-linejoin="round" stroke-miterlimit="10" d="
		M556.2,906.9c10.7,8.5,44.7,10.7,55.2-15"/>
	<path fill="none" stroke="#000000" stroke-width="5" stroke-linecap="round" stroke-linejoin="round" stroke-miterlimit="10" d="
		M598.7,862.2c0,0,21.2,21.2,12.7,36.2"/>
	<path fill="none" stroke="#000000" stroke-width="5" stroke-linecap="round" stroke-linejoin="round" stroke-miterlimit="10" d="
		M564.7,879.2c-10.7,4.2,27.7,19.2,4.2-2.2"/>
	<path fill="none" stroke="#000000" stroke-width="5" stroke-linecap="round" stroke-linejoin="round" stroke-miterlimit="10" d="
		M568.9,885.5c-6.5,0-17,15-10.7,25.5"/>
	<path fill="none" stroke="#000000" stroke-width="5" stroke-linecap="round" stroke-linejoin="round" stroke-miterlimit="10" d="
		M571,889.7c-6.5,6.5-8.5,17-4.2,25.5"/>
	<path fill="none" stroke="#000000" stroke-width="5" stroke-linecap="round" stroke-linejoin="round" stroke-miterlimit="10" d="
		M571,881.2c12.7,0,23.4,8.5,31.9,19.2"/>
	<path fill="none" stroke="#000000" stroke-width="5" stroke-linecap="round" stroke-linejoin="round" stroke-miterlimit="10" d="
		M575.2,877c12.7,0,23.4,6.5,34,12.7"/>
	<path fill="none" stroke="#000000" stroke-width="5" stroke-linecap="round" stroke-linejoin="round" stroke-miterlimit="10" d="
		M566.7,874.9c0-2.2,19.2-19.2,25.5-25.5"/>
	<path fill="none" stroke="#000000" stroke-width="5" stroke-linecap="round" stroke-linejoin="round" stroke-miterlimit="10" d="
		M573.2,877c0,0,19.2-17,25.5-21.2"/>
	<path fill="none" stroke="#000000" stroke-width="5" stroke-linecap="round" stroke-linejoin="round" stroke-miterlimit="10" d="
		M539.2,862.2c2.2,2.2,21.2,8.5,31.9,10.7"/>
	<path fill="none" stroke="#000000" stroke-width="5" stroke-linecap="round" stroke-linejoin="round" stroke-miterlimit="10" d="
		M543.4,874.9c2.2,2.2,17,4.2,27.7,4.2"/>
	<path fill="none" stroke="#000000" stroke-width="5" stroke-linecap="round" stroke-linejoin="round" stroke-miterlimit="10" d="
		M528.5,860c0,0-4.2,15-4.2,23.4"/>
	<path fill="none" stroke="#000000" stroke-width="5" stroke-linecap="round" stroke-linejoin="round" stroke-miterlimit="10" d="
		M526.4,874.9c12.7,12.7,21.2,31.9,29.7,48.9"/>
	<path fill="none" stroke="#000000" stroke-width="5" stroke-linecap="round" stroke-linejoin="round" stroke-miterlimit="10" d="
		M554,921.6c12.7,2.2,53.2,17,61.7-10.7"/>
	<path fill="none" stroke="#000000" stroke-width="5" stroke-linecap="round" stroke-linejoin="round" stroke-miterlimit="10" d="
		M613.6,893.9c6.5-4.2,4.2,12.7,4.2,23.4"/>
	<path fill="none" stroke="#000000" stroke-width="5" stroke-linecap="round" stroke-linejoin="round" stroke-miterlimit="10" d="
		M390.6,467.8c0-12.7-14.9-21.2-31.9-23.4"/>
	<path fill="none" stroke="#000000" stroke-width="5" stroke-linecap="round" stroke-linejoin="round" stroke-miterlimit="10" d="
		M363.1,444.3c-19.2,2.2-38.2,8.5-59.5-6.5"/>
	<path fill="none" stroke="#000000" stroke-width="5" stroke-linecap="round" stroke-linejoin="round" stroke-miterlimit="10" d="
		M305.6,440.1c-23.4,4.2,4.2,29.7,21.2,34"/>
	<path fill="none" stroke="#000000" stroke-width="5" stroke-linecap="round" stroke-linejoin="round" stroke-miterlimit="10" d="
		M322.6,467.8c-17,2.2-61.7,10.7-51,34"/>
	<path fill="none" stroke="#000000" stroke-width="5" stroke-linecap="round" stroke-linejoin="round" stroke-miterlimit="10" d="
		M303.4,499.7c-2.2,0-25.5,6.5-36.2,6.5"/>
	<path fill="none" stroke="#000000" stroke-width="5" stroke-linecap="round" stroke-linejoin="round" stroke-miterlimit="10" d="
		M301.4,497.5c-27.7,10.7-21.2,46.7,4.2,27.7"/>
	<path fill="none" stroke="#000000" stroke-width="5" stroke-linecap="round" stroke-linejoin="round" stroke-miterlimit="10" d="
		M307.7,529.5c-19.2,23.4,15,25.5,27.7,2.2"/>
	<path fill="none" stroke="#000000" stroke-width="5" stroke-linecap="round" stroke-linejoin="round" stroke-miterlimit="10" d="
		M356.6,504c-10.7-10.7-19.2-25.5-23.4-40.4c-2.2,2.2-10.7,4.2-14.9,6.5"/>
	<path fill="none" stroke="#000000" stroke-width="5" stroke-linecap="round" stroke-linejoin="round" stroke-miterlimit="10" d="
		M333.3,531.7c-2.2,6.5,4.2,40.4,19.2,10.7"/>
	<path fill="none" stroke="#000000" stroke-width="5" stroke-linecap="round" stroke-linejoin="round" stroke-miterlimit="10" d="
		M397.1,501.8c-19.2,6.5-31.9,23.4-40.4,40.4"/>
	<path fill="none" stroke="#000000" stroke-width="5" stroke-linecap="round" stroke-linejoin="round" stroke-miterlimit="10" d="
		M388.6,472c10.7,4.2,14.9,17,12.7,29.7"/>
	<path fill="none" stroke="#000000" stroke-width="5" stroke-linecap="round" stroke-linejoin="round" stroke-miterlimit="10" d="
		M352.4,508.2c0-8.5-17,19.2-23.4,27.7"/>
	<path fill="none" stroke="#000000" stroke-width="5" stroke-linecap="round" stroke-linejoin="round" stroke-miterlimit="10" d="
		M343.9,493.3c14.9,0-25.5,19.2-34,27.7"/>
	<path fill="none" stroke="#000000" stroke-width="5" stroke-linecap="round" stroke-linejoin="round" stroke-miterlimit="10" d="
		M333.3,484.8c14.9-8.5-34,17-40.4,19.2"/>
	<path fill="none" stroke="#000000" stroke-width="5" stroke-linecap="round" stroke-linejoin="round" stroke-miterlimit="10" d="
		M433.3,399.8c-6.5,6.5-12.7,8.5-21.2,6.5"/>
	<path fill="none" stroke="#000000" stroke-width="5" stroke-linecap="round" stroke-linejoin="round" stroke-miterlimit="10" d="
		M424.8,406.1c-21.2,4.2-31.9,34-36.2,51"/>
	<path fill="none" stroke="#000000" stroke-width="5" stroke-linecap="round" stroke-linejoin="round" stroke-miterlimit="10" d="
		M433.3,495.5c0,2.2-8.5,19.2-17,27.7c-8.5-8.5-19.2-14.9-29.7-21.2"/>
	<path fill="none" stroke="#000000" stroke-width="5" stroke-linecap="round" stroke-linejoin="round" stroke-miterlimit="10" d="
		M409.8,523c-2.2,4.2-10.7,36.2-17,48.9"/>
	<path fill="none" stroke="#000000" stroke-width="5" stroke-linecap="round" stroke-linejoin="round" stroke-miterlimit="10" d="
		M399.1,569.9c-10.7,6.5-25.5,6.5-31.9-4.2"/>
	<path fill="none" stroke="#000000" stroke-width="5" stroke-linecap="round" stroke-linejoin="round" stroke-miterlimit="10" d="
		M360.9,535.9c0,10.7-4.2,27.7,6.5,38.2"/>
	<path fill="none" stroke="#000000" stroke-width="5" stroke-linecap="round" stroke-linejoin="round" stroke-miterlimit="10" d="
		M390.6,538c2.2-6.5,0-21.2-6.5-29.7"/>
</g>
</svg>
