<?xml version="1.0" encoding="utf-8"?>
<!-- Generator: Adobe Illustrator 25.1.0, SVG Export Plug-In . SVG Version: 6.00 Build 0)  -->
<svg version="1.1" id="Layer_1" xmlns="http://www.w3.org/2000/svg" xmlns:xlink="http://www.w3.org/1999/xlink" x="0px" y="0px"
	 width="1000px" height="1000px" viewBox="0 0 1000 1000" enable-background="new 0 0 1000 1000" xml:space="preserve">
<g id="vs-hair">
	<path fill="#2D2A29" d="M423.1,285.1c0-0.5,2.7-137.2,2.7-137.2s18.1-8.8,18.2-20.6c0.1-11.8-18.2,6.3-18.2,6.3l5.7-24.1
		c0,0,28.8-28.5,50.4-27.9c21.6,0.5,44.1,1.4,59.9,12.1c15.8,10.7,15.9,26.7,15.9,26.7l8.2,12.9v51v89.1L526,253.3l-5.1-33.4
		l3.9-6.5l16.2-11.8l5.4-18.2l-0.4-26.2l-5-29.2l-33.2-9.8l-23.7,11.4l-12.8,35.1l-8,17l8.8,8.3l4.7,4.9l1.8,54.5l-6.4,11
		C472,260.4,443.9,284.8,423.1,285.1"/>
</g>
<g id="vs-skin">
	<polygon fill="#F9D8B4" points="480,254.5 498.7,283.1 525.3,252.3 523.3,214.1 542.2,199.4 547.1,170.6 544.6,142.2 540.9,128 
		505.9,117.7 484.7,129.6 470.2,167.1 463.2,179.1 466.8,187.3 476.6,193.7 	"/>
	<path fill="#F9D8B4" d="M568,136.8l-12.5-19.6l-1.8-13l14.5-8.8l11.2,2.8l6.1-2.1l9.3,17.5l32-2.2c0,0,24,9.7,32.1,17.8
		c8.1,8.2,31.6,34.1,38.8,65.5c7.1,31.4-1.8,63.3-12.7,78.6c-10.9,15.4-39.7,46.5-62.4,52c-22.7,5.5,0,0,0,0l-8.4-53.8
		c0,0,34.6-10.8,37.8-54.3c3.2-43.5-30.4-71-30.4-71S594.6,128.3,568,136.8z"/>
	<path fill="#F9D8B4" d="M380.4,130.2c0,0,3.4-11.2,14.8-11.9c11.4-0.7,34.7-4,34.7-4l-0.5,15.3l13.1-5.3l1.4,4.9
		c0,0-15.4,17.7-39.6,27.8c-24.2,10.1-39.3,29.6-44.2,36.6c-4.9,7-42.1,83.8,30.7,95.3c72.8,11.5,0,0,0,0l0.1,54.2
		c0,0-80.1,1.8-89.8-74.9c-9.7-76.7,54.7-128.6,54.7-128.6L380.4,130.2z"/>
	<polygon fill="#F9D8B4" points="453.4,866.4 477,860.3 474.3,885.8 454.4,902.4 	"/>
	<polygon fill="#F9D8B4" points="532.6,858.9 563.8,849.6 561.3,866.4 533.7,893.1 	"/>
</g>
<g id="vs-colour">
	<path fill="#FFFFFF" d="M456.3,905.7l1.7,11.8c0,0,48.2-15.1,52.7-33.1c4.5-18-11.1-13.4-13.9-12.1
		C494,873.5,456.3,905.7,456.3,905.7z"/>
	<path fill="#FFFFFF" d="M533.7,895.7v13.1c0,0,56.4-23.5,55.1-41.8s-23-2.8-23-2.8L533.7,895.7z"/>
</g>
<g id="vs-secondary">
	<polygon fill="#5F5F5F" points="438.4,629.9 503.9,627.9 479.1,856.6 451.9,862.7 	"/>
	<polygon fill="#5F5F5F" points="533.3,625.8 595.7,616.6 563.8,848 531.8,858.2 	"/>
</g>
<g id="vs-primary">
	<path fill="#FF5648" d="M393.4,289.6c0,0,32,8.5,85.2-33.5l20.1,27.1l25.5-27.7c0,0,38.4,32,88.2,18.7c0,0,11.5,25.2,7.4,51
		l-32.3,11.8c-1.2,81.5,8.4,175.4,23.4,275.4c-64.9,14.2-133.6,18.1-205,14.4c17.3-97.8,27.2-193.6,28.6-287.1l-41,1.3V289.6"/>
</g>
<g id="vs-outline">
	<path fill="none" stroke="#120606" stroke-width="7" stroke-linecap="round" stroke-linejoin="round" stroke-miterlimit="10" d="
		M511.7,219.6c2.2-1,4.2-2,6-2.9c2.4-1.1,4.5-2.2,6.5-3.1c6.5-3.2,11-5.8,14.2-9c1.9-2,3.4-4.2,4.7-7c1.1-2.5,1.8-5.1,2.2-7.8
		c2.4-14.9,2.4-30-0.4-45.2c-0.6-3.1-1.2-6.1-2-9.2c-0.8-3.1-1.7-6.1-2.7-9.2c-2.4,0.8-4.8,1.2-7.3,1.1c-2.5-0.1-5.1-0.6-7.7-1.4
		c-2.7-0.8-5.4-2-8.2-3.4c-1.8-0.9-3.7-2-5.5-3.1c-1.6-0.9-3.1-1.9-4.7-3c-1.4,1-2.7,2-4.2,2.9c-3.3,2.1-6.7,3.9-10.3,5.4
		c-2.5,1.1-5.1,2-7.8,2.9c-0.6,2.3-1.2,4.6-1.9,6.8c-2.4,8-5.5,15.9-9.2,23.8c-1.2,2.6-2.5,5.3-3.9,7.9c0,0-1.5,1.4-3,3.8
		c-0.8,1.3-1.7,2.9-2.3,4.7c-0.6,1.8-1.1,3.9-1.1,6.1c0,2.6,1.3,4.6,3,6.1c1.7,1.5,3.9,2.5,5.9,3.2c2.5,0.9,4.6,1.2,4.6,1.2l0.2,6.9
		l0.3,10.1l1,30.5l0.3,8.7l0.2,6.8c-2.2,2.2-4.4,4.4-6.7,6.4c-2.7,2.4-5.6,4.7-8.5,6.8c-6.5,4.7-13.4,8.8-20.7,12.2
		c-3,1.4-6,2.7-9.1,3.9c-3.4,1.3-6.9,2.5-10.5,3.6c0-3.2-0.1-6.5-0.1-9.7c0-4.2-0.1-8.4-0.1-12.6c-0.1-19-0.2-37.2,0-54.2
		c0.1-15.6,0.4-30.2,0.9-43.3c0.1-3.3,0.2-6.4,0.4-9.5c0.2-3.7,0.4-7.2,0.6-10.6c0,0,2.3-1.3,5.3-3.4c2.1-1.5,4.5-3.3,6.8-5.4
		c3.9-3.6,7.3-7.8,8-12.3c0.6-3.7-1.8-3.4-5.3-1.3c-2.2,1.3-4.8,3.2-7.4,5.3c-2.3,1.8-4.5,3.7-6.3,5.4c-1,0.9-2.5-0.2-1.9-1.5
		c0.7-1.6,1.5-3.3,2.3-4.9c1.6-3.4,3-6.5,3.3-7.1c1.5-2.9,1.8-5,1.4-6.5c-0.5-1.6-1.9-2.4-3.7-2.5c1.5-1.3,3-2.6,4.5-3.9
		c2.9-2.4,5.8-4.8,8.7-7.2c7.5-6,14.9-11.3,22.1-15c10.2-5.3,20.1-7.4,29.3-3.6c9.6-0.6,18.6-0.3,26.9,1.2
		c7.6,1.4,14.6,3.8,20.9,7.6c5,3,9.5,6.9,13.5,11.8c0,0-0.1,4.5,1.2,9.5c1.1,4,3.1,8.3,6.8,10.7l5.9,14.1c-0.3,2.9-0.7,5.8-1,8.8
		c-0.4,4.1-0.7,8.3-1,12.6c-1.6,25.3-1.1,54.7,0.4,86.4c0.2,5.1,0.5,10.2,0.8,15.4c0.2,4.4,0.5,8.8,0.8,13.3c-3-0.9-6-2-9-3.1
		c-2.6-1-5.2-2.1-7.8-3.3c-4.8-2.2-9.5-4.7-14.2-7.4c-1.8-1-3.5-2.1-5.2-3.1c-2.2-1.3-4.4-2.8-6.6-4.2"/>
	<path fill="none" stroke="#120606" stroke-width="7" stroke-linecap="round" stroke-linejoin="round" stroke-miterlimit="10" d="
		M522.7,217.5l0.2,4.9l0.3,6.8l0.5,12.4l0.3,7.5l0.2,4.6l-4.1,5l-4.5,5.6l-8.4,10.4l-4.5,5.6l-3.8,4.7c-1.2-1.6-2.4-3.1-3.6-4.7
		c-1.2-1.5-2.3-3.1-3.4-4.6c-3.1-4.4-6-8.7-8.6-13c-0.8-1.4-1.6-2.7-2.4-4.1c-0.9-1.5-1.7-3-2.4-4.6"/>
	
		<polyline fill="none" stroke="#120606" stroke-width="7" stroke-linecap="round" stroke-linejoin="round" stroke-miterlimit="10" points="
		424.4,152.9 419.4,161.1 408.4,179.1 402.9,188.2 	"/>
	
		<polyline fill="none" stroke="#120606" stroke-width="7" stroke-linecap="round" stroke-linejoin="round" stroke-miterlimit="10" points="
		423.1,171.6 418.7,183.4 411.4,203 408.1,211.8 	"/>
	
		<polyline fill="none" stroke="#120606" stroke-width="7" stroke-linecap="round" stroke-linejoin="round" stroke-miterlimit="10" points="
		423.1,189 418.7,203.8 408.1,239.4 404.3,252.3 	"/>
	
		<polyline fill="none" stroke="#120606" stroke-width="7" stroke-linecap="round" stroke-linejoin="round" stroke-miterlimit="10" points="
		421.9,204.4 420.7,209.9 419,217.5 417.9,222.4 	"/>
	<path fill="none" stroke="#120606" stroke-width="7" stroke-linecap="round" stroke-linejoin="round" stroke-miterlimit="10" d="
		M564.4,175.1c1,3.9,2.2,7.9,3.5,12.1c2.1,6.7,4.4,13.6,7,20.8c1.1,3.1,2.3,6.4,3.6,9.6"/>
	<path fill="none" stroke="#120606" stroke-width="7" stroke-linecap="round" stroke-linejoin="round" stroke-miterlimit="10" d="
		M567,138.5c1.4,2.5,2.9,5.1,4.4,7.6c2.7,4.4,5.6,8.7,8.8,13c1.7,2.3,3.4,4.6,5.3,6.8"/>
	<path fill="none" stroke="#120606" stroke-width="7" stroke-linecap="round" stroke-linejoin="round" stroke-miterlimit="10" d="
		M565.8,150.4c0.9,2.1,1.9,4.3,2.8,6.4c2.6,5.6,5.4,11.1,8.4,16.4c1.1,2,2.3,4,3.5,6"/>
	
		<line fill="none" stroke="#120606" stroke-width="7" stroke-linecap="round" stroke-linejoin="round" stroke-miterlimit="10" x1="490.6" y1="137.4" x2="499.4" y2="150.4"/>
	
		<line fill="none" stroke="#120606" stroke-width="7" stroke-linecap="round" stroke-linejoin="round" stroke-miterlimit="10" x1="526" y1="145.2" x2="530.8" y2="135.3"/>
	<path fill="none" stroke="#120606" stroke-width="7" stroke-linecap="round" stroke-linejoin="round" stroke-miterlimit="10" d="
		M489.7,152.9c4.6,0,4.6,11,0.7,11C485.4,163.9,485.9,152.9,489.7,152.9z"/>
	<path fill="none" stroke="#120606" stroke-width="7" stroke-linecap="round" stroke-linejoin="round" stroke-miterlimit="10" d="
		M531.4,152.4c4.6,0,4.6,11,0.7,11C527,163.4,527.5,152.4,531.4,152.4z"/>
	<path fill="none" stroke="#120606" stroke-width="7" stroke-linecap="round" stroke-linejoin="round" stroke-miterlimit="10" d="
		M510.9,146.5c0,0-12,31.4,1.2,31.4C525.5,178,510.9,146.5,510.9,146.5z"/>
	<path fill="none" stroke="#120606" stroke-width="7" stroke-linecap="round" stroke-linejoin="round" stroke-miterlimit="10" d="
		M504.4,201.6c0,0-1.6-13.4,7.5-13.4c9.1,0,6.6,11.3,6.6,11.3s-0.6-4.5-6.6-4.5C505.9,194.9,504.4,201.6,504.4,201.6z"/>
	<path fill="none" stroke="#120606" stroke-width="7" stroke-linecap="round" stroke-linejoin="round" stroke-miterlimit="10" d="
		M424.7,147.3l-14.5,7.1l-12.9,6.4c-27.5,13.5-46.9,39.6-51.2,70c-0.1,0.6-0.2,1.1-0.2,1.7c-1.1,8.7-0.5,17.5,2.4,25.7
		c6.5,18.3,20.6,26.4,34.9,29.6c8.1,1.8,16.1,2,22.9,1.7c9.9-0.5,17-2.3,17-2.3"/>
	<path fill="none" stroke="#120606" stroke-width="7" stroke-linecap="round" stroke-linejoin="round" stroke-miterlimit="10" d="
		M427.1,113.2c0,0-3.8,0.6-7.8,3.8c-2.4,1.9-4.8,4.6-6.5,8.6c-1.3,2.9-2.2,6.5-2.5,10.9c-0.3,4.1,3,2.9,6.7,0.2
		c4.6-3.3,9.7-8.6,9.7-8.6"/>
	<path fill="none" stroke="#120606" stroke-width="7" stroke-linecap="round" stroke-linejoin="round" stroke-miterlimit="10" d="
		M418.3,116.5c0,0-6.7-1.1-13.1,1.7c-3.3,1.4-6.4,3.9-8.6,8.1c-1.4,2.7-2.4,6.2-2.6,10.6c-0.6,9,4.5,6.5,9.3,2.2
		c4-3.6,7.8-8.4,7.8-8.4"/>
	<path fill="none" stroke="#120606" stroke-width="7" stroke-linecap="round" stroke-linejoin="round" stroke-miterlimit="10" d="
		M402.6,119.4c0,0-3.4-1.9-7.9-1c-2.4,0.5-5,1.6-7.7,4.3c-1.9,1.8-3.7,4.3-5.4,7.7c-1.9,4.2-2.6,6.9-2.6,8.8
		c0.1,3.6,2.9,3.4,4.5,2.6c2.4-1.3,11-9.1,11-9.1"/>
	<path fill="none" stroke="#120606" stroke-width="7" stroke-linecap="round" stroke-linejoin="round" stroke-miterlimit="10" d="
		M383.2,123.1c0,0-3.6-0.4-9.1-0.8c-10.6-0.8-28.3-1.5-41.4,1c-3.6,0.7-6.8,1.6-9.5,2.8c-2.9,1.3-5.1,3-6.4,5.1l9.8-0.6l10.7-0.6
		l30.4-1.7l11.8-0.7"/>
	<path fill="none" stroke="#120606" stroke-width="7" stroke-linecap="round" stroke-linejoin="round" stroke-miterlimit="10" d="
		M379,130.2c0,0-6.5,0.6-15.7,1.9c-13.1,1.8-31.7,4.7-45.4,8.7c-3,0.9-5.7,1.8-8.1,2.8c-3.3,1.3-6,2.8-7.7,4.3
		c-1.5,1.5,2.6,1.5,9.6,0.4c3.2-0.5,6.9-1.1,11-1.9c13.1-2.5,29.8-6.2,41.3-8.9c8.2-1.9,13.8-3.3,13.8-3.3"/>
	
		<polyline fill="none" stroke="#120606" stroke-width="7" stroke-linecap="round" stroke-linejoin="round" stroke-miterlimit="10" points="
		377.4,137.4 366.2,140.6 320.5,153.2 301.8,158.4 326.2,153.1 366.2,144.4 379.7,141.5 	"/>
	
		<polyline fill="none" stroke="#120606" stroke-width="7" stroke-linecap="round" stroke-linejoin="round" stroke-miterlimit="10" points="
		339.6,151.5 332,154.6 320.8,159.2 316,161.1 	"/>
	<path fill="none" stroke="#120606" stroke-width="7" stroke-linecap="round" stroke-linejoin="round" stroke-miterlimit="10" d="
		M345.3,149.7c0,0-4.3,4.4-10.3,12.3c-3.6,4.8-7.7,10.8-11.9,17.9c-12.7,21.6-25.4,53.2-21.4,89.1c7.5,67.2,75.4,73.9,75.4,73.9
		s10.6,0.6,23.3,0.2c5.6-0.2,11.7-0.5,17.4-1.2c6.2-0.7,12-1.8,16.6-3.4c0,3.3-0.1,6.5-0.1,9.8c-0.1,5.2-0.2,10.4-0.3,15.7
		c-0.8,27.9-2.4,56.5-4.8,85.5c-0.6,6.8-1.2,13.6-1.8,20.4c-3.6,37.9-8.6,76.7-14.8,116.1c-1.1,7.2-2.3,14.4-3.5,21.6
		c-1.1,6.9-2.3,13.7-3.5,20.6c5.5,0.1,10.9,0.2,16.3,0.3c8.2,0.1,16.3,0.1,24.3,0c18.4-0.2,36.5-0.8,54.3-1.9
		c6.8-0.4,13.6-0.9,20.3-1.5c20.2-1.7,39.8-4.1,58.9-7.2c4.9-0.8,9.8-1.6,14.7-2.5c5.5-1,11-2.1,16.5-3.3c-0.7-4.5-1.3-8.9-1.9-13.4
		c-1.2-8-2.3-16-3.3-23.9c-4.5-33.1-8.4-65.3-11.4-96.4c-0.8-8.4-1.6-16.8-2.3-25c-2.6-30.5-4.3-59.8-4.9-87.7
		c-0.1-5.2-0.2-10.3-0.2-15.3c0-5,0-9.9,0-14.7c0,0,4.8-0.6,12.4-2.5c4.2-1,9.3-2.5,15-4.5c25.9-9.2,63.2-29.6,79.5-73.7
		c4.2-11.3,6.2-22.2,6.6-32.7c0.5-11.8-1.2-23-4.2-33.5c-11.2-38.8-41.5-66.7-55.9-72.7c-6.5-2.7-13.5-4.6-20.1-6
		c-5.9-1.2-11.5-2-16.1-2.5c-7.2-0.8-12-0.8-12-0.8"/>
	
		<polyline fill="none" stroke="#120606" stroke-width="7" stroke-linecap="round" stroke-linejoin="round" stroke-miterlimit="10" points="
		392.3,342.1 392.3,326.5 392.3,301.4 392.3,290.7 	"/>
	<path fill="none" stroke="#120606" stroke-width="7" stroke-linecap="round" stroke-linejoin="round" stroke-miterlimit="10" d="
		M553.1,104.2c0,0,5.1-4.1,9.7-1.6c1.5,0.8,3,2.3,4.2,5c2.9,6.4,3.6,12.1,2.1,15.3c-1,2.1-3,3.1-6,2.6"/>
	<path fill="none" stroke="#120606" stroke-width="7" stroke-linecap="round" stroke-linejoin="round" stroke-miterlimit="10" d="
		M564.4,103.8c0,0-1.2-7.9,3.8-8.3c2.4-0.2,5.2,1.9,7.6,4.7c2.7,3.1,4.9,7.2,5.4,10.3c0.6,3.3-0.5,7.1-2.8,8.9
		c-1.7,1.4-4.1,1.6-7.1-0.4"/>
	<path fill="none" stroke="#120606" stroke-width="7" stroke-linecap="round" stroke-linejoin="round" stroke-miterlimit="10" d="
		M577.7,100.2c0,0,0.9-3.8,3.7-4.7c1.4-0.4,3.3-0.2,5.7,1.7c4.5,3.4,5.5,9.7,4.8,14.4c-0.4,2.8-1.4,5.1-2.5,5.6
		c-3,1.5-7.9-1.4-7.9-1.4"/>
	<path fill="none" stroke="#120606" stroke-width="7" stroke-linecap="round" stroke-linejoin="round" stroke-miterlimit="10" d="
		M593.8,113.6c0.2-0.1,6-0.6,13.6-1.2c8.4-0.6,19-1.3,27.4-1.9c7.9-0.5,13.8-0.9,13.8-0.9"/>
	
		<polyline fill="none" stroke="#120606" stroke-width="7" stroke-linecap="round" stroke-linejoin="round" stroke-miterlimit="10" points="
		593.5,109.6 608.2,108.2 638.7,105.5 651.8,104.2 	"/>
	
		<polyline fill="none" stroke="#120606" stroke-width="7" stroke-linecap="round" stroke-linejoin="round" stroke-miterlimit="10" points="
		593.8,106.5 609.5,104.4 636.9,100.8 654,98.5 	"/>
	
		<polyline fill="none" stroke="#120606" stroke-width="7" stroke-linecap="round" stroke-linejoin="round" stroke-miterlimit="10" points="
		593.5,102.5 606.4,99.5 638.8,91.9 651.2,89 	"/>
	
		<polyline fill="none" stroke="#120606" stroke-width="7" stroke-linecap="round" stroke-linejoin="round" stroke-miterlimit="10" points="
		592.1,98.3 602.2,95.5 637.4,85.8 652.6,81.7 	"/>
	<path fill="none" stroke="#120606" stroke-width="7" stroke-linecap="round" stroke-linejoin="round" stroke-miterlimit="10" d="
		M567,136.2c0,0,5.4-1.5,13.5-1.7c5.5-0.2,12.2,0.2,19.4,1.9c17.9,4.4,38.4,17.5,48.1,52.5c1.6,5.9,2.7,11.4,3.3,16.5
		c0.7,6.2,0.8,11.8,0.2,17c-4,41.1-42.6,51.1-42.6,51.1s-5,1.1-12,1.9c-3.7,0.4-7.9,0.8-12.2,0.9c-6.1,0.2-12.5-0.1-17.8-1.5"/>
	<path fill="none" stroke="#120606" stroke-width="7" stroke-linecap="round" stroke-linejoin="round" stroke-miterlimit="10" d="
		M614.1,273.5c0,0,1.1,3.4,2.5,8.7c1.9,7.3,4.3,18.1,5,28.1c0.4,6,0.3,11.7-1,16.2"/>
	<path fill="none" stroke="#120606" stroke-width="7" stroke-linecap="round" stroke-linejoin="round" stroke-miterlimit="10" d="
		M437,630.7l1.3,20.4l1.7,26.1l5.4,84.4l7.8,121.4l1.1,16.9l1.2,18.6c0,0,3.2-1,8.2-2.9c3.4-1.3,7.6-3,12.1-5
		c12.9-5.8,28.2-14.2,33.8-23.5c2.1-3.5,2.8-7.2,1.4-10.9c-1.4-3.7-3.9-5.3-7.1-5.4c-8.1-0.2-20.8,9.1-31.3,18.2
		c-4.2,3.6-8,7.3-11,10.2c-4.2,4.1-6.8,6.9-6.8,6.9"/>
	
		<polyline fill="none" stroke="#120606" stroke-width="7" stroke-linecap="round" stroke-linejoin="round" stroke-miterlimit="10" points="
		475.7,886.2 477.8,867.5 480.8,842 490.5,759.5 501.6,665.1 503.9,645.8 506.1,627.2 	"/>
	
		<polyline fill="none" stroke="#120606" stroke-width="7" stroke-linecap="round" stroke-linejoin="round" stroke-miterlimit="10" points="
		452,865.4 458.6,863.6 469.4,860.8 478.9,858.2 	"/>
	<path fill="none" stroke="#120606" stroke-width="7" stroke-linecap="round" stroke-linejoin="round" stroke-miterlimit="10" d="
		M531.6,626.6l0,20.9l0,22.8l0.1,76.9l0.1,139l0,15.6l0,9.4c0,0,3.8-1.6,9.4-4.3c4-1.9,8.9-4.4,14.1-7.3c11.4-6.4,24-14.7,30.2-23
		c3.6-4.8,5-9.7,2.8-14.2c-2.5-5.1-7.3-5.5-13-3.3c-8.4,3.3-18.9,12.3-27.5,20.7c-3.8,3.8-7.3,7.4-10,10.4c-3.7,4-6,6.7-6,6.7"/>
	
		<polyline fill="none" stroke="#120606" stroke-width="7" stroke-linecap="round" stroke-linejoin="round" stroke-miterlimit="10" points="
		563,865.4 565.5,846.6 569.4,817.9 580.6,734.4 589.3,669.8 593.4,639.4 596.5,616.6 	"/>
	
		<polyline fill="none" stroke="#120606" stroke-width="7" stroke-linecap="round" stroke-linejoin="round" stroke-miterlimit="10" points="
		531.8,858.2 539.1,855.9 553.6,851.2 563.8,848 	"/>
</g>
<g id="vs-reveal">
	<g id="vs-reveal_1_">
		<path fill="none" stroke="#F9D8B4" stroke-width="70" stroke-miterlimit="10" stroke-opacity="0" d="M325.8,73.2
			c6.8,0,13.4,0,19.9,0c51.9,0.2,95.9,0.9,133.3,2.2c86.2,2.8,136.9,7.9,166.6,13c6.1,1.1,8.9,4.3,8.8,7.6
			c-0.1,3.9-4.1,7.8-11.6,7.8c-60.4,0.4-110.4,1.4-151.8,2.9c-74.8,2.7-121.4,7.1-150.2,11.7c-17.5,2.9-28.4,5.8-35,8.6
			c-17.7,7.7-3.6,14.3-3.6,14.3c38.4,18.4,130.4,17,217.9,15.6c67-1.1,131.3-2.1,166.7,6c17.7,4,28.2,10.3,28.2,20.1
			c0,8.7-8.5,14.8-23,19c-37.4,10.8-115.1,9.1-192.8,7.7c-78.3-1.4-156.6-2.4-193.6,10c-13.9,4.7-22,11.3-22,20.5s8,15.5,21.9,19.7
			c38.9,11.7,123.5,6.6,205.9,1.8c76.3-4.5,150.5-8.8,184.5,0.5c12.2,3.3,19.1,8.4,19.1,15.9c0,7.3-6.7,13.1-18.5,17.7
			c-35.5,13.8-117,17-198.2,20.3c-78,3.2-155.8,6.6-192.6,19.9c-13.9,5-22,11.4-22,19.8c0,9.1,9.6,15.1,26.1,18.9
			c39.4,9.1,117.8,5.4,195.3,1.4c75.7-3.9,150.6-7.9,187.1-0.5c14.6,3,23,7.8,23,15.1c0,6.8-7.1,12-19.5,16.1
			c-40.2,13.3-136,14.5-225,16.4c-62.4,1.4-121.6,3.1-156,9.6c-19.3,3.6-30.8,8.8-30.8,16.2c0,7.4,11.5,12.1,30.8,14.9
			c39.4,5.7,111.2,3.7,183.2,1.4c78.2-2.4,156.6-5.2,194.3,1.4c14.6,2.5,23,6.5,23,12.3c0,5.9-8.5,10.5-23,14.3
			c-39.4,10.3-123.5,14.2-205.3,19.1C418,516.5,351,521.3,313.7,531c-18.8,4.9-30,11.1-30,19.1c0,8.2,11.7,12.7,31.3,15
			c40.8,4.7,115.9-0.9,190-5.3c75.7-4.5,150.5-7.9,187,2c14.6,3.9,23,9.9,23,18.8c0,8.9-8.5,15.6-23,20.7
			c-39.9,14.1-125.5,16-208.1,17.7c-65.2,1.3-128.5,2.3-165.9,8.8c-21.4,3.7-34.3,9.2-34.3,17.6s12.9,13.3,34.3,16.2
			c41.5,5.5,114.8,3,187.2,1.8s144-1.1,181.9,9.6c17.5,4.9,27.9,12.1,27.9,22.5c0,9.9-9.5,16.8-25.7,21.7
			c-40.3,12-122.1,10.6-201.7,9.3c-66.5-1.2-131.5-2.4-169.6,4c-21.4,3.5-34.3,9.5-34.3,19.2s12.9,16.2,34.3,20.7
			c41.4,8.6,114.6,9.1,187,8.6c69.8-0.5,138.8-2,177.8,1.8c20.1,2,32.2,5.4,32.2,11.1s-12.1,10-32.2,13.4
			c-42.2,7.1-119.6,10.1-195.1,13.7c-66.5,3.2-131.5,6.8-169.7,13.9c-21.4,4-34.3,9.2-34.3,16c0,7.1,14.1,11.6,37.3,14.4
			c44.9,5.4,123.7,4.7,199.1,5c61.9,0.2,121.5,1.3,158.2,7.1c22.8,3.6,36.8,9.1,36.8,17.4c0,8.5-14.6,13.2-38.5,15.5
			c-44.3,4.2-120.4,0.5-193.8-1.4c-62.3-1.6-122.7-1.8-160.3,5.3c-24,4.6-38.7,12.2-38.7,24.4"/>
	</g>
</g>
</svg>
