<?xml version="1.0" encoding="utf-8"?>
<!-- Generator: Adobe Illustrator 24.0.3, SVG Export Plug-In . SVG Version: 6.00 Build 0)  -->
<svg version="1.1" id="Layer_1" xmlns="http://www.w3.org/2000/svg" xmlns:xlink="http://www.w3.org/1999/xlink" x="0px" y="0px"
	 width="1000px" height="1000px" viewBox="0 0 1000 1000" enable-background="new 0 0 1000 1000" xml:space="preserve">
<g>
	<path fill="none" stroke="#000000" stroke-width="5" stroke-linecap="round" stroke-linejoin="round" stroke-miterlimit="10" d="
		M459.3,90.8c-57.8-2.2-94.3,81.4-83.5,128.5c15.1,75,115.7,117.7,182.1,81.4c55.6-29.9,83.5-115.7,40.7-169.2
		c-30-40.7-75-45-122-42.8c-8.6,0-19.3,0-27.9,2.2"/>
	<path fill="none" stroke="#000000" stroke-width="5" stroke-linecap="round" stroke-linejoin="round" stroke-miterlimit="10" d="
		M375.8,180.8c75,15.1,160.7,12.8,235.5-2.2"/>
	<path fill="none" stroke="#000000" stroke-width="5" stroke-linecap="round" stroke-linejoin="round" stroke-miterlimit="10" d="
		M390.9,133.7c42.8,8.6,149.9,25.7,201.2-6.5"/>
	<path fill="none" stroke="#000000" stroke-width="5" stroke-linecap="round" stroke-linejoin="round" stroke-miterlimit="10" d="
		M388.7,180.8c27.9,94.3,171.3,68.5,218.4,2.2"/>
	<path fill="none" stroke="#000000" stroke-width="5" stroke-linecap="round" stroke-linejoin="round" stroke-miterlimit="10" d="
		M423,189.3c-4.3,38.5,53.6,40.7,51.3,0"/>
	<path fill="none" stroke="#000000" stroke-width="5" stroke-linecap="round" stroke-linejoin="round" stroke-miterlimit="10" d="
		M425.1,202.2c10.8,6.5,25.7,2.2,29.9-12.8"/>
	<path fill="none" stroke="#000000" stroke-width="5" stroke-linecap="round" stroke-linejoin="round" stroke-miterlimit="10" d="
		M429.4,206.5c-2.2,0,10.8,0,12.8,2.2c2.2-4.3-6.5-4.3-6.5-4.3c6.5-2.2,12.8-2.2,19.3-6.5c-2.2,0-8.6,4.3-8.6,6.5
		c4.3-2.2,8.6-6.5,15.1-8.6c0,0-8.6,2.2-6.5,4.3l6.5-6.5c-2.2,4.3-4.3,8.6-6.5,10.8c2.2-2.2,6.5-6.5,8.6-10.8
		c2.2,4.3-4.3,8.6-4.3,10.8c4.3-2.2,4.3-6.5,8.6-8.6c-2.2,4.3-4.3,8.6-6.5,12.8c0-2.2,6.5-10.8,6.5-12.8
		c-6.5,10.8-17.1,15.1-27.9,15.1c4.3,0,10.8,0,17.1,0c-6.5,0-12.8,0-19.3,0c2.2,0,8.6,2.2,12.8,2.2c-2.2,0-10.8-2.2-12.8-2.2
		c15.1,6.5,27.9,0,27.9-17.1c-4.3,2.2-10.8,6.5-15.1,10.8c2.2-4.3,4.3-6.5,6.5-8.6c-4.3,4.3-6.5,8.6-8.6,12.8"/>
	<path fill="none" stroke="#000000" stroke-width="5" stroke-linecap="round" stroke-linejoin="round" stroke-miterlimit="10" d="
		M459.3,202.2c0,4.3,0,8.6-12.8,10.8c-2.2-2.2-2.2-8.6-2.2-8.6c2.2,0-12.8,6.5-15.1,6.5c6.5,2.2,12.8,4.3,19.3,4.3
		c-2.2,0-8.6-2.2-10.8-2.2c8.6,2.2,12.8,0,19.3,0c0,0-4.3-4.3-6.5-2.2c4.3-2.2,12.8-8.6,19.3-15.1c-2.2,4.3-4.3,10.8-6.5,12.8
		c2.2-2.2,4.3-6.5,4.3-8.6c-6.5,12.8-23.6,17.1-38.5,10.8c4.3,0,8.6,0,12.8,0"/>
	<path fill="none" stroke="#000000" stroke-width="5" stroke-linecap="round" stroke-linejoin="round" stroke-miterlimit="10" d="
		M510.8,191.4c0,32.2,59.9,27.9,55.6-2.2"/>
	<path fill="none" stroke="#000000" stroke-width="5" stroke-linecap="round" stroke-linejoin="round" stroke-miterlimit="10" d="
		M517.2,202.2c12.8,6.5,30-2.2,30-15.1"/>
	<path fill="none" stroke="#000000" stroke-width="5" stroke-linecap="round" stroke-linejoin="round" stroke-miterlimit="10" d="
		M523.7,204.4c4.3,0,19.3-4.3,27.9-8.6l-6.5,2.2c2.2,0,6.5-2.2,6.5-4.3c-2.2,2.2-6.5,4.3-8.6,6.5c4.3-6.5,6.5-4.3,12.8-8.6
		c-2.2,0-8.6,2.2-8.6,2.2c2.2,0,8.6-2.2,10.8,0l-4.3,6.5c2.2,0,2.2-4.3,4.3-6.5c-2.2,2.2-2.2,6.5-6.5,10.8c2.2-4.3,4.3-8.6,6.5-12.8
		c0,2.2-4.3,8.6-4.3,10.8c2.2-2.2,4.3-6.5,6.5-6.5c-10.8,8.6-23.6,12.8-36.4,12.8c4.3,0,10.8,0,15.1,0c-6.5-2.2-10.8-2.2-17.1-2.2
		c17.1,6.5,36.4,2.2,34.2-12.8c-2.2,0-2.2,0,0,0s4.3,0,6.5,0c2.2,2.2-4.3,6.5-4.3,6.5c2.2-2.2,4.3-8.6,4.3-10.8
		c0,6.5-2.2,10.8-4.3,17.1"/>
	<path fill="none" stroke="#000000" stroke-width="5" stroke-linecap="round" stroke-linejoin="round" stroke-miterlimit="10" d="
		M600.7,133.7c8.6-19.3,23.6-53.6,32.2-79.2"/>
	<path fill="none" stroke="#000000" stroke-width="5" stroke-linecap="round" stroke-linejoin="round" stroke-miterlimit="10" d="
		M632.8,58.8c4.3,17.1,4.3,42.8,15.1,55.6"/>
	<path fill="none" stroke="#000000" stroke-width="5" stroke-linecap="round" stroke-linejoin="round" stroke-miterlimit="10" d="
		M645.7,112.2c6.5-10.8,6.5-23.6-2.2-34.2"/>
	<path fill="none" stroke="#000000" stroke-width="5" stroke-linecap="round" stroke-linejoin="round" stroke-miterlimit="10" d="
		M637.1,86.5c-2.2-2.2,6.5-2.2,10.8-4.3"/>
	<path fill="none" stroke="#000000" stroke-width="5" stroke-linecap="round" stroke-linejoin="round" stroke-miterlimit="10" d="
		M647.9,80.2c4.3,6.5,10.8,34.2,8.6,47.1"/>
	<path fill="none" stroke="#000000" stroke-width="5" stroke-linecap="round" stroke-linejoin="round" stroke-miterlimit="10" d="
		M611.4,155.1c10.8-15.1,27.9-23.6,45-25.7"/>
	<path fill="none" stroke="#000000" stroke-width="5" stroke-linecap="round" stroke-linejoin="round" stroke-miterlimit="10" d="
		M615.7,148.6c17.1,6.5,36.4,10.8,55.6,19.3"/>
	<path fill="none" stroke="#000000" stroke-width="5" stroke-linecap="round" stroke-linejoin="round" stroke-miterlimit="10" d="
		M615.7,172.2c12.8,4.3,45,21.4,57.8,38.5"/>
	<path fill="none" stroke="#000000" stroke-width="5" stroke-linecap="round" stroke-linejoin="round" stroke-miterlimit="10" d="
		M671.3,165.7c6.5,12.8,6.5,32.2,4.3,49.3"/>
	<path fill="none" stroke="#000000" stroke-width="5" stroke-linecap="round" stroke-linejoin="round" stroke-miterlimit="10" d="
		M463.6,311.4c-17.1,60.2-25.7,152.9-10.8,219.9"/>
	<path fill="none" stroke="#000000" stroke-width="5" stroke-linecap="round" stroke-linejoin="round" stroke-miterlimit="10" d="
		M448.7,481.5c23.6,5.2,70.7,13.8,98.6,0"/>
	<path fill="none" stroke="#000000" stroke-width="5" stroke-linecap="round" stroke-linejoin="round" stroke-miterlimit="10" d="
		M530,314.8c17.1,58.5,32.2,149.6,17.1,218.4"/>
	<path fill="none" stroke="#000000" stroke-width="5" stroke-linecap="round" stroke-linejoin="round" stroke-miterlimit="10" d="
		M465.8,307.1c-59.9,36.4-124.2,137.1-152.1,201.2"/>
	<path fill="none" stroke="#000000" stroke-width="5" stroke-linecap="round" stroke-linejoin="round" stroke-miterlimit="10" d="
		M463.6,311.4c-50.5,47.4-75.9,142-85.7,209.8"/>
	<path fill="none" stroke="#000000" stroke-width="5" stroke-linecap="round" stroke-linejoin="round" stroke-miterlimit="10" d="
		M375.8,519.1c8.6,19.3,45,49.3,17.1,66.4"/>
	<path fill="none" stroke="#000000" stroke-width="5" stroke-linecap="round" stroke-linejoin="round" stroke-miterlimit="10" d="
		M388.7,576.9c0,6.5,2.2,15.1,8.6,19.3"/>
	<path fill="none" stroke="#000000" stroke-width="5" stroke-linecap="round" stroke-linejoin="round" stroke-miterlimit="10" d="
		M309.4,510.5c8.6-6.5-8.6,32.2-12.8,40.7"/>
	<path fill="none" stroke="#000000" stroke-width="5" stroke-linecap="round" stroke-linejoin="round" stroke-miterlimit="10" d="
		M298.8,540.5c2.2,12.8,12.8,51.3,19.3,72.7"/>
	<path fill="none" stroke="#000000" stroke-width="5" stroke-linecap="round" stroke-linejoin="round" stroke-miterlimit="10" d="
		M320.2,613.4c12.8-8.6,87.8,10.8,83.5-23.6"/>
	<path fill="none" stroke="#000000" stroke-width="5" stroke-linecap="round" stroke-linejoin="round" stroke-miterlimit="10" d="
		M339.5,448.4c6.5,2.2,34.2,2.2,49.3,6.5"/>
	<path fill="none" stroke="#000000" stroke-width="5" stroke-linecap="round" stroke-linejoin="round" stroke-miterlimit="10" d="
		M345.9,437.7c17.1,0,34.2,2.2,51.3,2.2"/>
	<path fill="none" stroke="#000000" stroke-width="5" stroke-linecap="round" stroke-linejoin="round" stroke-miterlimit="10" d="
		M459.3,531.5c15.1,8.6,66.4,8.6,90,0"/>
	<path fill="none" stroke="#000000" stroke-width="5" stroke-linecap="round" stroke-linejoin="round" stroke-miterlimit="10" d="
		M450.8,527.7C467.9,547,414.3,669,410,705.5"/>
	<path fill="none" stroke="#000000" stroke-width="5" stroke-linecap="round" stroke-linejoin="round" stroke-miterlimit="10" d="
		M545.1,527.7c15.1,62.1,34.2,124.2,51.3,184.1"/>
	<path fill="none" stroke="#000000" stroke-width="5" stroke-linecap="round" stroke-linejoin="round" stroke-miterlimit="10" d="
		M478.7,574.7c8.6,4.3,36.4,12.8,55.6,8.6"/>
	<path fill="none" stroke="#000000" stroke-width="5" stroke-linecap="round" stroke-linejoin="round" stroke-miterlimit="10" d="
		M502.3,583.3c-12.8,27.9-38.5,87.8-40.7,128.5"/>
	<path fill="none" stroke="#000000" stroke-width="5" stroke-linecap="round" stroke-linejoin="round" stroke-miterlimit="10" d="
		M510.8,585.5c-4.3,29.9,34.2,102.8,45,143.4"/>
	<path fill="none" stroke="#000000" stroke-width="5" stroke-linecap="round" stroke-linejoin="round" stroke-miterlimit="10" d="
		M405.9,701.2c6.5,15.1,45,19.3,64.2,6.5"/>
	<path fill="none" stroke="#000000" stroke-width="5" stroke-linecap="round" stroke-linejoin="round" stroke-miterlimit="10" d="
		M557.9,720.3c6.5,8.6,36.4,4.3,42.8-10.8"/>
	<path fill="none" stroke="#000000" stroke-width="5" stroke-linecap="round" stroke-linejoin="round" stroke-miterlimit="10" d="
		M408,699c-4.3,4.3-6.5,12.8-6.5,19.3"/>
	<path fill="none" stroke="#000000" stroke-width="5" stroke-linecap="round" stroke-linejoin="round" stroke-miterlimit="10" d="
		M399.4,716.1c8.6,21.4,57.8,17.1,70.7,2.2"/>
	<path fill="none" stroke="#000000" stroke-width="5" stroke-linecap="round" stroke-linejoin="round" stroke-miterlimit="10" d="
		M470.1,709.7c0-10.8,2.2,10.8,2.2,12.8"/>
	<path fill="none" stroke="#000000" stroke-width="5" stroke-linecap="round" stroke-linejoin="round" stroke-miterlimit="10" d="
		M555.7,724.6c0,4.3,0,8.6,0,12.8c19.3,2.2,40.7,2.2,49.3-17.1"/>
	<path fill="none" stroke="#000000" stroke-width="5" stroke-linecap="round" stroke-linejoin="round" stroke-miterlimit="10" d="
		M602.9,714c-4.3-8.6-2.2,2.2,0,6.5"/>
	<path fill="none" stroke="#000000" stroke-width="5" stroke-linecap="round" stroke-linejoin="round" stroke-miterlimit="10" d="
		M405.9,709.7c-4.3,27.9-25.7,85.7-27.9,126.3"/>
	<path fill="none" stroke="#000000" stroke-width="5" stroke-linecap="round" stroke-linejoin="round" stroke-miterlimit="10" d="
		M470.1,722.6c0-2.2,2.2-4.3,2.2-8.6c-8.6,45-8.6,92.1-8.6,139.1"/>
	<path fill="none" stroke="#000000" stroke-width="5" stroke-linecap="round" stroke-linejoin="round" stroke-miterlimit="10" d="
		M378,836c-17.1,10.8-36.4,25.7-47.1,42.8"/>
	<path fill="none" stroke="#000000" stroke-width="5" stroke-linecap="round" stroke-linejoin="round" stroke-miterlimit="10" d="
		M335.3,870.3c-6.5,15.1-6.5,38.5,6.5,51.3"/>
	<path fill="none" stroke="#000000" stroke-width="5" stroke-linecap="round" stroke-linejoin="round" stroke-miterlimit="10" d="
		M335.3,911c25.7,23.6,77,21.4,111.4,8.6"/>
	<path fill="none" stroke="#000000" stroke-width="5" stroke-linecap="round" stroke-linejoin="round" stroke-miterlimit="10" d="
		M440.2,921.8c10.8-15.1,21.4-38.5,27.9-57.8"/>
	<path fill="none" stroke="#000000" stroke-width="5" stroke-linecap="round" stroke-linejoin="round" stroke-miterlimit="10" d="
		M459.3,844.6c6.5-6.5,2.2,19.3,4.3,29.9"/>
	<path fill="none" stroke="#000000" stroke-width="5" stroke-linecap="round" stroke-linejoin="round" stroke-miterlimit="10" d="
		M328.8,881c27.9-19.3,68.5-15.1,100.6-8.6"/>
	<path fill="none" stroke="#000000" stroke-width="5" stroke-linecap="round" stroke-linejoin="round" stroke-miterlimit="10" d="
		M555.7,728.9c0,36.4,2.2,92.1,15.1,132.8"/>
	<path fill="none" stroke="#000000" stroke-width="5" stroke-linecap="round" stroke-linejoin="round" stroke-miterlimit="10" d="
		M605,709.7c15.1,45,34.2,96.3,32.2,145.6"/>
	<path fill="none" stroke="#000000" stroke-width="5" stroke-linecap="round" stroke-linejoin="round" stroke-miterlimit="10" d="
		M570.7,857.4c6.5,19.3,12.8,36.4,12.8,57.8"/>
	<path fill="none" stroke="#000000" stroke-width="5" stroke-linecap="round" stroke-linejoin="round" stroke-miterlimit="10" d="
		M585.8,915.3c10.8,27.9,70.7,32.2,100.6,27.9"/>
	<path fill="none" stroke="#000000" stroke-width="5" stroke-linecap="round" stroke-linejoin="round" stroke-miterlimit="10" d="
		M634.9,844.6c12.8,17.1,40.7,21.4,55.6,36.4"/>
	<path fill="none" stroke="#000000" stroke-width="5" stroke-linecap="round" stroke-linejoin="round" stroke-miterlimit="10" d="
		M690.7,878.8c10.8,17.1,15.1,47.1-4.3,59.9"/>
	<path fill="none" stroke="#000000" stroke-width="5" stroke-linecap="round" stroke-linejoin="round" stroke-miterlimit="10" d="
		M609.2,891.6c15.1,4.3,53.6-10.8,79.2-2.2"/>
	<path fill="none" stroke="#000000" stroke-width="5" stroke-linecap="round" stroke-linejoin="round" stroke-miterlimit="10" d="
		M534.1,312.5c59.9,36.4,124.2,137.1,152,201.2"/>
	<path fill="none" stroke="#000000" stroke-width="5" stroke-linecap="round" stroke-linejoin="round" stroke-miterlimit="10" d="
		M536.3,316.7c50.5,47.4,75.9,142,85.7,209.8"/>
	<path fill="none" stroke="#000000" stroke-width="5" stroke-linecap="round" stroke-linejoin="round" stroke-miterlimit="10" d="
		M624.1,524.5c-8.6,19.3-45,49.3-17.1,66.4"/>
	<path fill="none" stroke="#000000" stroke-width="5" stroke-linecap="round" stroke-linejoin="round" stroke-miterlimit="10" d="
		M611.3,582.3c0,6.5-2.2,15.1-8.6,19.3"/>
	<path fill="none" stroke="#000000" stroke-width="5" stroke-linecap="round" stroke-linejoin="round" stroke-miterlimit="10" d="
		M690.5,515.9c-8.6-6.5,8.6,32.2,12.8,40.7"/>
	<path fill="none" stroke="#000000" stroke-width="5" stroke-linecap="round" stroke-linejoin="round" stroke-miterlimit="10" d="
		M701.1,545.9c-2.2,12.8-12.8,51.3-19.3,72.7"/>
	<path fill="none" stroke="#000000" stroke-width="5" stroke-linecap="round" stroke-linejoin="round" stroke-miterlimit="10" d="
		M679.7,618.8c-12.8-8.6-87.8,10.8-83.5-23.6"/>
	<path fill="none" stroke="#000000" stroke-width="5" stroke-linecap="round" stroke-linejoin="round" stroke-miterlimit="10" d="
		M660.6,453.8c-6.5,2.2-34.2,2.2-49.3,6.5"/>
	<path fill="none" stroke="#000000" stroke-width="5" stroke-linecap="round" stroke-linejoin="round" stroke-miterlimit="10" d="
		M654.1,443.2c-17.1,0-34.2,2.2-51.3,2.2"/>
	<path fill="none" stroke="#000000" stroke-width="5" stroke-linecap="round" stroke-linejoin="round" stroke-miterlimit="10" d="
		M555.7,497.7c15.1,2.2,12.8,8.6,2.2,19.3"/>
	<path fill="none" stroke="#000000" stroke-width="5" stroke-linecap="round" stroke-linejoin="round" stroke-miterlimit="10" d="
		M560.1,508.3c19.3,19.3,17.1,57.8,27.9,83.5"/>
	<path fill="none" stroke="#000000" stroke-width="5" stroke-linecap="round" stroke-linejoin="round" stroke-miterlimit="10" d="
		M557.9,512.8c6.5,25.7,17.1,53.6,15.1,81.4"/>
	<path fill="none" stroke="#000000" stroke-width="5" stroke-linecap="round" stroke-linejoin="round" stroke-miterlimit="10" d="
		M575,594.1c4.3,0,6.5-2.2,10.8-2.2"/>
	<path fill="none" stroke="#000000" stroke-width="5" stroke-linecap="round" stroke-linejoin="round" stroke-miterlimit="10" d="
		M557.9,497.7c19.3-2.2,40.7,34.2,47.1,53.6"/>
	<path fill="none" stroke="#000000" stroke-width="5" stroke-linecap="round" stroke-linejoin="round" stroke-miterlimit="10" d="
		M566.4,514.8c12.8,10.8,25.7,23.6,34.2,38.5"/>
</g>
</svg>
