<?xml version="1.0" encoding="utf-8"?>
<!-- Generator: Adobe Illustrator 24.0.3, SVG Export Plug-In . SVG Version: 6.00 Build 0)  -->
<svg version="1.1" id="Layer_1" xmlns="http://www.w3.org/2000/svg" xmlns:xlink="http://www.w3.org/1999/xlink" x="0px" y="0px"
	 width="1000px" height="1000px" viewBox="0 0 1000 1000" enable-background="new 0 0 1000 1000" xml:space="preserve">
<g id="Layer_1_1_">
	<path fill="none" stroke="#000000" stroke-width="5" stroke-linecap="round" stroke-linejoin="round" stroke-miterlimit="10" d="
		M386.6,203.6c8.6,14.6,8.8,31.4,11.1,46.1"/>
	<path fill="none" stroke="#000000" stroke-width="5" stroke-linecap="round" stroke-linejoin="round" stroke-miterlimit="10" d="
		M395.6,247.7c15,23,46.8,45.7,72.1,55.9"/>
	<path fill="none" stroke="#000000" stroke-width="5" stroke-linecap="round" stroke-linejoin="round" stroke-miterlimit="10" d="
		M467.7,303.6c4.2-0.1,10.5-0.1,14.7-2.3"/>
	<path fill="none" stroke="#000000" stroke-width="5" stroke-linecap="round" stroke-linejoin="round" stroke-miterlimit="10" d="
		M478.2,303.5c16.7-12.8,39.6-27.8,49.9-48.9"/>
	<path fill="none" stroke="#000000" stroke-width="5" stroke-linecap="round" stroke-linejoin="round" stroke-miterlimit="10" d="
		M527.5,206.2c-4,16.9-5.9,35.8,0.6,50.5"/>
	<path fill="none" stroke="#000000" stroke-width="5" stroke-linecap="round" stroke-linejoin="round" stroke-miterlimit="10" d="
		M527.6,210.4c-0.1-4.2,4.1-8.5,14.6-12.8c15,27.2,15.1,35.6-14.1,50.6"/>
	<path fill="none" stroke="#000000" stroke-width="5" stroke-linecap="round" stroke-linejoin="round" stroke-miterlimit="10" d="
		M538.2,222.9c0-2.1-0.1-6.3-0.1-8.4l0,0c-4.2,2.2-8.3,6.4-12.5,10.7"/>
	<path fill="none" stroke="#000000" stroke-width="5" stroke-linecap="round" stroke-linejoin="round" stroke-miterlimit="10" d="
		M534.2,233.4c-4.2,0.1-6.3-2-6.4-6.2"/>
	<path fill="none" stroke="#000000" stroke-width="5" stroke-linecap="round" stroke-linejoin="round" stroke-miterlimit="10" d="
		M385.8,207.9c-1.9-2.1-7.6-4.1-9.5-6.2c-7.5,8.5-13,19.1-16.7,31.7c7.7,8.3,17.2,16.6,24.8,20.7c5.6-4.3,11.3-8.5,13.1-14.9"/>
	<path fill="none" stroke="#000000" stroke-width="5" stroke-linecap="round" stroke-linejoin="round" stroke-miterlimit="10" d="
		M376.4,226.9c4.1-6.4,12.5-10.7,20.9-10.8"/>
	<path fill="none" stroke="#000000" stroke-width="5" stroke-linecap="round" stroke-linejoin="round" stroke-miterlimit="10" d="
		M389,222.5c0.1,4.2-2,10.5-1.9,14.7"/>
	<path fill="none" stroke="#000000" stroke-width="5" stroke-linecap="round" stroke-linejoin="round" stroke-miterlimit="10" d="
		M499.7,166.6C483,177.3,468.4,190.1,456,205c18.8-6.5,37.7-15.2,56.5-21.7"/>
	<path fill="none" stroke="#000000" stroke-width="5" stroke-linecap="round" stroke-linejoin="round" stroke-miterlimit="10" d="
		M512.5,183.2c2.1-2.1-2,12.6-4,14.8c8.4-0.1,16.8-2.3,23.1-6.6"/>
	<path fill="none" stroke="#000000" stroke-width="5" stroke-linecap="round" stroke-linejoin="round" stroke-miterlimit="10" d="
		M527.4,193.6c2.1,2.1,2.2,8.4,0.1,12.6"/>
	<path fill="none" stroke="#000000" stroke-width="5" stroke-linecap="round" stroke-linejoin="round" stroke-miterlimit="10" d="
		M493.4,168.7c-25.2,4.5-52.3,21.6-66.8,40.7c-0.1-10.5,1.9-18.9,6-29.5"/>
	<path fill="none" stroke="#000000" stroke-width="5" stroke-linecap="round" stroke-linejoin="round" stroke-miterlimit="10" d="
		M436.7,173.6c-14.6,8.6-27.1,21.3-35.3,34.1l0,0c-4.2,0.1-6.3-2-10.6-4.1"/>
	<path fill="none" stroke="#000000" stroke-width="5" stroke-linecap="round" stroke-linejoin="round" stroke-miterlimit="10" d="
		M426.8,226.3c0.1,6.3,0.1,12.6,0.2,21c12.5-6.5,12.3-23.3,6-27.4"/>
	<path fill="none" stroke="#000000" stroke-width="5" stroke-linecap="round" stroke-linejoin="round" stroke-miterlimit="10" d="
		M429,234.7c0,0,0-2.1,4.2,2.1c0-4.2-4.2,2.2-4.2,4.3"/>
	<path fill="none" stroke="#000000" stroke-width="5" stroke-linecap="round" stroke-linejoin="round" stroke-miterlimit="10" d="
		M494.1,221.3c-2,10.5-4,16.9,2.4,25.2c8.3-6.4,8.2-16.9,3.9-25.3"/>
	<path fill="none" stroke="#000000" stroke-width="5" stroke-linecap="round" stroke-linejoin="round" stroke-miterlimit="10" d="
		M496.4,240.2c0,0,6.2-10.6-4.2,2.2c4.2-0.1,4.2-4.3,8.4-4.3"/>
	<path fill="none" stroke="#000000" stroke-width="5" stroke-linecap="round" stroke-linejoin="round" stroke-miterlimit="10" d="
		M473.3,242.6c4.2-2.2,4.2-2.2,0.1,6.3c4.2-0.1,6.4,4.1,8.5,6.2"/>
	<path fill="none" stroke="#000000" stroke-width="5" stroke-linecap="round" stroke-linejoin="round" stroke-miterlimit="10" d="
		M471.4,259.4c2.1-2.1,6.3-4.3,10.4-6.4"/>
	<path fill="none" stroke="#000000" stroke-width="5" stroke-linecap="round" stroke-linejoin="round" stroke-miterlimit="10" d="
		M450.5,272.3c10.6,4.1,21,1.9,31.5-2.5"/>
	<path fill="none" stroke="#000000" stroke-width="5" stroke-linecap="round" stroke-linejoin="round" stroke-miterlimit="10" d="
		M409.9,211.8c10.4-10.6,25.1-10.8,39.9-6.8"/>
	<path fill="none" stroke="#000000" stroke-width="5" stroke-linecap="round" stroke-linejoin="round" stroke-miterlimit="10" d="
		M481.3,206.7c-8.4,2.2,23.1-6.6,33.6-0.4"/>
	<path fill="none" stroke="#000000" stroke-width="5" stroke-linecap="round" stroke-linejoin="round" stroke-miterlimit="10" d="
		M530.9,138.9c8.3-10.6,16.5-23.3,22.7-36c-4.1,12.7-8,33.7-9.9,48.5"/>
	<path fill="none" stroke="#000000" stroke-width="5" stroke-linecap="round" stroke-linejoin="round" stroke-miterlimit="10" d="
		M545.8,153.4c-2.1,0,18.8-6.5,25.2-6.6c-6.3,4.3-14.6,12.8-20.8,17.1"/>
	<path fill="none" stroke="#000000" stroke-width="5" stroke-linecap="round" stroke-linejoin="round" stroke-miterlimit="10" d="
		M554.4,163.8c-4.2-2.1,6.4,8.3,10.6,10.4l0,0l0,0c-14.7,4.4-20.8,17.1-16.4,31.7"/>
	<path fill="none" stroke="#000000" stroke-width="5" stroke-linecap="round" stroke-linejoin="round" stroke-miterlimit="10" d="
		M532.9,128.3c-25.5-27-55.2-45.6-82.8-70.5c10.6,10.4,15,23,17.3,37.6"/>
	<path fill="none" stroke="#000000" stroke-width="5" stroke-linecap="round" stroke-linejoin="round" stroke-miterlimit="10" d="
		M467.3,89.2c-35.6,10.9-79.8,9.4-117.5,22.4c14.8,4,31.6,5.9,38.1,20.6"/>
	<path fill="none" stroke="#000000" stroke-width="5" stroke-linecap="round" stroke-linejoin="round" stroke-miterlimit="10" d="
		M383.7,136.4c0-2.1-41.7,27.8-56.4,34.3c8.4,2,19,6.1,27.4,8.1"/>
	<path fill="none" stroke="#000000" stroke-width="5" stroke-linecap="round" stroke-linejoin="round" stroke-miterlimit="10" d="
		M359,180.8c2.1-2.1-20.7,25.5-24.8,33.9c8.4-0.1,18.9,1.9,27.3-0.3c0.1,8.4-1.9,18.9-3.9,27.4"/>
	<path fill="none" stroke="#000000" stroke-width="5" stroke-linecap="round" stroke-linejoin="round" stroke-miterlimit="10" d="
		M453.5,274.5c0.1,9.5,26.9,33.8,32.2-2.3"/>
	<path fill="none" stroke="#000000" stroke-width="5" stroke-linecap="round" stroke-linejoin="round" stroke-miterlimit="10" d="
		M461.2,287.7c5.6-5.7,13.2-7.7,20.7-7.8"/>
	<path fill="none" stroke="#000000" stroke-width="5" stroke-linecap="round" stroke-linejoin="round" stroke-miterlimit="10" d="
		M487.5,226c5.7-9.5,11.4-15.1,18.9-3.8"/>
	<path fill="none" stroke="#000000" stroke-width="5" stroke-linecap="round" stroke-linejoin="round" stroke-miterlimit="10" d="
		M417.4,227.9c3.8-3.8,9.5-7.6,15.2-9.5"/>
	<path fill="none" stroke="#000000" stroke-width="5" stroke-linecap="round" stroke-linejoin="round" stroke-miterlimit="10" d="
		M452.9,295.4c2.2,8.4,2.3,16.8-3.9,25.3"/>
	<path fill="none" stroke="#000000" stroke-width="5" stroke-linecap="round" stroke-linejoin="round" stroke-miterlimit="10" d="
		M484.5,301.3c0,0,0.3,23.1,6.7,31.5"/>
	<path fill="none" stroke="#000000" stroke-width="5" stroke-linecap="round" stroke-linejoin="round" stroke-miterlimit="10" d="
		M449,324.9c-2,8.4,27.7,27,37.9,5.9"/>
	<path fill="none" stroke="#000000" stroke-width="5" stroke-linecap="round" stroke-linejoin="round" stroke-miterlimit="10" d="
		M453.2,318.5c2.3,14.7,27.5,16.5,39.9-0.5"/>
	<path fill="none" stroke="#000000" stroke-width="5" stroke-linecap="round" stroke-linejoin="round" stroke-miterlimit="10" d="
		M409.2,331.6c2-6.3,10.4-10.6,18.8-10.7"/>
	<path fill="none" stroke="#000000" stroke-width="5" stroke-linecap="round" stroke-linejoin="round" stroke-miterlimit="10" d="
		M428,320.9c2.2,6.3,8.9,39.8,11.2,54.5"/>
	<path fill="none" stroke="#000000" stroke-width="5" stroke-linecap="round" stroke-linejoin="round" stroke-miterlimit="10" d="
		M441.1,364.9c21.2,12.4,48.4,3.6,69.3-7.1"/>
	<path fill="none" stroke="#000000" stroke-width="5" stroke-linecap="round" stroke-linejoin="round" stroke-miterlimit="10" d="
		M507.9,322.1c2-6.3-1.8,27.4,0.4,35.7"/>
	<path fill="none" stroke="#000000" stroke-width="5" stroke-linecap="round" stroke-linejoin="round" stroke-miterlimit="10" d="
		M505.7,320c4.2-4.3,10.4-6.4,18.9-4.4"/>
	<path fill="none" stroke="#000000" stroke-width="5" stroke-linecap="round" stroke-linejoin="round" stroke-miterlimit="10" d="
		M428.1,333.5c6.2-6.4,16.7-10.7,27.2-10.8"/>
	<path fill="none" stroke="#000000" stroke-width="5" stroke-linecap="round" stroke-linejoin="round" stroke-miterlimit="10" d="
		M489,326.5c10.5-2.2,21-2.3,31.5-0.4"/>
	<path fill="none" stroke="#000000" stroke-width="5" stroke-linecap="round" stroke-linejoin="round" stroke-miterlimit="10" d="
		M409.1,329.5c8.6,18.8,11,39.8,17.5,58.7"/>
	<path fill="none" stroke="#000000" stroke-width="5" stroke-linecap="round" stroke-linejoin="round" stroke-miterlimit="10" d="
		M418.3,390.4c2.1-4.2,18.7-17,31.3-21.4"/>
	<path fill="none" stroke="#000000" stroke-width="5" stroke-linecap="round" stroke-linejoin="round" stroke-miterlimit="10" d="
		M420.4,390.4c0.1,10.5,0.5,44.1,15.4,58.7"/>
	<path fill="none" stroke="#000000" stroke-width="5" stroke-linecap="round" stroke-linejoin="round" stroke-miterlimit="10" d="
		M437.9,446.9c25.2-0.3,48.4,1.5,71.3-13.5"/>
	<path fill="none" stroke="#000000" stroke-width="5" stroke-linecap="round" stroke-linejoin="round" stroke-miterlimit="10" d="
		M528.8,315.5c-4,14.8-1.7,37.9-5.7,50.5"/>
	<path fill="none" stroke="#000000" stroke-width="5" stroke-linecap="round" stroke-linejoin="round" stroke-miterlimit="10" d="
		M512.6,364.1c-6.4-4.1,12.6,2,16.8,1.9"/>
	<path fill="none" stroke="#000000" stroke-width="5" stroke-linecap="round" stroke-linejoin="round" stroke-miterlimit="10" d="
		M529.4,366c-12.4,17,11.3,69.2-22.3,73.9"/>
	<path fill="none" stroke="#000000" stroke-width="5" stroke-linecap="round" stroke-linejoin="round" stroke-miterlimit="10" d="
		M442.1,446.9c-2,6.3,0.1,12.6,0.2,18.9c16.8,1.9,58.9,5.6,67.2-9.2"/>
	<path fill="none" stroke="#000000" stroke-width="5" stroke-linecap="round" stroke-linejoin="round" stroke-miterlimit="10" d="
		M511.3,433.5c0-2.1-1.8,23.2-1.7,31.6"/>
	<path fill="none" stroke="#000000" stroke-width="5" stroke-linecap="round" stroke-linejoin="round" stroke-miterlimit="10" d="
		M448.7,476.2c2.1-4.2,0.1,10.5,0.1,12.6c21.1,4,63.2,9.8,54.4-21.7"/>
	<path fill="none" stroke="#000000" stroke-width="5" stroke-linecap="round" stroke-linejoin="round" stroke-miterlimit="10" d="
		M400.8,338c4.2,0,6.3-0.1,10.5-2.2"/>
	<path fill="none" stroke="#000000" stroke-width="5" stroke-linecap="round" stroke-linejoin="round" stroke-miterlimit="10" d="
		M398.8,340.2c0,2.1-4.1,6.4,2.2,12.6c6.2-6.4,2-8.4,1.9-14.7"/>
	<path fill="none" stroke="#000000" stroke-width="5" stroke-linecap="round" stroke-linejoin="round" stroke-miterlimit="10" d="
		M398.8,340.2c-23.5-29.2-54.7-3.6-67,23.9c-24.6,57.1,49,54.1,65.3,13.9"/>
	<path fill="none" stroke="#000000" stroke-width="5" stroke-linecap="round" stroke-linejoin="round" stroke-miterlimit="10" d="
		M405.2,352.7c0,0-1.9,16.8-6,23.2"/>
	<path fill="none" stroke="#000000" stroke-width="5" stroke-linecap="round" stroke-linejoin="round" stroke-miterlimit="10" d="
		M401.3,378c2.1,0,19,4,29.5,3.9"/>
	<path fill="none" stroke="#000000" stroke-width="5" stroke-linecap="round" stroke-linejoin="round" stroke-miterlimit="10" d="
		M531,326c-6.3,0.1,4.2-2.2,4.2-2.2"/>
	<path fill="none" stroke="#000000" stroke-width="5" stroke-linecap="round" stroke-linejoin="round" stroke-miterlimit="10" d="
		M531,323.9c12.6-0.1,10.6,4.1-2,12.6"/>
	<path fill="none" stroke="#000000" stroke-width="5" stroke-linecap="round" stroke-linejoin="round" stroke-miterlimit="10" d="
		M535.3,328c4.2-0.1,8.4-0.1,12.6-0.1"/>
	<path fill="none" stroke="#000000" stroke-width="5" stroke-linecap="round" stroke-linejoin="round" stroke-miterlimit="10" d="
		M547.8,323.7c4.5-29.5,60.7-4.9,56.2,26.7"/>
	<path fill="none" stroke="#000000" stroke-width="5" stroke-linecap="round" stroke-linejoin="round" stroke-miterlimit="10" d="
		M554.1,323.6c-8.3,8.5-12.2,33.8-3.7,42.1"/>
	<path fill="none" stroke="#000000" stroke-width="5" stroke-linecap="round" stroke-linejoin="round" stroke-miterlimit="10" d="
		M550.5,367.8c17,12.4,46.3,1.6,52.4-17.4"/>
	<path fill="none" stroke="#000000" stroke-width="5" stroke-linecap="round" stroke-linejoin="round" stroke-miterlimit="10" d="
		M525.2,368c3,3.6,16.3,1.6,25.2-3.9"/>
	<path fill="none" stroke="#000000" stroke-width="5" stroke-linecap="round" stroke-linejoin="round" stroke-miterlimit="10" d="
		M363.8,407.9c-4.1,8.5,2.3,16.8,10.8,23"/>
	<path fill="none" stroke="#000000" stroke-width="5" stroke-linecap="round" stroke-linejoin="round" stroke-miterlimit="10" d="
		M364,420.5c-14.7,0.2-14.5,14.9-1.8,27.4"/>
	<path fill="none" stroke="#000000" stroke-width="5" stroke-linecap="round" stroke-linejoin="round" stroke-miterlimit="10" d="
		M422.9,424c4.3,10.5-16.6,21.2-14.5,21.2"/>
	<path fill="none" stroke="#000000" stroke-width="5" stroke-linecap="round" stroke-linejoin="round" stroke-miterlimit="10" d="
		M412.6,443c16.8,1.9-1.9,16.8-14.4,23.3"/>
	<path fill="none" stroke="#000000" stroke-width="5" stroke-linecap="round" stroke-linejoin="round" stroke-miterlimit="10" d="
		M343.2,441.8c-2,8.4,42.3,22.6,61.2,22.4"/>
	<path fill="none" stroke="#000000" stroke-width="5" stroke-linecap="round" stroke-linejoin="round" stroke-miterlimit="10" d="
		M355.7,435.3c-6.3,2.2-10.4,8.5-12.4,14.9"/>
	<path fill="none" stroke="#000000" stroke-width="5" stroke-linecap="round" stroke-linejoin="round" stroke-miterlimit="10" d="
		M436.4,450c-5.6,7.6-3.5,26.6-3.3,39.8c5.7-0.1,11.4-0.1,17-2.1"/>
	<path fill="none" stroke="#000000" stroke-width="5" stroke-linecap="round" stroke-linejoin="round" stroke-miterlimit="10" d="
		M517.7,435.8c0.1,7.6,2.4,39.7,2.5,54.9"/>
	<path fill="none" stroke="#000000" stroke-width="5" stroke-linecap="round" stroke-linejoin="round" stroke-miterlimit="10" d="
		M503.1,485.2c5.7,1.8,13.3,5.5,19,7.4"/>
	<path fill="none" stroke="#000000" stroke-width="5" stroke-linecap="round" stroke-linejoin="round" stroke-miterlimit="10" d="
		M438.8,491.7c3.7-9.5,2,5.7,2,9.4"/>
	<path fill="none" stroke="#000000" stroke-width="5" stroke-linecap="round" stroke-linejoin="round" stroke-miterlimit="10" d="
		M442.7,499.2c11.4,5.5,45.5,5.1,62.5-0.7"/>
	<path fill="none" stroke="#000000" stroke-width="5" stroke-linecap="round" stroke-linejoin="round" stroke-miterlimit="10" d="
		M510.8,492.7c1.7-13.3-1.8,3.8-1.8,5.7"/>
	<path fill="none" stroke="#000000" stroke-width="5" stroke-linecap="round" stroke-linejoin="round" stroke-miterlimit="10" d="
		M626.8,373.9c4.1,24.6,30.7,31.8,51.4,20.2"/>
	<path fill="none" stroke="#000000" stroke-width="5" stroke-linecap="round" stroke-linejoin="round" stroke-miterlimit="10" d="
		M681.9,390.3c0,0-1.9,0-1.9,1.9"/>
	<path fill="none" stroke="#000000" stroke-width="5" stroke-linecap="round" stroke-linejoin="round" stroke-miterlimit="10" d="
		M630.5,370.1c-5.7-1.8,24.9,24.3,40.1,26"/>
	<path fill="none" stroke="#000000" stroke-width="5" stroke-linecap="round" stroke-linejoin="round" stroke-miterlimit="10" d="
		M625.1,391c9.6,11.2,24.8,16.8,41.8,14.7"/>
	<path fill="none" stroke="#000000" stroke-width="5" stroke-linecap="round" stroke-linejoin="round" stroke-miterlimit="10" d="
		M628.9,389c-17,5.9-31.9,25-43.1,38.4"/>
	<path fill="none" stroke="#000000" stroke-width="5" stroke-linecap="round" stroke-linejoin="round" stroke-miterlimit="10" d="
		M585.8,427.4c4,17,4.3,39.7,8.2,54.8"/>
	<path fill="none" stroke="#000000" stroke-width="5" stroke-linecap="round" stroke-linejoin="round" stroke-miterlimit="10" d="
		M594,484.1c17.1,5.5,37.8-4.2,52.8-15.8"/>
	<path fill="none" stroke="#000000" stroke-width="5" stroke-linecap="round" stroke-linejoin="round" stroke-miterlimit="10" d="
		M667,407.5c-1.6,22.7-8.9,45.6-22,64.7"/>
	<path fill="none" stroke="#000000" stroke-width="5" stroke-linecap="round" stroke-linejoin="round" stroke-miterlimit="10" d="
		M528.4,378.9c3.8,3.7,2.1,17,15.4,22.5"/>
	
		<line fill="none" stroke="#000000" stroke-width="5" stroke-linecap="round" stroke-linejoin="round" stroke-miterlimit="10" x1="541.9" y1="401.4" x2="543.8" y2="401.4"/>
	<path fill="none" stroke="#000000" stroke-width="5" stroke-linecap="round" stroke-linejoin="round" stroke-miterlimit="10" d="
		M543.8,401.4c5.8,7.5,17.2,13.1,26.7,16.7"/>
	<path fill="none" stroke="#000000" stroke-width="5" stroke-linecap="round" stroke-linejoin="round" stroke-miterlimit="10" d="
		M551.5,410.8c-3.7,9.5,2.1,15.1,13.5,16.9"/>
	<path fill="none" stroke="#000000" stroke-width="5" stroke-linecap="round" stroke-linejoin="round" stroke-miterlimit="10" d="
		M555.4,424c0,1.9,5.9,20.8,6,30.2"/>
	<path fill="none" stroke="#000000" stroke-width="5" stroke-linecap="round" stroke-linejoin="round" stroke-miterlimit="10" d="
		M563.4,454.2c0,0,19.1,11.1,26.7,12.9"/>
	<path fill="none" stroke="#000000" stroke-width="5" stroke-linecap="round" stroke-linejoin="round" stroke-miterlimit="10" d="
		M600.2,362.9c7.7,9.4,2.2,22.7-5.2,37.9"/>
	<path fill="none" stroke="#000000" stroke-width="5" stroke-linecap="round" stroke-linejoin="round" stroke-miterlimit="10" d="
		M598.6,387.5c5.7,1.8,9.5,5.6,11.5,11.2"/>
	<path fill="none" stroke="#000000" stroke-width="5" stroke-linecap="round" stroke-linejoin="round" stroke-miterlimit="10" d="
		M341.8,444.4c-3.7,3.8-7.4,11.5-9.3,17.2"/>
	<path fill="none" stroke="#000000" stroke-width="5" stroke-linecap="round" stroke-linejoin="round" stroke-miterlimit="10" d="
		M623.8,320.7c7.6,11.4,11.4,36,5.7,53"/>
	<path fill="none" stroke="#000000" stroke-width="5" stroke-linecap="round" stroke-linejoin="round" stroke-miterlimit="10" d="
		M620,322.5c3.8-9.5,13.3-13.3,22.7-11.4"/>
	<path fill="none" stroke="#000000" stroke-width="5" stroke-linecap="round" stroke-linejoin="round" stroke-miterlimit="10" d="
		M644.7,311.2c1.9,0,7.6,9.5,9.5,15.1"/>
	<path fill="none" stroke="#000000" stroke-width="5" stroke-linecap="round" stroke-linejoin="round" stroke-miterlimit="10" d="
		M652.2,322.5c0,5.7,1.9,9.5,3.8,15.1"/>
	<path fill="none" stroke="#000000" stroke-width="5" stroke-linecap="round" stroke-linejoin="round" stroke-miterlimit="10" d="
		M654.1,333.9c0-3.8,1.9,11.4,1.9,15.1"/>
	<path fill="none" stroke="#000000" stroke-width="5" stroke-linecap="round" stroke-linejoin="round" stroke-miterlimit="10" d="
		M654.1,349.1c11.4,0,20.8,3.8,28.4,13.3"/>
	<path fill="none" stroke="#000000" stroke-width="5" stroke-linecap="round" stroke-linejoin="round" stroke-miterlimit="10" d="
		M656,345.3c9.5-15.1,20.8-32.2,28.4-47.3"/>
	<path fill="none" stroke="#000000" stroke-width="5" stroke-linecap="round" stroke-linejoin="round" stroke-miterlimit="10" d="
		M682.5,303.6c3.8-5.7,11.4-3.8,15.2,1.9"/>
	<path fill="none" stroke="#000000" stroke-width="5" stroke-linecap="round" stroke-linejoin="round" stroke-miterlimit="10" d="
		M697.7,307.4c-3.8,9.5-9.5,20.8-13.3,30.3"/>
	<path fill="none" stroke="#000000" stroke-width="5" stroke-linecap="round" stroke-linejoin="round" stroke-miterlimit="10" d="
		M682.5,341.5c5.7-11.4,20.8-18.9,30.3-28.4c13.3,3.8,11.4,7.6,9.5,15.2"/>
	<path fill="none" stroke="#000000" stroke-width="5" stroke-linecap="round" stroke-linejoin="round" stroke-miterlimit="10" d="
		M695.8,349.1c9.5-5.7,20.8-13.3,30.3-20.8"/>
	<path fill="none" stroke="#000000" stroke-width="5" stroke-linecap="round" stroke-linejoin="round" stroke-miterlimit="10" d="
		M697.7,347.2c5.7-3.8,15.2-5.7,22.7-5.7c3.8,7.6,3.8,13.3,1.9,20.8"/>
	<path fill="none" stroke="#000000" stroke-width="5" stroke-linecap="round" stroke-linejoin="round" stroke-miterlimit="10" d="
		M693.9,369.9c9.5-5.7,20.8-7.6,32.2-5.7"/>
	<path fill="none" stroke="#000000" stroke-width="5" stroke-linecap="round" stroke-linejoin="round" stroke-miterlimit="10" d="
		M699.6,371.8c0,0,32.2,1.9,18.9,26.5"/>
	<path fill="none" stroke="#000000" stroke-width="5" stroke-linecap="round" stroke-linejoin="round" stroke-miterlimit="10" d="
		M676.8,392.6c15.2,0,28.4,3.8,43.6,3.8"/>
	<path fill="none" stroke="#000000" stroke-width="5" stroke-linecap="round" stroke-linejoin="round" stroke-miterlimit="10" d="
		M438.9,499.2c-15.1,5.9-35.2,68.6-40.6,93.3"/>
	<path fill="none" stroke="#000000" stroke-width="5" stroke-linecap="round" stroke-linejoin="round" stroke-miterlimit="10" d="
		M398.3,590.6c2.1,13.2,24.8,11.1,36-0.4"/>
	<path fill="none" stroke="#000000" stroke-width="5" stroke-linecap="round" stroke-linejoin="round" stroke-miterlimit="10" d="
		M446.5,504.8c-7.4,15.2-14.4,62.7-8.5,85.3"/>
	<path fill="none" stroke="#000000" stroke-width="5" stroke-linecap="round" stroke-linejoin="round" stroke-miterlimit="10" d="
		M509,498.4c19.2,26.3,44.2,58.2,46.5,92.3"/>
	<path fill="none" stroke="#000000" stroke-width="5" stroke-linecap="round" stroke-linejoin="round" stroke-miterlimit="10" d="
		M499.5,500.4c11.7,26.4,14,58.5,19.9,83.1"/>
	<path fill="none" stroke="#000000" stroke-width="5" stroke-linecap="round" stroke-linejoin="round" stroke-miterlimit="10" d="
		M521.3,583.5c7.6,5.6,22.8,9.2,34.2,7.2"/>
	<path fill="none" stroke="#000000" stroke-width="5" stroke-linecap="round" stroke-linejoin="round" stroke-miterlimit="10" d="
		M473.1,506.4c-1.6,26.5,2.5,51.1,2.8,77.6l0,0l0,0c3.8,3.7,7.6-0.1,9.5-0.1"/>
	<path fill="none" stroke="#000000" stroke-width="5" stroke-linecap="round" stroke-linejoin="round" stroke-miterlimit="10" d="
		M482.6,508.2c0.3,22.7-4.9,62.6,4.8,81.4"/>
	<path fill="none" stroke="#000000" stroke-width="5" stroke-linecap="round" stroke-linejoin="round" stroke-miterlimit="10" d="
		M542.2,587c4.2,31.3,4.5,64.2,14.4,95.4"/>
	<path fill="none" stroke="#000000" stroke-width="5" stroke-linecap="round" stroke-linejoin="round" stroke-miterlimit="10" d="
		M556.6,679.2c-1.8,11.6-7.3,21.5-12.9,31.5"/>
	<path fill="none" stroke="#000000" stroke-width="5" stroke-linecap="round" stroke-linejoin="round" stroke-miterlimit="10" d="
		M554.8,694c0,1.6-1.8,11.6-3.6,16.5"/>
	<path fill="none" stroke="#000000" stroke-width="5" stroke-linecap="round" stroke-linejoin="round" stroke-miterlimit="10" d="
		M474.1,594.4c4.2,31.3-1,74.2,12.6,102"/>
	<path fill="none" stroke="#000000" stroke-width="5" stroke-linecap="round" stroke-linejoin="round" stroke-miterlimit="10" d="
		M486.7,694.8c1.9,1.6,19.1,11.3,26.7,16.2"/>
	<path fill="none" stroke="#000000" stroke-width="5" stroke-linecap="round" stroke-linejoin="round" stroke-miterlimit="10" d="
		M498.1,701.3c-11.3,3.4-5.5,13.3,9.7,18"/>
	<path fill="none" stroke="#000000" stroke-width="5" stroke-linecap="round" stroke-linejoin="round" stroke-miterlimit="10" d="
		M553.1,707.2c13.3,4.8,2.2,28-5.2,41.3"/>
	<path fill="none" stroke="#000000" stroke-width="5" stroke-linecap="round" stroke-linejoin="round" stroke-miterlimit="10" d="
		M496.4,719.4c3.6-13.2-1.8,6.6-1.8,6.6c2,9.9,5.9,18.1,17.3,24.5"/>
	<path fill="none" stroke="#000000" stroke-width="5" stroke-linecap="round" stroke-linejoin="round" stroke-miterlimit="10" d="
		M498.7,754c17-0.2,43.6,1.1,60.5-10.6"/>
	<path fill="none" stroke="#000000" stroke-width="5" stroke-linecap="round" stroke-linejoin="round" stroke-miterlimit="10" d="
		M504.3,742.4c9.4-1.8-5.6,3.4-7.5,3.4c2,4.9,7.7,6.5,13.4,9.7"/>
	<path fill="none" stroke="#000000" stroke-width="5" stroke-linecap="round" stroke-linejoin="round" stroke-miterlimit="10" d="
		M559.2,740.1c-1.9,0-3.8-3.3-3.8,1.7c1.9,0,3.8,1.6,5.7,1.6c13.6,31.2-33.4,54.8-50.2,83"/>
	<path fill="none" stroke="#000000" stroke-width="5" stroke-linecap="round" stroke-linejoin="round" stroke-miterlimit="10" d="
		M494.9,752.4c2.2,24.7,2.5,49.4,4.7,74.1c3.8,0,9.5-0.1,13.3-0.2"/>
	<path fill="none" stroke="#000000" stroke-width="5" stroke-linecap="round" stroke-linejoin="round" stroke-miterlimit="10" d="
		M559.5,769.8c0-1.6,4,18.1,4,21.4c-3.6,16.5-14.9,20-26.1,31.6"/>
	<path fill="none" stroke="#000000" stroke-width="5" stroke-linecap="round" stroke-linejoin="round" stroke-miterlimit="10" d="
		M559.9,801.1c0.1,6.6,6,29.6,10,41.1"/>
	<path fill="none" stroke="#000000" stroke-width="5" stroke-linecap="round" stroke-linejoin="round" stroke-miterlimit="10" d="
		M497.7,828.2c1.9,3.3-1.7,18.2-7.3,26.5c15.2,4.8,28.5,11.2,43.7,11"/>
	<path fill="none" stroke="#000000" stroke-width="5" stroke-linecap="round" stroke-linejoin="round" stroke-miterlimit="10" d="
		M513.4,872.5c-11.5-14.7,41.5-15.3,54.8-13.8"/>
	<path fill="none" stroke="#000000" stroke-width="5" stroke-linecap="round" stroke-linejoin="round" stroke-miterlimit="10" d="
		M573.7,847.1c3.8,3.3,7.7,8.1,7.7,13.1"/>
	<path fill="none" stroke="#000000" stroke-width="5" stroke-linecap="round" stroke-linejoin="round" stroke-miterlimit="10" d="
		M573.7,847.1c0.1,9.9-7.4,14.9-18.8,15.1"/>
	<path fill="none" stroke="#000000" stroke-width="5" stroke-linecap="round" stroke-linejoin="round" stroke-miterlimit="10" d="
		M509.5,867.6c-1.9,1.7-13.1,16.6-12.9,26.5"/>
	<path fill="none" stroke="#000000" stroke-width="5" stroke-linecap="round" stroke-linejoin="round" stroke-miterlimit="10" d="
		M498.5,892.5c7.4-14.9,52.8-23.7,64.3-5.7"/>
	<path fill="none" stroke="#000000" stroke-width="5" stroke-linecap="round" stroke-linejoin="round" stroke-miterlimit="10" d="
		M494.7,890.9c-1.8,5-5.3,31.4-1.4,41.2"/>
	<path fill="none" stroke="#000000" stroke-width="5" stroke-linecap="round" stroke-linejoin="round" stroke-miterlimit="10" d="
		M493.2,930.5c23,19.5,72.1,12.3,90.8-7.7"/>
	<path fill="none" stroke="#000000" stroke-width="5" stroke-linecap="round" stroke-linejoin="round" stroke-miterlimit="10" d="
		M560.9,883.5c3.8,0,9.5,3.2,15.2,4.8c0.1,11.5,2.2,23.1,4.2,34.6"/>
	<path fill="none" stroke="#000000" stroke-width="5" stroke-linecap="round" stroke-linejoin="round" stroke-miterlimit="10" d="
		M498.8,922.2c9.8,24.6,62.6,12.4,77.6-5.9"/>
	<path fill="none" stroke="#000000" stroke-width="5" stroke-linecap="round" stroke-linejoin="round" stroke-miterlimit="10" d="
		M577.7,865.2c0-1.6-2-6.6,1.9-3.3c0.2,14.8,2.2,28,6.2,41.1"/>
	<path fill="none" stroke="#000000" stroke-width="5" stroke-linecap="round" stroke-linejoin="round" stroke-miterlimit="10" d="
		M496.2,864.5c-3.7,3.3-3.6,14.9,0.3,23.1"/>
	<path fill="none" stroke="#000000" stroke-width="5" stroke-linecap="round" stroke-linejoin="round" stroke-miterlimit="10" d="
		M406.2,593.1c-6.2,30-8.7,61.9-20.6,91.5"/>
	<path fill="none" stroke="#000000" stroke-width="5" stroke-linecap="round" stroke-linejoin="round" stroke-miterlimit="10" d="
		M385.9,681.3c1,11.7,5.8,22,10.7,32.3"/>
	<path fill="none" stroke="#000000" stroke-width="5" stroke-linecap="round" stroke-linejoin="round" stroke-miterlimit="10" d="
		M386.6,696.3c-0.1,1.6,1,11.7,2.5,16.7"/>
	<path fill="none" stroke="#000000" stroke-width="5" stroke-linecap="round" stroke-linejoin="round" stroke-miterlimit="10" d="
		M473.9,602.4c-6.3,30.9-4,74.1-19.4,101"/>
	<path fill="none" stroke="#000000" stroke-width="5" stroke-linecap="round" stroke-linejoin="round" stroke-miterlimit="10" d="
		M454.5,701.7c-2,1.5-19.8,10-27.7,14.3"/>
	<path fill="none" stroke="#000000" stroke-width="5" stroke-linecap="round" stroke-linejoin="round" stroke-miterlimit="10" d="
		M442.7,707.4c11.1,4.2,4.6,13.6-10.9,17.3"/>
	<path fill="none" stroke="#000000" stroke-width="5" stroke-linecap="round" stroke-linejoin="round" stroke-miterlimit="10" d="
		M387.4,709.6c-13.6,3.9-4.1,27.8,2.4,41.5"/>
	<path fill="none" stroke="#000000" stroke-width="5" stroke-linecap="round" stroke-linejoin="round" stroke-miterlimit="10" d="
		M443.1,725.6c-2.7-13.4,1.4,6.7,1.4,6.7c-2.7,9.7-7.1,17.6-19,23.3"/>
	<path fill="none" stroke="#000000" stroke-width="5" stroke-linecap="round" stroke-linejoin="round" stroke-miterlimit="10" d="
		M438.5,759.9c-17-1.4-43.5-1.8-59.6-14.7"/>
	<path fill="none" stroke="#000000" stroke-width="5" stroke-linecap="round" stroke-linejoin="round" stroke-miterlimit="10" d="
		M433.8,748c-9.3-2.4,5.4,3.7,7.3,3.9c-2.3,4.8-8.1,6-14,8.8"/>
	<path fill="none" stroke="#000000" stroke-width="5" stroke-linecap="round" stroke-linejoin="round" stroke-miterlimit="10" d="
		M379.1,742c1.9,0.1,4-3,3.6,1.9c-1.9-0.1-3.9,1.3-5.8,1.2c-15.7,30.2,29.7,56.9,44.4,86.2"/>
	<path fill="none" stroke="#000000" stroke-width="5" stroke-linecap="round" stroke-linejoin="round" stroke-miterlimit="10" d="
		M442.4,758.6c-3.9,24.5-5.8,49.1-9.7,73.6c-3.8-0.3-9.4-0.8-13.2-1.1"/>
	<path fill="none" stroke="#000000" stroke-width="5" stroke-linecap="round" stroke-linejoin="round" stroke-miterlimit="10" d="
		M376.8,771.6c0.1-1.6-5.2,17.8-5.5,21.1c2.5,16.7,13.5,20.9,23.9,33.3"/>
	<path fill="none" stroke="#000000" stroke-width="5" stroke-linecap="round" stroke-linejoin="round" stroke-miterlimit="10" d="
		M374.3,802.8c-0.5,6.6-8,29.1-12.7,40.3"/>
	<path fill="none" stroke="#000000" stroke-width="5" stroke-linecap="round" stroke-linejoin="round" stroke-miterlimit="10" d="
		M434.5,834c-2.1,3.1,0.4,18.2,5.5,26.9c-15.5,3.7-29.2,9.2-44.3,8"/>
	<path fill="none" stroke="#000000" stroke-width="5" stroke-linecap="round" stroke-linejoin="round" stroke-miterlimit="10" d="
		M415.9,877.2c12.5-13.9-40.4-18.1-53.7-17.5"/>
	<path fill="none" stroke="#000000" stroke-width="5" stroke-linecap="round" stroke-linejoin="round" stroke-miterlimit="10" d="
		M357.4,847.7c-4,3-8.2,7.6-8.6,12.5"/>
	<path fill="none" stroke="#000000" stroke-width="5" stroke-linecap="round" stroke-linejoin="round" stroke-miterlimit="10" d="
		M357.4,847.7c-0.8,9.9,6.4,15.4,17.7,16.3"/>
	<path fill="none" stroke="#000000" stroke-width="5" stroke-linecap="round" stroke-linejoin="round" stroke-miterlimit="10" d="
		M420,872.6c1.8,1.8,11.9,17.5,11.1,27.3"/>
	<path fill="none" stroke="#000000" stroke-width="5" stroke-linecap="round" stroke-linejoin="round" stroke-miterlimit="10" d="
		M429.4,898.1c-6.4-15.4-51-27.2-63.8-10"/>
	<path fill="none" stroke="#000000" stroke-width="5" stroke-linecap="round" stroke-linejoin="round" stroke-miterlimit="10" d="
		M433.3,896.8c1.5,5.1,3.2,31.7-1.4,41.2"/>
	<path fill="none" stroke="#000000" stroke-width="5" stroke-linecap="round" stroke-linejoin="round" stroke-miterlimit="10" d="
		M432,936.3c-24.2,17.9-72.8,7.4-90.1-13.8"/>
	<path fill="none" stroke="#000000" stroke-width="5" stroke-linecap="round" stroke-linejoin="round" stroke-miterlimit="10" d="
		M367.8,884.9c-3.8-0.3-9.7,2.5-15.5,3.7c-0.9,11.5-3.7,22.8-6.5,34.2"/>
	<path fill="none" stroke="#000000" stroke-width="5" stroke-linecap="round" stroke-linejoin="round" stroke-miterlimit="10" d="
		M427,927.7c-11.4,23.9-63.3,8.2-77-11.1"/>
	<path fill="none" stroke="#000000" stroke-width="5" stroke-linecap="round" stroke-linejoin="round" stroke-miterlimit="10" d="
		M352.2,865.5c0.1-1.6,2.4-6.4-1.6-3.4c-1.2,14.8-4.1,27.8-8.9,40.6"/>
	<path fill="none" stroke="#000000" stroke-width="5" stroke-linecap="round" stroke-linejoin="round" stroke-miterlimit="10" d="
		M433.5,870.3c3.5,3.6,2.6,15.1-1.8,23"/>
	<path fill="none" stroke="#000000" stroke-width="5" stroke-linecap="round" stroke-linejoin="round" stroke-miterlimit="10" d="
		M402.7,466.4c3.9,7.5,2.4,41.6,2.6,58.7"/>
	<path fill="none" stroke="#000000" stroke-width="5" stroke-linecap="round" stroke-linejoin="round" stroke-miterlimit="10" d="
		M332.5,455.9c0.4,36,20,92.6,46.8,116.9"/>
	<path fill="none" stroke="#000000" stroke-width="5" stroke-linecap="round" stroke-linejoin="round" stroke-miterlimit="10" d="
		M379.3,572.7c5.5-13.3,24.2-34.4,25.9-53.3"/>
	<path fill="none" stroke="#000000" stroke-width="5" stroke-linecap="round" stroke-linejoin="round" stroke-miterlimit="10" d="
		M407.1,517.5c0,1.9,0.1,5.7,0.1,7.6"/>
	<path fill="none" stroke="#000000" stroke-width="5" stroke-linecap="round" stroke-linejoin="round" stroke-miterlimit="10" d="
		M383.1,570.8c0,3.8,2.1,13.2,2.1,18.9c3.8,0,9.5,1.8,15.2,1.7"/>
	<path fill="none" stroke="#000000" stroke-width="5" stroke-linecap="round" stroke-linejoin="round" stroke-miterlimit="10" d="
		M403.4,528.9c1.9,1.9,5.7,3.7,9.5,3.7"/>
</g>
</svg>
