<?xml version="1.0" encoding="utf-8"?>
<!-- Generator: Adobe Illustrator 24.3.0, SVG Export Plug-In . SVG Version: 6.00 Build 0)  -->
<svg isCommex="true" version="1.1" id="Layer_2_1_" xmlns="http://www.w3.org/2000/svg" xmlns:xlink="http://www.w3.org/1999/xlink" x="0px" y="0px"
	 width="684.6px" height="1077px" viewBox="0 0 684.6 1077" enable-background="new 0 0 684.6 1077" xml:space="preserve">
<g id="vs-hair">
	<path fill="#808080" d="M539.7,114L539.7,114c-1.7-11.2-11.1-19.5-19.1-25.5c-0.3-0.2-0.7-0.5-1-0.8c-0.2-0.2-0.4-0.3-0.5-0.5
		c-0.5-0.4-0.8-1-0.8-1.5l-0.2-2c-1.5-11.2-2.3-17.3-12-22.5c-10.9-5.9-25.3-7.7-25.4-7.7c-0.7-0.1-1.5-0.6-1.8-1.3
		c-1.3-2.5-6.4-10.2-11.8-13c-10.1-4.7-19.8-3.5-24.6-2.4c-4.7,1-6.6,0.4-8.8-1.3l-0.1-0.1c-0.8-0.6-1.5-1.1-3.1-1.4
		c-3.1-0.7-11.6,2.1-20.7,5.3l-0.7,0.2c-1,0.3-1.9,0.7-2.8,1c-2.1,0.7-3.9,1.3-5.3,1.7c-5.3,1.5-8.2,0.9-10.7,0.5
		c-1.7-0.3-3.2-0.5-5.5-0.5c-6.1,0-13.3,8.4-18.3,15.4c-4.4,6.4-8.2,7.5-12.2,8.7l-0.7,0.2c-2.1,0.6-4.3,1.3-7.1,2.9
		c-6.9,3.9-7.3,9.7-7.2,18.8v1.7c0,6-1.3,8-3.3,10.7l-0.4,0.5c-0.8,1.2-1.7,2.5-2.7,4.6c-2,4.3-0.2,8.4,1.5,12.4
		c0.1,0.2,0.2,0.3,0.2,0.5c0.1,0.2,0.2,0.4,0.3,0.6l1.9,3.8v-4.3c2.2-19.6,11.1-30.9,11.2-31c0.3-0.4,0.7-0.7,1-0.8l0,0
		c1.9-0.6,11.2-4.8,16.6-10.8c1.1-1.2,2.2-2.4,3.3-3.8l0.1-0.1c4.3-5.1,6.8-7.7,11.4-5.9c0.9,0.3,1.7,0.8,2.6,1.3
		c0.3,0.2,0.7,0.4,1,0.5c3.4,2,7.2,4.3,12.5,1.7c2.3-1.1,4.3-2.3,6-3.5c5.2-3.4,9.5-5.5,13.8,0.3c1.1,1.4,2.2,3.1,3.2,4.9
		c2.9,4.8,5.3,8.7,9.6,8.8c6.6,0.1,10.4-2,10.6-2.2c1.1-0.7,2.6-0.4,3.4,0.7c0.4,0.5,7.9,11.1,11.1,16.4c2.7,4.5,6.1,10.2,9.4,11.4
		c3.8,1.4,7.5,2,7.7,2.1c1.3,0.2,2.2,1.4,2.1,2.7c-0.5,5.7,0.1,16,3.8,19.6c6.2,6,6.7,9.9,6.7,11c0,0.3-0.1,0.6-0.2,0.9
		c-1.9,5.3-5.2,16.4-4,21.2c1.3,5,2.8,7.5,3.5,8.2c0.6,0.5,0.8,1.2,0.8,2c0,0.9-0.7,1.5-1.1,1.7c-1,0.6-3.6,3.3-2.2,7.7
		c1.1,3.2,3.9,4.5,5.5,4.9l0.7,0.2l0.4-0.7c3.9-6.6,12.7-17.6,27.8-18c4.4-0.1,8.4,0.3,11.9,1.3l0.6,0.2l0.4-0.4
		c0.1-0.1,0.1-0.1,0.2-0.2l0.1-0.1c11.9-9.4,10.2-19,8.5-29.2c-0.3-1.3-0.5-2.5-0.7-4c-0.8-5.7,0.6-8.6,2-11.5l0.1-0.3
		C539.4,123.1,540.7,120.4,539.7,114z"/>
</g>
<g>
	<path fill="#5A77BA" d="M470.3,893.9l-0.7-0.1c-2-0.4-3.9-0.8-5.8-1.5l-1.7-0.6l0.3,1.7c1.3,6.6,3.8,23.6-1.8,38.8
		c-3.7,10.1-10.1,16.9-15.3,22.5l-2,2.2l2.9-0.5c2.5-0.4,5.2-0.6,8-0.5l0.4,0l0.4-0.4c0.1-0.1,10.6-14.3,13.9-27.8
		c2.9-12,1.6-29.6,1.3-33L470.3,893.9z"/>
	<path fill="#5A77BA" d="M514.1,931.3c8.9-13.2,9.6-26.1,9.6-29.8v-0.7l-0.7-0.2c-4.2-1.4-7.3-3.1-9.1-5.1l-0.1-0.1
		c-0.4-0.4-0.6-0.9-0.7-1.3l-0.2-1.2l-1.1,0.4c-3,1-7.5,1.7-13.3,2.2l-0.9,0.1l0,0.9c0.1,8.2-0.2,28.7-5.4,41.4
		c-5.1,12.7-10.8,22.1-13.7,26.5c0,0,0,0.1-0.1,0.1c-0.2,0.2-0.4,0.5-0.4,0.8v0.4l0.3,0.3c1.9,1.8,3.6,3.6,4.7,5.2l0.9,1.2l0.8-1.2
		c1.6-2.5,3.3-4.9,5-7.3c3.4-4.8,7.2-9.8,11-14.6C505.4,943.3,510.3,936.9,514.1,931.3z"/>
	<path fill="#5A77BA" d="M532.8,902.7l-0.9-0.1c-0.3,0-0.7-0.1-1-0.2c-0.4-0.1-0.7-0.2-1.1-0.2l-1.1-0.2l-0.1,1.1
		c-0.3,6.2-2.1,18.4-10.4,31.1c-3.4,5-7.8,10.8-13.7,18.4c-1.2,1.5-2.4,3.1-3.6,4.7c-1.2,1.6-2.5,3.2-3.7,4.8l-1.4,1.7l2.2-0.1
		c1.4-0.1,3,0,5.2,0.2l1.1,0.1v-0.7c2.3-2.2,16.3-16.3,22.5-35.2c3.3-10.2,5.3-18.4,5.8-24.4L532.8,902.7z"/>
	<path fill="#5A77BA" d="M611.4,915.6l0.4-0.5l-0.2-0.5c-2.2-5.4-4.3-10.7-5.6-16.6l-0.1-0.5l-0.5-0.2c-1.8-0.7-5.4-1.8-9.1-2.6
		l-0.3-0.1l-0.3,0.1c-8.7,3.5-18.1,6.1-28.1,7.5l-0.7,0.1l-0.1,0.7c-1,4.8-5.1,21.9-14.9,40.3c-9.9,18.6-20.2,29.6-23.1,32.5
		l-0.7,0.7l0.6,0.7c5.7,6.3,8.2,12.2,9.2,15.2l0.4,1.2l1.1-0.7c5.9-3.9,11-9.5,17.1-16.4c12.1-13.9,24-26.9,35.8-33.7
		c10.7-6.3,21.3-16.5,19.2-26.5C611.3,915.9,611.3,915.8,611.4,915.6z"/>
</g>
<g id="vs-secondary">
	<path fill="#6495FB" d="M481.2,801.7L481.2,801.7c-16-39.5-51-107.7-56-117l-0.7-1.3l-7.5,9.1c-0.3,0.3-0.7,0.5-1.1,0.5
		c-0.4,0-0.6-0.1-0.9-0.3c-0.6-0.5-0.8-1.4-0.2-2.1l7.6-9.1l-0.9-0.6c-4.4-3.1-12.7-7.3-20.6-10.5c-1.3-0.6-1.9-2-1.4-3.3
		c0.6-1.3,2-1.9,3.3-1.4l0.5,0.2c0.6,0.3,1.3,0.6,2.1,0.9l2.5,1l-1.2-2.4c-8.2-16.3-16.5-42.9-17.4-45.8l-0.2-0.6l-0.7-0.1
		c-15.5-1.4-29.4-3.8-41.1-7.1l-1.9-0.5l0.7,1.9c2.1,5.2,12.9,32.3,23.9,56.2c11.1,23.8,27.7,72.6,39.9,108.3
		c2.9,8.7,5.7,16.9,8.4,24.6c14.3,41.7,25.4,72,37.6,81.3c1.2,0.9,2.8,1.8,4.6,2.5c8.3,3.6,20.9,4.8,30.8,4.8c1.7,0,3.3,0,4.8-0.1
		c6.9-0.3,12.3-1.2,15.1-2.4l0.8-0.3l-0.2-0.8C507.8,871.8,495.2,836.7,481.2,801.7z"/>
	<path fill="#6495FB" d="M412.5,669.6v0.4l0.6,0.3c2.7,1.3,5.5,2.9,8.3,4.6l2.2,1.3l-0.8-2.5c-5.7-18.8-8.8-49.1-9.2-52.5l-0.1-0.9
		l-0.9,0c-7.3-0.2-13.4-0.5-18.9-1l-1.5-0.1l0.4,1.4C394.5,626.5,404,656.3,412.5,669.6z"/>
	<path fill="#6495FB" d="M621.1,870.2c-1.4-19.5-7.3-43.4-13-66.5l-0.4-1.8c-5-20.6-10.3-41.8-13.8-63.6
		c-2.8-17.6-6.4-40.9-8.3-51.7c-0.1-0.5-0.1-0.7-0.1-0.7l0-0.1c-0.1-0.6-0.1-1.2,0.1-1.6c0.3-0.6,25.7-61.8,19.3-110.5l-0.3-2
		l-1.4,1.5c-8,8.1-40.9,35.4-130.3,44.6c-17,1.7-33.7,2.6-49.7,2.6h-6.7l0.1,1.1c0.4,4.2,4.3,41.4,11.2,57.7l0.1,0.2
		c0.1,0.2,0.1,0.2,0.1,0.3v0.4l0.3,0.3c0.5,0.5,0.9,1.1,1.2,1.7c4.8,9.1,40.4,78.4,56.3,117.9c14.3,35.6,30.4,80,32.1,92.4l0.1,0.4
		l0.3,0.2c2,1.4,4.9,2.6,8.8,3.7c5.9,1.4,13.1,2.2,20.6,2.2c2.4,0,4.8-0.1,7.3-0.2c3.2-0.2,6.5-0.6,9.9-1c15.3-2,29.2-6.6,40.1-13.1
		c6.4-3.7,11.8-8.2,16.1-13.4l0.3-0.3L621.1,870.2z M467.5,635c0.1-0.6,0.5-1.2,1.1-1.6c0.5-0.4,1.2-0.5,1.8-0.4
		c0.6,0.1,1.2,0.5,1.6,1.1l0.1,0.1c0.7,1,8.4,13,14.2,23.6c2.8,5.1,9.1,9.4,16.4,11.3c8.7,2.2,18,0.9,26.1-3.5
		c0.6-0.3,1.3-0.4,2-0.2c0.7,0.2,1.2,0.6,1.5,1.2c0.3,0.6,0.4,1.3,0.2,2c-0.2,0.7-0.6,1.2-1.2,1.5l0,0c-6.1,3.4-12.9,5.2-19.8,5.2
		c-3.6,0-6.8-0.4-10-1.3c-8.8-2.2-16.1-7.3-19.6-13.7c-5.3-9.7-13-22-14.1-23.5l0,0C467.5,636.3,467.4,635.6,467.5,635z"/>
</g>
<g id="vs-primary">
	<path fill="#97C3FB" d="M594.1,518.8c-5.4-17.3-11.1-31.4-15.2-37.7l-1.2-1.7l-0.6,2c-4.7,14.7-9.3,24.1-9.4,24.2
		c-0.4,0.9-1.3,1.4-2.3,1.4c-0.3,0-0.7-0.1-1.1-0.3c-1.2-0.7-1.7-2.2-1.1-3.3c0.1-0.1,5.6-11.6,10.7-28.7
		c4.4-14.9,9.4-37.4,7.9-59.8c-2.9-43.3-37.5-76.9-43.9-79c-2.8-1-7.2-1.6-12.7-1.8c-17.9-0.6-47.8,3.1-86.2,10.7
		c-16.3,3.3-29,6.1-38.9,8.6l-1.7,0.4l1.2,1.2c6,6,16.4,20.4,18.8,50.1c2.6,30.8-3.7,46.6-7.7,53.2L410,460l1.8,0
		c64.9-0.1,112.9-13.1,113.3-13.2c0.7-0.2,1.3-0.1,1.9,0.2c0.6,0.3,1,0.9,1.2,1.5c0.2,0.7,0.1,1.3-0.2,1.9c-0.3,0.6-0.9,1-1.6,1.2
		c-0.6,0.2-65.1,17.9-146.1,12.4c-0.8-0.1-1.5-0.5-1.9-1.1c-0.4-0.7-0.6-1.5-0.4-2.2l0.1-0.2v-0.1c0-0.1,0.1-0.3,0.1-0.5v-1.1
		l-1.1,0.1c-5.3,0.3-13.8,0.4-24.4-1.2c-5.3-0.8-9.4-1.3-13.3-1.6l-0.8-0.1l-0.2,0.8c-0.2,0.7-0.4,1.7-0.7,2.8
		c-1.9,7.4-5.9,22.9-11.4,47c-8.2,35.8-8.6,79.8-0.8,90.6l0.1,0.1l0.2,0.1c4.1,2.7,10.3,5.4,17.7,7.8c12.4,3.9,28.5,6.9,46.5,8.5
		c8.1,0.7,16.6,1.2,25.1,1.4c3,0.1,6.1,0.1,9.2,0.1c15.4,0,31.6-0.9,48.3-2.6c33.5-3.5,63.8-10.3,87.8-19.7
		c21-8.2,36.3-18.2,43.3-28.1l0.2-0.2l0-0.3C604.3,557.4,600.4,539,594.1,518.8z"/>
</g>
<g id="vs-skin">
	<path fill="#D3A37F" d="M365.4,366.8l-0.8,0.3c-9.8,4.1-28.9,11.7-47.4,16c-1.3,0.4-2.6,0.6-4.4,1c-7.4,1.5-16.7,2.9-25.6,4.1
		c-8.5,1.1-17.6,2.2-26.3,3.3l-0.2,0c-15.5,1.9-30.1,3.7-41.6,5.7c-0.6,0.1-1.2,0.2-1.7,0.3c-0.6,0.1-1.2,0.2-1.8,0.3
		c-25,4.7-48.1,12.8-51.2,14.6l-0.2,0.1c-1.3,1.1-6.9,7.8-16.1,18.6c-1.8,2.2-3.7,4.4-5.5,6.6c-3.2,3.7-6.5,7.7-10,11.7
		c-3.6,4.3-7.3,8.6-10.9,12.9c-7.4,8.6-13.8,14.6-19.6,20c-8.3,7.8-12.1,11.4-11.1,16.2c1.2,5.4,5.9,12.6,12.7,16
		c2.7,1.3,5.5,2,8.4,2c3.1,0,6.2-0.8,9.4-2.3c14.9-7.1,19.9-19.3,23.2-27.4l0.1-0.1c0.5-1.3,1-2.5,1.5-3.6c0.8-2,1.6-3.9,2.3-5.8
		c3.5-9.2,6.6-16.2,12.2-15.4c3,0.4,5.8,4.4,11.9,13.2l0.1,0.2c7,10.1,16.7,24,24.4,25.2c0.7,0.1,1.4,0.2,2.1,0.2
		c13.1,0,32.5-16.5,34.5-21.7c0.6-1.6,1-3.6,1.3-5.5l0.6-3.6l-2.3,2.8c-3.5,4.2-7.1,6.8-9.1,8.2l-0.4,0.3c-0.1,0.1-0.2,0.1-0.3,0.2
		c-0.2,0.1-0.3,0.2-0.5,0.4c-0.4,0.4-1,0.6-1.6,0.6c-0.5,0-1.2-0.1-1.8-0.7c-0.5-0.5-0.8-1.1-0.8-1.8s0.3-1.3,0.8-1.8l0.1-0.1
		c0.1-0.2,0.3-0.3,0.7-0.5c0.2-0.1,0.3-0.2,0.5-0.4l0.1-0.1c2.3-1.6,7.8-5.5,11.8-12.4c0.7-1.1,1.2-2.2,1.8-3.2
		c0.2-0.4,0.4-0.7,0.6-1.1c2.6-5.2,4.1-9.2,4.4-10.4l0,0c0.4-1.3,1.6-2,2.9-1.7l0,0c2.2,0.4,28.8,4.8,58,3.7l1.8-0.1
		c17.4-0.7,26-1,34-0.6c5.2,0.2,10.1,0.8,16.9,1.8c12.9,1.9,22.2,1.3,25.5,1l0.7-0.1l0.1-0.7c6-29.2,1.1-63.2-7-75.4L365.4,366.8z
		 M107.7,482.3c0.1,0,0.2,0,0.3,0l0.3,0.1l0.3-0.1c0.4-0.1,0.9,0.1,1.1,0.2c10.3,7.6,12.4,11.2,12.4,12.9c-0.1,2.3-3.4,6.1-8.7,10
		c-0.4,0.2-0.7,0.4-1,0.4c-0.3,0-0.7-0.1-0.9-0.3c-14.3-11.3-14.2-12.6-14-13.5c0.1-0.5,0.2-2,9.3-9.4
		C107.1,482.4,107.4,482.3,107.7,482.3z"/>
	<path fill="#D3A37F" d="M527.8,177.3c-3.5-1.3-7.7-1.9-12.8-1.8c-16,0.4-23.7,15.6-24.5,17.4c-0.4,1-1.3,1.5-2.3,1.5h-0.1
		c-0.1,0-9.6-0.3-12.4-8.8c-1.9-5.6,0.6-9.7,1.8-11.1l0.4-0.5l-0.3-0.6c-1.2-2.2-2.2-4.7-2.9-7.8c-1.7-6.9,2.5-19.7,3.9-23.4
		l0.1-0.4l-0.1-0.4c-0.8-2-2.5-4.3-5-6.7c-5-4.8-5.6-15-5.5-20.7l0-0.8l-0.8-0.2c-1.6-0.4-3.5-0.9-5.6-1.7
		c-4.4-1.6-7.6-6.4-11.9-13.6c-2.3-3.9-7.1-10.7-9.2-13.8l-0.4-0.6l-0.7,0.2c-3.3,1.1-6.9,1.6-10.5,1.5c-7.1-0.3-10.6-6.1-13.8-11.2
		c-0.3-0.4-0.5-0.8-0.8-1.2c-0.7-1.2-1.4-2.3-2.2-3.4c-1.8-2.4-2.7-1.8-7,1l-0.8,0.5c-1.7,1-3.6,2.2-5.7,3.3
		c-7.7,3.7-13.4,0.3-17.2-2c-1.2-0.7-2-1.2-2.7-1.5c-1.5-0.6-2.2,0.2-5.9,4.5c-0.7,0.8-1.5,1.7-2.4,2.7l-1,1.2
		c-5.5,6.2-14,10.3-17.5,11.7l-0.3,0.1l-0.2,0.2c-1.3,1.9-8,12.2-9.7,27.8c-0.8,6.5-0.3,12.8,0.2,17.4c0.4,3.3,0.9,6.4,1.4,9.5
		c0.1,0.9,0.3,1.7,0.4,2.6l0.2,1c1,6.5,2,12.6,1.7,18c-0.3,5.7-1.4,10-3.1,13l-0.8,1.4l1.6,0.1c0.8,0.1,1.4,0.1,1.8,0.1
		c0.4,0,0.6,0.1,0.6,0c0.7,0.1,1.3,0.4,1.8,0.9c0.4,0.5,0.6,1.1,0.5,1.8c-0.1,0.7-0.4,1.3-0.9,1.8c-0.5,0.4-1.1,0.6-1.8,0.5l-0.1,0
		c-4.6-0.3-20.6-1.1-34.1,3.1l-0.2,0.1c-10.8,5.9-16.7,21.5-14.3,38.1c2.8,18.7,14.3,31.8,30.9,35c3.1,0.6,6,0.9,8.8,0.9
		c30.9,0,43.5-34.6,43.7-35c0.2-0.6,0.7-1.2,1.3-1.4c0.6-0.3,1.3-0.3,1.9-0.1c0.6,0.2,1.2,0.7,1.4,1.3c0.3,0.6,0.3,1.3,0.1,1.9
		l0,0.1c-1.1,2.8-5.2,12.5-13.3,21.6c-5.4,6.1-11.5,10.6-18.1,13.3l-1,0.4l0.5,1c0.2,0.4,0.3,0.7,0.3,1c1,24.4,11.3,46.3,19.6,60.5
		c7.9,13.4,15.1,21.6,15.2,21.7l0.1,0.1l0,0c0,0,0,0.1,0,0.1l0.4,0.8l0.8-0.3c1-0.3,2-0.6,3.1-0.9c0.6-0.2,1.3-0.3,2-0.5
		c11.4-3.1,26.1-6.4,43.6-9.9c35.5-7.1,64.2-10.9,83.2-10.9c0.2,0,0.5,0,0.7,0l1,0l0-1c0.6-13.4-2.8-44-6.1-54.5
		c-2.9-9.5-3.5-18.4-3.6-21.8l0-0.9l-0.9,0c-5.9-0.2-11.8-2.4-17-6.4c-0.5-0.4-0.9-1-0.9-1.7c-0.1-0.7,0.1-1.3,0.5-1.8
		c0.9-1.1,2.4-1.3,3.5-0.4c5.3,4,11.1,5.8,17.3,5.3c4.5-0.3,8.2-2,10-2.9c12.2-6.2,20.5-20.3,20.1-34.1v0
		C545.2,191.2,539.3,180.9,527.8,177.3z M502.1,221.3L502.1,221.3c-0.3,0.9-1.1,1.5-1.9,1.5c-0.2,0-0.3,0-0.5-0.1
		c-1.1-0.3-1.7-1.4-1.4-2.4l0-0.1c1.2-3.7,7.9-22.2,24.9-25.6c0.1,0,0.2,0,0.4,0c0.9,0,1.8,0.7,2,1.6c0.2,1.1-0.5,2.1-1.6,2.3l0,0
		C509.2,201.5,502.7,218.6,502.1,221.3z M385.7,324.2c0.2-0.5,0.6-0.9,1.1-1.1c5.2-2,11.5-2.6,18.9-1.7l0.7,0.1l0.3-0.6
		c1.3-2.5,6.8-11.1,20.4-14.6l0.8-0.2l-0.1-0.9c-0.8-7.2-4.8-12.5-6-14l-0.3-0.4l-0.5,0c-9.8,0.3-19.8,0.3-24-2.4
		c-6.7-4.2-7.6-13.1-7.1-19.9l0.1-1.5l-1.4,0.5c-11.7,4-20,7.8-20,7.8c-0.5,0.2-1,0.3-1.6,0.1c-0.5-0.2-0.9-0.5-1.1-1
		c-0.2-0.5-0.2-1,0-1.5c0.2-0.5,0.6-0.9,1.1-1.2c0.7-0.4,10.9-5.1,24.4-9.3c19.7-6.1,35.8-7.7,46.3-4.7c14,4,22.2,15.4,24.4,33.9
		c1,8.4,0.4,16-0.1,19.9c-0.3,2-0.7,4-1.3,6c-1.6,4.3-4.4,8-8.1,10.6c-5.3,3.7-12,5.1-18.7,3.6c-2.3-0.5-5-1.1-8.1-2
		c-5.7-1.5-11.7-3.1-17.6-3.9c-3.4-0.5-6.4-0.7-9.1-0.7c-4.2,0-7.7,0.6-10.6,1.8c-0.5,0.2-1,0.2-1.5-0.1c-0.5-0.2-0.9-0.6-1.1-1.1
		C385.5,325.3,385.5,324.7,385.7,324.2z M370.6,173.2c0.1,0.6,0.3,1.1,0.5,1.6l0.1,0.4c0.5,1.7,1,3.3,0,4.6
		c-0.4,0.5-1.1,1.1-2.5,1.1h-0.6c-4.7-0.6-4.8-7.8-4.7-11l0-0.7l-0.6-0.3c-7.4-3.5-10-7.3-10-7.4c-0.3-0.5-0.5-1.1-0.4-1.6
		c0.1-0.5,0.4-0.9,0.8-1.2c1-0.6,2.2-0.4,2.9,0.5l0.1,0.1c0.8,0.9,3.8,4.1,10.2,6.7c1.8,0.8,3.9,1.4,5.7,1.9l1.7,0.5l-0.5-1.7
		c-1.4-4.9-2-12-1.7-19.9c0-0.2,0-0.4,0-0.4c0.1-1.1,1-1.9,2.1-1.9c1,0.1,1.9,1.1,1.9,2.1c-0.3,3.8-0.4,16.1,2.6,22.2l0.2,0.5
		l0.5,0.1c1.3,0.2,2.9,0.4,4.6,0.5c2.2,0.2,4.5,0.3,6.7,0.3c16.3,0,28.6-4.9,30.7-5.9l0,0c0.5-0.2,1-0.3,1.6-0.1
		c0.5,0.2,0.9,0.5,1.1,1c0.2,0.5,0.3,1,0.1,1.6c-0.2,0.5-0.5,0.9-1,1.1l-0.1,0.1c-3.3,1.4-12.5,4.9-25.2,5.8l-1,0.1l0.1,1
		c0.4,4-0.1,6.6-1.4,7.9c-0.6,0.6-1.3,0.9-2.2,0.9c-0.4,0-0.5,0-0.7,0l-0.1,0c-3.4-0.7-4-5.1-3.9-8.6l0-1h-1c-1.2,0-2.6-0.1-3.8-0.2
		c-4-0.3-7.9-0.9-11.6-1.9l-1.5-0.4L370.6,173.2z"/>
</g>
<path fill="none" stroke="#000000" stroke-width="6" stroke-linecap="round" stroke-linejoin="round" stroke-miterlimit="10" d="
	M373.9,146.6c0,0-0.9,15.9,3,23.5"/>
<path fill="none" stroke="#000000" stroke-width="6" stroke-linecap="round" stroke-linejoin="round" stroke-miterlimit="10" d="
	M354.6,160.4c0,0,6.9,9.7,29,11.6c22.1,1.8,38.4-5.8,38.4-5.8"/>
<path fill="none" stroke="#000000" stroke-width="6" stroke-linecap="round" stroke-linejoin="round" stroke-miterlimit="10" d="
	M365.7,168.3c0,0-1,10,2.8,10.4s-1.1-4.8,0-8.7"/>
<path fill="none" stroke="#000000" stroke-width="6" stroke-linecap="round" stroke-linejoin="round" stroke-miterlimit="10" d="
	M390.5,172.9c0,0-1.1,8.3,2.2,8.9c3.3,0.7,1.7-8.2,1.7-8.2"/>
<path fill="none" stroke="#000000" stroke-width="6" stroke-linecap="round" stroke-linejoin="round" stroke-miterlimit="10" d="
	M500.1,220.9c0,0,6-20.9,23.4-24.3"/>
<path fill="none" stroke="#000000" stroke-width="6" stroke-linecap="round" stroke-linejoin="round" stroke-miterlimit="10" d="
	M367.8,273.6c0,0,45-20.9,69.5-13.9c24.5,7,24.5,37.8,22.8,51.5c-1.7,13.8-13.8,21.2-25.8,18.6c-12.1-2.6-32.7-10.2-46.6-4.7"/>
<path fill="none" stroke="#000000" stroke-width="6" stroke-linecap="round" stroke-linejoin="round" stroke-miterlimit="10" d="
	M392.4,265.2c0,0-3.1,16.2,5.7,21.7c8.9,5.5,50.5-2.1,61.1,5.1"/>
<path fill="none" stroke="#000000" stroke-width="6" stroke-linecap="round" stroke-linejoin="round" stroke-miterlimit="10" d="
	M422.8,289.3c0,0,7,7.5,7.2,17.7"/>
<path fill="none" stroke="#000000" stroke-width="6" stroke-linecap="round" stroke-linejoin="round" stroke-miterlimit="10" d="
	M408.4,322.2c0,0,6.3-13.7,27.4-15.1c21.2-1.5,21.9,9.6,21.9,9.6"/>
<path fill="none" stroke="#000000" stroke-width="7" stroke-linecap="round" stroke-linejoin="round" stroke-miterlimit="10" d="
	M386.1,352.1c0,0-33.5-38.1-35.3-83.7"/>
<path fill="none" stroke="#000000" stroke-width="7" stroke-linecap="round" stroke-linejoin="round" stroke-miterlimit="10" d="
	M382.6,230.1c0,0-15.8,43.6-55.3,35.8c-39.4-7.8-42.4-64.7-17-78c16.1-5,35.5-3.2,35.5-3.2"/>
<path fill="none" stroke="#000000" stroke-width="7" stroke-linecap="round" stroke-linejoin="round" stroke-miterlimit="10" d="
	M338.3,181.8c0,0,4.5-1.5,5.2-14.4c0.7-12.8-6-29.9-3.9-48.6S350.3,89,350.3,89s11-4.3,17.5-11.5s8.1-10.7,12.1-9.2
	s9.4,7.5,17.9,3.4s12.2-9.9,16.6-4c4.4,6,7.1,14.5,14.7,14.7c7.7,0.2,12-2.5,12-2.5s7.9,10.9,11.1,16.3s6.6,11,10.7,12.5
	s8.1,2.2,8.1,2.2s-1.4,15.9,4.6,21.7c6,5.7,6,9.2,6,9.2s-6,15.7-4.1,22.8c1.8,7.1,4.1,9.3,4.1,9.3s-5.5,3.7-3.2,10.5
	c2.3,6.9,10.1,7.1,10.1,7.1s8.1-18.5,26.7-18.9c18.6-0.5,32.4,8.9,33.1,36s-28.8,51.2-51.5,33.7"/>
<path fill="none" stroke="#000000" stroke-width="7" stroke-linecap="round" stroke-linejoin="round" stroke-miterlimit="10" d="
	M515.7,249.9c0,0-0.2,11.2,3.5,22.9c3.7,11.8,7.2,46,6.1,57.5"/>
<path fill="none" stroke="#000000" stroke-width="7" stroke-linecap="round" stroke-linejoin="round" stroke-miterlimit="10" d="
	M338.3,137c0,0-2.8-7.4-4-13s-6.7-12-3.3-19.5s6.2-6.3,6.2-14.8s-0.7-17.6,8.6-22.6s12.8-2.1,19.1-11s13.6-16.4,20.3-16.5
	s8.2,2.3,15.6,0.2c7.4-2.1,25-9.5,30.6-8.3c5.7,1.1,3.7,4.4,10.9,2.8c7.2-1.6,17-1.8,26.3,2.5c7.2,3.7,12.8,14.1,12.8,14.1
	s14.8,1.8,26.2,7.9c11.4,6.1,11.8,13.7,13.5,26.4c6.4,5.4,19,14.7,21.1,28.4c2.1,13.8-5.3,13-3.7,23.7c1.5,10.7,6.2,23.8-8.7,35.6"
	/>
<path fill="none" stroke="#000000" stroke-width="7" stroke-linecap="round" stroke-linejoin="round" stroke-miterlimit="10" d="
	M525.7,449.2c0,0-64.4,17.7-145.4,12.2c9.4-33.7,3.1-72.3-5.5-85.2c-8.6-12.8-8.6-12.8-8.6-12.8s1.3-6.8,72.3-21
	c71.1-14.2,92.9-11.2,100.2-8.9c7.3,2.3,42.6,36.5,45.6,81.2s-18.8,89.7-18.8,89.7"/>
<path fill="none" stroke="#000000" stroke-width="7" stroke-linecap="round" stroke-linejoin="round" stroke-miterlimit="10" d="
	M366.2,363.4c0,0-25.7,11.4-49.6,16.9c-23.8,5.5-70.5,9.3-98,14.1c-27.5,4.7-53.8,14.1-55.9,15.7c-2.1,1.7-23.4,27.4-43,50.3
	s-33.3,28.1-31.2,38.4c2.1,10.2,15.7,26.1,34.1,17.4c18.3-8.7,22.6-24.9,26-32.3s6.7-20.5,11.9-19.7s22.3,36.4,36.4,38.5
	s36.7-16.4,39.3-23.1s1.7-17.9,1.7-17.9"/>
<path fill="none" stroke="#000000" stroke-width="7" stroke-linecap="round" stroke-linejoin="round" stroke-miterlimit="10" d="
	M221.6,479.7c0.8-0.8,8.4-4.9,13.6-14.1s7-15.3,7-15.3s28.1,4.9,58.5,3.7s34.9-1.4,52.3,1.1s28.7,0.7,28.7,0.7"/>
<path fill="none" stroke="#000000" stroke-width="5" stroke-linecap="round" stroke-linejoin="round" stroke-miterlimit="10" d="
	M108.8,483.9c0,0,11.9,8.7,11.8,11.6s-8.1,8.9-8.1,8.9S98.9,493.7,99,492.3s8.8-8.5,8.8-8.5"/>
<path fill="none" stroke="#000000" stroke-width="5" stroke-linecap="round" stroke-linejoin="round" stroke-miterlimit="10" d="
	M395.4,353.4c0,0,18.3,11.5,21.7,52s-8.9,54.3-9.2,54.9"/>
<path fill="none" stroke="#000000" stroke-width="7" stroke-linecap="round" stroke-linejoin="round" stroke-miterlimit="10" d="
	M336.5,454.2c0,0-4.8,17.1-12.7,51.9c-7.9,34.9-9.1,81.8,0,93.1c17.9,12.7,71.9,24,148.9,16.1s121.1-30.9,133.5-49.5
	c2.1-15-18.5-82.2-28.1-89.9"/>
<path fill="none" stroke="#000000" stroke-width="7" stroke-linecap="round" stroke-linejoin="round" stroke-miterlimit="10" d="
	M342,609.8c0,0,12.7,32.6,25.7,60.5c13,28,33.2,89.3,48.2,132.7s26,72.9,38.5,82.4s49.7,9.2,58.4,4.9"/>
<path fill="none" stroke="#000000" stroke-width="7" stroke-linecap="round" stroke-linejoin="round" stroke-miterlimit="10" d="
	M401.9,668c0,0,22.3,9.1,25.5,15.1s39.6,76.6,56.1,117.6s31.9,84.8,32.1,93c12.3,12.5,81.9,11.8,108.2-22.4
	c-2.3-35.8-19.5-83.9-27.3-133.5c-7.8-49.5-8.5-52.7-8.5-52.7s28.8-68.5,18.1-119.5"/>
<path fill="none" stroke="#000000" stroke-width="7" stroke-linecap="round" stroke-linejoin="round" stroke-miterlimit="10" d="
	M470.1,635.5c0,0,8.1,12.6,14.1,23.6s26.7,19.4,45.9,8.8"/>
<path fill="none" stroke="#000000" stroke-width="5" stroke-linecap="round" stroke-linejoin="round" stroke-miterlimit="10" d="
	M389.9,616.5c0,0,11.6,38.4,21.4,54"/>
<path fill="none" stroke="#000000" stroke-width="5" stroke-linecap="round" stroke-linejoin="round" stroke-miterlimit="10" d="
	M414.9,618.7c0,0,4,43,11.7,61.1"/>
<line fill="none" stroke="#000000" stroke-width="5" stroke-linecap="round" stroke-linejoin="round" stroke-miterlimit="10" x1="423.5" y1="682.5" x2="416" y2="691.7"/>
<path fill="none" stroke="#000000" stroke-width="7" stroke-linecap="round" stroke-linejoin="round" stroke-miterlimit="10" d="
	M459.2,889.7c0,0,6.3,22.8-0.7,41.7s-24,25.8-27.2,40.6s-5.4,30.6,10,36.5c15.4,5.8,30.4,0.8,35.8-3.1"/>
<path fill="none" stroke="#000000" stroke-width="7" stroke-linecap="round" stroke-linejoin="round" stroke-miterlimit="10" d="
	M526.2,899.6c0,0,1.3,16.3-10,33c-11.2,16.7-32.4,39.7-35.7,52.7c-3.2,13.1-0.2,27.7,4.8,32c5,4.2,40.1,6.3,61-1.5
	s31.6-35.4,36.9-41.5s32.8-21.7,35.4-37c2.6-15.4-10.7-28.3-11.8-49.8"/>
<polyline fill="none" stroke="#000000" stroke-width="7" stroke-linecap="round" stroke-linejoin="round" stroke-miterlimit="10" points="
	575.1,989.2 610.2,978.7 561.8,1008.2 582,991.1 588.5,990.4 "/>
<path fill="none" stroke="#000000" stroke-width="5" stroke-linecap="round" stroke-linejoin="round" stroke-miterlimit="10" d="
	M429.5,982.2c0,0,4.9,12.4,25.2,10.8s25.8-7.6,25.8-7.6"/>
<path fill="none" stroke="#000000" stroke-width="5" stroke-linecap="round" stroke-linejoin="round" stroke-miterlimit="10" d="
	M436.8,960.9c0,0,11.5-6.2,25.8-2.1c14.3,4.1,21.1,16.1,21.1,16.1"/>
<path fill="none" stroke="#000000" stroke-width="5" stroke-linecap="round" stroke-linejoin="round" stroke-miterlimit="10" d="
	M471.8,893.2c0,0,2.1,21.1-1.3,34.9c-3.3,13.8-14,28.2-14,28.2"/>
<path fill="none" stroke="#000000" stroke-width="5" stroke-linecap="round" stroke-linejoin="round" stroke-miterlimit="10" d="
	M496.1,893.2c0,0,1.1,28.4-5.3,44.2S477,963.9,477,963.9"/>
<path fill="none" stroke="#000000" stroke-width="5" stroke-linecap="round" stroke-linejoin="round" stroke-miterlimit="10" d="
	M480.5,989.1c0,0,5.7,10.5,29.9,12c24.2,1.5,34.2-8.9,47.2-23.7s24.1-26.8,35.4-33.4c11.3-6.6,22.2-17.3,19.9-28.1"/>
<path fill="none" stroke="#000000" stroke-width="5" stroke-linecap="round" stroke-linejoin="round" stroke-miterlimit="10" d="
	M595.6,893c0,0,10.2,2.1,12.1,4.1c-3.8-5-4.6-5-4.6-5"/>
<path fill="none" stroke="#000000" stroke-width="5" stroke-linecap="round" stroke-linejoin="round" stroke-miterlimit="10" d="
	M492.9,965.6c0,0,16.5-3.4,29.2,7.4c12.7,10.8,14.9,21.9,14.9,21.9"/>
<path fill="none" stroke="#000000" stroke-width="5" stroke-linecap="round" stroke-linejoin="round" stroke-miterlimit="10" d="
	M505.3,964.5c0,0,16.2-14.8,23-36c6.9-21.2,6-27.3,6-27.3"/>
<path fill="none" stroke="#000000" stroke-width="5" stroke-linecap="round" stroke-linejoin="round" stroke-miterlimit="10" d="
	M565.5,901.2c0,0-3.6,19.9-15,41.4S527,975.4,527,975.4"/>
<path fill="none" stroke="#000000" stroke-width="19" stroke-linecap="round" stroke-linejoin="round" stroke-miterlimit="10" stroke-opacity="0" d="
	M438.8,307l-3-14.7l11.5-0.7c0,0,7.4,6.9,7.1,8.9s-1,10.4-1,10.4l-4.2-9.6"/>
<path fill="none" stroke="#000000" stroke-width="19" stroke-linecap="round" stroke-linejoin="round" stroke-miterlimit="10" stroke-opacity="0" d="
	M330.7,116.8c0,0,1.7-13.8,7.6-24s21.2-24,21.2-24l22.8-13.6l7.5-10.4l-1.4,15.1l6,2.3l7.6-17.4l14.7-6.8l-11.2,20.2L433.6,36h6.6
	l-17,23.9l3.4,8.9L454.1,39l5.4-0.6l-27.8,33l13.3-0.3L473.7,44l5.3,9.2l-25.7,26.7l2.4,6.6l40.2-28.9l4.5,2.6l-35.3,34.5l1.8,4.7
	c0,0,48-32.5,47.5-31.5s0.9,15.3,0.9,15.3l-38.1,23.5l0.9,12.1l44.2-22.2l9.5,6l-47.7,26.9l2.6,6.7l49.7-19.4l-4.6,14.1L487.5,150
	l-3.2,10.2l49.2-17.4l-2,9l-0.6,2.9l-3.4,6.7l-8.3,2.6h-15l-14.5,5.9l-2.3,6.2l-2.9,5.6"/>
<path fill="none" stroke="#000000" stroke-width="19" stroke-linecap="round" stroke-linejoin="round" stroke-miterlimit="10" stroke-opacity="0" d="
	M344.1,113.1l40.4-42.2l22.7,1.7l-63.1,58.9v18.6L422.9,80l15.2,3.4l-97.2,91.7l110.2-80.5l-148,112.2l-2.8,18.9L453,112.4
	c0,0,6.1,5.7,7.7,6.4c1.5,0.7-153.7,119.7-153.7,119.7l5.2,16.7l158.2-123.7c0,0,2.8,6.7,2.8,7.3S329.9,258.3,329.9,258.3l21.7,0.9
	l121.5-103.6l-2.8,16.7L354.6,274.7l2.2,12.8l120.7-99.6l14,8.8c0,0-127.3,102-127.9,102.4c-0.7,0.3,3.5,16.8,3.5,16.8l150.6-137
	c0,0,1.5,1.1,2.9,1.8s11.1,6.2,11.1,6.2l-82.8,73.4l-70.6,61.2l3.6,9.1l36.6-32.2l5.3,0.8l-34.6,40.5l4.6,3.7c0,0,10.3-6.2,11-6.9
	c0.7-0.7,12.2-4.7,12.2-4.7l-5.7,8.4c0,0,13.9-5.6,17.2-4.8c3.4,0.7,17.8-2.7,17.8-2.7s8.1-2.1,11.6-4.1s7-9.1,7-9.1l0.7-4.5v-14
	l-3.5-18.4l-4.1-18.1l82.4-70.4l0.7,10.3L472.5,272l-2.1,15.1l70.6-64.7l-24.6,36.2l-38,38.5l-6.2,15.6l46.3-33.8l-1.1,9.5
	l-48.8,33.7l-0.5,4.8l50.4-25.3l3,8.9l-44.9,16.6l35.4-5.5l13.6-1.6"/>
<path fill="none" stroke="#000000" stroke-width="19" stroke-linecap="round" stroke-linejoin="round" stroke-miterlimit="10" stroke-opacity="0" d="
	M91.9,502l73.9-87.7l4.9-4.1l-65.9,99.4l7.5,3.2l75.8-107.7l3.6,1.6c0,0-69.4,101.4-67.9,101.4s41.6-52.4,41.6-52.4l3.1,7.6
	l36.5-59.6l7.5-3.7l-38.7,74.5l3.7,6.9c0,0,48-79.5,48.5-79.6c0.5-0.2,13.8-4.4,13.8-4.4l-52.1,95.2l4.9,6L252.1,394h10.7
	l-56.6,101.1l20.5-15.3l50-88.6c0,0,9.6-0.7,10.4-0.7c0.9,0-26.7,57-26.7,57l13.9,2.8l27.3-59.1l12.1-1.5l-24.5,58.4
	c0,0,3.4-0.3,4-0.3s33.6-59.5,33.5-58.9c-0.2,0.6,11.5-7.6,11.5-7.6l10.1-2l-41.9,65.9l16.5-2.4l37.3-67l5.4,4.9l-31.7,60.8h4.4
	c0,0,36.1-55.5,36.1-54.2s0.8,9.9,0.8,9.9l-26.9,47.1l7.9,2.4l24.3-37.3l-12.2,32.9l-2.2,6l12.3-2.8l2.7-12.5"/>
<path fill="none" stroke="#000000" stroke-width="19" stroke-linecap="round" stroke-linejoin="round" stroke-miterlimit="10" stroke-opacity="0" d="
	M403.2,357.5l17.3-7.2l-14,20.6l32.7-25l8.7-0.4l-29.1,37.7l-7.3,12.5c0,0,60.5-55.7,62-55.9s8.5-1.3,8.5-1.3l-64.6,71.7l-3.2,11.5
	l85.3-82.2l11.9-2.1l-105.9,99.3l-2.3,11.2L530,339.4l12,0.1L415.4,454.1H431l119.2-103.9l4.1,4l-109.4,96.1h15.7l99.9-86.9
	l4.8,10.2l-91.7,76.7l24.8-6.1l74.8-61l4.1,6.9l-69.2,54.1l16.5-2.7l52.7-37.4l2.5,11.2l-54.3,32.3l52.7-21.6l1.6,11.2
	c0,0-38.8,20.6-84.4,28.7c-45.6,8-104.8,6-104.8,6l-21.7-5L342,465l-6.6,14.7c0,0,75.4,14.5,136,5.4c60.5-9.2,103.9-30.8,103.9-30.8
	l-3.2,17.5c0,0-75.4,24-99.6,28s-137-6.1-137-6.1l-8.2,13.3c0,0,119.7,11.6,181,0c61.3-11.6,66.9-27.2,66.9-27.2l9.6,6.6
	c0,0-53.6,35.4-76.5,37c-22.9,1.5-179.5,1.8-179.5,1.8l-0.3,11h195.1l64.8-31.8l5.5,16.4l-60,26l-212.4,3l1,10.7l222.6-2.8
	l53.1-21.7l2.3,9.7l-60,22.1l-219,7.6l3.8,9.2l221-5.5l54.2-18.3c0,0-23.9,22-49.3,28.4s-219.8,4.6-219.8,4.6s15.9,7.3,40.1,9.5
	s73.5,9.5,128.9,0s93.3-43.7,93.3-43.7"/>
<path fill="none" stroke="#000000" stroke-width="19" stroke-linecap="round" stroke-linejoin="round" stroke-miterlimit="10" stroke-opacity="0" d="
	M345.7,615.5l11-1.1l-5.5,15.3l28-15.3l6.6,5.2l-30.2,27.5l6.3,10.3l42.3-36.5l10.8-0.6l-44.1,48.5l4.9,13.6l56.9-62.1l15.6,4.1
	l-68.8,74.4l5.2,14l82.8-92.6l16.5-2.4l-93.6,111c0,0,104.8-110,106.7-110.2c1.8-0.2,13.8-2.2,13.8-2.2L400.7,742.9l2.5,17.2
	l125.2-147.4c0,0,12.6-4.5,14.2-4.7S412,773.8,411.4,775.5c-0.5,1.7,3.7,17,3.7,17l145.4-188.7l12.4-6.4L423.7,806.8
	c0,0-0.6,16.6,0.7,20c1.2,3.4,165.9-236.5,165.9-236.5L603,582l-4.9,24.3L431.8,836.7l7.4,18.3l161.1-230.5l-6.3,22.7L449.8,864.5
	l6.8,11l125.3-193l4.1-6.2l-0.9,32.4L465.8,878.2l11.3,4.1c0,0,109.4-156.4,109.4-154.8s0.2,21.1,0.2,21.1l-97.5,136.7h8.9L594,759
	l1.6,17.2L510.8,881l11.9-0.7l0.9,7.5c0,0,77.3-98,76.8-97.1s1.2,18.6,1.2,18.6L535.3,890l11.5,4.6c0,0,59.9-75.4,60.9-74.5
	s1.5,11.7,1.5,11.7L563.6,890l19-2.1l30.6-40.2v10.5l-16.1,24.3l17.7-16.5"/>
<path fill="none" stroke="#000000" stroke-width="19" stroke-linecap="round" stroke-linejoin="round" stroke-miterlimit="10" stroke-opacity="0" d="
	M467.1,895.6c0,0.1-0.2,30.3-3.8,38.4c-3.7,8.1-14.1,20.3-14.1,20.3"/>
<path fill="none" stroke="#000000" stroke-width="19" stroke-linecap="round" stroke-linejoin="round" stroke-miterlimit="10" stroke-opacity="0" d="
	M478.5,968.3c0,0,16.4-19.3,19.6-32.8s6.1-32.4,6.1-32.4l1.1-4.6l11.8,0.6c0,0-3.6,16.7-5.1,23.4c-1.5,6.7-4.7,14.2-4.7,14.2
	l-6.4,12.2v6.4l4.4-4.1l11-16.7l10.2-15l1.6-10.1l1.5-5.5"/>
<path fill="none" stroke="#000000" stroke-width="19" stroke-linecap="round" stroke-linejoin="round" stroke-miterlimit="10" stroke-opacity="0" d="
	M559.4,894.3c0,0,8.2,4,8.1,6.9s-1.4,12.2-1.4,12.2l-8.2,19.5l-11.1,21l-8.4,10.6l-6.7,12.1l2.6,7.5l7.8-8.7l24-40.6l10.2-22.6l5-11
	l6.9-4.1l-3.8,16.1l-17.7,33.5c0,0-0.8,9-7.3,18.3c-6.6,9.3-10.9,13.3-14.2,19c-3.3,5.7-2.1,5.3-2.1,5.3l27.8-26.6l12.1-19l8.3-18.8
	l7-22.4l5-6.9l1.8,13.4l-3.4,21.9l-6,7.5l12.1-14"/>
<path fill="#808080" d="M457.4,294.4c0.5,6.1,0.2,11.6-0.2,15.1c-0.2-0.2-0.4-0.4-0.7-0.6c-4.4-3.9-11.4-5.5-20.9-4.8
	c-1,0.1-2,0.2-2.9,0.3c-0.6-5.2-2.7-9.6-4.5-12.6C439.7,291.5,452.8,291.4,457.4,294.4z"/>
</svg>
