<?xml version="1.0" encoding="utf-8"?>
<!-- Generator: Adobe Illustrator 24.3.0, SVG Export Plug-In . SVG Version: 6.00 Build 0)  -->
<svg isCommex="true" version="1.1" id="Layer_1" xmlns="http://www.w3.org/2000/svg" xmlns:xlink="http://www.w3.org/1999/xlink" x="0px" y="0px"
	 width="397.1px" height="606px" viewBox="0 0 397.1 606" enable-background="new 0 0 397.1 606" xml:space="preserve">
<g id="vs-secondary">
	<path fill="#C3E4FF" d="M231.1,435.6l-0.1-0.5l-0.5-0.2c-4.6-1.9-25.4-3.7-43.5-4.5l-0.2,0l-0.2,0.1c-0.2,0.1-0.4,0.1-0.6,0.2
		c-0.4,0.1-0.9,0.3-1.2,0.4l-0.5,0.2l-0.1,0.6c-0.7,4.1-2.6,19.9-3.2,26.2l-0.1,0.8l0.8,0.2c5.4,1.6,23.8,3.3,35.9,3.3
		c4.7,0,8.4-0.3,10-0.9c0.8-0.3,1.6-1.4,2.3-3.2C232.6,451.5,232,439.1,231.1,435.6z"/>
</g>
<g id="vs-primary">
	<path fill="#6495FB" d="M252.7,508.9c-0.1-44.9-4.7-83.5-11.6-98.4l-0.6-1.2c-6.2-11.1-21.4-13.2-25.9-13.5l-1.1-0.1l0,1.1
		c0,2.8-0.3,16.6-11.9,19.3c-1.9,0.4-4.4,0.7-7.5,0.7c-13.8,0-32.7-4.5-34.6-6.2c-0.6-0.5-2.4-1.9,1.7-13.8l0.5-1.4l-1.4,0
		c-3.3,0.1-9.6,1.2-15.5,7.6c-1.6,1.8-3.2,4.1-4.7,6.9c-5.4,10.1-11.1,26.9-14.2,36.7l-0.2,0l-0.3,0.9c-4.7,14.6-8.7,29.9-8.7,32.7
		l0,0.2c0,0.2,0,0.5-0.1,0.8l-0.4,0.7l0.6,0.5c2.1,1.7,5.1,2.6,9,2.7l7.9,0.1l0.1-0.9c0.6-5.6,1.1-11.3,1.4-15.9l0-0.3l-0.2-0.3
		c-4.1-6.9-6.2-12.4-6.2-16.3l0-0.1c0-0.4,0-1,0.2-1.6l0.1,0l0.3-0.9c1.6-5.2,6.9-13.9,15.6-25.8c0.9-1.1,2.4-1.3,3.5-0.5
		c1.1,0.9,1.4,2.5,0.5,3.5c-6.3,8.4-15.1,21.9-15.1,25.5c0.1,3,2.3,8.2,6,14.7c2.7,4.6,6.1,9.4,9.7,14.1c0.8,1.1,0.6,2.7-0.5,3.5
		c-0.4,0.3-0.9,0.5-1.5,0.5c-0.8,0-1.5-0.4-2-1c-0.3-0.4-0.6-0.8-1-1.3c-1-1.3-2.1-2.9-3.3-4.6l-1.5-2.2l-0.4,4.2
		c-0.6,5.5-1.2,11.8-2.2,17.5l-0.1,0.6l0.5,0.4c4.4,3.6,17.7,11.9,46.8,12.4c1.1,0,2.2,0,3.2,0c20.1,0,30.8-3.5,36.3-6.6l1.1-0.6
		l-0.8-0.9c-0.4-0.5-0.6-0.9-0.6-1.5l-1.1-33.6l-1,0.1c-1.7,0.1-3.6,0.1-5.4,0.1c-15.2,0-34.9-2-38.7-4.7c-1-0.7-1.5-1.6-1.5-2.8
		c0-2.4,2.9-28.6,3.8-30.6c0.8-1.8,2.9-3,6.6-3.7l0.1,0c0.1,0,0.2,0,0.5,0c0.1,0,11,0.5,22.4,1.4c23.8,2,25,4.1,25.9,5.6
		c2.3,4,2.4,19.3-0.5,27.2c-1.3,3.4-3,5.6-5.4,6.5c-0.4,0.1-0.7,0.2-1.2,0.3l-0.8,0.2l1.1,34.2l0.3,0.3c2.1,2.2,10.1,9.4,23.1,8.8
		l1,0L252.7,508.9z M185.7,493.7c0-1.4,1.1-2.5,2.4-2.6c0.1,0,9-0.4,16.5-3.8c0.3-0.2,0.7-0.2,1-0.2c0.3,0,0.6,0.1,0.9,0.2
		c0.6,0.2,1.1,0.7,1.4,1.3c0.3,0.6,0.3,1.3,0.1,1.9c-0.2,0.6-0.7,1.1-1.3,1.4l0,0c-4.9,2.2-11,3.7-17.9,4.3c-0.4,0-0.6,0-0.6,0
		C186.8,496.1,185.8,495,185.7,493.7z"/>
</g>
<g id="vs-hair">
	<path fill="#FFF996" d="M268.7,75.4c-13.4-10-32.1-15.8-51.3-16c-23.9-0.6-48.4,7.2-71,22.7c-51.4,35.3-65,132.4-55.1,189
		c9.2,52.7,43.4,114.3,50.2,126.1l0.6,1.1l0.9-0.8c8.6-7.8,17.9-7.1,20.5-6.7l0.2,0l0.2,0c2.9-0.5,9.7-2.2,11.6-8.3
		c2.4-7.9-1.3-19.7-13-26c-0.4-0.2-0.7-0.4-1.1-0.6c-0.4-0.2-0.7-0.4-1.1-0.6l-0.1-0.1c-12.2-6.5-24.9-13.3-35.6-40.9
		c-11-28.3-15.1-47.8-16.2-77.2c-1.1-27.2-0.3-70.3,2-80c2.2-9.3,13.1-38.1,18.9-49c6-11.4,11.8-17.9,26.8-21.7
		c11.3-2.8,21.3-1.5,26.2-0.4l0.5,0.1l0.4-0.3c15-13.2,26.8-21.2,31.3-21.6c1-0.1,2,0.5,2.4,1.4c0.4,1,0.3,2.1-0.4,2.8
		c-6.5,7.2-9.4,13.2-10.3,15.5l-0.5,1.2l1.3,0.1c6.8,0.8,27.4,3.1,39.7,17.3c3.9,4.4,7.6,10,10.7,16.6l0.3,0.6h0.6
		c0.2,0,0.3,0,0.5,0c0.2,0,0.5,0.1,0.7,0.1h0.2c15.8,2.7,18.3,15.1,18.5,16.5c0.1,0.5,0,1-0.4,1.4c-0.3,0.4-0.8,0.7-1.3,0.8
		c-0.5,0.1-1,0-1.4-0.3c-0.4-0.3-0.7-0.8-0.8-1.3l0-0.2c-0.5-2.2-2.9-9.7-12.8-12.5l-2-0.5l0.8,1.9c6,14.7,8.1,28.9,8.8,36
		c1.6,15.3-6.2,70.4-15.7,93.7c-0.9,2.1-1.8,4.4-2.7,6.6c-0.9,2.2-1.8,4.5-2.7,6.8c-7.8,19.7-18.5,46.8-29.9,64.9
		c-13,21-15.8,39.5-14.1,49c1.1,5.8,5.7,7.8,9.7,7.8h0.2c0.2,0,19.9,0.4,29.4,13.5l0.8,1.1l0.8-1c14.6-17.8,31.7-50.3,44.6-84.7
		c15.5-41.5,24.3-82.8,24.6-116.1C314.3,141.8,298.7,97.6,268.7,75.4z"/>
</g>
<g id="vs-skin">
	<path fill="#FACFBD" d="M264.3,162.1L264.3,162.1c-1.3-12.8-4.8-26.4-9.7-37.4l-0.3-0.7l-0.7,0.1c-3.7,0.4-7.4,1.4-11.3,3.3
		l-1.6,0.8l1.5,1c0.8,0.5,1.6,1.2,2.5,2.2c8.5,8.7,13,29.6,12.4,44.8c-0.8,18.8-9.6,42.8-17.5,47.5c-3,1.7-7.6,2.7-12.9,2.7
		c-7.1,0-14.5-1.6-19-4.1c-8.7-4.9-12-18-10.2-41.4c1.1-14.8,4.2-25.3,6.5-31.4l0.5-1.4h-1.5c-2.1,0-4.1-0.5-5.8-1.5
		c-4.1-2.4-5-6.5-5.1-6.9c-0.1-0.5,0-1,0.3-1.5c0.3-0.4,0.8-0.7,1.3-0.8c1.1-0.2,2.1,0.5,2.3,1.5l0.1,0.3c0.6,1.8,1.7,3.2,3.2,4
		c1.9,1,4.4,1.2,7.6,0.5c1.1-0.2,2.3-0.6,3.5-1l0.9-0.3l-0.3-0.9c-0.4-1.1-2.3-4.7-3.6-6.9c-0.1-0.2-0.1-0.5-0.1-0.8
		c0-0.1,0.2-0.4,0.5-0.6c0.4-0.2,1-0.1,1.4,0.4c2,3.4,3.2,5.6,3.6,6.8l0.4,1.1l1-0.6c2.4-1.3,5.1-3.1,8.3-5.4l0.8-0.6l-0.6-0.8
		c-1.5-2.1-1.9-6.4-1.9-8.4c0-0.4,0.1-0.6,0.2-0.7c0.2-0.2,0.4-0.3,0.8-0.3c0.5,0,1,0.3,1,0.9c0,2.6,0.6,6.3,1.5,7.4l0.6,0.7
		l0.8-0.6c2-1.5,4.1-3,6.4-4.6l0.5-0.4l-0.1-0.6c-0.4-2.2-0.4-6.4-0.4-8.9c0-0.6,0.4-1,1-1s1,0.4,1,1c-0.1,2.3,0,5,0.1,6.8l0.1,1.6
		l1.4-0.8c5.2-3.1,10.1-5,15.3-5.9l1.3-0.2l-0.6-1.2c-2.6-5-5.5-9.3-8.6-12.9c-10.9-12.6-29.1-14.7-36.9-15.6l-0.3,0
		c-3.1-0.4-3.8-0.5-4.6-1.5c-1.2-1.6-0.3-5.5,2.3-10.3l2.1-3.9l-3.6,2.6c-4.8,3.5-10.7,8.4-16.7,13.7c-0.6,0.5-1.5,0.7-2.4,0.5l0,0
		c-2.4-0.9-13.3-3.1-25.4,0c-11.9,3-16.8,7.6-21.3,15l-0.3-0.2l-1,1.7c-0.5,0.8-0.9,1.6-1.2,2.4c-1.5,2.9-3.5,7.1-5.4,11.8l-1.5,3.7
		l3.1-2.5c1.3-1,2.4-1.8,3.4-2.4c1.6-0.9,3.1-1.6,4.3-2.1l0.8-0.3l-0.2-0.8c-0.8-2.9-0.6-6.6-0.5-8.2l0.4-0.5
		c0.2-0.2,0.6-0.5,0.9-0.4c0.5,0,0.9,0.5,0.9,1.1c-0.2,2.6-0.1,5.7,0.3,7.5l0.2,1l1-0.2c1.5-0.4,3-0.6,4.4-0.6h1.2l-0.2-1.2
		c-0.3-1.4-0.4-3.8,0.4-7.5l0-0.2c0-0.2,0.2-0.4,0.4-0.5c0.1-0.1,0.4-0.2,0.8-0.1c0.2,0,0.4,0.2,0.5,0.4c0.1,0.1,0.2,0.4,0.1,0.8
		c-0.2,0.9-1.1,5.3-0.1,7.7c0,0.1,0,0.1,0.1,0.2v0.7l0.8,0.2c1.1,0.3,2.1,0.6,3,1l1,0.5l0.4-1c1.3-3.1,3.4-6.6,4.5-8.3
		c0.3-0.5,1-0.6,1.4-0.3c0.2,0.1,0.4,0.4,0.4,0.7c0.1,0.3,0,0.5-0.1,0.8c-2,3.3-3.8,6.7-4.6,8.8l-0.3,0.7l0.6,0.5
		c1.5,1.1,2.6,2.4,3.6,3.8l0.9,1.3l0.8-1.4c1.9-3.4,5.7-5.4,6.2-5.6c0.5-0.3,1.1-0.1,1.4,0.5c0.1,0.2,0.1,0.5,0.1,0.8
		c-0.1,0.3-0.3,0.5-0.5,0.6c0,0-1.2,0.6-2.4,1.6c-1,0.8-2.8,2.3-3.5,4.5c-0.1,0.2-0.1,0.3-0.2,0.3l-0.7,0.5l0.4,0.8
		c0.9,1.8,1.7,3.8,2.2,5.7l0.5,1.8l1.2-1.4c2.7-3.2,6.3-6.2,7.1-6.5c0.4-0.1,0.8,0.2,1,0.5c0.2,0.4,0.2,0.8,0,1.1
		c-0.1,0.1-0.2,0.2-0.3,0.2l-0.1,0.1c-1.9,1.4-7.2,6.4-8.2,8.6l-0.1,0.3l0.1,0.3c1,5.3,1.1,11.4,0.4,18.1
		c-3.2,29.8-14.8,46.5-25.9,59.1c-1.1,1.3-2.2,2.4-3.2,3.6l-0.3,0.3c-9.9,10.9-12.5,13.9-11.5,26c0.6,6.4,3.9,12.2,8.9,15.9
		c4.2,3,11.5,6,22.7,3.4c1-0.3,2.1,0.4,2.4,1.5c0.3,1-0.4,2.1-1.4,2.4c-3.3,0.7-6.4,1.1-9.2,1.1c-6.4,0-12.2-1.8-16.9-5.1
		c-6-4.3-9.8-11.2-10.5-18.9c-1.2-13.7,2.5-17.9,12.4-28.9c0.4-0.4,0.8-0.9,1.2-1.4c0.6-0.6,1.2-1.3,1.8-2l1.4-1.6l-2.1-0.1
		c-5-0.3-11.8-2.6-16.4-12c-1.8-3.5-3.2-9.6-4-17l-2,0.1c-0.5,16.5-0.5,37,0.1,53.5c1,28.6,5,47.7,15.9,75.5
		c10,25.8,21.3,31.8,33.2,38.2l0.3,0.2c0.4,0.2,0.8,0.4,1.1,0.6c0.4,0.2,0.8,0.4,1.1,0.6c14,7.6,18.4,22.1,15.4,31.8
		c-2.7,9-12.2,11.2-15.1,11.7l-0.6,0.1l-0.2,0.5c-1.6,4.4-2.9,9.4-3.1,11.5l0,0.7l0.7,0.2c3.7,1.3,20.1,5.1,31.8,5.1
		c2.6,0,4.9-0.2,6.8-0.6c9.6-2.2,9.7-14.6,9.6-17l0-0.7l-0.7-0.2c-3.4-0.9-9.2-3.6-10.7-11.6c-2-10.8,0.9-30.2,14.9-52.5
		c11.1-17.8,21.7-44.6,29.5-64.2c0.9-2.3,1.8-4.5,2.7-6.7c0.9-2.3,1.8-4.5,2.7-6.7C257.9,231.4,265.7,176.8,264.3,162.1z
		 M160.2,96.5c3.1,0.8,5.6,2.9,7.3,6.2c0.5,0.9,0.1,2.1-0.8,2.6c-0.4,0.1-0.6,0.2-0.9,0.2c-0.8,0-1.5-0.4-1.8-1.1
		c-1.3-2.3-2.8-3.6-4.8-4.2c-0.8-0.2-1.5-0.3-2.3-0.3c-3.7,0-7.5,2.1-7.7,2.2c-0.4,0.3-1,0.4-1.5,0.2s-1-0.5-1.2-0.9
		c-0.6-0.9-0.3-2.1,0.7-2.7c0.1,0,0.1-0.1,0.2-0.1C152,96.2,156.6,95.4,160.2,96.5z M224.8,277.8L224.8,277.8
		c-0.5,1.1-12.6,27-41.5,31.7c-4.2,0.7-8.1,1.1-12,1.1c-19.3,0-25.4-9.7-25.6-10.1c-0.5-0.9-0.2-2.2,0.7-2.7c0.3-0.2,0.6-0.2,1-0.2
		c0.2,0,0.4,0,0.6,0.1c0.5,0.1,1,0.5,1.2,0.9c0.3,0.5,7.3,11.6,33.5,7.2c26.1-4.4,37.6-27.8,38.4-29.6l0,0c0.5-1,1.7-1.5,2.7-1
		C224.8,275.6,225.2,276.8,224.8,277.8z"/>
</g>
<path fill="none" stroke="#000000" stroke-width="6" stroke-linecap="round" stroke-linejoin="round" stroke-miterlimit="10" d="
	M148.1,100.4c0,0,12.2-7.3,17.6,3.1"/>
<path fill="none" stroke="#000000" stroke-width="6" stroke-linecap="round" stroke-linejoin="round" stroke-miterlimit="10" d="
	M144.4,180c1.6,0.2,0.8,2.9,0,3.5s-1.1-1.4-0.5-2.4"/>
<path fill="none" stroke="#000000" stroke-width="6" stroke-linecap="round" stroke-linejoin="round" stroke-miterlimit="10" d="
	M141.5,209.4c0,0-13.1,5-20.3-10s-7-64.9,13.1-76.8c20.2-11.9,32.3,7.3,29.4,34.2s-12.7,43.6-25.4,57.9
	c-12.7,14.4-16.7,17.1-15.4,31.3c1.3,14.2,14.2,25.8,34.1,21.1"/>
<path fill="none" stroke="#000000" stroke-width="4" stroke-linecap="round" stroke-linejoin="round" stroke-miterlimit="10" d="
	M138.8,109.1c0,0-0.8,8.3,1.5,10.5"/>
<path fill="none" stroke="#000000" stroke-width="4" stroke-linecap="round" stroke-linejoin="round" stroke-miterlimit="10" d="
	M148.1,108.4c0,0-1.4,5.4,0,8.5"/>
<path fill="none" stroke="#000000" stroke-width="4" stroke-linecap="round" stroke-linejoin="round" stroke-miterlimit="10" d="
	M159.5,110.1c0,0-5.6,9-5.3,11.6"/>
<path fill="none" stroke="#000000" stroke-width="4" stroke-linecap="round" stroke-linejoin="round" stroke-miterlimit="10" d="
	M168,119.6c0,0-5,2.4-6.4,6.6"/>
<path fill="none" stroke="#000000" stroke-width="4" stroke-linecap="round" stroke-linejoin="round" stroke-miterlimit="10" d="
	M173.2,128.8c0.2-0.3-8.6,7.1-9,10.1"/>
<path fill="none" stroke="#000000" stroke-width="6" stroke-linecap="round" stroke-linejoin="round" stroke-miterlimit="10" d="
	M194.1,138.9c0,0,2.1,10.7,17.1,5.2s26.8-24.1,48.3-22.4c15.1,2.6,17,14.8,17,14.8"/>
<path fill="none" stroke="#000000" stroke-width="6" stroke-linecap="round" stroke-linejoin="round" stroke-miterlimit="10" d="
	M229.4,192.7c1,0.2,0.7,4.1-0.8,4.4c-1.5,0.2-0.6-3.5,0.3-3.7"/>
<path fill="none" stroke="#000000" stroke-width="6" stroke-linecap="round" stroke-linejoin="round" stroke-miterlimit="10" d="
	M207.6,145.7c0,0-6.4,12.1-8.1,34.9s1.5,35.1,9.2,39.4s23.5,5.3,29.9,1.5s15.7-26.2,16.5-45.9c0.8-19.6-7.3-46.7-18.6-46.5"/>
<path fill="none" stroke="#000000" stroke-width="4" stroke-linecap="round" stroke-linejoin="round" stroke-miterlimit="10" d="
	M208.4,133.6c0,0,3.7,6.6,3.7,7.4"/>
<path fill="none" stroke="#000000" stroke-width="4" stroke-linecap="round" stroke-linejoin="round" stroke-miterlimit="10" d="
	M221.8,125.4c0,0,0.2,6.6,2.1,8.2"/>
<path fill="none" stroke="#000000" stroke-width="4" stroke-linecap="round" stroke-linejoin="round" stroke-miterlimit="10" d="
	M233.2,118.4c0,0-0.1,8,0.5,9.4"/>
<path fill="none" stroke="#000000" stroke-width="6" stroke-linecap="round" stroke-linejoin="round" stroke-miterlimit="10" d="
	M147.4,299.6c0,0,7.5,12.8,35.6,8.1c28.1-4.7,39.9-30.7,39.9-30.7"/>
<path fill="none" stroke="#000000" stroke-width="7" stroke-linecap="round" stroke-linejoin="round" stroke-miterlimit="10" d="
	M114.1,480.3c-0.2-5,13.5-52.6,23.7-71.7s26.1-15.6,26.1-15.6s11.5-0.9,14.2-10.1c2.8-9.2-1.6-22.1-14.2-28.9s-25.7-12.3-36.8-40.8
	s-15-47.8-16.1-76.4c-1-28.5-0.2-70.3,1.9-79.3s13.1-37.8,18.7-48.4c5.6-10.5,10.7-16.7,25.2-20.4s26.7,0,26.7,0
	s24.4-21.7,31.2-22.1C205.6,76.5,202.2,86,203,87s27.4,0.5,41.8,17.1s20.3,42.8,21.8,57.8s-6.2,69.6-15.6,92.5s-21.8,56.7-35.1,77.9
	s-16.4,40.4-14.5,50.8c1.8,10.4,12.2,9.9,12.2,9.9s22.3,0.5,29.6,16.3s12.3,58.2,11.8,107.5"/>
<path fill="none" stroke="#000000" stroke-width="7" stroke-linecap="round" stroke-linejoin="round" stroke-miterlimit="10" d="
	M140.7,399.9c0,0-41.2-69.7-51.5-128.6S94,115,145.4,79.8s100.3-24.5,124.8-6.4s46.8,55.3,46.2,129.9s-41.6,169.4-70.9,203.9"/>
<path fill="none" stroke="#000000" stroke-width="7" stroke-linecap="round" stroke-linejoin="round" stroke-miterlimit="10" d="
	M146.9,424.4c0,0-15.7,21-15.6,27.1s6.8,18,16.2,30.3"/>
<path fill="none" stroke="#000000" stroke-width="7" stroke-linecap="round" stroke-linejoin="round" stroke-miterlimit="10" d="
	M137.7,467.4c0,0-2.2,33.8-6.4,41.3"/>
<path fill="none" stroke="#000000" stroke-width="7" stroke-linecap="round" stroke-linejoin="round" stroke-miterlimit="10" d="
	M186.6,428c0,0,44.1,1.8,46.3,5.7c2.2,3.9,2.5,27.5-4.6,30.2c-7.1,2.6-50.2-0.5-50.1-3.9s3.1-28.4,3.7-29.8S186.6,428,186.6,428z"/>
<line fill="none" stroke="#000000" stroke-width="7" stroke-linecap="round" stroke-linejoin="round" stroke-miterlimit="10" x1="224.8" y1="467" x2="225.9" y2="500.7"/>
<path fill="none" stroke="#000000" stroke-width="7" stroke-linecap="round" stroke-linejoin="round" stroke-miterlimit="10" d="
	M188.2,493.5c0,0,9.4-0.3,17.4-4"/>
<path fill="none" stroke="#000000" stroke-width="5" stroke-linecap="round" stroke-linejoin="round" stroke-miterlimit="10" d="
	M163.3,395.1c0,0-4.6,12.7-2.9,14.2s29,7.8,40.7,5.2c9.9-2.3,11.2-14.1,10.7-19.4"/>
<path fill="none" stroke="#000000" stroke-width="17" stroke-linecap="round" stroke-linejoin="round" stroke-miterlimit="10" stroke-opacity="0" d="
	M137.7,393.4c0,0,5.6-8.8,14.3-8.8s17.3,0.8,17.8-4.6s-6.1-14.3-6.1-14.3l-29.2,16.5l-2.8-5.4l24.4-18.4l-8.4-4.2l-21.2,10.1
	l-2.3-6.5l12.4-9.3l-5.7-10.2l-14.2,5.5l-4.8-11.6l13.3-2.1l-6.1-12.8l-11.4,3.8l-4.8-10.7l12-3.5l-3.1-10.3l-12.5,2.8l-4.1-12
	c0,0,14.3-1.6,14.3-1.9s-1.7-11.4-1.7-11.4l-12.6,1.1L90,262.6h14.4l-1.8-7.6c0,0-8.3-1.8-8.6-1.8s-2.2-5.8-2.2-5.8l11.5-0.9
	l-0.1-11.4l-13.9-1.3l-0.9-7.3l13.5-3.1c0,0-8.1-7.1-8.5-7.1s-3.3-10.7-3.3-10.7l12.7,5.7l-1.3-13.1l-9.2-5.9l3.8-4.9l4,1
	c0,0,0.9-15.1,2.9-26.1c1.9-11,13.6-47.5,13.8-47.8c0.3-0.3,17.9-28.6,30.6-34s25.7-3.4,25.7-3.4l10.4,2.2l-6-12.5
	c0,0,13,4.4,13.5,4.4s7.2-3.6,7.2-3.6l-2.3-2.9l16-1.6l11.8-2.6l-10,19.8l8.9,3.1l11.7-19.7c0,0,9.2-0.3,9.6-0.2
	c0.5,0.1-11,24-11,24l12.8,6.1l11.4-23.7l12.8,3.7l-16.5,27c0,0-0.3,5.3,0,5.5s24.9-20.4,24.9-20.4l4.3,7.5l-21.2,21.7l3,6.3
	c0,0,27.4-18.8,27.2-17.7s4,9,4,9s-29,15-28.2,16.9s4,10.3,4,10.3l30.1-14.4l4.1,13.7L273,150.5l1.8,7.1c0,0,29.1-9.2,29.7-8
	s5.3,10.6,5.3,10.6l-35.1,9.3v10.2l35.1-3.7l2.6,14.7l-40.3,0.3l0.6,10.7c0,0,42-1.3,41.4,0.8s-0.3,10.8-0.3,10.8l-44.3-1.6l-1,9.9
	l44.6,4.8l-3.2,10.8l-43.3-3.8l-4,12.3l46.5,5.3l-2.1,12.6l-49.8-5.4l-3.7,8.7l49.2,8.1l-2.8,12.4l-50.7-7.7l-3.9,10.4l48.2,10.3
	l-2.2,9.7l-52.6-8.7l-3.4,9.9c0,0,50.8,9.3,51.1,10.3s-4.9,10.8-4.9,10.8l-52.3-9.2l-5.8,11.4l55.3,12.8l-5,9.6l-55.9-13.6
	l-6.8,11.7l55.4,13l-5.2,9.4l-53.3-11c0,0,0.2,8.9,0.2,9.3c0,0.3,44.8,10.3,44.8,10.3l-4.1,5.5l-30.5-8.7l-9.3-0.1
	c0,0,15.9,5.3,18.5,6.2c2.5,0.9,11.7,4,12.5,4.6s4.1,4.1,4.1,4.1l2.1,2.9"/>
<path fill="none" stroke="#000000" stroke-width="20" stroke-linecap="round" stroke-linejoin="round" stroke-miterlimit="10" stroke-opacity="0" d="
	M120.7,124.6l40.9-33.1l41.5-9.9l-56.9,40.8l7.9,11.4l56.1-40.1l13.7-0.5l-69.7,56.6l-4.5,10.5l88.1-58.3l7.5,8l-131.2,80.6
	l-1.1,16.5l136.4-87.6l8,11.3l-146.7,95.6l2.1,16.3l144.7-94.9l3.9,16.7c0,0-145,93.1-144.5,94s3.5,15.3,3.5,15.3l141-93.9
	l-2.5,13.6c0,0-133.4,97.3-134.4,98.1s2.5,11.2,2.8,11.9s127.9-92,127.9-92l-4.8,20.3l-114.5,85.5l7.6,15.4c0,0,103.3-84.5,104.3-83
	c0.9,1.5-17.2,34.2-17.2,34.2l-77.3,58l7.2,6.4l66.6-47.5l-9.1,21.4l-46.5,36.1c0,0,4.9,7,5.3,7.1s22.2-18.9,24.3-19.3
	c2.1-0.3-3.9,24.8-3.9,24.8l-14.7,5.5l-11,14.3l32.1-4.6l0.2,12.6l-8.8,6.4l-20.9-3.4l-2.9-0.8l-0.9,1.7"/>
<polyline fill="none" stroke="#000000" stroke-width="20" stroke-linecap="round" stroke-linejoin="round" stroke-miterlimit="10" stroke-opacity="0" points="
	190.7,438.6 189.1,454.7 203.5,436.5 200,455.7 206.2,455.7 215.3,438.1 223.4,440.9 217.1,455.1 223.4,455.7 223.4,451.3 "/>
<path fill="none" stroke="#000000" stroke-width="20" stroke-linecap="round" stroke-linejoin="round" stroke-miterlimit="10" stroke-opacity="0" d="
	M161.9,395.1c-1.6,1.3-27.4,23-27.4,23l-8.1,12.8c0,0,44.4-24.4,45.3-25.8s40.2-12.2,40.2-12.2s-93.1,50.3-92.8,53.2
	c0.3,2.9-1.7,16.9-1.7,16.9l107.4-57.9l11.1,5.5l-115.3,65.6l12.1,8l109.5-58.4l4.2,9.3L142,493.6l9.6,9.3l96.6-54.9v13.6l-78.1,47
	h14.4c0,0,58.6-35.2,59.7-35.9s4,6.6,4,6.6l-37.9,25.9l37.9-13.6L235,511.2l14.9-7.3"/>
</svg>
