<?xml version="1.0" encoding="utf-8"?>
<!-- Generator: Adobe Illustrator 24.0.3, SVG Export Plug-In . SVG Version: 6.00 Build 0)  -->
<svg version="1.1" id="Layer_1" xmlns="http://www.w3.org/2000/svg" xmlns:xlink="http://www.w3.org/1999/xlink" x="0px" y="0px"
	 width="1000px" height="1000px" viewBox="0 0 1000 1000" enable-background="new 0 0 1000 1000" xml:space="preserve">
<g>
	<path fill="none" stroke="#000000" stroke-width="5" stroke-linecap="round" stroke-linejoin="round" stroke-miterlimit="10" d="
		M523.8,188.9"/>
	<path fill="none" stroke="#000000" stroke-width="5" stroke-linecap="round" stroke-linejoin="round" stroke-miterlimit="10" d="
		M525.6,177.8"/>
	<path fill="none" stroke="#000000" stroke-width="5" stroke-linecap="round" stroke-linejoin="round" stroke-miterlimit="10" d="
		M419.7,177.8c-18.6,33.4,31.6,68.7,55.7,89.2"/>
	<path fill="none" stroke="#000000" stroke-width="5" stroke-linecap="round" stroke-linejoin="round" stroke-miterlimit="10" d="
		M473.6,267c5.6,1.9,13.1,3.7,20.5,1.9"/>
	<path fill="none" stroke="#000000" stroke-width="5" stroke-linecap="round" stroke-linejoin="round" stroke-miterlimit="10" d="
		M492.2,268.8c27.9-14.8,59.4-61.3,61.3-94.7"/>
	<path fill="none" stroke="#000000" stroke-width="5" stroke-linecap="round" stroke-linejoin="round" stroke-miterlimit="10" d="
		M546,168.4c3.7,1.9,7.4,5.6,9.3,9.3"/>
	<path fill="none" stroke="#000000" stroke-width="5" stroke-linecap="round" stroke-linejoin="round" stroke-miterlimit="10" d="
		M553.5,149.9c11.1-39,40.8,31.6-1.9,26"/>
	<path fill="none" stroke="#000000" stroke-width="5" stroke-linecap="round" stroke-linejoin="round" stroke-miterlimit="10" d="
		M544.3,116.5c3.7,3.7,11.1,20.5,11.1,33.4"/>
	<path fill="none" stroke="#000000" stroke-width="5" stroke-linecap="round" stroke-linejoin="round" stroke-miterlimit="10" d="
		M538.6,114.5c-3.7,7.4-40.8,31.6-57.6,40.8c18.6-11.1,39-29.7,46.5-50.2"/>
	<path fill="none" stroke="#000000" stroke-width="5" stroke-linecap="round" stroke-linejoin="round" stroke-miterlimit="10" d="
		M525.6,103.4c-24.1,16.8-48.2,33.5-76.2,44.7c14.8-5.6,29.7-16.8,42.8-27.9"/>
	<path fill="none" stroke="#000000" stroke-width="5" stroke-linecap="round" stroke-linejoin="round" stroke-miterlimit="10" d="
		M423.4,168.4"/>
	<path fill="none" stroke="#000000" stroke-width="5" stroke-linecap="round" stroke-linejoin="round" stroke-miterlimit="10" d="
		M414.2,159.2c-1.8,1.9,0,11.1,3.7,16.8"/>
	<path fill="none" stroke="#000000" stroke-width="5" stroke-linecap="round" stroke-linejoin="round" stroke-miterlimit="10" d="
		M371.5,155.5"/>
	<path fill="none" stroke="#000000" stroke-width="5" stroke-linecap="round" stroke-linejoin="round" stroke-miterlimit="10" d="
		M486.7,112.8c0,0-3.7,9.3-9.3,18.6"/>
	<path fill="none" stroke="#000000" stroke-width="5" stroke-linecap="round" stroke-linejoin="round" stroke-miterlimit="10" d="
		M488.4,118.4c-16.6-9.3-77.9,40.8-89.2,59.4"/>
	<path fill="none" stroke="#000000" stroke-width="5" stroke-linecap="round" stroke-linejoin="round" stroke-miterlimit="10" d="
		M403.1,172.1c0,5.6,3.7,14.8,9.3,22.3"/>
	<path fill="none" stroke="#000000" stroke-width="5" stroke-linecap="round" stroke-linejoin="round" stroke-miterlimit="10" d="
		M401.2,175.8c-5.6,3.7-7.4,9.3-3.7,14.8"/>
	<path fill="none" stroke="#000000" stroke-width="5" stroke-linecap="round" stroke-linejoin="round" stroke-miterlimit="10" d="
		M412.3,179.6c1.8-1.9,3.7-1.9,7.4-1.9"/>
	<path fill="none" stroke="#000000" stroke-width="5" stroke-linecap="round" stroke-linejoin="round" stroke-miterlimit="10" d="
		M562.8,155.5c1.9-3.7,5.6-1.9,3.7-7.4c-5.6,1.9-11.1,11.1-13.1,13.1"/>
	<path fill="none" stroke="#000000" stroke-width="5" stroke-linecap="round" stroke-linejoin="round" stroke-miterlimit="10" d="
		M562.8,166.6c0-3.7-1.9-7.4-1.9-11.1"/>
	<path fill="none" stroke="#000000" stroke-width="5" stroke-linecap="round" stroke-linejoin="round" stroke-miterlimit="10" d="
		M553.5,103.4c9.3,3.7,26,24.2,18.6,42.8"/>
	<path fill="none" stroke="#000000" stroke-width="5" stroke-linecap="round" stroke-linejoin="round" stroke-miterlimit="10" d="
		M551.7,97.9c27.8-46.5-83.7-55.8-113.4-42.8c-65,29.7-55.7,74.4-74.2,130"/>
	<path fill="none" stroke="#000000" stroke-width="5" stroke-linecap="round" stroke-linejoin="round" stroke-miterlimit="10" d="
		M395.5,183.3c-5.6,5.6-9.3,27.9,1.8,37.1"/>
	<path fill="none" stroke="#000000" stroke-width="5" stroke-linecap="round" stroke-linejoin="round" stroke-miterlimit="10" d="
		M369.5,174.1c-9.3,22.3,18.6,52,33.4,68.7"/>
	<path fill="none" stroke="#000000" stroke-width="5" stroke-linecap="round" stroke-linejoin="round" stroke-miterlimit="10" d="
		M462.5,257.6c3.7,5.6,0,26-7.4,37.1"/>
	<path fill="none" stroke="#000000" stroke-width="5" stroke-linecap="round" stroke-linejoin="round" stroke-miterlimit="10" d="
		M505.2,265.1c-1.9,7.4-5.6,26,7.4,35.3"/>
	<path fill="none" stroke="#000000" stroke-width="5" stroke-linecap="round" stroke-linejoin="round" stroke-miterlimit="10" d="
		M436.5,172.1c1.9-7.4,14.8-14.8,26-5.6"/>
	<path fill="none" stroke="#000000" stroke-width="5" stroke-linecap="round" stroke-linejoin="round" stroke-miterlimit="10" d="
		M455,164.7c-1.9,1.9-9.3,16.8,1.9,26c7.4-7.4,7.4-18.6,1.9-26"/>
	<path fill="none" stroke="#000000" stroke-width="5" stroke-linecap="round" stroke-linejoin="round" stroke-miterlimit="10" d="
		M451.3,177.8c1.9,0,3.7,5.6,13.1,0c-1.8,1.9-3.7,3.7-7.4,5.6c1.9,0-1.9-3.7,0-1.9c-1.9,0-1.9,1.9-1.9,3.7c0,0,7.4,0,5.6-3.7
		c-5.6,1.9-5.6,1.9-1.9,5.6"/>
	<path fill="none" stroke="#000000" stroke-width="5" stroke-linecap="round" stroke-linejoin="round" stroke-miterlimit="10" d="
		M505.2,164.7c1.9-5.6,16.8-7.4,24.2-1.9"/>
	<path fill="none" stroke="#000000" stroke-width="5" stroke-linecap="round" stroke-linejoin="round" stroke-miterlimit="10" d="
		M507,164.7c-1.9,3.7-5.6,20.5,5.6,24.2c7.4-9.3,7.4-18.6,1.9-27.9"/>
	<path fill="none" stroke="#000000" stroke-width="5" stroke-linecap="round" stroke-linejoin="round" stroke-miterlimit="10" d="
		M508.9,174.1c-3.7-1.9,1.9,3.7,1.9,3.7c1.9,0,3.7-1.9,5.6-1.9c-5.6,1.9-3.7,3.7-5.6,5.6c1.9,0,3.7-1.9,3.7-3.7
		c-5.6,1.9-7.4,0-1.9,3.7c-5.6,7.4,1.9,3.7,3.7,5.6"/>
	<path fill="none" stroke="#000000" stroke-width="5" stroke-linecap="round" stroke-linejoin="round" stroke-miterlimit="10" d="
		M529.3,161c-7.4,1.9,5.6-3.7,7.4-5.6"/>
	<path fill="none" stroke="#000000" stroke-width="5" stroke-linecap="round" stroke-linejoin="round" stroke-miterlimit="10" d="
		M527.5,153.6c5.6-5.6-3.7,3.7-5.6,5.6"/>
	<path fill="none" stroke="#000000" stroke-width="5" stroke-linecap="round" stroke-linejoin="round" stroke-miterlimit="10" d="
		M432.8,162.9c1.9-1.9,5.6,1.9,9.3,3.7"/>
	<path fill="none" stroke="#000000" stroke-width="5" stroke-linecap="round" stroke-linejoin="round" stroke-miterlimit="10" d="
		M429.1,170.3c3.7,0,7.4,0,11.1,0"/>
	<path fill="none" stroke="#000000" stroke-width="5" stroke-linecap="round" stroke-linejoin="round" stroke-miterlimit="10" d="
		M429.1,153.6c11.1-5.6,24.2-11.1,37.1-7.4"/>
	<path fill="none" stroke="#000000" stroke-width="5" stroke-linecap="round" stroke-linejoin="round" stroke-miterlimit="10" d="
		M507,140.7c7.4-3.7,26-1.9,33.4,7.4"/>
	<path fill="none" stroke="#000000" stroke-width="5" stroke-linecap="round" stroke-linejoin="round" stroke-miterlimit="10" d="
		M492.2,185.2c0,1.4,3.6,15.9,15.8,18.7"/>
	<path fill="none" stroke="#000000" stroke-width="5" stroke-linecap="round" stroke-linejoin="round" stroke-miterlimit="10" d="
		M496.8,212.1c1.9-1.9,5.6-3.7,9.3-5.6"/>
	<path fill="none" stroke="#000000" stroke-width="5" stroke-linecap="round" stroke-linejoin="round" stroke-miterlimit="10" d="
		M449.4,192.6c3.7-1.9,7.4-1.9,13.1-1.9"/>
	<path fill="none" stroke="#000000" stroke-width="5" stroke-linecap="round" stroke-linejoin="round" stroke-miterlimit="10" d="
		M508.9,190.8c3.7,0,9.3,0,13.1,1.9"/>
	<path fill="none" stroke="#000000" stroke-width="5" stroke-linecap="round" stroke-linejoin="round" stroke-miterlimit="10" d="
		M536.7,235.4c16.8,13.1,27.9,33.4,29.7,55.7c-3.7-7.4-9.3-11.1-13.1-16.8"/>
	<path fill="none" stroke="#000000" stroke-width="5" stroke-linecap="round" stroke-linejoin="round" stroke-miterlimit="10" d="
		M512.6,279.9c9.3,20.5-14.8,20.5-26,33.4c-20.5,24.2-11.1,55.7,16.8,70.7"/>
	<path fill="none" stroke="#000000" stroke-width="5" stroke-linecap="round" stroke-linejoin="round" stroke-miterlimit="10" d="
		M555.4,276.2c5.6,16.8,5.6,59.4-22.3,52"/>
	<path fill="none" stroke="#000000" stroke-width="5" stroke-linecap="round" stroke-linejoin="round" stroke-miterlimit="10" d="
		M538.6,328.3c-7.4,1.9-22.3-1.9-31.6,1.9c-22.3,11.1-35.3,40.8-9.3,55.7"/>
	<path fill="none" stroke="#000000" stroke-width="5" stroke-linecap="round" stroke-linejoin="round" stroke-miterlimit="10" d="
		M455,291c-14.8,16.8-40.8,14.8-59.4,29.7"/>
	<path fill="none" stroke="#000000" stroke-width="5" stroke-linecap="round" stroke-linejoin="round" stroke-miterlimit="10" d="
		M399.2,239.1c20.5,14.8,40.8,39,52,61.3"/>
	<path fill="none" stroke="#000000" stroke-width="5" stroke-linecap="round" stroke-linejoin="round" stroke-miterlimit="10" d="
		M403.1,185.2c-9.3,7.4-9.3,24.2-1.9,35.3"/>
	<path fill="none" stroke="#000000" stroke-width="5" stroke-linecap="round" stroke-linejoin="round" stroke-miterlimit="10" d="
		M393.7,207.5c1.9,13.1,5.6,27.9,16.8,39"/>
	<path fill="none" stroke="#000000" stroke-width="5" stroke-linecap="round" stroke-linejoin="round" stroke-miterlimit="10" d="
		M419.7,352.3c5.6-7.4,44.5-5.6,59.4-9.3"/>
	<path fill="none" stroke="#000000" stroke-width="5" stroke-linecap="round" stroke-linejoin="round" stroke-miterlimit="10" d="
		M495.9,343.1c5.6,0,39,0,52,0"/>
	<path fill="none" stroke="#000000" stroke-width="5" stroke-linecap="round" stroke-linejoin="round" stroke-miterlimit="10" d="
		M443.9,486.1c1.9,24.2,65,11.1,81.8,1.8"/>
	<path fill="none" stroke="#000000" stroke-width="5" stroke-linecap="round" stroke-linejoin="round" stroke-miterlimit="10" d="
		M429.1,335.7c0,7.4-3.7,14.8-9.3,20.5"/>
	<path fill="none" stroke="#000000" stroke-width="5" stroke-linecap="round" stroke-linejoin="round" stroke-miterlimit="10" d="
		M557.2,309.6c1.9-1.9,5.6-1.9,9.3,0"/>
	<path fill="none" stroke="#000000" stroke-width="5" stroke-linecap="round" stroke-linejoin="round" stroke-miterlimit="10" d="
		M525.6,489.8c0-5.6,0,13.1,0,14.8"/>
	<path fill="none" stroke="#000000" stroke-width="5" stroke-linecap="round" stroke-linejoin="round" stroke-miterlimit="10" d="
		M419.7,352.3c14.8,1.9,37.1-1.9,55.7-1.9"/>
	<path fill="none" stroke="#000000" stroke-width="5" stroke-linecap="round" stroke-linejoin="round" stroke-miterlimit="10" d="
		M495.9,352.3c7.4,0,39,0,53.9-1.9"/>
	<path fill="none" stroke="#000000" stroke-width="5" stroke-linecap="round" stroke-linejoin="round" stroke-miterlimit="10" d="
		M440.2,486.1c3.7,0,1.9,11.1,0,18.6"/>
	<path fill="none" stroke="#000000" stroke-width="5" stroke-linecap="round" stroke-linejoin="round" stroke-miterlimit="10" d="
		M440.2,499.2c11.1,16.8,65,11.1,87.3-1.9"/>
	<path fill="none" stroke="#000000" stroke-width="5" stroke-linecap="round" stroke-linejoin="round" stroke-miterlimit="10" d="
		M447.6,497.2c5.6-3.7,3.7,3.7,1.8,9.3"/>
	<path fill="none" stroke="#000000" stroke-width="5" stroke-linecap="round" stroke-linejoin="round" stroke-miterlimit="10" d="
		M460.5,499.2c3.7,1.9,3.7,5.6,1.9,9.3"/>
	<path fill="none" stroke="#000000" stroke-width="5" stroke-linecap="round" stroke-linejoin="round" stroke-miterlimit="10" d="
		M473.6,499.2c3.7,0,3.7,5.6,1.9,9.3"/>
	<path fill="none" stroke="#000000" stroke-width="5" stroke-linecap="round" stroke-linejoin="round" stroke-miterlimit="10" d="
		M488.4,499.2c0-5.6,0,7.4,0,7.4"/>
	<path fill="none" stroke="#000000" stroke-width="5" stroke-linecap="round" stroke-linejoin="round" stroke-miterlimit="10" d="
		M503.3,495.4c1.9,1.9,1.9,5.6,3.7,7.4"/>
	<path fill="none" stroke="#000000" stroke-width="5" stroke-linecap="round" stroke-linejoin="round" stroke-miterlimit="10" d="
		M520.1,493.5c-1.9-3.7,1.9,5.6,1.9,7.4"/>
	<path fill="none" stroke="#000000" stroke-width="5" stroke-linecap="round" stroke-linejoin="round" stroke-miterlimit="10" d="
		M490.4,510.3c0,1.9-5.6,1.9-1.9,9.3c11.1-1.9,7.4-7.4,7.4-13.1"/>
	<path fill="none" stroke="#000000" stroke-width="5" stroke-linecap="round" stroke-linejoin="round" stroke-miterlimit="10" d="
		M495.9,515.8c5.6,1.9,9.3,22.3,11.1,35.3"/>
	<path fill="none" stroke="#000000" stroke-width="5" stroke-linecap="round" stroke-linejoin="round" stroke-miterlimit="10" d="
		M490.4,517.7c3.7,9.3,9.3,20.5,9.3,31.6"/>
	<path fill="none" stroke="#000000" stroke-width="5" stroke-linecap="round" stroke-linejoin="round" stroke-miterlimit="10" d="
		M497.8,547.4c3.7,0,9.3,0,13.1,1.9"/>
	<path fill="none" stroke="#000000" stroke-width="5" stroke-linecap="round" stroke-linejoin="round" stroke-miterlimit="10" d="
		M486.7,515.8c-3.7,1.9-11.1,18.6-11.1,29.7"/>
	<path fill="none" stroke="#000000" stroke-width="5" stroke-linecap="round" stroke-linejoin="round" stroke-miterlimit="10" d="
		M492.2,517.7c-1.9,1.9-11.1,20.5-13.1,27.9"/>
	<path fill="none" stroke="#000000" stroke-width="5" stroke-linecap="round" stroke-linejoin="round" stroke-miterlimit="10" d="
		M475.5,543.7c1.9,0,3.7,1.9,5.6,1.9"/>
	<path fill="none" stroke="#000000" stroke-width="5" stroke-linecap="round" stroke-linejoin="round" stroke-miterlimit="10" d="
		M443.9,493.5c-16.8,24.2-29.7,61.3-27.9,92.9"/>
	<path fill="none" stroke="#000000" stroke-width="5" stroke-linecap="round" stroke-linejoin="round" stroke-miterlimit="10" d="
		M414.2,586.4c22.3,18.6,42.8,27.9,72.4,22.3"/>
	<path fill="none" stroke="#000000" stroke-width="5" stroke-linecap="round" stroke-linejoin="round" stroke-miterlimit="10" d="
		M416,588.2c0-1.9,0-5.6-1.9-7.4c-7.4,1.9-7.4,1.9-13.1,7.4c3.7,1.8,7.4,5.6,11.1,7.4"/>
	<path fill="none" stroke="#000000" stroke-width="5" stroke-linecap="round" stroke-linejoin="round" stroke-miterlimit="10" d="
		M406.8,595.7c-1.9,1.9-3.7,13.1-1.9,22.3"/>
	<path fill="none" stroke="#000000" stroke-width="5" stroke-linecap="round" stroke-linejoin="round" stroke-miterlimit="10" d="
		M399.2,614.4c26,22.3,72.4,14.8,105.8,20.5"/>
	<path fill="none" stroke="#000000" stroke-width="5" stroke-linecap="round" stroke-linejoin="round" stroke-miterlimit="10" d="
		M490.4,610.6c3.7,0,9.3,3.7,13.1,3.7c1.9,3.7,1.9,7.4,1.9,11.1"/>
	<path fill="none" stroke="#000000" stroke-width="5" stroke-linecap="round" stroke-linejoin="round" stroke-miterlimit="10" d="
		M531.1,489.8c45.6,26.9,59.4,88.3,45.6,122.6"/>
	<path fill="none" stroke="#000000" stroke-width="5" stroke-linecap="round" stroke-linejoin="round" stroke-miterlimit="10" d="
		M514.4,614.4c20.5,7.4,50.2,1.9,70.5-9.3"/>
	<path fill="none" stroke="#000000" stroke-width="5" stroke-linecap="round" stroke-linejoin="round" stroke-miterlimit="10" d="
		M581.4,597.6c5.6-1.9,5.6,3.7,5.6,9.3"/>
	<path fill="none" stroke="#000000" stroke-width="5" stroke-linecap="round" stroke-linejoin="round" stroke-miterlimit="10" d="
		M583.2,595.7c1.8,0,5.6,0,7.4,0c1.9,7.4,3.7,18.6,3.7,27.9"/>
	<path fill="none" stroke="#000000" stroke-width="5" stroke-linecap="round" stroke-linejoin="round" stroke-miterlimit="10" d="
		M508.9,631c29.7,14.8,59.4-1.9,89.2-9.3"/>
	<path fill="none" stroke="#000000" stroke-width="5" stroke-linecap="round" stroke-linejoin="round" stroke-miterlimit="10" d="
		M512.6,612.4c-3.7-1.9-3.7-3.7-7.4-3.7c0,5.6-1.9,11.1,0,16.8"/>
	<path fill="none" stroke="#000000" stroke-width="5" stroke-linecap="round" stroke-linejoin="round" stroke-miterlimit="10" d="
		M488.4,553c1.9,0,3.7,44.5,11.1,57.6"/>
	<path fill="none" stroke="#000000" stroke-width="5" stroke-linecap="round" stroke-linejoin="round" stroke-miterlimit="10" d="
		M479.2,569.7c0,5.6,9.3,16.8,14.8,26"/>
	<path fill="none" stroke="#000000" stroke-width="5" stroke-linecap="round" stroke-linejoin="round" stroke-miterlimit="10" d="
		M484.7,616.1c3.7,1.9,7.4,1.9,9.3,3.7"/>
	<path fill="none" stroke="#000000" stroke-width="5" stroke-linecap="round" stroke-linejoin="round" stroke-miterlimit="10" d="
		M421.6,534.5c9.3-1.9,26-14.8,35.3-24.2"/>
	<path fill="none" stroke="#000000" stroke-width="5" stroke-linecap="round" stroke-linejoin="round" stroke-miterlimit="10" d="
		M421.6,541.9c13.1-1.9,39-22.3,53.9-33.4"/>
	<path fill="none" stroke="#000000" stroke-width="5" stroke-linecap="round" stroke-linejoin="round" stroke-miterlimit="10" d="
		M531.2,506.6c1.8,5.6,18.6,16.8,29.7,20.5"/>
	<path fill="none" stroke="#000000" stroke-width="5" stroke-linecap="round" stroke-linejoin="round" stroke-miterlimit="10" d="
		M514.4,504.7c16.8,16.8,33.4,33.4,59.4,33.4"/>
	<path fill="none" stroke="#000000" stroke-width="5" stroke-linecap="round" stroke-linejoin="round" stroke-miterlimit="10" d="
		M536.7,222.3c11.1,3.7,20.5,13.1,27.9,20.5c-7.4-3.7-18.6-7.4-27.9-11.1"/>
	<path fill="none" stroke="#000000" stroke-width="5" stroke-linecap="round" stroke-linejoin="round" stroke-miterlimit="10" d="
		M518.1,638.1c-1.8,10.6,16.8,48.5,24.2,67.5"/>
	<path fill="none" stroke="#000000" stroke-width="5" stroke-linecap="round" stroke-linejoin="round" stroke-miterlimit="10" d="
		M573.9,625.5c3.7,19,5.6,48.5,3.7,69.7"/>
	<path fill="none" stroke="#000000" stroke-width="5" stroke-linecap="round" stroke-linejoin="round" stroke-miterlimit="10" d="
		M536.7,701.4c0,35.9,14.8,76,24.2,118.2"/>
	<path fill="none" stroke="#000000" stroke-width="5" stroke-linecap="round" stroke-linejoin="round" stroke-miterlimit="10" d="
		M579.4,693c14.8,42.2,14.8,103.4,14.8,156.2"/>
	<path fill="none" stroke="#000000" stroke-width="5" stroke-linecap="round" stroke-linejoin="round" stroke-miterlimit="10" d="
		M557.2,804.9c3.7,14.7,7.4,27.5,11.1,42.2"/>
	<path fill="none" stroke="#000000" stroke-width="5" stroke-linecap="round" stroke-linejoin="round" stroke-miterlimit="10" d="
		M564.6,840.8c1.9,10.6,1.9,21.2,1.9,31.6"/>
	<path fill="none" stroke="#000000" stroke-width="5" stroke-linecap="round" stroke-linejoin="round" stroke-miterlimit="10" d="
		M566.5,868.2c9.3,19,22.3,35.9,27.9,54.8"/>
	<path fill="none" stroke="#000000" stroke-width="5" stroke-linecap="round" stroke-linejoin="round" stroke-miterlimit="10" d="
		M590.6,916.8c5.6,12.6,22.3,6.3,29.7-4.3"/>
	<path fill="none" stroke="#000000" stroke-width="5" stroke-linecap="round" stroke-linejoin="round" stroke-miterlimit="10" d="
		M594.3,842.8c1.9,27.5,26,48.5,39,67.5"/>
	<path fill="none" stroke="#000000" stroke-width="5" stroke-linecap="round" stroke-linejoin="round" stroke-miterlimit="10" d="
		M633.3,910.4c7.4,16.9-1.9,31.6-14.8,40.1"/>
	<path fill="none" stroke="#000000" stroke-width="5" stroke-linecap="round" stroke-linejoin="round" stroke-miterlimit="10" d="
		M568.3,870.3c0,2.1,1.9,27.5,3.7,33.8"/>
	<path fill="none" stroke="#000000" stroke-width="5" stroke-linecap="round" stroke-linejoin="round" stroke-miterlimit="10" d="
		M570.2,897.8c5.6,12.6,14.8,25.3,22.3,37.9"/>
	<path fill="none" stroke="#000000" stroke-width="5" stroke-linecap="round" stroke-linejoin="round" stroke-miterlimit="10" d="
		M590.6,935.7c5.6,14.8,20.5,16.9,35.3,12.6"/>
	<path fill="none" stroke="#000000" stroke-width="5" stroke-linecap="round" stroke-linejoin="round" stroke-miterlimit="10" d="
		M488.4,631c0,0-1.9,55-3.7,70"/>
	<path fill="none" stroke="#000000" stroke-width="5" stroke-linecap="round" stroke-linejoin="round" stroke-miterlimit="10" d="
		M419.7,627.5c5.6,25.3,14.8,50.7,22.3,73.8"/>
	<path fill="none" stroke="#000000" stroke-width="5" stroke-linecap="round" stroke-linejoin="round" stroke-miterlimit="10" d="
		M482.9,693c14.8,40.1,1.9,114,3.7,164.7"/>
	<path fill="none" stroke="#000000" stroke-width="5" stroke-linecap="round" stroke-linejoin="round" stroke-miterlimit="10" d="
		M438.3,695c-1.9,54.8,5.6,107.6,16.8,162.5"/>
	<path fill="none" stroke="#000000" stroke-width="5" stroke-linecap="round" stroke-linejoin="round" stroke-miterlimit="10" d="
		M451.3,853.4c-9.3,25.3-37.1,40.1-27.9,71.8"/>
	<path fill="none" stroke="#000000" stroke-width="5" stroke-linecap="round" stroke-linejoin="round" stroke-miterlimit="10" d="
		M423.4,914.6c1.9,23.2,31.6,10.6,42.8-2.1"/>
	<path fill="none" stroke="#000000" stroke-width="5" stroke-linecap="round" stroke-linejoin="round" stroke-miterlimit="10" d="
		M448.9,924.3c20.9-3.7,26.1-37,47.7-46.9"/>
	<path fill="none" stroke="#000000" stroke-width="5" stroke-linecap="round" stroke-linejoin="round" stroke-miterlimit="10" d="
		M486.7,857.7c0,0,9.3,12.6,11.1,21.2"/>
	
		<line fill="none" stroke="#000000" stroke-width="5" stroke-linecap="round" stroke-linejoin="round" stroke-miterlimit="10" x1="425.3" y1="897.8" x2="425.3" y2="895.6"/>
	<path fill="none" stroke="#000000" stroke-width="5" stroke-linecap="round" stroke-linejoin="round" stroke-miterlimit="10" d="
		M434.6,887.2c-3.7,12.6,7.4,19,20.5,12.6"/>
	<path fill="none" stroke="#000000" stroke-width="5" stroke-linecap="round" stroke-linejoin="round" stroke-miterlimit="10" d="
		M455,901.9c5.6-10.6,24.2-29.6,33.4-44.3"/>
	<path fill="none" stroke="#000000" stroke-width="5" stroke-linecap="round" stroke-linejoin="round" stroke-miterlimit="10" d="
		M495.9,614.4c-1.9-3.7,3.7,16.8,5.6,22.3"/>
	<path fill="none" stroke="#000000" stroke-width="5" stroke-linecap="round" stroke-linejoin="round" stroke-miterlimit="10" d="
		M471.4,225.2c2.7,11.8,36.2,8.4,41.8-1.4"/>
	<path fill="none" stroke="#000000" stroke-width="5" stroke-linecap="round" stroke-linejoin="round" stroke-miterlimit="10" d="
		M497,376.4c-5.6-5.6,16.8-14.8,29.7-18.6c26-5.6,46.5-3.7,40.8,26c-5.6,40.8-68.7,74.4-96.6,102.1"/>
	<path fill="none" stroke="#000000" stroke-width="5" stroke-linecap="round" stroke-linejoin="round" stroke-miterlimit="10" d="
		M487.6,372.7c-18.6-5.6-39-18.6-61.3-13.1c-52,11.1-20.5,52,5.6,74.4"/>
	<path fill="none" stroke="#000000" stroke-width="5" stroke-linecap="round" stroke-linejoin="round" stroke-miterlimit="10" d="
		M394.8,320.7c3.7,35.3-24.2,83.6-24.2,124.4"/>
	<path fill="none" stroke="#000000" stroke-width="5" stroke-linecap="round" stroke-linejoin="round" stroke-miterlimit="10" d="
		M368.7,448.8c16.8,11.1,44.5,35.3,74.4,35.3"/>
	<path fill="none" stroke="#000000" stroke-width="5" stroke-linecap="round" stroke-linejoin="round" stroke-miterlimit="10" d="
		M441.2,482.4c20.5,0,42.8-24.2,46.5-44.5"/>
	<path fill="none" stroke="#000000" stroke-width="5" stroke-linecap="round" stroke-linejoin="round" stroke-miterlimit="10" d="
		M431.9,441.4c-1.9-13.1,11.1-24.2,22.3-31.6"/>
	<path fill="none" stroke="#000000" stroke-width="5" stroke-linecap="round" stroke-linejoin="round" stroke-miterlimit="10" d="
		M450.5,413.7c1.9-3.7,5.6-5.6,9.3-1.9"/>
	<path fill="none" stroke="#000000" stroke-width="5" stroke-linecap="round" stroke-linejoin="round" stroke-miterlimit="10" d="
		M461.6,411.7c0-3.7,0,3.7,0,5.6"/>
	<path fill="none" stroke="#000000" stroke-width="5" stroke-linecap="round" stroke-linejoin="round" stroke-miterlimit="10" d="
		M459.7,415.4c0,0-9.3,11.1-11.1,18.6"/>
	<path fill="none" stroke="#000000" stroke-width="5" stroke-linecap="round" stroke-linejoin="round" stroke-miterlimit="10" d="
		M450.5,435.9c11.1-9.3,20.5-22.3,26-35.3"/>
	<path fill="none" stroke="#000000" stroke-width="5" stroke-linecap="round" stroke-linejoin="round" stroke-miterlimit="10" d="
		M476.5,402.4c5.6,0,5.6,7.4,1.9,16.8"/>
	<path fill="none" stroke="#000000" stroke-width="5" stroke-linecap="round" stroke-linejoin="round" stroke-miterlimit="10" d="
		M480.2,413.7c1.9-7.4,1.9-13.1,13.1-11.1c0,3.7-3.7,7.4-3.7,9.3"/>
	<path fill="none" stroke="#000000" stroke-width="5" stroke-linecap="round" stroke-linejoin="round" stroke-miterlimit="10" d="
		M491.3,408c-1.9,7.4-5.6,14.8-9.3,22.3"/>
	<path fill="none" stroke="#000000" stroke-width="5" stroke-linecap="round" stroke-linejoin="round" stroke-miterlimit="10" d="
		M487.6,421.1c1.9-1.9,0-5.6,7.4-3.7c0,5.6-3.7,9.3-5.6,14.8"/>
	<path fill="none" stroke="#000000" stroke-width="5" stroke-linecap="round" stroke-linejoin="round" stroke-miterlimit="10" d="
		M491.3,426.6c0,9.3-3.7,20.5-9.3,29.7"/>
	<path fill="none" stroke="#000000" stroke-width="5" stroke-linecap="round" stroke-linejoin="round" stroke-miterlimit="10" d="
		M431.9,435.9c0,5.6,1.9,13.1,3.7,18.6"/>
	<path fill="none" stroke="#000000" stroke-width="5" stroke-linecap="round" stroke-linejoin="round" stroke-miterlimit="10" d="
		M402.3,428.5c3.7,3.7,26,18.6,37.1,22.3"/>
	<path fill="none" stroke="#000000" stroke-width="5" stroke-linecap="round" stroke-linejoin="round" stroke-miterlimit="10" d="
		M407.8,415.4c-1.9,5.6-1.9,13.1-3.7,18.6"/>
	<path fill="none" stroke="#000000" stroke-width="5" stroke-linecap="round" stroke-linejoin="round" stroke-miterlimit="10" d="
		M391,437.7c3.7-3.7,11.1-9.3,18.6-11.1"/>
	<path fill="none" stroke="#000000" stroke-width="5" stroke-linecap="round" stroke-linejoin="round" stroke-miterlimit="10" d="
		M565.7,307.7c29.7,31.6,44.5,85.5,46.5,128.1"/>
	<path fill="none" stroke="#000000" stroke-width="5" stroke-linecap="round" stroke-linejoin="round" stroke-miterlimit="10" d="
		M469.1,475c-1.9-1.9,3.7,7.4,5.6,9.3c-1.9,1.9-1.9-1.9-5.6-1.9"/>
	<path fill="none" stroke="#000000" stroke-width="5" stroke-linecap="round" stroke-linejoin="round" stroke-miterlimit="10" d="
		M526.7,469.3c27.9,1.9,66.8-9.3,85.5-31.6"/>
	<path fill="none" stroke="#000000" stroke-width="5" stroke-linecap="round" stroke-linejoin="round" stroke-miterlimit="10" d="
		M493.3,471.1c9.3,7.4,20.5,1.9,29.7-7.4"/>
	<path fill="none" stroke="#000000" stroke-width="5" stroke-linecap="round" stroke-linejoin="round" stroke-miterlimit="10" d="
		M513.6,471.1c3.7-1.9,7.4-3.7,13.1-3.7"/>
	<path fill="none" stroke="#000000" stroke-width="5" stroke-linecap="round" stroke-linejoin="round" stroke-miterlimit="10" d="
		M528.4,473c-1.9,1.9,3.7,16.8,16.8,20.5"/>
	<path fill="none" stroke="#000000" stroke-width="5" stroke-linecap="round" stroke-linejoin="round" stroke-miterlimit="10" d="
		M552.6,344.9c-1.9-5.6,1.9,3.7,1.9,7.4"/>
	<path fill="none" stroke="#000000" stroke-width="5" stroke-linecap="round" stroke-linejoin="round" stroke-miterlimit="10" d="
		M569.4,380.1c3.7,14.8,7.4,29.7,7.4,46.5"/>
	<path fill="none" stroke="#000000" stroke-width="5" stroke-linecap="round" stroke-linejoin="round" stroke-miterlimit="10" d="
		M541.5,443.3c9.3,0,35.3-14.8,50.2-20.5"/>
	<path fill="none" stroke="#000000" stroke-width="5" stroke-linecap="round" stroke-linejoin="round" stroke-miterlimit="10" d="
		M537.8,434c1.9,5.6,5.6,9.3,11.1,9.3"/>
	<path fill="none" stroke="#000000" stroke-width="5" stroke-linecap="round" stroke-linejoin="round" stroke-miterlimit="10" d="
		M548.9,421.1c0-1.9-3.7,16.8-5.6,26"/>
</g>
</svg>
