<?xml version="1.0" encoding="utf-8"?>
<!-- Generator: Adobe Illustrator 15.0.0, SVG Export Plug-In . SVG Version: 6.00 Build 0)  -->
<!DOCTYPE svg PUBLIC "-//W3C//DTD SVG 1.1//EN" "http://www.w3.org/Graphics/SVG/1.1/DTD/svg11.dtd">
<svg version="1.1" id="Layer_1" xmlns="http://www.w3.org/2000/svg" xmlns:xlink="http://www.w3.org/1999/xlink" x="0px" y="0px"
	 width="267.5px" height="252px" viewBox="0 0 267.5 252" enable-background="new 0 0 267.5 252" xml:space="preserve">
<path fill="#FFFFFF" d="M254.917,109.5c-5.334,0.667-12.649,1.294-17.667,1.333c-9.84,0.078-17.726,0.667-27.592,0.667
	c-10.195,0-20.31-0.898-30.479-1.008c-32.106-0.344-64.216,0.057-96.344-0.309c-15.992-0.182-31.971-0.871-47.912-1.932
	c-7.54-0.502-18.801,1.135-25.674-2.085c0,0,6.667,5.667,16.333,12.667s14.333,5.667,14.333,5.667s8.333,12.001,23.333,12.667
	s138.12,1.96,149-1.667c8-2.667,9.667-10,9.667-10c6.791-1.237,12.535-4.188,18.333-7.667L254.917,109.5z"/>
<path fill="none" stroke="#000000" stroke-width="1.5" stroke-linecap="round" stroke-linejoin="round" stroke-miterlimit="10" d="
	M254.917,109.5c-5.334,0.667-12.649,1.294-17.667,1.333c-9.84,0.078-17.726,0.667-27.592,0.667c-10.195,0-20.31-0.898-30.479-1.008
	c-32.106-0.344-64.216,0.057-96.344-0.309c-15.992-0.182-31.971-0.871-47.912-1.932c-7.54-0.502-18.801,1.135-25.674-2.085
	c0,0,6.667,5.667,16.333,12.667s14.333,5.667,14.333,5.667s8.333,12.001,23.333,12.667s138.12,1.96,149-1.667
	c8-2.667,9.667-10,9.667-10c6.791-1.237,12.535-4.188,18.333-7.667L254.917,109.5z"/>
<path fill="none" stroke="#000000" stroke-linecap="round" stroke-linejoin="round" stroke-miterlimit="10" d="M39.917,124.5
	c17.973,0.72,122.273,0.96,140.225,0.721c11.51-0.153,30.463,2.154,41.775,0.279"/>
</svg>
