<?xml version="1.0" encoding="utf-8"?>
<!-- Generator: Adobe Illustrator 21.0.0, SVG Export Plug-In . SVG Version: 6.00 Build 0)  -->
<svg version="1.1" xmlns="http://www.w3.org/2000/svg" xmlns:xlink="http://www.w3.org/1999/xlink" x="0px" y="0px" width="1000px"
	 height="1000px" viewBox="0 0 1000 1000" enable-background="new 0 0 1000 1000" xml:space="preserve">
<g id="vs-highlight">
	<path fill="#27A8CB" d="M272.7,99.9c-15-4.7-28.9,3.4-31.8,5.2c-5.1,3-17.4,11.5-29.6,49.6c-8.4,26.3-16,50-11.3,81.3
		c2.6,17,7.2,47.5,29.6,59.3c14.7,7.7,34.7,6.1,36.3,1.2c1-3-5.2-5.9-11.8-13.5c-8.7-10.1-11.2-20.4-15-37c-6-26.1-4.8-47.8-4-57
		c2.5-29.4,4.1-48.1,18-60c14.6-12.5,34.2-9.9,34.7-17.1C288.1,106.8,278.7,101.8,272.7,99.9z"/>
	<path fill="#27A8CB" d="M321,241c53.9,31.6,86.7,34.6,150,55c63.9,20.6,81.1,33.7,130,45c11.5,2.6,11.3,2.1,54,11
		c28.6,6,37.1,8,51,8c9,0,27,0,45-7c35.6-13.9,52-48.2,57-60c0.6,11.3,0.1,33.5-11.4,57.8c-9.1,19-21.1,31.1-27.1,36.5
		c-22,19.9-49.2,29-68.6,28.2c-3.5-0.1-10.5-0.5-18.6-3.8c-9.6-4-15.1-9.9-18.2-12.7c-10.8-9.8-24.6-11.3-46.6-13.6
		c-36.1-3.8-67.5,6.7-82.4,12.6c-95-29.6-190-59.3-285-88.9c8.2-2.6,21.5-8.2,34-20.1c21.4-20.4,26-45.5,27.2-54
		C313.4,236.4,316.8,238.5,321,241z"/>
	<path fill="#27A8CB" d="M649,393c-2.4,38.9-3.5,71.8-4,97c-0.7,32.8-1.1,53.2,0,82c1.7,43.4,2.5,65.1,6,78c0.6,2.3,4.7,17.2,5,37
		c0.3,17.9-2.7,24.5-4,27c-7.4,14.3-22,19.6-26,21c-3.8,1.4-18.9,6.3-45-2c-37.4-11.9-55.6-37.7-60-34c-3.4,2.8,5.4,19.6,13.1,30.7
		c7.7,11.1,23.9,34.6,56,43.8c11,3.2,31.7,6.8,54.7-1.2c5.2-1.8,20.9-7.8,35-22.6c5.8-6.1,13.9-14.6,17.3-27.6
		c3.1-11.8,0.4-20.2-2-34c-2.5-14.2-0.1-7.4-4-52c-9.1-103.4-24.1-161.9-5.5-193c1.3-2.3,4.9-7.8,4.3-14.9
		C688.7,412.6,668.9,401.1,649,393z"/>
	<path fill="#27A8CB" d="M622,782c4.7,19.3,9.3,38.7,14,58c4.2-1.6,8.5-3.2,12.7-4.8c-1.3-18.7-2.6-37.5-3.9-56.2
		C637.2,780,629.6,781,622,782z"/>
	<path fill="#27A8CB" d="M633,845c0,7,1,28.8,17,47c14.2,16.1,32.6,20.7,42,23c9.4,2.3,16.9,2.6,27,3c19.3,0.7,26.6-1.6,39-2
		c35.4-1.1,58.1,15.7,59.8,12.2c1.4-2.9-13.1-15.5-31.2-21c-8.7-2.7-15.7-2.8-29.6-3.2c-18-0.4-20.1,1.5-37,1
		c-13.4-0.4-21.9-0.6-32-4c-9.3-3.1-22.4-7.5-30-19c-10.5-16-2.6-34-11.6-38.7C642,841,636.4,843.3,633,845z"/>
	<path fill="#27A8CB" d="M256.1,129.1c10.7-11,23.7-15.4,31.6-17.2c5,1.8,11.8,5.1,17.8,11.4c6.1,6.4,12.4,17.1,12.8,48.5
		c0.4,30.1,0.7,52.5-12.6,78.6c-11.7,23-28.2,37.6-39.9,46.1c-2.9-3.2-6.7-8.1-10.4-14.5c-7.5-13.2-9.6-25-11.4-37
		c-4.7-30.9-7.1-46.4-6.6-56C238.5,168.3,239.7,146,256.1,129.1z"/>
	<path fill="#27A8CB" d="M698.3,219.6c-0.9-1-18-19.1-42.5-15.2c-3.6,0.6-15.9,2.7-25.5,13.1c-14.4,15.7-14.9,41.9-2.4,58.9
		c8.6,11.6,20.7,15.6,25.6,16.8c2.6,0.7,22.9,5.5,40.3-8.2c3-2.4,15-12.5,16.9-29.9C712.6,237.5,702.9,224.6,698.3,219.6z M683,259
		c-5.6,9.9-17.7,10-19,10c-5.9,0-14.4-2.4-18-9c-6.1-11.2,3.9-31.1,18-32c8.3-0.5,16.9,5.7,20,14C684.5,243.4,687.3,251.3,683,259z"
		/>
	<path fill="#27A8CB" d="M554,432c11.6,1,23.2,2,34.8,3c-2.6,36.3-5.2,72.6-7.8,109c-12.7,1-25.3,2-38,3
		C546.7,508.7,550.3,470.3,554,432z"/>
	<path fill="#27A8CB" d="M553.2,578.4c7.1-2,14.1,3,17.5,7.5c6.3,8.2,3,18.2,2.4,19.8c-0.6,1.6-3.1,8.9-10.6,12.2
		c-1.6,0.7-6.5,2.9-11.3,1.1c-8.1-3-10.6-15.4-9.2-24.1C542.4,592.4,544.4,580.9,553.2,578.4z"/>
</g>
<g id="vs-outline">
	<path fill="none" stroke="#000000" stroke-width="18" stroke-linecap="round" stroke-linejoin="round" stroke-miterlimit="10" d="
		M254,97c13.2-1.6,34.2-4,60-6c80.3-6.1,145-3,226,1c59.9,3,49.6,4.2,83,5c35.4,0.9,58.8-0.2,94,7c28,5.7,41.6,12.2,53,21
		c16.7,13,25,28.3,29,36c3.4,6.5,12.4,25,15,66c2,31.4,4,63.1-10,101c-7.6,20.6-17.8,48.2-46,69c-26.1,19.2-53.9,22.4-67,23
		c-5.3,36.8-7.3,67.7-8,90c-1.4,42,0.8,75.4,4,123c2.7,40.9,4.1,61.3,5.6,67.9c0.4,2,1.7,7.1,1.4,14.1c-0.6,14.6-7.5,25.3-10,29
		c-6.9,10.4-15.2,15.9-20,19c-23.9,15.5-49.3,14.3-54,14c-31.3-2-51.5-20-58-26c-19-17.4-26-37.7-31-52c-5.1-14.7-6.9-27.1-8-37
		c-5.3-49.2,2.8-91.6,4-98c6.7-35.8,13.8-87.8,18-166c-14.3-3.5-28.6-7.2-43-11c-86.7-22.9-169-48.9-247-77
		c-9.8-6.2-23.2-16.9-33-34c-15.9-27.8-12.6-56.5-10-80c1.5-13,3.5-30,13-50C226.9,120.9,243.8,105.1,254,97z"/>
	<path fill="none" stroke="#000000" stroke-width="13" stroke-linecap="round" stroke-linejoin="round" stroke-miterlimit="10" d="
		M244.9,104.9c4-2,17.7-8.4,33.4-3.8c11.2,3.3,17.9,10.5,21.7,14.9c14.1,15.9,16.1,34.7,18,52c0.5,4.9,2.7,27.4-4,56
		c-2.6,11-7,29-20,48c-6.3,9.2-11.1,16-20,21c-18.1,10.1-38.1,4.4-44.4,2.3"/>
	<path fill="none" stroke="#000000" stroke-width="13" stroke-linecap="round" stroke-linejoin="round" stroke-miterlimit="10" d="
		M295.6,111.4c-6.7,0-20.7,1-32.6,10.6c-10.4,8.4-14,19.2-19,34c-5,14.8-6.1,26.8-7,38c-0.8,9.8-2,24,0,39
		c1.6,11.7,6.8,36.4,28.8,63.5"/>
	<path fill="none" stroke="#000000" stroke-width="13" stroke-linecap="round" stroke-linejoin="round" stroke-miterlimit="10" d="
		M253.5,132.9c19.4,1,38.8,1.9,58.3,2.9"/>
	<path fill="none" stroke="#000000" stroke-width="13" stroke-linecap="round" stroke-linejoin="round" stroke-miterlimit="10" d="
		M240.4,168.9c25.9-0.3,51.7-0.6,77.6-0.9"/>
	<path fill="none" stroke="#000000" stroke-width="13" stroke-linecap="round" stroke-linejoin="round" stroke-miterlimit="10" d="
		M236.3,203.8c26.9,1.6,53.8,3.3,80.6,4.9"/>
	<path fill="none" stroke="#000000" stroke-width="13" stroke-linecap="round" stroke-linejoin="round" stroke-miterlimit="10" d="
		M237.7,237.6c23.8,1.3,47.6,2.5,71.5,3.8"/>
	<path fill="none" stroke="#000000" stroke-width="13" stroke-linecap="round" stroke-linejoin="round" stroke-miterlimit="10" d="
		M249.5,271.7c14.8,0.1,29.7,0.2,44.5,0.3"/>
	<path fill="none" stroke="#000000" stroke-width="13" stroke-linecap="round" stroke-linejoin="round" stroke-miterlimit="10" d="
		M635,213c14.8-11.8,34.8-10.9,49-4c15,7.3,26.9,22.9,27,41c0.1,15-7.8,25.3-10,28c-10.7,13.1-28.1,18.8-44,16
		c-2.4-0.4-21.7-4.1-32-22C614.5,253.8,617.1,227.3,635,213z"/>
	<path fill="none" stroke="#000000" stroke-width="13" stroke-linecap="round" stroke-linejoin="round" stroke-miterlimit="10" d="
		M645,237c3.4-5.9,9.7-10.3,17-11c12.8-1.3,20.6,9.4,21,10c5.6,8,6.7,20.5-1,29c-7.7,8.5-20.9,9.2-30,3
		C641.7,260.9,639.4,246.7,645,237z"/>
	<path fill="none" stroke="#000000" stroke-width="13" stroke-linecap="round" stroke-linejoin="round" stroke-miterlimit="10" d="
		M535,398c5-2.9,12.8-6.9,23-10c21.4-6.5,39.8-4.7,56-3c12,1.3,20.8,2.2,32,6c22,7.5,36.8,20.4,45,29"/>
	<path fill="none" stroke="#000000" stroke-width="13" stroke-linecap="round" stroke-linejoin="round" stroke-miterlimit="10" d="
		M554,432c11.7-0.3,23.3-0.7,35-1c-0.8,17-1.8,34.4-3,52c-1.4,20.8-3.1,41.1-5,61c-12.7,1-25.3,2-38,3c0.9-18,2.2-36.7,4-56
		C548.9,470.5,551.3,450.8,554,432z"/>
	<path fill="none" stroke="#000000" stroke-width="13" stroke-linecap="round" stroke-linejoin="round" stroke-miterlimit="10" d="
		M542,595c0.3-4.6,0.6-10.4,5-14c5.5-4.5,14.6-3.1,20,1c8.9,6.8,9.6,22.4,2,31c-4,4.5-11.5,8.4-17.8,6.1
		C540.9,615.1,541.9,597.2,542,595z"/>
	<path fill="none" stroke="#000000" stroke-width="13" stroke-linecap="round" stroke-linejoin="round" stroke-miterlimit="10" d="
		M389,87.7c6.8,5.8,16.2,15,24,28.3c13.2,22.3,14.8,43.3,16,63c0.8,13.2,2.3,40.4-8,73c-15.5,49.1-47.8,78.7-63,91"/>
	<path fill="none" stroke="#000000" stroke-width="13" stroke-linecap="round" stroke-linejoin="round" stroke-miterlimit="10" d="
		M602.6,776.2c3.8,20.6,7.6,41.2,11.4,61.8c3.5,1.4,11.8,4,22,2c7.6-1.5,13.1-4.8,16-7c-2.4-20.2-4.8-40.5-7.3-60.7"/>
	<path fill="none" stroke="#000000" stroke-width="13" stroke-linecap="round" stroke-linejoin="round" stroke-miterlimit="10" d="
		M646.9,840c-0.9,5.3-1.9,15.1,2,26c7.2,19.9,25.3,28.4,31,31c11,5.1,18.4,5,47,6c34.9,1.2,52.4,1.8,56,3c35.9,11.4,54.1,47.4,58,55
		c7.8,15.4,10.8,29.6,12,39"/>
	<path fill="none" stroke="#000000" stroke-width="13" stroke-linecap="round" stroke-linejoin="round" stroke-miterlimit="10" d="
		M624.8,849.7c-1.2,5.7-2.3,15.1,0.4,26.1c4.5,18.5,17,29.3,22.8,34.2c16.7,14,34.7,17.2,52,20c36.3,5.9,38.2-4.4,63.2,2.2
		c5.4,1.4,46.2,12.9,57.8,46.8c2.9,8.4,3.2,15.9,3,21"/>
</g>
<g id="vs-h-reveal">
	
		<path opacity="0" fill="none" stroke="#000000" stroke-width="82" stroke-linecap="round" stroke-linejoin="round" stroke-miterlimit="10" d="
		M229.2,112.3c16.8-3.7,33.7-6.9,50.7-9.6c8.7-1.4,21.8,1.8,19.6,10.3c-1.4,5.1-7.7,6.7-12.9,7.4c-20.9,2.8-41.9,5.5-62.8,8.3
		c-4.7,0.6-10,1.7-12.2,5.9c-2.4,4.6,0.8,10.6,5.4,12.9s10.2,1.8,15.3,1c16.4-2.6,32.4-8.2,49-9.1c16.6-0.9,34.9,3.9,44.2,17.7
		c-37.3,11.9-77.7,14.2-116.1,6.5c-5.9,6.2,6.3,13.4,14.8,13.5c34.6,0.1,69.1,0.1,103.7,0.2c4.5,7.9-1.1,18.4-9.3,22.4
		s-17.7,3.2-26.7,2.3c-28.9-2.8-57.8-5.6-86.7-8.4c-6.4,7.3-3.2,19.7,4.4,25.7s18.1,7.1,27.8,6.6c34.7-1.8,74.2-18.6,101,3.5
		c-44.7,7.1-90.3,8.7-135.4,4.7c1.9,10.5,12,17.8,22.4,20.2s21.2,1,31.8,0.5c60.1-3.1,117.9,20.7,174.7,40.5
		c63.4,22,128.2,39.4,193,56.8c31.7,8.5,64.1,17.1,96.9,14.6c26.3-2,54.1-13,66.7-36.2c-2,16.6-14.8,30.4-29.9,37.7
		c-15.1,7.3-32.2,9-48.9,9.5c-39.9,1.1-79.9-4.5-118-16.4c-18.1-5.7-35.8-12.7-54.2-17c-18.5-4.3-37.5-5.8-56.2-8.8
		c-81-13-158.5-55.4-240.1-46.9c42,18,88.5,23.6,130.5,41.5c24.1,10.3,46.3,24.4,70.5,34.4c93,38.7,199.6,12.3,299.1,28"/>
	
		<path opacity="0" fill="none" stroke="#000000" stroke-width="82" stroke-linecap="round" stroke-linejoin="round" stroke-miterlimit="10" d="
		M647,209.4c10.6-0.3,21.3-0.6,31.9-0.7c4.3-0.1,8.7-0.1,12.6,1.6c3.9,1.6,7.3,5.4,7.1,9.7c-0.4,8.3-11.5,10.4-19.8,10
		c-12-0.5-23.9-1-35.9-1.6c-5.4-0.2-12.2,0.5-13.7,5.7c-1.1,3.6,1.7,7.5,5.1,9.1c3.5,1.5,7.4,1.3,11.2,0.9c10.1-1,20.3-3,30.2-1.1
		c9.9,1.9,19.8,8.9,21.2,18.9c-33.1,12.3-69.5-10.8-104.5-6.5c-0.8,7.3,4.2,14.4,10.6,18s14,4.5,21.4,5.1
		c19.7,1.4,39.6,0.8,59.2-1.9c4-0.6,10,0.4,9.5,4.5"/>
	
		<path opacity="0" fill="none" stroke="#000000" stroke-width="82" stroke-linecap="round" stroke-linejoin="round" stroke-miterlimit="10" d="
		M673.5,455.6c-39.6-15.7-82.5-22.9-125.1-21.2c-6.6,0.3-13.5,0.9-18.8,4.7s-8.1,12-4.1,17.2c43.7,0.3,87.4,0.5,131.1,0.8
		c12.1,0.1,28.9,5.4,26.4,17.3c-48.3-0.9-96.7,5.6-142.9,19.4c-2.2,0.7-4.6,1.5-5.8,3.4c-3.8,6,6.4,10.8,13.5,10.6
		c32.3-0.6,64.6-1.3,96.9-1.9c20.4-0.4,44,0.6,56.5,16.8c-22.3,14.3-50.4,15.1-76.9,15.5c-24.1,0.4-48.2,0.7-72.4,1.1
		c-7.4,0.1-15.1,0.3-21.5,3.8c-6.5,3.5-11.2,11.5-8.5,18.3c3.3,8.4,14.3,10,23.4,10.2c44,1,88.1,2,132.1,2.9
		c-4.8,9.2-16.5,11.8-26.8,13.4c-37.9,6-75.8,12-113.6,18c-0.6,7,9,9.4,15.9,9.3c31.1-0.3,62.2-0.6,93.4-0.9
		c9.4-0.1,23,5.7,18.7,14.1c-9.7-6.3-24.3,6.7-19.2,17c7,14.4,30.6,6.4,43.5,16c-7.1,4.3-15.8,4.9-23.3,8.3
		c-7.5,3.5-14.1,12.4-10.2,19.7c3,5.7,10.3,7,16,10c5.7,3,9.9,11.7,4.6,15.3c-11.5,1.8-23,3.5-34.5,5.3c14.4,7.7,31.3,10.7,47.5,8.5
		c-1.3,17.8-24,23.9-41.8,25.4c-39.2,3.2-81.3,5.8-115.3-14c42.8,8.3,85.6,16.6,128.5,24.9c-18.2,1.7-36,8.7-50.5,19.9
		c14.1,3.1,28.3,6.3,42.4,9.4c2.4,0.5,4.9,1.1,6.6,2.9c4.5,4.5-0.1,12.5-5.8,15.4c-5.7,2.9-12.7,3.6-17.2,8.2c4,1.4,8,2.7,12,4.1
		c-6.1,10.8-13.3,21-21.4,30.4c17.8,1.2,35.6,2.5,53.4,3.7c-16.1,9.4-33.2,17.2-50.9,23.1c19.3,3.3,38.9,4.3,58.4,3
		c-14,7.1-27.9,14.1-41.9,21.2c23.4,0.8,46.8,1.6,70.3,2.4c-6.9,8-15,14.9-23.9,20.4c24.2-2,48.5-4.1,72.7-6.1
		c-3.4,1.4-6.8,2.8-10.2,4.2c16.1-2.7,32.3-5.3,48.4-8"/>
</g>
</svg>
