<?xml version="1.0" encoding="utf-8"?>
<!-- Generator: Adobe Illustrator 24.3.0, SVG Export Plug-In . SVG Version: 6.00 Build 0)  -->
<svg isCommex="true" version="1.1" id="Layer_2_1_" xmlns="http://www.w3.org/2000/svg" xmlns:xlink="http://www.w3.org/1999/xlink" x="0px" y="0px"
	 width="1060.4px" height="699.8px" viewBox="0 0 1060.4 699.8" enable-background="new 0 0 1060.4 699.8" xml:space="preserve">
<g>
	<path fill="#D0D0D0" d="M481.3,395.4L481.3,395.4c-3.4-7.5-10.6-13.5-19.6-16.5c-10.7-3.6-22.2-2.4-32.5,3.4
		c-20.3,11.3-25.3,39.9-26.5,56c-0.2,2.5-0.3,4.8-0.3,6.8c-0.3,12.5-0.4,48.4-0.5,74.6c0,6.3,0,11.9-0.1,16.4v12.7l0.3,0.3
		c1.6,1.6,3.9,2.4,7,2.4c0.1,0,0.3,0,0.4,0c4.7-0.1,8.7-1.6,10.7-2.5l0.6-0.3V545c0.1-18.8,0.5-77,0.9-97.4l0-0.8
		c0.6-26.8,10.5-44.2,27.3-47.6c4-0.8,7.7,0.1,10.5,2.6c9.5,8.3,8.6,32.3,8.3,37c-0.4,6.6-0.9,12.7-1.2,15.6l-0.1,0.6l0.6,0.3
		c1.7,1,6.4,3,15.3,1.1c0.5,0,0.9-0.2,1.2-0.2l0.6-0.2l0-0.7c0-0.8,0.1-1.6,0.2-2.4c0.1-0.8,0.2-1.7,0.2-2.5
		C486.3,429.6,487.8,409.9,481.3,395.4z"/>
	<path fill="#D0D0D0" d="M462.6,554l-17.1-3.1l-0.4,0.4c-2.5,2.6-8.5,10-8.5,21.5c0,3.7,0.5,7.2,1.6,10.7l0.2,0.6l21,2.9l0.4-0.5
		c1.5-2.1,6.4-9.4,6.7-16.8c0.3-7.4-2.8-13.5-3.7-15.2L462.6,554z"/>
	<path fill="#D0D0D0" d="M442.1,551.8l1-1.3l-18.2-3.2v1.2c0,0.8-0.1,1.3-0.1,1.3l0,0.2c0,0.8-0.3,1.4-0.9,1.7
		c-0.1,0-0.2,0.1-0.3,0.1c-5.6,2.9-10.7,3.6-14,3.8h-0.6c-5.8,0-9.1-2.6-10.5-4.4l1.4-0.6l-1.4-1c-0.7-0.5-0.8-1.2-0.8-1.7v-4.4
		l-21.2-2.6l-0.3,0.4c-2.1,2.4-12.5,15.2-6.4,33.1l0.2,0.6l19.7,2.7l46.4,6.2l-0.4-1.4C432.1,567.6,438.1,556.9,442.1,551.8z"/>
	<path fill="#D0D0D0" d="M390.7,582.3c-1.1,2.2-3.7,7.4-3.5,9.3c0.5,4.5,7.6,7.1,21.1,7.7h0.4c11.1,0,20-7.2,22.1-10.8l0.7-1.3
		l-40.5-5.5L390.7,582.3z"/>
	<path fill="#D0D0D0" d="M373.3,541.9l1-1.3l-4.4-0.6l-14.6-1.6l-0.2,0.1c-0.5,0.2-3.3,1.7-5.8,7.1c-1,1.9-1.8,4.5-2.4,7.3
		c-2.2,10.5,2,17,3.9,19.3l0.2,0.3l17,2.3l-0.4-1.5C363.3,558.6,369.4,547.3,373.3,541.9z"/>
</g>
<g id="vs-primary">
	<path fill="#6495FB" d="M721.1,523.1c-1.3-9.6-4.6-31.4-7.7-45c-1.1-4.9-3.1-10.9-5.9-17.7c-4.1-10.2-9-19.7-11.1-23.7l-0.7-1.4
		l-0.9,0.5c-7.5,4.3-33.6,18.4-53.6,18.4c-5.1,0-9.3-1-12.6-2.9l-1.2-0.7L627,452c-3.8,18.5-8.8,40-9.6,43.5
		c-1.3,5.8-1.8,9.8-2,12.9l-0.1,0.9l11.6,2.3l0.4-0.4c2.2-2.4,5.5-4,9.3-4.6l1.9-0.3l-1.3-1.4c-3.7-3.9-7.7-9.8-5.8-16
		c1.7-5.5,6-9.3,11.1-9.7c3.6-0.3,7.1,1.2,9.7,4.2l0.7,0.8l0.8-0.8c9.1-10.1,19.9-7.7,28.3-4.5c2.9,1.1,4.8,3.1,5.6,5.7
		c1,3.5-0.4,7.5-1.6,10.2l-0.7,1.5l1.7-0.1c5.4-0.3,15,0.3,18.2,7.1c2.9,6.1-0.6,12.3-4,16.4l-0.9,1.1l1.4,0.5
		c0.1,0,0.2,0.1,0.3,0.1c0.1,0.1,0.3,0.1,0.5,0.2l18.8,2.7L721.1,523.1z M694.7,461.6c-0.3,3.5-2.9,7-6.6,8.7
		c-3.2,1.4-6.8,1.2-9.4-0.8c-3.7-2.8-4.1-7.4-1-11.7c2.1-3,5.5-5.2,8.7-5.2c1.3,0,2.6,0.4,3.8,1.2
		C694.1,456.3,694.8,459.4,694.7,461.6z"/>
	<path fill="#6495FB" d="M615.5,69.7c0-0.1-0.1-0.2-0.1-0.3c-0.1-0.1-0.1-0.3-0.2-0.4c-2-4.5-3.8-8.4-5.2-11.4
		c-0.9-1.9-1.6-3.6-2.3-5l-0.1-0.3l-0.3-0.2c-0.5-0.3-0.8-0.6-1-0.9c-2-3.1-24-19.5-44.1-19.5c-0.2,0-0.5,0-0.7,0
		c-20.4,0.4-47.4,11.1-58.3,33.5c-2.6,5.2-4.3,10.6-5.1,16.2l-1.3,9.4l3.3-8.9c2.7-7.4,7.1-13.4,13-18c19.4-15,47.8-19.8,70.5-12
		c9.2,3.2,19.5,9.6,30.5,19l3.8,3.2L615.5,69.7z"/>
</g>
<g>
	<path fill="#C4DEFF" d="M893.4,491.5l-1.7,0.4c-4.8,1.2-8.9,2.4-12.7,3.7l-0.5,0.2l-0.1,0.5c-13.9,53.9-17,93.4-17.4,100.8
		l-0.1,0.9l12.8,2.1l0-1.8c-0.7-34.9,15.9-93.8,19.3-105.2L893.4,491.5z"/>
	<path fill="#C4DEFF" d="M873.9,497.4l-1.8,0.6c-4.2,1.5-8.5,3.2-14.1,5.6l-0.5,0.2l-0.1,0.5c-10.4,41-14.4,81.8-15.1,89.6l-0.1,0.9
		l14.6,2.5l0.1-1.1c0.5-7.1,3.4-45,16.5-97L873.9,497.4z"/>
	<path fill="#C4DEFF" d="M853,506l-1.9,0.9c-6.3,2.9-13,6.4-20.6,10.7l-0.4,0.2l-0.1,0.4c-10.3,48.2-10.1,68.5-9.9,72.1l0,0.8
		l18.2,3.1l0.1-1.1c1-10.3,4.8-47.1,14.1-85.2L853,506z"/>
	<path fill="#C4DEFF" d="M825.1,522.7l0.5-2.2l-2,1.2c-7.3,4.4-14.2,8.9-20.6,13.3l-0.3,0.2l-0.1,0.4c-1.9,11.7-4.3,29.8-4.9,50
		l0,1.6l18.4,3.2l0-1.2C816,582.7,816.7,563.2,825.1,522.7z"/>
	<path fill="#C4DEFF" d="M798.1,538.5l-1.9,1.4c-6.1,4.5-11.9,9-17.6,13.8l-0.3,0.3l0,0.4c-1.7,14.5-2.4,25.2-2.6,28.2l-0.1,0.9
		l18.2,3.2l0-1.2c0.1-6.2,0.8-23.1,4-44.6L798.1,538.5z"/>
	<path fill="#C4DEFF" d="M664.3,362.4c-0.3-0.9-0.6-1.6-0.8-2.3c-0.2-0.5-0.4-1-0.5-1.4c-2.7-7.6-2.6-19.1-2.5-33.7l0-5.2
		c0.1-15.2-7-28.2-8.2-30.2l0,0l-0.3-0.6c-0.1-0.1-0.1-0.2-0.2-0.4c0,0-0.1-0.1-0.1-0.1c-1.8-3.5-7.9-5.2-18.1-5l-0.6,0l-0.2,0.6
		c-0.9,2.3-5.9,14-9.9,22.4l-0.6,1.2l0.1,0c-1.2,2.3-2.6,5-3.6,6.1c-2.3,3-7.7,5.1-13.2,5.1c-0.8,0-1.8-0.1-2.7-0.2
		c-6.3-0.8-11-4.6-13.4-10.6c-3.8-9.8-1.9-18.2-0.4-22.4l0.5-1.4l-1.5,0.1c-9.1,0.4-32,1.6-49.5,4.5c-21.3,3.5-38.2,4.7-40.1,4.8
		l-0.5,0l-0.3,0.4c-2.6,3.8-8.2,13.9-2.5,24.2l0.3,0.6l0.6,0c6.9-0.4,30.4-1.6,40.3-1.8c8.6-0.2,30.8-0.8,41.4-1.1
		c3.2-0.1,5.3-0.1,5.5-0.1c0.7,0,1.3,0.3,1.7,1c0.5,0.6,0.7,1.3,0.5,2.1l0,0c-0.7,2.1-6.5,21.2-9.6,32.6c-1,3.4-0.4,6.5,1.8,9.5
		c3.9,5.2,13.1,8.9,22.4,9c1.1,0,2,0.9,2,2s-0.9,2-2,2c-1.7,0-3.7-0.2-5.9-0.5l-1.5-0.2l0.4,1.5c0.8,2.8,2.2,8,4,12.3l0.8,1.9l1-1.8
		c0.4-0.8,0.9-1.4,1.2-1.8c1.6-1.5,5.2-2.5,10-2.8l0.9-0.2v-0.9l0-0.1c-0.1-0.8,1.7-10,16.1-72.6c0.1-0.4,0.2-0.5,0.3-0.7l0.3-0.4
		c0.4-0.4,1.1-0.6,1.8-0.5c0.6,0.1,1.1,0.5,1.3,0.9c0.3,0.4,0.3,0.9,0.2,1.5c-7.9,34.5-15.6,68.5-16,71.6l0,1.3l1,0
		c2.7,0.1,5.6,0.4,8.6,1c3.1,0.6,6.3,2.1,9.2,4.2l1.3,0.9l0.3-1.5c0.6-2.9,1.9-9,4.4-19.9c0.4-1.8,0.9-3.8,1.4-5.9
		c0.7-2.9,1.4-6.2,2.2-9.8c2-8.6,4-17,5.5-23.3l1.8-7.6c0.2-1,0.4-1.8,0.6-2.4l0-0.1c0-0.1,0.1-0.2,0.1-0.3c0.3-1,0.4-1,1.2-1.4
		c0.6-0.3,1.5-0.1,2,0.4c0.6,0.5,0.8,1.2,0.6,1.8l-0.1,0.5c-1.9,7.9-6.7,28.3-10.6,45.3l-0.5,2.2l2-1.1c0.7-0.4,1.7-1.1,2.9-2.4
		c0.4-0.4,0.9-0.6,1.4-0.6c0,0,0,0,0,0c0.5,0,1,0.2,1.4,0.6c0.4,0.4,0.6,0.9,0.6,1.4c0,0.5-0.2,1-0.6,1.4c-2.7,2.7-5.4,4.2-7.8,4.2
		h-0.8l-0.2,0.8c-2.5,10.9-3.9,17.5-4.1,19c-0.1,0.3-0.1,0.7-0.3,0.8l-0.4,0.7l0.5,0.6c2.9,3.1,4.8,6.3,4.9,8.1
		c0.1,1.7-0.9,9.1-2.1,15.7c-2.5,14.2-3.9,15-4.6,15.5c-1.8,1.1-4,1-5.2,0.8l-1-0.2l-0.2,1c-0.6,3.7-1.4,8-2.4,13l-0.1,0.5l0.5,0.5
		c3,2.6,7.4,3.6,12.3,3.6c5.6,0,11.7-1.3,16.9-2.8c11.6-3.3,25-9.2,36.7-16.2c0.7-0.4,1.4-0.8,2-1.2l1.6-1l-0.6-0.9
		C677.4,401.3,668.3,374,664.3,362.4z"/>
	<path fill="#C4DEFF" d="M631.4,427.5l0.2,0.2l0.3,0.1c0.5,0.1,1.1,0.3,1.7,0.3c0.2,0,0.4,0,0.6-0.1l0.5-0.1l0.2-0.5
		c1.7-4.2,4.8-23.8,4.8-27.1v-0.2l-0.1-0.2c-0.5-1.4-3-5.1-6.5-8.1c-2.7-2.3-5.9-4-9.2-4.7c-9.4-1.9-18.9-0.5-20.8,0.9l-0.2,0.2
		c-0.6,0.7-1.2,2.2-2.3,4.6c-2.5,6.5-5.9,17.9-5.4,22.9c0.5,4.1,3.5,6.8,5.2,8.1l1.6,1.1v-2c0-0.6,0-1.2,0.1-1.7c0-0.6,0-1.1,0-1.7
		c0-0.8,0.7-1.6,1.5-1.8c0.1,0,0.1,0,0.2,0c4.9-0.9,9.7-0.7,12.9-0.3c6.2,0.6,11.3,6.1,13.8,9.3
		C630.9,426.9,631.1,427.2,631.4,427.5z"/>
	<path fill="#C4DEFF" d="M494.9,322.9h-0.2c-0.9,0-1.5-0.7-1.8-1.2l-0.1-0.2l-0.2-0.1c-0.1-0.1-0.3-0.3-0.4-0.5
		c-1.5-2.4-8.2-15.4,3.1-30.2l0.3-0.4l-0.2-0.5c-0.3-0.9-1.3-3.7-4-4.2c-1.5-0.2-2.3,0.1-3.3,0.5l-0.4,0.1c-1.7,0.8-4,1.8-9.1,1.1
		c-2.7-0.4-6.6,0.1-9.9,7.8c-0.3,0.8-0.6,1.6-0.9,2.5l-0.2,0.7c-1.5,4.6-3.3,19.2,3.7,25.5c3.5,3.3,7.3,4.2,11.1,4.2
		c2.1,0,4.1-0.2,6.2-0.5l0.1,0c0.7-0.1,1.4-0.1,2.1-0.2c0.7-0.1,1.4-0.1,2.1-0.2l0.2,0l0.2-0.1c1.5-0.9,2.7-1.7,3.5-2.4l2.9-2.2
		l-3.6,0.5C495.4,322.9,494.9,322.9,494.9,322.9z"/>
	<path fill="#C4DEFF" d="M316.7,435.3c-2.7-2.5-5.2-3.7-8-3.7l-0.8,0c-13.5,1.1-35.8,14.2-40.8,35.2l-0.2,0.9l0.9,0.3
		c1.1,0.4,3.1,0.9,6,0.9c4.2,0,10.2-1.1,18.1-5.1c17.9-9.2,26.7-22.6,27-25.6l0-0.4l-0.3-0.3C318,436.6,317.4,435.9,316.7,435.3z"/>
	<path fill="#C4DEFF" d="M259.6,393.2l1.2,1c9.6,7.5,19.3,9.5,25.9,9.9c1.5,0.1,3,0.1,4.3,0.1c10,0,14.1-2.5,15.4-3.7l0.8-0.7
		l-0.7-0.8c-3.1-3.5-8.8-7.9-18.1-9.4l0,0c-13.2-2-23.7,0.9-27.4,2.8L259.6,393.2z"/>
	<path fill="#C4DEFF" d="M257,426.9c-1.4-2.1-2.6-4.5-3.4-6.8l-0.5-1.5l-6.7,6.7l0.9,0.7c1.7,1.4,5.6,4.1,12,6.2l4.4,1.4l-3.4-3.1
		C259,429.4,257.9,428.1,257,426.9z"/>
	<path fill="#C4DEFF" d="M247,390.5l8.3,1.4l0.4-0.4c1.4-1.5,3.9-3,7.4-4.1l1-0.3l-0.4-1c-4.7-10.8-14.9-13-18-13.5l-0.9-0.1
		l-0.2,0.9c-0.6,3-1.3,5.5-2.2,7.6l-0.4,0.9l0.9,0.4c0.1,0,0.1,0,0.1,0.1l0.1,0.1c1.9,1.5,3.2,4.1,3.8,7.4L247,390.5z"/>
	<path fill="#C4DEFF" d="M180.3,397.8l-0.3,0.3v1.3l0.7,0.2c2.2,0.8,8.2,2.6,16,2.6c3.9,0,8.3-0.5,12.9-1.7
		c11.2-3.2,17.2-7.2,19.8-9.3l1.8-1.4l-2.2-0.3C216.4,387.6,193.6,386.3,180.3,397.8z"/>
	<path fill="#C4DEFF" d="M195.5,183c8.3,2.5,15.8,4.3,23,5.7l2.3,0.4l-1.3-2c-6.1-9.2-30-21.2-45.5-22.8c-3.2-0.4-5.9-0.3-8.2,0.1
		l-2.1,0.4l1.7,1.3C171.3,170.9,183.1,179.2,195.5,183z"/>
	<path fill="#C4DEFF" d="M213.2,312.4c-3,0-5.5,0.2-7.7,0.4c-6.7,0.7-10.3,1.9-11.8,2.7l-2.8-3c0.7-0.4,1.7-1,3.3-1.5l0.7-0.3v-2.1
		l-1.3,0.4c-1.4,0.4-2.6,0.7-3.8,0.7c-1.3,0-2.2-0.3-3.1-1l-0.7-0.6l-1.7,1.7l0.8,0.7c2.3,2,5.1,4.5,6.5,6.7l-0.5,0.5h0.8
		c0.7,1.2,1.3,2.9,1.7,4.9l0.1,0.5l0.5,0.2c0.1,0,6.9,2,15.7,2c7.7,0,17-1.5,24.8-7l1.3-0.9l-1.4-0.8
		C231.5,315,224.4,312.2,213.2,312.4z"/>
	<path fill="#C4DEFF" d="M185.4,274.2c9.1,0,17.8-3.7,22.9-7.3c2.9-2.1,4.4-3.9,4.8-5l0.2-0.5l-0.3-0.4c-1.4-1.8-8.6-2.2-14.3-1.4
		h-1l-0.3,0.5c-3.7,5.8-8.9,9.8-15.6,12l-4.5,1.4l4.7,0.5C183.1,274.1,184.2,274.2,185.4,274.2z"/>
	<path fill="#C4DEFF" d="M171.1,327.3c6.4-5.6,7-13.5,7-16.7V310l-0.6-0.3c-0.3-0.2-0.6-0.4-0.9-0.6c-0.2-0.1-0.4-0.3-0.6-0.4
		l-1-0.6l-0.5,1c-3.7,8.4-9.9,14.1-18.3,16.9l-0.6,0.2l0,0.7c-0.1,1.8-0.3,3.7-0.6,5.5l-0.2,1.3l1.3-0.2
		C162.2,332.7,167.2,330.6,171.1,327.3z"/>
	<path fill="#C4DEFF" d="M177.7,419.7v-1l-1.1,0.1c-0.5,0-1.1,0.1-1.6,0.1c-0.6,0-1.2,0.1-1.7,0.1c-3.3,0-6.1-0.6-8.1-1.7l-1-0.6
		l-0.4,1.1c-1.9,5.6-6.1,10.7-11.7,14.5c-3.5,2.3-7.4,4-11.6,5l-4.6,1.1l4.7,0.9c1.6,0.3,3.2,0.6,4.9,0.8c0.7,0.1,1.4,0.1,2.1,0.1
		c8.6,0,18.7-5.6,19.2-5.8l0.5-0.3l0-0.6c-0.2-8.6,7.6-11.5,10-12.2l1.1-0.3l-0.5-1.1C177.8,419.8,177.7,419.7,177.7,419.7z"/>
	<path fill="#C4DEFF" d="M174.5,275.2l0.3-0.3l-0.1-0.4c-0.1-0.6-0.2-1.1-0.3-1.5l-0.1-0.4l-0.3-0.2c-3.7-2.3-13.9-7.5-28.6-6.5
		c-1.8,0.1-3.7,0.4-5.7,0.6l-0.5,0.1c-12.9,2.1-19.7,9.5-23.1,15.3l-0.4,0.7l0.6,0.5c1.4,1.3,6.1,4.7,16.9,4.7c4,0,8.8-0.5,14.5-1.6
		C167.3,282.1,173,277.2,174.5,275.2z"/>
	<path fill="#C4DEFF" d="M144.8,233.2c5.2,1.8,11.2,2.6,17.2,2.6c5.3,0,10.7-0.7,15.8-2l5.4-1.4l-5.5-0.5
		c-7.3-0.7-13.9-3.2-19.1-7.1v0c-2.8-2.1-5-4.5-6.5-7.1l-0.4-0.7l-0.8,0.3c-6.2,2.4-13.1,6.6-14.1,9.6c-0.2,0.4-0.2,1,0,1.4
		C137.1,229.5,139.7,231.5,144.8,233.2z"/>
	<path fill="#C4DEFF" d="M92,319.8v0.5l0.4,0.3c0.9,0.7,4.1,2,15.1,2c2.5,0,5.5-0.1,8.9-0.2c27.3-1.3,33.8-13.6,34-14.2l0.1-0.2
		v-0.2c0-0.2,0-0.4,0-0.6l0.3-0.9L150,306c-4.5-1.6-16.7-4.9-32.7-1c-1.2,0.3-2.4,0.6-3.8,1c-12.3,3.8-18.5,8.8-21.5,12.3l-0.4,0.4
		l0.2,0.5C92,319.4,92,319.6,92,319.8z"/>
	<path fill="#C4DEFF" d="M135.1,262.6l0.2,0c0.1,0,0.3,0.1,0.4,0.2l0.3,0.2l0.4-0.1c0.4-0.1,0.7-0.1,1.1-0.2c0.3-0.1,0.7-0.1,1-0.2
		l0.2,0c0.3-0.1,0.6-0.1,0.7-0.1h2.3l-1.6-1.7c-2.9-3-5.1-6.3-6.6-9.8l-0.3-0.7l-0.8,0.2c-5,1-12.1,3.1-15.4,5.8l-0.9,0.7l0.8,0.8
		C119.1,259.7,124.4,263.1,135.1,262.6z"/>
	<path fill="#C4DEFF" d="M120.4,365.1c-8.5,0-16.6-2.6-22.9-7.2l-0.8-0.6l-0.6,0.8c-1.2,1.5-3.5,5.3-3.5,8.5c0,0.6,0.1,1.6,0.5,2.2
		c0.1,0.2,0.3,0.4,0.4,0.5l0.1,0.2c0.7,0.9,3.5,1.9,9.1,1.9c0.3,0,0.5,0,0.8,0c7.2-0.1,15.7-1.9,22.1-4.7l5.2-2.2l-5.6,0.3
		C123.4,364.9,121.8,365,120.4,365.1z"/>
	<path fill="#C4DEFF" d="M99.1,290.5c3.4,0.6,6.1,1,8.2,1c0.4,0,0.8,0,1.2,0l1-0.1l-0.1-1c-0.1-1.6,0-2.7,0-3.1l0,0c0,0,0,0,0,0
		c0-0.1,0.1-0.2,0.1-0.3c0.2-0.7,1.6-5.8,5.8-11.2l1.7-2.3l-2.8,0.7c-6,1.5-14.9,4.7-20,9l-0.4,0.3v0.4c-0.2,0.6-0.6,2.2,0.1,3.7
		C95,289.4,97.6,290.2,99.1,290.5z"/>
	<path fill="#C4DEFF" d="M97.8,416.3l-0.3-0.8l-0.8,0.2c-4.8,0.9-11.1,3.1-14.4,5.8l-0.7,0.6l0.6,0.8c0.7,0.9,3.7,3.9,11.8,4
		c1,0,2,0,2.9,0c2.2,0,3.8-0.1,5.1-0.2l1.7-0.2l-1-1.4C100.6,422.4,99.1,419.5,97.8,416.3z"/>
</g>
<g id="vs-hair">
	<path fill="#E6074D" d="M712,151.8L712,151.8c-2.8-10.2-5.6-19.2-8.6-27.6C675.9,45.7,630.6,8.7,568.9,14.2
		c-26.3,2.3-47.2,12.7-62.2,30.9c-3.4,4.1-6.4,8.4-9,12.9l-0.5,0.9l0.2,0.1c-9.6,16.9-24.1,54.6-17.3,121.3
		c5.9,58.3,24.6,87.7,27.8,90.7l0.1,0.1c2.3,1.6,15.7,3.9,31.2,3.9c0.4,0,0.9,0,1.3,0c14.3-0.1,33.7-2.3,45.1-11.7l1.2-1l-1.5-0.7
		c-0.9-0.4-1.9-0.9-2.9-1.4l0,0c-19.2-9.1-31.8-16.1-47.4-45.7c-13.2-24.6-21.6-47.5-25.9-69.8c-2.3-12-5-17.2-7.3-21.8l-0.1-0.2
		c-1-2-1.9-3.9-2.8-5.9c-0.8-1.9-1.4-4.9-1.9-8.6l-0.1-0.4l-0.2-0.2l0-0.1c-0.1-0.2-9.1-20.3,2.6-44.3l2.3-4.2l-0.2-0.1
		c12.8-21.1,39.7-31.2,59.6-31.7c13.7-0.3,29.5,7,39.7,13.9l2.7,1.8l-1.2-3c-0.1-0.3-0.1-0.4-0.1-0.6c0-1.1,0.9-2,2-2
		c1,0,1.8,0.7,2,1.8c0.3,0.9,1.3,3.2,2.9,6.7l3.1,6.9c2.1,4.7,4.5,10,6.5,14.2c2,4.3,3.8,8.3,5.2,11.4l1.4,3
		c0.8,1.5,1.2,2.7,1.5,3.3c3.7,8.6,13.9,47.4,14.7,96.3c0.4,27.4-1.2,49.5-2.7,63.2c-1,9.8-2.1,16.6-2.5,19.5l-0.1,0.8l0.7,0.3
		c5.4,2.3,17.6,6.8,31.8,6.8c3.7,0,7.5-0.3,11.4-1.1c19.9-3.8,33.1-10.2,36.7-12.1l0.4-0.2l0.1-0.5C718.9,249.3,726,204.1,712,151.8
		z"/>
</g>
<g id="vs-skin">
	<path fill="#FACFBD" d="M637.6,181.3c-0.8-51-11.7-88.4-14.4-95c-0.3-0.7-0.6-1.4-0.9-2.1l-0.1-0.1l-0.5-0.5
		c-3.4-3.6-21.1-21.9-39.6-28.3c-21.2-7.3-48.6-2.6-66.7,11.5c-15.9,12.3-15.1,33.5-14.5,39.7c0.4,3.5,1.1,6.7,1.9,8.7
		c0.7,2.1,1.6,3.8,2.6,5.6c1.7,3.3,4,7.8,6.1,15.9l2-0.4c-1.2-6.5-1.6-11.5-1.4-15.2l0-0.6l-0.5-0.3c-4.6-2.7-5.1-6.9-4.6-8.9
		c0-0.1,0.1-0.2,0.2-0.3c0.1,0,0.2-0.1,0.4-0.1c0.1,0,0.2,0.1,0.3,0.2c0,0.1,0.1,0.2,0.1,0.4l0,0.2c-0.3,2.7,0.8,5.1,3.1,6.8
		l1.2,0.9l0.3-1.5c0.4-2,1.3-4,2.6-5.9l0.4-0.6l-0.5-0.6c-1-1.2-1.9-3.1-2.5-5.7c-0.1-0.3,0.1-0.5,0.4-0.6c0.2-0.1,0.5,0.1,0.6,0.3
		l0,0.2c0.4,1.8,1,3.4,1.7,4.6l0.7,1.2l0.9-1.1c3.4-4.2,7.6-7.1,9.3-8.2c0.3-0.2,0.7-0.3,1.1-0.2c0.4,0.1,0.7,0.3,0.9,0.7
		c0.2,0.3,0.3,0.7,0.2,1.1c-0.1,0.4-0.3,0.7-0.6,0.9c0,0-0.8,0.4-1.8,1.3l-1.3,1l1.5,0.7c3.7,1.6,11.2,6.2,19.1,18.4
		c10,15.7,16.8,35.6,16.5,48.3c0,0.9,0,1.6-0.1,2.4c-0.7,6.2-2.6,10.8-4,14.2l-0.2,0.4c-1.1,2.7-2.1,5.1-2.1,7.6
		c0,2.2,2.8,6.8,7.9,9.6c2.8,1.6,10.1,4.5,18.5-1.3c0.7-0.5,1.6-0.3,2.1,0.3c0.5,0.7,0.3,1.6-0.3,2.1c-4.8,3.3-9.2,4-12,4
		c-3.2,0-6.5-0.8-9.6-2.5c-5.5-3-9.6-8.3-9.5-12.3c0.1-3,1.1-5.8,2.5-9c1.3-3,2.8-6.8,3.6-11.7l0.3-2.1l-1.8,1.1
		c-2,1.2-6.3,3.3-12.3,3.3c-1.1,0-2.2-0.1-3.4-0.2c-7-0.9-12.7-7.1-16.2-12.1c-4-5.7-6.3-11.4-6.4-11.6c-1.1-3-2.4-7.1-3.5-11.2
		l-1.9,0.4c4.4,21.9,12.6,44,25.3,67.6c15,28.2,26.6,34.7,45.6,43.8c2.5,1.3,4.7,2.5,6.7,3.7c13.4,8.3,13.9,15.9,14.2,20.1
		c0.1,1.5-0.4,2.7-1.3,3.8c-2.4,2.5-7.6,3.2-10,3.2h-1l-0.2,0.7c-1.4,4.4-2.5,11.2,0.6,19c2.3,5.8,6.8,7.6,10.2,8
		c0.7,0.1,1.3,0.1,2,0.1c4.7,0,8.9-1.9,10.1-3.5c2.9-4.1,11.4-24.1,12.4-26.4l0.7-1.6l-1.7,0.2c-0.7,0.1-1.1,0.1-1.5,0.1
		c-4.4,0-6.3-4.4-7.5-7.7c-1.7-4.9-2.7-10.2,4.4-16.9c1.6-1.5,3.2-3.3,4.9-5.6l0.2-0.3l0,0c2.7-3.7,5.5-8.4,6.2-10.1l0,0
		c0.2-0.4,0.5-0.6,0.9-0.9l0.4-0.3l0.1-0.5C636.5,228.5,638,207.4,637.6,181.3z M619.9,163.6c-0.2,0-0.4-0.1-0.5-0.5
		c0-0.1,0-0.2,0-0.3c0.1-0.1,0.2-0.2,0.3-0.2c2.5-0.7,4.2-2,5.2-3.9c2-3.7,1.1-8.6,0.4-11.2l0,0l0-0.1c-0.1-0.3,0.1-0.6,0.3-0.7
		c0.3-0.1,0.6,0.1,0.7,0.4c0,0.1,2.3,7-0.4,12.1c-1.2,2.2-3.1,3.6-5.8,4.4H619.9z M575,92.6l1.4-1.3l-1.9-0.4
		c-2-0.4-3.6-0.5-4.9-0.5c-0.7,0-1.2,0-1.6,0.1c-0.9,0.1-1.6-0.5-1.7-1.3c-0.1-0.9,0.5-1.6,1.3-1.7l0,0l0.1,0
		c0.2-0.1,2.4-0.2,5.8,0.2l1.1,0.2v-6.2c0-0.2,0.3-0.5,0.5-0.5s0.5,0.3,0.5,0.5v6.5l0.8,0.2c1.6,0.3,3,0.8,4.2,1.3l1.5,0.6l-0.3-4.9
		c0-0.1,0.1-0.2,0.1-0.3c0.1-0.1,0.2-0.2,0.4-0.2c0.4,0,0.5,0.3,0.5,0.5l0.3,5.4l0.5,0.3c1.6,0.8,3.3,1.8,5.1,3.1l0.8,0.6l0.6-0.8
		c1.1-1.5,3.1-4,3.7-4.7c0-0.1,0.2-0.1,0.3-0.1c0.2,0,0.3,0,0.4,0.1c0.1,0.1,0.1,0.2,0.1,0.3c0,0.2,0,0.3-0.1,0.4
		c-0.2,0.3-0.7,0.9-1.2,1.6c-0.7,0.9-1.6,2.1-2.4,3l-0.6,0.8l0.8,0.6c1.9,1.6,3.7,3.4,5.4,5.5l0.8,1l5.6-7.3
		c0.2-0.3,0.5-0.2,0.7-0.1c0.1,0.1,0.2,0.2,0.2,0.3c0,0.1,0,0.3-0.1,0.4L598,103l1,1.3c0.9,1.2,1.9,2.4,2.8,3.7l0.7,1l0.8-0.9
		c1.9-2,2.8-3,3-3.3c0.1-0.2,0.4-0.2,0.6-0.2c0.2,0.1,0.3,0.2,0.3,0.3c0,0.1,0,0.1,0,0.2c0,0-0.1,0.1-0.1,0.1c-0.2,0.3-0.8,1-3.5,4
		l-0.6,0.6l0.5,0.7c6.4,8.7,14.9,21.6,15.7,34.1c0.5,7.5-1.8,14-6.4,18l0,0c-2.3,2-6.2,4.4-12.3,4.3c-1.8,0-3.6-0.2-5.8-0.6
		c-16.2-3.1-25.5-26.3-27.4-46.6C567.1,115.3,566.5,100.7,575,92.6z M592,82.1L592,82.1c-0.3,0.1-0.5,0.2-0.9,0.2
		c-0.8,0-1.5-0.4-1.8-1.1c-2.8-5.6-11.2-6.9-15.8-6.9c-1,0-1.7,0.1-2.3,0.1l-0.2,0l-0.2,0.1c-0.3,0.2-0.7,0.2-1.1,0.2
		c-0.6-0.1-1-0.4-1.4-0.9c-0.3-0.4-0.4-1-0.3-1.4c0.1-0.7,0.6-1.6,2.6-1.9c3.3-0.5,17.7-0.4,22.3,8.9C593.4,80.4,593,81.6,592,82.1z
		 M586.6,243.9c0.2-0.3,0.5-0.6,0.9-0.7c0.1,0,11.9-3.8,22.4-3.8c2.2,0,4.3,0.2,6.2,0.5c0.4,0.1,0.7,0.3,0.9,0.6
		c0.2,0.3,0.3,0.7,0.2,1.1c-0.2,0.8-1,1.4-1.7,1.3c-6-1.2-15.4-0.1-26.6,3c-0.2,0-0.3,0.1-0.4,0.1l-0.2,0.1c-0.1,0-0.2,0-0.5,0
		c-0.7,0-1.3-0.4-1.4-1.1C586.3,244.6,586.4,244.2,586.6,243.9z M509.2,98.2c0-0.1,0.1-0.2,0.1-0.3c1.5-4,5.1-11.5,11.7-16.9
		c0.4-0.4,0.9-0.5,1.5-0.5c0.5,0.1,1,0.3,1.3,0.7c0.4,0.4,0.5,1,0.5,1.5c-0.1,0.5-0.3,1-0.7,1.3l0,0c-6,5-9.2,12.2-10.2,14.5
		c0,0.1,0,0.1-0.1,0.2h-0.1l-0.2,0.7c-0.3,0.9-1,1.4-1.8,1.4c-0.1,0-0.4-0.1-0.6-0.2C509.5,100.4,508.9,99.3,509.2,98.2z"/>
	<path fill="#FACFBD" d="M616.4,421.2L616.4,421.2c-2.1-0.2-4.1-0.3-5.6-0.3c-1.4,0-2.6-0.1-3.4-0.2l-1.1-0.2l0,1.1
		c-0.1,2.6-2.1,63-5.9,74.8c-4,12.3-13.4,18.6-24.1,16c-0.2,0-0.4-0.1-0.5-0.1c-0.2-0.1-0.4-0.1-0.6-0.2l-0.3,0
		c-10-3-25.1-7.4-39.4,3.6c-5.5,4.3-9.6,10.1-12.1,17.5c-2.9,8.5-2.8,17.4-1.3,21.6c1.2,3.3,4.7,4.1,7.3,3.7c2.7-0.2,5-1.6,5.3-3.3
		l0.3-1.5c1.1-7.2,3.3-20.5,11.2-24.1c0.1,0,0.1,0,0.2-0.1h0.7l0.2-0.7c0.7-2.6,1.3-4.4,1.5-4.9c0.3-1,1.4-1.6,2.5-1.2
		c1,0.3,1.6,1.4,1.2,2.5l0,0c-1,3.1-10,32.2-3.7,51.6l0.1,0.9l0.8,0.2c1.7,0.4,3.4,0.7,5,0.9c1,0.2,2.1,0.4,3.1,0.6l1.5,0.3
		l-0.3-1.5c-1.9-9.8,1.8-28.2,3.5-35.7c0.1-0.3,0.1-0.4,0.1-0.5c0.2-0.8,1-1.2,1.8-1c0.4,0.1,0.7,0.3,0.9,0.7
		c0.2,0.3,0.3,0.8,0.2,1.1l0,0c-0.7,2.6-5.8,25.2-3.4,35.4c0.1,0.3,0,0.5-0.1,0.9l-0.3,1l7.2,1.2c2.8,0.5,5.4,0.9,7.7,1.3l1.4,0.2
		l-0.3-1.4c-0.2-1-0.4-2.4-0.4-3.9v-0.3l-0.2-0.3c-0.3-0.4-0.4-0.6-0.4-0.9c-0.4-8,1.5-27.1,2.1-32.7l0-0.2c0.1-0.8,0.9-1.4,1.7-1.4
		c0.9,0.1,1.5,0.8,1.3,1.8c0,0.1,0,0.5-0.1,1.1c-0.3,3.5-1.4,14.2-1.8,22.9l-0.1,2l1.7-1.1c2.4-1.6,5.8-2.8,10.1-3.5l1-0.2l-0.2-1
		c-0.3-2-0.6-6.1,1.5-9.9l0.2-0.4l-0.1-0.4c-0.1-0.3-0.1-0.6-0.1-0.8c0-0.5,0.2-3.4,0.5-6c0.7-5.4,1.1-6.5,2-7.2
		c2.1-1.7,13.1-13.5,14.1-19.9c0.3-2.1,0.4-4,0.6-6c0-0.6,0.1-1.2,0.1-1.9l0-0.5c0.2-4.1,0.5-9,2.3-16.3c1.9-8.1,7-30.2,10.4-47.1
		c2-9.8,3-15.7,3.3-18.5l0-0.4l-0.3-0.3C625.3,426.3,621.1,421.7,616.4,421.2z"/>
	<path fill="#FACFBD" d="M463.9,297.3l0.3-1.1L463,296c-1.5-0.2-4.6-0.3-11.5,0c-5.5,0.1-27.1,4.1-50,8.3l-5.1,0.9
		c-22.1,4.1-43,7.9-49.5,8.2h-1.1c-12,0-15.6-11.4-18.1-18.9l-0.1-0.2c-0.1-0.4-0.3-0.8-0.4-1.2c-0.2-0.8-0.5-1.5-0.8-2.2
		c-0.2-0.5-0.4-1.1-0.7-1.7l-0.8-2.2c-1-2.8-2.4-6.7-4.2-10.8c-5.4-12.2-11.4-20.1-18.1-23.6c-7.6-3.9-17.1-3.5-23.8-2.4l-6.7,1.1
		l6.7,0.9c11.6,1.6,18,5.7,18.1,5.8c0.4,0.2,0.7,0.6,0.8,1.1c0.1,0.5,0,1.1-0.3,1.6c-0.4,0.6-1,1-1.7,1c-0.3,0-0.7-0.1-1.1-0.4l0,0
		c-1.6-1.1-11.1-5.8-26-5.8h-0.5c-5,0.1-9.4,0.6-12.8,1.5l-7.4,2h7.6c7.3,0,15.7,0.9,23.6,2.6c0.2,0.1,0.4,0.1,0.4,0.1
		c0.5,0.1,1,0.5,1.2,0.9c0.3,0.4,0.4,1,0.2,1.5c-0.3,1.1-1.3,1.7-2.4,1.5l-0.2,0c-0.1,0-0.1,0-0.3-0.1c-5.3-1.1-19.1-3.4-31.7-1.9
		c-0.6,0-1.2,0.1-1.8,0.2c-0.3,0-0.5,0.1-0.8,0.1c-9.8,1.6-15.4,7.2-17.3,11.9c-0.9,1.9-1.2,3.9-0.9,5.5l0.4,1.9l1.3-1.5
		c3-3.5,8.7-5.8,16.9-6.9c17.9-2.4,30.6,1.5,34.1,2.7l0.1,0c1,0.4,1.5,1.6,1.1,2.6c-0.2,0.5-0.5,0.9-1,1.1c-0.5,0.2-1.1,0.2-1.6,0
		l-0.2-0.1H277c-0.1,0-0.1,0-0.3-0.1c-9.5-3-20.8-3.8-31.8-2.3c-11.5,1.5-14.6,5.2-15.5,7.2c-1.2,2.7,0,5.3,0.9,6.6
		c1.9,2.9,8.3,9.1,25.8,4.2c17.8-4.9,25.3-4,34.9,4.1c16,13.4,22.3,22.2,19.8,27.7c-3.3,7.3-10.7,10.4-23.2,9.8
		c-7.2-0.3-12.7,1.3-15.2,4.4c-1.3,1.8-1.6,3.9-0.9,6.3c1,3.5,4.6,6.8,9.5,8.7c2,0.7,4.5,1.2,7.3,1.2c3.5,0,7.5-0.9,11.7-3.6
		c6-3.9,11.4-9.9,16.4-15.7l0.2-0.2c3.2-3.6,6.2-6.9,9.2-9.7c3.5-3,6.6-4.9,9.6-5.8c6.3-1.8,40-1.1,79.1-0.3c21.8,0.5,43,1,49.9,0.6
		l1.6-0.1l-0.8-1.4C460.4,313.9,462.6,301.4,463.9,297.3z"/>
</g>
<path fill="none" stroke="#000000" stroke-width="6" stroke-linecap="round" stroke-linejoin="round" stroke-miterlimit="10" d="
	M511.2,98.9c0,0,3.2-9.7,11.1-16.3"/>
<path fill="none" stroke="#000000" stroke-width="6" stroke-linecap="round" stroke-linejoin="round" stroke-miterlimit="10" d="
	M570.1,72.8c0.1-0.7,16.5-1.6,21,7.6"/>
<path fill="none" stroke="#000000" stroke-width="5" stroke-linecap="round" stroke-linejoin="round" stroke-miterlimit="10" d="
	M529.3,161c1.6,0.3,1.7,5.5-0.1,5.4c-1.9-0.1-1.7-4.8-0.9-4.7c0.7,0,0.6,2,0.6,2"/>
<path fill="none" stroke="#000000" stroke-width="5" stroke-linecap="round" stroke-linejoin="round" stroke-miterlimit="10" d="
	M558.3,173.8c0,0-6.2,5.6-16.7,4.2c-10.5-1.3-18.7-16.1-21.4-22.7c-2.6-6.6-7.3-24.3-6.6-34.5c0.8-10.2,13.5-18,13.5-18"/>
<path fill="none" stroke="#000000" stroke-width="5" stroke-linecap="round" stroke-linejoin="round" stroke-miterlimit="10" d="
	M522.3,107.5c0,0,10.3,1.1,21.7,19c11.5,17.9,17.4,38.5,16.2,49.6c-1.1,11.1-6.2,16.1-6.3,22.3c-0.2,6.3,13.8,19.8,28.8,9.5"/>
<path fill="none" stroke="#000000" stroke-width="3" stroke-linecap="round" stroke-linejoin="round" stroke-miterlimit="10" d="
	M513.2,105.2c0,0.2,1.2,5.5,3.5,6.4"/>
<path fill="none" stroke="#000000" stroke-width="3" stroke-linecap="round" stroke-linejoin="round" stroke-miterlimit="10" d="
	M507.5,111.6c0,0-1.4,5.7,5.4,8.8"/>
<path fill="none" stroke="#000000" stroke-width="5" stroke-linecap="round" stroke-linejoin="round" stroke-miterlimit="10" d="
	M583.6,148.8c1.8-1.3,4.1,4.4,2.4,5.7c-1.8,1.2-3.7-4.9-2.9-4.9s1.7,2.5,1.7,2.5"/>
<path fill="none" stroke="#000000" stroke-width="5" stroke-linecap="round" stroke-linejoin="round" stroke-miterlimit="10" d="
	M567.8,89c0,0,15.6-1.9,28.2,13.9c12.6,15.8,21.1,29.1,21.9,41.7c0.8,12.6-6.6,23.3-22.8,20.2c-16.2-3.2-24.5-27.7-26.1-45.3
	s6.3-26.6,10.2-27.9"/>
<line fill="none" stroke="#000000" stroke-width="3" stroke-linecap="round" stroke-linejoin="round" stroke-miterlimit="10" x1="575.2" y1="81.6" x2="575.2" y2="89"/>
<line fill="none" stroke="#000000" stroke-width="3" stroke-linecap="round" stroke-linejoin="round" stroke-miterlimit="10" x1="582.4" y1="85.3" x2="582.8" y2="90.8"/>
<path fill="none" stroke="#000000" stroke-width="3" stroke-linecap="round" stroke-linejoin="round" stroke-miterlimit="10" d="
	M594.4,89.5c-0.9,1-4.5,5.8-4.5,5.8"/>
<line fill="none" stroke="#000000" stroke-width="3" stroke-linecap="round" stroke-linejoin="round" stroke-miterlimit="10" x1="603.4" y1="95.3" x2="597.5" y2="103"/>
<path fill="none" stroke="#000000" stroke-width="3" stroke-linecap="round" stroke-linejoin="round" stroke-miterlimit="10" d="
	M606.9,105.1c-0.1,0.2-4,4.5-4,4.5"/>
<path fill="none" stroke="#000000" stroke-width="3" stroke-linecap="round" stroke-linejoin="round" stroke-miterlimit="10" d="
	M625.9,147.2c0,0,4.2,13.1-5.9,15.9"/>
<path fill="none" stroke="#000000" stroke-width="5" stroke-linecap="round" stroke-linejoin="round" stroke-miterlimit="10" d="
	M587.8,244.5c0,0,17.2-5.4,27.9-3.2"/>
<path fill="none" stroke="#000000" stroke-width="6" stroke-linecap="round" stroke-linejoin="round" stroke-miterlimit="10" d="
	M593.8,285.2c0,0,9.6-0.2,9.3-4.8c-0.3-4.7-1-13.1-19.7-22c-18.7-8.9-31.1-15.8-46.5-44.7s-22.3-51.7-25.7-69.2
	c-3.4-17.6-7.5-21.1-10.2-28.3s-6.4-35.5,13.3-50.8c19.7-15.3,47.8-19,68.6-11.8s40.5,29,40.5,29"/>
<path fill="none" stroke="#000000" stroke-width="6" stroke-linecap="round" stroke-linejoin="round" stroke-miterlimit="10" d="
	M498.8,106.9c0,0-8.8-19.4,2.6-42.6c11.4-23.3,39.4-34.2,60-34.6c20.6-0.5,43.9,16.2,46.6,20.5"/>
<path fill="none" stroke="#000000" stroke-width="6" stroke-linecap="round" stroke-linejoin="round" stroke-miterlimit="10" d="
	M604.4,39.7c0,1.5,17.7,38.9,20.7,46.1c3.1,7.2,13.8,45.1,14.5,95.5c0.8,50.4-5.5,84.5-5.5,84.5s22.3,11.5,46.5,6.9s38.5-13,38.5-13
	s10.7-49.2-5.2-108.4s-52.5-147.2-145-139s-96.5,111.3-90.7,168.2s23.8,87.7,28.4,92c4.6,4.3,62.8,11.3,83-10.2"/>
<path fill="none" stroke="#000000" stroke-width="6" stroke-linecap="round" stroke-linejoin="round" stroke-miterlimit="10" d="
	M635.7,244c0,0-5.4,10.4-11.8,16.6c-6.5,6.2-5.4,10.6-4,14.9c1.5,4.3,3.2,6.3,5.6,6.3s24.2-3,28.1,5.7"/>
<polyline fill="none" stroke="#000000" stroke-width="6" stroke-linecap="round" stroke-linejoin="round" stroke-miterlimit="10" points="
	629.1,254.6 632.7,256.7 632.3,254 "/>
<path fill="none" stroke="#000000" stroke-width="6" stroke-linecap="round" stroke-linejoin="round" stroke-miterlimit="10" d="
	M592.5,283c0,0-6.4,11-1.1,24.5c5.3,13.5,22.2,10,25.8,5.2s14.2-30.4,14.2-30.4"/>
<path fill="none" stroke="#000000" stroke-width="6" stroke-linecap="round" stroke-linejoin="round" stroke-miterlimit="10" d="
	M592.4,282.3c0,0-31.3,0.9-54.1,4.7s-41.3,4.8-41.3,4.8s-11.5,13.9-3.1,28"/>
<path fill="none" stroke="#000000" stroke-width="6" stroke-linecap="round" stroke-linejoin="round" stroke-miterlimit="10" d="
	M498,291.1c-0.3-0.3-1.1-6.6-6.2-7.5c-5.1-0.8-4.8,2.9-12.8,1.8s-11.6,7.1-13.2,12.4s-3.6,20.5,4.2,27.6s16.3,4,23.7,3.7
	c6.6-3.6,8.2-7,8.2-7"/>
<path fill="none" stroke="#000000" stroke-width="6" stroke-linecap="round" stroke-linejoin="round" stroke-miterlimit="10" d="
	M494.8,320.9c0,0,30.4-1.7,41.8-1.9s46.9-1.2,46.9-1.2"/>
<path fill="none" stroke="#000000" stroke-width="6" stroke-linecap="round" stroke-linejoin="round" stroke-miterlimit="10" d="
	M465,294.3c0,0-2.2-0.7-13.8-0.5s-91.3,16.7-104.7,17.4s-15.8-14.4-18.3-21.1s-10.1-31.8-24.6-39.3c-14.6-7.6-35.8,0-35.8,0"/>
<path fill="none" stroke="#000000" stroke-width="6" stroke-linecap="round" stroke-linejoin="round" stroke-miterlimit="10" d="
	M295.9,259.6c0,0-9.9-6.3-27.6-6.2c-17.8,0.1-22.1,6.2-22.1,6.2"/>
<path fill="none" stroke="#000000" stroke-width="6" stroke-linecap="round" stroke-linejoin="round" stroke-miterlimit="10" d="
	M279.2,263.5c0,0-18.9-4.5-35.4-1.7s-22.6,16.4-18.9,21.9"/>
<path fill="none" stroke="#000000" stroke-width="6" stroke-linecap="round" stroke-linejoin="round" stroke-miterlimit="10" d="
	M278,279.4c0,0-13.4-5.3-33.2-2.6c-19.8,2.6-19.3,12-16.1,16.9c3.2,4.8,11.1,9.7,28,5s23.8-4,33,3.7s21.9,19.5,19.3,25.3
	s-8.5,9.2-21.3,8.6s-20.5,4.7-18,13.2s17.8,16.4,31.5,7.6c13.8-8.8,23.5-28.1,34.9-31.2s123.6,1.9,131.2,0.1"/>
<path fill="none" stroke="#000000" stroke-width="6" stroke-linecap="round" stroke-linejoin="round" stroke-miterlimit="10" d="
	M583.8,318.2c0,0-6,19.6-9.6,32.6s12.2,20.8,26,21"/>
<path fill="none" stroke="#000000" stroke-width="6" stroke-linecap="round" stroke-linejoin="round" stroke-miterlimit="10" d="
	M629.1,308.9c0,0-16.2,70.6-16.1,72"/>
<path fill="none" stroke="#000000" stroke-width="6" stroke-linecap="round" stroke-linejoin="round" stroke-miterlimit="10" d="
	M653.2,318.2c0.1-0.5-15.7,65.8-16.4,71.5"/>
<path fill="none" stroke="#000000" stroke-width="6" stroke-linecap="round" stroke-linejoin="round" stroke-miterlimit="10" d="
	M601.6,426.7c0,0-7.5-3.6-8.3-10.9s6-27,8.3-29.2s13.1-3.4,22.6-1.5s17.4,12.1,17.5,14.8s-3.6,28-5.7,29.4s-5.7,0-5.7,0
	s-6-9.4-13.6-10.2s-12.5,0.4-12.5,0.4s-2,64.8-5.8,76.7s-12.8,17.4-22.6,14.4s-26.2-7.9-41.4,3.8c-15.2,11.7-17,33.5-14,41.3
	s15.6,5.7,16.5,0s2.8-20.9,10.3-24.2"/>
<path fill="none" stroke="#000000" stroke-width="6" stroke-linecap="round" stroke-linejoin="round" stroke-miterlimit="10" d="
	M550.6,524.8c0,0-10.5,31.5-3.7,52.9"/>
<path fill="none" stroke="#000000" stroke-width="6" stroke-linecap="round" stroke-linejoin="round" stroke-miterlimit="10" d="
	M595.7,552.2c0-0.6,0.8-10.9,1.7-11.4s13.8-13.7,14.9-21.3c1.1-7.6,0.4-13.2,3.1-24.5c2.7-11.2,13.7-60,13.8-67.1"/>
<path fill="none" stroke="#000000" stroke-width="5" stroke-linecap="round" stroke-linejoin="round" stroke-miterlimit="10" d="
	M564,542.6c0,0-6,25-3.4,36.2"/>
<path fill="none" stroke="#000000" stroke-width="5" stroke-linecap="round" stroke-linejoin="round" stroke-miterlimit="10" d="
	M580.4,543.4c0,0-2.5,23.7-2.1,32.7"/>
<path fill="none" stroke="#000000" stroke-width="6" stroke-linecap="round" stroke-linejoin="round" stroke-miterlimit="10" d="
	M590.3,371.8c0,0,3.3,13.5,7,20"/>
<path fill="none" stroke="#000000" stroke-width="6" stroke-linecap="round" stroke-linejoin="round" stroke-miterlimit="10" d="
	M643.5,368c0,0,2.6,0.7,6.8-3.6"/>
<path fill="none" stroke="#000000" stroke-width="6" stroke-linecap="round" stroke-linejoin="round" stroke-miterlimit="10" d="
	M654,288.5c0,0,8.6,14.5,8.5,31.4s-0.6,30.2,2.4,38.3s12,40.2,36.1,71.4c-20.6,13.8-60.1,30.6-73.7,18.6"/>
<path fill="none" stroke="#000000" stroke-width="6" stroke-linecap="round" stroke-linejoin="round" stroke-miterlimit="10" d="
	M697.1,434c0,0,14.2,26.2,18.2,43.7s8.1,47.5,8.1,47.5"/>
<path fill="none" stroke="#000000" stroke-width="6" stroke-linecap="round" stroke-linejoin="round" stroke-miterlimit="10" d="
	M635,571.3c0,0-37.6,15.6-44.8,15.6s-119.1-21.4-119.1-21.4"/>
<path fill="none" stroke="#000000" stroke-width="6" stroke-linecap="round" stroke-linejoin="round" stroke-miterlimit="10" d="
	M580.4,583.8c0,0-2.9-9.4,1.5-13.1c4.4-3.7,13.3-4.2,13.3-4.2s-4.5-11.4,6-17c10.4-5.6,15.8,0.7,15.8,0.7s-7-11.1,2.3-16.2
	c9.3-5,20.3-6.3,20.3-6.3s-16.7,0.6-13.2-10.8c3.6-11.4,18.6-8,18.6-8s-14.6-9.5-11.6-19.4s14.7-11.6,19.4-1.6
	c8-11.7,18-11.2,28.5-7.1s0,18,0,18s18.1-3.2,22.1,5.4c4,8.6-6.9,17.7-6.9,17.7s18.7,4.1,18.7,17.8s-14.7,19.3-24.1,18.1
	c1.9,13.2-6.9,19.1-16.4,18.4c-9.5-0.6-14.3-11.2-14.3-11.2s-0.1,14.9-10.4,14s-13.2-5.4-14.9-10.4"/>
<path fill="none" stroke="#000000" stroke-width="6" stroke-linecap="round" stroke-linejoin="round" stroke-miterlimit="10" d="
	M689.1,455.5c9.5,6.1-2.4,17.7-9.3,12.5S683.5,451.6,689.1,455.5z"/>
<line fill="none" stroke="#000000" stroke-width="6" stroke-linecap="round" stroke-linejoin="round" stroke-miterlimit="10" x1="614.2" y1="511.2" x2="626.7" y2="513.6"/>
<line fill="none" stroke="#000000" stroke-width="6" stroke-linecap="round" stroke-linejoin="round" stroke-miterlimit="10" x1="702" y1="523.7" x2="775.4" y2="534.1"/>
<path fill="none" stroke="#000000" stroke-width="6" stroke-linecap="round" stroke-linejoin="round" stroke-miterlimit="10" d="
	M476.8,550c0,0,17.7-5,28.7,3.7s9.8,20.1,9.8,20.1"/>
<path fill="none" stroke="#000000" stroke-width="6" stroke-linecap="round" stroke-linejoin="round" stroke-miterlimit="10" d="
	M503.3,551.2c-0.2-2.3,8.1-17.9,16.6-19"/>
<path fill="none" stroke="#000000" stroke-width="6" stroke-linecap="round" stroke-linejoin="round" stroke-miterlimit="10" d="
	M425.5,545.4l38.4,6.7c0,0,5.2,7.8,4.7,17.6s-8.1,19.4-8.1,19.4l-110.4-15c0,0-8.3-7.5-5.2-21.9S355,536,355,536l43.8,5.4"/>
<path fill="none" stroke="#000000" stroke-width="6" stroke-linecap="round" stroke-linejoin="round" stroke-miterlimit="10" d="
	M399.9,549.5c0,0,2.1,4.4,9.7,4.1s13.2-3.6,13.2-3.6s0.5-79.3,0.9-103s8.7-42.2,25.7-45.7s17,28.3,16.4,37.5s-1.4,17.3-1.4,17.3
	s6.3,6,21.7,1.6c1.7-23.1,4.5-46.4-3-63.1s-32.6-26.3-54.8-13.9c-22.2,12.4-27.4,44.2-27.8,64.5c-0.5,20.3-0.6,102-0.6,102.8"/>
<path fill="none" stroke="#000000" stroke-width="6" stroke-linecap="round" stroke-linejoin="round" stroke-miterlimit="10" d="
	M389.5,580.4c0,0-4.7,8.4-4.4,11.4s2.5,8.8,23,9.5c14,0.2,24.4-9.6,25-13.5"/>
<path fill="none" stroke="#000000" stroke-width="4" stroke-linecap="round" stroke-linejoin="round" stroke-miterlimit="10" d="
	M376.4,539.8c0,0-15.4,15.2-6.5,37.1"/>
<path fill="none" stroke="#000000" stroke-width="4" stroke-linecap="round" stroke-linejoin="round" stroke-miterlimit="10" d="
	M446,549c0,0-16.1,13.5-8.2,36.3"/>
<path fill="none" stroke="#000000" stroke-width="5" stroke-linecap="round" stroke-linejoin="round" stroke-miterlimit="10" d="
	M451.8,548.8c0,0,8-18.5,9.3-20.8s5.1-3.4,6.9-1.7c1.8,1.8,0.6,6.9,0.6,6.9l-6.6,17.3"/>
<path fill="none" stroke="#000000" stroke-width="5" stroke-linecap="round" stroke-linejoin="round" stroke-miterlimit="10" d="
	M362.1,535.1c0-0.2,8.5-17.9,8.5-17.9s2.4-4.7,6.4-3.3s0.7,7.5,0.7,7.5l-7.6,16.2"/>
<line fill="none" stroke="#000000" stroke-width="6" stroke-linecap="round" stroke-linejoin="round" stroke-miterlimit="10" x1="466.3" y1="459.1" x2="453.6" y2="519.3"/>
<path fill="none" stroke="#000000" stroke-width="6" stroke-linecap="round" stroke-linejoin="round" stroke-miterlimit="10" d="
	M482.9,459.7c0,0,9.6,77.8,9.2,77.9c0,0,1.1-11.5,8.9-12.7c7.8-1.3,8.7-1,8.7-1s-12.4-11.5-5.4-18.3c7-6.9,14.7-6.3,14.7-6.3
	s-12.1-7.8-4.2-21.1c7.9-13.3,23.7-4.6,21.2,5.1c11.3-8.4,26.4-6.1,23.8,11c9.5-1.8,18.8,2.8,16.7,15.9"/>
<line fill="none" stroke="#000000" stroke-width="6" stroke-linecap="round" stroke-linejoin="round" stroke-miterlimit="10" x1="488.1" y1="498" x2="508.4" y2="501.4"/>
<line fill="none" stroke="#000000" stroke-width="4" stroke-linecap="round" stroke-linejoin="round" stroke-miterlimit="10" x1="490.8" y1="518.5" x2="505.5" y2="521.6"/>
<line fill="none" stroke="#000000" stroke-width="4" stroke-linecap="round" stroke-linejoin="round" stroke-miterlimit="10" x1="601.6" y1="537.5" x2="614.6" y2="539.6"/>
<path fill="none" stroke="#000000" stroke-width="6" stroke-linecap="round" stroke-linejoin="round" stroke-miterlimit="10" d="
	M424.8,447.7c0,0,9.5-4.4,14.4,3s-0.6,17.1-0.6,17.1s8.6-3.9,12.7,1.5s3.1,9.9,3.1,9.9s5-1.3,7,0.7"/>
<path fill="none" stroke="#000000" stroke-width="6" stroke-linecap="round" stroke-linejoin="round" stroke-miterlimit="10" d="
	M499.6,460.4c0.2-1.3-0.2-15.3,7.1-24.7c7.3-9.4,15-4.3,12.4,1.8s-16.6,16.7-18.9,23.9"/>
<path fill="none" stroke="#000000" stroke-width="6" stroke-linecap="round" stroke-linejoin="round" stroke-miterlimit="10" d="
	M551,439c11.6,7.9-2.4,32.6-16,18.6C525.6,445.4,543.8,432.6,551,439z"/>
<path fill="none" stroke="#000000" stroke-width="6" stroke-linecap="round" stroke-linejoin="round" stroke-miterlimit="10" d="
	M529.3,369.9c0,0,3.9-13.1,14.8-12.2s14.2,19.5,0,21.8c13.3,6.1,10.4,27.6-5.8,30.3s-22.4-9.9-20.9-19c1.5-9.2,8.7-9.2,9.4-3.8
	s-8.8,10.1-16.4,3.8s-8.7-17.9,0-26.3c8.7-8.4,19.9-6.2,18.5,6.1"/>
<path fill="none" stroke="#000000" stroke-width="6" stroke-linecap="round" stroke-linejoin="round" stroke-miterlimit="10" d="
	M399.9,438c0,0-18.3-2.4-22.6,7.9c-3-18.7-12.8-17.6-18.4-12.7s-9.7,14.2-8,21.1c-13-10-21.6-1.5-23.3,5c-1.8,6.5,6,14.3,6,14.3
	S319.7,471,314,480s-0.5,14.2-0.5,14.2s-9.4-5.5-17.8,5.9s5.2,17.4,5.2,17.4s-14.1,2.1-12.7,11.5c1.5,9.4,19,15.5,29.7,4.3
	c1.6,14.1,18.6,9.9,18-5.5"/>
<line fill="none" stroke="#000000" stroke-width="6" stroke-linecap="round" stroke-linejoin="round" stroke-miterlimit="10" x1="333.5" y1="539.6" x2="346.7" y2="544.5"/>
<path fill="none" stroke="#000000" stroke-width="5" stroke-linecap="round" stroke-linejoin="round" stroke-miterlimit="10" d="
	M349.1,487.8c0,0,7.3-13.8,17.2-8.5s6.4,20.2,6.4,20.2s9.6-8.8,16.3-4.8"/>
<path fill="none" stroke="#000000" stroke-width="6" stroke-linecap="round" stroke-linejoin="round" stroke-miterlimit="10" d="
	M368.6,395.7c14.1,0,13.2,24.1-1.9,20.5C351.5,412.7,357.1,394,368.6,395.7z"/>
<path fill="none" stroke="#000000" stroke-width="6" stroke-linecap="round" stroke-linejoin="round" stroke-miterlimit="10" d="
	M389.7,347.6c0,0,3.7-11.9,15.4-7s11.2,26.3,2.5,29.5s-20.5-1.4-15.1-9.2s10.9,18.5-3.8,20s-19.7-12.6-14.8-25.1
	C378.8,343.2,389.7,347.6,389.7,347.6z"/>
<path fill="none" stroke="#000000" stroke-width="6" stroke-linecap="round" stroke-linejoin="round" stroke-miterlimit="10" d="
	M300.3,493.1c0,0-30.5,1-36-21.6c2.6-26.3,29.7-40.7,43.5-41.8s21.4,22.6,21.2,26.5"/>
<path fill="none" stroke="#000000" stroke-width="6" stroke-linecap="round" stroke-linejoin="round" stroke-miterlimit="10" d="
	M308.5,429c0,0-0.3-9.9,11.8-7.8c12.2,2.1,16.4,21.4,10.8,28.3"/>
<path fill="none" stroke="#000000" stroke-width="6" stroke-linecap="round" stroke-linejoin="round" stroke-miterlimit="10" d="
	M255.8,395c0,0-12.1,39.6,25.5,40.8c26-1.4,29.2-34.5,29.2-34.5s-5.9-10.9-21.8-13.5s-30.3,2.1-31.9,5.6"/>
<path fill="none" stroke="#000000" stroke-width="6" stroke-linecap="round" stroke-linejoin="round" stroke-miterlimit="10" d="
	M306.4,394.2c0,0,10.7-2.9,13.1,7.6s-7.7,17-11.8,14.1"/>
<path fill="none" stroke="#000000" stroke-width="6" stroke-linecap="round" stroke-linejoin="round" stroke-miterlimit="10" d="
	M252.6,416.4l-9,9c0,0,9.1,11.2,33.1,11.5"/>
<path fill="none" stroke="#000000" stroke-width="6" stroke-linecap="round" stroke-linejoin="round" stroke-miterlimit="10" d="
	M243.6,427.3c-0.4-0.8-8.5,34.3,19.8,40.9"/>
<path fill="none" stroke="#000000" stroke-width="6" stroke-linecap="round" stroke-linejoin="round" stroke-miterlimit="10" d="
	M234.5,388.4c0,0-37.8-8.7-56.3,8.7c-4,25.5,8.6,38.8,28.1,40.7c19.6,1.8,32.8-24.4,28.1-48.5"/>
<path fill="none" stroke="#000000" stroke-width="6" stroke-linecap="round" stroke-linejoin="round" stroke-miterlimit="10" d="
	M229.8,384.9c0,0,5.4-6.2,12.1-0.9s3.6,28.8-6.7,30.2"/>
<path fill="none" stroke="#000000" stroke-width="6" stroke-linecap="round" stroke-linejoin="round" stroke-miterlimit="10" d="
	M235.1,414.6c0.3,0,11.9,5.2,11.9,5.2"/>
<path fill="none" stroke="#000000" stroke-width="6" stroke-linecap="round" stroke-linejoin="round" stroke-miterlimit="10" d="
	M179.6,422.7c0,0-11.8,1.7-10.4,12s8.3,18.8,8.3,18.8"/>
<path fill="none" stroke="#000000" stroke-width="6" stroke-linecap="round" stroke-linejoin="round" stroke-miterlimit="10" d="
	M182.9,428.5c0,0-5.1,1.5-5.3,5.5s-5.6,26.7,18.2,34.7c23.7,8,34.2-9.6,35.4-22.6c1.3-13-1.9-19.5-1.9-19.5"/>
<path fill="none" stroke="#000000" stroke-width="6" stroke-linecap="round" stroke-linejoin="round" stroke-miterlimit="10" d="
	M228.9,455.2c0,0,4.3,4.5,15.1-0.3"/>
<path fill="none" stroke="#000000" stroke-width="6" stroke-linecap="round" stroke-linejoin="round" stroke-miterlimit="10" d="
	M179,436.9c0,0,17.7,5,32,1.8c-28.4-2.5-27.9-4.7-27.9-4.7l-2.8-0.4c0,0,2.4,3.7,3.5,3.8"/>
<path fill="none" stroke="#000000" stroke-width="6" stroke-linecap="round" stroke-linejoin="round" stroke-miterlimit="10" d="
	M167.8,435.9c0,0-12.8,7.3-22.8,6.1s-22.5-5.3-22.5-5.3s-3.2,12.9,5.4,24.7c8.6,11.8,35.1,23.9,47.7-5.5"/>
<path fill="none" stroke="#000000" stroke-width="6" stroke-linecap="round" stroke-linejoin="round" stroke-miterlimit="10" d="
	M178.8,416.4c0,0-9.2,1.9-13.8-1.5"/>
<path fill="none" stroke="#000000" stroke-width="6" stroke-linecap="round" stroke-linejoin="round" stroke-miterlimit="10" d="
	M98,392.2c0,0-2.3,1.5-2.2,5c0.1,3.6,1.8,32.7,25.1,37.9c23.3,5.3,39.2-8.3,41.5-21s-0.9-30.2-0.9-30.2s-7.9,13.2-32,15.2
	c-24.1,2.1-31.4,0.6-31.4-0.1s0.5-4.8,0.5-4.8"/>
<path fill="none" stroke="#000000" stroke-width="6" stroke-linecap="round" stroke-linejoin="round" stroke-miterlimit="10" d="
	M97.1,413.6c0,0-16.9,3-18.9,10.5c-2.1,7.6,1.3,32.4,18.9,37c17.7,4.6,24.9-8.5,24.9-8.5"/>
<path fill="none" stroke="#000000" stroke-width="6" stroke-linecap="round" stroke-linejoin="round" stroke-miterlimit="10" d="
	M94.5,356.8c0,0-6.9,8.9-2.4,14.1c4.4,5.2,34.5,2.4,44.8-9.5"/>
<path fill="none" stroke="#000000" stroke-width="6" stroke-linecap="round" stroke-linejoin="round" stroke-miterlimit="10" d="
	M90.1,370.2c0,0,1.6,17.4,18.5,28.4"/>
<path fill="none" stroke="#000000" stroke-width="6" stroke-linecap="round" stroke-linejoin="round" stroke-miterlimit="10" d="
	M151.4,348.1c0,0,11.3,19.7,8,38.5"/>
<path fill="none" stroke="#000000" stroke-width="6" stroke-linecap="round" stroke-linejoin="round" stroke-miterlimit="10" d="
	M197.3,336.7c0,0,7.2,16.4,0.7,33.4s-26,19.4-34.7,15.5"/>
<path fill="none" stroke="#000000" stroke-width="6" stroke-linecap="round" stroke-linejoin="round" stroke-miterlimit="10" d="
	M201.8,356.8c0,0,12.5,8.8,10.4,27.2"/>
<path fill="none" stroke="#000000" stroke-width="6" stroke-linecap="round" stroke-linejoin="round" stroke-miterlimit="10" d="
	M201.8,348.1c0,0,10.2-3,12.8,4.7s-1.5,14.9-2.2,15"/>
<path fill="none" stroke="#000000" stroke-width="6" stroke-linecap="round" stroke-linejoin="round" stroke-miterlimit="10" d="
	M212.4,372.7c0,0,14.2-0.8,20.5,9.2"/>
<path fill="none" stroke="#000000" stroke-width="6" stroke-linecap="round" stroke-linejoin="round" stroke-miterlimit="10" d="
	M216.6,361.9c0,0,16.3-3.1,20.6-17.5s1.3-27.6,1.3-27.6s-7.6-6.6-25.2-6.3c-17.7,0.3-21.7,4.1-21.7,4.1"/>
<path fill="none" stroke="#000000" stroke-width="6" stroke-linecap="round" stroke-linejoin="round" stroke-miterlimit="10" d="
	M193.5,325.3c0.8,0.5,28,7.6,45.2-7.4"/>
<path fill="none" stroke="#000000" stroke-width="6" stroke-linecap="round" stroke-linejoin="round" stroke-miterlimit="10" d="
	M239.5,341.7c0,0,8.2,21.9,1,38.6"/>
<path fill="none" stroke="#000000" stroke-width="6" stroke-linecap="round" stroke-linejoin="round" stroke-miterlimit="10" d="
	M242.1,332.1c0,0,9.1-0.5,8.9,9.6s-6.5,14-6.5,14"/>
<path fill="none" stroke="#000000" stroke-width="6" stroke-linecap="round" stroke-linejoin="round" stroke-miterlimit="10" d="
	M244.6,370.4c0,0,16.1,0.8,21.7,16.6"/>
<line fill="none" stroke="#000000" stroke-width="6" stroke-linecap="round" stroke-linejoin="round" stroke-miterlimit="10" x1="247" y1="392.5" x2="254.7" y2="393.8"/>
<path fill="none" stroke="#000000" stroke-width="6" stroke-linecap="round" stroke-linejoin="round" stroke-miterlimit="10" d="
	M152.6,304.8c0,0-16.4-7.9-39.6-0.8c-23.2,7.2-25.8,18.6-25.8,18.6s-4,21.6,11,33.2s39,8.1,47.8-3.5c8.9-11.6,8.9-37.9,6.6-44.8"/>
<path fill="none" stroke="#000000" stroke-width="6" stroke-linecap="round" stroke-linejoin="round" stroke-miterlimit="10" d="
	M157,355.6c0,0,11.9,3.2,25.3-4.6s10.8-27.5,7.7-32.6c-3.1-5-15.3-13-15.3-13"/>
<path fill="none" stroke="#000000" stroke-width="6" stroke-linecap="round" stroke-linejoin="round" stroke-miterlimit="10" d="
	M154.7,324.5c0.3-0.6,14.8-2.4,20-22s1.2-31.2,1.2-31.2s-14.4-10.7-37.1-6.9c-22.8,3.8-27.4,22.9-27.4,22.9s-0.8,8.5,4.7,13.7"/>
<path fill="none" stroke="#000000" stroke-width="6" stroke-linecap="round" stroke-linejoin="round" stroke-miterlimit="10" d="
	M116.8,333.1c0,0,9-5.2,14.7-1.7s0.1,23.7-8.9,20c-9.1-3.7-6.5-17.4-6.5-17.4"/>
<path fill="none" stroke="#000000" stroke-width="6" stroke-linecap="round" stroke-linejoin="round" stroke-miterlimit="10" d="
	M116.4,271.6c0,0-25.2,5.2-27.7,16.6c-0.8,8.4,9.4,19.3,9.4,19.3"/>
<path fill="none" stroke="#000000" stroke-width="6" stroke-linecap="round" stroke-linejoin="round" stroke-miterlimit="10" d="
	M118.2,272.6c0,0-8.1-10.1-4.2-16.2c3.9-6.1,19.8-8.5,19.8-8.5"/>
<path fill="none" stroke="#000000" stroke-width="6" stroke-linecap="round" stroke-linejoin="round" stroke-miterlimit="10" d="
	M149.9,215.3c0,0-17.5,6.7-15.2,13.5s33.6,16.6,60.9-0.6c5-2.3,4.6-1.7,4.6-1.7s7.7,37.9-22.2,44.4"/>
<path fill="none" stroke="#000000" stroke-width="6" stroke-linecap="round" stroke-linejoin="round" stroke-miterlimit="10" d="
	M134.5,225.9c0,0-8.9,20.3,10.8,36.9"/>
<path fill="none" stroke="#000000" stroke-width="6" stroke-linecap="round" stroke-linejoin="round" stroke-miterlimit="10" d="
	M198.2,257.6c0,0,15.6-2.1,16.9,3.4c1.3,5.5-18.9,18.3-36.5,14.5"/>
<path fill="none" stroke="#000000" stroke-width="6" stroke-linecap="round" stroke-linejoin="round" stroke-miterlimit="10" d="
	M216.1,263.6c0,0,1.6,16.9-0.6,29c-2.2,12.2-10.2,17.8-10.2,17.8"/>
<path fill="none" stroke="#000000" stroke-width="6" stroke-linecap="round" stroke-linejoin="round" stroke-miterlimit="10" d="
	M204.2,223.1c0,0,7.7-1.8,8.4,8.3S210,248,200,248"/>
<path fill="none" stroke="#000000" stroke-width="6" stroke-linecap="round" stroke-linejoin="round" stroke-miterlimit="10" d="
	M166.5,179.3c0,0-4.1-9.5-11.4-8.9s-14,9-13.9,20.1s9.2,14.5,14.8,13.6s5.8-7.5,2.1-9.2c-3.7-1.8,1.4-11.8,5.7-11.4s3.3-2.7,3.3-2.7
	"/>
<path fill="none" stroke="#000000" stroke-width="6" stroke-linecap="round" stroke-linejoin="round" stroke-miterlimit="10" d="
	M157.2,168.8c0,0,0.8-8.2,17.1-6.5s47.4,16.1,48.8,28.6c0.6,13.9-13.5,32.6-31.4,37.7c-17.9,5.2-41.6-3.9-41.4-24.4"/>
<path fill="none" stroke="#000000" stroke-width="6" stroke-linecap="round" stroke-linejoin="round" stroke-miterlimit="10" d="
	M185.5,288.5c0,0,4.3-7,12-5.2s5.9,19,0.5,21.7s-11.9,4.8-10.5-1.5c1.5-6.3,2.4-6.3,1.6-7.9c-0.8-1.6-3.6-6.2-3.6-6.2"/>
<path fill="none" stroke="#000000" stroke-width="4" stroke-linecap="round" stroke-linejoin="round" stroke-miterlimit="10" d="
	M265.6,468.2c0,0,8.7,5.6,26.6-3.6s27.7-23.2,27.6-26.7"/>
<path fill="none" stroke="#000000" stroke-width="4" stroke-linecap="round" stroke-linejoin="round" stroke-miterlimit="10" d="
	M257.9,393.2c0.7,0.4,10.9,10.8,28.7,12c17.8,1.1,21.3-4.7,21.3-4.7"/>
<path fill="none" stroke="#000000" stroke-width="4" stroke-linecap="round" stroke-linejoin="round" stroke-miterlimit="10" d="
	M178.8,400.1c0,0,14.3,6.1,31.1,1.4s22.5-11.7,22.5-11.7"/>
<path fill="none" stroke="#000000" stroke-width="4" stroke-linecap="round" stroke-linejoin="round" stroke-miterlimit="10" d="
	M80.9,422.9c0,0,2.5,4.9,13.1,5s11.2-1,11.2-1"/>
<path fill="none" stroke="#000000" stroke-width="4" stroke-linecap="round" stroke-linejoin="round" stroke-miterlimit="10" d="
	M91,319.6c0,0-3.3,5.3,25.5,3.9s34.9-14.8,34.9-14.8"/>
<path fill="none" stroke="#000000" stroke-width="4" stroke-linecap="round" stroke-linejoin="round" stroke-miterlimit="10" d="
	M152.6,334.8c0,0,10.8,0.5,19.1-6.8s7.3-18.1,7.3-18.1"/>
<path fill="none" stroke="#000000" stroke-width="4" stroke-linecap="round" stroke-linejoin="round" stroke-miterlimit="10" d="
	M93.2,283c0,0-3.1,6.6,5.8,8.4c8.9,1.7,11,0.7,11,0.7"/>
<path fill="none" stroke="#000000" stroke-width="4" stroke-linecap="round" stroke-linejoin="round" stroke-miterlimit="10" d="
	M115,283c0,0,6.6,9.4,32.9,4s28-12.4,28-12.4"/>
<path fill="none" stroke="#000000" stroke-width="4" stroke-linecap="round" stroke-linejoin="round" stroke-miterlimit="10" d="
	M113.7,254.9c0,0,4.2,9.5,21.4,8.6"/>
<path fill="none" stroke="#000000" stroke-width="4" stroke-linecap="round" stroke-linejoin="round" stroke-miterlimit="10" d="
	M161.1,163.9c0,0,16.2,14.6,34.2,20s27.1,6.4,27.1,6.4"/>
<path fill="none" stroke="#000000" stroke-width="6" stroke-linecap="round" stroke-linejoin="round" stroke-miterlimit="10" d="
	M91.9,459.1c0,0-15.7,5.3-14.5,10.2s98.9,27,191.9,12.2"/>
<path fill="none" stroke="#000000" stroke-width="6" stroke-linecap="round" stroke-linejoin="round" stroke-miterlimit="10" d="
	M99.8,476.5c0,0-12.9,3.1-13,8.5s87.2,29,208.6,11.3"/>
<path fill="none" stroke="#000000" stroke-width="6" stroke-linecap="round" stroke-linejoin="round" stroke-miterlimit="10" d="
	M92.2,489.7c0,0-25.2,1.5-24.9,10.2s66.5,16.8,142.2,16.1s83.8-10.8,83.8-10.8"/>
<path fill="none" stroke="#000000" stroke-width="6" stroke-linecap="round" stroke-linejoin="round" stroke-miterlimit="10" d="
	M82.2,508.9c0,0-4.8,5,4,9.4s50.1,12.8,116.6,11.9c66.5-0.9,86-5.5,86-5.5"/>
<path fill="none" stroke="#000000" stroke-width="6" stroke-linecap="round" stroke-linejoin="round" stroke-miterlimit="10" d="
	M102.7,524.2c0,0-10.1,1.1-10,7.8c0.1,6.6,38.3,16.1,118.3,16.7c80,0.7,101.6-10,101.6-10"/>
<path fill="none" stroke="#000000" stroke-width="6" stroke-linecap="round" stroke-linejoin="round" stroke-miterlimit="10" d="
	M368.4,206.2c29.8-1.1,26.3,40.2-0.6,36.2C340.9,238.5,344.6,204.7,368.4,206.2z"/>
<path fill="none" stroke="#000000" stroke-width="6" stroke-linecap="round" stroke-linejoin="round" stroke-miterlimit="10" d="
	M378.8,205.4c0,0,0.9-10,12.4-7.6s8.3,21.9-1.8,20.5"/>
<path fill="none" stroke="#000000" stroke-width="6" stroke-linecap="round" stroke-linejoin="round" stroke-miterlimit="10" d="
	M722.2,320.2c29.3,0,28,41,0,40.1C694.2,359.4,697.6,321.5,722.2,320.2z"/>
<path fill="none" stroke="#000000" stroke-width="6" stroke-linecap="round" stroke-linejoin="round" stroke-miterlimit="10" d="
	M720.7,361.7c0,0-4.3,12.8,8.4,14.9s15.3-15.2,7.9-20.2"/>
<path fill="none" stroke="#000000" stroke-width="6" stroke-linecap="round" stroke-linejoin="round" stroke-miterlimit="10" d="
	M772,568.3L747.4,581c0,0,12.2,51.9,15,61.6c2.9,9.6,7,21,14.2,19.4s8.1-16.7,8.1-16.7"/>
<line fill="none" stroke="#000000" stroke-width="6" stroke-linecap="round" stroke-linejoin="round" stroke-miterlimit="10" x1="761.5" y1="639.2" x2="903.3" y2="669.7"/>
<line fill="none" stroke="#000000" stroke-width="6" stroke-linecap="round" stroke-linejoin="round" stroke-miterlimit="10" x1="749.7" y1="581.1" x2="896.3" y2="606.1"/>
<path fill="none" stroke="#000000" stroke-width="6" stroke-linecap="round" stroke-linejoin="round" stroke-miterlimit="10" d="
	M773.4,585.2c0,0,1.8-33.3,8-66.8c6.3-33.5,34-110.6,53.7-111.1c7.3,0.7,10,6.1,10,6.1"/>
<path fill="none" stroke="#000000" stroke-width="6" stroke-linecap="round" stroke-linejoin="round" stroke-miterlimit="10" d="
	M865.1,413.7c0,0-4.8-6.4-11-2.9c-6.2,3.6-17.3,8.4-37.9,64.3c-20.6,55.9-20.4,111.7-20.4,111.7"/>
<path fill="none" stroke="#000000" stroke-width="6" stroke-linecap="round" stroke-linejoin="round" stroke-miterlimit="10" d="
	M818.2,591.7c0,0-2.2-21.3,12.4-85.2s39.4-105.4,48.3-107.7s11.7,14.4,11.7,14.4"/>
<path fill="none" stroke="#000000" stroke-width="6" stroke-linecap="round" stroke-linejoin="round" stroke-miterlimit="10" d="
	M910.9,411.5c0,0-1.1-7.2-8.7-5.5s-30.3,38.9-44,88.2c-13.7,49.3-17.9,100.9-17.9,100.9"/>
<path fill="none" stroke="#000000" stroke-width="6" stroke-linecap="round" stroke-linejoin="round" stroke-miterlimit="10" d="
	M858.8,598.5c0,0,2.1-46.8,20.2-112.6s40.4-83,45.4-81.6s6.6,5.5,6.6,5.5"/>
<path fill="none" stroke="#000000" stroke-width="6" stroke-linecap="round" stroke-linejoin="round" stroke-miterlimit="10" d="
	M949.2,427.9c0.2-1.1-1.2-16.7-9.3-17.6s-23.8,10.8-44.9,82.8s-19.3,105.4-19.3,105.4"/>
<line fill="none" stroke="#000000" stroke-width="3" stroke-linecap="round" stroke-linejoin="round" stroke-miterlimit="10" x1="751.9" y1="600.2" x2="899.9" y2="626.9"/>
<line fill="none" stroke="#000000" stroke-width="3" stroke-linecap="round" stroke-linejoin="round" stroke-miterlimit="10" x1="759.2" y1="625.8" x2="902.2" y2="655.3"/>
<line fill="none" stroke="#000000" stroke-width="3" stroke-linecap="round" stroke-linejoin="round" stroke-miterlimit="10" x1="761.5" y1="584.3" x2="775" y2="640.6"/>
<line fill="none" stroke="#000000" stroke-width="3" stroke-linecap="round" stroke-linejoin="round" stroke-miterlimit="10" x1="782.6" y1="587.9" x2="794.4" y2="645"/>
<line fill="none" stroke="#000000" stroke-width="3" stroke-linecap="round" stroke-linejoin="round" stroke-miterlimit="10" x1="803" y1="590.9" x2="813.9" y2="650.5"/>
<line fill="none" stroke="#000000" stroke-width="3" stroke-linecap="round" stroke-linejoin="round" stroke-miterlimit="10" x1="825.9" y1="595.1" x2="838" y2="655.7"/>
<line fill="none" stroke="#000000" stroke-width="3" stroke-linecap="round" stroke-linejoin="round" stroke-miterlimit="10" x1="846.2" y1="597.6" x2="856.9" y2="658.6"/>
<line fill="none" stroke="#000000" stroke-width="3" stroke-linecap="round" stroke-linejoin="round" stroke-miterlimit="10" x1="866.9" y1="601.1" x2="876" y2="663.8"/>
<line fill="none" stroke="#000000" stroke-width="3" stroke-linecap="round" stroke-linejoin="round" stroke-miterlimit="10" x1="886.7" y1="605.1" x2="894.3" y2="666.2"/>
<path fill="none" stroke="#000000" stroke-width="23" stroke-linecap="round" stroke-linejoin="round" stroke-miterlimit="10" stroke-opacity="0" d="
	M575,265.8c-1.4,0.3-7.1,5-7.1,5s-33.5,2.2-30.5,1.1s23.8-10.5,23.8-10.5l-15.5-10.8c0,0-13.8,13.8-19.7,13.8c-6,0-21,0.6-21,0.6
	l36.7-24l-9.3-10.3c0,0-31.2,23-33.5,20c-2.2-3-4-12.1-4-12.1l32.9-19.5l-5.4-10.1c0,0-34,12.9-34.5,10.8c-0.5-2-5.5-10.8-5.5-10.8
	l34.4-14.9l-5.5-10.4c0,0-15.7,10.6-17.5,11c-1.8,0.5-10.6-7.6-10.6-7.6l24.3-12.8l-4.7-11l-22.6,4.7l-0.7-13.1
	c0,0,23.1-3.9,23.1-4.6c0-0.7-2.5-13.6-2.5-13.6s-19.9,4.4-20.6,3.4c-0.7-0.9-2.6-7.7-2.6-7.7s18.5-4.5,16.5-6.8
	c-2.1-2.3-6.5-15.5-6.5-15.5s-1.6-20.3,1.1-37.5c2.8-17.2,23.6-38.2,40-46.2c16.4-8,44.9-6.5,44.9-6.5l19.3,3.3
	c0,0,11.4-2.9,12.4-2.9s15.9,0.6,15.9,0.6l-20.9,10l7.5,6.3l26.5-5.4l13.9,5.2L618,50.3c0,0,4.2,5.9,4.1,7s29.5-11.3,31.3-9.1
	c1.8,2.2,9.4,6,9.4,6l-35.2,16.4l4.9,8.7c0,0,34.3-14.7,35.2-13.6c0.9,1,9.4,8.8,9.4,8.8l-40.4,16.6l2.9,12.1
	c0,0,41.7-14.9,42.6-14.5c0.9,0.3,6.8,7.9,6.8,7.9s-47.4,19.6-47.4,19.9s2.4,9.7,2.4,9.7s48.4-18.3,48.8-15.9s4.9,10.5,4.9,10.5
	s-51.1,18.9-51.5,19.8c-0.3,0.9,3.1,13.9,3.1,13.9s52.5-18.7,53-17.7s9.8,15.6,8.7,15.8s-61.1,16.3-61.1,16.9s0.2,8.6,0.2,9.2
	s57.3-11.4,58.4-9.3c1,2.1,3.3,9.4,3.3,9.4s-61.1,13.2-61.1,13.8s1.4,12.6,1.4,12.6s63.3-13.4,63.4-10.5s-0.7,11.7-0.7,11.7
	l-63.1,10.5l0.1,9.3c0,0,65.8-7.2,65.7-6.2s0,12.2,0,12.2s-69.7,6.1-69.4,7s0.5,12.5,0.2,13c-0.2,0.5,64.3-5,64.3-4.9s-1.6,9-1.6,9
	l-40.8,9.7l-10.5-0.5l-8.9-0.7l-6.6-1.8"/>
<path fill="none" stroke="#000000" stroke-width="23" stroke-linecap="round" stroke-linejoin="round" stroke-miterlimit="10" stroke-opacity="0" d="
	M489.3,79.6c0.5-1.5,12.2-28.7,44.3-37.7s58.5,3.4,58.5,3.4l18.3,8.5l8.9,9.3"/>
<path fill="none" stroke="#000000" stroke-width="23" stroke-linecap="round" stroke-linejoin="round" stroke-miterlimit="10" stroke-opacity="0" d="
	M534.1,57.1c-3.8,2.1-37,36.6-37,36.6s-2.2,17,0,15.9s52.6-56,55.4-56.2c2.7-0.2,15.3,0,15.3,0s-59,65.4-60.9,68.5
	s4.3,20.9,4.3,20.9l74.2-83.6l9,2.8c0,0-76.1,84.1-74.2,93.5s1.3,18.5,2.1,17s83.4-102.1,86-99.9s9.7,7.2,9.7,7.2
	S532,189,532.3,190.2s3.6,15.3,3.6,15.3l87.5-106.4l4.9,13.8c0,0-82,103-82,105.7s5.5,13.2,5.5,13.2l77.3-104.4l3.6,17.3l-70,98.3
	l15.5,5.9L636,164l0.3,18.4l-43.8,71.9c0,0,4.8,11.9,4.9,10.7c0.1-1.2,40-62.4,39.4-55.5s-4,33.4-4,33.4l-19.7,24.3l-7.3,9.1
	l-3.8,12.5v13.8c0,0,3.2,4.6,4.5,1.8c1.4-2.8,6.7-9.4,9.3-14s9.2-16.1,9.2-16.1l-14.6,8.3"/>
<path fill="none" stroke="#000000" stroke-width="23" stroke-linecap="round" stroke-linejoin="round" stroke-miterlimit="10" stroke-opacity="0" d="
	M456.6,331.6l-6.4-17.6l4.6-17.1c0,0-18.4,3.9-18.4,4.2s1.6,15.2,1.6,15.2s-8.7,2.1-8.9,0s-3-11.9-3.7-12.1s-14.2,2.6-14.2,2.6
	s5.5,15.9,3.5,15.9s-13.1-1.4-13.6-1.7s-1.3-13.5-2.6-14.2c-1.4-0.6-14.3,2.4-15,3.4c-0.7,0.9-0.9,7.9-1.8,8.4s-6.8,0.8-9.6-0.7
	s-11.4-8.2-12.2-6.6c-0.8,1.6-2.5,6.3-4.4,6.6s-9.9-5.7-9.9-5.7s-0.9,7.8-3.4,10.5s-11.8-18.5-11.8-18.5s-6.3,36.4-6.3,35.3
	s3-52.4,3-52.4l-29.8,68.7l-14.4,2l31.1-83.6c0,0-0.5-12.7-1.8-11.3s-36.9,88.9-37.6,83.4s22.4-98,21.3-96.5s-13,3.8-13,3.8
	s-7.2,34.8-10.8,37.2c-3.7,2.4-12.6,9.3-12.7,7.4s5.8-38.4,5.8-38.4s-12.6-0.5-13.6,1.4s-12,33.1-12,33.1s-3.9,0-4.2-1.8
	c-0.2-1.8,2.3-21.6,2.3-21.6"/>
<path fill="none" stroke="#000000" stroke-width="23" stroke-linecap="round" stroke-linejoin="round" stroke-miterlimit="10" stroke-opacity="0" d="
	M613.8,429.9l2.6,2.9l-2.6,22.6l-17.5,70.7l-9.5,36.9l-6.5,20.8l-7-2c0,0,14.4-69.8,12.2-69.4c-2.3,0.4-10.6,0.8-10.6,0.8
	l-17.3,62.9l-8.2-0.8l11.7-68.4l-10.4,1.6L536,553.6l1.1-35.1l-13.8,28.7"/>
<path fill="none" stroke="#000000" stroke-width="23" stroke-linecap="round" stroke-linejoin="round" stroke-miterlimit="10" stroke-opacity="0" d="
	M468.1,292.1l121.2-8.6c0,0,0.8,7.6,0,7.6s-117.3,14-117.3,14s2.3,14.9,3,14.8S581.6,309,581.6,309l65.3-17.4l6.7,10.1
	c0,0-69.3,22.7-70.1,26.3s-1.4,14.7-1.4,14.7l77.2-27.7l1.4,13.2l-80.3,32.1c0,0,4,8,5.6,8.7c1.7,0.6,68-25.1,70.3-24
	s9.9,5.9,9.9,5.9l-68.1,35.6c0,0-5.5,19.2-4.3,18.3c1.2-1,68.1-34.4,68.1-34.4l7.2,8.1l-68.9,39.3l9.2,5l60.8-31.1l9,8.7
	c0,0-45,29.5-46.1,29.4c-1.1-0.2,0,9.5,0,9.5s45.9-22.7,46.1-23.2s9.8,4.7,8.7,5.5c-1.1,0.7-22.7,14-22.7,14s-23.3,7.1-23.4,7.3"/>
<path fill="none" stroke="#000000" stroke-width="23" stroke-linecap="round" stroke-linejoin="round" stroke-miterlimit="10" stroke-opacity="0" d="
	M620.4,458.6c0.2-0.8,16.3-6.3,16.3-6.3s51.9-15.3,52.8-15s11.4,5.8,11.4,5.8l-78.6,35.1c0,0-5.5,13.8-3.9,11.9s82.3-33,83.5-30.3
	s8.5,7,4.6,7.9s-86.1,39.2-86.1,39.2s16.2-1.2,19.2-2.3s74.5-23.6,74.5-23.6s6.4,6.3,4.8,6.6c-1.5,0.4-23.7,13.9-20.3,12.4
	c3.4-1.6,17.1-2.6,16.5-1.6s-11.4,15.3-11.4,15.3l11.4-3.3l-8.2,8.5l12.2-1.9"/>
<path fill="none" stroke="#000000" stroke-width="23" stroke-linecap="round" stroke-linejoin="round" stroke-miterlimit="10" stroke-opacity="0" d="
	M357.4,541.7c0,0-11.3,8.3-9.8,11.9c1.5,3.6,5.2,15,6.4,11.9s14.1-24.8,15.6-24.6s9.3,1.7,9.3,1.7s-12.2,23.9-11.8,24.6
	c0.3,0.7,3.1,3.2,4.6,1.8c1.6-1.4,16.4-19.9,16.4-19.9l4.9,12.2l-4.9,9.5c0,0,1,19.2,2.9,18.5s11.7-26.6,11.7-26.6H416
	c0,0-14.1,35.3-12,35.5s9.3,3.3,9.9-0.3s14.9-39.4,14.9-39.4s15.1-2.6,14.1-2s-10,34-10,32.8s5.7-10,10.9-8.7s12.5,1.4,12.5,1.4
	l3.5-22"/>
<path fill="none" stroke="#000000" stroke-width="23" stroke-linecap="round" stroke-linejoin="round" stroke-miterlimit="10" stroke-opacity="0" d="
	M412.9,550.1V456c0,0-3.1-44.4,17-59.4c20.2-14.9,37.9-7.4,42.5,4.6s4.4,31.4,4.4,31.4s-1.4,20.7-2.3,21.3"/>
<path fill="none" stroke="#000000" stroke-width="23" stroke-linecap="round" stroke-linejoin="round" stroke-miterlimit="10" stroke-opacity="0" d="
	M268.1,474.2c3.7-2.3,42.4-31,42.4-31s-60.3,33.3-44.9,25s44.9-38.5,44.9-38.5l-4.7-29.9c0,0-50.6,41.6-47.9,38.3
	c2.7-3.3,28.6-48.1,28.6-48.1s-38,37.6-37.8,35.9s14.8-37.6,15.6-39.7s-4.6-15.1-6.4-13.5c-1.8,1.5-13.7,16.9-13.3,13.5
	s4.9-12.7,4.9-12.7l-51.4,33.9c0,0,13.9-18.8,11.9-17.4c-2.1,1.5-28,13.2-28,13.2s-13.6,31.5-17,32s-25.8,9.6-24.3,6.1
	s21.7-27.2,21.7-27.2S83,430.8,83,427.9s16.8-15.8,16.8-15.8s32.3-55.6,29.7-53.4c-2.6,2.2-22.5,9.1-22.5,9.1l1.6-11l-16.2,6.1
	c0,0,150.8-44.7,146.3-45s-95.9,17.9-88.4,14.7s62.8-20.9,59.7-21.4c-3.1-0.4-26.1-3.8-31-1.3s-79.8,19.5-83.2,17.5
	s-9.6-11.3-7.1-11.2c2.5,0.1,58.7-11.8,60.1-12.1s66.3-38.6,63.9-37.4C210.3,267.9,99,291.4,99,291.4s-5.9-5.9-4.1-7.4
	s68.3-17.3,68.3-17.3s-41.6-3.1-40.7-4.8c0.9-1.7,16.8-5.4,16.8-5.4s51.9-33.6,46.5-33.5s-44.7,14.1-43.5,11.4s17.7-16,17.7-16
	s-28.1,10.6-25.5,7.5s82.2-38.2,82.2-38.2l-16.7-2.8c0,0,6.9-1.6,2.7-3.8c-4.2-2.1-15.5-5.5-16-5.8s-8.1-5-9.3-5s-7.1-1.7-7.1-1.7"
	/>
<path fill="none" stroke="#000000" stroke-width="23" stroke-linecap="round" stroke-linejoin="round" stroke-miterlimit="10" stroke-opacity="0" d="
	M778.6,560.1c0.2-2.1,113.3-67.2,113.3-67.2l-5.2,15.8c0,0-118.9,65.4-118.4,66.5s7,10.6,8.4,9.1s104.5-55.4,104.5-55.4l-4.2,18.7
	l-73.9,39.2l21.6,4.1c0,0,50.1-26.3,49.6-25.6s-2.7,10.1-2.7,10.1s-28.2,18.5-26.3,17.7s11.8,3.1,11.8,3.1l17.3-7l-3.9,7"/>
</svg>
