<?xml version="1.0" encoding="utf-8"?>
<!-- Generator: Adobe Illustrator 24.3.0, SVG Export Plug-In . SVG Version: 6.00 Build 0)  -->
<svg isCommex="true" version="1.1" id="Layer_3" xmlns="http://www.w3.org/2000/svg" xmlns:xlink="http://www.w3.org/1999/xlink" x="0px" y="0px"
	 width="923.2px" height="822.9px" viewBox="0 0 923.2 822.9" enable-background="new 0 0 923.2 822.9" xml:space="preserve">
<path fill="#FFE400" d="M309.3,223.8c-2.1-1.3-6.4-2.7-9.5-3.5l-1-0.3l-0.4,2.3c-0.3,1.5-0.6,3.2-0.9,5.1c-1.1,7-1.4,11.8-1.1,14.6
	l0,0.2l0.1,0.2c0.4,0.7,1.1,1.4,1.9,1.8c1.7,1,4.2,1.3,5.8,1.3h1.3l0.2-0.6c1.3-3.5,3.7-16,4.1-20.1l0.1-0.6L309.3,223.8z"/>
<path fill="#FFE400" d="M614.2,193.4c-1.4-1.4-2.2-3.5-2.2-5.7c0-0.8,0.2-1.5,0.3-2.1l1,1.9v-4.2h-0.9l0.8-0.4
	c-0.4-0.8-4-7.6-12.7-7c-10.1,0.7-20.5,3.9-24.7,7.6c-3.1,2.8-6.9,10.7-8.7,15.3l-0.8,2.1l2.1-0.8l2.3-1c3.8-1.7,8.1-3.5,12.2-4.1
	c7.7-1.2,14.1,3.3,16.8,7.9l0.4,0.7l0.8-0.3c3.1-1.1,10.5-4.2,13.4-8.6l0.4-0.7L614.2,193.4z"/>
<g>
	<path fill="#C6C6C6" d="M725,184.5c-0.4-2.8-0.8-6.1-1.3-9.2c-0.5-3.5-1-6.8-1.2-8.9l-0.1-0.8l-0.8,0c-7.3-0.4-18.8,0.8-21.2,2.2
		c-0.9,0.4-1.8,1.5-2.7,2.7l-0.5,0.6c-2.1,2.4-4.4,5.2-7.9,5.7c-0.2,0-0.8,0.1-3.3,0.4c-2.9,0.4-7.5,1-13.2,1.6
		c-6.8,0.9-15,1.8-21.4,2.6c-12.9,1.4-27.2,3-34.6,3.6H616l-0.3,0.4c-0.4,0.6-0.8,1.8-0.6,3.1c0.2,1.4,0.7,2.3,1.6,2.8l0.3,0.2
		l0.3,0c5-0.4,17.6-2,31-3.8l5.4-0.7c6.4-0.8,11.8-1.5,16.4-2.1c21.6-2.7,24.3-2.7,25.2-2c0.9,0.7,1.7,1.7,2.4,2.6
		c1.2,1.6,2.2,3,3.8,3c2.2,0,13.3-1.5,22.6-2.8l1-0.1L725,184.5z"/>
	<path fill="#C6C6C6" d="M678.5,437.3c-1.5-6.5-3.1-13.3-4-19c-1-5.1-2-9.1-3-11.9l-1.3-3.5l-0.6,3.6c-0.4,2.1-0.8,4.5-1.2,5.5
		c-2,4.8-5.8,7.6-11.3,8.5l-1.4,0.2l0.6,1.2c1.8,3.5,2.4,7.7,1.8,12.4c-0.2,1.1-0.3,2.3-0.4,3.5c-1.5,14.9-3.3,28.4-9.4,31
		c-3.5,1.4-12.1,3.6-25.5,6.6c-0.5,0.1-0.9,0.2-1.1,0.2h-1.2l0,1c0.2,4.3,0.3,8.4,0.3,12c0,2.3,0,4.4-0.1,6l-0.1,1.1h1.3l0.2,0
		c0.2,0,2.3-0.4,4.9-0.9c8.2-1.5,25.2-4.5,35.2-6.6c1.6-0.3,3.1-0.6,4.2-0.9c0.5-0.1,1-0.2,1.4-0.3c1.3-0.3,2.6-0.6,3.9-0.8l0.8-0.1
		c8-1.6,11.9-2.7,12.6-10.4c0.5-7.3-2.9-22-6.2-36.1L678.5,437.3z"/>
	<path fill="#C6C6C6" d="M653.6,145.7c0.5,10.4,0,23.6-0.3,29.9l-0.1,2.5l1.2-0.1c6.3-0.7,11.2-1.3,15.3-1.8l0.9-0.1v-0.9
		c2-7.6,0.1-19.1-1.9-27.3c-2.3-9.7-5.5-18.2-6.9-20.9l0,0c-2.3-4.2-13.2-6.6-14.5-6.8l-1-0.2l-0.2,1c-0.1,0.6-0.1,1.2-0.1,1.7
		c-0.1,2.3-0.2,4.4-0.3,6.2l0,0.7l0.6,0.3C648.9,130.7,653.1,134.2,653.6,145.7z"/>
	<path fill="#C6C6C6" d="M616.3,473.7c-0.3-5.3-0.7-11.1-1.2-16.7c-1.8-19.7-4.3-56-5.2-69.7l-0.3-4.8l-1,0.1
		c-3.1,0.3-7.3,0.5-11.2,0.5c-4.4,0-7.5-0.2-10-0.5l-1.3-0.2l13.3,97.6c0.1,1.1-0.6,2.1-1.7,2.3h-0.3c-1,0-1.9-0.7-2-1.7l-2.8-20.1
		l-0.5-0.2c-0.9-0.4-4.3-1.2-6.8,0c-1.4,0.6-2.4,1.8-3.2,3.8c-1.1,3.2-1.3,8.9-0.3,15.5c1.2,8.8,4.1,18.4,7.9,26.2l0.3,0.5l0.6,0
		c0.2,0,0.5,0,0.7,0c6.1,0,20.7-3.5,24.2-4.9l0.5-0.2l0.1-0.5C616.7,498.3,617.2,489.7,616.3,473.7L616.3,473.7z"/>
	<path fill="#C6C6C6" d="M578.2,483.1l-0.2-1l-1,0.2c-18.6,3.3-46.8,4.8-47.1,4.8l-1,0v20.3l1,0c0.6,0,1.2,0,1.9,0
		c15.4,0,49.9-5.9,50.2-5.9l1.2-0.2l-0.4-1.1C580.8,494.6,579.2,488.8,578.2,483.1z"/>
	<path fill="#C6C6C6" d="M524.9,443.7l-0.9-0.1c-2.2-0.2-4.4-0.2-6.7-0.1l-1,0v1c0,27-1.2,44.3-3.3,47.3c-1.6,2.4-4.8,3-9.9,3.9
		l-0.1,0c-5.5,1-13,2.4-20.1,7.4l-1.9,1.4l2.3,0.4c7.7,1.5,17.9,3,25.1,3c1.1,0,2.2,0,3.2-0.1c6.9-0.5,11-1.8,12.8-2.6l0.6-0.3
		v-19.9l-0.1-1V443.7z"/>
	<path fill="#C6C6C6" d="M470.6,511.6l0-0.2c-0.7-3.7-2.2-6.3-4.8-8c-2.5-1.6-5.4-1.6-6.9-1.5l-0.9,0.2v0.8l-14.3,38.1l1.3,0.1
		c3.2,0.3,6.9,1.7,11.3,4.4l1.1,0.6l0.4-1.2c1.4-4.1,2.9-8.2,4.5-12.4c3.3-8.6,6-14.9,8.5-19.7l0.2-0.4l-0.2-0.5
		C470.6,511.8,470.6,511.7,470.6,511.6z"/>
	<path fill="#C6C6C6" d="M455.1,499.7l6.6-17.6l-1.2-0.2c-2.1-0.4-5.7-1-10.3-1.7c-4.7-0.8-10.6-1.7-16.8-2.8
		c-31.3-4.8-53.7-8.3-56.5-10c-0.7-0.5-1.4-1.1-1.9-1.8l-0.4-0.5l-0.6,0.2c-0.3,0.1-0.7,0.2-1,0.2h-14.8c-1.1,0-2-0.9-2-1.9l-0.8-22
		l-0.6-0.3c-0.3-0.2-0.7-0.3-1.1-0.5c-0.8-0.3-1.6-0.7-2.4-1.1l-1.5-0.7l0.1,1.7c0.2,7.1,0.2,15.5-0.4,17.3c-0.5,2-1.5,4.8-4.6,7
		l-0.4,0.3l0,0.5c0.1,2.8,0.2,9.6,0.6,12.3l0.1,0.7l0.7,0.2c3.3,0.8,12.4,1.4,19.1,1.6c4.4,0.2,8.9,0.3,11.8,0.3
		c4.3,0,5.7,2.5,6.8,4.5c0.6,1.1,1.3,2.2,2.4,3.3l0.2,0.1c1,0.5,3.7,1.4,15.6,3.5c15.2,2.6,37.1,5.5,52.5,7.4L455.1,499.7z"/>
	<path fill="#C6C6C6" d="M446.1,577.3L446.1,577.3c-0.2-0.9-1.2-4-4-5.7c-2.3-1.5-5.3-1.8-8.9-0.9l-0.5,0.1L402,652.3l1.1,0.3
		c2.7,0.7,5.3,1.6,7.6,2.7l1,0.5l0.4-1.1c5.2-14.4,17.2-46.8,18.9-49.6c1.5-2.6,3.3-3.2,4.7-3.6c0.1,0,0.2-0.1,0.3-0.1
		c0.8-0.2,1.8-0.5,2.9-1.4l0.1-0.1l0.1-0.1c1.1-1.7,3.4-8.1,7.5-20.7l0.2-0.6l-0.4-0.4C446.2,577.9,446.1,577.6,446.1,577.3z"/>
	<path fill="#C6C6C6" d="M298.5,474.2l-0.7,0l-0.3,0.6c-0.1,0.3-0.2,0.6-0.4,0.8c-0.3,0.6-0.5,1.2-0.7,1.7c-1,2.1-4.6,11.5-9.5,24.6
		l-3,8l1.3,0.2c2.6,0.3,7.6,1.4,12,4.7l1.1,0.8l0.4-1.3c3.7-11.2,8.1-21.7,12.8-30.3l-0.8-0.4h0.9v-4l-1,1.9
		C306.7,475,300.5,474.2,298.5,474.2z"/>
	<path fill="#C6C6C6" d="M273.9,538l-0.7,0l-0.3,0.6c-0.2,0.5-0.4,1-0.6,1.5c-0.2,0.5-0.3,0.9-0.5,1.4c-3.9,10.3-7.5,19.9-10.8,28.4
		c-3.4,9.1-6.4,17-9,23.8l-0.2,0.5c-4,10.2-6.8,17.6-8.3,21.2l-0.5,1.2l1.3,0.1c3.8,0.4,8.2,0.9,11.9,2l0.9,0.3l29.1-75.8l-0.6-0.5
		C281.6,539.9,277.2,538.1,273.9,538z"/>
</g>
<g>
	<path fill="#808080" d="M744.8,559.3l-0.1-0.1c-0.5-1.1-0.9-2.1-1.2-3l-0.6-1.4c-0.5-1.4-1-2.8-1.5-4.1c-2.2-5.5-4.9-10-11.4-13.4
		c-10.8-5.9-25.8-4.7-40.1,3c-13.6,7.4-22.6,31.7-27,43.4l-0.1,0.2c-0.8,2.2-1.5,4.2-2.3,5.9c-2.4,5.4-11,7.7-18,6.7l-0.9-0.1
		l-0.2,0.9c-1,5.1-2.9,18.8,0.1,34.7c2.8,14.4,8.8,26.8,17.8,36.8c10,11.1,22.5,17.1,35.3,17.1c3.3,0,6.6-0.4,9.9-1.2
		c19.1-4.5,34.6-22,41.4-46.9C758.6,592.3,748.9,569.2,744.8,559.3z M732.8,652L732.8,652c-7.9,11.5-17.9,17.6-29.1,17.6
		c-1.1,0-2.3-0.1-3.3-0.2c-12.6-1.3-22.5-9.3-28.5-23.2c-10.8-24.5-6.8-61.2,8.8-81.9c8.2-10.9,18.8-16.5,30.8-16.5
		c1.8,0,3.7,0.1,5.5,0.4c10.3,0.5,18.6,6.4,24.1,17.2C752.7,588.4,748.8,628.9,732.8,652z"/>
	<path fill="#808080" d="M646.2,592.7c5.1,0,9.8-1.8,10.9-4.5c0.6-1.1,1.2-2.9,2-5.1l0.3-0.7c4.8-13.1,13.8-37.5,28.9-45.8
		c15.4-8.4,31.8-9.6,43.8-3c6.8,3.7,9.8,8.4,11.6,12l1.3,2.6l0.6-2.9c0.1-0.5,0.2-1.2,0.1-2c-0.6-5.8-7.2-14.9-18-20.5
		c-1.1-0.6-2.5-1.3-4.6-2l-0.1,0c-3.8-1.2-24.1-6.6-50,3.5c-6.5,2.5-12.3,6.7-17.8,12.6c-8.4,9.1-13.4,20.4-16.1,28.2
		c-3.4,9.6-4.5,17.7-4.2,21.2c0,0.5,0.2,1,0.2,1.3c1.1,3.4,5.4,4.6,7.8,5C644,592.6,645.1,592.7,646.2,592.7z"/>
	<path fill="#808080" d="M732.1,613.8l-0.4-0.3c-3-2.1-9.2,0.2-10.4,0.7l-0.5,0.2l-0.1,0.6c-0.9,8.1-1.2,20.9,1.3,22.9l0.3,0.3
		l0.4-0.1c1.3-0.2,2.6-1.3,4-3.3c4-6.1,5.6-17.8,5.4-20.5L732.1,613.8z"/>
	<path fill="#808080" d="M720.7,589.7l0.3,0.2c0.5,0.3,1.2,0.4,1.9,0.4c1.3,0,2.9-0.4,4.5-1.2c2.3-1.1,4.2-2.8,4.4-4.1l0-0.1l0-0.1
		c-1.3-9.2-6.5-11.9-9.4-12.7l-1.1-0.3l-0.2,1.1c-0.7,5-1.7,14.1-0.6,16.6L720.7,589.7z"/>
	<path fill="#808080" d="M712.6,597.6l-0.2-0.1h-0.1c0,0-0.1-0.1-0.2-0.1l-0.4-0.2l-0.4,0.1c-3.3,0.8-5.1,6.7-4.9,11.8
		c0.2,3.3,1.2,5.3,2.6,5.3c0,0,0,0,0,0c2.5-0.2,4.7-5.2,5.2-9.7C714.8,601,714.1,598.1,712.6,597.6z"/>
	<path fill="#808080" d="M706.6,631l-1,0.5c-3,1.4-11.2,10.5-11.7,13.6l0,0.3l0.1,0.3c0.8,1.7,2.6,2.5,3.6,3
		c2.1,0.9,4.7,1.2,6.6,1.2c1.1,0,2-0.1,2.5-0.3l0.4-0.1l0.2-0.4c1.2-2.8,0.7-13.9-0.5-16.9L706.6,631z"/>
	<path fill="#808080" d="M698.8,587.5c1.2,0.9,2.2,1.3,2.9,1.5l0.7,0.2l0.4-0.6c2.1-3,3.4-16,2.4-19.5l-0.3-1l-1,0.3
		c-3.5,1.2-8.5,7-10.9,10.1l-0.3,0.4l0.1,0.4C693.4,581.9,695.8,585.3,698.8,587.5z"/>
	<path fill="#808080" d="M696.3,611.6l-0.1-0.2c-0.8-2.1-7.6-5.7-11.1-7.3l-1.3-0.6l-0.1,1.4c-0.5,6.9-0.7,15.3-0.2,18.6l0.2,1.5
		l1.3-0.8c3-1.8,11.2-9.5,11.3-12.5L696.3,611.6z"/>
	<path fill="#808080" d="M632.8,328.4l1.2,0.1c13.8,1.3,32.9,14.9,33.5,22.1c0,0.3,0.1,0.6,0.1,0.9l0,0.4c0,0,0,0.1,0,0.1l-0.2,1.1
		l0,0c-0.3,1.4-1.1,2.3-1.8,2.9c-2.8,2.4-8.3,2.6-16.7,0.7l-0.8-0.2c-6.7-1.5-13-2.9-21.5-3.2l-1.1,0l0,1.1
		c0.1,3.2,0.7,19.4-2.3,28.4l-0.3,0.9l0.9,0.3c4.2,1.6,9.5,4.9,11.1,11.8c0.3,1.2,0.5,2.5,0.7,3.7c0.5,3.7,0.9,8.1,1,13.1l0,0.7
		l0.7,0.2c5.9,2,10.6,3.1,14.5,3.3c0.6,0,1.1,0.1,1.6,0.1c5.8,0,9.5-2.1,11.3-6.4c0.3-0.9,0.8-3.5,1.5-7.7c1.5-10.1,3.5-28.3,5.5-46
		l0.5-4.9c0.3-2.3,0.6-4.7,0.8-6.9l0.5-4.5c2.7-24.8,5.3-48.2,6.7-55c3.2-15.6,11.5-78.5,10.2-87.6v0c-0.4-2.8-3.2-5.1-8.3-6.7
		l-0.6-0.2l-0.3,0.3l-0.1,0c-0.2,0.1-5.9,3.1-9.8,17.8c-1.4,5-2.3,12-3.4,19.4l-0.1,1c-2.3,16.1-5.1,36.1-12.9,49.4
		c-10.6,18.1-17.8,34.3-21.6,48.3L632.8,328.4z"/>
	<path fill="#808080" d="M678.6,516.9l-7.1,1.3c-21.3,4-36.9,8-47.8,12.3c-2.1,0.9-5.6,2.6-10.2,5.9c-7.2,5.2-14.7,12.6-22.3,22
		c-4.6,5.7-9.5,12.6-14.5,20.3l-0.1,0.1c-0.4,0.8-1.4,2.8-0.1,4.6c0.8,1,2.6,1.8,5.3,1.8c1.2,0,2.7-0.2,4.3-0.6l0.4-0.1l0.2-0.3
		c0.6-0.9,1.3-2,1.9-3.1c0.7-1.1,1.3-2.2,2.1-3.3c8.2-13.2,19.4-31.3,32.6-36.1c14.5-5.2,28-8.5,29.5-8.7h0.5l0.3-0.3
		c5.5-5.7,11.4-9.8,17.7-12.2c0.3,0,0.6-0.2,0.8-0.3l-0.4-0.9l0.4,0.9L678.6,516.9z"/>
	<path fill="#808080" d="M508.4,512.2c-11,0-27.9-3.4-29.4-3.8l-0.1,0c-0.1,0-0.3-0.1-0.5-0.1h-0.6l-0.3,0.5c-0.2,0.3-0.4,0.6-0.6,1
		c-0.5,0.8-1,1.6-1.5,2.5c-2.4,4.4-5.2,10.6-8.3,18.4l-0.4,1.1l3,0.5c7.8,1.4,24.1,4.4,33.2,6.6c2.3,0.6,5.1,0.8,8.1,0.8
		c11,0,25.8-3.2,38.2-6l3.1-0.7c33.7-7.4,38.2-7.1,39.9-6.2c0.1,0,0.2,0.1,0.3,0.1c0.1,0.1,0.3,0.1,0.4,0.2l0.1,0.1
		c2.8,1.6,9.4,5.2,20,3.2c0.6-0.1,1,0,1.1,0.1l0.5,0.3l0.5-0.3c2.3-1.4,4.6-2.6,6.9-3.6c17.2-6.6,41.2-11.3,54-13.4l7-1.2l-7.1-0.8
		c-5.5-0.6-11.6-1.2-15.7-1.1c-11.6-0.3-36.5,3.1-40,3.7l-0.3,0c-4.8,1.4-8.3,2.7-10.5,3.8c-0.4,0.2-0.7,0.2-1,0.2
		c-0.8,0-1.5-0.4-1.8-1c-0.5-1-0.1-2.1,0.9-2.7c2.7-1.4,6.7-2.9,11.8-4.3c6.9-2.1,15.4-4,22.9-5.8l3.5-0.8c8.2-1.8,13.1-3,14.9-3.6
		l0.5-0.2l0.1-0.6c0.2-1.1,0.1-2.8-0.3-5.5l-0.2-1l-1,0.2c-13.6,2.7-35.4,6.6-37.3,6.9h-0.4c-0.2,0-0.5-0.1-0.8-0.2l-1.2-0.6
		l-0.2,1.3c-0.6,3.6-1.5,4-2.1,4.4c-1.9,1-18.1,5.6-26.8,5.6c-1.6,0-2.7-0.1-3.3-0.3c-0.6-0.2-1-0.6-1.3-1l-3.4-6.8v3.5
		c-4.8,0.8-36.2,6.1-51.4,6.1c-1.4,0-2.9-0.1-4.3-0.2c-0.8-0.1-1.4-0.6-1.7-1.2l-0.4-0.8l-0.9,0.3c-3.5,1.2-7.9,2.1-12.7,2.4
		C510.8,512.2,509.6,512.2,508.4,512.2z"/>
	<path fill="#808080" d="M551.8,353.9c3.1,0.3,17.2-0.7,23.1-1.1c12.7-0.9,27.8-2.1,37.4-3c4.8-0.3,8.1-0.5,11-0.5
		c11,0,18.9,1.8,26.5,3.5c3.9,0.9,6.7,1.2,8.7,1.2c2.4,0,3.7-0.5,4.4-1l0.1-0.1c0.3-0.3,0.7-0.8,0.6-2l0-0.1
		c-0.7-4.3-17.9-17.2-30.3-18.4c-0.3,0-0.6,0-0.9,0c-0.4,0-0.9-0.1-1.4-0.1h-3.7c-11.1,0-32.2,1-62.8,3c-1.5,0.1-2.4,0.2-2.6,0.2
		c-3.1,0.2-6.3,1-8.8,2.2c-3.1,1.5-4.9,3.7-5.1,6.3c-0.1,1.1-0.8,6.6,1.1,8.8C549.6,353.2,550.3,353.7,551.8,353.9z"/>
	<path fill="#808080" d="M619,456.2l0.2,2.5c0.3,4.1,0.6,8.1,0.9,11.8l0.1,1.1l1.1-0.2c0.2,0,19.7-4.1,25.4-6.5
		c3.5-1.4,5.3-11.9,6.9-27.2l0-0.3c0.2-1.3,0.3-2.4,0.4-3.5c1.1-9.5-3.1-12.6-3.5-12.9l-0.2-0.5l-0.6,0c-3.4-0.3-7.3-1.2-11.9-2.7
		l-1.3-0.4l0,1.3c-0.2,7.5-0.9,13.4-1.8,15.1c-3.9,7.4-10,9.9-14.5,10.7h-0.4c-0.1,0-0.2,0-0.3,0l-1.6-0.8l0.1,1.8
		C618.4,449.7,618.7,453.2,619,456.2z M650.4,421.1C650.4,421.1,650.4,421.1,650.4,421.1L650,422l0,0L650.4,421.1z"/>
	<path fill="#808080" d="M631.6,85.4c5.6,8.2,4.6,18.5,3.8,26.8c0,0.7-0.1,1.3-0.2,1.9c-0.2,2-0.3,3.8-0.2,5.3
		c0,1.1,0.1,2.3,0.2,3.6l0,0.3c0.5,6.1,1.4,15.3-3.3,20.9l-1.8,2.2l2.8-0.6c5.9-1.2,8.7-5.4,8.9-13.5l0.1-2.2
		c0.1-2.2,0.2-4.8,0.3-7.7c0.1-0.7,0.1-1.5,0.1-2.3c0-0.7,0-1.5,0.1-2.3c0.3-7.7,0.6-15.8,0.6-23c0-3.9-1.4-7.4-4.3-10.2
		c-2.8-2.8-7-5-12.3-6.5l-6.6-1.8l5.9,3.6C628.4,81.7,630.3,83.5,631.6,85.4z"/>
	<path fill="#808080" d="M634.1,564.6c-1.3-2.1-4.6-6.3-11.4-6.3c-0.1,0-0.1,0-0.2,0c-3,0.1-5.2,1-6.6,2.6c-2.6,3-3.2,8.7-2,18.6
		c0.4,4,2,7,4.7,8.5c0.1,0,0.2,0.1,0.2,0.1l0.2,0.1c1.3,0.6,2.9,0.9,4.5,0.9c2.5,0,5.1-0.7,6.9-1.6l0.6-0.3l-0.1-0.7
		c-0.3-3.6,0.4-11,3.6-20.6l0.4-1.3H634.1z M627.8,577.9L627.8,577.9c-1.1,1.5-2.8,2-4.6,1.4c-3.1-0.9-4.6-3.8-3.8-7.3
		c0.6-2.7,2.5-5.5,4.9-5.5c0,0,0.1,0,0.1,0l0.1,0l0.1,0c2.1-0.2,3.3,1.4,3.8,2.3C629.6,571.2,629.7,575.5,627.8,577.9z"/>
	<path fill="#808080" d="M617.6,439.9l0.1,1.5l1.3-0.7c0.1,0,0.1-0.1,0.1-0.1l0.2,0c5.4-1,9.2-3.8,11.7-8.7c1-2.3,2.1-16.9,0.9-28.5
		l0-0.4l-0.3-0.3c-0.3-0.3-0.4-0.8-0.3-1.2l0.1-0.4c0-0.4,0.1-1.6-0.9-3c-1.4-1.9-5.2-4.4-15.2-5.2l-1.2-0.1l0.1,1.2
		C615.2,407.1,616.5,425.5,617.6,439.9z"/>
	<path fill="#808080" d="M624.2,569.5l-0.3,0.3c-0.6,0.6-1.7,2.4-1.5,4.3c0,1.6,1.2,2.1,1.7,2.3c0.3,0.1,0.5,0.2,0.7,0.2h0.4
		l0.3-0.3c0.3-0.3,0.9-1.3,0.9-2.9c0-1.2-0.3-2.1-0.5-2.7l1.1-1.1H624.2z"/>
	<path fill="#808080" d="M609.2,636c-3.2,0-7.7-3.7-9-4.9l-0.8-0.7l-0.6,0.9c-1.2,1.8-2.3,2.8-3.3,3c-0.4,0.1-1.2,0.2-2.2,0.2
		c-5.3,0-15.3-1.4-19.6-3.9c-4.6-2.5-6.4-7.5-7-10.2l-0.2-0.7l-1-0.1c-0.8-0.1-1.7-0.2-2.6-0.4l-1.9-0.4l0.8,1.8
		c2.4,5.3,5.5,13.8,6.5,24.4c0.1,1.7,0.1,3.7,0,6.2l-0.1,1.4l65-17.6l-9,0.4C617.1,635.7,610.5,636,609.2,636z"/>
	<path fill="#808080" d="M619.7,353.3l-2.7,0.2c-1.4,0.1-2.8,0.2-4.4,0.3c-2.5,0.2-5.7,0.5-9.4,0.8c-3.6,0.3-7.7,0.7-12,1l-1.1,0.1
		l3.8,23.1l0.8,0c0.9,0,1.8,0,2.7,0c4.4,0,8.7-0.2,11.2-0.5h1.2l0-1c0.2-4.7,0.7-9,1.7-12.6c1-3.8,3.9-7.3,6.1-9.5L619.7,353.3z"/>
	<path fill="#808080" d="M607.7,594.5l-0.5-0.3l-0.5,0.2c-2.1,1-3.7,2.2-4.7,3.6c-0.2,0.3-0.5,0.5-0.7,0.6l-0.8,0.4l0.3,0.9
		c4.4,11,2.6,20.2,0.4,26.1l-0.5,1.4h1.1c1.4,1.3,2.9,2.5,4.2,3.3l0.5,0.3l0.5-0.2c0.1,0,0.2-0.1,0.3-0.1c0.1,0,0.2-0.1,0.3-0.1
		c2.2-0.7,7.6-6.5,7.2-19.6v0C614.5,599.2,608.4,595,607.7,594.5z"/>
	<path fill="#808080" d="M613.7,557.5l0.4-0.4c2.1-1.7,4.8-2.6,8.1-2.7c6.7-0.2,10.8,2.7,13,5.1l1.1,1.2l0.6-1.5
		c2.6-6.6,6.1-13.1,10.2-18.8l1.6-2.3l-2.7,0.7c-5.2,1.4-13.1,3.7-21.5,6.7l0,0c-4.2,1.6-8.5,4.8-13.6,10.3l-1.2,1.2l0.1,0
		c-6.2,7.2-11.7,16.1-15.8,22.8c-0.7,1.1-1.4,2.1-2,3.2c-1,1.6-1.9,3.1-2.8,4.3c-0.3,0.4-0.6,0.7-1.1,0.8c-1.3,0.4-2.3,0.7-3.3,0.9
		l-1,0.2l0,0.1c-0.2,0-0.5,0.1-0.7,0.1c-0.5,0.1-1.1,0.1-1.6,0.2c-3.7,0-6.6-1.2-8.3-3.4c-2-2.6-2.1-6-0.1-9.2
		c3.7-5.8,7-10.6,10.2-14.8l1.7-2.2l-2.7,0.7c-30.6,7.6-65.5,15.7-71.4,15.7c-6.2,0-31.5-5.5-50-9.6c-0.8-0.2-1.6-0.4-2.4-0.5
		c-1-0.2-1.8-0.4-2.5-0.6l-0.9-0.1l-0.3,0.8c-0.9,2.9-1.8,5.6-2.7,8.3l-0.3,0.9c-0.3,0.9-0.6,1.7-0.8,2.5c-0.4,1.4-0.9,2.7-1.3,4
		c-0.4,1.3-0.8,2.5-1.2,3.6l-0.3,1.1l30.1,5.4c0.1,0.1,0.3,0.1,0.5,0.1h0.3l0.2-0.1c6.7-4.1,18.1-9.1,34.3-9.1h0.8
		c31.7,0.3,42.8,8.3,50.7,15.8c0.9,0.8,1.7,1.7,2.4,2.5l1,1.1l0.7-1.3c3.1-5.8,11.5-8.1,16.2-9l1-0.2l0-0.1c2.3-0.4,4.2-0.5,5.1-0.5
		c2.2,0,4.5,1.2,6.6,3.6l0.7,0.8l0.7-0.8c3.4-3.8,9-5.5,12.1-6.2l1.3-0.3l-0.7-1.2c-1.2-2-1.9-4.4-2.3-7.1
		c-1.4-11-0.5-17.7,2.9-21.7C613.2,558,613.4,557.8,613.7,557.5z"/>
	<path fill="#808080" d="M510.9,573.1c6.8,0,57.8-12.4,76.8-17.1l0.3-0.1l0.2-0.3c6.3-7.8,12.4-14.2,18.2-18.9l2.1-1.7l-2.7-0.1
		c-7.4-0.2-12.4-2.9-14.8-4.2l-0.1,0c-0.1-0.1-0.3-0.1-0.4-0.2l-0.1-0.1l-0.3,0c-3.1-0.4-15.9,1.9-37,6.6l-3.3,0.7
		c-12.9,2.8-27.5,6-38.9,6c-3.3,0-6.4-0.3-9-0.9c-11.7-2.8-35.5-7-35.8-7l-0.8-0.1l-0.3,0.8c-1.2,3.2-2.4,6.7-3.6,10.1l-1.2,3.3
		c-1.3,3.7-2.6,7.6-3.8,11.4l-0.3,1.1l1.1,0.2c1.4,0.3,2.7,0.6,4.4,1C468.6,565.1,504,573.1,510.9,573.1z"/>
	<path fill="#808080" d="M576.6,478.4l0.9-0.2l-0.1-0.9c-0.6-6.3-0.3-11.4,0.8-14.7c1-2.9,2.8-5,5.2-6.1c2.7-1.1,5.4-1.1,7.2-0.8
		l1.3,0.2l-1.3-9.3l-0.8,0c-1.9-0.1-6.3-0.3-11-0.4c-6-0.2-12.2-0.5-14.1-0.6c-1.2-0.1-2.9-0.5-5.2-1.3l-0.3-0.1l-0.3,0.1
		c-5.4,1.6-15.1,1.6-28.9,0.2l-1.1-0.1v38.9l1.1-0.1C537,482.6,561,481.1,576.6,478.4z"/>
	<path fill="#808080" d="M561.9,411.2l-0.1,0.1c-2,5.1-1.5,20.3-0.9,28.5l0.1,0.7l0.6,0.2c1.6,0.5,2.6,0.7,3.3,0.7c0,0,0,0,0,0
		c3.2,0.2,18.4,0.8,23.9,1l1.2,0l-6.5-47.4l-1.1,0.3C577.4,396.7,567.9,400.5,561.9,411.2z"/>
	<path fill="#808080" d="M570.8,618.4l-0.5,0.4l0.1,0.6c0.1,0.5,0.9,5,4.4,7.4l1,0.7l0.5-1.2c4.8-11.8,1.7-20.8-0.5-25l-0.6-1.2
		l-1,1c-0.7,0.7-1.6,1.7-2,3.1c-0.1,0.4-0.4,0.8-0.8,1l-0.7,0.5l0.4,0.8c1.7,3.4,2.3,6.5,1.7,8.9
		C572.5,616.6,571.8,617.6,570.8,618.4z"/>
	<path fill="#808080" d="M532.7,606.3c3.4-2,9.6-1,13.3,1.2c5,2.9,8.8,4.9,12.1,6.1c4.4,1.7,7.6,2.3,9.8,1.8l0.3-0.1
		c0.5-0.2,0.6-0.5,0.8-1.1c0.6-2.6-1.6-8-6.6-12.8c-7.6-7.3-17.6-14.5-48.2-14.8h-0.7c-16.7,0-28,5.5-34.7,10.1
		c-5.7,4.1-9.4,8.5-9.9,10.6l0,0.6c0,3.8,0.3,6.1,7.1,6.4h1.1c4.9,0,9.1-1.2,12.2-2c4.5-1.2,7.5-1.8,9.2,0.8
		c0.7,1.1,1.1,2.2,1.5,3.5l0.2,0.7c0.8,2.9,1.5,4.8,3.6,5.1c0.9,0.1,1.7,0.1,2.6,0c4.2-0.3,7.1,0.3,10,10.8c1,3.6,2.1,8,3.2,13
		c2.5,11.5,4.3,18,5.7,19.9l0.3,0.4l0.5,0c0.2,0,0.4,0,0.7,0c0.9,0,2.1-0.1,3.9-0.4c3.3-0.6,6.9-1.8,8.7-2.7l0.6-0.3l-0.1-0.7
		c-0.6-5.6-5-28.5-7.7-42.2c-0.6-2.7-1-5.1-1.4-7l-0.4-2l-0.1-0.2l0-0.1C530.1,609,531,607.3,532.7,606.3z"/>
	<path fill="#808080" d="M559.3,625.1c-1.1-2.5-2.1-4.4-2.7-5.6c-0.6-1.1-1-1.7-1.3-2c0-0.1-0.1-0.2-0.1-0.2c0,0-0.1-0.1-0.1-0.1
		l-0.2-0.3l-0.3-0.1c-3.7-1.7-7.4-3.6-10.8-5.6c-3.3-2-8.2-2.2-9.5-1l-0.4,0.4l0.1,0.5c0.2,1.1,0.8,3.9,1.5,7.4l0.1,0.5l0.5,0.2
		c3.9,1.5,16.8,7.7,19.6,23.4c1.9,10.8,0.3,32.8-11.9,45.8c-5.9,6.3-13.4,9.5-22.2,9.5c-1.3,0-2.7-0.1-4-0.2
		c-11-1.2-18.8-8.1-21.9-19.6c-4.3-15.9,0.9-39.2,11.3-49.8l1.9-2l-2.7,0.3c-1.1,0.1-2.1,0.1-3.1-0.1c-4.5-0.8-5.7-4.8-6.6-7.9
		c-0.3-0.9-0.6-1.8-0.9-2.5l-0.3-0.6h-0.7c-0.8,0-2.1,0.4-3.5,0.8l-0.6,0.2c-3.1,0.9-7.3,2.1-12.4,2.2l-0.5,0l-0.3,0.3
		c-0.1,0.1-0.2,0.1-0.3,0.2c-2,1.6-7.9,11.7-10.3,26.6c-1,6.5-1.3,13.1-0.7,19.5c1.1,12.2,8,52,49.6,52c0.4,0,0.9,0,1.3-0.1
		c0.4,0,0.8,0,1.2,0c9.9-0.3,18.7-4.8,26.2-13.3c12.4-13.9,18.4-35.5,19.8-49.8c0.3-3.7,0.4-6.6,0.2-8.8
		C563.6,636.5,561.2,629.4,559.3,625.1z"/>
	<path fill="#808080" d="M520.3,680.4c0.4,0,0.8,0,1.2,0c4.2-0.3,8.6-2.1,9.5-3.4l0.1-0.2l0-0.3c0.1-1.6-0.3-4-0.5-5.3l-0.2-1
		l-1,0.2c-1,0.2-1.9,0.2-2.9,0.2c-1.1,0-1.9-0.1-2.5-0.3l-0.5-0.2l-0.4,0.3c-0.1,0.1-8.2,6.3-6.5,8.9
		C517.1,680,518.4,680.4,520.3,680.4z"/>
	<path fill="#808080" d="M517.7,656.2c-0.6-2.6-1.3-5.6-2.1-8.9c-0.1-0.8-0.7-1.1-1.1-1.1h-0.6l-0.3,0.5c-2.3,3.6-4.7,8.3-4.6,10.5
		l0,0.6l0.6,0.2c0.6,0.2,1.3,0.3,2,0.3c1.9,0,4.2-0.7,5.3-1l0.9-0.3L517.7,656.2z M514.4,647.5C514.4,647.5,514.4,647.5,514.4,647.5
		l-0.8,0c0,0,0,0,0,0L514.4,647.5z"/>
	<path fill="#808080" d="M478.9,478.9l-12.2,0.7l-7.2,19.3l1.4,0.1c1.7,0.1,4.2,0.5,6.7,2c2.1,1.4,3.7,3.3,4.7,5.8l0.7,1.8l1-1.6
		c1.2-1.9,2.5-3.5,3.9-4.8c8.8-7.6,18.6-9.3,24.5-10.3c6.4-1,7-1.8,7.3-2.2l0.1-0.1c1-1.8,1.7-8.8,2.2-21h0l0-1c0,0,0,0,0,0l0-1h0
		c0.2-5.5,0.4-11.7,0.4-18v-1.5l-5.6,2.1l-0.1,0c-0.1,0-0.1,0-0.2,0H505l0.7,1.4c0.4,0.8,0.8,1.7,1.1,2.4c2,5.2,2.9,10.3,2.7,14.4
		l0,0c-0.1,2.4-0.6,4.2-1.5,5.6c-0.7,1.2-1.6,2-2.7,2.3l-0.6,0.2l-0.1,0.6c-0.1,0.5-0.3,1-0.5,1.4c-1.5,3-6,3.4-8.6,3.4h-1.4
		c-0.6-0.1-1.1-0.4-1.4-0.8l-0.6-0.9l-0.8,0.7c-1.8,1.5-4,1.8-5.2,1.9h-0.2c-2.1,0-4.4-1.5-6.6-3L478.9,478.9z"/>
	<path fill="#808080" d="M480.9,339.3l1.2,0.5l0.2-1.3c0.5-4,1-6.9,1.7-9.4l0.2-0.6l-0.5-0.4c-3.4-2.8-15.6-11.9-30.8-11.9h-0.7
		l-0.3,0.2c-2.2,1.7-4.3,3.1-6,4l-0.3,0.1l-0.1,0.3c-1.3,2.5-2.7,4.3-4.4,5.4l-1.9,1.4l2.3,0.4C459.7,331.6,475.2,337.1,480.9,339.3
		z"/>
	<path fill="#808080" d="M472.5,618.3l-1.3-0.4c-6.3-1.9-6.3-6.5-6.3-9.6v-0.7c0-2.1,2.1-5.4,5.7-9c0.8-0.8,1.9-1.8,3.1-2.8l1.6-1.4
		l-28.1-5l-0.3,0.8c-2.8,8.3-4.2,11.7-5.6,12.7l-0.4,0.3v0c-0.4,0.3-0.7,0.5-1,0.7l-0.6,0.4l0.2,0.7c2.5,9.1,7.8,27.4,10.3,31.7
		c1.9,3.1,7.7,5.3,12.1,6.3l1,0.2l0.2-1c2.4-12.7,7.2-20.6,8.6-22.7L472.5,618.3z"/>
	<path fill="#808080" d="M401,419.4l0.9-0.2c23.5-4.7,45.7,0.3,46,0.4c0.2,0.1,0.5,0.2,0.8,0.4l0.4,0.2l0.4-0.1
		c2-0.5,3.5-0.8,4.7-0.8h0.3c2.2,0,4.3,0.2,6.3,0.5l0.6,0.1l0.4-0.5c0.1-0.2,0.5-0.3,0.8-0.4c7.9-2.3,10.5-13.5,11.3-20
		c1.8-14.3-1-26.7-1.9-30.1l-0.2-0.6l-0.6-0.1c-2.5-0.4-8-0.3-20.2,2.6l-4,0.9c-19.6,4.6-41.9,9.8-46.3,13.2
		c-3.8,2.9-3.2,22.3,0,33.7L401,419.4z"/>
	<path fill="#808080" d="M453.6,503.5l-1.3-0.1c-6.3-0.7-18.9-2.4-30.6-4l-0.1,0c-0.1,0-0.1,0-0.2,0c-0.1,0-0.3-0.1-0.5-0.1h-0.4
		l-0.3,0.3c0,0-4.4,4.7-1.7,22.5l0.1,0.8l0.8,0.1c3.3,0.3,6.4,0.7,8.8,1.1c6.7,1.1,11.8,1.7,14.6,2.1l2.3,0.3L453.6,503.5z"/>
	<path fill="#808080" d="M447.4,571.2l1.2,1.4l2-6.1c1.8-5.6,3.5-10.8,5.3-15.9l0.3-0.7l-0.7-0.4c-1.9-1.3-6.8-4.2-10.9-4.5
		c-0.8-0.1-1.4-0.1-2,0.2l-0.4,0.2l-7.9,21l1.5-0.1c3.2-0.2,6,0.5,8.4,1.9C445.4,569,446.4,570,447.4,571.2z"/>
	<path fill="#808080" d="M421.6,355.5l0.1,0.9h0.9c3.5,0,6.9-0.2,9.4-0.6c0.3-0.1,0.6-0.1,0.9-0.2c0.9-0.2,1.7-0.4,2.2-0.7l0.5-0.2
		l0.1-0.5c0.1-0.3,0.1-0.7,0.1-1c0-0.3,0-0.6,0.1-0.9c0.3-3.5,0.7-7.8,4.5-11.9c2.2-2.4,4-4.5,5.1-5.9l1-1.3l-1.6-0.3
		c-6.4-1.4-13-2.4-19.6-3.2l-0.1,0l-0.1,0c-2.1,0.2-4.4,0.4-6.7,0.6l-1.1,0.1l0.5,2.8C419,339.1,420.9,349.1,421.6,355.5z"/>
	<path fill="#808080" d="M427.6,527.9c-3.1-0.5-7.1-0.9-11.1-1.3c-13.7-1.2-28-1.4-38.4-0.4c-6.1,0.6-11.2,1.6-15,3.1l-3.4,1.2
		l3.5,0.7c32.1,6.2,62.4,11.7,70.9,13.2l0.5,0.1l0.4-0.3c0.7-0.7,2-1.6,3.8-2.2l0.5-0.2l4.3-11.5l-3-0.4
		C437.6,529.4,433.1,528.8,427.6,527.9z"/>
	<path fill="#808080" d="M435,548.6c-0.2,0-0.9-0.2-1.9-0.3c-35.2-6.4-61.3-11.3-77.1-14.3c-14.4-2.8-31-6-48-9.5
		c-3.2-0.7-5.9-1.3-8.3-1.8c-0.6-0.2-1.1-0.4-1.3-0.9c-4.2-6.4-12.6-7.7-15.1-8l-0.8-0.1l-0.3,0.7c-0.8,2.2-1.7,4.4-2.6,6.7
		c-1.4,3.8-2.9,7.7-4.4,11.7l-0.4,1.2l1.2,0.2c4.3,0.7,9.5,3.2,14,6.9l0.2,0.2l0.3,0c5.6,0.3,23.7,3.5,52.3,9
		c15.8,3.1,35.1,6.9,57.5,11.5c9.6,1.9,17.6,3.6,22.9,4.7l4.5,0.9l0.3,0.1l0.3-0.1c0.3-0.1,0.4-0.1,0.7-0.1h0.7l6.9-18.6H435z"/>
	<path fill="#808080" d="M418.7,569.5c-2.8-0.6-5.6-1.1-8.5-1.7l-3.3-0.7l2.4,2.4c5.4,5.3,11.3,13.1,8.8,20.1l-0.5,0.7
		c-0.6,0.8-1.5,1.1-2.7,1.1h-1.5l0.6,1.4c0.5,1.3,1.3,3.4,1.8,5.9l0.7,3.3l11.5-30.7l-1.1-0.2C424.2,570.6,421.5,570.1,418.7,569.5z
		"/>
	<path fill="#808080" d="M398.1,565c-15.4-3.1-33.4-6.7-53.4-10.6l-0.7-0.1l-0.4,0.6c-1.5,2.4-3.4,2.9-7.1,3.7
		c-0.7,0.2-1.5,0.4-2.4,0.6c-0.9,0.2-1.9,0.5-3,0.8c-7.1,2-13.3,11.5-13.4,14.5l0,0.4l0.3,0.3c1.8,2,10.5,3.9,13.1,2.8l0.8-0.4
		c3.2-1.4,6.9-2.9,14.1-4.5c0.8-0.2,1.6-0.3,2.3-0.3c0.1,0,0.2,0,0.2,0c7.6,0,10.1,9.3,11.8,15.5c1.3,4.5,2.6,5.2,4.7,5.9l0.1,0
		c0.1,0,0.2,0.1,0.3,0.1c0.7,0.2,1.4,0.6,2.1,1c2,1.3,3.4,5.7,8.2,24.9c1.5,6.4,2.6,10.7,3.3,12.8l0.2,0.6l0.6,0.1
		c0.5,0.1,1.2,0.2,2,0.2c0,0,0,0,0,0c0.3,0,0.6,0,0.8,0c3.1,0,7-0.5,9-1l0.8-0.2l-0.1-0.9c-0.5-4.7-3.5-18.8-6.9-31.5
		c-0.2-0.8-0.4-1.6-0.6-2.4c-0.3-1.1-0.5-2.1-0.8-3.1c-1.7-7.4-1.7-10.8-0.1-13.2c0.9-1.5,2.5-2.4,4.9-2.7
		c6.3-0.7,13.4,2.9,18.6,5.6c0.4,0.2,0.8,0.5,1.2,0.7c0.3,0.1,0.6,0.3,0.9,0.4l0.1,0c0,0,0.1,0.1,0.1,0.1l0,0c0,0,0.1,0,0.1,0
		c1,0.6,2.5,1.3,3.7,1.6l1.2,0.4l0.1-1.3c0.3-7.5-11.6-17.4-15.9-20.3l0.2-0.8L398.1,565z"/>
	<path fill="#808080" d="M401.7,656.2l-0.9-0.2l-11.3,29.6L404,696l0.6-0.6c3.8-3.8,3.7-11.1,3.5-12.9c-0.4-2.2,0.7-5.4,2.3-9.6
		c2.1-5.5,3.2-9.2,2.6-10.7C412.1,659.9,406.5,657.4,401.7,656.2z"/>
	<path fill="#808080" d="M413,610.6c0.4-11.6-3.6-18.8-5.3-21.4l-0.2-0.3l-0.3-0.1c-0.3-0.1-0.6-0.3-0.9-0.4
		c-0.2-0.1-0.4-0.2-0.6-0.3c-5.1-2.5-11.4-5.7-16.2-5.2c-0.6,0-1.7,0.2-2.2,0.9c-1,1.5-0.4,5.5,0.3,8.6l0.2,0.7l0.7,0.1
		c1.5,0.2,5.6,1.1,9.8,4.5c3.8,3.1,8.6,9.3,10,21l0.5,4l4.1-11.1l-0.1-0.3c0-0.1,0-0.2,0-0.3L413,610.6z"/>
	<path fill="#808080" d="M367.8,484.4l0.5,1.4c0.9,2.4,1.3,5.1,1.3,8.4c0,3.2-0.6,7.5-1.1,10.9l-0.1,0.8l0.7,0.3
		c1.2,0.5,5.2,1.9,10.8,1.9c4.3,0,9.5-0.8,15-3.6c0.1,0,0.1,0,0.1-0.1h0.5l3-8.8l-1.1-0.2c-12.7-2.3-13.5-3.4-14-3.9l-0.1-0.1
		c-1.5-1.4-2.4-2.7-3.1-3.9l-0.2-0.3c-1.1-2-1.5-2.5-3.4-2.5c-0.9,0-2.5,0-4.5-0.1L367.8,484.4z"/>
	<path fill="#808080" d="M387.3,687.8l-163.6-41.6l2.1,2.4c0.6,0.7,1.4,1.3,2.2,2l0.2,0.2c0.2,0.2,0.4,0.4,0.7,0.6
		c0.2,0.2,0.5,0.4,0.7,0.6c2.4,2.1,16,6.8,33.9,11.8c1.3,0.3,2.6,0.7,4,1.1l1.2,0.3c24.1,6.5,108.5,28.4,128.5,32.1l4.4,0.8
		l-14-10.1L387.3,687.8z"/>
	<path fill="#808080" d="M386.7,684.6l11.1-28.9l-1.3-0.1c-2.9-0.2-5.6-0.2-8,0.2c-9,1.4-12.2,7.7-14,11.1c-0.4,0.8-0.7,1.5-1.1,1.9
		c-2.1,2.8-4.8,2.3-25.3-2.7l-2.4-0.6c-3.3-0.8-8.3-2.1-14.3-3.6l-9.1-2.3c-7.6-1.9-16-4.1-24.3-6.3c-7.5-1.9-14.9-3.8-21.5-5.5
		c-14.4-3.7-25-6.4-25.5-6.6c-1.1-0.3-1.7-1.4-1.4-2.5c0.1-0.5,0.4-1,0.9-1.2c0.4-0.3,0.9-0.3,1.4-0.2c0.3,0.1,1.1,0.3,2.9,0.8
		c1.5,0.4,3.5,0.9,6,1.5l0.9,0.2l0.3-0.9c0.1-0.4,0.5-0.7,0.8-0.9l0.2-0.1c1-0.8,1.8-3.4,0.6-8.1c-0.7-3-2.6-5-6-6.4
		c-3.9-1.6-9.3-2.2-15.5-2.8c-1.9-0.1-3.4,0.4-4.6,1.4c-4.1,3.5-4.9,12.3-4.9,12.4c-0.1,0.7-0.4,1.2-0.8,1.5
		c-0.5,0.3-1.1,0.5-1.6,0.3c-0.1,0-0.5-0.1-1.1-0.1c-1,0-2.1,0.3-3,0.9c-1.1,0.8-1.8,2.2-2,4.1l0,0.1c0,0.2,0,0.3,0,0.5
		c0,0.2-0.1,0.5-0.1,0.7v0.8l162,41.2L386.7,684.6z"/>
	<path fill="#808080" d="M382.5,637.9l-0.1,0.8c-0.3,2-0.5,6.3,0.3,7.7l0.3,0.5h0.6c0.4,0,0.9-0.2,1.4-0.5c1.8-1.3,3.3-4.3,3.9-7.7
		l0.2-1.3l-1.3,0.2c-1.5,0.2-3,0.3-4.4,0.4L382.5,637.9z"/>
	<path fill="#808080" d="M372.9,461.6l-0.4-1.3c-0.8-2.7-1.4-6.1-1.6-10l0-0.5l-0.5-0.3c-3.3-2-6.5-3.8-9.5-5.2l-1.5-0.8l0.6,18
		H372.9z"/>
	<path fill="#808080" d="M371.5,619.8c-0.1-0.6-0.3-1.1-0.4-1.7c-0.2-0.8-0.4-1.6-0.6-2.3l-0.6-2.7l-1.3,2.4c-1,1.9-1.5,3.2-1.5,4
		v0.5l0.4,0.3c0.5,0.3,1.7,0.7,2.9,0.8l1.4,0.1L371.5,619.8z"/>
	<path fill="#808080" d="M366.6,646.3l0.2,0.1c0.2,0.1,0.4,0.1,0.6,0.1c0.4,0,0.7-0.2,0.9-0.2l0.1-0.1c1.2-0.8,2-3.1,2.3-6.2
		c0.2-2.8-0.4-5.2-1.9-6.8l0,0c-1-1-2.2-1.5-3.7-1.6l-0.7-0.1l-0.3,0.7C361.7,637.6,365,645,366.6,646.3z"/>
	<path fill="#808080" d="M361.6,598.6l1-0.9l-1.2-0.7c-1.7-1-3.6-2.7-4.9-7.6l0,0c-2.1-7.4-3.5-11-6.3-12l-0.5-0.2l-0.4,0.4
		c-6.8,5.9-39.8,37.5-24.5,78.1l0.2,0.5l0.5,0.1c4.7,1.2,9.1,2.3,12.8,3.2c3.4,0.9,6.2,1.6,8.4,2.1l2.2,0.5
		c7.6,1.8,13.3,3.2,16.8,3.9l0.5-1.9c-5.6-2.1-18.4-9.5-17.8-32.2C348.9,613,356.9,602.9,361.6,598.6z"/>
	<path fill="#808080" d="M312.9,479.2l0.8,1.2l0.8-1.2c7.7-11.1,16.2-13.4,21.9-14.9c0.7-0.2,1.4-0.4,1.9-0.6
		c1.2-0.3,2.2-0.7,3.2-1.3c2.9-1.8,3.7-4.1,4.1-5.4l0.1-0.3c0.4-1.8,0.3-12.4,0.1-19l0-0.6l-0.5-0.3c-2.2-1.1-4.5-2.2-6.8-3.3
		c-5.1-2.5-10.5-5-15.6-7.6l-0.5-0.3l-0.5,0.3c-0.2,0.1-0.4,0.2-0.6,0.3c-0.6,0.1-5.9,1.7-9.7,11.6c-1.6,4-3.3,8.7-5.3,14.1
		c-1.5,4-3,8-4.4,11.8c-0.9,2.5-1.7,4.5-2.4,6.2l-0.5,1.2l1.3,0.2C304,471.9,309.2,473.7,312.9,479.2z"/>
</g>
<g>
	<path fill="#9E9E9E" d="M675.9,189.7c-2.3-0.4-4.3-0.5-6-0.2c-0.5-0.1-1-0.3-1.3-0.6l-0.3-0.3l-4.8,0.6c-4.8,0.6-9.8,1.2-14.3,1.9
		c-11.8,1.5-25.1,3.3-31,3.8l-0.6,0l-0.2,0.5c0,0.1-0.1,0.2-0.1,0.2l-0.1,0.1c-3.2,6-12.6,9.7-15.5,10.6l-0.8,0.3l0.1,0.8
		c0.4,2.7-0.3,5.1-2,7c-1.9,2.1-4.7,3.2-8,3.1l-0.2,0l-0.3,0c-4.8-0.2-10.7-0.5-14.6,2c-0.9,0.5-2,1.4-3,2.3
		c-0.4,0.3-0.8,0.7-1.3,1.1c-3.6,3.1-9.1,7.8-14.7,8.4c-1.6,0.2-3.2,0.1-4.8,0c-0.4,0-0.8,0-1.2-0.1c-4.7-0.4-9.6-0.8-17,4.3
		c-2.5,1.7-8.1,7.3-15.8,15.1l-0.3,0.3v0.6c-1,8.3-3.8,13.9-11.4,28.8l-0.9,1.7c-7.8,15.5-11.6,26.8-17.4,46.1l0,0.3
		c0,0.1-0.1,0.4-0.2,0.5c-5.2,17.6-1.4,51,1,62l0.1,0.2c0.6,1.2,4.4,5.5,30.4,11.5c12.6,2.9,25,5,28.4,5.5l1.1,0.2v-1.2
		c3.4-13.9,31.9-22.1,32.2-22.2l0.8-0.2l-0.5-4.2l-0.2-0.2c-2.5-3-5.4-11.2-8.1-22.4l-0.2-0.8l-0.8,0.1c-8.9,0.6-15.7,1-19,1h-1.7
		c-2.3-0.3-4.1-1.1-5.4-2.6c-2.4-2.8-2.4-7.3-2-11.7c0.7-6.8,7.4-11.4,17.6-12.1c0.3,0,1.5-0.1,3.4-0.2c11.3-0.7,45.5-3,62.2-3h2.5
		l0.2-0.8c3.7-14.4,11.1-31.3,22.2-50.1c7.6-12.9,10.4-33.4,12.5-48.4l0.5-3.5c1-6.5,1.9-12.7,3.2-17.3c2.5-9.4,5.8-14.5,8.1-17.1
		l1.2-1.3L675.9,189.7z"/>
	<path fill="#9E9E9E" d="M595,143.4h2.4c9.3,0,16.4,1,22,1.8l0.9,0.1c0.9,0.1,1.8,0.3,2.7,0.4l0.1,0l0.1,0c2.6-0.5,4.6-1.5,6-3.1
		c4.1-4.6,3.3-13.2,2.8-18.9c0-0.6-0.1-1.1-0.1-1.7c-0.1-0.9-0.2-1.7-0.2-2.4c0-2.1,0.2-4.6,0.5-7.7c0.8-7.3,1.8-17.2-3.3-24.8
		c-5.5-8.3-24-10.7-27.6-11.1l-0.1,0l-0.1,0c-13.5,1-24.9,6.3-33.1,15.2c-10.2,11.3-13.8,26.2-12.8,36
		C557.1,142.8,572.9,143.8,595,143.4z"/>
	<path fill="#9E9E9E" d="M622.6,356.1l-1.7,1.7c-2,2-4.6,5-5.5,8.1c-1.2,4.9-1.4,9.9-1.5,12.3c0,0.5,0,0.8-0.1,1.1
		c0,0.2,0,0.4,0,0.6c0,0.1-0.1,0.4-0.3,0.8l-0.9,1.5h1.8c0.8,0,2.5,0.2,4.7,0.6l0.8,0.2l0.3-0.8c2.4-6.7,2.4-18.8,2.4-23.7
		L622.6,356.1z"/>
	<path fill="#9E9E9E" d="M577.1,356.7l0.3,1.2c1.5,5.9,4.8,17.6,7,19.8l0.1,0.1l0.2,0.1c0.9,0.4,2.9,0.7,5,0.8l1.2,0.1l-3.6-22.7
		L577.1,356.7z"/>
	<path fill="#9E9E9E" d="M581.6,389c-8.9,2.7-26.4,10.2-28.7,19c-1.1,4.6-1.6,9.7-1.6,15.2c0,6.2,0.7,11.1,1.4,12.5l0.1,0.2
		c0.7,0.8,2.4,1.8,3.4,2.4l1.6,0.8l-0.1-1.8c-0.4-6.3-1.1-21.7,1.3-27.4l0.1-0.2v0c0,0,0-0.1,0-0.1c6.8-11.8,17.4-15.9,23.2-17.3
		l0.9-0.2l-0.5-3.5L581.6,389z"/>
	<path fill="#9E9E9E" d="M549.3,437.9c-0.8-1.4-1.7-5.8-1.9-12.4l0-0.7l-0.7-0.2c-3.6-1.2-14-3.8-33.4-2.6
		c-12.3,0.7-22.1,1.5-29.3,2.1l-4.8,0.4l3.6,1.6c6.9,3.1,16.1,8.5,20.8,16.8l0.4,0.8l0.8-0.4c3.4-1.5,10.6-3.7,21.6-2.4
		c0.3,0.1,0.6,0.1,0.8,0.1c10.3,1.2,18.5,1.7,24.2,1.3l3-0.2l-2.5-1.6C550.9,439.7,549.9,438.8,549.3,437.9z"/>
	<path fill="#9E9E9E" d="M468.6,361l-0.2-0.2l-0.3,0c-4.2-0.5-24.2,4.5-32.6,6.6c-6.2,1.6-12.8,3.3-18.6,5
		c-11.6,3.2-22.4,6.5-25.2,7.5l-0.3,0.1l-0.2,0.2c-2.5,3.1-3.6,20.8-1.9,30.1c1.2,6.8,5.6,8.1,6.9,8.3l1.5,0.3l-0.4-1.5
		c-2.8-11.7-3.9-30.8,1.5-35c4.7-3.6,21.7-7.7,49.1-14.1l2.3-0.5c8.4-2,14.5-2.9,18.9-2.8l1.6,0l-0.7-1.5
		C469.8,362.7,469.3,361.6,468.6,361z"/>
	<path fill="#9E9E9E" d="M461.8,468.1c-2.9-0.3-7.3,0.2-11.6,0.9l-1.2,0.2c-5.4,0.8-12.1,1.7-19.7,1.6l-0.2,2c1.7,0.3,3.4,0.6,5,0.8
		c3.8,0.6,7.4,1.2,10.8,1.7c8.3,1.3,14.9,2.3,17.4,2.9l0.9,0.2l3.2-8.7l-0.8-0.4C464.2,468.6,462.9,468.2,461.8,468.1z"/>
	<path fill="#9E9E9E" d="M442.1,422.6l-3.4-0.4c-9.6-1.1-24.1-1.8-38.3,1.3c-4.4,1.1-8,2.2-11.3,3.5l-1.7,0.7l1.5,1.1
		c13.5,9.3,19,12,19.9,12.5l0.5,0.2l0.5-0.3c0.6-0.4,1.5-0.9,2.4-1.5c0.6-0.4,1.3-0.8,1.9-1.2l1.7-1.1c6.4-4,15.1-9.5,23.2-13.4
		L442.1,422.6z"/>
	<path fill="#9E9E9E" d="M410,343.2c0.4,2,0.6,4,0.8,5.7l0.1,1c0.4,3.5,0.7,5.1,1.3,5.6c0.1,0.1,0.4,0.3,0.8,0.4
		c0.9,0.2,2.3,0.3,4.4,0.4l1.2,0.1l-0.1-1.2c-0.8-6.7-2.9-17.5-3.9-22.7l-0.4-1.9l-0.9,0.1c-0.7,0.1-1.5,0.1-2.3,0.2
		c-1.4,0.1-2.8,0.2-4.2,0.4l-1.5,0.2l0.7,1.3C407,334.2,409,338.2,410,343.2z"/>
	<path fill="#9E9E9E" d="M375.1,452.3l0.3,2.1c0.2,1.4,1.3,8.3,3.6,9.7c1.7,0.8,9.4,2.2,23.9,4.6l0.5-1.9
		c-10.1-3.4-18.8-8.6-26.4-13.3L375.1,452.3z"/>
</g>
<g id="vs-hair">
	<path fill="#808080" d="M447.9,139.4l-0.1-0.2l-0.2-0.2c-0.5-0.5-0.7-1.1-0.7-1.9c0-0.1-0.1-10.3-4.3-20
		c-3.7-8.4-6.1-11.4-7.2-12.4l-0.9-0.9l-0.6,1.1c-0.5,0.8-1.1,2.3-1.5,3.8c-0.2,0.9-1,1.5-2,1.4c-0.9,0-1.6-0.6-1.8-1.6
		c-0.1-0.5-2.8-12.6-25.2-19.5l-0.9-0.3l-0.3,0.9c-0.4,1-0.7,2.2-0.8,3.3c-0.1,0.7-0.5,1.4-1.2,1.6c-0.8,0.3-1.5,0.1-2.1-0.4l0,0
		c-1.9-2-16.4-13.9-29.4-12.7l-1,0.1l0.1,1c0.3,2.4-0.6,3.9-2.6,4.3c-1.4,0.3-3.4-0.3-6.4-1.1c-5.4-1.4-13.5-3.6-22-2.2
		c-6.7,1.1-8,2.9-8.3,3.5l-0.1,0.2v0.2c0,0.4,0.2,0.7,0.4,0.9l0.1,0.1l0.2,0.1c2,0.9,4,2.2,4.4,2.4l0.1,0.1c0.7,0.5,1.1,1.5,0.8,2.3
		c-0.3,0.8-1.1,1.4-2,1.4c-0.2,0-17.5,0.3-32.5,9.3c-4.4,2.6-8,5.1-10.6,7.3l-2,1.7l2.6,0.1c2.9,0.1,6.8,0.1,10.2,0.1
		c0.9,0,1.8,0.8,1.9,1.7c0.2,0.9-0.3,1.8-1.3,2.1l0,0c-2.8,1-23.1,9.5-36.8,33.8l-2.1,3.7l3.5-2.4c3.3-2.3,6.1-3.9,6.3-4
		c1-0.5,2.2-0.3,2.8,0.6c0.3,0.4,0.4,0.8,0.4,1.3c-0.1,0.5-0.3,1-0.8,1.3c-1.2,1-11.5,10.9-17.5,33.7c-1.6,6.6-2.2,12.6-1.8,17.7
		l0.2,3.1l1.6-2.7c3.1-5.1,6-8.6,7.8-9.4c0.8-0.3,1.5-0.1,2.1,0.4l0.1,0.1c0.5,0.4,0.8,1.2,0.6,1.9c-3,10.6-6.4,30.4,3.7,44.7l1.4,2
		l0.4-2.4c0.6-3.8,1.8-8,3.4-12c0-0.1,0.1-0.2,0.1-0.2c0.4-0.9,1.4-1.4,2.3-1.1c1,0.3,1.6,1.3,1.4,2.3l0.1,0
		c-0.9,3.4-1.5,20.2,9,30.7l1.6,1.6l0.1-2.3c0.1-3.2,0.3-5.3,0.4-6c0-0.1,0-0.1,0-0.2c0.2-0.9,0.8-1.6,1.6-1.7
		c0.9-0.1,1.8,0.3,2.2,1c2.4,4.3,9.3,13.9,15.9,13.9c0.9,0,1.8-0.2,2.7-0.6c0.3-0.1,0.5-0.2,0.8-0.2h1.2l-0.3-1.2
		c-1.4-6.6-6.9-14.5-8-16.1l-0.4-0.5l-0.6,0.1c-0.7,0.1-1.3,0.2-2.1,0.2c-1.9,0-4.1-0.4-5.6-0.9c-2-0.7-4.5-2.1-5.2-4.8l-0.1-0.3
		l0,0c-0.4-3.6,0.2-9.1,0.8-13.1l0.1-0.5l-0.4-0.4l-0.2-0.2c-8.2-6.6-11.2-18.7-7.9-32.4c2.3-9.6,8.2-20.4,16.2-22.8l0.5-0.1
		l0.3-0.8c3.2-9.5,15.8-41.7,43.8-57.1c21-11.7,49.6-12.6,69.4-2.4c14.7,7.6,23.6,20.7,25.8,37.8l0.1,0.3c2.3,4.9,3.2,10.5,2.8,17.7
		l-0.6,9.9l2.5-9.6c1.3-5.1,2.1-9.6,2.2-14C449.3,144.6,448.5,140.8,447.9,139.4z"/>
</g>
<g>
	<path fill="#6495FB" d="M363.6,485.6l0.9-1.3h-1.9c-1.3,0-2.7-0.1-4-0.2c-14.6-0.9-16.1-1.8-16.8-3.2c-0.3-0.6-1.1-3-1.3-12.4
		l0-1.4l-1.3,0.4c-0.3,0.1-0.6,0.2-0.8,0.2c-0.3,0.1-0.6,0.2-0.9,0.3l-0.3,0.1c-6,1.7-13.5,3.9-20.4,14.9c-0.3,0.5-0.6,1-0.9,1.5
		c-0.2,0.3-0.3,0.6-0.6,0.9c-6.7,12-11.2,24.8-13.2,31.3c-0.1,0.2-0.1,0.3-0.1,0.4c-0.1,0.1-0.1,0.2-0.1,0.3c0,0,0,0.1,0,0.1
		l-0.6,1.1l1.2,0.3c1.8,0.4,3.7,0.8,5.6,1.2l0.2,0l56.3-15.5l0.1-0.7c0.5-3.9,0.9-7.1,0.9-9.6C365.6,489.2,364.4,486.7,363.6,485.6z
		"/>
	<path fill="#6495FB" d="M215.7,471.1c-20.4-8.1-31.1-12.5-32.9-13.8c-2.5-1.9-7.5-7.1-10.3-14.7l-0.3-0.8l-0.8,0.2
		c-4.1,0.8-11.3,2.4-13.5,3.8l-0.1,0.1c-2.1,1.9-2.3,11.2-1.9,24.5v0.2c0.2,9.6,1.1,13.9,9.2,18.2c0.4,0.2,0.7,0.3,1.1,0.5
		c0.6,0.3,1.1,0.6,1.8,0.8l2.9,1.2c3.4,1.4,8.6,3.5,14.5,6c14.2,5.8,33.5,13.5,46.3,18.6c4.6,1.9,8.5,3.4,10.9,4.4l1,0.4l0.3-1
		c3.4-9.8,7.6-20.2,12.8-30.7l0.4-0.9l-0.9-0.4C250.9,485,231.8,477.4,215.7,471.1z"/>
</g>
<g id="vs-secondary">
	<path fill="#5A77BA" d="M277.2,419.9l-0.4,0.4c-3.4,3.6-14.8,12.1-47.9,12.6h-1.4c-0.1,0-0.2,0-0.3,0c-16.7,0-32.2-5.7-46.2-17
		l-0.4-0.4l-3.1,1.2l-0.1,0.5c-1.4,4.8-2.8,11.8-2.1,17.6c0.1,1.3,0.4,2.6,0.7,3.7l0,0.3c2,7,6.4,12.7,9.6,15.1
		c1.6,1.1,12,5.2,27.7,11.5l9.5,3.8c17.8,7.1,30.6,12.3,35.4,14.8l0.9,0.5l0.4-1c0.4-0.8,0.6-1.2,0.6-1.2l0.2-0.2
		c0.3-0.5,0.7-0.8,1.2-1c0.5-0.1,1.1-0.1,1.6,0.2c0.5,0.3,0.8,0.7,1,1.2c0.1,0.5,0.1,1.1-0.2,1.6l-0.1,0.1
		c-1.7,3.1-10.4,19.8-16.8,39.6l-0.1,0.3l0.1,0.3c0.4,1.1,4.4,9.7,19.8,9.7c1,0,2.1,0,3.2-0.1l0.6,0l0.2-0.6
		c3.6-9.6,6.4-17,8.8-23.3c7.2-19,12.2-32.1,13.4-34.7c1.3-2.7,2.7-6.2,4.5-11.1l0.3-0.7l-0.7-0.4c-4.6-3.1-23.4-13-38.9-20.9
		c-0.5-0.2-0.8-0.6-1-1.1c-0.2-0.5-0.1-1,0.2-1.6c0.2-0.5,0.6-0.8,1.1-1c0.5-0.2,1-0.1,1.6,0.2c7.7,3.9,29.6,15.1,38.1,20.4l1,0.7
		l0.4-1.1c0.7-1.7,1.3-3.6,2-5.4c0.3-0.9,0.7-1.8,1-2.7c1.9-5.1,3.7-10.1,5.3-14.2c0.8-2.3,1.9-4.5,3.4-6.7l0.8-1.2L277.2,419.9z"/>
</g>
<g id="vs-primary">
	<path fill="#E6074D" d="M444.2,300.1c-0.7-6-3.3-13.2-6.5-17.9c-1.1-1.6-2.2-2.9-3.5-3.8c-4.1-2.9-7.6-1.7-20.4,3.3
		c-7.1,2.8-12.1,4-14.8,3.6l-0.6-0.1l-0.3,0.4C387.2,299.2,376,306,364.8,306l-0.7,0c-7-0.2-12.8-1.9-18.5-3.9
		c-5.2-1.6-9-2.8-12.3-2.2l-0.9,0.2l0.1,0.9c1,8.5-1.9,16.1-7.3,19.2c-1.6,1-3.4,1.5-5.4,1.5c-2.4,0-4.8-0.9-7.1-2.6
		c-8.5-6.6-8.2-31.8-8-36.7c0.1-0.9,0.7-1.5,1.6-1.5h0.6l0.3-0.2c2.7-2.3,4.7-4.7,6.2-7.4l0.9-1.6l-1.9,0.1
		c-5.8,0.4-36.8,4-76.9,33.6c-25.6,22.4-42.3,51-44.1,54.2l-0.8,1.6c-2.5,5.1-7.7,15.6-10.1,21.8l-8.5,18.4l0.4,0.5
		c2.4,2.9,5.1,5.7,8,8.2c9.7,8.6,25.7,18.7,47,18.7c0.4,0,0.8,0,1.2,0c36.5-0.7,45-10.9,45.9-12.1l0.1-0.1c0-0.1,0.1-0.1,0.1-0.2
		c0.1-0.1,0.2-0.3,0.3-0.5l0.1-0.2v-0.2c0-0.1,0.1-0.2,0.1-0.3c0.5-2.5,0.7-7.9,0.7-10.8v-0.3l-0.2-0.3c-3.5-4.8-7.2-11.1-11-18.9
		c-7.7-15.4-13.4-47-15.5-59.9l-0.1-0.7c-0.1-0.5,0-1,0.4-1.4c0.3-0.4,0.8-0.7,1.4-0.8c0.5-0.1,1,0,1.4,0.4c0.4,0.3,0.7,0.8,0.8,1.4
		c0,0.1,0,0.3,0.1,0.6c2.1,12.7,7.8,43.9,15.2,58.6c3.8,7.6,7.5,13.9,11.1,18.9l0.4,0.4c2.3,3.1,4.4,5.4,6.5,6.9l1.6,1.2v-2
		c0-3.7,1.1-11.4,8.4-22c8.1-11.6,16.3-14.5,21.8-15l1.5-0.1l-0.7-1.3c-1.4-2.9-3.9-6.6-7.6-12.3c-2.6-3.9-5.5-8.4-8.6-13.4
		c-14.1-22.5-16.8-39.9-16.9-40.6c-0.1-0.4,0-0.8,0.3-1.1c0.2-0.3,0.6-0.5,1-0.6c0.4-0.1,0.8,0,1.1,0.3c0.3,0.2,0.5,0.6,0.6,1l0,0
		c0.3,1.7,3.2,18.3,16.4,39.5c2.3,3.7,4.4,6.9,6.2,9.7c0.8,1.3,1.6,2.5,2.3,3.6c2.9,4.5,4.8,7.6,6.4,10.2l0.5,0.9l0.9-0.5
		c11.5-7.2,8.6-19.1,7.6-23c-0.4-1.7-0.8-3.4-1.1-5.2c-1-5-1.5-9.9-1.5-10.3l0-0.1c-0.1-1.2,0.8-2.1,1.8-2.2
		c1.1-0.1,2.1,0.7,2.2,1.8c0,0,0.3,3.4,0.9,7.3l0.2,1l1-0.2c6-1,24.1-4.1,43.3-6.2c7.8-0.9,16-1.5,23.9-2.2c2.1-0.2,4.2-0.3,6.3-0.5
		c2.8-0.3,5.6-0.5,8.3-0.7c3.7-0.3,7.2-0.6,10.2-0.9l0.6,0c4.5-0.4,8.4-0.9,11-1.4c2.5-0.5,4.4-2.5,5.9-5.8c0.1-0.1,0.1-0.2,0.2-0.3
		C444.2,313.3,445,306.1,444.2,300.1z"/>
	<path fill="#E6074D" d="M313.5,174.4c2.3,1.6,4.2,4.2,5.4,7.7l1,2.7l0.9-2.7c0.1-0.3,11.5-33.5,35.7-47.5
		c22.6-13,43.8-13.9,64.8-2.8c4.8,2.5,8.7,5,11.9,7.8l3.1,2.6l-1.5-3.8c-3.9-9.7-10.8-17.2-20.5-22.2l0,0
		c-18.5-9.5-46.1-8.5-65.5,2.2c-25.7,14.2-38,44-41.2,52.7l-0.4,1.2l1.3,0.1C310.3,172.7,312.1,173.4,313.5,174.4z"/>
	<path fill="#E6074D" d="M214.9,622.9c-1.6-1.2-2.4-2.7-2.6-4.5c-0.2-1.7,0.3-4.1,1.4-7.1c2.8-7.5,9-16.8,11.5-20.4l0.5-0.7
		l-0.6-0.6c-0.9-0.9-1.8-2.1-2.6-3.6c-0.8-1.4-1.3-2.7-1.7-4.1l-0.6-2.1l-1.2,1.9c-7.1,10.7-17,26.2-24.3,39.6l-0.1,0.3
		c-0.9,3.9-1.8,9.9-1.6,16.2l0,1l1-0.1c3.1-0.2,9.1,0.4,13.9,6.6c4,5.2,11.4,8,15.4,9.2l4.5,1.4l-3.6-3.1c-1.9-1.6-3.9-3.8-4.4-7.9
		c-0.2-1.3-0.1-3,0.1-4.4c0.6-3.9,2.4-5.8,3.8-6.8c1.6-1.2,3.2-1.5,4.1-1.5l0.7-0.1l0.2-0.7c0.1-0.3,0.2-0.7,0.3-1.1
		c0.2-0.9,0.5-2,0.8-3.1l0.4-1.3h-2.7C224.3,626,218.3,625.6,214.9,622.9z"/>
</g>
<path fill="#D3A37F" d="M273,589.4c0.2,4.1,1.6,31.1,2.5,40.6c0.9,7.9,1.9,10.6,2.4,11.5l0.2,0.4l0.4,0.1c0.3,0.1,0.7,0.1,1.2,0.1
	c0.4,0,0.7,0,1-0.1c0.5-0.1,0.8-0.5,0.9-1c0.6-4.3,0.8-40.4,0.9-71.5l0-5.5l-9.6,25.2L273,589.4z"/>
<path fill="#D3A37F" d="M167.2,494.2l-1.3-0.5l-7.1,120.8l0.7,0.2c0.4,0.1,0.5,0.3,0.6,0.5c0.1,0.2,0.3,0.7,0.9,0.7
	c0.1,0,0.1,0,0.1,0c0.6,0,0.9-0.4,1.7-1.3l0.6-0.7L184,503.2l0.1-0.7l-0.6-0.3C174.9,497.4,169.7,495.3,167.2,494.2z"/>
<g id="vs-skin">
	<path fill="#D3A37F" d="M573.4,180.1c4.5-3.9,14.2-7.2,24.2-8.3l1.5-0.2l-0.8-1.3c-2.1-3.7-8.7-11.4-11.5-12.5l-0.2-0.1h-0.2
		c-3.7,0-22.3,6.8-25,9.2c-1.9,1.8-5.8,13-8,20.4c-0.2,0.6-0.8,1.1-1.4,1.1c-0.1,0-0.2,0-0.3,0l-0.2-0.1c-0.8-0.2-1.3-1.1-1-1.9
		l0.1-0.4c0.7-2.2,1.9-6.2,3.4-10.3l0.6-1.7l-1.7,0.3c-13,2.5-21.6,6.4-25.7,11.6l-0.1,0.2c-3.5,7-7.6,24.3-10.5,37.6
		c-0.1,0.5-0.2,0.8-0.2,0.9l0,0.1c-0.1,0.3-0.2,0.7-0.5,1l-0.2,0.2c-3.5,3.6-16,16-31.2,27c-13.9,10-33.7,22.8-41.6,27.9l-0.8,0.5
		l0.5,0.8c2.9,5,5,11.3,5.8,17.4c0.5,3.8,0.4,8.4-0.2,12.4l-0.4,3l2.2-2.2c0.1-0.1,0.3-0.2,0.4-0.3c0.1-0.1,0.2-0.1,0.3-0.2
		c12.5-9.9,33.6-32,50.6-49.8l1-1c2.6-2.8,5.1-5.4,7.6-8c1.5-1.6,3-3.1,4.3-4.5c8.5-8.8,14.8-15.1,17.8-17.2
		c8.5-5.9,14.7-5.4,19.6-5c0.4,0,0.8,0,1.1,0.1c1.4,0.1,2.8,0.2,4.1,0c4.2-0.4,8.8-4.2,12.5-7.3l0.2-0.2c1.9-1.6,3.4-2.8,4.7-3.7
		c4.8-3.2,11.1-3,16.6-2.8l0.7,0l0.1,0c2,0.1,3.7-0.5,4.8-1.7c0.9-1,1.3-2.4,1-3.8l0-0.1c-0.1-0.4-0.2-0.7-0.3-1.4l0-0.2
		c-1.5-4.3-7.2-8.3-13.4-7.5c-3.6,0.5-8,2.4-11.5,4l-0.6,0.3c-4.1,1.8-6.2,2.7-7.8,2.1c-0.4-0.2-1-0.5-1.3-1.3
		C561.2,200.5,568.1,184.7,573.4,180.1z"/>
	<path fill="#D3A37F" d="M503,454.4L503,454.4c-0.6-1.7-1.6-3.3-3.1-5.2c-7.5-9.1-24-15.4-24.7-15.7c-0.5-0.2-0.9-0.6-1.2-1.1
		c-0.2-0.5-0.2-1-0.1-1.5c0.3-0.8,1.2-1.4,2-1.3l7.3,0.6l-6.9-2.5c-4.8-1.7-9.6-3-13.9-3.7c-3.3-0.5-6.1-0.8-8.2-0.8h-0.3
		c-1.5,0-3.4,0.4-5.7,1.1c-9.6,3.1-23.6,12-31.1,16.8l-1.5,0.9c-4.9,3.1-5.5,3.4-6.3,3.4c-1.7,0-9.5-4.2-26.5-16
		c-5.3-3.7-10.9-7.7-16.7-12c-27.6-20.4-48.9-40.5-49.1-40.7c-0.2-0.2-0.2-0.2-0.2-0.2l-0.4-0.7l-0.8,0.2c-4,1-10,4-16.4,13
		c-3.5,5.1-5.9,10.2-7,14.7L292,405h1.1l0,0c6.3,4.5,19.1,11.1,28.7,15.9c11.2,5.7,23.1,11.3,32.7,15.7l3.6,1.7l0.1,0
		c0.2,0.1,0.4,0.1,0.5,0.2l0.4,0.2c5.4,2.6,10.5,5.6,15.2,8.4c0.6,0.3,1.2,0.7,1.7,1c0.6,0.4,1.2,0.7,1.8,1.1l0.1,0.1
		c11.6,7,22.6,13.6,37,16.1c14.2,2.4,25.4,0.8,34.4-0.5l0.7-0.1c4.9-0.7,8.8-1.2,12-0.8c5.4,0.6,11,5,15.5,8.7
		c0.3,0.3,0.7,0.6,1,0.8c0.2,0.1,0.3,0.3,0.5,0.4c3.7,2.8,5.5,4,6.7,4c1.5,0,3.5-0.9,4.1-2.6c1.1-2.6-0.9-6.7-5.4-11.1
		c-10.5-10.2-28.7-10.3-29.5-10.3c-1.1,0-2-0.9-2-2s0.9-2,2-2c2.1,0,20.9,0.3,32.3,11.4c5.6,5.4,7.8,10.3,6.7,14.4l-0.3,1.3h1.3
		c0.4,0,4,0,5.2-1l0.2-0.1l0.1-0.2c1.2-2.4,1-9.3-8.1-18.8c-8.2-8.5-21.8-13.6-27.3-15.4l-0.3-0.1c-0.5-0.2-1-0.5-1.2-1
		c-0.2-0.4-0.3-1-0.1-1.5c0.3-1.1,1.4-1.7,2.4-1.4c0.1,0,0.2,0.1,0.4,0.1c5.8,1.9,20.1,7.2,29,16.5c3.7,3.8,6.5,7.7,8.1,11.7
		l2.1,5.1l-0.2-5.5C505.4,462.3,504.5,458.4,503,454.4z"/>
	<path fill="#D3A37F" d="M294.9,224.1l0.4-2.1c0.2-1.3,0.5-2.3,0.6-3c0.1-0.5,0.2-0.8,0.2-0.9c0.2-0.7,0.9-1.2,1.6-1.1
		c0.2,0.1,0.4,0.2,0.6,0.2h0.2l0.2-0.1c0.1-0.1,0.4-0.1,0.6,0l0.1,0c8.8,2.1,11.8,4.3,12.9,5.4c0.2,0.2,0.4,0.6,0.4,0.9
		c0,1.4-1.9,15.3-4.1,21.7l-0.2,0.6l0.5,0.5c0.5,0.7,8.8,12,9.5,20.4l0,0.1l0,0.1c0,0.1,0.3,8.1-10.1,16.6l-0.1,0.1
		c-0.1,0.1-0.3,0.2-0.4,0.3l-0.3,0.3l0,0.4c-0.2,9.9,1.1,27.7,6.9,32.2c1.7,1.3,3.5,2,5.2,2c1.3,0,2.6-0.4,3.9-1.1
		c3.1-1.8,6.3-6.5,6-14l-0.1-2.6l-1.7,2c-0.5,0.6-1,1.3-1.5,2c-0.4,0.6-1,0.9-1.7,0.9c-0.4,0-0.8-0.1-1.1-0.3
		c-0.9-0.7-1.2-1.9-0.5-2.8c6.6-10,14.9-7.4,23.6-4.5l0.1,0c4.9,1.7,10.8,3.6,17.3,3.7c10.7,0.3,21.2-6.4,32.1-20.6
		c3.3-4.4,6.3-8.9,9.1-13.6c5.3-8.9,14.2-26.4,21.8-46.6l1.1-2.8l-2.5,1.6c-1.7,1.1-3.4,1.9-5.2,2.4c-4.2,1.4-8.1,1.2-11.7-0.6
		l-1.7-0.9l0.3,1.9c0.2,1.2,0.4,2.3,0.6,3.4c0.1,0.8,0.3,1.5,0.4,2.3l0.1,0.5c1.1,5.9,2.1,10.9,0.7,15.9c-1.3,4.5-7.3,8.9-14.3,10.4
		c-1.9,0.3-3.4,0.5-4.8,0.5c-5.4,0-10.1-2.1-13.3-6c-0.3-0.3-0.4-0.6-0.3-1c0-0.4,0.2-0.8,0.6-1.1c0.3-0.3,0.7-0.4,1-0.3
		c0.4,0,0.8,0.2,1,0.5c4.6,5.6,11.4,5.2,15.1,4.4c6.4-1.3,11.2-5.2,12.2-8.2c1.2-4.5,0.2-9.6-0.9-15c-1.6-8.2-3.6-18.5,0.2-31.9
		c2.9-10.3,7.2-18.6,12.6-23.7l0.1-0.1l0.1-0.2c3.2-7.6,7.8-13.2,7.8-13.2l0.1-0.1c0.2-0.2,0.4-0.3,0.6-0.4c0.3,0,0.5,0.1,0.8,0.2
		c0.4,0.3,0.5,0.9,0.1,1.4l0,0c-1.2,1.1-3.1,4.2-4.3,6.2l-1.5,2.6l2.8-1.1c1.4-0.6,3.1-1.2,4.7-1.4l0.5-0.1l3.5-6.6
		c0.2-0.4,0.8-0.7,1.3-0.4c0.4,0.2,0.7,0.8,0.4,1.4l-3,5.7l1.3,0.3c0.7,0.2,1.5,0.6,2.2,1.2l0.8,0.7l3.6-4.8
		c0.1-0.1,0.2-0.2,0.3-0.3l0.6-0.3l0-0.7c-0.2-3.9-1-7.5-2.5-10.8l-0.2-0.4c-3.7-7.9-11.2-12.7-18.7-16.7
		c-19.9-10.6-39.3-9.7-61,2.7c-20.4,11.7-33.2,41.2-34.3,46.4c-1.1,5.4-5.7,5.7-5.8,5.7c-0.6,0-1.2-0.3-1.6-0.8
		c-0.4-0.4-0.5-0.8-0.6-1.7l-0.1-0.3c-0.4-2.2-1.4-7.4-4.9-9.8c-1.5-1-3.4-1.4-5.8-1.2l-0.1,0c-0.2,0-0.3,0.1-0.5,0.1
		c-0.2,0-0.5,0.1-0.7,0.1c-5.6,1.2-11.7,9.8-14.2,20.1c-2.5,10.4-1.2,19.8,3.8,25.8L294.9,224.1z M302.7,191.3c0-0.2,0-0.5,0.3-0.8
		c0.2-0.2,0.4-0.3,0.7-0.3c0,0,0,0,0,0c0.2,0,0.4,0,0.6,0.3c0.4,0.4,10.6,10.8,3.2,23.4l0,0c-0.2,0.4-0.6,0.5-0.8,0.5
		c-0.1,0-0.3-0.1-0.5-0.2c-0.2-0.1-0.4-0.3-0.4-0.6c0-0.2-0.1-0.4,0.1-0.7c6.5-11-2-19.9-3-20.9
		C302.8,191.8,302.7,191.5,302.7,191.3z M388,142.2c-0.2,0.5-0.5,0.9-1,1.1c-0.5,0.2-1,0.3-1.6,0.1c-3.7-1.2-7.3,0.7-7.5,0.8
		c-0.3,0.2-0.6,0.3-1,0.3c-0.7,0-1.4-0.4-1.7-1c-0.5-1-0.2-2.2,0.8-2.8c0,0,3-1.7,6.8-1.7c1.2,0,2.6,0.2,3.9,0.6
		C387.8,139.9,388.4,141.1,388,142.2z M373.1,150l-0.1,0.2v0c-0.1,0.2-0.3,0.6-0.6,1.2c-1.1,2.1-3.2,6-5,9.6l-1.1,2.3l3-1.1
		c1-0.4,2-0.8,3-1l0.4-0.1l0.2-0.4c1.6-2.6,5.5-7.1,7-8.7c0.3-0.3,0.5-0.5,0.5-0.6c0.2-0.2,0.5-0.3,0.6-0.3c0.3,0,0.6,0.1,0.8,0.3
		c0.2,0.2,0.3,0.5,0.3,0.6c0,0.3-0.1,0.6-0.2,0.7c-1.6,1.8-3.8,4.2-5.3,6.1l-1.3,1.6h2.1c1.5,0,3,0.2,4.3,0.6l0.7,0.2l0.4-0.6
		c1.8-2.8,5.7-6.8,6.9-7.9c0.4-0.4,1-0.4,1.4,0c0.4,0.4,0.4,1,0,1.4l-0.3,0.3c-1.4,1.5-4.3,4.6-5.9,6.8l-0.6,0.8l0.8,0.6
		c0.9,0.6,1.6,1.3,2.4,2.3l0.8,1l0.8-1c2.3-2.9,6.2-6,6.8-6.4c0.4-0.3,1.1-0.3,1.4,0.1c0.3,0.4,0.3,1.1-0.2,1.5l0,0
		c-1,0.8-6.3,5-7.4,7.7c-0.2,0.2-0.2,0.5-0.2,0.6v0.2l0.1,0.2c2.5,6.6,2.1,16.9-1.2,28.4c-3.8,13.2-9.8,20.6-17.8,22
		c-1.1,0.2-2.1,0.3-3.2,0.3c-7.6,0-19.3-4.1-21.4-13.2v-1.2c0.2-1.2,2.9-18.4,10.4-31c1.6-2.9,3.8-5.5,6.6-7.8l0.4-0.3v-0.3
		c0-0.1,0-0.1,0.1-0.2c1.3-3.3,3.9-8.5,7.8-15.6c0.2-0.4,0.3-0.6,0.3-0.6c0.1-0.3,0.4-0.4,0.5-0.4c0.3-0.1,0.6,0,0.8,0.1
		c0.3,0.1,0.4,0.4,0.4,0.5C373.3,149.5,373.2,149.7,373.1,150z M345.9,264c0.6,0,1.1,0.4,1.4,0.9c0.6,1.2,3,5.5,8.7,8.8
		c7.8,4.5,18.1,5.2,30.5,2c0.8-0.2,1.6,0.3,1.8,1.1c0.1,0.4,0,0.8-0.2,1.1c-0.2,0.3-0.5,0.6-0.9,0.7l0,0c-5.2,1.3-10.1,2-14.8,2.1
		c-20.3,0-27.2-13-27.9-14.5c-0.3-0.8,0-1.7,0.8-2C345.5,264.1,345.7,264,345.9,264z M427.5,153.5c-1.6,0-2.8,0.5-2.9,0.5
		c-1,0.5-2.2,0-2.7-1c-0.5-1.1,0-2.2,1.1-2.7c0.1,0,6.8-3,12.6,2.5c0.8,0.7,0.8,2,0.1,2.8c-0.4,0.4-1,0.7-1.4,0.7
		c-0.6,0-1-0.2-1.4-0.5C431.1,154,429.1,153.5,427.5,153.5z"/>
	<path fill="#D3A37F" d="M379.9,511.2c-5.2,0-9.1-1.1-11-1.7l-1.1-0.4l-0.2,1.1c-0.9,4.5-1.8,8.7-2.4,11.4l-0.6,2.8l1.6-0.4
		c3.4-0.9,7.3-1.5,11.4-1.9c3.7-0.3,7.5-0.5,11.5-0.6l1,0v-1c0-0.2,0.1-0.4,0.1-0.7l4.1-11.7l-2,0.7
		C388.3,510.4,384.1,511.2,379.9,511.2z"/>
	<path fill="#D3A37F" d="M246.6,529.7l-1.2-1.4l-0.5,1.8c-3.4,11.7-6.1,21.3-8,28.3l-0.5,1.7c-1,3.5-1.6,5.8-1.9,7l-0.1,0.2l0.1,0.2
		c0.4,1.7,1.9,4.9,5.1,6.7c1.6,1,3.5,1.4,5.7,1.4c2.3,0,4.9-0.5,7.7-1.5c0.4-0.1,0.8-0.1,1.2,0l0.9,0.3l0.3-0.9
		c2-5.4,4.2-11.1,6.3-16.7c2.2-5.7,4.3-11.4,6.3-16.8c0.2-0.4,0.4-0.9,0.6-1.4l0.3-1.2h-2.5C255.5,537.4,249.6,533.2,246.6,529.7z"
		/>
	<polygon fill="#D3A37F" points="440,177.7 441,166.4 437.6,170.9 	"/>
</g>
<path fill="none" stroke="#000000" stroke-width="6" stroke-linecap="round" stroke-linejoin="round" stroke-miterlimit="10" d="
	M367.6,210.3c1.5,0.3,0.5,3.9-0.8,4.1c-1.4,0.2-1-3.5,0-3.5s0,2.3,0,2.3"/>
<path fill="none" stroke="#000000" stroke-width="5" stroke-linecap="round" stroke-linejoin="round" stroke-miterlimit="10" d="
	M347.3,205.2c0,0,2.6-17.9,10.1-30.5s20.3-14.4,26.2-11.2c5.9,3.1,8.3,15.6,3.1,33.2c-3.6,12.6-9.1,19.6-16.6,20.9
	s-20.8-2.9-22.9-11.9"/>
<path fill="none" stroke="#000000" stroke-width="4" stroke-linecap="round" stroke-linejoin="round" stroke-miterlimit="10" d="
	M372.2,149.6c0,0-5.8,10.5-8.1,16.2"/>
<path fill="none" stroke="#000000" stroke-width="4" stroke-linecap="round" stroke-linejoin="round" stroke-miterlimit="10" d="
	M381.1,152.2c0,0-6.6,7.2-7.9,9.9"/>
<path fill="none" stroke="#000000" stroke-width="4" stroke-linecap="round" stroke-linejoin="round" stroke-miterlimit="10" d="
	M390.4,153.4c0,0-5.8,5.8-7.3,8.7"/>
<path fill="none" stroke="#000000" stroke-width="4" stroke-linecap="round" stroke-linejoin="round" stroke-miterlimit="10" d="
	M396.5,159.2c0,0-6.4,4.9-7.8,8.1"/>
<path fill="none" stroke="#000000" stroke-width="6" stroke-linecap="round" stroke-linejoin="round" stroke-miterlimit="10" d="
	M419.7,214.1c1.5,0.3,0.5,3.9-0.8,4.1c-1.4,0.2-1-3.5,0-3.5s0,2.3,0,2.3"/>
<path fill="none" stroke="#000000" stroke-width="5" stroke-linecap="round" stroke-linejoin="round" stroke-miterlimit="10" d="
	M406.4,218.6c0,0,5,5.2,13.5,2.4c8.4-2.8,14.5-9.9,17-23.2c2.4-13.3,2.1-29.1-5-29.4s-18.9,6.5-25.1,29s3.8,35.5,0.7,47.1
	c-2.1,7.4-20.7,15.3-29.8,4.4"/>
<path fill="none" stroke="#000000" stroke-width="4" stroke-linecap="round" stroke-linejoin="round" stroke-miterlimit="10" d="
	M426.8,160.4c0,0-5,6.2-8.1,14.1"/>
<line fill="none" stroke="#000000" stroke-width="4" stroke-linecap="round" stroke-linejoin="round" stroke-miterlimit="10" x1="434.2" y1="160.9" x2="430.5" y2="167.9"/>
<line fill="none" stroke="#000000" stroke-width="4" stroke-linecap="round" stroke-linejoin="round" stroke-miterlimit="10" x1="440.8" y1="165" x2="436.6" y2="170.6"/>
<path fill="none" stroke="#000000" stroke-width="6" stroke-linecap="round" stroke-linejoin="round" stroke-miterlimit="10" d="
	M377.1,142.4c0,0,4.4-2.5,9.1-0.9"/>
<path fill="none" stroke="#000000" stroke-width="6" stroke-linecap="round" stroke-linejoin="round" stroke-miterlimit="10" d="
	M423.7,152.2c0,0,5.7-2.5,10.5,2.1"/>
<path fill="none" stroke="#000000" stroke-width="5" stroke-linecap="round" stroke-linejoin="round" stroke-miterlimit="10" d="
	M345.9,265.5c0,0,8.9,19.9,40.9,11.7"/>
<path fill="none" stroke="#000000" stroke-width="6" stroke-linecap="round" stroke-linejoin="round" stroke-miterlimit="10" d="
	M295.1,226.8c-17.1-13.8-4.9-49.2,8.6-51.9c13.5-2.8,14.2,12.8,14.7,13.4c0,0,3.1-0.1,3.9-4.1s13.4-35.2,35.2-47.7
	c21.8-12.5,42.1-13.8,62.9-2.8s27.1,22.3,19.1,54.9s-24.6,67-32.6,80.3c-7.9,13.3-23.1,35.6-43,35.2c-18.6-0.3-30.1-13.9-39.4,0"/>
<path fill="none" stroke="#000000" stroke-width="4" stroke-linecap="round" stroke-linejoin="round" stroke-miterlimit="10" d="
	M303.7,191.3c0,0,10.3,9.9,3.1,22.1"/>
<path fill="none" stroke="#000000" stroke-width="5" stroke-linecap="round" stroke-linejoin="round" stroke-miterlimit="10" d="
	M297.7,218.7c0,0-3.7,16.7-2.8,23.7c1.1,4.6,10.1,5.3,11.5,4.2c1.4-1,5-19.9,4.9-23c-2.6-2.9-12.2-4.9-12.2-4.9"/>
<path fill="none" stroke="#000000" stroke-width="5" stroke-linecap="round" stroke-linejoin="round" stroke-miterlimit="10" d="
	M307.8,247.1c0,0,8.6,11.6,9.2,19.8c0,0,0.1,7.6-9.6,15.5"/>
<path fill="none" stroke="#000000" stroke-width="6" stroke-linecap="round" stroke-linejoin="round" stroke-miterlimit="10" d="
	M304.8,173.2c0,0,11.8-39.1,43-56.3s87-12.4,92.3,34.6"/>
<path fill="none" stroke="#000000" stroke-width="6" stroke-linecap="round" stroke-linejoin="round" stroke-miterlimit="10" d="
	M438.7,191.8c0,0,11.2-15.1,12.3-36.8c0.5-17.1-2-17.4-2-17.4s0-10.5-4.4-20.8c-4.4-10.2-8.3-14.8-10.3-14.4
	c-2.1,0.5-3.7,6.1-3.7,6.1S428,94.3,402.4,87c-2.3,0.1-3,6-3,6s-17-15.5-32.4-13c-3.1,0.9,0.5,4.7-2.2,5.3c-2.7,0.6-15-5.4-28.2-3.3
	s-10.3,7.8-8.3,8.7c2.1,0.9,4.2,2.4,4.2,2.4s-17.8,0-33.6,9.6c-15.8,9.6-14.9,12.4-14.3,12.6s15.6,0.2,15.6,0.2
	s-29.2,10.3-43.3,46.4c5.8-5.6,16.1-11.7,16.1-11.7s-11.7,9.6-18.2,34.7c-4.7,18.3,0,26.1,0,26.1s7.2-13.8,10.4-15
	c-3,10.4-8.1,36.5,8.9,51.8c-0.2-8.9,3.8-18.5,3.8-18.5s-3.9,24.9,15,36.8c-0.6-7.1,0.1-12.3,0.1-12.3s10.7,19,21.2,14.1"/>
<path fill="none" stroke="#000000" stroke-width="5" stroke-linecap="round" stroke-linejoin="round" stroke-miterlimit="10" d="
	M306.1,282.4c0,0-1.1,28.9,7.5,35.5c8.6,6.6,19.6-2.1,17.2-17.8"/>
<path fill="none" stroke="#000000" stroke-width="6" stroke-linecap="round" stroke-linejoin="round" stroke-miterlimit="10" d="
	M398.2,283.1c0,0,1.7,1.8,14.6-3.3s17.4-6.6,22.4-3c5,3.7,9.9,13.6,11,23.1s-0.8,24.2-9.6,26.2c-9.8,2-36.9,3.3-60.3,5.8
	s-45.2,6.6-45.2,6.6"/>
<path fill="none" stroke="#000000" stroke-width="6" stroke-linecap="round" stroke-linejoin="round" stroke-miterlimit="10" d="
	M439.9,280.4c0,0,26-16.4,43.2-28.9s31.1-27,31.1-27s6.2-29.8,11-39.3c2.8-3.7,9.5-9.6,29.1-12.8"/>
<path fill="none" stroke="#000000" stroke-width="5" stroke-linecap="round" stroke-linejoin="round" stroke-miterlimit="10" d="
	M551.9,187.1c0,0,5.3-18.3,8.4-21c3.1-2.8,23.5-10.1,26.5-9.5s13.6,12.6,13.7,16.2"/>
<path fill="none" stroke="#000000" stroke-width="6" stroke-linecap="round" stroke-linejoin="round" stroke-miterlimit="10" d="
	M614.9,181.9c0,0-4.2-8.7-14.4-8s-21.2,3.9-25.9,8s-11.1,19.3-10.3,21.1c0.8,1.8,11.1-5,19-6.2s15,4.6,16.1,10.4
	c0.7,4.5-2.8,8.1-7.9,7.9c-5.2-0.2-11.7-0.6-16.3,2.4S563.8,228.3,557,229c-6.9,0.7-13.1-2.9-24,4.6s-72.5,78.5-89,85.4"/>
<path fill="none" stroke="#000000" stroke-width="5" stroke-linecap="round" stroke-linejoin="round" stroke-miterlimit="10" d="
	M599.7,205.2c0,0,12.8-3.9,16.4-10.5"/>
<path fill="none" stroke="#000000" stroke-width="5" stroke-linecap="round" stroke-linejoin="round" stroke-miterlimit="10" d="
	M688.9,175.3c0,0-56.6,7.1-73.1,8.3c-3.2,0.9-3.2,8.2,0.9,9.5c11.4-0.7,75.6-10.3,77.7-8.9c2.1,1.4,3.6,5.8,7.1,5.8
	s25.3-3.2,25.3-3.2s-2.8-20.8-3.1-22.6c-7.3-0.8-20.9,0.5-24.1,2.2C696.3,168.2,693.9,174.7,688.9,175.3z"/>
<path fill="none" stroke="#000000" stroke-width="6" stroke-linecap="round" stroke-linejoin="round" stroke-miterlimit="10" d="
	M328.6,328.3c0,0,0.9,8.9,2.5,15.3c1.6,6.4,3.3,18.5-9.7,25.8"/>
<path fill="none" stroke="#000000" stroke-width="5" stroke-linecap="round" stroke-linejoin="round" stroke-miterlimit="10" d="
	M287.2,304c0,0,2.6,17.6,16.7,40s19.4,27.8,17.5,34.1"/>
<path fill="none" stroke="#000000" stroke-width="6" stroke-linecap="round" stroke-linejoin="round" stroke-miterlimit="10" d="
	M320.7,374c0,0-11.3-2.4-22.9,14.1c-9.8,14.1-8.9,24.2-6.4,26.4c2.4,2.3,6.1-2.8,6.1-2.8l-5.4-2.8L292,413l1.1-0.8"/>
<path fill="none" stroke="#000000" stroke-width="6" stroke-linecap="round" stroke-linejoin="round" stroke-miterlimit="10" d="
	M251,324.5c0,0,6.4,41.9,15.4,59.9s17.4,29.1,24.3,29.4"/>
<path fill="none" stroke="#000000" stroke-width="6" stroke-linecap="round" stroke-linejoin="round" stroke-miterlimit="10" d="
	M318.5,375.5c0,0,21.3,20.1,48.9,40.5c27.7,20.5,40.7,27.6,42,27.6c1.4,0,31.9-22.2,44.6-22.3c12.7-0.2,43.7,8.6,49.5,26.6"/>
<path fill="none" stroke="#000000" stroke-width="6" stroke-linecap="round" stroke-linejoin="round" stroke-miterlimit="10" d="
	M476,431.9c0,0,24.5,9.2,28.9,21.9c4.1,11,2.8,19.3,0,19.9"/>
<path fill="none" stroke="#000000" stroke-width="6" stroke-linecap="round" stroke-linejoin="round" stroke-miterlimit="10" d="
	M465.6,439.6c0,0,18.2,5.4,28.4,16.1c10.2,10.7,9.8,18.5,8.4,21.2s-8.1,2.3-8.1,2.3"/>
<path fill="none" stroke="#000000" stroke-width="6" stroke-linecap="round" stroke-linejoin="round" stroke-miterlimit="10" d="
	M455.2,452.1c0,0,19.6-0.2,30.9,10.9c11.3,11,5,17,0,17.1c-5,0.2-15.4-13-24.2-14c-8.7-1-24.6,5.3-47.2,1.5
	c-22.6-3.8-37.1-17.7-56.4-26.8s-54.9-25.7-66.3-33.9"/>
<path fill="none" stroke="#000000" stroke-width="6" stroke-linecap="round" stroke-linejoin="round" stroke-miterlimit="10" d="
	M314,269.8c0,0-33.7,0-79.8,34.2c-41.1,35-64.6,97.9-64.6,97.9s21.4,29.8,59,29.1s47.8-11.4,48.5-15.1c0.7-3.7,0.7-12.1,0.7-12.1"/>
<line fill="none" stroke="#000000" stroke-width="6" stroke-linecap="round" stroke-linejoin="round" stroke-miterlimit="10" x1="276.4" y1="417.7" x2="313.4" y2="426.9"/>
<path fill="none" stroke="#000000" stroke-width="6" stroke-linecap="round" stroke-linejoin="round" stroke-miterlimit="10" d="
	M258.9,440.6c0,0,37.6,19,40.5,22.1"/>
<path fill="none" stroke="#000000" stroke-width="6" stroke-linecap="round" stroke-linejoin="round" stroke-miterlimit="10" d="
	M176.9,411.4c0,0-5.2,13.6-3.9,23.8c1.3,10.2,7.6,17.8,11.1,20.4c3.6,2.6,67.4,26.7,74.1,31"/>
<path fill="none" stroke="#000000" stroke-width="6" stroke-linecap="round" stroke-linejoin="round" stroke-miterlimit="10" d="
	M261.9,483.3c0,0-11.5,20.9-18.6,45.2c-7.2,24.3-10.9,38.8-10.9,38.8s2.9,15.3,21.4,8.7"/>
<line fill="none" stroke="#000000" stroke-width="5" stroke-linecap="round" stroke-linejoin="round" stroke-miterlimit="10" x1="176.6" y1="415.4" x2="179.5" y2="414.4"/>
<path fill="none" stroke="#000000" stroke-width="5" stroke-linecap="round" stroke-linejoin="round" stroke-miterlimit="10" d="
	M245.3,525.2c0,0,4.4,12.4,25.2,10.5"/>
<path fill="none" stroke="#000000" stroke-width="6" stroke-linecap="round" stroke-linejoin="round" stroke-miterlimit="10" d="
	M234,557.6c0,0-7.6,2.3-11.2,13.7c-2.8,9.6,2.1,19,11.5,21.6s14.9-0.5,14.9-0.5"/>
<path fill="none" stroke="#000000" stroke-width="6" stroke-linecap="round" stroke-linejoin="round" stroke-miterlimit="10" d="
	M221.7,574c0,0-28.8,41.7-36.3,62s1.7,43.4,30.6,50.9s44.2-9.9,46.6-20.8"/>
<path fill="none" stroke="#000000" stroke-width="4" stroke-linecap="round" stroke-linejoin="round" stroke-miterlimit="10" d="
	M194.5,617.3c0,0-8,26.7,3.9,41.2s42.5,21.7,54,5.2"/>
<path fill="none" stroke="#000000" stroke-width="4" stroke-linecap="round" stroke-linejoin="round" stroke-miterlimit="10" d="
	M192.9,639.8c0,0,8.1-1.7,14.2,6.1s19.7,11.2,24.5,11"/>
<path fill="none" stroke="#000000" stroke-width="4" stroke-linecap="round" stroke-linejoin="round" stroke-miterlimit="10" d="
	M226.7,590.5c0,0-14.3,20-13.5,27.7s15.4,7,19.1,6.5"/>
<path fill="none" stroke="#000000" stroke-width="4" stroke-linecap="round" stroke-linejoin="round" stroke-miterlimit="10" d="
	M215.5,612c0,0,16.5-1.8,23.8,2.2"/>
<path fill="none" stroke="#000000" stroke-width="4" stroke-linecap="round" stroke-linejoin="round" stroke-miterlimit="10" d="
	M222.1,599.7c0,0,11.3-2.2,21.8,2.7"/>
<path fill="none" stroke="#000000" stroke-width="6" stroke-linecap="round" stroke-linejoin="round" stroke-miterlimit="10" d="
	M173.8,439.5c0,0-13.1,2.3-16.8,4.6c-3.7,2.4-3.3,15.4-3,26.6c0.3,11.2,1.8,16.3,13.1,21.3c11.4,5,77.6,31.4,77.6,31.4"/>
<path fill="none" stroke="#000000" stroke-width="6" stroke-linecap="round" stroke-linejoin="round" stroke-miterlimit="10" d="
	M184,500.5l-17.9,109.5c0,0-1.2,9.4-6.6,7.4c-3.3-1.2-2.3-10.2-2.3-10.2l6.9-115.4"/>
<path fill="none" stroke="#000000" stroke-width="6" stroke-linecap="round" stroke-linejoin="round" stroke-miterlimit="10" d="
	M606.3,73.9c24.5-0.1,38.6,7.9,38.6,21s-1,29.6-1.3,37.5s-2.8,14-10.8,15.5s-17.9-2.8-37.7-2.4c-19.8,0.3-39.7,0.6-41.6-18
	C551.6,108.9,565.2,73.5,606.3,73.9z"/>
<path fill="none" stroke="#000000" stroke-width="5" stroke-linecap="round" stroke-linejoin="round" stroke-miterlimit="10" d="
	M598.5,74.3c0,0,24.7,1.4,31.8,12c7.1,10.5,2.9,25.1,3.1,33.2c0.2,8.1,4.5,27.2-12.4,27.9"/>
<path fill="none" stroke="#000000" stroke-width="6" stroke-linecap="round" stroke-linejoin="round" stroke-miterlimit="10" d="
	M645.8,117.9c0,0,14.8,2.2,17.9,8.1c3.1,6,12.8,35.2,8.8,49.8"/>
<path fill="none" stroke="#000000" stroke-width="6" stroke-linecap="round" stroke-linejoin="round" stroke-miterlimit="10" d="
	M645,131.4c0,0,6.1,0.7,6.6,14.4s-0.5,33.2-0.5,33.2"/>
<path fill="none" stroke="#000000" stroke-width="6" stroke-linecap="round" stroke-linejoin="round" stroke-miterlimit="10" d="
	M670.1,187.1c0,0,20.7,0.7,22,10.3c1.4,9.6-7,72.8-10.2,88.4c-3.2,15.6-12.7,118.5-15.6,125.5c-2.9,7-11.2,10.9-30.4,4"/>
<path fill="none" stroke="#000000" stroke-width="6" stroke-linecap="round" stroke-linejoin="round" stroke-miterlimit="10" d="
	M613.6,384.1c0,0,16.5,0.2,19.3,12.2c2.8,12.1,1.5,33.8,0,36.7s-5,8.3-13.1,9.6"/>
<path fill="none" stroke="#000000" stroke-width="6" stroke-linecap="round" stroke-linejoin="round" stroke-miterlimit="10" d="
	M651.7,419.6c0,0,5.5,3.5,4.3,14.7s-2.6,30.3-8.6,32.7s-26.3,6.7-26.3,6.7"/>
<path fill="none" stroke="#000000" stroke-width="6" stroke-linecap="round" stroke-linejoin="round" stroke-miterlimit="10" d="
	M670.3,403.3c0,0,2.4-4.4,6,14.5c3.5,19,11.8,46.5,10.9,57.9s-9.2,10.9-18.8,13.1c-9.6,2.3-46,8.7-46,8.7"/>
<path fill="none" stroke="#000000" stroke-width="6" stroke-linecap="round" stroke-linejoin="round" stroke-miterlimit="10" d="
	M561.9,333.6c0,0,58.4-4.1,71.7-3.1s31.5,14.8,31.9,20.2c0.5,5.4-5.4,6.4-16.2,4c-10.9-2.4-20.3-4.4-36.8-2.9s-55.3,4.6-60.8,4.2
	c-5.5-0.5-6.1-5.5-5.5-12.1C546.8,337.3,554.4,334.2,561.9,333.6z"/>
<path fill="none" stroke="#000000" stroke-width="6" stroke-linecap="round" stroke-linejoin="round" stroke-miterlimit="10" d="
	M574.9,356c0,0,5,21.3,8.6,23.5s28.3,1.4,28.4,0c0.2-1.4,0-7.8,1.7-14.2s9.8-12.3,9.8-12.3"/>
<path fill="none" stroke="#000000" stroke-width="6" stroke-linecap="round" stroke-linejoin="round" stroke-miterlimit="10" d="
	M611.3,380.8c0,0,3.4,50.5,5.7,75.7s2.4,44.9,0,46.3s-23.4,6.7-28.6,5c-7.6-14.8-11.3-36.1-8.3-44.6s12.5-5,12.5-5"/>
<line fill="none" stroke="#000000" stroke-width="6" stroke-linecap="round" stroke-linejoin="round" stroke-miterlimit="10" x1="583.5" y1="379.5" x2="597.2" y2="480.1"/>
<line fill="none" stroke="#000000" stroke-width="5" stroke-linecap="round" stroke-linejoin="round" stroke-miterlimit="10" x1="588.8" y1="356" x2="592.7" y2="379.5"/>
<path fill="none" stroke="#000000" stroke-width="5" stroke-linecap="round" stroke-linejoin="round" stroke-miterlimit="10" d="
	M680.5,189.9c0,0-6.3,2.6-10.7,18.9s-5,50.2-16.3,69.5s-18.8,36.4-22.3,50.9"/>
<path fill="none" stroke="#000000" stroke-width="5" stroke-linecap="round" stroke-linejoin="round" stroke-miterlimit="10" d="
	M624,354.3c0,0,1,21.1-3,29.8"/>
<path fill="none" stroke="#000000" stroke-width="6" stroke-linecap="round" stroke-linejoin="round" stroke-miterlimit="10" d="
	M582,386.8c0,0-27.8,8.1-30.9,20.8c-3.1,12.7-1.4,27.1,0,29.4c1.4,2.3,9.8,6.3,13.8,6.5s25.9,1.1,25.9,1.1"/>
<path fill="none" stroke="#000000" stroke-width="5" stroke-linecap="round" stroke-linejoin="round" stroke-miterlimit="10" d="
	M632.9,402c0,0,3-9.6-20.2-10.5"/>
<path fill="none" stroke="#000000" stroke-width="5" stroke-linecap="round" stroke-linejoin="round" stroke-miterlimit="10" d="
	M585.4,393.3c0,0-16.1,1.6-25,17.2c-3,7.2-0.8,31.6-0.8,31.6"/>
<path fill="none" stroke="#000000" stroke-width="6" stroke-linecap="round" stroke-linejoin="round" stroke-miterlimit="10" d="
	M548.5,410.2c0,0-59.2-9.2-61.3-19s-6.4-44.2-0.9-63s9.5-30.9,17.7-47.2c8.3-16.4,11.1-21.7,12-30"/>
<path fill="none" stroke="#000000" stroke-width="6" stroke-linecap="round" stroke-linejoin="round" stroke-miterlimit="10" d="
	M485.6,327.2c0,0-15-13.8-34.2-13"/>
<path fill="none" stroke="#000000" stroke-width="6" stroke-linecap="round" stroke-linejoin="round" stroke-miterlimit="10" d="
	M482.3,342.1c0,0-27.1-11.3-57.1-14.4"/>
<path fill="none" stroke="#000000" stroke-width="6" stroke-linecap="round" stroke-linejoin="round" stroke-miterlimit="10" d="
	M403.3,331.6c0,0,3.4,5.4,4.8,12s0.4,13,4,14.1s24.8,1.4,25.5-2.4c0.7-3.8-0.2-8.9,4.3-13.5c4.4-4.6,6.8-8.3,6.8-8.3"/>
<path fill="none" stroke="#000000" stroke-width="5" stroke-linecap="round" stroke-linejoin="round" stroke-miterlimit="10" d="
	M415.5,329.1c0,0,3.7,18.4,4.7,27.4"/>
<path fill="none" stroke="#000000" stroke-width="6" stroke-linecap="round" stroke-linejoin="round" stroke-miterlimit="10" d="
	M548.5,423.3c0,0-10.4-4.7-35.2-3.2c-24.9,1.5-40.2,3.2-40.2,3.2"/>
<path fill="none" stroke="#000000" stroke-width="6" stroke-linecap="round" stroke-linejoin="round" stroke-miterlimit="10" d="
	M447.4,421.6c0,0-34.8-7.9-62.7,5.3"/>
<path fill="none" stroke="#000000" stroke-width="6" stroke-linecap="round" stroke-linejoin="round" stroke-miterlimit="10" d="
	M396.4,420.7c0,0-7.3-0.5-9.1-10c-1.7-9.5-0.9-30.7,3.2-32.5s69.8-20.8,78-19.3c8.1,1.5,14.9,56.2-5.4,62.1"/>
<line fill="none" stroke="#000000" stroke-width="6" stroke-linecap="round" stroke-linejoin="round" stroke-miterlimit="10" x1="412.4" y1="358.8" x2="415.8" y2="369.3"/>
<line fill="none" stroke="#000000" stroke-width="6" stroke-linecap="round" stroke-linejoin="round" stroke-miterlimit="10" x1="433" y1="358.8" x2="434.5" y2="364.3"/>
<path fill="none" stroke="#000000" stroke-width="5" stroke-linecap="round" stroke-linejoin="round" stroke-miterlimit="10" d="
	M473.8,367.7c0,0-1.1-3.5-23.1,1.6s-45.9,10.5-50.8,14.4c-5,3.8-3.8,26.5,0.4,38"/>
<path fill="none" stroke="#000000" stroke-width="6" stroke-linecap="round" stroke-linejoin="round" stroke-miterlimit="10" d="
	M320.7,424.4c0,0-6.6,1.4-11.1,12.8c-4.4,11.5-11.1,30.5-15,39.2s-51,135.1-53.8,140.4"/>
<path fill="none" stroke="#000000" stroke-width="6" stroke-linecap="round" stroke-linejoin="round" stroke-miterlimit="10" d="
	M347.8,437.2c0,0,0.5,17.8-0.2,20.2s-2.2,6.3-8.7,8.3s-16.7,3.3-25.3,18.9c-8.6,15.6-13.5,32.2-13.5,32.2"/>
<path fill="none" stroke="#000000" stroke-width="5" stroke-linecap="round" stroke-linejoin="round" stroke-miterlimit="10" d="
	M504.1,445.5c0,0,7.7-4.9,22.4-3.1c14.7,1.8,26.5,2.1,32.3,0.2"/>
<path fill="none" stroke="#000000" stroke-width="5" stroke-linecap="round" stroke-linejoin="round" stroke-miterlimit="10" d="
	M297.2,472.7c0,0,10.6-0.8,15.7,9.6"/>
<path fill="none" stroke="#000000" stroke-width="6" stroke-linecap="round" stroke-linejoin="round" stroke-miterlimit="10" d="
	M583.5,503.4c0,0-43,7.5-55.8,6"/>
<path fill="none" stroke="#000000" stroke-width="6" stroke-linecap="round" stroke-linejoin="round" stroke-miterlimit="10" d="
	M527,443.8v62.6c0,0-4.5,2.7-15.2,3.6c-10.8,0.9-32.2-3.6-32.2-3.6"/>
<path fill="none" stroke="#000000" stroke-width="6" stroke-linecap="round" stroke-linejoin="round" stroke-miterlimit="10" d="
	M514.4,443.8c0,0,0.1,42.6-3,47.1c-3.1,4.5-18.6,1.1-32.1,12.8c-13.5,11.7-34.9,94.1-39.1,97.7c-3.7,2.8-5.6,1.4-7.6,4.7
	s-19.1,50.4-19.1,50.4"/>
<line fill="none" stroke="#000000" stroke-width="6" stroke-linecap="round" stroke-linejoin="round" stroke-miterlimit="10" x1="400" y1="652.1" x2="468.3" y2="470.1"/>
<polyline fill="none" stroke="#000000" stroke-width="6" stroke-linecap="round" stroke-linejoin="round" stroke-miterlimit="10" points="
	467.3,477.7 478.3,477 470.1,473.7 "/>
<line fill="none" stroke="#000000" stroke-width="6" stroke-linecap="round" stroke-linejoin="round" stroke-miterlimit="10" x1="506.1" y1="447.4" x2="512.1" y2="445.2"/>
<path fill="none" stroke="#000000" stroke-width="6" stroke-linecap="round" stroke-linejoin="round" stroke-miterlimit="10" d="
	M456.4,501.9c0,0-67.9-8.3-71.6-11.7c-3.8-3.4-3.1-7.3-8-7.3s-32.2-0.8-33.2-2.8s-1.1-15.9-1.1-15.9"/>
<polyline fill="none" stroke="#000000" stroke-width="6" stroke-linecap="round" stroke-linejoin="round" stroke-miterlimit="10" points="
	357.3,440.6 358.1,463.6 372.9,463.6 "/>
<path fill="none" stroke="#000000" stroke-width="6" stroke-linecap="round" stroke-linejoin="round" stroke-miterlimit="10" d="
	M372.9,450.2c0,0,0.6,13.1,4.9,15.6s74.5,12.3,84,14.3"/>
<path fill="none" stroke="#000000" stroke-width="6" stroke-linecap="round" stroke-linejoin="round" stroke-miterlimit="10" d="
	M529.3,485.1c0,0,30.8-1.7,48.8-5"/>
<path fill="none" stroke="#000000" stroke-width="5" stroke-linecap="round" stroke-linejoin="round" stroke-miterlimit="10" d="
	M456.8,500.8c0,0,12.8-3.2,15.3,10.4"/>
<path fill="none" stroke="#000000" stroke-width="6" stroke-linecap="round" stroke-linejoin="round" stroke-miterlimit="10" d="
	M282.6,511.7c0,0,11.8,0.3,17.4,8.9c46.2,9.9,135.4,26,135.4,26s2.8-3.8,9.2-3.5s13.9,6.2,13.9,6.2"/>
<path fill="none" stroke="#000000" stroke-width="6" stroke-linecap="round" stroke-linejoin="round" stroke-miterlimit="10" d="
	M448,577c0,0-2.3-11.5-15.9-8.1c-5,0.3-3.7,0.6-3.7,0.6s-128.9-26.8-139-26.3c-4.6-4-10.8-7.3-15.9-7.3"/>
<line fill="none" stroke="#000000" stroke-width="6" stroke-linecap="round" stroke-linejoin="round" stroke-miterlimit="10" x1="288.1" y1="544.1" x2="258.9" y2="620.1"/>
<line fill="none" stroke="#000000" stroke-width="6" stroke-linecap="round" stroke-linejoin="round" stroke-miterlimit="10" x1="308.4" y1="522.4" x2="365.1" y2="506.7"/>
<path fill="none" stroke="#000000" stroke-width="6" stroke-linecap="round" stroke-linejoin="round" stroke-miterlimit="10" d="
	M363.7,483c0,0,4,1.8,4,11.4c0,9.6-5,30.1-5,30.1"/>
<line fill="none" stroke="#000000" stroke-width="6" stroke-linecap="round" stroke-linejoin="round" stroke-miterlimit="10" x1="401" y1="495.4" x2="392.2" y2="520.6"/>
<path fill="none" stroke="#000000" stroke-width="6" stroke-linecap="round" stroke-linejoin="round" stroke-miterlimit="10" d="
	M356.5,530.6c0,0,4.4-4.8,21.4-6.4c17-1.6,39.3,0.1,50,1.8c10.7,1.7,17.1,2.4,17.1,2.4"/>
<path fill="none" stroke="#000000" stroke-width="5" stroke-linecap="round" stroke-linejoin="round" stroke-miterlimit="10" d="
	M367.6,507.3c0,0,12.8,6.2,28.1-1.4"/>
<path fill="none" stroke="#000000" stroke-width="6" stroke-linecap="round" stroke-linejoin="round" stroke-miterlimit="10" d="
	M418.7,498.1c0,0-5.4,5.1-2,25.4"/>
<path fill="none" stroke="#000000" stroke-width="6" stroke-linecap="round" stroke-linejoin="round" stroke-miterlimit="10" d="
	M465.3,533.6c0,0,25.1,4.4,37.1,7.2c12,2.9,33.6-2.2,50.2-5.9s36.1-7.7,38.5-6.4s9.7,6.2,22.1,3.8"/>
<path fill="none" stroke="#000000" stroke-width="6" stroke-linecap="round" stroke-linejoin="round" stroke-miterlimit="10" d="
	M662.9,491.3c0,0,1.7,7.8,0,9.7s-42.3,8.8-54.1,15"/>
<path fill="none" stroke="#000000" stroke-width="6" stroke-linecap="round" stroke-linejoin="round" stroke-miterlimit="10" d="
	M620,512c0,0,27.7-4.1,40.7-3.7c13,0.4,53.2,5.2,67.9,12.8s23.5,22.9,17,28.2"/>
<path fill="none" stroke="#000000" stroke-width="6" stroke-linecap="round" stroke-linejoin="round" stroke-miterlimit="10" d="
	M723.7,518.9c0,0-22.1-8-51.6,3.4c-29.5,11.4-40.4,53.3-39.2,64.1c1.1,10.8,22.6,10.3,26,2.5s13-41.2,30.3-50.6
	c17.3-9.4,32.4-8.1,42-3s11.6,12.5,14.2,20c2.6,7.5,16.9,31,2.8,82.8c-14.1,51.8-61.1,64-90,31.9s-18.1-74.8-18.1-74.8"/>
<path fill="none" stroke="#000000" stroke-width="4" stroke-linecap="round" stroke-linejoin="round" stroke-miterlimit="10" d="
	M716.9,549.2c48,1.8,34.9,124.4-16.5,119.2S658.2,541.3,716.9,549.2z"/>
<path fill="none" stroke="#000000" stroke-width="4" stroke-linecap="round" stroke-linejoin="round" stroke-miterlimit="10" d="
	M701.7,662.2c38.1,11,58.2-105.2,12.8-107.1C668.7,555.1,660,657.6,701.7,662.2z"/>
<path fill="none" stroke="#000000" stroke-width="4" stroke-linecap="round" stroke-linejoin="round" stroke-miterlimit="10" d="
	M691.8,578.4c0,0,8-11,13.1-11.3c3.2,0.5,0.7,21.8-2.2,22.8s-10.2-5.5-10.9-10.9"/>
<path fill="none" stroke="#000000" stroke-width="4" stroke-linecap="round" stroke-linejoin="round" stroke-miterlimit="10" d="
	M721.1,570.9c0,0,9.9,0.2,11.8,14c-0.1,3.8-9.5,8.3-12.9,5.6c-2.2-2.8,0.5-19.6,0.5-19.6"/>
<path fill="none" stroke="#000000" stroke-width="4" stroke-linecap="round" stroke-linejoin="round" stroke-miterlimit="10" d="
	M719.6,613.9c0,0,9.6-4.6,13.3-0.6c1.1,2.5-2.3,24.7-10.2,25.9c-5.9,0.7-3.1-24.5-3.1-24.5"/>
<path fill="none" stroke="#000000" stroke-width="4" stroke-linecap="round" stroke-linejoin="round" stroke-miterlimit="10" d="
	M706.8,630.3c2.5,0.3,3.2,18.6,0.9,19.9c-2.2,1.3-13.1,0.6-14.9-4.7c-0.5-3.1,10.9-15.7,13.5-15.3"/>
<path fill="none" stroke="#000000" stroke-width="4" stroke-linecap="round" stroke-linejoin="round" stroke-miterlimit="10" d="
	M684.6,602.8c0,0,11.8,5,12.7,8.4s-10.3,14.2-13.6,14.6c-2.7,0-0.8-22.5-0.8-22.5"/>
<path fill="none" stroke="#000000" stroke-width="4" stroke-linecap="round" stroke-linejoin="round" stroke-miterlimit="10" d="
	M712.9,596.7c5.1,1.5,1.8,18.6-3.8,18.8s-4.5-18.8,2.8-19.3"/>
<path fill="none" stroke="#000000" stroke-width="6" stroke-linecap="round" stroke-linejoin="round" stroke-miterlimit="10" d="
	M690.7,513.2c0,0-42.2,5.6-67.9,15.5c-11.9,5-28.7,18.9-47.9,49.1c-3.8,6.3,2.1,12,12.7,8.6c7.7-11.5,21-37.1,36.2-42.6
	s29.4-8.7,29.4-8.7"/>
<path fill="none" stroke="#000000" stroke-width="6" stroke-linecap="round" stroke-linejoin="round" stroke-miterlimit="10" d="
	M636.2,564.2c0,0-3.6-8.1-13.9-7.8c-10.2,0.3-12.3,8.6-10.5,23.4c1.8,14.8,15.7,11.9,20.4,8.9"/>
<path fill="none" stroke="#000000" stroke-width="5" stroke-linecap="round" stroke-linejoin="round" stroke-miterlimit="10" d="
	M624.5,568c4.6-0.6,4.7,11.6-0.8,9.9C618.1,576.2,621.6,567.7,624.5,568z"/>
<path fill="none" stroke="#000000" stroke-width="6" stroke-linecap="round" stroke-linejoin="round" stroke-miterlimit="10" d="
	M617.7,589.8c0,0-12.5,0.5-17.2,7"/>
<path fill="none" stroke="#000000" stroke-width="6" stroke-linecap="round" stroke-linejoin="round" stroke-miterlimit="10" d="
	M637.9,632.6c0,0-25.9,1.4-28.8,1.4c-3,0-8.6-5.2-8.6-5.2"/>
<path fill="none" stroke="#000000" stroke-width="6" stroke-linecap="round" stroke-linejoin="round" stroke-miterlimit="10" d="
	M598,598.4c0,0-2.8-5-6.6-5s-18.6,2-21.1,10.1"/>
<path fill="none" stroke="#000000" stroke-width="6" stroke-linecap="round" stroke-linejoin="round" stroke-miterlimit="10" d="
	M568.4,619.2c0,0,0.9,6.7,6.1,9.6s18.3,4,20.3,3.5s11.3-14.7,4-32.3"/>
<path fill="none" stroke="#000000" stroke-width="4" stroke-linecap="round" stroke-linejoin="round" stroke-miterlimit="10" d="
	M607.8,593.4c0,0,7.6,4.1,8.1,17.4s-5.1,19.8-8.1,20.6"/>
<path fill="none" stroke="#000000" stroke-width="4" stroke-linecap="round" stroke-linejoin="round" stroke-miterlimit="10" d="
	M575.2,598.4c0,0,9.6,12.1,1.2,30.1"/>
<path fill="none" stroke="#000000" stroke-width="6" stroke-linecap="round" stroke-linejoin="round" stroke-miterlimit="10" d="
	M568.4,617.4c5.2-1.4,2.6-10.4-4.6-17.3c-7.2-6.9-17.4-15-49.4-15.3s-47.4,19-47.4,22.8s-0.6,8.9,10.1,9c10.7,0.2,17.7-5.2,19.7-2.1
	c2,3.1,1.7,9.2,6.6,10.1c4.9,0.9,7.5-3.5,11,9.3c3.5,12.8,6.9,33.3,10.2,34.5c3.4,1.2,16.7-2.4,17.1-4.6c0.5-2.1-8.4-46.9-9.6-52.9
	c-0.2-4.7,8.3-4.4,12.8-1.7S561.5,618.7,568.4,617.4z"/>
<path fill="none" stroke="#000000" stroke-width="6" stroke-linecap="round" stroke-linejoin="round" stroke-miterlimit="10" d="
	M557,616.3c0,0,7.7,11.1,9.2,28.9S554.8,718,518,719.3c-36.8,1.4-51.9-26.9-54.2-53.8c-2.3-26.9,9.2-46.3,12.1-48.2"/>
<path fill="none" stroke="#000000" stroke-width="4" stroke-linecap="round" stroke-linejoin="round" stroke-miterlimit="10" d="
	M535.2,619.8c0,0,16.7,5.2,19.7,22.9c3.1,17.7-4.1,57.3-37.1,54s-24.8-57.2-7.5-70"/>
<path fill="none" stroke="#000000" stroke-width="4" stroke-linecap="round" stroke-linejoin="round" stroke-miterlimit="10" d="
	M537.9,630.2c0,0,10.5,5.2,10.4,21.9c-0.2,16.7-7.3,36.8-25.8,37.8c-18.5,0.9-21.6-23.5-19.1-35.6s9.3-19.1,9.3-19.1"/>
<path fill="none" stroke="#000000" stroke-width="4" stroke-linecap="round" stroke-linejoin="round" stroke-miterlimit="10" d="
	M515.4,642.4c0,0-8.7,12.1-7,16c3,2.7,10.6-0.6,10.6-0.6"/>
<path fill="none" stroke="#000000" stroke-width="4" stroke-linecap="round" stroke-linejoin="round" stroke-miterlimit="10" d="
	M523.7,668.7c0,0-10.6,7.5-8,11.2s16.1,0.2,16.4-3.1c0.3-3-1.1-8.1-1.1-8.1"/>
<line fill="none" stroke="#000000" stroke-width="6" stroke-linecap="round" stroke-linejoin="round" stroke-miterlimit="10" x1="568.4" y1="654.6" x2="637.9" y2="635.8"/>
<path fill="none" stroke="#000000" stroke-width="6" stroke-linecap="round" stroke-linejoin="round" stroke-miterlimit="10" d="
	M463.6,645.3c0,0-12.1-1.9-15.4-7.6s-11-33.9-11-33.9"/>
<line fill="none" stroke="#000000" stroke-width="5" stroke-linecap="round" stroke-linejoin="round" stroke-miterlimit="10" x1="446.9" y1="587.7" x2="478.2" y2="593.4"/>
<path fill="none" stroke="#000000" stroke-width="5" stroke-linecap="round" stroke-linejoin="round" stroke-miterlimit="10" d="
	M454.9,563.7c0.7,0,47.7,10.9,56.1,10.9c8.4,0,77.7-17.3,77.7-17.3"/>
<path fill="none" stroke="#000000" stroke-width="6" stroke-linecap="round" stroke-linejoin="round" stroke-miterlimit="10" d="
	M400,564.4c0,0,20.3,14,16.3,24.6c-2.9,3.2-17.1-9.3-27.2-8.1c-5.7,0.8-5.3,5.6-1.7,18.8c3.6,13.2,7.9,33,7,34.2
	c-0.9,1.1-13.2,3.2-16.7,1.1c-2.2-5.2-8.4-36.2-11.1-37.9c-2.8-1.7-6.1-0.6-8.1-8.1c-2.1-7.6-4.4-15.5-12-13.8
	c-7.7,1.7-11.2,3.3-14.7,4.8c-3.4,1.5-15.1-0.9-16.1-4.5c-0.9-3.6,6.5-15,14.8-17.3s10.2-1.7,11.7-4.7"/>
<path fill="none" stroke="#000000" stroke-width="6" stroke-linecap="round" stroke-linejoin="round" stroke-miterlimit="10" d="
	M408.7,587.4c0,0,6.7,7.9,6.1,23.3"/>
<path fill="none" stroke="#000000" stroke-width="6" stroke-linecap="round" stroke-linejoin="round" stroke-miterlimit="10" d="
	M348.2,575.6c0,0-43,34.2-25.5,80.7"/>
<polyline fill="none" stroke="#000000" stroke-width="6" stroke-linecap="round" stroke-linejoin="round" stroke-miterlimit="10" points="
	331.3,581.4 334.6,586.6 338.2,581.4 335.9,582.2 "/>
<path fill="none" stroke="#000000" stroke-width="4" stroke-linecap="round" stroke-linejoin="round" stroke-miterlimit="10" d="
	M387,594.1c0,0,21.4,0.3,20.9,34.2"/>
<path fill="none" stroke="#000000" stroke-width="4" stroke-linecap="round" stroke-linejoin="round" stroke-miterlimit="10" d="
	M365.1,597c0,0-15.1,9.1-15.8,34.9c-0.7,25.8,16.1,32.1,22,32.3"/>
<path fill="none" stroke="#000000" stroke-width="4" stroke-linecap="round" stroke-linejoin="round" stroke-miterlimit="10" d="
	M368.2,604.4c0,0-8.8,2.7-11.6,25.3c-2.9,22.6,17.8,28.9,19.7,28.4"/>
<path fill="none" stroke="#000000" stroke-width="4" stroke-linecap="round" stroke-linejoin="round" stroke-miterlimit="10" d="
	M389.6,602c0,0,11.2,1.5,11.2,17.5s-5.6,28.5-9.7,31.9"/>
<path fill="none" stroke="#000000" stroke-width="4" stroke-linecap="round" stroke-linejoin="round" stroke-miterlimit="10" d="
	M369.6,611.8c0,0-4.4,6.7-3.3,8.6s6,1.8,6,1.8"/>
<path fill="none" stroke="#000000" stroke-width="4" stroke-linecap="round" stroke-linejoin="round" stroke-miterlimit="10" d="
	M364.3,630.6c4.9-0.3,8,3.6,7.5,9.5s-2.8,8-5.1,7.3c-2.3-0.6-6.4-10.3-3-16.5"/>
<path fill="none" stroke="#000000" stroke-width="4" stroke-linecap="round" stroke-linejoin="round" stroke-miterlimit="10" d="
	M381.7,636.8c0,0-1.8,9.8,1.1,10.9c2.9,1.1,6.9-4,7.3-10.9"/>
<path fill="none" stroke="#000000" stroke-width="6" stroke-linecap="round" stroke-linejoin="round" stroke-miterlimit="10" d="
	M251.5,639.2c0,0,75,19.4,94.6,24.2s24.2,6,25.7,4.1c1.5-2,4.5-11.9,16.4-13.7c11.8-1.8,25,3.1,26.8,7.7c1.8,4.6-5.4,16.8-4.8,20.8
	s-0.3,15.6-9.2,17.4c-8.9-0.2-114-27.7-132.8-32.7s-36.7-10.9-39.9-13.6s-7.3-4.6-6.2-12.7s8.5-6.5,8.5-6.5s1.3-16.6,11.8-15.7
	c10.5,0.9,21.2,1.9,23.3,10.7s-1.7,10.4-1.7,10.4"/>
<polyline fill="none" stroke="#000000" stroke-width="5" stroke-linecap="round" stroke-linejoin="round" stroke-miterlimit="10" points="
	223.2,644.6 387.9,686.5 402.8,697.1 "/>
<line fill="none" stroke="#000000" stroke-width="5" stroke-linecap="round" stroke-linejoin="round" stroke-miterlimit="10" x1="399.4" y1="655.7" x2="388.2" y2="685.1"/>
<path fill="none" stroke="#000000" stroke-width="6" stroke-linecap="round" stroke-linejoin="round" stroke-miterlimit="10" d="
	M284.6,556.5c0,0,0,82.6-1,85.4s-3.7,2.3-5.5,2.2s-3.3-3.3-4.5-13.8c-1.1-10.4-2.7-41.4-2.7-41.4"/>
<path fill="none" stroke="#000000" stroke-width="19" stroke-linecap="round" stroke-linejoin="round" stroke-miterlimit="10" stroke-opacity="0" d="
	M306,260.1l-6.3-4.9H289l-3-19.3l1-7.7l-14.1,6l-4.3-12.3l11.1-5.8l-0.8-11.7l-17.4,3.4l-3.6-5.4l22-11.1l-20.4,0.5l-1.6-4.4
	l25.6-4.2L293,172l-29,1.3l2.2-13.2l32.7,2.9l5-11.7l-33.6-3.6l9.3-12.6l31,5.5l9.4-9.8l-32.2-7.5l2.4-5.6l36.1,3.6l13-8.5
	l-41.1-6.1l17.1-6.4L346,104l21.3-0.8l-36.5-16.5l22.3-3.2l27.3,14.4l13,2.3L375,82.7l24.1,7l6.6,14l15,4.9l-5.4-13.1l16.5,11.6v6.8
	l8.3,10c0,0,8.9,16.4,9.9,23.7c1,7.3,1.1,19.8,1.1,19.8"/>
<path fill="none" stroke="#000000" stroke-width="19" stroke-linecap="round" stroke-linejoin="round" stroke-miterlimit="10" stroke-opacity="0" d="
	M310,164.3l8.5,6l0.5,2.1l2-12.1c0,0,14.1-28,35.3-36.4c21.2-8.4,41.1-8.3,53.8-6.4c12.7,1.9,24.1,11.7,24.1,11.7l4.7,6.3"/>
<line fill="none" stroke="#000000" stroke-width="19" stroke-linecap="round" stroke-linejoin="round" stroke-miterlimit="10" stroke-opacity="0" x1="300.5" y1="243.1" x2="302.4" y2="228"/>
<path fill="none" stroke="#000000" stroke-width="24" stroke-linecap="round" stroke-linejoin="round" stroke-miterlimit="10" stroke-opacity="0" d="
	M297.3,183.9l85.8-50.6h22.6l-113.5,68.5v7.6l130.5-69l21.2,11l-149.2,71.9l13.7,10.8l130.9-61.2L412,198.7c0,0-101.7,39.7-98,47.8
	s3,7.9,3,7.9l101.7-41.9l6.5,10.9l-99.3,42l88.6-22.4l-9.7,16.3l-57.1,9.1l44.8,2.1l-14.9,15L333,274.2l36.1,16.8l-18.2-0.9l-22-8.4
	l-4.9-1.3l-4,7.6l1.7,1.4l-3.2,3.5l0.8,10.1l0.5,3.8"/>
<polyline fill="none" stroke="#000000" stroke-width="24" stroke-linecap="round" stroke-linejoin="round" stroke-miterlimit="10" stroke-opacity="0" points="
	449.4,269.7 452.3,284 457.2,304 467.4,295.7 463.3,274.2 474.6,261.1 476.6,275.9 500.9,251.1 523.7,225.6 527.1,183.9 
	540.9,175.6 537.8,220 551.9,216.1 557.1,179.1 574.5,169.8 589.4,165 "/>
<polyline fill="none" stroke="#000000" stroke-width="21" stroke-linecap="round" stroke-linejoin="round" stroke-miterlimit="10" stroke-opacity="0" points="
	558.4,217.5 569,211.4 584.6,206.2 587.6,206.2 "/>
<polyline fill="none" stroke="#000000" stroke-width="24" stroke-linecap="round" stroke-linejoin="round" stroke-miterlimit="10" stroke-opacity="0" points="
	302.6,403.2 317.8,387 325.1,392.3 317.5,404.1 316.2,407.5 327.6,413.2 335.4,398.9 346.4,405.3 339.8,418.5 349.5,424.4 
	357.3,412.2 363.7,413.8 360.5,428 378.9,437.2 400.7,450.7 420.8,457.2 423.1,448 432.6,441.2 430.2,457.2 437.7,457.2 
	444.2,435.1 452.2,430.9 461.9,431.4 449,458 457.5,456.8 473.8,436.2 484.8,440.5 473.8,461.5 483.3,469 492.5,451 495.8,467.1 "/>
<polyline fill="none" stroke="#000000" stroke-width="22" stroke-linecap="round" stroke-linejoin="round" stroke-miterlimit="10" stroke-opacity="0" points="
	240,535.2 247.1,541.6 258.4,543.8 254.1,557 239.3,554.6 242.1,561.3 246.5,566.9 "/>
<polyline fill="none" stroke="#000000" stroke-width="17" stroke-linecap="round" stroke-linejoin="round" stroke-miterlimit="10" stroke-opacity="0" points="
	363.9,519 375.5,516.8 389.1,515.6 "/>
<polyline fill="none" stroke="#000000" stroke-width="17" stroke-linecap="round" stroke-linejoin="round" stroke-miterlimit="10" stroke-opacity="0" points="
	223.5,583.7 199.2,626.2 197.2,635.9 213.2,621.6 216.8,621.6 209,635.9 222.1,625 213.2,636.9 213.2,645.2 217.2,651.1 "/>
<path fill="none" stroke="#000000" stroke-width="24" stroke-linecap="round" stroke-linejoin="round" stroke-miterlimit="10" stroke-opacity="0" d="
	M247.9,301.3l65.5-25.3l8.4,17.3c0,0-72.7,10.2-92.8,23.9c-20.1,13.7-19,14.5-19,14.5l152.6-36.3l69.8-16.8l6.8,9.9l-243.4,60.3
	l-6.1,13.1l246.9-60.6l-4.2,9.7l-3,6.1l-61,7.3l-185.9,56.5l-7.9,17.3l154.5-47.7l-2.3,8.6l-146.3,45.5l12.7,10.2l109.3-32.6
	l-10.2,9l-84.8,27.2l28.7,1.2l27.2-8.3l21.1-8.4"/>
<polyline fill="none" stroke="#000000" stroke-width="24" stroke-linecap="round" stroke-linejoin="round" stroke-miterlimit="10" stroke-opacity="0" points="
	176.6,419.7 215.5,417.7 220,424.4 184,432.6 186.7,439.5 283,419.7 298,424.4 190.8,448 212.9,454.3 300,431.3 293.3,442.9 
	226.2,461 244.8,467.7 289.7,452.9 285.3,464.2 256.8,473.9 280.8,476.1 272,495.1 261.9,512.3 255.7,527.8 270.6,504.9 
	259.8,530.4 "/>
<polyline fill="none" stroke="#000000" stroke-width="16" stroke-linecap="round" stroke-linejoin="round" stroke-miterlimit="10" stroke-opacity="0" points="
	375.2,489.3 376.5,491 374.7,503.5 378.6,505.5 380.8,495.4 384.8,497.4 384,504.7 392.2,499.7 "/>
<polyline fill="none" stroke="#000000" stroke-width="24" stroke-linecap="round" stroke-linejoin="round" stroke-miterlimit="10" stroke-opacity="0" points="
	165.2,441.3 173.1,446.3 161.5,449 251.7,490.6 248.9,498.2 156.8,464 160.6,477.8 244.6,509.4 "/>
<polyline fill="none" stroke="#000000" stroke-width="24" stroke-linecap="round" stroke-linejoin="round" stroke-miterlimit="10" stroke-opacity="0" points="
	312,511.7 324.8,486.7 333.4,478.6 333.7,489.3 329.1,509.4 340.1,507.2 345,495.2 360.3,495.2 360.3,500.5 351.3,503.8 "/>
<line fill="none" stroke="#000000" stroke-width="24" stroke-linecap="round" stroke-linejoin="round" stroke-miterlimit="10" stroke-opacity="0" x1="174.4" y1="491.8" x2="161.4" y2="612.3"/>
<polyline fill="none" stroke="#000000" stroke-width="24" stroke-linecap="round" stroke-linejoin="round" stroke-miterlimit="10" stroke-opacity="0" points="
	288.1,575.6 280.8,591.3 282.6,632.9 "/>
<path fill="none" stroke="#000000" stroke-width="24" stroke-linecap="round" stroke-linejoin="round" stroke-miterlimit="10" stroke-opacity="0" d="
	M563,199.9c37.9-8.2,40.1-8.6,40.1-8.6v-7l-36.7,2.8"/>
<polyline fill="none" stroke="#000000" stroke-width="12" stroke-linecap="round" stroke-linejoin="round" stroke-miterlimit="10" stroke-opacity="0" points="
	613.6,189.2 698,179.1 703.3,184.3 723.6,181.9 720,169.3 701.6,171.8 699.4,173.8 703.3,178.6 716.6,177 716.2,173.8 708.5,173.8 
	"/>
<polyline fill="none" stroke="#000000" stroke-width="29" stroke-linecap="round" stroke-linejoin="round" stroke-miterlimit="10" stroke-opacity="0" points="
	556.4,98.7 603.1,71.9 633,79.7 551.9,120.4 556.4,135.9 651.8,92.7 657.4,121.2 572.1,149.6 567.2,165.2 658.7,138 668.6,149.6 
	576.2,175.4 523.7,225.6 677.6,170.6 675.7,190.7 497.2,257.2 476.6,275.9 692.3,203.1 684.2,223.4 417.8,306.7 407.9,329.2 
	682.2,244.6 679,260.1 411.1,347.9 401,366.5 682.7,281.6 665.6,306.7 396.5,386.8 324,431.9 668.8,326.8 670,345 303,452.9 
	303,469 670.9,369.1 674.8,389.7 297.2,485.1 289.7,503.8 671.7,413.4 675.3,428 282.6,528.3 270.6,550.2 680.5,448 683.9,458.1 
	264.9,570.1 258.4,588.2 684.7,483 680.5,503.4 251,612.9 233,638.5 693.8,516.2 720.9,523.1 238.3,652.5 263.7,662.7 740.6,538.7 
	742.5,553.1 302.6,670.4 336.7,673.2 745.3,573 750.5,583.7 355.7,685.1 386.9,688.8 751.3,602.8 751.1,616.8 479.5,687.8 
	488.2,699.8 745.3,637.5 499.7,712.1 528.4,710.1 738.6,657.4 715.4,672.9 689.8,678.2 "/>
<path fill="#B7B7B7" d="M738.4,566.7c11.1,22.1,7.3,61.2-8.1,83.6c-5.6,8.2-15.3,17.6-29.7,16.1s-22.1-12.5-26-21.4
	c-10.3-23.6-6.5-59,8.5-78.9c5.4-7.2,14.6-15.3,28.5-15.3c1.6,0,3.3,0.1,5.1,0.3c0.1,0,0.1,0,0.2,0
	C726.2,551.6,733.5,556.8,738.4,566.7z M724.5,655.7c16.6-18.7,23.3-61.6,13.4-84.9c-2.4-5.6-5.6-9.9-9.5-12.9s-8.6-4.6-13.8-4.8
	c-25.2,0-40,29.3-41.6,58.2c-1.3,24.5,6.9,50.3,28.4,52.8c1.8,0.5,3.7,0.8,5.5,0.8C713.1,664.9,719.1,661.8,724.5,655.7z"/>
<path fill="#B7B7B7" d="M734.2,572.3c9.5,22.2,3,62.9-12.7,80.7c-6,6.8-12.5,9.2-19.2,7.2c-0.1,0-0.2-0.1-0.3-0.1
	c-19-2.1-26.2-26-25-48.7c1.5-27.1,14.9-54.4,37.5-54.4C723.4,557.4,730.1,562.6,734.2,572.3z M734.9,584.9c0-0.1,0-0.2,0-0.3
	c-2.1-15.4-13.6-15.7-13.7-15.7c-0.1,0-0.2,0-0.4,0l0,0c-1.1-0.2-2.1,0.6-2.3,1.7c-0.8,5.3-2.5,17.9-0.1,21.1
	c0.1,0.1,0.2,0.2,0.3,0.3c1.1,0.9,2.6,1.3,4.1,1.3c2,0,4.1-0.6,5.9-1.4C731.7,590.5,734.8,587.9,734.9,584.9z M730,635.2
	c4-7.1,6-19.9,4.8-22.7c-0.1-0.2-0.2-0.4-0.4-0.6c-4.6-4.9-14.5-0.4-15.6,0.2c-0.8,0.4-1.3,1.3-1.1,2.2c0,0,0,0.1,0,0.2
	c-0.6,5-2.1,21.5,2.1,25.6c0.8,0.8,1.7,1.2,2.8,1.2c0.2,0,0.3,0,0.5,0C725.6,640.8,728,638.8,730,635.2z M717.2,605.3
	c0.7-5.6-0.7-9.5-3.8-10.5c-0.1,0-0.2,0-0.3-0.1c-0.4-0.3-0.9-0.5-1.4-0.5c-6.2,0.4-8.5,9.1-8.2,15.1s3,8.1,5.4,8.1c0,0,0.1,0,0.2,0
	C713.7,617.3,716.5,611,717.2,605.3z M708.7,652c3.6-2.1,2.2-16,1.6-18.9c-0.4-2.1-1.2-4.5-3.3-4.8c-0.2,0-0.3,0-0.5,0
	c-0.8-0.1-2.6-0.3-7.9,5.1c-1.4,1.4-8.4,8.8-7.8,12.5c0,0.1,0,0.2,0.1,0.3c0.8,2.3,2.8,4.1,5.8,5.3c2.3,0.8,5,1.3,7.4,1.3
	C706.1,652.8,707.7,652.5,708.7,652z M703.4,591.7c4.3-1.5,5.4-16.9,5-21.5c-0.1-1.2-0.5-4.8-3.1-5.2c-0.1,0-0.3,0-0.4,0
	c-5.8,0.3-13.2,10.2-14.6,12.1c-0.3,0.4-0.4,1-0.4,1.5c0,0.2,0,0.4,0,0.6c0.6,4.5,4.7,9.2,8.3,11.3c1.5,0.9,2.8,1.4,4,1.4
	C702.5,592,703,591.9,703.4,591.7z M697.5,616.3c1.6-2.3,2.1-4.1,1.7-5.5c-1.1-3.9-10-8.1-13.8-9.7c-0.8-0.3-1.6-0.1-2.2,0.4
	c-0.1,0-0.1,0-0.2,0c-1.1-0.1-2.1,0.7-2.1,1.8c-0.8,9.5-1.2,21.4,1,23.8c0.5,0.5,1.2,0.8,1.9,0.8c0.1,0,0.2,0,0.2,0
	C687.4,627.4,694.6,620.6,697.5,616.3z"/>
<path fill="#B7B7B7" d="M636.9,595.9c-0.9,4-3.3,17.5-0.7,33.9c-7.3,0.4-18.7,1-24.1,1.2c3.3-3.4,6.2-10.3,5.9-20.2
	c-0.3-9.1-3.8-14.3-6.4-16.9c2.1-0.5,4.2-0.8,5.6-0.9c2,0.9,4.2,1.3,6.4,1.3c3.3,0,6.4-0.9,8.7-2
	C633.3,593.7,634.9,594.9,636.9,595.9z"/>
<path fill="#B7B7B7" d="M596,601.2c4.9,11.6,1.6,21.7-0.9,26.2c-0.5,0.9-1,1.6-1.4,2c-2.3,0.1-9.6-0.5-14.6-2
	c5.5-13.5,1.6-23.6-0.8-28c4.4-2.1,10.3-3.1,13.2-3.1c1.4,0,3.2,2.1,3.9,3.5c0.1,0.2,0.2,0.4,0.4,0.6
	C595.8,600.7,595.9,601,596,601.2z"/>
<path fill="#B7B7B7" d="M552.9,643.1c1.9,11-0.4,31.6-11.2,43.2c-6.1,6.6-14.1,9.4-23.8,8.4c-12.4-1.3-17.4-10.1-19.3-17.4
	c-4.6-16.7,2.2-39.1,11.2-47.6c0.4,0.9,0.9,2.2,1.4,4c-0.7,0.7-7.4,7.9-9.8,20.1c-2,9.6-0.4,24,6.3,31.8c3.6,4.2,8.2,6.2,13.7,6.2
	c0.4,0,0.7,0,1.1,0c18.9-0.9,27.6-20.6,27.7-39.7c0.2-17.7-11-23.4-11.5-23.7c-0.1,0-0.1-0.1-0.2-0.1c-0.4-1.9-0.7-3.6-1-5.3
	C542.2,625.3,550.9,631.1,552.9,643.1z"/>
<path fill="#B7B7B7" d="M539.7,634c2.8,2.6,6.7,8.1,6.6,18c0,3.6-0.5,8-1.5,12.5h-0.1C545.1,662.7,542.4,647.8,539.7,634z"/>
<path fill="#B7B7B7" d="M544.7,664.5L544.7,664.5c-2.5,11.2-9,22.7-22.3,23.3c-4.7,0.2-8.6-1.4-11.6-4.8c-6.3-7.3-7-21-5.5-28.4
	c1.6-7.7,5.1-13.3,7.1-16.1c0.3,1.1,0.5,2.2,0.8,3.3c-3,4.2-8.6,13.1-6.7,17.4c0.1,0.2,0.3,0.5,0.5,0.6c1.3,1.2,3.1,1.6,4.9,1.6
	c2.1,0,4.2-0.6,5.8-1.1c1,3.7,2,6.3,3,8.1c-3.7,2.9-9.5,8.4-6.6,12.6c1.2,1.8,3.7,2.5,6.4,2.5c1.9,0,3.9-0.3,5.7-0.8
	c2.3-0.6,7.6-2.4,7.9-5.7c0.2-1.9-0.2-4.4-0.5-6.3c3.3-0.8,6.5-1.9,8.2-2.9C542.8,667.2,544.3,666.2,544.7,664.5z"/>
<path fill="#B7B7B7" d="M389.6,596.5c5.3,1.4,16.6,7.1,16.3,31.3l-8.6,22.9c-0.9-0.1-1.7-0.1-2.6-0.2c4.3-5.8,8.2-17.7,8.2-31
	c0-15.2-9.6-18.7-12.3-19.4c-0.1-0.4-0.2-0.8-0.3-1.2C390.1,598.2,389.8,597.4,389.6,596.5z"/>
<path fill="#B7B7B7" d="M398.9,619.5c0,4.9-0.6,9.4-1.4,13.5c0-1.9-0.6-5.4-2-12.3c-1-4.9-2.4-10.6-3.7-15.9
	C394.6,606.2,398.9,609.9,398.9,619.5z"/>
<path fill="#B7B7B7" d="M396.7,635.7c0.1-0.1,0.1-0.2,0.2-0.2c-1.9,7.2-4.7,12.5-7,14.4c-0.3,0.2-0.5,0.5-0.6,0.8
	c-0.5,0-1.1,0.1-1.6,0.2c-5.1,0.8-8.8,2.9-11.5,5.3c-0.1,0-0.2,0-0.2,0c-1.3-0.1-7.6-2-12.3-7.4c-0.2-0.3-0.5-0.6-0.7-0.9l0.7-0.5
	c0.7,0.9,1.5,1.6,2.5,1.9c0.4,0.1,0.9,0.2,1.3,0.2c1,0,1.9-0.3,2.7-0.9c2-1.4,3.2-4.2,3.6-8.4c0.2-2.1,0-4.1-0.6-5.8l1.1-0.4
	c0.3,0.8,0.5,1.5,0.7,2c0.2,0.6,0.7,1.1,1.3,1.4c0.8,0.5,2,0.8,3.3,1c-0.6,4.3-0.6,9.8,2.7,11c0.5,0.2,1,0.3,1.5,0.3
	c1,0,2-0.3,2.9-0.9c2.9-1.9,5-6.3,5.5-11.1C394.3,637.2,396,636.5,396.7,635.7z"/>
<path fill="#B7B7B7" d="M374.1,634.2l-1.1,0.4c-0.5-1.3-1.2-2.4-2-3.4c-1.7-1.8-4.2-2.7-6.9-2.5c-0.4,0-0.8,0.2-1.1,0.4
	c-0.5,0.2-0.9,0.5-1.1,0.9c-2.5,4.5-1.6,10.4,0.1,14.5c0.4,1,1,2.1,1.6,3l-0.7,0.5c-3.8-4.8-5.3-10.9-4.4-18
	c1.9-14.7,6.3-20.5,8.7-22.6c0.3,1,0.6,2.1,0.9,3.1c-0.1,0.1-0.1,0.1-0.2,0.2c-2.3,3.5-4.8,8.2-3.4,10.7c1.3,2.3,5.1,2.8,7,2.8
	C372.6,628.7,373.5,632,374.1,634.2z"/>
<path fill="#B7B7B7" d="M373.1,659.6c-0.7,0.9-1.3,1.8-1.8,2.6c-5.5-0.3-20.7-6.3-20-30.3c0.5-20,9.9-29.3,13.5-32.2
	c0.4,0.7,0.8,2,1.3,3.5c-3,1.9-9.1,7.9-11.5,26.2c-1.6,12.5,3.7,20.2,8.4,24.4C366.3,656.7,370.2,658.7,373.1,659.6z"/>
</svg>
