<?xml version="1.0" encoding="utf-8"?>
<!-- Generator: Adobe Illustrator 26.5.0, SVG Export Plug-In . SVG Version: 6.00 Build 0)  -->
<svg isCommex="true" version="1.1" id="Layer_1" xmlns="http://www.w3.org/2000/svg" xmlns:xlink="http://www.w3.org/1999/xlink" x="0px" y="0px"
	 width="1312px" height="869px" viewBox="0 0 1312 869" enable-background="new 0 0 1312 869" xml:space="preserve">
<g id="Layer_3">
	<g id="vs-skin">
		<path fill="#FACEBD" d="M535.9,214.5c0,0,3.6-4.1,7-4c1.4,0.1,2.6-1,2.6-2.4c0.1-1.4-1-2.6-2.4-2.6c-0.2,0-0.3,0-0.5,0
			c-5.6,0-10.1,5.2-10.6,5.8c-0.9,1.1-0.7,2.6,0.3,3.5C533.4,215.7,535,215.5,535.9,214.5z"/>
		<path fill="#FACEBD" d="M542.1,244.2l-0.3-0.2c-0.4-0.2-0.8-0.4-1.2-0.4c-0.3,0-0.6,0.1-1,0.2c-2.2,1-5.2,8-5.6,12.1
			c-0.3,2.8,0.5,4.8,2.1,6c1.2,0.9,2.8,0.9,4,0.1l0,0c3.4-2.1,5-10.2,4.2-14.3C544.1,246,543.3,244.8,542.1,244.2z"/>
		<path fill="#FACEBD" d="M567.4,256.9c1.2,0.9,2.7,0.9,4,0.1l0,0c3.4-2.1,5-10.2,4.3-14.3c-0.3-1.8-1.1-3-2.3-3.6l-0.2-0.2
			c-0.4-0.2-0.8-0.4-1.2-0.4c-0.3,0-0.6,0.1-1,0.2c-2.2,1-5.2,8-5.6,12.1C565.1,253.7,565.8,255.8,567.4,256.9z"/>
		<path fill="#FACEBD" d="M513.2,307.3c0.2,0.9,1,1.6,1.9,1.6c0.1,0,0.2,0,0.3,0c1.7-0.2,2-1.6,2-1.8l0,0c0.1-0.4,0.1-1.7-1.6-2.4
			c-0.3-0.1-0.5-0.2-0.8-0.2c-0.8,0-1.5,0.5-1.8,1.2C513,306.2,513,306.7,513.2,307.3L513.2,307.3z"/>
		<path fill="#FACEBD" d="M616.7,276.4c0.9,0.2,1.9-0.1,2.4-0.8c0.3-0.4,0.8-1.5-0.2-2.8c-0.4-0.5-1-0.8-1.6-0.8
			c-0.4,0-0.8,0.1-1.2,0.4c-0.6,0.4-0.9,1.1-0.8,1.8v0.1v0.1C615.1,275.3,615.7,276.2,616.7,276.4z"/>
		<path fill="#FACEBD" d="M410.2,329.7c-11.2-1.8-21.8,7.9-21.9,8c-1,0.9-1.1,2.5-0.2,3.5s2.5,1.1,3.5,0.1c0,0,7.6-6.9,15.6-6.9
			c0.7,0,1.4,0.1,2.2,0.2c4.4,0.7,8.1,3.9,11.1,9.3c0.6,1.2,2.2,1.7,3.4,1l0,0c0.6-0.3,1-0.8,1.2-1.5c0.2-0.6,0.1-1.3-0.2-1.9
			C421.1,334.7,416.2,330.7,410.2,329.7z"/>
		<path fill="#FACEBD" d="M569.6,207.6L569.6,207.6c0.1,0,0.1,0,0.2,0c1.2,0,5,0.6,7.5,4.3c0.7,1.1,2.4,1.4,3.5,0.7l0,0
			c0.6-0.4,0.9-0.9,1-1.6c0.1-0.7,0-1.3-0.4-1.9c-4.4-6.5-11.3-6.5-12-6.5c-1.4,0.1-2.4,1.2-2.4,2.6c0,0.7,0.3,1.3,0.8,1.7
			C568.3,207.4,568.9,207.7,569.6,207.6z"/>
		<path fill="#FACEBD" d="M613.1,314.8c3.8-15,1.2-31.5-6.4-39.9c-14.3-16-48.5,5-49.9,5.9c-0.6,0.3-1,0.9-1.1,1.5
			c-0.2,0.7,0,1.3,0.3,1.9c0.7,1.2,2.3,1.5,3.4,0.8c8.9-5.5,34-17.4,43.5-6.8c6.4,7.2,8.6,22.1,5.3,35.4
			c-1.8,6.9-6.5,19.2-18.8,23.6c-11.5,4.1-20.6,1.5-26.3-1.3c-7.1-3.7-10.8-8.8-11.2-10.2v-0.1c-0.2-1.2-1.2-2.1-2.4-2.1
			c-0.1,0-0.2,0-0.3,0c-0.7,0.1-1.3,0.4-1.7,1c-0.4,0.5-0.6,1.2-0.5,1.8c0.5,3.5,5.6,9.1,11.6,12.7c5.8,3.5,12.2,5.3,19,5.3
			c4.5,0,9.1-0.8,13.6-2.4C601.6,338.2,609.6,328.3,613.1,314.8z"/>
		<path fill="#FACEBD" d="M568.9,370.2c-5.6,1.8-11.5,2.6-17.3,2.6c-23.2,0-45.1-11.7-46.3-12.4c-0.3-0.2-0.6-0.3-1-0.3
			c-0.2,0-0.4,0-0.6,0.1c-0.5,0.1-0.9,0.5-1.2,1c-0.3,0.5-0.3,1-0.2,1.5c0.1,0.5,0.5,0.9,1,1.2c2.4,1.3,24.4,12.9,48.2,12.9
			c6.6,0,12.9-0.9,18.6-2.8c0.5-0.2,0.9-0.5,1.2-1c0.2-0.5,0.3-1,0.1-1.5C571,370.4,569.9,369.9,568.9,370.2z"/>
		<path fill="#FACEBD" d="M508.7,292.6l0.1,0.2c0.3,0.8,1,1.3,1.9,1.3c0.3,0,0.5,0,0.7-0.1l0,0c1.2-0.5,1.6-1.5,1.6-2.2
			c0-0.6-0.3-1.8-2.2-2.4c-0.2-0.1-0.4-0.1-0.6-0.1c-0.3,0-0.6,0.1-0.9,0.2c-0.5,0.2-0.8,0.6-1,1.2c-0.2,0.7-0.1,1.4,0.3,1.9H508.7z
			"/>
		<path fill="#FACEBD" d="M502.2,306c-0.4-0.6-1.1-0.9-1.9-0.9c-0.3,0-0.6,0-0.9,0.1c-1.1,0.3-1.7,1.4-1.3,2.5
			c0.1,0.3,0.3,0.6,0.5,0.8l0.1,0.1c0.1,0.2,0.3,0.4,0.5,0.5c0.3,0.2,0.7,0.4,1.2,0.4c0.6,0,1.2-0.3,1.6-0.8l0,0
			C503,307.4,502.4,306.3,502.2,306z"/>
		<path fill="#FACEBD" d="M865.5,451.9L865.5,451.9c-1-2.7-2.7-5.5-5-8.4c-2.9-3.5-7-6-12.2-7.6c-9.4-2.8-20.3-1.7-26.1-1.1
			l-0.6,0.1c-0.8,0.1-1.5,0.2-2,0.2c-2.7,0.2-7.5-0.1-13.1-0.5c-9-0.6-20.2-1.4-28.9-0.5c-0.8,0.1-1.5,0.1-2.3,0.2
			c-12.3,0.7-25.3-2.3-47-7.4l-3.4-0.8c-2.3-0.5-4.7-1.1-7.2-1.7c-9.6-2.2-18.1-3.9-25.2-4.9c-6-0.9-9.7-1.2-11.3-1.2h-0.9l-0.1,0.9
			c-0.1,1.3-0.2,2.9-0.2,4.6c0,3.8,0.4,10.8,3.4,14.9c0.1,0.2,0.2,0.4,0.3,0.7l0.2,0.6l0.6,0.1c29.4,5.6,55.6,10,78.1,6.6l6-0.9
			c23.6-3.7,42.2-6.6,60.7,1.9c11.4,5.2,18.8,12.2,21.3,20.2l0.3,0.8l0.9-0.1c7.1-1.2,11.9-3.9,13.9-7.6c0.1-0.3,0.3-0.5,0.4-0.8
			C866.6,457.6,866.6,454.9,865.5,451.9z"/>
		<path fill="#FACEBD" d="M826.9,452c-17.1-7.8-35.1-5-57.8-1.5l-6,0.9c-24,3.6-50.6-0.9-88.5-8.3c-2.4-0.5-4.9-1-7.4-1.4l-2.6-0.5
			c-4.3-0.9-8.9-1.7-14-2.6c-28.3-4.8-46.3-5.8-51.1-6h-0.3l-0.3,0.2c-2.1,1.4-7.4,5.9-12.1,17l-0.1,0.3
			c-1.7,12.3-3.1,38.2,3.4,48.5l0.3,0.7h0.6c1.5,0,3-0.1,4.7-0.1c4.3-0.1,9.7-0.3,18.1-0.1c1.7,0,3.5,0.1,5.5,0.2
			c63.1,2.6,107-2.4,122.9-4.6l1.8-0.3l-1.2-1.4c-3.1-3.6-5.4-6.4-5.7-6.8c-0.4-0.5-0.6-1.2-0.5-1.8c0.1-0.7,0.4-1.3,0.9-1.7
			s1.2-0.6,1.8-0.5c0.7,0.1,1.3,0.4,1.7,0.9c2.2,2.7,5.9,7,9.6,11.1c0.8,0.8,1.6,1.7,2.3,2.5l5.3,5.6l-3.7-6.7c-0.5-1-1.1-1.7-1.6-2
			c-1.1-0.8-1.4-2.3-0.7-3.5c0.8-1.1,2.3-1.4,3.5-0.7c3.2,2.2,5.5,8.3,8.4,17.6l0.1,0.1c0,0.1,0,0.1,0.1,0.3
			c0.8,2.6,1.6,5.6,2.6,8.8c2.4,8.3,5.1,17.8,8.3,25.7c2,5.1,4.1,9,6.2,11.9c2.3,3.2,5.2,6.1,8.7,8.7c6.9,5.2,15.2,8.4,21.6,8.4
			c0.5,0,1,0,1.5-0.1c0.8-0.1,2.9-0.3,4.2-1.4c0.3-0.3,0.6-0.6,0.8-1c4.1-8.3-3.2-18.1-7.9-23.2c-6.7-7.4-14.1-24.3-15.5-45.4
			c-0.1-1.1-0.1-2.2-0.2-3.4c-0.4-10.2,0-15.5,3-17.5c2.8-1.8,6-0.3,10.9,2l0.5,0.2c1.6,0.7,3.3,1.6,5.3,2.4
			c15.6,6.5,23.4,7.4,27.8,3.2c1.1-1,1.9-2.3,2.6-3.9c0.9-2.1,1.5-4.2,1.7-6.2C847.4,466.8,840.7,458.3,826.9,452z"/>
		<path fill="#FACEBD" d="M600.7,379.2c9.6-19.2,16.7-41.7,20.5-65.1c1.7-10.4,2.7-20.9,3.1-31.3c0.3-9.3,0.6-17.9,0.7-25.6
			c0.4-27.3-0.7-44.9-3.5-60.7c-1.3-7.2-2.9-13.6-4.8-21l-0.4-1.6c-0.4-1.7-0.9-3.5-1.3-5.4l-0.1-0.3l-0.2-0.2
			c-21.4-18.7-81.2-12.9-87.9-12.1h-0.2l-0.2,0.1c-13.8,8.6-29.4,20.6-45.2,34.6c-25.4,22.5-43.3,42.9-47.3,50.8l-0.1,0.2
			c-2.7,12.2,0.8,58.5,2.5,75.4c0.1,1.3-0.8,2.5-2.1,2.7l-1.4,0.2l-0.2,0.2c-0.1,0.1-0.2,0.1-0.3,0.2c-0.6,0.4-1.2,0.5-1.9,0.3
			c-0.7-0.2-1.2-0.6-1.6-1.1c-0.6-1-15.6-24.7-35.4-12.5c-3.2,2-6.2,4.5-8.8,7.5c-6.8,7.8-10.6,17.9-10.5,27.7
			c0.2,12.6,7,23.3,19,30.3l0.1,0.1c8.9,3.6,17.4,3.9,25.4,0.8h0.1c0.1-0.1,0.2-0.1,0.3-0.1l0.2-0.1c12-4.9,18.6-15.8,18.8-16.3
			c0.7-1.2,2.2-1.6,3.4-0.9c0.6,0.3,1,0.9,1.2,1.5s0.1,1.3-0.3,1.9c-0.1,0.1-6.5,10.9-18.6,17l-0.8,0.4l0.3,0.8
			c1.6,4.2,5.3,12.6,11.7,22.2c6.3,9.4,13.6,17.5,21.8,24.1c0.5,0.4,0.8,0.9,0.9,1.4l0.2,0.8h0.8c2.7,0,66,0.9,98.1,1.3h0.2l0.2-0.1
			c11.2-4,22.8-14.5,33.4-30.5C594.1,391.6,597.5,385.6,600.7,379.2z M615.2,274.3L615.2,274.3v-0.2c-0.1-0.7,0.3-1.4,0.8-1.8
			c0.4-0.3,0.8-0.4,1.2-0.4c0.6,0,1.2,0.3,1.6,0.8c1,1.4,0.5,2.4,0.2,2.8c-0.5,0.7-1.5,1.1-2.4,0.8
			C615.7,276.2,615.1,275.3,615.2,274.3z M425.1,343.5c-0.2,0.6-0.6,1.2-1.2,1.5l0,0c-1.2,0.6-2.8,0.2-3.4-1
			c-3-5.5-6.7-8.6-11.1-9.3c-0.7-0.1-1.4-0.2-2.2-0.2c-8,0-15.5,6.8-15.6,6.9c-1,0.9-2.6,0.9-3.5-0.1s-0.9-2.6,0.2-3.5
			c0.1-0.1,10.7-9.8,21.9-8c6,1,11,5,14.7,11.9C425.2,342.2,425.3,342.9,425.1,343.5z M569.4,202.6c0.8,0,7.6,0,12,6.5
			c0.4,0.5,0.5,1.2,0.4,1.9s-0.5,1.2-1,1.6l0,0c-1.1,0.8-2.7,0.4-3.5-0.7c-2.5-3.7-6.3-4.3-7.5-4.3c-0.1,0-0.1,0-0.2,0l0,0
			c-0.7,0-1.3-0.2-1.8-0.7s-0.8-1.1-0.8-1.7C566.9,203.9,568,202.7,569.4,202.6z M565.3,251c0.4-4.1,3.3-11.1,5.6-12.1
			c0.3-0.1,0.6-0.2,1-0.2s0.8,0.1,1.2,0.4l0.2,0.2c1.2,0.6,2,1.8,2.3,3.6c0.7,4.1-0.9,12.1-4.3,14.3l0,0c-1.3,0.8-2.8,0.8-4-0.1
			C565.8,255.8,565.1,253.7,565.3,251z M532.1,211.3c0.5-0.6,5-5.8,10.6-5.8c0.2,0,0.3,0,0.5,0c1.4,0.1,2.4,1.3,2.4,2.6
			c-0.1,1.4-1.3,2.4-2.6,2.4c-3.4-0.2-7,3.9-7,4c-0.9,1-2.5,1.2-3.5,0.3C531.3,213.9,531.2,212.4,532.1,211.3z M540.2,262.1
			L540.2,262.1c-1.2,0.8-2.7,0.8-4-0.1c-1.6-1.1-2.3-3.2-2.1-6c0.4-4.1,3.3-11.1,5.6-12.1c0.3-0.1,0.6-0.2,1-0.2s0.8,0.1,1.2,0.4
			l0.3,0.2c1.2,0.6,2,1.8,2.3,3.6C545.1,252,543.5,260,540.2,262.1z M513.2,305.7c0.3-0.8,1.1-1.2,1.8-1.2c0.3,0,0.5,0.1,0.8,0.2
			c1.7,0.7,1.7,2,1.6,2.4l0,0c0,0.3-0.3,1.6-2,1.8c-0.1,0-0.2,0-0.3,0c-0.9,0-1.8-0.7-1.9-1.6v-0.2
			C512.9,306.7,512.9,306.2,513.2,305.7z M508.2,290.6c0.2-0.5,0.5-0.9,1-1.2c0.3-0.1,0.6-0.2,0.9-0.2c0.2,0,0.4,0,0.6,0.1
			c1.8,0.6,2.1,1.8,2.2,2.4c0,0.8-0.4,1.7-1.6,2.2l0,0c-0.2,0.1-0.5,0.1-0.7,0.1c-0.8,0-1.6-0.5-1.9-1.3l-0.1-0.2l-0.1-0.1
			C508.1,291.9,508,291.2,508.2,290.6z M502,308.8c-0.4,0.5-1,0.8-1.6,0.8c-0.4,0-0.9-0.1-1.2-0.4c-0.2-0.2-0.4-0.3-0.5-0.5
			l-0.1-0.1c-0.2-0.2-0.4-0.5-0.5-0.8c-0.3-1.1,0.3-2.2,1.3-2.5c0.3-0.1,0.6-0.1,0.9-0.1c0.8,0,1.4,0.3,1.9,0.9
			C502.4,306.3,503,307.4,502,308.8L502,308.8z M571.2,373c-0.2,0.5-0.7,0.8-1.2,1c-5.7,1.8-11.9,2.8-18.6,2.8
			c-23.7,0-45.7-11.6-48.2-12.9c-0.5-0.3-0.8-0.7-1-1.2c-0.1-0.5-0.1-1.1,0.2-1.5c0.3-0.5,0.7-0.8,1.2-1c0.2-0.1,0.4-0.1,0.6-0.1
			c0.3,0,0.7,0.1,1,0.3c1.1,0.6,23.1,12.4,46.3,12.4c5.8,0,11.7-0.7,17.3-2.6c1-0.3,2.2,0.2,2.5,1.3
			C571.5,372,571.5,372.5,571.2,373z M558.6,339c-6-3.6-11.1-9.2-11.6-12.7c-0.1-0.7,0.1-1.3,0.5-1.8s1-0.9,1.7-1c0.1,0,0.2,0,0.3,0
			c1.2,0,2.2,0.9,2.4,2.1v0.1c0.4,1.4,4,6.5,11.2,10.2c5.6,2.9,14.7,5.4,26.3,1.3c12.2-4.4,17-16.7,18.8-23.6
			c3.4-13.3,1.2-28.2-5.3-35.4c-9.5-10.7-34.7,1.3-43.5,6.8c-1.2,0.7-2.7,0.4-3.4-0.8c-0.4-0.6-0.5-1.2-0.3-1.9
			c0.2-0.6,0.5-1.2,1.1-1.5c1.4-0.9,35.6-21.8,49.9-5.9c7.6,8.5,10.2,24.9,6.4,39.9c-3.4,13.5-11.4,23.3-22,27.1
			c-4.5,1.6-9.1,2.4-13.6,2.4C570.7,344.3,564.4,342.5,558.6,339z"/>
		<path fill="#FACEBD" d="M820.3,574.2l-0.5-0.5l-0.6,0.4c-1.6,0.9-3.5,1.5-5.8,1.7c-0.5,0-1.1,0.1-1.8,0.1c-3,0-6.4-0.6-9.9-1.7
			l-4-1.3l3,2.9c3.3,3.3,6.8,5.8,10.2,7.6c3.6,1.9,6.8,2.8,9.6,2.8c3.3,0,6-1.3,8.3-3.8l0.7-0.8l-0.9-0.6
			C825.7,578.6,822.9,576.4,820.3,574.2z"/>
		<path fill="#FACEBD" d="M639.4,304c6.9-9.5,9.5-24.9,5.8-34.4c-4.4-11.5-12.2-10.6-14.5-10l-0.7,0.2v0.8
			c-0.1,7.2-0.4,14.8-0.6,22.4c-0.3,9.3-1.2,18.7-2.6,27.9l-0.2,1.4l1.4-0.2C632.2,311.2,636.1,308.5,639.4,304z"/>
	</g>
	<g>
		<path fill="#A3A2A3" d="M1206.1,521.2L1206.1,521.2c-3.2-1.7-6.8-2.3-9.2-2.6l-0.7-0.1l-0.3,0.7c-3.3,7.5-8.6,11.2-14.6,15.4
			c-1.1,0.8-2.2,1.6-3.4,2.4c-6,4.4-20.2,14.3-31.1,21.8c-17.1,11.8-37,25.5-45.1,31c-1.4,1-3.3,2.3-5.6,3.8l-12.5,8.7
			c-20.5,14.2-45.9,31.4-60.4,38.5l-0.3,0.1l-0.2,0.3c-4.5,7.9-15.3,28.4-19.4,48.4l-0.4,2.2l1.9-1.2
			c23.6-14.1,207.1-141.6,215.7-150l0.2-0.2l0.1-0.3C1221.7,536.6,1211.7,524.3,1206.1,521.2z"/>
		<path fill="#A3A2A3" d="M1014,640.3h0.2h0.1c0.1,0,0.2-0.1,0.3-0.1l0.2-0.1c3.8-1.1,7-3.8,9.2-7.7c5.3-9.5,4.6-25.6-1.9-45.2l0,0
			c-3.1-9.3-7.3-16.7-12.6-21.9l-0.8-0.8l-0.7,0.8c-11.1,12.6-26.2,30-32.3,37.6l-0.3,0.4l0.1,0.5c0.4,1.7,0.9,3.3,1.5,5
			c2.6,8.3,6.2,15.2,10.5,20.4c6.2,7.4,14.1,11.5,21.9,11.5C1010.9,640.8,1012.5,640.6,1014,640.3z"/>
	</g>
	<g>
		<path fill="#D2E5FF" d="M963.8,509.4l0.5,0.1c0-0.1,0-0.2,0-0.2L963.8,509.4z"/>
		<path fill="#D2E5FF" d="M1041.1,421.5h-0.8c-5.4,0-11.4,0.7-15.4,5.9c-1.9,2.4-2.3,5.2-1.2,7.3c1.5,2.9,5.7,4.4,11.7,4.4
			c0.9,0,1.9,0,2.9-0.1c8.2-0.6,12.5-5.7,12.4-10.2C1050.6,424.5,1047,421.7,1041.1,421.5z"/>
		<path fill="#D2E5FF" d="M1011,410.5c1.1,0.4,2.2,0.5,3.3,0.5c4.6,0,9-2.9,11.7-6.4c0.8-1,1.5-2.1,2-3.2c1.3-2.6,3.4-9.3-3.9-14
			l0,0c-2.3-1.4-4.8-2.2-7.1-2.2c-2.2,0-4.1,0.7-5.8,2c-2.1,1.8-5,7-5.9,11.9c-0.3,1.9-0.4,3.7-0.1,5.1
			C1005.8,407.3,1007.7,409.4,1011,410.5z"/>
		<path fill="#D2E5FF" d="M881.6,433.4c1,0.3,2.1,0.4,3.2,0.4c3.7,0,8-1.5,10.9-5.1l0.6-0.7l-0.6-0.6c-1.6-1.7-2.9-3.3-4.2-5.3
			l-2.7-5.1c-0.8-1.7-1.4-3.4-2-5.2l-0.4-1.3l-1.1,0.8c-3.7,2.6-8.3,6.9-9.1,13c-0.1,0.6-0.1,1.2-0.1,1.8
			C876.1,429.7,878.1,432.3,881.6,433.4z"/>
		<path fill="#D2E5FF" d="M963.8,509.4l0.5-0.2c0,0.1,0,0.1,0,0.2H963.8z"/>
	</g>
	<g>
		<path fill="#FFC400" d="M1023,461.3c-7.9-2.5-16.9-3.9-21.5-4.5l-0.5-0.1l-0.4,0.4c-0.8,0.9-1.7,1.7-2.6,2.4
			c-1,0.7-1.9,1.5-3.1,2.3l-1.8,1.2l2.1,0.6c0.8,0.2,1.6,0.5,2.5,0.9c3.5,1.5,6.6,3.3,8.9,5.3l0.7,0.6l0.7-0.6
			c2-1.8,6.4-4.6,14.1-2.7l1.1,0.3l0.1-1.2c0.1-1.3,0.3-2.6,0.4-3.7l0.1-0.8L1023,461.3z"/>
		<path fill="#FFC400" d="M909.2,451l-0.2-0.7h-0.7c-14.9-0.3-29.2,1.1-36.4,1.9l-1.1,0.1l0.2,1.1c0.3,1.6,0.4,3.2,0.2,4.7l-0.1,1.4
			l1.3-0.3c8.1-1.7,14.3,1.4,17.3,3.3l0.5,0.3l0.5-0.3c9.1-5.6,18.6-1.5,21.3-0.1l3.6,1.8l-2.3-3.3
			C911.7,458.3,910.6,455.4,909.2,451z"/>
	</g>
	<path fill="#FFB549" d="M881.5,602.4c-4.7-5.4-12.2-14.9-21.6-29.9c-12.6-24.6-13.2-38.7-12.5-44.9l0.1-0.8l-0.7-0.3
		c-21.9-8.2-37.6-17.6-45.1-22.5l-1.8-1.2l0.3,2.1c2.3,18.5,8.8,31.4,13.7,36.7c9.4,10.3,12.6,20.3,8.9,28.3l-0.3,0.7l0.6,0.5
		c2.3,1.9,6,5,10.9,8.4c10.3,7.4,26.7,17.6,46.5,24.3l3.5,1.2L881.5,602.4z"/>
	<path fill="#FF9800" d="M1003.4,536.4c-12.3,2.5-33.1,5.6-61.6,5.6c-9,0-18.3-0.3-27.6-0.9c-22.7-1.4-45.4-6.3-67.4-14.5l-1.2-0.4
		l-0.2,1.3c-0.8,6.4-0.1,21,12.7,46.2c9.5,15.1,17.1,24.8,21.8,30.2l0.2,0.2l0.3,0.1c11.2,3.8,22.4,6.2,33.2,7
		c6,0.5,11.5,0.7,16.5,0.7c24,0,36.1-4.6,40.6-6.9l0.7-0.4l-0.2-0.8c-5.7-22.7-2.8-42.8,6.9-48.8c0.7-0.4,1.6-1,2.7-1.7l0.2-0.1
		c4.5-2.8,12-7.7,23.1-14.8l4.5-2.9L1003.4,536.4z"/>
	<g>
		<path fill="none" d="M901.1,396.8c-1.3-1-2.7-1.1-4.2-0.3c-1.5,1.3-2,5.9-0.5,8.9c0.8,1.7,2.1,2.6,3.8,2.6c0.3,0,0.6,0,0.9-0.1
			c1.8-0.3,2.5-1.7,2.8-2.8C904.7,402.4,903.4,398.5,901.1,396.8z"/>
		<path fill="none" d="M980.3,414.9c0.1,0,0.3,0,0.4,0c1,0,1.9-0.5,2.5-1.3c0.9-1.4,1-3.6,0.2-5.1l0,0c-0.5-1-1.4-1.5-2.5-1.5
			c-0.1,0-0.2,0-0.2,0c-2.2,0-3.4,1.9-3.6,3.7C977,412.1,977.6,414.6,980.3,414.9z"/>
		<path fill="none" d="M912.9,474.3L912.9,474.3L912.9,474.3h-0.2c-1.2,0-2,1-2.2,1.9c-0.1,0.5-0.1,1.7,1.9,2.2
			c0.9,0.2,1.7,0,2.2-0.6c0.6-0.7,0.6-1.9,0.2-2.6C914.4,474.6,913.8,474.2,912.9,474.3z"/>
		<path fill="none" d="M994.1,444.5h-0.2c-0.1,0-0.2,0-0.3,0c-0.6,0-1.1,0.5-1.3,1.2c-0.3,1,0.1,2.3,1.5,2.7c0.6,0.2,1.1,0,1.5-0.4
			c0.6-0.7,0.7-1.8,0.3-2.6C995.3,444.6,994.6,444.5,994.1,444.5z"/>
		<path fill="#C4DDFF" d="M888.6,357.7L888.6,357.7c-1-4-3.6-8-8.3-7.1l-0.3,0.1c-2.4,1.2-3.1,5.7-1.6,10.3c1.1,3.4,3.4,6.8,6.2,6.8
			c0.3,0,0.6,0,0.8-0.1C888.7,367,889.6,361.9,888.6,357.7z"/>
		<path fill="#C4DDFF" d="M995.4,447.9c-0.4,0.4-0.9,0.6-1.5,0.4c-1.4-0.4-1.8-1.7-1.5-2.7c0.2-0.8,0.7-1.2,1.3-1.2
			c0.1,0,0.2,0,0.3,0h0.2c0.5,0,1.2,0.2,1.6,0.9C996.1,446.2,995.9,447.3,995.4,447.9z"/>
		<path fill="#C4DDFF" d="M964.9,459.6l-1.7-0.7l-0.2-1.3c-0.1-0.9,0.3-1.7,1.1-2.1l1.8-1l-0.2-0.8c0-0.1-0.1-0.2-0.1-0.4
			c-1.4-9,2.1-12.6,7.5-18.1c1.6-1.6,3.5-3.5,5.4-5.8c6.8-7.8,11.1-20.2,9.3-26.6l0,0c-0.6-2-1.7-3.2-3.5-3.8
			c-2.2-0.7-4.3-0.4-6.4,0.8c-5.1,3-9.2,11.2-10.7,17.9c-1.6,7.1-3.5,9-5,9.8l-0.6,0.3l0.1,0.7c0.3,2.3,0.5,4.1,0.8,5.7
			c0.2,1.1-0.6,2.1-1.7,2.3c-1.2,0.2-2.1-0.6-2.3-1.7c-0.4-2.4-0.8-5.2-1.1-8.4c-0.8-7.7-1.4-17.6-1.9-29.6
			c-0.3-9-0.5-17.4-0.6-22.8c-0.1-4.3-0.1-7.8-0.1-10.1v-1.4l-1.2,0.2c-1.7,0.3-3.4,0.5-5.1,0.5h-0.9v0.9c-0.1,1.1-0.1,1.9-0.2,2.5
			c-0.4,2.6-1,8.5-1.7,15.9l-0.2,1.7c-2.1,20.7-5.3,51.9-8.4,62.1l-0.2,0.5l0.3,0.4c0.8,1,1.4,1.7,1.7,2l0.1,0.2
			c0.4,0.4,0.5,0.9,0.5,1.4s-0.3,1-0.7,1.4s-0.9,0.5-1.4,0.5s-1-0.3-1.4-0.7c0,0-2.5-2.8-5.7-7c-2.4-3.1-5.8-7.9-8.5-12.8
			c-3.3-6-5.1-12.6-6.8-19.1c-0.3-1.2-0.6-2.3-0.9-3.5c-0.8-2.9-1.9-6.7-3.3-10.3c-1.1-2.6-2.5-5-4.1-7c-2.2-2.6-4.7-4.5-7.2-5.3
			c-2.4-0.8-4.5-0.7-6.4,0.4c-2.4,1.4-3.9,4.7-4.3,9.4c-0.3,3.2,0,6.8,0.8,10.4c0.7,3.3,1.9,6.5,3.4,9.5c0.2,0.3,0.3,0.7,0.5,1
			c2.7,4.8,5.3,7.2,7.7,9.3c3.2,2.9,6.6,5.9,9,13.7c0.7,2.3,1.3,4.3,1.8,6.1l0.1,0.4c0.1,0.2,0.1,0.4,0.2,0.6
			c2.4,8,3.5,10.9,8.7,14.9l0.1,0.1l0.3,0.3h0.4c3,0.1,5.5,0.4,7,0.6l0.6,0.1c0.1,0,0.2,0,0.2,0h0.1c1.1,0,1.9,0.9,1.9,2s-0.9,2-2,2
			c-0.2,0-0.4,0-1.2-0.1c-3.2-0.4-6.2-0.6-8.8-0.6c-4.5-0.1-8.1,0.4-10.7,1.3c-3.5,1.3-5.1,4.4-5.5,6.9c-0.4,2.9,0.8,5.6,3,7.1
			c1.6,1.1,3.4,1.5,5.3,1.5c3.7,0,7.9-1.6,11.7-3l0.7-0.3c0.9-0.3,1.8-0.7,2.6-0.9c0.4-0.1,0.7-0.1,1.1,0l0.6,0.2
			c0,0,2.1,1.2,0.6,2.7s-3.4,1.8-3.4,1.8l-1.7,0.6c-4,1.5-8.3,3-12.4,3c-2.9,0-5.3-0.7-7.5-2.2c-3.6-2.4-5.3-6.5-4.8-11
			c0.6-4.4,3.2-8.1,7.2-9.8l2.5-1.1l-2.6-0.8c-4.1-1.2-10.1-1.7-15.7,2.4c-0.2,0.1-0.4,0.3-0.6,0.4c-0.6,0.5-1.6,0.4-2.1-0.2
			c-0.2-0.2-0.3-0.4-0.3-0.7l-0.1-0.5l-0.4-0.2c-3-1.9-9.3-4.6-17.2-1.9c0,0-6,10.4-18.3,10.5l-0.8,0.1v0.8c0,0.2,0,0.3,0,0.5
			l-0.1,0.8l-0.3,2.9l-0.3,1.2c-0.4,1.6-0.9,3.3-1.6,4.9c-0.5,1.1-1,2.2-1.6,3.1l-0.6,1l-2.3,2.3l-0.4,0.3c-4.5,3.3-11,3.7-19.8,1.1
			l-6.9-2l6.1,3.8c9.8,6.1,22.5,11.3,37.9,15.5l36,7.3l0.9,0.1c11.4,1.5,23.3,2.3,35.5,2.3c7.7,0,15.5-0.3,23.5-0.9l0.7-0.1
			l28.8-3.6l1-0.2c2.2-0.4,4.3-0.8,6.3-1.1c0,0,24.8-5.9,26.7-6l1.5-23.7c0.2-4.5,0.5-8.8,0.8-12.7l0.1-0.8l-0.8-0.2
			c-9.6-2.8-13,2.6-13.4,3.3c-0.2,0.5-0.7,0.8-1.2,0.8h-0.1c-0.5,0-1-0.2-1.2-0.6l-0.3-0.4h-0.1c-0.9-1-3.7-3.6-9.2-5.9
			c-2.8-1.2-5.5-1.7-8.1-1.5h-0.2l-0.2,0.1c-0.3,0.2-0.6,0.3-0.9,0.5c-4.5,2.3-8.3,4.3-12.9,9.4c-0.2,0.2-0.5,0.4-0.8,0.5
			c0,0-0.4,0.1-0.5,0.2c-2.4,0.1-2.6-1.9-2.1-3.1l2.6-2.6l1.3-1.2c2.8-2.5,5.4-4,7.6-5.2h0.1l0.2-0.2l0.4-0.2v-0.1
			c0.1,0,0.2-0.1,0.3-0.1h0.1l0.2-0.1c0.5-0.3,1.1-0.6,1.6-0.9c3.2-1.7,6.5-3.4,10.3-6.4c1.1-0.9,2.1-1.9,3-3
			c3.2-4.1,4.7-9.7,3.5-13.4l0,0c-0.7-2.3-2.3-3.5-4.7-3.7c-4.8-0.2-7.4,2.9-11.2,8c-2.1,2.8-4.2,5.8-7.2,7.6c-3.3,2-7,4.1-10.7,6.1
			l-2.9,1.5L964.9,459.6z M977.2,410.7c0.2-1.8,1.3-3.7,3.6-3.7c0.1,0,0.2,0,0.2,0c1.1,0,1.9,0.5,2.5,1.5l0,0
			c0.8,1.5,0.7,3.7-0.2,5.1c-0.6,0.9-1.4,1.3-2.5,1.3c-0.1,0-0.3,0-0.4,0C977.6,414.6,977,412.1,977.2,410.7z M904,405.2
			c-0.3,1.1-1,2.5-2.8,2.8c-0.4,0.1-0.7,0.1-0.9,0.1c-1.7,0-3-0.9-3.8-2.6c-1.5-3-1-7.6,0.5-8.9c1.4-0.8,2.9-0.7,4.2,0.3
			C903.4,398.5,904.7,402.4,904,405.2z M914.6,477.9c-0.5,0.6-1.3,0.8-2.2,0.6c-2-0.5-2-1.7-1.9-2.2c0.2-0.9,1-1.9,2.2-1.9h0.1h0.1
			h0.1c0.9-0.1,1.6,0.3,1.9,0.9"/>
	</g>
	<path fill="#ADCFFF" d="M938.1,655.1c-16.2-3.1-31.9-0.1-39,4.5l0,0c-1.9,1.3-4.3,3.3-4.8,6.1c-0.4,2.6,0.1,4.7,1.4,6.4
		c2.7,3.5,8.3,4,8.3,4c0.2,0,0.3,0.1,0.4,0.1l0.5,0.2l0.4-0.2c0.4-0.2,0.8-0.5,1.3-0.7l0.5-0.3c6.6-3.6,17.1-9.8,31.2-18.3l2.2-1.3
		L938.1,655.1z"/>
	<g>
		<path fill="none" d="M1022.6,425.6c-2.6,3.4-3.2,7.3-1.5,10.5c1.2,2.2,4.7,6,14.4,6c1.1,0,2.1,0,3.1-0.1
			c10-0.7,15.3-7.4,15.2-13.3c-0.1-4.9-4-10-12.5-10.2c-0.3,0-0.7,0-1,0C1035.8,418.5,1027.7,419,1022.6,425.6z"/>
		<path fill="#D2E5FF" d="M1028.7,408.2c-0.2,0-0.4-0.1-0.6-0.2l-0.7-0.4l-0.5,0.6c-4.8,5-11.4,7.1-16.9,5.2
			c-4.3-1.4-6.9-4.4-7.7-8.6c-0.2-1.1-0.3-2.2-0.2-3.3v-1h-1c-1.4,0-5.1-0.1-8.6-0.2l-1.4-0.1l0.5,1.6c0,0.1,0.1,0.2,0.1,0.3
			c2.4,8.4-3.3,22.4-10.1,30.3c-2.1,2.4-3.9,4.3-5.7,6c-4.7,4.8-7.1,7.2-6.6,12.9l0.1,1.5l1.3-0.8c2.2-1.2,4.3-2.4,6.2-3.6
			c2.3-1.4,4.1-3.9,6.1-6.5c3.4-4.7,7.4-10,14.6-9.6c4.1,0.2,7.1,2.6,8.3,6.5c1.2,3.8,0.6,8.6-1.6,13.1l-0.6,1.2l1.4,0.2
			c4.8,0.7,11.9,2,18.5,4l1,0.3l0.3-1c0-0.2,0.1-0.3,0.1-0.5c0.1-0.2,0.1-0.3,0.2-0.4c3.2-5.7,10.4-7,16-5.5c4.4,1.3,7.5,4.2,8.4,8
			c0.2,0.9,0.3,1.8,0.2,2.8c0,1-0.1,2.5-0.2,4.6v0.5l0.4,0.3c5.5,4.4,9.1,8.5,9.8,11.3c0.8,3.1,1.2,14.7-0.5,23.8l-0.4,2.2l9-5.7
			v-0.5c0.5-15.4,1.4-46.5,2.5-81.7v-0.9L1028.7,408.2L1028.7,408.2z M1041.2,418.5c8.5,0.3,12.4,5.3,12.5,10.2
			c0.1,5.9-5.2,12.5-15.2,13.3c-1,0.1-2,0.1-3.1,0.1c-9.7,0-13.2-3.8-14.4-6c-1.7-3.2-1.2-7.1,1.5-10.5c5.1-6.6,13.3-7.1,17.6-7.1
			C1040.6,418.5,1040.9,418.5,1041.2,418.5z"/>
		<path fill="#D2E5FF" d="M607,606.9c7.5-3.4,64.5-26.1,160.7-63.8l2.2-0.9l-0.4-0.9c-2.9-7.5-5.3-16.2-7.5-23.8l-0.3-1.2
			c-0.6-2.1-1.2-4.3-1.9-6.5l-0.1-0.3l-0.3-0.2c-2.7-1.9-6.5-5.4-10.9-10.1l-0.4-0.4l-0.5,0.1c-6.3,1-40.4,6.1-93.7,6.1
			c-11.5,0-23.2-0.2-34.8-0.7c-0.7,0-1.4-0.1-2.1-0.1h-1.1l-0.3,0.7c-5.1,13.1-13.1,21.6-21.3,22.7H594l-0.2,0.2
			c-0.2,0.2-0.4,0.3-0.7,0.5c-0.4,0.2-1.4,0.4-4.2,0.4c-5.3,0-14.5-0.9-27.4-2.7c-2-0.3-4-0.6-6.1-0.9l-0.5-0.1l-0.3,0.3
			c-0.2,0.2-0.4,0.3-0.6,0.3c-0.1,0-0.8,0.3-2.1,0.8c-33.7,12-92.2,32.9-104.2,37.7c-11,4.4-17.9,9.4-18.6,13.5
			c-0.1,0.6-0.4,2.4,2.3,4.7c4.6,3.9,15.6,6.1,37.7,10.4l0.5,0.1c16.2,3.2,38.5,7.5,69.3,14.6c13.4,3.1,31.2,7.3,53,12.4l0.8,0.2
			l0.3-0.8C593.9,617,597,611.5,607,606.9z"/>
		<path fill="#D2E5FF" d="M1265.9,451.8L1265.9,451.8c-0.8-2.9-3.6-5.2-7.9-6.5c-9.6-2.8-100.3-16.1-127.8-20.1l-1.9-0.3l0.8,1.7
			c4.4,8.9,8.6,17.5,11.9,24.3l0.4,0.9l0.9-0.5c1.6-0.8,7.1-3.5,12-5.2c0.2-0.1,0.3-0.1,0.5-0.1c4.1-0.4,10.4,1.3,16.5,4.3
			c4.4,2.2,8.5,5,12.1,8.2c7.1,6.3,15.7,17.3,16.2,33.7c0.1,2.3,0.1,4.5,0,6.5l-0.1,1.8l1.6-0.9c21.1-12.8,57.9-35.5,61.9-39.5
			C1265.6,457.6,1266.6,454.5,1265.9,451.8z"/>
		<path fill="#D2E5FF" d="M1113.4,443l-1.8-3.5l-0.1,3.9c-0.3,9.2-0.5,17.9-0.8,25.9l-0.1,1.8l13.3-7.6l-0.4-0.8
			C1120.3,456.4,1116.5,449,1113.4,443z"/>
		<path fill="#D2E5FF" d="M973.1,610l-0.5-1.7l-1,0.5c-5.4,2.5-18.1,6.8-41.4,6.8c-5.3,0-11-0.2-16.8-0.7c-33-2.4-61.2-17.6-79-30
			l-0.8-0.5l-0.6,0.7c-5.8,7-14.2,7.9-24.3,2.7c-11.8-6.1-19.8-18-22-21.5l-0.1-0.2l-0.1-0.1c-3.6-2.8-6.7-6-9.2-9.5
			c-2-2.8-3.9-6.3-5.8-10.7L771,545l-0.9,0.4c-6.1,2.4-149.5,58.6-161.8,64.3c-7.8,3.6-10.9,7.7-12.1,9.9l-0.6,1.2l1.3,0.3
			c22.1,5.2,47,11.1,72.5,17.1l0.9,0.2c82.3,19.4,167.4,39.5,184.1,42.8c11.1,2.2,18.5,3.5,24.9,3.5c6.6,0,12.1-1.5,19.5-5l2-1
			l-2.1-0.9c-2.3-0.9-4.1-2.2-5.3-3.8c-1.9-2.3-2.6-5.3-2-8.7c0.5-3.1,2.6-5.9,6.1-8.2c10.2-6.6,30.1-8.2,46.4-3.7l0.4,0.1l0.4-0.2
			c15.9-9.5,31.5-19,37.4-22.7l0.9-0.6l-0.6-0.9C978.6,624,975.5,617.5,973.1,610z"/>
		<path fill="#D2E5FF" d="M960.8,419l0.4,5.7l1.5-5.5c0.2-0.6,0.3-1.3,0.5-2c1.2-5.2,4.3-13.1,9.2-17.9l2-1.9l-2.8,0.2
			c-4.6,0.3-7.4,0.6-9.2,0.7l-2.9,0.2v1C960,406.9,960.4,413.5,960.8,419z"/>
		<path fill="#D2E5FF" d="M925.4,430.5c1.2,2.2,2.7,4.6,4.5,7.2l1.7,2.4l1.8-35.1l-14.9,5.3l0.5,1.9
			C920.7,418.8,922.3,425,925.4,430.5z"/>
		<path fill="#D2E5FF" d="M864.3,440.3c2.4,2.9,4.1,5.7,5.3,8.4l0.3,0.7l0.7-0.1c7.1-0.8,21.1-2.2,36.1-2.1h1.4l-0.4-1.3
			c-0.3-1.1-0.7-2.4-1.1-3.7c-2-6.2-4.3-8.7-7.4-11.5l-0.8-0.7l-0.7,0.8c-4,4.7-11.1,7.1-17,5.4c-4.4-1.3-7.2-4.6-7.7-9.1l-0.1-1.3
			l-1.2,0.4c-2.8,1-7.3,2.5-12.1,4.2l-5.8,2l2.1,1.1C859.3,435.3,862.1,437.6,864.3,440.3z"/>
	</g>
	<g>
		<path fill="#E0DB80" d="M596,504.1h-0.2l0,0c-5.3,0.2-9.1,0.3-14.9-0.5l-1.3-0.2l0.2,1.3c1.7,10.1,5.6,16.5,10.9,17.6
			c0.5,0.1,0.9,0.2,1.4,0.2l0,0c0.1,0,0.1,0,0.2,0c4.9,0,12.1-4.5,17.7-17.2l0.6-1.4h-1.5C603.4,503.9,599.5,504,596,504.1z"/>
		<path fill="#E0DB80" d="M690.4,412.8c-0.1-1-0.6-4.5-1.5-5.7l-0.1-0.1l-0.1-0.1c-0.2-0.1-0.4-0.3-0.7-0.4l-0.6-0.2l-0.5,0.4
			l-0.1,0.1c-0.1,0.1-2.3,1.6-4.6,5l-0.9,1.4l1.7,0.1c1.9,0.1,4,0.3,6.3,0.6l1.3,0.2L690.4,412.8z"/>
	</g>
	<g>
		<path fill="#E6074D" d="M557.6,432.5c-0.4,0.1-0.9,0.1-1.4,0h-0.3c-30.5-0.4-87.3-1.1-100.7-1.3h-2.9c-0.6,0-0.9,0-1,0
			c-1.4,0-2.5-1.2-2.5-2.5c0-0.8,0.4-1.6,1.1-2.1l1.1-0.7l-1-0.9c-5.9-5.3-11.4-11.3-16.3-18l-0.9-1.2L432,407
			c-4.8,7.6-13.6,22.9-19.2,40.4v0.1c-2.3,7.2-3.8,14-4.6,20.4c-0.1,1.3-1.2,2.2-2.5,2.2c-0.1,0-0.2,0-0.3,0
			c-0.7-0.1-1.3-0.4-1.7-0.9s-0.6-1.2-0.5-1.8c0.3-2.8,0.8-5.6,1.4-8.4l0.7-3.4l-2.4,2.5c-10.6,11.1-26.4,28.5-41.7,48l-0.5,0.6
			l0.5,0.6c4.9,6.1,10.5,10,16.6,11.8c8.9,2.5,20.5-0.9,34.1-5c12.4-3.7,26.4-7.8,40.4-7.7h0.5l0.3-0.4c0.5-0.7,1.4-1.1,2.3-1h0.2
			c4.7,0.6,22.2,2.8,52.3,7.5h0.2c0.1,0,0.2,0,0.3,0c8.6,1.3,17.6,2.8,26.8,4.3c7.6,1.2,14.7,2.4,21.2,3.3l1.7,0.2l-0.6-1.6
			c-10-26.5-6.3-48.7-1.4-62.6c3.5-10,8.1-17.5,11.3-22l1.1-1.6l-10.9-0.1L557.6,432.5z"/>
		<path fill="#E6074D" d="M658.5,405.2h-1.9c-0.7,0-1.4,0-2.1,0h-1.7c-30.8-0.7-54.3-3-58.7-3.5h-0.6l-0.3,0.4
			c-5.3,7.6-10.8,14-16.6,19.1l-0.4,0.3v0.5c0,0.4,0,0.8-0.2,1.2c0,0-1.1,2.5,0,3.8c0.1,0.1,0.1,0.2,0.2,0.2l0.3,0.5h0.5
			c14.4,0.1,20.4,0,21.4-0.1h0.2c0,0,0.1,0,0.2,0c1.9,0,19.6,0.6,48.9,5.4l1.3,0.2l-0.1-1.3c-0.9-9.7,4.1-19.1,8.5-25.2L658.5,405.2
			z"/>
	</g>
	<g id="vs-hair">
		<path fill="#AA8165" d="M638.3,139.9c-0.2-9.1-33.1-16.7-56.4-19.2c-1.2-0.1-2.2-1.2-2.2-2.4c0-1.2,0.9-2.3,2.1-2.5
			c8.2-1.4,18.3-4.4,20.3-7l0.5-0.6l-0.5-0.6c-1.7-2.1-9.6-5.3-24.2-5.9c-17.3-0.7-37.7,2.6-57.6,9.2c-1.2,0.4-2.6-0.2-3.1-1.4
			c-0.5-1.2-0.1-2.6,1.1-3.2c20.3-11.2,28.4-21.7,28.1-24.8V81l-0.5-0.3c-0.8-0.4-3.4-1.3-10.7,0.2c-25.3,5.3-61.9,39.6-62.2,40
			c-0.9,0.8-2.2,0.9-3.2,0.2c-1-0.7-1.3-2-0.8-3.1c4.2-9,7.3-18.7,7.3-22.7V94l-1.3,0.3c-14.3,3.9-42.8,40-58.4,63.4
			c-0.7,1-1.9,1.4-3,0.9c-1.1-0.4-1.7-1.6-1.5-2.8c1.2-6.4,1.4-14.7-0.2-16.7l-0.3-0.4l-0.6,0.1c-0.3,0-0.8,0.2-1.3,0.4
			c-13.3,6.2-22.4,49.4-24.8,65.5c-0.2,1.1-1.1,2-2.3,2.1c-1.2,0.1-2.2-0.6-2.6-1.8c-1.6-5.3-4.3-10.8-6-12.5l-0.7-0.7l-0.7,0.6
			c-11.4,10.6-7.2,50.8,3.5,83.6c0.4,1.2-0.2,2.6-1.4,3.1c-1.2,0.5-2.6-0.1-3.2-1.2c-4.4-9.2-8.6-12.6-9.7-13.4l-1.7-1.2l0.1,2.1
			c0.7,14.8,18.8,40.7,20.9,43.6l0.7,1l0.8-0.9c2.5-2.6,5.3-4.8,8.2-6.5c18-11,32.6,2.3,38.1,8.5l2,2.3l-0.3-3
			c-1.1-13.4-4.7-58.1-1.6-70.4c0-0.2,0.1-0.3,0.2-0.5c4.6-9.7,25.1-31.9,48.7-52.7c11.4-10.1,28.6-24.4,46.3-35.5
			c10.5-6.6,20-11.2,28.1-13.7c0.6-0.2,1.3-0.1,1.9,0.2c0.6,0.3,1,0.8,1.2,1.5c0.2,0.6,0.1,1.3-0.2,1.9c-0.3,0.6-0.8,1-1.5,1.2
			c-3.9,1.2-8.3,3-13,5.4l-4.3,2.1l4.8-0.2c21.7-1.1,60.7-0.6,77.6,15.4c0.4,0.3,0.6,0.8,0.7,1.2c0.6,2.6,1.3,5.1,1.9,7.4
			c1.2,4.7,2.3,9.3,3.4,13.8l0.8,3.6l1.1-3.5c2.7-8.2-0.9-16.1-1.4-17c-0.4-0.8-0.3-1.7,0.1-2.4c0.4-0.7,1.2-1.2,2-1.2
			c2.4-0.1,5.8-0.8,7-1.7l0.4-0.3v-0.5c0.1-6.5-11-13.3-14.9-15.1l0,0c-1.1-0.5-1.6-1.7-1.4-2.9c0.3-1.1,1.3-1.9,2.5-1.9
			c7,0.2,16.8-1.3,17.2-4.6L638.3,139.9L638.3,139.9z"/>
	</g>
	<g>
		<path fill="#FFF996" d="M678.5,405.7c-2.7-0.1-6.2-0.1-10.8-0.2c-0.9,0-1.9,0-2.9-0.1h-1.2l-0.3,0.4c-3.8,4.5-12.3,16.3-10.2,27.6
			l0.1,0.7l0.7,0.1c3.8,0.7,7.7,1.4,11.7,2.2l3.8,0.7c0.6,0.1,1.2,0.2,1.8,0.4l1.3,0.3l-0.1-1.3c-0.7-6.9-0.1-13.2,1.6-18.8
			c1.2-3.8,3-7.3,5.3-10.2l1.2-1.6L678.5,405.7z"/>
		<path fill="#FFF996" d="M574.2,432.7h-0.5l-0.3,0.4c-2,2.4-8.9,11.3-13.6,24.8c-7,20.3-6.1,41.4,2.7,62.7l0.2,0.5l0.6,0.1
			c6.5,0.9,12.1,1.5,16.6,1.9l2.3,0.2l-1.4-1.8c-3.5-4.6-5.8-11.6-6.6-20.6c0-0.2,0-0.3,0-0.5v-0.1c-0.4-4.3-0.4-9-0.1-14
			c0.9-14.8,3.5-27.5,7.7-37.7v-0.1c0.1-0.2,0.1-0.4,0.2-0.6l0.1-0.1c2.2-5.2,4.9-9.8,7.9-13.4l1.4-1.6h-2.1
			C585.1,432.7,580,432.7,574.2,432.7z"/>
	</g>
	<path fill="#B6053D" d="M493,515.3c-19.6-2.9-32-4.5-37.7-5.3h-0.4c-0.7-0.1-1.3-0.4-1.7-0.9c-0.4-0.5-0.6-1.2-0.5-1.8
		c0-0.2,0.1-0.3,0.1-0.5l0.4-1.3h-1.4c-14,0-27.9,4.1-40.2,7.7h-0.1c-10.4,3.1-19.3,5.7-26.9,5.7c-2.4,0-4.5-0.3-6.5-0.8
		c-5.8-1.6-11.1-5.4-15.9-11.3l-0.8-1l-0.8,1c-20.2,25.7-33.4,47.4-39.2,64.3l-0.7,1.9L497,515.8L493,515.3z"/>
	<g>
		<path fill="#CCCBCC" d="M1129.6,463.7l1.1,2.1c1.7,3.3,3,5.8,3.6,6.9c0.2,0.5,0.8,1.1,2.2,1.2c0.1,0,0.2,0,0.3,0
			c0.6,0,1.2-0.1,1.8-0.3c2.3-0.6,4.8-2.5,5-5v-0.2l-0.1-0.2c-1.8-4.6-15.5-32.5-21.3-44.3c-2.6-5.4-5.3-10.8-7.9-15.9l-1.8-3.6
			l-0.1,4c-0.2,6.9-0.4,13.7-0.5,20.4v0.3l0.2,0.3C1112.2,429.6,1123,450.8,1129.6,463.7z"/>
		<path fill="#CCCBCC" d="M966.8,352.3l0.2-0.2v-0.3c0.2-2.3,0.4-12.6,0.6-23.5v-0.2c0.5-25.7,1.2-64.6,3.2-78.4
			c2.7-18,18.8-52.2,60.2-52.2c13.8,0,25.2,4.8,34,14.3c2.1,2.3,4.1,4.9,5.9,7.8l0.1,0.2l0.2,0.1c2.3,1.3,5.9,3.4,9.7,6.4
			c7.9,6.3,8.1,10.8,8,43.7c-0.2,33.5-3.5,247.5-3.5,249.7v0.9l0.9,0.1c1.3,0.1,2.5,0.2,3.7,0.2c2.3,0,4.4-0.2,6.3-0.6
			c4.5-1,7-3.1,7.4-6.1c0.3-2.2,0.7-8.4,1.2-18.4c0.2-5.3,0.5-12.1,0.8-22c0.4-10.8,0.8-24.5,1.3-43.3c0.3-9.5,0.5-19.8,0.8-30.8
			l0.1-5.5c0.5-18.9,1-41.3,1.6-68.4c0.4-19.5,0.9-40.5,1.4-63l0.1-5.2c1.1-53.3-6.8-86-50.9-95.5c-40-8.6-85.7,4.6-106.2,30.8
			l-0.1,0.3c-4,10.8-6.5,26.2-7.3,45.9c-1.2,29.1-0.1,64.4,0.7,90.3c0.3,11.4,0.6,21.3,0.7,28.2v1h1c0.4,0,0.8,0,1.3-0.1
			c1.8-0.2,3.7-0.5,5.4-0.9C961,356.3,965.6,353.8,966.8,352.3z"/>
		<path fill="#CCCBCC" d="M1034.4,548c2-0.3,4.7-1.3,6.2-4.6l0.1-0.2l1.7-34.4c0.8-16.8,1.7-35.1,2.1-43.8l0.1-1.6l-1.5,0.6
			c-1.9,0.8-3.9,1.2-6,1.2h-0.9l-3.7,82.9h1.1C1033.8,548,1034.1,548,1034.4,548z"/>
		<path fill="#CCCBCC" d="M1195.7,492.3c-0.4-15-8.3-25-14.8-30.8c-3.7-3.3-8-6.1-12.5-8.2l-0.5-0.3l-19.3,14.4v0.5
			c0.2,5.5-4.3,9.3-8.7,10.5c-2.5,0.7-5.1,0.5-7.1-0.4l-0.5-0.3l-10,6.7l1.5,0.8c7.5,4,17.7,11.9,23.9,27.2
			c6.7,16.7,5.4,29.2,3.1,36.7l-0.8,2.8l2.4-1.6c12.1-8.4,19.5-13.6,23.3-16.4c0.9-0.7,1.8-1.3,2.7-1.9l0.7-0.5
			c6-4.2,11.1-7.8,14-15.7c1.2-3.3,2-7.2,2.4-12C1195.7,500.4,1195.8,496.6,1195.7,492.3z"/>
		<path fill="#CCCBCC" d="M1119,487.3l-0.5-0.2l-8.6,5.8v0.5c-0.5,11.9-0.9,19.1-1.3,21.5c-1.1,7-7.8,10.9-18.5,10.9
			c-1.2,0-2.4,0-3.7-0.1c-7.3-0.6-16.2-3.1-18.5-7.3l-0.5-1l-10.8,7.9l1.4,0.7c7.1,3.6,16.8,11.2,22.6,26.8
			c6.5,17.6,6.6,32,5.4,40.9l-0.3,2.2l6.1-4.3c3.1-2.2,5.7-4,7.5-5.2c6.2-4.3,25.1-17.1,43.4-29.8l0.4-0.2l0.1-0.4
			c0-0.3,0.2-0.6,0.4-0.9c0.5-0.6,10.9-15.2,0.4-41.3C1137.7,498.3,1126.9,490.8,1119,487.3z"/>
		<path fill="#CCCBCC" d="M1053.3,528.4l-0.5-0.2l-6.6,4.8v0.5c-0.4,8.5-0.5,10.2-0.5,10.3c0,0.3-0.1,0.5-0.2,0.8
			c-1.8,4.7-5.6,7.7-10.5,8.3c-0.6,0.1-1.2,0.1-1.9,0.1c-0.1,0-0.2,0-0.4,0c-4-0.1-8-1.8-10.7-4.5l-0.6-0.6L1007,558l1.1,0.8
			c1.1,0.8,2.2,1.7,3.2,2.7c6.1,5.7,10.9,13.9,14.4,24.3c8,24,6.1,37.9,3.1,45.3l-1.1,2.7l2.5-1.5c11.5-6.7,28.4-17.7,50.2-32.9
			l0.3-0.2l0.1-0.4c1.2-4.7,4.3-21.9-4.2-44.7C1070.9,538.4,1060.7,531.4,1053.3,528.4z"/>
		<path fill="#CCCBCC" d="M983,556.6h-0.2l-0.1,0.1c-0.9,0.6-1.7,1.1-2.4,1.5c-6.8,4.2-10.9,21.2-5.1,44.4l0.5,2l1.3-1.6
			c5-6.3,15.7-18.8,31.8-37.1l0.6-0.7l-0.7-0.7c-1.4-1.4-2.9-2.6-4.5-3.6c-2.2-1.4-4.5-2.6-6.8-3.4
			C990.4,555.3,984.6,556.3,983,556.6z"/>
		<path fill="#CCCBCC" d="M1015,644.2L1015,644.2c-0.1,0-0.2,0-0.3,0c-1.7,0.4-3.5,0.5-5.3,0.5c-7.9,0-15.8-3.5-22.2-9.9l-0.7-0.7
			l-0.7,0.7c-0.1,0.1-0.2,0.2-0.3,0.3c-0.9,0.5-20.9,13.3-20.9,37.8c0,1.5,0.1,3,0.2,4.5v0.4l0.3,0.3c6.7,5.1,31.3,13.9,36.9,13.9
			c0.1,0,0.3,0,0.4,0h0.2l0.1-0.1c0.2-0.1,0.5-0.3,0.9-0.5l0.4-0.2l0.1-0.5c3.6-18.8,13.3-38,18.8-47.8l1.5-2.7l-2.8,1.3
			C1018.8,643,1016.6,643.8,1015,644.2z"/>
		<path fill="#CCCBCC" d="M1043.3,460.1c0.7-0.6,1.2-1.2,1.2-1.9v-0.3l-0.1-0.2c-1-2.6-6.7-4.3-10.5-3.1c-3.6,1.1-4.9,3-4.9,4.2v0.7
			l0.4,0.3c0.1,0.1,1.9,1.4,6.2,2c0.5,0.1,1,0.1,1.5,0.1C1039.7,461.9,1042,461,1043.3,460.1z"/>
	</g>
</g>
<g id="Layer_2_00000081642536969338964410000015438036600659744656_">
	<path fill="none" stroke="#000000" stroke-width="6" stroke-linecap="round" stroke-linejoin="round" stroke-miterlimit="10" d="
		M541,246c3.7,0.8,0.3,17.2-3.6,14.4c-3.9-2.8,2.4-15.3,3.4-14.6s-3,13.5-3,13.5"/>
	<path fill="none" stroke="#000000" stroke-width="6" stroke-linecap="round" stroke-linejoin="round" stroke-miterlimit="10" d="
		M572.2,240.9c3.7,0.8,0.3,17.2-3.6,14.4s2.4-15.3,3.4-14.6s-3,13.5-3,13.5"/>
	<path fill="none" stroke="#000000" stroke-width="7" stroke-linecap="round" stroke-linejoin="round" stroke-miterlimit="10" d="
		M534,212.9c0,0,4.3-5.1,9.1-4.9"/>
	<path fill="none" stroke="#000000" stroke-width="7" stroke-linecap="round" stroke-linejoin="round" stroke-miterlimit="10" d="
		M569.5,205.1c0,0,6-0.3,9.8,5.4"/>
	<path fill="none" stroke="#000000" stroke-width="7" stroke-linecap="round" stroke-linejoin="round" stroke-miterlimit="10" d="
		M558.1,282.9c0,0,33.7-20.9,46.7-6.3s9.6,54.4-14.6,63c-24.1,8.6-40.2-9.4-40.8-13.6"/>
	<path fill="none" stroke="#000000" stroke-width="6" stroke-linecap="round" stroke-linejoin="round" stroke-miterlimit="10" d="
		M504.3,362.1c0,0,35.6,19.5,65.2,10"/>
	<path fill="none" stroke="#000000" stroke-width="6" stroke-linecap="round" stroke-linejoin="round" stroke-miterlimit="10" d="
		M510.1,291.2c0,0,1.4,0.5,0.5,0.9"/>
	<path fill="none" stroke="#000000" stroke-width="6" stroke-linecap="round" stroke-linejoin="round" stroke-miterlimit="10" d="
		M500,307.1c0,0,1-0.3,0.4,0.5"/>
	<path fill="none" stroke="#000000" stroke-width="6" stroke-linecap="round" stroke-linejoin="round" stroke-miterlimit="10" d="
		M515,306.5c0,0,0.8,0.4,0.1,0.4"/>
	<path fill="none" stroke="#000000" stroke-width="6" stroke-linecap="round" stroke-linejoin="round" stroke-miterlimit="10" d="
		M617.1,273.9c0,0,0.5,0.7,0,0.6"/>
	<path fill="none" stroke="#000000" stroke-width="7" stroke-linecap="round" stroke-linejoin="round" stroke-miterlimit="10" d="
		M440.3,358.1c0,0-17.4,29.5-48.3,16.6c-32-18.2-22.2-56.3,0-69.9s38.9,13.3,38.9,13.3"/>
	<path fill="none" stroke="#000000" stroke-width="7" stroke-linecap="round" stroke-linejoin="round" stroke-miterlimit="10" d="
		M390,339.5c0,0,20.6-19,32.7,3.3"/>
	<path fill="none" stroke="#000000" stroke-width="7" stroke-linecap="round" stroke-linejoin="round" stroke-miterlimit="10" d="
		M431.4,317.6l2.3-0.4c0,0-5.9-62-2.3-76.6C439.9,223,510.6,153.3,553,140"/>
	<path fill="none" stroke="#000000" stroke-width="7" stroke-linecap="round" stroke-linejoin="round" stroke-miterlimit="10" d="
		M525.6,153.4c0,0,68.4-8.4,91.5,13.4c7.4,30.3,12.4,42.1,9.7,116s-37.7,137-69.8,147.3"/>
	<path fill="none" stroke="#000000" stroke-width="7" stroke-linecap="round" stroke-linejoin="round" stroke-miterlimit="10" d="
		M629.1,257.5c0,0,12.4-4.7,18.5,11.2c6.1,16-3.8,47-23,46"/>
	<path fill="none" stroke="#000000" stroke-width="7" stroke-linecap="round" stroke-linejoin="round" stroke-miterlimit="10" d="
		M420,375.5c0,0,9.1,29.1,35.3,50.4"/>
	<path fill="none" stroke="#000000" stroke-width="7" stroke-linecap="round" stroke-linejoin="round" stroke-miterlimit="10" d="
		M380.3,312.4c0,0-23-31.3-22.6-48.1c0.4-6.3,8.8-2.3,16.1,12.8C363.1,244,358,200.8,372,190c5.1-3.2,10.5,14.4,10.5,14.4
		s8.8-59.4,26.2-67.4c10.6-5.2,6,19.3,6,19.3s42.9-64.1,62.6-64.9c5.9,2.3-5.9,27.6-5.9,27.6s37.3-35.1,63.4-40.6s13.4,14.3-15.2,30
		c48.6-16.2,85.5-8.2,85.4-0.3c0,6.4-22.7,10.1-22.7,10.1s58.7,6.3,58.6,21.8c-0.4,7.8-19.8,7.1-19.8,7.1s16.6,7.9,16.3,17.5
		c0.4,4.5-9.8,4.9-9.8,4.9s7.3,14.9-2.8,26.2"/>
	<path fill="none" stroke="#000000" stroke-width="7" stroke-linecap="round" stroke-linejoin="round" stroke-miterlimit="10" d="
		M451.4,428.6c0,0,97.3,1.3,118.7,1.5c21.4,0.2,28.3,0,28.3,0s-18.9,9-21.9,56.3s25,49.4,37.2,15.9"/>
	<path fill="none" stroke="#000000" stroke-width="7" stroke-linecap="round" stroke-linejoin="round" stroke-miterlimit="10" d="
		M592,525.9c0,0-4.8,2.1-57.1-6.5s-79.7-11.9-79.7-11.9"/>
	<path fill="none" stroke="#000000" stroke-width="6" stroke-linecap="round" stroke-linejoin="round" stroke-miterlimit="10" d="
		M572.5,431.1c0,0-34.9,37.9-10.7,92.7"/>
	<path fill="none" stroke="#000000" stroke-width="7" stroke-linecap="round" stroke-linejoin="round" stroke-miterlimit="10" d="
		M598.5,430.1c0,0,24.7,0.4,66.6,8.6c41.9,8.2,71.6,14.2,97.7,10.2c26-4,46-8,65.2,0.8c19.3,8.8,24.3,21.3,18.9,34
		c-5.4,12.6-19.7,7.9-33.7,2s-17-11.2-16.2,10.5s8.2,39.7,15.1,47.2s12.5,17.5,8.3,26c-4.2,8.6-29.1,2.4-41.1-14.3
		s-17.6-58.9-24.9-63.8"/>
	<path fill="none" stroke="#000000" stroke-width="7" stroke-linecap="round" stroke-linejoin="round" stroke-miterlimit="10" d="
		M739,484.6c0,0,15.1,18.6,22.8,23.3"/>
	<path fill="none" stroke="#000000" stroke-width="7" stroke-linecap="round" stroke-linejoin="round" stroke-miterlimit="10" d="
		M748.1,496.2c0,0-49,8.7-128.9,5.5c-26.4-1.1-27.4,1.4-42.5-1.3"/>
	<path fill="none" stroke="#000000" stroke-width="7" stroke-linecap="round" stroke-linejoin="round" stroke-miterlimit="10" d="
		M584.3,449.1c0,0-5.3,36.6,3.7,50.8c-4.6-2.6-4.6-3.4-5.2-4.5c-0.7-1.1-2-11.9-2-11.9"/>
	<path fill="none" stroke="#000000" stroke-width="7" stroke-linecap="round" stroke-linejoin="round" stroke-miterlimit="10" d="
		M573.7,422.1c0,0-1.9,3.8,0.4,6.5c-4.7-0.9-5.2-3.3-5.2-3.3"/>
	<path fill="none" stroke="#000000" stroke-width="7" stroke-linecap="round" stroke-linejoin="round" stroke-miterlimit="10" d="
		M593.6,399c0,0,24.8,2.8,59.2,3.6c34.5,0.8,34.7,0.4,37.4,2.3s2.9,10.7,2.9,10.7"/>
	<path fill="none" stroke="#000000" stroke-width="7" stroke-linecap="round" stroke-linejoin="round" stroke-miterlimit="10" d="
		M685.4,404.7c0,0-14,9.4-10.1,34.7"/>
	<path fill="none" stroke="#000000" stroke-width="6" stroke-linecap="round" stroke-linejoin="round" stroke-miterlimit="10" d="
		M663.2,402.8c0,0-15.4,16.1-11.9,31.7"/>
	<path fill="none" stroke="#000000" stroke-width="7" stroke-linecap="round" stroke-linejoin="round" stroke-miterlimit="10" d="
		M679.5,415.6c0,0,10.1-0.4,38.7,6.3s44.6,11.1,59.1,9.7s35.4,1.5,42,1.1c6.6-0.5,31.6-4.8,43.1,9.3c11.5,14.1,7.8,26.2-11.7,29.1"
		/>
	<path fill="none" stroke="#000000" stroke-width="7" stroke-linecap="round" stroke-linejoin="round" stroke-miterlimit="10" d="
		M677.6,418.7c0,0-1.7,13.9,3.6,21.4"/>
	<path fill="none" stroke="#000000" stroke-width="7" stroke-linecap="round" stroke-linejoin="round" stroke-miterlimit="10" d="
		M433,401.3c-0.9,1.3-23.3,33.8-27,66.4"/>
	<path fill="none" stroke="#000000" stroke-width="7" stroke-linecap="round" stroke-linejoin="round" stroke-miterlimit="10" d="
		M410.6,446.8c0,0-79.5,78.8-93,128.8"/>
	
		<line fill="none" stroke="#000000" stroke-width="7" stroke-linecap="round" stroke-linejoin="round" stroke-miterlimit="10" x1="53.6" y1="662.4" x2="508" y2="515"/>
	<path fill="none" stroke="#000000" stroke-width="6" stroke-linecap="round" stroke-linejoin="round" stroke-miterlimit="10" d="
		M553.2,523.8c0,0-91.1,32.4-106.4,38.5s-25.3,14.4-16.9,21.6s32.7,8,108.4,25.5s288.3,68.4,315.6,73.7c27.3,5.4,32.9,5.6,54.1-6.1
		c21.2-11.7,77.4-46.1,77.4-46.1"/>
	<path fill="none" stroke="#000000" stroke-width="6" stroke-linecap="round" stroke-linejoin="round" stroke-miterlimit="10" d="
		M1020.9,529.8c0,0-32.9,21.4-41.6,26.8s-12.5,26.7-4.2,52.9s25.1,35.9,39.4,32.8c14.3-3.1,72-44.4,86-54s63.8-43.7,76.2-52.7
		c12.4-9.1,21.7-12.4,20.9-43.3c-0.8-30.9-32.2-45.3-42.6-44.3c-5.7,2-12.5,5.5-12.5,5.5"/>
	
		<line fill="none" stroke="#000000" stroke-width="6" stroke-linecap="round" stroke-linejoin="round" stroke-miterlimit="10" x1="1109.9" y1="473.9" x2="1125.9" y2="464.7"/>
	<path fill="none" stroke="#000000" stroke-width="7" stroke-linecap="round" stroke-linejoin="round" stroke-miterlimit="10" d="
		M1043.1,543.7c0,0,3.6-73,4-82.7c0.4-9.8-15.5-11.9-19.9-4c-3.3,10-4.4,79.5-4.4,88.7C1027.3,551.7,1039.5,553.3,1043.1,543.7z"/>
	<path fill="none" stroke="#000000" stroke-width="6" stroke-linecap="round" stroke-linejoin="round" stroke-miterlimit="10" d="
		M1026.6,459.9c0,0,0.4,2.2,8.4,3.1c8,1,12-4.2,12-4.2"/>
	
		<line fill="none" stroke="#000000" stroke-width="6" stroke-linecap="round" stroke-linejoin="round" stroke-miterlimit="10" x1="1045.6" y1="514.6" x2="1068.7" y2="499.9"/>
	<path fill="none" stroke="#000000" stroke-width="7" stroke-linecap="round" stroke-linejoin="round" stroke-miterlimit="10" d="
		M1069.8,516.3c0,0,6.1-213.9,8.8-246.4c2.7-32.6-10.3-69.8-47.6-69.8c-37.3,0-54.6,29.6-57.7,50s-3.1,97-3.8,102.4
		s-27.6,15.3-38.8,1.8c-3.8-8.9-0.8-118.2,14.3-151.4s67.1-53.6,115.7-43.1c48.5,10.5,53.9,50.3,52.9,98s-5.1,242.3-7.4,256.9
		C1103.7,529.1,1069.8,522.7,1069.8,516.3z"/>
	<path fill="none" stroke="#000000" stroke-width="7" stroke-linecap="round" stroke-linejoin="round" stroke-miterlimit="10" d="
		M1109.9,430.5c0,0,19.3,37.9,22.1,43.3c2.9,5.5,14.5,1.4,14.1-5.9c-1.4-4.9-35.8-73.7-35.8-73.7"/>
	<path fill="none" stroke="#000000" stroke-width="6" stroke-linecap="round" stroke-linejoin="round" stroke-miterlimit="10" d="
		M982,554.8c0,0,28.6-8.2,41.9,31.7c11.6,34.9,3.4,52.6-9.4,55.7"/>
	<path fill="none" stroke="#000000" stroke-width="6" stroke-linecap="round" stroke-linejoin="round" stroke-miterlimit="10" d="
		M1045.6,524.3c0,0,22.9,1.9,33.1,29.4c10.2,27.4,3.9,47,3.9,47"/>
	<path fill="none" stroke="#000000" stroke-width="6" stroke-linecap="round" stroke-linejoin="round" stroke-miterlimit="10" d="
		M1109.9,482.5c0,0,24.9,3.1,36,30.6c11.1,27.6-0.6,43.3-0.6,43.3"/>
	<path fill="none" stroke="#000000" stroke-width="6" stroke-linecap="round" stroke-linejoin="round" stroke-miterlimit="10" d="
		M984.4,633.5c0,0-25.1,15.7-21.4,45.4c5.2,5,34.7,16.3,40.2,15.1c5.6-1.1,216.4-147.3,219.3-152.2c2.9-5-9.8-19.3-15.3-22.3
		s-12.2-2.9-12.2-2.9"/>
	<path fill="none" stroke="#000000" stroke-width="6" stroke-linecap="round" stroke-linejoin="round" stroke-miterlimit="10" d="
		M1197.7,504c0,0,61.2-36.8,66.8-42.6c5.6-5.7,5.4-14.8-6-18.1s-133.3-20.9-133.3-20.9"/>
	
		<line fill="none" stroke="#000000" stroke-width="6" stroke-linecap="round" stroke-linejoin="round" stroke-miterlimit="10" x1="1071" y1="413.1" x2="1029" y2="406.2"/>
	
		<line fill="none" stroke="#000000" stroke-width="6" stroke-linecap="round" stroke-linejoin="round" stroke-miterlimit="10" x1="937.6" y1="361" x2="933.4" y2="443.3"/>
	<path fill="none" stroke="#000000" stroke-width="6" stroke-linecap="round" stroke-linejoin="round" stroke-miterlimit="10" d="
		M937.6,451c0,0-8.4-9.6-14-19.5c-5.6-10-6.5-21.8-10.9-32.6S899,382.1,892.3,386s-7.4,19.3-0.9,32s12.9,10.3,17.1,23.7
		s4.3,17.5,11.5,23"/>
	<path fill="none" stroke="#000000" stroke-width="6" stroke-linecap="round" stroke-linejoin="round" stroke-miterlimit="10" d="
		M930,466.2c-0.8,0-13.8-2-21.4,0.7c-7.6,2.7-9.4,13.2-2.9,17.6s15.6-0.3,22.1-2.5"/>
	<path fill="none" stroke="#000000" stroke-width="6" stroke-linecap="round" stroke-linejoin="round" stroke-miterlimit="10" d="
		M956.9,361c0,0,0.1,52.1,3.6,73.8"/>
	<path fill="none" stroke="#000000" stroke-width="6" stroke-linecap="round" stroke-linejoin="round" stroke-miterlimit="10" d="
		M960.5,426.5c0.6-0.5,2.8-0.3,4.7-8.9s9.2-23.4,19.7-20.2c10.5,3.2,3.8,23.6-4.9,33.6s-14.2,11.7-12.5,22.2"/>
	<path fill="none" stroke="#000000" stroke-width="6" stroke-linecap="round" stroke-linejoin="round" stroke-miterlimit="10" d="
		M965,457.4c0,0,6.1-3.1,13-7.3s9.6-16.3,19.5-15.8c10,0.5,8.9,16.2-0.6,23.7c-9.6,7.5-15.8,7.3-24.1,16.5"/>
	<path fill="none" stroke="#000000" stroke-width="6" stroke-linecap="round" stroke-linejoin="round" stroke-miterlimit="10" d="
		M879.6,348.7c11.9-2.7,15.2,18.8,6.3,21C877,371.9,871.6,351.8,879.6,348.7z"/>
	<path fill="none" stroke="#000000" stroke-width="5" stroke-linecap="round" stroke-linejoin="round" stroke-miterlimit="10" d="
		M867.9,451.2c0,0,21-3,42.8-2.4"/>
	<path fill="none" stroke="#000000" stroke-width="6" stroke-linecap="round" stroke-linejoin="round" stroke-miterlimit="10" d="
		M807.9,483.4c0,0,13,23.5,83.1,34.8c70.1,11.3,132.6-9.8,132.6-9.8"/>
	<path fill="none" stroke="#000000" stroke-width="6" stroke-linecap="round" stroke-linejoin="round" stroke-miterlimit="10" d="
		M1000.2,454.6c0.8,0.1,14.4,1.6,25.2,5.4"/>
	<path fill="none" stroke="#000000" stroke-width="6" stroke-linecap="round" stroke-linejoin="round" stroke-miterlimit="10" d="
		M1047,466.8c0,0,9.7,7.3,10.7,11.5s1.2,23.8-2.9,30.5"/>
	<path fill="none" stroke="#000000" stroke-width="6" stroke-linecap="round" stroke-linejoin="round" stroke-miterlimit="10" d="
		M819.5,570.7c0,0,41,38.4,94.1,42.3c45.4,3.4,60.3-7.7,60.3-7.7"/>
	<path fill="none" stroke="#000000" stroke-width="7" stroke-linecap="round" stroke-linejoin="round" stroke-miterlimit="10" d="
		M788.4,564.5c0,0,8.5,14.5,21.4,21.2s19.1,1.1,22.2-3.3"/>
	<path fill="none" stroke="#000000" stroke-width="5" stroke-linecap="round" stroke-linejoin="round" stroke-miterlimit="10" d="
		M798,499.6c0,0,46.6,35.6,116.3,40c69.7,4.3,105.3-9,105.3-9"/>
	<path fill="none" stroke="#000000" stroke-width="5" stroke-linecap="round" stroke-linejoin="round" stroke-miterlimit="10" d="
		M798,497l9.1-10.5l-3.6-2.1l-4.1,4.9c0,0,2.2-0.5,2.5-0.9"/>
	<path fill="none" stroke="#000000" stroke-width="5" stroke-linecap="round" stroke-linejoin="round" stroke-miterlimit="10" d="
		M772.8,542.7c0,0-152.4,59.7-165.1,65.6c-12.8,5.9-14.5,13.9-13.4,14.1"/>
	<path fill="none" stroke="#000000" stroke-width="5" stroke-linecap="round" stroke-linejoin="round" stroke-miterlimit="10" d="
		M903.9,677.6c0,0-12.8-1-11.1-12.1s28.9-16.7,50.8-10.6"/>
	<path fill="none" stroke="#000000" stroke-width="5" stroke-linecap="round" stroke-linejoin="round" stroke-miterlimit="10" d="
		M912.2,464.1c0,0-12-7.3-22.6,1.1"/>
	<path fill="none" stroke="#000000" stroke-width="5" stroke-linecap="round" stroke-linejoin="round" stroke-miterlimit="10" d="
		M890.3,464.7c0,0-9.1-7.9-21.4-2.9"/>
	<path fill="none" stroke="#000000" stroke-width="5" stroke-linecap="round" stroke-linejoin="round" stroke-miterlimit="10" d="
		M983.8,465.2c0.3,0,5.6-2.6,13.4,0.6c7.8,3.3,10.3,6.9,10.3,6.9s3.9-7.7,16-3.7"/>
	<path fill="none" stroke="#000000" stroke-width="5" stroke-linecap="round" stroke-linejoin="round" stroke-miterlimit="10" d="
		M887.8,407.9c0,0-13.3,6.3-13.2,18.1c0.1,11.8,16.9,12.2,23.3,2.3"/>
	<path fill="none" stroke="#000000" stroke-width="5" stroke-linecap="round" stroke-linejoin="round" stroke-miterlimit="10" d="
		M1025,386.2c14.8,9.6-1.5,30.1-14.5,25.8c-12.9-4.3-4.7-22.1-0.2-25.9S1020.7,383.5,1025,386.2z"/>
	<path fill="none" stroke="#000000" stroke-width="5" stroke-linecap="round" stroke-linejoin="round" stroke-miterlimit="10" d="
		M1041.2,420c16.1,0.5,14.1,19.3-2.7,20.5s-19.5-7.8-14.7-14C1028.5,420.4,1035.9,420,1041.2,420z"/>
	<path fill="none" stroke="#000000" stroke-width="5" stroke-linecap="round" stroke-linejoin="round" stroke-miterlimit="10" d="
		M1003.6,399c0,0-6.5,0-11.8-0.3c-5.3-0.2-8.5-3.5-19.6-2.7c-11.1,0.9-12.5,0.9-12.5,0.9"/>
	
		<line fill="none" stroke="#000000" stroke-width="5" stroke-linecap="round" stroke-linejoin="round" stroke-miterlimit="10" x1="935.1" y1="402.9" x2="917.1" y2="409.3"/>
	<path fill="none" stroke="#000000" stroke-width="5" stroke-linecap="round" stroke-linejoin="round" stroke-miterlimit="10" d="
		M874.3,423.9c-0.3,0.1-25.4,8.8-25.4,8.8"/>
	
		<polyline fill="none" stroke="#000000" stroke-width="7" stroke-linecap="round" stroke-linejoin="round" stroke-miterlimit="10" points="
		501.5,517.2 532.6,528.6 543.3,523.8 521.5,522.1 529,525.1 	"/>
	
		<line fill="none" stroke="#000000" stroke-width="7" stroke-linecap="round" stroke-linejoin="round" stroke-miterlimit="10" x1="775.3" y1="431.7" x2="886.2" y2="396.9"/>
	
		<line fill="none" stroke="#000000" stroke-width="7" stroke-linecap="round" stroke-linejoin="round" stroke-miterlimit="10" x1="909.3" y1="390.1" x2="935.5" y2="381.2"/>
	
		<line fill="none" stroke="#000000" stroke-width="7" stroke-linecap="round" stroke-linejoin="round" stroke-miterlimit="10" x1="958.7" y1="374.3" x2="1073.7" y2="337.8"/>
	
		<line fill="none" stroke="#000000" stroke-width="7" stroke-linecap="round" stroke-linejoin="round" stroke-miterlimit="10" x1="1112.8" y1="326.1" x2="1188.5" y2="301.9"/>
	<path fill="none" stroke="#000000" stroke-width="7" stroke-linecap="round" stroke-linejoin="round" stroke-miterlimit="10" d="
		M204.6,668.1c0,0,148.6-52.7,162.2-56.5c13.6-3.8,38.3,2.3,48.3,10"/>
	<path fill="none" stroke="#000000" stroke-width="7" stroke-linecap="round" stroke-linejoin="round" stroke-miterlimit="10" d="
		M317.6,699.2c0,0,131.2-56.6,143.2-59.9c12-3.2,38.3,5.2,44.9,9.3"/>
	<path fill="none" stroke="#000000" stroke-width="7" stroke-linecap="round" stroke-linejoin="round" stroke-miterlimit="10" d="
		M415.1,734.7c0.8-0.3,136.9-70.7,145.1-72.8s38.2,6.4,46.2,11.5"/>
	<path fill="none" stroke="#000000" stroke-width="7" stroke-linecap="round" stroke-linejoin="round" stroke-miterlimit="10" d="
		M505.8,779.6c0,0,174-93.1,179.6-93.6c5.6-0.5,32.8,4.2,46.7,13.7"/>
	<path fill="none" stroke="#000000" stroke-width="7" stroke-linecap="round" stroke-linejoin="round" stroke-miterlimit="10" d="
		M639.6,822.7c0,0,164.9-101.9,174.1-104.2s40,4.3,51,12.5"/>
</g>
<g id="Layer_4">
	
		<path fill="none" stroke="#000000" stroke-width="16" stroke-linecap="round" stroke-linejoin="round" stroke-miterlimit="10" stroke-opacity="0" d="
		M371.6,308.9c0,0,32.2-18.6,32.5-18.6c0.4,0,13.7,5,13.7,5l9.8,9.8l-4.1-24.1l-44.9,19.4l-6.4-8l51.6-22.9l-0.6-14l-54.6,27.8
		l-9.1-11.9l65-28.2l4.5-11.9l-69.4,28.6l3.8-13.4l75.8-28l4.6-9.6l-75.7,23l-3.3-15.3c0,0,89.2-14.2,89.4-14.6
		c0.1-0.4,15.7-11.7,15.7-11.7L366,205.5l2.8-10.7l112-16.4l12.6-10l-101.1,9.3l2.5-13.9l104.9-4l13.6-6.6H401.6l2.6-9.2h116.7
		l24.7-1.3l-113.1-11.1l6.7-12.1l45.2-25l26-9.4l-57.9,38l15.5,4.3l67.3-46.7H549l-67.7,47.5l7.1,0.3l46.7-33.4l20.1-4.9l-54.8,40
		L519,131l52.3-37l18,2.3l-54.8,35.8l5.2,1.9l61.3-30.4l4.8,5.4L553,141.4c0,0,5.5,2.9,5.5,2.3s57.3-25.1,57.3-25.1l8,3.8l-54,20.5
		l11.7,0.4l45-15.5l15.7,4l-50.9,14.6l9.4,2.5l29.6-4.7c0,0,5.9,2.8,4.7,2.8s-23.9,7.5-23.9,7.5l8.4,4.2l13.9-2.7l3.4,5l-10.5,3.9
		l5.6,18.4"/>
	
		<path fill="none" stroke="#000000" stroke-width="24" stroke-linecap="round" stroke-linejoin="round" stroke-miterlimit="10" stroke-opacity="0" d="
		M539.3,154.4L425.2,250v15.7L553,151.9l22.8,3.5L382.3,326.1l-5,19.1l224.8-190.9l13,5.2L387.5,362.1l11.7,6.3l220.2-192.7
		l1.8,19.1l-207.9,179l10.3,8.2l202.9-166.7l0.9,23.3L440.3,390.7l7.2,12.1c0,0,178.1-150.6,179-149.6c1,0.9,10.4,3.6,10.4,3.6
		L457.8,414.1l10.7,4.6l185.9-154.3L635,297.8L483.8,418.7l24.3,0.9l107-93.2l-18,42l-71.6,50.2l21.4-1.2h8.2l32.8-32.6"/>
	
		<path fill="none" stroke="#000000" stroke-width="24" stroke-linecap="round" stroke-linejoin="round" stroke-miterlimit="10" stroke-opacity="0" d="
		M691.5,426.6l-2.9,1.4l9.3,6.5l7.7-5.2h12l-1.7,8.3l25.1-5v6.7l17.2-2.7l29.1-5l29.4,1.3c0,0,24.1,7.8,24.1,8.4
		s14.5,12.4,14.5,12.4v2.6"/>
	
		<path fill="none" stroke="#000000" stroke-width="24" stroke-linecap="round" stroke-linejoin="round" stroke-miterlimit="10" stroke-opacity="0" d="
		M603.7,443.3l-11.1,13l-1.1,23l24.5-36l17.8,1.6l-38.2,44.2l13.1,1.1l37.9-39.8h14.9l-39.4,39.8l19.1-3.1l35.2-34.1l16.7-1.3
		l-42.4,38.9l19,1.5l39.6-35.8c0,0,14.1-2.9,14.3-3.1s-38.3,37.4-38.3,37.4l16.1-4.1c0,0,35.2-29.7,35.8-30.3
		c0.6-0.6,16.5-2.9,16.5-2.9l-40.6,35.8l14-1.6L766,453l12.6-1.9L743,485.4l9.5,0.7l38.7-33.2l12.8-1.7c0,0,27.6,16.5,28.1,16.4
		c0.6-0.1,3.8,6.7,3.8,6.7s-3.4,4.8-5.2,4.9c-1.9,0.1-19.3-7-21.2-7.4s-13-3.3-15.7-3.4S766.6,497,766.6,497l6.1,10.3l15.1-19.7
		l-0.8,21l-11,11.5l5,17.7l9-14l2.7,9.4l-5.9,14l14.6-3.1l-3.6,10.7l9.3-0.7l3.2,8.8v10"/>
	
		<line fill="none" stroke="#000000" stroke-width="18" stroke-linecap="round" stroke-linejoin="round" stroke-miterlimit="10" stroke-opacity="0" x1="814.3" y1="580.4" x2="820.2" y2="582.5"/>
	
		<polyline fill="none" stroke="#000000" stroke-width="24" stroke-linecap="round" stroke-linejoin="round" stroke-miterlimit="10" stroke-opacity="0" points="
		685.4,417.4 685.4,410.2 663.2,430.1 670.5,415.6 	"/>
	
		<polyline fill="none" stroke="#000000" stroke-width="24" stroke-linecap="round" stroke-linejoin="round" stroke-miterlimit="10" stroke-opacity="0" points="
		582,440 572.5,456.4 565,488.9 570.4,513 582,515 590.7,513 603.3,499.9 	"/>
	
		<path fill="none" stroke="#000000" stroke-width="24" stroke-linecap="round" stroke-linejoin="round" stroke-miterlimit="10" stroke-opacity="0" d="
		M650.8,420.1c0,0-21.8,18.3-22,17.5s22-31.9,22-31.9s-47.3,31.8-47.5,28.7c-0.2-3,20.1-28.3,20.1-28.3l-24.9,2.4L565,441.8
		l-15.5,69.4l-18.6-3.1l28.3-73.6l-3.3-2l-45.2,77.1c0,0-32.8,18.1-32.3,16.5s64.9-98.6,64.9-98.6s-14.7,4.7-15.1,7
		c-0.4,2.3-73,94.1-73,94.1s-22.2,7-22.3,5.9s77.7-103.4,77.7-103.4l-19.1,3.4l-68.9,101.9l-27.3,15.2l85.3-123l-16,2.5l-93.4,128.3
		c0,0-20.8-1.2-19.6,0s98.5-134.5,98.5-134.5s-6.7-10.2-5.9-9.3s-103.5,151-103.5,151l-16,4.2l111.6-164.6"/>
	
		<path fill="none" stroke="#000000" stroke-width="24" stroke-linecap="round" stroke-linejoin="round" stroke-miterlimit="10" stroke-opacity="0" d="
		M629.5,499.6l-196.5,77l13.5,13.6l138.7-64.1l84.5-33.9l29.3-1.5l-218.6,99.5l19.8,5.9l236.6-106.5l22.2,3.8L525.6,602.7l13.2,4.8
		l216.4-96.8l3.8,10.9l-194.1,86l20.2,9l181.2-77.4l6.3,9.8l-166.2,71l28.9,5.6l149-64.6l7.1,7.9l-131.2,62.9l23.1,8.4l121.5-57.6
		l21.7,7.5L709,644l15.8,2.8L836,599.3l10.4,5.3l-101,51.4l15.2,1.5l98-50l15.7,6.2l-91,49.5c0,0,4.9,2.9,6,3.2
		c1,0.2,94.7-48.6,94.7-48.6l21.6,4.7l-91.2,48.4L839,674l81.2-48.3l19.6-1l29.5-4.6l2.8,10.2l-26,14.8l-19.9-4.3
		c0,0-19.2,1.5-20.5,2c-1.2,0.5-20.4,9.6-20.4,9.6s-14.7,21.8-16.3,21.5s-12.7,9.6-12.7,9.6l27.8-9.9l17-5.1l38.8-13.1"/>
	
		<path fill="none" stroke="#000000" stroke-width="11" stroke-linecap="round" stroke-linejoin="round" stroke-miterlimit="10" stroke-opacity="0" d="
		M856.7,436.9l14.2-6.1l3.1,4.5l-8.7,6.9l2.8,3.6c0,0,9.3-4.9,9.9-5c0.5-0.1,13.3-2.7,13.5-2.6s-14,7.8-13.5,7.8s11.7-1.2,11.7-1.2
		l8.6-9.6l3.8,4.8c0,0-3.8,4-3.4,3.8s7-0.7,7-0.7"/>
	
		<path fill="none" stroke="#000000" stroke-width="11" stroke-linecap="round" stroke-linejoin="round" stroke-miterlimit="10" stroke-opacity="0" d="
		M920.5,414c0.3-0.3,9.4-4.7,9.4-4.7l1.7,5.6l-7.8,5.8l2.9,8.2l4.9-4.3l-1,12"/>
	
		<polyline fill="none" stroke="#000000" stroke-width="11" stroke-linecap="round" stroke-linejoin="round" stroke-miterlimit="10" stroke-opacity="0" points="
		968.8,399 964.2,400.1 963.6,408.7 962.7,414.9 	"/>
	
		<path fill="none" stroke="#000000" stroke-width="11" stroke-linecap="round" stroke-linejoin="round" stroke-miterlimit="10" stroke-opacity="0" d="
		M993.6,402.2c0.4,0.1,6.5,1.4,6.5,1.4l-5.4,4l6.3,0.8c0,0-5.6,7-5.6,7.1s-16.1,26.4-16.1,26.4l-8,7.1l19.6-19.3l14.3-13.5h5.5
		l-12,12.3l5.5,1.1l14.8-13.7l10.2-4.3l3.4,0.6l-9.3,9.3l-12.7,13l-2.1,4.6l-0.1,6.1l9-9l1.7,2.9l-11.1,10.8l5.9,1.2
		c0,0,6.2-7.1,6.8-7.1s5.3-0.7,5.3-0.7s-6.9,7.4-6.6,7.5c0.3,0.1,4,2.3,4,2.3l8.6-9.3l7.4,1l13.5-4.2l7-15l-3.6-6.7l-7.2-1.3
		c0,0-11.3-1-11.5-1.1s0.6-3.4,0.6-3.4l30.5,3.6l-7.3,6.5l5.3-0.4l0.9,6.7l-21.6,20l5.1,6.7l19-19.9c0,0,0.4,12.1,0.7,11.8
		s-17.7,17.1-17.7,17.1l2.7,4l13.9-7.4l-0.4,10.8l-6.4,4.5l1.3,6.5l3.8-1.9c0,0-4.9,11.8-5,12.3s-1.1,5.3-1.1,5.3"/>
	
		<polyline fill="none" stroke="#000000" stroke-width="11" stroke-linecap="round" stroke-linejoin="round" stroke-miterlimit="10" stroke-opacity="0" points="
		1113.5,447.9 1111.9,465.7 1118.8,461.9 1116.7,453.6 	"/>
	
		<path fill="none" stroke="#000000" stroke-width="11" stroke-linecap="round" stroke-linejoin="round" stroke-miterlimit="10" stroke-opacity="0" d="
		M1133.5,428.3l11-1.7l-7.5,6.1l2,6.7c0,0,10.7-8.9,11.7-9s17.1,0.2,17.1,0.2l-25.8,15.7l1.7,2.9c0,0,30.4-19.8,31.9-19.5
		c1.6,0.2,6.1,0.9,6.1,0.9l-18.6,13.4l4.2,2.3l28.4-13.6c0,0,10.6,1,10.3,1.7c-0.4,0.7-29.9,14.8-29.9,14.8l7.4,3.1l26.7-15.3
		l13.6,0.1l-35.8,20.2l4.5,5.8l40.9-23.2l6.6,1.8l-42.1,27.6l2.5,8.4l51-34l8.7,2.1l-57.6,39.1V498l61.4-48.5l-0.6,8.8l-39.3,33.8"
		/>
	
		<path fill="none" stroke="#000000" stroke-width="22" stroke-linecap="round" stroke-linejoin="round" stroke-miterlimit="10" stroke-opacity="0" d="
		M1225.6,533.7l-217,157.1l207.8-164.7h-12.6l-101.2,76.5l-104.9,80.8l-25.7,3.1l113.9-77.3L994.5,667l-33.7,15.1l42.1-32.2
		c0,0-10.5,1-11.1,1.1s-30.9,15.7-28.7,15c2.1-0.7,17.3-19.1,17.3-19.1l30.3-9.6l175-115.3l2.7-12.1l-201.2,125l-3.4-3.1L1191,492.1
		c0,0,1.1-14.5,1.1-12.7c0,1.7-208.3,134.3-208.3,134.3l1-15.5l196.7-129.8l-6.3-9.6L984.7,589.4l-4.8,1l3-18.4l6.9-7.5l7.8-2.1
		L1121,492l47.8-38.6"/>
	
		<path fill="none" stroke="#000000" stroke-width="22" stroke-linecap="round" stroke-linejoin="round" stroke-miterlimit="10" stroke-opacity="0" d="
		M1034.3,532.6c-0.1-1.1,2.7-69.1,2.7-69.1"/>
	
		<path fill="none" stroke="#000000" stroke-width="22" stroke-linecap="round" stroke-linejoin="round" stroke-miterlimit="10" stroke-opacity="0" d="
		M1136.4,464.7c0-0.1-19.1-46.1-19.1-46.1"/>
	
		<path fill="none" stroke="#000000" stroke-width="22" stroke-linecap="round" stroke-linejoin="round" stroke-miterlimit="10" stroke-opacity="0" d="
		M1093.2,499.4l12-15.5c0,0-20.5,13.8-19.5,10.2c1-3.5,20.2-28.5,20.2-28.5s-22.7,10.5-21.3,8.7c1.4-1.8,21.3-22.3,21.3-22.3
		s-25.9,6.5-24.4,4.6s20.3-19.3,20.3-19.3s-12.4,1.1-11.5,0c1-1.1,12.3-24.3,12.3-24.3l-13.5,7l14.4-19c0,0-16.7-1.2-14.7-3.2
		s18.4-16.6,18.4-16.6s-16.7,2.7-16.1,2.4c0.6-0.3,16.1-23.7,16.1-23.7l-16.9,7.3L1109,344c0,0-20.9,6.7-19.9,4.6s17-25.3,17-25.3
		s-18.1,8.1-18.1,5.6s16.3-23.4,16.3-23.4s-12.8,7.1-13.2,6.3s14.7-26.2,14.7-26.2s-13.2,2.3-13.2,1.7c0-0.6,18.1-24.4,18.1-24.4
		s-24.4,12.9-24.4,11.9s22.4-34.3,22.4-34.3s-25.4,16.2-22.8,11.1c2.6-5.1,26.7-39.6,26.7-39.6s-37.1,23.6-35.7,21.4
		c1.3-2.1,24.1-34.9,24.1-34.9s-27.6,16.3-25.5,13.4c2.1-2.9,17.2-28.5,17.2-28.5l-0.9-5.3l-31.8,32.5l-8.3-8.7l28.7-29.1
		c0,0-16.7-8.6-17.2-8.4c-0.6,0.2-28.3,27.6-28.3,27.6l6.9-31l-17.8,36.8l1-34.3l-8.6-2.8l-70.6,47.4c0,0-2.7,14.6-2.2,13
		c0.6-1.5,72.8-40.6,73.3-41s-1.8,19.1-1.8,19.1s-68.9,36.1-69.4,37s-4.5,14-3.7,12.8c0.8-1.1,31.6-16.9,31.6-16.9l-0.2,15.8
		L947.2,270l-0.2,5.4l17.4-6.3l-5,17.8c0,0-11.6,3.8-11.6,4.4s1.3,14.4,1.3,14.4l17.8-11.7l-1.9,14l-14.9,16l-1.5,9.2
		c0,0,16.7-10.5,16.7-9.8s-3.3,22.4-3.3,22.4l-14.3,4.6"/>
	
		<polyline fill="none" stroke="#000000" stroke-width="22" stroke-linecap="round" stroke-linejoin="round" stroke-miterlimit="10" stroke-opacity="0" points="
		889.7,351.6 879.7,364 915.8,368.9 896.2,398.1 968.1,362.8 899.9,411 905.5,421.5 972.4,384.8 981.1,398.1 910.7,428.8 
		920.2,442.1 989.8,414.9 985.2,431.4 923.9,452.1 928.6,458.1 967.7,446.1 997.6,438.4 986.2,458.6 919.1,475.9 	"/>
	
		<polyline fill="none" stroke="#000000" stroke-width="22" stroke-linecap="round" stroke-linejoin="round" stroke-miterlimit="10" stroke-opacity="0" points="
		891,411 874.3,432.9 899.2,430.8 	"/>
	
		<path fill="none" stroke="#000000" stroke-width="22" stroke-linecap="round" stroke-linejoin="round" stroke-miterlimit="10" stroke-opacity="0" d="
		M1022.9,375.7c0,0-27.8,35.4-26.6,35.3s30.4-17.6,30.4-17.6l-9.8,21.5l34,3.1l-23.2,16.3l18.2-2"/>
	
		<polyline fill="none" stroke="#000000" stroke-width="22" stroke-linecap="round" stroke-linejoin="round" stroke-miterlimit="10" stroke-opacity="0" points="
		832,496.2 858.6,476.4 879.6,469.5 846.8,507.3 855.2,511.6 899.9,472.7 908.8,476.7 879.7,508.3 887.7,510.6 927.9,487.6 
		956.9,469.5 966.6,471 901.8,519.4 930,523.4 985.5,474.4 994.6,476.6 958,515.3 975.6,516.6 1008.5,480.5 1020.1,477.5 
		1017.2,494.2 1003.6,510.6 1019.6,506.4 	"/>
	
		<path fill="none" stroke="#000000" stroke-width="22" stroke-linecap="round" stroke-linejoin="round" stroke-miterlimit="10" stroke-opacity="0" d="
		M1018.3,469.5l-25-6.5c0,0-100.9-2.5-102.9-2c-2,0.6-24.5-1.1-24.5-1.1"/>
	
		<path fill="none" stroke="#000000" stroke-width="22" stroke-linecap="round" stroke-linejoin="round" stroke-miterlimit="10" stroke-opacity="0" d="
		M810.2,496.2l-16.6,14l4.3,16l25-11.5c0,0,19.4-1.5,19,0s-37,23.1-37,23.1s1.5,10.6,2.9,10.4c1.4-0.2,46-23.8,46-23.8h20.4
		l-50.4,35.1l3.3,15.2c0,0,56.4-42.9,56.8-42s12.7,2.8,12.7,2.8l-60.7,46l6,6.1l75.2-50.8H935l-74.9,54.4l8.7,4.9l84-55.6l21-1.4
		L884,602.7l15.9,6.6c0,0,94-74.2,94.2-72.6c0.2,1.5-33,36.3-33,36.3l-42.5,32.3c0,0,5.5,5.2,6.2,4c0.8-1.2,42.3-26.7,42.3-26.7
		l2.1,10.2c0,0-24.9,17.8-21.7,16.7s26.5-3.2,26.5-3.2"/>
</g>
</svg>
