<?xml version="1.0" encoding="utf-8"?>
<!-- Generator: Adobe Illustrator 23.0.3, SVG Export Plug-In . SVG Version: 6.00 Build 0)  -->
<svg version="1.1" id="Layer_1" xmlns="http://www.w3.org/2000/svg" xmlns:xlink="http://www.w3.org/1999/xlink" x="0px" y="0px"
	 width="1000px" height="1000px" viewBox="0 0 1000 1000" enable-background="new 0 0 1000 1000" xml:space="preserve">
<g id="vs-highlight">
	<path fill="#27A8CB" d="M230,94.9c3.2,0.7,0.5,40.4-3,90.1c-0.7,9.4-1.9,26.4,4,47c2,7,5.3,18.1,14,30c3.9,5.3,13.4,18.3,30,26
		c8.6,4,11.4,2.9,15,7c6.6,7.4,3.9,18,2.7,34c-0.8,11.3-0.2,20.8,1,39.8c1.9,29.8,3.2,50.4,18.2,65.3c2.4,2.4,15.9,15.9,34,15.9
		c13,0,21.4-6.8,25-3c3.4,3.6-2.5,11.1-6,26c-2.5,10.6-2,19.8-1,38c0.5,10.3,1.9,23.7,5,39.4c-8.3-0.1-20.1-1.4-32.7-7.2
		c-3.9-1.8-7.3-3.7-10.2-5.6c-0.4-32.8-0.7-65.7-1.1-98.5c-10.2-4.5-23-9.9-37.8-15.5c-30-11.4-42.7-13.9-62.6-26
		c-18.7-11.3-25.2-19.8-28.9-26.5c-2.3-4.1-5.2-10.6-7.6-26.4c-3.4-22.5-2.1-40.7-1-53.7c3.4-39.2,7.8-61.6,7.8-61.6
		C206.1,171.2,225.4,94,230,94.9z"/>
	<path fill="#27A8CB" d="M336.4,311.2c28.6,13.5,57.1,26.9,85.7,40.4c1,12,2,24,3,36c-33-13.5-66-27-99-40.5
		C329.5,335.1,333,323.2,336.4,311.2z"/>
	<path fill="#27A8CB" d="M414.6,117.6c0,17.1,0,34.3,0,51.4c38,15.4,76,30.7,114,46.1c-0.5-18.5-1-37-1.5-55.5
		C489.6,145.6,452.1,131.6,414.6,117.6z"/>
	<path fill="#27A8CB" d="M476.6,268.2c30.3,13.8,60.7,27.6,91,41.4c1,12,2,24,3,36c-33-13.5-66-27-99-40.5
		C473.3,292.8,474.9,280.5,476.6,268.2z"/>
	<path fill="#27A8CB" d="M356,552c0.2,39.4,0.6,72.5,1,97c1.3,83.3,2.7,105.5,5,128c3.7,35.8,6.2,58.9,15,89
		c11.3,38.5,26.9,68.2,39,88c-8.9-4.6-22.2-12.9-33.9-27c-15.8-19.1-20.7-39.1-23.1-49.7C340.8,795.2,341.2,714,341.2,714
		c0.2-37.3,0-93.4-2.1-164.4C344.7,550.4,350.4,551.2,356,552z"/>
</g>
<g id="vs-outline">
	<path fill="none" stroke="#000000" stroke-width="18" stroke-linecap="round" stroke-linejoin="round" stroke-miterlimit="10" d="
		M438.6,102.6c38,13,76,26,114,39c0.5,22,1,44,1.5,66c-8.5,2.5-17,5-25.5,7.5c-38-14.5-76-29-114-43.5c0-20.5,0-41,0-61.5
		C422.6,107.6,430.6,105.1,438.6,102.6z"/>
	<path fill="none" stroke="#000000" stroke-width="13" stroke-linecap="round" stroke-linejoin="round" stroke-miterlimit="10" d="
		M414.6,117.6c37.5,14,75,28,112.5,42c0.5,18.5,1,37,1.5,55.5"/>
	<path fill="none" stroke="#000000" stroke-width="13" stroke-linecap="round" stroke-linejoin="round" stroke-miterlimit="10" d="
		M520.7,157.2c10.6-5.2,21.3-10.4,31.9-15.6"/>
	<path fill="none" stroke="#000000" stroke-width="18" stroke-linecap="round" stroke-linejoin="round" stroke-miterlimit="10" d="
		M524.1,255.6c30.5,11.5,61,23,91.5,34.5c1,13.5,2,27,3,40.5c-16,5-32,10-48,15c-33-13.5-66-27-99-40.5c0.5-12,1-24,1.5-36
		C490.1,264.6,507.1,260.1,524.1,255.6z"/>
	<path fill="none" stroke="#000000" stroke-width="13" stroke-linecap="round" stroke-linejoin="round" stroke-miterlimit="10" d="
		M473.1,269.1c31.5,13.5,63,27,94.5,40.5c1,12,2,24,3,36"/>
	<path fill="none" stroke="#000000" stroke-width="13" stroke-linecap="round" stroke-linejoin="round" stroke-miterlimit="10" d="
		M567.6,309.6c16.2-4.1,32.4-8.1,48.5-12.2"/>
	<path fill="none" stroke="#000000" stroke-width="18" stroke-linecap="round" stroke-linejoin="round" stroke-miterlimit="10" d="
		M378.6,297.6c30.5,11.5,61,23,91.5,34.5c1,13.5,2,27,3,40.5c-16,5-32,10-48,15c-33-13.5-66-27-99-40.5c0.5-12,1-24,1.5-36
		C344.6,306.6,361.6,302.1,378.6,297.6z"/>
	<path fill="none" stroke="#000000" stroke-width="13" stroke-linecap="round" stroke-linejoin="round" stroke-miterlimit="10" d="
		M327.6,311.1c31.5,13.5,63,27,94.5,40.5c1,12,2,24,3,36"/>
	<path fill="none" stroke="#000000" stroke-width="13" stroke-linecap="round" stroke-linejoin="round" stroke-miterlimit="10" d="
		M422.1,351.6c16.2-4.1,32.4-8.1,48.5-12.2"/>
	<path fill="none" stroke="#000000" stroke-width="18" stroke-linecap="round" stroke-linejoin="round" stroke-miterlimit="10" d="
		M542.7,138.2c-1.7-10.9-5.9-28.1-17.1-46.1c-7.2-11.5-14.8-23.7-28.5-30c-5.9-2.7-17.7-5.7-58.5,6c-32.2,9.3-55.9,16.1-79.5,37.5
		c-23,20.9-33.5,44.4-39,57c-6.4,14.8-9,26.1-13.5,46.5c-3.4,15.4-8.5,41.3-12,81c0,0-6,66.8,3,106.5c0.8,3.6,3.4,14.1,10.5,25.5
		c3.4,5.5,7.5,11.8,15,16.5c7.7,4.8,15.3,5.7,21,6c26.9,1.6,53.9-6.2,58.5-7.5c5.8-1.7,10.7-3.3,63-22.5
		c6.8-2.5,32.5-12.1,58.5-28.5c4.3-2.7,10.1-6.5,15-13.5c9.4-13.2,9.3-28.5,8.5-36.4"/>
	<path fill="none" stroke="#000000" stroke-width="18" stroke-linecap="round" stroke-linejoin="round" stroke-miterlimit="10" d="
		M554.1,207.6c2.5,18.5,5,37,7.5,55.5"/>
	<path fill="none" stroke="#000000" stroke-width="18" stroke-linecap="round" stroke-linejoin="round" stroke-miterlimit="10" d="
		M497.1,62.1c-35.7-14.4-66.6-21.8-89.2-26c-22.3-4.1-43.9-7.9-72.8-5.5c-20.8,1.7-45.5,4.1-69,21c-12.1,8.7-19.4,18-24,24
		c-12.1,15.7-19,31.6-27,58.5c-11.1,37-17.3,71.1-21,100.5c-0.6,5.2-4.3,35.1-4.5,70.5c-0.1,22.1,1.3,12.5,1.5,36
		c0.1,13-0.3,20.8,4.5,30c0.6,1.2,3.9,7.4,10.5,13.5c7,6.5,13.9,9.4,16.5,10.5c13.3,5.7,53.3,23.4,107.8,47"/>
	<path fill="none" stroke="#000000" stroke-width="18" stroke-linecap="round" stroke-linejoin="round" stroke-miterlimit="10" d="
		M323.1,438.6c1.4,16.1,2.5,33.1,3,51c0.5,16.8,0.4,32.8,0,48c6.2,4,16.9,9.8,31.5,12c21.1,3.2,37.8-2.9,45-6
		c2-36.1,3.9-72.2,5.9-108.3"/>
	<path fill="none" stroke="#000000" stroke-width="18" stroke-linecap="round" stroke-linejoin="round" stroke-miterlimit="10" d="
		M339.1,549.6c0.1,53.6,0.7,100.7,1.5,139.5c0.6,30.7,1.7,76.6,9,135c5.5,44,9.9,59,16.5,73.5c7.7,16.9,24.9,53.5,66,75
		c29.8,15.6,58.6,16.2,75,15"/>
	<path fill="none" stroke="#000000" stroke-width="18" stroke-linecap="round" stroke-linejoin="round" stroke-miterlimit="10" d="
		M381.4,549.6c0.1,19.5,0.2,44.8,0.2,61.4c0.3,82.2,0.2,103.5,3,136.5c2.2,25.9,3.3,38.8,6.5,54.2c6.8,33,16.7,81.2,48.8,112.5
		c51.3,50,135.3,33.7,147.2,31.3"/>
</g>
<g id="vs-h-reveal">
	
		<path fill="none" stroke="#000000" stroke-width="81" stroke-linecap="round" stroke-linejoin="round" stroke-miterlimit="10" stroke-opacity="0" d="
		M425.1,125.2c11.2-0.6,22.4-0.4,33.6,0.8c2,0.2,4.4,0.8,4.9,2.7c0.6,2.7-3,4.1-5.8,4.4c-15.3,1.6-30.5,3.3-45.8,4.9
		c-0.7,2.1-0.8,4.3-0.3,6.4c27.8,0,55.5,0.1,83.3,0.1c1.8,0,3.7,0,5.2,1.1c3.1,2.1,2.1,7.3-0.9,9.5s-7,2.4-10.7,2.4
		c-22,0.3-44,0.5-66,0.8c-1.1,2.7,2.9,4.3,5.8,4.4c25.5,0.5,51,1.1,76.4,1.6c2.9,0.1,5.9,0.2,8.5,1.5c2.6,1.3,4.5,4.4,3.7,7.1
		c-1.2,3.8-6.2,4.6-10.2,4.5c-21.1,0-42.2-0.1-63.4-0.1c-1.4,0-2.8,0-4,0.6c-3.2,1.7-2.8,6.9-0.1,9.3s6.6,2.8,10.3,3
		c16.6,1.1,33.3,1.1,49.9,0.2c5.4-0.3,11-0.7,16,1.3c5,2,9.2,7.1,8.2,12.4c-10.7,0.1-21.3,0.2-32,0.3"/>
	
		<path fill="none" stroke="#000000" stroke-width="81" stroke-linecap="round" stroke-linejoin="round" stroke-miterlimit="10" stroke-opacity="0" d="
		M467.1,276.8c18.7,1.5,37.5,1.9,56.3,1.1c0.1,4.8-6.3,6.6-11.1,6.7c-8.5,0.3-16.9,0.6-25.4,0.9c-2.6,0.1-6.2,2-4.8,4.2
		c12.3,1,24.7,0.8,37-0.4c1.4-0.1,2.8-0.3,4.1,0.2c3.5,1.4,3.4,7,0.6,9.6c-2.8,2.6-6.9,3-10.8,3.3c-9.6,0.7-19.2,1.4-28.7,2
		c24.7,1.3,49.4,0.8,74-1.3c1.2,1.7,0.3,4.2-1.4,5.4c-1.7,1.2-3.8,1.5-5.9,1.8c-10.5,1.3-21.1,2.6-31.6,3.8
		c-2.2,0.3-4.4,0.6-6.1,1.9c-1.7,1.3-2.5,4.1-1,5.7c19.2,0.5,38.4-2.1,56.8-7.4c-1.3,7.8-11.2,10.2-19.1,10.8
		c1.8,0.4,3.6,0.8,5.4,1.3"/>
	
		<path fill="none" stroke="#000000" stroke-width="81" stroke-linecap="round" stroke-linejoin="round" stroke-miterlimit="10" stroke-opacity="0" d="
		M354.4,314.7c-10.3-3.2-22.4,1.2-28.4,10.2c12.7,2.2,25.9,2,38.5-0.5c4.3-0.9,8.9-2,12.8-0.2s5.9,8.1,2.2,10.5
		c-1.2,0.8-2.6,0.9-4,1.1c-7.7,0.8-15.5,1.1-23.3,0.9c-3-0.1-6.1-0.2-8.9,0.8s-5.3,3.6-5.2,6.6c19.8,0,39.5,0,59.3,0
		c1.9,0,4.5,0.9,4,2.7c-5.9,3.3-13.2,1.7-20,1.9c-6.8,0.1-14.9,3.7-15.1,10.4c12.2,0,24.5-0.1,36.7-0.1c2.4,0,4.9,0,6.9,1.3
		s3,4.4,1.3,6.1c-6.5-0.7-13.2,1.1-18.5,5c10.8,1.4,21.7,1.8,32.6,1.1c-1.1,0-2.2,0.1-3.3,0.1"/>
	
		<path fill="none" stroke="#000000" stroke-width="81" stroke-linecap="round" stroke-linejoin="round" stroke-miterlimit="10" stroke-opacity="0" d="
		M224.1,112.3c5.4-1.6,9.9,5.7,8.2,11c-1.7,5.4-6.9,8.7-11.7,11.7s-9.9,6.6-11.1,12.1c3.2,4.6,10.2,3.3,15.8,3s13.1,4,10.5,9.1
		c-1.1,2.2-3.8,3.1-6.1,3.8c-12.8,3.8-25.5,7.6-38.3,11.4c2.5,7.7,12.8,8.7,20.9,8.5s18.6,2,19.8,10c-16.4,5-33.7,7.1-50.8,6.1
		c7.7,7.3,19.5,7.1,30.1,8s22.9,5.2,25.3,15.6c-20.1-2.6-40.8,0.3-59.4,8.4c15.1,1.2,30.3,2.4,45.4,3.6c4.4,0.3,9.1,0.8,12.6,3.4
		c3.5,2.7,5.2,8.4,2.1,11.6c-1.7,1.7-4.2,2.3-6.5,2.7c-14.4,2.9-28.8,5.7-43.2,8.6c18.8,17.6,56.6-4.5,72.8,15.5
		c-24.2-0.8-48.6,0-72.7,2.5c-0.5,4.5,4.9,7.2,9.4,7.9c15.6,2.6,31.5-0.5,47.3-0.7s33.1,3.4,42.8,15.9c-34.4,3.4-69,4.6-103.5,3.4
		c-3.5,5.1,4.4,10.3,10.5,11.3c22,3.8,44.6,4.8,66.9,2.9c8.4-0.7,19.6,0.2,21.2,8.4c1.8,9.7-11.9,13.7-21.7,13.5
		c-24-0.5-48-1-72-1.5c-3,2.8,2.1,7.1,6.2,7.8c29.4,5.2,63.8-1.6,86.1,18.4c2,1.8,4,4.1,3.6,6.8c-0.6,3.8-5.2,5.1-9,5.5
		c-26.9,2.7-54.4-1.4-79.4-11.8c-1.9,6.3,6.1,10.9,12.6,11.7c12.3,1.6,24.8-0.7,37.1,0.2c12.4,0.9,25.7,6,30.9,17.3
		c-12,1.6-23.9,3.1-35.9,4.7c11.9,7.6,26.3,11.2,40.4,10.4"/>
	
		<path fill="none" stroke="#000000" stroke-width="81" stroke-linecap="round" stroke-linejoin="round" stroke-miterlimit="10" stroke-opacity="0" d="
		M327.1,454.6c-1.5-0.7-2.8,1.7-1.9,3.1s2.7,1.7,4.4,1.9c11.3,1.4,22.6,2.9,33.9,4.3c-0.1,4.7-0.3,9.4-0.4,14.1
		c-17.7-3.3-36.5-1-52.8,6.6c16.5,0.9,33.1,1.7,49.6,2.6c6.6,0.3,15.8,5.1,12.3,10.7c-1.1,1.7-3.1,2.6-5,3.4
		c-13.2,5.2-26.4,10.4-39.6,15.6c10.6,0.4,21.2,0.9,31.8,1.3c2.3,0.1,4.8,0.3,6.5,1.8c4,3.5,0.1,10.6-5.1,11.8
		c-5.1,1.3-10.4-0.8-15.7-1.2c-9.3-0.8-18.8,3.6-24.2,11.2c13.2,2.9,26.4,5.8,39.6,8.8c-8.4,9.8-19,17.8-30.8,23.1
		c2.7,5.5,9.1,8.9,15.2,8.1c-4.7,19-8.1,38.4-10,57.9c9.2-0.7,18.4-1.5,27.6-2.2c-14.3,3-25.6,16.7-25.6,31.3
		c5.5-1.5,11.4-3.1,16.9-1.8c5.6,1.3,10.7,6.6,9.7,12.3c-0.7,3.7-3.6,6.5-6.4,9c-6.8,6.1-13.6,12.2-20.4,18.2
		c6.9,4.2,14.8,6.6,22.9,6.8c-10.9,8.6-22.3,16.6-34,24c9.9,2.2,20.2,3.2,30.3,3c-4,4-8.3,8.5-9,14.1s4.2,12.2,9.7,10.7
		c-10.9,1.7-21.1,8.1-27.3,17.3c9.8,1.6,19.9,1.9,29.8,0.9c2,8.6-2.2,18.3-9.8,22.8c9.1,2.1,18.7,2.3,27.8,0.3
		c-22,20.2-12.9,56.8-24,84.6c12.7-6.5,25.5-13,38.2-19.5c-8.4,6.2-16.1,13.4-22.7,21.5c5.7-2.7,11.3-5.4,17-8.1
		c0.8,16.1-5.2,32.4-16.2,44.2c16.7-12,34.8-22,53.8-29.7c-15.8,9.1-29.4,21.9-39.5,37.1c5.5,1.1,11.4,0.7,16.7-1.4
		c2.4,4.6,6.4,8.3,11.1,10.5"/>
</g>
</svg>
