<?xml version="1.0" encoding="utf-8"?>
<!-- Generator: Adobe Illustrator 28.5.0, SVG Export Plug-In . SVG Version: 9.03 Build 54727)  -->
<svg isCommex="true" version="1.0" id="Layer_1" xmlns="http://www.w3.org/2000/svg" xmlns:xlink="http://www.w3.org/1999/xlink" x="0px" y="0px"
	 width="852px" height="1126px" viewBox="0 0 852 1126" enable-background="new 0 0 852 1126" xml:space="preserve">
<g>
	<g id="Layer_3">
		<g id="vs-primary">
			<path fill="#6495FB" d="M665.5,843.3l-0.2-5.4l-2.6,7.6c-0.6,1.8-1.2,3.5-1.8,5.3c-9.3,27.5-18.2,51-26.4,70l-0.5,1.1l38.9,9
				l-0.2-1.4c-3.6-29.8-6.1-58.9-7.3-86.4L665.5,843.3z"/>
			<path fill="#6495FB" d="M643.4,550.6L643.4,550.6c0,0,0-0.1,0-0.2c-17.2-22-33.7-35.6-44.6-43.2c-4.9-3.4-9.7-6.3-14.3-8.7
				l-1.5-0.8v7.6c0.1,0.9-0.2,1.8-0.8,2.6l0,0c-2.2,2.5-9.9,11-18.7,19.1c-12,11-20.3,16.1-26.1,16.1s-3-0.4-4.3-1.1
				c-6.2-3.6-5.9-14.4,1.2-35.1v-0.3c0.2-4.3,1-8.9,1.6-13.1c0.5-3.1,1.2-7.9,1.2-10.5v-1.4l-1.3,0.4c-2.3,0.7-4.6,1-6.7,0.8
				c-5.4-0.5-10.1-3.7-13.8-9.6l-0.7-1.1l-0.9,1c-5.4,5.8-11.6,8.4-15.8,9.5c-6.4,1.7-13.3,1.4-18.3-0.9c-2.9-1.3-4.9-3.2-6-5.4
				l-0.4-0.9l-0.9,0.3c-12.7,5-25.1,2.7-31.7-1.8c-2.8-1.9-4.7-4.3-5.3-6.9l-0.2-0.9h-0.9c-22.9,3.9-31.3,5-34.9,5s-1.3,0-1.7-0.2
				c-1.9-0.6-5.3-2.7-12-7l-0.5-0.3c-0.5-0.3-1-0.6-1.5-1l-0.8-0.5l-0.6,0.8c-3.5,5.1-21.2,32.1-29.1,63.2c-5.3,21-5,39.6,0.8,55.2
				l0.2,0.5h0.6c4.2,0.9,10.4,1.7,17.5,2.6h0.8c21.7,3,51.4,6.9,67.9,14.5l3.5,1.6l-2.3-3.1c-7.5-10.1-9.1-22.2-9.2-23.6
				c-0.1-1,0.2-2,0.8-2.8c0.6-0.8,1.5-1.3,2.5-1.4c1-0.1,2,0.2,2.8,0.8s1.3,1.5,1.4,2.5c0,0.1,1.5,12.1,8.5,20.9l1.1,1.4l0.6-1.7
				c3.3-8.9,5.4-13.5,5.5-13.7c0.4-0.9,1.2-1.6,2.1-2c0.9-0.3,2-0.3,2.9,0.1c1.9,0.9,2.7,3.1,1.9,5c0,0-2.8,6.1-7.3,18.6v0.2v0.2
				c0,0.8-0.2,1.5-0.7,2.2l-0.2,0.2v0.2c-5.5,15.6-10.5,33.1-15.1,52c-10.5,43.2-23.4,114.6-25.2,209.5v0.8l172.9,43.1l0.9,0.2
				l0.3-0.9c6-17.6,14.6-82.6,20.1-137.7v-0.7l-0.6-0.3c-8.5-3.7-17.5-8.2-26.6-13.6c-1.4-0.8-2.1-2.4-1.8-3.9
				c2.9-15.7,11.4-72.7-2.6-144.9c-0.2-1,0-2,0.6-2.8s1.4-1.4,2.4-1.6c1-0.2,2,0,2.8,0.6s1.4,1.4,1.6,2.4
				c9.3,48.1,10.5,102.1,3.2,144.3v0.7c-0.1,0,0.5,0.3,0.5,0.3c9,5.1,17.8,9.5,26.3,12.9c23.9,9.8,45.1,12.7,63.2,8.7
				c12.1-2.7,19.5-7.8,22.8-10.6l0.3-0.2v-0.3c9.4-49.1-18.5-167.3-57.1-212.4L643.4,550.6z"/>
		</g>
		<path fill="#E6074D" d="M649.2,1008.8c-0.5-0.2-1-0.5-1.3-0.9l0,0c-4.1-4.2-14-2.9-27.7,3.5c-9.9,4.6-18.7,10.5-21.2,12.2
			l-0.4,0.3v0.5c0,1.6,0.1,3.2,0.1,4.9v1.1h1.1c7.3-0.5,31.9-1.2,43.6,9.4l1.3,1.2l0.4-1.7c0.9-4.2,1.7-8.6,2.5-13.2
			c0.9-5.3,1.7-10.8,2.4-16.3v-0.8l-0.6-0.3L649.2,1008.8z"/>
		<path fill="#E6074D" d="M436,949.1c-2.6-8.8-7.8-13-10.7-14.8l-0.7-0.4l-0.6,0.6c-1.3,1.4-2.6,2.9-3.9,4.5
			c-4.5,5.6-8.4,11.4-11.6,17.4l-0.6,1.1l1.1,0.4c5.3,1.7,10.4,5.2,15.2,10.5c9.3,10.5,21.7,16.8,25.8,16.8c0.2,0,0.4,0,0.6,0h0.1
			c0.6-0.2,1.1-0.3,1.7-0.2h0.7c0,0.1,0.4-0.5,0.4-0.5c2.1-3.4,4.6-7.1,7.2-10.9l0.8-1.1l-1.3-0.4C451,969.5,439.5,961.2,436,949.1
			L436,949.1z"/>
		<g id="vs-secondary">
			<path fill="#E6074D" d="M484.9,385.9c-0.7-0.5-4-2.2-18.7-0.8c-2.2,0.2-4.7,0.5-7.8,0.9c-13.8,1.8-30.5,5-43.9,7.5l-1.3,0.3
				c-6.6,1.3-12.3,2.4-16.9,3.1c-11.2,1.9-17.6,7.9-20.9,12.6v0.2c-0.1,0-0.2,0.2-0.2,0.2c-0.2,0.6-0.4,1.2-0.8,1.6
				c-0.2,0.2-0.3,0.3-0.5,0.5h-0.2c0,0.1,0,0.3,0,0.3c-2.1,3.7-2.8,6.8-3,7.7c-0.2,1.3-1.2,2.3-2.5,2.5l-65.8,11.2v0.7
				c-1.5,5.9-2.7,14.3-4,25l-0.2,1.4l1.3-0.3c4.4-0.9,11.1-2,20.6-3.3c10.5-1.5,21.7-2.9,29.3-3.8h0.2c0.3-0.1,0.6-0.2,1-0.2h0.1
				c12-1.5,21.3-2.6,21.7-2.6c2.3-0.2,5.4,1.5,16.5,8.6c3.7,2.4,8.3,5.3,10,6.1h0.2h0.2c3.5,0,20-2.6,37.3-5.4l9.6-1.6
				c17.1-2.8,33.2-5.5,41-6.3c0.9-0.1,2.2-0.3,3.6-0.7c9-2.9,12.5-13.8,10.4-32.5C499.8,405.9,493.5,393.3,484.9,385.9L484.9,385.9z
				"/>
		</g>
		<g id="vs-skin">
			<path fill="#FACFBD" d="M664.2,783.4c-1,0-2,0-3,0c-13.7,0-28.5-2.9-44.2-8.7l-1.2-0.4v1.3c-1,8.1-3.9,36.8-7.8,66.2
				c-9.7,73.7-14.8,76.9-17.5,78.6c-0.2,0.1-0.3,0.2-0.5,0.3c-11.3,7.1-22.5,9.5-36.5,7.8c-28.9-3.7-48.4,1.1-58,14.1l-2.1,2.9
				l3.3-1.4c16-6.7,31.5-9.3,33.2-9.6c1-0.2,2,0,2.8,0.7c0.8,0.6,1.4,1.5,1.5,2.5c0.2,1,0,2-0.7,2.8c-0.6,0.8-1.5,1.3-2.5,1.5
				c-1.8,0.3-43.3,7.4-57.9,27.5c-33.8,46.2-36.1,69.9-32,81.5c2.5,7.1,8,12.2,16.9,15.3l1.2,0.4v-1.3c2-17.2,7.9-43.9,9.1-49.1
				c0.2-1,0.8-1.8,1.7-2.4c0.9-0.5,1.9-0.7,2.8-0.5c1,0.2,1.8,0.8,2.4,1.7s0.7,1.9,0.5,2.9c-2.4,10.4-8.7,40.4-9.3,53.4
				c0,1.7,0,3.1,0,4.1c0.4,3.1,5.4,8,14.2,11.2c9.7,3.5,18.9,3.3,22.9-0.5c0.1-0.1,0.2-0.2,0.3-0.3l0.5-0.3v-0.5
				c0.2-5.8,0.8-14,1.8-25.2c0.6-6.2,1.5-16.4,3-29.9c0-0.4,0-0.6,0-0.7c0.1-1,0.6-1.9,1.4-2.5s1.8-0.9,2.8-0.8
				c2.1,0.2,3.6,2.1,3.3,4.2c-2.5,21.6-4.9,48.7-4.9,58.7c0,1.1,0,2,0.1,2.7v0.5l0.5,0.3c2.1,1.2,7.3,2.6,13,2.6
				c2.6,0,5.2-0.3,7.8-1.1c3.3-1,5.9-2.7,7.6-5c1.1-1.4,1.9-3,2.4-4.9c5.6-19.6,7.8-46.2,7.8-46.4c0.2-2.1,2-3.6,4.1-3.5
				c2.1,0.2,3.6,2,3.5,4.1c0,1.1-2.3,27.6-8.1,47.9c-0.1,0.5-0.3,1-0.5,1.5l-0.3,0.8l0.8,0.4c10.6,5.3,19.1,6,25.2,2.1
				c3-1.9,5.6-4.9,7.7-8.9c6.2-11.7,8.6-31.7,7.4-61.1c-0.1-3.1-0.3-5.9-0.4-8.2v-1.1c-0.1-1.7-0.2-3.2-0.3-4.4
				c0-0.6,0.1-1.3,0.4-1.9c1.6-3,3.8-8.3,6.4-15.1c4.4-11.6,9.4-26.4,11.4-33.6c0-0.4,0.2-0.7,0.4-1c5-8.2,10.4-18.8,16.1-31.6
				c14.9-33.5,29.3-76.1,38.8-106c3.6-11.3,7.1-22.8,10.5-34.2l0.4-1.5l-1.5,0.2c-2.8,0.4-5.8,0.6-8.8,0.7L664.2,783.4z"/>
			<path fill="#FACFBD" d="M541.7,507.6c0,0.4,0,0.8-0.2,1.1c-6.4,18.5-5.7,24.5-5.1,26.2l0.3,0.7h0.8c1.9-0.2,7.7-2.1,21.8-15.2
				c7.4-6.9,14-14.1,15.8-16.1l0.3-0.3l-0.5-34.8l-1.4,0.6c-5.8,2.3-12,1.2-17.1-3.1l-0.8-0.7l-0.6,0.8c-3.4,4.4-7.1,8-10.8,10.8
				l-0.6,0.4l0.2,0.7c1.3,3.6,0.4,9.1-0.7,16c-0.6,4.1-1.4,8.8-1.5,12.8L541.7,507.6z"/>
			<path fill="#FACFBD" d="M297.5,467.2v0.7c0,0.2,0,0.4-0.1,0.6v0.9c-0.1,0,0.7,0.2,0.7,0.2c1.4,0.4,4.5,1.2,7.6,1.2s1.6,0,2.4-0.2
				l0,0h0.1c2.9-0.5,5.3-2.2,6.9-4.9l1-1.8l-2.1,0.3c-7.8,1.2-13.1,2.1-15.8,2.8L297.5,467.2L297.5,467.2z"/>
			<path fill="#FACFBD" d="M348.3,459.9l-0.3-0.2h-0.4c-8.4,1.1-16.1,2.1-22.8,3h-0.7l-0.2,0.8c-0.9,3.8-4.2,12.9-14.6,14.6
				c-1.1,0.2-2.4,0.3-3.7,0.3c-3.1,0-6-0.6-7.9-1l-1.1-0.3v1.2c-0.3,2-0.4,3.7-0.5,5.1c-0.5,6.2-0.7,7.6-0.9,8.4
				c-0.1,0.5-0.7,2.5-2.2,4.8l-0.7,1.1l1.3,0.4c8.4,2.5,16.5,5.1,23.5,7.5c13.9,4.8,23.4,8.9,29.1,12.4l1.1,0.7l0.4-1.3
				c1.6-5.3,3.5-10.8,5.8-16.4c6-14.7,12.8-26.9,17.5-34.5l0.7-1.2l-21.9-4.7C349.3,460.5,348.8,460.3,348.3,459.9L348.3,459.9z"/>
			<path fill="#FACFBD" d="M145.5,418.9v-1h-1c-9.5,0-40.8,1.4-43.3,25.1c-1.6,14.6,0.3,23.6,6,29.2c5.4,5.3,15.1,7.9,29.3,7.9
				c5.9,0,12.5-0.4,20-1.3l1.4-0.2l-0.6-1.2C147.4,455.9,145.1,428.7,145.5,418.9L145.5,418.9z"/>
			<path fill="#FACFBD" d="M302.1,418c1-0.2,2,0,2.8,0.7c0.8,0.6,1.3,1.5,1.5,2.5s0,2-0.7,2.8c-0.3,0.4-0.6,0.8-0.8,1.4l-0.9,1.8
				l15-2.6v-0.7c0.1-0.4,4.6-39.3-7.8-54l0,0c-2.8-3.3-6.3-5.1-10.5-5.3c-8.8-0.4-14.9-0.4-19.4-0.4c-11.5,0-15.7,0-27.2-5.9
				c-13.2-6.7-51.3-6.7-71,11H183c-1.6,2.2-3.1,4.2-4.7,6.1c-12.8,16.3-22.8,29.3-25,40.5c-0.2,0.8-0.3,1.6-0.4,2.5
				c-0.8,9.6,2.8,53.9,22.2,72.5c5.8,5.5,12.2,8.2,19.7,8h1.6l-0.7-1.4c-3-6.2-5.3-14.8-6.9-25.8c-2.1-14.8-2.2-28.8-2.2-30.4
				c0-2.1,1.7-3.8,3.8-3.8c1,0,2,0.4,2.7,1.1s1.1,1.7,1.1,2.7c0,0.6,0,14.8,2.1,29.4c3.5,24.5,9.7,30.1,13.1,31.3
				c5.4,1.9,10.9,2.6,15.8,2.6c7.5,0,13.9-1.6,17.5-3.3l1.2-0.6l-0.9-1c-7.4-7.8-10.7-22.4-9.9-43.4c0.2-4.1,0.5-8.3,1-13.1v-0.7
				l-0.6-0.3c-0.4-0.2-0.8-0.4-1.2-0.8l-4.2-4.1c-1.5-1.5-1.5-3.9,0-5.4c0.7-0.7,1.6-1.1,2.7-1.2c1,0,2,0.4,2.7,1.1l1.9,1.9l0.3-1.9
				c1.4-8.9,2.8-15.1,3.1-16.3c0.5-2,2.5-3.3,4.6-2.8c2,0.5,3.3,2.5,2.8,4.6c-4.1,17.3-11.4,65,3.6,78.2c1.7,1.5,3.6,2.5,5.7,3
				c12.2,3,21.3,2.4,27.2-1.7c3.7-2.6,4.9-5.8,5.1-6.7l0,0c0.1-0.9,0.4-3.7,0.7-7.2c0.3-3.5,0.6-7,0.9-10.5
				c1.9-20.7,4.8-45.3,10.2-52.7c0.6-0.8,1.5-1.3,2.5-1.5L302.1,418z"/>
			<path fill="#FACFBD" d="M684.6,228.9L684.6,228.9c-4.1-2.1-9.2-2.1-15.1,0.1c-5,1.9-10.6,5.3-16.6,10.2
				c-11.1,8.9-19.8,19.8-20.7,21.4c-3.5,5.9-9.8,9.5-20.2,11.7c-1,0.2-2.1,0-2.9-0.6c-0.9-0.6-1.4-1.5-1.6-2.5
				c-1.3-7.2-7.4-32.7-12.9-55.2l-0.2-0.7c-3.4-14-6.3-26.2-8.4-35l-0.5-2.1l-1.3,1.7c-3.3,4.3-6.9,8.3-7.9,9.4c-1,1.1-2.6,1.5-4,1
				s-2.4-1.8-2.5-3.3c-0.8-9.3-12.5-24.7-22.2-36l-1.1-1.2l-0.6,1.5c-0.2,0.5-0.5,1-1,1.4c-1.3,1.2-3.3,1.3-4.8,0.2
				c-24.2-18.2-67.2-26.5-84.5-29.2l-2.5-0.4l1.5,2c3.3,4.3,8.5,9.5,15.2,15.4c1.4,1.2,1.7,3.3,0.7,4.9c-1,1.6-3,2.2-4.7,1.5
				c-41.7-17.5-87.3-6.6-110.8,1.4l-3.8,1.3l4,0.6c4.3,0.7,9,1.2,13.9,1.5c1.9,0.1,3.3,1.6,3.5,3.4c0.2,1.8-1,3.5-2.8,4
				c-9.8,2.6-26.6,13.9-35.1,25.9l-2,2.8l3.2-1.3c5.2-2.1,12-2.4,20.1-0.8c1.2,0.2,2,1.3,2,2.5s-1,2.2-2.1,2.3
				c-5.5,0.6-13.5,2.1-20.2,7.7l-0.5,0.4l0.2,0.7c3.2,9.3,7.1,17.5,9.7,22.7l0.6,1.1l1-0.8c2.1-1.7,4.5-2.9,7.1-3.4
				c11.3-2.2,20.6,0,27.5,6.7c16.3,15.6,14.7,51.6,13.3,66.3l-0.2,1.7l1.6-0.7c1.9-0.8,3.2-1.4,3.8-1.7c0.8-0.3,1.6-0.3,2.4,0
				s1.4,0.9,1.7,1.7c0.7,1.6,0,3.4-1.6,4.1c-1.5,0.7-4.6,2-8.6,3.9c-9.7,4.5-26.6,12.7-31.3,17.2c-2.7,2.6-5.5,19,0.2,34
				c4.9,12.7,13.8,19.5,26.7,20.1c1,0,2,0,3,0c31.5,0,36.6-24.3,36.8-25.3c0.3-1.7,2-2.8,3.6-2.4c1.7,0.3,2.8,1.9,2.5,3.6
				c0,0.3-6.3,30.3-42.9,30.3s-2.1,0-3.3,0c-15.1-0.7-26.6-9.3-32.2-24.1c-6.1-15.9-4.3-35.3,1.2-40.7c1.9-1.8,5.4-4.2,10.5-7.1
				l2.1-1.2l-2.4-0.6c-5.5-1.4-10.5-4-14.8-7.5l-1.3-1.1l-0.3,1.7c-1,6.1-2.6,15-4.8,22.9c-2.8,10.1-4,57,23.9,84.3l0.8,0.7l0.7-0.8
				c5.7-6.6,13.6-10.9,22.8-12.5c4.7-0.8,10.7-1.9,18-3.3h0.5c0.2-0.1,0.4-0.2,0.6-0.2l0.8-0.2V386c0-0.3,0-0.6,0.1-0.9
				c0-0.1,5-13.2,15.6-16.2c4.1-1.2,8.4-0.7,12.8,1.4l1.3,0.6v-1.5c0.8-8.7,3.5-14.5,8-17.1c3.4-2,7.6-2.2,12.6-0.5l1.6,0.5
				l-0.4-1.7c-1.5-7.4-0.3-13.4,3.2-16.2c3.6-2.8,8.9-2.1,15.2,2.1l0.8,0.5l0.6-0.7c8.1-10.1,13.5-15.5,18.9-15
				c1.9,0.2,3.6,1,5.2,2.5l0.9,0.9l0.6-1.1c4.4-7.7,10.3-11.6,16.1-10.8c5.4,0.8,9.8,5.4,11.7,12.4l0.4,1.3l1.1-0.7
				c9.9-5.9,18.6-7.7,23.3-4.7c2.2,1.4,3.5,3.8,3.9,7.1v1.3c0.1,0,1.4-0.5,1.4-0.5c6.7-2.6,13.9-1.4,18.2,3.1
				c3.3,3.4,4.3,8,2.8,12.6l-0.4,1.3h1.4c8.2,0,18.9,2.5,22.1,9.3c1.4,3.1,1,6.4-1.3,9.8l-0.8,1.2l1.4,0.4c3.5,0.9,7.1,2.5,10.1,4.4
				l0.7,0.4l0.6-0.6c5.3-5.7,11.5-29.6,14.2-43.3l0.2-0.8l-0.8-0.3c-2-0.8-4-1.7-6-2.6c-0.9-0.4-1.6-1.2-2-2.1c-0.3-1-0.3-2,0.1-2.9
				c0.9-1.9,3.1-2.7,5-1.8c23.1,10.8,44.1,11.7,59,2.7c11.3-6.8,18.4-19,19-32.6c1.3-27.8-8.5-47.4-29.1-58.3L684.6,228.9z
				 M665,266.7l-0.8,0.9l1,0.7c4.2,2.8,13.8,10.6,12.2,20.9c-0.2,1.2-1.2,2-2.4,2s-0.2,0-0.4,0c-1.3-0.2-2.2-1.4-2-2.8
				c1.3-8-7.9-14.7-10.7-16.5l-0.8-0.5l-0.6,0.8c-4.9,6.6-9.7,15.5-14.3,26.6c-0.5,1.2-1.9,1.8-3.2,1.3c-1.2-0.5-1.8-1.9-1.3-3.2
				c5.2-12.4,10.7-22.3,16.4-29.4c8.9-11.2,16-13,19.7-13s1.1,0,1.5,0.1l-1.6,4.7C675.7,259.3,671.2,260.3,665,266.7L665,266.7z
				 M478.6,201.4c2.4-0.9,4.9-1.3,7.6-1.3c11.2,0,24.4,7.7,35.3,21.3c7.1,8.7,12.2,18.8,14.4,28.5c2.5,11.1,1.2,21.2-3.8,29.2
				c-0.1,0.2-0.2,0.3-0.4,0.5C520.5,290.3,513.2,294,503,294s-8.4-0.5-15-1.7c-12.6-2.3-27.1-27.9-29.2-51.7
				c-1.7-19.8,5.3-33.7,19.9-39.1L478.6,201.4z M505.4,176.3c0.7,1,0.5,2.4-0.5,3.2c-0.9,0.8-2.3,0.8-3.2,0
				c-8.5-7.7-27.6-6.5-38.5,2.4c-0.9,0.7-2.4,0.7-3.2-0.1c-0.9-0.8-1-2.2-0.3-3.2c0.5-0.6,11.5-15.6,25.4-15.6s0.3,0,0.5,0
				C493.1,163.2,499.7,167.7,505.4,176.3L505.4,176.3z"/>
		</g>
		<g id="vs-hair">
			<path fill="#D3A37F" d="M677.7,112.6l-0.5-0.5c-3.1-3.5-13.7-10.6-24.2-16.2c-1-0.6-1.8-1.6-1.9-2.7c-0.2-1.2,0.2-2.4,1-3.2
				c0,0,9.3-9.8,17.5-17.8l1.5-1.4l-2-0.3c-13.9-2-33.4,2.2-41.8,4.7c-1.2,0.4-2.6,0-3.6-0.8c-1-0.9-1.4-2.2-1.2-3.4
				c0-0.1,2.3-14.4,5.8-28.4l0.5-1.8l-1.8,0.6c-13.7,4.9-20.9,17.1-28.3,31.2c-0.8,1.5-2.5,2.3-4.2,1.9c-4.9-1.1-13.4-8.2-24.4-20.6
				l-2.2-2.5l0.5,3.3c0.8,5.4,1.9,10.5,3.3,15.3c0.4,1.5,0,3.1-1.3,4c-1.2,1-2.9,1.1-4.2,0.3c-32.7-18.5-59.6-26.8-76.4-30.5
				c-5.5-1.2-10.8-2.1-15.9-2.8l-3.2-0.4l2.5,2.1c4.9,4.3,9.9,8.3,14.6,11.7c1.5,1.1,2,3,1.2,4.7c-0.8,1.6-2.6,2.5-4.4,2
				c-72.1-19.3-127.4-14.7-153.9-10.3l-4.5,0.7l4.4,1.2c14.5,4,26.1,7.5,34.6,10.3c1.6,0.5,2.7,2.1,2.6,3.8c0,1.7-1.3,3.1-2.9,3.5
				c-45.1,10.4-74.7,28.2-91.7,41.4c-6.1,4.8-11.7,9.8-16.6,14.8l-2.6,2.7l3.6-1c15.6-4.5,36.2-10.8,45.9-14.7
				c1.6-0.7,3.4-0.1,4.5,1.3c1,1.4,1,3.3,0,4.6c-40.9,50.9-48.4,78.4-49.2,90.3l-0.2,2.5l1.9-1.7c3.4-3.1,8-6.5,12.8-10.1
				c5.9-4.4,12.6-9.4,18.3-14.7c0.8-0.7,1.8-1.1,2.8-1c1,0,2,0.6,2.7,1.4c6.9,8.3,5.5,19.9,3.2,28l-0.5,1.8l1.8-0.5
				c5.8-1.8,11.6-3,17.3-3.8c1.9-0.3,3.7,1,4.2,2.8c3.9,16.1,8.7,24.2,12,28.2l1.4,1.7l0.4-2.2c0.8-5.2,2.3-9.8,4.3-13.6l0.3-0.5
				l-0.4-0.7c-0.5-1-5.4-9.9-10-21.7l-0.7-1.8l-1.1,1.6l-0.3,0.3v0.6c0.1,1.3-0.9,2.5-2.1,2.6h-0.3c-1.3,0-2.3-0.9-2.4-2.2
				c0-0.7-0.5-6.9,2.6-12.9l0.2-0.4V193c-0.7-2.1-1.2-3.8-1.6-5.4c-0.2-0.8-0.1-1.7,0.3-2.5c4.5-9.3,15-19.9,27.4-27.8l2.2-1.4
				l-2.6-0.4c-9.3-1.6-13.9-3.3-14.1-3.4c-1.4-0.5-2.4-1.9-2.5-3.4c0-1.5,0.8-2.9,2.1-3.6c2.3-1.1,56.5-26.7,111.8-13.5l3,0.7
				l-2-2.3c-6.6-7.8-7.5-12.1-7.1-14.2c0.4-1.9,2.2-3.2,4.1-3c2,0.2,49.6,5.6,83.4,23.3l2.4,1.2l-1-2.5c-0.8-2.1-1.4-3.7-1.6-4.4
				v-0.3c-0.7-1.7,0-3.5,1.5-4.4s3.4-0.7,4.7,0.5c3,2.9,29.4,29.2,37.9,48.9l0.7,1.5l1-1.3c4.4-5.4,6.4-8.9,7-10v-0.2
				c0.4-1.7,1.8-2.9,3.5-3.1c2-0.2,3.7,1.2,4,3.2c0.7,4.4,5.3,23.5,10.2,43.6l0.6,2.5c4.6,19,9.8,40.5,12.1,51.4l0.2,1.1l1-0.3
				c6.9-2.1,9.2-4.7,10.5-7c1.7-2.8,11.1-14.2,22.4-23.3c4.9-4,9.7-7.1,14.2-9.3l0.8-0.4l-0.4-0.9c-2.1-5.2-3.5-13.2,1.9-21.9
				c5.9-9.5,4.7-17.3-4-26.1c-0.8-0.8-1.2-2-1.1-3.2c0.1-1.1,0.8-2.2,1.8-2.8c7.8-4.6,12.2-9.6,13.2-14.9c1.3-7.1-3.6-13.3-5.5-15.7
				l-0.2-0.3c0,0,0,0-0.1-0.2c-2.8-4.1,0.7-11.4,8.4-24.5l0.4-0.6L677.7,112.6z"/>
		</g>
	</g>
	<g id="Layer_2_00000004530128291009208460000014831970596560376224_">
		<path fill="none" stroke="#000000" stroke-width="6.8" stroke-linecap="round" stroke-linejoin="round" d="M391.5,296
			c0,0,13.1-86.1-37.2-76.3c-25.2,5.1-24.6,80,23,82.3"/>
		<path fill="none" stroke="#000000" stroke-width="8.2" stroke-linecap="round" stroke-linejoin="round" d="M401.1,292.4
			c0,0-33.5,14.6-40.9,21.7c-7.2,7.1-8.5,57.7,29,59.5s43.1-27.7,43.1-27.7"/>
		<path fill="none" stroke="#000000" stroke-width="6.8" stroke-linecap="round" stroke-linejoin="round" d="M384.7,297.5
			c0,0,2.1-7.7-4.1-6.2s-4.4,8.3,0.3,8.1"/>
		<path fill="none" stroke="#000000" stroke-width="6.8" stroke-linecap="round" stroke-linejoin="round" d="M380.6,293.9l-0.3,3"/>
		<path fill="none" stroke="#000000" stroke-width="6.8" stroke-linecap="round" stroke-linejoin="round" d="M325.9,206.6
			c0,0-2.5-26.4,29.8-20.1c-8.5,1-21.5,3.8-29,17.5"/>
		<path fill="none" stroke="#000000" stroke-width="6.8" stroke-linecap="round" stroke-linejoin="round" d="M461.6,179.9
			c0,0,22.8-31.2,41.7-2.3C493.7,169,473.4,170.4,461.6,179.9"/>
		<path fill="none" stroke="#000000" stroke-width="6.8" stroke-linecap="round" stroke-linejoin="round" d="M479.4,203.7
			c26.4-9.7,69.7,43.7,50.6,74.1c-15.4,14.8-22.6,15.4-41.7,12S442.2,217.4,479.4,203.7L479.4,203.7z"/>
		<path fill="none" stroke="#000000" stroke-width="6.8" stroke-linecap="round" stroke-linejoin="round" d="M509.9,289.3
			c0,0-8.2-8.2-3-13c5.7-1.1,10.5,8.9,7.9,10.9s-3.3-1.1-3.3-1.1l-2.5-7.5"/>
		<path fill="none" stroke="#000000" stroke-width="6.8" stroke-linecap="round" stroke-linejoin="round" d="M679.5,257
			c0,0-16.1-5.5-35.5,40.7"/>
		<path fill="none" stroke="#000000" stroke-width="6.8" stroke-linecap="round" stroke-linejoin="round" d="M662.4,269.3
			c0,0,14.4,8.2,12.6,19.4"/>
		<path fill="none" stroke="#000000" stroke-width="6.8" stroke-linecap="round" stroke-linejoin="round" d="M461,382.5"/>
		<path fill="none" stroke="#000000" stroke-width="9.6" stroke-linecap="round" stroke-linejoin="round" d="M343.7,225.6
			c0,0-10.5-18.9-15.3-38.7c7.1-14.8,28.4-29.8,40.6-33.1c-19.8-1.4-29.7-5.1-29.7-5.1s67.7-32.5,128.1-7.1
			c-21.5-18.9-20.2-24.9-20.2-24.9s62.9,6.8,95.3,31.2c-4.5-7.9-8.2-18.7-8.2-18.7s37.9,37.2,39.4,55.6
			c9.6-10.5,13.7-17.5,13.7-18.7c1.6,10,21.5,88.4,23.9,102.5c10.9-2.3,15.3-5.9,17.8-10s35.8-44.4,57.4-33.1s32.5,32.1,31.2,61.8
			c-1.4,29.7-31.4,57.4-83.4,33.2"/>
		<path fill="none" stroke="#000000" stroke-width="9.6" stroke-linecap="round" stroke-linejoin="round" d="M336.2,249.2
			c0,0-10.1-4.4-17.4-33.9c-14.8,2.1-26.2,7.1-26.2,7.1s11.2-21.6,1.1-33.9c-15.7,14.8-38,26.2-36.9,34.2
			c-7.1-12.3,0.7-46.7,47.8-105.5c-16.1,6.6-61.2,19.1-61.2,19.1s31.2-48.9,120.3-69.4c-20.5-6.8-53.3-15.3-53.3-15.3
			s69-22.1,175,6.2c-13.9-10.3-24.9-21.2-24.9-21.2s42.9-1.9,107.4,34.6c-4.8-16.7-4.8-31-4.8-31s23.2,28.7,32.1,30.8
			c9.3-17.8,18.3-32.1,38.8-35.1c-4.6,15.3-7.9,35.8-7.9,35.8s34.6-10.3,52.2-2.5c-8.6,7.8-23.5,23.5-23.5,23.5s27.3,14.6,27.1,20.5
			c-3.7,6.2-11.9,19.5-9.8,22.6c3,3.8,17.5,21.2-8.6,36.5c9.2,9.3,11.9,18.9,4.5,30.8c-7.4,11.9,0.4,22.3,0.4,22.3"/>
		<path fill="none" stroke="#000000" stroke-width="9.6" stroke-linecap="round" stroke-linejoin="round" d="M348.9,290.5
			c0,0-2.1,15.2-5.5,27.5s-4.1,63.1,28.2,91"/>
		<path fill="none" stroke="#000000" stroke-width="9.6" stroke-linecap="round" stroke-linejoin="round" d="M643,327.4
			c0,0-7.4,38.8-15.9,46.7"/>
		<path fill="none" stroke="#000000" stroke-width="9.6" stroke-linecap="round" stroke-linejoin="round" d="M322.9,424.6
			c0,0,7.8-62.5-21.9-63.8c-29.7-1.4-30.1,1.8-45.1-5.9s-54.7-7.2-75.6,11.9c-16.4,21.2-29.8,36.9-31,51.3s6.2,89.8,49.5,84.3"/>
		<path fill="none" stroke="#000000" stroke-width="9.6" stroke-linecap="round" stroke-linejoin="round" d="M190.6,441.3
			c0,0-0.3,58.1,17.8,64.2s37.2,0.7,40.3-4.1"/>
		<path fill="none" stroke="#000000" stroke-width="9.6" stroke-linecap="round" stroke-linejoin="round" d="M242.5,416.2
			c0,0-18.5,78.2,12,85.7s36.2-8.6,36.9-11.2s3.7-58.8,11.2-69"/>
		
			<line fill="none" stroke="#000000" stroke-width="9.6" stroke-linecap="round" stroke-linejoin="round" x1="230.9" y1="434.4" x2="235.2" y2="438.5"/>
		<path fill="none" stroke="#000000" stroke-width="9.6" stroke-linecap="round" stroke-linejoin="round" d="M295.3,472.7
			c0,0,7.4,2.7,13.4,1.6c10.3-1.6,11.8-12.8,11.8-12.8"/>
		<path fill="none" stroke="#000000" stroke-width="9.6" stroke-linecap="round" stroke-linejoin="round" d="M393.6,466.3"/>
		<path fill="none" stroke="#000000" stroke-width="8.2" stroke-linecap="round" stroke-linejoin="round" d="M148.2,414.9
			c0,0-46.7-3.8-50.2,27.7c-3.4,31.6,8.2,45.8,61.1,39"/>
		<path fill="none" stroke="#000000" stroke-width="8.2" stroke-linecap="round" stroke-linejoin="round" d="M79.1,427.6
			c0,0-23.8,10.3-6.8,29.8"/>
		<path fill="none" stroke="#000000" stroke-width="8.2" stroke-linecap="round" stroke-linejoin="round" d="M41.3,430
			c0,0-17.2,13.4-3.1,27.7"/>
		<path fill="none" stroke="#000000" stroke-width="8.2" stroke-linecap="round" stroke-linejoin="round" d="M301.7,430.6l65.9-11.2
			c0,0,3.8-21.5,28.2-25.6c24.3-4.1,82.7-17.5,91.2-10.3s15.7,20.2,17.4,34.9c1.6,14.6,1.1,34.6-16.8,36.6
			c-18,2.1-85.4,14.4-89.1,13.3s-23-15-25.7-14.8s-68.6,7.9-77,10.9"/>
		<path fill="none" stroke="#000000" stroke-width="8.2" stroke-linecap="round" stroke-linejoin="round" d="M465.7,380.7
			c0,0,34.2-15.3,46.1-8.5c-0.7,5.9-0.3,10.8-0.3,10.8s13.4,7.8,13.7,10c0.3,2.3-3.1,10.9-1.8,12.6s6.8,6.4,6.8,8.2
			s-6.8,9.8-5.7,13.3s7.5,13.3,2.1,15c-5.5,1.8-5.1,4.5-5.2,7.1s-20,6.2-29.5,5.6"/>
		<path fill="none" stroke="#000000" stroke-width="8.2" stroke-linecap="round" stroke-linejoin="round" d="M540.2,364.7"/>
		<path fill="none" stroke="#000000" stroke-width="6.8" stroke-linecap="round" stroke-linejoin="round" d="M509.2,370.9
			c0,0,43.7-3.7,52.6-16.7c8.9,11.6,19.8,66.4-6.6,84.2c-26.4,17.8-34.9,11.3-34.9,11.3"/>
		<path fill="none" stroke="#000000" stroke-width="6.8" stroke-linecap="round" stroke-linejoin="round" d="M531.4,412.5
			c1.1,0,34-7.9,40-14.8"/>
		<path fill="none" stroke="#000000" stroke-width="6.8" stroke-linecap="round" stroke-linejoin="round" d="M532.3,368.8
			c0,0,11.3,24.3,14.6,74.1"/>
		<path fill="none" stroke="#000000" stroke-width="6.8" stroke-linecap="round" stroke-linejoin="round" d="M417.5,386.2
			c0,0,9.8-25.6,29.8-10.5c-0.3-19.4,7.1-28,24.2-18.2c-6.4-14.8-2.5-30.3,15-16.8c12.7-16.1,19.1-22.3,25.6-10.7
			c8.9-22.1,25-16.8,26.7,1c12-8.6,31-15.3,27.3,3.4c14.4-10.5,30.3,1.8,20.2,14.8c14.4-2.3,36.9,5.1,20.8,19.1
			c14.4,0.3,40.6,18.5,3,24.9c10.3,4.1,15.7,27.6-7.9,28.3c12.3,9.6-6.6,39.6-19.1,21.5c4.5,21.2-15.3,34.2-27.6,19.4
			c-11.2,16.1-29.8,29-40.6,5.5c-14.1,20.5-42.1,14.6-39.4,4.1c-18.7,9.8-39,1.6-38-7.1"/>
		<path fill="none" stroke="#000000" stroke-width="6.8" stroke-linecap="round" stroke-linejoin="round" d="M667.5,389.3
			c20.2-1.8,21.9,27.9,2.2,28.2C650,417.8,649.5,390.8,667.5,389.3z"/>
		<path fill="none" stroke="#000000" stroke-width="6.8" stroke-linecap="round" stroke-linejoin="round" d="M715.8,364.2
			c8.5,9.2-2.6,22.1-13,13.9S705.4,352.9,715.8,364.2z"/>
		<path fill="none" stroke="#000000" stroke-width="6.8" stroke-linecap="round" stroke-linejoin="round" d="M618.2,517.8"/>
		<path fill="none" stroke="#000000" stroke-width="9.6" stroke-linecap="round" stroke-linejoin="round" d="M578.7,465l0.5,40.5
			c0,0-66.3,74.9-41.3,2.1c0.3-10.3,4.2-23.5,2.2-27.9"/>
		<path fill="none" stroke="#000000" stroke-width="9.6" stroke-linecap="round" stroke-linejoin="round" d="M350.5,456.8l24.1,5.2"
			/>
		<path fill="none" stroke="#000000" stroke-width="9.6" stroke-linecap="round" stroke-linejoin="round" d="M379.6,460
			c0,0-51.3,71.2-28.4,125.5c16.4,3.7,78.3,7.8,94.7,21.5"/>
		<path fill="none" stroke="#000000" stroke-width="9.6" stroke-linecap="round" stroke-linejoin="round" d="M286,499.8
			c0,0,58.4,16.4,62.9,25.6"/>
		<path fill="none" stroke="#000000" stroke-width="9.6" stroke-linecap="round" stroke-linejoin="round" d="M436.4,573.8
			c0,0,2.2,19.1,15.3,28.6"/>
		<path fill="none" stroke="#000000" stroke-width="9.6" stroke-linecap="round" stroke-linejoin="round" d="M459.3,581.9
			c0,0-46.3,100.2-48.9,289.8"/>
		<path fill="none" stroke="#000000" stroke-width="9.6" stroke-linecap="round" stroke-linejoin="round" d="M580.3,492.5
			c0,0,31.8,11.9,66,55.6c40.9,47.8,67.8,169.9,57.7,217.2c-13.7,12.7-52.5,29-120.8-11.2c6.4-34.6,8.5-89-2.6-146.3"/>
		<path fill="none" stroke="#000000" stroke-width="9.6" stroke-linecap="round" stroke-linejoin="round" d="M443.6,646.3"/>
		<path fill="none" stroke="#000000" stroke-width="9.6" stroke-linecap="round" stroke-linejoin="round" d="M612.4,770
			c0,0-13.8,140.8-23.9,147.1c-10,6.4-20.5,9.3-34.6,7.5s-48.9-5.2-63.1,18"/>
		<path fill="none" stroke="#000000" stroke-width="9.6" stroke-linecap="round" stroke-linejoin="round" d="M679,780.5
			c0,0-35.5,125.5-67,177.1c-3,11.2-13,39.6-18,49.5c0.7,19.8,9.8,114.5-47.2,84.1"/>
		<path fill="none" stroke="#000000" stroke-width="9.6" stroke-linecap="round" stroke-linejoin="round" d="M668.5,819.6
			c0.7,33.4,3.3,71.1,8.5,112.9"/>
		<path fill="none" stroke="#000000" stroke-width="9.6" stroke-linecap="round" stroke-linejoin="round" d="M530.4,938.1
			c0,0-44.4,7.1-60.4,29s-62.6,89.1-9.6,103.9"/>
		<path fill="none" stroke="#000000" stroke-width="9.6" stroke-linecap="round" stroke-linejoin="round" d="M471.9,1017.1
			c0,0-10.7,46.7-9.3,58.8c1.4,12,32.8,23.2,43.5,13"/>
		<path fill="none" stroke="#000000" stroke-width="9.6" stroke-linecap="round" stroke-linejoin="round" d="M512.9,1029.7
			c0,0-6.8,59.9-4.4,64.2c2.5,4.4,32.5,11.2,38.3-8.9c5.7-20.1,7.9-47.2,7.9-47.2"/>
		<path fill="none" stroke="#000000" stroke-width="9.6" stroke-linecap="round" stroke-linejoin="round" d="M489.7,944.9
			c0,0-17.8-14.1-28.3-26s-43.3-18-73.4,13.7s-5.7,77.6,5.2,82.3c11.9,2.7,38.7,8.5,40.6,12.3"/>
		<path fill="none" stroke="#000000" stroke-width="9.6" stroke-linecap="round" stroke-linejoin="round" d="M446.3,911
			c0,0-59.7,33.2-51.9,102.9"/>
		<path fill="none" stroke="#000000" stroke-width="9.6" stroke-linecap="round" stroke-linejoin="round" d="M425,929.9
			c0,0,10.5,4.1,14.6,18.2c4.1,14.1,20.8,21.5,25.3,20.9"/>
		<path fill="none" stroke="#000000" stroke-width="9.6" stroke-linecap="round" stroke-linejoin="round" d="M402.6,960.7
			c0,0,8.9-1,18.9,10.3c10,11.2,25,19.5,30.5,17.8"/>
		<path fill="none" stroke="#000000" stroke-width="9.6" stroke-linecap="round" stroke-linejoin="round" d="M601.1,991.8
			c0,0,50.2-21.9,56-20.9c5.9,1,26-4.5,35.9,6.8c-2.1,3.1-5.7,74.2-53.6,136.7c-11.3-2.3-23.8-7.1-25-9.6s-25.8-23.4-27.6-21"/>
		<path fill="none" stroke="#000000" stroke-width="9.6" stroke-linecap="round" stroke-linejoin="round" d="M656.6,973.4
			c0,0-1.9,98.4-37,130.5"/>
		<path fill="none" stroke="#000000" stroke-width="9.6" stroke-linecap="round" stroke-linejoin="round" d="M596.4,1020.8
			c0,0,40.9-29,54.1-15.6"/>
		<path fill="none" stroke="#000000" stroke-width="9.6" stroke-linecap="round" stroke-linejoin="round" d="M598.2,1034.3
			c0,0,39.6-3.6,46.5,13.8"/>
		<path fill="none" stroke="#000000" stroke-width="5.5" stroke-linecap="round" stroke-linejoin="round" d="M658.9,989
			c0,0,14.6,7.1,32.3-1.5"/>
		<path fill="none" stroke="#000000" stroke-width="5.5" stroke-linecap="round" stroke-linejoin="round" d="M656.6,1014.8
			c0,0,24.7,3.8,27.2-1.6"/>
		<path fill="none" stroke="#000000" stroke-width="5.5" stroke-linecap="round" stroke-linejoin="round" d="M652.6,1033.1
			c0,0,16.9,7.7,23.6,5.5"/>
		<path fill="none" stroke="#000000" stroke-width="5.5" stroke-linecap="round" stroke-linejoin="round" d="M647.1,1058.1
			c0,0,5.5,5.5,17.6,6"/>
		<path fill="none" stroke="#000000" stroke-width="5.5" stroke-linecap="round" stroke-linejoin="round" d="M638.8,1077.9l17.5,7.7
			"/>
		<path fill="none" stroke="#000000" stroke-width="5.5" stroke-linecap="round" stroke-linejoin="round" d="M630.7,1092.7
			c0,0,12.2,11.1,15.6,8.7"/>
		<path fill="none" stroke="#000000" stroke-width="9.6" stroke-linecap="round" stroke-linejoin="round" d="M389.6,929.2
			c0,0-20.9-18.5-25.7-17.5s-27.7,9.3-21.9,39.2c6.8,4.5,29.4,13.9,29.4,13.9"/>
		<path fill="none" stroke="#000000" stroke-width="5.5" stroke-linecap="round" stroke-linejoin="round" d="M369.1,914.2
			c0,0-18.7,21-14.1,44"/>
		<path fill="none" stroke="#000000" stroke-width="5.5" stroke-linecap="round" stroke-linejoin="round" d="M377.9,921
			c0,0-17.5,20-12,40"/>
		<path fill="none" stroke="#000000" stroke-width="9.6" stroke-linecap="round" stroke-linejoin="round" d="M353.7,913.8
			c0,0-23.5-23.5-50.3,7.1c-18.5,23,11.6,25,5.9,36.9s-29.8,29.8-13.3,62.2c25.6,31,57-21.2,41.4-45.1c0,0-14.2-12.8,2.5-28"/>
		<path fill="none" stroke="#000000" stroke-width="9.6" stroke-linecap="round" stroke-linejoin="round" d="M120.6,918.3"/>
		<path fill="none" stroke="#000000" stroke-width="12.3" stroke-linecap="round" stroke-linejoin="round" d="M28.3,864.3
			c0,0,269.5-8.1,294.8-9.7c21.5-1.4,39.4,5.1,39.4,5.1l224.2,55.9"/>
		<path fill="none" stroke="#000000" stroke-width="12.3" stroke-linecap="round" stroke-linejoin="round" d="M630.5,926.5
			l185.2,43.1"/>
		<path fill="none" stroke="#000000" stroke-width="8.2" stroke-linecap="round" stroke-linejoin="round" d="M708.4,1005.8
			l73.1,18.5"/>
		<path fill="none" stroke="#000000" stroke-width="8.2" stroke-linecap="round" stroke-linejoin="round" d="M47.5,918.3l234.4-10.9
			"/>
	</g>
	<g id="Layer_4">
		
			<polyline fill="none" stroke="#000000" stroke-width="30" stroke-linecap="round" stroke-linejoin="round" stroke-opacity="0" points="
			325.9,233.9 320,202.5 297.3,208.1 259.4,202.5 262.5,192 314.4,179.9 323.8,167 269.2,168.7 273.2,161.7 337.8,156.8 325.9,138 
			246.9,131.5 259.2,114 349.3,131.8 363.8,124.5 280.9,101.4 295.1,83.5 386.7,121.4 395.8,119.4 321.4,75.8 325.9,55.7 
			417.5,119.1 437.5,121.4 340.8,47.1 376.6,49.7 449.5,105.6 482.5,109.3 406.3,51.9 436.5,55.1 508.4,115.1 526.9,123.1 456,50.9 
			480.5,42.2 566.9,142.5 577.4,160.1 513.1,54 543.6,70.4 599.9,157.2 614.4,221.5 619.2,249.2 631.2,223.3 608.6,147.8 568,74.9 
			574.2,58.6 623.5,142.5 644,223.3 664.9,211 635.1,132.9 603.9,70.8 616.3,51.1 652.2,142.5 668.8,165.3 674.7,153.9 660.4,107.4 
			646.4,75.8 660.4,71.8 		"/>
		
			<polyline fill="none" stroke="#000000" stroke-width="60" stroke-linecap="round" stroke-linejoin="round" stroke-opacity="0" points="
			386.2,138.5 332.9,186.2 340.8,205 423.9,142.5 498,127.4 373.8,234 371.6,262.7 532.3,147.9 587,162.3 355.7,306.3 352.4,350.8 
			567,206.6 603.6,218.9 360.7,366.3 362.5,377.2 409.8,360.4 615.7,252.3 677.7,230.4 554.6,323 576.8,343 700.4,264 705.8,288.7 
			623.3,379 568.9,459.6 		"/>
		
			<polyline fill="none" stroke="#000000" stroke-width="18" stroke-linecap="round" stroke-linejoin="round" stroke-opacity="0" points="
			548.9,478.9 548.9,499.8 566.7,489.3 566.7,499.8 546.9,510.8 566.7,508.3 543.4,525.3 540.5,529.7 		"/>
		<path fill="none" stroke="#000000" stroke-width="40" stroke-linecap="round" stroke-linejoin="round" stroke-opacity="0" d="
			M332.9,511.5l19.5-36.9l-40.7,6.9l-3.8,11.6H186.7l-73-22.2l162.7-2.4l2.5-17.5l-166.7-1.9l4.4-22.6l163.8-1.5l22.2-15.9h9.4
			c0,0,2.9-13.7,0.4-13.3s-153.2,2.1-153.2,2.1l17.8-16.3l60.1-18.5l69.6,3"/>
		<path fill="none" stroke="#000000" stroke-width="40" stroke-linecap="round" stroke-linejoin="round" stroke-opacity="0" d="
			M627.3,791.8l3.1-1.1l14.2,7.3h14.2l-31.5,17.1l-3.1,19.6l20.4-8.4l-12.8,30l-14.5,2l-2.9,30.9l13.1-11.3l-19.3,44l-9.8,16.3
			l-95.6-8.2l-4.4,8.9l103.2,20.7l-3.5,15.3c0,0-104.4-5.6-105.1-4.4s-6.5,14.7-6.5,14.7l87.9,11.9l5.4,21.8l-109-25.1l-8.5,22.3
			l116.4,26.3c0,0-0.4,18.5-2.2,18.7s-130.3-28-130.3-28l13.8,25l113.3,19.8l-1.8,3.8l-59.8,5.7l-42.5-7.4"/>
		<path fill="none" stroke="#000000" stroke-width="40" stroke-linecap="round" stroke-linejoin="round" stroke-opacity="0" d="
			M298.2,443.9c0,0,90.6-27,86.9-26.1s59-20.1,59-20.1l30.5-5.2l-129.2,48.7l39.7,1.6l96-37l16.7,6.8l-97.5,36.3
			c0,0,55.6-10.3,58.1-10.5s32.4,2.7,32.4,2.7"/>
		
			<polyline fill="none" stroke="#000000" stroke-width="40" stroke-linecap="round" stroke-linejoin="round" stroke-opacity="0" points="
			413.8,941.1 445,973.4 619.5,1020.8 634,1020.8 		"/>
		
			<polyline fill="none" stroke="#000000" stroke-width="100" stroke-linecap="round" stroke-linejoin="round" stroke-opacity="0" points="
			400.3,478.9 383.5,489.1 373.5,539.4 501.8,468.4 551.6,489.1 410.4,581.9 439.5,619.3 618.2,529.7 655.9,568.3 429,686.5 
			422.6,749.2 670.2,629.9 672.9,686.5 408,812.1 443.6,837.9 691.1,736.1 606.9,819.6 509.2,871.7 612.4,876.1 672.7,905.2 
			676.9,856.3 		"/>
	</g>
</g>
</svg>
