<?xml version="1.0" encoding="utf-8"?>
<!-- Generator: Adobe Illustrator 19.1.0, SVG Export Plug-In . SVG Version: 6.00 Build 0)  -->
<svg version="1.1" id="Layer_2" xmlns="http://www.w3.org/2000/svg" xmlns:xlink="http://www.w3.org/1999/xlink" x="0px" y="0px"
	 width="640px" height="480px" viewBox="80 81 640 480" enable-background="new 80 81 640 480" xml:space="preserve">
<path fill="none" stroke="#000000" stroke-width="2" stroke-linejoin="round" stroke-miterlimit="10" d="M466.3,364
	c-2-1.7-3.2-4.3-3.2-6.9v-10.6c0-4.1,3.5-7.4,7.6-7c0.5,0.2,1.3,0.6,1.8,0.8l44.3,40.5c3.4,3,4.3,7.5,4.1,12c0,0.4-0.1,0.8-0.1,1.2
	c-0.9,6.7-9,9.6-14,5.2L466.3,364z"/>
<path fill="none" stroke="#000000" stroke-width="2" stroke-linecap="round" stroke-linejoin="round" stroke-miterlimit="10" d="
	M466.7,342.8c2.4,2.4,30.5,28.4,42.5,38.8c5.6,4.9,7.1,13.1,3.2,19.5c-0.1,0.1-0.1,0.2-0.2,0.3"/>
<path fill="none" stroke="#000000" stroke-width="2" stroke-linejoin="round" stroke-miterlimit="10" d="M498.8,378.9
	c-1.2,0.8-2.1,2.3-1.5,5.2c0.3,1.6,1.2,3.1,2.3,4.3c1.5,1.6,3.5,3.3,6.5,0.8c0,0,2.3-4.6-2.5-9.4
	C502.3,378.4,500.4,377.8,498.8,378.9z"/>
<path fill="none" stroke="#000000" stroke-width="2" stroke-linejoin="round" stroke-miterlimit="10" d="M500.4,378.9
	c0,0-2.1,4.1,1.5,7.9c2,2.2,4.6,1.2,4.6,1.2"/>
<path fill="none" stroke="#000000" stroke-width="2" stroke-linejoin="round" stroke-miterlimit="10" d="M512.9,339.8
	c-1.2-1.1-1.9-2.6-1.9-4.3v-12.2c0-4,3.4-7.4,7.4-7c0,0,1.3,0.2,1.3,0.3l44.9,41.1c3.4,3,4.3,7.5,4.1,12c0,0.4-0.1,0.8-0.1,1.2
	c-0.9,6.7-9,9.6-14,5.2L512.9,339.8z"/>
<path fill="none" stroke="#000000" stroke-width="2" stroke-linecap="round" stroke-linejoin="round" stroke-miterlimit="10" d="
	M514.5,319.7c2.4,2.4,30.5,28.4,42.5,38.8c5.6,4.9,7.1,13.1,3.2,19.5c-0.1,0.1-0.1,0.2-0.2,0.3"/>
<path fill="none" stroke="#000000" stroke-width="2" stroke-linejoin="round" stroke-miterlimit="10" d="M546.6,355.7
	c-1.2,0.8-2.1,2.3-1.5,5.2c0.3,1.6,1.2,3.1,2.3,4.3c1.5,1.6,3.5,3.3,6.5,0.8c0,0,2.3-4.6-2.5-9.4
	C550.1,355.3,548.2,354.7,546.6,355.7z"/>
<path fill="none" stroke="#000000" stroke-width="2" stroke-linejoin="round" stroke-miterlimit="10" d="M548.2,355.7
	c0,0-2.1,4.1,1.5,7.9c2,2.2,4.6,1.2,4.6,1.2"/>
<path fill="none" stroke="#000000" stroke-width="2" stroke-linecap="round" stroke-linejoin="round" stroke-miterlimit="10" d="
	M534.3,330.1l0.9-24c0-10.1-4.3-18.9-14.2-16.1c-0.2,0-4.8,1.3-5,1.4c0,0-40.4-18.3-61.5-47.1c0,0-4.5-11.7-22-18.2
	c-4-1.5-8.5-1.5-12.5,0c-11.3,4.2-36.4,13.9-47.5,19.4c-3.2,1.6-5.6,4.5-6.6,8l-7.8,29c0,0-0.1,0.9-0.2,2.2
	c-0.7,8.9,3.6,17.5,11.2,22.2c15.6,9.7,46,28.4,59.9,52.3c0,0,0.5,5.8,0.2,8.3c-0.4,4,1.1,8,4,10.8c0,0,5.8,6.4,13.1,2.6l26.4-11.3"
	/>
<line fill="none" stroke="#000000" stroke-width="2" stroke-linecap="round" stroke-linejoin="round" stroke-miterlimit="10" x1="494.4" y1="359.7" x2="520.1" y2="347.9"/>
<path fill="none" stroke="#000000" stroke-width="2" stroke-linecap="round" stroke-linejoin="round" stroke-miterlimit="10" d="
	M512.8,293.1l-65.1,27.3c-6.6,3-11.5,8.7-13.5,15.6l-1.8,32.5"/>
<path fill="none" stroke="#000000" stroke-width="2" stroke-linecap="round" stroke-linejoin="round" stroke-miterlimit="10" d="
	M370.9,249l-1,10.9c-0.4,4,1.7,7.7,5.2,9.6l11.7,6.1c9.7,5,18.6,11.4,26.4,19l28.9,28"/>
<path fill="none" stroke="#000000" stroke-width="19" stroke-linejoin="round" stroke-miterlimit="10" d="M393,236.4
	c-12.1-31.7-38.5-65.5-82.4-62.5c-34.6,2.3-63.4,27.2-72.2,60.8c-9.9,37.6-8.4,85.8,88.6,103.3c68.7,12.4,79,157-59,123"/>
</svg>
