<?xml version="1.0" encoding="utf-8"?>
<!-- Generator: Adobe Illustrator 15.0.0, SVG Export Plug-In . SVG Version: 6.00 Build 0)  -->
<!DOCTYPE svg PUBLIC "-//W3C//DTD SVG 1.1//EN" "http://www.w3.org/Graphics/SVG/1.1/DTD/svg11.dtd">
<svg version="1.1" id="Layer_1" xmlns="http://www.w3.org/2000/svg" xmlns:xlink="http://www.w3.org/1999/xlink" x="0px" y="0px"
	 width="135.33px" height="147.062px" viewBox="-22.44 -31.796 135.33 147.062"
	 enable-background="new -22.44 -31.796 135.33 147.062" xml:space="preserve">
<path fill="#D37199" d="M-0.567-5.661c-4.275-2.308-11.53,1.085-16.45,2.229c-0.298,6.054-0.062,14.489-1.326,20.175
	C3.646,31.517,11.808,50.78,17.75,76.346c8.74,0.447,24.17,0.779,32.913,0.334C49.991,51.948,76.26,38.277,93.978,25.977
	c0.143-7.963,1.444-17.295,0.787-25.256c-2.351-0.17-5.807-0.757-8.143-0.155"/>
<path fill="none" stroke="#000000" stroke-width="1.5" stroke-linecap="round" stroke-linejoin="round" stroke-miterlimit="10" d="
	M-0.567-5.661c-4.275-2.308-11.53,1.085-16.45,2.229c-0.298,6.054,0.493,12.893-0.779,18.582c29.009,9.508,33.264,36.5,39.208,62.07
	c8.737,0.444,17.905,0.44,26.649,0c-0.668-24.736,25.238-45.772,45.666-52.96c0.146-7.963,1.689-15.572,1.04-23.538
	c-2.354-0.17-5.809-0.757-8.149-0.155L-0.567-5.661z"/>
<path fill="none" stroke="#000000" stroke-width="1.5" stroke-linecap="round" stroke-linejoin="round" stroke-miterlimit="10" d="
	M-15.659,15.235c-1.777,0.14-1.011,3.205-0.214,4.078c1.313,1.441,4.166,1.301,5.698,0.265c-1.339,1.255-0.772,4.849,0.588,5.911
	c2.229,1.739,4.608-0.095,6.673-0.675c-0.932,2.247-1.429,4.823,0.181,6.924c1.644,2.15,4.77,2.897,7.208,1.988
	c-1.174,2.028-1.37,5.891,0.134,7.857c1.111,1.465,3.689,1.563,5.396,1.551c-0.511,2.487-1.572,4.229-0.621,7.018
	c0.998,2.922,3.18,6.479,6.686,5.406c-4.044,1.964-3.472,9.073,1.479,9.365c-1.974,1.396-2.674,4.218-2.481,6.553
	c0.146,1.749,0.657,2.433,2.169,3.363c0.71,0.436,3.345,1.84,3.71,1.006"/>
<path fill="none" stroke="#000000" stroke-width="1.5" stroke-linecap="round" stroke-linejoin="round" stroke-miterlimit="10" d="
	M48.647,77.524c1.447-1.19,3.059-1.074,3.502-3.698c0.354-2.083-0.714-3.688-2.165-5.048c3.008-1.673,5.361-5.658,3.671-9.067
	c1.389-0.76,3.271-0.879,3.873-2.67c0.42-1.253,0.183-3.503,0.198-4.855c3.694,0.03,5.911-2.952,6.038-6.212
	c1.497-0.174,3.54-0.785,4.507-2.031c0.827-1.064,0.578-2.102,0.881-3.345c1.983,0.098,4.747-0.663,6.016-2.326
	c1.039-1.365,0.59-3.074,1.039-4.731c3.618,2.378,8.63-1.18,8.758-5.032c2.487,0.96,6.501,1.188,8.389-1.158
	c0.791-0.986,0.331-2.235,1.29-3.053"/>
</svg>
