<?xml version="1.0" encoding="utf-8"?>
<!-- Generator: Adobe Illustrator 27.9.1, SVG Export Plug-In . SVG Version: 6.00 Build 0)  -->
<svg isCommex="true" version="1.1" id="Layer_1" xmlns="http://www.w3.org/2000/svg" xmlns:xlink="http://www.w3.org/1999/xlink" x="0px" y="0px"
	 width="666.2px" height="766.9px" viewBox="0 0 666.2 766.9" enable-background="new 0 0 666.2 766.9" xml:space="preserve">
<path fill="#F79645" d="M558.8,74.4c-1.6,0.4-2.9,0.8-3.8,1.1l-0.6,0.2l-0.1,0.6c-0.4,2-0.8,4.1-1.2,6.2l-0.8,4.2
	c-0.4,2-0.7,3.9-1.1,5.9l-0.3,1.5l4.5-1.1l0.1-0.6c1.4-6,2.8-11.6,4.4-16.6l0.5-1.7L558.8,74.4z"/>
<path fill="#F79645" d="M513.3,64.5l4.7-1.7c10.6-3.9,10.9-4,11.4-4c0.7,0,1.4,0.3,1.9,0.9c0.7,0.8,0.8,0.9,0.3,4l-0.2,1.4l20.6-4.7
	l0.1-0.7c0.7-4.2,1.3-7.7,1.8-11l0.2-1.1H553c-25.8-1.1-54,12.7-62,16.9l-0.5,0.3v0.6c-0.1,1.8-0.2,3.8-0.4,5.6l-0.1,2.2l1.4-0.5
	C499.1,69.7,506.9,66.8,513.3,64.5z"/>
<path fill="#F79645" d="M529.7,76.3c-0.9,5.7-2.2,14.3-3.6,23.5l-0.3,1.8l1.6-0.7c1.6-0.7,3.6-1.5,5.7-2.4l0.5-0.2l0.1-0.5
	c1.5-9.9,2.9-17.9,3.8-22.8l0.3-1.6l-8,2.4L529.7,76.3z"/>
<path fill="#F79645" d="M524.8,65.5c-1.1,0.4-2.3,0.8-3.5,1.3l-4.1,1.5c-7.9,2.9-18.6,6.9-28.6,10.5c-9.1,3.3-15.7,5.6-20.3,7.1
	l-0.5,0.2l-0.1,0.5c-1.1,3.7-2,9.6-2.9,17.4l-0.2,1.6l1.5-0.5c10.6-3.7,45.8-15.9,56-17.3l0.7-0.1l0.1-0.7c0.7-4.4,1.3-8.5,1.9-12.1
	l0.3-2.1c0.2-1.3,0.4-2.6,0.6-3.8l0.6-4L524.8,65.5z"/>
<path fill="#6495FB" d="M547.6,116.8L547,117l-0.1,0.7c-4,24.4-5.8,44.5-6,65.2c0,0.8-0.4,1.6-1.1,2c-1.9,1.3-4.6,2.9-8,4.7
	l-0.6,0.3v0.6c0.2,3.3,0.4,6.2,0.7,8.8c0.1,0.9-0.3,1.9-1.1,2.4c-12.3,7.8-31.2,17.2-44.8,23.7l-0.5,0.2l-0.1,0.5
	c-0.5,2.5-0.6,4.9-0.5,6.7l0.1,1.5l1.3-0.7c8.5-4.6,32.1-15.1,60.2-21.7l0.8-0.2v-0.8c-1.7-33.4-0.5-64.9,3.6-93.4l0.2-1.4l-1.4,0.3
	C549,116.5,548.2,116.6,547.6,116.8z"/>
<path fill="#6495FB" d="M531,184.2l1.5-0.8c1-0.5,2-1.1,2.9-1.7l0.5-0.3v-0.5c0.3-20.6,2.2-40.7,6.2-65.1c1.5-9.2,3.2-18.3,4.8-26.8
	l0.3-1.6l-7,1.8l-0.1,0.6c-0.5,2.8-0.9,5.7-1.4,8.9c-1.3,8.9-2.5,17.4-3.5,25.3c-2.9,23.5-4.3,43.1-4.2,58.5V184.2z"/>
<path fill="#6495FB" d="M511.5,190.7v-0.6c0.3-3.1,0.8-10.4,1.7-27.3c0.4-7.9,1.7-19.8,4-36.5l1.2-8.7l-1.5,0.5
	c-8.1,2.7-22.5,7.6-28.3,9.5l-0.9,0.3l0.3,0.9c0.7,2.4,0.9,4.9,0.8,7.5l-0.1,1.6l17.4-6.8c0.3-0.1,0.7-0.1,1,0.1
	c0.3,0.2,0.4,0.6,0.4,0.9c0,0.3-4.8,29.6-4.5,43.9c0,0.4-0.2,0.8-0.6,0.9c-7.8,3.8-14.5,7.3-19.8,10.1l-0.6,0.3
	c-8.8,4.6-12.9,6.7-14.6,6.7c-0.4,0-0.7-0.1-1-0.4c-0.6-0.6-1-4.3,1.9-29.4l0.2-1.7l-1.6,0.7c-0.2,0.1-0.4,0.2-0.7,0.3l-0.2,0.1
	c-1.9,0.8-3.8,1.5-5.6,2.6l-0.5,0.3v0.5c-0.2,2.9-2.2,28.6-7,49.5l-0.4,1.9l1.8-0.8c2.7-1.1,6.6-2.9,11.4-5.1
	c13.4-6.1,32.2-15.1,45.4-21.5L511.5,190.7z"/>
<path fill="#6495FB" d="M485.1,220.1L485.1,220.1l0.4-0.2c12.1-5.8,29-14.2,40.6-21.4l0.5-0.3l-0.1-0.6c-0.3-2.9-0.5-6.1-0.6-9.7
	c-0.5-15.7,0.7-36.3,3.7-61.2l0.2-1.4l-1.4,0.3c-2.3,0.6-4.4,1.1-5.7,1.4l-0.6,0.2l-0.1,0.7c-2.2,16.3-3.4,27.8-3.8,35.3
	c-1.1,20.5-1.8,28.9-2,29.8c-0.2,0.8-0.7,1.4-1.4,1.7c-2.7,1.3-27.1,13.1-45.1,21.4l-0.6,0.3v11.2l1.6-0.7c2.5-1.2,5.9-2.7,9.8-4.6
	l0,0C482.1,221.6,483.6,220.9,485.1,220.1z"/>
<g id="vs-primary">
	<path fill="#E6074D" d="M276.6,327.3l-0.5,0.4l0.4,1.9c3.9,22.2,4.8,53.1,2.8,61.9c-0.2,0.9-1,1.7-1.9,1.9c-0.2,0-0.4,0.1-0.6,0.1
		c-0.8,0-1.5-0.4-2-1c-7.1-9.2-10.6-12.8-11.3-13.4l0,0c-1-0.9-1.1-2.5-0.2-3.5s2.5-1.1,3.5-0.2c0,0,1.8,1.5,6.6,7.3l1.7,2l0.1-2.6
		c0.5-12.8-0.7-34.6-3.6-51.5c-0.2-1.1-0.4-2.3-0.7-3.5c-0.9-4-2-7.2-3.2-9.4l-1.9-3.5v3.9c0,1.9,0,4.1,0,6.5
		c-0.3,21-3.3,30.6-5.9,39c-1.1,3.7-2.2,7.2-3,11.5c-2.4,12.9-4.2,25-4.6,27.3v0.6l0.3,0.3c6.8,7.3,11.1,13.6,11.1,13.7
		c0.8,1.1,0.5,2.7-0.7,3.5c-0.4,0.3-0.9,0.4-1.4,0.4c-0.8,0-1.6-0.4-2-1.1c0-0.1-5.2-7.5-12.7-15.3c-0.8-0.8-1.6-1.6-2.4-2.4
		c-8.9-8.6-11.9-10.5-30.3-15.3c-19.3-5-26.8-9.5-42.3-25.1c-0.8-0.8-1.5-1.5-2.2-2.3l-2.1-2.3l0.4,3.1c0.5,3.9,1.8,7.9,3.7,12
		c0.2,0.5,0.4,0.9,0.7,1.4c6.3,12.7,17.6,27.5,28.9,37.8c3.9,3.6,7.1,6.5,9.4,8.6l1.1,1l0.5-1.5c4.1-12.7,8.3-21.4,11.4-23.7
		c0.5-0.4,1.2-0.6,1.9-0.5c0.7,0.1,1.2,0.4,1.6,1c0.4,0.5,0.6,1.2,0.5,1.9c-0.1,0.7-0.4,1.2-1,1.6c-3.1,2.3-8.4,16.9-11,25.5l-0.3,1
		l1,0.3c16.2,4.7,32.9,7.5,49.5,8.2l1.3,0.1l-0.3-1.3c-0.7-2.9-1-4.8-1-5.8c0-1.4,0-2.9,26.9-16.2l0.9-0.4l-0.4-0.9
		c-4.9-10.4-5.8-13.4-5.8-14.3c-0.1-1.1-0.3-3.6,14-13.4l0.4-0.3l0.1-0.4c0.4-3.6,0.8-7,1.2-10.1c1.5-13.8,2.7-25.8,9.7-42.6
		c7.2-17.3,15-32.2,23.2-44.3l3.6-5.3l-5,3.9C314.2,299.5,285,321.1,276.6,327.3z"/>
	<path fill="#E6074D" d="M316.8,496.5l-1.6,2c-5.4,7.1-12.3,11.5-20.6,13.1l-1.2,0.2l0.4,1.1c0,0,0,0.1,0.1,0.2
		c0.2,1.2-0.7,2.3-1.7,2.7c-0.5,0.2-1.4,0.4-2.4,0.4c-4.8,0-13.7-2.5-25.8-7.2c-16-6.2-40.9-12.4-50.8-14.8l-0.4-0.1l-0.3,0.2
		c-5.4,3-12.6,4.7-21.4,5.1c-0.1,0-0.1,0-0.2,0c-1.3,0-2.4-1.1-2.5-2.4c-0.1-1.4,1-2.5,2.4-2.6c3.5-0.1,6.8-0.5,9.7-1.1l4.7-0.9
		l-4.7-1c-6.7-1.4-12.2-2.5-15.1-2.8c-0.7-0.1-1.3-0.4-1.7-0.9c-0.4-0.5-0.6-1.2-0.5-1.8c0.1-0.7,0.4-1.3,0.9-1.7
		c0.5-0.4,1.2-0.6,1.8-0.5c4.9,0.6,15.3,2.7,27.1,5.5c21.7,5.1,41.4,10.9,52.8,15.3c6.3,2.5,11.7,4.3,16.1,5.5l2.1,0.6l-1-2
		c-2.7-5.5-4.3-13.5-4.7-23.7c-0.8-19.8,4-35.6,6.9-43.3l0.5-1.4l-1.5,0.1c-3,0.1-6.1,0.2-9.4,0.2c-21.8,0-43.3-3.3-64.1-9.7
		c-18.8-5.8-30.2-12.3-31.4-13c-1.2-0.7-1.6-2.2-0.9-3.4c0.7-1.2,2.2-1.6,3.5-0.9s8.5,4.7,20.4,9l4.8,1.8l-3.8-3.4
		c-1.4-1.3-2.9-2.6-4.2-3.8l-1.6-1.5c-10.6-9.7-21-22.9-27.9-35.3l-0.8-1.4l-0.6,1.1c-1.7,2.4-4.3,6.4-7,11.6
		c-4.3,8.3-9.8,21.7-11.6,38.4c-3.1,27.9,16.6,70.9,23.1,85c0.5,1.2,1,2.2,1.5,3.2l0.1,0.2c1.2,2.6,2.1,4.6,2.5,5.6
		c0.2,0.6,0.2,1.3-0.1,1.9c-0.3,0.6-0.8,1.1-1.4,1.3c-0.7,0.3-1.4,0.2-2.1-0.2l-1.3-0.7l-0.2,1.5c-1.8,15.7-4.4,37.4-7,51.8
		c-3.2,17.7-3.2,28.6-3.1,32.4v0.4l0.3,0.3c1.2,1,3.7,3,7.8,5.3c9.9,5.6,27,12.2,53.3,12.2c0.9,0,1.8,0,2.7,0
		c17.5-0.3,35.1-3.1,50.8-8.2l0.3-0.1c0.2-0.1,0.4-0.3,0.7-0.3c0.1,0,0.3-0.1,0.5-0.1h0.2l0.2-0.1c16.7-5.6,30.4-13.4,38.4-22
		c1.5-1.6,2.8-3.3,3.9-4.9l0.2-0.2V594c0.8-25.8-1.6-74.3-3.6-95L316.8,496.5z"/>
</g>
<g id="vs-secondary">
	<path fill="#FFE400" d="M293.6,415.9c-8.9,4.4-19.9,10.2-23.3,12.5l-0.5,0.4l0.1,0.6c0.2,1.2,0.7,3.2,1.2,5.2l0.2,0.7h0.8
		c1.1,0,2.1,0,3.2,0c5,0,10-0.2,14.9-0.5l0.7-0.1l0.2-0.7c1.5-6.1,2.8-11.7,4-17l0.5-2L293.6,415.9z"/>
</g>
<path fill="#517AD0" d="M314.5,608.1c-8.5,6.9-20,13-33.3,17.7l-0.7,0.3l0.1,0.8c0.6,6.5,0.1,19.3-10.7,32.6l-2,2.5l3.1-0.9
	c7.9-2.3,13.4-5.2,16.6-8.7c1.1-1.2,3-1.3,4.2-0.2c0.6,0.5,0.9,1.3,1,2.1c0,0.8-0.2,1.6-0.8,2.2c-7.1,7.8-21.9,11.5-30.1,13
	c-1.7,0.3-3.4,0.6-5.1,0.8l-0.7,0.1l-0.2,0.7c-2.8,12-6.6,28.1-8,34.1l-0.2,0.9l0.9,0.3c30,7.1,34.2,5,47.8,4
	c0,0,6.5-20.9,11.3-48.6c4.3-25.3,7.5-45.2,8.7-52.6l0.4-2.6L314.5,608.1z"/>
<path fill="#517AD0" d="M255.6,664.2l2.1-0.3c0.8-0.1,1.5-0.2,2.4-0.4l0.3-0.1l0.2-0.2c14.9-13.6,16.4-27.6,16-34.7l-0.1-1.3
	l-1.2,0.4c-2.7,0.8-5.5,1.6-8.2,2.3l-0.7,0.2l-0.1,0.7c-0.4,5.5-2.2,19.6-9.6,31.5L255.6,664.2z"/>
<path fill="#517AD0" d="M252.6,664.6l0.3-0.1l0.2-0.3c8.3-11.3,10.6-26.3,11.2-32.3l0.1-1.4l-1.3,0.3c-12,2.7-24.6,4.1-37.4,4.3
	c-0.9,0-1.8,0-2.7,0c-25.5,0-42.6-6-52.4-11l-0.9-0.5l-0.4,0.9c-2.1,4.2-16.5,82.7-16.5,82.7c56.2,5.6,88.6-1.6,88.6-1.6
	c1.3-6,5-21.1,9.2-39C250.8,665.8,251.6,664.9,252.6,664.6z"/>
<path fill="none" d="M134.8,300.5l1.1,0.8c4.9,3.5,6.6,6.9,7.1,7.9l0,0l0.1,0.3c0.3,0.8,1,1.4,1.9,1.4c0.2,0,0.4,0,0.6-0.1l0,0
	c0.5-0.2,0.9-0.5,1.2-1s0.3-1,0.2-1.5c-0.2-0.7-2.2-6.5-11.2-12c-0.6-0.3-1.2-0.6-1.8-0.9c-7.4-3.1-14.7,1.5-17.5,4.4
	c-0.8,0.8-0.8,2.1,0,2.8c0.8,0.8,2.1,0.8,2.8,0c0.2-0.2,4.3-4.2,9.4-4.2c0.4,0,0.9,0,1.4,0.1l1.2,0.2l-0.5,1.2
	c-1.1,2.7-1.8,7,0.9,12c0.5,0.9,1.7,1.3,2.7,0.8s1.3-1.7,0.8-2.7c-1.8-3.4-1.5-6.3-0.9-8.2L134.8,300.5z"/>
<path fill="none" d="M178.5,194.5c-6.2,1-7.9,6.1-8,8.7c0,0.5,0.2,1,0.6,1.4c0.4,0.4,0.9,0.6,1.4,0.6c0,0,0,0,0.1,0s0.1,0,0.2,0h0.2
	h0.2c0.1,0,0.1,0,0.2,0c0.7,0,1.3-0.3,1.7-0.9c1.3-1.9,3.8-5.3,5.2-6.3l0,0c0.7-0.6,1-1.5,0.6-2.4
	C180.3,194.8,179.4,194.3,178.5,194.5z"/>
<path fill="none" d="M373.7,243.9c1.3,2.1,4.8,3.1,7.4,3.4h0.1c0.2,0,0.4-0.1,0.5-0.2c0.9-0.6,5.5-3.9,6.3-9.1l0,0
	c0-0.1,0-0.2,0-0.4c-1-4.8-7.1-8.6-7.4-8.8c-0.2-0.1-0.3-0.2-0.5-0.2c-0.1,0-0.2,0-0.3,0c-0.3,0.1-0.5,0.3-0.6,0.5l-5.7,11.2
	C373.1,241.8,373.1,242.9,373.7,243.9z"/>
<path fill="none" d="M211.5,223.2C211.4,223.2,211.4,223.2,211.5,223.2c-0.6,0-1.1,0.2-1.4,0.5l-0.1,0.1c-2.1,1.6-2.2,10.4-1.3,12.7
	c0.7,1.8,2.1,2,2.6,2c0.1,0,0.1,0,0.2,0h0.1c3.7-0.4,3.5-7.3,3.4-9.3C214.7,225.2,213.5,223.2,211.5,223.2z"/>
<path fill="none" d="M244.7,315.8l0.4-0.3c3.9-2.7,6.3-4.9,6.5-5.1c0.8-0.7,0.9-2,0.1-2.8c-0.7-0.8-2-0.9-2.8-0.1
	c0,0-2.8,2.6-7.5,5.7c-5.5,3.7-14.1,8.5-23.3,10c-10.8,1.7-19.7-0.9-24-2.7c-2.4-1-3.8-1.8-4.1-2c-0.3-0.2-0.7-0.3-1.1-0.3
	c-0.1,0-0.3,0-0.4,0c-0.5,0.1-1,0.4-1.2,0.9c-0.3,0.5-0.4,1-0.3,1.5s0.4,1,0.9,1.2c0.9,0.5,2,1.1,3.1,1.6l0.5,0.2l0.1,0.6
	c0.7,6.1,5.8,14.1,12.7,19.9c5.8,5,12.1,7.6,18,7.6c1.4,0,2.8-0.2,4.2-0.5c15.8-3.5,18-29.8,18.3-35L244.7,315.8z"/>
<path fill="none" d="M189.1,233.8c-0.4,0-0.8,0.1-1.1,0.3l-0.2,0.1c-2.5,1.1-2.5,8.3-2.3,10.7c0.4,3.2,2.1,3.7,3,3.7h0.1
	c3.8-0.2,3.8-7.6,3.8-9.1C192.3,236.9,191.7,233.8,189.1,233.8z"/>
<path fill="none" d="M204.9,193.2c0.8,0.1,1.6-0.4,2-1.2l0,0c0.3-0.8,0.2-1.7-0.4-2.2c-1.6-1.6-3.6-2.4-5.8-2.2
	c-2.3,0.1-4.7,1.3-6.1,3c-0.7,0.8-0.6,2.1,0.3,2.8c0.4,0.4,1,0.5,1.6,0.4h0.1h0.1c0.3,0,0.5,0,0.8,0
	C197.5,193.7,201.1,192.9,204.9,193.2z"/>
<g id="vs-skin">
	<path fill="#FACFBD" d="M482.8,129.1c-1.2-3.1-3.1-5.3-5.2-5.8c-2.1-0.5-3.8-0.2-5.9,1l-0.6,0.3l0.1,0.7c0.3,2,1.2,4.2,2,6.2
		c0.6,1.6,1.2,2.9,1.3,3.9c0.3,2-1.2,5.4-3.3,7.5c-1.3,1.3-2.6,1.9-4,1.9c-0.2,0-0.4,0-0.6,0c-0.1,0-0.2,0-0.2-0.1
		c-2.4-0.9-4.5-4.2-6-9.2L460,134l-1.2,1c-0.9,0.8-1.8,1.5-2.8,2.4c-12.8,10.6-14.1,26.5-14.1,26.7c0,0.7-0.2,1.3-0.6,1.8
		c-0.4,0.5-1.1,0.8-1.7,0.8c-1.4,0.1-2.6-1-2.6-2.4c-0.1-2.6,2.2-19.5,15.9-30.8c1.9-1.5,3.5-2.9,5-4.2l0.3-0.3v-0.4
		c0.2-4,0.4-8,0.6-11.9l0.1-1.9l-1.6,1c-5.4,3.2-17.7,14.3-22.9,26.6c-3,7.3-2.8,15.3-2.6,24.6c0.2,8.1,0.5,17.3-1.8,26.9
		c-4,17.4-23.1,31.3-31.2,36.5l-0.7,0.4l0.3,0.8c1,2.7,1.6,5.7,1.6,8.9c0.3,12.7-12.8,25.7-22.4,35.2c-4.2,4.2-7.3,7.3-8.1,8.9
		c-0.1,0.1-0.1,0.3-0.2,0.4l-0.4,0.6l0.5,0.5c4,4.3,7.4,8.3,10.3,11.9l0.7,0.8l0.8-0.7c16.1-14.4,57.8-57.3,65.5-78
		c0.3-0.7,0.5-1.4,0.7-2.1c5.2-21,7.4-50.2,7.5-51.5v-0.2l-0.1-0.2c-0.4-1.1-0.1-2.3,0.9-3c2.9-2.1,5.8-3.3,8.7-4.4
		c5-2,9.8-4,15.2-11.3C484.5,140.8,484.4,133.6,482.8,129.1L482.8,129.1z"/>
	<path fill="#FACFBD" d="M387.1,317.7c-1.7-3.6-4.7-8.2-8.9-13.6c-4.2-5.4-9.6-11.6-16.1-18.5l-0.3-0.3c-0.5-0.6-0.6-0.6-0.7-0.8
		c-0.8-1.1-0.6-2.7,0.5-3.5c0.9-0.7,2.1-0.7,3,0l0.8,0.6l0.6-0.9c1.6-2.3,4.4-5.1,8-8.6l0.1-0.1c8.4-8.3,21.2-21,20.9-31.6
		c-0.1-3.7-0.9-6.9-2.5-9.8c-1.9-3.4-4.8-6.1-8-7.2c-2.5-0.9-4.8-0.8-5.9,0.4c-2.9,3.2-6.7,10.5-10.8,18.2c-2.7,5-5.3,9.9-8,14.6
		c-3.4,5.8-6.8,11.4-10.2,16.7c-2.6,4.1-5.3,8-7.8,11.6c-3.3,4.7-13.4,19.1-24.8,46.4c-6.7,16-7.9,27.7-9.3,41.2
		c-0.4,3.9-0.8,7.7-1.4,11.8c-0.8,5.9-1.7,11.3-2.8,16.7c-1,4.8-2.1,9.6-3.1,14.4c-2,9.1-4,17.3-5.2,22.7
		c-2.7,11.1-4.6,18.6-4.6,18.9c-0.3,1.1-1.3,1.9-2.4,1.9c-0.2,0-0.4,0-0.6-0.1c-0.2,0-0.4-0.1-0.6-0.2l-1.2-0.6l-0.3,1.3
		c-1.7,8.4-2.4,16.9-2,25.2c0.4,9.9,1.9,17.4,4.5,22.3l0.4,0.7l0.8-0.2c12.1-0.6,21.1-7.2,26.9-19.7c4.1-8.9,5.7-19.2,6.3-26.2
		l0.3-4c0.4-4.7,0.8-9.7,1.2-14.6l0.1-1c2-24.1,4-49.1,5.4-59.2c1.6-11.6,3.9-13.7,13.2-20.5l0.3-0.2c1.3-0.9,2.7-2,4.3-3.2
		c3.2-2.4,6.5-4.9,9.7-7.4c5.5-4.2,11.6-8.9,18.1-14l0.6-0.4c0.5-0.4,1.2-0.6,1.8-0.5c0.7,0.1,1.3,0.4,1.7,0.9
		c0.6,0.8,0.7,2,0.2,2.9c-0.2,0.3-0.4,0.5-0.5,0.6c0,0-0.4,0.3-1,0.8c-2,1.5-6.9,5.4-12.7,9.8l-2.2,1.7l2.8,0.1c0.2,0,0.4,0,0.6,0
		c2.3,0,5.3-0.4,7.2-2.3c1.8-1.6,4.6-4.7,7.3-8.6l0,0l0.6-0.8l0,0l0.6-0.8l0,0C385.5,335.1,390.7,325.2,387.1,317.7z M379.9,228.8
		c0.1,0,0.2,0,0.3,0c0.2,0,0.4,0.1,0.5,0.2c0.3,0.2,6.4,4,7.4,8.8c0,0.1,0,0.2,0,0.4l0,0c-0.8,5.2-5.4,8.5-6.3,9.1
		c-0.2,0.1-0.4,0.2-0.5,0.2h-0.1c-2.6-0.3-6.1-1.3-7.4-3.4c-0.6-1-0.7-2.2-0.2-3.4l5.7-11.2C379.4,229.1,379.6,228.9,379.9,228.8z"
		/>
	<path fill="#FACFBD" d="M206.1,283.9c1.3-0.5,2.7,0.2,3.2,1.4c2.4,6.3,8,10.9,15.3,12.6c8.8,2.1,18.3-0.3,25-6.3
		c2.2-1.9,4.1-4.4,5.8-7.2c3.9-6.7,6-15.1,5.7-23c-0.3-8.7-3.4-15.8-8.6-19.8c-1-0.7-2-1.3-3-1.8c-12.8-5.7-30.4,8.6-30.6,8.8
		c-1.1,0.9-2.7,0.7-3.5-0.3c-0.4-0.5-0.6-1.2-0.6-1.8c0.1-0.7,0.4-1.3,0.9-1.7c0.6-0.5,14.3-11.8,28-11.3l1.6,0.1l-0.7-1.5
		c-1-2.1-1.9-4.3-2.7-6.4c-1.7-4.7-2.7-9.1-3-13c-0.7-11.5-4.6-28.7-9.2-36l-0.2-0.2l-0.3-0.1c-18-8.6-46.1-3.8-51.6-2.7h-0.2
		l-0.2,0.1c-8.3,6-28.5,21.5-37.2,35.6l-0.1,0.2c-6.5,18.3,0.1,68.3,0.4,70.5c0,0.1,0,0.2,0,0.3v0.4l0.3,0.3
		c0.4,0.4,0.6,0.7,0.7,0.7c0.4,0.5,0.6,1.2,0.6,1.8c-0.1,0.7-0.4,1.3-0.9,1.7c-1,0.9-2.6,0.8-3.5-0.2c-0.1-0.2-1.7-2-4-3.7
		c-3.2-2.5-6.3-3.8-9.1-4c-2.7-0.2-5.1,0.8-7.4,2.8c-2.8,2.6-5,6.2-6.3,10.3c-0.7,2.5-1.2,5.1-1.3,7.9c-0.2,9,3.2,17.8,9.6,24.2
		c5.4,5.4,11.7,7.4,18,5.6c5.7-1.7,10.4-6.4,11.5-11.8c0.3-1.4,1.6-2.2,3-1.9c1.3,0.3,2.2,1.6,1.9,3c-0.5,2.2-1.3,4.2-2.5,6.2
		l-0.3,0.5l0.3,0.5c1.2,2.2,7.5,14,17.1,25.7c2.4,2.9,4.8,5.6,7.2,8.1c14.9,15,21.6,19,40,23.8c18.8,4.9,22.9,7.4,31,15.1l1.4,1.3
		l0.3-1.9c0.9-5.4,2.2-13.7,3.8-22.5c0.8-4.5,2-8.2,3.2-12.1c2.6-8.5,5.4-17.3,5.7-37.6c0.1-4.3,0-8.4-0.1-12.2
		c-0.4-10.3-1.6-16.5-2.5-20l-0.5-1.9l-1.3,1.5c-1,1.3-2.1,2.4-3.3,3.5c-5.9,5.3-13.9,8.3-22,8.3c-2.6,0-5.1-0.3-7.5-0.9
		c-9-2.1-15.8-7.8-18.8-15.7C204.2,285.9,204.9,284.4,206.1,283.9z M226.4,351.3c-1.4,0.3-2.8,0.5-4.2,0.5c-5.9,0-12.2-2.6-18-7.6
		c-6.8-5.8-11.9-13.8-12.7-19.9l-0.1-0.6l-0.5-0.2c-1.2-0.5-2.2-1.1-3.1-1.6c-0.5-0.3-0.8-0.7-0.9-1.2s0-1.1,0.3-1.5
		s0.7-0.8,1.2-0.9c0.1,0,0.3,0,0.4,0c0.4,0,0.7,0.1,1.1,0.3c0.3,0.2,1.7,1,4.1,2c4.3,1.8,13.2,4.4,24,2.7c9.3-1.5,17.8-6.2,23.3-10
		c4.7-3.1,7.5-5.7,7.5-5.7c0.8-0.7,2.1-0.7,2.8,0.1c0.7,0.8,0.7,2.1-0.1,2.8c-0.3,0.2-2.6,2.4-6.5,5.1l-0.4,0.3v0.5
		C244.4,321.5,242.2,347.7,226.4,351.3z M188.7,248.7h-0.1c-1,0-2.6-0.5-3-3.7c-0.3-2.5-0.3-9.6,2.3-10.7l0.2-0.1
		c0.3-0.2,0.7-0.3,1.1-0.3c2.6,0,3.3,3.2,3.3,5.9C192.4,241.1,192.4,248.5,188.7,248.7z M196.7,193.7h-0.1h-0.1
		c-0.5,0.1-1.1-0.1-1.6-0.4c-0.9-0.7-1-2-0.3-2.8c1.4-1.7,3.8-2.9,6.1-3c2.2-0.1,4.2,0.7,5.8,2.2c0.6,0.6,0.8,1.5,0.4,2.2l0,0
		c-0.3,0.8-1.1,1.2-2,1.2c-3.8-0.3-7.4,0.5-7.4,0.5C197.2,193.8,197,193.8,196.7,193.7z M211.5,238.5L211.5,238.5
		c-0.1,0-0.2,0-0.3,0c-0.5,0-1.9-0.2-2.6-2c-0.9-2.3-0.8-11.1,1.3-12.7l0.1-0.1c0.4-0.3,0.8-0.5,1.3-0.5h0.1c2,0,3.2,2,3.4,6
		C215.1,231.2,215.2,238.1,211.5,238.5z M180,198L180,198c-1.3,1-3.9,4.4-5.2,6.3c-0.4,0.5-1,0.9-1.7,0.9c0,0-0.1,0-0.2,0h-0.2h-0.2
		c-0.1,0-0.1,0-0.2,0c0,0,0,0-0.1,0c-0.5,0-1-0.2-1.4-0.6c-0.4-0.4-0.6-0.9-0.6-1.4c0.1-2.6,1.8-7.7,8-8.7c0.9-0.1,1.8,0.3,2.1,1.2
		C181,196.5,180.8,197.5,180,198z M135.2,310c0.5,1,0.2,2.2-0.8,2.7s-2.2,0.1-2.7-0.8c-2.7-5-2-9.3-0.9-12l0.5-1.2l-1.2-0.2
		c-0.5-0.1-0.9-0.1-1.4-0.1c-5.1,0-9.2,4-9.4,4.2c-0.8,0.8-2,0.8-2.8,0s-0.8-2,0-2.8c2.8-2.9,10.2-7.5,17.5-4.4
		c0.6,0.3,1.2,0.6,1.8,0.9c9,5.4,11,11.3,11.2,12c0.2,0.5,0.1,1.1-0.2,1.5c-0.3,0.5-0.7,0.8-1.2,1l0,0c-0.2,0.1-0.4,0.1-0.6,0.1
		c-0.9,0-1.7-0.6-1.9-1.4l-0.1-0.3l0,0c-0.4-1-2.2-4.4-7.1-7.9l-1.1-0.8l-0.4,1.3C133.7,303.7,133.4,306.6,135.2,310z"/>
</g>
<g id="vs-hair">
	<path fill="#FFF996" d="M217.2,137.8c-1,0.2-2.1-0.3-2.6-1.1c-0.5-0.9-0.5-2,0.2-2.9c6.9-8.7,10.3-14.3,10-16.6l-0.1-0.5l-0.4-0.2
		c-0.6-0.3-2.2-0.9-6.5-0.6c-12.9,0.9-29.2,6.9-61.1,44.1c-0.8,0.9-2.1,1.1-3.1,0.6c-1-0.6-1.5-1.8-1.2-2.9c3.6-12,4-16.8,3.6-18.6
		l-0.2-1l-1,0.2c-1,0.2-3.5,1.2-8.4,5c-21.3,17.7-33.4,46-34,47.2c-0.4,1-1.5,1.7-2.6,1.5c-1.1-0.1-2-1-2.2-2.1
		c-1-6-2.2-12.4-2.9-15.6l-0.5-1.9l-1.3,1.5c-1.6,1.9-4,6.6-6.4,17.9c-4.7,22.2,0.8,48.2,1.4,51.1c0.3,1.2-0.4,2.5-1.6,2.9
		c-1.2,0.4-2.5-0.1-3.1-1.2c-2.4-4.6-5.6-9.4-7.7-11.6l-1.4-1.5l-0.3,2.1c-2.2,16.5,18.2,45,22.3,50.6l1,1.3l0.7-1.5
		c1.5-3,3.4-5.6,5.7-7.7c3.3-3,7-4.4,11.1-4.1c2.7,0.2,5.5,1.1,8.4,2.7l1.7,1l-0.2-2c-1.7-14.9-5-51.1,0.7-66.7
		c0.1-0.1,0.1-0.3,0.2-0.4c6.3-10.5,21-24.7,39.2-37.8c14-10.1,27.3-17.6,33.1-18.5c0.7-0.1,1.3,0,1.9,0.4c0.5,0.4,0.9,1,1,1.6
		c0.1,0.7,0,1.3-0.4,1.9c-0.4,0.5-1,0.9-1.6,1c-3.2,0.5-10,3.9-18.4,9.2l-3.5,2.2l4.1-0.3c12-1,28.9-0.8,41.4,5.5
		c0.4,0.2,0.7,0.5,0.9,0.8c4.9,6.9,8.7,22.3,10.1,33.7l0.5,4.4l1.4-4.2c0-0.1,0.1-0.2,0.1-0.3l0.1-0.2c2.2-7.3,4.6-15.5,5.7-24.7
		c0.6-4.6-0.3-8.3-2.8-11.2c-3.4-4.2-9.1-5.7-12.2-6.2l-0.8-0.1l-0.3,0.7c-0.5,1.2-1.9,1.8-3.1,1.4c-1.3-0.5-2-1.9-1.5-3.2
		c0.4-1,1.2-2.1,2.5-3.3s3-2.4,5-3.9l0.4-0.3c4.7-3.5,11.1-8.3,13-12.9c0.9-2.2,0.9-3.8,0.1-4.9C250,136,243.8,132.5,217.2,137.8z"
		/>
</g>
<path fill="none" stroke="#000000" stroke-width="6" stroke-linecap="round" stroke-linejoin="round" stroke-miterlimit="10" d="
	M189.1,235.8c2.2,0,1.5,10.8-0.5,10.9s-0.9-10.5,0-10.6c0.9-0.2,0.4,8.8,0.4,8.8"/>
<path fill="none" stroke="#000000" stroke-width="6" stroke-linecap="round" stroke-linejoin="round" stroke-miterlimit="10" d="
	M211.4,225.2c2.1,0,2.1,11.1-0.1,11.3s-1-11.9,0-11.1c1,0.8,0.2,9.1,0.2,9.1"/>
<path fill="none" stroke="#000000" stroke-width="6" stroke-linecap="round" stroke-linejoin="round" stroke-miterlimit="10" d="
	M172.6,203.2c0,0,0.1-5.8,6.3-6.8c-2.1,1.6-5.6,6.8-5.6,6.8l2.2-4.4"/>
<path fill="none" stroke="#000000" stroke-width="6" stroke-linecap="round" stroke-linejoin="round" stroke-miterlimit="10" d="
	M196.1,191.8c1.5-1.9,5.7-3.7,8.9-0.6c-4.1-0.3-8,0.6-8,0.6l3.5-2"/>
<path fill="none" stroke="#000000" stroke-width="7" stroke-linecap="round" stroke-linejoin="round" stroke-miterlimit="10" d="
	M217.3,246.7c0,0,22.1-18.4,36.8-7c14.7,11.4,11.6,41-2.7,53.9c-14.3,12.9-38,8.9-44.3-7.3"/>
<path fill="none" stroke="#000000" stroke-width="6" stroke-linecap="round" stroke-linejoin="round" stroke-miterlimit="10" d="
	M188.9,320.1c0,0,12.3,7.8,29.5,5s31.9-16.2,31.9-16.2"/>
<path fill="none" stroke="#000000" stroke-width="6" stroke-linecap="round" stroke-linejoin="round" stroke-miterlimit="10" d="
	M242.8,314.7c0,0-0.6,31-16.8,34.6c-16.2,3.6-33.1-17.5-32.5-27"/>
<path fill="none" stroke="#000000" stroke-width="7" stroke-linecap="round" stroke-linejoin="round" stroke-miterlimit="10" d="
	M139.5,283.4c0,0-13-15.3-24.1-5.1c-11.2,10.1-11.8,32.1,1.9,46s31.1,4.9,33.8-7.4"/>
<path fill="none" stroke="#000000" stroke-width="7" stroke-linecap="round" stroke-linejoin="round" stroke-miterlimit="10" d="
	M148.5,325.3c0,0,9.8,19.5,25.1,34.9s22.4,19.5,41.2,24.4s22.3,7.1,31.4,15.9s15.4,18,15.4,18"/>
<path fill="none" stroke="#000000" stroke-width="6" stroke-linecap="round" stroke-linejoin="round" stroke-miterlimit="10" d="
	M117.8,301.2c0,0,8.2-8.3,16.8-3.1c8.6,5.2,10.3,10.8,10.3,10.8"/>
<path fill="none" stroke="#000000" stroke-width="6" stroke-linecap="round" stroke-linejoin="round" stroke-miterlimit="10" d="
	M133.5,298.9c0,0-3.6,5.3,0,12"/>
<path fill="none" stroke="#000000" stroke-width="7" stroke-linecap="round" stroke-linejoin="round" stroke-miterlimit="10" d="
	M138,280.3c0,0-7.3-52.9-0.2-72c13.2-22,59-53.2,70.6-55.1"/>
<path fill="none" stroke="#000000" stroke-width="7" stroke-linecap="round" stroke-linejoin="round" stroke-miterlimit="10" d="
	M176.4,171.2c0,0,34.1-7.3,54.8,3.2c5.2,7.3,9.4,25.9,10.1,38s8.9,25.1,8.9,25.1"/>
<path fill="none" stroke="#000000" stroke-width="7" stroke-linecap="round" stroke-linejoin="round" stroke-miterlimit="10" d="
	M258.8,286.7c0,0,4.9,8,4.4,37.9c-0.4,29.8-6.2,35.8-8.9,50.1c-2.7,14.3-4.6,27.4-4.6,27.4"/>
<path fill="none" stroke="#000000" stroke-width="7" stroke-linecap="round" stroke-linejoin="round" stroke-miterlimit="10" d="
	M107,289.3c0,0-29.9-37.7-25.2-57.8c2.7-9.2,13.8,12,13.8,12s-6.6-28.2-1.4-52.2s10.9-21.4,12-20.4s4,18.6,4,18.6
	s12.3-29.6,34.7-48.3c15.4-11.9,16.5-4.5,10,17.1c32-37.3,48.6-43.9,62.8-44.9c14.2-1,11.7,6-0.9,22c33.6-6.8,40.6-0.8,36.9,8.2
	c-3.7,9-19.5,16.4-20.9,20.3"/>
<path fill="none" stroke="#000000" stroke-width="7" stroke-linecap="round" stroke-linejoin="round" stroke-miterlimit="10" d="
	M234.7,161.5c0,0,21.2,1.4,18.9,20.4s-10.3,34.3-9.4,42.9"/>
<path fill="none" stroke="#000000" stroke-width="7" stroke-linecap="round" stroke-linejoin="round" stroke-miterlimit="10" d="
	M263.2,312.3c0,0,6.9-4,10.8,17.7c3.8,21.7,4.7,52.6,2.8,60.9c-8.6-11.1-11.6-13.8-11.6-13.8"/>
<path fill="none" stroke="#000000" stroke-width="7" stroke-linecap="round" stroke-linejoin="round" stroke-miterlimit="10" d="
	M273.8,326.2c0,0,53.1-39.1,72.1-55"/>
<path fill="none" stroke="#000000" stroke-width="7" stroke-linecap="round" stroke-linejoin="round" stroke-miterlimit="10" d="
	M165.4,352.7c0,0-2.2,8.1,3.8,20.9c6,12.7,17.7,28.7,30.1,40c12.4,11.4,13.5,12.1,13.5,12.1s7-23.7,12.1-27.6"/>
<path fill="none" stroke="#000000" stroke-width="7" stroke-linecap="round" stroke-linejoin="round" stroke-miterlimit="10" d="
	M180.8,415.5c0,0,46.3,26.9,111.2,21.7"/>
<path fill="none" stroke="#000000" stroke-width="7" stroke-linecap="round" stroke-linejoin="round" stroke-miterlimit="10" d="
	M289.6,437.8c0,0-9.8,19.6-8.7,46.8s10.3,29,10.3,29s-4.1,1.8-26.3-6.9c-22.2-8.7-67.7-19.3-79.3-20.7"/>
<path fill="none" stroke="#000000" stroke-width="7" stroke-linecap="round" stroke-linejoin="round" stroke-miterlimit="10" d="
	M212.5,491.5c-0.3-0.1-5.9,4.8-21.6,5.4"/>
<path fill="none" stroke="#000000" stroke-width="7" stroke-linecap="round" stroke-linejoin="round" stroke-miterlimit="10" d="
	M288.1,456.4c0,0,6.9-26.9,13-55.9s2.7-43.7,13.7-70.1s20.8-40.9,25-46.9s10.3-15.2,17.9-28.1c7.5-12.9,14.3-27.8,19.1-33.2
	c4.9-5.4,20.3,1.3,20.7,18.3c0.4,17-26.9,36.1-30.3,43"/>
<path fill="none" stroke="#000000" stroke-width="7" stroke-linecap="round" stroke-linejoin="round" stroke-miterlimit="10" d="
	M363.1,283.1c0.4,0.5,20,20.6,26.3,33.6s-9.2,31.5-14.3,36.3c-5.1,4.7-14.3,2.3-14.3,2.3"/>
<path fill="none" stroke="#000000" stroke-width="7" stroke-linecap="round" stroke-linejoin="round" stroke-miterlimit="10" d="
	M377.1,339c0,0-15.7,12.3-28.5,21.8c-12.8,9.6-15.1,9.4-16.9,22.2s-4.6,49.5-7,78.6s-14.7,47.1-35.5,48.1"/>
<path fill="none" stroke="#000000" stroke-width="4" stroke-linecap="round" stroke-linejoin="round" stroke-miterlimit="10" d="
	M374.5,240.9l5.7-11.1c0,0,6,3.8,7,8.2c-0.8,5.2-5.9,8.4-5.9,8.4S372.7,245.4,374.5,240.9z"/>
<path fill="none" stroke="#000000" stroke-width="7" stroke-linecap="round" stroke-linejoin="round" stroke-miterlimit="10" d="
	M396.3,229c0.7-0.5,26.6-15.9,31.2-35.7s-1.6-37.2,4.5-51.9c6.1-14.6,21.8-28,26.8-29.1"/>
<path fill="none" stroke="#000000" stroke-width="7" stroke-linecap="round" stroke-linejoin="round" stroke-miterlimit="10" d="
	M439.3,164.1c-0.1-1.7,2-18,15-28.7s16.6-16.3,23.8-14.6s12.3,16,3.4,28.1s-16.7,10.7-24.4,16.3"/>
<path fill="none" stroke="#000000" stroke-width="7" stroke-linecap="round" stroke-linejoin="round" stroke-miterlimit="10" d="
	M457.4,166.5c0,0-2.2,30.4-7.7,52.3c-6.3,22.5-57.2,72.9-68.5,82.7"/>
<path fill="none" stroke="#000000" stroke-width="4" stroke-linecap="round" stroke-linejoin="round" stroke-miterlimit="10" d="
	M460.6,132.3c0,0,2,10,6.1,11.5c3.8,0.5,7.1-5.9,6.8-8.2c-0.3-2.4-3.8-8.4-3.4-12.4"/>
<path fill="none" stroke="#000000" stroke-width="7" stroke-linecap="round" stroke-linejoin="round" stroke-miterlimit="10" d="
	M460.6,129c0-0.5,1.2-33.6,5.3-44.8c16.9-5.5,63.2-23,63.6-23c0.4,0-12.1,74.1-13.6,101.8s-1.9,29.4-1.9,29.4s-57.6,28-63,29.1"/>
<path fill="none" stroke="#000000" stroke-width="4" stroke-linecap="round" stroke-linejoin="round" stroke-miterlimit="10" d="
	M462.8,107.4c0,0,52.6-18.6,60.9-18.7"/>
<path fill="none" stroke="#000000" stroke-width="4" stroke-linecap="round" stroke-linejoin="round" stroke-miterlimit="10" d="
	M472.8,119.2c0-0.6,0.7-8.2,0.7-8.2L510,98.7c0,0-1.2,14.4-1.5,14.6s-25.2,8-25.2,8"/>
<line fill="none" stroke="#000000" stroke-width="4" stroke-linecap="round" stroke-linejoin="round" stroke-miterlimit="10" x1="478.5" y1="110.1" x2="478.2" y2="120.9"/>
<line fill="none" stroke="#000000" stroke-width="2" stroke-linecap="round" stroke-linejoin="round" stroke-miterlimit="10" x1="482.8" y1="109" x2="482.5" y2="119.8"/>
<path fill="none" stroke="#000000" stroke-width="4" stroke-linecap="round" stroke-linejoin="round" stroke-miterlimit="10" d="
	M487.6,106.7l-0.8,12.6"/>
<line fill="none" stroke="#000000" stroke-width="4" stroke-linecap="round" stroke-linejoin="round" stroke-miterlimit="10" x1="492.7" y1="105.4" x2="492.3" y2="116.6"/>
<line fill="none" stroke="#000000" stroke-width="3" stroke-linecap="round" stroke-linejoin="round" stroke-miterlimit="10" x1="498.9" y1="103.5" x2="498.6" y2="115"/>
<line fill="none" stroke="#000000" stroke-width="2" stroke-linecap="round" stroke-linejoin="round" stroke-miterlimit="10" x1="504.3" y1="102" x2="503.7" y2="113.5"/>
<path fill="none" stroke="#000000" stroke-width="4" stroke-linecap="round" stroke-linejoin="round" stroke-miterlimit="10" d="
	M485.7,127.6c0.4-0.2,33.3-11.2,33.3-11.2"/>
<path fill="none" stroke="#000000" stroke-width="4" stroke-linecap="round" stroke-linejoin="round" stroke-miterlimit="10" d="
	M488.3,139.1l18.1-7.1c0,0-4.9,29.7-4.5,44.1c-20.9,10.2-33.8,18-34.9,16.9c-1.1-1.1,2.6-32.2,2.6-32.2"/>
<line fill="none" stroke="#000000" stroke-width="4" stroke-linecap="round" stroke-linejoin="round" stroke-miterlimit="10" x1="477" y1="168.5" x2="476.8" y2="175.5"/>
<path fill="none" stroke="#000000" stroke-width="4" stroke-linecap="round" stroke-linejoin="round" stroke-miterlimit="10" d="
	M484.6,172c0,0,0.9-11.3,1.1-14.3"/>
<path fill="none" stroke="#000000" stroke-width="4" stroke-linecap="round" stroke-linejoin="round" stroke-miterlimit="10" d="
	M493.1,169c0-0.4,2.3-20,2.9-24.7"/>
<path fill="none" stroke="#000000" stroke-width="7" stroke-linecap="round" stroke-linejoin="round" stroke-miterlimit="10" d="
	M528.9,73.3l12.1-3.6c0,0-16.6,86.8-11.6,129.7c-21.1,13.4-62.6,31.9-62.6,31.9v-15.2"/>
<path fill="none" stroke="#000000" stroke-width="4" stroke-linecap="round" stroke-linejoin="round" stroke-miterlimit="10" d="
	M524.5,103.2c0.4,0,11.4-4.8,11.4-4.8"/>
<path fill="none" stroke="#000000" stroke-width="4" stroke-linecap="round" stroke-linejoin="round" stroke-miterlimit="10" d="
	M521.1,126.5c0-0.1,11.2-2.9,11.2-2.9"/>
<path fill="none" stroke="#000000" stroke-width="7" stroke-linecap="round" stroke-linejoin="round" stroke-miterlimit="10" d="
	M487.3,75.9c0-1.8,0.8-12.8,0.8-12.8s37-21.1,68.9-17.9c-6.1,43.5-18.1,83.7-18.6,137.5c-3.4,2.4-8.9,5.1-8.9,5.1"/>
<line fill="none" stroke="#000000" stroke-width="4" stroke-linecap="round" stroke-linejoin="round" stroke-miterlimit="10" x1="529.4" y1="66.5" x2="552.7" y2="61.2"/>
<line fill="none" stroke="#000000" stroke-width="4" stroke-linecap="round" stroke-linejoin="round" stroke-miterlimit="10" x1="538.3" y1="88.7" x2="550" y2="85.6"/>
<path fill="none" stroke="#000000" stroke-width="7" stroke-linecap="round" stroke-linejoin="round" stroke-miterlimit="10" d="
	M552.7,73.7c1.3-0.7,11.8-3.3,11.8-3.3s-19.7,50-14.4,143.2c-33.3,7.4-61.9,21.1-65.4,23.9c-4.5-3.1-1-13.5-1-13.5"/>
<path fill="none" stroke="#000000" stroke-width="4" stroke-linecap="round" stroke-linejoin="round" stroke-miterlimit="10" d="
	M549.4,95.4c0.2,0,7.3-1.7,7.3-1.7"/>
<path fill="none" stroke="#000000" stroke-width="4" stroke-linecap="round" stroke-linejoin="round" stroke-miterlimit="10" d="
	M545.2,116.4c0.3-0.2,7.9-1.9,7.9-1.9"/>
<line fill="none" stroke="#000000" stroke-width="7" stroke-linecap="round" stroke-linejoin="round" stroke-miterlimit="10" x1="588.8" y1="63.8" x2="597.7" y2="57.1"/>
<path fill="none" stroke="#000000" stroke-width="7" stroke-linecap="round" stroke-linejoin="round" stroke-miterlimit="10" d="
	M604.8,106.1c0-0.3,13.9-4.7,13.9-4.7"/>
<line fill="none" stroke="#000000" stroke-width="7" stroke-linecap="round" stroke-linejoin="round" stroke-miterlimit="10" x1="604.3" y1="150.6" x2="617.7" y2="154"/>
<line fill="none" stroke="#000000" stroke-width="7" stroke-linecap="round" stroke-linejoin="round" stroke-miterlimit="10" x1="572.5" y1="193.7" x2="583.8" y2="202.3"/>
<path fill="none" stroke="#000000" stroke-width="6" stroke-linecap="round" stroke-linejoin="round" stroke-miterlimit="10" d="
	M303.1,384c0,0-14.1,9.7-13.9,12.2s8,18.5,8,18.5"/>
<path fill="none" stroke="#000000" stroke-width="6" stroke-linecap="round" stroke-linejoin="round" stroke-miterlimit="10" d="
	M294.1,413.4c0,0-26.4,13-26.4,14.7s1.5,7.5,1.5,7.5"/>
<path fill="none" stroke="#000000" stroke-width="7" stroke-linecap="round" stroke-linejoin="round" stroke-miterlimit="10" d="
	M168.4,375.6c0,0-17.6,20.4-21.3,54.1s24.8,88.5,27.3,95.1"/>
<path fill="none" stroke="#000000" stroke-width="7" stroke-linecap="round" stroke-linejoin="round" stroke-miterlimit="10" d="
	M170.4,516.1c0,0-4.1,40.1-8.2,63c-4.1,22.9-3.1,34.5-3.1,34.5s19.3,19.9,66.5,19.1c47.2-0.8,86.6-19.5,97.4-37.7
	c1-28.7-2.4-94.2-4.8-106.4"/>
<path fill="none" stroke="#000000" stroke-width="7" stroke-linecap="round" stroke-linejoin="round" stroke-miterlimit="10" d="
	M168.3,621.3c0,0-14.3,52.5-15.3,87.5"/>
<path fill="none" stroke="#000000" stroke-width="8" stroke-linecap="round" stroke-linejoin="round" stroke-miterlimit="10" d="
	M320.3,602c0,0-3.8,25-9.8,60.1c-3.6,21.3-8.5,38.8-11.8,49.2"/>
<path fill="none" stroke="#000000" stroke-width="8" stroke-linecap="round" stroke-linejoin="round" stroke-miterlimit="10" d="
	M244.3,707c0-0.9,9.2-39.6,9.2-39.6s26.4-2.4,36.1-13.1"/>
<path fill="none" stroke="#000000" stroke-width="6" stroke-linecap="round" stroke-linejoin="round" stroke-miterlimit="10" d="
	M278,623.5c0,0,6,21.8-16.7,41.9"/>
<path fill="none" stroke="#000000" stroke-width="4" stroke-linecap="round" stroke-linejoin="round" stroke-miterlimit="10" d="
	M265.5,628.9c0,0-0.6,22.3-12.7,37.4"/>
<path fill="none" stroke="#000000" stroke-width="18" stroke-linecap="round" stroke-linejoin="round" stroke-miterlimit="10" stroke-opacity="0" d="
	M101.5,281.9c1.4-1.6,11-14.8,11-14.8l10-5.4l6.6,5.2l-2.6-16.9l-26,15.9l-7.7-8.5l32.4-19l2.1-13.3l-37,19.3l-2.5-12.8l40.5-22.3
	l5.3-10.5L99,213.2l-3.7-13.5c0,0,44.7-8.7,45.4-10.3c0.8-1.5,7.1-6.5,6.4-6.1s-47.4,7.5-46.6,6.1c0.8-1.4,3.6-12.3,3.6-12.3
	s51.5-1.3,52.1-1.7s8.2-6.8,8.2-6.8s-33.4-1-33.1-2.2c0.3-1.1,27.3-26.9,27.3-26.9l6.7,4l-7.7,15.4c0,0,44.7-36.6,46-37
	s22-6.1,22-6.1l-55.4,48.6c0,0,17.4-4.6,17.3-4.6s32.3-27.8,34.4-27.8s21.6-0.4,21.6-0.4l-45.3,28.2l8.8,2.7
	c0,0,38.9-21.6,40.3-22.2c1.3-0.6,3.1,4.5,2.9,5.4s-28.1,15.7-25.3,15.8c2.9,0.1,14.3,3.3,14.3,3.3l1.9,6.5l5.7,10.1l2.1,14.9
	l3.3,14.2"/>
<path fill="none" stroke="#000000" stroke-width="18" stroke-linecap="round" stroke-linejoin="round" stroke-miterlimit="10" stroke-opacity="0" d="
	M185.5,172.4c-1.4,1.4-48.2,37.4-48.2,37.4l-3.8,12.9c0,0,61.3-51.5,64.6-52.2c3.3-0.7,18.9,0.7,18.9,0.7l-88,65.1l2.3,13.4
	l101.8-72.3l3.7,9.9c0,0-121.4,93.1-121.4,94.3s-4.1,13.1-3.3,12.5s123.3-93,124.3-93.1c1.1-0.1,6.4,10.8,6.4,10.8l-125,94.8
	l-1.9,9.3l128.3-89.2l3.9,7.1L129,323.4c0,0,11.5,3.8,12.3,2.8s122.4-82.4,122.4-82.4l2.6,7.7l-107.9,78.6l3.4,5.9l101.4-71
	l-9.6,19.7c0,0-82.6,59-82.1,59s5.6,8.2,5.6,8.2l75.1-54.3v9.6c0,0-65.8,51.8-65.4,52.2c0.4,0.4,6,6.4,6,6.4l59.4-49.5l1.4,18.9
	c0,0-51.2,35.9-50.8,35.9c0.4,0,5.1,2.2,5.9,2.2s44.4-30,44.4-30l-0.9,10.6c0,0-34,25-32.8,24.4c1.2-0.5,8.1,2.1,8.1,2.1l20.3-15.1
	l-5.9,12.4l-4.3,6.4l4.3,2.1l2.2,3.1"/>
<path fill="none" stroke="#000000" stroke-width="18" stroke-linecap="round" stroke-linejoin="round" stroke-miterlimit="10" stroke-opacity="0" d="
	M452.6,115.8l-9.4,23.8l-6.3,18.1l36.6-28.7l4.7,3l-8.4,16.7l-23.5,16.2l-8.4,7.1l-6.1,19.9l19.3-16.4l-6.1,20.9l-62.6,31.2
	c0,0-10.4,10.7-9,9.9s70.7-30.7,70.7-30.7l-0.9,10.8l-72.3,32.3l-6.6,9.4l69.8-28c0,0-9.6,16.5-8.7,15.1s-66.3,23.7-66.1,24.2
	c0.1,0.5-11.2,16.6-11.2,16.6l65.1-26l-28.6,29l-43.9,8.6L330,312l56.4-9c0,0-6,16-4.5,14.3s-56.6,6.8-56.8,7.1
	c-0.3,0.4-5,12.4-4.1,11.7c0.9-0.6,62.4-10,62.4-10s-11.1,13.7-8.3,12.2s-57.3,7.8-57.3,7.8l-2.8,13.8c0,0,52.5-8.9,52.9-9.1
	c0.4-0.1-31.7,19.6-31.7,19.6l-22.6,1.4l13,12.1l-13,1.7l-3.1,16.4l14.7-5l-1.1,8.7l-16.2,7.6l-1.8,12.3l19.8-6.5l-2.7,11.1l-23.7,5
	l-4.9,13.7l16.7-3.6l9.1-3.4l-1.8,9.6l-25.4,10.9l-2,10.5l28.2-8.4l-7.8,13.1l-20.9,6l0.5,9.2l21.8-6.3l-10.6,9.6l-7.7,4.9h-2.8"/>
<path fill="none" stroke="#000000" stroke-width="18" stroke-linecap="round" stroke-linejoin="round" stroke-miterlimit="10" stroke-opacity="0" d="
	M547.2,47.6l-46.9,16.3l-32,33L546,58.8l-7,11c0,0-40.8,23.7-40.2,22.9s27.8-9.8,27.8-9.8l-0.4,12.5"/>
<path fill="none" stroke="#000000" stroke-width="18" stroke-linecap="round" stroke-linejoin="round" stroke-miterlimit="10" stroke-opacity="0" d="
	M563.2,77.1l-4.1,11.6l-22.5,12.9l-45.7,26c0,0-5.5,8.1-3.5,6.6c1.9-1.5,68.2-24.1,68.2-24.1l-9.4,16.4L462.8,169l-1.2,15.2
	l87.5-45.4l-1.6,11.7l-88.7,48.6c0,0-5.9,13.7-4.9,12.9s95.3-46.7,95.3-46.7l-4,12.8L475,218.5c0,0,1.7,1.9,5.6,1.2
	c3.8-0.8,65.8-27.9,66.1-26.5s-2.5,13.7-2.5,13.7L488.6,229"/>
<polyline fill="none" stroke="#000000" stroke-width="18" stroke-linecap="round" stroke-linejoin="round" stroke-miterlimit="10" stroke-opacity="0" points="
	304,425.2 290.7,423.1 277.8,429.8 288.1,429.8 "/>
<path fill="none" stroke="#000000" stroke-width="24" stroke-linecap="round" stroke-linejoin="round" stroke-miterlimit="10" stroke-opacity="0" d="
	M339.7,281.9c-2.6,1.9-175.7,95.2-177.2,96.2S141.8,404,141.8,404l187.7-99.1l-26.4,33.5l-153.8,78.5c0,0-4.4,23.9-4.4,23.1
	s171-84.1,171-84.1s-22,24.6-19.7,22.2s-144,66.3-145,67.6c-1.1,1.3,0,13.8,0,13.8l137-57.4l-5.9,13.4l-124.7,62.2
	c0,0-3.5,12.8-0.8,10.9s122-53.7,122-53.7l3.5,8.9c0,0-117.8,58.7-117.2,60.7s2.6,15.9,2.6,15.9l117.2-57.3c0,0-5.4,23.1-3.9,21.4
	s-110,50.3-110,50.3l-5.9,12.7l153.2-59l-0.7,12.4l-149.2,68.6l-6.7,16.5l153.4-65l-1,12.4l-144.6,64.7l0.2,8.5l10.1,4
	c0,0,140.9-65.7,140.3-63.6c-0.5,2.1-0.7,12.5-0.7,12.5l-128.6,58.2l19.7,1.9l105.3-46.9l0.9,12.4l-11.5,11.7l-37.1,15.5
	c0,0-28.6,8.6-29.6,9s-16.2,2.7-15.4,2.2s90.4-39.3,90.4-39.3"/>
<path fill="none" stroke="#000000" stroke-width="24" stroke-linecap="round" stroke-linejoin="round" stroke-miterlimit="10" stroke-opacity="0" d="
	M192.6,621.3c-1.1,0.4-24.3,19.4-24.3,19.4l-2.2,14.9l46.9-25.4l29.5-1.1l-78.8,39.2l-3.4,15.7c0,0,125.9-65.7,129.2-66.9
	s27.2-6.7,27.2-6.7s-159.5,89.5-158.5,89.1s10,5,11.8,4.4s145.2-82.6,145.2-82.6l-5,25.2c0,0-110.3,57.8-109.8,57.8s50-3.4,50-3.4
	l56.8-36.8l-7.7,22.6c0,0-38.5,19.8-37.3,19.4s22.2,2.1,22.2,2.1l11.9,1c0,0,0.4-7.9,2.4-8"/>
</svg>
