<?xml version="1.0" encoding="utf-8"?>
<!-- Generator: Adobe Illustrator 24.3.0, SVG Export Plug-In . SVG Version: 6.00 Build 0)  -->
<svg isCommex="true" version="1.1" id="Layer_2_1_" xmlns="http://www.w3.org/2000/svg" xmlns:xlink="http://www.w3.org/1999/xlink" x="0px" y="0px"
	 width="616.7px" height="1005.5px" viewBox="0 0 616.7 1005.5" enable-background="new 0 0 616.7 1005.5" xml:space="preserve">
<g>
	<path fill="#97C3FB" d="M396,545.3l-0.5-0.6l-0.7,0.3c-2.9,1.1-9.9,8.7-10,8.8l-0.4,0.4l0.2,0.6c0.7,2.2,1.5,4.8,2.4,7.9l0.3,1.3
		l1.1-0.7c3.1-1.8,8.8-6.1,10.1-7.6l0.2-0.3l0-0.3C399,553.1,397.3,547.1,396,545.3z"/>
	<path fill="#97C3FB" d="M278.8,580.7l0.1-0.9l-0.9-0.2c-2.6-0.6-9.2-1.9-11.6-1.9h-0.8l-0.2,0.8c-0.6,2.4-0.1,10.8,1.5,12.8
		l0.3,0.3l0.4,0c2,0.3,6.1,0.9,8.7,1.3l2.6,0.4l-0.1-1.3C278.5,588.3,278.5,584.5,278.8,580.7z"/>
</g>
<g id="vs-skin">
	<path fill="#FACFBD" d="M498.6,422c0,0,0-0.1,0-0.2c0-0.1,0-0.3-0.1-0.4l0-0.2l-0.1-0.2c-4.3-6.1-18.9-2.1-20.8-1.3
		c-0.9,0.4-2,0.2-2.6-0.6c-0.6-0.8-0.5-2.1,0.4-2.8c0.9-0.6,8.4-3,15.4-2.6l5,0.3l-4.5-2.2c-6.9-3.3-17.7-0.7-17.9-0.6
		c-1,0.3-2.1-0.3-2.4-1.2c-0.3-1.1,0.2-2.2,1.2-2.5c0.2-0.1,0.5-0.1,0.8-0.2c0.3-0.1,0.7-0.2,1.2-0.3l5.6-1.3l-5.7-0.7
		c-11.6-1.4-28.4,2.1-40.8,16.3c-0.4,0.4-0.8,0.7-1.3,0.7c-26.8,4.4-57,19.8-61.1,22.7l-0.1,0.1c-0.1,0.1-0.1,0.1-0.2,0.2
		c-0.1,0.1-0.2,0.1-0.3,0.2h-0.3l-0.3,0.5c-5.6,10.8-13.5,19.3-23.5,25.5l-0.1,0.1c-0.2,0.2-0.6,0.3-1,0.3c-0.7,0-1.4-0.4-1.8-0.9
		c-0.6-0.9-0.3-2.1,0.7-2.7c9.9-6.2,17.6-14.8,22.9-25.6c4.3-8.8,7-19.1,8.1-30.7c0.2-2.5,0.4-5,0.5-7.6c0.2-8-0.2-16.3-1.3-24.4
		c-1.2-9.1-3.3-18.6-5.9-26.8c-4.4-13.3-16.5-24.5-25.8-31.6l-1.6-1.1v1.7c-0.3,0.4-0.6,0.7-1.1,0.8c-0.5,0.1-1.1,0.1-1.6-0.2
		c-0.1,0-1.8-0.8-6.2-1.6c-6.2-1.1-14-1.7-23.3-1.8c-20.7-0.3-40.2,5.3-45.7,7l-0.2,0.1c-20.2,12.8-33.2,28.4-36.8,32.9l-0.1,0.2
		l-0.1,0.2c-3.3,12.6-2.8,40-2.5,48.2l0,0.3c0,0.7-0.3,1.3-0.8,1.7c-0.6,0.4-1.3,0.5-1.9,0.2c-5-1.9-11.9-3.3-16.2,1.2
		c-3.9,3.9-4.6,11.8-1.7,18.4c1,2.4,2.9,4.1,5.4,5c5.3,1.9,12.4-0.1,15-1l1,2.6l2.8-0.4c0.5,2.3,2.2,8.3,7.2,17.4
		c1.1,2.1,2.7,4.6,4.9,8.1c10.5,15.9,49.5,20.2,51.9,20.4l0,0c0.6,0.1,1.1,0.3,1.4,0.7c0.3,0.4,0.5,0.9,0.4,1.4c-0.1,1-1,1.8-2,1.8
		l-0.2,0c-0.4,0-42.8-3.9-54.8-22.1c-1.9-2.9-3.3-5.2-4.5-7.3l-0.2-0.4l-0.5-0.1c-0.4-0.1-0.9-0.2-1.5-0.3l-1.1-0.2
		c-10.5-2.2-38.2-8.1-64,0.7l-0.3,0.1c-0.2,0.1-0.4,0.1-0.5,0.1c-0.4,0-0.6,0-0.8-0.1c-5.3-2.2-10-4.7-14.1-6.9l-1.3-0.7
		c-8-4.4-14.9-8.3-22.4-7.8l-4.7,0.3l4.4,1.7c3,1.1,5.3,2.6,7,3.6l0.6,0.3c0.3,0.2,1.1,0.8,1.7,1l0.2,0.1h0.1
		c0.9,0.4,1.4,1.5,1.1,2.5c-0.1,0.5-0.5,1-0.9,1.2c-0.5,0.3-1,0.3-1.5,0.1c-0.6-0.2-1.3-0.6-2.5-1.3l-0.2-0.1
		c-2.9-1.8-8.2-5.1-14.6-5.3c-2.7,0-5.2,0.4-7.4,1.4c-3.2,1.2-5.2,2.9-5.6,4.7c-0.2,1.1,0,2.2,0.7,3.3l0.7,1.1l0.9-0.9
		c0.3-0.3,0.6-0.5,1.3-0.8c8.4-4.6,19,2,23.6,4.9c0.3,0.1,0.5,0.3,0.8,0.5c0.3,0.2,0.6,0.4,0.9,0.5c1,0.3,1.5,1.4,1.3,2.4
		c-0.3,1.1-1.4,1.7-2.5,1.4c-0.7-0.2-1.3-0.5-2.6-1.4c-3.2-2.1-12.8-8.3-19.4-4.7c-1,0.5-1.6,1.2-1.8,2l0,0.2c0,0.3,0,0.7,0.1,1.1
		c1.2,4.2,9.4,9.8,14.1,9.5c0.7,0,16.7-0.9,22.5,4.4c1.4,1.3,2.1,2.9,2.1,4.7c0,3.5-3.3,6.3-6.5,9c-5.7,4.9-8.9,8.3-5.4,13.2
		c1.4,1.9,3,2.8,5,2.6c6.5-0.6,15.2-11.1,18.7-18.3c4.2-8.6,11.5-13.1,33.3-7c10.8,3,26.9,8.3,32.1,10c4.8,1.6,9.5,3.2,13.3,4.5
		l1,0.4c1.2,0.4,2.3,0.8,3,1.1c0.4,0.1,0.7,0.2,1,0.3l0.8,0.4l0.5-0.8c1.3-2,2.4-3.3,2.9-3.7c1-1,1.7-1.5,2.6-1.5c1.1,0,2,0.9,2,2
		c0,0.8-0.4,1.4-1.1,1.8l-0.2,0.2c-0.3,0.2-6.2,5.8-6.1,15.8c0.1,2,0.8,4.1,2.1,6v0.1l0.2,0.3c2,2.9,4.8,5.2,7.2,7.2
		c1.5,1.3,2.5,2.2,3,3c0.3,0.5,0.3,1.1,0.2,1.6c-0.1,0.5-0.5,0.9-1,1.2l-0.1,0.1c-0.2,0.1-0.4,0.2-0.8,0.2c-0.8,0-1.3-0.3-1.8-1
		l-0.1-0.2c-0.2-0.2-0.6-0.5-1.1-0.9c-0.3-0.2-0.6-0.5-0.9-0.8c-1.4-1.1-3-2.4-4.7-4.2l-1.2-1.2l-0.5,1.6c-1.1,3.4-2.6,9-3.7,14.6
		c-1.1,6-1.5,9.9-1,12.2l0.1,0.2c4.9,10.6,35.9,18.8,42.8,18.8c0.2,0,0.4,0,0.6,0l0.7,0.2l0.4-0.6c1.8-2.6,5.3-5.7,11.4-5.7h0.3
		c8.3,0.2,29.1-3.2,44.9-9.8c3.3-1.3,6.7-2.9,10.8-4.9c10.5-5.1,21.4-10.4,29.3-5.8l0.5,0.3l0.7-0.4c7.8-4.8,12.5-10.1,15.2-13.7
		l0.2-0.3l0-0.4c-0.3-6.6-3.1-15.2-8.4-25.6l-1.2-2.4l-0.6,2.6c-0.3,1.2-0.6,2.4-1,3.6c-0.3,1.1-1.5,1.7-2.6,1.3
		c-0.5-0.1-0.9-0.4-1.1-0.9c-0.3-0.5-0.3-1-0.2-1.6c6-20.1-3.4-27.5-5.6-28.9l-0.2-0.1c-0.5-0.3-0.9-0.7-1-1.2
		c-0.2-0.5-0.1-1.1,0.2-1.6c0.2-0.5,0.6-0.8,1.1-1c0.5-0.2,1-0.1,1.6,0.2c0.1,0,5.9,3,8.5,11.2l0.3,1.1l1-0.5
		c14.5-6.8,50.4-45.8,53-49.1l0.1-0.1c0.4-0.7,1.2-1.1,2-1c1.4,0.1,1.7,1.2,2.1,2.9l0,0.2c2,12.1,6.1,17.7,12.4,17.1
		c1.6-0.1,4.6-0.5,5.9-2.3c1.5-2.1,0.3-5.9-0.7-9.3c-0.6-1.8-1-3.3-1.2-4.7c-0.2-1.9,0.5-3.6,2-4.9c4.3-3.8,15.1-4.4,22.6-2.7
		c6,1.4,12.2-0.9,14.5-3.8C499.4,423.6,498.8,422.4,498.6,422z M356.1,500L356.1,500c-0.8,1.3-2.1,1.6-3.1,1.6l-0.4,0
		c-1.6-0.1-2.6-0.8-3.2-2c-0.5-1.1-0.2-2.5,0.7-3.5c0.2-0.3,0.4-0.5,0.6-0.6l0.3-0.1l0.2-0.3c0.3-0.5,0.8-0.7,1.1-0.7
		c0.1,0,0.3,0,0.4,0c1.3,0,2.4,0.7,3.2,1.9C356.7,497.4,356.7,498.9,356.1,500z M281.3,384.4c0.1-0.4,0.3-1.1,0.6-1.6l0.1-0.1l0-0.2
		c0.1-0.6,0.6-1.1,1.2-1.2c0.1,0,0.3,0,0.4,0c1,0,1.9,0.5,2.4,1.5c1,1.8,0.6,5.4-0.8,6.8l0,0c-0.4,0.4-0.9,0.7-1.6,0.8
		c-0.3,0-0.5-0.1-0.8-0.2C281.3,389.4,280.7,387.3,281.3,384.4z M283.8,345.8c-2.2,0.5-3.4,1.4-3.9,2.1l-3.2-0.2
		c0.5-1.7,2.3-4,6.6-4.9c0.8-0.1,1.6,0.4,1.8,1.2C285.1,344.9,284.6,345.6,283.8,345.8z M360.9,404.6L360.9,404.6
		c-0.3,8.4-14.8,44-52.6,51.6c-5.4,1.1-10.5,1.6-15.5,1.6c-28.2,0-43-16.6-43.2-16.8c-0.5-0.6-0.5-1.6,0.1-2.1
		c0.3-0.2,0.6-0.4,1-0.4c0,0,0.1,0,0.1,0c0.4,0,0.8,0.2,1,0.5c0.2,0.2,19.6,21.5,55.8,14.2c35.8-7.2,49.9-41.8,50.2-48.8
		c0-0.9,0.8-1.4,1.5-1.4C360.3,403.2,361,403.8,360.9,404.6z M317.7,427.1L317.7,427.1c-5.1,3.1-11.6,3.1-18.7-0.8
		c-0.9-0.5-1.3-1.8-0.7-2.7c0.4-0.6,1.1-1,1.8-1c0.3,0,0.7,0.1,1,0.3c5.4,3.1,10.5,3.4,14.5,0.9c4.1-2.6,6.8-8,6.6-13.2
		c-0.1-2.1-0.8-5.8-4.4-7.5c-7.7-3.8-13.8-0.2-16.9,4.5c-0.3,0.4-0.7,0.8-1.2,0.9c-0.5,0.1-1,0-1.5-0.2c-0.9-0.6-1.2-1.8-0.7-2.7
		c2.7-4.5,10.9-11.6,22.1-6c3.9,1.9,6.4,5.9,6.6,10.9C326.5,417.1,323.1,423.8,317.7,427.1z M306.3,379.1c0.3-1.4,0.8-1.9,1.2-2.2
		l0.1-0.1l0.1-0.2c0.2-0.3,0.5-0.5,1-0.5c0,0,0.1,0,0.2,0c1.3,0.2,2.2,1,2.8,2.3c0.8,1.9,0.5,5.2-0.9,6.7l0,0
		c-0.3,0.4-0.9,0.7-1.7,0.8c-0.2,0-0.4-0.1-0.6-0.1l-0.1,0C305.8,384.9,305.9,381,306.3,379.1z M312.9,344.2c0,0.4-0.2,0.7-0.5,0.9
		l0,0c-0.3,0.2-0.5,0.3-1,0.3c-0.6,0-1-0.4-1.2-0.6c-0.6-0.8-1.7-1.7-3.6-1.7c-0.2,0-0.4,0-0.6,0l-0.2,0c-0.8,0.2-1.6-0.3-1.8-1.1
		c-0.2-0.8,0.3-1.6,1.1-1.8c1.6-0.4,5.2-0.4,7.6,2.8C312.8,343.4,312.9,343.8,312.9,344.2z M216.3,423.6c-0.4,0.3-0.6,0.3-0.6,0.3
		l-0.2,0c-0.5,0-1-0.3-1.3-0.7l-0.2-0.4h-0.5c-0.1,0-0.4-0.1-0.6-0.2l-0.2,0c-0.4-0.1-0.7-0.3-0.9-0.6c-0.2-0.3-0.3-0.7-0.2-1.1
		c0.2-0.8,0.8-1.3,1.5-1.3c0.1,0,0.1,0,0.2,0c0.6,0.1,2.4,0.6,3.4,1.9C217.1,422.2,217,423.1,216.3,423.6z M270.6,512.1L270.6,512.1
		c-0.5,0.7-1.2,1.1-2.1,1.1h-0.6c-2-0.3-2.7-1.5-2.6-2.6c0.1-0.7,0.5-1.3,1.1-1.6l0.3-0.2l0.1-0.3c0.3-0.5,0.8-0.8,1.3-0.8
		c1.2,0,2.2,0.6,2.7,1.5C271.2,510.2,271.2,511.3,270.6,512.1z"/>
	<path fill="#FACFBD" d="M421.8,599.3l-0.6,0.1c-6.8,1.5-17.8,8.3-22.2,11.1c-5.4,3.4-10.1,6.8-11.2,7.8l-0.2,0.2
		c-0.1,0.2-0.4,0.3-0.7,0.3c-0.6,0-1-0.4-1-1c0-0.6,0-0.9,4.3-4c0.6-0.4,1.3-0.9,2.2-1.5c0.9-0.6,1.9-1.3,3.1-2.1l0.9-0.7l-0.8-0.9
		c-1-1.1-4-4.4-7-7.5l-0.3-0.3h-0.5c-2.3-0.6-6.5,1.1-8.9,4.5c-3.5,4.6-2.9,10.9,1.6,17.7c10.4,15.7,20.3,19.8,21.4,20.2l0.1,0
		c0.9,0.2,1.5,1,1.5,1.9c0,1-1,2-2,2c-0.5,0-2.2-0.6-4.9-2.2l-1.8-1l0.3,2c0.8,6,3.8,18.1,9.7,21.2c1.9,1,4.4,1.8,7.3,1.8
		c2.1,0,4.3-0.4,6.6-1.5c5.7-2.8,9.6-9.4,11.2-18.9c3.6-21.3-1.2-40-7.7-49L421.8,599.3z"/>
	<path fill="#FACFBD" d="M408.9,602.3l0.9-0.4c3.5-1.7,6.5-3,9.1-3.8l1.6-0.5l-1.2-1.2c-4.3-4.2-9-6.7-12.2-6.4
		c-1.2,0-2.1,0.5-2.8,1.4l-0.3,0.4l0.2,0.5c0.9,2.2,2.8,6.3,4.2,9.1L408.9,602.3z"/>
	<path fill="#FACFBD" d="M400.9,592.5l-0.6-0.1c-1.4-0.3-3.4,0.2-5.1,1.1c-2.2,1.2-3.9,2.9-4.6,5l-0.2,0.6l0.4,0.4
		c4.3,4.5,6.4,6.8,7.3,8l0.3,0.4h0.5c0.1,0,0.3,0,0.5-0.1l1.3-0.8c1.5-0.9,3-1.9,4.6-2.7l0.5-0.3v-0.6c0-0.2,0-0.4-0.2-0.6l0,0
		c-2.4-4.7-3.9-7.8-4.6-9.7L400.9,592.5z"/>
	<path fill="#FACFBD" d="M379,391.2l0.1,1.9l3.9-3.1c0.7-0.5,1.5-0.4,2.1,0.3c0.5,0.7,0.4,1.5-0.2,2.1l-4,3.1l-0.1,0.1
		c-0.1,0.1-0.3,0.2-0.5,0.2h-1v7.1l1,0c0.2,0,0.5,0,0.7,0c7.3,0,11-4.9,12.7-7.8c2.7-5,2.5-11.1-0.5-14.4l0,0
		c-4.4-4.9-9.4-3-14.1-0.2c0,0,0,0-0.1,0H378l0.1,1.1C378.5,384.8,378.8,387.9,379,391.2z"/>
	<path fill="#FACFBD" d="M328.5,688.2c-0.1-0.5-0.3-1-0.3-1.5c-0.3-1.1-0.5-1.7-0.8-2.3l-0.2-0.4c-0.9-1.7-1.5-3.4-1.7-8.3
		c-0.2-4.5-3.2-6.7-8.2-9.9l-0.3-0.2c-1.6-1.1-3.3-2.1-4.9-3.5c-2.2-1.8-3.8-4.4-4.8-7.5l-0.1-0.2c-0.7-1.1-2.1-3.2-3.1-3.7
		l-0.3-0.1c-1.1-0.2-4.3-0.7-9.5-1.4l-1.9-0.3l6.8,13.7c0.5,0.9,0.1,2.1-0.8,2.6l-0.1,0.1c-3.9,2.4-23.5,14.8-25.2,27.8
		c-0.7,5.1-0.6,9,0.2,11.6l1,3.2l0.9-3.2c1.3-4.3,4.7-7.6,5.7-8.3c1-0.5,2.2-0.3,2.8,0.7c0.3,0.5,0.4,1,0.3,1.5
		c-0.1,0.5-0.4,0.9-0.9,1.3c-0.8,0.6-5.8,5.6-4.1,10.4c0.5,1.5,1.8,2.6,4,3.3c2.6,0.8,5.4,0.6,7.1,0.1l1-0.3l-0.4-1
		c-0.3-0.7-0.3-1.3-0.4-2c-0.4-4,1.8-8.4,6.4-13l0.4-0.4l0.1-0.1c0.6-0.8,1.8-1,2.7-0.4c0.4,0.3,0.7,0.8,0.8,1.4
		c0.1,0.5,0,1-0.4,1.5c-0.1,0.1-0.2,0.2-0.2,0.3c-0.2,0.2-0.4,0.4-0.6,0.6l-0.2,0.2c-1.6,1.7-5.4,5.8-5.1,9.7
		c0.1,1.2,0.7,2.4,1.7,3.5c0.5,0.5,1.2,1.2,2,1.7c2.9,2,6.1,3.1,9.4,3.1c1.2,0,2.4-0.1,3.7-0.4c5.8-1.3,11.3-5.6,14.7-11.4
		c0.9-1.5,1.6-3,2-3.9c2.7-6.4,1.6-10.5,0.7-13.7L328.5,688.2z"/>
</g>
<path fill="none" stroke="#000000" stroke-width="5" stroke-linecap="round" stroke-linejoin="round" stroke-miterlimit="10" d="
	M277.9,348.9c0,0,0.2-3.4,5.6-4.5"/>
<path fill="none" stroke="#000000" stroke-width="5" stroke-linecap="round" stroke-linejoin="round" stroke-miterlimit="10" d="
	M305.3,341.8c0,0,3.6-1,6,2.2"/>
<path fill="none" stroke="#000000" stroke-width="5" stroke-linecap="round" stroke-linejoin="round" stroke-miterlimit="10" d="
	M283.5,382.8c2.5-0.4,1.7,6.8,0,6s-0.6-5.4-0.1-5.4"/>
<path fill="none" stroke="#000000" stroke-width="5" stroke-linecap="round" stroke-linejoin="round" stroke-miterlimit="10" d="
	M308.8,377.6c2.7,0.2,1.9,7.3,0,6.6c-1.9-0.6-1.1-6.3-0.3-6.3c0.9,0.1,0.5,3.8,0.5,3.8"/>
<path fill="none" stroke="#000000" stroke-width="6" stroke-linecap="round" stroke-linejoin="round" stroke-miterlimit="10" d="
	M299.2,406.5c0,0,6.9-11.5,19.5-5.3s2.4,35.2-18.6,23.4"/>
<path fill="none" stroke="#000000" stroke-width="5" stroke-linecap="round" stroke-linejoin="round" stroke-miterlimit="10" d="
	M250.8,440.1c0,0,20.1,22.2,57.3,14.7s51.1-42.6,51.4-50.1"/>
<path fill="none" stroke="#000000" stroke-width="6" stroke-linecap="round" stroke-linejoin="round" stroke-miterlimit="10" d="
	M290.4,483.7c0,0-42-4-53.4-21.3c-11.5-17.3-12.7-27.3-12.7-27.3s-18.6,7.5-23.8-4.7c-5.3-12.2-0.1-30.2,20.4-22.3
	c0,0-1.3-37.6,3.2-51.1c4.6-13.5,26.8-32.6,26.8-32.6"/>
<path fill="none" stroke="#000000" stroke-width="6" stroke-linecap="round" stroke-linejoin="round" stroke-miterlimit="10" d="
	M223.6,358.5c0,0,32.9-44.9,84-51.1"/>
<path fill="none" stroke="#000000" stroke-width="6" stroke-linecap="round" stroke-linejoin="round" stroke-miterlimit="10" d="
	M261.3,324.5c0,0,22.5-7.6,47-7.3s30.6,3.7,30.6,3.7"/>
<path fill="none" stroke="#000000" stroke-width="6" stroke-linecap="round" stroke-linejoin="round" stroke-miterlimit="10" d="
	M317.9,304.2c0,0,42.5,19.7,52,48.2c9.5,28.4,17.1,91.4-25.1,117.4"/>
<path fill="none" stroke="#000000" stroke-width="5" stroke-linecap="round" stroke-linejoin="round" stroke-miterlimit="10" d="
	M213.1,421.1c0,0,1.7,0.3,2.4,1.3"/>
<line fill="none" stroke="#000000" stroke-width="5" stroke-linecap="round" stroke-linejoin="round" stroke-miterlimit="10" x1="380" y1="394.1" x2="384" y2="391"/>
<path fill="none" stroke="#000000" stroke-width="6" stroke-linecap="round" stroke-linejoin="round" stroke-miterlimit="10" d="
	M376.5,379.2c1.4-0.3,10.7-8.3,18.1,0s0.2,27.5-15.9,25.4"/>
<path fill="none" stroke="#000000" stroke-width="6" stroke-linecap="round" stroke-linejoin="round" stroke-miterlimit="10" d="
	M231.8,454c-1.2,0.6-36.8-10.9-69.1,0.1c-20.9-8.9-31.5-20.9-48.2-13"/>
<path fill="none" stroke="#000000" stroke-width="6" stroke-linecap="round" stroke-linejoin="round" stroke-miterlimit="10" d="
	M132.4,449.4c-2.1-0.6-13.1-10.5-26.1-5.4c-13,5.2-3.7,13.8-3.7,13.8"/>
<path fill="none" stroke="#000000" stroke-width="6" stroke-linecap="round" stroke-linejoin="round" stroke-miterlimit="10" d="
	M129.5,461c-1.7-0.5-14.4-11-23.5-6c-9.2,5,5.8,17.1,13.5,16.7s22.5,0.5,22.5,7s-19.3,12.5-11.5,23.4c7.8,10.9,22.5-6.3,27.2-15.9
	s13.1-11,31-6s51.4,16.4,50.8,16.4"/>
<path fill="none" stroke="#000000" stroke-width="6" stroke-linecap="round" stroke-linejoin="round" stroke-miterlimit="10" d="
	M246.5,491c-0.6,0-7.6,6.7-7.5,17.7c0.5,9.3,11.6,15.4,12.7,17.4"/>
<path fill="none" stroke="#000000" stroke-width="6" stroke-linecap="round" stroke-linejoin="round" stroke-miterlimit="10" d="
	M368.9,443.7c-0.4-0.6,32.9-18.6,62.4-23.5c18.3-20.9,44.3-18.8,51.7-14.4"/>
<path fill="none" stroke="#000000" stroke-width="6" stroke-linecap="round" stroke-linejoin="round" stroke-miterlimit="10" d="
	M472.6,409.5c0.5-0.2,20.3-5,25.2,6.9"/>
<path fill="none" stroke="#000000" stroke-width="6" stroke-linecap="round" stroke-linejoin="round" stroke-miterlimit="10" d="
	M476.4,418.2c0.6-0.5,19.1-6.3,24,2.8c3.1,6.1-7.8,12.2-17.3,10.1s-22.8-0.3-22.2,5.4s7.9,17.3-5.8,18.5
	c-13.8,1.2-14.5-21.4-15-20.2s-38.8,43-54,50"/>
<path fill="none" stroke="#000000" stroke-width="6" stroke-linecap="round" stroke-linejoin="round" stroke-miterlimit="10" d="
	M374.6,472.8c0,0,13.9,7.3,6.7,31.3"/>
<path fill="none" stroke="#000000" stroke-width="6" stroke-linecap="round" stroke-linejoin="round" stroke-miterlimit="10" d="
	M384.6,494c0,0,11.7,19.3,11.9,33.4c-7.2,10.1-17.1,15.4-17.1,15.4"/>
<path fill="none" stroke="#000000" stroke-width="6" stroke-linecap="round" stroke-linejoin="round" stroke-miterlimit="10" d="
	M241.6,516c-1.2,1-8.4,25.1-6.7,32.9c4.9,11.9,37.8,20.3,44.8,20.3"/>
<path fill="none" stroke="#000000" stroke-width="5" stroke-linecap="round" stroke-linejoin="round" stroke-miterlimit="10" d="
	M268,509.2c2.1,0,2.1,2.8,0,2.5c-2.1-0.3-1.5-1.8,0-1.7"/>
<path fill="none" stroke="#000000" stroke-width="5" stroke-linecap="round" stroke-linejoin="round" stroke-miterlimit="10" d="
	M352.4,495.9c2.8-0.2,3.8,4.4,0.3,4.1s-1.8-3.8-0.3-3.5s0.4,1.8,0.4,1.8"/>
<path fill="none" stroke="#000000" stroke-width="6" stroke-linecap="round" stroke-linejoin="round" stroke-miterlimit="10" d="
	M281.9,570.4c0,0,2.1-7.3,11.1-7.1s30-3.4,45.7-9.9s29.8-16.6,38.8-10.4"/>
<path fill="none" stroke="#000000" stroke-width="6" stroke-linecap="round" stroke-linejoin="round" stroke-miterlimit="10" d="
	M394,508.6c0-0.9,10.5-5.3,16.4,7.4c5.8,12.7,15.4,41.3-0.2,68.1"/>
<path fill="none" stroke="#000000" stroke-width="6" stroke-linecap="round" stroke-linejoin="round" stroke-miterlimit="10" d="
	M401.5,645.5c-0.3,0-11.5-4-22.7-21.1s3.4-27.1,9.7-25.2c1-6.4,9.5-10.2,13.6-8.3c3.8-6.6,14.6-1.1,21.1,7
	c6.8,8.8,12.5,28.3,8.6,51.4c-3.9,23-19.6,24.5-28,20.1c-8.4-4.5-11.7-23.4-10.8-27.4"/>
<path fill="none" stroke="#000000" stroke-width="5" stroke-linecap="round" stroke-linejoin="round" stroke-miterlimit="10" d="
	M388.5,599.2c0,0,8.9,9.4,8.7,9.5"/>
<path fill="none" stroke="#000000" stroke-width="5" stroke-linecap="round" stroke-linejoin="round" stroke-miterlimit="10" d="
	M402.1,590.9c-0.4,0.6,4.9,11.2,4.9,11.2"/>
<path fill="none" stroke="#000000" stroke-width="4" stroke-linecap="round" stroke-linejoin="round" stroke-miterlimit="10" d="
	M386.7,618c0-0.6,24.5-18.2,35.3-19.7"/>
<path fill="none" stroke="#000000" stroke-width="4" stroke-linecap="round" stroke-linejoin="round" stroke-miterlimit="10" d="
	M379.4,543.9c0,0,13.4,28.1,9.1,52.6"/>
<path fill="none" stroke="#000000" stroke-width="4" stroke-linecap="round" stroke-linejoin="round" stroke-miterlimit="10" d="
	M281.9,572c-1.1,0.5-5.7,19.7,2.5,38.3c8.3,18.6,22.5,34.4,22.5,34.4"/>
<path fill="none" stroke="#000000" stroke-width="6" stroke-linecap="round" stroke-linejoin="round" stroke-miterlimit="10" d="
	M234.6,535.5c-1.5,0-14.4-0.3-15.5,16.4c-1,16.7,7.1,62.5,32.3,76.5c25.1,14,55,19,88.2,14c30.7-6.4,39.1-18,39.1-18"/>
<path fill="none" stroke="#000000" stroke-width="4" stroke-linecap="round" stroke-linejoin="round" stroke-miterlimit="10" d="
	M279.1,578.9c-0.3-0.1-11.8-2.8-13.8-2.1s-1.2,15.4,1.8,15.8c3,0.4,12,1.8,12,1.8"/>
<path fill="none" stroke="#000000" stroke-width="4" stroke-linecap="round" stroke-linejoin="round" stroke-miterlimit="10" d="
	M383.8,553.5c0.2-0.3,10-11,12.2-9.6s4.4,10.4,3.8,11.8c-0.5,1.4-9.6,7.9-12.1,9.1"/>
<path fill="none" stroke="#000000" stroke-width="6" stroke-linecap="round" stroke-linejoin="round" stroke-miterlimit="10" d="
	M287,642.2c0.5,0.8,10.5,21.2,10.5,21.2s-24.3,13.9-26.3,29.4c-1.8,13.9,2.6,16.2,2.6,16.2"/>
<path fill="none" stroke="#000000" stroke-width="6" stroke-linecap="round" stroke-linejoin="round" stroke-miterlimit="10" d="
	M282.3,698c-1.2,0.8-7,6.7-4.9,12.8s12.3,6.1,15.7,3.7"/>
<path fill="none" stroke="#000000" stroke-width="6" stroke-linecap="round" stroke-linejoin="round" stroke-miterlimit="10" d="
	M298.9,698c-0.8,1.1-12.8,11.2-2,18.8s24.3,1.7,30.7-9.4s3.4-16.7,2.4-21.2c-0.9-4.4-2.3-2.8-2.6-10.7s-8.3-10.2-14.1-15.1
	c-5.8-4.9-5.4-15.2-5.4-15.2"/>
<path fill="none" stroke="#000000" stroke-width="6" stroke-linecap="round" stroke-linejoin="round" stroke-miterlimit="10" d="
	M292.1,646.8c0.5-0.1,10.3,1.3,12.3,1.7c2.1,0.5,4.7,4.8,4.7,4.8"/>
<path fill="none" stroke="#000000" stroke-width="6" stroke-linecap="round" stroke-linejoin="round" stroke-miterlimit="10" d="
	M332.7,697c0.6,0.2,3.5,2.8,5.7,2.9c2.2,0.2,10.2-1.1,10.1-1c-0.1,0.2-11.5,4.4-18,4.8"/>
<path fill="none" stroke="#000000" stroke-width="40" stroke-linecap="round" stroke-linejoin="round" stroke-miterlimit="10" stroke-opacity="0" d="
	M268.1,325.5c-1.5,0.4-66.3,54.8-66.3,54.8l-7.8,19.1l111-69.3l42.6-0.5l-146,91.5l-87.1,29.1V464l247.4-107.3l12.7,18.4
	c0,0-238.6,100.5-236.3,113.5s2.3,13,2.3,13l257.7-107.5l5.6,5.3c0,0-169.7,90.6-169.2,91.6s0,17.6,0,17.6l235.2-100.2l18.6,12.7
	L240.5,529l2.1,16.9l153.8-52.5V516l-82.6,25.2l-44.2,13.1"/>
<polyline fill="none" stroke="#000000" stroke-width="40" stroke-linecap="round" stroke-linejoin="round" stroke-miterlimit="10" stroke-opacity="0" points="
	309,646.8 273.8,673.1 274,695 316,671.4 327.6,678.6 287.6,707 317.8,717.3 339.5,700.4 "/>
<path fill="none" stroke="#000000" stroke-width="40" stroke-linecap="round" stroke-linejoin="round" stroke-miterlimit="10" stroke-opacity="0" d="
	M407,585.5l-27.6,26.1l13.5,15.1c0,0,28.5-21.2,29.1-22.8c0.7-1.6,8.1,4.8,8.1,4.8l-33.6,41.4c0,0,0.4,20.6,1.7,18
	c1.3-2.6,31.2-22.9,31.2-22.9"/>
<line fill="none" stroke="#000000" stroke-width="40" stroke-linecap="round" stroke-linejoin="round" stroke-miterlimit="10" stroke-opacity="0" x1="261.5" y1="581.8" x2="281.9" y2="584.1"/>
<path fill="none" stroke="#000000" stroke-width="40" stroke-linecap="round" stroke-linejoin="round" stroke-miterlimit="10" stroke-opacity="0" d="
	M377.7,566.7c0.7-0.9,16.3-16.1,16.3-16.1"/>
</svg>
