<?xml version="1.0" encoding="utf-8"?>
<!-- Generator: Adobe Illustrator 23.1.0, SVG Export Plug-In . SVG Version: 6.00 Build 0)  -->
<svg version="1.1" id="Layer_1" xmlns="http://www.w3.org/2000/svg" xmlns:xlink="http://www.w3.org/1999/xlink" x="0px" y="0px"
	 viewBox="0 0 1000 1000" enable-background="new 0 0 1000 1000" xml:space="preserve">
<g id="vs-highlight">
	<path fill="#5DBFD9" d="M304.6,111.8H364h59.3c1.5,0,2.7-0.6,3.6-1.5s1.5-2.2,1.5-3.6c0-1.5-0.6-2.7-1.5-3.6s-2.2-1.5-3.6-1.5H364
		h-59.4c-1.4,0-2.7,0.6-3.6,1.5s-1.5,2.2-1.5,3.6s0.6,2.7,1.5,3.6S303.2,111.8,304.6,111.8z"/>
	<path fill="#5DBFD9" d="M419.2,229.8c-1.8-1.9-4-3.6-6.4-4.7c-2.4-1.1-5.1-1.7-7.9-1.7c-2.3,0-4.5,0.4-6.6,1.2s-4,1.9-5.7,3.2
		c-1.7-1.4-3.6-2.5-5.7-3.3s-4.3-1.1-6.6-1.1c-2.8,0-5.5,0.6-7.9,1.7c-2.4,1.1-4.6,2.7-6.4,4.7c-1.8-1.9-4-3.6-6.4-4.7
		c-2.4-1.1-5.1-1.7-7.9-1.7c-2.3,0-4.5,0.4-6.6,1.2s-4,1.9-5.7,3.2c-1.7-1.4-3.6-2.5-5.7-3.3s-4.3-1.1-6.6-1.1
		c-5.3,0-10.1,2.2-13.7,5.7c-3.5,3.5-5.7,8.4-5.7,13.7v71.7v71.6c0,5.3,2.2,10.1,5.7,13.7c3.5,3.5,8.4,5.7,13.7,5.7
		c2.3,0,4.5-0.4,6.6-1.2c2.1-0.8,4-1.9,5.7-3.2c1.7,1.4,3.6,2.5,5.7,3.3s4.3,1.1,6.6,1.1c2.8,0,5.5-0.6,7.9-1.7s4.6-2.7,6.4-4.7
		c1.8,1.9,4,3.5,6.4,4.7c2.4,1.1,5.1,1.7,7.9,1.7c2.3,0,4.5-0.4,6.6-1.2c2.1-0.8,4-1.9,5.7-3.2c1.7,1.4,3.6,2.5,5.7,3.3
		s4.3,1.1,6.6,1.1c2.8,0,5.5-0.6,7.9-1.7s4.6-2.7,6.4-4.7c1.8,1.9,4,3.5,6.4,4.7c2.4,1.1,5.1,1.7,7.9,1.7c5.3,0,10.1-2.2,13.7-5.7
		c3.5-3.5,5.7-8.4,5.7-13.7v-71.6v-71.7c0-5.3-2.2-10.2-5.7-13.7s-8.4-5.7-13.7-5.7c-2.8,0-5.5,0.6-7.9,1.7
		C423.2,226.3,421,227.9,419.2,229.8z"/>
	<path fill="#5DBFD9" d="M714.9,301.2c-0.7,0-1.4,0-2,0.1c-0.7,0.1-1.3,0.3-2,0.5c-1.2-0.8-2.5-1.5-3.8-1.9
		c-1.4-0.5-2.9-0.7-4.5-0.7c-4,0-7.6,1.6-10.1,4.1c-2.6,2.6-4.2,6.1-4.2,10.1v5.1v5.1c0,4,1.6,7.6,4.2,10.1
		c2.6,2.6,6.1,4.1,10.1,4.1c0.7,0,1.4,0,2-0.1c0.7-0.1,1.3-0.3,2-0.5c1.1,0.8,2.5,1.5,3.8,1.9c1.4,0.5,2.9,0.7,4.5,0.7
		c4,0,7.6-1.6,10.2-4.1c2.6-2.6,4.1-6.1,4.1-10.1v-5.1v-5.1c0-4-1.5-7.6-4.1-10.1C722.5,302.8,718.9,301.2,714.9,301.2z"/>
	<path fill="#5DBFD9" d="M439.9,506.2c0.6-7.3-1.1-15.5-4.6-23.6c-3.5-8.2-8.9-16.3-15.7-23.3c-7.4-7.6-16-13.4-25.3-17.2
		c-9.3-3.7-19.3-5.4-29.5-4.9c-11.9,0.6-23.4,3.6-33.6,8.5c-10.2,5-19.3,12-26.4,20.6c-5.9,7.3-10.2,15.4-12.6,24s-3,17.7-1.7,26.8
		c4,26.8,17.3,43.7,32.6,53.8c15.3,10.2,32.7,13.7,44.8,13.7c0.2,0,0.4,0,0.6,0c0.3,0,0.6-0.1,1-0.2c21.3-0.5,37.9-7.3,49.6-20.4
		C430.9,550.9,437.8,531.6,439.9,506.2z M369.1,570.3c-9.7,0.3-24.1-2.3-37-10.6S308,537.4,304.6,515c-1-7-0.6-14.1,1.3-20.8
		s5.2-13.1,10-18.9c5.9-7,13.3-12.7,21.7-16.8s17.9-6.4,27.8-6.9c8.1-0.4,16,1,23.5,4c7.4,3,14.4,7.7,20.5,13.8
		c6.1,6.3,10.3,13.1,12.9,19.4s3.6,12.2,3.3,16.4c-2.4,28.6-11,44.7-21.7,53.7S380.2,570,369.1,570.3z"/>
	<path fill="#5DBFD9" d="M697.6,822c-1.4,0-2.8,0.4-3.9,1c-1.2,0.6-2.2,1.6-2.9,2.7c-1.1-2-2.8-3.7-4.8-4.9s-4.3-1.9-6.8-1.9
		c-1.8,0-3.5,0.3-5.1,1s-3,1.6-4.2,2.8c-1.2-1.1-2.7-2.1-4.3-2.7s-3.3-0.9-5.2-0.9l0.7-58.8l0.6-58.8c0.1-3.7-1.3-7.1-3.7-9.5
		s-5.7-4-9.4-4c-1,0-1.9,0-2.8,0.2s-1.8,0.4-2.7,0.8c-0.8-0.3-1.5-0.5-2.3-0.7s-1.6-0.3-2.5-0.3h-0.1h-0.1c-3.6,0-6.9,1.5-9.3,3.9
		c-2.4,2.4-3.9,5.6-4,9.2l-1.3,61.5l-1.4,61.5c-1.3-1.6-2.9-3-4.8-3.9c-1.9-0.9-4-1.4-6.3-1.3c-2,0-3.9,0.5-5.5,1.4
		c-1.7,0.8-3.1,2-4.3,3.4l-0.5-6.5l-0.5-6.5c-0.3-3.7-2-6.9-4.6-9.2c-2.6-2.2-6-3.5-9.7-3.1c-0.8,0-1.5,0.2-2.1,0.3
		c-0.7,0.2-1.3,0.4-2,0.7c-0.7-0.3-1.5-0.5-2.2-0.7c-0.8-0.2-1.6-0.3-2.5-0.3c-3.7-0.1-7.1,1.3-9.5,3.6c-2.5,2.3-4,5.6-4.2,9.3
		l-0.1,5.5l-0.2,5.5c-1.2-1-2.6-1.9-4.1-2.5s-3.1-0.9-4.8-0.9c-2,0-4,0.5-5.7,1.3s-3.3,2-4.5,3.5c-1.2-1.5-2.7-2.7-4.5-3.5
		c-1.7-0.8-3.7-1.3-5.7-1.3c-1.3,0-2.6,0.2-3.8,0.6s-2.4,0.9-3.4,1.5v-4.7v-4.6c0-3.7-1.5-7-3.9-9.4s-5.7-3.9-9.4-3.9
		s-7,1.5-9.4,3.9s-3.9,5.7-3.9,9.4v5.6v5.7c-1-0.7-2.2-1.2-3.4-1.5s-2.5-0.6-3.8-0.6c-1.8,0-3.5,0.3-5,1c-1.6,0.6-3,1.6-4.2,2.7
		c-1.2-1.1-2.6-2.1-4.1-2.7c-1.6-0.6-3.3-1-5.1-1c-0.7,0-1.4,0-2.1,0.2c-0.7,0.1-1.3,0.3-1.9,0.4l1-58.5l1-58.5c0-3.7-1.4-7-3.8-9.5
		s-5.6-4-9.3-4h-0.1h-0.1c-1.6,0-3,0.3-4.4,0.8s-2.7,1.2-3.8,2.1c-1.1-0.9-2.4-1.6-3.8-2.1s-2.9-0.8-4.4-0.8c-3.7,0-7,1.5-9.4,3.9
		s-3.9,5.7-3.9,9.4l-0.4,58.1l-0.4,58.1c-0.9-0.3-1.9-0.6-3-0.7c-1-0.1-2.1-0.1-3.2,0.1c-0.3,0-0.5,0.1-0.7,0.2
		c-0.2,0-0.5,0.1-0.7,0.1c-0.5-0.1-0.9-0.2-1.4-0.2s-1-0.1-1.5-0.1c-1.4,0-2.7,0.2-4,0.6c-1.2,0.4-2.4,1-3.4,1.7
		c-0.7-0.4-1.5-0.7-2.3-0.9s-1.7-0.3-2.5-0.3c-2.9,0-5.4,1.1-7.2,3c-1.8,1.8-3,4.4-3,7.2v1v1c0,2.9,1.1,5.4,3,7.2
		c1.8,1.8,4.4,3,7.2,3c0.1,0,0.2,0,0.3,0s0.1,0,0.3,0c0.8,1.5,1.8,2.7,2.9,3.8s2.6,1.9,4.1,2.5c0.5,3.3,2.1,6.1,4.5,8
		c2.3,2,5.3,3.1,8.5,3.1c0.3,0,0.6,0,0.9,0s0.7-0.1,1.1-0.2l0,0l0,0v3.2v3.2c0,3.6,1.5,6.9,3.9,9.3c2.4,2.4,5.7,4,9.4,4
		c0.2,0,0.4,0,0.5,0c0.2,0,0.4,0,0.6-0.1l-0.1,2.5v2.5c0,3.7,1.4,7,3.8,9.5s5.6,3.9,9.3,4h0.1h0.1c1.6,0,3-0.3,4.4-0.7
		c1.4-0.5,2.6-1.2,3.7-2.1c1.2,1.5,2.7,2.7,4.5,3.6s3.7,1.3,5.8,1.3c1.8,0,3.5-0.3,5-1c1.6-0.6,3-1.6,4.2-2.7
		c1.2,1.1,2.6,2.1,4.1,2.7c1.6,0.6,3.3,1,5.1,1c2,0,4-0.5,5.7-1.3s3.3-2,4.5-3.5c1.2,1.5,2.7,2.7,4.5,3.5c1.7,0.8,3.7,1.3,5.7,1.3
		s4-0.5,5.7-1.3s3.3-2,4.5-3.5c1.2,1.5,2.7,2.7,4.5,3.5c1.7,0.8,3.7,1.3,5.7,1.3s4-0.5,5.7-1.3s3.3-2,4.5-3.5
		c1.2,1.5,2.7,2.7,4.5,3.5c1.7,0.8,3.7,1.3,5.7,1.3s4-0.5,5.7-1.3s3.3-2,4.5-3.5c1.1,1.4,2.6,2.6,4.3,3.4c1.7,0.8,3.5,1.3,5.5,1.4
		c0.1,0,0.2,0,0.2,0s0.1,0,0.2,0c1.8,0,3.5-0.3,5-1s3-1.6,4.2-2.7c1.2,1.1,2.6,2.1,4.2,2.7s3.2,1,5,1c0.2,0,0.3,0,0.5,0s0.3,0,0.5,0
		c1.8-0.2,3.6-0.7,5.2-1.5c1.6-0.8,2.9-1.9,4-3.3c1.3,1.5,2.8,2.7,4.5,3.5s3.6,1.3,5.7,1.3c0.1,0,0.2,0,0.3,0s0.1,0,0.1,0
		c2,0,3.9-0.5,5.5-1.4c1.7-0.8,3.2-2,4.4-3.5c1.2,1.5,2.7,2.7,4.4,3.5s3.6,1.3,5.6,1.4h0.1h0.1c1.9,0,3.7-0.4,5.4-1.2
		s3.2-1.8,4.4-3.1c0.4,0.1,0.8,0.2,1.2,0.2s0.8,0,1.3,0c3.7,0,7-1.5,9.4-3.8c2.4-2.4,3.9-5.7,3.9-9.3v-4.9v-4.9
		c0.5,0.1,1,0.2,1.5,0.2s1,0.1,1.5,0.1c0.1,0,0.3,0,0.4,0c0.2,0,0.3,0,0.4,0c3.7-0.2,6.9-1.9,9.2-4.5s3.4-6,3.1-9.6l-0.1-2.4
		l-0.2-2.4c0.6,0.1,1.2,0.3,1.8,0.4c0.6,0.1,1.2,0.1,1.8,0.1c3.7,0,7-1.5,9.4-3.9s3.9-5.7,3.9-9.4v-2v-2c0.7,0.5,1.5,1,2.4,1.4
		c0.9,0.3,1.8,0.5,2.7,0.5c2.3,0,4.3-0.9,5.8-2.4s2.4-3.5,2.4-5.8v-1v-1c0-2.3-0.8-4.3-2.3-5.8C701.9,822.9,699.8,822,697.6,822z"/>
</g>
<g id="vs-outline">
	<path fill="none" stroke="#000000" stroke-width="12" stroke-linecap="round" stroke-linejoin="round" stroke-miterlimit="10" d="
		M561.1,138.5h147.8h147.9c13,0,24.8,6.3,33.3,15.9c8.5,9.5,13.8,22.3,13.8,35.3v130.4v130.4c0,13-5.3,24.8-13.8,33.3
		s-20.3,13.8-33.3,13.8H708.9H561.1c-13,0-24.8-5.3-33.3-13.8S514,463.5,514,450.5V320.1V189.6c0-13,5.3-25.8,13.8-35.3
		S548.1,138.5,561.1,138.5z"/>
	<path fill="none" stroke="#000000" stroke-width="12" stroke-linecap="round" stroke-linejoin="round" stroke-miterlimit="10" d="
		M887.1,488.4l-0.1,58.9l-0.1,58.8c0,15.3-6.2,29.1-16.2,39.1s-23.8,16.2-39.1,16.2H536.9H242.2c-15.3,0-29.1-6.2-39.1-16.2
		c-10-10-16.2-23.8-16.2-39.1v-17.4v-17.4"/>
	<path fill="none" stroke="#000000" stroke-width="12" stroke-linecap="round" stroke-linejoin="round" stroke-miterlimit="10" d="
		M187,438.3V316V193.7c0-15.3,6.2-29.1,16.2-39.1c10-10,23.8-16.2,39.1-16.2h24.1h24v-13.8v-13.8c0,0,2.3-3.6,12.6-7.2
		s28.6-7.2,60.7-7.2c32.5,0,51,3.6,61.4,7.2s12.7,7.2,12.7,7.2v13.8v13.8h60.9h60.9"/>
	
		<polyline fill="none" stroke="#000000" stroke-width="8.1859" stroke-linecap="round" stroke-linejoin="round" stroke-miterlimit="10" points="
		291.3,113.8 364,113.8 436.6,113.8 	"/>
	
		<polyline fill="none" stroke="#000000" stroke-width="12" stroke-linecap="round" stroke-linejoin="round" stroke-miterlimit="10" points="
		291.3,138.5 366,138.5 440.7,138.5 	"/>
	
		<path fill="none" stroke="#000000" stroke-width="8.1859" stroke-linecap="round" stroke-linejoin="round" stroke-miterlimit="10" d="
		M192.7,440.3h-14.1h-14.1c-4,0-7.6,1.6-10.1,4.1c-2.6,2.6-4.2,6.1-4.2,10.1v50.1v50.1c0,4,1.6,7.6,4.2,10.1
		c2.6,2.6,6.1,4.2,10.1,4.2h14.1h14.1c2.3,0,4.6-1,6.2-2.6s2.6-3.8,2.6-6.2v-55.8v-55.7c-0.1-2.4-1.1-4.5-2.7-6.1
		C197.2,441.3,195,440.3,192.7,440.3z"/>
	
		<path fill="none" stroke="#000000" stroke-width="8.1859" stroke-linecap="round" stroke-linejoin="round" stroke-miterlimit="10" d="
		M273.9,205H366h92.1c3.7,0,7,1.5,9.4,3.9s3.9,5.7,3.9,9.4v96.2v96.2c0,3.7-1.5,7-3.9,9.4s-5.7,3.9-9.4,3.9h-92.2h-92.2
		c-3.6,0-6.9-1.5-9.3-3.9s-3.9-5.6-3.9-9.3v-96.3v-96.3c0-3.7,1.5-7,3.9-9.4C266.9,206.5,270.3,205,273.9,205z"/>
	
		<path fill="none" stroke="#000000" stroke-width="8.1859" stroke-linecap="round" stroke-linejoin="round" stroke-miterlimit="10" d="
		M884.8,495.6l-8.4,6.1l-8.4,6.1c-2.5,2-4.4,4.4-5.7,7.2s-2.1,5.8-2.1,9v40.2v40.2c0,5.5-2.3,10.6-5.9,14.2
		c-3.6,3.6-8.7,5.9-14.2,5.9H544.3H248.4c-5.6,0-10.8-2.3-14.5-6s-6-8.8-6-14.5l1-204.1l1-204.1c0-5.6,2.3-10.8,6-14.5s8.8-6,14.5-6
		h120.8H492c1.9,0,3.9-0.3,5.8-0.9s3.8-1.4,5.5-2.4l10.7-7.1l10.8-7.1"/>
	<path fill="none" stroke="#000000" stroke-width="10" stroke-linecap="round" stroke-linejoin="round" stroke-miterlimit="10" d="
		M840.8,138.5v-21v-21c0-3.4-1.4-6.5-3.6-8.7c-2.2-2.2-5.3-3.6-8.7-3.6h-281H266.4c-3.4,0-6.5,1.4-8.7,3.6c-2.2,2.2-3.6,5.3-3.6,8.7
		v21v21"/>
	
		<polyline fill="none" stroke="#000000" stroke-width="8.1859" stroke-linecap="round" stroke-linejoin="round" stroke-miterlimit="10" points="
		455,100.2 462.2,106.6 469.4,112.9 647.5,112.9 825.5,112.9 833.2,106.6 840.8,100.2 	"/>
	
		<polyline fill="none" stroke="#000000" stroke-width="8.1859" stroke-linecap="round" stroke-linejoin="round" stroke-miterlimit="10" points="
		469.4,112.9 462.2,124.1 455,135.4 455,109.8 455,84.2 	"/>
	
		<polyline fill="none" stroke="#000000" stroke-width="8.1859" stroke-linecap="round" stroke-linejoin="round" stroke-miterlimit="10" points="
		825.5,112.9 833.2,125.7 840.8,138.5 	"/>
	
		<polygon fill="none" stroke="#000000" stroke-width="8.1859" stroke-linecap="round" stroke-linejoin="round" stroke-miterlimit="10" points="
		309.7,227.5 342.4,227.5 375,227.5 413,227.5 450.9,227.5 450.9,275.2 450.9,322.9 450.9,363.2 450.9,403.5 415.6,403.5 
		380.3,403.5 345,403.5 309.7,403.5 309.7,362.2 309.7,320.9 309.7,274.2 	"/>
	<path fill="none" stroke="#000000" stroke-width="8" stroke-linecap="round" stroke-linejoin="round" stroke-miterlimit="10" d="
		M569.6,157.5h139.2H848c10.2,0,19.3,4.1,26,10.8s10.8,15.9,10.8,26v125.8V446c0,10.1-4.1,19.3-10.8,26s-15.9,10.8-26,10.8H708.8
		H569.6c-10.2,0-19.3-4.1-26-10.8c-6.7-6.7-10.8-15.9-10.8-26V320.1V194.3c0-10.2,4.2-19.4,10.8-26.1S559.5,157.5,569.6,157.5z"/>
	<path fill="none" stroke="#000000" stroke-width="8" stroke-linecap="round" stroke-linejoin="round" stroke-miterlimit="10" d="
		M582.9,194.3h125.8h125.9c5.6,0,10.8,2.3,14.5,6s6,8.8,6,14.5v105.4v105.4c0,5.6-2.3,10.8-6,14.5s-8.8,6-14.5,6H708.8H582.9
		c-5.7,0-10.8-2.3-14.5-6s-6-8.8-6-14.5V320.2V214.8c0-5.8,2.4-10.9,6.1-14.6C572.2,196.6,577.3,194.3,582.9,194.3z"/>
	<path fill="none" stroke="#000000" stroke-width="12" stroke-linecap="round" stroke-linejoin="round" stroke-miterlimit="10" d="
		M708.8,196.4c35,0,66.8,13.9,89.7,36.3s37.2,53.4,37.2,87.5s-14.2,65.1-37.2,87.5S743.8,444,708.8,444s-66.8-13.9-89.7-36.3
		c-23-22.4-37.2-53.4-37.2-87.5s14.2-65.1,37.2-87.5S673.8,196.4,708.8,196.4z"/>
	
		<path fill="none" stroke="#000000" stroke-width="8.1859" stroke-linecap="round" stroke-linejoin="round" stroke-miterlimit="10" d="
		M708.8,222.6c27.6,0,52.7,10.9,70.8,28.6s29.3,42.1,29.3,69s-11.2,51.4-29.3,69c-18.1,17.7-43.1,28.6-70.8,28.6
		s-52.7-10.9-70.8-28.6s-29.3-42.1-29.3-69s11.2-51.4,29.3-69S681.2,222.6,708.8,222.6z"/>
	
		<path fill="none" stroke="#000000" stroke-width="8.1859" stroke-linecap="round" stroke-linejoin="round" stroke-miterlimit="10" d="
		M708.8,246.9c20.7,0,39.5,8.2,53.1,21.5c13.6,13.3,22,31.6,22,51.8s-8.4,38.6-22,51.8c-13.6,13.3-32.4,21.5-53.1,21.5
		s-39.5-8.2-53.1-21.5s-22-31.6-22-51.8s8.4-38.6,22-51.8C669.3,255.1,688.1,246.9,708.8,246.9z"/>
	
		<path fill="none" stroke="#000000" stroke-width="8.1859" stroke-linecap="round" stroke-linejoin="round" stroke-miterlimit="10" d="
		M708.8,286.2c9.6,0,18.3,3.8,24.6,10s10.2,14.7,10.2,24s-3.9,17.9-10.2,24c-6.3,6.2-15,10-24.6,10s-18.3-3.8-24.6-10
		s-10.2-14.7-10.2-24s3.9-17.9,10.2-24C690.5,290,699.2,286.2,708.8,286.2z"/>
	
		<path fill="none" stroke="#000000" stroke-width="8.1859" stroke-linecap="round" stroke-linejoin="round" stroke-miterlimit="10" d="
		M708.8,300.3c5.6,0,10.7,2.2,14.4,5.8c3.7,3.6,5.9,8.6,5.9,14.1s-2.3,10.5-5.9,14.1c-3.7,3.6-8.7,5.8-14.4,5.8s-10.7-2.2-14.4-5.8
		c-3.7-3.6-5.9-8.6-5.9-14.1s2.3-10.5,5.9-14.1C698.1,302.5,703.2,300.3,708.8,300.3z"/>
	
		<path fill="none" stroke="#000000" stroke-width="8.1858" stroke-linecap="round" stroke-linejoin="round" stroke-miterlimit="9.9999" d="
		M312.8,457.7c14.6-14.6,33.7-21.9,52.8-21.9c19.1,0,38.2,7.3,52.8,21.9s21.9,33.7,21.9,52.8s-7.3,38.2-21.9,52.8
		s-33.7,21.9-52.8,21.9s-38.2-7.3-52.8-21.9c-14.6-14.6-21.9-33.7-21.9-52.8C290.9,491.4,298.2,472.3,312.8,457.7z"/>
	
		<path fill="none" stroke="#000000" stroke-width="8.1859" stroke-linecap="round" stroke-linejoin="round" stroke-miterlimit="10" d="
		M365.6,451.2c16.4,0,31.2,6.6,41.9,17.4s17.4,25.6,17.4,41.9s-6.6,31.2-17.4,41.9c-10.7,10.7-25.6,17.4-41.9,17.4
		s-31.2-6.6-41.9-17.4c-10.7-10.7-17.4-25.6-17.4-41.9s6.6-31.2,17.4-41.9S349.2,451.2,365.6,451.2z"/>
	<path fill="none" stroke="#000000" stroke-width="12" stroke-linecap="round" stroke-linejoin="round" stroke-miterlimit="10" d="
		M430.5,700.2c0,0-9.7,1-27.1,2s-42.5,2-73.2,2c-25.6,0-49.6-5-67.3-10s-28.9-10-28.9-10l-15.3-0.3l-15.4-0.3
		c0,0-23.9-16.3-48.8-29.6c-25-13.3-51.1-23.5-55.6-11.3c-7.2,19.5-10.7,65-10.7,108s3.6,83.4,10.7,92.7c8.8,11.3,34.9,0.6,58.8-13
		s45.6-30,45.6-30l15.4,0.5l15.3,0.5c0,0,9.2-3.8,25.8-7.7c16.6-3.8,40.7-7.6,70.4-7.6c35.8,0,60.1,1,75.5,2s21.8,2,21.8,2"/>
	<path fill="none" stroke="#000000" stroke-width="10" stroke-linecap="round" stroke-linejoin="round" stroke-miterlimit="10" d="
		M626.9,690h10.5h10.5c3.3,0,6.3,1.3,8.5,3.5s3.7,5.1,3.8,8.4l1.9,59.5l1.8,59.5l15.2,0.8l15.1,0.8c6.5,0.4,12.5,3.2,16.9,7.5
		s7.4,10.1,7.9,16.6l1,23.5l1,23.5l-34.8,3l-34.8,3H549.1H446.9l-33.8-3l-33.8-3v-22.3V849c0-7,2.7-13.4,7.2-18.2s10.7-7.9,17.8-8.4
		l12.1-0.7l12-0.7l1.6-58.5l1.6-58.5c0.2-3.4,1.7-6.4,4-8.5s5.3-3.4,8.8-3.4H457h12.5"/>
	<path fill="none" stroke="#000000" stroke-width="12" stroke-linecap="round" stroke-linejoin="round" stroke-miterlimit="10" d="
		M664.4,716.6l22.2,1.8l22.2,1.8c0,0,2,0.7,4.1,4.5c2.1,3.9,4.1,10.9,4.1,23.7c0,14.9-2,22.3-4.1,26c-2,3.7-4.1,3.7-4.1,3.7l-22.2,2
		l-22.1,2"/>
	<path fill="none" stroke="#000000" stroke-width="8" stroke-linecap="round" stroke-linejoin="round" stroke-miterlimit="10" d="
		M88.5,728.9c0,0,24.6,1,48.7-5.6s47.7-21,45.6-51.7"/>
	<path fill="none" stroke="#000000" stroke-width="8" stroke-linecap="round" stroke-linejoin="round" stroke-miterlimit="10" d="
		M88.7,757.5c0,0,23.5,0,47.6,6.4c24,6.4,48.6,19.2,50.6,44.8"/>
	
		<polyline fill="none" stroke="#000000" stroke-width="8.1859" stroke-linecap="round" stroke-linejoin="round" stroke-miterlimit="10" points="
		203.3,683.8 203.3,742.2 203.3,800.5 	"/>
	
		<polyline fill="none" stroke="#000000" stroke-width="11.422" stroke-linecap="round" stroke-linejoin="round" stroke-miterlimit="10" points="
		234,690 234,743 234,796 	"/>
	
		<path fill="none" stroke="#000000" stroke-width="8.1859" stroke-linecap="round" stroke-linejoin="round" stroke-miterlimit="10" d="
		M471.4,684.9v68v68h14.4h14.4v-68v-68c0-3.7-1.5-7-3.9-9.4s-5.7-3.9-9.4-3.9l0,0l0,0c-3.7,0-7.6,1.5-10.5,3.9
		C473.4,677.9,471.4,681.2,471.4,684.9z"/>
	<path fill="none" stroke="#000000" stroke-width="12" stroke-linecap="round" stroke-linejoin="round" stroke-miterlimit="10" d="
		M528.7,688.9v66v66h17.9h17.9v-66v-66c0-3.7-2.8-7.5-6.5-10.4s-8.3-4.9-11.9-4.9l0,0l0,0c-3.7,0-8,2-11.5,4.9
		C531.2,681.4,528.7,685.2,528.7,688.9z"/>
	
		<path fill="none" stroke="#000000" stroke-width="8.1859" stroke-linecap="round" stroke-linejoin="round" stroke-miterlimit="10" d="
		M598.3,684.9v68v68h13.3h13.3v-68v-68c0-3.7-1.5-7-3.9-9.4s-5.7-3.9-9.4-3.9l0,0l0,0c-3.7,0-7,1.5-9.4,3.9
		C599.8,677.9,598.3,681.2,598.3,684.9z"/>
	
		<polyline fill="none" stroke="#000000" stroke-width="8.1859" stroke-linecap="round" stroke-linejoin="round" stroke-miterlimit="10" points="
		252,661.3 252,674.6 252,687.9 	"/>
	
		<polyline fill="none" stroke="#000000" stroke-width="8.1859" stroke-linecap="round" stroke-linejoin="round" stroke-miterlimit="10" points="
		391.6,661.3 391.6,680.8 391.6,700.2 	"/>
	
		<polyline fill="none" stroke="#000000" stroke-width="10" stroke-linecap="round" stroke-linejoin="round" stroke-miterlimit="10" points="
		831.6,661.3 831.6,682.8 831.6,704.3 759.9,704.3 688.3,704.3 688.3,682.8 688.3,661.3 	"/>
	
		<polyline fill="none" stroke="#000000" stroke-width="10" stroke-linecap="round" stroke-linejoin="round" stroke-miterlimit="10" points="
		688.3,704.3 676,704.3 663.8,704.3 	"/>
	
		<polyline fill="none" stroke="#000000" stroke-width="8.1859" stroke-linecap="round" stroke-linejoin="round" stroke-miterlimit="10" points="
		528.7,788.2 514.4,788.2 500.1,788.2 	"/>
	
		<polyline fill="none" stroke="#000000" stroke-width="8.1859" stroke-linecap="round" stroke-linejoin="round" stroke-miterlimit="10" points="
		598.3,788.2 581.4,788.2 564.5,788.2 	"/>
	
		<polyline fill="none" stroke="#000000" stroke-width="8.1859" stroke-linecap="round" stroke-linejoin="round" stroke-miterlimit="10" points="
		500.1,800.5 514.4,800.5 528.7,800.5 	"/>
	
		<polyline fill="none" stroke="#000000" stroke-width="8.1859" stroke-linecap="round" stroke-linejoin="round" stroke-miterlimit="10" points="
		564.5,800.5 581.4,800.7 598.3,800.9 	"/>
	
		<path fill="none" stroke="#000000" stroke-width="8.1859" stroke-linecap="round" stroke-linejoin="round" stroke-miterlimit="10" d="
		M391.6,828.5c0,0,13.8,12.1,27.6,27s27.6,32.7,27.6,44.2"/>
	
		<path fill="none" stroke="#000000" stroke-width="8.1859" stroke-linecap="round" stroke-linejoin="round" stroke-miterlimit="10" d="
		M651.5,899.7c0-11.1,14.3-29,28.7-44.2c14.3-15.1,28.6-27.4,28.6-27.4"/>
	
		<polyline fill="none" stroke="#000000" stroke-width="8.1859" stroke-linecap="round" stroke-linejoin="round" stroke-miterlimit="10" points="
		401.8,821 401.8,814.8 401.8,808.7 415.1,805.6 428.4,802.5 	"/>
	
		<polyline fill="none" stroke="#000000" stroke-width="8.1859" stroke-linecap="round" stroke-linejoin="round" stroke-miterlimit="10" points="
		665,805.2 675.7,807 686.3,808.7 686.3,815.2 686.3,821.6 	"/>
	
		<polyline fill="none" stroke="#000000" stroke-width="8.1859" stroke-linecap="round" stroke-linejoin="round" stroke-miterlimit="10" points="
		500.1,690 513.4,690 526.7,690 	"/>
	
		<polyline fill="none" stroke="#000000" stroke-width="8.1859" stroke-linecap="round" stroke-linejoin="round" stroke-miterlimit="10" points="
		564.5,690 581.4,690 598.3,690 	"/>
</g>
<g id="vs-h-reveal" opacity="0">
	
		<polyline fill="none" stroke="#5DBFD9" stroke-width="10.2323" stroke-linecap="round" stroke-linejoin="round" stroke-miterlimit="10" points="
		304.6,106.7 364,106.7 423.3,106.7 	"/>
	
		<polyline fill="none" stroke="#5DBFD9" stroke-width="38.8829" stroke-linecap="round" stroke-linejoin="round" stroke-miterlimit="10" points="
		433.6,242.8 433.6,314.5 433.6,386.1 419.3,314.5 404.9,242.8 404.9,314.5 404.9,386.1 392.6,314.5 380.3,242.8 380.3,314.5 
		380.3,386.1 366,314.5 351.7,242.8 351.7,314.5 351.7,386.1 339.4,314.5 327.1,242.8 327.1,314.5 327.1,386.1 	"/>
	
		<polyline fill="none" stroke="#5DBFD9" stroke-width="28.6506" stroke-linecap="round" stroke-linejoin="round" stroke-miterlimit="10" points="
		714.9,315.5 714.9,320.6 714.9,325.7 708.8,319.5 702.7,313.4 702.7,318.5 702.7,323.7 	"/>
	
		<path fill="none" stroke="#5DBFD9" stroke-width="14.3253" stroke-linecap="round" stroke-linejoin="round" stroke-miterlimit="10" d="
		M365,444.4c21.5-1,38.9,8.7,50.6,21.4c11.7,12.8,17.9,28.6,16.9,40c-2.5,31.2-12.4,49-24.6,59s-26.8,12.3-38.8,12.6
		c-11.8,0.3-27.9-3-42-12.4s-26.1-24.9-29.6-49c-2.8-18.8,3.9-36.2,16.3-49.1C326.3,454,344.5,445.5,365,444.4z"/>
	
		<polyline fill="none" stroke="#5DBFD9" stroke-width="16.3718" stroke-linecap="round" stroke-linejoin="round" stroke-miterlimit="10" points="
		697.6,830.2 697.6,831.2 697.6,832.2 688.3,832.2 679.1,832.2 679.1,837.3 679.1,842.4 669.9,837.3 660.7,832.2 661.8,846.6 
		662.8,860.9 655.6,781.1 648.4,701.2 647.4,792.3 646.4,883.4 642.3,792.3 638.2,701.2 636.2,794.3 634.1,887.5 622.8,859.8 
		611.6,832.2 612.6,859.8 613.6,887.5 600.3,849.6 587,811.7 590.1,849.6 593.2,887.5 585,849.6 576.8,811.7 575.8,849.6 
		574.8,887.5 564.5,859.8 554.3,832.2 554.3,859.8 554.3,887.5 544,859.8 533.8,832.2 533.8,859.8 533.8,887.5 523.6,849.6 
		513.4,811.7 513.4,849.6 513.4,887.5 503.2,860.9 492.9,834.3 492.9,860.9 492.9,887.5 483.7,860.9 474.5,834.3 474.5,860.9 
		474.5,887.5 466.8,795.9 459.1,704.3 457.6,794.8 456.1,885.4 449.5,794.8 442.8,704.3 442.3,785.7 441.7,867 433,850.1 
		424.3,833.2 425.3,840.4 426.4,847.6 422.3,840.4 418.2,833.2 418.2,835.3 418.2,837.3 412,834.3 405.9,831.2 405.9,832.2 
		405.9,833.2 	"/>
</g>
</svg>
