<?xml version="1.0" encoding="utf-8"?>
<!-- Generator: Adobe Illustrator 23.1.0, SVG Export Plug-In . SVG Version: 6.00 Build 0)  -->
<svg version="1.1" id="Layer_1" xmlns="http://www.w3.org/2000/svg" xmlns:xlink="http://www.w3.org/1999/xlink" x="0px" y="0px"
	 viewBox="0 0 1000 1000" enable-background="new 0 0 1000 1000" xml:space="preserve">
<g id="vs-primary">
	<path fill="#D5D5D5" d="M870.7,577.3c-26,30.3-55,47.1-85,56.1s-61.2,10.3-91.6,9.4c-10.5-0.3-23.1-1-37-1.9s-29.1-2.1-44.8-3.3
		c-19.8-1.5-40-3-58.5-4.1s-35.4-1.9-48.6-1.9c-0.1,0-0.3,0-0.4,0s-0.3,0-0.4,0c-13.8,0-31.1,0.8-50.1,1.9s-39.7,2.7-60,4.2
		c-15.3,1.1-30,2.2-43.6,3.1c-13.5,0.9-25.8,1.6-35.9,1.9c-38.9,1.1-73.8-4-103.7-15c-30-11-55.1-28-74.5-50.5
		c-36.2-41.8-46.2-83.9-45-119.5s13.6-64.8,22.2-81c13.6-25.5,32.9-45,58.4-58.7c25.5-13.8,57.2-21.8,95.4-24.2
		c15.3-1,35.9-0.3,58.9,1.2s48.5,3.8,73.6,6.1c20.2,1.9,39.8,3.6,57.7,5c17.9,1.3,34.1,2.2,47.5,2.2c13,0,28.7-0.8,46-2
		s36.3-2.8,55.8-4.4c25-2.1,50.3-4.2,73.3-5.6c23-1.3,43.7-1.9,59.2-0.9c52.4,3.4,86,12.4,108.5,24.4s34,27.1,42.1,42.5
		c11.8,22.1,23.3,56.9,23.6,95.7C914.2,496.8,903.4,539.5,870.7,577.3z"/>
	<path fill="#D5D5D5" d="M391.6,619.6c-11.9,0-22.6-4.8-30.3-12.6c-7.8-7.8-12.6-18.5-12.6-30.3s4.8-22.6,12.6-30.3
		s18.5-12.6,30.3-12.6s22.6,4.8,30.3,12.6s12.6,18.5,12.6,30.3s-4.8,22.6-12.6,30.3S403.5,619.6,391.6,619.6z"/>
	<path fill="#D5D5D5" d="M616.1,619.6c-11.8,0-22.6-4.8-30.3-12.6s-12.6-18.5-12.6-30.3s4.8-22.6,12.6-30.3s18.5-12.6,30.3-12.6
		s22.6,4.8,30.3,12.6s12.6,18.5,12.6,30.3s-4.8,22.6-12.6,30.3C638.7,614.8,627.9,619.6,616.1,619.6z"/>
	<path fill="#D5D5D5" d="M393.2,607.6c-7.7,0-14.7-3.1-19.7-8.2c-5-5-8.2-12-8.2-19.7s3.1-14.7,8.2-19.7s12-8.2,19.7-8.2
		s14.7,3.1,19.7,8.2c5,5,8.2,12,8.2,19.7s-3.1,14.7-8.2,19.7C407.9,604.5,400.9,607.6,393.2,607.6z"/>
	<path fill="#D5D5D5" d="M617.7,607.6c-7.7,0-14.7-3.1-19.7-8.2c-5-5-8.2-12-8.2-19.7s3.1-14.7,8.2-19.7c5.1-5,12-8.2,19.7-8.2
		s14.7,3.1,19.7,8.2c5,5,8.2,12,8.2,19.7s-3.1,14.7-8.2,19.7S625.4,607.6,617.7,607.6z"/>
</g>
<g id="vs-secondary">
	<path fill="#999999" d="M486.6,274.4c0.1,0,0.3,0,0.4,0c0.2,0,0.3,0,0.5,0c0.1,0.1,0.3,0.1,0.5,0.1s0.4,0,0.6,0h13.6h13.6
		c0.1,0,0.2,0,0.3,0s0.1,0,0.3,0c0.1,0,0.3,0,0.4,0s0.3,0,0.4,0l0,0c0,0,0,0,0.1,0c0.4,0,21.3-0.2,55.5-1.2s81.5-3,134.6-6.6
		c22.1-1.5,41.8,0.2,59.2,3.8c17.4,3.5,32.3,8.9,44.9,14.9c-10-2.4-20.8-4.5-32.6-6.1s-24.3-2.8-37.7-3.7c-16.3-1.1-37.5-0.5-61,0.9
		s-49.2,3.5-74.5,5.6c-19.3,1.6-38,3.2-55.1,4.4s-32.4,1.9-45,1.9c-12.9,0-28.8-0.9-46.4-2.2c-17.6-1.3-37-3.1-57-4.9
		c-25.5-2.3-51.3-4.6-74.8-6.2c-23.5-1.5-44.7-2.2-60.8-1.1c-6.3,0.4-12.5,1-18.5,1.7s-11.9,1.6-17.6,2.6c5.1-1.6,10.5-3.2,16.1-4.6
		c5.5-1.4,11.3-2.6,17.2-3.7c26.7-4.7,82-3.6,130.8-1.4S485.8,274.3,486.6,274.4z"/>
	<path fill="#999999" d="M703,240.4c4.2-0.9,13.1-2.4,26.1-2.2s29.9,2,50.1,7.7c19.7,5.5,34.1,11.3,44.2,16.2
		c10.2,5,16.1,9.1,19,11.3l-1.4,5.8l-1.4,5.8c-13.6-8.8-31.6-17.8-53.8-24.2c-22.2-6.4-48.7-10-79.5-8c-1,0.1-2.1,0.1-3.1,0.2
		c-1,0.1-2.1,0.1-3.1,0.2l1.5-6.3L703,240.4z"/>
	<path fill="#999999" d="M591,255.1c0.1-1.8,0.8-3.4,1.9-4.5c1.1-1.1,2.7-1.9,4.5-2l0,0l0,0l13-0.9l13-0.9c1.8-0.2,3.5,0.5,4.8,1.6
		s2.3,2.8,2.5,4.6l0.1,1.9l0.2,1.9c-7.3,0.4-14.3,0.6-21,0.9s-13.2,0.5-19.3,0.8l0.1-1.8L591,255.1z"/>
	<path fill="#999999" d="M493.6,252.7c0-2.3,1-4.5,2.5-6.1s3.7-2.5,6.1-2.5s4.5,1,6.1,2.5s2.5,3.7,2.5,6.1v5.9v5.9l0,0l0,0h-8.6
		h-8.6v-5.9V252.7z"/>
	<path fill="#999999" d="M168,276.2c1.4-1.5,5.3-5,14.6-9.8s24.1-10.8,47.4-17.3c19.8-5.6,37-7.7,50.4-8.2
		c13.5-0.5,23.2,0.5,28.2,1.2v5.3v5.3c-9.6,0.1-18.5,0.5-26.5,1c-8,0.6-15.1,1.3-21,2.4c-19.3,3.4-36.5,8.6-51.8,14.8
		c-15.3,6.2-28.6,13.5-40,21l-0.7-7.9L168,276.2z"/>
	<path fill="#999999" d="M308.9,449.4h-20.3h-20.3c-2.1,0-4,0.9-5.4,2.2s-2.2,3.3-2.2,5.4v17.8v17.8h-17.5h-17.5v-17.8V457
		c0-2.1-0.9-4-2.2-5.4s-3.3-2.2-5.4-2.2H197h-21.1v-16.6v-16.5H197h21.1c2.1,0,4-0.9,5.4-2.2s2.2-3.3,2.2-5.4v-17.1v-17.1h17.5h17.5
		v17.1v17.1c0,2.1,0.9,4,2.2,5.4s3.3,2.2,5.4,2.2h20.3h20.3v16.5V449.4z"/>
	<path fill="#999999" d="M441.3,452.6c-4.4,0-8.3-1.8-11.1-4.6c-2.8-2.8-4.6-6.8-4.6-11.1s1.8-8.3,4.6-11.1
		c2.8-2.8,6.8-4.6,11.1-4.6s8.3,1.8,11.1,4.6c2.8,2.8,4.6,6.8,4.6,11.1s-1.8,8.3-4.6,11.1C449.6,450.9,445.6,452.6,441.3,452.6z"/>
	<path fill="#999999" d="M505.5,452.6c-4.4,0-8.3-1.8-11.1-4.6c-2.8-2.8-4.6-6.8-4.6-11.1s1.8-8.3,4.6-11.1
		c2.8-2.8,6.8-4.6,11.1-4.6s8.3,1.8,11.1,4.6c2.8,2.8,4.6,6.8,4.6,11.1s-1.8,8.3-4.6,11.1C513.8,450.9,509.9,452.6,505.5,452.6z"/>
	<path fill="#999999" d="M569.6,421.2c4.3,0,8.3,1.8,11.1,4.6c2.8,2.8,4.6,6.8,4.6,11.1s-1.8,8.3-4.6,11.1
		c-2.8,2.8-6.8,4.6-11.1,4.6s-8.3-1.8-11.1-4.6c-2.8-2.8-4.6-6.8-4.6-11.1c0-4.4,1.8-8.3,4.6-11.1S565.3,421.2,569.6,421.2z"/>
	<path fill="#999999" d="M771.8,354.5c7.3,0,13.8,3,18.6,7.7c4.8,4.8,7.7,11.3,7.7,18.6s-3,13.8-7.7,18.6
		c-4.8,4.8-11.3,7.7-18.6,7.7s-13.8-3-18.6-7.7c-4.8-4.8-7.7-11.3-7.7-18.6s3-13.8,7.7-18.6C758,357.5,764.5,354.5,771.8,354.5z"/>
	<path fill="#999999" d="M843.9,466.4c-7.3,0-13.8-2.9-18.6-7.7c-4.8-4.8-7.7-11.3-7.7-18.6s3-13.8,7.7-18.6
		c4.8-4.8,11.3-7.7,18.6-7.7s13.8,2.9,18.6,7.7c4.8,4.8,7.7,11.3,7.7,18.6s-3,13.8-7.7,18.6C857.7,463.5,851.2,466.4,843.9,466.4z"
		/>
	<path fill="#999999" d="M768.5,521c-7.3,0-13.8-3-18.6-7.7c-4.8-4.8-7.7-11.3-7.7-18.6s3-13.8,7.7-18.6c4.8-4.8,11.3-7.7,18.6-7.7
		s13.8,3,18.6,7.7c4.8,4.8,7.7,11.3,7.7,18.6s-3,13.8-7.7,18.6C782.3,518,775.8,521,768.5,521z"/>
	<path fill="#999999" d="M699.6,466.4c-7.3,0-13.8-2.9-18.6-7.7c-4.8-4.8-7.7-11.3-7.7-18.6s3-13.8,7.7-18.6
		c4.8-4.8,11.3-7.7,18.6-7.7s13.8,2.9,18.6,7.7c4.8,4.8,7.7,11.3,7.7,18.6s-3,13.8-7.7,18.6C713.4,463.5,706.8,466.4,699.6,466.4z"
		/>
	<path fill="#999999" d="M443.3,558.2c-3.8-10.6-10.8-19.7-19.8-26.2s-20-10.3-31.9-10.3c-12.9,0-24.8,4.5-34.1,11.9
		c-9.4,7.5-16.2,17.9-19.2,29.9l-3.6-6.9l-3.6-6.9l7.8-19.5l7.8-19.4L368,502l21.4-8.9l20.6,6.6l20.6,6.6l10.1,19.5l10.1,19.5
		l-3.8,6.4L443.3,558.2z"/>
	<path fill="#999999" d="M667.8,558.3c-3.8-10.6-10.8-19.8-19.8-26.2c-9-6.5-20-10.3-31.9-10.3c-12.8,0-24.7,4.5-34.1,11.9
		c-9.4,7.5-16.3,17.9-19.2,29.9l-3.6-6.8l-3.7-6.9l7.8-19.5l7.8-19.4l21.5-8.9l21.5-8.9l20.7,6.6l20.6,6.6l10.1,19.5l10.1,19.5
		l-3.8,6.4L667.8,558.3z"/>
	<path fill="#999999" d="M379.2,248.7c0-0.9,0.3-1.8,0.6-2.5c0.4-0.8,0.9-1.5,1.6-2.1s1.5-1.1,2.4-1.4s1.8-0.4,2.6-0.3l14.4,1.4
		l14.4,1.3c1.6,0.2,3.1,0.9,4.1,2.1s1.7,2.8,1.7,4.5v2.1v2.1c-6.6-0.4-13.5-0.8-20.5-1.1s-14.2-0.6-21.5-0.9l0.1-2.6L379.2,248.7z"
		/>
	<path fill="#999999" d="M483.8,641.9l2.1,108.7l2.1,108.7c6.4,0.3,13,0.5,18.1,0.6s8.6,0.1,8.6,0.1c-0.1-7.4,1.2-61.9,2.5-114.6
		c1.4-52.7,2.8-103.5,2.8-103.5c-10.7-0.2-19.8-0.2-26.1-0.1C487.5,641.8,483.8,641.9,483.8,641.9z"/>
</g>
<g id="vs-shaes">
	<path opacity="0.4" fill="#D5D5D5" enable-background="new    " d="M218.1,416.3H197h-21.1v2.6v2.6H197h21.1c2.1,0,4-0.9,5.4-2.2
		s2.2-3.3,2.2-5.4v-2.6v-2.6c0,2.1-0.9,4-2.2,5.4S220.2,416.3,218.1,416.3z"/>
	<path opacity="0.4" enable-background="new    " d="M218.1,416.3H197h-21.1v2.6v2.6H197h21.1c2.1,0,4-0.9,5.4-2.2s2.2-3.3,2.2-5.4
		v-2.6v-2.6c0,2.1-0.9,4-2.2,5.4S220.2,416.3,218.1,416.3z"/>
	<polygon opacity="0.4" fill="#D5D5D5" enable-background="new    " points="225.7,374.5 243.2,374.5 260.7,374.5 260.7,377.1 
		260.7,379.7 243.2,379.7 225.7,379.7 225.7,377.1 	"/>
	<polygon opacity="0.4" enable-background="new    " points="225.7,374.5 243.2,374.5 260.7,374.5 260.7,377.1 260.7,379.7 
		243.2,379.7 225.7,379.7 225.7,377.1 	"/>
	<path opacity="0.4" fill="#D5D5D5" enable-background="new    " d="M260.7,408.7v2.6v2.6c0,2.1,0.9,4,2.2,5.4s3.3,2.2,5.4,2.2h20.3
		h20.3v-2.6v-2.6h-20.3h-20.3c-2.1,0-4-0.9-5.4-2.2S260.7,410.8,260.7,408.7z"/>
	<path opacity="0.4" enable-background="new    " d="M260.7,408.7v2.6v2.6c0,2.1,0.9,4,2.2,5.4s3.3,2.2,5.4,2.2h20.3h20.3v-2.6v-2.6
		h-20.3h-20.3c-2.1,0-4-0.9-5.4-2.2S260.7,410.8,260.7,408.7z"/>
	<path opacity="0.4" fill="#D5D5D5" enable-background="new    " d="M441.3,421.2c-4.4,0-8.3,1.8-11.1,4.6s-4.6,6.8-4.6,11.1
		c0,0.5,0,0.9,0.1,1.3s0.1,0.9,0.1,1.3c0.6-3.7,2.5-7,5.3-9.3s6.3-3.8,10.2-3.8s7.5,1.4,10.2,3.8s4.7,5.6,5.3,9.3
		c0-0.4,0.1-0.8,0.1-1.3c0-0.4,0.1-0.9,0.1-1.3c0-4.4-1.8-8.3-4.6-11.1S445.6,421.2,441.3,421.2z"/>
	<path opacity="0.4" enable-background="new    " d="M441.3,421.2c-4.4,0-8.3,1.8-11.1,4.6s-4.6,6.8-4.6,11.1c0,0.5,0,0.9,0.1,1.3
		s0.1,0.9,0.1,1.3c0.6-3.7,2.5-7,5.3-9.3s6.3-3.8,10.2-3.8s7.5,1.4,10.2,3.8s4.7,5.6,5.3,9.3c0-0.4,0.1-0.8,0.1-1.3
		c0-0.4,0.1-0.9,0.1-1.3c0-4.4-1.8-8.3-4.6-11.1S445.6,421.2,441.3,421.2z"/>
	<path opacity="0.4" fill="#D5D5D5" enable-background="new    " d="M505.5,421.2c-4.4,0-8.3,1.8-11.1,4.6s-4.6,6.8-4.6,11.1
		c0,0.5,0,0.9,0.1,1.3s0.1,0.9,0.1,1.3c0.6-3.7,2.5-7,5.3-9.3s6.3-3.8,10.2-3.8s7.5,1.4,10.2,3.8s4.7,5.6,5.3,9.3
		c0.1-0.4,0.2-0.8,0.2-1.3c0-0.4,0-0.9,0-1.3c0-4.4-1.8-8.3-4.6-11.1C513.8,423,509.9,421.2,505.5,421.2z"/>
	<path opacity="0.4" enable-background="new    " d="M505.5,421.2c-4.4,0-8.3,1.8-11.1,4.6s-4.6,6.8-4.6,11.1c0,0.5,0,0.9,0.1,1.3
		s0.1,0.9,0.1,1.3c0.6-3.7,2.5-7,5.3-9.3s6.3-3.8,10.2-3.8s7.5,1.4,10.2,3.8s4.7,5.6,5.3,9.3c0.1-0.4,0.2-0.8,0.2-1.3
		c0-0.4,0-0.9,0-1.3c0-4.4-1.8-8.3-4.6-11.1C513.8,423,509.9,421.2,505.5,421.2z"/>
	<path opacity="0.4" fill="#D5D5D5" enable-background="new    " d="M569.6,426.4c3.9,0,7.5,1.4,10.2,3.8s4.7,5.6,5.3,9.3
		c0-0.4,0.1-0.8,0.1-1.3c0-0.4,0.1-0.9,0.1-1.3c0-4.4-1.8-8.3-4.6-11.1c-2.8-2.8-6.8-4.6-11.1-4.6s-8.3,1.8-11.1,4.6
		c-2.8,2.8-4.6,6.8-4.6,11.1c0,0.4,0,0.9,0.1,1.3c0,0.4,0.1,0.9,0.1,1.3c0.7-3.7,2.6-7,5.3-9.3C562.2,427.8,565.7,426.4,569.6,426.4
		z"/>
	<path opacity="0.4" enable-background="new    " d="M569.6,426.4c3.9,0,7.5,1.4,10.2,3.8s4.7,5.6,5.3,9.3c0-0.4,0.1-0.8,0.1-1.3
		c0-0.4,0.1-0.9,0.1-1.3c0-4.4-1.8-8.3-4.6-11.1c-2.8-2.8-6.8-4.6-11.1-4.6s-8.3,1.8-11.1,4.6c-2.8,2.8-4.6,6.8-4.6,11.1
		c0,0.4,0,0.9,0.1,1.3c0,0.4,0.1,0.9,0.1,1.3c0.7-3.7,2.6-7,5.3-9.3C562.2,427.8,565.7,426.4,569.6,426.4z"/>
	<path opacity="0.4" fill="#D5D5D5" enable-background="new    " d="M771.8,354.5c-7.3,0-13.8,3-18.6,7.7
		c-4.8,4.8-7.7,11.3-7.7,18.6c0,0.5,0,0.9,0,1.3s0,0.9,0.1,1.3c0.7-6.6,3.8-12.6,8.5-16.8s10.9-6.9,17.8-6.9s13.1,2.6,17.8,6.9
		s7.8,10.2,8.5,16.8c0-0.4,0.1-0.9,0.1-1.3s0-0.8,0-1.3c0-7.3-3-13.8-7.7-18.6C785.6,357.5,779,354.5,771.8,354.5z"/>
	<path opacity="0.4" enable-background="new    " d="M771.8,354.5c-7.3,0-13.8,3-18.6,7.7c-4.8,4.8-7.7,11.3-7.7,18.6
		c0,0.5,0,0.9,0,1.3s0,0.9,0.1,1.3c0.7-6.6,3.8-12.6,8.5-16.8s10.9-6.9,17.8-6.9s13.1,2.6,17.8,6.9s7.8,10.2,8.5,16.8
		c0-0.4,0.1-0.9,0.1-1.3s0-0.8,0-1.3c0-7.3-3-13.8-7.7-18.6C785.6,357.5,779,354.5,771.8,354.5z"/>
	<path opacity="0.4" fill="#D5D5D5" enable-background="new    " d="M843.9,413.8c-7.3,0-13.8,3-18.6,7.7
		c-4.8,4.8-7.7,11.3-7.7,18.6c0,0.5,0,0.9,0,1.3s0,0.9,0.1,1.3c0.6-6.6,3.8-12.6,8.5-16.8s10.9-6.9,17.7-6.9s13,2.6,17.7,6.9
		s7.8,10.2,8.5,16.8c0-0.4,0.1-0.9,0.1-1.3s0-0.8,0-1.3c0-7.3-3-13.8-7.7-18.6C857.7,416.8,851.2,413.8,843.9,413.8z"/>
	<path opacity="0.4" enable-background="new    " d="M843.9,413.8c-7.3,0-13.8,3-18.6,7.7c-4.8,4.8-7.7,11.3-7.7,18.6
		c0,0.5,0,0.9,0,1.3s0,0.9,0.1,1.3c0.6-6.6,3.8-12.6,8.5-16.8s10.9-6.9,17.7-6.9s13,2.6,17.7,6.9s7.8,10.2,8.5,16.8
		c0-0.4,0.1-0.9,0.1-1.3s0-0.8,0-1.3c0-7.3-3-13.8-7.7-18.6C857.7,416.8,851.2,413.8,843.9,413.8z"/>
	<path opacity="0.4" fill="#D5D5D5" enable-background="new    " d="M768.5,468.4c-7.3,0-13.8,2.9-18.6,7.7
		c-4.8,4.8-7.7,11.3-7.7,18.6c0,0.4,0,0.9,0,1.3s0,0.8,0.1,1.3c0.6-6.6,3.8-12.6,8.5-16.8c4.7-4.3,10.9-6.9,17.8-6.9
		s13.1,2.6,17.8,6.9s7.8,10.2,8.5,16.8c0-0.5,0.1-0.9,0.1-1.3s0-0.9,0-1.3c0-7.2-3-13.8-7.7-18.6
		C782.3,471.4,775.8,468.4,768.5,468.4z"/>
	<path opacity="0.4" enable-background="new    " d="M768.5,468.4c-7.3,0-13.8,2.9-18.6,7.7c-4.8,4.8-7.7,11.3-7.7,18.6
		c0,0.4,0,0.9,0,1.3s0,0.8,0.1,1.3c0.6-6.6,3.8-12.6,8.5-16.8c4.7-4.3,10.9-6.9,17.8-6.9s13.1,2.6,17.8,6.9s7.8,10.2,8.5,16.8
		c0-0.5,0.1-0.9,0.1-1.3s0-0.9,0-1.3c0-7.2-3-13.8-7.7-18.6C782.3,471.4,775.8,468.4,768.5,468.4z"/>
	<path opacity="0.4" fill="#D5D5D5" enable-background="new    " d="M699.6,413.8c-7.3,0-13.8,3-18.6,7.7
		c-4.8,4.8-7.7,11.3-7.7,18.6c0,0.5,0,0.9,0,1.3s0,0.9,0.1,1.3c0.6-6.6,3.8-12.6,8.5-16.8c4.7-4.3,10.9-6.9,17.8-6.9
		s13.1,2.6,17.8,6.9s7.8,10.2,8.5,16.8c0-0.4,0.1-0.9,0.1-1.3s0-0.8,0-1.3c0-7.3-2.9-13.8-7.7-18.6
		C713.4,416.8,706.8,413.8,699.6,413.8z"/>
	<path opacity="0.4" enable-background="new    " d="M699.6,413.8c-7.3,0-13.8,3-18.6,7.7c-4.8,4.8-7.7,11.3-7.7,18.6
		c0,0.5,0,0.9,0,1.3s0,0.9,0.1,1.3c0.6-6.6,3.8-12.6,8.5-16.8c4.7-4.3,10.9-6.9,17.8-6.9s13.1,2.6,17.8,6.9s7.8,10.2,8.5,16.8
		c0-0.4,0.1-0.9,0.1-1.3s0-0.8,0-1.3c0-7.3-2.9-13.8-7.7-18.6C713.4,416.8,706.8,413.8,699.6,413.8z"/>
	<polygon opacity="0.4" fill="#D5D5D5" enable-background="new    " points="389.3,493.2 367.9,502 346.5,510.9 338.8,530.3 
		331,549.8 331.6,550.9 332.2,552 339.4,534 346.5,516.1 367.9,507.3 389.3,498.4 410,505 430.6,511.6 440,529.8 449.4,547.9 
		450.1,546.7 450.8,545.5 440.7,526 430.6,506.4 410,499.8 	"/>
	<polygon opacity="0.4" enable-background="new    " points="389.3,493.2 367.9,502 346.5,510.9 338.8,530.3 331,549.8 331.6,550.9 
		332.2,552 339.4,534 346.5,516.1 367.9,507.3 389.3,498.4 410,505 430.6,511.6 440,529.8 449.4,547.9 450.1,546.7 450.8,545.5 
		440.7,526 430.6,506.4 410,499.8 	"/>
	<polygon opacity="0.4" fill="#D5D5D5" enable-background="new    " points="613.9,493.2 592.5,502 571.1,510.9 563.3,530.3 
		555.5,549.8 556.1,550.9 556.7,552 563.9,534 571.1,516.1 592.5,507.3 613.9,498.4 634.6,505 655.2,511.6 664.6,529.8 674,547.9 
		674.7,546.7 675.4,545.5 665.3,526 655.2,506.4 634.6,499.8 	"/>
	<polygon opacity="0.4" enable-background="new    " points="613.9,493.2 592.5,502 571.1,510.9 563.3,530.3 555.5,549.8 
		556.1,550.9 556.7,552 563.9,534 571.1,516.1 592.5,507.3 613.9,498.4 634.6,505 655.2,511.6 664.6,529.8 674,547.9 674.7,546.7 
		675.4,545.5 665.3,526 655.2,506.4 634.6,499.8 	"/>
	<path opacity="0.4" fill="#FFFFFF" enable-background="new    " d="M725.5,305.9c-40.8,0-68,2.3-99.2,4.5
		c-31.2,2.3-66.5,4.5-123.5,4.5s-93.6-2.5-125.2-4.8s-58-4.6-94.5-4.2S209,314,180.5,321.6s-47.8,15-47.8,15
		c9.7-10.8,24.3-21.9,47.9-30.9s56.5-15.6,102.8-17.4c26.1-1,67.7,1,109.6,3.2c42,2.2,84.4,4.7,112.2,4.7c27.4,0,69-2.3,110.3-4.3
		s82.2-3.8,108.3-2.8c46.3,1.8,78.4,6.3,101.3,13s36.7,15.8,46.4,26.5c0,0-16.1-5.7-42.4-11.5C802.8,311.6,766.3,305.9,725.5,305.9z
		"/>
	<path opacity="0.4" fill="#FFFFFF" enable-background="new    " d="M707.3,266.7c-53.1,3.5-100.5,5.5-134.6,6.6s-55.1,1.2-55.5,1.2
		l0,0l0,0c-0.2,0-0.3,0-0.4,0s-0.3,0-0.4,0c-0.1,0-0.2,0-0.3,0s-0.1,0-0.3,0h-13.6h-13.6c-0.2,0-0.4,0-0.5,0c-0.2,0-0.3,0-0.5-0.1
		c-0.1,0-0.3,0-0.5,0c-0.1,0-0.3,0-0.4,0c-0.9-0.1-43.3-3.5-92.1-5.8c-48.9-2.3-104.2-3.4-130.9,1.2c-6,1-11.8,2.3-17.3,3.7
		c-5.6,1.4-10.9,2.9-16,4.6c5.7-1,11.6-1.9,17.6-2.6s12.2-1.3,18.5-1.7c1.1-0.1,2.2-0.2,3.4-0.2c1.2,0,2.4-0.1,3.6-0.1
		c30.8-3.3,83.7-1.9,129.1,0.4s83.4,5.4,84.2,5.5c0.1,0,0.3,0,0.5,0c0.1,0,0.3,0,0.4,0c0.1,0.1,0.3,0.1,0.5,0.1s0.4,0,0.5,0h13.6
		h13.6c0.1,0,0.2,0,0.3,0s0.1,0,0.3,0c0.1,0,0.3,0,0.4,0s0.3,0,0.4,0l0,0l0,0c0.4,0,21.3-0.2,55.5-1.2s81.5-3,134.6-6.6
		c15.2-1,29.2-0.5,42.1,1c12.9,1.5,24.8,4.1,35.5,7.4c4.7,0.8,9.3,1.6,13.7,2.4s8.7,1.8,12.8,2.8c-12.7-6-27.7-11.4-45.1-14.9
		C749,266.9,729.3,265.3,707.3,266.7z"/>
	<path opacity="0.4" fill="#FFFFFF" enable-background="new    " d="M703,245.6c4.2-0.9,13.1-2.4,26.1-2.2s29.9,2,50.2,7.7
		c18.6,5.2,32.5,10.6,42.5,15.4s16.3,8.8,19.6,11.3l0.5-2.2l0.5-2.2c-2.9-2.2-8.8-6.3-19-11.3s-24.5-10.7-44.2-16.2
		c-20.3-5.7-37.2-7.5-50.2-7.7s-21.9,1.3-26.1,2.2l-1.4,6.4l-1.4,6.3c0.2,0,0.4,0,0.6,0c0.2,0,0.4,0,0.6-0.1l0.8-3.7L703,245.6z"/>
	<path opacity="0.4" fill="#FFFFFF" enable-background="new    " d="M597.3,253.9L597.3,253.9L597.3,253.9l13.1-0.9l13-0.9
		c1.6-0.1,3.1,0.4,4.4,1.3s2.2,2.2,2.7,3.7c0.1,0,0.2,0,0.3,0s0.2,0,0.3,0l-0.1-1.9l-0.2-1.9c-0.2-1.9-1.1-3.5-2.5-4.6
		s-3-1.8-4.8-1.6l-13,0.9l-13,0.9l0,0l0,0c-1.8,0.1-3.3,0.8-4.4,2c-1.1,1.2-1.9,2.7-2,4.5l-0.1,1.8l-0.1,1.8c0,0,0.1,0,0.2,0
		c0.1,0,0.2,0,0.3,0c0.4-1.4,1.2-2.6,2.2-3.4C594.5,254.4,595.8,253.9,597.3,253.9z"/>
	<path opacity="0.4" fill="#FFFFFF" enable-background="new    " d="M502.2,249.3c2.4,0,4.5,1,6.1,2.5s2.5,3.7,2.5,6.1v-2.6v-2.6
		c0-2.3-1-4.5-2.5-6.1s-3.7-2.5-6.1-2.5s-4.5,1-6.1,2.5s-2.5,3.7-2.5,6.1v2.6v2.6c0-2.4,1-4.5,2.5-6.1S499.9,249.3,502.2,249.3z"/>
	<path opacity="0.4" fill="#FFFFFF" enable-background="new    " d="M308.7,247.3v-2.6v-2.6c-5-0.8-14.8-1.8-28.3-1.2
		s-30.6,2.7-50.4,8.2c-23.3,6.6-38.1,12.6-47.4,17.3s-13.2,8.3-14.6,9.8l0.2,2.4l0.2,2.4c1.8-1.8,6-5.3,15.4-10s23.9-10.4,46.2-16.7
		c19.8-5.6,37-7.7,50.5-8.2S303.7,246.6,308.7,247.3z"/>
	<path opacity="0.4" fill="#FFFFFF" enable-background="new    " d="M381.4,249.3c0.7-0.7,1.5-1.1,2.4-1.4c0.9-0.3,1.8-0.4,2.6-0.3
		l14.4,1.4l14.4,1.3c1.5,0.2,2.8,0.8,3.8,1.8s1.7,2.3,1.9,3.8h0.1l0,0v-2.1v-2.1c0-1.8-0.6-3.3-1.7-4.5s-2.5-1.9-4.1-2.1l-14.4-1.3
		l-14.4-1.4c-0.9-0.1-1.8,0.1-2.6,0.4c-0.9,0.3-1.6,0.7-2.4,1.3c-0.6,0.6-1.2,1.3-1.5,2.1c-0.4,0.8-0.6,1.6-0.7,2.5l-0.1,2.6
		l-0.1,2.6h0.1h0.1c0-0.9,0.3-1.8,0.6-2.5C380.2,250.6,380.8,249.9,381.4,249.3z"/>
	<polyline opacity="0.4" enable-background="new    " points="486.2,660.5 500.3,660.5 514.3,660.5 514.3,651.1 514.3,641.7 
		497.6,641.7 481,641.7 483.6,651.1 486.2,660.5 	"/>
</g>
<g id="vs-outline_1_">
	<path fill="none" stroke="#000000" stroke-width="20" stroke-linecap="round" stroke-linejoin="round" stroke-miterlimit="10" d="
		M315.2,652.7c-23,0.6-55.6-0.4-89.4-9.7s-68.8-26.9-96.7-59.3c-33.2-38.4-46-78.4-47.2-115.3s9.4-70.6,23.1-96.4
		c10.4-19.6,26.1-40.1,51.6-56.4C182,299.2,217.3,287,267,283.8c28-1.9,72.7,1.8,117.9,5.8s90.7,8.6,120.5,8.6
		c29.4,0,74.2-4.1,118.6-7.8c44.4-3.7,88.4-6.9,116.5-5c49.8,3.2,84.3,11.4,108.9,23.8c24.7,12.3,39.5,28.8,49.9,48.4
		c13.7,25.9,25,63.2,24.7,103.7s-12.4,84.1-45.6,122.5c-29.7,34.5-63.4,52.1-95.9,60.9s-63.8,8.8-88.6,8.1
		c-23.9-0.7-59.3-3.5-94.6-6.1s-70.5-5.1-93.9-5.1c-23.8,0-59.3,2.4-94.9,5C374.8,649.2,339.1,652,315.2,652.7z"/>
	<path fill="none" stroke="#000000" stroke-width="14" stroke-linecap="round" stroke-linejoin="round" stroke-miterlimit="10" d="
		M105.2,372c0,0,9.6-22,34.1-46.7s63.8-51.9,123.1-62.4c27.4-4.8,83.6-3.7,133-1.4s91.8,5.9,91.8,5.9"/>
	<path fill="none" stroke="#000000" stroke-width="10" stroke-linecap="round" stroke-linejoin="round" stroke-miterlimit="10" d="
		M488.6,269.5v-8.4v-8.4c0-3.8,1.5-7.2,4-9.6c2.5-2.5,5.9-4,9.6-4l0,0l0,0c3.8,0,7.1,1.5,9.6,4c2.5,2.5,4,5.9,4,9.6v8.4v8.4h-13.6
		H488.6z"/>
	<path fill="none" stroke="#000000" stroke-width="14" stroke-linecap="round" stroke-linejoin="round" stroke-miterlimit="10" d="
		M517.1,267.5c0,0,20.6-0.1,54.6-1.2c34-1,81.4-3,135.1-6.6c60.1-4,103.8,14.1,132.4,33.3s42.1,39.3,42.1,39.3"/>
	<path fill="none" stroke="#000000" stroke-width="10" stroke-linecap="round" stroke-linejoin="round" stroke-miterlimit="10" d="
		M165,299l-1.1-12.1l-1.1-12.1c0,0,1.4-3.4,10.4-8.9s25.4-13.1,55.4-21.6c25.7-7.2,46.9-8.8,61.7-8.6c14.8,0.2,23.3,2.2,23.3,2.2
		v8.6v8.7"/>
	<path fill="none" stroke="#000000" stroke-width="10" stroke-linecap="round" stroke-linejoin="round" stroke-miterlimit="10" d="
		M373.9,255.1l0.1-3.3l0.1-3.3c0.1-3.3,1.7-6.2,4-8.2s5.4-3.1,8.7-2.9l14.4,1.4l14.4,1.3c2.9,0.3,5.5,1.6,7.4,3.7
		c1.9,2.1,3,4.9,3,7.9v3.3v3.3"/>
	<path fill="none" stroke="#000000" stroke-width="10" stroke-linecap="round" stroke-linejoin="round" stroke-miterlimit="10" d="
		M585.7,261.2l0.1-3.1l0.2-3.2c0.2-3.1,1.4-5.8,3.4-7.8s4.7-3.3,7.7-3.4l13-0.9l13-0.9c3.2-0.3,6.2,0.8,8.5,2.8
		c2.3,1.9,3.9,4.7,4.2,7.9l0.3,3.1l0.3,3.1"/>
	<path fill="none" stroke="#000000" stroke-width="10" stroke-linecap="round" stroke-linejoin="round" stroke-miterlimit="10" d="
		M694.3,256.4l2.3-10.1l2.3-10.1c0,0,7.7-2.4,21.8-3s34.5,0.6,60,7.8c25.7,7.2,42.5,14.8,52.9,20.6s14.5,9.9,14.5,9.9l-2.4,10
		l-2.4,9.9"/>
	<path fill="none" stroke="#000000" stroke-width="10" stroke-linecap="round" stroke-linejoin="round" stroke-miterlimit="10" d="
		M220.7,408.7v-18.3v-18.3c0-0.7,0.3-1.4,0.7-1.8s1.1-0.8,1.9-0.8h19.9h19.9c0.7,0,1.4,0.3,1.8,0.7c0.5,0.5,0.8,1.1,0.8,1.9v18.3
		v18.3c0,0.7,0.3,1.4,0.7,1.8c0.5,0.5,1.1,0.8,1.9,0.8h21.5h21.5c0.7,0,1.4,0.3,1.8,0.7c0.5,0.5,0.8,1.1,0.8,1.9v19v18.9
		c0,0.7-0.3,1.4-0.7,1.8c-0.5,0.5-1.1,0.8-1.9,0.8h-21.5h-21.5c-0.7,0-1.4,0.3-1.8,0.7c-0.5,0.5-0.8,1.1-0.8,1.9v19v19
		c0,0.7-0.3,1.4-0.7,1.8c-0.5,0.5-1.1,0.8-1.9,0.8h-19.9h-19.9c-0.7,0-1.3-0.3-1.8-0.7c-0.5-0.5-0.8-1.1-0.8-1.9v-19v-19
		c0-0.7-0.3-1.4-0.7-1.8c-0.5-0.5-1.1-0.8-1.9-0.8h-22.3h-22.3c-0.7,0-1.4-0.3-1.8-0.7c-0.5-0.5-0.8-1.1-0.8-1.9v-19v-18.9
		c0-0.7,0.3-1.4,0.7-1.8s1.1-0.8,1.9-0.8h22.3h22.3c0.8,0,1.4-0.3,1.9-0.8C220.4,410,220.7,409.4,220.7,408.7z"/>
	<path fill="none" stroke="#000000" stroke-width="12" stroke-linecap="round" stroke-linejoin="round" stroke-miterlimit="10" d="
		M441.3,415.2c6,0,11.4,2.4,15.3,6.4c3.9,3.9,6.4,9.4,6.4,15.3s-2.4,11.4-6.4,15.3c-3.9,3.9-9.4,6.4-15.3,6.4s-11.4-2.4-15.3-6.4
		c-3.9-3.9-6.4-9.4-6.4-15.3s2.4-11.4,6.4-15.3C429.9,417.6,435.3,415.2,441.3,415.2z"/>
	<path fill="none" stroke="#000000" stroke-width="12" stroke-linecap="round" stroke-linejoin="round" stroke-miterlimit="10" d="
		M505.5,415.2c6,0,11.4,2.4,15.3,6.4c3.9,3.9,6.4,9.4,6.4,15.3s-2.4,11.4-6.4,15.3c-3.9,3.9-9.4,6.4-15.3,6.4
		c-6,0-11.4-2.4-15.3-6.4c-3.9-3.9-6.4-9.4-6.4-15.3s2.4-11.4,6.4-15.3C494.1,417.6,499.5,415.2,505.5,415.2z"/>
	<path fill="none" stroke="#000000" stroke-width="12" stroke-linecap="round" stroke-linejoin="round" stroke-miterlimit="10" d="
		M569.6,415.2c6,0,11.4,2.4,15.3,6.4c3.9,3.9,6.4,9.4,6.4,15.3s-2.4,11.4-6.4,15.3c-3.9,3.9-9.4,6.4-15.3,6.4s-11.4-2.4-15.3-6.4
		c-3.9-3.9-6.4-9.4-6.4-15.3s2.4-11.4,6.4-15.3C558.2,417.6,563.6,415.2,569.6,415.2z"/>
	<path fill="none" stroke="#000000" stroke-width="10" stroke-linecap="round" stroke-linejoin="round" stroke-miterlimit="10" d="
		M771.8,349.5c8.6,0,16.5,3.5,22.1,9.2s9.2,13.5,9.2,22.1s-3.5,16.5-9.2,22.1s-13.5,9.2-22.1,9.2s-16.5-3.5-22.1-9.2
		s-9.2-13.5-9.2-22.1s3.5-16.5,9.2-22.1S763.2,349.5,771.8,349.5z"/>
	<path fill="none" stroke="#000000" stroke-width="10" stroke-linecap="round" stroke-linejoin="round" stroke-miterlimit="10" d="
		M843.9,408.8c8.6,0,16.5,3.5,22.1,9.2s9.2,13.5,9.2,22.1s-3.5,16.5-9.2,22.1s-13.5,9.2-22.1,9.2s-16.5-3.5-22.1-9.2
		s-9.2-13.5-9.2-22.1s3.5-16.5,9.2-22.1S835.3,408.8,843.9,408.8z"/>
	<path fill="none" stroke="#000000" stroke-width="10" stroke-linecap="round" stroke-linejoin="round" stroke-miterlimit="10" d="
		M768.5,463.4c8.6,0,16.5,3.5,22.1,9.2s9.2,13.5,9.2,22.1s-3.5,16.5-9.2,22.1s-13.5,9.2-22.1,9.2s-16.5-3.5-22.1-9.2
		s-9.2-13.5-9.2-22.1s3.5-16.5,9.2-22.1S759.9,463.4,768.5,463.4z"/>
	<path fill="none" stroke="#000000" stroke-width="10" stroke-linecap="round" stroke-linejoin="round" stroke-miterlimit="10" d="
		M699.6,408.8c8.6,0,16.5,3.5,22.1,9.2s9.2,13.5,9.2,22.1s-3.5,16.5-9.2,22.1s-13.5,9.2-22.1,9.2s-16.5-3.5-22.1-9.2
		s-9.2-13.5-9.2-22.1s3.5-16.5,9.2-22.1S691,408.8,699.6,408.8z"/>
	
		<polyline fill="none" stroke="#000000" stroke-width="10" stroke-linecap="round" stroke-linejoin="round" stroke-miterlimit="10" points="
		342.6,582.5 334,566.3 325.5,550.1 334,528.6 342.6,507.1 365.9,497.5 389.1,487.9 411.6,495.1 434.1,502.3 445.3,523.9 
		456.5,545.6 448.5,559.3 440.5,572.9 	"/>
	<path fill="none" stroke="#000000" stroke-width="12" stroke-linecap="round" stroke-linejoin="round" stroke-miterlimit="10" d="
		M391.6,527.8c13.5,0,25.7,5.5,34.6,14.3s14.3,21.1,14.3,34.6s-5.5,25.7-14.3,34.6s-21.1,14.3-34.6,14.3s-25.7-5.5-34.6-14.3
		s-14.3-21.1-14.3-34.6s5.5-25.7,14.3-34.6S378.1,527.8,391.6,527.8z"/>
	<path fill="none" stroke="#000000" stroke-width="10" stroke-linecap="round" stroke-linejoin="round" stroke-miterlimit="10" d="
		M393.2,546.8c9.1,0,17.3,3.7,23.3,9.6c6,6,9.6,14.2,9.6,23.3s-3.7,17.3-9.6,23.3c-6,6-14.2,9.6-23.3,9.6s-17.3-3.7-23.3-9.6
		c-6-6-9.6-14.2-9.6-23.3s3.7-17.3,9.6-23.3C375.9,550.5,384.1,546.8,393.2,546.8z"/>
	
		<polyline fill="none" stroke="#000000" stroke-width="10" stroke-linecap="round" stroke-linejoin="round" stroke-miterlimit="10" points="
		567.2,582.5 558.6,566.3 550,550.1 558.6,528.6 567.2,507.1 590.5,497.5 613.7,487.9 636.2,495.1 658.7,502.3 669.9,523.9 
		681.1,545.6 673.1,559.3 665.1,572.9 	"/>
	<path fill="none" stroke="#000000" stroke-width="12" stroke-linecap="round" stroke-linejoin="round" stroke-miterlimit="10" d="
		M616.1,527.8c13.5,0,25.7,5.5,34.6,14.3c8.8,8.8,14.3,21.1,14.3,34.6s-5.5,25.7-14.3,34.6c-8.8,8.8-21.1,14.3-34.6,14.3
		s-25.7-5.5-34.6-14.3c-8.8-8.8-14.3-21.1-14.3-34.6s5.5-25.7,14.3-34.6C590.4,533.3,602.6,527.8,616.1,527.8z"/>
	<path fill="none" stroke="#000000" stroke-width="10" stroke-linecap="round" stroke-linejoin="round" stroke-miterlimit="10" d="
		M617.7,546.8c9.1,0,17.3,3.7,23.3,9.6s9.6,14.2,9.6,23.3S646.9,597,641,603s-14.2,9.6-23.3,9.6s-17.3-3.7-23.3-9.6
		s-9.6-14.2-9.6-23.3s3.7-17.3,9.6-23.3S608.6,546.8,617.7,546.8z"/>
	
		<polyline fill="none" stroke="#000000" stroke-width="14" stroke-linecap="round" stroke-linejoin="round" stroke-miterlimit="10" points="
		483.8,641.9 486.2,747.6 488.6,853.2 	"/>
	
		<polyline fill="none" stroke="#000000" stroke-width="14" stroke-linecap="round" stroke-linejoin="round" stroke-miterlimit="10" points="
		517,641.9 515.7,747.6 514.3,853.2 	"/>
</g>
<g id="vs-reveal" opacity="0">
	<path fill="none" stroke="#5DBFD9" stroke-width="60" stroke-linecap="round" stroke-linejoin="round" stroke-miterlimit="10" d="
		M87,630c6.3-108.2,12-192.8,16.9-250.3s8.9-88,12.1-87.9c5.4,0.1,6.7,89.1,7.9,178.1s2.5,178,8.1,178.1c6,0.2,14.1-104.4,21.5-209
		s14.2-209.2,17.5-209c3.4,0.1,0.8,108.5-1.3,216.9S165.9,663.7,171,664c5.3,0.3,15.4-114.4,25.7-229C207,320.3,217.4,205.7,223,206
		s3.5,116.1,1.5,232c-2,115.8-3.8,231.7,2.5,232s17.7-114.3,28.9-229c11.2-114.7,22-229.3,27.1-229s1.6,116.6-1.8,232.9
		S274.9,677.6,281,678s18.6-114.8,31.1-230s25.2-230.4,31.9-230s3.9,117.2,1.1,234s-5.6,233.5,0.9,234s19.3-117.8,32-236
		s25.1-236.4,31-236s2.5,117.5-1.1,234.5S400.6,682.7,406,683s17.1-117.1,28.9-234.5C446.7,331.1,458.5,213.6,464,214
		c5.4,0.4,2,113.4-1.4,226.5S455.8,666.7,461,667c5.3,0.3,16.9-114.5,28.2-229.5C500.6,322.6,511.7,207.7,516,208
		s-0.7,114.4-5.4,228.4c-4.7,114.1-9,228.2-3.6,228.6c5.3,0.4,17.8-107.5,29.9-215.5C549,341.6,560.9,233.6,565,234
		s-2,107.6-7.8,214.9S545.8,663.5,551,664c5.3,0.5,19.8-110.9,33.8-222.4s27.6-223,31.2-222.6s-5.1,112.6-13.5,224.9
		S586.1,668.5,591,669c4.8,0.5,20-107.8,35.3-216s30.6-216.5,35.7-216s-2.4,109.1-10.1,217.6S636,671.6,640,672s18.6-114,33.1-228.5
		S702,214.6,706,215s-4.6,116.5-13.1,232.5S676,679.6,680,680c4.2,0.4,19.1-119.6,34.3-239.6S744.8,200.5,750,201
		c5.1,0.5-1.9,118.9-9.3,237.2C733.3,556.5,725.5,674.7,729,675s16-117.4,29-235.1c12.9-117.7,26.1-235.3,31-234.9
		s-0.5,117.8-6,235.1s-11.2,234.6-7,234.9c4.1,0.3,15.3-111.1,26.8-222.5C814.3,341,826,229.6,831,230c4.9,0.4,1.5,106-2.1,211.5
		S821.6,652.7,826,653c4.1,0.3,13.2-90.4,22.4-181s18.7-181.3,23.6-181c4.6,0.3,2.2,81.5,0.5,162.7S870.1,616.3,878,617
		c4.3,0.4,10.8-23.5,18.9-68s17.9-109.4,29.1-191"/>
</g>
</svg>
