<?xml version="1.0" encoding="utf-8"?>
<!-- Generator: Adobe Illustrator 24.3.0, SVG Export Plug-In . SVG Version: 6.00 Build 0)  -->
<svg isCommex="true" version="1.1" id="Layer_1" xmlns="http://www.w3.org/2000/svg" xmlns:xlink="http://www.w3.org/1999/xlink" x="0px" y="0px"
	 width="464.7px" height="414.7px" viewBox="0 0 464.7 414.7" enable-background="new 0 0 464.7 414.7" xml:space="preserve">
<g>
	<path fill="#D0D0D0" d="M182,352.3c-2.6-3.5-13.7-14.7-23.4-24.7c-2.1-2.1-4.1-4.2-6-6.1c-8.5-8.5-10.7-10.8-11.5-11.8
		c-1.6-1.7-30-28.5-48-45.4l-0.4-0.3l-0.5,0.1c-2.9,0.6-5.7,1.1-8.4,1.7l-0.3,0.1l-0.2,0.3c-1.8,2.2-0.9,7.6-0.1,9.3l0.1,0.2
		l0.1,0.1c0.7,0.8,2.5,2.6,5,5.2c1.6,1.6,3.4,3.5,5.4,5.5c9.5,9.6,38.4,38.6,50,51.9l0.7,0.8c13.4,15,26,29.2,33.2,28.7
		c0.3,0,0.6,0,0.8,0l0.2,0.1l0.2,0c1.2-0.2,2.7-0.5,4.6-1l1.5-0.3v-0.9C185,364.6,186.2,358.1,182,352.3L182,352.3z"/>
	<path fill="#D0D0D0" d="M344.2,267.6c-0.1-0.1-0.2-0.3-0.4-0.4c-2.3-2.4-27.6-18.1-40.7-26l0,0c-0.4-0.4-4.8-3.1-10.9-1.9
		c-0.7,0.1-1.8,0.4-3.5,0.7c-3.4,0.7-8.6,1.8-14.6,3c-5.4,1.1-11.5,2.3-17.6,3.6c-6.1,1.3-12.2,2.5-17.7,3.6
		c-2.9,0.6-5.5,1.1-7.9,1.6c-2.1,0.4-4.1,0.8-5.7,1.1c-1.2,0.3-2.1,0.4-2.9,0.6c-0.4,0.1-0.8,0.1-1.1,0.2c-0.5,0.1-1.1,0.2-1.5,0.2
		l-0.1,0c-2.1,0.3-38.7,7.4-61.5,11.8c-9.5,1.9-19.5,4.3-24,5.7l-1.6,0.5l1.1,1.2c3.8,3.9,12.8,12.5,19.9,19.1
		c5.6,5.2,15.2,13.9,17.3,14.8c0.5,0.2,1.6,0.3,3.1,0.3c4.4,0,12.2-0.9,19-3.1c7.2-2.1,52.5-12.4,71.9-16.8c5.3-1.2,8.8-2,9.4-2.1
		c43.8-9.6,66.4-14.7,69-15.7l0.1,0c0.1-0.1,0.3-0.1,0.4-0.2l2.2,0L344.2,267.6z"/>
</g>
<g>
	<path fill="#A3C1FD" d="M290,200.7c-1.7-9.1-21.6-89.8-30.1-124.3c-1.9-7.7-3.1-12.7-3.3-13.5l-0.1-0.3l0-0.3l0-0.2
		c-0.2-1-1.8-6.3-10.3-6.3c-0.7,0-1.6,0-2.4,0.1c-6.2,0.6-34,3.8-63.3,7.2l-0.4,0L93.2,179.6l0.1,0.5c5.8,25.1,10.3,44.5,10.6,46
		l0,0.1c0.5,2.4,2.8,9.4,11.7,9.4c1.2,0,2.5-0.1,4-0.4c11.6-2.2,162.2-30.8,164.5-31.3c2.2-0.4,4.7-1.4,5.6-2.1l0.4-0.4L290,200.7z"
		/>
	<path fill="#A3C1FD" d="M128.4,69.2c-1.6,0.2-37,4.3-40,4.7h-0.1c-3.2,0-13,0.9-16.3,5c-0.9,1.1-1.1,2.4-0.9,3.9
		c0.5,2.4,2.4,10.5,4.9,21.7c1.8,8,4,17.6,6.4,27.9l0.5,2.1l47.7-65.6L128.4,69.2z"/>
</g>
<path fill="none" stroke="#000000" stroke-width="9" stroke-linecap="round" stroke-linejoin="round" stroke-miterlimit="10" d="
	M176,244.1c-29.3,5.7-95.7,18.9-95.7,18.9s-15.1-60.1-19.5-84.7C56.5,153.7,33.9,73.7,35.9,68c1.7-10.1,28.5-11.6,59.9-15.3
	c30.9-4.1,137.6-14.9,155.9-15.9C270,36,270,42.5,270,42.5s30.7,120.7,34.6,137.6c9,38.9,5.7,39.1,5.7,39.1S205.5,238.8,176,244.1z"
	/>
<path fill="none" stroke="#000000" stroke-width="9" stroke-linecap="round" stroke-linejoin="round" stroke-miterlimit="10" d="
	M80.7,263.7c-3.3,3.7-1.8,11.6-0.4,14c1,1.4,45.6,45.6,60.7,62.9c15.1,17.1,27.7,31.2,36.8,30.7"/>
<path fill="none" stroke="#000000" stroke-width="9" stroke-linecap="round" stroke-linejoin="round" stroke-miterlimit="10" d="
	M177.6,371.4c9.6-0.6,70.8-19.9,70.8-19.9s146.2-40.7,158.6-45c12.4-4.5,13.6-11.6,11-18.1s-31.4-23.8-31.4-23.8l-74.3-45.8"/>
<path fill="none" stroke="#000000" stroke-width="4.6332" stroke-linecap="round" stroke-linejoin="round" stroke-miterlimit="10" d="
	M90.7,260.4c0,0,51.3,48.2,51.5,48.7c0.2,0.8,35.8,35.6,40.9,42.5c4.9,6.9,2.9,14.5,2.9,14.5"/>
<path fill="none" stroke="#000000" stroke-width="4.6332" stroke-linecap="round" stroke-linejoin="round" stroke-miterlimit="10" d="
	M274.5,286.5c0,0-72.1,16.1-81.2,18.9c-9.2,2.9-20.4,3.7-23,2.8c-2.6-0.8-17.7-15.1-17.7-15.1s-21-19.7-22-21.4
	c-1-1.6,27.1-7.3,27.1-7.3s61.3-12,61.7-11.8c0.2,0.4,65.4-13.2,72.5-14.5c7.1-1.4,11.8,2,11.8,2s37.9,23,41.1,26.3
	s-0.8,4.3-0.8,4.3C343.3,271.6,274.5,286.5,274.5,286.5z"/>
<path fill="none" stroke="#000000" stroke-width="4.6332" stroke-linecap="round" stroke-linejoin="round" stroke-miterlimit="10" d="
	M261.5,326.2c-4.1,1.2-8.8-2.9-11.4-5.3c-1.6-1.2-13.2-11.2-14-12.6c-0.6-1.4,17.7-6.1,26.5-8.5c8.8-2.4,35.8-9.4,38.7-9
	c2.8,0.4,18.9,11.8,21.2,14.2c3.3,3.1-3.1,4.5-3.7,4.7C315.8,311.1,265.5,324.9,261.5,326.2z"/>
<path fill="none" stroke="#000000" stroke-width="4.4016" stroke-linecap="round" stroke-linejoin="round" stroke-miterlimit="10" d="
	M119.8,236.2c-14.3,2.8-16.9-9-17.1-9.8S72,92.8,69.9,83.1c-2-10,18.3-10.4,18.3-10.4s141.1-16.5,155.5-17.9
	c13.6-1.4,14.2,8.5,14,7.7c-0.2-1.6,32.2,130.3,33.6,138.4c0.6,2.8-6.9,4.1-6.9,4.1S133.8,233.7,119.8,236.2z"/>
<path fill="none" stroke="#000000" stroke-width="35" stroke-linecap="round" stroke-linejoin="round" stroke-miterlimit="10" stroke-opacity="0" d="
	M65.1,101.2c0.5-1.1,44.5-31,44.5-31l-29.8,55.9l4.1,53.8L187.5,61.2l16.9,0.3L94.3,204.2l13.7,22.5c0,0,119-163.7,119.7-164.2
	s16.2-5.5,16.2-5.5L132.4,231.6l25.4-4.8l98.7-147.3l8,26.6L198,218l12.3-1.1l61.7-80.5v17.4l-28.1,56.6l21.4-6.9l13.5-23.4
	l2.1,16.1"/>
<path fill="none" stroke="#000000" stroke-width="35" stroke-linecap="round" stroke-linejoin="round" stroke-miterlimit="10" stroke-opacity="0" d="
	M138.1,276l14.9-8.4l-7.4,20.2l34.9-27.5l-19.8,42l46-45.1c0,0-31.5,51.6-30.4,51.4s67.6-56.5,67.6-56.5l-22.3,46.4l49.3-50.1l25-6
	L261.3,280c0,0,26.6-4.5,27.6-4.5c1-0.1,25.8-31.7,25.8-31.7l3.7,2.3l-7.6,25.5l16.3-4.6l9.9-0.5"/>
<line fill="none" stroke="#000000" stroke-width="35" stroke-linecap="round" stroke-linejoin="round" stroke-miterlimit="10" stroke-opacity="0" x1="87.1" y1="270.2" x2="175.1" y2="358.3"/>
</svg>
