<?xml version="1.0" encoding="utf-8"?>
<!-- Generator: Adobe Illustrator 15.0.0, SVG Export Plug-In . SVG Version: 6.00 Build 0)  -->
<!DOCTYPE svg PUBLIC "-//W3C//DTD SVG 1.1//EN" "http://www.w3.org/Graphics/SVG/1.1/DTD/svg11.dtd">
<svg version="1.1" id="Layer_1" xmlns="http://www.w3.org/2000/svg" xmlns:xlink="http://www.w3.org/1999/xlink" x="0px" y="0px"
	 width="170.08px" height="219.207px" viewBox="0 -49.126 170.08 219.207" enable-background="new 0 -49.126 170.08 219.207"
	 xml:space="preserve">
<path fill="#606868" d="M159.743-27.947c0,0,0.551-9.896-6.471-12.939c-4.4-1.907-19.066,1.021-19.066,1.021L29.673-26.585
	c0,0-9.766,0.461-11.468,8.292c-1.519,6.99-7.732,137.45-9.5,171.167c-0.198,3.786,1.112,6.582,3.5,8
	c5.333,3.166,21.554,2.196,26.32,2.196s102.488-0.681,102.488-0.681s13.621,0.681,13.961-13.62S159.743-27.947,159.743-27.947z"/>
<path fill="none" stroke="#000000" stroke-linecap="round" stroke-linejoin="round" stroke-miterlimit="10" d="M155.657-27.947
	c0,0,1.361-11.577-6.471-11.917L27.63-24.202c0,0-8.512-1.021-9.193,11.577S9.584,153.536,9.584,153.536s-0.681,6.469,10.556,7.15
	s122.238-0.34,122.238-0.34s8.171,2.383,8.852-19.749C151.911,118.466,155.657-27.947,155.657-27.947z"/>
<path fill="none" stroke="#000000" stroke-width="1.5" stroke-linecap="round" stroke-linejoin="round" stroke-miterlimit="10" d="
	M159.743-27.947c0,0,0.551-9.896-6.471-12.939c-4.4-1.907-19.066,1.021-19.066,1.021L29.673-26.585c0,0-9.766,0.461-11.468,8.292
	c-1.519,6.99-7.732,137.45-9.5,171.167c-0.198,3.786,1.112,6.582,3.5,8c5.333,3.166,21.554,2.196,26.32,2.196
	s102.488-0.681,102.488-0.681s13.621,0.681,13.961-13.62S159.743-27.947,159.743-27.947z"/>
<path fill="none" stroke="#000000" stroke-linecap="round" stroke-linejoin="round" stroke-miterlimit="10" d="M158.706-21.127
	c0,0-0.834-0.833-0.834,1.667s0.001,6.667,1.168,4C160.206-18.127,158.872-19.961,158.706-21.127z"/>
<path fill="none" stroke="#000000" stroke-linecap="round" stroke-linejoin="round" stroke-miterlimit="10" d="M158.706-11.627
	c0,0-0.833-1.127-1.166,3c-0.334,4.127-1.501,14,0.332,13.167C159.706,3.706,159.872-14.627,158.706-11.627z"/>
<polygon fill="#FFFFFF" points="140.872,-22.96 31.54,-9.294 23.706,143.206 136.04,141.706 "/>
<polygon fill="none" stroke="#000000" stroke-linecap="round" stroke-linejoin="round" stroke-miterlimit="10" points="
	140.872,-22.96 31.54,-9.294 23.706,143.206 136.04,141.706 "/>
<circle fill="none" stroke="#000000" stroke-linecap="round" stroke-linejoin="round" stroke-miterlimit="10" cx="77.04" cy="152.54" r="5"/>
<rect x="75.206" y="150.706" fill="none" stroke="#000000" stroke-linecap="round" stroke-linejoin="round" stroke-miterlimit="10" width="3.668" height="3.668"/>
<ellipse fill="none" stroke="#000000" stroke-linecap="round" stroke-linejoin="round" stroke-miterlimit="10" cx="83.374" cy="-25.46" rx="1.333" ry="1.167"/>
</svg>
