<?xml version="1.0" encoding="utf-8"?>
<!-- Generator: Adobe Illustrator 26.4.1, SVG Export Plug-In . SVG Version: 6.00 Build 0)  -->
<svg isCommex="true" version="1.1" xmlns="http://www.w3.org/2000/svg" xmlns:xlink="http://www.w3.org/1999/xlink" x="0px" y="0px" width="855.7px"
	 height="712.4px" viewBox="0 0 855.7 712.4" enable-background="new 0 0 855.7 712.4" xml:space="preserve">
<g id="Layer_3">
	<path fill="#E6074D" d="M383.4,339.6l-0.9-0.7l-0.6,0.9c-1.5,2.2-3.4,6.1-4.2,12.1l-0.1,1l1.1,0.1c6.7,0.5,16.9,2.1,28,4.4l7.1,1.5
		l-6.5-3.3C398.6,351,390.5,345.7,383.4,339.6z"/>
	<g>
		<path fill="#FFC600" d="M375.8,176.1L375.8,176.1c-19.8,50-12.8,114.2,47.5,144.9l0.1,0c10.7,4,21.5,6.1,32,6.3l0.2-2
			c-3.3-0.5-6.6-1.2-9.7-2.1c-6.4-1.8-12.6-4.6-18.4-8.2c-5.3-3.3-10.3-7.3-14.9-11.9c-8.4-8.4-13.5-16.8-15.8-21
			c-6.7-12.5-12.2-37.8-9.5-66.4c2.2-23.4,10.7-57,38.8-83.8c25-23.9,48.6-29.8,63.9-30.6l9.4-0.5l-9.3-1.5
			C435.6,90.6,393.5,131.6,375.8,176.1z"/>
	</g>
	<g>
		<path fill="#CCCCCC" d="M802.5,172.3L802.5,172.3c-6.1-1-204-14.7-206-14.8l-1.4-0.1l0.3,1.3c0.9,3.5,1.7,7,2.3,10.3l0.1,0.8
			l188.4,14.1c0.4,0,0.8,0.2,1.1,0.6c0.3,0.3,0.4,0.8,0.3,1.2l-46.8,262.5c-0.1,0.7-0.7,1.2-1.5,1.2c-0.1,0-0.1,0-0.2,0l-282.8-32.7
			l-1.6-0.2l0.5,1.5c0.6,1.7,2.6,7.9,3.1,16.1l0.1,0.8l293.9,39.7l0.2,0l0.2-0.1c1.3-0.4,2.3-1.2,3.8-9.4
			c0.5-2.5,48.7-266.2,50.7-277.7C809.3,176,805.8,172.9,802.5,172.3z"/>
		<path fill="#CCCCCC" d="M458.7,439l0,1.1c0,1-0.1,1.9-0.2,2.7c-0.2,2.4-0.7,4.7-1.4,7.1l-0.3,1.1l262.2,37.9c0.5,0.1,1,0.4,1.2,1
			c0.2,0.5,0.1,1.1-0.3,1.5l-0.2,0.2c-2.7,3-9.8,11-18.7,20.6c-2.5,2.6-5,5.4-7.7,8.1c-13,13.6-29.3,28-32.4,30.7l-0.1,0.1
			c-0.3,0.3-0.8,0.4-1.2,0.3l-114.7-17.5l-45.1,39.4c-0.3,0.2-0.6,0.4-1,0.4c-0.1,0-0.2,0-0.3,0l-133-23.1c-0.6-0.1-1.1-0.5-1.2-1.1
			c-0.1-0.6,0.1-1.2,0.5-1.5l43.9-34.7l-8.9-1.4l-0.4,0.4c-5.9,5.8-16.3,13.4-31.7,16.2c-3.1,0.6-6.3,0.9-9.5,0.9
			c-7.5,0-15.2-1.6-22.4-4.5l-1.3-0.5l-0.1,1.4c-0.2,3.6-1.8,7.3-4.9,11l-0.1,0.1c-3.8,3.9-8.9,6-14.4,6c-2.2,0-4.4-0.4-6.6-1
			c-7.1-2.3-12.2-8.1-13.3-15.1c-0.7-4.6-0.3-11.4,5.6-17.7l1.3-1.4l-1.9-0.3c-5.7-0.7-11.4-2.4-17-4.8l-0.5-0.2l-0.4,0.3
			c-17.9,11.4-41.8,26.9-52.1,34.1l-1.9,1.4l2.3,0.5c5.7,1.1,140.9,27.3,145.9,27.5c0.4,0,0.8,0,1.2,0c2.7-0.2,6.6-1.2,9.7-2
			c2.9-0.7,5.7-1.4,7.2-1.4c3.9,0,68.4,12.1,72.6,13.6c4.2,1.5,6.6,6.4,7.5,8.4l0.3,0.6h0.6l154.6,28.7l0.5,0.1l123.4-134.7
			l-294.3-39.7L458.7,439z"/>
		<path fill="#CCCCCC" d="M475,586.7l-0.4,0.6c-2.8,3-6.9,6.8-9.6,7.3c-0.1,0-0.2,0-0.4,0c-7.5,0-73.8-13.7-77-16
			c-2.3-1.8-8.3-8.2-10.1-10.1l-0.1-0.1c-0.1-0.1-0.1-0.1-0.1-0.2l-0.2-0.6l-0.6,0c-4-0.3-56.6-10.2-148.1-27.9l-2.2-0.4l-0.9,0.7
			l0,0.4c-0.2,3.7-0.3,10.2,0,13.1l0.1,0.7l0.7,0.2c15.6,3.7,149.2,30.1,273.3,54.6c67.7,13.3,112.2,22.1,115,22.8l0.5,0.1
			c0.5,0.1,0.9,0.2,1.4,0.4c3.5,0.9,7.2,1.8,10.6,1.8c0.6,0,1.3,0,1.9-0.1l0.9-0.1v-18.4l-154-28.6L475,586.7z"/>
		<path fill="#CCCCCC" d="M388.7,577l0.2,0.1c4.6,2.2,69.4,15.5,75.4,15.5c0.1,0,0.1,0,0.1,0l0.2,0c2.3-0.5,6.2-4.2,8.1-6.3l0.4-0.5
			l-0.2-0.6c-0.4-1-2.6-6.2-6.4-7.6l0,0c-5-1.8-69.2-13.4-71.9-13.5c-1.2,0-3.9,0.7-6.7,1.4c-2.2,0.5-4.7,1.2-6.9,1.6l-1.8,0.3
			l1.3,1.3C382.8,571.3,387,575.6,388.7,577z"/>
	</g>
	<g>
		<path fill="#A3A3A3" d="M631.9,615.3l-0.3,0.3v17.9l1.4-0.7c1.3-0.6,2.4-1.5,3.5-2.6c7.9-8.3,111.3-125.3,117.6-133.4l0.2-0.2
			l0-0.2c0.2-1.1,0.4-3,0.6-5.1c0.2-1.9,0.5-4.3,0.8-7.1c0.1-0.6,0.1-1.1,0.1-1.7v-2.6L631.9,615.3z"/>
		<path fill="#A3A3A3" d="M698,509.4c0.1,0,0.2,0,0.3,0.1l0.7,0.3l0.5-0.5c4.9-5.2,10-10.8,15-16.5l1.2-1.4l-48.5-7l-17.4,18.2
			L698,509.4z"/>
		<path fill="#A3A3A3" d="M678.6,529.4l0.7,0.6l0.6-0.6c4.3-4.2,8-7.8,11.3-11.3c1.7-1.8,3.4-3.6,5.1-5.3l1.3-1.4l-49.4-7L631,522.3
			l47.1,6.9C678.3,529.2,678.4,529.3,678.6,529.4z"/>
		<path fill="#A3A3A3" d="M659.3,548.2l0.4-0.3c5.7-5,11.5-10.3,16.8-15.3l1.5-1.4l-48.7-7.1l-16.4,17.1l46,7L659.3,548.2z"/>
		<polygon fill="#A3A3A3" points="647.4,502.2 664.8,484 619.9,477.6 601.5,495.7 		"/>
		<polygon fill="#A3A3A3" points="645.7,504 599.7,497.4 581.9,515.1 628.6,521.9 		"/>
		<polygon fill="#A3A3A3" points="580.1,516.8 563.1,533.6 610,540.7 610.5,540.8 626.9,523.7 		"/>
		<polygon fill="#A3A3A3" points="599,495.3 617.4,477.2 581.5,472 561.6,490 		"/>
		<polygon fill="#A3A3A3" points="597.2,497.1 559.7,491.8 540.6,509 579.4,514.7 		"/>
		<polygon fill="#A3A3A3" points="559,489.6 579,471.6 544.8,466.7 523.6,484.6 		"/>
		<polygon fill="#A3A3A3" points="538.7,510.7 520.6,527.1 560.7,533.2 577.6,516.5 		"/>
		<polygon fill="#A3A3A3" points="557.1,491.4 521.5,486.3 501.4,503.3 538,508.6 		"/>
		<polygon fill="#A3A3A3" points="520.9,484.2 542.1,466.3 510,461.7 486.8,479.4 		"/>
		<polygon fill="#A3A3A3" points="369.3,548 497.8,570.4 498.3,570.5 541,533.2 412.8,513.6 		"/>
		<polygon fill="#A3A3A3" points="518,526.7 536.1,510.4 499.4,505 480.5,520.9 517.6,526.6 		"/>
		<polygon fill="#A3A3A3" points="518.8,486 484.5,481.1 462.9,497.6 498.8,502.9 		"/>
		<polygon fill="#A3A3A3" points="484,479 507.2,461.3 468.6,455.7 444.4,473.4 		"/>
		<polygon fill="#A3A3A3" points="440.3,514.8 477.8,520.5 496.8,504.6 460.6,499.3 		"/>
		<path fill="#A3A3A3" d="M481.7,480.7l-39.6-5.6l-12.3,8.9l-0.1,0.2c-1.4,2.3-3,4.4-4.9,6.2l-1.4,1.4l36.6,5.4L481.7,480.7z"/>
		<path fill="#A3A3A3" d="M465.8,455.3l-10.2-1.5l-0.3,0.7c-3.3,7.1-8.6,12.7-15.3,16.4l-2.7,1.5l4.4,0.6L465.8,455.3z"/>
		<path fill="#A3A3A3" d="M412.6,510.6l24.9,3.8l20.4-15.5l-36.4-5.3l-0.3,0.3c-3.5,2.7-7.5,4.7-12,6.1l-0.4,0.1l-0.2,0.4
			c-0.6,1-2.2,3.8-5.1,7.3l-1.1,1.4l10.2,1.6C412.5,510.6,412.6,510.6,412.6,510.6z"/>
		<path fill="#A3A3A3" d="M434.1,473.9l-0.2,0.9c-0.1,0.5-0.3,1.2-0.6,2l-1,3l7.1-5.2L434.1,473.9z"/>
	</g>
	<g>
		<path fill="none" d="M522.3,106.7c-5.7-3.5-12-6.7-18.8-9.3c-0.1,0-0.2-0.1-0.2-0.1c-9.3-2.7-18.6-4.1-27.8-4.1
			c-18.4,0-36.3,5.4-52.9,16.1c-22.3,14.4-40.6,37.5-51.4,64.9c-20.7,52.2-13.2,119.2,50,151.3l0.1,0c0.1,0,0.1,0,0.2,0.1
			c11.7,4.4,23.5,6.6,35.1,6.6c17.4,0,34.2-5,49.9-14.8c3-1.9,5.9-3.9,8.6-6c11.8-9,22.2-20.4,30.8-34c5.5-8.6,10.1-17.9,13.9-27.7
			c13-34,13.4-70,1.1-98.7C553,132.5,540,117.5,522.3,106.7z"/>
		<path fill="#FFFF00" d="M516.9,77.4C438,55,379,109.4,355.4,173.3c-14.6,39.5-19.2,97.2,11.4,140.9c5.3,7.6,11.5,14.5,18.5,20.5
			c8.7,7.6,18.7,14,29.9,19.1l0.1,0c14.1,4.2,27.9,6.3,41.3,6.3c6.5,0,12.9-0.5,19.2-1.5c19-3,36.8-10.5,52.9-22.2
			c11.7-8.5,22.3-19.2,31.5-31.7c3.6-4.9,7.1-10.1,10.2-15.5c5.1-8.7,9.5-18,13.1-27.7c0.7-1.9,1.4-3.9,2.2-6.2
			c3.3-9.6,5.7-19.6,7.4-29.7c3.9-24.3,2.8-48.3-3.2-69.5C579.3,118.6,554,91.4,516.9,77.4z M559.8,249.8
			c-3.8,9.8-8.4,19.1-13.9,27.7c-8.7,13.6-19,25-30.8,34c-2.8,2.1-5.7,4.1-8.6,6c-15.7,9.8-32.5,14.8-49.9,14.8
			c-11.6,0-23.4-2.2-35.1-6.6c-0.1,0-0.1,0-0.2-0.1l-0.1,0c-63.2-32.1-70.7-99.1-50-151.3c10.9-27.5,29.1-50.5,51.4-64.9
			c16.6-10.7,34.5-16.1,52.9-16.1c9.2,0,18.5,1.3,27.8,4.1c0.1,0,0.2,0.1,0.2,0.1c6.7,2.6,13,5.8,18.8,9.3
			c17.6,10.9,30.6,25.8,38.6,44.5C573.3,179.9,572.9,215.8,559.8,249.8z"/>
		<path fill="#FFFF00" d="M328.5,520.8l-0.2-0.1c-1.4-0.8-2.8-1.7-4.2-2.7c-4.4-3.1-8.3-6.7-11.3-10.5l-0.3-0.4l-0.7,0.1
			c-0.2,0-0.6,0.1-1,0.1h-0.5l-0.3,0.4c-0.3,0.3-0.6,0.6-1.2,0.9c-2.4,1.7-9.9,6.9-8.4,17c0.8,5.2,4.5,9.3,9.9,11.1
			c1.5,0.5,3.2,0.8,5,0.8c3.6,0,7.6-1.2,10.8-4.5c5.2-6.4,3.6-10.5,2.7-12L328.5,520.8z"/>
	</g>
	<g id="vs-skin">
		<path fill="#D3A37F" d="M404.4,424.9L404.4,424.9c-1.2-2.4-2.4-4.9-3.4-7.6l0-0.1c0-0.1-0.1-0.1-0.1-0.2l0-0.3l-0.1-0.1
			c-0.8-2-1.5-4.1-2.2-6.3l-0.7-2.1l-1.1,1.9c-1.9,3.1-4.5,7.9-5.8,12.7c-1,3.8,0.5,9.6,3.9,14.9c3.9,6,9.5,10.4,15.3,11.8l0.9,0.2
			l0.3-0.9C412.9,444.2,410.9,437.3,404.4,424.9z"/>
		<path fill="#D3A37F" d="M355.3,422.5l-0.7-2.4l-1.2,2.2c-2.7,4.9-5.1,9.1-7.5,12.9l-0.5,0.8l0.7,0.6c3.7,3,11.1,8.3,19.4,10.2
			l2.9,0.6l-1.9-2.3C360.3,437.6,357,428.7,355.3,422.5z"/>
		<path fill="#D3A37F" d="M339.9,445.4l-0.8-0.9l-0.8,0.9c-1.2,1.4-2.4,2.6-3.5,3.5c-2.4,2.1-5.2,4.5-8.1,7l-0.8,0.7l0.8,0.8
			c11.3,11.1,17.6,16,24.2,16c1.5,0,2.9-0.2,4.5-0.7c6.2-1.8,7.7-6.7,8-9.5l0.1-0.7l-0.7-0.3C352.8,457.3,345,451.7,339.9,445.4z"/>
		<path fill="#D3A37F" d="M342.5,487.6l-0.2-0.1c-7.1-4-13.5-8.4-18.6-12.9l-0.5-0.5l-0.6,0.3c-4,2-13.1,7.9-11.5,18.7l0,0.3
			l0.2,0.2c2.4,3.1,6.9,7.3,14,9.5c4.2,1.2,7.8,1.9,10.8,1.9c4.9,0,8.4-1.6,10.5-4.9c2.2-3.4-2.1-9.7-4-12.3L342.5,487.6z"/>
		<path fill="#D3A37F" d="M473.9,363.8l-1.1,0.1c-10.1,1.3-20.9,1.4-31.5,0.3l-9.8-1.1l9.4,3c4.8,1.6,9,3.1,12.3,4.6
			c0.8,0.3,1.1,1.2,0.8,2c-0.3,0.7-1.2,1.1-2,0.8c-20.9-9.2-66-18.1-78.3-17.7l-4.8,0.2l4.4,1.8c10.2,4,17.4,8.2,21.3,12.4
			c0.4,0.4,0.6,0.9,0.7,1.4c1.9,12.6,4.7,28.8,9.6,42.1l0.2,0.5l0.5,0.1c4.6,1.5,15.9,4.8,24,4.8c0.3,0,0.6,0,0.9,0
			c5.4-0.2,13.3-2.4,20.2-5.7c5.6-2.6,15.5-8.3,19-16.7c5-11.9,4.4-27.4,4.1-31.8L473.9,363.8z"/>
		<path fill="#D3A37F" d="M450.5,419l-1,0.4c-6.7,2.7-13.7,4.5-18.7,4.7c-0.4,0-0.7,0-1.1,0c-6.4,0-14.3-1.8-19.8-3.3l-2.2-0.6
			l1.2,2.4c6.6,12.8,10.3,22.8,6.3,29.9c-0.2,0.5-0.5,0.9-0.9,1.4c-2.1,3-6.6,5.1-12.2,5.8c-10.2,1.3-21.5-2.1-30.1-9.1
			c-0.4-0.3-0.8-0.7-1.2-1l-0.3-0.3l-0.4,0c-10.9-0.4-21.1-7.8-25-11l-0.8-0.7l-0.6,0.9c-0.2,0.3-0.5,0.7-0.7,1l-0.6,0.9l0.4,0.6
			c4.6,6.3,12.2,12,22.8,17c16.1,7.6,37.7,12.7,53.6,12.7c0.9,0,1.8,0,2.7-0.1c3-0.1,6-0.6,8.8-1.3c9.5-2.6,17-9.3,20.7-18.2
			c1.2-2.8,1.9-5.8,2.2-8.7c1-10.1-1.8-19.6-2.7-22.3L450.5,419z"/>
		<path fill="#D3A37F" d="M422.1,475.6c-0.8,0-1.6,0-2.4,0c-12.9,0-34.3-3.6-53-11.7l-1.1-0.5l-0.3,1.2c-0.6,2.9-2.6,8-9.2,10
			c-1.8,0.6-3.5,0.8-5.2,0.8c-7.4,0-14.2-5.4-25.8-16.8l-0.7-0.6l-4.9,4.2l0.4,0.7c0.9,1.8,2.6,3.9,5.1,6.2l0.3,0.3h0.1
			c0,0,0.1,0.1,0.1,0.1l0.3,0.4c12.4,11.4,41.4,27.4,67,27.4h0.2c4.5,0,8.7-0.5,12.5-1.5c14.7-3.8,20.4-13.7,22.5-19.2l0.6-1.6
			l-1.7,0.3C425.5,475.3,423.8,475.5,422.1,475.6z"/>
		<path fill="#D3A37F" d="M306.3,494.6c-0.2-1.2-0.3-2.4-0.3-3.5c-0.2-11.2,8.6-17.8,12.5-20l1-0.6l-0.8-0.9
			c-0.9-1.1-1.7-2.1-2.4-3.1l-0.6-1l-0.9,0.7c-4.5,3.9-7.6,6.5-7.8,6.6c-1,0.9-2.7,0.7-3.5-0.3c-0.9-1.1-0.8-2.6,0.3-3.5
			c0,0,0.4-0.3,0.9-0.7c1.7-1.4,5.6-4.8,10.2-8.7c3.8-3.3,11.1-9.5,16.7-14.4c1.8-1.5,3.7-3.7,5.7-6.4c7.9-10.4,15.3-25.9,16.1-27.7
			c0.5-1,1.6-1.6,2.7-1.4c1.1,0.2,2,1.1,2.1,2.2c0,0.2,2.7,23.1,17,34.7c7.6,6.2,17.4,9.2,26.3,8.1c3.3-0.4,5.5-1.4,6.7-2l1.9-1.1
			l-2.1-0.7c-5.7-1.9-11-6.2-14.8-12.2c-3.8-5.8-5.4-12.1-4.2-16.5c1.8-6.7,5.7-13,7.9-16.1l0.3-0.4l-0.1-0.5
			c-3.1-11-5.1-22.8-6.4-31.8l-0.1-0.3l-0.3-0.2c-5.9-5.6-18.2-11.1-36.4-16.4c-20.1-5.8-40-9.3-40.8-9.4c-1.4-0.2-2.3-1.5-2.1-2.9
			c0.2-1.4,1.5-2.3,2.9-2c0.1,0,11.7,2,26.4,5.5l3.5,0.8l-2.5-2.5c-0.3-0.3-0.7-0.7-1-1c-6.2-7.3-10.7-13-10.8-13.1
			c-0.2-0.3-0.4-0.7-0.3-1.1c0-0.4,0.2-0.8,0.6-1c0.6-0.5,1.6-0.4,2.1,0.2c0.1,0.1,4.6,5.9,10.7,13c2.9,3.3,7.8,6.2,13.8,8
			c5.3,1.6,11.1,2.2,16.7,1.9c0.5,0,1,0,1.6,0h0.9l0.1-0.9c0.8-6.8,3.1-11.2,4.8-13.7l0.5-0.7l-0.6-0.6
			c-5.9-5.3-11.2-11.2-15.8-17.4l-0.3-0.4l-0.6,0c-12.1-0.5-38.6,1.2-52.8,5l-0.2,0l-0.2,0.1c-8.8,6.7-35.8,54.9-51.7,85.8l-0.3,0.7
			l0.5,0.5c9.3,9,11.3,18.7,11.4,19.1c0.3,1.4-0.6,2.7-2,3c-0.1,0-0.3,0-0.5,0c-1.2,0-2.2-0.8-2.5-2c-0.2-1-2.5-9.6-10.8-17.3
			l-0.2-0.2l-0.3,0c-2.2-0.3-4.3-0.5-6.4-0.8l-1.2-0.2l0,1.2c0.2,6.2-0.6,13.7-2.3,21c-2.4,10.8-6.2,27-11.7,43.5l-0.4,1.1l1.2,0.2
			c18.5,2.8,31.4,7,46.2,15.1c1.4,0.8,2.8,1.5,4.4,2.2c10,4.6,18.3,5.4,22.8,5.4c0.3,0,0.5,0,0.8,0l1.6,0l-0.7-1.4
			C307.4,498.8,306.7,496.7,306.3,494.6z"/>
		<path fill="#D3A37F" d="M393.1,502.2h-0.2c-17.1,0-33.2-6.1-43.7-11.1l-2.5-1.2l1.2,2.5c1.7,3.7,1.9,6.7,0.5,8.8
			c-2.5,3.9-6.5,5.8-12.1,5.8c-3.2,0-7.1-0.7-11.5-2c-2.9-0.9-5.7-2.2-8.1-3.8l-4.4-2.9l3,4.3c2.8,4.1,6.8,7.9,11.6,11.2
			c1.4,1,2.8,1.9,4.4,2.8l0.1,0.1c8.4,4.8,17.7,7.3,26.8,7.3c2.9,0,5.8-0.3,8.7-0.8c18-3.3,28.7-13.8,33.5-19.8l1.5-1.9l-2.4,0.3
			C397.5,502.1,395.3,502.2,393.1,502.2z"/>
		<path fill="#D3A37F" d="M242.6,413l0-0.8l-0.8-0.1c-2.9-0.4-6-0.9-9.5-1.5l-1.1-0.2l0,1.1c-0.4,8.9-2.4,21.4-6.1,37.2
			c-1.9,8.2-4.8,17.8-8.5,27.7l-0.4,1.2l1.3,0.1c3.5,0.3,6.9,0.7,10.2,1.2l0.8,0.1l0.3-0.8c5.6-16.8,9.5-33.3,11.9-44.2
			C242.2,426.5,242.9,419.2,242.6,413z"/>
		<path fill="#D3A37F" d="M227.2,410.6l0-0.9l-0.9-0.2c-38.5-6.8-67.5-16.3-90.7-24.7c-31.4-11.4-48.4-13.1-51.5-13.3l-1.1-0.1v92.1
			l0,1h0.9c6.1,0.9,55.3,5.7,91.9,9.2l5.1,0.5c3.3,0.3,6.4,0.6,9.4,0.9c4.1,0.4,8,0.8,11.5,1.1l9.9,0.9l0.3-0.7
			c3.8-10.2,6.9-20.1,8.9-28.7C224.9,431.8,226.9,419.3,227.2,410.6z"/>
	</g>
</g>
<g id="Layer_2">
	<path fill="none" stroke="#000000" stroke-width="7" stroke-linecap="round" stroke-linejoin="round" stroke-miterlimit="10" d="
		M83.6,369.1c0,0,16.9,0.5,52.9,13.5c36,13,70.9,22.9,119.1,28.9c10.2,8.9,12.4,19.4,12.4,19.4"/>
	<path fill="none" stroke="#000000" stroke-width="7" stroke-linecap="round" stroke-linejoin="round" stroke-miterlimit="10" d="
		M255.9,410.3c0,0,41.5-80.6,53.7-88.5c14.6-4.1,42.1-5.7,54.1-5.2"/>
	<path fill="none" stroke="#000000" stroke-width="7" stroke-linecap="round" stroke-linejoin="round" stroke-miterlimit="10" d="
		M313.5,344.6c0,0,63.6,10.7,79.4,27.3c2.8,18.6,6.6,38,13.8,51.8s10,22.7,5.6,28.7c-4.3,6-23.4,8.7-38.7-3.8
		c-15.3-12.5-17.9-36.4-17.9-36.4s-12.1,25.8-22.5,34.9c-10.3,9.1-27.8,23.9-27.8,23.9"/>
	<path fill="none" stroke="#000000" stroke-width="4" stroke-linecap="round" stroke-linejoin="round" stroke-miterlimit="10" d="
		M398.6,405.3c0,0-6.3,8.3-8.7,17.1c-2.4,8.8,7.7,26.2,21.8,28.3"/>
	<path fill="none" stroke="#000000" stroke-width="7" stroke-linecap="round" stroke-linejoin="round" stroke-miterlimit="10" d="
		M476.4,363.4c0,0,2,19.4-4.2,34.3c-6.3,14.8-30.8,23.5-41.5,23.9c-10.7,0.4-27.4-5.5-27.4-5.5"/>
	<path fill="none" stroke="#000000" stroke-width="5" stroke-linecap="round" stroke-linejoin="round" stroke-miterlimit="10" d="
		M330.6,330.9c0,0,4.6,5.8,10.7,13c6.1,7.2,19.8,11.1,31.8,10.4c12-0.7,58.3,8.5,79.5,17.8"/>
	<path fill="none" stroke="#000000" stroke-width="7" stroke-linecap="round" stroke-linejoin="round" stroke-miterlimit="10" d="
		M452.1,416.6c0.4,0.4,5.1,12.7,3.8,25.9c-1.2,13.2-11.8,29.7-34,30.5c-22.2,0.9-68.1-10.5-82.1-32"/>
	<path fill="none" stroke="#000000" stroke-width="4" stroke-linecap="round" stroke-linejoin="round" stroke-miterlimit="10" d="
		M343.6,435.5c0,0,13.3,12.6,27.4,12.7"/>
	<path fill="none" stroke="#000000" stroke-width="7" stroke-linecap="round" stroke-linejoin="round" stroke-miterlimit="10" d="
		M431.6,473.6c0,0-4.5,26-38.5,26.1s-72.3-25.9-76-37.3"/>
	<path fill="none" stroke="#000000" stroke-width="4" stroke-linecap="round" stroke-linejoin="round" stroke-miterlimit="10" d="
		M364.6,461.1c0,0,0.8,9.7-8.8,12.5s-16.3-2.1-32.3-18.1"/>
	<path fill="none" stroke="#000000" stroke-width="7" stroke-linecap="round" stroke-linejoin="round" stroke-miterlimit="10" d="
		M406.5,498.9c0,0-10.9,21.6-39.2,26.8c-28.2,5.2-55.6-15.3-58.5-31.6c-2.9-16.3,15-22.9,15-22.9"/>
	<path fill="none" stroke="#000000" stroke-width="4" stroke-linecap="round" stroke-linejoin="round" stroke-miterlimit="10" d="
		M341.6,484.9c0,0,9.4,10.4,5.9,15.8c-3.4,5.4-10.2,7.1-22.4,3.4c-12.2-3.6-16.6-13-16.6-13"/>
	<path fill="none" stroke="#000000" stroke-width="7" stroke-linecap="round" stroke-linejoin="round" stroke-miterlimit="10" d="
		M311.5,504.7c0,0-14.4,2.6-32.9-7.6c-18.6-10.1-33.9-14.2-64-17s-122.9-11.7-131-13"/>
	<path fill="none" stroke="#000000" stroke-width="7" stroke-linecap="round" stroke-linejoin="round" stroke-miterlimit="10" d="
		M517.7,75.1c154,57.8,67.8,332.7-103.4,281.1C269.3,290,360.1,30,517.7,75.1z"/>
	<path fill="none" stroke="#000000" stroke-width="7" stroke-linecap="round" stroke-linejoin="round" stroke-miterlimit="10" d="
		M502.7,99.7c130.2,51.1,43.7,270.1-80.3,223.7C301.5,262.1,385.7,65.5,502.7,99.7z"/>
	<path fill="none" stroke="#000000" stroke-width="6" stroke-linecap="round" stroke-linejoin="round" stroke-miterlimit="10" d="
		M521.2,108.9c0,0-43.8-23.3-93.8,24.5s-42.1,123.1-28.9,147.8c13.3,24.8,52.5,64.4,115.1,28.3"/>
	<path fill="none" stroke="#000000" stroke-width="4" stroke-linecap="round" stroke-linejoin="round" stroke-miterlimit="10" d="
		M383.4,336.4c0,0-5.6,4.6-6.8,16.4"/>
	<path fill="none" stroke="#000000" stroke-width="7" stroke-linecap="round" stroke-linejoin="round" stroke-miterlimit="10" d="
		M307.9,506c-0.3,0.6-12.2,6.5-10.1,20c2,13.5,20.1,18.9,30,8.7c8-9.7,2.3-15.8,2.3-15.8"/>
	<path fill="none" stroke="#000000" stroke-width="6" stroke-linecap="round" stroke-linejoin="round" stroke-miterlimit="10" d="
		M213.2,402c0,0,6.2-9,11.6-6.4c5.4,2.6,7,15.4-1.7,52.7c-8.7,37.3-37.8,99.2-55,93.4c-12.8-11.6,7.8-65.4,7.8-65.4"/>
	<path fill="none" stroke="#000000" stroke-width="6" stroke-linecap="round" stroke-linejoin="round" stroke-miterlimit="10" d="
		M190,478.5c0,0-11.4,34.6-9.3,55.5c2,20.9,15.8,11.9,31.9-14.8c16.1-26.7,25-62.7,29.9-84.6c4.9-22,2.2-45.1-13-34"/>
	<path fill="none" stroke="#000000" stroke-width="6" stroke-linecap="round" stroke-linejoin="round" stroke-miterlimit="10" d="
		M412.4,298.5c0,0,20.8-131.9,23-143.4c2.2-11.6,7.4-18.5,20.6-18c13.2,0.5,95.3,6.5,95.3,6.5"/>
	<path fill="none" stroke="#000000" stroke-width="6" stroke-linecap="round" stroke-linejoin="round" stroke-miterlimit="10" d="
		M593.7,155.2c0,0,203.9,14,209.2,15.1c5.4,1,8.3,6.3,6.4,17.5c-1.9,11.2-49.1,268.9-50.7,277.7c-1.6,8.8-2.9,10.3-5.3,11"/>
	<path fill="none" stroke="#000000" stroke-width="6" stroke-linecap="round" stroke-linejoin="round" stroke-miterlimit="10" d="
		M457.3,436.8L754.9,477c0,0,3.7,0,2.8,7.4c-0.9,7.3-1.2,11.2-1.6,13c-0.4,1.8-111.3,126.9-118.1,134.2s-16.3,4.1-24.1,2.2
		c-7.8-1.9-388.6-76.3-389.9-77.9c-1.3-1.5-0.7-14.7-0.6-16.6s59.4-39.5,59.4-39.5"/>
	
		<polyline fill="none" stroke="#000000" stroke-width="5" stroke-linecap="round" stroke-linejoin="round" stroke-miterlimit="10" points="
		442.2,317.8 465.3,172 565,178.6 	"/>
	
		<polyline fill="none" stroke="#000000" stroke-width="5" stroke-linecap="round" stroke-linejoin="round" stroke-miterlimit="10" points="
		597.4,171.2 786.3,185.4 739.5,447.9 454.3,415 	"/>
	<path fill="none" stroke="#000000" stroke-width="5" stroke-linecap="round" stroke-linejoin="round" stroke-miterlimit="10" d="
		M453.6,452l265.1,38.3c0,0-12.2,13.9-26.5,28.8c-14.3,14.9-32.4,30.7-32.4,30.7l-261.8-40"/>
	<path fill="none" stroke="#000000" stroke-width="4" stroke-linecap="round" stroke-linejoin="round" stroke-miterlimit="10" d="
		M755.6,478.7l-124.5,136l-156.9-29.1c0,0-2.3-7-7.3-8.8s-69.2-13.5-72.3-13.5s-13.3,3.6-18.1,3.4c-4.9-0.1-150.8-28.5-150.8-28.5"
		/>
	<path fill="none" stroke="#000000" stroke-width="4" stroke-linecap="round" stroke-linejoin="round" stroke-miterlimit="10" d="
		M378.1,567.8c0,0,7.5,8.1,10.1,10.1c2.6,2,73.1,16.4,76.5,15.8c3.4-0.7,9.1-7,9.1-7"/>
	
		<line fill="none" stroke="#000000" stroke-width="4" stroke-linecap="round" stroke-linejoin="round" stroke-miterlimit="10" x1="630.6" y1="614.6" x2="630.6" y2="634.8"/>
	
		<polyline fill="none" stroke="#000000" stroke-width="5" stroke-linecap="round" stroke-linejoin="round" stroke-miterlimit="10" points="
		544,532.6 498.8,572.1 365.7,548.9 412.3,512.1 	"/>
	
		<line fill="none" stroke="#000000" stroke-width="4" stroke-linecap="round" stroke-linejoin="round" stroke-miterlimit="10" x1="667.3" y1="482.9" x2="611.4" y2="541.3"/>
	
		<line fill="none" stroke="#000000" stroke-width="4" stroke-linecap="round" stroke-linejoin="round" stroke-miterlimit="10" x1="618.8" y1="477.2" x2="561.3" y2="534"/>
	
		<line fill="none" stroke="#000000" stroke-width="4" stroke-linecap="round" stroke-linejoin="round" stroke-miterlimit="10" x1="580.7" y1="471.4" x2="518.5" y2="527.6"/>
	
		<line fill="none" stroke="#000000" stroke-width="4" stroke-linecap="round" stroke-linejoin="round" stroke-miterlimit="10" x1="544" y1="466.1" x2="478.3" y2="521.5"/>
	
		<line fill="none" stroke="#000000" stroke-width="4" stroke-linecap="round" stroke-linejoin="round" stroke-miterlimit="10" x1="509.6" y1="460.7" x2="437.2" y2="515.9"/>
	
		<line fill="none" stroke="#000000" stroke-width="4" stroke-linecap="round" stroke-linejoin="round" stroke-miterlimit="10" x1="469" y1="454.2" x2="425.7" y2="485.8"/>
	
		<line fill="none" stroke="#000000" stroke-width="4" stroke-linecap="round" stroke-linejoin="round" stroke-miterlimit="10" x1="697.9" y1="510.4" x2="433.3" y2="472.8"/>
	
		<line fill="none" stroke="#000000" stroke-width="4" stroke-linecap="round" stroke-linejoin="round" stroke-miterlimit="10" x1="678" y1="530.2" x2="419.1" y2="492.2"/>
</g>
<g id="Layer_6">
	
		<path opacity="0" fill="none" stroke="#000000" stroke-width="40" stroke-linecap="round" stroke-linejoin="round" stroke-miterlimit="10" d="
		M121,363.4c-1.1,1.6-40.2,29.1-40.2,29.1v36.4l55.1-53.9l37.9-5.9l-85.4,80.6l12.3,12c0,0,95.7-77.2,96.9-77.2s21.8-0.4,21.8-0.4
		l-94.6,83.2l39.1-0.6L296.4,324l37.5-2c0,0-145.8,154.7-143.4,153.2s22.9-1.9,22.9-1.9l138.4-138.5l8.1,7.7L242.7,475.3l23.3,3.4
		l98.7-106.6l21.6,4.9l-94,104.1l20,1.9l88.9-106.2l20.3,3.3l37.5-0.5l-9.7,18.1l-42.8,7.6l-76.9,91.9l18.7,9.9l75.3-81.1l11,2
		l-1.2,19.9L397,473.1l14.7,2.1l-25.3,10.6l-7.2,13.9l-13.3,5.3"/>
	
		<line opacity="0" fill="none" stroke="#000000" stroke-width="37" stroke-linecap="round" stroke-linejoin="round" stroke-miterlimit="10" x1="319.6" y1="507.8" x2="317.8" y2="520.5"/>
	
		<line opacity="0" fill="none" stroke="#000000" stroke-width="37" stroke-linecap="round" stroke-linejoin="round" stroke-miterlimit="10" x1="385.9" y1="363.7" x2="408.2" y2="324"/>
	
		<path opacity="0" fill="none" stroke="#000000" stroke-width="47" stroke-linecap="round" stroke-linejoin="round" stroke-miterlimit="10" d="
		M395.7,314.6c0,0-27.2-24.7-29.7-65.7c-2.6-41,6.3-81.3,29.7-111.8c23.4-30.5,67.4-63.5,117.1-54c31.1,5.9,55.7,34.5,62.8,53"/>
	
		<path opacity="0" fill="none" stroke="#000000" stroke-width="29" stroke-linecap="round" stroke-linejoin="round" stroke-miterlimit="10" d="
		M577.7,157.3c0,0,9.4,23.3,6.1,58.1c-3.1,32.6-22.4,73.5-48.8,97.3c-26.7,24-54.6,32.6-68.4,32.7c-13.8,0.1-37.7-3-37.7-3
		l-15.1-1.9l-1.2-22.6c0,0,15.5,14.9,45.6,20.5"/>
	
		<path opacity="0" fill="none" stroke="#000000" stroke-width="80" stroke-linecap="round" stroke-linejoin="round" stroke-miterlimit="10" d="
		M586.4,162c5-0.3,216,22.2,216,22.2L754.1,452l-302.5-23.1L229.2,542.2l15.5,7.7l228.5-101.9l50.7,6.3L312.3,554.9l53.6,17.2
		l209.6-109.7l70.2,2.6L446.8,586.7l48.6,14.5c0,0,199.8-130.2,203.8-129.7c4.1,0.5,33.7,6.7,33.7,6.7l-168.1,140
		c0,0,38.7,11.1,40.1,9.6s99.4-94.5,99.4-94.5"/>
</g>
<g id="Layer_4">
</g>
<g id="Layer_7">
</g>
<g id="Layer_5">
</g>
<g id="Layer_8">
</g>
</svg>
