<?xml version="1.0" encoding="utf-8"?>
<!-- Generator: Adobe Illustrator 19.1.0, SVG Export Plug-In . SVG Version: 6.00 Build 0)  -->
<svg version="1.1" id="Layer_1" xmlns="http://www.w3.org/2000/svg" xmlns:xlink="http://www.w3.org/1999/xlink" x="0px" y="0px"
	 width="480px" height="640px" viewBox="-79 0 480 640" enable-background="new -79 0 480 640" xml:space="preserve">
<polygon stroke="#000000" stroke-width="20" stroke-miterlimit="10" points="364,190 294,190 204,190 204,109 204,48 174,48 124,48 
	124,109 124,190 54,190 -36,190 -36,220 -36,270 54,270 124,270 124,418 124,586 174,586 204,586 204,418 204,270 294,270 364,270 
	364,220 "/>
<path opacity="0" fill="none" stroke="#49FF06" stroke-width="63" stroke-linecap="round" stroke-linejoin="round" stroke-miterlimit="10" d="
	M135,62.2c17.7,0.6,35.3,1.7,52.9,3.4c-17.7,2.4-35.5,4.8-53.2,7.1c17.9,1.8,35.6,4.8,53.1,8.9c-20.7,1.6-41.4,4.3-61.7,8.3
	c23.9,0.5,47.7,3,71.2,7.5c-22.7,3.3-45.1,8.1-67.2,14.2c19.4-0.5,38.8,1.4,57.8,5.5c-21.5,3.4-42.8,8-63.9,13.6
	c23.9,0.1,47.8,3.3,70.8,9.7c-22.1,3.6-44.1,8-65.8,13.3c18.8,1.5,37.5,4.2,56,8c-19.9,2.5-39.5,7.4-58.2,14.5
	c19.9,3,39.7,6.1,59.6,9.1c-21,3.5-42.1,6.2-63.3,8.3"/>
<path opacity="0" fill="none" stroke="#49FF06" stroke-width="63" stroke-linecap="round" stroke-linejoin="round" stroke-miterlimit="10" d="
	M-22.2,205c2.4,18.6,4.8,37.1,7.2,55.7c3.1-16.4,6.3-32.9,9.4-49.3c2.2,17.9,6.7,35.5,13.2,52.3c-0.5-19.1,3.2-38.4,10.8-55.9
	c2.8,19.6,8.6,38.7,17.2,56.5c2.4-19.8,6.4-39.3,12-58.4c2.5,19.4,9.4,38.1,20.1,54.4c0.6-18.3,3.2-36.6,7.7-54.3
	c2.6,20.2,8.5,39.9,17.4,58.2c-2.1-19.8,0.6-40.1,7.6-58.7c3,19.5,9.6,38.5,19.4,55.6c1.4-19.2,4.3-38.4,8.8-57.1
	c5.3,20.8,13.6,40.9,24.5,59.4c-0.1-19.3,1.6-38.6,5.3-57.6c5.2,21.4,12.8,42.3,22.7,62c2.3-21.4,4.6-42.8,6.9-64.3
	c7.1,20.2,14.2,40.4,21.4,60.7c2.3-22,4.7-44,7-66c8.6,20.7,16.6,41.7,24,62.9c1.5-19.3,3-38.5,4.6-57.8
	c10.8,19.2,19.2,39.8,24.9,61c1-19.6,3-39.1,6-58.5c14,15.5,22.9,35.7,24.9,56.5c4.4-21.5,7.7-43.2,10-65
	c9.8,20.4,19.5,40.7,29.3,61.1c0.1-20.5,3.8-41,10.9-60.2c4.8,18.5,8.8,37.2,11.9,56c-1-1.8-1.9-3.5-2.9-5.3"/>
<path opacity="0" fill="none" stroke="#49FF06" stroke-width="63" stroke-linecap="round" stroke-linejoin="round" stroke-miterlimit="10" d="
	M136.9,279.5c21,2.1,42,4.1,63.1,6.2c-22.6,2.2-45,6.1-67,11.8c22.4,2.8,44.8,5.6,67.2,8.4c-26.7,2.1-53.3,6.8-79.1,14
	c24.4,2,48.6,5.5,72.6,10.4c-23.7,1.6-47.3,6.3-69.7,14.1c23.6,0.9,47.1,2.9,70.5,6.2c-23.3,1.6-46.2,8.4-66.7,19.8
	c21.5,0.4,43,2.4,64.2,5.7c-22.3,5.3-44.4,11.7-66.1,19.1c21.1,2.7,42.2,5.4,63.3,8.1c-19.1,1.6-37.9,6-55.6,13.1
	c21.7,4,43,10.2,63.5,18.3c-23.7,2.3-47.2,7-69.9,14c20.2,4.3,39.9,11.1,58.5,20.2c-22.6,4.2-44.7,10.9-65.9,20
	c22.2,2.4,44.2,7,65.5,13.6c-20.5,4.4-40.8,10.2-60.6,17.2c24.2,1.6,48.3,3.2,72.5,4.8c-21,2.1-41.7,6.7-61.7,13.7
	c18.7,1.3,37.4,2.6,56,3.9c-17.9,5.5-35.9,10.9-53.8,16.4c10.7,4.1,21.9,6.7,33.3,7.6c5.8,0.4,12.1,0.3,16.8-3.1
	c4.7-3.4,6.6-11.2,2.2-15"/>
</svg>
