<?xml version="1.0" encoding="utf-8"?>
<!-- Generator: Adobe Illustrator 21.0.0, SVG Export Plug-In . SVG Version: 6.00 Build 0)  -->
<svg version="1.1" id="Слой_1" xmlns="http://www.w3.org/2000/svg" xmlns:xlink="http://www.w3.org/1999/xlink" x="0px" y="0px"
	 width="1000px" height="1000px" viewBox="0 0 1000 1000" enable-background="new 0 0 1000 1000" xml:space="preserve">
<g id="vs-highlight">
	<path fill="#5DBFD9" d="M344.4,196.5c-0.3-6.1-1.1-9.9-2.8-10.4c-2.4-0.6-6.1,6.9-7.6,9.9c-8,16.5-8.9,32-8.9,32.9
		c-0.5,6.4-7.2,28-20.8,71c0,0-2.4,7.8-7.2,40.2c-0.8,4.9-1.8,13,0.9,14.2c1.5,0.6,4-1.2,5.4-2.9c3.2-4,2.4-9.3,2.1-12.4
		c-0.6-8.4,2-6.6,4.3-24.2c1.8-15.1,0.6-22.3,5.8-33.3c0.8-1.7,2.8-5.7,3.8-5.4c2,0.5,0,14.1-0.8,19.9c-1.1,8.1-2.4,14.2-5,26
		c-4.7,21.6-5.8,26.2-3.1,28.4c3.2,2.6,10.2,1.1,12.4-2.6c1.2-2.1,0.8-4.7,0.2-7c-0.2-1.1-0.8-4-3.1-6.9c-0.9-1.2-1.2-1.2-1.5-1.8
		c-1.4-3.1,2-7.2,2.8-8.3c4.4-6,4.3-15.8,5.8-26C330.7,274,345.5,227.6,344.4,196.5z"/>
	<path fill="#5DBFD9" d="M328.7,214c-1.8-0.6-11.9,24.3-18.8,46.6c-2.3,7.3-2.9,10.2-6.9,23.4c-5.2,16.8-7.6,25.2-9.5,29.1
		c-9,19.7-21.3,30.1-17.9,34.7c1.4,2,4,0.6,10.6,4.3c4.7,2.6,5.7,4.4,7.5,4.3c5.4-0.5,7.8-16.5,8.3-19.1c4.4-28.4,13.5-56,19.1-84.1
		C326.5,226,329.9,214.3,328.7,214z"/>
	<path fill="#5DBFD9" d="M577,347.7c-5.5-4-4.3-11.8-4.7-28.9c-0.3-11.9-1.1-31.5-6.9-50.9c-4-13.3-9-21.9-8.4-22.2
		c0.6-0.3,9,12.1,15.8,28.8c5.7,14.2,14.2,42.1,17.6,52.8c0.9,2.9,2.8,8.7,8.1,13.5c6.9,6,15.1,5.8,17.9,5.8c2.6,0,7.2,0,8.7-2.8
		c0.6-1.1,0.8-2.6,1.7-2.8c0.8-0.2,1.7,0.8,2.1,1.2c1.2,1.4,3.1,4.6,2.1,7.2c-1.2,3.2-5.7,1.7-14.2,5.8c-4,2-5.7,3.5-7.3,2.8
		c-2.6-1.2-1.2-5.8-4.1-8c-2.4-1.7-5.5,0-9.9,0.8C587.9,352.1,580.4,350.2,577,347.7z"/>
	<path fill="#5DBFD9" d="M603.2,227.5c-1.5,0.2-0.6,22.9,4.6,47c1.5,6.9,1.4,4.9,6.6,25.7c2.6,10.7,7,21.1,8.1,32.1
		c0.6,6.7,0.3,11.8,4.3,15c4,3.2,10.9,3.1,12.2,0.6c1.5-2.8-4.1-6.6-8.9-15.9c-3.4-6.6-3.5-10.2-6.1-22.2c-2-9.6-1.4-4.3-7.6-29.5
		C606.4,241.3,604.4,227.3,603.2,227.5z"/>
	<path fill="#5DBFD9" d="M609.8,366.2c-0.2,5-1.2,7.3-1.5,8.1c-1.7,3.5-4.6,5.8-6.9,7.6c-3.1,2.4-3.5,2-5.4,3.8c0,0-3.4,3.2-4.6,8.9
		c-2.6,11.8,10.9,24.9,8.9,26.8c-1.5,1.4-8-5.7-13-3.5c-2.9,1.2-3.5,4.9-5,4.6c-1.7-0.5-1.5-3.8-2.8-8.9c-2.3-9.5-5.8-9.6-7.3-17.7
		c-1.2-6.4,1.1-6.4-0.3-13.2c-1.5-8.3-5-8.6-5.2-14.5c-0.2-2.6,0.5-3.7,6-15.8c5.4-11.8,5.5-12.4,6.9-13.3
		c7.2-4.6,22.2,1.4,27.5,11.5C609.9,356.1,609.8,362.5,609.8,366.2z"/>
	<path fill="#5DBFD9" d="M583.3,424.8c1.4,1.4,2.6,2,5,4.6c1.1,1.2,4.6,5,6,8.9c2.9,7.8-4.4,11.5-3.7,22.9c0,0.9,1.2,4.7,3.5,12.7
		c3.4,11.8,4.7,15.9,4.3,16.1c-0.8,0.3-3.8-9-12.4-19.3c-3.7-4.4-4.7-4.6-6.3-7.3c-4.1-7.2-2.3-14.5-1.4-21.9
		c2.6-19.3-0.2-35.9,0.2-35.9C578.6,405.2,576.4,417.9,583.3,424.8z"/>
	<path fill="#5DBFD9" d="M603.2,444.5c-0.6-5-0.6-8.6-1.8-8.7c-1.5-0.3-4.3,4.7-5,9.8c-0.9,5.8,1.2,9.3,3.2,15.4
		c2.9,9.2,0.5,9,3.1,22.5c1.7,8.6,2.9,15.4,7,23.9c3.1,6.3,6.1,10.4,8.6,18.5c1.1,3.7,1.4,6,2,10.1c0.8,5.4,1.1,8.3,0,8.9
		c-1.5,0.8-5.4-3.5-7.6-7.3c-4.7-7.5-4.7-14.5-5.4-14.5s0.8,6.3,0.5,15.8c-0.2,5.2-0.8,7.6,0.9,9.9c1.4,2,3.7,2.6,8,3.7
		c2.3,0.6,5.8,1.5,10.4,0.9c3.1-0.5,4.7-0.6,6-2c1.1-1.2,1.8-3.4-0.3-11.9c-1.8-7.5-4.1-13-4.6-14.2c-3.7-8.6-4.4-8.7-6.6-13.8
		c-3.8-9.5-1.8-11.9-5-22.9c-2.9-10.1-4.4-7.6-7.6-18.4C604.6,456.9,603.2,444.5,603.2,444.5z"/>
	<path fill="#5DBFD9" d="M297.8,362.8c1.2,1.1,5-3.7,13-5c2.8-0.5,5.7-0.5,9.2-0.5c5,0,4.9,0.5,7.6,0.5c7.5-0.3,11.6-3.7,12.7-2.3
		c0.9,1.2-2,5-2.3,5.4c-3.7,4.4-8.6,5.7-8.4,6.1c0.2,0.5,7.6-1.8,16.8-3.5c4.9-0.8,9.2-1.5,9.6-0.5c0.6,1.5-5.8,5.4-9.2,7.3
		c-5.4,3.1-8.7,5.2-13.8,6.1c-7.3,1.4-12.4-0.8-12.7,0c-0.2,0.9,6.7,4.7,15,5c7.6,0.3,13.8-1.8,13.8-1.8c3.5-1.2,5.7-2.8,6.6-2
		c1.2,1.2-3.2,5.2-3.1,11.5c0,1.2,0.2,5.5,2.8,7.2c3.2,2.1,7.6-1.5,9.8,0.5c1.7,1.4,0.8,4.6,0.3,7c0,0-1.4,7.6,1.2,21.9
		c2,11,8,18.5,8.6,18.2c0.8-0.3-7-15-3.5-17.7c2-1.5,5.8,2,13.5,5.4c4.7,2.1,8.3,2.9,24.5,5.4c15,2.3,22.8,3.4,28.8,4.3
		c17.6,2.6,22.3,4.6,36.4,7.3c30.9,5.8,58.7,5.5,58.9,4.3c0-0.6-7.2-1.7-36.4-6.9c-43.7-8-35.9-7.3-50.9-9.6
		c-7.8-1.2-28.8-4.1-51.7-10.7c-5.4-1.5-15.4-4.6-19.6-13c-1.4-2.9-1.7-5.8-2.3-11.9c-0.9-9.5-1.5-14.7,1.5-19.1
		c1.7-2.4,2.3-1.5,11-7.6c4.6-3.2,5.4-4,9.6-7.2c5-3.7,9.9-7.3,15.3-9.9c2.4-1.2,5.8-2.6,25.7-6.1c11-2,16.5-2.9,19.1-3.1
		c19.3-1.2,29.2,4.4,32.9-0.8c1.5-2.1,1.4-5.5,0-7.5c-3.2-4.4-12.5-1.7-25.5,0.5c-17.3,3.1-9.8-0.2-44.7,4.3
		c-24.2,3.1-31.8,4.3-31.8,4.3s-11.3,1.7-29.4,1.7c-7.6,0-14.1-0.3-16.4-4.3c-1.8-3.2,0.8-6.1-1.4-9.8c-2.8-4.9-11.5-6.7-14.1-4
		c-2.4,2.6,2.6,7.3,0.5,11.6c-3.1,6.1-14.8,1.5-22.9,9.6C298.2,356.9,296.7,361.8,297.8,362.8z"/>
	<path fill="#5DBFD9" d="M339.8,333.8c7-7.6,2.6-15.4,4.6-42.8c0.8-10.9,2-16.2,2-28.4c0-1.5,0-4.6,0-10.6
		c-0.2-17.6-0.2-17.6,0-19.1c1.4-13.2,9.9-23.4,11.2-22.9c1.1,0.5-3.4,8.7-5.4,23.7c-0.6,4.7-0.8,8.6-0.8,23.7
		c0,15.8,0.2,23.6,0.5,32.1c0.8,23.7,1.2,35.6,3.5,41c3.1,7.3,6.9,12.4,4.6,17.6c-2,4.3-7.3,6.6-11.9,6.6c-7.8-0.2-14.7-7.5-14.2-13
		C334,337.9,336.9,336.8,339.8,333.8z"/>
	<path fill="#5DBFD9" d="M545.8,318.5c0.2,0,4.3,12.4,2.3,22.6c-0.3,1.5-0.8,3.5-2.3,5.4c-2.1,2.6-4.9,3.4-8.9,4.6
		c-8.9,2.8-13.3,4.1-13.5,5.4c-0.2,2,7.3,5.4,15,5c3.7-0.2,5.2-1.1,12.7-1.5c2.9-0.2,5-0.2,7.6,0.8c1.5,0.6,5.4,2,5.8,4.6
		c0.5,2.8-3.5,3.5-5,8.4c-0.8,2.6,0.2,2.9-0.5,6.9c-0.3,2.3-1.2,6-3.5,9.6c-0.8,1.4-3.1,4.6-6.9,7.3c-2.8,1.8-5.7,3.1-16.8,4.7
		c-11.9,1.8-15.8,1.7-16.1,3.4c-0.5,2.3,6.3,5.5,9.6,6.9c9.5,3.8,18.5,2.6,20.6,2.3c6.7-1.1,10.4-3.4,11.2-2.3
		c0.6,1.1-2.9,5-7.3,7.6c-7.8,4.6-16.4,3.5-16.5,4.3c0,1.1,15.9,0,18.4,6.1c0.9,2.3-0.8,3.7-3.1,12.2c-1.8,7-2.9,10.6-1.5,11.9
		c3.4,3.5,15.3-7.6,22.6-3.5c5,2.9,4.1,11.2,6.9,11.5c2.4,0.3,5.4-5.5,7.3-11.9c6.9-23.2-7.3-32-4.6-58.9c0.8-7.6,3.1-17.4,1.2-31.4
		c-0.8-6-2.1-10.6-5.8-12.8c-4.3-2.6-8,0.5-13.8-2.1c-4-1.8-6-5-8.4-8.9C547.2,327.8,545.7,318.5,545.8,318.5z"/>
	<path fill="#5DBFD9" d="M488,300.9c2.4,0.2,4.9,0.3,7.3,0.6c-1.2,4.6,0.5,9,3.8,10.7c2.9,1.5,6,0.5,6.6,0.3
		c0.8,3.5,1.5,6.9,2.3,10.4c-2.1-0.2-5.2,0.2-7,2c-1.1,1.1-2.1,3.1-0.9,13c1.1,8.9,2.4,11.5,0.8,13.5c-1.1,1.4-3.7,2.4-10.2,1.1
		C489.9,335.3,488.9,318,488,300.9"/>
	<path fill="#5DBFD9" d="M297.6,416.7L297.6,416.7c7.5-1.4,12.2,0,15.3,1.5c2,1.1,2.9,2,6.6,4.1c2.9,1.5,4.7,2.3,9.2,4.1
		c11.9,4.9,12.2,5.7,12.2,6.1c0,2.4-8.6,4.4-12.7,5c-6.3,1.1-9.2,0.3-9.6,1.5c-1.1,2.8,11.6,10.2,13.3,11.2
		c12.5,7.3,20,8.1,19.9,10.7c-0.2,2.4-7.5,5.2-14.2,4.1c-7-1.2-6.6-5.7-14.8-7.6c-5.2-1.2-7.6-0.2-13.8-2.6c-2.9-1.1-4.4-1.7-6-3.2
		c-3.5-3.5-3.1-7.8-4.4-16.1c-0.5-3.2-1.4-8-3.1-13.6"/>
	<path fill="#5DBFD9" d="M306.8,466.7c2.9-1.5,5.7,4.3,16.4,8.1c10.9,4,20.3,2.6,20.3,4.1c0,0.8-3.2,1.8-9.6,4.1
		c-6.6,2.3-9,2.8-9.2,4.1c-0.2,1.5,2.9,3.4,5.7,4.1c4.7,1.2,8.7-0.9,13.5-3.2c10.1-5,19.9-9.2,20.2-8.4c0.5,0.8-11.2,4.4-14.8,14.2
		c-3.5,9.3,2.8,16.5-2,21.9c-2.4,2.8-6.1,3.1-10.7,3.5c-2.1,0.2-13,1.2-19.9-5.7c-2.8-2.8-3.8-5.7-5.8-13.2
		C306,482.4,302.5,468.8,306.8,466.7z"/>
	<path fill="#5DBFD9" d="M400.2,547.9c-0.8,5.8-2.9,8.1-4.3,12.1c-2.8,7.6,0.8,12.2,2,21.4c1.8,13.8-4.3,16.7-6.4,36.2
		c-1.1,9.2,0.3,8,0.3,26.5c0,17-1.1,29.7-3.1,52c-1.4,15.3-2.8,26.8-3.1,29.8c-1.2,9.8-3.5,28.4-7.3,48.8
		c-5.7,30-12.5,52.5-16.7,65.8c-6.9,22-16.5,49.1-30.4,79.4c16.2,5.8,32.9,13,32,18c-0.5,2.6-5.4,3.7-12.8,5.4
		c-18.7,4-24.2-0.3-43.7,2.3c-8.3,1.1-11.8,2.4-13.2,0.5c-2.4-3.4,5.4-11.2,14.2-25.1c7.6-12.1,12.1-22.8,21-44.4
		c2.9-7.2,6.9-17,11.2-30.6c1.5-5,4.1-13.3,6.6-24c5.2-22.8,2.3-23.4,6.6-41.3c4.9-19.9,10.1-25.5,6.1-33.6
		c-2.4-4.9-5.5-5.5-10.7-14.8c-0.9-1.7-7.2-13-4.6-15.3c0.8-0.6,1.8-0.3,6.1,1.1c11.8,3.7,12.7,3.8,13.8,3.5c5.2-0.9,8-8.9,9.6-14.2
		c4-11.8,3.5-22.5,2.6-30.6c-1.2-11.5-3.5-18.2-6.1-28c-8.7-33-13.2-49.4-12.7-66.8c0.2-6.7,0.9-16.5-4.6-26.5
		c-3.2-6-9.3-13-12.7-11.8c-2.4,0.9-2.8,5.4-3.1,8.1c-1.8,20.6-2.6,31-2.6,36.2c0.3,14.8-0.9,8.7-1.5,40.8
		c-0.3,16.2-0.2,23.1-2,23.4c-2.3,0.5-6.3-8.9-8.1-16.4c-1.5-6.4-1.7-12.4-1.2-19.1c1.1-11.9,3.5-17,5.8-26.8
		c1.1-4.7,4.9-23.2,2-44.4c-2.1-15.9-6.7-21.9-2.6-26.9c4.7-5.7,16.8-6,21.4-1.1c1.1,1.2,0.6,1.4,3.5,8.1c2.4,5.5,3.7,8.4,5.7,10.2
		c2.1,2.1,4.4,3.1,8.1,4.6c3.5,1.5,4,1.1,7.6,2.6c6.3,2.4,8.3,4.7,9.2,4.1c2.4-1.8-6.9-18.5-5.5-19.3c1.1-0.6,7,11.6,14.2,11.2
		c3.5-0.3,5-3.4,7.2-2.6C400.7,537.7,400.7,544.1,400.2,547.9z"/>
	<path fill="#5DBFD9" d="M381.7,960.7c-1.8,0.9-4.1-3.4-9.2-5.7c-6.6-2.9-15.8-1.7-17.9,2.6c-1.1,2,0,4.6,2,9.6
		c3.4,8.4,6.6,11,5.7,12.7c-1.4,2.4-10.1,1.2-16.8-2c-12.7-6.3-17-19.3-18-22.3c-1.8-5.5-2.8-8.3-1.5-10.9c2.1-4.6,8-3.5,39.8-4.9
		c6.4-0.3,12.8-0.6,15.4,3.2c1.4,2.1,1.5,4.9,1.5,10.4C383,957.5,383,960.1,381.7,960.7z"/>
	<path fill="#5DBFD9" d="M398,785.7c0.8-1.5,1.8-4,2.6-7.2c2-8.6,0-15.1-0.5-18.7c-1.5-9.6,5.2-13,19.9-39
		c9.8-17.4,13.9-28.3,17.3-27.5c2.8,0.6,4.3,8.3,4.6,11.8c0.5,4.4-0.3,7.5,0.5,7.6c1.7,0.5,6-13.3,8.7-12.7c2,0.3,2,7.8,2,9.2
		c0.3,27.4-6.3,44.7-6.3,44.7c-13.3,35.2-22.9,55.8-22.9,55.8c-20.5,44.5-24,49.4-30.4,68.2c-7.2,21.3-10.6,37.9-11.5,37.8
		s4.3-22.5,7.3-50c2.8-25.4,2.6-46.6,2-61.2"/>
	<path fill="#5DBFD9" d="M426.6,458c5.2,8,9.6,15.3,13.3,21.9c5,9.2,8.4,15.1,11.8,23.4c1.2,3.1,4.3,11.3,7.2,24.5
		c4.3,19.9,6.1,43.9,3.5,44.4c-2.1,0.5-7.2-16.1-15.3-42.4c-6.1-19.9-6.7-24.8-11.8-35.2c-4.6-9.6-6.6-11-12.2-24
		c-2.4-5.5-4.4-10.4-5.7-10.2c-1.2,0.3-0.5,5.2-1.1,15.3c-0.6,12.2-2.1,16.7-3.1,18.8c-1.8,4.7-5.2,10.1-6.6,9.6
		c-1.4-0.5,0.5-6.4,1.1-18.8c0.3-7-0.2-8,0-21.9c0-5.5,0.2-10.1,0.3-13"/>
	<path fill="#5DBFD9" d="M630,798.6c9.6-17.6,3.8-45.7-7.8-108.7c-6.4-35-7.8-43-8.9-49.4c-2.1-13.5-5.2-32.9-8-58
		c-1.1-9.2-1.5-14.4-4.9-48.9c-2.8-27.5-4.3-41.4-12.2-50c-8.4-9-20-11.8-27.5-12.7c4,7.5,9.6,18.8,14.2,33.2
		c8.9,27.1,9.6,48.8,10.2,63.2c1.5,34.1,5.8,67.9,8.1,102c5.2,76.5,5,55.7,8.1,105.1c2.6,41,3.2,63.8,12.2,96.8
		c7.3,26.5,16.7,47.3,18.7,46.6c3.1-0.9-3.1-49.4-8.6-76.3c-0.8-4-3.1-14.7,0-27.5C625.8,805.8,628.9,800.4,630,798.6z"/>
	<path fill="#5DBFD9" d="M542.3,480.5c-2.1,0-2.6,30.9-4.1,66.2c-1.4,34-3.4,59.5-5,82.6c-2.8,36.6-4.1,54.8-7.2,77.5
		c-6.9,51.7-15.9,83.2-14.2,83.7c1.7,0.5,14.2-37.2,24.5-81.5c2.4-10.9,7.2-32.7,17.3-100.9c3.2-22.2,7.6-52.3,12.2-88.7
		c-7.6,0.8-11.3-1.4-13.3-3.1c-3.7-3.2-3.5-7.5-6.1-20.3C544.3,485.8,543.2,480.3,542.3,480.5z"/>
	<path fill="#5DBFD9" d="M622.9,409c-4.7-4.7-19.6,0.9-19.6,4c0,2.3,11.2,1.8,15.3,8.1c2.9,4.6,4,9.9,4,9.9c0,0.2,0,0.2,0,0.2
		c0,0.2,8.7,28.8,11.2,28c0.3-0.2,0.5-0.6-0.8-13.5c-1.4-15.1-1.7-17.1-3.1-19.9c-1.5-3.4-2.9-4.6-4.6-9.2
		C623.8,411.9,624.5,410.6,622.9,409z"/>
	<path fill="#5DBFD9" d="M609.5,550.7c1.8-3.5,16.2-1.8,17.1,2.6c0.6,2.6-3.5,5.4-5,6.4c-4.6,3.2-11.2,4.3-12.5,2.3
		c-0.8-1.2,0.8-2.4,0.8-6.4C609.8,552.5,608.9,551.7,609.5,550.7z"/>
	<path fill="#5DBFD9" d="M488.2,186.8c-1.7,7.8,3.7,14.5,7.2,19.9c8.3,12.7,4.4,15.9,12.7,39.8c5.2,15,7.3,15.3,19.9,41.8
		c16.5,34.9,22.5,54.1,24.5,53.5c1.8-0.6-1.4-17-5-29.8c-3.1-10.7-6.4-18.2-10.2-26.8c-22.5-50.5-22.8-51.1-24.3-55.4
		c-8.7-23.2-13.2-34.7-13.9-39.5c-0.6-4.6-1.4-11.8-4.1-12.2C492.6,177.6,489.3,182.2,488.2,186.8z"/>
	<path fill="#5DBFD9" d="M553.5,961.1c-0.6,2.9-11,0.2-15.8,6.1c-2.1,2.8-3.1,7-1.5,9.6c1.7,3.1,5.8,2.9,13.8,3.5
		c21.4,1.7,25.8,5,31,1.1c4.6-3.5,4.6-8.9,7.2-8.7c2.6,0.2,5.5,6.4,4.1,11.3c-1.5,5.7-8.1,8-10.1,8.7c-8.1,2.9-12.8-0.2-26.2-2.1
		c-19.9-2.9-20.8,2.3-30.9-2.3c-8.1-3.7-11.6-9-20-9c-1.5,0-6.3,0-10.9,2.6c-3.1,1.8-2.8,2.9-5,4c-5.5,2.9-9.9-2.8-19.4-3.1
		c-9.2-0.3-12.5,4.6-16.4,2c-2.6-1.7-2.8-6-3.1-14.2c-0.8-26-0.6-29.2,2-30.6c3.1-1.8,6.4,0.9,13.9,3.7c9.2,3.2,16.7,3.2,31.7,3.1
		c21.3-0.2,33-4.6,40.8,0.9c0.6,0.5,0.5,0.3,8.1,6.7C552.4,959.1,553.8,960.1,553.5,961.1z"/>
	<path fill="#5DBFD9" d="M424.7,147.2c-1.1,2.9,1.7,4.7,5.7,13c4.4,9.5,2.9,11.9,6.9,17.1c3.7,4.7,8.3,6.9,11.2,8.4
		c10.1,4.9,19.6,3.8,26.5,3.1c7-0.8,18.4-2.1,28.8-10.2c1.1-0.9,14.4-11.3,12.1-18.5c-1.1-3.1-4-2.9-5.4-7
		c-0.9-2.6-0.2-3.8-0.2-11.3c0-4.7,0-7.6-0.8-8c-0.8-0.2-1.4,2.6-4.4,7c-2.9,4-3.5,3.2-6.3,7.3c-1.7,2.6-2.9,5-4.3,4.9
		c-0.3,0-0.6-0.3-0.8-0.6c-1.5-2.3-1.7-5-1.7-5.8c-0.2-5.2,0.5-5.4,0-7.6c-0.5-2.8-1.7-6-2.6-5.8c-0.9,0.2-1.2,5.2-1.2,8.1
		c-0.2,5.8,0.6,6.9-0.5,9.5c-0.6,1.5-1.7,2.8-3.8,5.4c-2.3,2.6-3.4,4-4.6,4.9c-5.8,4-14.8,0-17.1-1.1c-2.6-1.1-6.1-2.8-8.9-6.6
		c-3.1-4.4-3.2-9.2-3.4-11.5c-0.2-5.7,1.7-9.2,1.1-9.5c-0.8-0.3-3.5,2.8-4.3,6.6c-0.3,1.5-0.2,2.1-0.5,6.6c-0.3,4.3-0.6,4.7-1.1,4.9
		c-1.2,0.5-3.7-2.6-5-5.4c-2.8-5.4-2.1-10.1-3.2-10.2c-0.8-0.2-1.1,1.7-2.3,3.8C431,144.1,426.1,143.7,424.7,147.2z"/>
	<path fill="#5DBFD9" d="M453.8,115.1c0.8,0.8,3.2-1.7,6.6-0.9c1.2,0.3,1.1,0.8,4.7,3.4c1.2,0.9,0.5,0.3,6.3,4
		c2,1.2,2.4,1.5,3.4,1.7c2,0.3,3.7-0.6,4.7-1.2c1.7-0.8,2.1-1.5,3.7-1.7c0.8,0,1.5,0.2,2,0.3c0.8,0.2,1.4,0.5,2.8,1.5
		c2.8,1.8,3.1,2.1,3.2,2.8c0.2,1.1-0.5,1.8-0.5,2c-1.2,1.7-3.8,1.2-4,1.8c-0.2,0.8,4.3,3.4,6.6,1.7c0.9-0.8,1.2-1.8,1.2-2
		c0.5-2.3-1.4-4.4-2.9-6.6c-4.7-6.4-5.2-11.8-6.6-11.5c-0.8,0.2-0.3,2-1.8,4c-2.3,2.9-6.6,3.1-8.6,3.2c-1.4,0-4.4,0.2-7.6-1.5
		c-5.4-2.8-5.8-7.5-8.6-7.3C455.3,108.7,452.7,114.2,453.8,115.1z"/>
	<path fill="#5DBFD9" d="M449.6,117.7c-1.8,2-1.8,4.6-1.8,5.5c0,1.7,0.5,2.9,0.9,4c0.5,1.1,1.4,3.2,2,3.1c0.5-0.2,0-2.1,0.5-5.8
		c0.3-2.1,0.8-4.1,0.8-4.3c0.6-2.6,1.4-3.8,0.9-4.1C452.2,115.7,450.6,116.6,449.6,117.7z"/>
	<path fill="#5DBFD9" d="M461.6,141.4c1.5-0.9,2.9-1.1,5.5-1.2c1.5-0.2,3.4-0.3,5.8,0c2,0.3,3.5,0.5,5.2,1.7
		c1.5,1.1,2.9,2.8,2.6,3.4c-0.5,0.6-2.8-0.9-7-1.7c-1.1-0.2-4.3-0.8-8.1-0.2c-4.7,0.8-7.2,2.8-7.6,2.1
		C457.6,144.9,459.3,142.6,461.6,141.4z"/>
	<path fill="#5DBFD9" d="M456.7,153.9c0.3-0.2,0.9-0.3,2-0.8c1.1-0.5,1.5-0.9,2-1.2c1.2-0.6,2.4-0.6,5-0.6s2.4,0.3,5,0.5
		c2.4,0.2,2.9-0.2,4.6,0.2c1.4,0.2,2.4,0.5,3.7,1.2c1.5,0.9,2.3,2.3,3.1,3.7c0.8,1.2,2.1,3.8,1.8,5.5c-1.2,5.4-25.2,8.1-28.8,0.8
		C453.6,159.9,454.7,154.7,456.7,153.9z"/>
	<path fill="#5DBFD9" d="M485.1,81.4c-0.6,0.2-2.1,0.5-3.4,2c-1.1,1.4-1.1,2.9-1.2,4.3c0,2,0.5,3.4,0.6,3.7c0.2,0.5,0.9,2.1,2.6,3.5
		c1.7,1.5,2.4,1.1,6.1,2.8c2.4,1.1,4.4,2.4,5.2,2.9c0.9,0.6,1.8,1.2,3.5,2.3c0.8,0.5,3.4,2,3.5,1.8c0.2-0.3-1.8-1.5-1.7-2.9
		c0.2-0.5,0.5-0.9,0.9-1.2c0.9-0.3,2,0.3,3.5,1.5c3.5,2.9,5,5,5.4,4.9c0.3-0.2-0.2-2.4-1.8-4.1c-1.1-0.9-1.8-1.1-2.9-2.4
		c-0.5-0.5-1.4-1.7-1.1-2.3c0.2-0.3,0.5-0.3,2-0.5c2.4,0,2.9,0.3,4,0.2c1.7-0.3,3.1-1.5,2.9-1.8c-0.2-0.5-5.2,1.7-6.4,0.2
		c-0.2-0.2-0.5-0.6-0.5-1.2c-0.2-0.6,0-1.1,0.2-1.4c0.2-0.8,0-1.5-0.5-2.8c-0.8-2.3-1.5-4.4-2.9-5.8c-2.9-2.9-5.8,0-12.8-2.8
		C488.9,81.9,487.3,81,485.1,81.4z"/>
	<path fill="#5DBFD9" d="M453,77.5c1.7-0.2,5.2-0.3,8.6,1.4c1.8,0.9,3.4,2.3,4,2.9c1.2,1.2,2,1.7,2.4,2.8c0.8,1.7,0.6,3.2,0.5,5
		c-0.2,1.7-0.5,1.8-0.8,4.1c-0.3,2.4-0.2,2.8-0.3,4.1c-0.8,3.7-3.4,6.1-3.7,6c-0.2-0.2,0.8-1.7,1.2-4.9c0.3-1.7,0.5-3.1-0.5-3.8
		c-0.3-0.3-0.9-0.5-3.1-0.2c-3.2,0.6-4,1.4-6.3,1.8c-0.3,0-1.8,0-5,0c-5.7,0-5.8-0.2-7,0c-2.6,0.3-3.7,0.8-4,0.5
		c-0.3-0.6,1.1-2.3,2.8-2.8c1.1-0.3,1.8-0.2,2-0.5c0.2-0.5-0.6-1.4-1.7-1.7c-1.5-0.5-2.9,0.3-3.1,0.2c-0.2-0.2,1.8-0.6,2.8-2.3
		c0.3-0.6,0.3-1.2,0.5-2.1c0.2-2-0.5-2.6-0.3-3.7c0-0.3,0.3-1.4,2.3-2.9c1.2-0.9,3.7-2.4,7.6-3.2"/>
	<path fill="#5DBFD9" d="M482.8,82.4c-0.8,0.3-1.8,0.8-2.6,1.8c-0.5,0.8-0.6,1.5-0.9,3.2c-0.2,0.9-0.3,2-0.3,3.5
		c0.2,1.8,0.5,2.6,0.8,4.1c0.5,2.6-0.3,3.2-0.5,6.3c0,3.4,0.9,7.6,2.4,7.8c0.8,0.2,1.5-0.9,2-1.8c0.3-0.6,0.2-1.2-0.5-3.7
		c-0.8-2.8-1.1-3.7-0.8-4.6c0.3-0.8,0.9-1.2,1.2-1.5c2.6-2,6.7-0.5,7.3-0.3"/>
	<path fill="#5DBFD9" d="M524.1,94.7c0.3,0,0.3,1.4,0.9,5.8c0.5,2.9,0.6,3.7,0.2,4.9c-0.8,1.5-2.6,2.8-3.5,2.3
		c-0.8-0.5-0.5-2.4,0.5-6.4C522.6,99,523.5,94.7,524.1,94.7z"/>
	<path fill="#5DBFD9" d="M528.4,90.6c-0.2,1.5,1.4,2,2,4c1.1,2.9-0.9,5.7-0.5,5.8c0.6,0.3,3.7-3.5,5.4-8.7c0.6-2.1,1.8-6.1,0-8.1
		c-0.5-0.6-1.5-1.2-2.3-0.9c-1.2,0.5-0.6,2.3-2.1,4.7C529.6,89.4,528.6,89.4,528.4,90.6z"/>
	<path fill="#5DBFD9" d="M424.1,91.8c0.8-0.5-2.6-6-0.5-8.4c0.9-1.1,2.3-0.8,2.9-2c0.2-0.5,0.5-1.2-0.2-3.5
		c-0.5-1.5-1.5-5.8-3.2-5.8c-0.5,0-0.8,0.3-2.9,4.1c-1.5,2.4-2.1,3.8-2.3,4.3c-0.5,2.8,0.9,5,2.8,7.8
		C421.8,89.9,423.6,92.1,424.1,91.8z"/>
	<path fill="#5DBFD9" d="M429.3,50.1c1.5-3.5,6.9-4.9,10.2-5.8c4-1.2,7.5-3.7,11.2-5.5c8.9-4.3,16.4-8,16.1-9s-8.6,0.9-12.8,2.1
		c-1.7,0.5-7,2.9-17.6,7.6c-3.2,1.5-5.7,2.6-6.9,5.2c-1.4,2.8-1.2,6.6-0.8,6.6C428.8,51.3,429.2,50.5,429.3,50.1z"/>
	<path fill="#5DBFD9" d="M495.1,33.6c0,0,0.5,0.2,1.2,0.5c4.1,1.5,7,3.7,8.6,4.7c1.2,0.9,3.2,2.3,5.5,4.7c2.1,2.3,3.4,4.3,3.7,4.7
		c1.4,2.1,2,3.8,2.9,6c2.1,5,2.4,7.5,2.9,7.5c0.8-0.2,0.5-6.7,0.3-10.4c-0.3-6.3-0.8-7.3-1.1-8c-0.6-1.1-1.8-2.6-9.6-5.5
		C502.3,35.1,495.2,33.4,495.1,33.6z"/>
	<path fill="#5DBFD9" d="M528.6,50.9c-0.2,1.7-1.8,1.8-2.6,4.3c-0.5,1.4,0,2.1,0.5,5.8c0.6,3.8,0.2,3.4,0.6,6c0.8,4.6,2,5.8,1.1,7.8
		c-0.6,1.4-2.3,2.6-3.2,2.3c-1.4-0.5,0.2-4-1.1-8.4c-1.1-3.5-2.6-3.8-4-6.7c-3.1-6.3-0.5-15.6,2.9-16.4
		C525.2,44.7,528.7,48.3,528.6,50.9z"/>
</g>
<g id="vs-outline">
	<path fill="none" stroke="#000000" stroke-width="6" stroke-linecap="round" stroke-linejoin="round" stroke-miterlimit="10" d="
		M492,9.1c-6.4-2-12.1-0.9-18.4,0.3s-10.2,2.9-18.4,6.1c-10.6,4.3-13,6.4-14.1,7.3c-3.5,3.4-5.4,6.9-7.3,10.7
		c-2.6,4.9-4,9.3-4.9,12.5c2.6-2,6.1-4.7,10.7-7.3c4-2.3,10.1-5.8,18.7-8.1c9.2-2.4,16.7-2.3,18.4-2.3c8.3,0.3,14.1,2.3,25.5,6.4
		c15.4,5.5,20.5,9.8,22.2,11.2c3.7,3.2,6.1,6.4,7.6,8.7c-1.4-6.7-3.4-11.9-5-15.6c-1.4-2.9-3.2-6.6-6.6-10.7
		c-2.4-2.8-4.4-4.6-6.6-6.4c-1.1-0.9-6.3-5-14.5-9.5C495.7,10.6,493.8,9.7,492,9.1z"/>
	<path fill="none" stroke="#000000" stroke-width="6" stroke-linecap="round" stroke-linejoin="round" stroke-miterlimit="10" d="
		M428.2,46.7c-0.5,2-0.9,4.4-1.5,7.5c-2.1,10.2-2.3,11.8-2.1,13.9c0.5,6,3.7,11.3,5,11.2c0.8-0.2,0.3-2.1,1.4-6.9
		c0.3-1.7,1.4-6.3,3.8-11.5c1.4-2.9,2.1-3.5,2.8-6c0.6-2.8,0.2-4.3,0.3-6.1c0.2-2.4,0.9-6,4.7-10.2"/>
	<path fill="none" stroke="#000000" stroke-width="5" stroke-linecap="round" stroke-linejoin="round" stroke-miterlimit="10" d="
		M429.6,79.3c0.2,1.5,0.5,7.6,0.6,9.2c0.9,15.6,0.9,14.8,0.9,15.1c0.5,9.6,0,11.5,1.2,16.5c0.2,0.9,0.8,2.9,2.1,6.9
		c2.6,8,3.8,12.1,4.7,14.4c1.4,3.4,3.8,7.8,8,12.8"/>
	<path fill="none" stroke="#000000" stroke-width="5" stroke-linecap="round" stroke-linejoin="round" stroke-miterlimit="10" d="
		M450.9,147.7c0.6,1.8,2,5.2,5.2,8.4c0.8,0.8,4,3.8,9.3,5.4c1.8,0.5,9.2,2.6,15-1.2c1.5-0.9,2.8-2.3,5.4-5c1.7-1.8,3.1-3.4,4-4.4"/>
	<path fill="none" stroke="#000000" stroke-width="6" stroke-linecap="round" stroke-linejoin="round" stroke-miterlimit="10" d="
		M532.1,54.5c-0.3,4-0.3,7.3-0.2,9.5c0.2,6.7,0.9,7.8,0,11.2c-0.8,2.4-1.7,3.5-1.8,6.6c-0.2,1.8,0.2,2.6-0.3,4.4
		c-0.2,0.9-0.6,2.9-2,4.7c-2,2.8-6,4.7-7.5,3.7c-1.2-0.9-0.5-4,0.5-7.3c1.5-5.7,3.1-6.3,3.5-10.4c0.2-0.9,0.3-4-0.9-7.3
		c-0.9-2.3-1.7-2.6-2.4-4.6c-1.2-2.9-1.1-5.4-0.8-9c0.2-3.2,0.5-7.6,0.3-13.3"/>
	<path fill="none" stroke="#000000" stroke-width="5" stroke-linecap="round" stroke-linejoin="round" stroke-miterlimit="10" d="
		M520.5,94.6c0.6,2.4,0.6,4.3,0.5,5.8c-0.5,2.8-1.5,3.4-2.4,7c-0.3,1.1-0.5,2.6-0.9,5.8c-0.9,6.1-0.6,5.8-0.9,7.3
		c-0.5,2.1-2,4.9-5.2,10.4c-4.7,8.3-4.7,8.1-5,8.6c-3.5,6.6-3.2,7.8-5.5,11.3c-1.5,2.3-4,5.4-8.4,8.4"/>
	<path fill="none" stroke="#000000" stroke-width="6" stroke-linecap="round" stroke-linejoin="round" stroke-miterlimit="10" d="
		M510.4,136.7c0,1.5,0,3.2,0,5c0,3.2-0.3,6.1-0.6,9"/>
	<path fill="none" stroke="#000000" stroke-width="6" stroke-linecap="round" stroke-linejoin="round" stroke-miterlimit="10" d="
		M531.2,81.4c1.1,0.2,2.9,0.5,4.4,2c2.6,2.6,1.8,6.7,1.5,8.4c-0.5,2.8-1.7,4.6-3.1,6.6c-2.8,4.3-4.1,4-6.3,7.6
		c-1.5,2.8-2.3,5.4-2.9,7.5c-1.1,4.1-0.9,5.7-2.3,7.3c-1.5,1.8-4,2.3-5.5,2.4"/>
	<path fill="none" stroke="#000000" stroke-width="6" stroke-linecap="round" stroke-linejoin="round" stroke-miterlimit="10" d="
		M425.5,72.4c-0.8-0.3-2.4-0.8-4.1-0.3c-4.1,1.2-4.7,7-4.7,7.5c-0.3,3.5,1.2,6.4,2,8.1c1.5,2.8,2.4,3.1,3.5,5.7
		c0.2,0.3,0.2,0.5,0.3,0.8c0.6,2.3,0.8,4.1,0.8,5c0,2.3,0,5.5,0.5,8.6c0.3,2.1,0.3,3.2,0.9,4.3c1.4,2.4,4,3.4,5.4,3.8"/>
	<path fill="none" stroke="#000000" stroke-width="5" stroke-linecap="round" stroke-linejoin="round" stroke-miterlimit="10" d="
		M486,80.5c3.2-0.2,5.8,0,7.6,0.2c2.9,0.3,5.2,0.6,8,1.8c2.8,1.2,4.6,2.9,5.7,4.1"/>
	<path fill="none" stroke="#000000" stroke-width="5" stroke-linecap="round" stroke-linejoin="round" stroke-miterlimit="10" d="
		M463.3,79.3c-1.5-0.5-3.7-1.1-6.6-1.4c-3.5-0.5-5.4-0.8-7.3-0.2c-1.1,0.3-3.8,1.4-6.3,5"/>
	<path fill="none" stroke="#000000" stroke-width="5" stroke-linecap="round" stroke-linejoin="round" stroke-miterlimit="10" d="
		M486.8,88.9c0-0.3,1.2-0.5,3.7-0.9c3.8-0.8,3.8-0.9,4.7-1.1c1.1,0,4.1,0.2,7.6,3.4c-2,0.2-3.5,0.2-4.6,0.2c-2-0.2-2.1-0.3-4.7-0.6
		c-1.4-0.2-2.1-0.2-3.7-0.3C488.5,89.4,486.8,89.2,486.8,88.9z"/>
	<path fill="none" stroke="#000000" stroke-width="5" stroke-linecap="round" stroke-linejoin="round" stroke-miterlimit="10" d="
		M464.6,87.6c-0.8-0.9-2.3-2.3-4.7-3.4c-2.3-0.9-4.1-0.9-5.2-0.9c-3.4,0-5.8,1.1-7.3,2c0.9,0,2.4,0.2,4.3,0.5
		c2.4,0.5,3.4,1.1,4.9,1.4c1.5,0.3,3.8,0.3,6.9-0.9"/>
	<path fill="none" stroke="#000000" stroke-width="5" stroke-linecap="round" stroke-linejoin="round" stroke-miterlimit="10" d="
		M462.8,104.4c-0.3,0.2-2.1,1.2-2.8,3.5c0,0.2-0.5,2.1,0.8,3.8c0.5,0.8,0.8,0.6,2.8,2c0.6,0.5,1.5,1.2,2.6,2.1c2,2,1.7,2.3,2.8,2.9
		c2,1.2,4.6,0.3,6.1-0.3c0,0,1.2-0.6,3.5-1.8c1.7-0.9,2.6-1.4,3.4-2c0.6-0.6,1.4-1.2,1.8-2.4c0.6-1.8-0.2-3.4-0.5-3.7"/>
	<path fill="none" stroke="#000000" stroke-width="4" stroke-linecap="round" stroke-linejoin="round" stroke-miterlimit="10" d="
		M485.7,111.3c1.1,1.4,1.8,2.6,2.3,3.4c1.2,2.4,1.1,3.4,2.4,5.2c0.8,0.9,0.8,0.8,2.3,2.6c1.5,1.8,1.8,2.6,2,3.4
		c0.3,0.9,0.2,1.8,0.2,2.4"/>
	<path fill="none" stroke="#000000" stroke-width="4" stroke-linecap="round" stroke-linejoin="round" stroke-miterlimit="10" d="
		M458.7,108.1c-0.5,0.6-1.4,1.7-2.6,2.9c-1.8,2.1-2.8,2.8-4.7,4.9c-1.8,2-2.8,2.9-3.2,3.8c-1.2,2.3-1.2,4.7-1.1,6.4"/>
	<path fill="none" stroke="#000000" stroke-width="5" stroke-linecap="round" stroke-linejoin="round" stroke-miterlimit="10" d="
		M452.2,123.5c2.3,1.7,4.4,2.6,5.8,3.2c4.6,1.7,9.2,1.8,12.7,2c0.9,0,1.8,0,3.5,0.2c3.1,0.2,3.4,0.5,5.5,0.5c2.3,0,4.4-0.2,4.7-0.3
		c0.8-0.2,1.7-0.3,3.2-0.5c0.9,0,1.7-0.2,2.1-0.2"/>
	<path fill="none" stroke="#000000" stroke-width="5" stroke-linecap="round" stroke-linejoin="round" stroke-miterlimit="10" d="
		M456.8,126.7c1.8,1.2,4.7,3.1,8.7,4.1c1.4,0.3,4,0.9,7.3,0.9c5-0.2,9.2-1.5,11.6-2.8"/>
	<path fill="none" stroke="#000000" stroke-width="6" stroke-linecap="round" stroke-linejoin="round" stroke-miterlimit="10" d="
		M435.4,133c-0.9,3.1-2.3,8.9-0.5,15.3c1.5,5.8,4.7,9.6,7.2,12.2c0.9,1.1,3.5,3.8,12.2,9.5c8.4,5.4,12.5,8.1,15.6,8.7
		c10.2,2.1,19.1-3.1,23.4-5.5c4.1-2.4,8.1-4.7,10.7-9.5c3.4-6,2-11.3,4.1-11.9c2-0.6,3.4,4.3,9.9,11c2.3,2.4,9.9,9.9,21.7,14.1l0,0
		c22.8,10.1,23.6,8.6,33.2,14.2c6.4,3.8,14.2,8.6,21,16.4c6.1,7.2,8,13.2,15.3,42.8c8.7,35.2,9.3,40.5,14.2,52.5
		c5.4,12.8,8,19.4,10.7,24c5.8,9.5,11.9,16.1,9.6,19.4c-1.1,1.7-4.1,1.8-8.7,2c-4.1,0.2-7.5-0.5-9.6-1.1"/>
	<path fill="none" stroke="#000000" stroke-width="6" stroke-linecap="round" stroke-linejoin="round" stroke-miterlimit="10" d="
		M433,140.5c-3.2,1.8-8,4.4-13.8,7.8c-34.7,19.6-32.3,18.7-36.4,20.6c-24.6,12.2-30.7,8.9-45.1,19.9c-9.2,7-14.7,14.7-17.3,18.4
		c-9.9,14.7-12.4,28.9-13.5,34.1c-3.8,20.5-13.9,55.1-32.6,109.7c2.1,0.3,5.4,0.9,9.2,2c7,2.1,10.7,4.6,12.2,3.1
		c1.1-0.9,0.2-2.6,0-6.1c-0.3-4.3,0.6-7,1.5-11.2c2.1-9.5,2.8-19.3,5.7-33.2c2.9-14.5,5.7-21.7,11.8-41.3
		c3.7-11.8,8.7-29.1,14.2-50.5"/>
	<path fill="none" stroke="#000000" stroke-width="6" stroke-linecap="round" stroke-linejoin="round" stroke-miterlimit="10" d="
		M346,196.9c-1.7,6.7-4.1,17-6.6,29.5c-4.3,21.3-5.7,33.8-8.1,49.4c-2.1,13.3-5.7,32.6-11.8,56.1c0.6,1.5,1.5,3.8,3.1,6.6
		c1.7,2.9,2.6,4,2.6,5.7c-0.2,3.2-4,5.4-4.6,5.7c-4.9,2.8-8.4-0.3-14.8,1.1c-2.4,0.5-5.8,1.7-9.6,5"/>
	<path fill="none" stroke="#000000" stroke-width="6" stroke-linecap="round" stroke-linejoin="round" stroke-miterlimit="10" d="
		M319.5,332.1c2.3-0.2,5.7-0.2,9.6,0c7.3,0.3,8.6,1.1,9.2,2c1.1,1.8-1.1,3.4-0.5,7.2c0.6,3.2,2.6,5.2,3.1,5.7
		c3.1,2.9,7.3,3.1,9.2,3.1c26.3,0.3,31.7-0.5,31.7-0.5c16.8-2.8,28.9-4.7,42.4-6.1c17.1-1.7,16.1-0.2,28-2
		c7.3-1.1,15.3-2.8,27.1-2.6c3.7,0,6.7,0.3,8.7,0.5"/>
	<path fill="none" stroke="#000000" stroke-width="5" stroke-linecap="round" stroke-linejoin="round" stroke-miterlimit="10" d="
		M425.2,144.9c2.3,7.2,5.4,17,9.5,28.6c10.2,29.4,19.7,50.9,26.5,66.2c6.9,15.8,15.9,35,27.1,57c1.4-3.4,3.5-8.7,5-15.3
		c2.4-9.5,2.4-15.9,3.1-22.5c1.4-15.8,4.9-28.8,9.6-47c2.8-10.2,3.4-15.8,4.6-22.5c2.3-11.8,3.8-21.4,4.9-28.3"/>
	<path fill="none" stroke="#000000" stroke-width="6" stroke-linecap="round" stroke-linejoin="round" stroke-miterlimit="10" d="
		M452.1,168.5c1.4,6.4,2.9,12.8,4.3,19.3c-0.2,3.2-0.3,7.6-0.2,12.7c0,0,0.3,13.2,2.3,24.9c1.5,9.2,3.7,14.5,11.9,35
		c14.2,35.5,15.9,40.7,17.1,48.8c2,12.7,1.1,23.2,0,30.1"/>
	<path fill="none" stroke="#000000" stroke-width="5" stroke-linecap="round" stroke-linejoin="round" stroke-miterlimit="10" d="
		M488,300.9c2.4,0.2,4.9,0.3,7.3,0.6c0.6,3.5,1.4,7.2,2,10.7c4.1,0.2,8.1,0.3,12.2,0.5c-0.5,3.4-1.1,6.7-1.5,10.2
		c-2.9,0.9-5.8,1.7-8.7,2.6c0.5,8.7,1.1,17.3,1.5,26c-3.4,0.3-6.7,0.6-10.2,1.1c-1.1-6.7-2.1-13.6-3.2-20.3"/>
	<path fill="none" stroke="#000000" stroke-width="6" stroke-linecap="round" stroke-linejoin="round" stroke-miterlimit="10" d="
		M495.8,187.7c1.2,4.6,2.8,9.3,4.6,14.2c4.4,12.4,8.9,20.8,11.2,25.5c5.5,11.2,3.4,8.7,16.4,39.3c17.6,41.8,19,39.6,19.9,48.5
		c1.1,9.5,0.2,18,6.6,24c4,3.8,9.6,5.4,16.4,7.2c6.3,1.7,11.2,2.1,15.8,2.6c5.8,0.5,11.2,0.9,18.4,0c5-0.6,9-1.8,13.3-3.1
		c4.4-1.2,8.1-2.6,10.7-3.5"/>
	<path fill="none" stroke="#000000" stroke-width="6" stroke-linecap="round" stroke-linejoin="round" stroke-miterlimit="10" d="
		M298.1,354.3c-3.2,10.4-3.5,17.7-3.1,22.6c0.3,4,1.2,8.3-1.1,12.7c-1.4,2.6-3.1,3.8-3.1,6.6c0,2.9,1.7,4.3,3.1,7.2
		c2.1,4.6,1.2,8.6,1.1,12.2c-0.3,5.4,1.4,12.4,5,26.5c3.8,14.8,5.5,15.4,6.6,24.5c1.1,8.1,0,10.2,0.5,17.3
		c0.5,7.2,2.4,17.4,9.2,29.5c2-1.8,5-4.7,8.7-8.7c5.5-6,6.6-8.1,10.7-11.8c3.8-3.4,7.2-5,11.2-7.2c6.7-3.5,11.3-6,16.8-6.6
		c12.8-1.7,20.8,7.3,23.4,4.6c2.1-2.3-3.1-8.3-8.1-22.9c-4.9-14.2-2-14.4-6.6-24c-3.7-7.6-7.3-11.5-7.6-18.8c-0.2-6,0-9.2,0-9.2
		c0.3-6,1.2-7.5,0-9.2c-2.3-3.2-7.3-0.8-9.6-3.5c-0.8-0.9-1.8-3.1,2-13.3c3.7-9.9,6.3-12.1,8.1-18.8c0.9-3.2,1.8-8,1.5-14.2"/>
	<path fill="none" stroke="#000000" stroke-width="6" stroke-linecap="round" stroke-linejoin="round" stroke-miterlimit="10" d="
		M316.4,513.5c2,1.7,5.5,4,10.2,5c9.9,2.4,18.2-1.8,20.3-3.1"/>
	<path fill="none" stroke="#000000" stroke-width="6" stroke-linecap="round" stroke-linejoin="round" stroke-miterlimit="10" d="
		M332.3,496.5c3.4,4,6.1,7.5,8,9.9c5.8,7.6,8.9,11.5,11.2,16.8c2.6,5.7,1.5,6,4.1,10.7c2.1,4,6.1,11.3,12.2,11.8
		c2.3,0.2,4.3-0.8,5.7-1.5c1.5,1.7,3.8,4,7.2,6.1c1.8,1.1,7.3,4.6,9.2,3.1c1.7-1.5-1.4-6.9,0-7.6c2-1.2,7.2,4.1,7,4.3
		c0,0-0.3,0-0.5-0.2c0-0.5,2.6-0.3,3.8-1.8c1.2-1.5,0.6-4.1,0.3-5.8c0-0.2-0.2-0.9-0.6-1.8c-0.6-1.7-1.4-2.9-2-3.7"/>
	<path fill="none" stroke="#000000" stroke-width="6" stroke-linecap="round" stroke-linejoin="round" stroke-miterlimit="10" d="
		M387.2,484c3.8,5.5,6.3,10.4,7.6,13.8c1.5,3.7,1.2,3.7,4.6,12.7c1.4,3.8,2.4,6.7,4.6,12.7c2.4,7,3.2,9.5,2,11.2
		c-1.4,1.8-4.1,2.1-6.1,2.1"/>
	<path fill="none" stroke="#000000" stroke-width="6" stroke-linecap="round" stroke-linejoin="round" stroke-miterlimit="10" d="
		M398.3,506.9c6,0,9.6,3.2,9.5,5.7c-0.2,1.8-2.6,3.8-5.7,4.7"/>
	<path fill="none" stroke="#000000" stroke-width="6" stroke-linecap="round" stroke-linejoin="round" stroke-miterlimit="10" d="
		M380.7,503.9c2.4,4.9,5,9.9,8.1,15.3c3.7,6.4,7.5,12.2,11.2,17.4"/>
	<path fill="none" stroke="#000000" stroke-width="6" stroke-linecap="round" stroke-linejoin="round" stroke-miterlimit="10" d="
		M369.5,516.1c2.6,4.7,5.7,9.6,9.2,14.8c3.8,5.5,7.6,10.4,11.2,14.8"/>
	<path fill="none" stroke="#000000" stroke-width="6" stroke-linecap="round" stroke-linejoin="round" stroke-miterlimit="10" d="
		M360.8,521.7c4.3,7.5,8.6,15,12.7,22.5"/>
	<path fill="none" stroke="#000000" stroke-width="6" stroke-linecap="round" stroke-linejoin="round" stroke-miterlimit="10" d="
		M574.4,349.4c-1.2,1.8-2.9,4.9-4.6,8.7c-2.3,5.4-3.7,8.6-3.1,12.2c0.6,4.4,3.2,4.1,4.6,9.2c1.7,5.8-1.2,7.3,0,13.8
		c1.1,5,3.1,5.4,5,11.2c1.4,3.8,1.4,6.7,1.5,13.3c0.3,17,0,24.2,0.5,33.6c0.3,5.2,0.8,9.3,1.1,11.8c-4.1,2.4-10.6,5.5-18.8,7.6
		c-14.1,3.5-25.5,1.8-30.9,1.1c-10.1-1.5-67.9-9.6-67.9-9.6c-19.4-4.3-48.2-10.4-86.7-18"/>
	<path fill="none" stroke="#000000" stroke-width="6" stroke-linecap="round" stroke-linejoin="round" stroke-miterlimit="10" d="
		M365.4,364.2c5,2.8,12.8,6.7,22.5,10.7c22.6,9.3,41.4,13,58.6,16.4c11.2,2.1,4.1,0.3,44.4,6.1c27.7,4,39.2,6,55.5,3.5
		c9.6-1.4,17.3-3.8,22.5-5.7"/>
	<path fill="none" stroke="#000000" stroke-width="6" stroke-linecap="round" stroke-linejoin="round" stroke-miterlimit="10" d="
		M645.7,346.9c-4.6,3.1-8.6,4.7-11.2,5.7c-6.6,2.1-10.6,1.8-18.4,4.6c-3.2,1.1-5.7,2.3-7.2,3.1"/>
	<path fill="none" stroke="#000000" stroke-width="6" stroke-linecap="round" stroke-linejoin="round" stroke-miterlimit="10" d="
		M605,348.9c3.7,7.5,6.3,13.9,8.1,18.8c2.9,7.5,4.3,11.3,5,15.8c1.1,5.7,0.5,7.2,2,12.7c1.2,4,2.1,5.4,2.6,9.2c0.5,4-0.3,5,0.5,7.6
		c1.1,3.8,3.5,5,5.7,7.6c3.5,4.6,2.4,8.7,3.1,20.3c0,0,0.5,8.1,2,18.4c1.7,10.7,4,15.3,7.2,26c2.1,7,4.7,17.4,6.6,30.6
		c-4.6,0.2-9.2,0.3-13.8,0.5"/>
	<path fill="none" stroke="#000000" stroke-width="5" stroke-linecap="round" stroke-linejoin="round" stroke-miterlimit="10" d="
		M584.5,422.8c2-0.2,5.4,0,8.7,1.5c1.1,0.5,2.4,1.4,5.7,4.1c1.2,1.1,5.4,4.7,7.6,7.6c4.7,6,3.8,11.3,6.1,20.3
		c2.1,8.4,4,8.3,8.1,18.8c5.8,14.8,2.4,15.9,8.1,34.7c3.2,10.4,6,15.8,6.6,26.5s-1.5,13.6-3.1,14.8c-3.7,3.1-10.1,2-16.4,1.1
		c-3.4-0.6-6.3-1.4-8.1-2"/>
	<path fill="none" stroke="#000000" stroke-width="5" stroke-linecap="round" stroke-linejoin="round" stroke-miterlimit="10" d="
		M602.4,438.1c0.5,3.7,1.1,9,2,15.3c1.5,9,2.1,13.6,4.1,19.4c2.9,8.7,4.4,8.3,7.2,16.8c2.6,8.3,1.8,10.6,4.1,18.8
		c1.2,4.4,3.5,10.9,7.6,18.4"/>
	<path fill="none" stroke="#000000" stroke-width="5" stroke-linecap="round" stroke-linejoin="round" stroke-miterlimit="10" d="
		M594.3,438.1c3.8,13.9,5.7,25.2,6.6,33.2c0.6,4.9,1.1,10.7,3.1,18.8c0.8,2.9,2.4,9.3,5.7,17.3c4.9,12.1,7.3,18,11.8,22.5
		c1.8,1.8,4.6,4.1,5.7,8.1c0.8,3.2,0.2,6.1-0.5,8.1"/>
	<path fill="none" stroke="#000000" stroke-width="6" stroke-linecap="round" stroke-linejoin="round" stroke-miterlimit="10" d="
		M640.2,516.4c-1.7,6-3.2,11.8-4.9,17.7"/>
	<path fill="none" stroke="#000000" stroke-width="6" stroke-linecap="round" stroke-linejoin="round" stroke-miterlimit="10" d="
		M629.3,552.8c-0.6,1.7-2.1,4.4-4.9,6.6c-6.4,4.9-14.2,2.9-15.3,2.6"/>
	<path fill="none" stroke="#000000" stroke-width="5" stroke-linecap="round" stroke-linejoin="round" stroke-miterlimit="10" d="
		M579.5,463c4.1,4.1,9.8,10.9,14.2,20.3c1.8,3.7,3.5,8.1,7.2,22.5c3.8,15.1,5.8,22.6,6.6,29.5c2.3,17.7-1.1,25.1-2,42.4
		c-0.5,8.4-0.2,15.1,6.1,52.5c7,42.5,12.2,68.4,12.2,68.4c4.9,24.2,11.3,55.7,19.4,92.8c-3.7,0.8-9,2.6-13.3,7.2
		c-7.6,8.1-6.7,20-6.1,27.5c0.6,8.3,4.1,61.2,4.1,61.2c1.8,12.1,4.7,31.8,8.1,57c-15.4,1.2-38.1,2.6-65.3,3.1
		c-53.5,0.9-84.7,1.2-122.3-8.1c-16.2-4.1-39.5-11.3-66.2-25.5c2.3-8.7,5.8-21.1,11.2-35.6c4.7-13,9.2-22.8,20.3-47
		c22.5-48.2,21-43.1,24.5-52c2.8-6.9,11.6-30.7,17.3-63.2c3.7-20.6,4.4-36.4,5-47.9c1.4-24.9,0.5-46.5-1.1-63.2"/>
	<path fill="none" stroke="#000000" stroke-width="6" stroke-linecap="round" stroke-linejoin="round" stroke-miterlimit="10" d="
		M326.7,518.7c2.6,17.7,3.8,39,1.5,62.7c-0.8,7.5-1.8,14.7-3.1,21.4c-3.2,12.2-8,29.8-13.3,50.9c-14.8,58.6-22.2,87.8-27.5,117.3
		c-11.3,61.5-7.6,76.5-23.4,109c-9.9,20.3-21.4,35.5-29.5,44.8c3.7,4.3,10.4,10.9,20.3,15.3c2.8,1.2,8.7,3.7,22.5,5
		c10.6,1.1,17,0.8,35.6,0c31.5-1.2,32.6-0.9,39.8-2c13.2-2.1,23.6-5.5,30.6-8.1c0.6-7.2,1.4-14.2,2-21.4"/>
	<path fill="none" stroke="#000000" stroke-width="5" stroke-linecap="round" stroke-linejoin="round" stroke-miterlimit="10" d="
		M391.4,609.8c0.3,10.7,0.5,24.2,0,39.8c-0.8,30.3-3.2,55.1-5,71.4c-2.9,24.5-6.7,55.5-17.3,94.8c-8.7,32.1-18.7,57.7-24.5,72.3
		c-5,12.8-9.8,23.7-13.3,31.7c22.9,13.6,34.4,20.2,34.7,19.9c0.2-0.2-5.4-3.8-16.4-10.7"/>
	<path fill="none" stroke="#000000" stroke-width="6" stroke-linecap="round" stroke-linejoin="round" stroke-miterlimit="10" d="
		M380.2,935.1c1.4,8.7,2.4,15.8,3.1,20.3c2.3,15.4,2.8,19.6,0,23.4c-3.5,4.9-9.9,5.7-13.3,6.1c-11.5,1.5-20.8-4.6-24.5-7.2
		c-15.6-10.4-20.2-27.5-21.6-33.2"/>
	<path fill="none" stroke="#000000" stroke-width="6" stroke-linecap="round" stroke-linejoin="round" stroke-miterlimit="10" d="
		M448.4,939.3c0.8,2.9,1.7,7.6,2,13.3c0.5,6.9-0.5,9.9,0,18.4c0.5,8.4,0.6,12.5,3.1,14.2c3.7,2.6,7.2-2,16.4-2
		c10.1,0,13,5.5,19.4,3.1c5-1.8,4.6-5.7,9.2-7.2c6.1-1.8,11.3,3.5,18.4,7.2c6.4,3.2,8.3,2.1,32.6,4.1c29.5,2.4,35.3,4.7,39.8,0
		c4.4-4.7,4.6-13.8,1.1-18.4c-2.8-3.5-6.3-2.1-18.4-6.1c-4.6-1.5-10.4-3.4-16.4-7.2c-5.8-3.7-9.8-7.8-12.2-10.9"/>
	<path fill="none" stroke="#000000" stroke-width="5" stroke-linecap="round" stroke-linejoin="round" stroke-miterlimit="10" d="
		M560.7,470.7c2.1,1.5,4.9,3.8,8.1,6.6c2.4,2.1,9.9,9,14.8,16.8c3.7,6.1,5.2,11.8,7.2,25.5c2.9,20.8,3.5,37,3.5,38.7
		c0.6,15.8,2,31.7,2.6,47.4c1.2,30.6,3.8,55.2,7.6,91.3c3.7,34.7,9.8,81.2,19.9,137"/>
	<path fill="none" stroke="#000000" stroke-width="5" stroke-linecap="round" stroke-linejoin="round" stroke-miterlimit="10" d="
		M455.2,187.1c2.9,1.1,7,2.1,11.9,2.6c7.5,0.8,13.3-0.2,15-0.5c6.3-1.2,11.2-3.4,14.5-5.2c-0.2-4.3-0.2-8.6-0.3-13"/>
</g>
<g id="vs-h-reveal">
	<path fill="none" stroke="#2E2B2C" stroke-width="100" stroke-miterlimit="10" stroke-opacity="0" d="M517.2,51.3
		c-26.3-3.8-53.1-4.7-79.5-2.4c-4.6,3.2-3.1,11,1.4,14.4c4.4,3.4,10.6,3.5,16.1,3.5c17,0,34,0.2,50.8,0.2c5.8,0,12.1,0.2,17.1,3.1
		c5,2.9,8.6,9.6,6,14.8c-2.4,4.7-8.6,6.1-13.9,6.9c-28.4,3.8-57.5,3.2-85.8-1.7c0.5,14.4,16.1,23.7,30.3,25.2
		c14.2,1.5,28.9-1.8,43,0.5c6.9,1.1,15,6.1,13.5,12.8c-1.4,6.1-9.3,7.6-15.6,8c-20.5,0.9-41,1.8-61.5,2.6
		c-1.1,9.9,10.9,16.5,20.8,16.1c9.9-0.5,19.6-4.9,29.5-4.3c9.9,0.6,20.6,10.2,16.5,19.3c-42.1-2.8-84.6,0.6-125.6,10.1
		c-6,1.4-13.3,4.4-13.5,10.6c-0.2,7.2,9.3,9.9,16.5,10.4c59.8,3.7,120.1,2.1,179.5-4.4c13.2-1.5,31.5,0.6,32.7,13.8
		c1.2,12.8-15.6,18.5-28.4,19.1c-80.6,4.1-161.2-15.8-241.8-10.6c-9.5,0.6-21.1,3.4-23.4,12.5c-1.7,6.9,3.2,13.9,9.6,17.1
		c6.4,3.1,13.8,3.2,20.8,3.2c85.3,0.2,170.7,0.3,256,0.5c7.6,0,16.8,0.8,20.6,7.5c3.5,6.1,0.2,14.2-5.5,18.4
		c-5.7,4.1-13,5.2-19.9,6.1c-23.1,2.6-46.3,3.2-69.6,3.8c-64.7,1.7-130.5,3.4-193.3-12.7c-9.3-2.4-20.2-4.7-27.5,1.4
		c-9,7.6-5,23.6,4.7,30.4c9.8,6.7,22.5,6.9,34.3,6.9c94.1-0.5,188-1.1,282-1.5c2.3,0,4.6,0,6.6,0.9c6.4,2.9,6.1,13,0.9,17.9
		c-5.2,4.9-12.7,5.7-19.7,6.3c-90.5,7.6-181.5,8.3-272.2,2c-13.8-0.9-30.9-0.2-36.6,12.4c-4.4,9.8,1.8,21.7,11,27.2
		c9.2,5.5,20.3,6.3,31,6.7c80.6,3.2,161.5-4.1,240.3-21.7c11.2-2.4,25.2-4,31.5,5.5c4.6,7.2,1.5,17.3-4.9,23.1
		c-6.4,5.8-15,8.1-23.2,9.9c-74.6,16.5-152.2,8.7-228.6,10.6c-11,0.3-22.3,0.8-32.4,5.4c-10.1,4.6-18.5,14.1-18.7,25.1
		c0,4.1,1.2,8.4,4.7,10.7c2.3,1.5,5.2,1.8,8,2.1c69.1,6.7,139.2,4,207.5-8c31.5-5.5,62.9-13.2,94.8-15c10.4-0.6,23.2,0.9,27.1,10.7
		c4.9,12.7-10.7,23.2-23.6,27.7c-94.4,32.3-196.4,42.1-295.3,28.6c-8.9,14.1-17.9,28.1-26.8,42.2c16.5,10.4,37.3,11,56.9,10.9
		c73.4-0.8,146.7-7.5,218.9-20.2c9.2-1.5,19-3.2,27.5,0.3c8.6,3.5,14.8,14.5,9.9,22.5c-3.7,6-11.5,7.6-18.4,8.6
		c-60.7,9.2-122.2,18.4-183.1,11.5c-23.1-2.6-47.1-7.3-69.1,0.2c-10.1,3.5-20.5,12.4-18,22.6c2.3,9.3,13.3,13,22.8,14.7
		c31.4,5.5,63.5,5.8,95.3,6c26.9,0.2,54.4,0.2,80.1-7.8c26.8-8.4,55.5-25.4,80.8-13.3c9.9,4.7,18,15.9,14.7,26.5
		c-2.9,8.9-12.5,13.3-21.4,16.5c-44.4,15.8-92.1,21.4-138.9,16.5c-50.9-5.4-102.8-22.8-152.2-9.5c-4.1,6.9-1.2,16.4,4.6,21.9
		c5.8,5.5,13.8,8.1,21.6,10.4c47.1,13.9,97.1,23.1,145.1,13.2c36.4-7.5,70-25.5,106.7-31.4c9.8-1.5,20.2-2.1,29.2,1.8
		c9,4,16.4,13.5,15,23.2c-1.1,7-6.1,12.7-11.6,17.1c-13.6,11.5-30.3,18.7-47.3,23.9c-69.9,21.4-145.4,11.2-216.6-5.7
		c-9.5-2.3-19.4-4.6-29.1-3.1s-19.3,8.3-21,17.9c-1.7,9.6,5,19.4,13.6,24.2s18.8,5.8,28.6,6.6c76.9,6.7,156.9,11.3,229.1-16.2
		c11-4.1,22-9.2,33.8-9.8s24.8,4.1,29.8,14.7c6.3,13-2.3,29.2-14.7,36.6s-27.5,8-41.9,8.4c-24.5,0.8-49.1,1.5-73.6,2
		c-79.1,1.2-158.3-1.8-237.1-9c-3.5,11.6,4.9,24.2,15.8,29.7c10.9,5.5,23.6,5.8,35.6,5.8c95.7,0.9,191.6,1.8,287.4,2.8
		c6.1,0,16.2,1.1,22.2,1.5c1.8,12.4-11.6,21.4-23.4,25.7c-50.6,19-106.4,19.1-160.3,13.8S336,858.8,281.9,857
		c-4.3-0.2-8.9-0.2-12.8,1.8c-9.3,4.7-9.9,19-3.4,27.4c6.4,8.3,17.1,11.9,27.2,14.5c71.9,19,147.6,13.3,221.9,10.7
		c28.1-1.1,56.4-1.5,84.4,2.3c7.8,1.1,15.9,2.6,22,7.5c6.1,4.9,9.8,13.9,6,20.8c-18.5,6.4-38.4-1.4-57.4-6
		c-20.8-4.9-42.4-5.7-63.8-6.4c-91.8-3.5-183.4-8.9-274.5-19.7c-6,7.3-2.6,19,4.7,24.9c7.3,6,17,7.6,26.3,9
		c54.1,7.8,109,9.6,163.6,5.4c5.2,3.8,3.2,12.5-2,16.2c-5.2,3.7-12.1,3.8-18.4,3.7c-15.1-0.2-30.4-0.3-45.6-0.5
		c-3.5,0-7.3,0.2-9.6,2.8c-4.9,5.8,4.1,13.3,11.6,14.8c57.8,13,116.2-16.5,175.3-21.9c6.4-0.6,15.4,2,14.1,8.3
		c-4.3,6.7-13.9,6.4-21.7,7.2c-8,0.9-17.4,7.6-13.9,14.8c2.4,4.9,9,5.5,14.5,5.4c10.7-0.3,22-0.8,30.9-6.7c5-3.4,8.9-8.3,13.6-12.1
		s11-6.6,16.8-4.6c5.7,2,8.7,10.6,4.1,14.4"/>
</g>
</svg>
