<?xml version="1.0" encoding="utf-8"?>
<!-- Generator: Adobe Illustrator 25.2.1, SVG Export Plug-In . SVG Version: 6.00 Build 0)  -->
<svg version="1.1" xmlns="http://www.w3.org/2000/svg" xmlns:xlink="http://www.w3.org/1999/xlink" x="0px" y="0px" width="1000px"
	 height="1000px" viewBox="-329.9 -292 1000 1000" enable-background="new -329.9 -292 1000 1000" xml:space="preserve">
<g id="Layer_2">
	<g>
		<g>
			<path fill="#B59615" d="M327,348c-6.9,17.3-28.5,30.5-46.9,29.7c-5.5-0.2-5.5,8.3,0,8.5c22.5,0.9,46.8-15.1,55.1-36
				C337.2,345.2,329,343,327,348L327,348z"/>
		</g>
	</g>
	<g>
		<g>
			<path fill="#B59615" d="M326.3,348.1c-9.3,15.5-29.1,20.3-41.2,33.1c2,2,4,4,6,6c11-12.9,28.4-17.5,42.2-26.5
				c4.6-3,0.6-9.7-4.3-7.3c-16.5,8.1-35,12.9-49.6,24.4c-4.3,3.4,1.8,9.4,6,6c13.9-11,32.1-15.4,47.8-23.1c-1.4-2.4-2.9-4.9-4.3-7.3
				c-14.4,9.4-32.4,14.3-43.9,27.8c-3.5,4.1,2.2,10,6,6c12.8-13.5,32.6-18.3,42.6-34.8C336.4,347.7,329.1,343.4,326.3,348.1
				L326.3,348.1z"/>
		</g>
	</g>
	<g>
		<g>
			<path fill="#B59615" d="M336.5,340.2c-10.1,18.1-36.3,15.2-49.2,30.9c-3.4,4.2,2.5,10.2,6,6c6.8-8.2,17.2-10.9,26.8-14.6
				c9.7-3.8,18.5-8.7,23.7-18C346.5,339.7,339.1,335.4,336.5,340.2L336.5,340.2z"/>
		</g>
	</g>
	<g>
		<g>
			<path fill="#B59615" d="M283.9,379c-15.3,17.7-30.3,36.4-39.6,58.1c-9.7,22.3-11.7,46.4-3.3,69.5c1.9,5.2,9.1,3.1,8.2-2.3
				c-4.2-24.8-5.2-50,0-74.8c1.1-5.3-7.1-7.6-8.2-2.3c-4.6,21.7-2.4,44,1.1,65.7c0.8,4.8,8.4,3.6,8.3-1.1c0-14.7-1.1-29.4-1.1-44.2
				c0-5.5-8.3-5.4-8.5,0c-1.1,27.8,5.5,56.6,14.9,82.7c2.7-0.8,5.5-1.5,8.2-2.3c-5.9-15-14.7-28.6-21.9-42.9c-2.2-4.3-9-1.3-7.8,3.3
				c6,21.6,21.1,39,28.3,60c2.4-1.4,4.7-2.8,7.1-4.1c-9.2-11.6-16.7-24.5-25.4-36.5c-3.2-4.5-9.5-0.7-7.3,4.3
				c6.9,15.8,17.1,29.9,24.9,45.3c2.4-1.4,4.9-2.9,7.3-4.3c-8-10.4-14.8-21.6-21.5-32.8c-1.9,1.9-3.9,3.9-5.8,5.8
				c17.2,11,29.7,27.5,45.6,40.1c3.7,2.9,9-0.6,6.7-5.1c-8.9-17.3-24.3-30.2-40-41.2c-1.4,2.4-2.9,4.9-4.3,7.3
				c11.1,6.8,20.6,15.8,31.7,22.7c4.7,2.9,8.7-4.2,4.3-7.3c-8.6-6.2-17.5-12.5-28.2-14c-3.2-0.5-7.2,2.8-4.8,6.2
				c8.2,11.8,20.6,20,33.2,26.4c4.9,2.5,8.8-4.2,4.3-7.3c-8.5-5.9-18.7-10.6-29.3-9.6c-3.7,0.3-6.4,6.1-2.1,7.9
				c14.6,6.2,29.1,14.8,45,17.1c15.3,2.2,28.8-6,43.2-9.9c-0.8-2.7-1.5-5.5-2.3-8.2c-12.4,4.1-25.9,2.3-38.3-1.1
				c-12.5-3.4-24.6-8.5-35.5-15.5c-4.6-2.9-8.9,4.4-4.3,7.3c11.9,7.6,25.3,13.3,39,16.8c13.3,3.4,28,5.1,41.3,0.7
				c5.2-1.7,3.1-9.6-2.3-8.2c-13,3.4-26,11.8-39.8,9.7c-14.8-2.2-28.3-10.3-41.9-16c-0.7,2.6-1.4,5.3-2.1,7.9
				c9.3-0.8,17.6,3.3,25,8.5c1.4-2.4,2.9-4.9,4.3-7.3c-11.2-5.7-22.9-12.9-30.2-23.4c-1.6,2.1-3.2,4.2-4.8,6.2
				c10,1.4,18.1,7.4,26.2,13.2c1.4-2.4,2.9-4.9,4.3-7.3c-11.1-6.8-20.6-15.8-31.7-22.7c-4.7-2.9-8.7,4.2-4.3,7.3
				c14.5,10.1,28.7,22.1,37,38.1c2.2-1.7,4.4-3.4,6.7-5.1c-16.4-13.1-29.4-30-47.3-41.4c-3.6-2.3-8,2.2-5.8,5.8
				c6.7,11.2,13.5,22.4,21.5,32.8c3.3,4.2,9.9,0.7,7.3-4.3c-7.8-15.4-18-29.5-24.9-45.3c-2.4,1.4-4.9,2.9-7.3,4.3
				c9.1,12.6,17.1,26,26.7,38.2c2.6,3.3,8.4-0.3,7.1-4.1c-7.3-21-22.4-38.5-28.3-60c-2.6,1.1-5.2,2.2-7.8,3.3
				c6.9,13.7,15.4,26.6,21.1,40.9c2,5,10.1,3,8.2-2.3c-9.1-25.4-15.7-53.3-14.6-80.4c-2.8,0-5.7,0-8.5,0c0,14.7,1.1,29.4,1.1,44.2
				c2.8-0.4,5.6-0.8,8.3-1.1c-3.3-20.1-5.4-41-1.1-61.2c-2.7-0.8-5.5-1.5-8.2-2.3c-5.6,26.3-4.5,52.9,0,79.3
				c2.7-0.8,5.5-1.5,8.2-2.3c-7.9-22-5.9-44.7,3.7-65.8c9.1-19.8,22.9-37.1,37.1-53.5C293.5,380.8,287.5,374.8,283.9,379L283.9,379z
				"/>
		</g>
	</g>
	<g>
		<g>
			<path fill="#B59615" d="M286.2,553.7c10,8.2,27.1,15.6,37.7,4.5c3.8-3.9-2.2-9.9-6-6c-7,7.2-19.4,0.7-25.7-4.5
				C288,544.2,281.9,550.2,286.2,553.7L286.2,553.7z"/>
		</g>
	</g>
	<g>
		<g>
			<path fill="#B59615" d="M278.2,380.1c-14.5,18.1-27.8,37.4-35.1,59.6c-1.7,5.2,6.5,7.4,8.2,2.3c6.8-20.8,19.4-38.9,32.9-55.9
				C287.6,381.9,281.6,375.8,278.2,380.1L278.2,380.1z"/>
		</g>
	</g>
	<g>
		<g>
			<path fill="#B59615" d="M261.7,399.1c-13.3,17.9-23,38.3-22.1,61c0.2,5.4,8.7,5.5,8.5,0c-0.9-21.3,8.5-40,20.9-56.7
				C272.3,399,264.9,394.7,261.7,399.1L261.7,399.1z"/>
		</g>
	</g>
	<g>
		<g>
			<path fill="#B59615" d="M246.6,426.1c-4.3,17.3-8.6,34.8-8.2,52.8c0.2,9.7,2.2,19.5,4.7,28.9c2.7,10.4,6.1,21,11.5,30.3
				c4.1,7,10,14.3,18.8,14.6c5.5,0.2,5.5-8.3,0-8.5c-6.8-0.2-11.2-9.4-13.7-14.5c-4.2-8.7-7-18.1-9.3-27.4c-2-8.3-3.6-16.7-3.6-25.3
				c0-16.6,4-32.7,8-48.6C256.1,423.1,247.9,420.8,246.6,426.1L246.6,426.1z"/>
		</g>
	</g>
	<g>
		<g>
			<path fill="#B59615" d="M238.6,452.2c-6.6,28.2,7.9,60.7,25.3,82.2c9.7,11.9,22.6,21.2,37.8,24.3c15.7,3.2,31.7,0.5,47.4-1.4
				c5.4-0.7,5.4-9.2,0-8.5c-14.3,1.8-29.4,4.6-43.8,2c-14-2.5-25.6-10.5-34.6-21.3c-8.7-10.5-15.4-23-19.9-35.8
				c-4.3-12.4-7.2-26.2-4.1-39.2C248.1,449.1,239.9,446.9,238.6,452.2L238.6,452.2z"/>
		</g>
	</g>
	<g>
		<g>
			<path fill="#BCBCBC" d="M-66.6-175.5c-0.9-0.6-1.7-0.6-2.7-0.8c-4-0.9,0.6,1.6,0.1,0c-1,1.7-2,3.5-3,5.2c1.9-0.4,4.8-0.7,6.2,1.1
				c0.4,0.6,0.5,3,0.4,2.9c-0.1-0.1,2.1-0.9,2-0.7c0-0.1-3.2-3.1-3.4-3.3c-1.4-0.8,0.3-1.2-0.7,0.2c-0.8,1.1-0.5,0.2,0,0.4
				c0.8,0.3,2.1,0.2,3.1,0.5c0.6,0.2-0.1,0.2,0-0.7c-0.1,0.9-1.6,3.6-2.8,4c-2.4,0.8-5.4-2.3-7.2-3.7c-1.3-1-2.6-2.1-4-3
				c-3-1.9-1.3-1.4-0.9,0.6c-0.4,1.4-0.7,2.8-1.1,4.1c-1.6,2-2.9,0.4-1,1.1c0.9,0.3,2.2,0.4,3.1,0.6c1.1,0.2,2.1,0.5,3.2,0.8
				c2.2,0.6,1.8,1.3,0.6-0.6c-0.1-1.1-0.3-2.2-0.4-3.3c0.7-4.1,3.9-2.4,2.4-2.7c-0.9-0.2-1.9,0.2-2.8,0.5c-1.6,0.6-4.1,3.4-5.9,3.1
				c0,2.7,0,5.5,0,8.2c8.3-3.4,20.1-5.1,22.2-15.4c-1.4,1-2.7,2.1-4.1,3.1c3,0.1,6.3,0.2,9.2,1c0-2.7,0-5.5,0-8.2c0,0-0.1,0-0.1,0
				c-5.4,1-3.1,9.1,2.3,8.2c0,0,0.1,0,0.1,0c4.2-0.8,3.9-7.2,0-8.2c-3.6-0.9-7.7-1.2-11.4-1.3c-1.8,0-3.7,1.3-4.1,3.1
				c-1.3,6.3-11.2,7.4-16.3,9.5c-3.4,1.4-4.6,7.4,0,8.2c5.1,0.9,6.9-1.8,11.3-3.4c-0.9,0.3,1.8-0.1,2.1-0.2c1.6-0.5,2.8-1.5,3.3-3.1
				c1.5-5.3-5.7-6.7-9.3-7.4c-3.6-0.8-11.6-2.7-11.7,3.5c0,3,2.4,4,4.5,5.3c3.4,2.2,6.2,5.2,9.9,7c13.4,6.4,25-16.3,8.9-19.4
				c-4.6-0.9-10.6,0.6-11.4,5.9c-0.9,5.5,6,13.1,11.3,13.5c6.2,0.5,8.5-6.8,7.3-11.7c-2-8-10.1-9.6-17.2-8.3c-2.3,0.4-3.5,3.2-3,5.2
				c0.6,2.3,1.5,4.7,3.7,5.9c0.8,0.4,1.8,0.6,2.7,0.7c0.5-0.1,1.1-0.1,1.6-0.2c1.2-0.2,0.7-0.3-1.5-0.4
				C-66.1-165.4-61.9-172.8-66.6-175.5L-66.6-175.5z"/>
		</g>
	</g>
	<g>
		<g>
			<path fill="#BCBCBC" d="M-65.6-160.7c15.4,22,27.9,45.8,43,68c3.1,4.5,10.4,0.2,7.3-4.3c-15.1-22.2-27.6-46-43-68
				C-61.4-169.4-68.7-165.1-65.6-160.7L-65.6-160.7z"/>
		</g>
	</g>
	<g>
		<g>
			<path fill="#BCBCBC" d="M-56.5-150.5c22.2,47.7,49.3,93.1,78.1,137c2.4-1.4,4.9-2.9,7.3-4.3C18.6-32,6.4-44.9-4.2-59
				c-5.5-7.4-10.9-15-15.2-23.1c-3.3-6.3-6.3-13.4-5.4-20.7c-2.4,1-4.8,2-7.3,3C0.8-72.3,15.6-30,40.9,3.6c2.2-1.7,4.4-3.4,6.7-5.1
				C26.2-27.7,2.9-55.9-5.7-89.2c-2.4,1.4-4.7,2.8-7.1,4.1c20.5,25.9,34,56.7,49,85.8C52,31.4,74.5,58,88.4,89.6
				c2.2,5,9.5,0.7,7.3-4.3c-14.2-32.1-37-59.2-53-90.4c-15.1-29.4-28.9-60-49.6-86c-2.8-3.5-8.1,0.3-7.1,4.1
				c9,34.8,33.2,64.1,55.5,91.3c3,3.7,9.6-1.3,6.7-5.1C22.5-34.9,7.4-77.9-26.1-105.8c-3-2.5-6.8-0.7-7.3,3c-2,16.5,11,33.6,20.2,46
				c11,14.9,23.9,28.4,34.8,43.4c3.2,4.3,10.4,0.4,7.3-4.3C0.1-61.7-27-107-49.2-154.7C-51.5-159.7-58.8-155.4-56.5-150.5
				L-56.5-150.5z"/>
		</g>
	</g>
	<g>
		<g>
			<path fill="#BCBCBC" d="M11.4-44C29.3-7.6,58.7,21.4,78.2,56.8c2.6,4.8,10,0.5,7.3-4.3C66,17.2,36.6-11.9,18.8-48.3
				C16.4-53.2,9-48.9,11.4-44L11.4-44z"/>
		</g>
	</g>
	<g>
		<g>
			<path fill="#BCBCBC" d="M35.9-14.4C44.2,12.6,62,34.8,77.3,58c8.4,12.7,15.7,26.2,23.6,39.2c8.8,14.4,17.6,28.8,26,43.4
				c2.7,4.7,10.1,0.5,7.3-4.3c-8.1-14.1-16.6-27.9-25-41.7c-8-13.1-15.4-26.6-23.7-39.5c-15-23.1-33.3-45-41.4-71.8
				C42.5-21.9,34.3-19.7,35.9-14.4L35.9-14.4z"/>
		</g>
	</g>
	<g>
		<g>
			<path fill="#BCBCBC" d="M104.3,94.2c11.6,17.4,24,34.4,35.1,52.1c2.9,4.6,10.3,0.4,7.3-4.3c-11.1-17.7-23.5-34.7-35.1-52.1
				C108.6,85.4,101.2,89.6,104.3,94.2L104.3,94.2z"/>
		</g>
	</g>
	<g>
		<g>
			<path fill="#BCBCBC" d="M88.4,79.4c15.9,29.2,38.4,54.5,52.1,84.9c2.2,5,9.6,0.7,7.3-4.3c-13.7-30.5-36.2-55.7-52.1-84.9
				C93.2,70.4,85.8,74.6,88.4,79.4L88.4,79.4z"/>
		</g>
	</g>
	<g>
		<g>
			<path fill="#BCBCBC" d="M104.7,96.3c-10,5.2,3,25.3,6.2,31c8.6,15.7,18.4,30.6,28.3,45.4c3.5,5.2,7,10.3,10.4,15.5
				c2.4-1.4,4.9-2.9,7.3-4.3c-14.8-21.8-27.5-45.7-33.5-71.5c-2.4,1.4-4.7,2.8-7.1,4.1c14,17.9,19.9,40.5,31.8,59.7
				c14.4,23.3,29.5,46.5,45.7,68.6c2.2-1.7,4.4-3.4,6.7-5.1c-11.1-13.5-22.2-27.1-31.6-41.9c-9.1-14.4-17.3-30.6-18.1-48
				c-2.4,1-4.8,2-7.3,3c27,29.7,39.5,69.2,59.4,103.3c2.2-1.7,4.4-3.4,6.7-5.1c-24.8-29.6-39.1-66.2-54.8-101.1
				c-2.4,1.4-4.9,2.9-7.3,4.3c19.9,38.9,30.5,83.1,58.4,117.5c3,3.7,9.6-1.3,6.7-5.1c-26.9-35-57.9-70.5-68.7-114.5
				c-2.6,1.1-5.2,2.2-7.8,3.3c14.8,23.7,24,50.4,39.2,73.9c14,21.7,32.6,40.7,43.5,64.3c2.2-1.7,4.4-3.4,6.7-5.1
				c-20-15.9-29.7-39.8-36.3-63.8c-2.6,1.1-5.2,2.2-7.8,3.3c22.5,30.7,34.9,67.3,56.6,98.5c2.2-1.7,4.4-3.4,6.7-5.1
				c-17.2-19.9-32.4-45.4-36.3-71.7c-2.4,1.4-4.7,2.8-7.1,4.1c20.1,21.5,34.2,49.2,45.3,76.3c2.6-1.1,5.2-2.2,7.8-3.3
				c-20.3-30.6-36.9-63.5-50.5-97.5c-2.6,1.1-5.2,2.2-7.8,3.3c15.4,22.4,33.2,43.9,43.7,69.2c2.4-1.4,4.7-2.8,7.1-4.1
				c-27.2-30.8-45.7-68-66.2-103.3c-2.2,1.7-4.4,3.4-6.7,5.1c20.4,25.5,34.3,55.3,49.8,83.8c3.8,6.9,7.4,13.8,12.1,20.2
				c4.4,6.1,9.2,12,13.9,17.9c9.8,12.2,20.2,24.7,26.2,39.3c0.7-1.6,1.3-3.2,2-4.8c-4.4,2.2-9,4-13.7,5.2c1.4,0.4,2.8,0.7,4.1,1.1
				c-7.5-9.7-15.7-19.5-20.4-31c-2.4,1.4-4.7,2.8-7.1,4.1c9.1,7.1,15,17.1,19.7,27.5c2.2-1.7,4.4-3.4,6.7-5.1
				c-12.4-10.4-20.5-24.5-27.7-38.8c-2.2,1.7-4.4,3.4-6.7,5.1c10.9,10,19,22.3,27.7,34.3c3.1,4.3,10.2,0.5,7.3-4.3
				c-6.6-10.8-14.3-21-18.8-33c-2.4,1.4-4.7,2.8-7.1,4.1c8.2,9.4,14,20.5,20.9,30.9c2.2-1.7,4.4-3.4,6.7-5.1c-3.6-3.8-6-8.1-8-12.8
				c-2.4,1.4-4.7,2.8-7.1,4.1c4.9,5.1,8.6,11,11.8,17.3c2.4-1.4,4.9-2.9,7.3-4.3c-3.5-4.7-6.8-9.3-9.1-14.7
				c-2.2,1.7-4.4,3.4-6.7,5.1c4,4,7.7,7.9,10.7,12.7c2.9,4.6,10,0.5,7.3-4.3c-11-19.8-22.5-39.4-34-58.9c-2.3-4-9.7-1.3-7.8,3.3
				c7.1,16.9,23.5,28.6,28.3,46.4c1.4,5.3,9.6,3,8.2-2.3c-4.9-18.2-21.2-29.4-28.3-46.4c-2.6,1.1-5.2,2.2-7.8,3.3
				c11.5,19.5,23,39.1,34,58.9c2.4-1.4,4.9-2.9,7.3-4.3c-3.4-5.4-7.5-10-12-14.5c-3.7-3.7-8.5,1-6.7,5.1c2.3,5.4,5.6,10.1,9.1,14.7
				c3.2,4.3,9.9,0.7,7.3-4.3c-3.5-6.9-7.7-13.4-13.1-19c-2.8-2.9-8.8,0.1-7.1,4.1c2.5,6.2,5.5,11.7,10.2,16.6
				c3.3,3.4,9.4-1.1,6.7-5.1c-7.3-11-13.5-22.6-22.2-32.6c-2.7-3.1-8.6,0.2-7.1,4.1c4.8,12.7,12.7,23.5,19.7,35
				c2.4-1.4,4.9-2.9,7.3-4.3c-9-12.5-17.5-25.5-29-36c-3.6-3.3-8.8,0.8-6.7,5.1c7.5,14.8,16.1,29.7,29,40.5c3.8,3.2,8.7-0.7,6.7-5.1
				c-5-11-11.5-21.7-21-29.2c-2.8-2.2-9-0.3-7.1,4.1c5.4,12.9,14.1,23.8,22.6,34.7c0.9,1.2,2.8,1.4,4.1,1.1
				c5.4-1.5,10.7-3.6,15.7-6.1c1.5-0.7,2.6-3.2,2-4.8c-6-14.5-15.4-26.9-25.2-39.1c-5.3-6.7-10.8-13.2-15.8-20.1
				c-4.6-6.4-8.3-13.3-12.1-20.2c-15.9-29.2-30.2-59.5-51.1-85.6c-3.1-3.8-9,1.1-6.7,5.1c20.9,36,39.8,73.6,67.5,105.1
				c2.7,3,8.7-0.2,7.1-4.1c-10.9-26.1-28.7-48.1-44.6-71.2c-2.5-3.7-9.7-1.5-7.8,3.3c13.9,34.7,30.7,68.3,51.4,99.5
				c2.5,3.7,9.7,1.4,7.8-3.3c-11.7-28.5-26.4-57.3-47.5-80c-3.2-3.4-7.7,0.3-7.1,4.1c4.1,27.7,20.4,54.6,38.5,75.5
				c3.1,3.6,9.4-1.2,6.7-5.1c-21.7-31.2-34.1-67.8-56.6-98.5c-2.7-3.7-9.1-1.7-7.8,3.3c7,25.2,17.4,50.8,38.5,67.6
				c3.8,3,8.8-0.6,6.7-5.1c-10.9-23.6-29.4-42.6-43.5-64.3c-15.2-23.5-24.4-50.2-39.2-73.9c-2.6-4.1-8.9-1.5-7.8,3.3
				c10.9,44.8,42.1,80.8,69.5,116.5c2.2-1.7,4.4-3.4,6.7-5.1c-27.3-33.7-37.6-77.7-57.1-115.8c-2.5-4.9-9.5-0.6-7.3,4.3
				c16.1,35.7,30.8,72.5,56.2,102.8c3.1,3.8,9-1.1,6.7-5.1c-20.3-34.9-33.1-74.7-60.7-105.1c-2.4-2.7-7.4-0.6-7.3,3
				c1.7,37.1,29.8,68.6,52.2,95.9c3,3.7,9.5-1.3,6.7-5.1c-16.4-22.4-32.2-45.9-46.4-69.8c-11.7-19.6-18.2-42-32.4-60.2
				c-2.8-3.6-8,0.4-7.1,4.1c6.2,26.5,19.2,51.1,34.4,73.5c3.1,4.5,10.4,0.3,7.3-4.3c-9.4-14.1-19-28-27.9-42.5
				c-5.3-8.6-10.5-17.2-14.9-26.3c-1.5-3.1-3-6.2-3.9-9.5c-0.3-1.2-0.3-2.4-0.5-2.8c0,0.1-0.3-0.3,0.1-0.4c0.3-0.1-1.6,1.6-0.8,1.3
				C113.8,101.1,109.5,93.8,104.7,96.3L104.7,96.3z"/>
		</g>
	</g>
	<g>
		<g>
			<path fill="#BCBCBC" d="M268.5,359.4c-1.5,3-2.8,5.5-2.8,8.9c0,2.2,2,4.4,4.2,4.2c1.7-0.1,3.2-0.7,4.8-1.2
				c0.8-0.3,1.7-0.5,2.6-0.8c0.4-0.1,0.8-0.2,1.2-0.3c0.2-0.1,0.5-0.1,0.7-0.1c-0.6,0.1-0.7,0.1-0.2,0.1c3.8-0.1,5.5-4.5,3-7.3
				c-0.4-0.5-0.4-1-0.4-1.6c-0.2-1.6-0.5-2.8-1.2-4.3c-0.9-2.1-4-2.6-5.8-1.5c-2.2,1.3-2.4,3.7-1.5,5.8c0.1,0.2,0,0.4,0.1,0.8
				c0.1,0.8,0.2,1.6,0.3,2.3c0.4,1.8,1.3,3.2,2.5,4.5c1-2.4,2-4.8,3-7.3c-1.9,0.1-3.8,0.6-5.7,1.2c-0.8,0.2-1.6,0.5-2.4,0.8
				c-0.3,0.1-0.7,0.2-1,0.3c-0.5,0.1-1.6,0.2,0,0.1c1.4,1.4,2.8,2.8,4.2,4.2c0,0.2,0.2-1.6,0.1-1.2c0.1-0.3,0.1-0.6,0.3-0.9
				c-0.1,0.3-0.1,0.3,0,0c0.4-0.9,0.9-1.7,1.4-2.6c1-2,0.5-4.6-1.5-5.8C272.4,356.8,269.6,357.4,268.5,359.4L268.5,359.4z"/>
		</g>
	</g>
	<g>
		<g>
			<path fill="#BCBCBC" d="M-68-183.9c-3.3-3.2-7.3-4.6-11.3-1.9c-2.9,1.9-5.6,4.3-7.4,7.2c-2.6,4.3-2.9,10,0.9,13.7
				c3.8,3.7,9.6,3.7,14.1,1.6c6.7-3.1,10.4-9.9,12.7-16.5c1-2.9-1.6-5.1-4.1-5.4c-8.5-1-15,5.4-21.1,10.3c2.4,1.4,4.7,2.8,7.1,4.1
				c0.4-1.2,1.2-4.1,2.7-4.3c1.3-0.2,2.9,1.9,3.8,2.8c3.6,4.1,9.6-1.9,6-6c-3-3.4-7.4-6.3-12.2-4.9c-4.7,1.4-7.1,5.8-8.5,10.2
				c-1.4,4.4,4.1,6.6,7.1,4.1c4.4-3.5,9-8.5,15.1-7.8c-1.4-1.8-2.7-3.6-4.1-5.4c-1.3,3.8-3.3,7.9-6.7,10.3c-1.1,0.7-2.3,1.3-3.6,1.4
				c-0.5,0.1-1.6-0.2-1.7-0.2c-0.6-0.3-0.8-0.5-1-0.9c0,0,0-0.7-0.1-0.5c0,0,0-0.5,0.2-1.1c0.4-1.1,1.4-2.2,2.3-3.2
				c0.7-0.7,1.5-1.3,2.4-2c0.5-0.4,1.4-0.5,0.8-0.7c-1-0.3,0.7,1.1,0.6,1C-70.1-174.1-64.1-180.1-68-183.9L-68-183.9z"/>
		</g>
	</g>
	<g>
		<g>
			<path fill="#BCBCBC" d="M381.9,566.3c-6.6-3.4,4.1-17.2,9.6-8.9c3.7,5.6,3.1,15.8-0.9,21.1c-5.6,7.5-11.3-0.3-12.3-6.5
				c-0.8-5.2-0.3-18.7,6.6-20.3c7-1.7,8,13.1,8,17.2c0,4.4-1.8,19.2-9.5,15.8c-6-2.6-1.9-13.6,0.2-17.5c2.6-4.7,9.7-12.2,14.7-5.8
				c4.9,6.2,3.8,17.9,1.1,24.8c-1.1,2.7-2.9,6.2-6.1,6.8c-3.7,0.7-6.8-1.9-8.6-4.8c-4.5-7.4-4.3-18-2.7-26.2
				c0.7-3.6,1.7-7.5,4.1-10.4c1.8-2.3,5.4-5.9,8.7-4.8c3.2,1,4.9,5.7,5.9,8.5c1.6,4.5,2.3,9.3,2.5,14c0.1,4.3-1.2,22.2-8.8,18.7
				c-7.6-3.6-11.3-17.1-11-24.6c0.3-7.1,5.5-19.7,14-12.9c8,6.4,8.7,18.3,4.3,26.8c-0.5,0.9-1.9,4.2-3.3,4.3c0.8,0-0.1-0.5-0.6-0.9
				c-2.4-2.9-3.1-7.7-3.4-11.3c-0.4-4.5-0.2-9.4,1.6-13.7c1.1-2.8,4.8-8.8,8.3-9.2c0.2,0,0.1-0.2,0.6,0.4c0.8,1,1.1,2.6,1.4,3.8
				c0.8,3.5,0.7,7.3,0.1,10.8c-0.5,2.8-1.2,6-3.5,7.9c2,0,4,0,6,0c-7.4-7.8-9.7-25,0.3-31.8c-1.9-0.5-3.9-1-5.8-1.5
				c1.6,3.2,3.6,6.6,3,10.3c2.6-0.3,5.2-0.7,7.8-1c-1.4-2.2-2.2-4.4-3-6.9c-2.4,1.4-4.7,2.8-7.1,4.1c14.9,12.5,11.3,35.8,0,49.5
				c2.4,1.4,4.7,2.8,7.1,4.1c2.2-9.2,6.9-17.7,10.1-26.6c2.8-7.9,6.4-18.7,1.9-26.6c-4.7-8.2-17.2-8.3-24.7-4.5
				c-9.8,5-16.8,16-20.4,26.1c-4,11.2-3.4,25.3,8.8,30.8c2.8,1.3,6.5-0.2,6.4-3.7c-0.2-5.6-1.7-12-7.3-14.4
				c-5.5-2.4-10.9,0.6-14.6,4.7c2.2,0.3,4.4,0.6,6.7,0.9c-5.6-10.3,1.6-20.9,8.6-28.4c7-7.4,15.2-13.6,23.8-19
				c4.2-2.7,1.4-8.6-3.3-7.8c-9.1,1.5-17,7.1-18.8,16.6c-1,5.3,7.2,7.6,8.2,2.3c1.3-6.7,6.5-9.5,12.9-10.6c-1.1-2.6-2.2-5.2-3.3-7.8
				c-17.9,11.5-48.9,34.3-35.5,59c1.3,2.3,4.8,2.8,6.7,0.9c1.2-1.3,3.2-3.6,5.2-3c2.2,0.7,2.3,5.1,2.3,6.8c2.1-1.2,4.3-2.4,6.4-3.7
				c-16.9-7.7-0.4-35,10.1-41.4c4.2-2.6,13.5-3.9,15.1,2.2c1.8,6.8-2.1,15.5-4.5,21.7c-2.9,7.7-6.9,15.3-8.9,23.3
				c-0.9,3.8,4.3,7.6,7.1,4.1c14-17,18.7-45.9,0-61.5c-3-2.5-8.5-0.2-7.1,4.1c1,3.2,2,6.1,3.8,8.9c1.8,2.8,7.1,2.8,7.8-1
				c1-6.3-1.1-11.3-3.8-16.9c-1-2-4-2.8-5.8-1.5c-14.6,10-13.4,33.1-2,45.2c1.7,1.8,4.3,1.4,6,0c7.8-6.4,8.2-22.8,4.2-31.2
				c-6.7-13.9-21.2-0.8-24.9,8.3c-2.7,6.7-2.9,14.3-1.6,21.3c0.9,5.3,3,12.1,8,15c5.4,3.1,10.5-0.9,13.4-5.4
				c4.2-6.7,5.9-14.7,4.5-22.5c-2-11.2-13.8-26.6-26.6-19.4c-6.4,3.6-9.6,11.9-10.6,18.8c-1,7.2,0.8,14.8,3.8,21.3
				c2.6,5.8,6.8,12.3,13.1,14.6c6.4,2.3,12-1.4,15.2-6.9c6.9-11.5,5.5-28.5,0-40.3c-2.4-5.1-6.3-10.1-12.2-10.8
				c-6.6-0.8-12.8,4.1-16.4,9.2c-7.1,10.1-7.6,26.5-4.3,38c1.7,5.9,5,11.7,10.7,14.5c5.6,2.7,12.3,2.1,16.9-2.2
				c8.9-8.5,10.1-25.6,5.7-36.5c-5-12.5-19.3-13.2-27.7-3.5c-6.6,7.7-12.3,23.4-4.2,32c3.9,4.1,10.6,5.3,15.5,2.5
				c5.5-3,8.2-9.5,9.3-15.4c1.9-10.1,1-29.1-11.1-33c-13.8-4.5-19.9,13.7-20,24c-0.1,11.3,7.1,27,21,21.4
				c11.4-4.6,13.8-21.2,10.2-31.6c-1.7-5.1-5.2-9.7-10.7-10.9c-7-1.6-13.8,2.7-16.8,8.9c-3.1,6.3-2.5,14.7,4.3,18.2
				C382.5,576.1,386.8,568.8,381.9,566.3L381.9,566.3z"/>
		</g>
	</g>
	<g>
		<g>
			<path fill="#BCBCBC" d="M408.2,542.5c-9.9,4.5-20.2,11.2-25.3,21.2c-5.5,10.9-2.1,21.7,5.2,30.7c2.2,2.7,7.7,0.6,7.3-3
				c-1.1-8.5-1.5-16.9-5.1-24.8c-1.1-2.4-5-2.8-6.7-0.9c-6.5,7.2-5.8,16.6-6.9,25.7c2.6-0.7,5.3-1.4,7.9-2.1
				c-1.4-2.4-3.1-4.4-4.5-6.8c-2-3.5-8.2-2.2-7.9,2.1c0.3,4.5,2,8.4,4,12.3c1.6,3.1,5.6,2.3,7.3,0c3.9-5.2,7.1-10.4,8.4-16.9
				c1.1-5.3-7.1-7.6-8.2-2.3c-1.2,5.8-4,10.2-7.5,14.8c2.4,0,4.9,0,7.3,0c-1.3-2.5-2.6-5.2-2.8-8c-2.6,0.7-5.3,1.4-7.9,2.1
				c1.4,2.4,3.1,4.4,4.5,6.8c2.3,4,7.4,1.8,7.9-2.1c0.8-6.4-0.2-14.5,4.4-19.6c-2.2-0.3-4.4-0.6-6.7-0.9c2.9,6.4,3,13.6,4,20.5
				c2.4-1,4.8-2,7.3-3c-5.9-7.4-7.4-15.9-1.8-23.9c4.9-6.9,12.6-11.4,20.2-14.8C417.5,547.6,413.2,540.3,408.2,542.5L408.2,542.5z"
				/>
		</g>
	</g>
	<g>
		<g>
			<path fill="#BCBCBC" d="M421.4,553c0.1-5.4,0.7-10.5-0.2-15.9c-2.4,1.4-4.7,2.8-7.1,4.1c7.3,5.9,5.1,16.2,1.9,23.7
				c-3.7,8.9-10.2,17.8-18.6,22.7c-7.2,4.2-17.1,2.2-20.8-6c-3.2-6.9,0.3-15.5,5.1-20.8c6.1-6.9,14.6-9.2,21.1-1.5
				c3.5,4.2,9.5-1.9,6-6c-17.5-20.7-45.6,5.8-41.4,27.2c2.2,11.5,14.8,20,26.3,17.7c12.5-2.5,22.4-14.5,27.9-25.2
				c5.9-11.3,10.1-28.4-1.5-37.7c-3.4-2.7-7.8-0.2-7.1,4.1c0.7,4.5,0,9-0.2,13.6C412.8,558.4,421.3,558.4,421.4,553L421.4,553z"/>
		</g>
	</g>
	<g>
		<g>
			<path fill="#4F4F4F" d="M322,437.9c-5.9-1.7-12.9-7.2-9.9-14.1c-1.9,0.5-3.9,1-5.8,1.5c10,4.9,14.5,18.7,13.8,29.2
				c1.8-1.4,3.6-2.7,5.4-4.1c-6.5-1.6-11.5-8.9-14.6-14.3c-2.6-4.4-7.4-13.7-2.8-18.2c-2,0-4,0-6,0c6.5,5.9,11,15.3,9.1,24.2
				c2.1-0.8,4.2-1.7,6.2-2.5c-9.8-6.8-17.6-17.9-16-30.3c-1.4,1.4-2.8,2.8-4.2,4.2c8.1,0.4,12.5,10.2,12.7,17.3
				c1-1.4,2.1-2.7,3.1-4.1c-6.3,1.9-14.8-6.6-15.4-12.5c-0.8-9.2,12.4-6.2,7.9-1.1c2,0,4,0,6,0c-3.1-2.5-5.2-5.2-4.6-9.5
				c-1.4,1-2.7,2.1-4.1,3.1c3.4-0.1,6.8-0.9,10.2-1.1c4.6-0.3,6-7.2,1.1-8.3c-5.1-1.2-10.6-2.3-15.9-2.4c0.7,2.6,1.4,5.3,2.1,7.9
				c2-1.6,4.5-2.5,6.5-4.1c3.8-3-1.1-9.2-5.1-6.7c-17.2,11-9.8,34.6-3.2,49.6c7.7,17.8,18.6,35.6,31.8,49.9c3.2,3.5,9.6-1.2,6.7-5.1
				c-9.9-13.4-16.3-28.9-24.9-43c-2.2,1.7-4.4,3.4-6.7,5.1c21.6,23,32.7,53.8,55.5,75.9c3.3,3.2,9.6-1.1,6.7-5.1
				c-5.9-8.2-12.3-15.9-17-24.9c-2.2,1.7-4.4,3.4-6.7,5.1c8.5,8.6,15.3,18.5,22,28.6c2.6,3.9,9,1.5,7.8-3.3
				c-0.3-1.2-0.8-2.2-1.1-3.4c-2.4,1.4-4.7,2.8-7.1,4.1c0.8,0.8,1.5,1.5,2.3,2.3c1.7,1.7,4.3,1.5,6,0c3.4-3.1,8.3-4.3,12.9-4.4
				c-0.4-2.8-0.8-5.6-1.1-8.3c-7.4,1.3-14.4,3.8-20,9c-3.2,3,0.2,8.1,4.1,7.1c6.9-1.7,11.2-6.9,13.9-13.3c1.4-3.4-0.9-7-4.8-6.2
				c-5.2,1-11.1-3.8-14.8-6.8c-7-5.8-13.1-12.7-18.6-19.8c-9.6-12.3-20.2-26.7-24.8-41.8c-2.6,1.1-5.2,2.2-7.8,3.3
				c16.1,21.8,34.3,42.8,44.9,68.1c2.6-1.1,5.2-2.2,7.8-3.3c-21-29.1-46.6-58-53.9-94.1c-2.6,1.1-5.2,2.2-7.8,3.3
				c21.4,28.7,37.8,60.8,53.2,92.9c2.4-1.4,4.9-2.9,7.3-4.3c-18.1-30.7-35.6-62.1-46-96.4c-2.6,1.1-5.2,2.2-7.8,3.3
				c19.1,31.7,34,65.7,51,98.5c2.2,4.2,9.5,1.3,7.8-3.3c-13.7-36.1-37.2-68.3-45.3-106.5c-2.7,0.8-5.5,1.5-8.2,2.3
				c8.2,30.9,28.1,56.6,39.6,86.1c2.6-1.1,5.2-2.2,7.8-3.3c-16.8-28-34.8-55.6-43.7-87.3c-2.6,1.1-5.2,2.2-7.8,3.3
				c21.5,33,38.4,68.8,55.5,104.2c2.4-1.4,4.9-2.9,7.3-4.3c-12.4-24.9-23.6-50.5-35.1-75.9c-2.4,1.4-4.9,2.9-7.3,4.3
				c14.8,24.1,27.7,49.6,34.7,77.1c2.6-1.1,5.2-2.2,7.8-3.3c-14.3-25.2-24.3-52.8-32.4-80.5c-2.6,1.1-5.2,2.2-7.8,3.3
				c10.4,24.1,22.5,47.3,35.1,70.2c2.6,4.8,9.9,0.5,7.3-4.3c-8.6-16.4-13.9-34.4-22.9-50.6c-8.3-15.1-21.4-26.5-26.5-43.5
				c-2.7,0.8-5.5,1.5-8.2,2.3c1.5,3.6,3.9,5.9,6.1,8.9c3.2,4.4,10.6,0.1,7.3-4.3c-1.6-2.2-4.2-4.4-5.2-6.9c-2-4.9-9.8-3.1-8.2,2.3
				c2.5,8.3,6.4,15.8,11.3,22.8c5.1,7.1,10.9,13.6,15.2,21.2c9.5,16.6,14.9,35.2,23.7,52.1c2.4-1.4,4.9-2.9,7.3-4.3
				c-12.6-22.9-24.7-46.2-35.1-70.2c-1.9-4.5-9.1-1.3-7.8,3.3c8.3,28.4,18.6,56.7,33.3,82.6c2.4,4.2,8.9,1.4,7.8-3.3
				c-7.2-28.2-20.3-54.5-35.5-79.2c-2.9-4.7-9.6-0.6-7.3,4.3c11.5,25.4,22.7,50.9,35.1,75.9c2.4,4.9,9.7,0.6,7.3-4.3
				c-17.1-35.4-34-71.2-55.5-104.2c-2.6-3.9-9.1-1.5-7.8,3.3c9.1,32.5,27.4,60.7,44.6,89.4c2.4,4,9.6,1.4,7.8-3.3
				c-11.5-29.5-31.4-55.3-39.6-86.1c-1.4-5.3-9.3-3.1-8.2,2.3c8.1,38.3,31.6,70.3,45.3,106.5c2.6-1.1,5.2-2.2,7.8-3.3
				c-17-32.9-31.8-66.8-51-98.5c-2.4-4-9.2-1.4-7.8,3.3c10.6,34.9,28.3,67.1,46.9,98.4c2.8,4.8,9.7,0.6,7.3-4.3
				c-15.5-32.1-31.9-64.2-53.2-92.9c-2.8-3.8-8.8-1.7-7.8,3.3c7.5,36.9,33.4,66.5,54.8,96.1c2.6,3.5,9.8,1.5,7.8-3.3
				c-10.9-26-29.1-47.6-45.7-70.1c-2.7-3.6-9.3-1.7-7.8,3.3c5.3,17.3,17.3,33.5,28.5,47.4c6.1,7.6,12.8,14.9,20.6,20.7
				c5.6,4.2,12.4,7.7,19.6,6.3c-1.6-2.1-3.2-4.2-4.8-6.2c-1.8,4.3-4,8.2-8.8,9.4c1.4,2.4,2.8,4.7,4.1,7.1c4.5-4.2,10.3-5.8,16.2-6.8
				c4.7-0.9,3.6-8.5-1.1-8.3c-6.9,0.2-13.7,2.2-18.9,6.9c2,0,4,0,6,0c-0.8-0.8-1.5-1.5-2.3-2.3c-3-3-8.2,0.1-7.1,4.1
				c0.3,1.2,0.8,2.2,1.1,3.4c2.6-1.1,5.2-2.2,7.8-3.3c-7.1-10.6-14.3-21.2-23.3-30.3c-3.5-3.5-8.8,0.9-6.7,5.1
				c4.7,9,11.1,16.8,17,24.9c2.2-1.7,4.4-3.4,6.7-5.1c-22.8-22-33.9-52.8-55.5-75.9c-3.3-3.5-9.2,1-6.7,5.1
				c8.6,14.2,15,29.6,24.9,43c2.2-1.7,4.4-3.4,6.7-5.1c-11.5-12.5-20.8-27.7-28.1-43c-5.2-10.8-16-34.4-2.2-43.2
				c-1.7-2.2-3.4-4.4-5.1-6.7c-1.4,1.1-3.3,1.6-4.8,2.7c-3.2,2.5-2.4,7.8,2.1,7.9c4.6,0.1,9.2,1.1,13.6,2.1c0.4-2.8,0.8-5.6,1.1-8.3
				c-3.4,0.2-6.8,1-10.2,1.1c-1.7,0.1-3.8,1.3-4.1,3.1c-1.1,7.2,1,13.1,6.8,17.7c1.7,1.4,4.3,1.8,6,0c12.8-14.1-11.9-28.1-20.5-12.6
				c-7.4,13.3,10.2,32.8,24.3,28.4c1.7-0.5,3.2-2.2,3.1-4.1c-0.4-12-8.2-25.1-21.2-25.8c-2.5-0.1-4,2.1-4.2,4.2
				c-2,15.3,8.2,29.3,20.2,37.6c2.2,1.5,5.7,0,6.2-2.5c2.5-11.8-2.5-24.5-11.3-32.4c-1.7-1.6-4.3-1.7-6,0
				c-7.3,7.2-3.7,18.6,0.4,26.5c4.2,8,11.4,18,20.8,20.2c2.8,0.7,5.2-1.3,5.4-4.1c1-13.2-5.5-30.4-18-36.5c-1.9-0.9-4.8-0.7-5.8,1.5
				c-5.3,12.2,3.1,23.2,15,26.6C325,447.6,327.3,439.4,322,437.9L322,437.9z"/>
		</g>
	</g>
	<g>
		<g>
			<path fill="#4F4F4F" d="M307.3,401.5c-5.3,0-10.6,0-15.9,0c0.4,2.8,0.8,5.6,1.1,8.3c7.6-2.2,15.6,1.8,21.8,5.9
				c9.6,6.3,17.7,14.8,25,23.6c14.9,18.2,28.4,40.7,32.5,64.1c1.5,8.5,1.7,18.8-5.3,25c-2.7,2.4-0.6,7.5,3,7.3
				c11.9-0.7,17-12.4,20-22.4c1.5-5.3-6.7-7.5-8.2-2.3c-1.7,5.7-4.5,15.7-11.8,16.1c1,2.4,2,4.8,3,7.3c17.1-15.1,5.8-44.7-2.1-61.5
				c-11.1-23.9-28-47.9-49.8-63.2c-8.6-6-19.7-11.3-30.4-8.1c-4.6,1.3-3.7,8.3,1.1,8.3c5.3,0,10.6,0,15.9,0
				C312.8,410,312.8,401.5,307.3,401.5L307.3,401.5z"/>
		</g>
	</g>
	<g>
		<g>
			<path fill="#A8A8A8" d="M-70.7-165.1c0,0.4,0,0.8,0,1.1c0,0.6,0.1,1.1,0.4,1.6c0.2,0.5,0.5,1,0.9,1.4c0.4,0.4,0.8,0.7,1.4,0.9
				c0.5,0.3,1.1,0.4,1.6,0.4c0.4-0.1,0.8-0.1,1.1-0.2c0.7-0.2,1.3-0.6,1.9-1.1c0.8-0.8,1.2-1.9,1.2-3c0-0.4,0-0.8,0-1.1
				c0-0.6-0.1-1.1-0.4-1.6c-0.2-0.5-0.5-1-0.9-1.4c-0.4-0.4-0.8-0.7-1.4-0.9c-0.5-0.3-1.1-0.4-1.6-0.4c-0.4,0.1-0.8,0.1-1.1,0.2
				c-0.7,0.2-1.3,0.6-1.9,1.1C-70.2-167.2-70.7-166.2-70.7-165.1L-70.7-165.1z"/>
		</g>
	</g>
	<g>
		<g>
			<path fill="#A8A8A8" d="M-69.7-168.7c-4.7,2.2-8.8-0.6-9.6-5.4c-1-5.4-9.1-3.1-8.2,2.3c1.9,10.6,12.9,14.7,22.1,10.5
				C-60.5-163.7-64.8-171-69.7-168.7L-69.7-168.7z"/>
		</g>
	</g>
	<g>
		<g>
			<path fill="#A8A8A8" d="M-63.8-153.7c4.9,14.5,11.3,28.4,18.5,41.8c2.6,4.8,9.9,0.5,7.3-4.3c-6.9-12.8-13-26-17.7-39.8
				C-57.3-161.1-65.5-158.9-63.8-153.7L-63.8-153.7z"/>
		</g>
	</g>
	<g>
		<g>
			<path fill="#A8A8A8" d="M-64.9-157.5c12.5,12,19.7,27.9,27.2,43.2c8.5,17.4,19.6,33.1,30.2,49.2C4.2-47.4,15-29.3,25.4-10.9
				C35.4,7,45.4,24.8,57.2,41.7C70,60,84,77.6,94.1,97.6c2.5,4.9,9.8,0.6,7.3-4.3c-9.1-17.9-21.3-33.9-32.9-50.2
				C56.6,26.2,46,8.6,35.9-9.4C25.6-27.9,15-46.2,3.5-63.9c-10.9-16.7-22.9-32.8-31.8-50.6c-8.6-17.2-16.4-35.5-30.6-49
				C-62.9-167.3-68.9-161.3-64.9-157.5L-64.9-157.5z"/>
		</g>
	</g>
	<g>
		<g>
			<path fill="#A8A8A8" d="M86.2,85.1c10.2,19.3,19.1,39.2,30.6,57.8c2.9,4.6,10.2,0.4,7.3-4.3c-11.5-18.5-20.4-38.5-30.6-57.8
				C91,76,83.6,80.3,86.2,85.1L86.2,85.1z"/>
		</g>
	</g>
	<g>
		<g>
			<path fill="#A8A8A8" d="M88,88.6c6.7,18.5,19.4,33.3,31,48.8c12.6,17.1,22.5,35.9,33.5,54c11.6,19.1,25.5,36.6,38.2,54.9
				c13.3,19.1,26.1,38.5,38.7,58c7,10.8,13.9,21.7,20.8,32.7c3.4,5.5,6.8,10.9,10.2,16.4c2.5,4.1,6.8,9,7.7,13.8
				c0.9,5.4,9.1,3.1,8.2-2.3c-0.6-3.6-3.1-7-5-10.1c-3.1-4.9-6.1-9.8-9.2-14.8c-6.2-9.8-12.3-19.7-18.6-29.5
				c-12.5-19.6-25.3-39-38.4-58.3c-12.7-18.6-26.7-36.4-39-55.2c-11.8-18.1-21.7-37.4-33.7-55.4c-12.2-18.3-28.6-34.4-36.2-55.4
				C94.3,81.3,86.1,83.5,88,88.6L88,88.6z"/>
		</g>
	</g>
	<g>
		<g>
			<path fill="#A8A8A8" d="M280.5,347.2c-5.6,4.5-7.6,11.9-12.5,17c-3.8,4,2.2,10,6,6c4.8-5.1,7-12.6,12.5-17
				C290.8,349.8,284.7,343.8,280.5,347.2L280.5,347.2z"/>
		</g>
	</g>
	<g>
		<g>
			<path fill="#A8A8A8" d="M373.4,551.1c-9.2,8.9-7.7,25.6-4.2,36.6c3.4,10.8,12.2,24.1,25.3,19.1c5.1-1.9,2.9-10.1-2.3-8.2
				c-9,3.4-13.6-8.3-15.4-15.1c-2-7.6-3.8-20.3,2.6-26.5C383.3,553.3,377.3,547.3,373.4,551.1L373.4,551.1z"/>
		</g>
	</g>
	<g>
		<g>
			<path fill="#A8A8A8" d="M368.8,552.2c-10.7,8.9,0.7,27.4,7.1,35.2c9.1,10.9,24.9,19.7,37.6,9c10.1-8.4,13.4-23.3,15.6-35.5
				c0.9-5.3-7.2-7.6-8.2-2.3c-1.9,10.9-6.8,37.7-23.5,33.9c-10.4-2.4-19-13.6-22.6-23.1c-0.9-2.4-1.6-4.9-1.6-7.3
				c0-2,0.2-2.7,1.6-3.9C379,554.7,373,548.7,368.8,552.2L368.8,552.2z"/>
		</g>
	</g>
	<g>
		<g>
			<path fill="#A8A8A8" d="M422,564.3c-1,12.7-10.8,22.7-23.8,22.8c-13.8,0.1-21.9-10.8-22.1-23.9c-0.1-5.5-8.6-5.5-8.5,0
				c0.2,17.6,12.1,32.6,30.6,32.4c17.8-0.2,30.9-14,32.3-31.3C430.9,558.8,422.4,558.9,422,564.3L422,564.3z"/>
		</g>
	</g>
	<g>
		<g>
			<path fill="#A8A8A8" d="M370,555.2c-5,21.5,27.1,48.1,44.5,29c3.7-4-2.3-10.1-6-6c-11.3,12.3-33.4-7.2-30.3-20.8
				C379.4,552.2,371.2,549.9,370,555.2L370,555.2z"/>
		</g>
	</g>
	<g>
		<g>
			<path fill="#A8A8A8" d="M365.5,559.8c-4.5,24.4,19.1,44.1,42.6,39.2c5.3-1.1,3.1-9.3-2.3-8.2c-16.8,3.5-35.4-10.9-32.1-28.8
				C374.7,556.7,366.5,554.4,365.5,559.8L365.5,559.8z"/>
		</g>
	</g>
	<g>
		<g>
			<path fill="#A8A8A8" d="M415.7,573.5c-2.1,4-6,7.4-9.8,9.8c-4.6,2.9-0.4,10.2,4.3,7.3c5-3.1,10.1-7.6,12.8-12.9
				C425.6,572.9,418.3,568.6,415.7,573.5L415.7,573.5z"/>
		</g>
	</g>
	<g>
		<g>
			<path fill="#A8A8A8" d="M417.5,573.8c-6.5,6.5-27.9,27.5-36.4,14.5c-3-4.6-10.3-0.3-7.3,4.3c13.1,20.2,38.5-1.6,49.7-12.7
				C427.4,575.9,421.4,569.9,417.5,573.8L417.5,573.8z"/>
		</g>
	</g>
	<g>
		<g>
			<path fill="#A8A8A8" d="M376.1,545.2c-11.3,23,12.6,43.8,33.1,49.3c5.3,1.4,7.5-6.8,2.3-8.2c-14.5-3.9-36.7-19.2-28-36.8
				C385.8,544.6,378.5,540.3,376.1,545.2L376.1,545.2z"/>
		</g>
	</g>
	<g>
		<g>
			<path fill="#8E8E8E" d="M-83.2-177.5c0.4,7.6,9.6,14.9,16.9,12.1c1-0.4,0.6-2-0.5-1.6c-6.2,2.3-14.4-4-14.8-10.5
				C-81.5-178.6-83.2-178.6-83.2-177.5L-83.2-177.5z"/>
		</g>
	</g>
	<g>
		<g>
			<path fill="#8E8E8E" d="M-87.6-177.1c3.5,5.2,7.9,10.3,14.1,12.1c6.1,1.8,12.2,0.1,17.6-2.8c1-0.5,0.1-2-0.9-1.5
				c-5.1,2.6-10.7,4.3-16.3,2.6c-5.8-1.7-9.9-6.5-13.1-11.4C-86.7-178.9-88.2-178-87.6-177.1L-87.6-177.1z"/>
		</g>
	</g>
	<g>
		<g>
			<path fill="#8E8E8E" d="M-57.6-167c-4.2,1-8.4,2.1-12.5,3.4c-0.7,0.2-0.9,1.5,0,1.6c4.9,0.7,13.4,0.5,15.7-4.9
				c0.4-1-1-1.9-1.5-0.9c-2,4.7-9.7,4.7-13.8,4.1c0,0.5,0,1.1,0,1.6c4.1-1.3,8.3-2.4,12.5-3.4C-56.1-165.6-56.6-167.3-57.6-167
				L-57.6-167z"/>
		</g>
	</g>
	<g>
		<g>
			<path fill="#8E8E8E" d="M-56.5-168.1c-5.1,1.3-10.4,4.2-15.6,4.5c-1.1,0.1-1.1,1.8,0,1.7c5.4-0.3,10.9-3.2,16.1-4.6
				C-55-166.8-55.4-168.4-56.5-168.1L-56.5-168.1z"/>
		</g>
	</g>
	<g>
		<g>
			<path fill="#8E8E8E" d="M-85.3-172.6c2.6,5.9,8.4,8.3,14.5,7.2c1.1-0.2,0.6-1.8-0.5-1.6c-5.4,0.9-10.4-1.3-12.6-6.4
				C-84.3-174.4-85.7-173.6-85.3-172.6L-85.3-172.6z"/>
		</g>
	</g>
	<g>
		<g>
			<path fill="#8E8E8E" d="M-60.5-161.4c1,4.2,2.1,8.4,3.4,12.5c0.3,1,2,0.6,1.6-0.5c-1.3-4.1-2.4-8.3-3.4-12.5
				C-59.1-162.9-60.7-162.5-60.5-161.4L-60.5-161.4z"/>
		</g>
	</g>
	<g>
		<g>
			<path fill="#8E8E8E" d="M-60.5-160.3c1,4.1,2.3,8,4.6,11.5c0.6,0.9,2.1,0.1,1.5-0.9c-2.2-3.4-3.4-7.2-4.4-11.1
				C-59.1-161.8-60.7-161.4-60.5-160.3L-60.5-160.3z"/>
		</g>
	</g>
	<g>
		<g>
			<path fill="#8E8E8E" d="M-62.7-162.6c3.4,9.7,9,18.3,13.7,27.4c0.5,1,2,0.1,1.5-0.9c-4.6-9-10.2-17.4-13.5-27
				C-61.5-164-63.1-163.6-62.7-162.6L-62.7-162.6z"/>
		</g>
	</g>
	<g>
		<g>
			<path fill="#8E8E8E" d="M-57-157.8c6.9,15.1,11.3,31.3,20.4,45.3c0.6,0.9,2.1,0.1,1.5-0.9c-9.1-14-13.5-30.2-20.4-45.3
				C-56-159.7-57.4-158.8-57-157.8L-57-157.8z"/>
		</g>
	</g>
	<g>
		<g>
			<path fill="#8E8E8E" d="M211.4,274.8c12.7,17.5,22.9,36.5,35.1,54.4c0.6,0.9,2.1,0,1.5-0.9c-12.2-17.8-22.4-36.9-35.1-54.4
				C212.2,273.1,210.8,273.9,211.4,274.8L211.4,274.8z"/>
		</g>
	</g>
	<g>
		<g>
			<path fill="#8E8E8E" d="M225,297.4c13,19.1,23.4,40.2,39.8,56.8c0.8,0.8,2-0.4,1.2-1.2c-16.2-16.5-26.6-37.5-39.5-56.5
				C225.9,295.7,224.4,296.5,225,297.4L225,297.4z"/>
		</g>
	</g>
	<g>
		<g>
			<path fill="#8E8E8E" d="M253.3,338.2c5.9,9.3,13.1,18.3,15.8,29.2c0.5-0.2,1-0.4,1.6-0.7c-2.3-4.5-4.5-9.1-6.8-13.6
				c-0.5,0.3-1,0.6-1.5,0.9c3.1,5.2,6,10.6,9.1,15.9c0.5-0.3,1-0.6,1.5-0.9c-3.4-4.7-6.1-9.8-9.1-14.7c-0.5,0.3-1,0.6-1.5,0.9
				c2.9,4,5.8,7.9,9.2,11.5c0.7,0.7,1.8-0.2,1.3-1c-2.1-3.3-3.6-6.9-5.7-10.2c-0.4,0.3-0.9,0.7-1.3,1c2.3,2.3,4.5,4.5,6.8,6.8
				c0.3-0.5,0.6-0.9,0.8-1.4c-0.7,0.9-0.7,1.7,0.2,2.4c0.6,0.9,2.1,0.1,1.5-0.9c-0.6-0.9-1-1.9-1.7-2.7c-0.2-0.2-0.6-0.3-0.8-0.2
				c-0.2,0.1-0.4,0.2-0.7,0.3c-0.5,0.2-0.7,0.5-0.6,1c0.2,1.1,0.8,1.4,1.7,1.7c0.8,0.3,1.4-0.9,0.8-1.4c-2.3-2.3-4.5-4.5-6.8-6.8
				c-0.7-0.7-1.9,0.2-1.3,1c2.1,3.3,3.6,6.9,5.7,10.2c0.4-0.3,0.9-0.7,1.3-1c-3.3-3.4-6.1-7.3-8.9-11.2c-0.6-0.9-2-0.1-1.5,0.9
				c2.9,5,5.7,10,9.1,14.7c0.6,0.9,2,0.1,1.5-0.9c-3.1-5.2-6-10.6-9.1-15.9c-0.6-0.9-2-0.1-1.5,0.9c2.3,4.5,4.5,9.1,6.8,13.6
				c0.4,0.9,1.8,0.3,1.6-0.7c-2.8-11-10-20.2-15.9-29.7C254.2,336.4,252.7,337.3,253.3,338.2L253.3,338.2z"/>
		</g>
	</g>
	<g>
		<g>
			<path fill="#8E8E8E" d="M282.4,361.9c-3.8-0.1-7.5-1-11.3-1.1c-0.5,0-0.8,0.4-0.8,0.8c0,0.4,0,0.8,0,1.1c0,0.5,0.4,0.9,0.8,0.8
				c4.9-0.1,7.6-2.1,11.8-4.6c-0.3-0.4-0.7-0.9-1-1.3c-1.8,1.7-4.2,2.9-5.8,4.7c-0.7,0.8,0.1,1.7,1,1.3c1.4-0.6,2.3-2,3.7-2.6
				c-0.3-0.4-0.7-0.9-1-1.3c-0.1,0.1-0.1,0.1-0.2,0.2c0.4,0.1,0.9,0.1,1.3,0.2c-0.4-0.8-0.8-1.5-1.1-2.3c-0.2-0.4-0.8-0.5-1.2-0.3
				c-8.4,4.2-15.8-2.1-21.6-7.8c-0.8-0.8-2,0.4-1.2,1.2c4,3.9,8.6,8.1,14.2,9.4c2,0.5,4.3,0.6,6.3,0c2.2-0.7,2-1.7,3.1,0.6
				c0.2,0.5,1,0.6,1.3,0.2c0.1-0.1,0.1-0.1,0.2-0.2c0.7-0.8-0.1-1.7-1-1.3c-1.4,0.6-2.3,2-3.7,2.6c0.3,0.4,0.7,0.9,1,1.3
				c1.5-1.8,4-3.1,5.8-4.7c0.7-0.7-0.2-1.8-1-1.3c-1.6,1-3.1,2.2-4.8,3.1c-0.5,0.3-5.4,1.9-5.2,1.2c-0.2,1.1,8.8,1.8,10.5,1.8
				C283.5,363.6,283.5,361.9,282.4,361.9L282.4,361.9z"/>
		</g>
	</g>
	<g>
		<g>
			<path fill="#8E8E8E" d="M369.9,567.9c3.5,11.6,6.9,23.6,16.1,32.1c0.8,0.7,2-0.5,1.2-1.2c-9-8.2-12.3-20-15.6-31.3
				C371.2,566.4,369.6,566.9,369.9,567.9L369.9,567.9z"/>
		</g>
	</g>
	<g>
		<g>
			<path fill="#8E8E8E" d="M369.9,577c1.4,9.7,7.4,17.3,16.4,21c1,0.4,1.5-1.2,0.5-1.6c-8.5-3.4-13.9-10.8-15.3-19.8
				C371.4,575.5,369.7,575.9,369.9,577L369.9,577z"/>
		</g>
	</g>
	<g>
		<g>
			<path fill="#8E8E8E" d="M371.2,583c4.6,5.8,9.4,11.4,16,14.9c1,0.5,1.8-1,0.9-1.5c-6.5-3.4-11.2-8.9-15.7-14.6
				C371.8,581,370.6,582.2,371.2,583L371.2,583z"/>
		</g>
	</g>
	<g>
		<g>
			<path fill="#8E8E8E" d="M368.8,564.5c2.5,15.3,9.6,31.1,21.7,41.1c0.8,0.7,2-0.5,1.2-1.2c-12-9.9-18.8-25.3-21.3-40.4
				C370.2,563,368.6,563.5,368.8,564.5L368.8,564.5z"/>
		</g>
	</g>
	<g>
		<g>
			<path fill="#8E8E8E" d="M370.1,584.2c7.5,8.4,17.8,12.7,28.7,14.9c1.1,0.2,1.5-1.4,0.5-1.6c-10.6-2.2-20.6-6.3-27.9-14.5
				C370.6,582.1,369.4,583.3,370.1,584.2L370.1,584.2z"/>
		</g>
	</g>
	<g>
		<g>
			<path fill="#8E8E8E" d="M387.5,599.1c6.8,1,13.3,0.2,19.7-2.3c1-0.4,0.6-2-0.5-1.6c-6.1,2.3-12.3,3.2-18.8,2.3
				C386.9,597.3,386.4,598.9,387.5,599.1L387.5,599.1z"/>
		</g>
	</g>
	<g>
		<g>
			<path fill="#8E8E8E" d="M402.8,587.7c-3.2,4.2-6.8,7.8-11,11c-0.9,0.7,0,2.1,0.9,1.5c4.4-3.4,8.3-7.2,11.6-11.6
				C404.9,587.6,403.5,586.8,402.8,587.7L402.8,587.7z"/>
		</g>
	</g>
	<g>
		<g>
			<path fill="#8E8E8E" d="M396,591.1c-1.9,2.9-3.6,5.6-6.5,7.6c-0.9,0.6,0,2.1,0.9,1.5c3.2-2.2,5-5.1,7.1-8.2
				C398.1,591,396.6,590.1,396,591.1L396,591.1z"/>
		</g>
	</g>
	<g>
		<g>
			<path fill="#8E8E8E" d="M392.8,588.6c-3.3,3.4-5.8,7.1-7,11.7c-0.3,1.1,1.4,1.5,1.6,0.5c1.2-4.3,3.5-7.8,6.6-11
				C394.7,589,393.5,587.8,392.8,588.6L392.8,588.6z"/>
		</g>
	</g>
	<g>
		<g>
			<path fill="#8E8E8E" d="M389.2,589.9c-2.4,3.6-5.5,6.6-7.9,10.2c-0.6,0.9,0.9,1.8,1.5,0.9c2.4-3.6,5.5-6.6,7.9-10.2
				C391.3,589.9,389.8,589,389.2,589.9L389.2,589.9z"/>
		</g>
	</g>
	<g>
		<g>
			<path fill="#8E8E8E" d="M389.5,589.6c-3.9,3-7.1,6.1-9.4,10.5c-0.5,1,1,1.8,1.5,0.9c2.1-4.1,5.1-7.1,8.8-9.9
				C391.3,590.4,390.4,589,389.5,589.6L389.5,589.6z"/>
		</g>
	</g>
	<g>
		<g>
			<path fill="#8E8E8E" d="M383.7,586.4c-3.3,3.4-5.8,7.1-7,11.7c-0.3,1.1,1.4,1.5,1.6,0.5c1.1-4.3,3.5-7.8,6.6-10.9
				C385.7,586.8,384.5,585.6,383.7,586.4L383.7,586.4z"/>
		</g>
	</g>
	<g>
		<g>
			<path fill="#8E8E8E" d="M381.4,589.7c-2.1,2.1-4.4,4.3-5.8,7c-0.5,1,1,1.8,1.5,0.9c1.4-2.6,3.5-4.6,5.5-6.6
				C383.4,590.2,382.2,589,381.4,589.7L381.4,589.7z"/>
		</g>
	</g>
	<g>
		<g>
			<path fill="#8E8E8E" d="M407.5,583c-0.2,0.2-0.4,0.4-0.6,0.5c-0.1,0.1-0.1,0.1,0,0c0,0,0,0,0,0c0,0-0.1,0-0.1,0
				c0.2-0.1,0.5-0.1,0.7,0c0.1,0.1,0.2,0.2,0.3,0.3c0,0.1,0.2,0.4,0.1,0.5c0,0,0-0.1,0-0.1c0-0.1,0.1-0.2,0.1-0.3c0,0,0.1-0.2,0-0.1
				c0-0.1,0.1-0.1,0.1-0.2c0.1-0.2,0.1-0.3,0.2-0.5c0.3-0.6,0.6-1.3,0.6-1.9c0-1.1-1.7-1.1-1.7,0c0,0.2,0-0.1,0,0.1
				c0,0.1-0.1,0.2-0.1,0.3c-0.1,0.2-0.2,0.5-0.3,0.7c0.1-0.1,0,0,0,0.1c0,0.1-0.1,0.1-0.1,0.2c-0.1,0.1-0.1,0.2-0.2,0.4
				c-0.1,0.2-0.2,0.5-0.3,0.7c-0.2,0.6,0.1,1.4,0.8,1.4c0.6,0,1.1-0.6,1.5-1C409.5,583.4,408.3,582.2,407.5,583L407.5,583z"/>
		</g>
	</g>
	<g>
		<g>
			<path fill="#8E8E8E" d="M411.2,580.2c0-0.2,0-0.4,0-0.6c0-0.1-0.1,0.2,0,0.1c0,0,0-0.1,0-0.1c0-0.1-0.1,0.2,0,0.1
				c0.1-0.1-0.2,0.2-0.1,0.1c0.1-0.1-0.2,0.1-0.1,0.1c0.1-0.1-0.2,0.1-0.1,0c0,0,0.1,0,0.1,0c0.1,0-0.2,0-0.1,0c0.2,0,0.4,0,0.6,0
				c0.4,0,0.9-0.4,0.8-0.8c0-0.5-0.4-0.8-0.8-0.8c-0.5,0-1.2,0-1.6,0.4c-0.4,0.4-0.4,1-0.4,1.6c0,0.4,0.4,0.9,0.8,0.8
				C410.8,581,411.2,580.6,411.2,580.2L411.2,580.2z"/>
		</g>
	</g>
	<g>
		<g>
			<path fill="#8E8E8E" d="M414.9,576.5c0.4,0,0.8,0,1.1,0c0.4,0,0.9-0.4,0.8-0.8c0-0.5-0.4-0.8-0.8-0.8c-0.4,0-0.8,0-1.1,0
				c-0.4,0-0.9,0.4-0.8,0.8C414.1,576.1,414.4,576.5,414.9,576.5L414.9,576.5z"/>
		</g>
	</g>
	<g>
		<g>
			<path fill="#8E8E8E" d="M416.6,576.2c1.1-1.2,1.4-2.5,1.4-4c0-1.1-1.7-1.1-1.7,0c0,1.1-0.1,2-0.9,2.8
				C414.7,575.8,415.9,577,416.6,576.2L416.6,576.2z"/>
		</g>
	</g>
	<g>
		<g>
			<path fill="#8E8E8E" d="M420.3,567.7c0-1.1,0.1-2,0.9-2.8c0.8-0.8-0.4-2-1.2-1.2c-1.1,1.2-1.4,2.5-1.4,4
				C418.6,568.8,420.3,568.8,420.3,567.7L420.3,567.7z"/>
		</g>
	</g>
	<g>
		<g>
			<path fill="#B59615" d="M307.4,368.1c-0.2,0.1-0.4,0.2-0.7,0.3c0.3-0.1,0.7-0.3,1-0.4c-0.2,0.1-0.3,0.1-0.5,0.2
				c0.4-0.1,0.8-0.1,1.1-0.2c0,0-0.1,0-0.1,0c0.4,0.1,0.8,0.1,1.1,0.2c0,0,0,0,0,0c0.3,0.1,0.7,0.3,1,0.4c0,0,0,0,0,0
				c0.3,0.2,0.6,0.4,0.9,0.7c0,0,0,0,0,0c0.2,0.3,0.4,0.6,0.7,0.9c0,0,0,0,0,0c0.1,0.3,0.3,0.7,0.4,1c0,0,0,0,0,0
				c0.1,0.4,0.1,0.8,0.2,1.1c0,0,0,0,0,0c-0.1,0.4-0.1,0.8-0.2,1.1c0,0,0,0,0-0.1c-0.1,0.3-0.3,0.7-0.4,1c0-0.1,0.1-0.2,0.1-0.2
				c-0.2,0.3-0.4,0.6-0.7,0.9c0.3-0.4,0.8-0.8,1.1-1.2c0.4-0.4,0.7-0.8,0.9-1.4c0.3-0.5,0.4-1.1,0.4-1.6c0-0.6-0.1-1.1-0.4-1.6
				c-0.2-0.5-0.5-1-0.9-1.4c-0.8-0.7-1.9-1.3-3-1.2c-1.1,0.1-2.2,0.4-3,1.2c-0.3,0.3-0.6,0.6-0.9,0.9c-0.3,0.4-0.6,0.8-0.9,1.2
				c-0.3,0.4-0.5,0.8-0.6,1.3c-0.4,1.4,0,3.2,1.1,4.2c0.1,0.1,0.7,0.6,0.9,0.7c0.1,0.1,0.9,0.4,1,0.4c0.2,0.1,1,0.2,1.2,0.2
				c0,0,0,0,0.1,0c0.4-0.1,0.8-0.1,1.1-0.2c0,0,0,0,0.1,0c0,0,0.1,0,0.1,0c0.1,0,0.2-0.1,0.2-0.1c0.6-0.2,1.2-0.5,1.8-0.8
				c0.5-0.3,0.9-0.6,1.2-1.1c0.4-0.4,0.6-0.9,0.8-1.4c0.2-0.6,0.2-1.1,0.1-1.7c0-0.6-0.2-1.1-0.5-1.6c-0.6-0.9-1.5-1.7-2.5-2
				c-0.4-0.1-0.8-0.1-1.1-0.2C308.8,367.5,308.1,367.7,307.4,368.1L307.4,368.1z"/>
		</g>
	</g>
	<g>
		<g>
			<path fill="#C1A221" d="M330.1,337.5c-7.5,5.6-13.5,13.3-21.5,18.1c-4.7,2.8-0.4,10.2,4.3,7.3c8.1-4.9,13.9-12.5,21.5-18.1
				C338.7,341.6,334.5,334.3,330.1,337.5L330.1,337.5z"/>
		</g>
	</g>
	<g>
		<g>
			<path fill="#C1A221" d="M320.1,348.4c-11.8,9.3-25.4,16.4-38.8,23.1c-4.9,2.5-0.6,9.8,4.3,7.3c14.1-7.1,28-14.6,40.5-24.4
				C330.4,351,324.4,345,320.1,348.4L320.1,348.4z"/>
		</g>
	</g>
	<g>
		<g>
			<path fill="#C1A221" d="M334.6,343.2c-22.1,13.3-47.2,20.4-69.1,34c-4.6,2.9-0.4,10.2,4.3,7.3c21.9-13.6,47-20.7,69.1-34
				C343.6,347.7,339.3,340.4,334.6,343.2L334.6,343.2z"/>
		</g>
	</g>
	<g>
		<g>
			<path fill="#C1A221" d="M285.9,373.8c-9.6,7.4-16.9,16.8-24.2,26.4c-3.3,4.4,4.1,8.6,7.3,4.3c6.3-8.4,12.8-16.9,21.1-23.4
				C294.4,377.8,290.2,370.4,285.9,373.8L285.9,373.8z"/>
		</g>
	</g>
	<g>
		<g>
			<path fill="#C1A221" d="M250.4,405.9c-11.9,20.3-16.9,44.9-19.3,68.1c-2.3,22.9-2.1,49,9.1,69.8c2.6,4.8,9.9,0.5,7.3-4.3
				c-10.4-19.4-10-44.2-7.9-65.5c2.2-21.7,7-44.8,18.1-63.8C260.5,405.4,253.1,401.1,250.4,405.9L250.4,405.9z"/>
		</g>
	</g>
	<g>
		<g>
			<path fill="#C1A221" d="M230.6,477.1c0.1,12.8,2,26.1,6.1,38.2c3.9,11.7,10.5,24.3,23.1,28.2c5.2,1.6,7.5-6.6,2.3-8.2
				c-10.6-3.2-15.4-16-18.2-25.7c-3.1-10.5-4.7-21.6-4.7-32.5C239,471.6,230.5,471.6,230.6,477.1L230.6,477.1z"/>
		</g>
	</g>
	<g>
		<g>
			<path fill="#C1A221" d="M245.4,443.1c-6.8,17.9-6.9,39.4-3.2,58c3.6,18.1,13.4,37.7,33.3,41.2c5.3,0.9,7.6-7.2,2.3-8.2
				c-17.8-3.2-25-21.6-27.8-37.5c-2.9-16.6-2.5-35.4,3.6-51.3C255.6,440.3,247.4,438.1,245.4,443.1L245.4,443.1z"/>
		</g>
	</g>
</g>
<g id="Layer_1">
	
		<path fill="none" stroke="#231F20" stroke-width="16.9882" stroke-linecap="round" stroke-linejoin="round" stroke-miterlimit="10" d="
		M404.7,524.7c-9.6-1.3-18.5,6-25.5,11.5c-8.6,6.7-14.7,17.1-17,27.3c-4.4,19.5,7.8,47.3,31.1,42.2c23.5-5.1,41.7-31.6,36.9-54.7
		C425.6,529.2,421.6,530.7,404.7,524.7"/>
	
		<path fill="none" stroke="#231F20" stroke-width="16.9882" stroke-linecap="round" stroke-linejoin="round" stroke-miterlimit="10" d="
		M362.2,308.6c-5.4,12.5-14.9,18.7-24.7,27.8c-10.7,9.9-25.6,13.3-38.1,20.7c-21.7,12.8-41.5,36.6-55.5,58.2
		c-31.6,48.5-12.4,148.8,52.9,158.3c10.7,1.5,64.9-5.3,58.6-18.1"/>
	
		<path fill="none" stroke="#231F20" stroke-width="16.9882" stroke-linecap="round" stroke-linejoin="round" stroke-miterlimit="10" d="
		M363.9,534.3c-2.8,9.4-36,18.3-44.8,17.8c-15.3-0.8-27.8-4.7-37.9-16.6c-17.5-20.6-26.7-43.7-27.8-71.7c-1-26.4,7.9-48.2,28.3-64.2
		c26.1-20.5,69.7-38.2,78-72.8c1.6-6.6,0.7-13,5.9-18.1"/>
	
		<path fill="none" stroke="#231F20" stroke-width="16.9882" stroke-linecap="round" stroke-linejoin="round" stroke-miterlimit="10" d="
		M309.2,386.6c47.9,29.4,59.2,91.7,88.7,135.8"/>
	
		<path fill="none" stroke="#231F20" stroke-width="16.9882" stroke-linecap="round" stroke-linejoin="round" stroke-miterlimit="10" d="
		M265.4,377.4C157.9,209,43.4,22.9-68.7-153.7c-6.8-10.2-15.9,5.7-21.5-17c-2.6-10.4,6.8-13.6,17-17s23.8-5.7,27.2,7.9
		c0,3.4-3.4,12.5-3.4,12.5c3.4,6.8,27.2,44.2,37.4,61.2C66.1,9.4,276.7,342.3,286.6,351.9"/>
	
		<path fill="none" stroke="#231F20" stroke-width="16.9882" stroke-linecap="round" stroke-linejoin="round" stroke-miterlimit="10" d="
		M370.1,541.7c-29-44.5-81-86.1-85.7-134.2"/>
</g>
<g id="Layer_3">
	
		<path opacity="0" fill="none" stroke="#00D9F3" stroke-width="30.5788" stroke-linecap="round" stroke-linejoin="round" stroke-miterlimit="10" d="
		M-72.1-173c-2.3,0.7-5.6,0.5-7.8,1c8.9-19.1,26-4,18.1,12.5c-4.5-2.8-5-10.4-6.7-15.4c12.7,14.2,19.4,38.1,28.2,55.1
		c7.2,13.9,17.7,23.8,27.2,36C5.7-59.4,21.4-31.3,38.9-5.6c23.1,34,42.3,70.2,64.8,104.4c26.8,40.8,55.1,81,79.3,123.2
		c26.5,46.2,56.3,88.7,85.8,132.8c-0.9-0.8-4.7,1-5.7,0"/>
	
		<path opacity="0" fill="none" stroke="#00D9F3" stroke-width="30.5788" stroke-linecap="round" stroke-linejoin="round" stroke-miterlimit="10" d="
		M334.5,349.1c-14.7,12.5-51.3,30.2-65.7,45.3c-33.7,35.3-27.9,106.3-13.5,149.1c-1.3-14.6-6.9-28.7-5.6-43.5
		c10.6,16.4,9.9,47.2,24.5,59.7c0.2-1.9,1.2-3.6,1.6-5.4c10.9,1.9,15.9,5.6,28.4,4.4c10.5-1,25.7-5.1,35.6-2.2
		c-21.1-0.5-43.7,13.9-61.9-3.4"/>
	
		<path opacity="0" fill="none" stroke="#00D9F3" stroke-width="30.5788" stroke-linecap="round" stroke-linejoin="round" stroke-miterlimit="10" d="
		M296,400.1c0.8,7.5-4.3,17.8-5.5,26.1c6.3-6,10.6-14.8,14.8-22.5c-4.3,6.9-7.8,14.5-12.3,21.4c8.1-8.2,12.9-19.6,20.9-28
		c-6,11.8-16.8,22.6-20.2,35.4c12.8-5.6,19.5-19.8,30.3-28.2c-8.9,12.4-19.5,27.9-24.6,42.2c11.9-1.6,23.8-21.6,31.9-30.3
		c-5.9,13.4-16.6,26.2-19.4,40.7c11.7-1.3,19.4-20.9,29.4-27c-3.1,14.1-12.4,27.5-19,40.5c8.9-6.8,16.1-17.8,26-22.8
		c1,15.6-16.3,30.1-17.1,45.1c9.1-8.7,18.6-24.1,30.5-27.9c-2,13.5-13.4,26.8-19.3,39.1c9.8-4.8,16.5-14.2,24.9-20.7
		c-3.7,13.4-16,25.3-21.3,37.8c10.4-5.6,16.8-17,28.1-21.1c-3.2,8.9-12.1,15.6-14.6,24.6c6.9-1,12.7-6.3,19.1-8.9
		c-1.6,1.8-3.2,4.9-5.2,6.8c2.2-1.1,4.4-2.2,6.4-3.5"/>
	
		<path opacity="0" fill="none" stroke="#00D9F3" stroke-width="30.5788" stroke-linecap="round" stroke-linejoin="round" stroke-miterlimit="10" d="
		M386.6,577.9c-33.5-10.7,21.4-47.3,33.1-20.2c5.7,13.3-13.5,32.2-26,31.9c-22.2-0.5-22-31.2-10.3-43.5c12.9-13.6,26.5-9.2,27.2,9.9
		c0.3,9.6-14.3,41.1-21.7,20.6c-2.4-6.6,8-32.8,18-25c6.7,5.2-4.7,20.4-7.8,21.7"/>
</g>
</svg>
