<?xml version="1.0" encoding="utf-8"?>
<!-- Generator: Adobe Illustrator 21.0.0, SVG Export Plug-In . SVG Version: 6.00 Build 0)  -->
<svg version="1.1" xmlns="http://www.w3.org/2000/svg" xmlns:xlink="http://www.w3.org/1999/xlink" x="0px" y="0px" width="1000px"
	 height="1000px" viewBox="0 0 1000 1000" enable-background="new 0 0 1000 1000" xml:space="preserve">
<g id="vs-colour">
	<path fill="#D4D3E5" d="M559.2,56.9c-2-4.4-5.9-5-8-10.6c-1.1-2.8-0.4-3.3-1.4-7.3c0,0-1.5-6.2-5-11.4c-5.6-8.3-15.9-10.6-26.9-13
		c-5.7-1.3-3.4-0.1-15.4-2.1c-9.7-1.6-14.5-2.8-18.5,0c-1.9,1.3-2,2.4-4.5,3.8c-3.1,1.6-4.4,0.8-9.3,2c-3.5,0.9-7.7,1.9-9.2,5.1
		c-0.5,1-1.1,3.2-0.1,4.1c1.8,1.7,7-2.9,16.7-6.1c3.8-1.2,6.7-1.7,10.1-2.2c5.8-0.9,13.4-2.1,22.8-0.4c4.2,0.8,7.5,2.1,14,4.8
		c3.1,1.3,5,2.2,6.1,4.2c0.8,1.5,0.8,3.6,0.7,8c0,2.2-0.1,4.5-0.5,7.6c-0.5,3.8-1,3.7-1.1,5.9c-0.2,3.4,0.8,4.3,1.4,8.5
		c0.3,2.2,0.2,4.4,0,8.8c-0.2,4.1-0.5,8.5-0.8,10c-1.4,9.2-14,17-18.7,19.8c-2.1-2-5.7-5.1-11-7.3c-1.6-0.7-7.7-3.1-15.9-2.6
		c-8.2,0.5-14,3.5-15.4,4.4c-2.3,1.3-5.6,3.1-8.5,6.8c-1.1,1.5-6.1,7.7-5.1,15.4c0.7,4.8,3.5,7.8,9,13.8c5.2,5.6,6.7,5.2,13,11.8
		c5.3,5.6,5.1,6.7,7.4,7.5c4.7,1.6,8.8-1.9,19.6-8.3c12.5-7.4,10.9-4.9,18.2-9.8c6.2-4.1,14.1-9.5,21.1-19.2
		c2.8-3.9,4.4-7.1,5.8-9.8c5.1-10.2,6.6-18.2,8.8-29.8C560.3,60.7,560.1,58.8,559.2,56.9z M497.5,103.7c-2.5,0.7-21.6,6.3-27,3.6
		c-0.4-0.1-0.9-0.3-1.3-0.5c-1.9-1-0.8-3.6,0.9-3.7c1.7-1.4,5.2-1.7,6.8-2c1.7-0.3,3.9-0.9,6-1c0.3-0.1,0.5-0.1,0.7-0.2
		c4.6-0.8,9.3-1.3,13.8,0C499.4,100.4,499.4,103.1,497.5,103.7z M553.2,79.4c-0.5,4.5-1.3,14.4-6.4,16.6c-0.3,0.1-0.7,0.2-1,0.2
		c0,0,0,0.1-0.1,0.1c-0.9,1.4-3.2,1.2-3.7-0.5c-1.5-6.1-5.9-11.7-5.3-18.3c0.5-5.7,4.7-7.4,7.6-11.4c0-1,1.1-1.8,2.2-1.8
		c0.2-0.7,0.6-1.2,1.2-1.5c0.6-0.9,1.8-1.2,2.7-0.7C555.2,65.4,553.7,74.8,553.2,79.4z"/>
	<path fill="#C6896F" d="M466.3,105.8c-0.2-2.6,7.1-5,8.8-5.5c3.9-1.2,7.5-1.3,14.8-1.5c6.7-0.2,8.9,0.2,9.8,1.8
		c0.6,1,0.5,2.3,0,3.3c-1,1.7-3.4,1.6-7.3,2c-4.1,0.5-8.2,1.7-12.3,2.5c-5,1-6.6,1.4-9,0.8C470.6,108.9,466.4,107.7,466.3,105.8z"/>
	<path fill="#C6896F" d="M536.8,73.3c0.7-1.2,3-3.1,7.6-7.1c4.4-3.8,5.3-4.1,6.1-3.9c3.1,0.8,3.2,9.1,3.2,12
		c0.1,5.6,0.2,14.1-5.6,18.5c-1.1,0.9-3.3,2.5-5.6,2C536.7,93.6,532.4,80.5,536.8,73.3z"/>
	<path fill="#C6896F" d="M455,53.8c-1.4-4.7-0.1-9.4,1.3-14.1c2.8-9.3,12.2-14.1,15.7-15.9c7.1-3.7,13.2-3.9,24.8-4.3
		c10.1-0.3,16.4,0.9,20.5,2c6.4,1.7,11.8,3.2,14,7.7c1.6,3.2,0.2,5.2-0.3,12.5c-0.5,7.8,0.9,8.6,1.3,18c0.3,10.2,0.5,15.3-2,20.8
		c-3.1,6.7-10.1,14-17.5,13.7c-4.2-0.2-5.2-2.6-10.5-5.2c-8.2-4.1-19.1-4.9-28-1.5c-14.8,5.6-19.8,21-20.5,23.3
		c-1.3-3.8-1.9-7-2.3-9.2c-1-6.7-0.7-12.6-0.7-12.6c0.2-2.9,0.5-5,0-8.5c-0.3-2-0.5-1.9-1-4.5c-0.9-4.7-1.9-9.5,0.3-11.3
		c0.9-0.7,1.7-0.3,3.3-1.5c0,0,1.3-1,2-2.5C456.5,58.1,455.4,55,455,53.8z"/>
	<path fill="#FFFFFF" d="M489,63.3c0.3,0.7,1.4,0.5,4.5,1c4.1,0.6,4.2,1.2,6.3,1.3c3,0,6.8-1.2,7-2.8c0.2-1.6-3.7-3.2-5.3-3.8
		c-1-0.3-5-1.6-8.8,0.3C490.7,60.3,488.6,62.2,489,63.3z"/>
	<path fill="#FFFFFF" d="M455,71.5c0.6,1.6,4.9,1.3,6.3,1.3c3.8-0.3,8.7-1.9,8.8-3.8c0-1.3-2.3-2.3-3.3-2.8c-0.7-0.3-3-1.2-5.8-0.5
		C457.5,66.7,454.4,69.9,455,71.5z"/>
	<path fill="#C6896F" d="M547.6,500.2c15.3,4.5,30.6,9,45.9,13.5c-0.2,8.7-1.5,15.6-2.7,20.3c-1.9,7.7-3.4,9.6-3.7,16.1
		c-0.2,3.9,0.2,6.5-0.3,13c-0.6,6.7-1.5,8.6-2.9,9.9c-2.2,1.9-4.4,1.2-5.9,3.6c-1,1.6-0.4,2.4-1.7,5.2c-0.9,1.9-1.3,2.9-2.3,3.5
		c-3.2,2-8.7-2.6-10-1c-0.7,0.8,0.6,2-0.1,3.4c-0.9,1.7-4.1,2.3-6.7,1.6c-4.5-1.3-6-6.6-7.6-6c-1.1,0.4-0.4,2.8-1.7,3.8
		c-1.8,1.3-6.2-0.7-8.9-3.3c-1.1-1-4.8-5-4.6-20.2c0.1-5.5,0.6-7.3,2.2-19.9c1.9-15,1.4-14.9,2.3-19.4
		C540,518.3,542.3,510,547.6,500.2z"/>
	<path fill="#9997A5" d="M451.3,939.3c2.3-0.6,5.1,0.6,10.6,3.1c7.3,3.2,12.3,6.7,13.4,7.4c9.7,6.8,8.1,8.4,14,11.3
		c7.6,3.6,12.2,1.8,14.8,6c1.3,2.1,1.6,4.9,2,8.8c0.3,2.9,0.5,4.3-0.3,5c-1.9,1.9-6.2-2.5-13.3-2.3c-5.1,0.2-5.1,2.5-11.3,3
		c-2,0.2-1.8-0.1-11.5-1.1c-6.8-0.7-8.3-0.7-10.2,0.1c-3,1.2-3.3,2.8-6.3,4.8c-3.9,2.5-7.9,2.6-11.5,2.7c-16.6,0.6-17.6,2.6-34,2
		c-11.3-0.4-15.4-1.6-17.2-4.6c-0.9-1.5-1.4-3.9-0.5-5.9c1.4-2.8,5-2.5,10.2-5c4-2,3.1-2.8,8-6c6.1-4,7.9-2.9,17-7.8
		c3.8-2.1,6.5-3.9,7.8-4.8c1.3-0.9,4.1-2.9,7.3-5.8C447.7,943.4,447.4,940.2,451.3,939.3z"/>
	<path fill="#9997A5" d="M530.7,959.9c0.4-0.9,1.6-3.4,9-5.6c9.7-3,18-2,19.1-1.8c4.1,0.5,15.1,2,22.9,10.4c4.3,4.6,5.1,8.5,5.2,9.4
		c0.2,1.1,0.8,5-1.1,9.1c-2.8,6-8.9,8-12,9c-2.6,0.9-4.6,1.1-8.6,1.4c-4.3,0.4-4.9,0-11.6,0.2c-8,0.2-8.4,0.8-10.3,0
		c-3.7-1.6-5.4-5.4-7.5-10c-1.4-3-0.8-2.9-3.5-12.3C530.6,963,530,961.8,530.7,959.9z"/>
	<path fill="#FFFFFF" d="M485.2,217.6c3.2-2.6,6.5-0.3,14.5-1.5c3.4-0.5,2.7-0.9,9.9-2.8c9.2-2.5,15.1-4,17-1.6
		c0.8,1.1,0.7,2.9,0.5,6.2c-0.2,2.2-0.2,3.3-0.7,3.9c-1.9,2.3-6.7-0.4-13.8-0.4c-1.7,0-4.8,0.7-11.1,2c-14,3.1-17.2,4.5-18.6,2.8
		C481.3,224.3,482.5,219.8,485.2,217.6z"/>
	<path fill="#F4ECCE" d="M647.7,286.5c-0.1-3.3-0.4-19.2-2.3-40.5c-1.2-13.8-2.4-26.1-5.5-42c-3.1-15.7-4.6-23.6-8.5-31.3
		c-3.2-6.4-11-23.5-28.2-30.5c-6.2-2.5-12.4-3.2-29.2-8.9c-6.8-2.3-12.2-4.3-15.8-5.7c-2.9-6.5-5.7-13-8.6-19.4
		c-11.7,11.1-27.4,23.3-47.6,33c-5,2.4-9.9,4.5-14.6,6.2l-9.9-7.2c-0.9,4.1-1.7,8.2-2.6,12.3c-2.2,0.6-5.4,1.6-9,3
		c-7,2.7-20.2,7.9-32.4,19.8c-8.5,8.4-13.2,16.7-14.8,19.8c-7.3,13.9-7.3,24.8-9.3,44.8c-2,20.1-1.9,8.3-7.1,49
		c-4,32-6,47.9-6.7,65.1c-1,25.4,1.3,22.2,0.4,52.6c-0.2,5.6-1.4,24.4-3.8,62c-0.7,10.4-1.4,20.6-2.3,36.4
		c-0.7,11.3-1.3,20.7-1.6,26.9c39.7,4.8,82.2,7.3,127.1,6.5c6.9-0.1,13.8-0.3,20.5-0.6c0.4-5.7,1.6-13.5,5-22.2
		c2.4-6.2,5.2-11.2,7.8-15c6.1,2,11.2,3.2,14.6,4c10.3,2.2,16,2.1,24,5.9c3.2,1.5,5.7,3.1,7.2,4.1c-1.2,6.5-2.5,13-3.7,19.4
		c5.6-0.8,10.2-2,13.7-3.3c5.6-1.9,8.5-3,10-5.7c2.6-4.7-0.7-10.9-1.4-12.1c6.3-52.7,14.6-90.4,21.2-115.5
		c3.4-12.7,9.8-35.2,12.2-65.9C648.1,312,647.8,292.5,647.7,286.5z M525.7,222.2c-3.1,2.5-7.7,2.2-11.7,1.4c-0.4,0-0.7,0-1,0
		c-3.8,0.1-7.7-0.2-11.6-0.3c-2.2,0.3-4.4,0.4-6.4,0.1c-3.1,0.3-5.8,1-9.1,2.3c-0.8,0.3-1.9-0.2-2.3-0.9c-0.3-0.7-0.6-1.4-0.7-2
		c-0.7-1-0.4-2.6,0.9-3.2c1.5-1.6,4.7-2,7.6-2.3c6-0.6,11.7-2.1,17.6-3.4c5.5-1.1,11.1-1.7,16.5-3.1c0.8-0.2,1.9,0.1,2.3,0.9
		C529.3,215.4,529,219.7,525.7,222.2z"/>
</g>
<g id="vs-secondary">
	<path fill="#D4D3E5" d="M409.2,534.3c7.9,1.1,16.1,2,24.4,2.8c37,3.5,71.3,3.2,102.5,0.7c-1,8.4-1.3,15.6-1.4,20.8
		c-0.5,18.7,1.7,22.8,4.4,25.1c0.9,0.7,4.9,4.2,8.9,3.3c2.2-0.5,3.2-2.2,5.1-1.7c2.1,0.5,1.9,2.9,4.3,3.9c2.4,1.1,5.9,0.2,6.7-1.6
		c0.7-1.4-0.6-2.7,0.1-3.4c0.8-0.7,2.6,1.1,5.8,1.4c1,0.1,3.8,0.4,5.5-1.2c2.3-2.1,0.4-5.4,2.7-7.8c1.5-1.6,2.9-0.9,4.7-2
		c3-1.9,3-6.5,3.3-13.6c0.8-16.1,2.4-19.8,3.8-21.9c2.1-3.4,5.6-6.8,7.2-6.1c1.2,0.5,1.2,3.3,0.1,12c-0.9,7.3-1.4,10.9-2.7,18.2
		c0,0-2,11-2.8,22.3c-0.9,13.8,1.4,18.3,2.5,33.6c0.8,11.9,0.1,18.8-0.8,32.9c-1,16.9-1.3,33.8-1.9,67.6c-0.6,34.7,1,28.3,1.2,85.9
		c0.1,58.4-1.6,53-0.7,66.6c0.4,6.4,1.6,18.9-1,31.8c-0.2,0.9-1.1,5.3-2,11.3c-1.3,8.4-1.9,12.7-1.6,16.8c0.6,6.2,2.1,6.8,1.6,11.5
		c-0.5,4.5-2.5,7.8-3.8,10.1c-2.3,4-4,6.8-6.6,7.1c-2.9,0.3-4.5-2.8-8.2-5.4c-5.6-3.9-12.1-3.4-18.1-2.9c-12,0.9-20.4,7.1-23.8,9.9
		c-4.9-13.7-6.7-16.9-7.3-16.7c-0.8,0.2,1.1,6.2-1.2,14c-0.8,2.6-2.1,7.2-5.6,8.5c-2.7,1-5.4-0.4-7.8-1.6
		c-17.4-8.6-15.2-5.3-24.3-11.2c-8.3-5.3-7.9-6.6-14.2-10c-6.5-3.5-12.5-5.1-16.5-6c0.6-2.1,1.1-5.1-0.3-7.8
		c-1.7-3.1-4.5-2.7-6.3-5.4c-2.5-3.5,0.4-7,1.3-16.1c0.8-7.9-1.1-7.9-0.3-15.7c0.8-7.7,2.7-8.4,3.8-15.3c0.9-6.1-0.2-7.8-1.5-21
		c-0.4-3.7-0.1-1.7-1.5-23.5c-0.4-6.9-1.1-16.7-1.5-22.5c-3.1-44-6.3-49-5.5-70.5c0.1-4,0.4-8.6,0-15.5c-0.8-12.6-3.2-21.1-5-28.5
		c-3.9-15.9-5.3-28.3-7-43c-2.1-18.4-1-20.5-3.5-39c-1.3-9.1-2.4-15.1-4.5-26C417.1,576.9,413.6,558.2,409.2,534.3z"/>
</g>
<g id="vs-primary">
	<path fill="#B35E22" d="M487.3,147.3c3.9,2,9.1-0.9,23.1-10.8c12.3-8.6,22.8-16.5,26.9-19.7c5.3-4,9.5-7.2,12.1-9.1
		c1.8,3,3.7,6.6,5.3,10.6c0.9,2.1,1.6,4.2,2.2,6.1c5.9,4.2,11,6.5,14.4,7.8c9.3,3.6,14.6,3.2,24.1,7.2c5.3,2.2,9.2,4.7,11.5,6.3
		c-4.9-0.3-13.6-0.1-21.9,5c-1.6,1-6.2,4-14.7,18.1c-7.4,12.2-12.7,20.9-15.5,34.1c-2.3,10.9-1.8,19.6-1.4,26.6
		c0.7,12.5,3.3,23.4,4.9,30.4c0.8,3.4,2.1,8.7,3.5,13.9c3,11,3.2,10.6,3.9,14.1c1.3,6.5,0.3,7.6,0.4,23.5c0.1,9.2,0.1,13.8,0.8,19.2
		c1.1,8.4,2.4,9.3,3.3,16.7c0.9,7,0.4,11.1,0,20.4c-0.7,15.3-0.2,19.9-0.5,27.6c-0.9,20.3-7.5,62.1-20.8,87.4
		c-1.3,2.5-5.9,10.9-2.6,15.4c2.7,3.8,10,3.3,10,4.3c0,1-6.6-0.1-11.1,3.5c-2,1.6-3,3.7-5,11.8c-3.5,14.3-2.8,17.3-5.6,19.7
		c-3.6,3-8.8,1.5-15,0.5c-10.4-1.7-6.3,0.7-36,0.4c-15.3-0.1-26.3-0.9-41.7-1.9c-14-1-32.2-2.4-53.6-4.9c1.1-14.7,2.7-36.7,4-63.3
		c2.8-58.4,0.7-62.9,3.3-106.2c3.6-61.2,8.3-60.9,12.8-114.6c0.2-2.7,2.9-15.7,8.2-41.7c1.7-8.5,3.7-17.8,11-26
		c3.6-4,7.6-6.9,11.2-9.5c5.7-4,10.9-7.8,18.4-10.2c3.9-1.2,7.7-2.5,11.6-3.8c4.6-1.4,6.8-2,7.7-4c1.1-2.4-1.1-4.2,0-7.7
		c0.1-0.2,1.3-3.9,3.5-4.2C482.8,140.5,483.9,145.5,487.3,147.3z"/>
	<path fill="#B35E22" d="M595.9,512.2L595.9,512.2c5.1,1,10.2,1.9,15.3,2.9c1.2,1.9,5,8.3,2.6,12.1c-1.2,1.9-3.3,2.3-10.9,4
		c-5.5,1.2-9.9,2.3-12.2,2.8c-0.5-2.7-1.1-8.2,1-14.4C593,516.4,594.6,513.9,595.9,512.2"/>
</g>
<g id="vs-shade">
	<g>
		<path opacity="0.4" d="M456.1,38.1c1.2,0.5,2.8-6.1,8.4-11.3c6-5.5,16-6.4,35.7-7.9c9.3-0.7,13.4-0.5,18,0.8
			c3.8,1.1,12.3,3.5,14.6,9.9c0.7,1.8,0.4,5-0.3,11.2c-0.7,6.7-1.2,7-1.3,10.7c-0.2,5.4,1,6.3,1.8,13.6c1.1,9.3,0,14.7,1,14.9
			c1,0.2,1.5-4.5,5.2-10.4l3.2,0.2c0.3-0.4,1.2-1.8,2.9-2.1c2.5-0.5,4.4,1.8,4.7,2.1c2.6,3,1.3,7.1,2.1,7.2
			c0.9,0.2,4.1-5.1,2.5-10.1c-0.2-0.7-1.1-3.6-3.5-4.7c-1.7-0.8-3.9-0.5-6.2,0.7c2.5-2.3,4.2-3.5,4.1-5.9c-0.1-3.2-3.2-3.3-6.5-9.7
			c-1.7-3.3-2.4-6.1-3.1-9.4c-1.9-8.3-0.3-10.1-2.3-13.6c-1.8-3.1-5-4.5-11.3-7.2c-4.2-1.8-10-4.2-18-4.9c-4.4-0.4-9.5,0.2-19.8,1.4
			c-2.1,0.2-7.4,0.9-14.1,2.7c-5.1,1.3-7.3,2.3-9.5,3.9c-3.4,2.5-5.2,5.4-5.9,6.5C455.8,31.6,455,37.6,456.1,38.1z"/>
		<path opacity="0.4" d="M508.1,60.9c3.3,2.1,3.9,5,5,4.8c1.3-0.3,2.2-4.6,0.9-8.2c-0.1-0.4-1.7-4.4-5.7-5.8
			c-3.7-1.3-5.5,1-13.9,3.4c-7.7,2.2-11.3,1.7-11.9,3.9c-0.6,1.8,1.2,4.6,3.1,5c2.2,0.4,2.9-2.8,7.1-4.6c4-1.7,8.1-0.9,10.5-0.4
			C504.8,59.5,506.4,59.8,508.1,60.9z"/>
		<path opacity="0.4" d="M450.4,77c1.1,1,3.3,0.3,4.4,0c3.2-1,3.5-2.8,6.3-4.6c4.5-2.9,7.5-0.6,10-3.4c1.5-1.7,2.1-4.4,1.1-6.4
			c-0.3-0.7-1.2-1.9-4.6-2.9c-5.7-1.7-14.5-1.5-16.3,2.6c-0.5,1.1,0.1,1.3,0.1,4.2C451.5,72.7,449,75.6,450.4,77z"/>
		<path opacity="0.4" d="M477.8,83.1c-1.3,1.5,0,3.2-1.3,4.7c-0.3,0.3-0.6,0.5-0.9,0.7c1.9-0.6,3.9-1.3,6.7-2c3.2-0.8,4.9-1,5-1.8
			c0.1-1-2.3-2.3-4.4-2.6C482,82,479.2,81.5,477.8,83.1z"/>
		<path opacity="0.4" d="M472.5,88.6c-1.3-0.8-0.5-2.5-2-3.9c-1.2-1.2-3.3-1.6-4.4-0.8c-0.4,0.3-0.4,0.6-1.3,2.3
			c-1.2,2.3-1.6,2.7-1.4,3.2c0.4,0.9,2.4,0.8,3.8,0.7c2.9-0.2,5-0.7,7.2-1.3C473.7,89,473,88.9,472.5,88.6z"/>
		<path opacity="0.4" d="M475.6,88.5c-0.4,0.1-0.8,0.3-1.3,0.4C474.8,88.8,475.2,88.7,475.6,88.5z"/>
		<path opacity="0.4" d="M492.4,80.5c-1.2,0.2-2.2,1.8-2.1,3.2c0.1,1.4,1.3,2.3,2.2,2.9c3.8,2.7,9.2,2.8,9.6,1.7
			c0.2-0.5-1-0.9-4.2-3.7C494.5,81.7,493.7,80.3,492.4,80.5z"/>
		<path opacity="0.4" d="M542.6,85.2c0.5,0.6,2.7,0,3.9-1.3c2-2.1,2-6.3-0.3-8.1c-1.6-1.3-4.3-1.1-4.7-0.3c-0.4,0.9,2,1.9,2.3,4.4
			C544.2,82.7,541.9,84.5,542.6,85.2z"/>
		<path opacity="0.4" d="M471,107.7c1.2-1.2,0.8-2.3,1.8-3.9c0.9-1.4,2.4-2.1,6.5-3.1c7-1.7,11-2.6,16.2-1.6c3.2,0.6,5.7,1.8,6,1.2
			c0.3-0.5-1.4-2-2.4-2.8c-1.6-1.2-5.2-3.3-14.4-2.9c-7,0.3-10.5,0.5-14.1,2.9c-4.4,2.9-7.8,8.4-6.5,10.4
			C465.2,109.5,469.2,109.4,471,107.7z"/>
		<path opacity="0.4" d="M541.5,113.4c1.5,1,6.1-1.7,8-5.6c0.7-1.5,0.5-1.9,1.3-7.4c0.9-6,1.4-7,0.7-7.6c-1.6-1.4-7.5,1-9.4,5.2
			c-0.8,1.8-0.2,2.4-0.5,8.4C541.2,111.6,540.6,112.9,541.5,113.4z"/>
		<path opacity="0.4" d="M556.9,127c0.1-3.5,0-12.1-4.8-14.6c-4.4-2.3-10.5,2-17.7,6.9c-2.4,1.6-4.7,3.1-6.9,4.6
			c1.8-1.8,3-3.2,2.7-3.6c-0.5-0.7-4.8,2.6-13.1,6c-7.2,3-13.1,4.2-17.8,5.2c-8.7,1.8-13,2.8-17,2.1c-10.4-1.7-16-9.7-17.5-8.4
			c-1.1,1,1,6,4.4,9.4c3.2,3.2,5,2.5,10.7,6.3c0.9,0.6,1.7,1.2,2.3,1.7c-2.6-0.3-5.3,2.2-6.1,4.9c-1.1,3.2,0.2,7.8,3.4,8.7
			c2.7,0.8,5.7-1.2,6.9-3.6c1-2,0.8-4.6-0.2-6.6c0.6,0.4,1.2,0.7,2.1,0.9c1.5,0.3,2.7,0.1,4.3-0.6l0,0c0.6,1,6.8-3.4,19.1-4.5
			c7.8-0.7,7.5,0.9,13.6,0c7.5-1.1,13.2-4.3,23.3-10.1C552.4,129.8,555.2,128.1,556.9,127z"/>
		<path opacity="0.4" d="M645,240.4c-2.5-26.8-5.1-43.2-11.4-61.7c-6.9-20.2-13-28-21.3-31.2c-10.1-3.9-20.5,0-25.7,2.4
			c0.8,23.5,2.2,47.9,4.3,73c0.9,11.1,2,22.1,3.1,32.9c3.3-11.4,4.6-20.8,5.2-27.2c2-21.3,3-32,0-41.8c-1.1-3.6-3.6-10.4-0.3-15.1
			c1.2-1.7,3.5-3.6,5.6-3.2c3.9,0.8,4.9,9.4,5.7,14.6c2.7,16.8,6.7,17.6,11.5,36c5.3,20.6,2.2,26.6,5.2,65.3
			c2.6,32.9,4.9,29.3,5.2,49.1c0.4,25-3,44.2-6.3,62.1c-5.4,29.8-7.6,24.3-12.5,52.7c-4.7,27-3.5,37-12.5,44.9
			c-13.1,11.5-33.8,6.7-33.9,9.9c-0.1,2.7,14.2,5.8,27.3,8.6c7.1,1.5,13.1,2.6,17.1,3.3c3.8-20.6,7.2-37.5,9.6-49
			c9.5-46.7,14.9-67,21.7-108.3c2.4-14.6,3.6-21.9,4.4-29.3C650.1,297.7,648.2,275.5,645,240.4z"/>
		<path opacity="0.4" d="M476.6,597.6c0.3-7.2,1.4-13,2.5-17.2c2-7.8,3.7-13.7,8.9-18.8c1.2-1.2,5.1-4.8,18.3-8.4
			c6.7-1.8,16.4-3.8,28.5-4.1c0.4-3.8,0.8-7.6,1.3-11.4c1.7-1.5,1.5-4.1,1.6-7c0.1-2,1.1-6.3,3.3-14.8c1.5-6.1,2.8-10.9,5.3-16.1
			c3.6-7.3,5.9-7.4,10.7-14.9c1.9-3,6.9-11.2,8.9-20.9c2.1-10.3-1.5-11.4-1.6-26.1c-0.1-8.6,1.1-9.6,4.4-33.8
			c1-7.4,1.7-13.5,2.1-17.4c5,4.7,9.9,9.4,14.9,14.2c-0.7-4.5-2.3-10.8-6.3-17.2c-4-6.5-9.3-11.5-8.9-12c0.5-0.5,6.4,6.7,15.7,7.8
			c1.1,0.1,5.9,0.8,6.8-1c0.9-2-3.9-5.3-10.4-12.5c-6.1-6.7-11.4-14.2-10.4-15.1c0.9-0.9,6.8,5.9,17.8,8.9
			c5.6,1.5,12.1,1.9,12.5,0.5c0.5-1.5-6.4-4.1-17.8-12.5c-7.4-5.5-9.3-8-10.4-9.9c-0.4-0.7-6.4-10.9-2.7-15.6
			c3.1-4,9.5,0.1,17.9-4.7c3.9-2.2,7.6-6.1,6.8-7.8c-1.2-2.9-12.6,2.6-17.8-2.6c-1.3-1.3-1.7-4.7-2.6-11.5c-1.1-8.3-1.6-12.4-1-15.7
			c1.1-6.8,4.1-9,2.6-12.5c-1.2-2.9-3.8-3.3-6.8-5.2c-1.8-1.2-6.1-4.4-12.7-26.9c-1.5-5.1-3.3-11.9-5-20.1l2.7-15.5
			c-9.6,4.6-13.2,10-14.7,14c-2.3,5.9-0.5,10.1-4.7,16.2c-2.4,3.5-5.1,5.1-4.7,7.8c0.4,2.8,3.5,2.9,4.7,6.3
			c0.9,2.4,0.1,4.4-2.1,10.4c-2.8,7.8-4.2,11.7-4.2,12.5c0.1,5,3.4,8.7,9.4,15.7c4.8,5.5,5.5,4.8,7.8,8.4c4.4,6.6,4.9,13.4,5.2,17.2
			c0.5,7.3-0.8,12.6-1.6,16.2c-3.1,15.4,2.3,19.4,4.7,54.3c1,14.2,0.4,17.9,0,19.8c-2.7,13.7-10,20.2-15.7,28.7
			c-9.8,14.8-10.4,33.7-11.5,71.5c-0.3,9.6-0.3,23.1,1,39.4c-14.8,0.3-39,0.7-64.2,0.6c-7.9,0-18.7-0.1-32.9-1.4
			c-9.5-0.9-17.4-2-23-2.9c2.6,9.2,6,22.7,8.3,39.5c2.4,17.2,3.3,34.9,5.3,34.9c1.7,0,0.9-12.8,9.9-25.6c2.7-3.9,6.4-9,12.5-10.4
			c2.7-0.6,4.7-0.2,7.3,0v0c-0.8,5.4,3.6,8.1,12.1,20.4c7.9,11.4,12.8,21.6,15.7,31.5c0.7,2.3,4.7,15.9,1.5,17.6
			c-1.4,0.7-3.6-1.2-8.4-5.2c-12.1-10.1-18.6-15.6-19.8-14.6c-1.8,1.4,7.5,16.4,8.4,17.8c6.7,10.7,10.5,14.2,18.8,26.1
			c4.1,5.9,8,11.5,10.1,15.8c-1.3-9.3-2.7-17.7-3.9-25.7C484.2,639.6,480.9,619.9,476.6,597.6z"/>
		<path opacity="0.4" d="M578.3,960.6c-2.3-2.4-4.4-4.2-6.5-5.5C573.6,957.1,575.8,958.9,578.3,960.6z"/>
		<path opacity="0.4" d="M594.7,561.6c1.1-10.7,2.4-24.5,2.4-24.5c0,0-4.3-3.8-6.3-3.1c-2.1,0.7-2,6.1-2,9.4
			c-0.1,5.7-0.3,21.7-7.6,30c3.9-9.8,5.7-13.4,5-13.8c-0.9-0.5-3.4,5.6-10.8,9.8c-1.8,1-5.1,2.9-9.6,3.3c-6.5,0.6-7.7-2.5-15.1-2.1
			c-4.1,0.2-5.2,1.3-8.4,0.5c-4.5-1.1-6.3-4.1-7.5-3.4c-1.6,1,0.5,7.4,2.6,11.7c2,4,3.7,7.5,6.8,8.1c3.4,0.7,4.7-2.8,8.6-2.3
			c4.1,0.5,5.4,4.9,7.9,4.3c2.5-0.6,1.7-5.2,4.7-6.6c-1.8,5,3.9,8.5,8.2,21.7c2.3,7.1,2.9,12.9,3.1,15.1c0.9,10.7-1.8,13.1-2.1,27.7
			c-0.1,6.2-0.2,10.3,1,15.7c2.1,9.2,6.5,15.2,7.8,17.2c9.8,14.9,1.8,36.4,1,82.5c-0.4,25.6,1.8,31.4-2.1,47.5
			c-2.8,11.5-5.5,22.6-14.6,32.9c-11,12.4-24,15.3-23,20.9c0.7,3.8,7.6,6.9,13.1,6.3c3.3-0.4,4.3-1.8,16.2-8.4
			c4.5-2.4,6.4-3.4,8.4-2.6c0.7,0.3,2.4,1.2,4.2,8.4c1,3.8,2.5,10.1,1.6,18.8c-0.3,3.1-0.7,6.2-2.2,10.1c-0.6,1.6-2.3,5.6-5.6,9.2
			c-1.6,1.7-3.7,3.5-15.7,8.9c-9.6,4.3-11.4,4.6-13.6,7.3c-3.7,4.6-3.7,10.1-3.7,12c0,5.9,2.5,14.1,8.4,16.6
			c2.1,0.9,3.2,0.4,5.7,0.6c2.8,0.2,6.3,1.2,10.3,3.9c-3.1-3.6-4.7-7.5-4-11.2c0.9-4.9,5.9-8.6,8.4-10.4c5.4-4,8.4-3.3,11-6.8
			c3-4.1,2-9.6,1.6-11.8c-3.1-18.7,2.8-37.7,3.1-56.6c0.3-24,0.5-36,0.5-50.7c0-18.2-0.1-24-0.4-55.9c-0.4-47.1-0.6-70.8-0.2-77.2
			c1.8-30.8,4.7-36.8,2.2-55.4c-1.1-8.4-3.1-17.2-2.4-30.8C591.9,581.6,592.4,582.9,594.7,561.6z"/>
		<path opacity="0.4" d="M494.6,705.9c-1.6-20.7-3.2-40.3-3.4-40.3c-0.1,0-0.6,6.8,0.2,17.5c-0.2-0.4-0.4-0.8-0.6-1.2
			c0.3,2.3,0.7,4.7,1,7.1c0,0,0.1-0.1,0.1-0.1C492.5,694,493.3,699.8,494.6,705.9z"/>
		<path opacity="0.4" d="M576.8,978.3c-6.4,1.6-7.4-0.4-16.7,0.5c-9.4,0.9-11.2,3.3-15.1,1.6c-4.3-1.9-7.3-6.9-7.8-11.5
			c-0.8-6.8,4-9.2,2.6-14.6c-0.4-1.4-1.1-2.7-2-3.8c1.5-4.6,1.7-9.8-0.6-13.4c-0.3-0.5-1.9-2.9-4.7-3.7c-4.5-1.2-9.4,2.7-12,4.7
			c-4.1,3.2-4.5,5.3-6.2,5.1l0,0c-0.5-0.2-1-0.5-1.5-0.8c-1.7-1.4-3.2-4.7-3.5-7.9c0.1-1.6,0.5-3.5,1.1-5.7l0,0
			c3.3-4.9,11.2-0.9,17.8-6.4c0.9-0.8,2.6-2.4,6.3-14.6c4.9-16.6,7.4-24.9,4.2-30.8c-1.4-2.6-3.7-4.9-4.2-9.4
			c-0.2-1.6-0.2-3.9,1-7.8c1.4-4.5,3.5-8,9.4-16.2c6.1-8.4,8.7-11.3,7.8-12.5c-1-1.4-5.3,0.2-6.3,0.5c-3.9,1.4-6.6,3.8-11,8.4
			c-7.7,8.1-8.7,10.5-11.5,10.4c-3,0-6-2.9-6.8-5.7c-0.8-3,1-5.4,2.1-7.8c5-11.3-6.1-21.4-1.6-27.7c3.9-5.4,14.4-1.1,16.2-5.2
			c1.6-3.8-6.7-8.5-13.6-18.8c-5.7-8.5-5.4-13.3-10.4-30.8c-5.3-18.4-7.5-19.4-11.5-32.9c-1.6-5.4-2.9-10.6-3.9-15.5
			c0.3,3.9,0.6,7.9,0.9,11.8c-1.2-10.6-2.4-20-3.7-28.7c-3,2.5-14.3-4.4-15.8-2c-1.6,2.3,9.6,9,12.5,21.3c1.7,7.2-0.2,13.2-1,16.3
			c-4.3,15.9,1,27.3,4.2,59.5c5.4,55.1-6.7,54.9,2.6,83c3.2,9.8,8.9,22.4,3.1,29.2c-4.8,5.6-13.4,2.6-23,11
			c-5.9,5.1-8.8,11.6-7.8,12.5c1.3,1.2,7.8-8,15.7-6.8c4.1,0.6,5.2,3.5,13.6,9.4c3.3,2.3,6.2,4,8.4,5.2c-0.2,0.6-0.4,1.1-0.6,1.7
			c-3,1.9-7.2,4.1-12.5,5.2c-3.5,0.7-8.4,1.1-20.4-1.6c-15.1-3.3-25.6-8-26.1-6.8c-0.4,0.8,5,2.6,8.9,8.9c2,3.3,1.6,4.6,3.7,6.5
			c3,2.8,5.8,1.8,10.3,3.4c5.8,2.1,5.4,5.2,12.1,9.9c2.6,1.8,4.1,2.3,6,2.9c-2.4,4.4-4.1,9-9.1,10.2c-6.1,1.5-9-3.9-15.7-1.6
			c-4,1.4-3.8,3.7-9.9,8.4c-2.6,2-8,6.1-14.6,7.3c-4.6,0.8-9.3-0.5-18.3-3.1c-13.2-3.9-16.4-6.7-20.6-4.6c-3.5,1.8-6.3,6.4-5.5,10.4
			c0.6,2.9,2.9,4.6,3.5,5c3.9,2.9,8.8,2,13.7,1.3c11.5-1.5,7.3,0.4,21.7-1.4c13.5-1.7,20.2-2.5,23.7-4.9c2.4-1.7,4.9-4,8.9-4.2
			c3.3-0.1,4.4,1.4,8.4,2.1c3.7,0.6,4.2-0.5,11.5-1.6c6.6-0.9,10.6-1.5,16-1.2c3.2,0.2,5.3,0.6,7-0.9c1.8-1.6,1.7-4.2,1.8-6.7
			c0.1-1.5,0.2-2.8,0.3-4c0.9,0.2,1.7,0.2,2.7,0c4.2-0.8,6.8-4.4,7.7-5.7c2.3-3.3,4-8.4,2.7-12.7c0.8,0.6,1.7,1.3,2.5,2.1
			c3.9,4.1,3.5,8.3,5.4,8.9c0.1,0.8,0.3,1.7,0.4,2.6c1.6,10.6,1.3,11.5,2.6,14.6c0.9,2.2,4.5,10.3,12,13.1c3.4,1.2,3.7,0,13.6,0.2
			c9.7,0.3,10.4,1.5,14,0.3c4.4-1.4,7.1-4.5,11-8.8c2.2-2.4,6.8-8,5.8-9.2C588,972.5,584.2,976.5,576.8,978.3z"/>
		<path opacity="0.4" d="M518.8,211.6c-2.4,0.8-12.3,3.9-22.4,4.3c-5.3,0.2-7.5-0.5-9.9,1.4c-2.7,2.2-3.5,5.9-3.6,8.9l29.7-4.4
			c5.1-0.1,10.2-0.3,15.3-0.4c1.1-4.2,2-9.6-0.4-11.4C525.8,208.8,523.7,210,518.8,211.6z"/>
		<path opacity="0.4" d="M403.2,475c0.2-12.5,0.5-39-1.3-73.1c-1.2-21.9-2.2-27.8-2.6-48c-0.5-25.6,0.7-41.7,0.2-41.7
			c-0.6,0-4,33.2-4.4,73.5c-0.1,12.1,0.1,16.5,0,47.5c-0.1,27.5-0.3,32.8-0.5,36.6c-1,20.2-3.1,38-4.2,47c-0.7,6.2-1.4,11.4-2,15.1
			c4.1,0.3,8.3,0.6,12.4,0.8C402.4,509.6,403,489.9,403.2,475z"/>
		<path opacity="0.4" d="M410.7,254.6c1.3,0.2,2.9-19,11.5-44.9c2.6-7.9,4.4-13.4,7.8-20.9c4.7-10.4,8.3-15.4,7.4-16.1
			c-1.2-0.9-9.7,5.9-15.5,15.4c-4,6.5-6.1,13.1-8.3,26.9C410.6,234,409.4,254.5,410.7,254.6z"/>
	</g>
</g>
<g id="vs-outline">
	<path fill="none" stroke="#000000" stroke-width="5" stroke-linecap="round" stroke-linejoin="round" stroke-miterlimit="10" d="
		M455.1,59.4c-0.5-1.5-1.1-3.7-1.3-6.4c-0.3-3.5-0.4-11.6,4.7-19.2c2.8-4.1,5.9-6.4,7.4-7.4c1.6-1.1,5.7-3.8,17.6-6.3
		c8.2-1.7,12.5-2.6,18.8-2.3c1.5,0.1,11.6,0.5,22.3,5.9c4.5,2.3,6.4,4,7.4,6.3c1.9,4.1,0.6,8.9,0.4,9.8c-1,3.7-2.7,4.6-2.7,7.8
		c-0.1,2.5,0.9,4.1,1.6,5.9c2.4,5.9,1.8,11.6,1.6,14.5c-1,10-7.8,16.8-10.2,19.2c-4.2,4.2-8.6,6.6-11.4,7.8c-2.6-2-6.2-4.2-10.6-5.9
		c-2.5-1-6.8-2.6-12.5-2.7c-3.1-0.1-6,0.5-11.7,1.6c-5.7,1.1-8.6,1.7-10.6,3.1c-2.8,2.1-4.1,4.9-5.9,8.6c-2.9,6.2-2.9,10.1-4.3,10.2
		c-1.5,0.1-3.2-4.1-3.9-6.7c-1.5-5.1-0.6-8.3-0.4-17.6c0.1-2.9,0-5.2,0-6.7"/>
	<path fill="none" stroke="#000000" stroke-width="4" stroke-linecap="round" stroke-linejoin="round" stroke-miterlimit="10" d="
		M447.3,65.9c1-2.6,3.8-3.6,6.8-4.7c3.9-1.4,7.2-1.5,10.2-1.6c3.3-0.1,6.1,0.2,8.1,0.5c0,1.6-0.1,4-0.8,6.8
		c-0.6,2.7-1.2,5.1-2.9,7.3c-2.9,3.8-7.2,4.7-8.6,5c-0.8,0.2-8.1,1.6-11-2.2c-0.8-1.1-1.1-2.5-1.6-5.4
		C447,68.7,446.8,67.3,447.3,65.9z"/>
	<path fill="none" stroke="#000000" stroke-width="4" stroke-linecap="round" stroke-linejoin="round" stroke-miterlimit="10" d="
		M472.3,60.2c0.6-0.4,1.6-1.1,2.9-1.6c3.4-1.2,7.3-0.9,7.3-0.9h0c1.3-0.6,3.2-1.4,5.5-2.3c2.1-0.8,6-2.2,10.4-2.9
		c5.8-0.9,11.8-1.9,14.4,1.3c1.5,1.9,1.2,4.7,0.8,8.4c-0.4,3.1-0.6,5.5-2.3,7.3c-0.9,0.9-2.3,1.9-10.7,2.3
		c-7.7,0.4-11.5,0.5-13.8-1.3c-3.2-2.6-4-7-4.2-7.8c-0.4-2.1-0.2-3.9,0-5"/>
	<path fill="none" stroke="#000000" stroke-width="5" stroke-linecap="round" stroke-linejoin="round" stroke-miterlimit="10" d="
		M512.8,53.9c1.3-0.3,3.3-0.6,5.7-0.5c2,0,3.3,0.3,7.8,1.3c5.3,1.2,8.5,1.9,14.1,3.4c1.6,0.4,3,0.8,3.9,1"/>
	<path fill="none" stroke="#000000" stroke-width="6" stroke-linecap="round" stroke-linejoin="round" stroke-miterlimit="10" d="
		M453.3,42.9c0.1-2.8,0.6-9.6,5.2-16.2c1.7-2.4,5.7-8.1,12.5-9.9c2.4-0.6,3.5-0.3,7.8-1.3c4.6-1.1,7.7-2.4,8.9-2.9
		c7.7-3,17.4-0.9,25.6,0.8c2.6,0.5,12.4,2.8,23.5,9.1c7.4,4.2,11.1,6.5,12.5,11c1.6,5.1-1.2,8.7,1.8,12.8c1.9,2.6,4.1,2.5,6.3,6
		c0.4,0.7,1.5,2.6,2.1,6.3c0.8,5.4-0.4,9.3-2.3,16.7c-2.3,8.9-1,4.8-3.7,14.9c-1.2,4.4-2.7,10.1-4.7,16.7"/>
	<path fill="none" stroke="#000000" stroke-width="4" stroke-linecap="round" stroke-linejoin="round" stroke-miterlimit="10" d="
		M488,62.8c0.9-0.9,2.7-2.6,5.5-3.7c3-1.1,5.5-0.9,6.3-0.8c4.5,0.5,7.4,3.2,8.4,4.2"/>
	<path fill="none" stroke="#000000" stroke-width="4" stroke-linecap="round" stroke-linejoin="round" stroke-miterlimit="10" d="
		M496.1,60.7c-1.1,0.8-1.5,2.1-1,2.9c0.5,0.9,1.9,0.9,2.6,0.9c0.6,0,1.2,0,1.6-0.4c0.9-0.8,0.6-2.7,0-2.9c-0.5-0.1-1.1,0.9-1.6,1.6"
		/>
	<path fill="none" stroke="#000000" stroke-width="4" stroke-linecap="round" stroke-linejoin="round" stroke-miterlimit="10" d="
		M471.1,69c-0.5-0.7-2.3-2.9-5.5-3.7c-2.4-0.5-4.3,0-5,0.3c-3.6,1.1-5.4,3.9-6,4.8"/>
	<path fill="none" stroke="#000000" stroke-width="4" stroke-linecap="round" stroke-linejoin="round" stroke-miterlimit="10" d="
		M463,66.9c1.1,0.8,1.5,2.1,1,2.9c-0.5,0.9-1.9,0.9-2.6,0.9c-0.6,0-1.2,0-1.6-0.4c-0.9-0.8-0.6-2.7,0-2.9c0.5-0.1,1.1,0.9,1.6,1.6"
		/>
	<path fill="none" stroke="#000000" stroke-width="4" stroke-linecap="round" stroke-linejoin="round" stroke-miterlimit="10" d="
		M489,75.3c0.3,0.2,2.4,2,2.3,5c0,2.7-1.8,4.4-2.1,4.7"/>
	<path fill="none" stroke="#000000" stroke-width="4" stroke-linecap="round" stroke-linejoin="round" stroke-miterlimit="10" d="
		M464.2,83.1c-0.2,0.1-2,1.3-2.1,3.4c-0.1,2,1.5,3.9,3.8,4.4"/>
	<path fill="none" stroke="#000000" stroke-width="6" stroke-linecap="round" stroke-linejoin="round" stroke-miterlimit="10" d="
		M535.8,71.6c3.2-2.7,5.6-5,7.3-6.8c2.1-2.2,3.2-3.6,5.2-3.9c1.9-0.3,4.2,0.3,5.5,1.8c1.1,1.3,1,2.6,0.8,7.8
		c-0.4,9.3-0.2,10.1-1,12.3c-0.5,1.2-0.3,0.4-3.1,5.7c-1.6,3-2.1,4.1-3.4,5.7c-1,1.3-3.4,4.2-5,3.7c-0.3-0.1-1.1-0.6-1.3-2.6"/>
	<path fill="none" stroke="#000000" stroke-width="6" stroke-linecap="round" stroke-linejoin="round" stroke-miterlimit="10" d="
		M535.5,74c-0.3,1.6-0.5,4,0,6.8c0.7,3.5,2,4.7,3.4,7.8c2.4,5.6,2.1,10.8,1.8,14.6c-0.2,2.5-0.7,6.1-2.1,10.2"/>
	<path fill="none" stroke="#000000" stroke-width="6" stroke-linecap="round" stroke-linejoin="round" stroke-miterlimit="10" d="
		M454.6,109.2c0.7,2.4,2,5.9,4.1,9.7c3.2,5.9,7.3,13.3,15.4,16.7c9.9,4.1,19.8-0.4,22.2-1.6"/>
	<path fill="none" stroke="#000000" stroke-width="6" stroke-linecap="round" stroke-linejoin="round" stroke-miterlimit="10" d="
		M474.2,135.6c2.9,1.9,4.8,3.8,6,5.2c1.1,1.3,2.1,2.8,4.2,4.4c1.2,1,2.4,1.7,3.1,2.1c4.1-1.5,10-3.8,16.7-7.3
		c11-5.7,18.6-11.6,27.4-18.5c4.5-3.6,10.5-8.4,17.2-14.6"/>
	<path fill="none" stroke="#000000" stroke-width="6" stroke-linecap="round" stroke-linejoin="round" stroke-miterlimit="10" d="
		M478,138.6c-1,4.2-1.5,7.6-1.7,10.1c-0.9,9.1,0.6,10.5,1.3,11c1,0.7,2.3,0.6,2.9,0.5c11.2-1.2,16.8-1.8,18.8-2.6
		c15.1-5.7,26.6-12.3,26.6-12.3c10.5-6,20.9-12.1,31.1-18.3c-0.5-3.3-1.6-7.6-3.7-12.3c-1.4-3.1-3-5.7-4.4-7.8"/>
	<path fill="none" stroke="#000000" stroke-width="4" stroke-linecap="round" stroke-linejoin="round" stroke-miterlimit="10" d="
		M482.8,145.5c-0.7,1.5-1.3,3.3-1.8,5.2c-1.1,4.1-1.5,7.7-1.6,10.7"/>
	<path fill="none" stroke="#000000" stroke-width="5" stroke-linecap="round" stroke-linejoin="round" stroke-miterlimit="10" d="
		M490.5,147.3c0,1.4-0.1,3.2-0.8,5.2c-1.2,3.8-3.4,6.2-4.7,7.4"/>
	<path fill="none" stroke="#000000" stroke-width="4" stroke-linecap="round" stroke-linejoin="round" stroke-miterlimit="10" d="
		M466.1,105.8c3-3.7,5.8-5,7.8-5.5c1.3-0.3,1.5-0.1,5.2-0.5c4.4-0.5,4.6-0.8,7.3-1c0.9-0.1,4.6-0.4,9.4,0.3c2.8,0.4,5.2,1,7,1.6"/>
	<path fill="none" stroke="#000000" stroke-width="5" stroke-linecap="round" stroke-linejoin="round" stroke-miterlimit="10" d="
		M467.1,108.2c1.1,0.3,2.9,0.7,5,0.8c3.5,0.2,5-0.5,11-1.6c3.6-0.7,5.2-0.8,10.4-1.8c1.9-0.4,4.2-0.8,6.8-2.3
		c1.3-0.7,2.2-1.5,2.9-2.1"/>
	<path fill="none" stroke="#000000" stroke-width="6" stroke-linecap="round" stroke-linejoin="round" stroke-miterlimit="10" d="
		M474.2,154c-2.3,0.6-5.7,1.6-9.8,3.1c-2.5,1-8.4,3.4-22.3,12.5c-8.4,5.5-12.7,8.3-15.3,11.4c-5.3,6.1-7.5,12.5-8.6,16.1
		c-6.1,19.4-8.5,41.4-9.8,52.5c-2.9,24.1-3.6,20.3-7.8,54c-2.1,17.1-3.2,25.6-3.9,34.9c-2.2,28.4,0.1,37.3-0.4,68.1
		c-0.2,11.8-0.6,12.7-3.5,57.2c-1.4,20.4-2.8,43.2-4.3,68.1c1.8,0,4.9,0,8.6,0.4c6.3,0.6,10.9,1.7,12.1,2c8.4,1.9,21.9,2.7,35.6,3.5
		c16.6,1,49.1,1.6,91.2,0"/>
	<path fill="none" stroke="#000000" stroke-width="5" stroke-linecap="round" stroke-linejoin="round" stroke-miterlimit="10" d="
		M477.6,159.6c-3.9,4.6-8.8,10.9-14,18.7c-4.2,6.3-11.4,18.1-18.4,35.2c-5,12.2-5.5,16.5-15.3,54.8c-9.6,37.5-9.9,36.4-11.7,46.6
		c-2.3,12.5-2.7,19-5.9,51.7c-3.8,39.4-3.8,36.6-5.1,51.7c-2.1,24.3-4.9,62.5-6.4,114.4"/>
	<path fill="none" stroke="#000000" stroke-width="5" stroke-linecap="round" stroke-linejoin="round" stroke-miterlimit="10" d="
		M423.3,388.6c-1.2-1.6-3.2-2.4-5.1-2c-2.7,0.6-4.4,3.6-3.9,6.3c0.4,2.2,2.3,4.2,4.7,4.3c2.8,0.1,4.7-2.5,5.1-4.7
		C424.1,392.1,424.4,390.2,423.3,388.6z"/>
	<path fill="none" stroke="#000000" stroke-width="5" stroke-linecap="round" stroke-linejoin="round" stroke-miterlimit="10" d="
		M425.2,339.4c-1.2-1.6-3.2-2.4-5.1-2c-2.7,0.6-4.4,3.6-3.9,6.3c0.4,2.2,2.3,4.2,4.7,4.3c2.8,0.1,4.7-2.5,5.1-4.7
		C426,342.9,426.4,341.1,425.2,339.4z"/>
	<path fill="none" stroke="#000000" stroke-width="5" stroke-linecap="round" stroke-linejoin="round" stroke-miterlimit="10" d="
		M433.2,292.2c-1.2-1.6-3.2-2.4-5.1-2c-2.7,0.6-4.4,3.6-3.9,6.3c0.4,2.2,2.3,4.2,4.7,4.3c2.8,0.1,4.7-2.5,5.1-4.7
		C434.1,295.6,434.4,293.8,433.2,292.2z"/>
	<path fill="none" stroke="#000000" stroke-width="5" stroke-linecap="round" stroke-linejoin="round" stroke-miterlimit="10" d="
		M440.8,247.2c-0.8-1.7-2.4-2.5-3.9-2.2c-2.2,0.5-3.7,3.4-3.5,6.1c0.2,2.2,1.6,4.3,3.5,4.5c2.2,0.2,3.9-2.3,4.3-4.5
		C441.2,250.7,441.6,248.9,440.8,247.2z"/>
	<path fill="none" stroke="#000000" stroke-width="5" stroke-linecap="round" stroke-linejoin="round" stroke-miterlimit="10" d="
		M459.4,203.4c-1-1.7-3-2.5-4.7-2.2c-2.6,0.4-4.4,3.3-4.1,6c0.3,2.2,1.9,4.4,4.2,4.6c2.7,0.2,4.6-2.3,5.1-4.4
		C460,206.9,460.4,205.1,459.4,203.4z"/>
	<path fill="none" stroke="#000000" stroke-width="5" stroke-linecap="round" stroke-linejoin="round" stroke-miterlimit="10" d="
		M481.3,164.2c-1-1.7-3-2.5-4.7-2.2c-2.6,0.4-4.4,3.3-4.1,6c0.3,2.2,1.9,4.4,4.2,4.6c2.7,0.2,4.6-2.3,5.1-4.4
		C481.9,167.8,482.4,166,481.3,164.2z"/>
	<path fill="none" stroke="#000000" stroke-width="5" stroke-linecap="round" stroke-linejoin="round" stroke-miterlimit="10" d="
		M477.7,227.2c6.9-1.6,12.9-2.5,17.6-3.1c13.8-1.7,24.7-1.4,30.2-1.2c4,0.2,7.4,0.5,9.8,0.8"/>
	<path fill="none" stroke="#000000" stroke-width="5" stroke-linecap="round" stroke-linejoin="round" stroke-miterlimit="10" d="
		M482.8,226.1c-0.5-2.1-1.1-5.6,0.8-7.5c1.4-1.5,3.7-1.5,5.9-1.6c4.7-0.2,9.1-2,13.7-2.7c5.6-0.9,13.2-2.2,24.3-4.3
		c0.1,3.8,0.3,7.6,0.4,11.4"/>
	<path fill="none" stroke="#000000" stroke-width="6" stroke-linecap="round" stroke-linejoin="round" stroke-miterlimit="10" d="
		M556.9,127c3.7,1.6,9.7,4,17.1,6.3c12.8,4,16.1,3.3,24.3,6.7c3.3,1.3,13.2,5.4,21.5,14.1c8.4,8.7,11.7,18.2,13.7,24.7
		c9.7,31.2,12.3,68,13.3,87.3c2.2,40,0.7,57.6-0.8,69.7c-1.5,12.3-3.5,21.4-4.3,25.5c-6.6,31.5-16.7,82.5-30.5,153.9
		c-7.7-1.4-15.7-2.9-23.9-4.7c-14.6-3.2-28.3-6.8-41.1-10.6c1.6-11.6,3.6-20.8,5.1-27c2.3-9.7,3.5-12.3,8.2-29.4
		c3.2-11.8,4.9-17.7,6.3-24.3c3.8-17.7,4.9-31.3,5.1-34.5c0.7-9.1,1.4-19.3,0-32.5c-1.4-13.3-3.1-12.7-4.3-25.1
		c-1.7-17.5,1.4-20.9-0.4-36c-1.2-10.2-2.8-10-6.7-25.8c-3.5-14.5-6.7-27.9-6.3-44.6c0.2-8.8,0.8-24.2,9-41.1
		c1.2-2.4,6.2-12.4,16.1-22.3c5.2-5.2,9.3-9.2,16.1-11c7.7-2,14.4,0,17.8,1.3"/>
	<path fill="none" stroke="#000000" stroke-width="5" stroke-linecap="round" stroke-linejoin="round" stroke-miterlimit="10" d="
		M548.8,500.6c-1.6,2.2-3.7,5.5-5.7,9.8c-2.5,5.5-3.8,10.4-5.5,20.4c-2.7,16.5-4.1,24.7-3.1,34.1c0.7,7.1,2.3,12.8,3.5,16.4
		c0.9,3.5,3.4,5.9,6.3,6.3c0.2,0,3.3,0.3,4.7-1.6c1.3-1.7,0.3-4.1-0.4-7.4c-0.3-1.2-0.4-4.7-0.8-11.7c-0.2-3.5-0.2-8.6,0.4-14.9"/>
	<path fill="none" stroke="#000000" stroke-width="5" stroke-linecap="round" stroke-linejoin="round" stroke-miterlimit="10" d="
		M548.6,578.5c1.5,3,3.1,5.2,4.3,6.7c2.1,2.5,3.4,3.9,5.5,4.3c1.9,0.3,4.5-0.3,5.5-2c1-1.7,0-3.7-0.8-5.9c-1.1-3.1-1.2-6.5-1.6-13.3
		c-0.2-3.5,0.1-8.7,2.3-15.3"/>
	<path fill="none" stroke="#000000" stroke-width="5" stroke-linecap="round" stroke-linejoin="round" stroke-miterlimit="10" d="
		M565.4,582.8c0.4,0.5,1.8,2.2,4.3,2.7c0.2,0,3.6,0.7,5.5-1.2c1.3-1.2,1.3-3,0.8-9c-0.6-7-1.1-9.6-1.2-13.3
		c-0.1-3.7,0.2-6.7,0.4-8.6"/>
	<path fill="none" stroke="#000000" stroke-width="5" stroke-linecap="round" stroke-linejoin="round" stroke-miterlimit="10" d="
		M577.9,576.6c1.3-0.1,3.2-0.5,4.7-2c1.5-1.5,1.7-3.2,2.3-7.4c1.5-10,1.7-9.2,2-13.3c0.4-5.2-0.1-4.9,0.4-7.4
		c0.8-4.5,2.3-5.8,3.1-10.2c0.6-3.2,0.4-5,0.4-7.8c0-3.8,0.6-9.5,3.2-16.6"/>
	<path fill="none" stroke="#000000" stroke-width="6" stroke-linecap="round" stroke-linejoin="round" stroke-miterlimit="10" d="
		M590.5,536.2c6.7-3.9,12.1-5.3,16.1-5.9c2.1-0.3,5.8-0.6,7.3-3.1c1-1.6,0.7-3.3,0.5-4.7c-0.5-3.9-1.1-8.4-1.8-14.3"/>
	<path fill="none" stroke="#000000" stroke-width="6" stroke-linecap="round" stroke-linejoin="round" stroke-miterlimit="10" d="
		M409.2,534.3c3,12.2,6.9,30.1,10.4,52c1.9,11.8,3,20.8,4.2,30.3c4.2,34,3.7,41.5,7.3,64.2c3,19.1,3.5,14.8,6.3,32.4
		c2.6,16.6,2.9,25.8,5.7,68.9c1.9,29.5,1.8,25.6,2.6,39.7c2.3,38.9,3.5,58.5,1.6,65.3c-2.8,10-2.4,20.5-3.7,30.8
		c-0.3,2.5-0.7,5.6,1,8.4c2.1,3.4,5.7,3.4,6.8,6.8c0.8,2.6-0.9,3.8,0,5.7c1.3,2.9,6.3,2.7,10.4,3.7c6.5,1.5,6.3,4.7,16.2,11.5
		c8.2,5.7,6.6,2.3,28.2,12.5c3.7,1.8,5.7,2.3,7.8,1.6c7-2.5,6.9-18.6,6.8-22.5"/>
	<path fill="none" stroke="#000000" stroke-width="6" stroke-linecap="round" stroke-linejoin="round" stroke-miterlimit="10" d="
		M451.5,938.7c-5.2,3.9-8.7,7.6-11,10.4c-2.9,3.6-3.8,5.5-6.8,7.8c-3.6,2.8-6.4,3.2-11,4.7c-3.4,1.1-8.7,3.9-19.3,9.4
		c-11.8,6.1-13.9,7.9-14.1,10.4c-0.3,3.7,4,6.8,4.7,7.3c3.4,2.5,7,2.6,17.2,2.1c9.3-0.4,13.9-0.6,17.2-1c12.5-1.6,18.7-2.3,23-5.2
		c3.7-2.5,5.8-5.4,10.4-5.7c3.1-0.3,4.4,0.8,7.8,1.6c6.3,1.3,8.4-0.9,16.2-1.6c11.9-1,17,3.4,20.4,0c1.3-1.3,2.4-3.7,1.6-8.9"/>
	<path fill="none" stroke="#000000" stroke-width="6" stroke-linecap="round" stroke-linejoin="round" stroke-miterlimit="10" d="
		M468.7,558.5c3.3,23.4,6.8,42.3,9.4,55.3c4.6,23.1,6.8,30.2,10.4,51.7c3,18,4.6,31.5,6.3,45.9c2.1,18.3,2.9,28.7,5.7,63.7
		c4.5,55.2,6.7,82.8,6.8,83c5.5,25.4,14.1,48.3,4.7,64.7c-1.6,2.9-5.3,8.2-3.7,13.6c2.2,7.1,11.9,7.7,17.2,17.8
		c1.6,3.1,2.3,5.9,2.6,7.8c2.3-2.3,6.1-5.4,11.5-7.8c3.8-1.7,11.9-5.2,21.9-3.1c8.7,1.8,14.3,6.9,16.7,9.4
		c8-6.9,10.1-12.9,10.4-17.2c0.3-4-1-5.9-1.6-11.5c-0.9-8.8,1.2-15.4,2.1-18.8c1.8-6.9,2.1-14.2,2.6-54.8
		c0.4-34.5,0.6-51.7,0.5-66.8c-0.4-75.5-2.1-72.5-1-106c1.4-43.2,4.2-43.2,2.6-66.3c-1.3-19.7-4.6-37.8-0.5-52.7
		c0.6-2.3,3.3-11.5,3.7-24c0.1-3.9,0-7.2-0.2-9.4"/>
	<path fill="none" stroke="#000000" stroke-width="6" stroke-linecap="round" stroke-linejoin="round" stroke-miterlimit="10" d="
		M528.2,962.2c0.9,1.1,1.8,2.5,2.6,4.2c2.2,4.7,0.9,7.9,1.6,11.5c1.1,6.3,7.3,11.2,12,13.1c5.1,2,5.5-0.7,17.8,0.5
		c5.1,0.5,7,1.2,9.9,0c3.4-1.4,3.2-3.4,7.8-6.8c5.1-3.7,7.6-3,8.9-5.7c1.5-3.2-0.4-7.1-1.6-9.4c-2.5-4.9-6.5-7.6-8.9-8.9"/>
</g>
<g id="vs-reveal">
	
		<path opacity="0" fill="none" stroke="#000000" stroke-width="71" stroke-linecap="round" stroke-linejoin="round" stroke-miterlimit="10" d="
		M543.9,31.1c-31.5-1-63.2,2.4-93.8,10c0.1,2.6,0.1,5.3,0.2,7.9c30.6-0.6,61.3-0.4,91.9,0.5c3.6,0.1,7.4,0.3,10.5,2.1
		c3.1,1.8,5.2,5.9,3.6,9.2c-1,2-3.1,3.2-5.1,4.2c-23.3,11.2-50.5,6.6-76.4,6.8c-9.3,0.1-21.4,3.7-21.3,13
		c0.2,8.4,10.5,12.2,18.8,13.2c21.5,2.6,43.4,1.5,64.5-3.3c5.9-1.3,12.1-3,18-1.6c5.9,1.4,11.4,7,10.2,12.9c-1,4.9-5.8,8-10.5,9.6
		c-8.9,3.2-18.6,3.2-28,3.2c-16.9,0-33.9,0-50.8,0c-4.9,0-10,0.1-14.1,2.7c-4.1,2.6-6.4,8.7-3.3,12.5c2.1,2.6,5.8,3.2,9.1,3.4
		c40.2,3.3,83.5-8,119.2,10.7c1.2,0.6,2.4,1.3,3.1,2.5c1.6,3.1-1.9,6.2-4.9,7.8c-14.7,7.2-31.6,7.8-48,8.5
		c-41.1,1.7-82.9,4.9-121.2,20.2c-6.6,2.7-14.5,8.7-11.6,15.2c56.5,8.2,112.1-15.7,168.7-22.8c17.7-2.2,36.6-2.6,52.2,6
		c5.6,3.1,11.1,8.2,10.7,14.6c-0.3,5.5-4.9,9.7-9.5,12.7c-20.9,13.4-47.4,12.7-72.3,12.8c-43.9,0.1-87.6,4-131.3,7.8
		c-8.3,0.7-18.6,3.3-19.9,11.5c-0.8,4.9,2.6,9.8,6.9,12.3c4.3,2.5,9.4,3.2,14.4,3.7c54.5,5.8,110,2.3,163.4-10.3
		c8.2-1.9,16.5-4.1,24.8-3c8.3,1.1,16.7,6.3,18.8,14.4c1.1,4.3,0.4,8.8-0.4,13.2c-0.4,2.5-1,5.2-2.9,6.9c-1.6,1.5-3.9,1.8-6.1,2.1
		c-58.5,7.8-117.8-8.1-176.7-4.5c-15.5,1-30.9,3.3-46.2,5.6c-6.4,1-13.5,2.4-16.9,7.9c-3.4,5.6-1,13.4,3.8,17.9
		c4.9,4.5,11.5,6.3,18,7.6c17.9,3.6,36.2,4.1,54.5,4.6c28.5,0.7,57.1,1.4,85.3-2.7c14.4-2.1,28.7-5.6,43.3-6.3
		c10.8-0.5,21.5,0.5,32.2,1.5c5.9,0.6,12.3,1.3,16.7,5.3c8.2,7.4,4.4,22.1-4.5,28.6c-9,6.5-20.8,7.1-31.8,7.5
		c-66.5,2.3-133,4.5-199.4,6.8c-2.3,0.1-4.8,0.3-6.3,1.9c-1.1,1.1-1.5,2.8-1.8,4.3c-1,4.7-2,9.4-3,14.1c8.6,3.2,18,3.4,27.1,3.5
		c20.4,0.3,40.8,0.6,61.2,0.8c22.9,0.3,46,0.6,68.3-4.3c14.7-3.2,29.3-8.7,44.4-8.1s31.4,9.7,33.7,24.6c0.4,2.6,0.4,5.4-0.9,7.7
		c-2.5,4.6-8.5,5.8-13.7,6.4c-69.9,7.5-140.6,1-210.8,3.9c-5,0.2-10.3,0.6-14.5,3.4s-6.3,9.1-3.1,13c1.9,2.3,5,3.1,7.9,3.7
		c69.3,14.5,140.9-24.9,210.8-13.1c6.2,1.1,12.6,2.6,17.6,6.5c5,3.9,8.1,10.8,5.9,16.7c-70.8,11-145.3,5.4-217,7.8
		c-5.2,0.2-10.8,0.5-15.2,3.4c-4.4,2.9-6.8,9.4-3.6,13.6c10.9,4.1,22.8,4.1,34.4,4c48.6-0.1,97.2-0.3,145.8-0.4c8.4,0,17,0,24.6,3.4
		s14.1,11,13.3,19.3c-13.1,4.9-27.5,4.4-41.5,3.9c-55.2-2-110.5-2.8-165.8-2.4c-4.5,0-9.2,0.1-13.3,2.1s-7.4,6.4-6.5,10.9
		c1.2,5.8,8.1,8.2,14,9.2c23.3,4.1,47.2,4.3,70.9,4.3c42.5,0,85.1-0.4,127.6-1.4c6.3-0.1,14.2,0.7,16.4,6.6c2.2,6-3.6,12-9.3,14.8
		c-6.2,3-12.9,4.6-19.7,5.8c-52.6,9.5-107-0.6-159.9,6.3c-5.5,0.7-11.2,1.7-15.7,4.9c-4.5,3.2-7.6,9.1-5.8,14.4
		c2.1,6,9.2,8.3,15.5,9.6c58.4,11.8,118.6-1.6,178.2-2c3.2,3.2,2.1,8.9-1.2,12c-3.2,3.1-7.9,4.2-12.3,5.1
		c-18.6,3.8-37.5,5.7-56.5,5.7c-11.9,0-23.9-0.7-35.4,2.1c-13.2,3.2-24.8,10.7-37.4,15.7c-7.9,3.2-16.6,5.6-22.6,11.7
		c-6,6.1-7.6,17.6-0.6,22.5c2.7,1.9,6,2.4,9.3,2.8c51.5,5.5,100-28.9,151.7-28.2c4,0.1,8.3,0.4,11.4,3c5.5,4.5,4.2,13.8-0.8,18.8
		c-5,5-12.4,6.7-19.4,7.7c-28.2,4.2-57,1.7-85.5,3.6c-27.1,1.9-54,7.9-79.3,17.7c-1.2,4.9,2,10,6.4,12.6s9.6,3.1,14.6,3.5
		c39,3.1,78.4,0.4,116.6-8c8.6-1.9,17.6-4.1,26.1-1.7s15.9,11.1,13.4,19.6c-2.3,7.8-11.3,11.2-19.3,12.8c-34,7-69.5,1.5-103.8,6.6
		c-5.5,0.8-11.2,2-15.7,5.2s-7.7,9-6.3,14.4c1.7,6.8,9.4,10.1,16.2,11.6c31.1,6.8,63.1-3.5,94.9-4.5c6.1-0.2,12.9,0.3,17,4.7
		c6.1,6.5,2.3,18.1-5.3,23c-7.6,4.8-17.1,4.9-26.1,4.7c-27.2-0.4-54.5-0.9-81.7-1.3c-9.7-0.2-21.8,1.4-24.8,10.6
		c-2.2,6.9,2.7,14.5,9.3,17.5c6.5,3.1,14.1,2.7,21.3,2c27.5-2.7,54.4-9.8,81.7-13.3c13.2-1.7,26.5-2.7,39.8-2.8
		c4.2,0,8.9,0.1,12.1,2.8c5.3,4.3,4.2,13.2-0.4,18.1c-4.6,5-11.5,7-18.2,8.5c-44.6,10.2-91,8.3-136.7,6.4c0.3,3.4-0.3,6.9-1.8,10
		c41.5,3.9,84,7.7,124.1-3.6c2-0.6,4.2-1.2,6.1-0.3c1.8,0.8,2.8,2.7,3.7,4.5c3.8,7.4,7.6,14.9,11.4,22.3
		c-41.3,1.5-82.4,5.1-123.7,3.9c-9.2-0.3-21.1,1.4-22.9,10.4c-1.1,5.5,2.8,11,7.8,13.6c5,2.6,10.8,2.9,16.4,3.1
		c43.9,1.6,87.9,1.3,131.7-1c3.9-0.2,8.4-0.1,10.8,2.9c2.4,3,1.3,7.8-1.4,10.6c-2.7,2.8-6.7,4-10.4,4.9
		c-47.4,12-99.1,0.2-145.4,15.9c-2.8,3.8-0.8,9.6,3,12.4c3.8,2.8,8.8,3.4,13.5,3.8c37.4,3.2,75.2,1.8,112.3-4.3
		c6.6-1.1,13.5-2.3,19.9-0.4s12.2,8,11.2,14.6c-1.4,9.3-13.2,12.1-22.5,12.8c-46.5,3.4-93,6.9-139.5,10.3
		c-21.8,1.6-47.3,1.8-61.2-15.2"/>
</g>
</svg>
