<?xml version="1.0" encoding="utf-8"?>
<!-- Generator: Adobe Illustrator 21.0.0, SVG Export Plug-In . SVG Version: 6.00 Build 0)  -->
<svg version="1.1" xmlns="http://www.w3.org/2000/svg" xmlns:xlink="http://www.w3.org/1999/xlink" x="0px" y="0px" width="1000px"
	 height="1000px" viewBox="0 0 1000 1000" enable-background="new 0 0 1000 1000" xml:space="preserve">
<g id="vs-highlight">
	<path fill="#5DBFD9" d="M530.2,66.4c-3.4-3.3-4-3.6-4.5-5c-0.9-2.7,0.7-4.4-0.8-5.6c-0.6-0.5-1.9-0.6-4.5-0.9
		c-3.2-0.3-3.3,0-4.5-0.4c-1-0.3-2-1.3-3.9-3.2c-1.6-1.6-2.4-2.4-2.9-3.2c-0.9-1.7-0.3-1.9-1-3.2c-0.5-0.9-1.9-2-4.7-4.1
		c-1.5-1.1-2-1.5-2.1-2.2c-0.1-1,0.8-2.1,1.8-2.6c3.6-1.8,10,2.9,10.7,2.2c0.5-0.5-1.8-2.8-4.2-4.3c-0.4-0.2-0.7-0.4-0.8-0.4
		c-2-1.1-3.9-1.4-5.5-1.7c-0.9-0.2-2-0.3-3.4-0.4c-0.2-0.8-0.4-2.2,0.3-3.4c1.6-3.1,7.1-3.8,7.1-4c-0.1-0.1-3.5,1-7.6,1.8
		c-3.6,0.7-4.2,0.6-6,1.3c-1.3,0.5-4,1.6-5.2,3.7c-2,3.4,1.2,7.4,0.3,7.8c-0.6,0.2-2.2-1.3-3.1-2.8c-1.4-2.2-1.2-4.4-1-6.5
		c0.2-2,0.2-3,1-4.1c1.6-2.3,4.6-2.6,4.4-3.1c-0.2-0.6-4.4-0.8-7.4,1.1c-2.2,1.4-2.8,3.5-3.1,4.5c-0.6,2.1-0.2,3.8,0.6,7.2
		c1,4.4,1.8,4.6,1.3,5.8c-1,2.4-4.7,3.8-7.9,5c-2.3,0.9-2.2,0.5-3.4,1.1c-3.8,1.8-4.4,5.2-6.5,9.3c-3,5.7-4.7,4.5-6.4,8.6
		c-3.7,8.7,2.4,17.3,3.1,18.3c0.5,0.7,1.1,1.4,1.6,2c0.6-4.3,0.4-8.7,1.8-12.7c1.4-3.8,3.3-7.4,5-11.1c3-6.4,7.1-11.9,14-14.2
		c3.6-1.2,7.1-0.9,10.8-0.2c3.2,0.6,6.6,0.9,9.5,2.3c2.2,1.1,4.1,2.8,6,4.4c0.8,0.5,1.4,0.9,1.6,1.1c0.3,0.2,0.5,0.4,0.7,0.6
		c1.2,0.8,2.4,1.6,3.6,2.4c4.6,3,9.5,6,13,10.2c0.9,1,2,2.7,2.5,4.3c2.2,1,4.7,1.6,5.2,1C536.2,72.3,534.2,70.4,530.2,66.4z"/>
	<path fill="#5DBFD9" d="M523.6,64.8c-3.3-2.8-7-5.1-10.6-7.4c0.7,1.4,1,2.7,2.8,4.3c2.9,2.7,4.4,1.3,8.1,4.3
		c2.7,2.2,2.9,3.7,5.4,5.2C528,68.6,524.9,65.8,523.6,64.8z"/>
	<path fill="#5DBFD9" d="M478.3,50c-4,3-6.7,6.7-10.2,14.9c-1.5,3.6-3.7,6.9-4.2,10.9c-0.4,3.3-0.5,6.6-1,9.9
		c0.9,0.9,1.7,1.6,2.4,2.1c1.4-8.2,3.6-14.8,5.5-19.6c2.4-6.2,4.6-9.9,8.4-12.9c1.5-1.2,4.7-3.7,9.4-4.3c0.4-0.1,0.6-0.1,5.8,0
		c6.7,0.1,8.5,0.1,9.9,0.4c0.3,0.1,0.2,0.1,0.8,0.2c3,0.8,5.4,1.2,6.9,1.4c-1.4-1.6-3.5-3.7-6.7-5.3C496.7,43.1,485.6,44.6,478.3,50
		z"/>
	<path fill="#5DBFD9" d="M524.6,49.4c0.2,0,0.4,0.2,1.8,2.1c1.5,2,2.3,2.9,2.6,3.3c2,2.1,5,2.3,6.7,2.4c4.2,0.3,6.6-1.4,7.1-0.7
		c0.5,0.9-1.9,3.4-3.5,4.7c-1.5,1.2-2.8,2.3-4.7,2.6c-3.4,0.6-6.8-1.4-8.6-3.8C522.6,55.7,523.7,49.6,524.6,49.4z"/>
	<path fill="#5DBFD9" d="M549.2,94c-0.9-2.1-1.4-4.3-1.8-6.5c-0.5-3.4-0.6-6.8-0.6-10.2c-0.8-0.5-1.6-1.2-2.2-2.2
		c-1.1-1.8-0.4-2.4-1.7-4.2c-0.4-0.6-1.5-1.9-3.3-2.4c-1.1-0.3-1.9-0.1-2.7,0c-1.6,0.3-3.9,1.1-4.7,2.2c-2.2,2.9,5,8.4,7.2,18.2
		c2.1,9.2-1.6,16.3,1.3,17.7c1.7,0.8,4.4-1,5.5-2c2.5-2.2,2-4.5,4.7-7.4C550.3,96.2,549.7,95.1,549.2,94z"/>
	<path fill="#5DBFD9" d="M467.4,84.1c0.1,0.4,5.5-2.4,10.8-0.1c1.5,0.7,3.9,2.2,3.7,3.5c-0.4,2.5-9.5,2.2-9.8,4.8
		c-0.1,0.5,0.3,0.9,0.8,1.6c1.9,2.3,5.1,2.3,6.1,2.4c2.9,0,5.1-1.2,7.3-2.4c0.7-0.4,2-1.4,4.7-3.3c2.8-2,3.2-2.4,3.5-3.1
		c0.9-1.7,0.9-4.1-0.2-5.7c-0.9-1.4-2.6-2.3-6.7-2.6C476.6,78.3,467.2,83.5,467.4,84.1z"/>
	<path fill="#5DBFD9" d="M501.9,80.7c0,0,1.6-0.4,2,0.2c0.5,0.7-1.3,1.9-2,4.3c0,0.2-1,3.5,0.8,5.9c0.6,0.8,1.1,0.9,3.9,2.4
		c4.6,2.3,4.1,2.3,5.3,2.7c4,1.4,8.2,0.6,8.2,0c0-0.3-1-0.5-2.9-1.6c-1-0.6-4.4-2.5-4.1-3.9c0.2-1.1,2.3-0.6,5.1-2.4
		c2.3-1.5,2.2-2.7,4.3-3.7c2.5-1.2,4.4-0.5,4.5-1c0.2-0.8-5.6-3.3-12.2-4C507.6,78.9,501.9,80.7,501.9,80.7z"/>
	<path fill="#5DBFD9" d="M493.3,84.4c0.8,0.6,1,1.6,1.2,2.9c0.4,2.3-0.1,3.7-1.8,9.6c-0.8,2.9-1,3.6-1.6,4.7c-1.1,2-2.9,4.3-3.7,3.9
		c-0.5-0.2-0.5-1.5-0.4-2.7c0.3-4.1,1.7-5,1.6-7.1c-0.1-3.8-5.2-4.6-4.9-7.3C484,85.5,490.8,82.4,493.3,84.4z"/>
	<path fill="#5DBFD9" d="M484.7,106.6c-0.7,0-1.4,1-2.7,4.3c-0.5,1.3-2.8,7-2.2,7.3c0.5,0.3,2-3.6,4.9-3.9c1.1-0.1,2,0.3,2.4,0.4
		c1.1,0.4,1.8,1.1,2.9,2.4c1.7,1.7,2.5,2.6,2.9,2.9c0.5,0.4,4,3.2,6.5,2.2c1.8-0.7,1.2-2.5,4.1-5.1c1.5-1.3,2.5-1.7,2.9-1.8
		c0.3-0.1,2-0.5,3.9,0.2c2.7,1,3.6,3.5,3.9,3.3c0.4-0.2-0.6-3.2-2.4-6.1c-0.4-0.6-2.8-4.7-3.9-4.3c-0.8,0.3,0.3,2.4-0.8,4.5
		c-1.8,3.5-7.9,3.5-8.6,3.5c-1.4,0-5.7,0-8.2-2.7c-0.8-0.9-2.6-3.3-3.9-5.3C485.7,107.3,485.3,106.6,484.7,106.6z"/>
	<path fill="#5DBFD9" d="M483.3,127.2c-0.8,1.1,1.7,4.6,4.1,6.5c1.1,0.8,4,3.2,7.9,2.7c2.2-0.3,3.8-1.4,4.9-2.2
		c0.4-0.3,3.8-2.7,3.3-3.9c-0.4-1-3.2-0.3-7.1-0.4C488.5,129.7,484.2,125.9,483.3,127.2z"/>
	<path fill="#5DBFD9" d="M466.4,126.8c0.3-0.1,0.2,8.2,5.3,11.8c1.6,1.1,3.1,1.4,5.1,3.5c1.4,1.4,1.3,2,3.1,4.1
		c1.8,2.1,2.8,3.3,4.5,3.9c1.5,0.6,2.3,0.1,4.9,0c2.6-0.1,3.1,0.3,7.7,0.8c5.1,0.6,7.6,0.9,9.2,0.6c1.1-0.2,2.4-0.5,9.2-4.7
		c6.6-4,8.6-5.7,9-5.3c0.5,0.6-2.1,4.6-5.7,7.7c-2.7,2.4-5.7,3.9-9,5.7c-3.1,1.6-3.8,1.7-5.9,3.1c-3.1,2.1-5.1,3.4-5.7,5.7
		c-0.5,1.7,0.2,2.5,1.8,8.1c1.2,4.4,1.8,6.6,1.2,7.1c-1.3,1.1-5.2-4.2-13.8-9c-7.2-4-9.8-3.3-13-7.3c-2.4-2.9-3.3-6.2-4.2-9.7
		c-1-3.8-0.9-5.4-1.6-11.2C467.6,133.7,466.1,126.9,466.4,126.8z"/>
	<path fill="#5DBFD9" d="M448.9,171c0.1,1.3,3.8,0.9,7,3.8c2,1.8,3.7,4.9,3.1,7.6c-0.6,2.7-3.3,3.9-6,5.5
		c-4.1,2.4-13.5,7.8-15.5,14.1c-2.5,7.6,5.3,17.1,6.9,16.5c1.4-0.5-2.4-8.1,1.3-14.7c2.5-4.4,7.3-6.4,10.7-7.3
		c1.7,5.7,4.2,13.7,7.3,23.3c8.2,25.5,13.5,42,20.7,60.5c4.6,11.8,11.3,27.8,20.6,46.5c-6.8-22.9-12.3-42.6-16.3-57.8
		c-10.9-41-16.4-61.5-16.8-72.2c-0.3-9-3-17.7-4.1-26.6c-0.4-3.7-1.1-9.6-3.4-10.1c-1.9-0.4-2.9,3.4-8.3,6.8
		C452.1,169.5,448.8,169.9,448.9,171z"/>
	<path fill="#5DBFD9" d="M474.7,213.1c1.6,0.5,3.7,0.2,5.2-0.8c3.4-2.2,2.5-6.7,5.2-7.6c1.4-0.5,3.3,0.3,4.1,1.5
		c1.6,2.5-1.1,6.8-2.1,8.5c-2.3,4.2-2.6,11.6-3.2,26.3c-0.5,12.7,6.2,53.5,27.2,104.7c4.9-10.7,9.7-21.4,14.6-32.1
		c-3.1-15.2-5-27.5-6.1-35.7c-4.2-31.7-1.5-34-6.7-43.8c-1.3-2.4-7.1-12.7-8.5-24.2c-0.3-2.8-0.6-6.9,2-9.5c1.9-1.9,4.5-2.2,6.6-2.4
		c3.9-0.4,6.7,0.6,13.9,3.1c9.6,3.4,11,4.1,11.3,3.7c0.7-1.1-9.7-8.4-15.9-12.5c-9.5-6.3-14.3-9.4-18.6-8.9
		c-5,0.6-8.6,4.2-15.2,10.7c-6.4,6.3-8.6,10.6-11.9,10.1c-3.7-0.6-4.8-6.6-6-6.2C469.2,198.6,469.1,211.2,474.7,213.1z"/>
	<path fill="#5DBFD9" d="M389.6,201.8c-0.8,3.8,0.6,4.2,0,8.9c-0.8,5.6-3,6.3-2.6,10c0.4,3.8,3,3.8,4.7,8.4
		c2.3,6.2-1.6,8.5,0.5,13.6c2.2,5.2,6.9,4.3,9.4,10.5c0.5,1.3,2,4.8,0.5,7.9c-1.4,2.9-4.2,2.7-7.9,5.2c-4.3,2.9-9,9.2-7.9,15.2
		c1.2,5.9,7.6,8.8,8.9,9.4c5.3,2.4,10.3,1.4,12,1c6.8-1.4,10-5.5,11.3-4.4c1.1,0.9-0.1,4.8-2.4,7.6c-2.6,3.1-6.2,4-12,5.2
		c-13.1,2.8-12.9,2.2-15.7,3.1c-4.4,1.4-9.3,6.2-18.9,15.7c-8.4,8.3-12,12.8-15.1,18c-1.9,3.2-5.9,9.8-4.3,11.3
		c1.4,1.3,5.8-2.5,14.7-7.3c16.1-8.6,23-7.6,25.1-13.6c2.1-6.1-4-10.2-1-15.2c2.7-4.6,10.6-5.8,16.2-4.2c2.1,0.6,6.4,1.8,7.9,5.2
		c1.9,4.4-3,7.3-4.2,16.8c-0.7,6,1,6.7-0.5,11c-0.3,0.9-2.8,7.6-8.9,10c-4.4,1.7-7.8,0.2-8.4,1.6c-0.6,1.6,3.5,4.7,6.3,6.8
		c5.5,4.1,8.5,4.8,8.4,6.3c-0.2,2.8-11.5,2.2-12.6,6.3c-0.8,3.1,5.2,4.7,8.4,12.6c2.2,5.4,1.8,10.6,1.6,13.6
		c-0.3,4.7-1.4,7.6-2.1,10c-3.7,13.6,2.2,28.9,4.2,28.8c1-0.1,1.7-7,3.1-20.9c0.8-7.6,0.7-9.1,1.6-16.8c1.4-12.3,2.3-15.9,2.8-17.9
		c1.9-7.1,2.9-6.6,4-12c1.1-5.5,0.2-6.5,0.7-17.8c0.3-7.1,0.9-12.3,1.1-14c1-8.3,2.4-14.3,2.7-15.7c4.1-19-5.2-60.3-6.5-66
		c-7.8-34.1-16.3-47.9-16.7-58.9c0-1-0.1-4.2-1.4-4.6C394.8,191.7,390.7,196.4,389.6,201.8z"/>
	<path fill="#5DBFD9" d="M363.4,362.1c-0.4-2,3.6-4.7,6.8-5.8c10.3-3.5,22.8,5.7,22,8.4c-0.4,1.3-4,1.2-11,1
		C376.1,365.6,364,365.3,363.4,362.1z"/>
	<path fill="#5DBFD9" d="M353.9,383.6c3.3-2.5,9.1,0.2,14.3,2.6c3.7,1.7,5.6,2.7,5.8,4.2c0.2,2.3-4,3.3-10,7.9
		c-7.4,5.6-8.6,9.7-10.7,9c-3.5-1.1-2.5-12.5-1.8-16.9C352.2,384.9,353.4,383.9,353.9,383.6z"/>
	<path fill="#5DBFD9" d="M356.9,415.9c1.9-1.2,4.3,2.6,14.9,6.9c6.6,2.7,11,3.4,11,5.2c0,1.9-4.6,3.6-6.3,4.2
		c-5.3,1.9-9,1.2-9.4,2.6c-0.5,1.5,3.5,2.7,3.7,5.8c0.2,2.5-2.3,3.1-3.1,6.3c-0.8,2.9,0.6,4.6,2.1,9.4c0.7,2.1,1.1,5.3,2.1,11.5
		c1.2,7.8,0.8,9.1,1.6,14.9c1.7,12.6,5.2,18.4,4,19c-1.4,0.7-7.6-6.2-10.6-14.9c-1.8-5.3-1.5-8.7-1.8-15.8c0,0-0.5-11.2-3.1-26.7
		C358.7,426,354.1,417.7,356.9,415.9z"/>
	<path fill="#5DBFD9" d="M406.9,235.9c1.1,5.2,3.3,12.4,7.9,19.9c1.9,3.1,5.5,8.9,12,14.1c2.5,2,4.8,3.4,9.4,6.3
		c10.1,6.2,10.9,5.4,13.1,7.9c4.8,5.3,1.4,9.6,5.2,19.4c1.5,4,5.1,8.3,12,16.8c8.3,10.1,12.5,15.1,15.2,17.3
		c13.7,10.8,28.2,10.1,28.1,14.5c0,3-6.9,5.1-7.7,5.4c-7.3,2.3-12.1-1-20.4-1.6c-7.6-0.5-13.4,1.6-17.8,3.1
		c-12.8,4.6-21.8,15.8-39.3,38.2c-5.5,7-9.4,12.5-10.7,11.8c-1.4-0.7,2-7.3,4.4-18.6c2.2-10.4,1.1-12.9,3.1-35.1
		c0.7-7.8,1.3-12.5,1.6-14.7c1.3-12.3,0.1-33.6-11.5-72.8"/>
	<path fill="#5DBFD9" d="M624.7,195.8c-1.4,0-0.9,5.1-5.1,10.7c-3.1,4.1-7.2,6.3-10,7.9c-6.5,3.6-8.8,2.6-10.5,5.2
		c-3,4.8,2.1,11.3,0,13.1c-3.1,2.6-15.8-9.6-18.3-7.3c-1.6,1.4,2.2,7.2,6.3,18.3c0,0,2.2,6.2,4.7,16.2c0.8,3.1,3.6,15.2,2.6,37.2
		c-1.1,23.4-4.9,22.3-4.7,37.7c0.2,11.2,2.2,16.8,8.9,41.4c0,0,3.6,13.3,11.5,44.5c4.7,18.7,9,46.4,5.6,84.3
		c3.5,0.6,8.9,1.3,15.4,0.7c4.8-0.4,13.3-1.1,14.1-4.4c0.7-2.9-5.7-4.5-11-11c-4.2-5.2-4-9-7.3-25.1c-3.4-16.8-6.5-26.3-5.2-26.7
		c1-0.3,3.1,6.1,10,13.6c2.8,3,8.4,9.1,11,7.9c2.8-1.4,0.9-10.6-1-20.4c-1.8-8.8-3.5-17.1-8.4-27.8c-5.3-11.6-7.2-10.5-12-20.4
		c-4-8.2-6-19.7-10-42.4c-1.9-10.9-2.9-18.3-3.1-27.8c-0.2-8.2-0.5-22.1,4.2-23.6c1.4-0.4,3.3,0.2,6.8,3.7
		c13.7,13.7,13.4,33.6,15.7,33.5c1.7-0.1,4.2-11.2,1.2-22.4c-2.5-9.2-8-16-9.6-17.9c-5.8-7-11.8-10.3-11-12c1-2.1,10.3,2.1,13.1-1.6
		c1.6-2-0.7-4.2,0-10c0.6-5,2.6-5.4,3.1-9.6c0.8-5.6-2.6-6.9-4.2-14.5c-0.5-2.3-0.2-7.2,0.5-16.8c0.8-11.9,1.1-11.5,1.1-14.9
		C628.8,205.6,626.6,195.8,624.7,195.8z"/>
	<path fill="#5DBFD9" d="M543.9,308.6c1.4,0.6-0.7,12.9-6.6,24.6c-3.2,6.5-6.1,9.8-4.7,12c2.6,4,15.8-1.6,17.3,1.6
		c0.7,1.6-1.7,4.6-4.2,6.3c-6.5,4.6-14.1,1-15.7,4.2c-0.9,1.7,0.7,4.2,2.1,6.3c3.2,4.8,7.3,7.5,11.5,10c12.5,7.3,17.4,8.1,19.9,13.6
		c0.4,1,1.8,4,0.5,5.8c-2,2.7-9.7,1.1-15.2-1.6c-9.5-4.7-9.8-11.3-21-18.3c-4.3-2.7-9.8-5.2-10.5-4.2c-0.9,1.2,6.2,6.1,13.6,16.2
		c6.6,9,5.5,11.2,12,19.4c3,3.7,6.8,8.3,13.1,12.6c3.4,2.3,11.8,7.9,23,8.4c10.6,0.5,16.3-3.9,19.4-0.5c2.1,2.3,1.5,6.7,0,9.4
		c-0.7,1.3-2.9,4.4-13.1,6.3c-8.9,1.6-19.2,3.5-28.3-2.1c-2.7-1.7-4.1-3.3-11.5-14.1c-8.8-12.9-15.5-23.2-15.7-23.6
		c-13.7-21.2-19.3-19.5-20.3-27.9c-1-8.4,3.1-15.7,11.1-29.7c2.6-4.5,2.3-3.4,11.3-17.3C540.7,312.6,543,308.3,543.9,308.6z"/>
	<path fill="#5DBFD9" d="M487,378.3L487,378.3c1.5-2.6,13.6-23.2,19.9-21.1c5.5,1.8,4.5,20,4,29.1c-0.6,10-2.2,18.2-3.5,23.5
		c-0.2-2.7-0.5-6.5-1-11.1c-1.1-10.2-1.7-15.4-3.7-16.8c-6-4.2-22.2,9.8-23.6,11"/>
	<path fill="#5DBFD9" d="M500.1,493.5c2.1,1.3,7.3-0.7,17.8-4.7c9.4-3.6,15.2-6.7,18.9-8.9c2.4-1.4,4.3-2.7,5.8-3.7
		c-5.9,8.8-10.8,13.5-14.1,16.2c-5.4,4.4-5.7,4.6-5.7,4.6c-4.3,3-6.8,3.9-8.6,7c-0.3,0.6-1.8,3.3-1,4.1c1.4,1.4,7.4-5.3,18.3-8.9
		c1.4-0.5,6-1.2,15.2-2.6c6.9-1.1,9.4-1.3,12,0c4.4,2.2,5.7,7.1,6.3,6.8c0.7-0.3-1.2-8.3-5.5-17.9c-3-6.7-8-16.4-16.6-27.2
		c-5.1,0.9-10.2,1.7-15.5,2.6c-9.1,1.5-18.1,2.8-27,4C499.8,467,493.1,489.3,500.1,493.5z"/>
	<path fill="#5DBFD9" d="M498.5,505.1c0.2,0-2.3,5.9,0,12c0.5,1.3,1.8,4.9,4.7,5.8c2.5,0.8,4.8-0.9,7.9-2.6
		c1.4-0.8,6.7-2.8,17.3-6.8c3.3-1.3,8.3-3,14.7-4.7c-9.7,8.7-17.6,15.4-23,19.9c-4.6,3.8-9.7,8-8.9,9.4c1.1,2.1,13.5-3,14.1-1.6
		c0.7,1.6-14.6,8-13.6,12.6c0.4,1.9,3.2,2.4,8.4,4.2c6.3,2.1,12.2,5.3,18.3,7.9c8.6,3.7,22,10.1,21.5,11.5
		c-0.3,0.8-4.6-0.5-17.3-2.6c-10.4-1.7-14.9-2-19.9-1.6c-5.4,0.5-11.5,1-13.1,4.7c-1.6,3.8,2.7,8.9,3.1,9.4c4.4,5.1,10,5,23,7.9
		c5.3,1.1,20.6,4.4,20.4,6.3c-0.1,1.5-10,2.3-19.4,1.6c-12.9-1-20.3-4.7-21.5-2.6c-1,1.7,2.8,6.3,6.8,9.4c14,11.1,32.4,6.9,32.5,8.4
		c0.1,1.5-18.4,7.9-33.5,0c-2.5-1.3-6.7-3.6-9.2-8.3c-2.6-4.9-0.9-7.9-1.8-15.3c-0.6-5-1.4-3.8-6.7-19.1
		c-4.7-13.6-3.6-13.1-6.4-19.2c-1.5-3.2-2.9-5.6-3.7-9.7c-0.9-4.6-0.4-8.2,0-11.2C495.4,515.8,498.3,505,498.5,505.1z"/>
	<path fill="#5DBFD9" d="M546.7,496.7c4.7,4.8,9.9,4,17.3,11.5c4.5,4.5,7,9.3,8.4,12.6c-3.3,0-8.6,0.4-14.1,3.1
		c-5.6,2.7-10.7,7.4-10,8.9c0.7,1.3,5.2-1,14.7-1c8-0.1,10.6,1.5,11.5,2.1c0.9,0.6,4.7,3.2,5.8,7.9c1.1,5-2.2,7.3-0.5,11.5
		c0.9,2.2,2.6,3.4,5.2,5.2c2.2,1.5,8,5.5,12.6,3.7c2.7-1.1,3.8-3.8,5-6.3c7.2-15.3,13.7-15.7,14.9-24.6c0.7-5.5-1.2-10-5.1-17.4
		c-13.6-25.7-24.7-38.1-24.7-38.1c-21.8-24.4-45.6-44.4-59-55.1c10.3,15.4,13.4,28.5,14.2,37.7C544.5,476.2,538.6,488.4,546.7,496.7
		z"/>
	<path fill="#5DBFD9" d="M381.1,507.6c1.3-1.5,5.3-0.4,7.5,0.6c5.1,2.5,4.8,7.1,9.4,8.9c3.4,1.3,4.3-0.9,8,0.3
		c5.7,1.8,5.5,7.7,10.4,8.6c3.7,0.8,5.1-2.5,9.4-1.5c2.8,0.7,5.9,3,5.9,5.5c0,2.3-2.5,3.8-4.9,5.4c-1.7,1.1-5.8,3.6-11.6,3.5
		c-4.3-0.1-7.7-1.6-11.1-3.5C390.3,527.4,378.2,511,381.1,507.6z"/>
	<path fill="#5DBFD9" d="M504.4,431.8c3.4-2.8,6.9-5.6,10.3-8.4c6.2,6.3,9.6,12.4,11.5,17.3c3.6,9.2,2.5,15,7.3,18.3
		c4.2,2.9,11.7,2.9,14.1-0.5c4-5.4-7.6-15.8-19.4-40.3c-10.1-21-11.1-33.2-14.7-33C510.9,385.3,507.2,393.5,504.4,431.8z"/>
	<path fill="#5DBFD9" d="M411.9,554.8c-0.7,1.7,8.2,8.7,19.1,12.1c8.1,2.5,12.2,1.4,14.7,4.7c3.3,4.5-0.8,10.7-3.1,19.9
		c-1.8,7.3-0.9,10.1,3.1,42.4c3.2,25.6,2.2,19.9,4.2,34.6c4.2,30.6,5,27.7,6.8,44.5c2.4,22.4,1.1,29,4.7,49.2
		c1.6,9.2,3.4,16.6,4.7,21.5c-2.6-15.6-1.4-28.1,0-36.1c1.9-10.6,3.2-18.3,9.4-24.6c3.9-4,6.9-4.5,10.5-9.4
		c4.5-6.1,5.2-12.6,5.8-17.8c3.3-31.9,4.2-45,4.2-45c0.9-12.6,1.4-19.6,5.8-27.2c1.6-2.8,3-4.5,4.7-8.4c3.8-8.7,4-16.6,4-20.4
		c0.1-21.4-11.7-50.5-18.2-49.5c-2.3,0.4-1.7,4.3-5.7,8.6c-6,6.6-15.8,7-24.1,6.8C432.9,560,412.9,552.4,411.9,554.8z"/>
	<path fill="#5DBFD9" d="M450.1,790.4c1.9-1,8.2,6.6,11.8,12.2c10.1,15.6,5.9,23.9,15.7,33.5c1.8,1.8,2.1,1.6,11,9.4
		c7.8,6.9,8.9,8.1,10,10c3.4,6.1,1.1,9.4,4.2,14.1c1.7,2.6,5,5.7,12.5,7.4c0,4.6,0.1,9.3,0.1,13.9c-0.8,1-8.9,10.5-19.4,9
		c-5.7-0.8-9.5-4.5-11.6-6.7c-2-2-6.7-7.5-10.4-27.3c-2.8-15.1-0.9-16.9-4.2-25.7c-3-8-5.1-8.1-10.3-18
		C452.1,808.3,447.5,791.7,450.1,790.4z"/>
	<path fill="#5DBFD9" d="M496.4,729.8c-4.7,11.3-3.5,21.4-1,39.8c2.2,16.5,5.5,27,6.3,29.3c3.3,10.2,3.4,6.8,7.9,19.4
		c3,8.5,4.5,14.6,9.4,16.2c0.8,0.3,2.9,1,4.3,0c3.5-2.4-0.6-12.1-4.2-27.7c-5.1-22-4.6-35.7-4.5-38.7c0.3-7.2,1.4-13.2,2.3-17.1
		c-1.5-1.5-3.4-3.9-4.7-7.2c-1.4-3.7-1-6.2-1.2-10.2c-0.2-4.5-1.4-15.5-4.7-16.3C503.5,716.5,499,723.7,496.4,729.8z"/>
	<path fill="#5DBFD9" d="M472.4,833.5c1.5-2,8.3,3.4,12.6,0.5c4.5-3.1,1.9-12.5,4.2-13.1c2.1-0.5,3.4,7.4,10.5,12.6
		c5.7,4.2,9,2,14.1,6.3c5.7,4.8,7.9,12.7,6.2,14.1c-2,1.6-8.4-6.3-13.5-4.2c-3.9,1.7-2.7,7.4-6.5,8.9c-4.4,1.9-10.8-4.1-16.1-8.9
		C478,844.3,470.6,835.7,472.4,833.5z"/>
	<path fill="#5DBFD9" d="M508,897.2c-0.3,3-3.5,6.3-10,12.7c-3.3,3.3-5,4.5-7.3,7.9c-2.4,3.5-4.4,6.3-4.2,10
		c0.3,4.4,3.6,7.4,5.8,9.4c1.1,1,5.4,4.8,12,5.8c6.5,0.9,10.2-1.7,12,0.5c1.3,1.5,0.9,4.2-0.2,6c-1.5,2.3-4.4,2.8-14,3.2
		c-10.9,0.4-16.4,0.5-18.7-1.3c-3.8-3.1-4.5-8.1-5.3-13.6c-0.3-2.3-0.7-6.3,0.9-15.9c1.2-7.5,2.2-9.7,3.8-17
		c3.8-17.1,2-21.5,5.3-23.1C494.1,878.5,508.8,889.1,508,897.2z"/>
	<path fill="#5DBFD9" d="M559.3,702c7.4-1.8,19.3,24.1,20.4,26.7c7.9,17.6,9.5,33.3,8.6,33.5c-0.6,0.2-3-6.3-10.2-19.9
		c-2.6-5-4.6-8.4-7.9-8.9c-2-0.3-4.2,0.8-8.4,3.1c-6.8,3.7-8,5.8-9.4,5.2c-3.3-1.3-1-14.3,0-19.9C554.8,709.2,555.9,702.8,559.3,702
		z"/>
	<path fill="#5DBFD9" d="M516.9,719.8c2.8-1.3,8.7,7.7,17.3,17.8c18.1,21.3,25.8,21.2,38.2,36.7c6.3,7.9,14.1,20,19.4,38.2
		c-6.1-9.4-11.6-17-15.7-22.5c-17.7-23.6-23.6-26.4-28.8-26.7c-6.7-0.4-12.4,3.1-14.1,4.2c-10.2,6.3-11.9,16.9-14.7,16.2
		c-2.8-0.6-2.7-11.3-2.6-21.5c0.1-12.1,1.1-13.2,1-23C516.8,726,514.9,720.8,516.9,719.8z"/>
	<path fill="#5DBFD9" d="M556.7,820.4c-2.9,3.9-7.3,6.5-7.9,6.8c-5.5,3.2-9.5,3-10,5.2c-0.4,2.1,2.8,3,5.8,8.4
		c1.5,2.8,3,5.5,2.1,7.9c-1.3,3.4-5.8,2.2-9.4,6.3c-3,3.4-0.9,5.4-3.7,10c-3.9,6.5-10.5,6.1-11,10.5c-0.3,2.8,2,6.3,4.7,6.8
		c3.5,0.7,7.1-3.8,14.1-12.6c4.6-5.8,6.1-8.6,10.5-10.5c3.9-1.7,5.1-0.5,6.8-2.1c3.7-3.6-1.8-10.2,0-21.5c0.7-4.7,1.7-3.7,3.7-12
		c1-4.1,1.2-6.3,2.6-13.6c2-10.1,2.6-10.7,3.1-11c5.8-3,21.1,18.9,23.4,17.3c1.9-1.3-6.1-17.3-16.6-32
		c-7.6-10.7-14.2-17.4-15.2-16.8c-0.9,0.6,4.6,7,4.7,16.8c0,4.8-1.3,4.9-3.1,13.6C558.5,811.3,560.8,814.9,556.7,820.4z"/>
	<path fill="#5DBFD9" d="M575.4,872.7c-0.4-0.1-2.1,7.2-6.2,16.8c-4.4,10.3-7.2,16.9-13.6,22.5c-6.8,6-13.5,7.2-13.1,9.4
		c0.6,3.2,14.2,0.8,17.8,7.5c2.3,4.2-1,8.9,1.4,10.7c2,1.4,6.3-0.2,8.6-3c2.8-3.3,2.3-7.8,2.1-10.5c0,0-1-10.3-1.6-26.2
		C570.2,884.4,575.9,872.8,575.4,872.7z"/>
	<path fill="#5DBFD9" d="M538.3,922.5c0.2,1.9-9,2.5-12,9.4c-0.7,1.6-0.9,3.4-1.3,6.9c-0.5,4.1-0.3,6.7-0.3,9.9
		c0.2,11.8-1.3,15.9,0.5,16.8c0.8,0.4,1.6-0.1,6.3-3.7c7.8-6,9.5-7.9,13.1-10c2.1-1.2,5.4-3,9.8-3.5c6.1-0.7,13.9,1.2,19.1,7.1
		c3.9,4.4,7.9,12.7,4.8,18.1c-2,3.5-6.7,5-13.3,7.1c-2.1,0.7-7.4,2.2-7.4,2.2l0,0c-2.3,5.8-4.1,7.1-4.1,7.1c-2.2,1.6-5,0.9-8.8,0.2
		c-14.1-2.7-16.1-0.9-24.2-4.3c-7.2-3-7.8-5.3-7.9-6c-0.4-2.4,1.7-3.7,2.1-8.1c0.3-2.7-0.3-3.9-0.5-6.3c-0.5-5.5,1.7-9.7,2.9-12.5
		c5.9-14.1-1.7-25.6,5-31.1C527.7,917.3,538.1,920.6,538.3,922.5z"/>
	<path fill="#5DBFD9" d="M377.3,493.6c1.4-3.3,3.9-7.8,8.3-11.8c4.3-3.9,8.5-5.6,12.2-7.1c4.5-1.8,8.2-3.3,13-3.1
		c7.7,0.2,11.8,4.5,12.6,3.5c1.1-1.4-4.6-11.1-14.6-14.5c-10.2-3.5-19.6,1.7-22,3.1c-10.4,6.3-13,17-13.5,19.1"/>
	<path fill="#5DBFD9" d="M631.1,505.8c-0.1,2.8-1.3,6.8-2.3,9.8c-1.3,4.2-2.2,5.4-1.5,6.4c0.8,1.2,3.6,1.9,13.3-1.3
		c-0.4,2.4-1.1,5.4-2.1,8.7c-1.5,5.1-3.1,8.8-3.6,9.9c-4.2,9.5-9.4,15.6-12.6,19.5c-4.1,4.8-5.8,5.8-6.8,6.3
		c-4.3,2.3-11.5,3.8-13.5,1.2c-3.2-4.3,9.3-18.1,15.3-35c0.8-2.3,2-6.1,1.4-10.6c-0.6-4.3-2.4-5.5-3.3-9c-2.1-7.9,2.3-18.4,6.6-18.8
		C626,492.4,631.3,499.6,631.1,505.8z"/>
</g>
<g id="vs-outline">
	<path fill="none" stroke="#000000" stroke-width="6" stroke-linecap="round" stroke-linejoin="round" stroke-miterlimit="10" d="
		M476.5,49.4c-1,0.8-4.1,3.3-7.3,9.4c-2,3.8-2.5,6-5.8,20.4c-2.5,10.7-2.7,11.5-2.6,13.6c0.1,5.8,1.7,6.9,2.1,14.1
		c0.3,6.6-1,6.2-0.5,12c0.4,5.2,1.8,9.5,3.7,15.2c1.6,4.9,2,5.1,2.6,7.9c1.2,5.3,1,10,0.5,13.1c2.4,4.9,5.2,7.7,7.3,9.4
		c5.6,4.4,9.1,3,15.2,8.4c1.5,1.3,3.1,3,6.3,5.2c4,2.8,5.8,3.1,6.8,3.1c1.6,0.1,3.2-0.3,6.3-2.1c4.7-2.8,5.9-5,10-8.4
		c6-5.1,7.8-4.1,11-7.9c3.1-3.6,4.3-7.8,4.7-11c0.1-6.3,0.2-12.7,0.5-19.4c0.3-6.1,0.6-12,1-17.8c0.3-2.9,0.5-7.1,0.5-12
		c0-7.1,0-11.9-1.6-17.8c-0.9-3.2-2.5-7.9-5.8-13.1c-1.5-2-2.9-4-4.4-6.1c-2.7-2.2-5.4-4.4-8.1-6.5c-4.1-1.9-6.5-4.2-8-6
		c-2.6-3.2-2.6-5.3-5.1-6.6c-2.5-1.3-3.7,0.1-8.9,0c-6-0.1-6.5-2-11-1.6C481.4,45.7,478.1,48.2,476.5,49.4z"/>
	<path fill="none" stroke="#000000" stroke-width="6" stroke-linecap="round" stroke-linejoin="round" stroke-miterlimit="10" d="
		M461.1,90.8c-3.5-2.7-5.1-5.4-6-7.3c-4.4-9.4,3-15.6,6-33.9c0.3-1.6,0.9-6,4.2-9.7c1-1.1,2.5-2.8,4.9-3.6c3.4-1.1,5,0.7,7.2-0.7
		c2.4-1.5,2.9-5.2,3.1-6.7c0.5-3.9-0.9-5.5,0.3-6.8c1.4-1.5,4.7-0.8,6.1-0.4c2.8,0.6,3,1.6,5,1.5c2.2-0.1,2.3-1.5,5-1.8
		c1.2-0.1,1.4,0.2,4.5,0.2c1.5,0,2.2-0.1,2.9,0c0,0,0.5,0.1,1,0.3c2.5,0.9,4.2,6.3,7,7.3c2.3,0.8,3.3-1.9,7-2.3
		c5.8-0.6,11.6,5.2,11,6.7c-0.5,1.2-5.1-0.1-5.3,0.7c-0.2,0.8,5.2,2.2,11.3,6.1c3.3,2.1,6.4,4.1,8.8,8c2.2,3.7,2.6,7.2,2.9,10.6
		c0.5,4.8-0.1,8.9-0.7,11.7c0.3,1.3,0.6,3.1,1,5.3c0.7,4.8,0.9,8.2,0.9,11.1c-0.1,5.2-0.9,6.2-1.4,6.7c-1.4,1.4-3.6,1.8-5.2,1.4
		c-3.1-0.7-5.5-4.3-5.2-8.9"/>
	<path fill="none" stroke="#000000" stroke-width="6" stroke-linecap="round" stroke-linejoin="round" stroke-miterlimit="10" d="
		M552.2,95.7c-1.8,4.2-2.8,7.7-3.4,10.3c-0.9,4.2-0.9,6.4-2.6,8.4c-2.1,2.4-5.4,2.9-8,3"/>
	<path fill="none" stroke="#000000" stroke-width="5" stroke-linecap="round" stroke-linejoin="round" stroke-miterlimit="10" d="
		M457.8,87.7c-0.6,3.8-1.1,8.2-1.1,13.1c-0.1,5.7-1.1,8.5,0.5,11.5c1.3,2.4,3.3,3.9,4.7,4.7"/>
	<path fill="none" stroke="#000000" stroke-width="4" stroke-linecap="round" stroke-linejoin="round" stroke-miterlimit="10" d="
		M481.1,79.3c1.8,0.5,3.4,1,4.7,1.4c3.2,1,4.7,1.5,4.9,1.6c0.4,0.2,0.8,0.6,1.2,0.4c0.6-0.3,0.8-1.9,0.2-2.7
		c-0.4-0.7-1.3-0.9-6.5-0.8c-4.6,0.1-6.6,0.3-7.4,0.4c-1.5,0.2-2.4,0.3-3.4,0.5c-1.9,0.4-4.9,1.5-8.2,4.7"/>
	<path fill="none" stroke="#000000" stroke-width="4" stroke-linecap="round" stroke-linejoin="round" stroke-miterlimit="10" d="
		M504.7,78.3c2.9,0.5,5.3,0.8,7.1,1c3.8,0.4,5.9,0.6,9.2,1.4c3.1,0.8,4.8,1.5,6.1,2.9c0.8,0.9,1.3,1.9,1.6,2.6"/>
	<path fill="none" stroke="#000000" stroke-width="4" stroke-linecap="round" stroke-linejoin="round" stroke-miterlimit="10" d="
		M504.7,78.3c-0.9,0.6-1.5,1.5-1.4,2.2c0.2,0.9,1.6,1.2,2.6,1.4c1.7,0.4,3,0.1,3.2,0.1c2.3-0.4,6-0.9,10.8-1.5"/>
	<path fill="none" stroke="#000000" stroke-width="4" stroke-linecap="round" stroke-linejoin="round" stroke-miterlimit="10" d="
		M505.1,91.1c2-0.9,3.8-1.6,5.1-2.2c2.4-0.9,3.2-1.1,4.1-1.2c1.6-0.1,2.9,0.3,3.9,0.6c1.2,0.4,2.9,0.9,4.5,2.4c1,0.9,1.6,1.9,2,2.6"
		/>
	<path fill="none" stroke="#000000" stroke-width="4" stroke-linecap="round" stroke-linejoin="round" stroke-miterlimit="10" d="
		M508.3,89.7c0.4,0.2,0.9,0.6,1.7,0.8c2.2,0.8,4,0.5,5.7,0.4c1.7-0.2,4.1-0.3,7.1-0.2"/>
	<path fill="none" stroke="#000000" stroke-width="4" stroke-linecap="round" stroke-linejoin="round" stroke-miterlimit="10" d="
		M490,91.5c-0.8-0.8-2.2-2.2-4.5-3.1c-0.8-0.3-3-1.2-5.9-0.8c-1.7,0.2-2.9,0.8-4.7,1.8c-1.9,1-3.3,2-4.3,2.7"/>
	<path fill="none" stroke="#000000" stroke-width="4" stroke-linecap="round" stroke-linejoin="round" stroke-miterlimit="10" d="
		M473.8,91.2c0.4,0,1.1,0,1.9,0c3.3,0,4.7,0.5,6.6,0.5c1.2,0,3-0.2,5.2-1.3"/>
	<path fill="none" stroke="#000000" stroke-width="4" stroke-linecap="round" stroke-linejoin="round" stroke-miterlimit="10" d="
		M487.4,105.6c-0.2,0.2-1.8,2.5-1,4.9c0.6,1.8,2.3,2.6,2.9,2.9c1.4,0.7,1.7,0.3,3.1,1c1.7,0.9,1.6,1.7,3.1,2.4
		c0.4,0.2,1.9,0.8,3.5,0.4c1.8-0.5,1.8-1.8,3.9-2.6c1.5-0.5,1.8,0,2.6-0.6c1.5-1.2,1.1-4,1-4.7c-0.1-1-0.4-1.7-0.6-2.2"/>
	<path fill="none" stroke="#000000" stroke-width="4" stroke-linecap="round" stroke-linejoin="round" stroke-miterlimit="10" d="
		M481.5,125.3c3.2,0.5,5.6,0.2,7.3-0.2c1.1-0.3,2.8-0.8,4.9-0.4c1,0.2,1.8,0.5,2.4,0.8c0.5-0.4,1.3-0.8,2.4-1c2-0.4,3.7,0.5,4.7,1
		c1.7,0.8,4.3,1.5,8.2,1.4"/>
	<path fill="none" stroke="#000000" stroke-width="4" stroke-linecap="round" stroke-linejoin="round" stroke-miterlimit="10" d="
		M485,125.5c0.8,0.4,2,0.9,3.4,1.3c0.8,0.3,3.5,1.1,6.7,1.4c5.1,0.4,9.5-0.8,11.7-1.6"/>
	<path fill="none" stroke="#000000" stroke-width="6" stroke-linecap="round" stroke-linejoin="round" stroke-miterlimit="10" d="
		M469.2,155.2c-0.9,0.9-2,2.4-2.6,4.5c-1.3,4.2,0.3,8.1,0.8,9.4c2.3,6.1,0.4,7.6,3.1,24.4c2.5,15.2,6.6,29.5,9.4,40.1
		c7.7,28.2,6,26.3,13,52.2c4.1,15.1,10.2,36.3,18.9,61.7c2.2-4,5.2-9.9,8.2-17.3c2.9-6.9,6.3-16.3,11.8-38.9
		c4.2-17.5,6.4-26.3,7.9-36.5c3.3-22.4-0.1-20.1,3.1-48.7c1.2-10.5,0.4-21.2,1.2-31.8c0.2-2.1,0.6-7.2-1.6-13
		c-1.6-4.2-3.9-7.3-5.6-9.2"/>
	<path fill="none" stroke="#000000" stroke-width="5" stroke-linecap="round" stroke-linejoin="round" stroke-miterlimit="10" d="
		M471.1,196.7c2.3,3.1,4.6,6.2,6.9,9.3c2.3-3.1,5.1-6.4,8.6-9.8c6.1-5.9,12.3-9.9,17.3-12.6c3.9,1.2,8.3,3,13,5.5
		c9,4.9,15.4,10.7,19.6,15.3c2.3-3.8,4.7-7.6,7-11.4"/>
	<path fill="none" stroke="#000000" stroke-width="5" stroke-linecap="round" stroke-linejoin="round" stroke-miterlimit="10" d="
		M516.9,189.1c-2.7,1.9-6.6,5.3-9.8,10.6c-1.7,2.9-2.8,5.6-3.5,7.9c-1.9-0.5-4.6-1-7.9-0.8c-2.6,0.1-4.7,0.7-6.3,1.2
		c-0.2-4.6-0.5-9.1-0.7-13.7"/>
	<path fill="none" stroke="#000000" stroke-width="5" stroke-linecap="round" stroke-linejoin="round" stroke-miterlimit="10" d="
		M503.5,207.6c1.5,3.4,3.3,7.6,5.1,12.6c0,0,2.2,6.2,3.9,12.2c3.6,12.7,4.5,25,4.7,28.3c0.9,11.5,2.9,28.8,7.4,56.7"/>
	<path fill="none" stroke="#000000" stroke-width="5" stroke-linecap="round" stroke-linejoin="round" stroke-miterlimit="10" d="
		M489.4,208c-1.5,4.2-2.9,9.1-3.9,14.5c-2.3,12.5-1.6,23.4-0.3,31.2"/>
	<path fill="none" stroke="#000000" stroke-width="5" stroke-linecap="round" stroke-linejoin="round" stroke-miterlimit="10" d="
		M469.2,155.2c-2.4,2.3-4.4,4.4-5.8,6c-2,2.3-2.5,3.2-3.9,4.3c-3,2.5-5.9,3-7.5,3.5c-3.1,1.1-7,4.6-9.8,15.3
		c2.9,2.2,5.8,4.5,8.6,6.7c-4.6,3.3-9.2,6.5-13.7,9.8c0.8,2.9,1.9,7.1,3.5,12.2c6.3,19.7,12.9,32.1,20.4,47.1
		c16.7,33.6,13.3,31.4,24,50.7c9.5,17.2,18.6,30.5,24.7,38.9"/>
	<path fill="none" stroke="#000000" stroke-width="5" stroke-linecap="round" stroke-linejoin="round" stroke-miterlimit="10" d="
		M542.4,161.2c2.7,1.3,5.6,3,8.6,5.1c8.7,6.2,14.3,13.4,17.7,18.9c-2.6,2.2-5.2,4.5-7.9,6.7c5.1,3,10.2,6,15.3,9
		c-1.1,7.5-2.8,18-5.5,30.6c-5,23.7-7.8,37-14.9,53.8c-7.3,17.2-15.3,29.2-25.5,44.4c-6.8,10.1-10.2,15.2-13.4,17.3
		c-3.3,2.2-8.5,4.6-9.8,9.8c-0.6,2.2-0.2,4,0,5.1c3.2,15.8,6.7,23.2,6.7,23.2c8.8,18.4,13.3,27.6,14.5,29.5
		c7.3,10.8,11.9,12.8,27.9,27.5c0,0,21,19.4,44,49.1c0,0,3.8,4.9,14.9,28.3c1.4,3,3.3,7,2.4,11.8c-0.9,4.4-3.5,6.1-6.7,11.4
		c-1.8,3-4.1,7.5-5.5,13.7c-5.7-8.3-14-20.4-23.6-35.4c-15.4-24.1-26.1-40.7-36.9-62.9c-6.1-12.6-14.2-30.7-21.6-53.6"/>
	<path fill="none" stroke="#000000" stroke-width="6" stroke-linecap="round" stroke-linejoin="round" stroke-miterlimit="10" d="
		M554.2,168.7c3.8,1.2,9.6,3.1,16.5,5.9c8.2,3.3,12.6,5.6,17.7,7.9c6.4,2.8,15.8,6.5,28.3,9.4c-0.3,5.7-1.1,14.3-3.5,24.4
		c-2.5,10.5-4.9,14.6-7.9,24.7c-3,10.4-2.4,12.8-5.5,30.6c-4.5,26.4-6.5,25-8.6,42.8c-2.4,19.7-1.3,31.4-0.8,35.7
		c1.1,9.1,2.8,15.6,4.3,21.2c9.5,35.4,14.3,53,14.9,56.2c5.9,27.9,6.2,51.5,6.3,65.6c0.1,10.7-0.3,19.7-0.8,26.3"/>
	<path fill="none" stroke="#000000" stroke-width="6" stroke-linecap="round" stroke-linejoin="round" stroke-miterlimit="10" d="
		M618.2,534.4"/>
	<path fill="none" stroke="#000000" stroke-width="5" stroke-linecap="round" stroke-linejoin="round" stroke-miterlimit="10" d="
		M618.2,534.4c1.1,2.7,2.4,6.4,2.7,11c0.2,2.2,0.1,4.2,0,5.9c-1.1,0.8-2.4,1.6-3.9,2.4c-4.6,2.2-8.9,2.7-11.8,2.7"/>
	<path fill="none" stroke="#000000" stroke-width="6" stroke-linecap="round" stroke-linejoin="round" stroke-miterlimit="10" d="
		M616.7,191.9c3.7-0.8,5.4,0.1,6.3,0.8c1.7,1.3,1.7,3.2,3.1,11c0.8,4.4,1.2,6.6,1.6,7.9c1.6,5.2,3.1,6.6,3.1,10.6
		c0,2.5-0.6,2.5-0.4,4.7c0.3,3.3,1.7,4.2,3.1,7.9c0.8,2,2.7,6.8,1.2,11.4c-0.9,2.8-2.1,2.5-3.1,5.5c-0.3,0.9-0.8,2.6,0,9.8
		c0.7,6.4,1.4,7.8,0.4,10.2c-1,2.6-2.3,2.3-2.7,4.3c-0.8,3.6,3.1,4.9,5.1,11c1.8,5.4,0.8,10.5,0.4,12.2c-0.4,2-1.1,3.6-1.6,4.7
		c1.5,3.7,3.1,8.6,3.9,14.5c1.1,7.9,0.4,14.6-0.4,19.2c6.1,7.1,8,13.2,8.6,17.7c0.6,4.3-0.2,6.2,0.4,13.4c0.5,5.7,1.3,9.3,2.4,14.1
		c1.7,7.9,2.9,16,4.3,24c2.1,11.9,2.6,21.3,3.5,40.1c0.7,13.9,1.2,32.2,0.8,53.8c-3.7,1.8-8.9,3.8-15.3,4.7
		c-11.4,1.6-20.7-1-25.6-2.8"/>
	<path fill="none" stroke="#000000" stroke-width="6" stroke-linecap="round" stroke-linejoin="round" stroke-miterlimit="10" d="
		M651.8,502.7c-0.6,1.7-1.3,3.8-1.8,6.2c-0.6,3.1-0.8,6-0.8,8.2c-2.4,1.3-5.3,2.6-8.6,3.5c-11.1,3.1-20.8,0.5-25.5-1.2"/>
	<path fill="none" stroke="#000000" stroke-width="6" stroke-linecap="round" stroke-linejoin="round" stroke-miterlimit="10" d="
		M640.2,523c-1.2,4.3-2.2,8.2-2,8.2c0.2,0.1,1.4-3.6,1.6-3.5c0.1,0-0.6,4.1-2.7,8.2c-1,2-1.6,2.6-4.3,6.3c-0.7,1-4.1,5.7-6.7,9.8
		c-1.3,2.1-3.2,5.3-5.1,9.4c-1.4,1.3-3.9,3.2-7.5,4.3c-5.1,1.6-9.5,0.9-11.4,0.4c-0.3-1.3-0.5-2.6-0.8-3.9l5.9-2l0,0
		c1.7-0.9,3.4-1.8,5.1-2.7"/>
	<path fill="none" stroke="#000000" stroke-width="6" stroke-linecap="round" stroke-linejoin="round" stroke-miterlimit="10" d="
		M447.2,173c-2.6,1.1-6.3,2.8-10.8,4.7c-8.2,3.5-15,6.4-23.6,9.4c-3.9,1.4-9.4,3.2-16.1,5.1c1.2,4,2.9,9.5,4.7,16.1
		c3.1,11.2,5.7,21.9,9.4,39.7c6.4,30.1,9.5,45.4,10.2,58.9c0.6,11.5,0.1,21-0.4,27.1c0.6,1,1.5,2.4,2,4.3c1.3,4.8-0.5,9.1-1.2,11
		c-2,5.5-2.4,12.4-3.1,26.3c-0.2,3.4-0.3,8.1-1,15.2c-0.2,2.4-0.3,3.6-0.6,5.2c-0.6,4.7-1.4,10.1-3.9,16.1c-0.8,1.9-2,4.5-3.9,7.5
		c-0.7-4.8-0.7-8.8-0.4-11.8c0.4-4.3,1.3-7.6,1.6-8.6c1.2-4.1,2-4.7,2.7-7.5c1.5-5.3-0.2-7.6,0-12.6c0.3-8.2,5-8,6.3-16
		c1.4-9.1-4.2-12.6-1.9-21.7c0.9-3.4,2.4-5.9,3.5-7.5"/>
	<path fill="none" stroke="#000000" stroke-width="6" stroke-linecap="round" stroke-linejoin="round" stroke-miterlimit="10" d="
		M408.8,419.7c0.6,2.1,1.3,5.3,0.8,9c-0.5,3.9-1.8,5.3-2,8.6c-0.3,4.3,1.5,7.4,2.7,9.8c2.2,4.4,5,11.3,7.5,22
		c-2.2-2.6-6.9-7.2-13.7-8.2c-13.6-2.2-23.7,11.3-26.3,14.9c-3,4-8.2,11-5.9,18.5c1.1,3.7,3.7,6.1,5.5,7.5"/>
	<path fill="none" stroke="#000000" stroke-width="6" stroke-linecap="round" stroke-linejoin="round" stroke-miterlimit="10" d="
		M373.1,497c-2.1-2.1-4.9-5.4-6.3-10.1c-1.5-4.9-0.3-7.5-0.4-13.7c-0.1-7.6-2-7.3-3.9-19.2c-1.3-8-0.5-8.1-2-19.2
		c-1-7.5-1.5-11.2-2.7-15.7c-3.2-11.6-6.3-12-6.7-19.2c-0.4-6.9,2.4-7.2,2.7-16.1c0.2-6-1-6.4-2.4-17.3c-1.4-11.1-2.1-16.6-0.4-22
		c1.9-6,4.3-6.7,6.7-14.5c1.7-5.6,1.8-10,2-12.2c0.3-5.2,3.5-18.5,9.8-44.8c4.2-17.6,5.4-21.7,8.6-35.7c2.3-9.9,3.4-14.8,3.5-15.7
		c0.7-4.6,1.5-11.8,4.3-20c0.8-2.4,2-5.5,5.1-7.5c2-1.3,4.1-1.5,5.5-1.6"/>
	<path fill="none" stroke="#000000" stroke-width="5" stroke-linecap="round" stroke-linejoin="round" stroke-miterlimit="10" d="
		M372.5,484.7c1.1,0.7,2.6,1.9,3.7,3.8c1.7,3,0.6,5.2,1.6,10.2c0.6,3,1.5,5.1,2.4,7.1c1.2,2.7,2,3.7,5.5,9c5.4,8.2,5.1,8.3,7.1,10.6
		c1.5,1.8,3.4,3.4,7.1,6.7c5.2,4.6,7,5.5,9,5.5c1.7,0,3-0.6,3.9-1.2c0.3,0.5,1.9,3.3,5.1,3.9c2.6,0.5,6-0.6,6.7-2.7
		c0.5-1.6-0.7-3.2-1.2-4c-1.8-2.5-4-2.8-6.6-4.3c-1.6-0.9-2.1-1.6-6.7-7.1c-8.2-9.8-7.5-8.8-8.2-9.8c-2.4-3.2-5.4-7.9-8.2-14.1"/>
	<path fill="none" stroke="#000000" stroke-width="5" stroke-linecap="round" stroke-linejoin="round" stroke-miterlimit="10" d="
		M423.3,533.6c1.7,1.9,4.2,2.5,6,1.6c1.9-0.9,2.6-3.4,2.4-5.1c-0.5-3.5-4.7-4.4-9-7.5c-3.6-2.6-6.6-7.7-12.6-18.1
		c-2.3-3.9-5.2-9.2-8.2-15.7"/>
	<path fill="none" stroke="#000000" stroke-width="6" stroke-linecap="round" stroke-linejoin="round" stroke-miterlimit="10" d="
		M414.9,466.2c0.7,0.7,1.7,1.7,2.9,3c2.5,2.7,2.7,3.1,4.3,4.7c2.6,2.6,3.2,2.3,4.3,3.9c1.2,1.6,1.4,3,2,5.5
		c1.5,6.7,2.3,10.1,3.5,11.8c2.5,3.5,5.6,3.5,5.9,6.3c0.2,1.6-0.6,3.4-2,4.3c-2.3,1.5-5.4,0-7.1-0.8c-6.1-2.9-8.8-9.2-9.8-12.2"/>
	<path fill="none" stroke="#000000" stroke-width="5" stroke-linecap="round" stroke-linejoin="round" stroke-miterlimit="10" d="
		M414,475.5c1.5,5.4,2.9,9.8,3.9,13c1.8,5.8,2.5,7.3,2.8,8.2c2.2,5.2,3.6,6.4,5.4,10.3c2.7,6,3,10.6,3.1,11.8c0.2,2.4,0.1,4.4,0,5.9
		"/>
	<path fill="none" stroke="#000000" stroke-width="5" stroke-linecap="round" stroke-linejoin="round" stroke-miterlimit="10" d="
		M384.5,503.8c2.4,2.4,5.8,6.1,9,11.4c2.4,4,3,5.9,4.7,8.6c2.3,3.7,6.4,8.5,14.5,12.6"/>
	<path fill="none" stroke="#000000" stroke-width="6" stroke-linecap="round" stroke-linejoin="round" stroke-miterlimit="10" d="
		M392.7,525.4c-0.2,2.3-0.8,6-2.4,10.2c-1.9,5.1-3.6,6.9-2.7,8.6c1.3,2.4,6.2,1,13.4,2c6.2,0.9,8.5,2.8,15.3,5.5
		c7.3,2.9,12.7,3.9,23.6,5.9c19.7,3.6,30.3,5.4,40.5,0c1.9-1,5.8-3.1,9-7.5c5.5-7.4,5.2-16,5.1-21.6c-0.2-13,2.8-25.9,3.5-38.9
		c0.5-8.6,1.9-20.4,4.7-44c2-16.8,4.9-38.9,9.1-65.3"/>
	<path fill="none" stroke="#000000" stroke-width="6" stroke-linecap="round" stroke-linejoin="round" stroke-miterlimit="10" d="
		M519.2,355.3c-1.8-2.2-6.4-1.6-7.5,0.8c-0.7,1.5,0.1,3.6,1.6,4.7c1.5,1.1,3.9,1.5,5.5,0C520.5,359.3,520.4,356.7,519.2,355.3z"/>
	<path fill="none" stroke="#000000" stroke-width="6" stroke-linecap="round" stroke-linejoin="round" stroke-miterlimit="10" d="
		M496.8,414.6c-1.8,1-1.8,4.5-0.8,6.7c0.1,0.3,1.5,3.2,3.5,3.1c2.1-0.1,4.3-3.4,3.5-6.3C502.3,415.3,498.7,413.5,496.8,414.6z"/>
	<path fill="none" stroke="#000000" stroke-width="6" stroke-linecap="round" stroke-linejoin="round" stroke-miterlimit="10" d="
		M500.5,464.9c2,0.1,5,0.3,8.6,0c6.8-0.5,11.5-2.1,15.3-3.1c4.7-1.3,11.5-2.8,20.4-3.5"/>
	<path fill="none" stroke="#000000" stroke-width="6" stroke-linecap="round" stroke-linejoin="round" stroke-miterlimit="10" d="
		M411.3,549.5c0.3,4.8,1.2,8.6,1.9,11.1c1,3.7,1.7,4.5,2.1,7.3c0.6,4,0.1,7.1-0.5,10.5c-1.6,8.8-3.9,9.4-3.1,13.6
		c0.6,3.8,2.6,4.1,4.7,8.9c2.3,5.4,2.1,10.1,2.1,13.1c0,8.6,2.2,19.7,6.8,41.9c3.6,17.7,5.5,26.6,7.9,30.9c1.1,2,4.5,7.7,5.2,15.7
		c0.3,3.3-0.2,3.3,0,6.8c0.5,8.9,3.8,12.1,5.8,20.4c1.3,5.2,0.1,4.6,1,16.8c0.6,7.8,1.3,10.3,2.6,20.4c2.7,20.4,1.3,18.7,3.1,28.3
		c2.7,13.8,7.1,23.8,8.9,27.8c3.7,8.1,7.8,14.4,11,18.9c0.5,7.2,1.4,13.1,2.1,17.3c0.4,2.2,2.6,14.3,8.9,28.8c2.8,6.4,5,10,8.9,11.5
		c0.6,0.2,3.1,1.1,8.4,0c3.5-0.7,10.2-2.8,17.3-9.4"/>
	<path fill="none" stroke="#000000" stroke-width="6" stroke-linecap="round" stroke-linejoin="round" stroke-miterlimit="10" d="
		M484.3,893.2c-0.2,1.9-0.4,4.8-1,8.3c-1.3,8.3-2.8,12.1-4.7,22c-1.9,9.6-1.6,11.9-0.5,14.1c2,4.1,5.9,6.1,7.3,6.8
		c2.7,1.4,5.4,2,13.1,2.1c4.2,0.1,9.7,0,16.2-0.5"/>
	<path fill="none" stroke="#000000" stroke-width="6" stroke-linecap="round" stroke-linejoin="round" stroke-miterlimit="10" d="
		M478.1,937.7c-0.2,1.4-1.1,7.4,2.6,11.5c2.2,2.4,5,3,7.9,3.7c7,1.5,10.4-0.7,19.9-0.5c3,0.1,5.4,0.3,6.8,0.5"/>
	<path fill="none" stroke="#000000" stroke-width="6" stroke-linecap="round" stroke-linejoin="round" stroke-miterlimit="10" d="
		M498,553.8c1,3.5,2.5,8.8,4.7,15.2c2.5,7.2,4.1,10.9,5.2,14.1c3.4,9.4,3.7,17,4.2,28.3c2.5,53.7,3.8,50.3,2.6,58.7
		c-1.8,12.4-4.8,20.1-3.1,33.5c0.3,2.2,1.1,7.1,2.6,16.8c2.7,16.5,2.9,16.6,3.1,19.9c0.7,10.6-1.7,12.6-2.6,25.7
		c-0.9,12.7,0.5,22.9,1,26.7c2.1,13.2,5.1,16.4,6.8,31.9c0.9,8,0.7,12.2,0.5,14.1c-0.7,9.6-3.4,15.2-5.2,21
		c-3.4,10.5-3,21.2-2.1,42.4c0.3,7.1,1,16.6,2.6,27.8c0.9-3.3,3.1-9.6,8.4-11.5c3.1-1.1,7.3,0.3,15.7,3.1c1.5,0.5,5.2,2.1,12.6,5.2
		c7.1,3,9.2,4,9.4,5.8c0.3,2.9-5.3,4.9-4.7,6.3c0.6,1.5,7.9,1.6,10.5-2.1c1-1.5,0.9-2.9,0.5-8.4c-0.2-3.3-0.2-6.6-0.5-10
		c-0.7-7.6,0.8-14.1,2.1-20.4c3.4-17.2,1.7-20.5,4.7-36.1c5.8-30.2,14.3-29.1,14.7-49.2c0.2-11.5-2.5-11.8-3.1-33
		c-0.3-11.2,0.3-16.2-1-25.1c-1.7-11.3-5.2-20.1-7.9-25.7c1-4,2.2-10,2.6-17.3c0.5-8.3-0.3-13.2-0.5-18.9
		c-0.4-11.5,1.8-19.1,4.2-29.3c4-17.2,5.6-34.9,8.4-52.4c2.2-13.6,5.2-33.4,8.5-57.9"/>
	<path fill="none" stroke="#000000" stroke-width="6" stroke-linecap="round" stroke-linejoin="round" stroke-miterlimit="10" d="
		M509,600.4c-1,3.3-2.2,8.4-2.6,14.7c-0.8,10.7,1.1,19.1,3.7,29.9c1,4.5,2.7,10.6,5.1,17.8"/>
	<path fill="none" stroke="#000000" stroke-width="6" stroke-linecap="round" stroke-linejoin="round" stroke-miterlimit="10" d="
		M512.1,706.7c-0.5,0.4-5.6,4.1-5.7,10.5c0,3.2,1.5,3.7,3.1,8.4c3.1,8.8-0.1,13.3,3.7,20.4c1.3,2.4,2.8,4,3.7,5"/>
	<path fill="none" stroke="#000000" stroke-width="6" stroke-linecap="round" stroke-linejoin="round" stroke-miterlimit="10" d="
		M518.4,929.8c0.6,0.9,1.6,3,1.6,5.8c-0.1,3.6-2.4,4.3-3.7,7.9c-2.2,6.3,3,9.3,0.5,15.7c-0.9,2.5-2.2,3.3-2.6,6.3
		c-0.4,2.7,0.5,3.4,0.5,6.3c0.1,5.8-3.2,7.7-2.1,10.5c0.8,1.8,2.8,2.5,7.9,3.7c9,2.2,13.5,3.3,17.3,3.7c10.6,1.1,16.7,1.7,18.9-1.6
		c1.7-2.6-0.1-5.8,2.1-7.3c1.4-1,2.6,0.1,6.3,0c1.4,0,5.1-0.1,8.4-2.1c3.8-2.2,5.4-5.8,5.8-6.8c2.2-5.3,0.2-10.5-2.1-16.2
		c-1.6-4-4.6-10.1-10.5-16.3"/>
	<path fill="none" stroke="#000000" stroke-width="6" stroke-linecap="round" stroke-linejoin="round" stroke-miterlimit="10" d="
		M514.4,973.8c2.2,0.3,5.4,0.5,9.1-0.5c1.9-0.5,3.8-1.1,5.6-2.6c2.9-2.6,2.4-5.4,4.1-8.9c2.3-4.9,6.8-7.1,12.7-10
		c4.6-2.3,8.7-4.2,14.2-3.7c6.1,0.6,10.2,4,11.6,5.2c6.3,5.3,8,12.3,8.4,14.7"/>
	<path fill="none" stroke="#000000" stroke-width="5" stroke-linecap="round" stroke-linejoin="round" stroke-miterlimit="10" d="
		M518.4,973.9c5.7,2,12.5,3.9,20.5,5.2c7.5,1.2,14.2,1.6,19.9,1.6"/>
</g>
<g id="vs-h-reveal">
	<path opacity="0" fill="none" stroke="#2E2B2C" stroke-width="92" stroke-miterlimit="10" d="M537.3,27.7
		c-20.7-6.1-42.7-7.6-64.1-4.5c-3.7,0.5-7.6,1.3-10.3,3.9c-2.7,2.6-3.5,7.5-0.7,9.9c1.3,1.1,3.1,1.5,4.8,1.8
		c26.2,4.4,53.6-2.6,79.5,3.4c4.6,1.1,10.3,5.5,7.4,9.3c-1,1.3-2.7,1.8-4.2,2.2c-30.3,7.8-62.3-1.4-93.4,1.3
		c-4.7,0.4-10.9,3.1-9.8,7.7c0.8,3.4,5.2,4.4,8.7,4.6c17,1.2,34.1,1.5,51.1,0.9c15.7-0.6,32.6-1.6,45.7,7c3.2,2.1,6.2,6.4,3.7,9.3
		c-0.9,1-2.2,1.4-3.5,1.8c-30.3,8.4-62.6-3.7-93.8,0.4c-4.5,0.6-10,2.6-10.2,7.2c-0.3,5.1,6.2,7.4,11.2,8
		c15.8,1.8,31.7,1.8,47.5,0.1c8.4-0.9,17.3-2.3,25.1,1.1s13.2,13.6,8.3,20.5c-30.3-2-60.6-3.9-90.9-5.9c-2.6,3.5-0.4,8.9,3.3,11.3
		c3.7,2.4,8.3,2.5,12.7,2.6c14.2,0.3,28.4,0.6,42.6,1c6.3,0.1,12.8,0.3,18.4,3.1c5.7,2.7,10.2,8.7,9.2,14.9
		c-21.4,0.1-42.8,0.3-64.2,0.4c-5.9,0-12.3,0.2-17.2,3.6c-4.9,3.4-6.9,11.4-2.4,15.3c1.8,1.6,4.3,2.1,6.6,2.6
		c48.2,9.4,100.3-6.7,146.2,10.7c5.3,2,11.5,7.6,8.3,12.3c-1.2,1.7-3.3,2.5-5.3,3.1c-20.9,6.5-43.2,6.4-65.1,6.3
		c-48.4-0.2-96.7-0.5-145.1-0.7c-9,0-20.1,1.2-23.5,9.6c-3.9,9.7,6.3,19,15.7,23.4c29.2,13.8,62.8,14.9,95,11.9s64-9.8,96.3-11
		c10.6-0.4,22.1,0.1,30.3,6.7c2.8,2.3,5.3,5.7,4.9,9.3c-0.7,6.2-8.3,8.5-14.4,9.3c-65.3,8.4-131.5,1.2-197.3,4.3
		c-7.7,0.4-15.6,0.9-22.4,4.6c-6.7,3.7-11.9,11.3-10.3,18.9c2.5,11.7,17.7,14.6,29.7,14.9c52.3,1.4,104.7,1.6,157,0.6
		c25.5-0.5,52.8-0.7,73.8,13.7c2.7,1.8,5.4,4.2,5.7,7.4c0.6,6.4-7.8,9.1-14.2,9.5c-89.9,6.1-180.5,2.7-269.7-10.1
		c-4.3,5.7-2.7,14.3,1.9,19.7c4.6,5.4,11.5,8.3,18.4,10.4c22.4,6.8,46.3,6.8,69.7,6.7c54.5-0.2,109.1-0.4,163.6-0.6
		c14-0.1,31.2,1.9,36.4,14.9c-10.4,11.1-27.6,11.5-42.7,11c-62.6-1.7-125.2-3.3-187.8-5c-5.8-0.2-11.7-0.3-17.1,1.8
		c-5.4,2.1-10.1,6.9-10.3,12.7c-0.1,5.8,4.4,10.8,9.8,13.1c5.3,2.3,11.3,2.4,17.1,2.5c68.3,0.8,136.6,1.6,204.9,2.4
		c10.7,0.1,23.6,1.6,28.2,11.3c4.1,8.7-1.8,19.4-10.2,24.1c-8.4,4.6-18.5,4.8-28.1,4.8c-17.9,0-35.7,0.1-53.6,0.1
		c-34.1,0.1-68.3,0.1-102.4,0.2c-17.7,0-35.6,0.1-52.8-3.8c-8.8-2-18-4.9-26.6-2.3c-1.4,5.4,2.5,11.1,7.5,13.7
		c5,2.6,10.8,2.8,16.4,3c63.1,2,126.2,2.4,189.3,1.3c20.3-0.4,41.6-0.6,59.5,8.9c2.2,1.2,4.5,2.7,5.3,5.2c1.5,5.2-4.9,8.9-10.1,10.2
		c-85,22.5-174.2-4.5-261.8-12.3c-5.7,6.7-2.5,17.7,4.4,23.2c6.8,5.5,16,7,24.7,8.1c65.1,8.6,131,11,196.5,7.2
		c8.6-0.5,19.7,0.4,22.5,8.5c2.1,6-2.1,12.7-7.7,15.6c-5.6,2.9-12.2,3-18.6,3c-59.5,0-119.1,0.1-178.6,0.2c-5.2,0-10.5,0.1-15.1,2.4
		s-8.1,7.7-6.5,12.6c1.9,5.9,9.2,7.7,15.4,8.4c41.6,5,83.6,5.6,125.3,1.9c15.9-1.4,32.9-3.2,46.8,4.6c4.7-0.3,8.9,12.5,5.5,15.8
		c-3.5,3.3-8.8,3.2-13.6,2.9c-44.8-2.7-89.6-5.5-134.5-8.2c-13.4-0.8-27.7-1.4-39.1,5.5c-4,2.4-7.8,6.5-7,11.1
		c1,5.8,8.1,7.8,13.9,8.5c48.2,5.4,97-5.1,145.4-1.3c6.1,0.5,12.3,1.2,17.6,4.1c5.4,2.9,9.7,8.3,9.7,14.4c-22-0.1-44.1-0.2-66.1-0.3
		c-27.2-0.1-54.6-0.3-81.3,4.5c-4.1,4.6-1.3,12.5,4,15.7c5.3,3.2,11.8,3.2,18,3c28.4-0.8,56.9-1.7,85.3-2.5
		c7.2-0.2,14.8-0.4,21.3,2.9c6.5,3.2,11.3,11,8.7,17.8c-31.5,10-65.5,4.4-98.2,0.2c-8.1-1-16.6-1.9-24.3,0.7
		c-7.7,2.7-14.5,10-13.8,18.1c0.6,6.9,6.4,12.5,12.9,14.9s13.6,2.4,20.5,2.3c30.9-0.4,61.9-0.8,92.8-1.2c5.6-0.1,12.8,1.1,13.9,6.6
		c1.4,6.8-8,10-14.9,10.4c-30,1.5-60.1,3.1-90.1,4.6c-5.9,0.3-12.1,0.7-17,4.1s-7.4,10.8-3.6,15.3c2.9,3.5,8,3.9,12.6,3.9
		c22.7,0.3,45.5-0.3,68.2-2c8.5-0.6,17.3-1.4,25.2,1.8c7.9,3.1,14.5,11.4,12.6,19.7c-22.9-0.1-45.8-0.2-68.7-0.3
		c-12.4,0-25.2,0-36.8,4.6c-6.2,2.4-12.5,9.9-8,14.8c1.8,2,4.8,2.4,7.5,2.7c37.7,3.3,75.4-7.6,113.2-5.8c6.3,0.3,13,1.1,17.9,5.1
		s6.9,12.1,2.4,16.6c-1.4,1.4-3.3,2.3-5.1,3.1c-43.7,18.5-93.9-2.9-141,2.7c-2,0.2-4.1,0.6-5.7,1.9c-3.3,2.6-2.5,8.2,0.4,11.1
		c3,3,7.3,4,11.4,4.8c16.7,3.3,33.9,4.6,50.9,4c18.3-0.7,40.1-2.2,51.3,12.4c2.6,3.4,4.4,7.7,3.5,11.9c-2,9.2-14,11.1-23.4,11.1
		c-11.1,0-22.3-0.1-33.4-0.1c-2.3,0-4.7,0-6.5,1.4c-1.7,1.3-2.4,3.5-3,5.5c-1.5,4.8-2.9,9.6-4.4,14.4c-0.4,1.2-0.8,2.7-0.1,3.8
		c0.7,1.3,2.4,1.7,3.9,1.8c14.6,1.8,29.4,0.9,43.7-2.5c5-1.2,10.2-2.7,15.1-1.5c5,1.2,9.5,6.2,8,11.1c-1.4,4.6-6.8,6.3-11.5,7.3
		c-12.4,2.5-25.2,3.5-37.8,3.1c-8.3-0.3-16.6-1.2-24.7,0.5c-8.1,1.7-16.1,6.5-19,14.2c-0.6,1.5-0.9,3.4-0.1,4.8
		c0.9,1.5,2.8,2,4.5,2.3c25.3,4.7,51.5,0.4,77.2,2.6c4.5,0.4,9.7,1.3,12.1,5.2c2.9,4.8-0.3,11.4-5.3,14c-4.9,2.6-10.8,2.3-16.4,2
		c-19.9-1.2-39.9-2.4-59.8-3.5c-6.6-0.4-15.3,0.8-16.3,7.3c-1.1,6.7,7.4,10.5,14.1,11.6c28.9,4.7,58.7,3.5,87.2-3.5"/>
</g>
</svg>
