<?xml version="1.0" encoding="utf-8"?>
<!-- Generator: Adobe Illustrator 16.0.0, SVG Export Plug-In . SVG Version: 6.00 Build 0)  -->
<!DOCTYPE svg PUBLIC "-//W3C//DTD SVG 1.1//EN" "http://www.w3.org/Graphics/SVG/1.1/DTD/svg11.dtd">
<svg version="1.1" id="Line" xmlns="http://www.w3.org/2000/svg" xmlns:xlink="http://www.w3.org/1999/xlink" x="0px" y="0px"
	 width="600px" height="600px" viewBox="0 0 600 600" enable-background="new 0 0 600 600" xml:space="preserve">
<path fill="none" stroke="#000000" stroke-width="5" stroke-linecap="round" stroke-linejoin="round" stroke-miterlimit="10" d="
	M250.98,146.294c-0.538-0.512-0.009-1.182-1.193-1.247c-4.199,3.809,2.615,8.553,2.325,0.542c-0.767-0.609-1.365-0.489-2.308-0.472"
	/>
<path fill="none" stroke="#000000" stroke-width="5" stroke-linecap="round" stroke-linejoin="round" stroke-miterlimit="10" d="
	M284.765,138.883c1.968-4.033-5.172-23.713-11.765-26.37c-2.903-1.17-11.638-1.312-14.706-1.307
	c-4.223,0.006-9.609,1.332-12.956,4.002c-13.225,10.551-13.317,40.374-3.513,53.086c6.648,8.621,21.771-0.047,28.235-5.605
	c10.314-8.869,16.469-13.829,16.469-27.924"/>
<path fill="none" stroke="#000000" stroke-width="5" stroke-linecap="round" stroke-linejoin="round" stroke-miterlimit="10" d="
	M310.646,121.824c-26.197-1.689-26.42,25.919-20.13,44.704c3.199,9.553,10.05,19.009,21.321,15.427
	c8.603-2.734,16.548-15.758,18.952-24.249c2.734-9.656-0.192-24.004-6.611-31.778c-5.901-7.147-18.064-13.4-24.119-2.927"/>
<path fill="none" stroke="#000000" stroke-width="5" stroke-linecap="round" stroke-linejoin="round" stroke-miterlimit="10" d="
	M301.823,151.824c-8.747,0.594,4.224,12.02,1.086,0.026c-0.808,0.07-1.02-0.378-1.674-0.614"/>
<path fill="none" stroke="#000000" stroke-width="5" stroke-linecap="round" stroke-linejoin="round" stroke-miterlimit="10" d="
	M243.6,172.928c-0.015,2.181-0.011,4.361-0.012,6.542"/>
<path fill="none" stroke="#000000" stroke-width="5" stroke-linecap="round" stroke-linejoin="round" stroke-miterlimit="10" d="
	M265.941,177.706c0.648-0.263,1.799-0.116,0.623-0.648c-7.639,4.073-18.551,4.911-27.094,5.354
	c-10.054,0.522-19.061,0.628-28.692,4.249c-9.794,3.682-14.702,12.535-13.661,23.296c0.966,9.988,7.352,15.985,15.882,20.836
	c14.307,8.136,37.187,9.974,52.839,4.502c0.2-0.552,0.234-1.121,0.103-1.707"/>
<path fill="none" stroke="#000000" stroke-width="5" stroke-linecap="round" stroke-linejoin="round" stroke-miterlimit="10" d="
	M242.412,238.294c-5.408,18.202,0.282,41.917,2.911,59.442c3.132,20.885,1.428,42.374,3.56,63.457
	c2.152,21.282,2.285,42.065,6.338,62.983c2.004,10.342,0.242,21.019,1.279,31.606c1.049,10.705,5.2,21.247,8.266,30.746
	c1.066,3.303,1.99,8.992,2.941,11.177"/>
<path fill="none" stroke="#000000" stroke-width="5" stroke-linecap="round" stroke-linejoin="round" stroke-miterlimit="10" d="
	M268.294,498.295c0.804,6.545-17.984,21.261-23.455,25.882c3.262,4.379,16.119,8.149,21.544,8.378
	c7.005,0.295,17.202-8.737,22.354-13.817c6.457-6.367,10.05-10.599,9.688-19.854c-0.184-4.696-0.272-9.411-0.719-13.989
	c-0.247-2.528-1.044-12.047-2.353-10.129"/>
<path fill="none" stroke="#000000" stroke-width="5" stroke-linecap="round" stroke-linejoin="round" stroke-miterlimit="10" d="
	M305,516.167c4.833,7,19.197,14.105,28.333,24.5"/>
<path fill="none" stroke="#000000" stroke-width="5" stroke-linecap="round" stroke-linejoin="round" stroke-miterlimit="10" d="
	M334.765,541.824c4.246,1.132,18.731-6.93,22.438-9.368c-2.644-4.144-7.685-7.623-11.37-11.122
	c-3.736-3.547-10.087-6.652-12.245-11.274"/>
<path fill="none" stroke="#000000" stroke-width="5" stroke-linecap="round" stroke-linejoin="round" stroke-miterlimit="10" d="
	M364.872,141.37c0.137-0.413,0.278-0.823,0.424-1.233c-0.737,0.114-1.286,0.565-1.559,1.267"/>
<path fill="none" stroke="#000000" stroke-width="5" stroke-linecap="round" stroke-linejoin="round" stroke-miterlimit="10" d="
	M336.333,512.001C336,509,335,506,335,503c1-11,3-22,4-33c4-78,9-154,18-232c1-12-0.059-36.929,1.5-49"/>
<path fill="none" stroke="#000000" stroke-width="5" stroke-linecap="round" stroke-linejoin="round" stroke-miterlimit="10" d="
	M343.588,212.412c5.553,4.472,9.295,12.533,6.63,19.412c-2.338,6.033-15.165,15.931-15.453,3.53"/>
<path fill="none" stroke="#000000" stroke-width="5" stroke-linecap="round" stroke-linejoin="round" stroke-miterlimit="10" d="
	M244.765,305.354c-1.922,2.95-6.379,4.288-9.504,5.395c-4.482,1.587-9.108,2.786-13.745,3.827
	c-13.237,2.97-26.377,2.502-39.618-0.259"/>
<path fill="none" stroke="#000000" stroke-width="5" stroke-linecap="round" stroke-linejoin="round" stroke-miterlimit="10" d="
	M173,345c7.302,0.023,14.924-1.746,22.235-1.28c6.73,0.429,50.421,5.495,53.646,16.34"/>
<path fill="none" stroke="#000000" stroke-width="5" stroke-linecap="round" stroke-linejoin="round" stroke-miterlimit="10" d="
	M364.5,142.5c-0.659-0.006-3.814-2.226-5.139-2.743c-1.989-0.776-3.687-1.883-5.299-3.319c-4.538-4.04-11.406-5.318-16.864-8.268
	c-5.582-3.017-11.441-5.614-17.378-7.912c-4.537-1.756-10.755-4.352-15.77-3.506c-2.907,0.49-5.219,3.325-7.238,5.492
	c-2.504,2.687-4.439,6.149-8.063,5.521c-1.579-0.273-6.661-0.688-6.705-1.971c2.315-1.04,2.471-7.814,3.68-10.255
	c-5.829-0.087-10.763-3.808-16.727-4.05c-6.827-0.278-16.776-1.478-22.946,1.738c-0.698-3.913,1.257-9.152,2.394-12.781
	c1.203-3.84,2.746-6.997,5.124-10.395c3.413-4.876,7.132-9.569,11.042-14.16c5.657-6.642,12.971-10.568,20.384-14.945
	c6.936-4.095,14.832-7.382,22.556-9.695c5.233-1.567,10.596-2.313,16.021-3.06C326.075,47.845,343.66,47.863,346,49
	c-8-1.5-17.25-1.75-21.25,0.5c-4.967,2.794-25.029,24.487-28.5,29c-10,13-9.595,35.68-11,38"/>
<path fill="none" stroke="#000000" stroke-width="5" stroke-linecap="round" stroke-linejoin="round" stroke-miterlimit="10" d="
	M372.264,96.802c1.019,15.609-5.422,30.259-7.764,45.448"/>
<path fill="none" stroke="#000000" stroke-width="5" stroke-linecap="round" stroke-linejoin="round" stroke-miterlimit="10" d="
	M300.5,118.5c0.5-4.5,0.5-21.75,6.75-33C314.663,72.157,337,54,345,51c11-3,19,8,22.362,17.263"/>
<path fill="none" stroke="#000000" stroke-width="5" stroke-linecap="round" stroke-linejoin="round" stroke-miterlimit="10" d="
	M346.75,85.25c-2.88,2.833-2.273,8.646-0.687,12c2.088,4.412,6.101,4.407,10.398,4.217"/>
<path fill="none" stroke="#000000" stroke-width="5" stroke-linecap="round" stroke-linejoin="round" stroke-miterlimit="10" d="
	M347,84c5.561-1.487,11.223-6.356,15.582-10.001c4.81-4.021,8.284-9.136,10.417-14.937c4.035-10.972,1.787-22.193-0.961-33.288
	c1.524,0.318,2.564,0.848,3.909,1.688c5.062,3.166,10.234,19.103,10.989,23.51c1.13,6.598,0.513,13.791-1.193,20.221
	c-2.313,8.718-6.223,17.931-13.999,23.124c-2.314,1.545-4.737,2.625-7.271,3.751c-1.883,0.837-4.846,2.89-6.936,2.648"/>
<path fill="none" stroke="#000000" stroke-width="5" stroke-linecap="round" stroke-linejoin="round" stroke-miterlimit="10" d="
	M278.75,62.75c-0.284,0.083-0.476,0.188-0.768,0.224c-3.348-8.61,0.208-29.033,8.499-34.298c-5.126-3.385-11.872,6.216-13.981,9.825
	c-5.936,10.157-11.297,23.139-10.212,35.19c0.174-0.126,0.328-0.273,0.462-0.441"/>
<path fill="none" stroke="#000000" stroke-width="5" stroke-linecap="round" stroke-linejoin="round" stroke-miterlimit="10" d="
	M272.75,251.028c23.75-14.75,38.511,23.114,36.745,33.813c-1.508,9.153-2.605,18.399-3.926,27.67
	c-0.945,6.639,0.455,14.928-1.5,20.837c-1.174-9.798-2.148-19.596-2.723-29.46c-0.59-10.152-0.345-24.833-5.347-34.222
	c-4.21-7.903-15.029-6.886-23-8c-10.904-1.523-11.189,2.202-11.332,14.333c-0.147,12.441,0.248,59.5,0.248,59.5
	s-7.092-18.554-7.639-31.289c-0.436-10.142-2.809-21.018-1.861-30.961c0.965-10.132,3.104-19.184,7.583-22.917
	c4-3.333,6-3.555,12.5,0.195"/>
<path fill="none" stroke="#000000" stroke-width="5" stroke-linecap="round" stroke-linejoin="round" stroke-miterlimit="10" d="
	M349.203,288.638c-13.537,10.087-25.145,29.961-35.889,44.123c-9.076,11.963-18.292,23.995-27.973,35.523
	c-9.241,11.005-20.245,21.509-32.674,28.716"/>
<path fill="none" stroke="#000000" stroke-width="5" stroke-linecap="round" stroke-linejoin="round" stroke-miterlimit="10" d="
	M252.5,409c7.228-3.061,12.803-8.849,19.5-13.333c3.89-2.604,8.276-6.598,11.613-10.021c10.132-10.393,21.159-20.86,29.774-32.646
	c12.117-16.577,24.13-33.19,34.613-50.5"/>
<path fill="none" stroke="#000000" stroke-width="5" stroke-linecap="round" stroke-linejoin="round" stroke-miterlimit="10" d="
	M247,302.5c1.341,1.283,2.588,2.561,4,3.5"/>
<path fill="none" stroke="#000000" stroke-width="5" stroke-linecap="round" stroke-linejoin="round" stroke-miterlimit="10" d="
	M262.5,314c-0.956,0.957,2.098,1.313,3.865,2c5.036,1.96,10.598,3.225,15.708,4.55c4.22,1.095,17.771,0.083,21.261-3.217"/>
<path fill="none" stroke="#000000" stroke-width="5" stroke-linecap="round" stroke-linejoin="round" stroke-miterlimit="10" d="
	M306,315.5c6.338,1.136,17.895-10.05,22.877-14.389c4.324-3.765,14.883-8.264,19.123-12.111"/>
<path fill="none" stroke="#000000" stroke-width="5" stroke-linecap="round" stroke-linejoin="round" stroke-miterlimit="10" d="
	M203.5,320c0.168-0.54-0.11-0.889,0.377-1.36c2.057,8.352,3.623,18.908,3.623,26.36"/>
<path fill="none" stroke="#000000" stroke-width="5" stroke-linecap="round" stroke-linejoin="round" stroke-miterlimit="10" d="
	M339,406.5c-3.329,6.377-73.761,6.207-76,6.636c-2.539,0.485-7.449,0.018-8.5,0.864"/>
<path fill="none" stroke="#000000" stroke-width="5" stroke-linecap="round" stroke-linejoin="round" stroke-miterlimit="10" d="
	M339,420c-1.696,5.03-80.622,9.495-81.667,4.667"/>
<path fill="none" stroke="#000000" stroke-width="5" stroke-linecap="round" stroke-linejoin="round" stroke-miterlimit="10" d="
	M335.5,473c-1.457,1.763-24,12-38,12.5"/>
<path fill="none" stroke="#000000" stroke-width="5" stroke-linecap="round" stroke-linejoin="round" stroke-miterlimit="10" d="
	M293.5,479.5c-14.5,1-27.956-8.332-33.5-7.833"/>
<path fill="none" stroke="#000000" stroke-width="5" stroke-linecap="round" stroke-linejoin="round" stroke-miterlimit="10" d="
	M181.5,313.25c-0.704,0.719-5.764-3.427-6.806-4.593c-3.369-3.77-5.539-8.118-7.019-12.921c-0.8-2.598-0.425-4.932-3.469-5.444
	c-4.07-0.684-8.467,1.22-12.418,1.495c0.233,1.649-0.605,6.219,0.949,7.225c1.488,0.962,3.229-0.637,4.518,0.982
	c0.805,1.012,1.386,3.617,2.3,4.937c1.537,2.219,3.833,5.476,5.944,6.569"/>
<path fill="none" stroke="#000000" stroke-width="5" stroke-linecap="round" stroke-linejoin="round" stroke-miterlimit="10" d="
	M150,300.5c1.944,0.725,3.927-1.061,5.894-0.499c1.893,0.541,0.993,0.217,1.344,1.799c0.841,3.79,1.392,9.012,1.23,12.916
	c-3.992,1.194-8.13-1.13-11.905-0.003c-1.97-2.246-2.457-9.353-1.563-12.212c0.421-1.348-0.016-1.337,1.477-2.02
	c0.767-0.351,2.233,0.14,3.08,0.036c1.694-0.208,3.196-1.181,4.943-1.018"/>
<path fill="none" stroke="#000000" stroke-width="5" stroke-linecap="round" stroke-linejoin="round" stroke-miterlimit="10" d="
	M157,316.5c1.535,0.486,3.173,0.018,4.712,0.538c0.031,3.491,0.479,7.69,1.257,10.959c-1.784,1.437-6.395,0.132-8.645,0.24
	c-2.684,0.129-6.002,1.281-8.532,0.505c-0.33-2.242-1.788-8.227-0.548-10.258c0.922-1.512,6.854-1.31,8.756-1.234"/>
<path fill="none" stroke="#000000" stroke-width="5" stroke-linecap="round" stroke-linejoin="round" stroke-miterlimit="10" d="
	M161.75,330.75c1.226,3.648,2.762,7.472,4.211,10.961c-2.185-0.652-5.218-0.145-7.517,0.089c-2.02,0.205-6.671,2.317-8.692,1.217
	c-2.242-1.221-2.296-6.269-2.488-8.521c-0.162-1.901-0.745-2.423,0.829-3.457c1.144-0.751,5.07-0.441,6.658-0.789"/>
<path fill="none" stroke="#000000" stroke-width="5" stroke-linecap="round" stroke-linejoin="round" stroke-miterlimit="10" d="
	M157.75,343.5c3.581,14.229,14.599,151.095,19.251,180.167"/>
<path fill="none" stroke="#000000" stroke-width="5" stroke-linecap="round" stroke-linejoin="round" stroke-miterlimit="10" d="
	M164.75,311.5c3,19,20.449,206.965,23.501,213.667"/>
<path fill="none" stroke="#000000" stroke-width="5" stroke-linecap="round" stroke-linejoin="round" stroke-miterlimit="10" d="
	M160.334,288.334c0-4.391-11.737-147.427-11.333-157.414c0.006-0.225,0.012-0.204,0.017,0.064c-0.472,0.89-0.146-0.225-0.351-0.317"
	/>
<path fill="none" stroke="#000000" stroke-width="5" stroke-linecap="round" stroke-linejoin="round" stroke-miterlimit="10" d="
	M140.667,131.334c2.025,0.051,8.345,0.288,9.6-1.05c1.981-2.114-1.818-10.021-1.947-12.321c-0.114-2.023,0.85-5.591,0.014-7.393
	c-0.902-1.944-0.274-1.237-2.735-1.577c-3.656-0.504-7.875-0.651-11.652-0.658c2.592,1.731,2.917,15.345,3.055,19.683
	c0.123,3.885,1.293,7.268,5.667,3.649"/>
<path fill="none" stroke="#000000" stroke-width="5" stroke-linecap="round" stroke-linejoin="round" stroke-miterlimit="10" d="
	M147.334,107.667c1.001,1.42,4.847-5.883,5.741-7.334c2.608-4.235,3.662-4.395,1.267-8.668c-3.309-5.904-7.458-10.906-11.126-16.492
	c-2.36-3.593-3.527-8.196-4.876-11.893c-5.947,8.103-10.096,19.376-11.996,29.121c-0.612,3.141-1.074,5.021,0.715,7.548
	c2.391,3.379,6.049,5.925,7.86,9.698c0.071-0.466,0.322-0.869,0.416-1.313"/>
<path fill="none" stroke="#000000" stroke-width="5" stroke-linecap="round" stroke-linejoin="round" stroke-miterlimit="10" d="
	M137.667,133.334c-0.168,5.955,11.773,161.929,12.667,164.333"/>
<path fill="none" stroke="#000000" stroke-width="5" stroke-linecap="round" stroke-linejoin="round" stroke-miterlimit="10" d="
	M351,303c10.75,9.5,17.251,89.953,19.25,101.75c1.252,7.39,7.02,19.402,6.417,26.917"/>
<path fill="none" stroke="#000000" stroke-width="5" stroke-linecap="round" stroke-linejoin="round" stroke-miterlimit="10" d="
	M344,385.875c-0.007,14.634,4.52,26.994,8.25,40.875"/>
<path fill="none" stroke="#000000" stroke-width="5" stroke-linecap="round" stroke-linejoin="round" stroke-miterlimit="10" d="
	M366.75,378.333c0.103,1.402-19.471,8.218-22.75,6.667"/>
<path fill="none" stroke="#000000" stroke-width="5" stroke-linecap="round" stroke-linejoin="round" stroke-miterlimit="10" d="
	M376.334,421.667c3.511,2.652,6.997,1.251,10.896,1.621c-1.265,3.397-2.358,6.945-3.473,10.444
	c-1.041,3.267-1.871,6.568-2.768,9.874c-0.16,0.591-0.285,2.334-0.783,2.838c-2.402,2.434-9.969,2.49-12.596,2.218
	c-2.767-0.287-8.081-1.988-10.429,0.516c-0.879-2.183-1.381-4.762-1.914-7.079c-1.328-5.777-2.518-11.849-3.518-19.099"/>
<path fill="none" stroke="#000000" stroke-width="5" stroke-linecap="round" stroke-linejoin="round" stroke-miterlimit="10" d="
	M350,423.25c-0.406,1.876-0.737,3.771-1.056,5.677c-0.676,4.044-2.738,9.105-2.149,13.115c1.82,0.641,4.665-0.448,6.455-1.042"/>
<path fill="none" stroke="#000000" stroke-width="5" stroke-linecap="round" stroke-linejoin="round" stroke-miterlimit="10" d="
	M364.5,144c2.236,4.045,4.242,18.223-0.5,21"/>
<path fill="none" stroke="#000000" stroke-width="5" stroke-linecap="round" stroke-linejoin="round" stroke-miterlimit="10" d="
	M357.5,154.5c-6.724,3.2-3.179,22.816,6,22.5"/>
<path fill="none" stroke="#000000" stroke-width="5" stroke-linecap="round" stroke-linejoin="round" stroke-miterlimit="10" d="
	M349.5,137.5c-5.99,2,1.58,17.318,5.5,19"/>
<path fill="none" stroke="#000000" stroke-width="5" stroke-linecap="round" stroke-linejoin="round" stroke-miterlimit="10" d="
	M364.5,167.5c4.37,5.603,9.195,20.157,4,26"/>
<path fill="none" stroke="#000000" stroke-width="5" stroke-linecap="round" stroke-linejoin="round" stroke-miterlimit="10" d="
	M360.5,180.5c-4.501,3.914,1.636,22.33,8.5,22.5"/>
<path fill="none" stroke="#000000" stroke-width="5" stroke-linecap="round" stroke-linejoin="round" stroke-miterlimit="10" d="
	M371.5,194c3.543,3.907,3.972,14.796,1,19"/>
<path fill="none" stroke="#000000" stroke-width="5" stroke-linecap="round" stroke-linejoin="round" stroke-miterlimit="10" d="
	M365,203c0,5.672-2.224,17.991,4.5,20.5"/>
<path fill="none" stroke="#000000" stroke-width="5" stroke-linecap="round" stroke-linejoin="round" stroke-miterlimit="10" d="
	M374,214c4.24,1.901,0.993,15.87-1.5,19"/>
<path fill="none" stroke="#000000" stroke-width="5" stroke-linecap="round" stroke-linejoin="round" stroke-miterlimit="10" d="
	M368,225c-3.701,1.355-0.197,18.897,6,20"/>
<path fill="none" stroke="#000000" stroke-width="5" stroke-linecap="round" stroke-linejoin="round" stroke-miterlimit="10" d="
	M375,232c-0.096-0.512-0.063-1.01,0.1-1.496c2.863,3.926,4.563,14.408,2.9,18.996"/>
<path fill="none" stroke="#000000" stroke-width="5" stroke-linecap="round" stroke-linejoin="round" stroke-miterlimit="10" d="
	M374.5,248c-0.522-1.113-1.397-1.613-2.646,0.08c-1.842,2.495,0.793,9,3.121,10.364c6.016,3.528,10.155-6.325,4.025-8.444"/>
<path fill="none" stroke="#000000" stroke-width="5" stroke-linecap="round" stroke-linejoin="round" stroke-miterlimit="10" d="
	M371.5,259.5c2.021,6.878,0.757,15.681,4.014,22.014c1.909-4.393,2.149-11.887,2.486-17.014"/>
<path fill="none" stroke="#000000" stroke-width="5" stroke-linecap="round" stroke-linejoin="round" stroke-miterlimit="10" d="
	M379,262.5c-0.267,0.284,4.456,12.211,5.636,14.914c1.064-3.849,0.136-8.416-0.136-12.414"/>
</svg>
