<?xml version="1.0" encoding="utf-8"?>
<!-- Generator: Adobe Illustrator 25.2.1, SVG Export Plug-In . SVG Version: 6.00 Build 0)  -->
<svg version="1.1" xmlns="http://www.w3.org/2000/svg" xmlns:xlink="http://www.w3.org/1999/xlink" x="0px" y="0px" width="1000px"
	 height="1000px" viewBox="-310.8 -332.9 1000 1000" enable-background="new -310.8 -332.9 1000 1000" xml:space="preserve">
<g id="Layer_2">
	<g>
		<g>
			<path fill="#6B5538" d="M177.4,198.8c0.6,0.2-7.4-3.5-4.7-1.9c3,1.7-5.3-4.4-3.6-2.8c2.7,2.6-4.1-6.8-1.8-2.4
				c0.2,0.5,0.5,1,0.8,1.4c1.6,2.4-1.8-4.1-1.7-4.2c-0.1,0.9,1,2.9,1.3,3.9c0.4,1.4,0.7,2.9,1,4.4c1.1,5.9-0.7-6.8-0.2-1.5
				c0.3,3.4,0.6,6.8,0.7,10.2c0.4,12-0.7,24-0.8,36c-0.1,14.3,12.7,28.1,27.4,27.4c14.9-0.7,27.4-12.1,27.4-27.4
				c0.1-33.3,8.1-81.3-31.1-95.9c-13.5-5-30.7,5.6-33.7,19.2C154.7,180.7,163,193.5,177.4,198.8L177.4,198.8z"/>
		</g>
	</g>
	<g>
		<g>
			<path fill="#6B5538" d="M214.8,177.9c-2.7-9.9-7.3-19.3-11.9-28.5c-5.2-10.4-20.1-16.1-31-12.6c-11.5,3.7-20.2,14-20.1,26.4
				c0,10.8,1,21.7,3.2,32.2c2.5,12.4,8,23,15.8,32.9c10.3,13,36.3,9.5,43.1-5.6c5.4-12.1,9.9-24.4,14.1-36.9
				c1.8-5.3,3.5-10.7,5.4-16c1-2.8,2-5.5,3-8.2c0.4-1.1,0.9-2.1,1.3-3.2c-2.3,7.2-0.8,2-0.1,0.3c-17-4.6-34.1-9.2-51.1-13.8
				c0.4,11.1-0.3,22.2-1.6,33.2c-0.1,1.1-0.3,2.3-0.4,3.4c-0.7,6,0.7-4.8,0.2-1.2c-0.4,2.9-0.8,5.8-1.3,8.7
				c-0.9,5.9-1.9,11.8-2.9,17.6c-4.2,24.9-8.6,50.1-8.7,75.5c-0.1,14.3,12.7,28.1,27.4,27.4c14.9-0.7,27.4-12.1,27.4-27.4
				c0.1-11.9,1.5-23.5,2.6-35.2c-0.1,1.3-0.8,5.7-0.3,1.9c0.2-1.5,0.4-3,0.6-4.5c0.4-3,0.9-5.9,1.4-8.9c1-5.9,2-11.8,2.9-17.8
				c4-24,8.2-48.4,7.3-72.7c-0.4-11.6-8.2-23.7-20.1-26.4c-4.8-1.1-9.8-1.1-14.6,0c-5.9,1.3-13.9,7-16.4,12.6
				c-5.4,12.1-9.9,24.4-14.1,36.9c-1.8,5.3-3.5,10.7-5.4,16c-1,2.8-2,5.5-3,8.2c-0.4,1.1-0.9,2.1-1.3,3.2c2.3-7.2,0.8-2,0.1-0.3
				c14.4-1.9,28.7-3.7,43.1-5.6c5.7,7.2,1.8,2.2,0.7,0.2c-3.3-6.2,1.4,4.8,0,0.3c-1-3.5-2.1-6.9-2.7-10.5c-0.5-2.4-0.3-7.9,0,0.7
				c-0.1-1.9-0.4-3.9-0.5-5.8c-0.3-3.7-0.4-7.4-0.4-11c-17,4.6-34.1,9.2-51.1,13.8c1.5,3.1,2.7,7.5,4.9,10.1
				c-0.4-1.1-0.9-2.1-1.3-3.2c0.5,1.1,0.9,2.2,1.3,3.4c0.6,1.7,1.1,3.4,1.5,5.1c3.7,13.9,19.7,23.7,33.7,19.2
				C209.8,207,218.8,192.7,214.8,177.9L214.8,177.9z"/>
		</g>
	</g>
	<g>
		<g>
			<path fill="#6B5538" d="M161,196.9c-10.8,21-10.1,46.5-8.5,69.4c1.8,27.4,5.9,54.7,10.6,81.8c1.9,10.9,3.9,21.8,6.1,32.6
				c2.3,11.3,15.1,20.6,26.4,20.1c11.6-0.5,23.8-8.1,26.4-20.1c8.1-36.7,11.5-74.2,15.6-111.5c0.7-6.5-3.6-14.9-8-19.4
				c-4.8-4.8-12.6-8.3-19.4-8c-7.1,0.3-14.5,2.6-19.4,8c-5.2,5.7-7.2,11.8-8,19.4c-1.9,17.1-3.7,34.2-5.8,51.2
				c-0.1,0.9-0.8,8.5-0.5,3.6c0.3-4.9-0.4,2.7-0.5,3.6c-0.6,4.2-1.2,8.4-1.9,12.6c-1.4,8.7-3,17.4-4.9,26c17.6,0,35.3,0,52.9,0
				c-4.1-20.4-7.7-40.9-10.7-61.5c-0.2-1.5-0.4-3-0.6-4.5c-0.1-0.9-0.3-1.7-0.4-2.6c-0.1-0.7,0.9,7,0.5,4c-0.4-3.3-0.8-6.5-1.2-9.8
				c-0.7-6.2-1.4-12.4-1.9-18.7c-0.9-11.2-1.5-22.4-1.2-33.6c0.1-2.9,0.3-5.7,0.5-8.6c0.1-1.4,0.8-6.5,0-0.5c-0.8,5.9-0.1,1,0.1-0.3
				c0.4-2.1,0.8-4.2,1.4-6.2c0.3-0.9,0.7-1.8,0.9-2.7c0.6-2.4-2.5,6.1-2.1,5c0.2-0.6,0.5-1.2,0.8-1.7c6.6-12.7,3.7-30.4-9.8-37.5
				C185.9,180.5,168,183.3,161,196.9L161,196.9z"/>
		</g>
	</g>
	<g>
		<g>
			<path fill="#6B5538" d="M214.5,544.9c1.7,2.5,2.2,3.1,1.6,1.9c1,2.6,1.3,3.2,0.9,1.9c0-0.8-0.4-1.8-0.6-2.5
				c-0.2-0.8-0.3-1.6-0.4-2.4c0.7,4.4,0-0.1-0.1-1c-0.5-5.3-0.8-10.7-1.1-16.1c-0.3-5.8-0.6-11.5-1-17.3c-0.6-7.9-1.1-10.8-1.5-18.6
				C210,452.9,213,415,213,377.2c0-15.1-23.6-19.1-26.9-3.6c-3.8,17.7-4.1,35.8-4.6,53.8c-0.4,17-0.9,32.6-6.4,48.6
				c8.4-1.1,16.7-2.2,25.1-3.3c0.8,1.8,0-0.2-0.3-1c-0.3-0.8-0.6-1.7-0.8-2.5c-0.6-2-1.1-4-1.6-6c-0.5-2.1-0.8-4.2-1.1-6.3
				c-0.3-2.4,0.2,1.7-0.1-0.7c-0.1-1.2-0.3-2.5-0.4-3.7c-0.7-9.3-0.6-18.7,0-28c1.2-18.3,4-36.4,6.1-54.6c-9,1.2-18,2.4-26.9,3.6
				c8.8,41.5,1.8,84.4,9.1,126.2c1.2,6.6,8.9,10.7,15,9.8c7.3-1.1,11-6.5,11.9-13.5c5.3-39.3,5.5-79.5,19.6-117
				c-9-1.2-18-2.4-26.9-3.6c3.8,47.2-5.2,94.6-11,140.8c-0.9,7.4,7,13.7,13.7,13.7c8.2,0,12.8-6.3,13.7-13.7
				c5.8-45.9,14.7-93.7,11-140.8c-1.2-15.7-21.4-18.3-26.9-3.6c-14.9,39.7-15,82.8-20.6,124.3c9-1.2,18-2.4,26.9-3.6
				c-3.5-19.8-3.2-40.4-3.4-60.6c-0.3-22-1.2-44-5.7-65.5c-1.4-6.6-8.7-10.8-15-9.8c-7.2,1.1-11.1,6.5-11.9,13.5
				c-4.3,38.2-13.7,79.8,1.9,116.6c2.1,4.9,8.9,7.3,13.7,6.5c5.6-0.8,9.6-4.5,11.4-9.8c11.3-33,3.9-69.6,11-102.4
				c-9-1.2-18-2.4-26.9-3.6c-0.1,39.8-3.3,79.7-0.4,119.4c0.2,2.9,0.5,5.7,0.9,8.6c-0.7-4.8-0.1-0.7,0,0.3c0.3,2.7,0.4,5.4,0.6,8.1
				c0.4,6,0.6,11.9,1,17.9c0.7,10.8,0.1,24.1,7.4,32.8c4.8,5.7,14.5,4.9,19.4,0C220.1,558.6,219.3,550.5,214.5,544.9L214.5,544.9z"
				/>
		</g>
	</g>
	<g>
		<g>
			<path fill="#6B5538" d="M117.9,82.8c0.1,23.2,3.7,46.7,7.8,69.5c1.2,6.6,8.9,10.8,15,9.8c7-1.1,11.4-6.5,11.9-13.5
				c1.6-23.1-5.1-46.6-0.5-69.5c-9-1.2-18-2.4-26.9-3.6c1.8,21.3,3.7,42.7,5.5,64c0.6,7.4,5.9,13.7,13.7,13.7
				c7.4,0,13.7-6.3,13.7-13.7c-0.1-22.6-3.7-46.1,3.2-67.7c-8.8,0-17.6,0-26.4,0c5.4,27.8,5.5,56.3,11,84.1
				c2.9,15.1,28,11.8,26.9-3.6c-1.8-26.3-7.5-55.4-2.3-80.5c-8.8,0-17.6,0-26.4,0c9.3,28.8,7.3,59.6,12.8,89.6
				c1.2,6.6,8.9,10.8,15,9.8c6.9-1,11.5-6.5,11.9-13.5c1.6-30.3-7.3-62.5,1.3-91.4c-8.8,0-17.6,0-26.4,0c5.4,25.9,5.5,52.7,11,78.6
				c1.4,6.6,8.7,10.8,15,9.8c7-1,11.4-6.5,11.9-13.5c1.8-28,0-56.1,0-84.1c-9,1.2-18,2.4-26.9,3.6c9.1,31.6,10.6,64.4,14.1,96.9
				c0.7,6.8,4.6,12.6,11.9,13.5c6.2,0.7,13.9-3,15-9.8c3-18.3,0.7-36.4-0.3-54.7c-0.5-8.6-0.8-17.4,0.4-25.9
				c-0.3,2.4,0.2-0.6,0.2-1.1c0.2-1.1,0.4-2.2,0.7-3.3c0.5-1.9,1.1-3.8,1.7-5.7c0.7-2.1-0.8,1.7,0.1-0.3c0.4-1,0.9-1.9,1.4-2.9
				c1-1.9,2.2-3.7,3.6-5.4c-8.4-1.1-16.7-2.2-25.1-3.3c8.6,30.2,5.1,62.1,5,93.3c9.1,0,18.3,0,27.4,0c0-15.5,0-31,1.4-46.4
				c0.7-7.6,1.4-13,3.2-20.8c0.8-3.5,1.7-6.9,2.8-10.3c0.6-1.9,1.3-3.7,2-5.6c0.6-1.6,0.7-1.8,0.3-0.7c0.4-0.9,0.8-1.7,1.2-2.6
				c-8.5-2.3-17-4.6-25.6-6.9c1.8,30.5,0.1,61-1.8,91.4c-0.5,7.4,6.6,13.7,13.7,13.7c8.2,0,12.7-6.3,13.7-13.7
				c3.6-27.5,5.3-55.4,12.3-82.3c-9-1.2-18-2.4-26.9-3.6c-0.1,22-1.8,43.9-1.8,65.8c0,6.8,5.2,12.7,11.9,13.5c6,0.7,14.1-3,15-9.8
				c3.8-26.4,7.4-52.9,14.6-78.6c-9-1.2-18-2.4-26.9-3.6c0,12.9-0.4,25.8-1.3,38.7c-0.8,11.8-1.8,22.3-3.7,32.7
				c-1.3,7.3,2,14.8,9.6,16.9c6.6,1.8,15.6-2.2,16.9-9.6c4.6-25.9,5.9-52.4,6-78.6c0-15.5-22.7-18.6-26.9-3.6
				c-7.3,25.7-10.9,52.2-14.6,78.6c9,1.2,18,2.4,26.9,3.6c0.1-22,1.8-43.9,1.8-65.8c0-15.4-23-18.8-26.9-3.6
				c-7.7,29.3-9.4,59.7-13.3,89.6c9.1,0,18.3,0,27.4,0c1.9-30.4,3.7-61,1.8-91.4c-0.4-6.1-4-11.6-10.1-13.2
				c-5.5-1.5-12.9,0.9-15.5,6.3c-15,30.8-14.7,66.7-14.7,100.2c0,17.6,27.4,17.7,27.4,0c0.1-33.6,3.4-67.8-6-100.6
				c-1.5-5.2-6-9.2-11.4-9.8c-5.9-0.7-10.2,2-13.7,6.5c-11.5,15.1-12.8,35.6-12,53.8c0.4,9.2,1.3,18.3,1.8,27.4
				c0.3,4.5,0.4,9,0.4,13.5c0,2.3-0.1,4.5-0.3,6.8c-0.1,0.9-0.2,1.8-0.2,2.6c-0.3,4.2,0.5-2.6-0.2,1.4c9,1.2,18,2.4,26.9,3.6
				c-3.8-34.8-5.3-70.4-15.1-104.2c-4.3-14.7-27-12-26.9,3.6c0,28,1.8,56.1,0,84.1c9-1.2,18-2.4,26.9-3.6
				c-5.4-25.9-5.5-52.7-11-78.6c-2.9-13.8-22.8-12.3-26.4,0c-9.7,32.3-0.6,65.8-2.3,98.7c9-1.2,18-2.4,26.9-3.6
				c-5.3-29.1-3.4-60.7-12.8-89.6c-1.9-5.8-7-10.1-13.2-10.1c-5.7,0-12,4.2-13.2,10.1c-6,29.1-0.7,58.5,1.3,87.8
				c9-1.2,18-2.4,26.9-3.6c-5.4-27.8-5.5-56.3-11-84.1c-1.1-5.8-7.5-10.1-13.2-10.1c-6.2,0-11.4,4.3-13.2,10.1
				c-7.8,24.3-4.2,50-4.1,75c9.1,0,18.3,0,27.4,0c-1.8-21.3-3.7-42.7-5.5-64c-0.6-6.8-4.8-12.6-11.9-13.5c-6.3-0.8-13.7,3-15,9.8
				c-2.7,13.3-2.9,26.5-1.9,40c0.9,12.3,2.3,24.5,1.4,36.8c9-1.2,18-2.4,26.9-3.6c-3.7-20.7-6.7-40.5-6.8-62.2
				c0-7.4-6.3-13.7-13.7-13.7C124.2,69.1,117.9,75.3,117.9,82.8L117.9,82.8z"/>
		</g>
	</g>
	<g>
		<g>
			<path fill="#6B5538" d="M245,145.9c17.6,0,17.7-27.4,0-27.4C227.4,118.4,227.3,145.9,245,145.9L245,145.9z"/>
		</g>
	</g>
	<g>
		<g>
			<path fill="#604C33" d="M155.4,180.6c18.2-0.2,36.7-2.1,54.9,0c7.4,0.9,13.7-6.9,13.7-13.7c0-8.1-6.3-12.8-13.7-13.7
				c-18.2-2.1-36.6-0.2-54.9,0c-7.4,0.1-13.7,6.2-13.7,13.7C141.7,174.3,148,180.7,155.4,180.6L155.4,180.6z"/>
		</g>
	</g>
	<g>
		<g>
			<path fill="#604C33" d="M213,159.6c-2,45.1-3.6,90.2-3.7,135.3c0,17.6,27.4,17.7,27.4,0c0-45.1,1.6-90.2,3.7-135.3
				c0.3-7.4-6.5-13.7-13.7-13.7C219,145.9,213.4,152.2,213,159.6L213,159.6z"/>
		</g>
	</g>
	<g>
		<g>
			<path fill="#604C33" d="M213.5,148.6c-8.1,54.6-8.7,109.7-10.9,164.7c-2.2,54.9-8.5,109.6-10.7,164.5c-1.3,31-1.7,62.1-0.8,93.2
				c0.2,7.4,6.2,13.7,13.7,13.7c7.3,0,13.9-6.3,13.7-13.7c-1.6-54.7,0.9-109.4,5.1-163.9c2.1-26.8,4.6-53.6,5.9-80.5
				c1.3-27.2,1.9-54.4,3-81.6c1.3-29.7,3-59.7,7.4-89.1c1.1-7.3-1.8-14.7-9.6-16.9C223.9,137.3,214.6,141.3,213.5,148.6L213.5,148.6
				z"/>
		</g>
	</g>
	<g>
		<g>
			<path fill="#604C33" d="M237.3,81c-2.1,13.4-2.3,26.7-2.3,40.2c0,17.6,27.4,17.7,27.4,0c0-10.8-0.2-23.1,1.3-32.9
				c1.1-7.3-1.9-14.8-9.6-16.9C247.6,69.6,238.4,73.6,237.3,81L237.3,81z"/>
		</g>
	</g>
	<g>
		<g>
			<path fill="#604C33" d="M146.8,145.5c-0.9,0.8-0.7,0.7,0.6-0.1c-1.3,0.5-1.2,0.5,0.3,0c1.6-0.3,1.7-0.4,0.2-0.2
				c0.9-0.1,1.8-0.2,2.7-0.2c1.9,0,3.7,0.1,5.5,0.2c0.4,0,4.4,0.5,2.1,0.2c8.9,1.1,17.3,2.6,26.3,1.2c13.5-2,25.2-10.2,35.5-18.7
				c11-9.1,20.5-19.9,29-31.3c6.8-9.1,13.3-19.3,16.5-30.3c2-7.1-2.5-14.9-9.6-16.9c-7.2-2-14.8,2.4-16.9,9.6c-0.3,1-0.7,2.1-1,3.1
				c-0.5,1.4-0.4,1.1,0.4-0.8c-0.3,0.6-0.5,1.2-0.8,1.7c-1.1,2.2-2.2,4.4-3.5,6.5c-2.9,5-6.1,9.7-9.6,14.3c1.5-1.9-1.7,2.1-2,2.5
				c-0.9,1-1.7,2.1-2.6,3.1c-2.4,2.8-4.9,5.5-7.4,8.1c-4.4,4.5-9,8.8-13.9,12.6c2-1.6-1.4,1-1.8,1.3c-1.2,0.8-2.3,1.6-3.5,2.4
				c-2.3,1.4-4.6,2.6-7,3.9c-1.4,0.6-1.3,0.6,0.4-0.1c-0.6,0.3-1.3,0.5-1.9,0.7c-1.3,0.5-2.6,0.9-4,1.2c-0.7,0.2-1.4,0.3-2.1,0.4
				c1.3-0.2,1-0.3-0.7-0.1c-2-0.1-3.9,0-5.8-0.2c-5.8-0.5-12.7-2.1-20.2-2.2c-9.4-0.1-17.2,2.8-24.5,8.6c-5.8,4.6-4.8,14.6,0,19.4
				C133.2,151.2,141,150.1,146.8,145.5L146.8,145.5z"/>
		</g>
	</g>
	<g>
		<g>
			<path fill="#604C33" d="M240.5,77.3c-0.3,3.5-0.9,7.4-2.2,12.3c-1.4,5.2-2.7,9-4.6,12.7c-4.4,8.8-9.9,16-17.5,21.6
				c-5.5,4.1-8.6,10.4-5.6,17.1c2.8,6.4,9.3,9.5,16.2,7.9c10.2-2.3,18.8-8,27-14.2c5.9-4.4,9-11.9,4.9-18.8
				c-3.4-5.8-12.8-9.4-18.8-4.9c-6.5,4.9-12.8,9.7-20.5,11.4c3.5,8.4,7,16.7,10.6,25.1c23.1-17.2,35.3-41.9,37.9-70.4
				c0.7-7.4-6.8-13.7-13.7-13.7C246.2,63.6,241.1,69.9,240.5,77.3L240.5,77.3z"/>
		</g>
	</g>
	<g>
		<g>
			<path fill="#493927" d="M175.2,150.9c-7.2,1.8-13.4,4.3-18.9,9.5c-0.7,0.7-0.4,2.1,0.6,2.3c26.3,5.3,54.9-5.8,80.1,5.3
				c1.6,0.7,3-1.7,1.4-2.4c-25.7-11.3-54.1-0.3-80.8-5.6c0.2,0.8,0.4,1.5,0.6,2.3c5.1-4.9,11-7.1,17.7-8.8
				C177.6,153.2,176.9,150.5,175.2,150.9L175.2,150.9z"/>
		</g>
	</g>
	<g>
		<g>
			<path fill="#493927" d="M212.1,160c-11.6-0.2-22.9-3.7-34.4-5.4c-0.1,0.9-0.2,1.8-0.4,2.7c15.9,0,31.7,0.1,47.5,1.8
				c-0.1-0.9-0.2-1.8-0.4-2.7c-19.3,5.3-38.9-5-58.5-1.8c-1.6,0.3-1.1,2.6,0.4,2.7c22.2,2,43.6,9,65.8,11c1.8,0.2,1.7-2.6,0-2.7
				c-22.2-2-43.6-9-65.8-11c0.1,0.9,0.2,1.8,0.4,2.7c19.6-3.2,39.1,7.2,58.5,1.8c1.6-0.4,1.1-2.5-0.4-2.7
				c-15.8-1.7-31.7-1.8-47.5-1.8c-1.5,0-1.9,2.5-0.4,2.7c11.7,1.8,23.2,5.3,35.1,5.5C213.9,162.8,213.9,160.1,212.1,160L212.1,160z"
				/>
		</g>
	</g>
	<g>
		<g>
			<path fill="#493927" d="M233.4,156.6c-12.1,5.7-25.8,4.1-38.7,2.8c-12.6-1.3-25.3-2.6-37.7,0.8c-1.2,0.3-1.4,2.4,0,2.6
				c12.1,1.7,24-1.7,35.5-5.5c1.7-0.6,1-3.2-0.7-2.6c-9.3,2.9-19.7,4.2-28.2-1.7c-0.1,0.8-0.2,1.7-0.3,2.5c21.3-5,42.3,1.7,63.6,1.9
				c1.8,0,1.8-2.7,0-2.7c-21.6-0.2-42.8-6.8-64.4-1.8c-1.2,0.3-1.2,1.9-0.3,2.5c9,6.2,20.4,5.1,30.3,2c-0.2-0.9-0.5-1.8-0.7-2.6
				c-10.9,3.6-22.4,7.1-34,5.5c0,0.9,0,1.8,0,2.6c25.3-6.8,52.9,7.7,77.1-3.8C236.3,158.2,234.9,155.8,233.4,156.6L233.4,156.6z"/>
		</g>
	</g>
	<g>
		<g>
			<path fill="#493927" d="M233.6,161.4c0-0.4,0-0.7-0.1-1.1c-0.2-0.7-1-1.2-1.7-1c-2.9,1-2.7,10.5-2.8,13c0.9,0,1.8,0,2.7,0
				c0-4.9,0-9.8,0-14.6c-0.9,0-1.8,0-2.7,0c0.1,11.2,1.9,22.2,3.7,33.3c0.3,1.7,2.9,1,2.6-0.7c-1.8-10.8-3.5-21.6-3.6-32.5
				c0-1.8-2.7-1.8-2.7,0c0,4.9,0,9.8,0,14.6c0,1.8,2.7,1.8,2.7,0c0.1-2.3,0.4-4.6,0.7-6.9c0.1-0.9,0.5-1.8,0.5-2.7
				c0-1.5,1-1.3-0.4-0.8c-0.6-0.3-1.1-0.6-1.7-1c0,0.1,0,0.2,0,0.4C230.9,163.2,233.7,163.2,233.6,161.4L233.6,161.4z"/>
		</g>
	</g>
	<g>
		<g>
			<path fill="#493927" d="M229,161.4c1.8,31.7-1.8,63.4-1.8,95.1c0,1.8,2.7,1.8,2.7,0c0.1-31.7,3.6-63.4,1.8-95.1
				C231.7,159.7,228.9,159.6,229,161.4L229,161.4z"/>
		</g>
	</g>
	<g>
		<g>
			<path fill="#493927" d="M230.9,157.4c-12.7,44.8-0.3,91.7-7.3,137.1c-0.3,1.7,2.4,2.5,2.6,0.7c7-45.4-5.4-92.4,7.3-137.1
				C234,156.4,231.4,155.7,230.9,157.4L230.9,157.4z"/>
		</g>
	</g>
	<g>
		<g>
			<path fill="#493927" d="M227.2,152.3c-0.1,42.8-3.6,85.4-7.3,128c-0.2,1.8,2.6,1.7,2.7,0c3.7-42.6,7.3-85.2,7.3-128
				C229.9,150.5,227.2,150.5,227.2,152.3L227.2,152.3z"/>
		</g>
	</g>
	<g>
		<g>
			<path fill="#493927" d="M232.7,203.1c-13.1,58.8-14.7,119.6-14.7,179.6c0,1.8,2.7,1.8,2.7,0c0-59.8,1.5-120.3,14.6-178.8
				C235.8,202.1,233.1,201.4,232.7,203.1L232.7,203.1z"/>
		</g>
	</g>
	<g>
		<g>
			<path fill="#493927" d="M227.2,281.7c-9.3,30.1-8.3,63.3-8.5,94.5c-0.1,17,0,34-1.5,51c-2,21.5-4.9,42.8-8,64.1
				c-3.3,22.9-6.8,45.8-9.5,68.7c0.9,0,1.8,0,2.7,0c0-12.1,0.1-24.2,1.8-36.2c-0.9-0.1-1.8-0.2-2.7-0.4c0,12.2,0,24.4,0,36.6
				c0,1.8,2.7,1.8,2.7,0c0.1-15.3,1.8-30.5,5.4-45.3c-0.9,0-1.8,0-2.6,0c1.5,10.2,0,20.4,0,30.7c0.9,0,1.8,0,2.7,0
				c0-41.5,2.5-83,7.5-124.2c1.7-14,3.5-28,6.6-41.8c2.7-12,5.6-24,7.5-36.2c1-6.7,4.2-20.2-1.8-25.6c-1.3-1.2-3.3,0.8-1.9,1.9
				c2.5,2.2,2.4,6.6,2.3,9.6c0,5.4-0.8,10.7-1.7,16c-2,11.8-4.8,23.4-7.4,35c-7,31.9-9.5,65.3-11.6,97.9
				c-1.5,22.4-2.2,44.8-2.2,67.2c0,1.8,2.7,1.8,2.7,0c0.1-10.5,1.5-20.9,0-31.4c-0.2-1.4-2.3-1.2-2.6,0c-3.7,15.1-5.5,30.6-5.5,46.1
				c0.9,0,1.8,0,2.7,0c0-12.2,0-24.4,0-36.6c0-1.5-2.5-1.9-2.7-0.4c-1.7,12.3-1.9,24.6-1.9,36.9c0,1.8,2.5,1.7,2.7,0
				c4.8-41.1,12.2-81.9,16.5-123.1c3.6-34.2,1.7-68.5,3.4-102.7c0.9-17.4,2.3-35,7.5-51.7C230.4,280.8,227.8,280,227.2,281.7
				L227.2,281.7z"/>
		</g>
	</g>
	<g>
		<g>
			<path fill="#493927" d="M205.4,550.2c-0.3,0.7-0.6,1.4-0.9,2.1c-0.2,0.4-0.3,0.8-0.5,1.3c-0.5,1.3-0.4,0.9,0.3-1.2
				c-0.5-1.4-2.7-1.3-2.7,0.4c0,4.3,0,8.5,0,12.8c0,1.8,2.7,1.8,2.7,0c0-7.3,0-14.6,0-21.9c0-1.5-2.4-1.9-2.7-0.4
				c-1.8,9.8-1.9,19.7-1.9,29.6c0.9,0,1.8,0,2.7,0c0-7.9,0-15.8,0-23.8c0-1.8-2.7-1.8-2.7,0c0,6.7,0,13.4,0,20.1c0,1.3,2,2,2.6,0.7
				c1.4-3.2,2-6.4,2-9.8c0-1.8-2.7-1.8-2.7,0c0,3-0.4,5.7-1.6,8.5c0.9,0.2,1.7,0.5,2.6,0.7c0-6.7,0-13.4,0-20.1c0-1.8-2.7-1.8-2.7,0
				c0,7.9,0,15.8,0,23.8c0,1.8,2.7,1.8,2.7,0c0-9.7,0-19.4,1.8-28.9c-0.9-0.1-1.8-0.2-2.7-0.4c0,7.3,0,14.6,0,21.9
				c0,1.8,2.7,1.8,2.7,0c0-4.3,0-8.5,0-12.8c-0.9,0.1-1.8,0.2-2.7,0.4c0.5,1.4,1.1,3.9,3,3.7c1.9-0.2,2.6-4.1,3.1-5.2
				C208.5,550,206.2,548.6,205.4,550.2L205.4,550.2z"/>
		</g>
	</g>
	<g>
		<g>
			<path fill="#493927" d="M233.5,177.5c-1.8-5.5-3.7-11-5.5-16.5c-0.9,0.2-1.8,0.5-2.6,0.7c1.7,5,3.3,10.1,5.6,15
				c0.7,1.4,2.9,0.4,2.5-1.1c-1.5-5.4-0.3-11-1.8-16.5c-0.8,0.4-1.7,0.7-2.5,1.1c1.2,1.8,2.4,3.7,3.7,5.5c0.5,0.7,1.5,0.9,2.2,0.3
				c2.1-2,4.6-3.6,7-5.3c1.5-1,0.1-3.4-1.4-2.4c-2.6,1.7-5.3,3.5-7.6,5.7c0.7,0.1,1.4,0.2,2.2,0.3c-1.2-1.8-2.4-3.7-3.7-5.5
				c-0.8-1.3-2.9-0.5-2.5,1.1c1.5,5.4,0.3,11,1.8,16.5c0.8-0.4,1.7-0.7,2.5-1.1c-2.2-4.6-3.7-9.5-5.3-14.3c-0.6-1.7-3.2-1-2.6,0.7
				c1.8,5.5,3.7,11,5.5,16.5C231.5,179.9,234.1,179.2,233.5,177.5L233.5,177.5z"/>
		</g>
	</g>
	<g>
		<g>
			<path fill="#493927" d="M258.3,75.1c-9.4,22.4-20.4,44-34.6,63.7c-0.9,1.3,1.2,2.9,2.2,1.7c6.9-8.8,12.8-18.2,18.5-27.7
				c-0.8-0.5-1.6-0.9-2.4-1.4c-5.9,9.9-11.9,19.7-18.3,29.3c-1,1.5,1.4,2.8,2.4,1.4c7.5-11.2,15-22.3,23.6-32.6
				c-0.7-0.6-1.4-1.1-2.2-1.7c-6.9,11.9-15.1,22.9-21.9,34.7c-0.9,1.6,1.4,2.8,2.4,1.4c9-12.8,16.1-26.7,23.8-40.2
				c0.9-1.5-1.5-2.9-2.4-1.4c-6.7,11.8-12.8,23.8-16.6,36.9c-0.4,1.5,1.9,2.5,2.5,1.1c5.6-12.9,12.6-25.2,16.6-38.7
				c-0.9-0.2-1.8-0.5-2.6-0.7c-3.7,13-7.5,25.9-12.8,38.4c-0.6,1.4,1.9,2.5,2.5,1.1c5.9-13.9,10.6-28.2,16.5-42.1
				c-0.8-0.4-1.7-0.7-2.5-1.1c-3.8,16.8-8.7,33.5-16.3,49c0.8,0.4,1.7,0.7,2.5,1.1c5.7-15,12.8-29.3,20-43.6
				c-0.8-0.5-1.6-0.9-2.4-1.4c-5.8,11.8-9.5,24.5-14.6,36.6c0.8,0.4,1.7,0.7,2.5,1.1c4-13.3,10.8-25.4,16.3-38.1
				c-0.9-0.2-1.7-0.5-2.6-0.7c-0.2,13.2-5,26-10.8,37.7c0.8,0.4,1.7,0.7,2.5,1.1c2-13.3,5.8-26,11-38.4c-0.9-0.1-1.8-0.2-2.7-0.4
				c-1.8,14.6-3.8,29.2-7.3,43.5c-0.4,1.7,2.2,2.4,2.6,0.7c3.6-14.6,5.5-29.4,7.4-44.2c0.2-1.7-2.2-1.6-2.7-0.4
				c-5.2,12.4-9,25.1-11,38.4c-0.2,1.4,1.8,2.6,2.5,1.1c6-12.2,10.9-25.4,11.2-39.1c0-1.3-2-2-2.6-0.7
				c-5.6,12.9-12.6,25.2-16.6,38.7c-0.4,1.4,1.9,2.5,2.5,1.1c5.1-12.1,8.9-24.8,14.6-36.6c0.8-1.6-1.6-3-2.4-1.4
				c-7.3,14.5-14.5,29-20.3,44.2c-0.5,1.4,1.8,2.4,2.5,1.1c7.7-15.7,12.8-32.6,16.6-49.7c0.3-1.4-1.9-2.6-2.5-1.1
				c-5.9,13.9-10.6,28.2-16.5,42.1c0.8,0.4,1.7,0.7,2.5,1.1c5.3-12.5,9.1-25.4,12.8-38.4c0.5-1.7-2.1-2.4-2.6-0.7
				c-4,13.3-10.8,25.4-16.3,38.1c0.8,0.4,1.7,0.7,2.5,1.1c3.8-12.8,9.7-24.7,16.3-36.2c-0.8-0.5-1.6-0.9-2.4-1.4
				c-7.7,13.5-14.8,27.5-23.8,40.2c0.8,0.5,1.6,0.9,2.4,1.4c6.9-11.9,15.1-22.9,21.9-34.7c0.8-1.3-1.1-2.9-2.2-1.7
				c-8.7,10.5-16.4,21.8-24,33.2c0.8,0.5,1.6,0.9,2.4,1.4c6.4-9.6,12.4-19.4,18.3-29.3c0.9-1.5-1.5-2.9-2.4-1.4
				c-5.6,9.3-11.3,18.6-18.1,27.2c0.7,0.6,1.4,1.1,2.2,1.7c14.3-19.9,25.4-41.7,34.9-64.3C261.7,74.2,259,73.5,258.3,75.1
				L258.3,75.1z"/>
		</g>
	</g>
	<g>
		<g>
			<path fill="#493927" d="M252.8,89.7c-3.4,11.9-11.3,22.5-20,31.2c-8.8,8.8-19.6,16.8-32.1,19.1c0.4,0.8,0.7,1.7,1.1,2.5
				c10.8-5.4,21.7-10.4,34.1-9c0-0.9,0-1.8,0-2.7c-18.4-0.1-37.1-1.9-55.2,1.9c-1.5,0.3-1.1,2.2,0,2.6c9.2,3.8,19,3.7,28.8,3.2
				c5.1-0.3,10.3-0.6,15.4-0.5c4.3,0.1,8.5,1.1,12.8,1.1c1.8,0,1.8-2.7,0-2.7c-39.4-1.8-79.1,3.4-117.4,12.8c-1.8,0.4-1,2.9,0.7,2.6
				c38.9-5.4,78.6-0.2,117-9.1c1.7-0.4,1-3-0.7-2.6c-38.4,8.9-78.2,3.8-117,9.1c0.2,0.9,0.5,1.8,0.7,2.6
				c38-9.4,77.5-14.5,116.7-12.8c0-0.9,0-1.8,0-2.7c-3.7,0-7.4-0.9-11.1-1c-5.1-0.2-10.3,0.1-15.4,0.4c-10.1,0.5-20.3,1-29.8-3
				c0,0.9,0,1.8,0,2.6c17.9-3.8,36.4-1.8,54.5-1.8c1.8,0,1.7-2.5,0-2.7c-12.9-1.5-24.2,3.7-35.4,9.3c-1.5,0.7-0.4,2.8,1.1,2.5
				c12.9-2.4,24.2-10.7,33.3-19.8c9-9,17.1-20,20.7-32.4C256,88.8,253.3,88,252.8,89.7L252.8,89.7z"/>
		</g>
	</g>
	<g>
		<g>
			<path fill="#493927" d="M244.7,138.1c-8.3,1.6-17.1,0.2-25.4-1.3c-9.4-1.7-18.7-4-28.2-5.5c-14.5-2.4-32.7-4.5-44,7.2
				c-0.9,0.9-0.2,2.2,1,2.3c26.2,3.4,52.3-8.9,78.3-1.9c0-0.9,0-1.8,0-2.6c-13.8,2.3-27.7,3.7-41.7,4.3c-13.8,0.6-28.2,0.8-41.7-2.5
				c0,0.9,0,1.8,0,2.6c13.9-5.6,29.7-6.3,44.4-6.1c14.9,0.2,30.2,1.5,44.4,6.1c1.7,0.5,2.4-2.1,0.7-2.6c-14.4-4.7-30.1-6-45.2-6.2
				c-15-0.2-31.1,0.6-45.2,6.2c-1.2,0.5-1.4,2.3,0,2.6c13.8,3.3,28.4,3.2,42.4,2.6c14.2-0.6,28.4-2.1,42.4-4.4
				c1.4-0.2,1.2-2.3,0-2.6c-26.3-7.1-52.5,5.2-79,1.8c0.3,0.8,0.6,1.6,1,2.3c12.2-12.8,33.6-8.1,48.9-5.1c15.1,3,31.9,8.5,47.4,5.4
				C247.1,140.5,246.4,137.8,244.7,138.1L244.7,138.1z"/>
		</g>
	</g>
	<g>
		<g>
			<path fill="#493927" d="M226.7,136.3c-15.6,0.8-30.3-4.6-45.6-6.5c-15-1.8-28.4,1.7-39.5,12.3c-0.9,0.9-0.2,2.3,1,2.3
				c33.1,1.7,65.7-7.1,98.7-7.3c1.8,0,1.8-2.8,0-2.7c-33.1,0.2-65.6,9-98.7,7.3c0.3,0.8,0.6,1.6,1,2.3c12.2-11.8,26.9-13.5,43-10.7
				c13.4,2.3,26.5,6.3,40.2,5.6C228.5,138.9,228.5,136.2,226.7,136.3L226.7,136.3z"/>
		</g>
	</g>
	<g>
		<g>
			<path fill="#493927" d="M244.6,126.7c-0.9-8.6,4.9-17,8.7-24.3c3.8-7.3,7.5-14.9,7.8-23.3c0-1.5-1.8-1.7-2.6-0.7
				c-8.3,10.9-11,25.5-12.9,38.7c-0.2,1.7,2.2,2.5,2.6,0.7c2.5-8.9,7.4-17,11-25.6c-0.9-0.1-1.8-0.2-2.7-0.4
				c-1.9,14.4-5.5,28.6-12.6,41.4c-0.9,1.5,1.5,2.9,2.4,1.4c7.4-13.2,11-27.8,13-42.7c0.2-1.7-2.2-1.7-2.7-0.4
				c-3.5,8.6-8.5,16.6-11,25.6c0.9,0.2,1.8,0.5,2.6,0.7c1.9-13,4.5-27.4,12.7-38.1c-0.9-0.2-1.7-0.5-2.6-0.7
				c-0.3,9.8-5.6,18.5-10,27c-3.3,6.2-7.2,13.3-6.4,20.6C242,128.4,244.7,128.4,244.6,126.7L244.6,126.7z"/>
		</g>
	</g>
	<g>
		<g>
			<path fill="#493927" d="M182.5,134.5c-13.2,3.6-27,3.7-40.2,7.3c-1.3,0.4-1.3,2.3,0,2.6c11.2,3.4,22.4,1.9,33.6,0
				c-0.2-0.9-0.5-1.8-0.7-2.6c-10.1,3.9-20.8,5.8-31.1,9.1c-1.4,0.5-1.2,2.7,0.4,2.7c11.7,0,23.5-0.1,35.1-1.9
				c-0.2-0.9-0.5-1.8-0.7-2.6c-8,2.1-15.7,5.2-23.8,7.3c-1.5,0.4-1.2,2.7,0.4,2.7c3.7,0,7.4,0.4,11.1,0.8c1.7,0.2,3.5,0.3,5.2,0.5
				c0.7,0.1,3.6,0.7,2.9,0.1c0.3-0.8,0.6-1.6,1-2.3c0,0-0.1,0-0.1,0c-1.8,0.1-1.8,2.9,0,2.7c0,0,0.1,0,0.1,0c1.1-0.1,2-1.5,1-2.3
				c-1.6-1.3-5.5-1-7.3-1.2c-4.6-0.5-9.2-1-13.9-1c0.1,0.9,0.2,1.8,0.4,2.7c8-2.1,15.7-5.2,23.8-7.3c1.7-0.5,1-2.9-0.7-2.6
				c-11.4,1.8-22.9,1.8-34.4,1.8c0.1,0.9,0.2,1.8,0.4,2.7c10.3-3.3,21-5.3,31.1-9.1c1.7-0.6,1-2.9-0.7-2.6
				c-10.8,1.8-21.5,3.3-32.2,0c0,0.9,0,1.8,0,2.6c13.2-3.6,27-3.7,40.2-7.3C184.9,136.7,184.2,134,182.5,134.5L182.5,134.5z"/>
		</g>
	</g>
	<g>
		<g>
			<path fill="#493927" d="M181.7,152.9c-8.4-4.2-17.2-7.6-25.9-11.1c0,0.9,0,1.8,0,2.6c6.5-2.3,12.7-5.2,19.7-5.4
				c-0.1-0.9-0.2-1.8-0.4-2.7c-10.9,1.6-22,0.2-32.9,1.8c-1.6,0.2-1.1,2.7,0.4,2.7c2.4,0,4.9,0,7.3,0c1.8,0,1.8-2.7,0-2.7
				c-8-0.1-15.8-1.7-23.8-1.8c0,0.9,0,1.8,0,2.7c6.1,0,12.2,0,18.3,0c1.4,0,1.8-1.8,0.7-2.6c-1.8-1.2-3.7-2.4-5.5-3.7
				c-0.2,0.9-0.5,1.7-0.7,2.6c9.6,0.1,18.4,2.3,26.7,7.1c1.5,0.9,2.9-1.5,1.4-2.4c-8.7-5-18.1-7.4-28.1-7.5c-1.4,0-1.8,1.8-0.7,2.6
				c1.8,1.2,3.7,2.4,5.5,3.7c0.2-0.9,0.5-1.7,0.7-2.6c-6.1,0-12.2,0-18.3,0c-1.8,0-1.8,2.7,0,2.7c8,0.1,15.8,1.7,23.8,1.8
				c0-0.9,0-1.8,0-2.7c-2.4,0-4.9,0-7.3,0c0.1,0.9,0.2,1.8,0.4,2.7c10.9-1.6,22-0.2,32.9-1.8c1.5-0.2,1.2-2.8-0.4-2.7
				c-7.3,0.3-13.7,3.2-20.5,5.5c-1.3,0.5-1.3,2.1,0,2.6c8.5,3.4,17,6.8,25.3,10.8C181.9,156.1,183.3,153.7,181.7,152.9L181.7,152.9z
				"/>
		</g>
	</g>
	<g>
		<g>
			<path fill="#493927" d="M162.7,160c-4.9,0.2-9.4,1.4-14.3,0c0,0.9,0,1.8,0,2.6c4.7-1.5,9.3-1.8,14.3-1.8c1.8,0,1.7-2.6,0-2.7
				c-3.3-0.2-6.9-1.7-9.8,0.2c-1.1,0.7-0.7,2.6,0.7,2.6c7.5-0.1,14.1-2.4,20.8-5.7c1.6-0.8,0.2-3.1-1.4-2.4
				c-6.3,3.1-12.3,5.2-19.4,5.3c0.2,0.9,0.5,1.7,0.7,2.6c2-1.3,6.1,0,8.5,0.2c0-0.9,0-1.8,0-2.7c-5.2,0-10,0.3-15,1.9
				c-1.3,0.4-1.3,2.3,0,2.6c5.1,1.4,9.8,0.2,15,0C164.5,162.7,164.5,160,162.7,160L162.7,160z"/>
		</g>
	</g>
	<g>
		<g>
			<path fill="#493927" d="M205.2,138.1c-14.3-1.9-27.9-7.1-42.4-7.4c-1.5,0-1.9,2.4-0.4,2.7c10.2,1.8,20.4,0,30-3.7
				c1.6-0.6,0.9-3.3-0.7-2.6c-9.1,3.5-18.9,5.4-28.5,3.7c-0.1,0.9-0.2,1.8-0.4,2.7c14.2,0.2,27.7,5.4,41.7,7.3
				C206.2,141,206.9,138.4,205.2,138.1L205.2,138.1z"/>
		</g>
	</g>
	<g>
		<g>
			<path fill="#493927" d="M231.6,154.8c2.3-4.6,5.3-8.8,8.9-12.5c-0.6-0.6-1.3-1.3-1.9-1.9c-2.3,2.4-4.4,5.3-4.2,8.9
				c0.2,2.4,1.8,4.4,1.9,6.7c0.1,1.8,2.8,1.8,2.7,0c-0.1-1.8-1-3.4-1.5-5.1c-1.1-3.5,0.6-6.1,3-8.6c1.2-1.3-0.7-3.2-1.9-1.9
				c-3.7,3.8-6.9,8.3-9.4,13.1C228.4,155,230.8,156.4,231.6,154.8L231.6,154.8z"/>
		</g>
	</g>
	<g>
		<g>
			<path fill="#493927" d="M207.5,153.2c12.8,10.6,21.4,26.6,30.9,40c1,1.4,3.4,0.1,2.4-1.4c-9.6-13.5-18.3-29.8-31.3-40.5
				C208.1,150.2,206.1,152.1,207.5,153.2L207.5,153.2z"/>
		</g>
	</g>
	<g>
		<g>
			<path fill="#493927" d="M207.5,156.9c11.6,11.9,19.6,27.1,23.4,43.3c0.4,1.7,3,1,2.6-0.7c-3.9-16.6-12.2-32.3-24.1-44.5
				C208.2,153.7,206.2,155.6,207.5,156.9L207.5,156.9z"/>
		</g>
	</g>
	<g>
		<g>
			<path fill="#493927" d="M223.5,159.6c2.6,24.7,10.9,49.7,5.5,74.6c-0.4,1.7,2.3,2.5,2.6,0.7c5.5-25.2-2.8-50.4-5.4-75.3
				C226.1,157.8,223.4,157.8,223.5,159.6L223.5,159.6z"/>
		</g>
	</g>
	<g>
		<g>
			<path fill="#493927" d="M137.6,77.7c5.3,18.3,5.4,37.4,5.4,56.3c0,1.8,2.7,1.8,2.7,0c0-19.2-0.2-38.5-5.5-57
				C139.8,75.2,137.2,76,137.6,77.7L137.6,77.7z"/>
		</g>
	</g>
	<g>
		<g>
			<path fill="#493927" d="M141.3,73.6c1.6,13.5,1.5,27.3,2.2,40.9c0.3,6.5,0.6,13.1,1.4,19.6c0.3,2.4,0.3,6.8,2.6,8.3
				c1.5,1,2.8-1.4,1.4-2.4c-1.6-1.1-1.5-8.6-1.7-10.5c-0.6-6.6-0.9-13.1-1.2-19.7c-0.5-12.1-0.5-24.3-2-36.3
				C143.8,71.9,141,71.9,141.3,73.6L141.3,73.6z"/>
		</g>
	</g>
	<g>
		<g>
			<path fill="#493927" d="M149.4,135.4c-3.6-20.6-3.7-41.6-7.3-62.2c-0.9,0.2-1.8,0.5-2.6,0.7c6.4,22,6.6,45.3,11,67.7
				c0.3,1.7,3,1,2.6-0.7c-4.4-22.4-4.6-45.7-11-67.7c-0.5-1.7-2.9-1-2.6,0.7c3.6,20.6,3.7,41.6,7.3,62.2
				C147.1,137.9,149.7,137.2,149.4,135.4L149.4,135.4z"/>
		</g>
	</g>
	<g>
		<g>
			<path fill="#493927" d="M194.3,75.1c-5.3,21,1.4,42.7-1.8,64c0.8-0.1,1.7-0.2,2.5-0.3c-1.2-1.7-0.9-5-1.7-7
				c-0.6-1.6-3.3-0.9-2.6,0.7c1,2.5,0.3,5.4,2,7.6c0.6,0.8,2.3,1,2.5-0.3c3.2-21.2-3.5-43,1.8-64C197.4,74.1,194.8,73.4,194.3,75.1
				L194.3,75.1z"/>
		</g>
	</g>
	<g>
		<g>
			<path fill="#493927" d="M190.6,71.8c0.1,22.6,1.8,45.1,1.8,67.7c0.9-0.1,1.8-0.2,2.7-0.4c-3.5-23.5-1.8-47.3-1.8-70.9
				c-0.9,0-1.8,0-2.7,0c0,22.6,1.8,45.1,3.7,67.7c0.1,1.7,2.9,1.8,2.7,0c-1.9-22.5-3.6-45-3.7-67.7c0-1.8-2.7-1.8-2.7,0
				c0,23.9-1.6,47.9,1.9,71.7c0.2,1.6,2.7,1.1,2.7-0.4c0-22.6-1.8-45.1-1.8-67.7C193.4,70,190.6,70,190.6,71.8L190.6,71.8z"/>
		</g>
	</g>
	<g>
		<g>
			<path fill="#493927" d="M219.9,70c0,22.6,0,45.2,1.8,67.7c0.9-0.1,1.8-0.2,2.7-0.4c-3.8-21.5-3.7-43.8-1.8-65.5
				c-0.9,0-1.8,0-2.7,0c0,19.5,1.8,39,1.8,58.5c0,1.8,2.7,1.8,2.7,0c-0.1-19.5-1.8-39-1.8-58.5c0-1.8-2.6-1.7-2.7,0
				c-1.9,22-2,44.4,1.9,66.2c0.3,1.5,2.8,1.2,2.7-0.4c-1.8-22.5-1.8-45.1-1.8-67.7C222.6,68.2,219.9,68.2,219.9,70L219.9,70z"/>
		</g>
	</g>
	<g>
		<g>
			<path fill="#493927" d="M170.6,71.4c-3.7,10.4-2.7,22.5-2.1,33.2c0.6,12.8,2,25.6,2.1,38.4c0.9,0,1.8,0,2.7,0
				c-1.7-23.9,1.5-48.1-3.7-71.7c-0.3-1.5-2.7-1.2-2.7,0.4c0,11.1,0,22.2,0.8,33.3c0.5,8.3,0.7,18.4,4.9,25.9
				c0.9,1.5,3.2,0.2,2.4-1.4c-4.3-7.7-4.2-18.6-4.7-27.2c-0.6-10.2-0.6-20.4-0.6-30.7c-0.9,0.1-1.8,0.2-2.7,0.4
				c5.2,23.4,1.9,47.3,3.6,70.9c0.1,1.7,2.8,1.8,2.7,0c-0.1-12.3-1.4-24.7-2-37c-0.6-11-1.7-23.4,2-34
				C173.8,70.5,171.1,69.8,170.6,71.4L170.6,71.4z"/>
		</g>
	</g>
	<g>
		<g>
			<path fill="#493927" d="M132.1,70c-1.7,22.6,1.7,45.2,3.7,67.7c0.1,1.7,2.8,1.8,2.7,0c-0.2-22.7-5.5-45-7.3-67.7
				c-0.1-1.7-2.9-1.8-2.7,0c1.8,22.6,5.4,45,7.3,67.7c0.1,1.7,2.9,1.8,2.7,0c-1.9-22.6-5.5-45-7.3-67.7c-0.9,0-1.8,0-2.7,0
				c1.8,22.6,7.2,44.9,7.3,67.7c0.9,0,1.8,0,2.7,0c-1.9-22.5-5.4-45-3.7-67.7C135,68.2,132.2,68.2,132.1,70L132.1,70z"/>
		</g>
	</g>
	<g>
		<g>
			<path fill="#493927" d="M238.2,62.7c0,24.9,1.6,49.8-1.8,74.6c0.9,0.1,1.8,0.2,2.7,0.4c0-25,0-50,0-75c-0.9,0-1.8,0-2.7,0
				c0,11.4,0.9,22.8,1.1,34.1c0.1,5.8,0.2,11.5-0.2,17.3c-0.2,3.8-0.3,8.6-2.5,11.9c-1,1.5,1.4,2.8,2.4,1.4c2-2.9,2.3-6.8,2.7-10.2
				c0.6-5.9,0.6-11.8,0.5-17.7c-0.2-12.2-1.1-24.5-1.2-36.7c0-1.8-2.7-1.8-2.7,0c0,25,0,50,0,75c0,1.5,2.5,1.9,2.7,0.4
				c3.4-25,1.9-50.2,1.9-75.3C240.9,60.9,238.2,60.9,238.2,62.7L238.2,62.7z"/>
		</g>
	</g>
	<g>
		<g>
			<path fill="#493927" d="M251.2,62c-7.8,12.7-8.8,29.1-9.3,43.6c-0.5,16.2,0.5,32.4,1.8,48.5c0.1,1.7,2.7,1.8,2.7,0
				c0-33.5,1.8-67,1.8-100.6c0-1.8-2.7-1.8-2.7,0c0,33.5-1.8,67-1.8,100.6c0.9,0,1.8,0,2.7,0c-1.2-15.2-2.2-30.4-1.9-45.7
				c0.3-14.9,1-32,9-45.1C254.4,61.9,252.1,60.5,251.2,62L251.2,62z"/>
		</g>
	</g>
	<g>
		<g>
			<path fill="#493927" d="M224.5,71.8c0-0.6,0-1.2,0.1-1.8c0-0.1,0-0.3,0.1-0.4c-0.1,0.5,0,0,0-0.1c0-0.3,0.1-0.5,0.1-0.8
				c0.1-0.4,0.2-0.9,0.3-1.3c0-0.1,0.1-0.3,0.1-0.4c0,0,0-0.1,0-0.1c0-0.1-0.2,0.3-0.1,0.3c-0.2,0.2-0.3,0.3-0.5,0.5c0,0,0,0,0,0
				c-0.4,0-0.7,0.1-1.1,0.1c0,0,0,0,0,0c-0.3-0.2-0.5-0.4-0.8-0.6c0.1,0.2-0.2-0.9-0.2-0.7c0,0.2,0.1-0.5,0-0.3c0,0.1,0,0.1,0,0.2
				c0,0.2-0.1,0.4-0.1,0.7c-0.2,0.9-0.4,1.8-0.6,2.7c-0.2,0.7,0.2,1.5,1,1.7c0.7,0.2,1.5-0.2,1.7-1c0.3-1,0.5-2,0.7-3.1
				c0.1-0.3,0.1-0.6,0.1-0.8c0-1-1.1-1.8-2.1-1.2c-0.6,0.3-0.7,1-0.8,1.6c-0.2,0.7-0.3,1.3-0.4,2c-0.1,1-0.3,2-0.3,3
				c0,0.7,0.6,1.4,1.4,1.4C223.8,73.2,224.5,72.6,224.5,71.8L224.5,71.8z"/>
		</g>
	</g>
	<g>
		<g>
			<path fill="#C49241" d="M190.1-28c3.2,7.6,1,2.4,0.4,0.6c-0.6-1.6-1.2-3.1-1.7-4.7c-1.2-3.5-2.3-7.1-3.2-10.7
				c-0.4-1.7-0.8-3.4-1.1-5.1c-1.1-6.3,0.1,3.2,0.1,0.5c-0.1-3.7-0.2-7.1,0.1-10.8c1.4-13.5-13.8-29.2-27.4-27.4
				c-8.5,1.1-15.2,2.7-21.5,8.6c-0.4,0.4-0.9,0.8-1.3,1.3c-4.9,6.3-5.7,7.4-2.6,3.4c1.9-2.2,2.3-2.8,1.2-1.7c4-2.4,8.1-4.7,12.1-7.1
				c-0.2,0.1-0.4,0.1-0.6,0.2c8.9,2.4,17.8,4.7,26.7,7.1c5.8,6.8,3.4,4.3,2,2.2c-1.7-2.5-3.6-5.2-5.7-7.5c-3.7-4-10.3-8.3-15.7-9.1
				c-10-1.5-19.1-0.5-26.7,7.1c-6.3,6.3-10.7,18-7.1,26.7c0.9,2.1,1.4,4.1,1.9,6.2c0.9,3.6-0.6-4-0.5-4.1c-0.3,0.6,0.1,2.5,0.1,3.3
				c0,1.9-0.2,3.7-0.4,5.5c0.7-10.6,0-1.3-0.8,1.7c-2.1,8.3-5.3,16.3-7.7,24.5c-3.3,11.4-4.7,23.3-2.2,35
				c3,13.6,12.3,24.8,23.9,32.1c9.1,5.7,19.5,7.3,29.9,8.5c8.6,1,17.3,1,25.9,0.6c19.2-0.9,39.2-3.1,57.8-8.5
				c8.5-2.5,17.7-6.2,25.1-11.3c12.2-8.4,18.8-19.6,20.2-34.3c0.9-10.3-1.4-21.3-3.8-31.4c-3-13.2-7.8-25.9-12.3-38.6
				c-6.5-18.3-9.8-40.1-23.3-54.8c-10-10.9-24.9-14.8-39-10.9c-13.1,3.6-25.6,14.5-31.8,26.3c-12.2,23.1-5.2,48.9,3.8,71.7
				c3.5,9,7.5,17.9,10,27.3c0.5,1.9,0.9,3.8,1.3,5.8c0.9,4.1-0.6-7.3-0.6-4.1c0,1,0.1,2,0.1,3c0.2,10.3,2.9,19,7.3,28.3
				C217.4,16.1,231.8,5,246.1-6.1c-0.8-1-1.6-2.1-2.5-3.1c-2.8-3.5,4.6,6,2.4,3.1c-0.7-1-1.5-1.9-2.2-2.9c-3.4-4.5-6.7-9-9.9-13.6
				c-3.6-5.2-7-10.5-10.3-15.9c-1.5-2.5-3-5.1-4.3-7.7c-0.7-1.3-1.4-2.6-2-4c-0.6-1.2-3.1-7-0.8-1.4c2.3,5.4,0.2,0.5-0.2-0.8
				c-0.4-1-0.7-2.1-1-3.1c-0.3-1.1-0.5-2.2-0.8-3.3c-0.8-2.9,0.6,8.6,0.7,4.9c0-0.6,0-1.3-0.1-1.9c-0.5-4.2-1.1,6.6-0.6,4.5
				c0.9-4.2-3.6,7.3-1.7,4c1.4-2.3-5.2,6.3-3.3,4.4c1.9-1.9-7,4.8-4.1,3.2c4-2.2-7.5,2.1-2.9,1.2c0.9-0.2-8.6,0.8-5.5,0.8
				c3.2,0-6.5-0.9-5.5-0.8c4.5,0.8-7.1-3.6-3.4-1.4c3.7,2.1-5.9-5.6-2.6-1.9c2.2,2.4,3.2,5.4-1.2-2c2.9,4.9,5.8,9.6,8.2,14.7
				c6.4,13.6,10.9,27.9,24.1,36.6c12,7.9,30.9,2.8,37.5-9.8c7.3-13.7,3-29.1-9.8-37.5c7.9,5.2,5.6,4.7,3.6,2.5
				c6.6,7.1,3.8,5.1,2.3,2.5c-1.4-2.4-2.6-4.9-3.7-7.4c-2.8-6-5.3-12.2-8.2-18.1c-8.4-16.8-21.9-32.5-42.3-32.1
				c-13.9,0.3-26.9,9.1-32.3,21.8c-4,9.4-3.8,19.1-1.3,28.9c3.8,14.4,12,27.9,20.1,40.3c7.7,11.8,16.3,23.1,25.1,34.1
				c3.9,4.9,13.3,8.3,19.4,8c6.2-0.3,11.7-2.1,16.6-5.9c11.4-8.8,13-22.8,7.1-35.4c-2.3-4.8,1.7,6.5,0.5,0.9c-0.2-0.8-0.5-2.3-0.8-3
				c1.8,3.7,0.4,6.2,0.5,2.8c0-0.7,0-1.4,0-2.1c-0.1-5.1-1-10.4-2.1-15.4c-1.6-7.2-4.4-14.2-7.1-21.1c-2.9-7.4-6-14.8-8.5-22.4
				c-1.2-3.6-2.2-7.2-3.1-10.8c-0.6-2.7-1-9.6-0.2,0.7c-0.1-1.8-0.4-3.5-0.4-5.3c0-1.7,0.2-3.4,0.2-5.1c-0.5,9.3-0.4,4.7,0.3,1.5
				c0.4-2.1,3.1-3.6-1.7,3.8c0.4-0.7,0.7-1.5,1.1-2.2c0.4-0.7,0.9-1.4,1.4-2.1c-3.7,6.3-3.6,4.4-1.6,2.4c0.6-0.6,1.3-1.1,1.9-1.7
				c3.8-3.6-5.6,3.4-1.4,1.1c0.6-0.3,1.3-0.7,1.9-1.1c3.7-2.3-6.3,2.4-3.4,1.5c2.7-0.8,3.5,0.6-4.4,0.5c3.5,0.1-5.8-1-5-0.8
				c1.3,0.3,3.8,1.4-1.2-0.7c-2.8-1.3-3.4-1.5-2-0.7c2.1,1.4,0.9,0.4-3.7-2.9c0.3,0.4,0.8,0.8,1.1,1.1c2.7,2.8-4-5.9-2.5-3.3
				c0.7,1.2,1.4,2.3,2.1,3.5c0.4,0.7,0.7,1.4,1,2.1c1.5,2.8-2.9-7.4-1.4-3.4c0.7,1.8,1.3,3.5,1.9,5.3c2.1,6.4,3.8,13,6,19.4
				c3.9,11.5,8.2,22.8,11.7,34.4c1.6,5.2,3,10.4,4,15.8c0.4,2.1,0.8,4.1,1.1,6.2c0.2,1.1,0.8,5.5,0,0c-0.8-5.6-0.1-0.6-0.1,0.6
				c0.1,1.4,0,2.7,0.1,4.1c0,4.9,1.9-8,0.4-3.1c-1.5,4.8,3.8-6.9,1.1-2.8c-1.5,2.3,3.3-4,3.1-3.9c-0.4,0.1-1.5,1.4-1.8,1.8
				c-1.8,2.2,6.7-4.5,3.4-2.6c-0.5,0.3-1,0.6-1.5,0.9c-1.4,0.8-2.8,1.6-4.3,2.3c-1.6,0.8-3.6,2.1-5.3,2.4c-0.6,0.1,6.5-2.3,3.5-1.5
				c-0.7,0.2-1.5,0.5-2.2,0.7c-6.4,2-13,3.3-19.6,4.4c-2,0.3-3.9,0.7-5.9,0.9c-6.4,1,5.5-0.7,1.1-0.1c-4.7,0.6-9.3,1.1-14,1.4
				c-7.8,0.6-15.7,0.9-23.5,0.5c-1.9-0.1-3.7-0.2-5.6-0.4c-0.9-0.1-1.8-0.2-2.6-0.3c-3.3-0.3,8,1.4,3.8,0.5
				c-2.9-0.6-5.7-1.3-8.6-2.1c-3.7-1.1,6.5,3.3,4.1,1.7c-0.6-0.4-1.4-0.8-2.1-1.2c-1.9-1.1-2.3-3,2.6,2.1C162,3.8,161,3,160.2,2.2
				c-3.2-2.9,3.4,5.4,2,2.7c-0.2-0.5-2-2.5-1.7-3c0.3-0.6,2.4,7.6,1.7,3.9c-0.2-0.8-0.4-2-0.7-2.8c2.5,5.7,0.6,7.1,0.6,4
				c0-1.2-0.1-2.3,0-3.4c0.3-6.1-1.4,7.3-0.2,1.2c0.7-4,1.9-7.9,3.1-11.8c6.2-19.6,14.4-41.6,5.9-61.9
				c-11.2,11.2-22.5,22.5-33.7,33.7c-3.1-1.2-6-2.8-8.5-5c-3-4.1-3.8-4.9-2.3-2.7c1.7,2.8,3.8,5.4,6,7.9c6.3,7.4,17.8,9.3,26.7,7.1
				c5.1-1.3,9.5-3.9,13.2-7.6c1.6-2,3.2-4.1,4.7-6.1c-1.8,3-4.2,5.5-7.1,7.5c-4.6,1.2-9.2,2.5-13.8,3.7c0.4-0.1,0.8-0.1,1.2-0.2
				c-9.1-9.1-18.3-18.3-27.4-27.4c-2.1,20.1,5.2,39.6,12.9,57.7c2.5,5.9,10.6,11,16.4,12.6c6.6,1.8,15.3,1,21.1-2.8
				c5.9-3.8,11-9.4,12.6-16.4C194.6-14.5,193.1-20.8,190.1-28L190.1-28z"/>
		</g>
	</g>
	<g>
		<g>
			<path fill="#C49241" d="M231.4-41.5c-1.7-0.8-3.3-1.7-4.9-2.7c-0.8-0.5-1.6-1.1-2.4-1.6c-4.1-2.7,2.2,1.8,2.2,1.8
				c-1.4,0.4-8-7.6-9-8.7c-1.2-1.3-2.7-4.1-4.3-5.1c1,0.6,4.2,5.5,1.4,1.8c-0.7-0.9-1.3-1.9-2-2.8c-2.7-3.8-5.2-7.8-7.5-11.9
				c-2.3-4.1-4.5-8.2-6.6-12.5c-1-2.1-2-4.2-2.9-6.3c-0.4-0.8-0.7-1.7-1.1-2.5c-2.1-4.7,2,5.1,0.9,2.2c-2.9-7.7-5.8-15.3-8-23.2
				c-8.8,11.6-17.6,23.1-26.4,34.7c1.7-0.2,3.5-0.3,5.2-0.3c1.4,0,3.7,0.7,5.1,0.3c-4.5-0.6-5.3-0.7-2.3-0.2
				c0.6,0.1,1.1,0.2,1.7,0.3c1.9,0.4,3.8,0.9,5.8,1.3c8.7,2.1,17.7,3.8,26.7,4c14.4,0.3,28.1-12.8,27.4-27.4
				c-0.7-15.1-12-27.1-27.4-27.4c-1.1,0-4.2-0.8-5.2-0.3c4.5,0.6,5.2,0.7,2.2,0.2c-0.6-0.1-1.1-0.2-1.7-0.3
				c-3.6-0.7-7.2-1.6-10.7-2.4c-8.7-1.9-17.8-3.6-26.7-2.7c-8.9,0.9-15.9,3.5-21.5,10.8c-5.3,6.9-7.2,15.4-4.9,23.9
				c5.3,19.6,13.6,39,23.9,56.5C169.2-23.3,184-3.6,203.8,5.9c6.7,3.3,13.7,4.8,21.1,2.8c6.4-1.8,13.3-6.7,16.4-12.6
				C247.8-16.2,245.2-34.8,231.4-41.5L231.4-41.5z"/>
		</g>
	</g>
	<g>
		<g>
			<path fill="#C49241" d="M232.1-119.4c-0.7-1.1-1.4-2.2-1.9-3.4c0.9,2.2,1.8,4.4,2.8,6.6c-0.3-0.6-0.5-1.3-0.6-2
				c0.3,2.4,0.7,4.9,1,7.3c-0.1-0.6-0.1-1.1,0-1.7c-0.3,2.4-0.7,4.9-1,7.3c0-0.3,0.1-0.5,0.2-0.8c-0.9,2.2-1.8,4.4-2.8,6.6
				c0.2-0.4,0.4-0.7,0.6-1c-1.4,1.9-2.9,3.7-4.3,5.6c0.3-0.3,0.6-0.6,1-0.9c-1.9,1.4-3.7,2.9-5.6,4.3c0.4-0.3,0.9-0.5,1.4-0.8
				c-2.2,0.9-4.4,1.8-6.6,2.8c0.4-0.2,0.7-0.3,1.1-0.4c6.8-2.4,12.6-6.2,16.4-12.6c3.4-5.9,4.9-14.5,2.8-21.1
				c-2.1-6.6-6.3-13-12.6-16.4c-6.2-3.3-14.2-5.2-21.1-2.8c-5.7,2.1-10.7,4.4-15.1,8.7c-1.8,1.8-3.8,4.3-5.1,6.5
				c-0.7,1.1-1.3,3-1.7,3.8c-0.7,1.6-1.2,2.6-1.6,4c-2.4,9.7-0.1,19.9,5.2,28.2c3.9,6,9.4,10.7,16.4,12.6c6.6,1.8,15.3,1,21.1-2.8
				c5.9-3.8,11-9.4,12.6-16.4C236.5-105.3,236.2-113.2,232.1-119.4L232.1-119.4z"/>
		</g>
	</g>
	<g>
		<g>
			<path fill="#C49241" d="M159.5-123.6c-12.2-16.5-20.7-34.9-40.7-43.4c-5.5-2.3-11,5.4-7.7,10.1c14.2,20.1,30.1,39.9,48.6,56.2
				c6.6,5.8,16.3-3.8,9.7-9.7c-17.6-15.6-33-34.3-46.5-53.5c-2.6,3.4-5.2,6.7-7.7,10.1c15.7,6.6,23,24.2,32.5,37.1
				C152.9-109.7,164.8-116.5,159.5-123.6L159.5-123.6z"/>
		</g>
	</g>
	<g>
		<g>
			<path fill="#C49241" d="M154.8-123.2c-5.5-5.6-10-11.8-13.6-18.7c-3.6-7-14.5-2.1-12.5,5.3c2.3,8.6,6.4,16.4,11.7,23.6
				c4.3,5.8,15.1,2.7,12.5-5.3c-2.6-8.1-3.2-14.6,1.1-22.1c4.4-7.7-7.4-14.6-11.8-6.9c-6.1,10.6-6.2,21.2-2.5,32.7
				c4.2-1.8,8.4-3.5,12.5-5.3c-4.6-6.3-8.3-12.8-10.3-20.3c-4.2,1.8-8.4,3.5-12.5,5.3c4.1,7.9,9.5,15.1,15.7,21.5
				C151.3-107.2,161-116.9,154.8-123.2L154.8-123.2z"/>
		</g>
	</g>
	<g>
		<g>
			<path fill="#C49241" d="M222.4-107.4c-17.4-44.9,3.3-92.9-5.5-139c-0.7-3.7-5.1-5.7-8.4-4.8c-4,1-5.3,4.8-4.8,8.4
				c2.9,21.4-3.6,40.6-9,60.9c-2.4,9-4.2,18.4-4.1,27.8c0.2,11.8,3.5,22.9,8.3,33.6c2.9,6.4,12.9,3,12.8-3.5
				c-0.2-14.2-5.3-27.8-5.5-42.1c-4.3,1.2-8.5,2.3-12.8,3.5c5,8.6,6.8,18,8.5,27.6c4.4-1.2,8.8-2.4,13.2-3.6
				c-5.3-16-8.8-32.6-10.7-49.4c-3.9,1.6-7.8,3.2-11.7,4.8c1.3,1.7,2.3,3.7,3.7,5.5c2.4,3.1,7.1,2.2,9.7,0
				c9.9-8.3,15.7-21.5,10.2-33.9c-3.6-8-15.4-1.1-11.8,6.9c2.8,6.3-3.8,13.7-8.1,17.3c3.2,0,6.5,0,9.7,0c-1.3-1.7-2.3-3.7-3.7-5.5
				c-3.6-4.5-12.4-0.9-11.7,4.8c2.1,18,5.6,35.8,11.2,53c2.8,8.5,14.7,5,13.2-3.6c-1.8-10.8-4.3-21.3-9.8-30.9
				c-3.4-5.8-12.9-3.4-12.8,3.5c0.2,14.2,5.3,27.8,5.5,42.1c4.3-1.2,8.5-2.3,12.8-3.5c-4.3-9.6-6.8-19.8-6.4-30.4
				c0.3-8.9,2.7-17.6,5.2-26.2c6-20.9,10.3-40.6,7.4-62.5c-4.4,1.2-8.8,2.4-13.2,3.6c4.4,22.9,0.9,46.4-1.1,69.4
				c-2,23.5-2.1,47.3,6.6,69.5C212.3-95.6,225.6-99.1,222.4-107.4L222.4-107.4z"/>
		</g>
	</g>
	<g>
		<g>
			<path fill="#C49241" d="M217.1-229.9c0-2.3,0-4.5,0-6.8c0-3.2,0.4-6.8-2.2-9.2c-1.9-1.7-4.3-2.7-6.9-2.6c-1.1,0-2.2,0.3-3.3,0.5
				c-0.4,0.1-0.8,0.2-1.1,0.3c-1.1,0.2,1.7-0.1-0.6,0c-3.6,0.1-7,3.1-6.9,6.9c0.2,3.6,3,7,6.9,6.9c1.6-0.1,3.2-0.3,4.8-0.6
				c0.2,0,1.2-0.4,1.3-0.3c-0.3,0-0.6,0.1-0.9,0.1c-1.1-0.1-2-0.5-2.8-1.2c-0.7-1.6-1.3-3.2-2-4.8c0,3.7,0,7.3,0,11
				c0,3.6,3.2,7,6.9,6.9C214-223.2,217.1-226.1,217.1-229.9L217.1-229.9z"/>
		</g>
	</g>
	<g opacity="0.5">
		<g>
			<path fill="#D53300" d="M118.4-67.4c15.1,21.1-3,50.3-12.8,69.9c4.2,1.8,8.4,3.5,12.5,5.3c6-22.7,24.3-44.9,18.3-69.5
				c-4.4,1.2-8.8,2.4-13.2,3.6c6.5,20.6-6,42.7-11.1,62.3c-2.6,9.9-4.3,20.8-1.2,30.8c3.5,11.3,12.4,19.2,22.8,24.4
				c7.2,3.6,13.2-4.7,8.3-10.8c-6.6-8.2-11.8-17.4-14.4-27.6c-2.6-10.3-2.6-21-1.9-31.6c0.6-8.8-13.1-8.8-13.7,0
				c-1.7,24,4.5,49.4,26.9,61.9c20.1,11.2,45,9.9,66.8,6.1c12.9-2.3,26-5.6,38.1-10.5c10.6-4.4,21-10.5,27-20.6
				c9.9-16.6,3.5-36.4-2-53.3c-6.1-18.7-13.5-39,3-53.7c5.9-5.2-1.7-14.7-8.3-10.8c-8.5,5-15.6,12.3-17.8,22.2
				c-2,9.3,0.3,19,3.8,27.6c7.5,18.4,21.1,34.1,27.2,53c2.3,7,14,6.3,13.5-1.8c-1.1-15.4-6.8-29.2-13.5-42.8
				c-6.5-13.2-13.8-26.5-15.7-41.3c-4.3,1.2-8.5,2.3-12.8,3.5c6.4,15,4.7,31.9,6.4,47.7c4.3-1.2,8.5-2.3,12.8-3.5
				c-7-10.3-9.3-23.6-9.8-35.9c-0.5-11.8,0.1-25.3,6.1-35.9c-3.9-2.3-7.9-4.6-11.8-6.9c-8.1,14.8-7.4,34.7-6.4,51
				c0.9,14.7,1.7,32,8.3,45.5c2.6,5.5,11,3.7,12.5-1.6c6.2-21.9,0.3-45.5-1.6-67.7c-0.8-8.7-14-8.9-13.7,0
				c0.6,17.9,2.6,35.8,2.2,53.7c-0.3,14.4-2.4,29.3-11.2,41.1c-10.3,13.9-29.2,23.1-46.1,25.3c-16.7,2.2-34.4-2.4-46.5-14.4
				c-15.1-15-17-36.7-11.1-56.3c2.6-8.6-10.2-11.8-13.2-3.6c-8.3,22.5-7.5,47.9,9.2,66.4c14.6,16.3,37.9,23.1,59.3,21.9
				c23.9-1.3,50.4-12.3,63.9-32.9c12.3-18.9,7.5-41.8,2.2-62.1c-5.4-20.8-13.7-45.5,3-63.3c3.6-3.9,1.4-12.5-4.8-11.7
				c-12.2,1.6-24.9,5.9-30.7,17.7c-5.1,10.4-3.7,22.6-1.2,33.6c6,26.1,19.9,49.8,25,76.1c0.8,4.3,1.4,11.8,0.6,15.2
				c-0.8,3.5-1,3.8-2.3,6.1c-0.7,1.2-2.7,3.2-4,4c2.8,3.6,5.5,7.2,8.3,10.8c5.4-5.2,11.6-9.5,17.4-14.1c5.3-4.2,11.4-8.7,14.7-14.7
				c-4.3-1.2-8.5-2.3-12.8-3.5c-0.1,1.7,0.6-1.2-0.1,0.4c-0.2,0.5-0.3,1.1-0.5,1.6c0,0.1-0.3,0.7-1.1,2.1c-1,1.8-2.8,3.6-5.2,5.6
				c-4.5,3.8-11.4,7.4-17.4,10.1c-15.4,6.7-32.5,10.6-49.2,12.4c-8,0.8-16,1.2-24,0.7c-3.4-0.2-6.2-0.5-9.3-1.1
				c-2.5-0.5-7.2-1.9-8.2-2.3c-1-0.4-1.9-1-2.8-1.5c-1.8-1-0.8-0.3-1.9-1.4c-3.6-3.5-6.2-8-7.9-12.6c-3.6-10-3.3-20.8-2.6-31.3
				c1.6-24.4,6.3-50.8-8.9-72.1c-3.1,3.1-6.3,6.3-9.4,9.4c10.6,5.8,15.1,14.3,14.8,26.3c-0.3,11.6-3.6,23-4.9,34.5
				c-1.3,11.4,0,23.2,6.8,32.9c6.9,9.8,18.1,15.3,29.7,17.5c24.6,4.7,53.8-1.6,73.3-17.5c19.1-15.5,17.3-39.5,9.3-60.4
				c-2.6-6.8-5.9-13.4-8.6-20.1c-3.1-7.7-7.3-15.8-7.4-24.3c-0.1-7.1,3.8-15.2,9-20c0.5-0.5,1.2,0,0.4-0.2c0.3,0.1,1.2,0.7,1.7,1.2
				c3.2,2.8,5.2,7.5,6.9,11.3c3.7,8,15.6,1,11.8-6.9c-5-10.6-15.7-25.6-28.8-16.4c-5.6,4-9.5,11.2-12,17.4
				c-3.3,7.9-3.2,16.4-1.1,24.6c3.6,13.7,11,26.1,15.7,39.3c3.3,9.2,6.4,19.8,3.9,29.6c-2.8,10.9-12.4,17.5-22.1,22
				c-11.3,5.1-23.3,8.2-35.7,8.2c-10.7,0-23.1-1.8-31.3-9.2c-8.1-7.3-8.9-18.1-7.9-28.3c1.4-13,5.5-25.8,5-38.9
				c-0.6-15.1-8.3-27.1-21.6-34.3c-5.6-3-13.6,3.5-9.4,9.4c14.2,19.9,8.1,45.3,6.9,67.9c-1.1,19.2,1.7,45.4,21,55.3
				c14.1,7.3,32.1,6.8,47.5,5.3c18.9-1.8,37.7-5.9,55.2-13.2c14.2-5.9,32.5-15.6,33.9-32.9c0.5-6.9-9.6-9.2-12.8-3.5
				c-2.8,5.1-9,9.1-13.6,12.7c-5.5,4.3-11.3,8.4-16.4,13.3c-5.5,5.3,1.7,15.2,8.3,10.8c21.6-14.5,12.4-43.9,5.3-63.8
				c-4.6-13-9.9-25.7-14.2-38.7c-3.6-10.9-6.9-21.2-5.6-32.2c-0.2,1.6,0.1-0.4,0.1-0.6c0.2-0.8,0.3-1.6,0.5-2.3
				c0.4-1.4,0.7-2.1,0.7-2.2c0.5-1.1,1.2-2.2,1.9-3.2c-0.4,0.5,1.1-1.2,1.9-1.9c0.7-0.6,4.3-2.8,5.5-3.3c3-1.2,6.4-2,9.6-2.4
				c-1.6-3.9-3.2-7.8-4.8-11.7c-15,16-15.9,36.3-11.5,56.8c3.8,18.2,12.3,37.2,9.8,56.2c-2.8,21.5-24.3,34.4-43.6,39.3
				c-18.7,4.7-40,2.5-56-8.8c-20.1-14.1-21.2-38.6-13.3-60c-4.4-1.2-8.8-2.4-13.2-3.6c-6.2,20.6-5,43.9,8,61.7
				c12.1,16.6,31.3,26,51.7,26.8C206.2,57,229.1,48,245,33.5c13.3-12.1,19.3-28.7,21.2-46.1c2.3-21.7-0.8-43.8-1.5-65.5
				c-4.6,0-9.1,0-13.7,0c1.8,20.7,7.9,43.5,2.1,64c4.2-0.5,8.4-1.1,12.5-1.6c-0.6-1.3,0.2,1.4-0.1-0.3c-0.1-0.5-0.4-1-0.5-1.5
				c-0.4-1.3-0.8-2.5-1.1-3.8c-0.8-2.9-1.4-5.9-1.9-8.9c-1.4-8-2.3-16-2.7-24.1c-0.8-13.7-2.1-31.9,4.5-44.1
				c4.2-7.7-7.4-14.6-11.8-6.9c-7.3,12.6-8.7,28.5-8,42.8c0.7,14.5,3.4,30.5,11.7,42.8c3.4,5.1,13.5,3.9,12.8-3.5
				c-1.9-18.6-0.8-37.1-8.3-54.7c-2.6-6.1-13.6-3.1-12.8,3.5c2,15.4,8,29.1,14.9,42.8c6.6,13.1,13.3,26.4,14.4,41.3
				c4.5-0.6,9-1.2,13.5-1.8c-5.6-17.2-17.1-31.9-25-48.1c-3.4-6.9-6.5-14.5-6.4-22.2c0.1-7.9,5.3-13.2,11.7-17
				c-2.8-3.6-5.5-7.2-8.3-10.8c-14.9,13.4-16.2,32-11.6,50.4c4.1,16.1,12.7,32.6,11.7,48.9c-0.2,2.8-1.1,6.4-2.5,9
				c-1.9,3.5-4.3,6.3-7.6,8.8c-9.6,7.5-22.1,10.7-33.7,13.8c-20.1,5.3-42.8,8.9-63.1,2.9c-9.3-2.8-17.8-8.1-23-16.5
				c-6.9-11.2-7.6-24.7-6.7-37.5c-4.6,0-9.1,0-13.7,0c-0.8,12.2-0.6,24.7,2.7,36.5c3.3,12.1,9.8,22.6,17.6,32.3
				c2.8-3.6,5.5-7.2,8.3-10.8c-8.5-4.2-15.9-10.1-17.4-20c-1.4-9.1,1.6-18.7,4.3-27.3c6.1-19.7,15.5-41.2,8.9-62
				c-2.7-8.4-15.3-5-13.2,3.6c2.5,10.2-1.7,20.7-5.6,30c-4.5,10.6-9.7,21-12.7,32.2c-1.9,7.3,9,12.4,12.5,5.3
				c12.1-24.2,31.3-57.9,12.8-83.7C125.2-81.4,113.3-74.5,118.4-67.4L118.4-67.4z"/>
		</g>
	</g>
</g>
<g id="Layer_1">
	
		<path fill="none" stroke="#231F20" stroke-width="18.2854" stroke-linecap="round" stroke-linejoin="round" stroke-miterlimit="10" d="
		M115.2,66.3c0,19.4,9.9,63.7,7.6,82c36.4,0.7,100.2-7.9,135,0.3c6.7-21.2,10.6-68.4,9.4-91.2C257.5,57,132.9,64.3,115.2,66.3"/>
	
		<path fill="none" stroke="#231F20" stroke-width="18.2854" stroke-linecap="round" stroke-linejoin="round" stroke-miterlimit="10" d="
		M142.6,152.3c9.1,47.5,37,398.7,47.5,429.7c12.8-3.7,11-3.7,23.8,0c5.9-79.2,29.4-408.3,29.3-433.4"/>
	
		<path fill="none" stroke="#231F20" stroke-width="18.2854" stroke-linecap="round" stroke-linejoin="round" stroke-miterlimit="10" d="
		M243.2,55.4c12.4,0.5,58.5-11,40.2-66.2c-9.3-28.1-14.9-68.5,5.9-93.4c16.4-19.7,42.9-10.9,39.9,15.2"/>
	
		<path fill="none" stroke="#231F20" stroke-width="18.2854" stroke-linecap="round" stroke-linejoin="round" stroke-miterlimit="10" d="
		M267-76.3c-8.1-15.7-8.5-41.6,2.3-54.4c9.6-11.5,31.7-24.5,14.2-42.5"/>
	
		<path fill="none" stroke="#231F20" stroke-width="18.2854" stroke-linecap="round" stroke-linejoin="round" stroke-miterlimit="10" d="
		M254.2-118.4c-26.5-14.8-46.4-37.7-40.2-69.6c2.2-11.2,14.3-75.2-20.1-56.6"/>
	
		<path fill="none" stroke="#231F20" stroke-width="18.2854" stroke-linecap="round" stroke-linejoin="round" stroke-miterlimit="10" d="
		M188.3-240.9c27.4,16.5-4.7,44.1-5.5,64c-0.6,14,24.1,83.9-7.3,82.3"/>
	
		<path fill="none" stroke="#231F20" stroke-width="18.2854" stroke-linecap="round" stroke-linejoin="round" stroke-miterlimit="10" d="
		M184.7-134.8c-18,8.3-56.3-25.7-64.1-40.3c-13.5-25.2,26.5-26,22.1-7.2"/>
	
		<path fill="none" stroke="#231F20" stroke-width="18.2854" stroke-linecap="round" stroke-linejoin="round" stroke-miterlimit="10" d="
		M115.2-184.2c-4.1,14.4-10,21.5-4.2,36.6c4.2,10.9,13,18.3,16.6,29.3c14.8,45.4,0.4,43.9-23.4,32.9"/>
	
		<path fill="none" stroke="#231F20" stroke-width="18.2854" stroke-linecap="round" stroke-linejoin="round" stroke-miterlimit="10" d="
		M142.6,64.5c-14.6-7.3-29.7-16.4-35.2-27.4c-8.7-17.5,0.4-36.6,5.9-64c7-34.8-6.4-59.8-18.3-69.5c-13.7-11.2-49.3,3.6-45.7,21.9"/>
</g>
<g id="Layer_3">
	
		<path opacity="0" fill="none" stroke="#2C6F91" stroke-width="21.9425" stroke-linecap="round" stroke-linejoin="round" stroke-miterlimit="10" d="
		M129.2,74.9c-2.7,8.6,5,17.6,1.3,25.8c5.8-9,12.8-19.2,21.1-25.1c-0.5,16.3-16.1,35.3-26.8,47.2c14.7-16.9,30.3-35.7,48.9-48.6
		c-10,19.2-25.3,36.1-37.8,54.1c19.8-24.5,46.7-58.2,75.6-70.7c-16.4,30-47.9,50.6-66.9,77.9c23.5-25.9,53.2-57.2,84.2-74.2
		c-15.4,30.9-48.9,55.3-72.9,79.6c26.2-22,71.6-57.4,103.8-69.6c-10.3,21.2-53.4,49.9-71.4,64.2c32.4-9.3,50.8-52.8,77.9-52.1
		c-7.9,22.5-29.4,38.2-44.6,55.8c14-10.5,27.2-23.6,41.6-32.4c-5.6,7.3-13.7,15-18.4,23.7c6.6,5.6,16.3,4.7,24-0.1"/>
	
		<path opacity="0" fill="none" stroke="#2C6F91" stroke-width="21.9425" stroke-linecap="round" stroke-linejoin="round" stroke-miterlimit="10" d="
		M162.7,157.8c-2,0.3-9.8,4.1-14.1,7.1c3.2-5.8,8-10.2,13.9-12.5c-1.3,9-8.3,14.2-12,22.1c8.7-7.9,16.6-17.6,26.3-24.1
		c-8.7,15.1-20.5,28.8-30.5,42c16.5-10.9,31.9-26.9,49.4-37.8c-16.4,19.9-32.9,39.8-48.8,60.1c25.9-13.3,44.4-42,70.6-56.4
		c-7.8,26.4-44.5,51.3-61.5,74.4c29.8-21.3,49.9-61.4,83.2-78.3c-20,37.1-50.2,67.4-74.3,101.5c26.6-28.2,51.6-59.2,75.9-89.1
		c-28.5,41.1-76.3,92.2-80,136.1c26.7-30.8,48.7-83.6,84.7-104.1c-16.2,49.2-61.5,84.6-84.1,130.3c21.6-29.9,46.9-77.7,77.4-98
		c-15.5,22.8-29.8,46.5-45.1,69.5c-9.8,14.7-26,49.1-25.6,67c14.6,11,34.7-68.3,66.3-85.6c-1.9,42.4-61.5,90.5-55.4,133.2
		c19.8-15.3,17.4-49.2,38.7-63.1c8.8,22.7-34,73.5-42.4,96.1c17.5-14.6,25.6-47.1,47.7-55.9c-4.8,32-28.7,61-39.4,91.5
		c12.3-7.2,26.1-33,41-30c2.4,23.3-24.4,26.5-35.8,45.6c8.8-13.5,22.5-5.4,36.6-13.4c-1.5,24.3-29.8,6.6-32.9,29.3
		c-1.4,10.1,13,54.6,9.9,65.3c-1.1-3.7,7.7-57.1,7.1-61.7"/>
	
		<path opacity="0" fill="none" stroke="#2C6F91" stroke-width="21.9425" stroke-linecap="round" stroke-linejoin="round" stroke-miterlimit="10" d="
		M122.5,27.9c-0.6,2.1,0.4,3.3-1.4,5.1c-1.2-8.2-2.6-16.5-2.4-24.9c3.8,10,15.9,36.8,22.7,44.8c-1.4-10.4-13.8-37-16.9-47
		c10.2,11.4,16.2,27.8,26.1,39.9c-3.9-28.1-30.1-52.3-33.3-81.9c18.6,20.9,31.7,69.4,52.2,89.1c-13.6-28.3-44.5-79.2-46.7-110.6
		c18.5,29.9,40.9,77.1,60.1,106.9c-11.1-27.1-63.5-90.2-54.7-119.5c27.6,33,42.2,78.1,69.3,112.3c-16.1-41.8-39.9-81.3-56.2-123.4
		c19.5,34.1,54.3,99.2,80.6,128.1c-7.8-36.2-89.7-176-103.3-197.8c16.5,51.2,23.6,47.5,13.1-2c48.5,51.7,69.9,140.6,109.7,198.6
		c-6.5-28.1-65.7-150.1-80.1-178.6c43.3,47.5,54.9,120.6,93,172c-26.2-62-62.3-120.4-84.4-184.1c35,48.3,55,111.9,76.4,167.2
		c-15.5-29.8-72.2-173.4-70.7-209.3C241.7-78.9,252.9,30.1,241.4-6.8c-10.6-34-33.3-192.6-37.8-228c30.8,45.3-4,96.3-11,50
		c12.6,17.4,30.9,51.7,37.2,72.1c9.4,30.2,28,116,43.2,143.6C270.2-9.1,241.6-97.6,232-136.6c12.2,34.8,12.5,54.7,13.4,27.2
		c19.3,24.9,30.4,100.6,37.4,130.7"/>
</g>
</svg>
