<?xml version="1.0" encoding="utf-8"?>
<!-- Generator: Adobe Illustrator 16.0.0, SVG Export Plug-In . SVG Version: 6.00 Build 0)  -->
<!DOCTYPE svg PUBLIC "-//W3C//DTD SVG 1.1//EN" "http://www.w3.org/Graphics/SVG/1.1/DTD/svg11.dtd">
<svg version="1.1" xmlns="http://www.w3.org/2000/svg" xmlns:xlink="http://www.w3.org/1999/xlink" x="0px" y="0px" width="400px"
	 height="400px" viewBox="0 0 400 400" enable-background="new 0 0 400 400" xml:space="preserve">
<g id="Layer_1">
	<path fill="none" stroke="#000000" stroke-width="4" stroke-miterlimit="10" d="M285.416,85.333
		c-10.333-2.167-28.107,0.215-36.276,1.259c-18.59,2.375-37.39,2.553-55.95,5.212c-21.188,3.035-42.551,11.05-61.688,20.556
		c-17.296,8.591-35.383,21.793-42.944,40.18c-4.705,11.441-6.929,25.042-9.24,37.04c-2.4,12.457-4.131,24.82-5.304,37.455
		c-2.316,24.943-2.771,49.112,5.676,73.062c6.254,17.734,16.794,34.881,36.531,39.559c16.433,3.896,37.125,3.084,53.824,1.979
		c28.113-1.859,54.967-9.188,78.856-24.29c27.208-17.199,52.581-39.049,72.489-64.379c20.484-26.062,42.624-64.761,29.544-98.674
		c-7.083-18.365-21.625-37.649-36.447-50.628c-8.507-7.45-18.064-15.779-29.137-18.298"/>
	<path fill="none" stroke="#000000" stroke-width="4" stroke-miterlimit="10" d="M227,163c-0.247-5.403-17.581,6.272-17.781,6.444
		c-8.835,7.606-14.079,20.26-12.223,31.847c1.503,9.383,13.141,11.986,21.356,13.724c10.874,2.3,21.429-1.379,29.738-8.672
		c11.65-10.226,13.655-23.35,3.243-35.276c-5.463-6.258-11.138-7.452-18.666-8.66c-3.189-0.512-4.79,0.061-8.001,0.26"/>
	<path fill="none" stroke="#000000" stroke-width="7" stroke-linecap="round" stroke-linejoin="round" stroke-miterlimit="10" d="
		M207.566,186.207c3.107-4.93,4.993-9.974,9.261-14.284c-2.539,3.758-6.113,8.449-9.939,10.811
		c1.813-5.161,7.429-10.193,11.573-13.595c-4.227,4.355-8.645,6.964-13.086,11.111c4.661-9.313,15.572-10.778,24.625-15.125
		c-5.845,8.571-18.068,9.99-21.429,20.708c6.915-7.368,11.407-13.794,18.429-21.208c-4.879,3.161-7.706,6.929-11.434,11.308
		c-4.448,5.225-10.235,10.668-13.941,16.442c1.625-11.875,8.347-13.603,13.993-19.104c-0.611,3.783-3.938,7.63-5.704,10.949
		c-2.875,5.405-5.029,11.248-8.273,16.45c-2.891-6.545,6.854-13.646,10.619-19.366c4.138-6.285,8.933-12.641,14.652-17.578
		c-5.354,7.54-10.852,14.835-15.436,22.895c-1.969,3.46-5.929,8.544-6.562,12.549c8.792-11.077,11.86-26.374,23.97-34.979
		c-1.711,6.133-7.567,11.991-10.763,17.441c-4.553,7.769-22.496,20.243-12.246,26.118c9.666-13.629,14.882-31.19,28.625-41.875
		c-2.312,5.479-6.978,8.099-10.312,13.004c-5.642,8.298-10.417,17.099-15.722,25.604c6.688-14.564,14.251-27.609,26.107-38.55
		c-6.843,12.899-18.383,23.5-24.421,37.033c2.347-2.035,3.715-6.685,5.155-9.521c2.771-5.458,5.966-10.633,9.599-15.565
		c2.985-4.053,7.69-10.422,12.97-11.67c-0.123,2.101-4.226,12.202-6.993,9.62c-4.41-4.114,3.23-9.077,6.768-8.961
		c6.04,0.197,9.844,7.768,1.871,8.975c-3.988,0.604-3.336-2.162-0.896-4.576c2.118-2.095,5.868-3.506,8.395-1.281
		c7.577,6.674-4.986,17.64-7.481,10.612c-2.727-7.679,10.552-13.914,11.99-3.15c0.321,2.402-1.974,8.942-5.744,6.891
		c-2.595-1.412,0.166-7.35,2.113-8.411c7.467-4.069,5.641,14.752-0.172,17.429c-2.43-2.042,0.799-13.672,4.854-11.869
		c5.114,2.274-1.247,13.745-4.975,14.461c-0.397-2.128,0.95-7.655,3.824-8.025c3.838-0.494,2.97,6.225,1.903,8.411
		c-2.04,4.185-9.235,7.137-13.673,7.512c-0.601-2.433,2.41-6.809,5.263-6.35c5.497,0.886-1.538,10.298-3.684,12
		c-4.123,3.271-8.033,1.423-6.963-4.238c0.764-4.039,7.256-6.647,6.86-1.105c-0.322,4.531-8.18,9.537-12.285,7.694
		c-5.684-2.551-1-13.728,3.003-9.336c3.178,3.485-2.571,6.934-5.273,7.636c-2.291,0.595-6.66,2.399-8.832,1.354
		c-4.163-2.004-4.482-8.812,0.211-10.867c4.514-1.976,7.463,1.466,4.627,5.239c-2.656,3.533-8.144,4.507-11.396,1.349
		c-10.735-10.427,23.588-13.696,8.532-1.906c-3.922,3.07-11.907,4.394-12.249-2.445c-0.401-8.031,14.242-18.396,21.734-18.021
		c11.247,0.562-0.02,18.318-4.925,20.831c-13.452,6.89-7.91-17.811-4.098-23.164c2.699-3.789,13.104-12.085,13.214-1.879
		c0.061,5.596-8.077,22.808-15.117,23.537c-0.407-9.45,9.24-25.606,17.67-30.199c-2.734,11.278-11.284,21.556-15.309,32.532
		c4.001-2.848,6.332-10.431,8.639-14.623c2.513-4.567,6.613-13.457,11.982-15.399c-0.641,4.517-5.007,9.896-7.198,13.75
		c-2.889,5.08-5.555,10.678-9.134,15.331c5.871-7.716,10.695-21.136,19.796-25.545c-3.877,9.11-12.661,16.734-15.649,26.076
		c3.667-3.97,6.674-8.649,10.094-12.843c1.975-2.423,4.787-7.223,8.09-7.625c-0.63,4.092-3.748,8.67-5.789,12.226
		c-1.361,2.373-4.338,5.282-4.576,8.02"/>
</g>
<g id="Layer_2">
	<path fill="none" stroke="#B76C42" stroke-width="16" stroke-linecap="round" stroke-linejoin="round" stroke-miterlimit="10" d="
		M200,100.333c-6.893,1.86-18.751,2.378-25.667,4.667c-15.479,5.122-32.254,10.539-45.667,20
		c-10.024,7.071-25.558,15.395-32.333,25.667c-3.327,5.044-9.921,51.296-12.667,56.667c-0.911,1.781,11.973-36.03,10.454-34.664
		c2.05-4.687,5.8-8.565,8.966-12.511c6.945-8.655,14.51-15.54,23.439-22.089c7.388-5.418,14.55-11.073,22.571-15.564
		c5.534-3.098,11.448-5.353,17.102-8.176c1.344-0.671,2.282-0.68,3.092-1.87c-5.645-1.04-13,1.36-18.327,3.245
		c-11.243,3.977-21.772,10.771-30.61,18.707c-11.854,10.644-17.091,25.143-19.583,40.529c-1.244,7.683-3.884,15.636-4.062,23.395
		c3.39-2.001,5.557-10.88,6.913-14.294c3.407-8.578,7.079-16.667,11.497-24.802c2.869-5.28,9.33-13.847,9.422-20.105
		c-5.647,2.579-9.318,11.342-11.934,16.414c-8.426,16.337-12.481,34.27-14.3,52.488c-1.243,12.449-1.344,25.117-1.315,37.626
		c0.013,5.562-0.301,11.183,0.573,16.698c-2.964-11.63-3.243-23.906-5.141-35.735c-0.645-4.022-1.197-15.843-6.097-17.346
		c-1.043,1.868-0.627,4.365-0.718,6.461c-0.246,5.651-2.51,12.292-2.943,17.929c-1.052,13.688-2.541,26.829,0,40.333
		c0.636,3.377,11.779,49.803,19.333,48c1.457-0.348-9.591-33.979-10.325-36.111c-5.283-15.334-6.328-32.488-6.011-48.604
		c0.34-17.276,4.907-34.881,12.698-50.295c3.506-6.937,6.375-15.635,10.983-21.918c-0.615,2.58-2.646,5.875-3.711,8.205
		c-4.488,9.82-8.48,19.728-10.781,30.328c-4.548,20.95-5.096,43.773-3.149,65.076c1.454,15.918,3.927,42.611,11.629,56.653
		c2.009,3.662,6.974-0.809,9.954,2.017c0.563-4.39-5.953-10.594-8.288-14.002c-6.042-8.816-12.871-19.942-12.734-30.973
		c5.248,6.445,7.424,17.356,11.135,25.023c3.158,6.524,5.77,16.246,11.291,21.202c-0.536-4.677-4.684-9.807-6.36-14.235
		c-6.594-17.426-11.331-36.127-12.703-54.693c-1.936-26.195,2.996-53.036,13.43-77.089c3.4-7.837,7.32-15.47,11.33-23.008
		c1.334-2.508,3.081-5.208,3.622-8.023c-10.37,9.13-15.437,25.486-19.395,38.122c-3.094,9.878-5.425,19.801-7.024,30.024
		c-0.824,5.271-1.177,11.081-2.866,16.154c-0.684-9.563-1.635-18.814-0.365-28.375c0.993-7.471,2.373-14.97,4.389-22.237
		c0.811-2.924,1.961-5.749,2.219-8.779c-5.087,2.428-7.496,12.15-9.315,16.836c-2.842,7.321-4.822,14.775-6.969,22.286
		c0.091-4.149,2.018-8.605,3.302-12.485c4.797-14.496,11.579-26.679,20.874-39.021c17.026-22.608,39.41-39.136,64.639-51.567
		c4.73-2.331,9.635-5.383,14.625-7.126c-3.001,2.372-6.815,4.045-10.135,5.943c-8.093,4.63-15.845,9.49-23.349,15.049
		c-9.81,7.268-18.785,15.713-26.7,25.008c-4.944,5.806-12.22,13.268-14.318,20.899c3.62-0.709,8.789-7.953,10.84-10.15
		c13.92-14.912,28.229-28.59,44.749-40.677c13.281-9.718,27.681-18.312,42.498-25.498c4.801-2.328,19.26,4.125,24.626,3.374
		c-2.891,3.758-16.6-3.851-20.583-1.482c-22.936,13.635-46.235,26.504-65.21,45.701c-10.973,11.101-21.468,24.368-28.677,38.26
		c-2.404,4.631-6.485,11.714-5.597,17.194c3.039-0.652,5.569-4.734,7.416-7.008c6.918-8.521,13.786-16.939,21.242-25.014
		c21.8-23.608,56.537-42.929,83.743-59.984c-25.474,17.267-59.182,33.725-80.031,56.769c-14.273,15.776-26.291,33.153-35.698,52.24
		c-3.4,6.898-7.253,14.498-8.598,22.126c2.062-2.372,3.646-5.142,5.293-7.8c14.961-24.147,32.303-47.449,52.559-67.456
		c9.228-9.115,19.101-16.917,29.723-24.319c0.746-0.52,17.612-14.071,21.166-12.246c-3.28,3.212-7.359,5.857-10.995,8.604
		c-11.946,9.025-23.68,18.156-34.332,28.724c-28.725,28.501-48.437,62.002-59.025,101.042c3.577-2.164,5.742-5.546,6.495-10.146
		c5.31-10.553,10.981-20.91,17.012-31.071c13.466-22.656,28.451-42.959,47.056-61.611c18.064-18.11,37.191-34.292,59.708-46.522
		c1.771-0.961,28.29-16.026,30.046-10.329c-3.409,4.229-8.756,7.176-13.048,10.327c-13.05,9.581-25.636,19.768-37.635,30.642
		c-19.558,17.726-51.099,36.226-65.363,58.694c-11.43,17.425-17.735,36.066-24.667,55.666c-2.422,5.122,8.753,10.168,9.557,15.523
		c7.096-4.797,10.667-16.233,14.389-23.513c12.747-24.927,27.208-49.427,44.776-71.291c13.647-16.984,29.239-32.897,46.681-46.014
		c7.042-5.332,14.438-10.114,22.186-14.348c3.148-1.691,10.691-6.462,15.066-6.065c-7.761,7.653-18.781,12.881-27.661,19.029
		c-20.45,14.159-39.399,30.468-56.7,48.335c-37.307,38.528-66.91,88.166-81.723,139.849c11.082-34.637,24.679-67.612,43.812-98.716
		c15.994-26,35.125-49.927,58.001-70.208c10.985-9.74,22.702-18.642,35.4-26.041c5.454-3.177,11.638-7.037,17.978-8.341
		c-0.213,3.046-19.816,14.547-19.613,14.401c-25.289,18.245-50.732,38.513-70.407,62.917c-17.18,21.309-33.037,46.232-42.7,71.953
		c-2.361,6.543-4.511,13.154-6.45,19.833c-0.216,0.781-3.151,8.53-1.347,10.115c5.075-5.541,8.304-13.85,11.75-20.368
		c11.08-20.956,22.902-41.143,37.315-60.034c17.639-23.122,37.969-44.104,61.63-61.107c8.084-5.923,16.552-11.231,25.403-15.925
		c5.103-2.622,30.382-16.132,36.656-15.982c-3.475,4.762-28.584,17.241-33.173,20.25c-19.717,12.929-38.186,26.785-54.676,43.761
		c-26.691,27.478-51.303,59.96-66.296,95.439c-4.191,10.059-7.9,20.291-11.127,30.697c-2.227,2.775-2.832,5.517-1.815,8.224
		c5.172-7.92,8.38-17.197,12.47-25.672c12.23-25.343,27.273-49.463,44.651-71.592c16.083-20.48,34.305-39.726,54.929-55.705
		c14.562-11.283,47.541-32.962,65.371-38.402c0.784,1.53,1.725,12.953,2.666,12.333c-15.843,10.434-60.125,26.477-74.457,38.959
		c-22.867,19.919-44.105,44.596-60.381,70.15c-10.969,17.223-21.223,37.175-26.247,57.14c4.902-4.56,7.913-12.563,11.107-18.202
		c11.361-20.055,24.311-39.175,38.899-57.03c17.29-21.161,36.617-41.26,59.077-56.986c6.778-4.745,13.799-9.098,21.062-13.057
		c-0.018,0.009,10.473-6.203,12.282-4.999c-22.457,17.414-46.309,32.257-66.492,52.625c-28.498,28.76-51.922,62.889-66.525,100.658
		c1.733,0.07,8.4-14.221,8.675-14.715c11.279-20.283,23.661-39.793,37.888-58.158c18.164-23.449,38.895-45.103,62.873-62.679
		c12.482-9.149,27.134-19.848,42.251-24.327c-30.289,20.846-59.764,40.832-84.084,68.755
		c-18.418,21.146-47.331,59.505-57.926,85.865c3.035-1.463,18.402-26.969,19.91-29.288c9.417-14.477,19.157-28.678,30.118-42.046
		c14.208-17.328,30.008-33.322,47.689-47.123c12.782-9.976,28.556-22.502,44.719-26.547c-1.933,3.626-9.852,7.664-12.686,9.637
		c-21.518,14.985-41.543,32.903-59.249,52.227C223.487,246.731,201.654,277.1,186,302.667c0.353-1.755,10.021-13.374,10.37-13.958
		c7.735-12.992,16.24-25.53,25.625-37.388c24.527-30.987,62.308-61.159,98.338-77.988c-6.259,6.587-21.565,15.631-29.258,20.562
		c-19.582,15.81-37.437,34.083-53.624,53.332c-13.511,16.066-28.332,34.774-37.008,54.051c15.799-20.282,29.278-41.744,47-60.643
		c13.455-14.349,28.549-27.219,44.58-38.608c8.77-6.23,18.104-12.786,28.303-16.476c0.553,2.772-14.896,13.264-16.257,14.397
		c-13.896,11.58-27.349,23.654-39.758,36.837c-20.029,21.28-36.205,44.771-52.757,68.63c1.351-3.298,3.812-6.536,5.77-9.413
		c7.662-11.264,15.841-22.311,24.68-32.678c19.263-22.594,42.491-45.093,68.904-59.158c0.287,3.098-15.272,15.216-15.363,15.299
		c-14.07,12.926-27.71,26.661-40.072,41.244c-10.188,12.019-18.585,25.372-28.409,37.611c11.662-16.779,26.057-32.158,40.985-46.023
		c10.84-10.067,22.281-19.816,34.621-28.016c1.015-0.675,13.256-9.605,15.252-7.211c-7.816,10.35-18.39,19.176-27.175,28.663
		c-12.445,13.441-24.084,27.447-35.832,41.478c10.035-9.23,19.03-19.4,29.499-28.226c6.516-5.493,13.311-10.69,20.27-15.608
		c4.789-3.384,10.26-7.845,16.081-9.382c-0.329,2.369-1.976,3.666-3.83,5.609c-4.157,4.357-8.369,8.671-12.556,13.002
		c-9.68,10.015-18.801,20.729-28.771,30.418c6.128-8.203,13.901-15.26,21.793-21.721c6.068-4.968,14.017-13.49,21.878-15.36
		c-2.454,4.725-7.649,8.728-11.228,12.673c-3.432,3.782-6.817,8.519-11.112,11.386c1.602-4.173,5.964-7.853,8.722-11.387
		c4.577-5.866,9.709-11.611,13.62-17.948c3.125-5.062,6.452-10.782,8.089-16.541c2.054-7.228-0.115-14.005-0.392-21.224
		c-0.349-9.09,3.114-16.951,4.722-25.65c1.604-8.673,12.876-19.242,10.634-27.586c-2.629-9.782-11.935-18.746-18.333-27
		c-8.504-10.97-32.289-15.161-44.661-19.591c-12.081-4.326-24.927-5.898-37.621-7.333c-10.688-1.208-19.152-0.204-29.656,1.67
		c2.069,0.551,5.045-0.198,7.271-0.329c5.428-0.317,10.818-0.756,16.237-1.174c17.607-1.36,38.679-4.718,54.601,4.246
		c11.933,6.718,18.735,17.821,26.163,28.845c6.262,9.294,11.247,19.072,16.945,28.614c0.822-10.339-11.617-22.498-17.612-29.622
		c-5.949-7.068-12.414-13.307-19.426-19.284C292.244,105.301,278.369,96.743,276,92c4.033-1.517,23.355,8.105,25.667,10.667
		c11.652,12.916,23.502,34.298,28.719,51.317c4.82,15.725,2.424,34.085-1.354,49.782c-1.756,7.298-4.765,13.853-8.302,20.438
		c-2.198,4.093-7.236,10.357-7.032,15.073c3.247-1.226,6.192-5.125,8.355-7.849c-12.927,16.22-21.711,34.199-36.386,48.904
		c-17.518,17.553-58.375,38.408-81.334,47.334c-18.419,7.16-22.888,3.651-42.917,2.098c-15.446-1.198-29.67-7.807-44.97-9.397
		c3.501,3.548,9.939,3.903,14.599,4.382c11.418,1.172,22.431,1.277,33.641-1.609c14.456-3.722,27.748-10.219,40.32-18.14
		c9.708-6.117,18.854-15.255,29.457-19.693c-2.479,6.324-9.69,11.291-14.781,15.353c-8.558,6.827-17.416,13.086-27.749,16.941
		c-14.729,5.496-30.674,8.796-46.417,8.753c-8.166-0.021-18.469-0.591-25.79-4.656c-15.895-8.827-25.917-26.801-28.503-44.316
		c-1.933-13.089-0.645-26.32,1.12-39.328c0.732-5.392,1.496-10.74,2.746-16.048c0.57-2.418,1.734-5.122,1.075-7.569
		c-7.125,1.832-8.257,19.217-8.846,24.914c-1.236,11.962,1.034,23.417,3.653,35.076c3.175,14.132,9.949,28.65,20.228,39.02
		c13.222,13.337,27.617,15.023,45.917,10.529c21.243-5.218,43.317-14.216,62.898-24.019c25.471-12.751,47.257-31.974,57.911-59.092
		c6.763-17.213,9.852-36.977,7.394-55.402c-3.148-23.614-22.174-41.535-46.431-39.444c-20.535,1.77-40.626,14.074-52.222,30.965
		c-3.913,5.699-7.759,12.472-8.097,19.566c-0.577,12.133,8.552,23.456,17.811,30.207c29.197,21.29,82.702,0.437,75.88-39.813
		c-2.499-14.748-15.137-26.968-28.906-31.594c-6.861-2.305-14.178-2.675-21.244-1.054c-18.224,4.182-28.91,19.561-31.113,37.548
		c-2.681,21.889,8.404,49.579,31.563,55.587c17.757,4.607,37.226-2.592,50.841-14.118c25.658-21.721,22.951-63.787,19.939-93.942
		c-0.522-5.232-1.574-10.246-2.382-15.407c-0.474-3.027-0.976-6.913,1.005-9.535c6.872-9.091,20.215,7.907,24.143,12.831
		c9.71,12.174,28.797,24.819,30.227,40.407c2.103,22.928-8.163,47.411-21,66c-11.651,16.872-37.372,28.345-53.94,40.28
		c-6.144,4.426-12.301,8.845-18.78,12.773c-4.432,2.688-9.679,4.675-13.647,8.034c6.762-2.851,12.898-8.021,18.736-12.377
		c10.132-7.561,19.751-16.024,28.631-25.016c23.36-23.653,39.34-51.99,42.907-85.504c2.108-19.813-1.38-40.298-16.479-54.211
		c-19.619-18.078-46.722-20.17-72.16-20.002c-27.909,0.184-57.787,8.149-81.123,23.515c-20.071,13.216-33.044,30.884-42.122,52.835
		c-14.312,34.606-29.128,70.672-26.994,109.046c0.658,11.824,6.593,2.318,9.235-3.309c7.181-15.294,12.417-33.177,22.378-46.884
		c-5.969,10.488-11.236,21.26-16.314,32.214c-4.142,8.934-7.703,17.762-10.334,27.261c-0.789,2.849-2.162,6.196-1.833,9.149
		c2.152-1.53,3.969-5.276,5.184-7.355c3.134-5.367,6.125-10.851,9.601-16.013c1.781-2.645,7.576-12.327,11.729-11.72
		c1.992,6.435-2.947,16.232-4.756,22.277c-1.399,4.674-2.917,9.265-3.912,14.05c-0.428,2.054-2.754,9.211-1.286,11.323
		c3.97,5.713,22.418-27.135,29.959-27.296c1.167,2.75-1.399,7.104-2.386,9.611c-2.043,5.194-9.602,17.528-5.212,22.455
		c5.485-0.71,10.644-7.483,14.5-10.956c1.233-1.11,6.578-7.104,8.685-6.211c4.072,1.725-2.896,11.909-4.51,14.465
		c-7.104,11.24-14.796,9.287-26.438,7.539c-3.792-0.569-22.231-0.89-11.114,5.971c5.299,3.271,15.158,5.306,21.128,5.054
		c9.275-0.394,18.175,1.568,27.333,0c25.828-4.421,48.86-20.045,73.333-29"/>
	<g>
		<g>
			<path fill="#A56346" d="M77.202,195.012c-1.449,6.492-1.504,12.883-1.382,19.482c0.059,3.169,0.045,4.544-0.204,6.358
				c-0.419,3.051-1.077,6.073-1.688,9.09c-2.596,12.794-3.365,25.137-1.965,38.11c1.301,12.057,3.128,25.268,9.046,36.041
				c2.346,4.272,5.895,7.745,8.212,12.058c1.594,2.965,3.314,5.514,5.506,8.122c1.394,1.659,3.435,2.79,5.152,4.097
				c2.547,1.938-0.092-0.197-0.498-0.8c8.635-5.047,17.27-10.094,25.904-15.141c-2.882-3.959-5.6-6.685-9.715-9.382
				c-6.846-4.487-16.551-1.398-20.523,5.382c-4.449,7.595-1.209,15.713,5.381,20.522c8.855,6.462,17.987,12.508,29.477,11.975
				c1.859-0.206,3.715-0.446,5.566-0.719c1.841-0.261,2.121-0.312,0.84-0.155c1.846,0.121,2.19,0.005,1.035-0.348
				c1.711,0.246,3.417,0.77,5.097,1.167c6.396,1.512,13.077,1.362,19.6,1.182c21.811-0.603,43.685-5.187,63.857-13.498
				c19.786-8.152,39.137-19.944,55.684-33.524c3.791-3.111,7.197-6.642,10.312-10.424c1.266-1.537,2.458-2.938,3.952-4.264
				c1.26-1.027,1.173-0.985-0.26,0.127c1.001-0.77,2.028-1.508,3.047-2.255c7.713-5.652,16.9-12.123,18.828-22.229
				c1.531-8.023-2.127-16.155-10.477-18.451c-7.398-2.035-16.918,2.439-18.451,10.477c-0.371,1.539-0.152,1.247,0.655-0.878
				c-0.822,1.341-0.618,1.191,0.613-0.449c-0.953,1.225-2.149,2.267-3.303,3.294c-0.633,0.544-1.276,1.074-1.933,1.59
				c1.345-1.044,1.333-1.051-0.037-0.02c-1.359,1.008-2.73,2.001-4.085,3.017c-7.173,5.378-12.186,12.311-18.856,18.214
				c-4.911,4.346-13.637,9.629-20.841,14.069c-8.116,5.001-16.168,9.817-24.916,13.656c1.479-0.649-3.351,1.271-3.938,1.491
				c-2.042,0.765-4.11,1.454-6.181,2.135c-4.817,1.586-9.721,2.912-14.641,4.136c-9.819,2.443-17.134,3.23-27.265,3.72
				c-4.6,0.222-9.208,0.189-13.809,0.013c1.002-0.084,0.568-0.239-1.304-0.464c-1.117-0.286-2.242-0.539-3.374-0.76
				c-3.572-0.749-7.043-0.967-10.641-0.522c-1.87,0.225-3.735,0.486-5.595,0.783c1.341-0.156,1.091-0.168-0.753-0.037
				c2.98-0.138-3.428-1.263-1.171-0.225c-4.2-1.933-7.881-5.02-11.592-7.728c-5.047,8.635-10.094,17.27-15.142,25.904
				c-0.491-0.353-0.84-0.813-1.048-1.382c4.802,6.597,12.934,9.827,20.523,5.382c6.713-3.933,9.956-13.732,5.381-20.522
				c-1.49-2.212-3.031-4.328-5.066-6.054c-1.345-1.076-2.713-2.121-4.106-3.134c-2.585-1.904,0.086-0.062,0.443,0.496
				c-2.675-4.186-5.131-8.303-8.064-12.351c-0.361-0.498-2.741-4.857-2.029-3.042c-0.957-2.438-1.495-5.126-2.123-7.662
				c-1.337-5.398-2.12-10.229-2.562-14.329c-1.175-10.885-0.597-20.187,1.443-30.246c1.209-5.963,2.291-12.074,2.581-18.155
				c0.138-2.893-0.035-5.81-0.082-8.702c-0.048-3.036,0.032-4.575,0.409-6.264c1.78-7.973-2.311-16.205-10.477-18.452
				C88.068,182.449,78.984,187.032,77.202,195.012L77.202,195.012z"/>
		</g>
	</g>
	<g>
		<g>
			<path fill="#A56346" d="M93.048,194.096c-5.813,7.993-7.28,18.062-8.461,27.6c-1.165,9.409-1.834,19.096-1.197,28.557
				c1.396,20.718,9.531,42.7,25.333,56.787c17.158,15.294,39.27,16.3,60.772,11.387c21.884-4.999,43.725-11.504,63.743-21.808
				c7.265-3.739,9.346-13.757,5.382-20.523c-4.293-7.328-13.253-9.123-20.522-5.381c-15.143,7.795-32.125,12.536-49.287,16.96
				c-8.995,2.318-16.143,4.062-25.27,3.581c-1.832-0.181-1.913-0.164-0.245,0.051c-0.906-0.147-1.806-0.324-2.701-0.53
				c-1.745-0.372-3.438-0.94-5.116-1.537c3.121,1.111-1.675-0.923-2.286-1.263c-0.549-0.306-4.875-3.376-2.264-1.316
				c-2.411-1.9-4.518-4.159-6.495-6.496c1.98,2.34-1.33-1.996-1.654-2.493c-1.033-1.582-1.938-3.244-2.829-4.909
				c-3.584-6.701-5.971-15.761-6.562-22.509c-0.707-8.072,0.113-16.175,0.766-24.222c0.043-0.532,0.686-6.184,0.283-3.294
				c0.273-1.963,0.673-3.901,1.112-5.833c0.128-0.563,1.908-5.939,0.726-3.15c0.688-1.624,1.642-3.096,2.675-4.517
				c4.82-6.626,1.143-16.701-5.381-20.522C105.984,184.271,97.847,187.499,93.048,194.096L93.048,194.096z"/>
		</g>
	</g>
	<g>
		<g>
			<path fill="#A56346" d="M81.869,172.654c3.319,13.341,1.806,28.786,3.335,43.431c1.394,13.349,4.874,26.535,9.486,39.117
				c9.123,24.891,24.222,49.176,48.405,61.75c7.255,3.772,16.242,1.926,20.523-5.382c3.977-6.788,1.866-16.754-5.381-20.522
				c-2.463-1.281-4.829-2.683-7.138-4.225c-0.228-0.152-3.814-2.878-1.375-0.942c-1.078-0.855-2.105-1.774-3.131-2.691
				c-2.062-1.843-3.967-3.856-5.819-5.907c-0.933-1.034-1.813-2.113-2.694-3.19c1.931,2.362-0.898-1.252-1.03-1.435
				c-3.316-4.603-6.136-9.552-8.706-14.602c-0.648-1.273-1.254-2.568-1.86-3.862c-0.082-0.173-1.968-4.482-0.78-1.654
				c-1.104-2.628-2.095-5.302-3.052-7.985c-3.67-10.291-6.937-22.306-7.798-32.122c-1.406-16.008-0.135-31.99-4.056-47.753
				c-1.973-7.932-10.721-12.603-18.452-10.477C84.322,156.41,79.897,164.726,81.869,172.654L81.869,172.654z"/>
		</g>
	</g>
	<g>
		<g>
			<path fill="#A56346" d="M100.202,252.987c5.219,13.948,14.634,25.335,25.962,34.843c11.74,9.854,25.014,18.245,39.934,22.242
				c31.303,8.387,63.915-3.229,92.473-15.453c7.523-3.22,9.123-14.137,5.382-20.523c-4.511-7.699-13.006-8.599-20.522-5.381
				c-1.35,0.578-2.44,1.027-5.233,2.15c-3.039,1.222-6.107,2.368-9.189,3.479c-6.277,2.263-12.674,4.177-19.157,5.749
				c-6.371,1.546-10.424,2.133-15.634,2.51c-3.251,0.235-6.514,0.22-9.77,0.099c-1.617-0.061-3.228-0.219-4.837-0.378
				c2.714,0.27-2.454-0.472-2.388-0.459c-6.049-1.157-10.059-2.753-14.477-5.099c-5.17-2.745-10.039-6.049-14.712-9.562
				c2.029,1.526-1.999-1.713-1.869-1.604c-1.216-1.021-2.388-2.093-3.558-3.165c-2.324-2.129-4.496-4.415-6.595-6.765
				c0.039,0.043-3.128-3.878-1.508-1.735c-0.898-1.188-1.712-2.435-2.522-3.683c-0.786-1.211-1.472-2.479-2.153-3.75
				c-2.119-3.953,0.83,2.595-0.698-1.489c-2.863-7.65-10.034-12.792-18.452-10.477C103.328,236.558,97.334,245.322,100.202,252.987
				L100.202,252.987z"/>
		</g>
	</g>
	<g>
		<g>
			<path fill="#A56346" d="M224.333,305.667c15.104-0.703,27.218-10.877,39.988-17.834c13.962-7.606,28.05-14.98,41.249-23.881
				c6.766-4.562,9.715-13.126,5.382-20.522c-3.932-6.712-13.734-9.959-20.522-5.382c-12.177,8.211-25.106,15.148-38.012,22.125
				c-5.812,3.143-11.549,6.317-17.123,9.864c-2.569,1.635-5.185,3.175-7.89,4.573c-4.128,2.135,2.376-0.7-1.829,0.717
				c-3.95,1.331,2.658,0.158-1.243,0.34c-8.165,0.38-15,6.536-15,15C209.333,298.556,216.159,306.047,224.333,305.667
				L224.333,305.667z"/>
		</g>
	</g>
	<g>
		<g>
			<path fill="#A56346" d="M123.683,118.143c-15.674,24.659-15.692,55.312-15.349,83.524c0.079,6.444,10.079,6.451,10,0
				c-0.322-26.449-0.729-55.33,13.984-78.477C135.788,117.73,127.13,112.719,123.683,118.143L123.683,118.143z"/>
		</g>
	</g>
	<g>
		<g>
			<path fill="#A56346" d="M125.155,155.004c-0.61-2.082-1.385-3.688-2.953-5.207c-2.452-2.376-6.007-1.633-7.853,1.012
				c-4.225,6.056-4.109,15.526-4.619,22.655c-0.616,8.599-0.478,17.396,0.046,25.997c1.068,17.518,3.865,35.001,8.736,51.867
				c1.786,6.184,11.436,3.551,9.643-2.658c-4.304-14.902-6.875-30.154-8.124-45.605c-0.644-7.968-0.72-16.01-0.551-24
				c0.079-3.738,0.352-7.466,0.737-11.184c0.402-3.875,0.491-8.765,2.766-12.025c-2.618,0.337-5.235,0.675-7.853,1.012
				c0.127,0.265,0.254,0.529,0.381,0.793C117.322,163.837,126.973,161.208,125.155,155.004L125.155,155.004z"/>
		</g>
	</g>
	<g>
		<g>
			<path fill="#A56346" d="M110.179,190.004c-3.423,11.767,0.255,24.595,2.513,36.272c2.386,12.336,5.466,24.711,11.991,35.58
				c3.314,5.521,11.962,0.496,8.635-5.047c-5.808-9.675-8.449-20.612-10.664-31.571c-2.066-10.228-5.83-22.27-2.833-32.576
				C121.627,186.457,111.976,183.825,110.179,190.004L110.179,190.004z"/>
		</g>
	</g>
	<g>
		<g>
			<path fill="#A56346" d="M95.667,155.333c4.257-0.081,1.749,5.236,3.311,1.694c0.862-1.954,2.007-3.792,3.136-5.599
				c1.847-2.955,4.116-6.208,6.088-8.56c-2.618-2.02-5.235-4.04-7.853-6.059c-3.386,4.544-7.1,8.761-11.218,12.654
				c2.786,1.622,5.571,3.243,8.357,4.865c3.772-12.283,17.736-18.069,26.381-26.46c4.658-4.521-2.302-11.352-7.071-7.071
				c-13.416,12.042-18.861,31.678-21.619,48.873c-1.012,6.306,8.624,9.012,9.643,2.658c2.49-15.523,6.896-33.553,19.048-44.46
				c-2.357-2.357-4.714-4.714-7.071-7.071c-10.333,10.03-24.417,16.102-28.953,30.873c-1.519,4.943,4.834,8.195,8.357,4.865
				c4.747-4.488,8.884-9.447,12.782-14.679c3.392-4.552-4.222-10.389-7.853-6.059c-3.981,4.749-22.501,29.861-5.464,29.536
				C102.107,165.21,102.119,155.21,95.667,155.333L95.667,155.333z"/>
		</g>
	</g>
	<g>
		<g>
			<path fill="#A56346" d="M113.131,131.798c-6.348,6.877-9.307,17.129-11.36,26.066c-2.253,9.806-2.39,20.032,0.075,29.799
				c1.577,6.25,11.221,3.597,9.643-2.658c-2.05-8.125-1.756-16.317-0.075-24.482c1.457-7.073,3.785-16.231,8.789-21.653
				C124.568,134.14,117.514,127.05,113.131,131.798L113.131,131.798z"/>
		</g>
	</g>
	<g>
		<g>
			<path fill="#A56346" d="M124.488,140.004c-0.522-2.258-1.753-3.387-3.846-4.237c-2.1-0.854-4.545,0.568-5.646,2.298
				c-1.698,2.666-2.335,6.731-3.224,9.713c-1.727,5.793-2.801,11.774-3.651,17.75c-1.607,11.302-2.066,22.742-1.454,34.138
				c0.345,6.414,10.347,6.447,10,0c-0.559-10.396-0.188-20.791,1.055-31.127c0.608-5.061,1.631-10.08,2.855-15.024
				c0.728-2.938,1.692-8.266,3.053-10.403c-1.882,0.766-3.764,1.532-5.646,2.298c0.067,0.027,0.134,0.054,0.2,0.081
				c-1.164-1.164-2.328-2.328-3.492-3.492c0.051,0.221,0.103,0.442,0.154,0.664C116.299,148.944,125.94,146.28,124.488,140.004
				L124.488,140.004z"/>
		</g>
	</g>
	<g>
		<g>
			<path fill="#A56346" d="M135.131,108.798c-2.95,3.023-4.368,6.692-5.797,10.596c-1.889,5.156-4.128,10.182-6.003,15.349
				c-4.125,11.362-7.156,23.076-9.643,34.896c-4.896,23.268-6.208,47.385,0.825,70.358c1.882,6.147,11.536,3.524,9.643-2.658
				c-6.346-20.727-5.306-42.107-1.206-63.164c2.067-10.619,4.8-21.126,8.168-31.405c1.571-4.793,3.352-9.517,5.211-14.205
				c1.57-3.96,2.843-9.59,5.874-12.695C146.707,111.253,139.641,104.177,135.131,108.798L135.131,108.798z"/>
		</g>
	</g>
	<g>
		<g>
			<path fill="#A56346" d="M108.512,176.004c-2.571,8.149-1.502,16.626,0.056,24.864c1.614,8.533,3.499,17.083,5.491,25.536
				c4.309,18.285,10.911,36.244,21.624,51.786c3.634,5.271,12.305,0.278,8.635-5.047c-9.644-13.99-15.575-29.685-19.793-46.056
				c-2.053-7.969-3.519-16.07-5.307-24.099c-1.768-7.938-3.575-16.363-1.062-24.327
				C120.101,172.495,110.445,169.877,108.512,176.004L108.512,176.004z"/>
		</g>
	</g>
	<g>
		<g>
			<path fill="#A56346" d="M294.004,242.154c9.131,1.501,17.885-5.603,24.77-10.685c3.648-2.692,7.315-5.403,10.84-8.255
				c4.928-3.986,9.71-9.038,15.716-11.394c-2.05-2.05-4.101-4.101-6.15-6.15c-2.334,10.181-12.425,17.49-18.809,25.217
				c-6.955,8.417-12.468,18.806-21.894,24.795c-5.425,3.447-0.413,12.104,5.047,8.635c10.688-6.791,16.916-17.886,24.799-27.426
				c7.345-8.889,17.798-16.781,20.499-28.562c0.77-3.357-2.376-7.631-6.15-6.15c-9.408,3.69-16.601,11.297-24.534,17.324
				c-3.78,2.873-7.568,5.723-11.542,8.324c-2.241,1.467-7.009,5.165-9.933,4.685C290.355,231.475,287.652,241.11,294.004,242.154
				L294.004,242.154z"/>
		</g>
	</g>
	<g>
		<g>
			<path fill="#A56346" d="M321.144,224.683c-9.146,6.106-18.124,12.42-25.012,21.115c-3.959,4.997,3.067,12.124,7.07,7.07
				c6.391-8.065,14.501-13.884,22.988-19.551C331.524,229.756,326.523,221.091,321.144,224.683L321.144,224.683z"/>
		</g>
	</g>
	<g>
		<g>
			<path fill="#A56346" d="M344.132,195.464c-7.168,8.271-18.421,13.611-27.522,19.489c-11.016,7.115-21.905,14.393-32.628,21.943
				c-10.405,7.327-20.856,14.58-32.172,20.453c-11.24,5.834-23.415,9.521-34.666,15.333c-5.731,2.96-0.673,11.589,5.047,8.635
				c11.249-5.81,23.479-9.39,34.666-15.333c11.273-5.989,21.746-13.112,32.173-20.453c10.723-7.551,21.612-14.827,32.628-21.943
				c9.823-6.347,21.796-12.109,29.545-21.053C355.404,197.687,348.362,190.583,344.132,195.464L344.132,195.464z"/>
		</g>
	</g>
	<g>
		<g>
			<path fill="#A56346" d="M327.683,225.81c-9.833,15.753-23.866,27.816-38.218,39.322c-5.032,4.034,2.092,11.062,7.07,7.07
				c15.058-12.071,29.473-24.829,39.782-41.346C339.742,225.369,331.088,220.354,327.683,225.81L327.683,225.81z"/>
		</g>
	</g>
	<g>
		<g>
			<path fill="#945945" d="M74.179,233.671c-2.661,9.837-0.717,19.765,0.488,29.662c0.769,6.317,10.778,6.392,10,0
				c-1.079-8.864-3.229-18.192-0.845-27.004C85.507,230.095,75.86,227.452,74.179,233.671L74.179,233.671z"/>
		</g>
	</g>
	<g>
		<g>
			<path fill="#945945" d="M74.845,217.671c-1.651,7.011-0.569,15.332-0.375,22.465c0.248,9.136,1.139,18.316,3.375,27.193
				c1.575,6.25,11.219,3.598,9.643-2.658c-2.031-8.061-2.73-16.248-3.018-24.535c-0.134-3.853-0.109-7.706-0.147-11.559
				c-0.025-2.668-0.45-5.636,0.165-8.248C85.965,214.057,76.323,211.396,74.845,217.671L74.845,217.671z"/>
		</g>
	</g>
	<g>
		<g>
			<path fill="#945945" d="M74.845,230.004c-2.375,13.53-1.019,27.83,0.378,41.418c1.537,14.95,6.38,29.24,10.622,43.574
				c1.825,6.168,11.383,3.569,9.643-2.658c-3.925-14.042-9.989-27.614-10.821-42.338c-3.274,0.443-6.547,0.886-9.821,1.329
				c3.953,25.837,11.95,53.3,35.965,67.321c5.123,2.991,9.646-3.665,6.059-7.853c-8.524-9.952-17.268-19.563-23.104-31.421
				c-6.551-13.309-4.744-28.758-6.944-43.039c-0.883-5.732-9.739-4.12-9.821,1.329c-0.146,9.592,3.385,18.997,6.28,28.02
				c2.976,9.276,6.449,18.45,11.583,26.769c4.991,8.086,11.818,15.143,19.614,20.529c8.278,5.72,18.181,7.143,27.861,8.837
				c0.443-3.273,0.886-6.548,1.329-9.821c-10.259,0.262-24.537,0.407-31.464-8.535c-3.945-5.093-10.968,2.04-7.071,7.07
				c8.57,11.064,25.753,11.791,38.536,11.465c5.438-0.139,7.068-8.816,1.329-9.821c-8.29-1.452-16.69-2.506-24.047-6.877
				c-7.13-4.235-12.965-11.026-17.452-17.895c-4.571-6.997-7.453-14.943-10.069-22.827c-2.831-8.53-6.565-17.835-6.428-26.913
				c-3.274,0.443-6.547,0.886-9.821,1.329c2.306,14.968,1.049,29.605,7.212,43.829c5.781,13.343,16.072,24.145,25.407,35.043
				c2.02-2.617,4.04-5.235,6.059-7.853c-21.626-12.627-27.84-38.28-31.369-61.345c-0.856-5.597-10.137-4.245-9.821,1.329
				c0.889,15.727,6.989,30.007,11.179,44.996c3.214-0.886,6.428-1.772,9.643-2.658c-3.778-12.77-7.949-25.432-9.978-38.631
				c-1.005-6.541-1.12-13.29-1.549-19.89c-0.457-7.031-0.696-14.188,0.526-21.155C85.594,226.357,75.958,223.66,74.845,230.004
				L74.845,230.004z"/>
		</g>
	</g>
	<g>
		<g>
			<path fill="#945945" d="M205.317,181.857c0.513-0.932,0.912-1.828,1.171-2.861c0.787-3.144-1.513-6.329-4.821-6.329
				c-5.118,0-8.121,6.061-9.705,10.122c-2.126,5.452-2.306,11.926-1.61,17.665c1.233,10.171,7.567,23.115,19.978,19.035
				c6.097-2.004,3.485-11.662-2.658-9.643c-5.361,1.763-6.949-6.337-7.433-10.326c-0.433-3.572-0.322-7.255,0.409-10.776
				c0.307-1.478,0.751-2.943,1.415-4.299c0.219-0.446,0.52-1.054,0.825-1.445c1.307-1.667,1.428-0.333-1.22-0.333
				c-1.607-2.11-3.214-4.219-4.821-6.329c-0.054,0.157-0.109,0.315-0.163,0.473C193.574,182.463,202.21,187.508,205.317,181.857
				L205.317,181.857z"/>
		</g>
	</g>
	<g>
		<g>
			<path fill="#945945" d="M203.667,172c-9.027,0.857-11.804,10.815-13.208,18.396c-1.892,10.206,0.329,19.447,8.201,26.604
				c8.841,8.038,21.888,9.453,32.535,4.342c10.083-4.84,12.272-16.415,16.79-25.485c2.865-5.753-5.76-10.82-8.635-5.047
				c-3.016,6.054-4.521,13.332-8.941,18.581c-5.296,6.288-15.621,6.294-22.218,2.292c-6.021-3.653-9.343-9.783-8.381-16.814
				c0.371-2.704,0.983-5.367,1.762-7.98c0.379-1.269,0.877-2.433,1.496-3.598c0.304-0.571,1.366-1.363,0.6-1.291
				C210.028,181.396,210.088,171.39,203.667,172L203.667,172z"/>
		</g>
	</g>
	<g>
		<g>
			<path fill="#945945" d="M247.512,190.671c-1.585,7.276-3.685,15.107-8.938,20.667c-3.519,3.723-9.94,1.604-14.244,0.841
				c-6.305-1.118-9,8.519-2.658,9.643c7.181,1.273,14.883,3.067,21.393-1.285c8.545-5.714,12.035-17.77,14.091-27.207
				C258.523,187.043,248.884,184.371,247.512,190.671L247.512,190.671z"/>
		</g>
	</g>
	<g>
		<g>
			<path fill="#945945" d="M214.662,162.845c-7.59-1.329-13.026,5.002-17.19,10.48c-4.312,5.673-5.558,13.484-4.644,20.413
				c2.055,15.583,14.628,26.74,30.501,24.417c6.361-0.931,3.647-10.565-2.658-9.643c-9.606,1.406-15.961-6.413-17.825-14.977
				c-0.941-4.327-0.154-9.089,1.805-13.012c0.871-1.743,5.861-8.297,7.354-8.036C218.309,173.592,221.006,163.956,214.662,162.845
				L214.662,162.845z"/>
		</g>
	</g>
	<g>
		<g>
			<path fill="#945945" d="M204.144,169.349c-10.06,6.73-15.899,19.185-15.687,31.182c0.225,12.64,9.935,19.917,20.995,23.601
				c22.078,7.354,47.607-4.391,49.882-28.798c0.599-6.422-9.407-6.364-10,0c-1.577,16.924-19.28,23.219-34.079,20.016
				c-7.232-1.566-15.762-5.468-16.721-13.659c-0.999-8.53,3.483-18.907,10.657-23.707
				C214.521,174.418,209.521,165.752,204.144,169.349L204.144,169.349z"/>
		</g>
	</g>
	<g>
		<g>
			<path fill="#945945" d="M81.794,184.001c-2.29,11.439-1.11,23.096-1.044,34.666c0.009,1.611,2.509,1.612,2.5,0
				c-0.064-11.329-1.287-22.799,0.956-34.001C84.521,183.092,82.111,182.421,81.794,184.001L81.794,184.001z"/>
		</g>
	</g>
	<g>
		<g>
			<path fill="#945945" d="M81.794,185.667C79.927,199.05,80.667,212.553,79.75,226c-0.11,1.61,2.391,1.6,2.5,0
				c0.9-13.217,0.12-26.516,1.956-39.667C84.425,184.756,82.017,184.077,81.794,185.667L81.794,185.667z"/>
		</g>
	</g>
	<g>
		<g>
			<path fill="#945945" d="M79.461,204.335c-1.951,4.765-1.71,10.281-2.044,15.332c-0.107,1.616,2.369,1.59,2.5,0
				c0.329-3.997,0.629-7.992,0.333-12c-0.119-1.612-2.375-1.608-2.5,0c-0.32,4.125-0.683,8.239-1.289,12.334
				c-0.232,1.567,2.145,2.263,2.411,0.664c0.111-0.666,0.222-1.333,0.333-2c0.263-1.576-2.146-2.252-2.411-0.664
				c-0.111,0.666-0.222,1.333-0.333,2c0.804,0.222,1.607,0.442,2.411,0.664c0.639-4.315,1.04-8.649,1.378-12.998
				c-0.833,0-1.667,0-2.5,0c0.296,4.008-0.004,8.003-0.333,12c0.833,0,1.667,0,2.5,0c0.321-4.852,0.083-10.096,1.956-14.668
				C82.483,203.507,80.063,202.864,79.461,204.335L79.461,204.335z"/>
		</g>
	</g>
	<g>
		<g>
			<path fill="#945945" d="M82.794,177.667c-2.371,14.996-2.047,30.213-1.378,45.333c0.071,1.605,2.571,1.612,2.5,0
				c-0.659-14.879-1.045-29.907,1.289-44.667C85.455,176.756,83.046,176.079,82.794,177.667L82.794,177.667z"/>
		</g>
	</g>
	<g>
		<g>
			<path fill="#945945" d="M81.254,183.036c-2.774,5.14-2.181,11.97-2.693,17.639c-0.801,8.868-1.358,17.75-1.145,26.658
				c0.039,1.609,2.539,1.613,2.5,0c-0.168-6.997,0.148-13.967,0.667-20.943c0.282-3.801,0.646-7.595,1-11.39
				c0.343-3.669,0.018-7.346,1.829-10.703C84.178,182.879,82.02,181.617,81.254,183.036L81.254,183.036z"/>
		</g>
	</g>
	<g>
		<g>
			<path fill="#945945" d="M143.75,338c0.365,3.295,5.778,3.225,8.188,3.442c5.591,0.505,11.489,0.519,17.061-0.237
				c1.476-0.2,0.982-2.36-0.333-2.455c-8.509-0.613-17.031-0.798-25.334-2.955c-0.111,0.818-0.222,1.637-0.333,2.455
				c9.245-0.204,18.423,1.211,27.667,1c1.371-0.031,1.754-2.164,0.333-2.455c-8.912-1.829-18.046-0.869-27-2.333
				c-0.111,0.818-0.222,1.637-0.333,2.455c11.215,0.997,22.425,1.567,33.667,0.666c1.585-0.127,1.632-2.5,0-2.5
				c-7.787,0.001-15.567,0.044-23.333,0.667c-1.315,0.105-1.809,2.2-0.333,2.455c9.713,1.68,19.255-0.446,28.999-0.288
				c-0.111-0.818-0.222-1.637-0.333-2.455c-13.279,2.174-26.659,0.273-39.668-2.667c-0.111,0.818-0.222,1.637-0.333,2.455
				c17.367,1.693,36.334,9.301,52.964,0.496c1.425-0.754,0.162-2.912-1.262-2.158c-16.05,8.497-34.917,0.799-51.702-0.838
				c-1.413-0.138-1.692,2.148-0.333,2.455c13.475,3.047,27.248,4.919,40.998,2.667c1.432-0.234,1.031-2.433-0.333-2.455
				c-9.496-0.154-18.871,2.014-28.334,0.378c-0.111,0.818-0.222,1.637-0.333,2.455c7.767-0.623,15.546-0.666,23.333-0.667
				c0-0.833,0-1.667,0-2.5c-11.242,0.901-22.452,0.331-33.667-0.666c-1.399-0.124-1.721,2.229-0.333,2.455
				c8.952,1.465,18.102,0.508,27,2.333c0.111-0.818,0.222-1.637,0.333-2.455c-9.244,0.211-18.422-1.204-27.667-1
				c-1.396,0.031-1.722,2.095-0.333,2.455c8.523,2.215,17.262,2.415,25.999,3.045c-0.111-0.818-0.222-1.637-0.333-2.455
				c-2.326,0.315-21.843,1.382-22.084-0.795C146.075,336.416,143.573,336.398,143.75,338L143.75,338z"/>
		</g>
	</g>
</g>
<g id="Layer_3">
	<g>
		<path d="M146.276,344.546c-10.708,0-21.343-0.729-30.684-2.943c-17.294-4.099-29.709-17.458-37.956-40.84
			c-8.797-24.943-7.977-50.265-5.781-73.912c1.203-12.957,2.946-25.272,5.332-37.648c0.275-1.427,0.548-2.876,0.825-4.342
			c2.019-10.693,4.307-22.812,8.529-33.08c8.287-20.153,28.449-33.534,43.904-41.21c22.19-11.023,43.148-18.002,62.294-20.745
			c9.913-1.42,20.025-2.146,29.805-2.85c8.604-0.618,17.499-1.258,26.175-2.366l0.73-0.093c8.39-1.075,25.848-3.311,36.21-1.14
			l-0.009,0.045c11.618,2.652,21.376,11.198,29.986,18.739c15.988,14,30.165,33.701,36.996,51.413
			c13.4,34.745-8.829,73.901-29.838,100.63c-19.101,24.302-44.341,46.722-72.993,64.833c-22.646,14.316-49.493,22.591-79.793,24.596
			C162.404,344.135,154.319,344.546,146.276,344.546z M274.66,86.453c-8.865,0-18.963,1.294-24.703,2.03l-0.73,0.094
			c-8.786,1.123-17.738,1.766-26.396,2.388c-9.71,0.698-19.751,1.419-29.525,2.82c-18.722,2.682-39.272,9.535-61.081,20.367
			c-14.84,7.372-34.169,20.147-41.984,39.15c-4.067,9.89-6.218,21.283-8.298,32.3c-0.278,1.471-0.552,2.925-0.828,4.357
			c-2.36,12.248-4.086,24.436-5.277,37.261c-2.154,23.194-2.97,47.996,5.571,72.213c7.757,21.997,19.241,34.518,35.106,38.277
			c15.841,3.755,35.798,3.084,53.23,1.93c29.627-1.959,55.843-10.028,77.92-23.984c28.271-17.871,53.163-39.976,71.985-63.925
			c36.899-46.947,36.273-78.509,29.25-96.718c-6.612-17.145-20.368-36.244-35.898-49.843c-8.26-7.233-17.621-15.432-28.263-17.853
			l0.01-0.043C281.878,86.681,278.377,86.453,274.66,86.453z"/>
	</g>
	<g>
		<path d="M224.707,217.701c-2.31,0-4.627-0.241-6.936-0.729c-7.919-1.675-21.174-4.478-22.917-15.364
			c-1.902-11.87,3.279-25.404,12.893-33.679c0.129-0.11,14.22-10.134,19.096-8.027c0.278,0.12,0.53,0.271,0.755,0.449
			c1.53-0.165,3.079-0.262,5.22,0.082c7.981,1.281,14.077,2.699,19.856,9.319c10.858,12.438,9.576,26.679-3.431,38.095
			C241.869,214.317,233.353,217.7,224.707,217.701z M210.295,171.013c-8.561,7.406-13.178,19.437-11.491,29.962
			c1.208,7.543,10.441,10.105,19.796,12.083c9.685,2.053,19.633-0.869,28.005-8.218c11.295-9.915,12.409-21.745,3.056-32.458
			c-4.919-5.636-9.884-6.782-17.477-8.001c-1.939-0.311-3.169-0.169-4.868,0.026c-0.776,0.089-1.656,0.191-2.691,0.255l-0.066-1.07
			C221.661,164.05,213.828,168.491,210.295,171.013z"/>
	</g>
	<g>
		<path d="M230.712,215.744c-1.24,0-2.408-0.232-3.46-0.704c-0.604-0.271-1.158-0.606-1.656-0.998
			c-2.98,0.924-6.633,2.009-9.531,0.611c-1.179-0.567-2.198-1.388-3.016-2.386c-0.959-0.258-1.869-0.649-2.71-1.169
			c-0.637-0.134-1.256-0.332-1.846-0.602c-0.125-0.058-0.256-0.121-0.392-0.192c-1.103,1.033-2.778,1.259-4.134,0.481
			c-3.442-1.973-4.499-4.562-4.779-6.386c-0.059-0.389-0.09-0.776-0.096-1.164c-0.343-0.319-0.625-0.709-0.82-1.152
			c-1.254-2.838-1.005-5.582,0.037-8.18c-0.294-0.605-0.416-1.298-0.319-2.003c0.646-4.727,2.062-8.121,3.837-10.745
			c-0.215-0.804-0.145-1.682,0.251-2.472c2.89-5.774,7.623-8.912,12.799-11.256c0.404-0.34,0.803-0.671,1.196-0.994
			c0.851-0.699,1.939-0.931,2.944-0.72c0.333-0.128,0.668-0.256,1.001-0.383c1.47-1.552,2.943-2.962,4.439-4.254
			c1.149-0.991,2.774-1.115,4.043-0.379c0.768-0.044,1.562,0.162,2.228,0.629c0.286,0.201,0.535,0.439,0.743,0.705
			c0.379,0.2,0.724,0.472,1.016,0.812c0.011,0.012,0.021,0.025,0.032,0.038c1.158-0.703,2.628-0.675,3.763,0.086
			c0.206-0.06,0.413-0.115,0.623-0.165c1.075-0.255,2.209,0.014,3.056,0.726c0.095,0.079,0.184,0.163,0.269,0.25
			c1.214,0.344,2.342,0.89,3.325,1.588c1.976-0.058,3.942,0.519,5.613,1.992c0.948,0.835,1.714,1.77,2.291,2.774
			c0.991,0.835,1.957,2.05,2.627,3.813c1.183,1.411,1.877,3.463,2.034,6.017c1.322,1.523,1.917,3.678,1.632,6.162
			c-0.097,0.841-0.295,1.731-0.579,2.636c0.945,3.202,0.044,7.253-0.86,9.106c-1.375,2.821-4.18,5.054-7.271,6.644
			c-1.71,3.599-4.676,6.841-5.792,7.727c-2.401,1.903-4.991,2.686-7.284,2.271C234.158,215.328,232.371,215.744,230.712,215.744z"/>
	</g>
</g>
</svg>
