<?xml version="1.0" encoding="utf-8"?>
<!-- Generator: Adobe Illustrator 16.0.0, SVG Export Plug-In . SVG Version: 6.00 Build 0)  -->
<!DOCTYPE svg PUBLIC "-//W3C//DTD SVG 1.1//EN" "http://www.w3.org/Graphics/SVG/1.1/DTD/svg11.dtd">
<svg version="1.1" xmlns="http://www.w3.org/2000/svg" xmlns:xlink="http://www.w3.org/1999/xlink" x="0px" y="0px" width="400px"
	 height="400px" viewBox="0 0 400 400" enable-background="new 0 0 400 400" xml:space="preserve">
<g id="Layer_1">
	<path fill="none" stroke="#000000" stroke-width="2" stroke-miterlimit="10" d="M121.225,117.571
		c0.145-0.136,0.467-0.998,0.426-0.463c-0.569,2.244-0.495,4.659-0.343,6.963c5.63-3.425,16.962-1.595,23.121-0.731
		c0.1,1.97,0.106,4.035,0,6.007c-7.702,0.163-16.115,3.035-23.541,0.93c-0.123,2.103-0.116,4.31-0.01,6.417
		c11.251,0.569,21.1,0.151,32.122-0.408c0.083-1.881,0.256-3.749-0.397-5.5c11.75,1.191,24.588,1.036,36.647,0.465
		c15.967-0.756,29.538,0.977,44.158,0.138c0.331-1.729-0.024-3.596-0.408-5.183c-3.42-0.173-7.022-0.238-10.46-0.071
		c-3.856,0.187-11.644-0.545-15.165-0.509c-10.003,0.104-10.505,0.066-17.125,0.375c-7.238,0.338-12.25,0.125-20.5,0.125
		c-5.069,0-12.5-0.125-17.026,0.374c0.094-1.61,0.349-8.022-0.562-8.935c-1.416-1.42-7.988-0.664-10.03-0.718
		c-3.58-0.094-7.665-0.086-11.529-0.091c-2.761-0.003-6.973,1.338-8.97,0.408"/>
	<path fill="none" stroke="#000000" stroke-width="2" stroke-miterlimit="10" d="M232.653,125.735
		c0.263-12.275-0.768-31.782-0.345-39.959c8.588,2.007,17.639-0.095,26.822,0.438c-0.756,7.411,1.137,9.793,1.244,23.661
		c0.125,16.125,0.089,38.16,0.033,69.248c-0.045,24.902-1.633,49.85-1.633,74.754c0,13.765,1.412,25.692,0.595,39.436
		c-4.692-0.924-25.014-0.763-27.45,0.137c-0.353-3.525,0.97-7.284,1.142-10.853c0.487-10.134,0.05-110.169,0.907-128.32
		c0.117-2.477,1.142-22.483-0.344-22.902"/>
	<path fill="none" stroke="#000000" stroke-width="2" stroke-miterlimit="10" d="M259.5,293.168
		c4.5-0.333,31.368,1.494,38.167-0.167c-1.037,7.156-0.804,5.978-1,13.333c-1.213-0.839-149.937-0.596-174.259-0.6
		c-5.899-0.001-9.489,1.285-10.562-4.489c-1.371-7.382,1.599-7.186,7.738-6.939c4.019,0.161,100.083-1.472,112.083-0.638"/>
	<path fill="none" stroke="#000000" stroke-width="2" stroke-miterlimit="10" d="M121.225,117.571
		c0.145-0.136,0.467-0.998,0.426-0.463c-0.569,2.244-0.495,4.659-0.343,6.963c5.63-3.425,16.962-1.595,23.121-0.731
		c0.1,1.97,0.106,4.035,0,6.007c-7.702,0.163-16.115,3.035-23.541,0.93c-0.123,2.103-0.116,4.31-0.01,6.417
		c11.251,0.569,21.1,0.151,32.122-0.408c0.083-1.881,0.256-3.749-0.397-5.5c11.75,1.191,24.588,1.036,36.647,0.465
		c15.967-0.756,29.538,0.977,44.158,0.138c0.331-1.729-0.024-3.596-0.408-5.183c-3.42-0.173-7.022-0.238-10.46-0.071
		c-3.856,0.187-11.644-0.545-15.165-0.509c-10.003,0.104-10.505,0.066-17.125,0.375c-7.238,0.338-12.25,0.125-20.5,0.125
		c-5.069,0-12.5-0.125-17.026,0.374c0.094-1.61,0.349-8.022-0.562-8.935c-1.416-1.42-7.988-0.664-10.03-0.718
		c-3.58-0.094-7.665-0.086-11.529-0.091c-2.761-0.003-6.973,1.338-8.97,0.408"/>
	<path fill="none" stroke="#000000" stroke-width="2" stroke-miterlimit="10" d="M232.653,125.735
		c0.263-12.275-0.768-31.782-0.345-39.959c8.588,2.007,17.639-0.095,26.822,0.438c-0.756,7.411,1.137,9.793,1.244,23.661
		c0.125,16.125,0.089,38.16,0.033,69.248c-0.045,24.902-1.633,49.85-1.633,74.754c0,13.765,1.412,25.692,0.595,39.436
		c-4.692-0.924-25.014-0.763-27.45,0.137c-0.353-3.525,0.97-7.284,1.142-10.853c0.487-10.134,0.05-110.169,0.907-128.32
		c0.117-2.477,1.142-22.483-0.344-22.902"/>
	<path fill="none" stroke="#000000" stroke-width="2" stroke-miterlimit="10" d="M259.5,293.168
		c4.5-0.333,31.368,1.494,38.167-0.167c-1.037,7.156-0.804,5.978-1,13.333c-1.213-0.839-149.937-0.596-174.259-0.6
		c-5.899-0.001-9.489,1.285-10.562-4.489c-1.371-7.382,1.599-7.186,7.738-6.939c4.019,0.161,100.083-1.472,112.083-0.638"/>
</g>
<g id="Layer_2">
	<path fill="none" stroke="#8B5E3C" stroke-width="5" stroke-linecap="round" stroke-linejoin="round" stroke-miterlimit="10" d="
		M235,88.25c0.391-0.689-1.913,3.517-2.232,4.677c3.287-1.654,5.914-4.061,9.469-5.34c-2.176,3.343-8.324,7.013-8.403,11.331
		c5.851-2.333,8.243-7.854,14.5-9.833c-0.643,2.298-3.818,3.144-5.501,4.847c-4.252,4.301-8.166,7.819-8.166,14.736
		c3.67-0.766,2.076-5.997,5.322-7.923c3.604-2.139,5.845-12.243,16.928-12.327c-0.567,2.719-8.772,9.4-10.75,11.333
		c-3.147,3.077-8.814,8.624-10.625,12.703c2.59-0.112,6.055-4.531,7.998-6.144c3.71-3.08,9.245-10.52,13.544-12.727
		c0.166,6.75-8.378,10.946-10.792,13.108c-5.218,4.671-11.792,4.725-12.375,14.392c4.245-2.662,5.148-6.606,9.079-9.801
		c2.714-2.205,10.41-11.791,14.254-11.283c-0.916,6-9.266,12.713-12.281,15.769c-2.862,2.902-10.042,8.767-10.468,12.981
		c3.821-0.458,7.132-4.961,10.045-7.19c3.867-2.958,8.651-15.337,13.454-16.643c-0.666,9.25-6.062,15.091-9.262,18.329
		c-3.458,3.498-11.665,4.638-12.821,9.505c3.035,0.125,9.057-0.264,11.316-2.05c6.854-5.417,10.268-8.033,11.018-17.867
		c-8.152,6.508-22.75,22.583-22.5,30.5c6.75-5.25,14.916-13.083,22.416-20.666c-0.083,9-8.43,14.14-12.583,18.166
		c-2.722,2.639-8.616,5.399-9.167,9.167c3.712-1.103,7.058-1.759,10.084-4.083c3.056-2.345,8.833-8.75,11.333-15.083
		c1.417,15-18.37,23.587-23.043,34.238c3.315,0.719,8.659-5.955,10.942-7.877c3.916-3.297,7.89-7.028,12.557-9.229
		c-1.816,4.292-7.801,8.375-11.146,11.455c-4.141,3.811-10.049,8.23-12.479,13.448c2.121,1.429,9.566-5.554,11.343-6.812
		c3.894-2.758,7.821-5.371,11.867-7.882c0.263,1.526-2.429,3.926-3.33,4.927c-3.088,3.424-6.269,6.713-9.232,10.25
		c-3.354,4.002-9.193,9.065-10.778,14.234c2.789-0.183,6.061-3.831,8.195-5.562c2.694-2.187,5.319-4.471,8.083-6.572
		c2.347-1.785,4.469-6.545,7.771-6.033c-3.363,6.691-8.454,12.407-13.466,17.766c-2.564,2.742-8.186,7.08-9.099,10.821
		c3.047,0.12,6.237-3.969,8.222-5.799c3.724-3.434,8.042-8.716,12.723-10.419c-2.007,4.238-6.359,7.829-9.451,11.251
		c-3.046,3.373-9.641,8.74-10.529,13.405c2.75,0.341,6.837-4.332,8.777-5.958c2.95-2.47,8.37-8.83,12.495-8.983
		c-1.23,4.532-6.992,9.274-9.987,12.726c-3.24,3.734-6.33,7.577-9.279,11.546c-1.098,1.477-2.665,3.062-2.955,4.881
		c3.752-0.711,6.953-5.822,9.432-8.34c3.362-3.415,7.029-6.494,10.702-9.539c-2.514,2.504-5.096,4.951-7.524,7.554
		c-3.071,3.285-6.002,6.691-8.791,10.22c-0.053,0.066-4.968,6.945-4.935,8.535c4.103-2.924,6.586-6.947,10.218-10.425
		c2.946-2.819,6.875-7.307,10.875-8.675c-1.081,3.331-4.581,6.413-6.781,9.083c-3.049,3.7-5.944,7.487-8.686,11.423
		c-1.857,2.667-5.577,8.037-5.543,11.51c4.457-1.235,7.824-6.602,11.001-9.75c2.657-2.634,6.776-7.925,10.762-8.478
		c-0.083,2.593-3.861,6.78-5.06,8.526c-2.773,4.043-5.469,8.104-8.01,12.297c-1.74,2.872-7.931,8.873-7.527,12.57
		c3.404-0.851,8.719-6.985,10.853-9.497c2.433-2.865,6.312-8.529,9.064-11.086c-2.438,3.311-6.961,9.268-9.604,12.479
		c-4.861,5.907-10.147,13.385-12.063,20.938c2.685,0.77,7.561-9.481,9.586-11.688c3.313-3.609,7.37-8.112,11.581-10.646
		c-1.577,4.623-7.292,8.825-10.071,12.766c-3.578,5.072-9.019,12.97-9.846,19.4c3.982,0.284,0.587-1.444,7.085-9.383
		c3.245-3.965,10.087-7.855,13.165-11.95c-4.764,5.445-12.324,11.538-16.427,17.489c-1.995,2.892-4.641,8.857-5.656,12.261
		c3.46-1.278,6.754-9.767,9.105-12.488c3.29-3.807,9.534-9.963,13.812-12.679c-2.444,2.917-7.762,6.028-9.946,9.143
		c-3.099,4.415-10.747,13.521-12.054,18.9c3.189-1.208,9.238-9.833,11.513-12.367c2.247-2.503,7.332-8.093,10.487-9.509
		c-0.854,3.339-6.919,8.773-8.753,11.715c-2.062,3.309-5.197,6.891-6.511,10.554c5.29-2.314,9.59-11.702,15.014-14.019
		c0.744,4.383-8.335,9.801-7.715,14.222c16.715,1.029,2.78-6.237,7.048-7.389"/>
	<path fill="none" stroke="#8B5E3C" stroke-width="9" stroke-linecap="round" stroke-linejoin="round" stroke-miterlimit="10" d="
		M238,151c-1.115,9.363,0.5,19.204,0.5,28.695c0,8.519,0.896,16.519,0.013,24.998c-1.589,15.241,0.249,30.388-0.513,45.619
		c-0.363,7.266-0.585,14.847,0,22.048c0.394,4.847-3.779,12.839,0.5,15.765c1.735,1.187,13.151,1.895,15.25,0.75
		c3.657-1.994-1.821-11.691-2.702-14.805c-1.825-6.45-3.935-11.611-4.048-18.445c-0.258-15.602-1-31.146-1-46.75
		c0-12.876-0.638-25.629-0.625-38.5c0.007-7.271-1.064-15.494-0.625-22.75c0.215-3.552,3.622-8.768,5.317-12.058
		c0.28,1.111,0.183,2.387,0.178,3.601c-0.021,4.654,0.546,9.183,0.829,13.817c0.393,6.418,0.621,12.885,0.37,19.314
		c-0.659,16.904-1.834,34.173-1.143,51.07c0.409,9.992,1.739,20.174,2.754,30.132c0.401,3.938,0.721,7.811,0.931,11.755
		c0.133,2.493-0.227,5.98,0.764,8.198c0.697-1.931,0.073-4.416-0.013-6.459c-0.2-4.757-0.01-9.612,0.264-14.36
		c0.46-7.981,0.459-15.919,0.805-23.896c0.462-10.651-0.306-21.345-0.306-31.987c0-9.12,0.363-18.162,0.737-27.252
		c0.297-7.233,0.438-14.38,0.207-21.655c-0.152-4.803-0.193-9.591-0.194-14.401c-0.001-3.448,0.455-7.386-0.75-10.692"/>
	<path fill="none" stroke="#A7A9AC" stroke-width="7" stroke-linecap="round" stroke-linejoin="round" stroke-miterlimit="10" d="
		M231.125,128.75c-3.107,0.357-11.749,1.193-14.957,0.852c-2.571-0.273-5.084-0.488-7.66-0.598
		c-7.476-0.318-14.958-0.717-22.418-0.146c-5.961,0.457-11.931-0.238-17.903-0.256c-1.955-0.006-3.998,0.156-5.973,0.246
		c-1.604,0.073-3.257-0.109-4.85,0.031c-3.264,0.287-7.794,1.524-10.89-0.059c0.096-0.067,0.222-0.166,0.343-0.241
		c0.118-1.844,0.418-3.673,0.521-5.509c0.19-3.388-3.907-1.853-6.294-2.063c-5.606-0.496-10.468-1.306-16.081-0.531
		c5.524,0,10.756-0.937,16.285-0.727c2.427,0.092,4.355,1.053,6.771,0.604c1.661-0.308-0.541,1.472,0.104,0.521
		c0.41,4.893,0.685,7.768,1.449,12.582c-2.22-0.208-4.604-1.162-6.957-0.83c-0.903,0.127-1.761,0.67-2.653,0.884
		c-1.199,0.287-2.354,0.162-3.579,0.213c-4.224,0.177-7.613,0.798-11.76,0.151"/>
	<path fill="none" stroke="#A7A9AC" stroke-width="10" stroke-linecap="round" stroke-linejoin="round" stroke-miterlimit="10" d="
		M115.125,300.375c0.785,0.083,2.232-0.269,3.216-0.469c2.207-0.451,4.132,0.02,6.339,0.221c1.966,0.18,3.746-0.188,5.692-0.352
		c2.992-0.253,6.089-0.151,9.096-0.282c4.402-0.191,8.83-0.126,13.245-0.118c3.167,0.006,6.208-0.08,9.372,0.222
		c3.769,0.359,7.701,0.301,11.454-0.135c4.638-0.538,9.417,0.61,14.087,0.288c4.234-0.292,8.162-0.015,12.403-0.28
		c8.225-0.517,16.234,0.164,24.472-0.095c5.977-0.188,13.811-1.489,19.75-0.875c16.51,1.707,33.711-0.75,50.25-0.75"/>
	<path fill="none" stroke="#A7A9AC" stroke-width="10" stroke-linecap="round" stroke-linejoin="round" stroke-miterlimit="10" d="
		M116.125,301.75c0.785,0.083,2.232-0.269,3.216-0.469c2.207-0.451,4.132,0.02,6.339,0.221c1.966,0.18,3.746-0.188,5.692-0.352
		c2.992-0.253,6.089-0.151,9.096-0.282c4.402-0.191,8.83-0.126,13.245-0.118c3.167,0.006,6.208-0.08,9.372,0.222
		c3.769,0.359,7.701,0.301,11.454-0.135c4.638-0.538,9.417,0.61,14.087,0.288c4.234-0.292,8.162-0.015,12.403-0.28
		c8.225-0.517,16.234,0.164,24.472-0.095c5.977-0.188,13.811-1.489,19.75-0.875c16.51,1.707,32.336,2,48.875,2"/>
</g>
<g id="Layer_3">
	<g>
		<path d="M132.052,137.967c-3.591,0-7.231-0.081-11.059-0.275l-0.902-0.045l-0.045-0.903c-0.113-2.226-0.109-4.482,0.01-6.525
			l0.073-1.244l1.198,0.34c4.622,1.31,9.819,0.582,14.846-0.12c2.462-0.345,4.998-0.699,7.465-0.815
			c0.048-1.346,0.046-2.76-0.005-4.167l-0.133-0.019c-6.156-0.874-16.46-2.338-21.505,0.731l-1.409,0.857l-0.109-1.646
			c-0.142-2.161-0.245-4.654,0.314-7.04l-0.181-0.143c0.029-0.046,0.062-0.111,0.095-0.174c0.15-0.286,0.551-1.044,1.372-0.805
			c0.116,0.034,0.39,0.139,0.571,0.42c1.092,0.245,2.903-0.026,4.524-0.268c1.23-0.183,2.501-0.373,3.588-0.373
			c0.004,0,0.008,0,0.012,0l1.256,0.001c3.486,0.003,7.091,0.006,10.298,0.09c0.45,0.009,1.181-0.021,2.026-0.059
			c4.133-0.183,7.397-0.223,8.686,1.07c0.998,1,1.071,4.973,0.913,8.537c3.822-0.311,9.083-0.292,13.386-0.275l2.582,0.006
			c2.456,0,4.625,0.019,6.65,0.037c4.693,0.041,8.744,0.076,13.803-0.161c5.653-0.264,6.816-0.275,13.272-0.337l3.889-0.039
			c1.568-0.016,3.886,0.112,6.353,0.248c3.263,0.18,6.637,0.367,8.774,0.262c3.097-0.15,6.649-0.126,10.56,0.071l0.746,0.038
			l0.175,0.726c0.412,1.702,0.783,3.699,0.419,5.606l-0.146,0.766l-0.778,0.045c-7.408,0.425-14.413,0.199-21.829-0.042
			c-7.107-0.231-14.458-0.469-22.339-0.095c-14.26,0.676-25.551,0.571-35.365-0.331c0.218,1.288,0.155,2.584,0.093,3.849
			l-0.066,1.471l-0.908,0.046C145.708,137.665,138.975,137.967,132.052,137.967z M122.003,135.739
			c10.436,0.483,19.563,0.129,30.206-0.406c0.071-1.496,0.102-2.911-0.378-4.198l-0.562-1.507l1.6,0.162
			c10.045,1.018,21.642,1.164,36.499,0.461c7.964-0.377,15.352-0.137,22.5,0.094c7.089,0.229,13.8,0.447,20.82,0.089
			c0.071-1.075-0.099-2.21-0.327-3.267c-3.546-0.161-6.776-0.172-9.606-0.034c-2.246,0.106-5.669-0.08-8.981-0.263
			c-2.437-0.134-4.752-0.264-6.222-0.245l-3.891,0.039c-6.425,0.062-7.583,0.073-13.198,0.335
			c-5.115,0.239-9.192,0.205-13.914,0.163c-2.021-0.018-4.185-0.037-6.633-0.037l-2.589-0.006
			c-4.712-0.019-10.58-0.039-14.328,0.374l-1.177,0.129l0.069-1.182c0.224-3.822,0.081-7.586-0.312-8.218
			c-0.728-0.723-5.222-0.521-7.14-0.436c-0.884,0.04-1.646,0.075-2.168,0.06c-3.181-0.083-6.773-0.086-10.247-0.089l-1.257-0.001
			c-0.003,0-0.006,0-0.01,0c-0.938,0-2.082,0.17-3.293,0.351c-1.716,0.255-3.477,0.519-4.896,0.305
			c-0.217,1.349-0.231,2.749-0.18,4.079c5.896-2.477,15.478-1.116,21.391-0.275l1.771,0.25l0.042,0.825
			c0.104,2.063,0.104,4.177,0,6.111l-0.05,0.926l-0.928,0.02c-2.639,0.056-5.449,0.449-8.167,0.829
			c-4.812,0.673-9.776,1.368-14.452,0.365C121.95,132.892,121.953,134.314,122.003,135.739z M120.825,117.125
			c0.036,0.251,0.238,0.612,0.641,0.754l0.071-0.152l-0.649-0.691l0.503,0.536L120.825,117.125z"/>
	</g>
	<g>
		<path d="M231.22,294.835l-0.129-1.286c-0.223-2.23,0.177-4.509,0.562-6.712c0.262-1.492,0.509-2.902,0.575-4.288
			c0.209-4.334,0.247-25.137,0.291-49.225c0.06-32.213,0.127-68.725,0.616-79.095l0.018-0.354
			c0.916-18.984,0.13-21.505-0.036-21.818c0.028,0.055,0.157,0.211,0.402,0.28l0.543-1.925c1.028,0.29,2.195,0.618,1.088,23.559
			l-0.017,0.353c-0.488,10.324-0.555,46.812-0.614,79.004c-0.044,24.113-0.083,44.937-0.293,49.316
			c-0.073,1.512-0.343,3.05-0.604,4.537c-0.309,1.76-0.603,3.44-0.598,5.059c4.925-0.696,19.938-0.764,25.573-0.081
			c0.404-7.868,0.099-15.062-0.224-22.661c-0.213-5.014-0.434-10.197-0.434-15.621c0-12.647,0.416-25.51,0.817-37.948
			c0.39-12.07,0.793-24.551,0.815-36.808c0.053-29.482,0.095-52.77-0.033-69.238c-0.053-6.786-0.535-10.792-0.923-14.01
			c-0.36-2.986-0.651-5.403-0.408-8.709c-3.213-0.121-6.457,0.059-9.603,0.231c-5.016,0.276-10.188,0.561-15.183-0.396
			c-0.138,4.269,0.016,10.872,0.177,17.826c0.17,7.347,0.346,14.944,0.218,20.932l-2-0.043c0.127-5.942-0.048-13.517-0.218-20.842
			c-0.178-7.666-0.345-14.906-0.126-19.147l0.062-1.194l1.164,0.272c5.076,1.185,10.281,0.899,15.796,0.596
			c3.536-0.194,7.192-0.395,10.856-0.183l1.043,0.061l-0.105,1.039c-0.372,3.644-0.085,6.024,0.312,9.318
			c0.394,3.269,0.884,7.336,0.938,14.234c0.128,16.478,0.086,39.77,0.033,69.257c-0.022,12.287-0.426,24.784-0.816,36.869
			c-0.401,12.423-0.816,25.269-0.816,37.884c0,5.381,0.22,10.544,0.432,15.536c0.34,8.001,0.661,15.559,0.161,23.959l-0.067,1.143
			l-1.124-0.221c-4.84-0.954-24.77-0.698-26.91,0.094L231.22,294.835z"/>
	</g>
	<g>
		<path d="M297.783,308.207l-1.353-0.936c-5.517-0.656-115.641-0.578-157.346-0.546c-7.403,0.005-13.151,0.006-16.511,0.009
			c-0.002,0-0.005,0-0.007,0c-0.957,0-1.852,0.034-2.684,0.066c-4.186,0.16-7.8,0.298-8.854-5.373
			c-0.62-3.341-0.406-5.396,0.695-6.668c1.487-1.718,4.166-1.61,7.876-1.461l0.19,0.008c1.248,0.05,12.102-0.083,25.845-0.252
			c31.07-0.382,78.023-0.954,86.268-0.385l-0.139,1.996c-8.159-0.567-55.066,0.007-86.104,0.389
			c-14.311,0.176-24.649,0.302-25.949,0.25l-0.19-0.008c-3.15-0.127-5.426-0.218-6.284,0.772c-0.647,0.747-0.725,2.38-0.24,4.993
			c0.738,3.972,2.514,3.905,6.811,3.739c0.856-0.032,1.776-0.067,2.76-0.067c0.203,0,0.397,0,0.606,0
			c3.425,0,8.93-0.004,15.911-0.009c123.427-0.094,150.847,0.172,156.776,0.564c0.022-0.925,0.037-1.696,0.051-2.361
			c0.07-3.491,0.082-4.121,0.734-8.691c-5.57,0.794-17.563,0.404-26.533,0.111c-4.783-0.156-8.914-0.288-10.371-0.184l-0.148-1.994
			c1.567-0.116,5.546,0.014,10.585,0.179c9.722,0.316,23.032,0.751,27.419-0.32l1.439-0.352l-0.213,1.467
			c-0.831,5.734-0.837,6.043-0.912,9.824c-0.019,0.899-0.04,1.991-0.077,3.392L297.783,308.207z"/>
	</g>
</g>
</svg>
