<?xml version="1.0" encoding="utf-8"?>
<!-- Generator: Adobe Illustrator 21.0.0, SVG Export Plug-In . SVG Version: 6.00 Build 0)  -->
<svg version="1.1" xmlns="http://www.w3.org/2000/svg" xmlns:xlink="http://www.w3.org/1999/xlink" x="0px" y="0px" width="1000px"
	 height="1000px" viewBox="0 0 1000 1000" enable-background="new 0 0 1000 1000" xml:space="preserve">
<g id="vs-highlight">
	<path fill="#27A8CB" d="M185.9,415.5c3,0.7-7,23.8,3,51c2,5.4,9.8,23.5,28.5,36c0,0,16.8,10.1,42,9c66.4-3,117.9-105,125.9-100
		c3.5,2.2-9.6,29.8-36,84.9c-12,25.1-16.6,33.8-27,43.1c-20,17.8-44,22.1-58.4,24.6c-21,3.7-38.8,2.5-50.7,0.7
		c-7.7-6.9-18.1-17.8-27.2-33.3c-5.7-9.6-16.1-27.7-18.1-51.6C165.1,444.6,182.5,414.6,185.9,415.5z"/>
	<path fill="#27A8CB" d="M245.2,268c3.7,1.5-4.8,21.2,5.2,30.5c4.4,4,10.3,4.3,16.5,4.5c17.5,0.5,30.9-6.9,34.5-9
		c22.3-12.9,31.3-29.3,49.5-51c9.3-11,23.7-26.7,44.5-43.6c-2-0.6-20.2-6.6-27-25.8c-6.5-18.2,2.4-33.6,3.6-35.6
		c3.8-1.1,24.3-6.7,42.6,4.9c19.3,12.2,28.3,38.3,20.8,64c-13.3,5.8-29.5,14.6-45.7,28.2c-37.8,31.7-53.4,70.6-59.7,90.3
		c-14.2-1.5-33.4-1.6-55,4.2c-57.6,15.6-87.5,61.7-95.6,75.2c5.2-18,13.3-42.5,25.6-70.7C223.3,292.3,240.7,266.1,245.2,268z"/>
	<path fill="#27A8CB" d="M349.7,281.9c3.9,0.7,2.9,7.4,10.2,18.1c1.6,2.4,12.9,18.8,27,19.5c8.5,0.4,14.8-5.2,27-16.5
		c37.9-35,36.4-35.1,42-39c21-14.5,44-14.8,64.5-15c7.6-0.1,36.1,0.2,69,15c34.6,15.6,55.7,39.1,66,52.5c-16,2.5-32,5-48,7.5
		c-7.3-8-14.2-13.9-19.5-18c-14.6-11.3-32.8-25.5-55.5-24c-8,0.5-14.4,2.9-18.4,4.7c13.3,14.2,14.3,22.1,12.5,26.7
		c-4.5,11.4-27.4,5.3-39.1,21c-5.6,7.6-5.8,16.4-6,33c0,0,0,0,0,0c0,0,7.7,21.7,3,34.5c-4.6,12.6-19.8,13.1-48,24
		c-39.6,15.3-57.3,32.8-61.7,28c-5.2-5.6,24.8-27.1,24.2-61c0-1.7-0.9-29.6-21-46.5c-20-16.8-40.9-7.5-48-21
		C321.7,309.7,341.2,280.3,349.7,281.9z"/>
	<path fill="#27A8CB" d="M485.9,480c0.9-9.1,36.7-2.1,73.5-25.5c21.2-13.4,21.6-23.6,43.5-42c8-6.7,26.5-20.9,76.5-37.5
		c32.5-10.8,86.1-25.1,159-30c-2.9-4.5-8.5-14.3-9.3-28c-1-16.1,5-28,7.7-32.5c3.6,0.5,22,3.7,33.2,20c11,16.2,10.5,38.8-1.6,56.8
		c-23.3,9.9-42.6,16.8-55.4,21.2c-60.8,20.8-91.1,31.2-105,33c-11.3,1.4-24,2.3-33,12c-12,12.9-9.7,32.8-9,39
		c2.6,22.9,16.3,37.8,28.5,51c15.5,16.8,30.7,33.3,45,30c21.5-5,24.3-50.6,33-49.5c5.5,0.7,9.2,19.3,6.8,35.2
		c-3.6,23.6-20.3,38.1-26.3,42.8c-12,0.1-38.3-1.4-64.3-18.4c-45.7-29.8-51.9-82-52.7-89.6c-14.4,27.1-30.8,42.1-40.9,49.8
		c-7.4,5.6-12.1,7.9-17.6,8.7c-14.3,2-23.9-7.9-42-19.5C503.9,486.7,485.3,486.5,485.9,480z"/>
	<path fill="#27A8CB" d="M749.2,423.7c1.4-1.4,13.2,15.7,33.7,21.8c27,8,49.2-9.1,55.9,0c2.8,3.8,0.8,10-3.3,22.5
		c-3.7,11.4-8.6,20-12.1,25.5c-25.3,5.8-36.5,1.2-42-4.5c-7.2-7.5-3.2-15.6-10.5-33C762.4,435.7,747.9,425,749.2,423.7z"/>
	<path fill="#27A8CB" d="M710.5,568.6c-1,17.8-3.6,44.3-11.3,75.7c-6.7,27.4-9.5,27.1-31.8,92.1c-15.8,46.2-17.9,56.5-30,76.5
		c-14.2,23.3-29.1,38.5-36,45c-21.5,20.5-41.7,31.3-48,34.5c-18.2,9.3-35.8,18.4-58.5,18.4c-18.7,0-29.4-6.1-60-19.9
		c-18.5-8.4-45.4-20.1-79.3-33.1c8.1,11.1,53.8,71.3,133.3,79.6c13.4,1.4,63.7,6,110.4-24.5c27.8-18.1,43.1-41.3,53.9-59.9
		c54.5-93.1,87-222.5,98.1-269.9C737.8,578.3,724.1,573.4,710.5,568.6z"/>
	<path fill="#27A8CB" d="M615.9,491.9c-4.5,15.6,2.2,25.8,5,43.6c1.9,12.4,2.2,30.6-6,54c-3.3-4.2-13.6-16.5-31.9-21.6
		c-15.6-4.4-28.7-1.2-34,0.5c16.1,6.9,28.5,14.8,37.6,21.4c14.7,10.7,22.5,16.6,27.1,27.3c5.4,12.7,3,24.4-0.2,40
		c-5.2,25.2-17.2,45.3-22,53.2c-7.6,12.7-15.1,22-13.3,23.7c2.6,2.5,20-13.9,23.3-11c2.9,2.6-7.2,18.2-8.9,20.9
		c-25.5,39.7-16.3,38.9-43.6,82.6c-33.8,54.2-63.7,81.1-60.6,84.1c3.4,3.4,39.7-28.5,41.9-30.4c19-16.7,40.1-35.6,58.8-66.6
		c3-5,11.8-20,19.8-40.8c12.3-32.2,6.4-35.8,18.2-60.5c2.8-5.9,11.6-23.4,20.9-44.9c1.9-4.5,5.3-12.4,4.4-22.5c-0.7-8.3-4-13.9-6-18
		c-5.7-11.6-6.5-22-8-42.7c-2-26.2,2.7-49.3,7.3-65.3c0.2-39.3-4.6-49.9-9.7-51C629.5,466.5,619.6,479.2,615.9,491.9z"/>
	<path fill="#27A8CB" d="M314.6,549.6c6.9,5.6-3.4,20.8-4.2,50.2c-0.5,18.5,3,33.7,6.1,43.7c5.6-0.3,17.1-0.2,29.2,6.2
		c20.1,10.5,26.6,30,27.9,34.3c-8-3.4-18.7-7.1-31.6-9c-8.9-1.3-16.9-1.5-23.6-1.3c4.4,10.2,10.9,23.5,20.5,38
		c9.8,14.8,19.1,28.8,36.1,41.3c7.9,5.8,20.9,13.7,39.4,18.6c-2-0.1-12.8-0.7-22,7.4c-9.3,8.2-10.1,19-10.2,21
		c-4.4-5.9-11.1-14.7-19.2-25.4c-29.3-38.7-32.1-41.2-39.6-52.4c-7.8-11.7-20.6-31-30.8-59.1c-3.2-8.8-6.8-27.8-14.1-66
		c-2.6-13.6-4-21.6,0.2-30C286.1,552,307.4,543.7,314.6,549.6z"/>
</g>
<g id="vs-outline">
	<path fill="none" stroke="#000000" stroke-width="18" stroke-linecap="round" stroke-linejoin="round" stroke-miterlimit="10" d="
		M371.9,138c-13.2,2.8-25.6,9.4-58.5,45c-29.7,32.2-50,59.6-60,73.5c-20.4,28.3-31.5,43.8-43.5,67.5c-15.4,30.3-23.7,57.4-28.5,76.5
		c-5.8,11.6-18.6,41.3-13.5,79.5c6.8,51.4,41,81.5,49.5,88.5c-1.9,7.8-4.2,19.2-4.5,33c-1,42.1,16.1,74.2,37.5,109.5
		c51.6,84.8,78.4,128.9,132,169.5c31.9,24.2,59.2,36.4,82.5,43.5c27,8.2,46.3,8.9,51,9c0,0,35.4,0.8,67.5-12
		c41.4-16.6,67.4-57.2,94.5-115.5c24.4-52.3,54.5-129.2,75-229.5c6.1-5,14.8-13.7,21-27c13.4-28.8,3.9-56.5,1.5-63
		c16,2.5,32,5,48,7.5c4.4-6.3,13-20.4,15-40.5c1.8-18.8-3.1-33.4-6-40.5c-34.5-3.5-69-7-103.5-10.5c24.7-3.6,53.1-9.6,84-19.5
		c23-7.4,43.6-15.7,61.5-24c8.6-17.7,6.9-38.5-4.5-54c-15.6-21.2-41.1-21.1-43.5-21c-32.5,7.5-65,15-97.5,22.5
		c-11.3-16.8-28.5-38.4-54-58.5c-14.9-11.8-29.4-20.5-42-27c0.6-8.4,3.5-32.8,22.5-55.5c18.5-22.1,41.3-29.3,49.5-31.5
		c-0.1-6.3-1.1-22.1-12-37.5c-15.9-22.3-40.3-26.3-45-27c-11.4,5.2-25.3,13.2-39,25.5c-35.7,32.2-46.1,72.7-49.5,90
		c-7-1.5-14-3-21-4.5c1.1-13.5,3.6-29.9,9-48c3.6-12,7.8-22.5,12-31.5c0.6-7.4-3.8-14.3-10.5-16.5c-7.5-2.5-16.1,1.3-19.5,9
		c-8.1,21.1-17,37.7-24,49.5c-11.1,18.5-17.9,29.6-31.5,39c-12.9,8.9-25.9,12.1-34.5,13.5c0.2-2.8,1.9-31.6-19.7-48.5
		C401.2,131.9,378.6,136.6,371.9,138z"/>
	<path fill="none" stroke="#000000" stroke-width="18" stroke-linecap="round" stroke-linejoin="round" stroke-miterlimit="10" d="
		M632.9,220.5c-10.4-6.1-25-13.5-43.5-19.5c-49.5-16.1-91.1-10.4-100.5-9c-17.6,2.7-64.5,10.5-106.5,49.5
		c-33.2,30.8-46.9,66-52.5,84"/>
	<path fill="none" stroke="#000000" stroke-width="18" stroke-linecap="round" stroke-linejoin="round" stroke-miterlimit="10" d="
		M181.4,400.5c16.3-25.2,34.8-40.1,46.5-48c9.7-6.6,51-34.8,102-27c9.8,1.5,30.4,4.9,48,21c5.8,5.3,15.5,14.4,18,28.5
		c2,10.9-1.3,19.4-7.5,34.5c-11.6,28.2-17.4,42.4-22.5,52.5c-26.4,52.6-22.9,53-30,63c-10,14.1-37.5,42.3-118.5,43.5"/>
	<path fill="none" stroke="#000000" stroke-width="18" stroke-linecap="round" stroke-linejoin="round" stroke-miterlimit="10" d="
		M457.4,400.5c-2.4-4.5-15.7-31.5-4.5-63c8.9-24.9,29.2-41.3,49.5-48c34.2-11.2,64.9,6.6,79.5,15c11.7,6.7,20.1,14.2,25.5,19.5"/>
	<path fill="none" stroke="#000000" stroke-width="18" stroke-linecap="round" stroke-linejoin="round" stroke-miterlimit="10" d="
		M508.4,287.8c5.1,10.7,14.9,27,33,36.2c21.5,10.9,43.5,6.1,58.5,3c32.9-6.8,75.5-14.3,134.7-22.3"/>
	<path fill="none" stroke="#000000" stroke-width="18" stroke-linecap="round" stroke-linejoin="round" stroke-miterlimit="10" d="
		M728.9,402c-22.9,4.6-39.4,13.2-49.5,19.5c-17,10.7-28,22.6-39,34.5c-3.3,3.5-13.5,14.8-25.5,31.5c-18.7,26-19.2,33.8-28.5,37.5
		c-17.4,6.9-39.6-11.3-46.5-16.5c-26.5-19.9-78-35.9-188-17.6"/>
	<path fill="none" stroke="#000000" stroke-width="18" stroke-linecap="round" stroke-linejoin="round" stroke-miterlimit="10" d="
		M368.6,456.5c13.9-5.4,30.6-13.2,48.4-24.5c16.6-10.6,30.1-21.7,40.5-31.5"/>
	<path fill="none" stroke="#000000" stroke-width="18" stroke-linecap="round" stroke-linejoin="round" stroke-miterlimit="10" d="
		M640.4,456c-1.2,10.8-2.9,40.3,15,69c31.3,50.1,93.1,51,97.5,51"/>
	<path fill="none" stroke="#000000" stroke-width="18" stroke-linecap="round" stroke-linejoin="round" stroke-miterlimit="10" d="
		M735.2,402.6c5.4,7.3,11,15.6,16.3,24.9c12.2,21.4,19.5,41.7,24,58.5"/>
	<path fill="none" stroke="#000000" stroke-width="14" stroke-linecap="round" stroke-linejoin="round" stroke-miterlimit="10" d="
		M371.9,138c-2.6,4.3-7.8,14.5-6,27c2.8,18.6,19.4,28.5,27,33c17.5,10.3,35,9.7,42.5,9"/>
	<path fill="none" stroke="#000000" stroke-width="14" stroke-linecap="round" stroke-linejoin="round" stroke-miterlimit="10" d="
		M836.7,284.4c-2.8,3.5-8.6,11.8-8.8,23c-0.3,14.7,8.9,24.8,15,31.5c11,12.1,24,17.2,31.5,19.5"/>
	<path fill="none" stroke="#000000" stroke-width="14" stroke-linecap="round" stroke-linejoin="round" stroke-miterlimit="10" d="
		M315.9,544.3c-3.5,13.4-4.9,24.8-5.4,33.1c-1.1,16.1,0.3,28.6,1.5,39c1.3,11.1,3,20.4,4.5,27c7.2,1.2,17.6,3.9,28.5,10.5
		c20.8,12.6,29.8,31.4,33,39c-8.3-5.3-20.4-12.1-36-18c-12.7-4.8-19.8-7.4-22.5-4.5c-5.6,6,12.2,31.1,21,43.5
		c12.9,18.1,20.4,28.8,34.5,39c18.2,13.2,26.9,10.8,49.5,24c16.8,9.8,28.7,20.9,36,28.5"/>
	<path fill="none" stroke="#000000" stroke-width="14" stroke-linecap="round" stroke-linejoin="round" stroke-miterlimit="10" d="
		M279.1,560.6c-1,10.8-1.5,24.7-0.1,40.8c0.7,7.8,2.7,27.8,10.5,52.5c8,25.4,19.1,46.4,30,63c15.5,20.5,31,41,46.5,61.5
		c-0.9,8.6-1,20,1.5,33c5,25.7,17.9,43.5,25.5,52.5"/>
	<path fill="none" stroke="#000000" stroke-width="14" stroke-linecap="round" stroke-linejoin="round" stroke-miterlimit="10" d="
		M365.9,778.5c5.7,8.2,12.2,16.8,19.5,25.5c15.2,18.2,30.7,33,45,45"/>
	<path fill="none" stroke="#000000" stroke-width="14" stroke-linecap="round" stroke-linejoin="round" stroke-miterlimit="10" d="
		M394.6,814.4c-6.7-9.1-7.9-20.5-3.1-28.5c6.7-11.2,25.4-15.3,40.1-4.6"/>
	<path fill="none" stroke="#000000" stroke-width="14" stroke-linecap="round" stroke-linejoin="round" stroke-miterlimit="10" d="
		M279.8,609.8c-6,7.2-15.4,20.6-20.4,39.7c-3.7,14-3.7,26.2-3,34.5"/>
	<path fill="none" stroke="#000000" stroke-width="14" stroke-linecap="round" stroke-linejoin="round" stroke-miterlimit="10" d="
		M310.4,577.5c16.1,0.1,35.7-1.6,57-7.5c64.6-18,102.9-63.1,118-83.3"/>
	<path fill="none" stroke="#000000" stroke-width="14" stroke-linecap="round" stroke-linejoin="round" stroke-miterlimit="10" d="
		M375.6,567.5c1.1,4.9,4.7,16.9,15.8,26.5c18.6,16,42.1,11.1,45,10.5"/>
	<path fill="none" stroke="#000000" stroke-width="14" stroke-linecap="round" stroke-linejoin="round" stroke-miterlimit="10" d="
		M614.9,487.5c3,12.7,5.7,29,6,48c0.3,21.7-2.7,40.2-6,54c-5.7-6-14.5-13.7-27-19.5c-28.4-13.2-55.5-7-64.5-4.5
		c12.1,2.1,28.6,6.3,46.5,15c20.6,10,35.5,22.3,45,31.5c1.3,10.7,2.1,26.5-1.5,45c-1.2,6.2-5.8,27.9-19.5,49.5
		c-26.3,41.4-69.2,56-82.5,60"/>
	<path fill="none" stroke="#000000" stroke-width="14" stroke-linecap="round" stroke-linejoin="round" stroke-miterlimit="10" d="
		M559.9,742.5c13.9-6.5,27.7-13,41.6-19.6c-6,14.7-14.4,33.8-25.5,55.5c-1.5,3-14.3,27.7-27,48c-13.3,21.1-38.7,56.8-84,97.5"/>
	<path fill="none" stroke="#000000" stroke-width="14" stroke-linecap="round" stroke-linejoin="round" stroke-miterlimit="10" d="
		M641.9,522c-0.8,10.5-1.9,24.9-3,42c-1.4,21.2-1.8,31.5,1.5,45c3.3,13.3,7.7,19.3,9,21c7.8,10.1,17,12.4,24,16.5
		c10,5.8,21.5,18.6,27,49.5"/>
	<path fill="none" stroke="#000000" stroke-width="14" stroke-linecap="round" stroke-linejoin="round" stroke-miterlimit="10" d="
		M642.8,617.1c3,7.5,6.3,18.6,6.6,32.4c0.1,6.9-0.6,12.9-1.5,18c6.3,7.9,12.6,17.3,18,28.5c21.8,44.7,16.2,88.6,12,109.5"/>
	<path fill="none" stroke="#000000" stroke-width="14" stroke-linecap="round" stroke-linejoin="round" stroke-miterlimit="10" d="
		M647.9,667.5c-4.9,6.7-11.7,16.8-18,30c-9.5,19.8-13,36-19.5,67.5c-4.9,23.6-7.3,35.5-6,45c0,0,1.1,7.8,13.5,43.5l0,0"/>
	<path fill="none" stroke="#000000" stroke-width="14" stroke-linecap="round" stroke-linejoin="round" stroke-miterlimit="10" d="
		M607.8,777.6c-8.6,15.9-19.1,32.9-31.9,50.3c-33.9,45.9-71.7,77.5-102.3,98.5"/>
	<path fill="none" stroke="#000000" stroke-width="14" stroke-linecap="round" stroke-linejoin="round" stroke-miterlimit="10" d="
		M562,845.8c-0.6,3-2.6,15.4,5,27.1c7.2,11.1,20.5,17.4,34.5,16.5"/>
</g>
<g id="vs-h-reveal">
	
		<path opacity="0" fill="none" stroke="#000000" stroke-width="129" stroke-linecap="round" stroke-linejoin="round" stroke-miterlimit="10" d="
		M689,88.6c-97.4-5.8-195.3-1.5-291.8,12.9c-11.5,1.7-26.7,11.3-20,20.8c72.4,7.5,145.7,7,218-1.5c26.1-3.1,56.8-5.6,74.3,14
		c-10.9,9.6-26.8,10.1-41.3,10c-71.5,0-142.9-0.1-214.4-0.1c-32.3,0-68,1.2-91.6,23.2c-4.8,10.8,11.8,17.8,23.6,17.9
		c101.8,1.3,203.6,1.4,305.4,0.4c9.3-0.1,22.6,6.5,17.3,14.2c-131.9,1.9-263.8,2.1-395.7,0.6c-10-0.1-21.2,0.3-28,7.5
		c-9.8,10.3-3.8,28.7,8.2,36.5s27.1,7.8,41.4,7.7c120.5-1.1,241-0.1,361.5,2.8c7.9,0.2,16.1,0.5,23,4.2c6.9,3.7,12.1,12.1,9.5,19.5
		c-142.8,30.5-290.1-23-436-16.1c-12.2,0.6-25.1,1.9-34.6,9.5c-9.5,7.6-13,23.8-3.8,31.8c5.5,4.9,13.6,5.3,20.9,5.4
		c191.9,4.3,384,2.3,575.8-5.8c9.6-0.4,19.8-0.7,28.3,3.8c8.5,4.5,14.2,15.8,9.4,24.1c-26,6.2-53,6.2-79.8,6.2
		c-157.6,0-315.2,0-472.9-0.1c-37.7,0-75.7,0-112.6,7.9c-9.3,2-18.8,4.6-25.9,10.9c-7.1,6.3-11,17.1-6.6,25.6
		c5.1,9.8,18.1,11.9,29.1,12.7c164.4,11.7,330,7.5,493.6-12.7c39.4-4.9,78.9-10.7,118.7-9.9c7.7,0.2,15.7,0.7,22.3,4.5
		c6.6,3.9,11.3,12.2,8.6,19.4c-2.5,6.7-10.1,9.9-17,11.8c-19.9,5.5-40.7,6.4-61.3,7.2C568.4,422,391.9,419.2,216,407
		c-14.1-1-29-1.8-41.3,5c-12.3,6.8-19.7,24.5-10.8,35.5c6.7,8.3,18.8,9.1,29.4,9.3c202.2,3,404.8,5.9,606.5-8.7
		c9.5-0.7,22.5,1.6,22.7,11.1c0.2,9.1-11.7,12.4-20.8,12.7c-198.9,8.2-400.8-9.6-595.3,32.5c-15.9,3.4-36,14.7-30.4,29.9
		c191.3,5.4,382.7,3,573.8-7.2c14.3-0.8,34.5,4.5,32.1,18.6c-76.3,12.7-154,13.9-231.3,15.2c-96.1,1.5-192.1,3.1-288.2,4.6
		c-13.4,0.2-27.5,0.6-39,7.5c-11.5,6.9-18.8,22.7-11.8,34.2c165.5,11.1,331.9-3.2,497.4,7.3c17.3,1.1,39.8,7.5,40.1,24.9
		c-32.9,9.2-67.5,10-101.6,11.1c-127.8,3.9-255.5,11.9-382.7,24.1c-10.3,1-20.8,2.1-29.9,7s-16.3,14.7-15.1,24.9
		c120.5,2.7,241,3.2,361.4,1.3c47.2-0.7,97.5-0.9,137.1,24.7c-130.6,39.5-276.3-21.5-406.4,19.8c-7.9,2.5-17.3,7.7-16.4,16
		c1,9.3,13.3,11.6,22.7,11.5c110.7-1.7,221.4-1.5,332.1,0.6c6.2,0.1,13.5,0.8,16.7,6.1c3.4,5.5-0.2,13.2-5.8,16.5
		c-5.6,3.3-12.4,3.4-18.9,3.5c-90.8,0.8-181.5,1.5-272.3,2.3c-14.5,0.1-33.5,4-35,18.4c60.1,3.5,120.5,3.5,180.6-0.2
		c19.1-1.2,38.6-2.7,57.3,1.6c18.7,4.3,36.9,15.5,44.5,33c-55,4.3-110,8.7-165,13c-14.7,1.2-32.5,4.6-37.4,18.5
		c15.7,16,40.9,16.9,63.3,16.7c41.8-0.4,83.6-0.8,125.4-1.2"/>
</g>
</svg>
