<?xml version="1.0" encoding="utf-8"?>
<!-- Generator: Adobe Illustrator 16.0.0, SVG Export Plug-In . SVG Version: 6.00 Build 0)  -->
<!DOCTYPE svg PUBLIC "-//W3C//DTD SVG 1.1//EN" "http://www.w3.org/Graphics/SVG/1.1/DTD/svg11.dtd">
<svg version="1.1" id="Layer_1" xmlns="http://www.w3.org/2000/svg" xmlns:xlink="http://www.w3.org/1999/xlink" x="0px" y="0px"
	 width="400px" height="400px" viewBox="0 0 400 400" enable-background="new 0 0 400 400" xml:space="preserve">
<g>
	<g>
		<path fill="#94D8EC" d="M81.161,269.585c-0.057-0.137-0.114-0.273-0.171-0.41c-0.804-1.927-3.337-2.606-4.569-0.597
			c-0.846,1.38-0.458,3.388-0.42,4.922c1.637-0.222,3.274-0.443,4.911-0.665c-0.218-0.925-0.468-1.842-0.75-2.75
			c-0.784-2.679-4.966-2.203-4.911,0.665c0.027,1.406,0.152,2.521,0.339,3.915c0.375,2.784,5.183,2.13,4.911-0.665
			c-0.095-0.916-0.178-1.832-0.25-2.75c-0.27-3.165-5-3.269-5,0c0,0.5,0,1,0,1.5c1.667,0,3.333,0,5,0
			c-0.097-1.001-0.194-1.995-0.25-3c-0.18-3.234-4.772-3.208-5,0c-0.122,1.71,0.068,3.233,0.339,4.915
			c1.607-0.443,3.214-0.887,4.821-1.33c-0.261-1.182-0.398-2.377-0.411-3.585c-1.667,0-3.333,0-5,0c0.132,1.589,0.368,3.16,0.5,4.75
			c1.637-0.222,3.274-0.443,4.911-0.665c-0.25-1.25-0.5-2.5-0.75-3.75c-0.549-2.746-5.186-2.146-4.911,0.665
			c0.686,7.002,2.68,13.672,4.589,20.415c1.607-0.443,3.214-0.887,4.821-1.33c-0.393-1.057-0.805-2.062-1.252-3.097
			c-1.199-2.771-5.042-0.661-4.569,1.927c0.205,1.121,0.383,2.168,0.75,3.25c1.033,3.047,5.523,1.83,4.821-1.33
			c-0.167-0.75-0.333-1.5-0.5-2.25c-1.607,0.443-3.214,0.887-4.821,1.33c0.275,1.161,0.525,2.327,0.75,3.5
			c1.607-0.443,3.214-0.887,4.821-1.33c-0.215-0.844-0.465-1.677-0.75-2.5c-1.523,0.643-3.046,1.285-4.569,1.927
			c1.486,3.206,3.011,6.322,5,9.25c1.353,1.992,4.659,1.345,4.659-1.262c0-0.083,0-0.167,0-0.25
			c-1.637,0.222-3.274,0.443-4.911,0.665c0.643,2.542,1.488,4.796,2.752,7.097c1.555,2.831,5.829,0.318,4.317-2.523
			c-0.438-1.01-1.021-1.927-1.75-2.75c-1.913-2.53-5.791-0.423-4.317,2.523c0.75,1.5,1.5,3,2.25,4.5
			c1.439-0.841,2.878-1.683,4.317-2.523c-0.759-1.078-1.491-2.173-2.25-3.25c-1.835-2.606-5.864-0.356-4.317,2.523
			c0.801,1.491,1.586,2.942,2.25,4.5c1.439-0.841,2.878-1.683,4.317-2.523c-0.863-1.487-1.637-3.013-2.5-4.5
			c-1.439,0.841-2.878,1.683-4.317,2.523c0.798,1.238,1.579,2.438,2.25,3.75c1.469,2.874,5.769,0.344,4.317-2.523
			c-0.699-1.38-1.404-2.705-2.25-4c-1.309,1.01-2.618,2.02-3.926,3.029c2.641,3.34,4.564,7.172,6.859,10.744
			c1.439-0.841,2.878-1.683,4.317-2.523c-0.5-0.75-1-1.5-1.5-2.25c-1.775-2.663-6.074-0.203-4.317,2.523
			c1.015,1.574,1.985,3.176,3,4.75c1.439-0.841,2.878-1.683,4.317-2.523c-0.831-1.086-1.669-2.165-2.5-3.25
			c-1.9-2.483-6.147-0.222-4.317,2.523c1.024,1.536,2.127,2.902,3.391,4.256c1.178-1.179,2.357-2.356,3.535-3.535
			c-0.75-0.75-1.5-1.5-2.25-2.25c-2.295-2.296-5.68,1.152-3.535,3.535c1.508,1.677,2.835,3.495,4.25,5.25
			c1.793,2.226,5.449-0.669,3.926-3.029c-0.521-0.807-1.042-1.508-1.641-2.256c-1.178,1.179-2.357,2.356-3.535,3.535
			c1.202,1.099,2.223,2.237,3.25,3.5c1.822,2.24,5.358-0.644,3.926-3.029c-0.25-0.417-0.5-0.833-0.75-1.25
			c-1.439,0.841-2.878,1.683-4.317,2.523c1.167,1.868,2.489,3.561,3.891,5.256c1.839,2.225,5.359-0.641,3.926-3.029
			c-0.25-0.417-0.5-0.833-0.75-1.25c-1.439,0.841-2.878,1.683-4.317,2.523c0.75,1,1.5,2,2.25,3c1.309-1.01,2.618-2.02,3.926-3.029
			c-0.651-0.846-1.318-1.679-2-2.5c-1.178,1.179-2.357,2.356-3.535,3.535c8.219,9.119,17.354,17.148,27.256,24.391
			c2.352,1.721,4.96-1.959,3.029-3.926c-3.362-3.425-7.428-6.155-10.359-9.994c-1.14,1.14-2.28,2.28-3.42,3.42
			c3.554,2.657,7.105,5.304,10.468,8.202c2.32,2,4.088,4.444,6.532,6.298c0.841-1.438,1.682-2.878,2.523-4.316
			c-1.596-0.815-2.848-1.71-4.244-2.859c-2.442-2.012-5.864,1.22-3.535,3.535c2.233,2.222,4.466,4.388,7.256,5.891
			c2.836,1.529,5.305-2.675,2.523-4.316c-3.229-1.906-5.979-4.349-8.744-6.859c-2.377-2.16-5.908,1.336-3.535,3.535
			c1.438,1.334,2.971,2.523,4.5,3.75c1.178-1.179,2.357-2.356,3.535-3.535c-1.389-1.102-2.774-2.164-4.256-3.141
			c-2.433-1.604-4.953,1.928-3.029,3.926c1.869,1.941,3.989,3.444,6.256,4.891c0.841-1.438,1.682-2.878,2.523-4.316
			c-1.601-1.002-3.054-2.141-4.494-3.359c-2.427-2.055-5.919,1.307-3.535,3.535c5.185,4.847,11.614,7.294,17.756,10.641
			c2.833,1.545,5.279-2.64,2.523-4.316c-1.628-0.991-3.326-1.841-5-2.75c-2.842-1.545-5.24,2.589-2.523,4.316
			c2.75,1.75,5.5,3.5,8.25,5.25c0.642-1.522,1.284-3.046,1.926-4.569c-1.236-0.392-2.371-0.974-3.403-1.747
			c-2.719-1.762-5.197,2.551-2.523,4.316c1.477,0.976,2.949,1.898,4.5,2.75c0.841-1.438,1.682-2.878,2.523-4.316
			c-5.109-2.615-9.544-6.313-14.75-8.75c-2.972-1.392-5.059,2.376-2.523,4.316c6.583,5.04,14.016,8.752,21.5,12.25
			c0.841-1.438,1.682-2.878,2.523-4.316c-1.67-0.744-3.33-1.507-5-2.25c-2.878-1.281-5.417,2.758-2.523,4.316
			c1.715,0.924,3.462,1.729,5.25,2.5c0.642-1.522,1.284-3.046,1.926-4.569c-1.513-0.465-2.98-1.048-4.403-1.747
			c-0.642,1.522-1.284,3.046-1.926,4.569c3.106,1.151,6.218,2.188,9.153,3.747c0.841-1.438,1.682-2.878,2.523-4.316
			c-0.583-0.25-1.167-0.5-1.75-0.75c-0.642,1.522-1.284,3.046-1.926,4.569c6.198,1.633,11.736,4.978,18.008,6.397
			c6.682,1.513,13.551,1.973,20.38,2.147c6.32,0.162,12.717-0.11,18.979-1.011c7.09-1.02,13.892-4.146,21.047-4.445
			c-0.421-1.553-0.841-3.105-1.262-4.658c-0.5,0.25-1,0.5-1.5,0.75c-2.675,1.337-0.711,5.089,1.927,4.569
			c1.367-0.271,2.673-0.57,4-1c3.148-1.021,1.788-5.262-1.33-4.822c-5.568,0.786-11.13,1.516-16.5,3.25
			c0.643,1.523,1.285,3.047,1.927,4.569c2.097-1.039,4.572-0.81,6.727-1.831c2.293-1.089,4.053-2.867,6.488-3.733
			c3.621-1.287,7.462-1.658,10.754-3.782c2.696-1.739,3.479-5.006,2.898-8.006c-0.621-3.204,0.254-5.776,1.6-8.634
			c0.535-1.134,1.205-2.201,1.861-3.266c1.088-1.764,6.835-2.337,6.249-0.571c-0.699,2.111,1.853,3.916,3.673,2.823
			c0.417-0.25,0.833-0.5,1.25-0.75c-1.224-0.498-2.448-0.995-3.673-1.493c0.662,3.593,2.862,7.834,0.971,11.297
			c-1.812,3.318-7.331,5.129-10.571,6.63c1.01,1.309,2.02,2.617,3.029,3.926c2.932-2.754,7.245-4.004,10.777-5.808
			c4.149-2.118,7.662-5.209,11.967-7.052c2.957-1.265,0.406-5.57-2.523-4.316c-4.662,1.995-8.563,5.312-13.072,7.615
			c-3.657,1.868-7.639,3.165-10.684,6.025c-2.2,2.066,0.586,5.058,3.029,3.926c4.643-2.148,9.198-4.271,12.365-8.422
			c3.305-4.333,0.383-10.542-0.466-15.151c-0.295-1.598-2.376-2.272-3.673-1.493c-0.417,0.25-0.833,0.5-1.25,0.75
			c1.224,0.94,2.448,1.882,3.673,2.823c1.285-3.878-3.946-7.979-7.499-8.036c-5.662-0.092-8.648,5.193-10.59,9.862
			c-1.001,2.408-2.139,5.254-1.733,7.924c0.312,2.043,1.346,4.126-1.003,5.642c-1.454,0.938-3.446,1.28-5.094,1.717
			c-2.636,0.698-5.104,1.41-7.48,2.77c-2.371,1.358-3.666,2.811-6.605,3.051c-1.509,0.123-2.584,0.587-3.918,1.248
			c-2.548,1.262-0.757,5.436,1.927,4.569c5.369-1.735,10.931-2.465,16.5-3.25c-0.443-1.607-0.887-3.215-1.33-4.822
			c-1.326,0.431-2.632,0.73-4,1c0.643,1.523,1.285,3.047,1.927,4.569c0.5-0.25,1-0.5,1.5-0.75c2.228-1.113,1.171-4.76-1.262-4.658
			c-5.979,0.249-11.453,2.408-17.222,3.771c-6.772,1.601-14.03,1.714-20.956,1.71c-7.029-0.004-14.009-0.59-20.899-1.993
			c-6.293-1.281-11.819-4.767-18.009-6.398c-2.656-0.699-4.595,3.426-1.926,4.569c0.583,0.25,1.167,0.5,1.75,0.75
			c2.878,1.234,5.439-2.768,2.523-4.316c-3.319-1.764-6.831-2.949-10.347-4.253c-2.647-0.98-4.515,3.433-1.926,4.569
			c1.851,0.813,3.682,1.6,5.597,2.253c2.661,0.906,4.533-3.444,1.926-4.569c-1.788-0.772-3.535-1.577-5.25-2.5
			c-0.841,1.438-1.682,2.878-2.523,4.316c1.67,0.744,3.33,1.507,5,2.25c2.903,1.293,5.46-2.944,2.523-4.316
			c-7.483-3.498-14.917-7.211-21.5-12.25c-0.841,1.438-1.682,2.878-2.523,4.316c5.206,2.438,9.641,6.136,14.75,8.75
			c2.856,1.462,5.362-2.758,2.523-4.316c-1.551-0.853-3.023-1.775-4.5-2.75c-0.841,1.438-1.682,2.878-2.523,4.316
			c1.479,0.958,2.967,1.609,4.597,2.253c2.741,1.081,4.213-3.115,1.926-4.569c-2.75-1.75-5.5-3.5-8.25-5.25
			c-0.841,1.438-1.682,2.878-2.523,4.316c1.674,0.91,3.372,1.76,5,2.75c0.841-1.438,1.682-2.878,2.523-4.316
			c-5.729-3.122-11.906-5.337-16.744-9.859c-1.178,1.179-2.357,2.356-3.535,3.535c1.771,1.5,3.537,2.909,5.506,4.141
			c2.745,1.718,5.23-2.59,2.523-4.316c-1.906-1.217-3.667-2.472-5.244-4.109c-1.01,1.309-2.02,2.617-3.029,3.926
			c1.138,0.707,2.219,1.493,3.244,2.359c2.493,1.977,6.056-1.514,3.535-3.535c-1.529-1.227-3.061-2.416-4.5-3.75
			c-1.178,1.179-2.357,2.356-3.535,3.535c3.08,2.798,6.161,5.519,9.756,7.641c0.841-1.438,1.682-2.878,2.523-4.316
			c-2.424-1.308-4.309-3.186-6.244-5.109c-1.178,1.179-2.357,2.356-3.535,3.535c1.672,1.377,3.318,2.651,5.256,3.641
			c2.94,1.502,5.043-2.405,2.523-4.316c-2.946-2.235-5.31-5.391-8.198-7.776c-2.845-2.35-5.848-4.516-8.802-6.724
			c-1.964-1.469-4.919,1.457-3.42,3.42c3.22,4.218,7.449,7.245,11.141,11.006c1.01-1.309,2.02-2.617,3.029-3.926
			c-9.557-6.991-18.315-14.812-26.244-23.609c-2.191-2.432-5.531,1.083-3.535,3.535c0.682,0.821,1.349,1.654,2,2.5
			c1.745,2.227,5.626-0.764,3.926-3.029c-0.75-1-1.5-2-2.25-3c-1.881-2.508-6.02-0.313-4.317,2.523c0.25,0.417,0.5,0.833,0.75,1.25
			c1.309-1.01,2.618-2.02,3.926-3.029c-1.126-1.362-2.172-2.744-3.109-4.244c-1.703-2.726-5.983-0.253-4.317,2.523
			c0.25,0.417,0.5,0.833,0.75,1.25c1.309-1.01,2.618-2.02,3.926-3.029c-1.027-1.263-2.047-2.401-3.25-3.5
			c-2.43-2.22-5.515,1.061-3.535,3.535c0.286,0.415,0.573,0.829,0.859,1.244c1.309-1.01,2.618-2.02,3.926-3.029
			c-1.419-1.762-2.736-3.568-4.25-5.25c-1.178,1.179-2.357,2.356-3.535,3.535c0.75,0.75,1.5,1.5,2.25,2.25
			c2.288,2.288,5.73-1.184,3.535-3.535c-1.003-0.972-1.873-2.053-2.609-3.244c-1.439,0.841-2.878,1.683-4.317,2.523
			c0.831,1.086,1.669,2.165,2.5,3.25c1.897,2.479,6.11,0.259,4.317-2.523c-1.015-1.574-1.985-3.176-3-4.75
			c-1.439,0.841-2.878,1.683-4.317,2.523c0.5,0.75,1,1.5,1.5,2.25c1.775,2.662,6.071,0.206,4.317-2.523
			c-2.536-3.948-4.722-8.065-7.641-11.756c-1.77-2.238-5.463,0.676-3.926,3.029c0.846,1.295,1.551,2.62,2.25,4
			c1.439-0.841,2.878-1.683,4.317-2.523c-0.671-1.312-1.452-2.512-2.25-3.75c-1.737-2.696-5.946-0.282-4.317,2.523
			c0.863,1.487,1.637,3.013,2.5,4.5c1.665,2.869,5.543,0.355,4.317-2.523c-0.664-1.558-1.449-3.01-2.25-4.5
			c-1.439,0.841-2.878,1.683-4.317,2.523c0.759,1.078,1.491,2.173,2.25,3.25c1.848,2.624,5.772,0.386,4.317-2.523
			c-0.75-1.5-1.5-3-2.25-4.5c-1.439,0.841-2.878,1.683-4.317,2.523c0.729,0.824,1.312,1.74,1.75,2.75
			c1.439-0.841,2.878-1.683,4.317-2.523c-1.042-1.896-1.718-3.809-2.248-5.903c-0.698-2.761-4.911-2.143-4.911,0.665
			c0,0.083,0,0.167,0,0.25c1.553-0.421,3.106-0.841,4.659-1.262c-1.989-2.929-3.514-6.045-5-9.25
			c-1.198-2.585-5.436-0.744-4.569,1.927c0.285,0.822,0.535,1.656,0.75,2.5c0.874,3.13,5.458,1.804,4.821-1.33
			c-0.224-1.172-0.474-2.339-0.75-3.5c-0.712-3.146-5.519-1.811-4.821,1.33c0.167,0.75,0.333,1.5,0.5,2.25
			c1.607-0.443,3.214-0.887,4.821-1.33c-0.367-1.081-0.545-2.128-0.75-3.25c-1.523,0.643-3.046,1.285-4.569,1.927
			c0.25,0.635,0.499,1.269,0.748,1.903c1.105,2.969,5.714,1.823,4.821-1.33c-1.78-6.287-3.771-12.554-4.411-19.085
			c-1.637,0.222-3.274,0.443-4.911,0.665c0.25,1.25,0.5,2.5,0.75,3.75c0.55,2.753,5.144,2.146,4.911-0.665
			c-0.132-1.589-0.368-3.16-0.5-4.75c-0.263-3.173-5.167-3.246-5,0c0.086,1.663,0.314,3.274,0.589,4.915
			c0.534,3.181,5.329,1.817,4.821-1.33c-0.284-1.188-0.338-2.384-0.161-3.585c-1.667,0-3.333,0-5,0c0.056,1.005,0.153,1.999,0.25,3
			c0.306,3.148,5,3.281,5,0c0-0.5,0-1,0-1.5c-1.667,0-3.333,0-5,0c0.072,0.918,0.155,1.834,0.25,2.75
			c1.637-0.222,3.274-0.443,4.911-0.665c-0.054-0.861-0.107-1.724-0.161-2.585c-1.637,0.222-3.274,0.443-4.911,0.665
			c0.282,0.907,0.532,1.824,0.75,2.75c0.697,2.73,4.979,2.165,4.911-0.665c-0.02-0.793,0.349-3.396-0.263-2.398
			c-1.523-0.199-3.046-0.398-4.569-0.598c0.057,0.137,0.114,0.273,0.171,0.411C77.562,273.845,82.402,272.561,81.161,269.585
			L81.161,269.585z"/>
	</g>
</g>
<g>
	<g>
		<path fill="#94D8EC" d="M324.085,279.661c-1.851-0.69-1.344-1.338-0.891,0.756c0.298,1.376,0.505,2.773,0.72,4.164
			c0.534,3.462,0.909,6.952,1.201,10.442c0.814,9.751-4.025,18.272-7.328,27.155c-4.182,11.245-12.119,18.274-23.098,22.804
			c-4.461,1.84-8.402,3.281-12.451,5.988c-1.922,1.285-4.002,2.159-6.037,3.227c-2.433,1.276-4.624,3.087-7.366,3.642
			c-3.158,0.64-1.818,5.459,1.33,4.822c4.57-0.926,9.377-4.292,13.39-6.603c2.748-1.583,5.075-3.574,8.11-4.647
			c3.07-1.087,6.078-2.271,9.03-3.65c5.06-2.363,9.56-5.721,13.485-9.667c4.567-4.591,6.773-10.138,8.988-16.093
			c2.425-6.521,5.282-12.504,6.694-19.388c0.72-3.507,0.334-6.962-0.013-10.497c-0.379-3.858-0.892-7.713-1.55-11.533
			c-0.363-2.11-0.593-4.889-2.886-5.744C322.388,273.71,321.093,278.545,324.085,279.661L324.085,279.661z"/>
	</g>
</g>
<g>
	<g>
		<path fill="#94D8EC" d="M323.661,278.165c0.421-2.415-0.426-4.734-0.161-7.165c-1.553,0.421-3.105,0.841-4.658,1.262
			c0.45,1.206,0.866,2.424,1.247,3.653c1.006,3.121,5.339,1.806,4.822-1.33c-0.92-5.577-4.536-7.106-9.79-6.755
			c-9.039,0.606-18.229,0.439-27.288,0.434c-9.935-0.006-19.86-0.69-29.788-0.971c-9.242-0.262-20.061-1.09-28.96,1.796
			c-2.693,0.874-2.19,4.81,0.665,4.911c7.004,0.25,13.969,0.162,20.915-0.839c2.89-0.417,2.035-4.827-0.665-4.911
			c-3.307-0.103-6.565,0.274-9.835-0.411c0.198,1.523,0.397,3.047,0.597,4.569c3.976-2.818,11.614-0.746,16.238-0.908
			c-0.222-1.637-0.443-3.273-0.665-4.911c-4.733,1.161-9.334,2.155-14.17,1c0,1.607,0,3.215,0,4.822
			c14.622-4.047,29.655,3.22,44.5,0.5c2.757-0.506,2.136-5.227-0.665-4.911c-5.666,0.638-11.146,1.878-16.415,4.089
			c-1.83,0.769-2.715,3.434-0.597,4.569c5.401,2.898,13.344,0.772,18.523-1.75c1.963-0.955,1.418-4.078-0.597-4.569
			c-7.712-1.88-16.015-0.032-23.58,1.75c-2.701,0.637-2.164,5.238,0.665,4.911c8.141-0.94,16.339-1.062,24.5-1.75
			c0-1.667,0-3.333,0-5c-3.915,0.523-7.81,1.186-11.75,1.5c0.222,1.637,0.443,3.273,0.665,4.911c7.065-1.729,16.297-5.347,23.42-2.5
			c-0.198-1.523-0.397-3.047-0.597-4.569c-1.87,1.229-4.048,1.673-6,2.75c-1.805,0.994-1.56,4.159,0.597,4.569
			c5.29,1.004,9.531-2.068,14.58-3c-1.025-0.582-2.051-1.164-3.076-1.746c0.617,2.515,2.912,3.988,3.25,6.5
			c0.25,1.854,3.035,2.403,4.179,1.103c1.439-1.636,2.02-3.279,2.644-5.353c-1.607,0-3.215,0-4.822,0
			c2.299,5.926,5.809,3.596,9.679,0.603c-1.309-1.01-2.617-2.02-3.926-3.029c-1.725,2.786-12.057,0.123-15.257,1.351
			c-1.749,0.672-2.813,3.613-0.597,4.569c1.482,0.64,2.634,0.978,4.262,0.842c2.623-0.219,3.623-4.403,0.665-4.911
			c-3.771-0.646-7.446-0.061-11.248-0.115c-4.899-0.07-9.795-0.76-14.667-1.224c-9.041-0.86-17.9-2.681-26.907-3.753
			c-9.264-1.103-18.812-0.807-28.132-1.538c-10.368-0.813-20.815-0.363-31.197-0.114c-19.962,0.479-40.181-0.191-60.138-0.959
			c-9.564-0.367-19.039-1.797-28.564-2.65c-9.64-0.864-19.387-0.927-29.062-0.985c-3.278-0.02-3.151,4.702,0,5
			c12.541,1.187,25.147,0.312,37.708,1.127c12.996,0.845,25.974,1.899,38.975,2.674c12.132,0.723,24.105,1.652,36.271,1.278
			c11.08-0.342,22.427-0.765,33.131,2.582c-0.198-1.523-0.397-3.047-0.597-4.569c-4.109,1.923-9.552,0.956-13.96,0.869
			c-6.511-0.128-13.018,0.713-19.528,0.789c-12.855,0.15-25.847-1.581-38.571-3.217c-22.223-2.856-45.845-9.997-68.344-5.944
			c-3.17,0.571-1.823,5.39,1.329,4.822c11.667-2.103,24.562-0.531,36.117,1.376c12.196,2.013,24.351,3.957,36.624,5.467
			c12.8,1.574,25.824,2.926,38.731,2.318c6.082-0.286,12.097-0.707,18.192-0.51c4.162,0.134,8.105,0.138,11.934-1.654
			c2.078-0.972,1.301-3.976-0.597-4.569c-10.093-3.154-20.767-3.122-31.236-2.855c-12.623,0.321-25.007-0.2-37.602-1.061
			c-12.97-0.886-25.94-1.771-38.91-2.664c-13.21-0.91-26.48-0.012-39.667-1.259c0,1.667,0,3.333,0,5
			c9.043,0.055,18.133,0.155,27.152,0.828c9.537,0.71,18.994,2.189,28.545,2.719c9.652,0.533,19.335,0.357,28.997,0.517
			c9.733,0.16,19.411,0.773,29.153,0.614c9.77-0.16,19.527-0.565,29.299-0.273c9.484,0.282,18.912,1.235,28.412,1.49
			c9.074,0.243,18.012,2.51,27.004,3.615c4.844,0.595,9.743,0.942,14.604,1.384c5.066,0.46,10.459-0.584,15.418,0.268
			c0.222-1.638,0.443-3.274,0.665-4.911c-0.579-0.053-1.159-0.105-1.738-0.158c-0.199,1.522-0.398,3.046-0.597,4.569
			c5.531-2.123,14.396,2.567,18.243-3.649c1.62-2.616-1.836-4.646-3.926-3.029c-0.909,0.703-1.585,0.925-1.321,1.603
			c-0.867-2.233-4.064-2.519-4.822,0c-0.264,1.125-0.716,2.174-1.356,3.147c1.393,0.367,2.785,0.735,4.179,1.103
			c-0.368-2.728-2.639-4.005-3.25-6.5c-0.345-1.405-1.768-1.987-3.076-1.746c-3.812,0.704-7.971,3.751-11.92,3
			c0.198,1.523,0.397,3.047,0.597,4.569c1.966-1.084,4.113-1.509,6-2.75c1.927-1.267,1.406-3.769-0.597-4.569
			c-7.994-3.192-18.189,0.571-26.08,2.5c-2.703,0.661-2.177,5.138,0.665,4.911c3.944-0.314,7.83-0.976,11.75-1.5
			c3.103-0.415,3.27-5.275,0-5c-8.161,0.688-16.359,0.81-24.5,1.75c0.222,1.637,0.443,3.273,0.665,4.911
			c6.663-1.571,14.115-3.409,20.92-1.75c-0.198-1.523-0.397-3.047-0.597-4.569c-3.446,1.678-9.867,3.686-13.477,1.75
			c-0.199,1.522-0.398,3.046-0.597,4.569c4.83-2.027,9.878-3.325,15.085-3.911c-0.222-1.637-0.443-3.273-0.665-4.911
			c-14.857,2.724-29.694-4.596-44.5-0.5c-2.332,0.646-2.445,4.238,0,4.822c5.742,1.37,11.188,0.383,16.83-1
			c2.734-0.671,2.162-5.011-0.665-4.911c-5.704,0.2-13.751-1.962-18.762,1.592c-1.616,1.146-1.709,4.086,0.597,4.569
			c3.73,0.781,7.383,0.472,11.165,0.589c-0.222-1.637-0.443-3.273-0.665-4.911c-6.48,0.936-13.057,0.895-19.585,0.661
			c0.222,1.637,0.443,3.273,0.665,4.911c7.372-2.392,16.232-1.773,23.899-1.694c8.094,0.085,16.181,0.566,24.269,0.853
			c7.987,0.283,15.974,0.187,23.963,0.039c3.826-0.071,7.672,0.02,11.492-0.199c3.22-0.185,5.411-0.874,6.051,3.006
			c1.607-0.443,3.215-0.887,4.822-1.33c-0.537-1.666-1.044-3.247-1.753-4.847c-1.124-2.539-4.424-0.896-4.658,1.262
			c-0.207,1.905,0.658,4.008,0.339,5.835C318.289,279.988,323.107,281.337,323.661,278.165L323.661,278.165z"/>
	</g>
</g>
<g>
	<g>
		<path fill="#94D8EC" d="M237.25,371.25c-5.457,0.679-10.782,2.159-16.25,2.75c-3.171,0.343-3.204,5.346,0,5
			c5.476-0.591,10.794-2.071,16.25-2.75C240.406,375.857,240.444,370.853,237.25,371.25L237.25,371.25z"/>
	</g>
</g>
<path fill="none" stroke="#000000" stroke-width="2.0463" stroke-miterlimit="10" d="M222.439,26.53
	c-0.212-14.781,16.104-25.534,34.651-21.177c23.192,5.448,14.877,29.878-3.204,36.66c1.898-5.602,7.426-12.49,3.733-18.5
	c-4.034-6.561-15.13-8.424-20.325-2.328c-7.724,9.065-4.722,30.003-4.722,41.607c0,29.832-5.053,60.002-3.211,90.046
	c41.313-1.843,67.07,34.207,83.4,61.276c18.241,30.238,31.473,64.438,30.098,97.698c-1.629,39.433-46.966,52.916-83.042,70.614
	c-35.468,17.397-90.374,10.694-123.255-8.304c-36.055-20.828-61.079-50.899-72.907-85.765
	c-11.194-32.995,3.306-95.874,35.308-117.093c16.197-10.739,44.285-19.216,66.053-19.216c2.779-32.557-0.142-87.27-4.501-119.32
	c-1.661-12.201-4.504-14.257-17.639-12.706c-4.759,0.562-18.766,3.1-11.637,21.076c-18.016-28.512,3.916-36.511,15.765-35.952
	c14.073,0.663,22.259,7.783,23.267,24.795c0.88,14.862,5.179,60.813,5.255,75.619c0.131,25.471,0.559,30.153-0.751,54.548
	c-17.261,0.309-37.902,2.48-52.915,10.226c-15.563,8.031-25.584,24.023-34.906,36.88c-20.505,28.281-18.484,82.584,3.976,111.057
	c9.125,11.568,23.64,25.623,35.976,35.08c14.63,11.215,29.561,19.975,48.248,24.378c33.009,7.775,72.207-0.47,101.333-17.41
	c16.005-9.312,34.284-14.488,42.726-28.409c9.88-16.284,14.382-34.428,8.314-52.17c-5.799-16.973-11.743-41.119-21.395-56.409
	c-8.65-13.708-29.926-46.746-47.288-53.926c-12.798-5.292-18.783-8.059-33.026-8.059c-4.879,0-6.754,0.93-5.255-4.958
	c2.284-8.956,0.41-25.514,0.751-34.712c0.716-19.344,0.781-27.755,0.752-47.106c-0.02-12.903,1.126-34.092,0-48.348"/>
<path fill="none" stroke="#94D8EC" stroke-width="12" stroke-linecap="round" stroke-linejoin="round" stroke-miterlimit="10" d="
	M79.75,266.75c-1,2.25,9.25,5.25,7.75,0.5c2.225,0.694-10-0.75-4.5,19.25c3.408-3.022,10.673-17.487,14.75-20
	c-0.71,6.068-18.5,15-10.25,33.25c3.869-3.699,5.865-15.344,9.483-19.742c2.129-2.587,7.609-12.017,11.017-12.258
	c-6.579,9.337-12.155,31.179-14.5,42.25c3.127-7.567,5.684-19.721,11.827-25.252c2.312-2.083,9.524-13.929,12.923-13.748
	c-6.359,12.803-14.097,34.864-16.75,49c3.318-5.273,4.994-14.827,8.509-20.281c3.114-4.833,6.841-9.409,10.406-13.985
	c3.207-4.117,5.589-9.034,8.602-13.281c0.042,3.644-3.493,8.557-4.95,11.815c-2.09,4.675-4.015,9.583-5.816,14.309
	c-3.282,8.617-6.186,20.787-9.001,29.424c4.529-11.22,10.188-25.08,16.327-35.568c3.073-5.249,7.103-9.948,10.432-15.039
	c0.953-1.457,2.974-4.818,4.492-5.643c-5.347,9.352-9.237,21.474-13.167,31.585c-3.793,9.759-7.184,22.093-9.583,32.165
	c1.327-1.676,0.836-6.913,1.533-8.978c3.188-9.442,10.205-16.923,15.05-25.523c4.654-8.262,8.543-18.714,13.417-26.749
	c0.877-1.446,11.236,0.229,12.5-0.75c-4.773,13.807-22.114,26.851-26,41c-2.156,7.847-11.25,22.25-2.5,32.25
	c3.067-7.802,5.812-22.254,9.342-30.018c3.357-7.382,5.903-15.081,10.242-21.99c4.848-7.72,10.512-15.088,16.917-21.492
	c-2.929,6.332-5.396,11.681-8.616,17.971c-3.079,6.016-5.048,10.221-6.618,16.737c-1.216,5.05-2.408,10.39-4.024,15.314
	c-1.758,5.354-2.346,10.805-3.657,16.31C144.587,342.72,131.75,349.25,144,356c3.48-17.339,9.917-38.259,18.416-53.934
	c4.504-8.306,8.958-23.026,16.949-28.947c-0.773,2.921-2.757,5.929-4.162,8.588c-2.533,4.794-4.249,9.25-6.219,14.227
	c-3.027,7.643-5.108,16.247-6.73,24.358C159.542,333.851,144,355.5,156.25,363.25c2.97-19.125,10.439-38.674,18.842-56.249
	c3.329-6.962,5.337-15.938,8.908-22.751c1.66-3.166,4.28-6.164,6.95-8.481c0.073,3.041-2.068,5.927-2.641,8.939
	c-1.13,5.946-3.226,10.938-5.24,16.784c-3.406,9.889-5.467,21.205-6.662,31.601c-0.768,6.681-12.658,24.935-12.658,31.657
	c0,4.421,8.137,1.299,10.25,5c1.261-2.743,2.217-8.75,2.66-11.787c0.929-6.372,1.816-12.763,3.423-19.01
	c2.72-10.583,6.59-20.558,10.443-30.775c2.676-7.097,3.611-14.645,6.641-21.664c1.357-3.146,2.562-5.817,3.517-9.108
	c0.186,4.608-2.515,9.552-4.041,13.803c-1.827,5.089-2.812,10.39-4.383,15.556c-3.132,10.308-3.797,20.582-4.611,31.268
	c-0.772,10.138-11.398,27.719,0.602,34.469c-0.443-22.716,4.876-45.509,13.066-66.477c2.858-7.317,1.241-19.222,4.684-26.273
	c1.258-2.576,7.272-1.046,8.265-3.41c0.361,8.922-6.002,17.994-7.004,26.896c-1.639,14.557-8.544,28.736-9.261,43.514
	c-0.273,5.625-3.078,16.884-3,22.5c0.047,3.361,5.342,1.316,6.934,4.32c9.316-3.07,0.404-14.557,0.702-21.837
	c0.212-5.191,2.093-9.452,3.29-14.384c1.532-6.313,1.353-12.726,3.157-19.038c2.522-8.821,5.395-17.529,7.918-26.378
	c1.458-5.11,3.802-10.334,6.613-14.846c-2.159,6.711-2.92,13.958-4.62,20.844c-2.575,10.422-4.912,22.028-5.318,32.729
	c-0.308,8.1-0.978,16.204-0.268,24.28c0.342,3.892-5.658,16.06,1.842,17.56c6.75-2.5,1.065-19.037,2.143-25.107
	c2.53-14.263,4.337-27.523,8.357-41.393c1.85-6.378,0.326-18.389,2.25-24.75c0.82-2.711,8.317-3.961,11.641-4.559
	c-0.908,9.404-3.89,19.052-5.913,28.324c-1.755,8.038-1.464,16.419-2.15,24.584c-0.639,7.588-2.985,15.312-2.327,22.9
	c0.268,3.094-6,12.75,1.25,17.75c0.489-6.116,2.957-17.803,3.142-24.014c0.312-10.439,3.823-21.409,6.351-31.509
	c1.964-7.844,2.206-14.734,4.508-22.478c1.598-5.374,3.611-9.655,5.25-15c-1.52,6.094,13.229-3.107,11.5,3
	c-3.044,10.751-14.577,36.259-15.832,47.349c-1.283,11.332-3.111,28.567-3.418,39.901c1.873-0.442,9.603-2.793,9.75-4.5
	c0.658-7.58-4.628-20.339-2.787-27.722c2.654-10.646,7.495-20.449,10.703-30.854c1.989-6.452,3.734-12.729,6.008-19.087
	c1.238-3.464,2.208-6.17,4.576-9.087c-0.56,1.933,1.728,2.505,1.5,4.5c-0.76,6.667-5.092,13.633-6.157,20.242
	c-1.579,9.802-3.271,19.425-4.51,29.275c-1.237,9.847-0.702,19.582-1.49,29.428c-0.983-3.357,0.676-7.596,1.407-11.06
	c1.253-5.936,2.335-11.492,4.934-17c1.777-3.767,2.114-7.602,2.993-11.659c0.849-3.913,2.549-7.298,4.156-10.97
	c2.868-6.55,1.707-13.317,3.417-20.257c0.771-3.129,2.259-8.864,4.5-11.25c0.729,4.751,1.176,10.904-0.039,15.414
	c-2.928,10.863-8.615,20.78-8.952,32.145c-0.232,7.852-1.259,15.595-1.657,23.434c-0.157,3.075-0.82,3.866,0.148,6.758
	c1.169-13.791,3.903-23.462,9.474-36.184c4.342-9.917,2.38-27.46,6.776-37.316c1.377-3.088,8.558-0.303,11.249-2.455
	c2.131,2.12-1.645,9.449-2.258,12.106c-1.805,7.814-4.237,15.301-6.481,22.999c-3.003,10.302-9.893,24.391-12.01,34.85
	c13.75-2.25,8.684-14.163,9.727-16.908c3.036-7.993,7.032-15.838,11.104-23.331c2.723-5.01,4.375-10.484,6.812-15.646
	c1.974-4.18,1.531-10.066,4.106-13.865c2.083,3.972-0.086,15.458-1.333,19.273c-2.347,7.18-4.72,14.247-6.584,21.562
	c-1.637,6.417-10.652,17.535-10.083,24.165c2.628-3.326,13.113-8.095,14.5-12c2.556-7.192,2.585-17.561,5.742-24.493
	c2.185-4.794,4.271-9.181,5.166-14.34c0.492-2.838,0.588-11.14,2.842-13.167c2.26,2.632,3.989,14.126,3.25,17.25
	c-1.577,6.664-1.12,8.52-2.25,15.25c-0.89,5.297-11.5,19.393-14.5,24"/>
<path fill="none" stroke="#000000" stroke-width="2.0463" stroke-miterlimit="10" d="M221.314,182.425
	c8.521,1.14,16.757,0.436,25.133-0.618c4.289-0.542,9.146-0.489,13.564-0.312c3.796,0.152,9.32,1.518,12.721,0.311"/>
<path fill="none" stroke="#000000" stroke-width="2.0463" stroke-miterlimit="10" d="M297.878,212.797
	c-4.599,1.92-10.938,0.838-16.12,0.613c-10.512-0.457-20.89-1.541-31.45-1.543c-10.544-0.002-21.272-2.377-31.62-1.86"/>
<path fill="none" stroke="#000000" stroke-width="2.0463" stroke-miterlimit="10" d="M312.511,242.233
	c1.115,0.261,3.389,0.915,1.252-0.028c-16.182-1.631-75.138-1.86-91.624-2.539"/>
<path fill="none" stroke="#000000" stroke-width="2.0463" stroke-miterlimit="10" d="M323.667,267.674
	c-19.744,0-47.137-0.127-66.443-0.926c-10.564-0.438-21.297,0.078-31.584,0.926"/>
<g>
	<path d="M320.812,301.22c-4.783,0-9.75-0.634-14.361-1.223c-2.259-0.288-4.392-0.56-6.418-0.751
		c-12.96-1.224-27.205-1.275-38.178-1.18c-6.633,0.056-13.715,0.76-20.563,1.44c-5.849,0.582-11.896,1.183-17.746,1.396
		l-0.074-2.045c5.786-0.211,11.801-0.81,17.618-1.388c6.894-0.686,14.022-1.394,20.748-1.451
		c11.017-0.094,25.333-0.043,38.387,1.189c2.061,0.194,4.21,0.468,6.485,0.759c7.789,0.992,16.618,2.119,23.519,0.004l0.6,1.957
		C327.729,300.878,324.319,301.22,320.812,301.22z"/>
</g>
<g>
	<path d="M247.426,327.602c-8.049,0-15.088-0.072-20.074-0.264l0.078-2.045c13.389,0.514,41.732,0.161,64.507-0.123
		c11.565-0.145,22.489-0.281,29.584-0.281v2.047c-7.082,0-18,0.136-29.558,0.28C277.622,327.395,261.074,327.602,247.426,327.602z"
		/>
</g>
<g>
	<path d="M288.455,356.202c-7.769-1.565-26.533-1.224-41.61-0.949c-8.842,0.162-16.478,0.302-21.25,0.093l0.09-2.045
		c4.706,0.207,12.681,0.061,21.123-0.094c15.965-0.291,34.062-0.62,42.052,0.989L288.455,356.202z"/>
</g>
</svg>
