<?xml version="1.0" encoding="utf-8"?>
<!-- Generator: Adobe Illustrator 23.0.3, SVG Export Plug-In . SVG Version: 6.00 Build 0)  -->
<svg version="1.1" id="Layer_1" xmlns="http://www.w3.org/2000/svg" xmlns:xlink="http://www.w3.org/1999/xlink" x="0px" y="0px"
	 width="1000px" height="1000px" viewBox="0 0 1000 1000" enable-background="new 0 0 1000 1000" xml:space="preserve">
<g id="vs-highlight">
	<path fill="#5DBFD9" d="M502,207c2.7-8.1,10-13.8,19.5-16.5c9.5-2.7,21.3-2.4,33.1,1.6c11.8,4,21.3,10.9,27.2,18.8
		c5.9,7.9,8.2,16.9,5.5,25c-2.7,8.1-10,13.8-19.5,16.5c-9.5,2.7-21.3,2.4-33.1-1.6c-11.8-4-21.3-10.9-27.2-18.8
		C501.6,224.1,499.3,215.1,502,207z"/>
	<path fill="#5DBFD9" d="M412.1,365.5c8.7,0,16.6,3.5,22.3,9.2s9.2,13.6,9.2,22.3s-3.5,16.6-9.2,22.3s-13.6,9.2-22.3,9.2
		s-16.6-3.5-22.3-9.2s-9.2-13.6-9.2-22.3s3.5-16.6,9.2-22.3S403.4,365.5,412.1,365.5z"/>
	<path fill="#5DBFD9" d="M381.1,523.5c5.7,0,10.8,2.3,14.5,6s6,8.8,6,14.5s-2.3,10.8-6,14.5s-8.8,6-14.5,6s-10.8-2.3-14.5-6
		s-6-8.8-6-14.5s2.3-10.8,6-14.5S375.4,523.5,381.1,523.5z"/>
	<path fill="#5DBFD9" d="M576.6,510.5c10.5,0,20,3.7,26.9,9.8s11.1,14.4,11.1,23.7s-4.3,17.6-11.1,23.7s-16.4,9.8-26.9,9.8
		s-20-3.7-26.9-9.8s-11.1-14.4-11.1-23.7s4.3-17.6,11.1-23.7S566.1,510.5,576.6,510.5z"/>
	<path fill="#5DBFD9" d="M134,633.7c3-2,7.2-1.6,11.6,0.6s9,6.4,12.7,11.8c3.7,5.5,5.9,11.2,6.4,16.2c0.5,4.9-0.6,9-3.6,11
		s-7.2,1.6-11.6-0.6c-4.4-2.3-9-6.4-12.7-11.8c-3.7-5.5-5.9-11.2-6.4-16.2C129.9,639.8,131.1,635.7,134,633.7z"/>
	<path fill="#5DBFD9" d="M532.9,830.1c9.8-2.8,19.3-3.2,26.8-1.6s12.8,5.3,14.3,10.6c1.5,5.3-1.1,11.3-6.5,16.6
		c-5.4,5.3-13.7,10-23.5,12.9c-9.8,2.8-19.3,3.2-26.8,1.6c-7.4-1.6-12.8-5.3-14.3-10.6c-1.5-5.3,1.1-11.3,6.5-16.6
		C514.8,837.6,523.1,832.9,532.9,830.1z"/>
	<path fill="#5DBFD9" d="M193.6,677.9c2.9-1.7,6.5-1.4,10,0.3c3.5,1.7,6.9,5,9.4,9.3c2.5,4.3,3.6,8.9,3.3,12.8
		c-0.3,3.9-1.8,7.2-4.7,8.8c-2.9,1.7-6.5,1.4-10-0.3c-3.5-1.7-6.9-5-9.4-9.3c-2.5-4.3-3.6-8.9-3.3-12.8
		C189.1,682.8,190.7,679.6,193.6,677.9z"/>
	<path fill="#5DBFD9" d="M576.6,75.5c71,41,85.5,94.5,92,149s5,110,44,155c12.5,14.5,44.7,61.6,73.2,112.9
		c28.5,51.2,53.2,106.5,50.8,137.1c-6,75-71,150.5-134.5,207.3s-125.5,94.8-125.5,94.8s50.5-13,110.3-42.5s128.8-75.5,165.8-141.5
		c27.8-49.6,55.9-109.3,70.3-175.4c14.4-66.2,15-138.9-12.3-214.6c-45-125-128.5-195.5-200.8-234.8S576.6,75.5,576.6,75.5z"/>
</g>
<g id="vs-outline_1_">
	<path fill="none" stroke="#000000" stroke-width="15" stroke-linecap="round" stroke-linejoin="round" stroke-miterlimit="10" d="
		M500.4,68.2c119.2,0,227.2,48.3,305.3,126.5S932.2,380.8,932.2,500s-48.3,227.2-126.5,305.3S619.6,931.8,500.4,931.8
		s-227.2-48.3-305.3-126.5S68.6,619.2,68.6,500s48.3-227.2,126.5-305.3S381.2,68.2,500.4,68.2z"/>
</g>
<g id="vs-h-reveal">
	
		<polyline fill="none" stroke="#FF5FF4" stroke-width="50" stroke-linecap="round" stroke-linejoin="round" stroke-miterlimit="10" stroke-opacity="0" points="
		134.1,633.7 146.4,655.3 158.6,676.8 	"/>
	
		<polyline fill="none" stroke="#FF5FF4" stroke-width="50" stroke-linecap="round" stroke-linejoin="round" stroke-miterlimit="10" stroke-opacity="0" points="
		196.6,681.2 202.8,695.7 208.9,710.2 	"/>
	
		<polyline fill="none" stroke="#FF5FF4" stroke-width="50" stroke-linecap="round" stroke-linejoin="round" stroke-miterlimit="10" stroke-opacity="0" points="
		377.1,534.4 383.2,548.6 389.3,562.8 	"/>
	
		<polyline fill="none" stroke="#FF5FF4" stroke-width="80" stroke-linecap="round" stroke-linejoin="round" stroke-miterlimit="10" stroke-opacity="0" points="
		552.1,540 580,543.7 608,547.4 	"/>
	
		<polyline fill="none" stroke="#FF5FF4" stroke-width="80" stroke-linecap="round" stroke-linejoin="round" stroke-miterlimit="10" stroke-opacity="0" points="
		399.8,375.4 412.1,397 424.4,418.6 	"/>
	
		<polyline fill="none" stroke="#FF5FF4" stroke-width="80" stroke-linecap="round" stroke-linejoin="round" stroke-miterlimit="10" stroke-opacity="0" points="
		510,206.7 545,222.4 580,238 	"/>
	
		<path fill="none" stroke="#FF5FF4" stroke-width="200" stroke-linecap="round" stroke-linejoin="round" stroke-miterlimit="10" stroke-opacity="0" d="
		M631.1,98.6c0,0,30,43.5,64.4,94.5c34.5,51,73.5,109.5,91.6,139.5c20.8,34.4,49.1,85.5,69.7,137.7c20.6,52.2,33.5,105.5,23.3,144.3
		c-12.2,46.2-63.1,116.1-111,174.4c-47.9,58.3-92.8,105.1-92.8,105.1"/>
	
		<polyline fill="none" stroke="#FF5FF4" stroke-width="50" stroke-linecap="round" stroke-linejoin="round" stroke-miterlimit="10" stroke-opacity="0" points="
		566.6,842.6 534.7,851 502.8,859.5 	"/>
</g>
</svg>
