<?xml version="1.0" encoding="utf-8"?>
<!-- Generator: Adobe Illustrator 23.0.3, SVG Export Plug-In . SVG Version: 6.00 Build 0)  -->
<svg version="1.1" id="Layer_1" xmlns="http://www.w3.org/2000/svg" xmlns:xlink="http://www.w3.org/1999/xlink" x="0px" y="0px"
	 width="400px" height="400px" viewBox="0 0 400 400" enable-background="new 0 0 400 400" xml:space="preserve">
<path fill="#FFFFFF" stroke="#000000" stroke-width="7.6467" stroke-miterlimit="10" d="M193.2,131.9c2,0,3.9,0.8,5.2,2
	s2.2,2.9,2.2,4.7s-0.8,3.5-2.2,4.7s-3.2,2-5.2,2s-3.9-0.8-5.2-2s-2.2-2.9-2.2-4.7s0.8-3.5,2.2-4.7S191.2,131.9,193.2,131.9z"/>
<polyline fill="none" stroke="#000000" stroke-width="7.6467" stroke-miterlimit="10" points="185,139.3 140.8,139.3 96.5,139.3 "/>
<path fill="#FFFFFF" stroke="#000000" stroke-width="7.6467" stroke-miterlimit="10" d="M90.6,132c2,0,3.9,0.8,5.2,2
	s2.2,2.9,2.2,4.7s-0.8,3.5-2.2,4.7s-3.2,2-5.2,2s-3.9-0.8-5.2-2s-2.2-2.9-2.2-4.7s0.8-3.5,2.2-4.7S88.6,132,90.6,132z"/>
<polyline fill="none" stroke="#000000" stroke-width="7.6467" stroke-miterlimit="10" points="87.6,146.7 70.1,183.9 52.7,221.1 "/>
<path fill="#FFFFFF" stroke="#000000" stroke-width="7.6467" stroke-miterlimit="10" d="M52.6,219.6c1.9,0.7,3.2,2.1,3.9,3.7
	c0.7,1.6,0.7,3.4-0.1,5.1c-0.8,1.7-2.3,2.9-4,3.6s-3.8,0.7-5.6-0.1c-1.9-0.7-3.2-2.1-3.9-3.7c-0.7-1.6-0.7-3.4,0.1-5.1
	c0.8-1.7,2.3-2.9,4-3.6C48.7,218.8,50.8,218.8,52.6,219.6z"/>
<polyline fill="none" stroke="#000000" stroke-width="7.6467" stroke-miterlimit="10" points="54.2,230.4 70.5,268.3 86.8,306.2 "/>
<path fill="#FFFFFF" stroke="#000000" stroke-width="7.6467" stroke-miterlimit="10" d="M88.6,304c1.8-0.8,3.8-0.9,5.6-0.4
	s3.3,1.7,4.3,3.4c0.9,1.7,1,3.5,0.4,5.1s-1.9,3.1-3.7,3.9c-1.8,0.8-3.8,0.9-5.6,0.4c-1.8-0.5-3.3-1.7-4.3-3.4s-1-3.5-0.4-5.1
	C85.5,306.2,86.8,304.8,88.6,304z"/>
<polyline fill="none" stroke="#000000" stroke-width="7.6467" stroke-miterlimit="10" points="102.6,311.6 146.9,311.7 191.2,311.8 
	"/>
<path fill="#FFFFFF" stroke="#000000" stroke-width="7.6467" stroke-miterlimit="10" d="M196.2,318.4c-2,0-3.9-0.8-5.2-2
	c-1.3-1.2-2.1-2.9-2.1-4.8c0-1.9,0.8-3.5,2.2-4.7s3.2-2,5.2-2c2,0,3.9,0.8,5.2,2c1.3,1.2,2.1,2.9,2.1,4.8c0,1.9-0.8,3.5-2.2,4.7
	S198.2,318.4,196.2,318.4z"/>
<polyline fill="none" stroke="#000000" stroke-width="7.6467" stroke-miterlimit="10" points="200,306 216.5,268.5 233.1,230.9 "/>
<path fill="#FFFFFF" stroke="#000000" stroke-width="7.6467" stroke-miterlimit="10" d="M233.2,232.5c-1.9-0.7-3.3-2-4-3.6
	s-0.8-3.4-0.1-5.1c0.8-1.7,2.2-3,3.9-3.7c1.7-0.7,3.7-0.7,5.6,0c1.9,0.7,3.3,2,4,3.6c0.7,1.6,0.8,3.4,0.1,5.1
	c-0.8,1.7-2.2,3-3.9,3.7C237,233.1,235,233.2,233.2,232.5z"/>
<polyline fill="none" stroke="#000000" stroke-width="7.6467" stroke-miterlimit="10" points="233.2,218.9 214.8,182.1 196.4,145.3 
	"/>
<path fill="#FFFFFF" stroke="#000000" stroke-width="7.6467" stroke-miterlimit="10" d="M341,48.2c2,0,3.9,0.8,5.2,2
	c1.3,1.2,2.2,2.9,2.2,4.7s-0.8,3.5-2.2,4.7c-1.3,1.2-3.2,2-5.2,2s-3.9-0.8-5.2-2c-1.3-1.2-2.2-2.9-2.2-4.7s0.8-3.5,2.2-4.7
	C337.1,49,338.9,48.2,341,48.2z"/>
<polyline fill="none" stroke="#000000" stroke-width="7.6467" stroke-miterlimit="10" points="332.8,55.7 288.5,55.7 244.2,55.7 "/>
<path fill="#FFFFFF" stroke="#000000" stroke-width="7.6467" stroke-miterlimit="10" d="M238.4,48.3c2,0,3.9,0.8,5.2,2
	c1.3,1.2,2.2,2.9,2.2,4.7s-0.8,3.5-2.2,4.7c-1.3,1.2-3.2,2-5.2,2s-3.9-0.8-5.2-2c-1.3-1.2-2.2-2.9-2.2-4.7s0.8-3.5,2.2-4.7
	C234.5,49.1,236.4,48.3,238.4,48.3z"/>
<polyline fill="none" stroke="#000000" stroke-width="7.6467" stroke-miterlimit="10" points="238,61.7 217.5,97.6 196.9,133.4 "/>
<polyline fill="none" stroke="#000000" stroke-width="7.6467" stroke-miterlimit="10" points="243.9,224.9 288.1,225 332.4,225.1 
	"/>
<path fill="#FFFFFF" stroke="#000000" stroke-width="7.6467" stroke-miterlimit="10" d="M337.4,231.7c-2,0-3.9-0.8-5.2-2
	c-1.3-1.2-2.1-2.9-2.1-4.8c0-1.9,0.8-3.5,2.2-4.7s3.2-2,5.2-2c2,0,3.9,0.8,5.2,2s2.1,2.9,2.1,4.8c0,1.9-0.8,3.5-2.2,4.7
	C341.3,231,339.5,231.7,337.4,231.7z"/>
<polyline fill="none" stroke="#000000" stroke-width="7.6467" stroke-miterlimit="10" points="340.2,220.1 356.8,182.6 373.3,145 
	"/>
<path fill="#FFFFFF" stroke="#000000" stroke-width="7.6467" stroke-miterlimit="10" d="M372.9,146c-1.9-0.7-3.3-2-4-3.6
	s-0.8-3.4-0.1-5.1c0.8-1.7,2.2-3,3.9-3.7c1.7-0.7,3.7-0.7,5.6,0c1.9,0.7,3.3,2,4,3.6s0.8,3.4,0.1,5.1c-0.8,1.7-2.2,3-3.9,3.7
	C376.8,146.7,374.8,146.7,372.9,146z"/>
<polyline fill="none" stroke="#000000" stroke-width="7.6467" stroke-miterlimit="10" points="373.1,136.3 358,98.3 342.8,60.3 "/>
</svg>
